<svg width="40" height="40" viewBox="0 0 40 40" fill="none" xmlns="http://www.w3.org/2000/svg">
<path d="M30.8058 27.9456C29.7453 28.1991 28.6384 28.3333 27.5002 28.3333C19.6761 28.3333 13.3335 21.9907 13.3335 14.1667C13.3335 13.3609 13.4008 12.5708 13.53 11.8018C13.4697 11.8598 13.4074 11.9132 13.3417 11.963C12.8741 12.3181 12.2916 12.4498 11.1266 12.7134L10.0661 12.9534C5.96659 13.8809 3.91686 14.3447 3.4292 15.9129C2.94154 17.4811 4.33891 19.1151 7.13366 22.3832L7.85669 23.2287C8.65087 24.1574 9.04796 24.6217 9.2266 25.1962C9.40524 25.7707 9.34521 26.3902 9.22514 27.6293L9.11582 28.7573C8.69329 33.1177 8.48203 35.2978 9.75874 36.267C11.0355 37.2362 12.9546 36.3526 16.7929 34.5853L17.786 34.1281C18.8767 33.6259 19.4221 33.3748 20.0002 33.3748C20.5783 33.3748 21.1236 33.6259 22.2144 34.1281L23.2074 34.5853C27.0457 36.3526 28.9649 37.2362 30.2416 36.267C31.5183 35.2978 31.307 33.1177 30.8845 28.7573L30.8058 27.9456Z" fill="#EFBC09"/>
<path d="M15.2552 9.014L14.709 9.99376C14.1091 11.0699 13.8092 11.608 13.3415 11.9631C13.4071 11.9132 13.4695 11.8598 13.5298 11.8018C13.4005 12.5709 13.3333 13.3609 13.3333 14.1667C13.3333 21.9907 19.6759 28.3334 27.4999 28.3334C28.6382 28.3334 29.745 28.1991 30.8056 27.9456L30.7749 27.6293C30.6549 26.3902 30.5948 25.7707 30.7735 25.1962C30.9521 24.6218 31.3492 24.1574 32.1434 23.2287L32.8664 22.3832C35.6612 19.1152 37.0585 17.4811 36.5709 15.9129C36.0832 14.3447 34.0335 13.881 29.934 12.9534L28.8734 12.7135C27.7085 12.4499 27.126 12.3181 26.6584 11.9631C26.1907 11.608 25.8907 11.0699 25.2908 9.99377L24.7446 9.014C22.6336 5.22691 21.578 3.33337 19.9999 3.33337C18.4218 3.33337 17.3663 5.22692 15.2552 9.014Z" fill="#EFBC09"/>
</svg>
