<svg width="25" height="24" viewBox="0 0 25 24" fill="none" xmlns="http://www.w3.org/2000/svg">
<path d="M2.5 12C2.5 7.28595 2.5 4.92893 3.96447 3.46447C5.42893 2 7.78595 2 12.5 2C17.214 2 19.5711 2 21.0355 3.46447C22.5 4.92893 22.5 7.28595 22.5 12C22.5 16.714 22.5 19.0711 21.0355 20.5355C19.5711 22 17.214 22 12.5 22C7.78595 22 5.42893 22 3.96447 20.5355C2.5 19.0711 2.5 16.714 2.5 12Z" fill="#D20034"/>
<path fill-rule="evenodd" clip-rule="evenodd" d="M18.5 9.77606C18.5 11.8615 16.8025 13.5521 14.7084 13.5521C14.3264 13.5521 13.4564 13.4643 13.0331 13.113L12.504 13.64C12.193 13.9498 12.277 14.041 12.4153 14.1912C12.4731 14.2539 12.5403 14.3269 12.5922 14.4303C12.5922 14.4303 13.0331 15.045 12.5922 15.6597C12.3277 16.011 11.587 16.5027 10.7405 15.6597L10.5642 15.8353C10.5642 15.8353 11.0932 16.45 10.6523 17.0647C10.3878 17.416 9.68242 17.7673 9.06519 17.1526L8.44796 17.7673C8.02471 18.1888 7.50743 17.9429 7.3017 17.7673L6.77264 17.2404C6.27886 16.7486 6.5669 16.2159 6.77264 16.011L11.3578 11.4446C11.3578 11.4446 10.9169 10.742 10.9169 9.77606C10.9169 7.6906 12.6144 6 14.7084 6C16.8025 6 18.5 7.6906 18.5 9.77606ZM14.7084 11.0932C15.4388 11.0932 16.031 10.5035 16.031 9.77597C16.031 9.04848 15.4388 8.45874 14.7084 8.45874C13.9779 8.45874 13.3857 9.04848 13.3857 9.77597C13.3857 10.5035 13.9779 11.0932 14.7084 11.0932Z" fill="white"/>
</svg>
