<svg width="25" height="24" viewBox="0 0 25 24" fill="none" xmlns="http://www.w3.org/2000/svg">
<path opacity="0.5" d="M2.5 12C2.5 6.47715 6.97715 2 12.5 2C18.0228 2 22.5 6.47715 22.5 12C22.5 17.5228 18.0228 22 12.5 22C6.97715 22 2.5 17.5228 2.5 12Z" fill="white"/>
<path d="M11.7274 8.56904L9.71236 10.1737C8.86695 10.8469 8.44424 11.1836 8.52675 11.5594L8.53114 11.578C8.62514 11.9515 9.16096 12.0951 10.2326 12.3823C10.8281 12.5418 11.1259 12.6216 11.2656 12.8473L11.2727 12.8592C11.4075 13.0876 11.3308 13.3737 11.1775 13.9459L11.1374 14.0954L11.1374 14.0954C10.7123 15.6818 10.4998 16.4749 10.9091 16.7311C11.3184 16.9872 11.9697 16.4686 13.2722 15.4314L13.2723 15.4314L15.2873 13.8267C16.1327 13.1535 16.5554 12.8169 16.4729 12.441L16.4686 12.4224C16.3745 12.0489 15.8387 11.9053 14.7671 11.6182C14.1716 11.4586 13.8738 11.3788 13.7341 11.1531L13.727 11.1412C13.5922 10.9128 13.6689 10.6267 13.8222 10.0546L13.8623 9.905C14.2873 8.31864 14.4999 7.52547 14.0905 7.26931C13.6812 7.01316 13.0299 7.53179 11.7274 8.56904Z" fill="white"/>
</svg>
