<svg width="25" height="24" viewBox="0 0 25 24" fill="none" xmlns="http://www.w3.org/2000/svg">
<path d="M20.7699 8.48505L21.4754 12.5648C21.6516 13.5838 20.868 14.5158 19.835 14.5158H14.6539C14.1404 14.5158 13.7494 14.9767 13.8325 15.484L14.4952 19.5286C14.6028 20.1857 14.5721 20.858 14.4049 21.5025C14.2664 22.0364 13.8545 22.465 13.3128 22.6391L13.1678 22.6856C12.8404 22.7908 12.4831 22.7663 12.1744 22.6176C11.8347 22.4539 11.5861 22.1553 11.494 21.8001L11.0183 19.9663C10.8669 19.3828 10.6465 18.8195 10.3622 18.2874C9.94683 17.5098 9.30465 16.8875 8.63711 16.3123L7.19838 15.0725C6.79272 14.7229 6.57968 14.1994 6.62584 13.6656L7.43801 4.27293C7.5125 3.41139 8.2328 2.75 9.09658 2.75H13.7452C17.2265 2.75 20.1975 5.17561 20.7699 8.48505Z" fill="white"/>
<path opacity="0.5" fill-rule="evenodd" clip-rule="evenodd" d="M3.46767 15.2651C3.86893 15.2824 4.21261 14.9806 4.24721 14.5804L5.21881 3.34389C5.28122 2.6221 4.71268 2 3.98671 2C3.30289 2 2.75 2.55474 2.75 3.23726V14.5158C2.75 14.9174 3.0664 15.2478 3.46767 15.2651Z" fill="white"/>
</svg>
