<svg width="14" height="15" viewBox="0 0 14 15" fill="none" xmlns="http://www.w3.org/2000/svg">
<g opacity="0.5">
<path d="M0.333496 14.4669L1.29013 10.913C0.518629 9.52863 0.273515 7.91315 0.599768 6.36303C0.926022 4.81292 1.80176 3.43214 3.06628 2.47409C4.3308 1.51603 5.89928 1.04496 7.48391 1.14731C9.06854 1.24966 10.563 1.91856 11.6931 3.03128C12.8232 4.14401 13.5131 5.6259 13.6362 7.20504C13.7593 8.78418 13.3074 10.3546 12.3633 11.6282C11.4192 12.9018 10.0464 13.7931 8.49668 14.1386C6.94697 14.484 5.32433 14.2605 3.92653 13.5089L0.333496 14.4669ZM4.09978 12.179L4.32199 12.3105C5.33445 12.9091 6.51698 13.1568 7.6853 13.015C8.85363 12.8732 9.94213 12.3499 10.7812 11.5267C11.6202 10.7034 12.1626 9.62648 12.324 8.46361C12.4853 7.30074 12.2564 6.11731 11.673 5.09772C11.0897 4.07814 10.1845 3.27969 9.09869 2.82679C8.01286 2.37389 6.80733 2.29198 5.66996 2.59384C4.53259 2.8957 3.52727 3.56435 2.81067 4.49562C2.09407 5.42688 1.70644 6.56843 1.70819 7.74238C1.70724 8.71577 1.97713 9.67033 2.48781 10.4998L2.62716 10.7289L2.09235 12.7125L4.09978 12.179Z" fill="#8F5155"/>
<path fill-rule="evenodd" clip-rule="evenodd" d="M9.49293 8.65468C9.36266 8.54988 9.21013 8.47612 9.04697 8.43901C8.8838 8.4019 8.71429 8.40243 8.55136 8.44055C8.30655 8.54198 8.14836 8.92516 7.99018 9.11675C7.95682 9.16268 7.90781 9.1949 7.85234 9.20734C7.79686 9.21979 7.73874 9.21163 7.68888 9.18438C6.79262 8.83424 6.04138 8.19214 5.55716 7.36237C5.51586 7.31059 5.49631 7.24485 5.50263 7.17898C5.50896 7.11312 5.54066 7.05227 5.59106 7.00924C5.76748 6.83503 5.89702 6.61926 5.96768 6.38188C5.98338 6.12004 5.92323 5.85922 5.79444 5.63053C5.69486 5.30992 5.50536 5.02444 5.24832 4.80782C5.11575 4.74834 4.96876 4.7284 4.82507 4.7504C4.68139 4.7724 4.54716 4.83539 4.43857 4.93179C4.25006 5.09402 4.10043 5.29636 4.0007 5.52391C3.90097 5.75147 3.85369 5.99844 3.86233 6.24663C3.86291 6.38601 3.88062 6.52479 3.91506 6.65987C4.00251 6.98441 4.13701 7.29448 4.31429 7.58026C4.44219 7.79918 4.58174 8.01111 4.73234 8.21515C5.22179 8.88534 5.83703 9.45436 6.54393 9.89064C6.89865 10.1124 7.27777 10.2926 7.67381 10.4279C8.08521 10.6139 8.53943 10.6853 8.98824 10.6345C9.24396 10.5959 9.48625 10.4952 9.69378 10.3412C9.90131 10.1873 10.0677 9.9848 10.1784 9.75164C10.2434 9.61079 10.2631 9.45332 10.2349 9.30083C10.1671 8.98903 9.74903 8.80495 9.49293 8.65468Z" fill="#8F5155"/>
</g>
</svg>
