<svg width="24" height="24" viewBox="0 0 24 24" fill="none" xmlns="http://www.w3.org/2000/svg">
<path d="M2.6965 1.21537C2.30597 0.824842 1.67281 0.824842 1.28229 1.21537C0.891761 1.60589 0.891761 2.23906 1.28229 2.62958L2.6965 1.21537ZM21.5103 22.8576C21.9008 23.2481 22.534 23.2481 22.9245 22.8576C23.3151 22.4671 23.3151 21.8339 22.9245 21.4434L21.5103 22.8576ZM1.63469 21.091C1.24417 21.4815 1.24417 22.1147 1.63469 22.5052C2.02521 22.8957 2.65838 22.8957 3.0489 22.5052L1.63469 21.091ZM22.5721 2.98198C22.9626 2.59146 22.9626 1.95829 22.5721 1.56777C22.1816 1.17725 21.5484 1.17725 21.1579 1.56777L22.5721 2.98198ZM1.28229 2.62958L21.5103 22.8576L22.9245 21.4434L2.6965 1.21537L1.28229 2.62958ZM3.0489 22.5052L22.5721 2.98198L21.1579 1.56777L1.63469 21.091L3.0489 22.5052Z" fill="white"/>
</svg>
