<svg width="20" height="20" viewBox="0 0 20 20" fill="none" xmlns="http://www.w3.org/2000/svg">
<path d="M9 17L6.75 15C5.65267 14.028 4.736 13.167 4 12.417C3.264 11.667 2.67367 10.9793 2.229 10.354C1.78433 9.72933 1.46833 9.14267 1.281 8.594C1.09367 8.04533 1 7.47933 1 6.896C1 5.66 1.42 4.61833 2.26 3.771C3.10067 2.92367 4.132 2.5 5.354 2.5C6.04867 2.5 6.719 2.646 7.365 2.938C8.01033 3.22933 8.55533 3.639 9 4.167C9.44467 3.639 9.97933 3.22933 10.604 2.938C11.2293 2.646 11.882 2.5 12.562 2.5C13.646 2.5 14.594 2.83 15.406 3.49C16.2187 4.14933 16.7223 4.986 16.917 6H15.354C15.1593 5.41667 14.812 4.93733 14.312 4.562C13.812 4.18733 13.2287 4 12.562 4C11.7707 4 11.1633 4.198 10.74 4.594C10.316 4.99 9.875 5.45867 9.417 6H8.583C8.111 5.44467 7.65633 4.97233 7.219 4.583C6.781 4.19433 6.15933 4 5.354 4C4.56267 4 3.889 4.27767 3.333 4.833C2.77767 5.389 2.5 6.07667 2.5 6.896C2.5 7.32667 2.58667 7.76767 2.76 8.219C2.934 8.67033 3.26067 9.198 3.74 9.802C4.21867 10.406 4.87833 11.1213 5.719 11.948C6.559 12.7747 7.65267 13.785 9 14.979C9.34733 14.6737 9.85767 14.2223 10.531 13.625C11.205 13.0277 11.6807 12.597 11.958 12.333L12.125 12.5L12.49 12.865L12.854 13.229L13.021 13.396C12.729 13.6733 12.4093 13.965 12.062 14.271L11.208 15.021L9 17ZM15.25 13.5V11.25H13V9.75H15.25V7.5H16.75V9.75H19V11.25H16.75V13.5H15.25Z" fill="white"/>
</svg>
