<svg width="18" height="15" viewBox="0 0 18 15" fill="none" xmlns="http://www.w3.org/2000/svg">
<path d="M8 15L5.75 13C4.65267 12.028 3.736 11.167 3 10.417C2.264 9.667 1.67367 8.97933 1.229 8.354C0.784333 7.72933 0.468333 7.14267 0.281 6.594C0.0936667 6.04533 0 5.47933 0 4.896C0 3.66 0.42 2.61833 1.26 1.771C2.10067 0.923667 3.132 0.5 4.354 0.5C5.04867 0.5 5.719 0.646 6.365 0.938C7.01033 1.22933 7.55533 1.639 8 2.167C8.44467 1.639 8.97933 1.22933 9.604 0.938C10.2293 0.646 10.882 0.5 11.562 0.5C12.646 0.5 13.594 0.83 14.406 1.49C15.2187 2.14933 15.7223 2.986 15.917 4H14.354C14.1593 3.41667 13.812 2.93733 13.312 2.562C12.812 2.18733 12.2287 2 11.562 2C10.7707 2 10.1633 2.198 9.74 2.594C9.316 2.99 8.875 3.45867 8.417 4H7.583C7.111 3.44467 6.65633 2.97233 6.219 2.583C5.781 2.19433 5.15933 2 4.354 2C3.56267 2 2.889 2.27767 2.333 2.833C1.77767 3.389 1.5 4.07667 1.5 4.896C1.5 5.32667 1.58667 5.76767 1.76 6.219C1.934 6.67033 2.26067 7.198 2.74 7.802C3.21867 8.406 3.87833 9.12133 4.719 9.948C5.559 10.7747 6.65267 11.785 8 12.979C8.34733 12.6737 8.85767 12.2223 9.531 11.625C10.205 11.0277 10.6807 10.597 10.958 10.333L11.125 10.5L11.49 10.865L11.854 11.229L12.021 11.396C11.729 11.6733 11.4093 11.965 11.062 12.271L10.208 13.021L8 15ZM14.25 11.5V9.25H12V7.75H14.25V5.5H15.75V7.75H18V9.25H15.75V11.5H14.25Z" fill="#EB5757"/>
</svg>
