<svg width="16" height="16" viewBox="0 0 16 16" fill="none" xmlns="http://www.w3.org/2000/svg">
<path d="M10.9963 2.39307C9.70641 2.39307 8.60425 3.31245 7.99871 3.9463C7.39317 3.31245 6.29348 2.39307 5.00425 2.39307C2.7821 2.39307 1.23071 3.94199 1.23071 6.15922C1.23071 8.6023 3.15748 10.1814 5.02148 11.7088C5.90148 12.4306 6.81225 13.1765 7.51071 14.0035C7.62825 14.142 7.80056 14.222 7.98148 14.222H8.01717C8.19871 14.222 8.37041 14.1414 8.48733 14.0035C9.18702 13.1765 10.0972 12.43 10.9778 11.7088C12.8412 10.182 14.7692 8.60291 14.7692 6.15922C14.7692 3.94199 13.2178 2.39307 10.9963 2.39307Z" fill="#EE404C"/>
</svg>
