<svg width="16" height="16" viewBox="0 0 16 16" fill="none" xmlns="http://www.w3.org/2000/svg">
<g clip-path="url(#clip0_328_58035)">
<path d="M4.86622 8.02239H11.1337C11.2443 8.02226 11.3503 7.97829 11.4284 7.90011C11.5066 7.82194 11.5506 7.71595 11.5507 7.60539V5.45264C11.5506 5.34209 11.5066 5.2361 11.4284 5.15793C11.3503 5.07975 11.2443 5.03578 11.1337 5.03564H4.86622C4.75566 5.03578 4.64968 5.07975 4.5715 5.15793C4.49333 5.2361 4.44935 5.34209 4.44922 5.45264V7.60539C4.44922 7.83539 4.63622 8.02239 4.86622 8.02239Z" fill="#A3A3A3"/>
<path d="M8 0.5C3.858 0.5 0.5 3.858 0.5 8C0.5 12.142 3.858 15.5 8 15.5C12.142 15.5 15.5 12.142 15.5 8C15.5 3.858 12.142 0.5 8 0.5ZM4.319 13.9505C3.88776 13.6824 3.48669 13.3686 3.12275 13.0145L3.7855 12.1465C3.99374 12.2811 4.23632 12.3528 4.48425 12.3532H5.366L4.319 13.9505ZM4.4845 11.8532C4.27303 11.8537 4.07004 11.7702 3.92016 11.621C3.77028 11.4718 3.68578 11.2692 3.68525 11.0577V5.17075C3.68525 3.59875 5.84275 2.81275 8.00025 2.81275C10.1575 2.81275 12.3147 3.59875 12.3147 5.17075V11.058C12.3142 11.2694 12.2298 11.4719 12.08 11.6211C11.9302 11.7702 11.7274 11.8538 11.516 11.8535H4.4845V11.8532ZM11.6812 13.9505L10.6342 12.3532H11.5157C11.7732 12.3532 12.012 12.276 12.214 12.1468L12.8772 13.0147C12.5135 13.3688 12.1125 13.6826 11.6812 13.9505Z" fill="#A3A3A3"/>
<path d="M5.85892 9.64551H4.68067C4.41067 9.64551 4.19092 9.86376 4.19092 10.1328C4.19092 10.4018 4.41067 10.62 4.68067 10.62H5.85892C6.12942 10.62 6.34867 10.4018 6.34867 10.1328C6.34867 9.86376 6.12942 9.64551 5.85892 9.64551ZM5.26992 10.5505C5.21506 10.5505 5.16073 10.5398 5.11003 10.5188C5.05934 10.4978 5.01327 10.4671 4.97445 10.4283C4.93564 10.3896 4.90484 10.3435 4.88381 10.2929C4.86279 10.2422 4.85195 10.1879 4.85192 10.133C4.85188 10.0781 4.86266 10.0238 4.88362 9.97312C4.90459 9.92243 4.93533 9.87636 4.9741 9.83754C5.01287 9.79873 5.0589 9.76793 5.10957 9.7469C5.16024 9.72588 5.21456 9.71504 5.26942 9.71501C5.38021 9.71494 5.48649 9.75889 5.56489 9.83719C5.64328 9.91548 5.68735 10.0217 5.68742 10.1325C5.68748 10.2433 5.64353 10.3496 5.56524 10.428C5.48694 10.5064 5.38071 10.5504 5.26992 10.5505ZM11.8084 10.1328C11.8081 10.0033 11.7564 9.87924 11.6646 9.78788C11.5729 9.69652 11.4486 9.64531 11.3192 9.64551H10.1404C9.86992 9.64551 9.65117 9.86376 9.65117 10.1328C9.65117 10.4018 9.86992 10.62 10.1404 10.62H11.3192C11.5892 10.62 11.8084 10.4018 11.8084 10.1328ZM10.7299 10.5505C10.6751 10.5505 10.6207 10.5398 10.57 10.5188C10.5193 10.4978 10.4733 10.4671 10.4345 10.4283C10.3956 10.3896 10.3648 10.3435 10.3438 10.2929C10.3228 10.2422 10.312 10.1879 10.3119 10.133C10.3119 10.0781 10.3227 10.0238 10.3436 9.97312C10.3646 9.92243 10.3953 9.87636 10.4341 9.83754C10.4729 9.79873 10.5189 9.76793 10.5696 9.7469C10.6202 9.72588 10.6746 9.71504 10.7294 9.71501C10.8402 9.71494 10.9465 9.75889 11.0249 9.83719C11.1033 9.91548 11.1474 10.0217 11.1474 10.1325C11.1475 10.2433 11.1035 10.3496 11.0252 10.428C10.9469 10.5064 10.8407 10.5504 10.7299 10.5505Z" fill="#A3A3A3"/>
</g>
<defs>
<clipPath id="clip0_328_58035">
<rect width="16" height="16" fill="white"/>
</clipPath>
</defs>
</svg>
