<svg width="24" height="24" viewBox="0 0 24 24" fill="none" xmlns="http://www.w3.org/2000/svg">
<mask id="mask0_222_32501" style="mask-type:alpha" maskUnits="userSpaceOnUse" x="0" y="0" width="24" height="24">
<rect width="24" height="24" fill="#D9D9D9"/>
</mask>
<g mask="url(#mask0_222_32501)">
<path d="M5.20019 21.5999V16.7999H2.2002L5.32499 9.5003C5.45859 9.1667 5.67939 8.8999 5.98739 8.6999C6.29619 8.4999 6.63379 8.3999 7.00019 8.3999C7.36659 8.3999 7.70419 8.4999 8.01299 8.6999C8.32099 8.8999 8.54179 9.1667 8.67539 9.5003L11.8002 16.7999H8.80019V21.5999H5.20019ZM7.00019 6.5999C6.41699 6.5999 5.921 6.3959 5.5122 5.9879C5.1042 5.5791 4.90019 5.0831 4.90019 4.4999C4.90019 3.9167 5.1042 3.4207 5.5122 3.0119C5.921 2.6039 6.41699 2.3999 7.00019 2.3999C7.58339 2.3999 8.07939 2.6039 8.48819 3.0119C8.89619 3.4207 9.10019 3.9167 9.10019 4.4999C9.10019 5.0831 8.89619 5.5791 8.48819 5.9879C8.07939 6.3959 7.58339 6.5999 7.00019 6.5999Z" fill="#2F80ED"/>
<path d="M14.7995 21.5999V15.5999H12.9995V10.1999C12.9995 9.6999 13.1747 9.2751 13.5251 8.9255C13.8747 8.5751 14.2995 8.3999 14.7995 8.3999H18.3995C18.8995 8.3999 19.3243 8.5751 19.6739 8.9255C20.0243 9.2751 20.1995 9.6999 20.1995 10.1999V15.5999H18.3995V21.5999H14.7995ZM16.5995 6.5999C16.0163 6.5999 15.5203 6.3959 15.1115 5.9879C14.7035 5.5791 14.4995 5.0831 14.4995 4.4999C14.4995 3.9167 14.7035 3.4207 15.1115 3.0119C15.5203 2.6039 16.0163 2.3999 16.5995 2.3999C17.1827 2.3999 17.6787 2.6039 18.0875 3.0119C18.4955 3.4207 18.6995 3.9167 18.6995 4.4999C18.6995 5.0831 18.4955 5.5791 18.0875 5.9879C17.6787 6.3959 17.1827 6.5999 16.5995 6.5999Z" fill="#2F80ED"/>
</g>
</svg>
