<svg width="16" height="16" viewBox="0 0 16 16" fill="none" xmlns="http://www.w3.org/2000/svg">
<path d="M7.26673 1.3999L13.8661 2.34324L14.8087 8.94324L8.68073 15.0712C8.55571 15.1962 8.38617 15.2664 8.2094 15.2664C8.03262 15.2664 7.86308 15.1962 7.73806 15.0712L1.13806 8.47124C1.01308 8.34622 0.942871 8.17668 0.942871 7.9999C0.942871 7.82313 1.01308 7.65359 1.13806 7.52857L7.26673 1.3999ZM9.15206 7.05724C9.2759 7.18103 9.42291 7.27922 9.58469 7.3462C9.74647 7.41318 9.91986 7.44764 10.095 7.4476C10.2701 7.44757 10.4434 7.41305 10.6052 7.34602C10.767 7.27898 10.9139 7.18074 11.0377 7.0569C11.1615 6.93307 11.2597 6.78606 11.3267 6.62428C11.3937 6.46249 11.4281 6.2891 11.4281 6.114C11.4281 5.9389 11.3935 5.76552 11.3265 5.60376C11.2595 5.442 11.1612 5.29503 11.0374 5.17124C10.9136 5.04744 10.7666 4.94925 10.6048 4.88227C10.443 4.81529 10.2696 4.78084 10.0945 4.78087C9.74086 4.78093 9.40174 4.92147 9.15173 5.17157C8.90172 5.42167 8.7613 5.76084 8.76136 6.11447C8.76142 6.4681 8.90196 6.80723 9.15206 7.05724Z" fill="#A3A3A3"/>
</svg>
