<svg width="17" height="16" viewBox="0 0 17 16" fill="none" xmlns="http://www.w3.org/2000/svg">
<g clip-path="url(#clip0_334_87440)">
<path d="M8.1543 0C6.03305 0 3.9968 0.843375 2.49805 2.34313C0.99775 3.84347 0.154712 5.87823 0.154297 8C0.154297 10.1209 0.998047 12.1571 2.49805 13.6569C3.9968 15.1566 6.03305 16 8.1543 16C10.2755 16 12.3118 15.1566 13.8105 13.6569C15.3105 12.1571 16.1543 10.1209 16.1543 8C16.1543 5.87913 15.3105 3.84288 13.8105 2.34313C12.3118 0.843375 10.2755 0 8.1543 0Z" fill="url(#paint0_linear_334_87440)"/>
<path d="M3.77561 7.91553C6.10811 6.89953 7.66311 6.22965 8.44061 5.90603C10.6631 4.9819 11.1244 4.8214 11.4256 4.81597C11.4919 4.8149 11.6394 4.83128 11.7356 4.90909C11.8156 4.97472 11.8381 5.06347 11.8494 5.12578C11.8594 5.18803 11.8731 5.3299 11.8619 5.44065C11.7419 6.70565 11.2206 9.7754 10.9556 11.1923C10.8444 11.7918 10.6231 11.9928 10.4094 12.0124C9.94436 12.0552 9.59186 11.7054 9.14186 11.4105C8.43811 10.9489 8.04061 10.6617 7.35686 10.2113C6.56686 9.69078 7.07936 9.40465 7.52936 8.93715C7.64686 8.81478 9.69436 6.9529 9.73311 6.78403C9.73811 6.7629 9.74311 6.68415 9.69561 6.64265C9.64936 6.60103 9.58061 6.61528 9.53061 6.62653C9.45936 6.64253 8.33561 7.38603 6.15561 8.8569C5.83686 9.07615 5.54811 9.18303 5.28811 9.1774C5.00311 9.17128 4.45311 9.0159 4.04436 8.88315C3.54436 8.72028 3.14561 8.63415 3.18061 8.35753C3.19811 8.21353 3.39686 8.06615 3.77561 7.91553Z" fill="white"/>
</g>
<defs>
<linearGradient id="paint0_linear_334_87440" x1="8.1543" y1="0" x2="8.1543" y2="16" gradientUnits="userSpaceOnUse">
<stop stop-color="#2AABEE"/>
<stop offset="1" stop-color="#229ED9"/>
</linearGradient>
<clipPath id="clip0_334_87440">
<rect width="16" height="16" fill="white" transform="translate(0.154297)"/>
</clipPath>
</defs>
</svg>
