<svg width="156" height="32" viewBox="0 0 156 32" fill="none" xmlns="http://www.w3.org/2000/svg">
<path d="M32 27V5H156V27H32Z" fill="#6DC180"/>
<path d="M42.5909 20.1236C42.1733 20.1236 41.8011 20.0511 41.4744 19.9062C41.1477 19.7585 40.8892 19.5412 40.6989 19.2543C40.5114 18.9645 40.4176 18.6037 40.4176 18.1719C40.4176 17.8082 40.4844 17.5028 40.6179 17.2557C40.7514 17.0085 40.9332 16.8097 41.1634 16.6591C41.3935 16.5085 41.6548 16.3949 41.9474 16.3182C42.2429 16.2415 42.5526 16.1875 42.8764 16.1562C43.2571 16.1165 43.5639 16.0795 43.7969 16.0455C44.0298 16.0085 44.1989 15.9545 44.304 15.8835C44.4091 15.8125 44.4616 15.7074 44.4616 15.5682V15.5426C44.4616 15.2727 44.3764 15.0639 44.206 14.9162C44.0384 14.7685 43.7997 14.6946 43.4901 14.6946C43.1634 14.6946 42.9034 14.767 42.7102 14.9119C42.517 15.054 42.3892 15.233 42.3267 15.4489L40.6477 15.3125C40.733 14.9148 40.9006 14.571 41.1506 14.2812C41.4006 13.9886 41.723 13.7642 42.1179 13.608C42.5156 13.4489 42.9759 13.3693 43.4986 13.3693C43.8622 13.3693 44.2102 13.4119 44.5426 13.4972C44.8778 13.5824 45.1747 13.7145 45.4332 13.8935C45.6946 14.0724 45.9006 14.3026 46.0511 14.5838C46.2017 14.8622 46.277 15.196 46.277 15.5852V20H44.5554V19.0923H44.5043C44.3991 19.2969 44.2585 19.4773 44.0824 19.6335C43.9062 19.7869 43.6946 19.9077 43.4474 19.9957C43.2003 20.081 42.9148 20.1236 42.5909 20.1236ZM43.1108 18.8707C43.3778 18.8707 43.6136 18.8182 43.8182 18.7131C44.0227 18.6051 44.1832 18.4602 44.2997 18.2784C44.4162 18.0966 44.4744 17.8906 44.4744 17.6605V16.9659C44.4176 17.0028 44.3395 17.0369 44.2401 17.0682C44.1435 17.0966 44.0341 17.1236 43.9119 17.1491C43.7898 17.1719 43.6676 17.1932 43.5455 17.2131C43.4233 17.2301 43.3125 17.2457 43.2131 17.2599C43 17.2912 42.8139 17.3409 42.6548 17.4091C42.4957 17.4773 42.3722 17.5696 42.2841 17.6861C42.196 17.7997 42.152 17.9418 42.152 18.1122C42.152 18.3594 42.2415 18.5483 42.4205 18.679C42.6023 18.8068 42.8324 18.8707 43.1108 18.8707ZM52.2408 16.0028V17.4304H48.8232V16.0028H52.2408ZM49.4197 13.4545V20H47.6854V13.4545H49.4197ZM53.3786 13.4545V20H51.657V13.4545H53.3786ZM54.7869 20V13.4545H56.6023V15.9943H57.1136L58.8949 13.4545H61.0256L58.7116 16.7017L61.0511 20H58.8949L57.2798 17.6776H56.6023V20H54.7869ZM64.5316 20.1278C63.8583 20.1278 63.2788 19.9915 62.793 19.7188C62.31 19.4432 61.9379 19.054 61.6765 18.5511C61.4151 18.0455 61.2844 17.4474 61.2844 16.7571C61.2844 16.0838 61.4151 15.4929 61.6765 14.9844C61.9379 14.4759 62.3058 14.0795 62.7802 13.7955C63.2575 13.5114 63.8171 13.3693 64.4592 13.3693C64.891 13.3693 65.293 13.4389 65.6651 13.5781C66.0401 13.7145 66.3668 13.9205 66.6452 14.196C66.9265 14.4716 67.1452 14.8182 67.3015 15.2358C67.4577 15.6506 67.5359 16.1364 67.5359 16.6932V17.1918H62.0089V16.0668H65.8271C65.8271 15.8054 65.7702 15.5739 65.6566 15.3722C65.543 15.1705 65.3853 15.0128 65.1836 14.8991C64.9847 14.7827 64.7532 14.7244 64.489 14.7244C64.2134 14.7244 63.9691 14.7884 63.756 14.9162C63.5458 15.0412 63.381 15.2102 63.2617 15.4233C63.1424 15.6335 63.0813 15.8679 63.0785 16.1264V17.196C63.0785 17.5199 63.1381 17.7997 63.2575 18.0355C63.3796 18.2713 63.5515 18.4531 63.7731 18.581C63.9947 18.7088 64.2575 18.7727 64.5614 18.7727C64.7631 18.7727 64.9478 18.7443 65.1154 18.6875C65.283 18.6307 65.4265 18.5455 65.5458 18.4318C65.6651 18.3182 65.756 18.179 65.8185 18.0142L67.4975 18.125C67.4123 18.5284 67.2376 18.8807 66.9734 19.1818C66.712 19.4801 66.3739 19.7131 65.9592 19.8807C65.5472 20.0455 65.0714 20.1278 64.5316 20.1278ZM68.2156 14.8821V13.4545H74.1474V14.8821H72.038V20H70.3079V14.8821H68.2156ZM76.88 20.1236C76.4624 20.1236 76.0902 20.0511 75.7635 19.9062C75.4368 19.7585 75.1783 19.5412 74.9879 19.2543C74.8004 18.9645 74.7067 18.6037 74.7067 18.1719C74.7067 17.8082 74.7734 17.5028 74.907 17.2557C75.0405 17.0085 75.2223 16.8097 75.4524 16.6591C75.6825 16.5085 75.9439 16.3949 76.2365 16.3182C76.532 16.2415 76.8416 16.1875 77.1655 16.1562C77.5462 16.1165 77.853 16.0795 78.0859 16.0455C78.3189 16.0085 78.4879 15.9545 78.593 15.8835C78.6982 15.8125 78.7507 15.7074 78.7507 15.5682V15.5426C78.7507 15.2727 78.6655 15.0639 78.495 14.9162C78.3274 14.7685 78.0888 14.6946 77.7791 14.6946C77.4524 14.6946 77.1925 14.767 76.9993 14.9119C76.8061 15.054 76.6783 15.233 76.6158 15.4489L74.9368 15.3125C75.022 14.9148 75.1896 14.571 75.4396 14.2812C75.6896 13.9886 76.0121 13.7642 76.407 13.608C76.8047 13.4489 77.2649 13.3693 77.7876 13.3693C78.1513 13.3693 78.4993 13.4119 78.8317 13.4972C79.1669 13.5824 79.4638 13.7145 79.7223 13.8935C79.9837 14.0724 80.1896 14.3026 80.3402 14.5838C80.4908 14.8622 80.5661 15.196 80.5661 15.5852V20H78.8445V19.0923H78.7933C78.6882 19.2969 78.5476 19.4773 78.3714 19.6335C78.1953 19.7869 77.9837 19.9077 77.7365 19.9957C77.4893 20.081 77.2038 20.1236 76.88 20.1236ZM77.3999 18.8707C77.6669 18.8707 77.9027 18.8182 78.1072 18.7131C78.3118 18.6051 78.4723 18.4602 78.5888 18.2784C78.7053 18.0966 78.7635 17.8906 78.7635 17.6605V16.9659C78.7067 17.0028 78.6286 17.0369 78.5291 17.0682C78.4325 17.0966 78.3232 17.1236 78.201 17.1491C78.0788 17.1719 77.9567 17.1932 77.8345 17.2131C77.7124 17.2301 77.6016 17.2457 77.5021 17.2599C77.2891 17.2912 77.103 17.3409 76.9439 17.4091C76.7848 17.4773 76.6612 17.5696 76.5732 17.6861C76.4851 17.7997 76.4411 17.9418 76.4411 18.1122C76.4411 18.3594 76.5305 18.5483 76.7095 18.679C76.8913 18.8068 77.1214 18.8707 77.3999 18.8707ZM84.7518 20V13.4545H90.4748V20H88.7404V14.8821H86.4648V20H84.7518ZM91.9237 22.4545V13.4545H93.7134V14.554H93.7944C93.8739 14.3778 93.989 14.1989 94.1396 14.017C94.293 13.8324 94.4918 13.679 94.7362 13.5568C94.9833 13.4318 95.2901 13.3693 95.6566 13.3693C96.1339 13.3693 96.5742 13.4943 96.9776 13.7443C97.381 13.9915 97.7035 14.3651 97.945 14.8651C98.1864 15.3622 98.3072 15.9858 98.3072 16.7358C98.3072 17.4659 98.1893 18.0824 97.9535 18.5852C97.7205 19.0852 97.4023 19.4645 96.9989 19.723C96.5984 19.9787 96.1495 20.1065 95.6523 20.1065C95.3001 20.1065 95.0004 20.0483 94.7532 19.9318C94.5089 19.8153 94.3086 19.669 94.1523 19.4929C93.9961 19.3139 93.8768 19.1335 93.7944 18.9517H93.739V22.4545H91.9237ZM93.7006 16.7273C93.7006 17.1165 93.7546 17.456 93.8626 17.7457C93.9705 18.0355 94.1268 18.2614 94.3313 18.4233C94.5359 18.5824 94.7844 18.6619 95.0771 18.6619C95.3725 18.6619 95.6225 18.581 95.8271 18.419C96.0316 18.2543 96.1864 18.027 96.2915 17.7372C96.3995 17.4446 96.4535 17.108 96.4535 16.7273C96.4535 16.3494 96.4009 16.017 96.2958 15.7301C96.1907 15.4432 96.0359 15.2187 95.8313 15.0568C95.6268 14.8949 95.3754 14.8139 95.0771 14.8139C94.7816 14.8139 94.5316 14.892 94.3271 15.0483C94.1254 15.2045 93.9705 15.4261 93.8626 15.7131C93.7546 16 93.7006 16.3381 93.7006 16.7273ZM102.475 20.1278C101.813 20.1278 101.24 19.9872 100.757 19.706C100.277 19.4219 99.9066 19.027 99.6452 18.5213C99.3839 18.0128 99.2532 17.4233 99.2532 16.7528C99.2532 16.0767 99.3839 15.4858 99.6452 14.9801C99.9066 14.4716 100.277 14.0767 100.757 13.7955C101.24 13.5114 101.813 13.3693 102.475 13.3693C103.137 13.3693 103.708 13.5114 104.188 13.7955C104.671 14.0767 105.043 14.4716 105.304 14.9801C105.566 15.4858 105.696 16.0767 105.696 16.7528C105.696 17.4233 105.566 18.0128 105.304 18.5213C105.043 19.027 104.671 19.4219 104.188 19.706C103.708 19.9872 103.137 20.1278 102.475 20.1278ZM102.483 18.7216C102.784 18.7216 103.036 18.6364 103.238 18.4659C103.439 18.2926 103.591 18.0568 103.694 17.7585C103.799 17.4602 103.851 17.1207 103.851 16.7401C103.851 16.3594 103.799 16.0199 103.694 15.7216C103.591 15.4233 103.439 15.1875 103.238 15.0142C103.036 14.8409 102.784 14.7543 102.483 14.7543C102.179 14.7543 101.924 14.8409 101.716 15.0142C101.512 15.1875 101.357 15.4233 101.252 15.7216C101.15 16.0199 101.098 16.3594 101.098 16.7401C101.098 17.1207 101.15 17.4602 101.252 17.7585C101.357 18.0568 101.512 18.2926 101.716 18.4659C101.924 18.6364 102.179 18.7216 102.483 18.7216ZM106.877 20V13.4545H109.668C110.475 13.4545 111.113 13.608 111.581 13.9148C112.05 14.2216 112.284 14.6577 112.284 15.223C112.284 15.5781 112.152 15.8736 111.888 16.1094C111.624 16.3452 111.257 16.5043 110.789 16.5866C111.181 16.6151 111.515 16.7045 111.79 16.8551C112.069 17.0028 112.28 17.1946 112.425 17.4304C112.573 17.6662 112.647 17.9276 112.647 18.2145C112.647 18.5866 112.547 18.9062 112.348 19.1733C112.152 19.4403 111.864 19.6449 111.483 19.7869C111.105 19.929 110.644 20 110.098 20H106.877ZM108.569 18.6406H110.098C110.351 18.6406 110.549 18.581 110.691 18.4616C110.836 18.3395 110.908 18.1733 110.908 17.9631C110.908 17.7301 110.836 17.5469 110.691 17.4134C110.549 17.2798 110.351 17.2131 110.098 17.2131H108.569V18.6406ZM108.569 16.1477H109.706C109.888 16.1477 110.043 16.1222 110.171 16.071C110.301 16.017 110.401 15.9403 110.469 15.8409C110.54 15.7415 110.576 15.6236 110.576 15.4872C110.576 15.2855 110.495 15.1278 110.333 15.0142C110.171 14.9006 109.949 14.8438 109.668 14.8438H108.569V16.1477ZM116.774 20.1278C116.1 20.1278 115.521 19.9915 115.035 19.7188C114.552 19.4432 114.18 19.054 113.919 18.5511C113.657 18.0455 113.527 17.4474 113.527 16.7571C113.527 16.0838 113.657 15.4929 113.919 14.9844C114.18 14.4759 114.548 14.0795 115.022 13.7955C115.5 13.5114 116.059 13.3693 116.701 13.3693C117.133 13.3693 117.535 13.4389 117.907 13.5781C118.282 13.7145 118.609 13.9205 118.887 14.196C119.169 14.4716 119.387 14.8182 119.544 15.2358C119.7 15.6506 119.778 16.1364 119.778 16.6932V17.1918H114.251V16.0668H118.069C118.069 15.8054 118.012 15.5739 117.899 15.3722C117.785 15.1705 117.627 15.0128 117.426 14.8991C117.227 14.7827 116.995 14.7244 116.731 14.7244C116.456 14.7244 116.211 14.7884 115.998 14.9162C115.788 15.0412 115.623 15.2102 115.504 15.4233C115.385 15.6335 115.324 15.8679 115.321 16.1264V17.196C115.321 17.5199 115.38 17.7997 115.5 18.0355C115.622 18.2713 115.794 18.4531 116.015 18.581C116.237 18.7088 116.5 18.7727 116.804 18.7727C117.005 18.7727 117.19 18.7443 117.358 18.6875C117.525 18.6307 117.669 18.5455 117.788 18.4318C117.907 18.3182 117.998 18.179 118.061 18.0142L119.74 18.125C119.654 18.5284 119.48 18.8807 119.216 19.1818C118.954 19.4801 118.616 19.7131 118.201 19.8807C117.789 20.0455 117.314 20.1278 116.774 20.1278ZM120.963 22.4545V13.4545H122.752V14.554H122.833C122.913 14.3778 123.028 14.1989 123.179 14.017C123.332 13.8324 123.531 13.679 123.775 13.5568C124.022 13.4318 124.329 13.3693 124.696 13.3693C125.173 13.3693 125.613 13.4943 126.017 13.7443C126.42 13.9915 126.743 14.3651 126.984 14.8651C127.225 15.3622 127.346 15.9858 127.346 16.7358C127.346 17.4659 127.228 18.0824 126.993 18.5852C126.76 19.0852 126.441 19.4645 126.038 19.723C125.637 19.9787 125.189 20.1065 124.691 20.1065C124.339 20.1065 124.039 20.0483 123.792 19.9318C123.548 19.8153 123.348 19.669 123.191 19.4929C123.035 19.3139 122.916 19.1335 122.833 18.9517H122.778V22.4545H120.963ZM122.74 16.7273C122.74 17.1165 122.794 17.456 122.902 17.7457C123.01 18.0355 123.166 18.2614 123.37 18.4233C123.575 18.5824 123.824 18.6619 124.116 18.6619C124.412 18.6619 124.662 18.581 124.866 18.419C125.071 18.2543 125.225 18.027 125.331 17.7372C125.439 17.4446 125.493 17.108 125.493 16.7273C125.493 16.3494 125.44 16.017 125.335 15.7301C125.23 15.4432 125.075 15.2187 124.87 15.0568C124.666 14.8949 124.414 14.8139 124.116 14.8139C123.821 14.8139 123.571 14.892 123.366 15.0483C123.164 15.2045 123.01 15.4261 122.902 15.7131C122.794 16 122.74 16.3381 122.74 16.7273ZM131.539 20.1278C130.866 20.1278 130.287 19.9915 129.801 19.7188C129.318 19.4432 128.946 19.054 128.684 18.5511C128.423 18.0455 128.292 17.4474 128.292 16.7571C128.292 16.0838 128.423 15.4929 128.684 14.9844C128.946 14.4759 129.314 14.0795 129.788 13.7955C130.265 13.5114 130.825 13.3693 131.467 13.3693C131.899 13.3693 132.301 13.4389 132.673 13.5781C133.048 13.7145 133.375 13.9205 133.653 14.196C133.934 14.4716 134.153 14.8182 134.309 15.2358C134.466 15.6506 134.544 16.1364 134.544 16.6932V17.1918H129.017V16.0668H132.835C132.835 15.8054 132.778 15.5739 132.664 15.3722C132.551 15.1705 132.393 15.0128 132.191 14.8991C131.993 14.7827 131.761 14.7244 131.497 14.7244C131.221 14.7244 130.977 14.7884 130.764 14.9162C130.554 15.0412 130.389 15.2102 130.27 15.4233C130.15 15.6335 130.089 15.8679 130.086 16.1264V17.196C130.086 17.5199 130.146 17.7997 130.265 18.0355C130.387 18.2713 130.559 18.4531 130.781 18.581C131.002 18.7088 131.265 18.7727 131.569 18.7727C131.771 18.7727 131.956 18.7443 132.123 18.6875C132.291 18.6307 132.434 18.5455 132.554 18.4318C132.673 18.3182 132.764 18.179 132.826 18.0142L134.505 18.125C134.42 18.5284 134.245 18.8807 133.981 19.1818C133.72 19.4801 133.382 19.7131 132.967 19.8807C132.555 20.0455 132.079 20.1278 131.539 20.1278ZM140.284 16.0028V17.4304H136.866V16.0028H140.284ZM137.463 13.4545V20H135.728V13.4545H137.463ZM141.422 13.4545V20H139.7V13.4545H141.422ZM144.696 20.1236C144.279 20.1236 143.907 20.0511 143.58 19.9062C143.253 19.7585 142.995 19.5412 142.804 19.2543C142.617 18.9645 142.523 18.6037 142.523 18.1719C142.523 17.8082 142.59 17.5028 142.723 17.2557C142.857 17.0085 143.039 16.8097 143.269 16.6591C143.499 16.5085 143.76 16.3949 144.053 16.3182C144.348 16.2415 144.658 16.1875 144.982 16.1562C145.363 16.1165 145.669 16.0795 145.902 16.0455C146.135 16.0085 146.304 15.9545 146.409 15.8835C146.515 15.8125 146.567 15.7074 146.567 15.5682V15.5426C146.567 15.2727 146.482 15.0639 146.311 14.9162C146.144 14.7685 145.905 14.6946 145.596 14.6946C145.269 14.6946 145.009 14.767 144.816 14.9119C144.623 15.054 144.495 15.233 144.432 15.4489L142.753 15.3125C142.838 14.9148 143.006 14.571 143.256 14.2812C143.506 13.9886 143.828 13.7642 144.223 13.608C144.621 13.4489 145.081 13.3693 145.604 13.3693C145.968 13.3693 146.316 13.4119 146.648 13.4972C146.983 13.5824 147.28 13.7145 147.539 13.8935C147.8 14.0724 148.006 14.3026 148.157 14.5838C148.307 14.8622 148.382 15.196 148.382 15.5852V20H146.661V19.0923H146.61C146.505 19.2969 146.364 19.4773 146.188 19.6335C146.012 19.7869 145.8 19.9077 145.553 19.9957C145.306 20.081 145.02 20.1236 144.696 20.1236ZM145.216 18.8707C145.483 18.8707 145.719 18.8182 145.924 18.7131C146.128 18.6051 146.289 18.4602 146.405 18.2784C146.522 18.0966 146.58 17.8906 146.58 17.6605V16.9659C146.523 17.0028 146.445 17.0369 146.346 17.0682C146.249 17.0966 146.14 17.1236 146.017 17.1491C145.895 17.1719 145.773 17.1932 145.651 17.2131C145.529 17.2301 145.418 17.2457 145.319 17.2599C145.105 17.2912 144.919 17.3409 144.76 17.4091C144.601 17.4773 144.478 17.5696 144.39 17.6861C144.301 17.7997 144.257 17.9418 144.257 18.1122C144.257 18.3594 144.347 18.5483 144.526 18.679C144.708 18.8068 144.938 18.8707 145.216 18.8707Z" fill="white"/>
<path d="M2.6665 26.6668V5.3335H29.3332V26.6668H2.6665ZM5.33317 10.6668H26.6665V8.00016H5.33317V10.6668ZM14.5998 22.0668L22.1332 14.5335L20.1998 12.6002L14.5998 18.2002L11.7998 15.4002L9.8665 17.3335L14.5998 22.0668Z" fill="#6DC180"/>
</svg>
