<svg width="17" height="16" viewBox="0 0 17 16" fill="none" xmlns="http://www.w3.org/2000/svg">
<g clip-path="url(#clip0_334_87436)">
<path d="M0.495028 7.90403C0.494656 9.24834 0.845912 10.561 1.51382 11.7179L0.431152 15.6709L4.47655 14.6102C5.59545 15.2193 6.8491 15.5385 8.12306 15.5386H8.12641C12.332 15.5386 15.7554 12.1164 15.7572 7.91005C15.758 5.87179 14.965 3.95513 13.5241 2.51315C12.0835 1.07129 10.1675 0.276809 8.1261 0.275879C3.92002 0.275879 0.496827 3.69789 0.49509 7.90403" fill="url(#paint0_linear_334_87436)"/>
<path d="M0.222607 7.90177C0.222172 9.29445 0.586017 10.654 1.27774 11.8524L0.15625 15.9471L4.3467 14.8484C5.5013 15.4779 6.80127 15.8098 8.12406 15.8103H8.12747C12.4839 15.8103 16.0304 12.265 16.0322 7.90809C16.033 5.79659 15.2114 3.81104 13.719 2.3174C12.2265 0.823938 10.242 0.000868217 8.12747 0C3.77027 0 0.224405 3.54481 0.222669 7.90177H0.222607ZM2.71811 11.646L2.56165 11.3976C1.90391 10.3518 1.55675 9.14326 1.55724 7.90226C1.55867 4.28087 4.50589 1.33457 8.12996 1.33457C9.88499 1.33532 11.5344 2.01947 12.7749 3.26078C14.0154 4.5022 14.698 6.15243 14.6976 7.9076C14.696 11.529 11.7487 14.4757 8.12747 14.4757H8.12487C6.94577 14.475 5.78937 14.1584 4.78087 13.56L4.54087 13.4177L2.05417 14.0696L2.71811 11.646V11.646Z" fill="url(#paint1_linear_334_87436)"/>
<path d="M6.15177 4.59831C6.0038 4.26944 5.84808 4.2628 5.70737 4.25704C5.59214 4.25208 5.46042 4.25245 5.32882 4.25245C5.1971 4.25245 4.98309 4.302 4.80219 4.49952C4.6211 4.69722 4.11084 5.17499 4.11084 6.14671C4.11084 7.11849 4.81862 8.0576 4.91729 8.1895C5.01608 8.32116 6.28368 10.3791 8.29124 11.1708C9.95971 11.8287 10.2992 11.6978 10.6614 11.6649C11.0235 11.632 11.83 11.1872 11.9945 10.726C12.1591 10.2649 12.1592 9.86956 12.1098 9.78696C12.0604 9.70466 11.9287 9.65524 11.7312 9.55651C11.5336 9.45772 10.5626 8.97989 10.3815 8.91397C10.2005 8.84811 10.0688 8.81524 9.93707 9.01301C9.80535 9.21046 9.42712 9.65524 9.31183 9.78696C9.19667 9.91899 9.08138 9.93542 8.88392 9.83663C8.68628 9.73753 8.05019 9.52922 7.29552 8.85642C6.70836 8.33288 6.31196 7.68637 6.19673 7.4886C6.08151 7.29115 6.18439 7.18411 6.28343 7.08569C6.37217 6.99719 6.48101 6.85505 6.57986 6.73977C6.67834 6.62442 6.71121 6.54212 6.77707 6.4104C6.84299 6.27856 6.81 6.16321 6.7607 6.06442C6.71121 5.96563 6.3274 4.98888 6.15177 4.59837" fill="white"/>
</g>
<defs>
<linearGradient id="paint0_linear_334_87436" x1="8.09419" y1="15.6709" x2="8.09419" y2="0.275879" gradientUnits="userSpaceOnUse">
<stop stop-color="#1FAF38"/>
<stop offset="1" stop-color="#60D669"/>
</linearGradient>
<linearGradient id="paint1_linear_334_87436" x1="8.09423" y1="15.9471" x2="8.09423" y2="0" gradientUnits="userSpaceOnUse">
<stop stop-color="#F9F9F9"/>
<stop offset="1" stop-color="white"/>
</linearGradient>
<clipPath id="clip0_334_87436">
<rect width="15.88" height="16" fill="white" transform="translate(0.154297)"/>
</clipPath>
</defs>
</svg>
