<svg width="32" height="26" viewBox="0 0 32 26" fill="none" xmlns="http://www.w3.org/2000/svg">
<path d="M29.3639 10.6672C28.1291 6.42476 26.7366 4.23272 26.7141 4.1934C26.6347 4.09652 24.667 1.74173 19.9244 0L19.2977 1.70622C21.5539 2.53486 23.1546 3.54575 24.0349 4.19891C21.4068 3.41409 18.2802 2.93342 15.5111 2.93342C12.742 2.93342 9.61551 3.41409 6.98734 4.19891C7.8676 3.54581 9.46828 2.53486 11.7245 1.70622L11.0978 0C6.35532 1.74173 4.38759 4.09652 4.30822 4.1934C4.28574 4.23272 2.89319 6.42476 1.65848 10.6672C0.468485 14.7556 0.01642 20.5231 0 20.7544C0.106033 20.9202 2.5448 25.0839 9.19114 25.0839L10.8758 22.6444C8.9884 22.1433 7.18868 21.3351 5.54123 20.2385L6.54843 18.7254C9.20622 20.4945 12.3055 21.4296 15.5111 21.4296C18.7168 21.4296 21.8161 20.4945 24.4738 18.7254L25.481 20.2385C23.8336 21.3351 22.0339 22.1433 20.1465 22.6444L21.8311 25.0839C28.4775 25.0839 30.9162 20.9202 31.0223 20.7544C31.0059 20.5231 30.5538 14.7556 29.3639 10.6672ZM11.3087 15.4224H9.491V12.3929H11.3087V15.4224ZM21.5313 15.4224H19.7136V12.3929H21.5313V15.4224Z" fill="#70E3FF"/>
</svg>
