<svg width="52" height="54" viewBox="0 0 52 54" fill="none" xmlns="http://www.w3.org/2000/svg">
<path d="M45.383 24.0381L41.5684 26.8384L35.3586 26.4691L40.8969 19.7776L32.2222 20.2018L35.6458 15.0104L40.1732 13.6336L39.4291 11.1872L35.9347 12.2494L35.5345 8.61864L32.9932 8.89832L33.511 13.6024L30.0875 18.7939L27.0612 10.6531L23.0913 18.3798L20.6724 13.549L21.7432 8.93818L19.2533 8.35876L18.4253 11.9173L15.0799 10.4485L14.0522 12.7893L18.385 14.6929L20.8039 19.5237L12.2424 18.0733L16.9487 25.3746L10.7374 25.0058L7.28138 21.7729L5.53501 23.6402L8.20189 26.136L5.25765 28.2977L6.77084 30.3587L10.5855 27.5584L16.7947 27.9272L11.2598 34.6177L19.9335 34.1922L16.5081 39.3864L11.9808 40.7635L12.7245 43.2097L16.2192 42.1473L16.6191 45.7783L19.1604 45.4986L18.6423 40.7946L22.0675 35.6002L25.0937 43.7407L29.0627 36.0173L31.4816 40.8481L30.4101 45.4574L32.9009 46.0364L33.729 42.4781L37.0742 43.9467L38.1028 41.6055L33.7681 39.7024L31.3492 34.8716L39.9141 36.3215L35.2103 29.0239L41.417 29.3928L44.8734 32.6255L46.6197 30.7582L43.952 28.2608L46.8959 26.0992L45.383 24.0381ZM35.2292 22.6156L32.1953 26.2798L28.3637 26.0533L30.4769 22.848L35.2292 22.6156ZM26.6853 16.9809L28.3419 21.4402L26.2287 24.6455L24.5103 21.2137L26.6853 16.9809ZM17.535 21.5631L22.2225 22.3567L23.9419 25.7906L20.1126 25.5629L17.535 21.5631ZM16.9279 31.7796L19.9586 28.1169L23.7902 28.3434L21.6782 31.5461L16.9279 31.7796ZM25.471 37.4121L23.8137 32.9536L25.9257 29.751L27.6443 33.1831L25.471 37.4121ZM34.6221 32.8299L29.9295 32.0363L28.2119 28.6062L32.0445 28.8347L34.6221 32.8299Z" fill="#FF7B92"/>
</svg>
