<svg width="57" height="57" viewBox="0 0 57 57" fill="none" xmlns="http://www.w3.org/2000/svg">
<g clip-path="url(#clip0)" filter="url(#filter0_f)">
<path d="M48.6037 25.7368L44.7117 28.594L38.376 28.2172L44.0266 21.3899L35.1759 21.8228L38.6689 16.526L43.2882 15.1213L42.529 12.6252L38.9637 13.709L38.5554 10.0046L35.9626 10.29L36.4909 15.0895L32.9979 20.3863L29.9102 12.0803L25.8598 19.9638L23.3918 15.035L24.4844 10.3306L21.9439 9.73945L21.0991 13.3702L17.6859 11.8716L16.6374 14.2598L21.0581 16.2021L23.526 21.1309L14.7908 19.651L19.5926 27.1005L13.2553 26.7242L9.72915 23.4258L7.94735 25.3309L10.6683 27.8773L7.66437 30.0829L9.20826 32.1857L13.1003 29.3285L19.4354 29.7048L13.7883 36.5311L22.638 36.097L19.1431 41.3965L14.5239 42.8015L15.2827 45.2974L18.8483 44.2135L19.2563 47.9181L21.8491 47.6327L21.3205 42.8333L24.8153 37.5335L27.9028 45.8391L31.9524 37.959L34.4204 42.8878L33.3271 47.5907L35.8684 48.1814L36.7133 44.551L40.1264 46.0493L41.1758 43.6606L36.7532 41.719L34.2852 36.7902L43.0238 38.2694L38.2246 30.8238L44.5573 31.2002L48.0837 34.4985L49.8655 32.5933L47.1437 30.0452L50.1473 27.8397L48.6037 25.7368ZM38.2439 24.2855L35.1485 28.0241L31.2392 27.793L33.3952 24.5226L38.2439 24.2855ZM29.5267 18.5365L31.2169 23.0862L29.0608 26.3566L27.3076 22.8551L29.5267 18.5365ZM20.1907 23.2117L24.9734 24.0214L26.7277 27.5249L22.8207 27.2926L20.1907 23.2117ZM19.5713 33.6354L22.6635 29.8984L26.5728 30.1295L24.418 33.3971L19.5713 33.6354ZM28.2878 39.3822L26.5969 34.8332L28.7517 31.5656L30.5052 35.0674L28.2878 39.3822ZM37.6245 34.707L32.8367 33.8974L31.0843 30.3976L34.9946 30.6308L37.6245 34.707Z" fill="#70E3FF"/>
</g>
<defs>
<filter id="filter0_f" x="-2.10547" y="-2.05005" width="62.0229" height="62.0229" filterUnits="userSpaceOnUse" color-interpolation-filters="sRGB">
<feFlood flood-opacity="0" result="BackgroundImageFix"/>
<feBlend mode="normal" in="SourceGraphic" in2="BackgroundImageFix" result="shape"/>
<feGaussianBlur stdDeviation="1.5" result="effect1_foregroundBlur"/>
</filter>
<clipPath id="clip0">
<rect width="41.7489" height="41.7489" fill="white" transform="translate(0.894531 19.6423) rotate(-26.5984)"/>
</clipPath>
</defs>
</svg>
