<svg width="1080" height="177" viewBox="0 0 1080 177" fill="none" xmlns="http://www.w3.org/2000/svg">
<line x1="45.0436" y1="44.5019" x2="1041.24" y2="131.658" stroke="#70E3FF"/>
<g clip-path="url(#clip0)">
<path d="M1068.53 127.637L1062.33 132.182L1052.26 131.582L1061.24 120.722L1047.17 121.411L1052.72 112.985L1060.07 110.75L1058.86 106.78L1053.19 108.504L1052.54 102.611L1048.42 103.065L1049.26 110.7L1043.7 119.126L1038.79 105.913L1032.35 118.453L1028.42 110.613L1030.16 103.13L1026.12 102.189L1024.77 107.965L1019.34 105.581L1017.68 109.38L1024.71 112.47L1028.63 120.31L1014.74 117.956L1022.38 129.806L1012.3 129.207L1006.69 123.961L1003.85 126.991L1008.18 131.042L1003.4 134.55L1005.86 137.895L1012.05 133.35L1022.13 133.949L1013.14 144.808L1027.22 144.117L1021.66 152.547L1014.31 154.782L1015.52 158.752L1021.19 157.028L1021.84 162.921L1025.97 162.467L1025.13 154.833L1030.68 146.402L1035.6 159.614L1042.04 147.079L1045.96 154.919L1044.22 162.4L1048.27 163.34L1049.61 157.565L1055.04 159.949L1056.71 156.149L1049.67 153.06L1045.75 145.22L1059.65 147.573L1052.02 135.729L1062.09 136.328L1067.7 141.574L1070.53 138.544L1066.2 134.49L1070.98 130.982L1068.53 127.637ZM1052.05 125.328L1047.12 131.275L1040.9 130.908L1044.33 125.705L1052.05 125.328ZM1038.18 116.183L1040.87 123.42L1037.44 128.623L1034.65 123.053L1038.18 116.183ZM1023.33 123.62L1030.94 124.908L1033.73 130.481L1027.51 130.112L1023.33 123.62ZM1022.34 140.201L1027.26 134.257L1033.48 134.624L1030.05 139.822L1022.34 140.201ZM1036.21 149.343L1033.52 142.107L1036.95 136.909L1039.74 142.479L1036.21 149.343ZM1051.06 141.906L1043.44 140.618L1040.66 135.051L1046.88 135.422L1051.06 141.906Z" fill="#70E3FF"/>
</g>
<g clip-path="url(#clip1)">
<path d="M76.5255 40.6368L70.3343 45.1818L60.2559 44.5825L69.2445 33.7221L55.1655 34.4107L60.7219 25.9849L68.07 23.7504L66.8623 19.7799L61.1908 21.5039L60.5414 15.6111L56.4168 16.0651L57.2573 23.6998L51.7009 32.1255L46.7892 18.9131L40.346 31.4535L36.4202 23.6131L38.1581 16.1298L34.117 15.1894L32.7732 20.965L27.3436 18.581L25.6757 22.3801L32.7078 25.4696L36.6337 33.31L22.7383 30.956L30.3767 42.806L20.2958 42.2075L14.6866 36.9606L11.8522 39.9911L16.1806 44.0417L11.4021 47.5503L13.858 50.8952L20.0492 46.3503L30.1267 46.9489L21.1436 57.8076L35.221 57.117L29.6616 65.5471L22.3138 67.7822L23.5208 71.7524L29.1927 70.0282L29.8416 75.9211L33.9662 75.4672L33.1253 67.8327L38.6845 59.4021L43.5959 72.6141L50.0377 60.0791L53.9636 67.9194L52.2245 75.4004L56.267 76.3401L57.611 70.565L63.0403 72.9485L64.7097 69.1487L57.6745 66.0601L53.7486 58.2197L67.6494 60.5728L60.0152 48.7288L70.0887 49.3276L75.6983 54.5743L78.5327 51.5437L74.2029 47.4903L78.9809 43.982L76.5255 40.6368ZM60.0458 38.3282L55.1218 44.2752L48.9032 43.9076L52.3328 38.7053L60.0458 38.3282ZM46.1791 29.1831L48.8677 36.4205L45.4381 41.6227L42.6491 36.0528L46.1791 29.1831ZM31.3281 36.62L38.936 37.908L41.7267 43.4811L35.5117 43.1117L31.3281 36.62ZM30.3428 53.2013L35.2617 47.2568L41.4803 47.6244L38.0525 52.8223L30.3428 53.2013ZM44.2083 62.3429L41.5186 55.1067L44.9464 49.9089L47.7356 55.4792L44.2083 62.3429ZM59.0605 54.906L51.4445 53.618L48.6568 48.0509L54.8771 48.4218L59.0605 54.906Z" fill="#70E3FF"/>
</g>
<defs>
<clipPath id="clip0">
<rect width="66.4112" height="66.4112" fill="white" transform="translate(990 116.734) rotate(-26.5984)"/>
</clipPath>
<clipPath id="clip1">
<rect width="66.4112" height="66.4112" fill="white" transform="translate(0 29.7344) rotate(-26.5984)"/>
</clipPath>
</defs>
</svg>
