<svg width="74" height="74" viewBox="0 0 74 74" fill="none" xmlns="http://www.w3.org/2000/svg">
<path d="M65.1045 28.5317C69.5472 44.2877 60.3771 60.6602 44.6211 65.1029C28.8604 69.547 12.4879 60.3768 8.0452 44.6208C3.60246 28.8648 12.7713 12.4877 28.532 8.04367C44.288 3.60092 60.6617 12.7757 65.1045 28.5317Z" fill="#FF7B92"/>
<path d="M65.1045 28.5316C69.5472 44.2876 59.964 60.7766 43.6984 65.363L27.6093 8.30371C43.8749 3.71728 60.6617 12.7756 65.1045 28.5316Z" fill="#D0F6FF"/>
<path d="M48.5379 33.1993C50.4013 39.8077 46.1422 46.7913 39.0274 48.7975C31.9125 50.8037 24.6326 47.0737 22.7692 40.4654C20.9061 33.8581 25.1655 26.8756 32.2803 24.8694C39.3952 22.8632 46.6748 26.5921 48.5379 33.1993Z" fill="#D0F6FF"/>
<path d="M48.5387 33.2023C50.4017 39.8093 46.1441 46.791 39.0274 48.7977L32.2803 24.8696C39.3946 22.8636 46.6754 26.5943 48.5387 33.2023Z" fill="#8FC9F7"/>
</svg>
