<svg width="89" height="89" viewBox="0 0 89 89" fill="none" xmlns="http://www.w3.org/2000/svg">
<path d="M66.8125 22.7178C55.008 10.1704 35.2692 9.56815 22.7217 21.3726C10.1706 33.1805 9.56835 52.9194 21.3728 65.4668C33.1772 78.0142 52.9196 78.6202 65.4707 66.8122C78.0181 55.0078 78.6169 35.2653 66.8125 22.7178Z" fill="#E8FBFF"/>
<path d="M66.8125 22.7178C55.008 10.1703 34.9402 9.87754 21.987 22.0638L64.736 67.5034C77.6892 55.3172 78.6169 35.2652 66.8125 22.7178Z" fill="#70E3FF"/>
<path d="M53.6228 35.1316C48.6718 29.8689 40.0639 29.9256 34.3979 35.256C28.7319 40.5865 28.1507 49.1749 33.1017 54.4376C38.0519 59.6993 46.6589 59.6418 52.3249 54.3114C57.9909 48.9809 58.573 40.3933 53.6228 35.1316Z" fill="#D0F6FF"/>
<path d="M53.6208 35.129C48.6708 29.8675 40.0654 29.9238 34.398 35.2557L52.325 54.311C57.9905 48.981 58.5716 40.3914 53.6208 35.129Z" fill="#8FC9F7"/>
</svg>
