<svg width="119" height="150" viewBox="0 0 119 150" fill="none" xmlns="http://www.w3.org/2000/svg">
<rect x="1.5" y="1.5" width="116" height="147" rx="8.5" fill="white"/>
<rect x="1.5" y="1.5" width="116" height="147" rx="8.5" stroke="#04677C" stroke-width="3"/>
<line x1="20" y1="23.5" x2="99" y2="23.5" stroke="#04677C" stroke-width="3"/>
<line x1="20" y1="43.5" x2="99" y2="43.5" stroke="#04677C" stroke-width="3"/>
<path d="M57.3787 107.121C58.5503 108.293 60.4497 108.293 61.6213 107.121L80.7132 88.0294C81.8848 86.8579 81.8848 84.9584 80.7132 83.7868C79.5416 82.6152 77.6421 82.6152 76.4706 83.7868L59.5 100.757L42.5294 83.7868C41.3579 82.6152 39.4584 82.6152 38.2868 83.7868C37.1152 84.9584 37.1152 86.8579 38.2868 88.0294L57.3787 107.121ZM56.5 65L56.5 105L62.5 105L62.5 65L56.5 65Z" fill="#04677C"/>
<line x1="20" y1="122" x2="99" y2="122" stroke="#04677C" stroke-width="6"/>
</svg>
