<svg width="24" height="24" viewBox="0 0 24 24" fill="none" xmlns="http://www.w3.org/2000/svg">
<path d="M17.9844 3V6.98438H5.98438V3H17.9844ZM18.2656 11.7188C18.4531 11.9062 18.6875 12 18.9688 12C19.25 12 19.4844 11.9062 19.6719 11.7188C19.8906 11.5312 20 11.2969 20 11.0156C20 10.7344 19.8906 10.5 19.6719 10.3125C19.4844 10.0938 19.25 9.98438 18.9688 9.98438C18.6875 9.98438 18.4531 10.0938 18.2656 10.3125C18.0781 10.5 17.9844 10.7344 17.9844 11.0156C17.9844 11.2969 18.0781 11.5312 18.2656 11.7188ZM15.9688 18.9844V14.0156H8V18.9844H15.9688ZM18.9688 8.01562C19.7812 8.01562 20.4844 8.3125 21.0781 8.90625C21.6719 9.5 21.9688 10.2031 21.9688 11.0156V17.0156H17.9844V21H5.98438V17.0156H2V11.0156C2 10.2031 2.29688 9.5 2.89062 8.90625C3.48438 8.3125 4.1875 8.01562 5 8.01562H18.9688Z" fill="#04677C"/>
</svg>
