<svg width="43" height="33" viewBox="0 0 43 33" fill="none" xmlns="http://www.w3.org/2000/svg">
<path d="M35.9052 3.36881C40.5601 10.2553 42.859 18.023 41.9997 26.9655C41.996 27.0034 41.9765 27.0381 41.9456 27.0609C38.4204 29.6654 35.0051 31.246 31.6376 32.2942C31.6114 32.3022 31.5833 32.3018 31.5574 32.2929C31.5314 32.2841 31.5089 32.2673 31.4928 32.2449C30.7149 31.1558 30.008 30.0075 29.3887 28.8017C29.3531 28.7307 29.3856 28.6451 29.4588 28.6171C30.5814 28.1915 31.649 27.6814 32.6758 27.0775C32.7567 27.0298 32.7618 26.9132 32.6871 26.8572C32.4692 26.6944 32.2533 26.5233 32.0467 26.3522C32.0081 26.3206 31.956 26.3144 31.9122 26.3357C25.2458 29.4331 17.9432 29.4331 11.1979 26.3357C11.1542 26.316 11.1021 26.3227 11.0645 26.3538C10.8584 26.5249 10.642 26.6944 10.4262 26.8572C10.3514 26.9132 10.3576 27.0298 10.439 27.0775C11.4659 27.67 12.5334 28.1915 13.6545 28.6192C13.7271 28.6472 13.7617 28.7307 13.7256 28.8017C13.1197 30.0091 12.4128 31.1573 11.6204 32.2465C11.5859 32.2906 11.5292 32.3108 11.4756 32.2942C8.12417 31.246 4.70879 29.6654 1.18368 27.0609C1.15432 27.0381 1.13319 27.0018 1.1301 26.964C0.411888 19.2289 1.87562 11.3968 7.21893 3.36725C7.23181 3.346 7.25139 3.32941 7.27406 3.31956C9.90321 2.10546 12.7199 1.21225 15.6638 0.702137C15.7174 0.693842 15.771 0.718725 15.7988 0.766419C16.1626 1.41442 16.5784 2.24542 16.8597 2.92453C19.9628 2.4476 23.1144 2.4476 26.2825 2.92453C26.5638 2.25994 26.9651 1.41442 27.3273 0.766419C27.3402 0.742759 27.3602 0.723803 27.3845 0.712259C27.4087 0.700715 27.4359 0.697172 27.4623 0.702137C30.4078 1.2138 33.2245 2.10701 35.8516 3.31956C35.8748 3.32941 35.8938 3.346 35.9052 3.36881ZM18.4373 18.0759C18.4697 15.7892 16.8128 13.8971 14.7328 13.8971C12.6699 13.8971 11.029 15.7727 11.029 18.0759C11.029 20.3787 12.7024 22.2543 14.7328 22.2543C16.7963 22.2543 18.4373 20.3787 18.4373 18.0759ZM32.1327 18.0759C32.1652 15.7892 30.5083 13.8971 28.4288 13.8971C26.3654 13.8971 24.7244 15.7727 24.7244 18.0759C24.7244 20.3787 26.3979 22.2543 28.4288 22.2543C30.5083 22.2543 32.1327 20.3787 32.1327 18.0759Z" fill="#5865F2"/>
</svg>
