<svg width="44" height="44" viewBox="0 0 44 44" fill="none" xmlns="http://www.w3.org/2000/svg">
<path fill-rule="evenodd" clip-rule="evenodd" d="M43.3358 21.753C43.3358 33.673 33.6727 43.3361 21.7527 43.3361C9.83276 43.3361 0.169678 33.673 0.169678 21.753C0.169678 9.83301 9.83276 0.169922 21.7527 0.169922C33.6727 0.169922 43.3358 9.83301 43.3358 21.753ZM23.821 15.1303C20.1131 16.7319 9.42198 21.2803 9.42198 21.2803C6.88826 22.3053 8.37134 23.2662 8.37134 23.2662C8.37134 23.2662 10.5343 24.035 12.3883 24.6115C14.2422 25.1881 15.231 24.5475 15.231 24.5475C15.231 24.5475 19.5569 21.6006 23.9446 18.4615C27.0345 16.2834 26.293 18.0772 25.5513 18.846C23.9446 20.5116 21.2873 23.1381 19.0625 25.2522C18.0738 26.1491 18.5681 26.9178 19.0007 27.3021C20.2589 28.4057 23.2221 30.4127 24.5674 31.3239C24.9402 31.5764 25.1888 31.7448 25.2424 31.7865C25.5513 32.0428 27.2818 33.1958 28.3323 32.9396C29.3829 32.6834 29.5065 31.2099 29.5065 31.2099C29.5065 31.2099 30.3099 25.9568 31.0515 21.1522C31.1888 20.2088 31.3262 19.2852 31.4543 18.424C31.7872 16.1856 32.0574 14.3686 32.102 13.7209C32.2875 11.5429 30.0627 12.4397 30.0627 12.4397C30.0627 12.4397 25.2424 14.4897 23.821 15.1303Z" fill="#34AADF"/>
</svg>
