<svg width="38" height="31" viewBox="0 0 38 31" fill="none" xmlns="http://www.w3.org/2000/svg">
<path d="M37.0877 4.14618C35.8933 4.66018 34.6377 5.0181 33.3519 5.2111C33.953 5.10804 34.8376 4.02595 35.1897 3.58796C35.7247 2.92729 36.1323 2.17309 36.3921 1.36365C36.3921 1.30354 36.4522 1.21766 36.3921 1.17472C36.3618 1.15818 36.3278 1.14951 36.2933 1.14951C36.2588 1.14951 36.2248 1.15818 36.1945 1.17472C34.7983 1.93083 33.3123 2.50791 31.7717 2.89233C31.718 2.90873 31.6608 2.9102 31.6064 2.89658C31.5519 2.88297 31.5022 2.85478 31.4625 2.81503C31.3426 2.67224 31.2135 2.53741 31.0761 2.4114C30.4477 1.84841 29.7348 1.38762 28.9634 1.0459C27.9221 0.618707 26.7974 0.433701 25.6742 0.504849C24.5843 0.573681 23.5202 0.866009 22.5481 1.36365C21.5909 1.88832 20.7496 2.60109 20.0748 3.45914C19.3649 4.34229 18.8525 5.36721 18.5719 6.46496C18.3404 7.50913 18.3142 8.58834 18.4946 9.64253C18.4946 9.82288 18.4946 9.84865 18.34 9.82288C12.2167 8.92114 7.19269 6.74836 3.08761 2.08505C2.90726 1.87894 2.81279 1.87894 2.66679 2.08505C0.880477 4.79887 1.74787 9.0929 3.98076 11.2141C4.28134 11.4976 4.59051 11.7724 4.91686 12.03C3.89309 11.9573 2.89433 11.6799 1.97975 11.2141C1.80799 11.1025 1.71352 11.1626 1.70493 11.3687C1.68058 11.6545 1.68058 11.9418 1.70493 12.2275C1.88412 13.597 2.42382 14.8943 3.26881 15.9867C4.11381 17.0792 5.2338 17.9276 6.51424 18.4453C6.82638 18.579 7.15162 18.6797 7.48469 18.7459C6.53693 18.9325 5.56489 18.9615 4.60769 18.8317C4.40158 18.7888 4.32428 18.9004 4.40158 19.098C5.66402 22.5332 8.40361 23.5809 10.4132 24.1649C10.688 24.2079 10.9628 24.2079 11.272 24.2766C11.272 24.2766 11.272 24.2766 11.2205 24.3281C10.6279 25.4102 8.23185 26.1402 7.13258 26.518C5.12613 27.2388 2.98688 27.5142 0.863301 27.3253C0.528367 27.2738 0.451075 27.2824 0.365194 27.3253C0.279314 27.3683 0.365194 27.4627 0.459663 27.5486C0.889065 27.832 1.31847 28.0811 1.76505 28.3215C3.09452 29.0467 4.50003 29.6227 5.95601 30.0392C13.4963 32.1175 21.9813 30.5888 27.6408 24.9636C32.0894 20.5494 33.6525 14.4604 33.6525 8.36291C33.6525 8.13104 33.9359 7.99363 34.099 7.87339C35.2245 6.99646 36.2168 5.96083 37.0447 4.79887C37.1881 4.62567 37.2617 4.40514 37.2509 4.18053C37.2509 4.05171 37.2509 4.07748 37.0877 4.14618Z" fill="#33CCFF"/>
</svg>
