<svg width="24" height="24" viewBox="0 0 24 24" fill="none" xmlns="http://www.w3.org/2000/svg">
<path d="M18.3 5.71022C18.2075 5.61752 18.0976 5.54397 17.9766 5.49379C17.8556 5.44361 17.726 5.41778 17.595 5.41778C17.464 5.41778 17.3343 5.44361 17.2134 5.49379C17.0924 5.54397 16.9825 5.61752 16.89 5.71022L12 10.5902L7.10999 5.70022C7.01741 5.60764 6.9075 5.5342 6.78654 5.4841C6.66557 5.43399 6.53593 5.4082 6.40499 5.4082C6.27406 5.4082 6.14442 5.43399 6.02345 5.4841C5.90249 5.5342 5.79258 5.60764 5.69999 5.70022C5.60741 5.79281 5.53397 5.90272 5.48387 6.02368C5.43376 6.14464 5.40797 6.27429 5.40797 6.40522C5.40797 6.53615 5.43376 6.6658 5.48387 6.78677C5.53397 6.90773 5.60741 7.01764 5.69999 7.11022L10.59 12.0002L5.69999 16.8902C5.60741 16.9828 5.53397 17.0927 5.48387 17.2137C5.43376 17.3346 5.40797 17.4643 5.40797 17.5952C5.40797 17.7262 5.43376 17.8558 5.48387 17.9768C5.53397 18.0977 5.60741 18.2076 5.69999 18.3002C5.79258 18.3928 5.90249 18.4662 6.02345 18.5163C6.14442 18.5665 6.27406 18.5922 6.40499 18.5922C6.53593 18.5922 6.66557 18.5665 6.78654 18.5163C6.9075 18.4662 7.01741 18.3928 7.10999 18.3002L12 13.4102L16.89 18.3002C16.9826 18.3928 17.0925 18.4662 17.2135 18.5163C17.3344 18.5665 17.4641 18.5922 17.595 18.5922C17.7259 18.5922 17.8556 18.5665 17.9765 18.5163C18.0975 18.4662 18.2074 18.3928 18.3 18.3002C18.3926 18.2076 18.466 18.0977 18.5161 17.9768C18.5662 17.8558 18.592 17.7262 18.592 17.5952C18.592 17.4643 18.5662 17.3346 18.5161 17.2137C18.466 17.0927 18.3926 16.9828 18.3 16.8902L13.41 12.0002L18.3 7.11022C18.68 6.73022 18.68 6.09022 18.3 5.71022Z" fill="#E63212"/>
</svg>
