<svg width="13" height="7" viewBox="0 0 13 7" fill="none" xmlns="http://www.w3.org/2000/svg">
<path d="M12.1068 0.152785C12.2053 0.0548882 12.3383 0 12.4767 0C12.6152 0 12.7481 0.0548882 12.8467 0.152785C12.8952 0.200924 12.9338 0.258306 12.9601 0.321589C12.9864 0.384873 13 0.452794 13 0.5214C13 0.590007 12.9864 0.657929 12.9601 0.721213C12.9338 0.784496 12.8952 0.841877 12.8467 0.890017L6.86996 6.84722C6.77138 6.94511 6.63847 7 6.5 7C6.36153 7 6.22862 6.94511 6.13004 6.84722L0.15332 0.890017C0.104761 0.841877 0.0661989 0.784496 0.0398771 0.721213C0.0135554 0.657929 0 0.590007 0 0.5214C0 0.452794 0.0135554 0.384873 0.0398771 0.321589C0.0661989 0.258306 0.104761 0.200924 0.15332 0.152785C0.251897 0.0548882 0.384802 0 0.523276 0C0.661749 0 0.794654 0.0548882 0.893231 0.152785L6.50038 5.58578L12.1068 0.152785Z" fill="#006AB3"/>
</svg>
