<svg width="171" height="198" viewBox="0 0 171 198" fill="none" xmlns="http://www.w3.org/2000/svg">
<g clip-path="url(#clip0_89_2772)">
<path fill-rule="evenodd" clip-rule="evenodd" d="M85.4906 176.13C42.7922 176.13 8.17231 141.545 8.17231 98.8712C8.17231 56.2161 42.7922 21.6313 85.4906 21.6313C128.189 21.6313 162.809 56.2161 162.809 98.8712C162.828 141.545 128.208 176.13 85.4906 176.13ZM85.4906 184.294C38.2749 184.294 0 146.039 0 98.8712C0 51.7034 38.2749 13.4673 85.4906 13.4673C132.706 13.4673 170.981 51.7034 170.981 98.8712C171 146.039 132.706 184.294 85.4906 184.294Z" fill="#006AB3"/>
<path d="M91.0935 0H79.9065V39.9194H91.0935V0Z" fill="#E63212"/>
<path d="M91.0935 158.081H79.9065V198H91.0935V158.081Z" fill="#E63212"/>
<path d="M122.079 111.229C122.191 110.93 122.266 110.63 122.304 110.331C122.341 110.031 122.341 109.694 122.341 109.301V106.867C122.341 106.043 122.453 105.331 122.697 104.751C122.922 104.17 123.372 103.758 123.99 103.496C122.903 102.991 122.36 101.904 122.36 100.294V99.0396C122.36 97.8225 122.641 96.905 123.222 96.3058C123.803 95.7066 124.74 95.407 126.034 95.407H129.782V111.229H127.289V104.788H126.427C125.865 104.788 125.434 104.938 125.19 105.238C124.928 105.537 124.815 106.061 124.815 106.792V109.282C124.815 109.6 124.815 109.863 124.796 110.069C124.796 110.274 124.778 110.462 124.759 110.593C124.74 110.724 124.703 110.836 124.684 110.93C124.646 111.023 124.628 111.117 124.59 111.229H122.079ZM126.127 97.6539C125.696 97.6539 125.378 97.785 125.171 98.0285C124.965 98.2906 124.871 98.7025 124.871 99.2643V100.818C124.871 101.455 125.003 101.886 125.265 102.129C125.527 102.373 125.902 102.485 126.371 102.485H127.346V97.6165H126.127V97.6539ZM120.954 105.331V107.428C120.954 108.702 120.635 109.694 120.017 110.368C119.398 111.061 118.461 111.398 117.243 111.398C116.024 111.398 115.106 111.061 114.469 110.368C113.85 109.675 113.531 108.702 113.531 107.428V99.1894C113.531 97.9161 113.85 96.9237 114.469 96.2496C115.087 95.5568 116.024 95.2197 117.243 95.2197C118.461 95.2197 119.379 95.5568 120.017 96.2496C120.635 96.9424 120.954 97.9161 120.954 99.1894V100.725H118.592V99.0396C118.592 98.4591 118.48 98.0659 118.236 97.8225C117.992 97.5791 117.693 97.4667 117.299 97.4667C116.905 97.4667 116.587 97.5791 116.362 97.8225C116.137 98.0659 116.006 98.4591 116.006 99.0396V107.578C116.006 108.159 116.118 108.552 116.362 108.776C116.587 109.001 116.905 109.114 117.299 109.114C117.693 109.114 118.011 109.001 118.236 108.776C118.461 108.552 118.592 108.159 118.592 107.578V105.312H120.954V105.331ZM104.928 95.407H112.613V97.6727H110.008V111.229H107.515V97.6727H104.909V95.407H104.928ZM99.8297 102.073H103.241V104.339H99.8297V108.964H104.122V111.229H97.3367V95.407H104.122V97.6727H99.8297V102.073ZM90.5327 106.211H92.9319L91.7323 98.2157L90.5327 106.211ZM96.2121 111.229H93.7004L93.2693 108.365H90.2141L89.783 111.229H87.4962L90.0266 95.407H93.6629L96.2121 111.229ZM81.0109 111.229H78.5179V95.407H81.0109V102.185H83.8412V95.407H86.3716V111.229H83.8412V104.451H81.0109V111.229ZM71.3578 111.229H68.8086V95.407H71.0204V104.882L73.5695 95.407H76.6998V111.229H74.4505V99.7699L71.3578 111.229ZM61.9296 95.407V101.511C61.9296 102.073 62.0421 102.485 62.2858 102.71C62.5107 102.934 62.8293 103.047 63.223 103.047C63.5978 103.047 63.8977 102.953 64.1227 102.747C64.3476 102.541 64.4788 102.204 64.4975 101.699V95.407H66.9905V111.229H64.4975V105.144C64.2914 105.219 64.0664 105.275 63.8602 105.294C63.6353 105.312 63.4104 105.331 63.148 105.331C61.9296 105.331 61.0112 104.994 60.3739 104.301C59.7553 103.608 59.4367 102.635 59.4367 101.343V95.407H61.9296ZM53.195 106.211H55.5942L54.3946 98.2157L53.195 106.211ZM58.8744 111.229H56.3627L55.9316 108.365H52.8764L52.4452 111.229H50.1585L52.6889 95.407H56.3252L58.8744 111.229ZM43.6731 111.229H41.1802V95.407H43.6731V102.185H46.5035V95.407H49.0339V111.229H46.5035V104.451H43.6731V111.229Z" fill="white"/>
<path d="M115.275 150.346V119.15H120.185V130.872H122.51C124.984 130.872 126.821 131.527 128.02 132.838C129.22 134.149 129.82 136.059 129.82 138.587V142.65C129.82 145.178 129.22 147.088 128.02 148.398C126.821 149.709 124.984 150.364 122.51 150.364H115.275V150.346ZM122.491 145.889C123.259 145.889 123.859 145.683 124.272 145.271C124.684 144.859 124.89 144.092 124.89 142.949V138.268C124.89 137.145 124.684 136.358 124.272 135.946C123.859 135.534 123.259 135.328 122.491 135.328H120.167V145.889H122.491ZM112.144 138.718V142.856C112.144 145.384 111.526 147.312 110.289 148.679C109.052 150.027 107.233 150.702 104.834 150.702C102.416 150.702 100.598 150.027 99.3611 148.679C98.124 147.331 97.5054 145.384 97.5054 142.856V126.64C97.5054 124.112 98.124 122.184 99.3611 120.817C100.598 119.469 102.416 118.794 104.834 118.794C107.252 118.794 109.07 119.469 110.289 120.817C111.526 122.165 112.144 124.112 112.144 126.64V129.674H107.515V126.322C107.515 125.198 107.29 124.393 106.821 123.944C106.353 123.494 105.734 123.251 104.965 123.251C104.197 123.251 103.578 123.476 103.11 123.944C102.641 124.412 102.416 125.198 102.416 126.322V143.155C102.416 144.279 102.641 145.065 103.11 145.515C103.56 145.964 104.197 146.189 104.965 146.189C105.734 146.189 106.353 145.964 106.821 145.515C107.29 145.065 107.515 144.279 107.515 143.155V138.699H112.144V138.718ZM86.5965 132.295H93.3255V136.752H86.5965V145.889H95.0687V150.346H81.6856V119.15H95.0687V123.607H86.5965V132.295ZM66.5593 142.594C66.5593 143.904 66.4281 145.009 66.1657 145.889H72.2762V123.607H66.5593V142.594ZM57.1499 145.889C57.4124 145.927 57.6935 145.927 57.9934 145.927C58.2933 145.927 58.5745 145.927 58.8369 145.927C59.6054 145.927 60.2802 145.739 60.8237 145.346C61.3673 144.953 61.6485 144.148 61.6485 142.931V119.131H77.1684V145.871H79.6613V153.885H74.6567V150.327H62.1171V153.885H57.1125V145.889H57.1499ZM50.9083 126.827C50.9083 125.423 50.6833 124.487 50.2147 124C49.7461 123.513 49.1276 123.27 48.3591 123.27C47.5906 123.27 46.972 123.494 46.5034 123.962C46.0349 124.431 45.8099 125.217 45.8099 126.341V129.692H41.1615V126.659C41.1615 124.131 41.78 122.202 43.0171 120.835C44.2542 119.487 46.0723 118.813 48.4716 118.813C50.8895 118.813 52.7077 119.487 53.9448 120.835C55.1818 122.184 55.8004 124.131 55.8004 126.659V127.464C55.8004 130.797 54.657 132.932 52.3703 133.887C53.6261 134.43 54.5071 135.254 55.0319 136.358C55.5567 137.482 55.8191 138.83 55.8191 140.44V142.893C55.8191 145.421 55.2006 147.35 53.9635 148.717C52.7264 150.065 50.9083 150.739 48.4903 150.739C46.0911 150.739 44.2542 150.065 43.0358 148.717C41.7987 147.369 41.1802 145.421 41.1802 142.893V138.961H45.8287V143.193C45.8287 144.316 46.0536 145.122 46.5222 145.571C46.9908 146.039 47.5906 146.264 48.3778 146.264C49.1463 146.264 49.7649 146.02 50.2335 145.552C50.7021 145.084 50.927 144.148 50.927 142.743V140.291C50.927 138.83 50.6646 137.819 50.1772 137.22C49.6712 136.62 48.8464 136.321 47.7218 136.321H46.972V131.864H48.003C48.9214 131.864 49.6524 131.621 50.1585 131.153C50.6833 130.685 50.9457 129.823 50.9457 128.569V126.827H50.9083Z" fill="white"/>
<path d="M114.993 74.3602H121.254L118.124 53.4821L114.993 74.3602ZM129.82 87.4676H123.259L122.135 79.9777H114.169L113.044 87.4676H107.084L113.7 46.1794H123.203L129.82 87.4676ZM93.1381 52.0777V66.0651H96.2121C97.243 66.0651 98.0303 65.7843 98.5738 65.2412C99.1174 64.6982 99.3985 63.6684 99.3985 62.1704V55.9725C99.3985 54.4745 99.1174 53.4633 98.5738 52.9016C98.0303 52.3586 97.243 52.0777 96.2121 52.0777H93.1381ZM96.2121 46.1606C99.4735 46.1606 101.91 47.022 103.503 48.7634C105.097 50.4861 105.884 53.0327 105.884 56.3657V61.7397C105.884 65.0914 105.097 67.6193 103.503 69.3607C101.91 71.0834 99.4735 71.9635 96.2121 71.9635H93.1381V87.4863H86.6527V46.1606H96.2121ZM73.0072 87.4676H66.5219V46.1606H83.71V52.059H73.026V87.4676H73.0072ZM47.853 87.4676H41.1802V46.1606H46.972V70.8774L53.6449 46.1606H61.7984V87.4489H55.9503V57.5641L47.853 87.4676Z" fill="white"/>
</g>
<defs>
<clipPath id="clip0_89_2772">
<rect width="171" height="198" fill="white"/>
</clipPath>
</defs>
</svg>
