<svg width="250" height="242" viewBox="0 0 250 242" fill="none" xmlns="http://www.w3.org/2000/svg">
<path d="M183.414 57.7878C171.743 52.0862 159.487 46.3394 151.106 44.1221C135.47 39.9138 125.962 39.597 118.752 43.2171C116.094 44.5293 112.174 50.4119 114.201 61.6341C117.716 80.6847 126.323 89.7348 124.971 90.9113C123.168 92.4046 100.818 75.7523 96.8531 53.489C95.1408 43.8958 96.8531 28.9178 107.577 24.438C116.544 20.6822 131.73 20.999 144.707 26.1575C158.225 31.4971 175.123 42.8551 184.811 55.9778C185.577 57.0185 184.45 58.3761 183.414 57.7878Z" fill="#8A1116"/>
<path d="M104.784 31.9042C110.957 21.0893 134.028 23.0803 148.582 30.0489C161.019 36.022 172.239 44.4839 177.917 51C170.842 46.2487 157.639 39.0538 142.86 35.117C127.089 30.9539 113.525 31.0897 104.784 31.9042Z" fill="#E63212"/>
<path d="M106.961 207.932C101.155 209.824 95.019 210.676 88.9185 210.376L88.9167 210.376C73.5021 209.591 58.7243 201.146 49.592 188.795L49.5909 188.793L39.8579 175.58L38.34 173.519L40.8528 174.005L46.4649 175.09C41.1944 170.762 37.1777 166.779 33.9505 162.141C30.0996 156.607 27.4137 150.198 25.0082 141.266C23.9042 137.231 22.1956 133.25 19.6478 130.041L19.6462 130.039C16.9212 126.589 14.0363 125.69 10.051 124.449C9.81044 124.374 9.56586 124.298 9.31707 124.22L7.90834 123.777L8.84159 122.633C11.5352 119.331 14.7332 116.512 20.0008 114.294C16.1183 114.643 12.5468 115.715 8.64356 118.348L6.10886 120.057L7.14344 117.18C13.4416 99.6672 22.9159 87.8601 35.6925 82.1473C47.3387 76.9399 61.5543 76.8749 78.2783 81.905C76.5784 80.5568 74.8528 79.3268 73.1659 78.3936C61.0035 71.7564 48.7193 71.2546 35.4207 75.4391L17.714 81.0496L15.0039 81.9083L16.5796 79.542C31.3563 57.3513 50.8568 34.8757 73.4835 20.3218C96.0593 5.80065 121.818 -0.871286 149.063 8.60779C161.099 6.31551 174.058 8.84733 185.476 14.538C196.98 20.271 206.997 29.2476 212.988 39.8742C219.553 51.4923 221.608 65.2534 219.549 78.3499C219.549 78.3503 219.549 78.3507 219.549 78.3511L219.288 80.0735C219.503 80.4342 219.725 80.7987 219.949 81.1667C220.536 82.1331 221.139 83.1243 221.69 84.1387C224.287 88.7968 225.542 93.193 225.912 98.5347L225.913 98.5444L225.913 98.5541L225.934 98.9693C231.223 102.689 236.353 107.445 240.828 111.63L240.836 111.638C242.804 113.521 244.751 115.877 245.91 118.52C247.069 121.161 247.455 124.129 246.234 127.153C246.213 127.903 246.059 128.667 245.831 129.4L245.807 129.477L245.771 129.548L245.726 129.639L245.722 129.637L245.726 129.639L245.705 129.681C245.032 131.513 244.732 133.181 244.419 134.935L244.417 134.946L244.41 134.98C244.006 137.098 243.576 139.354 242.194 141.889L242.194 141.89C241.132 143.837 239.994 145.516 238.588 146.88L238.297 147.162H238.268L236.219 149.259L235.847 149.64L235.324 149.544L235.214 149.524C233.695 150.471 232.017 151.25 230.114 151.902C229.232 152.223 228.384 152.355 227.579 152.374C225.158 157.431 220.963 161.012 216.27 163.724C211.695 166.412 206.429 163.7 205.081 159.325C203.669 160.372 202.202 161.278 200.699 161.997M106.961 207.932L113.486 227.301L119.028 234.857L119.902 236.049L120.683 234.794L125.64 226.83L125.643 226.825C126.074 226.122 126.45 225.464 126.81 224.833C127.601 223.448 128.319 222.192 129.396 220.869C130.549 219.454 131.872 218.228 133.333 217.173L133.299 223.382L133.127 224.676L132.812 227.043L133.298 226.677V226.802L134.866 225.722L144.914 218.799L144.915 218.798C149.861 215.383 154.454 213.325 160.318 212.402L160.321 212.401C162.497 212.052 164.776 211.962 166.992 212.006L167.002 212.007H167.012C167.49 212.007 167.988 212.038 168.514 212.077C168.619 212.085 168.725 212.093 168.832 212.102C169.22 212.131 169.623 212.163 170.02 212.182L170.463 212.293L171.364 212.519L171.534 212.007C172.576 211.593 173.554 211.222 174.483 210.869C179.789 208.852 183.475 207.451 188.323 202.425C189.047 201.681 189.795 200.832 190.536 199.992C190.806 199.686 191.075 199.38 191.342 199.081C192.357 197.943 193.35 196.884 194.323 196.077C194.451 195.972 194.822 195.773 195.346 195.539C195.829 195.323 196.328 195.127 196.616 195.016L196.624 195.013L196.632 195.01C200.298 193.523 203.896 190.819 205.875 187.477C206.871 185.794 207.471 183.923 207.426 181.957C207.384 180.149 206.798 178.32 205.566 176.546C206.095 175.343 206.463 174.15 206.823 172.746L206.823 172.743C208.449 166.311 201.707 160.823 195.901 163.813C195.802 163.367 195.667 162.94 195.499 162.534C197.115 162.963 198.919 162.853 200.699 161.997M106.961 207.932C106.977 209.79 107.163 211.643 107.494 213.491L107.495 213.496C108.424 218.534 110.469 223.199 113.485 227.3L106.961 207.932ZM200.699 161.997C200.699 161.997 200.7 161.996 200.7 161.996L200.266 161.095L200.698 161.997C200.698 161.997 200.698 161.997 200.699 161.997ZM182.271 160.517C181.982 160.88 181.553 161.343 181.046 161.856C180.749 159.777 180.613 157.624 180.538 155.227L180.538 155.222C180.501 154.19 180.832 153.143 181.471 152.276L181.477 152.266C183.415 149.568 184.732 148.082 187.488 146.222L187.491 146.22C188.453 145.565 189.606 144.951 190.863 144.449C190.839 145.308 190.864 146.132 190.886 146.887C190.901 147.386 190.915 147.856 190.913 148.285C190.908 149.563 190.783 150.795 190.228 152.281C189.478 154.271 189.593 156.253 190.299 157.95C187.619 157.187 184.56 157.819 182.405 160.375L182.39 160.389L182.39 160.39L182.345 160.435L182.306 160.474L182.271 160.517ZM205.764 157.52C205.457 157.773 205.148 158.018 204.836 158.257L205.935 158.668C205.845 158.297 205.787 157.913 205.764 157.52Z" fill="#271D67" stroke="white" stroke-width="2"/>
<path d="M235.774 117.021C232.665 114.08 225.005 106.885 218.876 103.129C215.722 101.228 211.712 101.636 210.495 101.228C212.343 99.6899 215.857 100.595 217.164 100.55C218.02 100.504 218.471 99.7804 218.516 99.1469C218.831 96.5676 209.504 83.7616 206.35 72.6299C206.71 77.0193 204.818 83.0376 207.476 90.5492C200.357 86.1599 195.76 75.0735 187.604 68.3764C187.604 73.716 186.343 78.6483 185.171 82.9471C182.468 79.8248 181.431 75.7522 177.511 73.3992C179.133 77.3813 178.457 80.7751 178.187 84.8929C170.707 87.2912 159.802 88.1057 150.88 85.4359C153.899 93.5358 160.658 101.274 168.904 103.898C149.168 104.532 135.56 95.6626 128.891 89.5085C110.191 72.0869 110.191 64.2586 90.6799 53.7151C94.6452 52.3124 100.052 51.7241 105.73 51.7241C134.343 51.7241 156.197 60.7743 175.664 82.4946C173.861 68.0144 165.48 53.3531 157.009 43.9862C169.31 49.0091 180.034 63.7608 184.721 77.517C186.118 67.1546 182.152 53.8056 177.917 46.5655C187.064 53.1721 198.779 67.4261 203.421 82.0421C203.195 71.1819 205.268 65.0731 204.412 56.6112C208.467 62.4485 210.044 67.7429 212.252 77.2003C214.1 65.4351 212.162 53.4889 206.575 43.579C200.131 32.1758 192.02 25.2977 178.457 20.0034C185.126 26.7005 188.686 36.6556 189.497 46.5203C162.01 7.60465 112.444 4.1656 78.5587 26.1574C98.9259 18.4648 123.304 24.4379 137.227 41.5879C129.026 36.3841 95.7717 24.9357 62.1567 43.3527C47.6023 51.3169 38.2748 61.091 33.2731 68.4216C54.0008 61.8603 68.2399 67.2904 76.7112 71.9512C92.7977 80.7298 111.813 112.27 153.629 111.681C157.414 111.636 165.84 111.817 169.535 115.709C169.535 115.799 169.49 115.844 169.49 115.935C157.549 108.016 141.418 120.415 119.203 113.537C96.8531 106.568 93.2934 93.762 72.836 87.4269C54.091 81.6348 29.8485 85.6169 20.1155 106.523C31.9213 101.681 39.5816 105.98 44.7635 110.912C51.0269 116.84 54.6317 123.899 61.3907 129.058C65.1307 131.908 71.349 136.162 80.9018 137.61C89.4633 138.922 99.8722 136.433 103.612 134.985C90.5447 131.32 86.309 129.601 78.829 121.682C70.6731 113.129 69.096 107.201 60.6698 103.581C74.5934 103.219 82.6592 116.795 98.5654 123.447C117.22 131.275 125.331 130.868 139.345 129.782C146.6 129.239 152.232 130.098 156.738 132.27C143.265 127.926 119.879 134.533 97.1685 143.176C90.3194 145.8 75.7199 151.049 59.0476 142.904C47.7375 137.384 46.0252 130.279 34.3996 123.854C29.7134 121.274 21.963 120.686 21.6926 121.365C21.5124 121.817 28.6319 125.981 32.2367 139.42C43.2314 180.281 78.063 187.295 102.711 167.34C91.1756 171.82 79.6401 174.354 70.4478 167.113C86.9849 174.489 104.243 159.738 118.752 154.76C135.965 148.832 150.475 150.914 159.712 157.204C155.071 155.394 148.492 153.991 142.499 154.081C134.614 154.172 127.719 156.706 121.141 160.552C107.938 168.245 99.2413 179.648 81.9833 183.72C71.3941 186.209 62.0216 185.712 55.623 184.444C57.2001 186.617 68.9158 202.047 89.3731 203.043C104.423 203.812 115.148 196.3 118.212 193.947C116.995 196.029 113.21 203.178 114.877 212.228C115.778 217.251 118.031 220.917 119.563 222.953C121.411 219.966 124.07 213.043 134.704 207.975C137.588 206.617 140.066 205.396 142.319 205.169C141.598 207.296 140.922 210.011 140.922 212.726C148.717 207.341 154.71 205.848 159.397 205.124C165.119 204.264 171.022 204.853 171.067 204.853C166.021 198.925 156.152 198.11 154.395 198.11C155.026 194.264 157.324 189.467 158.586 187.295C144.257 184.082 129.116 193.178 125.737 200.961C125.557 198.246 127.764 192.68 130.919 187.793C133.712 183.494 140.562 178.064 143.941 176.707C139.48 176.164 133.397 178.109 128.305 179.874C114.697 184.625 107.893 191.685 91.4459 190.689C100.503 188.517 106.811 185.712 114.201 180.553C127.179 171.503 134.433 167.113 150.114 168.245C148.222 167.023 145.969 166.208 141.868 165.575C138.714 165.077 133.127 164.896 130.017 165.756C129.792 165.801 129.702 165.53 129.882 165.439C131.865 164.398 136.146 163.358 141.237 163.539C145.338 163.629 150.745 164.308 154.62 166.254C158.496 168.245 161.83 171.548 163.317 174.173C163.362 174.263 163.362 174.308 163.362 174.354C163.362 174.399 163.407 174.399 163.407 174.444C159.983 174.942 153.088 177.747 150.52 181.232C155.702 181.684 160.073 182.906 163.542 184.716C162.371 187.431 161.289 190.282 160.749 193.314C166.426 193.359 174.402 196.029 177.871 201.73C182.558 199.106 186.388 193.268 189.767 190.463C192.426 188.246 197.608 187.657 199.455 185.033C200.807 183.132 200.311 180.508 198.149 179.693C191.48 177.25 186.388 177.838 182.332 177.204C179.899 176.842 177.871 175.259 176.88 173.041C174.537 167.928 173.726 163.765 173.411 155.62C173.32 152.905 174.177 150.19 175.754 148.018C177.871 145.122 179.539 142.95 183.594 140.189C187.965 137.203 195.445 134.804 201.844 135.936C204.863 141.185 220.003 142.226 225.32 140.959C227.212 140.506 228.97 139.511 229.736 137.7C230.592 135.619 230.547 134.216 230.457 132.632C230.277 130.958 229.871 129.736 229.42 128.922C227.122 124.714 220.138 121.41 222.301 118.921C226.446 121.863 230.727 122.949 233.611 122.27C235.639 122.994 237.621 123.718 239.604 124.487C240.37 122.089 238.072 119.193 235.774 117.021Z" fill="#009FE3"/>
<path d="M151.286 73.1276C147.546 71.3175 143.626 69.4623 140.967 68.7835C135.965 67.426 132.946 67.3355 130.648 68.512C129.792 68.9193 128.53 70.8198 129.206 74.3946C130.333 80.4582 133.082 83.3542 132.631 83.7615C132.045 84.214 124.926 78.9197 123.664 71.8153C123.123 68.7383 123.664 63.9869 127.089 62.5389C129.972 61.3624 134.794 61.4529 138.939 63.0819C143.265 64.8014 148.627 68.4215 151.737 72.5846C151.962 72.8561 151.646 73.2633 151.286 73.1276Z" fill="#009FE3"/>
<path d="M233.205 133.99C228.745 143.131 228.609 143.312 227.348 144.488C227.122 144.714 227.348 145.076 227.663 144.986C231.628 143.583 233.791 141.954 235.684 138.424C237.757 134.533 236.585 133.085 238.838 127.112C238.883 126.976 238.748 126.886 238.658 127.021C237.171 129.012 234.692 130.958 233.205 133.99Z" fill="#009FE3"/>
<path d="M235.774 117.021C232.665 114.08 225.004 106.885 218.876 103.129C215.812 101.274 212.027 101.59 210.675 101.228C208.467 101.771 205.764 102.405 204.232 104.26C191.39 97.3369 166.967 103.31 150.925 85.436C153.944 93.4906 160.613 101.138 168.769 103.808C179.539 104.984 182.017 112.903 190.263 115.98C197.563 118.695 202.069 122.587 201.889 123.039C201.708 123.582 200.221 122.134 194.364 121.999C187.74 121.863 182.693 124.035 180.485 125.03C174.312 127.745 170.211 131.592 167.823 134.262C167.553 134.533 167.868 135.076 168.184 134.85C175.934 130.098 180.981 128.831 186.884 128.379C191.435 128.017 197.653 128.198 200.357 129.691C201.979 130.641 202.745 131.818 202.339 133.764C205.358 135.619 208.062 136.75 209.999 137.429C216.173 139.556 225.906 141.094 230.006 135.891C230.502 133.809 230.186 130.641 229.15 128.741C226.852 124.533 219.868 121.229 222.031 118.741C226.176 121.682 230.457 122.768 233.341 122.089C235.368 122.813 237.351 123.537 239.334 124.306C240.37 122.089 238.072 119.193 235.774 117.021ZM206.665 68.2407C205.989 74.3948 204.772 83.3544 206.755 89.237C199.23 83.5807 194.138 66.6569 186.072 60.8196C187.83 68.3312 186.478 77.9696 185.306 82.2684C182.963 78.0601 179.944 73.6255 176.52 71.4987C178.187 75.8428 178.142 80.4131 178.232 84.893C178.142 84.893 178.277 84.8477 178.187 84.893C184.18 92.0426 195.13 87.246 204.998 91.9068C206.35 97.7894 215.271 99.5994 218.561 99.0112C217.615 85.7075 210.63 85.5717 206.665 68.2407ZM238.658 126.976C237.216 129.012 234.692 131.003 233.251 133.99C232.62 135.257 232.079 136.343 231.628 137.293C231.223 138.922 231.268 139.556 231.448 140.099C231.538 140.325 231.764 140.959 232.394 141.411C232.394 141.411 232.71 141.637 233.341 141.728C234.197 140.823 235.008 139.782 235.729 138.425C237.802 134.533 236.63 133.085 238.883 127.067C238.838 126.976 238.703 126.84 238.658 126.976ZM126.187 64.8469C128.17 61.4078 135.515 62.0414 140.156 64.2586C144.121 66.1592 147.681 68.8742 149.529 70.9557C147.276 69.4172 143.04 67.1547 138.354 65.8877C133.307 64.5301 128.981 64.5754 126.187 64.8469Z" fill="white"/>
<path d="M199.636 170.915C199.726 170.598 199.41 170.236 199.14 170.417C197.067 171.865 192.426 173.63 191.705 174.218C190.984 174.806 192.696 176.571 195.039 177.023C196.256 177.25 197.067 176.39 197.653 175.485C198.779 173.856 199.185 172.77 199.636 170.915Z" fill="white"/>
<path d="M205.133 142.09C212.207 143.357 217.119 144.714 220.634 146.66C221.264 146.977 221.535 147.701 221.31 148.38C219.597 152.724 215.767 155.529 212.568 157.385C212.343 157.52 212.072 157.339 212.162 157.068C213.424 153.176 215.317 148.289 214.235 147.475C212.388 146.524 210.27 146.162 207.251 146.027C205.719 148.968 202.069 153.131 197.518 155.348C197.247 155.484 197.022 155.213 197.112 154.941C198.915 150.19 198.103 147.248 198.239 144.262C198.419 140.868 202.249 141.592 205.133 142.09Z" fill="white"/>
<path d="M188.731 165.53C188.731 165.122 188.28 164.896 188.055 165.168C186.298 167.385 182.377 170.869 180.665 171.955C179.674 172.679 182.513 175.032 185.126 175.621C185.577 175.711 186.478 175.937 186.883 174.761C188.37 170.507 188.821 167.702 188.731 165.53Z" fill="white"/>
<path d="M172.014 154.805C172.239 154.805 171.563 159.602 173.771 168.29C174.762 172.136 176.655 176.616 177.826 177.838C178.818 178.833 184.18 181.096 192.471 180.87C196.481 180.779 197.698 180.01 198.239 180.689C199.275 182.001 199.05 183.992 198.058 184.173C192.065 185.214 178.683 182.499 176.475 180.372C173.636 177.204 173.095 173.494 172.284 169.466C170.617 160.371 171.788 154.805 172.014 154.805Z" fill="white"/>
<path d="M139.165 137.157C150.925 136.705 156.558 140.823 159.757 145.348C153.764 141.411 147.276 140.008 137.768 140.053C131.009 140.053 117.716 141.818 97.2587 151.004C110.011 144.941 125.647 137.7 139.165 137.157Z" fill="#271D67"/>
<path d="M189.812 188.426C188.325 189.105 186.929 190.101 185.036 190.372C180.44 190.96 175.754 189.693 174.582 187.159C177.06 190.101 184.54 188.336 189.812 188.426Z" fill="#271D67"/>
<path d="M188.28 116.931C187.424 116.523 186.523 116.116 185.712 115.618C183.955 114.532 182.693 113.627 181.161 112.27C180.8 111.908 179.764 110.731 179.358 110.233C179.539 111.184 179.719 112.27 180.124 113.084C180.936 114.894 182.287 116.433 184.27 117.79C178.818 118.56 174.312 121.048 171.653 123.447C179.223 118.605 188.596 119.872 195.084 120.732C195.49 120.777 195.625 120.37 195.355 120.143C194.003 119.057 192.156 118.605 188.28 116.931Z" fill="#271D67"/>
<path d="M163.272 120.143C156.423 116.252 140.021 121.953 129.206 121.229C137.047 123.99 148.717 120.415 156.964 123.13C155.657 121.591 153.99 121.274 152.638 120.912C155.431 119.826 160.613 119.464 163.272 120.143Z" fill="#271D67"/>
<path d="M186.072 92.6761C186.027 92.2688 188.821 91.3185 191.885 91.7258C196.617 92.4046 198.734 94.2598 204.547 94.5766C203.421 99.2374 205.538 102.631 204.051 104.215C203.285 102.586 203.24 101.183 201.393 100.64C197.157 102.586 192.561 97.9252 193.237 95.1196C192.651 94.8481 191.299 93.2643 189.001 92.9023C186.883 92.6308 186.117 92.9023 186.072 92.6761Z" fill="#271D67"/>
<path d="M223.833 111.138C223.833 111.138 222.166 110.143 220.048 109.328C215.362 107.518 207.701 110.188 206.98 104.848C208.603 105.527 209.414 106.613 212.388 106.342C216.939 105.799 221.58 106.251 223.833 111.138Z" fill="#009FE3"/>
<path d="M158.946 86.9745C166.02 87.2913 168.679 86.9293 174.266 85.979C177.285 89.5991 183.819 91.1828 191.074 91.6806C192.335 93.3096 196.661 98.6492 198.373 101.047C193.822 100.731 185.531 99.509 179.899 97.8347C171.653 95.3911 163.091 90.6851 158.946 86.9745Z" fill="#006BB4"/>
<path d="M200.762 95.4815C200.537 96.3412 199.816 96.9295 199.05 96.7937C198.284 96.6127 197.788 95.7982 197.968 94.8932C197.518 94.7122 197.022 94.4859 196.571 94.3049C196.526 94.3954 196.526 94.4859 196.481 94.5764C196.121 96.4317 197.112 98.1965 198.734 98.5132C200.311 98.83 201.889 97.6535 202.294 95.8435C201.798 95.753 201.303 95.6625 200.762 95.4815Z" fill="white"/>
<path d="M126.187 64.8469C128.17 61.4079 135.515 62.0414 140.156 64.2587C144.121 66.1592 147.681 68.8742 149.529 70.9558C147.276 69.4173 143.04 67.1547 138.354 65.8877C133.307 64.5302 128.981 64.5754 126.187 64.8469Z" fill="white"/>
<path d="M188.235 27.7864C192.426 32.2209 199.005 43.7146 199.23 56.7921C198.058 55.1178 195.805 53.353 193.733 51.9503C196.211 54.7558 200.041 62.7652 201.258 67.607C201.979 58.7831 201.483 49.8235 200.537 45.4342C204.051 48.6922 209.594 55.2988 211.712 67.1545C210.72 51.0905 202.384 36.927 188.235 27.7864Z" fill="#E63212"/>
<path d="M112.804 45.3438C131.595 46.6108 156.693 57.3352 168.904 71.5892C164.444 55.9324 150.835 37.1986 133.938 32.04C143.355 38.2846 149.664 45.3438 154.26 53.9414C137.588 42.6287 123.844 39.7327 108.434 38.3751C76.4408 35.5243 49.4948 52.7196 40.2575 64.5753C53.9107 59.7787 75.3594 62.9915 89.1929 76.431C103.026 89.8705 107.307 93.8525 118.257 100.685C126.908 106.07 141.508 110.414 158.991 109.69C140.742 108.876 128.44 104.758 118.167 95.9341C108.298 87.4269 105.82 82.8114 96.763 73.4445C86.3541 62.6295 77.0266 57.7877 67.564 56.3849C78.2433 47.6968 99.1963 44.4387 112.804 45.3438Z" fill="#E63212"/>
<path d="M190.669 52.8554C177.511 31.8591 156.738 19.8676 138.849 17.2883C146.329 19.8676 152.683 25.6597 156.828 31.3613C138.264 20.2296 117.716 13.985 92.7527 20.5011C113.886 17.4241 137.362 24.1664 155.161 35.2981C168.319 43.4885 173.185 48.2851 178.637 57.9235C175.078 45.932 170.977 39.1897 163.452 30.4563C170.887 34.4836 181.747 43.0812 190.669 52.8554Z" fill="#E63212"/>
<path d="M112.444 122.089C100.954 117.7 94.2847 109.102 82.4338 100.866C59.9037 85.1645 36.0669 90.0063 25.6579 102.043C34.1293 101.274 43.1413 103.989 50.0355 112.767C57.3353 122.044 64.6801 130.913 76.576 134.216C83.0196 135.981 90.8151 135.302 95.5464 134.759C91.491 134.805 85.6331 135.483 78.6939 131.727C61.7963 122.542 63.824 110.279 47.0165 100.188C54.4965 96.6582 69.6367 98.0609 80.8117 106.297C92.4823 114.849 98.5654 120.324 112.038 124.216C120.42 126.705 127.584 126.207 133.893 125.257C124.25 125.347 118.077 124.261 112.444 122.089Z" fill="#E63212"/>
<path d="M149.619 202.454C149.664 200.011 150.79 196.481 151.872 193.721C135.199 195.259 122.808 205.396 119.879 219.197C123.754 210.554 132.541 203.088 145.158 200.101C143.761 203.54 142.995 206.482 142.544 209.694C145.969 206.979 150.34 204.536 155.071 203.767C158.766 203.133 163.092 202.5 166.832 203.54C161.74 200.916 154.665 200.69 149.619 202.454Z" fill="#E63212"/>
<path d="M56.4341 158.47C59.5883 165.53 70.5379 177.657 91.9416 171.322C83.29 175.575 70.9885 175.53 64.4097 172.77C53.37 168.154 48.2331 162.86 43.3216 154.398C37.1032 143.719 38.0946 138.922 35.3459 132.632C43.7722 138.515 45.2591 144.805 53.3249 149.918C60.2191 154.262 67.4288 159.149 80.5413 159.194C97.7994 159.24 111.363 146.162 130.693 146.615C110.596 148.425 100.368 162.226 82.2085 164.217C74.7285 164.987 63.824 163.539 56.4341 158.47Z" fill="#E63212"/>
<path d="M65.311 188.291C73.9625 197.431 87.3905 203.133 102.531 198.834C107.938 197.296 114.472 194.671 123.754 187.069C121.321 190.146 119.879 192.409 119.248 199.558C122.222 190.01 131.775 181.503 134.208 180.191C129.387 181.232 124.52 184.037 116.184 188.291C101.449 195.802 85.6331 197.974 65.311 188.291Z" fill="#E63212"/>
<path d="M116.68 171.231C125.241 162.226 136.326 159.285 140.471 159.195C131.189 158.697 122.312 162.498 113.03 170.869C107.893 175.485 102.711 180.462 94.2396 184.444C104.919 182.046 114.337 173.403 122.447 170.643C120.735 170.326 117.851 170.869 116.68 171.231Z" fill="#E63212"/>
</svg>
