<svg width="1109" height="1109" viewBox="0 0 1109 1109" fill="none" xmlns="http://www.w3.org/2000/svg">
<g opacity="0.1">
<path d="M1039.79 551.471C1025.47 538.07 990.408 505.209 962.32 488.136C948.001 479.324 929.46 481.16 923.952 479.324C932.397 472.165 948.552 476.571 954.61 476.204C958.465 476.02 960.485 472.532 960.852 469.778C962.32 458.213 919.546 399.468 905.044 348.8C906.696 368.81 897.884 396.347 910.184 430.676C877.507 410.666 856.579 360.182 819.129 329.524C819.129 353.757 813.438 376.52 808.114 395.98C795.631 381.66 791.041 363.303 772.867 352.471C780.21 370.646 777.273 386.066 775.988 404.975C741.659 415.806 691.725 419.661 650.787 407.545C664.739 444.628 695.764 479.875 733.581 491.624C643.077 494.562 580.844 454.174 550.186 425.903C464.454 346.413 464.638 310.799 375.052 262.518C393.226 256.093 418.009 253.339 444.077 253.339C575.153 253.339 675.387 294.644 764.606 393.593C756.161 327.505 717.977 260.498 679.058 217.908C735.417 240.672 784.432 308.045 806.095 370.829C812.52 323.466 794.346 262.518 774.886 229.657C816.742 259.764 870.531 324.935 891.643 391.574C890.541 342.007 900.087 314.103 896.048 275.552C914.59 302.171 921.933 326.22 931.846 369.544C940.474 315.756 931.479 261.233 905.778 216.072C876.405 164.12 839.139 132.544 777.089 108.312C807.747 138.969 823.902 184.313 827.757 229.29C702.006 51.9528 474.735 36.165 319.427 136.583C412.685 101.519 524.485 128.872 588.187 207.077C550.737 183.212 398.183 131.075 244.16 214.971C177.521 251.319 134.747 295.929 111.8 329.341C206.71 299.417 272.064 324.2 310.983 345.495C384.598 385.516 471.981 529.625 663.454 526.871C680.71 526.688 719.445 527.422 736.518 545.229C736.518 545.596 736.335 545.964 736.335 546.147C681.628 509.982 607.646 566.524 505.76 535.132C403.323 503.373 386.984 444.995 293.175 415.99C207.261 389.554 96.1953 407.729 51.7692 503.006C105.925 480.977 140.989 500.62 164.67 523.016C193.309 550.002 209.831 582.312 240.855 605.81C257.928 618.844 286.383 638.304 330.258 644.729C369.544 650.604 417.275 639.222 434.164 632.796C374.317 615.907 354.858 608.197 320.529 572.032C283.079 532.929 276.103 506.127 237.184 489.421C301.069 487.585 337.969 549.635 410.849 579.926C496.397 615.54 533.48 613.704 597.733 608.931C630.961 606.361 656.845 610.216 677.406 620.129C615.724 600.303 508.513 630.41 404.424 669.879C373.032 681.812 306.21 705.861 229.657 668.594C177.888 643.444 169.994 611.134 116.573 581.761C95.0938 570.012 59.6631 567.442 58.3781 570.38C57.6438 572.399 90.1372 591.491 106.659 652.807C157.143 839.323 316.673 871.449 429.574 780.21C376.704 800.771 323.833 812.153 281.61 779.109C357.428 812.887 436.367 745.514 502.822 722.75C581.761 695.764 648.217 705.127 690.624 733.765C669.328 725.504 639.222 719.262 611.685 719.446C575.52 719.813 543.944 731.562 513.837 749.002C453.256 784.065 413.42 836.018 334.481 854.743C285.832 866.125 242.875 863.739 213.686 858.048C221.029 867.961 274.45 938.272 368.443 942.861C437.468 946.349 486.484 912.02 500.62 901.372C495.112 910.918 477.672 943.412 485.199 984.717C489.421 1007.66 499.702 1024.37 506.678 1033.73C515.122 1020.15 527.422 988.389 576.07 965.441C589.288 959.2 600.67 953.692 610.95 952.591C607.646 962.32 604.525 974.804 604.525 987.104C640.323 962.504 667.86 955.712 689.155 952.407C715.223 948.368 742.576 951.122 742.76 951.122C719.629 923.953 674.285 920.464 666.391 920.281C669.328 902.657 679.792 880.811 685.667 870.898C619.946 856.212 550.553 897.701 535.132 933.315C534.398 920.832 544.495 895.498 558.998 873.285C571.848 853.642 603.057 828.859 618.661 822.617C598.284 820.23 570.38 829.042 546.881 837.12C484.465 858.782 453.256 891.092 377.989 886.319C419.478 876.406 448.3 863.739 482.262 840.057C541.741 798.935 574.969 778.742 646.748 783.882C637.937 778.191 627.656 774.703 608.931 771.766C594.428 769.379 568.911 768.645 554.592 772.684C553.674 772.867 553.123 771.582 554.041 771.215C563.22 766.625 582.863 761.669 606.177 762.587C624.902 762.954 649.686 766.075 667.493 774.886C685.3 783.882 700.537 798.935 707.329 811.051C707.513 811.419 707.513 811.602 707.513 811.786C707.513 811.969 707.696 811.969 707.696 812.153C691.909 814.54 660.517 827.206 648.768 842.994C672.633 845.014 692.643 850.705 708.431 858.966C703.107 871.265 698.15 884.299 695.58 898.251C721.465 898.435 758.181 910.551 773.968 936.619C795.447 924.503 813.071 898.068 828.491 885.217C840.791 875.121 864.473 872.367 872.917 860.434C879.159 851.806 876.956 839.69 867.043 836.202C836.385 825.003 813.071 827.757 794.529 825.003C783.331 823.351 774.152 816.192 769.563 806.095C758.731 782.597 755.06 763.688 753.591 726.605C753.04 714.122 757.079 701.822 764.422 691.909C774.152 678.691 781.862 668.778 800.404 656.294C820.597 642.71 854.743 631.695 884.116 636.835C897.884 660.884 967.277 665.657 991.693 659.599C1000.5 657.396 1008.4 652.99 1011.89 644.545C1015.74 634.999 1015.56 628.574 1015.01 621.415C1014.27 613.888 1012.44 608.197 1010.23 604.342C999.587 585.249 967.828 570.012 977.741 558.631C996.833 572.215 1016.29 576.805 1029.51 574.051C1038.69 577.356 1047.87 580.66 1057.05 584.148C1060.72 574.602 1050.25 561.384 1039.79 551.471Z" fill="#9D9C9C"/>
<path d="M652.623 351.003C635.55 342.742 617.559 334.297 605.443 331.176C582.679 325.118 568.727 324.567 558.08 329.891C554.225 331.911 548.35 340.355 551.471 356.694C556.611 384.414 569.094 397.632 567.259 399.284C564.689 401.487 532.012 377.255 526.137 344.761C523.567 330.809 526.137 308.963 541.741 302.354C554.775 296.847 576.988 297.398 596.081 304.925C615.907 312.635 640.507 329.157 654.826 348.433C655.744 349.901 654.091 351.921 652.623 351.003Z" fill="#9D9C9C"/>
<path d="M1028.04 628.941C1007.48 670.613 1006.93 671.348 1001.06 676.855C999.954 677.773 1001.06 679.609 1002.52 679.058C1020.7 672.633 1030.61 665.29 1039.42 649.135C1048.97 631.511 1043.46 624.902 1053.74 597.366C1053.93 596.815 1053.19 596.448 1053.01 596.815C1046.22 606.177 1034.83 615.173 1028.04 628.941Z" fill="#9D9C9C"/>
<path d="M906.329 328.973C903.208 357.061 897.701 397.999 906.88 424.802C872.367 398.917 849.052 321.814 812.153 295.195C820.231 329.341 813.989 373.583 808.665 393.042C797.834 373.95 784.065 353.573 768.461 344.027C776.172 363.853 775.988 384.598 776.355 405.159C775.988 405.159 776.539 404.975 776.172 405.159C803.708 437.836 853.825 415.806 898.986 437.101C905.228 464.087 945.982 472.348 961.219 469.411C956.63 408.647 924.687 407.912 906.329 328.973ZM537.703 313.369C546.698 297.581 580.476 300.519 601.772 310.615C619.946 319.427 636.284 331.727 644.729 341.09C634.265 334.114 614.989 323.65 593.327 317.959C570.196 311.901 550.37 312.268 537.703 313.369Z" fill="white"/>
<path d="M874.203 797.467C874.57 795.998 873.101 794.529 872 795.264C862.454 801.689 841.342 809.95 838.038 812.704C834.733 815.457 842.627 823.535 853.458 825.554C858.966 826.656 862.821 822.617 865.391 818.395C870.164 810.684 872.183 805.911 874.203 797.467Z" fill="#9D9C9C"/>
<path d="M899.353 665.841C931.847 671.715 954.243 677.773 970.582 686.585C973.335 688.054 974.804 691.358 973.519 694.295C965.809 714.122 948.185 726.972 933.499 735.417C932.397 735.968 931.296 735.233 931.663 734.132C937.538 716.508 946.166 694.112 941.026 690.44C932.581 686.034 922.851 684.382 909.083 683.831C902.107 697.233 885.401 716.325 864.473 726.238C863.372 726.789 862.27 725.687 862.637 724.402C870.898 702.74 867.043 689.339 867.778 675.754C868.696 660.333 886.136 663.454 899.353 665.841Z" fill="#9D9C9C"/>
<path d="M824.086 772.867C823.902 771.031 821.883 769.93 820.965 771.215C812.704 781.495 794.896 797.283 787.003 802.24C782.413 805.544 795.447 816.375 807.38 818.945C809.583 819.496 813.438 820.414 815.457 815.09C822.617 795.447 824.636 782.78 824.086 772.867Z" fill="#9D9C9C"/>
<path d="M747.717 724.035C748.635 724.035 745.697 745.881 755.794 785.718C760.2 803.341 769.012 823.718 774.336 829.226C778.925 833.815 803.525 844.096 841.526 842.994C859.883 842.443 865.574 839.139 867.961 842.26C872.734 848.318 871.633 857.313 867.227 858.048C839.873 862.821 778.374 850.521 768.461 840.608C755.427 826.289 752.857 809.216 749.369 790.858C741.108 749.369 746.615 723.851 747.717 724.035Z" fill="white"/>
<path d="M596.999 643.26C650.971 641.057 676.855 659.966 691.358 680.527C664.005 662.536 634.265 656.295 590.573 656.295C559.732 656.295 498.6 664.372 404.975 706.412C463.353 678.875 534.949 645.831 596.999 643.26Z" fill="#F7F9FE"/>
<path d="M829.042 877.323C822.25 880.261 815.825 885.034 807.196 886.135C786.085 888.889 764.79 883.014 759.282 871.449C770.848 884.85 804.993 876.956 829.042 877.323Z" fill="#F7F9FE"/>
<path d="M822.066 551.104C818.027 549.268 813.989 547.249 810.134 545.046C802.24 540.089 796.365 536.05 789.389 529.625C787.737 527.973 782.964 522.649 781.128 520.263C781.862 524.668 782.78 529.441 784.616 533.113C788.471 541.374 794.529 548.534 803.525 554.592C778.558 558.08 757.814 569.462 745.697 580.476C780.394 558.447 823.351 564.138 853.091 568.177C854.927 568.36 855.478 566.524 854.376 565.423C848.318 560.833 840.057 558.631 822.066 551.104Z" fill="#F7F9FE"/>
<path d="M707.513 565.79C676.121 547.983 600.854 574.051 551.287 570.747C587.269 583.23 640.874 567.075 678.508 579.375C672.449 572.399 664.923 570.93 658.681 569.278C671.532 564.321 695.397 562.486 707.513 565.79Z" fill="#F7F9FE"/>
<path d="M985.086 524.669C985.086 524.669 977.376 520.079 967.83 516.408C946.167 508.147 911.287 520.446 907.983 496.03C915.51 499.151 918.998 504.108 932.95 502.823C953.327 500.253 974.622 502.272 985.086 524.669Z" fill="#9D9C9C"/>
<path d="M687.686 414.338C720.18 415.806 732.296 414.154 757.814 409.748C771.766 426.27 801.505 433.43 834.917 435.633C840.608 442.976 860.618 467.392 868.328 478.407C847.4 477.121 809.583 471.431 783.698 463.72C746.064 452.889 706.595 431.227 687.686 414.338Z" fill="#9D9C9C"/>
<path d="M537.703 313.369C546.698 297.581 580.476 300.519 601.772 310.615C619.946 319.427 636.284 331.727 644.729 341.09C634.265 334.114 614.989 323.65 593.327 317.959C570.196 311.9 550.37 312.268 537.703 313.369Z" fill="white"/>
<path d="M821.883 144.293C841.158 164.487 871.082 216.99 872.183 276.653C866.859 268.943 856.395 260.866 847.033 254.624C858.415 267.291 875.855 303.823 881.546 326.036C884.85 285.832 882.464 244.894 878.241 224.701C894.396 239.57 919.73 269.677 929.46 323.833C924.87 250.585 886.686 185.965 821.883 144.293Z" fill="#F7F9FE"/>
<path d="M476.204 224.333C562.302 230.024 677.222 279.223 733.398 344.21C713.02 272.798 650.603 187.25 573.133 163.752C616.458 192.207 645.28 224.517 666.391 263.619C590.022 212.034 527.055 198.816 456.561 192.574C309.881 179.724 186.333 258.112 144.109 312.084C206.71 290.055 304.924 304.925 368.443 366.24C431.777 427.555 451.42 445.913 501.537 476.938C541.19 501.537 608.197 521.364 688.054 518.06C604.342 514.388 548.167 495.479 500.987 455.276C455.643 416.54 444.261 395.429 402.956 352.655C355.225 303.456 312.451 281.243 269.127 274.634C317.775 234.981 413.787 220.111 476.204 224.333Z" fill="#F7F9FE"/>
<path d="M833.081 258.663C772.684 162.834 677.406 108.128 595.713 96.3789C629.859 108.128 659.048 134.563 678.14 160.632C592.96 109.964 498.967 81.3254 384.598 111.065C481.344 97.1132 588.921 127.771 670.614 178.622C730.827 216.072 753.224 237.918 778.007 281.794C761.485 227.087 742.76 196.246 708.247 156.409C742.577 174.767 792.326 214.053 833.081 258.663Z" fill="#F7F9FE"/>
<path d="M474.551 574.602C421.864 554.408 391.39 515.306 337.051 477.672C233.88 405.893 124.466 428.106 76.9196 482.996C115.838 479.508 156.96 491.991 188.536 532.012C221.947 574.418 255.542 614.806 310.248 629.859C339.621 637.937 375.419 634.816 397.265 632.429C378.54 632.613 351.737 635.734 319.978 618.477C242.508 576.621 251.87 520.63 174.767 474.735C208.913 458.58 278.306 465.005 329.708 502.639C383.129 541.741 411.033 566.708 472.899 584.515C511.267 595.897 544.128 593.694 573.133 589.288C528.707 589.472 500.436 584.332 474.551 574.602Z" fill="#F7F9FE"/>
<path d="M644.913 941.393C645.096 930.378 650.236 914.223 655.377 901.556C579.008 908.532 522.098 954.794 508.881 1017.94C526.688 978.476 566.891 944.513 624.719 930.929C618.294 946.533 614.806 959.934 612.786 974.62C628.39 962.321 648.584 951.122 670.063 947.451C686.952 944.697 706.779 941.76 723.851 946.533C700.537 934.233 668.044 933.315 644.913 941.393Z" fill="#F7F9FE"/>
<path d="M217.908 740.741C232.227 772.867 282.528 828.124 380.559 799.486C340.906 818.945 284.547 818.762 254.44 806.095C203.773 784.983 180.274 760.934 157.878 722.383C129.423 673.367 133.829 651.521 121.162 622.883C159.714 649.686 166.69 678.508 203.589 701.639C235.165 721.465 268.209 743.678 328.423 743.862C407.545 744.045 469.595 684.382 558.263 686.401C466.29 694.846 419.294 757.63 336.133 766.625C301.62 770.297 251.87 763.688 217.908 740.741Z" fill="#F7F9FE"/>
<path d="M258.479 876.589C298.132 918.261 359.631 944.33 429.207 924.687C453.99 917.711 483.914 905.778 526.504 871.082C515.306 885.034 508.697 895.498 505.943 927.991C519.528 884.483 563.404 845.564 574.602 839.69C552.572 844.463 530.176 857.313 491.991 876.589C424.251 910.918 351.737 920.832 258.479 876.589Z" fill="#F7F9FE"/>
<path d="M494.011 798.935C533.297 757.814 583.964 744.412 602.873 744.045C560.283 741.842 519.712 759.099 477.122 797.283C453.623 818.395 429.942 840.975 391.207 859.149C440.222 848.134 483.363 808.848 520.446 796.182C512.552 794.713 499.335 797.099 494.011 798.935Z" fill="#F7F9FE"/>
<path d="M812.578 433.83C812.395 431.995 825.061 427.589 839.197 429.608C860.859 432.729 870.405 441.174 897.208 442.642C892.068 463.937 901.614 479.358 895.005 486.701C891.517 479.358 891.333 472.933 882.889 470.363C863.613 479.174 842.501 458.063 845.439 445.029C842.685 443.744 836.443 436.401 826.163 434.932C816.066 433.647 812.578 434.932 812.578 433.83Z" fill="#F7F9FE"/>
<path d="M879.343 453.256C878.425 457.295 874.937 459.865 871.449 459.131C867.777 458.396 865.574 454.541 866.492 450.319C864.289 449.401 862.27 448.483 860.067 447.565C859.883 447.932 859.7 448.483 859.7 448.85C858.048 457.295 862.637 465.372 869.98 466.841C877.14 468.31 884.299 462.802 886.319 454.725C884.116 454.541 881.729 453.991 879.343 453.256Z" fill="#9D9C9C"/>
<path d="M998.304 539.13C998.304 539.13 988.325 533.198 975.679 528.382C947.461 517.72 901.78 533.541 897.565 501.641C907.372 505.682 912.017 512.131 930.083 510.412C956.752 507.316 984.54 509.982 998.304 539.13Z" fill="#F7F9FE"/>
</g>
</svg>
