<svg width="327" height="60" viewBox="0 0 327 60" fill="none" xmlns="http://www.w3.org/2000/svg">
<g clip-path="url(#clip0_89_2877)">
<path d="M157.315 8.90888H164.737V0.034668H168.346V8.90888H171.837L169.109 11.9933H165.127H165.11H159.399H153.706V0.034668H157.315V8.90888Z" fill="white"/>
<path d="M226.789 5.96209H232.025C232.448 5.96209 232.77 5.8587 232.99 5.66916C233.245 5.44515 233.38 5.06605 233.38 4.53188C233.38 3.9977 233.245 3.61861 232.99 3.3946C232.77 3.20505 232.448 3.10167 232.025 3.10167H226.789V5.96209ZM223.163 0H232.025C233.956 0 235.227 0.241241 235.854 0.723722C236.617 1.32682 237.006 2.58472 237.006 4.53188C237.006 6.4618 236.634 7.73693 235.871 8.3228C235.244 8.82252 233.973 9.06376 232.025 9.06376H226.789V11.9931H223.163V0ZM206.404 3.10167V0H220.434V3.10167H215.249V12.0103H211.623V3.10167H206.404ZM188.527 0.034463H192.154V4.22171H199.982V0.034463H203.608V12.0103H199.982V7.32338H192.154V11.9931H188.527V0.034463ZM173.04 11.9931V0H185.732V2.89489H176.666V4.56634H185.325V7.444H176.666V9.08099H185.732V11.9759H173.04V11.9931Z" fill="white"/>
<path d="M153.706 23.9517L159.077 29.8104L153.706 35.9275H158.569L162.111 31.9126L165.652 35.9275H170.515L165.144 29.8104L170.515 23.9517H165.499L162.111 27.8115L158.722 23.9517H153.706Z" fill="white"/>
<path d="M314.986 29.9312C314.986 31.4648 315.156 32.3608 315.511 32.6021C315.85 32.8606 317.07 32.9812 319.138 32.9812C321.222 32.9812 322.442 32.8606 322.798 32.6021C323.137 32.3436 323.323 31.4648 323.323 29.9312C323.323 28.3804 323.154 27.4843 322.798 27.2431C322.442 27.0019 321.239 26.864 319.155 26.864C317.07 26.864 315.85 26.9846 315.511 27.2431C315.156 27.5016 314.986 28.3976 314.986 29.9312ZM326.932 29.9312C326.932 32.8433 326.593 34.5837 325.899 35.1523C325.153 35.7727 322.899 36.0828 319.138 36.0828C316.393 36.0828 314.596 35.9794 313.732 35.7899C312.648 35.5314 311.97 34.98 311.682 34.1184C311.462 33.4637 311.343 32.0679 311.343 29.9484C311.343 27.0363 311.682 25.2959 312.36 24.7101C313.105 24.0897 315.359 23.7623 319.121 23.7623C322.866 23.7623 325.119 24.0725 325.865 24.6928C326.576 25.2615 326.932 27.0191 326.932 29.9312ZM297.55 23.9174H309.259H309.344V27.0191H301.176V35.9278H297.55V23.9174ZM282.825 29.9312C282.825 31.4648 282.994 32.3608 283.35 32.6021C283.689 32.8606 284.909 32.9812 286.993 32.9812C289.078 32.9812 290.298 32.8606 290.637 32.6021C290.975 32.3436 291.162 31.4648 291.162 29.9312C291.162 28.3804 290.992 27.4843 290.637 27.2431C290.298 26.9846 289.078 26.864 287.01 26.864C284.926 26.864 283.706 26.9846 283.35 27.2431C282.994 27.5016 282.825 28.3976 282.825 29.9312ZM294.771 29.9312C294.771 32.8433 294.432 34.5837 293.737 35.1523C292.992 35.7727 290.738 36.0828 286.977 36.0828C284.231 36.0828 282.435 35.9794 281.571 35.7899C280.504 35.5314 279.809 34.98 279.521 34.1184C279.301 33.4637 279.199 32.0679 279.199 29.9484C279.199 27.0363 279.538 25.2959 280.216 24.7101C280.961 24.0897 283.215 23.7623 286.977 23.7623C290.721 23.7623 292.975 24.0725 293.721 24.6928C294.432 25.2615 294.771 27.0191 294.771 29.9312ZM261.119 23.9519H264.745V28.1391H272.573V23.9519H276.2V35.9278H272.573V31.258H264.745V35.9278H261.119V23.9519ZM253.29 21.6084H247.461V23.2454H253.29V21.6084ZM242.056 23.9174H245.682V32.1713C245.597 32.4815 245.496 32.7916 245.411 33.1018C245.377 33.2052 245.394 33.3258 245.394 33.4292C245.462 33.4292 245.547 33.3603 245.614 33.2052C245.682 33.0673 245.733 32.895 245.818 32.7744L252.019 23.9002H257.95V35.8761H254.324V27.605C254.324 27.5877 254.409 27.2948 254.595 26.6745C254.595 26.5538 254.595 26.4504 254.612 26.3298C254.544 26.3298 254.46 26.3987 254.392 26.5538C254.324 26.7089 254.273 26.864 254.188 26.9846L247.97 35.8588H242.039V23.9174H242.056ZM226.145 35.9278V23.9346H238.836V26.8295H229.771V28.501H238.43V31.3786H229.771V33.0156H238.836V35.9105H226.145V35.9278ZM208.353 23.9519H211.979V28.1391H213.877L217.977 23.9519H222.976L217.096 29.6555L223.739 35.9278H218.486L213.894 31.258H211.996V35.9278H208.37V23.9519H208.353ZM190.493 23.9519H194.119V28.1391H196.017L200.118 23.9519H205.116L199.237 29.6555L205.879 35.9278H200.626L196.034 31.258H194.136V35.9278H190.51V23.9519H190.493ZM175.531 29.9312C175.531 31.4648 175.7 32.3608 176.056 32.6021C176.395 32.8606 177.615 32.9812 179.682 32.9812C181.766 32.9812 182.986 32.8606 183.342 32.6021C183.681 32.3436 183.868 31.4648 183.868 29.9312C183.868 28.3804 183.698 27.4843 183.342 27.2431C182.986 26.9846 181.783 26.864 179.699 26.864C177.615 26.864 176.395 26.9846 176.056 27.2431C175.717 27.5016 175.531 28.3976 175.531 29.9312ZM187.494 29.9312C187.494 32.8433 187.155 34.5837 186.46 35.1523C185.715 35.7727 183.461 36.0828 179.699 36.0828C176.954 36.0828 175.158 35.9794 174.294 35.7899C173.209 35.5314 172.532 34.98 172.244 34.1184C172.023 33.4637 171.922 32.0679 171.922 29.9484C171.922 27.0363 172.26 25.2959 172.938 24.7101C173.684 24.0897 175.937 23.7623 179.699 23.7623C183.444 23.7623 185.698 24.0725 186.443 24.6928C187.138 25.2787 187.494 27.0191 187.494 29.9312Z" fill="white"/>
<path d="M153.706 47.8691V59.845H157.332V55.2442V51.4361V50.4366C157.366 50.4711 157.383 50.5056 157.417 50.5745C157.468 50.6951 157.535 50.8157 157.603 50.9536L162.111 59.8623H163.144H163.737H164.771L169.278 50.9536C169.346 50.8157 169.414 50.6779 169.465 50.5745C169.498 50.5228 169.515 50.4711 169.549 50.4366V51.4361V55.2442V59.845H173.175V47.8691H166.669L165.449 50.5056L163.568 54.5894L163.449 54.8651L163.331 54.5894L161.45 50.5056L160.23 47.8691H153.706Z" fill="white"/>
<path d="M318.324 50.5746H317.765L315.8 54.7274H320.273L318.324 50.5746ZM314.935 47.8692H321.171L327 59.8451H322.764L321.645 57.829H314.461L313.343 59.8451H309.106L314.935 47.8692ZM296.228 50.7469H302.65C302.938 50.7469 303.176 50.8158 303.328 50.9364C303.481 51.0571 303.565 51.2638 303.565 51.5568C303.565 51.8325 303.481 52.0393 303.328 52.1599C303.176 52.2977 302.938 52.3494 302.667 52.3494H296.245V50.7469H296.228ZM292.602 47.8348V59.8279H303.565C304.87 59.8279 305.785 59.5866 306.344 59.0697C306.904 58.57 307.192 57.7084 307.192 56.5022C307.192 55.1065 306.649 54.1587 305.565 53.6762C305.904 53.5212 306.192 53.2282 306.429 52.7974C306.666 52.3666 306.785 51.8497 306.785 51.2294C306.785 49.7992 306.395 48.8514 305.633 48.3345C305.124 47.9899 304.294 47.8348 303.159 47.8348H292.602ZM296.228 55.0548H302.515C302.854 55.0548 303.108 55.1237 303.294 55.2615C303.481 55.3994 303.565 55.6579 303.565 56.037C303.565 56.6401 303.21 56.933 302.515 56.933H296.228V55.0548ZM276.318 50.9364V47.8348H290.349V50.9364H285.163V59.8451H281.537V50.9364H276.318ZM266.931 47.6797C270.286 47.6797 272.37 47.9726 273.15 48.5413C273.827 49.041 274.166 50.3333 274.166 52.47H270.523C270.523 51.7808 270.337 51.3328 269.981 51.1432C269.523 50.902 268.507 50.7986 266.931 50.7986C265.169 50.7986 264.118 50.9364 263.813 51.2121C263.508 51.4878 263.355 52.3666 263.355 53.8658C263.355 55.3477 263.508 56.2265 263.813 56.5022C264.118 56.7779 265.152 56.9158 266.931 56.9158C268.541 56.9158 269.54 56.8124 269.93 56.6228C270.32 56.4333 270.54 55.968 270.54 55.2443H274.166C274.166 57.381 273.844 58.6906 273.183 59.1731C272.404 59.7417 270.32 60.0347 266.931 60.0347C263.542 60.0347 261.492 59.7245 260.797 59.1042C260.085 58.4838 259.729 56.7262 259.729 53.8658C259.729 51.0226 260.068 49.2822 260.746 48.6791C261.475 48.0071 263.542 47.6797 266.931 47.6797ZM247.105 53.7969H252.341C252.765 53.7969 253.087 53.6935 253.307 53.5039C253.561 53.2799 253.697 52.9008 253.697 52.3494C253.697 51.8152 253.561 51.4361 253.307 51.1949C253.087 51.0054 252.765 50.902 252.341 50.902H247.105V53.7969ZM243.479 47.8348H252.341C254.273 47.8348 255.544 48.076 256.171 48.5585C256.933 49.1616 257.323 50.4195 257.323 52.3666C257.323 54.2966 256.95 55.5717 256.188 56.1576C255.561 56.6573 254.29 56.8985 252.341 56.8985H247.105V59.8279H243.479V47.8348ZM227.822 59.8279V47.8348H240.514V50.7297H231.449V52.4011H240.107V55.2788H231.449V56.9158H240.514V59.8106H227.822V59.8279ZM211.149 50.9364V47.8348H225.179V50.9364H219.994V59.8451H216.368V50.9364H211.149ZM201.744 47.6797C205.099 47.6797 207.184 47.9726 207.963 48.5413C208.641 49.041 208.98 50.3333 208.98 52.47H205.337C205.337 51.7808 205.15 51.3328 204.794 51.1432C204.337 50.902 203.32 50.7986 201.744 50.7986C199.982 50.7986 198.932 50.9364 198.627 51.2121C198.322 51.4878 198.169 52.3666 198.169 53.8658C198.169 55.3477 198.322 56.2265 198.627 56.5022C198.932 56.7779 199.965 56.9158 201.744 56.9158C203.354 56.9158 204.354 56.8124 204.761 56.6228C205.167 56.4333 205.354 55.968 205.354 55.2443H208.98C208.98 57.381 208.641 58.6906 207.997 59.1731C207.218 59.7417 205.133 60.0347 201.744 60.0347C198.355 60.0347 196.305 59.7245 195.61 59.1042C194.899 58.4838 194.543 56.7262 194.543 53.8658C194.543 51.0226 194.882 49.2822 195.56 48.6791C196.305 48.0071 198.372 47.6797 201.744 47.6797ZM184.461 50.5746H183.902L181.936 54.7274H186.409L184.461 50.5746ZM181.072 47.8692H187.307L193.136 59.8451H188.9L187.782 57.829H180.597L179.479 59.8451H175.243L181.072 47.8692Z" fill="white"/>
<path fill-rule="evenodd" clip-rule="evenodd" d="M112.53 60.0001H29.5008C13.2677 60.0001 0 46.5079 0 30.0001C0 17.1282 8.16738 5.6693 20.1304 1.56821C20.3168 1.49928 20.5201 1.43035 20.7065 1.37866L20.7912 1.3442C20.9946 1.27527 21.1979 1.22358 21.3843 1.15465L21.486 1.12019C21.6893 1.06849 21.8926 0.999567 22.096 0.947873L22.1637 0.930641C22.384 0.878947 22.6043 0.827252 22.8076 0.775558L22.8754 0.758327C23.0957 0.706632 23.316 0.654938 23.5532 0.603243L23.6041 0.586012C23.8243 0.534317 24.0616 0.499854 24.2818 0.44816H24.2988C24.536 0.413697 24.7563 0.362003 24.9935 0.32754H25.0274C25.2477 0.293077 25.468 0.258614 25.7052 0.224151H25.773C26.2474 0.155225 26.7219 0.120762 27.1963 0.0690675H27.2641C27.5014 0.0518361 27.7386 0.0346046 27.9758 0.0173731H27.9927C28.23 0.000141632 28.4841 0.000141632 28.6536 -0.0170898H28.7044H28.7722C29.0094 0.000141632 29.2636 0.000141632 29.5008 0.000141632H112.53C112.767 0.000141632 113.022 0.000141632 113.259 0.0173731H113.327H113.31C113.547 0.0173731 113.801 0.0346046 114.038 0.0518361H114.055C114.292 0.0690675 114.547 0.086299 114.784 0.10353H114.852C115.326 0.137993 115.801 0.189688 116.275 0.258614H116.343C116.563 0.293077 116.783 0.32754 117.021 0.362003H117.054C117.292 0.396466 117.512 0.430929 117.749 0.482623H117.766C117.986 0.517086 118.224 0.56878 118.444 0.620475L118.495 0.637706C118.715 0.689401 118.935 0.741095 119.173 0.79279L119.24 0.810021C119.461 0.861715 119.681 0.91341 119.884 0.965104L119.952 0.982336C120.155 1.03403 120.359 1.08572 120.562 1.15465L120.681 1.18911C120.884 1.24081 121.087 1.30973 121.274 1.37866L121.358 1.41312C121.562 1.48205 121.748 1.53374 121.935 1.60267C133.864 5.6693 142.048 17.1282 142.048 30.0001C142.048 46.5079 128.763 60.0001 112.53 60.0001Z" fill="white"/>
<path fill-rule="evenodd" clip-rule="evenodd" d="M23.2821 55.4508C12.0816 52.6076 3.71088 42.2515 3.71088 29.9999C3.71088 19.4715 9.89572 10.3561 18.7409 6.18604C18.5206 6.96145 18.3342 7.77133 18.1478 8.58121C17.775 10.1493 18.0292 10.8213 18.402 12.2687C18.5545 12.8718 19.2662 15.267 19.2492 15.715C17.9445 16.2664 18.4698 17.7484 19.0289 18.6961C19.4017 19.3337 19.7406 20.1435 20.3676 20.5571C20.8081 20.85 20.6726 20.5915 20.8251 21.2291C21.4012 23.5726 21.9943 25.8471 22.6043 28.1734C22.9093 29.3107 23.2651 30.4824 23.5024 31.6025C23.621 32.1022 23.5193 32.1539 23.2821 32.4296C22.7737 33.0327 21.7909 33.6013 22.6212 34.4112C22.9601 34.7386 23.3837 35.0832 23.7735 35.3934C24.0954 35.6519 24.6546 36.2033 24.9596 36.3928C25.4849 36.703 26.5016 36.5824 26.7049 36.8236C26.8574 36.9959 27.4335 38.0126 27.4335 38.2538C27.3827 38.3917 26.1796 39.2015 25.9085 39.3911C25.6374 39.5806 25.5696 39.5806 25.5018 39.9597C25.4171 40.4077 24.9088 40.5801 24.6377 40.9247C24.3496 41.2865 24.1124 41.6312 24.1124 42.2687C24.1124 44.0608 26.0949 46.4732 26.0102 47.8C25.8577 48.1791 25.2307 48.0413 25.8916 49.3336C26.0441 49.6266 26.0271 50.0574 26.1627 50.1952L26.1288 50.5399C26.0271 50.6777 25.9593 50.7294 25.9085 50.9189L25.5696 51.2636C25.5527 51.2636 25.5357 51.2636 25.5357 51.2636L25.451 51.3842L24.8579 51.9873C24.824 52.0045 24.7902 52.039 24.7563 52.0562L23.8751 52.6421C23.3668 52.935 23.0448 53.7621 23.4176 54.4686C23.5701 54.7788 23.4346 55.1234 23.2821 55.4508ZM31.3817 34.5318C31.2969 34.0321 30.3142 31.6542 29.9922 30.4652C29.8905 30.0861 29.8228 29.7587 29.7211 29.3796C29.5855 28.8282 29.5855 28.7937 29.2636 28.5008C28.6705 27.9494 27.7385 27.0706 27.3997 26.3296C27.1624 25.7955 27.1963 25.9678 26.7219 25.6576C25.7899 25.0373 25.2477 24.5548 24.5529 23.7966C24.3496 23.5726 24.1463 23.2969 23.9429 23.0556C23.621 22.6938 23.4685 22.8661 23.1126 22.5387C22.9093 22.3664 22.689 22.0735 22.4179 21.9356C22.4179 22.3319 22.8076 23.6588 22.9432 24.1068L24.6546 30.4996C24.7732 30.9477 24.7902 31.2751 25.1629 31.344C25.6205 31.4301 25.8577 31.3268 26.3491 31.4991C27.4844 31.8954 27.8572 32.7914 29.5855 33.6358C30.0261 33.9115 30.9242 34.4112 31.3817 34.5318ZM54.8671 56.2262H29.5008C28.5858 56.2262 27.6877 56.1745 26.7896 56.0884C28.9755 55.3647 31.2122 54.0723 30.7717 52.9695C30.5175 52.3319 30.5683 52.5732 30.8564 52.039C31.0428 51.7116 30.9581 51.2808 30.8394 50.9534C30.7039 50.5915 30.653 50.1952 30.4497 50.0746L30.3311 47.7139C30.3311 47.6794 30.3311 47.6622 30.3311 47.6277C30.3311 47.5588 30.3142 47.4726 30.2803 47.4037C30.0939 46.904 30.365 45.9218 29.8397 44.8535C29.2127 43.5783 30.2633 44.2159 31.4664 43.5094C32.6356 42.8202 34.652 40.9936 36.0415 41.6139C37.0921 42.0792 39.3118 43.5956 40.1082 44.4399C40.7182 45.0775 40.9893 44.595 41.6333 45.267C41.8366 45.4738 41.9891 45.6289 42.1924 45.8357C42.7855 46.456 43.1074 47.128 44.0564 47.4554C45.5475 47.9724 45.8525 47.869 47.3775 48.7133C47.9706 49.0407 48.2756 49.2992 48.7162 49.6783C49.1737 50.0746 49.5634 50.2469 50.0887 50.6088C51.6476 51.6944 51.8509 52.6421 52.0373 53.0556V53.0729L52.3932 53.8483C52.4271 54.0206 52.5626 54.1757 52.749 54.4514C53.6132 55.6748 53.8504 54.5376 54.3249 55.4508C54.4943 55.7093 54.6807 55.985 54.8671 56.2262Z" fill="#006AB3"/>
<path fill-rule="evenodd" clip-rule="evenodd" d="M112.53 56.2265H56.3074C56.2905 54.9686 55.7652 53.9003 55.7652 53.4695C56.1041 53.1938 56.1719 52.9181 56.1719 52.3667C56.1719 51.4534 55.9177 51.2122 55.4941 50.7125C55.3755 50.5746 55.3077 50.4712 55.1891 50.3851L53.6132 48.8342C53.4438 47.7659 52.2407 47.852 52.1729 47.1972C52.1051 46.6286 52.156 46.8182 51.8679 46.4735C51.4612 46.0083 50.3429 44.9399 49.682 44.7159L47.9876 43.6993C47.9706 43.458 47.9537 43.4063 47.7842 43.234C47.6487 43.1134 47.547 42.9755 47.3945 42.8377C46.4625 41.9933 46.9878 42.4758 46.7506 41.9072L45.5306 40.9594C45.412 40.7354 45.2086 40.6321 45.0392 40.4425C44.2597 39.6154 43.2939 38.4609 42.9889 37.3064C42.8702 36.8928 43.1244 36.7377 42.9719 36.4276C42.8872 36.2725 42.5822 36.014 42.3619 35.9796V35.0835C42.5314 34.7734 42.6669 34.3426 42.7516 33.6361C42.8194 33.0502 42.9041 31.3098 42.6669 30.8446L41.8536 29.2593C41.8366 29.0008 41.7349 28.7596 41.5147 28.5873C41.4808 28.57 41.4638 28.5528 41.4299 28.5356V28.5528L40.8538 28.3115C40.8708 28.2254 40.8708 28.122 40.8708 28.0186L40.8369 28.0531L40.7691 26.5712C40.803 26.2782 40.7522 25.9508 40.7013 25.6751C40.6674 25.3994 40.5319 25.0548 40.3455 24.848L39.0746 23.4523C38.6849 22.6941 38.041 21.867 37.2276 21.574C36.6007 21.35 36.3296 21.419 35.8212 21.6947C35.4823 21.8842 35.4993 21.5396 35.1604 21.6257C35.0587 21.6602 34.7537 21.9531 34.669 22.0221C34.4826 22.1944 34.3301 22.3322 34.2284 22.5218L32.9067 22.5907C32.6695 22.4184 32.2459 22.3839 31.9239 22.3667C30.8395 22.3322 30.1447 22.0221 29.6194 21.7291L26.3152 19.713C26.2474 19.5407 26.1797 19.5235 25.9594 19.3856C24.536 18.5585 24.4174 18.4379 23.2652 17.0249C22.7907 16.4391 22.5196 16.0427 21.791 15.6464C20.4693 14.9399 20.8421 15.9221 20.3507 14.2334C19.5543 11.4592 19.4018 9.80494 20.4693 7.04791C20.6387 6.58266 21.0284 5.66939 21.2996 5.13521C23.8752 4.25641 26.6202 3.77393 29.4839 3.77393H30.8056H111.208H112.53C126.713 3.77393 138.32 15.5775 138.32 30.0002C138.32 44.423 126.73 56.2265 112.53 56.2265Z" fill="#E63212"/>
<path d="M53.9352 34.2046H64.6782V21.3154H69.931V34.2046H74.9975L71.0324 38.6848H65.2543H65.2373H56.9514H48.6823V21.3154H53.9352V34.2046Z" fill="white"/>
<path d="M73.5403 21.3154L81.3518 29.8105L73.5403 38.6848H80.6232L85.7575 32.8605L90.8917 38.6848H97.9577L90.1461 29.8105L97.9577 21.3154H90.6714L85.7575 26.9157L80.8265 21.3154H73.5403Z" fill="white"/>
<path d="M99.8894 21.3154V38.6848H105.142V32.0162V26.5021V25.0374C105.176 25.0719 105.227 25.1408 105.261 25.227C105.346 25.3821 105.43 25.5716 105.515 25.7784L112.056 38.702H113.547H114.411H115.919L122.46 25.7784C122.561 25.5716 122.646 25.3821 122.714 25.227C122.748 25.1408 122.799 25.0719 122.833 25.0374V26.5021V32.0162V38.6848H128.085V21.3154H118.647L116.919 25.1408L114.191 31.0512L114.004 31.4475L113.818 31.0512L111.09 25.1408L109.328 21.3154H99.8894Z" fill="white"/>
</g>
<defs>
<clipPath id="clip0_89_2877">
<rect width="327" height="60" fill="white"/>
</clipPath>
</defs>
</svg>
