<svg width="93" height="40" viewBox="0 0 93 40" fill="none" xmlns="http://www.w3.org/2000/svg">
<g clip-path="url(#clip0_89_1245)">
<path fill-rule="evenodd" clip-rule="evenodd" d="M73.2189 39.2411H19.195C8.6328 39.2411 0 30.6084 0 20.0461C0 11.8102 5.31419 4.47843 13.098 1.85441C13.2193 1.81031 13.3516 1.76621 13.4729 1.73314L13.528 1.71109C13.6603 1.66698 13.7926 1.63391 13.9139 1.58981L13.9801 1.56776C14.1124 1.53468 14.2447 1.49058 14.377 1.4575L14.4211 1.44648C14.5644 1.4134 14.7077 1.38033 14.84 1.34725L14.8841 1.33623C15.0275 1.30315 15.1708 1.27007 15.3251 1.237L15.3582 1.22597C15.5016 1.1929 15.6559 1.17085 15.7992 1.13777H15.8103C15.9646 1.11572 16.1079 1.08264 16.2623 1.06059H16.2843C16.4277 1.03854 16.571 1.01649 16.7254 0.994442H16.7695C17.0782 0.950341 17.3869 0.92829 17.6956 0.895214H17.7397C17.894 0.884189 18.0484 0.873164 18.2027 0.862138H18.2138C18.3681 0.851113 18.5335 0.851113 18.6438 0.840088H18.6768H18.7209C18.8753 0.851113 19.0407 0.851113 19.195 0.851113H73.2189C73.3733 0.851113 73.5387 0.851113 73.693 0.862138H73.7371H73.7261C73.8804 0.862138 74.0458 0.873164 74.2002 0.884189H74.2112C74.3656 0.895214 74.5309 0.90624 74.6853 0.917265H74.7294C75.0381 0.939315 75.3468 0.972391 75.6555 1.01649H75.6996C75.8429 1.03854 75.9863 1.06059 76.1406 1.08264H76.1627C76.317 1.10469 76.4604 1.12675 76.6147 1.15982H76.6257C76.7691 1.18187 76.9234 1.21495 77.0668 1.24802L77.0998 1.25905C77.2432 1.29212 77.3865 1.3252 77.5408 1.35828L77.5849 1.3693C77.7283 1.40238 77.8716 1.43545 78.0039 1.46853L78.048 1.47955C78.1803 1.51263 78.3126 1.54571 78.4449 1.58981L78.5221 1.61186C78.6544 1.64493 78.7867 1.68903 78.908 1.73314L78.9631 1.75519C79.0954 1.79929 79.2167 1.83236 79.338 1.87646C87.0998 4.47843 92.425 11.8102 92.425 20.0461C92.425 30.6084 83.7812 39.2411 73.2189 39.2411Z" fill="white"/>
<path fill-rule="evenodd" clip-rule="evenodd" d="M15.1488 36.3304C7.86104 34.5112 2.41455 27.885 2.41455 20.046C2.41455 13.3096 6.43878 7.4772 12.194 4.80908C12.0507 5.30522 11.9294 5.82341 11.8081 6.3416C11.5655 7.3449 11.7309 7.77488 11.9735 8.70101C12.0727 9.08689 12.5358 10.6194 12.5247 10.9061C11.6758 11.2589 12.0176 12.207 12.3814 12.8134C12.624 13.2214 12.8445 13.7396 13.2524 14.0042C13.5391 14.1916 13.4509 14.0262 13.5501 14.4342C13.9249 15.9336 14.3108 17.3889 14.7077 18.8773C14.9062 19.605 15.1377 20.3547 15.2921 21.0714C15.3693 21.3911 15.3031 21.4242 15.1488 21.6006C14.818 21.9865 14.1785 22.3503 14.7188 22.8685C14.9393 23.078 15.2149 23.2985 15.4685 23.4969C15.678 23.6623 16.0418 24.0151 16.2403 24.1364C16.582 24.3349 17.2436 24.2577 17.3759 24.412C17.4751 24.5223 17.85 25.1728 17.85 25.3271C17.8169 25.4153 17.0341 25.9335 16.8577 26.0548C16.6813 26.1761 16.6372 26.1761 16.5931 26.4186C16.5379 26.7053 16.2072 26.8156 16.0308 27.0361C15.8433 27.2676 15.689 27.4881 15.689 27.896C15.689 29.0427 16.979 30.5862 16.9238 31.4352C16.8246 31.6777 16.4167 31.5895 16.8467 32.4164C16.9459 32.6038 16.9349 32.8795 17.0231 32.9677L17.001 33.1882C16.9349 33.2764 16.8908 33.3094 16.8577 33.4307L16.6372 33.6512C16.6261 33.6512 16.6151 33.6512 16.6151 33.6512L16.56 33.7284L16.1741 34.1143C16.1521 34.1253 16.13 34.1474 16.108 34.1584L15.5346 34.5333C15.2039 34.7207 14.9944 35.2499 15.237 35.7019C15.3362 35.9004 15.248 36.1209 15.1488 36.3304ZM20.4188 22.9457C20.3637 22.6259 19.7242 21.1045 19.5148 20.3437C19.4486 20.1012 19.4045 19.8917 19.3384 19.6491C19.2502 19.2963 19.2502 19.2743 19.0407 19.0868C18.6548 18.734 18.0484 18.1717 17.8279 17.6976C17.6735 17.3559 17.6956 17.4661 17.3869 17.2677C16.7805 16.8707 16.4277 16.562 15.9757 16.0769C15.8433 15.9336 15.711 15.7572 15.5787 15.6028C15.3693 15.3713 15.27 15.4816 15.0385 15.2721C14.9062 15.1618 14.7629 14.9744 14.5865 14.8862C14.5865 15.1398 14.84 15.9887 14.9283 16.2754L16.0418 20.3658C16.119 20.6524 16.13 20.8619 16.3726 20.906C16.6702 20.9611 16.8246 20.895 17.1443 21.0052C17.883 21.2588 18.1256 21.8321 19.2502 22.3724C19.5368 22.5488 20.1212 22.8685 20.4188 22.9457ZM35.6999 36.8265H19.195C18.5997 36.8265 18.0153 36.7934 17.431 36.7383C18.8533 36.2752 20.3086 35.4484 20.0219 34.7427C19.8566 34.3348 19.8896 34.4892 20.0771 34.1474C20.1983 33.9379 20.1432 33.6623 20.066 33.4528C19.9778 33.2212 19.9448 32.9677 19.8125 32.8905L19.7353 31.38C19.7353 31.358 19.7353 31.3469 19.7353 31.3249C19.7353 31.2808 19.7242 31.2257 19.7022 31.1816C19.5809 30.8618 19.7573 30.2334 19.4155 29.5498C19.0076 28.734 19.6912 29.1419 20.474 28.6899C21.2347 28.2488 22.5467 27.0802 23.4508 27.4771C24.1344 27.7748 25.5787 28.745 26.0969 29.2852C26.4938 29.6932 26.6702 29.3844 27.0891 29.8144C27.2214 29.9467 27.3207 30.046 27.453 30.1783C27.8389 30.5752 28.0483 31.0052 28.6658 31.2146C29.636 31.5454 29.8344 31.4793 30.8267 32.0195C31.2126 32.229 31.4111 32.3944 31.6977 32.6369C31.9954 32.8905 32.249 33.0007 32.5908 33.2323C33.6051 33.9269 33.7374 34.5333 33.8587 34.7979V34.8089L34.0902 35.305C34.1122 35.4153 34.2004 35.5145 34.3217 35.6909C34.884 36.4737 35.0384 35.746 35.3471 36.3304C35.4573 36.4958 35.5786 36.6722 35.6999 36.8265Z" fill="#006AB3"/>
<path fill-rule="evenodd" clip-rule="evenodd" d="M73.2189 36.8266H36.637C36.626 36.0217 36.2842 35.3382 36.2842 35.0625C36.5047 34.8861 36.5488 34.7097 36.5488 34.3569C36.5488 33.7726 36.3835 33.6182 36.1078 33.2985C36.0306 33.2103 35.9865 33.1441 35.9094 33.089L34.884 32.0967C34.7738 31.4132 33.991 31.4683 33.9469 31.0493C33.9028 30.6855 33.9358 30.8068 33.7484 30.5863C33.4838 30.2886 32.7561 29.605 32.3261 29.4617L31.2236 28.8112C31.2126 28.6569 31.2016 28.6238 31.0913 28.5135C31.0031 28.4364 30.937 28.3482 30.8377 28.2599C30.2313 27.7197 30.5731 28.0284 30.4188 27.6646L29.625 27.0582C29.5478 26.9149 29.4155 26.8487 29.3052 26.7274C28.7981 26.1982 28.1696 25.4595 27.9712 24.7208C27.894 24.4562 28.0594 24.357 27.9601 24.1585C27.905 24.0593 27.7066 23.8939 27.5632 23.8719V23.2986C27.6735 23.1001 27.7617 22.8245 27.8168 22.3724C27.8609 21.9976 27.916 20.884 27.7617 20.5863L27.2325 19.572C27.2214 19.4066 27.1553 19.2523 27.012 19.142C26.9899 19.131 26.9789 19.12 26.9568 19.109V19.12L26.582 18.9656C26.593 18.9105 26.593 18.8444 26.593 18.7782L26.5709 18.8003L26.5268 17.8521C26.5489 17.6646 26.5158 17.4552 26.4827 17.2788C26.4607 17.1024 26.3725 16.8819 26.2512 16.7495L25.4243 15.8565C25.1707 15.3714 24.7518 14.8422 24.2226 14.6547C23.8146 14.5114 23.6382 14.5555 23.3075 14.7319C23.087 14.8532 23.098 14.6327 22.8775 14.6878C22.8113 14.7099 22.6129 14.8973 22.5577 14.9414C22.4365 15.0517 22.3372 15.1399 22.2711 15.2611L21.4111 15.3052C21.2568 15.195 20.9811 15.1729 20.7716 15.1619C20.066 15.1399 19.614 14.9414 19.2722 14.754L17.1223 13.464C17.0782 13.3538 17.0341 13.3427 16.8907 13.2545C15.9646 12.7253 15.8874 12.6481 15.1377 11.7441C14.829 11.3692 14.6526 11.1156 14.1785 10.862C13.3186 10.41 13.5611 11.0385 13.2414 9.95797C12.7232 8.1829 12.624 7.12448 13.3186 5.36043C13.4288 5.06275 13.6824 4.47841 13.8588 4.13662C15.5346 3.57433 17.3207 3.26562 19.184 3.26562H20.044H72.359H73.2189C82.4471 3.26562 89.9994 10.8179 89.9994 20.0461C89.9994 29.2743 82.4581 36.8266 73.2189 36.8266Z" fill="#E63212"/>
<path d="M35.0935 22.7363H42.0835V14.4894H45.5014V22.7363H48.7979L46.218 25.6029H42.4584H42.4474H37.056H31.6757V14.4894H35.0935V22.7363Z" fill="white"/>
<path d="M47.8497 14.4894L52.9324 19.9248L47.8497 25.6029H52.4583L55.799 21.8763L59.1396 25.6029H63.7372L58.6545 19.9248L63.7372 14.4894H58.9963L55.799 18.0726L52.5906 14.4894H47.8497Z" fill="white"/>
<path d="M64.994 14.4894V25.6029H68.4119V21.3361V17.808V16.8708C68.4339 16.8929 68.467 16.937 68.4891 16.9921C68.5442 17.0913 68.5993 17.2126 68.6544 17.3449L72.9102 25.6139H73.8804H74.4427H75.424L79.6797 17.3449C79.7459 17.2126 79.801 17.0913 79.8451 16.9921C79.8672 16.937 79.9002 16.8929 79.9223 16.8708V17.808V21.3361V25.6029H83.3401V14.4894H77.199L76.0745 16.937L74.2994 20.7187L74.1781 20.9722L74.0568 20.7187L72.2818 16.937L71.1351 14.4894H64.994Z" fill="white"/>
</g>
<defs>
<clipPath id="clip0_89_1245">
<rect width="92.766" height="40" fill="white"/>
</clipPath>
</defs>
</svg>
