<svg width="34" height="22" viewBox="0 0 34 22" fill="none" xmlns="http://www.w3.org/2000/svg">
<g clip-path="url(#clip0_149_2464)">
<path d="M21.5962 2.59607H12.4038V19.4025H21.5962V2.59607Z" fill="#FF5F00"/>
<path d="M12.9865 11C12.9867 9.38343 13.3466 7.78786 14.0393 6.33275C14.7319 4.87765 15.7393 3.60072 16.9861 2.59759C15.141 1.11496 12.8577 0.309297 10.506 0.31116C9.1257 0.310747 7.75885 0.586986 6.48362 1.12408C5.20839 1.66118 4.04978 2.4486 3.07404 3.44131C2.09831 4.43403 1.32459 5.61257 0.797119 6.90956C0.269651 8.20654 -0.00121841 9.59652 2.79396e-07 11C2.79396e-07 16.9086 4.69818 21.6889 10.506 21.6889C12.9586 21.6889 15.2042 20.8277 16.9861 19.4024C15.737 18.4014 14.728 17.1249 14.0351 15.6693C13.3422 14.2138 12.9837 12.6171 12.9865 11Z" fill="#EB001B"/>
<path d="M34 11C34 16.9086 29.3018 21.6889 23.494 21.6889C21.1423 21.6907 18.859 20.8851 17.0139 19.4024C18.2654 18.4036 19.2762 17.1276 19.9693 15.6715C20.6624 14.2154 21.0195 12.6177 21.0135 11C21.0133 9.38343 20.6534 7.78786 19.9607 6.33275C19.2681 4.87765 18.2607 3.60072 17.0139 2.59759C18.859 1.11496 21.1423 0.309297 23.494 0.31116C29.3018 0.31116 34 5.11973 34 11Z" fill="#F79E1B"/>
</g>
<defs>
<clipPath id="clip0_149_2464">
<rect width="34" height="22" fill="white"/>
</clipPath>
</defs>
</svg>
