<svg width="25" height="25" viewBox="0 0 25 25" fill="none" xmlns="http://www.w3.org/2000/svg">
<path d="M5.09235 13.8952H16.2623L11.3823 18.7752C10.9923 19.1652 10.9923 19.8052 11.3823 20.1952C11.7723 20.5852 12.4023 20.5852 12.7923 20.1952L19.3823 13.6052C19.4751 13.5127 19.5486 13.4028 19.5988 13.2819C19.649 13.1609 19.6748 13.0312 19.6748 12.9002C19.6748 12.7693 19.649 12.6396 19.5988 12.5186C19.5486 12.3976 19.4751 12.2878 19.3823 12.1952L12.8023 5.59524C12.7098 5.50266 12.5999 5.42922 12.4789 5.37912C12.3579 5.32901 12.2283 5.30322 12.0973 5.30322C11.9664 5.30322 11.8368 5.32901 11.7158 5.37912C11.5948 5.42922 11.4849 5.50266 11.3923 5.59524C11.2998 5.68782 11.2263 5.79774 11.1762 5.9187C11.1261 6.03966 11.1003 6.16931 11.1003 6.30024C11.1003 6.43117 11.1261 6.56082 11.1762 6.68179C11.2263 6.80275 11.2998 6.91266 11.3923 7.00524L16.2623 11.8952H5.09235C4.54235 11.8952 4.09235 12.3452 4.09235 12.8952C4.09235 13.4452 4.54235 13.8952 5.09235 13.8952Z" fill="#006AB3"/>
</svg>
