<svg width="28" height="51" viewBox="0 0 28 51" fill="none" xmlns="http://www.w3.org/2000/svg">
<path d="M0.611141 47.4958C0.219553 47.8825 0 48.4039 0 48.9471C0 49.4904 0.219553 50.0118 0.611141 50.3985C0.803698 50.589 1.03322 50.7403 1.28636 50.8436C1.53949 50.9468 1.81117 51 2.0856 51C2.36003 51 2.63172 50.9468 2.88485 50.8436C3.13799 50.7403 3.36751 50.589 3.56007 50.3985L27.3889 26.9514C27.7805 26.5646 28 26.0432 28 25.5C28 24.9568 27.7805 24.4354 27.3889 24.0486L3.56007 0.601487C3.36751 0.410987 3.13799 0.259703 2.88485 0.156441C2.63172 0.0531787 2.36003 0 2.0856 0C1.81117 0 1.53949 0.0531787 1.28636 0.156441C1.03322 0.259703 0.803698 0.410987 0.611141 0.601487C0.219553 0.988213 0 1.50961 0 2.05285C0 2.59609 0.219553 3.11749 0.611141 3.50421L22.3431 25.5015L0.611141 47.4958Z" fill="white"/>
</svg>
