<svg width="24" height="44" viewBox="0 0 24 44" fill="none" xmlns="http://www.w3.org/2000/svg">
<path d="M0.523834 40.7107C0.188187 41.0422 0 41.4891 0 41.9547C0 42.4203 0.188187 42.8672 0.523834 43.1987C0.688885 43.362 0.88562 43.4917 1.10259 43.5802C1.31956 43.6687 1.55243 43.7143 1.78766 43.7143C2.02288 43.7143 2.25576 43.6687 2.47273 43.5802C2.6897 43.4917 2.88644 43.362 3.05149 43.1987L23.4762 23.1012C23.8118 22.7697 24 22.3228 24 21.8571C24 21.3915 23.8118 20.9446 23.4762 20.6131L3.05149 0.51556C2.88644 0.352275 2.6897 0.222603 2.47273 0.134092C2.25576 0.0455818 2.02288 0 1.78766 0C1.55243 0 1.31956 0.0455818 1.10259 0.134092C0.88562 0.222603 0.688885 0.352275 0.523834 0.51556C0.188187 0.84704 0 1.29395 0 1.75959C0 2.22522 0.188187 2.67213 0.523834 3.00361L19.1512 21.8584L0.523834 40.7107Z" fill="#C8E5F5"/>
</svg>
