<svg width="21" height="20" viewBox="0 0 21 20" fill="none" xmlns="http://www.w3.org/2000/svg">
<g clip-path="url(#clip0_203_488)">
<path d="M15.7263 14.6164C14.8456 14.2593 14.039 13.7763 13.3338 13.1839C12.9901 12.8895 12.4435 12.81 12.0922 12.9525L9.95939 13.4696C8.50625 11.7471 7.83834 10.1689 7.6365 7.97996L9.48646 6.94712C9.92412 6.77657 10.2241 6.38985 10.2697 5.93133C10.3454 5.02968 10.5721 4.1433 10.944 3.29686C11.2126 2.6854 10.9134 1.97797 10.2769 1.71989L7.63523 0.648707C6.99877 0.390633 6.2624 0.678129 5.99377 1.28957C2.91454 8.29827 6.34461 16.4068 13.64 19.365C14.2765 19.6231 15.0129 19.3356 15.2815 18.7241L16.3934 16.1933C16.662 15.5819 16.3627 14.8745 15.7263 14.6164Z" fill="#E63212"/>
</g>
<defs>
<clipPath id="clip0_203_488">
<rect width="15.5224" height="15.0944" fill="white" transform="matrix(0.926712 0.375772 -0.402235 0.915536 6.48096 0.180664)"/>
</clipPath>
</defs>
</svg>
