<svg width="52" height="52" viewBox="0 0 52 52" fill="none" xmlns="http://www.w3.org/2000/svg">
<path d="M26.6344 7.83118C26.44 7.83083 26.2479 7.8741 26.0725 7.95779C25.897 8.04149 25.7425 8.16348 25.6204 8.31478L25.389 8.48638C20.904 7.09798 15.7872 8.11718 12.2252 11.5492C10.7336 12.9646 9.62389 14.7341 8.99933 16.6932C8.37476 18.6524 8.25556 20.7376 8.6528 22.7552C8.60865 22.7941 8.56531 22.834 8.5228 22.8748L6.4974 24.8248C6.1056 25.1965 5.79359 25.644 5.58037 26.1402C5.36715 26.6363 5.25719 27.1707 5.25719 27.7108C5.25719 28.2508 5.36715 28.7852 5.58037 29.2814C5.79359 29.7775 6.1056 30.2251 6.4974 30.5968C7.5322 31.5952 8.9674 31.9696 10.3012 31.72C10.465 32.4714 10.8472 33.1864 11.453 33.7688C12.2512 34.5384 13.2886 34.9362 14.3338 34.9648C14.3624 35.971 14.7758 36.9694 15.574 37.739C16.3722 38.5086 17.4122 38.909 18.4574 38.935C18.4834 39.9412 18.8994 40.9422 19.6976 41.7118C20.4618 42.437 21.4628 42.8608 22.5154 42.9048C23.5679 42.9487 24.6008 42.6099 25.4228 41.951L26.559 43.043C28.223 44.6472 30.9218 44.6472 32.5858 43.043C33.3814 42.2786 33.7948 41.2854 33.8312 40.2818C34.8999 40.2542 35.9199 39.8286 36.6912 39.0884C37.4868 38.3214 37.9002 37.3282 37.9314 36.3246C38.9881 36.2875 39.9941 35.8627 40.7576 35.1312C41.3894 34.5254 41.7794 33.774 41.9302 32.9888C42.5994 33.1061 43.2869 33.0647 43.9372 32.8678C44.5875 32.6709 45.1824 32.3241 45.6742 31.8552C46.0664 31.4835 46.3788 31.0358 46.5922 30.5393C46.8057 30.0429 46.9158 29.5082 46.9158 28.9679C46.9158 28.4275 46.8057 27.8928 46.5922 27.3964C46.3788 26.9 46.0664 26.4523 45.6742 26.0806L43.8022 24.2788L44.1844 22.8488C44.9575 19.9253 44.5661 16.8158 43.0924 14.1752C40.9188 10.2596 36.7016 7.84158 32.1412 7.84158H28.9432C28.8055 7.83475 28.6677 7.83129 28.5298 7.83118H26.6344ZM33.0122 17.4928L39.2652 23.517L39.273 23.5222L43.7996 27.885C43.9466 28.0244 44.0637 28.1924 44.1438 28.3785C44.2238 28.5647 44.2651 28.7652 44.2651 28.9679C44.2651 29.1705 44.2238 29.3711 44.1438 29.5572C44.0637 29.7434 43.9466 29.9113 43.7996 30.0508C43.4959 30.3384 43.0934 30.4987 42.6751 30.4987C42.2568 30.4987 41.8543 30.3384 41.5506 30.0508L38.116 26.7436C37.8642 26.502 37.5289 26.3672 37.18 26.3672C36.8311 26.3672 36.4957 26.502 36.244 26.7436L36.2076 26.7748C36.085 26.8909 35.9874 27.0308 35.9207 27.1859C35.854 27.341 35.8195 27.5081 35.8195 27.677C35.8195 27.8458 35.854 28.0129 35.9207 28.168C35.9874 28.3232 36.085 28.463 36.2076 28.5792L38.8856 31.1584C39.5096 31.7564 39.5096 32.7288 38.8856 33.3294C38.6094 33.5911 38.2508 33.7484 37.8713 33.7745C37.4917 33.8006 37.115 33.6938 36.8056 33.4724C36.5474 33.2858 36.232 33.1957 35.9143 33.2175C35.5965 33.2394 35.2964 33.3719 35.0662 33.592C34.8412 33.8071 34.7053 34.099 34.6856 34.4097C34.6658 34.7203 34.7637 35.0271 34.9596 35.269C35.193 35.5613 35.3081 35.9307 35.2821 36.3038C35.2561 36.677 35.0909 37.0268 34.8192 37.284C34.5391 37.5496 34.1743 37.7077 33.789 37.7306C33.4037 37.7534 33.0227 37.6394 32.7132 37.4088C32.4563 37.2161 32.1396 37.1203 31.819 37.1384C31.4983 37.1565 31.1944 37.2872 30.9608 37.5076C30.7329 37.7224 30.5946 38.0155 30.5739 38.328C30.5532 38.6405 30.6514 38.9493 30.849 39.1924C31.0879 39.4886 31.2063 39.864 31.1808 40.2437C31.1553 40.6234 30.9876 40.9796 30.7112 41.2412C30.4035 41.5332 29.9954 41.6961 29.5711 41.6961C29.1468 41.6961 28.7387 41.5332 28.431 41.2412L27.3052 40.157L27.716 39.7618C28.1082 39.3901 28.4206 38.9424 28.634 38.4459C28.8475 37.9495 28.9576 37.4148 28.9576 36.8745C28.9576 36.3341 28.8475 35.7994 28.634 35.303C28.4206 34.8066 28.1082 34.3589 27.716 33.9872C26.939 33.2425 25.9112 32.8158 24.8352 32.7912C24.8036 31.7384 24.358 30.7405 23.595 30.0144C22.8169 29.27 21.7881 28.8442 20.7116 28.821C20.68 27.7682 20.2344 26.7703 19.4714 26.0442C18.9719 25.5688 18.3664 25.2192 17.7049 25.0243C17.0434 24.8294 16.3451 24.7949 15.6676 24.9236C15.4962 24.1412 15.0952 23.4278 14.5158 22.8748C14.0717 22.451 13.5424 22.1265 12.9633 21.923C12.3841 21.7195 11.7682 21.6415 11.1566 21.6944C10.9518 20.1708 11.1113 18.6204 11.622 17.1705C12.1327 15.7205 12.9801 14.4124 14.0946 13.3536C15.2208 12.2777 16.571 11.4642 18.0485 10.9716C19.5261 10.4789 21.0943 10.3192 22.6408 10.504L18.8578 13.286C18.3738 13.6377 17.966 14.0838 17.6592 14.5975C17.3524 15.1112 17.1529 15.6817 17.0727 16.2746C16.9925 16.8675 17.0333 17.4705 17.1927 18.0472C17.352 18.6239 17.6266 19.1623 17.9998 19.63C18.7546 20.5764 19.8452 21.1953 21.0447 21.358C22.2443 21.5208 23.4604 21.2147 24.44 20.5036L28.5376 17.4954H33.0096L33.0122 17.4928ZM20.397 15.379L27.1362 10.4312H28.5298C28.6573 10.4305 28.7847 10.434 28.912 10.4416H32.1412C35.7916 10.4416 39.1222 12.3786 40.82 15.4388C41.9692 17.5084 42.2708 19.9134 41.6702 22.1832L41.6624 22.2092L34.4864 15.275C34.2432 15.031 33.9131 14.8935 33.5686 14.8928H28.1086C27.8326 14.8933 27.564 14.9816 27.3416 15.145L22.9008 18.4054C22.4646 18.7177 21.9255 18.8516 21.3939 18.7796C20.8622 18.7076 20.3782 18.4351 20.0408 18.018C19.8836 17.8243 19.7676 17.6005 19.7002 17.3603C19.6327 17.1201 19.6151 16.8687 19.6485 16.6215C19.6819 16.3743 19.7655 16.1365 19.8942 15.9228C20.0229 15.7091 20.194 15.524 20.397 15.379ZM21.5462 37.765L21.5722 37.739L23.595 35.789L23.6184 35.7682C23.9238 35.4905 24.323 35.3385 24.7358 35.3429C25.1486 35.3472 25.5445 35.5075 25.844 35.7916C25.991 35.931 26.1081 36.0989 26.1882 36.2851C26.2682 36.4713 26.3095 36.6718 26.3095 36.8745C26.3095 37.0771 26.2682 37.2777 26.1882 37.4638C26.1081 37.65 25.991 37.8179 25.844 37.9574L23.8186 39.9074C23.5149 40.195 23.1124 40.3553 22.6941 40.3553C22.2758 40.3553 21.8733 40.195 21.5696 39.9074C21.4245 39.77 21.3084 39.6049 21.2283 39.4218C21.1482 39.2388 21.1057 39.0415 21.1033 38.8417C21.1009 38.6419 21.1386 38.4436 21.2142 38.2587C21.2899 38.0737 21.4045 37.9058 21.5462 37.765ZM21.7464 33.9638L21.7204 33.9872L19.6976 35.9372L19.6716 35.9606C19.366 36.2372 18.9672 36.3882 18.555 36.3834C18.1428 36.3786 17.7477 36.2183 17.4486 35.9346C17.3032 35.7966 17.1871 35.6308 17.1072 35.4469C17.0273 35.2631 16.9852 35.0651 16.9835 34.8646C16.9818 34.6642 17.0205 34.4655 17.0973 34.2803C17.1741 34.0952 17.2874 33.9274 17.4304 33.787L17.4486 33.7688L19.4714 31.8188L19.4896 31.8006C19.7947 31.5207 20.1946 31.3669 20.6086 31.3703C21.0226 31.3736 21.4199 31.5339 21.7204 31.8188C21.8659 31.9562 21.9823 32.1215 22.0626 32.3048C22.143 32.4881 22.1856 32.6856 22.1881 32.8858C22.1905 33.0859 22.1526 33.2845 22.0768 33.4696C22.0009 33.6548 21.8885 33.8229 21.7464 33.9638ZM17.5994 30.0144L15.574 31.9644L15.5558 31.9826C15.2507 32.2625 14.8508 32.4163 14.4368 32.4129C14.0228 32.4095 13.6255 32.2492 13.325 31.9644C13.178 31.8249 13.0609 31.657 12.9808 31.4708C12.9008 31.2846 12.8595 31.0841 12.8595 30.8815C12.8595 30.6788 12.9008 30.4783 12.9808 30.2921C13.0609 30.1059 13.178 29.938 13.325 29.7986L15.3478 27.8486C15.6517 27.5602 16.0546 27.3994 16.4736 27.3994C16.8925 27.3994 17.2955 27.5602 17.5994 27.8486C17.7452 27.9866 17.8617 28.1526 17.9418 28.3367C18.0219 28.5207 18.0641 28.7191 18.0658 28.9198C18.0675 29.1206 18.0287 29.3196 17.9517 29.505C17.8747 29.6904 17.761 29.8583 17.6176 29.9988L17.5994 30.0144ZM12.6438 26.845L10.621 28.795C10.3174 29.084 9.91433 29.2451 9.4952 29.2451C9.07606 29.2451 8.67298 29.084 8.3694 28.795C8.22195 28.6555 8.1045 28.4874 8.02423 28.301C7.94396 28.1146 7.90256 27.9137 7.90256 27.7108C7.90256 27.5078 7.94396 27.307 8.02423 27.1206C8.1045 26.9341 8.22195 26.7661 8.3694 26.6266L10.3948 24.6766C10.6985 24.3889 11.101 24.2286 11.5193 24.2286C11.9376 24.2286 12.3401 24.3889 12.6438 24.6766C12.7912 24.8161 12.9087 24.9841 12.989 25.1706C13.0692 25.357 13.1106 25.5578 13.1106 25.7608C13.1106 25.9637 13.0692 26.1646 12.989 26.351C12.9087 26.5374 12.7912 26.7055 12.6438 26.845Z" fill="#E63212"/>
</svg>
