<svg width="52" height="52" viewBox="0 0 52 52" fill="none" xmlns="http://www.w3.org/2000/svg">
<path d="M40.625 16.6562H36.9688V13C36.9688 11.721 36.5663 10.4745 35.8185 9.43692C35.0707 8.39937 34.0154 7.62341 32.802 7.21896C31.5887 6.81451 30.2788 6.80209 29.058 7.18343C27.8372 7.56478 26.7674 8.32057 26 9.34375C25.2326 8.32057 24.1628 7.56478 22.942 7.18343C21.7212 6.80209 20.4113 6.81451 19.198 7.21896C17.9846 7.62341 16.9293 8.39937 16.1815 9.43692C15.4337 10.4745 15.0312 11.721 15.0312 13C14.1259 12.321 13.0494 11.9075 11.9223 11.8059C10.7951 11.7042 9.662 11.9185 8.64979 12.4246C7.63758 12.9307 6.78631 13.7087 6.19135 14.6713C5.59639 15.634 5.28125 16.7433 5.28125 17.875V26C5.28125 31.495 7.46411 36.7649 11.3496 40.6504C15.2352 44.5359 20.505 46.7188 26 46.7188C31.495 46.7188 36.7649 44.5359 40.6504 40.6504C44.5359 36.7649 46.7188 31.495 46.7188 26V22.75C46.7188 21.1338 46.0767 19.5839 44.9339 18.4411C43.7911 17.2983 42.2412 16.6562 40.625 16.6562ZM30.875 9.34375C31.8447 9.34375 32.7747 9.72896 33.4604 10.4146C34.146 11.1003 34.5312 12.0303 34.5312 13V16.6562H27.625C27.489 16.6578 27.3533 16.6687 27.2188 16.6888V13C27.2188 12.0303 27.604 11.1003 28.2896 10.4146C28.9753 9.72896 29.9053 9.34375 30.875 9.34375ZM17.4688 13C17.4688 12.0303 17.854 11.1003 18.5396 10.4146C19.2253 9.72896 20.1553 9.34375 21.125 9.34375C22.0947 9.34375 23.0247 9.72896 23.7104 10.4146C24.396 11.1003 24.7812 12.0303 24.7812 13V21.125C24.7812 22.0947 24.396 23.0247 23.7104 23.7104C23.0247 24.396 22.0947 24.7812 21.125 24.7812C20.1553 24.7812 19.2253 24.396 18.5396 23.7104C17.854 23.0247 17.4688 22.0947 17.4688 21.125V13ZM7.71875 17.875C7.71875 16.9053 8.10396 15.9753 8.78964 15.2896C9.47532 14.604 10.4053 14.2188 11.375 14.2188C12.3447 14.2188 13.2747 14.604 13.9604 15.2896C14.646 15.9753 15.0312 16.9053 15.0312 17.875V21.125C15.0312 22.0947 14.646 23.0247 13.9604 23.7104C13.2747 24.396 12.3447 24.7812 11.375 24.7812C10.4053 24.7812 9.47532 24.396 8.78964 23.7104C8.10396 23.0247 7.71875 22.0947 7.71875 21.125V17.875ZM44.2812 26C44.2812 30.8485 42.3552 35.4984 38.9268 38.9268C35.4984 42.3552 30.8485 44.2812 26 44.2812C21.1515 44.2812 16.5016 42.3552 13.0732 38.9268C9.6448 35.4984 7.71875 30.8485 7.71875 26C9.01168 26.9697 10.6369 27.3861 12.2368 27.1575C13.8367 26.9289 15.2803 26.0742 16.25 24.7812C16.7726 25.4778 17.4384 26.0543 18.2025 26.4718C18.9667 26.8894 19.8115 27.1383 20.68 27.2018C21.5485 27.2653 22.4205 27.142 23.2373 26.8401C24.054 26.5381 24.7966 26.0647 25.415 25.4516C26.0533 26.738 27.123 27.7596 28.4375 28.338C27.2995 29.2095 26.3777 30.3315 25.7436 31.6169C25.1095 32.9024 24.7802 34.3167 24.7812 35.75C24.7812 36.0732 24.9097 36.3832 25.1382 36.6118C25.3668 36.8403 25.6768 36.9688 26 36.9688C26.3232 36.9688 26.6332 36.8403 26.8618 36.6118C27.0903 36.3832 27.2188 36.0732 27.2188 35.75C27.2188 33.9183 27.9464 32.1617 29.2415 30.8665C30.5367 29.5714 32.2933 28.8438 34.125 28.8438C34.4482 28.8438 34.7582 28.7153 34.9868 28.4868C35.2153 28.2582 35.3438 27.9482 35.3438 27.625C35.3438 27.3018 35.2153 26.9918 34.9868 26.7632C34.7582 26.5347 34.4482 26.4062 34.125 26.4062H30.875C29.9053 26.4062 28.9753 26.021 28.2896 25.3354C27.604 24.6497 27.2188 23.7197 27.2188 22.75V19.5C27.2188 19.3923 27.2616 19.2889 27.3377 19.2127C27.4139 19.1366 27.5173 19.0938 27.625 19.0938H40.625C41.5947 19.0938 42.5247 19.479 43.2104 20.1646C43.896 20.8503 44.2812 21.7803 44.2812 22.75V26Z" fill="#E63212"/>
</svg>
