<svg width="25" height="25" viewBox="0 0 25 25" fill="none" xmlns="http://www.w3.org/2000/svg">
<path d="M19.9952 13.8952H8.82518L13.7052 18.7752C14.0952 19.1652 14.0952 19.8052 13.7052 20.1952C13.3152 20.5852 12.6852 20.5852 12.2952 20.1952L5.70518 13.6052C5.61247 13.5127 5.53893 13.4028 5.48874 13.2819C5.43856 13.1609 5.41273 13.0312 5.41273 12.9002C5.41273 12.7693 5.43856 12.6396 5.48874 12.5186C5.53893 12.3976 5.61247 12.2878 5.70518 12.1952L12.2852 5.59524C12.3778 5.50266 12.4877 5.42922 12.6086 5.37912C12.7296 5.32901 12.8592 5.30322 12.9902 5.30322C13.1211 5.30322 13.2508 5.32901 13.3717 5.37912C13.4927 5.42922 13.6026 5.50266 13.6952 5.59524C13.7878 5.68782 13.8612 5.79774 13.9113 5.9187C13.9614 6.03966 13.9872 6.16931 13.9872 6.30024C13.9872 6.43117 13.9614 6.56082 13.9113 6.68179C13.8612 6.80275 13.7878 6.91266 13.6952 7.00524L8.82518 11.8952H19.9952C20.5452 11.8952 20.9952 12.3452 20.9952 12.8952C20.9952 13.4452 20.5452 13.8952 19.9952 13.8952Z" fill="#006AB3"/>
</svg>
