<svg width="28" height="51" viewBox="0 0 28 51" fill="none" xmlns="http://www.w3.org/2000/svg">
<path d="M27.3889 47.4958C27.7804 47.8825 28 48.4039 28 48.9471C28 49.4904 27.7804 50.0118 27.3889 50.3985C27.1963 50.589 26.9668 50.7403 26.7136 50.8436C26.4605 50.9468 26.1888 51 25.9144 51C25.64 51 25.3683 50.9468 25.1151 50.8436C24.862 50.7403 24.6325 50.589 24.4399 50.3985L0.611136 26.9514C0.219548 26.5646 0 26.0432 0 25.5C0 24.9568 0.219548 24.4354 0.611136 24.0486L24.4399 0.601487C24.6325 0.410987 24.862 0.259703 25.1151 0.156441C25.3683 0.0531787 25.64 0 25.9144 0C26.1888 0 26.4605 0.0531787 26.7136 0.156441C26.9668 0.259703 27.1963 0.410987 27.3889 0.601487C27.7804 0.988213 28 1.50961 28 2.05285C28 2.59609 27.7804 3.11749 27.3889 3.50421L5.65688 25.5015L27.3889 47.4958Z" fill="white"/>
</svg>
