<svg width="52" height="52" viewBox="0 0 52 52" fill="none" xmlns="http://www.w3.org/2000/svg">
<path d="M27.625 8.53665C29.7917 6.97665 32.305 6.19665 35.1433 6.19665C36.7033 6.19665 38.415 6.60832 40.2783 7.47498C42.1417 8.31998 43.615 9.31665 44.6983 10.465C46.93 13.2383 47.8617 16.4667 47.5367 20.15C47.19 23.8333 45.9767 26.715 43.875 28.7517L27.43 45.1967C27.0183 45.6083 26.4983 45.8033 25.8917 45.8033C25.285 45.8033 24.7867 45.6083 24.375 45.1967C24.1749 44.9993 24.0177 44.7626 23.9133 44.5017C23.8089 44.2407 23.7596 43.9609 23.7683 43.68C23.7683 43.0733 23.9633 42.5533 24.375 42.1417L34.32 32.1967C34.8617 31.72 34.8617 31.2217 34.32 30.68C33.7783 30.1383 33.28 30.1383 32.8033 30.68L22.8583 40.625C22.6578 40.827 22.4176 40.9852 22.1528 41.0896C21.888 41.194 21.6044 41.2424 21.32 41.2317C20.7133 41.2317 20.215 41.0367 19.8033 40.625C19.6032 40.4276 19.446 40.191 19.3417 39.93C19.2373 39.669 19.1879 39.3893 19.1967 39.1083C19.1967 38.5017 19.3917 37.9817 19.8033 37.57L29.7483 27.625C30.3333 27.0833 30.3333 26.5417 29.7483 26C29.25 25.4583 28.7733 25.4583 28.2317 26L18.2867 36.0533C18.0839 36.2522 17.8432 36.4084 17.579 36.5126C17.3148 36.6168 17.0323 36.6669 16.7483 36.66C16.1417 36.66 15.6217 36.465 15.1667 36.0533C14.7333 35.6417 14.5167 35.1433 14.5167 34.5366C14.5167 33.93 14.755 33.3883 15.2317 32.9116L25.1983 22.945C25.74 22.4033 25.74 21.905 25.1983 21.4283C24.6567 20.9517 24.1367 20.9517 23.66 21.4283L13.6067 31.4167C13.13 31.85 12.6317 32.0883 12.09 32.0883C11.4833 32.0883 10.9633 31.8717 10.5733 31.4167C10.1617 30.9833 9.945 30.4633 9.945 29.8567C9.945 29.25 10.1617 28.7517 10.5733 28.34C17.2033 21.6667 21.2983 17.6367 22.8583 16.1417L30.5717 23.7683C31.4167 24.57 32.3917 24.9817 33.5833 24.9817C35.1 24.9817 36.2917 24.375 37.18 23.1617C37.7867 22.2733 38.0033 21.2983 37.83 20.215C37.6567 19.1317 37.2017 18.2217 36.465 17.4633L27.625 8.53665ZM32.0883 22.2517L22.8583 13L7.51834 28.34C5.69834 26.4983 4.65833 23.6817 4.42 19.8467C4.18167 16.0333 5.22167 12.7183 7.51834 9.94499C10.0967 7.38832 13.1733 6.08832 16.7483 6.08832C20.345 6.08832 23.4 7.38832 25.8917 9.94499L35.1433 19.1967C35.555 19.6083 35.75 20.1067 35.75 20.7133C35.75 21.32 35.555 21.84 35.1433 22.2517C34.7317 22.6417 34.2333 22.8583 33.5833 22.8583C32.9983 22.8583 32.5 22.6417 32.0883 22.2517Z" fill="#E63212"/>
</svg>
