<svg width="44" height="30" viewBox="0 0 44 30" fill="none" xmlns="http://www.w3.org/2000/svg">
<g clip-path="url(#clip0_149_2479)">
<mask id="mask0_149_2479" style="mask-type:luminance" maskUnits="userSpaceOnUse" x="0" y="0" width="44" height="30">
<path d="M44 0.718384V29.2847H0V0.718384H44Z" fill="white"/>
</mask>
<g mask="url(#mask0_149_2479)">
<path d="M33.2247 3.32056L37.7819 2.03529L42.339 0.750031C43.2457 0.497399 44 1.85845 44 3.79266V14.3353C44 16.2663 43.2567 17.6385 42.3374 17.3763C40.8163 16.95 39.3046 16.5206 37.7819 16.0816C36.2607 15.6553 34.7474 15.2258 33.2247 14.7979C32.3149 14.5358 31.5637 13.3816 31.5637 12.2195V5.8895C31.5637 4.73687 32.3164 3.58266 33.2247 3.32056Z" fill="#005048"/>
<path d="M10.7753 3.31918L6.21814 2.03234L1.661 0.747079C0.744857 0.486553 0 1.85866 0 3.79129V14.3323C0 16.265 0.743286 17.6371 1.66257 17.375C3.18371 16.9455 4.69543 16.5176 6.21971 16.0802L10.7753 14.795C11.6851 14.5329 12.4284 13.3787 12.4284 12.2166V5.88813C12.4284 4.7355 11.6851 3.58129 10.7753 3.31918Z" fill="#00E77D"/>
<path d="M25.2136 3.32053C25.9757 2.89106 26.7363 2.46316 27.4874 2.03527L29.7707 0.750003C30.2264 0.497371 30.602 1.86 30.602 3.79263V14.3353C30.602 16.2663 30.2249 17.6384 29.7691 17.3763C29.0067 16.9481 28.2461 16.5165 27.4874 16.0816C26.7269 15.6553 25.9663 15.2258 25.2136 14.7979C24.7594 14.5358 24.3839 13.3816 24.3839 12.2195V5.88948C24.3839 4.73685 24.7594 3.58263 25.2136 3.32053Z" fill="#007147"/>
<path d="M18.7864 3.32053L16.5031 2.03527C15.7426 1.60579 14.982 1.1779 14.2293 0.750003C13.7736 0.497371 13.398 1.86 13.398 3.79263V14.3353C13.398 16.2663 13.7751 17.64 14.2309 17.3763C14.9899 16.95 15.752 16.5205 16.5031 16.0832L18.7864 14.7979C19.2406 14.5358 19.6161 13.3816 19.6161 12.2195V5.88948C19.6161 4.73685 19.2406 3.58263 18.7864 3.32053Z" fill="#00CD62"/>
<path d="M22.6081 3.32053L22.9491 2.03527L23.2901 0.750003C23.3593 0.497371 23.4127 1.86 23.4127 3.79263V14.3353C23.4127 16.2663 23.3593 17.6384 23.2901 17.3763C23.177 16.95 23.0623 16.5205 22.9491 16.0816L22.6081 14.7979C22.5374 14.5358 22.4856 13.3816 22.4856 12.2195V5.88948C22.4856 4.73685 22.5374 3.58263 22.6081 3.32053Z" fill="#00905E"/>
<path d="M21.3919 3.32053L21.0509 2.03527L20.7099 0.750003C20.6407 0.497371 20.5873 1.86 20.5873 3.79263V14.3353C20.5873 16.2663 20.6407 17.6384 20.7099 17.3763C20.823 16.95 20.9377 16.5205 21.0509 16.0816L21.3919 14.7979C21.4626 14.5358 21.5144 13.3816 21.5144 12.2195V5.88948C21.5144 4.73685 21.4531 3.58263 21.3919 3.32053Z" fill="#00BB5D"/>
<path d="M38.4906 23.7332C38.259 23.6995 38.0253 23.6821 37.7913 23.6811C37.3529 23.6811 36.9506 23.7238 36.575 23.7948C36.2399 23.8558 35.9115 23.9494 35.5944 24.0743V29.1711H36.9506V24.8953C37.0494 24.8576 37.1522 24.8311 37.257 24.8164C37.4861 24.7831 37.7186 24.7805 37.9484 24.8085C38.0521 24.8259 38.1496 24.8432 38.236 24.8701L38.4906 23.7332ZM33.759 25.8917L31.5119 26.198C31.5197 25.8664 31.5716 25.5853 31.6769 25.358C31.7656 25.1512 31.9139 24.9759 32.1027 24.8547C32.2914 24.7334 32.512 24.6717 32.736 24.6774C32.945 24.6774 33.1289 24.7201 33.2781 24.8164C33.4358 24.9106 33.5608 25.0511 33.6364 25.219C33.715 25.3927 33.759 25.6217 33.759 25.8917ZM35.0696 26.1285C35.0696 25.7606 35.0177 25.429 34.9219 25.1306C34.8242 24.8476 34.6726 24.5865 34.4756 24.3617C34.2738 24.1451 34.0255 23.9777 33.7496 23.8722C33.434 23.752 33.0986 23.693 32.7611 23.6985C32.3683 23.6985 32.0179 23.768 31.7114 23.899C31.405 24.0396 31.1441 24.2306 30.9336 24.4753C30.7151 24.7201 30.5564 25.0185 30.4433 25.3596C30.328 25.7239 30.2723 26.1046 30.2783 26.4869C30.2783 26.8974 30.3396 27.2811 30.4511 27.6238C30.5659 27.9648 30.7419 28.2617 30.9697 28.5064C31.196 28.759 31.4757 28.9517 31.8183 29.0827C32.1577 29.2138 32.5427 29.2832 32.989 29.2832C33.4762 29.2854 33.9615 29.2211 34.4316 29.0922C34.6157 29.0421 34.7946 28.9744 34.9659 28.8901L34.5809 27.8764C34.4426 27.9515 34.296 28.0098 34.144 28.0501C33.9742 28.1014 33.8016 28.1425 33.627 28.1732C33.4476 28.201 33.2664 28.2158 33.0849 28.2174C32.8224 28.2174 32.5867 28.1732 32.3777 28.0864C32.1738 28.002 31.9952 27.866 31.8591 27.6917C31.721 27.4981 31.6315 27.2738 31.5983 27.038L35.0523 26.5643C35.0617 26.4853 35.0696 26.4064 35.0696 26.3385V26.1285ZM29.7173 29.1695V21.3538H28.3627V29.1695H29.7173ZM27.5236 29.1695V21.3538H26.1674V29.1695H27.5236ZM24.3037 25.8917L22.0566 26.198C22.066 25.8664 22.1194 25.5853 22.2231 25.358C22.3118 25.1515 22.4598 24.9764 22.6483 24.8551C22.8368 24.7338 23.057 24.672 23.2807 24.6774C23.4913 24.6774 23.6736 24.7201 23.8229 24.8164C23.9811 24.9103 24.1067 25.0509 24.1827 25.219C24.2613 25.3927 24.3037 25.6217 24.3037 25.8917ZM25.6159 26.1285C25.6159 25.7606 25.564 25.429 25.4681 25.1306C25.3739 24.846 25.2219 24.5842 25.0219 24.3617C24.8201 24.1451 24.5718 23.9777 24.2959 23.8722C23.9803 23.7519 23.6449 23.693 23.3074 23.6985C22.9146 23.6985 22.5641 23.768 22.2577 23.899C21.9513 24.0396 21.6904 24.2306 21.4799 24.4753C21.2576 24.7331 21.0907 25.0341 20.9896 25.3596C20.8743 25.7239 20.8186 26.1046 20.8246 26.4869C20.8246 26.8974 20.8843 27.2811 20.9974 27.6238C21.1121 27.9648 21.2866 28.2617 21.516 28.5064C21.7423 28.759 22.022 28.9517 22.363 29.0827C22.704 29.2138 23.089 29.2832 23.5353 29.2832C24.0225 29.2853 24.5078 29.221 24.9779 29.0922C25.1884 29.029 25.3629 28.969 25.52 28.8901L25.135 27.8764C24.9968 27.9515 24.8501 28.0098 24.6981 28.0501C24.5289 28.1013 24.3568 28.1424 24.1827 28.1732C24.0028 28.201 23.8211 28.2158 23.639 28.2174C23.3766 28.2174 23.1409 28.1732 22.9319 28.0864C22.7272 28.0042 22.5485 27.8678 22.4149 27.6917C22.2761 27.4983 22.186 27.274 22.1524 27.038L25.608 26.5643C25.6159 26.4853 25.6253 26.4064 25.6253 26.3385C25.6159 26.2753 25.6159 26.198 25.6159 26.1285ZM20.6313 29.1001V27.9727C20.5772 28.0016 20.5179 28.0193 20.4569 28.0248C20.283 28.0675 20.1006 28.0581 19.932 27.998C19.8391 27.9655 19.761 27.9005 19.712 27.8148C19.6546 27.7079 19.6275 27.5872 19.6334 27.4659V24.8164H20.6391V23.8027H19.6334V22.2206L18.2977 22.6138V23.8106H17.6063V24.8259H18.2977V27.5606C18.2977 28.1211 18.4187 28.549 18.6717 28.8285C18.9263 29.108 19.3113 29.258 19.8267 29.258C19.9399 29.258 20.0467 29.2485 20.1504 29.2311C20.2484 29.224 20.3453 29.2065 20.4396 29.179C20.5087 29.1522 20.5779 29.1269 20.6313 29.1001ZM17.1946 29.1695V23.8027H15.8384V29.1711H17.1946V29.1695ZM17.2999 22.2111C17.3023 22.0812 17.2656 21.9535 17.1946 21.8448C17.126 21.7341 17.0295 21.6437 16.9149 21.5827C16.7955 21.5143 16.6593 21.4809 16.522 21.4864C16.385 21.4866 16.2499 21.519 16.1276 21.5811C16.0126 21.6424 15.9161 21.7335 15.8479 21.8448C15.7778 21.9539 15.7412 22.0813 15.7426 22.2111C15.7426 22.3517 15.7771 22.4732 15.8479 22.5869C15.9133 22.7001 16.0106 22.7913 16.1276 22.849C16.2407 22.9122 16.3727 22.9453 16.5204 22.9548C16.6587 22.9573 16.7948 22.9206 16.9133 22.849C17.0248 22.7831 17.1208 22.6937 17.1946 22.5869C17.2568 22.471 17.2927 22.3426 17.2999 22.2111ZM15.1046 29.1695V25.4985C15.1046 25.1132 15.0166 24.7817 14.85 24.5101C14.665 24.2289 14.3951 24.0147 14.08 23.899C13.739 23.7585 13.3021 23.689 12.7694 23.689C12.331 23.689 11.9287 23.7238 11.5799 23.7932C11.2543 23.8577 10.935 23.9512 10.626 24.0727V29.1695H11.9821V24.9048C12.2421 24.8208 12.5137 24.7793 12.7867 24.7817C13.0931 24.7817 13.3289 24.8606 13.4939 25.009C13.651 25.1574 13.739 25.3753 13.739 25.6469V29.179H15.1046V29.1695ZM9.90943 28.8995V23.8027H8.55329V28.0501C8.47472 28.0769 8.36943 28.1132 8.239 28.129C8.08332 28.1558 7.9255 28.1679 7.76757 28.1653C7.469 28.1653 7.24114 28.0943 7.09186 27.9632C6.93472 27.8243 6.86557 27.6143 6.86557 27.3253V23.8027H5.50943V27.2985C5.50943 27.7627 5.59743 28.1385 5.764 28.4353C5.9346 28.7337 6.20365 28.9627 6.52457 29.0827C6.85772 29.2217 7.27729 29.2927 7.766 29.2832C8.04572 29.2832 8.327 29.2674 8.58943 29.2311C8.85972 29.1964 9.10486 29.1522 9.33272 29.0906C9.53277 29.0538 9.72683 28.9895 9.90943 28.8995Z" fill="white"/>
</g>
</g>
<defs>
<clipPath id="clip0_149_2479">
<rect width="44" height="30" fill="white"/>
</clipPath>
</defs>
</svg>
