<svg width="50" height="17" viewBox="0 0 50 17" fill="none" xmlns="http://www.w3.org/2000/svg">
<g clip-path="url(#clip0_149_2454)">
<mask id="mask0_149_2454" style="mask-type:luminance" maskUnits="userSpaceOnUse" x="0" y="0" width="50" height="17">
<path d="M50 0.197876V16.0233H0V0.197876H50Z" fill="white"/>
</mask>
<g mask="url(#mask0_149_2454)">
<path d="M50 15.7684H46.2234C46.0859 15.1193 45.9375 14.4857 45.8203 13.8458C45.7734 13.58 45.6859 13.4765 45.3828 13.4811C43.8672 13.5012 42.3531 13.4966 40.8391 13.4842C40.6094 13.4827 40.5187 13.5568 40.4484 13.7593C40.2406 14.3682 40.0125 14.9725 39.7797 15.5737C39.7484 15.6556 39.6422 15.7668 39.5719 15.7684C38.2062 15.7792 36.8422 15.7761 35.4375 15.7761C35.6922 15.1734 35.9344 14.6 36.1812 14.0267L41.4625 1.72793C41.8422 0.840838 42.4141 0.468384 43.3969 0.468384H46.7125C46.8219 0.967566 46.9328 1.46057 47.0391 1.95357C47.9047 6.00575 48.7688 10.0564 49.6359 14.107C49.7469 14.6263 49.8781 15.1425 50.0016 15.6587L50 15.7668V15.7684ZM45.0594 10.3315L43.8625 4.73075L43.8125 4.72148L41.7297 10.3315H45.0594Z" fill="white"/>
<path d="M33.5516 0.197876C34.0484 0.287512 34.5516 0.361694 35.0453 0.472967C35.4937 0.573421 35.9359 0.715603 36.4141 0.848512L35.7078 4.07697C35.0766 3.89615 34.4734 3.68751 33.8531 3.5546C33.0031 3.37224 32.1344 3.30269 31.2859 3.53297C30.9422 3.62569 30.5922 3.80651 30.3203 4.03369C29.8547 4.42315 29.8484 4.98569 30.2937 5.39369C30.6 5.67651 30.9625 5.90833 31.3266 6.1216C32.1547 6.60688 33.0203 7.02879 33.8234 7.54651C34.7687 8.15697 35.4578 8.99615 35.6031 10.1305C35.8594 12.1365 35.0984 13.716 33.3734 14.8349C32.2875 15.5381 31.0594 15.8518 29.7797 15.9677C28.0089 16.1312 26.2231 15.9335 24.5328 15.3866C24.4187 15.3511 24.3078 15.3047 24.1953 15.2599C24.1625 15.246 24.1328 15.2228 24.0828 15.1919C24.325 14.09 24.5672 12.985 24.8141 11.8491C25.1047 11.9727 25.3781 12.0979 25.6578 12.2076C26.9906 12.7331 28.3687 12.9711 29.7969 12.7099C30.1672 12.6434 30.5469 12.4827 30.8609 12.2771C31.5437 11.829 31.6109 10.9898 30.9875 10.4643C30.5797 10.1181 30.0875 9.86469 29.6219 9.58651C28.8953 9.15379 28.1219 8.78442 27.4328 8.30069C26.55 7.67942 25.9109 6.8526 25.7891 5.75069C25.6078 4.10324 26.2344 2.76488 27.5297 1.72633C28.6578 0.82224 29.9953 0.420421 31.4203 0.251967C31.5 0.242694 31.5766 0.214876 31.6547 0.197876H33.5516Z" fill="white"/>
<path d="M0.296875 0.469833H6.7375C7.75469 0.469833 8.48906 1.04629 8.68281 2.03074C9.22813 4.81565 9.76094 7.60365 10.2984 10.3917C10.3219 10.5122 10.3484 10.6343 10.3859 10.8058C10.4406 10.7038 10.4797 10.6451 10.5047 10.5833C11.8375 7.29147 13.1703 3.99965 14.4969 0.703197C14.5687 0.523924 14.6594 0.462106 14.8578 0.463651C16.1031 0.474469 17.3484 0.468288 18.5922 0.469833C18.6734 0.469833 18.7547 0.476015 18.8687 0.480651C18.6562 0.978288 18.4562 1.45429 18.2516 1.92874C16.3078 6.45538 14.3625 10.9805 12.4281 15.5102C12.3344 15.7266 12.2219 15.7837 11.9984 15.7807C10.7719 15.7714 9.54531 15.7683 8.31875 15.7837C8.05781 15.7884 7.975 15.6987 7.91406 15.47C6.875 11.5137 5.81719 7.56192 4.78906 3.60247C4.60156 2.87611 4.22344 2.38156 3.51562 2.07556C2.37969 1.5872 1.20312 1.24565 0 0.967469" fill="white"/>
<path d="M17.2422 15.7776L20.5938 0.485352H24.6609L24.1594 2.7819C23.2375 6.98862 22.3125 11.1954 21.4016 15.4052C21.3391 15.6988 21.2328 15.7915 20.9219 15.7854C19.8078 15.7637 18.6922 15.7776 17.5766 15.7776H17.2422Z" fill="white"/>
</g>
</g>
<defs>
<clipPath id="clip0_149_2454">
<rect width="50" height="17" fill="white"/>
</clipPath>
</defs>
</svg>
