<svg width="51" height="52" viewBox="0 0 51 52" fill="none" xmlns="http://www.w3.org/2000/svg">
<circle cx="25.5" cy="26" r="25" transform="rotate(180 25.5 26)" fill="black" fill-opacity="0.1" stroke="url(#paint0_linear_1_277)"/>
<path d="M24.6464 32.3536C24.8417 32.5488 25.1583 32.5488 25.3536 32.3536L28.5355 29.1716C28.7308 28.9763 28.7308 28.6597 28.5355 28.4645C28.3403 28.2692 28.0237 28.2692 27.8284 28.4645L25 31.2929L22.1716 28.4645C21.9763 28.2692 21.6597 28.2692 21.4645 28.4645C21.2692 28.6597 21.2692 28.9763 21.4645 29.1716L24.6464 32.3536ZM24.5 20L24.5 32L25.5 32L25.5 20L24.5 20Z" fill="white"/>
<defs>
<linearGradient id="paint0_linear_1_277" x1="25.5" y1="0.500002" x2="25.5" y2="51.5" gradientUnits="userSpaceOnUse">
<stop offset="0.274588" stop-color="#DF61FB"/>
<stop offset="0.608669" stop-color="#23C5ED"/>
<stop offset="1" stop-color="#27F488"/>
</linearGradient>
</defs>
</svg>
