<svg width="163" height="28" viewBox="0 0 163 28" fill="none" xmlns="http://www.w3.org/2000/svg">
<path d="M3.44944 25.7352C3.44944 25.7352 23.4995 16.9191 25.4917 16.1806C25.4917 16.1806 37.653 10.5442 39.7572 9.48688C39.7572 9.48688 51.5424 5.2343 53.6786 4.69787C53.6786 4.69787 68.8162 4.9622 72.4406 3.43844C72.4406 3.43844 76.545 2.01575 78.1132 1.41713C78.1132 1.41713 80.9935 0.492005 82.9537 1.19169C82.9537 1.19169 88.7863 2.47442 91.4985 1.7825C91.4985 1.7825 104.404 0.670804 105.676 0.258766C105.676 0.258766 107.028 -0.557572 111.605 0.709642C111.605 0.709642 123.374 2.01575 127.358 4.08372C127.358 4.08372 147.752 10.9173 149.609 11.5004C149.609 11.5004 159.066 14.7967 159.786 15.0533C159.786 15.0533 166.57 18.5517 160.426 16.5071C154.281 14.4624 134.287 8.35184 133.127 8.08751C133.127 8.08751 128.758 8.04863 127.062 6.43158C127.062 6.43158 107.692 -0.542019 92.1866 4.69787C92.1866 4.69787 88.4742 4.89226 88.5622 7.01465C88.5622 7.01465 87.3621 13.7394 82.4976 14.0271C82.4976 14.0271 81.2495 17.9143 81.3855 14.2137C81.3855 14.2137 77.7771 14.5169 74.9848 11.2827C74.9848 11.2827 72.1765 8.4762 71.7925 6.7503C71.7925 6.7503 56.1589 5.22655 49.0141 8.60838C49.0141 8.60838 36.6049 13.1408 35.8128 13.6539C35.8128 13.6539 33.9726 15.3798 31.5643 15.4653C31.5643 15.4653 17.0028 22.3378 15.6827 22.2989L2.88937 27.0568C2.88937 27.0568 -3.97532 29.8867 3.45745 25.743L3.44944 25.7352Z" fill="#171D1E"/>
</svg>
