<svg width="132" height="76" viewBox="0 0 132 76" fill="none" xmlns="http://www.w3.org/2000/svg">
<path d="M3.06238 54.3917C3.06238 54.3917 5.8824 48.5817 20.6724 43.1217C20.6724 43.1217 27.5424 40.6517 31.4124 40.2117C31.4124 40.2117 34.4024 39.0717 38.1924 40.1217C38.1924 40.1217 57.2124 47.4317 58.8824 48.1317C58.8824 48.1317 63.1124 50.2417 68.0424 48.6617C68.0424 48.6617 76.5824 47.6017 80.1024 41.7017C80.1024 41.7017 88.7324 26.2017 90.9324 22.5117C90.9324 22.5117 93.8424 16.7017 98.8524 13.5317C98.8524 13.5317 111.262 2.4317 120.862 0.2317C120.862 0.2317 125.702 -0.648306 123.502 1.02169L119.362 3.4017C119.362 3.4017 125.882 1.55169 128.602 2.52169C128.602 2.52169 133.002 2.96169 128.512 4.11169C128.512 4.11169 120.592 5.5217 119.352 6.3117C119.352 6.3117 126.572 5.6117 129.652 7.1017C129.652 7.1017 132.732 7.89169 130.272 8.24169C130.272 8.24169 127.632 9.38169 123.672 9.30169C123.672 9.30169 126.842 10.1817 129.042 11.5017C129.042 11.5017 131.422 13.1717 128.692 12.7317C128.692 12.7317 125.352 13.4317 123.142 13.1717C123.142 13.1717 126.932 14.6717 128.242 16.0817C128.242 16.0817 129.742 16.9617 128.072 16.8717C128.072 16.8717 122.962 17.4017 120.582 16.6917C120.582 16.6917 123.402 18.2717 124.102 18.7117C124.102 18.7117 125.242 19.5917 124.282 19.6817C124.282 19.6817 120.492 20.2117 119.532 20.2117L119.272 21.5317C119.272 21.5317 116.722 23.0317 115.222 23.2017C115.222 23.2017 114.522 24.6117 112.402 24.9617C112.402 24.9617 111.082 27.0717 108.702 27.0717C108.702 27.0717 106.502 29.9817 104.212 27.3317C104.212 27.3317 103.152 26.8917 102.012 28.0317C102.012 28.0317 101.752 28.3817 100.872 28.5617C100.872 28.5617 101.582 29.2617 99.4624 30.3217C99.4624 30.3217 99.3724 31.5517 97.7024 32.4317C97.7024 32.4317 97.6124 33.7517 96.2024 34.7217C96.2024 34.7217 95.7624 36.5717 94.7024 37.2717C94.7024 37.2717 94.1724 39.5617 92.6824 40.5317C92.6824 40.5317 91.8024 44.1417 89.7724 44.4017C89.7724 44.4017 88.8024 49.1517 86.6924 49.4217C86.6924 49.4217 85.9924 51.2717 85.1024 51.8017C85.1024 51.8017 84.6624 53.0317 83.3424 54.0917C83.3424 54.0917 82.4624 56.7317 83.5224 58.0517C83.5224 58.0517 91.3624 58.6717 94.9624 57.0817C94.9624 57.0817 99.1024 55.4117 95.4924 57.9617C95.4924 57.9617 94.4324 59.1017 92.0624 59.7217C92.0624 59.7217 95.3224 60.9517 92.0624 62.3617C92.0624 62.3617 91.4424 63.0617 90.1224 63.3317C90.1224 63.3317 91.5324 66.4117 86.8624 67.0317C86.8624 67.0317 87.0424 70.4617 82.9924 70.5517C82.9924 70.5517 81.9324 73.9817 77.6224 72.7517C77.6224 72.7517 76.2124 74.8617 74.1024 73.5417C74.1024 73.5417 71.8124 76.6217 69.1724 73.8917C69.1724 73.8917 65.8224 78.6517 64.5024 73.7117C64.5024 73.7117 59.3024 78.3817 59.9224 73.5317C59.9224 73.5317 53.8424 75.9117 55.7824 72.9117C55.7824 72.9117 51.0324 73.3517 53.1424 72.2117C53.1424 72.2117 63.6224 67.6317 65.2924 64.5517C65.2924 64.5517 67.4024 62.6117 65.4724 62.1717C63.5324 61.7317 64.8524 62.0817 63.8824 61.2017C63.8824 61.2017 62.5624 61.9917 60.7124 60.6717C60.7124 60.6717 58.3324 61.9017 57.5424 60.1417C57.5424 60.1417 56.2224 61.2817 55.0724 59.8817C55.0724 59.8817 53.7524 60.0617 52.9624 59.2617C52.9624 59.2617 50.5824 59.3517 50.3224 58.1217C50.3224 58.1217 48.0324 58.7417 47.5024 57.4217C47.5024 57.4217 44.3324 57.7717 43.7124 56.4517C43.7124 56.4517 40.8924 57.5117 40.2824 56.2717C40.2824 56.2717 38.1724 56.8017 37.8124 55.7417C37.8124 55.7417 35.6124 56.7117 34.4624 56.5317C34.4624 56.5317 34.8124 61.2817 31.3824 61.2017C31.3824 61.2017 29.4424 63.9317 28.2124 63.0517C28.2124 63.0517 23.8124 67.3717 23.1024 64.9917C23.1024 64.9917 18.2624 69.3017 18.4324 66.4017C18.4324 66.4017 10.1524 77.3217 15.2624 64.9917C15.2624 64.9917 4.96238 78.7317 10.5924 65.5217C10.5924 65.5217 0.202385 78.6417 6.72238 64.8217C6.72238 64.8217 -3.40761 74.6817 5.66239 60.5917C5.66239 60.5917 -3.7576 68.4317 1.7024 61.0317C1.7024 61.0317 7.95238 51.8717 12.6224 49.5817C12.6224 49.5817 -0.757597 60.0617 3.0224 54.3417L3.06238 54.3917Z" fill="#171D1E"/>
</svg>
