<svg width="43" height="36" viewBox="0 0 43 36" fill="none" xmlns="http://www.w3.org/2000/svg">
<g filter="url(#filter0_f_1_433)">
<path d="M13.6053 10.1871C13.6053 10.1871 15.2046 10.3721 16.1716 11.5786C16.1716 11.5786 16.9509 12.387 17.9546 12.2744C17.9546 12.2744 19.1827 12.0894 19.9252 13.2276C19.9252 13.2276 21.1533 14.4382 21.749 15.3552C21.749 15.3552 24.2052 16.0872 26.1759 14.1446L28.1832 11.8722C28.1832 11.8722 31.3453 8.53809 31.5656 7.3637C31.5656 7.3637 32.0878 5.78712 32.1613 5.49352C32.1613 5.49352 32.5326 3.40615 32.757 5.09133C32.757 5.09133 32.5693 6.59552 32.2715 6.92531C32.2715 6.92531 31.8634 8.02329 32.606 6.96151C32.606 6.96151 33.7199 5.42112 33.7566 5.01893C33.7566 5.01893 34.6501 2.85515 34.4257 4.83393C34.4257 4.83393 33.9035 6.15311 33.6464 6.4467C33.6464 6.4467 32.9406 7.6573 34.0177 6.4467C34.0177 6.4467 34.948 5.30851 35.0948 5.01893C35.0948 5.01893 36.3596 3.07636 35.9149 4.83393C35.9149 4.83393 35.3192 6.04452 34.9847 6.4467C34.9847 6.4467 34.4257 7.3999 35.356 6.5553C35.356 6.5553 36.7309 5.49352 36.9921 5.23612C36.9921 5.23612 38.0325 4.28293 37.4001 5.56591L36.3596 6.88509C36.3596 6.88509 35.6171 7.72969 36.6575 7.25108C36.6575 7.25108 39.1871 5.6745 38.1059 7.25108C38.1059 7.25108 36.9513 8.34906 38.0325 7.98307C38.0325 7.98307 39.2973 8.01927 38.1793 9.41084C38.1793 9.41084 39.334 9.30225 38.4037 10.915C38.4037 10.915 39.6686 10.73 38.5139 12.4192C38.5139 12.4192 38.8118 13.3362 37.8815 14.0682C37.8815 14.0682 39.183 13.9596 37.7713 15.5724C37.7713 15.5724 38.5506 16.783 36.6942 17.2214C36.6942 17.2214 37.5143 19.0916 35.0948 18.8342C35.0948 18.8342 36.0985 20.7405 33.8667 20.2619C33.8667 20.2619 34.0544 21.8023 32.1939 21.4363C32.1939 21.4363 32.0062 22.6831 30.5578 22.0597C30.5578 22.0597 30.7822 23.4151 29.293 22.9043C29.293 22.9043 30.4844 24.0023 30.8924 25.1767C30.8924 25.1767 32.4918 27.9277 34.238 29.1704C34.238 29.1704 35.9843 31.9576 34.1279 31.5554C34.1279 31.5554 34.0177 32.8746 32.1572 30.9682C32.1572 30.9682 30.9291 29.2468 29.3297 27.9639C29.3297 27.9639 27.2856 27.0831 26.131 26.1299C26.131 26.1299 26.3187 27.0107 25.2375 26.5321C25.2375 26.5321 25.4619 27.4129 24.0828 26.6045C24.0828 26.6045 23.3402 27.1555 22.6711 26.3109C22.6711 26.3109 22.1489 27.2279 21.1085 26.1259C21.1085 26.1259 19.8436 27.0428 19.3622 25.5025C19.3622 25.5025 18.2483 26.7854 17.5384 25.3939C17.5384 25.3939 15.939 25.6875 15.7514 24.8791C15.7514 24.8791 13.8909 25.9046 13.6297 24.5131C13.6297 24.5131 11.0267 25.1365 11.4714 23.8897C11.4714 23.8897 9.01522 24.5131 10.023 22.9365C10.023 22.9365 5.3391 23.8535 4.55573 22.4981C4.55573 22.4981 3.06652 21.0301 4.96374 21.7299C4.96374 21.7299 9.4273 23.0491 13.6665 21.2151C13.6665 21.2151 15.8248 20.6641 16.751 20.2257C16.751 20.2257 18.3871 19.4173 18.7584 18.6129C18.7584 18.6129 16.8611 17.0002 16.7877 15.7172C16.7877 15.7172 16.4899 13.3362 15.633 12.3066C15.633 12.3066 15.2985 11.2086 14.1479 10.8024C14.1479 10.8024 12.4384 10.0342 13.5889 10.179L13.6053 10.1871Z" fill="#171D1E"/>
</g>
<defs>
<filter id="filter0_f_1_433" x="0" y="0" width="43" height="36" filterUnits="userSpaceOnUse" color-interpolation-filters="sRGB">
<feFlood flood-opacity="0" result="BackgroundImageFix"/>
<feBlend mode="normal" in="SourceGraphic" in2="BackgroundImageFix" result="shape"/>
<feGaussianBlur stdDeviation="2" result="effect1_foregroundBlur_1_433"/>
</filter>
</defs>
</svg>
