<svg width="13" height="13" viewBox="0 0 13 13" fill="none" xmlns="http://www.w3.org/2000/svg">
<path d="M1.3 2.25875V9.20833C1.29987 9.89594 1.6136 10.5579 2.17755 11.0598C2.7415 11.5617 3.51344 11.8661 4.3368 11.9113L4.55 11.9167H10.2882C10.1538 12.2335 9.90487 12.5077 9.57567 12.7017C9.24647 12.8958 8.8532 13 8.45 13H3.9C2.86566 13 1.87368 12.6576 1.14228 12.0481C0.410892 11.4386 2.68108e-07 10.612 2.68108e-07 9.75V3.79167C-0.000211224 3.45548 0.124706 3.12751 0.357537 2.85297C0.590367 2.57842 0.919649 2.37081 1.3 2.25875ZM11.05 0C11.5672 0 12.0632 0.171205 12.4289 0.475952C12.7946 0.780698 13 1.19402 13 1.625V9.20833C13 9.63931 12.7946 10.0526 12.4289 10.3574C12.0632 10.6621 11.5672 10.8333 11.05 10.8333H4.55C4.03283 10.8333 3.53684 10.6621 3.17114 10.3574C2.80545 10.0526 2.6 9.63931 2.6 9.20833V1.625C2.6 1.19402 2.80545 0.780698 3.17114 0.475952C3.53684 0.171205 4.03283 0 4.55 0H11.05ZM11.05 1.08333H4.55C4.37761 1.08333 4.21228 1.1404 4.09038 1.24198C3.96848 1.34357 3.9 1.48134 3.9 1.625V9.20833C3.9 9.35199 3.96848 9.48977 4.09038 9.59135C4.21228 9.69293 4.37761 9.75 4.55 9.75H11.05C11.2224 9.75 11.3877 9.69293 11.5096 9.59135C11.6315 9.48977 11.7 9.35199 11.7 9.20833V1.625C11.7 1.48134 11.6315 1.34357 11.5096 1.24198C11.3877 1.1404 11.2224 1.08333 11.05 1.08333Z" fill="#8A8A8A"/>
</svg>
