<svg width="147" height="53" viewBox="0 0 147 53" fill="none" xmlns="http://www.w3.org/2000/svg">
<path fill-rule="evenodd" clip-rule="evenodd" d="M26.9897 0.918844C30.5195 1.0901 33.3903 1.73655 36.4321 3.04509C37.5798 3.53884 38.4293 3.98228 39.7325 4.7681C41.1953 5.65011 42.0051 6.2531 43.2901 7.41707C46.073 9.9379 48.1185 12.7376 49.6236 16.0859C52.6841 22.894 52.411 30.9588 48.8913 37.7086C47.8907 39.6275 46.7019 41.2843 45.0719 43.0314C41.4272 46.9381 36.6696 49.6437 31.5973 50.6941C29.5707 51.1138 26.7115 51.3386 24.8826 51.2221C22.0509 51.0416 19.4123 50.4568 16.8773 49.4479C9.03889 46.3281 3.39405 39.8549 1.49949 31.8137C1.0729 30.0032 0.962602 29.124 0.890128 26.9565C0.816615 24.7596 0.861604 24.0098 1.18348 22.0673C2.22586 15.776 5.90419 9.77151 11.0137 6.02052C13.8576 3.93271 17.0157 2.45038 20.2879 1.66736C21.6285 1.34658 22.6768 1.1554 23.5957 1.06413C23.9895 1.02505 24.3248 0.980445 24.3408 0.965061C24.3999 0.908329 26.1449 0.877896 26.9897 0.918844ZM24.2519 3.40101C22.7451 3.53115 21.0728 3.86206 19.5393 4.3335C14.9892 5.73222 10.6634 8.75793 7.91414 12.4645C6.09962 14.911 4.93242 17.2193 4.12253 19.9631C2.27547 26.2209 3.35288 33.1879 7.0443 38.8569C7.93576 39.8475 7.53117 39.4492 9.64374 40.0101C11.571 40.3421 13.5908 40.7536 16.1753 41.3409C20.9163 42.4183 22.7447 42.7775 25.0509 43.0843C25.2419 43.1097 25.2447 43.1034 25.302 42.5149C25.4178 41.3254 25.4453 40.2247 25.3952 38.7983C25.3505 37.5299 25.3161 37.2248 25.1283 36.4308C23.9757 31.5572 20.9462 28.38 16.8914 27.7925C16.0518 27.6708 14.1912 27.7708 13.348 27.983C12.9728 28.0774 12.5092 28.2142 12.3177 28.2869L11.9696 28.4192L11.7122 28.1876L11.4549 27.956L11.6575 27.7618C12.242 27.2018 13.8613 26.7441 15.5294 26.6672C16.1361 26.6393 16.6319 26.5999 16.6312 26.5797C16.6295 26.5317 15.7673 26.0031 15.4833 25.876C14.9476 25.6362 13.7079 25.4217 12.6709 25.3895C11.92 25.3661 11.7314 25.2947 11.7221 25.0299C11.718 24.9147 11.7575 24.7824 11.8099 24.7358C11.947 24.6137 13.0125 24.4467 13.5563 24.462C13.8118 24.4691 14.0206 24.4675 14.0203 24.4581C14.02 24.4489 13.8397 24.1919 13.6197 23.8871C12.9504 22.9596 12.8944 22.8406 13.0158 22.6046C13.0922 22.4561 13.1839 22.3962 13.3692 22.3741C13.6073 22.3455 13.6427 22.3732 14.0944 22.9409C14.8589 23.9017 15.7089 24.687 16.5352 25.196C17.5124 25.7979 21.3011 27.5131 21.2954 27.351C21.2865 27.0989 20.8588 26.2869 20.4006 25.6519C19.8723 24.9199 18.817 23.8735 17.9979 23.2696C16.6225 22.2556 15.4553 21.7262 12.7346 20.8821C11.5254 20.5069 11.2949 20.4584 10.5955 20.4318C9.9713 20.408 9.72991 20.3655 9.41022 20.2233C8.54102 19.8365 8.31231 19.1138 8.85523 18.4699C9.29594 17.9473 10.2342 17.6827 11.228 17.8008C11.7208 17.8593 11.7862 17.8502 12.3094 17.6497C12.8052 17.4598 12.9773 17.4319 13.8791 17.3953C14.7544 17.3597 14.9607 17.3744 15.3974 17.5034C16.7357 17.8986 18.0946 18.7944 18.1123 19.293C18.1288 19.7618 17.4754 20.0051 16.2923 19.9707C15.5655 19.9497 15.5514 19.9523 15.1776 20.1832L14.7989 20.417L15.7842 20.8442C17.3906 21.5409 18.3252 22.0982 19.4767 23.046C20.9229 24.2364 22.5155 26.2098 23.4753 28.0006C23.8037 28.6133 24.112 29.084 24.3316 29.3074C24.5202 29.4995 24.7691 29.7631 24.8846 29.8933C25.0002 30.0233 25.1052 30.1172 25.1182 30.1018C25.1589 30.0532 24.506 27.8872 24.2229 27.1319C23.6501 25.6035 22.7667 24.0332 22.0867 23.3342C21.9468 23.1904 21.3668 22.817 20.7979 22.5046C19.9067 22.0152 19.7509 21.903 19.6728 21.6946C19.6229 21.5615 19.5039 20.8894 19.4082 20.201L19.2343 18.9495L19.3873 18.8167C19.4869 18.7302 19.5974 18.6986 19.7045 18.7261C20.1173 18.8319 20.1407 18.8747 20.3534 19.9166C20.4652 20.4642 20.5879 20.9761 20.6262 21.0543C20.6806 21.1653 21.9952 21.9093 22.1286 21.9046C22.1454 21.904 22.0988 21.5094 22.0251 21.0276L21.8912 20.1516L22.0487 20.0148C22.248 19.8418 22.4961 19.8311 22.6454 19.989C22.8382 20.1928 23.2787 21.7765 23.423 22.7846C23.4759 23.1537 23.559 23.346 23.8684 23.816C24.2896 24.4558 24.7598 25.2914 24.8534 25.5667C24.9111 25.7362 24.9157 25.7324 24.9445 25.4912C24.9612 25.3514 25.0243 24.6987 25.0847 24.0407C25.1452 23.3826 25.2564 22.3053 25.332 21.6467C25.6213 19.1259 25.3128 17.6689 24.2227 16.4071C23.7911 15.9075 22.1133 14.5328 21.9426 14.5388C21.7127 14.547 21.5649 14.7293 21.5341 15.0426C21.4856 15.5344 21.414 15.5404 20.6394 15.1175C19.826 14.6733 18.95 14.2623 18.5713 14.147C18.3325 14.0742 18.2423 14.0882 17.7272 14.2785C16.4792 14.7395 15.1793 14.482 14.6688 13.6727C14.53 13.4527 14.4951 13.3116 14.5059 13.0123C14.5236 12.5221 14.785 12.1611 15.3513 11.8448C15.7399 11.6277 15.8179 11.6112 16.6027 11.5805L17.4398 11.5477L17.8847 11.0832C19.1993 9.71029 21.1498 9.5083 22.8748 10.5665C23.3701 10.8703 23.3842 10.8739 23.9868 10.8526C24.7017 10.8273 25.214 10.9422 25.6301 11.221C26.1216 11.5503 26.2887 11.823 26.3064 12.3246C26.327 12.9066 26.1465 13.1769 25.5214 13.4999C25.0858 13.725 24.9971 13.7441 24.2749 13.7683C23.5298 13.7934 23.4993 13.8005 23.5423 13.9388C23.709 14.4746 23.84 14.676 24.1774 14.9143C25.6093 15.9257 26.4491 17.4593 26.6538 19.4366L26.7284 20.1577L27.1513 19.8234C27.3839 19.6396 27.8668 19.1973 28.2245 18.8405C28.5821 18.4837 28.9079 18.2107 28.9485 18.2338C28.9892 18.2569 29.108 18.401 29.2126 18.5541L29.4027 18.8323L29.1826 19.1815C29.0615 19.3736 28.4836 20.0517 27.8983 20.6886C27.313 21.3255 26.8011 21.9436 26.7608 22.0623C26.5949 22.5497 26.4533 24.005 26.4569 25.1847C26.4611 26.5849 26.6031 27.7547 27.0986 30.4744C27.2677 31.4026 27.4084 32.1783 27.4113 32.198C27.4142 32.2178 27.5862 31.6751 27.7935 30.9919C28.4424 28.854 29.0378 27.6004 30.482 25.3314C30.7667 24.8841 31.2535 24.1188 31.5636 23.6308C32.2604 22.5345 32.7786 21.6122 33.2745 20.5862C33.8459 19.4037 33.8066 19.4567 34.0431 19.5472C34.1539 19.5896 34.3172 19.6837 34.406 19.7561C34.5661 19.8869 34.5665 19.8911 34.4521 20.2647C34.3088 20.733 33.863 21.7064 33.4559 22.4403C33.2862 22.7462 33.1336 23.0233 33.1168 23.0561C33.0584 23.17 34.2754 22.4682 34.7075 22.1388C35.5398 21.5043 36.1392 20.5751 36.4629 19.4175L36.6649 18.6951L36.3766 18.4809C36.0954 18.272 36.0693 18.2673 35.3244 18.2919C34.6864 18.313 34.512 18.2935 34.2657 18.1738C33.6964 17.897 33.4259 17.4629 33.5395 17.0082C33.6682 16.4926 34.1958 16.1408 34.9759 16.0506C35.4906 15.9911 35.4939 15.9892 35.8245 15.5962C36.2965 15.035 36.7175 14.8707 37.7305 14.8525C38.2476 14.8432 38.6572 14.7929 38.997 14.6971C40.3846 14.3057 41.9999 14.6927 42.4297 15.5194C42.5524 15.7556 42.5519 15.7822 42.4203 16.0763C42.1774 16.619 41.5218 16.948 40.4928 17.0436L39.8067 17.1072L39.4785 17.4329C39.0625 17.8455 38.5467 18.1991 38.2102 18.3024C37.9533 18.3812 37.944 18.3978 37.6929 19.2223C37.5522 19.6842 37.4399 20.062 37.4431 20.0619C37.5823 20.0569 38.8126 19.4917 39.3046 19.2066C39.6757 18.9916 40.0224 18.8142 40.075 18.8123C40.1275 18.8104 40.2295 18.8696 40.3017 18.9436C40.4885 19.1354 40.4077 19.3416 39.9641 19.8054C39.527 20.2623 38.5974 20.7815 37.2879 21.2999C36.5794 21.5805 36.4141 21.6757 36.2583 21.8933C35.5612 22.8672 35.3923 23.0367 34.4766 23.6804C33.9625 24.0418 33.3669 24.4616 33.1531 24.6134C32.6828 24.9473 31.6184 26.0685 31.1917 26.6796C30.7508 27.3112 30.1556 28.4266 29.852 29.1904C29.5468 29.9583 29.162 31.2355 29.2029 31.3448C29.2185 31.3868 29.6663 30.9167 30.198 30.3001C31.4782 28.8154 32.5578 27.798 34.5496 26.1991C35.9675 25.061 36.8592 24.4408 37.8793 23.8833C39.2299 23.1452 39.5186 23.0601 39.8374 23.3065C39.9915 23.4255 40.0058 23.4692 39.9414 23.6245C39.9002 23.7236 39.7042 23.9003 39.5057 24.0172C38.2243 24.7722 37.3697 25.3256 36.8701 25.724L36.2966 26.1813L37.1227 26.1062C38.4429 25.9861 39.9337 26.2019 40.5395 26.6008C40.8225 26.7872 40.8248 26.8845 40.5513 27.1015C40.3373 27.2713 40.3199 27.2734 39.7396 27.198C38.8468 27.082 36.7547 27.1759 36.0576 27.3633C35.3255 27.5601 34.4478 27.9448 33.8049 28.3506C33.229 28.7141 32.0922 29.6733 31.6202 30.1938C31.3124 30.5334 31.2918 30.6327 31.456 30.9861C31.4969 31.0742 31.4175 31.2168 31.1689 31.5022C30.0589 32.7761 29.1757 34.2828 28.647 35.8044C28.0834 37.4264 28.0673 37.5348 28.1389 39.2194C28.2249 41.2398 28.5222 43.3107 28.7391 43.3992C28.9162 43.4716 34.0353 43.3071 34.8613 43.2025C36.1185 43.0434 37.5003 42.8243 38.3843 42.6441C40.1158 42.2911 42.2772 41.5544 43.7427 40.8178C44.5549 40.4096 44.617 40.3679 45.6315 38.7665C47.8702 35.2328 49.0853 31.4386 49.3336 27.2074C49.4096 25.9121 49.2461 23.2777 49.0147 22.0692C47.6168 14.7695 42.7475 8.58396 35.9539 5.47775C33.5254 4.36738 31.4485 3.77648 28.8546 3.45799C27.983 3.35091 25.9718 3.25286 25.4921 3.29404C25.3662 3.30485 24.8081 3.353 24.2519 3.40101ZM28.1334 9.45756C28.3646 9.58302 28.6531 10.0512 28.6625 10.3161C28.6753 10.6782 28.2652 11.1837 27.8407 11.3291C27.3809 11.4866 26.7178 11.0934 26.6061 10.597C26.5176 10.2037 26.6703 9.74892 26.9612 9.53892C27.2587 9.32414 27.8163 9.28548 28.1334 9.45756ZM31.2562 9.62485C31.541 9.75926 31.8066 10.2745 31.75 10.5828C31.6919 10.9004 31.3131 11.2947 30.9986 11.3652C30.6591 11.4412 30.2353 11.2525 30.0344 10.9357C29.8758 10.6856 29.8376 10.2301 29.9551 9.99093C30.1488 9.5971 30.8057 9.41225 31.2562 9.62485ZM34.3813 10.1245C34.8586 10.3465 35.143 10.9925 34.9677 11.4564C34.7672 11.987 34.3473 12.2931 33.793 12.3127C32.7954 12.348 32.2367 11.1648 32.8907 10.402C33.2281 10.0084 33.8735 9.88823 34.3813 10.1245ZM29.9941 11.9739C30.4348 12.2402 30.648 12.8616 30.469 13.358C30.3257 13.7554 30.049 13.9976 29.5942 14.1236C29.0959 14.2616 28.658 14.1188 28.3427 13.7154C28.0893 13.3912 28.0281 12.9052 28.1876 12.4833C28.4198 11.8688 29.3747 11.5996 29.9941 11.9739ZM36.964 12.125C37.6884 12.5314 37.6165 13.5044 36.8409 13.7906C36.4656 13.929 36.2057 13.8668 35.8997 13.5652C35.6905 13.3591 35.6503 13.2679 35.6423 12.983C35.6307 12.5618 35.7452 12.3304 36.0537 12.1521C36.368 11.9705 36.6723 11.9615 36.964 12.125ZM33.7193 13.2905C34.2379 13.5139 34.4884 14.1438 34.2894 14.7242C33.9777 15.6336 32.6317 15.8126 32.1227 15.0122C31.434 13.9294 32.5097 12.7694 33.7193 13.2905ZM12.7873 15.1535C12.8905 15.2435 13.0154 15.4368 13.0651 15.583C13.1433 15.8136 13.135 15.8946 13.0026 16.1939C12.7771 16.7038 12.2208 16.9095 11.7138 16.6703C11.1265 16.3931 11.0889 15.4238 11.6521 15.0792C11.9325 14.9076 12.5521 14.9482 12.7873 15.1535ZM15.5933 15.1113C15.732 15.2402 15.826 15.4136 15.8576 15.5985C15.9001 15.8474 15.877 15.9216 15.6853 16.1558C15.2806 16.6497 14.5814 16.6075 14.3356 16.0744C14.1903 15.7594 14.1889 15.6507 14.3258 15.3345C14.5391 14.8419 15.1817 14.7287 15.5933 15.1113ZM27.4442 14.8136C28.0848 15.1159 28.0513 16.0075 27.3916 16.2145C26.8627 16.3806 26.4026 16.0671 26.3835 15.5279C26.3702 15.1534 26.4669 14.9683 26.7451 14.8357C27.0389 14.6957 27.1845 14.6911 27.4442 14.8136ZM19.1818 15.3985C19.9827 15.8295 20.0421 16.8822 19.2959 17.4231C18.4874 18.0092 17.3229 17.4589 17.288 16.4743C17.2542 15.518 18.3 14.924 19.1818 15.3985ZM30.9755 15.0798C31.4405 15.271 31.6381 15.5798 31.6581 16.1467C31.6716 16.5264 31.6432 16.6634 31.5096 16.8651C31.0158 17.6101 29.7921 17.5786 29.3489 16.8095C28.7367 15.7471 29.8134 14.6021 30.9755 15.0798ZM23.0952 16.9406C23.5051 17.2238 23.7223 17.7371 23.6249 18.1917C23.5275 18.6459 22.9867 19.0554 22.4597 19.0741C21.2729 19.116 20.8994 17.4211 21.9754 16.8761C22.2496 16.7372 22.8511 16.7718 23.0952 16.9406ZM43.5081 17.4906C44.0872 17.7083 44.387 18.4454 44.1245 19.0067C43.9582 19.3624 43.7437 19.5248 43.2733 19.6507C42.9524 19.7366 42.8876 19.7306 42.5638 19.5844C41.9683 19.3156 41.7165 18.7753 41.9148 18.1918C42.1269 17.5677 42.8577 17.2461 43.5081 17.4906ZM32.0032 18.5427C32.3822 18.725 32.6859 19.1651 32.7107 19.5682C32.7334 19.9354 32.5028 20.378 32.1488 20.6467C31.892 20.8416 31.7836 20.8764 31.3903 20.8903C30.8945 20.9079 30.6689 20.8064 30.3651 20.429C30.1267 20.1328 30.1109 19.2913 30.3373 18.9496C30.6739 18.4418 31.4162 18.2605 32.0032 18.5427ZM7.76888 20.1737C8.00904 20.3084 8.30644 20.7771 8.31903 21.0408C8.32241 21.1118 8.26417 21.3005 8.18961 21.46C7.95252 21.967 7.26104 22.215 6.75293 21.9752C6.09554 21.665 6.03209 20.6129 6.64646 20.2088C6.94681 20.0112 7.45096 19.9954 7.76888 20.1737ZM11.491 21.4564C11.8076 21.5928 12.0899 22.0931 12.036 22.422C11.9284 23.0783 11.1569 23.4933 10.5642 23.2136C10.0457 22.969 9.85569 22.1925 10.2053 21.7469C10.3071 21.6172 10.4572 21.4814 10.5388 21.445C10.781 21.3371 11.2265 21.3425 11.491 21.4564ZM43.7522 20.8095C44.1343 20.9106 44.5293 21.0818 44.7002 21.2203C44.7959 21.2978 44.8662 21.2922 45.1336 21.1853C45.3092 21.1152 45.6807 21.0465 45.9591 21.0327C46.3735 21.0121 46.5252 21.0383 46.7952 21.1768C47.7353 21.6591 47.7099 22.9122 46.7518 23.3204C46.0717 23.6101 45.3165 23.4613 44.7765 22.9313L44.5325 22.6919L43.9452 22.8624C42.4365 23.3003 40.7852 22.9444 40.4896 22.1177C40.3632 21.7641 40.8607 21.2542 41.6165 20.9628C42.2011 20.7375 43.2069 20.6652 43.7522 20.8095ZM7.43864 22.9283C8.08844 23.0895 8.61965 23.7548 8.56238 24.3357C8.47818 25.1895 7.50566 25.8142 6.64837 25.5652C6.17335 25.4272 5.69995 24.7862 5.68232 24.2572C5.674 24.0056 5.9872 23.3705 6.19989 23.2078C6.56679 22.9272 7.02113 22.8246 7.43864 22.9283ZM42.8505 24.1024C43.1344 24.2364 43.4247 24.5837 43.5251 24.9094C43.651 25.3177 43.5339 25.7451 43.2041 26.0814C42.1689 27.1369 40.5207 26.0338 41.1441 24.7027C41.2274 24.5248 41.3789 24.3141 41.4806 24.2346C41.8442 23.9504 42.4123 23.8956 42.8505 24.1024ZM10.2915 25.5939C10.7647 25.8144 10.9251 26.0533 10.9432 26.5647C10.9613 27.0759 10.8193 27.3236 10.3591 27.5838C9.77332 27.9152 9.10621 27.7029 8.80829 27.0904C8.47786 26.4111 8.79142 25.731 9.52982 25.5254C9.87779 25.4284 9.95047 25.435 10.2915 25.5939Z" fill="white"/>
<path d="M64.0281 24.2515C63.0504 24.2515 62.2187 24.1245 61.5331 23.8706C60.8474 23.6039 60.3332 23.3246 59.9903 23.0325V20.4042C60.4348 20.6581 61.0252 20.9248 61.7616 21.2041C62.5108 21.4835 63.3361 21.6231 64.2376 21.6231C64.8217 21.6231 65.2534 21.5089 65.5328 21.2803C65.8248 21.0517 65.9708 20.7407 65.9708 20.347C65.9708 19.9915 65.8565 19.6995 65.628 19.4709C65.3994 19.2424 65.0566 19.0329 64.5995 18.8424C64.1424 18.6519 63.5583 18.4297 62.8473 18.1758C61.8315 17.8076 61.0442 17.3314 60.4855 16.7473C59.9269 16.1632 59.6475 15.376 59.6475 14.3856C59.6475 13.6873 59.7999 13.0333 60.1046 12.4239C60.4221 11.8144 60.9109 11.3255 61.5712 10.9573C62.2441 10.5764 63.1012 10.3859 64.1424 10.3859C64.5487 10.3859 64.9487 10.405 65.3423 10.4431C65.7486 10.4685 66.0914 10.5066 66.3708 10.5573L68.523 12.1382L67.5707 14.0809L64.0853 12.8429C63.6281 12.8429 63.2472 12.9572 62.9425 13.1857C62.6504 13.4016 62.5044 13.7126 62.5044 14.119C62.5044 14.6269 62.7139 15.0141 63.133 15.2808C63.5647 15.5474 64.1678 15.8077 64.9423 16.0617C66.4152 16.5442 67.4501 17.1283 68.0468 17.8139C68.6436 18.4869 68.942 19.2805 68.942 20.1947C68.942 20.9311 68.7896 21.6104 68.4849 22.2326C68.1802 22.8421 67.6659 23.3309 66.9422 23.6992C66.2311 24.0674 65.2598 24.2515 64.0281 24.2515ZM69.7356 24.061L70.8402 20.4613V18.6138L72.0592 18.0425L74.5352 10.5954H78.2873L81.3537 19.1281L82.8202 21.8326V24.061H80.2109L79.0681 20.6327H73.5257L72.5163 24.061H69.7356ZM74.5923 18.271H78.2111L76.5731 13.1095H76.1731L74.5923 18.271ZM86.143 24.061L82.7147 13.6047L82.1433 11.7192V10.5764H84.9622L87.6477 21.166H88.0286L90.676 10.5764H93.4567V11.7192L92.8854 13.6047L89.4761 24.061H86.143ZM92.7806 24.061L93.8853 20.4613V18.6138L95.1042 18.0425L97.5802 10.5954H101.332L104.399 19.1281L105.865 21.8326V24.061H103.256L102.113 20.6327H96.5708L95.5613 24.061H92.7806ZM97.6374 18.271H101.256L99.6182 13.1095H99.2182L97.6374 18.271ZM107.58 24.061V13.6428L107.199 11.7382L107.58 10.5954H109.885L114.494 17.2997L115.408 18.8805H115.598V10.5954H118.398V11.7382L118.208 13.6428V24.061H116.017L110.437 15.8331H110.246V16.9759L110.437 24.061H107.58ZM121.065 24.061V13.6428L120.684 11.7382L121.065 10.5954H123.369L127.979 17.2997L128.893 18.8805H129.083V10.5954H131.883V11.7382L131.693 13.6428V24.061H129.502L123.922 15.8331H123.731V16.9759L123.922 24.061H121.065ZM133.216 24.061L134.321 20.4613V18.6138L135.54 18.0425L138.016 10.5954H141.768L144.835 19.1281L146.301 21.8326V24.061H143.692L142.549 20.6327H137.007L135.997 24.061H133.216ZM138.073 18.271H141.692L140.054 13.1095H139.654L138.073 18.271ZM60.2951 48.061V37.6428L60.1046 35.7382L60.2951 34.5764H62.9615V40.1379H68.4659V34.5764H71.1323V41.7377L71.3228 43.0519V48.061H68.4659V42.6329H62.9615V44.1756L63.152 48.061H60.2951ZM72.6557 48.061L73.7604 44.4613V42.6138L74.9793 42.0425L77.4553 34.5954H81.2074L84.2738 43.1281L85.7404 45.8326V48.061H83.1311L81.9883 44.6327H76.4459L75.4364 48.061H72.6557ZM77.5125 42.271H81.1312L79.4933 37.1095H79.0933L77.5125 42.271ZM92.0071 48.2515C90.6993 48.2515 89.6708 48.0356 88.9217 47.6039C88.1852 47.1722 87.6583 46.5373 87.3409 45.6993C87.0361 44.8486 86.8837 43.8138 86.8837 42.5948V37.6428L86.9028 35.7192L86.8837 34.5764H89.5883V42.7853C89.5883 43.6741 89.7661 44.3978 90.1216 44.9565C90.4771 45.5025 91.1056 45.7755 92.0071 45.7755C92.9087 45.7755 93.5435 45.5216 93.9118 45.0137C94.2927 44.4931 94.4831 43.7503 94.4831 42.7853V34.5764H97.1306V42.5948C97.1306 43.7884 96.9782 44.8105 96.6734 45.6612C96.3814 46.4993 95.8608 47.1405 95.1117 47.5849C94.3752 48.0293 93.3404 48.2515 92.0071 48.2515ZM103.143 48.2515C102.166 48.2515 101.334 48.1245 100.648 47.8706C99.9626 47.6039 99.4484 47.3246 99.1055 47.0325V44.4042C99.55 44.6581 100.14 44.9248 100.877 45.2041C101.626 45.4835 102.451 45.6231 103.353 45.6231C103.937 45.6231 104.369 45.5089 104.648 45.2803C104.94 45.0517 105.086 44.7407 105.086 44.347C105.086 43.9915 104.972 43.6995 104.743 43.4709C104.515 43.2424 104.172 43.0329 103.715 42.8424C103.258 42.6519 102.674 42.4297 101.962 42.1758C100.947 41.8076 100.159 41.3314 99.6007 40.7473C99.0421 40.1632 98.7627 39.376 98.7627 38.3856C98.7627 37.6873 98.9151 37.0333 99.2198 36.4239C99.5373 35.8144 100.026 35.3255 100.686 34.9573C101.359 34.5764 102.216 34.3859 103.258 34.3859C103.664 34.3859 104.064 34.405 104.457 34.4431C104.864 34.4685 105.207 34.5066 105.486 34.5573L107.638 36.1382L106.686 38.0809L103.2 36.8429C102.743 36.8429 102.362 36.9572 102.058 37.1857C101.766 37.4016 101.62 37.7126 101.62 38.119C101.62 38.6269 101.829 39.0141 102.248 39.2808C102.68 39.5474 103.283 39.8077 104.058 40.0617C105.53 40.5442 106.565 41.1283 107.162 41.8139C107.759 42.4869 108.057 43.2805 108.057 44.1947C108.057 44.9311 107.905 45.6104 107.6 46.2326C107.295 46.8421 106.781 47.3309 106.057 47.6992C105.346 48.0674 104.375 48.2515 103.143 48.2515Z" fill="white"/>
</svg>
