<svg width="78" height="77" viewBox="0 0 78 77" fill="none" xmlns="http://www.w3.org/2000/svg">
<path d="M15.9906 24.7942C17.2831 25.2817 18.5218 25.7204 19.7122 26.1078C25.0878 27.8573 29.6571 28.6248 33.8749 28.0336L33.8766 28.0334C38.989 27.3124 43.2704 24.7025 47.7098 20.2698C49.2592 18.7227 50.8464 16.9344 52.5119 14.8998C51.7954 16.7988 51.1831 18.582 50.6823 20.2666C48.9847 25.976 48.5003 30.761 49.7042 35.2477C50.9076 39.7324 53.727 43.6551 58.0589 47.7631C59.3087 48.9483 60.6974 50.1608 62.2274 51.4174C60.92 50.9248 59.6676 50.4824 58.4643 50.0927C53.0809 48.3489 48.5065 47.5976 44.2503 48.1995C44.2492 48.1996 44.248 48.1998 44.2469 48.1999C39.1715 48.9105 34.9033 51.5339 30.4762 55.9655C28.9426 57.5007 27.3708 59.2726 25.7225 61.2853C26.735 58.6006 27.5397 56.1427 28.1158 53.8637C29.6833 47.6623 29.6136 42.5747 27.3237 37.7021C25.5852 33.9735 22.6069 30.5436 18.4722 26.8983C17.6911 26.2097 16.864 25.5094 15.9906 24.7942Z" stroke="url(#paint0_linear_1_132)" stroke-width="4"/>
<defs>
<linearGradient id="paint0_linear_1_132" x1="61.1051" y1="0" x2="17.1051" y2="76.2102" gradientUnits="userSpaceOnUse">
<stop offset="0.274588" stop-color="#DF61FB"/>
<stop offset="0.608669" stop-color="#23C5ED"/>
<stop offset="1" stop-color="#27F488"/>
</linearGradient>
</defs>
</svg>
