<svg width="23" height="25" viewBox="0 0 23 25" fill="none" xmlns="http://www.w3.org/2000/svg">
<path d="M11.4922 5.07352C11.5569 5.49666 11.6264 5.89505 11.7026 6.27005C12.0081 7.77328 12.429 8.94784 13.1078 9.85516L13.1081 9.8555C13.933 10.9561 15.0777 11.6106 16.6621 12.0549C17.2879 12.2304 17.9901 12.3752 18.7781 12.5021C18.1486 12.6038 17.5746 12.7167 17.0511 12.8472C15.5362 13.2251 14.3935 13.7627 13.5405 14.6535C12.6899 15.5417 12.174 16.7324 11.8119 18.3089C11.6981 18.8039 11.5985 19.3423 11.5084 19.9277C11.443 19.5006 11.3725 19.0988 11.2952 18.7207C10.9874 17.2164 10.5621 16.0426 9.87561 15.1275C9.05799 14.0341 7.91187 13.3844 6.32905 12.9428C5.70792 12.7695 5.01145 12.6261 4.23099 12.5002C5.08227 12.3625 5.83351 12.2039 6.49623 12.008C8.10576 11.5323 9.24189 10.8232 10.0387 9.62799C10.6499 8.71718 11.0349 7.55482 11.3188 6.08559C11.3807 5.76514 11.4382 5.42805 11.4922 5.07352Z" stroke="black"/>
</svg>
