<svg width="579" height="91" viewBox="0 0 579 91" fill="none" xmlns="http://www.w3.org/2000/svg">
<g clip-path="url(#clip0_1_94)">
<g opacity="0.9">
<mask id="path-2-outside-1_1_94" maskUnits="userSpaceOnUse" x="2" y="6" width="579" height="83" fill="black">
<rect fill="white" x="2" y="6" width="579" height="83"/>
<path d="M34.45 86.06C30.5633 86.06 26.712 85.7067 22.896 85C19.1507 84.364 15.8293 83.516 12.932 82.456C10.0347 81.396 7.95 80.336 6.678 79.276V57.122C9.36333 58.606 12.3667 59.9487 15.688 61.15C19.0093 62.3513 22.366 63.3053 25.758 64.012C29.2207 64.648 32.5067 64.966 35.616 64.966C39.9267 64.966 42.082 63.9767 42.082 61.998C42.082 61.0087 41.6227 60.196 40.704 59.56C39.856 58.8533 38.3367 58.1113 36.146 57.334C33.9553 56.5567 30.846 55.5673 26.818 54.366C22.154 52.882 18.1613 51.3273 14.84 49.702C11.5893 48.0767 9.08067 45.992 7.314 43.448C5.618 40.904 4.77 37.512 4.77 33.272C4.77 25.9227 7.70267 20.022 13.568 15.57C19.4333 11.118 28.0193 8.89199 39.326 8.89199C41.5873 8.89199 43.99 8.99799 46.534 9.21C49.1487 9.35133 51.2333 9.56333 52.788 9.84599L65.826 18.644L60.526 34.756L33.39 27.866C30.5633 27.866 29.15 28.82 29.15 30.728C29.15 32.212 30.0333 33.4487 31.8 34.438C33.6373 35.3567 36.9233 36.6287 41.658 38.254C47.9473 40.374 52.9293 42.5647 56.604 44.826C60.3493 47.0167 63.0347 49.5253 64.66 52.352C66.2853 55.1787 67.098 58.5353 67.098 62.422C67.098 69.4887 64.3773 75.2127 58.936 79.594C53.4947 83.9047 45.3327 86.06 34.45 86.06ZM72.5893 85L77.6773 67.086V53.624L85.5213 50.444L100.361 10.058H132.267L150.393 57.546L158.555 72.598V85H135.553L130.253 69.206H101.527L96.9693 85H72.5893ZM108.523 50.656H124.423L117.427 29.562H115.201L108.523 50.656ZM177.157 85L158.077 26.806L154.897 16.312V9.952H179.489L192.209 63.588H194.329L206.943 9.952H231.217V16.312L228.037 26.806L209.063 85H177.157ZM227.552 85L232.64 67.086V53.624L240.484 50.444L255.324 10.058H287.23L305.356 57.546L313.518 72.598V85H290.516L285.216 69.206H256.49L251.932 85H227.552ZM263.486 50.656H279.386L272.39 29.562H270.164L263.486 50.656ZM323.064 85V27.018L320.944 16.418L323.064 10.058H344.37L365.782 36.77L370.87 45.568H371.93V10.058H396.416V16.418L395.356 27.018V85H374.262L347.656 48.748H346.596V55.108L347.656 85H323.064ZM411.259 85V27.018L409.139 16.418L411.259 10.058H432.565L453.977 36.77L459.065 45.568H460.125V10.058H484.611V16.418L483.551 27.018V85H462.457L435.851 48.748H434.791V55.108L435.851 85H411.259ZM492.035 85L497.123 67.086V53.624L504.967 50.444L519.807 10.058H551.713L569.839 57.546L578.001 72.598V85H554.999L549.699 69.206H520.973L516.415 85H492.035ZM527.969 50.656H543.869L536.873 29.562H534.647L527.969 50.656Z"/>
</mask>
<path d="M22.896 85L23.2602 83.0334L23.2455 83.0307L23.2308 83.0282L22.896 85ZM12.932 82.456L13.6192 80.5778H13.6192L12.932 82.456ZM6.678 79.276H4.678V80.2128L5.39763 80.8124L6.678 79.276ZM6.678 57.122L7.64537 55.3715L4.678 53.7317V57.122H6.678ZM15.688 61.15L15.0077 63.0308L15.688 61.15ZM25.758 64.012L25.3501 65.97L25.3733 65.9748L25.3967 65.9791L25.758 64.012ZM40.704 59.56L39.4236 61.0964L39.4922 61.1536L39.5656 61.2044L40.704 59.56ZM36.146 57.334L36.8148 55.4491L36.146 57.334ZM26.818 54.366L26.2116 56.2719L26.2289 56.2774L26.2464 56.2826L26.818 54.366ZM14.84 49.702L13.9456 51.4909L13.9532 51.4947L13.9609 51.4984L14.84 49.702ZM7.314 43.448L5.6499 44.5574L5.66043 44.5732L5.67126 44.5888L7.314 43.448ZM46.534 9.21L46.3679 11.2031L46.3969 11.2055L46.4261 11.2071L46.534 9.21ZM52.788 9.84599L53.9067 8.18814L53.5588 7.95334L53.1458 7.87825L52.788 9.84599ZM65.826 18.644L67.7259 19.2689L68.1985 17.8322L66.9447 16.9861L65.826 18.644ZM60.526 34.756L60.0338 36.6945L61.8427 37.1538L62.4259 35.3809L60.526 34.756ZM33.39 27.866L33.8822 25.9275L33.6399 25.866H33.39V27.866ZM31.8 34.438L30.8228 36.183L30.8637 36.2059L30.9056 36.2269L31.8 34.438ZM41.658 38.254L41.0086 40.1457L41.0192 40.1492L41.658 38.254ZM56.604 44.826L55.5558 46.5293L55.5749 46.5411L55.5942 46.5524L56.604 44.826ZM64.66 52.352L66.3938 51.3551L64.66 52.352ZM58.936 79.594L60.1779 81.1617L60.1841 81.1568L60.1903 81.1518L58.936 79.594ZM34.45 84.06C30.6853 84.06 26.9559 83.7178 23.2602 83.0334L22.5318 86.9666C26.4681 87.6955 30.4414 88.06 34.45 88.06V84.06ZM23.2308 83.0282C19.5792 82.4081 16.3795 81.5876 13.6192 80.5778L12.2448 84.3342C15.2791 85.4444 18.7221 86.3199 22.5612 86.9718L23.2308 83.0282ZM13.6192 80.5778C10.7848 79.5408 8.96138 78.5754 7.95837 77.7396L5.39763 80.8124C6.93862 82.0966 9.28457 83.2512 12.2448 84.3342L13.6192 80.5778ZM8.678 79.276V57.122H4.678V79.276H8.678ZM5.71063 58.8725C8.50064 60.4143 11.6019 61.7989 15.0077 63.0308L16.3683 59.2692C13.1315 58.0985 10.226 56.7977 7.64537 55.3715L5.71063 58.8725ZM15.0077 63.0308C18.4162 64.2636 21.8638 65.2437 25.3501 65.97L26.1659 62.054C22.8682 61.367 19.6025 60.4391 16.3683 59.2692L15.0077 63.0308ZM25.3967 65.9791C28.9632 66.6342 32.3708 66.966 35.616 66.966V62.966C32.6425 62.966 29.4781 62.6618 26.1193 62.0449L25.3967 65.9791ZM35.616 66.966C37.8615 66.966 39.8262 66.7181 41.2998 66.0417C42.0616 65.692 42.7742 65.1905 43.2962 64.4717C43.8336 63.7317 44.082 62.8797 44.082 61.998H40.082C40.082 62.1057 40.061 62.1193 40.0596 62.1213C40.0427 62.1445 39.947 62.2614 39.6312 62.4063C38.9495 62.7192 37.6811 62.966 35.616 62.966V66.966ZM44.082 61.998C44.082 60.2595 43.2195 58.869 41.8424 57.9156L39.5656 61.2044C40.0258 61.523 40.082 61.7578 40.082 61.998H44.082ZM41.9844 58.0236C40.8461 57.075 39.0373 56.2378 36.8148 55.4491L35.4772 59.2189C37.636 59.9849 38.866 60.6317 39.4236 61.0964L41.9844 58.0236ZM36.8148 55.4491C34.5762 54.6548 31.4288 53.6541 27.3896 52.4494L26.2464 56.2826C30.2632 57.4806 33.3345 58.4585 35.4772 59.2189L36.8148 55.4491ZM27.4244 52.4602C22.8259 50.997 18.9294 49.4766 15.7191 47.9056L13.9609 51.4984C17.3932 53.1781 21.4821 54.767 26.2116 56.2719L27.4244 52.4602ZM15.7344 47.9131C12.7314 46.4116 10.5015 44.5317 8.95674 42.3072L5.67126 44.5888C7.65983 47.4523 10.4473 49.7417 13.9456 51.4909L15.7344 47.9131ZM8.9781 42.3386C7.57073 40.2275 6.77 37.2647 6.77 33.272H2.77C2.77 37.7593 3.66527 41.5805 5.6499 44.5574L8.9781 42.3386ZM6.77 33.272C6.77 26.5496 9.40892 21.2378 14.7772 17.1631L12.3588 13.9769C5.99641 18.8062 2.77 25.2958 2.77 33.272H6.77ZM14.7772 17.1631C20.1526 13.083 28.2355 10.892 39.326 10.892V6.89199C27.8032 6.89199 18.7141 9.15303 12.3588 13.9769L14.7772 17.1631ZM39.326 10.892C41.5254 10.892 43.8723 10.9951 46.3679 11.2031L46.7001 7.21691C44.1077 7.00088 41.6493 6.89199 39.326 6.89199V10.892ZM46.4261 11.2071C49.0036 11.3464 50.994 11.5526 52.4302 11.8137L53.1458 7.87825C51.4726 7.57405 49.2937 7.35625 46.6419 7.21291L46.4261 11.2071ZM51.6693 11.5038L64.7073 20.3018L66.9447 16.9861L53.9067 8.18814L51.6693 11.5038ZM63.9262 18.019L58.6262 34.131L62.4259 35.3809L67.7259 19.2689L63.9262 18.019ZM61.0182 32.8175L33.8822 25.9275L32.8978 29.8045L60.0338 36.6945L61.0182 32.8175ZM33.39 25.866C31.8144 25.866 30.2812 26.1205 29.0911 26.9238C27.761 27.8216 27.15 29.2019 27.15 30.728H31.15C31.15 30.4987 31.1917 30.395 31.2083 30.3614C31.2205 30.3366 31.2433 30.297 31.3289 30.2392C31.5522 30.0885 32.1389 29.866 33.39 29.866V25.866ZM27.15 30.728C27.15 33.1926 28.6858 34.9863 30.8228 36.183L32.7772 32.693C31.3808 31.911 31.15 31.2314 31.15 30.728H27.15ZM30.9056 36.2269C32.8748 37.2115 36.2751 38.5207 41.0086 40.1456L42.3074 36.3624C37.5715 34.7366 34.3998 33.5018 32.6944 32.6491L30.9056 36.2269ZM41.0192 40.1492C47.2331 42.2438 52.0592 44.3775 55.5558 46.5293L57.6522 43.1227C53.7995 40.7518 48.6616 38.5042 42.2968 36.3588L41.0192 40.1492ZM55.5942 46.5524C59.135 48.6234 61.5227 50.9081 62.9262 53.3489L66.3938 51.3551C64.5466 48.1425 61.5637 45.41 57.6138 43.0996L55.5942 46.5524ZM62.9262 53.3489C64.3464 55.8188 65.098 58.8178 65.098 62.422H69.098C69.098 58.2528 68.2243 54.5385 66.3938 51.3551L62.9262 53.3489ZM65.098 62.422C65.098 68.8915 62.6452 74.0396 57.6817 78.0362L60.1903 81.1518C66.1095 76.3857 69.098 70.0859 69.098 62.422H65.098ZM57.6941 78.0263C52.7572 81.9373 45.1224 84.06 34.45 84.06V88.06C45.543 88.06 54.2321 85.872 60.1779 81.1617L57.6941 78.0263ZM72.5893 85L70.6654 84.4536L69.9421 87H72.5893V85ZM77.6773 67.086L79.6012 67.6324L79.6773 67.3645V67.086H77.6773ZM77.6773 53.624L76.9259 51.7705L75.6773 52.2767V53.624H77.6773ZM85.5213 50.444L86.2727 52.2975L87.0932 51.9648L87.3986 51.1338L85.5213 50.444ZM100.361 10.058V8.058H98.9655L98.484 9.36819L100.361 10.058ZM132.267 10.058L134.136 9.34479L133.645 8.058H132.267V10.058ZM150.393 57.546L148.525 58.2592L148.572 58.3829L148.635 58.4994L150.393 57.546ZM158.555 72.598H160.555V72.0906L160.313 71.6446L158.555 72.598ZM158.555 85V87H160.555V85H158.555ZM135.553 85L133.657 85.6363L134.115 87H135.553V85ZM130.253 69.206L132.149 68.5697L131.692 67.206H130.253V69.206ZM101.527 69.206V67.206H100.023L99.6057 68.6515L101.527 69.206ZM96.9693 85V87H98.4737L98.8909 85.5546L96.9693 85ZM108.523 50.656L106.617 50.0524L105.792 52.656H108.523V50.656ZM124.423 50.656V52.656H127.194L126.322 50.0264L124.423 50.656ZM117.427 29.562L119.326 28.9324L118.871 27.562H117.427V29.562ZM115.201 29.562V27.562H113.737L113.295 28.9584L115.201 29.562ZM74.5132 85.5464L79.6012 67.6324L75.7534 66.5396L70.6654 84.4536L74.5132 85.5464ZM79.6773 67.086V53.624H75.6773V67.086H79.6773ZM78.4287 55.4775L86.2727 52.2975L84.7699 48.5905L76.9259 51.7705L78.4287 55.4775ZM87.3986 51.1338L102.239 10.7478L98.484 9.36819L83.644 49.7542L87.3986 51.1338ZM100.361 12.058H132.267V8.058H100.361V12.058ZM130.399 10.7712L148.525 58.2592L152.262 56.8328L134.136 9.34479L130.399 10.7712ZM148.635 58.4994L156.797 73.5514L160.313 71.6446L152.151 56.5926L148.635 58.4994ZM156.555 72.598V85H160.555V72.598H156.555ZM158.555 83H135.553V87H158.555V83ZM137.449 84.3637L132.149 68.5697L128.357 69.8423L133.657 85.6363L137.449 84.3637ZM130.253 67.206H101.527V71.206H130.253V67.206ZM99.6057 68.6515L95.0477 84.4454L98.8909 85.5546L103.449 69.7606L99.6057 68.6515ZM96.9693 83H72.5893V87H96.9693V83ZM108.523 52.656H124.423V48.656H108.523V52.656ZM126.322 50.0264L119.326 28.9324L115.529 30.1916L122.525 51.2856L126.322 50.0264ZM117.427 27.562H115.201V31.562H117.427V27.562ZM113.295 28.9584L106.617 50.0524L110.43 51.2596L117.108 30.1656L113.295 28.9584ZM177.157 85L175.256 85.6231L175.708 87H177.157V85ZM158.077 26.806L156.163 27.386L156.169 27.4076L156.176 27.4291L158.077 26.806ZM154.897 16.312H152.897V16.6084L152.983 16.892L154.897 16.312ZM154.897 9.952V7.952H152.897V9.952H154.897ZM179.489 9.952L181.435 9.49049L181.07 7.952H179.489V9.952ZM192.209 63.588L190.263 64.0495L190.627 65.588H192.209V63.588ZM194.329 63.588V65.588H195.913L196.276 64.0459L194.329 63.588ZM206.943 9.952V7.952H205.358L204.996 9.49413L206.943 9.952ZM231.217 9.952H233.217V7.952H231.217V9.952ZM231.217 16.312L233.131 16.892L233.217 16.6084V16.312H231.217ZM228.037 26.806L229.938 27.426L229.945 27.4061L229.951 27.386L228.037 26.806ZM209.063 85V87H210.514L210.964 85.62L209.063 85ZM179.057 84.3769L159.977 26.1829L156.176 27.4291L175.256 85.6231L179.057 84.3769ZM159.991 26.226L156.811 15.732L152.983 16.892L156.163 27.386L159.991 26.226ZM156.897 16.312V9.952H152.897V16.312H156.897ZM154.897 11.952H179.489V7.952H154.897V11.952ZM177.543 10.4135L190.263 64.0495L194.155 63.1265L181.435 9.49049L177.543 10.4135ZM192.209 65.588H194.329V61.588H192.209V65.588ZM196.276 64.0459L208.89 10.4099L204.996 9.49413L192.382 63.1301L196.276 64.0459ZM206.943 11.952H231.217V7.952H206.943V11.952ZM229.217 9.952V16.312H233.217V9.952H229.217ZM229.303 15.732L226.123 26.226L229.951 27.386L233.131 16.892L229.303 15.732ZM226.135 26.186L207.161 84.38L210.964 85.62L229.938 27.426L226.135 26.186ZM209.063 83H177.157V87H209.063V83ZM227.552 85L225.628 84.4536L224.905 87H227.552V85ZM232.64 67.086L234.564 67.6324L234.64 67.3645V67.086H232.64ZM232.64 53.624L231.889 51.7705L230.64 52.2767V53.624H232.64ZM240.484 50.444L241.236 52.2975L242.056 51.9648L242.361 51.1338L240.484 50.444ZM255.324 10.058V8.058H253.928L253.447 9.36819L255.324 10.058ZM287.23 10.058L289.099 9.34479L288.608 8.058H287.23V10.058ZM305.356 57.546L303.488 58.2592L303.535 58.3829L303.598 58.4994L305.356 57.546ZM313.518 72.598H315.518V72.0906L315.276 71.6446L313.518 72.598ZM313.518 85V87H315.518V85H313.518ZM290.516 85L288.62 85.6363L289.078 87H290.516V85ZM285.216 69.206L287.112 68.5697L286.655 67.206H285.216V69.206ZM256.49 69.206V67.206H254.986L254.569 68.6515L256.49 69.206ZM251.932 85V87H253.437L253.854 85.5546L251.932 85ZM263.486 50.656L261.579 50.0524L260.755 52.656H263.486V50.656ZM279.386 50.656V52.656H282.157L281.285 50.0264L279.386 50.656ZM272.39 29.562L274.289 28.9324L273.834 27.562H272.39V29.562ZM270.164 29.562V27.562H268.7L268.257 28.9584L270.164 29.562ZM229.476 85.5464L234.564 67.6324L230.716 66.5396L225.628 84.4536L229.476 85.5464ZM234.64 67.086V53.624H230.64V67.086H234.64ZM233.392 55.4775L241.236 52.2975L239.733 48.5905L231.889 51.7705L233.392 55.4775ZM242.361 51.1338L257.201 10.7478L253.447 9.36819L238.607 49.7542L242.361 51.1338ZM255.324 12.058H287.23V8.058H255.324V12.058ZM285.362 10.7712L303.488 58.2592L307.225 56.8328L289.099 9.34479L285.362 10.7712ZM303.598 58.4994L311.76 73.5514L315.276 71.6446L307.114 56.5926L303.598 58.4994ZM311.518 72.598V85H315.518V72.598H311.518ZM313.518 83H290.516V87H313.518V83ZM292.412 84.3637L287.112 68.5697L283.32 69.8423L288.62 85.6363L292.412 84.3637ZM285.216 67.206H256.49V71.206H285.216V67.206ZM254.569 68.6515L250.011 84.4454L253.854 85.5546L258.412 69.7606L254.569 68.6515ZM251.932 83H227.552V87H251.932V83ZM263.486 52.656H279.386V48.656H263.486V52.656ZM281.285 50.0264L274.289 28.9324L270.492 30.1916L277.488 51.2856L281.285 50.0264ZM272.39 27.562H270.164V31.562H272.39V27.562ZM268.257 28.9584L261.579 50.0524L265.393 51.2596L272.071 30.1656L268.257 28.9584ZM323.064 85H321.064V87H323.064V85ZM323.064 27.018H325.064V26.82L325.025 26.6258L323.064 27.018ZM320.944 16.418L319.047 15.7855L318.879 16.2894L318.983 16.8102L320.944 16.418ZM323.064 10.058V8.058H321.622L321.167 9.42554L323.064 10.058ZM344.37 10.058L345.931 8.8071L345.33 8.058H344.37V10.058ZM365.782 36.77L367.513 35.7687L367.437 35.6374L367.343 35.5191L365.782 36.77ZM370.87 45.568L369.139 46.5693L369.716 47.568H370.87V45.568ZM371.93 45.568V47.568H373.93V45.568H371.93ZM371.93 10.058V8.058H369.93V10.058H371.93ZM396.416 10.058H398.416V8.058H396.416V10.058ZM396.416 16.418L398.406 16.617L398.416 16.5177V16.418H396.416ZM395.356 27.018L393.366 26.819L393.356 26.9182V27.018H395.356ZM395.356 85V87H397.356V85H395.356ZM374.262 85L372.65 86.1833L373.249 87H374.262V85ZM347.656 48.748L349.268 47.5647L348.669 46.748H347.656V48.748ZM346.596 48.748V46.748H344.596V48.748H346.596ZM346.596 55.108H344.596V55.1434L344.597 55.1789L346.596 55.108ZM347.656 85V87H349.728L349.655 84.9291L347.656 85ZM325.064 85V27.018H321.064V85H325.064ZM325.025 26.6258L322.905 16.0258L318.983 16.8102L321.103 27.4102L325.025 26.6258ZM322.841 17.0505L324.961 10.6905L321.167 9.42554L319.047 15.7855L322.841 17.0505ZM323.064 12.058H344.37V8.058H323.064V12.058ZM342.809 11.3089L364.221 38.0209L367.343 35.5191L345.931 8.8071L342.809 11.3089ZM364.051 37.7712L369.139 46.5693L372.601 44.5667L367.513 35.7687L364.051 37.7712ZM370.87 47.568H371.93V43.568H370.87V47.568ZM373.93 45.568V10.058H369.93V45.568H373.93ZM371.93 12.058H396.416V8.058H371.93V12.058ZM394.416 10.058V16.418H398.416V10.058H394.416ZM394.426 16.219L393.366 26.819L397.346 27.217L398.406 16.617L394.426 16.219ZM393.356 27.018V85H397.356V27.018H393.356ZM395.356 83H374.262V87H395.356V83ZM375.874 83.8167L349.268 47.5647L346.044 49.9313L372.65 86.1833L375.874 83.8167ZM347.656 46.748H346.596V50.748H347.656V46.748ZM344.596 48.748V55.108H348.596V48.748H344.596ZM344.597 55.1789L345.657 85.0709L349.655 84.9291L348.595 55.0371L344.597 55.1789ZM347.656 83H323.064V87H347.656V83ZM411.259 85H409.259V87H411.259V85ZM411.259 27.018H413.259V26.82L413.22 26.6258L411.259 27.018ZM409.139 16.418L407.242 15.7855L407.074 16.2894L407.178 16.8102L409.139 16.418ZM411.259 10.058V8.058H409.818L409.362 9.42554L411.259 10.058ZM432.565 10.058L434.126 8.8071L433.525 8.058H432.565V10.058ZM453.977 36.77L455.709 35.7687L455.633 35.6374L455.538 35.5191L453.977 36.77ZM459.065 45.568L457.334 46.5693L457.912 47.568H459.065V45.568ZM460.125 45.568V47.568H462.125V45.568H460.125ZM460.125 10.058V8.058H458.125V10.058H460.125ZM484.611 10.058H486.611V8.058H484.611V10.058ZM484.611 16.418L486.601 16.617L486.611 16.5177V16.418H484.611ZM483.551 27.018L481.561 26.819L481.551 26.9182V27.018H483.551ZM483.551 85V87H485.551V85H483.551ZM462.457 85L460.845 86.1833L461.444 87H462.457V85ZM435.851 48.748L437.464 47.5647L436.864 46.748H435.851V48.748ZM434.791 48.748V46.748H432.791V48.748H434.791ZM434.791 55.108H432.791V55.1434L432.793 55.1789L434.791 55.108ZM435.851 85V87H437.923L437.85 84.9291L435.851 85ZM413.259 85V27.018H409.259V85H413.259ZM413.22 26.6258L411.1 16.0258L407.178 16.8102L409.298 27.4102L413.22 26.6258ZM411.037 17.0505L413.157 10.6905L409.362 9.42554L407.242 15.7855L411.037 17.0505ZM411.259 12.058H432.565V8.058H411.259V12.058ZM431.005 11.3089L452.417 38.0209L455.538 35.5191L434.126 8.8071L431.005 11.3089ZM452.246 37.7712L457.334 46.5693L460.797 44.5667L455.709 35.7687L452.246 37.7712ZM459.065 47.568H460.125V43.568H459.065V47.568ZM462.125 45.568V10.058H458.125V45.568H462.125ZM460.125 12.058H484.611V8.058H460.125V12.058ZM482.611 10.058V16.418H486.611V10.058H482.611ZM482.621 16.219L481.561 26.819L485.541 27.217L486.601 16.617L482.621 16.219ZM481.551 27.018V85H485.551V27.018H481.551ZM483.551 83H462.457V87H483.551V83ZM464.07 83.8167L437.464 47.5647L434.239 49.9313L460.845 86.1833L464.07 83.8167ZM435.851 46.748H434.791V50.748H435.851V46.748ZM432.791 48.748V55.108H436.791V48.748H432.791ZM432.793 55.1789L433.853 85.0709L437.85 84.9291L436.79 55.0371L432.793 55.1789ZM435.851 83H411.259V87H435.851V83ZM492.035 85L490.111 84.4536L489.387 87H492.035V85ZM497.123 67.086L499.047 67.6324L499.123 67.3645V67.086H497.123ZM497.123 53.624L496.371 51.7705L495.123 52.2767V53.624H497.123ZM504.967 50.444L505.718 52.2975L506.539 51.9648L506.844 51.1338L504.967 50.444ZM519.807 10.058V8.058H518.411L517.929 9.36819L519.807 10.058ZM551.713 10.058L553.581 9.34479L553.09 8.058H551.713V10.058ZM569.839 57.546L567.97 58.2592L568.017 58.3829L568.08 58.4994L569.839 57.546ZM578.001 72.598H580.001V72.0906L579.759 71.6446L578.001 72.598ZM578.001 85V87H580.001V85H578.001ZM554.999 85L553.103 85.6363L553.56 87H554.999V85ZM549.699 69.206L551.595 68.5697L551.137 67.206H549.699V69.206ZM520.973 69.206V67.206H519.468L519.051 68.6515L520.973 69.206ZM516.415 85V87H517.919L518.336 85.5546L516.415 85ZM527.969 50.656L526.062 50.0524L525.238 52.656H527.969V50.656ZM543.869 50.656V52.656H546.639L545.767 50.0264L543.869 50.656ZM536.873 29.562L538.771 28.9324L538.316 27.562H536.873V29.562ZM534.647 29.562V27.562H533.182L532.74 28.9584L534.647 29.562ZM493.959 85.5464L499.047 67.6324L495.199 66.5396L490.111 84.4536L493.959 85.5464ZM499.123 67.086V53.624H495.123V67.086H499.123ZM497.874 55.4775L505.718 52.2975L504.215 48.5905L496.371 51.7705L497.874 55.4775ZM506.844 51.1338L521.684 10.7478L517.929 9.36819L503.089 49.7542L506.844 51.1338ZM519.807 12.058H551.713V8.058H519.807V12.058ZM549.844 10.7712L567.97 58.2592L571.707 56.8328L553.581 9.34479L549.844 10.7712ZM568.08 58.4994L576.242 73.5514L579.759 71.6446L571.597 56.5926L568.08 58.4994ZM576.001 72.598V85H580.001V72.598H576.001ZM578.001 83H554.999V87H578.001V83ZM556.895 84.3637L551.595 68.5697L547.803 69.8423L553.103 85.6363L556.895 84.3637ZM549.699 67.206H520.973V71.206H549.699V67.206ZM519.051 68.6515L514.493 84.4454L518.336 85.5546L522.894 69.7606L519.051 68.6515ZM516.415 83H492.035V87H516.415V83ZM527.969 52.656H543.869V48.656H527.969V52.656ZM545.767 50.0264L538.771 28.9324L534.974 30.1916L541.97 51.2856L545.767 50.0264ZM536.873 27.562H534.647V31.562H536.873V27.562ZM532.74 28.9584L526.062 50.0524L529.875 51.2596L536.553 30.1656L532.74 28.9584Z" fill="white" mask="url(#path-2-outside-1_1_94)"/>
</g>
<mask id="mask0_1_94" style="mask-type:alpha" maskUnits="userSpaceOnUse" x="-213" y="-163" width="1147" height="383">
<path d="M746.278 -93.6406C657.789 -80.2549 519.054 -53.1654 589.634 32.3491C679.451 141.172 898.937 112.664 801.456 196.657" stroke="white" stroke-width="2.02745"/>
<path d="M716.475 -83.0547C627.986 -69.6689 489.251 -42.5795 559.831 42.9351C649.649 151.758 869.134 123.25 771.653 207.243" stroke="white" stroke-width="2.02745"/>
<path d="M685.671 -75.9023C597.181 -62.5166 458.447 -35.4271 529.026 50.0874C618.844 158.911 838.33 130.402 740.849 214.395" stroke="white" stroke-width="2.02745"/>
<path d="M654.257 -72.2148C565.767 -58.8291 427.033 -31.7396 497.612 53.7749C587.43 162.598 806.916 134.09 709.435 218.083" stroke="white" stroke-width="2.02745"/>
<path d="M622.632 -71.6328C534.142 -58.247 395.408 -31.1576 465.987 54.3569C555.805 163.18 775.291 134.672 677.81 218.665" stroke="white" stroke-width="2.02745"/>
<path d="M591.059 -73.5039C502.57 -60.1181 363.835 -33.0287 434.415 52.4859C524.233 161.309 743.718 132.8 646.237 216.794" stroke="white" stroke-width="2.02745"/>
<path d="M559.639 -77.1133C471.15 -63.7275 332.415 -36.6381 402.995 48.8765C492.813 157.7 712.298 129.191 614.817 213.184" stroke="white" stroke-width="2.02745"/>
<path d="M528.36 -81.7773C439.871 -68.3916 301.136 -41.3021 371.716 44.2124C461.533 153.036 681.019 124.527 583.538 208.52" stroke="white" stroke-width="2.02745"/>
<path d="M497.155 -86.9688C408.666 -73.583 269.931 -46.4935 340.511 39.021C430.328 147.844 649.814 119.336 552.333 203.329" stroke="white" stroke-width="2.02745"/>
<path d="M465.967 -92.2461C377.478 -78.8603 238.744 -51.7709 309.323 33.7437C399.141 142.567 618.627 114.058 521.145 198.051" stroke="white" stroke-width="2.02745"/>
<path d="M434.749 -97.2773C346.26 -83.8916 207.525 -56.8021 278.104 28.7124C367.922 137.536 587.408 109.027 489.927 193.02" stroke="white" stroke-width="2.02745"/>
<path d="M403.452 -101.84C314.963 -88.4541 176.228 -61.3646 246.808 24.1499C336.625 132.973 556.111 104.465 458.63 188.458" stroke="white" stroke-width="2.02745"/>
<path d="M372.065 -105.766C283.576 -92.3799 144.841 -65.2904 215.421 20.2241C305.238 129.047 524.724 100.539 427.243 184.532" stroke="white" stroke-width="2.02745"/>
<path d="M340.596 -108.934C252.107 -95.5478 113.373 -68.4584 183.952 17.0562C273.77 125.879 493.255 97.3708 395.774 181.364" stroke="white" stroke-width="2.02745"/>
<path d="M308.862 -111.305C220.373 -97.9189 81.6381 -70.8295 152.218 14.6851C242.035 123.508 461.521 94.9997 364.04 178.993" stroke="white" stroke-width="2.02745"/>
<path d="M277.284 -113.133C188.795 -99.747 50.06 -72.6576 120.64 12.8569C210.457 121.68 429.943 93.1716 332.462 177.165" stroke="white" stroke-width="2.02745"/>
<path d="M245.686 -114.504C157.197 -101.118 18.4624 -74.0287 89.042 11.4859C178.859 120.309 398.345 91.8005 300.864 175.794" stroke="white" stroke-width="2.02745"/>
<path d="M214.071 -115.348C125.582 -101.962 -13.1529 -74.8724 57.4267 10.6421C147.244 119.465 366.73 90.9567 269.249 174.95" stroke="white" stroke-width="2.02745"/>
<path d="M182.446 -115.609C93.9568 -102.224 -44.7779 -75.1341 25.8017 10.3804C115.619 119.204 335.105 90.695 237.624 174.688" stroke="white" stroke-width="2.02745"/>
<path d="M150.815 -115.164C62.326 -101.778 -76.4087 -74.6888 -5.82913 10.8257C83.9884 119.649 303.474 91.1403 205.993 175.134" stroke="white" stroke-width="2.02745"/>
<path d="M119.216 -113.891C30.7263 -100.505 -108.008 -73.4154 -37.4287 12.0991C52.3888 120.922 271.875 92.4138 174.394 176.407" stroke="white" stroke-width="2.02745"/>
<path d="M87.6706 -111.605C-0.818574 -98.2197 -139.553 -71.1302 -68.9737 14.3843C20.8439 123.208 240.33 94.6989 142.849 178.692" stroke="white" stroke-width="2.02745"/>
<path d="M56.2409 -108.07C-32.2483 -94.6845 -170.983 -67.5951 -100.403 17.9194C-10.5858 126.743 208.9 98.2341 111.419 182.227" stroke="white" stroke-width="2.02745"/>
<path d="M25.0319 -102.91C-63.4572 -89.5244 -202.192 -62.4349 -131.612 23.0796C-41.7948 131.903 177.691 103.394 80.2099 187.387" stroke="white" stroke-width="2.02745"/>
<path d="M-5.73566 -95.6328C-94.2248 -82.247 -232.96 -55.1576 -162.38 30.3569C-72.5624 139.18 146.923 110.672 49.4423 194.665" stroke="white" stroke-width="2.02745"/>
<path d="M-35.6028 -85.8984C-124.092 -72.5127 -262.827 -45.4232 -192.247 40.0913C-102.43 148.915 117.056 120.406 19.5752 204.399" stroke="white" stroke-width="2.02745"/>
</mask>
<g mask="url(#mask0_1_94)">
<mask id="path-30-inside-2_1_94" fill="white">
<path d="M34.45 86.06C30.5633 86.06 26.712 85.7067 22.896 85C19.1507 84.364 15.8293 83.516 12.932 82.456C10.0347 81.396 7.95 80.336 6.678 79.276V57.122C9.36333 58.606 12.3667 59.9487 15.688 61.15C19.0093 62.3513 22.366 63.3053 25.758 64.012C29.2207 64.648 32.5067 64.966 35.616 64.966C39.9267 64.966 42.082 63.9767 42.082 61.998C42.082 61.0087 41.6227 60.196 40.704 59.56C39.856 58.8533 38.3367 58.1113 36.146 57.334C33.9553 56.5567 30.846 55.5673 26.818 54.366C22.154 52.882 18.1613 51.3273 14.84 49.702C11.5893 48.0767 9.08067 45.992 7.314 43.448C5.618 40.904 4.77 37.512 4.77 33.272C4.77 25.9227 7.70267 20.022 13.568 15.57C19.4333 11.118 28.0193 8.89199 39.326 8.89199C41.5873 8.89199 43.99 8.99799 46.534 9.21C49.1487 9.35133 51.2333 9.56333 52.788 9.84599L65.826 18.644L60.526 34.756L33.39 27.866C30.5633 27.866 29.15 28.82 29.15 30.728C29.15 32.212 30.0333 33.4487 31.8 34.438C33.6373 35.3567 36.9233 36.6287 41.658 38.254C47.9473 40.374 52.9293 42.5647 56.604 44.826C60.3493 47.0167 63.0347 49.5253 64.66 52.352C66.2853 55.1787 67.098 58.5353 67.098 62.422C67.098 69.4887 64.3773 75.2127 58.936 79.594C53.4947 83.9047 45.3327 86.06 34.45 86.06ZM72.5893 85L77.6773 67.086V53.624L85.5213 50.444L100.361 10.058H132.267L150.393 57.546L158.555 72.598V85H135.553L130.253 69.206H101.527L96.9693 85H72.5893ZM108.523 50.656H124.423L117.427 29.562H115.201L108.523 50.656ZM177.157 85L158.077 26.806L154.897 16.312V9.952H179.489L192.209 63.588H194.329L206.943 9.952H231.217V16.312L228.037 26.806L209.063 85H177.157ZM227.552 85L232.64 67.086V53.624L240.484 50.444L255.324 10.058H287.23L305.356 57.546L313.518 72.598V85H290.516L285.216 69.206H256.49L251.932 85H227.552ZM263.486 50.656H279.386L272.39 29.562H270.164L263.486 50.656ZM323.064 85V27.018L320.944 16.418L323.064 10.058H344.37L365.782 36.77L370.87 45.568H371.93V10.058H396.416V16.418L395.356 27.018V85H374.262L347.656 48.748H346.596V55.108L347.656 85H323.064ZM411.259 85V27.018L409.139 16.418L411.259 10.058H432.565L453.977 36.77L459.065 45.568H460.125V10.058H484.611V16.418L483.551 27.018V85H462.457L435.851 48.748H434.791V55.108L435.851 85H411.259ZM492.035 85L497.123 67.086V53.624L504.967 50.444L519.807 10.058H551.713L569.839 57.546L578.001 72.598V85H554.999L549.699 69.206H520.973L516.415 85H492.035ZM527.969 50.656H543.869L536.873 29.562H534.647L527.969 50.656Z"/>
</mask>
<path d="M34.45 86.06C30.5633 86.06 26.712 85.7067 22.896 85C19.1507 84.364 15.8293 83.516 12.932 82.456C10.0347 81.396 7.95 80.336 6.678 79.276V57.122C9.36333 58.606 12.3667 59.9487 15.688 61.15C19.0093 62.3513 22.366 63.3053 25.758 64.012C29.2207 64.648 32.5067 64.966 35.616 64.966C39.9267 64.966 42.082 63.9767 42.082 61.998C42.082 61.0087 41.6227 60.196 40.704 59.56C39.856 58.8533 38.3367 58.1113 36.146 57.334C33.9553 56.5567 30.846 55.5673 26.818 54.366C22.154 52.882 18.1613 51.3273 14.84 49.702C11.5893 48.0767 9.08067 45.992 7.314 43.448C5.618 40.904 4.77 37.512 4.77 33.272C4.77 25.9227 7.70267 20.022 13.568 15.57C19.4333 11.118 28.0193 8.89199 39.326 8.89199C41.5873 8.89199 43.99 8.99799 46.534 9.21C49.1487 9.35133 51.2333 9.56333 52.788 9.84599L65.826 18.644L60.526 34.756L33.39 27.866C30.5633 27.866 29.15 28.82 29.15 30.728C29.15 32.212 30.0333 33.4487 31.8 34.438C33.6373 35.3567 36.9233 36.6287 41.658 38.254C47.9473 40.374 52.9293 42.5647 56.604 44.826C60.3493 47.0167 63.0347 49.5253 64.66 52.352C66.2853 55.1787 67.098 58.5353 67.098 62.422C67.098 69.4887 64.3773 75.2127 58.936 79.594C53.4947 83.9047 45.3327 86.06 34.45 86.06ZM72.5893 85L77.6773 67.086V53.624L85.5213 50.444L100.361 10.058H132.267L150.393 57.546L158.555 72.598V85H135.553L130.253 69.206H101.527L96.9693 85H72.5893ZM108.523 50.656H124.423L117.427 29.562H115.201L108.523 50.656ZM177.157 85L158.077 26.806L154.897 16.312V9.952H179.489L192.209 63.588H194.329L206.943 9.952H231.217V16.312L228.037 26.806L209.063 85H177.157ZM227.552 85L232.64 67.086V53.624L240.484 50.444L255.324 10.058H287.23L305.356 57.546L313.518 72.598V85H290.516L285.216 69.206H256.49L251.932 85H227.552ZM263.486 50.656H279.386L272.39 29.562H270.164L263.486 50.656ZM323.064 85V27.018L320.944 16.418L323.064 10.058H344.37L365.782 36.77L370.87 45.568H371.93V10.058H396.416V16.418L395.356 27.018V85H374.262L347.656 48.748H346.596V55.108L347.656 85H323.064ZM411.259 85V27.018L409.139 16.418L411.259 10.058H432.565L453.977 36.77L459.065 45.568H460.125V10.058H484.611V16.418L483.551 27.018V85H462.457L435.851 48.748H434.791V55.108L435.851 85H411.259ZM492.035 85L497.123 67.086V53.624L504.967 50.444L519.807 10.058H551.713L569.839 57.546L578.001 72.598V85H554.999L549.699 69.206H520.973L516.415 85H492.035ZM527.969 50.656H543.869L536.873 29.562H534.647L527.969 50.656Z" fill="white"/>
<path d="M22.896 85L23.2602 83.0334L23.2455 83.0307L23.2308 83.0282L22.896 85ZM12.932 82.456L13.6192 80.5778L13.6192 80.5778L12.932 82.456ZM6.678 79.276H4.678V80.2127L5.39763 80.8124L6.678 79.276ZM6.678 57.122L7.64537 55.3715L4.678 53.7317V57.122H6.678ZM15.688 61.15L15.0077 63.0308L15.0077 63.0308L15.688 61.15ZM25.758 64.012L25.3501 65.97L25.3733 65.9748L25.3967 65.9791L25.758 64.012ZM40.704 59.56L39.4236 61.0964L39.4922 61.1536L39.5656 61.2044L40.704 59.56ZM36.146 57.334L36.8148 55.4491L36.8148 55.4491L36.146 57.334ZM26.818 54.366L26.2116 56.2719L26.2289 56.2774L26.2464 56.2826L26.818 54.366ZM14.84 49.702L13.9456 51.4909L13.9532 51.4947L13.9609 51.4984L14.84 49.702ZM7.314 43.448L5.6499 44.5574L5.66043 44.5732L5.67126 44.5888L7.314 43.448ZM46.534 9.21L46.3679 11.2031L46.397 11.2055L46.4261 11.2071L46.534 9.21ZM52.788 9.84599L53.9067 8.18814L53.5588 7.95334L53.1458 7.87825L52.788 9.84599ZM65.826 18.644L67.7259 19.2689L68.1985 17.8322L66.9447 16.9861L65.826 18.644ZM60.526 34.756L60.0338 36.6945L61.8427 37.1538L62.4259 35.3809L60.526 34.756ZM33.39 27.866L33.8822 25.9275L33.6399 25.866H33.39V27.866ZM31.8 34.438L30.8228 36.183L30.8637 36.2059L30.9056 36.2269L31.8 34.438ZM41.658 38.254L41.0086 40.1457L41.0192 40.1492L41.658 38.254ZM56.604 44.826L55.5558 46.5293L55.5749 46.5411L55.5942 46.5524L56.604 44.826ZM64.66 52.352L66.3938 51.3551L66.3938 51.3551L64.66 52.352ZM58.936 79.594L60.1779 81.1617L60.1841 81.1568L60.1903 81.1518L58.936 79.594ZM34.45 84.06C30.6853 84.06 26.9559 83.7178 23.2602 83.0334L22.5318 86.9666C26.4681 87.6955 30.4414 88.06 34.45 88.06V84.06ZM23.2308 83.0282C19.5792 82.4081 16.3795 81.5876 13.6192 80.5778L12.2448 84.3342C15.2791 85.4444 18.7221 86.3199 22.5612 86.9718L23.2308 83.0282ZM13.6192 80.5778C10.7848 79.5408 8.96138 78.5754 7.95837 77.7396L5.39763 80.8124C6.93862 82.0966 9.28457 83.2512 12.2448 84.3342L13.6192 80.5778ZM8.678 79.276V57.122H4.678V79.276H8.678ZM5.71063 58.8725C8.50064 60.4143 11.6019 61.7988 15.0077 63.0308L16.3683 59.2692C13.1315 58.0985 10.226 56.7977 7.64537 55.3715L5.71063 58.8725ZM15.0077 63.0308C18.4162 64.2636 21.8638 65.2437 25.3501 65.97L26.1659 62.054C22.8682 61.367 19.6025 60.4391 16.3683 59.2692L15.0077 63.0308ZM25.3967 65.9791C28.9632 66.6342 32.3708 66.966 35.616 66.966V62.966C32.6425 62.966 29.4781 62.6618 26.1193 62.0449L25.3967 65.9791ZM35.616 66.966C37.8615 66.966 39.8262 66.7181 41.2998 66.0417C42.0616 65.692 42.7742 65.1905 43.2962 64.4717C43.8336 63.7316 44.082 62.8797 44.082 61.998H40.082C40.082 62.1057 40.061 62.1193 40.0596 62.1213C40.0427 62.1445 39.947 62.2614 39.6312 62.4063C38.9495 62.7192 37.6811 62.966 35.616 62.966V66.966ZM44.082 61.998C44.082 60.2595 43.2195 58.869 41.8424 57.9156L39.5656 61.2044C40.0258 61.523 40.082 61.7578 40.082 61.998H44.082ZM41.9844 58.0236C40.846 57.075 39.0373 56.2378 36.8148 55.4491L35.4772 59.2189C37.636 59.9849 38.866 60.6317 39.4236 61.0964L41.9844 58.0236ZM36.8148 55.4491C34.5762 54.6548 31.4288 53.6541 27.3896 52.4494L26.2464 56.2826C30.2632 57.4806 33.3345 58.4585 35.4772 59.2189L36.8148 55.4491ZM27.4244 52.4601C22.8259 50.997 18.9294 49.4766 15.7191 47.9056L13.9609 51.4984C17.3932 53.1781 21.4821 54.767 26.2116 56.2719L27.4244 52.4601ZM15.7344 47.9131C12.7314 46.4116 10.5015 44.5317 8.95674 42.3072L5.67126 44.5888C7.65983 47.4523 10.4473 49.7417 13.9456 51.4909L15.7344 47.9131ZM8.9781 42.3386C7.57073 40.2275 6.77 37.2647 6.77 33.272H2.77C2.77 37.7593 3.66527 41.5805 5.6499 44.5574L8.9781 42.3386ZM6.77 33.272C6.77 26.5496 9.40892 21.2378 14.7772 17.1631L12.3588 13.9769C5.99641 18.8062 2.77 25.2958 2.77 33.272H6.77ZM14.7772 17.1631C20.1526 13.083 28.2355 10.892 39.326 10.892V6.89199C27.8032 6.89199 18.7141 9.15303 12.3588 13.9769L14.7772 17.1631ZM39.326 10.892C41.5254 10.892 43.8723 10.9951 46.3679 11.2031L46.7001 7.21691C44.1078 7.00087 41.6493 6.89199 39.326 6.89199V10.892ZM46.4261 11.2071C49.0036 11.3464 50.994 11.5526 52.4302 11.8137L53.1458 7.87825C51.4726 7.57405 49.2937 7.35625 46.642 7.21291L46.4261 11.2071ZM51.6693 11.5038L64.7073 20.3018L66.9447 16.9861L53.9067 8.18814L51.6693 11.5038ZM63.9262 18.019L58.6262 34.131L62.4259 35.3809L67.7259 19.2689L63.9262 18.019ZM61.0182 32.8175L33.8822 25.9275L32.8978 29.8045L60.0338 36.6945L61.0182 32.8175ZM33.39 25.866C31.8144 25.866 30.2812 26.1205 29.0911 26.9238C27.761 27.8216 27.15 29.2019 27.15 30.728H31.15C31.15 30.4987 31.1917 30.395 31.2083 30.3614C31.2205 30.3366 31.2433 30.297 31.3289 30.2392C31.5522 30.0885 32.1389 29.866 33.39 29.866V25.866ZM27.15 30.728C27.15 33.1926 28.6858 34.9863 30.8228 36.183L32.7772 32.693C31.3808 31.911 31.15 31.2314 31.15 30.728H27.15ZM30.9056 36.2269C32.8748 37.2115 36.2751 38.5207 41.0086 40.1456L42.3074 36.3624C37.5715 34.7366 34.3998 33.5018 32.6944 32.6491L30.9056 36.2269ZM41.0192 40.1492C47.2331 42.2438 52.0592 44.3775 55.5558 46.5293L57.6522 43.1227C53.7995 40.7518 48.6616 38.5042 42.2968 36.3588L41.0192 40.1492ZM55.5942 46.5524C59.135 48.6234 61.5227 50.9081 62.9262 53.3489L66.3938 51.3551C64.5466 48.1425 61.5637 45.41 57.6138 43.0996L55.5942 46.5524ZM62.9262 53.3489C64.3464 55.8188 65.098 58.8179 65.098 62.422H69.098C69.098 58.2528 68.2243 54.5385 66.3938 51.3551L62.9262 53.3489ZM65.098 62.422C65.098 68.8915 62.6452 74.0396 57.6817 78.0362L60.1903 81.1518C66.1095 76.3857 69.098 70.0859 69.098 62.422H65.098ZM57.6941 78.0263C52.7572 81.9373 45.1224 84.06 34.45 84.06V88.06C45.543 88.06 54.2321 85.872 60.1779 81.1617L57.6941 78.0263ZM72.5893 85L70.6654 84.4536L69.9421 87H72.5893V85ZM77.6773 67.086L79.6012 67.6324L79.6773 67.3645V67.086H77.6773ZM77.6773 53.624L76.9259 51.7705L75.6773 52.2767V53.624H77.6773ZM85.5213 50.444L86.2727 52.2975L87.0932 51.9648L87.3986 51.1338L85.5213 50.444ZM100.361 10.058V8.058H98.9655L98.484 9.36819L100.361 10.058ZM132.267 10.058L134.136 9.34479L133.645 8.058H132.267V10.058ZM150.393 57.546L148.525 58.2592L148.572 58.3829L148.635 58.4994L150.393 57.546ZM158.555 72.598H160.555V72.0906L160.313 71.6446L158.555 72.598ZM158.555 85V87H160.555V85H158.555ZM135.553 85L133.657 85.6363L134.115 87H135.553V85ZM130.253 69.206L132.149 68.5697L131.692 67.206H130.253V69.206ZM101.527 69.206V67.206H100.023L99.6057 68.6514L101.527 69.206ZM96.9693 85V87H98.4737L98.8909 85.5546L96.9693 85ZM108.523 50.656L106.617 50.0524L105.792 52.656H108.523V50.656ZM124.423 50.656V52.656H127.194L126.322 50.0264L124.423 50.656ZM117.427 29.562L119.326 28.9324L118.871 27.562H117.427V29.562ZM115.201 29.562V27.562H113.737L113.295 28.9584L115.201 29.562ZM74.5132 85.5464L79.6012 67.6324L75.7534 66.5396L70.6654 84.4536L74.5132 85.5464ZM79.6773 67.086V53.624H75.6773V67.086H79.6773ZM78.4287 55.4775L86.2727 52.2975L84.7699 48.5905L76.9259 51.7705L78.4287 55.4775ZM87.3986 51.1338L102.239 10.7478L98.484 9.36819L83.644 49.7542L87.3986 51.1338ZM100.361 12.058H132.267V8.058H100.361V12.058ZM130.399 10.7712L148.525 58.2592L152.262 56.8328L134.136 9.34479L130.399 10.7712ZM148.635 58.4994L156.797 73.5514L160.313 71.6446L152.151 56.5926L148.635 58.4994ZM156.555 72.598V85H160.555V72.598H156.555ZM158.555 83H135.553V87H158.555V83ZM137.449 84.3637L132.149 68.5697L128.357 69.8423L133.657 85.6363L137.449 84.3637ZM130.253 67.206H101.527V71.206H130.253V67.206ZM99.6057 68.6514L95.0477 84.4454L98.8909 85.5546L103.449 69.7605L99.6057 68.6514ZM96.9693 83H72.5893V87H96.9693V83ZM108.523 52.656H124.423V48.656H108.523V52.656ZM126.322 50.0264L119.326 28.9324L115.529 30.1916L122.525 51.2856L126.322 50.0264ZM117.427 27.562H115.201V31.562H117.427V27.562ZM113.295 28.9584L106.617 50.0524L110.43 51.2596L117.108 30.1656L113.295 28.9584ZM177.157 85L175.256 85.6231L175.708 87H177.157V85ZM158.077 26.806L156.163 27.386L156.169 27.4076L156.176 27.4291L158.077 26.806ZM154.897 16.312H152.897V16.6084L152.983 16.892L154.897 16.312ZM154.897 9.952V7.952H152.897V9.952H154.897ZM179.489 9.952L181.435 9.49049L181.07 7.952H179.489V9.952ZM192.209 63.588L190.263 64.0495L190.627 65.588H192.209V63.588ZM194.329 63.588V65.588H195.913L196.276 64.0459L194.329 63.588ZM206.943 9.952V7.952H205.358L204.996 9.49414L206.943 9.952ZM231.217 9.952H233.217V7.952H231.217V9.952ZM231.217 16.312L233.131 16.892L233.217 16.6084V16.312H231.217ZM228.037 26.806L229.938 27.426L229.945 27.4061L229.951 27.386L228.037 26.806ZM209.063 85V87H210.514L210.964 85.62L209.063 85ZM179.057 84.3769L159.977 26.1829L156.176 27.4291L175.256 85.6231L179.057 84.3769ZM159.991 26.226L156.811 15.732L152.983 16.892L156.163 27.386L159.991 26.226ZM156.897 16.312V9.952H152.897V16.312H156.897ZM154.897 11.952H179.489V7.952H154.897V11.952ZM177.543 10.4135L190.263 64.0495L194.155 63.1265L181.435 9.49049L177.543 10.4135ZM192.209 65.588H194.329V61.588H192.209V65.588ZM196.276 64.0459L208.89 10.4099L204.996 9.49414L192.382 63.1301L196.276 64.0459ZM206.943 11.952H231.217V7.952H206.943V11.952ZM229.217 9.952V16.312H233.217V9.952H229.217ZM229.303 15.732L226.123 26.226L229.951 27.386L233.131 16.892L229.303 15.732ZM226.135 26.186L207.161 84.38L210.964 85.62L229.938 27.426L226.135 26.186ZM209.063 83H177.157V87H209.063V83ZM227.552 85L225.628 84.4536L224.905 87H227.552V85ZM232.64 67.086L234.564 67.6324L234.64 67.3645V67.086H232.64ZM232.64 53.624L231.889 51.7705L230.64 52.2767V53.624H232.64ZM240.484 50.444L241.236 52.2975L242.056 51.9648L242.361 51.1338L240.484 50.444ZM255.324 10.058V8.058H253.928L253.447 9.36819L255.324 10.058ZM287.23 10.058L289.099 9.34479L288.608 8.058H287.23V10.058ZM305.356 57.546L303.488 58.2592L303.535 58.3829L303.598 58.4994L305.356 57.546ZM313.518 72.598H315.518V72.0906L315.276 71.6446L313.518 72.598ZM313.518 85V87H315.518V85H313.518ZM290.516 85L288.62 85.6363L289.078 87H290.516V85ZM285.216 69.206L287.112 68.5697L286.655 67.206H285.216V69.206ZM256.49 69.206V67.206H254.986L254.569 68.6514L256.49 69.206ZM251.932 85V87H253.437L253.854 85.5546L251.932 85ZM263.486 50.656L261.579 50.0524L260.755 52.656H263.486V50.656ZM279.386 50.656V52.656H282.157L281.285 50.0264L279.386 50.656ZM272.39 29.562L274.289 28.9324L273.834 27.562H272.39V29.562ZM270.164 29.562V27.562H268.7L268.257 28.9584L270.164 29.562ZM229.476 85.5464L234.564 67.6324L230.716 66.5396L225.628 84.4536L229.476 85.5464ZM234.64 67.086V53.624H230.64V67.086H234.64ZM233.392 55.4775L241.236 52.2975L239.733 48.5905L231.889 51.7705L233.392 55.4775ZM242.361 51.1338L257.201 10.7478L253.447 9.36819L238.607 49.7542L242.361 51.1338ZM255.324 12.058H287.23V8.058H255.324V12.058ZM285.362 10.7712L303.488 58.2592L307.225 56.8328L289.099 9.34479L285.362 10.7712ZM303.598 58.4994L311.76 73.5514L315.276 71.6446L307.114 56.5926L303.598 58.4994ZM311.518 72.598V85H315.518V72.598H311.518ZM313.518 83H290.516V87H313.518V83ZM292.412 84.3637L287.112 68.5697L283.32 69.8423L288.62 85.6363L292.412 84.3637ZM285.216 67.206H256.49V71.206H285.216V67.206ZM254.569 68.6514L250.011 84.4454L253.854 85.5546L258.412 69.7605L254.569 68.6514ZM251.932 83H227.552V87H251.932V83ZM263.486 52.656H279.386V48.656H263.486V52.656ZM281.285 50.0264L274.289 28.9324L270.492 30.1916L277.488 51.2856L281.285 50.0264ZM272.39 27.562H270.164V31.562H272.39V27.562ZM268.257 28.9584L261.579 50.0524L265.393 51.2596L272.071 30.1656L268.257 28.9584ZM323.064 85H321.064V87H323.064V85ZM323.064 27.018H325.064V26.82L325.025 26.6258L323.064 27.018ZM320.944 16.418L319.047 15.7855L318.879 16.2894L318.983 16.8102L320.944 16.418ZM323.064 10.058V8.058H321.622L321.167 9.42554L323.064 10.058ZM344.37 10.058L345.931 8.8071L345.33 8.058H344.37V10.058ZM365.782 36.77L367.513 35.7687L367.437 35.6374L367.343 35.5191L365.782 36.77ZM370.87 45.568L369.139 46.5692L369.716 47.568H370.87V45.568ZM371.93 45.568V47.568H373.93V45.568H371.93ZM371.93 10.058V8.058H369.93V10.058H371.93ZM396.416 10.058H398.416V8.058H396.416V10.058ZM396.416 16.418L398.406 16.617L398.416 16.5177V16.418H396.416ZM395.356 27.018L393.366 26.819L393.356 26.9182V27.018H395.356ZM395.356 85V87H397.356V85H395.356ZM374.262 85L372.65 86.1833L373.249 87H374.262V85ZM347.656 48.748L349.268 47.5647L348.669 46.748H347.656V48.748ZM346.596 48.748V46.748H344.596V48.748H346.596ZM346.596 55.108H344.596V55.1434L344.597 55.1789L346.596 55.108ZM347.656 85V87H349.728L349.655 84.9291L347.656 85ZM325.064 85V27.018H321.064V85H325.064ZM325.025 26.6258L322.905 16.0258L318.983 16.8102L321.103 27.4102L325.025 26.6258ZM322.841 17.0505L324.961 10.6905L321.167 9.42554L319.047 15.7855L322.841 17.0505ZM323.064 12.058H344.37V8.058H323.064V12.058ZM342.809 11.3089L364.221 38.0209L367.343 35.5191L345.931 8.8071L342.809 11.3089ZM364.051 37.7712L369.139 46.5692L372.601 44.5667L367.513 35.7687L364.051 37.7712ZM370.87 47.568H371.93V43.568H370.87V47.568ZM373.93 45.568V10.058H369.93V45.568H373.93ZM371.93 12.058H396.416V8.058H371.93V12.058ZM394.416 10.058V16.418H398.416V10.058H394.416ZM394.426 16.219L393.366 26.819L397.346 27.217L398.406 16.617L394.426 16.219ZM393.356 27.018V85H397.356V27.018H393.356ZM395.356 83H374.262V87H395.356V83ZM375.874 83.8167L349.268 47.5647L346.044 49.9313L372.65 86.1833L375.874 83.8167ZM347.656 46.748H346.596V50.748H347.656V46.748ZM344.596 48.748V55.108H348.596V48.748H344.596ZM344.597 55.1789L345.657 85.0709L349.655 84.9291L348.595 55.0371L344.597 55.1789ZM347.656 83H323.064V87H347.656V83ZM411.259 85H409.259V87H411.259V85ZM411.259 27.018H413.259V26.82L413.22 26.6258L411.259 27.018ZM409.139 16.418L407.242 15.7855L407.074 16.2894L407.178 16.8102L409.139 16.418ZM411.259 10.058V8.058H409.818L409.362 9.42554L411.259 10.058ZM432.565 10.058L434.126 8.8071L433.525 8.058H432.565V10.058ZM453.977 36.77L455.709 35.7687L455.633 35.6374L455.538 35.5191L453.977 36.77ZM459.065 45.568L457.334 46.5692L457.912 47.568H459.065V45.568ZM460.125 45.568V47.568H462.125V45.568H460.125ZM460.125 10.058V8.058H458.125V10.058H460.125ZM484.611 10.058H486.611V8.058H484.611V10.058ZM484.611 16.418L486.601 16.617L486.611 16.5177V16.418H484.611ZM483.551 27.018L481.561 26.819L481.551 26.9182V27.018H483.551ZM483.551 85V87H485.551V85H483.551ZM462.457 85L460.845 86.1833L461.444 87H462.457V85ZM435.851 48.748L437.464 47.5647L436.864 46.748H435.851V48.748ZM434.791 48.748V46.748H432.791V48.748H434.791ZM434.791 55.108H432.791V55.1434L432.793 55.1789L434.791 55.108ZM435.851 85V87H437.923L437.85 84.9291L435.851 85ZM413.259 85V27.018H409.259V85H413.259ZM413.22 26.6258L411.1 16.0258L407.178 16.8102L409.298 27.4102L413.22 26.6258ZM411.037 17.0505L413.157 10.6905L409.362 9.42554L407.242 15.7855L411.037 17.0505ZM411.259 12.058H432.565V8.058H411.259V12.058ZM431.005 11.3089L452.417 38.0209L455.538 35.5191L434.126 8.8071L431.005 11.3089ZM452.246 37.7712L457.334 46.5692L460.797 44.5667L455.709 35.7687L452.246 37.7712ZM459.065 47.568H460.125V43.568H459.065V47.568ZM462.125 45.568V10.058H458.125V45.568H462.125ZM460.125 12.058H484.611V8.058H460.125V12.058ZM482.611 10.058V16.418H486.611V10.058H482.611ZM482.621 16.219L481.561 26.819L485.541 27.217L486.601 16.617L482.621 16.219ZM481.551 27.018V85H485.551V27.018H481.551ZM483.551 83H462.457V87H483.551V83ZM464.07 83.8167L437.464 47.5647L434.239 49.9313L460.845 86.1833L464.07 83.8167ZM435.851 46.748H434.791V50.748H435.851V46.748ZM432.791 48.748V55.108H436.791V48.748H432.791ZM432.793 55.1789L433.853 85.0709L437.85 84.9291L436.79 55.0371L432.793 55.1789ZM435.851 83H411.259V87H435.851V83ZM492.035 85L490.111 84.4536L489.387 87H492.035V85ZM497.123 67.086L499.047 67.6324L499.123 67.3645V67.086H497.123ZM497.123 53.624L496.371 51.7705L495.123 52.2767V53.624H497.123ZM504.967 50.444L505.718 52.2975L506.539 51.9648L506.844 51.1338L504.967 50.444ZM519.807 10.058V8.058H518.411L517.929 9.36819L519.807 10.058ZM551.713 10.058L553.581 9.34479L553.09 8.058H551.713V10.058ZM569.839 57.546L567.97 58.2592L568.017 58.3829L568.08 58.4994L569.839 57.546ZM578.001 72.598H580.001V72.0906L579.759 71.6446L578.001 72.598ZM578.001 85V87H580.001V85H578.001ZM554.999 85L553.103 85.6363L553.56 87H554.999V85ZM549.699 69.206L551.595 68.5697L551.137 67.206H549.699V69.206ZM520.973 69.206V67.206H519.468L519.051 68.6514L520.973 69.206ZM516.415 85V87H517.919L518.336 85.5546L516.415 85ZM527.969 50.656L526.062 50.0524L525.238 52.656H527.969V50.656ZM543.869 50.656V52.656H546.639L545.767 50.0264L543.869 50.656ZM536.873 29.562L538.771 28.9324L538.316 27.562H536.873V29.562ZM534.647 29.562V27.562H533.182L532.74 28.9584L534.647 29.562ZM493.959 85.5464L499.047 67.6324L495.199 66.5396L490.111 84.4536L493.959 85.5464ZM499.123 67.086V53.624H495.123V67.086H499.123ZM497.874 55.4775L505.718 52.2975L504.215 48.5905L496.371 51.7705L497.874 55.4775ZM506.844 51.1338L521.684 10.7478L517.929 9.36819L503.089 49.7542L506.844 51.1338ZM519.807 12.058H551.713V8.058H519.807V12.058ZM549.844 10.7712L567.97 58.2592L571.707 56.8328L553.581 9.34479L549.844 10.7712ZM568.08 58.4994L576.242 73.5514L579.759 71.6446L571.597 56.5926L568.08 58.4994ZM576.001 72.598V85H580.001V72.598H576.001ZM578.001 83H554.999V87H578.001V83ZM556.895 84.3637L551.595 68.5697L547.803 69.8423L553.103 85.6363L556.895 84.3637ZM549.699 67.206H520.973V71.206H549.699V67.206ZM519.051 68.6514L514.493 84.4454L518.336 85.5546L522.894 69.7605L519.051 68.6514ZM516.415 83H492.035V87H516.415V83ZM527.969 52.656H543.869V48.656H527.969V52.656ZM545.767 50.0264L538.771 28.9324L534.974 30.1916L541.97 51.2856L545.767 50.0264ZM536.873 27.562H534.647V31.562H536.873V27.562ZM532.74 28.9584L526.062 50.0524L529.875 51.2596L536.553 30.1656L532.74 28.9584Z" fill="white" mask="url(#path-30-inside-2_1_94)"/>
</g>
</g>
<defs>
<clipPath id="clip0_1_94">
<rect width="579" height="91" fill="white"/>
</clipPath>
</defs>
</svg>
