<svg width="64" height="55" viewBox="0 0 64 55" fill="none" xmlns="http://www.w3.org/2000/svg">
<path d="M34.0269 8.17377C32.3889 17.3595 31.3337 22.0265 28.8672 22.9196C26.4006 23.8126 22.5631 20.9172 15.366 14.9305C22.5631 20.9172 26.1379 24.1572 25.6775 26.7044C25.2171 29.2516 20.7491 31.1188 11.9139 34.3178C21.0725 31.0017 25.7025 29.5747 27.5874 31.5221C29.3528 33.3314 28.715 38.0741 27.143 46.9411C28.781 37.7554 29.8362 33.0884 32.3027 32.1953C34.7693 31.3022 38.6068 34.1977 45.8242 40.1771C38.1673 33.8127 34.633 30.5581 35.6356 27.9279C36.5244 25.6109 40.987 23.7911 49.2762 20.7897C39.9356 24.1718 35.2983 25.5788 33.4832 23.4474C31.8446 21.5468 32.4898 16.8241 34.0269 8.17377Z" fill="white"/>
</svg>
