<svg width="95" height="88" viewBox="0 0 95 88" fill="none" xmlns="http://www.w3.org/2000/svg">
<path d="M57.0418 22.2585C51.6924 32.2875 48.716 37.2992 45.5209 37.4072C42.3258 37.5152 38.9643 32.7177 32.869 23.0755C38.9643 32.7177 41.8918 37.8157 40.4012 40.5945C38.9105 43.3733 33.0291 43.8578 21.5844 44.2446C33.4482 43.8437 39.352 43.93 40.8058 46.8951C42.1729 49.6552 39.6519 54.9114 34.4987 64.596C39.8482 54.567 42.8246 49.5553 46.0197 49.4473C49.2148 49.3393 52.5762 54.1368 58.6977 63.7782C52.2113 53.5255 49.3363 48.4257 51.4867 45.7546C53.3875 43.4037 59.2447 42.9719 69.9824 42.609C57.8829 43.0179 51.978 42.9056 50.6742 39.7536C49.4884 36.9353 52.0104 31.7051 57.0418 22.2585Z" fill="white"/>
</svg>
