<svg width="76" height="71" viewBox="0 0 76 71" fill="none" xmlns="http://www.w3.org/2000/svg">
<g clip-path="url(#clip0_1_365)">
<path d="M60.8765 14.3359C49.9391 24.237 44.1084 29.0525 40.2127 27.7897C36.317 26.5269 34.4201 19.2065 31.4031 4.78208C34.4201 19.2065 35.6596 26.7041 32.619 29.4437C29.5784 32.1834 22.2792 30.2076 8.32483 25.6843C22.7901 30.3733 29.8604 33.0553 30.2817 37.3075C30.6905 41.2717 25.2986 46.5842 14.752 56.1507C25.6894 46.2496 31.5201 41.4341 35.4158 42.6969C39.3115 43.9597 41.2084 51.2801 44.2573 65.7149C41.0431 50.375 39.8674 42.8982 43.6542 40.5778C46.9969 38.5392 54.2434 40.5688 67.3356 44.8126C52.5829 40.0306 45.523 37.3164 45.3661 32.9016C45.2017 28.9456 50.5832 23.6652 60.8765 14.3359Z" fill="white"/>
</g>
<defs>
<clipPath id="clip0_1_365">
<rect width="62" height="54" fill="white" transform="translate(16.6504) rotate(17.9601)"/>
</clipPath>
</defs>
</svg>
