<svg width="78" height="67" viewBox="0 0 78 67" fill="none" xmlns="http://www.w3.org/2000/svg">
<path d="M41.4706 9.95388C39.4743 21.1437 38.1883 26.829 35.1822 27.9169C32.1761 29.0049 27.4991 25.4776 18.7276 18.1848C27.4991 25.4776 31.8558 29.4246 31.2947 32.5276C30.7336 35.6306 25.2882 37.9051 14.5204 41.8021C25.6825 37.7624 31.3252 36.024 33.6225 38.3964C35.7741 40.6005 34.9967 46.3779 33.0809 57.1795C35.0772 45.9897 36.3631 40.3044 39.3693 39.2165C42.3754 38.1285 47.0523 41.6558 55.8485 48.9397C46.5167 41.1868 42.2092 37.222 43.4312 34.0179C44.5145 31.1955 49.9532 28.9786 60.0557 25.3224C48.6719 29.4423 43.0201 31.1563 40.8079 28.5599C38.8109 26.2446 39.5973 20.4916 41.4706 9.95388Z" fill="white"/>
</svg>
