<svg width="113" height="104" viewBox="0 0 113 104" fill="none" xmlns="http://www.w3.org/2000/svg">
<path d="M67.709 26.668C61.4007 38.493 57.8908 44.4022 54.1223 44.5292C50.3538 44.6561 46.3887 38.9988 39.1985 27.6286C46.3887 38.9988 49.842 45.0104 48.0842 48.2868C46.3264 51.5632 39.3896 52.1339 25.8911 52.5887C39.8838 52.1173 46.8471 52.2197 48.5622 55.7162C50.1749 58.9709 47.2021 65.1684 41.1252 76.5873C47.4335 64.7623 50.9435 58.8531 54.712 58.7261C58.4804 58.5992 62.4456 64.2565 69.6667 75.6257C62.0151 63.5356 58.6236 57.522 61.1596 54.3725C63.4012 51.6007 70.3095 51.0922 82.974 50.6655C68.7033 51.1463 61.7388 51.0133 60.2007 47.2964C58.8018 43.9732 61.7758 37.8063 67.709 26.668Z" fill="white"/>
</svg>
