<svg width="50" height="46" viewBox="0 0 50 46" fill="none" xmlns="http://www.w3.org/2000/svg">
<rect x="0.606791" y="0.350932" width="48.4175" height="44.9193" rx="16.4938" fill="white"/>
<rect x="0.606791" y="0.350932" width="48.4175" height="44.9193" rx="16.4938" stroke="black" stroke-width="0.701863"/>
<path d="M14.5083 22.0359C14.5582 22.0115 14.6082 21.9884 14.6569 21.9665C15.5039 21.5842 16.362 21.2264 17.219 20.8685C17.2652 20.8685 17.3426 20.8161 17.3863 20.7991C17.4525 20.7711 17.5187 20.7443 17.585 20.7163C17.7124 20.6628 17.8398 20.6104 17.966 20.5569C18.2208 20.4509 18.4743 20.345 18.7292 20.2391L20.2544 19.6025C21.2712 19.1789 22.2893 18.754 23.3061 18.3304C24.3229 17.9068 25.341 17.482 26.3578 17.0584C27.3746 16.6347 28.3927 16.2099 29.4095 15.7863C30.4263 15.3627 31.4444 14.9378 32.4612 14.5142C32.6873 14.4193 32.9321 14.2781 33.1744 14.2367C33.3781 14.2014 33.5767 14.1332 33.7815 14.0955C34.17 14.0237 34.5985 13.9944 34.9707 14.1515C35.0994 14.2062 35.2181 14.2829 35.3167 14.3791C35.7889 14.8344 35.7227 15.5818 35.6228 16.2221C34.927 20.6847 34.2312 25.1485 33.5342 29.6111C33.4392 30.2234 33.3093 30.8953 32.8134 31.2824C32.3937 31.6098 31.7966 31.6464 31.2782 31.5076C30.7598 31.3676 30.3026 31.0742 29.8542 30.7857C27.9942 29.5855 26.1329 28.3852 24.2729 27.185C23.8307 26.9001 23.3386 26.5277 23.3436 26.0103C23.3461 25.6987 23.5372 25.4211 23.7321 25.174C25.3485 23.1192 27.6806 21.7072 29.4157 19.7473C29.6606 19.471 29.8529 18.9719 29.5169 18.8125C29.317 18.7175 29.0872 18.8466 28.9048 18.9695C26.6113 20.5215 24.3192 22.0748 22.0257 23.6269C21.2775 24.1332 20.493 24.6542 19.5911 24.7784C18.7842 24.8904 17.9722 24.6713 17.1915 24.4473C16.5369 24.2598 15.8836 24.0675 15.2328 23.8691C14.8868 23.7644 14.5295 23.6512 14.2622 23.4138C13.9949 23.1765 13.8412 22.7772 14.0024 22.4607C14.1036 22.2623 14.2997 22.1369 14.5058 22.0346L14.5083 22.0359Z" fill="black"/>
</svg>
