<svg width="48" height="48" viewBox="0 0 48 48" fill="none" xmlns="http://www.w3.org/2000/svg">
<path d="M39.4046 15H31.3093C30.1916 15 29.2855 15.9061 29.2855 17.0238C29.2855 18.1415 30.1916 19.0476 31.3093 19.0476H33.8189L24.2125 28.654L18.8157 23.2571C17.3836 21.83 15.0669 21.83 13.6347 23.2571L6.59187 30.0841C5.80271 30.8743 5.80271 32.1543 6.59187 32.9444C6.96933 33.3266 7.48487 33.5406 8.02203 33.5381C8.5598 33.5437 9.07649 33.3293 9.45219 32.9444L16.1173 26.2794L21.5141 31.6762C22.9555 33.1065 25.2807 33.1065 26.722 31.6762L37.2728 21.1254V25.119C37.2728 26.2368 38.1789 27.1429 39.2966 27.1429C40.4144 27.1429 41.3204 26.2368 41.3204 25.119V17.0238C41.3087 15.9523 40.4739 15.0704 39.4046 15Z" fill="black" stroke="white"/>
</svg>
