<svg width="420" height="420" viewBox="0 0 420 420" fill="none" xmlns="http://www.w3.org/2000/svg">
<path d="M419.999 209.999C419.999 325.978 325.98 419.997 210.001 419.997C94.0216 419.997 0.00195312 325.978 0.00195312 209.999C0.00195312 94.0196 94.0216 0 210.001 0C325.98 0 419.999 94.0196 419.999 209.999ZM105.001 209.999C105.001 267.988 152.011 314.998 210.001 314.998C267.99 314.998 315 267.988 315 209.999C315 152.009 267.99 104.999 210.001 104.999C152.011 104.999 105.001 152.009 105.001 209.999Z" fill="white"/>
<path d="M72.3921 51.3692C113.055 16.095 165.711 -2.2171 219.486 0.214326L214.848 102.799C187.368 101.556 160.461 110.914 139.683 128.939L72.3921 51.3692Z" fill="black"/>
<mask id="path-3-inside-1_1_165" fill="white">
<path d="M75.6235 48.6226C116.669 14.4442 169.196 -2.80947 222.513 0.373119L216.632 98.8972C188.374 97.2104 160.535 106.355 138.781 124.469L75.6235 48.6226Z"/>
</mask>
<path d="M75.6235 48.6226C116.669 14.4442 169.196 -2.80947 222.513 0.373119L216.632 98.8972C188.374 97.2104 160.535 106.355 138.781 124.469L75.6235 48.6226Z" fill="#DF62FC" stroke="black" stroke-width="2" mask="url(#path-3-inside-1_1_165)"/>
<path d="M235.591 1.56529C270.422 5.84202 303.626 18.7794 332.169 39.1953C360.712 59.6111 383.684 86.8544 398.985 118.436C414.286 150.017 421.428 184.929 419.76 219.983C418.092 255.036 407.665 289.112 389.434 319.097C371.203 349.082 345.748 374.021 315.395 391.633C285.042 409.246 250.759 418.971 215.679 419.921C180.599 420.87 145.841 413.013 114.58 397.067C83.3187 381.122 56.5522 357.597 36.7259 328.641L121.456 270.625C131.588 285.421 145.265 297.443 161.24 305.591C177.214 313.739 194.976 317.754 212.901 317.269C230.827 316.784 248.346 311.814 263.856 302.814C279.366 293.814 292.374 281.07 301.69 265.748C311.006 250.425 316.334 233.013 317.187 215.1C318.039 197.188 314.389 179.348 306.571 163.21C298.752 147.072 287.013 133.151 272.428 122.718C257.842 112.286 240.875 105.675 223.076 103.489L235.591 1.56529Z" fill="black"/>
<mask id="path-5-inside-2_1_165" fill="white">
<path d="M241.04 2.30664C275.693 7.48542 308.498 21.2521 336.469 42.3524C364.44 63.4528 386.686 91.2163 401.182 123.114C415.679 155.011 421.964 190.029 419.465 224.977C416.966 259.924 405.762 293.691 386.875 323.202C367.988 352.712 342.017 377.028 311.329 393.934C280.641 410.84 246.21 419.799 211.174 419.994C176.137 420.19 141.609 411.616 110.733 395.054C79.8581 378.492 53.6174 354.468 34.4018 325.17L116.933 271.04C127.118 286.567 141.025 299.3 157.389 308.078C173.753 316.856 192.053 321.4 210.622 321.296C229.192 321.193 247.44 316.444 263.705 307.484C279.97 298.524 293.734 285.637 303.744 269.996C313.754 254.356 319.692 236.459 321.017 217.937C322.341 199.415 319.01 180.855 311.327 163.95C303.644 147.044 291.853 132.329 277.029 121.146C262.204 109.963 244.817 102.667 226.452 99.9219L241.04 2.30664Z"/>
</mask>
<path d="M241.04 2.30664C275.693 7.48542 308.498 21.2521 336.469 42.3524C364.44 63.4528 386.686 91.2163 401.182 123.114C415.679 155.011 421.964 190.029 419.465 224.977C416.966 259.924 405.762 293.691 386.875 323.202C367.988 352.712 342.017 377.028 311.329 393.934C280.641 410.84 246.21 419.799 211.174 419.994C176.137 420.19 141.609 411.616 110.733 395.054C79.8581 378.492 53.6174 354.468 34.4018 325.17L116.933 271.04C127.118 286.567 141.025 299.3 157.389 308.078C173.753 316.856 192.053 321.4 210.622 321.296C229.192 321.193 247.44 316.444 263.705 307.484C279.97 298.524 293.734 285.637 303.744 269.996C313.754 254.356 319.692 236.459 321.017 217.937C322.341 199.415 319.01 180.855 311.327 163.95C303.644 147.044 291.853 132.329 277.029 121.146C262.204 109.963 244.817 102.667 226.452 99.9219L241.04 2.30664Z" fill="#64A3F2" stroke="black" stroke-width="2" mask="url(#path-5-inside-2_1_165)"/>
<path d="M0.0627849 204.944C1.31113 153.092 21.7047 103.536 57.3145 65.8239L131.978 136.325C113.781 155.596 103.36 180.919 102.722 207.416L0.0627849 204.944Z" fill="black"/>
<path d="M21.2531 302.056C10.1752 279.343 3.28782 254.817 0.922169 229.657L103.161 220.044C104.369 232.901 107.889 245.434 113.55 257.04L21.2531 302.056Z" fill="black"/>
<mask id="path-8-inside-3_1_165" fill="white">
<path d="M0.166514 201.687C2.28063 148.316 24.6522 97.7566 62.7281 60.2982L131.946 130.657C111.766 150.51 99.9091 177.307 98.7886 205.593L0.166514 201.687Z"/>
</mask>
<path d="M0.166514 201.687C2.28063 148.316 24.6522 97.7566 62.7281 60.2982L131.946 130.657C111.766 150.51 99.9091 177.307 98.7886 205.593L0.166514 201.687Z" fill="#25DCBE" stroke="black" stroke-width="2" mask="url(#path-8-inside-3_1_165)"/>
<mask id="path-9-inside-4_1_165" fill="white">
<path d="M19.6772 298.748C8.6478 275.095 2.12387 249.594 0.439688 223.551L98.9334 217.181C99.826 230.984 103.284 244.5 109.129 257.036L19.6772 298.748Z"/>
</mask>
<path d="M19.6772 298.748C8.6478 275.095 2.12387 249.594 0.439688 223.551L98.9334 217.181C99.826 230.984 103.284 244.5 109.129 257.036L19.6772 298.748Z" fill="white" stroke="black" stroke-width="2" mask="url(#path-9-inside-4_1_165)"/>
<path d="M345.137 258.96C345.772 258.96 346.347 259.05 346.862 259.229C347.377 259.397 347.827 259.673 348.21 260.056C348.605 260.427 348.911 260.925 349.126 261.548L347.042 262.518C346.898 262.051 346.658 261.685 346.323 261.422C346 261.146 345.55 261.008 344.975 261.008C344.568 261.008 344.203 261.104 343.879 261.296C343.568 261.488 343.298 261.763 343.07 262.123C342.843 262.482 342.669 262.913 342.549 263.416C342.429 263.908 342.37 264.453 342.37 265.052C342.37 265.088 342.37 265.13 342.37 265.178C342.37 265.214 342.37 265.273 342.37 265.357L342.423 265.429C342.555 265.01 342.783 264.662 343.106 264.387C343.442 264.111 343.813 263.908 344.22 263.776C344.64 263.644 345.053 263.578 345.46 263.578C346.215 263.578 346.88 263.728 347.455 264.027C348.042 264.315 348.497 264.734 348.821 265.285C349.156 265.837 349.324 266.495 349.324 267.262C349.324 268.053 349.144 268.748 348.785 269.347C348.438 269.934 347.94 270.389 347.293 270.712C346.658 271.024 345.898 271.18 345.011 271.18C344.005 271.18 343.13 270.94 342.387 270.461C341.657 269.982 341.088 269.293 340.68 268.394C340.285 267.496 340.087 266.412 340.087 265.142C340.087 263.764 340.309 262.62 340.752 261.709C341.195 260.787 341.8 260.098 342.567 259.643C343.334 259.187 344.191 258.96 345.137 258.96ZM344.975 265.393C344.58 265.393 344.232 265.477 343.933 265.645C343.633 265.801 343.394 266.022 343.214 266.31C343.034 266.585 342.945 266.909 342.945 267.28C342.945 267.652 343.034 267.981 343.214 268.268C343.406 268.556 343.651 268.784 343.951 268.951C344.262 269.119 344.604 269.203 344.975 269.203C345.61 269.203 346.101 269.035 346.449 268.7C346.808 268.364 346.988 267.891 346.988 267.28C346.988 266.897 346.91 266.561 346.754 266.274C346.599 265.986 346.371 265.771 346.071 265.627C345.772 265.471 345.407 265.393 344.975 265.393ZM355.852 271.18C354.331 271.18 353.157 270.665 352.33 269.634C351.516 268.604 351.108 267.082 351.108 265.07C351.108 263.057 351.516 261.536 352.33 260.505C353.157 259.475 354.331 258.96 355.852 258.96C357.374 258.96 358.542 259.475 359.357 260.505C360.183 261.536 360.597 263.057 360.597 265.07C360.597 267.082 360.183 268.604 359.357 269.634C358.542 270.665 357.374 271.18 355.852 271.18ZM355.852 269.185C356.368 269.185 356.787 269.041 357.11 268.754C357.446 268.454 357.697 268.005 357.865 267.406C358.033 266.795 358.117 266.016 358.117 265.07C358.117 264.123 358.033 263.351 357.865 262.752C357.697 262.141 357.446 261.691 357.11 261.404C356.787 261.104 356.368 260.955 355.852 260.955C355.337 260.955 354.912 261.104 354.576 261.404C354.241 261.691 353.989 262.141 353.822 262.752C353.666 263.351 353.588 264.123 353.588 265.07C353.588 266.016 353.666 266.795 353.822 267.406C353.989 268.005 354.241 268.454 354.576 268.754C354.912 269.041 355.337 269.185 355.852 269.185ZM364.743 271L372.74 259.14H374.717L366.72 271H364.743ZM365.336 258.96C365.983 258.96 366.54 259.098 367.007 259.373C367.487 259.649 367.852 260.038 368.104 260.541C368.367 261.044 368.499 261.631 368.499 262.302C368.499 262.973 368.367 263.56 368.104 264.063C367.852 264.555 367.487 264.944 367.007 265.231C366.54 265.507 365.983 265.645 365.336 265.645C364.701 265.645 364.144 265.507 363.665 265.231C363.186 264.944 362.814 264.555 362.551 264.063C362.299 263.56 362.173 262.973 362.173 262.302C362.173 261.631 362.299 261.044 362.551 260.541C362.814 260.038 363.186 259.649 363.665 259.373C364.144 259.098 364.701 258.96 365.336 258.96ZM365.336 260.667C365.073 260.667 364.845 260.733 364.653 260.865C364.462 260.984 364.318 261.17 364.222 261.422C364.126 261.661 364.078 261.955 364.078 262.302C364.078 262.638 364.126 262.931 364.222 263.183C364.318 263.422 364.462 263.608 364.653 263.74C364.845 263.86 365.073 263.92 365.336 263.92C365.612 263.92 365.839 263.86 366.019 263.74C366.211 263.608 366.354 263.422 366.45 263.183C366.546 262.931 366.594 262.638 366.594 262.302C366.594 261.955 366.546 261.661 366.45 261.422C366.354 261.17 366.211 260.984 366.019 260.865C365.839 260.733 365.612 260.667 365.336 260.667ZM374.106 264.495C374.741 264.495 375.292 264.638 375.759 264.926C376.238 265.202 376.61 265.591 376.873 266.094C377.137 266.585 377.268 267.166 377.268 267.837C377.268 268.508 377.137 269.095 376.873 269.598C376.61 270.101 376.238 270.491 375.759 270.766C375.292 271.042 374.741 271.18 374.106 271.18C373.471 271.18 372.914 271.042 372.434 270.766C371.955 270.491 371.584 270.101 371.32 269.598C371.069 269.095 370.943 268.508 370.943 267.837C370.943 267.166 371.069 266.585 371.32 266.094C371.584 265.591 371.955 265.202 372.434 264.926C372.914 264.638 373.471 264.495 374.106 264.495ZM374.106 266.22C373.83 266.22 373.597 266.286 373.405 266.418C373.225 266.537 373.087 266.717 372.992 266.957C372.896 267.196 372.848 267.49 372.848 267.837C372.848 268.173 372.896 268.466 372.992 268.718C373.087 268.969 373.225 269.161 373.405 269.293C373.597 269.413 373.83 269.473 374.106 269.473C374.381 269.473 374.609 269.413 374.789 269.293C374.98 269.161 375.124 268.969 375.22 268.718C375.316 268.466 375.364 268.173 375.364 267.837C375.364 267.49 375.316 267.196 375.22 266.957C375.124 266.717 374.98 266.537 374.789 266.418C374.609 266.286 374.381 266.22 374.106 266.22Z" fill="#1E1E1E"/>
<path d="M146.912 71V63.4884C146.912 63.2128 146.912 62.9313 146.912 62.6438C146.924 62.3443 146.936 62.0388 146.948 61.7273C146.541 62.0987 146.085 62.4221 145.582 62.6977C145.079 62.9732 144.564 63.1649 144.037 63.2727L143.713 61.1882C143.989 61.1642 144.294 61.0863 144.63 60.9545C144.977 60.8108 145.325 60.6431 145.672 60.4514C146.032 60.2477 146.355 60.0381 146.643 59.8224C146.942 59.5948 147.17 59.3672 147.325 59.1395H149.338V71H146.912ZM155.987 71.1797C154.945 71.1797 154.065 70.9641 153.346 70.5328C152.639 70.1015 152.058 69.4426 151.603 68.556L153.831 67.4419C153.987 67.969 154.232 68.3943 154.568 68.7178C154.903 69.0412 155.394 69.203 156.041 69.203C156.485 69.203 156.862 69.1251 157.174 68.9693C157.485 68.8136 157.725 68.586 157.892 68.2865C158.072 67.987 158.162 67.6216 158.162 67.1903C158.162 66.759 158.078 66.3996 157.91 66.112C157.755 65.8125 157.527 65.5909 157.227 65.4471C156.928 65.2914 156.551 65.2135 156.095 65.2135C155.784 65.2135 155.49 65.2435 155.215 65.3034C154.951 65.3633 154.712 65.4591 154.496 65.5909C154.28 65.7107 154.089 65.8724 153.921 66.0761L151.98 65.7167L152.717 59.1395H159.887V61.1342H154.586L154.226 64.0275L154.172 64.2611H154.208C154.46 63.9736 154.801 63.7519 155.233 63.5962C155.676 63.4404 156.179 63.3626 156.742 63.3626C157.521 63.3626 158.186 63.5183 158.737 63.8298C159.288 64.1413 159.713 64.5786 160.013 65.1416C160.312 65.6927 160.462 66.3277 160.462 67.0465C160.462 67.7294 160.348 68.3344 160.121 68.8615C159.893 69.3767 159.57 69.808 159.15 70.1554C158.743 70.4908 158.27 70.7484 157.731 70.9281C157.191 71.0958 156.61 71.1797 155.987 71.1797ZM164.488 71L172.485 59.1395H174.462L166.465 71H164.488ZM165.081 58.9598C165.728 58.9598 166.285 59.0976 166.752 59.3731C167.232 59.6487 167.597 60.0381 167.848 60.5412C168.112 61.0444 168.244 61.6314 168.244 62.3023C168.244 62.9732 168.112 63.5603 167.848 64.0634C167.597 64.5546 167.232 64.944 166.752 65.2315C166.285 65.507 165.728 65.6448 165.081 65.6448C164.446 65.6448 163.889 65.507 163.41 65.2315C162.931 64.944 162.559 64.5546 162.296 64.0634C162.044 63.5603 161.918 62.9732 161.918 62.3023C161.918 61.6314 162.044 61.0444 162.296 60.5412C162.559 60.0381 162.931 59.6487 163.41 59.3731C163.889 59.0976 164.446 58.9598 165.081 58.9598ZM165.081 60.667C164.817 60.667 164.59 60.7329 164.398 60.8647C164.206 60.9845 164.063 61.1702 163.967 61.4218C163.871 61.6614 163.823 61.9549 163.823 62.3023C163.823 62.6378 163.871 62.9313 163.967 63.1829C164.063 63.4225 164.206 63.6082 164.398 63.74C164.59 63.8598 164.817 63.9197 165.081 63.9197C165.357 63.9197 165.584 63.8598 165.764 63.74C165.956 63.6082 166.099 63.4225 166.195 63.1829C166.291 62.9313 166.339 62.6378 166.339 62.3023C166.339 61.9549 166.291 61.6614 166.195 61.4218C166.099 61.1702 165.956 60.9845 165.764 60.8647C165.584 60.7329 165.357 60.667 165.081 60.667ZM173.851 64.4947C174.486 64.4947 175.037 64.6385 175.504 64.926C175.983 65.2015 176.354 65.5909 176.618 66.0941C176.882 66.5853 177.013 67.1663 177.013 67.8372C177.013 68.5081 176.882 69.0951 176.618 69.5983C176.354 70.1015 175.983 70.4908 175.504 70.7664C175.037 71.0419 174.486 71.1797 173.851 71.1797C173.216 71.1797 172.659 71.0419 172.179 70.7664C171.7 70.4908 171.329 70.1015 171.065 69.5983C170.814 69.0951 170.688 68.5081 170.688 67.8372C170.688 67.1663 170.814 66.5853 171.065 66.0941C171.329 65.5909 171.7 65.2015 172.179 64.926C172.659 64.6385 173.216 64.4947 173.851 64.4947ZM173.851 66.2199C173.575 66.2199 173.341 66.2858 173.15 66.4175C172.97 66.5373 172.832 66.7171 172.736 66.9567C172.641 67.1963 172.593 67.4898 172.593 67.8372C172.593 68.1727 172.641 68.4662 172.736 68.7178C172.832 68.9693 172.97 69.161 173.15 69.2928C173.341 69.4126 173.575 69.4725 173.851 69.4725C174.126 69.4725 174.354 69.4126 174.533 69.2928C174.725 69.161 174.869 68.9693 174.965 68.7178C175.061 68.4662 175.109 68.1727 175.109 67.8372C175.109 67.4898 175.061 67.1963 174.965 66.9567C174.869 66.7171 174.725 66.5373 174.533 66.4175C174.354 66.2858 174.126 66.2199 173.851 66.2199Z" fill="#1E1E1E"/>
<path d="M52.9121 153V145.488C52.9121 145.213 52.9121 144.931 52.9121 144.644C52.9241 144.344 52.9361 144.039 52.9481 143.727C52.5407 144.099 52.0855 144.422 51.5823 144.698C51.0791 144.973 50.564 145.165 50.0369 145.273L49.7134 143.188C49.9889 143.164 50.2944 143.086 50.6299 142.955C50.9773 142.811 51.3247 142.643 51.6722 142.451C52.0316 142.248 52.355 142.038 52.6426 141.822C52.9421 141.595 53.1697 141.367 53.3254 141.14H55.3381V153H52.9121ZM61.9875 153.18C60.9452 153.18 60.0646 152.964 59.3458 152.533C58.639 152.101 58.0579 151.443 57.6027 150.556L59.831 149.442C59.9868 149.969 60.2324 150.394 60.5678 150.718C60.9032 151.041 61.3944 151.203 62.0414 151.203C62.4846 151.203 62.862 151.125 63.1735 150.969C63.485 150.814 63.7246 150.586 63.8923 150.286C64.072 149.987 64.1619 149.622 64.1619 149.19C64.1619 148.759 64.078 148.4 63.9103 148.112C63.7546 147.813 63.5269 147.591 63.2274 147.447C62.9279 147.291 62.5505 147.214 62.0953 147.214C61.7838 147.214 61.4903 147.243 61.2147 147.303C60.9512 147.363 60.7116 147.459 60.4959 147.591C60.2803 147.711 60.0886 147.872 59.9209 148.076L57.9801 147.717L58.7168 141.14H65.887V143.134H60.5858L60.2264 146.027L60.1725 146.261H60.2084C60.46 145.974 60.8014 145.752 61.2327 145.596C61.676 145.44 62.1791 145.363 62.7422 145.363C63.5209 145.363 64.1858 145.518 64.7369 145.83C65.288 146.141 65.7133 146.579 66.0128 147.142C66.3123 147.693 66.4621 148.328 66.4621 149.047C66.4621 149.729 66.3483 150.334 66.1207 150.862C65.893 151.377 65.5696 151.808 65.1503 152.155C64.7429 152.491 64.2697 152.748 63.7306 152.928C63.1915 153.096 62.6104 153.18 61.9875 153.18ZM70.488 153L78.4849 141.14H80.4616L72.4648 153H70.488ZM71.0811 140.96C71.728 140.96 72.2851 141.098 72.7523 141.373C73.2315 141.649 73.5969 142.038 73.8485 142.541C74.1121 143.044 74.2438 143.631 74.2438 144.302C74.2438 144.973 74.1121 145.56 73.8485 146.063C73.5969 146.555 73.2315 146.944 72.7523 147.231C72.2851 147.507 71.728 147.645 71.0811 147.645C70.4461 147.645 69.889 147.507 69.4098 147.231C68.9306 146.944 68.5592 146.555 68.2956 146.063C68.0441 145.56 67.9183 144.973 67.9183 144.302C67.9183 143.631 68.0441 143.044 68.2956 142.541C68.5592 142.038 68.9306 141.649 69.4098 141.373C69.889 141.098 70.4461 140.96 71.0811 140.96ZM71.0811 142.667C70.8175 142.667 70.5899 142.733 70.3982 142.865C70.2065 142.984 70.0627 143.17 69.9669 143.422C69.871 143.661 69.8231 143.955 69.8231 144.302C69.8231 144.638 69.871 144.931 69.9669 145.183C70.0627 145.422 70.2065 145.608 70.3982 145.74C70.5899 145.86 70.8175 145.92 71.0811 145.92C71.3566 145.92 71.5842 145.86 71.7639 145.74C71.9556 145.608 72.0994 145.422 72.1952 145.183C72.2911 144.931 72.339 144.638 72.339 144.302C72.339 143.955 72.2911 143.661 72.1952 143.422C72.0994 143.17 71.9556 142.984 71.7639 142.865C71.5842 142.733 71.3566 142.667 71.0811 142.667ZM79.8506 146.495C80.4856 146.495 81.0367 146.638 81.5039 146.926C81.9831 147.202 82.3545 147.591 82.6181 148.094C82.8816 148.585 83.0134 149.166 83.0134 149.837C83.0134 150.508 82.8816 151.095 82.6181 151.598C82.3545 152.101 81.9831 152.491 81.5039 152.766C81.0367 153.042 80.4856 153.18 79.8506 153.18C79.2157 153.18 78.6586 153.042 78.1794 152.766C77.7002 152.491 77.3288 152.101 77.0652 151.598C76.8136 151.095 76.6878 150.508 76.6878 149.837C76.6878 149.166 76.8136 148.585 77.0652 148.094C77.3288 147.591 77.7002 147.202 78.1794 146.926C78.6586 146.638 79.2157 146.495 79.8506 146.495ZM79.8506 148.22C79.5751 148.22 79.3414 148.286 79.1498 148.418C78.9701 148.537 78.8323 148.717 78.7364 148.957C78.6406 149.196 78.5927 149.49 78.5927 149.837C78.5927 150.173 78.6406 150.466 78.7364 150.718C78.8323 150.969 78.9701 151.161 79.1498 151.293C79.3414 151.413 79.5751 151.473 79.8506 151.473C80.1262 151.473 80.3538 151.413 80.5335 151.293C80.7252 151.161 80.8689 150.969 80.9648 150.718C81.0606 150.466 81.1085 150.173 81.1085 149.837C81.1085 149.49 81.0606 149.196 80.9648 148.957C80.8689 148.717 80.7252 148.537 80.5335 148.418C80.3538 148.286 80.1262 148.22 79.8506 148.22Z" fill="#1E1E1E"/>
<path d="M36.9295 257V249.488C36.9295 249.213 36.9295 248.931 36.9295 248.644C36.9415 248.344 36.9535 248.039 36.9655 247.727C36.5581 248.099 36.1029 248.422 35.5997 248.698C35.0965 248.973 34.5814 249.165 34.0543 249.273L33.7308 247.188C34.0063 247.164 34.3118 247.086 34.6473 246.955C34.9947 246.811 35.3421 246.643 35.6896 246.451C36.049 246.248 36.3724 246.038 36.66 245.822C36.9595 245.595 37.1871 245.367 37.3428 245.14H39.3555V257H36.9295ZM46.5799 257.18C45.0584 257.18 43.8843 256.665 43.0577 255.634C42.2431 254.604 41.8357 253.082 41.8357 251.07C41.8357 249.057 42.2431 247.536 43.0577 246.505C43.8843 245.475 45.0584 244.96 46.5799 244.96C48.1014 244.96 49.2695 245.475 50.0841 246.505C50.9108 247.536 51.3241 249.057 51.3241 251.07C51.3241 253.082 50.9108 254.604 50.0841 255.634C49.2695 256.665 48.1014 257.18 46.5799 257.18ZM46.5799 255.185C47.0951 255.185 47.5144 255.041 47.8378 254.754C48.1733 254.454 48.4249 254.005 48.5926 253.406C48.7603 252.795 48.8442 252.016 48.8442 251.07C48.8442 250.123 48.7603 249.351 48.5926 248.752C48.4249 248.141 48.1733 247.691 47.8378 247.404C47.5144 247.104 47.0951 246.955 46.5799 246.955C46.0648 246.955 45.6395 247.104 45.304 247.404C44.9686 247.691 44.717 248.141 44.5493 248.752C44.3935 249.351 44.3156 250.123 44.3156 251.07C44.3156 252.016 44.3935 252.795 44.5493 253.406C44.717 254.005 44.9686 254.454 45.304 254.754C45.6395 255.041 46.0648 255.185 46.5799 255.185ZM55.4706 257L63.4675 245.14H65.4442L57.4474 257H55.4706ZM56.0637 244.96C56.7106 244.96 57.2677 245.098 57.7349 245.373C58.2141 245.649 58.5795 246.038 58.8311 246.541C59.0947 247.044 59.2264 247.631 59.2264 248.302C59.2264 248.973 59.0947 249.56 58.8311 250.063C58.5795 250.555 58.2141 250.944 57.7349 251.231C57.2677 251.507 56.7106 251.645 56.0637 251.645C55.4287 251.645 54.8716 251.507 54.3924 251.231C53.9132 250.944 53.5418 250.555 53.2782 250.063C53.0267 249.56 52.9009 248.973 52.9009 248.302C52.9009 247.631 53.0267 247.044 53.2782 246.541C53.5418 246.038 53.9132 245.649 54.3924 245.373C54.8716 245.098 55.4287 244.96 56.0637 244.96ZM56.0637 246.667C55.8001 246.667 55.5725 246.733 55.3808 246.865C55.1891 246.984 55.0453 247.17 54.9495 247.422C54.8536 247.661 54.8057 247.955 54.8057 248.302C54.8057 248.638 54.8536 248.931 54.9495 249.183C55.0453 249.422 55.1891 249.608 55.3808 249.74C55.5725 249.86 55.8001 249.92 56.0637 249.92C56.3392 249.92 56.5668 249.86 56.7465 249.74C56.9382 249.608 57.082 249.422 57.1778 249.183C57.2737 248.931 57.3216 248.638 57.3216 248.302C57.3216 247.955 57.2737 247.661 57.1778 247.422C57.082 247.17 56.9382 246.984 56.7465 246.865C56.5668 246.733 56.3392 246.667 56.0637 246.667ZM64.8332 250.495C65.4682 250.495 66.0193 250.638 66.4865 250.926C66.9657 251.202 67.3371 251.591 67.6007 252.094C67.8642 252.585 67.996 253.166 67.996 253.837C67.996 254.508 67.8642 255.095 67.6007 255.598C67.3371 256.101 66.9657 256.491 66.4865 256.766C66.0193 257.042 65.4682 257.18 64.8332 257.18C64.1983 257.18 63.6412 257.042 63.162 256.766C62.6828 256.491 62.3114 256.101 62.0478 255.598C61.7962 255.095 61.6704 254.508 61.6704 253.837C61.6704 253.166 61.7962 252.585 62.0478 252.094C62.3114 251.591 62.6828 251.202 63.162 250.926C63.6412 250.638 64.1983 250.495 64.8332 250.495ZM64.8332 252.22C64.5577 252.22 64.3241 252.286 64.1324 252.418C63.9527 252.537 63.8149 252.717 63.719 252.957C63.6232 253.196 63.5753 253.49 63.5753 253.837C63.5753 254.173 63.6232 254.466 63.719 254.718C63.8149 254.969 63.9527 255.161 64.1324 255.293C64.3241 255.413 64.5577 255.473 64.8332 255.473C65.1088 255.473 65.3364 255.413 65.5161 255.293C65.7078 255.161 65.8515 254.969 65.9474 254.718C66.0432 254.466 66.0911 254.173 66.0911 253.837C66.0911 253.49 66.0432 253.196 65.9474 252.957C65.8515 252.717 65.7078 252.537 65.5161 252.418C65.3364 252.286 65.1088 252.22 64.8332 252.22Z" fill="#1E1E1E"/>
</svg>
