<svg width="166" height="166" viewBox="0 0 166 166" fill="none" xmlns="http://www.w3.org/2000/svg">
<path d="M65.199 19.7825C66.2825 17.6171 69.0681 16.9707 70.9945 18.4377L76.0322 22.2739C77.5789 23.4517 79.7598 23.2967 81.1244 21.9121L85.5692 17.4022C87.2688 15.6776 90.1178 15.9236 91.4966 17.9141L95.1023 23.1193C96.2093 24.7174 98.3314 25.244 100.057 24.3488L105.678 21.4331C107.827 20.3181 110.461 21.4325 111.157 23.7516L112.978 29.8163C113.537 31.6783 115.392 32.8348 117.31 32.5167L123.557 31.4807C125.946 31.0845 128.106 32.9581 128.051 35.3789L127.909 41.7094C127.865 43.6529 129.272 45.3262 131.195 45.6164L137.456 46.5614C139.85 46.9227 141.326 49.3722 140.526 51.6577L138.434 57.6343C137.792 59.4692 138.613 61.4955 140.352 62.3654L146.014 65.199C148.18 66.2825 148.826 69.0681 147.359 70.9945L143.523 76.0322C142.345 77.5789 142.5 79.7598 143.885 81.1244L148.395 85.5692C150.119 87.2688 149.873 90.1178 147.883 91.4966L142.678 95.1023C141.079 96.2093 140.553 98.3314 141.448 100.057L144.364 105.678C145.479 107.827 144.364 110.461 142.045 111.157L135.981 112.978C134.119 113.537 132.962 115.392 133.28 117.31L134.316 123.557C134.712 125.946 132.839 128.106 130.418 128.051L124.087 127.909C122.144 127.865 120.471 129.272 120.181 131.195L119.235 137.456C118.874 139.85 116.425 141.326 114.139 140.526L108.163 138.434C106.328 137.792 104.301 138.613 103.431 140.352L100.598 146.014C99.5143 148.18 96.7288 148.826 94.8024 147.359L89.7646 143.523C88.218 142.345 86.0371 142.5 84.6725 143.885L80.2277 148.395C78.528 150.119 75.6791 149.873 74.3003 147.883L70.6946 142.678C69.5876 141.079 67.4655 140.553 65.7398 141.448L60.119 144.364C57.9696 145.479 55.3361 144.364 54.6398 142.045L52.8191 135.981C52.2601 134.119 50.4046 132.962 48.4868 133.28L42.24 134.316C39.8513 134.712 37.6911 132.839 37.7455 130.418L37.888 124.087C37.9318 122.144 36.5245 120.471 34.6022 120.181L28.341 119.235C25.9468 118.874 24.4713 116.425 25.2711 114.139L27.3629 108.163C28.005 106.328 27.1837 104.301 25.4452 103.431L19.7825 100.598C17.6171 99.5143 16.9707 96.7288 18.4377 94.8024L22.2739 89.7646C23.4517 88.218 23.2967 86.0371 21.9121 84.6725L17.4022 80.2277C15.6776 78.528 15.9236 75.6791 17.9141 74.3003L23.1193 70.6946C24.7174 69.5876 25.244 67.4655 24.3488 65.7398L21.4331 60.119C20.3181 57.9696 21.4325 55.3361 23.7516 54.6398L29.8163 52.8191C31.6783 52.2601 32.8348 50.4046 32.5167 48.4868L31.4807 42.24C31.0845 39.8513 32.9581 37.6911 35.3789 37.7455L41.7094 37.888C43.6529 37.9318 45.3262 36.5245 45.6164 34.6022L46.5614 28.341C46.9227 25.9468 49.3722 24.4713 51.6577 25.2711L57.6343 27.3629C59.4692 28.005 61.4955 27.1837 62.3654 25.4452L65.199 19.7825Z" fill="black"/>
<path d="M69.0936 32.7376C69.9062 31.1136 71.9954 30.6288 73.4402 31.729L77.6737 34.9529C78.8337 35.8362 80.4694 35.72 81.4929 34.6815L85.2281 30.8915C86.5028 29.5981 88.6396 29.7826 89.6737 31.2754L92.7038 35.6497C93.5341 36.8483 95.1256 37.2432 96.4199 36.5719L101.143 34.1216C102.756 33.2854 104.731 34.1212 105.253 35.8605L106.783 40.9571C107.202 42.3535 108.594 43.2209 110.032 42.9824L115.282 42.1117C117.073 41.8146 118.693 43.2198 118.653 45.0353L118.533 50.3553C118.5 51.813 119.556 53.068 120.997 53.2856L126.259 54.0797C128.055 54.3507 129.161 56.1878 128.561 57.9019L126.804 62.9245C126.322 64.3007 126.938 65.8204 128.242 66.4729L133.001 68.8541C134.625 69.6668 135.109 71.7559 134.009 73.2007L130.785 77.4343C129.902 78.5943 130.018 80.23 131.057 81.2534L134.847 84.9887C136.14 86.2634 135.956 88.4001 134.463 89.4342L130.088 92.4644C128.89 93.2946 128.495 94.8862 129.166 96.1804L131.617 100.904C132.453 102.516 131.617 104.491 129.878 105.013L124.781 106.543C123.385 106.963 122.517 108.354 122.756 109.793L123.626 115.042C123.924 116.834 122.518 118.454 120.703 118.413L115.383 118.293C113.925 118.261 112.67 119.316 112.453 120.758L111.658 126.019C111.387 127.815 109.55 128.922 107.836 128.322L102.814 126.564C101.437 126.082 99.9177 126.698 99.2653 128.002L96.884 132.761C96.0714 134.385 93.9822 134.87 92.5374 133.77L88.3039 130.546C87.1439 129.662 85.5082 129.779 84.4847 130.817L80.7495 134.607C79.4747 135.901 77.338 135.716 76.3039 134.223L73.2738 129.849C72.4435 128.65 70.852 128.255 69.5577 128.927L64.8341 131.377C63.2221 132.213 61.247 131.378 60.7248 129.638L59.1947 124.542C58.7754 123.145 57.3838 122.278 55.9455 122.516L50.6959 123.387C48.9043 123.684 47.2841 122.279 47.325 120.463L47.4447 115.143C47.4775 113.686 46.4221 112.431 44.9804 112.213L39.7187 111.419C37.923 111.148 36.8164 109.311 37.4163 107.597L39.1741 102.574C39.6557 101.198 39.0397 99.6783 37.7358 99.0258L32.9771 96.6446C31.353 95.8319 30.8682 93.7428 31.9685 92.298L35.1923 88.0644C36.0756 86.9044 35.9594 85.2687 34.921 84.2453L31.1309 80.51C29.8375 79.2353 30.022 77.0986 31.5149 76.0645L35.8892 73.0343C37.0877 72.2041 37.4827 70.6125 36.8113 69.3183L34.361 64.5947C33.5248 62.9826 34.3606 61.0075 36.0999 60.4853L41.1965 58.9552C42.593 58.536 43.4604 57.1444 43.2218 55.706L42.3512 50.4564C42.054 48.6649 43.4592 47.0447 45.2748 47.0856L50.5948 47.2053C52.0524 47.2381 53.3074 46.1826 53.525 44.7409L54.3192 39.4792C54.5902 37.6835 56.4273 36.5769 58.1414 37.1768L63.164 38.9346C64.5401 39.4163 66.0599 38.8003 66.7123 37.4964L69.0936 32.7376Z" fill="white"/>
<path d="M51.2595 87.8762C50.6595 88.0154 50.131 88.0559 49.674 87.9977C49.2152 87.9317 48.8598 87.8335 48.6078 87.7031L48.2335 86.0899C48.5424 86.1825 48.9427 86.2621 49.4345 86.3286C49.9341 86.3934 50.4605 86.3616 51.0138 86.2332C51.3723 86.15 51.621 86.0184 51.7599 85.8383C51.9065 85.6565 51.9519 85.4447 51.8958 85.2032C51.8452 84.985 51.7334 84.822 51.5606 84.7143C51.3878 84.6065 51.1476 84.5268 50.8399 84.475C50.5322 84.4232 50.1421 84.37 49.6695 84.3154C48.9936 84.2341 48.4427 84.054 48.0166 83.775C47.5905 83.4961 47.307 83.0528 47.1659 82.4449C47.0665 82.0163 47.0668 81.5933 47.1671 81.1758C47.2751 80.7565 47.5055 80.3869 47.8583 80.0669C48.2171 79.7372 48.716 79.4983 49.355 79.35C49.6044 79.2921 49.8526 79.2468 50.0996 79.2142C50.3526 79.1719 50.5684 79.1464 50.7471 79.1378L52.2931 79.8015L51.9853 81.1295L49.6698 80.8661C49.3893 80.9312 49.1718 81.0555 49.0173 81.2392C48.8688 81.4133 48.8235 81.625 48.8814 81.8744C48.9537 82.1861 49.1374 82.394 49.4326 82.4979C49.7355 82.6001 50.1427 82.674 50.6543 82.7195C51.627 82.8059 52.3453 83.017 52.8092 83.3528C53.2713 83.6808 53.5675 84.1254 53.6977 84.6865C53.8025 85.1385 53.8058 85.5771 53.7073 86.0024C53.6071 86.4198 53.3611 86.7931 52.9694 87.1222C52.5854 87.4494 52.0155 87.7008 51.2595 87.8762ZM57.2368 86.366L53.6436 80.4367L53.0244 79.3608L52.8617 78.6595L54.5917 78.258L57.748 84.3749L57.9818 84.3207L58.0985 77.4443L59.8052 77.0483L59.9679 77.7496L59.8858 78.9883L59.2825 85.8913L57.2368 86.366ZM62.8252 85.0692L61.3415 78.6751L60.8365 77.5604L60.9075 76.8048L62.3219 76.4766L66.1056 79.9349L66.8918 80.7749L67.0087 80.7478L65.8288 75.6629L67.5471 75.2641L67.7098 75.9655L67.8642 77.1616L69.3479 83.5557L68.0036 83.8676L63.4068 79.6125L63.29 79.6397L63.4527 80.341L64.5786 84.6624L62.8252 85.0692ZM71.1014 83.1488L69.6177 76.7547L69.1127 75.64L69.1837 74.8844L70.5981 74.5562L74.3818 78.0144L75.168 78.8544L75.2849 78.8273L74.105 73.7424L75.8233 73.3437L75.986 74.0451L76.1404 75.2411L77.6241 81.6352L76.2798 81.9472L71.683 77.6921L71.5662 77.7192L71.7289 78.4206L72.8548 82.7419L71.1014 83.1488ZM82.0689 80.6038L80.5825 74.198L80.1944 73.0562L80.1485 72.3277L81.785 71.948L83.7054 80.2241L82.0689 80.6038ZM87.5378 79.458C86.9378 79.5973 86.4093 79.6378 85.9523 79.5796C85.4935 79.5136 85.1381 79.4153 84.8861 79.2849L84.5118 77.6718C84.8207 77.7644 85.221 77.8439 85.7128 77.9105C86.2124 77.9752 86.7388 77.9434 87.2921 77.815C87.6506 77.7319 87.8993 77.6002 88.0382 77.4202C88.1849 77.2383 88.2302 77.0266 88.1741 76.785C88.1235 76.5668 88.0117 76.4038 87.8389 76.2961C87.6661 76.1884 87.4259 76.1086 87.1182 76.0568C86.8105 76.005 86.4204 75.9519 85.9478 75.8973C85.2719 75.8159 84.721 75.6358 84.2949 75.3569C83.8688 75.078 83.5853 74.6346 83.4442 74.0268C83.3448 73.5981 83.3452 73.1751 83.4454 72.7576C83.5534 72.3384 83.7838 71.9687 84.1366 71.6487C84.4954 71.3191 84.9943 71.0801 85.6333 70.9318C85.8827 70.874 86.1309 70.8287 86.3779 70.796C86.6309 70.7537 86.8467 70.7283 87.0254 70.7197L88.5714 71.3834L88.2636 72.7113L85.9481 72.4479C85.6676 72.513 85.4501 72.6374 85.2956 72.8211C85.1471 72.9951 85.1018 73.2069 85.1597 73.4562C85.232 73.768 85.4157 73.9758 85.7109 74.0798C86.0138 74.1819 86.421 74.2558 86.9326 74.3014C87.9053 74.3877 88.6236 74.5988 89.0875 74.9347C89.5496 75.2627 89.8458 75.7073 89.976 76.2683C90.0808 76.7203 90.0841 77.159 89.9856 77.5842C89.8854 78.0017 89.6394 78.3749 89.2477 78.704C88.8637 79.0313 88.2938 79.2826 87.5378 79.458ZM96.5688 77.2392L94.9956 70.4594L92.4511 71.173L92.0767 69.5599L98.9151 67.9731L99.2894 69.5862L96.6321 70.0796L97.7714 74.9892L98.1712 76.1283L98.2053 76.8595L96.5688 77.2392ZM101.943 75.9921L100.46 69.598L100.071 68.4562L100.023 67.716L101.659 67.3363L102.451 70.7496L105.83 69.9657L105.038 66.5524L106.674 66.1726L107.694 70.5679L107.998 71.3473L108.711 74.4216L106.958 74.8285L106.185 71.497L102.807 72.2809L103.026 73.2278L103.697 75.5853L101.943 75.9921ZM110.348 74.0419L109.951 73.3948L109.914 72.1716L108.427 65.7658L113.734 64.5344L114.4 64.7494L114.044 66.1872L112.848 66.3415L110.393 66.9111L110.814 68.723L113.97 67.9906L114.309 69.4518L113.163 69.7176L111.125 70.0673L111.608 72.148L115.349 71.28L116.451 71.8372L115.935 72.7454L110.348 74.0419ZM64.7375 100.024L63.2565 93.6416L62.746 92.5035L62.8171 91.7479L68.1358 90.5138L68.8016 90.7288L68.5623 92.1394L67.4831 92.2667L64.6893 92.9149L65.2266 94.6997L68.3711 93.97L68.7101 95.4312L67.7633 95.6509L65.5386 96.044L65.9427 97.7857L66.3426 98.9248L66.374 99.6443L64.7375 100.024ZM74.4876 97.8848C73.6849 98.071 73.0229 98.085 72.5016 97.9268C71.9882 97.7667 71.5744 97.4521 71.2602 96.983C70.952 96.5042 70.7111 95.8908 70.5375 95.1427L69.8323 92.1034L69.57 90.9201L69.3956 90.2214L71.0555 89.8363L72.2245 94.8744C72.3511 95.4199 72.5633 95.8388 72.8611 96.131C73.157 96.4155 73.5816 96.4935 74.1349 96.3652C74.6882 96.2368 75.0417 95.9905 75.1954 95.6263C75.355 95.2526 75.3661 94.7696 75.2287 94.1773L74.0596 89.1392L75.6845 88.7621L76.8264 93.6834C76.9964 94.4159 77.0484 95.0649 76.9826 95.6305C76.9227 96.1864 76.6945 96.6541 76.298 97.0335C75.9093 97.4112 75.3058 97.6949 74.4876 97.8848ZM81.0497 96.2389L79.4765 89.459L76.9319 90.1727L76.5576 88.5595L83.3959 86.9727L83.7702 88.5859L81.113 89.0793L82.2522 93.9888L82.6521 95.1279L82.6862 95.8591L81.0497 96.2389ZM89.3619 94.4333C88.5592 94.6195 87.8972 94.6335 87.376 94.4753C86.8625 94.3152 86.4487 94.0006 86.1345 93.5315C85.8263 93.0527 85.5854 92.4393 85.4118 91.6912L84.7066 88.6519L84.4443 87.4686L84.2699 86.7699L85.9298 86.3848L87.0989 91.4229C87.2254 91.9684 87.4376 92.3873 87.7354 92.6796C88.0313 92.964 88.456 93.0421 89.0093 92.9137C89.5626 92.7853 89.9161 92.539 90.0697 92.1748C90.2294 91.8011 90.2405 91.3181 90.103 90.7258L88.934 85.6877L90.5588 85.3106L91.7007 90.2319C91.8707 90.9644 91.9228 91.6134 91.8569 92.179C91.797 92.7349 91.5688 93.2026 91.1723 93.582C90.7836 93.9597 90.1802 94.2434 89.3619 94.4333ZM93.9953 93.235L92.5116 86.8408L92.0038 85.7145L92.0749 84.9588L94.8803 84.3079C95.4492 84.1758 95.9804 84.147 96.474 84.2214C96.9736 84.2861 97.4047 84.4982 97.7673 84.8575C98.1359 85.2072 98.4052 85.7484 98.5752 86.4809C98.7361 87.1745 98.732 87.7585 98.5629 88.233C98.4016 88.7057 98.1145 89.0967 97.7017 89.4061L98.1113 89.6313L99.4337 90.6056L100.238 91.0472L100.401 91.7485L98.2385 92.2503L96.0243 90.1402L95.0541 90.3654L95.1951 90.9732L95.5832 92.115L95.6318 92.8552L93.9953 93.235ZM94.7096 88.8808L95.8551 88.615C96.3695 88.4956 96.6894 88.2818 96.815 87.9734C96.9387 87.6573 96.9526 87.2927 96.8568 86.8797C96.7555 86.4432 96.5765 86.1317 96.3196 85.9449C96.0705 85.7563 95.6849 85.7226 95.1628 85.8438L93.9471 86.1258L94.7096 88.8808ZM101.45 91.5052L101.053 90.8581L101.016 89.6349L99.5292 83.2291L104.836 81.9977L105.502 82.2127L105.146 83.6505L103.95 83.8048L101.495 84.3744L101.915 86.1863L105.071 85.4539L105.411 86.9151L104.265 87.1809L102.227 87.5306L102.71 89.6113L106.451 88.7433L107.553 89.3005L107.037 90.2087L101.45 91.5052Z" fill="black"/>
</svg>
