<svg width="49" height="49" viewBox="0 0 49 49" fill="none" xmlns="http://www.w3.org/2000/svg">
<path d="M43.7024 23.2845H37.9076C36.4436 23.2773 35.0377 23.8571 34.0042 24.8942L25.1108 33.7876V14.5722C25.1045 13.5546 24.4857 12.641 23.543 12.2578C22.6002 11.8745 21.5195 12.0971 20.8049 12.8217L11.0866 22.54C10.6145 23.0195 9.96871 23.288 9.29583 23.2845H3.52115C2.68772 23.2845 2.01208 23.9601 2.01208 24.7936C2.01208 25.627 2.68772 26.3026 3.52115 26.3026H9.29583C10.8037 26.3327 12.258 25.7437 13.32 24.6728L22.0524 15.7996V35.015C22.0504 36.0295 22.6629 36.9443 23.6017 37.3288C23.906 37.4628 24.2351 37.5313 24.5675 37.5301C25.2339 37.5304 25.8723 37.262 26.3382 36.7856L36.137 27.027C36.6088 26.5617 37.2451 26.3014 37.9076 26.3026H43.7024C44.5359 26.3026 45.2115 25.627 45.2115 24.7936C45.2115 23.9601 44.5359 23.2845 43.7024 23.2845Z" fill="black"/>
</svg>
