<svg width="44" height="44" viewBox="0 0 44 44" fill="none" xmlns="http://www.w3.org/2000/svg">
<path fill-rule="evenodd" clip-rule="evenodd" d="M9.3151 27.5391C10.578 25.2498 12.9872 23.8297 15.6017 23.8333C18.6949 23.8791 21.4098 25.9041 22.3355 28.8559C23.2612 31.8078 22.1888 35.0204 19.6756 36.8243C17.1624 38.6283 13.7755 38.6164 11.275 36.795L8.6167 39.5633C8.35418 39.8274 7.99901 39.9787 7.6267 39.985C7.27033 39.9887 6.92721 39.8501 6.67336 39.6C6.1372 39.0632 6.1372 38.1935 6.67336 37.6567L9.3317 34.8333H9.53336C8.13582 32.6237 8.05218 29.8284 9.3151 27.5391ZM11.1834 31.0017C11.1834 33.4418 13.1615 35.42 15.6017 35.42V35.365C18.0206 35.3652 19.9899 33.4203 20.02 31.0017C20.02 28.5615 18.0419 26.5833 15.6017 26.5833C13.1615 26.5833 11.1834 28.5615 11.1834 31.0017Z" fill="black"/>
<path fill-rule="evenodd" clip-rule="evenodd" d="M24.4749 4.36334L37.3082 17.1967C37.6139 17.4512 37.7945 17.8256 37.8032 18.2233V31.0567C37.8032 33.3663 36.8857 35.5813 35.2526 37.2144C33.6195 38.8475 31.4045 39.765 29.0949 39.765H23.8332C23.0738 39.765 22.4582 39.1494 22.4582 38.39C22.4582 37.6306 23.0738 37.015 23.8332 37.015H29.0032C32.2939 37.015 34.9615 34.3474 34.9615 31.0567V19.5983H27.1699C24.3896 19.5883 22.1382 17.3369 22.1282 14.5567V6.76501H18.0032C14.7167 6.77507 12.0549 9.43682 12.0449 12.7233V21.89C12.0449 22.6494 11.4293 23.265 10.6699 23.265C9.91047 23.265 9.29486 22.6494 9.29486 21.89V12.7233C9.28021 10.4042 10.1912 8.17508 11.8259 6.53003C13.4607 4.88499 15.684 3.95996 18.0032 3.96001H23.5032C23.8677 3.96033 24.2172 4.1054 24.4749 4.36334ZM24.8782 8.65334V14.5567C24.8782 15.8223 25.9042 16.8483 27.1699 16.8483H32.9999L24.8782 8.65334Z" fill="black"/>
</svg>
