<svg width="49" height="49" viewBox="0 0 49 49" fill="none" xmlns="http://www.w3.org/2000/svg">
<path d="M32.065 13.7234C31.2316 13.7234 30.5559 14.399 30.5559 15.2325C30.5559 16.0659 31.2316 16.7416 32.065 16.7416C35.6709 16.7634 38.5917 19.6753 38.6246 23.2811V27.3054C38.5917 30.9112 35.6709 33.823 32.065 33.8449H27.598L30.3547 31.1084C30.9432 30.5192 30.9432 29.5647 30.3547 28.9755C30.0744 28.6878 29.6899 28.5256 29.2883 28.5256C28.8867 28.5256 28.5021 28.6878 28.2218 28.9755L22.8896 34.2876C22.7532 34.4271 22.644 34.5909 22.5677 34.7705C22.4273 35.1468 22.4273 35.5612 22.5677 35.9375C22.644 36.1171 22.7532 36.2809 22.8896 36.4204L28.2218 41.7325C28.811 42.321 29.7655 42.321 30.3547 41.7325C30.9432 41.1433 30.9432 40.1888 30.3547 39.5996L27.598 36.8631H32.065C37.3378 36.8412 41.6098 32.5781 41.6429 27.3054V23.2811C41.6098 18.0084 37.3378 13.7453 32.065 13.7234Z" fill="black"/>
<path d="M25.4652 15.816C25.6055 15.4396 25.6055 15.0253 25.4652 14.6489C25.3817 14.4733 25.2733 14.3106 25.1432 14.166L19.811 8.85394C19.5307 8.56631 19.1462 8.40408 18.7446 8.40408C18.343 8.40408 17.9584 8.56631 17.6781 8.85394C17.0897 9.44313 17.0897 10.3976 17.6781 10.9868L20.4348 13.7234H15.9678C10.6951 13.7453 6.423 18.0084 6.38995 23.2811V27.3054C6.423 32.5781 10.6951 36.8412 15.9678 36.8631C16.8013 36.8631 17.4769 36.1875 17.4769 35.354C17.4769 34.5205 16.8013 33.8449 15.9678 33.8449C12.3619 33.823 9.4411 30.9112 9.40818 27.3054V23.2811C9.4411 19.6753 12.3619 16.7634 15.9678 16.7416H20.4147L17.6781 19.4781C17.0897 20.0673 17.0897 21.0218 17.6781 21.611C18.2673 22.1995 19.2218 22.1995 19.811 21.611L25.1432 16.2989C25.2733 16.1543 25.3817 15.9917 25.4652 15.816Z" fill="black"/>
</svg>
