<svg width="322" height="322" viewBox="0 0 322 322" fill="none" xmlns="http://www.w3.org/2000/svg">
<mask id="mask0_1_159" style="mask-type:alpha" maskUnits="userSpaceOnUse" x="10" y="11" width="301" height="300">
<circle cx="160.838" cy="161.031" r="149.848" transform="rotate(-4.26634 160.838 161.031)" fill="#F1F1F1"/>
</mask>
<g mask="url(#mask0_1_159)">
<path fill-rule="evenodd" clip-rule="evenodd" d="M153.996 -10.5918C178.271 -10.3641 198.149 -6.69778 219.379 1.46715C227.39 4.54803 233.34 7.36369 242.496 12.4075C252.773 18.0688 258.494 21.9903 267.626 29.6347C287.405 46.1902 302.197 64.8583 313.427 87.4367C336.262 133.345 336.553 188.775 314.207 236.05C307.854 249.49 300.139 261.181 289.42 273.611C265.452 301.405 233.523 321.254 198.989 329.826C185.191 333.251 165.626 335.562 153.041 335.253C133.556 334.774 115.288 331.469 97.6165 325.224C42.9766 305.915 2.49248 263 -12.671 208.314C-16.0853 196.001 -17.0784 189.996 -18.1579 175.138C-19.2524 160.078 -19.1449 154.92 -17.4572 141.5C-11.9917 98.0369 11.6437 55.8345 45.7078 28.7159C64.6678 13.6216 85.9469 2.59891 108.197 -3.65439C117.312 -6.21616 124.457 -7.80992 130.739 -8.68311C133.431 -9.05711 135.721 -9.45333 135.827 -9.56323C136.217 -9.9685 148.187 -10.646 153.996 -10.5918ZM135.871 7.18089C125.563 8.47875 114.174 11.1992 103.774 14.8469C72.9182 25.6695 44.0387 47.5994 26.1631 73.7796C14.3653 91.0593 6.9735 107.217 2.15126 126.268C-8.84651 169.717 0.419651 217.249 27.2796 255.169C33.6645 261.729 29.4086 260.268 45.4317 262.387C58.7492 264.148 72.7236 266.43 90.6211 269.767C123.453 275.89 136.099 277.864 152.011 279.35C153.329 279.473 153.346 279.43 153.582 275.374C154.057 267.179 153.951 259.616 153.223 249.839C152.576 241.145 152.258 239.06 150.756 233.66C141.536 200.518 119.888 179.523 91.8988 176.579C86.1026 175.97 73.3586 177.156 67.6282 178.838C65.0781 179.587 61.9324 180.65 60.6373 181.201L58.2836 182.203L56.4549 180.682L54.6262 179.161L55.9651 177.774C59.8268 173.774 70.8185 170.197 82.2476 169.221C86.4042 168.867 89.797 168.463 89.7867 168.325C89.7622 167.996 83.7022 164.599 81.7186 163.802C77.9776 162.301 69.4102 161.161 62.2843 161.218C57.1232 161.26 55.8101 160.82 55.6747 159.005C55.6158 158.216 55.8515 157.296 56.1982 156.963C57.107 156.088 64.3753 154.655 68.1119 154.614C69.8681 154.595 71.3009 154.527 71.2962 154.463C71.2915 154.4 69.9849 152.685 68.3933 150.651C63.5502 144.465 63.1333 143.663 63.9033 142.011C64.3883 140.97 65.0017 140.535 66.2675 140.333C67.894 140.074 68.1443 140.254 71.3971 144.029C76.9027 150.419 82.9477 155.581 88.7564 158.853C95.6257 162.722 122.092 173.477 122.009 172.366C121.88 170.638 118.726 165.179 115.411 160.944C111.588 156.061 104.063 149.163 98.279 145.237C88.5658 138.646 80.4123 135.326 61.5107 130.263C53.1103 128.012 51.515 127.741 46.7074 127.746C42.4164 127.751 40.7481 127.524 38.5155 126.633C32.4455 124.212 30.6816 119.313 34.2353 114.748C37.12 111.042 43.489 108.974 50.3421 109.518C53.7408 109.787 54.1872 109.707 57.7244 108.19C61.0766 106.754 62.2504 106.516 68.4306 106.022C74.4288 105.543 75.8487 105.588 78.8806 106.356C88.173 108.71 97.7412 114.494 97.9961 117.911C98.2358 121.124 93.8158 122.97 85.6857 123.052C80.6914 123.102 80.5953 123.125 78.0916 124.809L75.5555 126.516L82.4329 129.184C93.6463 133.535 100.211 137.109 108.369 143.305C118.615 151.088 130.077 164.205 137.146 176.24C139.565 180.357 141.807 183.505 143.374 184.98C144.721 186.248 146.5 187.99 147.328 188.853C148.156 189.714 148.902 190.33 148.987 190.221C149.253 189.877 144.19 175.185 142.044 170.076C137.702 159.739 131.217 149.198 126.362 144.582C125.363 143.633 121.282 141.226 117.293 139.234C111.044 136.114 109.945 135.386 109.353 133.977C108.974 133.076 107.977 128.495 107.135 123.796L105.606 115.252L106.62 114.3C107.28 113.679 108.031 113.433 108.773 113.592C111.635 114.208 111.807 114.496 113.546 121.59C114.461 125.319 115.441 128.799 115.725 129.326C116.128 130.073 125.351 134.827 126.265 134.759C126.38 134.75 125.955 132.054 125.319 128.767L124.165 122.79L125.21 121.809C126.531 120.568 128.231 120.428 129.298 121.472C130.676 122.818 134.125 133.571 135.387 140.451C135.849 142.971 136.47 144.268 138.721 147.412C141.784 151.69 145.235 157.299 145.952 159.163C146.393 160.312 146.424 160.284 146.557 158.621C146.634 157.657 146.891 153.16 147.13 148.627C147.368 144.094 147.842 136.669 148.184 132.129C149.493 114.748 146.984 104.83 139.163 96.4617C136.066 93.1486 124.18 84.1632 123.01 84.2505C121.435 84.368 120.47 85.6591 120.342 87.8181C120.141 91.2065 119.651 91.2669 114.221 88.5722C108.519 85.7421 102.395 83.1558 99.7654 82.4659C98.1064 82.0304 97.491 82.1509 94.0067 83.5955C85.5644 87.0947 76.5728 85.6767 72.8509 80.2588C71.8392 78.7859 71.5622 77.8269 71.5558 75.7694C71.5454 72.3997 73.2426 69.852 77.0449 67.5283C79.6541 65.9341 80.1848 65.7999 85.5639 65.3788L91.3005 64.9289L94.2293 61.6206C102.885 51.8442 116.218 49.934 128.343 56.7342C131.824 58.6867 131.922 58.7077 136.052 58.3996C140.953 58.034 144.5 58.6849 147.431 60.4869C150.892 62.6154 152.113 64.442 152.369 67.8799C152.667 71.8695 151.5 73.7731 147.297 76.1581C144.367 77.8201 143.763 77.9751 138.813 78.3354C133.705 78.7075 133.498 78.7642 133.83 79.7022C135.118 83.3353 136.071 84.6823 138.451 86.2273C148.551 92.7855 154.727 103.086 156.663 116.604L157.369 121.533L160.182 119.125C161.729 117.8 164.925 114.635 167.284 112.09C169.643 109.545 171.806 107.584 172.091 107.731C172.377 107.879 173.23 108.836 173.99 109.859L175.37 111.718L173.952 114.173C173.173 115.524 169.388 120.334 165.542 124.863C161.695 129.392 158.348 133.772 158.103 134.597C157.095 137.987 156.514 148.015 156.855 156.111C157.26 165.72 158.549 173.712 162.68 192.247C164.09 198.573 165.265 203.859 165.29 203.994C165.315 204.129 166.35 200.357 167.589 195.613C171.469 180.764 175.219 171.999 184.523 156.037C186.357 152.89 189.492 147.506 191.49 144.074C195.978 136.361 199.288 129.892 202.416 122.716C206.02 114.446 205.765 114.82 207.413 115.378C208.185 115.64 209.331 116.242 209.96 116.715C211.094 117.569 211.097 117.598 210.413 120.194C209.555 123.446 206.757 130.247 204.159 135.394C203.076 137.539 202.103 139.482 201.997 139.712C201.627 140.509 209.791 135.365 212.669 132.988C218.212 128.41 222.077 121.871 223.987 113.838L225.18 108.826L223.143 107.433C221.158 106.074 220.977 106.049 215.87 106.418C211.497 106.734 210.294 106.647 208.572 105.892C204.59 104.145 202.617 101.237 203.274 98.0857C204.019 94.5123 207.546 91.956 212.876 91.1275C216.393 90.5805 216.416 90.5669 218.579 87.7803C221.668 83.8018 224.514 82.561 231.462 82.1641C235.009 81.9612 237.807 81.5062 240.113 80.757C249.533 77.6983 260.725 79.921 263.896 85.4799C264.802 87.0677 264.806 87.2505 263.982 89.3047C262.46 93.0952 258.048 95.529 251.011 96.4615L246.319 97.0827L244.153 99.4062C241.409 102.35 237.964 104.916 235.681 105.715C233.939 106.325 233.88 106.441 232.377 112.168C231.536 115.376 230.866 118 230.889 117.998C231.842 117.927 240.135 113.717 243.436 111.627C245.926 110.052 248.258 108.741 248.618 108.714C248.978 108.687 249.694 109.066 250.209 109.555C251.543 110.821 251.044 112.258 248.123 115.561C245.246 118.814 239.005 122.627 230.156 126.537C225.368 128.654 224.259 129.352 223.248 130.887C218.725 137.759 217.61 138.967 211.498 143.632C208.066 146.251 204.091 149.292 202.664 150.391C199.526 152.809 192.521 160.791 189.756 165.1C186.899 169.554 183.114 177.37 181.235 182.694C179.346 188.047 177.048 196.917 177.358 197.656C177.477 197.94 180.424 194.593 183.908 190.218C192.296 179.683 199.433 172.41 212.675 160.901C222.102 152.708 228.056 148.212 234.908 144.111C243.981 138.682 245.94 138.02 248.194 139.626C249.284 140.402 249.394 140.697 248.993 141.781C248.737 142.472 247.439 143.737 246.108 144.594C237.515 150.12 231.798 154.147 228.476 157.016L224.662 160.309L230.313 159.572C239.342 158.393 249.633 159.474 253.898 162.049C255.891 163.253 255.932 163.92 254.113 165.483C252.69 166.706 252.571 166.725 248.568 166.363C242.409 165.807 228.074 167.014 223.339 168.487C218.367 170.034 212.446 172.91 208.142 175.868C204.286 178.518 196.741 185.407 193.641 189.107C191.62 191.52 191.505 192.207 192.727 194.589C193.031 195.183 192.525 196.183 190.895 198.209C183.618 207.25 177.96 217.83 174.74 228.416C171.307 239.701 171.225 240.449 172.169 251.993C173.302 265.837 175.899 279.972 177.411 280.522C178.647 280.971 213.74 278.467 219.381 277.528C227.967 276.098 237.394 274.223 243.412 272.749C255.203 269.861 269.841 264.224 279.702 258.774C285.167 255.754 285.582 255.451 292.116 244.187C306.533 219.33 313.855 192.961 314.423 163.852C314.597 154.94 312.767 136.902 310.854 128.669C299.299 78.9395 264.216 37.7898 216.75 18.2932C199.783 11.3238 185.369 7.82559 167.479 6.33601C161.467 5.83512 147.636 5.70213 144.355 6.11362C143.493 6.22165 139.675 6.70202 135.871 7.18089ZM164.14 47.7104C165.761 48.5095 167.866 51.6453 168.002 53.4612C168.187 55.9431 165.508 59.5234 162.633 60.6355C159.519 61.84 154.862 59.319 153.962 55.9415C153.249 53.2661 154.175 50.1032 156.116 48.5837C158.1 47.0296 161.917 46.6144 164.14 47.7104ZM185.619 48.0202C187.61 48.8663 189.572 52.3313 189.266 54.4627C188.952 56.6585 186.458 59.4666 184.318 60.0348C182.008 60.648 179.049 59.4661 177.585 57.3458C176.429 55.6721 176.045 52.5552 176.787 50.8823C178.011 48.127 182.47 46.6818 185.619 48.0202ZM207.204 50.6104C210.54 52.0065 212.665 56.3638 211.586 59.5953C210.353 63.2911 207.553 65.5047 203.754 65.7881C196.916 66.2982 192.763 58.3271 197.047 52.9155C199.257 50.123 203.655 49.1252 207.204 50.6104ZM177.587 64.4831C180.684 66.1926 182.314 70.4002 181.219 73.8554C180.342 76.6221 178.508 78.3585 175.419 79.3457C172.036 80.427 168.992 79.564 166.719 76.8795C164.893 74.7225 164.343 71.403 165.324 68.4644C166.753 64.1842 173.235 62.0797 177.587 64.4831ZM225.469 63.6487C230.55 66.243 230.318 72.9416 225.071 75.1138C222.532 76.165 220.732 75.8077 218.55 73.8195C217.059 72.4609 216.758 71.846 216.627 69.8924C216.434 67.0045 217.158 65.3857 219.228 64.079C221.336 62.7479 223.422 62.6042 225.469 63.6487ZM203.51 72.5193C207.13 73.9137 209.018 78.1702 207.808 82.2071C205.913 88.5332 196.722 90.1229 193.014 84.7662C187.996 77.5189 195.068 69.2677 203.51 72.5193ZM60.3344 90.9278C61.0668 91.518 61.9762 92.8115 62.3563 93.8016C62.9551 95.3631 62.92 95.9215 62.0918 98.0113C60.6806 101.572 56.9172 103.133 53.3729 101.627C49.2672 99.8826 48.7491 93.239 52.5225 90.7224C54.4012 89.4697 58.665 89.5821 60.3344 90.9278ZM79.5835 89.8849C80.5699 90.7323 81.2618 91.8972 81.5279 93.1581C81.8864 94.8549 81.7484 95.3707 80.495 97.0295C77.8503 100.528 73.0392 100.426 71.209 96.8331C70.1274 94.7101 70.0882 93.9642 70.9431 91.7575C72.2751 88.3185 76.6552 87.3693 79.5835 89.8849ZM160.847 84.6591C165.325 86.562 165.335 92.6908 160.862 94.2892C157.277 95.5707 154.034 93.5427 153.758 89.847C153.567 87.28 154.181 85.9833 156.055 84.9987C158.034 83.9584 159.032 83.888 160.847 84.6591ZM104.292 90.8927C109.905 93.6359 110.595 100.846 105.618 104.759C100.226 108.999 92.0852 105.534 91.5817 98.7853C91.0927 92.2306 98.1113 87.8723 104.292 90.8927ZM185.157 85.5378C188.401 86.7254 189.84 88.7919 190.129 92.6776C190.324 95.2808 190.166 96.2284 189.303 97.6487C186.113 102.895 177.705 103.007 174.457 97.8471C169.969 90.7195 177.053 82.5709 185.157 85.5378ZM131.567 100.426C134.456 102.261 136.085 105.725 135.539 108.872C134.993 112.016 131.391 114.972 127.778 115.241C119.643 115.848 116.624 104.314 123.863 100.284C125.708 99.2577 129.846 99.3336 131.567 100.426ZM271.828 98.7204C275.861 100.059 278.117 105.038 276.466 108.961C275.42 111.448 273.991 112.62 270.796 113.61C268.617 114.286 268.17 114.262 265.908 113.345C261.749 111.661 259.876 108.019 261.08 103.961C262.368 99.6206 267.298 97.2169 271.828 98.7204ZM193.142 109.032C195.792 110.181 197.994 113.12 198.273 115.88C198.527 118.394 197.063 121.494 194.706 123.434C192.995 124.841 192.261 125.109 189.565 125.31C186.166 125.563 184.591 124.927 182.404 122.418C180.688 120.45 180.354 114.678 181.816 112.271C183.99 108.696 189.037 107.252 193.142 109.032ZM27.2362 126.734C28.9208 127.594 31.088 130.732 31.2452 132.538C31.2875 133.024 30.9384 134.335 30.4694 135.45C28.9782 138.994 24.2985 140.882 20.7464 139.372C16.1509 137.42 15.4329 130.215 19.5414 127.276C21.5499 125.839 25.0061 125.596 27.2362 126.734ZM53.1289 134.539C55.3385 135.39 57.411 138.748 57.1291 141.02C56.567 145.554 51.3825 148.61 47.2396 146.849C43.6145 145.309 42.102 140.03 44.3821 136.878C45.0458 135.961 46.0396 134.988 46.5899 134.716C48.2236 133.911 51.2828 133.828 53.1289 134.539ZM274.394 121.436C277.044 122.027 279.801 123.096 281.012 124C281.69 124.507 282.171 124.449 283.978 123.644C285.164 123.116 287.695 122.545 289.603 122.375C292.442 122.122 293.49 122.261 295.38 123.14C301.962 126.198 302.125 134.806 295.658 137.864C291.068 140.036 285.844 139.218 281.995 135.724L280.256 134.147L276.27 135.475C266.033 138.885 254.603 136.886 252.352 131.291C251.389 128.898 254.667 125.264 259.777 123.061C263.728 121.358 270.613 120.592 274.394 121.436ZM25.7091 145.73C30.2126 146.662 34.0374 151.086 33.8003 155.088C33.4517 160.972 26.9441 165.521 20.9928 164.042C17.6952 163.222 14.2737 158.95 14.0107 155.323C13.886 153.598 15.8652 149.155 17.2814 147.981C19.7244 145.956 22.8155 145.131 25.7091 145.73ZM269.09 144.28C271.075 145.123 273.16 147.429 273.937 149.638C274.91 152.407 274.222 155.372 272.048 157.769C265.226 165.291 253.617 158.163 257.538 148.859C258.062 147.615 259.045 146.128 259.722 145.555C262.142 143.507 266.026 142.978 269.09 144.28ZM46.0071 163.261C49.314 164.647 50.479 166.244 50.7405 169.749C51.0019 173.253 50.0942 174.991 47.0052 176.901C43.0733 179.333 38.4373 178.055 36.2279 173.931C33.7775 169.357 35.7471 164.604 40.7603 162.995C43.1226 162.236 43.6233 162.261 46.0071 163.261Z" fill="white"/>
</g>
</svg>
