<svg width="214" height="36" viewBox="0 0 214 36" fill="none" xmlns="http://www.w3.org/2000/svg">
<path d="M41 19.8983V3.2848H44.1803L51.2529 15.0092H49.5678L56.5218 3.2848H59.702L59.7258 19.8983H56.1183L56.0945 8.81467H56.7828L51.2054 18.142H49.4966L43.8006 8.81467H44.6075V19.8983H41ZM67.3891 9.97767H75.3873V12.9681H67.3891V9.97767ZM67.6739 16.8129H76.7164V19.8983H63.8528V3.2848H76.4079V6.37016H67.6739V16.8129ZM79.822 19.8983V3.2848H91.5463L91.5226 6.41763H82.7412L83.6193 5.53949L83.6431 19.8983H79.822ZM88.7708 19.8983L96.1757 3.2848H99.9733L107.401 19.8983H103.367L97.2911 5.23095H98.8103L92.7106 19.8983H88.7708ZM92.4732 16.3383L93.4938 13.419H102.038L103.082 16.3383H92.4732ZM117.228 20.1831C115.947 20.1831 114.752 19.9774 113.645 19.566C112.553 19.1388 111.604 18.5376 110.797 17.7623C109.99 16.987 109.357 16.0772 108.898 15.0329C108.455 13.9887 108.233 12.8415 108.233 11.5916C108.233 10.3416 108.455 9.19447 108.898 8.15017C109.357 7.10587 109.99 6.19611 110.797 5.42082C111.619 4.64552 112.577 4.05218 113.668 3.6408C114.76 3.2136 115.955 3 117.252 3C118.692 3 119.989 3.25316 121.145 3.75947C122.315 4.24996 123.296 4.97779 124.087 5.94296L121.619 8.22137C121.05 7.57267 120.417 7.09007 119.72 6.77363C119.024 6.44136 118.265 6.27523 117.442 6.27523C116.667 6.27523 115.955 6.4018 115.306 6.65496C114.657 6.90807 114.096 7.27207 113.621 7.74667C113.146 8.22137 112.774 8.78307 112.506 9.43177C112.252 10.0805 112.126 10.8004 112.126 11.5916C112.126 12.3827 112.252 13.1026 112.506 13.7513C112.774 14.4 113.146 14.9617 113.621 15.4364C114.096 15.9111 114.657 16.275 115.306 16.5281C115.955 16.7813 116.667 16.9079 117.442 16.9079C118.265 16.9079 119.024 16.7497 119.72 16.4332C120.417 16.1009 121.05 15.6025 121.619 14.938L124.087 17.2164C123.296 18.1816 122.315 18.9173 121.145 19.4236C119.989 19.9299 118.684 20.1831 117.228 20.1831ZM130.13 9.97767H138.128V12.9681H130.13V9.97767ZM130.414 16.8129H139.457V19.8983H126.593V3.2848H139.148V6.37016H130.414V16.8129ZM142.563 19.8983V3.2848H157.705V19.8983H153.883V5.53949L154.762 6.41763H145.505L146.384 5.53949V19.8983H142.563ZM165.407 19.8983V5.53949L166.285 6.41763H160.114V3.2848H174.52V6.41763H168.35L169.204 5.53949V19.8983H165.407ZM176.934 19.8983V3.2848H180.756V14.1073L188.683 3.2848H192.29V19.8983H188.493V9.09947L180.566 19.8983H176.934ZM207.178 19.8983L202.004 11.9001L205.113 10.0252L211.545 19.8983H207.178ZM196.379 19.8983V3.2848H200.2V19.8983H196.379ZM199.085 13.2054V10.0014H204.876V13.2054H199.085ZM205.469 12.0188L201.933 11.5916L207.32 3.2848H211.379L205.469 12.0188Z" fill="#145A84"/>
<path d="M44.386 33.7983C43.8838 33.7983 43.4179 33.7166 42.9883 33.5532C42.5648 33.3898 42.1957 33.1599 41.881 32.8634C41.5724 32.5669 41.3304 32.219 41.1549 31.8197C40.9855 31.4203 40.9008 30.9847 40.9008 30.5127C40.9008 30.0408 40.9855 29.6051 41.1549 29.2058C41.3304 28.8064 41.5755 28.4585 41.8901 28.162C42.2047 27.8655 42.5738 27.6356 42.9974 27.4722C43.4209 27.3088 43.8808 27.2272 44.377 27.2272C44.8792 27.2272 45.339 27.3088 45.7565 27.4722C46.1801 27.6356 46.5461 27.8655 46.8547 28.162C47.1694 28.4585 47.4144 28.8064 47.5899 29.2058C47.7654 29.599 47.8531 30.0347 47.8531 30.5127C47.8531 30.9847 47.7654 31.4233 47.5899 31.8287C47.4144 32.2281 47.1694 32.576 46.8547 32.8725C46.5461 33.1629 46.1801 33.3898 45.7565 33.5532C45.339 33.7166 44.8822 33.7983 44.386 33.7983ZM44.377 32.5458C44.6613 32.5458 44.9215 32.4974 45.1575 32.4005C45.3995 32.3037 45.6113 32.1646 45.7928 31.983C45.9744 31.8015 46.1135 31.5867 46.2103 31.3386C46.3132 31.0906 46.3646 30.8152 46.3646 30.5127C46.3646 30.2102 46.3132 29.9349 46.2103 29.6868C46.1135 29.4387 45.9744 29.2239 45.7928 29.0424C45.6174 28.8609 45.4086 28.7217 45.1666 28.6249C44.9245 28.5281 44.6613 28.4797 44.377 28.4797C44.0926 28.4797 43.8294 28.5281 43.5873 28.6249C43.3514 28.7217 43.1426 28.8609 42.9611 29.0424C42.7796 29.2239 42.6374 29.4387 42.5345 29.6868C42.4377 29.9349 42.3893 30.2102 42.3893 30.5127C42.3893 30.8092 42.4377 31.0845 42.5345 31.3386C42.6374 31.5867 42.7765 31.8015 42.952 31.983C43.1335 32.1646 43.3453 32.3037 43.5873 32.4005C43.8294 32.4974 44.0926 32.5458 44.377 32.5458ZM51.3002 33.7983C50.9008 33.7983 50.5378 33.7408 50.2111 33.6258C49.8843 33.5048 49.5999 33.3203 49.3579 33.0722C49.1219 32.818 48.9374 32.4943 48.8043 32.101C48.6772 31.7077 48.6137 31.2388 48.6137 30.6942C48.6137 30.307 48.6469 29.953 48.7135 29.6323C48.7801 29.3116 48.8799 29.0212 49.013 28.761C49.1461 28.4948 49.3155 28.2618 49.5213 28.0622C49.733 27.8564 49.9781 27.687 50.2564 27.5539C50.5408 27.4147 50.8615 27.3088 51.2185 27.2362L53.542 26.7734L53.7326 27.9896L51.6814 28.398C51.5604 28.4222 51.4212 28.4555 51.2639 28.4978C51.1126 28.5341 50.9583 28.5916 50.801 28.6703C50.6497 28.7489 50.5075 28.8609 50.3744 29.0061C50.2474 29.1452 50.1445 29.3298 50.0658 29.5597C49.9872 29.7836 49.9478 30.0619 49.9478 30.3947C49.9478 30.4976 49.9509 30.5762 49.9569 30.6307C49.969 30.6852 49.9781 30.7426 49.9842 30.8031C49.9963 30.8637 50.0023 30.9574 50.0023 31.0845L49.5485 30.6398C49.6816 30.3554 49.851 30.1134 50.0568 29.9137C50.2685 29.714 50.5106 29.5627 50.7828 29.4599C51.0612 29.351 51.3698 29.2965 51.7086 29.2965C52.1685 29.2965 52.5708 29.3903 52.9157 29.5779C53.2667 29.7594 53.539 30.0166 53.7326 30.3493C53.9262 30.6821 54.023 31.0603 54.023 31.4839C54.023 31.9437 53.9081 32.3491 53.6781 32.7001C53.4482 33.0449 53.1275 33.3142 52.7161 33.5078C52.3107 33.7015 51.8387 33.7983 51.3002 33.7983ZM51.3728 32.7001C51.6088 32.7001 51.8175 32.6486 51.999 32.5458C52.1806 32.4368 52.3197 32.2947 52.4166 32.1192C52.5194 31.9377 52.5708 31.735 52.5708 31.5111C52.5708 31.2933 52.5194 31.0996 52.4166 30.9302C52.3197 30.7608 52.1806 30.6277 51.999 30.5309C51.8175 30.4341 51.6058 30.3856 51.3637 30.3856C51.1277 30.3856 50.916 30.4341 50.7284 30.5309C50.5408 30.6216 50.3956 30.7487 50.2927 30.9121C50.1899 31.0754 50.1384 31.266 50.1384 31.4839C50.1384 31.7077 50.1899 31.9135 50.2927 32.101C50.4017 32.2826 50.5469 32.4278 50.7284 32.5367C50.916 32.6456 51.1308 32.7001 51.3728 32.7001ZM57.3072 33.762C56.7808 33.762 56.3119 33.6561 55.9004 33.4443C55.489 33.2265 55.1653 32.927 54.9293 32.5458C54.6994 32.1646 54.5844 31.7319 54.5844 31.2479C54.5844 30.7578 54.6994 30.3251 54.9293 29.95C55.1653 29.5688 55.489 29.2723 55.9004 29.0605C56.3119 28.8427 56.7808 28.7338 57.3072 28.7338C57.8215 28.7338 58.2693 28.8427 58.6505 29.0605C59.0317 29.2723 59.3131 29.5779 59.4946 29.9772L58.3964 30.5672C58.2693 30.3372 58.109 30.1678 57.9153 30.0589C57.7278 29.95 57.522 29.8955 57.2982 29.8955C57.0561 29.8955 56.8383 29.95 56.6447 30.0589C56.4511 30.1678 56.2968 30.3221 56.1818 30.5218C56.0729 30.7215 56.0184 30.9635 56.0184 31.2479C56.0184 31.5323 56.0729 31.7743 56.1818 31.974C56.2968 32.1736 56.4511 32.3279 56.6447 32.4368C56.8383 32.5458 57.0561 32.6002 57.2982 32.6002C57.522 32.6002 57.7278 32.5488 57.9153 32.4459C58.109 32.337 58.2693 32.1646 58.3964 31.9286L59.4946 32.5276C59.3131 32.9209 59.0317 33.2265 58.6505 33.4443C58.2693 33.6561 57.8215 33.762 57.3072 33.762ZM59.658 33.6803L59.7306 32.5185C59.7669 32.5246 59.8032 32.5306 59.8395 32.5367C59.8758 32.5367 59.9091 32.5367 59.9394 32.5367C60.1088 32.5367 60.2419 32.4883 60.3387 32.3915C60.4355 32.2947 60.5081 32.1646 60.5566 32.0012C60.605 31.8318 60.6382 31.6412 60.6564 31.4294C60.6806 31.2176 60.6987 30.9968 60.7108 30.7668L60.7835 28.8064H64.9585V33.6894H63.5426V29.6233L63.8603 29.9681H61.7183L62.0178 29.6051L61.9543 30.8304C61.9361 31.266 61.8998 31.6654 61.8454 32.0284C61.797 32.3915 61.7153 32.7061 61.6003 32.9723C61.4853 33.2325 61.331 33.4352 61.1374 33.5804C60.9438 33.7196 60.6957 33.7892 60.3932 33.7892C60.2843 33.7892 60.1693 33.7801 60.0483 33.762C59.9273 33.7438 59.7972 33.7166 59.658 33.6803ZM66.9826 35.5227C66.7285 35.5227 66.4773 35.4834 66.2293 35.4047C65.9812 35.3261 65.7785 35.2172 65.6212 35.078L66.1385 34.0706C66.2474 34.1674 66.3715 34.243 66.5106 34.2975C66.6558 34.3519 66.798 34.3791 66.9372 34.3791C67.1369 34.3791 67.2942 34.3307 67.4092 34.2339C67.5302 34.1432 67.6391 33.9889 67.7359 33.771L67.99 33.172L68.0989 33.0177L69.8506 28.8064H71.2121L69.0066 33.9889C68.8492 34.3822 68.6677 34.6908 68.462 34.9146C68.2623 35.1385 68.0384 35.2958 67.7904 35.3866C67.5483 35.4773 67.2791 35.5227 66.9826 35.5227ZM67.8176 33.88L65.6393 28.8064H67.1006L68.7887 32.8907L67.8176 33.88ZM77.4926 33.6894L76.1947 31.3749L77.3383 30.6942L79.1717 33.6894H77.4926ZM75.3597 31.8378V30.7033H77.0569V31.8378H75.3597ZM77.4835 31.4112L76.1493 31.266L77.5561 28.8064H79.0537L77.4835 31.4112ZM72.6641 33.6894H70.9941L72.8184 30.6942L73.962 31.3749L72.6641 33.6894ZM75.7772 33.6894H74.3795V28.8064H75.7772V33.6894ZM74.797 31.8378H73.1088V30.7033H74.797V31.8378ZM72.6732 31.4112L71.103 28.8064H72.6006L73.9983 31.266L72.6732 31.4112ZM79.9076 33.6894V28.8064H81.3144V31.7108L83.6924 28.8064H84.9902V33.6894H83.5834V30.785L81.2146 33.6894H79.9076ZM86.3513 33.6894V28.8064H88.8472C89.4584 28.8064 89.9364 28.9183 90.2813 29.1422C90.6262 29.36 90.7986 29.6686 90.7986 30.068C90.7986 30.4673 90.6352 30.782 90.3085 31.0119C89.9878 31.2358 89.5612 31.3477 89.0288 31.3477L89.174 31.021C89.7669 31.021 90.2087 31.1299 90.4991 31.3477C90.7956 31.5655 90.9438 31.8832 90.9438 32.3007C90.9438 32.7303 90.7804 33.0692 90.4537 33.3172C90.127 33.5653 89.6278 33.6894 88.9561 33.6894H86.3513ZM87.6492 32.7273H88.8382C89.0983 32.7273 89.292 32.6849 89.419 32.6002C89.5521 32.5095 89.6187 32.3733 89.6187 32.1918C89.6187 32.0042 89.5582 31.8681 89.4372 31.7834C89.3162 31.6926 89.1256 31.6472 88.8654 31.6472H87.6492V32.7273ZM87.6492 30.8122H88.7202C88.9682 30.8122 89.1528 30.7668 89.2738 30.6761C89.4009 30.5853 89.4644 30.4552 89.4644 30.2858C89.4644 30.1103 89.4009 29.9802 89.2738 29.8955C89.1528 29.8108 88.9682 29.7685 88.7202 29.7685H87.6492V30.8122ZM94.9198 33.6894V32.7364L94.829 32.5276V30.8213C94.829 30.5188 94.7352 30.2828 94.5477 30.1134C94.3662 29.9439 94.0848 29.8592 93.7036 29.8592C93.4434 29.8592 93.1863 29.9016 92.9321 29.9863C92.684 30.065 92.4723 30.1739 92.2968 30.313L91.7885 29.3237C92.0548 29.1362 92.3755 28.9909 92.7506 28.8881C93.1258 28.7852 93.5069 28.7338 93.8942 28.7338C94.6384 28.7338 95.2163 28.9093 95.6277 29.2602C96.0392 29.6112 96.2449 30.1587 96.2449 30.903V33.6894H94.9198ZM93.4313 33.762C93.0501 33.762 92.7234 33.6984 92.4511 33.5714C92.1788 33.4382 91.9701 33.2598 91.8248 33.0359C91.6796 32.812 91.607 32.5609 91.607 32.2826C91.607 31.9921 91.6766 31.738 91.8158 31.5202C91.961 31.3023 92.1879 31.1329 92.4965 31.0119C92.8051 30.8848 93.2074 30.8213 93.7036 30.8213H95.0015V31.6472H93.8579C93.5251 31.6472 93.2952 31.7017 93.1681 31.8106C93.0471 31.9195 92.9866 32.0557 92.9866 32.219C92.9866 32.4005 93.0562 32.5458 93.1953 32.6547C93.3406 32.7575 93.5372 32.809 93.7853 32.809C94.0213 32.809 94.233 32.7545 94.4206 32.6456C94.6082 32.5306 94.7443 32.3642 94.829 32.1464L95.0469 32.7999C94.944 33.1145 94.7564 33.3535 94.4841 33.5169C94.2119 33.6803 93.8609 33.762 93.4313 33.762ZM97.4749 33.6894V28.8064H98.8817V30.7124H101.005V28.8064H102.421V33.6894H101.005V31.8651H98.8817V33.6894H97.4749ZM103.777 33.6894V28.8064H105.184V31.7108L107.561 28.8064H108.859V33.6894H107.453V30.785L105.084 33.6894H103.777ZM112.607 33.762C112.051 33.762 111.561 33.653 111.137 33.4352C110.72 33.2174 110.396 32.9209 110.166 32.5458C109.936 32.1646 109.821 31.7319 109.821 31.2479C109.821 30.7578 109.933 30.3251 110.157 29.95C110.387 29.5688 110.698 29.2723 111.092 29.0605C111.485 28.8427 111.93 28.7338 112.426 28.7338C112.904 28.7338 113.334 28.8367 113.715 29.0424C114.102 29.2421 114.408 29.5325 114.631 29.9137C114.855 30.2888 114.967 30.7396 114.967 31.266C114.967 31.3205 114.964 31.384 114.958 31.4566C114.952 31.5232 114.946 31.5867 114.94 31.6472H110.974V30.8213H114.196L113.651 31.0664C113.651 30.8122 113.6 30.5914 113.497 30.4038C113.394 30.2162 113.252 30.071 113.07 29.9681C112.889 29.8592 112.677 29.8048 112.435 29.8048C112.193 29.8048 111.978 29.8592 111.791 29.9681C111.609 30.071 111.467 30.2193 111.364 30.4129C111.261 30.6004 111.21 30.8243 111.21 31.0845V31.3023C111.21 31.5686 111.267 31.8045 111.382 32.0103C111.503 32.2099 111.67 32.3642 111.881 32.4732C112.099 32.576 112.353 32.6274 112.644 32.6274C112.904 32.6274 113.131 32.5881 113.324 32.5095C113.524 32.4308 113.706 32.3128 113.869 32.1555L114.622 32.9723C114.398 33.2265 114.117 33.4231 113.778 33.5623C113.439 33.6954 113.049 33.762 112.607 33.762ZM118.623 33.6894V28.8064H120.03V31.7108L122.408 28.8064H123.706V33.6894H122.299V30.785L119.93 33.6894H118.623ZM130.514 33.762C130.103 33.762 129.743 33.6712 129.434 33.4897C129.125 33.3082 128.883 33.0328 128.708 32.6638C128.539 32.2886 128.454 31.8166 128.454 31.2479C128.454 30.6731 128.536 30.2011 128.699 29.832C128.862 29.4629 129.098 29.1876 129.407 29.0061C129.715 28.8246 130.085 28.7338 130.514 28.7338C130.974 28.7338 131.385 28.8397 131.748 29.0515C132.118 29.2572 132.408 29.5476 132.62 29.9228C132.838 30.2979 132.947 30.7396 132.947 31.2479C132.947 31.7622 132.838 32.2069 132.62 32.5821C132.408 32.9572 132.118 33.2476 131.748 33.4534C131.385 33.6591 130.974 33.762 130.514 33.762ZM127.628 35.4501V28.8064H128.98V29.8048L128.953 31.257L129.044 32.7001V35.4501H127.628ZM130.269 32.6002C130.505 32.6002 130.714 32.5458 130.895 32.4368C131.083 32.3279 131.231 32.1736 131.34 31.974C131.455 31.7682 131.513 31.5262 131.513 31.2479C131.513 30.9635 131.455 30.7215 131.34 30.5218C131.231 30.3221 131.083 30.1678 130.895 30.0589C130.714 29.95 130.505 29.8955 130.269 29.8955C130.033 29.8955 129.821 29.95 129.634 30.0589C129.446 30.1678 129.298 30.3221 129.189 30.5218C129.08 30.7215 129.026 30.9635 129.026 31.2479C129.026 31.5262 129.08 31.7682 129.189 31.974C129.298 32.1736 129.446 32.3279 129.634 32.4368C129.821 32.5458 130.033 32.6002 130.269 32.6002ZM136.326 33.762C135.769 33.762 135.279 33.653 134.856 33.4352C134.438 33.2174 134.114 32.9209 133.884 32.5458C133.654 32.1646 133.54 31.7319 133.54 31.2479C133.54 30.7578 133.651 30.3251 133.875 29.95C134.105 29.5688 134.417 29.2723 134.81 29.0605C135.203 28.8427 135.648 28.7338 136.144 28.7338C136.622 28.7338 137.052 28.8367 137.433 29.0424C137.82 29.2421 138.126 29.5325 138.35 29.9137C138.574 30.2888 138.686 30.7396 138.686 31.266C138.686 31.3205 138.683 31.384 138.677 31.4566C138.671 31.5232 138.665 31.5867 138.658 31.6472H134.692V30.8213H137.914L137.37 31.0664C137.37 30.8122 137.318 30.5914 137.215 30.4038C137.112 30.2162 136.97 30.071 136.789 29.9681C136.607 29.8592 136.395 29.8048 136.153 29.8048C135.911 29.8048 135.697 29.8592 135.509 29.9681C135.328 30.071 135.185 30.2193 135.082 30.4129C134.98 30.6004 134.928 30.8243 134.928 31.0845V31.3023C134.928 31.5686 134.986 31.8045 135.101 32.0103C135.222 32.2099 135.388 32.3642 135.6 32.4732C135.818 32.576 136.072 32.6274 136.362 32.6274C136.622 32.6274 136.849 32.5881 137.043 32.5095C137.243 32.4308 137.424 32.3128 137.587 32.1555L138.341 32.9723C138.117 33.2265 137.836 33.4231 137.497 33.5623C137.158 33.6954 136.768 33.762 136.326 33.762ZM139.771 33.6894V28.8064H141.25L143.093 32.1464H142.503L144.472 28.8064H145.798L145.816 33.6894H144.536V30.2586L144.754 30.4038L143.075 33.2174H142.476L140.788 30.304L141.051 30.2404V33.6894H139.771ZM149.459 33.762C148.939 33.762 148.476 33.653 148.07 33.4352C147.671 33.2174 147.353 32.9209 147.117 32.5458C146.888 32.1646 146.773 31.7319 146.773 31.2479C146.773 30.7578 146.888 30.3251 147.117 29.95C147.353 29.5688 147.671 29.2723 148.07 29.0605C148.476 28.8427 148.939 28.7338 149.459 28.7338C149.973 28.7338 150.433 28.8427 150.839 29.0605C151.244 29.2723 151.562 29.5658 151.792 29.9409C152.022 30.3161 152.137 30.7517 152.137 31.2479C152.137 31.7319 152.022 32.1646 151.792 32.5458C151.562 32.9209 151.244 33.2174 150.839 33.4352C150.433 33.653 149.973 33.762 149.459 33.762ZM149.459 32.6002C149.695 32.6002 149.907 32.5458 150.094 32.4368C150.282 32.3279 150.43 32.1736 150.539 31.974C150.648 31.7682 150.703 31.5262 150.703 31.2479C150.703 30.9635 150.648 30.7215 150.539 30.5218C150.43 30.3221 150.282 30.1678 150.094 30.0589C149.907 29.95 149.695 29.8955 149.459 29.8955C149.223 29.8955 149.011 29.95 148.824 30.0589C148.636 30.1678 148.485 30.3221 148.37 30.5218C148.261 30.7215 148.207 30.9635 148.207 31.2479C148.207 31.5262 148.261 31.7682 148.37 31.974C148.485 32.1736 148.636 32.3279 148.824 32.4368C149.011 32.5458 149.223 32.6002 149.459 32.6002ZM153.11 33.6894V28.8064H154.517V30.7124H156.641V28.8064H158.057V33.6894H156.641V31.8651H154.517V33.6894H153.11ZM160.456 33.6894V29.6414L160.774 29.9681H158.804V28.8064H163.515V29.9681H161.545L161.863 29.6414V33.6894H160.456ZM169.163 33.762C168.637 33.762 168.168 33.6561 167.756 33.4443C167.345 33.2265 167.021 32.927 166.785 32.5458C166.555 32.1646 166.44 31.7319 166.44 31.2479C166.44 30.7578 166.555 30.3251 166.785 29.95C167.021 29.5688 167.345 29.2723 167.756 29.0605C168.168 28.8427 168.637 28.7338 169.163 28.7338C169.678 28.7338 170.125 28.8427 170.507 29.0605C170.888 29.2723 171.169 29.5779 171.351 29.9772L170.252 30.5672C170.125 30.3372 169.965 30.1678 169.771 30.0589C169.584 29.95 169.378 29.8955 169.154 29.8955C168.912 29.8955 168.694 29.95 168.501 30.0589C168.307 30.1678 168.153 30.3221 168.038 30.5218C167.929 30.7215 167.874 30.9635 167.874 31.2479C167.874 31.5323 167.929 31.7743 168.038 31.974C168.153 32.1736 168.307 32.3279 168.501 32.4368C168.694 32.5458 168.912 32.6002 169.154 32.6002C169.378 32.6002 169.584 32.5488 169.771 32.4459C169.965 32.337 170.125 32.1646 170.252 31.9286L171.351 32.5276C171.169 32.9209 170.888 33.2265 170.507 33.4443C170.125 33.6561 169.678 33.762 169.163 33.762ZM174.536 33.762C173.979 33.762 173.489 33.653 173.066 33.4352C172.648 33.2174 172.324 32.9209 172.095 32.5458C171.865 32.1646 171.75 31.7319 171.75 31.2479C171.75 30.7578 171.862 30.3251 172.085 29.95C172.315 29.5688 172.627 29.2723 173.02 29.0605C173.414 28.8427 173.858 28.7338 174.354 28.7338C174.832 28.7338 175.262 28.8367 175.643 29.0424C176.031 29.2421 176.336 29.5325 176.56 29.9137C176.784 30.2888 176.896 30.7396 176.896 31.266C176.896 31.3205 176.893 31.384 176.887 31.4566C176.881 31.5232 176.875 31.5867 176.869 31.6472H172.902V30.8213H176.124L175.58 31.0664C175.58 30.8122 175.528 30.5914 175.425 30.4038C175.323 30.2162 175.18 30.071 174.999 29.9681C174.817 29.8592 174.606 29.8048 174.364 29.8048C174.122 29.8048 173.907 29.8592 173.719 29.9681C173.538 30.071 173.395 30.2193 173.293 30.4129C173.19 30.6004 173.138 30.8243 173.138 31.0845V31.3023C173.138 31.5686 173.196 31.8045 173.311 32.0103C173.432 32.2099 173.598 32.3642 173.81 32.4732C174.028 32.576 174.282 32.6274 174.572 32.6274C174.832 32.6274 175.059 32.5881 175.253 32.5095C175.453 32.4308 175.634 32.3128 175.798 32.1555L176.551 32.9723C176.327 33.2265 176.046 33.4231 175.707 33.5623C175.368 33.6954 174.978 33.762 174.536 33.762ZM177.981 33.6894V28.8064H182.837V33.6894H181.421V29.6505L181.739 29.9681H179.07L179.388 29.6505V33.6894H177.981ZM185.238 33.6894V29.6414L185.556 29.9681H183.586V28.8064H188.297V29.9681H186.327L186.645 29.6414V33.6894H185.238ZM189.051 33.6894V28.8064H190.458V31.7108L192.836 28.8064H194.134V33.6894H192.727V30.785L190.358 33.6894H189.051ZM198.953 33.6894L197.319 31.3749L198.472 30.6942L200.623 33.6894H198.953ZM195.495 33.6894V28.8064H196.911V33.6894H195.495ZM196.494 31.8378V30.7033H198.2V31.8378H196.494ZM198.608 31.4112L197.283 31.266L198.999 28.8064H200.505L198.608 31.4112ZM203.455 33.762C202.935 33.762 202.472 33.653 202.066 33.4352C201.667 33.2174 201.349 32.9209 201.113 32.5458C200.883 32.1646 200.768 31.7319 200.768 31.2479C200.768 30.7578 200.883 30.3251 201.113 29.95C201.349 29.5688 201.667 29.2723 202.066 29.0605C202.472 28.8427 202.935 28.7338 203.455 28.7338C203.969 28.7338 204.429 28.8427 204.834 29.0605C205.24 29.2723 205.558 29.5658 205.787 29.9409C206.017 30.3161 206.132 30.7517 206.132 31.2479C206.132 31.7319 206.017 32.1646 205.787 32.5458C205.558 32.9209 205.24 33.2174 204.834 33.4352C204.429 33.653 203.969 33.762 203.455 33.762ZM203.455 32.6002C203.691 32.6002 203.903 32.5458 204.09 32.4368C204.278 32.3279 204.426 32.1736 204.535 31.974C204.644 31.7682 204.698 31.5262 204.698 31.2479C204.698 30.9635 204.644 30.7215 204.535 30.5218C204.426 30.3221 204.278 30.1678 204.09 30.0589C203.903 29.95 203.691 29.8955 203.455 29.8955C203.219 29.8955 203.007 29.95 202.82 30.0589C202.632 30.1678 202.481 30.3221 202.366 30.5218C202.257 30.7215 202.202 30.9635 202.202 31.2479C202.202 31.5262 202.257 31.7682 202.366 31.974C202.481 32.1736 202.632 32.3279 202.82 32.4368C203.007 32.5458 203.219 32.6002 203.455 32.6002ZM207.106 33.6894V28.8064H209.602C210.213 28.8064 210.691 28.9183 211.036 29.1422C211.381 29.36 211.554 29.6686 211.554 30.068C211.554 30.4673 211.39 30.782 211.063 31.0119C210.743 31.2358 210.316 31.3477 209.784 31.3477L209.929 31.021C210.522 31.021 210.964 31.1299 211.254 31.3477C211.55 31.5655 211.699 31.8832 211.699 32.3007C211.699 32.7303 211.535 33.0692 211.209 33.3172C210.882 33.5653 210.383 33.6894 209.711 33.6894H207.106ZM208.404 32.7273H209.593C209.853 32.7273 210.047 32.6849 210.174 32.6002C210.307 32.5095 210.374 32.3733 210.374 32.1918C210.374 32.0042 210.313 31.8681 210.192 31.7834C210.071 31.6926 209.88 31.6472 209.62 31.6472H208.404V32.7273ZM208.404 30.8122H209.475C209.723 30.8122 209.908 30.7668 210.029 30.6761C210.156 30.5853 210.219 30.4552 210.219 30.2858C210.219 30.1103 210.156 29.9802 210.029 29.8955C209.908 29.8108 209.723 29.7685 209.475 29.7685H208.404V30.8122Z" fill="#145A84"/>
<path d="M16.3227 33.1444C24.7852 33.1444 31.6454 26.2842 31.6454 17.8217C31.6454 9.3592 24.7852 2.49902 16.3227 2.49902C7.8602 2.49902 1 9.3592 1 17.8217C1 26.2842 7.8602 33.1444 16.3227 33.1444Z" stroke="#145A84" stroke-width="1.97779" stroke-miterlimit="10"/>
<path d="M8.61589 21.3031C8.61145 20.1483 8.91791 19.0568 9.3143 17.9865C10.0649 15.9601 11.1186 14.0881 12.2534 12.2582C13.3426 10.5017 14.5229 8.8095 15.7765 7.1662C15.8109 7.12068 15.8464 7.07516 15.8831 7.02963C16.1318 6.72207 16.4327 6.71541 16.6703 7.03296C17.2299 7.78244 17.794 8.5286 18.3314 9.2936C19.4439 10.8781 20.5032 12.4969 21.4414 14.1913C22.363 15.8546 23.1991 17.5557 23.6832 19.4077C24.4749 22.4356 23.279 25.6867 20.7197 27.4788C19.1475 28.5802 17.402 29.0843 15.4989 28.8567C12.5154 28.4992 10.4135 26.8981 9.19438 24.1566C8.79133 23.255 8.61922 22.2935 8.61589 21.3031Z" fill="#145A84"/>
</svg>
