<svg width="32" height="31" viewBox="0 0 32 31" fill="none" xmlns="http://www.w3.org/2000/svg">
<path fill-rule="evenodd" clip-rule="evenodd" d="M16.0625 30.0313C23.5529 30.0313 29.625 23.9591 29.625 16.4688C29.625 8.97839 23.5529 2.90625 16.0625 2.90625C8.57214 2.90625 2.5 8.97839 2.5 16.4688C2.5 18.9012 3.14034 21.184 4.26165 23.1579L2.5 30.0313L9.58627 28.3881C11.5107 29.4359 13.7171 30.0313 16.0625 30.0313ZM16.0625 27.9447C22.4005 27.9447 27.5385 22.8067 27.5385 16.4688C27.5385 10.1308 22.4005 4.99279 16.0625 4.99279C9.7245 4.99279 4.58654 10.1308 4.58654 16.4688C4.58654 18.9159 5.35249 21.1841 6.65772 23.0468L5.62981 26.9014L9.55243 25.9208C11.4022 27.1972 13.6451 27.9447 16.0625 27.9447Z" fill="#BFC8D0"/>
<path d="M27.6875 15.5C27.6875 21.9203 22.4828 27.125 16.0625 27.125C13.6137 27.125 11.3417 26.3678 9.46789 25.0748L5.49432 26.0682L6.53558 22.1635C5.2134 20.2766 4.4375 17.9789 4.4375 15.5C4.4375 9.07969 9.64219 3.875 16.0625 3.875C22.4828 3.875 27.6875 9.07969 27.6875 15.5Z" fill="url(#paint0_linear_64_468)"/>
<path fill-rule="evenodd" clip-rule="evenodd" d="M16.0625 29.0625C23.5529 29.0625 29.625 22.9904 29.625 15.5C29.625 8.00964 23.5529 1.9375 16.0625 1.9375C8.57214 1.9375 2.5 8.00964 2.5 15.5C2.5 17.9324 3.14034 20.2153 4.26165 22.1892L2.5 29.0625L9.58627 27.4193C11.5107 28.4671 13.7171 29.0625 16.0625 29.0625ZM16.0625 26.976C22.4005 26.976 27.5385 21.838 27.5385 15.5C27.5385 9.162 22.4005 4.02404 16.0625 4.02404C9.7245 4.02404 4.58654 9.162 4.58654 15.5C4.58654 17.9471 5.35249 20.2154 6.65772 22.078L5.62981 25.9327L9.55243 24.952C11.4022 26.2285 13.6451 26.976 16.0625 26.976Z" fill="white"/>
<path d="M12.6719 9.20297C12.3494 8.55529 11.8548 8.61263 11.355 8.61263C10.4619 8.61263 9.06934 9.6824 9.06934 11.6733C9.06934 13.305 9.78834 15.0912 12.2112 17.7631C14.5494 20.3417 17.6216 21.6756 20.1721 21.6301C22.7227 21.5847 23.2474 19.3899 23.2474 18.6487C23.2474 18.3202 23.0436 18.1563 22.9031 18.1117C22.0339 17.6946 20.4309 16.9174 20.0662 16.7713C19.7014 16.6253 19.511 16.8228 19.3926 16.9303C19.0618 17.2455 18.4061 18.1745 18.1817 18.3834C17.9572 18.5924 17.6225 18.4866 17.4832 18.4076C16.9706 18.2019 15.581 17.5838 14.4732 16.51C13.1033 15.182 13.0229 14.7251 12.7648 14.3184C12.5583 13.993 12.7098 13.7934 12.7854 13.7061C13.0806 13.3656 13.4881 12.8398 13.6709 12.5785C13.8537 12.3172 13.7086 11.9204 13.6215 11.6734C13.2471 10.6107 12.9299 9.72112 12.6719 9.20297Z" fill="white"/>
<defs>
<linearGradient id="paint0_linear_64_468" x1="26.2344" y1="6.78125" x2="4.4375" y2="27.125" gradientUnits="userSpaceOnUse">
<stop stop-color="#5BD066"/>
<stop offset="1" stop-color="#27B43E"/>
</linearGradient>
</defs>
</svg>
