<svg width="62" height="62" viewBox="0 0 62 62" fill="none" xmlns="http://www.w3.org/2000/svg">
<g opacity="0.2" clip-path="url(#clip0_36_979)">
<path d="M19.0501 16.8115H14.7811C13.1401 16.8115 12.2949 17.0957 12.2949 18.455V20.0057C12.2949 21.3712 13.1401 21.6492 14.7811 21.6492H15.7682C16.3789 21.6492 16.6565 21.9766 16.6565 22.9158V43.2055C16.6565 44.849 16.9403 45.6954 18.2975 45.6954H19.8892C21.2525 45.6954 21.5301 44.849 21.5301 43.2055V18.4611C21.5301 17.0957 20.6911 16.8115 19.0501 16.8115Z" fill="black"/>
<path d="M48.3045 2.72466C46.4722 0.939113 44.1773 0 41.4074 0H20.5865C17.8165 0 15.4722 0.939113 13.6955 2.72466L2.67124 13.716C0.937711 15.4521 0 17.7505 0 20.2898V41.4693C0 44.3793 0.987065 46.6344 2.95502 48.562L13.4117 59.0344C15.4722 61.098 17.7733 62.0433 20.7284 61.9938H41.2716C44.1341 61.9938 46.4784 61.1474 48.5883 59.0344L59.045 48.562C60.9697 46.6344 62 44.336 62 41.4693V20.2898C62 17.7505 61.0623 15.4521 59.3288 13.716L48.3045 2.72466ZM57.916 27.5247C57.916 28.229 57.5891 28.6059 56.929 28.6059H53.7889V26.4002C53.7889 24.7568 53.5544 23.9103 52.1479 23.9103H50.7413C49.3347 23.9103 49.1003 24.7568 49.1003 26.4002V28.6059H46.8979C45.2569 28.6059 44.4117 28.8407 44.4117 30.2493V31.7507C44.4117 33.1593 45.2569 33.3941 46.8979 33.3941H49.1003V35.5998C49.1003 37.2433 49.3347 38.0897 50.7413 38.0897H52.1479C53.5544 38.0897 53.7889 37.2433 53.7889 35.5998V33.3941H56.929C57.5397 33.3941 57.8667 33.7216 57.916 34.3332V41.4693C57.916 43.2054 57.3978 44.5214 56.1825 45.6953L45.7258 56.1738C44.5043 57.3971 43.1471 57.9593 41.4567 57.9593H20.5371C18.8468 57.9593 17.4896 57.3971 16.2681 56.1738L5.81751 45.6953C4.59602 44.472 4.03463 43.2054 4.08398 41.4693V20.7593C4.08398 19.0232 4.64537 17.5157 5.91622 16.2491L16.5518 5.44933C17.6314 4.36811 18.9887 4.04066 20.5371 4.04066H41.4567C43.0052 4.04066 44.3624 4.36811 45.442 5.44933L56.0899 16.2491C57.3114 17.5157 57.916 19.0232 57.916 20.7593V27.5247Z" fill="black"/>
<path d="M39.4395 30.7188C42.0676 28.7912 42.1108 26.8203 42.1108 25.2263V23.6322C41.827 18.325 40.0503 16.3047 33.9058 16.3047C27.7613 16.3047 25.9785 18.325 25.7008 23.6322V25.2263C25.7008 26.8203 25.7502 28.7974 28.3721 30.7188C25.232 31.9422 24.9976 34.6174 24.9976 38.1391C24.9976 43.3536 26.8236 45.9362 33.9058 46.0783C40.988 45.9362 42.8141 43.3536 42.8141 38.1391C42.8141 34.6174 42.5796 31.936 39.4395 30.7188ZM33.9058 20.6172C36.4845 20.6172 37.5148 21.5563 37.5148 24.7011C37.5148 27.7532 36.4845 28.785 33.9058 28.785C31.3271 28.785 30.2969 27.7532 30.2969 24.7011C30.2969 21.5563 31.3271 20.6172 33.9058 20.6172ZM33.9058 41.6113C30.9076 41.6113 29.828 40.4374 29.828 37.478C29.828 34.5185 30.9076 33.1593 33.9058 33.1593C36.9102 33.1593 37.9836 34.5185 37.9836 37.478C37.9836 40.4374 36.9102 41.6113 33.9058 41.6113Z" fill="black"/>
</g>
<defs>
<clipPath id="clip0_36_979">
<rect width="62" height="62" fill="white"/>
</clipPath>
</defs>
</svg>
