<svg width="155" height="72" viewBox="0 0 155 72" fill="none" xmlns="http://www.w3.org/2000/svg">
<g filter="url(#filter0_f_37_1011)">
<path d="M38.234 44.608V49H22.736V22.882H28.136V44.608H38.234ZM69.572 35.932C69.572 37.84 69.248 39.61 68.6 41.242C67.964 42.874 67.058 44.284 65.882 45.472C64.718 46.66 63.314 47.596 61.67 48.28C60.026 48.952 58.202 49.288 56.198 49.288C54.194 49.288 52.37 48.952 50.726 48.28C49.082 47.596 47.672 46.66 46.496 45.472C45.32 44.284 44.408 42.874 43.76 41.242C43.124 39.61 42.806 37.84 42.806 35.932C42.806 34.024 43.124 32.26 43.76 30.64C44.408 29.008 45.32 27.598 46.496 26.41C47.672 25.222 49.082 24.292 50.726 23.62C52.37 22.936 54.194 22.594 56.198 22.594C58.202 22.594 60.026 22.936 61.67 23.62C63.314 24.292 64.718 25.228 65.882 26.428C67.058 27.616 67.964 29.026 68.6 30.658C69.248 32.278 69.572 34.036 69.572 35.932ZM64.046 35.932C64.046 34.564 63.866 33.34 63.506 32.26C63.146 31.168 62.624 30.244 61.94 29.488C61.268 28.72 60.446 28.138 59.474 27.742C58.514 27.334 57.422 27.13 56.198 27.13C54.974 27.13 53.876 27.334 52.904 27.742C51.932 28.138 51.104 28.72 50.42 29.488C49.748 30.244 49.232 31.168 48.872 32.26C48.512 33.34 48.332 34.564 48.332 35.932C48.332 37.312 48.512 38.548 48.872 39.64C49.232 40.72 49.748 41.638 50.42 42.394C51.104 43.15 51.932 43.732 52.904 44.14C53.876 44.536 54.974 44.734 56.198 44.734C57.422 44.734 58.514 44.536 59.474 44.14C60.446 43.732 61.268 43.15 61.94 42.394C62.624 41.638 63.146 40.72 63.506 39.64C63.866 38.548 64.046 37.312 64.046 35.932ZM89.8237 35.698H98.7877V46.48C97.4557 47.452 96.0337 48.166 94.5217 48.622C93.0217 49.066 91.4317 49.288 89.7517 49.288C87.6037 49.288 85.6597 48.958 83.9197 48.298C82.1797 47.626 80.6917 46.696 79.4557 45.508C78.2197 44.32 77.2657 42.91 76.5937 41.278C75.9217 39.646 75.5857 37.864 75.5857 35.932C75.5857 33.976 75.9037 32.182 76.5397 30.55C77.1877 28.918 78.1057 27.514 79.2937 26.338C80.4817 25.162 81.9157 24.244 83.5957 23.584C85.2877 22.924 87.1777 22.594 89.2657 22.594C90.3457 22.594 91.3537 22.684 92.2897 22.864C93.2257 23.032 94.0897 23.272 94.8817 23.584C95.6737 23.884 96.3997 24.244 97.0597 24.664C97.7197 25.084 98.3197 25.546 98.8597 26.05L97.2937 28.462C97.0537 28.846 96.7417 29.08 96.3577 29.164C95.9737 29.248 95.5537 29.152 95.0977 28.876C94.6657 28.612 94.2397 28.378 93.8197 28.174C93.4117 27.958 92.9737 27.772 92.5057 27.616C92.0377 27.46 91.5277 27.34 90.9757 27.256C90.4237 27.172 89.7877 27.13 89.0677 27.13C87.8557 27.13 86.7577 27.34 85.7737 27.76C84.7897 28.18 83.9497 28.774 83.2537 29.542C82.5697 30.31 82.0417 31.234 81.6697 32.314C81.2977 33.394 81.1117 34.6 81.1117 35.932C81.1117 37.372 81.3157 38.662 81.7237 39.802C82.1317 40.93 82.7077 41.884 83.4517 42.664C84.1957 43.444 85.0837 44.038 86.1157 44.446C87.1597 44.854 88.3177 45.058 89.5897 45.058C90.4537 45.058 91.2217 44.974 91.8937 44.806C92.5777 44.626 93.2437 44.386 93.8917 44.086V39.694H90.9397C90.5917 39.694 90.3157 39.604 90.1117 39.424C89.9197 39.232 89.8237 38.992 89.8237 38.704V35.698ZM132.038 35.932C132.038 37.84 131.714 39.61 131.066 41.242C130.43 42.874 129.524 44.284 128.348 45.472C127.184 46.66 125.78 47.596 124.136 48.28C122.492 48.952 120.668 49.288 118.664 49.288C116.66 49.288 114.836 48.952 113.192 48.28C111.548 47.596 110.138 46.66 108.962 45.472C107.786 44.284 106.874 42.874 106.226 41.242C105.59 39.61 105.272 37.84 105.272 35.932C105.272 34.024 105.59 32.26 106.226 30.64C106.874 29.008 107.786 27.598 108.962 26.41C110.138 25.222 111.548 24.292 113.192 23.62C114.836 22.936 116.66 22.594 118.664 22.594C120.668 22.594 122.492 22.936 124.136 23.62C125.78 24.292 127.184 25.228 128.348 26.428C129.524 27.616 130.43 29.026 131.066 30.658C131.714 32.278 132.038 34.036 132.038 35.932ZM126.512 35.932C126.512 34.564 126.332 33.34 125.972 32.26C125.612 31.168 125.09 30.244 124.406 29.488C123.734 28.72 122.912 28.138 121.94 27.742C120.98 27.334 119.888 27.13 118.664 27.13C117.44 27.13 116.342 27.334 115.37 27.742C114.398 28.138 113.57 28.72 112.886 29.488C112.214 30.244 111.698 31.168 111.338 32.26C110.978 33.34 110.798 34.564 110.798 35.932C110.798 37.312 110.978 38.548 111.338 39.64C111.698 40.72 112.214 41.638 112.886 42.394C113.57 43.15 114.398 43.732 115.37 44.14C116.342 44.536 117.44 44.734 118.664 44.734C119.888 44.734 120.98 44.536 121.94 44.14C122.912 43.732 123.734 43.15 124.406 42.394C125.09 41.638 125.612 40.72 125.972 39.64C126.332 38.548 126.512 37.312 126.512 35.932Z" fill="#66B2FF"/>
</g>
<path d="M38.234 44.608H39.234V43.608H38.234V44.608ZM38.234 49V50H39.234V49H38.234ZM22.736 49H21.736V50H22.736V49ZM22.736 22.882V21.882H21.736V22.882H22.736ZM28.136 22.882H29.136V21.882H28.136V22.882ZM28.136 44.608H27.136V45.608H28.136V44.608ZM37.234 44.608V49H39.234V44.608H37.234ZM38.234 48H22.736V50H38.234V48ZM23.736 49V22.882H21.736V49H23.736ZM22.736 23.882H28.136V21.882H22.736V23.882ZM27.136 22.882V44.608H29.136V22.882H27.136ZM28.136 45.608H38.234V43.608H28.136V45.608ZM68.6 41.242L67.6706 40.873L67.6683 40.8789L68.6 41.242ZM65.882 45.472L65.1713 44.7685L65.1677 44.7721L65.882 45.472ZM61.67 48.28L62.0484 49.2057L62.0541 49.2033L61.67 48.28ZM50.726 48.28L50.3419 49.2033L50.3476 49.2057L50.726 48.28ZM46.496 45.472L47.2067 44.7685L47.2067 44.7685L46.496 45.472ZM43.76 41.242L42.8282 41.6051L42.8306 41.611L43.76 41.242ZM43.76 30.64L42.8306 30.271L42.8292 30.2746L43.76 30.64ZM46.496 26.41L45.7853 25.7065L45.7853 25.7065L46.496 26.41ZM50.726 23.62L51.1044 24.5457L51.1101 24.5433L50.726 23.62ZM61.67 23.62L61.2859 24.5433L61.2916 24.5457L61.67 23.62ZM65.882 26.428L65.1642 27.1243L65.1713 27.1315L65.882 26.428ZM68.6 30.658L67.6682 31.0211L67.6715 31.0294L68.6 30.658ZM63.506 32.26L62.5563 32.5731L62.5573 32.5762L63.506 32.26ZM61.94 29.488L61.1874 30.1465L61.1929 30.1528L61.1985 30.1589L61.94 29.488ZM59.474 27.742L59.0829 28.6623L59.0898 28.6653L59.0967 28.6681L59.474 27.742ZM52.904 27.742L53.2813 28.6681L53.291 28.6641L52.904 27.742ZM50.42 29.488L49.6732 28.8229L49.6726 28.8236L50.42 29.488ZM48.872 32.26L49.8207 32.5762L49.8217 32.5731L48.872 32.26ZM48.872 39.64L47.9223 39.9531L47.9233 39.9562L48.872 39.64ZM50.42 42.394L49.6726 43.0584L49.6785 43.0649L50.42 42.394ZM52.904 44.14L52.5169 45.0621L52.5267 45.0661L52.904 44.14ZM59.474 44.14L59.8553 45.0645L59.861 45.0621L59.474 44.14ZM61.94 42.394L61.1984 41.7231L61.1926 41.7296L61.94 42.394ZM63.506 39.64L64.4547 39.9562L64.4557 39.9531L63.506 39.64ZM68.572 35.932C68.572 37.7246 68.2681 39.3682 67.6706 40.873L69.5294 41.611C70.2279 39.8518 70.572 37.9554 70.572 35.932H68.572ZM67.6683 40.8789C67.0795 42.3897 66.2466 43.6823 65.1713 44.7685L66.5927 46.1755C67.8695 44.8857 68.8485 43.3583 69.5317 41.6051L67.6683 40.8789ZM65.1677 44.7721C64.1041 45.8576 62.8148 46.7206 61.2859 47.3567L62.0541 49.2033C63.8132 48.4714 65.3319 47.4624 66.5963 46.1719L65.1677 44.7721ZM61.2916 47.3543C59.7822 47.9713 58.0888 48.288 56.198 48.288V50.288C58.3152 50.288 60.2698 49.9327 62.0484 49.2057L61.2916 47.3543ZM56.198 48.288C54.3072 48.288 52.6138 47.9713 51.1044 47.3543L50.3476 49.2057C52.1262 49.9327 54.0808 50.288 56.198 50.288V48.288ZM51.1101 47.3567C49.5804 46.7203 48.2835 45.8563 47.2067 44.7685L45.7853 46.1755C47.0605 47.4637 48.5836 48.4717 50.3419 49.2033L51.1101 47.3567ZM47.2067 44.7685C46.1301 43.6809 45.2903 42.3863 44.6894 40.873L42.8306 41.611C43.5257 43.3617 44.5099 44.8871 45.7853 46.1755L47.2067 44.7685ZM44.6917 40.8789C44.1047 39.3726 43.806 37.7269 43.806 35.932H41.806C41.806 37.9531 42.1433 39.8474 42.8283 41.6051L44.6917 40.8789ZM43.806 35.932C43.806 34.137 44.1048 32.4983 44.6908 31.0054L42.8292 30.2746C42.1432 32.0217 41.806 33.911 41.806 35.932H43.806ZM44.6894 31.009C45.2903 29.4957 46.1301 28.2011 47.2067 27.1135L45.7853 25.7065C44.5099 26.9949 43.5257 28.5203 42.8306 30.271L44.6894 31.009ZM47.2067 27.1135C48.2822 26.027 49.5771 25.17 51.1044 24.5457L50.3476 22.6943C48.5869 23.414 47.0618 24.4169 45.7853 25.7065L47.2067 27.1135ZM51.1101 24.5433C52.618 23.9159 54.3094 23.594 56.198 23.594V21.594C54.0787 21.594 52.122 21.9561 50.3419 22.6967L51.1101 24.5433ZM56.198 23.594C58.0867 23.594 59.778 23.9159 61.2859 24.5433L62.0541 22.6967C60.274 21.9561 58.3174 21.594 56.198 21.594V23.594ZM61.2916 24.5457C62.816 25.1687 64.1022 26.0294 65.1642 27.1243L66.5998 25.7317C65.3338 24.4266 63.812 23.4153 62.0484 22.6943L61.2916 24.5457ZM65.1713 27.1315C66.2466 28.2177 67.0795 29.5103 67.6683 31.0211L69.5317 30.2949C68.8485 28.5417 67.8695 27.0143 66.5927 25.7245L65.1713 27.1315ZM67.6715 31.0294C68.2683 32.5214 68.572 34.1521 68.572 35.932H70.572C70.572 33.9199 70.2277 32.0346 69.5285 30.2866L67.6715 31.0294ZM65.046 35.932C65.046 34.4775 64.8547 33.1439 64.4547 31.9438L62.5573 32.5762C62.8773 33.5361 63.046 34.6505 63.046 35.932H65.046ZM64.4557 31.9469C64.0576 30.7394 63.4704 29.689 62.6815 28.8171L61.1985 30.1589C61.7776 30.799 62.2344 31.5966 62.5563 32.5731L64.4557 31.9469ZM62.6926 28.8295C61.915 27.9409 60.9633 27.2689 59.8513 26.8159L59.0967 28.6681C59.9287 29.0071 60.621 29.4991 61.1874 30.1465L62.6926 28.8295ZM59.8651 26.8217C58.7619 26.3528 57.5334 26.13 56.198 26.13V28.13C57.3106 28.13 58.2661 28.3152 59.0829 28.6623L59.8651 26.8217ZM56.198 26.13C54.8623 26.13 53.6296 26.3529 52.517 26.8199L53.291 28.6641C54.1224 28.3151 55.0857 28.13 56.198 28.13V26.13ZM52.5267 26.8159C51.4162 27.2683 50.461 27.9384 49.6732 28.8229L51.1668 30.1531C51.747 29.5016 52.4478 29.0077 53.2813 28.6681L52.5267 26.8159ZM49.6726 28.8236C48.8983 29.6947 48.3192 30.7429 47.9223 31.9469L49.8217 32.5731C50.1448 31.5931 50.5977 30.7933 51.1674 30.1524L49.6726 28.8236ZM47.9233 31.9438C47.5233 33.1439 47.332 34.4775 47.332 35.932H49.332C49.332 34.6505 49.5007 33.5361 49.8207 32.5762L47.9233 31.9438ZM47.332 35.932C47.332 37.3977 47.5231 38.7422 47.9223 39.9531L49.8217 39.3269C49.5009 38.3538 49.332 37.2263 49.332 35.932H47.332ZM47.9233 39.9562C48.3208 41.1486 48.9 42.1892 49.6726 43.0584L51.1674 41.7296C50.596 41.0868 50.1432 40.2914 49.8207 39.3238L47.9233 39.9562ZM49.6785 43.0649C50.4642 43.9333 51.4145 44.5993 52.517 45.0621L53.291 43.2179C52.4495 42.8647 51.7438 42.3667 51.1615 41.7231L49.6785 43.0649ZM52.5267 45.0661C53.6367 45.5183 54.8658 45.734 56.198 45.734V43.734C55.0822 43.734 54.1153 43.5537 53.2813 43.2139L52.5267 45.0661ZM56.198 45.734C57.5298 45.734 58.7548 45.5184 59.8553 45.0644L59.0927 43.2156C58.2732 43.5536 57.3142 43.734 56.198 43.734V45.734ZM59.861 45.0621C60.9649 44.5987 61.9118 43.9309 62.6874 43.0584L61.1926 41.7296C60.6242 42.3691 59.9271 42.8653 59.087 43.2179L59.861 45.0621ZM62.6815 43.0649C63.4687 42.1949 64.056 41.1522 64.4547 39.9562L62.5573 39.3238C62.236 40.2878 61.7793 41.0811 61.1985 41.7231L62.6815 43.0649ZM64.4557 39.9531C64.8549 38.7422 65.046 37.3977 65.046 35.932H63.046C63.046 37.2263 62.8771 38.3538 62.5563 39.3269L64.4557 39.9531ZM89.8237 35.698V34.698H88.8237V35.698H89.8237ZM98.7877 35.698H99.7877V34.698H98.7877V35.698ZM98.7877 46.48L99.3772 47.2878L99.7877 46.9882V46.48H98.7877ZM94.5217 48.622L94.8055 49.5809L94.8104 49.5794L94.5217 48.622ZM83.9197 48.298L83.5594 49.2309L83.565 49.233L83.9197 48.298ZM79.4557 45.508L78.7627 46.229L78.7627 46.229L79.4557 45.508ZM76.5937 41.278L77.5184 40.8972L77.5184 40.8972L76.5937 41.278ZM76.5397 30.55L75.6103 30.181L75.6079 30.1869L76.5397 30.55ZM79.2937 26.338L78.5902 25.6273L78.5902 25.6273L79.2937 26.338ZM83.5957 23.584L83.2323 22.6524L83.23 22.6532L83.5957 23.584ZM92.2897 22.864L92.1008 23.8461L92.113 23.8483L92.2897 22.864ZM94.8817 23.584L94.5151 24.5145L94.5275 24.5192L94.8817 23.584ZM97.0597 24.664L97.5966 23.8203L97.5966 23.8203L97.0597 24.664ZM98.8597 26.05L99.6984 26.5945L100.155 25.8912L99.542 25.3189L98.8597 26.05ZM97.2937 28.462L96.455 27.9175L96.4503 27.9247L96.4457 27.932L97.2937 28.462ZM96.3577 29.164L96.5714 30.1409L96.5714 30.1409L96.3577 29.164ZM95.0977 28.876L94.5762 29.7293L94.5799 29.7315L95.0977 28.876ZM93.8197 28.174L93.3518 29.0578L93.3672 29.0659L93.3828 29.0735L93.8197 28.174ZM92.5057 27.616L92.8219 26.6673L92.8219 26.6673L92.5057 27.616ZM83.2537 29.542L82.5127 28.8705L82.5069 28.8769L83.2537 29.542ZM81.6697 32.314L82.6152 32.6397L82.6152 32.6397L81.6697 32.314ZM81.7237 39.802L80.7822 40.139L80.7833 40.1421L81.7237 39.802ZM83.4517 42.664L82.7281 43.3542L82.7281 43.3542L83.4517 42.664ZM86.1157 44.446L85.748 45.376L85.7517 45.3774L86.1157 44.446ZM91.8937 44.806L92.1362 45.7762L92.1482 45.7731L91.8937 44.806ZM93.8917 44.086L94.3118 44.9935L94.8917 44.725V44.086H93.8917ZM93.8917 39.694H94.8917V38.694H93.8917V39.694ZM90.1117 39.424L89.4046 40.1311L89.4267 40.1532L89.4501 40.1738L90.1117 39.424ZM89.8237 36.698H98.7877V34.698H89.8237V36.698ZM97.7877 35.698V46.48H99.7877V35.698H97.7877ZM98.1982 45.6722C96.9532 46.5807 95.6323 47.2426 94.2329 47.6646L94.8104 49.5794C96.4351 49.0894 97.9581 48.3233 99.3772 47.2878L98.1982 45.6722ZM94.2379 47.6631C92.8366 48.0779 91.3427 48.288 89.7517 48.288V50.288C91.5207 50.288 93.2068 50.0541 94.8055 49.5809L94.2379 47.6631ZM89.7517 48.288C87.7064 48.288 85.885 47.9739 84.2743 47.363L83.565 49.233C85.4344 49.9421 87.5009 50.288 89.7517 50.288V48.288ZM84.28 47.3652C82.6528 46.7367 81.2808 45.8752 80.1487 44.787L78.7627 46.229C80.1026 47.5168 81.7065 48.5153 83.5594 49.2308L84.28 47.3652ZM80.1487 44.787C79.0156 43.698 78.1392 42.4049 77.5184 40.8972L75.669 41.6587C76.3922 43.4151 77.4237 44.942 78.7627 46.229L80.1487 44.787ZM77.5184 40.8972C76.9006 39.397 76.5857 37.7458 76.5857 35.932H74.5857C74.5857 37.9822 74.9428 39.895 75.669 41.6587L77.5184 40.8972ZM76.5857 35.932C76.5857 34.0858 76.8855 32.4166 77.4714 30.9131L75.6079 30.1869C74.9219 31.9474 74.5857 33.8662 74.5857 35.932H76.5857ZM77.4691 30.919C78.0688 29.4087 78.9122 28.1227 79.9972 27.0487L78.5902 25.6273C77.2992 26.9053 76.3066 28.4273 75.6103 30.181L77.4691 30.919ZM79.9972 27.0487C81.0812 25.9756 82.3975 25.1291 83.9613 24.5148L83.23 22.6532C81.4338 23.3589 79.8822 24.3484 78.5902 25.6273L79.9972 27.0487ZM83.9591 24.5156C85.5193 23.907 87.2836 23.594 89.2657 23.594V21.594C87.0717 21.594 85.0561 21.941 83.2323 22.6524L83.9591 24.5156ZM89.2657 23.594C90.2905 23.594 91.2347 23.6794 92.1008 23.846L92.4785 21.882C91.4727 21.6886 90.4009 21.594 89.2657 21.594V23.594ZM92.113 23.8483C92.9916 24.006 93.7912 24.2292 94.5152 24.5144L95.2482 22.6536C94.3882 22.3148 93.4598 22.058 92.4664 21.8797L92.113 23.8483ZM94.5275 24.5192C95.2608 24.7969 95.9249 25.1272 96.5228 25.5077L97.5966 23.8203C96.8745 23.3608 96.0866 22.9711 95.2359 22.6488L94.5275 24.5192ZM96.5228 25.5077C97.134 25.8966 97.6848 26.3214 98.1774 26.7811L99.542 25.3189C98.9545 24.7706 98.3054 24.2714 97.5966 23.8203L96.5228 25.5077ZM98.021 25.5055L96.455 27.9175L98.1324 29.0065L99.6984 26.5945L98.021 25.5055ZM96.4457 27.932C96.3248 28.1255 96.2245 28.1695 96.144 28.1871L96.5714 30.1409C97.2589 29.9905 97.7826 29.5665 98.1417 28.992L96.4457 27.932ZM96.144 28.1871C96.0884 28.1993 95.9318 28.2119 95.6155 28.0205L94.5799 29.7315C95.1756 30.0921 95.8589 30.2967 96.5714 30.1409L96.144 28.1871ZM95.6191 28.0227C95.162 27.7433 94.7078 27.4936 94.2566 27.2745L93.3828 29.0735C93.7716 29.2624 94.1694 29.4807 94.5762 29.7293L95.6191 28.0227ZM94.2876 27.2902C93.8277 27.0467 93.3386 26.8396 92.8219 26.6673L92.1895 28.5647C92.6087 28.7044 92.9957 28.8692 93.3518 29.0578L94.2876 27.2902ZM92.8219 26.6673C92.2934 26.4911 91.7272 26.3588 91.1261 26.2674L90.8252 28.2446C91.3282 28.3211 91.782 28.4289 92.1895 28.5647L92.8219 26.6673ZM91.1261 26.2674C90.5125 26.174 89.8245 26.13 89.0677 26.13V28.13C89.7509 28.13 90.3349 28.17 90.8252 28.2446L91.1261 26.2674ZM89.0677 26.13C87.7386 26.13 86.5047 26.3607 85.3811 26.8403L86.1663 28.6797C87.0107 28.3193 87.9727 28.13 89.0677 28.13V26.13ZM85.3811 26.8403C84.2688 27.315 83.3087 27.9921 82.5127 28.8705L83.9947 30.2135C84.5906 29.5559 85.3105 29.045 86.1663 28.6797L85.3811 26.8403ZM82.5069 28.8769C81.7256 29.7542 81.1345 30.797 80.7242 31.9883L82.6152 32.6397C82.9488 31.671 83.4138 30.8658 84.0005 30.2071L82.5069 28.8769ZM80.7242 31.9883C80.3107 33.1889 80.1117 34.5072 80.1117 35.932H82.1117C82.1117 34.6928 82.2847 33.5991 82.6152 32.6397L80.7242 31.9883ZM80.1117 35.932C80.1117 37.4657 80.3289 38.8725 80.7822 40.139L82.6652 39.465C82.3025 38.4515 82.1117 37.2783 82.1117 35.932H80.1117ZM80.7833 40.1421C81.2332 41.3858 81.878 42.463 82.7281 43.3542L84.1753 41.9738C83.5373 41.305 83.0302 40.4742 82.6641 39.4619L80.7833 40.1421ZM82.7281 43.3542C83.575 44.2421 84.5855 44.9164 85.748 45.376L86.4833 43.516C85.5819 43.1596 84.8164 42.6459 84.1753 41.9738L82.7281 43.3542ZM85.7517 45.3774C86.9263 45.8364 88.2098 46.058 89.5897 46.058V44.058C88.4256 44.058 87.3931 43.8716 86.4797 43.5146L85.7517 45.3774ZM89.5897 46.058C90.5163 46.058 91.3682 45.9681 92.1362 45.7761L91.6512 43.8359C91.0752 43.9799 90.3911 44.058 89.5897 44.058V46.058ZM92.1482 45.7731C92.8896 45.578 93.611 45.3179 94.3118 44.9935L93.4716 43.1785C92.8764 43.4541 92.2658 43.674 91.6392 43.8389L92.1482 45.7731ZM94.8917 44.086V39.694H92.8917V44.086H94.8917ZM93.8917 38.694H90.9397V40.694H93.8917V38.694ZM90.9397 38.694C90.8507 38.694 90.802 38.6824 90.7817 38.6758C90.7646 38.6702 90.7663 38.668 90.7733 38.6742L89.4501 40.1738C89.8832 40.556 90.418 40.694 90.9397 40.694V38.694ZM90.8188 38.7169C90.8152 38.7133 90.8156 38.7131 90.8177 38.7163C90.82 38.7197 90.8223 38.7241 90.8242 38.7286C90.826 38.7331 90.826 38.7348 90.8256 38.7321C90.825 38.7293 90.8237 38.7204 90.8237 38.704H88.8237C88.8237 39.2394 89.0128 39.7393 89.4046 40.1311L90.8188 38.7169ZM90.8237 38.704V35.698H88.8237V38.704H90.8237ZM131.066 41.242L130.136 40.873L130.134 40.8789L131.066 41.242ZM128.348 45.472L127.637 44.7685L127.633 44.7721L128.348 45.472ZM124.136 48.28L124.514 49.2057L124.52 49.2033L124.136 48.28ZM113.192 48.28L112.807 49.2033L112.813 49.2057L113.192 48.28ZM108.962 45.472L109.672 44.7685L109.672 44.7685L108.962 45.472ZM106.226 41.242L105.294 41.6051L105.296 41.611L106.226 41.242ZM106.226 30.64L105.296 30.271L105.295 30.2746L106.226 30.64ZM108.962 26.41L108.251 25.7065L108.251 25.7065L108.962 26.41ZM113.192 23.62L113.57 24.5457L113.576 24.5433L113.192 23.62ZM124.136 23.62L123.751 24.5433L123.757 24.5457L124.136 23.62ZM128.348 26.428L127.63 27.1243L127.637 27.1315L128.348 26.428ZM131.066 30.658L130.134 31.0211L130.137 31.0294L131.066 30.658ZM125.972 32.26L125.022 32.5731L125.023 32.5762L125.972 32.26ZM124.406 29.488L123.653 30.1465L123.659 30.1528L123.664 30.1589L124.406 29.488ZM121.94 27.742L121.548 28.6623L121.555 28.6653L121.562 28.6681L121.94 27.742ZM115.37 27.742L115.747 28.6681L115.757 28.6641L115.37 27.742ZM112.886 29.488L112.139 28.8229L112.138 28.8236L112.886 29.488ZM111.338 32.26L112.286 32.5762L112.287 32.5731L111.338 32.26ZM111.338 39.64L110.388 39.9531L110.389 39.9562L111.338 39.64ZM112.886 42.394L112.138 43.0584L112.144 43.0649L112.886 42.394ZM115.37 44.14L114.983 45.0621L114.992 45.0661L115.37 44.14ZM121.94 44.14L122.321 45.0645L122.327 45.0621L121.94 44.14ZM124.406 42.394L123.664 41.7231L123.658 41.7296L124.406 42.394ZM125.972 39.64L126.92 39.9562L126.921 39.9531L125.972 39.64ZM131.038 35.932C131.038 37.7246 130.734 39.3682 130.136 40.873L131.995 41.611C132.694 39.8518 133.038 37.9554 133.038 35.932H131.038ZM130.134 40.8789C129.545 42.3897 128.712 43.6823 127.637 44.7685L129.058 46.1755C130.335 44.8857 131.314 43.3583 131.997 41.6051L130.134 40.8789ZM127.633 44.7721C126.57 45.8576 125.28 46.7206 123.751 47.3567L124.52 49.2033C126.279 48.4714 127.797 47.4624 129.062 46.1719L127.633 44.7721ZM123.757 47.3543C122.248 47.9713 120.554 48.288 118.664 48.288V50.288C120.781 50.288 122.735 49.9327 124.514 49.2057L123.757 47.3543ZM118.664 48.288C116.773 48.288 115.079 47.9713 113.57 47.3543L112.813 49.2057C114.592 49.9327 116.546 50.288 118.664 50.288V48.288ZM113.576 47.3567C112.046 46.7203 110.749 45.8563 109.672 44.7685L108.251 46.1755C109.526 47.4637 111.049 48.4717 112.807 49.2033L113.576 47.3567ZM109.672 44.7685C108.596 43.6809 107.756 42.3863 107.155 40.873L105.296 41.611C105.991 43.3617 106.976 44.8871 108.251 46.1755L109.672 44.7685ZM107.157 40.8789C106.57 39.3726 106.272 37.7269 106.272 35.932H104.272C104.272 37.9531 104.609 39.8474 105.294 41.6051L107.157 40.8789ZM106.272 35.932C106.272 34.137 106.57 32.4983 107.156 31.0054L105.295 30.2746C104.609 32.0217 104.272 33.911 104.272 35.932H106.272ZM107.155 31.009C107.756 29.4957 108.596 28.2011 109.672 27.1135L108.251 25.7065C106.976 26.9949 105.991 28.5203 105.296 30.271L107.155 31.009ZM109.672 27.1135C110.748 26.027 112.043 25.17 113.57 24.5457L112.813 22.6943C111.053 23.414 109.527 24.4169 108.251 25.7065L109.672 27.1135ZM113.576 24.5433C115.084 23.9159 116.775 23.594 118.664 23.594V21.594C116.544 21.594 114.588 21.9561 112.807 22.6967L113.576 24.5433ZM118.664 23.594C120.552 23.594 122.244 23.9159 123.751 24.5433L124.52 22.6967C122.74 21.9561 120.783 21.594 118.664 21.594V23.594ZM123.757 24.5457C125.282 25.1687 126.568 26.0294 127.63 27.1243L129.065 25.7317C127.799 24.4266 126.278 23.4153 124.514 22.6943L123.757 24.5457ZM127.637 27.1315C128.712 28.2177 129.545 29.5103 130.134 31.0211L131.997 30.2949C131.314 28.5417 130.335 27.0143 129.058 25.7245L127.637 27.1315ZM130.137 31.0294C130.734 32.5214 131.038 34.1521 131.038 35.932H133.038C133.038 33.9199 132.693 32.0346 131.994 30.2866L130.137 31.0294ZM127.512 35.932C127.512 34.4775 127.32 33.1439 126.92 31.9438L125.023 32.5762C125.343 33.5361 125.512 34.6505 125.512 35.932H127.512ZM126.921 31.9469C126.523 30.7394 125.936 29.689 125.147 28.8171L123.664 30.1589C124.243 30.799 124.7 31.5966 125.022 32.5731L126.921 31.9469ZM125.158 28.8295C124.381 27.9409 123.429 27.2689 122.317 26.8159L121.562 28.6681C122.394 29.0071 123.087 29.4991 123.653 30.1465L125.158 28.8295ZM122.331 26.8217C121.228 26.3528 119.999 26.13 118.664 26.13V28.13C119.776 28.13 120.732 28.3152 121.548 28.6623L122.331 26.8217ZM118.664 26.13C117.328 26.13 116.095 26.3529 114.983 26.8199L115.757 28.6641C116.588 28.3151 117.551 28.13 118.664 28.13V26.13ZM114.992 26.8159C113.882 27.2683 112.927 27.9384 112.139 28.8229L113.632 30.1531C114.213 29.5016 114.913 29.0077 115.747 28.6681L114.992 26.8159ZM112.138 28.8236C111.364 29.6947 110.785 30.7429 110.388 31.9469L112.287 32.5731C112.61 31.5931 113.063 30.7933 113.633 30.1524L112.138 28.8236ZM110.389 31.9438C109.989 33.1439 109.798 34.4775 109.798 35.932H111.798C111.798 34.6505 111.966 33.5361 112.286 32.5762L110.389 31.9438ZM109.798 35.932C109.798 37.3977 109.989 38.7422 110.388 39.9531L112.287 39.3269C111.967 38.3538 111.798 37.2263 111.798 35.932H109.798ZM110.389 39.9562C110.786 41.1486 111.366 42.1892 112.138 43.0584L113.633 41.7296C113.062 41.0868 112.609 40.2914 112.286 39.3238L110.389 39.9562ZM112.144 43.0649C112.93 43.9333 113.88 44.5993 114.983 45.0621L115.757 43.2179C114.915 42.8647 114.209 42.3667 113.627 41.7231L112.144 43.0649ZM114.992 45.0661C116.102 45.5183 117.331 45.734 118.664 45.734V43.734C117.548 43.734 116.581 43.5537 115.747 43.2139L114.992 45.0661ZM118.664 45.734C119.995 45.734 121.22 45.5184 122.321 45.0644L121.558 43.2156C120.739 43.5536 119.78 43.734 118.664 43.734V45.734ZM122.327 45.0621C123.431 44.5987 124.377 43.9309 125.153 43.0584L123.658 41.7296C123.09 42.3691 122.393 42.8653 121.553 43.2179L122.327 45.0621ZM125.147 43.0649C125.934 42.1949 126.522 41.1522 126.92 39.9562L125.023 39.3238C124.702 40.2878 124.245 41.0811 123.664 41.7231L125.147 43.0649ZM126.921 39.9531C127.321 38.7422 127.512 37.3977 127.512 35.932H125.512C125.512 37.2263 125.343 38.3538 125.022 39.3269L126.921 39.9531Z" fill="#E4EFFF"/>
<defs>
<filter id="filter0_f_37_1011" x="0.736084" y="0.594238" width="153.302" height="70.6938" filterUnits="userSpaceOnUse" color-interpolation-filters="sRGB">
<feFlood flood-opacity="0" result="BackgroundImageFix"/>
<feBlend mode="normal" in="SourceGraphic" in2="BackgroundImageFix" result="shape"/>
<feGaussianBlur stdDeviation="11" result="effect1_foregroundBlur_37_1011"/>
</filter>
</defs>
</svg>
