<svg width="20" height="20" viewBox="0 0 20 20" fill="none" xmlns="http://www.w3.org/2000/svg">
<path d="M15.5 9.979C15.5 8.465 14.9617 7.17 13.885 6.094C12.809 5.01734 11.514 4.479 10 4.479V2.979C10.972 2.979 11.8817 3.163 12.729 3.531C13.5763 3.899 14.316 4.399 14.948 5.031C15.58 5.663 16.08 6.40267 16.448 7.25C16.816 8.09734 17 9.007 17 9.979H15.5ZM12.5 9.979C12.5 9.285 12.257 8.69467 11.771 8.208C11.285 7.722 10.6947 7.479 10 7.479V5.979C11.1113 5.979 12.0557 6.368 12.833 7.146C13.611 7.92334 14 8.86767 14 9.979H12.5ZM15.896 16.979C14.1873 16.8403 12.576 16.4133 11.062 15.698C9.54867 14.9827 8.219 14.0487 7.073 12.896C5.927 11.7433 4.993 10.41 4.271 8.896C3.549 7.382 3.12533 5.77067 3 4.062C2.972 3.77067 3.05867 3.51734 3.26 3.302C3.46133 3.08667 3.708 2.979 4 2.979H6.833C7.06967 2.979 7.27467 3.04867 7.448 3.188C7.62133 3.32667 7.736 3.514 7.792 3.75L8.292 5.979C8.31933 6.14567 8.31233 6.31234 8.271 6.479C8.229 6.64567 8.14567 6.79167 8.021 6.917L6 8.958C6.58333 10.014 7.29867 10.9653 8.146 11.812C8.99333 12.6593 9.94467 13.3747 11 13.958L13.062 11.958C13.2013 11.8193 13.3543 11.7327 13.521 11.698C13.6877 11.6633 13.8473 11.66 14 11.688L16.229 12.167C16.465 12.2223 16.6527 12.3403 16.792 12.521C16.9307 12.7017 17 12.91 17 13.146V15.979C17 16.3543 16.868 16.6183 16.604 16.771C16.34 16.9237 16.104 16.993 15.896 16.979ZM5.312 7.5L6.771 6.042L6.417 4.479H4.542C4.61133 5.007 4.70833 5.521 4.833 6.021C4.95833 6.521 5.118 7.014 5.312 7.5ZM12.479 14.667C12.965 14.861 13.4617 15.017 13.969 15.135C14.4757 15.253 14.986 15.347 15.5 15.417V13.542L13.938 13.208L12.479 14.667Z" fill="#2F80ED"/>
</svg>
