<svg width="30" height="30" viewBox="0 0 30 30" fill="none" xmlns="http://www.w3.org/2000/svg">
<rect x="1" y="1" width="28" height="28" rx="14" fill="#219653" stroke="white" stroke-width="2"/>
<path d="M7.66699 20.792V18.396C7.66699 17.91 7.78499 17.476 8.02099 17.094C8.25699 16.712 8.59033 16.4167 9.02099 16.208C9.81233 15.8333 10.663 15.5313 11.573 15.302C12.483 15.0727 13.424 14.958 14.396 14.958C14.8127 14.958 15.191 14.9753 15.531 15.01C15.8717 15.0447 16.2363 15.097 16.625 15.167L15.062 16.729C14.9513 16.715 14.837 16.708 14.719 16.708H14.396C13.618 16.708 12.8437 16.8053 12.073 17C11.3023 17.1947 10.5487 17.4587 9.81199 17.792C9.67333 17.8613 9.57266 17.948 9.50999 18.052C9.44799 18.156 9.41699 18.2707 9.41699 18.396V19.042H14.438L16.229 20.792H7.66699ZM18.958 21L16.083 18.125L17.292 16.917L18.958 18.583L23.125 14.417L24.333 15.625L18.958 21ZM14.375 14.104C13.4303 14.104 12.6387 13.7847 12 13.146C11.3613 12.5073 11.042 11.7157 11.042 10.771C11.042 9.82632 11.3613 9.03465 12 8.39599C12.6387 7.75732 13.4303 7.43799 14.375 7.43799C15.3197 7.43799 16.1113 7.75732 16.75 8.39599C17.3887 9.03465 17.708 9.82632 17.708 10.771C17.708 11.7157 17.3887 12.5073 16.75 13.146C16.1113 13.7847 15.3197 14.104 14.375 14.104ZM14.375 12.354C14.833 12.354 15.2113 12.2047 15.51 11.906C15.8087 11.6073 15.958 11.229 15.958 10.771C15.958 10.3123 15.8087 9.93366 15.51 9.63499C15.2113 9.33699 14.833 9.18799 14.375 9.18799C13.917 9.18799 13.5387 9.33699 13.24 9.63499C12.9413 9.93366 12.792 10.3123 12.792 10.771C12.792 11.229 12.9413 11.6073 13.24 11.906C13.5387 12.2047 13.917 12.354 14.375 12.354Z" fill="white"/>
</svg>
