<svg width="19" height="19" viewBox="0 0 19 19" fill="none" xmlns="http://www.w3.org/2000/svg">
<rect width="19" height="19" fill="#E0E0E0"/>
<rect width="1920" height="1969" transform="translate(-711 -847)" fill="#F2F2F2"/>
<g filter="url(#filter0_d_0_1)">
<rect x="-611" y="-52" width="850" height="380" rx="15" fill="white"/>
</g>
<mask id="path-2-inside-1_0_1" fill="white">
<path d="M8.62759 0.0506532C7.10678 0.0603154 3.83595 0.290975 1.99771 1.95387C0.629769 3.29044 0.143439 5.27526 0.0736715 7.73261C0.0134292 10.1812 -0.0686256 14.7796 4.36846 16.057L4.35752 17.9642C4.35752 17.9642 4.32531 18.7272 4.83013 18.8866C5.45197 19.0868 5.81005 18.5017 6.40584 17.8743L7.5174 16.6349C10.5568 16.9044 12.8891 16.3364 13.1579 16.2517C13.7761 16.0585 17.2541 15.6353 17.8484 11.0392C18.4583 6.29257 17.6091 3.29485 16.053 1.9322L16.0435 1.93215C15.574 1.49593 13.6852 0.106585 9.44768 0.0671301C9.44768 0.0671301 9.13336 0.0446694 8.62759 0.0506532ZM8.67204 1.38639C9.10375 1.3859 9.36598 1.4057 9.36598 1.4057C12.9527 1.43555 14.6585 2.52202 15.0603 2.88698C16.3708 4.02023 17.034 6.72215 16.5144 10.6849C16.0204 14.5273 13.2002 14.7546 12.6776 14.9176C12.4551 14.9872 10.4009 15.48 7.81761 15.2993C7.81761 15.2993 5.87974 17.6049 5.27467 18.198C5.17873 18.302 5.06722 18.3321 4.99625 18.3163C4.89454 18.291 4.86447 18.165 4.87138 17.9925L4.9079 14.8274C1.14467 13.7664 1.38925 9.84521 1.44127 7.7965C1.49922 5.74782 1.89435 4.07376 3.0485 2.94507C4.60148 1.56053 7.37867 1.38849 8.67085 1.38639L8.67204 1.38639ZM8.94453 3.43636C8.91351 3.43588 8.8827 3.44152 8.85387 3.45296C8.82505 3.4644 8.79878 3.48142 8.77658 3.50304C8.75438 3.52466 8.73669 3.55044 8.72453 3.57891C8.71237 3.60738 8.70598 3.63797 8.70572 3.66891C8.70496 3.80121 8.81214 3.90637 8.94182 3.90711C9.52903 3.89931 10.112 4.00754 10.657 4.22556C11.2021 4.44357 11.6985 4.76706 12.1176 5.17737C12.9732 6.01566 13.3861 7.13791 13.3936 8.60221C13.3929 8.73156 13.4971 8.83965 13.6297 8.8404L13.6298 8.83095C13.6923 8.83147 13.7525 8.80731 13.7972 8.76375C13.842 8.72019 13.8676 8.66076 13.8686 8.59841C13.9013 7.90938 13.7932 7.22091 13.5509 6.57486C13.3085 5.9288 12.937 5.33865 12.4588 4.84027C11.5267 3.92122 10.3415 3.44431 8.94453 3.43636ZM5.82006 3.96023C5.65259 3.93485 5.48144 3.96744 5.33512 4.05257L5.32268 4.0525C4.98298 4.24852 4.67654 4.49698 4.41477 4.78862C4.19719 5.03664 4.0785 5.28818 4.04631 5.53076C4.02712 5.67536 4.03873 5.82014 4.08116 5.9586L4.09651 5.96814C4.3358 6.68302 4.64986 7.37116 5.03461 8.01953C5.52981 8.93017 6.14081 9.77322 6.85247 10.5278L6.87361 10.5586L6.90722 10.5836L6.9284 10.6085L6.95315 10.6299C7.7042 11.3505 8.54442 11.9723 9.45343 12.4805C10.4924 13.0523 11.1233 13.3235 11.5023 13.4367L11.5022 13.4426C11.6134 13.4769 11.7145 13.4928 11.8164 13.4934C12.14 13.4716 12.447 13.3423 12.6884 13.1262C12.9825 12.8684 13.2323 12.5643 13.4279 12.2261L13.428 12.2202C13.6117 11.8799 13.552 11.5564 13.2909 11.3364C12.7682 10.8754 12.2024 10.4653 11.6013 10.1118C11.1987 9.89095 10.7875 10.0209 10.6199 10.2415L10.2626 10.6854C10.0795 10.9058 9.74928 10.8733 9.74928 10.8733L9.73977 10.8791C7.27933 10.2372 6.6363 7.74512 6.6363 7.74512C6.6363 7.74512 6.60745 7.4065 6.83642 7.23533L7.2826 6.88111C7.49618 6.70985 7.64657 6.30197 7.4209 5.89726C7.0758 5.29291 6.67206 4.72382 6.21547 4.19816C6.1157 4.07428 5.97523 3.98958 5.81888 3.95905L5.82006 3.96023ZM9.34718 4.682C9.03273 4.68021 9.03001 5.15391 9.34742 5.15571C9.73838 5.16426 10.1238 5.24957 10.4817 5.40678C10.8396 5.56398 11.1629 5.78998 11.4332 6.07188C11.6797 6.34617 11.8684 6.66701 11.9883 7.01539C12.1081 7.36378 12.1567 7.73261 12.131 8.10005C12.1317 8.16226 12.1569 8.22172 12.201 8.26569C12.2451 8.30965 12.3048 8.33464 12.3671 8.33529L12.3765 8.34775C12.4394 8.34765 12.4996 8.32288 12.5443 8.27882C12.589 8.23475 12.6145 8.17492 12.6154 8.11225C12.6421 7.17384 12.354 6.38485 11.7838 5.75078C11.2107 5.11669 10.4079 4.75832 9.38093 4.68219L9.34718 4.682ZM9.72893 5.95764C9.40506 5.94635 9.38985 6.42942 9.71076 6.4407C10.491 6.4853 10.8677 6.88082 10.9128 7.69029C10.9136 7.75172 10.9384 7.81042 10.982 7.85383C11.0255 7.89724 11.0844 7.92191 11.146 7.92256L11.1555 7.92262C11.1872 7.92144 11.2183 7.91399 11.247 7.90069C11.2758 7.88739 11.3016 7.86851 11.323 7.84515C11.3443 7.82179 11.3608 7.79443 11.3714 7.76465C11.3821 7.73487 11.3867 7.70327 11.3849 7.67171C11.3353 6.6165 10.762 6.01904 9.7384 5.95828L9.72893 5.95764Z"/>
</mask>
<path d="M8.62759 0.0506532C7.10678 0.0603154 3.83595 0.290975 1.99771 1.95387C0.629769 3.29044 0.143439 5.27526 0.0736715 7.73261C0.0134292 10.1812 -0.0686256 14.7796 4.36846 16.057L4.35752 17.9642C4.35752 17.9642 4.32531 18.7272 4.83013 18.8866C5.45197 19.0868 5.81005 18.5017 6.40584 17.8743L7.5174 16.6349C10.5568 16.9044 12.8891 16.3364 13.1579 16.2517C13.7761 16.0585 17.2541 15.6353 17.8484 11.0392C18.4583 6.29257 17.6091 3.29485 16.053 1.9322L16.0435 1.93215C15.574 1.49593 13.6852 0.106585 9.44768 0.0671301C9.44768 0.0671301 9.13336 0.0446694 8.62759 0.0506532ZM8.67204 1.38639C9.10375 1.3859 9.36598 1.4057 9.36598 1.4057C12.9527 1.43555 14.6585 2.52202 15.0603 2.88698C16.3708 4.02023 17.034 6.72215 16.5144 10.6849C16.0204 14.5273 13.2002 14.7546 12.6776 14.9176C12.4551 14.9872 10.4009 15.48 7.81761 15.2993C7.81761 15.2993 5.87974 17.6049 5.27467 18.198C5.17873 18.302 5.06722 18.3321 4.99625 18.3163C4.89454 18.291 4.86447 18.165 4.87138 17.9925L4.9079 14.8274C1.14467 13.7664 1.38925 9.84521 1.44127 7.7965C1.49922 5.74782 1.89435 4.07376 3.0485 2.94507C4.60148 1.56053 7.37867 1.38849 8.67085 1.38639L8.67204 1.38639ZM8.94453 3.43636C8.91351 3.43588 8.8827 3.44152 8.85387 3.45296C8.82505 3.4644 8.79878 3.48142 8.77658 3.50304C8.75438 3.52466 8.73669 3.55044 8.72453 3.57891C8.71237 3.60738 8.70598 3.63797 8.70572 3.66891C8.70496 3.80121 8.81214 3.90637 8.94182 3.90711C9.52903 3.89931 10.112 4.00754 10.657 4.22556C11.2021 4.44357 11.6985 4.76706 12.1176 5.17737C12.9732 6.01566 13.3861 7.13791 13.3936 8.60221C13.3929 8.73156 13.4971 8.83965 13.6297 8.8404L13.6298 8.83095C13.6923 8.83147 13.7525 8.80731 13.7972 8.76375C13.842 8.72019 13.8676 8.66076 13.8686 8.59841C13.9013 7.90938 13.7932 7.22091 13.5509 6.57486C13.3085 5.9288 12.937 5.33865 12.4588 4.84027C11.5267 3.92122 10.3415 3.44431 8.94453 3.43636ZM5.82006 3.96023C5.65259 3.93485 5.48144 3.96744 5.33512 4.05257L5.32268 4.0525C4.98298 4.24852 4.67654 4.49698 4.41477 4.78862C4.19719 5.03664 4.0785 5.28818 4.04631 5.53076C4.02712 5.67536 4.03873 5.82014 4.08116 5.9586L4.09651 5.96814C4.3358 6.68302 4.64986 7.37116 5.03461 8.01953C5.52981 8.93017 6.14081 9.77322 6.85247 10.5278L6.87361 10.5586L6.90722 10.5836L6.9284 10.6085L6.95315 10.6299C7.7042 11.3505 8.54442 11.9723 9.45343 12.4805C10.4924 13.0523 11.1233 13.3235 11.5023 13.4367L11.5022 13.4426C11.6134 13.4769 11.7145 13.4928 11.8164 13.4934C12.14 13.4716 12.447 13.3423 12.6884 13.1262C12.9825 12.8684 13.2323 12.5643 13.4279 12.2261L13.428 12.2202C13.6117 11.8799 13.552 11.5564 13.2909 11.3364C12.7682 10.8754 12.2024 10.4653 11.6013 10.1118C11.1987 9.89095 10.7875 10.0209 10.6199 10.2415L10.2626 10.6854C10.0795 10.9058 9.74928 10.8733 9.74928 10.8733L9.73977 10.8791C7.27933 10.2372 6.6363 7.74512 6.6363 7.74512C6.6363 7.74512 6.60745 7.4065 6.83642 7.23533L7.2826 6.88111C7.49618 6.70985 7.64657 6.30197 7.4209 5.89726C7.0758 5.29291 6.67206 4.72382 6.21547 4.19816C6.1157 4.07428 5.97523 3.98958 5.81888 3.95905L5.82006 3.96023ZM9.34718 4.682C9.03273 4.68021 9.03001 5.15391 9.34742 5.15571C9.73838 5.16426 10.1238 5.24957 10.4817 5.40678C10.8396 5.56398 11.1629 5.78998 11.4332 6.07188C11.6797 6.34617 11.8684 6.66701 11.9883 7.01539C12.1081 7.36378 12.1567 7.73261 12.131 8.10005C12.1317 8.16226 12.1569 8.22172 12.201 8.26569C12.2451 8.30965 12.3048 8.33464 12.3671 8.33529L12.3765 8.34775C12.4394 8.34765 12.4996 8.32288 12.5443 8.27882C12.589 8.23475 12.6145 8.17492 12.6154 8.11225C12.6421 7.17384 12.354 6.38485 11.7838 5.75078C11.2107 5.11669 10.4079 4.75832 9.38093 4.68219L9.34718 4.682ZM9.72893 5.95764C9.40506 5.94635 9.38985 6.42942 9.71076 6.4407C10.491 6.4853 10.8677 6.88082 10.9128 7.69029C10.9136 7.75172 10.9384 7.81042 10.982 7.85383C11.0255 7.89724 11.0844 7.92191 11.146 7.92256L11.1555 7.92262C11.1872 7.92144 11.2183 7.91399 11.247 7.90069C11.2758 7.88739 11.3016 7.86851 11.323 7.84515C11.3443 7.82179 11.3608 7.79443 11.3714 7.76465C11.3821 7.73487 11.3867 7.70327 11.3849 7.67171C11.3353 6.6165 10.762 6.01904 9.7384 5.95828L9.72893 5.95764Z" stroke="#BDBDBD" stroke-width="2" mask="url(#path-2-inside-1_0_1)"/>
<defs>
<filter id="filter0_d_0_1" x="-625" y="-66" width="878" height="408" filterUnits="userSpaceOnUse" color-interpolation-filters="sRGB">
<feFlood flood-opacity="0" result="BackgroundImageFix"/>
<feColorMatrix in="SourceAlpha" type="matrix" values="0 0 0 0 0 0 0 0 0 0 0 0 0 0 0 0 0 0 127 0" result="hardAlpha"/>
<feOffset/>
<feGaussianBlur stdDeviation="7"/>
<feComposite in2="hardAlpha" operator="out"/>
<feColorMatrix type="matrix" values="0 0 0 0 0 0 0 0 0 0 0 0 0 0 0 0 0 0 0.05 0"/>
<feBlend mode="normal" in2="BackgroundImageFix" result="effect1_dropShadow_0_1"/>
<feBlend mode="normal" in="SourceGraphic" in2="effect1_dropShadow_0_1" result="shape"/>
</filter>
</defs>
</svg>
