<svg width="30" height="30" viewBox="0 0 30 30" fill="none" xmlns="http://www.w3.org/2000/svg">
<rect x="1" y="1" width="28" height="28" rx="14" fill="#2D9CDB" stroke="white" stroke-width="2"/>
<path d="M11 17H17V16.562C17 16.0207 16.7257 15.5833 16.177 15.25C15.6283 14.9167 14.9027 14.75 14 14.75C13.1113 14.75 12.389 14.9167 11.833 15.25C11.2777 15.5833 11 16.0207 11 16.562V17ZM14 14C14.4167 14 14.7707 13.8507 15.062 13.552C15.354 13.2533 15.5 12.9027 15.5 12.5C15.5 12.0833 15.354 11.7293 15.062 11.438C14.7707 11.146 14.4167 11 14 11C13.5973 11 13.2467 11.146 12.948 11.438C12.6493 11.7293 12.5 12.0833 12.5 12.5C12.5 12.9027 12.6493 13.2533 12.948 13.552C13.2467 13.8507 13.5973 14 14 14ZM9.5 20C9.09733 20 8.74667 19.8507 8.448 19.552C8.14933 19.2533 8 18.9027 8 18.5V9.5C8 9.08333 8.14933 8.72933 8.448 8.438C8.74667 8.146 9.09733 8 9.5 8H18.5C18.9167 8 19.2707 8.146 19.562 8.438C19.854 8.72933 20 9.08333 20 9.5V13L23 10V18L20 15V18.5C20 18.9027 19.854 19.2533 19.562 19.552C19.2707 19.8507 18.9167 20 18.5 20H9.5ZM9.5 18.5H18.5V9.5H9.5V18.5ZM9.5 18.5V9.5V18.5Z" fill="white"/>
</svg>
