<svg width="18" height="18" viewBox="0 0 18 18" fill="none" xmlns="http://www.w3.org/2000/svg">
<path d="M9.00787 0.994141C7.6187 0.995625 6.25383 1.35681 5.04745 2.0422C3.84108 2.72758 2.83473 3.71356 2.12736 4.90319C1.41999 6.09282 1.03595 7.44515 1.01299 8.82722C0.990038 10.2093 1.32896 11.5735 1.99643 12.7857L1.01074 16.9087L5.15437 15.9279C6.2231 16.5113 7.41172 16.8438 8.62938 16.9001C9.84704 16.9565 11.0615 16.735 12.18 16.2528C13.2985 15.7706 14.2914 15.0404 15.0829 14.1179C15.8743 13.1954 16.4434 12.1051 16.7465 10.9303C17.0497 9.75551 17.0789 8.5273 16.832 7.33954C16.585 6.15178 16.0685 5.0359 15.3218 4.07718C14.5751 3.11847 13.6181 2.34228 12.5238 1.80794C11.4294 1.27359 10.2268 0.995237 9.00787 0.994141ZM5.00931 4.61008H7.18899C7.28764 4.61008 7.38225 4.64908 7.452 4.71848C7.52176 4.78789 7.56095 4.88203 7.56095 4.98019C7.54875 5.47376 7.63209 5.96507 7.80644 6.42731C7.88152 6.58204 7.89803 6.75852 7.85294 6.92439C7.80785 7.09026 7.70419 7.23439 7.56095 7.33037L6.79843 8.07058C7.13653 8.72754 7.57861 9.32612 8.10773 9.84339C8.62339 10.3785 9.22252 10.8271 9.88198 11.1721L10.6259 10.4134C10.9979 10.0432 11.169 10.0432 11.5335 10.1691C11.998 10.3426 12.4918 10.4255 12.9878 10.4134C13.085 10.4179 13.177 10.4583 13.2458 10.5268C13.3146 10.5952 13.3553 10.6868 13.3598 10.7835V12.9523C13.3553 13.049 13.3146 13.1405 13.2458 13.209C13.177 13.2775 13.085 13.3179 12.9878 13.3224C10.7998 13.2275 8.7258 12.325 7.17039 10.7909C5.62615 9.24484 4.71867 7.18017 4.62619 5.0024C4.62707 4.90052 4.66738 4.80291 4.73873 4.72984C4.81009 4.65678 4.90699 4.61389 5.00931 4.61008Z" stroke="#BDBDBD" stroke-linecap="round" stroke-linejoin="round"/>
</svg>
