<svg width="24" height="24" viewBox="0 0 24 24" fill="none" xmlns="http://www.w3.org/2000/svg">
<path fill-rule="evenodd" clip-rule="evenodd" d="M3 12C3 11.7016 3.11853 11.4154 3.32951 11.2045C3.54048 10.9935 3.82663 10.875 4.125 10.875H17.1593L12.3285 6.04646C12.1173 5.83521 11.9986 5.5487 11.9986 5.24996C11.9986 4.95121 12.1173 4.6647 12.3285 4.45346C12.5397 4.24221 12.8263 4.12354 13.125 4.12354C13.4237 4.12354 13.7103 4.24221 13.9215 4.45346L20.6715 11.2035C20.7763 11.308 20.8594 11.4321 20.9161 11.5688C20.9728 11.7055 21.002 11.852 21.002 12C21.002 12.1479 20.9728 12.2945 20.9161 12.4311C20.8594 12.5678 20.7763 12.692 20.6715 12.7965L13.9215 19.5465C13.7103 19.7577 13.4237 19.8764 13.125 19.8764C12.8263 19.8764 12.5397 19.7577 12.3285 19.5465C12.1173 19.3352 11.9986 19.0487 11.9986 18.75C11.9986 18.4512 12.1173 18.1647 12.3285 17.9535L17.1593 13.125H4.125C3.82663 13.125 3.54048 13.0064 3.32951 12.7955C3.11853 12.5845 3 12.2983 3 12Z" fill="#D30E0E"/>
</svg>
