<svg width="20" height="20" viewBox="0 0 20 20" fill="none" xmlns="http://www.w3.org/2000/svg">
<g clip-path="url(#clip0_13_34)">
<path d="M14.7149 14.4357C13.8688 14.0786 13.0939 13.5957 12.4164 13.0032C12.0862 12.7088 11.5611 12.6294 11.2236 12.7718L9.17461 13.289C7.77858 11.5664 7.13692 9.98827 6.94302 7.7993L8.72026 6.76645C9.14073 6.59591 9.42895 6.20919 9.47272 5.75067C9.54547 4.84901 9.76322 3.96264 10.1205 3.1162C10.3786 2.50474 10.0911 1.7973 9.47968 1.53923L6.94179 0.468043C6.33035 0.209969 5.62292 0.497465 5.36484 1.1089C2.40663 8.1176 5.7019 16.2261 12.7106 19.1843C13.322 19.4424 14.0295 19.1549 14.2875 18.5435L15.3557 16.0127C15.6138 15.4012 15.3263 14.6938 14.7149 14.4357Z" fill="#0C88CE"/>
</g>
<defs>
<clipPath id="clip0_13_34">
<rect width="15" height="15" fill="white" transform="translate(5.83289) rotate(22.8835)"/>
</clipPath>
</defs>
</svg>
