<svg width="25" height="24" viewBox="0 0 25 24" fill="none" xmlns="http://www.w3.org/2000/svg">
<path d="M24.489 0.438873C23.9039 -0.146291 22.9654 -0.146291 22.3802 0.438873L12.9293 9.88982L3.47833 0.438873C2.89317 -0.146291 1.9547 -0.146291 1.36954 0.438873C0.784373 1.02404 0.784373 1.96251 1.36954 2.54767L10.8205 11.9986L1.36954 21.4496C0.784373 22.0347 0.784373 22.9732 1.36954 23.5584C1.6566 23.8454 2.04303 24 2.41842 24C2.7938 24 3.18023 23.8565 3.46729 23.5584L12.9182 14.1074L22.3692 23.5584C22.6562 23.8454 23.0427 24 23.4181 24C23.8045 24 24.1799 23.8565 24.4669 23.5584C25.0521 22.9732 25.0521 22.0347 24.4669 21.4496L15.0381 11.9986L24.489 2.54767C25.0742 1.96251 25.0742 1.02404 24.489 0.438873Z" fill="#0C88CE"/>
</svg>
