<svg width="189" height="47" viewBox="0 0 189 47" fill="none" xmlns="http://www.w3.org/2000/svg">
<g clip-path="url(#clip0_13_256)">
<path fill-rule="evenodd" clip-rule="evenodd" d="M32.1203 3.29672C32.1203 5.95045 32.8494 7.21413 36.9883 7.21413H40.2075V24.4401C40.2075 29.7586 35.99 35.0151 33.4753 37.6755C29.8679 41.4931 25.2466 44.8474 21.4173 46.4281L20.1767 46.9402L18.9361 46.4281C15.1067 44.8452 10.4854 41.4931 6.87811 37.6755C4.36331 35.0151 0.145813 29.7586 0.145813 24.4401V7.21413H3.36502C7.504 7.21413 8.23309 5.95045 8.23309 3.29672V0.115356H32.1203V3.29672ZM32.5375 36.8041C34.9222 34.2812 38.9221 29.3196 38.9221 24.4378V8.48442H36.9906C31.8825 8.48442 30.8348 6.40932 30.8348 3.29446V1.38564H9.523V3.29446C9.523 6.40932 8.47535 8.48442 3.36725 8.48442H1.43572V24.4378C1.43572 29.3196 5.43561 34.2812 7.82029 36.8041C11.3109 40.4976 15.7617 43.7344 19.4341 45.2508L20.1789 45.559L20.9237 45.2508C24.5961 43.7344 29.0469 40.4976 32.5375 36.8041Z" fill="#3F3E45"/>
<path d="M28.901 3.29663H28.8921C23.1648 3.29663 11.4545 3.29663 11.4545 3.29663C11.4545 8.44668 8.42376 10.3954 3.36725 10.3954C3.36725 11.2977 3.36725 13.0137 3.36725 14.9557C8.60996 14.9557 20.1654 14.9557 21.8098 14.9557C21.2355 15.3903 18.8239 17.7425 18.8239 17.7425C16.8632 19.6247 18.2407 22.1964 20.4077 22.1964C21.1144 22.1964 21.8053 21.937 22.2361 21.5224L24.2259 19.6668L26.9695 22.2895C26.9695 22.2895 29.435 24.6351 29.4462 24.6462C29.998 25.2137 30.3996 25.779 29.8275 26.4641C29.6077 26.7279 28.9459 26.9563 28.4636 26.5195C28.0015 26.1027 27.5124 25.7236 27.5124 25.7236C27.0615 25.3268 26.458 26.003 26.909 26.3954C26.909 26.3954 27.6134 27.005 27.8422 27.2156C28.3514 27.6856 28.1383 28.3441 27.8534 28.6256C27.6044 28.8717 26.9897 29.0424 26.5388 28.6367C26.2808 28.4039 25.5024 27.7145 25.5024 27.7145C25.0537 27.3154 24.448 27.9849 24.8944 28.3818L25.7357 29.1732C26.2786 29.6654 26.2337 30.2418 25.8636 30.6209C25.4732 31.0222 24.9101 31.0266 24.3179 30.5079C24.0891 30.3061 23.5282 29.712 23.5282 29.712C23.1065 29.2819 22.4581 29.9093 22.8732 30.3349C23.1962 30.663 24.4211 31.7028 23.618 32.4588C23.0055 33.0352 22.3258 32.7603 21.7694 32.2105L20.816 31.3791L21.4172 30.7961C22.6511 29.5767 21.8435 27.4174 19.9927 27.4174C19.9927 27.4107 19.9949 27.4063 19.9949 27.3997C19.9949 26.3355 19.1559 25.4288 17.9804 25.4288C17.9916 24.3668 17.1616 23.4401 15.9704 23.4401C15.9704 23.4335 15.9726 23.429 15.9726 23.4224C15.9726 21.5867 13.7225 20.8418 12.5381 22.0124C10.1915 24.2937 10.3082 24.1939 10.0659 24.4355H3.36949C3.36949 31.3348 13.4062 40.6905 20.1811 43.4861C26.9561 40.6905 36.9928 31.3326 36.9928 24.4355H30.8191L24.6746 18.4519C24.457 18.2369 24.1048 18.2258 23.8715 18.4275C21.2938 20.7997 21.2355 21.0258 20.4167 21.0258C19.2861 21.0258 18.4784 19.7089 19.6562 18.5783C19.6562 18.5783 21.9175 16.4101 22.2271 16.1197C22.8844 15.5033 23.9298 14.9557 25.0268 14.9557H36.995C36.995 13.0137 36.995 11.2977 36.995 10.3954C31.9318 10.3954 28.901 8.44446 28.901 3.29663ZM10.8892 26.5506C10.5662 26.2291 10.5662 25.7081 10.8892 25.3888L13.3681 22.8438C13.6911 22.5245 14.2183 22.5201 14.5436 22.8438C14.8756 23.1719 14.8599 23.6929 14.5481 24.0032L12.067 26.5506C11.7506 26.8609 11.2033 26.8609 10.8892 26.5506ZM12.9015 28.5392C12.5762 28.2177 12.5762 27.6967 12.9015 27.3753L15.3781 24.8324C15.7012 24.5109 16.2306 24.5109 16.5537 24.8324C16.8789 25.1539 16.8789 25.6748 16.5581 25.9919L14.077 28.5392C13.7629 28.8496 13.2156 28.8496 12.9015 28.5392ZM14.9138 30.5278C14.5885 30.2086 14.5885 29.6876 14.9138 29.3661L17.3927 26.8232C17.7135 26.5062 18.2384 26.4973 18.5682 26.8232C18.8979 27.1491 18.8867 27.6701 18.5727 27.9805L16.0915 30.5278C15.7752 30.8382 15.2278 30.8382 14.9138 30.5278ZM18.1016 32.5164C17.7875 32.8268 17.2401 32.8268 16.9261 32.5164C16.6008 32.195 16.603 31.674 16.9261 31.3547L19.4049 28.8119C19.7325 28.4904 20.2574 28.4926 20.5805 28.8119C20.9057 29.1333 20.9058 29.6543 20.585 29.9713L18.1016 32.5164Z" fill="#3F3E45"/>
</g>
<path d="M61.0093 25.76V23.3429H50.0314V8.84004H52.7709V20.9258H59.3777V9.24289H62.1172V20.9258H63.7487V25.76H61.0093ZM65.355 23.3429V8.84004H74.8221V11.3982H68.0944V14.5002H73.6135V17.0583H68.0944V20.7848H74.8221V23.3429H65.355ZM77.2361 23.3429V8.84004H79.9755V14.8023H86.4615V8.84004H89.201V23.3429H86.4615V17.3605H79.9755V23.3429H77.2361ZM95.3924 23.3429V11.3982H90.8199V8.84004H102.704V11.3982H98.1318V23.3429H95.3924ZM104.323 23.3429V8.84004H110.446C110.587 8.84004 110.775 8.84675 111.01 8.86018C111.252 8.8669 111.467 8.88704 111.655 8.92061C112.521 9.0549 113.229 9.34025 113.78 9.77668C114.337 10.2131 114.747 10.7637 115.009 11.4284C115.27 12.0864 115.401 12.8216 115.401 13.634C115.401 14.4465 115.267 15.185 114.998 15.8498C114.737 16.5078 114.327 17.055 113.77 17.4914C113.219 17.9278 112.514 18.2132 111.655 18.3475C111.467 18.3743 111.252 18.3945 111.01 18.4079C110.768 18.4213 110.58 18.428 110.446 18.428H107.062V23.3429H104.323ZM107.062 15.8699H110.325C110.466 15.8699 110.621 15.8632 110.789 15.8498C110.956 15.8363 111.111 15.8095 111.252 15.7692C111.621 15.6685 111.907 15.5006 112.108 15.2656C112.309 15.0239 112.447 14.7587 112.521 14.47C112.601 14.1745 112.642 13.8959 112.642 13.634C112.642 13.3722 112.601 13.0969 112.521 12.8082C112.447 12.5128 112.309 12.2475 112.108 12.0125C111.907 11.7708 111.621 11.5996 111.252 11.4989C111.111 11.4586 110.956 11.4318 110.789 11.4183C110.621 11.4049 110.466 11.3982 110.325 11.3982H107.062V15.8699ZM121.456 23.3429V8.84004H133.421V23.3429H130.681V11.3982H124.195V23.3429H121.456ZM136.248 23.3429V8.84004H142.372C142.513 8.84004 142.701 8.84675 142.936 8.86018C143.178 8.8669 143.392 8.88704 143.58 8.92061C144.447 9.0549 145.155 9.34025 145.705 9.77668C146.263 10.2131 146.672 10.7637 146.934 11.4284C147.196 12.0864 147.327 12.8216 147.327 13.634C147.327 14.4465 147.193 15.185 146.924 15.8498C146.662 16.5078 146.253 17.055 145.695 17.4914C145.145 17.9278 144.44 18.2132 143.58 18.3475C143.392 18.3743 143.178 18.3945 142.936 18.4079C142.694 18.4213 142.506 18.428 142.372 18.428H138.988V23.3429H136.248ZM138.988 15.8699H142.251C142.392 15.8699 142.546 15.8632 142.714 15.8498C142.882 15.8363 143.037 15.8095 143.178 15.7692C143.547 15.6685 143.832 15.5006 144.034 15.2656C144.235 15.0239 144.373 14.7587 144.447 14.47C144.527 14.1745 144.567 13.8959 144.567 13.634C144.567 13.3722 144.527 13.0969 144.447 12.8082C144.373 12.5128 144.235 12.2475 144.034 12.0125C143.832 11.7708 143.547 11.5996 143.178 11.4989C143.037 11.4586 142.882 11.4318 142.714 11.4183C142.546 11.4049 142.392 11.3982 142.251 11.3982H138.988V15.8699ZM147.142 23.3429L151.573 8.84004H155.662L160.094 23.3429H157.274L153.326 10.5522H153.85L149.962 23.3429H147.142ZM149.801 20.3215V17.7633H157.455V20.3215H149.801ZM161.899 23.3429V8.84004H167.7C168.734 8.84004 169.57 9.04818 170.208 9.46447C170.846 9.87404 171.312 10.391 171.608 11.0155C171.903 11.6399 172.051 12.271 172.051 12.9089C172.051 13.7213 171.866 14.3961 171.497 14.9333C171.135 15.4704 170.634 15.8296 169.996 16.0109V15.5073C170.903 15.6953 171.581 16.115 172.031 16.7663C172.487 17.4175 172.716 18.146 172.716 18.9518C172.716 19.8179 172.555 20.58 172.232 21.238C171.917 21.896 171.433 22.413 170.782 22.789C170.131 23.1583 169.312 23.3429 168.325 23.3429H161.899ZM164.679 20.7646H168.043C168.412 20.7646 168.741 20.6874 169.03 20.533C169.318 20.3718 169.543 20.1503 169.704 19.8683C169.872 19.5795 169.956 19.2405 169.956 18.851C169.956 18.5086 169.886 18.2031 169.745 17.9345C169.604 17.666 169.389 17.4545 169.1 17.3C168.818 17.1389 168.466 17.0583 168.043 17.0583H164.679V20.7646ZM164.679 14.5002H167.66C167.969 14.5002 168.244 14.4465 168.486 14.339C168.727 14.2316 168.919 14.0671 169.06 13.8455C169.201 13.6173 169.271 13.3252 169.271 12.9693C169.271 12.5262 169.134 12.1535 168.858 11.8514C168.583 11.5493 168.184 11.3982 167.66 11.3982H164.679V14.5002ZM173.717 23.3429L178.149 8.84004H182.238L186.669 23.3429H183.849L179.901 10.5522H180.425L176.537 23.3429H173.717ZM176.376 20.3215V17.7633H184.03V20.3215H176.376Z" fill="#3F3E45"/>
<path d="M50.2497 37.2V31.3988H50.8419V34.0053H52.4211V34.5935H50.8419V37.2H50.2497ZM54.5079 37.3208C54.1239 37.3208 53.7855 37.2416 53.4927 37.0831C53.2027 36.9247 52.961 36.7071 52.7676 36.4305C52.5742 36.1512 52.4278 35.8289 52.3285 35.4636C52.2318 35.0984 52.1834 34.7103 52.1834 34.2994C52.1834 33.8858 52.2318 33.4977 52.3285 33.1351C52.4278 32.7726 52.5742 32.453 52.7676 32.1763C52.961 31.897 53.2027 31.6781 53.4927 31.5197C53.7855 31.3612 54.1239 31.282 54.5079 31.282C54.8947 31.282 55.2331 31.3612 55.5231 31.5197C55.8159 31.6781 56.0589 31.897 56.2523 32.1763C56.4457 32.453 56.5907 32.7726 56.6874 33.1351C56.7868 33.4977 56.8364 33.8858 56.8364 34.2994C56.8364 34.7237 56.7868 35.1199 56.6874 35.4878C56.5907 35.8531 56.4457 36.174 56.2523 36.4506C56.0589 36.7246 55.8159 36.9381 55.5231 37.0912C55.2331 37.2443 54.8947 37.3208 54.5079 37.3208ZM54.5079 36.7528C54.7926 36.7528 55.0397 36.6883 55.2492 36.5594C55.4614 36.4305 55.6373 36.2532 55.7769 36.0276C55.9193 35.802 56.0254 35.5415 56.0952 35.2461C56.1677 34.948 56.2053 34.6324 56.208 34.2994C56.2107 33.9664 56.1758 33.6521 56.1032 33.3567C56.0334 33.0613 55.9273 32.8008 55.785 32.5752C55.6453 32.3496 55.4681 32.1736 55.2532 32.0474C55.041 31.9185 54.7926 31.854 54.5079 31.854C54.2259 31.854 53.9788 31.9185 53.7667 32.0474C53.5572 32.1736 53.3813 32.3496 53.2389 32.5752C53.0993 32.8008 52.9932 33.0613 52.9207 33.3567C52.8508 33.6521 52.8146 33.9664 52.8119 34.2994C52.8092 34.6324 52.8428 34.948 52.9126 35.2461C52.9824 35.5415 53.0885 35.802 53.2309 36.0276C53.3732 36.2532 53.5505 36.4305 53.7626 36.5594C53.9775 36.6883 54.2259 36.7528 54.5079 36.7528ZM59.7609 37.3208C59.3608 37.3208 59.0224 37.2201 58.7457 37.0187C58.4691 36.8146 58.2596 36.5393 58.1173 36.1928C57.9749 35.8437 57.9038 35.4529 57.9038 35.0205C57.9038 34.58 57.9749 34.1879 58.1173 33.8442C58.2623 33.4977 58.4745 33.2251 58.7538 33.0264C59.0331 32.8276 59.3769 32.7282 59.7851 32.7282C60.1826 32.7282 60.5237 32.829 60.8084 33.0304C61.093 33.2318 61.3106 33.5058 61.461 33.8522C61.6141 34.1987 61.6906 34.5881 61.6906 35.0205C61.6906 35.4556 61.6141 35.8464 61.461 36.1928C61.3079 36.5393 61.0877 36.8146 60.8003 37.0187C60.5129 37.2201 60.1665 37.3208 59.7609 37.3208ZM57.803 39.1337V32.8491H58.3348V36.1243H58.3993V39.1337H57.803ZM59.7005 36.7689C60.004 36.7689 60.2564 36.6924 60.4579 36.5393C60.6593 36.3862 60.8097 36.178 60.9091 35.9148C61.0111 35.649 61.0622 35.3508 61.0622 35.0205C61.0622 34.6928 61.0125 34.3974 60.9131 34.1342C60.8137 33.871 60.662 33.6629 60.4579 33.5098C60.2564 33.3567 60 33.2802 59.6884 33.2802C59.3849 33.2802 59.1325 33.354 58.931 33.5017C58.7323 33.6494 58.5832 33.8549 58.4839 34.1181C58.3845 34.3786 58.3348 34.6794 58.3348 35.0205C58.3348 35.3562 58.3845 35.657 58.4839 35.9229C58.5832 36.1861 58.7336 36.3929 58.9351 36.5433C59.1365 36.6937 59.3916 36.7689 59.7005 36.7689ZM66.1929 32.8491V37.2H65.6168V33.8119L63.2319 37.2H62.7324V32.8491H63.3085V36.2089L65.6974 32.8491H66.1929ZM67.1625 38.1668V36.6924C67.4096 36.6924 67.5868 36.6131 67.6943 36.4547C67.8017 36.2935 67.889 36.037 67.9561 35.6852C68.0018 35.4569 68.0394 35.2112 68.0689 34.948C68.0985 34.6848 68.124 34.384 68.1455 34.0456C68.1669 33.7045 68.1871 33.3057 68.2059 32.8491H71.0823V36.6924H71.5013V38.1668H70.9292V37.2H67.7305V38.1668H67.1625ZM68.1656 36.6924H70.4941V33.3567H68.7538C68.7457 33.5608 68.7336 33.777 68.7175 34.0053C68.7041 34.2336 68.6866 34.4619 68.6651 34.6902C68.6463 34.9184 68.6235 35.1333 68.5967 35.3347C68.5725 35.5335 68.5429 35.708 68.508 35.8584C68.4677 36.0518 68.4234 36.217 68.3751 36.354C68.3294 36.4909 68.2596 36.6037 68.1656 36.6924ZM75.9257 32.8491V37.2H75.3496V33.8119L72.9647 37.2H72.4652V32.8491H73.0412V36.2089L75.4302 32.8491H75.9257ZM79.8804 37.2V35.5805C79.7354 35.653 79.5568 35.7161 79.3446 35.7698C79.1325 35.8235 78.9042 35.8504 78.6598 35.8504C78.2193 35.8504 77.8621 35.7524 77.5882 35.5563C77.3142 35.3602 77.1356 35.0769 77.0524 34.7063C77.0255 34.5962 77.0067 34.4793 76.996 34.3558C76.9879 34.2322 76.9826 34.1208 76.9799 34.0214C76.9772 33.922 76.9758 33.8509 76.9758 33.8079V32.8491H77.5721V33.8079C77.5721 33.8965 77.5748 33.9972 77.5801 34.11C77.5855 34.2228 77.5976 34.333 77.6164 34.4404C77.6701 34.7331 77.791 34.9547 77.979 35.1051C78.1696 35.2555 78.4369 35.3307 78.7806 35.3307C78.9955 35.3307 79.1983 35.3038 79.389 35.2501C79.5823 35.1937 79.7462 35.1185 79.8804 35.0245V32.8491H80.4726V37.2H79.8804ZM83.6024 37.3208C83.1781 37.3208 82.8101 37.2268 82.4986 37.0388C82.1897 36.8508 81.9493 36.5863 81.7775 36.2452C81.6056 35.9041 81.5196 35.5039 81.5196 35.0447C81.5196 34.5693 81.6042 34.1584 81.7734 33.8119C81.9426 33.4655 82.1803 33.1982 82.4865 33.0102C82.7953 32.8222 83.1593 32.7282 83.5782 32.7282C84.0079 32.7282 84.3745 32.8276 84.678 33.0264C84.9815 33.2224 85.2111 33.5044 85.3669 33.8724C85.5227 34.2403 85.5939 34.6794 85.5804 35.1897H84.9761V34.9802C84.9654 34.4162 84.8432 33.9905 84.6095 33.7032C84.3786 33.4158 84.0402 33.2721 83.5943 33.2721C83.127 33.2721 82.7685 33.4238 82.5187 33.7273C82.2716 34.0308 82.1481 34.4632 82.1481 35.0245C82.1481 35.5724 82.2716 35.9981 82.5187 36.3016C82.7685 36.6024 83.1217 36.7528 83.5782 36.7528C83.8898 36.7528 84.161 36.6816 84.392 36.5393C84.6257 36.3942 84.8096 36.1861 84.9439 35.9148L85.4958 36.1284C85.3239 36.507 85.0701 36.8011 84.7344 37.0106C84.4014 37.2174 84.0241 37.3208 83.6024 37.3208ZM81.9386 35.1897V34.6942H85.2622V35.1897H81.9386ZM88.4404 37.3208C88.0026 37.3208 87.632 37.2228 87.3285 37.0267C87.025 36.8307 86.7941 36.5608 86.6356 36.217C86.4798 35.8705 86.3993 35.473 86.3939 35.0245C86.3993 34.568 86.4825 34.1678 86.6437 33.824C86.8048 33.4776 87.0371 33.209 87.3406 33.0183C87.6441 32.8249 88.012 32.7282 88.4444 32.7282C88.8849 32.7282 89.2676 32.8357 89.5926 33.0505C89.9202 33.2654 90.1445 33.5595 90.2653 33.9328L89.6852 34.1181C89.5832 33.8576 89.4207 33.6562 89.1978 33.5138C88.9775 33.3688 88.7251 33.2963 88.4404 33.2963C88.1208 33.2963 87.8563 33.3701 87.6468 33.5178C87.4373 33.6629 87.2815 33.8656 87.1795 34.1262C87.0774 34.3867 87.025 34.6861 87.0223 35.0245C87.0277 35.5456 87.1486 35.9645 87.3849 36.2814C87.6213 36.5957 87.9731 36.7528 88.4404 36.7528C88.7358 36.7528 88.9869 36.6856 89.1937 36.5514C89.4032 36.4144 89.5617 36.2156 89.6691 35.9551L90.2653 36.1324C90.1042 36.5191 89.8679 36.8146 89.5563 37.0187C89.2448 37.2201 88.8728 37.3208 88.4404 37.3208ZM91.254 37.2L91.2581 32.8491H91.8543V34.944L93.7961 32.8491H94.5857L92.5472 35.0245L94.8516 37.2H93.9894L91.8543 35.1051V37.2H91.254ZM98.8728 32.8491V37.2H98.2967V33.8119L95.9118 37.2H95.4123V32.8491H95.9884V36.2089L98.3773 32.8491H98.8728ZM102.006 37.3208C101.581 37.3208 101.213 37.2268 100.902 37.0388C100.593 36.8508 100.353 36.5863 100.181 36.2452C100.009 35.9041 99.923 35.5039 99.923 35.0447C99.923 34.5693 100.008 34.1584 100.177 33.8119C100.346 33.4655 100.584 33.1982 100.89 33.0102C101.199 32.8222 101.563 32.7282 101.982 32.7282C102.411 32.7282 102.778 32.8276 103.081 33.0264C103.385 33.2224 103.614 33.5044 103.77 33.8724C103.926 34.2403 103.997 34.6794 103.984 35.1897H103.379V34.9802C103.369 34.4162 103.247 33.9905 103.013 33.7032C102.782 33.4158 102.443 33.2721 101.998 33.2721C101.53 33.2721 101.172 33.4238 100.922 33.7273C100.675 34.0308 100.551 34.4632 100.551 35.0245C100.551 35.5724 100.675 35.9981 100.922 36.3016C101.172 36.6024 101.525 36.7528 101.982 36.7528C102.293 36.7528 102.564 36.6816 102.795 36.5393C103.029 36.3942 103.213 36.1861 103.347 35.9148L103.899 36.1284C103.727 36.507 103.473 36.8011 103.138 37.0106C102.805 37.2174 102.427 37.3208 102.006 37.3208ZM100.342 35.1897V34.6942H103.665V35.1897H100.342ZM107.433 39.1337L108.275 36.8495L108.288 37.5263L106.382 32.8491H107.01L108.574 36.7608H108.316L109.758 32.8491H110.362L108.026 39.1337H107.433ZM112.871 37.3208C112.433 37.3208 112.062 37.2228 111.759 37.0267C111.455 36.8307 111.224 36.5608 111.066 36.217C110.91 35.8705 110.829 35.473 110.824 35.0245C110.829 34.568 110.913 34.1678 111.074 33.824C111.235 33.4776 111.467 33.209 111.771 33.0183C112.074 32.8249 112.442 32.7282 112.875 32.7282C113.315 32.7282 113.698 32.8357 114.023 33.0505C114.35 33.2654 114.575 33.5595 114.695 33.9328L114.115 34.1181C114.013 33.8576 113.851 33.6562 113.628 33.5138C113.408 33.3688 113.155 33.2963 112.871 33.2963C112.551 33.2963 112.286 33.3701 112.077 33.5178C111.867 33.6629 111.712 33.8656 111.61 34.1262C111.508 34.3867 111.455 34.6861 111.452 35.0245C111.458 35.5456 111.579 35.9645 111.815 36.2814C112.051 36.5957 112.403 36.7528 112.871 36.7528C113.166 36.7528 113.417 36.6856 113.624 36.5514C113.833 36.4144 113.992 36.2156 114.099 35.9551L114.695 36.1324C114.534 36.5191 114.298 36.8146 113.986 37.0187C113.675 37.2201 113.303 37.3208 112.871 37.3208ZM115.167 37.2V36.6803C115.328 36.7098 115.451 36.7031 115.534 36.6601C115.62 36.6145 115.683 36.5393 115.723 36.4345C115.764 36.3271 115.797 36.1942 115.824 36.0357C115.867 35.7725 115.906 35.4824 115.941 35.1655C115.976 34.8486 116.007 34.4995 116.033 34.1181C116.063 33.734 116.093 33.311 116.122 32.8491H119.079V37.2H118.491V33.4171H116.67C116.651 33.7018 116.63 33.9852 116.606 34.2672C116.581 34.5492 116.556 34.8204 116.529 35.0809C116.505 35.3388 116.478 35.5764 116.448 35.794C116.419 36.0115 116.388 36.1995 116.356 36.358C116.307 36.597 116.243 36.7877 116.162 36.93C116.084 37.0724 115.968 37.1664 115.812 37.212C115.656 37.2577 115.441 37.2537 115.167 37.2ZM120.986 39.1337L121.828 36.8495L121.84 37.5263L119.935 32.8491H120.563L122.126 36.7608H121.868L123.311 32.8491H123.915L121.578 39.1337H120.986ZM124.776 37.2V32.8491H127.757V33.4171H125.368V37.2H124.776ZM132.139 32.8491V37.2H131.563V33.8119L129.178 37.2H128.678V32.8491H129.254V36.2089L131.643 32.8491H132.139ZM135.205 37.2V31.3988H135.797V34.0134H139.004V31.3988H139.592V37.2H139.004V34.5814H135.797V37.2H135.205ZM142.723 37.3208C142.298 37.3208 141.93 37.2268 141.619 37.0388C141.31 36.8508 141.07 36.5863 140.898 36.2452C140.726 35.9041 140.64 35.5039 140.64 35.0447C140.64 34.5693 140.724 34.1584 140.894 33.8119C141.063 33.4655 141.301 33.1982 141.607 33.0102C141.916 32.8222 142.279 32.7282 142.698 32.7282C143.128 32.7282 143.495 32.8276 143.798 33.0264C144.102 33.2224 144.331 33.5044 144.487 33.8724C144.643 34.2403 144.714 34.6794 144.701 35.1897H144.096V34.9802C144.086 34.4162 143.963 33.9905 143.73 33.7032C143.499 33.4158 143.16 33.2721 142.715 33.2721C142.247 33.2721 141.889 33.4238 141.639 33.7273C141.392 34.0308 141.268 34.4632 141.268 35.0245C141.268 35.5724 141.392 35.9981 141.639 36.3016C141.889 36.6024 142.242 36.7528 142.698 36.7528C143.01 36.7528 143.281 36.6816 143.512 36.5393C143.746 36.3942 143.93 36.1861 144.064 35.9148L144.616 36.1284C144.444 36.507 144.19 36.8011 143.855 37.0106C143.522 37.2174 143.144 37.3208 142.723 37.3208ZM141.059 35.1897V34.6942H144.382V35.1897H141.059ZM147.818 39.0128V37.2846C147.394 37.3517 147.007 37.306 146.658 37.1476C146.309 36.9864 146.031 36.7259 145.824 36.366C145.618 36.0062 145.514 35.5603 145.514 35.0286C145.514 34.4968 145.618 34.051 145.824 33.6911C146.031 33.3285 146.309 33.0666 146.658 32.9055C147.007 32.7444 147.394 32.6974 147.818 32.7645V31.431H148.366V32.7645C148.791 32.6974 149.177 32.7444 149.527 32.9055C149.876 33.0666 150.154 33.3285 150.36 33.6911C150.567 34.051 150.671 34.4968 150.671 35.0286C150.671 35.5603 150.567 36.0062 150.36 36.366C150.154 36.7259 149.876 36.9864 149.527 37.1476C149.177 37.306 148.791 37.3517 148.366 37.2846V39.0128H147.818ZM147.818 36.7326V33.3204C147.601 33.2828 147.391 33.2896 147.19 33.3406C146.989 33.3889 146.807 33.4843 146.646 33.6266C146.485 33.7663 146.357 33.9529 146.263 34.1866C146.172 34.4176 146.126 34.6982 146.126 35.0286C146.126 35.3589 146.173 35.6409 146.267 35.8746C146.361 36.1055 146.489 36.2908 146.65 36.4305C146.811 36.5702 146.993 36.6642 147.194 36.7125C147.395 36.7608 147.604 36.7676 147.818 36.7326ZM148.366 36.7326C148.581 36.7676 148.789 36.7608 148.991 36.7125C149.192 36.6642 149.373 36.5715 149.535 36.4345C149.696 36.2949 149.823 36.1096 149.917 35.8786C150.011 35.6449 150.058 35.3616 150.058 35.0286C150.058 34.6955 150.011 34.4135 149.917 34.1826C149.826 33.9489 149.7 33.7622 149.539 33.6226C149.378 33.4829 149.196 33.3889 148.995 33.3406C148.793 33.2896 148.584 33.2828 148.366 33.3204V36.7326ZM152.794 37.2V33.397H151.251V32.8491H154.929V33.397H153.386V37.2H152.794ZM157.699 37.3208C157.275 37.3208 156.907 37.2268 156.596 37.0388C156.287 36.8508 156.046 36.5863 155.875 36.2452C155.703 35.9041 155.617 35.5039 155.617 35.0447C155.617 34.5693 155.701 34.1584 155.87 33.8119C156.04 33.4655 156.277 33.1982 156.584 33.0102C156.892 32.8222 157.256 32.7282 157.675 32.7282C158.105 32.7282 158.472 32.8276 158.775 33.0264C159.079 33.2224 159.308 33.5044 159.464 33.8724C159.62 34.2403 159.691 34.6794 159.677 35.1897H159.073V34.9802C159.062 34.4162 158.94 33.9905 158.707 33.7032C158.476 33.4158 158.137 33.2721 157.691 33.2721C157.224 33.2721 156.866 33.4238 156.616 33.7273C156.369 34.0308 156.245 34.4632 156.245 35.0245C156.245 35.5724 156.369 35.9981 156.616 36.3016C156.866 36.6024 157.219 36.7528 157.675 36.7528C157.987 36.7528 158.258 36.6816 158.489 36.5393C158.723 36.3942 158.907 36.1861 159.041 35.9148L159.593 36.1284C159.421 36.507 159.167 36.8011 158.831 37.0106C158.498 37.2174 158.121 37.3208 157.699 37.3208ZM156.036 35.1897V34.6942H159.359V35.1897H156.036ZM160.729 37.2L160.733 32.8491H161.329V34.944L163.271 32.8491H164.06L162.022 35.0245L164.326 37.2H163.464L161.329 35.1051V37.2H160.729ZM166.136 37.3208C165.808 37.3208 165.533 37.2617 165.31 37.1436C165.09 37.0254 164.924 36.8683 164.814 36.6722C164.704 36.4762 164.649 36.2626 164.649 36.0317C164.649 35.7953 164.696 35.5939 164.79 35.4274C164.887 35.2582 165.017 35.1199 165.181 35.0124C165.347 34.905 165.54 34.8231 165.757 34.7667C165.977 34.713 166.22 34.666 166.486 34.6257C166.755 34.5827 167.017 34.5465 167.272 34.5169C167.53 34.4847 167.755 34.4538 167.949 34.4243L167.739 34.5532C167.747 34.1235 167.664 33.8052 167.489 33.5984C167.315 33.3916 167.011 33.2882 166.579 33.2882C166.281 33.2882 166.028 33.3554 165.822 33.4896C165.617 33.6239 165.474 33.8361 165.39 34.1262L164.814 33.957C164.914 33.5675 165.114 33.2654 165.415 33.0505C165.715 32.8357 166.106 32.7282 166.587 32.7282C166.984 32.7282 167.321 32.8034 167.598 32.9538C167.877 33.1016 168.075 33.3164 168.19 33.5984C168.244 33.7246 168.279 33.8656 168.295 34.0214C168.311 34.1772 168.319 34.3356 168.319 34.4968V37.2H167.791V36.1082L167.945 36.1727C167.797 36.546 167.567 36.8307 167.256 37.0267C166.944 37.2228 166.571 37.3208 166.136 37.3208ZM166.204 36.8092C166.481 36.8092 166.723 36.7595 166.929 36.6601C167.136 36.5608 167.303 36.4251 167.429 36.2532C167.555 36.0787 167.637 35.8826 167.675 35.6651C167.707 35.5254 167.724 35.3723 167.727 35.2058C167.73 35.0366 167.731 34.9104 167.731 34.8271L167.957 34.944C167.755 34.9708 167.536 34.9977 167.3 35.0245C167.066 35.0514 166.835 35.0823 166.607 35.1172C166.381 35.1521 166.177 35.1937 165.995 35.2421C165.871 35.277 165.752 35.3267 165.636 35.3911C165.521 35.4529 165.425 35.5362 165.35 35.6409C165.278 35.7456 165.241 35.8759 165.241 36.0317C165.241 36.1579 165.272 36.2801 165.334 36.3983C165.399 36.5164 165.501 36.6145 165.64 36.6924C165.783 36.7702 165.971 36.8092 166.204 36.8092ZM169.525 37.2V32.8491H170.053L171.749 36.4104L173.449 32.8491H173.973V37.2H173.401V34.1141L171.938 37.2H171.564L170.101 34.1141V37.2H169.525ZM177.066 37.3208C176.628 37.3208 176.257 37.2228 175.954 37.0267C175.65 36.8307 175.419 36.5608 175.261 36.217C175.105 35.8705 175.025 35.473 175.019 35.0245C175.025 34.568 175.108 34.1678 175.269 33.824C175.43 33.4776 175.663 33.209 175.966 33.0183C176.269 32.8249 176.637 32.7282 177.07 32.7282C177.51 32.7282 177.893 32.8357 178.218 33.0505C178.546 33.2654 178.77 33.5595 178.891 33.9328L178.311 34.1181C178.209 33.8576 178.046 33.6562 177.823 33.5138C177.603 33.3688 177.35 33.2963 177.066 33.2963C176.746 33.2963 176.482 33.3701 176.272 33.5178C176.063 33.6629 175.907 33.8656 175.805 34.1262C175.703 34.3867 175.65 34.6861 175.648 35.0245C175.653 35.5456 175.774 35.9645 176.01 36.2814C176.247 36.5957 176.598 36.7528 177.066 36.7528C177.361 36.7528 177.612 36.6856 177.819 36.5514C178.029 36.4144 178.187 36.2156 178.295 35.9551L178.891 36.1324C178.73 36.5191 178.493 36.8146 178.182 37.0187C177.87 37.2201 177.498 37.3208 177.066 37.3208ZM179.879 37.2L179.883 32.8491H180.48V34.944L182.421 32.8491H183.211L181.173 35.0245L183.477 37.2H182.615L180.48 35.1051V37.2H179.879ZM185.287 37.3208C184.959 37.3208 184.684 37.2617 184.461 37.1436C184.24 37.0254 184.075 36.8683 183.965 36.6722C183.855 36.4762 183.8 36.2626 183.8 36.0317C183.8 35.7953 183.847 35.5939 183.941 35.4274C184.038 35.2582 184.168 35.1199 184.332 35.0124C184.498 34.905 184.69 34.8231 184.908 34.7667C185.128 34.713 185.371 34.666 185.637 34.6257C185.906 34.5827 186.167 34.5465 186.423 34.5169C186.68 34.4847 186.906 34.4538 187.099 34.4243L186.89 34.5532C186.898 34.1235 186.815 33.8052 186.64 33.5984C186.466 33.3916 186.162 33.2882 185.73 33.2882C185.432 33.2882 185.179 33.3554 184.972 33.4896C184.768 33.6239 184.625 33.8361 184.541 34.1262L183.965 33.957C184.065 33.5675 184.265 33.2654 184.565 33.0505C184.866 32.8357 185.257 32.7282 185.738 32.7282C186.135 32.7282 186.472 32.8034 186.749 32.9538C187.028 33.1016 187.226 33.3164 187.341 33.5984C187.395 33.7246 187.43 33.8656 187.446 34.0214C187.462 34.1772 187.47 34.3356 187.47 34.4968V37.2H186.942V36.1082L187.095 36.1727C186.948 36.546 186.718 36.8307 186.406 37.0267C186.095 37.2228 185.722 37.3208 185.287 37.3208ZM185.355 36.8092C185.632 36.8092 185.873 36.7595 186.08 36.6601C186.287 36.5608 186.453 36.4251 186.58 36.2532C186.706 36.0787 186.788 35.8826 186.825 35.6651C186.858 35.5254 186.875 35.3723 186.878 35.2058C186.881 35.0366 186.882 34.9104 186.882 34.8271L187.107 34.944C186.906 34.9708 186.687 34.9977 186.451 35.0245C186.217 35.0514 185.986 35.0823 185.758 35.1172C185.532 35.1521 185.328 35.1937 185.146 35.2421C185.022 35.277 184.902 35.3267 184.787 35.3911C184.672 35.4529 184.576 35.5362 184.501 35.6409C184.428 35.7456 184.392 35.8759 184.392 36.0317C184.392 36.1579 184.423 36.2801 184.485 36.3983C184.549 36.5164 184.651 36.6145 184.791 36.6924C184.933 36.7702 185.121 36.8092 185.355 36.8092Z" fill="#3F3E45"/>
<defs>
<clipPath id="clip0_13_256">
<rect width="40.3803" height="47" fill="white"/>
</clipPath>
</defs>
</svg>
