<svg width="19" height="18" viewBox="0 0 19 18" fill="none" xmlns="http://www.w3.org/2000/svg">
<path d="M18.5994 0.329155C18.1606 -0.109718 17.4567 -0.109718 17.0178 0.329155L9.92963 7.41737L2.84142 0.329155C2.40254 -0.109718 1.69869 -0.109718 1.25982 0.329155C0.820946 0.768028 0.820946 1.47188 1.25982 1.91075L8.34803 8.99897L1.25982 16.0872C0.820946 16.5261 0.820946 17.2299 1.25982 17.6688C1.47511 17.8841 1.76494 18 2.04648 18C2.32802 18 2.61784 17.8924 2.83314 17.6688L9.92135 10.5806L17.0096 17.6688C17.2249 17.8841 17.5147 18 17.7962 18C18.086 18 18.3676 17.8924 18.5829 17.6688C19.0217 17.2299 19.0217 16.5261 18.5829 16.0872L11.5112 8.99897L18.5994 1.91075C19.0383 1.47188 19.0383 0.768028 18.5994 0.329155Z" fill="#0C88CE"/>
</svg>
