<svg width="52" height="52" viewBox="0 0 52 52" fill="none" xmlns="http://www.w3.org/2000/svg">
<path d="M44.5796 5.57961C44.7005 5.45874 44.844 5.36286 45.0019 5.29745C45.1598 5.23203 45.3291 5.19836 45.5 5.19836C45.6709 5.19836 45.8402 5.23203 45.9981 5.29745C46.156 5.36286 46.2995 5.45874 46.4204 5.57961C46.5413 5.70047 46.6371 5.84397 46.7026 6.00189C46.768 6.15981 46.8016 6.32907 46.8016 6.50001C46.8016 6.67094 46.768 6.8402 46.7026 6.99812C46.6371 7.15605 46.5413 7.29954 46.4204 7.42041L43.4044 10.4338C44.3432 10.5563 45.2055 11.0161 45.8303 11.7274C46.4551 12.4388 46.7997 13.3532 46.8 14.3V32.5C46.8 33.5344 46.3891 34.5263 45.6577 35.2577C44.9263 35.9891 43.9343 36.4 42.9 36.4H17.4382L14.8382 39H41.379C41.11 39.7607 40.6118 40.4193 39.9529 40.8849C39.294 41.3506 38.5068 41.6004 37.7 41.6H14.3C13.6604 41.6 13.0338 41.535 12.4306 41.4076L7.42039 46.4204C7.17629 46.6645 6.84521 46.8017 6.49999 46.8017C6.15477 46.8017 5.8237 46.6645 5.57959 46.4204C5.33549 46.1763 5.19835 45.8452 5.19835 45.5C5.19835 45.1548 5.33549 44.8237 5.57959 44.5796L44.5796 5.57961ZM20.8 33.0382V33.8H36.4V31.2C36.4 29.8209 36.9478 28.4982 37.923 27.5231C38.8982 26.5479 40.2209 26 41.6 26H44.2V20.8H41.6C40.4986 20.8005 39.4255 20.4513 38.5354 19.8028C37.6452 19.1542 36.984 18.2397 36.647 17.1912L33.0798 20.7584C33.6681 21.7518 33.9091 22.9128 33.7648 24.0583C33.6204 25.2038 33.0989 26.2687 32.2825 27.0851C31.4661 27.9015 30.4012 28.423 29.2557 28.5674C28.1102 28.7117 26.9492 28.4707 25.9558 27.8824L20.8 33.0382ZM40.8382 13L39 14.8382V15.6C39 16.2896 39.2739 16.9509 39.7615 17.4385C40.2491 17.9261 40.9104 18.2 41.6 18.2H44.2V14.3C44.2 13.9552 44.063 13.6246 43.8192 13.3808C43.5754 13.137 43.2448 13 42.9 13H40.8382ZM31.1142 22.7266L27.924 25.9116C28.3649 26.0291 28.8289 26.0286 29.2695 25.9102C29.7101 25.7918 30.1119 25.5597 30.4345 25.2371C30.7571 24.9145 30.9892 24.5127 31.1076 24.0721C31.226 23.6315 31.2265 23.1675 31.109 22.7266H31.1142ZM42.9 33.8C43.2448 33.8 43.5754 33.663 43.8192 33.4192C44.063 33.1754 44.2 32.8448 44.2 32.5V28.6H41.6C40.9104 28.6 40.2491 28.8739 39.7615 29.3615C39.2739 29.8491 39 30.5104 39 31.2V33.8H42.9ZM15.6 26C16.9598 26 18.1948 26.52 19.1204 27.3728L17.2796 29.2162C16.8107 28.8178 16.2153 28.5993 15.6 28.6H13V32.5C12.9999 32.7704 13.0844 33.0341 13.2418 33.254L11.3958 35.1C10.777 34.411 10.4 33.4984 10.4 32.5V14.3C10.4 13.2657 10.8109 12.2737 11.5423 11.5423C12.2737 10.8109 13.2656 10.4 14.3 10.4H36.0958L33.4958 13H20.8V15.6C20.8 16.9791 20.2521 18.3018 19.2769 19.277C18.3018 20.2522 16.9791 20.8 15.6 20.8H13V26H15.6ZM14.3 13C13.9552 13 13.6245 13.137 13.3808 13.3808C13.137 13.6246 13 13.9552 13 14.3V18.2H15.6C16.2896 18.2 16.9509 17.9261 17.4385 17.4385C17.9261 16.9509 18.2 16.2896 18.2 15.6V13H14.3ZM9.55239 36.9408L7.71419 38.7816C6.15419 37.1462 5.19999 34.9336 5.19999 32.5V19.5C5.19957 18.6932 5.44941 17.906 5.91507 17.2471C6.38073 16.5882 7.03929 16.09 7.79999 15.821V32.5C7.79999 34.216 8.46559 35.7786 9.55239 36.9408Z" fill="#D30E0E"/>
</svg>
