<svg width="52" height="52" viewBox="0 0 52 52" fill="none" xmlns="http://www.w3.org/2000/svg">
<path d="M14.9337 30.16C10.9392 24.1071 8.59239 17.1171 8.125 9.88V9.75C8.125 9.31902 8.29621 8.9057 8.60095 8.60095C8.9057 8.29621 9.31902 8.125 9.75 8.125H18.33L20.7675 14.2513L16.1525 18.915L16.25 19.695C16.6484 22.0726 17.4508 24.3644 18.6225 26.4713L20.995 24.0987C20.3472 22.8058 19.8876 21.4268 19.63 20.0037L23.0912 16.51C23.5412 16.0593 23.8489 15.4864 23.976 14.8624C24.1031 14.2384 24.0441 13.5908 23.8062 13L21.3363 6.9225C21.0954 6.31779 20.6785 5.79932 20.1397 5.43426C19.6008 5.0692 18.9647 4.87437 18.3138 4.875H9.36C8.72055 4.92427 8.09711 5.09923 7.52539 5.38986C6.95368 5.68049 6.44493 6.08107 6.02829 6.56866C5.61166 7.05624 5.29532 7.62124 5.09742 8.23129C4.89952 8.84134 4.82393 9.48444 4.875 10.1238C5.44814 18.139 8.13377 25.8595 12.6587 32.5L14.9337 30.16ZM45.1263 30.6475L39 28.1938C38.4117 27.9463 37.7637 27.8776 37.1366 27.996C36.5095 28.1145 35.9312 28.415 35.4738 28.86L31.9475 32.3538C29.4394 31.9204 27.0842 30.8519 25.1062 29.25L48.75 5.54125L46.4588 3.25L3.25 46.4588L5.54125 48.75L16.9163 37.375C22.4088 42.5425 30.3712 46.5075 41.925 47.125H42.25C43.5429 47.125 44.7829 46.6114 45.6971 45.6971C46.6114 44.7829 47.125 43.5429 47.125 42.25V33.67C47.1296 33.0247 46.9419 32.3926 46.586 31.8543C46.23 31.3161 45.7218 30.8959 45.1263 30.6475ZM43.875 42.25V42.3475C43.8626 42.561 43.8081 42.77 43.7147 42.9624C43.6214 43.1549 43.4909 43.327 43.3309 43.4689C43.1709 43.6108 42.9844 43.7197 42.7822 43.7894C42.58 43.8591 42.366 43.8882 42.1525 43.875C31.5737 43.2738 24.2775 39.7475 19.2238 35.0675L22.75 31.59C25.4387 33.9148 28.7715 35.3658 32.305 35.75L33.085 35.8475L37.7487 31.2162L43.875 33.67V42.25Z" fill="#D30E0E"/>
</svg>
