<svg width="32" height="33" viewBox="0 0 32 33" fill="none" xmlns="http://www.w3.org/2000/svg">
<path d="M16 28.5C22.6274 28.5 28 23.1274 28 16.5C28 9.87258 22.6274 4.5 16 4.5C9.37258 4.5 4 9.87258 4 16.5C4 23.1274 9.37258 28.5 16 28.5Z" stroke="#D91A5D" stroke-width="2" stroke-linecap="round" stroke-linejoin="round"/>
<path d="M15.3335 16.5C16.4381 16.5 17.3335 15.6046 17.3335 14.5C17.3335 13.3954 16.4381 12.5 15.3335 12.5C14.2289 12.5 13.3335 13.3954 13.3335 14.5C13.3335 15.6046 14.2289 16.5 15.3335 16.5Z" stroke="#D91A5D" stroke-width="2" stroke-linecap="round" stroke-linejoin="round"/>
<path d="M15.3335 20.5C16.4381 20.5 17.3335 19.6046 17.3335 18.5C17.3335 17.3954 16.4381 16.5 15.3335 16.5C14.2289 16.5 13.3335 17.3954 13.3335 18.5C13.3335 19.6046 14.2289 20.5 15.3335 20.5Z" stroke="#D91A5D" stroke-width="2" stroke-linecap="round" stroke-linejoin="round"/>
<path d="M9.3335 20.5V12.5M20.6668 16.5H24.6668M22.6668 14.5V18.5" stroke="#D91A5D" stroke-width="2" stroke-linecap="round" stroke-linejoin="round"/>
</svg>
