<svg width="32" height="24" viewBox="0 0 32 24" fill="none" xmlns="http://www.w3.org/2000/svg">
<path d="M6.78747 24.0001H5.42348C4.6712 24.0001 4.05688 23.3857 4.05688 22.6335V20.6161C4.05688 19.8638 4.6712 19.2495 5.42348 19.2495H6.78747C7.53975 19.2495 8.15406 19.8638 8.15406 20.6161V22.6335C8.15406 23.3857 7.53975 24.0001 6.78747 24.0001Z" fill="#553A30"/>
<path d="M25.7951 24.0001H24.3634C23.6111 24.0001 22.9968 23.3857 22.9968 22.6335V20.6161C22.9968 19.8638 23.6111 19.2495 24.3634 19.2495H25.7951C26.5474 19.2495 27.1617 19.8638 27.1617 20.6161V22.6335C27.1617 23.3857 26.5448 24.0001 25.7951 24.0001Z" fill="#553A30"/>
<path d="M4.54116 10.0738L4.55418 9.27725C4.55418 7.83777 1.03227 8.4599 1.03227 8.4599C0.436172 8.61868 0.00146484 9.03517 0.00146484 9.90979C0.00146484 10.9198 3.82272 10.8677 3.82272 10.8677C4.30168 10.8677 4.62446 10.5111 4.54116 10.0738Z" fill="#504F4F"/>
<path d="M26.6879 10.0739L26.6749 9.27735C26.6749 7.84047 30.1968 8.4626 30.1968 8.4626C30.7929 8.62138 31.2276 9.03787 31.2276 9.91249C31.2276 10.9225 27.4063 10.8704 27.4063 10.8704C26.9274 10.8678 26.6046 10.5112 26.6879 10.0739Z" fill="#504F4F"/>
<path d="M27.7212 10.839L26.011 3.06377C25.48 1.43688 22.8978 0 15.6093 0C8.32078 0 5.80364 1.32755 5.19713 3.12885L3.48173 10.8234C2.32858 11.3701 2.07349 12.518 2.07349 14.5614V18.9007C2.07349 20.6994 3.66394 21.8707 5.18412 21.8707H25.9668C27.4869 21.8707 29.1425 20.6994 29.1425 18.8981V14.5614C29.1451 12.5362 28.8665 11.3909 27.7212 10.839Z" fill="url(#paint0_radial_339_5538)"/>
<path d="M24.1317 9.99055C24.6289 10.0374 25.0297 9.6079 24.9256 9.14196L23.8219 4.14413C23.6085 3.29033 21.7187 2.08252 15.6822 2.08252C9.64579 2.08252 7.70913 3.38924 7.5139 4.14413L6.41282 9.14196C6.3087 9.6079 6.70957 10.0374 7.20675 9.99055C8.46662 9.87341 11.041 9.71202 15.6692 9.71202C20.2974 9.71202 22.8718 9.87341 24.1317 9.99055Z" fill="#546E7A"/>
<path d="M3.50513 14.9051C3.50513 13.4474 4.08821 13.2912 6.3945 13.8196C9.0522 14.4313 9.28387 14.5381 9.28387 15.2669C9.28387 16.1207 8.21662 16.2066 7.70383 16.2066L5.06695 16.2144C4.07259 16.2118 3.50513 15.9801 3.50513 14.9051Z" fill="#FFEB3B"/>
<path d="M27.7238 14.9051C27.7238 13.4474 27.1407 13.2912 24.8344 13.8196C22.1767 14.4313 21.9451 14.5381 21.9451 15.2669C21.9451 16.1207 23.0123 16.2066 23.5251 16.2066L26.162 16.2144C27.1563 16.2118 27.7238 15.9801 27.7238 14.9051Z" fill="#FFEB3B"/>
<path d="M19.7896 17.3022H11.4287C10.856 17.3022 10.3875 16.8337 10.3875 16.261V15.717C10.3875 15.1443 10.856 14.6758 11.4287 14.6758H19.7922C20.3649 14.6758 20.8334 15.1443 20.8334 15.717V16.261C20.8308 16.8337 20.3623 17.3022 19.7896 17.3022Z" fill="#BDBDBD"/>
<path d="M28.5256 21.6755C19.9408 22.748 11.546 22.748 2.95596 21.6755C2.2245 21.5714 1.71952 20.8998 1.82884 20.1996C1.84706 20.0851 1.85487 20.0278 1.87309 19.9133C1.98502 19.2104 2.65401 18.7289 3.36203 18.8304C11.6996 19.8534 19.7794 19.8534 28.1169 18.8304C28.8249 18.7289 29.4939 19.2104 29.6059 19.9133C29.6241 20.0278 29.6319 20.0851 29.6501 20.1996C29.762 20.8998 29.2544 21.5714 28.5256 21.6755Z" fill="#BDBDBD"/>
<defs>
<radialGradient id="paint0_radial_339_5538" cx="0" cy="0" r="1" gradientUnits="userSpaceOnUse" gradientTransform="translate(15.608 10.9354) scale(18.8821 18.8821)">
<stop stop-color="#EEEEEE"/>
<stop offset="0.2655" stop-color="#E8E8E8"/>
<stop offset="0.6342" stop-color="#D6D6D6"/>
<stop offset="1" stop-color="#BDBDBD"/>
</radialGradient>
</defs>
</svg>
