<svg width="18" height="17" viewBox="0 0 18 17" fill="none" xmlns="http://www.w3.org/2000/svg">
<path d="M13.0729 0.5C9.88864 0.5 8.71869 3.75406 8.71869 3.75406C8.71869 3.75406 7.56473 0.5 4.35862 0.5C1.94896 0.5 -0.797886 2.40971 0.216557 6.75089C1.231 11.0921 8.72741 16.5 8.72741 16.5C8.72741 16.5 16.1962 11.0921 17.2121 6.75089C18.2265 2.40971 15.6774 0.5 13.0729 0.5V0.5Z" fill="white"/>
<path d="M3.86742 0.824098C6.36719 0.824098 7.60836 3.51135 8.00949 4.59992C8.06617 4.75543 8.28272 4.75979 8.34812 4.60864L8.71437 3.75261C8.19842 2.10451 6.77995 0.5 4.35866 0.5C3.35584 0.5 2.29634 0.831365 1.47229 1.53043C2.20042 1.05228 3.05354 0.824098 3.86742 0.824098V0.824098Z" fill="white"/>
<path d="M13.073 0.5C12.3041 0.5 11.6036 0.667136 11.0571 1.00431C11.4408 0.856072 11.9161 0.824098 12.387 0.824098C14.7429 0.824098 16.8517 2.61027 15.8997 6.73926C15.0829 10.284 10.3101 14.5845 8.85241 16.2253C8.75939 16.33 8.72742 16.4985 8.72742 16.4985C8.72742 16.4985 16.1962 11.0906 17.2121 6.74943C18.2266 2.40971 15.6817 0.5 13.073 0.5V0.5Z" fill="white"/>
<path d="M1.88943 2.80363C2.43444 2.12346 3.40818 1.56101 4.23369 2.20921C4.67987 2.55947 4.48512 3.27743 4.08545 3.57973C3.50411 4.02155 2.99834 4.28751 2.64372 4.97931C2.43153 5.39497 2.30363 5.84987 2.23823 6.31349C2.21207 6.49661 1.97227 6.54167 1.88216 6.38034C1.26884 5.29323 1.09444 3.79628 1.88943 2.80363Z" fill="white"/>
<path d="M10.627 4.23377C10.3712 4.23377 10.191 3.9867 10.284 3.74835C10.4569 3.30943 10.6807 2.88505 10.9496 2.50718C11.3478 1.94909 12.105 1.62354 12.5846 1.96217C13.0759 2.30807 13.0119 2.99987 12.6675 3.33414C11.9277 4.05065 10.9947 4.23377 10.627 4.23377Z" fill="white"/>
</svg>
