<svg width="25" height="24" viewBox="0 0 25 24" fill="none" xmlns="http://www.w3.org/2000/svg">
<path d="M12 0.800049L0.800049 10.4H1.60005V23.6H22.4V10.4H23.2L12 0.800049Z" fill="url(#paint0_radial_339_5552)"/>
<path opacity="0.2" d="M12 1.59005L21.896 10.072C21.836 10.168 21.8 10.28 21.8 10.4V23H2.20005V10.4C2.20005 10.28 2.16405 10.168 2.10405 10.074L12 1.59005ZM12 0.800049L0.800049 10.4H1.60005V23.6H22.4V10.4H23.2L12 0.800049Z" fill="#424242"/>
<path d="M24.0002 23.9999H3.2002V22.3999H23.2002C23.6422 22.3999 24.0002 22.7579 24.0002 23.1999V23.9999Z" fill="#689F38"/>
<path opacity="0.2" d="M23.2002 22.9999C23.3102 22.9999 23.4002 23.0899 23.4002 23.1999V23.3999H3.8002V22.9999H23.2002ZM23.2002 22.3999H3.2002V23.9999H24.0002V23.1999C24.0002 22.7579 23.6422 22.3999 23.2002 22.3999Z" fill="#424242"/>
<path opacity="0.2" d="M13.8001 5.20005C14.0201 5.20005 14.2001 5.38005 14.2001 5.60005V9.20005C14.2001 9.42005 14.0201 9.60005 13.8001 9.60005H10.2001C9.98015 9.60005 9.80015 9.42005 9.80015 9.20005V5.60005C9.80015 5.38005 9.98015 5.20005 10.2001 5.20005H13.8001ZM13.8001 4.80005H10.2001C9.75815 4.80005 9.40015 5.15805 9.40015 5.60005V9.20005C9.40015 9.64205 9.75815 10 10.2001 10H13.8001C14.2421 10 14.6001 9.64205 14.6001 9.20005V5.60005C14.6001 5.15805 14.2421 4.80005 13.8001 4.80005Z" fill="#424242"/>
<path opacity="0.2" d="M18.8001 12.0001C19.0201 12.0001 19.2001 12.1801 19.2001 12.4001V18.0001C19.2001 18.2201 19.0201 18.4001 18.8001 18.4001H15.2001C14.9801 18.4001 14.8001 18.2201 14.8001 18.0001V12.4001C14.8001 12.1801 14.9801 12.0001 15.2001 12.0001H18.8001ZM18.8001 11.6001H15.2001C14.7581 11.6001 14.4001 11.9581 14.4001 12.4001V18.0001C14.4001 18.4421 14.7581 18.8001 15.2001 18.8001H18.8001C19.2421 18.8001 19.6001 18.4421 19.6001 18.0001V12.4001C19.6001 11.9581 19.2421 11.6001 18.8001 11.6001Z" fill="#424242"/>
<path d="M12.0003 21.6H4.80029V11.6C4.80029 11.38 4.98029 11.2 5.20029 11.2H11.6003C11.8203 11.2 12.0003 11.38 12.0003 11.6V21.6Z" fill="url(#paint1_radial_339_5552)"/>
<path d="M11.2001 21.114H5.60015C5.49015 21.114 5.40015 21.024 5.40015 20.914V11.886C5.40015 11.776 5.49015 11.686 5.60015 11.686H11.2001C11.3101 11.686 11.4001 11.776 11.4001 11.886V20.914C11.4001 21.024 11.3101 21.114 11.2001 21.114Z" fill="url(#paint2_radial_339_5552)"/>
<path d="M10.1001 5.5H13.9001V9.3H10.1001V5.5Z" fill="#4FC3F7"/>
<path d="M9.80029 5.59995V9.19995C9.80029 9.41995 9.98029 9.59995 10.2003 9.59995H13.8003C14.0203 9.59995 14.2003 9.41995 14.2003 9.19995V5.59995C14.2003 5.37995 14.0203 5.19995 13.8003 5.19995H10.2003C9.98029 5.19995 9.80029 5.37995 9.80029 5.59995ZM13.8003 7.19995H12.2003V5.59995H13.8003V7.19995ZM11.8003 5.59995V7.19995H10.2003V5.59995H11.8003ZM10.2003 7.59995H11.8003V9.19995H10.2003V7.59995ZM12.2003 9.19995V7.59995H13.8003V9.19995H12.2003Z" fill="#EEEEEE"/>
<path d="M15.0061 12.3H18.9941V18.1H15.0061V12.3Z" fill="#4FC3F7"/>
<path d="M10.6002 15.5999H6.20024C6.09024 15.5999 6.00024 15.5099 6.00024 15.3999V12.5999C6.00024 12.4899 6.09024 12.3999 6.20024 12.3999H10.6002C10.7102 12.3999 10.8002 12.4899 10.8002 12.5999V15.3999C10.8002 15.5099 10.7102 15.5999 10.6002 15.5999Z" fill="url(#paint3_radial_339_5552)"/>
<path d="M10.6002 20.3999H6.20024C6.09024 20.3999 6.00024 20.3099 6.00024 20.1999V16.5999C6.00024 16.4899 6.09024 16.3999 6.20024 16.3999H10.6002C10.7102 16.3999 10.8002 16.4899 10.8002 16.5999V20.1999C10.8002 20.3099 10.7102 20.3999 10.6002 20.3999Z" fill="url(#paint4_radial_339_5552)"/>
<path d="M12.8041 22.2639H4.00415V21.5319C4.00415 21.2579 4.22615 21.0359 4.50015 21.0359H12.3102C12.5842 21.0359 12.8061 21.2579 12.8061 21.5319V22.2639H12.8041Z" fill="url(#paint5_linear_339_5552)"/>
<path opacity="0.3" d="M12.3102 21.2359C12.4722 21.2359 12.6062 21.3679 12.6062 21.5319V22.0639H4.20615V21.5319C4.20615 21.3699 4.33815 21.2359 4.50215 21.2359H12.3102ZM12.3102 21.0359H4.50015C4.22615 21.0359 4.00415 21.2579 4.00415 21.5319V22.2639H12.8041V21.5319C12.8041 21.2579 12.5822 21.0359 12.3102 21.0359Z" fill="#263238"/>
<path d="M13.6041 23.404H3.2041V22.564C3.2041 22.276 3.4381 22.042 3.7261 22.042H13.0821C13.3701 22.042 13.6041 22.276 13.6041 22.564V23.404Z" fill="url(#paint6_linear_339_5552)"/>
<path opacity="0.3" d="M13.0821 22.242C13.2601 22.242 13.4041 22.386 13.4041 22.564V23.204H3.4041V22.564C3.4041 22.386 3.5481 22.242 3.7261 22.242H13.0821ZM13.0821 22.042H3.7261C3.4381 22.042 3.2041 22.276 3.2041 22.564V23.404H13.6041V22.564C13.6041 22.276 13.3721 22.042 13.0821 22.042Z" fill="#263238"/>
<path opacity="0.2" d="M8.10626 21.5326C8.12487 21.4889 8.06993 21.4237 7.98355 21.3869C7.89718 21.3501 7.81207 21.3557 7.79346 21.3994C7.77485 21.4431 7.82979 21.5083 7.91617 21.5451C8.00254 21.5819 8.08765 21.5763 8.10626 21.5326Z" fill="#424242"/>
<path opacity="0.2" d="M11.8764 21.9295C11.9028 21.8969 11.8756 21.831 11.8156 21.7823C11.7555 21.7335 11.6854 21.7204 11.659 21.753C11.6325 21.7856 11.6597 21.8515 11.7198 21.9003C11.7798 21.949 11.8499 21.9621 11.8764 21.9295Z" fill="#424242"/>
<path opacity="0.08" d="M8.46015 21.8619C8.57392 21.8619 8.66615 21.8171 8.66615 21.7619C8.66615 21.7066 8.57392 21.6619 8.46015 21.6619C8.34638 21.6619 8.25415 21.7066 8.25415 21.7619C8.25415 21.8171 8.34638 21.8619 8.46015 21.8619Z" fill="#424242"/>
<path opacity="0.08" d="M10.2363 21.8479C10.35 21.8479 10.4423 21.8032 10.4423 21.7479C10.4423 21.6927 10.35 21.6479 10.2363 21.6479C10.1225 21.6479 10.0303 21.6927 10.0303 21.7479C10.0303 21.8032 10.1225 21.8479 10.2363 21.8479Z" fill="#424242"/>
<path opacity="0.08" d="M9.81021 21.58C9.88864 21.58 9.95221 21.5415 9.95221 21.494C9.95221 21.4465 9.88864 21.408 9.81021 21.408C9.73179 21.408 9.66821 21.4465 9.66821 21.494C9.66821 21.5415 9.73179 21.58 9.81021 21.58Z" fill="#424242"/>
<path opacity="0.08" d="M12.1203 21.6521C12.2329 21.6521 12.3243 21.5965 12.3243 21.5281C12.3243 21.4596 12.2329 21.4041 12.1203 21.4041C12.0076 21.4041 11.9163 21.4596 11.9163 21.5281C11.9163 21.5965 12.0076 21.6521 12.1203 21.6521Z" fill="#424242"/>
<path opacity="0.08" d="M7.22818 21.53C7.30661 21.53 7.37018 21.4996 7.37018 21.462C7.37018 21.4245 7.30661 21.394 7.22818 21.394C7.14976 21.394 7.08618 21.4245 7.08618 21.462C7.08618 21.4996 7.14976 21.53 7.22818 21.53Z" fill="#424242"/>
<path opacity="0.08" d="M11.3118 21.7004C11.4385 21.6813 11.5338 21.6162 11.5246 21.555C11.5153 21.4939 11.4052 21.4598 11.2785 21.4789C11.1518 21.498 11.0565 21.563 11.0658 21.6242C11.075 21.6853 11.1852 21.7194 11.3118 21.7004Z" fill="#424242"/>
<path opacity="0.2" d="M7.57835 21.8461C7.69879 21.8178 7.78495 21.746 7.77081 21.6858C7.75667 21.6256 7.64758 21.5997 7.52715 21.628C7.40671 21.6563 7.32055 21.728 7.33469 21.7882C7.34883 21.8484 7.45792 21.8743 7.57835 21.8461Z" fill="#424242"/>
<path opacity="0.2" d="M10.6021 21.5659C10.759 21.5659 10.8861 21.5193 10.8861 21.4619C10.8861 21.4045 10.759 21.3579 10.6021 21.3579C10.4453 21.3579 10.3181 21.4045 10.3181 21.4619C10.3181 21.5193 10.4453 21.5659 10.6021 21.5659Z" fill="#424242"/>
<path opacity="0.2" d="M8.94479 21.4749C9.02411 21.4226 9.06969 21.3518 9.04659 21.3168C9.02349 21.2817 8.94047 21.2957 8.86115 21.348C8.78183 21.4003 8.73625 21.471 8.75935 21.5061C8.78245 21.5411 8.86548 21.5272 8.94479 21.4749Z" fill="#424242"/>
<path opacity="0.2" d="M9.68617 21.8551C9.71303 21.797 9.61451 21.6943 9.46611 21.6257C9.3177 21.5571 9.17562 21.5487 9.14875 21.6069C9.12188 21.665 9.2204 21.7677 9.36881 21.8363C9.51721 21.9049 9.6593 21.9133 9.68617 21.8551Z" fill="#424242"/>
<path opacity="0.2" d="M12.1657 22.6537C12.2623 22.6186 12.3274 22.554 12.3111 22.5093C12.2949 22.4647 12.2035 22.457 12.1069 22.4921C12.0104 22.5272 11.9453 22.5918 11.9615 22.6365C11.9778 22.6811 12.0692 22.6888 12.1657 22.6537Z" fill="#424242"/>
<path opacity="0.2" d="M7.96963 23.0104C8.03807 22.9637 8.07387 22.897 8.0496 22.8615C8.02532 22.8259 7.95016 22.8349 7.88173 22.8815C7.81329 22.9282 7.77749 22.9949 7.80177 23.0305C7.82604 23.0661 7.9012 23.0571 7.96963 23.0104Z" fill="#424242"/>
<path opacity="0.08" d="M11.5761 22.9661C11.7021 22.9661 11.8041 22.9213 11.8041 22.8661C11.8041 22.8109 11.7021 22.7661 11.5761 22.7661C11.4502 22.7661 11.3481 22.8109 11.3481 22.8661C11.3481 22.9213 11.4502 22.9661 11.5761 22.9661Z" fill="#424242"/>
<path opacity="0.08" d="M9.61618 22.9539C9.74211 22.9539 9.84418 22.9091 9.84418 22.8539C9.84418 22.7987 9.74211 22.7539 9.61618 22.7539C9.49026 22.7539 9.38818 22.7987 9.38818 22.8539C9.38818 22.9091 9.49026 22.9539 9.61618 22.9539Z" fill="#424242"/>
<path opacity="0.08" d="M10.0862 22.6859C10.1723 22.6859 10.2422 22.6474 10.2422 22.5999C10.2422 22.5524 10.1723 22.5139 10.0862 22.5139C10 22.5139 9.93018 22.5524 9.93018 22.5999C9.93018 22.6474 10 22.6859 10.0862 22.6859Z" fill="#424242"/>
<path opacity="0.08" d="M7.54016 22.758C7.66387 22.758 7.76416 22.7025 7.76416 22.634C7.76416 22.5655 7.66387 22.51 7.54016 22.51C7.41645 22.51 7.31616 22.5655 7.31616 22.634C7.31616 22.7025 7.41645 22.758 7.54016 22.758Z" fill="#424242"/>
<path opacity="0.08" d="M12.9341 22.636C13.0202 22.636 13.0901 22.6056 13.0901 22.568C13.0901 22.5304 13.0202 22.5 12.9341 22.5C12.8479 22.5 12.7781 22.5304 12.7781 22.568C12.7781 22.6056 12.8479 22.636 12.9341 22.636Z" fill="#424242"/>
<path opacity="0.08" d="M8.69883 22.7283C8.70677 22.667 8.60043 22.6027 8.46132 22.5846C8.3222 22.5666 8.20299 22.6018 8.19504 22.6631C8.1871 22.7244 8.29344 22.7888 8.43256 22.8068C8.57167 22.8248 8.69089 22.7897 8.69883 22.7283Z" fill="#424242"/>
<path opacity="0.2" d="M12.8194 22.8921C12.8315 22.8315 12.7334 22.7606 12.6002 22.7339C12.467 22.7071 12.3492 22.7346 12.337 22.7952C12.3248 22.8559 12.4229 22.9267 12.5561 22.9535C12.6893 22.9802 12.8072 22.9527 12.8194 22.8921Z" fill="#424242"/>
<path opacity="0.2" d="M9.21215 22.6721C9.38446 22.6721 9.52415 22.6255 9.52415 22.5681C9.52415 22.5107 9.38446 22.4641 9.21215 22.4641C9.03983 22.4641 8.90015 22.5107 8.90015 22.5681C8.90015 22.6255 9.03983 22.6721 9.21215 22.6721Z" fill="#424242"/>
<path opacity="0.2" d="M11.2503 22.6108C11.2717 22.5734 11.2175 22.5022 11.1293 22.4517C11.041 22.4013 10.9522 22.3907 10.9308 22.4281C10.9094 22.4655 10.9636 22.5367 11.0518 22.5872C11.1401 22.6376 11.2289 22.6482 11.2503 22.6108Z" fill="#424242"/>
<path opacity="0.2" d="M10.5659 22.944C10.7297 22.8776 10.8426 22.7748 10.8181 22.7144C10.7937 22.654 10.641 22.6588 10.4772 22.7252C10.3134 22.7916 10.2005 22.8944 10.225 22.9548C10.2495 23.0152 10.4021 23.0104 10.5659 22.944Z" fill="#424242"/>
<path d="M15.2003 12C14.9803 12 14.8003 12.18 14.8003 12.4V18C14.8003 18.22 14.9803 18.4 15.2003 18.4H18.8003C19.0203 18.4 19.2003 18.22 19.2003 18V12.4C19.2003 12.18 19.0203 12 18.8003 12H15.2003ZM17.2003 12.4H18.8003V14H17.2003V12.4ZM15.2003 12.4H16.8003V14H15.2003V12.4ZM15.2003 14.4H16.8003V16H15.2003V14.4ZM16.8003 18H15.2003V16.4H16.8003V18ZM18.8003 18H17.2003V16.4H18.8003V18ZM17.2003 16V14.4H18.8003V16H17.2003Z" fill="#EEEEEE"/>
<path d="M10.5461 16.9999C10.9879 16.9999 11.3461 16.6417 11.3461 16.1999C11.3461 15.7581 10.9879 15.3999 10.5461 15.3999C10.1043 15.3999 9.74609 15.7581 9.74609 16.1999C9.74609 16.6417 10.1043 16.9999 10.5461 16.9999Z" fill="#FFC107"/>
<path d="M10.5461 15.6C10.8781 15.6 11.1461 15.868 11.1461 16.2C11.1461 16.532 10.8781 16.8 10.5461 16.8C10.2141 16.8 9.94614 16.532 9.94614 16.2C9.94614 15.868 10.2161 15.6 10.5461 15.6ZM10.5461 15.2C9.99414 15.2 9.54614 15.648 9.54614 16.2C9.54614 16.752 9.99414 17.2 10.5461 17.2C11.0981 17.2 11.5461 16.752 11.5461 16.2C11.5461 15.648 11.0981 15.2 10.5461 15.2Z" fill="#C62828"/>
<path d="M19.4002 19.1999H14.6002C14.3802 19.1999 14.2002 19.0199 14.2002 18.7999V17.9999C14.2002 17.7799 14.3802 17.5999 14.6002 17.5999H19.4002C19.6202 17.5999 19.8002 17.7799 19.8002 17.9999V18.7999C19.8002 19.0199 19.6202 19.1999 19.4002 19.1999Z" fill="#795548"/>
<path opacity="0.2" d="M19.4002 17.9999V18.7999H14.6002V17.9999H19.4002ZM19.4002 17.5999H14.6002C14.3802 17.5999 14.2002 17.7799 14.2002 17.9999V18.7999C14.2002 19.0199 14.3802 19.1999 14.6002 19.1999H19.4002C19.6202 19.1999 19.8002 19.0199 19.8002 18.7999V17.9999C19.8002 17.7799 19.6202 17.5999 19.4002 17.5999Z" fill="#424242"/>
<path d="M23.6561 9.84L12.6401 0.24C12.2721 -0.08 11.7281 -0.08 11.3601 0.24L0.344124 9.84C-0.0678757 10.2 -0.115876 10.83 0.238124 11.25C0.592124 11.67 1.21212 11.718 1.62412 11.358L11.6061 2.66C11.8321 2.464 12.1681 2.464 12.3941 2.66L22.3761 11.358C22.5621 11.52 22.7901 11.598 23.0161 11.598C23.2941 11.598 23.5681 11.48 23.7641 11.248C24.1161 10.832 24.0681 10.2 23.6561 9.84Z" fill="url(#paint7_radial_339_5552)"/>
<path d="M0.474176 23.8001C0.342176 23.8001 0.270176 23.6601 0.246176 23.6001C0.172176 23.4221 0.180176 23.1601 0.336176 23.0041C0.400176 22.9401 0.406176 22.8321 0.364176 22.7541C0.268176 22.5841 0.228176 22.3721 0.250176 22.1581C0.316176 21.4901 0.836176 20.9381 1.51618 20.8141C1.61018 20.7981 1.70418 20.7881 1.79818 20.7881C1.92218 20.7881 2.04818 20.8041 2.17018 20.8341C2.18618 20.8381 2.20218 20.8401 2.21818 20.8401C2.28618 20.8401 2.35018 20.8061 2.38818 20.7461C2.67618 20.2841 3.17018 20.0081 3.71218 20.0081C4.40018 20.0081 5.01618 20.4701 5.20818 21.1301C5.23418 21.2161 5.31218 21.2741 5.40018 21.2741C5.41218 21.2741 5.42418 21.2721 5.43818 21.2701C5.53618 21.2521 5.63418 21.2421 5.73018 21.2421C5.85218 21.2421 5.97418 21.2561 6.09418 21.2861C6.74418 21.4441 7.23418 22.0181 7.28618 22.6781C7.31818 23.0921 7.19018 23.4861 6.92818 23.8001H0.474176Z" fill="url(#paint8_radial_339_5552)"/>
<path d="M3.71219 20.2059C4.31219 20.2059 4.84819 20.6079 5.01619 21.1839C5.06619 21.3579 5.22619 21.4719 5.40019 21.4719C5.42419 21.4719 5.45019 21.4699 5.47419 21.4639C5.55819 21.4479 5.64419 21.4399 5.72819 21.4399C5.83419 21.4399 5.94019 21.4519 6.04419 21.4779C6.61219 21.6159 7.04019 22.1159 7.08419 22.6919C7.11019 23.0219 7.01819 23.3379 6.82819 23.5979L0.484186 23.5999C0.470186 23.5919 0.422186 23.5339 0.406186 23.4259C0.392186 23.3379 0.406186 23.2159 0.478186 23.1419C0.578186 23.0439 0.652186 22.8559 0.538186 22.6519C0.462186 22.5179 0.430186 22.3479 0.448186 22.1719C0.504186 21.6019 0.968186 21.1119 1.55019 21.0059C1.63219 20.9919 1.71419 20.9839 1.79619 20.9839C1.90419 20.9839 2.01419 20.9979 2.12019 21.0239C2.15219 21.0319 2.18419 21.0359 2.21619 21.0359C2.35219 21.0359 2.48219 20.9659 2.55619 20.8479C2.80619 20.4479 3.23819 20.2059 3.71219 20.2059ZM3.71219 19.8059C3.08019 19.8059 2.52819 20.1379 2.21819 20.6379C2.08419 20.6059 1.94419 20.5879 1.79819 20.5879C1.69419 20.5879 1.58819 20.5979 1.48019 20.6159C0.728186 20.7519 0.126186 21.3759 0.0501858 22.1359C0.00618584 22.5819 0.198186 22.8579 0.194186 22.8619C-0.179814 23.2379 0.0261858 23.9999 0.474186 23.9999H7.01619C7.33819 23.6539 7.52419 23.1799 7.48419 22.6639C7.42619 21.9099 6.87619 21.2719 6.14019 21.0919C6.00019 21.0579 5.86219 21.0419 5.73019 21.0419C5.61819 21.0419 5.50819 21.0539 5.40019 21.0739C5.18619 20.3419 4.51219 19.8059 3.71219 19.8059Z" fill="#689F38"/>
<path d="M1.98227 21.7858C1.98227 21.7858 1.96627 21.3038 2.35427 20.7878" stroke="#689F38" stroke-width="0.90795" stroke-miterlimit="10" stroke-linecap="round" stroke-linejoin="round"/>
<path d="M5.3701 21.2739C4.9141 21.2819 4.4701 21.6399 4.4021 22.0759" stroke="#689F38" stroke-width="0.90795" stroke-miterlimit="10" stroke-linecap="round" stroke-linejoin="round"/>
<path d="M4.90229 22.278C4.50229 22.096 3.96429 22.124 3.55029 22.336" stroke="#689F38" stroke-width="0.90795" stroke-miterlimit="10" stroke-linecap="round" stroke-linejoin="round"/>
<path opacity="0.2" d="M12.0001 0.6C12.0641 0.6 12.1581 0.616 12.2461 0.694L23.2621 10.294C23.4281 10.44 23.4481 10.696 23.3041 10.866C23.2041 10.984 23.0801 11.002 23.0161 11.002C22.9521 11.002 22.8581 10.986 22.7701 10.908L12.7881 2.208C12.5701 2.018 12.2901 1.912 12.0001 1.912C11.7101 1.912 11.4301 2.016 11.2121 2.208L1.23012 10.906C1.14212 10.984 1.04812 11 0.984124 11C0.920124 11 0.796124 10.982 0.696124 10.864C0.552124 10.694 0.572124 10.438 0.738124 10.292L11.7541 0.692C11.8421 0.616 11.9361 0.6 12.0001 0.6ZM12.0001 0C11.7721 0 11.5441 0.08 11.3601 0.24L0.344124 9.84C-0.0678757 10.2 -0.115876 10.83 0.238124 11.25C0.432124 11.482 0.706124 11.6 0.984124 11.6C1.21012 11.6 1.43812 11.52 1.62412 11.36L11.6061 2.66C11.7181 2.562 11.8601 2.512 12.0001 2.512C12.1401 2.512 12.2821 2.562 12.3941 2.66L22.3761 11.358C22.5621 11.52 22.7901 11.598 23.0161 11.598C23.2941 11.598 23.5681 11.48 23.7641 11.248C24.1181 10.828 24.0701 10.198 23.6581 9.838L12.6401 0.24C12.4561 0.08 12.2281 0 12.0001 0Z" fill="#424242"/>
<defs>
<radialGradient id="paint0_radial_339_5552" cx="0" cy="0" r="1" gradientUnits="userSpaceOnUse" gradientTransform="translate(12 0.870429) scale(24.83 24.83)">
<stop stop-color="#FFD54F"/>
<stop offset="0.179" stop-color="#FFD34B"/>
<stop offset="0.3526" stop-color="#FFCE3F"/>
<stop offset="0.524" stop-color="#FFC62C"/>
<stop offset="0.693" stop-color="#FFBA11"/>
<stop offset="0.7785" stop-color="#FFB300"/>
<stop offset="1" stop-color="#FFB300"/>
</radialGradient>
<radialGradient id="paint1_radial_339_5552" cx="0" cy="0" r="1" gradientUnits="userSpaceOnUse" gradientTransform="translate(8.27529 11.15) scale(10.5004)">
<stop stop-color="#D32F2F"/>
<stop offset="0.4374" stop-color="#CA2929"/>
<stop offset="0.9957" stop-color="#B71C1C"/>
</radialGradient>
<radialGradient id="paint2_radial_339_5552" cx="0" cy="0" r="1" gradientUnits="userSpaceOnUse" gradientTransform="translate(8.37515 11.7) scale(9.4258)">
<stop stop-color="#EF5350"/>
<stop offset="1" stop-color="#E53935"/>
</radialGradient>
<radialGradient id="paint3_radial_339_5552" cx="0" cy="0" r="1" gradientUnits="userSpaceOnUse" gradientTransform="translate(8.30024 12.5499) scale(8.323)">
<stop stop-color="#E53935"/>
<stop offset="0.4072" stop-color="#DC3431"/>
<stop offset="1" stop-color="#C62828"/>
</radialGradient>
<radialGradient id="paint4_radial_339_5552" cx="0" cy="0" r="1" gradientUnits="userSpaceOnUse" gradientTransform="translate(8.30024 12.5499) scale(8.323)">
<stop stop-color="#E53935"/>
<stop offset="0.4072" stop-color="#DC3431"/>
<stop offset="1" stop-color="#C62828"/>
</radialGradient>
<linearGradient id="paint5_linear_339_5552" x1="8.40495" y1="21.1339" x2="8.40495" y2="22.4399" gradientUnits="userSpaceOnUse">
<stop offset="0.0042918" stop-color="#BDBDBD"/>
<stop offset="0.2153" stop-color="#B5B5B5"/>
<stop offset="0.5502" stop-color="#9E9E9E"/>
<stop offset="0.9652" stop-color="#787878"/>
<stop offset="1" stop-color="#757575"/>
</linearGradient>
<linearGradient id="paint6_linear_339_5552" x1="8.4049" y1="22.084" x2="8.4049" y2="23.382" gradientUnits="userSpaceOnUse">
<stop offset="0.0042918" stop-color="#BDBDBD"/>
<stop offset="0.3969" stop-color="#BABABA"/>
<stop offset="0.7025" stop-color="#B0B0B0"/>
<stop offset="0.9786" stop-color="#A0A0A0"/>
<stop offset="1" stop-color="#9E9E9E"/>
</linearGradient>
<radialGradient id="paint7_radial_339_5552" cx="0" cy="0" r="1" gradientUnits="userSpaceOnUse" gradientTransform="translate(11.9001 -0.0499999) scale(13.5278)">
<stop stop-color="#F44336"/>
<stop offset="0.34" stop-color="#EE3F35"/>
<stop offset="0.8027" stop-color="#DC3531"/>
<stop offset="0.9957" stop-color="#D32F2F"/>
</radialGradient>
<radialGradient id="paint8_radial_339_5552" cx="0" cy="0" r="1" gradientUnits="userSpaceOnUse" gradientTransform="translate(3.60827 20.2271) rotate(90) scale(4.8596 5.6454)">
<stop stop-color="#9CCC65"/>
<stop offset="0.2538" stop-color="#96C760"/>
<stop offset="0.5994" stop-color="#84B851"/>
<stop offset="0.9952" stop-color="#689F38"/>
</radialGradient>
</defs>
</svg>
