<svg width="24" height="25" viewBox="0 0 24 25" fill="none" xmlns="http://www.w3.org/2000/svg">
<path d="M16.2115 5.55363V10.8451H13.1397V5.61309C13.1397 4.48344 12.228 3.5718 11.0984 3.5718H7.15455C6.97618 3.5718 6.81764 3.59162 6.65909 3.63125C6.59963 3.65107 6.52036 3.67089 6.46091 3.69071C6.40145 3.71053 6.342 3.73035 6.28254 3.76998C6.22309 3.7898 6.16363 3.82944 6.12399 3.86907C5.74745 4.08708 5.45017 4.42399 5.29162 4.82035C5.27181 4.85999 5.27181 4.87981 5.25199 4.91945C5.21235 4.99872 5.19253 5.09781 5.17271 5.17708V5.21672C5.1529 5.33563 5.13308 5.45454 5.13308 5.59327V10.8451H2.08105V5.61309C2.08105 5.35545 2.10087 5.11763 2.14051 4.87981C2.16033 4.80054 2.16033 4.72126 2.18015 4.64199C2.18015 4.60235 2.19996 4.58253 2.19996 4.5429C2.2396 4.40417 2.25942 4.24562 2.31887 4.10689C2.81433 2.52143 4.08271 1.25305 5.66817 0.757595C5.8069 0.717959 5.94563 0.678322 6.10418 0.638685C6.14381 0.638685 6.16363 0.618867 6.20327 0.618867C6.28254 0.599049 6.36181 0.599049 6.44109 0.57923C6.67891 0.539594 6.93655 0.519775 7.17437 0.519775H11.138C11.6335 0.519775 12.1091 0.599049 12.5451 0.717959C12.8226 0.797232 13.0802 0.896324 13.318 1.01523C13.4766 1.09451 13.6351 1.17378 13.7937 1.27287C13.8531 1.31251 13.8928 1.33233 13.9522 1.37196C14.091 1.45124 14.2099 1.55033 14.3288 1.66924C14.4477 1.76833 14.5666 1.88724 14.6855 1.98633C14.8044 2.10524 14.9035 2.22415 15.0026 2.34306C15.1612 2.54125 15.2999 2.73943 15.4188 2.93761C15.4981 3.07634 15.5773 3.21507 15.6566 3.37362C15.7359 3.51234 15.7953 3.67089 15.8548 3.82944C15.8944 3.96817 15.9539 4.10689 15.9935 4.24562C16.1323 4.66181 16.2115 5.09781 16.2115 5.55363Z" fill="#BDBDBD"/>
<path opacity="0.2" d="M16.0923 4.54294C16.0725 4.44385 16.0527 4.32494 16.0131 4.22585C15.9734 4.08712 15.9338 3.94839 15.8743 3.80966C15.8149 3.65112 15.7554 3.51239 15.6761 3.35384C15.5969 3.21511 15.5176 3.05656 15.4383 2.91784C15.2996 2.71965 15.1609 2.52147 15.0221 2.32329C14.923 2.20438 14.8041 2.08547 14.705 1.96656C14.5861 1.84765 14.4672 1.74855 14.3483 1.64946C14.2294 1.55037 14.0907 1.45128 13.9718 1.35219C13.9123 1.31255 13.8727 1.29273 13.8132 1.2531C13.6547 1.154 13.4961 1.07473 13.3376 0.995458C13.0998 0.876548 12.8223 0.777457 12.5647 0.698183C12.5052 0.678365 12.4458 0.658547 12.4061 0.658547C12.0098 0.559455 11.5936 0.5 11.1576 0.5H7.1939C6.99571 0.5 6.81735 0.5 6.63898 0.539637C6.57953 0.539637 6.52007 0.559455 6.46062 0.559455C6.38135 0.579273 6.30207 0.579273 6.2228 0.599092C6.18316 0.599092 6.16334 0.61891 6.12371 0.61891C5.98498 0.658547 5.82643 0.678365 5.6877 0.73782C4.10224 1.23328 2.83386 2.50165 2.33841 4.08712C2.29877 4.22585 2.25913 4.36457 2.2195 4.52312C2.2195 4.56276 2.19968 4.58258 2.19968 4.62221C2.17986 4.70149 2.16004 4.78076 2.16004 4.86003C2.16004 4.91949 2.14022 4.97894 2.14022 5.0384C2.1204 5.21676 2.10059 5.41495 2.10059 5.59331V10.8254H2.69514V5.61313C2.69514 3.13584 4.71661 1.11437 7.1939 1.11437H11.1576C13.615 1.11437 15.6167 3.11602 15.6167 5.57349V10.8452H16.2112V5.55367C16.1914 5.21676 16.1716 4.87985 16.0923 4.54294ZM11.0981 2.95747H7.15426C5.70752 2.95747 4.53824 4.12675 4.53824 5.57349V10.8254H5.13279V5.57349C5.13279 5.51404 5.13279 5.43476 5.15261 5.37531C5.15261 5.31585 5.17243 5.2564 5.17243 5.19695C5.17243 5.17713 5.17243 5.17713 5.17243 5.15731C5.19225 5.05822 5.21206 4.97894 5.2517 4.89967C5.2517 4.86003 5.27152 4.84022 5.29134 4.80058C5.44988 4.40421 5.74716 4.04748 6.12371 3.82948C6.18316 3.78984 6.24262 3.77002 6.28225 3.73039C6.34171 3.71057 6.40116 3.67093 6.46062 3.65111C6.52007 3.6313 6.57953 3.61148 6.6588 3.59166C6.81735 3.55202 6.99571 3.5322 7.15426 3.5322H11.0981C12.2278 3.5322 13.1394 4.44385 13.1394 5.57349V10.8055H13.7339V5.61313C13.7339 4.14657 12.5647 2.95747 11.0981 2.95747Z" fill="#424242"/>
<path d="M16.8456 24.1434H1.42692C0.634187 24.1434 0 23.5092 0 22.7165V11.0038C0 10.2111 0.634187 9.5769 1.42692 9.5769H16.8456C17.6383 9.5769 18.2725 10.2111 18.2725 11.0038V22.7165C18.2923 23.5092 17.6383 24.1434 16.8456 24.1434Z" fill="url(#paint0_linear_503_933)"/>
<path opacity="0.2" d="M16.8456 10.1514C17.3014 10.1514 17.678 10.528 17.678 10.9838V22.6964C17.678 23.1523 17.3014 23.5288 16.8456 23.5288H1.42692C0.971098 23.5288 0.59455 23.1523 0.59455 22.6964V11.0036C0.59455 10.5478 0.971098 10.1713 1.42692 10.1713L16.8456 10.1514ZM16.8456 9.55688H1.42692C0.634187 9.55688 0 10.1911 0 10.9838V22.6964C0 23.4892 0.634187 24.1234 1.42692 24.1234H16.8456C17.6383 24.1234 18.2725 23.4892 18.2725 22.6964V11.0036C18.2923 10.2109 17.6383 9.55688 16.8456 9.55688Z" fill="#424242"/>
<path d="M19.0256 24.381L21.0669 20.9723C21.1066 20.893 21.1066 20.8137 21.0669 20.7345L19.9175 19.0301C19.858 18.9508 19.8778 18.8319 19.9373 18.7526L20.948 17.7221C21.0273 17.6428 21.0273 17.5239 20.9678 17.4446L19.858 15.8591C19.7986 15.7799 19.7986 15.6411 19.8778 15.5817L20.948 14.5115C21.0075 14.452 21.0273 14.3331 20.9877 14.2539L19.7391 11.836L19.7193 10.6667C21.9786 10.0524 23.5839 7.95163 23.4253 5.45452C23.247 2.79886 21.0273 0.65848 18.3716 0.579207C15.5178 0.440479 13.1991 2.73941 13.2189 5.61306C13.2387 7.93181 14.7053 9.89382 16.9249 10.5478L17.024 21.4083C17.024 21.4479 17.0438 21.4875 17.0636 21.5272L18.6491 24.381C18.7284 24.5198 18.9464 24.5198 19.0256 24.381ZM18.332 6.3067C17.2618 6.3067 16.3898 5.41488 16.37 4.34469C16.3502 3.2745 17.2222 2.42231 18.2924 2.42231C19.3626 2.42231 20.2346 3.31414 20.2544 4.38433C20.2742 5.45452 19.4022 6.32652 18.332 6.3067Z" fill="url(#paint1_linear_503_933)"/>
<path opacity="0.2" d="M18.2527 0.916142H18.3915C20.8489 0.995415 22.91 2.97725 23.0686 5.43472C23.2073 7.67419 21.82 9.65603 19.6598 10.2308C19.4815 10.2704 19.3626 10.4289 19.3626 10.6271L19.3824 11.7964C19.3824 11.8559 19.4022 11.9153 19.422 11.9748L20.6111 14.2935L19.6202 15.2844C19.4022 15.5024 19.3824 15.8393 19.5607 16.0772L20.5913 17.5437L19.6797 18.4752C19.4815 18.6932 19.4418 19.0103 19.6004 19.2481L20.6706 20.8732L18.8275 23.945L17.4006 21.3885L17.3213 10.5677C17.3213 10.3893 17.2024 10.2308 17.0438 10.1911C14.9827 9.57675 13.6351 7.77328 13.6351 5.63291C13.6152 4.36453 14.0909 3.17543 14.9827 2.30343C15.8349 1.4116 17.0042 0.916142 18.2527 0.916142ZM18.3518 6.7031C18.9662 6.7031 19.5607 6.46528 19.9769 6.02927C20.3931 5.59327 20.6508 5.01854 20.6508 4.38435C20.6309 3.09616 19.5806 2.04579 18.3122 2.04579H18.2924C17.678 2.04579 17.0835 2.28361 16.6673 2.71961C16.2511 3.15561 15.9934 3.73035 16.0133 4.36453C15.9934 5.63291 17.0438 6.7031 18.3518 6.7031ZM18.2329 0.519775C15.4187 0.519775 13.1991 2.79888 13.2189 5.61309C13.2387 7.93183 14.7053 9.89385 16.9249 10.5479L17.024 21.4083C17.024 21.4479 17.0438 21.4876 17.0636 21.5272L18.6491 24.381C18.6887 24.4603 18.768 24.5 18.8473 24.5C18.9266 24.5 18.986 24.4603 19.0257 24.4009L21.0669 20.9921C21.1066 20.9128 21.1066 20.8336 21.0669 20.7543L19.9175 19.0499C19.858 18.9706 19.8778 18.8517 19.9373 18.7725L20.948 17.7419C21.0273 17.6626 21.0273 17.5437 20.9679 17.4645L19.858 15.879C19.7986 15.7997 19.7986 15.661 19.8778 15.6015L20.948 14.5313C21.0075 14.4719 21.0273 14.353 20.9877 14.2737L19.7391 11.8559L19.7193 10.6866C21.9786 10.0722 23.5839 7.97147 23.4253 5.47436C23.247 2.8187 21.0273 0.678322 18.3716 0.599049C18.3518 0.519775 18.2924 0.519775 18.2329 0.519775ZM18.3518 6.30673C17.2618 6.30673 16.3898 5.4149 16.3898 4.34471C16.37 3.27452 17.2222 2.42234 18.2924 2.42234H18.3122C19.3824 2.44215 20.2544 3.31416 20.2742 4.38435C20.2742 5.45454 19.422 6.30673 18.3518 6.30673Z" fill="#424242"/>
<defs>
<linearGradient id="paint0_linear_503_933" x1="9.13647" y1="24.0859" x2="9.13647" y2="9.61496" gradientUnits="userSpaceOnUse">
<stop offset="0.0053611" stop-color="#FFA000"/>
<stop offset="1" stop-color="#FFC107"/>
</linearGradient>
<linearGradient id="paint1_linear_503_933" x1="18.487" y1="24.3276" x2="18.6904" y2="0.560219" gradientUnits="userSpaceOnUse">
<stop stop-color="#E67716"/>
<stop offset="0.9982" stop-color="#ED9500"/>
</linearGradient>
</defs>
</svg>
