<svg width="38" height="25" viewBox="0 0 38 25" fill="none" xmlns="http://www.w3.org/2000/svg">
<path d="M24.571 0.870565C21.718 0.430415 19.9384 1.7572 19.4127 2.04535C19.2354 2.14351 19.1088 2.20051 19.0011 2.22901C18.8934 2.20051 18.7668 2.14351 18.5894 2.04535C18.067 1.75403 16.2842 0.430415 13.4311 0.870565C8.34568 1.65587 2.53191 9.94904 0.280497 13.4512C-0.245149 14.2682 -0.010825 15.3575 0.806143 15.8863C1.8131 16.5386 3.21272 17.5424 4.64399 18.866C7.64587 21.6019 11.0752 24.7463 19.0011 24.759C26.9301 24.7463 30.3563 21.6019 33.3582 18.866C34.7895 17.5424 36.1891 16.5386 37.196 15.8863C38.0098 15.3575 38.2442 14.2682 37.7217 13.4512C35.4703 9.94904 29.6565 1.65587 24.571 0.870565Z" fill="#EF4D8F"/>
<path d="M18.9696 16.4879C8.62766 16.4879 3.73535 14.341 3.73535 14.341C3.73535 14.341 10.4421 6.56396 18.9696 6.56396C27.4971 6.56396 34.2355 14.3062 34.2355 14.3062C34.2355 14.3062 29.3115 16.4879 18.9696 16.4879Z" fill="#BDBDBD"/>
<path d="M18.9692 12.422C11.0909 12.422 9.31445 9.67346 9.31445 9.67346C11.7939 8.43851 15.7235 7.60571 19.0167 7.60571C22.4018 7.60571 26.2428 8.45751 28.7475 9.73046C28.7475 9.73363 26.8476 12.422 18.9692 12.422Z" fill="white"/>
<path d="M28.7479 9.73376C26.9999 10.2277 23.6656 11.07 19.0013 11.07C14.2958 11.07 10.9962 10.1897 9.3148 9.67676C5.89493 11.8427 3.73535 14.3411 3.73535 14.3411C3.73535 14.3411 8.62449 17.077 18.9696 17.077C29.3115 17.077 34.2355 14.3062 34.2355 14.3062C34.2355 14.3062 32.1139 11.8712 28.7479 9.73376Z" fill="#3E2723"/>
<path d="M13.5449 19.4043C12.6867 18.7774 13.2029 17.6849 14.2288 17.8749C17.3701 18.4576 20.8564 18.4829 23.7918 18.0301C24.8273 17.8717 25.3117 18.9959 24.4251 19.5817C24.4251 19.5817 22.237 20.8451 19.0262 20.8451C15.5081 20.8451 13.5449 19.4043 13.5449 19.4043Z" fill="#FF80AB"/>
</svg>
