<svg width="16" height="17" viewBox="0 0 16 17" fill="none" xmlns="http://www.w3.org/2000/svg">
<path d="M8.00023 1.83203C11.6827 1.83203 14.6679 4.81726 14.6679 8.49973C14.6679 12.1822 11.6827 15.1674 8.00023 15.1674C4.31775 15.1674 1.33252 12.1822 1.33252 8.49973C1.33252 4.81726 4.31775 1.83203 8.00023 1.83203ZM9.95949 11.4995H6.04095C6.47564 13.109 7.23123 14.1674 8.00023 14.1674C8.76923 14.1674 9.52476 13.109 9.95949 11.4995ZM5.00576 11.4999L3.19077 11.4999C3.82966 12.5219 4.78529 13.3256 5.92021 13.7736C5.57203 13.2271 5.2847 12.5429 5.07337 11.7633L5.00576 11.4999ZM12.8097 11.4999L10.9947 11.4999C10.7788 12.3891 10.4671 13.1663 10.0795 13.7736C11.1442 13.3536 12.0506 12.6209 12.6862 11.6889L12.8097 11.4999ZM4.72917 7.16596H2.49076L2.48759 7.17746C2.3862 7.60166 2.33252 8.0444 2.33252 8.49973C2.33252 9.20386 2.46091 9.87793 2.69556 10.4999L4.811 10.4997C4.71613 9.86693 4.66585 9.1948 4.66585 8.49973C4.66585 8.04373 4.68749 7.5976 4.72917 7.16596ZM10.2648 7.166H5.7356C5.69025 7.59286 5.66585 8.03933 5.66585 8.49973C5.66585 9.20606 5.72328 9.8796 5.82567 10.4998H10.1748C10.2772 9.8796 10.3346 9.20606 10.3346 8.49973C10.3346 8.03933 10.3102 7.59286 10.2648 7.166ZM13.51 7.1654L11.2713 7.16598C11.313 7.5976 11.3346 8.04373 11.3346 8.49973C11.3346 9.1948 11.2843 9.86693 11.1894 10.4997L13.3049 10.4999C13.5395 9.87793 13.6679 9.20386 13.6679 8.49973C13.6679 8.04013 13.6132 7.59333 13.51 7.1654ZM5.92092 3.22583L5.90565 3.23164C4.54077 3.77478 3.43676 4.83299 2.83365 6.16623L4.86573 6.16648C5.07463 4.99795 5.43919 3.98066 5.92092 3.22583ZM8.00023 2.83203L7.92309 2.83556C7.07949 2.91273 6.2645 4.24738 5.88603 6.1662H10.1144C9.73696 4.25276 8.92549 2.92022 8.08443 2.83624L8.00023 2.83203ZM10.0802 3.22587L10.1514 3.34193C10.5976 4.08358 10.9364 5.05683 11.1347 6.16648L13.1668 6.16623C12.5904 4.89196 11.5564 3.86894 10.2744 3.30672L10.0802 3.22587Z" fill="white"/>
</svg>
