<svg width="24" height="24" viewBox="0 0 24 24" fill="none" xmlns="http://www.w3.org/2000/svg">
<path d="M12 24C18.6274 24 24 18.6274 24 12C24 5.37258 18.6274 0 12 0C5.37258 0 0 5.37258 0 12C0 18.6274 5.37258 24 12 24Z" fill="#37474F"/>
<path d="M18.6402 22.0002C16.7602 23.2402 14.5402 23.9802 12.1202 24.0002H11.6402C9.28023 23.9402 7.08023 23.1802 5.24023 21.9202L8.24023 18.9602H15.3002L18.6402 22.0002Z" fill="#424242"/>
<path d="M9.48025 19.32L6.72025 22.76C6.02025 22.42 5.38025 22.02 4.76025 21.56L7.02025 19.26L9.48025 19.32Z" fill="#757575"/>
<path d="M19.4201 21.4201C18.8001 21.9201 18.1201 22.3401 17.4001 22.7001L14.6201 19.2001L17.2001 19.1401L19.4201 21.4201Z" fill="#757575"/>
<path d="M8.00002 20.1801C8.54126 20.1801 8.98002 19.7682 8.98002 19.2601C8.98002 18.752 8.54126 18.3401 8.00002 18.3401C7.45878 18.3401 7.02002 18.752 7.02002 19.2601C7.02002 19.7682 7.45878 20.1801 8.00002 20.1801Z" fill="black"/>
<path d="M16.1602 20.1801C16.7014 20.1801 17.1402 19.7682 17.1402 19.2601C17.1402 18.752 16.7014 18.3401 16.1602 18.3401C15.6189 18.3401 15.1802 18.752 15.1802 19.2601C15.1802 19.7682 15.6189 20.1801 16.1602 20.1801Z" fill="black"/>
<path d="M16.4398 19.4599H7.5798C7.1398 19.4599 6.7998 19.0999 6.7998 18.6799C6.7998 18.2599 7.1598 17.8999 7.5798 17.8999H16.4398C16.8798 17.8999 17.2198 18.2599 17.2198 18.6799C17.2198 19.0999 16.8598 19.4599 16.4398 19.4599Z" fill="#424242"/>
<path d="M17.4798 18.6602H6.51984C5.59984 18.6602 4.83984 17.9602 4.83984 17.1002V6.84016C4.83984 3.34016 7.55984 3.16016 11.9998 3.16016C16.6598 3.16016 19.1598 3.38016 19.1598 6.86016V17.1202C19.1598 17.9602 18.4198 18.6602 17.4798 18.6602Z" fill="url(#paint0_linear_503_504)"/>
<path opacity="0.1" d="M11.9998 3.73989C17.0798 3.73989 18.5598 4.13989 18.5598 6.83989V17.0999C18.5598 17.6199 18.0798 18.0599 17.4798 18.0599H6.51984C5.91984 18.0599 5.43984 17.6199 5.43984 17.0999V6.83989C5.43984 4.01989 7.33984 3.73989 11.9998 3.73989ZM11.9998 3.13989C7.55984 3.13989 4.83984 3.33989 4.83984 6.83989V17.0999C4.83984 17.9599 5.59984 18.6599 6.51984 18.6599H17.4998C18.4198 18.6599 19.1798 17.9599 19.1798 17.0999V6.83989C19.1598 3.37989 16.6598 3.13989 11.9998 3.13989Z" fill="#424242"/>
<path d="M9.64016 5.81983C9.64016 5.45983 9.34016 5.19983 8.98016 5.21983C7.42016 5.35983 6.16016 6.01983 6.16016 7.13983V13.3598C6.16016 13.6998 6.42016 13.9598 6.76016 13.9598H9.04016C9.38016 13.9598 9.64016 13.6998 9.64016 13.3598V5.81983Z" fill="#4FC3F7"/>
<path d="M14.3799 5.81983C14.3799 5.45983 14.6799 5.19983 15.0399 5.21983C16.5999 5.35983 17.8599 6.01983 17.8599 7.13983V13.3598C17.8599 13.6998 17.5999 13.9598 17.2599 13.9598H14.9799C14.6399 13.9598 14.3799 13.6998 14.3799 13.3598V5.81983Z" fill="#4FC3F7"/>
<path d="M9.24021 17.02H6.62021C6.40021 17.02 6.22021 16.84 6.22021 16.62V15.42C6.22021 15.2 6.40021 15.02 6.62021 15.02H9.26021C9.48021 15.02 9.66021 15.2 9.66021 15.42V16.62C9.64021 16.84 9.46021 17.02 9.24021 17.02Z" fill="#212121"/>
<path d="M17.3799 17.02H14.7799C14.5599 17.02 14.3799 16.84 14.3799 16.62V15.42C14.3799 15.2 14.5599 15.02 14.7799 15.02H17.3799C17.5999 15.02 17.7799 15.2 17.7799 15.42V16.62C17.7799 16.84 17.5799 17.02 17.3799 17.02Z" fill="#212121"/>
<path d="M12.8802 4.81996H11.1202C10.9002 4.81996 10.7202 4.63996 10.7202 4.41996V4.35996C10.7202 4.13996 10.9002 3.95996 11.1202 3.95996H12.8802C13.1002 3.95996 13.2802 4.13996 13.2802 4.35996V4.41996C13.2802 4.63996 13.1002 4.81996 12.8802 4.81996Z" fill="#FDD835"/>
<path d="M12.8401 13.94H11.2001C10.8601 13.94 10.6001 13.68 10.6001 13.34V6.90005C10.6001 6.56005 10.8601 6.30005 11.2001 6.30005H12.8401C13.1801 6.30005 13.4401 6.56005 13.4401 6.90005V13.34C13.4401 13.68 13.1801 13.94 12.8401 13.94Z" fill="#4FC3F7"/>
<path d="M8.66012 16.6C8.95835 16.6 9.20012 16.3583 9.20012 16.06C9.20012 15.7618 8.95835 15.52 8.66012 15.52C8.36188 15.52 8.12012 15.7618 8.12012 16.06C8.12012 16.3583 8.36188 16.6 8.66012 16.6Z" fill="#FDD835"/>
<path d="M7.06002 16.6C7.35825 16.6 7.60002 16.3583 7.60002 16.06C7.60002 15.7618 7.35825 15.52 7.06002 15.52C6.76179 15.52 6.52002 15.7618 6.52002 16.06C6.52002 16.3583 6.76179 16.6 7.06002 16.6Z" fill="#F44336"/>
<path d="M16.8598 16.6C17.1581 16.6 17.3998 16.3583 17.3998 16.06C17.3998 15.7618 17.1581 15.52 16.8598 15.52C16.5616 15.52 16.3198 15.7618 16.3198 16.06C16.3198 16.3583 16.5616 16.6 16.8598 16.6Z" fill="#F44336"/>
<path d="M15.2602 16.6C15.5584 16.6 15.8002 16.3583 15.8002 16.06C15.8002 15.7618 15.5584 15.52 15.2602 15.52C14.962 15.52 14.7202 15.7618 14.7202 16.06C14.7202 16.3583 14.962 16.6 15.2602 16.6Z" fill="#FDD835"/>
<path opacity="0.2" d="M12 0.8C18.18 0.8 23.2 5.82 23.2 12C23.2 18.18 18.18 23.2 12 23.2C5.82 23.2 0.8 18.18 0.8 12C0.8 5.82 5.82 0.8 12 0.8ZM12 0C5.38 0 0 5.38 0 12C0 18.62 5.38 24 12 24C18.62 24 24 18.62 24 12C24 5.38 18.62 0 12 0Z" fill="#EEEEEE"/>
<path opacity="0.2" d="M9.04016 5.61997C9.16016 5.61997 9.24016 5.71997 9.24016 5.81997V13.36C9.24016 13.48 9.14016 13.56 9.04016 13.56H6.78016C6.68016 13.56 6.58016 13.48 6.58016 13.36V7.11997C6.58016 6.15997 7.90016 5.69997 9.04016 5.59997V5.61997ZM9.04016 5.21997C9.02016 5.21997 9.00016 5.21997 8.98016 5.21997C7.42016 5.35997 6.16016 6.01997 6.16016 7.13997V13.36C6.16016 13.7 6.42016 13.96 6.76016 13.96H9.04016C9.38016 13.96 9.64016 13.7 9.64016 13.36V5.81997C9.64016 5.47997 9.38016 5.21997 9.04016 5.21997Z" fill="#424242"/>
<path opacity="0.2" d="M14.9804 5.61995C16.1404 5.71995 17.4604 6.17995 17.4604 7.13995V13.36C17.4604 13.48 17.3804 13.56 17.2604 13.56H14.9804C14.8604 13.56 14.7804 13.48 14.7804 13.36V5.81995C14.7804 5.69995 14.8604 5.61995 14.9804 5.61995ZM14.9804 5.21995C14.6604 5.21995 14.3804 5.47995 14.3804 5.81995V13.36C14.3804 13.7 14.6404 13.96 14.9804 13.96H17.2604C17.6004 13.96 17.8604 13.7 17.8604 13.36V7.11995C17.8604 5.99995 16.6204 5.33995 15.0404 5.19995C15.0204 5.21995 15.0004 5.21995 14.9804 5.21995Z" fill="#424242"/>
<path opacity="0.2" d="M12.8401 6.70005C12.9601 6.70005 13.0401 6.80005 13.0401 6.90005V13.34C13.0401 13.46 12.9601 13.54 12.8401 13.54H11.2001C11.1001 13.54 11.0001 13.46 11.0001 13.34V6.90005C11.0001 6.80005 11.1001 6.70005 11.2001 6.70005H12.8401ZM12.8401 6.30005H11.2001C10.8601 6.30005 10.6001 6.56005 10.6001 6.90005V13.34C10.6001 13.68 10.8601 13.94 11.2001 13.94H12.8401C13.1801 13.94 13.4401 13.68 13.4401 13.34V6.90005C13.4401 6.56005 13.1801 6.30005 12.8401 6.30005Z" fill="#424242"/>
<defs>
<linearGradient id="paint0_linear_503_504" x1="11.9998" y1="3.28396" x2="11.9998" y2="17.9273" gradientUnits="userSpaceOnUse">
<stop offset="0.1079" stop-color="#F5F5F5"/>
<stop offset="0.6316" stop-color="#E8E8E8"/>
<stop offset="0.8685" stop-color="#E0E0E0"/>
</linearGradient>
</defs>
</svg>
