<svg width="24" height="24" viewBox="0 0 24 24" fill="none" xmlns="http://www.w3.org/2000/svg">
<path d="M12.656 21.4975L11.9952 23.9999L11.3345 21.4975V10.9114C11.5012 10.9114 11.8566 10.9395 11.9952 10.9395C12.1619 10.9395 12.5174 10.9395 12.656 10.9114V21.4975Z" fill="url(#paint0_linear_503_493)"/>
<path d="M17.5844 5.5913V5.87046C17.4177 8.63799 15.2366 10.9014 12.4691 11.1545C12.3024 11.1826 12.1618 11.1826 11.9931 11.1826C11.8264 11.1826 11.6858 11.1826 11.5452 11.1545C8.7777 10.9034 6.59662 8.69423 6.42992 5.87046V5.5913C6.4018 2.51649 8.91829 0 11.9931 0C15.0679 0 17.5844 2.48837 17.5844 5.5913Z" fill="url(#paint1_radial_503_493)"/>
<g opacity="0.2">
<path d="M11.9789 0.60251C14.7304 0.60251 16.9677 2.83983 16.9677 5.5913V5.85239C16.8131 8.26443 14.9654 10.2306 12.5654 10.5299C12.2641 10.568 12.0372 10.8231 12.0372 11.1284V21.4192L11.9789 21.6422L11.9207 21.4192V11.1244C11.9207 10.8211 11.6958 10.566 11.3945 10.5259C9.00656 10.2186 7.1689 8.25239 7.01827 5.85038V5.58326C7.00823 4.26778 7.51635 3.02259 8.45225 2.07866C9.39417 1.12669 10.6474 0.60251 11.9789 0.60251ZM11.9789 0C8.90413 0 6.38764 2.51649 6.41576 5.5913V5.87046C6.57844 8.61992 8.65308 10.7809 11.3182 11.1244V21.4976L11.9789 24L12.6397 21.4976V11.1284C15.3168 10.793 17.4056 8.57573 17.5682 5.87046V5.5913C17.5702 2.48837 15.0538 0 11.9789 0Z" fill="#424242"/>
</g>
<defs>
<linearGradient id="paint0_linear_503_493" x1="11.994" y1="10.8742" x2="11.994" y2="24.0461" gradientUnits="userSpaceOnUse">
<stop stop-color="#757575"/>
<stop offset="0.2128" stop-color="#9E9E9E"/>
<stop offset="0.4465" stop-color="#C3C3C3"/>
<stop offset="0.6632" stop-color="#DFDFDF"/>
<stop offset="0.8545" stop-color="#EFEFEF"/>
<stop offset="1" stop-color="#F5F5F5"/>
</linearGradient>
<radialGradient id="paint1_radial_503_493" cx="0" cy="0" r="1" gradientUnits="userSpaceOnUse" gradientTransform="translate(10.0191 3.32144) scale(7.79889)">
<stop offset="0.0958" stop-color="#F44336"/>
<stop offset="0.2341" stop-color="#EC3E32"/>
<stop offset="0.4539" stop-color="#D42F29"/>
<stop offset="0.6732" stop-color="#B71C1C"/>
<stop offset="0.9665" stop-color="#C62828"/>
</radialGradient>
</defs>
</svg>
