<svg width="24" height="24" viewBox="0 0 24 24" fill="none" xmlns="http://www.w3.org/2000/svg">
<path d="M22.4 24H1.6C0.72 24 0 23.28 0 22.4V1.6C0 0.72 0.72 0 1.6 0H22.4C23.28 0 24 0.72 24 1.6V22.4C24 23.28 23.28 24 22.4 24Z" fill="url(#paint0_linear_503_566)"/>
<path opacity="0.2" d="M22.4 0.6C22.96 0.6 23.4 1.04 23.4 1.6V22.4C23.4 22.96 22.96 23.4 22.4 23.4H1.6C1.04 23.4 0.6 22.96 0.6 22.4V1.6C0.6 1.04 1.04 0.6 1.6 0.6H22.4ZM22.4 0H1.6C0.72 0 0 0.72 0 1.6V22.4C0 23.28 0.72 24 1.6 24H22.4C23.28 24 24 23.28 24 22.4V1.6C24 0.72 23.28 0 22.4 0Z" fill="#424242"/>
<path d="M7.76016 21.1C7.66016 21.1 7.56016 21.1 7.44016 21.08C6.78016 20.96 6.24016 20.5 6.02016 19.86L3.00016 10.76C2.68016 9.80002 3.20016 8.78002 4.16016 8.46002C5.12016 8.14002 6.14016 8.66002 6.46016 9.62002L8.42016 15.52L17.8402 3.60002C18.4602 2.82002 19.6002 2.68002 20.4002 3.30002C21.1802 3.92002 21.3202 5.06002 20.7002 5.86002L9.18016 20.4C8.84016 20.84 8.30016 21.1 7.76016 21.1Z" fill="url(#paint1_linear_503_566)"/>
<path opacity="0.2" d="M19.2802 3.3599C19.5802 3.3599 19.8802 3.4599 20.1202 3.6599C20.4002 3.8799 20.5802 4.2199 20.6202 4.5799C20.6602 4.9399 20.5602 5.2999 20.3402 5.5799L8.82016 20.1399C8.56016 20.4599 8.16016 20.6599 7.74016 20.6599C7.66016 20.6599 7.58016 20.6599 7.50016 20.6399C7.00016 20.5599 6.60016 20.1999 6.44016 19.7199L3.42016 10.6199C3.18016 9.8999 3.56016 9.1399 4.28016 8.8999C4.42016 8.8599 4.56016 8.8199 4.72016 8.8199C5.30016 8.8199 5.82016 9.1999 6.02016 9.7599L7.98016 15.6599C8.04016 15.8199 8.16016 15.9399 8.34016 15.9599H8.42016C8.56016 15.9599 8.68016 15.8999 8.78016 15.7799L18.2002 3.8799C18.4602 3.5399 18.8602 3.3599 19.2802 3.3599ZM19.2802 2.8999C18.7402 2.8999 18.2202 3.1399 17.8602 3.5799L8.42016 15.4999L6.46016 9.5999C6.20016 8.8399 5.50016 8.3599 4.74016 8.3599C4.54016 8.3599 4.36016 8.3999 4.16016 8.4599C3.20016 8.7799 2.68016 9.7999 3.00016 10.7599L6.04016 19.8599C6.26016 20.4999 6.80016 20.9599 7.46016 21.0799C7.56016 21.0999 7.68016 21.0999 7.78016 21.0999C8.34016 21.0999 8.86016 20.8399 9.20016 20.4199L20.7202 5.8599C21.3402 5.0799 21.2202 3.9199 20.4202 3.2999C20.0802 3.0399 19.6802 2.8999 19.2802 2.8999Z" fill="#424242"/>
<defs>
<linearGradient id="paint0_linear_503_566" x1="12" y1="0.04" x2="12" y2="24.08" gradientUnits="userSpaceOnUse">
<stop stop-color="#81C784"/>
<stop offset="0.4141" stop-color="#6EBE71"/>
<stop offset="1" stop-color="#4CAF50"/>
</linearGradient>
<linearGradient id="paint1_linear_503_566" x1="11.997" y1="2.90002" x2="11.997" y2="21.16" gradientUnits="userSpaceOnUse">
<stop stop-color="white"/>
<stop offset="0.5111" stop-color="#EBEBEB"/>
<stop offset="1" stop-color="#E1E1E1"/>
</linearGradient>
</defs>
</svg>
