<svg width="25" height="24" viewBox="0 0 25 24" fill="none" xmlns="http://www.w3.org/2000/svg">
<path d="M22.4533 9.50115C23.2069 8.81201 25.0094 5.38241 21.6568 2.31081C20.5291 1.27621 17.9784 0.168213 15.0983 0.168213C10.729 0.168213 5.15855 2.38957 2.99268 7.36392C-0.127251 14.5238 5.76356 21.6479 12.9879 21.6479C16.3155 21.6479 19.9599 19.5966 21.442 17.5167C21.535 17.386 21.6371 17.2625 21.7337 17.1354C22.0989 16.6611 22.8095 15.3418 20.4199 14.3359C19.3584 13.8884 19.2278 12.8574 19.3584 12.3436C19.7504 10.7917 21.0858 10.7523 22.4533 9.50115ZM17.1066 17.2661C15.9485 17.6599 14.7492 17.2231 14.427 16.2887C14.1048 15.3562 14.7815 14.2804 15.9396 13.8866C17.0977 13.4928 18.297 13.9295 18.6192 14.8639C18.9414 15.7965 18.2648 16.8723 17.1066 17.2661Z" fill="url(#paint0_radial_503_583)"/>
<path opacity="0.2" d="M6.93966 17.2496C8.16615 16.243 8.95604 15.178 8.70393 14.8708C8.45181 14.5636 7.25316 15.1306 6.02667 16.1371C4.80018 17.1437 4.01029 18.2087 4.2624 18.5159C4.51452 18.8231 5.71317 18.2562 6.93966 17.2496Z" fill="#FFA726"/>
<path opacity="0.2" d="M3.49744 17.6671C3.49744 17.6671 7.80233 13.3479 9.23789 14.0675C10.6734 14.787 5.65078 19.1063 5.65078 19.1063H4.933L5.65078 19.8258C5.65078 19.8258 12.1072 14.787 11.3912 12.6265C10.6752 10.466 3.4151 16.6916 2.93359 16.9726L3.49744 17.6671Z" fill="#FFA726"/>
<path opacity="0.2" d="M1.69141 15.1182C1.69141 15.1182 7.69677 10.3211 13.6109 9.75186C13.6109 9.75186 15.4921 9.333 15.0751 10.7704C14.6562 12.2095 12.5064 17.3056 7.15799 20.8121L6.5315 20.3628C6.5315 20.3628 15.6729 13.978 12.7159 11.0693C12.7159 11.0693 12.3865 10.5305 10.4462 11.3091C8.50585 12.0878 1.9599 16.4965 1.9599 16.4965L1.69141 15.1182Z" fill="#FFA726"/>
<path opacity="0.2" d="M0.826904 13.5071C0.826904 13.5071 5.15328 10.4534 10.0668 8.83531C14.9802 7.21717 16.96 4.05249 16.96 4.05249C16.96 4.05249 16.9958 6.92182 9.29707 9.93972C1.59838 12.9576 1.48741 14.4648 1.48741 14.4648L0.826904 13.5071Z" fill="#FFA726"/>
<path opacity="0.2" d="M13.1544 0.075179C13.1544 0.075179 6.18779 8.31623 2.55772 6.40274L1.89722 7.68974C1.89722 7.68974 8.02073 8.46301 14.0691 0L13.1544 0.075179Z" fill="#FFA726"/>
<path opacity="0.2" d="M1.4981 9.61949C1.4981 9.61949 6.74094 8.88381 9.85729 6.78596C12.9736 4.68811 14.5488 0.938109 19.4265 1.12069L20.4164 1.52522C20.4164 1.52522 17.2266 0.825341 14.5864 3.95422C11.9462 7.0831 11.2875 7.33906 8.94082 8.18572C6.59416 9.03238 0.984375 10.2818 0.984375 10.2818L1.4981 9.61949Z" fill="#FFA726"/>
<path opacity="0.2" d="M22.6737 3.07861C22.6737 3.07861 18.9165 5.21942 17.7566 6.66394C17.7566 6.66394 22.3031 4.38351 23.6492 4.66274L22.6737 3.07861Z" fill="#FFA726"/>
<path opacity="0.2" d="M23.6581 5.75122C23.6581 5.75122 16.6307 8.29836 14.9355 12.8896C13.2404 17.4809 10.9779 18.8735 10.4624 19.1313C9.94868 19.389 7.12051 21.8646 7.0686 22.0722L9.1772 22.4857C9.1772 22.4857 13.9063 18.4618 14.42 15.6766C14.9338 12.8914 17.6402 9.0054 24.3777 6.06089L23.6581 5.75122Z" fill="#FFA726"/>
<path opacity="0.2" d="M16.1276 16.6235C16.1276 16.6235 14.2248 21.1629 10.729 24C10.729 24 14.7386 22.142 17.2588 17.0352L16.1276 16.6235Z" fill="#FFA726"/>
<path opacity="0.2" d="M20.5651 14.3751C20.5651 14.3751 19.0687 20.4646 16.364 21.97C16.364 21.97 20.1051 21.6424 21.8306 14.1782L20.5651 14.3751Z" fill="#FFA726"/>
<path opacity="0.2" d="M15.0983 0.705206C17.7313 0.705206 20.2087 1.71296 21.2952 2.70819C22.4801 3.7947 23.0816 5.01726 23.0798 6.34363C23.078 7.73623 22.4014 8.82454 22.0917 9.10556C21.6335 9.52442 21.1806 9.7947 20.7403 10.056C19.9187 10.5465 19.1418 11.0101 18.8393 12.213C18.6532 12.954 18.8644 14.2625 20.214 14.8317C20.9945 15.1611 21.4617 15.5423 21.5655 15.9379C21.6585 16.2887 21.4455 16.6342 21.3113 16.8078C21.2809 16.8472 21.2504 16.8848 21.22 16.9242C21.1502 17.0137 21.0768 17.105 21.007 17.2052C19.6663 19.0829 16.2206 21.1109 12.9879 21.1109C9.47955 21.1109 6.1144 19.3031 4.20807 16.3926C2.46642 13.7327 2.2033 10.5214 3.48492 7.57871C4.43003 5.40926 6.15378 3.61034 8.47179 2.37525C10.4927 1.29769 12.8465 0.705206 15.0983 0.705206ZM16.2475 17.948C16.5947 17.948 16.942 17.889 17.2803 17.7744C18.0517 17.5131 18.6782 16.9815 19.004 16.3192C19.2636 15.7893 19.3065 15.2094 19.1275 14.6885C18.8161 13.7881 17.9032 13.2046 16.8006 13.2046C16.4533 13.2046 16.106 13.2637 15.7677 13.3782C14.9963 13.6396 14.3698 14.1712 14.044 14.8335C13.7844 15.3633 13.7415 15.9433 13.9205 16.4642C14.2319 17.3663 15.1448 17.948 16.2475 17.948ZM15.0983 0.168213C10.729 0.168213 5.15855 2.38957 2.99268 7.36392C-0.127251 14.5238 5.76356 21.6479 12.9879 21.6479C16.3155 21.6479 19.9599 19.5966 21.442 17.5167C21.535 17.386 21.6371 17.2625 21.7337 17.1354C22.0989 16.6611 22.8095 15.3418 20.4199 14.3359C19.3584 13.8884 19.2278 12.8574 19.3584 12.3436C19.7486 10.7917 21.084 10.7506 22.4515 9.50115C23.2051 8.81201 25.0076 5.38241 21.655 2.31081C20.5291 1.27621 17.9784 0.168213 15.0983 0.168213ZM16.2475 17.4111C15.4062 17.4111 14.6705 16.9904 14.427 16.2905C14.1048 15.3579 14.7815 14.2822 15.9396 13.8884C16.2278 13.7899 16.5195 13.7434 16.7988 13.7434C17.6401 13.7434 18.3757 14.164 18.6192 14.8657C18.9414 15.7983 18.2648 16.8741 17.1066 17.2679C16.8185 17.3645 16.5267 17.4111 16.2475 17.4111Z" fill="#424242"/>
<path d="M13.1636 5.46573C14.3734 5.08819 15.1088 3.99569 14.806 3.02557C14.5033 2.05546 13.2771 1.57508 12.0673 1.95262C10.8575 2.33017 10.1221 3.42267 10.4249 4.39279C10.7276 5.3629 11.9538 5.84328 13.1636 5.46573Z" fill="#C62828"/>
<path d="M14.4629 2.80667C14.7511 3.74999 14.0208 4.81324 12.8287 5.18018C11.6366 5.54713 10.4355 5.07994 10.1473 4.13662C9.85912 3.19331 10.5894 2.13006 11.7816 1.76312C12.9737 1.39617 14.173 1.86335 14.4629 2.80667Z" fill="url(#paint1_radial_503_583)"/>
<path d="M8.21443 9.33995C9.43558 8.95887 10.1787 7.85892 9.87414 6.88314C9.56963 5.90736 8.33285 5.42525 7.11171 5.80633C5.89057 6.18741 5.14749 7.28736 5.452 8.26315C5.75651 9.23893 6.99329 9.72103 8.21443 9.33995Z" fill="#1565C0"/>
<path d="M9.57637 6.63913C9.87351 7.60751 9.12172 8.69581 7.90095 9.0735C6.68019 9.45118 5.44869 8.97147 5.15155 8.00309C4.85442 7.03472 5.60621 5.94641 6.82697 5.56872C8.04773 5.19104 9.27924 5.67075 9.57637 6.63913Z" fill="url(#paint2_radial_503_583)"/>
<path d="M6.90269 14.7509C8.15781 14.3592 8.92055 13.2254 8.60632 12.2185C8.29209 11.2116 7.01989 10.7128 5.76477 11.1045C4.50966 11.4962 3.74692 12.63 4.06115 13.6369C4.37538 14.6438 5.64758 15.1426 6.90269 14.7509Z" fill="#F9A825"/>
<path d="M8.31621 12.0859C8.6044 13.0293 7.87408 14.0925 6.68196 14.4595C5.48984 14.8264 4.28876 14.3592 4.00058 13.4159C3.71239 12.4726 4.4427 11.4093 5.63483 11.0424C6.82695 10.6737 8.02802 11.1408 8.31621 12.0859Z" fill="url(#paint3_radial_503_583)"/>
<path d="M10.6173 19.6772C11.8138 19.3033 12.5365 18.2092 12.2316 17.2336C11.9267 16.2579 10.7096 15.7701 9.5131 16.144C8.31662 16.5179 7.59387 17.612 7.89878 18.5877C8.2037 19.5633 9.42083 20.0512 10.6173 19.6772Z" fill="#558B2F"/>
<path d="M11.9266 17.0674C12.2147 18.0107 11.4844 19.074 10.2923 19.4409C9.10019 19.8079 7.89911 19.3407 7.61093 18.3974C7.32274 17.454 8.05305 16.3908 9.24518 16.0239C10.4373 15.6569 11.6384 16.1241 11.9266 17.0674Z" fill="url(#paint4_radial_503_583)"/>
<defs>
<radialGradient id="paint0_radial_503_583" cx="0" cy="0" r="1" gradientUnits="userSpaceOnUse" gradientTransform="translate(12.2783 3.16982) rotate(90) scale(19.0525 12.5061)">
<stop stop-color="#FFCC80"/>
<stop offset="0.2942" stop-color="#FFCB7D"/>
<stop offset="0.4879" stop-color="#FFC774"/>
<stop offset="0.6526" stop-color="#FFC166"/>
<stop offset="0.8012" stop-color="#FFB850"/>
<stop offset="0.9375" stop-color="#FFAD35"/>
<stop offset="1" stop-color="#FFA726"/>
</radialGradient>
<radialGradient id="paint1_radial_503_583" cx="0" cy="0" r="1" gradientUnits="userSpaceOnUse" gradientTransform="translate(12.0119 1.92851) rotate(90) scale(3.06068 2.38672)">
<stop stop-color="#EF5350"/>
<stop offset="0.3459" stop-color="#E94B49"/>
<stop offset="0.8869" stop-color="#D73534"/>
<stop offset="1" stop-color="#D32F2F"/>
</radialGradient>
<radialGradient id="paint2_radial_503_583" cx="0" cy="0" r="1" gradientUnits="userSpaceOnUse" gradientTransform="translate(7.06352 5.738) rotate(90) scale(3.64922 2.84567)">
<stop stop-color="#42A5F5"/>
<stop offset="0.2859" stop-color="#3B9DEF"/>
<stop offset="0.7328" stop-color="#2787DE"/>
<stop offset="1" stop-color="#1976D2"/>
</radialGradient>
<radialGradient id="paint3_radial_503_583" cx="0" cy="0" r="1" gradientUnits="userSpaceOnUse" gradientTransform="translate(5.86625 11.2064) rotate(90) scale(3.76002 2.93207)">
<stop stop-color="#FFEB3B"/>
<stop offset="0.436" stop-color="#FFEB3B"/>
<stop offset="0.6129" stop-color="#FEE238"/>
<stop offset="0.8995" stop-color="#FCCA30"/>
<stop offset="1" stop-color="#FBC02D"/>
</radialGradient>
<radialGradient id="paint4_radial_503_583" cx="0" cy="0" r="1" gradientUnits="userSpaceOnUse" gradientTransform="translate(9.47585 16.1885) rotate(90) scale(3.06068 2.38672)">
<stop stop-color="#8BC34A"/>
<stop offset="0.3459" stop-color="#83BB46"/>
<stop offset="0.8869" stop-color="#6DA53B"/>
<stop offset="1" stop-color="#689F38"/>
</radialGradient>
</defs>
</svg>
