<svg width="24" height="24" viewBox="0 0 24 24" fill="none" xmlns="http://www.w3.org/2000/svg">
<path d="M17.5989 23.9985H1.5999C0.719955 23.9985 0 23.2785 0 22.3986V1.5999C0 0.719955 0.719955 0 1.5999 0H17.5989C18.4788 0 19.1988 0.719955 19.1988 1.5999V22.3986C19.1988 23.2785 18.4788 23.9985 17.5989 23.9985Z" fill="url(#paint0_linear_503_535)"/>
<path d="M1.6001 2.3999H7.19975V3.19985H1.6001V2.3999Z" fill="#BDBDBD"/>
<path d="M1.6001 4.79956H16.7991V5.59951H1.6001V4.79956Z" fill="#BDBDBD"/>
<path d="M1.6001 7.19946H16.7991V7.99941H1.6001V7.19946Z" fill="#BDBDBD"/>
<path d="M1.6001 9.59937H16.7991V10.3993H1.6001V9.59937Z" fill="#BDBDBD"/>
<path d="M1.6001 11.9993H16.7991V12.7992H1.6001V11.9993Z" fill="#BDBDBD"/>
<path d="M1.6001 14.3992H12.7994V15.1991H1.6001V14.3992Z" fill="#BDBDBD"/>
<path d="M1.6001 16.7991H11.1995V17.599H1.6001V16.7991Z" fill="#BDBDBD"/>
<path d="M1.6001 19.1987H5.59985V19.9987H1.6001V19.1987Z" fill="#BDBDBD"/>
<path opacity="0.2" d="M17.5989 0.599962C18.1509 0.599962 18.5988 1.04793 18.5988 1.5999V22.3986C18.5988 22.9506 18.1509 23.3985 17.5989 23.3985H1.5999C1.04793 23.3985 0.599963 22.9506 0.599963 22.3986V1.5999C0.599963 1.04793 1.04793 0.599962 1.5999 0.599962H17.5989ZM17.5989 0H1.5999C0.719955 0 0 0.719955 0 1.5999V22.3986C0 23.2785 0.719955 23.9985 1.5999 23.9985H17.5989C18.4788 23.9985 19.1988 23.2785 19.1988 22.3986V1.5999C19.1988 0.719955 18.4788 0 17.5989 0Z" fill="#424242"/>
<path d="M6.42962 19.2287L7.33556 16.8109L7.95952 15.147C8.09951 14.717 8.3395 14.327 8.65948 14.007L10.0994 12.5671L13.8332 16.3009L12.3932 17.7408C12.0733 18.0608 11.6833 18.3008 11.2533 18.4408L9.58942 19.0647L7.17157 19.9707C6.7136 20.1187 6.27963 19.6847 6.42962 19.2287Z" fill="url(#paint1_linear_503_535)"/>
<path opacity="0.2" d="M10.0974 13.4151L12.9813 16.2989L11.9653 17.3148C11.7133 17.5668 11.4014 17.7588 11.0634 17.8688L11.0394 17.8768L9.37549 18.5008L7.00964 19.3867L7.89559 17.0209L8.51955 15.357L8.52755 15.333C8.63754 14.995 8.82953 14.683 9.08151 14.431L10.0974 13.4151ZM10.0974 12.5671L8.65754 14.007C8.33756 14.327 8.09757 14.717 7.95758 15.147L7.33362 16.8109L6.42768 19.2287C6.29969 19.6227 6.60367 19.9987 6.98164 19.9987C7.04164 19.9987 7.10364 19.9887 7.16763 19.9687L9.58548 19.0627L11.2494 18.4388C11.6794 18.2988 12.0693 18.0588 12.3893 17.7388L13.8292 16.2989L10.0974 12.5671Z" fill="#424242"/>
<path d="M6.42962 19.2286L7.33557 16.8108C7.80754 17.0448 8.25351 17.3588 8.64549 17.7527C9.03946 18.1467 9.35144 18.5907 9.58743 19.0627L7.16958 19.9686C6.71361 20.1186 6.27963 19.6846 6.42962 19.2286Z" fill="url(#paint2_linear_503_535)"/>
<path opacity="0.2" d="M7.64556 17.6907C7.85154 17.8347 8.04353 17.9967 8.22152 18.1747C8.39951 18.3527 8.5615 18.5447 8.70549 18.7507L7.00959 19.3866L7.64556 17.6907ZM7.33557 16.8108L6.42963 19.2286C6.30164 19.6226 6.60562 19.9986 6.9836 19.9986C7.04359 19.9986 7.10559 19.9886 7.16958 19.9686L9.58743 19.0627C9.35345 18.5907 9.03947 18.1447 8.64549 17.7527C8.25352 17.3588 7.80755 17.0448 7.33557 16.8108Z" fill="#424242"/>
<path d="M17.0171 5.64773L20.7509 9.3815L21.9948 8.13558L18.263 4.40381L17.0171 5.64773Z" fill="url(#paint3_linear_503_535)"/>
<path d="M21.165 8.96729L17.4318 5.23403L17.8461 4.8197L21.5794 8.55295L21.165 8.96729Z" fill="#9E9E9E"/>
<path d="M18.2627 4.40377L21.9965 8.13753L23.6564 6.47764C24.1143 6.01966 24.1143 5.27571 23.6564 4.81774L21.5825 2.74387C21.1245 2.2859 20.3806 2.2859 19.9226 2.74387L18.2627 4.40377Z" fill="url(#paint4_linear_503_535)"/>
<path d="M19.6446 8.27337L18.1227 6.75146L10.4431 14.431L10.4291 14.731C10.4011 15.3769 11.0191 15.9949 11.6631 15.9649L11.963 15.9509L19.6446 8.27337Z" fill="url(#paint5_linear_503_535)"/>
<path d="M20.7505 9.38132L12.729 17.4028C12.279 17.2148 11.931 16.7429 11.951 16.2549L11.965 15.9549L19.6445 8.27539L20.7505 9.38132Z" fill="url(#paint6_linear_503_535)"/>
<path d="M18.125 6.75364L10.4455 14.4332L10.1455 14.4472C9.65752 14.4692 9.18555 14.1192 8.99756 13.6692L17.0191 5.64771L18.125 6.75364Z" fill="url(#paint7_linear_503_535)"/>
<path opacity="0.2" d="M20.7509 2.99986C20.9049 2.99986 21.0489 3.05986 21.1568 3.16785L23.2307 5.24172C23.3387 5.34972 23.3987 5.49371 23.3987 5.6477C23.3987 5.80169 23.3387 5.94568 23.2307 6.05367L12.6694 16.615C12.5934 16.511 12.5474 16.391 12.5514 16.281L12.5654 15.9811L12.5934 15.3271L11.9394 15.3551L11.6394 15.3691H11.6234C11.4855 15.3691 11.3295 15.2931 11.2095 15.1671C11.0915 15.0451 11.0255 14.8911 11.0315 14.7591L11.0455 14.4592L11.0735 13.8052L10.4195 13.8332L10.1195 13.8472H10.1035C9.99754 13.8472 9.88355 13.8032 9.78556 13.7292L20.3469 3.16785C20.4549 3.05986 20.5989 2.99986 20.7509 2.99986ZM20.7509 2.3999C20.4509 2.3999 20.1509 2.5139 19.9209 2.74388L8.99561 13.6692C9.17959 14.1072 9.62957 14.4472 10.1015 14.4472H10.1435L10.4435 14.4332L10.4315 14.7331C10.4035 15.3651 10.9935 15.9691 11.6234 15.9691H11.6654L11.9654 15.9551L11.9514 16.255C11.9294 16.743 12.2794 17.215 12.7294 17.403L23.6547 6.47765C24.1127 6.01968 24.1127 5.27572 23.6547 4.81775L21.5808 2.74388C21.3528 2.5139 21.0509 2.3999 20.7509 2.3999Z" fill="#424242"/>
<defs>
<linearGradient id="paint0_linear_503_535" x1="9.5994" y1="-0.733294" x2="9.5994" y2="23.7185" gradientUnits="userSpaceOnUse">
<stop stop-color="#F5F5F5"/>
<stop offset="1" stop-color="#E0E0E0"/>
</linearGradient>
<linearGradient id="paint1_linear_503_535" x1="10.1156" y1="5.01321" x2="10.1156" y2="19.5427" gradientUnits="userSpaceOnUse">
<stop offset="0.006854" stop-color="#FFECB3"/>
<stop offset="1" stop-color="#FFE082"/>
</linearGradient>
<linearGradient id="paint2_linear_503_535" x1="7.99373" y1="13.5702" x2="7.99373" y2="19.8026" gradientUnits="userSpaceOnUse">
<stop stop-color="#757575"/>
<stop offset="1" stop-color="#424242"/>
</linearGradient>
<linearGradient id="paint3_linear_503_535" x1="19.5069" y1="3.60986" x2="19.5069" y2="9.91806" gradientUnits="userSpaceOnUse">
<stop stop-color="#E0E0E0"/>
<stop offset="1" stop-color="#9E9E9E"/>
</linearGradient>
<linearGradient id="paint4_linear_503_535" x1="21.1303" y1="1.54434" x2="21.1303" y2="7.60157" gradientUnits="userSpaceOnUse">
<stop stop-color="#E57373"/>
<stop offset="1" stop-color="#F44336"/>
</linearGradient>
<linearGradient id="paint5_linear_503_535" x1="15.0373" y1="4.18403" x2="15.0373" y2="15.1581" gradientUnits="userSpaceOnUse">
<stop stop-color="#FFC107"/>
<stop offset="1" stop-color="#FFA000"/>
</linearGradient>
<linearGradient id="paint6_linear_503_535" x1="21.2863" y1="7.7396" x2="13.8715" y2="15.1544" gradientUnits="userSpaceOnUse">
<stop stop-color="#FFCA28"/>
<stop offset="1" stop-color="#FFB300"/>
</linearGradient>
<linearGradient id="paint7_linear_503_535" x1="18.6595" y1="5.11262" x2="11.2448" y2="12.5274" gradientUnits="userSpaceOnUse">
<stop stop-color="#FFCA28"/>
<stop offset="1" stop-color="#FFB300"/>
</linearGradient>
</defs>
</svg>
