<svg width="25" height="24" viewBox="0 0 25 24" fill="none" xmlns="http://www.w3.org/2000/svg">
<path d="M2.35171 5.78111C1.81388 5.72513 0.802195 5.36924 0.614254 6.15899C0.486294 6.85877 1.61394 7.69251 2.3777 7.77648C1.99382 7.93243 1.77589 8.50626 1.96383 8.92212C2.36171 9.86183 3.6433 10.0118 4.46105 9.69788C3.82725 10.3837 4.58901 11.3054 5.31278 11.5013C6.03655 11.6973 6.97626 11.0675 7.44211 10.6056C7.44211 10.6056 8.90766 9.12406 7.60406 8.6922C5.36477 7.95043 4.89891 5.4912 3.76727 4.05765C3.32341 3.48983 1.93984 2.6241 1.26005 3.44784C0.674235 4.2256 1.85187 5.28726 2.35171 5.78111Z" fill="#CFD8DC"/>
<path opacity="0.2" d="M2.00386 3.50583C2.5157 3.50583 3.19149 3.96969 3.45341 4.30158C3.78131 4.71745 4.05522 5.23729 4.34713 5.78912C5.01892 7.06272 5.78068 8.50627 7.47815 9.06809C7.6321 9.12007 7.72007 9.18205 7.73807 9.25803C7.79805 9.50595 7.44016 10.0358 7.16025 10.3197C6.75238 10.7256 6.08659 11.1374 5.60274 11.1374C5.53676 11.1374 5.47478 11.1294 5.41879 11.1154C5.0789 11.0235 4.73301 10.7056 4.64704 10.4057C4.59905 10.2397 4.63504 10.1018 4.757 9.96781C4.88296 9.83185 4.89896 9.62591 4.79299 9.47196C4.71701 9.36 4.59105 9.29602 4.46109 9.29602C4.41311 9.29602 4.36512 9.30402 4.31714 9.32201C4.1132 9.39998 3.86528 9.44397 3.61936 9.44397C3.38543 9.44397 2.59768 9.39399 2.33176 8.76418C2.32976 8.76019 2.32976 8.75819 2.32776 8.75419C2.28178 8.65022 2.28378 8.50427 2.33576 8.37231C2.37975 8.26234 2.45372 8.17437 2.5277 8.14438C2.69765 8.0744 2.79762 7.90045 2.77362 7.71851C2.74763 7.53657 2.60368 7.39661 2.41973 7.37662C2.00786 7.33263 1.42605 6.98274 1.15013 6.61286C1.04417 6.4689 0.990182 6.33295 1.00418 6.23698C1.02617 6.14301 1.06216 6.05103 1.36407 6.05103C1.54801 6.05103 1.76594 6.08902 1.95788 6.12301C2.08184 6.145 2.1998 6.165 2.30977 6.17699C2.32376 6.17899 2.33776 6.17899 2.35176 6.17899C2.50571 6.17899 2.64566 6.09102 2.71364 5.94907C2.78562 5.79511 2.75363 5.61317 2.63367 5.49321L2.5357 5.39724C2.11783 4.98937 1.2501 4.14363 1.576 3.69177C1.68396 3.56581 1.81992 3.50583 2.00386 3.50583ZM2.00386 3.10596C1.72395 3.10596 1.46203 3.20193 1.2601 3.44585C0.674281 4.22561 1.84991 5.28527 2.35176 5.77912C2.08584 5.75113 1.70596 5.65116 1.36407 5.65116C1.01417 5.65116 0.708271 5.75713 0.612301 6.157C0.484341 6.85678 1.61199 7.69052 2.37575 7.77449C1.99187 7.93045 1.77394 8.50427 1.96188 8.92014C2.23779 9.57193 2.94157 9.84384 3.61936 9.84384C3.91727 9.84384 4.20917 9.79186 4.4591 9.69589C3.82529 10.3817 4.58706 11.3034 5.31083 11.4993C5.4048 11.5253 5.50077 11.5353 5.60074 11.5353C6.27053 11.5353 7.03429 11.0055 7.44016 10.6016C7.44016 10.6016 8.9057 9.12007 7.60211 8.68821C5.36281 7.94644 4.89696 5.48721 3.76531 4.05366C3.45341 3.65578 2.67365 3.10596 2.00386 3.10596Z" fill="#424242"/>
<path d="M11.345 2.448L11.359 2.454L11.345 2.448Z" fill="url(#paint0_linear_503_611)"/>
<path d="M13.9721 14.5783C16.1075 11.8932 18.6127 9.41193 18.3867 5.63511L18.3707 5.62712L10.3093 1.96826C10.0753 1.8623 9.80543 2.03024 9.80343 2.28816C9.78944 4.85136 8.43986 6.88272 6.92034 8.79412C4.82899 11.4233 2.39175 13.8845 2.50372 17.5314C2.49572 17.6733 2.5737 17.8133 2.71165 17.8773H2.71365C3.77932 18.3611 8.92571 20.6964 10.5792 21.4462C10.8911 21.5881 11.077 21.6721 11.091 21.6781L11.093 21.6801C10.9171 18.799 12.3426 16.6277 13.9721 14.5783Z" fill="url(#paint1_linear_503_611)"/>
<path d="M12.4685 4.06567L16.2853 5.79713C16.0694 6.58488 16.3953 7.43062 17.0891 7.86848C16.4992 9.83786 15.1397 11.5013 13.8241 13.1108L13.8101 13.1268C13.5562 13.4387 13.2922 13.7606 13.0383 14.0805C11.9846 15.4041 10.945 16.8617 10.4251 18.5631C10.3072 18.5391 10.1892 18.5291 10.0673 18.5291C9.43545 18.5291 8.85163 18.849 8.50974 19.3669L4.69293 17.6354C4.82689 17.1476 4.75691 16.6217 4.491 16.1799C4.479 16.1619 4.46701 16.1419 4.45501 16.1239L4.44501 16.1079C4.43102 16.0879 4.41702 16.0679 4.40303 16.0479C4.38703 16.0259 4.36904 16.0039 4.35304 15.9819C4.33705 15.9619 4.31905 15.9399 4.29506 15.914C4.27906 15.896 4.26507 15.878 4.24907 15.862C4.21908 15.83 4.18709 15.8 4.1551 15.77C4.13911 15.756 4.12311 15.742 4.09912 15.722C4.07113 15.698 4.04314 15.676 4.01515 15.654C3.99715 15.64 3.97916 15.628 3.95916 15.6141C3.93117 15.5941 3.90118 15.5741 3.86319 15.5521C3.8472 15.5421 3.8312 15.5321 3.81521 15.5241C3.81321 15.5221 3.80921 15.5221 3.80721 15.5201C4.39903 13.5567 5.7546 11.8972 7.06819 10.2897L7.08219 10.2737C7.33611 9.96182 7.60002 9.63992 7.85394 9.32002C8.90162 8.00244 9.93729 6.55289 10.4591 4.85143C10.6071 4.88941 10.759 4.90741 10.913 4.90741C11.5448 4.89941 12.1286 4.57951 12.4685 4.06567ZM12.3445 3.68579C12.0826 4.26561 11.5108 4.6075 10.915 4.6075C10.731 4.6075 10.5431 4.57551 10.3612 4.50553V4.50753C10.3292 4.49554 10.2972 4.48354 10.2652 4.46955L10.2632 4.47354C9.79734 6.219 8.76166 7.70653 7.62602 9.13208C7.3681 9.45598 7.10618 9.77788 6.84226 10.0978C5.4327 11.8212 4.02714 13.5467 3.46132 15.66L3.45532 15.67C3.45732 15.67 3.45732 15.67 3.45932 15.672C3.48731 15.684 3.5173 15.696 3.54729 15.708C3.55329 15.71 3.55729 15.714 3.56329 15.716C3.60128 15.734 3.63727 15.752 3.67325 15.772C3.68925 15.78 3.70324 15.79 3.71924 15.8C3.74523 15.816 3.76922 15.832 3.79322 15.848C3.80921 15.858 3.82521 15.87 3.8392 15.882C3.86319 15.9 3.88719 15.92 3.91118 15.9399C3.92717 15.9539 3.94317 15.9659 3.95916 15.9799C3.98716 16.0059 4.01315 16.0319 4.03914 16.0579C4.05513 16.0739 4.06913 16.0899 4.08313 16.1079C4.09712 16.1259 4.11312 16.1419 4.12711 16.1599C4.14111 16.1779 4.1551 16.1979 4.1691 16.2159L4.20509 16.2698C4.21708 16.2898 4.23108 16.3078 4.24308 16.3278C4.50099 16.7557 4.55098 17.2995 4.32905 17.7874L8.6397 19.7428C8.90362 19.1629 9.47344 18.821 10.0712 18.821C10.2572 18.821 10.4451 18.855 10.6291 18.923L10.6351 18.915V18.913C11.1029 17.1716 12.1386 15.688 13.2722 14.2625C13.5302 13.9386 13.7921 13.6167 14.056 13.2968C15.4656 11.5733 16.8711 9.84786 17.4369 7.73452C17.4389 7.73052 17.4389 7.72652 17.4409 7.72253C16.6512 7.36464 16.3013 6.43293 16.6592 5.64318L12.3445 3.68579Z" fill="#2E7D32"/>
<path d="M9.01156 14.9762C8.84761 14.9023 8.68166 14.8963 8.51572 14.9602C8.34977 15.0242 8.15983 15.1722 7.94389 15.4061C7.65399 15.734 7.37607 15.9439 7.11016 16.0339C6.84424 16.1239 6.56633 16.1039 6.27842 15.9719C5.98451 15.838 5.78257 15.644 5.67261 15.3881C5.56264 15.1322 5.55664 14.8463 5.65661 14.5304L5.19276 14.3204C5.12478 14.2885 5.09279 14.2085 5.12478 14.1385L5.19276 13.9865C5.22475 13.9186 5.30472 13.8866 5.3747 13.9186L5.84055 14.1305C6.0185 13.8486 6.25043 13.6706 6.53834 13.6007C6.79625 13.5367 7.08416 13.5687 7.40606 13.6946C7.46804 13.7186 7.49604 13.7926 7.46804 13.8546L7.34208 14.1305C7.31609 14.1885 7.24811 14.2145 7.18813 14.1925C6.9762 14.1145 6.78426 14.0985 6.61031 14.1425C6.40638 14.1945 6.25842 14.3224 6.16645 14.5264C6.07048 14.7403 6.05049 14.9283 6.11047 15.0902C6.17045 15.2521 6.29841 15.3801 6.49435 15.4681C6.67829 15.5521 6.85024 15.5581 7.01219 15.4881C7.17414 15.4181 7.36208 15.2661 7.57601 15.0342C7.78794 14.8023 7.98388 14.6323 8.15983 14.5284C8.33577 14.4244 8.51172 14.3664 8.68566 14.3584C8.85961 14.3504 9.04155 14.3884 9.23149 14.4744C9.5334 14.6124 9.73733 14.8123 9.8393 15.0782C9.94127 15.3441 9.93527 15.648 9.81931 15.9919L10.2072 16.1679C10.2752 16.1999 10.3072 16.2798 10.2752 16.3498L10.2072 16.4978C10.1752 16.5657 10.0952 16.5977 10.0252 16.5657L9.63736 16.3898C9.45542 16.7097 9.2195 16.9156 8.92559 17.0116C8.66567 17.0956 8.37976 17.0796 8.06986 16.9616C8.00588 16.9376 7.97988 16.8636 8.00588 16.8017L8.13184 16.5218C8.15783 16.4658 8.22181 16.4358 8.27779 16.4578C8.48573 16.5337 8.67567 16.5417 8.84161 16.4818C9.03555 16.4118 9.18551 16.2578 9.29547 16.0179C9.40144 15.784 9.42943 15.574 9.37745 15.3881C9.32946 15.2022 9.2055 15.0642 9.01156 14.9762Z" fill="white"/>
<path d="M9.93129 16.044L9.63738 16.3919L5.66863 14.5365L5.53467 14.4745L5.84057 14.1306L9.81533 15.992L9.93129 16.044Z" fill="white"/>
<path opacity="0.5" d="M12.1666 11.851C13.6673 11.851 14.8838 10.6345 14.8838 9.1339C14.8838 7.63326 13.6673 6.41675 12.1666 6.41675C10.666 6.41675 9.44946 7.63326 9.44946 9.1339C9.44946 10.6345 10.666 11.851 12.1666 11.851Z" fill="#2E7D32"/>
<path d="M6.91826 8.79623C7.77399 7.72057 8.57574 6.60692 9.11557 5.3833C8.57574 6.60492 7.77599 7.71457 6.92226 8.79023C5.58667 10.4697 4.10914 12.0812 3.24341 13.9746C4.10714 12.0812 5.58467 10.4737 6.91826 8.79623Z" fill="#2E7D32"/>
<path d="M18.3587 5.62893L11.051 2.31396L18.3407 5.62093L18.3587 5.62893Z" fill="#2E7D32"/>
<path d="M15.2637 15.1483C17.351 12.5231 19.7863 10.1079 19.6843 6.47299C19.6923 6.33104 19.6143 6.19108 19.4764 6.1291C19.4744 6.1291 19.4724 6.1291 19.4724 6.1271L18.3887 5.63525C18.6147 9.41007 16.1094 11.8933 13.9741 14.5785C12.3446 16.6258 10.9191 18.7991 11.091 21.6802C11.3929 21.8162 11.6548 21.9361 11.8608 22.0301C12.0947 22.1361 12.3646 21.9701 12.3666 21.7122C12.3926 19.101 13.7402 17.0637 15.2637 15.1483Z" fill="#2E7D32"/>
<path d="M7.18632 8.4563C7.09434 8.57626 7.00637 8.68623 6.9144 8.80219C6.31459 9.55595 5.66279 10.3457 5.09497 11.0575L13.6783 14.9523C13.7743 14.8283 13.8722 14.7023 13.9722 14.5784C14.566 13.8326 15.1878 13.1008 15.7716 12.3531L7.18632 8.4563Z" fill="#FFECB3"/>
<path d="M15.7755 12.3511C15.1897 13.0988 14.5679 13.8306 13.974 14.5784C13.8761 14.7023 13.7781 14.8263 13.6821 14.9523L14.6678 15.922C14.8618 15.662 15.0617 15.4041 15.2656 15.1482C15.7555 14.5324 16.2653 13.9266 16.7572 13.3148L15.7755 12.3511Z" fill="#FFECB3"/>
<path opacity="0.5" d="M15.7755 12.3511C15.1897 13.0988 14.5679 13.8306 13.974 14.5784C13.8761 14.7023 13.7781 14.8263 13.6821 14.9523L14.6678 15.922C14.8618 15.662 15.0617 15.4041 15.2656 15.1482C15.7555 14.5324 16.2653 13.9266 16.7572 13.3148L15.7755 12.3511Z" fill="#FFB74D"/>
<path opacity="0.2" d="M10.2014 2.3601L18.2108 5.99496H18.2128C18.2148 5.99696 18.2188 5.99696 18.2208 5.99896L19.2825 6.48081V6.48281C19.3685 9.50186 17.617 11.6332 15.7656 13.8905C15.4957 14.2184 15.2178 14.5583 14.9479 14.8962C13.5303 16.6776 12.0188 18.8109 11.9648 21.6361L11.251 21.3122L10.9591 21.1802L10.7392 21.0802L2.90164 17.5253V17.5213C2.80767 14.4663 4.58112 12.297 6.45853 9.99971C6.71245 9.6878 6.97636 9.3659 7.23228 9.046C8.64784 7.26256 10.1614 5.13123 10.2014 2.3601ZM10.1594 1.93823C9.97143 1.93823 9.80348 2.08619 9.80148 2.29012C9.78748 4.85332 8.43791 6.88468 6.91838 8.79608C4.82704 11.4253 2.3898 13.8865 2.50177 17.5333C2.49377 17.6753 2.57174 17.8153 2.7097 17.8792H2.7117C3.77737 18.3631 8.92375 20.6984 10.5772 21.4481C10.8891 21.5901 11.0751 21.674 11.0891 21.68L11.0911 21.682C11.393 21.818 11.6549 21.938 11.8608 22.0319C11.9088 22.0539 11.9608 22.0639 12.0088 22.0639C12.1947 22.0639 12.3647 21.918 12.3667 21.714C12.3947 19.1029 13.7402 17.0655 15.2638 15.1501C17.3511 12.5229 19.7863 10.1077 19.6844 6.47281C19.6924 6.33086 19.6144 6.1909 19.4764 6.12892C19.4744 6.12892 19.4724 6.12892 19.4724 6.12692L18.3888 5.63507L18.3728 5.62708L10.3113 1.96822C10.2593 1.94823 10.2094 1.93823 10.1594 1.93823Z" fill="#424242"/>
<path d="M24.5888 14.2403C24.7627 13.1847 23.1992 12.7148 22.4794 12.7548C20.656 12.8488 18.4987 14.1164 16.4653 12.9207C15.2817 12.225 15.1317 14.3023 15.1317 14.3023C15.0897 14.9581 15.2337 16.0797 15.8595 16.4956C16.4833 16.9115 17.6789 16.8755 17.7769 15.9478C18.0788 16.7695 19.0365 17.6353 20.0062 17.3154C20.4421 17.1834 20.73 16.6416 20.594 16.2497C21.1598 16.7715 22.5314 17.0694 22.9733 16.5116C23.4431 15.8518 22.5094 15.324 22.1135 14.9561C22.8153 15.0081 24.3888 15.194 24.5888 14.2403Z" fill="#CFD8DC"/>
<path opacity="0.2" d="M22.5674 13.1528C23.0512 13.1528 23.761 13.3727 24.0629 13.7306C24.1789 13.8666 24.2208 14.0045 24.1968 14.1665C24.1289 14.4584 23.735 14.6063 23.0252 14.6063C22.7573 14.6063 22.4934 14.5844 22.2814 14.5684L22.1455 14.5584C22.1355 14.5584 22.1255 14.5564 22.1155 14.5564C21.9576 14.5564 21.8136 14.6503 21.7496 14.7963C21.6816 14.9522 21.7196 15.1342 21.8436 15.2501C21.9236 15.3241 22.0175 15.4001 22.1155 15.4781C22.7053 15.9519 22.7633 16.1099 22.6573 16.2718C22.5814 16.3598 22.3994 16.4118 22.1695 16.4118C21.7176 16.4118 21.1458 16.2118 20.8679 15.9559C20.7919 15.8859 20.6939 15.85 20.598 15.85C20.522 15.85 20.446 15.872 20.38 15.9159C20.2261 16.0159 20.1621 16.2078 20.2201 16.3818C20.2461 16.4578 20.2281 16.5697 20.1741 16.6757C20.1101 16.8017 20.0022 16.8996 19.8942 16.9336C19.8902 16.9336 19.8882 16.9356 19.8842 16.9376C19.7882 16.9696 19.6883 16.9856 19.5883 16.9856C18.9705 16.9856 18.3627 16.3758 18.1567 15.812C18.0988 15.654 17.9468 15.5501 17.7809 15.5501C17.7649 15.5501 17.7489 15.5501 17.7309 15.5541C17.5469 15.576 17.403 15.724 17.383 15.9079C17.343 16.2758 17.0151 16.3518 16.7492 16.3518C16.5093 16.3518 16.2613 16.2818 16.0854 16.1639C15.6695 15.8879 15.4916 15.0122 15.5356 14.3344C15.5716 13.8526 15.7735 13.1808 16.0214 13.1808C16.0654 13.1808 16.1434 13.1968 16.2673 13.2688C16.9151 13.6506 17.6209 13.8346 18.4267 13.8346C19.2444 13.8346 20.0342 13.6466 20.7979 13.4647C21.4037 13.3208 21.9775 13.1848 22.5074 13.1568C22.5234 13.1528 22.5434 13.1528 22.5674 13.1528ZM22.5674 12.7529C22.5374 12.7529 22.5094 12.7529 22.4814 12.7549C21.2358 12.8189 19.8342 13.4307 18.4227 13.4307C17.7689 13.4307 17.1111 13.2988 16.4673 12.9189C16.2973 12.8189 16.1494 12.7769 16.0194 12.7769C15.2437 12.7769 15.1337 14.3024 15.1337 14.3024C15.0917 14.9582 15.2357 16.0799 15.8615 16.4958C16.1034 16.6557 16.4313 16.7497 16.7472 16.7497C17.247 16.7497 17.7189 16.5157 17.7789 15.9479C18.0368 16.6497 18.7745 17.3835 19.5863 17.3835C19.7242 17.3835 19.8662 17.3615 20.0082 17.3155C20.444 17.1835 20.7319 16.6417 20.596 16.2498C20.9479 16.5737 21.6117 16.8117 22.1675 16.8117C22.5074 16.8117 22.8073 16.7237 22.9732 16.5118C23.4431 15.852 22.5094 15.3241 22.1135 14.9562C22.3474 14.9742 22.6773 15.0062 23.0232 15.0062C23.711 15.0062 24.4548 14.8763 24.5887 14.2405C24.7567 13.2248 23.3171 12.7529 22.5674 12.7529Z" fill="#424242"/>
<defs>
<linearGradient id="paint0_linear_503_611" x1="11.3522" y1="2.45153" x2="11.3522" y2="2.45153" gradientUnits="userSpaceOnUse">
<stop stop-color="#43A047"/>
<stop offset="0.9992" stop-color="#66BB6A"/>
</linearGradient>
<linearGradient id="paint1_linear_503_611" x1="6.80194" y1="19.7346" x2="14.0499" y2="3.75995" gradientUnits="userSpaceOnUse">
<stop stop-color="#43A047"/>
<stop offset="0.9992" stop-color="#66BB6A"/>
</linearGradient>
</defs>
</svg>
