<svg width="16" height="17" viewBox="0 0 16 17" fill="none" xmlns="http://www.w3.org/2000/svg">
<path d="M6.66683 2.33325C9.33623 2.33325 11.5002 4.49721 11.5002 7.16659C11.5002 8.32119 11.0953 9.38119 10.4198 10.2125L13.687 13.4797C13.8823 13.675 13.8823 13.9915 13.687 14.1868C13.5096 14.3643 13.2318 14.3805 13.036 14.2352L12.98 14.1868L9.7127 10.9196C8.88143 11.5951 7.82143 11.9999 6.66683 11.9999C3.99746 11.9999 1.8335 9.83599 1.8335 7.16659C1.8335 4.49721 3.99746 2.33325 6.66683 2.33325ZM6.66683 3.33325C4.54974 3.33325 2.8335 5.04949 2.8335 7.16659C2.8335 9.28365 4.54974 10.9999 6.66683 10.9999C8.7839 10.9999 10.5002 9.28365 10.5002 7.16659C10.5002 5.04949 8.7839 3.33325 6.66683 3.33325Z" fill="#2F80ED"/>
</svg>
