<svg width="26" height="24" viewBox="0 0 26 24" fill="none" xmlns="http://www.w3.org/2000/svg">
<path d="M14.0189 0.526039L16.8384 6.95685C17.0542 7.44911 17.5213 7.78636 18.0576 7.83454L24.9262 8.45039C25.7033 8.56351 26.0133 9.51661 25.4498 10.0654L20.2759 14.412C19.8569 14.7639 19.6663 15.3169 19.7815 15.8511L21.2855 22.8914C21.4175 23.6644 20.6068 24.2551 19.9114 23.8885L13.9163 20.3778C13.4554 20.1075 12.8857 20.1075 12.4248 20.3778L6.42973 23.8864C5.73638 24.2509 4.92362 23.6623 5.05559 22.8893L6.5596 15.849C6.67272 15.3148 6.48419 14.7618 6.06525 14.4099L0.889178 10.0675C0.327791 9.52079 0.637811 8.5656 1.41286 8.45248L8.28147 7.83663C8.81772 7.78846 9.28484 7.4512 9.5006 6.95894L12.3201 0.528133C12.6699 -0.175695 13.6712 -0.175695 14.0189 0.526039Z" fill="#FDD835"/>
<path d="M13.8138 7.34236L13.3362 2.60409C13.3174 2.34016 13.2629 1.8877 13.686 1.8877C14.0212 1.8877 14.2034 2.58524 14.2034 2.58524L15.6362 6.38926C16.1767 7.83672 15.9546 8.33317 15.433 8.62643C14.8339 8.96159 13.95 8.69975 13.8138 7.34236Z" fill="#FFFF8D"/>
<path d="M19.7227 13.9909L23.8325 10.7839C24.0357 10.6142 24.4023 10.344 24.109 10.0361C23.8765 9.79309 23.2481 10.1429 23.2481 10.1429L19.6514 11.5485C18.5789 11.9192 17.8667 12.4681 17.8039 13.1593C17.7222 14.081 18.5496 14.7911 19.7227 13.9909Z" fill="#F4B400"/>
</svg>
