<svg width="20" height="24" viewBox="0 0 20 24" fill="none" xmlns="http://www.w3.org/2000/svg">
<path d="M3.9292 7.34626C3.81521 8.56224 3.73521 10.7142 4.4532 11.6302C4.4532 11.6302 4.1152 9.26623 7.14515 6.30027C8.36514 5.10629 8.64713 3.48232 8.22114 2.26434C7.97914 1.57435 7.53715 1.00436 7.15315 0.606361C6.92916 0.372365 7.10115 -0.0136293 7.42715 0.000370508C9.39912 0.0883692 12.5951 0.63636 13.953 4.04431C14.549 5.54029 14.593 7.08626 14.309 8.65824C14.129 9.66222 13.4891 11.8942 14.949 12.1682C15.991 12.3642 16.495 11.5362 16.721 10.9402C16.815 10.6922 17.141 10.6302 17.317 10.8282C19.077 12.8302 19.227 15.1881 18.863 17.2181C18.159 21.142 14.185 23.998 10.2371 23.998C5.30518 23.998 1.37924 21.176 0.361259 16.0681C-0.0487348 14.0062 0.159262 9.92622 3.33921 7.04626C3.57521 6.83027 3.9612 7.02226 3.9292 7.34626Z" fill="url(#paint0_radial_503_449)"/>
<path d="M12.0391 14.6842C10.2211 12.3443 11.0351 9.6743 11.4811 8.61031C11.5411 8.47031 11.3811 8.33832 11.2551 8.42431C10.4731 8.95631 8.87117 10.2083 8.12518 11.9703C7.11519 14.3522 7.18719 15.5182 7.78518 16.9422C8.14518 17.8002 7.72718 17.9822 7.51719 18.0142C7.31319 18.0462 7.12519 17.9102 6.9752 17.7682C6.5452 17.3582 6.23521 16.8242 6.08721 16.2482C6.05521 16.1242 5.89321 16.0902 5.81921 16.1922C5.25922 16.9662 4.96923 18.2082 4.95523 19.0862C4.91123 21.8001 7.15319 24.0001 9.86515 24.0001C13.2831 24.0001 15.7731 20.2201 13.8091 17.0602C13.2391 16.1402 12.7031 15.5382 12.0391 14.6842Z" fill="url(#paint1_radial_503_449)"/>
<defs>
<radialGradient id="paint0_radial_503_449" cx="0" cy="0" r="1" gradientUnits="userSpaceOnUse" gradientTransform="translate(9.26034 24.0602) rotate(-179.751) scale(14.1173 23.1637)">
<stop offset="0.3144" stop-color="#FF9800"/>
<stop offset="0.6616" stop-color="#FF6D00"/>
<stop offset="0.9715" stop-color="#F44336"/>
</radialGradient>
<radialGradient id="paint1_radial_503_449" cx="0" cy="0" r="1" gradientUnits="userSpaceOnUse" gradientTransform="translate(10.0531 10.0121) rotate(90.5787) scale(14.771 11.1163)">
<stop offset="0.2141" stop-color="#FFF176"/>
<stop offset="0.3275" stop-color="#FFF27D"/>
<stop offset="0.4868" stop-color="#FFF48F"/>
<stop offset="0.6722" stop-color="#FFF7AD"/>
<stop offset="0.7931" stop-color="#FFF9C4"/>
<stop offset="0.8221" stop-color="#FFF8BD" stop-opacity="0.804"/>
<stop offset="0.8627" stop-color="#FFF6AB" stop-opacity="0.529"/>
<stop offset="0.9101" stop-color="#FFF38D" stop-opacity="0.2088"/>
<stop offset="0.9409" stop-color="#FFF176" stop-opacity="0"/>
</radialGradient>
</defs>
</svg>
