<svg width="20" height="20" viewBox="0 0 20 20" fill="none" xmlns="http://www.w3.org/2000/svg">
<rect width="20" height="20" rx="2" fill="#207946"/>
<path fill-rule="evenodd" clip-rule="evenodd" d="M8.17703 4.0501C7.98914 4.26139 7.8952 4.36704 7.78976 4.45375C7.57296 4.63205 7.31645 4.75558 7.04187 4.81391C6.90834 4.84228 6.76717 4.84986 6.48483 4.86503C5.77311 4.90324 5.41725 4.92235 5.14519 5.03297C4.58012 5.26274 4.17546 5.77016 4.0772 6.37219C4.02989 6.66204 4.09045 7.01323 4.21156 7.71561C4.25961 7.99424 4.28363 8.13356 4.28569 8.27006C4.28991 8.55073 4.22656 8.8283 4.10097 9.07934C4.0399 9.20143 3.95781 9.31653 3.79363 9.54672C3.37976 10.127 3.17282 10.4171 3.08968 10.6988C2.917 11.2839 3.06142 11.9166 3.47084 12.3688C3.66796 12.5865 3.98028 12.7581 4.60493 13.1013C4.85272 13.2375 4.97665 13.3056 5.08465 13.3891C5.30672 13.5608 5.48423 13.7834 5.6022 14.0381C5.65957 14.162 5.69838 14.2979 5.77599 14.5698C5.97162 15.2552 6.06943 15.5978 6.23782 15.8385C6.58756 16.3382 7.17231 16.6198 7.78111 16.5817C8.07422 16.5633 8.40313 16.4261 9.06095 16.1517C9.32191 16.0429 9.45238 15.9885 9.585 15.9561C9.8577 15.8895 10.1424 15.8895 10.4151 15.9561C10.5477 15.9885 10.6782 16.0429 10.9391 16.1517C11.5969 16.4261 11.9259 16.5633 12.219 16.5817C12.8278 16.6198 13.4125 16.3382 13.7623 15.8385C13.9307 15.5978 14.0285 15.2552 14.2241 14.5698C14.3017 14.2979 14.3405 14.1619 14.3979 14.0381C14.5159 13.7834 14.6934 13.5608 14.9155 13.3891C15.0234 13.3056 15.1473 13.2375 15.3951 13.1014C16.0198 12.7581 16.3321 12.5865 16.5293 12.3688C16.9387 11.9166 17.0831 11.2839 16.9104 10.6988C16.8273 10.4171 16.6203 10.127 16.2065 9.54672C16.0423 9.31653 15.9602 9.20143 15.8991 9.07934C15.7735 8.8283 15.7102 8.55073 15.7144 8.27006C15.7165 8.13356 15.7405 7.99424 15.7885 7.71561C15.9096 7.01323 15.9702 6.66204 15.9229 6.37219C15.8246 5.77016 15.42 5.26274 14.8549 5.03297C14.5829 4.92235 14.227 4.90324 13.5153 4.86503C13.2329 4.84986 13.0918 4.84228 12.9582 4.81391C12.6837 4.75558 12.4271 4.63205 12.2103 4.45375C12.1049 4.36704 12.011 4.2614 11.8231 4.05011C11.3495 3.5175 11.1126 3.25118 10.8565 3.10745C10.3246 2.80891 9.67554 2.80891 9.14359 3.10745C8.88748 3.25118 8.65066 3.51749 8.17703 4.0501ZM12.7803 9.03039C13.0732 8.7375 13.0732 8.26262 12.7803 7.96973C12.4874 7.67684 12.0126 7.67684 11.7197 7.96973L9 10.6894L8.03033 9.71973C7.73744 9.42684 7.26256 9.42684 6.96967 9.71973C6.67678 10.0126 6.67678 10.4875 6.96967 10.7804L8.46967 12.2804C8.76256 12.5733 9.23744 12.5733 9.53033 12.2804L12.7803 9.03039Z" fill="white"/>
</svg>
