<svg width="16" height="17" viewBox="0 0 16 17" fill="none" xmlns="http://www.w3.org/2000/svg">
<path d="M10.7251 0.770844C9.5685 0.780225 7.83287 0.825794 6.12538 0.986625C4.94997 1.09787 3.7357 1.27344 2.8136 1.79614C2.55359 1.94357 2.26945 1.97976 2.01749 2.01058C1.91027 2.02398 1.80975 2.03605 1.72397 2.05615C1.06992 2.21028 0.612896 2.77587 0.610215 3.43126L0.600833 7.8206C0.599493 8.42774 1.0324 8.9357 1.63149 9.02951C1.64221 9.03085 1.6516 9.03353 1.66232 9.03621C1.73603 9.06034 3.49713 9.63397 4.82399 10.6713C5.44855 11.1592 5.98331 11.9111 6.25538 12.6817C6.52611 13.4497 6.52477 14.2873 6.52343 14.9602C6.52343 15.3944 6.52209 15.9345 6.64004 16.0136C6.92685 16.2026 7.24315 16.2991 7.57956 16.2991C8.61424 16.2991 9.67036 15.3542 9.71191 14.3919C9.74139 13.7244 9.51757 12.9364 9.30179 12.1751C9.04714 11.2731 8.826 10.4944 9.02569 9.96501C9.05518 9.88594 9.13023 9.83501 9.21333 9.83501C9.21601 9.83501 10.1904 9.86851 10.1904 9.86851H10.1998C11.2934 9.86851 12.1833 8.97858 12.1847 7.88627L12.1914 2.22904C12.1914 1.83903 12.0413 1.47314 11.7652 1.19839C11.4904 0.923632 11.1245 0.770844 10.7345 0.770844H10.7251Z" fill="url(#paint0_radial_338_5337)"/>
<path d="M7.57967 16.0979C8.49908 16.0979 9.47345 15.2321 9.51098 14.3837C9.53912 13.7485 9.32066 12.9765 9.1089 12.2299C8.84353 11.2944 8.61569 10.4863 8.83817 9.89521C8.89714 9.7384 9.04725 9.6352 9.21478 9.6352H9.22952L10.1945 9.66871H10.2026C11.185 9.66871 11.9851 8.86991 11.9864 7.88616L11.9931 2.22893C11.9931 1.89387 11.8631 1.57757 11.6259 1.34034C11.3887 1.10312 11.0737 0.971771 10.7373 0.971771H10.7266C9.57397 0.981153 7.8437 1.02672 6.14425 1.18621C4.99163 1.29477 3.80148 1.46633 2.91289 1.97026C2.61803 2.1378 2.29905 2.17666 2.04306 2.20883C1.9412 2.22089 1.84604 2.23295 1.77099 2.25172C1.20808 2.3844 0.814045 2.86958 0.812705 3.43114L0.801982 7.82049C0.800642 8.32711 1.16251 8.75197 1.66243 8.8297C1.68253 8.83238 1.70398 8.83775 1.72274 8.84445C1.79779 8.86857 3.59106 9.45426 4.94606 10.5131C5.59877 11.0237 6.15899 11.8091 6.44313 12.6146C6.72592 13.4147 6.72458 14.2712 6.72324 14.96C6.72324 15.2871 6.7219 15.7294 6.77819 15.8634C7.0248 16.0202 7.29419 16.0979 7.57967 16.0979ZM7.57967 16.5C7.2245 16.5 6.86531 16.4035 6.5289 16.181C6.09466 15.8942 6.56509 14.168 6.06518 12.75C5.76496 11.8989 5.19267 11.2154 4.69945 10.8307C3.386 9.80407 1.60078 9.22776 1.60078 9.22776C0.907863 9.1192 0.398565 8.52144 0.399905 7.81915L0.410627 3.4298C0.413308 2.6739 0.94271 2.0346 1.67851 1.86036C1.97605 1.79067 2.38215 1.80943 2.71453 1.62046C3.60312 1.11652 4.74234 0.91548 6.10672 0.786815C7.79545 0.627324 9.51098 0.580416 10.7239 0.569694H10.7373C11.6527 0.569694 12.3966 1.3122 12.3952 2.22893L12.3885 7.88616C12.3872 9.09373 11.4074 10.0694 10.2026 10.0694H10.1865L9.21612 10.0359C8.88106 10.9259 9.97873 12.9282 9.9144 14.4012C9.86749 15.4479 8.75105 16.5 7.57967 16.5Z" fill="#EDA600"/>
<path d="M8.12516 8.70112C8.37713 8.03099 8.37981 6.98559 8.12516 6.33959C7.75659 5.40677 6.8546 4.59055 5.81322 4.44714C5.55857 4.4123 5.71002 4.17775 5.96333 4.2126C7.09048 4.36807 8.6157 4.8251 9.01241 5.83699C10.1007 8.61803 8.82746 10.0749 8.25919 9.64064C7.98578 9.42888 7.98309 9.08042 8.12516 8.70112Z" fill="#EDA600"/>
<path d="M10.827 7.7066C9.70654 7.7066 8.35958 7.91434 8.30195 8.90747C8.28587 9.19161 8.37164 9.43017 8.56464 9.63523C9.0726 10.174 10.3204 10.4702 12.0788 10.4702C12.7168 10.4702 13.1818 10.4287 13.1872 10.4287C13.1926 10.4287 13.1993 10.4273 13.2046 10.4273H13.2167C13.2354 10.4287 13.2529 10.4287 13.2716 10.4287C13.8412 10.4287 14.317 9.91535 14.3559 9.25996C14.3961 8.58179 13.9498 8.0028 13.3614 7.96929C13.352 7.96929 13.3413 7.96795 13.3319 7.96527C13.3199 7.96393 12.0788 7.7066 10.827 7.7066Z" fill="url(#paint1_radial_338_5337)"/>
<path d="M12.0802 10.2691C12.7074 10.2691 13.1658 10.2289 13.1698 10.2289C13.1819 10.2275 13.1939 10.2275 13.206 10.2275C13.214 10.2275 13.2221 10.2275 13.2288 10.2289C13.2435 10.2302 13.2583 10.2302 13.2717 10.2302C13.7341 10.2302 14.1227 9.79997 14.1549 9.25181C14.171 8.96767 14.0906 8.69828 13.9284 8.49188C13.7769 8.29889 13.5705 8.1863 13.3494 8.1729C13.3293 8.17156 13.3092 8.16888 13.2904 8.16486C13.2784 8.16218 12.0547 7.90887 10.827 7.90887C10.114 7.90887 9.54843 7.99197 9.14769 8.15548C8.59685 8.38064 8.51509 8.69962 8.50303 8.91943C8.48963 9.14861 8.55664 9.33222 8.71211 9.49842C9.1745 9.98761 10.4022 10.2691 12.0802 10.2691ZM12.0802 10.6711C10.5496 10.6711 8.01116 10.4393 8.10095 8.8953C8.16662 7.78021 9.51224 7.50545 10.827 7.50545C12.115 7.50545 13.3735 7.76948 13.3735 7.76948C14.0731 7.81103 14.6039 8.48384 14.557 9.27325C14.5127 10.0372 13.9445 10.6309 13.273 10.6309C13.2502 10.6309 13.2288 10.6309 13.206 10.6296C13.206 10.6296 12.7356 10.6711 12.0802 10.6711Z" fill="#EDA600"/>
<path d="M11.6674 5.1562C10.2052 5.1562 8.46289 5.40146 8.46289 6.57285C8.46289 7.74423 10.2052 7.9895 11.6674 7.9895C12.9072 7.9895 14.037 7.80857 14.0477 7.80723C14.0585 7.80589 14.0692 7.80455 14.0799 7.80455C14.671 7.80455 15.0824 7.17999 15.0824 6.61976C15.0824 6.0287 14.6442 5.34249 14.0799 5.34249C14.0692 5.34249 14.0585 5.34115 14.0477 5.33981C14.0357 5.33713 12.9058 5.1562 11.6674 5.1562Z" fill="url(#paint2_radial_338_5337)"/>
<path d="M11.6673 7.78689C12.8896 7.78689 14.0047 7.60863 14.0154 7.60729C14.0369 7.60327 14.0583 7.60193 14.0798 7.60193C14.5381 7.60193 14.8813 7.08191 14.8813 6.61818C14.8813 6.13435 14.5113 5.54196 14.0798 5.54196C14.0583 5.54196 14.0369 5.54062 14.0154 5.53659C14.0047 5.53525 12.8883 5.357 11.6673 5.357C10.7519 5.357 10.0242 5.4535 9.5028 5.64515C8.75091 5.92125 8.6638 6.30724 8.6638 6.57261C8.6638 6.83933 8.75091 7.22398 9.5028 7.50007C10.0228 7.69039 10.7519 7.78689 11.6673 7.78689ZM11.6673 8.18896C10.0684 8.18896 8.26172 7.89545 8.26172 6.57127C8.26172 5.2471 10.067 4.95358 11.6673 4.95358C12.9392 4.95358 14.0798 5.13854 14.0798 5.13854C14.7714 5.13854 15.2833 5.93063 15.2833 6.61684C15.2833 7.30305 14.7714 8.00267 14.0798 8.00267C14.0798 8.00401 12.9379 8.18896 11.6673 8.18896Z" fill="#EDA600"/>
<path d="M12.7812 0.700893C12.217 0.700893 9.35818 0.745122 8.49238 1.61227C8.34093 1.76372 8.26855 1.92723 8.26855 2.11218C8.27124 2.81582 9.47613 3.21924 11.5736 3.21924C12.3215 3.21924 12.9005 3.16563 12.9072 3.16563C12.9125 3.16563 12.9192 3.16429 12.9246 3.16429C13.2382 3.16295 13.5344 3.03562 13.7556 2.80376C13.9794 2.57055 14.1014 2.25961 14.1014 1.92991C14.0987 1.25308 13.5693 0.703574 12.9206 0.703574C12.9112 0.700894 12.8643 0.700893 12.7812 0.700893Z" fill="url(#paint3_radial_338_5337)"/>
<path d="M11.575 3.01687C12.3108 3.01687 12.8831 2.9646 12.8884 2.96326C12.9005 2.96192 12.9125 2.96192 12.9246 2.96192C13.1833 2.96058 13.4272 2.8547 13.6108 2.66304C13.7985 2.46736 13.9017 2.20601 13.9003 1.92858C13.899 1.36299 13.4594 0.901941 12.9166 0.901941H12.9152H12.9072C12.9045 0.901941 12.8589 0.900601 12.7799 0.900601C10.3473 0.900601 9.0258 1.36031 8.6331 1.75301C8.48433 1.90177 8.46825 2.02776 8.46825 2.10951C8.47227 2.66974 9.66108 3.01687 11.575 3.01687ZM11.575 3.41895C10.1382 3.41895 8.07153 3.22595 8.06885 2.11219C8.06349 0.576258 11.9958 0.499864 12.7812 0.499864C12.8683 0.499864 12.9166 0.501204 12.9166 0.501204H12.9206C13.6819 0.501204 14.2997 1.13917 14.3024 1.92858C14.3051 2.71933 13.6886 3.36266 12.9259 3.36534C12.9259 3.364 12.3403 3.41895 11.575 3.41895Z" fill="#EDA600"/>
<path d="M12.28 2.82805C11.0751 2.82805 8.27393 2.96475 8.27393 4.2313C8.27393 5.29546 10.2937 5.45361 11.4986 5.45361C12.5641 5.45361 13.4822 5.33567 13.4915 5.33433C13.4996 5.33299 13.509 5.33299 13.517 5.33299C14.0759 5.33299 14.7273 5.0569 14.7273 4.27821C14.7273 3.54107 14.151 2.87094 13.517 2.87094H13.5009C13.4956 2.8696 12.9796 2.82805 12.28 2.82805Z" fill="url(#paint4_radial_338_5337)"/>
<path d="M11.4987 5.65332V5.25124C12.5481 5.25124 13.4568 5.13464 13.4649 5.1333C13.4823 5.13062 13.4997 5.13062 13.5171 5.13062C14.005 5.13062 14.5263 4.9068 14.5263 4.27687C14.5263 3.65634 14.0358 3.07064 13.5171 3.07064C13.5064 3.07064 13.4957 3.07064 13.4836 3.0693C13.4783 3.0693 12.9703 3.02775 12.2787 3.02775C11.5483 3.02775 10.5042 3.07466 9.67729 3.29447C8.87983 3.50757 8.47508 3.82253 8.47508 4.22863C8.47508 4.35327 8.47507 4.73256 9.3248 4.99927C9.8542 5.16547 10.5846 5.2499 11.4974 5.2499L11.4987 5.65332ZM11.4987 5.65332C9.94936 5.65332 8.073 5.40939 8.073 4.22997C8.073 2.84012 10.6731 2.62568 12.2801 2.62568C12.9984 2.62568 13.5171 2.66857 13.5171 2.66857C14.273 2.66857 14.9284 3.44994 14.9284 4.27687C14.9284 5.10381 14.273 5.5327 13.5171 5.5327C13.5171 5.5327 12.5883 5.65332 11.4987 5.65332Z" fill="#EDA600"/>
<path d="M2.98792 1.67809L2.34593 4.21118L2.07788 1.93274L2.98792 1.67809Z" fill="#EDA600"/>
<defs>
<radialGradient id="paint0_radial_338_5337" cx="0" cy="0" r="1" gradientUnits="userSpaceOnUse" gradientTransform="translate(6.20165 12.8692) rotate(-90.125) scale(11.6655 9.18425)">
<stop offset="0.6" stop-color="#FFCA28"/>
<stop offset="1" stop-color="#FFB300"/>
</radialGradient>
<radialGradient id="paint1_radial_338_5337" cx="0" cy="0" r="1" gradientUnits="userSpaceOnUse" gradientTransform="translate(13.0615 9.20538) rotate(-176.727) scale(3.78913 1.85408)">
<stop offset="0.5993" stop-color="#FFCA28"/>
<stop offset="1" stop-color="#FFB300"/>
</radialGradient>
<radialGradient id="paint2_radial_338_5337" cx="0" cy="0" r="1" gradientUnits="userSpaceOnUse" gradientTransform="translate(13.6601 6.60814) rotate(179.936) scale(4.26446 1.71011)">
<stop offset="0.5993" stop-color="#FFCA28"/>
<stop offset="1" stop-color="#FFB300"/>
</radialGradient>
<radialGradient id="paint3_radial_338_5337" cx="0" cy="0" r="1" gradientUnits="userSpaceOnUse" gradientTransform="translate(12.8285 1.98673) rotate(179.726) scale(3.58133 1.86453)">
<stop offset="0.5993" stop-color="#FFCA28"/>
<stop offset="1" stop-color="#FFB300"/>
</radialGradient>
<radialGradient id="paint4_radial_338_5337" cx="0" cy="0" r="1" gradientUnits="userSpaceOnUse" gradientTransform="translate(13.3383 4.17276) rotate(179.934) scale(4.08027 1.69717)">
<stop offset="0.5993" stop-color="#FFCA28"/>
<stop offset="1" stop-color="#FFB300"/>
</radialGradient>
</defs>
</svg>
