<svg width="24" height="24" viewBox="0 0 24 24" fill="none" xmlns="http://www.w3.org/2000/svg">
<path d="M8.11869 9.29007L11.9987 13.1701L15.8787 9.29007C15.9713 9.19749 16.0812 9.12405 16.2022 9.07394C16.3231 9.02384 16.4528 8.99805 16.5837 8.99805C16.7146 8.99805 16.8443 9.02384 16.9652 9.07394C17.0862 9.12405 17.1961 9.19749 17.2887 9.29007C17.3813 9.38265 17.4547 9.49256 17.5048 9.61352C17.5549 9.73449 17.5807 9.86414 17.5807 9.99507C17.5807 10.126 17.5549 10.2556 17.5048 10.3766C17.4547 10.4976 17.3813 10.6075 17.2887 10.7001L12.6987 15.2901C12.6062 15.3828 12.4963 15.4563 12.3753 15.5065C12.2543 15.5567 12.1247 15.5825 11.9937 15.5825C11.8627 15.5825 11.733 15.5567 11.6121 15.5065C11.4911 15.4563 11.3812 15.3828 11.2887 15.2901L6.69869 10.7001C6.60599 10.6076 6.53244 10.4977 6.48226 10.3767C6.43208 10.2557 6.40625 10.126 6.40625 9.99507C6.40625 9.8641 6.43208 9.73442 6.48226 9.61344C6.53244 9.49247 6.60599 9.38258 6.69869 9.29007C7.08869 8.91007 7.72869 8.90007 8.11869 9.29007Z" fill="#D6783D"/>
</svg>
