<svg width="943" height="462" viewBox="0 0 943 462" fill="none" xmlns="http://www.w3.org/2000/svg">
<path d="M4.54688 418L938.547 418" stroke="#E7E3DA" stroke-opacity="0.1"/>
<path fill-rule="evenodd" clip-rule="evenodd" d="M5 6L5.00002 418L5 6Z" fill="#E7E3DA" fill-opacity="0.7"/>
<path d="M5 6L5.00002 418" stroke="#E7E3DA" stroke-opacity="0.1"/>
<path d="M188 303L188 418" stroke="#F1F2F1" stroke-dasharray="4 2"/>
<path d="M323 281L323 418" stroke="#F1F2F1" stroke-dasharray="4 2"/>
<path d="M460 260L460 418" stroke="#F1F2F1" stroke-dasharray="4 2"/>
<path d="M596 247L596 418" stroke="#E7E3DA" stroke-opacity="0.7" stroke-dasharray="4 2"/>
<path d="M869 132L869 418" stroke="#E7E3DA" stroke-opacity="0.7" stroke-dasharray="4 2"/>
<path d="M732 209L732 418" stroke="#E7E3DA" stroke-opacity="0.7" stroke-dasharray="4 2"/>
<path opacity="0.2" fill-rule="evenodd" clip-rule="evenodd" d="M4 418L188.5 302.778L460.03 259.074L597.341 243.081L733.415 208.597L940 91V418H4Z" fill="#D6783D"/>
<path d="M4.5 417.5L187.5 302.778L459.648 259.074L596.341 243.081L731.178 209.597L939 91" stroke="#D6783D" stroke-width="2" stroke-linejoin="round"/>
<circle cx="4.5" cy="417.5" r="3.5" fill="#F1F2F1" stroke="#D6783D" stroke-width="2"/>
<path d="M187.499 307.004C189.433 307.004 190.998 305.435 190.998 303.502C190.998 301.569 189.433 300 187.499 300C185.566 300 184 301.569 184 303.502C184 305.435 185.566 307.004 187.499 307.004Z" fill="#F1F2F1" stroke="#D6783D" stroke-width="2"/>
<path d="M460.101 264.1C462.034 264.1 463.6 262.532 463.6 260.599C463.6 258.666 462.034 257.097 460.101 257.097C458.167 257.097 456.602 258.666 456.602 260.599C456.602 262.532 458.167 264.1 460.101 264.1Z" fill="#F1F2F1" stroke="#D6783D" stroke-width="2"/>
<path d="M324.038 284.396C325.972 284.396 327.538 282.827 327.538 280.894C327.538 278.961 325.972 277.392 324.038 277.392C322.105 277.392 320.539 278.961 320.539 280.894C320.539 282.827 322.105 284.396 324.038 284.396Z" fill="#F1F2F1" stroke="#D6783D" stroke-width="2"/>
<path d="M732.222 213.343C734.155 213.343 735.721 211.774 735.721 209.841C735.721 207.908 734.155 206.339 732.222 206.339C730.288 206.339 728.723 207.908 728.723 209.841C728.723 211.774 730.288 213.343 732.222 213.343Z" fill="#F1F2F1" stroke="#D6783D" stroke-width="2"/>
<path d="M596.159 247.368C598.093 247.368 599.659 245.799 599.659 243.866C599.659 241.933 598.093 240.364 596.159 240.364C594.226 240.364 592.66 241.933 592.66 243.866C592.66 245.799 594.226 247.368 596.159 247.368Z" fill="#F1F2F1" stroke="#D6783D" stroke-width="2"/>
<path d="M868.284 136.285C870.218 136.285 871.784 134.716 871.784 132.783C871.784 130.85 870.218 129.281 868.284 129.281C866.351 129.281 864.785 130.85 864.785 132.783C864.785 134.716 866.351 136.285 868.284 136.285Z" fill="#F1F2F1" stroke="#D6783D" stroke-width="2"/>
<path d="M938.499 95.0038C940.433 95.0038 941.998 93.4349 941.998 91.5019C941.998 89.5688 940.433 88 938.499 88C936.566 88 935 89.5688 935 91.5019C935 93.4349 936.566 95.0038 938.499 95.0038Z" fill="#F1F2F1" stroke="#D6783D" stroke-width="2"/>
<path d="M153.888 458V455.864L160.44 450.584C161.448 449.768 162.176 449 162.624 448.28C163.088 447.56 163.32 446.816 163.32 446.048C163.32 445.04 162.984 444.224 162.312 443.6C161.656 442.976 160.776 442.664 159.672 442.664C158.712 442.664 157.888 442.92 157.2 443.432C156.528 443.944 155.984 444.696 155.568 445.688L153.744 445.016C154.256 443.656 155.016 442.616 156.024 441.896C157.032 441.176 158.248 440.816 159.672 440.816C160.52 440.816 161.288 440.944 161.976 441.2C162.664 441.456 163.248 441.816 163.728 442.28C164.224 442.728 164.6 443.272 164.856 443.912C165.128 444.552 165.264 445.264 165.264 446.048C165.264 447.136 164.984 448.144 164.424 449.072C163.864 450 162.944 450.976 161.664 452L156.384 456.2H165.552V458H153.888ZM174.895 458.384C173.871 458.384 172.951 458.168 172.135 457.736C171.319 457.304 170.623 456.704 170.047 455.936C169.471 455.152 169.023 454.224 168.703 453.152C168.399 452.064 168.247 450.88 168.247 449.6C168.247 448.32 168.399 447.144 168.703 446.072C169.023 444.984 169.471 444.056 170.047 443.288C170.623 442.504 171.319 441.896 172.135 441.464C172.951 441.032 173.871 440.816 174.895 440.816C175.919 440.816 176.839 441.032 177.655 441.464C178.471 441.896 179.167 442.504 179.743 443.288C180.319 444.056 180.759 444.984 181.063 446.072C181.383 447.144 181.543 448.32 181.543 449.6C181.543 450.88 181.383 452.064 181.063 453.152C180.759 454.224 180.319 455.152 179.743 455.936C179.167 456.704 178.471 457.304 177.655 457.736C176.839 458.168 175.919 458.384 174.895 458.384ZM174.895 442.712C174.175 442.712 173.527 442.88 172.951 443.216C172.375 443.552 171.887 444.032 171.487 444.656C171.087 445.264 170.775 445.992 170.551 446.84C170.343 447.672 170.239 448.592 170.239 449.6C170.239 450.608 170.343 451.536 170.551 452.384C170.775 453.216 171.087 453.944 171.487 454.568C171.887 455.176 172.375 455.648 172.951 455.984C173.527 456.32 174.175 456.488 174.895 456.488C175.615 456.488 176.263 456.32 176.839 455.984C177.415 455.648 177.903 455.176 178.303 454.568C178.703 453.944 179.007 453.216 179.215 452.384C179.439 451.536 179.551 450.608 179.551 449.6C179.551 448.592 179.439 447.672 179.215 446.84C179.007 445.992 178.703 445.264 178.303 444.656C177.903 444.032 177.415 443.552 176.839 443.216C176.263 442.88 175.615 442.712 174.895 442.712ZM183.958 458V455.864L190.51 450.584C191.518 449.768 192.246 449 192.694 448.28C193.158 447.56 193.39 446.816 193.39 446.048C193.39 445.04 193.054 444.224 192.382 443.6C191.726 442.976 190.846 442.664 189.742 442.664C188.782 442.664 187.958 442.92 187.27 443.432C186.598 443.944 186.054 444.696 185.638 445.688L183.814 445.016C184.326 443.656 185.086 442.616 186.094 441.896C187.102 441.176 188.318 440.816 189.742 440.816C190.59 440.816 191.358 440.944 192.046 441.2C192.734 441.456 193.318 441.816 193.798 442.28C194.294 442.728 194.67 443.272 194.926 443.912C195.198 444.552 195.334 445.264 195.334 446.048C195.334 447.136 195.054 448.144 194.494 449.072C193.934 450 193.014 450.976 191.734 452L186.454 456.2H195.622V458H183.958ZM197.669 458V455.864L204.221 450.584C205.229 449.768 205.957 449 206.405 448.28C206.869 447.56 207.101 446.816 207.101 446.048C207.101 445.04 206.765 444.224 206.093 443.6C205.437 442.976 204.557 442.664 203.453 442.664C202.493 442.664 201.669 442.92 200.981 443.432C200.309 443.944 199.765 444.696 199.349 445.688L197.525 445.016C198.037 443.656 198.797 442.616 199.805 441.896C200.813 441.176 202.029 440.816 203.453 440.816C204.301 440.816 205.069 440.944 205.757 441.2C206.445 441.456 207.029 441.816 207.509 442.28C208.005 442.728 208.381 443.272 208.637 443.912C208.909 444.552 209.045 445.264 209.045 446.048C209.045 447.136 208.765 448.144 208.205 449.072C207.645 450 206.725 450.976 205.445 452L200.165 456.2H209.333V458H197.669Z" fill="#F1F2F1"/>
<path d="M289.49 458V455.864L296.042 450.584C297.05 449.768 297.778 449 298.226 448.28C298.69 447.56 298.922 446.816 298.922 446.048C298.922 445.04 298.586 444.224 297.914 443.6C297.258 442.976 296.378 442.664 295.274 442.664C294.314 442.664 293.49 442.92 292.802 443.432C292.13 443.944 291.586 444.696 291.17 445.688L289.346 445.016C289.858 443.656 290.618 442.616 291.626 441.896C292.634 441.176 293.85 440.816 295.274 440.816C296.122 440.816 296.89 440.944 297.578 441.2C298.266 441.456 298.85 441.816 299.33 442.28C299.826 442.728 300.202 443.272 300.458 443.912C300.73 444.552 300.866 445.264 300.866 446.048C300.866 447.136 300.586 448.144 300.026 449.072C299.466 450 298.546 450.976 297.266 452L291.986 456.2H301.154V458H289.49ZM310.497 458.384C309.473 458.384 308.553 458.168 307.737 457.736C306.921 457.304 306.225 456.704 305.649 455.936C305.073 455.152 304.625 454.224 304.305 453.152C304.001 452.064 303.849 450.88 303.849 449.6C303.849 448.32 304.001 447.144 304.305 446.072C304.625 444.984 305.073 444.056 305.649 443.288C306.225 442.504 306.921 441.896 307.737 441.464C308.553 441.032 309.473 440.816 310.497 440.816C311.521 440.816 312.441 441.032 313.257 441.464C314.073 441.896 314.769 442.504 315.345 443.288C315.921 444.056 316.361 444.984 316.665 446.072C316.985 447.144 317.145 448.32 317.145 449.6C317.145 450.88 316.985 452.064 316.665 453.152C316.361 454.224 315.921 455.152 315.345 455.936C314.769 456.704 314.073 457.304 313.257 457.736C312.441 458.168 311.521 458.384 310.497 458.384ZM310.497 442.712C309.777 442.712 309.129 442.88 308.553 443.216C307.977 443.552 307.489 444.032 307.089 444.656C306.689 445.264 306.377 445.992 306.153 446.84C305.945 447.672 305.84 448.592 305.84 449.6C305.84 450.608 305.945 451.536 306.153 452.384C306.377 453.216 306.689 453.944 307.089 454.568C307.489 455.176 307.977 455.648 308.553 455.984C309.129 456.32 309.777 456.488 310.497 456.488C311.217 456.488 311.865 456.32 312.441 455.984C313.017 455.648 313.505 455.176 313.905 454.568C314.305 453.944 314.609 453.216 314.817 452.384C315.041 451.536 315.153 450.608 315.153 449.6C315.153 448.592 315.041 447.672 314.817 446.84C314.609 445.992 314.305 445.264 313.905 444.656C313.505 444.032 313.017 443.552 312.441 443.216C311.865 442.88 311.217 442.712 310.497 442.712ZM319.56 458V455.864L326.112 450.584C327.12 449.768 327.848 449 328.296 448.28C328.76 447.56 328.992 446.816 328.992 446.048C328.992 445.04 328.656 444.224 327.984 443.6C327.328 442.976 326.448 442.664 325.344 442.664C324.384 442.664 323.56 442.92 322.872 443.432C322.2 443.944 321.656 444.696 321.24 445.688L319.416 445.016C319.928 443.656 320.688 442.616 321.696 441.896C322.704 441.176 323.92 440.816 325.344 440.816C326.192 440.816 326.96 440.944 327.648 441.2C328.336 441.456 328.92 441.816 329.4 442.28C329.896 442.728 330.272 443.272 330.528 443.912C330.8 444.552 330.936 445.264 330.936 446.048C330.936 447.136 330.656 448.144 330.096 449.072C329.536 450 328.616 450.976 327.336 452L322.056 456.2H331.224V458H319.56ZM339.127 458.384C337.623 458.384 336.359 458.048 335.335 457.376C334.311 456.688 333.519 455.688 332.959 454.376L334.711 453.512C335.191 454.6 335.791 455.376 336.511 455.84C337.247 456.304 338.119 456.536 339.127 456.536C340.375 456.536 341.375 456.24 342.127 455.648C342.879 455.056 343.255 454.256 343.255 453.248C343.255 452.352 342.959 451.632 342.367 451.088C341.791 450.544 341.023 450.272 340.063 450.272H336.727V448.424H339.991C340.855 448.424 341.559 448.176 342.103 447.68C342.647 447.168 342.919 446.496 342.919 445.664C342.919 444.768 342.591 444.048 341.935 443.504C341.295 442.944 340.399 442.664 339.247 442.664C338.287 442.664 337.463 442.88 336.775 443.312C336.103 443.744 335.535 444.4 335.071 445.28L333.391 444.368C333.967 443.216 334.751 442.336 335.743 441.728C336.751 441.12 337.935 440.816 339.295 440.816C340.127 440.816 340.887 440.928 341.575 441.152C342.263 441.376 342.847 441.696 343.327 442.112C343.823 442.528 344.207 443.024 344.479 443.6C344.751 444.176 344.887 444.816 344.887 445.52C344.887 446.416 344.671 447.184 344.239 447.824C343.823 448.464 343.247 448.944 342.511 449.264C343.375 449.616 344.039 450.136 344.503 450.824C344.983 451.512 345.223 452.336 345.223 453.296C345.223 454.048 345.071 454.736 344.767 455.36C344.479 455.984 344.071 456.52 343.543 456.968C343.015 457.416 342.375 457.76 341.623 458C340.871 458.256 340.039 458.384 339.127 458.384Z" fill="#F1F2F1"/>
<path d="M425.087 458V455.864L431.639 450.584C432.647 449.768 433.375 449 433.823 448.28C434.287 447.56 434.519 446.816 434.519 446.048C434.519 445.04 434.183 444.224 433.511 443.6C432.855 442.976 431.975 442.664 430.871 442.664C429.911 442.664 429.087 442.92 428.399 443.432C427.727 443.944 427.183 444.696 426.767 445.688L424.943 445.016C425.455 443.656 426.215 442.616 427.223 441.896C428.231 441.176 429.447 440.816 430.871 440.816C431.719 440.816 432.487 440.944 433.175 441.2C433.863 441.456 434.447 441.816 434.927 442.28C435.423 442.728 435.799 443.272 436.055 443.912C436.327 444.552 436.463 445.264 436.463 446.048C436.463 447.136 436.183 448.144 435.623 449.072C435.063 450 434.143 450.976 432.863 452L427.583 456.2H436.751V458H425.087ZM446.094 458.384C445.07 458.384 444.15 458.168 443.334 457.736C442.518 457.304 441.822 456.704 441.246 455.936C440.67 455.152 440.222 454.224 439.902 453.152C439.598 452.064 439.446 450.88 439.446 449.6C439.446 448.32 439.598 447.144 439.902 446.072C440.222 444.984 440.67 444.056 441.246 443.288C441.822 442.504 442.518 441.896 443.334 441.464C444.15 441.032 445.07 440.816 446.094 440.816C447.118 440.816 448.038 441.032 448.854 441.464C449.67 441.896 450.366 442.504 450.942 443.288C451.518 444.056 451.958 444.984 452.262 446.072C452.582 447.144 452.742 448.32 452.742 449.6C452.742 450.88 452.582 452.064 452.262 453.152C451.958 454.224 451.518 455.152 450.942 455.936C450.366 456.704 449.67 457.304 448.854 457.736C448.038 458.168 447.118 458.384 446.094 458.384ZM446.094 442.712C445.374 442.712 444.726 442.88 444.15 443.216C443.574 443.552 443.086 444.032 442.686 444.656C442.286 445.264 441.974 445.992 441.75 446.84C441.542 447.672 441.438 448.592 441.438 449.6C441.438 450.608 441.542 451.536 441.75 452.384C441.974 453.216 442.286 453.944 442.686 454.568C443.086 455.176 443.574 455.648 444.15 455.984C444.726 456.32 445.374 456.488 446.094 456.488C446.814 456.488 447.462 456.32 448.038 455.984C448.614 455.648 449.102 455.176 449.502 454.568C449.902 453.944 450.206 453.216 450.414 452.384C450.638 451.536 450.75 450.608 450.75 449.6C450.75 448.592 450.638 447.672 450.414 446.84C450.206 445.992 449.902 445.264 449.502 444.656C449.102 444.032 448.614 443.552 448.038 443.216C447.462 442.88 446.814 442.712 446.094 442.712ZM455.158 458V455.864L461.71 450.584C462.718 449.768 463.446 449 463.894 448.28C464.358 447.56 464.59 446.816 464.59 446.048C464.59 445.04 464.254 444.224 463.582 443.6C462.926 442.976 462.046 442.664 460.942 442.664C459.982 442.664 459.158 442.92 458.47 443.432C457.798 443.944 457.254 444.696 456.838 445.688L455.014 445.016C455.526 443.656 456.286 442.616 457.294 441.896C458.302 441.176 459.518 440.816 460.942 440.816C461.79 440.816 462.558 440.944 463.246 441.2C463.934 441.456 464.518 441.816 464.998 442.28C465.494 442.728 465.87 443.272 466.126 443.912C466.398 444.552 466.534 445.264 466.534 446.048C466.534 447.136 466.254 448.144 465.694 449.072C465.134 450 464.214 450.976 462.934 452L457.654 456.2H466.822V458H455.158ZM470.956 451.976H477.22V443.624L470.956 451.976ZM477.22 458V453.8H468.988V451.592L476.86 441.2H479.14V451.976H481.612V453.8H479.14V458H477.22Z" fill="#F1F2F1"/>
<path d="M561.689 458V455.864L568.241 450.584C569.249 449.768 569.977 449 570.425 448.28C570.889 447.56 571.121 446.816 571.121 446.048C571.121 445.04 570.785 444.224 570.113 443.6C569.457 442.976 568.577 442.664 567.473 442.664C566.513 442.664 565.689 442.92 565.001 443.432C564.329 443.944 563.785 444.696 563.369 445.688L561.545 445.016C562.057 443.656 562.817 442.616 563.825 441.896C564.833 441.176 566.049 440.816 567.473 440.816C568.321 440.816 569.089 440.944 569.777 441.2C570.465 441.456 571.049 441.816 571.529 442.28C572.025 442.728 572.401 443.272 572.657 443.912C572.929 444.552 573.065 445.264 573.065 446.048C573.065 447.136 572.785 448.144 572.225 449.072C571.665 450 570.745 450.976 569.465 452L564.185 456.2H573.353V458H561.689ZM582.696 458.384C581.672 458.384 580.752 458.168 579.936 457.736C579.12 457.304 578.424 456.704 577.848 455.936C577.272 455.152 576.824 454.224 576.504 453.152C576.2 452.064 576.048 450.88 576.048 449.6C576.048 448.32 576.2 447.144 576.504 446.072C576.824 444.984 577.272 444.056 577.848 443.288C578.424 442.504 579.12 441.896 579.936 441.464C580.752 441.032 581.672 440.816 582.696 440.816C583.72 440.816 584.64 441.032 585.456 441.464C586.272 441.896 586.968 442.504 587.544 443.288C588.12 444.056 588.56 444.984 588.864 446.072C589.184 447.144 589.344 448.32 589.344 449.6C589.344 450.88 589.184 452.064 588.864 453.152C588.56 454.224 588.12 455.152 587.544 455.936C586.968 456.704 586.272 457.304 585.456 457.736C584.64 458.168 583.72 458.384 582.696 458.384ZM582.696 442.712C581.976 442.712 581.328 442.88 580.752 443.216C580.176 443.552 579.688 444.032 579.288 444.656C578.888 445.264 578.576 445.992 578.352 446.84C578.144 447.672 578.04 448.592 578.04 449.6C578.04 450.608 578.144 451.536 578.352 452.384C578.576 453.216 578.888 453.944 579.288 454.568C579.688 455.176 580.176 455.648 580.752 455.984C581.328 456.32 581.976 456.488 582.696 456.488C583.416 456.488 584.064 456.32 584.64 455.984C585.216 455.648 585.704 455.176 586.104 454.568C586.504 453.944 586.808 453.216 587.016 452.384C587.24 451.536 587.352 450.608 587.352 449.6C587.352 448.592 587.24 447.672 587.016 446.84C586.808 445.992 586.504 445.264 586.104 444.656C585.704 444.032 585.216 443.552 584.64 443.216C584.064 442.88 583.416 442.712 582.696 442.712ZM591.759 458V455.864L598.311 450.584C599.319 449.768 600.047 449 600.495 448.28C600.959 447.56 601.191 446.816 601.191 446.048C601.191 445.04 600.855 444.224 600.183 443.6C599.527 442.976 598.647 442.664 597.543 442.664C596.583 442.664 595.759 442.92 595.071 443.432C594.399 443.944 593.855 444.696 593.439 445.688L591.615 445.016C592.127 443.656 592.887 442.616 593.895 441.896C594.903 441.176 596.119 440.816 597.543 440.816C598.391 440.816 599.159 440.944 599.847 441.2C600.535 441.456 601.119 441.816 601.599 442.28C602.095 442.728 602.471 443.272 602.727 443.912C602.999 444.552 603.135 445.264 603.135 446.048C603.135 447.136 602.855 448.144 602.295 449.072C601.735 450 600.815 450.976 599.535 452L594.255 456.2H603.423V458H591.759ZM612.382 456.584C612.974 456.584 613.51 456.488 613.99 456.296C614.486 456.088 614.902 455.816 615.238 455.48C615.59 455.128 615.862 454.712 616.054 454.232C616.246 453.752 616.342 453.232 616.342 452.672C616.342 451.536 615.974 450.64 615.238 449.984C614.502 449.328 613.55 449 612.382 449C611.758 449 611.198 449.096 610.702 449.288C610.222 449.464 609.814 449.72 609.478 450.056C609.142 450.392 608.878 450.792 608.686 451.256C608.51 451.704 608.422 452.192 608.422 452.72C608.422 453.28 608.518 453.8 608.71 454.28C608.902 454.744 609.174 455.152 609.526 455.504C609.878 455.84 610.294 456.104 610.774 456.296C611.27 456.488 611.806 456.584 612.382 456.584ZM612.382 458.384C610.398 458.384 608.854 457.688 607.75 456.296C606.662 454.904 606.118 452.88 606.118 450.224V449.168C606.118 446.48 606.686 444.416 607.822 442.976C608.958 441.536 610.582 440.816 612.694 440.816C615.126 440.816 616.934 441.816 618.118 443.816L616.51 444.824C616.078 444.088 615.55 443.536 614.926 443.168C614.302 442.8 613.55 442.616 612.67 442.616C611.166 442.616 610.014 443.144 609.214 444.2C608.414 445.256 608.014 446.8 608.014 448.832C608.014 448.96 608.014 449.088 608.014 449.216C608.014 449.344 608.022 449.472 608.038 449.6C609.062 448 610.59 447.2 612.622 447.2C613.454 447.2 614.214 447.336 614.902 447.608C615.606 447.88 616.206 448.264 616.702 448.76C617.214 449.24 617.606 449.824 617.878 450.512C618.166 451.184 618.31 451.928 618.31 452.744C618.31 453.576 618.166 454.336 617.878 455.024C617.59 455.712 617.182 456.304 616.654 456.8C616.142 457.296 615.518 457.688 614.782 457.976C614.062 458.248 613.262 458.384 612.382 458.384Z" fill="#F1F2F1"/>
<path d="M698.286 458V455.864L704.838 450.584C705.846 449.768 706.574 449 707.022 448.28C707.486 447.56 707.718 446.816 707.718 446.048C707.718 445.04 707.382 444.224 706.71 443.6C706.054 442.976 705.174 442.664 704.07 442.664C703.11 442.664 702.286 442.92 701.598 443.432C700.926 443.944 700.382 444.696 699.966 445.688L698.142 445.016C698.654 443.656 699.414 442.616 700.422 441.896C701.43 441.176 702.646 440.816 704.07 440.816C704.918 440.816 705.686 440.944 706.374 441.2C707.062 441.456 707.646 441.816 708.126 442.28C708.622 442.728 708.998 443.272 709.254 443.912C709.526 444.552 709.662 445.264 709.662 446.048C709.662 447.136 709.382 448.144 708.822 449.072C708.262 450 707.342 450.976 706.062 452L700.782 456.2H709.95V458H698.286ZM719.293 458.384C718.269 458.384 717.349 458.168 716.533 457.736C715.717 457.304 715.021 456.704 714.445 455.936C713.869 455.152 713.421 454.224 713.101 453.152C712.797 452.064 712.645 450.88 712.645 449.6C712.645 448.32 712.797 447.144 713.101 446.072C713.421 444.984 713.869 444.056 714.445 443.288C715.021 442.504 715.717 441.896 716.533 441.464C717.349 441.032 718.269 440.816 719.293 440.816C720.317 440.816 721.237 441.032 722.053 441.464C722.869 441.896 723.565 442.504 724.141 443.288C724.717 444.056 725.157 444.984 725.461 446.072C725.781 447.144 725.941 448.32 725.941 449.6C725.941 450.88 725.781 452.064 725.461 453.152C725.157 454.224 724.717 455.152 724.141 455.936C723.565 456.704 722.869 457.304 722.053 457.736C721.237 458.168 720.317 458.384 719.293 458.384ZM719.293 442.712C718.573 442.712 717.925 442.88 717.349 443.216C716.773 443.552 716.285 444.032 715.885 444.656C715.485 445.264 715.173 445.992 714.949 446.84C714.741 447.672 714.637 448.592 714.637 449.6C714.637 450.608 714.741 451.536 714.949 452.384C715.173 453.216 715.485 453.944 715.885 454.568C716.285 455.176 716.773 455.648 717.349 455.984C717.925 456.32 718.573 456.488 719.293 456.488C720.013 456.488 720.661 456.32 721.237 455.984C721.813 455.648 722.301 455.176 722.701 454.568C723.101 453.944 723.405 453.216 723.613 452.384C723.837 451.536 723.949 450.608 723.949 449.6C723.949 448.592 723.837 447.672 723.613 446.84C723.405 445.992 723.101 445.264 722.701 444.656C722.301 444.032 721.813 443.552 721.237 443.216C720.661 442.88 720.013 442.712 719.293 442.712ZM728.357 458V455.864L734.909 450.584C735.917 449.768 736.645 449 737.093 448.28C737.557 447.56 737.789 446.816 737.789 446.048C737.789 445.04 737.453 444.224 736.781 443.6C736.125 442.976 735.245 442.664 734.141 442.664C733.181 442.664 732.357 442.92 731.669 443.432C730.997 443.944 730.453 444.696 730.037 445.688L728.213 445.016C728.725 443.656 729.485 442.616 730.493 441.896C731.501 441.176 732.717 440.816 734.141 440.816C734.989 440.816 735.757 440.944 736.445 441.2C737.133 441.456 737.717 441.816 738.197 442.28C738.693 442.728 739.069 443.272 739.325 443.912C739.597 444.552 739.733 445.264 739.733 446.048C739.733 447.136 739.453 448.144 738.893 449.072C738.333 450 737.413 450.976 736.133 452L730.853 456.2H740.021V458H728.357ZM748.212 456.608C749.444 456.608 750.412 456.312 751.116 455.72C751.82 455.112 752.172 454.336 752.172 453.392C752.172 452.464 751.812 451.704 751.092 451.112C750.388 450.504 749.428 450.2 748.212 450.2C746.996 450.2 746.028 450.504 745.308 451.112C744.604 451.704 744.252 452.464 744.252 453.392C744.252 454.336 744.604 455.112 745.308 455.72C746.012 456.312 746.98 456.608 748.212 456.608ZM748.212 448.52C749.316 448.52 750.188 448.256 750.828 447.728C751.468 447.2 751.788 446.504 751.788 445.64C751.788 444.744 751.468 444.016 750.828 443.456C750.188 442.88 749.316 442.592 748.212 442.592C747.108 442.592 746.236 442.88 745.596 443.456C744.956 444.016 744.636 444.744 744.636 445.64C744.636 446.504 744.956 447.2 745.596 447.728C746.236 448.256 747.108 448.52 748.212 448.52ZM748.212 458.384C747.332 458.384 746.524 458.264 745.788 458.024C745.068 457.784 744.452 457.456 743.94 457.04C743.428 456.608 743.028 456.096 742.74 455.504C742.452 454.896 742.308 454.232 742.308 453.512C742.308 452.568 742.548 451.736 743.028 451.016C743.508 450.296 744.18 449.744 745.044 449.36C744.276 448.992 743.692 448.48 743.292 447.824C742.892 447.168 742.692 446.408 742.692 445.544C742.692 444.84 742.82 444.2 743.076 443.624C743.348 443.048 743.724 442.552 744.204 442.136C744.684 441.72 745.26 441.4 745.932 441.176C746.62 440.936 747.38 440.816 748.212 440.816C749.044 440.816 749.796 440.936 750.468 441.176C751.156 441.4 751.74 441.72 752.22 442.136C752.7 442.552 753.068 443.048 753.324 443.624C753.596 444.2 753.732 444.84 753.732 445.544C753.732 446.408 753.532 447.168 753.132 447.824C752.732 448.48 752.148 448.992 751.38 449.36C752.244 449.744 752.916 450.296 753.396 451.016C753.876 451.736 754.116 452.568 754.116 453.512C754.116 454.232 753.972 454.896 753.684 455.504C753.396 456.096 752.996 456.608 752.484 457.04C751.972 457.456 751.348 457.784 750.612 458.024C749.892 458.264 749.092 458.384 748.212 458.384Z" fill="#F1F2F1"/>
<path d="M833.888 458V455.864L840.44 450.584C841.448 449.768 842.176 449 842.624 448.28C843.088 447.56 843.32 446.816 843.32 446.048C843.32 445.04 842.984 444.224 842.312 443.6C841.656 442.976 840.776 442.664 839.672 442.664C838.712 442.664 837.888 442.92 837.2 443.432C836.528 443.944 835.984 444.696 835.568 445.688L833.744 445.016C834.256 443.656 835.016 442.616 836.024 441.896C837.032 441.176 838.248 440.816 839.672 440.816C840.52 440.816 841.288 440.944 841.976 441.2C842.664 441.456 843.248 441.816 843.728 442.28C844.224 442.728 844.6 443.272 844.856 443.912C845.128 444.552 845.264 445.264 845.264 446.048C845.264 447.136 844.984 448.144 844.424 449.072C843.864 450 842.944 450.976 841.664 452L836.384 456.2H845.552V458H833.888ZM854.895 458.384C853.871 458.384 852.951 458.168 852.135 457.736C851.319 457.304 850.623 456.704 850.047 455.936C849.471 455.152 849.023 454.224 848.703 453.152C848.399 452.064 848.247 450.88 848.247 449.6C848.247 448.32 848.399 447.144 848.703 446.072C849.023 444.984 849.471 444.056 850.047 443.288C850.623 442.504 851.319 441.896 852.135 441.464C852.951 441.032 853.871 440.816 854.895 440.816C855.919 440.816 856.839 441.032 857.655 441.464C858.471 441.896 859.167 442.504 859.743 443.288C860.319 444.056 860.759 444.984 861.063 446.072C861.383 447.144 861.543 448.32 861.543 449.6C861.543 450.88 861.383 452.064 861.063 453.152C860.759 454.224 860.319 455.152 859.743 455.936C859.167 456.704 858.471 457.304 857.655 457.736C856.839 458.168 855.919 458.384 854.895 458.384ZM854.895 442.712C854.175 442.712 853.527 442.88 852.951 443.216C852.375 443.552 851.887 444.032 851.487 444.656C851.087 445.264 850.775 445.992 850.551 446.84C850.343 447.672 850.239 448.592 850.239 449.6C850.239 450.608 850.343 451.536 850.551 452.384C850.775 453.216 851.087 453.944 851.487 454.568C851.887 455.176 852.375 455.648 852.951 455.984C853.527 456.32 854.175 456.488 854.895 456.488C855.615 456.488 856.263 456.32 856.839 455.984C857.415 455.648 857.903 455.176 858.303 454.568C858.703 453.944 859.007 453.216 859.215 452.384C859.439 451.536 859.551 450.608 859.551 449.6C859.551 448.592 859.439 447.672 859.215 446.84C859.007 445.992 858.703 445.264 858.303 444.656C857.903 444.032 857.415 443.552 856.839 443.216C856.263 442.88 855.615 442.712 854.895 442.712ZM869.814 458.384C868.31 458.384 867.046 458.048 866.022 457.376C864.998 456.688 864.206 455.688 863.646 454.376L865.398 453.512C865.878 454.6 866.478 455.376 867.198 455.84C867.934 456.304 868.806 456.536 869.814 456.536C871.062 456.536 872.062 456.24 872.814 455.648C873.566 455.056 873.942 454.256 873.942 453.248C873.942 452.352 873.646 451.632 873.054 451.088C872.478 450.544 871.71 450.272 870.75 450.272H867.414V448.424H870.678C871.542 448.424 872.246 448.176 872.79 447.68C873.334 447.168 873.606 446.496 873.606 445.664C873.606 444.768 873.278 444.048 872.622 443.504C871.982 442.944 871.086 442.664 869.934 442.664C868.974 442.664 868.15 442.88 867.462 443.312C866.79 443.744 866.222 444.4 865.758 445.28L864.078 444.368C864.654 443.216 865.438 442.336 866.43 441.728C867.438 441.12 868.622 440.816 869.982 440.816C870.814 440.816 871.574 440.928 872.262 441.152C872.95 441.376 873.534 441.696 874.014 442.112C874.51 442.528 874.894 443.024 875.166 443.6C875.438 444.176 875.574 444.816 875.574 445.52C875.574 446.416 875.358 447.184 874.926 447.824C874.51 448.464 873.934 448.944 873.198 449.264C874.062 449.616 874.726 450.136 875.19 450.824C875.67 451.512 875.91 452.336 875.91 453.296C875.91 454.048 875.758 454.736 875.454 455.36C875.166 455.984 874.758 456.52 874.23 456.968C873.702 457.416 873.062 457.76 872.31 458C871.558 458.256 870.726 458.384 869.814 458.384ZM885.223 458.384C884.199 458.384 883.279 458.168 882.463 457.736C881.647 457.304 880.951 456.704 880.375 455.936C879.799 455.152 879.351 454.224 879.031 453.152C878.727 452.064 878.575 450.88 878.575 449.6C878.575 448.32 878.727 447.144 879.031 446.072C879.351 444.984 879.799 444.056 880.375 443.288C880.951 442.504 881.647 441.896 882.463 441.464C883.279 441.032 884.199 440.816 885.223 440.816C886.247 440.816 887.167 441.032 887.983 441.464C888.799 441.896 889.495 442.504 890.071 443.288C890.647 444.056 891.087 444.984 891.391 446.072C891.711 447.144 891.871 448.32 891.871 449.6C891.871 450.88 891.711 452.064 891.391 453.152C891.087 454.224 890.647 455.152 890.071 455.936C889.495 456.704 888.799 457.304 887.983 457.736C887.167 458.168 886.247 458.384 885.223 458.384ZM885.223 442.712C884.503 442.712 883.855 442.88 883.279 443.216C882.703 443.552 882.215 444.032 881.815 444.656C881.415 445.264 881.103 445.992 880.879 446.84C880.671 447.672 880.567 448.592 880.567 449.6C880.567 450.608 880.671 451.536 880.879 452.384C881.103 453.216 881.415 453.944 881.815 454.568C882.215 455.176 882.703 455.648 883.279 455.984C883.855 456.32 884.503 456.488 885.223 456.488C885.943 456.488 886.591 456.32 887.167 455.984C887.743 455.648 888.231 455.176 888.631 454.568C889.031 453.944 889.335 453.216 889.543 452.384C889.767 451.536 889.879 450.608 889.879 449.6C889.879 448.592 889.767 447.672 889.543 446.84C889.335 445.992 889.031 445.264 888.631 444.656C888.231 444.032 887.743 443.552 887.167 443.216C886.591 442.88 885.943 442.712 885.223 442.712Z" fill="#F1F2F1"/>
<path d="M162.032 266.608C163.264 266.608 164.232 266.312 164.936 265.72C165.64 265.112 165.992 264.336 165.992 263.392C165.992 262.464 165.632 261.704 164.912 261.112C164.208 260.504 163.248 260.2 162.032 260.2C160.816 260.2 159.848 260.504 159.128 261.112C158.424 261.704 158.072 262.464 158.072 263.392C158.072 264.336 158.424 265.112 159.128 265.72C159.832 266.312 160.8 266.608 162.032 266.608ZM162.032 258.52C163.136 258.52 164.008 258.256 164.648 257.728C165.288 257.2 165.608 256.504 165.608 255.64C165.608 254.744 165.288 254.016 164.648 253.456C164.008 252.88 163.136 252.592 162.032 252.592C160.928 252.592 160.056 252.88 159.416 253.456C158.776 254.016 158.456 254.744 158.456 255.64C158.456 256.504 158.776 257.2 159.416 257.728C160.056 258.256 160.928 258.52 162.032 258.52ZM162.032 268.384C161.152 268.384 160.344 268.264 159.608 268.024C158.888 267.784 158.272 267.456 157.76 267.04C157.248 266.608 156.848 266.096 156.56 265.504C156.272 264.896 156.128 264.232 156.128 263.512C156.128 262.568 156.368 261.736 156.848 261.016C157.328 260.296 158 259.744 158.864 259.36C158.096 258.992 157.512 258.48 157.112 257.824C156.712 257.168 156.512 256.408 156.512 255.544C156.512 254.84 156.64 254.2 156.896 253.624C157.168 253.048 157.544 252.552 158.024 252.136C158.504 251.72 159.08 251.4 159.752 251.176C160.44 250.936 161.2 250.816 162.032 250.816C162.864 250.816 163.616 250.936 164.288 251.176C164.976 251.4 165.56 251.72 166.04 252.136C166.52 252.552 166.888 253.048 167.144 253.624C167.416 254.2 167.552 254.84 167.552 255.544C167.552 256.408 167.352 257.168 166.952 257.824C166.552 258.48 165.968 258.992 165.2 259.36C166.064 259.744 166.736 260.296 167.216 261.016C167.696 261.736 167.936 262.568 167.936 263.512C167.936 264.232 167.792 264.896 167.504 265.504C167.216 266.096 166.816 266.608 166.304 267.04C165.792 267.456 165.168 267.784 164.432 268.024C163.712 268.264 162.912 268.384 162.032 268.384ZM183.481 263.992L187.393 256H189.793V268H187.921V258.88L184.225 266.344H182.689L178.993 258.88V268H177.121V256H179.569L183.481 263.992ZM192.185 266.176H192.473C192.889 266.176 193.233 266.088 193.505 265.912C193.777 265.736 193.985 265.432 194.129 265C194.289 264.552 194.401 263.96 194.465 263.224C194.529 262.472 194.561 261.536 194.561 260.416V256H203.273V268H201.329V257.8H196.481V260.896C196.481 262.208 196.409 263.32 196.265 264.232C196.137 265.144 195.921 265.888 195.617 266.464C195.329 267.024 194.937 267.432 194.441 267.688C193.961 267.928 193.369 268.048 192.665 268.048H192.185V266.176ZM216.99 256V268H215.046V262.528H208.854V268H206.91V256H208.854V260.728H215.046V256H216.99Z" fill="#F1F2F1"/>
<path d="M288.008 222.616C287.416 222.616 286.872 222.72 286.376 222.928C285.896 223.12 285.48 223.392 285.128 223.744C284.792 224.08 284.528 224.488 284.336 224.968C284.144 225.448 284.048 225.968 284.048 226.528C284.048 227.664 284.416 228.56 285.152 229.216C285.888 229.872 286.84 230.2 288.008 230.2C288.632 230.2 289.184 230.112 289.664 229.936C290.16 229.744 290.576 229.48 290.912 229.144C291.248 228.808 291.504 228.416 291.68 227.968C291.872 227.504 291.968 227.008 291.968 226.48C291.968 225.92 291.872 225.408 291.68 224.944C291.488 224.464 291.216 224.056 290.864 223.72C290.512 223.368 290.088 223.096 289.592 222.904C289.112 222.712 288.584 222.616 288.008 222.616ZM288.008 220.816C289.992 220.816 291.528 221.512 292.616 222.904C293.72 224.296 294.272 226.32 294.272 228.976V230.032C294.272 232.72 293.704 234.784 292.568 236.224C291.432 237.664 289.808 238.384 287.696 238.384C285.264 238.384 283.456 237.384 282.272 235.384L283.88 234.376C284.312 235.112 284.84 235.664 285.464 236.032C286.088 236.4 286.84 236.584 287.72 236.584C289.224 236.584 290.376 236.056 291.176 235C291.976 233.944 292.376 232.4 292.376 230.368C292.376 230.24 292.376 230.112 292.376 229.984C292.376 229.856 292.368 229.728 292.352 229.6C291.328 231.2 289.8 232 287.768 232C286.936 232 286.168 231.864 285.464 231.592C284.776 231.32 284.176 230.944 283.664 230.464C283.168 229.968 282.776 229.384 282.488 228.712C282.216 228.024 282.08 227.272 282.08 226.456C282.08 225.624 282.224 224.864 282.512 224.176C282.8 223.488 283.2 222.896 283.712 222.4C284.24 221.904 284.864 221.52 285.584 221.248C286.32 220.96 287.128 220.816 288.008 220.816ZM297.082 236.632C297.082 236.216 297.218 235.872 297.49 235.6C297.778 235.312 298.13 235.168 298.546 235.168C298.962 235.168 299.306 235.312 299.578 235.6C299.866 235.872 300.01 236.216 300.01 236.632C300.01 237.048 299.866 237.4 299.578 237.688C299.306 237.96 298.962 238.096 298.546 238.096C298.13 238.096 297.778 237.96 297.49 237.688C297.218 237.4 297.082 237.048 297.082 236.632ZM304.132 231.976H310.396V223.624L304.132 231.976ZM310.396 238V233.8H302.164V231.592L310.036 221.2H312.316V231.976H314.788V233.8H312.316V238H310.396ZM330.364 233.992L334.276 226H336.676V238H334.804V228.88L331.108 236.344H329.572L325.876 228.88V238H324.004V226H326.452L330.364 233.992ZM339.068 236.176H339.356C339.772 236.176 340.116 236.088 340.388 235.912C340.66 235.736 340.868 235.432 341.012 235C341.172 234.552 341.284 233.96 341.348 233.224C341.412 232.472 341.444 231.536 341.444 230.416V226H350.156V238H348.212V227.8H343.364V230.896C343.364 232.208 343.292 233.32 343.148 234.232C343.02 235.144 342.804 235.888 342.5 236.464C342.212 237.024 341.82 237.432 341.324 237.688C340.844 237.928 340.252 238.048 339.548 238.048H339.068V236.176ZM363.873 226V238H361.929V232.528H355.737V238H353.793V226H355.737V230.728H361.929V226H363.873Z" fill="#F1F2F1"/>
<path d="M419.968 208V193.432L416.488 195.784L415.528 194.176L419.992 191.2H421.888V208H419.968ZM432.418 208.384C431.394 208.384 430.474 208.168 429.658 207.736C428.842 207.304 428.146 206.704 427.57 205.936C426.994 205.152 426.546 204.224 426.226 203.152C425.922 202.064 425.77 200.88 425.77 199.6C425.77 198.32 425.922 197.144 426.226 196.072C426.546 194.984 426.994 194.056 427.57 193.288C428.146 192.504 428.842 191.896 429.658 191.464C430.474 191.032 431.394 190.816 432.418 190.816C433.442 190.816 434.362 191.032 435.178 191.464C435.994 191.896 436.69 192.504 437.266 193.288C437.842 194.056 438.282 194.984 438.586 196.072C438.906 197.144 439.066 198.32 439.066 199.6C439.066 200.88 438.906 202.064 438.586 203.152C438.282 204.224 437.842 205.152 437.266 205.936C436.69 206.704 435.994 207.304 435.178 207.736C434.362 208.168 433.442 208.384 432.418 208.384ZM432.418 192.712C431.698 192.712 431.05 192.88 430.474 193.216C429.898 193.552 429.41 194.032 429.01 194.656C428.61 195.264 428.298 195.992 428.074 196.84C427.866 197.672 427.762 198.592 427.762 199.6C427.762 200.608 427.866 201.536 428.074 202.384C428.298 203.216 428.61 203.944 429.01 204.568C429.41 205.176 429.898 205.648 430.474 205.984C431.05 206.32 431.698 206.488 432.418 206.488C433.138 206.488 433.786 206.32 434.362 205.984C434.938 205.648 435.426 205.176 435.826 204.568C436.226 203.944 436.53 203.216 436.738 202.384C436.962 201.536 437.074 200.608 437.074 199.6C437.074 198.592 436.962 197.672 436.738 196.84C436.53 195.992 436.226 195.264 435.826 194.656C435.426 194.032 434.938 193.552 434.362 193.216C433.786 192.88 433.138 192.712 432.418 192.712ZM441.746 206.632C441.746 206.216 441.882 205.872 442.154 205.6C442.442 205.312 442.794 205.168 443.21 205.168C443.626 205.168 443.97 205.312 444.242 205.6C444.53 205.872 444.674 206.216 444.674 206.632C444.674 207.048 444.53 207.4 444.242 207.688C443.97 207.96 443.626 208.096 443.21 208.096C442.794 208.096 442.442 207.96 442.154 207.688C441.882 207.4 441.746 207.048 441.746 206.632ZM452.564 208.384C451.06 208.384 449.796 208.048 448.772 207.376C447.748 206.688 446.956 205.688 446.396 204.376L448.148 203.512C448.628 204.6 449.228 205.376 449.948 205.84C450.684 206.304 451.556 206.536 452.564 206.536C453.812 206.536 454.812 206.24 455.564 205.648C456.316 205.056 456.692 204.256 456.692 203.248C456.692 202.352 456.396 201.632 455.804 201.088C455.228 200.544 454.46 200.272 453.5 200.272H450.164V198.424H453.428C454.292 198.424 454.996 198.176 455.54 197.68C456.084 197.168 456.356 196.496 456.356 195.664C456.356 194.768 456.028 194.048 455.372 193.504C454.732 192.944 453.836 192.664 452.684 192.664C451.724 192.664 450.9 192.88 450.212 193.312C449.54 193.744 448.972 194.4 448.508 195.28L446.828 194.368C447.404 193.216 448.188 192.336 449.18 191.728C450.188 191.12 451.372 190.816 452.732 190.816C453.564 190.816 454.324 190.928 455.012 191.152C455.7 191.376 456.284 191.696 456.764 192.112C457.26 192.528 457.644 193.024 457.916 193.6C458.188 194.176 458.324 194.816 458.324 195.52C458.324 196.416 458.108 197.184 457.676 197.824C457.26 198.464 456.684 198.944 455.948 199.264C456.812 199.616 457.476 200.136 457.94 200.824C458.42 201.512 458.66 202.336 458.66 203.296C458.66 204.048 458.508 204.736 458.204 205.36C457.916 205.984 457.508 206.52 456.98 206.968C456.452 207.416 455.812 207.76 455.06 208C454.308 208.256 453.476 208.384 452.564 208.384ZM474.207 203.992L478.119 196H480.519V208H478.647V198.88L474.951 206.344H473.415L469.719 198.88V208H467.847V196H470.295L474.207 203.992ZM482.912 206.176H483.2C483.616 206.176 483.96 206.088 484.232 205.912C484.504 205.736 484.712 205.432 484.856 205C485.016 204.552 485.128 203.96 485.192 203.224C485.256 202.472 485.288 201.536 485.288 200.416V196H494V208H492.056V197.8H487.208V200.896C487.208 202.208 487.136 203.32 486.992 204.232C486.864 205.144 486.648 205.888 486.344 206.464C486.056 207.024 485.664 207.432 485.168 207.688C484.688 207.928 484.096 208.048 483.392 208.048H482.912V206.176ZM507.717 196V208H505.773V202.528H499.581V208H497.637V196H499.581V200.728H505.773V196H507.717Z" fill="#F1F2F1"/>
<path d="M552.305 141.22C552.305 139.487 552.572 137.84 553.105 136.28C553.652 134.72 554.465 133.273 555.545 131.94L556.725 132.88C555.832 134.107 555.132 135.393 554.625 136.74C554.119 138.087 553.865 139.58 553.865 141.22C553.865 142.86 554.119 144.353 554.625 145.7C555.132 147.047 555.832 148.333 556.725 149.56L555.545 150.5C554.465 149.167 553.652 147.72 553.105 146.16C552.572 144.6 552.305 142.953 552.305 141.22ZM558.485 137H566.885V147H565.265V138.5H560.105V147H558.485V137ZM575.03 145.76C575.55 145.76 576.023 145.667 576.45 145.48C576.877 145.293 577.243 145.033 577.55 144.7C577.857 144.353 578.09 143.953 578.25 143.5C578.423 143.033 578.51 142.533 578.51 142C578.51 141.453 578.423 140.953 578.25 140.5C578.09 140.047 577.857 139.653 577.55 139.32C577.243 138.973 576.877 138.707 576.45 138.52C576.023 138.333 575.55 138.24 575.03 138.24C574.51 138.24 574.037 138.333 573.61 138.52C573.183 138.707 572.817 138.973 572.51 139.32C572.203 139.653 571.963 140.047 571.79 140.5C571.63 140.953 571.55 141.453 571.55 142C571.55 142.533 571.63 143.033 571.79 143.5C571.963 143.953 572.203 144.353 572.51 144.7C572.817 145.033 573.183 145.293 573.61 145.48C574.037 145.667 574.51 145.76 575.03 145.76ZM575.25 147.28C574.45 147.28 573.73 147.107 573.09 146.76C572.463 146.413 571.95 145.927 571.55 145.3V151H569.93V137H571.55V138.7C571.95 138.073 572.463 137.587 573.09 137.24C573.73 136.893 574.45 136.72 575.25 136.72C575.943 136.72 576.59 136.853 577.19 137.12C577.79 137.387 578.31 137.753 578.75 138.22C579.19 138.687 579.53 139.247 579.77 139.9C580.023 140.54 580.15 141.24 580.15 142C580.15 142.76 580.023 143.467 579.77 144.12C579.53 144.76 579.19 145.313 578.75 145.78C578.31 146.247 577.79 146.613 577.19 146.88C576.59 147.147 575.943 147.28 575.25 147.28ZM587.224 147.28C586.464 147.28 585.771 147.147 585.144 146.88C584.517 146.613 583.971 146.247 583.504 145.78C583.051 145.3 582.697 144.74 582.444 144.1C582.191 143.447 582.064 142.747 582.064 142C582.064 141.253 582.191 140.56 582.444 139.92C582.697 139.267 583.051 138.707 583.504 138.24C583.971 137.76 584.517 137.387 585.144 137.12C585.771 136.853 586.464 136.72 587.224 136.72C587.984 136.72 588.677 136.853 589.304 137.12C589.931 137.387 590.471 137.76 590.924 138.24C591.391 138.707 591.751 139.267 592.004 139.92C592.257 140.56 592.384 141.253 592.384 142C592.384 142.747 592.257 143.447 592.004 144.1C591.751 144.74 591.391 145.3 590.924 145.78C590.471 146.247 589.931 146.613 589.304 146.88C588.677 147.147 587.984 147.28 587.224 147.28ZM587.224 145.76C587.744 145.76 588.217 145.667 588.644 145.48C589.084 145.293 589.457 145.033 589.764 144.7C590.071 144.353 590.311 143.953 590.484 143.5C590.657 143.033 590.744 142.533 590.744 142C590.744 141.453 590.657 140.953 590.484 140.5C590.311 140.047 590.071 139.653 589.764 139.32C589.457 138.973 589.084 138.707 588.644 138.52C588.217 138.333 587.744 138.24 587.224 138.24C586.704 138.24 586.224 138.333 585.784 138.52C585.357 138.707 584.991 138.973 584.684 139.32C584.377 139.653 584.137 140.047 583.964 140.5C583.791 140.953 583.704 141.453 583.704 142C583.704 142.533 583.791 143.033 583.964 143.5C584.137 143.953 584.377 144.353 584.684 144.7C584.991 145.033 585.357 145.293 585.784 145.48C586.224 145.667 586.704 145.76 587.224 145.76ZM594.852 137H600.972V138.5H596.472V147H594.852V137ZM611.299 137V147H609.679V142.44H604.519V147H602.899V137H604.519V140.94H609.679V137H611.299ZM618.884 147.28C618.124 147.28 617.431 147.147 616.804 146.88C616.178 146.613 615.631 146.247 615.164 145.78C614.711 145.3 614.358 144.74 614.104 144.1C613.851 143.447 613.724 142.747 613.724 142C613.724 141.253 613.851 140.56 614.104 139.92C614.358 139.267 614.711 138.707 615.164 138.24C615.631 137.76 616.178 137.387 616.804 137.12C617.431 136.853 618.124 136.72 618.884 136.72C619.644 136.72 620.338 136.853 620.964 137.12C621.591 137.387 622.131 137.76 622.584 138.24C623.051 138.707 623.411 139.267 623.664 139.92C623.918 140.56 624.044 141.253 624.044 142C624.044 142.747 623.918 143.447 623.664 144.1C623.411 144.74 623.051 145.3 622.584 145.78C622.131 146.247 621.591 146.613 620.964 146.88C620.338 147.147 619.644 147.28 618.884 147.28ZM618.884 145.76C619.404 145.76 619.878 145.667 620.304 145.48C620.744 145.293 621.118 145.033 621.424 144.7C621.731 144.353 621.971 143.953 622.144 143.5C622.318 143.033 622.404 142.533 622.404 142C622.404 141.453 622.318 140.953 622.144 140.5C621.971 140.047 621.731 139.653 621.424 139.32C621.118 138.973 620.744 138.707 620.304 138.52C619.878 138.333 619.404 138.24 618.884 138.24C618.364 138.24 617.884 138.333 617.444 138.52C617.018 138.707 616.651 138.973 616.344 139.32C616.038 139.653 615.798 140.047 615.624 140.5C615.451 140.953 615.364 141.453 615.364 142C615.364 142.533 615.451 143.033 615.624 143.5C615.798 143.953 616.038 144.353 616.344 144.7C616.651 145.033 617.018 145.293 617.444 145.48C617.884 145.667 618.364 145.76 618.884 145.76ZM629.476 147.28C627.396 147.28 625.963 146.367 625.176 144.54L626.576 143.94C627.11 145.233 628.076 145.88 629.476 145.88C630.21 145.88 630.796 145.727 631.236 145.42C631.69 145.1 631.916 144.673 631.916 144.14C631.916 143.633 631.73 143.24 631.356 142.96C630.983 142.667 630.496 142.52 629.896 142.52H627.776V141.1H629.896C630.443 141.1 630.876 140.98 631.196 140.74C631.53 140.487 631.696 140.147 631.696 139.72C631.696 139.253 631.496 138.873 631.096 138.58C630.71 138.273 630.176 138.12 629.496 138.12C628.23 138.12 627.343 138.7 626.836 139.86L625.456 139.24C625.843 138.4 626.383 137.773 627.076 137.36C627.77 136.933 628.596 136.72 629.556 136.72C630.676 136.72 631.563 136.987 632.216 137.52C632.87 138.04 633.196 138.733 633.196 139.6C633.196 140.667 632.69 141.4 631.676 141.8C632.236 141.973 632.67 142.273 632.976 142.7C633.283 143.113 633.436 143.62 633.436 144.22C633.436 144.687 633.336 145.113 633.136 145.5C632.95 145.873 632.683 146.193 632.336 146.46C631.99 146.727 631.57 146.927 631.076 147.06C630.596 147.207 630.063 147.28 629.476 147.28ZM638.695 141.22C638.695 142.953 638.422 144.6 637.875 146.16C637.342 147.72 636.535 149.167 635.455 150.5L634.275 149.56C635.168 148.333 635.868 147.047 636.375 145.7C636.882 144.353 637.135 142.86 637.135 141.22C637.135 139.58 636.882 138.087 636.375 136.74C635.868 135.393 635.168 134.107 634.275 132.88L635.455 131.94C636.535 133.273 637.342 134.72 637.875 136.28C638.422 137.84 638.695 139.487 638.695 141.22Z" fill="#E7E3DA" fill-opacity="0.5"/>
<path d="M551.968 177V162.432L548.488 164.784L547.528 163.176L551.992 160.2H553.888V177H551.968ZM557.122 177V174.864L563.674 169.584C564.682 168.768 565.41 168 565.858 167.28C566.322 166.56 566.554 165.816 566.554 165.048C566.554 164.04 566.218 163.224 565.546 162.6C564.89 161.976 564.01 161.664 562.906 161.664C561.946 161.664 561.122 161.92 560.434 162.432C559.762 162.944 559.218 163.696 558.802 164.688L556.978 164.016C557.49 162.656 558.25 161.616 559.258 160.896C560.266 160.176 561.482 159.816 562.906 159.816C563.754 159.816 564.522 159.944 565.21 160.2C565.898 160.456 566.482 160.816 566.962 161.28C567.458 161.728 567.834 162.272 568.09 162.912C568.362 163.552 568.498 164.264 568.498 165.048C568.498 166.136 568.218 167.144 567.658 168.072C567.098 169 566.178 169.976 564.898 171L559.618 175.2H568.786V177H557.122ZM571.097 175.632C571.097 175.216 571.233 174.872 571.505 174.6C571.793 174.312 572.145 174.168 572.561 174.168C572.977 174.168 573.321 174.312 573.593 174.6C573.881 174.872 574.025 175.216 574.025 175.632C574.025 176.048 573.881 176.4 573.593 176.688C573.321 176.96 572.977 177.096 572.561 177.096C572.145 177.096 571.793 176.96 571.505 176.688C571.233 176.4 571.097 176.048 571.097 175.632ZM581.628 177.384C580.348 177.384 579.22 177.112 578.244 176.568C577.284 176.008 576.516 175.176 575.94 174.072L577.572 173.112C578.516 174.744 579.868 175.56 581.628 175.56C582.236 175.56 582.788 175.472 583.284 175.296C583.796 175.104 584.228 174.84 584.58 174.504C584.948 174.168 585.228 173.76 585.42 173.28C585.612 172.8 585.708 172.272 585.708 171.696C585.708 170.544 585.348 169.632 584.628 168.96C583.908 168.288 582.924 167.952 581.676 167.952C580.22 167.952 579.076 168.472 578.244 169.512L576.66 168.936L577.116 160.2H586.716V162.024H578.892L578.604 167.16C579.564 166.488 580.708 166.152 582.036 166.152C582.884 166.152 583.652 166.288 584.34 166.56C585.044 166.816 585.636 167.184 586.116 167.664C586.612 168.144 586.988 168.728 587.244 169.416C587.516 170.088 587.652 170.84 587.652 171.672C587.652 172.536 587.508 173.32 587.22 174.024C586.932 174.728 586.524 175.328 585.996 175.824C585.484 176.32 584.852 176.704 584.1 176.976C583.364 177.248 582.54 177.384 581.628 177.384ZM603.278 172.992L607.19 165H609.59V177H607.718V167.88L604.022 175.344H602.486L598.79 167.88V177H596.918V165H599.366L603.278 172.992ZM611.982 175.176H612.27C612.686 175.176 613.03 175.088 613.302 174.912C613.574 174.736 613.782 174.432 613.926 174C614.086 173.552 614.198 172.96 614.262 172.224C614.326 171.472 614.358 170.536 614.358 169.416V165H623.07V177H621.126V166.8H616.278V169.896C616.278 171.208 616.206 172.32 616.062 173.232C615.934 174.144 615.718 174.888 615.414 175.464C615.126 176.024 614.734 176.432 614.238 176.688C613.758 176.928 613.166 177.048 612.462 177.048H611.982V175.176ZM636.787 165V177H634.843V171.528H628.651V177H626.707V165H628.651V169.728H634.843V165H636.787Z" fill="#F1F2F1"/>
<path d="M682.305 102.22C682.305 100.487 682.572 98.84 683.105 97.28C683.652 95.72 684.465 94.2733 685.545 92.94L686.725 93.88C685.832 95.1067 685.132 96.3933 684.625 97.74C684.119 99.0867 683.865 100.58 683.865 102.22C683.865 103.86 684.119 105.353 684.625 106.7C685.132 108.047 685.832 109.333 686.725 110.56L685.545 111.5C684.465 110.167 683.652 108.72 683.105 107.16C682.572 105.6 682.305 103.953 682.305 102.22ZM688.485 98H696.885V108H695.265V99.5H690.105V108H688.485V98ZM705.03 106.76C705.55 106.76 706.023 106.667 706.45 106.48C706.877 106.293 707.243 106.033 707.55 105.7C707.857 105.353 708.09 104.953 708.25 104.5C708.423 104.033 708.51 103.533 708.51 103C708.51 102.453 708.423 101.953 708.25 101.5C708.09 101.047 707.857 100.653 707.55 100.32C707.243 99.9733 706.877 99.7067 706.45 99.52C706.023 99.3333 705.55 99.24 705.03 99.24C704.51 99.24 704.037 99.3333 703.61 99.52C703.183 99.7067 702.817 99.9733 702.51 100.32C702.203 100.653 701.963 101.047 701.79 101.5C701.63 101.953 701.55 102.453 701.55 103C701.55 103.533 701.63 104.033 701.79 104.5C701.963 104.953 702.203 105.353 702.51 105.7C702.817 106.033 703.183 106.293 703.61 106.48C704.037 106.667 704.51 106.76 705.03 106.76ZM705.25 108.28C704.45 108.28 703.73 108.107 703.09 107.76C702.463 107.413 701.95 106.927 701.55 106.3V112H699.93V98H701.55V99.7C701.95 99.0733 702.463 98.5867 703.09 98.24C703.73 97.8933 704.45 97.72 705.25 97.72C705.943 97.72 706.59 97.8533 707.19 98.12C707.79 98.3867 708.31 98.7533 708.75 99.22C709.19 99.6867 709.53 100.247 709.77 100.9C710.023 101.54 710.15 102.24 710.15 103C710.15 103.76 710.023 104.467 709.77 105.12C709.53 105.76 709.19 106.313 708.75 106.78C708.31 107.247 707.79 107.613 707.19 107.88C706.59 108.147 705.943 108.28 705.25 108.28ZM717.224 108.28C716.464 108.28 715.771 108.147 715.144 107.88C714.517 107.613 713.971 107.247 713.504 106.78C713.051 106.3 712.697 105.74 712.444 105.1C712.191 104.447 712.064 103.747 712.064 103C712.064 102.253 712.191 101.56 712.444 100.92C712.697 100.267 713.051 99.7067 713.504 99.24C713.971 98.76 714.517 98.3867 715.144 98.12C715.771 97.8533 716.464 97.72 717.224 97.72C717.984 97.72 718.677 97.8533 719.304 98.12C719.931 98.3867 720.471 98.76 720.924 99.24C721.391 99.7067 721.751 100.267 722.004 100.92C722.257 101.56 722.384 102.253 722.384 103C722.384 103.747 722.257 104.447 722.004 105.1C721.751 105.74 721.391 106.3 720.924 106.78C720.471 107.247 719.931 107.613 719.304 107.88C718.677 108.147 717.984 108.28 717.224 108.28ZM717.224 106.76C717.744 106.76 718.217 106.667 718.644 106.48C719.084 106.293 719.457 106.033 719.764 105.7C720.071 105.353 720.311 104.953 720.484 104.5C720.657 104.033 720.744 103.533 720.744 103C720.744 102.453 720.657 101.953 720.484 101.5C720.311 101.047 720.071 100.653 719.764 100.32C719.457 99.9733 719.084 99.7067 718.644 99.52C718.217 99.3333 717.744 99.24 717.224 99.24C716.704 99.24 716.224 99.3333 715.784 99.52C715.357 99.7067 714.991 99.9733 714.684 100.32C714.377 100.653 714.137 101.047 713.964 101.5C713.791 101.953 713.704 102.453 713.704 103C713.704 103.533 713.791 104.033 713.964 104.5C714.137 104.953 714.377 105.353 714.684 105.7C714.991 106.033 715.357 106.293 715.784 106.48C716.224 106.667 716.704 106.76 717.224 106.76ZM724.852 98H730.972V99.5H726.472V108H724.852V98ZM741.299 98V108H739.679V103.44H734.519V108H732.899V98H734.519V101.94H739.679V98H741.299ZM748.884 108.28C748.124 108.28 747.431 108.147 746.804 107.88C746.178 107.613 745.631 107.247 745.164 106.78C744.711 106.3 744.358 105.74 744.104 105.1C743.851 104.447 743.724 103.747 743.724 103C743.724 102.253 743.851 101.56 744.104 100.92C744.358 100.267 744.711 99.7067 745.164 99.24C745.631 98.76 746.178 98.3867 746.804 98.12C747.431 97.8533 748.124 97.72 748.884 97.72C749.644 97.72 750.338 97.8533 750.964 98.12C751.591 98.3867 752.131 98.76 752.584 99.24C753.051 99.7067 753.411 100.267 753.664 100.92C753.918 101.56 754.044 102.253 754.044 103C754.044 103.747 753.918 104.447 753.664 105.1C753.411 105.74 753.051 106.3 752.584 106.78C752.131 107.247 751.591 107.613 750.964 107.88C750.338 108.147 749.644 108.28 748.884 108.28ZM748.884 106.76C749.404 106.76 749.878 106.667 750.304 106.48C750.744 106.293 751.118 106.033 751.424 105.7C751.731 105.353 751.971 104.953 752.144 104.5C752.318 104.033 752.404 103.533 752.404 103C752.404 102.453 752.318 101.953 752.144 101.5C751.971 101.047 751.731 100.653 751.424 100.32C751.118 99.9733 750.744 99.7067 750.304 99.52C749.878 99.3333 749.404 99.24 748.884 99.24C748.364 99.24 747.884 99.3333 747.444 99.52C747.018 99.7067 746.651 99.9733 746.344 100.32C746.038 100.653 745.798 101.047 745.624 101.5C745.451 101.953 745.364 102.453 745.364 103C745.364 103.533 745.451 104.033 745.624 104.5C745.798 104.953 746.038 105.353 746.344 105.7C746.651 106.033 747.018 106.293 747.444 106.48C747.884 106.667 748.364 106.76 748.884 106.76ZM759.476 108.28C757.396 108.28 755.963 107.367 755.176 105.54L756.576 104.94C757.11 106.233 758.076 106.88 759.476 106.88C760.21 106.88 760.796 106.727 761.236 106.42C761.69 106.1 761.916 105.673 761.916 105.14C761.916 104.633 761.73 104.24 761.356 103.96C760.983 103.667 760.496 103.52 759.896 103.52H757.776V102.1H759.896C760.443 102.1 760.876 101.98 761.196 101.74C761.53 101.487 761.696 101.147 761.696 100.72C761.696 100.253 761.496 99.8733 761.096 99.58C760.71 99.2733 760.176 99.12 759.496 99.12C758.23 99.12 757.343 99.7 756.836 100.86L755.456 100.24C755.843 99.4 756.383 98.7733 757.076 98.36C757.77 97.9333 758.596 97.72 759.556 97.72C760.676 97.72 761.563 97.9867 762.216 98.52C762.87 99.04 763.196 99.7333 763.196 100.6C763.196 101.667 762.69 102.4 761.676 102.8C762.236 102.973 762.67 103.273 762.976 103.7C763.283 104.113 763.436 104.62 763.436 105.22C763.436 105.687 763.336 106.113 763.136 106.5C762.95 106.873 762.683 107.193 762.336 107.46C761.99 107.727 761.57 107.927 761.076 108.06C760.596 108.207 760.063 108.28 759.476 108.28ZM768.695 102.22C768.695 103.953 768.422 105.6 767.875 107.16C767.342 108.72 766.535 110.167 765.455 111.5L764.275 110.56C765.168 109.333 765.868 108.047 766.375 106.7C766.882 105.353 767.135 103.86 767.135 102.22C767.135 100.58 766.882 99.0867 766.375 97.74C765.868 96.3933 765.168 95.1067 764.275 93.88L765.455 92.94C766.535 94.2733 767.342 95.72 767.875 97.28C768.422 98.84 768.695 100.487 768.695 102.22Z" fill="#E7E3DA" fill-opacity="0.5"/>
<path d="M686.468 138V123.432L682.988 125.784L682.028 124.176L686.492 121.2H688.388V138H686.468ZM697.19 138.384C695.91 138.384 694.782 138.112 693.806 137.568C692.846 137.008 692.078 136.176 691.502 135.072L693.134 134.112C694.078 135.744 695.43 136.56 697.19 136.56C697.798 136.56 698.35 136.472 698.846 136.296C699.358 136.104 699.79 135.84 700.142 135.504C700.51 135.168 700.79 134.76 700.982 134.28C701.174 133.8 701.27 133.272 701.27 132.696C701.27 131.544 700.91 130.632 700.19 129.96C699.47 129.288 698.486 128.952 697.238 128.952C695.782 128.952 694.638 129.472 693.806 130.512L692.222 129.936L692.678 121.2H702.278V123.024H694.454L694.166 128.16C695.126 127.488 696.27 127.152 697.598 127.152C698.446 127.152 699.214 127.288 699.902 127.56C700.606 127.816 701.198 128.184 701.678 128.664C702.174 129.144 702.55 129.728 702.806 130.416C703.078 131.088 703.214 131.84 703.214 132.672C703.214 133.536 703.07 134.32 702.782 135.024C702.494 135.728 702.086 136.328 701.558 136.824C701.046 137.32 700.414 137.704 699.662 137.976C698.926 138.248 698.102 138.384 697.19 138.384ZM705.574 136.632C705.574 136.216 705.71 135.872 705.982 135.6C706.27 135.312 706.622 135.168 707.038 135.168C707.454 135.168 707.798 135.312 708.07 135.6C708.358 135.872 708.502 136.216 708.502 136.632C708.502 137.048 708.358 137.4 708.07 137.688C707.798 137.96 707.454 138.096 707.038 138.096C706.622 138.096 706.27 137.96 705.982 137.688C705.71 137.4 705.574 137.048 705.574 136.632ZM714.616 138V123.432L711.136 125.784L710.176 124.176L714.64 121.2H716.536V138H714.616ZM733.301 133.992L737.213 126H739.613V138H737.741V128.88L734.045 136.344H732.509L728.813 128.88V138H726.941V126H729.389L733.301 133.992ZM742.006 136.176H742.294C742.71 136.176 743.054 136.088 743.326 135.912C743.598 135.736 743.806 135.432 743.95 135C744.11 134.552 744.222 133.96 744.286 133.224C744.35 132.472 744.382 131.536 744.382 130.416V126H753.094V138H751.15V127.8H746.302V130.896C746.302 132.208 746.23 133.32 746.086 134.232C745.958 135.144 745.742 135.888 745.438 136.464C745.15 137.024 744.758 137.432 744.262 137.688C743.782 137.928 743.19 138.048 742.486 138.048H742.006V136.176ZM766.81 126V138H764.866V132.528H758.674V138H756.73V126H758.674V130.728H764.866V126H766.81Z" fill="#F1F2F1"/>
<path d="M814.305 52.22C814.305 50.4867 814.572 48.84 815.105 47.28C815.652 45.72 816.465 44.2733 817.545 42.94L818.725 43.88C817.832 45.1067 817.132 46.3933 816.625 47.74C816.119 49.0867 815.865 50.58 815.865 52.22C815.865 53.86 816.119 55.3533 816.625 56.7C817.132 58.0467 817.832 59.3333 818.725 60.56L817.545 61.5C816.465 60.1667 815.652 58.72 815.105 57.16C814.572 55.6 814.305 53.9533 814.305 52.22ZM820.485 48H828.885V58H827.265V49.5H822.105V58H820.485V48ZM837.03 56.76C837.55 56.76 838.023 56.6667 838.45 56.48C838.877 56.2933 839.243 56.0333 839.55 55.7C839.857 55.3533 840.09 54.9533 840.25 54.5C840.423 54.0333 840.51 53.5333 840.51 53C840.51 52.4533 840.423 51.9533 840.25 51.5C840.09 51.0467 839.857 50.6533 839.55 50.32C839.243 49.9733 838.877 49.7067 838.45 49.52C838.023 49.3333 837.55 49.24 837.03 49.24C836.51 49.24 836.037 49.3333 835.61 49.52C835.183 49.7067 834.817 49.9733 834.51 50.32C834.203 50.6533 833.963 51.0467 833.79 51.5C833.63 51.9533 833.55 52.4533 833.55 53C833.55 53.5333 833.63 54.0333 833.79 54.5C833.963 54.9533 834.203 55.3533 834.51 55.7C834.817 56.0333 835.183 56.2933 835.61 56.48C836.037 56.6667 836.51 56.76 837.03 56.76ZM837.25 58.28C836.45 58.28 835.73 58.1067 835.09 57.76C834.463 57.4133 833.95 56.9267 833.55 56.3V62H831.93V48H833.55V49.7C833.95 49.0733 834.463 48.5867 835.09 48.24C835.73 47.8933 836.45 47.72 837.25 47.72C837.943 47.72 838.59 47.8533 839.19 48.12C839.79 48.3867 840.31 48.7533 840.75 49.22C841.19 49.6867 841.53 50.2467 841.77 50.9C842.023 51.54 842.15 52.24 842.15 53C842.15 53.76 842.023 54.4667 841.77 55.12C841.53 55.76 841.19 56.3133 840.75 56.78C840.31 57.2467 839.79 57.6133 839.19 57.88C838.59 58.1467 837.943 58.28 837.25 58.28ZM849.224 58.28C848.464 58.28 847.771 58.1467 847.144 57.88C846.517 57.6133 845.971 57.2467 845.504 56.78C845.051 56.3 844.697 55.74 844.444 55.1C844.191 54.4467 844.064 53.7467 844.064 53C844.064 52.2533 844.191 51.56 844.444 50.92C844.697 50.2667 845.051 49.7067 845.504 49.24C845.971 48.76 846.517 48.3867 847.144 48.12C847.771 47.8533 848.464 47.72 849.224 47.72C849.984 47.72 850.677 47.8533 851.304 48.12C851.931 48.3867 852.471 48.76 852.924 49.24C853.391 49.7067 853.751 50.2667 854.004 50.92C854.257 51.56 854.384 52.2533 854.384 53C854.384 53.7467 854.257 54.4467 854.004 55.1C853.751 55.74 853.391 56.3 852.924 56.78C852.471 57.2467 851.931 57.6133 851.304 57.88C850.677 58.1467 849.984 58.28 849.224 58.28ZM849.224 56.76C849.744 56.76 850.217 56.6667 850.644 56.48C851.084 56.2933 851.457 56.0333 851.764 55.7C852.071 55.3533 852.311 54.9533 852.484 54.5C852.657 54.0333 852.744 53.5333 852.744 53C852.744 52.4533 852.657 51.9533 852.484 51.5C852.311 51.0467 852.071 50.6533 851.764 50.32C851.457 49.9733 851.084 49.7067 850.644 49.52C850.217 49.3333 849.744 49.24 849.224 49.24C848.704 49.24 848.224 49.3333 847.784 49.52C847.357 49.7067 846.991 49.9733 846.684 50.32C846.377 50.6533 846.137 51.0467 845.964 51.5C845.791 51.9533 845.704 52.4533 845.704 53C845.704 53.5333 845.791 54.0333 845.964 54.5C846.137 54.9533 846.377 55.3533 846.684 55.7C846.991 56.0333 847.357 56.2933 847.784 56.48C848.224 56.6667 848.704 56.76 849.224 56.76ZM856.852 48H862.972V49.5H858.472V58H856.852V48ZM873.299 48V58H871.679V53.44H866.519V58H864.899V48H866.519V51.94H871.679V48H873.299ZM880.884 58.28C880.124 58.28 879.431 58.1467 878.804 57.88C878.178 57.6133 877.631 57.2467 877.164 56.78C876.711 56.3 876.358 55.74 876.104 55.1C875.851 54.4467 875.724 53.7467 875.724 53C875.724 52.2533 875.851 51.56 876.104 50.92C876.358 50.2667 876.711 49.7067 877.164 49.24C877.631 48.76 878.178 48.3867 878.804 48.12C879.431 47.8533 880.124 47.72 880.884 47.72C881.644 47.72 882.338 47.8533 882.964 48.12C883.591 48.3867 884.131 48.76 884.584 49.24C885.051 49.7067 885.411 50.2667 885.664 50.92C885.918 51.56 886.044 52.2533 886.044 53C886.044 53.7467 885.918 54.4467 885.664 55.1C885.411 55.74 885.051 56.3 884.584 56.78C884.131 57.2467 883.591 57.6133 882.964 57.88C882.338 58.1467 881.644 58.28 880.884 58.28ZM880.884 56.76C881.404 56.76 881.878 56.6667 882.304 56.48C882.744 56.2933 883.118 56.0333 883.424 55.7C883.731 55.3533 883.971 54.9533 884.144 54.5C884.318 54.0333 884.404 53.5333 884.404 53C884.404 52.4533 884.318 51.9533 884.144 51.5C883.971 51.0467 883.731 50.6533 883.424 50.32C883.118 49.9733 882.744 49.7067 882.304 49.52C881.878 49.3333 881.404 49.24 880.884 49.24C880.364 49.24 879.884 49.3333 879.444 49.52C879.018 49.7067 878.651 49.9733 878.344 50.32C878.038 50.6533 877.798 51.0467 877.624 51.5C877.451 51.9533 877.364 52.4533 877.364 53C877.364 53.5333 877.451 54.0333 877.624 54.5C877.798 54.9533 878.038 55.3533 878.344 55.7C878.651 56.0333 879.018 56.2933 879.444 56.48C879.884 56.6667 880.364 56.76 880.884 56.76ZM891.476 58.28C889.396 58.28 887.963 57.3667 887.176 55.54L888.576 54.94C889.11 56.2333 890.076 56.88 891.476 56.88C892.21 56.88 892.796 56.7267 893.236 56.42C893.69 56.1 893.916 55.6733 893.916 55.14C893.916 54.6333 893.73 54.24 893.356 53.96C892.983 53.6667 892.496 53.52 891.896 53.52H889.776V52.1H891.896C892.443 52.1 892.876 51.98 893.196 51.74C893.53 51.4867 893.696 51.1467 893.696 50.72C893.696 50.2533 893.496 49.8733 893.096 49.58C892.71 49.2733 892.176 49.12 891.496 49.12C890.23 49.12 889.343 49.7 888.836 50.86L887.456 50.24C887.843 49.4 888.383 48.7733 889.076 48.36C889.77 47.9333 890.596 47.72 891.556 47.72C892.676 47.72 893.563 47.9867 894.216 48.52C894.87 49.04 895.196 49.7333 895.196 50.6C895.196 51.6667 894.69 52.4 893.676 52.8C894.236 52.9733 894.67 53.2733 894.976 53.7C895.283 54.1133 895.436 54.62 895.436 55.22C895.436 55.6867 895.336 56.1133 895.136 56.5C894.95 56.8733 894.683 57.1933 894.336 57.46C893.99 57.7267 893.57 57.9267 893.076 58.06C892.596 58.2067 892.063 58.28 891.476 58.28ZM900.695 52.22C900.695 53.9533 900.422 55.6 899.875 57.16C899.342 58.72 898.535 60.1667 897.455 61.5L896.275 60.56C897.168 59.3333 897.868 58.0467 898.375 56.7C898.882 55.3533 899.135 53.86 899.135 52.22C899.135 50.58 898.882 49.0867 898.375 47.74C897.868 46.3933 897.168 45.1067 896.275 43.88L897.455 42.94C898.535 44.2733 899.342 45.72 899.875 47.28C900.422 48.84 900.695 50.4867 900.695 52.22Z" fill="#E7E3DA" fill-opacity="0.5"/>
<path d="M815.968 88V73.432L812.488 75.784L811.528 74.176L815.992 71.2H817.888V88H815.968ZM827.266 86.608C828.498 86.608 829.466 86.312 830.17 85.72C830.874 85.112 831.226 84.336 831.226 83.392C831.226 82.464 830.866 81.704 830.146 81.112C829.442 80.504 828.482 80.2 827.266 80.2C826.05 80.2 825.082 80.504 824.362 81.112C823.658 81.704 823.306 82.464 823.306 83.392C823.306 84.336 823.658 85.112 824.362 85.72C825.066 86.312 826.034 86.608 827.266 86.608ZM827.266 78.52C828.37 78.52 829.242 78.256 829.882 77.728C830.522 77.2 830.842 76.504 830.842 75.64C830.842 74.744 830.522 74.016 829.882 73.456C829.242 72.88 828.37 72.592 827.266 72.592C826.162 72.592 825.29 72.88 824.65 73.456C824.01 74.016 823.69 74.744 823.69 75.64C823.69 76.504 824.01 77.2 824.65 77.728C825.29 78.256 826.162 78.52 827.266 78.52ZM827.266 88.384C826.386 88.384 825.578 88.264 824.842 88.024C824.122 87.784 823.506 87.456 822.994 87.04C822.482 86.608 822.082 86.096 821.794 85.504C821.506 84.896 821.362 84.232 821.362 83.512C821.362 82.568 821.602 81.736 822.082 81.016C822.562 80.296 823.234 79.744 824.098 79.36C823.33 78.992 822.746 78.48 822.346 77.824C821.946 77.168 821.746 76.408 821.746 75.544C821.746 74.84 821.874 74.2 822.13 73.624C822.402 73.048 822.778 72.552 823.258 72.136C823.738 71.72 824.314 71.4 824.986 71.176C825.674 70.936 826.434 70.816 827.266 70.816C828.098 70.816 828.85 70.936 829.522 71.176C830.21 71.4 830.794 71.72 831.274 72.136C831.754 72.552 832.122 73.048 832.378 73.624C832.65 74.2 832.786 74.84 832.786 75.544C832.786 76.408 832.586 77.168 832.186 77.824C831.786 78.48 831.202 78.992 830.434 79.36C831.298 79.744 831.97 80.296 832.45 81.016C832.93 81.736 833.17 82.568 833.17 83.512C833.17 84.232 833.026 84.896 832.738 85.504C832.45 86.096 832.05 86.608 831.538 87.04C831.026 87.456 830.402 87.784 829.666 88.024C828.946 88.264 828.146 88.384 827.266 88.384ZM835.449 86.632C835.449 86.216 835.585 85.872 835.857 85.6C836.145 85.312 836.497 85.168 836.913 85.168C837.329 85.168 837.673 85.312 837.945 85.6C838.233 85.872 838.377 86.216 838.377 86.632C838.377 87.048 838.233 87.4 837.945 87.688C837.673 87.96 837.329 88.096 836.913 88.096C836.497 88.096 836.145 87.96 835.857 87.688C835.585 87.4 835.449 87.048 835.449 86.632ZM846.267 88.384C844.763 88.384 843.499 88.048 842.475 87.376C841.451 86.688 840.659 85.688 840.099 84.376L841.851 83.512C842.331 84.6 842.931 85.376 843.651 85.84C844.387 86.304 845.259 86.536 846.267 86.536C847.515 86.536 848.515 86.24 849.267 85.648C850.019 85.056 850.395 84.256 850.395 83.248C850.395 82.352 850.099 81.632 849.507 81.088C848.931 80.544 848.163 80.272 847.203 80.272H843.867V78.424H847.131C847.995 78.424 848.699 78.176 849.243 77.68C849.787 77.168 850.059 76.496 850.059 75.664C850.059 74.768 849.731 74.048 849.075 73.504C848.435 72.944 847.539 72.664 846.387 72.664C845.427 72.664 844.603 72.88 843.915 73.312C843.243 73.744 842.675 74.4 842.211 75.28L840.531 74.368C841.107 73.216 841.891 72.336 842.883 71.728C843.891 71.12 845.075 70.816 846.435 70.816C847.267 70.816 848.027 70.928 848.715 71.152C849.403 71.376 849.987 71.696 850.467 72.112C850.963 72.528 851.347 73.024 851.619 73.6C851.891 74.176 852.027 74.816 852.027 75.52C852.027 76.416 851.811 77.184 851.379 77.824C850.963 78.464 850.387 78.944 849.651 79.264C850.515 79.616 851.179 80.136 851.643 80.824C852.123 81.512 852.363 82.336 852.363 83.296C852.363 84.048 852.211 84.736 851.907 85.36C851.619 85.984 851.211 86.52 850.683 86.968C850.155 87.416 849.515 87.76 848.763 88C848.011 88.256 847.179 88.384 846.267 88.384ZM867.911 83.992L871.823 76H874.223V88H872.351V78.88L868.655 86.344H867.119L863.423 78.88V88H861.551V76H863.999L867.911 83.992ZM876.615 86.176H876.903C877.319 86.176 877.663 86.088 877.935 85.912C878.207 85.736 878.415 85.432 878.559 85C878.719 84.552 878.831 83.96 878.895 83.224C878.959 82.472 878.991 81.536 878.991 80.416V76H887.703V88H885.759V77.8H880.911V80.896C880.911 82.208 880.839 83.32 880.695 84.232C880.567 85.144 880.351 85.888 880.047 86.464C879.759 87.024 879.367 87.432 878.871 87.688C878.391 87.928 877.799 88.048 877.095 88.048H876.615V86.176ZM901.42 76V88H899.476V82.528H893.284V88H891.34V76H893.284V80.728H899.476V76H901.42Z" fill="#F1F2F1"/>
<path d="M22.44 16H20.82L20.82 11.7C20.4467 11.98 20.0133 12.2 19.52 12.36C19.0267 12.5067 18.48 12.58 17.88 12.58C16.6 12.58 15.6467 12.2333 15.02 11.54C14.3933 10.8333 14.08 9.88 14.08 8.68L14.08 6H15.7L15.7 8.28C15.7 9.32 15.9133 10.0467 16.34 10.46C16.78 10.8733 17.36 11.08 18.08 11.08C18.6267 11.08 19.14 10.9867 19.62 10.8C20.1133 10.6133 20.5133 10.3667 20.82 10.06V6L22.44 6V16ZM27.097 6V13.64L32.357 6H33.997V16H32.377V8.36L27.117 16H25.477V6L27.097 6ZM36.4195 11C36.4195 10.24 36.5395 9.54 36.7795 8.9C37.0329 8.24667 37.3862 7.68667 37.8395 7.22C38.2929 6.75333 38.8329 6.38667 39.4595 6.12C40.0995 5.85333 40.8062 5.72 41.5795 5.72C42.5662 5.72 43.4262 5.94 44.1595 6.38C44.9062 6.80667 45.4929 7.44 45.9195 8.28L44.5395 9.06C43.9395 7.84667 42.9662 7.24 41.6195 7.24C41.0862 7.24 40.5995 7.33333 40.1595 7.52C39.7195 7.70667 39.3462 7.97333 39.0395 8.32C38.7329 8.65333 38.4929 9.04667 38.3195 9.5C38.1462 9.95333 38.0595 10.4533 38.0595 11C38.0595 11.5333 38.1462 12.0333 38.3195 12.5C38.4929 12.9533 38.7329 13.3533 39.0395 13.7C39.3462 14.0333 39.7129 14.2933 40.1395 14.48C40.5795 14.6667 41.0662 14.76 41.5995 14.76C42.2795 14.76 42.8662 14.6 43.3595 14.28C43.8662 13.96 44.2662 13.48 44.5595 12.84L45.9595 13.6C45.5329 14.48 44.9462 15.1467 44.1995 15.6C43.4529 16.0533 42.5795 16.28 41.5795 16.28C40.8062 16.28 40.0995 16.1467 39.4595 15.88C38.8329 15.6133 38.2929 15.2467 37.8395 14.78C37.3862 14.3133 37.0329 13.76 36.7795 13.12C36.5395 12.4667 36.4195 11.76 36.4195 11ZM47.2105 14.48H47.4505C47.7971 14.48 48.0838 14.4067 48.3105 14.26C48.5371 14.1133 48.7105 13.86 48.8305 13.5C48.9638 13.1267 49.0571 12.6333 49.1105 12.02C49.1638 11.3933 49.1905 10.6133 49.1905 9.68V6L56.4505 6V16H54.8305V7.5L50.7905 7.5V10.08C50.7905 11.1733 50.7305 12.1 50.6105 12.86C50.5038 13.62 50.3238 14.24 50.0705 14.72C49.8305 15.1867 49.5038 15.5267 49.0905 15.74C48.6905 15.94 48.1971 16.04 47.6105 16.04H47.2105V14.48ZM64.0209 16.28C63.2609 16.28 62.5676 16.1467 61.9409 15.88C61.3143 15.6133 60.7676 15.2467 60.3009 14.78C59.8476 14.3 59.4943 13.74 59.2409 13.1C58.9876 12.4467 58.8609 11.7467 58.8609 11C58.8609 10.2533 58.9876 9.56 59.2409 8.92C59.4943 8.26667 59.8476 7.70667 60.3009 7.24C60.7676 6.76 61.3143 6.38667 61.9409 6.12C62.5676 5.85333 63.2609 5.72 64.0209 5.72C64.7809 5.72 65.4743 5.85333 66.1009 6.12C66.7276 6.38667 67.2676 6.76 67.7209 7.24C68.1876 7.70667 68.5476 8.26667 68.8009 8.92C69.0543 9.56 69.1809 10.2533 69.1809 11C69.1809 11.7467 69.0543 12.4467 68.8009 13.1C68.5476 13.74 68.1876 14.3 67.7209 14.78C67.2676 15.2467 66.7276 15.6133 66.1009 15.88C65.4743 16.1467 64.7809 16.28 64.0209 16.28ZM64.0209 14.76C64.5409 14.76 65.0143 14.6667 65.4409 14.48C65.8809 14.2933 66.2543 14.0333 66.5609 13.7C66.8676 13.3533 67.1076 12.9533 67.2809 12.5C67.4543 12.0333 67.5409 11.5333 67.5409 11C67.5409 10.4533 67.4543 9.95333 67.2809 9.5C67.1076 9.04667 66.8676 8.65333 66.5609 8.32C66.2543 7.97333 65.8809 7.70667 65.4409 7.52C65.0143 7.33333 64.5409 7.24 64.0209 7.24C63.5009 7.24 63.0209 7.33333 62.5809 7.52C62.1543 7.70667 61.7876 7.97333 61.4809 8.32C61.1743 8.65333 60.9343 9.04667 60.7609 9.5C60.5876 9.95333 60.5009 10.4533 60.5009 11C60.5009 11.5333 60.5876 12.0333 60.7609 12.5C60.9343 12.9533 61.1743 13.3533 61.4809 13.7C61.7876 14.0333 62.1543 14.2933 62.5809 14.48C63.0209 14.6667 63.5009 14.76 64.0209 14.76ZM21.88 22V23.48H18.44L18.44 32H16.84L16.84 23.48H13.4V22H21.88ZM24.9373 36L26.5773 31.82L22.6573 22L24.3773 22L27.3973 29.78L30.2773 22H31.9773L26.6173 36H24.9373ZM39.0145 30.76C39.5345 30.76 40.0079 30.6667 40.4345 30.48C40.8612 30.2933 41.2279 30.0333 41.5345 29.7C41.8412 29.3533 42.0745 28.9533 42.2345 28.5C42.4079 28.0333 42.4945 27.5333 42.4945 27C42.4945 26.4533 42.4079 25.9533 42.2345 25.5C42.0745 25.0467 41.8412 24.6533 41.5345 24.32C41.2279 23.9733 40.8612 23.7067 40.4345 23.52C40.0079 23.3333 39.5345 23.24 39.0145 23.24C38.4945 23.24 38.0212 23.3333 37.5945 23.52C37.1679 23.7067 36.8012 23.9733 36.4945 24.32C36.1879 24.6533 35.9479 25.0467 35.7745 25.5C35.6145 25.9533 35.5345 26.4533 35.5345 27C35.5345 27.5333 35.6145 28.0333 35.7745 28.5C35.9479 28.9533 36.1879 29.3533 36.4945 29.7C36.8012 30.0333 37.1679 30.2933 37.5945 30.48C38.0212 30.6667 38.4945 30.76 39.0145 30.76ZM39.2345 32.28C38.4345 32.28 37.7145 32.1067 37.0745 31.76C36.4479 31.4133 35.9345 30.9267 35.5345 30.3L35.5345 36L33.9145 36L33.9145 22H35.5345V23.7C35.9345 23.0733 36.4479 22.5867 37.0745 22.24C37.7145 21.8933 38.4345 21.72 39.2345 21.72C39.9279 21.72 40.5745 21.8533 41.1745 22.12C41.7745 22.3867 42.2945 22.7533 42.7345 23.22C43.1745 23.6867 43.5145 24.2467 43.7545 24.9C44.0079 25.54 44.1345 26.24 44.1345 27C44.1345 27.76 44.0079 28.4667 43.7545 29.12C43.5145 29.76 43.1745 30.3133 42.7345 30.78C42.2945 31.2467 41.7745 31.6133 41.1745 31.88C40.5745 32.1467 39.9279 32.28 39.2345 32.28ZM48.2884 22L48.2884 29.64L53.5484 22H55.1884L55.1884 32H53.5684V24.36L48.3084 32H46.6684L46.6684 22H48.2884ZM57.6109 27C57.6109 26.24 57.7309 25.54 57.9709 24.9C58.2243 24.2467 58.5776 23.6867 59.0309 23.22C59.4843 22.7533 60.0243 22.3867 60.6509 22.12C61.2909 21.8533 61.9976 21.72 62.7709 21.72C63.7576 21.72 64.6176 21.94 65.3509 22.38C66.0976 22.8067 66.6843 23.44 67.1109 24.28L65.7309 25.06C65.1309 23.8467 64.1576 23.24 62.8109 23.24C62.2776 23.24 61.7909 23.3333 61.3509 23.52C60.9109 23.7067 60.5376 23.9733 60.2309 24.32C59.9243 24.6533 59.6843 25.0467 59.5109 25.5C59.3376 25.9533 59.2509 26.4533 59.2509 27C59.2509 27.5333 59.3376 28.0333 59.5109 28.5C59.6843 28.9533 59.9243 29.3533 60.2309 29.7C60.5376 30.0333 60.9043 30.2933 61.3309 30.48C61.7709 30.6667 62.2576 30.76 62.7909 30.76C63.4709 30.76 64.0576 30.6 64.5509 30.28C65.0576 29.96 65.4576 29.48 65.7509 28.84L67.1509 29.6C66.7243 30.48 66.1376 31.1467 65.3909 31.6C64.6443 32.0533 63.7709 32.28 62.7709 32.28C61.9976 32.28 61.2909 32.1467 60.6509 31.88C60.0243 31.6133 59.4843 31.2467 59.0309 30.78C58.5776 30.3133 58.2243 29.76 57.9709 29.12C57.7309 28.4667 57.6109 27.76 57.6109 27ZM76.4894 22V23.48H73.0494V32H71.4494V23.48L68.0094 23.48V22L76.4894 22ZM82.6733 32.28C81.9133 32.28 81.2199 32.1467 80.5933 31.88C79.9666 31.6133 79.4199 31.2467 78.9533 30.78C78.4999 30.3 78.1466 29.74 77.8933 29.1C77.6399 28.4467 77.5133 27.7467 77.5133 27C77.5133 26.2533 77.6399 25.56 77.8933 24.92C78.1466 24.2667 78.4999 23.7067 78.9533 23.24C79.4199 22.76 79.9666 22.3867 80.5933 22.12C81.2199 21.8533 81.9133 21.72 82.6733 21.72C83.4333 21.72 84.1266 21.8533 84.7533 22.12C85.3799 22.3867 85.9199 22.76 86.3733 23.24C86.8399 23.7067 87.1999 24.2667 87.4533 24.92C87.7066 25.56 87.8333 26.2533 87.8333 27C87.8333 27.7467 87.7066 28.4467 87.4533 29.1C87.1999 29.74 86.8399 30.3 86.3733 30.78C85.9199 31.2467 85.3799 31.6133 84.7533 31.88C84.1266 32.1467 83.4333 32.28 82.6733 32.28ZM82.6733 30.76C83.1933 30.76 83.6666 30.6667 84.0933 30.48C84.5333 30.2933 84.9066 30.0333 85.2133 29.7C85.5199 29.3533 85.7599 28.9533 85.9333 28.5C86.1066 28.0333 86.1933 27.5333 86.1933 27C86.1933 26.4533 86.1066 25.9533 85.9333 25.5C85.7599 25.0467 85.5199 24.6533 85.2133 24.32C84.9066 23.9733 84.5333 23.7067 84.0933 23.52C83.6666 23.3333 83.1933 23.24 82.6733 23.24C82.1533 23.24 81.6733 23.3333 81.2333 23.52C80.8066 23.7067 80.4399 23.9733 80.1333 24.32C79.8266 24.6533 79.5866 25.0467 79.4133 25.5C79.2399 25.9533 79.1533 26.4533 79.1533 27C79.1533 27.5333 79.2399 28.0333 79.4133 28.5C79.5866 28.9533 79.8266 29.3533 80.1333 29.7C80.4399 30.0333 80.8066 30.2933 81.2333 30.48C81.6733 30.6667 82.1533 30.76 82.6733 30.76ZM91.8213 30.6H94.9413C95.4079 30.6 95.7946 30.4667 96.1013 30.2C96.4213 29.9333 96.5813 29.5467 96.5813 29.04C96.5813 28.5467 96.4213 28.1667 96.1013 27.9C95.7946 27.62 95.4079 27.48 94.9413 27.48H91.8213V30.6ZM91.8213 26.12H94.7813C95.2213 26.12 95.5679 25.9933 95.8213 25.74C96.0746 25.4867 96.2013 25.16 96.2013 24.76C96.2013 24.3733 96.0746 24.0533 95.8213 23.8C95.5679 23.5333 95.2213 23.4 94.7813 23.4H91.8213V26.12ZM90.3013 32V22L94.8213 22C95.7013 22 96.4079 22.24 96.9413 22.72C97.4746 23.2 97.7413 23.8333 97.7413 24.62C97.7413 25.1267 97.6146 25.56 97.3613 25.92C97.1213 26.2667 96.7879 26.5333 96.3613 26.72C96.9213 26.88 97.3546 27.18 97.6613 27.62C97.9813 28.0467 98.1413 28.58 98.1413 29.22C98.1413 30.06 97.8546 30.7333 97.2813 31.24C96.7079 31.7467 95.9413 32 94.9813 32H90.3013Z" fill="#D6783D"/>
</svg>
