<svg width="943" height="462" viewBox="0 0 943 462" fill="none" xmlns="http://www.w3.org/2000/svg">
<path d="M4.54688 418L938.547 418" stroke="#E7E3DA" stroke-opacity="0.1"/>
<path fill-rule="evenodd" clip-rule="evenodd" d="M5 6L5.00002 418L5 6Z" fill="#E7E3DA" fill-opacity="0.7"/>
<path d="M5 6L5.00002 418" stroke="#E7E3DA" stroke-opacity="0.1"/>
<path d="M188 303L188 418" stroke="#F1F2F1" stroke-dasharray="4 2"/>
<path d="M323 281L323 418" stroke="#F1F2F1" stroke-dasharray="4 2"/>
<path d="M460 260L460 418" stroke="#F1F2F1" stroke-dasharray="4 2"/>
<path d="M596 247L596 418" stroke="#E7E3DA" stroke-opacity="0.7" stroke-dasharray="4 2"/>
<path d="M869 132L869 418" stroke="#E7E3DA" stroke-opacity="0.7" stroke-dasharray="4 2"/>
<path d="M732 209L732 418" stroke="#E7E3DA" stroke-opacity="0.7" stroke-dasharray="4 2"/>
<path opacity="0.2" fill-rule="evenodd" clip-rule="evenodd" d="M4 418L188.5 302.778L460.03 259.074L597.341 243.082L733.415 208.598L940 91.0005V418H4Z" fill="#D6783D"/>
<path d="M4.5 417.5L187.5 302.778L459.648 259.074L596.341 243.082L731.178 209.597L939 91.0005" stroke="#D6783D" stroke-width="2" stroke-linejoin="round"/>
<circle cx="4.5" cy="417.5" r="3.5" fill="#F1F2F1" stroke="#D6783D" stroke-width="2"/>
<path d="M187.499 307.004C189.433 307.004 190.998 305.435 190.998 303.502C190.998 301.569 189.433 300 187.499 300C185.566 300 184 301.569 184 303.502C184 305.435 185.566 307.004 187.499 307.004Z" fill="#F1F2F1" stroke="#D6783D" stroke-width="2"/>
<path d="M460.101 264.101C462.034 264.101 463.6 262.533 463.6 260.6C463.6 258.666 462.034 257.098 460.101 257.098C458.167 257.098 456.602 258.666 456.602 260.6C456.602 262.533 458.167 264.101 460.101 264.101Z" fill="#F1F2F1" stroke="#D6783D" stroke-width="2"/>
<path d="M324.038 284.396C325.972 284.396 327.538 282.827 327.538 280.894C327.538 278.961 325.972 277.393 324.038 277.393C322.105 277.393 320.539 278.961 320.539 280.894C320.539 282.827 322.105 284.396 324.038 284.396Z" fill="#F1F2F1" stroke="#D6783D" stroke-width="2"/>
<path d="M732.222 213.343C734.155 213.343 735.721 211.774 735.721 209.841C735.721 207.908 734.155 206.339 732.222 206.339C730.288 206.339 728.723 207.908 728.723 209.841C728.723 211.774 730.288 213.343 732.222 213.343Z" fill="#F1F2F1" stroke="#D6783D" stroke-width="2"/>
<path d="M596.159 247.369C598.093 247.369 599.659 245.8 599.659 243.867C599.659 241.934 598.093 240.365 596.159 240.365C594.226 240.365 592.66 241.934 592.66 243.867C592.66 245.8 594.226 247.369 596.159 247.369Z" fill="#F1F2F1" stroke="#D6783D" stroke-width="2"/>
<path d="M868.284 136.285C870.218 136.285 871.784 134.716 871.784 132.783C871.784 130.85 870.218 129.281 868.284 129.281C866.351 129.281 864.785 130.85 864.785 132.783C864.785 134.716 866.351 136.285 868.284 136.285Z" fill="#F1F2F1" stroke="#D6783D" stroke-width="2"/>
<path d="M938.499 95.0042C940.433 95.0042 941.998 93.4354 941.998 91.5024C941.998 89.5693 940.433 88.0005 938.499 88.0005C936.566 88.0005 935 89.5693 935 91.5024C935 93.4354 936.566 95.0042 938.499 95.0042Z" fill="#F1F2F1" stroke="#D6783D" stroke-width="2"/>
<path d="M153.888 458V455.864L160.44 450.584C161.448 449.768 162.176 449 162.624 448.28C163.088 447.56 163.32 446.816 163.32 446.048C163.32 445.04 162.984 444.224 162.312 443.6C161.656 442.976 160.776 442.664 159.672 442.664C158.712 442.664 157.888 442.92 157.2 443.432C156.528 443.944 155.984 444.696 155.568 445.688L153.744 445.016C154.256 443.656 155.016 442.616 156.024 441.896C157.032 441.176 158.248 440.816 159.672 440.816C160.52 440.816 161.288 440.944 161.976 441.2C162.664 441.456 163.248 441.816 163.728 442.28C164.224 442.728 164.6 443.272 164.856 443.912C165.128 444.552 165.264 445.264 165.264 446.048C165.264 447.136 164.984 448.144 164.424 449.072C163.864 450 162.944 450.976 161.664 452L156.384 456.2H165.552V458H153.888ZM174.895 458.384C173.871 458.384 172.951 458.168 172.135 457.736C171.319 457.304 170.623 456.704 170.047 455.936C169.471 455.152 169.023 454.224 168.703 453.152C168.399 452.064 168.247 450.88 168.247 449.6C168.247 448.32 168.399 447.144 168.703 446.072C169.023 444.984 169.471 444.056 170.047 443.288C170.623 442.504 171.319 441.896 172.135 441.464C172.951 441.032 173.871 440.816 174.895 440.816C175.919 440.816 176.839 441.032 177.655 441.464C178.471 441.896 179.167 442.504 179.743 443.288C180.319 444.056 180.759 444.984 181.063 446.072C181.383 447.144 181.543 448.32 181.543 449.6C181.543 450.88 181.383 452.064 181.063 453.152C180.759 454.224 180.319 455.152 179.743 455.936C179.167 456.704 178.471 457.304 177.655 457.736C176.839 458.168 175.919 458.384 174.895 458.384ZM174.895 442.712C174.175 442.712 173.527 442.88 172.951 443.216C172.375 443.552 171.887 444.032 171.487 444.656C171.087 445.264 170.775 445.992 170.551 446.84C170.343 447.672 170.239 448.592 170.239 449.6C170.239 450.608 170.343 451.536 170.551 452.384C170.775 453.216 171.087 453.944 171.487 454.568C171.887 455.176 172.375 455.648 172.951 455.984C173.527 456.32 174.175 456.488 174.895 456.488C175.615 456.488 176.263 456.32 176.839 455.984C177.415 455.648 177.903 455.176 178.303 454.568C178.703 453.944 179.007 453.216 179.215 452.384C179.439 451.536 179.551 450.608 179.551 449.6C179.551 448.592 179.439 447.672 179.215 446.84C179.007 445.992 178.703 445.264 178.303 444.656C177.903 444.032 177.415 443.552 176.839 443.216C176.263 442.88 175.615 442.712 174.895 442.712ZM183.958 458V455.864L190.51 450.584C191.518 449.768 192.246 449 192.694 448.28C193.158 447.56 193.39 446.816 193.39 446.048C193.39 445.04 193.054 444.224 192.382 443.6C191.726 442.976 190.846 442.664 189.742 442.664C188.782 442.664 187.958 442.92 187.27 443.432C186.598 443.944 186.054 444.696 185.638 445.688L183.814 445.016C184.326 443.656 185.086 442.616 186.094 441.896C187.102 441.176 188.318 440.816 189.742 440.816C190.59 440.816 191.358 440.944 192.046 441.2C192.734 441.456 193.318 441.816 193.798 442.28C194.294 442.728 194.67 443.272 194.926 443.912C195.198 444.552 195.334 445.264 195.334 446.048C195.334 447.136 195.054 448.144 194.494 449.072C193.934 450 193.014 450.976 191.734 452L186.454 456.2H195.622V458H183.958ZM197.669 458V455.864L204.221 450.584C205.229 449.768 205.957 449 206.405 448.28C206.869 447.56 207.101 446.816 207.101 446.048C207.101 445.04 206.765 444.224 206.093 443.6C205.437 442.976 204.557 442.664 203.453 442.664C202.493 442.664 201.669 442.92 200.981 443.432C200.309 443.944 199.765 444.696 199.349 445.688L197.525 445.016C198.037 443.656 198.797 442.616 199.805 441.896C200.813 441.176 202.029 440.816 203.453 440.816C204.301 440.816 205.069 440.944 205.757 441.2C206.445 441.456 207.029 441.816 207.509 442.28C208.005 442.728 208.381 443.272 208.637 443.912C208.909 444.552 209.045 445.264 209.045 446.048C209.045 447.136 208.765 448.144 208.205 449.072C207.645 450 206.725 450.976 205.445 452L200.165 456.2H209.333V458H197.669Z" fill="#F1F2F1"/>
<path d="M289.49 458V455.864L296.042 450.584C297.05 449.768 297.778 449 298.226 448.28C298.69 447.56 298.922 446.816 298.922 446.048C298.922 445.04 298.586 444.224 297.914 443.6C297.258 442.976 296.378 442.664 295.274 442.664C294.314 442.664 293.49 442.92 292.802 443.432C292.13 443.944 291.586 444.696 291.17 445.688L289.346 445.016C289.858 443.656 290.618 442.616 291.626 441.896C292.634 441.176 293.85 440.816 295.274 440.816C296.122 440.816 296.89 440.944 297.578 441.2C298.266 441.456 298.85 441.816 299.33 442.28C299.826 442.728 300.202 443.272 300.458 443.912C300.73 444.552 300.866 445.264 300.866 446.048C300.866 447.136 300.586 448.144 300.026 449.072C299.466 450 298.546 450.976 297.266 452L291.986 456.2H301.154V458H289.49ZM310.497 458.384C309.473 458.384 308.553 458.168 307.737 457.736C306.921 457.304 306.225 456.704 305.649 455.936C305.073 455.152 304.625 454.224 304.305 453.152C304.001 452.064 303.849 450.88 303.849 449.6C303.849 448.32 304.001 447.144 304.305 446.072C304.625 444.984 305.073 444.056 305.649 443.288C306.225 442.504 306.921 441.896 307.737 441.464C308.553 441.032 309.473 440.816 310.497 440.816C311.521 440.816 312.441 441.032 313.257 441.464C314.073 441.896 314.769 442.504 315.345 443.288C315.921 444.056 316.361 444.984 316.665 446.072C316.985 447.144 317.145 448.32 317.145 449.6C317.145 450.88 316.985 452.064 316.665 453.152C316.361 454.224 315.921 455.152 315.345 455.936C314.769 456.704 314.073 457.304 313.257 457.736C312.441 458.168 311.521 458.384 310.497 458.384ZM310.497 442.712C309.777 442.712 309.129 442.88 308.553 443.216C307.977 443.552 307.489 444.032 307.089 444.656C306.689 445.264 306.377 445.992 306.153 446.84C305.945 447.672 305.84 448.592 305.84 449.6C305.84 450.608 305.945 451.536 306.153 452.384C306.377 453.216 306.689 453.944 307.089 454.568C307.489 455.176 307.977 455.648 308.553 455.984C309.129 456.32 309.777 456.488 310.497 456.488C311.217 456.488 311.865 456.32 312.441 455.984C313.017 455.648 313.505 455.176 313.905 454.568C314.305 453.944 314.609 453.216 314.817 452.384C315.041 451.536 315.153 450.608 315.153 449.6C315.153 448.592 315.041 447.672 314.817 446.84C314.609 445.992 314.305 445.264 313.905 444.656C313.505 444.032 313.017 443.552 312.441 443.216C311.865 442.88 311.217 442.712 310.497 442.712ZM319.56 458V455.864L326.112 450.584C327.12 449.768 327.848 449 328.296 448.28C328.76 447.56 328.992 446.816 328.992 446.048C328.992 445.04 328.656 444.224 327.984 443.6C327.328 442.976 326.448 442.664 325.344 442.664C324.384 442.664 323.56 442.92 322.872 443.432C322.2 443.944 321.656 444.696 321.24 445.688L319.416 445.016C319.928 443.656 320.688 442.616 321.696 441.896C322.704 441.176 323.92 440.816 325.344 440.816C326.192 440.816 326.96 440.944 327.648 441.2C328.336 441.456 328.92 441.816 329.4 442.28C329.896 442.728 330.272 443.272 330.528 443.912C330.8 444.552 330.936 445.264 330.936 446.048C330.936 447.136 330.656 448.144 330.096 449.072C329.536 450 328.616 450.976 327.336 452L322.056 456.2H331.224V458H319.56ZM339.127 458.384C337.623 458.384 336.359 458.048 335.335 457.376C334.311 456.688 333.519 455.688 332.959 454.376L334.711 453.512C335.191 454.6 335.791 455.376 336.511 455.84C337.247 456.304 338.119 456.536 339.127 456.536C340.375 456.536 341.375 456.24 342.127 455.648C342.879 455.056 343.255 454.256 343.255 453.248C343.255 452.352 342.959 451.632 342.367 451.088C341.791 450.544 341.023 450.272 340.063 450.272H336.727V448.424H339.991C340.855 448.424 341.559 448.176 342.103 447.68C342.647 447.168 342.919 446.496 342.919 445.664C342.919 444.768 342.591 444.048 341.935 443.504C341.295 442.944 340.399 442.664 339.247 442.664C338.287 442.664 337.463 442.88 336.775 443.312C336.103 443.744 335.535 444.4 335.071 445.28L333.391 444.368C333.967 443.216 334.751 442.336 335.743 441.728C336.751 441.12 337.935 440.816 339.295 440.816C340.127 440.816 340.887 440.928 341.575 441.152C342.263 441.376 342.847 441.696 343.327 442.112C343.823 442.528 344.207 443.024 344.479 443.6C344.751 444.176 344.887 444.816 344.887 445.52C344.887 446.416 344.671 447.184 344.239 447.824C343.823 448.464 343.247 448.944 342.511 449.264C343.375 449.616 344.039 450.136 344.503 450.824C344.983 451.512 345.223 452.336 345.223 453.296C345.223 454.048 345.071 454.736 344.767 455.36C344.479 455.984 344.071 456.52 343.543 456.968C343.015 457.416 342.375 457.76 341.623 458C340.871 458.256 340.039 458.384 339.127 458.384Z" fill="#F1F2F1"/>
<path d="M425.087 458V455.864L431.639 450.584C432.647 449.768 433.375 449 433.823 448.28C434.287 447.56 434.519 446.816 434.519 446.048C434.519 445.04 434.183 444.224 433.511 443.6C432.855 442.976 431.975 442.664 430.871 442.664C429.911 442.664 429.087 442.92 428.399 443.432C427.727 443.944 427.183 444.696 426.767 445.688L424.943 445.016C425.455 443.656 426.215 442.616 427.223 441.896C428.231 441.176 429.447 440.816 430.871 440.816C431.719 440.816 432.487 440.944 433.175 441.2C433.863 441.456 434.447 441.816 434.927 442.28C435.423 442.728 435.799 443.272 436.055 443.912C436.327 444.552 436.463 445.264 436.463 446.048C436.463 447.136 436.183 448.144 435.623 449.072C435.063 450 434.143 450.976 432.863 452L427.583 456.2H436.751V458H425.087ZM446.094 458.384C445.07 458.384 444.15 458.168 443.334 457.736C442.518 457.304 441.822 456.704 441.246 455.936C440.67 455.152 440.222 454.224 439.902 453.152C439.598 452.064 439.446 450.88 439.446 449.6C439.446 448.32 439.598 447.144 439.902 446.072C440.222 444.984 440.67 444.056 441.246 443.288C441.822 442.504 442.518 441.896 443.334 441.464C444.15 441.032 445.07 440.816 446.094 440.816C447.118 440.816 448.038 441.032 448.854 441.464C449.67 441.896 450.366 442.504 450.942 443.288C451.518 444.056 451.958 444.984 452.262 446.072C452.582 447.144 452.742 448.32 452.742 449.6C452.742 450.88 452.582 452.064 452.262 453.152C451.958 454.224 451.518 455.152 450.942 455.936C450.366 456.704 449.67 457.304 448.854 457.736C448.038 458.168 447.118 458.384 446.094 458.384ZM446.094 442.712C445.374 442.712 444.726 442.88 444.15 443.216C443.574 443.552 443.086 444.032 442.686 444.656C442.286 445.264 441.974 445.992 441.75 446.84C441.542 447.672 441.438 448.592 441.438 449.6C441.438 450.608 441.542 451.536 441.75 452.384C441.974 453.216 442.286 453.944 442.686 454.568C443.086 455.176 443.574 455.648 444.15 455.984C444.726 456.32 445.374 456.488 446.094 456.488C446.814 456.488 447.462 456.32 448.038 455.984C448.614 455.648 449.102 455.176 449.502 454.568C449.902 453.944 450.206 453.216 450.414 452.384C450.638 451.536 450.75 450.608 450.75 449.6C450.75 448.592 450.638 447.672 450.414 446.84C450.206 445.992 449.902 445.264 449.502 444.656C449.102 444.032 448.614 443.552 448.038 443.216C447.462 442.88 446.814 442.712 446.094 442.712ZM455.158 458V455.864L461.71 450.584C462.718 449.768 463.446 449 463.894 448.28C464.358 447.56 464.59 446.816 464.59 446.048C464.59 445.04 464.254 444.224 463.582 443.6C462.926 442.976 462.046 442.664 460.942 442.664C459.982 442.664 459.158 442.92 458.47 443.432C457.798 443.944 457.254 444.696 456.838 445.688L455.014 445.016C455.526 443.656 456.286 442.616 457.294 441.896C458.302 441.176 459.518 440.816 460.942 440.816C461.79 440.816 462.558 440.944 463.246 441.2C463.934 441.456 464.518 441.816 464.998 442.28C465.494 442.728 465.87 443.272 466.126 443.912C466.398 444.552 466.534 445.264 466.534 446.048C466.534 447.136 466.254 448.144 465.694 449.072C465.134 450 464.214 450.976 462.934 452L457.654 456.2H466.822V458H455.158ZM470.956 451.976H477.22V443.624L470.956 451.976ZM477.22 458V453.8H468.988V451.592L476.86 441.2H479.14V451.976H481.612V453.8H479.14V458H477.22Z" fill="#F1F2F1"/>
<path d="M561.689 458V455.864L568.241 450.584C569.249 449.768 569.977 449 570.425 448.28C570.889 447.56 571.121 446.816 571.121 446.048C571.121 445.04 570.785 444.224 570.113 443.6C569.457 442.976 568.577 442.664 567.473 442.664C566.513 442.664 565.689 442.92 565.001 443.432C564.329 443.944 563.785 444.696 563.369 445.688L561.545 445.016C562.057 443.656 562.817 442.616 563.825 441.896C564.833 441.176 566.049 440.816 567.473 440.816C568.321 440.816 569.089 440.944 569.777 441.2C570.465 441.456 571.049 441.816 571.529 442.28C572.025 442.728 572.401 443.272 572.657 443.912C572.929 444.552 573.065 445.264 573.065 446.048C573.065 447.136 572.785 448.144 572.225 449.072C571.665 450 570.745 450.976 569.465 452L564.185 456.2H573.353V458H561.689ZM582.696 458.384C581.672 458.384 580.752 458.168 579.936 457.736C579.12 457.304 578.424 456.704 577.848 455.936C577.272 455.152 576.824 454.224 576.504 453.152C576.2 452.064 576.048 450.88 576.048 449.6C576.048 448.32 576.2 447.144 576.504 446.072C576.824 444.984 577.272 444.056 577.848 443.288C578.424 442.504 579.12 441.896 579.936 441.464C580.752 441.032 581.672 440.816 582.696 440.816C583.72 440.816 584.64 441.032 585.456 441.464C586.272 441.896 586.968 442.504 587.544 443.288C588.12 444.056 588.56 444.984 588.864 446.072C589.184 447.144 589.344 448.32 589.344 449.6C589.344 450.88 589.184 452.064 588.864 453.152C588.56 454.224 588.12 455.152 587.544 455.936C586.968 456.704 586.272 457.304 585.456 457.736C584.64 458.168 583.72 458.384 582.696 458.384ZM582.696 442.712C581.976 442.712 581.328 442.88 580.752 443.216C580.176 443.552 579.688 444.032 579.288 444.656C578.888 445.264 578.576 445.992 578.352 446.84C578.144 447.672 578.04 448.592 578.04 449.6C578.04 450.608 578.144 451.536 578.352 452.384C578.576 453.216 578.888 453.944 579.288 454.568C579.688 455.176 580.176 455.648 580.752 455.984C581.328 456.32 581.976 456.488 582.696 456.488C583.416 456.488 584.064 456.32 584.64 455.984C585.216 455.648 585.704 455.176 586.104 454.568C586.504 453.944 586.808 453.216 587.016 452.384C587.24 451.536 587.352 450.608 587.352 449.6C587.352 448.592 587.24 447.672 587.016 446.84C586.808 445.992 586.504 445.264 586.104 444.656C585.704 444.032 585.216 443.552 584.64 443.216C584.064 442.88 583.416 442.712 582.696 442.712ZM591.759 458V455.864L598.311 450.584C599.319 449.768 600.047 449 600.495 448.28C600.959 447.56 601.191 446.816 601.191 446.048C601.191 445.04 600.855 444.224 600.183 443.6C599.527 442.976 598.647 442.664 597.543 442.664C596.583 442.664 595.759 442.92 595.071 443.432C594.399 443.944 593.855 444.696 593.439 445.688L591.615 445.016C592.127 443.656 592.887 442.616 593.895 441.896C594.903 441.176 596.119 440.816 597.543 440.816C598.391 440.816 599.159 440.944 599.847 441.2C600.535 441.456 601.119 441.816 601.599 442.28C602.095 442.728 602.471 443.272 602.727 443.912C602.999 444.552 603.135 445.264 603.135 446.048C603.135 447.136 602.855 448.144 602.295 449.072C601.735 450 600.815 450.976 599.535 452L594.255 456.2H603.423V458H591.759ZM612.382 456.584C612.974 456.584 613.51 456.488 613.99 456.296C614.486 456.088 614.902 455.816 615.238 455.48C615.59 455.128 615.862 454.712 616.054 454.232C616.246 453.752 616.342 453.232 616.342 452.672C616.342 451.536 615.974 450.64 615.238 449.984C614.502 449.328 613.55 449 612.382 449C611.758 449 611.198 449.096 610.702 449.288C610.222 449.464 609.814 449.72 609.478 450.056C609.142 450.392 608.878 450.792 608.686 451.256C608.51 451.704 608.422 452.192 608.422 452.72C608.422 453.28 608.518 453.8 608.71 454.28C608.902 454.744 609.174 455.152 609.526 455.504C609.878 455.84 610.294 456.104 610.774 456.296C611.27 456.488 611.806 456.584 612.382 456.584ZM612.382 458.384C610.398 458.384 608.854 457.688 607.75 456.296C606.662 454.904 606.118 452.88 606.118 450.224V449.168C606.118 446.48 606.686 444.416 607.822 442.976C608.958 441.536 610.582 440.816 612.694 440.816C615.126 440.816 616.934 441.816 618.118 443.816L616.51 444.824C616.078 444.088 615.55 443.536 614.926 443.168C614.302 442.8 613.55 442.616 612.67 442.616C611.166 442.616 610.014 443.144 609.214 444.2C608.414 445.256 608.014 446.8 608.014 448.832C608.014 448.96 608.014 449.088 608.014 449.216C608.014 449.344 608.022 449.472 608.038 449.6C609.062 448 610.59 447.2 612.622 447.2C613.454 447.2 614.214 447.336 614.902 447.608C615.606 447.88 616.206 448.264 616.702 448.76C617.214 449.24 617.606 449.824 617.878 450.512C618.166 451.184 618.31 451.928 618.31 452.744C618.31 453.576 618.166 454.336 617.878 455.024C617.59 455.712 617.182 456.304 616.654 456.8C616.142 457.296 615.518 457.688 614.782 457.976C614.062 458.248 613.262 458.384 612.382 458.384Z" fill="#F1F2F1"/>
<path d="M698.286 458V455.864L704.838 450.584C705.846 449.768 706.574 449 707.022 448.28C707.486 447.56 707.718 446.816 707.718 446.048C707.718 445.04 707.382 444.224 706.71 443.6C706.054 442.976 705.174 442.664 704.07 442.664C703.11 442.664 702.286 442.92 701.598 443.432C700.926 443.944 700.382 444.696 699.966 445.688L698.142 445.016C698.654 443.656 699.414 442.616 700.422 441.896C701.43 441.176 702.646 440.816 704.07 440.816C704.918 440.816 705.686 440.944 706.374 441.2C707.062 441.456 707.646 441.816 708.126 442.28C708.622 442.728 708.998 443.272 709.254 443.912C709.526 444.552 709.662 445.264 709.662 446.048C709.662 447.136 709.382 448.144 708.822 449.072C708.262 450 707.342 450.976 706.062 452L700.782 456.2H709.95V458H698.286ZM719.293 458.384C718.269 458.384 717.349 458.168 716.533 457.736C715.717 457.304 715.021 456.704 714.445 455.936C713.869 455.152 713.421 454.224 713.101 453.152C712.797 452.064 712.645 450.88 712.645 449.6C712.645 448.32 712.797 447.144 713.101 446.072C713.421 444.984 713.869 444.056 714.445 443.288C715.021 442.504 715.717 441.896 716.533 441.464C717.349 441.032 718.269 440.816 719.293 440.816C720.317 440.816 721.237 441.032 722.053 441.464C722.869 441.896 723.565 442.504 724.141 443.288C724.717 444.056 725.157 444.984 725.461 446.072C725.781 447.144 725.941 448.32 725.941 449.6C725.941 450.88 725.781 452.064 725.461 453.152C725.157 454.224 724.717 455.152 724.141 455.936C723.565 456.704 722.869 457.304 722.053 457.736C721.237 458.168 720.317 458.384 719.293 458.384ZM719.293 442.712C718.573 442.712 717.925 442.88 717.349 443.216C716.773 443.552 716.285 444.032 715.885 444.656C715.485 445.264 715.173 445.992 714.949 446.84C714.741 447.672 714.637 448.592 714.637 449.6C714.637 450.608 714.741 451.536 714.949 452.384C715.173 453.216 715.485 453.944 715.885 454.568C716.285 455.176 716.773 455.648 717.349 455.984C717.925 456.32 718.573 456.488 719.293 456.488C720.013 456.488 720.661 456.32 721.237 455.984C721.813 455.648 722.301 455.176 722.701 454.568C723.101 453.944 723.405 453.216 723.613 452.384C723.837 451.536 723.949 450.608 723.949 449.6C723.949 448.592 723.837 447.672 723.613 446.84C723.405 445.992 723.101 445.264 722.701 444.656C722.301 444.032 721.813 443.552 721.237 443.216C720.661 442.88 720.013 442.712 719.293 442.712ZM728.357 458V455.864L734.909 450.584C735.917 449.768 736.645 449 737.093 448.28C737.557 447.56 737.789 446.816 737.789 446.048C737.789 445.04 737.453 444.224 736.781 443.6C736.125 442.976 735.245 442.664 734.141 442.664C733.181 442.664 732.357 442.92 731.669 443.432C730.997 443.944 730.453 444.696 730.037 445.688L728.213 445.016C728.725 443.656 729.485 442.616 730.493 441.896C731.501 441.176 732.717 440.816 734.141 440.816C734.989 440.816 735.757 440.944 736.445 441.2C737.133 441.456 737.717 441.816 738.197 442.28C738.693 442.728 739.069 443.272 739.325 443.912C739.597 444.552 739.733 445.264 739.733 446.048C739.733 447.136 739.453 448.144 738.893 449.072C738.333 450 737.413 450.976 736.133 452L730.853 456.2H740.021V458H728.357ZM748.212 456.608C749.444 456.608 750.412 456.312 751.116 455.72C751.82 455.112 752.172 454.336 752.172 453.392C752.172 452.464 751.812 451.704 751.092 451.112C750.388 450.504 749.428 450.2 748.212 450.2C746.996 450.2 746.028 450.504 745.308 451.112C744.604 451.704 744.252 452.464 744.252 453.392C744.252 454.336 744.604 455.112 745.308 455.72C746.012 456.312 746.98 456.608 748.212 456.608ZM748.212 448.52C749.316 448.52 750.188 448.256 750.828 447.728C751.468 447.2 751.788 446.504 751.788 445.64C751.788 444.744 751.468 444.016 750.828 443.456C750.188 442.88 749.316 442.592 748.212 442.592C747.108 442.592 746.236 442.88 745.596 443.456C744.956 444.016 744.636 444.744 744.636 445.64C744.636 446.504 744.956 447.2 745.596 447.728C746.236 448.256 747.108 448.52 748.212 448.52ZM748.212 458.384C747.332 458.384 746.524 458.264 745.788 458.024C745.068 457.784 744.452 457.456 743.94 457.04C743.428 456.608 743.028 456.096 742.74 455.504C742.452 454.896 742.308 454.232 742.308 453.512C742.308 452.568 742.548 451.736 743.028 451.016C743.508 450.296 744.18 449.744 745.044 449.36C744.276 448.992 743.692 448.48 743.292 447.824C742.892 447.168 742.692 446.408 742.692 445.544C742.692 444.84 742.82 444.2 743.076 443.624C743.348 443.048 743.724 442.552 744.204 442.136C744.684 441.72 745.26 441.4 745.932 441.176C746.62 440.936 747.38 440.816 748.212 440.816C749.044 440.816 749.796 440.936 750.468 441.176C751.156 441.4 751.74 441.72 752.22 442.136C752.7 442.552 753.068 443.048 753.324 443.624C753.596 444.2 753.732 444.84 753.732 445.544C753.732 446.408 753.532 447.168 753.132 447.824C752.732 448.48 752.148 448.992 751.38 449.36C752.244 449.744 752.916 450.296 753.396 451.016C753.876 451.736 754.116 452.568 754.116 453.512C754.116 454.232 753.972 454.896 753.684 455.504C753.396 456.096 752.996 456.608 752.484 457.04C751.972 457.456 751.348 457.784 750.612 458.024C749.892 458.264 749.092 458.384 748.212 458.384Z" fill="#F1F2F1"/>
<path d="M833.888 458V455.864L840.44 450.584C841.448 449.768 842.176 449 842.624 448.28C843.088 447.56 843.32 446.816 843.32 446.048C843.32 445.04 842.984 444.224 842.312 443.6C841.656 442.976 840.776 442.664 839.672 442.664C838.712 442.664 837.888 442.92 837.2 443.432C836.528 443.944 835.984 444.696 835.568 445.688L833.744 445.016C834.256 443.656 835.016 442.616 836.024 441.896C837.032 441.176 838.248 440.816 839.672 440.816C840.52 440.816 841.288 440.944 841.976 441.2C842.664 441.456 843.248 441.816 843.728 442.28C844.224 442.728 844.6 443.272 844.856 443.912C845.128 444.552 845.264 445.264 845.264 446.048C845.264 447.136 844.984 448.144 844.424 449.072C843.864 450 842.944 450.976 841.664 452L836.384 456.2H845.552V458H833.888ZM854.895 458.384C853.871 458.384 852.951 458.168 852.135 457.736C851.319 457.304 850.623 456.704 850.047 455.936C849.471 455.152 849.023 454.224 848.703 453.152C848.399 452.064 848.247 450.88 848.247 449.6C848.247 448.32 848.399 447.144 848.703 446.072C849.023 444.984 849.471 444.056 850.047 443.288C850.623 442.504 851.319 441.896 852.135 441.464C852.951 441.032 853.871 440.816 854.895 440.816C855.919 440.816 856.839 441.032 857.655 441.464C858.471 441.896 859.167 442.504 859.743 443.288C860.319 444.056 860.759 444.984 861.063 446.072C861.383 447.144 861.543 448.32 861.543 449.6C861.543 450.88 861.383 452.064 861.063 453.152C860.759 454.224 860.319 455.152 859.743 455.936C859.167 456.704 858.471 457.304 857.655 457.736C856.839 458.168 855.919 458.384 854.895 458.384ZM854.895 442.712C854.175 442.712 853.527 442.88 852.951 443.216C852.375 443.552 851.887 444.032 851.487 444.656C851.087 445.264 850.775 445.992 850.551 446.84C850.343 447.672 850.239 448.592 850.239 449.6C850.239 450.608 850.343 451.536 850.551 452.384C850.775 453.216 851.087 453.944 851.487 454.568C851.887 455.176 852.375 455.648 852.951 455.984C853.527 456.32 854.175 456.488 854.895 456.488C855.615 456.488 856.263 456.32 856.839 455.984C857.415 455.648 857.903 455.176 858.303 454.568C858.703 453.944 859.007 453.216 859.215 452.384C859.439 451.536 859.551 450.608 859.551 449.6C859.551 448.592 859.439 447.672 859.215 446.84C859.007 445.992 858.703 445.264 858.303 444.656C857.903 444.032 857.415 443.552 856.839 443.216C856.263 442.88 855.615 442.712 854.895 442.712ZM869.814 458.384C868.31 458.384 867.046 458.048 866.022 457.376C864.998 456.688 864.206 455.688 863.646 454.376L865.398 453.512C865.878 454.6 866.478 455.376 867.198 455.84C867.934 456.304 868.806 456.536 869.814 456.536C871.062 456.536 872.062 456.24 872.814 455.648C873.566 455.056 873.942 454.256 873.942 453.248C873.942 452.352 873.646 451.632 873.054 451.088C872.478 450.544 871.71 450.272 870.75 450.272H867.414V448.424H870.678C871.542 448.424 872.246 448.176 872.79 447.68C873.334 447.168 873.606 446.496 873.606 445.664C873.606 444.768 873.278 444.048 872.622 443.504C871.982 442.944 871.086 442.664 869.934 442.664C868.974 442.664 868.15 442.88 867.462 443.312C866.79 443.744 866.222 444.4 865.758 445.28L864.078 444.368C864.654 443.216 865.438 442.336 866.43 441.728C867.438 441.12 868.622 440.816 869.982 440.816C870.814 440.816 871.574 440.928 872.262 441.152C872.95 441.376 873.534 441.696 874.014 442.112C874.51 442.528 874.894 443.024 875.166 443.6C875.438 444.176 875.574 444.816 875.574 445.52C875.574 446.416 875.358 447.184 874.926 447.824C874.51 448.464 873.934 448.944 873.198 449.264C874.062 449.616 874.726 450.136 875.19 450.824C875.67 451.512 875.91 452.336 875.91 453.296C875.91 454.048 875.758 454.736 875.454 455.36C875.166 455.984 874.758 456.52 874.23 456.968C873.702 457.416 873.062 457.76 872.31 458C871.558 458.256 870.726 458.384 869.814 458.384ZM885.223 458.384C884.199 458.384 883.279 458.168 882.463 457.736C881.647 457.304 880.951 456.704 880.375 455.936C879.799 455.152 879.351 454.224 879.031 453.152C878.727 452.064 878.575 450.88 878.575 449.6C878.575 448.32 878.727 447.144 879.031 446.072C879.351 444.984 879.799 444.056 880.375 443.288C880.951 442.504 881.647 441.896 882.463 441.464C883.279 441.032 884.199 440.816 885.223 440.816C886.247 440.816 887.167 441.032 887.983 441.464C888.799 441.896 889.495 442.504 890.071 443.288C890.647 444.056 891.087 444.984 891.391 446.072C891.711 447.144 891.871 448.32 891.871 449.6C891.871 450.88 891.711 452.064 891.391 453.152C891.087 454.224 890.647 455.152 890.071 455.936C889.495 456.704 888.799 457.304 887.983 457.736C887.167 458.168 886.247 458.384 885.223 458.384ZM885.223 442.712C884.503 442.712 883.855 442.88 883.279 443.216C882.703 443.552 882.215 444.032 881.815 444.656C881.415 445.264 881.103 445.992 880.879 446.84C880.671 447.672 880.567 448.592 880.567 449.6C880.567 450.608 880.671 451.536 880.879 452.384C881.103 453.216 881.415 453.944 881.815 454.568C882.215 455.176 882.703 455.648 883.279 455.984C883.855 456.32 884.503 456.488 885.223 456.488C885.943 456.488 886.591 456.32 887.167 455.984C887.743 455.648 888.231 455.176 888.631 454.568C889.031 453.944 889.335 453.216 889.543 452.384C889.767 451.536 889.879 450.608 889.879 449.6C889.879 448.592 889.767 447.672 889.543 446.84C889.335 445.992 889.031 445.264 888.631 444.656C888.231 444.032 887.743 443.552 887.167 443.216C886.591 442.88 885.943 442.712 885.223 442.712Z" fill="#F1F2F1"/>
<path d="M153.968 268V253.432L150.488 255.784L149.528 254.176L153.992 251.2H155.888V268H153.968ZM168.098 253.072H159.194V251.2H170.186V253.096L163.538 268H161.426L168.098 253.072ZM172.207 266.632C172.207 266.216 172.343 265.872 172.615 265.6C172.903 265.312 173.255 265.168 173.671 265.168C174.087 265.168 174.431 265.312 174.703 265.6C174.991 265.872 175.135 266.216 175.135 266.632C175.135 267.048 174.991 267.4 174.703 267.688C174.431 267.96 174.087 268.096 173.671 268.096C173.255 268.096 172.903 267.96 172.615 267.688C172.343 267.4 172.207 267.048 172.207 266.632ZM183.289 252.616C182.697 252.616 182.153 252.72 181.657 252.928C181.177 253.12 180.761 253.392 180.409 253.744C180.073 254.08 179.809 254.488 179.617 254.968C179.425 255.448 179.329 255.968 179.329 256.528C179.329 257.664 179.697 258.56 180.433 259.216C181.169 259.872 182.121 260.2 183.289 260.2C183.913 260.2 184.465 260.112 184.945 259.936C185.441 259.744 185.857 259.48 186.193 259.144C186.529 258.808 186.785 258.416 186.961 257.968C187.153 257.504 187.249 257.008 187.249 256.48C187.249 255.92 187.153 255.408 186.961 254.944C186.769 254.464 186.497 254.056 186.145 253.72C185.793 253.368 185.369 253.096 184.873 252.904C184.393 252.712 183.865 252.616 183.289 252.616ZM183.289 250.816C185.273 250.816 186.809 251.512 187.897 252.904C189.001 254.296 189.553 256.32 189.553 258.976V260.032C189.553 262.72 188.985 264.784 187.849 266.224C186.713 267.664 185.089 268.384 182.977 268.384C180.545 268.384 178.737 267.384 177.553 265.384L179.161 264.376C179.593 265.112 180.121 265.664 180.745 266.032C181.369 266.4 182.121 266.584 183.001 266.584C184.505 266.584 185.657 266.056 186.457 265C187.257 263.944 187.657 262.4 187.657 260.368C187.657 260.24 187.657 260.112 187.657 259.984C187.657 259.856 187.649 259.728 187.633 259.6C186.609 261.2 185.081 262 183.049 262C182.217 262 181.449 261.864 180.745 261.592C180.057 261.32 179.457 260.944 178.945 260.464C178.449 259.968 178.057 259.384 177.769 258.712C177.497 258.024 177.361 257.272 177.361 256.456C177.361 255.624 177.505 254.864 177.793 254.176C178.081 253.488 178.481 252.896 178.993 252.4C179.521 251.904 180.145 251.52 180.865 251.248C181.601 250.96 182.409 250.816 183.289 250.816ZM205.629 263.992L209.541 256H211.941V268H210.069V258.88L206.373 266.344H204.837L201.141 258.88V268H199.269V256H201.717L205.629 263.992ZM214.334 266.176H214.622C215.038 266.176 215.382 266.088 215.654 265.912C215.926 265.736 216.134 265.432 216.278 265C216.438 264.552 216.55 263.96 216.614 263.224C216.678 262.472 216.71 261.536 216.71 260.416V256H225.422V268H223.478V257.8H218.63V260.896C218.63 262.208 218.558 263.32 218.414 264.232C218.286 265.144 218.07 265.888 217.766 266.464C217.478 267.024 217.086 267.432 216.59 267.688C216.11 267.928 215.518 268.048 214.814 268.048H214.334V266.176ZM239.138 256V268H237.194V262.528H231.002V268H229.058V256H231.002V260.728H237.194V256H239.138Z" fill="#F1F2F1"/>
<path d="M278.888 238V235.864L285.44 230.584C286.448 229.768 287.176 229 287.624 228.28C288.088 227.56 288.32 226.816 288.32 226.048C288.32 225.04 287.984 224.224 287.312 223.6C286.656 222.976 285.776 222.664 284.672 222.664C283.712 222.664 282.888 222.92 282.2 223.432C281.528 223.944 280.984 224.696 280.568 225.688L278.744 225.016C279.256 223.656 280.016 222.616 281.024 221.896C282.032 221.176 283.248 220.816 284.672 220.816C285.52 220.816 286.288 220.944 286.976 221.2C287.664 221.456 288.248 221.816 288.728 222.28C289.224 222.728 289.6 223.272 289.856 223.912C290.128 224.552 290.264 225.264 290.264 226.048C290.264 227.136 289.984 228.144 289.424 229.072C288.864 230 287.944 230.976 286.664 232L281.384 236.2H290.552V238H278.888ZM294.687 231.976H300.951V223.624L294.687 231.976ZM300.951 238V233.8H292.719V231.592L300.591 221.2H302.871V231.976H305.343V233.8H302.871V238H300.951ZM307.652 236.632C307.652 236.216 307.788 235.872 308.06 235.6C308.348 235.312 308.7 235.168 309.116 235.168C309.532 235.168 309.876 235.312 310.148 235.6C310.436 235.872 310.58 236.216 310.58 236.632C310.58 237.048 310.436 237.4 310.148 237.688C309.876 237.96 309.532 238.096 309.116 238.096C308.7 238.096 308.348 237.96 308.06 237.688C307.788 237.4 307.652 237.048 307.652 236.632ZM318.183 238.384C316.903 238.384 315.775 238.112 314.799 237.568C313.839 237.008 313.071 236.176 312.495 235.072L314.127 234.112C315.071 235.744 316.423 236.56 318.183 236.56C318.791 236.56 319.343 236.472 319.839 236.296C320.351 236.104 320.783 235.84 321.135 235.504C321.503 235.168 321.783 234.76 321.975 234.28C322.167 233.8 322.263 233.272 322.263 232.696C322.263 231.544 321.903 230.632 321.183 229.96C320.463 229.288 319.479 228.952 318.231 228.952C316.775 228.952 315.631 229.472 314.799 230.512L313.215 229.936L313.671 221.2H323.271V223.024H315.447L315.159 228.16C316.119 227.488 317.263 227.152 318.591 227.152C319.439 227.152 320.207 227.288 320.895 227.56C321.599 227.816 322.191 228.184 322.671 228.664C323.167 229.144 323.543 229.728 323.799 230.416C324.071 231.088 324.207 231.84 324.207 232.672C324.207 233.536 324.063 234.32 323.775 235.024C323.487 235.728 323.079 236.328 322.551 236.824C322.039 237.32 321.407 237.704 320.655 237.976C319.919 238.248 319.095 238.384 318.183 238.384ZM339.832 233.992L343.744 226H346.144V238H344.272V228.88L340.576 236.344H339.04L335.344 228.88V238H333.472V226H335.92L339.832 233.992ZM348.537 236.176H348.825C349.241 236.176 349.585 236.088 349.857 235.912C350.129 235.736 350.337 235.432 350.481 235C350.641 234.552 350.753 233.96 350.817 233.224C350.881 232.472 350.913 231.536 350.913 230.416V226H359.625V238H357.681V227.8H352.833V230.896C352.833 232.208 352.761 233.32 352.617 234.232C352.489 235.144 352.273 235.888 351.969 236.464C351.681 237.024 351.289 237.432 350.793 237.688C350.313 237.928 349.721 238.048 349.017 238.048H348.537V236.176ZM373.342 226V238H371.398V232.528H365.206V238H363.262V226H365.206V230.728H371.398V226H373.342Z" fill="#F1F2F1"/>
<path d="M415.888 208V205.864L422.44 200.584C423.448 199.768 424.176 199 424.624 198.28C425.088 197.56 425.32 196.816 425.32 196.048C425.32 195.04 424.984 194.224 424.312 193.6C423.656 192.976 422.776 192.664 421.672 192.664C420.712 192.664 419.888 192.92 419.2 193.432C418.528 193.944 417.984 194.696 417.568 195.688L415.744 195.016C416.256 193.656 417.016 192.616 418.024 191.896C419.032 191.176 420.248 190.816 421.672 190.816C422.52 190.816 423.288 190.944 423.976 191.2C424.664 191.456 425.248 191.816 425.728 192.28C426.224 192.728 426.6 193.272 426.856 193.912C427.128 194.552 427.264 195.264 427.264 196.048C427.264 197.136 426.984 198.144 426.424 199.072C425.864 200 424.944 200.976 423.664 202L418.384 206.2H427.552V208H415.888ZM435.743 206.608C436.975 206.608 437.943 206.312 438.647 205.72C439.351 205.112 439.703 204.336 439.703 203.392C439.703 202.464 439.343 201.704 438.623 201.112C437.919 200.504 436.959 200.2 435.743 200.2C434.527 200.2 433.559 200.504 432.839 201.112C432.135 201.704 431.783 202.464 431.783 203.392C431.783 204.336 432.135 205.112 432.839 205.72C433.543 206.312 434.511 206.608 435.743 206.608ZM435.743 198.52C436.847 198.52 437.719 198.256 438.359 197.728C438.999 197.2 439.319 196.504 439.319 195.64C439.319 194.744 438.999 194.016 438.359 193.456C437.719 192.88 436.847 192.592 435.743 192.592C434.639 192.592 433.767 192.88 433.127 193.456C432.487 194.016 432.167 194.744 432.167 195.64C432.167 196.504 432.487 197.2 433.127 197.728C433.767 198.256 434.639 198.52 435.743 198.52ZM435.743 208.384C434.863 208.384 434.055 208.264 433.319 208.024C432.599 207.784 431.983 207.456 431.471 207.04C430.959 206.608 430.559 206.096 430.271 205.504C429.983 204.896 429.839 204.232 429.839 203.512C429.839 202.568 430.079 201.736 430.559 201.016C431.039 200.296 431.711 199.744 432.575 199.36C431.807 198.992 431.223 198.48 430.823 197.824C430.423 197.168 430.223 196.408 430.223 195.544C430.223 194.84 430.351 194.2 430.607 193.624C430.879 193.048 431.255 192.552 431.735 192.136C432.215 191.72 432.791 191.4 433.463 191.176C434.151 190.936 434.911 190.816 435.743 190.816C436.575 190.816 437.327 190.936 437.999 191.176C438.687 191.4 439.271 191.72 439.751 192.136C440.231 192.552 440.599 193.048 440.855 193.624C441.127 194.2 441.263 194.84 441.263 195.544C441.263 196.408 441.063 197.168 440.663 197.824C440.263 198.48 439.679 198.992 438.911 199.36C439.775 199.744 440.447 200.296 440.927 201.016C441.407 201.736 441.647 202.568 441.647 203.512C441.647 204.232 441.503 204.896 441.215 205.504C440.927 206.096 440.527 206.608 440.015 207.04C439.503 207.456 438.879 207.784 438.143 208.024C437.423 208.264 436.623 208.384 435.743 208.384ZM443.925 206.632C443.925 206.216 444.061 205.872 444.333 205.6C444.621 205.312 444.973 205.168 445.389 205.168C445.805 205.168 446.149 205.312 446.421 205.6C446.709 205.872 446.853 206.216 446.853 206.632C446.853 207.048 446.709 207.4 446.421 207.688C446.149 207.96 445.805 208.096 445.389 208.096C444.973 208.096 444.621 207.96 444.333 207.688C444.061 207.4 443.925 207.048 443.925 206.632ZM457.864 193.072H448.96V191.2H459.952V193.096L453.304 208H451.192L457.864 193.072ZM475.239 203.992L479.151 196H481.551V208H479.679V198.88L475.983 206.344H474.447L470.751 198.88V208H468.879V196H471.327L475.239 203.992ZM483.943 206.176H484.231C484.647 206.176 484.991 206.088 485.263 205.912C485.535 205.736 485.743 205.432 485.887 205C486.047 204.552 486.159 203.96 486.223 203.224C486.287 202.472 486.319 201.536 486.319 200.416V196H495.031V208H493.087V197.8H488.239V200.896C488.239 202.208 488.167 203.32 488.023 204.232C487.895 205.144 487.679 205.888 487.375 206.464C487.087 207.024 486.695 207.432 486.199 207.688C485.719 207.928 485.127 208.048 484.423 208.048H483.943V206.176ZM508.748 196V208H506.804V202.528H500.612V208H498.668V196H500.612V200.728H506.804V196H508.748Z" fill="#F1F2F1"/>
<path d="M554.406 141.22C554.406 139.487 554.673 137.84 555.206 136.28C555.753 134.72 556.566 133.273 557.646 131.94L558.826 132.88C557.933 134.107 557.233 135.393 556.726 136.74C556.219 138.087 555.966 139.58 555.966 141.22C555.966 142.86 556.219 144.353 556.726 145.7C557.233 147.047 557.933 148.333 558.826 149.56L557.646 150.5C556.566 149.167 555.753 147.72 555.206 146.16C554.673 144.6 554.406 142.953 554.406 141.22ZM560.585 137H568.985V147H567.365V138.5H562.205V147H560.585V137ZM577.131 145.76C577.651 145.76 578.124 145.667 578.551 145.48C578.977 145.293 579.344 145.033 579.651 144.7C579.957 144.353 580.191 143.953 580.351 143.5C580.524 143.033 580.611 142.533 580.611 142C580.611 141.453 580.524 140.953 580.351 140.5C580.191 140.047 579.957 139.653 579.651 139.32C579.344 138.973 578.977 138.707 578.551 138.52C578.124 138.333 577.651 138.24 577.131 138.24C576.611 138.24 576.137 138.333 575.711 138.52C575.284 138.707 574.917 138.973 574.611 139.32C574.304 139.653 574.064 140.047 573.891 140.5C573.731 140.953 573.651 141.453 573.651 142C573.651 142.533 573.731 143.033 573.891 143.5C574.064 143.953 574.304 144.353 574.611 144.7C574.917 145.033 575.284 145.293 575.711 145.48C576.137 145.667 576.611 145.76 577.131 145.76ZM577.351 147.28C576.551 147.28 575.831 147.107 575.191 146.76C574.564 146.413 574.051 145.927 573.651 145.3V151H572.031V137H573.651V138.7C574.051 138.073 574.564 137.587 575.191 137.24C575.831 136.893 576.551 136.72 577.351 136.72C578.044 136.72 578.691 136.853 579.291 137.12C579.891 137.387 580.411 137.753 580.851 138.22C581.291 138.687 581.631 139.247 581.871 139.9C582.124 140.54 582.251 141.24 582.251 142C582.251 142.76 582.124 143.467 581.871 144.12C581.631 144.76 581.291 145.313 580.851 145.78C580.411 146.247 579.891 146.613 579.291 146.88C578.691 147.147 578.044 147.28 577.351 147.28ZM589.324 147.28C588.564 147.28 587.871 147.147 587.244 146.88C586.618 146.613 586.071 146.247 585.604 145.78C585.151 145.3 584.798 144.74 584.544 144.1C584.291 143.447 584.164 142.747 584.164 142C584.164 141.253 584.291 140.56 584.544 139.92C584.798 139.267 585.151 138.707 585.604 138.24C586.071 137.76 586.618 137.387 587.244 137.12C587.871 136.853 588.564 136.72 589.324 136.72C590.084 136.72 590.778 136.853 591.404 137.12C592.031 137.387 592.571 137.76 593.024 138.24C593.491 138.707 593.851 139.267 594.104 139.92C594.358 140.56 594.484 141.253 594.484 142C594.484 142.747 594.358 143.447 594.104 144.1C593.851 144.74 593.491 145.3 593.024 145.78C592.571 146.247 592.031 146.613 591.404 146.88C590.778 147.147 590.084 147.28 589.324 147.28ZM589.324 145.76C589.844 145.76 590.318 145.667 590.744 145.48C591.184 145.293 591.558 145.033 591.864 144.7C592.171 144.353 592.411 143.953 592.584 143.5C592.758 143.033 592.844 142.533 592.844 142C592.844 141.453 592.758 140.953 592.584 140.5C592.411 140.047 592.171 139.653 591.864 139.32C591.558 138.973 591.184 138.707 590.744 138.52C590.318 138.333 589.844 138.24 589.324 138.24C588.804 138.24 588.324 138.333 587.884 138.52C587.458 138.707 587.091 138.973 586.784 139.32C586.478 139.653 586.238 140.047 586.064 140.5C585.891 140.953 585.804 141.453 585.804 142C585.804 142.533 585.891 143.033 586.064 143.5C586.238 143.953 586.478 144.353 586.784 144.7C587.091 145.033 587.458 145.293 587.884 145.48C588.324 145.667 588.804 145.76 589.324 145.76ZM596.952 137H603.072V138.5H598.572V147H596.952V137ZM613.399 137V147H611.779V142.44H606.619V147H604.999V137H606.619V140.94H611.779V137H613.399ZM620.985 147.28C620.225 147.28 619.531 147.147 618.905 146.88C618.278 146.613 617.731 146.247 617.265 145.78C616.811 145.3 616.458 144.74 616.205 144.1C615.951 143.447 615.825 142.747 615.825 142C615.825 141.253 615.951 140.56 616.205 139.92C616.458 139.267 616.811 138.707 617.265 138.24C617.731 137.76 618.278 137.387 618.905 137.12C619.531 136.853 620.225 136.72 620.985 136.72C621.745 136.72 622.438 136.853 623.065 137.12C623.691 137.387 624.231 137.76 624.685 138.24C625.151 138.707 625.511 139.267 625.765 139.92C626.018 140.56 626.145 141.253 626.145 142C626.145 142.747 626.018 143.447 625.765 144.1C625.511 144.74 625.151 145.3 624.685 145.78C624.231 146.247 623.691 146.613 623.065 146.88C622.438 147.147 621.745 147.28 620.985 147.28ZM620.985 145.76C621.505 145.76 621.978 145.667 622.405 145.48C622.845 145.293 623.218 145.033 623.525 144.7C623.831 144.353 624.071 143.953 624.245 143.5C624.418 143.033 624.505 142.533 624.505 142C624.505 141.453 624.418 140.953 624.245 140.5C624.071 140.047 623.831 139.653 623.525 139.32C623.218 138.973 622.845 138.707 622.405 138.52C621.978 138.333 621.505 138.24 620.985 138.24C620.465 138.24 619.985 138.333 619.545 138.52C619.118 138.707 618.751 138.973 618.445 139.32C618.138 139.653 617.898 140.047 617.725 140.5C617.551 140.953 617.465 141.453 617.465 142C617.465 142.533 617.551 143.033 617.725 143.5C617.898 143.953 618.138 144.353 618.445 144.7C618.751 145.033 619.118 145.293 619.545 145.48C619.985 145.667 620.465 145.76 620.985 145.76ZM631.577 147.28C629.497 147.28 628.063 146.367 627.277 144.54L628.677 143.94C629.21 145.233 630.177 145.88 631.577 145.88C632.31 145.88 632.897 145.727 633.337 145.42C633.79 145.1 634.017 144.673 634.017 144.14C634.017 143.633 633.83 143.24 633.457 142.96C633.083 142.667 632.597 142.52 631.997 142.52H629.877V141.1H631.997C632.543 141.1 632.977 140.98 633.297 140.74C633.63 140.487 633.797 140.147 633.797 139.72C633.797 139.253 633.597 138.873 633.197 138.58C632.81 138.273 632.277 138.12 631.597 138.12C630.33 138.12 629.443 138.7 628.937 139.86L627.557 139.24C627.943 138.4 628.483 137.773 629.177 137.36C629.87 136.933 630.697 136.72 631.657 136.72C632.777 136.72 633.663 136.987 634.317 137.52C634.97 138.04 635.297 138.733 635.297 139.6C635.297 140.667 634.79 141.4 633.777 141.8C634.337 141.973 634.77 142.273 635.077 142.7C635.383 143.113 635.537 143.62 635.537 144.22C635.537 144.687 635.437 145.113 635.237 145.5C635.05 145.873 634.783 146.193 634.437 146.46C634.09 146.727 633.67 146.927 633.177 147.06C632.697 147.207 632.163 147.28 631.577 147.28ZM640.796 141.22C640.796 142.953 640.522 144.6 639.976 146.16C639.442 147.72 638.636 149.167 637.556 150.5L636.376 149.56C637.269 148.333 637.969 147.047 638.476 145.7C638.982 144.353 639.236 142.86 639.236 141.22C639.236 139.58 638.982 138.087 638.476 136.74C637.969 135.393 637.269 134.107 636.376 132.88L637.556 131.94C638.636 133.273 639.442 134.72 639.976 136.28C640.522 137.84 640.796 139.487 640.796 141.22Z" fill="#E7E3DA" fill-opacity="0.5"/>
<path d="M553.744 177.384C552.24 177.384 550.976 177.048 549.952 176.376C548.928 175.688 548.136 174.688 547.576 173.376L549.328 172.512C549.808 173.6 550.408 174.376 551.128 174.84C551.864 175.304 552.736 175.536 553.744 175.536C554.992 175.536 555.992 175.24 556.744 174.648C557.496 174.056 557.872 173.256 557.872 172.248C557.872 171.352 557.576 170.632 556.984 170.088C556.408 169.544 555.64 169.272 554.68 169.272H551.344V167.424H554.608C555.472 167.424 556.176 167.176 556.72 166.68C557.264 166.168 557.536 165.496 557.536 164.664C557.536 163.768 557.208 163.048 556.552 162.504C555.912 161.944 555.016 161.664 553.864 161.664C552.904 161.664 552.08 161.88 551.392 162.312C550.72 162.744 550.152 163.4 549.688 164.28L548.008 163.368C548.584 162.216 549.368 161.336 550.36 160.728C551.368 160.12 552.552 159.816 553.912 159.816C554.744 159.816 555.504 159.928 556.192 160.152C556.88 160.376 557.464 160.696 557.944 161.112C558.44 161.528 558.824 162.024 559.096 162.6C559.368 163.176 559.504 163.816 559.504 164.52C559.504 165.416 559.288 166.184 558.856 166.824C558.44 167.464 557.864 167.944 557.128 168.264C557.992 168.616 558.656 169.136 559.12 169.824C559.6 170.512 559.84 171.336 559.84 172.296C559.84 173.048 559.688 173.736 559.384 174.36C559.096 174.984 558.688 175.52 558.16 175.968C557.632 176.416 556.992 176.76 556.24 177C555.488 177.256 554.656 177.384 553.744 177.384ZM570.833 162.072H561.929V160.2H572.921V162.096L566.273 177H564.161L570.833 162.072ZM574.941 175.632C574.941 175.216 575.077 174.872 575.349 174.6C575.637 174.312 575.989 174.168 576.405 174.168C576.821 174.168 577.165 174.312 577.437 174.6C577.725 174.872 577.869 175.216 577.869 175.632C577.869 176.048 577.725 176.4 577.437 176.688C577.165 176.96 576.821 177.096 576.405 177.096C575.989 177.096 575.637 176.96 575.349 176.688C575.077 176.4 574.941 176.048 574.941 175.632ZM581.992 170.976H588.256V162.624L581.992 170.976ZM588.256 177V172.8H580.024V170.592L587.896 160.2H590.176V170.976H592.648V172.8H590.176V177H588.256ZM608.223 172.992L612.135 165H614.535V177H612.663V167.88L608.967 175.344H607.431L603.735 167.88V177H601.863V165H604.311L608.223 172.992ZM616.928 175.176H617.216C617.632 175.176 617.976 175.088 618.248 174.912C618.52 174.736 618.728 174.432 618.872 174C619.032 173.552 619.144 172.96 619.208 172.224C619.272 171.472 619.304 170.536 619.304 169.416V165H628.016V177H626.072V166.8H621.224V169.896C621.224 171.208 621.152 172.32 621.008 173.232C620.88 174.144 620.664 174.888 620.36 175.464C620.072 176.024 619.68 176.432 619.184 176.688C618.704 176.928 618.112 177.048 617.408 177.048H616.928V175.176ZM641.732 165V177H639.788V171.528H633.596V177H631.652V165H633.596V169.728H639.788V165H641.732Z" fill="#F1F2F1"/>
<path d="M684.406 102.22C684.406 100.487 684.673 98.84 685.206 97.28C685.753 95.72 686.566 94.2733 687.646 92.94L688.826 93.88C687.933 95.1067 687.233 96.3933 686.726 97.74C686.219 99.0867 685.966 100.58 685.966 102.22C685.966 103.86 686.219 105.353 686.726 106.7C687.233 108.047 687.933 109.333 688.826 110.56L687.646 111.5C686.566 110.167 685.753 108.72 685.206 107.16C684.673 105.6 684.406 103.953 684.406 102.22ZM690.585 98H698.985V108H697.365V99.5H692.205V108H690.585V98ZM707.131 106.76C707.651 106.76 708.124 106.667 708.551 106.48C708.977 106.293 709.344 106.033 709.651 105.7C709.957 105.353 710.191 104.953 710.351 104.5C710.524 104.033 710.611 103.533 710.611 103C710.611 102.453 710.524 101.953 710.351 101.5C710.191 101.047 709.957 100.653 709.651 100.32C709.344 99.9733 708.977 99.7067 708.551 99.52C708.124 99.3333 707.651 99.24 707.131 99.24C706.611 99.24 706.137 99.3333 705.711 99.52C705.284 99.7067 704.917 99.9733 704.611 100.32C704.304 100.653 704.064 101.047 703.891 101.5C703.731 101.953 703.651 102.453 703.651 103C703.651 103.533 703.731 104.033 703.891 104.5C704.064 104.953 704.304 105.353 704.611 105.7C704.917 106.033 705.284 106.293 705.711 106.48C706.137 106.667 706.611 106.76 707.131 106.76ZM707.351 108.28C706.551 108.28 705.831 108.107 705.191 107.76C704.564 107.413 704.051 106.927 703.651 106.3V112H702.031V98H703.651V99.7C704.051 99.0733 704.564 98.5867 705.191 98.24C705.831 97.8933 706.551 97.72 707.351 97.72C708.044 97.72 708.691 97.8533 709.291 98.12C709.891 98.3867 710.411 98.7533 710.851 99.22C711.291 99.6867 711.631 100.247 711.871 100.9C712.124 101.54 712.251 102.24 712.251 103C712.251 103.76 712.124 104.467 711.871 105.12C711.631 105.76 711.291 106.313 710.851 106.78C710.411 107.247 709.891 107.613 709.291 107.88C708.691 108.147 708.044 108.28 707.351 108.28ZM719.324 108.28C718.564 108.28 717.871 108.147 717.244 107.88C716.618 107.613 716.071 107.247 715.604 106.78C715.151 106.3 714.798 105.74 714.544 105.1C714.291 104.447 714.164 103.747 714.164 103C714.164 102.253 714.291 101.56 714.544 100.92C714.798 100.267 715.151 99.7067 715.604 99.24C716.071 98.76 716.618 98.3867 717.244 98.12C717.871 97.8533 718.564 97.72 719.324 97.72C720.084 97.72 720.778 97.8533 721.404 98.12C722.031 98.3867 722.571 98.76 723.024 99.24C723.491 99.7067 723.851 100.267 724.104 100.92C724.358 101.56 724.484 102.253 724.484 103C724.484 103.747 724.358 104.447 724.104 105.1C723.851 105.74 723.491 106.3 723.024 106.78C722.571 107.247 722.031 107.613 721.404 107.88C720.778 108.147 720.084 108.28 719.324 108.28ZM719.324 106.76C719.844 106.76 720.318 106.667 720.744 106.48C721.184 106.293 721.558 106.033 721.864 105.7C722.171 105.353 722.411 104.953 722.584 104.5C722.758 104.033 722.844 103.533 722.844 103C722.844 102.453 722.758 101.953 722.584 101.5C722.411 101.047 722.171 100.653 721.864 100.32C721.558 99.9733 721.184 99.7067 720.744 99.52C720.318 99.3333 719.844 99.24 719.324 99.24C718.804 99.24 718.324 99.3333 717.884 99.52C717.458 99.7067 717.091 99.9733 716.784 100.32C716.478 100.653 716.238 101.047 716.064 101.5C715.891 101.953 715.804 102.453 715.804 103C715.804 103.533 715.891 104.033 716.064 104.5C716.238 104.953 716.478 105.353 716.784 105.7C717.091 106.033 717.458 106.293 717.884 106.48C718.324 106.667 718.804 106.76 719.324 106.76ZM726.952 98H733.072V99.5H728.572V108H726.952V98ZM743.399 98V108H741.779V103.44H736.619V108H734.999V98H736.619V101.94H741.779V98H743.399ZM750.985 108.28C750.225 108.28 749.531 108.147 748.905 107.88C748.278 107.613 747.731 107.247 747.265 106.78C746.811 106.3 746.458 105.74 746.205 105.1C745.951 104.447 745.825 103.747 745.825 103C745.825 102.253 745.951 101.56 746.205 100.92C746.458 100.267 746.811 99.7067 747.265 99.24C747.731 98.76 748.278 98.3867 748.905 98.12C749.531 97.8533 750.225 97.72 750.985 97.72C751.745 97.72 752.438 97.8533 753.065 98.12C753.691 98.3867 754.231 98.76 754.685 99.24C755.151 99.7067 755.511 100.267 755.765 100.92C756.018 101.56 756.145 102.253 756.145 103C756.145 103.747 756.018 104.447 755.765 105.1C755.511 105.74 755.151 106.3 754.685 106.78C754.231 107.247 753.691 107.613 753.065 107.88C752.438 108.147 751.745 108.28 750.985 108.28ZM750.985 106.76C751.505 106.76 751.978 106.667 752.405 106.48C752.845 106.293 753.218 106.033 753.525 105.7C753.831 105.353 754.071 104.953 754.245 104.5C754.418 104.033 754.505 103.533 754.505 103C754.505 102.453 754.418 101.953 754.245 101.5C754.071 101.047 753.831 100.653 753.525 100.32C753.218 99.9733 752.845 99.7067 752.405 99.52C751.978 99.3333 751.505 99.24 750.985 99.24C750.465 99.24 749.985 99.3333 749.545 99.52C749.118 99.7067 748.751 99.9733 748.445 100.32C748.138 100.653 747.898 101.047 747.725 101.5C747.551 101.953 747.465 102.453 747.465 103C747.465 103.533 747.551 104.033 747.725 104.5C747.898 104.953 748.138 105.353 748.445 105.7C748.751 106.033 749.118 106.293 749.545 106.48C749.985 106.667 750.465 106.76 750.985 106.76ZM761.577 108.28C759.497 108.28 758.063 107.367 757.277 105.54L758.677 104.94C759.21 106.233 760.177 106.88 761.577 106.88C762.31 106.88 762.897 106.727 763.337 106.42C763.79 106.1 764.017 105.673 764.017 105.14C764.017 104.633 763.83 104.24 763.457 103.96C763.083 103.667 762.597 103.52 761.997 103.52H759.877V102.1H761.997C762.543 102.1 762.977 101.98 763.297 101.74C763.63 101.487 763.797 101.147 763.797 100.72C763.797 100.253 763.597 99.8733 763.197 99.58C762.81 99.2733 762.277 99.12 761.597 99.12C760.33 99.12 759.443 99.7 758.937 100.86L757.557 100.24C757.943 99.4 758.483 98.7733 759.177 98.36C759.87 97.9333 760.697 97.72 761.657 97.72C762.777 97.72 763.663 97.9867 764.317 98.52C764.97 99.04 765.297 99.7333 765.297 100.6C765.297 101.667 764.79 102.4 763.777 102.8C764.337 102.973 764.77 103.273 765.077 103.7C765.383 104.113 765.537 104.62 765.537 105.22C765.537 105.687 765.437 106.113 765.237 106.5C765.05 106.873 764.783 107.193 764.437 107.46C764.09 107.727 763.67 107.927 763.177 108.06C762.697 108.207 762.163 108.28 761.577 108.28ZM770.796 102.22C770.796 103.953 770.522 105.6 769.976 107.16C769.442 108.72 768.636 110.167 767.556 111.5L766.376 110.56C767.269 109.333 767.969 108.047 768.476 106.7C768.982 105.353 769.236 103.86 769.236 102.22C769.236 100.58 768.982 99.0867 768.476 97.74C767.969 96.3933 767.269 95.1067 766.376 93.88L767.556 92.94C768.636 94.2733 769.442 95.72 769.976 97.28C770.522 98.84 770.796 100.487 770.796 102.22Z" fill="#E7E3DA" fill-opacity="0.5"/>
<path d="M679.476 131.976H685.74V123.624L679.476 131.976ZM685.74 138V133.8H677.508V131.592L685.38 121.2H687.66V131.976H690.132V133.8H687.66V138H685.74ZM697.745 138.384C696.465 138.384 695.337 138.112 694.361 137.568C693.401 137.008 692.633 136.176 692.057 135.072L693.689 134.112C694.633 135.744 695.985 136.56 697.745 136.56C698.353 136.56 698.905 136.472 699.401 136.296C699.913 136.104 700.345 135.84 700.697 135.504C701.065 135.168 701.345 134.76 701.537 134.28C701.729 133.8 701.825 133.272 701.825 132.696C701.825 131.544 701.465 130.632 700.745 129.96C700.025 129.288 699.041 128.952 697.793 128.952C696.337 128.952 695.193 129.472 694.361 130.512L692.777 129.936L693.233 121.2H702.833V123.024H695.009L694.721 128.16C695.681 127.488 696.825 127.152 698.153 127.152C699.001 127.152 699.769 127.288 700.457 127.56C701.161 127.816 701.753 128.184 702.233 128.664C702.729 129.144 703.105 129.728 703.361 130.416C703.633 131.088 703.769 131.84 703.769 132.672C703.769 133.536 703.625 134.32 703.337 135.024C703.049 135.728 702.641 136.328 702.113 136.824C701.601 137.32 700.969 137.704 700.217 137.976C699.481 138.248 698.657 138.384 697.745 138.384ZM706.129 136.632C706.129 136.216 706.265 135.872 706.537 135.6C706.825 135.312 707.177 135.168 707.593 135.168C708.009 135.168 708.353 135.312 708.625 135.6C708.913 135.872 709.057 136.216 709.057 136.632C709.057 137.048 708.913 137.4 708.625 137.688C708.353 137.96 708.009 138.096 707.593 138.096C707.177 138.096 706.825 137.96 706.537 137.688C706.265 137.4 706.129 137.048 706.129 136.632ZM711.091 138V135.864L717.643 130.584C718.651 129.768 719.379 129 719.827 128.28C720.291 127.56 720.523 126.816 720.523 126.048C720.523 125.04 720.187 124.224 719.515 123.6C718.859 122.976 717.979 122.664 716.875 122.664C715.915 122.664 715.091 122.92 714.403 123.432C713.731 123.944 713.187 124.696 712.771 125.688L710.947 125.016C711.459 123.656 712.219 122.616 713.227 121.896C714.235 121.176 715.451 120.816 716.875 120.816C717.723 120.816 718.491 120.944 719.179 121.2C719.867 121.456 720.451 121.816 720.931 122.28C721.427 122.728 721.803 123.272 722.059 123.912C722.331 124.552 722.467 125.264 722.467 126.048C722.467 127.136 722.187 128.144 721.627 129.072C721.067 130 720.147 130.976 718.867 132L713.587 136.2H722.755V138H711.091ZM738.332 133.992L742.244 126H744.644V138H742.772V128.88L739.076 136.344H737.54L733.844 128.88V138H731.972V126H734.42L738.332 133.992ZM747.037 136.176H747.325C747.741 136.176 748.085 136.088 748.357 135.912C748.629 135.736 748.837 135.432 748.981 135C749.141 134.552 749.253 133.96 749.317 133.224C749.381 132.472 749.413 131.536 749.413 130.416V126H758.125V138H756.181V127.8H751.333V130.896C751.333 132.208 751.261 133.32 751.117 134.232C750.989 135.144 750.773 135.888 750.469 136.464C750.181 137.024 749.789 137.432 749.293 137.688C748.813 137.928 748.221 138.048 747.517 138.048H747.037V136.176ZM771.842 126V138H769.898V132.528H763.706V138H761.762V126H763.706V130.728H769.898V126H771.842Z" fill="#F1F2F1"/>
<path d="M816.406 52.22C816.406 50.4867 816.673 48.84 817.206 47.28C817.753 45.72 818.566 44.2733 819.646 42.94L820.826 43.88C819.933 45.1067 819.233 46.3933 818.726 47.74C818.219 49.0867 817.966 50.58 817.966 52.22C817.966 53.86 818.219 55.3533 818.726 56.7C819.233 58.0467 819.933 59.3333 820.826 60.56L819.646 61.5C818.566 60.1667 817.753 58.72 817.206 57.16C816.673 55.6 816.406 53.9533 816.406 52.22ZM822.585 48H830.985V58H829.365V49.5H824.205V58H822.585V48ZM839.131 56.76C839.651 56.76 840.124 56.6667 840.551 56.48C840.977 56.2933 841.344 56.0333 841.651 55.7C841.957 55.3533 842.191 54.9533 842.351 54.5C842.524 54.0333 842.611 53.5333 842.611 53C842.611 52.4533 842.524 51.9533 842.351 51.5C842.191 51.0467 841.957 50.6533 841.651 50.32C841.344 49.9733 840.977 49.7067 840.551 49.52C840.124 49.3333 839.651 49.24 839.131 49.24C838.611 49.24 838.137 49.3333 837.711 49.52C837.284 49.7067 836.917 49.9733 836.611 50.32C836.304 50.6533 836.064 51.0467 835.891 51.5C835.731 51.9533 835.651 52.4533 835.651 53C835.651 53.5333 835.731 54.0333 835.891 54.5C836.064 54.9533 836.304 55.3533 836.611 55.7C836.917 56.0333 837.284 56.2933 837.711 56.48C838.137 56.6667 838.611 56.76 839.131 56.76ZM839.351 58.28C838.551 58.28 837.831 58.1067 837.191 57.76C836.564 57.4133 836.051 56.9267 835.651 56.3V62H834.031V48H835.651V49.7C836.051 49.0733 836.564 48.5867 837.191 48.24C837.831 47.8933 838.551 47.72 839.351 47.72C840.044 47.72 840.691 47.8533 841.291 48.12C841.891 48.3867 842.411 48.7533 842.851 49.22C843.291 49.6867 843.631 50.2467 843.871 50.9C844.124 51.54 844.251 52.24 844.251 53C844.251 53.76 844.124 54.4667 843.871 55.12C843.631 55.76 843.291 56.3133 842.851 56.78C842.411 57.2467 841.891 57.6133 841.291 57.88C840.691 58.1467 840.044 58.28 839.351 58.28ZM851.324 58.28C850.564 58.28 849.871 58.1467 849.244 57.88C848.618 57.6133 848.071 57.2467 847.604 56.78C847.151 56.3 846.798 55.74 846.544 55.1C846.291 54.4467 846.164 53.7467 846.164 53C846.164 52.2533 846.291 51.56 846.544 50.92C846.798 50.2667 847.151 49.7067 847.604 49.24C848.071 48.76 848.618 48.3867 849.244 48.12C849.871 47.8533 850.564 47.72 851.324 47.72C852.084 47.72 852.778 47.8533 853.404 48.12C854.031 48.3867 854.571 48.76 855.024 49.24C855.491 49.7067 855.851 50.2667 856.104 50.92C856.358 51.56 856.484 52.2533 856.484 53C856.484 53.7467 856.358 54.4467 856.104 55.1C855.851 55.74 855.491 56.3 855.024 56.78C854.571 57.2467 854.031 57.6133 853.404 57.88C852.778 58.1467 852.084 58.28 851.324 58.28ZM851.324 56.76C851.844 56.76 852.318 56.6667 852.744 56.48C853.184 56.2933 853.558 56.0333 853.864 55.7C854.171 55.3533 854.411 54.9533 854.584 54.5C854.758 54.0333 854.844 53.5333 854.844 53C854.844 52.4533 854.758 51.9533 854.584 51.5C854.411 51.0467 854.171 50.6533 853.864 50.32C853.558 49.9733 853.184 49.7067 852.744 49.52C852.318 49.3333 851.844 49.24 851.324 49.24C850.804 49.24 850.324 49.3333 849.884 49.52C849.458 49.7067 849.091 49.9733 848.784 50.32C848.478 50.6533 848.238 51.0467 848.064 51.5C847.891 51.9533 847.804 52.4533 847.804 53C847.804 53.5333 847.891 54.0333 848.064 54.5C848.238 54.9533 848.478 55.3533 848.784 55.7C849.091 56.0333 849.458 56.2933 849.884 56.48C850.324 56.6667 850.804 56.76 851.324 56.76ZM858.952 48H865.072V49.5H860.572V58H858.952V48ZM875.399 48V58H873.779V53.44H868.619V58H866.999V48H868.619V51.94H873.779V48H875.399ZM882.985 58.28C882.225 58.28 881.531 58.1467 880.905 57.88C880.278 57.6133 879.731 57.2467 879.265 56.78C878.811 56.3 878.458 55.74 878.205 55.1C877.951 54.4467 877.825 53.7467 877.825 53C877.825 52.2533 877.951 51.56 878.205 50.92C878.458 50.2667 878.811 49.7067 879.265 49.24C879.731 48.76 880.278 48.3867 880.905 48.12C881.531 47.8533 882.225 47.72 882.985 47.72C883.745 47.72 884.438 47.8533 885.065 48.12C885.691 48.3867 886.231 48.76 886.685 49.24C887.151 49.7067 887.511 50.2667 887.765 50.92C888.018 51.56 888.145 52.2533 888.145 53C888.145 53.7467 888.018 54.4467 887.765 55.1C887.511 55.74 887.151 56.3 886.685 56.78C886.231 57.2467 885.691 57.6133 885.065 57.88C884.438 58.1467 883.745 58.28 882.985 58.28ZM882.985 56.76C883.505 56.76 883.978 56.6667 884.405 56.48C884.845 56.2933 885.218 56.0333 885.525 55.7C885.831 55.3533 886.071 54.9533 886.245 54.5C886.418 54.0333 886.505 53.5333 886.505 53C886.505 52.4533 886.418 51.9533 886.245 51.5C886.071 51.0467 885.831 50.6533 885.525 50.32C885.218 49.9733 884.845 49.7067 884.405 49.52C883.978 49.3333 883.505 49.24 882.985 49.24C882.465 49.24 881.985 49.3333 881.545 49.52C881.118 49.7067 880.751 49.9733 880.445 50.32C880.138 50.6533 879.898 51.0467 879.725 51.5C879.551 51.9533 879.465 52.4533 879.465 53C879.465 53.5333 879.551 54.0333 879.725 54.5C879.898 54.9533 880.138 55.3533 880.445 55.7C880.751 56.0333 881.118 56.2933 881.545 56.48C881.985 56.6667 882.465 56.76 882.985 56.76ZM893.577 58.28C891.497 58.28 890.063 57.3667 889.277 55.54L890.677 54.94C891.21 56.2333 892.177 56.88 893.577 56.88C894.31 56.88 894.897 56.7267 895.337 56.42C895.79 56.1 896.017 55.6733 896.017 55.14C896.017 54.6333 895.83 54.24 895.457 53.96C895.083 53.6667 894.597 53.52 893.997 53.52H891.877V52.1H893.997C894.543 52.1 894.977 51.98 895.297 51.74C895.63 51.4867 895.797 51.1467 895.797 50.72C895.797 50.2533 895.597 49.8733 895.197 49.58C894.81 49.2733 894.277 49.12 893.597 49.12C892.33 49.12 891.443 49.7 890.937 50.86L889.557 50.24C889.943 49.4 890.483 48.7733 891.177 48.36C891.87 47.9333 892.697 47.72 893.657 47.72C894.777 47.72 895.663 47.9867 896.317 48.52C896.97 49.04 897.297 49.7333 897.297 50.6C897.297 51.6667 896.79 52.4 895.777 52.8C896.337 52.9733 896.77 53.2733 897.077 53.7C897.383 54.1133 897.537 54.62 897.537 55.22C897.537 55.6867 897.437 56.1133 897.237 56.5C897.05 56.8733 896.783 57.1933 896.437 57.46C896.09 57.7267 895.67 57.9267 895.177 58.06C894.697 58.2067 894.163 58.28 893.577 58.28ZM902.796 52.22C902.796 53.9533 902.522 55.6 901.976 57.16C901.442 58.72 900.636 60.1667 899.556 61.5L898.376 60.56C899.269 59.3333 899.969 58.0467 900.476 56.7C900.982 55.3533 901.236 53.86 901.236 52.22C901.236 50.58 900.982 49.0867 900.476 47.74C899.969 46.3933 899.269 45.1067 898.376 43.88L899.556 42.94C900.636 44.2733 901.442 45.72 901.976 47.28C902.522 48.84 902.796 50.4867 902.796 52.22Z" fill="#E7E3DA" fill-opacity="0.5"/>
<path d="M824.956 88.384C823.676 88.384 822.548 88.112 821.572 87.568C820.612 87.008 819.844 86.176 819.268 85.072L820.9 84.112C821.844 85.744 823.196 86.56 824.956 86.56C825.564 86.56 826.116 86.472 826.612 86.296C827.124 86.104 827.556 85.84 827.908 85.504C828.276 85.168 828.556 84.76 828.748 84.28C828.94 83.8 829.036 83.272 829.036 82.696C829.036 81.544 828.676 80.632 827.956 79.96C827.236 79.288 826.252 78.952 825.004 78.952C823.548 78.952 822.404 79.472 821.572 80.512L819.988 79.936L820.444 71.2H830.044V73.024H822.22L821.932 78.16C822.892 77.488 824.036 77.152 825.364 77.152C826.212 77.152 826.98 77.288 827.668 77.56C828.372 77.816 828.964 78.184 829.444 78.664C829.94 79.144 830.316 79.728 830.572 80.416C830.844 81.088 830.98 81.84 830.98 82.672C830.98 83.536 830.836 84.32 830.548 85.024C830.26 85.728 829.852 86.328 829.324 86.824C828.812 87.32 828.18 87.704 827.428 87.976C826.692 88.248 825.868 88.384 824.956 88.384ZM833.076 88V85.864L839.628 80.584C840.636 79.768 841.364 79 841.812 78.28C842.276 77.56 842.508 76.816 842.508 76.048C842.508 75.04 842.172 74.224 841.5 73.6C840.844 72.976 839.964 72.664 838.86 72.664C837.9 72.664 837.076 72.92 836.388 73.432C835.716 73.944 835.172 74.696 834.756 75.688L832.932 75.016C833.444 73.656 834.204 72.616 835.212 71.896C836.22 71.176 837.436 70.816 838.86 70.816C839.708 70.816 840.476 70.944 841.164 71.2C841.852 71.456 842.436 71.816 842.916 72.28C843.412 72.728 843.788 73.272 844.044 73.912C844.316 74.552 844.452 75.264 844.452 76.048C844.452 77.136 844.172 78.144 843.612 79.072C843.052 80 842.132 80.976 840.852 82L835.572 86.2H844.74V88H833.076ZM860.317 83.992L864.229 76H866.629V88H864.757V78.88L861.061 86.344H859.525L855.829 78.88V88H853.957V76H856.405L860.317 83.992ZM869.021 86.176H869.309C869.725 86.176 870.069 86.088 870.341 85.912C870.613 85.736 870.821 85.432 870.965 85C871.125 84.552 871.237 83.96 871.301 83.224C871.365 82.472 871.397 81.536 871.397 80.416V76H880.109V88H878.165V77.8H873.317V80.896C873.317 82.208 873.245 83.32 873.101 84.232C872.973 85.144 872.757 85.888 872.453 86.464C872.165 87.024 871.773 87.432 871.277 87.688C870.797 87.928 870.205 88.048 869.501 88.048H869.021V86.176ZM893.826 76V88H891.882V82.528H885.69V88H883.746V76H885.69V80.728H891.882V76H893.826Z" fill="#F1F2F1"/>
<path d="M22.44 16H20.82L20.82 11.7C20.4467 11.98 20.0133 12.2 19.52 12.36C19.0267 12.5067 18.48 12.58 17.88 12.58C16.6 12.58 15.6467 12.2333 15.02 11.54C14.3933 10.8333 14.08 9.88 14.08 8.68L14.08 6H15.7L15.7 8.28C15.7 9.32 15.9133 10.0467 16.34 10.46C16.78 10.8733 17.36 11.08 18.08 11.08C18.6267 11.08 19.14 10.9867 19.62 10.8C20.1133 10.6133 20.5133 10.3667 20.82 10.06V6L22.44 6V16ZM27.097 6V13.64L32.357 6H33.997V16H32.377V8.36L27.117 16H25.477V6L27.097 6ZM36.4195 11C36.4195 10.24 36.5395 9.54 36.7795 8.9C37.0329 8.24667 37.3862 7.68667 37.8395 7.22C38.2929 6.75333 38.8329 6.38667 39.4595 6.12C40.0995 5.85333 40.8062 5.72 41.5795 5.72C42.5662 5.72 43.4262 5.94 44.1595 6.38C44.9062 6.80667 45.4929 7.44 45.9195 8.28L44.5395 9.06C43.9395 7.84667 42.9662 7.24 41.6195 7.24C41.0862 7.24 40.5995 7.33333 40.1595 7.52C39.7195 7.70667 39.3462 7.97333 39.0395 8.32C38.7329 8.65333 38.4929 9.04667 38.3195 9.5C38.1462 9.95333 38.0595 10.4533 38.0595 11C38.0595 11.5333 38.1462 12.0333 38.3195 12.5C38.4929 12.9533 38.7329 13.3533 39.0395 13.7C39.3462 14.0333 39.7129 14.2933 40.1395 14.48C40.5795 14.6667 41.0662 14.76 41.5995 14.76C42.2795 14.76 42.8662 14.6 43.3595 14.28C43.8662 13.96 44.2662 13.48 44.5595 12.84L45.9595 13.6C45.5329 14.48 44.9462 15.1467 44.1995 15.6C43.4529 16.0533 42.5795 16.28 41.5795 16.28C40.8062 16.28 40.0995 16.1467 39.4595 15.88C38.8329 15.6133 38.2929 15.2467 37.8395 14.78C37.3862 14.3133 37.0329 13.76 36.7795 13.12C36.5395 12.4667 36.4195 11.76 36.4195 11ZM47.2105 14.48H47.4505C47.7971 14.48 48.0838 14.4067 48.3105 14.26C48.5371 14.1133 48.7105 13.86 48.8305 13.5C48.9638 13.1267 49.0571 12.6333 49.1105 12.02C49.1638 11.3933 49.1905 10.6133 49.1905 9.68V6L56.4505 6V16H54.8305V7.5L50.7905 7.5V10.08C50.7905 11.1733 50.7305 12.1 50.6105 12.86C50.5038 13.62 50.3238 14.24 50.0705 14.72C49.8305 15.1867 49.5038 15.5267 49.0905 15.74C48.6905 15.94 48.1971 16.04 47.6105 16.04H47.2105V14.48ZM64.0209 16.28C63.2609 16.28 62.5676 16.1467 61.9409 15.88C61.3143 15.6133 60.7676 15.2467 60.3009 14.78C59.8476 14.3 59.4943 13.74 59.2409 13.1C58.9876 12.4467 58.8609 11.7467 58.8609 11C58.8609 10.2533 58.9876 9.56 59.2409 8.92C59.4943 8.26667 59.8476 7.70667 60.3009 7.24C60.7676 6.76 61.3143 6.38667 61.9409 6.12C62.5676 5.85333 63.2609 5.72 64.0209 5.72C64.7809 5.72 65.4743 5.85333 66.1009 6.12C66.7276 6.38667 67.2676 6.76 67.7209 7.24C68.1876 7.70667 68.5476 8.26667 68.8009 8.92C69.0543 9.56 69.1809 10.2533 69.1809 11C69.1809 11.7467 69.0543 12.4467 68.8009 13.1C68.5476 13.74 68.1876 14.3 67.7209 14.78C67.2676 15.2467 66.7276 15.6133 66.1009 15.88C65.4743 16.1467 64.7809 16.28 64.0209 16.28ZM64.0209 14.76C64.5409 14.76 65.0143 14.6667 65.4409 14.48C65.8809 14.2933 66.2543 14.0333 66.5609 13.7C66.8676 13.3533 67.1076 12.9533 67.2809 12.5C67.4543 12.0333 67.5409 11.5333 67.5409 11C67.5409 10.4533 67.4543 9.95333 67.2809 9.5C67.1076 9.04667 66.8676 8.65333 66.5609 8.32C66.2543 7.97333 65.8809 7.70667 65.4409 7.52C65.0143 7.33333 64.5409 7.24 64.0209 7.24C63.5009 7.24 63.0209 7.33333 62.5809 7.52C62.1543 7.70667 61.7876 7.97333 61.4809 8.32C61.1743 8.65333 60.9343 9.04667 60.7609 9.5C60.5876 9.95333 60.5009 10.4533 60.5009 11C60.5009 11.5333 60.5876 12.0333 60.7609 12.5C60.9343 12.9533 61.1743 13.3533 61.4809 13.7C61.7876 14.0333 62.1543 14.2933 62.5809 14.48C63.0209 14.6667 63.5009 14.76 64.0209 14.76ZM21.88 22V23.48H18.44L18.44 32H16.84L16.84 23.48H13.4V22H21.88ZM24.9373 36L26.5773 31.82L22.6573 22L24.3773 22L27.3973 29.78L30.2773 22H31.9773L26.6173 36H24.9373ZM39.0145 30.76C39.5345 30.76 40.0079 30.6667 40.4345 30.48C40.8612 30.2933 41.2279 30.0333 41.5345 29.7C41.8412 29.3533 42.0745 28.9533 42.2345 28.5C42.4079 28.0333 42.4945 27.5333 42.4945 27C42.4945 26.4533 42.4079 25.9533 42.2345 25.5C42.0745 25.0467 41.8412 24.6533 41.5345 24.32C41.2279 23.9733 40.8612 23.7067 40.4345 23.52C40.0079 23.3333 39.5345 23.24 39.0145 23.24C38.4945 23.24 38.0212 23.3333 37.5945 23.52C37.1679 23.7067 36.8012 23.9733 36.4945 24.32C36.1879 24.6533 35.9479 25.0467 35.7745 25.5C35.6145 25.9533 35.5345 26.4533 35.5345 27C35.5345 27.5333 35.6145 28.0333 35.7745 28.5C35.9479 28.9533 36.1879 29.3533 36.4945 29.7C36.8012 30.0333 37.1679 30.2933 37.5945 30.48C38.0212 30.6667 38.4945 30.76 39.0145 30.76ZM39.2345 32.28C38.4345 32.28 37.7145 32.1067 37.0745 31.76C36.4479 31.4133 35.9345 30.9267 35.5345 30.3L35.5345 36L33.9145 36L33.9145 22H35.5345V23.7C35.9345 23.0733 36.4479 22.5867 37.0745 22.24C37.7145 21.8933 38.4345 21.72 39.2345 21.72C39.9279 21.72 40.5745 21.8533 41.1745 22.12C41.7745 22.3867 42.2945 22.7533 42.7345 23.22C43.1745 23.6867 43.5145 24.2467 43.7545 24.9C44.0079 25.54 44.1345 26.24 44.1345 27C44.1345 27.76 44.0079 28.4667 43.7545 29.12C43.5145 29.76 43.1745 30.3133 42.7345 30.78C42.2945 31.2467 41.7745 31.6133 41.1745 31.88C40.5745 32.1467 39.9279 32.28 39.2345 32.28ZM48.2884 22L48.2884 29.64L53.5484 22H55.1884L55.1884 32H53.5684V24.36L48.3084 32H46.6684L46.6684 22H48.2884ZM57.6109 27C57.6109 26.24 57.7309 25.54 57.9709 24.9C58.2243 24.2467 58.5776 23.6867 59.0309 23.22C59.4843 22.7533 60.0243 22.3867 60.6509 22.12C61.2909 21.8533 61.9976 21.72 62.7709 21.72C63.7576 21.72 64.6176 21.94 65.3509 22.38C66.0976 22.8067 66.6843 23.44 67.1109 24.28L65.7309 25.06C65.1309 23.8467 64.1576 23.24 62.8109 23.24C62.2776 23.24 61.7909 23.3333 61.3509 23.52C60.9109 23.7067 60.5376 23.9733 60.2309 24.32C59.9243 24.6533 59.6843 25.0467 59.5109 25.5C59.3376 25.9533 59.2509 26.4533 59.2509 27C59.2509 27.5333 59.3376 28.0333 59.5109 28.5C59.6843 28.9533 59.9243 29.3533 60.2309 29.7C60.5376 30.0333 60.9043 30.2933 61.3309 30.48C61.7709 30.6667 62.2576 30.76 62.7909 30.76C63.4709 30.76 64.0576 30.6 64.5509 30.28C65.0576 29.96 65.4576 29.48 65.7509 28.84L67.1509 29.6C66.7243 30.48 66.1376 31.1467 65.3909 31.6C64.6443 32.0533 63.7709 32.28 62.7709 32.28C61.9976 32.28 61.2909 32.1467 60.6509 31.88C60.0243 31.6133 59.4843 31.2467 59.0309 30.78C58.5776 30.3133 58.2243 29.76 57.9709 29.12C57.7309 28.4667 57.6109 27.76 57.6109 27ZM76.4894 22V23.48H73.0494V32H71.4494V23.48L68.0094 23.48V22L76.4894 22ZM82.6733 32.28C81.9133 32.28 81.2199 32.1467 80.5933 31.88C79.9666 31.6133 79.4199 31.2467 78.9533 30.78C78.4999 30.3 78.1466 29.74 77.8933 29.1C77.6399 28.4467 77.5133 27.7467 77.5133 27C77.5133 26.2533 77.6399 25.56 77.8933 24.92C78.1466 24.2667 78.4999 23.7067 78.9533 23.24C79.4199 22.76 79.9666 22.3867 80.5933 22.12C81.2199 21.8533 81.9133 21.72 82.6733 21.72C83.4333 21.72 84.1266 21.8533 84.7533 22.12C85.3799 22.3867 85.9199 22.76 86.3733 23.24C86.8399 23.7067 87.1999 24.2667 87.4533 24.92C87.7066 25.56 87.8333 26.2533 87.8333 27C87.8333 27.7467 87.7066 28.4467 87.4533 29.1C87.1999 29.74 86.8399 30.3 86.3733 30.78C85.9199 31.2467 85.3799 31.6133 84.7533 31.88C84.1266 32.1467 83.4333 32.28 82.6733 32.28ZM82.6733 30.76C83.1933 30.76 83.6666 30.6667 84.0933 30.48C84.5333 30.2933 84.9066 30.0333 85.2133 29.7C85.5199 29.3533 85.7599 28.9533 85.9333 28.5C86.1066 28.0333 86.1933 27.5333 86.1933 27C86.1933 26.4533 86.1066 25.9533 85.9333 25.5C85.7599 25.0467 85.5199 24.6533 85.2133 24.32C84.9066 23.9733 84.5333 23.7067 84.0933 23.52C83.6666 23.3333 83.1933 23.24 82.6733 23.24C82.1533 23.24 81.6733 23.3333 81.2333 23.52C80.8066 23.7067 80.4399 23.9733 80.1333 24.32C79.8266 24.6533 79.5866 25.0467 79.4133 25.5C79.2399 25.9533 79.1533 26.4533 79.1533 27C79.1533 27.5333 79.2399 28.0333 79.4133 28.5C79.5866 28.9533 79.8266 29.3533 80.1333 29.7C80.4399 30.0333 80.8066 30.2933 81.2333 30.48C81.6733 30.6667 82.1533 30.76 82.6733 30.76ZM91.8213 30.6H94.9413C95.4079 30.6 95.7946 30.4667 96.1013 30.2C96.4213 29.9333 96.5813 29.5467 96.5813 29.04C96.5813 28.5467 96.4213 28.1667 96.1013 27.9C95.7946 27.62 95.4079 27.48 94.9413 27.48H91.8213V30.6ZM91.8213 26.12H94.7813C95.2213 26.12 95.5679 25.9933 95.8213 25.74C96.0746 25.4867 96.2013 25.16 96.2013 24.76C96.2013 24.3733 96.0746 24.0533 95.8213 23.8C95.5679 23.5333 95.2213 23.4 94.7813 23.4H91.8213V26.12ZM90.3013 32V22L94.8213 22C95.7013 22 96.4079 22.24 96.9413 22.72C97.4746 23.2 97.7413 23.8333 97.7413 24.62C97.7413 25.1267 97.6146 25.56 97.3613 25.92C97.1213 26.2667 96.7879 26.5333 96.3613 26.72C96.9213 26.88 97.3546 27.18 97.6613 27.62C97.9813 28.0467 98.1413 28.58 98.1413 29.22C98.1413 30.06 97.8546 30.7333 97.2813 31.24C96.7079 31.7467 95.9413 32 94.9813 32H90.3013Z" fill="#D6783D"/>
</svg>
