<svg width="32" height="32" fill="none" xmlns="http://www.w3.org/2000/svg"><g clip-path="url(#a)"><path fill-rule="evenodd" clip-rule="evenodd" d="M16.064 31.852h-.127c-6.355 0-10.07-.635-12.657-3.157C.614 25.995 0 22.327 0 16.038v-.178C0 9.57.614 5.878 3.28 3.203 5.892.683 9.582.046 15.935.046h.129c6.327 0 10.042.637 12.656 3.157C31.386 5.903 32 9.571 32 15.86v.178c0 6.291-.616 9.984-3.28 12.657-2.614 2.52-6.302 3.157-12.656 3.157Zm12.05-16.375a.234.234 0 0 1 .223.23h-.002v.513c0 .125-.1.226-.223.23-4.427.167-7.119.726-9.005 2.601-1.885 1.874-2.448 4.546-2.617 8.939a.234.234 0 0 1-.232.222h-.518a.231.231 0 0 1-.231-.223c-.17-4.392-.733-7.064-2.617-8.938-1.885-1.873-4.58-2.434-9.006-2.6a.234.234 0 0 1-.223-.23v-.514c0-.125.1-.226.223-.23 4.427-.167 7.119-.726 9.006-2.601 1.888-1.878 2.45-4.56 2.619-8.967a.234.234 0 0 1 .23-.222h.517c.126 0 .228.1.232.222.167 4.41.73 7.09 2.618 8.967 1.885 1.873 4.58 2.434 9.006 2.6Z" fill="#F1F2F1"/></g><defs><clipPath id="a"><path fill="#fff" d="M0 0h32v32H0z"/></clipPath></defs></svg>