<svg width="185" height="60" fill="none" xmlns="http://www.w3.org/2000/svg"><g clip-path="url(#a)" fill="#F1F2F1"><path fill-rule="evenodd" clip-rule="evenodd" d="M41.83 28.241V9.702c0-.321.01-.935-.106-1.244-.365-.967-1.209-1.186-2.405-.86-.154.043-.804.39-.942.466L21.07 17.546 3.765 8.064c-.138-.076-.788-.423-.942-.465-1.196-.327-2.04-.106-2.405.86-.119.31-.106.924-.106 1.243v32.103L21.07 52.508l20.76-10.703V28.24Zm-41.513.003 20.754-10.7 20.754 10.7-20.754 10.703L.317 28.244Z"/><path d="M84.782 7.455V29.66h-3.739V8.639l1.217.06-10.356 20.96H67.72L57.365 8.729l1.216-.06v20.99h-3.738V7.455h5.993l9.97 20.515h-1.96l9.94-20.515h5.996ZM93.722 18.724v9.663l-2.593-2.106H108.4v3.375H89.983v-22.2h18.268v3.374H91.129l2.593-2.224v10.118Zm13.819-1.794v3.256H91.994V16.93h15.547ZM110.062 7.455h22.314v3.433h-22.314V7.455Zm9.2 1.807h3.917v20.396h-3.917V9.262ZM147.125 7.455c1.662 0 3.1.297 4.317.887 1.214.593 2.156 1.418 2.819 2.473.662 1.056.992 2.274.992 3.657 0 1.382-.33 2.6-.992 3.656-.663 1.056-1.602 1.88-2.819 2.473-1.217.593-2.657.887-4.317.887h-10.001v-3.375h9.852c1.345 0 2.398-.326 3.159-.977.761-.651 1.141-1.538 1.141-2.664 0-1.126-.38-2.013-1.141-2.664-.761-.651-1.814-.978-3.159-.978h-9.464l1.751-1.955v20.781h-3.917V7.453h11.779v.002ZM158.458 29.658V7.455h3.917v20.781l-1.751-1.747h9.315c1.365 0 2.444-.351 3.235-1.05.791-.701 1.186-1.634 1.186-2.797 0-1.184-.395-2.126-1.186-2.827-.791-.702-1.87-1.05-3.235-1.05h-9.703v-3.167h9.882c1.68 0 3.136.296 4.363.887 1.227.593 2.176 1.417 2.849 2.473.672 1.055 1.01 2.284 1.01 3.686 0 1.383-.338 2.601-1.01 3.657-.673 1.055-1.622 1.88-2.849 2.473s-2.68.887-4.363.887h-11.66v-.003Zm22.315-22.203h3.917v22.203h-3.917V7.455ZM54.843 40.033h5.471v1.445H56.42v7.504h-1.577v-8.95ZM63.44 48.98h-1.536v-8.95h3.574c1.794 0 3.023 1.176 3.023 2.928 0 1.764-1.23 2.928-3.023 2.928H63.44v3.093Zm0-7.543v3.044h1.948c.921 0 1.536-.626 1.536-1.52 0-.895-.615-1.521-1.536-1.521H63.44v-.003ZM73.101 44.71l1.947-4.68h1.69l-3.96 8.95h-1.601l1.178-2.647-3.075-6.303h1.73l2.091 4.68ZM78.061 40.033h7.393v8.949h-1.576v-7.504h-4.255v7.504h-1.564v-8.95h.002ZM87.583 40.033h7.393v8.949h-1.577v-7.504h-4.255v7.504H87.58v-8.95h.003ZM99.563 40.033h1.678l3.254 8.949h-1.677l-.706-2.084h-3.458l-.706 2.084h-1.64l3.255-8.95Zm.821 1.789-1.254 3.707h2.511l-1.257-3.707ZM113.314 44.277l3.023 4.705h-1.846l-2.512-3.988h-1.204v3.988h-1.627v-8.95h1.627v3.58h1.255l2.486-3.58h1.806l-3.008 4.245ZM117.299 44.506c0-2.697 1.935-4.68 4.65-4.68 2.691 0 4.625 1.981 4.625 4.68 0 2.7-1.934 4.68-4.625 4.68-2.715 0-4.65-1.983-4.65-4.68Zm7.648-.013c0-1.842-1.229-3.171-2.985-3.171-1.806 0-3.051 1.33-3.051 3.171 0 1.865 1.242 3.197 3.051 3.197 1.756 0 2.985-1.33 2.985-3.197ZM133.111 45.848l2.703-5.818h2v8.95h-1.511v-6.751l-2.703 5.624h-1.013l-2.715-5.624v6.75h-1.499V40.03h2.038l2.7 5.818ZM140.006 40.033h7.393v8.949h-1.577v-7.504h-4.252v7.504h-1.564v-8.95ZM151.986 40.033h1.678l3.254 8.949h-1.677l-.706-2.084h-3.458l-.706 2.084h-1.64l3.255-8.95Zm.821 1.789-1.254 3.707h2.511l-1.257-3.707ZM158.253 40.033h1.577v3.49h4.152v-3.49h1.561v8.949h-1.561v-4.026h-4.152v4.026h-1.577v-8.95ZM173.554 48.98v-6.56l-4.176 6.56h-1.716v-8.95h1.577v6.56l4.164-6.56h1.715v8.95h-1.564ZM183.126 48.98v-6.56l-4.177 6.56h-1.715v-8.95h1.577v6.56l4.164-6.56h1.715v8.95h-1.564Zm-4.728-11.966h1.32c.063.55.513.933 1.241.933.731 0 1.192-.385 1.27-.933h1.307c-.141 1.227-1.088 1.996-2.577 1.996-1.473 0-2.408-.767-2.561-1.996Z"/></g><defs><clipPath id="a"><path fill="#fff" transform="translate(0 7.5)" d="M0 0h185v45H0z"/></clipPath></defs></svg>