<svg width="16" height="16" viewBox="0 0 16 16" fill="none" xmlns="http://www.w3.org/2000/svg">
<path fill-rule="evenodd" clip-rule="evenodd" d="M2.33317 3.33325C2.15636 3.33325 1.98679 3.40349 1.86177 3.52851C1.73674 3.65354 1.6665 3.82311 1.6665 3.99992C1.6665 4.17673 1.73674 4.3463 1.86177 4.47132C1.98679 4.59635 2.15636 4.66659 2.33317 4.66659L13.6665 4.66659C13.8433 4.66659 14.0129 4.59635 14.1379 4.47132C14.2629 4.3463 14.3332 4.17673 14.3332 3.99992C14.3332 3.82311 14.2629 3.65354 14.1379 3.52851C14.0129 3.40349 13.8433 3.33325 13.6665 3.33325L2.33317 3.33325ZM1.6665 7.99992C1.6665 7.82311 1.73674 7.65354 1.86177 7.52851C1.98679 7.40349 2.15636 7.33325 2.33317 7.33325L13.6665 7.33325C13.8433 7.33325 14.0129 7.40349 14.1379 7.52851C14.2629 7.65354 14.3332 7.82311 14.3332 7.99992C14.3332 8.17673 14.2629 8.3463 14.1379 8.47132C14.0129 8.59635 13.8433 8.66659 13.6665 8.66659H2.33317C2.15636 8.66659 1.98679 8.59635 1.86177 8.47132C1.73674 8.3463 1.6665 8.17673 1.6665 7.99992ZM1.6665 12.0006C1.6665 11.8238 1.73674 11.6542 1.86177 11.5292C1.98679 11.4042 2.15636 11.3339 2.33317 11.3339H13.6665C13.8433 11.3339 14.0129 11.4042 14.1379 11.5292C14.2629 11.6542 14.3332 11.8238 14.3332 12.0006C14.3332 12.1774 14.2629 12.347 14.1379 12.472C14.0129 12.597 13.8433 12.6673 13.6665 12.6673H2.33317C2.15636 12.6673 1.98679 12.597 1.86177 12.472C1.73674 12.347 1.6665 12.1774 1.6665 12.0006Z" fill="#1D1C1C"/>
</svg>
