<svg width="16" height="16" viewBox="0 0 16 16" fill="none" xmlns="http://www.w3.org/2000/svg">
<g clip-path="url(#clip0_1050_14978)">
<path d="M9.50116 1.5C9.50116 1.89782 9.34312 2.27936 9.06182 2.56066C8.78051 2.84196 8.39898 3 8.00116 3C7.60333 3 7.2218 2.84196 6.9405 2.56066C6.65919 2.27936 6.50116 1.89782 6.50116 1.5C6.50116 1.10218 6.65919 0.720644 6.9405 0.43934C7.2218 0.158035 7.60333 0 8.00116 0C8.39898 0 8.78051 0.158035 9.06182 0.43934C9.34312 0.720644 9.50116 1.10218 9.50116 1.5ZM6.44116 3.752C6.51143 3.67286 6.59766 3.60949 6.69418 3.56606C6.7907 3.52263 6.89532 3.50011 7.00116 3.5H8.44616C9.18816 3.5 9.76616 4.143 9.68916 4.88L9.25916 8.963C9.24476 9.09756 9.21524 9.23006 9.17116 9.358L8.85316 10.264L9.06616 10.506C9.11164 10.5591 9.14997 10.6179 9.18016 10.681L11.1802 14.931C11.2251 15.0205 11.2516 15.118 11.2583 15.218C11.2649 15.3179 11.2514 15.4181 11.2187 15.5127C11.186 15.6073 11.1347 15.6944 11.0677 15.7689C11.0008 15.8434 10.9196 15.9037 10.829 15.9463C10.7384 15.9889 10.6402 16.0129 10.5401 16.017C10.4401 16.021 10.3403 16.005 10.2465 15.9698C10.1528 15.9346 10.067 15.881 9.9943 15.8122C9.92159 15.7434 9.8634 15.6607 9.82316 15.569L7.86716 11.415L6.18716 9.494C6.05786 9.34709 5.99111 9.15545 6.00116 8.96L6.13916 6.347L5.70416 6.836L5.24016 9.622C5.20753 9.81826 5.09828 9.99352 4.93644 10.1092C4.7746 10.2249 4.57342 10.2716 4.37716 10.239C4.1809 10.2064 4.00563 10.0971 3.88992 9.93528C3.77421 9.77344 3.72753 9.57226 3.76016 9.376L4.26016 6.376C4.2836 6.23653 4.346 6.10653 4.44016 6.001L6.44016 3.751L6.44116 3.752Z" fill="white"/>
<path d="M6.25025 11.745V10.327L7.45425 11.702L7.71525 12.226C7.68813 12.309 7.64759 12.387 7.59525 12.457L5.09525 15.707C4.97405 15.8648 4.79512 15.968 4.59783 15.9939C4.40054 16.0197 4.20106 15.9662 4.04325 15.845C3.88545 15.7238 3.78226 15.5448 3.75638 15.3476C3.7305 15.1503 3.78405 14.9508 3.90525 14.793L6.25025 11.745ZM10.4703 7.52998L9.97625 7.03598L10.1813 5.19298L10.1873 5.12598L11.3113 6.24998H12.7513C12.9502 6.24998 13.1409 6.32899 13.2816 6.46965C13.4222 6.6103 13.5013 6.80106 13.5013 6.99998C13.5013 7.19889 13.4222 7.38965 13.2816 7.53031C13.1409 7.67096 12.9502 7.74998 12.7513 7.74998H11.0003C10.9016 7.75002 10.804 7.73061 10.7128 7.69286C10.6217 7.65511 10.5389 7.59976 10.4693 7.52998H10.4703Z" fill="white"/>
</g>
<defs>
<clipPath id="clip0_1050_14978">
<rect width="16" height="16" fill="white"/>
</clipPath>
</defs>
</svg>
