<svg width="24" height="24" fill="none" xmlns="http://www.w3.org/2000/svg"><path d="m15.65 14.83-.531.534s-1.264 1.265-4.711-2.191C6.96 9.717 8.224 8.451 8.224 8.451l.333-.337c.825-.826.903-2.153.184-3.122l-1.47-1.98c-.892-1.2-2.613-1.36-3.633-.336L1.806 4.512c-.505.508-.844 1.164-.803 1.894.105 1.867.943 5.882 5.614 10.567 4.955 4.967 9.604 5.165 11.505 4.986.602-.056 1.124-.365 1.546-.788l1.656-1.662c1.12-1.12.805-3.044-.628-3.829l-2.228-1.222c-.94-.514-2.083-.364-2.818.373Z" fill="#E7E3DA" fill-opacity=".5"/></svg>