<svg width="48" height="48" viewBox="0 0 48 48" fill="none" xmlns="http://www.w3.org/2000/svg">
<path d="M9.166 34.6425C7.106 32.4545 6 30.0005 6 26.0225C6 19.0225 10.914 12.7485 18.06 9.64648L19.846 12.4025C13.176 16.0105 11.872 20.6925 11.352 23.6445C12.426 23.0885 13.832 22.8945 15.21 23.0225C18.818 23.3565 21.662 26.3185 21.662 30.0005C21.662 31.857 20.9245 33.6375 19.6117 34.9502C18.299 36.263 16.5185 37.0005 14.662 37.0005C13.6353 36.9916 12.6206 36.7786 11.6771 36.3737C10.7335 35.9689 9.8799 35.3804 9.166 34.6425ZM29.166 34.6425C27.106 32.4545 26 30.0005 26 26.0225C26 19.0225 30.914 12.7485 38.06 9.64648L39.846 12.4025C33.176 16.0105 31.872 20.6925 31.352 23.6445C32.426 23.0885 33.832 22.8945 35.21 23.0225C38.818 23.3565 41.662 26.3185 41.662 30.0005C41.662 31.857 40.9245 33.6375 39.6117 34.9502C38.299 36.263 36.5185 37.0005 34.662 37.0005C33.6353 36.9916 32.6206 36.7786 31.6771 36.3737C30.7335 35.9689 29.8799 35.3804 29.166 34.6425Z" fill="#D6783D"/>
</svg>
