<svg width="24" height="24" viewBox="0 0 24 24" fill="none" xmlns="http://www.w3.org/2000/svg">
<g clip-path="url(#clip0_1050_14962)">
<path d="M19.9974 1.33325H3.33073C2.96254 1.33325 2.66406 1.63173 2.66406 1.99992V7.33325C2.66406 7.70144 2.96254 7.99992 3.33073 7.99992H19.9974C20.3656 7.99992 20.6641 7.70144 20.6641 7.33325V1.99992C20.6641 1.63173 20.3656 1.33325 19.9974 1.33325Z" fill="#D6783D"/>
<path d="M21.9974 4H21.3307V8.16L12.4707 10.9667C12.329 11.0095 12.2056 11.0982 12.1199 11.2189C12.0342 11.3396 11.9911 11.4854 11.9974 11.6333V12.6667H10.6641V22.6667C10.6641 22.8435 10.7343 23.013 10.8593 23.1381C10.9843 23.2631 11.1539 23.3333 11.3307 23.3333H13.9974C14.1742 23.3333 14.3438 23.2631 14.4688 23.1381C14.5938 23.013 14.6641 22.8435 14.6641 22.6667V12.6667H13.3307V12.12L22.1907 9.33333C22.3324 9.29054 22.4559 9.20179 22.5416 9.08108C22.6273 8.96037 22.6704 8.81457 22.6641 8.66667V4.66667C22.6641 4.48986 22.5938 4.32029 22.4688 4.19526C22.3438 4.07024 22.1742 4 21.9974 4Z" fill="#D6783D"/>
</g>
<defs>
<clipPath id="clip0_1050_14962">
<rect width="24" height="24" fill="white"/>
</clipPath>
</defs>
</svg>
