<svg width="1380" height="19" viewBox="0 0 1380 19" fill="none" xmlns="http://www.w3.org/2000/svg">
<g clip-path="url(#clip0_721_1630)">
<path d="M1387.96 8.91667C1388.48 8.19155 1384.06 8.6423 1381.92 8.48552C1380.79 7.98578 1379.68 7.48603 1378.54 6.98629C1379.39 3.87025 1376.4 2.77278 1369.57 3.69387C1368.54 3.63508 1367.54 3.58609 1366.5 3.52729C1362.64 3.03735 1359.63 3.35091 1357.36 4.3308C1349.66 4.37979 1345.86 0.675822 1336.27 2.5572C1331.61 3.36071 1328.3 2.5964 1324.5 1.89088C1318.33 0.754213 1317.09 1.87128 1317.33 3.39011C1316.57 3.38031 1315.81 3.40971 1315.05 3.4783C1308.77 1.6949 1302.63 1.15597 1296.76 3.61548C1297.35 0.411253 1291.69 0.538638 1284.1 1.6949C1283.23 1.6949 1282.47 1.78309 1281.78 1.93008C1275.61 1.7145 1269.74 -0.921393 1263.15 1.7243C1262.18 1.66551 1261.29 1.7243 1260.49 1.87128C1257.87 1.23436 1255.01 0.803207 1251.38 0.959989C1244.45 -0.627427 1238.44 -0.127685 1233.02 1.63611C1229.13 1.44993 1224.29 1.61651 1221.5 1.00898C1213.29 -0.754812 1212.32 1.19516 1209.9 2.54741C1204.49 -0.891997 1199.24 1.49893 1193.96 2.5866C1191.58 0.685621 1190.79 0.626828 1185.65 1.91048C1185.13 2.10646 1184.78 2.33183 1184.61 2.5866C1181.16 3.27252 1178.12 3.67427 1178.36 1.85169C1174.26 0.0388957 1167.15 0.0290968 1160.59 1.82229L1160.35 1.7439C1155.35 1.93008 1149.41 0.989386 1145.76 2.74338C1135.33 3.22353 1126.19 -0.0198976 1115.29 1.89088C1111.56 1.03838 1107.83 0.17608 1102.76 1.14617C1098.96 0.185879 1095.13 -0.578433 1090.82 0.940391C1089.75 0.979587 1088.65 1.01878 1087.58 1.05798C1085.75 0.989386 1083.88 0.920794 1082.05 0.852202C1073.22 -0.215875 1064.7 -0.647025 1057.52 1.79289C1054.34 1.94967 1051.55 -0.147283 1048.1 1.67531C1038.85 -0.186478 1032.19 2.32203 1024.32 2.82177C1021.18 2.52781 1019.39 1.31275 1015.18 1.7243C1009.17 -0.25507 1007.17 0.891397 1006.03 2.67479C1001.79 2.65519 1002 0.69542 996.993 0.999185C991.541 -0.696019 989.229 0.910995 986.261 1.82229C984.95 1.42054 982.431 0.862001 981.706 1.29315C980.706 1.90068 981.706 2.77278 981.844 3.53709C977.98 3.16473 974.529 2.18485 969.939 2.91976C962.279 1.30295 960.277 3.19413 957.448 4.54637C954.48 4.49738 951.512 4.44839 948.545 4.38959C947.751 3.23333 952.03 1.61651 945.405 0.999185C939.573 0.460247 944.231 2.85117 939.711 2.81197C936.605 2.68459 933.913 1.31275 930.359 2.5768C923.527 1.45973 922.561 3.05695 920.732 4.26221C908.033 3.00795 895.3 1.82229 881.876 3.52729C876.942 3.40971 871.765 0.43085 867.107 3.63508C866.9 3.85065 866.727 4.07603 866.624 4.3014C861.586 4.08583 856.444 2.35143 851.648 4.41899C845.816 3.4685 841.606 4.97752 836.533 5.2029C835.912 4.11522 832.806 4.46798 830.494 4.3504C825.663 0.8718 818.037 4.38959 812.067 3.76246L806.27 3.66448C800.818 4.3112 795.952 1.96927 790.328 3.39991C789.43 3.33131 788.706 3.39991 788.085 3.58609C782.011 3.73307 775.834 1.07758 769.899 3.65468C763.653 2.80218 761.307 4.36999 757.787 5.2323V5.25189C750.989 3.18433 741.879 2.75318 721.382 3.50769C711.029 1.13637 703.334 4.42879 694.121 4.52678C689.324 3.74287 684.493 3.33132 679.42 4.3308C678.903 3.30192 679.317 2.11626 673.796 2.04766C669.103 1.98887 669.965 2.82177 670.414 3.61548C669.275 4.53658 666.584 4.40919 664.03 4.36999C659.44 2.92956 656.335 3.17453 654.609 5.02652C652.366 5.12451 651.573 3.97804 648.847 4.47778C644.119 3.64488 639.185 3.06675 633.491 3.61548C626.969 3.17453 621.275 4.10543 615.305 4.53658C616.306 5.35968 617.341 6.18279 618.377 7.00589C617.341 6.18279 616.341 5.35968 615.305 4.53658C605.678 2.88057 576.243 3.32152 566.96 5.27149C566.063 3.55669 562.543 2.90996 557.954 4.11522C553.399 5.31069 548.016 5.06571 542.978 5.44787C538.112 4.2916 534.799 5.70264 530.831 6.0358L530.658 6.10439C524.033 4.74235 516.717 5.02652 509.367 5.36948C502.707 4.39939 501.534 8.15236 494.391 6.77072C490.388 4.46798 484.66 5.44787 479.104 6.12399C469.131 4.40919 458.641 5.35968 448.289 5.64385C448.323 5.50666 448.496 5.35968 448.392 5.2323C448.323 5.13431 447.737 4.97752 447.668 4.98732C443.389 5.75164 439.075 6.46695 433.658 6.0554C425.307 4.70316 418.923 5.2029 414.678 7.69181C419.993 8.32874 425.307 8.95586 430.586 9.59279C425.272 8.95586 419.958 8.32874 414.678 7.69181L413.298 7.71141C412.332 3.52729 404.292 5.30089 397.287 6.18279C394.319 6.11419 391.317 6.0456 388.349 5.98681C382.897 4.321 378.204 6.12399 373.166 6.26118C372.2 6.17299 371.233 6.11419 370.233 6.0848C361.744 4.17402 353.497 5.85942 345.146 6.22198C340.349 4.43859 335.587 5.2225 330.825 6.24158C320.645 5.26169 310.5 4.37979 300.079 5.99661C298.181 6.0162 296.283 6.0456 294.385 6.0652C293.384 6.09459 292.384 6.11419 291.383 6.14359C287.898 5.94761 284.896 6.16319 282.377 6.8981C279.409 6.61393 277.131 5.62425 273.336 6.16319C271.127 6.18279 268.953 6.20238 266.745 6.21218C262.845 6.14359 259.015 6.17299 255.599 6.83931C255.081 7.10388 254.287 7.21167 253.218 7.16267C255.012 9.10285 254.08 10.0827 250.595 10.1611C254.046 10.0827 254.978 9.10285 253.183 7.16267C254.253 7.21167 255.047 7.10388 255.564 6.83931C246.696 4.3112 238.621 5.98681 230.443 7.22146C225.646 4.40919 219.814 8.6031 214.811 7.03529C209.807 3.61548 201.422 5.91822 194.313 6.0652C193.313 6.12399 192.346 6.18278 191.346 6.24158C183.512 7.93678 177.543 5.36948 170.4 5.48707C165.465 5.62425 160.496 5.76143 155.561 5.88882C149.315 4.11522 145.968 5.39888 142.759 6.85891C141.931 6.9373 141.068 6.9471 140.205 6.8981C141.724 4.16422 135.478 5.07551 130.75 5.28129C126.748 4.78155 125.16 6.20238 121.813 6.20238C117.499 6.59434 118.949 3.19413 112.427 5.05592C103.524 5.05592 94.6555 5.97701 85.718 5.09511C85.0969 4.66396 84.9589 4.04663 82.3363 4.38959C78.4024 4.3308 74.4686 4.27201 70.5692 4.21321C63.7367 2.77278 56.0415 3.81146 48.7605 3.61548C47.7942 3.50769 46.828 3.52729 45.9308 3.67427C40.9272 3.82126 36.1652 1.59692 30.9546 3.54689H30.8855C24.6052 3.4881 18.0833 3.09614 12.7691 4.50718C7.04083 4.64436 10.2845 6.36896 7.3169 6.99609C6.14364 7.72121 7.66197 8.89707 4.07319 9.19104C-12.0073 10.5041 -0.309272 12.7676 3.41754 13.7181C10.6986 15.5799 17.2206 17.814 30.7475 17.0399C37.8561 16.6284 46.7245 15.8053 54.9718 16.4814C65.3241 15.4427 75.5383 15.8739 85.6145 16.7852C102.661 18.3236 119.639 18.4216 136.582 16.6774C138.825 17.6867 142.794 17.1575 145.761 17.5103C151.904 19.1761 152.628 17.2849 154.871 16.3932C154.008 16.2658 153.111 16.1776 152.145 16.1188C149.384 14.502 145.175 14.3746 140.758 14.4922C145.175 14.3746 149.384 14.5118 152.145 16.1188C153.111 16.1776 154.008 16.2658 154.871 16.3932V16.2952C161.014 18.2452 167.742 19.2937 176.197 17.2849C186.273 19.5092 196.349 17.1477 206.46 17.3045C223.334 19.1369 240.795 17.9218 257.98 18.108C261.983 18.7253 266.02 19.5876 270.126 18.157C272.68 17.4711 275.648 17.1183 279.202 17.2261C279.927 18.1276 282.618 18.0786 284.999 18.1962C290.313 19.2153 294.972 19.5484 297.318 17.2947C300.355 17.2457 303.357 17.1967 306.394 17.1477C308.361 17.4907 310.362 17.8336 312.329 18.1668C318.264 20.1462 320.783 17.6867 324.993 17.3829L324.683 17.3339C327.719 17.5005 329.928 18.5392 333.62 18.01C337.451 18.4902 336.243 15.041 342.627 17.1575C348.044 18.9605 354.739 18.0688 360.985 17.3241C367.127 18.4118 372.269 17.8924 376.927 16.5402C379.688 16.7068 382.483 16.8831 385.244 17.0497C384.795 16.795 384.691 16.5304 384.933 16.2462C389.315 14.8744 393.594 14.4334 397.735 15.0018C393.56 14.4334 389.315 14.8646 384.933 16.2462C384.691 16.5206 384.76 16.795 385.244 17.0497C390.523 18.8919 396.528 19.1565 404.671 18.4216C408.743 18.059 412.781 17.4123 418.129 17.4907C427.343 17.6279 436.418 18.7057 445.804 18.01C452.982 18.2746 457.33 15.2271 464.507 16.403C481.727 19.2447 498.463 18.3236 515.406 16.4128C515.579 16.9125 515.717 17.4025 515.889 17.9022C521.997 16.354 531.383 18.6371 536.973 16.4618C540.562 16.207 544.185 15.9523 547.774 15.6975C556.47 17.8728 565.235 18.402 574.034 15.7465C576.726 15.3937 579.418 15.041 582.144 14.6882C587.044 18.01 592.461 16.8538 597.948 14.8254C598.466 14.8548 598.983 14.8842 599.535 14.894C600.674 14.7862 601.778 14.6882 602.917 14.5804C602.848 14.453 602.676 14.3256 602.503 14.1983C602.71 14.3256 602.883 14.4628 602.952 14.5804C601.813 14.6882 600.709 14.7862 599.57 14.894C605.85 16.648 613.683 16.4814 621.551 16.3344C626.555 16.0404 631.593 15.7465 636.596 15.4427C641.186 15.7269 645.81 16.0992 649.537 14.8548C661.718 13.8063 673.52 14.2081 685.045 15.6191C693.223 17.4711 692.913 14.3452 697.261 13.9337C703.472 13.8161 708.338 16.109 715.239 14.7176C726.385 14.9822 737.531 15.2369 748.643 15.5015C751.679 16.7656 754.681 16.55 757.753 15.5015C764.378 14.2766 772.28 15.8445 778.94 14.7078C783.944 15.0704 788.878 16.5794 794.02 14.7862C796.056 14.698 798.057 14.6196 800.093 14.5314C805.787 15.2957 812.033 17.2261 815.725 13.9141C817.416 14.1493 819.072 14.3844 820.763 14.6196C824.145 14.9136 827.527 15.2075 830.909 15.5015C836.223 15.8445 840.743 13.3654 847.99 15.5995C850.371 16.3246 866.796 17.2653 872.835 13.9043C874.802 13.9337 876.769 13.9631 878.736 13.9827C884.809 14.4922 890.917 15.0018 896.99 15.5113C907.964 14.894 920.318 16.6676 930.118 13.9925C932.016 14.649 935.156 14.3648 936.709 14.5216C943.99 15.2761 949.442 11.7975 952.306 13.2184C958.069 16.06 963.417 14.2473 969.215 13.9239C976.496 14.9724 983.639 13.2478 990.885 13.8357C1004.07 15.1096 1016.8 11.3958 1030.05 13.5711C1036.23 14.0709 1042.44 13.8455 1048.65 13.6593C1059.8 14.8842 1069.98 10.896 1081.3 13.189C1081.4 13.0518 1081.5 12.9048 1081.61 12.7676C1092.82 14.2081 1103.79 14.1297 1114.42 12.2875C1118.01 13.7769 1121.74 14.992 1127.02 12.7382C1125.71 12.1307 1124.19 11.9347 1122.6 11.9151C1124.19 11.9249 1125.71 12.1209 1127.02 12.7382C1128.09 12.7382 1129.19 12.7382 1130.26 12.7382C1131.26 12.8166 1132.23 12.895 1133.23 12.9734C1137.92 14.3844 1143.27 12.8068 1148.17 13.2478C1153.83 14.7568 1155.24 12.9146 1158.11 12.2287C1158.94 12.3071 1159.73 12.2777 1160.46 12.1307L1160.18 12.2287C1164.25 14.0415 1170.91 11.9543 1175.47 13.0518C1184.06 13.8455 1192.82 15.0116 1200 12.2679C1213.67 14.0023 1227.95 12.1601 1241.79 12.8166C1246.03 13.14 1250.28 13.4535 1254.52 13.7769C1260.11 13.3556 1265.08 11.9151 1271.6 13.5613C1273.99 14.1689 1277.78 13.238 1279.02 12.1895C1282.85 11.9053 1286.93 12.7872 1290.62 11.9837C1296.52 14.257 1304.08 13.8063 1311.81 13.0126C1317.29 14.1101 1322.88 14.9626 1329.68 13.8847C1334.72 15.8837 1340.07 14.747 1345.35 14.0023C1346.14 13.8945 1347 13.8553 1347.9 13.8749C1351.8 16.1776 1358.6 13.8063 1363.43 14.6588C1367.74 17.5495 1374.54 14.8058 1379.96 15.2467C1379.34 14.7764 1378.72 14.306 1378.09 13.8455C1378.09 12.8852 1379.54 12.4933 1383.13 12.2483C1389.28 11.8367 1387.03 10.0337 1387.83 8.88727L1387.96 8.91667ZM61.6663 5.24209C61.2522 5.10491 60.7691 4.99712 60.2515 4.91873C60.7691 4.99712 61.2177 5.10491 61.6663 5.24209ZM124.712 7.7408C127.886 7.51543 131.026 7.29006 134.201 7.07448C131.026 7.29986 127.886 7.52523 124.712 7.7506V7.7408ZM145.796 7.85839C145.727 8.15236 145.658 8.45612 145.623 8.75009C145.692 8.45612 145.761 8.15236 145.83 7.85839C146.175 7.70161 146.589 7.56442 147.003 7.45664C146.555 7.56442 146.175 7.69181 145.83 7.85839H145.796ZM167.052 7.11368C166.293 7.08428 165.534 7.08428 164.74 7.11368C164.188 7.72121 163.464 8.26014 162.394 8.6619C163.498 8.25035 164.223 7.72121 164.74 7.11368C165.499 7.08428 166.259 7.09408 167.052 7.11368C167.294 7.99558 168.502 8.69129 170.676 9.21063C168.536 8.69129 167.294 7.99558 167.052 7.11368ZM294.351 6.9373C296.042 6.96669 297.456 7.06468 298.63 7.22146C297.456 7.07448 296.076 6.97649 294.351 6.9373ZM318.886 14.7372C318.437 14.6588 317.988 14.5902 317.54 14.5314C317.988 14.5902 318.471 14.6588 318.886 14.7372ZM303.84 10.5531C302.805 10.7883 301.77 11.0234 300.7 11.2586C301.735 11.0234 302.771 10.7883 303.806 10.5531C308.809 10.2983 314.089 10.5237 319.162 10.3865C314.089 10.5335 308.844 10.3081 303.806 10.5629L303.84 10.5531ZM342.972 7.16267C343.731 6.85891 344.49 6.56494 345.215 6.26118C344.456 6.56494 343.696 6.85891 342.972 7.16267ZM367.093 6.86871C365.126 7.21167 363.193 7.55463 361.226 7.88779C363.193 7.54483 365.16 7.21167 367.093 6.86871ZM361.606 16.0502C362.123 15.4427 361.571 14.7372 360.502 14.5412C361.537 14.7372 362.123 15.4427 361.606 16.0502ZM385.347 9.57319C383.277 9.93575 381.137 10.1513 378.998 10.2885C381.172 10.1513 383.277 9.93575 385.347 9.57319C391.42 9.67118 397.459 10.0239 403.498 10.3571C397.459 10.0337 391.455 9.68098 385.347 9.57319ZM479.242 8.71089C478.483 9.22043 477.586 9.57319 476.585 9.80836C477.586 9.57319 478.483 9.21063 479.242 8.70109V8.71089ZM530.969 9.60259C529.036 10.3865 527.208 10.3865 525.379 10.1513C527.208 10.3865 529.036 10.3767 530.969 9.60259ZM591.219 8.75009C589.287 9.13224 587.354 9.04405 585.422 8.89707C587.354 9.04405 589.252 9.13224 591.219 8.75009ZM624.691 14.698C625.002 14.6392 625.382 14.5804 625.727 14.5314C625.347 14.5902 625.002 14.6392 624.691 14.698ZM628.349 14.1689C629.246 14.0415 630.075 13.9141 630.696 13.7573C630.075 13.9141 629.212 14.0415 628.349 14.1689ZM645.568 7.78C643.809 7.33905 642.187 6.82951 640.323 6.46695C642.187 6.82951 643.809 7.34885 645.568 7.78ZM660.338 5.43807C661.269 5.1637 662.063 4.84034 663.064 4.58557C662.098 4.84034 661.269 5.1637 660.338 5.43807ZM696.018 5.90842C696.433 6.026 696.95 6.13379 697.571 6.22198C696.95 6.13379 696.467 6.026 696.018 5.90842ZM742.673 7.93678C743.673 8.76969 744.674 9.59279 745.709 10.4257C744.709 9.59279 743.708 8.76969 742.707 7.93678H742.673ZM773.074 5.33028C771.072 5.95741 769.14 6.26118 767.173 6.32977C769.105 6.26118 771.072 5.95741 773.074 5.33028C776.594 5.33028 780.32 5.47727 783.357 5.12451C780.32 5.47727 776.628 5.34008 773.074 5.33028ZM808.72 7.08428L803.13 7.8094C804.993 7.56442 806.857 7.32925 808.755 7.08428C809.962 7.33905 811.136 7.58402 812.343 7.83879C811.136 7.59382 809.928 7.33905 808.755 7.08428H808.72ZM836.637 7.17247C830.701 7.7996 824.973 8.98526 818.727 8.69129C824.973 8.98526 830.701 7.8094 836.637 7.17247ZM869.799 7.7604C869.799 7.21167 869.833 6.66293 869.868 6.10439C869.868 6.65313 869.833 7.20187 869.799 7.7604ZM897.37 7.06468C903.892 7.30965 910.414 7.60362 916.936 7.64282C910.414 7.61342 903.892 7.31945 897.37 7.07448V7.06468ZM987.952 6.09459C981.982 5.82023 976.013 5.54586 970.043 5.28129C976.013 5.55566 981.982 5.83003 987.952 6.09459C988.09 5.93781 988.366 5.78103 988.608 5.62425C988.332 5.78103 988.09 5.94761 987.952 6.10439V6.09459ZM1000.34 4.74235C1001.41 4.65416 1002.45 4.56597 1003.52 4.48758C1002.45 4.57577 1001.41 4.66396 1000.34 4.74235C999.236 6.11419 997.131 6.74132 994.164 6.74132C997.131 6.74132 999.236 6.10439 1000.34 4.74235ZM1018.35 11.19C1008.79 10.2003 999.443 10.1611 989.954 10.6609C999.478 10.1611 1008.79 10.2003 1018.35 11.19ZM1030.4 12.1209C1032.4 12.1895 1034.47 12.1503 1036.57 12.1209C1034.5 12.1405 1032.4 12.1797 1030.4 12.1209ZM1057.83 4.51698C1054.59 5.49686 1051.07 5.64385 1047.44 5.55566C1051.07 5.64385 1054.62 5.48707 1057.83 4.51698ZM1106.07 6.10439C1105.07 5.80063 1104.04 5.58505 1103.03 5.42827C1104.04 5.57526 1105.07 5.80063 1106.07 6.10439ZM1145.62 6.075C1140.51 4.57577 1135.4 6.76092 1130.33 6.075C1123.15 6.075 1115.98 6.09459 1108.76 6.10439C1115.94 6.09459 1123.12 6.0848 1130.33 6.075C1135.44 6.76092 1140.54 4.57577 1145.65 6.075H1145.62ZM1161.59 5.32048C1163.11 5.03632 1164.63 4.75215 1166.15 4.47778C1164.63 4.76195 1163.11 5.04612 1161.59 5.32048ZM1203.21 4.48758C1198.1 5.65365 1195 5.73204 1192.82 5.30089C1195.03 5.73204 1198.14 5.65365 1203.21 4.48758C1206.56 4.23281 1209.94 4.78155 1213.29 5.1539C1209.9 4.78155 1206.52 4.23281 1203.21 4.48758ZM1321.12 6.9471C1321.16 6.35916 1321.23 5.77123 1321.26 5.1735C1321.23 5.76143 1321.16 6.34937 1321.12 6.9471ZM1336.17 6.9471C1338.31 6.48655 1340.69 5.80063 1343.07 5.59485C1340.69 5.79083 1338.31 6.48655 1336.17 6.9471ZM1354.46 12.1503C1352.35 11.9445 1350.25 11.7387 1348.11 11.5232C1350.25 11.7289 1352.35 11.9347 1354.46 12.1503ZM1367.12 7.85839C1365.98 7.61342 1364.88 7.34885 1363.81 7.06468C1364.71 7.02549 1365.57 6.96669 1366.4 6.8883C1367.54 6.33957 1367.91 5.90842 1367.4 5.61445C1367.91 5.91822 1367.54 6.34937 1366.4 6.8981C1365.57 6.97649 1364.71 7.03529 1363.81 7.07448C1364.91 7.35865 1366.02 7.62322 1367.12 7.86819V7.85839Z" fill="#FAFAFA"/>
</g>
<defs>
<clipPath id="clip0_721_1630">
<rect width="1380" height="19" fill="white"/>
</clipPath>
</defs>
</svg>
