<svg width="70" height="59" viewBox="0 0 70 59" fill="none" xmlns="http://www.w3.org/2000/svg">
<path d="M69.4133 48.5095C69.4133 48.5095 69.1781 49.2375 68.3191 50.3685C67.4572 51.4749 66.0708 53.0841 63.829 54.6269C61.6088 56.142 58.4929 57.6706 54.5694 57.9922C50.6765 58.3598 45.9555 57.1489 42.1867 53.8351C40.3177 52.2013 38.6802 50.0144 37.7479 47.3768C36.7911 44.7424 36.7388 41.6569 37.6473 38.7865C38.5175 35.9085 40.3288 33.1858 42.9705 31.2433C44.2874 30.2913 45.8277 29.5355 47.517 29.1847C48.3318 29.0193 49.4165 28.8198 50.5803 29.3709C51.0994 29.6419 51.6471 30.0464 51.9675 30.6293C52.2848 31.1876 52.4393 31.8414 52.4178 32.3802C52.4053 33.504 52.0653 34.3948 51.6565 35.232C51.2339 36.0585 50.7012 36.7991 50.026 37.4954C48.7773 38.7007 47.546 39.7416 46.1614 40.7521C43.4275 42.7561 40.259 44.4659 36.6929 45.266C33.1299 46.0906 29.15 45.746 25.6939 44.0759C23.959 43.2355 22.3677 42.0403 21.0841 40.5069C19.8113 38.9598 18.9167 37.0405 18.5622 35.0531C17.8501 31.0535 18.9519 27.1114 20.7219 23.8453C22.5134 20.5516 24.8551 17.8865 27.1567 15.3013C27.772 14.625 28.4532 13.9778 29.3045 13.3964C30.1341 12.8426 31.232 12.3422 32.4616 12.4111C33.6607 12.434 34.8994 13.0878 35.5807 13.9742C36.3111 14.8544 36.6853 15.8793 36.8111 16.9107C37.0669 19.1102 36.0464 20.9599 35.018 22.3367C33.9298 23.7336 32.8194 24.8466 31.6736 25.9765C29.3792 28.2116 26.883 30.223 24.1323 31.6805C21.3954 33.1487 18.3963 34.1015 15.4013 34.1685C12.4338 34.257 9.53751 33.6009 7.10331 32.238C4.64757 30.9027 2.78323 28.6947 1.8318 26.3089C0.85583 23.9262 0.728131 21.4487 0.969219 19.2363C1.24562 17.0069 1.90937 14.9904 2.77787 13.2223C4.55618 9.71826 6.91706 7.31259 8.86372 5.49542C10.8487 3.68588 12.4931 2.45555 13.6257 1.62658C14.7612 0.822161 15.385 0.419109 15.4568 0.497302C15.6173 0.688972 13.3132 2.53886 9.61747 6.26042C7.82706 8.13263 5.69607 10.584 4.19132 13.8789C2.74045 17.1046 1.93022 21.4962 3.64204 25.5189C4.49347 27.4934 6.0387 29.2306 8.12865 30.3253C10.2078 31.4339 12.7258 31.9509 15.3023 31.8246C17.8681 31.7121 20.4805 30.858 22.9319 29.5007C25.394 28.1296 27.6843 26.269 29.8405 24.1261C30.9048 23.0439 32.0229 21.8926 32.8819 20.7616C33.7271 19.6198 34.2921 18.3265 34.1328 17.2245C33.9861 16.0212 33.1946 15.049 32.3158 15.0978C31.422 15.0238 30.1787 15.9665 29.1371 17.1331C26.9385 19.6429 24.689 22.2465 23.1363 25.1484C21.5669 28.0151 20.7045 31.3659 21.2872 34.509C21.5663 36.0821 22.2476 37.4796 23.2056 38.6926C24.1988 39.8886 25.4734 40.8371 26.8928 41.5429C29.767 42.9375 33.0201 43.2492 36.0767 42.5635C39.1579 41.8746 42.0175 40.3909 44.5592 38.5483C45.8193 37.6409 47.0752 36.5968 48.1485 35.5883C49.0619 34.6998 49.8006 33.2972 49.8232 32.3592C49.7909 31.8895 49.7328 31.8221 49.4329 31.6106C49.2048 31.4774 48.6421 31.4613 47.9991 31.6049C46.6857 31.8707 45.4573 32.4251 44.3679 33.1987C42.2134 34.7429 40.6212 37.014 39.8444 39.4313C39.0322 41.8656 39.0294 44.397 39.7743 46.6219C40.4976 48.8744 41.8674 50.8083 43.4839 52.3121C46.7443 55.341 50.9194 56.5711 54.4484 56.3866C58.0325 56.2451 61.0172 54.97 63.2124 53.6575C65.432 52.342 66.9022 50.9092 67.8695 49.9515C68.8339 48.9693 69.2864 48.3884 69.3828 48.4635L69.4133 48.5095Z" fill="#FAFAFA"/>
</svg>
