<svg width="71" height="71" viewBox="0 0 71 71" fill="none" xmlns="http://www.w3.org/2000/svg">
<path d="M32.5142 12.6993C32.8371 12.7017 33.0385 13.0014 33.2249 13.2376C33.3186 13.3556 33.5281 13.3336 33.6786 13.3336H33.8592C34.1786 13.3336 34.4622 12.9031 34.4622 12.5836V9.96889C34.4622 9.536 34.1115 9.18529 33.6786 9.18529H31.1241C30.741 9.18529 30.4296 8.87393 30.4296 8.49081V8.33456C30.4296 8.15052 30.5083 7.97111 30.6576 7.86347C30.9134 7.67712 31.0801 7.37619 31.0801 7.03589C31.0801 6.47221 30.6241 6.01617 30.0615 6.0127C30.0615 6.0127 30.0604 6.0127 30.0592 6.0127C30.0581 6.0127 30.0581 6.0127 30.0569 6.0127C29.4944 6.01617 29.0383 6.4722 29.0383 7.03704C29.0383 7.37734 29.205 7.67944 29.4608 7.86463C29.609 7.97227 29.6888 8.15284 29.6888 8.33572V8.49197C29.6888 8.87509 29.3775 9.18645 28.9944 9.18645H26.4398C26.007 9.18645 25.6562 9.53716 25.6562 9.97005V12.5848C25.6562 12.9042 25.9155 13.1635 26.235 13.1635H26.375C26.551 13.1635 26.713 13.079 26.8276 12.9447C27.0139 12.7271 27.2894 12.5882 27.5973 12.5871C28.1448 12.5836 28.6124 13.0327 28.6286 13.5802C28.646 14.16 28.1807 14.6369 27.6043 14.6369C27.2605 14.6369 26.9572 14.4679 26.772 14.2087C26.6621 14.0559 26.4885 13.9633 26.2998 13.9633H26.235C25.9155 13.9633 25.6562 14.2226 25.6562 14.542V17.2157C25.6562 17.6486 26.007 17.9993 26.4398 17.9993H28.9944C29.3775 17.9993 29.6888 18.3107 29.6888 18.6938V18.8304C29.6888 19.0086 29.6113 19.1823 29.4666 19.2864C29.2177 19.4658 29.0522 19.7529 29.0395 20.0804C29.0187 20.6407 29.4747 21.1279 30.0338 21.143C30.0419 21.143 30.0511 21.143 30.0592 21.143C30.0673 21.143 30.0766 21.143 30.0847 21.143C30.6449 21.1268 31.0998 20.6395 31.0789 20.0804C31.0674 19.7529 30.9019 19.4658 30.6518 19.2864C30.5072 19.1823 30.4296 19.0086 30.4296 18.8304V18.6938C30.4296 18.3107 30.741 17.9993 31.1241 17.9993H33.6786C34.1115 17.9993 34.4622 17.6486 34.4622 17.2157V14.542C34.4622 14.2226 34.2029 13.9633 33.8835 13.9633H33.7075C33.5767 13.9633 33.2168 13.9529 33.1485 14.0651C32.9691 14.3603 32.8475 14.4679 32.476 14.4679C31.8996 14.4679 31.4725 14.16 31.4887 13.5802C31.5049 13.0327 31.9656 12.697 32.5142 12.7005V12.6993Z" fill="#5BE1E6"/>
<path d="M48.665 33.4732C48.8039 33.7487 48.8062 34.0566 48.6974 34.3217C48.6303 34.4849 48.6291 34.6666 48.709 34.824L48.7727 34.949C48.9185 35.2337 49.2669 35.346 49.5516 35.2002L51.8793 34.0103C52.2647 33.8135 52.4175 33.3413 52.2207 32.9559L51.0575 30.6815C50.8827 30.34 51.0181 29.921 51.3596 29.7474L51.4985 29.6756C51.6617 29.5923 51.8584 29.5807 52.0216 29.6641C52.3041 29.8076 52.6478 29.818 52.9511 29.6641C53.4534 29.4071 53.6513 28.7936 53.399 28.2913C53.399 28.2913 53.399 28.2902 53.3979 28.289C53.3967 28.2878 53.3979 28.2878 53.3979 28.2867C53.1386 27.7867 52.5251 27.5887 52.0228 27.8457C51.7196 28.0008 51.5274 28.2867 51.4776 28.5992C51.4487 28.7809 51.3249 28.9325 51.1617 29.017L51.0228 29.0888C50.6813 29.2636 50.2623 29.1281 50.0887 28.7867L48.9254 26.5123C48.7287 26.1269 48.2564 25.9741 47.871 26.1708L45.5433 27.3607C45.2586 27.5065 45.1463 27.8549 45.2922 28.1397L45.3558 28.2647C45.4357 28.4221 45.585 28.5274 45.7563 28.5679C46.0353 28.6351 46.283 28.8168 46.4253 29.0911C46.6777 29.5772 46.4901 30.1976 46.0098 30.4615C45.5005 30.7416 44.8651 30.5437 44.6023 30.031C44.4461 29.7254 44.4588 29.3782 44.6046 29.0946C44.6915 28.9279 44.6938 28.73 44.6081 28.5622L44.5792 28.5043C44.4333 28.2195 44.0849 28.1073 43.8002 28.2531L41.4193 29.4708C41.0339 29.6675 40.8811 30.1398 41.0779 30.5252L42.2411 32.7996C42.4159 33.1411 42.2805 33.5601 41.939 33.7337L41.8175 33.7962C41.6554 33.8795 41.4633 33.8818 41.3001 33.7997C41.0293 33.6642 40.7029 33.6503 40.41 33.7869C39.9019 34.023 39.6762 34.6504 39.9169 35.1562C39.9204 35.1643 39.925 35.1712 39.9297 35.1793C39.9331 35.1874 39.9366 35.1944 39.9412 35.2025C40.2098 35.6944 40.851 35.8773 41.3406 35.6041C41.623 35.4467 41.8024 35.1736 41.8511 34.8749C41.88 34.6955 41.9946 34.5404 42.1578 34.4582L42.2793 34.3957C42.6208 34.221 43.0398 34.3564 43.2134 34.6978L44.3766 36.9722C44.5734 37.3577 45.0456 37.5105 45.4311 37.3137L47.812 36.0961C48.0967 35.9502 48.209 35.6018 48.0631 35.3171L48.0342 35.2592C47.9485 35.0914 47.7865 34.9779 47.6013 34.9502C47.2853 34.9027 46.9971 34.7094 46.8409 34.4039C46.5781 33.8911 46.7899 33.2591 47.3154 33.0103C47.8108 32.7753 48.4231 32.9871 48.6696 33.4756L48.665 33.4732Z" fill="#5BE1E6"/>
<path d="M39.8216 16.0602C39.8193 16.3681 39.6815 16.6436 39.4639 16.8299C39.3296 16.9445 39.2451 17.1065 39.2451 17.2825V17.4225C39.2451 17.742 39.5044 18.0013 39.8239 18.0013H42.4386C42.8715 18.0013 43.2222 17.6505 43.2222 17.2177V14.6631C43.2222 14.28 43.5335 13.9687 43.9167 13.9687H44.0729C44.2569 13.9687 44.4364 14.0474 44.544 14.1967C44.7303 14.4525 45.0313 14.6192 45.3716 14.6192C45.9353 14.6192 46.3913 14.1631 46.3948 13.6006C46.3948 13.6006 46.3948 13.5994 46.3948 13.5983C46.3948 13.5971 46.3948 13.5971 46.3948 13.596C46.3913 13.0334 45.9353 12.5774 45.3716 12.5774C45.0313 12.5774 44.7292 12.7441 44.544 12.9999C44.4364 13.148 44.2558 13.2279 44.0729 13.2279H43.9167C43.5335 13.2279 43.2222 12.9165 43.2222 12.5334V9.97891C43.2222 9.54602 42.8715 9.19531 42.4386 9.19531H39.8239C39.5044 9.19531 39.2451 9.45458 39.2451 9.77404V9.9141C39.2451 10.09 39.3296 10.2521 39.4639 10.3667C39.6815 10.553 39.8204 10.8285 39.8216 11.1364C39.825 11.6839 39.3759 12.1515 38.8285 12.1677C38.2486 12.185 37.7717 11.7197 37.7717 11.1433C37.7717 10.7996 37.9407 10.4963 38.2 10.3111C38.3527 10.2011 38.4453 10.0275 38.4453 9.83886V9.77404C38.4453 9.45458 38.1861 9.19531 37.8666 9.19531H35.1929C34.76 9.19531 34.4093 9.54602 34.4093 9.97891V12.5334C34.4093 12.9165 34.0979 13.2279 33.7148 13.2279H33.5782C33.3965 13.2279 33.2241 13.1422 33.1152 12.9953C32.9358 12.751 32.6511 12.5901 32.3282 12.5786C31.768 12.5577 31.2807 13.0138 31.2656 13.5728C31.2656 13.5809 31.2656 13.5902 31.2656 13.5983C31.2656 13.6064 31.2656 13.6156 31.2656 13.6238C31.2818 14.184 31.7691 14.6388 32.3282 14.618C32.6511 14.6064 32.9358 14.4444 33.1152 14.2013C33.2229 14.0543 33.3954 13.9687 33.5782 13.9687H33.7148C34.0979 13.9687 34.4093 14.28 34.4093 14.6631V17.2177C34.4093 17.6505 34.76 18.0013 35.1929 18.0013H37.8666C38.1861 18.0013 38.4453 17.742 38.4453 17.4225V17.3577C38.4453 17.1702 38.3527 16.9954 38.2 16.8855C37.9407 16.7003 37.7717 16.397 37.7717 16.0533C37.7717 15.4768 38.2474 15.0115 38.8285 15.0289C39.3759 15.0451 39.825 15.5127 39.8216 16.0602Z" fill="#FF7BAC"/>
<path d="M36.4056 28.1878C36.6475 28.38 36.7783 28.6589 36.791 28.9448C36.7991 29.1208 36.8732 29.2874 37.0121 29.3962L37.122 29.483C37.3732 29.6798 37.7378 29.6358 37.9346 29.3847L39.5481 27.3279C39.8154 26.9876 39.7553 26.4945 39.415 26.2271L37.4045 24.6507C37.1024 24.4134 37.0503 23.977 37.2864 23.6761L37.3836 23.5534C37.497 23.4087 37.6707 23.3161 37.8535 23.323C38.1695 23.3346 38.4867 23.2004 38.6973 22.9318C39.0457 22.4885 38.9682 21.8484 38.5272 21.4977C38.5272 21.4977 38.526 21.4977 38.5249 21.4966C38.5237 21.4954 38.5237 21.4966 38.5226 21.4954C38.0769 21.1505 37.4369 21.228 37.0896 21.6725C36.879 21.941 36.8246 22.2802 36.9114 22.5846C36.9611 22.7617 36.9125 22.9515 36.7991 23.0962L36.7019 23.2189C36.4646 23.521 36.0282 23.5731 35.7273 23.3369L33.7168 21.7605C33.3765 21.4931 32.8834 21.5533 32.616 21.8936L31.0025 23.9504C30.8058 24.2016 30.8498 24.5662 31.1009 24.7629L31.2109 24.8497C31.3498 24.9585 31.5292 24.9921 31.7017 24.9574C31.9829 24.9018 32.285 24.962 32.5281 25.1507C32.961 25.4863 33.0512 26.1276 32.726 26.5686C32.3811 27.0362 31.7213 27.123 31.2676 26.7676C30.9979 26.5558 30.8637 26.2352 30.8775 25.9169C30.8856 25.7294 30.8058 25.5488 30.6576 25.4331L30.6067 25.3937C30.3555 25.197 29.9909 25.241 29.7942 25.4921L28.1436 27.5964C27.8763 27.9367 27.9364 28.4298 28.2767 28.6971L30.2872 30.2736C30.5893 30.5109 30.6414 30.9472 30.4053 31.2482L30.3208 31.3558C30.2085 31.4993 30.0349 31.5827 29.8532 31.5769C29.5511 31.5676 29.2478 31.6915 29.0395 31.938C28.6784 32.3663 28.7351 33.0307 29.1668 33.3883C29.1738 33.3941 29.1807 33.3987 29.1877 33.4034C29.1946 33.4091 29.2004 33.4149 29.2073 33.4196C29.6576 33.7529 30.3162 33.6499 30.646 33.1973C30.8359 32.9357 30.8845 32.6128 30.8035 32.3211C30.7548 32.1452 30.7942 31.9577 30.9065 31.8142L30.991 31.7065C31.2282 31.4044 31.6646 31.3523 31.9655 31.5885L33.9761 33.1649C34.3164 33.4323 34.8094 33.3721 35.0768 33.0318L36.7273 30.9276C36.9241 30.6764 36.8801 30.3118 36.629 30.115L36.578 30.0757C36.4299 29.9599 36.2354 29.924 36.0549 29.9773C35.7481 30.0664 35.4055 30.0132 35.1358 29.8013C34.6821 29.446 34.6103 28.7839 34.9819 28.3383C35.3326 27.917 35.9773 27.8522 36.4067 28.1925L36.4056 28.1878Z" fill="#FF7BAC"/>
<path d="M19.7473 49.0457V40.4053H20.4325V49.6684H14.9219V40.4053H15.6071V49.0457H17.3398V40.4053H18.025V49.0457H19.7462H19.7473Z" fill="black"/>
<path d="M22.6618 49.6684H21.9766V40.4053H22.6618V44.6069H23.5345L24.7811 40.4053H25.5161L24.1074 44.9066V44.9437L25.7777 49.6696H25.0299L23.5333 45.2435H22.6606V49.6696L22.6618 49.6684Z" fill="black"/>
<path d="M26.6913 49.108C26.3707 48.6427 26.2109 47.9367 26.2109 46.9887V43.0487C26.2109 42.11 26.3707 41.4132 26.6913 40.9607C27.0107 40.5081 27.5085 40.2812 28.1809 40.2812C28.8534 40.2812 29.3511 40.5081 29.6706 40.9607C29.99 41.4132 30.1509 42.11 30.1509 43.0487V46.9887C30.1509 47.9448 29.9912 48.6532 29.6706 49.115C29.35 49.5768 28.8534 49.8071 28.1809 49.8071C27.5085 49.8071 27.0107 49.5745 26.6913 49.1092V49.108ZM29.1474 48.6659C29.3592 48.321 29.4657 47.7781 29.4657 47.0385V42.999C29.4657 42.2756 29.3592 41.7454 29.1474 41.4098C28.9356 41.073 28.6138 40.9051 28.1809 40.9051C27.748 40.9051 27.4159 41.073 27.2087 41.4098C27.0003 41.7466 26.8973 42.2767 26.8973 42.999V47.0385C26.8973 47.7781 27.0015 48.321 27.2087 48.6659C27.4159 49.0108 27.7399 49.1833 28.1809 49.1833C28.6219 49.1833 28.9356 49.0108 29.1474 48.6659Z" fill="black"/>
<path d="M35.0187 49.6684H34.3335V41.0534H32.4387C32.4306 42.9737 32.3809 45.1474 32.2894 47.5746C32.2559 48.1313 32.2003 48.5642 32.1216 48.8709C32.0429 49.1788 31.904 49.4115 31.7037 49.5689C31.5035 49.7263 31.2176 49.8062 30.8438 49.8062V49.158C31.1343 49.158 31.3276 49.0457 31.4236 48.8212C31.5185 48.5966 31.5799 48.1973 31.6042 47.6243C31.7037 44.9807 31.7535 42.5755 31.7535 40.4053H35.0199V49.6684H35.0187Z" fill="black"/>
<path d="M40.4438 49.6684H39.7331L39.284 47.3246H37.0767L36.6276 49.6684H35.9297L37.7376 40.4053H38.6358L40.4438 49.6684ZM38.1115 41.9875L37.2017 46.7007H39.1717L38.2735 41.9875L38.1983 41.4389H38.1728L38.1103 41.9875H38.1115Z" fill="black"/>
<path d="M47.3422 49.6684H46.6315L46.1824 47.3246H43.9752L43.5261 49.6684H42.8281L44.6361 40.4053H45.5343L47.3422 49.6684ZM45.0111 41.9875L44.1013 46.7007H46.0713L45.1731 41.9875L45.0979 41.4389H45.0724L45.0099 41.9875H45.0111Z" fill="black"/>
<path d="M48.25 49.6684V40.4053H49.8959C50.4364 40.4053 50.8601 40.5465 51.1679 40.8289C51.4758 41.1113 51.6298 41.5234 51.6298 42.0628V43.285C51.6298 43.6265 51.5569 43.9274 51.411 44.189C51.2652 44.4506 51.0476 44.6404 50.7559 44.7562V44.7689C51.1054 44.8603 51.3751 45.0409 51.5661 45.3117C51.7571 45.5814 51.8532 45.9368 51.8532 46.3778V47.7991C51.8532 48.4056 51.7015 48.8698 51.3983 49.1892C51.095 49.5098 50.6401 49.6696 50.0336 49.6696H48.2512L48.25 49.6684ZM49.9086 44.5189C50.2582 44.5189 50.5198 44.4147 50.6946 44.2075C50.8693 44.0003 50.9561 43.7168 50.9561 43.3603V42.1264C50.9561 41.7688 50.8624 41.4968 50.676 41.3092C50.4897 41.1217 50.213 41.0291 49.8473 41.0291H48.9375V44.52H49.9098L49.9086 44.5189ZM49.9584 49.0445C50.3577 49.0445 50.661 48.9369 50.8682 48.7205C51.0754 48.504 51.1795 48.1927 51.1795 47.7852V46.3893C51.1795 45.9576 51.0696 45.6416 50.8496 45.4414C50.6297 45.2423 50.3276 45.1428 49.9457 45.1428H48.9352V49.0457H49.9573L49.9584 49.0445Z" fill="black"/>
<path d="M56.9516 49.6684H56.2409L55.7918 47.3246H53.5845L53.1354 49.6684H52.4375L54.2455 40.4053H55.1436L56.9516 49.6684ZM54.6205 41.9875L53.7107 46.7007H55.6807L54.7825 41.9875L54.7073 41.4389H54.6818L54.6193 41.9875H54.6205Z" fill="black"/>
<path d="M14.7231 56.9831C14.5379 56.7134 14.4453 56.3048 14.4453 55.7574V53.4795C14.4453 52.9366 14.5379 52.5338 14.7231 52.2723C14.9083 52.0107 15.1953 51.8799 15.5843 51.8799C15.9732 51.8799 16.2602 52.0107 16.4454 52.2723C16.6306 52.5338 16.7232 52.9366 16.7232 53.4795V55.7574C16.7232 56.3106 16.6306 56.7204 16.4454 56.9866C16.2602 57.254 15.9732 57.3871 15.5843 57.3871C15.1953 57.3871 14.9071 57.2528 14.7231 56.9831ZM16.1433 56.7273C16.266 56.5282 16.3273 56.2146 16.3273 55.7863V53.4505C16.3273 53.0327 16.266 52.726 16.1433 52.5315C16.0206 52.3371 15.8343 52.2399 15.5843 52.2399C15.3342 52.2399 15.1421 52.3371 15.0217 52.5315C14.9013 52.726 14.8412 53.0327 14.8412 53.4505V55.7863C14.8412 56.2146 14.9013 56.5282 15.0217 56.7273C15.1421 56.9264 15.3296 57.0259 15.5843 57.0259C15.8389 57.0259 16.0206 56.9264 16.1433 56.7273Z" fill="black"/>
<path d="M19.4897 57.3076H19.1077V53.4209H18.0267V53.767C18.0174 54.8874 17.9977 55.6872 17.9688 56.1675C17.926 56.59 17.8415 56.8991 17.7165 57.0935C17.5915 57.288 17.3947 57.3852 17.125 57.3852V57.024C17.2697 57.024 17.3773 56.9558 17.4491 56.818C17.5208 56.6815 17.5695 56.4488 17.5938 56.1224C17.6134 55.7381 17.625 55.2728 17.6297 54.7277C17.6343 54.1825 17.6366 53.6257 17.6366 53.0586H19.4897V57.3053V57.3076Z" fill="black"/>
<path d="M20.2891 57.3082V53.0615H20.678V54.5975H21.3632C21.7232 54.5975 22.0009 54.6785 22.1954 54.8394C22.3899 55.0003 22.4871 55.2642 22.4871 55.6288V56.2989C22.4871 56.6358 22.3922 56.8881 22.2023 57.0559C22.0125 57.2237 21.7463 57.3082 21.406 57.3082H20.2891ZM21.3852 56.9471C21.6155 56.9471 21.7926 56.8904 21.9153 56.7781C22.038 56.6647 22.0993 56.505 22.0993 56.2989V55.6288C22.0993 55.4031 22.038 55.2341 21.9153 55.1241C21.7926 55.013 21.5993 54.9586 21.3354 54.9586H20.6791V56.9483H21.3852V56.9471Z" fill="black"/>
<path d="M23.5295 53.4215V57.3082H23.1406V53.0615H24.7912V53.4215H23.5295Z" fill="black"/>
<path d="M27.2599 53.0615V57.3082H26.871L26.878 54.0708L26.9069 53.7537H26.878L26.8201 54.0488L25.6742 57.3082H25.2344V53.0615H25.6163V56.3128L25.5874 56.63H25.6094L25.6673 56.3418L26.8132 53.0615H27.2599Z" fill="black"/>
<path d="M29.7092 57.3089H29.3203V51.9521H29.8389L30.6757 55.5935L30.7116 55.8678H30.7255L30.7614 55.5935L31.5982 51.9521H32.1167V57.3089H31.7197V53.4881L31.7556 52.7311H31.7417L31.6908 53.0922L30.8979 56.4882H30.538L29.7451 53.0922L29.6942 52.7311H29.6803L29.7092 53.4881V57.3089Z" fill="black"/>
<path d="M33.2101 55.2977V55.9968C33.2101 56.3382 33.2599 56.594 33.3582 56.7642C33.4566 56.9343 33.6117 57.02 33.8235 57.02C34.011 57.02 34.1557 56.9621 34.2564 56.8464C34.3571 56.7306 34.4127 56.5535 34.4219 56.3128V55.888H34.8039V56.3128C34.7842 56.6542 34.6916 56.9181 34.5261 57.1057C34.3606 57.2932 34.1233 57.3869 33.8154 57.3869C33.1568 57.3869 32.8281 56.9066 32.8281 55.9447V54.4157C32.8281 53.4597 33.1649 52.9805 33.8374 52.9805C34.1789 52.9805 34.4266 53.0985 34.5805 53.3335C34.7345 53.5696 34.8109 53.9203 34.8109 54.3856V55.2942H33.2101V55.2977ZM33.3606 53.5881C33.2599 53.7513 33.2089 54.0106 33.2089 54.3671V54.9435H34.4196V54.3092C34.4196 53.9678 34.3733 53.7212 34.2796 53.5708C34.1858 53.4191 34.0354 53.3439 33.8293 53.3439C33.6233 53.3439 33.4613 53.4261 33.3606 53.5893V53.5881Z" fill="black"/>
<path d="M37.5131 57.3076H37.1312V53.4209H36.0501V53.767C36.0408 54.8874 36.0212 55.6872 35.9922 56.1675C35.9494 56.59 35.8649 56.8991 35.7399 57.0935C35.6149 57.288 35.4181 57.3852 35.1484 57.3852V57.024C35.2931 57.024 35.4008 56.9558 35.4725 56.818C35.5443 56.6815 35.5929 56.4488 35.6172 56.1224C35.6369 55.7381 35.6485 55.2728 35.6531 54.7277C35.6577 54.1825 35.66 53.6257 35.66 53.0586H37.5131V57.3053V57.3076Z" fill="black"/>
<path d="M38.546 55.2977V55.9968C38.546 56.3382 38.5946 56.594 38.6942 56.7642C38.7926 56.9343 38.9477 57.02 39.1595 57.02C39.347 57.02 39.4917 56.9621 39.5924 56.8464C39.6931 56.7306 39.7486 56.5535 39.7579 56.3128V55.888H40.1398V56.3128C40.1202 56.6542 40.0276 56.9181 39.8621 57.1057C39.6965 57.2932 39.4593 57.3869 39.1514 57.3869C38.4928 57.3869 38.1641 56.9066 38.1641 55.9447V54.4157C38.1641 53.4597 38.5009 52.9805 39.1734 52.9805C39.5148 52.9805 39.7625 53.0985 39.9165 53.3335C40.0704 53.5696 40.1468 53.9203 40.1468 54.3856V55.2942H38.546V55.2977ZM38.6977 53.5881C38.597 53.7513 38.546 54.0106 38.546 54.3671V54.9435H39.7567V54.3092C39.7567 53.9678 39.7093 53.7212 39.6167 53.5708C39.5229 53.4191 39.3725 53.3439 39.1664 53.3439C38.9604 53.3439 38.7984 53.4261 38.6977 53.5893V53.5881Z" fill="black"/>
<path d="M43.3627 56.9473V53.0605H43.7516V57.3073H40.7734V53.0605H41.1623V56.9473H42.0709V53.0605H42.4599V56.9473H43.3615H43.3627Z" fill="black"/>
<path d="M46.6592 57.3082H46.2263L45.4335 55.3255H44.9358V57.3082H44.5469V53.0615H44.9358V54.9574H45.4265L46.0967 53.0615H46.5076L45.7437 55.1449L46.6592 57.3082Z" fill="black"/>
<path d="M47.2335 55.2977V55.9968C47.2335 56.3382 47.2821 56.594 47.3817 56.7642C47.4801 56.9343 47.6352 57.02 47.847 57.02C48.0345 57.02 48.1792 56.9621 48.2799 56.8464C48.3806 56.7306 48.4361 56.5535 48.4454 56.3128V55.888H48.8273V56.3128C48.8077 56.6542 48.7151 56.9181 48.5496 57.1057C48.384 57.2932 48.1468 57.3869 47.8389 57.3869C47.1803 57.3869 46.8516 56.9066 46.8516 55.9447V54.4157C46.8516 53.4597 47.1884 52.9805 47.8609 52.9805C48.2023 52.9805 48.45 53.0985 48.604 53.3335C48.7579 53.5696 48.8343 53.9203 48.8343 54.3856V55.2942H47.2335V55.2977ZM47.3852 53.5881C47.2845 53.7513 47.2335 54.0106 47.2335 54.3671V54.9435H48.4442V54.3092C48.4442 53.9678 48.3968 53.7212 48.3042 53.5708C48.2104 53.4191 48.06 53.3439 47.8539 53.3439C47.6479 53.3439 47.4859 53.4261 47.3852 53.5893V53.5881Z" fill="black"/>
<path d="M49.4531 57.3082V53.0615H50.5134C50.8016 53.0615 51.0307 53.1263 51.202 53.256C51.3722 53.3856 51.4578 53.5905 51.4578 53.8683V54.3301C51.4578 54.513 51.4173 54.6681 51.3351 54.7954C51.253 54.9227 51.128 55.0037 50.9601 55.0373V55.0512C51.1523 55.0848 51.3016 55.1716 51.4069 55.3105C51.5122 55.4505 51.5655 55.6207 51.5655 55.8221V56.4425C51.5655 56.7642 51.4787 56.9888 51.3062 57.1161C51.1337 57.2434 50.8861 57.3071 50.5631 57.3071H49.4531V57.3082ZM50.4983 54.9065C50.6858 54.9065 50.8305 54.8625 50.9312 54.7734C51.0319 54.6843 51.0828 54.5581 51.0828 54.3949V53.9331C51.0828 53.7548 51.0354 53.624 50.9428 53.5396C50.849 53.4551 50.6985 53.4134 50.4925 53.4134H49.8432V54.9054H50.4995L50.4983 54.9065ZM50.5203 56.9622C50.7171 56.9622 50.8745 56.9251 50.9925 56.851C51.1106 56.777 51.1696 56.6358 51.1696 56.4297V55.8093C51.1696 55.6079 51.1094 55.4598 50.9891 55.366C50.8687 55.2723 50.7078 55.226 50.5064 55.226H49.8432V56.9633H50.5203V56.9622Z" fill="black"/>
<path d="M54.2521 53.0615V57.3082H53.8632L53.8702 54.0708L53.8991 53.7537H53.8702L53.8123 54.0488L52.6664 57.3082H52.2266V53.0615H52.6085V56.3128L52.5796 56.63H52.6016L52.6595 56.3418L53.8053 53.0615H54.2521Z" fill="black"/>
<path d="M56.5417 55.5271C56.3207 55.6382 56.073 55.6926 55.7987 55.6926C55.4815 55.6926 55.2639 55.6035 55.1458 55.4264C55.0278 55.2493 54.9688 55.0317 54.9688 54.7771V53.0605H55.3577V54.7111C55.3577 54.894 55.3912 55.0444 55.4584 55.1613C55.5255 55.2794 55.6655 55.3384 55.8762 55.3384C56.0151 55.3384 56.1436 55.3245 56.2616 55.2956C56.3797 55.2667 56.4723 55.2331 56.5394 55.1949V53.0605H56.9214V57.3073H56.5394V55.5259L56.5417 55.5271Z" fill="black"/>
<circle cx="35.5" cy="35.5" r="34.7288" stroke="#00C2CB" stroke-width="1.54237"/>
</svg>
