<svg width="33" height="33" viewBox="0 0 33 33" fill="none" xmlns="http://www.w3.org/2000/svg">
<path d="M11 5.5V22C11 22.7293 11.2897 23.4288 11.8055 23.9445C12.3212 24.4603 13.0207 24.75 13.75 24.75H24.75C25.4793 24.75 26.1788 24.4603 26.6945 23.9445C27.2103 23.4288 27.5 22.7293 27.5 22V9.95775C27.5 9.59139 27.4267 9.22874 27.2846 8.89109C27.1424 8.55343 26.9342 8.24758 26.6723 7.9915L22.1141 3.53375C21.6004 3.0314 20.9104 2.75009 20.1919 2.75H13.75C13.0207 2.75 12.3212 3.03973 11.8055 3.55546C11.2897 4.07118 11 4.77065 11 5.5V5.5Z" stroke="white" stroke-width="2" stroke-linecap="round" stroke-linejoin="round"/>
<path d="M22 24.75V27.5C22 28.2293 21.7103 28.9288 21.1945 29.4445C20.6788 29.9603 19.9793 30.25 19.25 30.25H8.25C7.52065 30.25 6.82118 29.9603 6.30546 29.4445C5.78973 28.9288 5.5 28.2293 5.5 27.5V12.375C5.5 11.6457 5.78973 10.9462 6.30546 10.4305C6.82118 9.91473 7.52065 9.625 8.25 9.625H11" stroke="white" stroke-width="2" stroke-linecap="round" stroke-linejoin="round"/>
</svg>
