<svg width="50" height="41" viewBox="0 0 50 41" fill="none" xmlns="http://www.w3.org/2000/svg">
<path d="M47.343 17.8523C45.3648 11.0557 43.1339 7.54384 43.0979 7.48084C42.9707 7.32563 39.8183 3.55308 32.2203 0.762695L31.2163 3.4962C34.8309 4.82373 37.3953 6.44326 38.8056 7.48968C34.5951 6.23232 29.5862 5.46226 25.1498 5.46226C20.7135 5.46226 15.7046 6.23232 11.4941 7.48968C12.9043 6.44336 15.4687 4.82373 19.0833 3.4962L18.0793 0.762695C10.4815 3.55308 7.32907 7.32563 7.2019 7.48084C7.16589 7.54384 4.93492 11.0557 2.95682 17.8523C1.05035 24.4023 0.326111 33.6423 0.299805 34.0128C0.469678 34.2784 4.37676 40.9491 15.0247 40.9491L17.7237 37.0408C14.6999 36.238 11.8166 34.9432 9.17729 33.1864L10.7909 30.7622C15.0489 33.5964 20.0141 35.0946 25.1498 35.0946C30.2856 35.0946 35.2508 33.5964 39.5088 30.7622L41.1224 33.1864C38.4832 34.9432 35.5998 36.238 32.576 37.0408L35.275 40.9491C45.9229 40.9491 49.83 34.2784 49.9999 34.0128C49.9736 33.6423 49.2493 24.4023 47.343 17.8523ZM18.4172 25.4706H15.5051V20.6171H18.4172V25.4706ZM34.7946 25.4706H31.8825V20.6171H34.7946V25.4706Z" fill="url(#paint0_linear_9_414)"/>
<defs>
<linearGradient id="paint0_linear_9_414" x1="-40.0649" y1="21.0192" x2="57.0486" y2="21.1866" gradientUnits="userSpaceOnUse">
<stop stop-color="#3A0FBF"/>
<stop offset="0.152017" stop-color="#4A0FBF"/>
<stop offset="0.330382" stop-color="#5E0FBF"/>
<stop offset="0.575178" stop-color="#780FBF"/>
<stop offset="0.728963" stop-color="#890FBF"/>
<stop offset="1" stop-color="#A60FBF"/>
</linearGradient>
</defs>
</svg>
