<svg width="73" height="72" viewBox="0 0 73 72" fill="none" xmlns="http://www.w3.org/2000/svg">
<mask id="path-2-outside-1_6_167" maskUnits="userSpaceOnUse" x="0" y="0" width="73" height="72" fill="black">
<rect fill="white" width="73" height="72"/>
<path fill-rule="evenodd" clip-rule="evenodd" d="M34.2619 1.4578C33.6889 1.73748 32.8655 2.53693 32.4321 3.23429C31.7154 4.38741 31.48 4.5351 29.8369 4.85916C26.2651 5.56348 21.9121 7.38617 18.7334 9.50817C17.4541 10.362 16.9857 10.5305 16.5426 10.2955C16.2324 10.1309 15.2654 9.99654 14.3935 9.99654C12.9287 9.99654 12.7076 10.0965 11.4762 11.3158C10.245 12.5353 10.1441 12.7543 10.1441 14.2049C10.1441 15.0684 10.2868 16.0391 10.4616 16.3619C10.7168 16.8346 10.5927 17.2176 9.82571 18.3211C7.69248 21.3918 5.85965 25.8819 4.84015 30.534C4.73616 31.0075 4.2473 31.5143 3.5288 31.8931C2.18848 32.5995 1.00736 34.4747 1.00004 35.9069C0.992417 37.4282 2.04912 39.1814 3.44524 39.9643C4.21192 40.3944 4.73341 40.9344 4.83832 41.4067C5.85507 45.9956 7.7614 50.6377 9.89158 53.7108C10.6015 54.7355 10.7156 55.1085 10.4616 55.5788C10.2868 55.9016 10.1441 56.8723 10.1441 57.7358C10.1441 59.1864 10.245 59.4054 11.4762 60.6249C12.7076 61.8442 12.9287 61.9442 14.3935 61.9442C15.2654 61.9442 16.2324 61.8098 16.5426 61.6452C16.9857 61.4102 17.4541 61.5787 18.7334 62.4325C21.9218 64.5609 26.284 66.3851 29.8454 67.0788C31.4867 67.3987 31.7267 67.5457 32.3464 68.6125C33.1296 69.9601 34.9234 71.0072 36.4351 71C37.8608 70.9927 39.7232 69.8393 40.3978 68.5454C40.8982 67.5853 41.1541 67.4183 42.4069 67.2326C45.799 66.73 50.4393 64.9028 53.9309 62.695C55.3981 61.7672 55.5957 61.7237 57.6658 61.8705L57.8667 61.8847C59.1283 61.9739 60.3671 61.5148 61.2659 60.6249C62.1632 59.736 62.6274 58.4994 62.5364 57.2396L62.5251 57.0825C62.4247 55.6916 62.7734 54.3052 63.52 53.1273L63.9807 52.4006C65.7181 49.6598 67.2468 45.8546 67.9611 42.4913C68.2072 41.3321 68.4393 40.3759 68.4768 40.3666C68.5143 40.3572 68.9565 40.1247 69.4597 39.8498C70.632 39.2095 71.7368 37.327 71.7368 35.9704C71.7368 34.5527 70.599 32.6569 69.3953 32.0691C68.5558 31.6593 68.3691 31.3543 68.0855 29.9299C67.3206 26.0876 65.1706 20.9569 63.0865 18.0001C62.5727 17.2713 62.4476 16.638 62.4467 14.7594C62.4455 12.4622 62.4269 12.4058 61.2961 11.2859C60.1631 10.1642 60.1119 10.1476 57.7652 10.1466C55.7009 10.1457 55.2215 10.0391 54.163 9.34569C51.0084 7.27805 45.7487 5.20317 42.4069 4.70815C41.1541 4.52241 40.8982 4.35539 40.3978 3.39527C39.2914 1.27297 36.4683 0.381703 34.2619 1.4578ZM37.7797 4.72356C38.7449 6.18262 37.0892 7.84192 35.5052 7.00231C34.6218 6.53387 34.4022 5.57012 34.9804 4.69638C35.6586 3.67101 37.0926 3.68491 37.7797 4.72356ZM34.3509 9.6764C35.0646 10.0186 35.9737 10.2986 36.371 10.2986C37.5259 10.2986 39.6768 9.11434 40.2416 8.1675C40.6616 7.46379 40.9101 7.33 41.5396 7.47014C46.1573 8.49852 48.5693 9.40518 51.6363 11.2662L52.1763 11.5938C53.0732 12.1379 53.5932 13.1356 53.5256 14.1826C53.3277 17.2441 54.9736 18.8859 58.2903 18.9358C59.5179 18.9542 60.6502 19.6007 61.29 20.6485L61.4126 20.8494C62.9392 23.3501 64.3311 26.714 64.9355 29.3639C65.4046 31.4213 65.4015 31.5346 64.8681 31.8299C63.0088 32.8604 61.9725 35.2295 62.548 37.1325C62.9063 38.3168 63.8706 39.5578 64.8571 40.1044C65.3561 40.3811 65.3722 40.568 65.0371 42.1911C64.5177 44.7069 63.1393 48.1255 61.5901 50.7398L61.2919 51.2429C60.6539 52.3192 59.5023 52.9866 58.2513 53.0049C56.7283 53.0273 56.0281 53.1868 55.377 53.66C54.0352 54.6353 53.3966 56.1037 53.5305 57.9061C53.6012 58.8567 53.1326 59.7665 52.3177 60.261L51.6412 60.6714C48.5693 62.5355 46.1595 63.4419 41.5396 64.4706C40.9101 64.6107 40.6616 64.4769 40.2416 63.7732C39.6768 62.8264 37.5259 61.6421 36.371 61.6421C35.2393 61.6421 33.1088 62.7998 32.501 63.7451C32.1713 64.2582 31.5505 64.503 30.9594 64.353L29.2044 63.9079C26.1645 63.1368 23.3359 61.9339 20.8685 60.3622L20.7612 60.2939C19.811 59.6887 19.2228 58.6517 19.1912 57.5256C19.1052 54.4631 17.3913 52.7863 14.5106 52.9467C13.532 53.0011 12.5981 52.5317 12.0579 51.7139L11.9559 51.5595C10.4481 49.2771 8.99956 45.9521 8.27039 43.1002L7.98664 41.9903C7.75187 41.0721 8.02892 40.0985 8.71198 39.4415C10.9071 37.3304 10.8995 34.4853 8.69337 32.4838C8.01705 31.8701 7.73548 30.9328 7.9617 30.048L8.26399 28.8656C8.99926 25.9904 10.4445 22.669 11.9562 20.3812C12.9153 18.9297 12.9537 18.9077 14.3584 18.9944C17.2674 19.1744 19.1088 17.4447 19.1912 14.455C19.2228 13.3041 19.8237 12.2439 20.7948 11.6254L20.8685 11.5785C23.3359 10.0068 26.1645 8.80386 29.2044 8.0328L30.9594 7.58767C31.5505 7.43773 32.1713 7.68253 32.501 8.19559C32.8048 8.66765 33.637 9.33421 34.3509 9.6764ZM15.5115 12.9458C16.2132 13.4097 16.5825 14.5036 16.247 15.124C15.6575 16.2152 14.7445 16.4758 13.8418 15.8111C12.818 15.0569 12.682 14.1276 13.4801 13.3372C14.122 12.7014 14.9119 12.5492 15.5115 12.9458ZM59.2434 13.3188C60.0753 14.1427 60.0088 14.966 59.0497 15.7129C58.0284 16.5087 57.8524 16.4991 56.9424 15.5975C56.0321 14.6963 56.0223 14.522 56.8259 13.5106C57.5801 12.5607 58.4114 12.4949 59.2434 13.3188ZM32.1015 14.0787C27.3545 15.0394 23.9221 16.869 20.5129 20.2568C17.5874 23.1638 15.9942 25.6494 14.7978 29.1749C14.0525 31.3706 13.9778 32.0045 13.9778 36.1214C13.9778 40.2382 14.0525 40.8722 14.7978 43.0678C15.2489 44.3967 16.136 46.365 16.7691 47.442C18.1927 49.8621 22.2115 53.9007 24.5448 55.2559C32.1698 59.6835 40.5911 59.6835 48.1915 55.2559C50.4293 53.9521 54.5295 49.8905 55.8476 47.6716C56.4121 46.7214 57.3041 44.7531 57.8298 43.2977C58.7411 40.7758 58.7856 40.4391 58.7819 36.1214C58.7786 31.9444 58.7118 31.4026 57.9259 29.1749C57.4569 27.846 56.5109 25.8073 55.8232 24.6446C54.3414 22.1384 50.6296 18.4175 48.1841 16.9868C43.1708 14.0539 37.3899 13.0086 32.1015 14.0787ZM38.1636 17.702C39.2139 18.8868 39.8732 20.0496 40.5127 21.8445C40.9379 23.0384 40.9348 23.0508 40.2581 22.8566C38.7699 22.4292 35.2079 22.3172 33.6465 22.6488C32.7477 22.8397 31.9558 22.94 31.8865 22.8714C31.609 22.5963 33.7178 18.541 34.616 17.6226C35.9111 16.2982 36.9392 16.3212 38.1636 17.702ZM29.8628 19.8877C29.3416 21.1749 28.8787 22.2837 28.8341 22.351C28.7265 22.5141 26.6085 21.5603 25.5469 20.8708C25.1536 20.6151 25.1586 20.0375 25.5565 19.7888L25.9678 19.5316C27.2605 18.7237 29.8433 17.5933 30.4648 17.5637C30.667 17.554 30.4169 18.519 29.8628 19.8877ZM45.4394 18.8162C48.2674 20.1898 48.2967 20.3284 46.003 21.506C44.9195 22.0623 43.9866 22.4525 43.9302 22.3731C43.8735 22.2933 43.3956 21.1632 42.8683 19.8612L42.2242 18.2709C42.0929 17.9467 42.384 17.6101 42.7237 17.6932C43.1714 17.8029 44.3934 18.3082 45.4394 18.8162ZM23.6592 23.1C24.1932 23.4963 25.2475 24.1245 26.0022 24.4963C26.757 24.8678 27.406 25.1976 27.4441 25.2287C27.4822 25.2601 26.861 25.9741 26.0635 26.8155C24.4359 28.5322 23.1243 30.9595 22.5934 33.2368C22.3853 34.1301 21.589 34.7623 20.6717 34.7623H19.5455H17.8947C17.3195 34.7623 16.8533 34.296 16.8533 33.7209C16.8533 32.1585 18.2128 28.2039 19.4544 26.1547C20.4028 24.5896 22.2298 22.3794 22.5754 22.3794C22.6376 22.3794 23.1252 22.7038 23.6592 23.1ZM51.6037 23.7929C53.7125 26.1652 55.8888 31.3084 55.8888 33.9196C55.8888 34.385 55.5115 34.7623 55.0461 34.7623H53.1892H52.5213C51.3219 34.7623 50.2707 33.9598 49.9544 32.8028C49.346 30.5778 47.8109 27.8726 46.2558 26.2854C45.7408 25.7598 45.901 24.8827 46.5686 24.573L46.6938 24.515C47.5153 24.1338 48.5824 23.5023 49.0649 23.1115C49.5473 22.7207 50.0331 22.3963 50.1447 22.3903C50.2564 22.3842 50.913 23.0155 51.6037 23.7929ZM41.5008 26.5992C49.7215 30.9553 49.4278 42.3968 40.994 46.3399C39.2136 47.1726 38.6436 47.2895 36.371 47.2895C34.099 47.2895 33.5285 47.1723 31.7505 46.3412C29.1751 45.137 27.4185 43.3967 26.2063 40.8483C25.3749 39.1014 25.2529 38.5248 25.2694 36.4234C25.3005 32.4702 26.9062 29.4011 30.072 27.2441C32.2092 25.7877 33.7636 25.3833 36.8285 25.486C39.2682 25.5678 39.7872 25.6914 41.5008 26.5992ZM35.1713 28.0804C34.9926 28.4114 34.8462 28.8916 34.8462 29.1474C34.8462 29.4032 34.4369 29.8221 33.9365 30.0782C30.6655 31.7535 32.1573 37.4805 35.8648 37.4805C36.2737 37.4805 36.9163 37.7275 37.2926 38.0292C37.8754 38.4965 37.9242 38.6759 37.6208 39.2373C37.1243 40.1561 35.8456 40.0899 34.7925 39.0905C34.0493 38.3856 33.8465 38.3279 33.1747 38.6309C31.8582 39.2252 32.2488 41.2911 33.8334 42.1135C34.2893 42.3499 34.7791 42.9712 34.9694 43.5538C35.2652 44.4599 35.4266 44.578 36.371 44.578C37.3146 44.578 37.4771 44.4596 37.7717 43.5568C37.955 42.9954 38.4091 42.3747 38.7812 42.1775C42.0428 40.4487 40.5829 34.7623 36.8773 34.7623C36.4683 34.7623 35.8096 34.4989 35.4137 34.1773C34.8288 33.7019 34.7565 33.4893 35.0295 33.0447C35.4662 32.3322 37.0627 32.1688 37.5781 32.7837C38.1404 33.4548 39.6335 33.3826 40.0211 32.6653C40.4396 31.8916 39.8647 30.6255 38.8577 30.103C38.4448 29.8886 37.9565 29.2525 37.7726 28.6889C37.497 27.8445 37.2682 27.6485 36.4674 27.5718C35.7486 27.5026 35.4122 27.6346 35.1713 28.0804ZM6.73886 34.6402C7.70926 35.3135 7.54854 36.8417 6.44335 37.453C5.72394 37.851 5.55651 37.8435 4.84229 37.3799C3.81181 36.7115 3.75052 35.3026 4.72274 34.6285C5.5739 34.0377 5.87276 34.0395 6.73886 34.6402ZM68.0367 34.6402C69.0071 35.3135 68.8464 36.8417 67.7412 37.453C67.0218 37.851 66.8544 37.8435 66.1401 37.3799C65.1096 36.7115 65.0484 35.3026 66.0206 34.6285C66.8717 34.0377 67.1706 34.0395 68.0367 34.6402ZM22.5876 39.2171C23.1127 41.7018 24.2325 43.8915 25.8583 45.6127L26.2582 46.0361C26.7621 46.5696 26.6075 47.4383 25.9504 47.7652C25.224 48.1267 24.1697 48.764 23.6074 49.182C23.0199 49.6184 22.2012 49.5582 21.6839 49.0404L21.5647 48.921C19.3497 46.7036 16.8533 41.1935 16.8533 38.5218C16.8533 37.9467 17.3195 37.4805 17.8947 37.4805H19.537H20.4457C21.4804 37.4805 22.3737 38.2048 22.5876 39.2171ZM55.8888 38.3231C55.8888 40.9875 53.6622 46.1865 51.5149 48.5353L51.0775 49.0138C50.5791 49.5589 49.749 49.6385 49.1561 49.198C48.5818 48.7712 47.5221 48.1285 46.8005 47.7697C46.1424 47.4422 45.9795 46.5766 46.4736 46.0323L46.8523 45.6151C48.5364 43.7601 49.6687 41.5586 50.1283 39.2449C50.332 38.2193 51.2319 37.4805 52.2775 37.4805H53.1837H55.0461C55.5115 37.4805 55.8888 37.8577 55.8888 38.3231ZM29.8451 52.2876C30.3654 53.612 30.6792 54.6957 30.5429 54.6957C30.0119 54.6957 27.1648 53.4592 25.9571 52.7044C25.3722 52.3387 25.3749 51.4859 25.9621 51.1238L26.3356 50.8935C27.2425 50.3345 28.1904 49.8775 28.442 49.8781C28.7308 49.879 29.248 50.767 29.8451 52.2876ZM34.3564 50.185C35.6104 50.4145 36.7294 50.4121 38.2661 50.1759C39.4499 49.9938 40.489 49.9144 40.5744 49.9992C40.66 50.0841 40.2938 51.0312 39.7607 52.104C38.7067 54.2239 37.3259 55.6017 36.2548 55.6017C35.0932 55.6017 33.0362 52.9886 32.2726 50.5429C32.0277 49.7591 32.0289 49.7588 34.3564 50.185ZM46.165 50.8123C47.5004 51.5172 47.8828 51.8564 47.6517 52.1321C47.268 52.5897 43.8286 54.2789 42.7347 54.5468C42.3973 54.6294 42.107 54.2972 42.2341 53.9739L42.8872 52.3115C43.4127 50.9739 43.9607 49.8757 44.1049 49.8715C44.2492 49.8669 45.1763 50.2904 46.165 50.8123ZM59.1439 56.3254C59.8902 56.9611 59.9564 57.1529 59.6892 57.9055C59.5041 58.4265 59.046 58.8802 58.52 59.0635C57.764 59.3269 57.5664 59.2625 56.9497 58.5525C56.141 57.6216 56.2358 56.7243 57.2144 56.0454C58.0546 55.4628 58.147 55.4761 59.1439 56.3254ZM16.119 56.6588C16.5825 57.3595 16.5816 57.4694 16.1083 58.1852C15.8274 58.6092 15.3913 59.0348 15.1388 59.1308C14.4035 59.4102 13.2276 58.7098 13.0135 57.8651C12.5728 56.1257 15.1135 55.139 16.119 56.6588ZM37.7943 65.4521C38.2633 66.1607 38.2707 66.3241 37.866 67.0377C37.5159 67.6554 37.1813 67.8336 36.371 67.8336C35.5607 67.8336 35.2262 67.6554 34.8761 67.0377C34.4714 66.3241 34.4787 66.1607 34.9478 65.4521C35.3158 64.8955 35.7361 64.6623 36.371 64.6623C37.006 64.6623 37.4262 64.8955 37.7943 65.4521Z"/>
</mask>
<path fill-rule="evenodd" clip-rule="evenodd" d="M34.2619 1.4578C33.6889 1.73748 32.8655 2.53693 32.4321 3.23429C31.7154 4.38741 31.48 4.5351 29.8369 4.85916C26.2651 5.56348 21.9121 7.38617 18.7334 9.50817C17.4541 10.362 16.9857 10.5305 16.5426 10.2955C16.2324 10.1309 15.2654 9.99654 14.3935 9.99654C12.9287 9.99654 12.7076 10.0965 11.4762 11.3158C10.245 12.5353 10.1441 12.7543 10.1441 14.2049C10.1441 15.0684 10.2868 16.0391 10.4616 16.3619C10.7168 16.8346 10.5927 17.2176 9.82571 18.3211C7.69248 21.3918 5.85965 25.8819 4.84015 30.534C4.73616 31.0075 4.2473 31.5143 3.5288 31.8931C2.18848 32.5995 1.00736 34.4747 1.00004 35.9069C0.992417 37.4282 2.04912 39.1814 3.44524 39.9643C4.21192 40.3944 4.73341 40.9344 4.83832 41.4067C5.85507 45.9956 7.7614 50.6377 9.89158 53.7108C10.6015 54.7355 10.7156 55.1085 10.4616 55.5788C10.2868 55.9016 10.1441 56.8723 10.1441 57.7358C10.1441 59.1864 10.245 59.4054 11.4762 60.6249C12.7076 61.8442 12.9287 61.9442 14.3935 61.9442C15.2654 61.9442 16.2324 61.8098 16.5426 61.6452C16.9857 61.4102 17.4541 61.5787 18.7334 62.4325C21.9218 64.5609 26.284 66.3851 29.8454 67.0788C31.4867 67.3987 31.7267 67.5457 32.3464 68.6125C33.1296 69.9601 34.9234 71.0072 36.4351 71C37.8608 70.9927 39.7232 69.8393 40.3978 68.5454C40.8982 67.5853 41.1541 67.4183 42.4069 67.2326C45.799 66.73 50.4393 64.9028 53.9309 62.695C55.3981 61.7672 55.5957 61.7237 57.6658 61.8705L57.8667 61.8847C59.1283 61.9739 60.3671 61.5148 61.2659 60.6249C62.1632 59.736 62.6274 58.4994 62.5364 57.2396L62.5251 57.0825C62.4247 55.6916 62.7734 54.3052 63.52 53.1273L63.9807 52.4006C65.7181 49.6598 67.2468 45.8546 67.9611 42.4913C68.2072 41.3321 68.4393 40.3759 68.4768 40.3666C68.5143 40.3572 68.9565 40.1247 69.4597 39.8498C70.632 39.2095 71.7368 37.327 71.7368 35.9704C71.7368 34.5527 70.599 32.6569 69.3953 32.0691C68.5558 31.6593 68.3691 31.3543 68.0855 29.9299C67.3206 26.0876 65.1706 20.9569 63.0865 18.0001C62.5727 17.2713 62.4476 16.638 62.4467 14.7594C62.4455 12.4622 62.4269 12.4058 61.2961 11.2859C60.1631 10.1642 60.1119 10.1476 57.7652 10.1466C55.7009 10.1457 55.2215 10.0391 54.163 9.34569C51.0084 7.27805 45.7487 5.20317 42.4069 4.70815C41.1541 4.52241 40.8982 4.35539 40.3978 3.39527C39.2914 1.27297 36.4683 0.381703 34.2619 1.4578ZM37.7797 4.72356C38.7449 6.18262 37.0892 7.84192 35.5052 7.00231C34.6218 6.53387 34.4022 5.57012 34.9804 4.69638C35.6586 3.67101 37.0926 3.68491 37.7797 4.72356ZM34.3509 9.6764C35.0646 10.0186 35.9737 10.2986 36.371 10.2986C37.5259 10.2986 39.6768 9.11434 40.2416 8.1675C40.6616 7.46379 40.9101 7.33 41.5396 7.47014C46.1573 8.49852 48.5693 9.40518 51.6363 11.2662L52.1763 11.5938C53.0732 12.1379 53.5932 13.1356 53.5256 14.1826C53.3277 17.2441 54.9736 18.8859 58.2903 18.9358C59.5179 18.9542 60.6502 19.6007 61.29 20.6485L61.4126 20.8494C62.9392 23.3501 64.3311 26.714 64.9355 29.3639C65.4046 31.4213 65.4015 31.5346 64.8681 31.8299C63.0088 32.8604 61.9725 35.2295 62.548 37.1325C62.9063 38.3168 63.8706 39.5578 64.8571 40.1044C65.3561 40.3811 65.3722 40.568 65.0371 42.1911C64.5177 44.7069 63.1393 48.1255 61.5901 50.7398L61.2919 51.2429C60.6539 52.3192 59.5023 52.9866 58.2513 53.0049C56.7283 53.0273 56.0281 53.1868 55.377 53.66C54.0352 54.6353 53.3966 56.1037 53.5305 57.9061C53.6012 58.8567 53.1326 59.7665 52.3177 60.261L51.6412 60.6714C48.5693 62.5355 46.1595 63.4419 41.5396 64.4706C40.9101 64.6107 40.6616 64.4769 40.2416 63.7732C39.6768 62.8264 37.5259 61.6421 36.371 61.6421C35.2393 61.6421 33.1088 62.7998 32.501 63.7451C32.1713 64.2582 31.5505 64.503 30.9594 64.353L29.2044 63.9079C26.1645 63.1368 23.3359 61.9339 20.8685 60.3622L20.7612 60.2939C19.811 59.6887 19.2228 58.6517 19.1912 57.5256C19.1052 54.4631 17.3913 52.7863 14.5106 52.9467C13.532 53.0011 12.5981 52.5317 12.0579 51.7139L11.9559 51.5595C10.4481 49.2771 8.99956 45.9521 8.27039 43.1002L7.98664 41.9903C7.75187 41.0721 8.02892 40.0985 8.71198 39.4415C10.9071 37.3304 10.8995 34.4853 8.69337 32.4838C8.01705 31.8701 7.73548 30.9328 7.9617 30.048L8.26399 28.8656C8.99926 25.9904 10.4445 22.669 11.9562 20.3812C12.9153 18.9297 12.9537 18.9077 14.3584 18.9944C17.2674 19.1744 19.1088 17.4447 19.1912 14.455C19.2228 13.3041 19.8237 12.2439 20.7948 11.6254L20.8685 11.5785C23.3359 10.0068 26.1645 8.80386 29.2044 8.0328L30.9594 7.58767C31.5505 7.43773 32.1713 7.68253 32.501 8.19559C32.8048 8.66765 33.637 9.33421 34.3509 9.6764ZM15.5115 12.9458C16.2132 13.4097 16.5825 14.5036 16.247 15.124C15.6575 16.2152 14.7445 16.4758 13.8418 15.8111C12.818 15.0569 12.682 14.1276 13.4801 13.3372C14.122 12.7014 14.9119 12.5492 15.5115 12.9458ZM59.2434 13.3188C60.0753 14.1427 60.0088 14.966 59.0497 15.7129C58.0284 16.5087 57.8524 16.4991 56.9424 15.5975C56.0321 14.6963 56.0223 14.522 56.8259 13.5106C57.5801 12.5607 58.4114 12.4949 59.2434 13.3188ZM32.1015 14.0787C27.3545 15.0394 23.9221 16.869 20.5129 20.2568C17.5874 23.1638 15.9942 25.6494 14.7978 29.1749C14.0525 31.3706 13.9778 32.0045 13.9778 36.1214C13.9778 40.2382 14.0525 40.8722 14.7978 43.0678C15.2489 44.3967 16.136 46.365 16.7691 47.442C18.1927 49.8621 22.2115 53.9007 24.5448 55.2559C32.1698 59.6835 40.5911 59.6835 48.1915 55.2559C50.4293 53.9521 54.5295 49.8905 55.8476 47.6716C56.4121 46.7214 57.3041 44.7531 57.8298 43.2977C58.7411 40.7758 58.7856 40.4391 58.7819 36.1214C58.7786 31.9444 58.7118 31.4026 57.9259 29.1749C57.4569 27.846 56.5109 25.8073 55.8232 24.6446C54.3414 22.1384 50.6296 18.4175 48.1841 16.9868C43.1708 14.0539 37.3899 13.0086 32.1015 14.0787ZM38.1636 17.702C39.2139 18.8868 39.8732 20.0496 40.5127 21.8445C40.9379 23.0384 40.9348 23.0508 40.2581 22.8566C38.7699 22.4292 35.2079 22.3172 33.6465 22.6488C32.7477 22.8397 31.9558 22.94 31.8865 22.8714C31.609 22.5963 33.7178 18.541 34.616 17.6226C35.9111 16.2982 36.9392 16.3212 38.1636 17.702ZM29.8628 19.8877C29.3416 21.1749 28.8787 22.2837 28.8341 22.351C28.7265 22.5141 26.6085 21.5603 25.5469 20.8708C25.1536 20.6151 25.1586 20.0375 25.5565 19.7888L25.9678 19.5316C27.2605 18.7237 29.8433 17.5933 30.4648 17.5637C30.667 17.554 30.4169 18.519 29.8628 19.8877ZM45.4394 18.8162C48.2674 20.1898 48.2967 20.3284 46.003 21.506C44.9195 22.0623 43.9866 22.4525 43.9302 22.3731C43.8735 22.2933 43.3956 21.1632 42.8683 19.8612L42.2242 18.2709C42.0929 17.9467 42.384 17.6101 42.7237 17.6932C43.1714 17.8029 44.3934 18.3082 45.4394 18.8162ZM23.6592 23.1C24.1932 23.4963 25.2475 24.1245 26.0022 24.4963C26.757 24.8678 27.406 25.1976 27.4441 25.2287C27.4822 25.2601 26.861 25.9741 26.0635 26.8155C24.4359 28.5322 23.1243 30.9595 22.5934 33.2368C22.3853 34.1301 21.589 34.7623 20.6717 34.7623H19.5455H17.8947C17.3195 34.7623 16.8533 34.296 16.8533 33.7209C16.8533 32.1585 18.2128 28.2039 19.4544 26.1547C20.4028 24.5896 22.2298 22.3794 22.5754 22.3794C22.6376 22.3794 23.1252 22.7038 23.6592 23.1ZM51.6037 23.7929C53.7125 26.1652 55.8888 31.3084 55.8888 33.9196C55.8888 34.385 55.5115 34.7623 55.0461 34.7623H53.1892H52.5213C51.3219 34.7623 50.2707 33.9598 49.9544 32.8028C49.346 30.5778 47.8109 27.8726 46.2558 26.2854C45.7408 25.7598 45.901 24.8827 46.5686 24.573L46.6938 24.515C47.5153 24.1338 48.5824 23.5023 49.0649 23.1115C49.5473 22.7207 50.0331 22.3963 50.1447 22.3903C50.2564 22.3842 50.913 23.0155 51.6037 23.7929ZM41.5008 26.5992C49.7215 30.9553 49.4278 42.3968 40.994 46.3399C39.2136 47.1726 38.6436 47.2895 36.371 47.2895C34.099 47.2895 33.5285 47.1723 31.7505 46.3412C29.1751 45.137 27.4185 43.3967 26.2063 40.8483C25.3749 39.1014 25.2529 38.5248 25.2694 36.4234C25.3005 32.4702 26.9062 29.4011 30.072 27.2441C32.2092 25.7877 33.7636 25.3833 36.8285 25.486C39.2682 25.5678 39.7872 25.6914 41.5008 26.5992ZM35.1713 28.0804C34.9926 28.4114 34.8462 28.8916 34.8462 29.1474C34.8462 29.4032 34.4369 29.8221 33.9365 30.0782C30.6655 31.7535 32.1573 37.4805 35.8648 37.4805C36.2737 37.4805 36.9163 37.7275 37.2926 38.0292C37.8754 38.4965 37.9242 38.6759 37.6208 39.2373C37.1243 40.1561 35.8456 40.0899 34.7925 39.0905C34.0493 38.3856 33.8465 38.3279 33.1747 38.6309C31.8582 39.2252 32.2488 41.2911 33.8334 42.1135C34.2893 42.3499 34.7791 42.9712 34.9694 43.5538C35.2652 44.4599 35.4266 44.578 36.371 44.578C37.3146 44.578 37.4771 44.4596 37.7717 43.5568C37.955 42.9954 38.4091 42.3747 38.7812 42.1775C42.0428 40.4487 40.5829 34.7623 36.8773 34.7623C36.4683 34.7623 35.8096 34.4989 35.4137 34.1773C34.8288 33.7019 34.7565 33.4893 35.0295 33.0447C35.4662 32.3322 37.0627 32.1688 37.5781 32.7837C38.1404 33.4548 39.6335 33.3826 40.0211 32.6653C40.4396 31.8916 39.8647 30.6255 38.8577 30.103C38.4448 29.8886 37.9565 29.2525 37.7726 28.6889C37.497 27.8445 37.2682 27.6485 36.4674 27.5718C35.7486 27.5026 35.4122 27.6346 35.1713 28.0804ZM6.73886 34.6402C7.70926 35.3135 7.54854 36.8417 6.44335 37.453C5.72394 37.851 5.55651 37.8435 4.84229 37.3799C3.81181 36.7115 3.75052 35.3026 4.72274 34.6285C5.5739 34.0377 5.87276 34.0395 6.73886 34.6402ZM68.0367 34.6402C69.0071 35.3135 68.8464 36.8417 67.7412 37.453C67.0218 37.851 66.8544 37.8435 66.1401 37.3799C65.1096 36.7115 65.0484 35.3026 66.0206 34.6285C66.8717 34.0377 67.1706 34.0395 68.0367 34.6402ZM22.5876 39.2171C23.1127 41.7018 24.2325 43.8915 25.8583 45.6127L26.2582 46.0361C26.7621 46.5696 26.6075 47.4383 25.9504 47.7652C25.224 48.1267 24.1697 48.764 23.6074 49.182C23.0199 49.6184 22.2012 49.5582 21.6839 49.0404L21.5647 48.921C19.3497 46.7036 16.8533 41.1935 16.8533 38.5218C16.8533 37.9467 17.3195 37.4805 17.8947 37.4805H19.537H20.4457C21.4804 37.4805 22.3737 38.2048 22.5876 39.2171ZM55.8888 38.3231C55.8888 40.9875 53.6622 46.1865 51.5149 48.5353L51.0775 49.0138C50.5791 49.5589 49.749 49.6385 49.1561 49.198C48.5818 48.7712 47.5221 48.1285 46.8005 47.7697C46.1424 47.4422 45.9795 46.5766 46.4736 46.0323L46.8523 45.6151C48.5364 43.7601 49.6687 41.5586 50.1283 39.2449C50.332 38.2193 51.2319 37.4805 52.2775 37.4805H53.1837H55.0461C55.5115 37.4805 55.8888 37.8577 55.8888 38.3231ZM29.8451 52.2876C30.3654 53.612 30.6792 54.6957 30.5429 54.6957C30.0119 54.6957 27.1648 53.4592 25.9571 52.7044C25.3722 52.3387 25.3749 51.4859 25.9621 51.1238L26.3356 50.8935C27.2425 50.3345 28.1904 49.8775 28.442 49.8781C28.7308 49.879 29.248 50.767 29.8451 52.2876ZM34.3564 50.185C35.6104 50.4145 36.7294 50.4121 38.2661 50.1759C39.4499 49.9938 40.489 49.9144 40.5744 49.9992C40.66 50.0841 40.2938 51.0312 39.7607 52.104C38.7067 54.2239 37.3259 55.6017 36.2548 55.6017C35.0932 55.6017 33.0362 52.9886 32.2726 50.5429C32.0277 49.7591 32.0289 49.7588 34.3564 50.185ZM46.165 50.8123C47.5004 51.5172 47.8828 51.8564 47.6517 52.1321C47.268 52.5897 43.8286 54.2789 42.7347 54.5468C42.3973 54.6294 42.107 54.2972 42.2341 53.9739L42.8872 52.3115C43.4127 50.9739 43.9607 49.8757 44.1049 49.8715C44.2492 49.8669 45.1763 50.2904 46.165 50.8123ZM59.1439 56.3254C59.8902 56.9611 59.9564 57.1529 59.6892 57.9055C59.5041 58.4265 59.046 58.8802 58.52 59.0635C57.764 59.3269 57.5664 59.2625 56.9497 58.5525C56.141 57.6216 56.2358 56.7243 57.2144 56.0454C58.0546 55.4628 58.147 55.4761 59.1439 56.3254ZM16.119 56.6588C16.5825 57.3595 16.5816 57.4694 16.1083 58.1852C15.8274 58.6092 15.3913 59.0348 15.1388 59.1308C14.4035 59.4102 13.2276 58.7098 13.0135 57.8651C12.5728 56.1257 15.1135 55.139 16.119 56.6588ZM37.7943 65.4521C38.2633 66.1607 38.2707 66.3241 37.866 67.0377C37.5159 67.6554 37.1813 67.8336 36.371 67.8336C35.5607 67.8336 35.2262 67.6554 34.8761 67.0377C34.4714 66.3241 34.4787 66.1607 34.9478 65.4521C35.3158 64.8955 35.7361 64.6623 36.371 64.6623C37.006 64.6623 37.4262 64.8955 37.7943 65.4521Z" stroke="url(#paint0_linear_6_167)" stroke-width="1.4" mask="url(#path-2-outside-1_6_167)"/>
<defs>
<linearGradient id="paint0_linear_6_167" x1="36.3684" y1="1" x2="36.3684" y2="71" gradientUnits="userSpaceOnUse">
<stop stop-color="#6810C0"/>
<stop offset="1" stop-color="#9B10C0" stop-opacity="0.5"/>
</linearGradient>
</defs>
</svg>
