<svg width="89" height="84" viewBox="0 0 89 84" fill="none" xmlns="http://www.w3.org/2000/svg">
<mask id="path-1-outside-1_7_212" maskUnits="userSpaceOnUse" x="-0.000244141" y="2.81177" width="84" height="81" fill="black">
<rect fill="white" x="-0.000244141" y="2.81177" width="84" height="81"/>
<path fill-rule="evenodd" clip-rule="evenodd" d="M67.9978 4.9383C59.8249 8.50673 52.775 14.0175 47.8579 20.6816C44.8863 24.7085 43.4334 27.6674 41.1178 34.4067C40.0062 37.6421 38.6232 41.4123 38.0446 42.785L37.1114 44.9987C37.034 45.1821 36.9018 45.3372 36.7329 45.4425L33.0833 47.7182C28.5148 50.5668 28.3879 50.8755 30.7837 53.3077L31.8441 54.3843C32.1642 54.7094 32.2129 55.2142 31.9609 55.5944L29.4507 59.3807C27.8324 61.8222 26.406 63.9574 26.2808 64.126C26.156 64.2943 23.9884 63.8344 21.4639 63.1042C13.425 60.7783 11.4292 60.6709 7.98376 62.3798C6.73986 62.9965 5.46886 63.3046 3.89803 63.3691C2.18351 63.44 1.52038 63.618 1.2259 64.0871C0.568827 65.1335 1.38027 65.9457 3.18427 66.0466C6.97623 66.2591 10.7957 67.0224 15.3253 68.4731C21.2432 70.3687 23.5534 70.7666 28.6392 70.7666C33.576 70.7666 36.2492 70.337 40.8333 68.8078C46.8511 66.8003 48.4151 66.4698 52.8827 66.263C58.1581 66.0188 62.5537 66.673 67.3839 68.4214C71.4703 69.9006 75.7963 70.7719 79.0549 70.7719C81.5132 70.7719 82.2957 70.4133 82.2957 69.287C82.2957 68.3743 81.188 67.9197 78.9637 67.9197C76.1111 67.9197 72.2985 67.1033 67.4562 65.4555C65.1075 64.6558 62.1908 63.8978 60.9754 63.7709C59.7596 63.644 58.7653 63.4536 58.7653 63.3484C58.7653 63.2433 59.1108 62.1027 59.5325 60.8143C60.063 59.1953 60.7661 57.9764 61.8089 56.8676C68.8099 49.4238 74.9054 37.6553 76.9458 27.6438C77.821 23.3474 77.9027 16.7074 77.1254 13.0125C76.2766 8.97591 74.6095 5.32727 73.223 4.47019C71.6635 3.50651 71.1772 3.55001 67.9978 4.9383ZM69.0074 8.11313C68.9119 8.35842 66.7503 12.0227 64.2037 16.2564C58.5143 25.7146 58.2972 26.319 57.7178 34.3119C57.5506 36.6193 57.3135 38.752 57.1905 39.0518C56.8144 39.9692 57.8098 40.9624 58.8448 40.7025C59.93 40.4301 60.5465 38.4518 60.5504 35.2292C60.5532 32.9685 61.3626 27.1975 61.8481 25.9771C62.5619 24.1831 72.5053 8.07356 72.7488 8.31706C73.4059 8.97413 74.5114 14.6 74.6883 18.1849C74.9321 23.1284 74.2194 27.7159 72.3285 33.3746C70.1487 39.8986 66.1089 47.3427 62.2182 52.005L61.951 52.3251C61.4525 52.9224 60.4883 52.7142 60.2807 51.9644L60.1932 51.6484C59.2537 48.2551 58.0105 46.624 56.6846 47.0447C55.5349 47.4098 55.5242 48.1774 56.6408 50.2994C57.9467 52.7822 58.069 55.9452 56.9934 59.4149C55.9327 62.8354 55.5081 63.285 53.3408 63.285H52.5181C51.9732 63.285 51.5364 62.8339 51.5539 62.2892L51.7589 55.9267C52.0053 48.2918 51.9058 47.598 50.5653 47.598C49.2922 47.598 49.1253 48.4497 48.8953 56.1203L48.6914 62.9086C48.6782 63.3487 48.3686 63.7241 47.939 63.8208L47.7456 63.8643C44.6806 64.5549 42.555 65.1624 40.5021 65.935C37.0556 67.2324 32.9246 67.9672 29.7537 67.847L28.8 67.8109C28.0442 67.7823 27.6448 66.9037 28.1201 66.3154V66.3154C30.4953 63.3762 34.1817 57.4505 36.5943 52.6938C39.6793 46.6112 41.2062 42.945 43.6523 35.7458C46.6689 26.8688 48.7645 23.3387 54.2942 17.8223C58.0027 14.1227 61.3743 11.5996 65.9225 9.1203C68.7465 7.5812 69.2823 7.40615 69.0074 8.11313ZM70.2449 16.0846C70.0546 16.4247 70.0549 17.3317 70.2453 18.3129C70.8314 21.3315 69.6791 27.4727 67.524 32.8177C66.5674 35.1896 66.3578 36.0766 66.632 36.589C67.0819 37.43 68.1133 37.4514 68.8242 36.635C69.6075 35.7355 71.497 30.6065 72.3759 26.9935C73.239 23.4472 73.4283 17.6155 72.7228 16.3131C72.2108 15.3687 70.7227 15.2311 70.2449 16.0846ZM66.1239 20.7697C66.0266 21.113 65.8369 22.261 65.7021 23.3213C65.4012 25.6879 64.4989 28.8713 63.2942 31.8162C62.4025 33.996 62.3979 34.0541 63.0485 34.8466C63.584 35.4987 63.8365 35.5793 64.3581 35.2649C66.3802 34.0455 69.6488 22.1958 68.3839 20.6713C67.7778 19.9411 66.3403 20.0039 66.1239 20.7697ZM54.7412 20.7237C54.2877 21.1768 54.4724 22.542 55.0518 23.0229C55.8646 23.6974 56.8044 22.9944 56.8044 21.7113C56.8044 20.8731 56.6354 20.6609 55.8999 20.575C55.4022 20.5169 54.8806 20.5839 54.7412 20.7237ZM34.5104 50.7176C34.5043 50.8648 34.2847 51.2673 34.0227 51.6128C33.6138 52.1515 33.4861 52.1683 33.1228 51.7308C32.787 51.3258 32.8323 51.1436 33.3435 50.8463C34.1129 50.3985 34.5261 50.3532 34.5104 50.7176ZM19.2534 65.474C21.712 66.1967 22.9687 66.7218 22.6792 66.9054C22.4275 67.0652 21.8539 67.1981 21.4043 67.2013C20.4524 67.2078 11.7044 64.4176 11.7044 64.1078C11.7044 63.6825 15.485 64.3667 19.2534 65.474ZM7.87182 74.9297C7.62689 75.0288 7.42617 75.4777 7.42617 75.9276C7.42617 77.118 8.02156 77.4225 10.8356 77.6717C13.4756 77.9059 15.8732 78.625 19.2502 80.1959C23.3752 82.115 29.6528 82.709 34.6402 81.6523C35.98 81.3681 38.5035 80.4786 40.2483 79.675C46.3537 76.8624 52.9005 76.8645 59.1557 79.681C60.9287 80.4793 63.4286 81.3759 64.7107 81.6733C69.1554 82.704 72.5124 81.9278 71.3822 80.1306C71.0878 79.6618 70.2906 79.4475 68.1757 79.2678C65.4864 79.04 63.507 78.4382 58.5678 76.3483C55.6472 75.1122 51.7914 74.5589 47.8914 74.8159C44.2424 75.0562 41.6872 75.7326 38.6653 77.2574C34.8983 79.1587 29.4742 79.8133 24.6939 78.9434C23.5303 78.732 21.1394 77.9138 19.3807 77.1258C15.0026 75.1646 9.76637 74.1653 7.87182 74.9297Z"/>
</mask>
<path fill-rule="evenodd" clip-rule="evenodd" d="M67.9978 4.9383C59.8249 8.50673 52.775 14.0175 47.8579 20.6816C44.8863 24.7085 43.4334 27.6674 41.1178 34.4067C40.0062 37.6421 38.6232 41.4123 38.0446 42.785L37.1114 44.9987C37.034 45.1821 36.9018 45.3372 36.7329 45.4425L33.0833 47.7182C28.5148 50.5668 28.3879 50.8755 30.7837 53.3077L31.8441 54.3843C32.1642 54.7094 32.2129 55.2142 31.9609 55.5944L29.4507 59.3807C27.8324 61.8222 26.406 63.9574 26.2808 64.126C26.156 64.2943 23.9884 63.8344 21.4639 63.1042C13.425 60.7783 11.4292 60.6709 7.98376 62.3798C6.73986 62.9965 5.46886 63.3046 3.89803 63.3691C2.18351 63.44 1.52038 63.618 1.2259 64.0871C0.568827 65.1335 1.38027 65.9457 3.18427 66.0466C6.97623 66.2591 10.7957 67.0224 15.3253 68.4731C21.2432 70.3687 23.5534 70.7666 28.6392 70.7666C33.576 70.7666 36.2492 70.337 40.8333 68.8078C46.8511 66.8003 48.4151 66.4698 52.8827 66.263C58.1581 66.0188 62.5537 66.673 67.3839 68.4214C71.4703 69.9006 75.7963 70.7719 79.0549 70.7719C81.5132 70.7719 82.2957 70.4133 82.2957 69.287C82.2957 68.3743 81.188 67.9197 78.9637 67.9197C76.1111 67.9197 72.2985 67.1033 67.4562 65.4555C65.1075 64.6558 62.1908 63.8978 60.9754 63.7709C59.7596 63.644 58.7653 63.4536 58.7653 63.3484C58.7653 63.2433 59.1108 62.1027 59.5325 60.8143C60.063 59.1953 60.7661 57.9764 61.8089 56.8676C68.8099 49.4238 74.9054 37.6553 76.9458 27.6438C77.821 23.3474 77.9027 16.7074 77.1254 13.0125C76.2766 8.97591 74.6095 5.32727 73.223 4.47019C71.6635 3.50651 71.1772 3.55001 67.9978 4.9383ZM69.0074 8.11313C68.9119 8.35842 66.7503 12.0227 64.2037 16.2564C58.5143 25.7146 58.2972 26.319 57.7178 34.3119C57.5506 36.6193 57.3135 38.752 57.1905 39.0518C56.8144 39.9692 57.8098 40.9624 58.8448 40.7025C59.93 40.4301 60.5465 38.4518 60.5504 35.2292C60.5532 32.9685 61.3626 27.1975 61.8481 25.9771C62.5619 24.1831 72.5053 8.07356 72.7488 8.31706C73.4059 8.97413 74.5114 14.6 74.6883 18.1849C74.9321 23.1284 74.2194 27.7159 72.3285 33.3746C70.1487 39.8986 66.1089 47.3427 62.2182 52.005L61.951 52.3251C61.4525 52.9224 60.4883 52.7142 60.2807 51.9644L60.1932 51.6484C59.2537 48.2551 58.0105 46.624 56.6846 47.0447C55.5349 47.4098 55.5242 48.1774 56.6408 50.2994C57.9467 52.7822 58.069 55.9452 56.9934 59.4149C55.9327 62.8354 55.5081 63.285 53.3408 63.285H52.5181C51.9732 63.285 51.5364 62.8339 51.5539 62.2892L51.7589 55.9267C52.0053 48.2918 51.9058 47.598 50.5653 47.598C49.2922 47.598 49.1253 48.4497 48.8953 56.1203L48.6914 62.9086C48.6782 63.3487 48.3686 63.7241 47.939 63.8208L47.7456 63.8643C44.6806 64.5549 42.555 65.1624 40.5021 65.935C37.0556 67.2324 32.9246 67.9672 29.7537 67.847L28.8 67.8109C28.0442 67.7823 27.6448 66.9037 28.1201 66.3154V66.3154C30.4953 63.3762 34.1817 57.4505 36.5943 52.6938C39.6793 46.6112 41.2062 42.945 43.6523 35.7458C46.6689 26.8688 48.7645 23.3387 54.2942 17.8223C58.0027 14.1227 61.3743 11.5996 65.9225 9.1203C68.7465 7.5812 69.2823 7.40615 69.0074 8.11313ZM70.2449 16.0846C70.0546 16.4247 70.0549 17.3317 70.2453 18.3129C70.8314 21.3315 69.6791 27.4727 67.524 32.8177C66.5674 35.1896 66.3578 36.0766 66.632 36.589C67.0819 37.43 68.1133 37.4514 68.8242 36.635C69.6075 35.7355 71.497 30.6065 72.3759 26.9935C73.239 23.4472 73.4283 17.6155 72.7228 16.3131C72.2108 15.3687 70.7227 15.2311 70.2449 16.0846ZM66.1239 20.7697C66.0266 21.113 65.8369 22.261 65.7021 23.3213C65.4012 25.6879 64.4989 28.8713 63.2942 31.8162C62.4025 33.996 62.3979 34.0541 63.0485 34.8466C63.584 35.4987 63.8365 35.5793 64.3581 35.2649C66.3802 34.0455 69.6488 22.1958 68.3839 20.6713C67.7778 19.9411 66.3403 20.0039 66.1239 20.7697ZM54.7412 20.7237C54.2877 21.1768 54.4724 22.542 55.0518 23.0229C55.8646 23.6974 56.8044 22.9944 56.8044 21.7113C56.8044 20.8731 56.6354 20.6609 55.8999 20.575C55.4022 20.5169 54.8806 20.5839 54.7412 20.7237ZM34.5104 50.7176C34.5043 50.8648 34.2847 51.2673 34.0227 51.6128C33.6138 52.1515 33.4861 52.1683 33.1228 51.7308C32.787 51.3258 32.8323 51.1436 33.3435 50.8463C34.1129 50.3985 34.5261 50.3532 34.5104 50.7176ZM19.2534 65.474C21.712 66.1967 22.9687 66.7218 22.6792 66.9054C22.4275 67.0652 21.8539 67.1981 21.4043 67.2013C20.4524 67.2078 11.7044 64.4176 11.7044 64.1078C11.7044 63.6825 15.485 64.3667 19.2534 65.474ZM7.87182 74.9297C7.62689 75.0288 7.42617 75.4777 7.42617 75.9276C7.42617 77.118 8.02156 77.4225 10.8356 77.6717C13.4756 77.9059 15.8732 78.625 19.2502 80.1959C23.3752 82.115 29.6528 82.709 34.6402 81.6523C35.98 81.3681 38.5035 80.4786 40.2483 79.675C46.3537 76.8624 52.9005 76.8645 59.1557 79.681C60.9287 80.4793 63.4286 81.3759 64.7107 81.6733C69.1554 82.704 72.5124 81.9278 71.3822 80.1306C71.0878 79.6618 70.2906 79.4475 68.1757 79.2678C65.4864 79.04 63.507 78.4382 58.5678 76.3483C55.6472 75.1122 51.7914 74.5589 47.8914 74.8159C44.2424 75.0562 41.6872 75.7326 38.6653 77.2574C34.8983 79.1587 29.4742 79.8133 24.6939 78.9434C23.5303 78.732 21.1394 77.9138 19.3807 77.1258C15.0026 75.1646 9.76637 74.1653 7.87182 74.9297Z" stroke="url(#paint0_linear_7_212)" stroke-width="1.86364" mask="url(#path-1-outside-1_7_212)"/>
<defs>
<linearGradient id="paint0_linear_7_212" x1="84.9333" y1="-44.2085" x2="84.9333" y2="81.964" gradientUnits="userSpaceOnUse">
<stop stop-color="#6810C0"/>
<stop offset="1" stop-color="#9B10C0" stop-opacity="0.5"/>
</linearGradient>
</defs>
</svg>
