<svg width="44" height="36" viewBox="0 0 44 36" fill="none" xmlns="http://www.w3.org/2000/svg">
<path d="M43.2774 4.69009C41.668 5.39605 39.9531 5.86398 38.1652 6.09119C40.0045 4.99303 41.4083 3.26734 42.0683 1.18732C40.3534 2.20975 38.4601 2.93194 36.4422 3.33496C34.8139 1.60116 32.4932 0.527344 29.9615 0.527344C25.0495 0.527344 21.095 4.51427 21.095 9.40191C21.095 10.1052 21.1545 10.7814 21.3006 11.4251C13.9245 11.0654 7.39773 7.53016 3.01319 2.14484C2.24772 3.47291 1.79872 4.99303 1.79872 6.62945C1.79872 9.70215 3.38104 12.4259 5.73966 14.0028C4.31421 13.9758 2.91581 13.5619 1.73109 12.9101C1.73109 12.9371 1.73109 12.9723 1.73109 13.0075C1.73109 17.319 4.80649 20.9002 8.8394 21.7251C8.11721 21.9226 7.3301 22.0173 6.51324 22.0173C5.94523 22.0173 5.3718 21.9848 4.83354 21.8658C5.9831 25.3794 9.24513 27.9625 13.1239 28.0463C10.1053 30.4077 6.27251 31.8304 2.1233 31.8304C1.3957 31.8304 0.697848 31.798 0 31.7087C3.93013 34.2431 8.58785 35.6902 13.6107 35.6902C29.9371 35.6902 38.8631 22.166 38.8631 10.4433C38.8631 10.0511 38.8496 9.67239 38.8306 9.29642C40.5915 8.04679 42.071 6.4861 43.2774 4.69009Z" fill="url(#paint0_linear_9_410)"/>
<defs>
<linearGradient id="paint0_linear_9_410" x1="-35.1484" y1="18.2517" x2="49.4152" y2="18.3967" gradientUnits="userSpaceOnUse">
<stop stop-color="#3A0FBF"/>
<stop offset="0.152017" stop-color="#4A0FBF"/>
<stop offset="0.330382" stop-color="#5E0FBF"/>
<stop offset="0.575178" stop-color="#780FBF"/>
<stop offset="0.728963" stop-color="#890FBF"/>
<stop offset="1" stop-color="#A60FBF"/>
</linearGradient>
</defs>
</svg>
