<svg width="34" height="34" viewBox="0 0 34 34" fill="none" xmlns="http://www.w3.org/2000/svg">
<g clip-path="url(#clip0_117_4965)">
<path fill-rule="evenodd" clip-rule="evenodd" d="M12.7587 6H21.2413C22.0462 5.99999 22.7106 5.99998 23.2518 6.04419C23.8139 6.09012 24.3306 6.18868 24.8159 6.43597C25.5686 6.81947 26.1805 7.43139 26.564 8.18404C26.8113 8.66937 26.9098 9.18608 26.9558 9.74817C27 10.2894 27 10.9537 27 11.7587V17.2413C27 18.0463 27 18.7106 26.9558 19.2518C26.9098 19.8139 26.8113 20.3306 26.564 20.816C26.1805 21.5686 25.5686 22.1805 24.8159 22.564C24.3306 22.8113 23.8139 22.9099 23.2518 22.9558C22.7106 23 22.0462 23 21.2413 23H19.086C18.9697 23 18.912 23.0002 18.8701 23.0019L18.867 23.0021L18.8646 23.0039C18.8314 23.0297 18.7873 23.0668 18.6985 23.142L13.3043 27.7063C13.2981 27.7115 13.2918 27.7169 13.2853 27.7224C13.1982 27.7962 13.0877 27.8897 12.9859 27.9612C12.8942 28.0256 12.6358 28.2034 12.2754 28.2107C11.89 28.2186 11.5225 28.0481 11.2795 27.7488C11.0523 27.4689 11.0211 27.1568 11.011 27.0453C10.9998 26.9214 10.9999 26.7766 10.9999 26.6624C10.9999 26.6539 11 26.6457 11 26.6376V22.9938C10.6586 22.9839 10.3654 22.959 10.0958 22.8965C8.6092 22.5515 7.44845 21.3908 7.10349 19.9042C6.99934 19.4554 6.99959 18.9415 6.99991 18.2488C6.99993 18.2095 6.99995 18.1696 6.99995 18.129L6.99995 11.7587C6.99994 10.9537 6.99993 10.2894 7.04414 9.74817C7.09007 9.18608 7.18863 8.66937 7.43593 8.18404C7.81942 7.43139 8.43134 6.81947 9.18399 6.43597C9.66932 6.18868 10.186 6.09012 10.7481 6.04419C11.2893 5.99998 11.9537 5.99999 12.7587 6ZM10.911 8.03755C10.4726 8.07337 10.2484 8.1383 10.092 8.21799C9.71565 8.40973 9.40968 8.7157 9.21794 9.09202C9.13825 9.24842 9.07332 9.47262 9.0375 9.91104C9.00073 10.3611 8.99995 10.9434 8.99995 11.8V18.129C8.99995 18.9945 9.00648 19.2571 9.05172 19.4521C9.2242 20.1954 9.80458 20.7758 10.5479 20.9482C10.7428 20.9935 11.0054 21 11.8709 21L11.8728 21C11.8819 21 11.9124 20.9999 11.9424 21.0011C11.9796 21.0026 12.056 21.007 12.1486 21.0285C12.5574 21.1233 12.8766 21.4425 12.9715 21.8513C12.993 21.944 12.9974 22.0204 12.9988 22.0576C13 22.0875 13 22.118 13 22.1271L13 22.129V25.3439L17.4066 21.6152C17.4178 21.6057 17.4293 21.596 17.441 21.586C17.5697 21.4766 17.7317 21.3389 17.9222 21.2368C18.0876 21.1483 18.2646 21.0834 18.448 21.0442C18.6594 20.999 18.872 20.9995 19.0409 20.9999C19.0563 21 19.0714 21 19.086 21H21.2C22.0565 21 22.6388 20.9992 23.0889 20.9624C23.5273 20.9266 23.7515 20.8617 23.9079 20.782C24.2843 20.5903 24.5902 20.2843 24.782 19.908C24.8617 19.7516 24.9266 19.5274 24.9624 19.089C24.9992 18.6389 25 18.0566 25 17.2V11.8C25 10.9434 24.9992 10.3611 24.9624 9.91104C24.9266 9.47262 24.8617 9.24842 24.782 9.09202C24.5902 8.7157 24.2843 8.40973 23.9079 8.21799C23.7515 8.1383 23.5273 8.07337 23.0889 8.03755C22.6388 8.00078 22.0565 8 21.2 8H12.8C11.9434 8 11.3611 8.00078 10.911 8.03755Z" fill="#CCCCCC"/>
</g>
<defs>
<clipPath id="clip0_117_4965">
<rect width="24" height="24" fill="white" transform="translate(5 5)"/>
</clipPath>
</defs>
</svg>
