<svg width="16" height="16" viewBox="0 0 16 16" fill="none" xmlns="http://www.w3.org/2000/svg">
<path d="M7.55163 2.15849C7.73504 1.78687 8.26496 1.78687 8.44837 2.15849L9.94091 5.18272C10.0137 5.33029 10.1545 5.43258 10.3174 5.45624L13.6548 5.9412C14.0649 6.00079 14.2287 6.50478 13.9319 6.79404L11.5169 9.14808C11.3991 9.26294 11.3453 9.42844 11.3731 9.59064L11.9432 12.9146C12.0133 13.323 11.5846 13.6345 11.2178 13.4417L8.23267 11.8723C8.08701 11.7957 7.91299 11.7957 7.76733 11.8723L4.78224 13.4417C4.41543 13.6345 3.98671 13.323 4.05676 12.9146L4.62687 9.59064C4.65468 9.42844 4.60091 9.26294 4.48307 9.14808L2.06808 6.79404C1.77132 6.50478 1.93508 6.00079 2.34519 5.9412L5.68262 5.45624C5.84547 5.43258 5.98626 5.33029 6.05909 5.18272L7.55163 2.15849Z" fill="#FE8B25"/>
</svg>
