<svg width="24" height="24" viewBox="0 0 24 24" fill="none" xmlns="http://www.w3.org/2000/svg">
<path d="M11.5516 5.65849C11.735 5.28687 12.265 5.28687 12.4484 5.65849L13.9409 8.68272C14.0137 8.83029 14.1545 8.93258 14.3174 8.95624L17.6548 9.4412C18.0649 9.50079 18.2287 10.0048 17.9319 10.294L15.5169 12.6481C15.3991 12.7629 15.3453 12.9284 15.3731 13.0906L15.9432 16.4146C16.0133 16.823 15.5846 17.1345 15.2178 16.9417L12.2327 15.3723C12.087 15.2957 11.913 15.2957 11.7673 15.3723L8.78224 16.9417C8.41543 17.1345 7.98671 16.823 8.05676 16.4146L8.62687 13.0906C8.65468 12.9284 8.60091 12.7629 8.48307 12.6481L6.06808 10.294C5.77132 10.0048 5.93508 9.50079 6.34519 9.4412L9.68262 8.95624C9.84547 8.93258 9.98626 8.83029 10.0591 8.68272L11.5516 5.65849Z" fill="#FE8B25"/>
</svg>
