<svg width="16" height="16" viewBox="0 0 16 16" fill="none" xmlns="http://www.w3.org/2000/svg">
<g clip-path="url(#clip0_305_1842)">
<path d="M13.38 6.62792L6.42319 2.45382C5.63005 1.97794 5.23349 1.74 4.90719 1.77041C4.62267 1.79693 4.36309 1.94391 4.19396 2.17424C4 2.43839 4 2.90086 4 3.82581V12.174C4 13.099 4 13.5614 4.19396 13.8256C4.36309 14.0559 4.62267 14.2029 4.90719 14.2294C5.23349 14.2598 5.63005 14.0219 6.42319 13.546L13.38 9.3719C14.1342 8.91936 14.5114 8.6931 14.6393 8.40049C14.7509 8.1451 14.7509 7.85471 14.6393 7.59933C14.5114 7.30672 14.1342 7.08045 13.38 6.62792Z" fill="white"/>
</g>
<defs>
<clipPath id="clip0_305_1842">
<rect width="16" height="16" fill="white"/>
</clipPath>
</defs>
</svg>
