<svg width="16" height="16" viewBox="0 0 16 16" fill="none" xmlns="http://www.w3.org/2000/svg">
<g clip-path="url(#clip0_117_3501)">
<path fill-rule="evenodd" clip-rule="evenodd" d="M3.43071 4.3734C2.63942 5.36907 2.16671 6.62929 2.16671 7.99992C2.16671 11.2216 4.77838 13.8333 8.00004 13.8333C9.37067 13.8333 10.6309 13.3605 11.6266 12.5693L3.43071 4.3734ZM4.37352 3.43059L12.5694 11.6264C13.3607 10.6308 13.8334 9.37055 13.8334 7.99992C13.8334 4.77826 11.2217 2.16659 8.00004 2.16659C6.62941 2.16659 5.36919 2.6393 4.37352 3.43059ZM0.833374 7.99992C0.833374 4.04188 4.042 0.833252 8.00004 0.833252C11.9581 0.833252 15.1667 4.04188 15.1667 7.99992C15.1667 11.958 11.9581 15.1666 8.00004 15.1666C4.042 15.1666 0.833374 11.958 0.833374 7.99992Z" fill="black"/>
</g>
<defs>
<clipPath id="clip0_117_3501">
<rect width="16" height="16" fill="white"/>
</clipPath>
</defs>
</svg>
