<svg width="240" height="113" viewBox="0 0 240 113" fill="none" xmlns="http://www.w3.org/2000/svg">
<path d="M39.862 95.1079V81.5929H6.1V72.9739L30.325 21.6679H40.627L16.402 72.9739H39.862V52.3189H49.042V72.9739H56.692V81.5929H49.042V95.1079H39.862Z" fill="white"/>
<path d="M217.116 95.1079V81.5929H183.354V72.9739L207.579 21.6679H217.881L193.656 72.9739H217.116V52.3189H226.296V72.9739H233.946V81.5929H226.296V95.1079H217.116Z" fill="white"/>
<circle cx="120.008" cy="56.1082" r="54.0076" fill="white"/>
<path fill-rule="evenodd" clip-rule="evenodd" d="M91.2578 42.4426V73.1404C91.2578 73.3509 91.5384 73.4444 91.7371 73.5496C91.9592 73.6782 92.1112 73.7717 92.2982 73.8769L95.7234 75.8525C97.1729 76.6474 98.8446 77.7112 100.282 78.4711L100.423 58.3176L105.005 71.574C105.274 72.3923 108.664 82.4106 109.085 83.4276C109.237 83.8017 109.857 84.0238 110.441 84.3628C111.107 84.7603 111.704 85.0759 112.358 85.4734L117.128 88.2439C117.408 88.4075 117.841 88.6881 118.156 88.7699V57.7798C117.455 57.3122 116.672 56.9148 115.924 56.4589C115.538 56.2251 115.199 56.0497 114.801 55.8042C114.158 55.4184 109.494 52.6713 109.143 52.5895V72.9768L108.933 72.4507C108.863 72.2403 108.804 72.1468 108.734 71.913L106.77 66.2434C106.513 65.4718 106.233 64.6886 105.975 63.9287C105.718 63.1455 105.461 62.4675 105.204 61.6726L101.288 50.3216C101.031 49.5501 100.773 48.8019 100.516 48.0655C100.224 47.2355 100.154 47.2822 98.8797 46.5925L92.1346 42.6881C91.5618 42.3607 91.2695 42.0451 91.2695 42.4426" fill="#ED6A06"/>
<path fill-rule="evenodd" clip-rule="evenodd" d="M93.2578 38.8887C93.4214 39.1108 94.9996 39.9642 95.4204 40.2096L102.201 44.079C102.621 44.079 103.463 43.8803 103.849 43.7985L108.864 42.8165C109.974 42.5944 111.027 42.4191 112.149 42.1853C112.722 42.0684 113.306 41.9631 113.82 41.8696C114.346 41.7644 114.989 41.6008 115.504 41.554C115.106 42.1502 114.756 42.8399 114.393 43.4828C113.353 45.3065 112.032 47.4574 111.073 49.2694C112.207 50.0292 116.31 52.2737 117.772 53.1621L120.016 54.4597L130.046 48.6498C130.642 48.3108 131.145 48.0302 131.741 47.6795C132.033 47.5042 132.302 47.3405 132.583 47.1886L145.138 39.9174C145.418 39.7537 145.664 39.6018 145.98 39.4264C146.213 39.2978 146.611 39.0173 146.845 38.9588C146.693 38.7484 143.852 37.1819 143.548 36.9949C142.414 36.3286 141.35 35.7441 140.228 35.0661L138.171 33.862C137.949 33.7217 137.937 33.6866 137.761 33.7568L136.92 34.2478C134.792 35.4168 132.337 36.9832 130.221 38.1288L120.168 43.9154C120.507 43.2724 120.869 42.6762 121.244 42.0333L124.528 36.2818C124.061 36.3169 123.418 36.5039 122.927 36.5974C122.413 36.7027 121.875 36.7962 121.314 36.9014L111.459 38.7952C111.599 38.6081 113.248 37.6846 113.575 37.5093L127.813 29.2561C128.106 29.0925 128.69 28.7067 128.971 28.6366V28.4846C128.445 28.3911 120.32 23.4229 120.004 23.4229L102.75 33.371C102.528 33.4996 102.399 33.5931 102.189 33.6983L95.4906 37.5794C94.7424 38.0353 93.9475 38.4211 93.2461 38.8887" fill="#ED6A06"/>
<path fill-rule="evenodd" clip-rule="evenodd" d="M121.932 57.7217V88.7936C122.317 88.6884 130.559 83.767 130.874 83.6734V73.2927C132.721 72.3108 134.966 70.908 136.883 69.8325C137.316 69.587 137.666 69.3532 138.099 69.1194L141.711 67.0386C142.132 66.7814 142.529 66.571 142.927 66.3372L145.358 64.9227C145.767 64.7006 146.153 64.4785 146.586 64.2213C147.848 63.4849 148.76 62.3392 148.76 60.6208V49.0477C148.76 46.7916 146.913 45.0381 144.844 45.0381C143.359 45.0381 141.641 46.3707 140.262 47.1189C138.216 48.2294 135.352 49.9713 133.236 51.1987L123.393 56.9034C122.914 57.1957 122.423 57.4762 121.932 57.7334M130.863 68.0323V57.8035L133.914 56.05C134.814 55.5474 138.777 53.1392 139.069 53.1392C139.432 53.1392 139.735 53.4432 139.735 53.8056V62.5613C139.735 63.0757 139.198 63.2628 138.847 63.4498C138.485 63.6602 138.099 63.8706 137.725 64.1044L130.863 68.0439V68.0323Z" fill="#ED6A06"/>
</svg>
