<svg width="33" height="33" viewBox="0 0 33 33" fill="none" xmlns="http://www.w3.org/2000/svg">
<circle cx="16.5" cy="16.5" r="16" stroke="#ED6A06"/>
<path fill-rule="evenodd" clip-rule="evenodd" d="M15.6309 7.64551C15.645 8.00052 15.6654 8.31845 15.6761 8.35192C15.688 8.389 15.7858 8.41282 15.9259 8.41282C16.066 8.41282 16.1637 8.389 16.1756 8.35192C16.1863 8.31845 16.2091 8.00052 16.2263 7.64551L16.2575 7H15.9314H15.6053L15.6309 7.64551ZM13.9582 7.17007C13.9305 7.17904 13.848 7.19901 13.7749 7.21446L13.642 7.24262L13.8202 7.92959L13.9984 8.61661L14.2305 8.58324C14.3583 8.56487 14.4699 8.54319 14.4786 8.5351C14.4873 8.52697 14.4475 8.22379 14.3903 7.86133C14.333 7.49892 14.2862 7.18971 14.2862 7.17426C14.2862 7.14494 14.0458 7.14187 13.9582 7.17007ZM17.4971 7.69423C17.4486 7.9957 17.3967 8.31134 17.3817 8.39572C17.3551 8.54538 17.3604 8.5504 17.5981 8.59936C17.7321 8.62694 17.8437 8.64559 17.8462 8.64077C17.8487 8.636 17.924 8.35801 18.0137 8.02308C18.1034 7.68814 18.1871 7.37956 18.1997 7.33737C18.2171 7.2792 18.1604 7.24671 17.9659 7.2034C17.8247 7.17193 17.6813 7.14615 17.6472 7.14615C17.607 7.14615 17.5541 7.33913 17.4971 7.69423ZM12.0412 7.73749C11.9026 7.79167 11.7822 7.84272 11.7737 7.85091C11.7624 7.86182 12.3212 8.99973 12.4064 9.13901C12.4153 9.15372 12.7286 9.03865 12.8603 8.97225C12.8894 8.95758 12.3757 7.66013 12.3368 7.65014C12.3129 7.644 12.1799 7.68327 12.0412 7.73749ZM19.4375 7.79167C19.3966 7.89646 19.1936 8.43377 19.0531 8.80909L18.9868 8.98613L19.651 9.30826C22.5362 10.7074 24.2887 13.438 24.2823 16.5244C24.2805 17.3892 24.2212 17.815 24.0108 18.4731C23.9252 18.741 23.8483 18.9687 23.8399 18.9791C23.8314 18.9895 23.3989 18.653 22.8787 18.2315C22.0706 17.5768 21.9273 17.4782 21.8947 17.555C21.8374 17.6902 20.7362 23.7677 20.7642 23.7947C20.7957 23.8251 27 21.6499 27 21.6084C27 21.5909 26.5718 21.2304 26.0485 20.8071L25.0971 20.0375L25.2358 19.6693C25.5797 18.757 25.7892 17.5607 25.7892 16.5084C25.7892 13.3298 24.1199 10.3371 21.3746 8.59395C20.9169 8.30335 19.672 7.68205 19.5474 7.68205C19.5105 7.68205 19.461 7.7314 19.4375 7.79167ZM10.2887 8.66908L10.0551 8.8295L10.337 9.19357C10.4921 9.39385 10.696 9.65045 10.7902 9.76377L10.9615 9.96989L11.1608 9.8426C11.2703 9.77254 11.36 9.70935 11.36 9.70219C11.36 9.6523 10.6175 8.53861 10.5755 8.52531C10.5463 8.51615 10.4173 8.5808 10.2887 8.66908ZM8.79452 9.89126L8.57823 10.1041L9.11489 10.5616C9.40998 10.8133 9.66789 11.025 9.68797 11.0321C9.70799 11.0392 9.7983 10.9713 9.88861 10.8813L10.0528 10.7177L9.5635 10.2108C9.29439 9.93194 9.05994 9.69815 9.04249 9.69118C9.02508 9.68416 8.91348 9.77424 8.79452 9.89126ZM15.5307 11.1248C15.5122 11.1426 15.497 12.1292 15.497 13.3171C15.497 14.505 15.4784 15.4769 15.4556 15.4769C15.4329 15.4769 15.3223 15.5529 15.21 15.6458C14.9741 15.8407 14.8452 16.075 14.7979 16.3949L14.7645 16.6202L13.4028 17.3523C12.6538 17.7549 11.9957 18.1106 11.9402 18.1426C11.8416 18.1995 11.8433 18.2082 12.0153 18.5233C12.1121 18.7007 12.2146 18.8645 12.2431 18.8874C12.2744 18.9124 12.8738 18.6189 13.7506 18.1494L15.2063 17.3699L15.4619 17.4761C16.018 17.7071 16.6464 17.499 16.9201 16.993C17.1881 16.4976 17.0781 16.0054 16.6131 15.6186L16.3547 15.4038L16.3547 13.2481V11.0923H15.9595C15.7421 11.0923 15.5491 11.1069 15.5307 11.1248ZM7.58136 11.3767C7.49524 11.5063 7.42475 11.6243 7.42475 11.6388C7.42475 11.67 8.69144 12.372 8.70779 12.3498C8.83856 12.1722 8.94098 11.9535 8.90687 11.9248C8.82317 11.8543 7.77741 11.141 7.75769 11.141C7.74684 11.141 7.66753 11.2471 7.58136 11.3767ZM6.676 13.1019C6.62106 13.2426 6.59109 13.3719 6.60941 13.3892C6.67136 13.4476 7.93371 13.8236 7.97846 13.7969C8.05061 13.7539 8.14581 13.4253 8.09869 13.3821C8.03502 13.3236 6.91257 12.8462 6.83886 12.8462C6.80425 12.8462 6.73094 12.9613 6.676 13.1019ZM6.18869 14.8071C6.17224 14.8942 6.15423 15.0306 6.14853 15.1103L6.13824 15.2552L6.84456 15.3373C7.23304 15.3825 7.56506 15.405 7.58237 15.3873C7.61132 15.3577 7.68085 14.941 7.65683 14.941C7.65098 14.941 7.3346 14.8753 6.95374 14.7949C6.57288 14.7145 6.25165 14.6487 6.23985 14.6487C6.22809 14.6487 6.20509 14.7199 6.18869 14.8071ZM6.0218 16.84C6.0338 17.0002 6.05358 17.1401 6.06569 17.1507C6.08173 17.1649 7.41739 17.0616 7.51305 17.0389C7.51996 17.0373 7.52566 16.9263 7.52566 16.7923V16.5487H6.76283H6L6.0218 16.84ZM7.02114 18.3015C6.78528 18.3491 6.50981 18.4022 6.40906 18.4195L6.22577 18.451L6.30175 18.7421C6.38081 19.0453 6.40629 19.0633 6.64785 18.9873C6.72827 18.962 7.02271 18.8746 7.30216 18.7931L7.81016 18.6448L7.75733 18.425C7.69548 18.1675 7.68963 18.1665 7.02114 18.3015ZM7.50578 20.008C7.17573 20.1406 6.89431 20.2601 6.88043 20.2734C6.85475 20.2983 6.98724 20.6613 7.06473 20.7786C7.09763 20.8283 7.25342 20.7674 7.74537 20.5125C8.09627 20.3306 8.38334 20.1673 8.38334 20.1495C8.38334 20.053 8.22159 19.7643 8.16826 19.7655C8.1339 19.7662 7.83584 19.8754 7.50578 20.008ZM8.40856 21.5456C8.10333 21.745 7.84603 21.93 7.83674 21.9567C7.82751 21.9834 7.89431 22.0983 7.98522 22.2122C8.07614 22.3261 8.15615 22.427 8.16296 22.4366C8.1782 22.4578 9.22674 21.6284 9.26987 21.561C9.3066 21.5036 9.08663 21.1764 9.01398 21.1803C8.98623 21.1818 8.71379 21.3462 8.40856 21.5456ZM9.60311 22.8977L9.08411 23.4006L9.31901 23.6097C9.59206 23.8527 9.51608 23.8931 10.0913 23.1987L10.4948 22.7115L10.3373 22.5532C10.2507 22.4661 10.1668 22.3949 10.151 22.3949C10.1351 22.3949 9.88856 22.6212 9.60311 22.8977ZM11.1453 23.8502C10.9678 24.1081 10.7829 24.3781 10.7344 24.4501L10.6462 24.5811L10.9117 24.7275C11.0577 24.808 11.1963 24.8625 11.2197 24.8485C11.2666 24.8205 11.8648 23.6855 11.8641 23.6257C11.8638 23.6052 11.7746 23.5418 11.6659 23.4848L11.4681 23.3811L11.1453 23.8502ZM12.9392 24.1819C12.9201 24.2306 12.7981 24.5284 12.6679 24.8436C12.5378 25.1588 12.4458 25.4245 12.4633 25.4339C12.5414 25.476 13.033 25.6184 13.0472 25.603C13.0662 25.5823 13.4285 24.3215 13.4285 24.2759C13.4285 24.2446 13.3201 24.1974 13.0877 24.1275C13.0032 24.1021 12.965 24.116 12.9392 24.1819ZM14.3673 25.1314C14.2858 25.5421 14.2491 25.8376 14.2764 25.8639C14.3171 25.9032 14.9465 26.0119 14.9749 25.9845C14.9905 25.9695 15.0922 24.8393 15.0929 24.6746C15.0934 24.5599 15.0689 24.539 14.9042 24.5135C14.8002 24.4973 14.6675 24.4749 14.6094 24.4636C14.511 24.4444 14.4945 24.49 14.3673 25.1314ZM16.2916 24.571C16.2127 24.5919 16.2033 24.6692 16.2033 25.2971V26H16.5031C16.668 26 16.8119 25.9836 16.8231 25.9635C16.8342 25.9433 16.8072 25.62 16.763 25.2449L16.6826 24.5628L16.5313 24.5552C16.448 24.551 16.3402 24.5581 16.2916 24.571Z" fill="#ED6A06"/>
</svg>
