<svg width="33" height="33" viewBox="0 0 33 33" fill="none" xmlns="http://www.w3.org/2000/svg">
<path d="M32.5 16.5C32.5 25.3366 25.3366 32.5 16.5 32.5C7.66344 32.5 0.5 25.3366 0.5 16.5C0.5 7.66344 7.66344 0.5 16.5 0.5C25.3366 0.5 32.5 7.66344 32.5 16.5Z" stroke="#ED6A06"/>
<path d="M25.8458 23.73C26.2386 23.3372 26.2386 22.697 25.8458 22.3043L24.3988 20.8573L25.5714 19.684C25.8614 19.394 25.9472 18.9764 25.794 18.5957C25.6409 18.215 25.2921 17.9726 24.8809 17.9626L18.8562 17.8272C18.5599 17.8216 18.3167 17.9258 18.1203 18.1222C17.9239 18.3185 17.819 18.5801 17.8254 18.8581L17.9608 24.8828C17.97 25.2932 18.2125 25.6428 18.5939 25.7959C18.9739 25.9476 19.3915 25.8632 19.6821 25.5733L20.8555 24.4007L22.3024 25.8476C22.4988 26.044 22.7569 26.1426 23.0149 26.1426C23.273 26.1426 23.5311 26.044 23.7274 25.8476L25.8458 23.73ZM22.8051 25.345L21.1433 23.6832C21.0667 23.6066 20.9653 23.5648 20.8569 23.5648C20.786 23.557 20.6378 23.6166 20.5712 23.6832L19.183 25.0713C19.0526 25.2011 18.9037 25.155 18.8597 25.1373C18.8165 25.1203 18.6761 25.0494 18.6719 24.8664L18.5365 18.841C18.5343 18.7588 18.5655 18.6815 18.6237 18.6227C18.6825 18.5645 18.7697 18.5369 18.842 18.5355L24.8667 18.6709C25.0496 18.6751 25.1198 18.8155 25.1375 18.8588C25.1553 18.902 25.2006 19.0523 25.0716 19.182L23.6856 20.5688C23.6083 20.6446 23.5658 20.746 23.5651 20.8552C23.5651 20.9495 23.6168 21.0764 23.6835 21.143L25.3453 22.8048C25.4622 22.9218 25.4622 23.1111 25.3453 23.2281L23.2283 25.345C23.1114 25.462 22.9221 25.462 22.8051 25.345Z" fill="#ED6A06"/>
<path d="M7.34557 14.5464C7.49799 14.9271 7.84751 15.1696 8.2587 15.1795L14.2834 15.3149H14.3075C14.5762 15.3149 14.8286 15.2107 15.0193 15.0193C15.2157 14.8229 15.3206 14.5613 15.3142 14.2834L15.1788 8.25866C15.1696 7.84817 14.9271 7.49866 14.5457 7.34552C14.165 7.19168 13.7481 7.27746 13.4575 7.56813L12.2842 8.74216L10.8372 7.2959C10.4437 6.90243 9.80493 6.90243 9.41146 7.2959L7.29523 9.41213C6.90247 9.80489 6.90247 10.4451 7.29523 10.8378L8.74221 12.2848L7.5696 13.4581C7.27893 13.7481 7.19314 14.165 7.34557 14.5464ZM8.07012 13.9594L9.45613 12.5726C9.5334 12.4968 9.57594 12.3954 9.57665 12.2862C9.57665 12.1919 9.5249 12.065 9.45825 11.9984L7.79646 10.3366C7.67949 10.2196 7.67949 10.0303 7.79646 9.91336L9.9134 7.79642C9.97154 7.73899 10.0481 7.70922 10.1247 7.70922C10.2012 7.70922 10.2778 7.73899 10.3359 7.79713L11.9977 9.45892C12.0743 9.53549 12.1757 9.57731 12.2842 9.57731H12.2856C12.3792 9.57731 12.5039 9.52485 12.5699 9.45892L13.958 8.07078C14.0884 7.94175 14.238 7.98854 14.2813 8.00485C14.3245 8.02187 14.4649 8.09276 14.4692 8.27567L14.6046 14.3011C14.6067 14.3833 14.5755 14.4606 14.5174 14.5194C14.4585 14.5783 14.3905 14.6081 14.299 14.6066L8.2743 14.4712C8.09139 14.467 8.0212 14.3266 8.00348 14.2834C7.98575 14.2401 7.94038 14.0891 8.07012 13.9594Z" fill="#ED6A06"/>
<path d="M7.29528 23.73L9.41222 25.847C9.6086 26.0433 9.86595 26.1419 10.1247 26.1419C10.3835 26.1419 10.6408 26.0433 10.8372 25.847L12.2842 24.4L13.4575 25.5733C13.7468 25.8626 14.1636 25.9491 14.5458 25.7959C14.9265 25.6435 15.1689 25.294 15.1789 24.8828L15.3143 18.8581C15.3207 18.5802 15.2157 18.3186 15.0193 18.1222C14.823 17.9258 14.5621 17.8365 14.2835 17.8273L8.25875 17.9627C7.84827 17.9719 7.49875 18.2144 7.34562 18.5958C7.19248 18.9772 7.27827 19.3933 7.56823 19.684L8.74084 20.8573L7.29386 22.3043C6.90181 22.6971 6.90181 23.3366 7.29528 23.73ZM7.79651 22.8055L9.4583 21.1438C9.53487 21.0672 9.57741 20.9644 9.5767 20.8559C9.5767 20.7623 9.52424 20.6376 9.4583 20.5716L8.07017 19.1828C7.94043 19.053 7.98651 18.9027 8.00424 18.8595C8.02196 18.8163 8.09215 18.6759 8.27506 18.6716L14.3005 18.5362H14.3076C14.387 18.5362 14.4614 18.5674 14.5181 18.6241C14.5763 18.683 14.6074 18.7595 14.6053 18.8425L14.4699 24.8672C14.4657 25.0501 14.3253 25.1203 14.282 25.138C14.2388 25.1557 14.0892 25.2018 13.9588 25.0721L12.5706 23.6839C12.4125 23.5258 12.1559 23.5258 11.9978 23.6839L10.336 25.3457C10.219 25.462 10.0297 25.462 9.91274 25.3457L7.7958 23.2288C7.67953 23.1118 7.67953 22.9218 7.79651 22.8055Z" fill="#ED6A06"/>
<path d="M25.8457 9.41204L23.7288 7.2951C23.3353 6.90163 22.6965 6.90163 22.3031 7.2951L20.8561 8.74208L19.6828 7.56876C19.3921 7.2788 18.9759 7.1916 18.5945 7.34615C18.2138 7.49857 17.9714 7.84809 17.9614 8.25928L17.826 14.284C17.8196 14.5619 17.9246 14.8235 18.1209 15.0199C18.3116 15.2106 18.564 15.3155 18.832 15.3155H18.8561L24.8808 15.1801C25.2913 15.1709 25.6408 14.9284 25.794 14.547C25.9471 14.1656 25.8613 13.7494 25.5714 13.4588L24.3987 12.2854L25.8457 10.8385C26.2392 10.445 26.2392 9.80551 25.8457 9.41204ZM25.3445 10.3365L23.6827 11.9983C23.6061 12.0749 23.5636 12.1777 23.5643 12.2861C23.5643 12.3797 23.6168 12.5045 23.6827 12.5704L25.0708 13.9586C25.2006 14.0883 25.1545 14.2386 25.1368 14.2819C25.119 14.3251 25.0489 14.4655 24.8659 14.4697L18.8405 14.6051C18.7505 14.6051 18.681 14.5754 18.6222 14.5179C18.564 14.4591 18.5328 14.3825 18.535 14.2996L18.6704 8.27488C18.6746 8.09197 18.815 8.02178 18.8583 8.00406C18.8781 7.99626 18.9214 7.98208 18.9752 7.98208C19.0369 7.98208 19.1121 8.00122 19.1815 8.0707L20.5697 9.45883C20.7278 9.61693 20.9844 9.61693 21.1425 9.45883L22.8043 7.79704C22.9213 7.68077 23.1106 7.68077 23.2275 7.79704L25.3445 9.91398C25.4615 10.0303 25.4615 10.2203 25.3445 10.3365Z" fill="#ED6A06"/>
<path d="M17.1244 17.1599C17.4104 16.8739 17.4104 16.4104 17.1244 16.1244C16.8385 15.8385 16.3749 15.8385 16.089 16.1244C15.803 16.4104 15.803 16.8739 16.089 17.1599C16.3749 17.4458 16.8385 17.4458 17.1244 17.1599Z" fill="#ED6A06"/>
</svg>
