<svg width="123" height="140" viewBox="0 0 123 140" fill="none" xmlns="http://www.w3.org/2000/svg">
<path fill-rule="evenodd" clip-rule="evenodd" d="M0.199707 41.2463V106.651C0.199707 107.099 0.797463 107.298 1.22087 107.522C1.6941 107.796 2.01788 107.996 2.41638 108.22L9.71399 112.429C12.8024 114.123 16.364 116.389 19.4275 118.008L19.7264 75.0693L29.4897 103.313C30.0626 105.057 37.2855 126.402 38.1821 128.568C38.5059 129.365 39.8259 129.839 41.0713 130.561C42.4909 131.408 43.7612 132.08 45.1559 132.927L55.3178 138.83C55.9155 139.179 56.8371 139.776 57.5095 139.951V73.9236C56.0151 72.9274 54.3464 72.0806 52.7524 71.1092C51.9305 70.6111 51.2082 70.2375 50.3614 69.7144C48.9915 68.8925 39.0538 63.0395 38.3066 62.8652V106.302L37.8583 105.181C37.7089 104.733 37.5843 104.534 37.4349 104.036L33.2506 91.9559C32.7027 90.3121 32.1049 88.6434 31.557 87.0245C31.009 85.3557 30.4611 83.9111 29.9131 82.2175L21.5695 58.0333C21.0215 56.3895 20.4736 54.7955 19.9256 53.2263C19.303 51.458 19.1535 51.5576 16.4387 50.0881L2.06769 41.7694C0.847276 41.072 0.224614 40.3995 0.224614 41.2463" fill="white"/>
<path fill-rule="evenodd" clip-rule="evenodd" d="M4.4585 33.6739C4.80719 34.1472 8.16957 35.9653 9.0662 36.4884L23.512 44.7324C24.4086 44.7324 26.2019 44.309 27.0238 44.1347L37.7087 42.0425C40.0748 41.5693 42.3164 41.1957 44.7074 40.6976C45.9278 40.4485 47.1731 40.2243 48.269 40.0251C49.3898 39.8009 50.7597 39.4522 51.8555 39.3526C51.0087 40.6228 50.2615 42.0923 49.4894 43.4622C47.2728 47.3476 44.4583 51.9304 42.416 55.7909C44.8319 57.4098 53.5741 62.1919 56.6874 64.0848L61.4694 66.8494L82.8392 54.4709C84.1094 53.7486 85.1804 53.1508 86.4507 52.4036C87.0733 52.03 87.6462 51.6813 88.2439 51.3575L114.993 35.8657C115.591 35.517 116.114 35.1932 116.787 34.8196C117.285 34.5457 118.132 33.9479 118.63 33.8234C118.306 33.3751 112.254 30.0376 111.606 29.6391C109.19 28.2194 106.924 26.9741 104.533 25.5295L100.149 22.9641C99.676 22.6653 99.6511 22.5906 99.2775 22.74L97.4842 23.7861C92.9512 26.2767 87.7209 29.6142 83.2128 32.055L61.7932 44.3837C62.5155 43.0139 63.2876 41.7436 64.0846 40.3738L71.0834 28.1198C70.0871 28.1945 68.7172 28.593 67.6712 28.7923C66.5753 29.0164 65.4296 29.2157 64.2341 29.4398L43.2379 33.4747C43.5368 33.0762 47.0486 31.1086 47.746 30.735L78.0821 13.151C78.7047 12.8023 79.9501 11.9804 80.5478 11.8309V11.5072C79.427 11.3079 62.117 0.722656 61.4445 0.722656L24.6826 21.9181C24.2093 22.192 23.9354 22.3913 23.4871 22.6155L9.21564 30.8844C7.62162 31.8558 5.92798 32.6777 4.43359 33.6739" fill="#B5B5B6"/>
<path fill-rule="evenodd" clip-rule="evenodd" d="M65.5542 73.7992V140.001C66.3761 139.776 83.9352 129.291 84.6077 129.092V106.975C88.5429 104.882 93.3249 101.894 97.4096 99.6023C98.3311 99.0793 99.0783 98.5811 99.9999 98.083L107.696 93.6496C108.593 93.1017 109.439 92.6534 110.286 92.1553L115.467 89.1416C116.339 88.6683 117.16 88.1951 118.082 87.6472C120.772 86.0781 122.715 83.6372 122.715 79.976V55.3186C122.715 50.5116 118.779 46.7756 114.371 46.7756C111.208 46.7756 107.547 49.615 104.608 51.209C100.249 53.5751 94.1468 57.2862 89.6388 59.9014L68.6675 72.0557C67.6463 72.6784 66.6003 73.2761 65.5542 73.8241M84.5828 95.7667V73.9735L91.0834 70.2375C93.0012 69.1666 101.444 64.0358 102.067 64.0358C102.839 64.0358 103.487 64.6834 103.487 65.4555V84.1105C103.487 85.2063 102.341 85.6049 101.594 86.0034C100.822 86.4517 99.9999 86.9 99.2029 87.3981L84.5828 95.7916V95.7667Z" fill="#535252"/>
</svg>
