<svg width="40" height="40" viewBox="0 0 40 40" fill="none" xmlns="http://www.w3.org/2000/svg">
<g clip-path="url(#clip0_259_509)">
<path d="M38.3333 38.3333L27.6667 27.6667M17 33C14.8988 33 12.8183 32.5861 10.8771 31.7821C8.93586 30.978 7.17203 29.7994 5.68629 28.3137C4.20055 26.828 3.022 25.0641 2.21793 23.1229C1.41385 21.1817 1 19.1011 1 17C1 14.8988 1.41385 12.8183 2.21793 10.8771C3.022 8.93586 4.20055 7.17203 5.68629 5.68629C7.17203 4.20055 8.93586 3.022 10.8771 2.21793C12.8183 1.41385 14.8988 1 17 1C21.2435 1 25.3131 2.68571 28.3137 5.68629C31.3143 8.68687 33 12.7565 33 17C33 21.2435 31.3143 25.3131 28.3137 28.3137C25.3131 31.3143 21.2435 33 17 33Z" stroke="#FFCA00" stroke-width="2"/>
</g>
<defs>
<clipPath id="clip0_259_509">
<rect width="40" height="40" fill="white"/>
</clipPath>
</defs>
</svg>
