<svg width="20" height="24" viewBox="0 0 20 24" fill="none" xmlns="http://www.w3.org/2000/svg">
<path d="M14.6317 11.85L12.1352 5.59L10.0302 9.25L7.92512 5.59L5.42865 11.852H4.70718V12.793H8.46648V11.852H7.91003L8.45138 10.297L10.0302 12.867L11.609 10.297L12.1503 11.852H11.5939V12.793H15.3683V11.852L14.6317 11.85ZM20 9.938C20.0006 8.63274 19.7424 7.34015 19.2401 6.13412C18.7378 4.92809 18.0012 3.83227 17.0725 2.90931C16.1438 1.98635 15.0411 1.25435 13.8276 0.755148C12.614 0.255949 11.3134 -0.000655939 9.99998 1.25918e-06C4.48178 1.25918e-06 0 4.453 0 9.938C0 12.688 1.12799 15.168 2.93217 16.961C3.04515 17.0743 3.18947 17.1516 3.34679 17.1831C3.5041 17.2146 3.66729 17.199 3.81562 17.1381C3.96394 17.0772 4.09069 16.9738 4.17975 16.8412C4.26881 16.7085 4.31615 16.5525 4.31575 16.393C4.31609 16.175 4.22963 15.9658 4.07526 15.811C2.51235 14.2515 1.63649 12.139 1.64017 9.938C1.64017 5.35 5.38337 1.614 9.99998 1.614C14.6166 1.614 18.3759 5.35 18.3759 9.938C18.3784 11.0316 18.163 12.1149 17.7424 13.1254C17.3217 14.136 16.7039 15.0538 15.9247 15.826L8.8569 22.849L9.99998 24L17.0829 16.961C18.0109 16.0393 18.7464 14.9442 19.247 13.739C19.7477 12.5337 20.0035 11.2419 20 9.938Z" fill="#FFCC66"/>
</svg>
