<svg width="24" height="24" viewBox="0 0 24 24" fill="none" xmlns="http://www.w3.org/2000/svg">
<path d="M11.3986 0.00376693C9.4726 0.0270169 5.33185 0.343517 3.01585 2.46827C1.2931 4.17527 0.691604 6.69902 0.621104 9.81977C0.562604 12.9293 0.492104 18.7688 6.12085 20.3588V22.7805C6.12085 22.7805 6.08561 23.7495 6.7261 23.9483C7.51511 24.198 7.96435 23.4525 8.71436 22.6515L10.1131 21.0698C13.9644 21.39 16.9141 20.652 17.2539 20.5425C18.0354 20.2928 22.4371 19.7303 23.1564 13.89C23.8944 7.85852 22.7971 4.05827 20.8164 2.33927H20.8044C20.2066 1.78877 17.8044 0.0382669 12.4374 0.0187669C12.4374 0.0187669 12.0391 -0.00823307 11.3986 0.00301693V0.00376693ZM11.4646 1.69952C12.0114 1.69577 12.3436 1.71902 12.3436 1.71902C16.8864 1.73102 19.0546 3.09827 19.5661 3.55877C21.2341 4.98827 22.0936 8.41427 21.4644 13.4498C20.8666 18.3323 17.2966 18.6413 16.6359 18.852C16.3546 18.942 13.7566 19.5825 10.4836 19.3718C10.4836 19.3718 8.0461 22.3133 7.2841 23.0708C7.16335 23.2035 7.02235 23.2425 6.93235 23.223C6.80335 23.1915 6.76435 23.0318 6.77185 22.8128L6.7951 18.7935C2.02136 17.4735 2.3026 12.4928 2.3536 9.89102C2.4121 7.28927 2.90035 5.16077 4.35385 3.71927C6.3106 1.95002 9.8266 1.71152 11.4631 1.69952H11.4646ZM11.8246 4.30052C11.7853 4.30012 11.7463 4.30751 11.7099 4.32224C11.6735 4.33698 11.6403 4.35879 11.6124 4.38639C11.5844 4.414 11.5622 4.44687 11.547 4.48311C11.5318 4.51934 11.524 4.55823 11.5239 4.59752C11.5239 4.76552 11.6604 4.89827 11.8246 4.89827C12.5682 4.88413 13.3073 5.01734 13.9992 5.29024C14.6911 5.56313 15.3221 5.9703 15.8559 6.48827C16.9456 7.54652 17.4766 8.96852 17.4969 10.8278C17.4969 10.992 17.6296 11.1285 17.7976 11.1285V11.1165C17.8768 11.1167 17.9528 11.0856 18.0092 11.03C18.0655 10.9743 18.0976 10.8987 18.0984 10.8195C18.1348 9.94438 17.9929 9.07098 17.6812 8.25239C17.3696 7.43381 16.8948 6.68714 16.2856 6.05777C15.0984 4.89752 13.5939 4.29977 11.8246 4.29977V4.30052ZM7.87135 4.98827C7.65907 4.95725 7.44255 4.99986 7.25785 5.10902H7.2421C6.8133 5.36037 6.42702 5.67806 6.0976 6.05027C5.82385 6.36677 5.67535 6.68702 5.63635 6.99527C5.6131 7.17902 5.62885 7.36277 5.6836 7.53827L5.7031 7.55027C6.01135 8.45627 6.4141 9.32777 6.90611 10.1483C7.53987 11.301 8.31982 12.367 9.2266 13.32L9.2536 13.359L9.29636 13.3905L9.32335 13.422L9.35485 13.449C10.3113 14.3585 11.3799 15.142 12.5349 15.7808C13.8549 16.4993 14.6559 16.839 15.1366 16.98V16.9875C15.2776 17.0303 15.4059 17.0498 15.5349 17.0498C15.9446 17.0198 16.3324 16.8534 16.6366 16.5773C17.0071 16.2478 17.3213 15.8599 17.5666 15.429V15.4215C17.7969 14.988 17.7189 14.5778 17.3866 14.3003C16.7212 13.7186 16.0017 13.202 15.2379 12.7575C14.7264 12.48 14.2066 12.648 13.9959 12.9293L13.5466 13.4955C13.3164 13.7768 12.8979 13.7378 12.8979 13.7378L12.8859 13.7453C9.7651 12.948 8.9326 9.78827 8.9326 9.78827C8.9326 9.78827 8.8936 9.35852 9.18235 9.13952L9.74485 8.68652C10.0141 8.46752 10.2016 7.94852 9.91286 7.43627C9.47141 6.67138 8.95593 5.95168 8.37385 5.28752C8.2466 5.13094 8.06808 5.02441 7.86985 4.98677L7.87135 4.98827ZM12.3436 5.87927C11.9454 5.87927 11.9454 6.48077 12.3474 6.48077C12.8426 6.4888 13.3313 6.59434 13.7857 6.79137C14.2401 6.98839 14.6513 7.27303 14.9956 7.62902C15.3097 7.97552 15.5511 8.38155 15.7054 8.82305C15.8598 9.26454 15.9239 9.73253 15.8941 10.1993C15.8955 10.2783 15.9277 10.3536 15.9839 10.4091C16.0401 10.4646 16.1159 10.4959 16.1949 10.4963L16.2069 10.512C16.2864 10.5114 16.3626 10.4796 16.4189 10.4233C16.4751 10.367 16.507 10.2908 16.5076 10.2113C16.5346 9.01952 16.1641 8.01977 15.4374 7.21877C14.7069 6.41777 13.6876 5.96852 12.3864 5.87927H12.3436ZM12.8364 7.49627C12.4261 7.48427 12.4104 8.09777 12.8169 8.10977C13.8054 8.16077 14.2854 8.66027 14.3484 9.68777C14.3497 9.76576 14.3816 9.84012 14.4371 9.89493C14.4926 9.94974 14.5673 9.98064 14.6454 9.98102H14.6574C14.6975 9.9793 14.7368 9.96961 14.7731 9.95251C14.8095 9.93542 14.842 9.91126 14.8689 9.88144C14.8958 9.85163 14.9164 9.81676 14.9297 9.77887C14.943 9.74099 14.9485 9.70084 14.9461 9.66077C14.8756 8.32127 14.1451 7.56677 12.8484 7.49702H12.8364V7.49627Z" fill="#FFCC66"/>
</svg>
