<svg width="48" height="18" viewBox="0 0 48 18" fill="none" xmlns="http://www.w3.org/2000/svg">
<path d="M7.35 0L5.4285 2H2.1C0.945 2 0 2.9 0 4V16C0 17.1 0.945 18 2.1 18H18.9C20.055 18 21 17.1 21 16V4C21 2.9 20.055 2 18.9 2H15.5715L13.65 0H7.35ZM10.5 15C7.602 15 5.25 12.76 5.25 10C5.25 7.24 7.602 5 10.5 5C13.398 5 15.75 7.24 15.75 10C15.75 12.76 13.398 15 10.5 15Z" fill="white" fill-opacity="0.6"/>
<path d="M46 4L35 15L30 10" stroke="#FFCC66" stroke-width="3" stroke-linecap="round" stroke-linejoin="round"/>
</svg>
