<svg width="152" height="51" viewBox="0 0 152 51" fill="none" xmlns="http://www.w3.org/2000/svg">
<path d="M10.7273 49.5545C10.3403 49.5545 9.9626 49.5496 9.57862 49.5409C8.78319 49.5306 7.98961 49.4615 7.2044 49.3343C6.47223 49.2086 5.76295 48.9747 5.09997 48.6403C4.44306 48.3088 3.84391 47.874 3.32547 47.3526C2.79952 46.8375 2.36165 46.2399 2.02919 45.5837C1.69308 44.9233 1.46047 44.2154 1.33946 43.4846C1.20879 42.6994 1.13809 41.9055 1.12797 41.1096C1.11992 40.8425 1.10938 39.953 1.10938 39.953V10.6923C1.10938 10.6923 1.1206 9.81654 1.12803 9.55924C1.13772 8.76464 1.20801 7.97192 1.33829 7.18795C1.45952 6.45521 1.69231 5.74524 2.02861 5.08262C2.35984 4.42689 2.79528 3.82892 3.31806 3.31189C3.84026 2.78995 4.44132 2.35292 5.09935 2.01676C5.76081 1.68348 6.46874 1.45122 7.19943 1.32777C7.98722 1.19928 8.78355 1.12982 9.58175 1.11996L10.7279 1.10449H141.267L142.427 1.12058C143.218 1.12995 144.007 1.1988 144.787 1.32653C145.525 1.45153 146.241 1.68541 146.91 2.02047C148.228 2.69794 149.301 3.76977 149.977 5.08571C150.308 5.74376 150.537 6.44793 150.657 7.17435C150.789 7.96475 150.863 8.76369 150.878 9.56481C150.882 9.92353 150.882 10.3089 150.882 10.6923C150.892 11.1673 150.892 11.6194 150.892 12.0753V38.5849C150.892 39.0451 150.892 39.4941 150.882 39.9468C150.882 40.3587 150.882 40.7361 150.877 41.1244C150.862 41.9113 150.789 42.696 150.659 43.4722C150.541 44.2082 150.31 44.9217 149.974 45.5875C149.639 46.2366 149.203 46.829 148.684 47.3428C148.165 47.8669 147.564 48.3042 146.906 48.6379C146.239 48.9749 145.525 49.2096 144.787 49.3343C144.002 49.4622 143.208 49.5313 142.413 49.5409C142.041 49.5496 141.651 49.5545 141.273 49.5545L139.896 49.557L10.7273 49.5545Z" fill="black"/>
<path d="M31.4639 25.7104C31.4775 24.6531 31.7591 23.6165 32.2825 22.697C32.8058 21.7774 33.554 21.0048 34.4572 20.4511C33.8834 19.6339 33.1264 18.9614 32.2464 18.4869C31.3663 18.0125 30.3875 17.7492 29.3875 17.718C27.2545 17.4948 25.1867 18.9908 24.0997 18.9908C22.9918 18.9908 21.3182 17.7402 19.5161 17.7772C18.3505 17.8147 17.2145 18.1527 16.2188 18.7583C15.2231 19.3638 14.4016 20.2162 13.8345 21.2325C11.3779 25.4738 13.2103 31.7071 15.5636 35.1355C16.7409 36.8143 18.1169 38.6895 19.9174 38.623C21.6793 38.5501 22.3373 37.5027 24.464 37.5027C26.571 37.5027 27.1884 38.623 29.0254 38.5807C30.916 38.5501 32.1071 36.8945 33.2432 35.1998C34.0891 34.0036 34.7401 32.6816 35.1719 31.2826C34.0736 30.8194 33.1362 30.044 32.4768 29.0531C31.8174 28.0621 31.4651 26.8996 31.4639 25.7104Z" fill="white"/>
<path d="M27.9949 15.4634C29.0258 14.2294 29.5336 12.6434 29.4106 11.042C27.8358 11.2069 26.381 11.9575 25.3363 13.1442C24.8255 13.7239 24.4343 14.3983 24.185 15.1289C23.9357 15.8594 23.8333 16.6318 23.8835 17.4019C24.6712 17.41 25.4505 17.2398 26.1627 16.904C26.8749 16.5682 27.5013 16.0757 27.9949 15.4634Z" fill="white"/>
<path d="M53.7335 34.3735H47.721L46.2771 38.625H43.7305L49.4254 22.8955H52.0713L57.7662 38.625H55.1761L53.7335 34.3735ZM48.3437 32.4116H53.1096L50.7602 25.5117H50.6944L48.3437 32.4116Z" fill="white"/>
<path d="M70.0634 32.8909C70.0634 36.4547 68.1506 38.7443 65.2641 38.7443C64.5329 38.7825 63.8057 38.6145 63.1657 38.2596C62.5258 37.9048 61.999 37.3774 61.6457 36.7379H61.591V42.4181H59.2305V27.1563H61.5154V29.0637H61.5588C61.9284 28.4273 62.4641 27.9026 63.1089 27.5456C63.7537 27.1886 64.4835 27.0126 65.2207 27.0363C68.1394 27.0363 70.0634 29.3371 70.0634 32.8909ZM67.637 32.8909C67.637 30.5691 66.4338 29.0427 64.5979 29.0427C62.7943 29.0427 61.5812 30.6013 61.5812 32.8909C61.5812 35.2016 62.7943 36.7491 64.5979 36.7491C66.4338 36.7491 67.637 35.2338 67.637 32.8909Z" fill="white"/>
<path d="M82.7235 32.8909C82.7235 36.4547 80.8107 38.7443 77.9242 38.7443C77.193 38.7824 76.4658 38.6145 75.8259 38.2596C75.1859 37.9048 74.6592 37.3774 74.3058 36.7379H74.2512V42.4181H71.8906V27.1563H74.1755V29.0637H74.2189C74.5885 28.4272 75.1242 27.9026 75.769 27.5456C76.4138 27.1886 77.1436 27.0126 77.8808 27.0363C80.7996 27.0363 82.7235 29.3371 82.7235 32.8909ZM80.2972 32.8909C80.2972 30.5691 79.094 29.0427 77.2581 29.0427C75.4545 29.0427 74.2413 30.6013 74.2413 32.8909C74.2413 35.2016 75.4545 36.7491 77.2581 36.7491C79.094 36.7491 80.2972 35.2338 80.2972 32.8909H80.2972Z" fill="white"/>
<path d="M91.0883 34.2419C91.2632 35.8018 92.7828 36.8259 94.8593 36.8259C96.849 36.8259 98.2804 35.8017 98.2804 34.3953C98.2804 33.1744 97.4171 32.4433 95.3728 31.9423L93.3286 31.4512C90.4321 30.7536 89.0875 29.4028 89.0875 27.2109C89.0875 24.4969 91.4592 22.6328 94.827 22.6328C98.1601 22.6328 100.445 24.4969 100.522 27.2109H98.139C97.9964 25.6411 96.6951 24.6936 94.7935 24.6936C92.8919 24.6936 91.5907 25.6523 91.5907 27.0476C91.5907 28.1596 92.4218 28.814 94.4549 29.3149L96.1927 29.7405C99.4291 30.5037 100.774 31.8001 100.774 34.1008C100.774 37.0436 98.4231 38.8867 94.6843 38.8867C91.1863 38.8867 88.8245 37.0869 88.6719 34.2418L91.0883 34.2419Z" fill="white"/>
<path d="M105.868 24.4424V27.1563H108.055V29.0204H105.868V35.3426C105.868 36.3248 106.306 36.7825 107.267 36.7825C107.527 36.778 107.786 36.7598 108.044 36.728V38.581C107.612 38.6615 107.172 38.698 106.733 38.6899C104.404 38.6899 103.496 37.8178 103.496 35.5937V29.0204H101.824V27.1563H103.496V24.4424H105.868Z" fill="white"/>
<path d="M109.32 32.8913C109.32 29.283 111.451 27.0156 114.775 27.0156C118.109 27.0156 120.23 29.283 120.23 32.8913C120.23 36.5094 118.12 38.7669 114.775 38.7669C111.43 38.7669 109.32 36.5094 109.32 32.8913ZM117.825 32.8913C117.825 30.4161 116.687 28.9552 114.775 28.9552C112.862 28.9552 111.726 30.4272 111.726 32.8913C111.726 35.3764 112.862 36.8261 114.775 36.8261C116.687 36.8261 117.825 35.3764 117.825 32.8913H117.825Z" fill="white"/>
<path d="M122.18 27.1562H124.431V29.1081H124.486C124.638 28.4985 124.996 27.9597 125.5 27.5824C126.004 27.2051 126.622 27.0122 127.252 27.0362C127.524 27.0352 127.795 27.0647 128.061 27.124V29.3258C127.717 29.2212 127.359 29.1731 127 29.1836C126.657 29.1697 126.315 29.23 125.998 29.3603C125.681 29.4906 125.395 29.6879 125.162 29.9386C124.928 30.1892 124.751 30.4874 124.644 30.8125C124.537 31.1376 124.501 31.482 124.54 31.822V38.6242H122.18L122.18 27.1562Z" fill="white"/>
<path d="M138.944 35.2564C138.627 37.3382 136.594 38.7669 133.992 38.7669C130.647 38.7669 128.57 36.5317 128.57 32.9457C128.57 29.3486 130.658 27.0156 133.893 27.0156C137.075 27.0156 139.076 29.1952 139.076 32.6723V33.4788H130.953V33.6211C130.916 34.0431 130.969 34.4683 131.109 34.8684C131.249 35.2684 131.472 35.6342 131.765 35.9415C132.058 36.2487 132.412 36.4903 132.806 36.6503C133.199 36.8103 133.622 36.885 134.047 36.8694C134.605 36.9215 135.165 36.7927 135.643 36.5021C136.122 36.2114 136.493 35.7745 136.703 35.2564L138.944 35.2564ZM130.964 31.8337H136.714C136.735 31.4542 136.677 31.0744 136.544 30.7182C136.411 30.362 136.206 30.0371 135.941 29.7638C135.676 29.4905 135.358 29.2747 135.005 29.13C134.653 28.9853 134.274 28.9149 133.893 28.923C133.509 28.9208 133.128 28.9944 132.772 29.1398C132.416 29.2851 132.093 29.4992 131.821 29.7698C131.548 30.0404 131.332 30.3621 131.185 30.7164C131.039 31.0706 130.963 31.4503 130.964 31.8337V31.8337Z" fill="white"/>
<path d="M46.6675 14.2501H47.6809C47.8554 14.2718 48.0325 14.2572 48.201 14.2072C48.3695 14.1573 48.5258 14.073 48.6601 13.9598C48.7943 13.8466 48.9036 13.7069 48.981 13.5495C49.0585 13.3922 49.1024 13.2205 49.1099 13.0453C49.1099 12.3483 48.584 11.898 47.6921 11.898C47.5134 11.8731 47.3314 11.8842 47.1571 11.9305C46.9827 11.9769 46.8194 12.0577 46.6768 12.168C46.5343 12.2783 46.4153 12.4161 46.327 12.573C46.2387 12.73 46.1828 12.903 46.1626 13.0818H45.0499C45.0691 12.7572 45.155 12.4399 45.3025 12.1498C45.4499 11.8598 45.6556 11.603 45.9068 11.3957C46.1581 11.1883 46.4494 11.0348 46.7627 10.9446C47.0761 10.8543 47.4047 10.8294 47.7281 10.8713C49.2203 10.8713 50.271 11.7044 50.271 12.9037C50.2745 13.3054 50.1397 13.6962 49.8892 14.0108C49.6386 14.3254 49.2873 14.5448 48.8941 14.6324V14.7214C49.3603 14.742 49.7993 14.9459 50.1152 15.2883C50.4311 15.6308 50.5982 16.0841 50.5799 16.5491C50.5454 16.8833 50.4443 17.2073 50.2826 17.5022C50.1209 17.797 49.9018 18.0566 49.6382 18.2659C49.3745 18.4752 49.0717 18.6299 48.7473 18.7209C48.4229 18.8119 48.0836 18.8375 47.7492 18.796C47.4141 18.8416 47.0732 18.8194 46.7469 18.7308C46.4206 18.6422 46.1155 18.4889 45.8498 18.2802C45.5842 18.0715 45.3634 17.8116 45.2006 17.516C45.0378 17.2204 44.9364 16.8951 44.9023 16.5596H46.0324C46.1006 17.2826 46.7668 17.749 47.7492 17.749C48.7316 17.749 49.3729 17.2251 49.3729 16.4866C49.3729 15.7376 48.7688 15.2763 47.7132 15.2763H46.6675V14.2501Z" fill="white"/>
<path d="M51.8633 16.9996C51.8633 15.9729 52.6311 15.381 53.9907 15.2969L55.54 15.2078V14.7155C55.54 14.1131 55.1418 13.7729 54.369 13.7729C53.7389 13.7729 53.3034 14.0036 53.1769 14.4069H52.0841C52.1994 13.4272 53.1248 12.7988 54.4223 12.7988C55.8563 12.7988 56.6651 13.5107 56.6651 14.7155V18.6126H55.5772V17.8111H55.4879C55.3066 18.0986 55.0521 18.333 54.7502 18.4903C54.4484 18.6477 54.1101 18.7223 53.7699 18.7066C53.5297 18.7315 53.2871 18.706 53.0575 18.6316C52.8278 18.5573 52.6164 18.4358 52.4368 18.2749C52.2572 18.1141 52.1133 17.9175 52.0145 17.6979C51.9158 17.4782 51.8642 17.2403 51.8633 16.9996ZM55.54 16.5122V16.0354L54.1432 16.1244C53.3555 16.177 52.9982 16.4442 52.9982 16.947C52.9982 17.4604 53.4448 17.7591 54.0589 17.7591C54.2388 17.7773 54.4206 17.7592 54.5933 17.7058C54.7661 17.6525 54.9263 17.5651 55.0645 17.4488C55.2027 17.3324 55.316 17.1896 55.3977 17.0287C55.4794 16.8678 55.5278 16.6922 55.54 16.5122Z" fill="white"/>
<path d="M59.6601 13.8567V18.6129H58.5312V12.9092H62.2973V13.8566L59.6601 13.8567Z" fill="white"/>
<path d="M69.1383 15.759C69.1383 17.5712 68.2191 18.7074 66.7752 18.7074C66.4208 18.7315 66.0668 18.6542 65.7549 18.4844C65.4431 18.3147 65.1864 18.0597 65.015 17.7493H64.9257V20.5096H63.7969V12.9096H64.8835V13.8523H64.9679C65.1423 13.5311 65.4024 13.2643 65.7194 13.0812C66.0363 12.8982 66.3979 12.8061 66.764 12.8151C68.2191 12.815 69.1383 13.9462 69.1383 15.759ZM67.9772 15.759C67.9772 14.5542 67.4054 13.8262 66.449 13.8262C65.4988 13.8262 64.9046 14.5697 64.9046 15.764C64.9046 16.9527 65.4988 17.6968 66.444 17.6968C67.4054 17.6967 67.9772 16.9688 67.9772 15.759Z" fill="white"/>
<path d="M70.6416 20.6558V19.6866C70.7638 19.7021 70.8869 19.7091 71.01 19.7076C71.2505 19.7254 71.4891 19.654 71.68 19.5071C71.871 19.3601 72.0008 19.1481 72.0445 18.9116L72.1289 18.6339L70.0586 12.9092H71.2879L72.7219 17.4396H72.8112L74.2402 12.9092H75.4372L73.3049 18.8485C72.8162 20.2364 72.2753 20.6817 71.1093 20.6817C71.015 20.6817 70.7471 20.6712 70.6416 20.6558Z" fill="white"/>
<path d="M76.3164 16.9942H77.4403C77.5507 17.497 78.0233 17.7592 78.6844 17.7592C79.4362 17.7592 79.8976 17.429 79.8976 16.9156C79.8976 16.3658 79.4833 16.1036 78.6844 16.1036H77.8285V15.229H78.6695C79.3518 15.229 79.6991 14.9674 79.6991 14.4906C79.6991 14.0718 79.363 13.7521 78.6695 13.7521C78.0382 13.7521 77.5767 14.0193 77.5035 14.4695H76.4156C76.497 13.9522 76.7787 13.4873 77.2002 13.1749C77.6217 12.8625 78.1493 12.7275 78.6695 12.799C80.0291 12.799 80.8068 13.4119 80.8068 14.3755C80.8132 14.6439 80.727 14.9062 80.5626 15.1188C80.3982 15.3313 80.1657 15.4812 79.9038 15.5432V15.6323C80.2156 15.6724 80.5017 15.8252 80.708 16.0618C80.9142 16.2984 81.0262 16.6022 81.0227 16.9157C81.0227 17.9999 80.0973 18.7173 78.6844 18.7173C77.4353 18.7173 76.4206 18.1464 76.3164 16.9942Z" fill="white"/>
<path d="M82.6484 18.6129V12.9092H83.7673V16.8323H83.8566L86.4926 12.9092H87.6115V18.6129H86.4926V14.6688H86.4082L83.7673 18.6129L82.6484 18.6129Z" fill="white"/>
<path d="M93.7754 13.8566H91.9742V18.6128H90.8441V13.8566H89.043V12.9092H93.7754V13.8566Z" fill="white"/>
<path d="M99.8572 17.0727C99.7033 17.594 99.3708 18.0448 98.9175 18.3464C98.4643 18.648 97.9192 18.7812 97.3775 18.7228C97.0007 18.7327 96.6262 18.6608 96.28 18.5119C95.9339 18.363 95.6244 18.1408 95.373 17.8607C95.1216 17.5806 94.9344 17.2493 94.8243 16.8898C94.7141 16.5303 94.6838 16.1512 94.7353 15.7788C94.6852 15.4053 94.716 15.0254 94.8259 14.6648C94.9358 14.3042 95.122 13.9714 95.3721 13.6888C95.6221 13.4062 95.9302 13.1806 96.2753 13.027C96.6204 12.8735 96.9946 12.7957 97.3725 12.7989C98.964 12.7989 99.9254 13.8832 99.9254 15.6743V16.0671H95.8865V16.1301C95.8686 16.3395 95.8948 16.5503 95.9635 16.7489C96.0322 16.9475 96.1418 17.1297 96.2852 17.2835C96.4287 17.4374 96.6028 17.5597 96.7965 17.6425C96.9902 17.7252 97.1991 17.7667 97.4098 17.7641C97.6796 17.7963 97.9529 17.7477 98.195 17.6246C98.4371 17.5015 98.637 17.3094 98.7693 17.0727L99.8572 17.0727ZM95.8864 15.2345H98.7742C98.7885 15.0432 98.7625 14.851 98.6978 14.6703C98.6332 14.4896 98.5314 14.3244 98.3989 14.1852C98.2664 14.0461 98.1062 13.9361 97.9286 13.8624C97.751 13.7886 97.5599 13.7527 97.3676 13.757C97.1723 13.7543 96.9784 13.7907 96.7975 13.8641C96.6166 13.9374 96.4522 14.0461 96.3141 14.1839C96.1761 14.3216 96.0671 14.4856 95.9936 14.666C95.9202 14.8465 95.8837 15.0398 95.8865 15.2345H95.8864Z" fill="white"/>
<path d="M104.645 12.9092H107.223C108.342 12.9092 108.999 13.4745 108.999 14.3595C109 14.6403 108.905 14.9132 108.729 15.1326C108.553 15.3519 108.307 15.5043 108.032 15.5643V15.6534C108.366 15.6744 108.679 15.8226 108.907 16.0673C109.135 16.312 109.259 16.6346 109.255 16.9683C109.255 17.9634 108.505 18.6129 107.249 18.6129H104.645V12.9092ZM105.763 13.7732V15.2501H106.882C107.565 15.2501 107.891 14.9885 107.891 14.5061C107.891 14.0614 107.607 13.7732 107.008 13.7732L105.763 13.7732ZM105.763 16.0777V17.7489H107.102C107.769 17.7489 108.127 17.4551 108.127 16.9158C108.127 16.3449 107.722 16.0777 106.96 16.0777L105.763 16.0777Z" fill="white"/>
</svg>
