<svg width="289" height="294" viewBox="0 0 289 294" fill="none" xmlns="http://www.w3.org/2000/svg">
<path fill-rule="evenodd" clip-rule="evenodd" d="M161.365 144.088L161.105 166.529C173.291 169.776 182.272 180.726 182.272 193.74C182.272 198.916 180.85 203.754 178.368 207.926L203.629 223.793C208.413 216.519 216.345 211.738 225.326 211.738C233.291 211.738 240.433 215.493 245.273 221.413L258.779 210.745C255.044 203.359 254.999 195.183 259.422 189.128C262.637 184.73 267.647 182.249 273.277 181.73L272.453 161.206C267.714 160.868 262.739 159.086 258.316 155.827C248.263 148.486 244.529 136.295 249.47 127.838L230.234 115.929C226.454 119.606 220.993 121.94 214.901 121.94C206.845 121.94 199.861 117.88 196.488 111.96L183.253 116.121C183.716 117.824 183.953 119.572 183.953 121.399C183.964 132.957 174.126 142.543 161.365 144.088Z" fill="white" fill-opacity="0.08"/>
<path fill-rule="evenodd" clip-rule="evenodd" d="M268.291 221.796C265.357 219.654 262.909 217.139 260.991 214.399L247.723 224.909C250.295 229.262 251.796 234.415 251.796 239.952C251.796 255.537 239.949 268.144 225.338 268.144C210.727 268.144 198.88 255.537 198.88 239.952C198.88 235.498 199.851 231.258 201.566 227.514L175.932 211.41C170.674 217.838 162.607 221.943 153.547 221.943C143.415 221.943 134.513 216.778 129.402 208.997L70.4961 230.028L164.593 324.089C174.86 334.362 191.671 334.362 201.938 324.089L300.401 225.676L298.55 223.973C290.811 229.769 278.343 229.138 268.291 221.796Z" fill="white" fill-opacity="0.08"/>
<path fill-rule="evenodd" clip-rule="evenodd" d="M124.842 193.738C124.842 178.153 137.693 165.523 153.545 165.523C154.673 165.523 155.779 165.591 156.862 165.703L157.11 144.277C142.962 143.973 131.589 133.835 131.589 121.374C131.589 116.187 133.541 111.416 136.847 107.594L114.169 93.3848L42.6372 164.88C32.3814 175.131 32.3814 191.933 42.6372 202.195L67.1655 226.722L127.324 205.217C125.733 201.71 124.842 197.831 124.842 193.738Z" fill="white" fill-opacity="0.08"/>
<path fill-rule="evenodd" clip-rule="evenodd" d="M201.936 42.9808C192.03 33.0684 176.178 31.7264 165.155 41.9658C165.325 41.9658 125.52 82.0438 117.238 90.321L139.973 104.552C144.644 100.763 150.894 98.4291 157.765 98.4291C168.484 98.4291 177.679 104.068 181.741 112.142L194.896 108.003C194.546 106.695 194.366 105.319 194.366 103.932C194.366 93.9635 203.572 85.9231 214.911 85.9231C226.25 85.9231 235.468 93.9635 235.468 103.932C235.468 107.067 234.554 110.022 232.93 112.582L252.121 124.467C258.868 117.983 271.076 118.096 280.768 125.167C291.362 132.914 294.916 146.051 288.733 154.52C285.935 158.366 281.591 160.565 276.706 161.128L277.53 181.686C282.799 182.103 288.327 184.088 293.28 187.697C305.059 196.324 309.042 210.95 302.137 220.366C302.001 220.546 301.832 220.772 301.697 220.952L303.491 222.599L318.203 207.916V208.119L324.465 201.861C334.721 191.587 334.721 174.807 324.465 164.534C285.506 125.606 242.351 83.3519 201.936 42.9808Z" fill="white" fill-opacity="0.08"/>
<path fill-rule="evenodd" clip-rule="evenodd" d="M349.164 139.825C308.344 99.0024 267.354 58.7327 226.523 17.9218C202.615 -5.97392 163.668 -5.97392 139.76 17.9218C98.7139 58.9245 59.146 98.9686 17.9308 140.163C-5.97693 164.081 -5.97693 202.998 17.9308 226.893C58.6721 267.625 99.4021 308.346 140.143 349.078C164.051 372.974 202.999 372.974 226.918 349.078C267.727 308.29 308.355 267.344 349.164 226.555C373.083 202.648 373.083 163.709 349.164 139.825ZM339.472 216.857C298.426 257.882 257.595 299.02 217.215 339.391C198.655 357.931 168.384 357.931 149.835 339.391C109.116 298.693 68.3864 257.939 27.6225 217.207C9.06271 198.656 9.06271 168.423 27.6225 149.872C68.7136 108.813 108.868 68.1828 149.452 27.6199C168.011 9.06942 198.282 9.06942 216.831 27.6199C257.561 68.3181 298.551 108.599 339.484 149.523C358.032 168.051 358.032 198.307 339.472 216.857Z" fill="white" fill-opacity="0.08"/>
</svg>
