<svg width="43" height="43" viewBox="0 0 43 43" fill="none" xmlns="http://www.w3.org/2000/svg">
<g clip-path="url(#clip0_146_486)">
<path d="M24.576 12.4942C25.8502 12.4942 27.0752 12.5001 28.2994 12.4854C28.4213 12.484 28.5688 12.3892 28.6591 12.2945C29.4231 11.491 30.3024 11.2883 31.3351 11.7194C31.8489 11.9339 32.4375 11.6746 32.6261 11.1106C33.2339 9.28778 36.2174 9.35535 36.9844 10.5275C37.1026 10.7074 37.22 10.8917 37.3081 11.0871C37.5921 11.718 38.0971 11.9236 38.7533 11.668C39.634 11.3243 40.4252 11.48 41.1137 12.1248C41.6113 12.5904 42.1413 13.0612 42.1728 13.8C42.1897 14.2054 42.1192 14.6306 42.0011 15.0214C41.8249 15.6037 42.0113 16.1524 42.5677 16.3844C43.5512 16.7942 43.982 17.536 43.9989 18.5877C44.0121 19.419 43.8976 20.1814 43.2018 20.7285C43.0015 20.8864 42.76 20.9966 42.528 21.1082C42.0341 21.3461 41.7897 21.905 41.9981 22.4125C42.4003 23.3908 42.2124 24.2243 41.491 24.9954C40.6968 25.8437 39.819 26.2623 38.6725 25.7783C38.6212 25.757 38.5624 25.7541 38.4443 25.7299C38.4443 25.9039 38.4443 26.0545 38.4443 26.2043C38.4443 29.1831 38.445 32.1611 38.4443 35.1399C38.4435 37.4225 36.9918 38.8685 34.7018 38.8693C32.1887 38.87 29.6756 38.8693 27.1618 38.8693C27.0069 38.8693 26.8521 38.8693 26.6774 38.8693C26.6774 39.8027 26.6774 40.6936 26.6774 41.6322C28.0418 41.6322 29.4048 41.6322 30.792 41.6322C30.792 42.1073 30.792 42.5355 30.792 42.9989C24.8182 42.9989 18.8335 42.9989 12.8194 42.9989C12.8194 42.5715 12.8194 42.133 12.8194 41.6615C14.1765 41.6615 15.5292 41.6615 16.9156 41.6615C16.9156 40.7288 16.9156 39.8277 16.9156 38.8685C16.7711 38.8685 16.6177 38.8685 16.465 38.8685C13.9225 38.8685 11.3808 38.87 8.83838 38.8678C6.64016 38.8656 5.16342 37.3953 5.16269 35.2031C5.16049 29.6795 5.16195 24.1567 5.16195 18.6332C5.16195 18.4606 5.16195 18.2873 5.16195 18.0457C4.53441 18.0457 3.92009 18.056 3.30649 18.0413C3.02025 18.0347 2.72446 18.0185 2.45216 17.9399C1.60516 17.6939 1.00772 16.8956 1.00625 15.9878C0.99891 11.3463 0.996709 6.70558 1.00698 2.06407C1.00919 0.905901 1.91857 0.00624253 3.08263 0.00550811C9.55326 -0.00183604 16.0239 -0.00183604 22.4952 0.00550811C23.6953 0.00697694 24.5716 0.923527 24.5738 2.15294C24.5804 5.4064 24.576 8.65912 24.576 11.9126C24.576 12.0844 24.576 12.257 24.576 12.4942ZM34.2827 31.9078C34.2827 30.5653 34.2878 29.2521 34.2717 27.9397C34.2702 27.8494 34.1227 27.7172 34.017 27.6797C33.3652 27.4506 32.9087 27.029 32.6401 26.3901C32.3795 25.771 31.8511 25.5587 31.2316 25.7952C31.0577 25.8613 30.8778 25.9215 30.6951 25.9531C29.6617 26.1331 28.9695 25.5661 28.342 24.8618C27.7269 24.1714 27.5765 23.3937 27.9082 22.5293C28.1688 21.8499 27.9647 21.3682 27.2976 21.0649C26.4418 20.6756 26.0014 20.0073 25.9603 19.0606C25.9221 18.1713 26.0043 17.3296 26.8557 16.6606C26.0329 16.6606 25.3423 16.6532 24.6524 16.6694C24.5547 16.6716 24.4175 16.7663 24.369 16.8567C23.9096 17.7145 23.1896 18.0574 22.2347 18.0545C18.1039 18.042 13.9732 18.0494 9.84244 18.0494C9.67583 18.0494 9.50922 18.0494 9.34334 18.0494C9.34334 22.7048 9.34334 27.2964 9.34334 31.91C17.6496 31.9078 25.9346 31.9078 34.2827 31.9078ZM2.3883 6.95675C2.3883 7.1308 2.3883 7.25933 2.3883 7.38785C2.3883 10.1625 2.38757 12.9371 2.38904 15.7124C2.38904 16.4439 2.60776 16.6584 3.3498 16.6591C9.64427 16.6598 15.9387 16.6598 22.2332 16.6591C22.9708 16.6591 23.1888 16.4425 23.1896 15.7073C23.1903 12.9327 23.1903 10.1581 23.1888 7.38271C23.1888 7.2439 23.1764 7.1051 23.169 6.95675C16.2353 6.95675 9.33894 6.95675 2.3883 6.95675ZM23.1896 5.53933C23.1896 4.45827 23.1903 3.4198 23.1896 2.38134C23.1888 1.58964 22.987 1.38915 22.1877 1.38915C16.2837 1.38915 10.3797 1.38915 4.47496 1.38915C4.0566 1.38915 3.63751 1.38547 3.21915 1.38988C2.64813 1.39649 2.39858 1.64252 2.38977 2.20508C2.3839 2.58037 2.3883 2.95639 2.3883 3.33241C2.3883 4.06389 2.3883 4.79536 2.3883 5.53933C9.33967 5.53933 16.236 5.53933 23.1896 5.53933ZM6.54841 18.0677C6.54841 18.2572 6.54841 18.4136 6.54841 18.5701C6.54841 24.0929 6.54841 29.6157 6.54841 35.1385C6.54841 36.6447 7.37706 37.4805 8.87141 37.4812C12.8576 37.482 16.8437 37.4812 20.8299 37.4812C20.9664 37.4812 21.1022 37.4812 21.2387 37.4812C20.3315 37.078 19.7487 36.4464 19.7326 35.4388C19.7157 34.393 20.3029 33.7343 21.238 33.3171C21.0846 33.3171 20.9312 33.3171 20.7778 33.3171C17.0514 33.3171 13.3251 33.3171 9.5995 33.3171C8.44571 33.3171 7.93634 32.8067 7.9356 31.6515C7.9356 27.3 7.9356 22.9479 7.9356 18.5965C7.9356 18.4268 7.9356 18.2579 7.9356 18.0684C7.46513 18.0677 7.03723 18.0677 6.54841 18.0677ZM38.3547 24.2618C38.5984 24.3264 38.8927 24.3609 39.1481 24.4806C39.6663 24.7237 40.0135 24.5137 40.3709 24.1531C40.724 23.7969 40.9376 23.4671 40.7174 22.9339C40.2102 21.7053 40.7724 20.3517 41.9952 19.8443C42.5002 19.6342 42.6154 19.278 42.6139 18.783C42.6125 18.2711 42.5493 17.8643 41.993 17.6351C40.7702 17.1328 40.2139 15.7771 40.7188 14.5447C40.9273 14.035 40.7475 13.7031 40.3981 13.3579C40.048 13.0113 39.7258 12.7667 39.1856 12.9878C37.9268 13.5033 36.5918 12.9481 36.0699 11.6967C35.8563 11.184 35.4835 11.0981 34.9968 11.0988C34.5014 11.0996 34.1043 11.1627 33.882 11.7003C33.3682 12.9386 32.0265 13.5099 30.8059 13.001C30.2518 12.7704 29.9178 12.9973 29.5538 13.3623C29.2059 13.7112 29.0283 14.0394 29.2382 14.5491C29.7431 15.7756 29.1809 17.1335 27.9589 17.6388C27.4267 17.8584 27.3416 18.241 27.3409 18.7441C27.3401 19.2487 27.4319 19.6298 27.9618 19.8479C29.1648 20.3444 29.7409 21.7053 29.2484 22.898C29.0334 23.4187 29.1883 23.7624 29.5552 24.1259C29.923 24.4902 30.2584 24.7112 30.8096 24.4814C32.0059 23.982 33.3748 24.5519 33.8658 25.7475C34.0816 26.2726 34.4449 26.3879 34.9572 26.3879C35.4776 26.3879 35.8776 26.3005 36.0897 25.7446C36.4721 24.7347 37.3375 24.4204 38.3547 24.2618ZM22.38 37.4812C26.5232 37.4812 30.6672 37.4827 34.8104 37.4805C36.1917 37.4798 37.0541 36.6176 37.0556 35.2347C37.0586 32.604 37.0571 29.9733 37.0556 27.3426C37.0556 27.2237 37.0387 27.1047 37.0336 27.0349C36.6769 27.2472 36.3525 27.4976 35.9855 27.6379C35.7293 27.7363 35.6626 27.8428 35.6648 28.0947C35.6758 29.294 35.6706 30.494 35.6692 31.6933C35.6677 32.7861 35.1407 33.3149 34.0486 33.3149C30.309 33.3156 26.5695 33.3149 22.8299 33.3149C22.6758 33.3149 22.5217 33.3149 22.3668 33.3149C23.3011 33.7284 23.8868 34.3886 23.8714 35.4322C23.8575 36.4428 23.2784 37.0773 22.38 37.4812ZM25.2329 41.6373C25.2329 40.7229 25.2329 39.813 25.2329 38.8987C22.9319 38.8987 20.6464 38.8987 18.3696 38.8987C18.3696 39.8284 18.3696 40.7296 18.3696 41.6373C20.6677 41.6373 22.9327 41.6373 25.2329 41.6373ZM24.5951 15.2432C25.7438 15.2432 26.8572 15.2432 27.964 15.2432C27.8686 14.7863 27.7783 14.3552 27.6836 13.9065C26.6708 13.9065 25.6425 13.9065 24.5944 13.9065C24.5951 14.356 24.5951 14.7834 24.5951 15.2432ZM22.4923 35.4197C22.504 35.0452 22.1987 34.7198 21.8237 34.7081C21.4486 34.6963 21.1249 35.0011 21.1132 35.3779C21.1014 35.7532 21.406 36.0778 21.7818 36.0895C22.1547 36.102 22.4806 35.795 22.4923 35.4197Z" fill="black"/>
<path d="M24.5583 19.4668C24.5583 19.9214 24.5583 20.3496 24.5583 20.8005C19.9439 20.8005 15.3478 20.8005 10.7305 20.8005C10.7305 20.354 10.7305 19.9258 10.7305 19.4668C15.328 19.4668 19.9241 19.4668 24.5583 19.4668Z" fill="black"/>
<path d="M10.7266 23.5688C10.7266 23.1127 10.7266 22.6853 10.7266 22.2344C15.3417 22.2344 19.9378 22.2344 24.5544 22.2344C24.5544 22.6824 24.5544 23.1098 24.5544 23.5688C19.9562 23.5688 15.3601 23.5688 10.7266 23.5688Z" fill="black"/>
<path d="M10.2188 29.9783C10.9696 29.2483 11.7197 28.5183 12.4977 27.7618C11.7263 26.9973 10.9821 26.26 10.2239 25.5094C10.574 25.1664 10.8874 24.8594 11.1868 24.5664C12.2511 25.6364 13.3161 26.7072 14.3605 27.7567C13.3124 28.7952 12.232 29.8652 11.1384 30.9477C10.8859 30.6819 10.5901 30.3705 10.2188 29.9783Z" fill="black"/>
<path d="M14.8867 30.5102C14.8867 30.0541 14.8867 29.626 14.8867 29.1758C16.718 29.1758 18.5308 29.1758 20.379 29.1758C20.379 29.6025 20.379 30.0402 20.379 30.5102C18.569 30.5102 16.7458 30.5102 14.8867 30.5102Z" fill="black"/>
<path d="M16.2852 8.34961C18.1303 8.34961 19.944 8.34961 21.7796 8.34961C21.7796 10.6469 21.7796 12.9243 21.7796 15.2362C19.9623 15.2362 18.1391 15.2362 16.2852 15.2362C16.2852 12.9588 16.2852 10.6711 16.2852 8.34961ZM20.3829 13.8643C20.3829 12.4616 20.3829 11.0993 20.3829 9.73839C19.4618 9.73839 18.5729 9.73839 17.6665 9.73839C17.6665 11.122 17.6665 12.4844 17.6665 13.8643C18.5795 13.8643 19.4684 13.8643 20.3829 13.8643Z" fill="black"/>
<path d="M3.80859 11.1211C7.48869 11.1211 11.1497 11.1211 14.8386 11.1211C14.8386 11.572 14.8386 12.0105 14.8386 12.4717C11.1666 12.4717 7.50557 12.4717 3.80859 12.4717C3.80859 12.0443 3.80859 11.6058 3.80859 11.1211Z" fill="black"/>
<path d="M14.8475 8.35938C14.8475 8.81985 14.8475 9.24728 14.8475 9.69674C12.5524 9.69674 10.2778 9.69674 7.96875 9.69674C7.96875 9.26638 7.96875 8.82793 7.96875 8.35938C10.244 8.35938 12.5289 8.35938 14.8475 8.35938Z" fill="black"/>
<path d="M3.78516 15.2443C3.78516 14.7875 3.78516 14.3704 3.78516 13.918C5.15033 13.918 6.5111 13.918 7.90416 13.918C7.90416 14.3403 7.90416 14.778 7.90416 15.2443C6.54559 15.2443 5.18556 15.2443 3.78516 15.2443Z" fill="black"/>
<path d="M3.80078 8.34961C4.70796 8.34961 5.59606 8.34961 6.51718 8.34961C6.51718 8.78512 6.51718 9.22283 6.51718 9.68918C5.62321 9.68918 4.72484 9.68918 3.80078 9.68918C3.80078 9.25588 3.80078 8.82845 3.80078 8.34961Z" fill="black"/>
<path d="M12.1328 13.8906C13.0473 13.8906 13.9252 13.8906 14.8367 13.8906C14.8367 14.3357 14.8367 14.7734 14.8367 15.2412C13.9457 15.2412 13.0473 15.2412 12.1328 15.2412C12.1328 14.7888 12.1328 14.3408 12.1328 13.8906Z" fill="black"/>
<path d="M9.34766 13.8906C9.80271 13.8906 10.2196 13.8906 10.671 13.8906C10.671 14.3305 10.671 14.7683 10.671 15.2383C10.2497 15.2383 9.81299 15.2383 9.34766 15.2383C9.34766 14.8042 9.34766 14.3673 9.34766 13.8906Z" fill="black"/>
<path d="M5.14393 2.79883C5.14393 3.25196 5.14393 3.67939 5.14393 4.13546C4.70062 4.13546 4.26391 4.13546 3.80078 4.13546C3.80078 3.69481 3.80078 3.25784 3.80078 2.79883C4.24189 2.79883 4.66833 2.79883 5.14393 2.79883Z" fill="black"/>
<path d="M6.57031 2.79688C7.02023 2.79688 7.44667 2.79688 7.90392 2.79688C7.90392 3.23752 7.90392 3.67524 7.90392 4.13939C7.46722 4.13939 7.03051 4.13939 6.57031 4.13939C6.57031 3.70094 6.57031 3.27424 6.57031 2.79688Z" fill="black"/>
<path d="M9.34375 2.79492C9.79661 2.79492 10.223 2.79492 10.6796 2.79492C10.6796 3.23924 10.6796 3.67622 10.6796 4.13964C10.2392 4.13964 9.80248 4.13964 9.34375 4.13964C9.34375 3.69825 9.34375 3.27082 9.34375 2.79492Z" fill="black"/>
<path d="M39.8295 18.7483C39.8258 21.4194 37.6379 23.6021 34.9692 23.5977C32.3027 23.5933 30.1213 21.4018 30.125 18.7314C30.1294 16.0618 32.3181 13.8784 34.9853 13.8828C37.6555 13.8872 39.8331 16.0758 39.8295 18.7483ZM31.5122 18.7263C31.5063 20.6409 33.0645 22.2081 34.9743 22.2096C36.8672 22.2111 38.4283 20.6659 38.443 18.7755C38.4577 16.8572 36.9105 15.2819 35.0022 15.2716C33.0873 15.2613 31.5181 16.8146 31.5122 18.7263Z" fill="black"/>
<path d="M34.9866 20.8214C33.8372 20.8258 32.8933 19.8798 32.8985 18.7283C32.9036 17.5958 33.8357 16.6646 34.9675 16.6602C36.1184 16.6558 37.0615 17.6002 37.0556 18.7525C37.0505 19.8843 36.1184 20.817 34.9866 20.8214ZM34.9748 19.4304C35.3499 19.4319 35.6655 19.1168 35.667 18.7415C35.6677 18.3655 35.355 18.0504 34.9792 18.049C34.6027 18.0482 34.2893 18.3603 34.2879 18.7371C34.2864 19.1139 34.5991 19.4297 34.9748 19.4304Z" fill="black"/>
</g>
<defs>
<clipPath id="clip0_146_486">
<rect width="43" height="43" fill="white"/>
</clipPath>
</defs>
</svg>
