<svg width="44" height="43" viewBox="0 0 44 43" fill="none" xmlns="http://www.w3.org/2000/svg">
<g clip-path="url(#clip0_146_476)">
<path d="M15.4974 12.4533C13.6191 12.4533 11.7723 12.4533 9.90234 12.4533C9.90234 11.0816 9.90234 9.72896 9.90234 8.3418C11.7514 8.3418 13.6087 8.3418 15.4974 8.3418C15.4974 9.69296 15.4974 11.0559 15.4974 12.4533ZM11.3157 9.71501C11.3157 10.1926 11.3157 10.6202 11.3157 11.0574C12.2551 11.0574 13.1707 11.0574 14.0848 11.0574C14.0848 10.5923 14.0848 10.1544 14.0848 9.71501C13.1475 9.71501 12.2424 9.71501 11.3157 9.71501Z" fill="black"/>
<path d="M22.569 8.33203C22.569 9.70377 22.569 11.0564 22.569 12.4406C20.7117 12.4406 18.8544 12.4406 16.9688 12.4406C16.9688 11.0814 16.9688 9.7192 16.9688 8.33203C18.8343 8.33203 20.6915 8.33203 22.569 8.33203ZM21.1587 9.72728C20.205 9.72728 19.2894 9.72728 18.3888 9.72728C18.3888 10.1975 18.3888 10.6354 18.3888 11.0608C19.3305 11.0608 20.2349 11.0608 21.1587 11.0608C21.1587 10.6104 21.1587 10.1828 21.1587 9.72728Z" fill="black"/>
<path d="M9.91016 13.8809C11.7884 13.8809 13.6352 13.8809 15.5052 13.8809C15.5052 15.2526 15.5052 16.6052 15.5052 17.9924C13.6554 17.9924 11.7988 17.9924 9.91016 17.9924C9.91016 16.6405 9.91016 15.2776 9.91016 13.8809ZM14.1068 15.2857C13.1785 15.2857 12.2532 15.2857 11.3212 15.2857C11.3212 15.7368 11.3212 16.1747 11.3212 16.6052C12.2667 16.6052 13.1823 16.6052 14.1068 16.6052C14.1068 16.1563 14.1068 15.739 14.1068 15.2857Z" fill="black"/>
<path d="M21.9008 31.9091C23.6109 31.7798 24.1116 32.5116 24.0047 34.0766C23.9278 35.1955 23.0025 36.0809 21.8664 36.0728C20.7506 36.0647 19.838 35.1853 19.764 34.0861C19.6609 32.5424 20.1033 31.7776 21.9008 31.9091ZM22.5727 33.2977C22.3306 33.2977 22.1146 33.2977 21.8986 33.2977C21.6691 33.2977 21.4404 33.2977 21.2177 33.2977C21.1048 34.2404 21.3163 34.6702 21.8687 34.6827C22.415 34.6937 22.625 34.3029 22.5727 33.2977Z" fill="black"/>
<path d="M40.6221 27.8576C39.776 27.1243 39.4509 26.3419 39.5174 25.2368C39.6146 23.6116 39.0159 22.1554 37.8702 20.9776C36.4067 19.4729 34.9015 18.0064 33.3813 16.556C32.3618 15.5832 30.8117 15.7853 30.0143 16.9403C29.959 17.0203 29.9051 17.1012 29.8865 17.1291C29.3341 16.9226 28.8229 16.7316 28.2668 16.5237C28.2668 15.8536 28.2668 15.1593 28.2668 14.4532C28.2706 14.4532 28.2736 14.4532 28.2773 14.4532C28.2736 14.1248 28.2706 13.7964 28.2668 13.4679C28.2668 13.1917 28.2668 12.9147 28.2668 12.637L28.2422 11.0845C28.2198 8.90747 28.1973 6.73047 28.1749 4.55347H28.1682V2.71371H28.1779C28.1704 2.6924 28.163 2.67109 28.1547 2.64978C27.4776 0.771083 26.3453 0.00035267 24.3228 0.00035267C18.9094 0.00035267 13.4953 -0.00185152 8.0819 0.00476104C7.70222 0.00549577 7.31208 0.0253334 6.94436 0.110562C5.31429 0.487478 4.2343 1.86656 4.23281 3.56673C4.22757 8.84428 4.22832 14.1218 4.23729 19.3994C4.23804 19.6977 4.15956 19.9108 3.93833 20.118C3.33219 20.6874 2.73278 21.2649 2.16027 21.8666C0.486106 23.6278 -0.234385 25.7144 0.0668164 28.1103C0.207327 29.2271 0.428557 30.3344 0.610174 31.4467C1.03768 34.0697 1.40241 36.7059 2.5848 39.1452C2.74698 39.4803 2.79407 39.8917 2.80752 40.2708C2.83891 41.1753 2.81724 42.0812 2.81724 43.0004C6.13194 43.0004 9.39209 43.0004 12.7045 43.0004C12.7045 42.824 12.7045 42.6954 12.7045 42.5661C12.7045 41.6845 12.6986 40.8021 12.706 39.9204C12.7128 39.1283 12.9968 38.8521 13.7748 38.8521C17.3937 38.8521 21.0126 38.858 24.6315 38.8499C26.6973 38.8455 28.222 37.3415 28.2407 35.3144C28.2452 34.8405 28.2414 34.3658 28.2414 33.9933C29.4717 33.9933 30.6593 33.983 31.8469 34.0036C32.0397 34.0073 32.2759 34.1021 32.4134 34.2343C33.5083 35.2842 34.5861 36.3518 35.6668 37.4164C36.0076 37.7522 36.3417 38.0938 36.631 38.3848C39.1071 35.9514 41.5451 33.5547 43.9995 31.1426C42.9046 30.0655 41.8216 28.8965 40.6221 27.8576ZM12.706 1.40736C15.0775 1.40736 17.3907 1.40736 19.7585 1.40736C19.7585 1.67333 19.7891 1.93122 19.751 2.17882C19.6942 2.55207 19.4491 2.77028 19.0559 2.77101C17.1777 2.77616 15.2995 2.77983 13.4213 2.76881C12.9736 2.76661 12.73 2.49917 12.7075 2.05539C12.6978 1.85554 12.706 1.65423 12.706 1.40736ZM5.64314 30.9743C5.64314 21.8953 5.6424 12.8162 5.64314 3.73718C5.64314 2.21629 6.49144 1.39046 8.05275 1.38899C9.10957 1.38826 10.1671 1.38899 11.2935 1.38899C11.2935 1.64541 11.2912 1.84526 11.2942 2.04584C11.3114 3.25079 12.1754 4.14422 13.3959 4.15745C15.2928 4.17802 17.1912 4.17802 19.0881 4.15671C20.2854 4.14349 21.1561 3.253 21.1808 2.07964C21.1853 1.86656 21.1815 1.65276 21.1815 1.38899C22.2189 1.38899 23.2152 1.38458 24.2115 1.39193C24.5336 1.39413 24.864 1.38899 25.1764 1.45438C25.8879 1.60353 26.3744 2.02233 26.6368 2.63068C26.6928 4.3257 26.7496 6.02146 26.8057 7.71647H26.8221V13.3078C26.8259 13.6663 26.8289 14.0249 26.8318 14.3827C26.8326 15.2526 26.8311 16.1225 26.8266 16.9917C26.8259 17.1092 26.7661 17.2342 26.7093 17.3429C26.4865 17.772 26.2534 18.1966 26.0239 18.6228C26.0568 18.6485 26.0889 18.675 26.1218 18.7007C25.8998 18.7462 25.6786 18.791 25.4372 18.841C25.4372 16.5876 25.4372 14.365 25.4372 12.1579C25.4372 11.8552 25.4372 11.5518 25.4372 11.2491V6.08023C25.426 5.96047 25.426 5.84292 25.4372 5.7283V5.55049H23.772C23.7212 5.55711 23.6651 5.55931 23.6016 5.55858C18.2771 5.55196 12.9527 5.55343 7.62748 5.55343C7.45409 5.55343 7.28069 5.55343 7.05572 5.55343C7.05572 5.7643 7.05572 5.93255 7.05572 6.10081C7.05572 14.2688 7.05946 22.4375 7.04302 30.6055C7.04227 30.9449 6.90849 31.3152 6.73285 31.6113C6.63868 31.77 6.29712 31.906 6.11326 31.8619C5.9279 31.8178 5.77768 31.5533 5.65809 31.3578C5.59905 31.2623 5.64314 31.1044 5.64314 30.9743ZM11.2733 41.6058C8.93692 41.6058 6.61999 41.6058 4.26644 41.6058C4.26644 41.1797 4.26644 40.7411 4.26644 40.2716C6.58038 40.2716 8.90777 40.2716 11.2733 40.2716C11.2733 40.7271 11.2733 41.1547 11.2733 41.6058ZM11.5977 38.6375C11.5506 38.7411 11.3622 38.8425 11.2397 38.8425C8.9302 38.855 6.61999 38.8462 4.31054 38.8587C4.05194 38.8602 3.96599 38.7529 3.87181 38.5464C3.07883 36.8073 2.58405 34.9911 2.31274 33.1043C2.0661 31.3887 1.72753 29.6856 1.47641 27.9707C1.2051 26.1214 1.73501 24.4764 2.96672 23.0642C3.33369 22.644 3.78213 22.292 4.23056 21.8747C4.23056 22.051 4.23056 22.2039 4.23056 22.3559C4.23056 25.2772 4.22982 28.1978 4.23131 31.1191C4.23206 32.2513 4.82026 33.0294 5.84046 33.2549C6.78292 33.4628 7.64766 32.9845 8.14917 32.0007C9.10359 30.1264 9.65816 28.1228 10.1455 26.0972C10.1858 25.9289 10.2232 25.7585 10.2845 25.5961C10.4392 25.1832 10.8211 24.9407 11.2411 24.9731C11.6791 25.0076 12.0476 25.3191 12.0954 25.7717C12.1963 26.7349 12.2673 27.7011 12.3451 28.6665C12.4572 30.064 12.5625 31.4622 12.6739 32.8604C12.8353 34.8801 12.4317 36.7992 11.5977 38.6375ZM11.7785 23.5932C13.0057 23.5932 14.2322 23.5932 15.4953 23.5932C15.4953 22.2031 15.4953 20.8395 15.4953 19.4457C13.6485 19.4457 11.7897 19.4457 9.90629 19.4457C9.90629 20.8152 9.90629 22.1803 9.90629 23.5829C10.1477 23.5829 10.3712 23.5829 10.5946 23.5829C9.01091 24.0429 8.84948 25.4051 8.49222 26.6534C8.49222 20.1033 8.49222 13.5539 8.49222 6.97366C13.6515 6.97366 18.8048 6.97366 23.982 6.97366C23.982 11.3615 23.982 15.7324 23.982 20.1856C23.1801 19.4641 22.4289 18.7881 21.5791 18.024C21.9895 18.024 22.2653 18.024 22.5665 18.024C22.5665 16.6346 22.5665 15.2702 22.5665 13.8838C20.7024 13.8838 18.8549 13.8838 16.9684 13.8838C16.9602 14.005 16.9438 14.1285 16.9438 14.2526C16.9415 15.3804 16.9423 16.5082 16.943 17.636C16.943 18.013 16.9423 18.3899 16.9445 18.7668C16.9483 19.4442 17.236 19.9879 17.7368 20.4427C19.3893 21.9445 21.0365 23.4522 22.6853 24.9576C22.9103 25.1633 23.1345 25.3698 23.4103 25.624C23.2436 25.6446 23.1382 25.6622 23.0313 25.6696C21.8542 25.7533 20.7929 26.1501 19.8683 26.8635C19.1344 27.43 18.9274 28.1934 19.1576 29.1044C17.3691 29.1044 15.6007 29.1044 13.7957 29.1044C13.727 28.2345 13.6612 27.3741 13.5887 26.5138C13.5558 26.1251 13.5499 25.7283 13.4579 25.3522C13.2397 24.4698 12.6313 23.9239 11.7785 23.5932ZM11.3196 22.1759C11.3196 21.7226 11.3196 21.2854 11.3196 20.8255C12.2389 20.8255 13.144 20.8255 14.0835 20.8255C14.0835 21.2568 14.0835 21.6947 14.0835 22.1759C13.156 22.1759 12.2509 22.1759 11.3196 22.1759ZM21.1471 15.2717C21.1471 15.7052 21.1471 16.1431 21.1471 16.6104C20.2383 16.6104 19.3228 16.6104 18.3773 16.6104C18.3773 16.1468 18.3773 15.7191 18.3773 15.2717C19.3033 15.2717 20.2084 15.2717 21.1471 15.2717ZM26.8229 35.4841C26.7818 36.5355 25.9118 37.4429 24.8453 37.4495C21.1262 37.4737 17.4064 37.4583 13.6874 37.4568C13.6605 37.4568 13.6343 37.437 13.5805 37.4164C13.6851 36.9895 13.7905 36.5583 13.9086 36.0748C14.446 36.0748 14.9856 36.0814 15.5252 36.0733C16.9632 36.0528 18.109 35.0704 18.331 33.6752C18.4939 32.6502 17.8623 31.9155 16.8085 31.9111C15.8982 31.9074 14.9878 31.9104 14.0117 31.9104C13.9774 31.4409 13.946 31.0111 13.9101 30.5217C14.0857 30.5217 14.2277 30.5217 14.3697 30.5217C16.6045 30.5217 18.8392 30.5298 21.0732 30.5188C22.3766 30.5122 23.5127 30.917 24.5239 31.7267C25.2055 32.2718 25.9357 32.7575 26.6338 33.2836C26.7302 33.3563 26.8176 33.5055 26.8214 33.6215C26.8393 34.2417 26.8475 34.864 26.8229 35.4841ZM14.1179 34.6759C14.1179 34.2211 14.1179 33.7935 14.1179 33.3196C15.0798 33.3196 15.9998 33.3196 16.9199 33.3196C16.8818 34.047 16.4057 34.6068 15.7173 34.6671C15.1956 34.7126 14.6665 34.6759 14.1179 34.6759ZM31.7527 32.6106C30.7983 32.5753 29.8401 32.6061 28.8894 32.5349C27.9417 32.4636 27.1174 32.0426 26.3857 31.4504C25.9768 31.1198 25.5762 30.7789 25.1584 30.4593C24.0433 29.607 22.7735 29.1676 21.3624 29.1397C20.9595 29.1316 20.6165 29.053 20.5006 28.6291C20.3885 28.2198 20.6591 27.9921 20.9708 27.7885C22.686 26.6681 24.7145 26.8238 26.2354 28.1978C26.5037 28.4402 26.7706 28.6842 27.0052 28.8965C27.3565 28.5835 27.6824 28.294 28.0935 27.9281C27.7564 27.6298 27.4529 27.3668 27.1547 27.0964C24.3438 24.5484 21.5328 21.9996 18.7256 19.4486C18.2884 19.0511 18.2383 18.6162 18.5686 18.2767C18.9042 17.9321 19.3982 17.9424 19.8235 18.3252C22.352 20.5985 24.8774 22.8761 27.4036 25.1523C27.512 25.2493 27.6211 25.3456 27.7631 25.4705C28.0912 25.1318 28.3947 24.8195 28.7265 24.4771C28.6107 24.3566 28.5053 24.2427 28.3947 24.1333C27.5112 23.2633 26.6248 22.3971 25.7444 21.5242C25.3423 21.1253 25.3154 20.6749 25.6554 20.3406C25.9955 20.0063 26.4537 20.0313 26.8602 20.4288C27.8491 21.3971 28.8304 22.3721 29.8349 23.364C30.1615 23.0084 30.462 22.6814 30.8132 22.3001C30.4545 21.9607 30.0389 21.5757 29.6323 21.1811C29.0561 20.6227 28.4858 20.0592 27.9156 19.4949C27.4641 19.0482 27.4186 18.5956 27.784 18.2488C28.1375 17.913 28.5837 17.9586 29.0202 18.3855C29.8962 19.2422 30.7684 20.1018 31.6428 20.96C31.7452 21.0606 31.8536 21.1561 31.9724 21.2656C32.3028 20.9379 32.6174 20.6257 32.9754 20.2708C32.456 19.7712 31.9388 19.2804 31.4298 18.7822C30.9971 18.3583 30.956 17.913 31.3013 17.5677C31.6481 17.2217 32.1077 17.2569 32.5375 17.6779C33.9022 19.0144 35.264 20.3545 36.6265 21.694C37.6452 22.6954 38.0675 23.9114 38.1557 25.3198C38.2214 26.3632 37.8948 27.0854 37.116 27.7929C35.5188 29.244 34.0158 30.7965 32.4852 32.3181C32.2707 32.5334 32.0569 32.6216 31.7527 32.6106ZM33.6227 33.277C35.3312 31.5981 37.0936 29.8671 38.8208 28.1706C39.8388 29.1742 40.9001 30.2205 41.9352 31.241C40.2252 32.9191 38.4621 34.6494 36.7184 36.3613C35.7057 35.3518 34.6496 34.2997 33.6227 33.277Z" fill="black"/>
</g>
<defs>
<clipPath id="clip0_146_476">
<rect width="44" height="43" fill="white"/>
</clipPath>
</defs>
</svg>
