<svg width="151" height="49" viewBox="0 0 151 49" fill="none" xmlns="http://www.w3.org/2000/svg">
<g clip-path="url(#clip0_154_473)">
<path d="M145.407 0.330078H5.59259C2.50389 0.330078 0 3.01637 0 6.33008V42.3301C0 45.6438 2.50389 48.3301 5.59259 48.3301H145.407C148.496 48.3301 151 45.6438 151 42.3301V6.33008C151 3.01637 148.496 0.330078 145.407 0.330078Z" fill="black"/>
<path d="M76.2175 26.4312C75.275 26.4335 74.3545 26.7357 73.5721 27.2994C72.7898 27.863 72.1808 28.663 71.8222 29.598C71.4636 30.533 71.3715 31.561 71.5575 32.5522C71.7435 33.5434 72.1993 34.4531 72.8673 35.1664C73.5352 35.8796 74.3853 36.3643 75.31 36.5592C76.2348 36.7542 77.1926 36.6505 78.0624 36.2614C78.9322 35.8723 79.675 35.2152 80.1967 34.3732C80.7184 33.5313 80.9957 32.5422 80.9935 31.5312C81.0026 30.8567 80.8852 30.1871 80.6481 29.5624C80.411 28.9376 80.0592 28.3704 79.6136 27.8946C79.1679 27.4187 78.6376 27.0439 78.0542 26.7925C77.4707 26.5411 76.8461 26.4182 76.2175 26.4312ZM76.2175 34.6272C75.6398 34.6705 75.0634 34.5264 74.5631 34.2136C74.0628 33.9008 73.6618 33.4338 73.4122 32.8733C73.1626 32.3127 73.076 31.6846 73.1635 31.0705C73.2511 30.4565 73.5088 29.8849 73.9032 29.43C74.2976 28.9752 74.8104 28.6581 75.375 28.5201C75.9395 28.3821 76.5297 28.4294 77.0688 28.6561C77.608 28.8827 78.0711 29.2781 78.398 29.7908C78.7249 30.3035 78.9005 30.9099 78.9019 31.5312C78.9199 31.9248 78.8643 32.3183 78.7383 32.6885C78.6123 33.0586 78.4185 33.398 78.1683 33.6866C77.9181 33.9751 77.6166 34.207 77.2816 34.3685C76.9465 34.5301 76.5847 34.618 76.2175 34.6272ZM65.7929 26.4312C64.8505 26.4335 63.9299 26.7357 63.1475 27.2994C62.3652 27.863 61.7562 28.663 61.3976 29.598C61.039 30.533 60.9469 31.561 61.1329 32.5522C61.3189 33.5434 61.7747 34.4531 62.4427 35.1664C63.1106 35.8796 63.9607 36.3643 64.8854 36.5592C65.8102 36.7542 66.768 36.6505 67.6378 36.2614C68.5076 35.8723 69.2504 35.2152 69.7721 34.3732C70.2939 33.5313 70.5711 32.5422 70.5689 31.5312C70.578 30.8567 70.4606 30.1871 70.2235 29.5624C69.9864 28.9376 69.6346 28.3704 69.189 27.8946C68.7433 27.4187 68.213 27.0439 67.6296 26.7925C67.0461 26.5411 66.4215 26.4182 65.7929 26.4312ZM65.7929 34.6272C65.2152 34.6705 64.6388 34.5264 64.1385 34.2136C63.6382 33.9008 63.2372 33.4338 62.9876 32.8733C62.738 32.3127 62.6514 31.6846 62.7389 31.0705C62.8265 30.4565 63.0842 29.8849 63.4786 29.43C63.873 28.9752 64.3858 28.6581 64.9504 28.5201C65.5149 28.3821 66.1051 28.4294 66.6443 28.6561C67.1834 28.8827 67.6465 29.2781 67.9734 29.7908C68.3003 30.3035 68.4759 30.9099 68.4773 31.5312C68.4953 31.9248 68.4397 32.3183 68.3137 32.6885C68.1877 33.0586 67.9939 33.398 67.7437 33.6866C67.4935 33.9751 67.192 34.207 66.857 34.3685C66.5219 34.5301 66.1601 34.618 65.7929 34.6272ZM53.3997 28.0032V30.1632H58.2317C58.1559 31.1805 57.7617 32.1405 57.1132 32.8872C56.6285 33.417 56.0455 33.8317 55.4019 34.1046C54.7584 34.3774 54.0687 34.5023 53.3773 34.4712C51.9534 34.4712 50.5878 33.8643 49.5809 32.7841C48.5741 31.7039 48.0084 30.2388 48.0084 28.7112C48.0084 27.1835 48.5741 25.7184 49.5809 24.6382C50.5878 23.558 51.9534 22.9512 53.3773 22.9512C54.7424 22.9294 56.0605 23.4855 57.046 24.4992L58.4666 22.9752C57.7999 22.2678 57.0084 21.7102 56.1383 21.3352C55.2683 20.9602 54.3372 20.7752 53.3997 20.7912C52.4053 20.7496 51.4134 20.9239 50.4833 21.3035C49.5532 21.6831 48.7041 22.2603 47.9869 23.0004C47.2697 23.7405 46.6991 24.6283 46.3094 25.6106C45.9196 26.5929 45.7188 27.6495 45.7188 28.7172C45.7188 29.7848 45.9196 30.8414 46.3094 31.8237C46.6991 32.806 47.2697 33.6939 47.9869 34.4339C48.7041 35.174 49.5532 35.7512 50.4833 36.1308C51.4134 36.5104 52.4053 36.6847 53.3997 36.6432C54.3565 36.6842 55.3105 36.5076 56.1992 36.1249C57.0879 35.7423 57.8911 35.1624 58.556 34.4232C59.7306 33.0388 60.3565 31.2182 60.3009 29.3472C60.3049 28.8968 60.2712 28.447 60.2003 28.0032H53.3997ZM104.08 29.6832C103.788 28.7624 103.243 27.9585 102.516 27.3778C101.788 26.7971 100.914 26.4669 100.008 26.4312C99.3965 26.4299 98.7909 26.5632 98.229 26.823C97.6672 27.0828 97.1609 27.4634 96.7416 27.9414C96.3222 28.4194 95.9987 28.9846 95.7911 29.602C95.5834 30.2195 95.496 30.876 95.5343 31.5312C95.5247 32.6266 95.8457 33.6959 96.4493 34.5795C97.053 35.463 97.9068 36.1134 98.8834 36.4333C99.86 36.7533 100.907 36.7258 101.868 36.3548C102.828 35.9838 103.651 35.2894 104.214 34.3752L102.592 33.1752C102.35 33.6075 102.007 33.9645 101.597 34.2108C101.187 34.4571 100.724 34.5841 100.254 34.5792C99.7696 34.6006 99.2901 34.4643 98.8789 34.188C98.4676 33.9117 98.1439 33.5084 97.9503 33.0312L104.315 30.2112L104.08 29.6832ZM97.5923 31.3872C97.5697 31.0144 97.6165 30.6406 97.7302 30.2875C97.8439 29.9344 98.0221 29.6092 98.2544 29.331C98.4867 29.0527 98.7684 28.827 99.083 28.667C99.3976 28.507 99.7388 28.4159 100.087 28.3992C100.447 28.3756 100.806 28.4666 101.118 28.6608C101.431 28.8551 101.683 29.1439 101.843 29.4912L97.5923 31.3872ZM92.4248 36.3312H94.5164V21.3312H92.4248V36.3312ZM89.0021 27.5712H88.9238C88.6114 27.1894 88.2257 26.8845 87.7933 26.6774C87.3609 26.4703 86.8919 26.3658 86.4183 26.3712C85.196 26.4348 84.0433 27.0005 83.1992 27.9511C82.3551 28.9016 81.8842 30.1642 81.8842 31.4772C81.8842 32.7901 82.3551 34.0527 83.1992 35.0033C84.0433 35.9539 85.196 36.5196 86.4183 36.5832C86.8926 36.5934 87.363 36.4911 87.7961 36.2837C88.2292 36.0762 88.6143 35.7687 88.9238 35.3832H89.0021V36.1152C89.0021 38.0712 88.029 39.1152 86.4631 39.1152C85.94 39.1028 85.4321 38.924 85.0039 38.6014C84.5757 38.2787 84.2466 37.8269 84.0583 37.3032L82.2463 38.1072C82.5813 39.0099 83.1637 39.7822 83.9167 40.3222C84.6696 40.8621 85.5575 41.1442 86.4631 41.1312C88.9126 41.1312 90.9372 39.5832 90.9372 35.8152V26.7312H89.0021V27.5712ZM86.5973 34.6272C85.8645 34.5781 85.1766 34.2313 84.6738 33.6572C84.171 33.0831 83.8911 32.3249 83.8911 31.5372C83.8911 30.7494 84.171 29.9913 84.6738 29.4172C85.1766 28.8431 85.8645 28.4962 86.5973 28.4472C86.9555 28.4637 87.3069 28.5575 87.6307 28.7227C87.9544 28.888 88.2438 29.1214 88.4818 29.4092C88.7197 29.6969 88.9013 30.033 89.0156 30.3976C89.13 30.7621 89.1749 31.1476 89.1475 31.5312C89.178 31.916 89.1355 32.3035 89.0224 32.6701C88.9094 33.0368 88.7282 33.3751 88.4898 33.6645C88.2514 33.9539 87.9608 34.1884 87.6355 34.3539C87.3102 34.5194 86.957 34.6123 86.5973 34.6272ZM113.878 21.3312H108.867V36.3312H110.959V30.6432H113.878C114.474 30.6891 115.073 30.6028 115.636 30.3896C116.2 30.1765 116.717 29.841 117.154 29.4042C117.592 28.9673 117.941 28.4384 118.179 27.8506C118.418 27.2627 118.541 26.6283 118.541 25.9872C118.541 25.346 118.418 24.7116 118.179 24.1238C117.941 23.5359 117.592 23.007 117.154 22.5702C116.717 22.1333 116.2 21.7979 115.636 21.5847C115.073 21.3715 114.474 21.2852 113.878 21.3312ZM113.878 28.5312H110.959V23.4192H113.923C114.237 23.4192 114.548 23.4856 114.839 23.6146C115.129 23.7437 115.393 23.9328 115.615 24.1713C115.838 24.4098 116.014 24.6929 116.134 25.0044C116.254 25.316 116.316 25.6499 116.316 25.9872C116.316 26.3244 116.254 26.6583 116.134 26.9699C116.014 27.2815 115.838 27.5645 115.615 27.803C115.393 28.0415 115.129 28.2306 114.839 28.3597C114.548 28.4887 114.237 28.5552 113.923 28.5552L113.878 28.5312ZM126.786 26.3832C126.024 26.3328 125.265 26.523 124.603 26.9304C123.941 27.3377 123.405 27.9443 123.061 28.6752L124.907 29.5032C125.093 29.1424 125.373 28.8474 125.712 28.6536C126.052 28.4598 126.436 28.3756 126.819 28.4112C127.085 28.3779 127.354 28.4017 127.611 28.4811C127.868 28.5606 128.107 28.6942 128.315 28.874C128.524 29.0539 128.696 29.2764 128.824 29.5286C128.951 29.7809 129.03 30.0578 129.056 30.3432V30.4872C128.384 30.1079 127.635 29.9102 126.875 29.9112C124.884 29.9112 122.848 31.1112 122.848 33.2952C122.868 33.7594 122.975 34.2146 123.162 34.6338C123.348 35.053 123.612 35.4277 123.936 35.7355C124.261 36.0433 124.64 36.278 125.05 36.4257C125.461 36.5734 125.895 36.631 126.327 36.5952C126.852 36.6263 127.375 36.5071 127.843 36.2499C128.311 35.9926 128.706 35.6065 128.989 35.1312H129.056V36.3312H131.07V30.5592C131.07 27.9312 129.213 26.4072 126.83 26.4072L126.786 26.3832ZM126.528 34.6032C125.846 34.6032 124.895 34.2312 124.895 33.3312C124.895 32.1312 126.081 31.7232 127.132 31.7232C127.797 31.7056 128.454 31.8796 129.034 32.2272C128.964 32.8788 128.676 33.4811 128.223 33.9224C127.771 34.3637 127.185 34.6141 126.573 34.6272L126.528 34.6032ZM138.407 26.7312L136.013 33.2352H135.946L133.463 26.7312H131.226L134.951 35.8272L132.826 40.8792H135.007L140.734 26.7312H138.407ZM119.616 36.3312H121.696V21.3312H119.616V36.3312Z" fill="white"/>
<path d="M11.675 9.37697C11.3065 9.84451 11.1184 10.4455 11.1493 11.057V37.601C11.1113 38.2134 11.3002 38.8172 11.675 39.281L11.7533 39.377L25.6118 24.509V24.149L11.7533 9.29297L11.675 9.37697Z" fill="url(#paint0_linear_154_473)"/>
<path d="M30.1992 29.4663L25.6133 24.5103V24.1503L30.1992 19.1943L30.2999 19.2663L35.7918 22.6023C37.3577 23.5503 37.3577 25.1103 35.7918 26.0703L30.3222 29.4063L30.1992 29.4663Z" fill="url(#paint1_linear_154_473)"/>
<path d="M30.3327 29.3931L25.6125 24.3291L11.6758 39.2811C11.9918 39.5829 12.3964 39.7566 12.8193 39.7719C13.2422 39.7873 13.6568 39.6433 13.9911 39.3651L30.3327 29.3931Z" fill="url(#paint2_linear_154_473)"/>
<path d="M30.3327 19.2668L13.9911 9.30682C13.6589 9.02472 13.2447 8.87729 12.8212 8.89046C12.3978 8.90363 11.9922 9.07655 11.6758 9.37882L25.6125 24.3308L30.3327 19.2668Z" fill="url(#paint3_linear_154_473)"/>
<path opacity="0.2" d="M30.1984 29.2861L13.9911 39.1861C13.6689 39.447 13.2763 39.5881 12.8726 39.5881C12.4689 39.5881 12.0763 39.447 11.7541 39.1861L11.6758 39.2701L11.7541 39.3661C12.0763 39.627 12.4689 39.7681 12.8726 39.7681C13.2763 39.7681 13.6689 39.627 13.9911 39.3661L30.3327 29.3941L30.1984 29.2861Z" fill="black"/>
<path opacity="0.12" d="M11.6783 39.1139C11.319 38.6379 11.1429 38.0326 11.1861 37.4219V37.6019C11.148 38.2143 11.337 38.8181 11.7118 39.2819L11.7901 39.1979L11.6783 39.1139Z" fill="black"/>
<path opacity="0.12" d="M35.7918 25.8891L30.1992 29.2851L30.2999 29.3931L35.7918 26.0571C36.116 25.91 36.3972 25.6719 36.6059 25.3678C36.8145 25.0637 36.9429 24.7049 36.9774 24.3291C36.9075 24.6706 36.7638 24.9897 36.5578 25.2606C36.3519 25.5316 36.0895 25.7469 35.7918 25.8891Z" fill="black"/>
<path opacity="0.25" d="M13.9895 9.47386L35.7894 22.7699C36.0871 22.9121 36.3495 23.1274 36.5554 23.3983C36.7614 23.6693 36.9051 23.9884 36.975 24.3299C36.9405 23.9541 36.8121 23.5952 36.6035 23.2911C36.3948 22.987 36.1136 22.7489 35.7894 22.6019L13.9895 9.30586C12.4347 8.34586 11.1484 9.13786 11.1484 11.0579V11.2379C11.182 9.31786 12.4347 8.52586 13.9895 9.47386Z" fill="white"/>
<path d="M47.1017 17.4545H46.2852V15.0545H46.9786C47.2907 14.6911 47.5253 14.2592 47.6663 13.7889C47.8073 13.3185 47.8512 12.8209 47.7952 12.3305V8.73047H52.2692V15.0425H53.0186V17.4425H52.1909V15.9305H47.1017V17.4545ZM48.6564 12.3305C48.7063 13.2944 48.4841 14.2521 48.0189 15.0785H51.3744V9.61847H48.6564V12.3305Z" fill="white" stroke="white" stroke-width="0.411304" stroke-miterlimit="10"/>
<path d="M59.7394 14.9934C59.4173 15.3399 59.0347 15.6148 58.6134 15.8024C58.1921 15.99 57.7404 16.0865 57.2843 16.0865C56.8281 16.0865 56.3765 15.99 55.9552 15.8024C55.5339 15.6148 55.1512 15.3399 54.8291 14.9934C54.1892 14.2764 53.832 13.3221 53.832 12.3294C53.832 11.3367 54.1892 10.3824 54.8291 9.6654C55.1512 9.31889 55.5339 9.04398 55.9552 8.8564C56.3765 8.66882 56.8281 8.57227 57.2843 8.57227C57.7404 8.57227 58.1921 8.66882 58.6134 8.8564C59.0347 9.04398 59.4173 9.31889 59.7394 9.6654C60.0625 10.0158 60.3171 10.432 60.488 10.8895C60.659 11.347 60.7429 11.8366 60.7349 12.3294C60.7481 12.8229 60.6666 13.3141 60.4953 13.7724C60.3241 14.2307 60.0668 14.6463 59.7394 14.9934ZM55.4555 14.3934C55.6912 14.656 55.9746 14.8639 56.2882 15.0043C56.6018 15.1446 56.9389 15.2145 57.2787 15.2094C57.6187 15.2166 57.9565 15.1478 58.2704 15.0073C58.5842 14.8668 58.8674 14.6577 59.1019 14.3934C59.5845 13.8307 59.8524 13.094 59.8524 12.3294C59.8524 11.5648 59.5845 10.828 59.1019 10.2654C58.8674 10.001 58.5842 9.79196 58.2704 9.65147C57.9565 9.51098 57.6187 9.44216 57.2787 9.4494C56.9389 9.44434 56.6018 9.51415 56.2882 9.65451C55.9746 9.79487 55.6912 10.0028 55.4555 10.2654C54.98 10.8318 54.7168 11.5671 54.7168 12.3294C54.7168 13.0917 54.98 13.827 55.4555 14.3934Z" fill="white" stroke="white" stroke-width="0.411304" stroke-miterlimit="10"/>
<path d="M65.0768 16.0858C64.6242 16.0934 64.1749 16.0027 63.7559 15.8191C63.3368 15.6356 62.9567 15.363 62.6384 15.0178C61.993 14.2941 61.6328 13.3313 61.6328 12.3298C61.6328 11.3282 61.993 10.3654 62.6384 9.64175C62.9619 9.29056 63.3493 9.01452 63.7765 8.83079C64.2037 8.64706 64.6615 8.55957 65.1215 8.57375C65.5898 8.55954 66.0549 8.66026 66.4814 8.86822C66.9078 9.07619 67.2844 9.38591 67.5823 9.77375L66.9895 10.3978C66.7697 10.0947 66.4854 9.85255 66.1604 9.69176C65.8353 9.53098 65.4791 9.45622 65.1215 9.47375C64.7772 9.46433 64.4348 9.53082 64.1154 9.66912C63.7961 9.80741 63.5065 10.0146 63.2648 10.2778C62.783 10.8456 62.516 11.5859 62.516 12.3538C62.516 13.1216 62.783 13.8619 63.2648 14.4298C63.5065 14.6929 63.7961 14.9001 64.1154 15.0384C64.4348 15.1767 64.7772 15.2432 65.1215 15.2338C65.5059 15.222 65.8832 15.1204 66.2271 14.9359C66.571 14.7514 66.8732 14.4886 67.1125 14.1658L67.7165 14.8018C67.4101 15.1957 67.0287 15.5148 66.598 15.7378C66.1222 15.9762 65.6019 16.0953 65.0768 16.0858Z" fill="white" stroke="white" stroke-width="0.411304" stroke-miterlimit="10"/>
<path d="M71.2286 15.9305H70.3674V9.61847H68.4883V8.73047H73.0966V9.61847H71.2286V15.9305Z" fill="white" stroke="white" stroke-width="0.411304" stroke-miterlimit="10"/>
<path d="M79.0234 8.73047L76.4843 14.8025C76.4227 15.0459 76.3126 15.2721 76.1614 15.4653C76.0103 15.6585 75.8218 15.8142 75.609 15.9215C75.3962 16.0288 75.1642 16.0852 74.929 16.0867C74.6939 16.0883 74.4613 16.035 74.2473 15.9305L74.471 15.0785C74.6079 15.161 74.7615 15.2063 74.9184 15.2105C75.0839 15.2194 75.248 15.1733 75.3882 15.0785C75.524 14.9572 75.6281 14.8 75.6902 14.6225L75.9363 14.0465L73.6992 8.73047H74.7171L76.3725 12.8585L78.0055 8.73047H79.0234Z" fill="white" stroke="white" stroke-width="0.411304" stroke-miterlimit="10"/>
<path d="M79.9961 15.9305V8.73047H84.8505V15.9305H83.9892V9.61847H80.8574V15.9305H79.9961Z" fill="white" stroke="white" stroke-width="0.411304" stroke-miterlimit="10"/>
<path d="M86.3828 15.9305V8.73047H87.2441V11.8145H90.5996V8.73047H91.4721V15.9305H90.5996V12.6785H87.2441V15.9305H86.3828Z" fill="white" stroke="white" stroke-width="0.411304" stroke-miterlimit="10"/>
<path d="M98.4967 14.9934C98.1737 15.3403 97.7901 15.6154 97.3678 15.8032C96.9456 15.9909 96.493 16.0876 96.036 16.0876C95.5789 16.0876 95.1263 15.9909 94.7041 15.8032C94.2819 15.6154 93.8983 15.3403 93.5752 14.9934C92.9353 14.2764 92.5781 13.3221 92.5781 12.3294C92.5781 11.3367 92.9353 10.3824 93.5752 9.6654C93.8973 9.31889 94.28 9.04398 94.7013 8.8564C95.1226 8.66882 95.5742 8.57227 96.0304 8.57227C96.4865 8.57227 96.9382 8.66882 97.3595 8.8564C97.7808 9.04398 98.1634 9.31889 98.4855 9.6654C99.1204 10.3852 99.4741 11.3385 99.4741 12.3294C99.4741 13.3203 99.1204 14.2736 98.4855 14.9934H98.4967ZM94.2128 14.3934C94.4472 14.6577 94.7304 14.8668 95.0443 15.0073C95.3582 15.1478 95.6959 15.2166 96.036 15.2094C96.3757 15.2145 96.7129 15.1446 97.0265 15.0043C97.3401 14.8639 97.6235 14.656 97.8592 14.3934C98.3347 13.827 98.5978 13.0917 98.5978 12.3294C98.5978 11.5671 98.3347 10.8318 97.8592 10.2654C97.6235 10.0028 97.3401 9.79487 97.0265 9.65451C96.7129 9.51415 96.3757 9.44434 96.036 9.4494C95.6959 9.44216 95.3582 9.51098 95.0443 9.65147C94.7304 9.79196 94.4472 10.001 94.2128 10.2654C93.7302 10.828 93.4623 11.5648 93.4623 12.3294C93.4623 13.094 93.7302 13.8307 94.2128 14.3934Z" fill="white" stroke="white" stroke-width="0.411304" stroke-miterlimit="10"/>
<path d="M103.004 15.9306V8.73058H105.431C105.934 8.72516 106.421 8.92209 106.796 9.28258C106.983 9.45659 107.132 9.67255 107.232 9.91517C107.333 10.1578 107.382 10.4211 107.377 10.6866C107.38 11.0098 107.294 11.3269 107.131 11.5986C106.966 11.8562 106.738 12.0598 106.471 12.1866C106.794 12.305 107.078 12.5219 107.288 12.8106C107.493 13.1047 107.603 13.463 107.601 13.8306C107.607 14.1072 107.556 14.3818 107.451 14.6348C107.347 14.8879 107.192 15.1131 106.997 15.2946C106.609 15.6821 106.096 15.8929 105.565 15.8826L103.004 15.9306ZM103.865 11.8146H105.431C105.578 11.8237 105.724 11.7971 105.86 11.7368C105.995 11.6766 106.116 11.5842 106.214 11.4666C106.404 11.2672 106.512 10.9954 106.516 10.7106C106.527 10.4248 106.435 10.1456 106.259 9.93058C106.165 9.81867 106.049 9.7305 105.919 9.6724C105.79 9.61431 105.65 9.58773 105.509 9.59458H103.899L103.865 11.8146ZM103.865 15.0426H105.61C105.762 15.048 105.912 15.0175 106.052 14.9532C106.191 14.8889 106.315 14.7924 106.415 14.6706C106.609 14.4493 106.716 14.1577 106.717 13.8546C106.711 13.5539 106.599 13.267 106.404 13.0506C106.296 12.9291 106.166 12.8332 106.022 12.7692C105.877 12.7051 105.722 12.6742 105.565 12.6786H103.865V15.0426Z" fill="white" stroke="white" stroke-width="0.411304" stroke-miterlimit="10"/>
</g>
<defs>
<linearGradient id="paint0_linear_154_473" x1="24.3814" y1="10.781" x2="4.29509" y2="29.5034" gradientUnits="userSpaceOnUse">
<stop stop-color="#00A0FF"/>
<stop offset="0.01" stop-color="#00A1FF"/>
<stop offset="0.26" stop-color="#00BEFF"/>
<stop offset="0.51" stop-color="#00D2FF"/>
<stop offset="0.76" stop-color="#00DFFF"/>
<stop offset="1" stop-color="#00E3FF"/>
</linearGradient>
<linearGradient id="paint1_linear_154_473" x1="37.8387" y1="24.3303" x2="10.7817" y2="24.3303" gradientUnits="userSpaceOnUse">
<stop stop-color="#FFE000"/>
<stop offset="0.41" stop-color="#FFBD00"/>
<stop offset="0.78" stop-color="#FFA500"/>
<stop offset="1" stop-color="#FF9C00"/>
</linearGradient>
<linearGradient id="paint2_linear_154_473" x1="27.7713" y1="27.0891" x2="0.527481" y2="52.4718" gradientUnits="userSpaceOnUse">
<stop stop-color="#FF3A44"/>
<stop offset="1" stop-color="#C31162"/>
</linearGradient>
<linearGradient id="paint3_linear_154_473" x1="8.16363" y1="0.546824" x2="20.3256" y2="11.8829" gradientUnits="userSpaceOnUse">
<stop stop-color="#32A071"/>
<stop offset="0.07" stop-color="#2DA771"/>
<stop offset="0.48" stop-color="#15CF74"/>
<stop offset="0.8" stop-color="#06E775"/>
<stop offset="1" stop-color="#00F076"/>
</linearGradient>
<clipPath id="clip0_154_473">
<rect width="151" height="48" fill="white" transform="translate(0 0.330078)"/>
</clipPath>
</defs>
</svg>
