<svg width="151" height="152" viewBox="0 0 151 152" fill="none" xmlns="http://www.w3.org/2000/svg">
<g clip-path="url(#clip0_154_474)">
<path d="M114.301 114.694C115.584 114.694 116.871 114.694 118.37 114.694C118.37 113.293 118.37 112.04 118.37 110.649C119.785 110.649 120.984 110.649 122.404 110.649C122.404 109.259 122.404 108.01 122.404 106.536C125.23 106.536 127.844 106.536 130.601 106.536C130.601 105.121 130.601 103.922 130.601 102.561C131.992 102.561 133.24 102.561 134.709 102.561C134.709 103.765 134.709 105.023 134.709 106.414C136.119 106.414 137.324 106.414 138.744 106.414C138.744 107.8 138.744 109.053 138.744 110.61C140.286 110.61 141.618 110.61 142.955 110.61L142.896 110.551C142.896 114.655 142.896 118.758 142.896 122.861L142.955 122.807C141.628 122.807 140.301 122.807 138.773 122.807C138.773 119.977 138.773 117.372 138.773 114.699C137.289 114.699 136.011 114.699 134.729 114.699C134.729 113.372 134.729 112.045 134.729 110.713C133.265 110.713 132.026 110.713 130.812 110.713C130.812 112.094 130.812 113.333 130.812 114.64C132.231 114.64 133.509 114.64 134.787 114.64C134.787 121.466 134.782 128.296 134.782 135.122C132.099 135.122 129.416 135.122 126.522 135.122C126.522 136.571 126.522 137.815 126.522 139.254C123.712 139.254 121.107 139.254 118.38 139.254C118.38 140.738 118.38 142.016 118.38 143.294L118.433 143.235C115.794 143.235 113.155 143.235 110.3 143.235C110.3 141.913 110.3 140.664 110.3 139.298C108.836 139.298 107.593 139.298 106.202 139.298C106.202 140.566 106.202 141.766 106.202 143.117C104.817 143.117 103.573 143.117 102.03 143.117C102.03 140.454 102.03 137.761 102.03 135.073C103.357 135.073 104.684 135.073 106.016 135.073C106.016 133.609 106.016 132.37 106.016 131.156C104.635 131.156 103.397 131.156 102.089 131.156C102.089 132.575 102.089 133.853 102.089 135.131C100.738 135.131 99.3815 135.136 98.0252 135.136L98.0889 135.195C98.0301 133.907 97.9665 132.62 97.8979 131.116C96.664 131.116 95.4105 131.116 93.922 131.116C93.922 128.208 93.922 125.51 93.922 122.812L93.8633 122.866C95.2 122.866 96.5318 122.866 98.0742 122.866C98.0742 124.359 98.0742 125.608 98.0742 126.812C99.499 126.812 100.699 126.812 102.114 126.812C102.114 125.456 102.114 124.208 102.114 122.998C104.949 122.998 107.554 122.998 110.31 122.998C110.31 125.721 110.31 128.286 110.31 130.876C111.711 130.876 112.954 130.876 114.355 130.876C114.355 125.373 114.355 120.006 114.355 114.64L114.301 114.694ZM118.556 118.841C118.556 122.964 118.556 126.93 118.556 130.847C122.664 130.847 126.635 130.847 130.567 130.847C130.567 126.768 130.567 122.851 130.567 118.841C126.547 118.841 122.63 118.841 118.556 118.841Z" fill="black"/>
<path d="M118.385 49.25C118.385 51.8892 118.385 54.5283 118.385 57.3829C117.063 57.3829 115.814 57.3829 114.453 57.3829C114.453 60.2032 114.453 62.8081 114.453 65.5599C115.711 65.5599 116.911 65.5599 118.262 65.5599C118.262 66.9456 118.262 68.1893 118.262 69.6533C117.063 69.6533 115.809 69.6533 114.448 69.6533C114.448 71.1124 114.448 72.3561 114.448 73.7467C115.721 73.7467 116.921 73.7467 118.272 73.7467C118.272 75.1324 118.272 76.376 118.272 77.9184C115.603 77.9184 112.915 77.9184 110.227 77.9184C110.227 76.5915 110.227 75.2646 110.227 73.9327C108.763 73.9327 107.524 73.9327 106.31 73.9327C106.31 75.3135 106.31 76.5523 106.31 77.8596C107.73 77.8596 109.008 77.8596 110.286 77.8596C110.286 79.1376 110.286 80.4205 110.286 81.8355C114.321 81.8355 118.282 81.8355 122.463 81.8355C122.463 80.5967 122.463 79.3531 122.463 77.9184C128.08 77.9184 133.48 77.9184 138.881 77.9184L138.822 77.8596C138.822 79.1376 138.822 80.4156 138.822 81.9041C137.5 81.9041 136.256 81.9041 134.739 81.9041C134.739 84.7978 134.739 87.4811 134.739 90.1692L134.797 90.1153C133.417 90.1153 132.036 90.1153 130.655 90.1153L130.714 90.1692C130.714 88.8863 130.714 87.6035 130.714 86.1884C125.235 86.1884 119.903 86.1884 114.355 86.1884C114.355 90.179 114.355 94.15 114.355 98.214C111.579 98.214 109.023 98.214 106.242 98.214C106.242 96.9703 106.242 95.7217 106.242 94.2577C104.778 94.2577 103.529 94.2577 102.178 94.2577C102.178 92.8426 102.178 91.643 102.178 90.2279C103.402 90.2279 104.655 90.2279 106.031 90.2279C106.031 87.4027 106.031 84.7929 106.031 82.0754C104.787 82.0754 103.588 82.0754 102.168 82.0754C102.168 83.2849 102.168 84.5334 102.168 86.017C100.625 86.017 99.2936 86.017 97.9618 86.017L98.0205 86.0758C98.0205 84.7929 98.0205 83.5101 98.0205 82.0118C95.2541 82.0118 92.6443 82.0118 89.9219 82.0118C89.9219 80.6016 89.9219 79.3971 89.9219 77.9821C91.1264 77.9821 92.3799 77.9821 93.932 77.9821C93.932 76.4397 93.932 75.1079 93.932 73.7761L93.8733 73.8348C96.5173 73.8348 99.1614 73.8348 101.933 73.8348C101.933 72.4295 101.933 71.181 101.933 69.7855C100.704 69.7855 99.4992 69.7855 98.138 69.7855C98.138 68.3949 98.138 67.1463 98.138 65.5942C100.787 65.5942 103.48 65.5942 106.173 65.5942C106.173 66.9211 106.173 68.248 106.173 69.5798C107.637 69.5798 108.876 69.5798 110.09 69.5798C110.09 68.1991 110.09 66.9603 110.09 65.6529C108.67 65.6529 107.392 65.6529 106.114 65.6529C106.114 61.6575 106.114 57.662 106.114 53.456C107.485 53.456 108.734 53.456 110.266 53.456C110.266 51.9185 110.266 50.5867 110.266 49.2549L110.208 49.3088C112.95 49.3088 115.697 49.3088 118.438 49.3088L118.385 49.25Z" fill="black"/>
<path d="M40.7539 12.5366C42.1298 12.5122 43.5057 12.4926 44.8865 12.4681C44.8865 13.795 44.8865 15.1219 44.8865 16.4538C46.3505 16.4538 47.5893 16.4538 48.8036 16.4538C48.8036 15.073 48.8036 13.8342 48.8036 12.5268C47.3836 12.5268 46.1057 12.5268 44.8277 12.5268C44.8277 11.244 44.8277 9.96113 44.8277 8.46283C46.233 8.46283 47.4816 8.46283 48.877 8.46283C48.877 5.69147 48.877 3.12576 48.877 0.403361C57.0736 0.403361 65.1233 0.403361 73.3933 0.403361C73.3933 1.58829 73.3933 2.84177 73.3933 4.20786C74.8573 4.20786 76.1059 4.20786 77.5014 4.20786C77.5014 2.93969 77.5014 1.73518 77.5014 0.388672C82.9755 0.388672 88.3077 0.388672 93.7672 0.388672C93.7672 1.62256 93.7672 2.86625 93.7672 4.26172C92.5235 4.26172 91.3239 4.26172 89.9676 4.26172C89.9676 8.3698 89.9676 12.3408 89.9676 16.6251C91.2602 16.6251 92.5921 16.6251 93.9239 16.6251L93.8651 16.5664C93.8651 17.9472 93.8651 19.323 93.8651 20.7038L93.9239 20.65C91.2309 20.65 88.5378 20.65 85.6294 20.65C85.6294 15.073 85.6294 9.73589 85.6294 4.44289C84.2094 4.44289 83.0098 4.44289 81.5948 4.44289C81.5948 7.16039 81.5948 9.77507 81.5948 12.5415C80.0916 12.5415 78.8087 12.5415 77.5258 12.5415C77.5258 11.2146 77.5258 9.88279 77.5258 8.55586C74.6957 8.55586 72.0908 8.55586 69.53 8.55586C69.53 9.93665 69.53 11.1754 69.53 12.4828C72.3161 12.4828 74.9503 12.4828 77.5846 12.4828C77.5846 13.8146 77.5846 15.1415 77.5846 16.679C79.0584 16.679 80.307 16.679 81.536 16.679C81.536 18.094 81.536 19.2888 81.536 20.5667C78.8332 20.5667 76.2332 20.5667 73.4129 20.5667C73.4129 19.2104 73.4129 17.9618 73.4129 16.7426C71.9488 16.7426 70.7101 16.7426 69.4027 16.7426C69.4027 20.8899 69.4027 24.8853 69.4027 28.8808C68.0219 28.8808 66.6412 28.8857 65.2555 28.8857C65.2555 24.8364 65.2555 20.7871 65.2555 16.7377C62.4303 16.7377 59.8254 16.7377 57.1421 16.7377C57.1421 19.5189 57.1421 22.1581 57.1421 24.7972C55.7614 24.7776 54.3757 24.758 52.9949 24.7434L53.0537 24.7972C53.0537 23.5144 53.0537 22.2364 53.0537 20.7479C48.9505 20.7479 44.9844 20.7479 40.798 20.7479C40.798 17.859 40.798 15.1709 40.798 12.4877L40.7539 12.5366ZM61.0593 12.4142C61.0593 9.63307 61.0593 7.02819 61.0593 4.49675C58.3026 4.49675 55.6977 4.49675 53.1467 4.49675C53.1467 7.21915 53.1467 9.77507 53.1467 12.4142C55.8152 12.4142 58.3711 12.4142 61.0593 12.4142Z" fill="black"/>
<path d="M8.11344 94.257C8.11344 91.613 8.11344 88.9689 8.11344 86.0898C9.5285 86.0898 10.8652 86.0898 12.197 86.0898L12.1432 86.0311C12.1432 87.358 12.1432 88.6898 12.1432 90.0069C13.6709 90.0069 14.9145 90.0069 16.2855 90.0069C16.2855 88.587 16.2855 87.309 16.2855 86.0311L16.2268 86.0898C17.5586 86.0898 18.8953 86.0898 20.4328 86.0898C20.4328 84.5523 20.4328 83.3038 20.4328 81.9181C23.209 81.9181 25.7699 81.9181 28.3894 81.9181C28.3894 80.5226 28.3894 79.2789 28.3894 77.8198C25.6621 77.8198 23.0524 77.8198 20.3691 77.8198C20.3691 73.5991 20.3691 69.5988 20.3691 65.5984L20.3153 65.6572C24.3205 65.6572 28.3258 65.6572 32.5514 65.6572C32.5514 64.2568 32.5514 63.0033 32.5514 61.6127C33.9664 61.6127 35.1709 61.6127 36.5909 61.6127C36.5909 60.2222 36.5909 58.9736 36.5909 57.5879C39.4161 57.5879 42.0259 57.5879 44.7532 57.5879C44.7532 58.8218 44.7532 60.0214 44.7532 61.4414C43.5487 61.4414 42.3001 61.4414 40.7479 61.4414C40.7479 64.3498 40.7479 67.0428 40.7479 69.7407L40.8067 69.6869C35.4011 69.6869 29.9954 69.6869 24.5702 69.6869C24.5702 71.195 24.5702 72.4387 24.5702 73.888C27.3122 73.888 29.922 73.888 32.6591 73.888C32.6591 75.2982 32.6591 76.5027 32.6591 77.9079C34.0448 77.9079 35.2933 77.9079 36.7476 77.9079C36.7476 79.3671 36.7476 80.6156 36.7476 82.0013C38.241 82.0013 39.5238 82.0013 40.8018 82.0013L40.743 81.9475C40.743 83.2303 40.743 84.5083 40.743 85.9968C38.0647 85.9968 35.4549 85.9968 32.5709 85.9968C32.5709 88.8906 32.5709 91.5738 32.5709 94.2619L32.6297 94.208C28.5853 94.208 24.536 94.208 20.281 94.208C20.281 95.7161 20.281 96.9696 20.281 98.4238C18.817 98.4238 17.5733 98.4238 16.1925 98.4238C16.1925 99.8389 16.1925 101.039 16.1925 102.287C14.8068 102.287 13.5631 102.287 12.1089 102.287C12.1089 99.5598 12.1089 96.95 12.1089 94.208C10.6204 94.208 9.33754 94.208 8.05469 94.208L8.11344 94.257ZM24.5213 90.0314C25.9608 90.0314 27.1555 90.0314 28.3845 90.0314C28.3845 88.6751 28.3845 87.4265 28.3845 86.2024C27.0037 86.2024 25.7601 86.2024 24.5213 86.2024C24.5213 87.5489 24.5213 88.7437 24.5213 90.0314Z" fill="black"/>
<path d="M138.878 45.1637C136.243 45.1637 133.604 45.1637 130.754 45.1637C130.754 46.5396 130.754 47.7833 130.754 49.2424C129.3 49.2424 128.052 49.2424 126.666 49.2424C126.666 50.6428 126.666 51.8424 126.666 53.2085C125.285 53.2085 124.041 53.2085 122.582 53.2085C122.582 52.0334 122.582 50.7848 122.582 49.2571C121.05 49.2571 119.718 49.2571 118.386 49.2571L118.445 49.311C118.445 47.9791 118.445 46.6424 118.445 45.1686C115.502 45.1686 112.858 45.1686 110.214 45.1686L110.273 45.2274C110.273 43.8907 110.273 42.5588 110.273 41.085C108.696 41.085 107.413 41.085 106.13 41.085L106.189 41.1438C106.189 39.812 106.189 38.4801 106.189 36.9965C109.073 36.9965 111.712 36.9965 114.356 36.9965C114.356 38.3234 114.356 39.6504 114.356 40.9822C115.82 40.9822 117.059 40.9822 118.274 40.9822C118.274 39.6014 118.274 38.3626 118.274 37.0553C116.854 37.0553 115.576 37.0553 114.298 37.0553C114.298 35.7235 114.298 34.3916 114.298 32.9178C110.057 32.9178 106.052 32.9178 102.047 32.9178L102.106 32.9766C102.106 31.5958 102.106 30.215 102.106 28.8342L102.052 28.893C103.335 28.893 104.617 28.893 106.116 28.893C106.116 27.4975 106.116 26.2489 106.116 24.8877C107.526 24.8877 108.726 24.8877 110.146 24.8877C110.146 26.0825 110.146 27.331 110.146 28.7216C111.605 28.7216 112.853 28.7216 114.322 28.7216C114.322 27.4632 114.322 26.2147 114.322 24.873C115.737 24.873 116.937 24.873 118.352 24.873C118.352 27.473 118.352 30.0877 118.352 32.9129C119.811 32.9129 121.06 32.9129 122.45 32.9129C122.45 35.6843 122.45 38.2451 122.45 40.9626C123.836 40.9626 125.084 40.9626 126.548 40.9626C126.548 39.7532 126.548 38.4997 126.548 37.1091C127.959 37.1091 129.158 37.1091 130.578 37.1091C130.578 35.7235 130.578 34.4749 130.578 33.0843C132.037 33.0843 133.286 33.0843 134.755 33.0843C134.755 34.3476 134.755 35.5962 134.755 36.9378C136.17 36.9378 137.365 36.9378 138.785 36.9378C138.785 35.6941 138.785 34.4406 138.785 33.0696C142.966 33.0696 146.937 33.0696 151.011 33.0696C151.011 34.3231 151.011 35.5227 151.011 36.9427C149.797 36.9427 148.543 36.9427 147.001 36.9427C147.001 38.4801 147.001 39.8169 147.001 41.1487L147.059 41.0948C144.362 41.0948 141.669 41.0948 138.829 41.0948C138.829 42.6715 138.829 43.9543 138.829 45.2372L138.878 45.1637Z" fill="black"/>
<path d="M0 28.6997C0 19.1958 0 9.82903 0 0.349609C9.45494 0.349609 18.8218 0.349609 28.3501 0.349609C28.3501 9.72131 28.3501 19.1371 28.3501 28.6997C18.998 28.6997 9.58225 28.6997 0 28.6997ZM24.34 4.47238C17.485 4.47238 10.7917 4.47238 4.16194 4.47238C4.16194 11.3077 4.16194 18.0011 4.16194 24.6504C10.9679 24.6504 17.6123 24.6504 24.34 24.6504C24.34 17.8983 24.34 11.2588 24.34 4.47238Z" fill="black"/>
<path d="M122.648 0.330078C132.152 0.330078 141.519 0.330078 150.994 0.330078C150.994 9.78502 150.994 19.1518 150.994 28.6802C141.622 28.6802 132.206 28.6802 122.648 28.6802C122.648 19.3281 122.648 9.91233 122.648 0.330078ZM146.944 4.48712C140.04 4.48712 133.352 4.48712 126.693 4.48712C126.693 11.2882 126.693 17.9326 126.693 24.6358C133.489 24.6358 140.178 24.6358 146.944 24.6358C146.944 17.869 146.944 11.2295 146.944 4.48712Z" fill="black"/>
<path d="M0.0585938 122.926C9.5674 122.926 18.9342 122.926 28.4087 122.926C28.4087 132.381 28.4087 141.748 28.4087 151.276C19.0321 151.276 9.62126 151.276 0.0585938 151.276C0.0585938 141.919 0.0585938 132.503 0.0585938 122.926ZM4.14219 127.014C4.14219 133.864 4.14219 140.558 4.14219 147.192C10.9776 147.192 17.666 147.192 24.3202 147.192C24.3202 140.386 24.3202 133.747 24.3202 127.014C17.573 127.014 10.9286 127.014 4.14219 127.014Z" fill="black"/>
<path d="M77.526 98.3458C82.8827 98.3458 88.2393 98.3458 93.8114 98.3458C93.8114 99.6483 93.8114 100.892 93.8114 102.434C95.3489 102.434 96.6807 102.434 98.0125 102.434L97.9587 102.376C97.9587 103.712 97.9587 105.044 97.9587 106.586C96.4653 106.586 95.2167 106.586 94.0122 106.586C94.0122 108.006 94.0122 109.211 94.0122 110.626C95.3685 110.626 96.622 110.626 98.0174 110.626C98.0174 112.124 98.0174 113.412 98.0174 114.695C96.6856 114.695 95.3538 114.695 93.8751 114.695C93.8751 117.579 93.8751 120.223 93.8751 122.867L93.9338 122.813C89.9286 122.813 85.9233 122.813 81.7026 122.813C81.7026 124.204 81.7026 125.452 81.7026 126.813C77.5652 126.813 73.6432 126.813 69.5547 126.813C69.5547 124.262 69.5547 121.653 69.5547 118.896C70.7445 118.896 71.9882 118.896 73.4571 118.896C73.4571 120.154 73.4571 121.403 73.4571 122.745C74.8722 122.745 76.0718 122.745 77.4917 122.745C77.4917 118.774 77.4917 114.798 77.4917 110.704C78.9558 110.704 80.1995 110.704 81.5949 110.704C81.5949 111.968 81.5949 113.172 81.5949 114.587C82.9806 114.587 84.2341 114.587 85.703 114.587C85.703 116.051 85.703 117.305 85.703 118.651C87.1181 118.651 88.3177 118.651 89.6691 118.651C89.6691 113.339 89.6691 108.006 89.6691 102.542C87.0838 102.542 84.474 102.542 81.7173 102.542C81.7173 103.781 81.7173 104.98 81.7173 106.342C78.9656 106.342 76.3558 106.342 73.5012 106.342C73.5012 105.049 73.5012 103.717 73.5012 102.385L73.4424 102.439C74.7791 102.439 76.111 102.439 77.5848 102.439C77.5848 100.863 77.5848 99.5797 77.5848 98.2969L77.526 98.3458Z" fill="black"/>
<path d="M102.042 45.167C102.042 49.1723 102.042 53.1775 102.042 57.3199C99.3388 57.3199 96.729 57.3199 94.0115 57.3199C94.0115 56.086 94.0115 54.8864 94.0115 53.4664C95.216 53.4664 96.4695 53.4664 97.8552 53.4664C97.8552 52.0024 97.8552 50.7538 97.8552 49.3535C95.2601 49.3535 92.6993 49.3535 89.9181 49.3535C89.9181 47.9629 89.9181 46.7143 89.9181 45.3335C88.4541 45.3335 87.2055 45.3335 85.8101 45.3335C85.8101 46.5625 85.8101 47.767 85.8101 49.1282C83.0583 49.1282 80.4485 49.1282 77.5939 49.1282C77.5939 46.4744 77.5939 43.7814 77.5939 41.0834L77.5352 41.1373C81.5747 41.1373 85.6142 41.1373 89.6978 41.1373C89.6978 39.6439 89.6978 38.4002 89.6978 36.9509C88.3317 36.9509 87.0782 36.9509 85.7072 36.9509C85.7072 35.4624 85.7072 34.1844 85.7072 32.9065C87.0342 32.9065 88.3611 32.9065 89.8888 32.9065C89.8888 30.0763 89.8888 27.4715 89.8888 24.7931C91.3773 24.7931 92.6552 24.7931 93.9332 24.7931L93.8744 24.7344C93.8744 26.0711 93.8744 27.4029 93.8744 28.8767C95.4511 28.8767 96.7339 28.8767 98.0168 28.8767L97.958 28.818C97.958 30.1547 97.958 31.4865 97.958 32.9603C99.5347 32.9603 100.818 32.9603 102.1 32.9603L102.042 32.9016C102.042 34.2285 102.042 35.5554 102.042 37.088C100.582 37.088 99.3339 37.088 98.1245 37.088C98.1245 39.8985 98.1245 42.4985 98.1245 45.2209C99.5445 45.2209 100.822 45.2209 102.1 45.2209L102.042 45.167Z" fill="black"/>
<path d="M48.8502 122.95C50.1331 122.95 51.4208 122.95 52.924 122.95C52.924 124.145 52.924 125.394 52.924 126.858C54.3831 126.858 55.6366 126.858 57.0027 126.858C57.0027 128.322 57.0027 129.565 57.0027 130.961C55.7296 130.961 54.53 130.961 53.1835 130.961C53.1835 132.347 53.1835 133.595 53.1835 135.064C54.4174 135.064 55.6709 135.064 57.0615 135.064C57.0615 136.474 57.0615 137.674 57.0615 139.094C58.4471 139.094 59.6957 139.094 61.1793 139.094C61.1793 140.631 61.1793 141.968 61.1793 143.3L61.2381 143.246C57.1888 143.246 53.1394 143.246 49.095 143.246C49.095 144.769 49.095 146.012 49.095 147.388C53.2374 147.388 57.2377 147.388 61.2381 147.388L61.1793 147.334C61.1793 148.612 61.1793 149.895 61.1793 151.31C54.4272 151.31 47.7534 151.31 40.8642 151.31C40.8642 150.111 40.8642 148.862 40.8642 147.325C39.3316 147.325 37.9998 147.325 36.668 147.325L36.7267 147.383C36.7267 146.101 36.7267 144.823 36.7267 143.329C38.0537 143.329 39.3022 143.329 40.7614 143.329C40.7614 139.153 40.7614 135.186 40.7614 131.078C43.5229 131.078 46.0837 131.078 48.909 131.078C48.909 128.258 48.909 125.58 48.909 122.892C48.909 122.882 48.8502 122.95 48.8502 122.95ZM44.9527 139.069C46.3873 139.069 47.5869 139.069 48.8208 139.069C48.8208 137.713 48.8208 136.469 48.8208 135.24C47.4449 135.24 46.2013 135.24 44.9527 135.24C44.9527 136.582 44.9527 137.782 44.9527 139.069Z" fill="black"/>
<path d="M44.8918 41.1324C44.8918 38.4981 44.8918 35.8688 44.8918 33.024C46.1942 33.024 47.4379 33.024 48.8872 33.024C48.8872 30.2134 48.8872 27.6135 48.8872 24.7882C50.41 24.7882 51.7369 24.7882 53.0639 24.7882L53.0051 24.7344C53.0051 26.0711 53.0051 27.4029 53.0051 28.818C54.5817 28.818 55.8646 28.818 57.1475 28.818C57.1475 30.1988 57.1524 31.5795 57.1524 32.9603C55.8254 32.9603 54.4985 32.9603 53.1667 32.9603C53.1667 34.4243 53.1667 35.6631 53.1667 36.8774C54.5475 36.8774 55.7863 36.8774 57.0936 36.8774C57.0936 35.4575 57.0936 34.1795 57.0936 32.9016C58.4744 32.9065 59.8552 32.9065 61.2359 32.9114C61.2359 35.5995 61.2359 38.2827 61.2359 40.9757C62.6951 40.9757 63.9388 40.9757 65.3881 40.9757C65.3881 39.5949 65.3881 38.3513 65.3881 36.995C69.5941 36.995 73.5847 36.995 77.5752 36.995C77.5556 38.3757 77.5361 39.7614 77.5214 41.1422L77.5801 41.0883C74.9361 41.0883 72.292 41.0883 69.5109 41.0883C69.5109 42.4838 69.5109 43.7324 69.5109 45.1279C70.7399 45.1279 71.9444 45.1279 73.3007 45.1279C73.3007 46.5184 73.3007 47.767 73.3007 49.2555C70.6517 49.2555 67.9538 49.2555 65.2608 49.2555L65.3146 49.3143C65.3146 47.9825 65.3146 46.6458 65.3146 45.2307C62.3719 45.2307 59.7279 45.2307 57.0838 45.2307C57.0838 43.9038 57.0838 42.572 57.0838 41.2548C55.6149 41.2548 54.3712 41.2548 53.0541 41.2548C53.0541 42.6748 53.0541 43.9527 53.0541 45.2307C51.6733 45.2111 50.2925 45.1915 48.9117 45.1719L48.9705 45.2307C48.9705 43.894 48.9705 42.5622 48.9705 41.0883C47.3938 41.0883 46.111 41.0883 44.8281 41.0883L44.8918 41.1324Z" fill="black"/>
<path d="M32.5685 94.2596C35.2126 94.2596 37.8518 94.2596 40.7162 94.2596C40.7162 92.8691 40.7162 91.6205 40.7162 90.2299C42.1263 90.2299 43.3308 90.2299 44.7508 90.2299C44.7508 88.8442 44.7508 87.5957 44.7508 86.2051C46.2099 86.2051 47.4585 86.2051 48.8295 86.2051C48.8295 88.8198 48.8295 91.4295 48.8295 94.1862C47.5564 94.1862 46.3568 94.1862 44.9417 94.1862C44.9417 98.2943 44.9417 102.27 44.9417 106.457C43.4875 106.457 42.234 106.457 40.8484 106.457C40.8484 107.872 40.8484 109.071 40.8484 110.491C38.1015 110.491 35.4868 110.491 32.5734 110.491C32.5734 112.029 32.5734 113.36 32.5734 114.692L32.6322 114.634C31.2514 114.634 29.8755 114.634 28.4947 114.634L28.5486 114.692C28.5486 113.356 28.5486 112.024 28.5486 110.55C26.972 110.55 25.6891 110.55 24.4062 110.55L24.465 110.609C24.465 109.277 24.465 107.95 24.465 106.422C28.6661 106.422 32.6322 106.422 36.5297 106.422C36.5297 104.968 36.5297 103.724 36.5297 102.344C32.451 102.344 28.5388 102.344 24.558 102.344C24.558 100.958 24.558 99.7142 24.558 98.26C27.2853 98.26 29.8951 98.26 32.6371 98.26C32.6371 96.7666 32.6371 95.4837 32.6371 94.2058L32.5685 94.2596Z" fill="black"/>
<path d="M61.2384 81.9962C61.2384 80.7134 61.2384 79.4305 61.2384 77.9371C62.5703 77.9371 63.8188 77.9371 65.2143 77.9371C65.2143 76.527 65.2143 75.3274 65.2143 73.9123C66.6 73.9123 67.8486 73.9123 69.3126 73.9123C69.3126 71.092 69.3126 68.4822 69.3126 65.75C72.1329 65.75 74.7378 65.75 77.4504 65.75C77.4504 67.0084 77.4504 68.2031 77.4504 69.6231C76.2312 69.6231 74.9777 69.6231 73.499 69.6231C73.499 72.5266 73.499 75.2147 73.499 77.9078C72.1721 77.9078 70.8403 77.9078 69.5183 77.9078C69.5183 79.3816 69.5183 80.6204 69.5183 81.9375C70.9333 81.9375 72.2113 81.9375 73.4892 81.9375C73.4892 83.2644 73.4892 84.5913 73.4892 85.9232C74.9533 85.9232 76.192 85.9232 77.4063 85.9232C77.4063 84.5424 77.4063 83.3036 77.4063 81.9962C75.9864 81.9962 74.7084 81.9962 73.4305 81.9962C73.4354 80.6155 73.4403 79.2298 73.4403 77.849C74.7231 77.849 76.006 77.849 77.4994 77.849C77.4994 76.5221 77.4994 75.2686 77.4994 73.9123C78.9095 73.9123 80.1092 73.9123 81.5291 73.9123C81.5291 75.107 81.5291 76.3556 81.5291 77.8245C82.9882 77.8245 84.2368 77.8245 85.6029 77.8245C85.6029 80.6497 85.6029 83.2546 85.6029 86.0064C84.3299 86.0064 83.1351 86.0064 81.7201 86.0064C81.7201 87.3921 81.7201 88.6455 81.7201 90.1145C77.4553 90.1145 73.406 90.1145 69.3518 90.1145L69.4056 90.1732C69.4056 88.8365 69.4056 87.5047 69.4056 86.0309C67.829 86.0309 66.5461 86.0309 65.2633 86.0309L65.322 86.0896C65.322 84.7529 65.322 83.4211 65.322 81.9473C63.7454 81.9473 62.4625 81.9473 61.1797 81.9473L61.2384 81.9962Z" fill="black"/>
<path d="M65.2618 49.2441C65.2618 50.527 65.2618 51.8099 65.2618 53.3081C66.6474 53.3081 67.9009 53.3081 69.2621 53.3081C69.2621 56.1285 69.2621 58.7334 69.2621 61.49C66.623 61.49 64.0621 61.49 61.2908 61.49C61.2908 65.5981 61.2908 69.5642 61.2908 73.7653C59.7533 73.7653 58.4264 73.7653 57.0946 73.7653L57.1533 73.8241C57.1533 72.5412 57.1533 71.2583 57.1533 69.7551C54.3869 69.7551 51.7722 69.7551 49.0547 69.7551C49.0547 68.3401 49.0547 67.1405 49.0547 65.7254C50.2641 65.7254 51.5127 65.7254 53.0648 65.7254C53.0648 62.8169 53.0648 60.1239 53.0648 57.426L53.0061 57.4799C54.3379 57.4799 55.6746 57.4799 57.0897 57.4799C57.0897 54.5371 57.0897 51.8931 57.0897 49.249C59.8317 49.2686 62.5785 49.2882 65.3205 49.3029L65.2618 49.2441Z" fill="black"/>
<path d="M32.5664 114.686C36.5668 114.686 40.5622 114.686 44.778 114.686C44.778 113.325 44.778 112.076 44.778 110.705C46.2371 110.705 47.4857 110.705 48.8763 110.705C48.8763 111.944 48.8763 113.143 48.8763 114.559C50.2571 114.559 51.5106 114.559 52.8962 114.559C52.8962 116.013 52.8962 117.261 52.8962 118.725C51.6428 118.725 50.3942 118.725 48.8567 118.725C48.8567 120.273 48.8567 121.609 48.8567 122.946C48.8567 122.951 48.9155 122.882 48.9106 122.882C47.6326 122.882 46.3547 122.882 44.9396 122.882C44.9396 121.467 44.9396 120.268 44.9396 118.907C43.5539 118.907 42.3053 118.907 40.8315 118.907C40.8315 121.467 40.8315 124.077 40.8315 126.839C39.4214 126.839 38.2217 126.839 36.8018 126.839C36.8018 130.947 36.8018 134.918 36.8018 139.036C35.3427 139.036 34.099 139.036 32.6252 139.036C32.6252 130.903 32.6252 122.765 32.6252 114.632C32.6252 114.627 32.5664 114.686 32.5664 114.686Z" fill="black"/>
<path d="M130.711 61.5595C130.711 58.9203 130.711 56.2763 130.711 53.5C133.404 53.5 136.009 53.5 138.766 53.5C138.766 54.7192 138.766 55.9188 138.766 57.329C142.874 57.329 146.84 57.329 150.958 57.329C150.958 60.1444 150.958 62.7493 150.958 65.5794C149.729 65.5794 148.48 65.5794 147.094 65.5794C147.094 66.9945 147.094 68.1941 147.094 69.7511C144.274 69.7511 141.586 69.7511 138.898 69.7511L138.962 69.8099C138.903 68.527 138.844 67.2442 138.771 65.7459C137.546 65.7459 136.303 65.7459 134.844 65.7459C134.844 64.2917 134.844 63.0431 134.844 61.5056C133.311 61.5056 131.979 61.5056 130.652 61.5056L130.711 61.5595Z" fill="black"/>
<path d="M3.97665 41.1427C5.35743 41.1427 6.73332 41.1427 8.1141 41.1427L8.06024 41.084C8.06024 43.7672 8.06024 46.4455 8.06024 49.3344C9.55854 49.3344 10.8022 49.3344 12.2516 49.3344C12.2516 50.7837 12.2516 52.0323 12.2516 53.4033C13.7352 53.4033 15.0131 53.4033 16.2911 53.4033L16.2323 53.3495C16.2568 56.067 16.2813 58.7845 16.3009 61.502L16.3596 61.4383C15.0768 61.4383 13.7939 61.4383 12.2907 61.4383C12.2907 60.2485 12.2907 58.9999 12.2907 57.6093C9.4753 57.6093 6.87042 57.6093 4.0452 57.6093C4.0452 58.8481 4.0452 60.0918 4.0452 61.4432C2.63503 61.4432 1.43542 61.4432 0.0742188 61.4432C0.0742188 58.8824 0.0742188 56.2775 0.0742188 53.4523C1.26404 53.4523 2.51262 53.4523 4.0403 53.4523C4.0403 49.1924 4.0403 45.1431 4.0403 41.0938L3.97665 41.1427Z" fill="black"/>
<path d="M4.02869 81.9918C4.02869 80.7089 4.02869 79.431 4.02869 77.9327C2.63322 77.9327 1.37974 77.9327 0.0234375 77.9327C0.0234375 76.5225 0.0234375 75.3278 0.0234375 73.9078C2.56956 73.9078 5.17934 73.9078 8.00457 73.9078C8.00457 71.0924 8.00457 68.4875 8.00457 65.6525C10.9032 65.6525 13.5963 65.6525 16.2844 65.6525L16.2305 65.5938C16.2305 68.2819 16.2305 70.97 16.2305 73.8687C14.7665 73.8687 13.5179 73.8687 12.142 73.8687C12.142 76.7184 12.142 79.3575 12.142 81.9967L12.1959 81.9379C9.4539 81.9379 6.71192 81.933 3.96993 81.933L4.02869 81.9918Z" fill="black"/>
<path d="M48.9722 53.3338C47.6943 53.3338 46.4163 53.3338 44.9327 53.3338C44.9327 52.0216 44.9327 50.7779 44.9327 49.3139C43.405 49.3139 42.0781 49.3139 40.7512 49.3139C40.7512 47.9869 40.7512 46.66 40.7512 45.3282C39.2872 45.3282 38.0484 45.3282 36.8341 45.3282C36.8341 46.709 36.8341 47.9478 36.8341 49.2551C38.254 49.2551 39.532 49.2551 40.81 49.2551C40.81 50.538 40.81 51.8208 40.81 53.3338C37.9652 53.3338 35.2672 53.3338 32.5742 53.3338L32.6281 53.3926C32.6281 49.2894 32.6281 45.1813 32.6281 41.0781L32.5742 41.1369C36.6823 41.1369 40.7855 41.132 44.8936 41.132L44.8348 41.0781C44.8348 42.4148 44.8348 43.7467 44.8348 45.2205C46.4114 45.2205 47.6943 45.2205 48.9771 45.2205L48.9184 45.1617C48.9184 47.9037 48.9184 50.6506 48.9184 53.3926L48.9722 53.3338Z" fill="black"/>
<path d="M12.2004 37.0472C12.2004 35.7643 12.2004 34.4766 12.2004 33.0664C21.7092 33.0664 31.1298 33.0664 40.6631 33.0664C40.6631 34.3003 40.6631 35.5048 40.6631 36.9297C38.1023 36.9297 35.4827 36.9297 32.5743 36.9297C32.5743 38.472 32.5743 39.8087 32.5743 41.1406L32.6281 41.0818C31.2474 41.1014 29.8617 41.121 28.4809 41.1357C28.4809 39.8038 28.4809 38.472 28.4809 36.9933C22.8745 36.9933 17.5081 36.9933 12.1367 36.9933L12.2004 37.0472Z" fill="black"/>
<path d="M122.531 94.2595C122.531 92.9767 122.531 91.6938 122.531 90.171C125.313 90.171 128.006 90.171 130.703 90.171L130.645 90.1172C130.645 91.4441 130.645 92.7759 130.645 94.0931C132.172 94.0931 133.416 94.0931 134.787 94.0931C134.787 92.6731 134.787 91.3951 134.787 90.1172L134.728 90.171C136.109 90.1759 137.49 90.1759 138.871 90.1808L138.812 90.1221C138.812 91.4 138.812 92.678 138.812 94.1665C140.198 94.1665 141.446 94.1665 142.812 94.1665C142.812 95.6158 142.812 96.8595 142.812 98.2844C137.358 98.2844 131.957 98.2844 126.561 98.2844L126.615 98.3431C126.615 97.0064 126.615 95.6746 126.615 94.2008C125.038 94.2008 123.756 94.2008 122.473 94.2008L122.531 94.2595Z" fill="black"/>
<path d="M146.992 131.039C148.275 131.039 149.563 131.039 150.973 131.039C150.973 137.826 150.973 144.519 150.973 151.33C149.739 151.33 148.54 151.33 147.12 151.33C147.12 150.125 147.12 148.877 147.12 147.325C144.211 147.325 141.513 147.325 138.82 147.325L138.874 147.383C138.874 146.052 138.874 144.725 138.874 143.187C141.714 143.187 144.319 143.187 147.046 143.187C147.046 138.976 147.046 134.976 147.046 130.98L146.992 131.039Z" fill="black"/>
<path d="M102.039 102.434C103.322 102.434 104.61 102.434 106.108 102.434C106.108 103.77 106.108 105.024 106.108 106.38C107.523 106.38 108.723 106.38 110.143 106.38C110.143 105.171 110.143 103.917 110.143 102.537C112.968 102.537 115.578 102.537 118.3 102.537C118.3 103.775 118.3 104.975 118.3 106.395C117.091 106.395 115.842 106.395 114.295 106.395C114.295 109.303 114.295 112.001 114.295 114.694L114.349 114.636C112.968 114.655 111.587 114.675 110.206 114.694C110.206 113.363 110.206 112.036 110.206 110.503C107.371 110.503 104.766 110.503 102.088 110.503C102.088 107.653 102.088 105.014 102.088 102.375L102.039 102.434Z" fill="black"/>
<path d="M93.9316 73.7713C91.2974 73.7713 88.6631 73.7713 85.8232 73.7713C85.8232 71.1126 85.8232 68.5126 85.8232 65.702C84.3837 65.702 83.1351 65.702 81.6759 65.702C81.6759 64.1695 81.6759 62.8425 81.6759 61.5156L81.6172 61.5744C85.6224 61.5744 89.6277 61.5744 93.8778 61.5744C93.8778 65.7216 93.8778 69.7758 93.8778 73.835C93.8729 73.8301 93.9316 73.7713 93.9316 73.7713Z" fill="black"/>
<path d="M106.184 16.5559C104.901 16.5559 103.619 16.5559 102.106 16.5559C102.106 13.7796 102.106 11.0866 102.106 8.38867L102.047 8.44743C106.15 8.44743 110.248 8.44743 114.352 8.44743L114.293 8.38867C114.293 9.67153 114.293 10.9495 114.293 12.4429C115.688 12.4429 116.937 12.4429 118.298 12.4429C118.298 15.2632 118.298 17.8681 118.298 20.5709C117.025 20.5709 115.825 20.5709 114.415 20.5709C114.415 19.3419 114.415 18.0933 114.415 16.551C112.878 16.551 111.546 16.551 110.214 16.551L110.268 16.6097C110.268 15.2828 110.268 13.951 110.268 12.6338C108.74 12.6338 107.497 12.6338 106.126 12.6338C106.126 14.0538 106.126 15.3318 106.126 16.6097L106.184 16.5559Z" fill="black"/>
<path d="M69.3536 90.1115C69.3487 92.8535 69.3487 95.5955 69.3438 98.3424L69.4025 98.2836C68.1246 98.2836 66.8466 98.2836 65.3581 98.2836C65.3581 96.9665 65.3581 95.7179 65.3581 94.2637C63.9088 94.2637 62.6602 94.2637 61.2794 94.2637C61.2794 92.8633 61.2794 91.6637 61.2794 90.2584C59.9035 90.2584 58.6549 90.2584 57.0783 90.2584C57.0783 87.3794 57.0783 84.701 57.0783 82.0178L57.0195 82.0815C58.4248 82.0521 59.8301 82.0227 61.2353 81.9933L61.1766 81.9395C61.1766 83.2762 61.1766 84.608 61.1766 86.0818C62.7532 86.0818 64.0361 86.0818 65.3189 86.0818L65.2602 86.023C65.2602 87.3598 65.2602 88.6916 65.2602 90.1654C66.8368 90.1654 68.1197 90.1654 69.4025 90.1654L69.3536 90.1115Z" fill="black"/>
<path d="M98.0049 147.318C96.629 147.318 95.2482 147.318 93.8723 147.318L93.931 147.377C93.931 146.099 93.931 144.821 93.931 143.333C91.1891 143.333 88.5842 143.333 85.7541 143.333C85.7541 141.81 85.7541 140.478 85.7541 139.151L85.6953 139.205C87.032 139.205 88.3638 139.205 89.8377 139.205C89.8377 137.628 89.8377 136.345 89.8377 135.062L89.7838 135.121C92.5552 135.141 95.3216 135.16 98.093 135.185C98.0979 135.185 98.0293 135.126 98.0293 135.131C98.0049 139.215 97.9755 143.293 97.9461 147.377L98.0049 147.318Z" fill="black"/>
<path d="M24.4574 57.4207C23.1794 57.4207 21.9015 57.4207 20.413 57.4207C20.413 56.1036 20.413 54.8599 20.413 53.3371C18.8853 53.3371 17.5535 53.3371 16.2266 53.3371L16.2853 53.391C16.2853 50.698 16.2853 48.005 16.2853 45.1602C19.1693 45.1602 21.8134 45.1602 24.4574 45.1602C24.4574 46.4871 24.4574 47.8189 24.4574 49.3466C25.9263 49.3466 27.17 49.3466 28.4871 49.3466C28.4871 50.8351 28.4871 52.113 28.4871 53.391L28.5459 53.3322C27.2092 53.3322 25.8774 53.3322 24.4035 53.3322C24.4035 54.9089 24.4035 56.1917 24.4035 57.4746L24.4574 57.4207Z" fill="black"/>
<path d="M8.11509 106.461C6.83224 106.461 5.54938 106.461 4.04619 106.461C4.04619 105.124 4.04619 103.871 4.04619 102.48C2.63602 102.48 1.43151 102.48 0.0703125 102.48C0.0703125 99.7282 0.0703125 97.1184 0.0703125 94.2589C2.72906 94.2589 5.42207 94.2589 8.11999 94.2589L8.06123 94.2051C8.06123 98.3083 8.06123 102.416 8.06123 106.52L8.11509 106.461Z" fill="black"/>
<path d="M146.992 41.131C148.275 41.131 149.558 41.131 150.973 41.131C150.973 45.1803 150.973 49.1513 150.973 53.2398C149.715 53.2398 148.466 53.2398 147.076 53.2398C147.076 51.9716 147.076 50.772 147.076 49.357C144.334 49.357 141.719 49.357 138.874 49.357C138.874 47.8195 138.874 46.4877 138.874 45.1559L138.82 45.2146C141.518 45.2146 144.211 45.2146 147.051 45.2146C147.051 43.638 147.051 42.3551 147.051 41.0723L146.992 41.131Z" fill="black"/>
<path d="M40.8114 12.4789C38.1674 12.4789 35.5282 12.4789 32.7422 12.4789C32.7422 8.4247 32.7422 4.45862 32.7422 0.365234C33.9957 0.365234 35.2393 0.365234 36.6299 0.365234C36.6299 2.98481 36.6299 5.54562 36.6299 8.32678C38.0156 8.32678 39.2642 8.32678 40.7478 8.32678C40.7478 9.86914 40.7478 11.201 40.7478 12.5377C40.7527 12.5377 40.8114 12.4789 40.8114 12.4789Z" fill="black"/>
<path d="M57.0984 73.7637C57.0739 76.535 57.0544 79.3064 57.0299 82.0827C57.0299 82.0876 57.0886 82.019 57.0837 82.019C54.4544 82.019 51.8299 82.019 49.0781 82.019C49.0781 79.2281 49.0781 76.633 49.0781 73.8175C51.7907 73.8175 54.474 73.8175 57.1572 73.8175C57.1572 73.8224 57.0984 73.7637 57.0984 73.7637Z" fill="black"/>
<path d="M142.96 110.611C142.96 109.328 142.96 108.045 142.96 106.625C145.653 106.625 148.263 106.625 150.99 106.625C150.99 110.616 150.99 114.582 150.99 118.646C149.722 118.646 148.523 118.646 147.108 118.646C147.108 116.06 147.108 113.446 147.108 110.552C145.57 110.552 144.238 110.552 142.907 110.552C142.902 110.552 142.96 110.611 142.96 110.611Z" fill="black"/>
<path d="M28.4871 114.633C28.4871 115.916 28.4871 117.194 28.4871 118.614C24.4476 118.614 20.4815 118.614 16.2853 118.614C16.2853 117.297 16.2853 115.965 16.2853 114.638L16.2266 114.692C17.5535 114.692 18.8853 114.692 20.413 114.692C20.413 113.169 20.413 111.921 20.413 110.604C21.9015 110.604 23.1794 110.604 24.4574 110.604L24.3987 110.545C24.3987 111.882 24.3987 113.213 24.3987 114.687C25.9753 114.687 27.2581 114.687 28.541 114.687L28.4871 114.633Z" fill="black"/>
<path d="M85.7542 139.153C84.4714 139.153 83.1885 139.153 81.7734 139.153C81.7734 136.465 81.7734 133.855 81.7734 131.03C83.0367 131.03 84.2902 131.03 85.671 131.03C85.671 129.614 85.671 128.415 85.671 127.068C87.0567 127.068 88.3003 127.068 89.779 127.068C89.779 129.742 89.779 132.43 89.779 135.123L89.8329 135.064C88.4962 135.064 87.1644 135.064 85.6906 135.064C85.6906 136.641 85.6906 137.924 85.6906 139.207L85.7542 139.153Z" fill="black"/>
<path d="M40.7422 69.7375C42.025 69.7375 43.3079 69.7375 44.723 69.7375C44.723 73.7819 44.723 77.7431 44.723 81.9442C43.4009 81.9442 42.074 81.9442 40.7422 81.9442L40.8009 81.998C40.8009 77.8948 40.8009 73.7868 40.8009 69.6836L40.7422 69.7375Z" fill="black"/>
<path d="M65.2594 114.635C65.2594 118.635 65.2594 122.631 65.2594 126.778C63.9422 126.778 62.6986 126.778 61.2345 126.778C61.2345 122.738 61.2345 118.689 61.2345 114.635L61.1758 114.689C62.5566 114.689 63.9373 114.689 65.3181 114.689L65.2594 114.635Z" fill="black"/>
<path d="M81.6737 61.5154C79.0346 61.5154 76.3905 61.5154 73.6094 61.5154C73.6094 58.8273 73.6094 56.2175 73.6094 53.4902C74.8629 53.4902 76.1065 53.4902 77.4971 53.4902C77.4971 54.7486 77.4971 55.9531 77.4971 57.3682C78.8828 57.3682 80.1314 57.3682 81.615 57.3682C81.615 58.9056 81.615 60.2424 81.615 61.5742C81.6199 61.5742 81.6737 61.5154 81.6737 61.5154Z" fill="black"/>
<path d="M142.902 122.862C145.532 122.862 148.166 122.862 150.952 122.862C150.952 124.16 150.952 125.399 150.952 126.853C149.757 126.853 148.509 126.853 146.996 126.853C146.996 128.381 146.996 129.708 146.996 131.039L147.05 130.981C145.718 130.981 144.386 130.981 142.961 130.981C142.961 128.097 142.961 125.453 142.961 122.809L142.902 122.862Z" fill="black"/>
<path d="M77.5726 147.319C74.8306 147.319 72.0935 147.319 69.3516 147.319L69.4103 147.378C69.4103 144.734 69.4103 142.095 69.4103 139.318C70.7519 139.318 71.9956 139.318 73.3911 139.318C73.3911 140.547 73.3911 141.752 73.3911 143.172C74.7768 143.172 76.0302 143.172 77.5139 143.172C77.5139 144.714 77.5139 146.046 77.5139 147.378L77.5726 147.319Z" fill="black"/>
<path d="M7.97054 110.48C7.97054 113.169 7.97054 115.852 7.97054 118.643C6.71217 118.643 5.51745 118.643 4.15625 118.643C4.15625 116.092 4.15625 113.492 4.15625 110.534C5.39504 110.534 6.71217 110.534 8.0342 110.534C8.03909 110.539 7.97054 110.48 7.97054 110.48Z" fill="black"/>
<path d="M147.137 73.8984C148.41 73.8984 149.609 73.8984 150.956 73.8984C150.956 76.4837 150.956 79.0886 150.956 81.8355C149.742 81.8355 148.498 81.8355 147.137 81.8355C147.137 79.2061 147.137 76.6012 147.137 73.8984Z" fill="black"/>
<path d="M53.0695 102.425C53.0695 99.7953 53.0695 97.1659 53.0695 94.3848C54.3621 94.3848 55.6009 94.3848 57.1629 94.3848C57.1629 97.0043 57.1629 99.6778 57.1629 102.356L57.2216 102.292C55.8213 102.317 54.416 102.346 53.0156 102.371L53.0695 102.425Z" fill="black"/>
<path d="M4.03546 41.0818C2.7575 41.0818 1.47464 41.0818 0.0546875 41.0818C0.0546875 38.4084 0.0546875 35.8084 0.0546875 33.0664C1.27879 33.0664 2.51758 33.0664 3.9767 33.0664C3.9767 35.7643 3.9767 38.4524 3.9767 41.1357C3.9767 41.1406 4.03546 41.0818 4.03546 41.0818Z" fill="black"/>
<path d="M97.9582 86.0215C97.9582 88.6557 97.9582 91.29 97.9582 94.0761C96.6508 94.0761 95.412 94.0761 94.0312 94.0761C94.0312 91.5104 94.0312 88.9104 94.0312 86.0802C95.3631 86.0802 96.69 86.0802 98.0169 86.0802L97.9582 86.0215Z" fill="black"/>
<path d="M61.3359 131.107C64.0779 131.107 66.6338 131.107 69.2828 131.107C69.2828 132.405 69.2828 133.6 69.2828 134.946C66.6828 134.946 64.0779 134.946 61.3359 134.946C61.3359 133.717 61.3359 132.474 61.3359 131.107Z" fill="black"/>
<path d="M134.787 147.324C133.406 147.324 132.025 147.324 130.645 147.324L130.698 147.383C130.698 144.685 130.698 141.992 130.698 139.152C132.216 139.152 133.504 139.152 134.787 139.152C134.767 141.894 134.748 144.636 134.728 147.383L134.787 147.324Z" fill="black"/>
<path d="M77.5156 147.379C80.1499 147.379 82.7841 147.379 85.5702 147.379C85.5702 148.686 85.5702 149.925 85.5702 151.306C83.0045 151.306 80.4045 151.306 77.5744 151.306C77.5744 149.974 77.5744 148.647 77.5744 147.32L77.5156 147.379Z" fill="black"/>
<path d="M130.645 147.326C130.645 148.609 130.645 149.887 130.645 151.307C127.966 151.307 125.366 151.307 122.531 151.307C122.531 149.99 122.531 148.658 122.531 147.331L122.473 147.385C125.215 147.385 127.962 147.385 130.703 147.385L130.645 147.326Z" fill="black"/>
<path d="M8.11344 41.1345C8.11344 39.8517 8.11344 38.5639 8.11344 37.046C9.5334 37.046 10.8701 37.046 12.2019 37.046L12.1432 36.9922C12.1432 38.324 12.1432 39.6607 12.1432 41.0807C10.6253 41.0807 9.33754 41.0807 8.05469 41.0807L8.11344 41.1345Z" fill="black"/>
<path d="M93.8633 20.6994C95.1461 20.6994 96.429 20.6994 97.9518 20.6994C97.9518 22.1193 97.9518 23.4511 97.9518 24.7878L98.0105 24.734C96.6297 24.734 95.249 24.734 93.8682 24.734L93.9269 24.7927C93.9269 23.412 93.9269 22.0312 93.9269 20.6504L93.8633 20.6994Z" fill="black"/>
<path d="M106.182 45.1608C104.802 45.1608 103.421 45.1657 102.035 45.1657L102.094 45.2195C102.094 43.8877 102.094 42.551 102.094 41.131C103.612 41.131 104.9 41.131 106.182 41.131L106.124 41.0723C106.124 42.453 106.124 43.8338 106.124 45.2146L106.182 45.1608Z" fill="black"/>
<path d="M138.871 77.9187C138.876 76.5379 138.881 75.1523 138.881 73.7715L138.822 73.8302C140.1 73.8302 141.378 73.8302 142.793 73.8302C142.793 75.1474 142.793 76.3911 142.793 77.86C141.471 77.86 140.139 77.86 138.812 77.86L138.871 77.9187Z" fill="black"/>
<path d="M3.96988 81.9336C3.96988 83.2116 3.96988 84.4895 3.96988 85.9095C2.66254 85.9095 1.41886 85.9095 0.0429688 85.9095C0.0429688 84.6952 0.0429688 83.4564 0.0429688 81.9923C1.37479 81.9923 2.70171 81.9923 4.02864 81.9923L3.96988 81.9336Z" fill="black"/>
<path d="M12.1984 86.0906C12.1984 84.7098 12.1984 83.3241 12.1984 81.9434L12.1445 82.0021C13.4764 82.0021 14.8131 82.0021 16.233 82.0021C16.233 83.52 16.233 84.8029 16.233 86.0906L16.2918 86.0319C14.911 86.0319 13.5302 86.0319 12.1494 86.0319L12.1984 86.0906Z" fill="black"/>
<path d="M138.88 73.7712C137.612 73.7712 136.339 73.7712 134.914 73.7712C134.914 72.4884 134.914 71.2545 134.914 69.8002C136.212 69.8002 137.583 69.8002 138.958 69.8002C138.963 69.8002 138.895 69.7415 138.895 69.7464C138.87 71.1076 138.846 72.4688 138.821 73.83L138.88 73.7712Z" fill="black"/>
<path d="M126.566 69.7453C127.839 69.7453 129.117 69.7453 130.532 69.7453C130.532 71.0477 130.532 72.2865 130.532 73.6673C129.318 73.6673 128.074 73.6673 126.625 73.6673C126.625 72.3404 126.625 71.0134 126.625 69.6914L126.566 69.7453Z" fill="black"/>
<path d="M138.871 90.181C138.871 88.903 138.871 87.625 138.871 86.2051C140.179 86.2051 141.422 86.2051 142.798 86.2051C142.798 87.4194 142.798 88.6582 142.798 90.1222C141.466 90.1222 140.139 90.1222 138.812 90.1222L138.871 90.181Z" fill="black"/>
<path d="M85.8828 90.2168C87.1804 90.2168 88.3751 90.2168 89.6922 90.2168C89.6922 91.5339 89.6922 92.7776 89.6922 94.1241C88.4338 94.1241 87.2391 94.1241 85.8828 94.1241C85.8828 92.9147 85.8828 91.671 85.8828 90.2168Z" fill="black"/>
<path d="M150.941 94.1886C149.624 94.1886 148.478 94.1886 147.176 94.1886C147.176 92.9106 147.176 91.662 147.176 90.2812C148.375 90.2812 149.624 90.2812 150.941 90.2812C150.941 91.5886 150.941 92.8812 150.941 94.1886Z" fill="black"/>
<path d="M32.5739 53.332C32.5739 54.6149 32.5739 55.8977 32.5739 57.4205C31.1539 57.4205 29.8221 57.4205 28.4854 57.4205L28.5392 57.4793C28.5392 56.0985 28.5392 54.7177 28.5392 53.3369L28.4805 53.3957C29.8613 53.3957 31.242 53.3957 32.6228 53.3957L32.5739 53.332Z" fill="black"/>
<path d="M126.627 69.6873C125.354 69.6873 124.081 69.6873 122.656 69.6873C122.656 68.3947 122.656 67.1559 122.656 65.5842C123.91 65.5842 125.227 65.5842 126.544 65.5842L126.48 65.5254C126.51 66.9307 126.539 68.3359 126.573 69.7412C126.568 69.7461 126.627 69.6873 126.627 69.6873Z" fill="black"/>
<path d="M73.4963 98.345C73.4963 97.0671 73.4963 95.7891 73.4963 94.3691C74.8085 94.3691 76.0522 94.3691 77.526 94.3691C77.526 95.6912 77.526 97.0181 77.526 98.345L77.5799 98.2863C76.1991 98.2863 74.8183 98.2863 73.4375 98.2863L73.4963 98.345Z" fill="black"/>
<path d="M122.527 98.2887C121.249 98.2887 119.971 98.2887 118.551 98.2887C118.551 96.9764 118.551 95.7328 118.551 94.2589C119.873 94.2589 121.2 94.2589 122.527 94.2589L122.468 94.2051C122.468 95.5859 122.468 96.9666 122.468 98.3474L122.527 98.2887Z" fill="black"/>
<path d="M69.3438 98.3413C70.7294 98.3413 72.1151 98.3413 73.4959 98.3462L73.4371 98.2923C73.4371 99.6731 73.4371 101.054 73.4371 102.435L73.4959 102.381C72.213 102.381 70.9253 102.381 69.4025 102.381C69.4025 100.961 69.4025 99.6241 69.4025 98.2874C69.4025 98.2825 69.3438 98.3413 69.3438 98.3413Z" fill="black"/>
<path d="M98.0119 102.435C98.0119 101.157 98.0119 99.8789 98.0119 98.459C99.329 98.459 100.573 98.459 102.042 98.459C102.042 99.7761 102.042 101.108 102.042 102.435L102.095 102.376C100.715 102.376 99.3339 102.376 97.9531 102.376L98.0119 102.435Z" fill="black"/>
<path d="M126.56 98.2871C126.56 99.5651 126.56 100.843 126.56 102.263C125.243 102.263 123.999 102.263 122.53 102.263C122.53 100.946 122.53 99.614 122.53 98.2871L122.477 98.3459C123.857 98.3459 125.238 98.3459 126.619 98.3459L126.56 98.2871Z" fill="black"/>
<path d="M53.0089 102.367C53.0089 103.645 53.0089 104.923 53.0089 106.343C51.7016 106.343 50.4628 106.343 49.082 106.343C49.082 105.129 49.082 103.89 49.082 102.426C50.4139 102.426 51.7408 102.426 53.0677 102.426L53.0089 102.367Z" fill="black"/>
<path d="M61.3028 106.377C59.971 106.377 58.6392 106.377 57.2143 106.377C57.2143 104.962 57.2143 103.63 57.2143 102.293C57.2143 102.288 57.1555 102.357 57.1604 102.357C58.4237 102.357 59.6821 102.357 61.2489 102.357C61.2489 103.826 61.2489 105.133 61.2489 106.445C61.244 106.445 61.3028 106.377 61.3028 106.377Z" fill="black"/>
<path d="M0.03125 65.6641C1.39245 65.6641 2.53821 65.6641 3.84065 65.6641C3.84065 66.942 3.84065 68.1857 3.84065 69.5714C2.64103 69.5714 1.39734 69.5714 0.03125 69.5714C0.03125 68.3179 0.03125 67.0742 0.03125 65.6641Z" fill="black"/>
<path d="M130.649 61.5C130.649 62.7731 130.649 64.0412 130.649 65.5297C129.224 65.5297 127.853 65.5297 126.477 65.5297C126.472 65.5297 126.54 65.5885 126.54 65.5836C126.565 64.2273 126.594 62.8661 126.624 61.5098L126.565 61.5685C127.946 61.5637 129.327 61.5588 130.707 61.5588L130.649 61.5Z" fill="black"/>
<path d="M16.2843 65.6585C16.3039 64.2483 16.3284 62.843 16.3529 61.428C16.3529 61.4231 16.2941 61.4916 16.299 61.4916C17.5721 61.4916 18.8402 61.4916 20.319 61.4916C20.319 63.0095 20.319 64.3364 20.319 65.6585L20.3728 65.5997C18.992 65.5997 17.6113 65.5997 16.2305 65.5997L16.2843 65.6585Z" fill="black"/>
<path d="M12.1946 110.544C10.7893 110.524 9.37916 110.504 7.969 110.48C7.9641 110.48 8.03265 110.539 8.03265 110.534C8.05714 109.173 8.08162 107.811 8.111 106.455L8.05713 106.514C9.38895 106.514 10.7257 106.514 12.1456 106.514C12.1456 108.032 12.1456 109.319 12.1456 110.602L12.1946 110.544Z" fill="black"/>
<path d="M61.2384 110.601C61.258 109.196 61.2776 107.785 61.3021 106.375C61.3021 106.37 61.2433 106.439 61.2482 106.439C62.5213 106.439 63.7895 106.439 65.2633 106.439C65.2633 107.952 65.2633 109.279 65.2633 110.606L65.322 110.552C63.9413 110.552 62.5605 110.552 61.1797 110.552L61.2384 110.601Z" fill="black"/>
<path d="M102.105 8.38785C100.827 8.38785 99.5489 8.38785 98.1289 8.38785C98.1289 7.08051 98.1289 5.83683 98.1289 4.46094C99.3432 4.46094 100.582 4.46094 102.046 4.46094C102.046 5.79276 102.046 7.11968 102.046 8.44661L102.105 8.38785Z" fill="black"/>
<path d="M126.624 61.5148C125.346 61.5148 124.068 61.5148 122.648 61.5148C122.648 60.2075 122.648 58.9687 122.648 57.5879C123.863 57.5879 125.102 57.5879 126.566 57.5879C126.566 58.9197 126.566 60.2466 126.566 61.5736L126.624 61.5148Z" fill="black"/>
<path d="M114.356 8.44853C114.356 7.17057 114.356 5.89261 114.356 4.47266C115.663 4.47266 116.907 4.47266 118.283 4.47266C118.283 5.68696 118.283 6.92575 118.283 8.38977C116.951 8.38977 115.624 8.38977 114.297 8.38977L114.356 8.44853Z" fill="black"/>
<path d="M28.4859 57.4238C28.4859 58.7018 28.4859 59.9797 28.4859 61.3997C27.1688 61.3997 25.9251 61.3997 24.4562 61.3997C24.4562 60.0826 24.4562 58.7508 24.4562 57.4238L24.4023 57.4826C25.7831 57.4826 27.1639 57.4826 28.5447 57.4826L28.4859 57.4238Z" fill="black"/>
<path d="M61.2376 114.636C59.9596 114.636 58.6817 114.636 57.2617 114.636C57.2617 113.319 57.2617 112.076 57.2617 110.607C58.5788 110.607 59.9107 110.607 61.2376 110.607L61.1788 110.553C61.1788 111.934 61.1788 113.314 61.1788 114.695L61.2376 114.636Z" fill="black"/>
<path d="M65.2578 110.604C66.5358 110.604 67.8137 110.604 69.2337 110.604C69.2337 111.921 69.2337 113.164 69.2337 114.633C67.9166 114.633 66.5847 114.633 65.2578 114.633L65.3166 114.687C65.3166 113.306 65.3166 111.926 65.3166 110.545L65.2578 110.604Z" fill="black"/>
<path d="M93.922 16.6263C93.922 15.3483 93.922 14.0703 93.922 12.6504C95.2294 12.6504 96.4731 12.6504 97.8489 12.6504C97.8489 13.8647 97.8489 15.1035 97.8489 16.5675C96.5171 16.5675 95.1902 16.5675 93.8633 16.5675L93.922 16.6263Z" fill="black"/>
<path d="M85.8203 57.3368C85.8203 56.049 85.8203 54.8543 85.8203 53.5078C87.064 53.5078 88.3077 53.5078 89.6836 53.5078C89.6836 54.7319 89.6836 55.9756 89.6836 57.3368C88.4546 57.3368 87.255 57.3368 85.8203 57.3368Z" fill="black"/>
<path d="M53.0681 57.4205C51.7853 57.4205 50.4975 57.4205 48.9796 57.4205C48.9796 56.0006 48.9796 54.6639 48.9796 53.332L48.9258 53.3908C50.2576 53.3908 51.5943 53.3908 53.0143 53.3908C53.0143 54.9087 53.0143 56.1915 53.0143 57.4793L53.0681 57.4205Z" fill="black"/>
<path d="M36.5603 20.6349C35.2285 20.6349 34.0779 20.6349 32.7656 20.6349C32.7656 19.3716 32.7656 18.1279 32.7656 16.7324C33.9359 16.7324 35.1844 16.7324 36.5603 16.7324C36.5603 17.9614 36.5603 19.2051 36.5603 20.6349Z" fill="black"/>
<path d="M110.212 16.5566C110.212 17.8346 110.212 19.1126 110.212 20.5325C108.895 20.5325 107.652 20.5325 106.183 20.5325C106.183 19.2154 106.183 17.8836 106.183 16.5566L106.129 16.6154C107.51 16.6154 108.89 16.6154 110.271 16.6154L110.212 16.5566Z" fill="black"/>
<path d="M110.275 49.2487C108.992 49.2487 107.705 49.2487 106.187 49.2487C106.187 47.8287 106.187 46.492 106.187 45.1602L106.133 45.2189C107.514 45.2189 108.894 45.2189 110.275 45.2189L110.216 45.1602C110.216 46.5409 110.216 47.9217 110.216 49.3025L110.275 49.2487Z" fill="black"/>
<path d="M32.6797 28.6903C32.6797 27.3927 32.6797 26.198 32.6797 24.8809C33.9968 24.8809 35.2405 24.8809 36.587 24.8809C36.587 26.1392 36.587 27.334 36.587 28.6903C35.3727 28.6903 34.129 28.6903 32.6797 28.6903Z" fill="black"/>
<path d="M44.7685 24.9004C44.7685 26.2518 44.7685 27.4514 44.7685 28.7441C43.4856 28.7441 42.286 28.7441 40.9297 28.7441C40.9297 27.5298 40.9297 26.2861 40.9297 24.9004C42.1293 24.9004 43.373 24.9004 44.7685 24.9004Z" fill="black"/>
<path d="M16.2908 114.635C15.0079 114.635 13.7202 114.635 12.2023 114.635C12.2023 113.215 12.2023 111.879 12.2023 110.547L12.1484 110.606C13.4803 110.606 14.817 110.606 16.2369 110.606C16.2369 112.124 16.2369 113.411 16.2369 114.694L16.2908 114.635Z" fill="black"/>
<path d="M97.9531 24.7882C99.236 24.7882 100.524 24.7882 102.042 24.7882C102.042 26.2082 102.042 27.5449 102.042 28.8767L102.095 28.818C100.715 28.818 99.3339 28.818 97.9531 28.818L98.0119 28.8767C98.0119 27.4959 98.0119 26.1152 98.0119 24.7344L97.9531 24.7882Z" fill="black"/>
<path d="M65.3877 147.241C63.9824 147.27 62.5771 147.299 61.1719 147.329L61.2306 147.383C61.2306 146.002 61.2306 144.621 61.2306 143.24L61.1719 143.294C62.4449 143.294 63.7229 143.294 65.3289 143.294C65.3289 144.67 65.3289 145.987 65.3289 147.304C65.3289 147.309 65.3877 147.241 65.3877 147.241Z" fill="black"/>
<path d="M118.449 147.379C118.449 145.998 118.444 144.617 118.444 143.236L118.391 143.295C119.722 143.295 121.059 143.295 122.479 143.295C122.479 144.813 122.479 146.101 122.479 147.384L122.538 147.33C121.157 147.325 119.776 147.325 118.396 147.32L118.449 147.379Z" fill="black"/>
<path d="M36.6652 147.32C36.6652 148.598 36.6652 149.876 36.6652 151.296C35.3579 151.296 34.1191 151.296 32.7383 151.296C32.7383 150.082 32.7383 148.843 32.7383 147.379C34.0701 147.379 35.397 147.379 36.7239 147.379L36.6652 147.32Z" fill="black"/>
<path d="M69.3533 147.321C69.3533 148.589 69.3533 149.862 69.3533 151.287C68.0704 151.287 66.8365 151.287 65.3823 151.287C65.3823 149.989 65.3823 148.618 65.3823 147.242C65.3823 147.238 65.3235 147.306 65.3284 147.306C66.6896 147.331 68.0508 147.355 69.4071 147.38C69.412 147.38 69.3533 147.321 69.3533 147.321Z" fill="black"/>
<path d="M93.8722 147.32C93.8722 148.598 93.8722 149.876 93.8722 151.296C92.5649 151.296 91.3212 151.296 89.9453 151.296C89.9453 150.082 89.9453 148.843 89.9453 147.379C91.2771 147.379 92.6041 147.379 93.931 147.379L93.8722 147.32Z" fill="black"/>
<path d="M97.9453 147.379C99.2233 147.379 100.501 147.379 101.921 147.379C101.921 148.686 101.921 149.93 101.921 151.306C100.707 151.306 99.4681 151.306 98.0041 151.306C98.0041 149.974 98.0041 148.647 98.0041 147.32L97.9453 147.379Z" fill="black"/>
<path d="M118.388 147.32C118.388 148.598 118.388 149.876 118.388 151.296C117.081 151.296 115.837 151.296 114.461 151.296C114.461 150.082 114.461 148.843 114.461 147.379C115.793 147.379 117.12 147.379 118.447 147.379L118.388 147.32Z" fill="black"/>
<path d="M138.818 147.326C138.818 148.604 138.818 149.882 138.818 151.302C137.501 151.302 136.257 151.302 134.788 151.302C134.788 149.985 134.788 148.653 134.788 147.326L134.734 147.385C136.115 147.385 137.496 147.385 138.877 147.385L138.818 147.326Z" fill="black"/>
<path d="M77.5157 131.137C77.5157 132.469 77.5157 133.619 77.5157 134.931C76.2524 134.931 75.0088 134.931 73.6133 134.931C73.6133 133.761 73.6133 132.513 73.6133 131.137C74.8423 131.137 76.086 131.137 77.5157 131.137Z" fill="black"/>
<path d="M134.734 139.211C134.734 137.83 134.734 136.449 134.734 135.068C137.374 135.068 140.008 135.068 142.789 135.068C142.789 136.444 142.789 137.688 142.789 139.211C140.111 139.211 137.422 139.211 134.734 139.211Z" fill="black"/>
<path d="M97.957 114.633C102.06 114.633 106.168 114.633 110.271 114.633C110.271 115.916 110.271 117.194 110.271 118.614C106.173 118.614 102.212 118.614 97.957 118.614C97.957 117.296 97.957 115.965 97.957 114.633Z" fill="black"/>
<path d="M122.578 126.766C122.578 125.469 122.578 124.274 122.578 122.957C123.895 122.957 125.139 122.957 126.485 122.957C126.485 124.211 126.485 125.41 126.485 126.766C125.276 126.766 124.027 126.766 122.578 126.766Z" fill="black"/>
<path d="M85.7545 32.959C84.4765 32.959 83.1986 32.959 81.7101 32.959C81.7101 34.2761 81.7101 35.5198 81.7101 37.0474C80.1824 37.0474 78.8506 37.0474 77.5237 37.0474C77.5237 35.7695 77.5237 34.4866 77.5237 33.003C74.8453 33.003 72.2404 33.003 69.3516 33.003C69.3516 31.4753 69.3516 30.1484 69.3516 28.8215C70.6344 28.8215 71.9222 28.8215 73.4205 28.8215C73.4205 27.4848 73.4205 26.2264 73.4205 24.875C74.8355 24.875 76.0351 24.875 77.4551 24.875C77.4551 26.0844 77.4551 27.3379 77.4551 28.7187C78.9191 28.7187 80.1677 28.7187 81.5632 28.7187C81.5632 27.4897 81.5632 26.2852 81.5632 24.924C82.9538 24.924 84.2023 24.924 85.7496 24.924C85.7545 27.568 85.7545 30.2659 85.7545 32.959Z" fill="black"/>
<path d="M61.1758 32.9588C61.1758 31.578 61.1758 30.1972 61.1758 28.8164C62.5566 28.8164 63.9373 28.8164 65.3181 28.8164C65.3181 30.0993 65.3181 31.3821 65.3181 32.9588C63.8492 32.9588 62.5125 32.9588 61.1758 32.9588Z" fill="black"/>
<path d="M61.2361 28.8767C59.8553 28.8767 58.4745 28.8767 57.0938 28.8767C57.0938 27.4959 57.0938 26.1152 57.0938 24.7344C58.3766 24.7344 59.6595 24.7344 61.2361 24.7344C61.2361 26.2033 61.2361 27.54 61.2361 28.8767Z" fill="black"/>
<path d="M20.2091 20.5704C16.1207 20.5704 12.1986 20.5704 8.18359 20.5704C8.18359 16.5554 8.18359 12.6383 8.18359 8.56445C12.1399 8.56445 16.106 8.56445 20.2091 8.56445C20.2091 12.5061 20.2091 16.4721 20.2091 20.5704Z" fill="black"/>
<path d="M142.842 8.52148C142.842 12.5512 142.842 16.4683 142.842 20.5275C138.856 20.5275 134.89 20.5275 130.797 20.5275C130.797 16.5614 130.797 12.5953 130.797 8.52148C134.773 8.52148 138.69 8.52148 142.842 8.52148Z" fill="black"/>
<path d="M20.1885 143.187C16.1637 143.187 12.2466 143.187 8.20703 143.187C8.20703 139.142 8.20703 135.176 8.20703 131.107C12.1976 131.107 16.1147 131.107 20.1885 131.107C20.1885 135.054 20.1885 139.02 20.1885 143.187Z" fill="black"/>
<path d="M53.0039 45.166C54.3847 45.166 55.7655 45.166 57.1463 45.166C57.1463 46.5468 57.1463 47.9276 57.1463 49.3084C55.8634 49.3084 54.5805 49.3084 53.0039 49.3084C53.0039 47.8346 53.0039 46.4978 53.0039 45.166Z" fill="black"/>
<path d="M28.5447 41.0781C28.5447 42.361 28.5447 43.6438 28.5447 45.2205C27.0709 45.2205 25.7342 45.2205 24.4023 45.2205C24.4023 43.9376 24.4023 42.6548 24.4023 41.0781C25.8713 41.0781 27.208 41.0781 28.5447 41.0781Z" fill="black"/>
</g>
<defs>
<clipPath id="clip0_154_474">
<rect width="151" height="151" fill="white" transform="translate(0 0.330078)"/>
</clipPath>
</defs>
</svg>
