<svg width="111" height="111" viewBox="0 0 111 111" fill="none" xmlns="http://www.w3.org/2000/svg">
<path fill-rule="evenodd" clip-rule="evenodd" d="M104.786 41.9619C92.5332 29.7094 80.2314 17.6259 67.9789 5.37952C60.8038 -1.79187 49.1141 -1.79187 41.9391 5.37952C29.625 17.6843 17.7507 29.7032 5.38126 42.0634C-1.79375 49.2409 -1.79375 60.9217 5.38126 68.09C17.6061 80.3149 29.831 92.5367 42.059 104.758C49.234 111.93 60.9238 111.93 68.0988 104.758C80.3452 92.5152 92.5394 80.2288 104.786 67.9886C111.964 60.8172 111.964 49.1302 104.786 41.9619Z" fill="white"/>
<path fill-rule="evenodd" clip-rule="evenodd" d="M49.0395 44.3259L48.9688 50.4429C52.2902 51.3282 54.7383 54.313 54.7383 57.8602C54.7383 59.2712 54.3508 60.5899 53.6742 61.7272L60.5601 66.0522C61.8641 64.0695 64.0261 62.7662 66.4742 62.7662C68.6454 62.7662 70.5922 63.7898 71.9116 65.4036L75.5929 62.4957C74.5749 60.4823 74.5626 58.2537 75.7682 56.603C76.6447 55.4042 78.0102 54.7279 79.5448 54.5865L79.3203 48.9921C78.0286 48.8998 76.6724 48.4142 75.4668 47.5258C72.7266 45.5247 71.7086 42.2018 73.0556 39.8964L67.812 36.6504C66.7817 37.6525 65.2932 38.2888 63.6325 38.2888C61.4366 38.2888 59.5329 37.1822 58.6133 35.5684L55.0058 36.7026C55.1319 37.1668 55.1965 37.6432 55.1965 38.1412C55.1996 41.2919 52.5178 43.9048 49.0395 44.3259Z" fill="#223B80"/>
<path fill-rule="evenodd" clip-rule="evenodd" d="M78.1891 65.5074C77.3894 64.9234 76.7221 64.2379 76.1992 63.491L72.5825 66.3558C73.2837 67.5423 73.6928 68.9471 73.6928 70.4564C73.6928 74.7045 70.4635 78.1411 66.4808 78.1411C62.4981 78.1411 59.2689 74.7045 59.2689 70.4564C59.2689 69.2422 59.5334 68.0864 60.0009 67.0659L53.0135 62.6764C51.5803 64.4285 49.3814 65.5474 46.9118 65.5474C44.15 65.5474 41.7235 64.1395 40.3303 62.0186L24.2734 67.7514L49.9226 93.3907C52.7213 96.191 57.3037 96.191 60.1024 93.3907L86.9418 66.5648L86.4374 66.1007C84.3276 67.6807 80.9293 67.5085 78.1891 65.5074Z" fill="#223B80"/>
<path fill-rule="evenodd" clip-rule="evenodd" d="M39.0825 57.8604C39.0825 53.6123 42.5854 50.1696 46.9064 50.1696C47.214 50.1696 47.5154 50.188 47.8106 50.2187L47.8783 44.3783C44.0217 44.2953 40.9216 41.5319 40.9216 38.1353C40.9216 36.7213 41.4537 35.421 42.3548 34.379L36.1731 30.5059L16.6748 49.9943C13.8792 52.7885 13.8792 57.3686 16.6748 60.1659L23.3608 66.8516L39.7591 60.9897C39.3255 60.0337 39.0825 58.9763 39.0825 57.8604Z" fill="#223B80"/>
<path fill-rule="evenodd" clip-rule="evenodd" d="M60.0991 16.7658C57.3988 14.0638 53.0778 13.698 50.0731 16.4891C50.1193 16.4891 39.2691 27.4138 37.0117 29.67L43.2087 33.5492C44.482 32.5164 46.1858 31.8801 48.0587 31.8801C50.9804 31.8801 53.4869 33.4171 54.594 35.618L58.18 34.4899C58.0847 34.1333 58.0355 33.7583 58.0355 33.3802C58.0355 30.6629 60.545 28.4712 63.6358 28.4712C66.7267 28.4712 69.2393 30.6629 69.2393 33.3802C69.2393 34.2347 68.9902 35.0401 68.5473 35.7379L73.7787 38.9777C75.6178 37.2103 78.9454 37.241 81.5872 39.1683C84.4751 41.2801 85.4438 44.8612 83.7585 47.1697C82.9958 48.2179 81.8117 48.8173 80.48 48.971L80.7046 54.5747C82.1408 54.6884 83.6478 55.2294 84.9979 56.2131C88.2086 58.5646 89.2943 62.5514 87.4121 65.1181C87.3752 65.1673 87.3291 65.2288 87.2922 65.278L87.7812 65.7268L91.7915 61.7246V61.7799L93.4984 60.0739C96.294 57.2736 96.294 52.6996 93.4984 49.8993C82.8789 39.2882 71.1153 27.7703 60.0991 16.7658Z" fill="#223B80"/>
<path fill-rule="evenodd" clip-rule="evenodd" d="M100.231 43.1638C89.1043 32.0363 77.9312 21.0594 66.8012 9.93499C60.2843 3.42141 49.6679 3.42141 43.151 9.93499C31.9625 21.1117 21.1769 32.0271 9.94234 43.256C3.42547 49.7757 3.42547 60.3837 9.94234 66.8973C21.0478 78.0002 32.1501 89.1001 43.2556 100.203C49.7724 106.717 60.3889 106.717 66.9088 100.203C78.0327 89.0847 89.1074 77.9234 100.231 66.8051C106.751 60.2884 106.751 49.6743 100.231 43.1638ZM97.5894 64.1615C86.401 75.3444 75.2709 86.5579 64.2639 97.5625C59.2048 102.616 50.9534 102.616 45.8974 97.5625C34.7981 86.4688 23.6957 75.3597 12.5841 64.2568C7.52504 59.2003 7.52504 50.9592 12.5841 45.9026C23.7849 34.7106 34.7304 23.6353 45.7928 12.5785C50.8519 7.52198 59.1033 7.52198 64.1593 12.5785C75.2617 23.6722 86.4348 34.6522 97.5925 45.8073C102.649 50.8577 102.649 59.105 97.5894 64.1615Z" fill="#223B80"/>
</svg>
