<svg width="54" height="35" viewBox="0 0 54 35" fill="none" xmlns="http://www.w3.org/2000/svg">
<path d="M10.5227 28.7835C9.98128 28.7835 9.4758 28.7835 8.97032 28.7835C8.07525 28.7835 7.18217 28.7936 6.2871 28.7795C5.14627 28.7635 4.47497 28.077 4.46298 26.933C4.45699 26.4092 4.46298 25.8874 4.46298 25.2933C4.02743 25.2933 3.61985 25.2933 3.21427 25.2933C2.76074 25.2933 2.30521 25.3053 1.85368 25.2852C1.3502 25.2612 1.01454 24.938 1.00056 24.5025C0.984573 24.077 1.31423 23.7318 1.80373 23.6656C1.9256 23.6495 2.05147 23.6535 2.17334 23.6515C4.5389 23.6515 6.90446 23.6495 9.27201 23.6515C10.0312 23.6515 10.4268 23.9345 10.4288 24.4724C10.4308 25.0163 10.0452 25.2913 9.278 25.2933C8.34297 25.2953 7.40794 25.3033 6.47091 25.2893C6.1872 25.2853 6.07332 25.3655 6.0913 25.6626C6.11327 26.0339 6.11327 26.4092 6.0913 26.7805C6.07332 27.0816 6.20318 27.1558 6.4789 27.1538C7.81352 27.1438 9.14814 27.1438 10.4828 27.1558C10.7445 27.1578 10.8704 27.0655 10.9743 26.8287C11.6875 25.205 12.9142 24.1974 14.6365 23.784C16.8782 23.2461 19.4635 24.5266 20.3606 26.6661C20.5204 27.0474 20.7142 27.1598 21.1178 27.1598C26.4003 27.1458 31.6829 27.1498 36.9654 27.1498C37.1132 27.1498 37.2631 27.1498 37.4709 27.1498C37.4709 26.9672 37.4709 26.8226 37.4709 26.6761C37.4709 24.922 37.4709 23.1678 37.4709 21.4157C37.4709 21.3053 37.4669 21.1949 37.4729 21.0845C37.5009 20.5406 37.8365 20.1713 38.296 20.1773C38.7655 20.1833 39.0912 20.5366 39.0932 21.1006C39.1032 22.9089 39.0972 24.7193 39.0972 26.5276C39.0972 26.638 39.0772 26.7544 39.1032 26.8568C39.1292 26.9591 39.2031 27.0474 39.255 27.1438C39.3629 27.0795 39.5128 27.0434 39.5687 26.9491C39.7625 26.634 39.8984 26.2807 40.0982 25.9717C42.0681 22.9029 46.7033 22.923 48.6593 26.0058C48.7852 26.2025 48.945 26.3972 49.001 26.6159C49.1208 27.0876 49.4006 27.198 49.8481 27.1598C50.3256 27.1197 50.8091 27.1518 51.3266 27.1518C51.3266 25.9576 51.3266 24.7815 51.3266 23.5471C51.0808 23.5471 50.8391 23.5492 50.5953 23.5471C48.963 23.5251 47.9181 22.4814 47.8961 20.8457C47.8901 20.362 47.8881 19.8783 47.8961 19.3966C47.9081 18.7443 48.2138 18.4352 48.8651 18.4292C49.6303 18.4212 50.3955 18.4272 51.1647 18.4272C51.0828 17.6424 50.0599 16.659 48.933 16.5968C48.5894 16.5787 48.2458 16.5847 47.9021 16.5827C45.1509 16.5827 42.3998 16.5827 39.6486 16.5827C39.4848 16.5827 39.323 16.5827 39.0932 16.5827C39.0932 16.8818 39.1032 17.1527 39.0912 17.4216C39.0672 17.9656 38.7256 18.3308 38.2641 18.3188C37.8205 18.3068 37.4949 17.9455 37.4709 17.4237C37.4569 17.1206 37.4669 16.8155 37.4669 16.5125C37.4669 12.0668 37.4669 7.61924 37.4669 3.17363C37.4669 3.01106 37.4669 2.84648 37.4669 2.65381C26.9977 2.65381 16.5665 2.65381 6.0933 2.65381C6.0933 2.86254 6.0933 3.03916 6.0933 3.21779C6.0933 7.85807 6.0933 12.4964 6.0933 17.1366C6.0933 17.9074 5.82557 18.3047 5.29812 18.3188C4.76267 18.3349 4.46298 17.9094 4.46298 17.1306C4.46298 12.4221 4.46298 7.71357 4.46298 3.00504C4.46298 1.64025 5.10032 1 6.45692 1C16.6784 1 26.8978 1 37.1192 1C38.4559 1 39.0892 1.63623 39.0952 2.97694C39.0972 3.45863 39.0952 3.94032 39.0952 4.48222C39.295 4.48222 39.4548 4.48222 39.6147 4.48222C41.4168 4.48222 43.2189 4.47821 45.0211 4.48423C46.4916 4.49025 47.6204 5.09638 48.3037 6.43709C48.7173 7.24793 48.7013 8.12501 48.5954 8.98804C48.5654 9.22487 48.2777 9.42959 48.048 9.72663C48.3057 10.7663 48.5894 11.9143 48.8751 13.0623C49.007 13.5982 49.1448 14.1321 49.2727 14.668C49.3246 14.8867 49.4185 15.0132 49.6623 15.0754C51.7661 15.6294 52.9928 17.237 52.9968 19.4307C53.0028 22.1924 52.9988 24.9541 52.9968 27.7158C52.9968 28.4945 52.7071 28.7815 51.918 28.7855C51.1368 28.7896 50.3556 28.7855 49.5764 28.7855C49.5005 29.2512 49.4565 29.6767 49.3586 30.0881C48.8631 32.1514 47.0869 33.7028 44.9252 33.9858C42.9392 34.2447 40.8634 33.1388 39.8624 31.3164C39.5028 30.6621 39.263 29.9757 39.2391 29.2371C39.2251 28.8297 39.0612 28.7775 38.7156 28.7795C36.35 28.7916 33.9845 28.7855 31.6169 28.7855C28.2184 28.7855 24.8219 28.7936 21.4235 28.7755C20.9879 28.7735 20.852 28.8779 20.8141 29.3294C20.5364 32.633 17.0919 34.8729 14.0151 33.7128C11.9233 32.9241 10.7545 31.3586 10.5567 29.0986C10.5487 29.0143 10.5387 28.9341 10.5227 28.7835ZM47.6204 14.9209C47.6144 14.8245 47.6204 14.7663 47.6064 14.7141C47.2028 13.0965 46.7913 11.4808 46.3997 9.8591C46.3337 9.58413 46.1619 9.6022 45.9681 9.6022C43.8103 9.6022 41.6506 9.61022 39.4928 9.59417C39.1511 9.59216 39.0852 9.7166 39.0872 10.0277C39.1012 11.531 39.0932 13.0363 39.0952 14.5395C39.0952 14.66 39.1132 14.7784 39.1232 14.9189C41.9602 14.9209 44.7733 14.9209 47.6204 14.9209ZM12.175 28.7795C12.1011 30.6581 13.6894 32.342 15.6454 32.3681C17.5395 32.3922 19.1418 30.9632 19.2217 28.8919C19.2937 27.0013 17.7313 25.3816 15.7593 25.3033C13.8773 25.2311 12.2529 26.8046 12.175 28.7795ZM47.8841 28.8899C47.9421 26.9872 46.3837 25.3776 44.4137 25.3033C42.5277 25.2331 40.9053 26.8126 40.8374 28.7835C40.7715 30.6742 42.3478 32.3079 44.3078 32.3781C46.1879 32.4464 47.8242 30.8488 47.8841 28.8899ZM46.9751 7.94638C47.017 7.0673 46.4276 6.30864 45.5885 6.16613C45.2249 6.10592 44.8493 6.10994 44.4796 6.10994C42.8154 6.10392 41.1511 6.10392 39.4868 6.11596C39.3569 6.11596 39.1212 6.22434 39.1172 6.29459C39.0872 6.8385 39.0992 7.38441 39.0992 7.94638C41.7604 7.94638 44.3538 7.94638 46.9751 7.94638ZM51.3266 21.8652C51.3266 21.2551 51.3266 20.6731 51.3266 20.097C50.7132 20.097 50.1318 20.097 49.5564 20.097C49.3806 21.6405 49.8321 22.088 51.3266 21.8652Z" fill="#223B80" stroke="#223B80" stroke-width="0.5"/>
<path d="M28.7051 25.2929C26.7951 25.2929 24.885 25.2929 22.973 25.2929C22.2378 25.2929 21.8542 25.0199 21.8402 24.4941C21.8262 23.9602 22.2358 23.6571 22.981 23.6571C26.8151 23.6571 30.6511 23.6571 34.4851 23.6571C34.5411 23.6571 34.595 23.6551 34.651 23.6571C35.2403 23.6812 35.606 23.9863 35.616 24.462C35.6259 24.9577 35.2523 25.2909 34.643 25.2909C32.663 25.2969 30.6831 25.2929 28.7051 25.2929Z" fill="#223B80" stroke="#223B80" stroke-width="0.5"/>
<path d="M8.75013 21.8048C7.11581 21.8048 5.47951 21.8068 3.84519 21.8028C3.66738 21.8028 3.48157 21.8088 3.31374 21.7587C2.94612 21.6483 2.73434 21.3733 2.73834 20.99C2.74033 20.6106 2.94013 20.3317 3.31574 20.2273C3.48556 20.1811 3.66738 20.1671 3.84519 20.1671C7.11581 20.1631 10.3864 20.1651 13.6571 20.1651C13.739 20.1651 13.8229 20.1611 13.9048 20.1691C14.4243 20.2092 14.7679 20.5384 14.7699 20.99C14.7699 21.4636 14.4143 21.7988 13.8648 21.8008C12.1586 21.8088 10.4544 21.8048 8.75013 21.8048Z" fill="#223B80" stroke="#223B80" stroke-width="0.5"/>
<path d="M15.6858 27.1612C16.6228 27.1532 17.3621 27.8817 17.37 28.821C17.378 29.7543 16.6428 30.511 15.7158 30.519C14.7987 30.527 14.0335 29.7724 14.0235 28.8511C14.0155 27.9219 14.7547 27.1692 15.6858 27.1612Z" fill="#223B80" stroke="#223B80" stroke-width="0.5"/>
<path d="M44.3638 30.5209C43.4427 30.5229 42.6895 29.7663 42.6875 28.839C42.6855 27.9078 43.4287 27.1631 44.3598 27.1611C45.2868 27.1591 46.038 27.9078 46.04 28.835C46.042 29.7562 45.2848 30.5189 44.3638 30.5209Z" fill="#223B80" stroke="#223B80" stroke-width="0.5"/>
</svg>
