<svg width="43" height="41" viewBox="0 0 43 41" fill="none" xmlns="http://www.w3.org/2000/svg">
<g clip-path="url(#clip0_200_516)">
<path d="M34.4224 40.1599C34.3655 40.1484 34.3081 40.136 34.2512 40.125C33.6986 40.0152 33.333 39.6447 33.2382 39.0851C33.2113 38.9268 33.1985 38.764 33.1985 38.6031C33.1954 36.6229 33.1963 34.6423 33.1959 32.6621C33.1959 32.6114 33.1959 32.5602 33.1959 32.5038C33.158 32.4976 33.1302 32.4897 33.1019 32.4888C33.0287 32.4861 32.9551 32.4857 32.8814 32.4857C28.5237 32.4857 24.1665 32.4857 19.8088 32.4848C19.6293 32.4848 19.4493 32.4756 19.2703 32.4628C19.2019 32.4579 19.1331 32.4367 19.0679 32.4134C18.6246 32.255 18.4597 31.8674 18.4989 31.4753C18.5532 30.9307 18.9775 30.67 19.3973 30.6616C19.882 30.6524 20.3671 30.6528 20.8522 30.6511C21.1058 30.6502 21.3594 30.6537 21.6125 30.6546C21.6447 30.6546 21.6774 30.6497 21.7224 30.6458C21.7259 30.5051 21.7109 30.3728 21.6699 30.244C21.5997 30.0235 21.5305 29.803 21.4577 29.5838C21.2015 28.8103 20.9444 28.0371 20.6877 27.264C20.6785 27.2363 20.667 27.2094 20.6564 27.1816C20.5916 27.01 20.4659 26.9262 20.2842 26.9258C20.0196 26.9249 19.755 26.9271 19.4908 26.9271C18.5391 26.9271 17.5874 26.9298 16.6361 26.9249C16.0495 26.9218 15.4806 26.823 14.947 26.5681C14.1232 26.1747 13.5979 25.526 13.3324 24.6594C13.2156 24.2775 13.1626 23.8841 13.16 23.4863C13.1542 22.6047 13.1529 21.7226 13.1573 20.8411C13.1604 20.213 13.3884 19.6728 13.8321 19.2278C14.5223 18.5359 15.2156 17.847 15.9084 17.1577C15.9393 17.1268 15.979 17.1047 16.0204 17.0748C15.4564 16.0384 14.9051 15.024 14.349 14.0022C14.315 14.0251 14.2903 14.0392 14.2687 14.0573C13.747 14.4895 13.1437 14.7246 12.4755 14.8084C12.1351 14.8511 11.7946 14.8467 11.4528 14.8397C10.9827 14.8295 10.5126 14.8335 10.042 14.8326C9.89513 14.8322 9.74827 14.8353 9.60097 14.837C9.5648 14.8375 9.52908 14.8406 9.48321 14.8432C9.48057 14.9036 9.4766 14.9574 9.4766 15.0112C9.47616 17.7006 9.4766 20.3903 9.47572 23.0797C9.47572 23.3222 9.47351 23.5648 9.42147 23.8034C9.40912 23.8607 9.39501 23.9176 9.37825 23.974C9.26094 24.3648 9.00206 24.6126 8.6122 24.7251C8.37361 24.7939 8.12885 24.8137 7.88188 24.8142C7.79764 24.8146 7.71341 24.8142 7.61462 24.8142C7.62653 24.8512 7.63094 24.8786 7.64329 24.902C7.83469 25.2702 8.0283 25.6371 8.21837 26.0058C8.2541 26.0755 8.30702 26.1214 8.37361 26.1558C8.54958 26.2466 8.72554 26.3383 8.90283 26.4274C9.30284 26.6285 9.70505 26.8266 10.1037 27.0299C10.7776 27.3734 11.1891 27.9128 11.3064 28.6656C11.3245 28.7811 11.3346 28.8993 11.3355 29.0166C11.3395 29.5128 11.3386 30.0085 11.3395 30.5046C11.3395 30.5483 11.3395 30.592 11.3395 30.6453C11.3994 30.6484 11.4497 30.6537 11.5 30.6537C12.6462 30.6542 13.7928 30.6537 14.939 30.6542C15.4131 30.6546 15.8868 30.655 16.3609 30.6594C16.4778 30.6603 16.596 30.6696 16.7111 30.6881C16.8376 30.7084 16.9444 30.7728 17.0299 30.8707C17.194 31.0581 17.3303 31.2592 17.3823 31.5093C17.4202 31.6905 17.3801 31.8528 17.2712 31.9979C17.13 32.1867 16.9422 32.3221 16.7397 32.4372C16.6484 32.4892 16.543 32.4932 16.4394 32.4928C13.1953 32.4906 9.95069 32.4883 6.70656 32.4861C6.13324 32.4857 5.56036 32.4853 4.98703 32.4853C4.30566 32.4848 3.63972 32.3904 2.99936 32.1496C1.85272 31.7179 1.03419 30.9302 0.506289 29.8321C0.330764 29.4669 0.201104 29.085 0.103198 28.6921C0.0934959 28.6533 0.0899677 28.6074 0.0670348 28.5778C0.00308712 28.4949 0.00352815 28.4023 0.00352815 28.3057C0.00441018 26.6559 0.00441018 25.0065 0.00396916 23.3566C0.00308713 16.9918 0.00220509 10.6284 0 4.2645C0 4.14498 0.0176407 4.03297 0.0564503 3.92007C0.161854 3.61488 0.24256 3.29999 0.364281 3.00187C0.986999 1.47859 2.08558 0.500851 3.70279 0.131719C4.10191 0.0404282 4.50809 0.00338266 4.91647 0.0020596C5.94537 -0.000586506 6.97382 -0.00146854 8.00272 0.00426469C8.16986 0.00514673 8.34098 0.0285207 8.50327 0.0695354C8.99765 0.193903 9.29975 0.514523 9.41971 1.00935C9.47219 1.22589 9.47439 1.44639 9.47483 1.66646C9.47616 2.313 9.47439 2.95953 9.47219 3.60606C9.47175 3.77541 9.45455 3.943 9.39854 4.10529C9.28079 4.4462 9.01882 4.64819 8.65851 4.66583C8.56016 4.67068 8.45873 4.67068 8.36259 4.6526C8.00492 4.58556 7.76192 4.33021 7.69003 3.94035C7.66357 3.79702 7.65431 3.6484 7.65299 3.50242C7.64858 3.00628 7.65122 2.51057 7.65122 2.01443C7.65122 1.96724 7.65122 1.92005 7.65122 1.86757C7.61065 1.8636 7.58243 1.85875 7.5542 1.85875C6.61351 1.85875 5.67326 1.8539 4.73257 1.86139C4.06663 1.86668 3.45891 2.0647 2.93012 2.47485C2.36342 2.91454 2.02516 3.49713 1.8805 4.1957C1.83331 4.42283 1.81303 4.65304 1.81303 4.88501C1.81347 5.70795 1.81214 6.53089 1.81214 7.35383C1.81214 12.8467 1.81214 18.3396 1.81214 23.832C1.81214 23.8823 1.81214 23.9326 1.81214 24.0084C1.86683 23.971 1.90255 23.948 1.93651 23.9229C2.4428 23.5516 2.99716 23.2825 3.60797 23.1317C4.03223 23.0272 4.4631 23.0029 4.89795 23.0038C5.74647 23.006 6.59543 23.0047 7.44395 23.0047C7.50613 23.0047 7.56787 23.0047 7.63711 23.0047C7.6424 22.9681 7.64858 22.9403 7.6499 22.9121C7.65211 22.8755 7.65078 22.8384 7.65078 22.8018C7.65078 17.5736 7.65078 12.3453 7.65122 7.11701C7.65122 6.93354 7.64373 6.74876 7.66357 6.56706C7.70326 6.20145 7.89202 5.92802 8.2391 5.7988C8.58618 5.66959 8.91474 5.74059 9.19611 5.98183C9.37913 6.13883 9.45587 6.3536 9.4616 6.59043C9.4691 6.88768 9.46646 7.18536 9.46778 7.48305C9.46822 7.53333 9.46778 7.58405 9.46778 7.64138C10.6854 7.64138 11.8885 7.64138 13.1057 7.64138C13.1203 7.54568 13.1362 7.44953 13.1498 7.35295C13.268 6.51634 13.4828 5.70619 13.8193 4.93C14.4597 3.45303 15.4683 2.28477 16.7944 1.38245C17.7316 0.744734 18.7596 0.331941 19.8749 0.137011C20.5691 0.0157312 21.2694 -0.0239605 21.9715 0.0263156C22.9903 0.0995246 23.9579 0.37472 24.8752 0.82103C26.2137 1.47197 27.3202 2.39943 28.1736 3.62194C28.8783 4.63143 29.3268 5.7472 29.5275 6.96177C29.5659 7.1933 29.5932 7.42616 29.6272 7.67093C29.6629 7.67357 29.7017 7.67886 29.7405 7.67842C30.4166 7.67754 31.0927 7.67357 31.7687 7.6771C31.9478 7.67798 32.1317 7.68063 32.305 7.71944C32.6433 7.79529 32.8872 7.99772 32.9838 8.34171C33.135 8.87887 32.7782 9.41074 32.219 9.49057C32.1392 9.50203 32.0581 9.50821 31.9778 9.50865C31.2135 9.51041 30.4492 9.51041 29.6849 9.51129C29.6413 9.51129 29.5981 9.51129 29.5469 9.51129C29.4821 9.87822 29.4247 10.2368 29.3537 10.5922C29.2832 10.9446 29.2069 11.2965 29.1173 11.6445C29.0269 11.9947 28.9171 12.3395 28.81 12.7065C28.858 12.6888 28.8885 12.6805 28.9158 12.6668C29.3524 12.4485 29.7912 12.2333 30.2252 12.0092C30.6062 11.8125 31.0058 11.7133 31.4358 11.7464C31.6126 11.76 31.7846 11.7953 31.9522 11.8513C32.9551 12.1852 33.9588 12.5164 34.9608 12.8542C35.5544 13.054 35.9849 13.4408 36.2579 14.0066C36.481 14.4697 36.7152 14.9274 36.9423 15.3883C37.0305 15.5669 37.1725 15.6591 37.3697 15.6688C38.0021 15.7001 38.496 15.989 38.881 16.4807C38.9353 16.5499 38.9851 16.6232 39.0341 16.6964C39.5995 17.5422 40.164 18.389 40.7289 19.2349C40.7629 19.2856 40.7977 19.3354 40.8321 19.3857C40.8405 19.383 40.8493 19.3808 40.8577 19.3782C40.859 19.3367 40.8621 19.2948 40.8621 19.2534C40.8612 18.3347 40.8586 17.4165 40.859 16.4979C40.8599 15.2194 40.8617 13.9409 40.8674 12.6624C40.87 12.1093 40.7752 11.5788 40.5137 11.0888C40.0471 10.2138 39.3185 9.69785 38.3412 9.53335C38.1084 9.4941 37.8742 9.50071 37.6383 9.50733C37.15 9.521 36.6614 9.52012 36.1728 9.52056C35.8274 9.521 35.4821 9.51526 35.1368 9.51129C34.9361 9.50909 34.7425 9.47337 34.5608 9.38384C33.9725 9.09409 33.9333 8.38229 34.279 8.00478C34.4625 7.80455 34.6989 7.71018 34.9635 7.69254C35.1756 7.67842 35.3895 7.6793 35.6025 7.68019C36.4034 7.68372 37.2043 7.6868 38.0052 7.69606C38.5525 7.70224 39.0866 7.78824 39.6026 7.97787C41.158 8.54987 42.3276 9.95055 42.6002 11.5761C42.6226 11.7098 42.6288 11.8456 42.6443 11.9806C42.6487 12.0198 42.6597 12.0582 42.6681 12.097C42.6681 19.9745 42.6681 27.8519 42.6681 35.7289C42.6601 35.7678 42.6495 35.8061 42.6438 35.8449C42.6169 36.0372 42.6068 36.2335 42.5627 36.4213C42.2553 37.7343 41.521 38.746 40.3801 39.4586C39.7719 39.8384 39.1051 40.0518 38.3867 40.0933C38.0899 40.1105 37.7926 40.1241 37.4958 40.1409C37.4486 40.1435 37.4019 40.1537 37.3551 40.1603C36.3769 40.1599 35.3996 40.1599 34.4224 40.1599ZM17.1084 18.5486C17.0864 18.5658 17.074 18.5733 17.0639 18.5835C16.917 18.7277 16.7688 18.8701 16.6242 19.0166C16.1726 19.4739 15.7214 19.9321 15.2725 20.3917C15.1009 20.5672 15.0162 20.785 14.9995 21.0263C14.984 21.2499 14.9774 21.4739 14.977 21.698C14.9757 22.2929 14.9787 22.8883 14.9827 23.4832C14.984 23.6671 14.9977 23.8501 15.0422 24.0296C15.1379 24.4164 15.3421 24.7207 15.7077 24.9006C15.9463 25.0175 16.2008 25.0656 16.465 25.0678C16.88 25.0709 17.295 25.0748 17.7104 25.0748C18.4672 25.0753 19.224 25.0726 19.9808 25.0731C20.282 25.0731 20.5828 25.0788 20.8782 25.1516C21.5574 25.3187 22.0412 25.7108 22.2873 26.3745C22.4875 26.9148 22.686 27.4559 22.88 27.9983C23.1676 28.8005 23.4251 29.6116 23.5817 30.4513C23.5874 30.4826 23.5989 30.513 23.6068 30.5404C23.7868 30.5642 30.253 30.5549 30.3324 30.5315C30.3354 30.5223 30.3412 30.5117 30.3412 30.5016C30.3398 30.2224 30.3447 29.9432 30.3337 29.6645C30.3244 29.4325 30.3222 29.2023 30.3601 28.9725C30.4369 28.5104 30.6349 28.1011 30.8946 27.7161C31.5549 26.7397 32.2133 25.7615 32.8713 24.7833C33.0248 24.5553 33.1297 24.307 33.1765 24.0345C33.2347 23.6936 33.1963 23.3531 33.1787 23.0126C33.176 22.9615 33.1637 22.9112 33.1571 22.86C33.1425 22.7454 33.0764 22.6827 32.9626 22.6713C32.8021 22.6554 32.6415 22.6378 32.4805 22.6276C32.2314 22.6117 31.9813 22.6113 31.7348 22.5641C31.2819 22.4777 30.8854 22.2876 30.5709 21.9427C30.3346 21.683 30.1723 21.38 30.0602 21.0501C29.909 20.6051 29.7674 20.1575 29.6175 19.712C29.5531 19.5211 29.4896 19.3284 29.4058 19.1453C29.2302 18.7617 28.9458 18.4931 28.529 18.3872C28.402 18.355 28.2688 18.3299 28.1383 18.329C27.4221 18.3242 26.7059 18.3299 25.9896 18.3268C25.8141 18.3259 25.6787 18.3938 25.5649 18.5213C25.3837 18.7242 25.2007 18.9248 25.019 19.1268C24.2864 19.9405 23.5543 20.7542 22.8223 21.5674C22.6542 21.754 22.4694 21.9207 22.2494 22.0455C21.8674 22.2616 21.4608 22.3361 21.0277 22.258C20.6167 22.1844 20.2665 21.9899 19.9724 21.7006C19.6006 21.3346 19.2346 20.9628 18.8751 20.5853C18.2846 19.9647 17.7435 19.301 17.1935 18.6452C17.1675 18.6152 17.1406 18.5857 17.1084 18.5486ZM26.9841 16.482C26.9903 16.4904 26.9965 16.4988 27.0022 16.5076C27.0424 16.5076 27.0825 16.5076 27.1222 16.5076C27.4895 16.508 27.8569 16.5045 28.2243 16.5094C28.7826 16.5169 29.3057 16.6606 29.7873 16.9442C30.4567 17.3389 30.9149 17.9105 31.1747 18.6386C31.367 19.1775 31.5429 19.7226 31.7273 20.2646C31.7652 20.3758 31.8076 20.4852 31.8495 20.595C31.8887 20.6977 31.9659 20.7551 32.0739 20.7643C32.2199 20.7767 32.3663 20.7864 32.5132 20.7917C32.7112 20.7987 32.9101 20.7908 33.1077 20.8067C33.6404 20.8499 34.0867 21.077 34.4457 21.4708C34.7994 21.8589 34.9657 22.3251 34.9913 22.8446C35.0041 23.1052 35.0032 23.3663 35.0235 23.6261C35.0464 23.9176 35.0376 24.2056 34.9802 24.4918C34.8859 24.9646 34.6759 25.3853 34.4087 25.7818C33.8495 26.6096 33.2925 27.4382 32.7359 28.2678C32.5745 28.5086 32.4175 28.7529 32.2592 28.9959C32.2027 29.0832 32.1635 29.1745 32.163 29.2835C32.1617 29.713 32.1555 30.1426 32.1516 30.5726C32.1516 30.5937 32.1568 30.6153 32.1613 30.6471C32.2058 30.6502 32.2486 30.655 32.2914 30.655C33.3935 30.6586 34.4956 30.663 35.5977 30.663C36.0202 30.663 36.4427 30.655 36.8647 30.6462C37.4455 30.6343 38.025 30.6356 38.601 30.726C39.3904 30.8504 40.1177 31.1243 40.7633 31.6023C40.788 31.6209 40.8162 31.635 40.8617 31.6623C40.8617 31.5957 40.8617 31.549 40.8617 31.5027C40.8603 28.663 40.859 25.8232 40.8595 22.984C40.8595 22.8199 40.8189 22.677 40.7271 22.5399C39.6639 20.9535 38.6023 19.3663 37.543 17.7773C37.4354 17.6159 37.2846 17.5334 37.1024 17.4946C37.0235 17.4778 36.9432 17.4664 36.8647 17.4487C36.171 17.2917 35.6546 16.9076 35.341 16.2606C35.1262 15.8183 34.9031 15.3799 34.687 14.938C34.5877 14.7352 34.4373 14.5962 34.2195 14.5327C34.1771 14.5204 34.1352 14.5076 34.0934 14.4944C33.677 14.3625 33.2589 14.2372 32.8462 14.0957C32.6283 14.0207 32.4223 13.9109 32.2067 13.8275C31.8001 13.671 31.3815 13.6264 30.9524 13.7217C30.6247 13.7945 30.3337 13.9466 30.0545 14.1274C29.9006 14.2271 29.7445 14.325 29.5826 14.4101C29.1032 14.6624 28.6 14.7951 28.0536 14.6959C28.0329 14.6919 28.0113 14.6955 27.9875 14.6955C27.651 15.2939 27.3175 15.888 26.9841 16.482ZM21.2703 1.85831C20.8311 1.85257 20.398 1.90108 19.9693 1.99326C18.0813 2.39943 16.3988 3.7291 15.5635 5.4698C15.231 6.16308 15.0414 6.89253 14.9695 7.65681C14.9077 8.31437 14.9201 8.97017 15.0017 9.6242C15.093 10.3585 15.2663 11.0747 15.4965 11.7772C16.027 13.3975 16.7975 14.8979 17.7554 16.3047C18.7539 17.7707 19.9243 19.0915 21.1852 20.3343C21.2086 20.3573 21.235 20.378 21.2602 20.3992C21.306 20.438 21.3545 20.4388 21.4004 20.4018C21.4573 20.3559 21.516 20.3105 21.5667 20.258C21.9486 19.866 22.3376 19.4805 22.7076 19.0779C23.9901 17.682 25.1058 16.1645 26.013 14.497C26.5996 13.4192 27.0781 12.2972 27.3811 11.1056C27.6351 10.1058 27.7947 9.09453 27.752 8.05638C27.729 7.50202 27.6448 6.96089 27.482 6.43255C27.0132 4.91015 26.1242 3.70088 24.7733 2.84707C23.7052 2.17275 22.529 1.86404 21.2703 1.85831ZM9.49336 30.648C9.49336 30.5999 9.49336 30.5673 9.49336 30.5351C9.4938 30.05 9.49115 29.5653 9.49644 29.0802C9.49909 28.8636 9.40604 28.7181 9.21463 28.6241C8.70658 28.3758 8.20117 28.1227 7.69268 27.8753C7.15199 27.612 6.74273 27.2164 6.47503 26.6766C6.21747 26.1571 5.95904 25.6376 5.70678 25.1154C5.60931 24.9143 5.4576 24.8146 5.23665 24.8151C5.09685 24.8151 4.95749 24.8115 4.81768 24.8164C4.31183 24.8336 3.82936 24.9447 3.37776 25.1798C2.19098 25.7981 1.67543 27.0493 1.84346 28.1769C1.97179 29.04 2.43045 29.7016 3.15813 30.1748C3.66045 30.5016 4.21702 30.6572 4.81636 30.6577C5.14315 30.6577 5.47039 30.6528 5.79718 30.6528C6.98396 30.6528 8.17074 30.6542 9.35752 30.6546C9.3981 30.6546 9.43779 30.6511 9.49336 30.648ZM35.0464 38.2952C35.0812 38.2996 35.1095 38.3058 35.1381 38.3058C36.0493 38.3058 36.96 38.3071 37.8711 38.3023C38.0577 38.3014 38.2469 38.2904 38.4303 38.2586C39.083 38.1457 39.6308 37.8344 40.0736 37.344C40.5534 36.8125 40.8259 36.1858 40.8577 35.4714C40.8961 34.6207 40.5798 33.8987 39.9814 33.3011C39.6215 32.9417 39.1889 32.7053 38.6835 32.6259C38.3501 32.5735 38.014 32.5338 37.6775 32.5122C37.2343 32.4839 36.7897 32.476 36.3452 32.465C35.9487 32.4548 35.5518 32.4526 35.1553 32.4473C35.12 32.4469 35.0852 32.4509 35.0468 32.4531C35.0464 34.4063 35.0464 36.3477 35.0464 38.2952ZM9.50085 12.9768C9.55378 12.9768 9.59303 12.9768 9.63272 12.9768C9.86381 12.9781 10.0953 12.9808 10.3264 12.9803C10.8993 12.9799 11.4718 12.9808 12.0446 12.9751C12.2202 12.9733 12.4041 12.9808 12.569 12.9323C13.0092 12.8026 13.328 12.5142 13.5331 12.1032C13.5816 12.0061 13.5992 11.9025 13.575 11.7931C13.5591 11.7217 13.5543 11.6476 13.5397 11.5761C13.4153 10.9614 13.2896 10.347 13.164 9.73269C13.1516 9.67271 13.1357 9.61361 13.1225 9.55848C12.947 9.53114 9.582 9.54128 9.50085 9.56907C9.50085 10.6963 9.50085 11.8258 9.50085 12.9768Z" fill="#223B80"/>
<path d="M16.2734 8.31487C16.2977 6.882 16.7841 5.66655 17.7729 4.66588C18.5253 3.90424 19.436 3.43191 20.4953 3.25639C23.1048 2.82419 25.6318 4.48198 26.2532 7.0487C26.7904 9.26747 25.799 11.6243 23.7227 12.7356C23.1163 13.0602 22.4689 13.2477 21.7831 13.3098C19.6622 13.5034 17.716 12.3462 16.8044 10.5279C16.527 9.97398 16.3555 9.38874 16.3021 8.77044C16.2875 8.60991 16.2814 8.44805 16.2734 8.31487ZM21.3412 11.4955C23.1225 11.492 24.5756 10.0437 24.5809 8.26591C24.5866 6.4842 23.1052 5.01429 21.3077 5.01693C19.5577 5.01958 18.0781 6.51242 18.0882 8.2765C18.0988 10.0701 19.5745 11.4959 21.3412 11.4955Z" fill="#223B80"/>
</g>
<defs>
<clipPath id="clip0_200_516">
<rect width="42.6672" height="40.16" fill="white"/>
</clipPath>
</defs>
</svg>
