<svg width="38" height="41" viewBox="0 0 38 41" fill="none" xmlns="http://www.w3.org/2000/svg">
<g clip-path="url(#clip0_200_550)">
<path d="M18.1202 40.1598C18.0888 40.1386 18.0598 40.1135 18.0261 40.0979C17.1558 39.6737 16.2785 39.2637 15.4153 38.8254C13.4365 37.8203 11.6176 36.5769 9.9563 35.1037C8.53097 33.8399 7.27421 32.4256 6.18914 30.8591C5.36985 29.6768 4.66503 28.4295 4.0637 27.1225C3.18091 25.2049 2.54664 23.2056 2.10211 21.1445C1.89043 20.1621 1.7156 19.1727 1.61603 18.1739C1.52665 17.2785 1.44354 16.3801 1.41767 15.4808C1.38161 14.2546 1.40199 13.0261 1.39886 11.7991C1.39807 11.4338 1.40591 11.0676 1.3965 10.7023C1.38082 10.1135 1.17071 9.58821 0.837507 9.11075C0.694034 8.90534 0.52312 8.71875 0.381215 8.51177C0.0440913 8.01941 -0.103302 7.48629 0.0785876 6.8975C0.226765 6.41769 0.559184 6.09389 0.989604 5.85869C1.32046 5.67758 1.67796 5.61329 2.04958 5.58115C2.6862 5.52705 3.32359 5.46982 3.95707 5.3875C4.70345 5.29107 5.44825 5.17974 6.18993 5.05194C7.51725 4.82301 8.82341 4.50236 10.1084 4.10016C11.2632 3.73873 12.393 3.31066 13.4914 2.80263C14.8759 2.16288 16.1845 1.39533 17.391 0.459229C17.736 0.191099 18.1162 0.00764084 18.5631 -0.00019923C18.9951 -0.0080393 19.3777 0.144058 19.7141 0.401213C20.5239 1.02058 21.373 1.57958 22.266 2.07036C23.0037 2.4757 23.7658 2.82928 24.5349 3.17189C24.7254 3.25657 24.9089 3.37652 25.0633 3.51607C25.3432 3.76774 25.3816 4.1276 25.2013 4.48354C25.0359 4.81047 24.7215 4.98295 24.3609 4.91631C24.1547 4.87789 23.9469 4.82145 23.754 4.73913C22.4346 4.17778 21.159 3.53097 19.9649 2.73363C19.5667 2.46786 19.1833 2.17856 18.796 1.89553C18.6117 1.76068 18.5765 1.75598 18.3938 1.89475C16.4377 3.38671 14.2825 4.50784 11.972 5.33968C10.3005 5.94179 8.58664 6.38711 6.84065 6.70463C6.15465 6.82929 5.46237 6.91788 4.77087 7.00648C3.88494 7.12016 2.99666 7.21737 2.10995 7.324C2.03625 7.33262 1.96413 7.35771 1.892 7.37574C1.84417 7.3875 1.82614 7.4173 1.84888 7.46277C1.87945 7.52314 1.90297 7.59056 1.94531 7.64152C2.59447 8.41769 2.98255 9.30911 3.12289 10.3071C3.16523 10.6066 3.18561 10.9116 3.18718 11.2142C3.19502 12.5298 3.18326 13.8462 3.19659 15.1617C3.20678 16.177 3.28596 17.1892 3.4067 18.1974C3.6419 20.1574 4.04488 22.0798 4.67601 23.9528C5.32517 25.8783 6.19777 27.6949 7.32125 29.3891C8.00569 30.4224 8.77323 31.3907 9.61525 32.3001C10.9614 33.7545 12.4745 35.0097 14.1398 36.0822C15.5055 36.9618 16.9449 37.7012 18.4385 38.3378C18.5475 38.384 18.6533 38.3825 18.7607 38.3362C20.4965 37.589 22.1562 36.7031 23.7141 35.629C24.9912 34.7478 26.1766 33.7576 27.257 32.6427C28.7787 31.0708 30.0379 29.3107 31.0437 27.3672C32.0559 25.4111 32.7748 23.3491 33.2688 21.2056C33.504 20.1849 33.6913 19.1555 33.8074 18.1151C33.8952 17.3279 33.9673 16.5369 34.0073 15.7458C34.0496 14.925 34.0567 14.1017 34.0575 13.2793C34.0583 12.6592 34.0206 12.0398 34.0081 11.4197C33.9924 10.6278 34.0692 9.84929 34.3625 9.10448C34.5153 8.7164 34.7239 8.36124 34.9779 8.03039C35.0947 7.87829 35.2013 7.71679 35.2986 7.55136C35.384 7.40475 35.3574 7.3632 35.1857 7.33968C35.0077 7.31616 34.8297 7.29734 34.651 7.28088C33.7713 7.19777 32.8862 7.157 32.0183 6.9806C30.9936 6.77284 29.9712 6.55254 28.9497 6.32831C28.1923 6.1621 27.4381 5.98099 26.6823 5.80851C25.9861 5.65014 25.7164 4.87319 26.1845 4.3581C26.4197 4.09938 26.7317 4.04058 27.0563 4.10643C27.6278 4.22246 28.1931 4.36594 28.7623 4.49138C29.9171 4.74461 31.0704 5.00804 32.2307 5.23619C32.8054 5.34908 33.3926 5.39848 33.9759 5.46276C34.4785 5.51843 34.9834 5.54744 35.4859 5.60232C36.386 5.70189 37.0281 6.33066 37.1621 7.22913C37.1661 7.25422 37.1755 7.27774 37.1825 7.30283C37.1825 7.4071 37.1825 7.51216 37.1825 7.61643C37.177 7.62819 37.1668 7.63917 37.1661 7.65093C37.119 8.05156 36.9418 8.39338 36.6768 8.6866C36.0559 9.37496 35.7815 10.1919 35.7721 11.1037C35.7596 12.3048 35.7658 13.5059 35.7564 14.7078C35.7494 15.6839 35.7141 16.66 35.6059 17.6298C35.5087 18.5008 35.3958 19.3711 35.2523 20.2358C35.0038 21.7262 34.6306 23.1868 34.1421 24.6176C33.4546 26.6325 32.5388 28.5361 31.3668 30.3158C30.3452 31.8674 29.1559 33.2793 27.8152 34.5643C26.5835 35.7443 25.2405 36.7815 23.7987 37.6933C22.3734 38.5941 20.876 39.3562 19.3252 40.014C19.2335 40.0532 19.1496 40.1104 19.0625 40.1598C18.7466 40.1598 18.433 40.1598 18.1202 40.1598Z" fill="#223B80"/>
<path d="M32.7597 12.481C32.7362 13.4532 32.7213 14.4261 32.6853 15.3983C32.6437 16.5304 32.5394 17.6578 32.3748 18.7782C32.0667 20.8762 31.5375 22.9146 30.7252 24.8762C30.2164 26.1055 29.5986 27.2776 28.8695 28.3909C28.646 28.7319 28.4289 29.0769 28.2078 29.4195C28.0384 29.6813 27.8205 29.8734 27.4967 29.9213C27.06 29.9855 26.5747 29.599 26.5433 29.16C26.5245 28.8997 26.6053 28.6723 26.7464 28.4599C27.0514 28.0004 27.3697 27.5496 27.6566 27.08C28.875 25.0886 29.7178 22.9444 30.2297 20.6676C30.4571 19.6547 30.6233 18.6315 30.7119 17.5982C30.777 16.8409 30.8224 16.082 30.8569 15.3223C30.9048 14.2787 30.944 13.2352 30.9675 12.1909C30.9832 11.4861 30.9651 10.7805 30.9651 10.0757C30.9651 10.0028 30.9416 9.97767 30.8695 9.96199C29.7194 9.71816 28.5629 9.49551 27.4206 9.21797C25.2803 8.69739 23.216 7.95572 21.2348 6.98982C20.3928 6.579 19.5727 6.12976 18.7777 5.63505C18.6578 5.55979 18.559 5.55508 18.4375 5.63192C16.4759 6.86594 14.3763 7.80048 12.1756 8.51706C10.7621 8.97728 9.32496 9.35203 7.86749 9.64525C7.36573 9.74639 6.86161 9.8342 6.35906 9.92749C6.225 9.95258 6.22029 9.95729 6.22108 10.0898C6.225 11.4383 6.21638 12.7868 6.23676 14.1353C6.2493 14.96 6.28615 15.7864 6.34809 16.6096C6.51273 18.7891 6.90552 20.9256 7.61426 22.9985C8.51665 25.6374 9.8871 28.0028 11.7593 30.0734C13.1494 31.6108 14.755 32.8848 16.5441 33.926C17.1635 34.2866 17.8087 34.601 18.4414 34.9381C18.5496 34.9954 18.6507 34.9883 18.7589 34.9366C20.4563 34.1196 22.051 33.1373 23.4896 31.9173C24.0212 31.4665 24.5198 30.975 25.0271 30.4951C25.2356 30.2984 25.4606 30.1478 25.7538 30.1345C26.0949 30.1188 26.4148 30.3219 26.5606 30.6378C26.7064 30.9546 26.6531 31.338 26.4006 31.5912C26.0761 31.9173 25.7382 32.2302 25.4018 32.5445C24.6554 33.2439 23.8714 33.897 23.0333 34.485C21.8981 35.2807 20.6986 35.9652 19.4504 36.5657C19.2364 36.6692 19.0231 36.7727 18.7832 36.8095C18.5057 36.8527 18.2438 36.8064 17.993 36.688C15.8706 35.6829 13.8965 34.4497 12.1294 32.8958C10.8491 31.7692 9.72089 30.5069 8.74715 29.1067C7.21755 26.9067 6.15914 24.492 5.46686 21.9103C5.19717 20.9052 4.96902 19.8907 4.82868 18.8597C4.715 18.0302 4.6319 17.1952 4.56682 16.3595C4.45941 14.9914 4.46255 13.6202 4.47274 12.2489C4.47666 11.7205 4.47745 11.1913 4.46569 10.6629C4.45863 10.3634 4.41865 10.0647 4.39983 9.7652C4.37239 9.33557 4.44452 8.93651 4.78243 8.63075C5.00587 8.42847 5.27949 8.33517 5.56878 8.28657C7.20266 8.01373 8.8232 7.68366 10.4179 7.23129C12.2846 6.70209 14.0745 5.98707 15.7797 5.06038C16.4383 4.70208 17.0945 4.33987 17.7515 3.97844C18.214 3.72443 18.6939 3.62251 19.1933 3.85222C19.4261 3.95963 19.6425 4.10389 19.862 4.23795C21.5343 5.2603 23.3054 6.07331 25.1564 6.71463C26.6241 7.22345 28.1215 7.6233 29.6441 7.92592C30.3371 8.06391 31.0373 8.16975 31.7303 8.30695C32.2791 8.41514 32.6515 8.7358 32.7566 9.30029C32.7981 9.52216 32.7864 9.75501 32.7848 9.98316C32.777 10.8158 32.7629 11.6476 32.7511 12.4802C32.7535 12.481 32.7566 12.481 32.7597 12.481Z" fill="#223B80"/>
<path d="M16.1317 25.6423C16.08 25.7544 16.0345 25.8815 15.9679 25.9951C15.7052 26.4412 15.3023 26.6843 14.7934 26.6913C13.5594 26.707 12.3254 26.7039 11.0914 26.6937C10.3254 26.6874 9.73033 26.0869 9.72327 25.3138C9.71151 24.0437 9.717 22.7736 9.71622 21.5036C9.71622 20.6999 9.71778 19.8971 9.71857 19.0935C9.71857 18.8975 9.75306 18.7101 9.85577 18.54C10.0345 18.2452 10.3865 18.0994 10.7464 18.1668C11.118 18.2366 11.372 18.489 11.4355 18.8614C11.4528 18.9634 11.4583 19.0692 11.4583 19.1727C11.4598 21.0433 11.4591 22.9148 11.4591 24.7854C11.4591 24.8309 11.4591 24.8756 11.4591 24.9297C12.4414 24.9297 13.4152 24.9297 14.396 24.9297C14.396 21.8422 14.396 18.7548 14.396 15.6596C14.3583 15.6572 14.3238 15.6541 14.2885 15.6541C13.3877 15.6541 12.4861 15.6556 11.5853 15.6517C11.4857 15.6509 11.4598 15.6792 11.4591 15.7779C11.4591 16.0618 11.4646 16.3471 11.4332 16.6278C11.3924 16.9916 11.1141 17.2699 10.7778 17.3303C10.3677 17.4032 10.0173 17.2644 9.8495 16.9336C9.77894 16.7956 9.73268 16.6309 9.72641 16.4773C9.70994 16.0696 9.71308 15.6611 9.72327 15.2534C9.73895 14.6129 10.1655 14.0798 10.7589 13.941C10.8287 13.9246 10.9001 13.9112 10.9714 13.9104C12.1364 13.9034 13.3023 13.8963 14.4673 13.8971C14.7041 13.8971 14.9471 13.905 15.1768 13.9567C15.5955 14.0516 15.8589 14.344 16.0361 14.7227C16.0486 14.7493 16.0596 14.776 16.0706 14.7995C16.0816 14.8011 16.0902 14.805 16.0941 14.8019C16.5582 14.5141 16.9847 14.1841 17.2905 13.7223C17.5351 13.3538 17.6582 12.9438 17.6715 12.5055C17.688 11.9606 17.6692 11.4149 17.6974 10.8708C17.7452 9.93239 18.2948 9.12643 19.2051 8.85046C19.8174 8.66465 20.4156 8.7407 20.9863 9.00569C21.8103 9.3875 22.3434 10.0241 22.5285 10.9171C22.5935 11.2299 22.5943 11.5584 22.6006 11.8806C22.6108 12.4287 22.6022 12.9775 22.6022 13.5263C22.6022 13.5451 22.6045 13.5639 22.6061 13.5961C22.6508 13.5961 22.6923 13.5961 22.7331 13.5961C23.8628 13.5961 24.9926 13.5961 26.1224 13.5961C26.6445 13.5961 27.1227 13.727 27.5281 14.0704C27.942 14.4208 28.1647 14.8748 28.2243 15.4079C28.265 15.7756 28.2635 16.1441 28.1898 16.5094C28.1302 16.8042 27.9922 17.0614 27.7993 17.2879C27.7358 17.3616 27.728 17.4314 27.7437 17.52C27.7852 17.7576 27.8221 17.9959 27.8597 18.2342C27.9303 18.689 27.8613 19.1241 27.677 19.5435C27.5837 19.7552 27.4881 19.9661 27.4003 20.1801C27.3815 20.2256 27.3783 20.2891 27.394 20.3354C27.5226 20.7266 27.5955 21.1233 27.5657 21.5373C27.5328 21.9936 27.3736 22.3981 27.0922 22.758C27.0608 22.798 27.0451 22.863 27.0483 22.9156C27.0788 23.3546 27.1329 23.7929 27.1463 24.2319C27.1792 25.3154 26.3576 26.1182 25.3611 26.2186C25.1251 26.2421 24.8852 26.2288 24.6469 26.2296C23.1776 26.2335 21.7084 26.2397 20.2392 26.2374C19.4951 26.2366 18.7511 26.2194 18.0063 26.21C17.6347 26.2052 17.2889 26.0861 16.9463 25.9575C16.6743 25.8571 16.4054 25.7497 16.1317 25.6423ZM21.7978 24.4891C21.7978 24.4898 21.7978 24.4898 21.7978 24.4891C22.8421 24.4898 23.8872 24.4906 24.9314 24.4883C25.0224 24.4883 25.1133 24.4773 25.2027 24.4608C25.3172 24.4397 25.3917 24.3636 25.4034 24.2491C25.4175 24.1104 25.4183 23.9693 25.4199 23.8297C25.4215 23.6768 25.3368 23.5922 25.1917 23.5553C25.0561 23.5208 24.9181 23.4894 24.7888 23.4385C24.2596 23.2284 24.0808 22.5463 24.4336 22.0978C24.6045 21.8807 24.8397 21.7897 25.1055 21.7654C25.2545 21.7521 25.405 21.7458 25.5532 21.7278C25.6731 21.7129 25.7531 21.6376 25.7633 21.5161C25.7766 21.3609 25.7797 21.2041 25.775 21.0488C25.7727 20.9665 25.7225 20.9007 25.6402 20.8724C25.5265 20.8332 25.412 20.7948 25.2968 20.7619C25.0741 20.6968 24.8805 20.5894 24.7503 20.391C24.3975 19.8564 24.7441 19.1304 25.3948 19.0433C25.5657 19.0206 25.739 19.0222 25.9107 19.0018C26.0408 18.9861 26.0941 18.9281 26.1129 18.8003C26.1255 18.7164 26.1325 18.6317 26.1341 18.5471C26.1396 18.2005 26.0816 18.1417 25.7539 18.0328C25.5806 17.9747 25.4097 17.8877 25.2639 17.7787C25.0271 17.6 24.9173 17.3483 24.9761 17.0457C25.0459 16.6811 25.3493 16.3879 25.7366 16.3228C25.8989 16.2954 26.0675 16.3087 26.2337 16.3009C26.3787 16.2938 26.4469 16.2413 26.4658 16.0994C26.4838 15.9614 26.4908 15.8195 26.4861 15.6807C26.4783 15.4479 26.396 15.3585 26.1616 15.3554C25.3454 15.3452 24.53 15.3444 23.7139 15.3413C23.0545 15.3389 22.3952 15.3444 21.7358 15.3326C21.2537 15.324 20.9652 15.0684 20.8797 14.5957C20.8593 14.4843 20.8538 14.3683 20.8538 14.2546C20.8507 13.3569 20.8515 12.4592 20.8499 11.5616C20.8491 11.0127 20.5073 10.6129 19.9648 10.522C19.706 10.4788 19.5296 10.5878 19.4661 10.8426C19.4418 10.9398 19.4332 11.0425 19.4316 11.1421C19.4277 11.4879 19.4356 11.8344 19.4285 12.1801C19.4222 12.4538 19.4183 12.7297 19.383 13.0002C19.2427 14.0555 18.7582 14.9328 17.942 15.6078C17.4755 15.9935 16.9753 16.3409 16.4704 16.6772C16.2439 16.8285 16.1639 16.99 16.1662 17.2597C16.1819 18.6404 16.178 20.0218 16.1772 21.4024C16.1764 21.9834 16.1655 22.5643 16.16 23.1453C16.1568 23.4283 16.2658 23.6517 16.5096 23.8038C16.5982 23.8587 16.6868 23.9144 16.777 23.9661C17.2984 24.2586 17.8503 24.4569 18.4508 24.4906C18.7268 24.5063 19.0051 24.4891 19.2819 24.4891C20.12 24.4891 20.9589 24.4891 21.7978 24.4891Z" fill="#223B80"/>
</g>
<defs>
<clipPath id="clip0_200_550">
<rect width="37.1808" height="40.16" fill="white"/>
</clipPath>
</defs>
</svg>
