<svg width="45" height="40" viewBox="0 0 45 40" fill="none" xmlns="http://www.w3.org/2000/svg">
<path d="M44.0807 29.0184C44.0508 29.08 44.0134 29.1391 43.9959 29.2032C43.5921 30.6324 42.4727 31.4826 40.9568 31.485C36.4244 31.4875 31.8894 31.4875 27.3569 31.4875C27.1849 31.4875 27.0154 31.4875 26.8109 31.4875C26.8109 32.4732 26.8109 33.4416 26.8109 34.4667C27.6162 34.4667 28.4314 34.4322 29.2417 34.4791C29.7179 34.5062 30.2265 34.5776 30.6528 34.7748C31.7448 35.2775 32.3107 36.1794 32.3681 37.3721C32.393 37.8945 32.3756 38.4218 32.3731 38.9467C32.3706 39.7007 32.0689 39.9989 31.2985 39.9989C25.4297 39.9989 19.5635 39.9989 13.6947 39.9989C13.3656 39.9989 13.034 40.0014 12.7049 39.9989C12.0492 39.9915 11.7201 39.6736 11.7126 39.0354C11.7077 38.4834 11.7027 37.929 11.7151 37.377C11.7525 35.7826 13.0489 34.5012 14.667 34.4717C15.5271 34.4569 16.3847 34.4692 17.3072 34.4692C17.3072 33.9591 17.3072 33.4687 17.3072 32.9784C17.3072 32.4978 17.3072 32.0198 17.3072 31.49C17.1077 31.49 16.9407 31.49 16.7737 31.49C12.2686 31.49 7.76355 31.49 3.2585 31.49C1.26151 31.485 0 30.2455 0 28.2791C0 19.9279 0 11.5742 0 3.22293C0 1.2417 1.24905 0.00220151 3.24105 0.00220151C8.12007 0.00220151 12.9966 0.00220151 17.8756 0.00220151C18.0202 0.00220151 18.1648 -0.00519114 18.3044 0.0145226C18.7332 0.0736638 19.0299 0.408797 19.0399 0.827714C19.0499 1.26634 18.7557 1.62612 18.3144 1.69265C18.1598 1.71483 18.0003 1.70498 17.8407 1.70498C12.9916 1.70498 8.1425 1.70498 3.2934 1.70498C2.20142 1.70498 1.72274 2.17564 1.72274 3.25743C1.72274 10.2336 1.72274 17.2123 1.72274 24.1885C1.72274 24.329 1.72274 24.4719 1.72274 24.6468C15.2578 24.6468 28.778 24.6468 42.358 24.6468C42.358 24.5113 42.358 24.361 42.358 24.2107C42.358 17.2197 42.358 10.2287 42.358 3.23772C42.358 2.1855 41.8718 1.70498 40.8098 1.70498C36.003 1.70498 31.1963 1.70498 26.3921 1.70498C26.2774 1.70498 26.1627 1.70744 26.048 1.70498C25.4696 1.69265 25.0707 1.34027 25.0782 0.844964C25.0857 0.349656 25.4796 0.00466573 26.0655 0.00466573C31.0742 -0.000262708 36.0803 -0.00272692 41.0865 0.00466573C42.4402 0.00712994 43.5746 0.876999 43.9635 2.15839C43.9959 2.26435 44.0408 2.36539 44.0782 2.46888C44.0807 11.3179 44.0807 20.1694 44.0807 29.0184ZM42.3555 26.4112C28.7805 26.4112 15.2628 26.4112 1.72274 26.4112C1.72274 27.0076 1.72274 27.5719 1.72274 28.1386C1.72274 29.3436 2.16402 29.7872 3.36819 29.7872C15.8188 29.7872 28.2694 29.7872 40.72 29.7872C40.8646 29.7872 41.0067 29.7946 41.1513 29.7823C41.797 29.7305 42.3231 29.2377 42.3505 28.5994C42.3779 27.8774 42.3555 27.1554 42.3555 26.4112ZM13.4628 38.2641C19.1995 38.2641 24.9137 38.2641 30.6503 38.2641C30.6503 38.0793 30.6503 37.924 30.6503 37.7688C30.6503 36.6254 30.1916 36.167 29.0423 36.167C27.4492 36.167 25.8561 36.172 24.2655 36.1646C23.712 36.1621 23.3355 35.8023 23.3355 35.3144C23.3355 34.8265 23.7145 34.4815 24.2704 34.4667C24.5222 34.4593 24.7765 34.4667 25.0209 34.4667C25.0209 33.4416 25.0209 32.4732 25.0209 31.5121C23.0139 31.5121 21.0394 31.5121 19.0574 31.5121C19.0574 32.5052 19.0574 33.4737 19.0574 34.4667C19.1995 34.4667 19.3116 34.4667 19.4238 34.4667C19.5535 34.4667 19.6831 34.4643 19.8103 34.4667C20.3637 34.4815 20.7427 34.829 20.7452 35.3144C20.7452 35.7999 20.3662 36.1621 19.8153 36.1646C18.3368 36.172 16.8584 36.2163 15.3825 36.1547C13.7495 36.0882 13.3082 36.7659 13.4404 38.1951C13.4429 38.2074 13.4478 38.2197 13.4628 38.2641Z" fill="#223B80"/>
<path d="M22.0204 8.51103C17.6749 8.51103 13.3294 8.51103 8.98388 8.51103C8.10879 8.51103 7.83705 8.2375 7.83705 7.36024C7.83705 6.38194 7.83455 5.40365 7.83705 4.42535C7.83954 3.72305 8.15367 3.40517 8.85673 3.40517C17.6474 3.4027 26.4382 3.4027 35.2289 3.40517C35.9319 3.40517 36.2461 3.72305 36.2486 4.42535C36.251 5.41843 36.251 6.40905 36.2486 7.40213C36.2486 8.2375 35.9643 8.50856 35.0992 8.50856C30.7388 8.51103 26.3783 8.51103 22.0204 8.51103ZM34.5059 5.13751C26.1714 5.13751 17.8743 5.13751 9.57724 5.13751C9.57724 5.70182 9.57724 6.23409 9.57724 6.78607C17.8943 6.78607 26.1913 6.78607 34.5059 6.78607C34.5059 6.22916 34.5059 5.69689 34.5059 5.13751Z" fill="#223B80"/>
<path d="M33.7048 22.1258C31.7826 22.1258 29.863 22.1258 27.9408 22.1258C27.1704 22.1258 26.8612 21.8276 26.8612 21.0785C26.8588 17.806 26.8588 14.5311 26.8612 11.2586C26.8612 10.5243 27.1679 10.2138 27.8984 10.2138C31.7976 10.2113 35.6993 10.2113 39.5986 10.2138C40.329 10.2138 40.6357 10.5243 40.6357 11.2586C40.6382 14.5311 40.6382 17.806 40.6357 21.0785C40.6357 21.8252 40.3265 22.1233 39.5562 22.1233C37.6066 22.1282 35.6569 22.1258 33.7048 22.1258ZM36.7639 11.9362C36.7639 12.7322 36.7664 13.5084 36.7639 14.2822C36.7614 15.0067 36.4498 15.3147 35.7168 15.3172C34.4702 15.3196 33.2212 15.3172 31.9746 15.3172C30.9774 15.3172 30.7405 15.0781 30.7405 14.0826C30.7405 13.3655 30.7405 12.6484 30.7405 11.9338C29.9951 11.9338 29.312 11.9338 28.6114 11.9338C28.6114 14.7652 28.6114 17.5768 28.6114 20.3959C32.0544 20.3959 35.4725 20.3959 38.888 20.3959C38.888 17.5571 38.888 14.7455 38.888 11.9338C38.17 11.9362 37.4869 11.9362 36.7639 11.9362ZM35.0162 13.5971C35.0162 13.0353 35.0162 12.4932 35.0162 11.9436C34.1561 11.9436 33.3209 11.9436 32.4907 11.9436C32.4907 12.5153 32.4907 13.0575 32.4907 13.5971C33.3483 13.5971 34.1735 13.5971 35.0162 13.5971Z" fill="#223B80"/>
<path d="M18.2482 12.7942C18.2482 13.3314 18.2557 13.8711 18.2457 14.4083C18.2333 14.9726 17.8992 15.3102 17.3332 15.3176C16.2163 15.3274 15.0994 15.3274 13.9825 15.3176C13.439 15.3127 13.0925 14.9726 13.0875 14.4403C13.075 13.3216 13.075 12.2028 13.0875 11.0865C13.0925 10.574 13.4365 10.229 13.9526 10.2241C15.0969 10.2117 16.2438 10.2093 17.3881 10.2241C17.8992 10.2314 18.2308 10.5814 18.2432 11.0988C18.2582 11.6607 18.2482 12.2275 18.2482 12.7942ZM14.8202 13.5828C15.416 13.5828 15.9645 13.5828 16.503 13.5828C16.503 13.016 16.503 12.4837 16.503 11.9416C15.9296 11.9416 15.3811 11.9416 14.8202 11.9416C14.8202 12.501 14.8202 13.0333 14.8202 13.5828Z" fill="#223B80"/>
<path d="M25.1401 12.7843C25.1401 13.3092 25.1451 13.8316 25.1376 14.3565C25.1301 14.975 24.8035 15.3126 24.1927 15.3175C23.1057 15.3249 22.0162 15.3249 20.9267 15.3175C20.3109 15.3126 19.9793 14.9775 19.9744 14.3614C19.9669 13.2993 19.9669 12.2372 19.9744 11.1776C19.9769 10.5394 20.3084 10.2191 20.9616 10.2166C22.0212 10.2117 23.0808 10.2117 24.1403 10.2166C24.8135 10.2191 25.1301 10.5419 25.1351 11.2146C25.1426 11.737 25.1401 12.2594 25.1401 12.7843ZM23.3974 11.9366C22.809 11.9366 22.2705 11.9366 21.7195 11.9366C21.7195 12.5009 21.7195 13.043 21.7195 13.5852C22.2954 13.5852 22.8439 13.5852 23.3974 13.5852C23.3974 13.0258 23.3974 12.4935 23.3974 11.9366Z" fill="#223B80"/>
<path d="M13.0847 19.5439C13.0847 19.0067 13.0772 18.467 13.0872 17.9298C13.0972 17.3655 13.4313 17.0279 13.9997 17.023C15.1166 17.0132 16.2335 17.0132 17.3504 17.023C17.8939 17.0279 18.2405 17.368 18.2455 17.9027C18.2579 19.0215 18.2579 20.1403 18.2455 21.2565C18.2405 21.7691 17.8939 22.1141 17.3779 22.119C16.246 22.1338 15.1141 22.1313 13.9847 22.119C13.4238 22.1141 13.0972 21.7666 13.0872 21.1974C13.0772 20.6479 13.0847 20.0959 13.0847 19.5439ZM14.8299 18.7406C14.8299 19.3221 14.8299 19.8544 14.8299 20.399C15.4008 20.399 15.9493 20.399 16.5003 20.399C16.5003 19.8298 16.5003 19.2876 16.5003 18.7406C15.9319 18.7406 15.3933 18.7406 14.8299 18.7406Z" fill="#223B80"/>
<path d="M25.1392 19.5953C25.1392 20.1201 25.1442 20.6425 25.1367 21.1674C25.1292 21.7835 24.8001 22.1211 24.1868 22.1235C23.0998 22.1309 22.0103 22.1309 20.9209 22.1235C20.3075 22.1186 19.9785 21.781 19.9735 21.165C19.9685 20.1029 19.966 19.0408 19.9735 17.9812C19.976 17.3627 20.3075 17.03 20.9233 17.0251C22.0103 17.0177 23.0998 17.0177 24.1893 17.0251C24.8026 17.03 25.1292 17.3651 25.1367 17.9837C25.1442 18.5209 25.1392 19.0581 25.1392 19.5953ZM23.394 20.406C23.394 19.8244 23.394 19.2922 23.394 18.7476C22.8231 18.7476 22.2746 18.7476 21.7261 18.7476C21.7261 19.3168 21.7261 19.8589 21.7261 20.406C22.2946 20.406 22.8331 20.406 23.394 20.406Z" fill="#223B80"/>
<path d="M9.6444 16.1721C9.6444 14.558 9.6444 12.9439 9.6444 11.3299C9.6444 11.2017 9.63692 11.0736 9.65687 10.9479C9.72169 10.5191 10.0957 10.2062 10.522 10.216C10.9333 10.2234 11.2874 10.529 11.3522 10.9405C11.3746 11.0785 11.3646 11.2239 11.3646 11.3644C11.3646 14.5654 11.3646 17.7664 11.3646 20.965C11.3646 21.0487 11.3671 21.135 11.3646 21.2188C11.3422 21.7584 10.9782 22.1305 10.4871 22.1207C10.0109 22.1108 9.65687 21.7461 9.64689 21.2262C9.63443 20.5313 9.6444 19.8388 9.6444 19.1439C9.6444 18.1558 9.6444 17.1651 9.6444 16.1721Z" fill="#223B80"/>
<path d="M5.67063 11.9141C5.22686 11.9141 4.78308 11.9239 4.3418 11.9116C3.82074 11.8968 3.45426 11.5445 3.44927 11.0713C3.44428 10.6007 3.80828 10.2261 4.32435 10.2162C5.22437 10.2015 6.12687 10.2039 7.02689 10.2162C7.54795 10.2236 7.91443 10.5834 7.91942 11.0541C7.92441 11.5395 7.54795 11.8993 7.00195 11.9116C6.55818 11.9215 6.11441 11.9141 5.67063 11.9141Z" fill="#223B80"/>
<path d="M5.66561 15.3169C5.22183 15.3169 4.77806 15.3268 4.33678 15.3145C3.81572 15.2997 3.45172 14.9424 3.44923 14.4692C3.44674 13.9986 3.81323 13.6289 4.33179 13.6215C5.23181 13.6092 6.13431 13.6092 7.03433 13.6215C7.55289 13.6289 7.91938 13.9936 7.92187 14.4643C7.92437 14.935 7.55788 15.2898 7.03931 15.3169C7.01189 15.3194 6.98197 15.3169 6.95455 15.3169C6.52324 15.3169 6.09442 15.3169 5.66561 15.3169Z" fill="#223B80"/>
<path d="M5.64097 18.7209C5.21215 18.7209 4.78334 18.7307 4.35452 18.7184C3.81102 18.7036 3.43706 18.3364 3.44952 17.8485C3.46199 17.3779 3.82847 17.0304 4.35452 17.023C5.24207 17.0132 6.12712 17.0132 7.01467 17.023C7.54072 17.0304 7.90721 17.3803 7.91967 17.8485C7.93214 18.334 7.55568 18.7036 7.01467 18.7184C6.55594 18.7307 6.09721 18.7209 5.64097 18.7209Z" fill="#223B80"/>
<path d="M5.67318 22.1261C5.24437 22.1261 4.81555 22.1335 4.38674 22.1237C3.83327 22.1138 3.45681 21.7713 3.44933 21.2858C3.44185 20.8004 3.81831 20.4332 4.3643 20.4283C5.25185 20.4184 6.1369 20.4184 7.02445 20.4283C7.54551 20.4357 7.91449 20.793 7.91948 21.2637C7.92696 21.7491 7.548 22.1114 7.00451 22.1237C6.56073 22.1335 6.11696 22.1261 5.67318 22.1261Z" fill="#223B80"/>
<path d="M22.9134 0.854342C22.9109 1.32254 22.5494 1.68971 22.0832 1.69957C21.612 1.70943 21.2031 1.31269 21.2031 0.849414C21.2056 0.386141 21.617 -0.00813362 22.0882 0.00418746C22.5544 0.0165085 22.9134 0.386141 22.9134 0.854342Z" fill="#223B80"/>
<path d="M32.6618 17.8828C32.6693 17.417 32.3028 17.0351 31.8341 17.0228C31.3679 17.0104 30.979 17.3751 30.9615 17.8384C30.9441 18.3214 31.328 18.7206 31.8117 18.7206C32.2779 18.7206 32.6543 18.3485 32.6618 17.8828ZM35.6934 18.7206C36.1621 18.7157 36.5336 18.3436 36.5361 17.8754C36.5386 17.4072 36.1696 17.0326 35.7009 17.0228C35.2173 17.0129 34.8258 17.4047 34.8358 17.8877C34.8458 18.3534 35.2272 18.7231 35.6934 18.7206Z" fill="#223B80"/>
<path d="M32.6617 17.8828C32.6542 18.3485 32.2777 18.7206 31.8115 18.7206C31.3303 18.7206 30.9464 18.3214 30.9614 17.8384C30.9788 17.3751 31.3677 17.0104 31.8339 17.0228C32.3027 17.0351 32.6666 17.417 32.6617 17.8828Z" fill="#223B80"/>
<path d="M35.6938 18.72C35.2275 18.7249 34.8461 18.3528 34.8361 17.8895C34.8262 17.4066 35.2176 17.0147 35.7012 17.0246C36.1699 17.032 36.5389 17.409 36.5364 17.8772C36.5339 18.343 36.16 18.715 35.6938 18.72Z" fill="#223B80"/>
</svg>
