<svg width="38" height="41" viewBox="0 0 38 41" fill="none" xmlns="http://www.w3.org/2000/svg">
<path d="M28.6593 34.9805C30.2232 33.9225 31.5224 32.6454 32.5985 31.0849C32.2291 30.8603 31.8611 30.6351 31.4917 30.4118C31.1648 30.214 30.819 30.0415 30.5129 29.8158C30.0987 29.5113 30.2157 28.5961 30.695 28.3376C31.0384 28.1524 31.3559 28.1919 31.671 28.379C32.2343 28.7141 32.7943 29.0553 33.3552 29.3938C33.5005 29.4817 33.6033 29.4074 33.6524 29.2833C33.8883 28.6868 34.1241 28.0894 34.3383 27.485C34.4921 27.0516 34.6181 26.6074 34.7454 26.1651C34.8011 25.9715 34.8388 25.7712 34.8676 25.5715C34.9195 25.211 34.9558 24.8481 35.0039 24.4871C35.0205 24.364 35.0539 24.2432 35.0775 24.121C35.1271 23.861 35.0884 23.8098 34.8266 23.8089C34.2449 23.8065 33.6623 23.8262 33.0816 23.7995C32.8353 23.7882 32.5768 23.7172 32.3536 23.611C32.0847 23.4827 31.9541 23.0263 31.9946 22.7503C32.0333 22.4876 32.1244 22.2493 32.3485 22.1398C32.5895 22.0218 32.8716 21.9475 33.1405 21.932C33.6812 21.901 34.2246 21.9236 34.7671 21.9222C35.0917 21.9212 35.1327 21.8662 35.0832 21.5419C35.0176 21.1128 34.9794 20.678 34.8907 20.2535C34.7695 19.6721 34.6284 19.094 34.4652 18.5229C34.3331 18.0613 34.1656 17.6082 33.9935 17.1593C33.8958 16.9046 33.7651 16.6606 33.6344 16.42C33.5769 16.3147 33.4934 16.2653 33.3519 16.3509C32.7466 16.718 32.1428 17.0902 31.5172 17.4221C30.9856 17.7041 30.3529 17.2961 30.2756 16.7518C30.2001 16.2235 30.3978 15.9565 30.9101 15.6571C31.4314 15.3525 31.9541 15.0508 32.4739 14.7438C32.5173 14.7185 32.5438 14.6653 32.5773 14.6263C31.8772 13.6097 31.0827 12.6908 30.152 11.8964C29.7307 11.5368 29.2811 11.2106 28.8405 10.8746C28.7164 10.7801 28.6131 10.7453 28.5074 10.9375C28.198 11.5025 27.8635 12.0539 27.538 12.6104C27.2134 13.1655 26.4954 13.2341 26.0675 12.7965C25.8387 12.5624 25.759 12.0064 25.9227 11.7145C26.2511 11.1298 26.5803 10.5455 26.92 9.96739C26.9978 9.83484 27.0068 9.78267 26.8459 9.71687C26.2784 9.48514 25.7288 9.20641 25.1519 9.00148C24.6891 8.83697 24.1999 8.74014 23.7168 8.63956C23.2526 8.54273 22.7818 8.47834 22.3129 8.40313C22.0576 8.36224 21.801 8.32887 21.5128 8.2875C21.5128 8.67105 21.5128 8.9902 21.5128 9.30935C21.5123 9.74789 21.4934 10.1874 21.5156 10.625C21.5416 11.1345 20.9066 11.5237 20.4145 11.4132C19.8989 11.2971 19.672 10.8515 19.68 10.4153C19.6904 9.83578 19.6828 9.25624 19.6828 8.67669C19.6828 8.30301 19.6097 8.2546 19.2319 8.33075C18.8662 8.40454 18.4959 8.45765 18.128 8.52111C17.6538 8.60289 17.1783 8.67669 16.707 8.77117C16.3844 8.83603 16.0758 8.75894 15.8239 8.60336C15.389 8.33451 15.1394 7.90725 15.1479 7.3874C15.1578 6.77213 15.6135 6.11925 16.3428 6.00551C16.7547 5.94111 17.1552 5.8048 17.5642 5.71691C17.7312 5.68118 17.9128 5.70939 18.0779 5.66896C18.1657 5.64781 18.2912 5.5477 18.2983 5.47343C18.3242 5.19517 18.3086 4.91315 18.3086 4.59823C18.0973 4.59823 17.9039 4.59494 17.7105 4.5987C16.6641 4.62033 15.9206 4.13854 15.5088 3.20036C15.2984 2.72046 15.2889 2.20202 15.4376 1.67323C15.5918 1.12612 15.8918 0.71155 16.3532 0.40133C16.7193 0.155974 17.126 0.00885476 17.5685 0.00744467C19.589 0.00133427 21.6095 -0.00712628 23.63 0.0107349C24.4551 0.0177853 25.2967 0.507087 25.6807 1.36113C26.1685 2.44643 25.7703 3.61258 24.875 4.23349C24.548 4.46051 24.1518 4.61892 23.7196 4.60011C23.4696 4.58883 23.2186 4.59823 22.9493 4.59823C22.9493 4.96157 22.9493 5.3014 22.9493 5.64546C23.1748 5.6887 23.4017 5.73524 23.6295 5.77613C24.3848 5.91103 25.1382 6.05063 25.8586 6.32701C26.4365 6.54839 27.0177 6.76131 27.5974 6.97753C28.5221 7.32206 29.3722 7.80948 30.1774 8.36882C30.7884 8.79326 31.37 9.26094 31.9536 9.72298C32.0956 9.83578 32.1942 9.82826 32.3041 9.71076C32.5254 9.4748 32.7461 9.23791 32.9584 8.99396C32.9872 8.96059 32.991 8.86047 32.9631 8.83039C32.6471 8.48445 32.6235 8.06236 32.7004 7.64732C32.7409 7.42829 32.8806 7.2022 33.0358 7.03487C33.4665 6.56907 33.9241 6.12771 34.3789 5.68494C34.9016 5.17637 35.7852 5.17872 36.323 5.73994C36.7527 6.18835 37.2 6.62031 37.6401 7.05884C38.0331 7.44991 38.1383 8.22687 37.7868 8.65648C37.382 9.15142 36.9211 9.60218 36.4692 10.0567C36.3013 10.2259 36.106 10.3848 35.8941 10.4905C35.4611 10.7068 35.0214 10.6842 34.6171 10.3965C34.4067 10.2471 34.2534 10.2978 34.0906 10.4793C33.9095 10.6809 33.6958 10.8529 33.5127 11.0527C33.4759 11.0931 33.4821 11.2233 33.5203 11.2741C34.0869 12.0294 34.6912 12.7584 35.2266 13.5349C35.7521 14.2968 36.188 15.1161 36.5329 15.9791C36.6994 16.396 36.9027 16.7993 37.0457 17.2237C37.1948 17.6665 37.2919 18.1271 37.4094 18.5802C37.5118 18.9751 37.6269 19.3671 37.7061 19.7666C37.7708 20.0928 37.7887 20.4275 37.8312 20.7584C37.9585 21.7459 37.9967 22.7386 37.942 23.7313C37.9132 24.2502 37.8184 24.7658 37.751 25.2829C37.717 25.5442 37.6981 25.8102 37.6368 26.0655C37.4674 26.7691 37.2891 27.4713 37.0957 28.1689C36.7702 29.3421 36.2428 30.4325 35.6432 31.4849C35.0794 32.4739 34.4001 33.3853 33.6543 34.2487C32.8645 35.1639 31.9805 35.9808 31.0087 36.691C30.2959 37.2118 29.542 37.687 28.766 38.1091C28.0399 38.5044 27.2766 38.8442 26.5016 39.1323C25.8265 39.3833 25.1184 39.5568 24.4131 39.7114C23.739 39.8595 23.0488 39.9318 22.3676 40.0498C21.3142 40.2327 20.2532 40.1481 19.1984 40.1161C18.5337 40.0959 17.8723 39.9328 17.2113 39.8209C16.8604 39.7617 16.5131 39.679 16.1659 39.5995C15.6626 39.4844 15.1385 38.9626 15.1182 38.3497C15.0932 37.5934 15.5461 37.0534 16.1895 36.8818C16.4433 36.8141 16.7438 36.887 17.0165 36.9345C17.3444 36.9913 17.6609 37.1145 17.9893 37.1638C18.4681 37.2353 18.9535 37.2616 19.4352 37.3161C19.6295 37.3382 19.6838 37.2531 19.6828 37.0769C19.6786 36.4503 19.6795 35.8238 19.6828 35.1972C19.6847 34.8066 19.8225 34.4832 20.1914 34.3037C20.4645 34.1707 20.7561 34.1622 21.0259 34.3037C21.3109 34.4527 21.5151 34.6694 21.5118 35.0271C21.5052 35.7321 21.5175 36.4372 21.5052 37.1417C21.5015 37.3528 21.551 37.4496 21.7784 37.4129C22.2468 37.3373 22.7181 37.2781 23.1851 37.1958C23.5578 37.1305 23.931 37.0595 24.2947 36.9575C24.7065 36.8419 25.1104 36.6962 25.5128 36.5504C25.9081 36.4071 26.2963 36.244 26.6903 36.0964C27.011 35.9761 27.0294 35.9577 26.869 35.6677C26.5662 35.1183 26.2699 34.5641 25.9369 34.0325C25.6076 33.507 25.9081 32.8132 26.4987 32.699C27.1596 32.5712 27.3663 32.8184 27.6394 33.296C27.931 33.805 28.2258 34.3122 28.5221 34.8184C28.5598 34.8748 28.6108 34.9223 28.6593 34.9805ZM21.0623 5.45886C21.0623 5.35968 21.0623 5.27508 21.0623 5.19094C21.0623 4.47885 21.0618 3.76628 21.0623 3.05418C21.0627 2.7402 21.0637 2.73973 21.3675 2.73973C21.9567 2.73926 22.5459 2.73973 23.1351 2.73973C23.2767 2.73973 23.4182 2.74349 23.5592 2.73738C23.9593 2.71999 24.1305 2.40272 23.9168 2.06571C23.8003 1.8824 23.6045 1.86454 23.4069 1.86454C21.6708 1.86407 19.9343 1.86266 18.1982 1.86219C18.0331 1.86219 17.8661 1.85043 17.7038 1.87159C17.4911 1.89932 17.2859 1.97734 17.2245 2.20954C17.1538 2.47699 17.3661 2.73174 17.6576 2.73456C18.3959 2.74208 19.1347 2.74725 19.873 2.73503C20.1041 2.73127 20.1933 2.78627 20.1834 3.0335C20.1636 3.5181 20.1758 4.00411 20.1754 4.48919C20.1749 4.80787 20.1754 5.12655 20.1754 5.45933C20.4778 5.45886 20.749 5.45886 21.0623 5.45886ZM35.3436 8.50466C35.4564 8.40595 35.5347 8.34344 35.6068 8.27387C35.9559 7.93639 35.9559 7.91571 35.629 7.57212C35.3587 7.28822 35.3587 7.28869 35.0752 7.56883C34.9931 7.64967 34.9035 7.72441 34.8313 7.81371C34.7992 7.85367 34.7723 7.95002 34.794 7.97211C34.9714 8.15684 35.161 8.33028 35.3436 8.50466Z" fill="#223B80"/>
<path d="M17.3047 22.3039C17.3056 21.0851 17.8845 20.3044 18.8898 19.7902C19.8772 19.2849 20.8622 18.7749 21.8444 18.2593C22.5765 17.8748 23.2988 17.4725 24.0309 17.0885C24.8367 16.6659 25.649 16.2556 26.4576 15.8377C26.7445 15.6897 27.019 15.5148 27.3143 15.3865C27.8252 15.1646 28.3427 15.4025 28.5395 15.9355C28.6933 16.3515 28.5206 16.672 28.2725 16.9634C27.67 17.6708 27.0497 18.3637 26.4397 19.0645C25.9194 19.6624 25.4042 20.2645 24.8857 20.8642C23.9734 21.919 23.0695 22.9808 22.1425 24.0228C21.7816 24.4285 21.3108 24.6907 20.7782 24.8308C20.5164 24.8999 20.2564 25.0259 19.9941 25.0301C19.4384 25.039 18.9431 24.8139 18.4949 24.4943C17.7222 23.9425 17.3217 23.1937 17.3047 22.3039ZM23.5648 19.5152C23.562 19.4993 23.5592 19.4833 23.5559 19.4668C23.4993 19.48 23.4379 19.4833 23.3875 19.5082C23.1964 19.6022 23.0086 19.7028 22.8199 19.802C22.1472 20.1554 21.474 20.5089 20.8018 20.8638C20.4494 21.0499 20.106 21.2544 19.7451 21.4217C19.2648 21.6445 19.187 21.7512 19.1903 22.2339C19.1926 22.5883 19.4318 22.7824 19.68 22.9399C19.947 23.1091 20.264 23.1091 20.5192 22.9004C20.7574 22.7053 20.9721 22.4774 21.1764 22.2456C21.9769 21.3394 22.7695 20.4262 23.5648 19.5152Z" fill="#223B80"/>
<path d="M7.11135 26.0327C5.05216 26.0327 2.99296 26.0238 0.933759 26.0402C0.513427 26.0435 -0.0493729 25.5176 0.00346337 25.0499C0.0529973 24.6137 0.466252 24.1596 0.967725 24.162C3.19958 24.1714 5.43192 24.1648 7.66378 24.1643C9.52625 24.1639 11.3892 24.1728 13.2517 24.1582C13.7673 24.1545 14.2169 24.5892 14.2424 25.0588C14.2688 25.5396 13.7829 26.0473 13.2644 26.0426C11.2132 26.0247 9.16206 26.0351 7.11041 26.0351C7.11135 26.0346 7.11135 26.0336 7.11135 26.0327Z" fill="#223B80"/>
<path d="M8.45929 21.445C6.85675 21.445 5.25373 21.429 3.65119 21.4534C3.09358 21.4619 2.74071 21.1028 2.66334 20.5886C2.59258 20.1171 3.06197 19.6283 3.60024 19.6241C4.64517 19.6156 5.6901 19.6189 6.73456 19.6184C8.32154 19.6179 9.90851 19.6189 11.4955 19.6194C12.1083 19.6194 12.7225 19.5963 13.3334 19.6283C13.9708 19.6612 14.2387 20.0682 14.2321 20.6154C14.2274 20.9928 13.8802 21.4581 13.3613 21.452C11.7276 21.4337 10.0934 21.445 8.45929 21.445Z" fill="#223B80"/>
<path d="M8.47224 28.7571C10.0908 28.7571 11.7089 28.7571 13.3275 28.7571C13.9625 28.7571 14.3607 29.3047 14.1677 29.9134C14.0153 30.3943 13.7601 30.5785 13.2539 30.579C10.2295 30.5809 7.20512 30.5856 4.18071 30.5832C3.88539 30.5827 3.58819 30.555 3.2957 30.5132C2.91877 30.4596 2.61025 29.9571 2.69894 29.5181C2.76404 29.1971 2.92019 28.9748 3.19239 28.8375C3.32212 28.7722 3.48959 28.7614 3.64056 28.7609C5.25112 28.7553 6.86168 28.7571 8.47224 28.7571Z" fill="#223B80"/>
<path d="M9.77078 35.118C8.58385 35.118 7.39692 35.1194 6.20952 35.117C5.86184 35.1165 5.45331 34.882 5.39575 34.5849C5.3264 34.2258 5.25894 33.8197 5.60615 33.5523C5.77787 33.4202 6.01941 33.3097 6.23028 33.3074C8.01445 33.2881 9.79861 33.2966 11.5828 33.2952C12.1328 33.2947 12.6834 33.2895 13.2334 33.2891C13.5882 33.2886 13.8981 33.4038 14.0873 33.7135C14.2637 34.0026 14.3199 34.3274 14.1326 34.6319C13.9698 34.8975 13.7613 35.1208 13.4019 35.1198C12.1913 35.1156 10.9808 35.1184 9.76984 35.1184C9.77078 35.1184 9.77078 35.118 9.77078 35.118Z" fill="#223B80"/>
<path d="M9.78404 16.9126C8.62164 16.9126 7.45972 16.9177 6.29732 16.9097C5.94256 16.9074 5.62649 16.7979 5.45571 16.4477C5.15662 15.8338 5.49817 15.0719 6.23646 15.0752C8.61645 15.0855 10.996 15.0818 13.376 15.0776C13.5859 15.0771 13.7468 15.1551 13.9048 15.2754C14.126 15.4442 14.3015 15.9246 14.2251 16.1422C14.043 16.6639 13.7769 16.9022 13.341 16.9032C12.1551 16.9055 10.9696 16.9041 9.78357 16.9041C9.78404 16.9069 9.78404 16.9097 9.78404 16.9126Z" fill="#223B80"/>
<path d="M11.1141 12.3614C10.3909 12.3614 9.66773 12.3623 8.94453 12.3609C8.37607 12.3599 8.01707 11.9849 7.99301 11.4283C7.96848 10.8681 8.4992 10.4826 8.95019 10.4873C10.3886 10.5019 11.8274 10.5014 13.2658 10.4883C13.7932 10.4836 14.2617 10.9687 14.2461 11.4692C14.2324 11.9219 13.754 12.3689 13.3545 12.3637C12.6077 12.3534 11.8609 12.3609 11.1141 12.3609C11.1141 12.3609 11.1141 12.3609 11.1141 12.3614Z" fill="#223B80"/>
</svg>
