<svg width="57" height="35" viewBox="0 0 57 35" fill="none" xmlns="http://www.w3.org/2000/svg">
<g clip-path="url(#clip0_200_533)">
<path d="M56.5964 24.7551C56.4856 24.967 56.3671 25.1751 56.2666 25.3915C56.0444 25.8673 55.7736 26.3097 55.4272 26.7073C54.8497 27.3707 54.2798 28.0404 53.7048 28.7057C53.5851 28.8446 53.5166 29.0008 53.5083 29.1833C53.5063 29.2205 53.5083 29.2576 53.5115 29.2947C53.564 29.969 53.621 30.6432 53.669 31.318C53.7016 31.7694 53.7292 32.2221 53.7477 32.6742C53.7669 33.1601 53.6575 33.6173 53.3911 34.0284C53.0537 34.5483 52.5747 34.8537 51.9626 34.9581C51.4843 35.0394 51.0278 34.9594 50.5873 34.7782C49.8535 34.4759 49.1249 34.1628 48.393 33.8561C48.1574 33.7575 47.9186 33.666 47.6842 33.5642C47.4608 33.4675 47.2437 33.4675 47.019 33.5622C46.1514 33.9298 45.2819 34.2935 44.413 34.6578C44.1428 34.7711 43.8719 34.878 43.5819 34.9363C42.3602 35.1828 41.184 34.4663 40.9516 33.1505C40.8985 32.8483 40.9042 32.5461 40.9337 32.2426C40.9964 31.5959 41.0617 30.9492 41.12 30.3019C41.1475 29.9997 41.1559 29.6956 41.1821 29.3927C41.2077 29.0975 41.1097 28.8497 40.9209 28.6295C40.5079 28.148 40.0962 27.6652 39.6826 27.1844C39.429 26.8892 39.1703 26.5985 38.9187 26.3014C38.6133 25.9409 38.3975 25.5343 38.3309 25.0612C38.2067 24.1795 38.5262 23.4854 39.2401 22.9674C39.5743 22.7248 39.9624 22.6127 40.3593 22.5199C41.2557 22.3105 42.1496 22.0909 43.046 21.8802C43.3873 21.8002 43.6434 21.6145 43.8239 21.3155C44.1991 20.6957 44.5782 20.0778 44.9553 19.4593C45.0936 19.232 45.2268 19.0008 45.3696 18.7761C45.6647 18.3106 46.0457 17.9354 46.565 17.7305C47.3244 17.4302 48.028 17.5589 48.6709 18.0487C48.9501 18.2613 49.1684 18.5296 49.3496 18.8286C49.8023 19.5765 50.2537 20.3243 50.7064 21.0722C50.7864 21.2041 50.8703 21.3341 50.9542 21.464C51.072 21.6465 51.2346 21.7688 51.4465 21.82C52.2379 22.0115 53.03 22.201 53.8214 22.3918C54.1268 22.4654 54.436 22.5269 54.7357 22.6185C55.5777 22.8752 56.1238 23.4214 56.3223 24.2922C56.3319 24.3338 56.3415 24.3761 56.3409 24.4183C56.3377 24.5963 56.4325 24.6892 56.5989 24.7218C56.5964 24.734 56.5964 24.7449 56.5964 24.7551ZM51.5483 32.7484C51.5407 32.6076 51.5394 32.5071 51.5298 32.4072C51.4734 31.797 51.4094 31.1881 51.3588 30.5772C51.3146 30.0413 51.2903 29.5035 51.2455 28.9669C51.2052 28.4784 51.3467 28.0519 51.6514 27.6761C51.8832 27.3905 52.1182 27.1075 52.3583 26.829C52.8974 26.2028 53.4404 25.5804 53.9808 24.9555C54.0237 24.9062 54.0596 24.8505 54.1076 24.7858C54.0339 24.7609 53.9853 24.7404 53.9347 24.7282C52.7899 24.4587 51.647 24.1801 50.4989 23.9266C49.9585 23.8075 49.5571 23.5309 49.2811 23.0545C49.0006 22.5704 48.7119 22.0915 48.4231 21.6119C48.1209 21.11 47.8161 20.6092 47.5113 20.1085C47.4627 20.0285 47.4057 19.9542 47.3404 19.8588C47.2872 19.9318 47.2469 19.9805 47.2142 20.0336C47.0939 20.2289 46.9767 20.4255 46.8576 20.6208C46.3582 21.4391 45.8626 22.2599 45.3561 23.0744C45.0975 23.4905 44.7165 23.7575 44.2446 23.8818C43.6786 24.0309 43.1094 24.1673 42.5401 24.3031C41.9498 24.4439 41.3582 24.5765 40.7672 24.7148C40.7038 24.7295 40.6443 24.7583 40.5649 24.7871C40.6295 24.8716 40.675 24.9369 40.7262 24.9965C41.4747 25.857 42.2149 26.7253 42.9768 27.5736C43.3892 28.0327 43.5416 28.5482 43.4602 29.1494C43.4225 29.4292 43.3988 29.7103 43.3719 29.9914C43.3315 30.4101 43.2899 30.8289 43.2579 31.2483C43.2253 31.6728 43.2022 32.0986 43.1772 32.5237C43.1734 32.5858 43.1824 32.6486 43.1868 32.7388C43.3309 32.6838 43.4551 32.6409 43.5755 32.5897C44.559 32.1677 45.5418 31.7445 46.5253 31.3219C46.8634 31.1765 47.2117 31.0991 47.5837 31.1522C47.8078 31.1842 48.0165 31.2579 48.2227 31.3469C49.235 31.7823 50.2486 32.2157 51.2621 32.6486C51.3441 32.6851 51.4299 32.7081 51.5483 32.7484Z" fill="#223B80"/>
<path d="M26.2054 7.14768C26.0857 7.39227 25.964 7.62277 25.8584 7.86032C25.6458 8.33669 25.3647 8.76632 25.0222 9.15946C24.4549 9.81063 23.894 10.4676 23.3286 11.12C23.2204 11.2449 23.15 11.3864 23.1301 11.5484C23.1186 11.6425 23.1244 11.7398 23.1314 11.8352C23.1813 12.5261 23.2332 13.217 23.2864 13.9078C23.3113 14.2318 23.344 14.5552 23.3664 14.8798C23.4144 15.5841 23.2607 16.2289 22.7639 16.7552C22.2773 17.2706 21.6677 17.4678 20.9672 17.4038C20.6778 17.3775 20.4031 17.2975 20.1361 17.1855C19.2724 16.8224 18.4087 16.4587 17.5443 16.0957C17.461 16.0605 17.3765 16.0272 17.292 15.9952C17.0628 15.91 16.8348 15.9049 16.6069 16.0009C15.8411 16.3223 15.0753 16.6451 14.3089 16.9639C13.9753 17.1029 13.6488 17.2629 13.2928 17.3436C12.7389 17.4685 12.1998 17.4396 11.692 17.1694C11.0703 16.8384 10.7297 16.2993 10.5914 15.6219C10.5222 15.2838 10.5389 14.9432 10.5677 14.6025C10.6196 13.9975 10.6727 13.3924 10.7201 12.7867C10.7463 12.4467 10.7617 12.1061 10.7835 11.7654C10.8001 11.5074 10.7188 11.2814 10.5523 11.0874C9.97287 10.4112 9.39085 9.73764 8.81139 9.06149C8.66925 8.89566 8.5239 8.73111 8.39777 8.55311C8.10516 8.14012 7.9278 7.68296 7.92203 7.16945C7.91499 6.55861 8.14229 6.04766 8.58281 5.6302C8.92792 5.30365 9.34219 5.10068 9.79999 4.98991C10.6125 4.79398 11.427 4.60702 12.2401 4.41429C12.4008 4.37652 12.5584 4.32721 12.7197 4.29136C13.0238 4.22349 13.2486 4.05189 13.4093 3.78809C13.8639 3.04152 14.3198 2.29622 14.7725 1.54837C14.9466 1.26088 15.1182 0.972111 15.3551 0.729442C15.7098 0.365119 16.1241 0.109004 16.6344 0.0257666C17.1358 -0.0561901 17.598 0.0494573 18.029 0.307493C18.4413 0.554644 18.7499 0.902959 18.9964 1.31018C19.4434 2.04907 19.889 2.78796 20.3366 3.52686C20.4108 3.64979 20.4902 3.77016 20.5671 3.89182C20.6862 4.0807 20.8539 4.2062 21.0703 4.25934C21.6805 4.40789 22.2914 4.55388 22.9022 4.7005C23.3632 4.81063 23.8268 4.90987 24.2846 5.03089C25.2213 5.27932 25.7924 5.87607 25.9506 6.84098C25.9724 6.97288 26.0165 7.0574 26.1395 7.10158C26.1587 7.10926 26.1747 7.12591 26.2054 7.14768ZM10.1803 7.20082C10.245 7.28406 10.293 7.35321 10.3481 7.4166C11.0806 8.25601 11.8137 9.09479 12.5481 9.93292C12.8682 10.2979 13.0706 10.7128 13.0808 11.2026C13.0859 11.4357 13.0635 11.6707 13.0418 11.9031C12.9957 12.4019 12.938 12.8994 12.8932 13.3982C12.849 13.8969 12.8132 14.397 12.7773 14.8964C12.7716 14.979 12.7812 15.0629 12.7844 15.1673C12.9022 15.1244 12.9982 15.0949 13.0898 15.0565C14.1386 14.6109 15.1893 14.1691 16.2349 13.7157C16.7241 13.5038 17.2017 13.5025 17.6883 13.7183C18.2972 13.9872 18.91 14.2478 19.5228 14.5091C19.9684 14.6992 20.4153 14.8862 20.8635 15.0725C20.9493 15.1077 21.0396 15.1314 21.151 15.1685C21.151 15.0808 21.1542 15.0232 21.1504 14.9656C21.1414 14.817 21.1305 14.6678 21.1177 14.5193C21.0825 14.1108 21.0479 13.7017 21.0089 13.2931C20.9519 12.6938 20.8853 12.0952 20.8347 11.4959C20.8181 11.3012 20.8219 11.1002 20.8481 10.9068C20.8936 10.5694 21.0671 10.2902 21.2899 10.036C22.0589 9.15754 22.8241 8.27586 23.5899 7.39419C23.6372 7.33912 23.6763 7.27701 23.7301 7.20274C23.6462 7.17393 23.5834 7.14576 23.5175 7.13103C22.4021 6.87427 21.2887 6.60791 20.1694 6.36845C19.5823 6.24295 19.1584 5.93561 18.8562 5.42018C18.2793 4.4367 17.6858 3.46283 17.098 2.48575C17.0602 2.42364 17.0147 2.36602 16.9578 2.2847C16.8976 2.3705 16.8457 2.43581 16.8028 2.50688C16.2073 3.49868 15.6087 4.48729 15.0222 5.48421C14.7449 5.95482 14.3505 6.23783 13.8197 6.35564C12.6813 6.60791 11.5454 6.86979 10.4089 7.12847C10.3378 7.14255 10.27 7.17137 10.1803 7.20082Z" fill="#223B80"/>
<path d="M34.9679 24.7794C34.7809 24.7314 34.6337 24.6917 34.4845 24.6558C33.4543 24.4093 32.424 24.1628 31.3938 23.9176C31.0058 23.8254 30.6633 23.6493 30.3899 23.3573C30.2816 23.2414 30.185 23.1108 30.1017 22.9757C29.6318 22.2138 29.1675 21.448 28.7021 20.6835C28.5746 20.4741 28.4498 20.2628 28.3224 20.0534C28.2865 19.9952 28.2449 19.9407 28.1898 19.862C28.1367 19.9331 28.0887 19.9862 28.0522 20.047C27.7173 20.6041 27.3882 21.165 27.0501 21.7201C26.7703 22.1798 26.4847 22.6363 26.1934 23.089C25.9315 23.4962 25.5583 23.7658 25.0902 23.8823C24.197 24.1052 23.2993 24.3126 22.4036 24.5258C22.134 24.5899 21.8644 24.6507 21.5949 24.7154C21.5398 24.7282 21.4867 24.7493 21.4092 24.7736C21.4719 24.8594 21.5168 24.9298 21.5712 24.9926C22.319 25.8538 23.0663 26.7163 23.8192 27.5736C24.0491 27.8355 24.2277 28.1178 24.2969 28.463C24.3507 28.7287 24.3193 28.9937 24.2924 29.2588C24.2425 29.757 24.1919 30.2551 24.1445 30.7539C24.0939 31.2898 24.0459 31.8257 24.0004 32.3617C23.9908 32.4769 23.9992 32.5934 23.9992 32.733C24.0734 32.7132 24.14 32.7029 24.2002 32.678C24.5306 32.5435 24.8616 32.4097 25.1894 32.2688C25.9437 31.9461 26.6986 31.6253 27.4484 31.2937C27.9478 31.0728 28.4338 31.0843 28.9326 31.2994C29.9884 31.7559 31.0494 32.2003 32.1084 32.6491C32.1807 32.6799 32.2557 32.7042 32.3549 32.7413C32.3619 32.6671 32.3709 32.6127 32.3715 32.5582C32.3741 32.361 32.3645 32.1638 32.3779 31.9672C32.3863 31.8411 32.4132 31.713 32.4541 31.5933C32.5918 31.1919 32.8786 30.9594 33.2974 30.9088C33.7232 30.8576 34.0741 30.9985 34.3206 31.3615C34.4365 31.5318 34.5127 31.7227 34.5351 31.9243C34.5696 32.2362 34.6164 32.5525 34.5965 32.863C34.5383 33.8004 34.0939 34.4925 33.2046 34.8479C32.6277 35.0784 32.0424 35.0336 31.4751 34.7979C30.5211 34.4023 29.5703 33.997 28.6188 33.5955C28.5746 33.5769 28.5305 33.559 28.4869 33.5385C28.275 33.4405 28.0682 33.4527 27.855 33.5468C27.2806 33.801 26.7031 34.0488 26.1249 34.2947C25.7478 34.4554 25.3668 34.6071 24.9878 34.764C24.6747 34.894 24.3487 34.9779 24.0107 34.9843C22.9408 35.0067 22.1173 34.36 21.8536 33.3804C21.7684 33.0641 21.746 32.7426 21.7754 32.4142C21.8407 31.6817 21.8952 30.9485 21.9522 30.2154C21.9726 29.9497 21.9822 29.6833 22.0091 29.4183C22.0418 29.1 21.9432 28.8369 21.7345 28.5974C21.1973 27.9834 20.669 27.3623 20.1369 26.7438C20.0185 26.6061 19.8968 26.4723 19.7803 26.3334C19.4883 25.9844 19.2719 25.5964 19.19 25.1443C19.044 24.3369 19.2834 23.6602 19.9007 23.121C20.2413 22.8233 20.6472 22.6549 21.0839 22.5512C22.0213 22.3284 22.9574 22.1004 23.8948 21.8802C24.2309 21.8008 24.4826 21.6151 24.6599 21.3225C25.1536 20.5125 25.6479 19.7032 26.1403 18.8919C26.3356 18.5699 26.5667 18.2798 26.8644 18.0461C27.2409 17.751 27.6667 17.5813 28.1456 17.5717C28.6188 17.5627 29.0472 17.7113 29.4294 17.9898C29.7444 18.219 29.9929 18.5091 30.1933 18.8414C30.6261 19.5572 31.0583 20.2737 31.4918 20.9895C31.5744 21.1265 31.6659 21.2578 31.7453 21.3967C31.8868 21.6439 32.0988 21.7841 32.3735 21.8481C32.9542 21.9832 33.533 22.1248 34.1131 22.2643C34.553 22.37 34.9942 22.4718 35.4321 22.5832C35.9975 22.7273 36.4732 23.016 36.8203 23.4937C37.3453 24.2179 37.36 25.168 36.8612 25.9588C36.7876 26.0753 36.7056 26.1887 36.6154 26.2937C35.7715 27.2695 34.925 28.2433 34.0785 29.2172C33.9185 29.401 33.7264 29.5431 33.4972 29.6296C33.0573 29.7954 32.5899 29.6603 32.2781 29.2787C32.0226 28.9656 31.9803 28.6166 32.1148 28.2421C32.1993 28.0064 32.3517 27.815 32.513 27.6293C33.2635 26.763 34.0132 25.896 34.763 25.0291C34.827 24.9587 34.8847 24.8825 34.9679 24.7794Z" fill="#223B80"/>
<path d="M29.3379 7.21822C29.4198 7.32002 29.4768 7.39622 29.5396 7.46793C30.2874 8.32975 31.0347 9.19222 31.7857 10.0502C32.0008 10.2961 32.1756 10.5618 32.2198 10.889C32.2461 11.083 32.2499 11.2834 32.2339 11.478C32.1827 12.1042 32.1142 12.7298 32.0598 13.356C32.0117 13.9137 31.9746 14.472 31.9336 15.0297C31.9311 15.0649 31.94 15.1014 31.9464 15.1584C32.0309 15.129 32.1059 15.1078 32.1769 15.0777C32.878 14.7806 33.5779 14.4791 34.2796 14.1845C34.6478 14.0302 35.0204 13.8849 35.3918 13.7395C35.8739 13.5507 36.3599 13.541 36.8401 13.7402C37.7551 14.1186 38.6682 14.5034 39.5818 14.8856C39.7394 14.9516 39.8949 15.0208 40.0525 15.0848C40.1248 15.1142 40.2016 15.1347 40.2996 15.1667C40.3028 15.0758 40.3131 15.0041 40.3066 14.9337C40.2509 14.3344 40.185 13.7357 40.137 13.1357C40.087 12.5089 40.0409 11.8814 40.0172 11.2533C39.9999 10.8045 40.1671 10.403 40.4526 10.0624C41.0353 9.3683 41.6288 8.68319 42.2185 7.99552C42.3953 7.78935 42.5765 7.58638 42.7538 7.37957C42.798 7.32835 42.8345 7.27008 42.8851 7.19965C42.798 7.17083 42.7295 7.14266 42.6584 7.12601C41.527 6.86734 40.3963 6.60546 39.263 6.35575C38.7271 6.2373 38.3262 5.95749 38.0458 5.48048C37.4593 4.48355 36.8581 3.49559 36.262 2.50506C36.2191 2.43399 36.1672 2.36804 36.1044 2.27776C36.0321 2.38789 35.9719 2.47369 35.9175 2.56333C35.3527 3.49879 34.7893 4.43489 34.2252 5.37035C34.1701 5.46191 34.1208 5.55795 34.0562 5.64119C33.9588 5.76669 33.8622 5.89858 33.7424 6.00167C33.1674 6.49917 32.5137 6.29236 32.1462 5.84608C31.9221 5.57396 31.8785 5.25638 31.9784 4.92599C32.0284 4.75951 32.0988 4.59368 32.1878 4.44449C32.8531 3.32719 33.5215 2.21181 34.1958 1.10028C34.6145 0.409406 35.2465 0.0399603 36.0436 0.0117877C36.7121 -0.0119029 37.2967 0.23909 37.7493 0.747477C37.8793 0.893463 37.9933 1.05802 38.0957 1.22513C38.5913 2.03381 39.0799 2.84698 39.5716 3.65822C39.6049 3.71265 39.6427 3.76451 39.6747 3.82021C39.8194 4.07057 40.0371 4.21783 40.3156 4.28442C40.8951 4.42336 41.4745 4.56359 42.0546 4.70253C42.4996 4.80946 42.9459 4.9119 43.3896 5.02459C43.8935 5.15265 44.3264 5.40364 44.6612 5.80702C45.2426 6.50686 45.3092 7.47497 44.8271 8.3035C44.7342 8.46357 44.6215 8.61596 44.5012 8.75682C43.9512 9.40159 43.3947 10.0412 42.8409 10.6834C42.7224 10.8205 42.6091 10.962 42.4919 11.1003C42.344 11.2751 42.271 11.4774 42.28 11.7041C42.2909 11.9864 42.3082 12.2682 42.33 12.5499C42.378 13.1818 42.435 13.8138 42.4791 14.4458C42.5003 14.7538 42.5227 15.0643 42.5054 15.3716C42.4561 16.2655 41.9106 17.0325 41.0391 17.3123C40.4994 17.4852 39.9635 17.4494 39.4435 17.2374C38.6893 16.9301 37.9408 16.608 37.1891 16.2936C36.9336 16.1867 36.6762 16.0843 36.4214 15.9773C36.2139 15.8903 36.0078 15.8909 35.8009 15.978C34.9763 16.325 34.1516 16.6714 33.3269 17.0172C33.0375 17.1388 32.7532 17.2739 32.4433 17.3405C31.9291 17.4506 31.4233 17.4353 30.9431 17.2067C30.1895 16.8488 29.8053 16.2271 29.6881 15.4177C29.6356 15.0528 29.6971 14.6948 29.7323 14.335C29.781 13.8369 29.8335 13.3387 29.877 12.8399C29.9065 12.4999 29.918 12.1593 29.9481 11.8193C29.9737 11.5305 29.8879 11.2885 29.6984 11.0708C29.044 10.3185 28.3909 9.56487 27.7461 8.80549C27.5886 8.6198 27.4426 8.41875 27.3236 8.20682C26.7031 7.1036 27.2698 5.65528 28.3352 5.1821C28.729 5.00731 29.1375 4.89462 29.5729 4.9151C30.0646 4.93815 30.5288 5.29607 30.5704 5.95237C30.6005 6.42874 30.3796 6.7713 29.9622 6.98835C29.8495 7.04662 29.7246 7.08055 29.6049 7.12409C29.5268 7.15419 29.4474 7.18044 29.3379 7.21822Z" fill="#223B80"/>
<path d="M15.8143 24.7768C15.6837 24.7397 15.5889 24.7089 15.4916 24.6865C14.3461 24.4202 13.2 24.1544 12.0539 23.8887C11.8343 23.8381 11.6249 23.7626 11.4392 23.6307C11.0672 23.3669 10.9212 22.9481 11.0352 22.4698C11.1383 22.0357 11.4507 21.7566 11.8989 21.6817C12.1205 21.6445 12.3343 21.6708 12.5482 21.7201C13.8038 22.0082 15.0594 22.2944 16.3131 22.5883C16.9188 22.7304 17.4182 23.0461 17.7409 23.5878C18.2173 24.3881 18.1693 25.1911 17.6974 25.978C17.6263 26.0964 17.5386 26.2053 17.4489 26.3103C16.8861 26.9653 16.3208 27.6178 15.7567 28.2721C15.6453 28.4015 15.5377 28.534 15.4308 28.6665C15.2566 28.883 15.1746 29.1282 15.1913 29.408C15.2521 30.4132 15.3482 31.4153 15.457 32.4167C15.5633 33.3983 15.1196 34.3549 14.2001 34.7813C13.5906 35.0637 12.9676 35.0489 12.3516 34.8082C11.8407 34.6084 11.3393 34.3869 10.8329 34.1756C10.3514 33.9745 9.86794 33.778 9.38901 33.5711C9.15402 33.4693 8.92928 33.4693 8.69365 33.5692C7.78189 33.9553 6.86692 34.3356 5.95451 34.7198C5.57802 34.8786 5.19129 34.9887 4.77894 34.9887C3.74808 34.9894 2.91315 34.3158 2.68712 33.3061C2.61413 32.9795 2.60901 32.6504 2.63398 32.32C2.71017 31.3103 2.79085 30.3012 2.8664 29.2921C2.88177 29.0827 2.82671 28.8913 2.68712 28.7287C2.23892 28.2075 1.79777 27.6792 1.34188 27.1651C0.859105 26.6208 0.421789 26.0452 0.0600269 25.4139C0.0273723 25.3569 0.00560251 25.2858 0.00432194 25.2212C-0.00144065 24.9228 -0.00144065 24.6238 0.00432194 24.3254C0.00560251 24.2479 0.0248111 24.1666 0.0549046 24.0955C0.394257 23.2869 1.00765 22.7874 1.84195 22.5582C2.19538 22.4609 2.56163 22.4135 2.91891 22.3277C3.59633 22.1644 4.27183 21.9922 4.94734 21.82C5.16439 21.7649 5.32511 21.6279 5.441 21.439C5.78291 20.88 6.12418 20.3204 6.46482 19.7602C6.65562 19.4458 6.84451 19.1301 7.03531 18.8164C7.22868 18.4988 7.46943 18.2235 7.771 18.0032C8.56368 17.4257 9.58045 17.4378 10.3565 18.0365C10.6958 18.2984 10.9564 18.6262 11.1396 19.0129C11.2529 19.253 11.3073 19.5047 11.2599 19.7736C11.1319 20.5016 10.3321 20.8871 9.68418 20.5317C9.49337 20.4273 9.34035 20.2813 9.21165 20.1078C9.1553 20.0316 9.09511 19.9586 9.02084 19.8639C8.95681 19.9599 8.90111 20.0361 8.85309 20.1168C8.52014 20.6751 8.19167 21.236 7.85488 21.7924C7.60901 22.1984 7.35418 22.5979 7.10126 22.9994C6.81249 23.4572 6.40719 23.7626 5.88088 23.8919C5.0024 24.1083 4.12137 24.3152 3.24161 24.5258C2.97269 24.5898 2.70249 24.6513 2.43293 24.7153C2.38235 24.7275 2.33369 24.7473 2.26197 24.771C2.31768 24.8472 2.35866 24.9138 2.40924 24.9721C2.84271 25.4715 3.28067 25.9665 3.71158 26.4678C4.03493 26.8436 4.35379 27.2233 4.66689 27.6075C5.01521 28.0346 5.174 28.5212 5.12149 29.0782C5.07347 29.5924 5.0517 30.1098 5.0088 30.6245C4.96655 31.1342 4.91212 31.6426 4.86538 32.1523C4.84809 32.3367 4.83593 32.5211 4.81928 32.7375C4.91148 32.7112 4.97679 32.6991 5.03698 32.6741C5.44612 32.507 5.8559 32.3405 6.26249 32.1683C6.9636 31.8718 7.66535 31.5754 8.36327 31.2712C8.81403 31.0747 9.25583 31.0734 9.70915 31.2687C10.7848 31.7322 11.865 32.1862 12.9439 32.6434C13.0207 32.676 13.1007 32.701 13.2077 32.74C13.2077 32.6613 13.2115 32.6056 13.207 32.5499C13.1488 31.8276 13.0918 31.1054 13.0297 30.3832C12.9906 29.9318 12.9439 29.4816 12.8984 29.0309C12.844 28.486 13.0015 28.0186 13.3684 27.6056C14.1329 26.745 14.8839 25.8717 15.6401 25.0035C15.6946 24.942 15.7419 24.8716 15.8143 24.7768Z" fill="#223B80"/>
</g>
<defs>
<clipPath id="clip0_200_533">
<rect width="56.5975" height="35" fill="white"/>
</clipPath>
</defs>
</svg>
