<svg width="172" height="19" viewBox="0 0 172 19" fill="none" xmlns="http://www.w3.org/2000/svg">
<path d="M14.4233 18.1468L14.412 8.85505C14.4082 6.56223 14.4044 3.34702 18.0466 1.75824C18.9883 1.3554 20.0052 1.18975 21.0146 1.19351C24.6869 1.20104 26.2802 3.08348 26.9355 4.32589C27.395 5.21064 27.6135 6.20833 27.6135 7.20979C27.6135 8.37691 27.4252 9.57037 26.7962 10.5681C25.2783 13.019 22.6229 13.1583 21.2481 13.1545L20.3517 13.1508L20.348 8.53127H20.7811C21.6964 8.53503 22.1559 7.91759 22.1559 7.2738C22.1559 6.55847 21.5758 6.0088 20.8979 6.0088C19.67 6.00503 19.67 7.1985 19.6737 7.959L19.6813 18.1581L14.4233 18.1468ZM34.8112 9.84144C34.8112 11.6787 36.3329 13.1809 38.1898 13.1847C40.0504 13.1884 41.5645 11.69 41.5645 9.85274C41.5645 8.01924 40.0391 6.51329 38.1822 6.50953C36.3254 6.50953 34.8075 8.00795 34.8112 9.84144ZM29.3536 9.83391C29.3461 5.11652 33.3272 1.21234 38.1785 1.22363C43.0297 1.23116 47.0184 5.14664 47.0222 9.86403C47.0259 14.5814 43.0523 18.4818 38.2011 18.4743C33.3461 18.4668 29.3611 14.5513 29.3536 9.83391ZM48.1446 18.207L53.2369 18.2145L53.7378 9.13741C53.7604 8.68563 53.7792 8.40326 53.8546 8.40326C53.9525 8.40326 54.0467 8.66304 54.1936 9.33319L55.6512 15.7222C56.186 18.079 56.574 18.5082 57.7529 18.512C59.0071 18.5157 59.3725 18.0602 59.8998 15.726L61.3612 9.34448C61.5043 8.6781 61.5796 8.41079 61.6738 8.41079C61.7453 8.41079 61.7717 8.69692 61.7943 9.15247L62.3141 18.2296L67.4026 18.2371L66.2538 4.82286C66.1559 3.74987 65.7868 1.27257 62.7698 1.26504C60.0203 1.25751 59.4666 2.87641 59.1314 4.18659L57.9977 8.64045C57.9035 8.97552 57.832 9.13741 57.7604 9.13741C57.6888 9.13741 57.5909 8.97176 57.5194 8.64045L56.4045 4.17906C56.0881 2.86888 55.5081 1.24999 52.7548 1.24246C49.7378 1.23869 49.38 3.71222 49.2858 4.78521L48.1446 18.207ZM68.8037 18.2484L74.0655 18.256L74.058 11.4679H74.5401C74.8301 11.4679 75.5307 11.4679 75.8923 11.9422C76.2049 12.3489 76.1823 13.1583 76.1823 13.8021L76.186 18.2522L81.4516 18.2635L81.4441 13.7343C81.4403 12.138 81.3687 9.70967 78.8301 8.94164C79.8395 7.94018 79.8659 7.63146 80.348 6.17821L81.8621 1.58506L76.5778 1.57377L75.1088 6.09915C74.8226 6.95378 74.6041 7.5524 74.2915 7.5524H74.0504L74.0467 1.57377L68.7811 1.56247L68.8037 18.2484ZM89.2256 18.2861L89.2181 8.09077C89.2181 7.3265 89.2143 6.1368 90.4459 6.1368C91.1201 6.14057 91.7002 6.69024 91.7002 7.4018C91.7002 8.0456 91.2444 8.66304 90.3254 8.66304H89.8923L89.896 13.2825H90.7887C92.1635 13.2863 94.8188 13.1508 96.3367 10.6961C96.962 9.69461 97.154 8.50491 97.154 7.3378C97.154 6.3401 96.9356 5.33865 96.4761 4.4539C95.8207 3.21525 94.2275 1.32905 90.5589 1.32152C89.5458 1.32152 88.5326 1.48341 87.5909 1.89001C83.945 3.47879 83.9525 6.69777 83.9563 8.98305L83.9638 18.2748L89.2256 18.2861ZM104.913 16.7989C105.09 16.4978 105.244 16.1815 105.395 15.8615L107.369 11.6486L107.538 11.3022V11.8368V14.1259L107.546 18.32L112.808 18.3313L112.789 1.65283L107.531 1.6453V3.09101C107.335 3.41103 107.165 3.7574 107 4.09624L104.905 8.44844V7.40557L104.902 5.83938L104.898 1.63777L99.6362 1.62647L99.655 18.3049L104.917 18.3162V16.7989H104.913ZM120.691 10.0071C120.695 11.8406 122.216 13.3465 124.073 13.3503C125.934 13.3541 127.452 11.8557 127.448 10.0184C127.444 8.1849 125.922 6.67894 124.066 6.67894C122.209 6.67141 120.691 8.16984 120.691 10.0071ZM115.233 9.9958C115.229 5.27841 119.207 1.37799 124.058 1.38552C128.913 1.39682 132.898 5.31229 132.902 10.0297C132.905 14.7471 128.928 18.6475 124.077 18.64C119.229 18.6287 115.241 14.7132 115.233 9.9958ZM145.76 1.71307L141.73 1.70554C140.088 1.70177 137.87 1.74695 136.42 3.14749C134.951 4.57438 134.928 6.67141 134.928 8.43338L134.939 18.3689L140.201 18.3802L140.194 8.49362C140.194 7.9703 140.141 7.37168 140.502 6.89731C140.89 6.42293 141.35 6.47188 141.806 6.47188L145.764 6.47564L145.76 1.71307ZM158.623 18.4178L163.885 18.4254L163.881 11.946L166.51 11.9535L166.518 18.4329L171.779 18.4442L171.761 1.76577L166.499 1.75824L166.506 7.52228L163.877 7.51851L163.866 1.75071L158.604 1.73942L158.623 18.4178ZM156.845 7.90253L151.342 7.89124C151.7 7.27003 152.544 6.32128 154.646 6.32504H156.841L156.838 1.56247L154.57 1.55871C148.924 1.54741 145.644 5.32735 145.647 9.87909C145.651 14.4308 148.917 18.2221 154.661 18.2371L156.853 18.2409L156.849 13.4746L154.653 13.4708C152.551 13.467 151.704 12.5145 151.346 11.8933L156.849 11.9008L156.845 7.90253ZM0.144544 7.01025L0.155843 18.1129L5.39879 18.1242L5.38749 7.01778C5.40632 6.22716 5.85076 5.90338 6.46093 5.89585H6.46847C7.07864 5.90338 7.52308 6.23092 7.54568 7.01778L7.55698 18.1242L12.8037 18.1355L12.7886 7.02908C12.7886 5.09393 11.9374 3.49385 10.702 2.45475C9.54191 1.48341 8.04286 1.0128 6.5325 0.9375V0.94503H6.5099H6.4647H6.4195H6.3969V0.948795C4.88654 1.01656 3.38372 1.48341 2.22741 2.45098C0.988235 3.4788 0.140777 5.07887 0.144544 7.01025Z" fill="#223B80"/>
</svg>
