<svg width="70" height="70" viewBox="0 0 70 70" fill="none" xmlns="http://www.w3.org/2000/svg">
<g clip-path="url(#clip0_123_1064)">
<path d="M0 64.393C0.47162 63.1713 1.35833 62.6767 2.66174 62.7381C3.97647 62.7996 5.29765 62.7511 6.7222 62.7511C6.7222 62.4747 6.7222 62.2355 6.7222 61.9964C6.7222 59.8081 6.70282 57.6216 6.73512 55.4334C6.74319 54.892 6.56391 54.559 6.14398 54.2439C4.5886 53.0738 3.28519 51.6937 2.7425 49.7544C1.98177 47.0393 2.47923 44.5166 4.01361 42.1974C4.70328 41.1534 5.47208 40.1595 6.24896 39.1786C6.61075 38.7196 6.7545 38.2558 6.73189 37.6788C6.69474 36.7011 6.71412 35.7201 6.72381 34.7391C6.73673 33.3008 7.53623 32.5121 8.98339 32.5105C14.1082 32.5073 19.233 32.5089 24.3579 32.5089C25.9859 32.5089 26.7289 33.2523 26.7305 34.8959C26.7337 43.8507 26.7321 52.8056 26.7321 61.762C26.7321 62.0578 26.7321 62.3519 26.7321 62.6994C28.2148 62.6994 29.6571 62.6994 31.1528 62.6994C31.1528 48.1156 31.1528 33.527 31.1528 18.8657C30.6359 18.8657 30.1401 18.8657 29.6442 18.8657C27.2748 18.8657 24.907 18.8528 22.5376 18.8819C22.2114 18.8867 21.8302 19.0306 21.5734 19.2342C19.0489 21.2285 16.216 22.0689 13.0164 21.6164C12.1281 21.4903 11.6774 21.0313 11.7986 20.3865C11.9229 19.719 12.4446 19.4637 13.3539 19.5946C15.7993 19.9437 17.991 19.3247 20.0132 17.8492C19.6239 17.2496 19.3348 16.6387 20.0067 16.0909C20.5316 15.6626 21.0291 15.8743 21.5314 16.3026C22.578 15.0259 23.1384 13.5778 23.3678 11.8939C22.9042 11.8939 22.4795 11.9068 22.0531 11.8906C21.4054 11.8648 20.9806 11.4672 20.9645 10.8983C20.9483 10.3068 21.3909 9.87696 22.0692 9.84949C22.4762 9.83333 22.8849 9.84626 23.3549 9.84626C23.1611 8.17682 22.5586 6.74818 21.5459 5.4456C21.0226 5.87387 20.4815 6.10659 19.9389 5.59428C19.3671 5.0545 19.6061 4.48725 19.9938 3.96525C18.9892 2.99074 16.9412 2.15359 15.6264 2.21177C15.6264 2.60772 15.641 3.00851 15.6232 3.40931C15.5941 4.08161 15.2259 4.48563 14.6509 4.50664C14.0468 4.52927 13.6301 4.11878 13.5881 3.42224C13.5639 3.01983 13.5833 2.61418 13.5833 2.1439C11.8826 2.28935 10.4984 2.94549 9.19013 3.90868C9.59391 4.46786 9.85556 5.03511 9.29349 5.57974C8.75727 6.10012 8.2162 5.88841 7.63152 5.39873C7.20835 6.12436 6.80295 6.81767 6.39917 7.5126C6.43955 7.55785 6.47993 7.60149 6.52031 7.64674C6.81911 7.47705 7.11306 7.29443 7.41994 7.14251C7.96101 6.87424 8.50531 7.01484 8.79603 7.47866C9.09968 7.96026 8.97693 8.56792 8.4407 8.8976C7.41509 9.53112 6.3701 10.1355 5.32187 10.7303C4.8228 11.0147 4.34149 10.9274 3.97485 10.4765C3.21251 9.54081 2.45178 8.60185 1.71851 7.6435C1.35025 7.1619 1.4294 6.59304 1.84933 6.23426C2.2838 5.86094 2.87817 5.90781 3.30618 6.37971C3.61144 6.71424 3.88279 7.07787 4.22358 7.49482C4.3318 7.26049 4.42063 7.08918 4.49008 6.90979C7.33272 -0.244706 16.3613 -2.29878 22.0208 2.90347C22.3018 3.16204 22.767 3.3382 23.1497 3.34466C25.4949 3.38507 27.8417 3.35759 30.1885 3.37375C30.8362 3.3786 31.2658 3.79717 31.2803 4.35635C31.2933 4.90905 30.8701 5.33894 30.237 5.4052C30.0561 5.42298 29.8736 5.41489 29.691 5.41489C28.0743 5.41489 26.4559 5.41489 24.8392 5.41489C24.6131 5.41489 24.3869 5.41489 24.0526 5.41489C26.0392 9.26931 25.9552 13.0219 23.7829 16.7648C25.1105 16.7648 26.3881 16.7648 27.7723 16.7648C27.7723 15.7176 27.7723 14.6574 27.7723 13.5972C27.7723 11.485 27.8143 11.443 29.8994 11.443C33.5205 11.443 37.1433 11.4414 40.7644 11.4446C41.9112 11.4446 42.2116 11.7516 42.2132 12.9088C42.2164 14.1806 42.2132 15.4541 42.2132 16.7826C42.4781 16.7955 42.6977 16.8133 42.9174 16.8149C47.724 16.8165 52.5291 16.802 57.3357 16.8327C57.9931 16.8375 58.1239 16.6242 58.1191 16.0198C58.0932 12.7617 58.0884 9.50202 58.1207 6.24396C58.1271 5.5959 57.9624 5.40035 57.297 5.40197C49.8027 5.42459 42.3085 5.41813 34.8159 5.41328C34.5219 5.41328 34.2167 5.41166 33.9372 5.33894C33.4333 5.20642 33.1846 4.83471 33.2169 4.31756C33.2492 3.80202 33.5415 3.4788 34.0584 3.39315C34.2587 3.36082 34.467 3.36567 34.6721 3.36567C42.2794 3.36406 49.8883 3.36406 57.4956 3.36567C59.3369 3.36567 60.1558 4.1915 60.1574 6.0371C60.159 9.45516 60.1606 12.8732 60.1574 16.2913C60.1558 17.9898 59.2868 18.8641 57.599 18.8657C51.6311 18.869 45.6631 18.8674 39.6952 18.8674C39.4255 18.8674 39.1557 18.8674 38.836 18.8674C38.836 33.506 38.836 48.0946 38.836 62.7171C40.2815 62.7171 41.7077 62.7171 43.213 62.7171C43.2259 62.478 43.2485 62.2388 43.2485 62.0012C43.2533 60.3382 43.2372 58.6736 43.2614 57.0107C43.2711 56.3157 43.7137 55.8972 44.3129 55.9182C44.8879 55.9376 45.2513 56.34 45.2933 57.0123C45.3046 57.1933 45.2981 57.3775 45.2981 57.5585C45.2981 59.0163 45.2981 60.4756 45.2981 61.9333C45.2981 62.179 45.2981 62.4262 45.2981 62.7123C50.6151 62.7123 55.8659 62.7123 61.162 62.7123C61.162 60.8053 61.162 58.908 61.162 57.0091C61.1038 56.9848 61.0473 56.9622 60.9892 56.9379C60.755 57.544 60.4949 58.1403 60.2914 58.7561C60.1154 59.291 59.8246 59.6401 59.2303 59.6304C58.539 59.6191 58.1255 59.0276 58.2935 58.2842C58.6747 56.605 59.5791 55.2443 60.818 54.0726C61.0198 53.8819 61.1911 53.5425 61.1927 53.271C61.2137 47.1864 61.2088 41.1033 61.2072 35.0187C61.2072 34.9072 61.1943 34.7957 61.183 34.6228C55.9031 34.6228 50.6394 34.6228 45.2981 34.6228C45.2981 34.9056 45.2981 35.1739 45.2981 35.4421C45.2981 41.0015 45.2981 46.5625 45.2981 52.122C45.2981 52.3046 45.2997 52.4872 45.2965 52.6682C45.282 53.5199 44.9008 54.0031 44.258 53.9902C43.6168 53.9772 43.2501 53.4989 43.2501 52.631C43.2469 46.6838 43.2437 40.7365 43.2517 34.7892C43.2533 33.2814 44.0335 32.5121 45.5258 32.5105C50.6733 32.5073 55.8207 32.5073 60.9698 32.5105C62.4573 32.5121 63.2439 33.2959 63.2584 34.7795C63.2633 35.2805 63.3166 35.7896 63.2487 36.2825C63.0307 37.8792 63.5411 39.1753 64.6055 40.3713C65.3549 41.2149 66.0203 42.1732 66.5355 43.1768C68.2993 46.611 68.1248 51.0182 64.1209 54.0096C63.4409 54.517 63.2164 55.0552 63.239 55.8875C63.3004 58.1403 63.26 60.3964 63.26 62.7511C63.8302 62.7511 64.3664 62.7511 64.9043 62.7511C65.9072 62.7511 66.9086 62.7333 67.91 62.7575C69.0568 62.785 69.9451 63.6512 69.9725 64.7987C70.0049 66.1659 70.0291 67.5364 69.9499 68.8987C69.9273 69.2769 69.5268 69.6325 69.299 69.9977C53.5353 69.9977 37.7716 69.9977 22.0095 69.9977C21.5249 69.6729 21.1534 69.2737 21.3731 68.6434C21.5895 68.0196 22.1177 67.9064 22.7072 67.9452C22.8655 67.9566 23.0254 67.9469 23.1853 67.9469C37.8039 67.9469 52.4209 67.9469 67.0395 67.9469C67.3253 67.9469 67.6112 67.9469 67.9003 67.9469C67.9003 66.8576 67.9003 65.8653 67.9003 64.8375C45.9539 64.8375 24.0413 64.8375 2.10129 64.8375C2.10129 65.8799 2.10129 66.8899 2.10129 67.9469C2.3904 67.9469 2.63752 67.9469 2.88302 67.9469C7.91578 67.9469 12.9469 67.9501 17.9797 67.942C18.5579 67.9404 19.0828 67.9937 19.3235 68.6272C19.5674 69.2721 19.1652 69.6438 18.7307 69.9977C12.4898 69.9977 6.24735 69.9977 0.00646055 69.9977C0 68.1198 0 66.2564 0 64.393ZM24.6486 34.605C19.3413 34.605 14.0921 34.605 8.7718 34.605C8.7718 34.9153 8.7718 35.1819 8.7718 35.4502C8.7718 41.2811 8.77827 47.1136 8.7605 52.9445C8.75888 53.4876 8.88648 53.8722 9.30157 54.2455C10.4984 55.3218 11.3027 56.6519 11.671 58.2308C11.8293 58.9064 11.5676 59.4429 11.0088 59.5997C10.3982 59.771 9.9234 59.451 9.69082 58.7448C9.53415 58.2712 9.35164 57.8058 9.16105 57.3452C9.10129 57.203 8.97531 57.0882 8.82187 56.8846C8.82187 58.9128 8.82187 60.8117 8.82187 62.7123C14.1195 62.7123 19.3687 62.7123 24.6502 62.7123C24.6486 53.3373 24.6486 44.0059 24.6486 34.605ZM36.6765 62.7317C36.6765 48.0736 36.6765 33.4899 36.6765 18.9158C35.5168 18.9158 34.4137 18.9158 33.3073 18.9158C33.3073 33.5481 33.3073 48.1318 33.3073 62.7317C34.4525 62.7317 35.5427 62.7317 36.6765 62.7317ZM40.1216 13.5391C36.6862 13.5391 33.2912 13.5391 29.8606 13.5391C29.8606 14.638 29.8606 15.6933 29.8606 16.7777C33.2976 16.7777 36.6943 16.7777 40.1216 16.7777C40.1216 15.6852 40.1216 14.6283 40.1216 13.5391ZM6.65598 51.9248C6.65598 48.6409 6.65598 45.4086 6.65598 42.1021C3.7245 45.5105 3.73904 49.8853 6.65598 51.9248ZM63.2988 51.9668C66.2642 49.7479 66.2464 44.8996 63.2988 42.1554C63.2988 45.4232 63.2988 48.6522 63.2988 51.9668Z" fill="black"/>
<path d="M0 13.6671C0.180895 13.3309 0.324642 12.9673 0.547531 12.6602C1.34702 11.5629 2.72312 11.238 3.87956 11.8425C5.08445 12.4744 5.71758 13.9677 5.22012 15.288C4.9197 16.0864 4.44162 16.8201 4.02007 17.57C3.77619 18.0031 3.48546 18.4103 3.13336 18.9566C3.65667 18.9566 4.07014 18.9501 4.482 18.9582C5.20397 18.9711 5.62713 19.3202 5.65621 19.9165C5.68689 20.542 5.26534 20.9751 4.52238 20.9961C3.52261 21.0252 2.52123 21.043 1.52146 21.0009C0.306876 20.9476 -0.101754 20.1137 0.562067 19.0826C1.30018 17.9368 2.08353 16.8185 2.80065 15.6581C3.04292 15.2654 3.21735 14.7935 3.27065 14.341C3.29649 14.1244 2.99931 13.7204 2.78288 13.6687C2.59391 13.6218 2.20143 13.8949 2.09322 14.1196C1.53115 15.2832 0.94647 15.4044 0 14.488C0 14.2133 0 13.9402 0 13.6671Z" fill="black"/>
<path d="M47.4179 42.6409C47.4179 41.3658 47.4099 40.0907 47.4195 38.8156C47.4292 37.6148 48.0995 36.8553 49.2979 36.8375C51.9387 36.7987 54.5794 36.7987 57.2186 36.8391C58.3847 36.8569 59.0598 37.6035 59.0663 38.7703C59.0824 41.3658 59.0824 43.9629 59.0663 46.5584C59.0582 47.7785 58.3217 48.5025 57.0926 48.509C54.5197 48.5219 51.9484 48.5235 49.3755 48.5074C48.1577 48.4993 47.4308 47.751 47.4195 46.5325C47.4082 45.238 47.4179 43.9403 47.4179 42.6409ZM49.5047 38.9013C49.5047 41.445 49.5047 43.9176 49.5047 46.4275C52.0098 46.4275 54.4761 46.4275 56.9698 46.4275C56.9698 43.9031 56.9698 41.4175 56.9698 38.9013C54.4664 38.9013 52.0162 38.9013 49.5047 38.9013Z" fill="black"/>
<path d="M49.8082 9.84334C48.6921 9.84334 47.5761 9.85143 46.46 9.84011C45.7558 9.83365 45.3213 9.44902 45.3052 8.85429C45.2874 8.23855 45.7429 7.80059 46.4713 7.79736C48.726 7.78604 50.9808 7.78604 53.2355 7.79897C53.9607 7.80382 54.4162 8.24825 54.3919 8.86398C54.3693 9.44901 53.9219 9.83526 53.2258 9.84173C52.0855 9.84981 50.9469 9.84334 49.8082 9.84334Z" fill="black"/>
<path d="M49.8179 14.4275C48.726 14.4275 47.6326 14.4372 46.5408 14.4243C45.7477 14.4146 45.2874 14.0057 45.3052 13.3706C45.323 12.7629 45.7639 12.3864 46.5311 12.3815C48.739 12.3702 50.9469 12.3702 53.1531 12.3815C53.9462 12.3848 54.4097 12.8017 54.3903 13.4304C54.3709 14.038 53.9252 14.4146 53.1628 14.4227C52.0484 14.4388 50.9339 14.4275 49.8179 14.4275Z" fill="black"/>
<path d="M15.6261 9.84872C16.0848 9.84872 16.4256 9.8261 16.7632 9.85357C17.3446 9.90044 17.7549 10.3368 17.7565 10.8701C17.7581 11.405 17.3463 11.8575 16.7648 11.8818C16.0396 11.9125 15.3112 11.9109 14.586 11.8818C13.9674 11.8559 13.6137 11.4681 13.6008 10.8717C13.5701 9.51096 13.5701 8.14697 13.604 6.7862C13.6185 6.18825 14.0772 5.79068 14.6102 5.78907C15.1755 5.78745 15.6035 6.20441 15.6197 6.84762C15.6439 7.8189 15.6261 8.79017 15.6261 9.84872Z" fill="black"/>
<path d="M53.2612 52.2144C54.0591 52.2144 54.8553 52.2047 55.6532 52.2177C56.3493 52.229 56.779 52.6282 56.779 53.2293C56.779 53.8225 56.3429 54.2507 55.6548 54.2588C54.0381 54.275 52.4197 54.2766 50.803 54.2572C50.1181 54.2491 49.7031 53.8095 49.7192 53.1986C49.7354 52.6104 50.1343 52.2322 50.7997 52.2193C51.6218 52.2031 52.4423 52.216 53.2612 52.2144Z" fill="black"/>
<path d="M53.305 55.775C54.0803 55.775 54.8539 55.7653 55.6292 55.7782C56.3334 55.7895 56.7663 56.1709 56.7824 56.7673C56.8002 57.3895 56.3496 57.8161 55.6195 57.8226C54.048 57.8339 52.4765 57.8339 50.9049 57.8226C50.1571 57.8177 49.721 57.4218 49.7227 56.7931C49.7243 56.1628 50.1555 55.7863 50.913 55.7782C51.7093 55.7685 52.5072 55.775 53.305 55.775Z" fill="black"/>
<path d="M22.5583 42.7003C22.5583 43.9754 22.568 45.2505 22.5551 46.5256C22.5438 47.7458 21.8186 48.5021 20.6088 48.5086C18.0133 48.5248 15.4178 48.5264 12.8239 48.507C11.6448 48.4989 10.9164 47.7555 10.91 46.5676C10.8938 43.9722 10.8954 41.3751 10.91 38.7796C10.9164 37.608 11.5835 36.8581 12.748 36.8403C15.4113 36.7983 18.0747 36.7967 20.7381 36.8435C21.8929 36.8629 22.547 37.6354 22.5567 38.8055C22.568 40.1048 22.5583 41.4026 22.5583 42.7003ZM20.4603 46.427C20.4603 43.9059 20.4603 41.4187 20.4603 38.9219C17.9439 38.9219 15.4759 38.9219 12.9919 38.9219C12.9919 41.4446 12.9919 43.9172 12.9919 46.427C15.4986 46.427 17.9665 46.427 20.4603 46.427Z" fill="black"/>
<path d="M16.7434 52.2144C17.5381 52.2144 18.3311 52.2047 19.1257 52.2177C19.8332 52.229 20.245 52.6039 20.2547 53.2132C20.2644 53.8176 19.8477 54.2491 19.1629 54.2572C17.53 54.2766 15.8955 54.2782 14.2626 54.2556C13.5939 54.2459 13.1691 53.7788 13.1966 53.1809C13.224 52.6055 13.6327 52.2306 14.2932 52.2193C15.1089 52.2047 15.9261 52.216 16.7434 52.2144Z" fill="black"/>
<path d="M16.7346 57.826C15.9399 57.826 15.1469 57.8373 14.3523 57.8227C13.6271 57.8098 13.1781 57.388 13.1958 56.769C13.212 56.1743 13.6416 55.7848 14.341 55.78C15.9286 55.7687 17.5163 55.7687 19.1056 55.78C19.8405 55.7848 20.2717 56.1937 20.2556 56.8272C20.241 57.4268 19.8179 57.8114 19.1169 57.8243C18.3239 57.8373 17.5292 57.826 16.7346 57.826Z" fill="black"/>
<path d="M11.3785 16.9254C10.7599 16.5553 10.8374 16.0608 10.8374 15.5275C10.839 14.7533 10.839 13.9776 10.8277 13.2035C10.8132 12.2484 10.4417 11.6504 9.77788 11.4856C9.08175 11.3127 8.49384 11.61 8.02707 12.4746C7.21627 13.976 6.4297 15.4903 5.66574 17.0159C5.2345 17.8773 5.67543 18.5771 6.63321 18.6029C7.31156 18.6207 7.99154 18.6061 8.77165 18.6061C8.77165 19.0683 8.74257 19.4336 8.77811 19.7924C8.83464 20.3742 9.29011 20.7782 9.82149 20.7636C10.3577 20.7507 10.7615 20.3354 10.8083 19.7423C10.8213 19.5839 10.8309 19.4223 10.8132 19.2639C10.768 18.8696 10.8778 18.6158 11.2541 18.388C11.7742 18.0728 11.8711 17.2211 11.3785 16.9254ZM9.27395 16.5876C9.27395 16.7218 9.16574 16.83 9.03168 16.83H8.1692C7.99477 16.83 7.87686 16.6507 7.94793 16.4907L8.81041 14.519C8.91539 14.2782 9.27395 14.3542 9.27395 14.616V16.5876Z" fill="black"/>
</g>
<defs>
<clipPath id="clip0_123_1064">
<rect width="70" height="70" fill="white"/>
</clipPath>
</defs>
</svg>
