<svg width="70" height="70" viewBox="0 0 70 70" fill="none" xmlns="http://www.w3.org/2000/svg">
<g clip-path="url(#clip0_123_1034)">
<path d="M0 65.1257C0.411788 64.1675 1.05645 63.5094 2.22792 63.4655C2.24212 63.1825 2.2549 62.9192 2.26626 62.656C2.36849 60.5089 3.61522 58.8473 5.64434 58.1142C5.87153 58.0321 6.13707 57.8566 6.23504 57.6528C7.42497 55.21 9.34334 53.7847 12.0555 53.4394C12.1421 53.4281 12.2244 53.3899 12.338 53.3545C12.338 45.8844 12.338 38.4242 12.338 30.8664C11.7132 31.2217 11.1367 31.5543 10.5546 31.8812C9.28228 32.5974 8.10797 32.2945 7.36533 31.0547C7.01744 30.4744 6.67097 29.8927 6.3458 29.2982C5.74232 28.1957 6.03767 27.0026 7.10264 26.3558C8.35788 25.5944 9.63301 24.8626 10.9096 24.1366C11.5159 23.7912 12.0881 23.9229 12.392 24.4295C12.693 24.9334 12.5382 25.5151 11.9532 25.8689C10.9479 26.4761 9.9241 27.0535 8.90883 27.6452C8.64046 27.8023 8.37776 27.9707 8.04549 28.1745C8.4587 28.8836 8.85061 29.5544 9.26808 30.272C10.1712 29.7512 11.0104 29.2714 11.8467 28.7859C18.9579 24.6517 26.0776 20.5317 33.1717 16.3679C34.3005 15.7055 35.2619 15.7027 36.3907 16.3636C44.1309 20.8997 51.8939 25.3962 59.6511 29.904C59.8428 30.0158 60.0416 30.1149 60.3014 30.2564C60.7033 29.57 61.0867 28.9147 61.5112 28.1886C61.2897 28.0429 61.0966 27.9013 60.8907 27.7824C52.5485 22.9321 44.2005 18.0917 35.8696 13.223C35.0829 12.7631 34.4582 12.7786 33.6772 13.2358C27.9874 16.5759 22.2749 19.8793 16.5681 23.1926C16.392 23.2945 16.2202 23.4091 16.0313 23.4799C15.5173 23.6752 15.08 23.5379 14.7974 23.0751C14.5162 22.6151 14.5901 22.1622 14.9948 21.7942C15.1254 21.6739 15.293 21.5904 15.4492 21.4998C21.2511 18.1243 27.0573 14.7587 32.8522 11.3718C34.1515 10.6132 35.4024 10.5962 36.6946 11.3619C38.2835 12.3045 39.8881 13.2216 41.5551 14.1883C41.592 13.9901 41.6346 13.8698 41.6346 13.7495C41.6389 12.1247 41.6304 10.5 41.6432 8.87516C41.646 8.50435 41.5651 8.32602 41.1433 8.25242C40.0769 8.0656 39.4124 7.23905 39.3982 6.15492C39.3826 5.04955 39.3812 3.94277 39.3982 2.8374C39.4167 1.60324 40.307 0.686114 41.5409 0.681868C46.0465 0.667714 50.552 0.666298 55.0589 0.683282C56.2247 0.687528 57.1335 1.56927 57.1761 2.73125C57.2187 3.90314 57.213 5.07786 57.1775 6.25116C57.1449 7.29 56.4491 8.07975 55.4012 8.25667C54.9695 8.33027 54.9155 8.52416 54.9169 8.88649C54.9255 13.0829 54.9141 17.2808 54.9439 21.4772C54.9453 21.7362 55.1924 22.0929 55.4267 22.2344C57.6575 23.5662 59.9138 24.857 62.1587 26.1661C63.6099 27.0125 63.8996 28.1278 63.0576 29.5785C62.7296 30.1446 62.4158 30.7206 62.0593 31.2684C61.4331 32.2322 60.2844 32.5422 59.2606 32.0157C58.5989 31.676 57.967 31.2797 57.2514 30.8693C57.2514 40.2642 57.2514 49.601 57.2514 58.9379C58.9496 59.3215 59.4282 59.9357 59.4296 61.7261C59.4296 62.2866 59.4296 62.8456 59.4296 63.491C59.7391 63.491 59.9791 63.491 60.2191 63.491C62.5279 63.491 64.8382 63.4882 67.1471 63.4924C68.7246 63.4952 69.5567 64.3374 69.5624 65.9268C69.5638 66.3783 69.5283 66.8326 69.5695 67.2798C69.6874 68.5918 69.1464 69.4934 67.9323 70.0015C49.6361 70.0015 31.3385 70.0015 13.0423 70.0015C12.6036 69.6533 12.2088 69.2839 12.4516 68.6456C12.6902 68.02 13.2127 67.9422 13.7878 67.9691C13.9681 67.9776 14.1499 67.9705 14.3317 67.9705C31.7659 67.9705 49.1988 67.9705 66.633 67.9705C66.917 67.9705 67.1996 67.9705 67.485 67.9705C67.485 67.1057 67.485 66.3485 67.485 65.5715C45.6602 65.5715 23.8724 65.5715 2.09586 65.5715C2.09586 66.3952 2.09586 67.168 2.09586 67.9705C4.19172 67.9705 6.22794 67.979 8.26559 67.9648C8.85061 67.9606 9.37599 68.0427 9.59467 68.6598C9.81618 69.2853 9.44841 69.6802 8.96563 70.0015C6.52046 70.0015 4.07386 70.0015 1.62869 70.0015C0.857656 69.6873 0.312391 69.148 0 68.3753C0 67.2926 0 66.2084 0 65.1257ZM14.4495 36.4017C14.4495 42.1395 14.4495 47.8375 14.4495 53.5257C17.1006 54.4712 18.353 55.4633 19.3115 57.4589C19.5173 57.8863 19.746 57.9868 20.1947 57.926C21.3605 57.766 22.4254 58.076 23.4308 58.6789C23.7375 58.8629 24.1308 58.9917 24.4858 58.9945C28.0854 59.0172 31.6864 59.0087 35.2874 59.0073C35.5075 59.0073 35.7276 58.9874 36.0088 58.9747C36.0088 58.686 36.0088 58.4425 36.0088 58.1991C36.0088 54.0919 36.0088 49.9846 36.0088 45.8773C36.0088 44.1025 36.7954 43.3043 38.559 43.3029C42.0237 43.3 45.4884 43.3 48.9531 43.3029C50.7792 43.3043 51.5502 44.07 51.5516 45.8929C51.5545 49.9775 51.5531 54.0621 51.5531 58.1467C51.5531 58.4114 51.5531 58.6761 51.5531 58.9506C52.8012 58.9506 53.9599 58.9506 55.1129 58.9506C55.1129 51.407 55.1129 43.9242 55.1129 36.4032C41.5452 36.4017 28.0158 36.4017 14.4495 36.4017ZM55.1512 34.2915C55.1512 32.8097 55.1683 31.3901 55.1314 29.9719C55.1257 29.771 54.8928 29.5063 54.6954 29.3902C48.2204 25.6085 41.734 21.8438 35.2562 18.0648C34.9211 17.8695 34.6726 17.8483 34.3318 18.0549C33.2129 18.7343 32.0712 19.3783 30.9381 20.0364C25.626 23.1232 20.3125 26.2086 15.0061 29.3053C14.7761 29.4398 14.4453 29.6776 14.4382 29.8771C14.3899 31.3349 14.4126 32.7941 14.4126 34.2915C28.0073 34.2915 41.5324 34.2915 55.1512 34.2915ZM49.4728 45.3933C45.6489 45.3933 41.8675 45.3933 38.0833 45.3933C38.0833 51.4424 38.0833 57.4306 38.0833 63.4358C41.9016 63.4358 45.6829 63.4358 49.4728 63.4358C49.4728 57.391 49.4728 51.4013 49.4728 45.3933ZM4.38484 63.4415C10.7874 63.4415 17.1943 63.4415 23.5983 63.4415C23.7687 61.2902 22.3686 59.7588 20.4403 59.9329C18.6625 60.0942 18.2862 59.8664 17.457 58.277C16.4829 56.4101 14.9025 55.4194 12.8052 55.4307C10.7079 55.4421 9.10762 56.4399 8.19885 58.335C7.76434 59.2408 7.185 59.7984 6.22368 60.1041C4.79662 60.5556 4.07954 61.9327 4.38484 63.4415ZM55.1101 6.22851C55.1101 5.04955 55.1101 3.91446 55.1101 2.75814C50.5378 2.75814 46.0081 2.75814 41.4813 2.75814C41.4813 3.94701 41.4813 5.08493 41.4813 6.22851C46.0465 6.22851 50.5605 6.22851 55.1101 6.22851ZM43.6765 12.8366C43.6765 13.5698 43.7021 14.2222 43.668 14.8705C43.6453 15.2908 43.81 15.5187 44.1678 15.7197C45.6034 16.5306 47.0234 17.3699 48.4504 18.1979C49.8903 19.0343 51.3301 19.868 52.8353 20.7426C52.8353 18.0535 52.8353 15.4578 52.8353 12.8352C49.7838 12.8366 46.782 12.8366 43.6765 12.8366ZM35.9775 61.0736C32.4234 61.0736 28.926 61.0736 25.4343 61.0736C25.5422 61.8789 25.6445 62.6503 25.751 63.4514C29.1461 63.4514 32.5455 63.4514 35.9775 63.4514C35.9775 62.6545 35.9775 61.8973 35.9775 61.0736ZM43.7234 10.7236C46.7891 10.7236 49.8079 10.7236 52.8253 10.7236C52.8253 9.90127 52.8253 9.1285 52.8253 8.34159C49.7682 8.34159 46.7678 8.34159 43.7234 8.34159C43.7234 9.13558 43.7234 9.89278 43.7234 10.7236ZM51.6013 63.4514C53.5367 63.4514 55.4253 63.4514 57.3394 63.4514C57.3394 62.6404 57.3394 61.8705 57.3394 61.0397C55.5531 61.0397 53.8179 61.0382 52.0841 61.0411C51.9322 61.0411 51.7788 61.0694 51.6013 61.0864C51.6013 61.8917 51.6013 62.6673 51.6013 63.4514Z" fill="black"/>
<path d="M25.8071 43.3025C27.5934 43.3025 29.3797 43.2954 31.166 43.3039C32.7053 43.3124 33.5487 44.1616 33.553 45.6958C33.5573 47.7693 33.5587 49.8427 33.553 51.9161C33.5487 53.4348 32.6797 54.2911 31.1462 54.2925C27.5508 54.2953 23.9555 54.2953 20.3602 54.2925C18.9004 54.2911 18.0286 53.4504 18.0172 51.9982C18.0002 49.8569 17.9988 47.7169 18.0172 45.5755C18.03 44.1559 18.8877 43.3167 20.3119 43.3053C22.1436 43.2926 23.9754 43.3025 25.8071 43.3025ZM20.0946 52.202C23.9228 52.202 27.7042 52.202 31.4756 52.202C31.4756 49.8951 31.4756 47.6504 31.4756 45.3717C27.6687 45.3717 23.903 45.3717 20.0946 45.3717C20.0946 47.6716 20.0946 49.9333 20.0946 52.202Z" fill="black"/>
<path d="M34.7829 31.862C32.2922 31.8634 29.8016 31.8662 27.311 31.862C25.5531 31.8577 24.8786 31.0354 24.7168 29.2903C24.5265 27.2339 25.2563 25.953 27.1364 25.0472C29.1257 24.0876 30.9916 22.8719 32.8957 21.7396C34.1694 20.9824 35.4048 20.9895 36.6742 21.7354C38.9533 23.0757 41.238 24.4061 43.5312 25.7209C44.4017 26.2205 44.8319 26.9381 44.8177 27.933C44.8106 28.4751 44.8234 29.0158 44.8149 29.5578C44.7907 30.976 43.953 31.8436 42.5273 31.8563C39.9458 31.8775 37.3643 31.862 34.7829 31.862ZM26.7885 29.7829C32.1417 29.7829 37.4211 29.7829 42.7772 29.7829C42.7772 29.1785 42.8127 28.6166 42.7602 28.0633C42.7389 27.8425 42.5799 27.5509 42.3938 27.4405C40.1006 26.0804 37.7903 24.7486 35.4872 23.4054C35.0129 23.1294 34.5528 23.128 34.0771 23.4054C31.774 24.7486 29.4651 26.0818 27.1676 27.4349C27.0015 27.5325 26.8183 27.7505 26.8041 27.926C26.7615 28.5261 26.7885 29.1318 26.7885 29.7829Z" fill="black"/>
<path d="M47.0461 54.9679C47.0461 56.0619 46.7252 56.5502 46.0166 56.5346C45.3223 56.5191 45.007 56.0166 45.0084 54.9268C45.0084 54.8363 45.007 54.7471 45.0084 54.6565C45.0297 53.8724 45.4089 53.3997 46.0237 53.3898C46.6457 53.3799 47.0276 53.8455 47.0447 54.631C47.0475 54.7443 47.0461 54.8561 47.0461 54.9679Z" fill="black"/>
</g>
<defs>
<clipPath id="clip0_123_1034">
<rect width="70" height="70" fill="white"/>
</clipPath>
</defs>
</svg>
