<svg width="47" height="70" viewBox="0 0 47 70" fill="none" xmlns="http://www.w3.org/2000/svg">
<g clip-path="url(#clip0_123_1048)">
<path d="M32.3882 0C33.0509 0.317848 33.2335 0.855746 33.2289 1.56479C33.2059 5.18796 33.2181 8.8096 33.2181 12.4328C33.2181 12.6803 33.2181 12.9294 33.2181 13.1831C34.1876 13.3894 35.1387 13.5208 36.0453 13.7943C42.2548 15.6647 46.3107 20.9337 46.3567 27.4053C46.4226 36.7237 46.4119 46.0422 46.3567 55.3606C46.326 60.437 42.7595 64.4927 37.7495 65.379C37.5746 65.4095 37.4028 65.4676 37.1942 65.5226C37.1942 66.5633 37.2003 67.5856 37.1927 68.6094C37.185 69.5782 36.7831 69.9939 35.8182 69.9954C27.3997 70 18.9812 70 10.5627 69.9954C9.5994 69.9954 9.1975 69.5782 9.18983 68.6094C9.18062 67.5856 9.18829 66.5633 9.18829 65.5043C8.77719 65.4202 8.39829 65.3561 8.02707 65.2674C3.20116 64.1076 0.0212171 60.0932 0.0104792 55.0886C-0.00639459 47.3655 -0.000258657 39.6409 0.0104792 31.9178C0.0135472 29.9373 -0.052414 27.9447 0.125528 25.9765C0.709975 19.4896 5.85495 14.2344 12.3437 13.371C12.5922 13.3374 12.8392 13.2855 13.1644 13.2274C13.1644 12.9875 13.1644 12.7445 13.1644 12.5C13.1644 8.85391 13.1766 5.20935 13.1536 1.56326C13.149 0.855746 13.3316 0.317848 13.9943 0C20.1256 0 26.2569 0 32.3882 0ZM2.30071 28.5544C2.30071 37.1394 2.30071 45.6235 2.30071 54.1274C16.2507 54.1274 30.1502 54.1274 44.071 54.1274C44.071 45.596 44.071 37.0966 44.071 28.5544C43.7366 28.5544 43.4651 28.5544 43.1921 28.5544C32.3729 28.5544 21.5553 28.5544 10.7361 28.5513C10.4185 28.5513 10.0918 28.5361 9.78808 28.4566C9.25426 28.3175 8.99961 27.9202 9.01956 27.3854C9.0395 26.8506 9.32022 26.4777 9.86325 26.3738C10.1746 26.3142 10.4983 26.305 10.8174 26.305C21.5905 26.302 32.3637 26.302 43.1369 26.302C43.4268 26.302 43.7167 26.302 44.0327 26.302C44.0327 26.1247 44.0419 26.0376 44.0312 25.9505C43.3056 20.1253 38.383 15.5715 32.4941 15.4814C26.2738 15.3866 20.052 15.3988 13.8317 15.4814C9.08245 15.544 4.76429 18.6736 3.08765 23.1097C2.71029 24.1061 2.52007 25.1727 2.21941 26.302C2.79006 26.302 3.15361 26.2958 3.51716 26.3035C4.29336 26.3188 5.07262 26.305 5.84421 26.3753C6.39031 26.4257 6.76307 26.8414 6.68944 27.3533C6.63421 27.7384 6.31821 28.1296 6.02062 28.4184C5.86416 28.5712 5.50214 28.5452 5.23062 28.5483C4.26881 28.5636 3.31007 28.5544 2.30071 28.5544ZM43.9698 56.4548C30.1149 56.4548 16.2646 56.4548 2.32833 56.4548C2.50167 57.0584 2.60291 57.6223 2.8192 58.1388C4.21512 61.4746 6.9901 63.3007 10.6333 63.3007C18.9598 63.3038 27.2877 63.316 35.6142 63.2824C36.6266 63.2778 37.6682 63.1143 38.6454 62.8454C41.3682 62.0966 43.6753 59.2818 43.9698 56.4548ZM22.0799 13.1922C22.0799 12.5031 22.0538 11.8888 22.0891 11.2775C22.1136 10.8634 21.9832 10.6388 21.6059 10.4263C20.3787 9.73258 19.7927 8.35728 20.1026 7.05226C20.4462 5.60361 21.6887 4.59658 23.1583 4.57518C24.5634 4.55379 25.8213 5.49358 26.2201 6.86125C26.6266 8.25642 26.0544 9.66687 24.7797 10.4477C24.6017 10.5562 24.3348 10.7228 24.3256 10.8741C24.2796 11.6351 24.3042 12.4007 24.3042 13.1693C26.5806 13.1693 28.7604 13.1693 30.9402 13.1693C30.9402 9.50489 30.9402 5.89701 30.9402 2.28148C25.7369 2.28148 20.5858 2.28148 15.4408 2.28148C15.4408 5.94743 15.4408 9.55532 15.4408 13.1938C17.6589 13.1922 19.8219 13.1922 22.0799 13.1922ZM34.9285 65.5807C27.0546 65.5807 19.2696 65.5807 11.4678 65.5807C11.4678 66.3234 11.4678 67.0141 11.4678 67.7139C19.3187 67.7139 27.1205 67.7139 34.9285 67.7139C34.9285 66.9759 34.9285 66.3004 34.9285 65.5807ZM23.2457 6.82763C22.7441 6.80012 22.3115 7.1791 22.2778 7.67268C22.2455 8.15403 22.6459 8.59719 23.1383 8.62317C23.6399 8.65067 24.0725 8.2717 24.1063 7.77965C24.1385 7.29676 23.7381 6.85361 23.2457 6.82763Z" fill="black"/>
<path d="M15.575 35.9811C15.575 36.6214 15.0535 37.141 14.4107 37.141H9.99133V46.6627C9.99133 47.439 9.36087 48.067 8.5816 48.067C7.80234 48.067 7.17188 47.439 7.17188 46.6627V35.7809C7.17188 35.2507 7.60292 34.8213 8.13522 34.8213H14.4107C15.055 34.8228 15.575 35.3409 15.575 35.9811Z" fill="black"/>
<path d="M25.4563 47.0716L24.7967 44.9139H19.9493L19.2897 47.0716C19.1087 47.6629 18.561 48.0664 17.9413 48.0664H17.9382C16.9657 48.0664 16.2861 47.1098 16.6083 46.1959L20.0689 36.387C20.411 35.4166 21.3314 34.7656 22.3653 34.7656C23.3977 34.7656 24.3165 35.4135 24.6601 36.3839L28.1346 46.1929C28.4583 47.1067 27.7772 48.0648 26.8047 48.0648C26.1849 48.0664 25.6373 47.6629 25.4563 47.0716ZM24.1233 42.559C23.232 39.703 22.7304 38.0862 22.6184 37.7118C22.5064 37.3374 22.4251 37.041 22.3776 36.824C22.1782 37.5972 21.6045 39.5089 20.658 42.559H24.1233Z" fill="black"/>
<path d="M39.6613 37.9203C39.6613 38.7715 39.3576 39.476 38.7517 40.0307C38.1458 40.5869 37.3236 40.9399 36.2866 41.0912V41.1462C37.5046 41.2669 38.4403 41.6016 39.0922 42.1517C39.7442 42.7018 40.0694 43.417 40.0694 44.2987C40.0694 45.5181 39.5739 46.4824 38.583 47.1884C37.592 47.8944 36.2191 48.2489 34.4673 48.2489C32.9318 48.2489 31.6355 48.1022 30.5771 47.8073C30.097 47.6743 29.7656 47.2388 29.7656 46.7422C29.7656 46.0148 30.4575 45.4922 31.1631 45.6771C31.3579 45.7275 31.5604 45.7749 31.7705 45.8161C32.5375 45.9705 33.2539 46.0469 33.9212 46.0469C36.1577 46.0469 37.2775 45.3974 37.2775 44.0985C37.2775 43.5133 36.9186 43.0625 36.1991 42.7492C35.4812 42.4359 34.4182 42.2785 33.0115 42.2785H32.8658C32.2583 42.2785 31.7659 41.788 31.7659 41.1829C31.7659 40.5777 32.2583 40.0872 32.8658 40.0872H32.8842C34.2909 40.0872 35.3156 39.9543 35.9583 39.6884C36.601 39.4225 36.9217 38.9824 36.9217 38.365C36.9217 37.9127 36.7207 37.5505 36.3173 37.2831C35.9138 37.0142 35.3094 36.8797 34.5026 36.8797C33.5561 36.8797 32.6326 37.086 31.7353 37.5001C31.226 37.7339 30.6216 37.5582 30.3163 37.0906C29.9374 36.5129 30.1645 35.7367 30.7934 35.4463C31.206 35.2553 31.6309 35.101 32.0666 34.9802C32.9149 34.748 33.8583 34.6318 34.8953 34.6318C36.3449 34.6318 37.5015 34.9344 38.3651 35.538C39.2288 36.1416 39.6613 36.9362 39.6613 37.9203Z" fill="black"/>
</g>
<defs>
<clipPath id="clip0_123_1048">
<rect width="46.4045" height="70" fill="white"/>
</clipPath>
</defs>
</svg>
