<svg width="53" height="70" viewBox="0 0 53 70" fill="none" xmlns="http://www.w3.org/2000/svg">
<g clip-path="url(#clip0_123_1022)">
<path d="M27.3647 42.8558C27.3647 45.3137 27.3662 47.7701 27.3632 50.2281C27.3616 51.0859 26.99 51.5517 26.3283 51.5487C25.6711 51.5457 25.3025 51.0769 25.3025 50.2175C25.301 45.3032 25.2995 40.3873 25.3025 35.4729C25.3025 34.6932 25.6364 34.2455 26.2362 34.1854C26.8978 34.1208 27.3601 34.6106 27.3616 35.4143C27.3677 37.8963 27.3647 40.3753 27.3647 42.8558Z" fill="black"/>
<path d="M52.8774 41.3146C52.8699 40.3576 52.465 39.6079 51.6386 39.088C51.0585 38.7215 50.4739 38.3594 49.93 37.9432C49.655 37.7344 49.3952 37.4444 49.2532 37.1349C48.7713 36.0787 48.4163 34.9624 47.8815 33.9348C47.0762 32.3888 46.7711 30.8383 47.4101 29.1707C47.4494 29.067 47.4403 28.9453 47.4615 28.8341C47.6262 27.9582 47.3693 27.2115 46.7469 26.588C45.6501 25.4883 44.5458 24.3945 43.443 23.3008C42.7933 22.6547 41.9685 22.3287 41.1195 22.6142C39.2099 23.2572 37.459 22.9973 35.7428 22.0343C35.2881 21.7788 34.7714 21.6331 34.288 21.4288C34.1354 21.3642 33.9949 21.2695 33.8046 21.1629C34.01 20.9991 34.1535 20.8879 34.2925 20.7722C39.5408 16.4318 40.4079 8.9393 36.3033 3.52915C35.1823 2.04928 33.7275 0.972055 32.173 0C31.9433 0 31.7152 0 31.4856 0C30.913 0.30649 30.762 0.791767 30.7665 1.41827C30.7876 4.53426 30.7635 7.64874 30.7876 10.7647C30.7922 11.3912 30.6033 11.7803 30.0111 12.0418C29.0307 12.473 28.0729 12.9597 27.1166 13.4435C26.5833 13.7139 26.0802 13.7124 25.5469 13.442C24.6118 12.9657 23.6782 12.482 22.7158 12.0658C22.1055 11.8014 21.8683 11.4318 21.8759 10.7632C21.9061 7.64874 21.8774 4.53275 21.8985 1.41677C21.9031 0.790264 21.7505 0.304988 21.1734 0.0015024C20.9438 0.0015024 20.7156 0.0015024 20.486 0.0015024C20.3017 0.127704 20.125 0.262921 19.9346 0.377103C17.6504 1.7473 15.9508 3.63582 14.8586 6.05619C14.5474 6.7473 14.7196 7.30018 15.2937 7.56911C15.8541 7.83203 16.4146 7.59766 16.7273 6.91256C17.315 5.63101 18.1051 4.4997 19.1369 3.53816C19.3243 3.36388 19.5282 3.20613 19.8258 2.95373C19.8258 3.36689 19.8258 3.61629 19.8258 3.86418C19.8258 6.23347 19.8319 8.60277 19.8243 10.9736C19.8198 12.2912 20.3878 13.2347 21.5964 13.8026C22.6509 14.2984 23.6948 14.8197 24.7417 15.3305C25.7992 15.8459 26.8582 15.8474 27.9158 15.3335C28.943 14.8347 29.9598 14.3089 30.9991 13.8356C32.2697 13.2572 32.8513 12.2897 32.8422 10.9135C32.8271 8.54417 32.8377 6.17488 32.8377 3.80409C32.8377 3.56671 32.8377 3.32782 32.8377 2.91316C33.2698 3.3098 33.581 3.56671 33.8589 3.85517C38.3564 8.50661 37.6735 15.8744 32.3633 19.6424C30.5671 20.9165 29.6893 22.5601 29.8162 24.7611C29.9447 26.9892 30.0157 29.2218 30.1184 31.4513C30.2785 34.9099 30.4356 38.3699 30.6124 41.8284C30.6517 42.5992 31.0671 42.9853 31.7062 42.9462C32.3346 42.9087 32.6942 42.4489 32.6594 41.6917C32.5627 39.5523 32.4343 37.4144 32.3633 35.2749C32.3195 33.9739 32.3558 32.6698 32.3558 31.3987C35.6567 32.7704 39.9018 37.0328 40.0363 43.3338C40.1617 49.2383 36.4181 53.7245 33.2969 55.2629C33.2441 54.2488 33.1882 53.2572 33.1413 52.2656C33.0447 50.1713 32.957 48.0784 32.8543 45.9841C32.8211 45.3065 32.3709 44.8603 31.7892 44.8813C31.1955 44.9023 30.8012 45.3576 30.8012 46.0457C30.8012 46.4784 30.8284 46.9111 30.8481 47.3438C30.975 50.1427 31.0898 52.9432 31.2439 55.7407C31.2711 56.2305 31.0988 56.4213 30.6607 56.558C27.7753 57.4655 24.8973 57.4609 22.0118 56.5595C21.5798 56.4243 21.394 56.244 21.4212 55.7482C21.5601 53.2001 21.6508 50.6505 21.7671 48.101C22.1206 40.3636 22.459 32.6247 22.8473 24.8888C22.9621 22.6067 22.1221 20.8924 20.2398 19.5928C18.1263 18.134 16.75 16.1148 16.1669 13.6253C15.9357 12.6382 15.9267 11.5986 15.8421 10.5799C15.7892 9.93239 15.4266 9.50421 14.851 9.48918C14.3132 9.47566 13.8796 9.86178 13.795 10.4567C13.7633 10.6806 13.7633 10.912 13.7678 11.1388C13.8373 14.5463 15.0293 17.4925 17.448 19.9249C17.877 20.3561 18.3483 20.7452 18.8711 21.2169C17.596 21.7413 16.3648 22.2476 15.0958 22.7704C15.1486 22.8816 15.2 22.9943 15.2483 23.1115C15.4825 23.6704 15.6426 24.2037 15.7559 24.6965C16.9026 24.2172 18.0598 23.7605 19.2125 23.2963C19.6249 23.1295 20.0419 22.9703 20.5978 22.7509C20.6688 23.3984 20.7836 23.9303 20.7746 24.4606C20.7534 25.7587 20.6477 27.0553 20.6356 28.3534C20.631 28.8477 20.4331 29.0505 20.0071 29.2488C14.4144 31.8465 11.1815 36.2154 10.6361 42.3107C9.76895 51.9937 17.8392 59.9594 27.5849 59.2218C37.3789 58.4796 44.1409 49.0129 41.5682 39.5898C40.2463 34.7446 37.2158 31.3116 32.6398 29.2052C32.3996 29.0941 32.0899 28.8116 32.0748 28.5892C31.969 27.1124 31.9116 25.6325 31.889 24.1526C31.8829 23.7064 32.04 23.2572 32.1307 22.7614C33.3151 23.2437 34.4013 23.5757 35.3787 24.1046C37.2777 25.1352 39.1978 25.3591 41.2554 24.6815C41.5153 24.5959 41.9625 24.7791 42.1996 24.9805C42.8085 25.4958 43.2828 26.1809 43.9264 26.6391C45.3419 27.6442 45.6622 28.8792 45.0579 30.4582C44.7331 31.3071 44.8872 32.1499 45.2634 32.9748C45.706 33.9483 46.1713 34.9234 46.4901 35.939C47.1533 38.0529 48.2924 39.7326 50.353 40.7272C50.5857 40.8398 50.7775 41.253 50.7987 41.54C50.8591 42.3558 50.7156 43.1956 50.8425 43.9964C51.1069 45.6656 50.5116 46.7653 48.9631 47.4459C48.0854 47.832 47.5793 48.5802 47.2485 49.4817C46.8496 50.5709 46.4448 51.6707 45.9009 52.6908C44.9386 54.4952 44.6515 56.3206 45.357 58.2662C45.3797 58.3293 45.4009 58.4075 45.3842 58.4676C45.2981 58.771 45.28 59.1436 45.0881 59.36C44.4974 60.024 43.7572 60.5679 43.2239 61.271C42.2993 62.4895 41.2267 62.8125 39.7946 62.2656C38.7884 61.8825 37.7838 62.0463 36.8033 62.5165C35.8984 62.9507 34.9769 63.3849 34.0191 63.6704C31.901 64.3014 30.2438 65.4327 29.2512 67.4594C29.1319 67.7043 28.6892 67.9041 28.3811 67.9252C27.5154 67.9883 26.6256 67.8441 25.7735 67.9703C24.2281 68.1986 23.2099 67.6713 22.5708 66.2545C22.1282 65.2719 21.3018 64.692 20.273 64.3359C19.2805 63.9934 18.3287 63.5382 17.3528 63.146C13.8449 61.7338 15.0414 61.872 11.4247 62.5285C11.1301 62.5826 10.7132 62.4354 10.476 62.2356C9.88226 61.7383 9.423 61.0682 8.79756 60.625C7.34273 59.5944 6.98922 58.3278 7.62826 56.6932C7.99234 55.7602 7.72948 54.8543 7.28835 53.9964C6.9998 53.4345 6.50881 53.2106 5.99366 53.4014C5.43771 53.6073 5.10686 54.1692 5.39843 54.7281C5.80028 55.4988 5.63864 56.2215 5.48303 56.9757C5.39088 57.4219 5.30175 57.8681 5.21261 58.3143C5.0283 59.2398 5.30023 60.0195 5.96646 60.6776C6.87592 61.5775 7.83523 62.4354 8.67519 63.3954C9.70248 64.5688 10.8869 64.9264 12.3629 64.4501C13.585 64.0565 14.7649 64.0805 15.9146 64.7596C16.4403 65.0706 17.034 65.293 17.6232 65.4627C19.5071 66.0051 20.9604 67.0222 21.8532 68.8206C22.2672 69.656 23.0935 69.997 24.0362 69.997C25.5711 69.997 27.1075 69.9985 28.6424 69.997C29.5851 69.9955 30.3193 69.6064 30.8405 68.8251C31.2333 68.2377 31.6019 67.6307 32.0325 67.0718C32.2425 66.7999 32.5355 66.5445 32.8468 66.4047C33.9088 65.927 35.0418 65.5874 36.0631 65.0391C37.6418 64.1902 39.219 64.0009 40.9261 64.5583C41.964 64.8963 42.8508 64.5343 43.6031 63.771C44.5488 62.8095 45.4855 61.8389 46.4765 60.9255C47.4162 60.0571 47.7515 59.0445 47.3633 57.841C46.8919 56.3822 46.9599 55.003 47.7395 53.6554C48.0114 53.1851 48.2289 52.6698 48.3755 52.1469C48.8861 50.329 49.8998 48.9573 51.6401 48.107C52.5118 47.6803 52.8759 46.851 52.882 45.8939C52.888 44.3675 52.8895 42.841 52.8774 41.3146ZM19.3802 55.2825C16.2635 53.6929 12.3115 49.2263 12.6363 42.7749C12.875 38.0273 16.3512 32.838 20.4815 31.3356C20.1144 39.3179 19.7503 47.2641 19.3802 55.2825Z" fill="black"/>
<path d="M18.072 21.5596C17.7713 21.6723 17.4707 21.7864 17.1942 21.9412C15.4796 22.9042 13.7271 23.1641 11.8176 22.5211C10.9685 22.2357 10.1437 22.5617 9.49407 23.2077C8.39124 24.303 7.28691 25.3952 6.19012 26.495C5.56922 27.1185 5.31088 27.8652 5.47555 28.7411C5.4967 28.8522 5.48764 28.9739 5.52692 29.0776C5.71424 29.5659 5.82151 30.0451 5.85776 30.5169C5.90913 31.1795 5.7082 32.0629 5.05708 33.8432C5.04802 33.8673 5.03744 33.8943 5.02838 33.9198C4.93018 34.1783 4.83047 34.4382 4.73227 34.6966C4.67638 34.8393 4.61595 34.9881 4.5525 35.1443C4.4966 35.278 4.44524 35.4042 4.39538 35.5244C4.38028 35.562 4.36517 35.5965 4.34855 35.6341C3.97993 36.5145 3.74577 37.0163 3.3968 37.455C2.95718 38.0064 2.49792 38.4977 1.36185 39.0656C0.391969 39.5494 0.0112664 40.4343 0.0248629 41.5055C0.0399702 42.736 0.0913347 43.9709 0.0112664 45.1954C-0.0854198 46.7038 0.434269 47.8051 1.79996 48.5082C2.88164 49.0656 3.79714 49.7882 4.0736 51.0638C4.0872 51.1284 4.12799 51.19 4.16424 51.2471C4.45128 51.6933 4.87428 51.827 5.35771 51.6798C5.85323 51.5265 6.16444 51.1209 6.02848 50.6311C5.73086 49.5629 5.43174 48.4706 4.43164 47.775C3.66722 47.2432 2.6082 46.854 2.23354 46.1209C1.84226 45.3546 2.21541 44.2384 2.07038 43.3024C1.80298 41.5806 2.43144 40.4583 4.01015 39.7522C4.83954 39.3811 5.31995 38.6659 5.6372 37.8126C6.00733 36.821 6.46054 35.8595 6.85031 34.8754C7.61624 33.0605 7.62833 33.0545 7.68121 32.8847C7.97731 31.9367 8.15708 31.0728 7.88666 30.3682C7.28237 28.7891 7.60265 27.5542 9.0182 26.5491C9.66176 26.0923 10.1376 25.4072 10.745 24.8904C10.9821 24.6891 11.4293 24.5058 11.6892 24.5914C13.7468 25.269 15.6669 25.0451 17.5659 24.0145C18.3076 23.6119 19.1113 23.3234 19.974 22.9974L18.072 21.5596Z" fill="black"/>
</g>
<defs>
<clipPath id="clip0_123_1022">
<rect width="52.8889" height="70" fill="white"/>
</clipPath>
</defs>
</svg>
