<svg width="22" height="21" viewBox="0 0 22 21" fill="none" xmlns="http://www.w3.org/2000/svg">
<path fill-rule="evenodd" clip-rule="evenodd" d="M10.6875 20.3438C15.7616 20.3438 19.875 16.2304 19.875 11.1562C19.875 6.08213 15.7616 1.96875 10.6875 1.96875C5.61338 1.96875 1.5 6.08213 1.5 11.1562C1.5 12.804 1.93378 14.3505 2.69337 15.6876L1.5 20.3438L6.30038 19.2306C7.60403 19.9404 9.09867 20.3438 10.6875 20.3438ZM10.6875 18.9303C14.981 18.9303 18.4615 15.4497 18.4615 11.1562C18.4615 6.86277 14.981 3.38221 10.6875 3.38221C6.39402 3.38221 2.91346 6.86277 2.91346 11.1562C2.91346 12.814 3.43233 14.3505 4.31652 15.6123L3.62019 18.2236L6.27745 17.5592C7.53052 18.4239 9.04988 18.9303 10.6875 18.9303Z" fill="#BFC8D0"/>
<path d="M18.5625 10.5C18.5625 14.8492 15.0367 18.375 10.6875 18.375C9.02861 18.375 7.48952 17.8621 6.22018 16.9861L3.52841 17.6591L4.23378 15.014C3.33811 13.7358 2.8125 12.1793 2.8125 10.5C2.8125 6.15076 6.33826 2.625 10.6875 2.625C15.0367 2.625 18.5625 6.15076 18.5625 10.5Z" fill="url(#paint0_linear_150_1006)"/>
<path fill-rule="evenodd" clip-rule="evenodd" d="M10.6875 19.6875C15.7616 19.6875 19.875 15.5741 19.875 10.5C19.875 5.42588 15.7616 1.3125 10.6875 1.3125C5.61338 1.3125 1.5 5.42588 1.5 10.5C1.5 12.1478 1.93378 13.6942 2.69337 15.0314L1.5 19.6875L6.30038 18.5744C7.60403 19.2842 9.09867 19.6875 10.6875 19.6875ZM10.6875 18.274C14.981 18.274 18.4615 14.7935 18.4615 10.5C18.4615 6.20652 14.981 2.72596 10.6875 2.72596C6.39402 2.72596 2.91346 6.20652 2.91346 10.5C2.91346 12.1577 3.43233 13.6943 4.31652 14.9561L3.62019 17.5673L6.27745 16.903C7.53052 17.7677 9.04988 18.274 10.6875 18.274Z" fill="white"/>
<path d="M8.38966 6.23477C8.17122 5.79602 7.83612 5.83486 7.49759 5.83486C6.89259 5.83486 5.94922 6.55955 5.94922 7.90826C5.94922 9.01359 6.43629 10.2236 8.07755 12.0335C9.66149 13.7803 11.7427 14.6839 13.4705 14.6532C15.1983 14.6224 15.5537 13.1356 15.5537 12.6335C15.5537 12.4109 15.4156 12.2999 15.3205 12.2697C14.7317 11.9872 13.6458 11.4607 13.3987 11.3617C13.1516 11.2628 13.0226 11.3966 12.9424 11.4694C12.7183 11.6829 12.2742 12.3122 12.1221 12.4538C11.97 12.5953 11.7433 12.5237 11.6489 12.4702C11.3017 12.3309 10.3603 11.9121 9.60992 11.1847C8.68189 10.2851 8.62743 9.97556 8.45258 9.70005C8.31271 9.47964 8.41535 9.34441 8.46657 9.28531C8.66652 9.0546 8.94261 8.6984 9.06642 8.5214C9.19023 8.34439 9.09194 8.07564 9.03296 7.90826C8.77931 7.18839 8.56442 6.58578 8.38966 6.23477Z" fill="white"/>
<defs>
<linearGradient id="paint0_linear_150_1006" x1="17.5781" y1="4.59375" x2="2.8125" y2="18.375" gradientUnits="userSpaceOnUse">
<stop stop-color="#5BD066"/>
<stop offset="1" stop-color="#27B43E"/>
</linearGradient>
</defs>
</svg>
