<svg width="151" height="77" viewBox="0 0 151 77" fill="none" xmlns="http://www.w3.org/2000/svg">
<path fill-rule="evenodd" clip-rule="evenodd" d="M81.2017 26.555C77.7035 27.2153 75.4076 27.6751 75.3537 27.7263C75.2808 27.7955 75.3347 28.3366 75.4225 28.4172C75.4587 28.4504 75.6945 28.5306 75.9465 28.5955C76.5947 28.7623 76.7477 28.8364 76.9416 29.0777C77.2534 29.4656 77.383 29.814 77.4685 30.4938C77.6087 31.6103 77.608 31.5553 77.6112 40.8183L77.6143 49.8225L77.8999 49.8878C78.6646 50.0625 80.7623 50.4226 81.4872 50.5036C82.0414 50.5654 84.712 50.565 85.2709 50.5029C87.1564 50.2937 88.8271 49.494 90.125 48.1797C91.379 46.9098 92.1007 45.3904 92.4864 43.2079C92.5633 42.7727 92.5695 42.6408 92.5692 41.4355C92.5689 40.0161 92.5166 39.4087 92.3159 38.4918C91.771 36.0028 89.929 34.0546 87.4662 33.3625C87.128 33.2675 87.0708 33.2623 86.3775 33.2642C84.8184 33.2684 83.9934 33.4235 82.8196 33.9327C82.5938 34.0307 82.393 34.1109 82.3735 34.1109C82.3387 34.1109 82.3526 31.3773 82.401 28.7034C82.4126 28.0668 82.4107 27.2814 82.397 26.9581L82.372 26.3704L82.2598 26.3734C82.1981 26.3751 81.7219 26.4569 81.2017 26.555ZM30.4431 27.3414V27.9145L30.9928 27.9362C31.7777 27.9673 32.1608 28.0869 32.6178 28.4437C32.8636 28.6357 32.9852 28.8033 33.1735 29.2098C33.4958 29.9055 33.6323 30.7145 33.7287 32.5013C33.7876 33.592 33.8138 40.4459 33.7666 42.4302C33.6873 45.7711 33.5609 46.884 33.1668 47.711C32.8816 48.3094 32.3619 48.7297 31.7817 48.8311C31.6639 48.8517 31.4195 48.8937 31.2386 48.9244C30.811 48.9971 30.576 49.0692 30.5038 49.1501C30.459 49.2002 30.4432 49.3066 30.4355 49.6116L30.4253 50.008L36.3727 50.0172L42.3202 50.0263L42.3821 49.8024C42.4459 49.5723 42.439 49.3516 42.3612 49.1253C42.3147 48.9904 42.2844 48.9809 41.4283 48.834C40.4917 48.6733 40.5111 48.6803 40.2024 48.3882C39.7555 47.9653 39.4825 47.5176 39.311 46.9262C39.2373 46.6721 39.2126 46.484 39.1882 45.9931C39.1715 45.6549 39.1332 45.1259 39.1031 44.8175C39.0047 43.8071 38.9708 42.9817 38.9493 41.0775L38.9281 39.2002L39.8703 39.2215C41.1343 39.2501 42.0711 39.3906 42.3832 39.5982C42.5966 39.7402 42.9953 40.1405 43.171 40.3892C43.3897 40.6985 43.6017 41.1655 43.687 41.526C43.7271 41.6951 43.7937 41.9596 43.835 42.1137L43.9101 42.3941H44.4406H44.9711V38.4685V34.5429L44.4819 34.553L43.9927 34.5631L43.8778 35.1449C43.7424 35.8301 43.6063 36.21 43.358 36.5962C43.0456 37.0819 42.5027 37.5585 42.12 37.683C41.935 37.7432 41.6307 37.7509 39.995 37.7371L38.9276 37.728L38.9496 35.1689C38.9799 31.6398 39.0593 29.1669 39.1546 28.7834L39.1953 28.6196L40.3609 28.5944C42.5095 28.548 42.9174 28.5522 43.3291 28.6256C43.8152 28.7123 44.4592 28.908 44.7748 29.0648C45.2455 29.2989 45.9379 29.8844 46.3787 30.4211C46.9525 31.1197 47.3169 31.7981 47.628 32.7474C47.8466 33.4144 47.9365 33.6202 48.0244 33.6543C48.1366 33.698 48.2943 33.676 48.5117 33.5864C48.6769 33.5185 48.7963 33.496 48.9929 33.496H49.2545V30.1321V26.7682H39.8488H30.4431V27.3414ZM100.905 32.9194C97.7421 33.2718 95.2454 35.3113 94.268 38.3414C93.8128 39.7527 93.7117 40.4794 93.7405 42.1332C93.7601 43.2552 93.8092 43.736 93.9796 44.4739C94.1647 45.2753 94.6109 46.314 95.0637 46.9974C96.3663 48.9637 98.4541 50.2522 100.673 50.4596C101.183 50.5072 102.275 50.5064 102.797 50.4581C104.111 50.3365 105.446 49.8188 106.74 48.9297C107.048 48.7187 107.625 48.143 107.887 47.7857L108.111 47.4805L108.058 47.3517C107.992 47.1899 107.766 46.9516 107.679 46.9516C107.596 46.9516 107.398 47.0537 107.09 47.2552C106.57 47.5945 106.003 47.8292 105.356 47.9717C105.037 48.0421 104.885 48.0521 104.118 48.0534C103.403 48.0545 103.188 48.0427 102.94 47.9889C102.314 47.8531 101.769 47.6223 101.245 47.2719C100.936 47.0645 100.202 46.3658 99.9598 46.0473C99.4208 45.3386 98.9315 44.0362 98.7648 42.8665C98.7227 42.571 98.6909 42.1243 98.6847 41.743L98.6745 41.11L103.542 41.1008L108.409 41.0916L108.392 40.0157C108.379 39.2449 108.358 38.8423 108.315 38.5961C108.057 37.0945 107.427 35.8207 106.424 34.7693C105.833 34.1494 105.112 33.6251 104.547 33.404C104.139 33.2444 103.402 33.0507 102.904 32.9725C102.456 32.9021 101.33 32.8722 100.905 32.9194ZM69.7078 32.9612C68.8616 33.1116 64.0314 34.0909 63.2224 34.276C62.8424 34.3631 62.8382 34.3684 62.8496 34.7488C62.8549 34.9251 62.8722 35.0829 62.8881 35.0994C62.9235 35.136 63.6554 35.3015 63.79 35.3033C63.9747 35.3058 64.2793 35.452 64.4724 35.6308C64.8668 35.996 65.0106 36.4615 65.1035 37.6738C65.1527 38.3164 65.2218 43.386 65.1945 44.3473C65.1549 45.7357 64.9864 47.6355 64.8744 47.9557C64.765 48.2683 64.4695 48.6079 64.1738 48.7608C64.0065 48.8473 63.4852 48.9716 63.1399 49.0074L62.9079 49.0314L62.8801 49.4474C62.8647 49.6762 62.861 49.9 62.8718 49.9447L62.8914 50.0261H67.7988H72.7062L72.7139 49.6734C72.7221 49.2963 72.7164 49.0471 72.699 49.0311C72.6932 49.0257 72.4876 49.002 72.2422 48.9786C71.5446 48.9118 71.0001 48.8075 70.8339 48.7088C70.6525 48.6011 70.3577 48.288 70.2351 48.0729C70.0974 47.8314 70.0248 47.5496 70.0115 47.2048C70.0049 47.0357 69.9823 46.6694 69.9612 46.3909C69.8785 45.301 69.8481 43.972 69.8495 41.5079C69.8503 40.0954 69.8655 38.7632 69.8831 38.5474C69.9208 38.0876 69.9531 38.0368 70.3635 37.7931C70.9207 37.4622 71.4126 37.3484 72.1739 37.3744C72.9304 37.4003 73.2752 37.4953 74.3027 37.9609C74.764 38.1699 74.7617 38.1707 74.9277 37.7642C75.2568 36.9582 76.3802 34.1083 76.4583 33.8813L76.5435 33.6337L76.3688 33.4729C76.1518 33.2731 75.9425 33.1475 75.6375 33.0339C75.1885 32.8666 74.2049 32.8891 73.5363 33.082C72.9143 33.2615 72.1363 33.7261 71.5371 34.276C71.0181 34.7524 70.6532 35.2436 70.2358 36.028L69.9952 36.4801L69.9854 34.7107C69.979 33.5684 69.9629 32.9387 69.9398 32.9339C69.9202 32.9297 69.8158 32.942 69.7078 32.9612ZM54.2161 32.9877C52.7832 33.1101 51.4052 33.5522 50.4213 34.2051C49.8855 34.5606 49.6754 34.7317 49.2063 35.1946C47.9295 36.4545 47.1962 37.9052 46.8655 39.8259C46.7379 40.5665 46.7036 41.0172 46.7058 41.9238C46.7121 44.4783 47.4063 46.623 48.7165 48.1356C49.8004 49.3871 51.4126 50.2638 53.0203 50.476C53.9875 50.6038 55.7237 50.5761 56.4828 50.4209C59.3092 49.843 61.537 47.8692 62.4231 45.1578C62.777 44.0751 62.8716 43.3278 62.8717 41.6164C62.8718 40.1747 62.8215 39.6382 62.6057 38.7816C62.3355 37.7095 61.7522 36.5522 61.0568 35.7091C60.7128 35.292 60.0989 34.7017 59.6775 34.3827C58.8466 33.7539 57.4199 33.221 56.0977 33.0456C55.5798 32.9769 54.6702 32.9489 54.2161 32.9877ZM115.076 33.0263C113.255 33.1905 111.499 34.1927 110.544 35.6126C110.171 36.1677 109.887 36.8819 109.772 37.5571C109.691 38.0305 109.719 39.1428 109.823 39.5579C109.971 40.1448 110.224 40.679 110.576 41.1462C111.195 41.968 112.415 42.8052 113.577 43.2073C114.526 43.5355 115.713 44.0943 116.279 44.4794C117.119 45.0502 117.426 45.6104 117.387 46.4994C117.361 47.0761 117.203 47.4916 116.839 47.9342C116.397 48.4729 115.78 48.7426 114.898 48.7831C114.196 48.8152 113.85 48.7477 113.311 48.4729C112.021 47.8154 111.033 46.6549 110.599 45.2877C110.545 45.1186 110.45 44.846 110.388 44.682L110.275 44.3837L110.061 44.3831C109.943 44.3827 109.731 44.4111 109.588 44.4462L109.33 44.51L109.33 47.0149L109.329 49.5197H109.475C109.555 49.5197 109.832 49.584 110.09 49.6626C111.005 49.9401 111.791 50.1172 112.756 50.2627C113.298 50.3444 113.449 50.3515 114.641 50.3516C116.093 50.3516 116.385 50.3286 117.2 50.1492C117.908 49.9931 118.304 49.8577 118.799 49.6021C120.096 48.9331 121.015 47.8412 121.517 46.3749C121.707 45.8222 121.76 45.4541 121.762 44.6728C121.764 43.9303 121.706 43.5629 121.497 43.0083C121.313 42.5214 120.774 41.8108 120.199 41.2997C119.497 40.6763 118.778 40.2719 117.739 39.9181C116.603 39.5311 115.815 39.111 114.951 38.4326C114.454 38.0418 114.264 37.7823 114.129 37.3106C114.047 37.025 114.075 36.3039 114.181 35.9556C114.383 35.2968 114.917 34.7408 115.576 34.5041C115.772 34.4338 115.878 34.4209 116.254 34.4217C116.646 34.4225 116.735 34.4347 116.983 34.5216C117.642 34.7524 118.178 35.0853 118.676 35.5735C119.281 36.1675 119.648 36.7948 119.882 37.6376C119.932 37.8166 120.026 38.0805 120.092 38.2239C120.246 38.5616 120.289 38.5742 120.727 38.4101L121.055 38.2875L121.065 36.0714L121.074 33.8554L120.904 33.7817C120.362 33.5464 118.953 33.2039 118.003 33.0769C117.491 33.0083 115.632 32.9762 115.076 33.0263ZM101.879 34.4521C102.268 34.6386 102.606 35.1174 102.833 35.804C103.085 36.5675 103.292 37.9088 103.323 38.9795L103.342 39.6341L101.054 39.6605C99.7956 39.6751 98.7495 39.6766 98.7292 39.6639C98.7068 39.6499 98.6923 39.452 98.6923 39.1609C98.6923 38.7764 98.7136 38.5692 98.7996 38.1186C99.2653 35.6767 100.231 34.278 101.408 34.3418C101.605 34.3524 101.734 34.3827 101.879 34.4521ZM55.1514 34.404C55.498 34.477 55.7808 34.6454 56.0854 34.9601C56.8379 35.7378 57.2862 36.7153 57.5873 38.2351C57.8018 39.318 57.8808 40.3286 57.9137 42.4121C57.9381 43.9602 57.9125 44.4194 57.7476 45.3842C57.6143 46.1644 57.2777 47.3779 57.0391 47.9379C56.8622 48.3532 56.3826 48.818 55.8644 49.0762C55.7143 49.151 55.5643 49.2396 55.531 49.273C55.4495 49.3548 55.2098 49.3866 54.8072 49.3687C54.4995 49.3551 54.4475 49.3414 54.1658 49.1999C53.0187 48.6239 52.2406 46.767 51.9962 44.0217C51.9325 43.3066 51.9322 39.9323 51.9957 39.211C52.24 36.4379 53.0263 34.7449 54.2161 34.4297C54.4863 34.3582 54.8822 34.3473 55.1514 34.404ZM84.4142 35.3089C84.5419 35.3284 84.7346 35.3852 84.8426 35.435C85.4551 35.7178 86.339 36.6763 86.7478 37.5012C87.2594 38.5336 87.3924 39.3626 87.3933 41.526C87.3941 43.5834 87.2605 44.6574 86.8581 45.829C86.4866 46.9106 85.7635 48.1427 85.1869 48.6767C84.6884 49.1383 83.9244 49.3587 83.1401 49.2671C82.6994 49.2157 82.6741 49.2077 82.6443 49.1109C82.6309 49.0672 82.6054 49.0219 82.5876 49.0104C82.5342 48.9754 82.45 44.0556 82.4267 39.6027L82.4048 35.4188L82.5439 35.3831C82.6204 35.3636 82.7473 35.3311 82.8258 35.311C83.0095 35.2641 84.112 35.2626 84.4142 35.3089Z" fill="#818181"/>
<rect x="1.2808" y="0.292517" width="148.438" height="75.4599" stroke="#818181" stroke-width="0.585034"/>
</svg>
