<svg width="18" height="18" viewBox="0 0 18 18" fill="none" xmlns="http://www.w3.org/2000/svg">
<path d="M7.59396 1.125C7.81774 1.125 8.03235 1.21389 8.19058 1.37213C8.34882 1.53036 8.43771 1.74497 8.43771 1.96875V9C8.43771 9.14918 8.49697 9.29226 8.60246 9.39775C8.70795 9.50324 8.85103 9.5625 9.00021 9.5625C9.1494 9.5625 9.29247 9.50324 9.39796 9.39775C9.50345 9.29226 9.56271 9.14918 9.56271 9V6.15037L9.65946 6.14587C10.0161 6.13237 10.3761 6.13687 10.5775 6.17625C10.7282 6.20662 10.9082 6.28425 11.0815 6.381C11.1681 6.42825 11.2502 6.54638 11.2502 6.73425V9C11.2502 9.14918 11.3095 9.29226 11.415 9.39775C11.5205 9.50324 11.6635 9.5625 11.8127 9.5625C11.9619 9.5625 12.105 9.50324 12.2105 9.39775C12.3159 9.29226 12.3752 9.14918 12.3752 9V7.23938C12.4149 7.23519 12.4547 7.23144 12.4945 7.22813C12.85 7.20113 13.1515 7.21688 13.291 7.27313C13.4237 7.32488 13.6285 7.506 13.8377 7.75688C13.9288 7.86487 14.0065 7.97062 14.0627 8.04825V9.5625C14.0627 9.71168 14.122 9.85476 14.2275 9.96025C14.333 10.0657 14.476 10.125 14.6252 10.125C14.7744 10.125 14.9175 10.0657 15.023 9.96025C15.1284 9.85476 15.1877 9.71168 15.1877 9.5625V8.4375H15.5725C15.7297 8.4375 15.8852 8.47045 16.0289 8.53424C16.1726 8.59802 16.3013 8.69122 16.4068 8.80782C16.5123 8.92442 16.5921 9.06184 16.6412 9.2112C16.6903 9.36057 16.7076 9.51856 16.6918 9.675L16.387 12.7294C16.3476 13.1219 16.2261 13.5017 16.0303 13.8442L14.461 16.5915C14.4118 16.6776 14.3407 16.7492 14.255 16.7989C14.1692 16.8487 14.0719 16.875 13.9727 16.875H6.78959C6.69695 16.875 6.60576 16.852 6.52412 16.8083C6.44248 16.7645 6.37291 16.7012 6.32159 16.6241L4.70946 14.2054C4.55978 13.9811 4.46604 13.7241 4.43609 13.4561L4.04796 9.963C4.03228 9.823 4.06969 9.68222 4.15281 9.56848C4.23592 9.45474 4.35869 9.37633 4.49684 9.34875L5.62521 9.12375V10.125C5.62521 10.2742 5.68447 10.4173 5.78996 10.5227C5.89545 10.6282 6.03853 10.6875 6.18771 10.6875C6.3369 10.6875 6.47997 10.6282 6.58546 10.5227C6.69095 10.4173 6.75021 10.2742 6.75021 10.125V1.96875C6.75021 1.74497 6.83911 1.53036 6.99734 1.37213C7.15557 1.21389 7.37019 1.125 7.59396 1.125ZM9.56271 5.02425V1.96875C9.56271 1.44661 9.35529 0.945846 8.98608 0.576634C8.61687 0.207421 8.11611 0 7.59396 0C7.07182 0 6.57106 0.207421 6.20185 0.576634C5.83263 0.945846 5.62521 1.44661 5.62521 1.96875V7.97625L4.27521 8.24625C3.86141 8.32921 3.49372 8.56422 3.24465 8.90492C2.99558 9.24562 2.88321 9.66728 2.92971 10.0868L3.31784 13.581C3.36775 14.0277 3.52399 14.4559 3.77346 14.8298L5.38559 17.2485C5.53967 17.4797 5.74844 17.6692 5.99337 17.8003C6.23829 17.9314 6.51179 18 6.78959 18H13.9727C14.2702 17.9999 14.5623 17.9212 14.8195 17.7718C15.0767 17.6225 15.2899 17.4078 15.4375 17.1495L17.0068 14.4034C17.2812 13.9233 17.4514 13.3909 17.5063 12.8407L17.8112 9.78638C17.8425 9.47359 17.8079 9.15772 17.7096 8.85912C17.6113 8.56053 17.4516 8.28584 17.2407 8.05277C17.0297 7.81969 16.7723 7.6334 16.485 7.50589C16.1977 7.37839 15.8868 7.31251 15.5725 7.3125H14.9188C14.8486 7.21727 14.7754 7.12422 14.6995 7.0335C14.4846 6.77587 14.1257 6.3945 13.7095 6.228C13.3 6.06375 12.7577 6.0795 12.4067 6.1065L12.2582 6.12C12.1384 5.81341 11.9157 5.55805 11.6282 5.39775C11.3694 5.24848 11.0895 5.13924 10.798 5.07375C10.4492 5.004 9.96659 5.0085 9.61671 5.022L9.56271 5.02425Z" fill="white"/>
</svg>
