<svg width="32" height="32" viewBox="0 0 32 32" fill="none" xmlns="http://www.w3.org/2000/svg">
<g clip-path="url(#clip0_118_68)">
<path d="M22.2706 30.7187C30.4002 27.2556 34.1832 17.8579 30.7202 9.72827C27.2571 1.59864 17.8594 -2.18437 9.72977 1.27867C1.60013 4.74172 -2.18288 14.1394 1.28017 22.2691C4.74321 30.3987 14.1409 34.1817 22.2706 30.7187Z" fill="#2D2D2D"/>
<path d="M15.9999 29.5457C23.481 29.5457 29.5457 23.481 29.5457 15.9999C29.5457 8.51875 23.481 2.4541 15.9999 2.4541C8.51875 2.4541 2.4541 8.51875 2.4541 15.9999C2.4541 23.481 8.51875 29.5457 15.9999 29.5457Z" fill="#2D2D2D" stroke="white" stroke-width="2" stroke-miterlimit="10"/>
<path d="M15.8426 11.1413C17.4235 11.1413 17.6098 11.1454 18.2347 11.1744C18.8141 11.1992 19.1245 11.2985 19.3356 11.3772C19.6129 11.4848 19.8074 11.6131 20.0184 11.82C20.2254 12.0269 20.3537 12.2256 20.4613 12.5029C20.5441 12.7098 20.6392 13.0243 20.6641 13.6037C20.693 14.2287 20.6972 14.4149 20.6972 15.9959C20.6972 17.5768 20.693 17.7672 20.6641 18.388C20.6392 18.9674 20.5399 19.2778 20.4613 19.4889C20.3537 19.7662 20.2254 19.9648 20.0184 20.1718C19.8115 20.3787 19.6129 20.507 19.3356 20.6146C19.1286 20.6974 18.8141 20.7926 18.2347 20.8174C17.6098 20.8464 17.4235 20.8505 15.8426 20.8505C14.2616 20.8505 14.0754 20.8464 13.4504 20.8174C12.871 20.7926 12.5606 20.6932 12.3495 20.6146C12.0722 20.507 11.8777 20.3787 11.6667 20.1718C11.4597 19.9648 11.3314 19.7662 11.2238 19.4889C11.1411 19.282 11.0459 18.9674 11.021 18.388C10.9921 17.7631 10.9879 17.5768 10.9879 15.9959C10.9879 14.4149 10.9921 14.2287 11.021 13.6037C11.0459 13.0243 11.1452 12.7139 11.2238 12.5029C11.3314 12.2256 11.4597 12.0311 11.6667 11.82C11.8736 11.6131 12.0722 11.4848 12.3495 11.3772C12.5565 11.2944 12.871 11.1992 13.4504 11.1744C14.0712 11.1495 14.2575 11.1413 15.8426 11.1413ZM15.8426 10.0735C14.2326 10.0735 14.034 10.0818 13.4008 10.1107C12.7717 10.1397 12.3413 10.239 11.9646 10.388C11.5756 10.5412 11.2445 10.7439 10.9134 11.0709C10.5823 11.402 10.3795 11.7289 10.2306 12.1221C10.0857 12.4987 9.98223 12.9292 9.95326 13.5582C9.92429 14.1914 9.91602 14.3901 9.91602 16C9.91602 17.61 9.92429 17.8128 9.95326 18.4418C9.98223 19.0709 10.0816 19.5013 10.2306 19.8779C10.3837 20.267 10.5823 20.5981 10.9134 20.9292C11.2445 21.2602 11.5715 21.463 11.9646 21.612C12.3413 21.7569 12.7717 21.8603 13.4008 21.8893C14.034 21.9183 14.2326 21.9266 15.8426 21.9266C17.4525 21.9266 17.6511 21.9183 18.2844 21.8893C18.9134 21.8603 19.3438 21.761 19.7205 21.612C20.1095 21.4589 20.4406 21.2561 20.7717 20.9292C21.1028 20.5981 21.3056 20.2711 21.4546 19.8779C21.5994 19.5013 21.7029 19.0709 21.7318 18.4418C21.7608 17.8086 21.7691 17.61 21.7691 16C21.7691 14.3901 21.7608 14.1914 21.7318 13.5582C21.7029 12.9292 21.6035 12.4987 21.4546 12.1221C21.3014 11.7331 21.0986 11.402 20.7717 11.0709C20.4406 10.7398 20.1136 10.537 19.7205 10.388C19.3438 10.2432 18.9134 10.1397 18.2844 10.1107C17.6511 10.0818 17.4483 10.0735 15.8426 10.0735Z" fill="white"/>
<path d="M15.8427 12.958C14.1624 12.958 12.8008 14.3196 12.8008 15.9999C12.8008 17.6802 14.1624 19.0418 15.8427 19.0418C17.523 19.0418 18.8846 17.6802 18.8846 15.9999C18.8846 14.3196 17.523 12.958 15.8427 12.958ZM15.8427 17.974C14.7501 17.974 13.8686 17.0884 13.8686 15.9999C13.8686 14.9073 14.7542 14.0258 15.8427 14.0258C16.9353 14.0258 17.8168 14.9114 17.8168 15.9999C17.8168 17.0884 16.9311 17.974 15.8427 17.974Z" fill="white"/>
<path d="M19.7118 12.8381C19.7118 13.2312 19.3931 13.5499 18.9999 13.5499C18.6068 13.5499 18.2881 13.2312 18.2881 12.8381C18.2881 12.4449 18.6068 12.1262 18.9999 12.1262C19.3972 12.1262 19.7118 12.4449 19.7118 12.8381Z" fill="white"/>
</g>
<defs>
<clipPath id="clip0_118_68">
<rect width="32" height="32" fill="white"/>
</clipPath>
</defs>
</svg>
