<svg width="124" height="124" viewBox="0 0 124 124" fill="none" xmlns="http://www.w3.org/2000/svg">
<circle cx="62" cy="62" r="61.5" fill="white" stroke="black"/>
<path d="M94 62.5C94 80.4493 79.4493 95 61.5 95C43.5507 95 29 80.4493 29 62.5C29 44.5507 43.5507 30 61.5 30C79.4493 30 94 44.5507 94 62.5Z" fill="black"/>
<path d="M32.0394 37.3629L32.8462 36.4624L29.6607 33.6084L32.081 30.9071L31.3354 30.2391L28.9152 32.9405L26.5042 30.7805L29.3582 27.595L28.603 26.9183L24.9423 31.0043L32.0394 37.3629Z" fill="black"/>
<path d="M37.3215 31.6552L38.333 30.9695L36.7304 25.6167C36.4228 24.5374 36.0867 23.5087 35.725 22.419L35.768 22.3898C36.6463 23.1294 37.4774 23.8225 38.3553 24.5152L42.7341 27.9861L43.7779 27.2785L35.7624 21.2L34.6433 21.9586L37.3215 31.6552ZM37.0865 28.2965L40.7235 25.831L40.191 25.0455L36.554 27.511L37.0865 28.2965Z" fill="black"/>
<path d="M45.8762 26.4503L46.9853 25.969L43.1919 17.2276L42.0829 17.7088L45.8762 26.4503Z" fill="black"/>
<path d="M58.2439 23.4671C59.4747 23.3657 60.354 22.7975 61.0328 21.8546L60.3231 21.1565C59.7697 21.8804 59.1021 22.3268 58.2081 22.4004C56.3943 22.5499 55.1313 21.154 54.9338 18.7571C54.7384 16.3861 55.8086 14.8109 57.6095 14.6625C58.4127 14.5963 59.0775 14.9067 59.6136 15.3973L60.2103 14.5655C59.603 14.0025 58.6631 13.519 57.51 13.6141C55.1002 13.8127 53.4531 15.8268 53.7051 18.8845C53.9593 21.968 55.8729 23.6625 58.2439 23.4671Z" fill="black"/>
<path d="M64.7406 23.2824L70.0194 24.2624L70.2045 23.2654L66.1144 22.5061L67.6685 14.1342L66.4798 13.9135L64.7406 23.2824Z" fill="black"/>
<path d="M73.2348 25.3494L74.3613 25.7884L77.8214 16.9097L76.6949 16.4707L73.2348 25.3494Z" fill="black"/>
<path d="M80.6461 29.2865C81.6834 29.9567 82.7267 30.0426 83.8398 29.7093L83.703 28.7232C82.8229 28.9595 82.0216 28.9061 81.2682 28.4193C79.7395 27.4317 79.5899 25.5552 80.8949 23.5351C82.1859 21.5368 83.9947 20.941 85.5125 21.9216C86.1895 22.359 86.5271 23.0104 86.6528 23.7262L87.6329 23.4308C87.4949 22.6142 87.0449 21.6579 86.073 21.0301C84.042 19.7179 81.5084 20.3097 79.8435 22.8867C78.1645 25.4855 78.6478 27.9955 80.6461 29.2865Z" fill="black"/>
<path d="M86.0732 33.2097L86.8701 34.1189L89.1382 32.1309L91.6745 32.086L89.8349 37.5015L90.7089 38.4987L92.8766 32.0177L97.575 31.8755L96.6753 30.849L90.4458 31.0194L90.4286 30.9999L94.0361 27.838L93.2392 26.9288L86.0732 33.2097Z" fill="black"/>
<path d="M71.7495 62.875L56.9373 71.4269L56.9373 54.3232L71.7495 62.875Z" fill="white"/>
</svg>
