<svg width="150" height="77" viewBox="0 0 150 77" fill="none" xmlns="http://www.w3.org/2000/svg">
<path fill-rule="evenodd" clip-rule="evenodd" d="M120.929 30.5961L120.99 36.662L121.669 36.7991C122.952 37.0583 123.111 36.9892 123.271 36.1055C123.556 34.5338 124.946 28.8478 125.497 27.0001C125.8 25.9824 126.018 25.1222 125.98 25.0885C125.895 25.0132 121.822 24.5307 121.268 24.5305C120.888 24.5305 120.87 24.8438 120.929 30.5961ZM23.9616 25.8214C23.9 25.9221 23.9033 26.2117 23.9689 26.4647C24.0724 26.8647 24.3195 26.9458 25.855 27.0829C27.5296 27.2327 27.6734 27.2887 28.6022 28.1536C29.6699 29.1478 32.9423 33.0429 34.7521 35.4739L35.8898 37.0022V39.6198C35.8898 42.6944 35.946 42.6219 33.3986 42.8395C31.9037 42.9671 31.7541 43.0242 31.6638 43.502L31.5646 44.0251H38.2229H44.881V43.3685V42.7119L42.7428 42.6485L40.6047 42.5851L40.4176 41.1736C40.3146 40.3973 40.2972 39.1014 40.379 38.2937L40.5275 36.8255L42.1249 35.2544C44.0705 33.3406 47.9288 30.4003 48.8917 30.0977C49.279 29.9761 50.1555 29.7647 50.8395 29.6283C51.7287 29.4508 52.1781 29.2335 52.4169 28.8653C52.7425 28.3631 52.7309 28.3472 51.9408 28.2154C51.4954 28.141 48.8858 28.0789 46.1419 28.0776L41.1529 28.0752V28.7202C41.1529 29.4183 41.0393 29.3746 43.8393 29.7559C44.9821 29.9114 44.9805 29.9101 44.6533 30.5277C44.4047 30.9971 39.5337 35.168 39.2466 35.1574C39.0613 35.1505 33.4622 27.6961 33.3208 27.2679C33.2673 27.1058 33.9464 26.9682 35.3115 26.8647C37.0701 26.7316 37.3997 26.6457 37.49 26.2967C37.5486 26.0706 37.5413 25.83 37.4742 25.762C37.2767 25.5624 24.0847 25.6204 23.9616 25.8214ZM106.613 27.0739C103.742 27.7123 101.538 28.9582 100.435 30.5671C99.7311 31.5928 99.4864 33.713 99.9191 35.0369C100.475 36.7384 102.769 38.568 105.359 39.3763C107.083 39.9142 110.352 39.9636 112.372 39.4824C115.147 38.8216 117.663 37.012 118.445 35.1157C119.551 32.4301 118.098 29.1524 115.186 27.763C113.07 26.7542 109.383 26.4576 106.613 27.0739ZM73.3895 27.674C73.3895 28.189 73.4908 28.2406 74.8697 28.4278L76.35 28.629L76.2928 30.9435C76.2546 32.4869 76.1449 33.316 75.9638 33.4323C75.8142 33.528 73.7923 33.608 71.4706 33.61L67.2492 33.6133L67.2523 32.3395C67.2573 30.1708 67.2999 30.1125 69.0075 29.9426C70.2312 29.8208 70.5215 29.716 70.6125 29.364C70.6803 29.1024 70.5926 28.8833 70.3886 28.8042C70.0154 28.6595 61.3525 28.8629 61.1971 29.02C60.8975 29.3226 61.4462 29.8476 62.0644 29.8498C62.4435 29.8511 63.1238 29.9141 63.576 29.9896L64.3983 30.1269V34.4042V38.6816L62.8633 38.8345C61.3543 38.9847 61.3282 38.998 61.3282 39.6231V40.2591H65.9334H70.5386V39.6249C70.5386 39.0033 70.5101 38.9882 69.1009 38.8741C68.3101 38.8099 67.5977 38.6912 67.5176 38.6103C67.4373 38.5294 67.3336 37.7809 67.2871 36.9471L67.2023 35.4312L67.8288 35.3091C68.1733 35.242 70.2562 35.1206 72.4575 35.0393L76.4596 34.8915V36.6948C76.4596 38.4264 76.4373 38.5064 75.8971 38.714C75.5877 38.8327 74.9463 38.93 74.4717 38.93C73.6974 38.93 73.6088 38.9869 73.6088 39.4838V40.0376H77.3368C80.8416 40.0376 81.0649 40.0126 81.0649 39.6205C81.0649 39.1838 80.5092 38.9384 79.5092 38.9331L78.9401 38.93L78.7971 35.7732C78.7186 34.0369 78.6539 31.7055 78.6535 30.5919L78.6526 28.5676L79.475 28.4203C80.7903 28.1848 81.0649 28.0652 81.0649 27.728C81.0649 27.4921 80.764 27.4106 79.8932 27.4106C79.2486 27.4106 77.5217 27.3455 76.0555 27.2657L73.3895 27.121V27.674ZM112.813 28.9586C117.05 30.4444 117.18 35.7495 113.026 37.6232C112.05 38.0631 111.51 38.1427 109.464 38.1482C107.402 38.1537 106.893 38.0806 105.958 37.6453C104.574 37.0009 103.92 36.3926 103.409 35.2748C102.587 33.4755 102.997 31.6045 104.518 30.2167C105.007 29.7698 105.436 29.4043 105.471 29.4043C105.505 29.4043 106.072 29.2085 106.731 28.9692C108.377 28.3713 111.125 28.3665 112.813 28.9586ZM87.463 29.4198C86.3738 29.6365 84.4144 30.5024 83.4591 31.1894C83.0997 31.4481 82.5133 32.1741 82.1565 32.8025C81.3447 34.2325 81.2388 36.3842 81.9243 37.5197C83.9578 40.8887 92.3071 41.7635 96.2281 39.0186C98.7002 37.2878 99.0919 33.4024 97.0007 31.3524C95.9518 30.3241 95.1735 29.8868 93.6744 29.4832C92.4698 29.1589 88.9558 29.1232 87.463 29.4198ZM93.688 31.1597C94.1851 31.3819 94.8296 31.9003 95.12 32.3116C95.5722 32.9521 95.6481 33.3143 95.6481 34.8317C95.6481 36.9624 95.2395 37.7056 93.6231 38.5153C92.7161 38.9696 92.2593 39.0389 90.1656 39.0398C87.9957 39.0407 87.6562 38.9851 86.7861 38.4869C86.2543 38.1823 85.5174 37.5543 85.149 37.0911C84.5756 36.3707 84.4778 36.0614 84.4714 34.9482C84.4629 33.4591 84.8411 32.7817 86.2389 31.7828C87.9683 30.5474 91.6314 30.2408 93.688 31.1597ZM51.0213 31.8792C51.0213 32.1063 51.3186 32.3488 51.7888 32.5057C52.2109 32.6464 52.5563 32.8154 52.5563 32.8814C52.5563 33.0622 50.0331 38.0563 49.3186 39.2899C48.7952 40.1935 48.5235 40.4248 47.6538 40.7062C46.6349 41.036 46.2068 41.413 46.2 41.9866C46.1954 42.3922 52.1107 42.1762 52.3715 41.7611C52.7228 41.2019 52.5423 40.9602 51.661 40.8098C50.8397 40.6696 50.777 40.6111 50.9033 40.1027C51.1134 39.2572 51.6976 38.4687 52.28 38.2452C52.5684 38.1345 53.4748 38.0439 54.2945 38.0439H55.7848L56.5828 39.8074C57.0217 40.7775 57.3809 41.6618 57.3809 41.7726C57.3809 41.8836 56.8874 42.0404 56.2844 42.1213C55.6813 42.2019 55.1879 42.3563 55.1879 42.464C55.1879 42.5716 55.128 42.8173 55.0548 43.01C54.9366 43.3213 55.3425 43.3605 58.6732 43.3605C62.2538 43.3605 62.4247 43.3408 62.4247 42.9261C62.4247 42.6002 62.1913 42.4312 61.4927 42.2504C60.9799 42.1179 60.4418 41.9693 60.2964 41.9203C60.1512 41.8714 59.8414 41.4527 59.608 40.9899C58.8164 39.4186 56.2844 33.2314 56.2844 32.8677C56.2844 32.6322 56.4703 32.5057 56.817 32.5057C57.1098 32.5057 57.5234 32.3313 57.7357 32.118C58.1041 31.7483 58.0923 31.7281 57.4773 31.6818C57.1227 31.6553 55.525 31.6054 53.9269 31.5711C51.3324 31.5155 51.021 31.5485 51.0213 31.8792ZM54.8041 35.1179C55.1357 36.0667 55.4072 36.9138 55.4072 37.0005C55.4072 37.0869 54.7164 37.1577 53.8721 37.1577C53.0278 37.1577 52.337 37.1041 52.337 37.0383C52.337 36.7749 53.9423 33.3918 54.0671 33.3925C54.1408 33.3927 54.4726 34.1691 54.8041 35.1179ZM120.319 40.0885V41.3049L121.464 41.4421C122.093 41.5174 122.674 41.5063 122.753 41.4175C122.832 41.3286 122.946 40.7824 123.006 40.2037C123.112 39.1878 123.096 39.1515 122.54 39.149C122.223 39.1477 121.594 39.0848 121.141 39.0093L120.319 38.8719V40.0885ZM73.3895 48.2341V52H74.157H74.9246V50.3386V48.6771H76.4596H77.9947V50.3386V52H78.6526H79.3105V48.2341V44.4681H78.6526H77.9947V45.908V47.348H76.4596H74.9246V45.908V44.4681H74.157H73.3895V48.2341ZM81.7227 48.2341V52H84.5736H87.4244V51.4542C87.4244 50.9159 87.3955 50.9077 85.2863 50.845L83.1482 50.7816L83.0813 49.7294L83.0144 48.6771H84.8905H86.7666V48.0125V47.348H84.8894H83.012L83.0802 46.5172L83.1482 45.6865L85.1767 45.6227C87.169 45.5602 87.2051 45.5494 87.2051 45.0135V44.4681H84.4639H81.7227V48.2341ZM90.1192 48.2341L88.8064 52H89.6187C90.3472 52 90.452 51.9258 90.6347 51.2801C90.8352 50.5716 90.8615 50.559 92.2768 50.4954L93.7154 50.4307L93.9211 51.16C94.1025 51.8024 94.2275 51.8977 94.9715 51.9597C95.5981 52.012 95.7888 51.9548 95.7103 51.7382C95.6522 51.5776 95.0717 49.8769 94.4202 47.9589L93.2358 44.4719L92.3338 44.4699L91.4316 44.4681L90.1192 48.2341ZM97.5121 48.2341V52H100.144H102.775V51.4551C102.775 50.9256 102.724 50.9086 100.966 50.8459L99.1568 50.7816L99.0961 47.6249L99.0351 44.4681H98.2737H97.5121V48.2341ZM103.214 45.0219C103.214 45.5388 103.287 45.5757 104.31 45.5757H105.407V48.7879V52H106.168H106.93L106.991 48.8433L107.051 45.6865L108.203 45.6196C109.26 45.558 109.354 45.5084 109.354 45.0104V44.4681H106.284H103.214V45.0219ZM110.889 48.2341V52H111.657H112.424V50.3386V48.6771H113.959H115.494V50.3386V52H116.152H116.81V48.2341V44.4681H116.152H115.494V45.908V47.348H113.959H112.424V45.908V44.4681H111.657H110.889V48.2341ZM93.1935 49.1756C93.0183 49.4879 91.3718 49.363 91.3718 49.0373C91.3718 48.7697 91.7876 47.4251 92.1683 46.4619C92.2487 46.258 92.4904 46.6863 92.7933 47.5695C93.0645 48.3614 93.2448 49.0843 93.1935 49.1756Z" fill="#818181"/>
<rect x="0.292517" y="0.292517" width="148.438" height="75.4599" stroke="#818181" stroke-width="0.585034"/>
</svg>
