<svg width="33" height="32" viewBox="0 0 33 32" fill="none" xmlns="http://www.w3.org/2000/svg">
<g clip-path="url(#clip0_118_46)">
<path d="M16.1709 32C25.0075 32 32.1709 24.8366 32.1709 16C32.1709 7.16344 25.0075 0 16.1709 0C7.33434 0 0.170898 7.16344 0.170898 16C0.170898 24.8366 7.33434 32 16.1709 32Z" fill="#2D2D2D"/>
<path d="M16.1708 29.5452C23.6519 29.5452 29.7166 23.4805 29.7166 15.9994C29.7166 8.51827 23.6519 2.45361 16.1708 2.45361C8.68965 2.45361 2.625 8.51827 2.625 15.9994C2.625 23.4805 8.68965 29.5452 16.1708 29.5452Z" fill="#2D2D2D" stroke="white" stroke-width="0.905328" stroke-miterlimit="10"/>
<path d="M23.0944 12.4984C22.9288 11.8735 22.4405 11.381 21.8155 11.2113C20.6898 10.9092 16.1704 10.9092 16.1704 10.9092C16.1704 10.9092 11.651 10.9092 10.5253 11.2113C9.9045 11.3768 9.412 11.8693 9.24646 12.4984C8.94434 13.6324 8.94434 15.9997 8.94434 15.9997C8.94434 15.9997 8.94434 18.367 9.24646 19.501C9.412 20.1259 9.90036 20.6184 10.5253 20.7881C11.651 21.0902 16.1704 21.0902 16.1704 21.0902C16.1704 21.0902 20.6898 21.0902 21.8155 20.7881C22.4363 20.6226 22.9288 20.1259 23.0944 19.501C23.3965 18.367 23.3965 15.9997 23.3965 15.9997C23.3965 15.9997 23.3965 13.6324 23.0944 12.4984ZM14.6929 18.1477V13.8518L18.4715 15.9997L14.6929 18.1477Z" fill="white"/>
</g>
<defs>
<clipPath id="clip0_118_46">
<rect width="32" height="32" fill="white" transform="translate(0.170898)"/>
</clipPath>
</defs>
</svg>
