<?xml version="1.0" standalone="no"?>
<!DOCTYPE svg PUBLIC "-//W3C//DTD SVG 20010904//EN"
 "http://www.w3.org/TR/2001/REC-SVG-20010904/DTD/svg10.dtd">
<svg version="1.0" xmlns="http://www.w3.org/2000/svg"
 width="696.000000pt" height="696.000000pt" viewBox="0 0 696.000000 696.000000"
 preserveAspectRatio="xMidYMid meet">
<metadata>
Created by potrace 1.14, written by Peter Selinger 2001-2017
</metadata>
<g transform="translate(0.000000,696.000000) scale(0.100000,-0.100000)"
fill="#000000" stroke="none">
<path d="M3248 6955 c-2 -2 -34 -6 -73 -9 -127 -12 -166 -16 -193 -21 -15 -3
-40 -8 -57 -10 -16 -3 -41 -7 -55 -10 -14 -3 -36 -8 -50 -11 -14 -3 -40 -7
-59 -10 -46 -6 -253 -62 -341 -91 -25 -8 -49 -16 -55 -17 -5 -2 -23 -8 -40
-15 -16 -6 -50 -19 -75 -28 -25 -9 -51 -21 -57 -26 -7 -5 -13 -7 -13 -4 0 3
-33 -9 -72 -27 -40 -18 -88 -39 -105 -47 -18 -8 -33 -17 -33 -21 0 -5 -7 -8
-15 -8 -17 0 -56 -20 -66 -33 -3 -5 -10 -9 -15 -9 -24 1 -395 -229 -434 -268
-3 -3 -26 -21 -53 -40 -26 -19 -58 -44 -71 -55 -13 -11 -50 -42 -82 -70 -69
-57 -310 -300 -371 -371 -41 -48 -179 -226 -198 -255 -5 -9 -24 -38 -42 -65
-18 -27 -36 -54 -42 -60 -5 -6 -17 -26 -26 -45 -10 -19 -21 -36 -24 -39 -4 -3
-16 -23 -28 -45 -41 -79 -58 -109 -71 -123 -6 -7 -12 -17 -12 -21 0 -5 -26
-64 -59 -132 -32 -68 -66 -146 -76 -174 -10 -27 -22 -55 -27 -61 -4 -6 -5 -14
-1 -17 3 -4 0 -7 -7 -7 -7 0 -11 -3 -7 -6 3 -3 -3 -29 -13 -58 -18 -48 -67
-203 -75 -236 -2 -8 -12 -53 -23 -100 -22 -89 -26 -111 -46 -237 -3 -16 -7
-39 -10 -53 -6 -26 -9 -54 -23 -195 -10 -104 -10 -505 0 -615 10 -104 21 -186
32 -240 2 -13 7 -42 10 -65 3 -22 8 -48 11 -58 4 -11 8 -31 10 -45 9 -52 12
-68 28 -127 9 -33 24 -85 32 -115 8 -30 18 -66 23 -80 5 -14 24 -65 41 -115
17 -49 38 -102 46 -117 8 -16 13 -28 10 -28 -8 0 153 -340 165 -350 4 -3 17
-25 29 -50 12 -25 26 -47 30 -50 3 -3 17 -26 30 -52 13 -27 27 -48 32 -48 4 0
8 -4 8 -9 0 -14 62 -106 97 -146 7 -7 13 -17 13 -20 0 -21 223 -280 344 -400
103 -102 246 -236 278 -260 56 -43 104 -80 108 -85 3 -3 57 -40 120 -81 104
-68 149 -95 275 -166 43 -25 247 -127 255 -128 3 0 27 -11 54 -23 27 -12 50
-22 52 -22 2 0 26 -9 52 -21 127 -56 301 -115 472 -159 47 -12 101 -25 120
-30 19 -5 60 -14 90 -20 50 -9 81 -14 165 -25 17 -3 45 -7 62 -10 145 -26 582
-19 753 11 37 6 91 15 120 18 14 1 36 5 50 9 14 4 39 9 55 11 39 6 81 15 130
27 22 5 51 12 65 15 127 26 525 164 618 213 9 5 67 34 127 64 61 30 126 64
145 75 19 12 49 29 67 37 18 9 37 23 44 31 6 8 18 14 25 14 8 0 14 5 14 12 0
6 3 9 6 6 3 -4 13 0 22 8 33 29 124 99 148 114 13 8 27 24 30 35 6 20 51 67
79 83 57 32 358 327 466 457 40 50 79 95 84 101 6 6 17 22 25 34 8 13 24 35
36 49 11 14 42 58 67 96 26 39 51 75 55 80 6 8 71 118 134 230 25 43 68 136
68 145 0 6 5 10 10 10 6 0 10 5 10 11 0 6 10 32 23 58 13 25 24 48 24 51 0 3
8 22 17 43 9 22 21 56 27 78 7 21 15 39 19 39 4 0 7 6 7 13 0 6 14 53 30 102
26 76 50 162 89 320 4 17 8 32 9 35 1 6 13 67 19 95 2 11 7 40 10 65 3 25 8
56 11 70 3 14 7 45 10 70 2 25 7 77 12 115 10 92 10 509 0 605 -16 154 -21
193 -32 250 -2 14 -11 61 -19 105 -8 44 -22 112 -31 150 -22 97 -23 100 -25
103 -2 1 -3 5 -4 10 -50 189 -131 400 -235 609 -72 144 -74 148 -81 153 -4 3
-10 14 -14 25 -3 11 -22 44 -41 73 -19 30 -35 58 -35 63 0 5 -4 9 -10 9 -5 0
-10 5 -10 10 0 12 -41 73 -52 78 -5 2 -8 8 -8 13 0 7 -86 127 -137 189 -79 99
-149 176 -258 285 -143 143 -216 208 -345 306 -46 35 -90 69 -97 76 -7 6 -22
15 -33 18 -11 3 -20 10 -20 15 0 4 -16 15 -35 24 -19 9 -35 21 -35 27 0 6 -4
8 -9 5 -5 -4 -11 -3 -13 2 -3 7 -174 112 -183 112 -2 0 -27 13 -55 30 -27 16
-50 27 -50 23 0 -3 -8 1 -17 9 -10 9 -72 39 -138 68 -66 28 -135 59 -153 67
-18 8 -40 16 -50 18 -9 2 -55 17 -102 34 -141 50 -441 125 -550 137 -30 3 -58
8 -61 10 -8 4 -143 18 -191 18 -21 1 -38 3 -38 6 0 6 -486 10 -492 5z"/>
</g>
</svg>
