<svg xmlns="http://www.w3.org/2000/svg" width="144" height="144" fill="none"><path fill="#F44A4A" d="M66.428 4.298a11.6 11.6 0 0 1 11.605 0L128.16 33.24a11.6 11.6 0 0 1 5.802 10.05v57.883c0 4.146-2.212 7.976-5.802 10.049l-50.128 28.942a11.6 11.6 0 0 1-11.605 0L16.3 111.222a11.6 11.6 0 0 1-5.802-10.049V43.289c0-4.145 2.212-7.976 5.802-10.049z"/><path fill="#fff" d="M36.875 83.338a.75.75 0 0 1-.497-.198.75.75 0 0 1-.2-.498q0-.165.034-.298l7.791-21.286q.1-.365.398-.63.332-.297.895-.298h4.907q.564 0 .862.298.332.266.431.63l7.758 21.286a.66.66 0 0 1 .067.298q0 .266-.232.498a.68.68 0 0 1-.498.198h-4.078q-.497 0-.762-.232-.233-.264-.299-.464L52.16 79.26h-8.852l-1.26 3.382q-.066.2-.298.464-.232.232-.796.232zm7.791-8.852h6.167l-3.116-8.753zm18.097 8.852a.8.8 0 0 1-.597-.232.8.8 0 0 1-.232-.596V60.959q0-.364.232-.597a.8.8 0 0 1 .597-.232h8.62q3.25 0 5.537 1.061 2.287 1.028 3.514 3.05 1.227 1.99 1.326 4.94.034 1.46.034 2.553 0 1.095-.034 2.52-.132 3.083-1.326 5.106-1.16 2.022-3.415 3.017-2.22.96-5.47.961zm5.106-4.774h3.514q1.425 0 2.354-.43a2.98 2.98 0 0 0 1.426-1.427q.497-.96.53-2.52.066-.96.066-1.723a18 18 0 0 0 0-1.525q0-.763-.066-1.691-.066-2.255-1.193-3.283-1.095-1.06-3.283-1.06H67.87zM94.32 83.67q-3.315 0-5.504-.928-2.188-.962-3.315-2.487-1.128-1.525-1.194-3.25 0-.264.2-.463a.73.73 0 0 1 .53-.232h4.177q.465 0 .697.165.264.166.464.431.265.497.73.962.495.465 1.259.762.795.266 1.956.266 1.923 0 2.885-.597.994-.597.994-1.625 0-.73-.53-1.193-.531-.499-1.724-.862-1.161-.398-3.117-.796-2.52-.53-4.31-1.36-1.757-.861-2.686-2.22-.927-1.394-.928-3.449 0-2.022 1.127-3.614 1.161-1.591 3.216-2.486t4.874-.896q2.288 0 4.012.597 1.757.597 2.951 1.592 1.193.994 1.79 2.122.63 1.093.663 2.155a.75.75 0 0 1-.199.497.67.67 0 0 1-.497.199h-4.376q-.366 0-.63-.133a1.2 1.2 0 0 1-.465-.43q-.199-.73-1.06-1.26-.83-.564-2.189-.564-1.459 0-2.287.53-.796.498-.796 1.559 0 .662.43 1.16.465.497 1.493.862 1.061.364 2.884.763 3.017.562 4.874 1.425 1.857.83 2.719 2.188.861 1.326.862 3.349 0 2.254-1.293 3.912-1.26 1.625-3.515 2.487t-5.172.862"/></svg>