<svg width="155" height="155" viewBox="0 0 155 155" fill="none" xmlns="http://www.w3.org/2000/svg">
<path d="M116.357 115.237H110.477V109.357C110.477 108.279 109.595 107.397 108.517 107.397H69.3187C68.2408 107.397 67.3588 108.279 67.3588 109.357V115.237H55.5993V105.437C55.5993 102.889 53.9529 100.733 51.6794 99.9101V72.0792C52.4046 71.5304 53.0514 70.8836 53.6001 70.1585H69.3579C70.7691 72.0204 72.827 73.3923 75.1985 73.8823V77.9982C75.1985 80.5461 76.8449 82.702 79.1184 83.5251V85.8379C79.1184 89.0717 81.7643 91.7176 84.9982 91.7176H92.8379C96.0717 91.7176 98.7176 89.0717 98.7176 85.8379V83.5251C100.991 82.702 102.637 80.5461 102.637 77.9982V50.5592C102.637 48.0113 100.991 45.8554 98.7176 45.0322V40.4068C100.991 39.5836 102.637 37.4277 102.637 34.8798C102.637 31.6459 99.9916 29 96.7577 29H81.0783C77.8444 29 75.1985 31.6459 75.1985 34.8798C75.1985 37.4277 76.8449 39.5836 79.1184 40.4068V45.0322C76.8449 45.8554 75.1985 48.0113 75.1985 50.5592V54.675C72.827 55.165 70.7691 56.537 69.3579 58.3989H53.6001C51.797 56.0274 48.9943 54.479 45.7996 54.479C40.3902 54.479 36 58.8693 36 64.2787C36 67.4734 37.5483 70.276 39.9199 72.0792V99.9101C37.6463 100.733 36 102.889 36 105.437V125.036C36 126.114 36.882 126.996 37.9599 126.996H116.357C117.435 126.996 118.317 126.114 118.317 125.036V117.197C118.317 116.119 117.435 115.237 116.357 115.237ZM94.7978 85.8379C94.7978 86.9158 93.9158 87.7978 92.8379 87.7978H84.9982C83.9202 87.7978 83.0382 86.9158 83.0382 85.8379V83.8779H94.7978V85.8379ZM81.0783 32.9199H96.7577C97.8357 32.9199 98.7176 33.8018 98.7176 34.8798C98.7176 35.9577 97.8357 36.8397 96.7577 36.8397H81.0783C80.0003 36.8397 79.1184 35.9577 79.1184 34.8798C79.1184 33.8018 80.0003 32.9199 81.0783 32.9199ZM94.7978 40.7596V44.6794H83.0382V40.7596H94.7978ZM79.1184 50.5592C79.1184 49.4812 80.0003 48.5993 81.0783 48.5993H96.7577C97.8357 48.5993 98.7176 49.4812 98.7176 50.5592V77.9982C98.7176 79.0761 97.8357 79.9581 96.7577 79.9581H81.0783C80.0003 79.9581 79.1184 79.0761 79.1184 77.9982V73.8823C83.587 72.9611 86.9581 69.0021 86.9581 64.2787C86.9581 59.5553 83.587 55.5962 79.1184 54.675V50.5592ZM77.1585 58.3989C80.3923 58.3989 83.0382 61.0448 83.0382 64.2787C83.0382 67.5126 80.3923 70.1585 77.1585 70.1585C73.9246 70.1585 71.2787 67.5126 71.2787 64.2787C71.2787 61.0448 73.9246 58.3989 77.1585 58.3989ZM55.4033 62.3187H67.5548C67.4372 62.9459 67.3588 63.6123 67.3588 64.2787C67.3588 64.945 67.4372 65.6114 67.5548 66.2386H55.4033C55.5209 65.6114 55.5993 64.945 55.5993 64.2787C55.5993 63.6123 55.5209 62.9459 55.4033 62.3187ZM45.7996 58.3989C49.0335 58.3989 51.6794 61.0448 51.6794 64.2787C51.6794 67.5126 49.0335 70.1585 45.7996 70.1585C42.5658 70.1585 39.9199 67.5126 39.9199 64.2787C39.9199 61.0448 42.5658 58.3989 45.7996 58.3989ZM47.7596 73.8823V99.5573H43.8397V73.8823C44.4669 73.9999 45.1333 74.0783 45.7996 74.0783C46.466 74.0783 47.1324 73.9999 47.7596 73.8823ZM51.6794 123.076H39.9199V105.437C39.9199 104.359 40.8018 103.477 41.8798 103.477H49.7195C50.7974 103.477 51.6794 104.359 51.6794 105.437V123.076ZM71.2787 111.317H106.557V115.237H71.2787V111.317ZM114.397 123.076H55.5993V119.157H114.397V123.076Z" fill="#007CEE"/>
<path d="M45.799 111.317C46.8814 111.317 47.7589 110.439 47.7589 109.357C47.7589 108.274 46.8814 107.397 45.799 107.397C44.7166 107.397 43.8391 108.274 43.8391 109.357C43.8391 110.439 44.7166 111.317 45.799 111.317Z" fill="#007CEE"/>
<path d="M45.7991 66.2387C46.8816 66.2387 47.7591 65.3612 47.7591 64.2788C47.7591 63.1963 46.8816 62.3188 45.7991 62.3188C44.7167 62.3188 43.8392 63.1963 43.8392 64.2788C43.8392 65.3612 44.7167 66.2387 45.7991 66.2387Z" fill="#007CEE"/>
<path d="M77.1573 66.2387C78.2398 66.2387 79.1172 65.3612 79.1172 64.2788C79.1172 63.1963 78.2398 62.3188 77.1573 62.3188C76.0749 62.3188 75.1974 63.1963 75.1974 64.2788C75.1974 65.3612 76.0749 66.2387 77.1573 66.2387Z" fill="#007CEE"/>
</svg>
