<svg width="155" height="155" viewBox="0 0 155 155" fill="none" xmlns="http://www.w3.org/2000/svg">
<path d="M128.706 116.283C127.485 113.342 125.489 110.787 122.931 108.889C120.373 106.991 117.349 105.822 114.18 105.505C111.31 105.265 108.545 104.31 106.137 102.729C101.108 99.2955 97.6154 99.6909 97.3283 99.7412C96.2611 99.8016 95.1996 99.5484 94.2745 99.013C93.3494 98.4775 92.6011 97.6832 92.1219 96.7278C89.6428 91.7545 85.398 87.8847 80.2173 85.8749C78.297 85.1764 76.258 84.8621 74.2165 84.95V79.1282L81.9608 75.2085C84.032 74.1484 85.7445 72.5008 86.8838 70.472C90.5495 72.0154 94.6593 72.1354 98.4088 70.8086C102.158 69.4818 105.278 66.8038 107.157 63.2983C110.223 57.7134 109.112 53.2473 114.616 46.5902C114.818 46.3401 114.95 46.041 114.998 45.7234C115.047 45.4057 115.01 45.0809 114.891 44.7822C114.773 44.4835 114.577 44.2216 114.325 44.0232C114.072 43.8248 113.771 43.6971 113.453 43.6532L105.483 42.6462C103.525 42.6108 98.3707 41.4901 98.5236 44.6303C98.5847 45.1033 98.8293 45.5333 99.2047 45.8274C99.5801 46.1215 100.056 46.2562 100.53 46.2023C103.688 46.0455 106.853 46.2608 109.96 46.8438C105.365 53.6016 106.743 58.2467 102.702 63.5109C101.306 65.2702 99.4496 66.6087 97.3393 67.3781C95.229 68.1476 92.9469 68.3181 90.7457 67.8707C91.5531 67.3766 92.424 66.8134 93.319 66.1719C94.9986 64.7717 96.2573 62.9334 96.9553 60.8611C97.9553 58.5778 99.1651 56.3923 100.569 54.3326C100.822 54.0037 100.953 53.597 100.939 53.1823C100.925 52.7676 100.767 52.3707 100.493 52.0595C98.2457 49.6838 96.0546 54.7037 95.8309 55.0599C95.8309 55.0599 93.5969 59.539 93.5689 59.6266C91.7974 63.9827 89.9737 63.8913 87.3835 65.6647C86.269 62.5345 86.2887 59.1123 87.4392 55.9951C88.5897 52.8779 90.798 50.2634 93.6789 48.6078C94.0883 48.3609 94.3829 47.9617 94.4983 47.4978C94.6137 47.0339 94.5403 46.5432 94.2943 46.1333C92.2785 43.0695 87.0423 49.4563 85.8414 51.2203C84.2752 53.6751 83.3199 56.4694 83.0555 59.3692C82.7911 62.269 83.2253 65.1899 84.3216 67.8875C82.6918 70.1439 82.1342 71.1508 80.3534 71.9844L74.2184 75.0892V64.3538C74.1456 56.3298 76.8794 46.1911 82.8783 41.9059C83.2561 41.6298 83.5116 41.2174 83.5907 40.7562C83.6698 40.295 83.5663 39.8211 83.3022 39.4349C83.0381 39.0486 82.634 38.7803 82.1755 38.6867C81.717 38.5931 81.2401 38.6816 80.8457 38.9335C75.2943 42.5567 71.6133 51.8544 70.9364 59.2108L67.3878 57.4206C65.4615 56.492 65.1352 55.6379 63.442 53.3741C64.2297 51.1446 64.6669 48.8064 64.738 46.4428C64.7459 45.9651 64.5637 45.5038 64.2315 45.1604C63.8992 44.8169 63.4442 44.6196 62.9665 44.6117C62.4887 44.6037 62.0274 44.7859 61.684 45.1182C61.3406 45.4504 61.1432 45.9054 61.1353 46.3832C61.092 47.9983 60.8368 49.6008 60.3763 51.1495C57.7657 49.4302 55.7405 49.2474 54.079 44.8709C52.966 42.3209 51.5991 39.8894 49.999 37.6132C49.6977 37.2494 49.2656 37.0184 48.7957 36.97C48.3259 36.9217 47.8558 37.0598 47.4868 37.3548C47.1178 37.6497 46.8794 38.0777 46.8229 38.5467C46.7665 39.0157 46.8965 39.4881 47.1851 39.8621C48.5878 41.9157 49.7982 44.0943 50.8008 46.3701C51.5068 48.4515 52.7805 50.2942 54.4781 51.6903C55.3489 52.3131 56.2049 52.8651 56.9992 53.348C54.4011 53.8667 51.705 53.5305 49.3138 52.3897C46.9226 51.2489 44.9649 49.3648 43.7334 47.0191C41.1619 42.1259 41.8817 38.4803 37.7886 32.3957L42.7171 31.7728C45.7921 31.3337 48.9286 31.7511 51.7816 32.9793C54.6346 34.2074 57.0937 36.1987 58.8882 38.734C59.5036 39.9274 60.3763 41.188 61.8774 40.4458C63.4513 39.6328 62.7576 37.8482 61.8961 36.7517C59.7299 33.655 56.7501 31.2172 53.2857 29.7074C49.8212 28.1976 46.0069 27.6747 42.264 28.1962L34.2847 29.2069C33.9664 29.2516 33.6657 29.3801 33.4133 29.5791C33.1609 29.7782 32.9659 30.0407 32.8483 30.3399C32.7307 30.639 32.6947 30.964 32.7439 31.2817C32.7932 31.5993 32.9259 31.8981 33.1285 32.1476C38.693 38.8533 37.4827 43.1068 40.6025 48.798C42.488 52.297 45.6095 54.968 49.3579 56.2898C53.1063 57.6117 57.2128 57.4897 60.8761 55.9475C63.1324 60.0071 67.095 61.2303 70.666 63.1063C70.6548 63.524 70.6138 93.539 70.6138 93.539C70.6138 94.0168 70.8036 94.475 71.1414 94.8128C71.4792 95.1506 71.9374 95.3404 72.4152 95.3404C72.8929 95.3404 73.3511 95.1506 73.6889 94.8128C74.0267 94.475 74.2165 94.0168 74.2165 93.539V88.5602C79.2066 88.3028 84.743 91.031 88.9369 98.4061C89.758 99.999 91.0306 101.315 92.5954 102.188C94.1602 103.062 95.9479 103.455 97.7348 103.318C100.06 103.395 102.296 104.231 104.101 105.699C107 107.623 110.335 108.789 113.801 109.089C116.354 109.356 118.786 110.31 120.838 111.85C122.891 113.391 124.487 115.459 125.456 117.835C125.72 118.41 125.839 119.04 125.804 119.671C125.769 120.303 125.579 120.916 125.253 121.457C124.926 121.999 124.473 122.452 123.931 122.779C123.389 123.105 122.776 123.293 122.144 123.328H28.6979C27.124 108.362 35.6143 100.802 50.3812 101.515C51.9954 101.501 53.5748 101.045 54.948 100.196C56.3212 99.3476 57.4357 98.139 58.1703 96.7017C59.8631 93.6384 62.5953 91.2812 65.8736 90.0557C66.3175 89.8789 66.6729 89.533 66.8618 89.0941C67.0506 88.6552 67.0574 88.1593 66.8806 87.7154C66.7038 87.2716 66.3579 86.9161 65.919 86.7272C65.4801 86.5384 64.9842 86.5316 64.5403 86.7085C57.1223 89.7946 56.5517 93.3936 53.6595 96.6867C52.9478 97.2127 52.1386 97.5917 51.279 97.8017C50.4194 98.0117 49.5266 98.0485 48.6526 97.91C32.5598 98.0928 23.4132 106.285 25.2276 124.766C25.1945 125.032 25.2172 125.301 25.294 125.557C25.3708 125.814 25.5002 126.051 25.6739 126.255C25.8476 126.458 26.0617 126.623 26.3027 126.739C26.5438 126.856 26.8063 126.92 27.0737 126.929H122.144C123.382 126.888 124.59 126.541 125.662 125.919C126.733 125.298 127.633 124.421 128.283 123.367C128.933 122.312 129.312 121.114 129.386 119.877C129.46 118.641 129.227 117.406 128.708 116.282L128.706 116.283Z" fill="#007CEE"/>
<path d="M38.2659 109.738C37.8003 109.717 37.3447 109.877 36.9947 110.185C36.6446 110.493 36.4275 110.924 36.3889 111.389C36.3503 111.853 36.4932 112.314 36.7875 112.676C37.0819 113.037 37.5049 113.27 37.9676 113.326C40.2453 113.58 42.3668 114.609 43.9777 116.239C44.2977 116.585 44.741 116.793 45.2121 116.816C45.6832 116.839 46.1447 116.677 46.4973 116.363C46.8499 116.05 47.0656 115.611 47.0979 115.14C47.1303 114.67 46.9768 114.205 46.6704 113.846C44.4459 111.522 41.4665 110.066 38.2659 109.738ZM59.2257 108.828C58.7616 108.857 58.3264 109.063 58.0111 109.405C57.6958 109.747 57.5249 110.197 57.534 110.662C57.5432 111.127 57.7317 111.57 58.0602 111.899C58.3887 112.228 58.8317 112.417 59.2966 112.427C61.4653 112.39 63.5971 112.992 65.426 114.158C65.7348 114.388 66.1095 114.512 66.4945 114.512C66.8701 114.505 67.2342 114.382 67.5365 114.159C67.8388 113.936 68.0645 113.625 68.1822 113.268C68.2999 112.911 68.304 112.527 68.1937 112.168C68.0835 111.809 67.8644 111.493 67.5668 111.264C65.0989 109.622 62.1891 108.773 59.2257 108.828ZM74.3172 100.189C73.8479 100.21 73.4054 100.414 73.0841 100.757C72.7628 101.1 72.5882 101.554 72.5975 102.024C72.6067 102.494 72.7991 102.941 73.1336 103.271C73.4681 103.601 73.9182 103.787 74.388 103.79C76.5561 103.753 78.6871 104.355 80.5156 105.52C80.8996 105.805 81.3809 105.925 81.8535 105.854C82.3262 105.784 82.7515 105.529 83.0358 105.145C83.3202 104.761 83.4404 104.279 83.3699 103.807C83.2994 103.334 83.0441 102.909 82.6601 102.624C80.1912 100.984 77.281 100.134 74.3172 100.189ZM81.6158 114.272C81.1517 114.3 80.7165 114.506 80.4012 114.848C80.0859 115.19 79.915 115.64 79.9241 116.105C79.9333 116.57 80.1218 117.013 80.4503 117.342C80.7788 117.671 81.2218 117.861 81.6867 117.871C83.8552 117.831 85.9871 118.433 87.8143 119.601C88.1983 119.885 88.6796 120.006 89.1522 119.935C89.6248 119.865 90.0501 119.609 90.3345 119.225C90.6188 118.841 90.739 118.36 90.6686 117.887C90.5981 117.415 90.3428 116.99 89.9587 116.705C87.4903 115.064 84.5797 114.215 81.6158 114.272ZM109.609 119.601C109.919 119.832 110.294 119.956 110.68 119.955C111.056 119.949 111.421 119.826 111.723 119.603C112.026 119.38 112.252 119.068 112.37 118.711C112.488 118.354 112.492 117.969 112.381 117.61C112.27 117.25 112.05 116.934 111.752 116.705C109.284 115.064 106.374 114.215 103.411 114.272C102.943 114.302 102.506 114.513 102.191 114.86C101.877 115.207 101.71 115.663 101.726 116.132C101.743 116.6 101.941 117.044 102.278 117.368C102.616 117.693 103.067 117.873 103.536 117.871C105.685 117.846 107.796 118.448 109.609 119.601Z" fill="#007CEE"/>
</svg>
