<svg xmlns="http://www.w3.org/2000/svg" width="100" height="101" fill="none"><g stroke="#007CEE" stroke-linecap="round" stroke-linejoin="round" stroke-miterlimit="10" stroke-width="2.732" clip-path="url(#a)"><path d="M74.765 74.057q-.394.031-.79.031a9.97 9.97 0 0 1-6.508-2.409m-.625 13.92c-3.123-.867-5.418-3.756-5.418-7.186M49.98 34.973c0 4.015 3.224 7.27 7.2 7.27M75.558 29.58a10 10 0 0 0-1.518-.116c-2.763 0-5.088 1.226-6.885 2.939m7.788 29.312c3.171 0 5.528-.92 7.488-3.274"/><path d="M83.88 62.46a10.2 10.2 0 0 0-1.448-4.02 10.24 10.24 0 0 0 2.453-6.667 10.24 10.24 0 0 0-2.453-6.667 10.25 10.25 0 0 0 1.542-5.422c0-5.402-4.15-9.822-9.404-10.195a9 9 0 0 0 .192-1.848c0-4.903-3.936-8.879-8.792-8.879-.656 0-1.295.075-1.91.213-.905-2.97-3.643-5.13-6.88-5.13-3.976 0-7.199 3.255-7.199 7.27v61.317c0 4.992 3.228 7.07 7.198 7.27 5.823.291 7.806-2.74 8.468-4.546a7.3 7.3 0 0 0 3.215.746c4.063 0 7.356-3.326 7.356-7.43a7.45 7.45 0 0 0-1.453-4.433c3.112-.282 5.819-1.984 7.478-4.46"/><path d="M49.98 74.278c0-4.016 3.224-7.272 7.2-7.272M33.12 85.6c3.122-.867 5.417-3.756 5.417-7.186M49.98 21.117c0 4.016-3.224 7.271-7.2 7.271M24.403 29.58q.755-.114 1.518-.115c2.763 0 5.088 1.226 6.885 2.939m-7.788 29.312c-3.17 0-5.528-.92-7.488-3.274"/><path d="M35.905 18.976c.904-2.97 3.642-5.13 6.88-5.13 3.975 0 7.198 3.255 7.198 7.27v61.316c0 4.993-3.228 7.071-7.198 7.27-5.823.292-7.806-2.739-8.468-4.545a7.3 7.3 0 0 1-3.215.746c-4.063 0-7.356-3.326-7.356-7.43a7.45 7.45 0 0 1 1.453-4.433c-5.161-.467-9.209-4.842-9.209-10.177a10.25 10.25 0 0 1 1.542-5.421 10.24 10.24 0 0 1-2.452-6.668c0-2.548.925-4.877 2.452-6.667a10.25 10.25 0 0 1-1.542-5.422c0-5.402 4.15-9.823 9.404-10.195a9 9 0 0 1-.191-1.848c0-2.344.9-4.477 2.37-6.064m-.001 0a8.9 8.9 0 0 1 2.05-1.641"/><path d="M49.982 58.441c0-4.016-3.224-7.271-7.2-7.271M90.664 2.068l-6.627 9.988c-.581.876.04 2.052 1.084 2.052h2.744c.793 0 1.403.709 1.292 1.502l-.765 5.452c-.194 1.384 1.598 2.08 2.373.923l7.01-10.47c.576-.86-.012-2.022-1.038-2.055L94 9.37a1.3 1.3 0 0 1-.923-.43 1.32 1.32 0 0 1-.338-.968l.311-5.09c.082-1.343-1.645-1.932-2.386-.815m-81.325 0 6.627 9.988c.581.876-.04 2.052-1.083 2.052h-2.745c-.793 0-1.403.709-1.292 1.502l.765 5.452c.194 1.384-1.598 2.08-2.373.923l-7.01-10.47c-.576-.86.012-2.022 1.038-2.055l2.737-.089a1.3 1.3 0 0 0 .923-.43 1.32 1.32 0 0 0 .338-.968l-.311-5.09C6.87 1.54 8.598.95 9.339 2.067m81.325 96.866-6.627-9.989c-.581-.875.04-2.051 1.084-2.051h2.744c.793 0 1.403-.71 1.292-1.503l-.765-5.451c-.194-1.384 1.598-2.081 2.373-.923l7.01 10.47c.576.859-.012 2.022-1.038 2.055L94 91.63a1.3 1.3 0 0 0-.923.43 1.32 1.32 0 0 0-.338.969l.311 5.09c.082 1.342-1.645 1.932-2.386.815m-81.325 0 6.627-9.989c.581-.875-.04-2.051-1.083-2.051h-2.745c-.793 0-1.403-.71-1.292-1.503l.765-5.451c.194-1.384-1.598-2.081-2.373-.923l-7.01 10.47c-.576.859.012 2.022 1.038 2.055l2.737.088a1.3 1.3 0 0 1 .923.43 1.32 1.32 0 0 1 .338.969l-.311 5.09c-.082 1.342 1.645 1.932 2.386.815"/><path d="M15.052 54.784C9.737 61.692 7.64 67.87 10.048 71.59c4.672 7.215 24.534 2.445 44.363-10.654s32.116-29.567 27.443-36.782c-1.628-2.515-5.1-3.573-9.774-3.332M30.193 44.56v5.29m2.618-2.645h-5.238m64.967 16.07v5.29m2.618-2.644h-5.237M66.845 2.573v5.29m2.619-2.645h-5.238"/></g><defs><clipPath id="a"><path fill="#fff" d="M0 0h100v101H0z"/></clipPath></defs></svg>