<svg xmlns="http://www.w3.org/2000/svg" width="100" height="100" fill="none"><path fill="#007CEE" d="M19.021 59.284a.97.97 0 0 1-.668-.387 1 1 0 0 1-.134-.709l3.173-20.476-6.725 3.694q-.392.182-.742.088-.343-.135-.565-.533l-1.33-2.392a1.13 1.13 0 0 1-.08-.782.98.98 0 0 1 .532-.565l9.914-5.466a1 1 0 0 1 .511-.164q.243-.002.52.04l3.479.54q.395.06.629.38a.93.93 0 0 1 .172.715L23.714 59.04a.93.93 0 0 1-.38.63.93.93 0 0 1-.716.172zm24.205 4.155q-2.806-.434-4.654-1.571t-2.886-2.795a9.95 9.95 0 0 1-1.377-3.654 16.2 16.2 0 0 1-.114-4.227q.126-1.074.282-2.345l.404-2.608q.242-1.299.453-2.4.416-2.16 1.382-3.954.972-1.833 2.457-3.06 1.526-1.221 3.63-1.745 2.106-.525 4.833-.101 2.767.428 4.615 1.565 1.848 1.136 2.892 2.755 1.084 1.626 1.416 3.66.378 2.002.12 4.188a34 34 0 0 1-.294 2.424l-.404 2.608q-.197 1.266-.44 2.32a15.1 15.1 0 0 1-1.35 4.001 9.95 9.95 0 0 1-2.417 3.066q-1.492 1.266-3.636 1.784-2.106.525-4.912.09m.704-4.546q2.569.398 4.013-1.078 1.488-1.51 1.975-4.39.257-1.133.434-2.28l.368-2.371q.184-1.185.27-2.266.396-2.812-.567-4.702-.915-1.923-3.485-2.321-2.53-.392-4.025 1.157-1.449 1.517-1.963 4.31-.165 1.068-.389 2.248l-.367 2.371a67 67 0 0 1-.316 2.3q-.367 2.897.594 4.786.968 1.852 3.458 2.236m29.228 9.184q-2.807-.435-4.654-1.571-1.848-1.137-2.886-2.795a10 10 0 0 1-1.377-3.654 16.2 16.2 0 0 1-.114-4.227q.126-1.074.282-2.345l.404-2.608q.242-1.299.453-2.4.416-2.16 1.382-3.954.972-1.833 2.457-3.06 1.525-1.221 3.63-1.745 2.105-.525 4.833-.101 2.766.428 4.615 1.565 1.847 1.136 2.892 2.755 1.083 1.626 1.416 3.66.378 2.001.12 4.188-.092 1.119-.294 2.424l-.405 2.608q-.195 1.266-.44 2.32a15.1 15.1 0 0 1-1.348 4.001 10 10 0 0 1-2.418 3.066q-1.492 1.266-3.637 1.784-2.105.524-4.911.09m.704-4.546q2.569.399 4.013-1.078 1.488-1.51 1.975-4.39.257-1.133.434-2.28l.368-2.371q.183-1.185.27-2.266.396-2.812-.567-4.702-.916-1.923-3.485-2.321-2.53-.392-4.025 1.157-1.449 1.517-1.963 4.31-.165 1.068-.389 2.248l-.367 2.371a67 67 0 0 1-.316 2.299q-.368 2.898.594 4.787.968 1.852 3.458 2.236"/></svg>