<svg xmlns="http://www.w3.org/2000/svg" width="130" height="100" fill="none"><path fill="#0057A7" d="M123.684 72.603v.596c0 7.263-4.943 11.778-12.902 11.778h-2.709v10.246c0 .36.071.718.21 1.051a2.73 2.73 0 0 0 1.487 1.487c.334.138.691.208 1.052.208h10.563a2.75 2.75 0 0 0 2.749-2.746V72.522zM6.47 73.188v-.271l-.617-.2v22.479a2.746 2.746 0 0 0 2.746 2.773H19.16a2.746 2.746 0 0 0 2.747-2.746V84.977h-2.535c-7.957 0-12.903-4.515-12.903-11.79M14.037 23.335a2.44 2.44 0 0 0-2.66-1.44l-6.773 1.188a2.665 2.665 0 0 0-2.24 2.635v1.33a2.676 2.676 0 0 0 2.105 2.614l9.6 2.194 2.243-3.427zm111.359-.252-6.771-1.175a2.44 2.44 0 0 0-2.657 1.44l-2.256 5.1 2.27 3.432 9.555-2.218a2.675 2.675 0 0 0 2.107-2.614v-1.33a2.665 2.665 0 0 0-2.248-2.635"/><path fill="#007CEE" d="m120.702 38.54-7.006-10.684-.696-1.062-5.934-14.002a14.54 14.54 0 0 0-11.09-8.71A200 200 0 0 0 65 1.82a200 200 0 0 0-30.972 2.27 14.54 14.54 0 0 0-11.105 8.71L17 26.794l-.696 1.061L9.298 38.54a21.04 21.04 0 0 0-3.445 11.537v23.11c0 7.784 5.416 12.32 13.444 12.32h91.409c8.016 0 13.444-4.536 13.444-12.32v-23.11a21.04 21.04 0 0 0-3.448-11.537"/><path fill="#007CEE" d="M5.853 68.906v4.282c0 7.783 5.416 12.32 13.444 12.32h91.409c8.016 0 13.444-4.537 13.444-12.32v-4.282z"/><path fill="#fff" d="m20.64 25.147 4.789-11.291a11.77 11.77 0 0 1 9.021-7.093A198 198 0 0 1 65 4.528c10.226-.046 20.44.701 30.55 2.235a11.77 11.77 0 0 1 9.022 7.093l4.788 11.29z"/><path fill="#0688FF" d="M124.15 50.077a21.04 21.04 0 0 0-3.448-11.537l-7.006-10.685-.696-1.061-.699-1.647H23.005a147 147 0 0 0-1.555 2.82c-3.867 7.193-7.637 11.605-7.637 22.221v17.523c0 .406.018.813.048 1.195H124.15zM13.853 68.906c.542 7.041 5.799 11.126 13.396 11.126h91.409a18.8 18.8 0 0 0 3.94-.445 12.65 12.65 0 0 0 1.552-6.4v-4.281z"/><path fill="#fff" d="M16.981 44.181s10.622.661 12.058 1.102 6.944 10.915 6.944 10.915l-17.924-2.53a4.015 4.015 0 0 1-3.328-3.046 8.8 8.8 0 0 1-.285-2.804c.22-2.426.992-3.637 2.535-3.637m96.035 0s-10.622.661-12.055 1.102-6.947 10.915-6.947 10.915l17.924-2.53a4.02 4.02 0 0 0 3.329-3.046c.24-.914.331-1.86.271-2.804-.206-2.426-.975-3.637-2.522-3.637"/><path fill="#0057A7" d="m43.897 57.75-5.35-11.345s18.843 1.641 26.45 1.641c7.608 0 26.455-1.641 26.455-1.641L86.103 57.75 64.87 58.963z"/></svg>