<svg width="155" height="155" viewBox="0 0 155 155" fill="none" xmlns="http://www.w3.org/2000/svg">
<path d="M100.017 90.727C99.1036 91.2987 97.9015 91.0199 97.3316 90.1091L84.7182 69.9547C84.5242 69.6448 84.4214 69.2865 84.4215 68.9209L84.4215 63.0751L80.5243 63.0751C79.4482 63.0751 78.5757 62.2027 78.5757 61.1265C78.5757 60.0503 79.4482 59.1779 80.5243 59.1779L84.4215 59.1779L84.4215 55.2807L80.5243 55.2807C79.4482 55.2807 78.5757 54.4083 78.5757 53.3321C78.5757 52.2559 79.4482 51.3835 80.5243 51.3835L84.4215 51.3835L84.4215 47.4863L80.5243 47.4863C79.4482 47.4863 78.5757 46.6139 78.5757 45.5377C78.5757 44.4614 79.4482 43.589 80.5243 43.589L84.4215 43.589L84.4215 39.6916L70.7812 39.6916L70.7812 49.4347C70.7812 50.5109 69.9086 51.3833 68.8326 51.3833C67.7566 51.3833 66.884 50.5109 66.884 49.4347L66.884 39.6698C63.8878 39.4212 61.5253 36.9051 61.5253 33.8458C61.5253 30.6224 64.1478 28 67.3712 28L87.8315 28C91.0549 28 93.6773 30.6224 93.6773 33.8458C93.6773 36.9049 91.3149 39.4212 88.3187 39.6698L88.3187 68.3613L100.635 88.0414C101.206 88.9538 100.929 90.156 100.017 90.727ZM89.7797 33.8458C89.7797 32.7714 88.9056 31.8972 87.8311 31.8972L67.3708 31.8972C66.2963 31.8972 65.4222 32.7714 65.4222 33.8458C65.4222 34.9203 66.2963 35.7944 67.3708 35.7944L87.8311 35.7944C88.9056 35.7944 89.7797 34.9203 89.7797 33.8458Z" fill="#007CEE"/>
<path d="M37.1348 115.904C37.1823 115.815 41.6976 108.607 66.8834 68.3616L66.8834 57.2294C66.8834 56.1532 67.7559 55.2808 68.832 55.2808C69.908 55.2808 70.7806 56.1532 70.7806 57.2294L70.7806 68.921C70.7806 69.2866 70.6777 69.6449 70.4838 69.9547L40.5431 117.796C39.2048 120.387 41.0848 123.482 44.0067 123.482L111.195 123.482C114.122 123.482 115.994 120.383 114.658 117.796L101.466 96.7149C100.895 95.8026 101.172 94.6003 102.084 94.0294C102.997 93.4582 104.199 93.7353 104.77 94.6475C118.648 116.827 118.01 115.798 118.067 115.904C120.844 121.093 117.09 127.379 111.195 127.379L44.0067 127.379C38.1204 127.379 34.3531 121.101 37.1348 115.904Z" fill="#007CEE"/>
<path d="M61.5577 119.585L47.5396 119.585C46.0115 119.585 45.0762 117.899 45.8878 116.603L62.6962 89.7426C62.9535 88.9673 63.6832 88.4072 64.5449 88.4072L90.6562 88.4072C91.52 88.4072 92.2523 88.9692 92.508 89.7473L109.314 116.603C110.124 117.898 109.191 119.585 107.662 119.585L69.3521 119.585C68.2761 119.585 67.4035 118.713 67.4035 117.636C67.4035 116.56 68.2761 115.688 69.3521 115.688L104.143 115.688L89.5108 92.3044L65.6905 92.3044L51.0578 115.688L61.5579 115.688C62.6339 115.688 63.5065 116.56 63.5065 117.636C63.5065 118.713 62.6339 119.585 61.5577 119.585Z" fill="#007CEE"/>
<path d="M90.2661 102.047C90.2661 105.271 87.6437 107.893 84.4203 107.893C81.1969 107.893 78.5745 105.271 78.5745 102.047C78.5745 98.8241 81.1969 96.2017 84.4203 96.2017C87.6437 96.2017 90.2661 98.8241 90.2661 102.047ZM82.4717 102.047C82.4717 103.122 83.3458 103.996 84.4203 103.996C85.4948 103.996 86.3689 103.122 86.3689 102.047C86.3689 100.973 85.4948 100.099 84.4203 100.099C83.3458 100.099 82.4717 100.973 82.4717 102.047ZM61.037 105.945C61.037 102.721 63.6595 100.099 66.8828 100.099C70.1062 100.099 72.7287 102.721 72.7287 105.945C72.7287 109.168 70.1062 111.791 66.8828 111.791C63.6595 111.791 61.037 109.168 61.037 105.945ZM66.8828 107.893C67.9573 107.893 68.8314 107.019 68.8314 105.945C68.8314 104.87 67.9573 103.996 66.8828 103.996C65.8084 103.996 64.9342 104.87 64.9342 105.945C64.9342 107.019 65.8086 107.893 66.8828 107.893Z" fill="#007CEE"/>
<path d="M82.4732 78.7625C81.3432 78.7625 80.4272 77.8464 80.4272 76.7164C80.4272 75.5865 81.3432 74.6704 82.4732 74.6704C83.6032 74.6704 84.5192 75.5865 84.5192 76.7164C84.5192 77.8464 83.6032 78.7625 82.4732 78.7625Z" fill="#007CEE"/>
<path d="M72.7286 84.6077C71.5986 84.6077 70.6825 83.6917 70.6825 82.5617C70.6825 81.4317 71.5986 80.5156 72.7286 80.5156C73.8586 80.5156 74.7746 81.4317 74.7746 82.5617C74.7746 83.6917 73.8586 84.6077 72.7286 84.6077Z" fill="#007CEE"/>
<path d="M94.1635 111.888C93.0335 111.888 92.1174 110.972 92.1174 109.842C92.1174 108.712 93.0335 107.796 94.1635 107.796C95.2935 107.796 96.2095 108.712 96.2095 109.842C96.2095 110.972 95.2935 111.888 94.1635 111.888Z" fill="#007CEE"/>
</svg>
