<svg width="155" height="155" viewBox="0 0 155 155" fill="none" xmlns="http://www.w3.org/2000/svg">
<path d="M101.338 111.89C101.791 111.89 102.225 111.711 102.546 111.39C102.866 111.07 103.046 110.635 103.046 110.182V99.5684C103.046 99.2686 102.967 98.974 102.817 98.7143C102.667 98.4546 102.451 98.239 102.192 98.089L93.0004 92.7814C92.6081 92.5549 92.1418 92.4935 91.7042 92.6108C91.2667 92.728 90.8936 93.0143 90.6671 93.4067C90.4406 93.799 90.3792 94.2652 90.4965 94.7028C90.6137 95.1404 90.9 95.5135 91.2923 95.74L99.6296 100.554V110.182C99.6296 110.635 99.8096 111.07 100.13 111.39C100.45 111.711 100.885 111.89 101.338 111.89ZM62.6597 40.2176L76.1221 47.9893V58.2036C76.1221 58.6566 76.302 59.0911 76.6224 59.4114C76.9427 59.7317 77.3771 59.9117 77.8302 59.9117C78.2832 59.9117 78.7176 59.7317 79.0379 59.4114C79.3583 59.0911 79.5382 58.6566 79.5382 58.2036V47.99L93.0004 40.2182C93.3895 39.9901 93.6726 39.6173 93.7879 39.1813C93.9032 38.7452 93.8413 38.2813 93.6158 37.8906C93.3902 37.5 93.0194 37.2145 92.5841 37.0963C92.1488 36.9781 91.6844 37.0369 91.2923 37.2598L77.8302 45.0316L64.3678 37.2598C63.9757 37.0369 63.5113 36.9781 63.076 37.0963C62.6407 37.2145 62.2698 37.5 62.0443 37.8906C61.8188 38.2813 61.7569 38.7452 61.8722 39.1813C61.9875 39.6173 62.2706 39.9901 62.6597 40.2182V40.2176ZM85.3141 85.3852C85.3141 85.8382 85.494 86.2727 85.8144 86.593C86.1347 86.9133 86.5691 87.0933 87.0222 87.0933C87.4752 87.0933 87.9096 86.9133 88.2299 86.593C88.5503 86.2727 88.7302 85.8382 88.7302 85.3852V74.7713C88.7302 74.4714 88.6513 74.1769 88.5014 73.9172C88.3515 73.6576 88.1358 73.442 87.8762 73.2921L78.6844 67.9851C78.2923 67.7622 77.8279 67.7034 77.3926 67.8215C76.9574 67.9397 76.5865 68.2253 76.361 68.6159C76.1354 69.0065 76.0736 69.4705 76.1888 69.9065C76.3041 70.3426 76.5872 70.7154 76.9763 70.9435L85.3143 75.7575L85.3141 85.3852Z" fill="#007CEE"/>
<path d="M119.924 86.865L106.461 94.6368L93.8534 87.3589V71.8133C93.8534 71.5135 93.7745 71.2189 93.6246 70.9593C93.4747 70.6996 93.2591 70.484 92.9994 70.3341L78.6834 62.0687C78.4237 61.9188 78.1292 61.8399 77.8294 61.8399C77.5295 61.8399 77.235 61.9188 76.9753 62.0687L62.6591 70.3341C62.3995 70.484 62.1838 70.6996 62.0339 70.9593C61.884 71.2189 61.8051 71.5135 61.8051 71.8133V87.3589L49.1967 94.6383L35.7348 86.8665C35.3424 86.64 34.8762 86.5786 34.4386 86.6959C34.001 86.8132 33.6279 87.0995 33.4014 87.4918C33.1749 87.8841 33.1135 88.3504 33.2308 88.788C33.3481 89.2255 33.6343 89.5986 34.0267 89.8251L47.4886 97.5969V113.142C47.4886 113.595 47.6686 114.029 47.9889 114.349C48.3093 114.67 48.7437 114.85 49.1967 114.85C49.6497 114.85 50.0842 114.67 50.4045 114.349C50.7248 114.029 50.9048 113.595 50.9048 113.142V97.5966L63.5129 90.3173L76.1213 97.5966V100.149C76.1213 100.602 76.3012 101.037 76.6216 101.357C76.9419 101.677 77.3763 101.857 77.8294 101.857C78.2824 101.857 78.7168 101.677 79.0371 101.357C79.3575 101.037 79.5374 100.602 79.5374 100.149V97.5966L92.1456 90.3173L104.753 97.5966V112.155L92.1454 119.434L79.5374 112.155V105.433C79.5374 104.98 79.3575 104.545 79.0371 104.225C78.7168 103.905 78.2824 103.725 77.8294 103.725C77.3763 103.725 76.9419 103.905 76.6216 104.225C76.3012 104.545 76.1213 104.98 76.1213 105.433V113.141C76.1213 113.44 76.2002 113.735 76.3501 113.995C76.5 114.254 76.7157 114.47 76.9753 114.62L91.2913 122.887C91.551 123.037 91.8455 123.116 92.1454 123.116C92.4452 123.116 92.7397 123.037 92.9994 122.887L107.315 114.621C107.575 114.471 107.79 114.255 107.94 113.995C108.09 113.736 108.169 113.441 108.169 113.141V97.5958L121.631 89.8241C122.02 89.5959 122.303 89.2232 122.419 88.7871C122.534 88.3511 122.472 87.8871 122.247 87.4965C122.021 87.1059 121.65 86.8203 121.215 86.7021C120.78 86.5839 120.315 86.6427 119.923 86.8657L119.924 86.865ZM65.221 72.7995L77.8294 65.5203L90.4375 72.7995V87.3589L77.8294 94.6374L65.221 87.3589V72.7995ZM99.622 39.1899C100.63 39.1899 101.615 38.8911 102.453 38.3313C103.291 37.7714 103.944 36.9757 104.329 36.0447C104.715 35.1137 104.816 34.0892 104.619 33.1009C104.422 32.1126 103.937 31.2047 103.225 30.4922C102.512 29.7797 101.604 29.2944 100.616 29.0979C99.6275 28.9013 98.6031 29.0022 97.6721 29.3879C96.7411 29.7736 95.9454 30.4266 95.3856 31.2645C94.8258 32.1024 94.527 33.0875 94.5271 34.0952C94.5286 35.4459 95.0659 36.7409 96.0211 37.696C96.9763 38.6512 98.2713 39.1884 99.622 39.1899ZM99.622 32.4164C99.9541 32.4164 100.279 32.5148 100.555 32.6993C100.831 32.8838 101.046 33.146 101.173 33.4527C101.3 33.7595 101.333 34.097 101.269 34.4227C101.204 34.7484 101.044 35.0475 100.809 35.2823C100.574 35.5171 100.275 35.677 99.9495 35.7417C99.6239 35.8065 99.2863 35.7733 98.9796 35.6462C98.6728 35.5191 98.4106 35.304 98.2261 35.0279C98.0417 34.7518 97.9432 34.4272 97.9432 34.0952C97.9437 33.6501 98.1207 33.2233 98.4354 32.9086C98.7502 32.5938 99.1769 32.4168 99.622 32.4164ZM56.8493 39.1899C57.857 39.1899 58.8421 38.8911 59.6799 38.3313C60.5178 37.7714 61.1708 36.9757 61.5565 36.0447C61.9421 35.1137 62.043 34.0892 61.8464 33.1009C61.6498 32.1126 61.1645 31.2047 60.4519 30.4922C59.7394 29.7797 58.8315 29.2944 57.8432 29.0979C56.8548 28.9013 55.8304 29.0022 54.8994 29.3879C53.9684 29.7736 53.1727 30.4266 52.6129 31.2645C52.0531 32.1024 51.7543 33.0875 51.7543 34.0952C51.7559 35.4459 52.2932 36.7409 53.2484 37.696C54.2035 38.6512 55.4985 39.1884 56.8493 39.1899ZM56.8493 32.4164C57.1814 32.4164 57.5059 32.5148 57.782 32.6993C58.0581 32.8838 58.2733 33.146 58.4003 33.4527C58.5274 33.7595 58.5607 34.097 58.4959 34.4227C58.4311 34.7484 58.2712 35.0475 58.0364 35.2823C57.8016 35.5171 57.5025 35.677 57.1768 35.7417C56.8512 35.8065 56.5136 35.7733 56.2069 35.6462C55.9001 35.5191 55.6379 35.304 55.4534 35.0279C55.269 34.7518 55.1705 34.4272 55.1705 34.0952C55.1709 33.6501 55.348 33.2233 55.6627 32.9086C55.9774 32.5938 56.4042 32.4168 56.8493 32.4164ZM28.095 79.2712C27.0873 79.2712 26.1022 79.57 25.2644 80.1298C24.4265 80.6897 23.7735 81.4854 23.3878 82.4164C23.0022 83.3473 22.9013 84.3718 23.0979 85.3601C23.2945 86.3484 23.7797 87.2563 24.4923 87.9688C25.2048 88.6814 26.1127 89.1666 27.101 89.3632C28.0893 89.5598 29.1137 89.4589 30.0447 89.0733C30.9757 88.6876 31.7714 88.0346 32.3313 87.1967C32.8911 86.3589 33.1899 85.3738 33.1899 84.3661C33.1884 83.0153 32.6511 81.7203 31.696 80.7651C30.7408 79.81 29.4458 79.2727 28.095 79.2712ZM28.095 86.0447C27.7629 86.0447 27.4383 85.9463 27.1622 85.7618C26.8862 85.5773 26.671 85.3151 26.5439 85.0083C26.4169 84.7015 26.3836 84.364 26.4484 84.0383C26.5132 83.7126 26.6731 83.4135 26.9079 83.1787C27.1427 82.9439 27.4419 82.7841 27.7676 82.7193C28.0933 82.6546 28.4308 82.6878 28.7376 82.8149C29.0443 82.942 29.3065 83.1573 29.491 83.4334C29.6754 83.7095 29.7738 84.0341 29.7738 84.3661C29.7733 84.8112 29.5962 85.2379 29.2815 85.5526C28.9668 85.8673 28.54 86.0443 28.095 86.0447ZM127.222 79.2712C126.214 79.2711 125.229 79.5699 124.391 80.1297C123.554 80.6895 122.901 81.4852 122.515 82.4162C122.129 83.3472 122.028 84.3716 122.225 85.36C122.421 86.3483 122.907 87.2562 123.619 87.9687C124.332 88.6813 125.24 89.1666 126.228 89.3632C127.216 89.5598 128.241 89.4589 129.172 89.0733C130.103 88.6877 130.898 88.0346 131.458 87.1968C132.018 86.3589 132.317 85.3738 132.317 84.3661C132.315 83.0154 131.778 81.7204 130.823 80.7652C129.868 79.81 128.573 79.2727 127.222 79.2712ZM127.222 86.0447C126.89 86.0448 126.565 85.9463 126.289 85.7619C126.013 85.5774 125.798 85.3152 125.671 85.0085C125.544 84.7017 125.511 84.3641 125.575 84.0384C125.64 83.7128 125.8 83.4136 126.035 83.1788C126.27 82.944 126.569 82.7841 126.894 82.7193C127.22 82.6546 127.558 82.6878 127.864 82.8149C128.171 82.942 128.433 83.1572 128.618 83.4333C128.802 83.7095 128.901 84.0341 128.901 84.3661C128.9 84.8111 128.723 85.2378 128.408 85.5524C128.094 85.8671 127.667 86.0442 127.222 86.0447ZM48.6155 116.312C47.6078 116.312 46.6227 116.611 45.7849 117.171C44.947 117.73 44.2939 118.526 43.9082 119.457C43.5226 120.388 43.4217 121.413 43.6183 122.401C43.8148 123.389 44.3001 124.297 45.0126 125.01C45.7252 125.722 46.6331 126.207 47.6214 126.404C48.6098 126.601 49.6342 126.5 50.5652 126.114C51.4962 125.728 52.2919 125.075 52.8517 124.237C53.4116 123.4 53.7103 122.414 53.7103 121.407C53.7087 120.056 53.1714 118.761 52.2163 117.806C51.2612 116.851 49.9663 116.314 48.6155 116.312ZM48.6155 123.086C48.2835 123.086 47.9589 122.987 47.6828 122.803C47.4067 122.618 47.1915 122.356 47.0644 122.049C46.9373 121.743 46.904 121.405 46.9687 121.079C47.0335 120.754 47.1934 120.455 47.4282 120.22C47.6629 119.985 47.9621 119.825 48.2877 119.76C48.6134 119.695 48.951 119.729 49.2577 119.856C49.5645 119.983 49.8267 120.198 50.0112 120.474C50.1957 120.75 50.2942 121.075 50.2942 121.407C50.2936 121.852 50.1166 122.278 49.802 122.593C49.4873 122.908 49.0606 123.085 48.6155 123.086Z" fill="#007CEE"/>
</svg>
