<svg xmlns="http://www.w3.org/2000/svg" width="483" height="369" fill="none"><path fill="#0063BE" d="M422.917 26.447a8 8 0 0 0-8-8H179.416a8 8 0 0 0-8 8v333.834a8 8 0 0 0 8 8h235.501a8 8 0 0 0 8-8z"/><path fill="#F5F5F5" d="M184.332 339.752V46.974c0-7.168 5.81-12.978 12.978-12.978h199.718c7.168 0 12.978 5.81 12.978 12.978v292.778c0 7.168-5.81 12.978-12.978 12.978H197.31c-7.168 0-12.978-5.81-12.978-12.978"/><path fill="#051923" d="M361.152 50.798h-127.97l2.174-32.491h123.622z"/><path fill="#051923" d="M311.584.137h-28.837l-2.173 19.169h33.184zm-14.418 14.761a5.177 5.177 0 1 1 0-10.353 5.177 5.177 0 0 1 0 10.353"/><path stroke="#051923" stroke-miterlimit="10" stroke-width="1.895" d="M238.677 83.762h-29.288v29.288h29.288z"/><path fill="#051923" d="M383.448 86.49H247.395a1.493 1.493 0 0 1 0-2.986h136.053a1.493 1.493 0 1 1 0 2.986M383.448 99.9H247.395a1.493 1.493 0 0 1 0-2.986h136.053a1.493 1.493 0 1 1 0 2.986M383.448 113.312H247.395a1.493 1.493 0 0 1 0-2.986h136.053a1.493 1.493 0 0 1 0 2.986M383.448 192.701H247.395a1.494 1.494 0 0 1 0-2.986h136.053a1.492 1.492 0 1 1 0 2.986M383.448 206.111H247.395a1.494 1.494 0 0 1 0-2.986h136.053a1.492 1.492 0 1 1 0 2.986M383.448 219.523H247.395a1.494 1.494 0 0 1 0-2.986h136.053a1.493 1.493 0 0 1 0 2.986M383.448 245.808H247.395a1.493 1.493 0 0 1 0-2.986h136.053a1.493 1.493 0 0 1 0 2.986M383.448 259.218H247.395a1.493 1.493 0 0 1 0-2.986h136.053a1.493 1.493 0 0 1 0 2.986M383.448 272.628H247.395a1.493 1.493 0 0 1 0-2.985h136.053a1.492 1.492 0 1 1 0 2.985M383.448 298.914H247.395a1.494 1.494 0 0 1 0-2.986h136.053a1.492 1.492 0 1 1 0 2.986M383.448 312.324H247.395a1.494 1.494 0 0 1 0-2.986h136.053a1.492 1.492 0 1 1 0 2.986M383.448 325.736H247.395a1.494 1.494 0 0 1 0-2.986h136.053a1.492 1.492 0 1 1 0 2.986M383.448 139.595H247.395a1.493 1.493 0 0 1 0-2.986h136.053a1.493 1.493 0 0 1 0 2.986M383.448 153.005H247.395a1.493 1.493 0 0 1 0-2.985h136.053a1.492 1.492 0 1 1 0 2.985M383.448 166.417H247.395a1.493 1.493 0 1 1 0-2.985h136.053a1.492 1.492 0 1 1 0 2.985"/><path stroke="#051923" stroke-miterlimit="10" stroke-width="1.895" d="M238.677 136.867h-29.288v29.288h29.288zM238.677 189.975h-29.288v29.288h29.288zM238.677 296.188h-29.288v29.288h29.288zM238.677 243.082h-29.288v29.288h29.288z"/><path stroke="#007CEE" stroke-linecap="round" stroke-linejoin="round" stroke-miterlimit="10" stroke-width="3.791" d="m216.25 96.085 6.608 7.099 15.818-25.536"/><path fill="#FFC3BD" d="M468.639 238.506s-1.774-1.127-4.399-.369c.788 4.169.984 5.153.984 5.153l3.561-1.176z"/><path fill="#FFC3BD" d="m465.239 239.089-33.937-.952c-3.827 11.64-8.46 31.536-9.681 42.048-1.222 10.512-1.361 30.623 2.7 45.402l11.533 35.664h8.391l-4.369-30.03a109.75 109.75 0 0 1 4.646-50.968l4.473-13.22 10.611 94.218h6.782c2.513-21.171 8.853-85.177-1.149-122.162"/><path fill="#051923" d="M425.582 368.279h19.685l-1.022-7.029h-8.391s-10.272-.142-10.272 7.029M452.809 368.279h13.253l.327-7.028h-6.782c-3.67-.038-6.798 3.146-6.798 7.028"/><path fill="#FFC3BD" d="M436.182 156.122v16.922s.142 6.417 8.897 6.417c10.119 0 9.247-9.732 9.247-9.732s4.362-.174 4.362-3.837-4.362-3.141-4.362-3.141v-6.63z"/><path fill="#007CEE" d="M453.906 183.326c-7.616-3.463-16.382-.61-22.854 3.976-5.854 4.148-12.335 14.35-20.424 8.569-5.471-3.909-6.898-8.416-9.363-14.662l-3.97.897s.753 7.213 6.1 16.652c5.805 10.249 17.287 14.1 27.306 9.476q.813-.375 1.615-.821l-1.291 39.164 33.95-.01c-.147-18.22 8.236-54.464-11.069-63.241"/><path fill="#007CEE" d="M450.455 182.105s21.957 2.583 30.633 28.615c5.923 21.624-12.303 31.394-12.303 31.394l-.147-3.607s12.159-16.356-3.13-29.853"/><path fill="#051923" d="M436.18 162.096s-3.505-1.571-4.204-4.407c-.963-3.911 3.839-12.606 17.402-11.529 13.562 1.077 20.467 11.233 20.322 26.007-.143 14.773 8.013 14.157 10.782 26.16s-6.331 20.928-25.094 19.698c-18.763-1.232-21.841-16.312-17.994-25.391s10.039-27.152-1.214-30.538M465.24 239.088c-10.988 1.194-22.319.792-33.938-.951 0 0-13.73 22.31-13.73 65.072 18.608 6.13 52.62 3.527 59.438 0 0 0-2.364-39.855-11.77-64.121"/><path fill="#FFC3BD" d="M401.264 181.21s1.533-6.741-.814-7.389c-.81-3.642-1.458-4.533-2.186-4.29s0 4.128 0 4.128-3.199 1.278-3.847 2.984c-.647 1.706 2.876 5.464 2.876 5.464z"/><path fill="#051923" d="M439.324 167.049c-.071.858-.56 1.517-1.093 1.473s-.907-.775-.836-1.632c.071-.858.56-1.517 1.093-1.474.532.044.907.775.836 1.633"/><path fill="#DB7E98" d="M436.179 166.268s-4.345 5.651 0 5.67Z"/><path fill="#fff" d="m437.328 173.71 3.134-.71s-.296 1.952-2.394 2.542c0 0-.71-.916-.74-1.832"/><path fill="#051923" d="M91.62 361.109s-11.186.097-11.186 7.171h19.685l.65-7.171zM135.756 361.109s11.186.097 11.186 7.171h-19.149l.507-7.171zM107.144 175.669s-8.891-3.922-10.286-12.552 4.533-15.168 14.47-17.085c9.936-1.918 12.885 3.75 8.753 6.756-4.134 3.007-12.937 22.881-12.937 22.881"/><path fill="#CC9C97" d="m106.001 183.773-1.763-15.182 11.352-1.318 1.638 14.12a87 87 0 0 1-11.227 2.38"/><path fill="#FFC3BD" d="M120.079 152.789c.258-.023 1.793 12.408 1.922 13.389.263 1.994.917 4.215.138 6.142-1.228 3.038-4.355 4.407-7.421 4.865-10.008 1.492-10.58-8.263-10.58-8.263s-4.34.47-4.88-3.153 3.851-3.748 3.851-3.748l-.977-6.558z"/><path fill="#007CEE" d="M181.108 127.994 17.381 168.612c-7.507 1.863-15.104-2.714-16.966-10.221s2.714-15.103 10.221-16.965l163.728-40.619z"/><path fill="#007CEE" d="m23.655 167.056-6.274 1.557c-7.507 1.862-15.104-2.714-16.966-10.221s2.714-15.104 10.221-16.966l6.275-1.557z"/><path fill="#051923" d="m25.855 137.657-8.94 2.218 6.744 27.187 8.941-2.218z"/><path fill="#EFC5BC" d="m174.363 100.809 6.745 27.185 23.627-15.277-2.344-9.447z"/><path fill="#007CEE" d="m202.391 103.27 2.343 9.447 12.583-8.137z"/><path fill="#FFC3BD" d="M46.222 164.731s.35-6.828-.717-7.252c-1.017-.229-1.2 4.374-1.2 4.374l-9.461 2.451s1.121 1.853 4.802 1.853"/><path fill="#3E3577" d="M111.215 163.366c.126.851-.2 1.605-.729 1.683s-1.059-.548-1.185-1.4.2-1.605.729-1.683c.53-.078 1.06.548 1.185 1.4M119.331 162.164c.127.852-.2 1.606-.729 1.684s-1.059-.55-1.184-1.4c-.126-.851.2-1.606.729-1.684.527-.078 1.058.55 1.184 1.4"/><path fill="#fff" d="m111.445 169.388 7.69-1.189s.26 2.647-3.124 3.167c-3.692.568-4.566-1.978-4.566-1.978"/><path fill="#DB7E98" d="M114.043 161.742s5.053 4.66.796 5.532ZM103.205 163.85s-2.695.217-2.178 2.179c.517 1.963 2.79 1.246 2.79 1.246z"/><path fill="#3E3577" d="M138.951 236.591c.089.729-.025-.758 0 0"/><path fill="#051923" d="M138.951 236.592H94.377l-1.27 124.517h7.663l16.687-94.65 10.846 94.65h7.457s4.608-82.344 3.191-124.517"/><path fill="#007CEE" d="m164.159 135.447-5.388.49s3.943 30.225-39.058 44.679c0 0-45.017 16.199-73.564-15.962l-6.506 1.501s17.136 31.829 55.078 36.527l-.347 33.908c14.919 2.462 29.777 2.483 44.575 0 .529-14.688-1.125-42.578-1.125-42.578s33.378-15.464 26.335-58.565"/><path fill="#BFB7FB" d="M118.616 238.446h-.543c0-26.341-4.291-55.804-4.335-56.142l.572-.14c.044.336 4.306 29.908 4.306 56.282M112.569 185.337a.657.657 0 1 0 0-1.314.657.657 0 0 0 0 1.314M113.225 195.544a.657.657 0 1 0 0-1.314.657.657 0 0 0 0 1.314M114.415 205.752a.657.657 0 1 0 0-1.315.657.657 0 0 0 0 1.315M115.071 215.957a.657.657 0 1 0 0-1.315.657.657 0 0 0 0 1.315M115.835 226.164a.657.657 0 1 0 0-1.315.657.657 0 0 0 0 1.315M116.489 236.371a.657.657 0 1 0 0-1.314.657.657 0 0 0 0 1.314"/><path fill="#FFC3BD" d="M158.783 135.952s-.335-6.533.686-6.938c.973-.22 1.142 4.065 1.142 4.065l6.609-1.64s.031 2.042-3.059 4.009"/></svg>