<svg width="155" height="155" viewBox="0 0 155 155" fill="none" xmlns="http://www.w3.org/2000/svg">
<path d="M77.6584 95.1006C85.7208 95.1006 92.2831 88.5383 92.2831 80.476C92.2831 72.4137 85.7208 65.8513 77.6584 65.8513C69.5961 65.8513 63.0338 72.4137 63.0338 80.476C63.0338 88.5383 69.5961 95.1006 77.6584 95.1006ZM77.6584 69.2774C83.8458 69.2774 88.8741 74.3057 88.8741 80.493C88.8741 86.6804 83.8458 91.7086 77.6584 91.7086C71.4711 91.7086 66.4428 86.6804 66.4428 80.493C66.4428 74.3057 71.4711 69.2774 77.6584 69.2774ZM72.562 84.5838C72.4117 84.4183 72.2956 84.2248 72.2203 84.0143C72.145 83.8039 72.1119 83.5806 72.123 83.3574C72.1341 83.1341 72.1891 82.9153 72.2849 82.7133C72.3807 82.5114 72.5154 82.3303 72.6813 82.1805L75.9539 79.2317V72.8227C75.9539 71.8853 76.721 71.1182 77.6584 71.1182C78.5959 71.1182 79.363 71.8853 79.363 72.8227V79.9987C79.3624 80.2366 79.3121 80.4717 79.2152 80.6889C79.1183 80.9061 78.977 81.1007 78.8005 81.26L74.9653 84.7031C74.6415 84.9929 74.2324 85.1463 73.8233 85.1463C73.5851 85.1479 73.3493 85.0985 73.1318 85.0015C72.9142 84.9045 72.72 84.7621 72.562 84.5838ZM77.6584 26C76.721 26 75.9539 26.767 75.9539 27.7045V31.3351H73.8574C70.4825 31.3351 67.7212 34.0793 67.7212 37.4713V39.0906L56.0112 49.8631H55.9942L55.8749 50.0335C55.7897 50.1358 55.7044 50.2551 55.6533 50.3744C55.6192 50.4426 55.6022 50.5108 55.5681 50.579C55.5169 50.7153 55.4999 50.8517 55.4828 51.0051C55.4828 51.0562 55.4658 51.0903 55.4658 51.1244V59.8685C54.1574 60.3447 53.0272 61.2118 52.2283 62.3522C51.4295 63.4926 51.0006 64.851 51 66.2433V93.7711C51 96.7028 52.875 99.1914 55.4658 100.146V126.566C55.4658 127.503 56.2328 128.27 57.1703 128.27H98.1295C99.067 128.27 99.834 127.503 99.834 126.566V100.146C102.442 99.1914 104.317 96.7028 104.317 93.7711V66.2263C104.317 63.2946 102.442 60.806 99.834 59.8515V51.0562C99.834 50.8858 99.8 50.7153 99.7318 50.5449C99.7176 50.4984 99.7005 50.4529 99.6806 50.4085C99.6125 50.2551 99.5102 50.1187 99.4079 49.9994C99.3909 49.9653 99.3738 49.9312 99.3397 49.9142C99.3397 49.9142 99.3397 49.8972 99.3057 49.8801L87.5616 39.0735V37.4884C87.5616 34.1134 84.8174 31.3521 81.4254 31.3521H79.363V27.7045C79.363 26.767 78.5959 26 77.6584 26ZM65.8462 124.861H58.8919V100.589H65.8462V124.861ZM75.8858 124.861H69.2552V100.589H75.8858V124.861ZM85.9253 124.861H79.2948V100.589H85.9253V124.861ZM96.425 124.861H89.3343V100.589H96.425V124.861ZM100.908 66.2263V93.754C100.908 95.629 99.3738 97.1631 97.4989 97.1631H57.818C55.9431 97.1631 54.409 95.629 54.409 93.754V66.2263C54.409 64.3513 55.9431 62.8173 57.818 62.8173H97.4989C99.3738 62.8173 100.908 64.3513 100.908 66.2263ZM96.425 59.4083H58.8748V52.8119H96.425V59.4083ZM93.766 49.4028H61.5509L70.1245 41.511H85.1753L93.749 49.4028H93.766ZM81.4254 34.7441C82.9254 34.7441 84.1526 35.9713 84.1526 37.4713V38.102H71.1472V37.4713C71.1472 35.9713 72.3745 34.7441 73.8744 34.7441H81.4424H81.4254Z" fill="#007CEE"/>
</svg>
