<svg width="155" height="155" viewBox="0 0 155 155" fill="none" xmlns="http://www.w3.org/2000/svg">
<path d="M125.39 105.984L121.945 105.984C121.67 107.506 121.037 108.941 120.098 110.169C119.16 111.398 117.942 112.386 116.546 113.052C115.15 113.717 113.615 114.041 112.07 113.996C110.524 113.951 109.011 113.539 107.655 112.795C106.3 112.05 105.141 110.993 104.275 109.712C103.409 108.431 102.86 106.962 102.673 105.427C102.486 103.892 102.667 102.335 103.202 100.883C103.736 99.4319 104.607 98.1284 105.745 97.0805L101.308 97.0805C100.965 97.0805 100.635 96.9441 100.393 96.7014C100.15 96.4587 100.013 96.1294 100.013 95.7861C100.013 95.4428 100.15 95.1136 100.393 94.8709C100.635 94.6281 100.965 94.4918 101.308 94.4918L112.353 94.4918C114.791 94.4952 117.139 95.4109 118.937 97.0586C120.734 98.7063 121.849 100.967 122.064 103.395L125.39 103.395C125.656 103.396 125.919 103.343 126.165 103.242C126.41 103.14 126.633 102.991 126.821 102.802C127.009 102.614 127.158 102.391 127.259 102.145C127.36 101.899 127.412 101.636 127.411 101.37C127.408 100.273 127.399 98.8137 127.377 97.0805L122.556 97.0805C122.212 97.0805 121.883 96.9441 121.64 96.7014C121.398 96.4587 121.261 96.1294 121.261 95.7861C121.261 95.4428 121.398 95.1136 121.64 94.8709C121.883 94.6281 122.212 94.4917 122.556 94.4917L127.338 94.4917C127.326 93.8042 127.312 93.0896 127.295 92.3479C127.265 91.2362 126.856 90.168 126.137 89.3201C125.417 88.4721 124.43 87.8953 123.338 87.6849L106.821 84.5645C106.525 84.5085 106.257 84.3508 106.065 84.1186C105.873 83.8864 105.767 83.5943 105.767 83.2928L105.767 76.9549C105.769 75.561 106.323 74.2246 107.309 73.239C108.294 72.2534 109.631 71.699 111.025 71.6974L124.703 71.6974C124.912 71.6975 125.119 71.6545 125.311 71.5709C125.503 71.4873 125.676 71.365 125.818 71.2116C125.961 71.0582 126.07 70.8771 126.139 70.6796C126.209 70.482 126.236 70.2723 126.221 70.0636C126.199 69.7888 126.177 69.5177 126.156 69.2452L26.4982 69.2452L26.4982 70.5396C26.4987 70.9604 26.6661 71.3638 26.9636 71.6614C27.2612 71.9589 27.6646 72.1263 28.0854 72.1268L40.2849 72.1268C41.7336 72.1281 43.1226 72.7041 44.147 73.7285C45.1714 74.7528 45.7475 76.1417 45.7488 77.5904L45.7488 95.7865C45.7488 96.1298 45.6125 96.459 45.3697 96.7017C45.127 96.9445 44.7978 97.0808 44.4545 97.0808L26.4969 97.0808L26.4969 100.337C26.4978 101.148 26.8204 101.926 27.3939 102.499C27.9674 103.072 28.7449 103.395 29.5558 103.396L42.6333 103.396C42.9766 103.396 43.3058 103.532 43.5485 103.775C43.7913 104.018 43.9277 104.347 43.9277 104.69C43.9277 105.033 43.7913 105.363 43.5485 105.605C43.3058 105.848 42.9766 105.985 42.6333 105.985L29.5571 105.985C28.0598 105.983 26.6243 105.387 25.5655 104.329C24.5067 103.27 23.9111 101.834 23.9094 100.337L23.9094 95.7861C23.9094 95.4428 24.0458 95.1136 24.2885 94.8709C24.5313 94.6281 24.8605 94.4918 25.2038 94.4918L32.1935 94.4918L32.1935 74.7153L29.2873 74.7153L29.2873 90.795C29.2873 91.1383 29.1509 91.4675 28.9081 91.7103C28.6654 91.953 28.3362 92.0894 27.9929 92.0894C27.6496 92.0894 27.3204 91.953 27.0776 91.7103C26.8349 91.4675 26.6985 91.1383 26.6985 90.795L26.6985 74.4729C25.8841 74.1856 25.1787 73.6531 24.6792 72.9486C24.1798 72.2441 23.9109 71.4022 23.9094 70.5386L23.9094 57.1742C23.9146 52.6209 25.7256 48.2555 28.9453 45.0359C32.165 41.8162 36.5303 40.0051 41.0836 40L114.21 40C117.156 39.9986 120.006 41.0404 122.257 42.9408C124.507 44.8411 126.011 47.477 126.503 50.3809C127.451 55.8765 128.224 62.4316 128.8 69.8639C128.844 70.4284 128.77 70.9957 128.583 71.5303C128.397 72.0649 128.102 72.5551 127.717 72.9704C127.332 73.3857 126.866 73.717 126.347 73.9435C125.828 74.17 125.268 74.2869 124.702 74.2868L122.85 74.2868L122.85 84.9574L123.817 85.1402C125.491 85.4629 127.004 86.3473 128.107 87.6472C129.21 88.947 129.836 90.5844 129.882 92.2884C129.951 95.3124 129.99 98.3369 130 101.362C130.002 101.968 129.884 102.569 129.653 103.13C129.422 103.69 129.083 104.2 128.654 104.629C128.226 105.059 127.717 105.399 127.157 105.632C126.597 105.864 125.996 105.983 125.39 105.983L125.39 105.984ZM112.353 97.0805C110.936 97.0804 109.551 97.5005 108.373 98.2875C107.195 99.0745 106.277 100.193 105.735 101.502C105.193 102.811 105.051 104.251 105.327 105.64C105.604 107.03 106.286 108.306 107.287 109.308C108.289 110.31 109.565 110.992 110.955 111.268C112.344 111.545 113.784 111.403 115.093 110.861C116.402 110.319 117.521 109.401 118.308 108.223C119.095 107.045 119.515 105.66 119.515 104.244C119.513 102.345 118.758 100.524 117.415 99.1809C116.072 97.838 114.252 97.0827 112.353 97.0805ZM43.1614 77.5901C43.16 76.828 42.8566 76.0975 42.3177 75.5587C41.7788 75.0198 41.0483 74.7165 40.2862 74.7153L39.6695 74.7153L39.6695 94.4918L43.1614 94.4918L43.1614 77.5901ZM34.7822 94.4918L37.0797 94.4918L37.0797 74.7153L34.7822 74.7153L34.7822 94.4918ZM125.936 66.6564C125.861 65.8151 125.783 64.9875 125.703 64.1735L26.4982 64.1735L26.4982 66.6565L125.936 66.6564ZM114.21 42.5881L41.0836 42.5881C37.2166 42.5925 33.5093 44.1306 30.775 46.8649C28.0406 49.5993 26.5026 53.3066 26.4982 57.1735L26.4982 61.5848L125.434 61.5847C125.003 57.6479 124.508 54.045 123.952 50.8204C123.563 48.5183 122.371 46.4283 120.588 44.9213C118.805 43.4143 116.545 42.5877 114.21 42.5881ZM120.262 74.2862L111.023 74.2862C110.316 74.287 109.638 74.5685 109.137 75.0688C108.637 75.569 108.356 76.2473 108.355 76.9549L108.355 82.2201L120.261 84.4694L120.262 74.2862Z" fill="#007CEE"/>
<path d="M98.5268 105.985L65.8673 105.985C65.5361 107.809 64.6916 109.501 63.433 110.862C62.1744 112.223 60.5538 113.197 58.7612 113.67C56.9687 114.143 55.0784 114.095 53.3121 113.532C51.5458 112.969 49.9767 111.914 48.7887 110.49C47.6007 109.067 46.8431 107.335 46.6047 105.496C46.3664 103.658 46.6571 101.789 47.4428 100.11C48.2285 98.4309 49.4767 97.0105 51.041 96.0155C52.6053 95.0205 54.4208 94.4921 56.2747 94.4922L86.9191 94.4922C87.2624 94.4922 87.5916 94.6286 87.8344 94.8713C88.0771 95.1141 88.2135 95.4433 88.2135 95.7866C88.2135 96.1299 88.0771 96.4591 87.8344 96.7018C87.5916 96.9446 87.2624 97.0809 86.9191 97.0809L62.8841 97.081C64.6704 98.725 65.7776 100.977 65.9884 103.396L98.5268 103.396C98.8701 103.396 99.1993 103.532 99.4421 103.775C99.6848 104.018 99.8212 104.347 99.8212 104.69C99.8212 105.034 99.6848 105.363 99.4421 105.606C99.1993 105.848 98.8701 105.985 98.5268 105.985ZM56.2747 97.081C54.8581 97.081 53.4732 97.501 52.2953 98.2881C51.1174 99.0751 50.1993 100.194 49.6572 101.503C49.115 102.811 48.9732 104.252 49.2495 105.641C49.5259 107.03 50.208 108.307 51.2097 109.308C52.2114 110.31 53.4877 110.992 54.8771 111.269C56.2665 111.545 57.7067 111.403 59.0155 110.861C60.3244 110.319 61.4431 109.401 62.2302 108.223C63.0173 107.046 63.4374 105.661 63.4375 104.244C63.4355 102.345 62.6802 100.524 61.3374 99.1813C59.9945 97.8384 58.1738 97.083 56.2747 97.081ZM112.353 108.49C111.513 108.49 110.692 108.241 109.993 107.775C109.295 107.308 108.75 106.645 108.429 105.869C108.107 105.093 108.023 104.239 108.187 103.415C108.351 102.591 108.756 101.834 109.35 101.24C109.944 100.646 110.7 100.242 111.524 100.078C112.348 99.9143 113.202 99.9984 113.978 100.32C114.754 100.641 115.417 101.186 115.884 101.884C116.35 102.583 116.599 103.404 116.599 104.244C116.598 105.37 116.15 106.449 115.354 107.245C114.558 108.041 113.478 108.489 112.353 108.49ZM112.353 102.586C112.025 102.586 111.704 102.683 111.431 102.865C111.159 103.047 110.946 103.306 110.821 103.609C110.695 103.912 110.662 104.245 110.726 104.567C110.79 104.889 110.948 105.184 111.18 105.416C111.412 105.648 111.707 105.806 112.029 105.87C112.351 105.934 112.684 105.901 112.987 105.776C113.29 105.65 113.549 105.437 113.731 105.165C113.913 104.892 114.011 104.571 114.01 104.243C114.01 103.804 113.835 103.383 113.524 103.072C113.214 102.761 112.792 102.586 112.353 102.586Z" fill="#007CEE"/>
<path d="M56.2745 108.49C55.4345 108.49 54.6134 108.241 53.9149 107.775C53.2165 107.308 52.6721 106.645 52.3507 105.869C52.0292 105.093 51.9451 104.239 52.109 103.415C52.2728 102.591 52.6774 101.834 53.2713 101.24C53.8653 100.646 54.6221 100.242 55.446 100.078C56.2698 99.9144 57.1238 99.9985 57.8998 100.32C58.6758 100.642 59.339 101.186 59.8056 101.885C60.2722 102.583 60.5212 103.404 60.5211 104.244C60.5196 105.37 60.0717 106.449 59.2757 107.245C58.4796 108.041 57.4003 108.489 56.2745 108.49ZM56.2745 102.586C55.9466 102.586 55.6259 102.683 55.3532 102.865C55.0805 103.047 54.8679 103.306 54.7424 103.609C54.6168 103.912 54.584 104.246 54.6479 104.567C54.7119 104.889 54.8698 105.184 55.1018 105.416C55.3337 105.648 55.6291 105.806 55.9508 105.87C56.2725 105.934 56.6059 105.901 56.9089 105.776C57.2119 105.65 57.4708 105.438 57.653 105.165C57.8352 104.892 57.9324 104.571 57.9323 104.243C57.9318 103.804 57.757 103.383 57.4462 103.072C57.1354 102.761 56.714 102.586 56.2745 102.586ZM87.1238 81.7317L87.1238 77.5573C87.1252 76.6566 87.4837 75.7932 88.1206 75.1563C88.7575 74.5194 89.6208 74.161 90.5215 74.1595L99.1292 74.1595C100.03 74.1606 100.894 74.5189 101.531 75.1558C102.168 75.7928 102.527 76.6563 102.529 77.5573L102.529 81.7317C102.527 82.6326 102.168 83.4963 101.531 84.1332C100.894 84.7701 100.03 85.1284 99.1292 85.1294L90.5215 85.1294C89.6208 85.128 88.7574 84.7696 88.1205 84.1327C87.4836 83.4958 87.1252 82.6324 87.1238 81.7317ZM99.9427 81.7317L99.9427 77.5573C99.942 77.3427 99.8563 77.137 99.7044 76.9854C99.5525 76.8338 99.3467 76.7485 99.1321 76.7483L90.5244 76.7483C90.3101 76.749 90.1047 76.8344 89.9532 76.986C89.8016 77.1376 89.7161 77.3429 89.7155 77.5573L89.7155 81.7317C89.7161 81.946 89.8015 82.1514 89.9531 82.303C90.1047 82.4546 90.3101 82.54 90.5244 82.5406L99.1321 82.5406C99.3467 82.5405 99.5526 82.4552 99.7045 82.3036C99.8564 82.152 99.9421 81.9463 99.9427 81.7317ZM71.2418 85.1307C70.341 85.1293 69.4776 84.7709 68.8407 84.134C68.2038 83.4971 67.8454 82.6337 67.844 81.7329L67.844 77.5586C67.8455 76.6579 68.2039 75.7945 68.8408 75.1576C69.4777 74.5207 70.3411 74.1623 71.2418 74.1608L79.8494 74.1608C80.75 74.1624 81.6134 74.5208 82.2502 75.1577C82.8871 75.7946 83.2456 76.6579 83.2471 77.5586L83.2471 81.7329C83.2457 82.6336 82.8872 83.497 82.2503 84.1339C81.6135 84.7708 80.7501 85.1292 79.8494 85.1307L71.2418 85.1307ZM80.6616 81.7329L80.6616 77.5586C80.6609 77.3442 80.5755 77.1389 80.4239 76.9873C80.2723 76.8357 80.067 76.7503 79.8526 76.7496L71.245 76.7496C71.0306 76.7502 70.8252 76.8356 70.6736 76.9872C70.522 77.1388 70.4366 77.3442 70.436 77.5586L70.436 81.7329C70.4365 81.9473 70.5219 82.1528 70.6735 82.3044C70.8251 82.456 71.0306 82.5414 71.245 82.5419L79.8526 82.5419C80.0672 82.5413 80.2728 82.4557 80.4244 82.3039C80.5761 82.152 80.6613 81.9463 80.6616 81.7317L80.6616 81.7329ZM90.6426 57.6167L81.1104 57.6167C80.2673 57.6158 79.459 57.2805 78.8628 56.6843C78.2666 56.0882 77.9312 55.2799 77.9301 54.4368L77.9301 49.5065C77.9311 48.6633 78.2664 47.8549 78.8627 47.2587C79.4589 46.6625 80.2672 46.3271 81.1104 46.3262L90.6426 46.3262C91.4857 46.3271 92.2941 46.6625 92.8903 47.2587C93.4865 47.8549 93.8219 48.6633 93.8228 49.5065L93.8228 54.4368C93.8218 55.2799 93.4864 56.0882 92.8902 56.6843C92.294 57.2805 91.4857 57.6158 90.6426 57.6167ZM91.2341 49.5065C91.2339 49.3496 91.1715 49.1993 91.0606 49.0884C90.9497 48.9775 90.7994 48.9151 90.6426 48.9149L81.1104 48.9149C80.9536 48.9151 80.8032 48.9775 80.6923 49.0884C80.5814 49.1993 80.5191 49.3496 80.5189 49.5065L80.5189 54.4368C80.5191 54.5935 80.5816 54.7438 80.6925 54.8546C80.8033 54.9655 80.9536 55.0278 81.1104 55.028L90.6426 55.028C90.7993 55.0278 90.9496 54.9655 91.0605 54.8546C91.1714 54.7438 91.2338 54.5935 91.2341 54.4368L91.2341 49.5065ZM69.4976 57.6167L59.9658 57.6167C59.1227 57.6158 58.3144 57.2804 57.7182 56.6843C57.1221 56.0881 56.7867 55.2798 56.7858 54.4368L56.7858 49.5065C56.7867 48.6633 57.1221 47.855 57.7182 47.2588C58.3144 46.6626 59.1226 46.3272 59.9658 46.3262L69.4976 46.3262C70.3407 46.3272 71.149 46.6626 71.7451 47.2588C72.3413 47.855 72.6766 48.6633 72.6775 49.5065L72.6775 54.4368C72.6766 55.2798 72.3413 56.0881 71.7451 56.6843C71.149 57.2804 70.3407 57.6158 69.4976 57.6167ZM70.0888 49.5065C70.0887 49.3497 70.0264 49.1993 69.9155 49.0884C69.8047 48.9775 69.6544 48.9151 69.4976 48.9149L59.9658 48.9149C59.809 48.9151 59.6586 48.9775 59.5478 49.0884C59.437 49.1993 59.3746 49.3497 59.3746 49.5065L59.3746 54.4368C59.3747 54.5935 59.4371 54.7438 59.5479 54.8546C59.6587 54.9654 59.809 55.0278 59.9658 55.028L69.4976 55.028C69.6543 55.0278 69.8046 54.9654 69.9154 54.8546C70.0263 54.7438 70.0886 54.5935 70.0888 54.4368L70.0888 49.5065ZM51.9607 85.1307C51.06 85.1293 50.1965 84.7709 49.5596 84.134C48.9227 83.4971 48.5643 82.6337 48.5629 81.733L48.5629 77.5586C48.5644 76.6579 48.9228 75.7945 49.5597 75.1576C50.1966 74.5207 51.06 74.1623 51.9607 74.1608L60.5683 74.1608C61.469 74.1623 62.3324 74.5207 62.9693 75.1576C63.6062 75.7945 63.9646 76.6579 63.9661 77.5586L63.9661 81.7329C63.9647 82.6337 63.6063 83.4971 62.9694 84.134C62.3325 84.7709 61.469 85.1293 60.5683 85.1307L51.9607 85.1307ZM61.3802 81.7329L61.3802 77.5586C61.3796 77.3442 61.2942 77.1388 61.1426 76.9872C60.991 76.8356 60.7856 76.7502 60.5712 76.7496L51.9636 76.7496C51.7492 76.7502 51.5438 76.8356 51.3922 76.9872C51.2406 77.1388 51.1552 77.3442 51.1546 77.5586L51.1546 81.733C51.1551 81.9473 51.2405 82.1528 51.3921 82.3044C51.5437 82.456 51.7492 82.5414 51.9636 82.5419L60.5712 82.5419C60.7858 82.5414 60.9915 82.4558 61.1431 82.304C61.2948 82.1521 61.38 81.9463 61.3802 81.7317L61.3802 81.7329ZM116.847 57.6837L100.66 57.6837C100.317 57.6837 99.9879 57.5473 99.7451 57.3046C99.5024 57.0618 99.366 56.7326 99.366 56.3893L99.366 47.64C99.366 47.2967 99.5024 46.9674 99.7451 46.7247C99.9879 46.482 100.317 46.3456 100.66 46.3456L110.795 46.3456C111.822 46.3417 112.826 46.6488 113.675 47.2264C114.524 47.804 115.178 48.625 115.552 49.5815L118.051 55.9143C118.128 56.1106 118.157 56.3228 118.133 56.5325C118.11 56.7423 118.036 56.9431 117.917 57.1175C117.798 57.292 117.639 57.4348 117.452 57.5334C117.266 57.6321 117.058 57.6837 116.847 57.6837ZM113.145 50.5323C112.961 50.0596 112.637 49.6538 112.218 49.3684C111.798 49.0829 111.302 48.9312 110.795 48.9331L101.955 48.9331L101.955 55.0936L114.945 55.0936L113.145 50.5323ZM49.9473 57.6837L33.7607 57.6837C33.5498 57.6837 33.342 57.632 33.1555 57.5333C32.969 57.4346 32.8095 57.2918 32.6908 57.1174C32.5722 56.943 32.4979 56.7422 32.4746 56.5325C32.4512 56.3228 32.4795 56.1106 32.557 55.9143L35.0548 49.5832C35.4284 48.6267 36.0827 47.8056 36.9318 47.2281C37.7808 46.6505 38.7848 46.3434 39.8116 46.3472L49.9473 46.3472C50.2906 46.3472 50.6198 46.4836 50.8625 46.7263C51.1053 46.9691 51.2417 47.2983 51.2417 47.6416L51.2417 56.3909C51.2412 56.734 51.1047 57.0628 50.862 57.3052C50.6193 57.5476 50.2903 57.6837 49.9473 57.6837ZM48.6529 48.9344L39.8126 48.9344C39.3053 48.9325 38.8092 49.0843 38.3898 49.3697C37.9703 49.6552 37.6471 50.0609 37.4627 50.5336L35.6632 55.0962L48.6529 55.0962L48.6529 48.9344ZM94.8276 94.4923C95.1709 94.4923 95.5001 94.6287 95.7429 94.8714C95.9856 95.1142 96.122 95.4434 96.122 95.7867C96.122 96.13 95.9856 96.4592 95.7429 96.7019C95.5001 96.9447 95.1709 97.081 94.8276 97.081L93.8992 97.081C93.5559 97.081 93.2267 96.9447 92.984 96.7019C92.7412 96.4592 92.6048 96.13 92.6048 95.7867C92.6048 95.4434 92.7412 95.1142 92.984 94.8714C93.2267 94.6287 93.5559 94.4923 93.8992 94.4923L94.8276 94.4923Z" fill="#007CEE"/>
</svg>
