<svg width="155" height="155" viewBox="0 0 155 155" fill="none" xmlns="http://www.w3.org/2000/svg">
<path d="M112.403 88.9649C112.291 88.7887 112.211 88.6285 112.147 88.5163C111.49 87.331 110.753 87.0746 109.6 87.1067C109.505 87.0088 109.414 86.9073 109.328 86.8023C108.879 86.3057 107.95 85.2485 106.508 85.6169C105.659 85.8412 105.227 86.4659 104.97 86.9145C104.81 86.9465 104.634 87.0106 104.458 87.1067C104.137 87.2829 103.609 87.7314 103.545 88.6445L103.513 89.093C102.776 89.2052 102.071 89.3814 101.366 89.6377C101.126 89.7178 100.485 89.942 100.085 90.5988C99.6682 91.2716 99.7643 91.9604 99.7963 92.2487C100.053 94.0589 100.389 95.885 100.79 97.6791C100.934 98.3359 101.478 98.8325 102.151 98.9126C102.824 98.9927 103.769 98.8165 104.378 97.3748C104.442 97.3107 104.698 97.2146 104.794 97.1665C105.435 96.8942 105.819 96.7821 105.948 96.8301C106.076 96.8782 106.348 97.1986 106.524 97.4068C106.973 97.9194 107.581 98.6402 108.575 98.9446C108.911 99.0407 109.247 99.0888 109.552 99.0888C110.257 99.0888 110.865 98.8966 111.33 98.7364L112.852 98.2398C113.076 98.1597 113.412 98.0636 113.749 97.8073C114.486 97.2626 114.694 96.4297 114.758 96.1573C115.431 93.4341 114.021 91.3677 112.9 89.7017C112.724 89.4454 112.547 89.1891 112.387 88.9328L112.403 88.9649ZM111.682 95.2763L110.353 95.7088C110.161 95.7729 109.664 95.917 109.52 95.901C109.408 95.853 109.119 95.5326 108.959 95.3404C108.511 94.8278 107.966 94.187 107.085 93.8666C106.684 93.7225 106.284 93.6584 105.9 93.6584C104.938 93.6584 104.073 94.0268 103.529 94.2671C103.481 94.2831 103.433 94.2991 103.385 94.3312C103.272 93.7225 103.176 93.1138 103.08 92.489C103.737 92.3128 104.41 92.2167 105.083 92.1847C105.9 92.1526 106.572 91.5119 106.62 90.6949L106.684 89.8619C106.925 89.7178 107.117 89.5255 107.261 89.3333C107.742 89.8299 108.463 90.3905 109.488 90.3585C109.552 90.4706 109.632 90.5988 109.712 90.743C109.888 91.0313 110.08 91.3036 110.273 91.592C111.282 93.0817 111.907 94.0909 111.698 95.3404L111.682 95.2763Z" fill="#007CEE"/>
<path d="M125.411 37.032L93.6773 43.1031L61.944 37.032C61.8479 37.016 61.7517 37.032 61.6396 37.032C61.5435 37.032 61.4314 36.9999 61.3353 37.032L29.2976 43.1672C28.5447 43.3114 28.0001 43.9681 28.0001 44.737L28.0001 115.652C27.9983 115.863 28.0386 116.072 28.1185 116.267C28.1984 116.463 28.3163 116.64 28.4654 116.789C28.6145 116.938 28.7918 117.056 28.9869 117.136C29.182 117.216 29.3911 117.256 29.6019 117.254C29.698 117.254 29.8102 117.254 29.9063 117.222L61.6396 111.151L93.3729 117.222C93.469 117.238 93.5812 117.254 93.6773 117.254C93.7734 117.254 93.8855 117.254 93.9816 117.222L126.019 111.087C126.772 110.943 127.317 110.286 127.317 109.517V38.6018C127.319 38.3652 127.268 38.1311 127.168 37.9167C127.067 37.7022 126.921 37.5129 126.738 37.3624C126.555 37.212 126.341 37.1042 126.112 37.0471C125.882 36.9899 125.643 36.9847 125.411 37.032ZM103.833 61.733C104.41 61.9413 105.067 61.7811 105.499 61.3486C106.332 60.5156 107.662 60.1472 108.799 60.4515C109.232 60.5637 109.68 60.7719 110.161 60.9962C110.753 61.2685 111.426 61.5728 112.179 61.7491C113.22 61.9893 114.245 61.9573 115.159 61.9253C115.463 61.9253 115.751 61.9092 116.056 61.9092C116.232 61.9092 116.408 61.9092 116.568 61.9253C116.248 62.2777 115.959 62.6942 115.831 63.2548C115.062 63.6713 114.213 64.0558 113.493 64.0558C113.172 64.0558 112.772 63.9596 112.371 63.8635C112.115 63.7995 111.859 63.7354 111.602 63.7034C110.305 63.4631 109.2 63.6072 108.335 64.1679C107.838 64.4883 107.502 64.9048 107.261 65.2091L107.101 65.4174C106.428 65.5455 105.884 66.1062 105.82 66.827C105.739 67.628 106.268 68.3808 107.053 68.5571C107.245 68.6051 107.421 68.7012 107.566 68.8454C106.54 69.2619 105.804 70.3191 105.547 71.7768L105.499 72.0331C105.451 72.3215 105.371 72.8181 105.355 72.8982C105.307 72.8982 105.051 72.9462 104.234 72.5938C104.186 72.5618 104.122 72.5457 104.057 72.5137C103.257 72.2094 102.343 72.5938 102.007 73.3947C101.751 74.0195 101.911 74.7083 102.359 75.1568C102.279 75.285 102.151 75.4131 102.023 75.5573C101.783 75.8296 101.559 76.1019 101.366 76.4223C101.206 76.6786 101.078 76.9509 100.934 77.2233C100.87 77.3514 100.822 77.4635 100.758 77.5757C100.419 77.4762 100.056 77.4989 99.7324 77.6397C99.1717 77.864 98.7873 78.3926 98.7392 79.0013C98.7072 79.3858 98.7392 79.7702 98.7873 80.1387C98.4189 80.1867 98.0664 80.3149 97.7621 80.4751C96.849 80.1707 95.8558 80.1387 95.1831 80.1547C94.7666 80.1547 93.8215 80.2348 92.8763 80.5391L92.7642 80.379C92.62 80.1707 92.4599 79.9625 92.3958 79.8343C92.3477 79.7222 92.3157 79.53 92.2676 79.3057C92.2356 79.0975 92.1875 78.8892 92.1395 78.697C91.8031 77.4155 90.89 76.2781 89.6566 75.5733C88.4231 74.8685 86.9814 74.6923 85.6999 75.0607C85.4596 75.1248 85.2354 75.2529 85.0592 75.4291C84.6266 75.8296 84.4184 76.3903 84.4825 76.9669C84.5786 77.7679 85.1553 78.2805 85.5878 78.5688C85.2193 78.8412 84.4024 78.8412 83.8097 78.8412C82.9767 78.8412 82.2719 79.4979 82.2238 80.3309C82.2012 80.6499 82.2745 80.9683 82.4344 81.2452C82.5943 81.5221 82.8333 81.7448 83.1209 81.8847C82.6243 82.4134 82.2078 83.1182 82.2238 84.0793C82.2238 84.4798 82.3199 84.8162 82.4 85.0725C82.416 85.1366 82.4481 85.2166 82.4481 85.2807C82.4481 85.4089 82.2398 85.7933 82.1117 86.0176C81.8714 86.4501 81.5991 86.9307 81.4549 87.5394C81.2787 88.2282 81.3268 88.8689 81.3588 89.3976C81.3748 89.766 81.4069 90.1505 81.3268 90.3106C81.2627 90.4708 80.9904 90.7271 80.7341 90.9674C80.4137 91.2718 80.0453 91.6242 79.7249 92.0887C79.5166 92.3931 79.3404 92.7295 79.1802 93.0819C79.1482 93.162 79.1001 93.2421 79.0681 93.3222C79.004 93.146 78.94 92.9698 78.8919 92.7936C78.7958 92.4732 78.6837 92.1528 78.5395 91.8324C78.2992 91.3038 77.9948 90.8393 77.7225 90.4228C77.3861 89.9102 77.0658 89.4296 77.0818 89.1092C77.0818 88.9811 77.1458 88.7568 77.2099 88.5486C77.3701 88.0039 77.5784 87.2671 77.3861 86.4341C77.2259 85.6972 76.8095 85.1686 76.5051 84.7841C76.409 84.656 76.2488 84.4477 76.2168 84.3837V83.9512C76.2168 83.3104 76.2488 82.2371 75.3357 81.4362C74.8712 81.0357 74.2945 80.8275 73.6858 80.8275C73.045 80.8275 72.3402 81.0517 71.6994 81.5003L71.4271 81.6925C71.315 81.7726 71.1708 81.8687 71.0587 81.9328C70.9466 81.8367 70.8024 81.6925 70.7063 81.5964C70.3859 81.276 70.0014 80.8755 69.4728 80.5872C69.4568 80.5872 69.4248 80.5552 69.4087 80.5552C69.2966 79.0174 69.2806 77.4796 70.1296 76.5184C70.498 76.1019 71.1868 75.333 71.0427 74.2117C71.0075 73.9853 70.9429 73.7645 70.8504 73.5549C71.9878 73.1705 72.6285 72.4977 72.7887 71.5366C72.8848 70.8958 72.6926 70.3672 72.5324 69.9988C72.5324 69.9667 72.5805 69.8866 72.5965 69.8706C72.6606 69.8386 72.7246 69.8225 72.8047 69.8065C73.1572 69.6944 73.6858 69.5342 74.1663 69.0536L75.4158 67.8522C75.592 67.676 75.9605 67.3236 76.1206 66.7469C76.2275 66.3534 76.211 65.9367 76.0735 65.5528C75.936 65.169 75.6841 64.8366 75.3517 64.6004L76.5692 62.7903C76.7454 62.7903 76.9696 62.7422 77.2099 62.6621C77.8347 62.4539 78.1871 62.0214 78.4113 61.717C78.5074 61.685 78.8438 61.7491 79.2123 61.9733C79.4526 62.1175 79.6608 62.2937 79.8851 62.4539C80.4778 62.9024 81.1666 63.431 82.0636 63.6873C83.9539 64.248 85.7319 63.415 86.9173 62.8864C87.8304 62.4699 88.9998 61.9253 89.9129 61.0122C90.3776 61.0495 90.8451 60.9936 91.288 60.8478C91.7309 60.702 92.1402 60.4693 92.4919 60.1632C93.453 60.1151 94.27 59.6185 94.8787 59.2501C95.2471 59.0259 95.6476 58.7695 95.8879 58.7535C96.016 58.7535 96.2403 58.7535 96.4646 58.7856C96.9451 58.8496 97.6179 58.9137 98.3067 58.7055C98.4829 59.6506 99.1718 60.5156 100.069 60.884C100.886 61.2204 101.783 61.1403 102.472 60.6438C102.6 60.5476 102.712 60.4515 102.808 60.3234C102.824 60.3714 102.84 60.4195 102.84 60.4675C102.904 61.0763 103.321 61.6049 103.897 61.8131L103.833 61.733ZM63.674 52.1538C64.4749 52.4101 66.3652 53.243 67.5986 53.8678C67.3263 54.2202 67.086 54.6687 67.07 55.2614C67.038 56.3667 67.7908 57.0075 68.1593 57.3118L68.1913 57.3439C68.1913 57.424 68.1593 57.5681 68.0952 57.7924C67.9991 58.2089 67.7748 59.0899 67.4544 59.2982C67.3583 59.3622 67.1661 59.4263 66.9899 59.4904C66.4453 59.6826 65.7084 59.9549 65.1638 60.6758C64.9235 60.9801 64.7633 61.3165 64.6672 61.6369C64.3949 61.717 64.0424 61.8131 63.8022 61.8772C63.3536 61.9893 62.841 62.1175 62.3605 62.3257L61.127 61.4767C61.0149 61.3966 60.8387 61.2845 60.7906 61.2204C60.7265 61.1243 60.6625 60.7238 60.6304 60.4675C60.5824 60.0991 60.5183 59.7467 60.4222 59.3943C60.2984 58.9404 60.035 58.5369 59.6693 58.2409C59.3169 57.9686 58.9645 57.8885 58.8523 57.8725C58.7443 57.7952 58.6473 57.7036 58.564 57.6002C58.1475 57.1837 57.5228 56.575 56.5296 56.4789C55.985 56.4308 55.5364 56.575 55.2321 56.6551C55.184 56.623 55.1199 56.591 55.0719 56.5589C53.7423 55.758 51.9162 55.9983 50.8429 57.1196C50.7468 57.2317 50.6507 57.3439 50.5866 57.488L50.3303 57.9686C49.3051 58.8977 48.8886 60.4355 49.3852 61.733C49.6255 62.4058 50.2823 62.8063 51.0031 62.7743C51.5798 62.7262 52.3327 63.2068 53.1176 63.7194C53.4219 63.9276 53.5821 64.0558 53.6622 64.1519V64.1839C53.5501 64.4242 53.454 64.6645 53.4059 64.9048C53.3739 65.0009 53.2938 65.5455 53.1656 66.2984C52.9734 67.5639 52.3647 71.4244 52.1565 72.0011C52.0283 72.2094 51.9642 72.4176 51.9162 72.6098C51.8841 72.6419 51.8521 72.6579 51.8361 72.6899C51.6439 72.8661 51.3876 73.0904 51.1793 73.4428C51.0031 73.7151 50.907 73.9714 50.8429 74.2437C50.8109 74.2758 50.6026 74.3879 49.8337 74.436C48.9847 74.484 47.2066 74.5641 46.2295 75.9898C45.9459 76.3894 45.8256 76.8821 45.8931 77.3674C45.9412 77.7519 46.1013 78.0883 46.3737 78.3606C45.7169 78.1363 45.1082 77.7839 44.5635 77.3514C44.5155 77.3194 44.4834 77.2873 44.4514 77.2553V76.7106C44.3873 75.4772 43.7466 74.2918 42.4971 73.2025C42.4811 73.1865 42.449 73.1705 42.433 73.1384C42.449 73.1064 42.4651 73.0744 42.4811 73.0583C42.6573 72.754 42.8175 72.4496 42.9296 72.1293C43.3781 70.8477 43.0097 69.342 41.9525 68.1085C41.0394 67.0513 39.7098 66.3304 38.156 66.0261V64.5043C38.4604 64.6164 38.7967 64.6965 39.1972 64.6485C40.3506 64.5203 40.8792 63.6233 41.1195 63.1907C41.1195 63.1747 41.1515 63.1427 41.1515 63.1267C41.3277 63.0786 41.552 62.9985 41.7923 62.8544C42.7214 62.2777 42.8816 61.3326 42.9616 60.7879C43.0898 60.7399 43.2019 60.6918 43.3141 60.6277C44.4674 60.019 44.5155 58.6414 44.6116 56.7352C44.6116 56.591 44.6116 56.4148 44.6276 56.2226C44.6917 56.2546 44.7558 56.3026 44.8038 56.3347C45.7489 56.8633 46.8863 56.9754 47.9115 56.6711C48.6323 56.4468 49.1129 55.758 49.0488 54.9891L48.9847 54.2683C48.9847 54.2683 49.0168 54.2202 49.0328 54.1882C50.4585 51.9615 52.589 52.5863 53.438 52.9707C53.9185 53.179 54.351 53.1469 54.6554 53.0508C54.7675 53.0829 54.8797 53.1309 54.9918 53.163C56.4655 53.5794 58.1475 54.044 60.0217 53.4353C60.294 53.3552 60.5663 53.3071 60.8387 53.2591C61.3673 53.163 61.976 53.0508 62.5847 52.7785C62.857 52.6664 63.0973 52.5062 63.3536 52.362C63.4658 52.2979 63.5939 52.2178 63.706 52.1538H63.674ZM52.3647 91.5121C52.1725 91.4159 51.9803 91.3359 51.772 91.2718C51.7109 91.2576 51.6517 91.2361 51.5958 91.2077C51.4356 91.1436 51.2594 90.8072 51.2113 90.2946C51.3876 89.9903 51.4997 89.6218 51.5477 89.1573L51.5798 88.8369C51.6118 88.5646 51.6278 88.3243 51.6759 88.1481C51.8521 87.6195 52.4608 87.1389 53.3098 86.8986C54.4472 86.5782 55.7607 86.7224 56.3854 87.235C57.5548 88.2122 58.1956 88.4204 59.445 88.7408L59.7814 88.8369C60.3581 88.9971 60.9027 88.9651 61.3353 88.949C61.5595 88.949 61.7678 88.933 61.8799 88.949C62.0561 88.9811 62.2483 89.1573 62.2804 89.3335C62.3124 89.5097 62.2163 89.75 62.0721 89.8621C62.008 89.8942 61.944 89.9422 61.8959 89.9742C61.6556 90.1184 61.3192 90.3106 60.9989 90.631C60.5984 91.0475 60.0377 91.9285 60.294 93.4664C59.6853 93.5304 58.9324 93.7387 58.4038 94.4595C57.9553 95.0843 57.9393 95.725 57.9232 96.1255V96.3017C57.9072 96.4779 57.683 96.7823 57.2504 97.0866C56.9781 97.2788 56.6898 97.439 56.3854 97.6152C55.9689 97.8555 55.5525 98.0958 55.168 98.3841C54.0787 99.1851 53.2457 100.306 52.7812 101.556C52.5569 101.348 52.3487 101.139 52.2205 100.963C52.4608 100.002 52.7171 99.0249 53.1016 98.1439L53.3258 97.6473C53.6302 96.9905 53.9666 96.2536 54.0947 95.3886C54.335 93.7547 53.6302 92.2169 52.3327 91.5441L52.3647 91.5121ZM31.2038 46.0666L60.0377 40.5401V50.1674C59.6853 50.2315 59.3489 50.2956 59.0125 50.4077C58.1155 50.6961 57.2184 50.4878 55.8248 50.1034L55.6646 50.0553C55.4083 49.9592 55.0238 49.831 54.5433 49.831C54.4151 49.831 54.287 49.831 54.1909 49.8631C51.3075 48.8058 48.4401 49.6228 46.646 52.0096C46.2936 52.2018 46.0853 52.4581 45.9411 52.6824C45.845 52.8426 45.781 53.0188 45.7329 53.163C45.0761 52.7144 44.099 52.1538 42.8976 52.5863C41.52 53.0989 41.4559 54.6527 41.3598 56.623C41.3437 57.0075 41.3117 57.5842 41.2797 57.9846C41.0874 58.0647 40.8792 58.1769 40.671 58.3531C39.9821 58.9297 39.838 59.6826 39.7579 60.1952L39.5176 60.2913C39.1492 60.4836 38.8608 60.7559 38.6686 61.0122C37.5473 60.2593 36.2658 60.4836 35.5609 60.6117C34.728 60.7559 34.1673 61.5248 34.2474 62.3578C34.2955 62.8223 34.5357 63.2068 34.8721 63.4631V67.4838C34.8721 68.3648 35.593 69.0857 36.474 69.0857C37.7555 69.0857 38.8288 69.4861 39.4375 70.191C39.7579 70.5594 39.87 70.9278 39.822 71.056C39.7739 71.1841 39.6938 71.2963 39.6297 71.4244C39.3414 71.905 38.8608 72.722 39.0691 73.7632C39.2613 74.7083 39.9341 75.285 40.4147 75.7015C40.8632 76.1019 41.1515 76.5344 41.1675 76.8708V77.0791C41.1675 77.3995 41.1675 77.848 41.3277 78.3285C41.568 79.0494 42.0646 79.5139 42.4651 79.8343C44.0188 81.0775 45.9242 81.8004 47.9115 81.9007H48.1357C49.7697 81.9007 50.9871 81.0357 51.1953 79.6901C51.3075 78.9212 51.0672 78.2164 50.4905 77.5596C51.4036 77.4635 52.8132 77.1432 53.5501 75.8136C53.6462 75.6374 53.7263 75.4452 53.8064 75.1728L53.9506 75.0287C54.1909 74.8044 54.5433 74.484 54.7835 73.9714C54.844 73.8512 54.882 73.7209 54.8957 73.587C55.2161 73.0263 55.4884 71.921 56.2893 66.795C56.3854 66.2183 56.4495 65.7858 56.4655 65.6897C56.4815 65.6256 56.5136 65.5615 56.5456 65.4814C56.6578 65.2251 56.8179 64.8727 56.866 64.4242C57.1063 62.55 55.4243 61.4287 54.8636 61.0602C54.335 60.7078 53.6622 60.2593 52.8613 59.9389C52.8933 59.8748 52.9414 59.8268 52.9734 59.7627L53.2137 59.3142C53.2137 59.3142 53.4059 59.3142 53.502 59.3783C53.7103 59.5224 54.0307 59.7307 54.4632 59.8428C55.168 60.019 55.7767 59.8428 56.1451 59.7307C56.1932 59.7787 56.2413 59.8268 56.2733 59.8748C56.5456 60.1472 56.9141 60.5156 57.4267 60.7559L57.4587 60.9321C57.5548 61.5728 57.683 62.4699 58.3077 63.2228C58.6441 63.6393 59.0285 63.8956 59.3169 64.0878L60.0217 64.5684V85.5851C59.2848 85.3929 59.0446 85.2967 58.4519 84.7841C56.9941 83.5667 54.6394 83.1823 52.4288 83.823C50.5225 84.3677 49.1449 85.5851 48.6323 87.1709C48.4721 87.6675 48.4241 88.1321 48.392 88.5325L48.36 88.7568C48.0076 89.2534 47.9755 89.782 47.9916 90.3106C48.0396 92.0567 48.9046 93.5304 50.2662 94.1391C50.4591 94.2259 50.657 94.3008 50.8589 94.3634C50.907 94.4115 50.9871 94.6357 50.939 94.9241C50.875 95.3406 50.6667 95.8051 50.4264 96.3177L50.1701 96.8784C49.6415 98.1118 49.3371 99.3453 49.0328 100.563C48.6964 101.876 49.7536 103.142 50.6827 103.975C51.4516 104.647 52.5089 105.368 53.5661 105.368C53.8224 105.368 54.0787 105.32 54.319 105.224C55.0238 104.952 55.4884 104.327 55.5845 103.542C55.6966 102.533 56.2573 101.572 57.0903 100.963C57.3786 100.755 57.683 100.579 58.0033 100.403C58.3878 100.178 58.7722 99.954 59.1407 99.6977C59.4771 99.4574 59.7654 99.1851 60.0217 98.9128L60.0217 108.204L31.1878 113.73L31.1878 46.0666H31.2038ZM63.2415 95.709C63.4497 95.4687 63.6259 95.1804 63.706 94.844C63.8822 94.1712 63.674 93.5945 63.5619 93.2581C63.4977 93.0998 63.4598 92.932 63.4497 92.7615C63.4658 92.7615 63.4818 92.7455 63.4978 92.7295C64.2286 92.3562 64.8152 91.7514 65.1659 91.0094C65.5165 90.2675 65.6116 89.4303 65.4361 88.6287C65.1798 87.4433 64.3308 86.4982 63.2415 86.0336V65.5936C63.2415 65.5936 63.2735 65.5936 63.2896 65.5615C63.4497 65.4494 63.5939 65.3213 63.69 65.1771C63.9623 65.097 64.3468 64.9849 64.6031 64.9208C66.0128 64.5523 67.4544 64.1839 67.6787 62.7903C67.6787 62.6942 67.7108 62.6301 67.7108 62.6141C67.8069 62.566 67.9831 62.5019 68.1112 62.4539C68.4316 62.3417 68.816 62.1976 69.2005 61.9573C70.5941 61.0602 70.9946 59.4744 71.2189 58.5293C71.363 57.9526 71.6994 56.591 70.8504 55.4697C70.801 55.4024 70.7475 55.3382 70.6903 55.2774C71.5232 54.3804 71.6834 53.4673 71.1868 52.5703C70.5461 51.4169 64.4429 48.7257 63.3536 48.918C63.3056 48.918 63.2896 48.95 63.2415 48.95V40.5241L92.0754 46.0506V56.8153C91.3866 56.6871 90.6657 56.9915 90.3454 57.6482C90.2973 57.7123 90.1371 57.7604 90.0731 57.7283C89.7046 57.5041 89.2721 57.44 88.8556 57.5521C88.4391 57.6643 88.0867 57.9206 87.8785 58.289C87.478 58.9618 86.5809 59.4103 85.5237 59.8909C84.5305 60.3394 83.6014 60.7399 82.9126 60.5316C82.5762 60.4355 82.1918 60.1472 81.7593 59.8108C81.4709 59.5865 81.1666 59.3622 80.8622 59.17C79.4846 58.305 77.5143 58.0006 76.2007 59.2822C76.1367 59.3462 76.0726 59.4103 75.9925 59.5064C75.7842 59.5064 75.5279 59.5545 75.2396 59.6506C74.5348 59.9229 74.1503 60.4836 73.9741 60.7399L72.3562 63.1427C71.315 64.6805 71.5873 65.7858 72.0038 66.4266C72.0198 66.4586 72.0519 66.4906 72.0679 66.5227L72.0038 66.5867C72.0038 66.5867 71.8756 66.6348 71.8116 66.6508C71.4752 66.7629 70.9626 66.9231 70.482 67.3556C69.5529 68.2046 69.1364 69.4221 69.3767 70.5274C67.903 70.9118 67.0219 71.937 67.1181 73.1705C67.1661 73.7151 67.3744 74.1156 67.5986 74.42C65.8686 76.4063 66.0768 79.2096 66.205 80.8755C66.237 81.2119 66.2851 81.8527 66.7176 82.4294C67.07 82.8939 67.5185 83.1022 67.903 83.2944C68.0311 83.3585 68.2394 83.5667 68.4156 83.7589C68.9282 84.2876 69.6971 85.0725 70.9305 85.1045C71.8116 85.1366 72.5164 84.7361 73.013 84.3997C73.013 84.624 73.061 84.8482 73.1091 85.0885C73.2853 85.7773 73.6858 86.2899 73.9741 86.6583C74.0702 86.7865 74.2304 86.9947 74.2464 87.0268C74.2464 87.1229 74.1663 87.3952 74.1183 87.5714C74.0222 87.9238 73.894 88.3724 73.862 88.8689C73.7979 90.2306 74.4867 91.2718 75.0474 92.1047C75.2716 92.4411 75.4799 92.7615 75.608 93.0338C75.7041 93.2421 75.7682 93.4503 75.8323 93.6586C75.9605 94.043 76.0886 94.4755 76.3289 94.9241C76.9376 96.0614 77.9948 96.7342 79.1001 96.7342C79.2283 96.7342 79.3564 96.7342 79.4846 96.7022C81.0224 96.4779 81.6632 95.1644 82.0476 94.3794C82.1437 94.1712 82.2559 93.9629 82.368 93.7707C82.4801 93.5945 82.6884 93.4023 82.9287 93.194C83.3932 92.7615 83.9539 92.2169 84.2902 91.4159C84.6266 90.5669 84.5786 89.75 84.5466 89.1092C84.5305 88.7568 84.5145 88.4204 84.5466 88.2122C84.5946 88.0199 84.7388 87.7636 84.899 87.4753C85.2514 86.8345 85.748 85.9535 85.6358 84.8482C85.6038 84.6079 85.5557 84.3516 85.4756 84.1113C85.4756 84.0793 85.4596 84.0313 85.4436 83.9992C85.5718 83.855 85.8281 83.6468 86.0203 83.4866C86.3086 83.2624 86.5809 83.0221 86.8212 82.7818C87.3979 82.2051 87.478 81.6124 87.462 81.1959V81.0838C87.494 81.0518 87.5261 81.0357 87.5581 81.0037C88.1988 80.5071 88.6474 79.7222 88.7915 78.9052C88.9037 79.0654 88.9998 79.2576 89.0478 79.4338C89.0799 79.562 89.1119 79.6901 89.1279 79.8183C89.192 80.1547 89.2721 80.5712 89.4643 81.0037C89.6726 81.4682 89.9449 81.8527 90.1852 82.1731C90.3133 82.3493 90.5056 82.5896 90.5216 82.5735C90.4415 83.3264 90.842 84.0793 91.5468 84.3196C91.723 84.3837 91.8832 84.3997 92.0594 84.4157V113.666L63.2255 108.14L63.2255 95.6609L63.2415 95.709ZM124.113 108.188L95.2792 113.714V83.2944C95.984 83.2463 96.6568 83.2944 96.8811 83.4706C97.0378 83.6857 97.2459 83.8583 97.4863 83.9726C97.7268 84.0868 97.992 84.1392 98.2578 84.1248C98.5236 84.1105 98.7816 84.03 99.0084 83.8905C99.2352 83.7511 99.4235 83.5572 99.5562 83.3264H99.5882C100.261 83.5347 101.398 83.8711 102.472 83.1823C102.92 82.8939 103.192 82.4134 103.225 81.8847C103.234 81.6237 103.18 81.3642 103.065 81.1295C102.951 80.8947 102.78 80.6919 102.568 80.5391C102.504 80.4911 102.456 80.443 102.392 80.395C102.664 80.2188 102.904 80.0105 103.112 79.7702C103.465 79.3538 103.673 78.9052 103.849 78.5368C103.929 78.3766 103.993 78.2164 104.09 78.0722C104.202 77.896 104.33 77.7519 104.474 77.5917C104.746 77.2713 105.083 76.8708 105.339 76.3582C105.387 76.2621 105.435 76.166 105.467 76.0539C106.076 76.0218 106.701 75.8456 107.293 75.3971C108.335 74.5801 108.543 73.3307 108.671 72.4977L108.703 72.2574C108.735 72.0492 108.799 71.889 108.831 71.7929C109.184 71.7929 109.792 71.7288 110.321 71.2963C110.946 70.7997 111.218 69.9827 111.106 69.0697C110.987 68.2344 110.631 67.4506 110.081 66.811C110.225 66.7469 110.529 66.7309 111.01 66.811C111.218 66.843 111.426 66.9071 111.634 66.9552C112.163 67.0833 112.756 67.2275 113.412 67.2435C115.175 67.3076 116.648 66.4426 117.754 65.8339C117.962 65.7217 118.394 65.4814 118.683 64.9688C118.891 64.6164 118.939 64.264 118.955 64.0558C119.067 63.9436 119.275 63.7995 119.42 63.6873C119.884 63.3349 120.477 62.9024 120.845 62.2296C121.166 61.6369 121.086 60.9001 120.637 60.4035C119.66 59.2822 118.138 58.7055 116.152 58.7055C115.783 58.7055 115.415 58.7055 115.03 58.7375C114.261 58.7695 113.541 58.8016 112.916 58.6414C112.467 58.5293 111.987 58.321 111.474 58.0807C110.914 57.8244 110.289 57.5361 109.584 57.3599C108.03 56.9594 106.364 57.1516 104.923 57.8725C104.554 57.472 104.106 57.1356 103.593 56.9274C103.048 56.6871 102.488 56.607 101.959 56.6711C102.151 56.0624 101.959 55.3736 101.462 54.9571C100.421 54.092 98.8354 54.076 97.7781 54.941C97.5699 55.1173 97.3937 55.3095 97.2175 55.5177C97.2014 55.5337 97.1854 55.5658 97.1694 55.5818C97.0412 55.5818 96.865 55.5498 96.7369 55.5337C96.3023 55.4655 95.8607 55.4547 95.4233 55.5017C95.3593 55.5017 95.3112 55.5337 95.2471 55.5337V46.0826L124.081 40.5561V108.204L124.113 108.188Z" fill="#007CEE"/>
</svg>
