<svg width="155" height="155" viewBox="0 0 155 155" fill="none" xmlns="http://www.w3.org/2000/svg">
<path fill-rule="evenodd" clip-rule="evenodd" d="M62.1709 107.383H50.2414C49.7646 107.386 49.3003 107.23 48.9223 106.939C48.5443 106.649 48.2743 106.24 48.1551 105.778L45.8548 97.7539C45.799 97.5266 45.781 97.2916 45.8013 97.0585L48.4761 58.3812C48.4974 58.0671 48.5877 57.7616 48.7406 57.4865C48.8935 57.2114 49.1052 56.9733 49.3607 56.7894C49.6161 56.6055 49.909 56.4802 50.2185 56.4224C50.5279 56.3647 50.8463 56.3759 51.1508 56.4554L52.9162 56.9368H63.6153C64.1648 56.9361 64.6934 57.1468 65.0918 57.5253C65.4901 57.9037 65.7277 58.4209 65.7551 58.9696L67.146 94.5977C67.1607 94.8131 67.1426 95.0296 67.0925 95.2396L64.2573 105.778C64.138 106.24 63.868 106.649 63.49 106.939C63.1121 107.23 62.6478 107.386 62.1709 107.383ZM51.8463 103.103H60.5661L62.8664 94.4372L61.5825 61.2165H52.5952L50.0809 96.9515L51.8463 103.103ZM104.539 107.383H92.5564C92.0887 107.375 91.6367 107.213 91.2696 106.923C90.9025 106.633 90.6404 106.231 90.5236 105.778L88.2233 97.7539C88.1675 97.5266 88.1494 97.2916 88.1698 97.0585L90.791 58.9161C90.8316 58.3769 91.0748 57.873 91.4718 57.5058C91.8688 57.1386 92.3901 56.9353 92.9309 56.9368H102.4L105.395 56.1344C105.704 56.0543 106.027 56.0443 106.34 56.1051C106.653 56.1659 106.949 56.2959 107.205 56.4857C107.462 56.6754 107.672 56.9201 107.822 57.2018C107.972 57.4834 108.056 57.795 108.07 58.1137L109.514 94.5977C109.512 94.8159 109.476 95.0323 109.407 95.2396L106.626 105.778C106.504 106.249 106.226 106.665 105.837 106.956C105.449 107.248 105.025 107.398 104.539 107.383ZM94.2148 103.103H102.881L105.235 94.4372L103.897 60.949L103.202 61.1095C103.029 61.1678 102.849 61.2038 102.667 61.2165H94.9102L92.4494 96.9515L94.2148 103.103Z" fill="#007CEE"/>
<path fill-rule="evenodd" clip-rule="evenodd" d="M102.668 61.2171H52.6493C52.4671 61.2044 52.2873 61.1684 52.1143 61.1101L41.4687 58.2748C41.0343 58.1509 40.6502 57.8926 40.3716 57.5371C40.0929 57.1815 39.9339 56.7469 39.9173 56.2955V42.3866C39.9259 41.919 40.0875 41.467 40.3773 41.0998C40.6671 40.7327 41.0693 40.4707 41.5222 40.3538L49.493 38.107C49.6661 38.0486 49.8458 38.0127 50.028 38H64.6858C65.2533 38 65.7976 38.2254 66.1989 38.6267C66.6002 39.028 66.8256 39.5723 66.8256 40.1398C66.8256 40.7073 66.6002 41.2516 66.1989 41.6529C65.7976 42.0542 65.2533 42.2796 64.6858 42.2796H50.4025L44.197 44.045V54.5836L52.9168 56.9374H102.4L111.12 54.5836V44.045L104.914 42.2796H71.8542C71.2867 42.2796 70.7424 42.0542 70.3411 41.6529C69.9398 41.2516 69.7144 40.7073 69.7144 40.1398C69.7144 39.5723 69.9398 39.028 70.3411 38.6267C70.7424 38.2254 71.2867 38 71.8542 38H105.182C105.4 38.0027 105.617 38.0388 105.824 38.107L113.848 40.4073C114.301 40.5242 114.703 40.7862 114.993 41.1533C115.283 41.5205 115.444 41.9725 115.453 42.4401V56.242C115.444 56.7097 115.283 57.1616 114.993 57.5288C114.703 57.8959 114.301 58.1579 113.848 58.2748L103.203 61.1101C103.03 61.1684 102.85 61.2044 102.668 61.2171ZM114.223 107.384H41.0942C40.5267 107.384 39.9825 107.158 39.5812 106.757C39.1799 106.356 38.9544 105.811 38.9544 105.244C38.9544 104.676 39.1799 104.132 39.5812 103.731C39.9825 103.33 40.5267 103.104 41.0942 103.104H114.223C114.79 103.104 115.334 103.33 115.736 103.731C116.137 104.132 116.362 104.676 116.362 105.244C116.362 105.811 116.137 106.356 115.736 106.757C115.334 107.158 114.79 107.384 114.223 107.384ZM121.177 117.762H86.405C85.8375 117.762 85.2932 117.536 84.8919 117.135C84.4906 116.734 84.2651 116.19 84.2651 115.622C84.2651 115.055 84.4906 114.51 84.8919 114.109C85.2932 113.708 85.8375 113.482 86.405 113.482H121.177C121.745 113.482 122.289 113.708 122.69 114.109C123.091 114.51 123.317 115.055 123.317 115.622C123.317 116.19 123.091 116.734 122.69 117.135C122.289 117.536 121.745 117.762 121.177 117.762ZM79.2901 117.762H34.1398C33.5723 117.762 33.028 117.536 32.6267 117.135C32.2254 116.734 32 116.19 32 115.622C32 115.055 32.2254 114.51 32.6267 114.109C33.028 113.708 33.5723 113.482 34.1398 113.482H79.2901C79.8576 113.482 80.4018 113.708 80.8031 114.109C81.2044 114.51 81.4299 115.055 81.4299 115.622C81.4299 116.19 81.2044 116.734 80.8031 117.135C80.4018 117.536 79.8576 117.762 79.2901 117.762Z" fill="#007CEE"/>
</svg>
