<svg width="155" height="155" viewBox="0 0 155 155" fill="none" xmlns="http://www.w3.org/2000/svg">
<path fill-rule="evenodd" clip-rule="evenodd" d="M90.443 63.233C84.8894 63.233 80.9692 60.0206 80.9692 55.447C80.9692 51.309 84.3449 47.9332 88.4829 47.9332C89.0605 47.9332 89.6145 48.1627 90.0229 48.5711C90.4314 48.9796 90.6608 49.5335 90.6608 50.1111C90.6608 50.6888 90.4314 51.2427 90.0229 51.6511C89.6145 52.0596 89.0605 52.289 88.4829 52.289C87.6454 52.289 86.8422 52.6218 86.2499 53.214C85.6577 53.8062 85.325 54.6094 85.325 55.447C85.325 58.1694 88.5918 58.8772 90.443 58.8772C92.4576 58.8772 94.3632 58.2783 95.7244 57.2438C96.428 56.7465 96.9993 56.0846 97.3884 55.3159C97.7775 54.5472 97.9726 53.695 97.9568 52.8335C97.9568 51.2978 97.3505 49.8241 96.2697 48.7331C95.1889 47.6421 93.721 47.022 92.1854 47.0076H62.1849C61.4152 47.0005 60.6518 47.1458 59.9387 47.4354C59.2255 47.7249 58.5769 48.1529 58.0301 48.6946C57.4833 49.2363 57.0493 49.881 56.7532 50.5914C56.457 51.3018 56.3045 52.0638 56.3045 52.8335C56.3045 54.6303 57.0668 56.1004 58.5369 57.2438C59.9525 58.2783 61.8582 58.8772 63.8183 58.8772C65.7239 58.8772 68.9908 58.1694 68.9908 55.447C68.9909 54.6188 68.6657 53.8237 68.0852 53.233C67.5047 52.6423 66.7153 52.3033 65.8873 52.289C65.3097 52.289 64.7557 52.0596 64.3473 51.6511C63.9388 51.2427 63.7094 50.6888 63.7094 50.1111C63.7094 49.5335 63.9388 48.9796 64.3473 48.5711C64.7557 48.1627 65.3097 47.9332 65.8873 47.9332C70.0253 47.9332 73.401 51.309 73.401 55.447C73.401 60.0206 69.4808 63.233 63.8727 63.233C61.0617 63.238 58.3198 62.3621 56.0323 60.7284C54.7679 59.8368 53.7368 58.654 53.026 57.2798C52.3152 55.9057 51.9457 54.3806 51.9487 52.8335C51.9487 47.2254 56.5223 42.6519 62.1304 42.6519H92.0765C97.739 42.6519 102.258 47.2254 102.258 52.8335C102.258 56.0459 100.842 58.8227 98.2835 60.7284C95.9809 62.373 93.2182 63.2495 90.3886 63.233H90.443Z" fill="#007CEE"/>
<path fill-rule="evenodd" clip-rule="evenodd" d="M92.3493 112.617H61.9676C61.6816 112.617 61.3984 112.56 61.1342 112.451C60.8699 112.341 60.6299 112.181 60.4276 111.979C60.2254 111.776 60.065 111.536 59.9555 111.272C59.8461 111.008 59.7897 110.725 59.7897 110.439V60.8916C59.7897 60.314 60.0192 59.76 60.4276 59.3516C60.8361 58.9432 61.39 58.7137 61.9676 58.7137C62.5452 58.7137 63.0992 58.9432 63.5076 59.3516C63.9161 59.76 64.1455 60.314 64.1455 60.8916V108.261H90.1714V60.8916C90.1714 60.314 90.4008 59.76 90.8093 59.3516C91.2177 58.9432 91.7716 58.7137 92.3493 58.7137C92.9269 58.7137 93.4808 58.9432 93.8893 59.3516C94.2977 59.76 94.5272 60.314 94.5272 60.8916V110.439C94.5272 111.016 94.2977 111.57 93.8893 111.979C93.4808 112.387 92.9269 112.617 92.3493 112.617ZM106.832 47.0075H47.4846C46.5604 47.0075 45.6741 46.6404 45.0206 45.9869C44.3671 45.3334 44 44.4471 44 43.5229V34.4846C44 32.6334 45.6334 31 47.4846 31H66.4323C67.0099 31 67.5639 31.2295 67.9723 31.6379C68.3808 32.0463 68.6102 32.6003 68.6102 33.1779C68.6102 33.7555 68.3808 34.3095 67.9723 34.7179C67.5639 35.1263 67.0099 35.3558 66.4323 35.3558H48.3558V42.6517H105.961V35.3558H73.7283C73.1506 35.3558 72.5967 35.1263 72.1883 34.7179C71.7798 34.3095 71.5504 33.7555 71.5504 33.1779C71.5504 32.6003 71.7798 32.0463 72.1883 31.6379C72.5967 31.2295 73.1506 31 73.7283 31H106.832C108.792 31 110.317 32.579 110.317 34.4846V43.5229C110.317 43.9805 110.227 44.4336 110.052 44.8564C109.877 45.2792 109.62 45.6633 109.296 45.9869C108.973 46.3105 108.589 46.5672 108.166 46.7423C107.743 46.9174 107.29 47.0075 106.832 47.0075Z" fill="#007CEE"/>
<path fill-rule="evenodd" clip-rule="evenodd" d="M99.1542 123.942H83.9634C83.3858 123.942 82.8318 123.712 82.4234 123.304C82.0149 122.895 81.7855 122.341 81.7855 121.764C81.7855 121.186 82.0149 120.632 82.4234 120.224C82.8318 119.815 83.3858 119.586 83.9634 119.586H98.9908V112.617H55.3785V119.586H76.7219C77.2995 119.586 77.8534 119.815 78.2619 120.224C78.6703 120.632 78.8998 121.186 78.8998 121.764C78.8998 122.341 78.6703 122.895 78.2619 123.304C77.8534 123.712 77.2995 123.942 76.7219 123.942H55.2152C54.0983 123.927 53.032 123.474 52.2473 122.679C51.4626 121.884 51.0226 120.812 51.0227 119.695V112.453C51.0227 110.166 52.8739 108.261 55.2152 108.261H99.1542C101.441 108.261 103.347 110.166 103.347 112.453V119.695C103.347 120.812 102.907 121.884 102.122 122.679C101.337 123.474 100.271 123.927 99.1542 123.942ZM72.0938 95.4657C71.5162 95.4657 70.9623 95.2362 70.5538 94.8278C70.1454 94.4194 69.9159 93.8654 69.9159 93.2878V72.7067C69.9159 72.1291 70.1454 71.5751 70.5538 71.1667C70.9623 70.7583 71.5162 70.5288 72.0938 70.5288C72.6715 70.5288 73.2254 70.7583 73.6338 71.1667C74.0423 71.5751 74.2717 72.1291 74.2717 72.7067V93.2878C74.2717 93.5738 74.2154 93.857 74.106 94.1213C73.9965 94.3855 73.8361 94.6256 73.6338 94.8278C73.4316 95.03 73.1915 95.1905 72.9273 95.2999C72.663 95.4094 72.3798 95.4657 72.0938 95.4657ZM82.2211 95.4657C81.6434 95.4657 81.0895 95.2362 80.681 94.8278C80.2726 94.4194 80.0432 93.8654 80.0432 93.2878V72.7067C80.0432 72.1291 80.2726 71.5751 80.681 71.1667C81.0895 70.7583 81.6434 70.5288 82.2211 70.5288C82.7987 70.5288 83.3526 70.7583 83.7611 71.1667C84.1695 71.5751 84.3989 72.1291 84.3989 72.7067V93.2878C84.3989 93.5738 84.3426 93.857 84.2332 94.1213C84.1237 94.3855 83.9633 94.6256 83.7611 94.8278C83.5588 95.03 83.3187 95.1905 83.0545 95.2999C82.7903 95.4094 82.5071 95.4657 82.2211 95.4657Z" fill="#007CEE"/>
</svg>
