<svg width="155" height="155" viewBox="0 0 155 155" fill="none" xmlns="http://www.w3.org/2000/svg">
<path d="M126.634 108.054C126.633 108.039 126.633 108.025 126.632 108.011C126.627 107.955 126.619 107.899 126.607 107.844C126.606 107.839 126.604 107.834 126.603 107.828C126.591 107.779 126.578 107.73 126.561 107.682C126.557 107.669 126.552 107.657 126.547 107.644C126.531 107.601 126.513 107.559 126.493 107.518C126.49 107.511 126.487 107.503 126.484 107.496L118.834 92.408V42.7688C118.834 41.242 117.592 40 116.066 40H39.5726C38.0459 40 36.8038 41.242 36.8038 42.7688V92.4077L29.1547 107.496C29.151 107.503 29.1487 107.51 29.1453 107.518C29.1253 107.559 29.1072 107.601 29.0912 107.644C29.0864 107.656 29.0816 107.669 29.0772 107.682C29.0608 107.73 29.0469 107.779 29.0357 107.829L29.0317 107.844C29.02 107.899 29.0117 107.955 29.0067 108.011C29.0053 108.025 29.0053 108.039 29.0046 108.053C29.0027 108.083 29 108.112 29 108.143V111.771C29 113.584 30.4751 115.059 32.2884 115.059H123.35C125.163 115.059 126.639 113.584 126.639 111.771V108.143C126.639 108.112 126.636 108.083 126.634 108.054ZM39.6645 42.8609H115.974V91.3195H39.6645V42.8609ZM39.1126 94.1798H116.526L122.879 106.712H91.4558L89.8786 100.993C89.5574 99.8289 88.4899 99.0158 87.2822 99.0158H68.3559C67.1482 99.0158 66.0805 99.8289 65.7596 100.993L64.1823 106.712H32.7589L39.1126 94.1798ZM88.4885 106.712H67.15L68.4835 101.876H87.155L88.4885 106.712ZM123.778 111.771C123.778 111.884 123.733 111.993 123.652 112.073C123.572 112.153 123.464 112.198 123.35 112.199H32.2884C32.175 112.198 32.0662 112.153 31.986 112.073C31.9058 111.993 31.8607 111.884 31.8605 111.771V109.573H123.778V111.771Z" fill="#007CEE"/>
<path d="M111.493 69.4737C111.305 69.4737 111.119 69.5106 110.945 69.5825C110.772 69.6544 110.614 69.7597 110.481 69.8925C110.348 70.0254 110.243 70.183 110.171 70.3566C110.099 70.5301 110.062 70.7161 110.062 70.9039V85.4076H45.5762V70.9039C45.5762 70.1139 44.9361 69.4737 44.146 69.4737C43.9582 69.4737 43.7722 69.5106 43.5986 69.5825C43.4251 69.6544 43.2674 69.7597 43.1346 69.8925C43.0018 70.0254 42.8964 70.183 42.8246 70.3566C42.7527 70.5301 42.7157 70.7161 42.7157 70.9039V86.0253C42.7157 87.262 43.7217 88.2682 44.9586 88.2682H110.68C111.917 88.2682 112.923 87.2622 112.923 86.0253V70.9039C112.923 70.5246 112.772 70.1609 112.504 69.8926C112.236 69.6244 111.872 69.4737 111.493 69.4737ZM110.68 45.9121H44.9586C43.7219 45.9121 42.7157 46.9181 42.7157 48.1549V63.2763C42.7157 64.0664 43.3559 64.7066 44.146 64.7066C44.9361 64.7066 45.5762 64.0664 45.5762 63.2763V48.7726H110.062V63.2763C110.062 64.0664 110.702 64.7066 111.493 64.7066C112.283 64.7066 112.923 64.0664 112.923 63.2763V48.1549C112.923 46.9179 111.917 45.9121 110.68 45.9121Z" fill="#007CEE"/>
</svg>
