<svg xmlns="http://www.w3.org/2000/svg" width="561" height="278" fill="none"><g opacity=".76"><path fill="url(#a)" d="M141.129 262.487s-3.181-19.628-24.748-32.546c-20.01-11.985-68.815-38.759-82.024-58.818-.585-.888-2.013-.019-1.861 1.137 1.624 12.395 7.984 42.596 32.413 65.761 31.502 29.872 76.22 24.466 76.22 24.466"/><path fill="#fff" d="M44.291 190.649c1.56 4.658 3.98 8.974 6.717 13.021 2.741 4.054 5.931 7.791 9.405 11.225a89 89 0 0 0 5.427 4.921c.95.768 1.89 1.549 2.871 2.276.49.365.961.754 1.463 1.103l1.487 1.07c3.979 2.843 8.241 5.238 12.535 7.621 4.29 2.378 8.634 4.657 13 6.894a608 608 0 0 0 6.581 3.297l6.607 3.253c2.205 1.081 4.412 2.158 6.612 3.257 2.197 1.102 4.395 2.207 6.547 3.404 2.153 1.194 4.28 2.444 6.314 3.841a42 42 0 0 1 2.955 2.23c.941.8 1.843 1.647 2.679 2.556a.133.133 0 0 1-.007.187.133.133 0 0 1-.184-.005l-.002-.001a30 30 0 0 0-2.724-2.444 44 44 0 0 0-2.977-2.136c-2.046-1.338-4.185-2.532-6.353-3.671-4.341-2.272-8.788-4.354-13.225-6.459-8.893-4.174-17.712-8.544-26.316-13.312a284 284 0 0 1-3.22-1.799c-.534-.305-1.072-.599-1.603-.914l-1.591-.945-.796-.473-.78-.497-1.562-.995c-.518-.335-1.022-.691-1.534-1.036-.508-.351-1.027-.686-1.52-1.056-.999-.726-2.004-1.442-2.97-2.213-.983-.747-1.924-1.546-2.874-2.333-1.87-1.612-3.7-3.272-5.423-5.04-3.439-3.54-6.58-7.375-9.259-11.517a63 63 0 0 1-3.631-6.434c-1.064-2.218-2.033-4.492-2.68-6.868q-.002-.014.012-.02c.007-.002.016.004.019.012" opacity=".45"/></g><path fill="#0060D7" d="m252.124 199.477-6.772 60.738h78.572l-10.234-60.738z"/><path fill="#1488FF" d="M87.309 19.73v167.087c0 13.745 10.953 24.986 24.693 25.34 61.029 1.574 274.476 5.39 332.571 4.533 9.985-.147 18.074-8.137 18.362-18.119 1.12-38.817 2.94-132.158-3.793-175.492-1.418-9.126-9.121-15.95-18.351-16.245C389.657 5.198 163.388.004 105.32 1.307c-10.015.225-18.011 8.406-18.011 18.423"/><path fill="#E4EDF8" d="M97.793 18.916V177.66c0 8.025 6.442 14.564 14.466 14.684l323.957 4.002c7.955.119 14.476-6.281 14.506-14.238l.542-157.326a10.453 10.453 0 0 0-10.199-10.488l-331.671-6.7c-6.361-.156-11.601 4.959-11.601 11.322"/><path fill="#7D97F4" d="M453.159 202.668h-.004l-355.368-6.055a.265.265 0 0 1 .01-.529l355.367 6.055a.264.264 0 0 1-.005.529"/><path fill="#fff" d="M282.68 206.102a3.697 3.697 0 1 1-7.393 0 3.697 3.697 0 0 1 7.393 0" opacity=".4"/><path fill="#0074EB" d="M340.85 272.641H225.854c-3.124 0-5.47-2.224-4.866-4.613l1.475-5.836c.444-1.754 2.375-3.043 4.668-3.114l110.86-3.46c2.396-.074 4.517 1.197 5.039 3.021l2.66 9.295c.692 2.415-1.666 4.707-4.84 4.707"/><path fill="#fff" d="m427.566 25.645-309.63-3.644c-4.878-.058-8.866 3.759-8.936 8.531l-1.999 137.858c-.069 4.711 3.732 8.61 8.545 8.773l311.344 10.534a16.02 16.02 0 0 0 11.584-4.38c3.117-2.946 4.808-7.004 4.808-11.243V41.276c0-8.56-6.967-15.528-15.716-15.63"/><path fill="#147EF5" d="M391.414 109.071c-.564 26.641-2.395 118.536-1.521 151.101.092 3.45 2.456 6.219 5.405 6.332 14.586.559 68.055 1.974 91.912.803 4.969-.244 8.92-4.952 9.023-10.769.496-27.963 1.59-106.614-1.01-142.643-.312-4.317-3.208-7.754-6.893-8.186-15.884-1.859-69.583-6.403-90.194-4.838-3.717.282-6.63 3.844-6.722 8.2"/><path fill="#E4EDF8" d="M397.921 117.245c-.785 21.504-3.262 93.04-2.476 119.493.115 3.866 2.72 6.992 6.021 7.219 13.593.93 59.968 2.982 79.906 1.114 3.59-.336 6.407-3.733 6.601-7.94 1.01-21.938 3.911-88.548 3.158-114.704-.12-4.173-2.883-7.581-6.438-7.954-14.705-1.544-63.984-5.22-80.927-4.138-3.18.202-5.71 3.188-5.845 6.91"/><path fill="#fff" d="m430.537 181.955 26.78 1.043-1.869-22.484-24.911-.662zM460.513 183.121l20.912.815.161-22.728-22.945-.61zM481.614 157.498l.169-23.813c.02-2.879-1.887-5.274-4.344-5.453l-63.737-4.661c-2.586-.189-4.801 2.14-4.917 5.167l-1.023 26.795zM427.363 159.767l-19.746-.525-.832 21.788 20.578.801zM406.645 184.736l-1.715 44.882c-.115 3.031 1.918 5.582 4.511 5.659l66.896 1.988c2.588.077 4.728-2.344 4.75-5.373l.312-44.243z"/><path fill="#91B3FA" d="M546.466 177.1s12.526 6.939 13.562 18.682.086 60.485-25.031 72.482-58.363 9.232-71.089 7.92-19.782-9.96-21.358-15.915-4.123-28.138 9.265-35.293 27.448-18.118 41.498-28.792 38.13-28.1 53.153-19.084"/><path fill="#0074EB" d="M455.763 229.026s3.381.179 3.795 7.134c0 0-7.839 7.027-18.428 8.7-.795.125 1.112-5.427 1.398-6.179 1.364-3.579 5.658-5.884 13.235-9.655"/><path fill="#051923" d="M493.834 220.847h-3.394a8.67 8.67 0 0 1-6.229-2.635c-5.619-5.798-19.664-19.448-30.766-23.21-1.806-.612-3.779.257-4.588 1.984-2.317 4.944-5.569 16.452 2.131 33.869.853 1.93 3.273 2.75 5.028 1.578a2.85 2.85 0 0 0 1.082-1.32l-.847-20.358s18.677 16.336 21.924 19.488 19.748 1.231 15.659-9.396"/><path fill="#0074EB" d="M424.866 271.619c2.989-2.62 7.753-5.56 14.629-6.402l2.326 1.422s-1.483 2.188-4.192 4.498c-2.49 1.446-6.335 3.405-9.522 3.829-3.099.413-3.556-1.459-3.241-3.347M442.529 238.68c1.842.596 2.652 3.205 7.325 1.479 4.521-1.669 7.882-3.822 9.612-5.063q.059.502.093 1.062s-8.265 7.862-18.854 9.535c-.795.125-1.425-.668-1.138-1.42a26.5 26.5 0 0 1 2.962-5.593"/><path fill="#0074EB" d="M422.613 273.856a25 25 0 0 1 2.252-2.237c-.315 1.888.142 3.76 3.241 3.347 3.188-.424 7.032-2.383 9.522-3.829-3.121 2.661-7.869 5.486-13.861 5.32-1.331-.037-2.034-1.602-1.154-2.601"/><path fill="#051923" d="m493.574 226.008-33.408.362s-19.078 15.784-22.538 39.853c0 0-.575 1.77 2.874 2.073 0 0 11.534-7.534 19.055-20.853 9.222-16.331 27.492-8.98 27.492-8.98 6.003-4.327 14.486-5.209 20.876-6.651z"/><path fill="#0074EB" d="M490.858 225.714s4.09-11.117 4.968-21.919c0 0-2.992-2.571-4.862-3.681a1.353 1.353 0 0 1-.528-1.753c1.375-2.848 9.69-14.032 10.312-14.187 3.386-.845 17.27-7.447 27.048 5.929 4.197 5.74-.832 23.411-19.871 41.71l-3.928.752z"/><path fill="#F5B9B3" d="m513.244 174.738 2.487 8.292a.91.91 0 0 1-.354 1.016c-1.197.819-4.326 2.45-8.617.865a1.35 1.35 0 0 1-.87-1.161l-.589-7.223z"/><path fill="#FFC3BD" d="M498.687 168.023s1.223 8.595 4.524 11.238c3.302 2.644 9.735.653 11.908-5.826l-4.329-11.08z"/><path fill="url(#b)" d="M511.278 169.524a.425.425 0 0 1-.553-.341c-.119-.793-.417-2.363-1.019-3.433 0 0 .315-1.128-2.85.576s-7.919 4.206-10.718 2.716c-2.729-1.453-5.493-8.765 1.719-7.41a.426.426 0 0 0 .506-.446c-.088-1.202.031-3.966 2.831-4.854 2.62-.83 4.054.352 4.645 1.066a.422.422 0 0 0 .662-.01c.785-1.025 2.917-3.206 6.055-1.823 2.584 1.139 2.986 2.731 2.943 3.723a.425.425 0 0 0 .605.405c.791-.365 2.064-.554 3.284.974 1.686 2.112-.723 3.944-1.446 4.425a.42.42 0 0 0-.193.351c-.007 1.099-.178 5.891-2.58 8.594a.43.43 0 0 1-.713-.123l-1.849-4.406a.43.43 0 0 0-.526-.242z"/><path fill="#051923" d="M511.278 169.524a.425.425 0 0 1-.553-.341c-.119-.793-.417-2.363-1.019-3.433 0 0 .315-1.128-2.85.576s-7.919 4.206-10.718 2.716c-2.729-1.453-5.493-8.765 1.719-7.41a.426.426 0 0 0 .506-.446c-.088-1.202.031-3.966 2.831-4.854 2.62-.83 4.054.352 4.645 1.066a.422.422 0 0 0 .662-.01c.785-1.025 2.917-3.206 6.055-1.823 2.584 1.139 2.986 2.731 2.943 3.723a.425.425 0 0 0 .605.405c.791-.365 2.064-.554 3.284.974 1.686 2.112-.723 3.944-1.446 4.425a.42.42 0 0 0-.193.351c-.007 1.099-.178 5.891-2.58 8.594a.43.43 0 0 1-.713-.123l-1.849-4.406a.43.43 0 0 0-.526-.242z"/><path fill="url(#c)" d="M511.238 170.418s1.13-4.599 2.845-3.106-.447 4.78-2.412 5.407z"/><path fill="url(#d)" d="M495.826 203.928a.133.133 0 0 1-.133-.131c-.016-5.004 1.91-11.628 1.929-11.694a.132.132 0 1 1 .254.074c-.019.066-1.935 6.654-1.918 11.618a.133.133 0 0 1-.132.133"/><path fill="url(#e)" d="M506.617 206.363a.131.131 0 0 1-.104-.213c.052-.066 5.212-6.625 6.979-11.103a.13.13 0 0 1 .171-.074.133.133 0 0 1 .075.171c-1.782 4.514-6.966 11.103-7.018 11.169a.13.13 0 0 1-.103.05"/><path fill="url(#f)" d="m513.94 216.437-.923-1.305a.13.13 0 0 1 .031-.184.13.13 0 0 1 .184.031l.8 1.13c7.345-3.205 11.888-11.987 11.933-12.076a.13.13 0 0 1 .178-.057.13.13 0 0 1 .057.178c-.045.089-4.673 9.034-12.162 12.241z"/><path fill="#F5B9B3" d="M491.254 199s-5.487 15.802-16.18 3.775l-1.019-.452-7.664-5.239.854 3.034a5.67 5.67 0 0 0 3.301 3.708l1.01.415c1.921 3.994 6.039 10.046 12.379 11.194 9.515 1.723 14.396-11.134 14.396-11.134z"/><path fill="#007CEE" d="m462.57 193.048-.538.737a.784.784 0 0 0 .191 1.11l12.074 8.249a.785.785 0 0 0 .925-1.267l-11.537-8.985a.784.784 0 0 0-1.115.156"/><path fill="#FFC3BD" d="M473.469 200.664c-.153-.133 9.33-4.774 12.9-4.349 3.477.413 7.567 3.011 11.381 6.09 3.433 2.772 6.964 4.561 10.278 4.423 0 0 5.67 6.166 4.413 9.885 0 0-6.295 1.488-11.67-3.82-5.11-5.045-10.753-11.477-13.929-12.649a.9.9 0 0 0-.797.089c-.954.608-3.931 2.066-7.829-.265 0 0-3.171 1.975-4.747.596"/><path fill="#0060D7" d="m32.994 123.292-12.652-.894L4.56 168.6l20.69 103.703 19.632-2.895z"/><path fill="#1488FF" d="m108.48 265.002-24.995-94.754-14.921-51.301-35.57 4.344-16.365 47.708 22.47 98.395h69.441z"/><path fill="#0060D7" d="m20.344 122.399 31.845-4.61 16.375 1.159-35.569 4.344zM27.5 168.649l17.417-5.471v-21.756l-8.709.773zM59.29 138.686l7.962-2.012 7.235 24.016H62.732z"/><path fill="#F5B9B3" d="M157.32 224.314s8.69 44.355 11.841 44.355 61.528-6.988 61.528-6.988v-12.645l-46.168 1.697-11.146-32.963z"/><path fill="#7D97F4" d="M252.044 252.814h-29.226v9.555h29.226zM264.971 267.335v1.216h-57.326v-1.216c0-3.079 2.28-4.966 5.359-4.966h46.297c3.079 0 5.67 1.887 5.67 4.966"/><path fill="#91B3FA" d="M256.54 252.814h-29.225v9.555h29.225z"/><path fill="#91B3FA" d="M286.328 162.74a4.91 4.91 0 0 0-4.908-4.908h-87.414a4.91 4.91 0 0 0-4.908 4.908v85.728a4.91 4.91 0 0 0 4.908 4.908h87.414a4.91 4.91 0 0 0 4.908-4.908zM270.701 268.202l-5.828.145-22.893.203h-28.722l-.004-.992c-.011-3.079 2.476-5.646 5.555-5.657l23.148-.11 23.145-.096a5.57 5.57 0 0 1 5.595 5.548z"/><path fill="#7D97F4" d="M193.97 157.781c-2.736 0-4.872 2.218-4.872 4.954v85.756c0 2.71 2.115 4.908 4.826 4.908 1.104 0 1.918-.895 1.918-2v-91.664c0-1.079-.793-1.954-1.872-1.954"/><path fill="#0074EB" d="M146.35 272.485H68.547l4.726-55.352s-5.817-41.714 20.723-46.329c15.634-4.252 15.634-4.274 15.634-4.274s19.996-3.143 36.72 4.24c16.724 7.382 30.539 51.732 30.539 51.732l-19.996 7.995-5.09-16.271z"/><path fill="#F5B9B3" d="m113.405 139.896-7.921 30.416s16.551 7.989 30.605 1.073l-4.436-29.487z"/><path fill="#FFC3BD" d="M150.672 115.346s1.263 22.05-1.859 32.228c-3.123 10.177-3.36 17.44-15.632 15.196s-19.866-11.571-21.465-23.445c0 0-2.6-18.348 1.562-23.934 4.161-5.586 37.394-.045 37.394-.045"/><path fill="#051923" d="m118.292 133.635.763-.048a1.687 1.687 0 0 0 1.575-1.888c-.467-3.742-.982-12.11 3.732-12.279 6.076-.219 28.552 3.228 35.798-2.526 6.964-5.53 6.517-16.149 1.71-20.895a.85.85 0 0 0-1.165-.044l-.817.732c-.559.502-1.444.068-1.39-.681.051-.72-.767-1.164-1.337-.723-2.205 1.708-7.274 3.925-17.965 2.081-15.193-2.62-26.721-.333-30.58 9.411-.246.619-1.038.721-1.451.199-.815-1.027-2.385-1.948-5.328-.887-5.118 1.844-6.662 10.955-.683 21.123.284.483.047 1.117-.5 1.241-1.925.438-5.126 1.989-.312 7.406 4.98 5.604 9.713 7.04 11.605 7.404a.83.83 0 0 0 .98-.709l1.283-9.341a.834.834 0 0 1 1.116-.67z"/><path fill="url(#g)" d="M117.975 135.591s1.32-13.301-5.376-11.904c-6.697 1.396-2.192 14.64 2.015 16.707z"/><path fill="#0074EB" d="m296.532 268.209-292.694.897c-1.198.003-2.288.945-2.433 2.105l-.446 3.568c-.145 1.168.714 2.111 1.92 2.104l294.226-1.572c1.005-.005 1.749-.874 1.662-1.938l-.267-3.255c-.086-1.058-.967-1.912-1.968-1.909"/><path fill="#051923" d="M153.622 269.113h25.086s-5.696-12.24-16.118-11.634-8.968 11.634-8.968 11.634"/><path fill="#FFC3BD" d="m85.234 234.312 17.451-8.031 15.428 27.118s43.628-6.787 51.384 1.454 4.12 8.12 3.151 8.12-5.454-4.848-5.454-4.848 3.931 5.915 1.818 6.181-7.272-5.333-7.272-5.333 4.242 7.393 1.697 6.545c-2.545-.849-4.605-4.848-4.605-4.848s3.393 4.741 1.091 4.915c-2.303.175-5.817-3.904-5.817-3.904s-5.393 2.443-8.484 2.443c-3.09 0-34.235 7.777-39.871 4.544-5.634-3.232-20.517-34.356-20.517-34.356"/><g fill="#007CEE" opacity=".8"><path d="M223.278 108.055a.8.8 0 0 1-.583-.235.8.8 0 0 1-.22-.589l.274-21.147a.8.8 0 0 1 .235-.583.8.8 0 0 1 .589-.22l8.849.115q4.197.055 6.579 2.038 2.415 1.95 2.369 5.497-.03 2.31-1.189 3.89a6.93 6.93 0 0 1-2.959 2.369l4.385 8.061a.8.8 0 0 1 .093.359q-.003.261-.234.486a.66.66 0 0 1-.49.188l-4.295-.055q-.618-.008-.907-.305a2.7 2.7 0 0 1-.415-.591l-3.616-7.205-3.351-.044-.094 7.223a.8.8 0 0 1-.235.582.8.8 0 0 1-.589.22zm5.173-12.558 3.774.049q1.53.02 2.287-.719.79-.738.808-2.04.016-1.268-.722-2.059-.705-.79-2.3-.81l-3.774-.05zM253.483 108.772q-3.839-.05-6.089-2.161t-2.295-6.213l.008-.585.007-.553q.131-2.57 1.195-4.378 1.098-1.84 2.965-2.76 1.899-.95 4.404-.919 2.864.038 4.703 1.2a7.2 7.2 0 0 1 2.79 3.128q.919 1.965.886 4.469l-.01.781a.74.74 0 0 1-.268.582.76.76 0 0 1-.556.221l-10.411-.135-.001.097-.002.13a5.4 5.4 0 0 0 .303 1.729q.283.784.895 1.248t1.491.475q.65.008 1.076-.181.459-.222.755-.479.296-.288.461-.482.297-.321.461-.384.197-.096.587-.09l4.034.052q.326.004.518.202.225.165.189.49-.04.553-.571 1.327t-1.549 1.542q-.986.735-2.488 1.204t-3.488.443m-2.629-10.544 5.498.071.001-.065q.013-1.041-.302-1.826a2.4 2.4 0 0 0-.928-1.216q-.612-.431-1.491-.442-.878-.012-1.502.403-.591.415-.926 1.192t-.349 1.818zM273.255 109.028q-2.114-.027-3.605-.502-1.458-.507-2.392-1.202-.903-.696-1.348-1.417-.447-.754-.472-1.275a.66.66 0 0 1 .235-.583q.264-.256.557-.253l3.709.048a.4.4 0 0 1 .162.035q.064.033.193.132.42.234.839.597.419.331.968.598.55.268 1.331.278.91.012 1.533-.338t.632-1.066q.007-.52-.281-.849-.29-.362-1.195-.699-.875-.337-2.66-.686-1.687-.411-2.947-1.046-1.26-.668-1.931-1.685-.67-1.05-.65-2.514.017-1.301.878-2.494.861-1.192 2.498-1.92 1.636-.76 4.012-.729 1.887.024 3.247.498 1.394.441 2.328 1.136.968.696 1.446 1.418.479.722.504 1.308a.75.75 0 0 1-.203.583.72.72 0 0 1-.524.221l-3.383-.043a1 1 0 0 1-.26-.036 2 2 0 0 1-.226-.134 4 4 0 0 1-.774-.53 4.7 4.7 0 0 0-.903-.598q-.518-.267-1.298-.277-.879-.01-1.372.373-.494.384-.501 1.002a1.3 1.3 0 0 0 .25.784q.288.361 1.13.666.876.304 2.692.685 2.241.387 3.564 1.218 1.323.798 1.863 1.879.539 1.049.524 2.219a4.36 4.36 0 0 1-.979 2.754q-.927 1.191-2.757 1.851-1.83.627-4.434.593M286.753 108.878a.8.8 0 0 1-.583-.235.8.8 0 0 1-.22-.589l.274-21.147a.8.8 0 0 1 .235-.582.8.8 0 0 1 .589-.22l15.193.196a.8.8 0 0 1 .583.236q.225.23.22.588l-.04 3.058a.8.8 0 0 1-.235.583.8.8 0 0 1-.589.22l-10.378-.134-.057 4.392 9.663.125a.74.74 0 0 1 .582.268q.225.231.22.588l-.037 2.83a.86.86 0 0 1-.235.583.8.8 0 0 1-.589.22l-9.662-.125-.059 4.523 10.639.138a.8.8 0 0 1 .582.235q.225.231.221.588l-.04 3.059a.8.8 0 0 1-.235.582.8.8 0 0 1-.589.22zM307.791 109.151a.86.86 0 0 1-.582-.236.8.8 0 0 1-.221-.588l.033-2.538q.004-.358.138-.616a2.8 2.8 0 0 1 .397-.483l7.72-8.165-7.027-.091a.9.9 0 0 1-.615-.236.8.8 0 0 1-.22-.588l.033-2.57a.8.8 0 0 1 .235-.583.9.9 0 0 1 .621-.22l13.079.17q.325.003.55.234.258.231.253.59l-.036 2.765a1.03 1.03 0 0 1-.137.519q-.133.225-.331.451l-7.524 8.07 7.711.1a.8.8 0 0 1 .582.235.8.8 0 0 1 .22.589l-.033 2.57a.8.8 0 0 1-.235.582.8.8 0 0 1-.589.221z"/></g><defs><linearGradient id="a" x1="93.59" x2="71.083" y1="205.44" y2="244.167" gradientUnits="userSpaceOnUse"><stop stop-color="#A737D5"/><stop offset="1" stop-color="#EF497A"/></linearGradient><linearGradient id="b" x1="509.565" x2="504.817" y1="146.222" y2="173.305" gradientUnits="userSpaceOnUse"><stop stop-color="#09005D"/><stop offset="1" stop-color="#1A0F91"/></linearGradient><linearGradient id="c" x1="510.245" x2="515.353" y1="178.755" y2="161.91" gradientUnits="userSpaceOnUse"><stop stop-color="#FF928E"/><stop offset="1" stop-color="#FEB3B1"/></linearGradient><linearGradient id="d" x1="461.042" x2="479.539" y1="119.84" y2="160.269" gradientUnits="userSpaceOnUse"><stop stop-color="#09005D"/><stop offset="1" stop-color="#1A0F91"/></linearGradient><linearGradient id="e" x1="471.044" x2="489.541" y1="115.264" y2="155.693" gradientUnits="userSpaceOnUse"><stop stop-color="#09005D"/><stop offset="1" stop-color="#1A0F91"/></linearGradient><linearGradient id="f" x1="475.519" x2="494.016" y1="113.218" y2="153.647" gradientUnits="userSpaceOnUse"><stop stop-color="#09005D"/><stop offset="1" stop-color="#1A0F91"/></linearGradient><linearGradient id="g" x1="143.198" x2="82.573" y1="122.882" y2="141.623" gradientUnits="userSpaceOnUse"><stop stop-color="#FF928E"/><stop offset="1" stop-color="#FEB3B1"/></linearGradient></defs></svg>