<svg width="155" height="155" viewBox="0 0 155 155" fill="none" xmlns="http://www.w3.org/2000/svg">
<path d="M27.9797 70.5238L34.5632 70.5238L34.5632 54.7715C34.5631 54.4698 34.6427 54.1735 34.7939 53.9125C34.9452 53.6516 35.1627 53.4352 35.4244 53.2853C50.1357 44.8561 71.6068 50.9875 76.9865 52.7408C80.6147 47.837 96.3276 28.4257 111.785 37.2864C112.047 37.436 112.265 37.6524 112.416 37.9134C112.568 38.1744 112.647 38.4709 112.647 38.7726L112.647 50.4036C115.242 51.0885 117.669 52.0405 119.852 53.2784C120.388 53.5832 120.72 54.1516 120.72 54.768L120.72 70.5238L127.288 70.5238C127.742 70.5238 128.177 70.7042 128.499 71.0253C128.82 71.3464 129 71.7819 129 72.236L129 118.779C129 119.233 128.82 119.669 128.498 119.99C128.177 120.311 127.742 120.491 127.288 120.491L27.9797 120.491C27.5256 120.491 27.0901 120.311 26.769 119.99C26.4479 119.669 26.2675 119.233 26.2675 118.779L26.2675 72.236C26.2675 71.7819 26.4479 71.3464 26.769 71.0253C27.0901 70.7042 27.5256 70.5238 27.9797 70.5238ZM37.9876 55.7868L37.9876 72.1863C37.9876 72.2034 37.9978 72.2189 37.9978 72.236C37.9978 72.2531 37.9876 72.2685 37.9876 72.2856L37.9876 107.372C51.6407 101.311 69.5881 105.845 75.9215 107.788L75.9215 56.0025C71.0263 54.4393 51.312 48.8695 37.9876 55.7868ZM109.222 39.805C96.0092 33.3945 81.5924 52.234 79.3494 55.3211L79.3494 105.138C84.0032 99.5971 93.2611 90.3888 103.413 90.3888C105.399 90.3867 107.369 90.7489 109.224 91.4572L109.222 39.805ZM117.295 55.7902C115.807 55.0323 114.25 54.4155 112.647 53.9479L112.647 94.1591C112.647 94.4592 112.568 94.7542 112.419 95.0143C112.269 95.2744 112.053 95.4905 111.793 95.6409C111.534 95.7914 111.239 95.8708 110.939 95.8713C110.639 95.8717 110.344 95.7932 110.084 95.6436C99.461 89.5567 87.8625 100.532 82.3355 106.956C90.489 104.826 105.538 102.167 117.294 107.377L117.295 55.7902ZM29.6919 117.068L125.576 117.068L125.576 73.9499L120.72 73.9499L120.72 110.16C120.721 110.46 120.642 110.755 120.493 111.016C120.343 111.276 120.127 111.492 119.867 111.643C119.607 111.794 119.312 111.873 119.012 111.873C118.712 111.873 118.417 111.794 118.157 111.644C104.31 103.708 83.118 110.107 78.3974 111.69C78.3854 111.696 78.3717 111.694 78.3597 111.699L78.3375 111.708C78.2141 111.763 78.0848 111.803 77.9522 111.829C77.8849 111.841 77.8168 111.849 77.7485 111.853C77.7176 111.855 77.6885 111.863 77.6594 111.863C77.6509 111.863 77.6423 111.87 77.6337 111.87C77.6098 111.87 77.5858 111.856 77.5618 111.855C77.4497 111.849 77.3384 111.831 77.2297 111.803C77.1971 111.795 77.1629 111.798 77.1304 111.788L77.1013 111.774C77.0841 111.769 77.0687 111.769 77.0516 111.762L76.9728 111.735L76.966 111.735L76.9626 111.733C75.348 111.168 51.8599 103.2 37.1263 111.641C36.8659 111.79 36.5709 111.868 36.2708 111.867C35.9707 111.866 35.6761 111.787 35.4165 111.636C35.1569 111.486 34.9414 111.27 34.7916 111.01C34.6419 110.749 34.5631 110.455 34.5632 110.155L34.5632 73.9482L29.6919 73.9482L29.6919 117.067L29.6919 117.068Z" fill="#007CEE"/>
<path d="M43.9143 62.2722C43.4602 62.2722 43.0246 62.0918 42.7035 61.7707C42.3824 61.4496 42.202 61.0141 42.202 60.56L42.202 58.4061C42.202 57.9519 42.3824 57.5164 42.7035 57.1953C43.0246 56.8742 43.4602 56.6938 43.9143 56.6938C44.3684 56.6938 44.8039 56.8742 45.125 57.1953C45.4461 57.5164 45.6265 57.9519 45.6265 58.4061L45.6265 60.56C45.6265 61.0141 45.4461 61.4496 45.125 61.7707C44.8039 62.0918 44.3684 62.2722 43.9143 62.2722ZM43.9143 99.8021C43.4601 99.8021 43.0246 99.6217 42.7035 99.3006C42.3824 98.9795 42.202 98.544 42.202 98.0899L42.202 66.938C42.202 66.4839 42.3824 66.0484 42.7035 65.7273C43.0246 65.4062 43.4602 65.2258 43.9143 65.2258C44.3684 65.2258 44.8039 65.4062 45.125 65.7273C45.4461 66.0484 45.6265 66.4839 45.6265 66.938L45.6265 98.0899C45.6265 98.544 45.4461 98.9795 45.125 99.3006C44.8039 99.6217 44.3684 99.8021 43.9143 99.8021Z" fill="#007CEE"/>
</svg>
