<svg xmlns="http://www.w3.org/2000/svg" width="726" height="604" fill="none"><g clip-path="url(#a)"><path fill="#007CEE" d="M462.227 497.469H39.564a8.197 8.197 0 0 0-8.198 8.198v89.591a8.197 8.197 0 0 0 8.198 8.198h422.663z"/><path fill="#000" d="M462.227 497.469H39.564a8.197 8.197 0 0 0-8.198 8.198v89.591a8.197 8.197 0 0 0 8.198 8.198h422.663z" opacity=".2"/><path fill="#000" d="M358.613 603.457h-64.675V497.47h64.675zM266.156 603.457h-32.793V497.47h32.793z" opacity=".2"/><path fill="#007CEE" d="M462.229 497.469h139.995a8.244 8.244 0 0 1 8.245 8.244v89.497a8.244 8.244 0 0 1-8.245 8.244H462.229z"/><path fill="#fff" d="M488.015 508.857h122.456v83.216H488.015c-5.94 0-10.756-4.816-10.756-10.756v-61.704c0-5.942 4.816-10.756 10.756-10.756" opacity=".9"/><path fill="#000" d="M90.576 580.769c-16.738 0-30.308-13.569-30.308-30.308s13.57-30.309 30.308-30.309c16.739 0 30.309 13.57 30.309 30.309s-13.57 30.308-30.309 30.308" opacity=".2"/><path fill="#263238" d="M431.658 420.533H8.996a8.197 8.197 0 0 0-8.199 8.198v60.543a8.197 8.197 0 0 0 8.199 8.198h422.662z"/><path fill="#000" d="M431.658 420.533H8.996a8.197 8.197 0 0 0-8.199 8.198v60.543a8.197 8.197 0 0 0 8.199 8.198h422.662z" opacity=".2"/><path fill="#263238" d="M431.66 420.533h139.996a8.246 8.246 0 0 1 8.246 8.245v60.448a8.246 8.246 0 0 1-8.246 8.246H431.66z"/><path fill="#fff" d="M457.447 431.92h122.455v54.165H457.447c-5.941 0-10.756-4.816-10.756-10.756v-32.655c0-5.938 4.815-10.754 10.756-10.754" opacity=".9"/><path fill="#007CEE" d="M343.146 479.256H47.408a8.863 8.863 0 0 1-8.864-8.864V447.62a8.863 8.863 0 0 1 8.864-8.864h295.738a8.863 8.863 0 0 1 8.864 8.864v22.772a8.865 8.865 0 0 1-8.864 8.864M415.604 497.471h-11.217v-76.939h11.217zM395.112 497.471h-11.217v-76.939h11.217z" opacity=".3"/><path fill="#007CEE" d="M478.396 341.17H55.734a8.197 8.197 0 0 0-8.198 8.198v62.968a8.197 8.197 0 0 0 8.198 8.198h422.662z"/><path fill="#000" d="M478.396 341.17H55.734a8.197 8.197 0 0 0-8.198 8.198v62.968a8.197 8.197 0 0 0 8.198 8.198h422.662z" opacity=".3"/><path fill="#E7E0FF" d="M374.783 420.531H228.029v-79.364h146.754zM164.989 420.531H90.58v-79.364h74.409z" opacity=".9"/><path fill="#007CEE" d="M478.399 341.168h139.995a8.245 8.245 0 0 1 8.245 8.247v62.872a8.244 8.244 0 0 1-8.245 8.245H478.399z"/><path fill="#fff" d="M504.185 352.555h122.456v56.589H504.185c-5.94 0-10.756-4.815-10.756-10.756v-35.079c0-5.939 4.816-10.754 10.756-10.754" opacity=".9"/><path fill="#007CEE" d="M447.824 288.533H25.162a8.197 8.197 0 0 0-8.198 8.198v36.241a8.197 8.197 0 0 0 8.198 8.198h422.662z"/><path fill="#fff" d="M447.824 288.533H25.162a8.197 8.197 0 0 0-8.198 8.198v36.241a8.197 8.197 0 0 0 8.198 8.198h422.662z" opacity=".3"/><path fill="#000" d="M447.824 288.533H25.162a8.197 8.197 0 0 0-8.198 8.198v36.241a8.197 8.197 0 0 0 8.198 8.198h422.662z" opacity=".2"/><path fill="#007CEE" d="M447.826 288.533h139.996a8.244 8.244 0 0 1 8.244 8.245v36.145a8.244 8.244 0 0 1-8.244 8.245H447.826z"/><path fill="#fff" d="M447.826 288.533h139.996a8.244 8.244 0 0 1 8.244 8.245v36.145a8.244 8.244 0 0 1-8.244 8.245H447.826z" opacity=".3"/><path fill="#fff" d="M473.613 299.918h122.455v29.862H473.613c-5.941 0-10.756-4.815-10.756-10.756v-8.352c0-5.938 4.815-10.754 10.756-10.754" opacity=".9"/><path fill="#263238" d="M409.997 327.297H218.42v-24.886h191.577z" opacity=".4"/><path fill="#007CEE" d="M314.661 271.125h60.445a1.35 1.35 0 0 1 1.349 1.349v14.743c0 .746-.605 1.349-1.349 1.349h-60.445z"/><path fill="#000" d="M314.661 271.125h60.445a1.35 1.35 0 0 1 1.349 1.349v14.743c0 .746-.605 1.349-1.349 1.349h-60.445z" opacity=".2"/><path fill="#007CEE" d="M314.66 271.125h-23.038c-.749 0-1.357.607-1.357 1.357v14.728c0 .749.606 1.358 1.357 1.358h23.038z"/><path fill="#fff" d="M310.42 272.998h-20.151v13.695h20.151a1.77 1.77 0 0 0 1.769-1.77V274.77a1.77 1.77 0 0 0-1.769-1.772" opacity=".9"/><path fill="#263238" d="M319.692 258.465h60.446c.744 0 1.348.604 1.348 1.348v9.964c0 .744-.604 1.348-1.348 1.348h-60.446z"/><path fill="#000" d="M319.692 258.465h60.446c.744 0 1.348.604 1.348 1.348v9.964c0 .744-.604 1.348-1.348 1.348h-60.446z" opacity=".2"/><path fill="#263238" d="M319.691 258.465h-23.038c-.75 0-1.357.606-1.357 1.357v9.946c0 .749.607 1.357 1.357 1.357h23.038z"/><path fill="#fff" d="M315.447 260.338h-20.15v8.912h20.15a1.77 1.77 0 0 0 1.77-1.769v-5.374a1.767 1.767 0 0 0-1.77-1.769" opacity=".9"/><path fill="#007CEE" d="M311.997 245.404h60.445a1.35 1.35 0 0 1 1.349 1.349v10.363a1.35 1.35 0 0 1-1.349 1.349h-60.445z"/><path fill="#000" d="M311.997 245.404h60.445a1.35 1.35 0 0 1 1.349 1.349v10.363a1.35 1.35 0 0 1-1.349 1.349h-60.445z" opacity=".3"/><path fill="#007CEE" d="M311.996 245.404h-23.038c-.749 0-1.357.607-1.357 1.357v10.346c0 .751.606 1.358 1.357 1.358h23.038z"/><path fill="#fff" d="M307.756 247.277h-20.151v9.313h20.151a1.77 1.77 0 0 0 1.769-1.77v-5.773a1.77 1.77 0 0 0-1.769-1.77" opacity=".9"/><path fill="#007CEE" d="M317.03 236.74h60.445a1.35 1.35 0 0 1 1.349 1.349v5.964c0 .744-.604 1.348-1.349 1.348H317.03z"/><path fill="#fff" d="M317.03 236.74h60.445a1.35 1.35 0 0 1 1.349 1.349v5.964c0 .744-.604 1.348-1.349 1.348H317.03z" opacity=".3"/><path fill="#000" d="M317.03 236.74h60.445a1.35 1.35 0 0 1 1.349 1.349v5.964c0 .744-.604 1.348-1.349 1.348H317.03z" opacity=".2"/><path fill="#007CEE" d="M317.029 236.74h-23.038c-.751 0-1.357.607-1.357 1.357v5.949c0 .751.606 1.357 1.357 1.357h23.038z"/><path fill="#fff" d="M317.029 236.74h-23.038c-.751 0-1.357.607-1.357 1.357v5.949c0 .751.606 1.357 1.357 1.357h23.038z" opacity=".3"/><path fill="#fff" d="M312.785 238.613h-20.15v4.915h20.15a1.77 1.77 0 0 0 1.77-1.769v-1.374c0-.979-.793-1.772-1.77-1.772" opacity=".9"/><path fill="#263238" d="M319.692 224.08h60.446a1.35 1.35 0 0 1 1.348 1.349v9.963c0 .746-.604 1.349-1.348 1.349h-60.446z"/><path fill="#000" d="M319.692 224.08h60.446a1.35 1.35 0 0 1 1.348 1.349v9.963c0 .746-.604 1.349-1.348 1.349h-60.446z" opacity=".2"/><path fill="#263238" d="M319.691 224.08h-15.364c-.749 0-1.357.607-1.357 1.357v9.947c0 .748.606 1.357 1.357 1.357h15.364z"/><path fill="#fff" d="M315.447 225.953h-12.479v8.913h12.479a1.77 1.77 0 0 0 1.77-1.77v-5.373a1.77 1.77 0 0 0-1.77-1.77" opacity=".9"/><path fill="#007CEE" d="M311.997 211.02h60.445a1.35 1.35 0 0 1 1.349 1.348v10.363a1.35 1.35 0 0 1-1.349 1.349h-60.445z"/><path fill="#000" d="M311.997 211.02h60.445a1.35 1.35 0 0 1 1.349 1.348v10.363a1.35 1.35 0 0 1-1.349 1.349h-60.445z" opacity=".3"/><path fill="#007CEE" d="M311.996 211.02h-15.364c-.749 0-1.358.606-1.358 1.357v10.346c0 .75.607 1.357 1.358 1.357h15.364z"/><path fill="#fff" d="M307.752 212.893h-12.479v9.312h12.479a1.77 1.77 0 0 0 1.769-1.77v-5.773c0-.977-.792-1.769-1.769-1.769" opacity=".9"/><path fill="#007CEE" d="M317.03 202.359h60.445a1.35 1.35 0 0 1 1.349 1.349v5.964c0 .744-.604 1.348-1.349 1.348H317.03z"/><path fill="#fff" d="M317.03 202.359h60.445a1.35 1.35 0 0 1 1.349 1.349v5.964c0 .744-.604 1.348-1.349 1.348H317.03z" opacity=".3"/><path fill="#000" d="M317.03 202.359h60.445a1.35 1.35 0 0 1 1.349 1.349v5.964c0 .744-.604 1.348-1.349 1.348H317.03z" opacity=".2"/><path fill="#007CEE" d="M317.029 202.359h-15.364c-.749 0-1.357.607-1.357 1.358v5.948c0 .751.606 1.358 1.357 1.358h15.364z"/><path fill="#fff" d="M317.029 202.359h-15.364c-.749 0-1.357.607-1.357 1.358v5.948c0 .751.606 1.358 1.357 1.358h15.364z" opacity=".3"/><path fill="#fff" d="M312.789 204.23H300.31v4.916h12.479a1.77 1.77 0 0 0 1.77-1.77v-1.374c0-.979-.793-1.772-1.77-1.772" opacity=".9"/><path fill="#FFC3BD" d="m633.325 434.353 13.946-6.991-11.316-34.659-13.946 6.991z"/><path fill="#051923" d="m646.06 421.908-17.134 3.603c-.624.131-1.002.663-.911 1.279l2.021 13.73c.209 1.425 1.809 2.478 3.24 2.15 5.945-1.357 8.721-2.306 16.255-3.892 4.636-.975 20.622-4.2 26.805-6.336 6.049-2.086 3.896-8.187 1.085-7.836-12.608 1.573-23.518.16-28.535-2.315-.907-.444-1.913-.575-2.826-.383"/><path fill="#000" d="m622.011 399.706 13.95-6.995 6.488 19.891-14.612 4.972z" opacity=".2"/><path fill="#051923" d="M480.663 224.922s119.625 11.602 129.635 55.158c14.386 62.606 33.841 122.084 33.841 122.084l-26.763 4.72c-4.104-17.823-34.617-80.416-48.931-122.455-32.397-4.843-119.035 13.534-132.004-11.107-10.609-20.159-10.353-40.401-10.353-40.401z"/><path fill="#051923" d="M480.663 224.922s119.625 11.602 129.635 55.158c14.386 62.606 33.841 122.084 33.841 122.084l-26.763 4.72c-4.104-17.823-34.617-80.416-48.931-122.455-32.397-4.843-119.035 13.534-132.004-11.107-10.609-20.159-10.353-40.401-10.353-40.401z" opacity=".3"/><path fill="#051923" d="m615.697 416.353 31.283-11.325-1.503-12.589-32.741 8.628zM652.025 423.429c-1.408.296-3.028.334-4.18.309a.36.36 0 0 1-.327-.222.37.37 0 0 1 .069-.389c.417-.442 4.114-4.3 6.129-3.961.467.078.826.365 1.04.832.351.77.338 1.451-.04 2.023-.478.73-1.51 1.161-2.691 1.408m-3.311-.412c2.844-.029 4.835-.537 5.397-1.395.235-.355.229-.786-.015-1.323-.112-.248-.27-.379-.496-.417-1.087-.18-3.353 1.638-4.886 3.135"/><path fill="#051923" d="M647.926 423.732a.36.36 0 0 1-.423-.25c-.055-.182-1.319-4.496-.093-6.304.332-.486.804-.759 1.402-.814.719-.063 1.258.222 1.516.806.701 1.59-.903 5.251-2.233 6.475a.36.36 0 0 1-.169.087m.784-6.621a1.07 1.07 0 0 0-.697.473c-.734 1.078-.33 3.615.017 5.055 1.091-1.4 2.095-4.135 1.634-5.18-.087-.198-.256-.42-.787-.374a2 2 0 0 0-.167.026"/><path fill="#FFC3BD" d="M467.703 115.4c.717 7.87 1.852 15.259 3.093 22.856 1.306 7.543 2.835 15.077 4.792 22.61 1.947 7.542 4.222 15.081 7.433 22.698 1.634 3.811 3.427 7.663 5.94 11.563 1.262 1.951 2.675 3.922 4.465 5.898 1.801 1.964 3.983 3.979 6.926 5.695l.868.506.497.175c5.759 2.044 10.433 1.298 14.232.463 3.822-.924 7.01-2.387 9.974-3.934a63 63 0 0 0 8.155-5.283c1.264-.956 2.461-1.991 3.649-3.019a51 51 0 0 0 3.509-3.31l-6.655-9.619c-2.458.816-5.132 1.854-7.697 2.611-2.564.818-5.094 1.575-7.523 2.107-2.404.588-4.757.89-6.64.935-1.867.061-3.207-.506-2.861-.656l1.364.681c-.522-.378-2.194-2.247-3.492-4.701-1.356-2.448-2.649-5.383-3.782-8.459-2.258-6.2-4.059-12.986-5.634-19.867-1.537-6.906-2.877-13.954-4.051-21.057-1.211-7.051-2.188-14.374-3.069-21.272z"/><path fill="#026DD0" d="M488.593 103.824c14.536 12.682 13.743 43.548 13.743 43.548l-38.441 13.853c-8.141-12.696-12.138-36.914-11.409-47.311 1.118-15.97 18.844-25.152 36.107-10.09"/><path fill="#000" d="M452.457 114.511c6.907-3.309 16.365-2.258 25.709 5.902 8.473 7.378 11.737 20.969 12.965 31.006l-27.228 9.813c-8.004-12.474-11.983-36.037-11.446-46.721" opacity=".2"/><path fill="#FFC3BD" d="m688.474 397.411 4.633-14.88-32.335-17.548-4.634 14.88z"/><path fill="#051923" d="m692.112 381.137-11.731 12.999c-.427.474-.42 1.127.017 1.571l9.716 9.911c1.009 1.027 2.922.938 3.886-.17 4.006-4.595 5.691-6.997 10.849-12.713 3.173-3.516 14.305-15.117 18.688-19.973 4.287-4.75-.546-9.052-2.837-7.387-10.279 7.469-20.563 13.458-26.077 14.409-.995.174-1.887.66-2.511 1.353"/><path fill="#000" d="m656.148 379.871 4.636-14.886 23.581 12.808-9.83 12.065z" opacity=".2"/><path fill="#051923" d="M453.532 229.301s82.099 11.001 98.99 33.435c29.437 39.099 122.652 103.506 122.652 103.506l-8.488 27.253s-126.954-53.556-149.534-98.328c-41.478-3.184-108.968 10.46-119.599-15.276-7.08-17.138-3.598-42.739-3.598-42.739z"/><path fill="#051923" d="M453.532 229.301s82.099 11.001 98.99 33.435c29.437 39.099 122.652 103.506 122.652 103.506l-8.488 27.253s-126.954-53.556-149.534-98.328c-41.478-3.184-108.968 10.46-119.599-15.276-7.08-17.138-3.598-42.739-3.598-42.739z" opacity=".2"/><path fill="#051923" d="m664.969 397.544 18.068-29.125-11.555-9.485-17.377 31.334zM697.829 378.852c-.964 1.068-2.251 2.053-3.196 2.711a.364.364 0 0 1-.569-.343c.076-.602.793-5.898 2.623-6.809.425-.211.884-.192 1.33.061.736.417 1.127.975 1.159 1.658.042.871-.537 1.826-1.347 2.722m-2.917 1.616c2.281-1.698 3.591-3.279 3.541-4.305-.022-.424-.279-.771-.791-1.061-.237-.133-.442-.148-.647-.044-.985.492-1.746 3.298-2.103 5.41"/><path fill="#051923" d="M694.692 381.508a.366.366 0 0 1-.491.047c-.152-.116-3.714-2.858-3.784-5.042-.019-.588.203-1.087.656-1.484.545-.476 1.147-.56 1.697-.241 1.503.873 2.361 4.778 2.008 6.549a.34.34 0 0 1-.086.171m-3.262-5.813a1.08 1.08 0 0 0-.286.793c.043 1.302 1.863 3.116 2.99 4.075.057-1.773-.74-4.576-1.728-5.149-.188-.11-.454-.191-.856.16a2 2 0 0 0-.12.121"/><path fill="#FFC3BD" d="m530.513 185.628 12.416-12.005 8.633 16.794s-15.1 8.268-18.871 4.49z"/><path fill="#FFC3BD" d="m559.448 173.498 2.243 13.857-10.128 3.066-8.633-16.794z"/><path fill="#0688FF" d="M394.723 93.379c1.578-4.12 4.357-8.217 8.767-8.152.918.013 6.304.1 7.321.127 5.078.138 11.42.474 17.559 1.245 10.566 1.33 25.803 3.643 34.898 6.08 5.276 1.431 10.361 3.237 14.405 4.772l.154.059c4.739 1.852 7.655 6.627 7.179 11.694-2.105 22.35-7.376 84.393-4.329 116.518l-86.721 11.43c-5.215-16.544-7.281-54.402-7.316-85.268-.028-18.589 1.638-41.667 8.083-58.505"/><path fill="#000" d="m387.068 135.949 1.721.136 10.999 9.5 11.356 39.189 39.067 6.814c-9.486 4.796-37.09 5.777-53.421 1.452-5.484-1.452-9.306-6.429-9.545-12.096a701 701 0 0 1-.602-29.053c.002-5.055.112-10.443.425-15.942" opacity=".2"/><path fill="#007CEE" d="M527.322 148.733s-7.616-4.218-21.937-.114c-14.318 4.103-24.378-.683-24.378-.683l-5.336 10.02 48.635 1.698z"/><path fill="#fff" d="M527.322 148.733s-7.616-4.218-21.937-.114c-14.318 4.103-24.378-.683-24.378-.683l-5.336 10.02 48.635 1.698z" opacity=".8"/><path fill="#007CEE" d="M527.326 148.734s.317-3.066 9.555-3.372c18.591-.615 26.44-5.372 26.44-5.372l.759 4.801-39.771 14.864z"/><path fill="#fff" d="M527.326 148.734s.317-3.066 9.555-3.372c18.591-.615 26.44-5.372 26.44-5.372l.759 4.801-39.771 14.864z" opacity=".8"/><path fill="#007CEE" d="m511.705 220.058 34.34-9.811c.852-.243 1.57-.972 1.807-1.832l17.618-63.763c.4-1.448-.706-2.562-2.139-2.152l-32.786 9.367zM458.158 223.039l45.244-2.52 18.84-68.189-45.772 2.55c-.998.055-1.956.858-2.237 1.875l-17.709 64.096c-.338 1.224.429 2.254 1.634 2.188"/><path fill="#007CEE" d="m511.705 220.058-8.304.463 18.84-68.191 8.306-.463z"/><path fill="#000" d="m511.705 220.058-8.304.463 18.84-68.191 8.306-.463z" opacity=".3"/><path fill="#FFC3BD" d="M390.473 108.857c-.448 3.064-.74 5.628-.941 8.412a214 214 0 0 0-.492 8.185c-.19 5.459-.148 10.936.184 16.433.657 10.988 2.372 22.131 6.116 33.177.044.179.372 1.099.642 1.761.29.689.626 1.353.977 1.989.717 1.237 1.537 2.385 2.384 3.321a22.8 22.8 0 0 0 5.205 4.338c3.427 2.084 6.577 3.179 9.596 4.055 6.024 1.703 11.641 2.24 17.167 2.61 11.061.569 21.586-.171 32.302-1.813l-.535-11.685c-9.916-.978-20.106-2.242-29.553-4.158-4.708-.94-9.315-2.198-13.107-3.737-1.871-.759-3.526-1.677-4.414-2.448-.444-.379-.653-.683-.615-.732-.009-.029.108.026.184.146.059.064.105.146.158.237.057.053.138.374.036-.076-1.053-4.395-1.778-8.972-2.33-13.64-.441-4.701-.754-9.46-.839-14.282-.046-4.822.004-9.678.222-14.54.097-2.431.231-4.862.421-7.276l.304-3.605.313-3.395z"/><path fill="#026DD0" d="M390.473 90.185c10.287-7.856 24.47-7.621 30.281 13.032 3.81 13.539 1.763 40.775 1.763 40.775l-41.026-.839c-4.594-21.652-1.41-45.03 8.982-52.968"/><path fill="#FFC3BD" d="m432.386 52.113 8.632 10.126 11.75 13.803c-.726 1.786-1.368 3.612-1.84 5.397-2.035 7.32 4.558 8.807 10.619 12.502 0 0 9.02 11.955-12.593 8.5-21.614-3.454-24.808-14.785-24.808-14.785 9.621-6.668 8.921-22.907 8.24-35.543"/><path fill="#051923" d="M442.286 100.986a57 57 0 0 0 6.664 1.455c3.822.604 6.684.738 8.807.537l.49 2.503c.782.558.968 3.49-3.968 6.984-5.215-1.069-13.318-5.545-11.993-11.479"/><path fill="#0661B5" d="M427.88 83.96s4.099 10.981 18.99 14.996c-2.19 5.822 1.351 12.436 1.351 12.436s-20.821-7.141-25.159-14.267-2.465-11.289-2.465-11.289c2.093-1.053 4.49-1.72 7.283-1.875M457.285 110.89s-.151-9.08-2.821-12.122c1.398-4.099.652-6.287-1.488-9.916 3.228.868 8.289 2.555 11.209 7.314s.938 14.849-6.9 14.724"/><path fill="#000" d="M452.771 76.043c-.727 1.786-1.367 3.612-1.839 5.397-4.944-1.924-10.838-8.575-10.642-13.934.074-2.014.362-3.925.734-5.266z" opacity=".2"/><path fill="#051923" d="M481.419 27.84c4.089 8.564.575 28.89-18.764 20.808s12.128-34.708 18.764-20.808M438.977 45.627c1.767 3.7.249 12.483-8.107 8.99s5.24-14.996 8.107-8.99"/><path fill="#051923" d="M436.628 51.545c2.698 3.089 3.602 11.955-5.386 10.84-8.987-1.111 1.006-15.85 5.386-10.84"/><path fill="#FFC3BD" d="M434.511 28.447c-3.511 16.384-6.388 25.766-.664 36.56 8.613 16.237 30.292 15.098 38.566.255 7.448-13.358 11.94-37.906-1.837-49.235-13.572-11.16-32.554-3.963-36.065 12.42"/><path fill="#051923" d="M437.419 9.396c3.353-14.531 22.85-9.477 32.788-.683 10.103 8.94 12.481 15.703 20.866 20.897-15.473 2.053-37.353-4.006-41.452-9.22.465 5.31-3.594 11.377-6.667 13.24.518 4.565-.038 13.679-.038 13.679l-7.07-3.59-8.232-3.304c-12.083-20.493-4.925-33.16 9.805-31.019"/><path fill="#051923" d="M455.036 39.715a.56.56 0 0 0 .095-1.11l-22.913-3.913a.56.56 0 1 0-.191 1.101l22.914 3.914c.034.004.063.008.095.008"/><path fill="#051923" d="M458.101 53.318q.023 0 .044-.002c4.228-.03 8.89-4.546 10.391-10.063.892-3.275.539-6.274-.966-8.232-1.019-1.323-2.459-2.021-4.165-2.021h-.044c-4.228.03-8.89 4.545-10.391 10.063-.89 3.274-.537 6.274.969 8.232 1.019 1.323 2.458 2.023 4.162 2.023m5.302-19.2c1.347 0 2.48.548 3.281 1.588 1.273 1.653 1.56 4.363.774 7.255-1.379 5.067-5.562 9.21-9.321 9.24-1.364.045-2.507-.539-3.313-1.587-1.272-1.651-1.56-4.363-.775-7.255 1.378-5.068 5.561-9.211 9.32-9.24z"/><path fill="#051923" d="M471.194 46.475a.562.562 0 0 0 .478-.854c-1.336-2.176-4.19-1.565-4.306-1.537a.556.556 0 0 0-.423.666.565.565 0 0 0 .666.425c.023-.007 2.192-.461 3.109 1.031a.56.56 0 0 0 .476.269"/><path fill="#FFC3BD" d="M424.684 40.99c1.049 4.563 3.913 8.29 6.959 10.372 4.581 3.133 8.171-.763 7.983-6.207-.167-4.9-2.755-12.436-7.877-13.38-5.046-.93-8.264 3.998-7.065 9.216"/><path fill="#263238" d="M460.637 42.21c-.605 1.216-.463 2.545.317 2.968s1.904-.22 2.509-1.437c.605-1.216.463-2.546-.317-2.968-.782-.423-1.905.22-2.509 1.437M474.036 47.709c-.54 1.247-.324 2.566.479 2.946.804.38 1.89-.323 2.427-1.572s.324-2.567-.48-2.947c-.801-.379-1.889.323-2.426 1.572M480.806 40.245a.8.8 0 0 1-.537-.518c-1.123-3.45-3.958-4.33-3.985-4.338a.797.797 0 0 1 .45-1.53l.004.001c.15.045 3.668 1.138 5.046 5.374a.795.795 0 0 1-.978 1.01"/><path fill="#051923" d="M474.395 57.67h.042c3.86-.028 8.114-4.144 9.484-9.175.814-2.992.49-5.731-.888-7.52-.935-1.213-2.256-1.856-3.82-1.856q-.023 0-.042.002c-3.859.028-8.114 4.144-9.484 9.175-.814 2.99-.488 5.729.888 7.517.934 1.216 2.256 1.856 3.82 1.856m4.818-17.433c1.205 0 2.219.49 2.936 1.419 1.146 1.488 1.406 3.934.696 6.545-1.248 4.58-5.023 8.327-8.416 8.352h-.032c-1.205 0-2.222-.49-2.938-1.42-1.146-1.489-1.406-3.934-.696-6.543 1.247-4.581 5.023-8.327 8.414-8.353z"/><path fill="#ED847E" d="M469.609 45.756s.227 7.253 1.848 11.348c-2.539 1.055-5.486-1.04-5.486-1.04z"/><path fill="#263238" d="M463.217 60.927c-5.129-1.522-7.049-5.57-7.133-5.756a.399.399 0 0 1 .723-.334c.021.046 2.201 4.66 8.086 5.663.22.036.364.243.326.461a.397.397 0 0 1-.461.326 14 14 0 0 1-1.541-.36M458.7 32.327a.797.797 0 0 1 .002-1.372c3.759-2.207 7.053-.522 7.19-.448.387.156.541.685.334 1.076a.8.8 0 0 1-1.076.336c-.137-.07-2.689-1.323-5.64.412a.8.8 0 0 1-.81-.004"/><path fill="#FFC3BD" d="m458.875 180.354 13.244-5.604-.45 16.836s-13.128 5.317-15.308-1.681zM488.611 178.519l-2.917 12.037-14.024 1.03.45-16.836z"/></g><defs><clipPath id="a"><path fill="#fff" d="M726 0H0v604h726z"/></clipPath></defs></svg>