<svg xmlns="http://www.w3.org/2000/svg" width="242" height="256" fill="none"><path fill="#007CEE" fill-opacity=".6" d="M196.009 43.5c0 4.694-5.278 6.053-9.973 6.053-4.694 0-4-5.306-4-10 0-4.695 3.779-10.554 8.473-10.554s5.5 9.806 5.5 14.5M98.283 64.24c0-11.599 14.714-16.684 21.582-7.458l13.361 17.948c4.086 5.489 11.964 6.341 17.25 1.866l21.667-18.346c7.895-6.685 19.117 2.01 15.06 11.532-3.127 7.34 3.374 15.124 11.032 13.06l13.266-3.573c6.092-1.64 10.219 5.953 5.599 10.301-4.238 3.989-1.13 11.046 4.617 10.48l6.405-.631c9.918-.978 12.578 13.241 3.032 16.202l-1.243.385c-7.485 2.322-8.17 12.723-1.041 15.817l6.427 2.79c11.178 4.852 6.475 21.825-5.663 20.441l-6.828-.779c-7.031-.802-11.562 7.437-7.103 12.914 4.942 6.072-1.138 14.984-8.593 12.594l-37.642-12.065c-7.232-2.319-14.839 2.691-15.671 10.32l-2.807 25.768c-1.184 10.874-14.986 14.844-21.485 6.18l-13.825-18.432c-3.892-5.189-11.236-6.244-16.535-2.374L80.19 203.022c-8.446 6.168-19.358-2.881-15.254-12.515 3.487-8.183-4.31-16.627-12.593-13.495l-19.558 7.395c-8.214 3.105-13.938-8.056-6.721-13.106 6.323-4.423 2.784-14.329-4.84-13.549l-3.04.31c-10.106 1.033-12.557-13.629-2.713-16.232l11.009-2.911c6.24-1.65 6.967-10.283 1.079-12.801-6.556-2.803-4.7-12.645 2.454-13.016l15.587-.808c7.943-.411 12.581-9.31 8.348-16.016l-2.715-4.303c-6.728-10.66 5.556-23.364 16.349-16.91l12.514 7.484c7.974 4.77 18.187-1.142 18.187-10.528z"/><path fill="#fff" d="M78.775 134.516q-.609.12-1.008-.148-.383-.293-.503-.9l-2.268-11.56q-.123-.629.126-1.023.267-.399.876-.519.609-.118.988.153.399.268.522.896l.909 4.632 7.124-1.398-.909-4.632q-.123-.629.126-1.023.269-.399.876-.519.609-.119.988.153.399.269.523.896l2.268 11.56q.119.608-.145 1.027-.25.395-.857.515-.609.119-1.008-.149-.383-.292-.502-.9l-.948-4.828-7.124 1.398.948 4.828q.118.607-.126 1.023-.248.395-.876.518m14.983-2.94q-.255.05-.467.01a.9.9 0 0 1-.38-.17 1.4 1.4 0 0 1-.297-.369 2.3 2.3 0 0 1-.166-.538l-2.292-11.678q-.111-.569.121-.941.253-.375.822-.487t.925.145.468.825l1.821 9.283-.451.089 5.544-11.218q.217-.45.461-.661.24-.23.691-.319a1 1 0 0 1 .557.033.86.86 0 0 1 .434.343q.188.228.257.582l2.311 11.775q.115.59-.117.961-.234.371-.802.483-.57.113-.945-.141-.356-.255-.472-.845l-1.821-9.283.432-.084-5.525 11.213q-.237.454-.457.681-.2.223-.652.311m14.877-2.919q-.609.12-1.008-.149-.383-.291-.502-.9l-2.272-11.579q-.124-.628.129-1.003.269-.4.876-.519.609-.12.988.153.396.248.519.876l.932 4.75 2.237-.439-.425.43 2.49-6.42q.195-.466.521-.673.345-.21.714-.201.37.009.674.214a.95.95 0 0 1 .398.574q.113.365-.078.851l-2.307 5.691-1.124-.534q1.314-.054 2.34.499 1.026.554 1.908 1.725l2.256 2.981q.351.44.33.853-.001.408-.269.705a1.4 1.4 0 0 1-.637.39 1.4 1.4 0 0 1-.772.009q-.393-.128-.697-.536l-2.205-3.033q-.671-.927-1.423-1.229-.733-.304-1.714-.112l-1.805.355.928 4.729q.12.609-.126 1.024-.248.395-.876.518m11.837-2.323q-.471.093-.807-.065a.9.9 0 0 1-.446-.504q-.132-.362-.024-.851l2.928-12.498q.144-.62.451-.924a1.5 1.5 0 0 1 .794-.421q.451-.088.854.098.42.162.786.681l7.454 10.461q.304.409.319.793a.92.92 0 0 1-.218.654q-.237.25-.688.339-.55.108-.914-.086-.348-.216-.691-.72l-1.858-2.713 1.195.479-8.282 1.625.925-.895-.675 3.21q-.143.62-.368.928-.225.31-.735.409m3.422-12.37-1.465 7.075-.633-.528 6.555-1.287-.368.725-4.049-5.993zm12.301 9.285q-.608.12-1.007-.149-.384-.291-.503-.9l-2.272-11.579q-.123-.627.129-1.003.268-.399.877-.519.608-.12.988.153.395.248.518.876l.932 4.75 2.237-.439-.425.43 2.491-6.42q.193-.466.52-.673.346-.21.714-.201.37.009.674.214a.94.94 0 0 1 .398.574q.112.366-.077.851l-2.308 5.691-1.123-.534q1.314-.054 2.339.499 1.026.553 1.908 1.725l2.256 2.981q.352.44.331.853a1.02 1.02 0 0 1-.27.705q-.252.273-.636.39a1.4 1.4 0 0 1-.773.009q-.392-.128-.696-.536l-2.205-3.033q-.672-.927-1.424-1.228-.732-.305-1.713-.113l-1.806.355.928 4.73q.12.607-.125 1.023-.249.395-.877.518m17.948-3.481q-2.001.393-3.686-.194-1.665-.59-2.801-2.018-1.14-1.448-1.564-3.606-.32-1.63-.103-3.017.213-1.407.896-2.499a5.9 5.9 0 0 1 1.819-1.845q1.136-.753 2.647-1.049 2.022-.397 3.686.193 1.661.571 2.798 1.999 1.136 1.428 1.559 3.587.32 1.629.107 3.036a6.55 6.55 0 0 1-.911 2.523 5.9 5.9 0 0 1-1.815 1.864q-1.12.73-2.632 1.026m-.424-2.159q1.276-.25 2.044-1.012.787-.767 1.039-1.977.27-1.215-.034-2.765-.462-2.355-1.776-3.443-1.294-1.09-3.217-.714-1.257.247-2.044 1.013-.79.746-1.062 1.961-.255 1.191.053 2.762.457 2.335 1.776 3.442 1.317 1.107 3.221.733m10.684.105q-.255.05-.467.01a.9.9 0 0 1-.38-.17 1.4 1.4 0 0 1-.297-.369 2.3 2.3 0 0 1-.166-.538l-2.292-11.678q-.111-.569.121-.941.253-.375.822-.487t.925.145q.355.256.468.825l1.821 9.283-.451.089 5.544-11.218q.217-.45.461-.661.24-.23.692-.319a1 1 0 0 1 .556.033.86.86 0 0 1 .434.343q.188.228.257.582l2.311 11.775q.116.59-.117.961-.234.371-.802.483-.57.113-.945-.141-.356-.255-.472-.845l-1.821-9.283.432-.084-5.525 11.213q-.237.455-.457.681-.2.223-.652.311m1.792-16.004q-1.355.265-2.408-.119a3.5 3.5 0 0 1-1.706-1.316q-.23-.342-.158-.601a.67.67 0 0 1 .343-.434q.294-.159.533-.084t.501.37a2.5 2.5 0 0 0 1.131.777q.65.198 1.514.029.863-.169 1.39-.599.523-.448.754-1.146.13-.372.323-.533.193-.159.526-.123.314.04.458.256.165.213.061.62a4 4 0 0 1-1.137 1.895q-.81.75-2.125 1.008m-82.892 59.433q-.609.119-1.008-.149-.383-.291-.503-.9l-2.241-11.422q-.123-.629.149-1.008.268-.4.877-.518l4.729-.928q2.277-.447 3.737.449t1.86 2.936q.4 2.041-.609 3.442-1.013 1.381-3.289 1.828l-3.494.685.794 4.043q.118.609-.126 1.023-.248.396-.876.519m-.181-7.567 3.101-.609q1.335-.261 1.906-.985.568-.743.34-1.901t-1.029-1.612q-.803-.454-2.137-.192l-3.101.608zm13.031 4.882q-.648.127-1.066-.137-.404-.288-.53-.935l-2.192-11.168q-.126-.647.142-1.046.283-.423.931-.55l7.007-1.375q.49-.096.795.109.325.201.418.672.096.49-.125.82-.206.305-.696.401l-5.927 1.163.747 3.807 5.496-1.078q.51-.1.815.105t.402.696q.096.49-.109.796-.205.304-.716.405l-5.495 1.078.79 4.024 5.927-1.163q.49-.097.796.108.324.202.421.692t-.129.8q-.205.305-.696.401zm11.663-2.125q-.609.119-1.008-.149-.383-.291-.503-.9l-2.272-11.579q-.123-.628.13-1.004.268-.4.876-.518.609-.12.988.152.395.249.518.877l.932 4.749 2.238-.439-.425.43 2.49-6.419q.194-.466.52-.673a1.3 1.3 0 0 1 .715-.202q.368.01.674.215a.94.94 0 0 1 .398.574q.112.365-.078.851l-2.307 5.69-1.124-.533q1.314-.054 2.34.499 1.025.552 1.908 1.725l2.256 2.981q.351.441.33.852a1.03 1.03 0 0 1-.269.705q-.252.275-.637.39a1.4 1.4 0 0 1-.773.009q-.391-.126-.696-.536l-2.205-3.032q-.672-.928-1.423-1.229-.733-.304-1.714-.112l-1.806.354.929 4.73q.118.609-.126 1.023-.248.396-.876.519m22.467-4.409q-.608.12-1.007-.149-.383-.291-.503-.9l-2.079-10.598-4.946.971.539 2.747q.35 1.786.388 3.226t-.201 2.608a7.1 7.1 0 0 1-.73 2.099 7.3 7.3 0 0 1-1.218 1.687q-.37.398-.841.389-.467.01-.885-.357-.402-.39-.389-.84.033-.455.423-.858.543-.555.891-1.275.347-.721.485-1.685.136-.965.051-2.232a24.5 24.5 0 0 0-.417-2.955l-.562-2.865q-.127-.648.141-1.047.284-.423.932-.55l7.104-1.394q.648-.126 1.051.161.418.264.546.912l2.229 11.363q.12.608-.145 1.028-.248.395-.857.514m4.415-.866q-.47.093-.808-.066a.9.9 0 0 1-.445-.503q-.132-.362-.024-.852l2.928-12.497q.144-.62.451-.924a1.5 1.5 0 0 1 .793-.421q.452-.089.855.097.42.162.786.681l7.454 10.461q.304.41.319.793a.92.92 0 0 1-.219.655q-.236.25-.687.338-.55.108-.914-.085-.349-.217-.691-.721l-1.858-2.713 1.195.479-8.282 1.625.925-.894-.675 3.209q-.143.62-.368.929t-.735.409m3.422-12.371-1.465 7.075-.633-.528 6.555-1.286-.368.724-4.049-5.992zm12.223 9.301q-.55.108-.906-.148-.356-.257-.464-.806l-2.314-11.795q-.112-.57.144-.925.253-.376.802-.484.49-.096.804.046.33.12.653.524l6.608 8.018-.628.123 3.088-9.92q.146-.498.387-.728.236-.25.726-.346.55-.108.906.148.352.236.464.806l2.314 11.795q.108.549-.125.921-.213.368-.782.48-.549.108-.906-.149-.355-.255-.463-.805l-1.783-9.087.431-.085-2.646 8.326a1.6 1.6 0 0 1-.316.571q-.185.2-.558.273t-.639-.038a1.6 1.6 0 0 1-.509-.41l-5.639-6.72.471-.092 1.787 9.106q.108.55-.125.922-.213.368-.782.479m17.164-3.531q-.648.127-1.066-.137-.403-.288-.53-.936l-2.23-11.363q-.123-.629.125-1.023.268-.399.877-.519.609-.119.988.153.399.268.522.896l.909 4.632 3.16-.62q1.472-.289 2.624-.026 1.149.243 1.875 1.038.742.772 1 2.087.385 1.962-.666 3.249-1.033 1.283-3.25 1.718zm.785-2.233 2.846-.558q1.334-.262 1.866-.876.528-.633.324-1.674t-.929-1.407q-.724-.367-2.058-.106l-2.846.559zm11.316.022q-.609.119-1.008-.149-.383-.292-.502-.9l-2.269-11.56q-.123-.627.126-1.023.268-.4.876-.518.609-.12.988.152.399.269.523.896l2.268 11.56q.12.609-.126 1.023-.247.396-.876.519"/><path fill="#007CEE" fill-opacity=".6" d="M21.075 214.999c-2.316 4.083-13.942 11.315-18.026 9-4.084-2.316-.864-13.416 1.451-17.5 2-5 15.416-12.316 19.5-10 4.084 2.315-.61 14.416-2.925 18.5M135.5 20c0 4.694-11.306 20-16 20S112 27.693 112 23s12.306-22 17-22 6.5 14.305 6.5 19M58.009 245.499c0 4.695-3.01 6.5-11.01 9.5-4.694 0-2.963-8.752-2.963-13.446 0-4.695 6.269-11.054 10.964-11.054 4.694 0 3.009 10.306 3.009 15M156.391 59.689c.06.539.043 1.086-.101 1.61-1.247 4.536-2.899 6.618-6.402 8.528-1.305.712-2.932.527-4.023-.484-2.265-2.097-3.087-3.926-3.695-7.678-.752-4.634 5.195-15.913 9.829-16.664 4.383-.71 3.829 9.643 4.392 14.688"/></svg>