<svg width="682" height="669" viewBox="0 0 682 669" fill="none" xmlns="http://www.w3.org/2000/svg">
<g clip-path="url(#clip0_2001_372)">
<mask id="mask0_2001_372" style="mask-type:luminance" maskUnits="userSpaceOnUse" x="0" y="0" width="682" height="669">
<path d="M0 0H682V669H0V0Z" fill="white"/>
</mask>
<g mask="url(#mask0_2001_372)">
<path d="M671.036 657.937C671.036 663.587 521.035 668.166 336 668.166C150.966 668.166 0.964966 663.587 0.964966 657.937C0.964966 652.287 150.965 647.709 336 647.709C521.035 647.709 671.036 652.288 671.036 657.937Z" fill="#F5F5F5"/>
<path opacity="0.2" d="M534.723 570.926H475.305V568.069H534.664L534.723 570.926Z" fill="black"/>
<path d="M537.901 568.488H475.174V596.776H537.901V568.488Z" fill="#007CEE"/>
<path opacity="0.8" d="M537.901 568.488H475.174V596.776H537.901V568.488Z" fill="white"/>
<path opacity="0.2" d="M532.879 573.666L480.826 574.815L532.879 575.978V573.666ZM532.879 584.125L477.756 585.096L532.879 585.916V584.125ZM532.88 590.244L478.244 591.393L532.88 592.541V590.244ZM475.189 577.695L528.032 579.366L475.189 580.5V577.695Z" fill="black"/>
<path d="M615.163 582.484C615.155 589.56 609.642 595.293 602.838 595.301H472.276C471.777 595.301 471.371 595.721 471.371 596.242V597.256C471.371 597.775 471.775 598.197 472.276 598.197H603.499C611.859 598.188 618.63 591.134 618.622 582.44V582.35C618.442 573.617 611.556 566.648 603.156 566.699H472.292C471.793 566.699 471.389 567.12 471.389 567.64V568.654C471.389 569.176 471.791 569.602 472.292 569.608H602.468C609.363 569.59 615.006 575.313 615.163 582.484Z" fill="#263238"/>
<path opacity="0.4" d="M615.163 582.484C615.155 589.56 609.642 595.293 602.838 595.301H472.276C471.777 595.301 471.371 595.721 471.371 596.242V597.256C471.371 597.775 471.775 598.197 472.276 598.197H603.499C611.859 598.188 618.63 591.134 618.622 582.44V582.35C618.442 573.617 611.556 566.648 603.156 566.699H472.292C471.793 566.699 471.389 567.12 471.389 567.64V568.654C471.389 569.176 471.791 569.602 472.292 569.608H602.468C609.363 569.59 615.006 575.313 615.163 582.484Z" fill="white"/>
<path d="M662.769 582.65C662.777 590.469 656.687 596.816 649.167 596.825H532.852V568.475H649.066C656.586 568.425 662.721 574.725 662.768 582.545L662.769 582.65Z" fill="#007CEE"/>
<path opacity="0.7" d="M532.852 568.49V596.838H649.138C656.666 596.838 662.769 590.491 662.769 582.663C662.769 574.835 656.666 568.488 649.138 568.488H532.852V568.49Z" fill="white"/>
<path opacity="0.2" d="M532.879 575.978V573.666L648.779 574.635L532.879 575.978ZM532.879 585.916V584.125L584.903 586.065L532.879 585.916ZM532.879 592.541V590.244L616.77 591.587L532.879 592.541Z" fill="black"/>
<path opacity="0.2" d="M649.338 571.25C651.576 571.257 653.732 572.124 655.394 573.682C654.669 575.151 654.096 576.691 653.685 578.277L537.471 579.218L653.47 579.517C653.292 580.502 653.201 581.5 653.198 582.501C653.203 583.675 653.332 584.846 653.584 585.992L575.275 587.782L654.316 588.723C654.991 590.684 655.871 592.569 656.941 594.347C663.13 589.89 664.673 581.06 660.387 574.624C657.846 570.81 653.671 568.529 649.209 568.519H532.85V571.28L649.338 571.25Z" fill="black"/>
<path d="M661.693 582.484C661.685 589.56 656.172 595.293 649.368 595.301H530.914C530.415 595.301 530.009 595.721 530.009 596.242V597.256C530.009 597.775 530.413 598.197 530.912 598.197H649.996C658.356 598.188 665.127 591.134 665.119 582.44V582.35C664.939 573.617 658.053 566.648 649.651 566.699H530.911C530.412 566.699 530.006 567.12 530.006 567.64V568.654C530.006 569.176 530.409 569.602 530.911 569.608H649.063C655.936 569.63 661.537 575.343 661.693 582.484Z" fill="#263238"/>
<path d="M648.781 578.888V590.243L644.821 586.139L640.99 590.123V578.888H648.781ZM639.824 631.619H493.781V656.064H639.824V631.619Z" fill="#007CEE"/>
<path opacity="0.7" d="M639.824 631.619H493.781V656.064H639.824V631.619Z" fill="white"/>
<path opacity="0.2" d="M493.781 638.093V636.098L593.775 636.935L493.781 638.093ZM493.781 646.652V645.121L538.677 646.794L493.781 646.652ZM493.781 652.384V650.4L566.159 651.546L493.781 652.384Z" fill="black"/>
<path opacity="0.2" d="M607.182 631.58L609.249 649.847L606.774 647.028C605.942 650.339 604.372 653.419 602.182 656.039C600.605 653.896 599.354 651.532 598.469 649.023L530.263 648.212L597.825 646.667C597.615 645.676 597.503 644.667 597.492 643.655C597.497 642.791 597.58 641.929 597.739 641.081L497.659 640.824L597.925 640C598.275 638.631 598.769 637.305 599.397 636.049C597.983 634.708 596.111 633.957 594.162 633.95H493.785V631.582H607.182V631.58Z" fill="black"/>
<path d="M604.927 643.707C604.921 649.813 600.154 654.759 594.281 654.751H492.097C491.659 654.751 491.305 655.12 491.305 655.575V656.451C491.311 656.901 491.664 657.261 492.097 657.261H651.074C658.288 657.255 664.128 651.168 664.121 643.668V643.59C663.953 636.052 657.991 630.052 650.741 630.126H492.097C491.664 630.126 491.311 630.488 491.305 630.936V631.812C491.311 632.262 491.664 632.623 492.097 632.623H593.972C599.912 632.614 604.773 637.533 604.927 643.707Z" fill="#007CEE"/>
<path opacity="0.2" d="M604.927 643.707C604.921 649.813 600.154 654.759 594.281 654.751H492.097C491.659 654.751 491.305 655.12 491.305 655.575V656.451C491.311 656.901 491.664 657.261 492.097 657.261H651.074C658.288 657.255 664.128 651.168 664.121 643.668V643.59C663.953 636.052 657.991 630.052 650.741 630.126H492.097C491.664 630.126 491.311 630.488 491.305 630.936V631.812C491.311 632.262 491.664 632.623 492.097 632.623H593.972C599.912 632.614 604.773 637.533 604.927 643.707Z" fill="black"/>
<path d="M604.927 643.707C604.921 649.813 600.154 654.759 594.281 654.751H492.097C491.659 654.751 491.305 655.12 491.305 655.575V656.451C491.311 656.901 491.664 657.261 492.097 657.261H594.84C602.038 657.261 607.874 651.193 607.875 643.707V643.59C607.707 636.052 601.745 630.052 594.495 630.126H492.1C491.667 630.126 491.314 630.488 491.308 630.936V631.812C491.314 632.262 491.667 632.623 492.1 632.623H593.975C599.912 632.614 604.773 637.533 604.927 643.707Z" fill="#007CEE"/>
<path opacity="0.2" d="M604.927 643.707C604.921 649.813 600.154 654.759 594.281 654.751H492.097C491.659 654.751 491.305 655.12 491.305 655.575V656.451C491.311 656.901 491.664 657.261 492.097 657.261H594.84C602.038 657.261 607.874 651.193 607.875 643.707V643.59C607.707 636.052 601.745 630.052 594.495 630.126H492.1C491.667 630.126 491.314 630.488 491.308 630.936V631.812C491.314 632.262 491.667 632.623 492.1 632.623H593.975C599.912 632.614 604.773 637.533 604.927 643.707Z" fill="white"/>
<path d="M662.165 600.223H487.779V629.412H662.165V600.223Z" fill="#007CEE"/>
<path opacity="0.8" d="M662.165 600.223H487.779V629.412H662.165V600.223Z" fill="white"/>
<path opacity="0.2" d="M487.764 607.941V605.559L607.164 606.558L487.764 607.941ZM487.764 618.162V616.334L541.374 618.332L487.764 618.162ZM487.764 625.002V622.635L574.187 624.003L487.764 625.002Z" fill="black"/>
<path opacity="0.2" d="M623.17 600.224L625.698 621.973L622.742 618.669C621.748 622.623 619.873 626.301 617.258 629.429C615.372 626.872 613.878 624.049 612.824 621.052L531.381 620.083L612.056 618.254C611.809 617.065 611.68 615.855 611.671 614.641C611.673 613.61 611.767 612.581 611.952 611.566L492.449 611.259L612.175 610.29C612.592 608.654 613.181 607.067 613.934 605.556C612.248 603.961 610.017 603.07 607.696 603.066H487.764V600.207L623.17 600.224Z" fill="black"/>
<path d="M620.437 614.642C620.429 621.934 614.738 627.838 607.726 627.829H485.754C485.238 627.838 484.824 628.276 484.824 628.813V629.859C484.824 630.395 485.241 630.828 485.754 630.828H666.081C674.693 630.82 681.668 623.552 681.66 614.597V614.505C681.404 605.504 674.251 598.382 665.593 598.503H485.753C485.238 598.503 484.822 598.937 484.822 599.473V600.518C484.822 601.056 485.236 601.494 485.753 601.503H607.4C614.441 601.513 620.206 607.324 620.437 614.642Z" fill="#007CEE"/>
<path d="M620.438 614.642C620.43 621.935 614.739 627.838 607.726 627.83H485.755C485.238 627.838 484.824 628.277 484.824 628.814V629.86C484.824 630.395 485.241 630.829 485.755 630.829H608.436C617.048 630.821 624.024 623.553 624.016 614.597V614.506C623.76 605.56 616.689 598.459 608.082 598.504H485.755C485.24 598.504 484.824 598.938 484.824 599.473V600.519C484.824 601.056 485.238 601.495 485.755 601.503H607.402C614.442 601.513 620.207 607.325 620.438 614.642Z" fill="#007CEE"/>
<path opacity="0.6" d="M620.438 614.642C620.43 621.935 614.739 627.838 607.726 627.83H485.755C485.238 627.838 484.824 628.277 484.824 628.814V629.86C484.824 630.395 485.241 630.829 485.755 630.829H608.436C617.048 630.821 624.024 623.553 624.016 614.597V614.506C623.76 605.56 616.689 598.459 608.082 598.504H485.755C485.24 598.504 484.824 598.938 484.824 599.473V600.519C484.824 601.056 485.238 601.495 485.755 601.503H607.402C614.442 601.513 620.207 607.325 620.438 614.642Z" fill="white"/>
<path d="M621.477 546.055H500.543V566.296H621.477V546.055Z" fill="#007CEE"/>
<path opacity="0.7" d="M621.477 546.055H500.543V566.296H621.477V546.055Z" fill="white"/>
<path opacity="0.2" d="M500.533 551.407V549.756L583.337 550.448L500.533 551.407ZM500.533 558.506V557.227L537.712 558.613L500.533 558.506ZM500.533 563.239V561.609L560.468 562.557L500.533 563.239Z" fill="black"/>
<path opacity="0.2" d="M594.438 546.057L596.191 561.151L594.141 558.849C593.452 561.591 592.152 564.141 590.338 566.31C589.03 564.537 587.994 562.578 587.263 560.5L530.783 559.828L586.729 558.549C586.557 557.725 586.468 556.885 586.463 556.043C586.463 555.328 586.528 554.614 586.657 553.912L503.783 553.688L586.811 553.016C587.102 551.882 587.51 550.782 588.03 549.733C586.86 548.629 585.313 548.012 583.704 548.007H500.533V546.023L594.438 546.057Z" fill="black"/>
<path d="M592.57 556.054C592.565 561.113 588.619 565.211 583.754 565.211H499.139C499.052 565.212 498.967 565.231 498.887 565.266C498.808 565.301 498.736 565.351 498.676 565.413C498.616 565.476 498.569 565.55 498.537 565.63C498.506 565.711 498.49 565.797 498.492 565.884V566.609C498.489 566.784 498.555 566.953 498.677 567.079C498.798 567.205 498.964 567.277 499.139 567.281H630.784C636.744 567.288 641.582 562.267 641.588 556.069V555.962C641.449 549.72 636.512 544.753 630.508 544.813H499.14C498.964 544.819 498.798 544.894 498.678 545.022C498.557 545.149 498.491 545.319 498.494 545.495V546.219C498.494 546.589 498.783 546.891 499.14 546.891H583.501C588.412 546.88 592.437 550.946 592.57 556.054Z" fill="#263238"/>
<path opacity="0.2" d="M592.57 556.054C592.565 561.113 588.619 565.211 583.754 565.211H499.139C499.052 565.212 498.967 565.231 498.887 565.266C498.808 565.301 498.736 565.351 498.676 565.413C498.616 565.476 498.569 565.55 498.537 565.63C498.506 565.711 498.49 565.797 498.492 565.884V566.609C498.489 566.784 498.555 566.953 498.677 567.079C498.798 567.205 498.964 567.277 499.139 567.281H630.784C636.744 567.288 641.582 562.267 641.588 556.069V555.962C641.449 549.72 636.512 544.753 630.508 544.813H499.14C498.964 544.819 498.798 544.894 498.678 545.022C498.557 545.149 498.491 545.319 498.494 545.495V546.219C498.494 546.589 498.783 546.891 499.14 546.891H583.501C588.412 546.88 592.437 550.946 592.57 556.054Z" fill="white"/>
<path d="M592.57 556.054C592.565 561.113 588.619 565.211 583.754 565.211H499.139C498.964 565.214 498.798 565.287 498.677 565.413C498.555 565.539 498.489 565.708 498.492 565.883V566.609C498.492 566.979 498.781 567.281 499.139 567.281H584.216C590.177 567.288 595.014 562.267 595.021 556.069V555.962C594.87 549.725 589.939 544.763 583.94 544.813H499.14C498.964 544.819 498.798 544.894 498.678 545.022C498.557 545.149 498.491 545.319 498.494 545.495V546.219C498.494 546.589 498.783 546.891 499.14 546.891H583.501C588.412 546.88 592.437 550.946 592.57 556.054Z" fill="#263238"/>
<path opacity="0.4" d="M592.57 556.054C592.565 561.113 588.619 565.211 583.754 565.211H499.139C498.964 565.214 498.798 565.287 498.677 565.413C498.555 565.539 498.489 565.708 498.492 565.883V566.609C498.492 566.979 498.781 567.281 499.139 567.281H584.216C590.177 567.288 595.014 562.267 595.021 556.069V555.962C594.87 549.725 589.939 544.763 583.94 544.813H499.14C498.964 544.819 498.798 544.894 498.678 545.022C498.557 545.149 498.491 545.319 498.494 545.495V546.219C498.494 546.589 498.783 546.891 499.14 546.891H583.501C588.412 546.88 592.437 550.946 592.57 556.054Z" fill="white"/>
<path opacity="0.2" d="M123.19 628.097H63.772V625.238H123.131L123.19 628.097ZM123.205 632.954V630.572L242.605 631.571L123.205 632.954Z" fill="black"/>
<path d="M118.511 625.939H57.043V653.661H118.511V625.939Z" fill="#007CEE"/>
<path opacity="0.8" d="M118.511 625.939H57.043V653.661H118.511V625.939Z" fill="white"/>
<path opacity="0.2" d="M113.591 631.012L62.584 632.138L113.591 633.279V631.012ZM113.591 641.264L59.574 642.214L113.591 643.018V641.264ZM113.591 647.258L60.053 648.384L113.591 649.51V647.258ZM57.057 634.961L108.839 636.599L57.057 637.71V634.961Z" fill="black"/>
<path d="M194.222 639.655C194.214 646.587 188.811 652.207 182.145 652.214H54.204C53.714 652.214 53.318 652.626 53.318 653.134V654.128C53.318 654.637 53.715 655.049 54.204 655.049H182.793C190.985 655.041 197.621 648.129 197.613 639.61V639.521C197.436 630.963 190.688 624.134 182.456 624.184H54.218C53.729 624.184 53.333 624.596 53.333 625.105V626.099C53.333 626.609 53.727 627.026 54.218 627.035H181.781C188.539 627.02 194.069 632.627 194.222 639.655Z" fill="#263238"/>
<path opacity="0.4" d="M194.222 639.655C194.214 646.587 188.811 652.207 182.145 652.214H54.204C53.714 652.214 53.318 652.626 53.318 653.134V654.128C53.318 654.637 53.715 655.049 54.204 655.049H182.793C190.985 655.041 197.621 648.129 197.613 639.61V639.521C197.436 630.963 190.688 624.134 182.456 624.184H54.218C53.729 624.184 53.333 624.596 53.333 625.105V626.099C53.333 626.609 53.727 627.026 54.218 627.035H181.781C188.539 627.02 194.069 632.627 194.222 639.655Z" fill="white"/>
<path d="M240.872 639.814C240.88 647.477 234.913 653.695 227.544 653.704H113.562V625.924H227.445C234.814 625.876 240.825 632.049 240.872 639.712V639.814Z" fill="#007CEE"/>
<path opacity="0.7" d="M113.562 625.941V653.721H227.515C234.892 653.721 240.872 647.502 240.872 639.831C240.872 632.16 234.892 625.941 227.515 625.941H113.562Z" fill="white"/>
<path opacity="0.2" d="M113.59 643.018V641.264L164.57 643.164L113.59 643.018ZM113.59 649.51V647.258L195.796 648.574L113.59 649.51Z" fill="black"/>
<path opacity="0.2" d="M227.711 628.644C229.904 628.651 232.016 629.5 233.644 631.028C232.935 632.468 232.374 633.977 231.971 635.532L118.089 636.452L231.761 636.744C231.588 637.709 231.498 638.687 231.493 639.668C231.497 640.819 231.624 641.965 231.874 643.089L155.137 644.844L232.591 645.765C233.253 647.688 234.115 649.535 235.163 651.278C241.228 646.911 242.739 638.257 238.54 631.95C236.05 628.212 231.959 625.977 227.586 625.969H113.562V628.674L227.711 628.644Z" fill="black"/>
<path d="M239.816 639.655C239.808 646.587 234.406 652.207 227.74 652.214H111.665C111.175 652.214 110.779 652.626 110.779 653.134V654.128C110.779 654.637 111.175 655.049 111.665 655.049H228.359C236.551 655.041 243.186 648.129 243.178 639.61V639.521C243.002 630.963 236.254 624.134 228.022 624.184H111.665C111.175 624.184 110.779 624.596 110.779 625.105V626.099C110.779 626.609 111.174 627.026 111.665 627.035H227.445C234.177 627.06 239.664 632.656 239.816 639.655Z" fill="#263238"/>
<path d="M227.164 636.131V647.258L223.283 643.237L219.529 647.142V636.131H227.164ZM211.954 580.191H108.26V597.549H211.954V580.191Z" fill="#007CEE"/>
<path opacity="0.8" d="M211.954 580.191H108.26V597.549H211.954V580.191Z" fill="white"/>
<path opacity="0.2" d="M211.962 584.779V583.361L140.963 583.957L211.962 584.779ZM211.964 590.858V589.769L180.086 590.959L211.964 590.858ZM211.963 594.925V593.518L160.572 594.332L211.963 594.925Z" fill="black"/>
<path opacity="0.2" d="M131.446 580.191L129.943 593.124L131.701 591.159C132.292 593.51 133.407 595.697 134.962 597.557C136.084 596.037 136.972 594.359 137.599 592.577L186.027 592.001L138.056 590.914C138.203 590.207 138.28 589.487 138.286 588.765C138.284 588.152 138.228 587.54 138.119 586.937L209.179 586.753L137.987 586.178C137.741 585.204 137.39 584.26 136.942 583.362C137.943 582.413 139.27 581.883 140.65 581.881H211.966V580.181L131.446 580.191Z" fill="black"/>
<path d="M133.072 588.765C133.077 593.1 136.461 596.612 140.63 596.607H213.158C213.309 596.612 213.451 596.677 213.554 596.786C213.658 596.896 213.714 597.041 213.711 597.192V597.814C213.713 597.888 213.7 597.962 213.673 598.031C213.646 598.1 213.605 598.163 213.554 598.217C213.503 598.27 213.441 598.313 213.373 598.343C213.305 598.372 213.232 598.388 213.158 598.39H105.931C100.809 598.385 96.663 594.063 96.666 588.738V588.683C96.818 583.332 101.072 579.097 106.219 579.169H213.157C213.463 579.169 213.71 579.427 213.71 579.744V580.367C213.71 580.687 213.463 580.947 213.157 580.952H140.823C136.638 580.957 133.208 584.413 133.072 588.765Z" fill="#007CEE"/>
<path opacity="0.4" d="M133.072 588.765C133.077 593.1 136.461 596.612 140.63 596.607H213.158C213.309 596.612 213.451 596.677 213.554 596.786C213.658 596.896 213.714 597.041 213.711 597.192V597.814C213.713 597.888 213.7 597.962 213.673 598.031C213.646 598.1 213.605 598.163 213.554 598.217C213.503 598.27 213.441 598.313 213.373 598.343C213.305 598.372 213.232 598.388 213.158 598.39H105.931C100.809 598.385 96.663 594.063 96.666 588.738V588.683C96.818 583.332 101.072 579.097 106.219 579.169H213.157C213.463 579.169 213.71 579.427 213.71 579.744V580.367C213.71 580.687 213.463 580.947 213.157 580.952H140.823C136.638 580.957 133.208 584.413 133.072 588.765Z" fill="white"/>
<path d="M133.072 588.764C133.077 593.1 136.461 596.611 140.63 596.606H213.158C213.309 596.611 213.451 596.676 213.555 596.785C213.658 596.894 213.715 597.04 213.712 597.191V597.813C213.714 597.887 213.7 597.961 213.673 598.03C213.646 598.099 213.606 598.162 213.555 598.216C213.503 598.269 213.442 598.312 213.373 598.342C213.305 598.372 213.232 598.388 213.158 598.389H140.208C135.087 598.384 130.941 594.062 130.945 588.738V588.683C131.098 583.363 135.302 579.141 140.42 579.168H213.158C213.465 579.168 213.712 579.427 213.712 579.744V580.366C213.712 580.686 213.465 580.946 213.158 580.951H140.824C136.638 580.956 133.209 584.412 133.072 588.764Z" fill="#007CEE"/>
<path opacity="0.6" d="M133.072 588.764C133.077 593.1 136.461 596.611 140.63 596.606H213.158C213.309 596.611 213.451 596.676 213.555 596.785C213.658 596.894 213.715 597.04 213.712 597.191V597.813C213.714 597.887 213.7 597.961 213.673 598.03C213.646 598.099 213.606 598.162 213.555 598.216C213.503 598.269 213.442 598.312 213.373 598.342C213.305 598.372 213.232 598.388 213.158 598.389H140.208C135.087 598.384 130.941 594.062 130.945 588.738V588.683C131.098 583.363 135.302 579.141 140.42 579.168H213.158C213.465 579.168 213.712 579.427 213.712 579.744V580.366C213.712 580.686 213.465 580.946 213.158 580.951H140.824C136.638 580.956 133.209 584.412 133.072 588.764Z" fill="white"/>
<path d="M218.542 598.689H75.1599V622.689H218.542V598.689Z" fill="#007CEE"/>
<path opacity="0.7" d="M218.542 598.689H75.1599V622.689H218.542V598.689Z" fill="white"/>
<path opacity="0.2" d="M75.1479 605.033V603.074L173.321 603.895L75.1479 605.033ZM75.1479 613.45V611.933L119.228 613.576L75.1479 613.45ZM75.1479 619.06V617.127L146.209 618.251L75.1479 619.06Z" fill="black"/>
<path opacity="0.2" d="M186.484 598.69L188.562 616.586L186.132 613.855C185.315 617.106 183.774 620.131 181.624 622.703C180.073 620.601 178.844 618.279 177.978 615.815L111.014 615.02L177.346 613.503C177.142 612.526 177.036 611.531 177.03 610.534C177.03 609.687 177.108 608.84 177.261 608.007L79.0029 607.742L177.444 606.946C177.788 605.599 178.274 604.293 178.89 603.053C177.503 601.743 175.669 601.012 173.762 601.007H75.1479V598.656L186.484 598.69Z" fill="black"/>
<path d="M184.271 610.544C184.265 616.542 179.587 621.399 173.819 621.399H73.496C73.072 621.399 72.731 621.756 72.731 622.195V623.054C72.731 623.495 73.074 623.85 73.496 623.85H229.578C236.645 623.857 242.381 617.905 242.387 610.556V610.429C242.222 603.028 236.369 597.138 229.249 597.21H73.496C73.071 597.216 72.731 597.577 72.731 598.019V598.878C72.731 599.318 73.074 599.673 73.496 599.673H173.516C179.342 599.665 184.114 604.487 184.271 610.544Z" fill="#007CEE"/>
<path d="M184.271 610.544C184.265 616.542 179.587 621.399 173.819 621.399H73.496C73.072 621.399 72.731 621.756 72.731 622.195V623.054C72.731 623.495 73.074 623.85 73.496 623.85H174.366C181.434 623.857 187.169 617.905 187.176 610.556V610.429C186.998 603.033 181.151 597.151 174.039 597.21H73.496C73.071 597.216 72.731 597.577 72.731 598.019V598.878C72.731 599.318 73.074 599.673 73.496 599.673H173.516C179.342 599.665 184.114 604.487 184.271 610.544Z" fill="#007CEE"/>
<path d="M572.033 497.406H563.641V526.118H572.033V497.406Z" fill="#263238"/>
<path opacity="0.2" d="M572.033 497.406H563.641V526.118H572.033V497.406Z" fill="white"/>
<path d="M567.727 502.017C554.667 502.02 541.808 498.662 530.299 492.242L534.27 484.547C568.934 503.812 612.051 490.205 630.576 454.157C639.594 436.608 641.437 416.023 635.688 397.044C633.452 389.558 630.043 382.473 625.589 376.055C619.241 366.887 610.964 359.346 601.391 354.005L605.35 346.311C609.779 348.788 613.966 351.675 617.855 354.936C623.394 359.598 628.286 364.979 632.401 370.936C637.384 378.113 641.195 386.037 643.689 394.412C656.906 437.996 633.645 484.471 591.734 498.215C583.986 500.759 575.882 502.052 567.727 502.047V502.017Z" fill="#263238"/>
<path opacity="0.3" d="M567.727 502.017C554.667 502.02 541.808 498.662 530.299 492.242L534.27 484.547C568.934 503.812 612.051 490.205 630.576 454.157C639.594 436.608 641.437 416.023 635.688 397.044C633.452 389.558 630.043 382.473 625.589 376.055C619.241 366.887 610.964 359.346 601.391 354.005L605.35 346.311C609.779 348.788 613.966 351.675 617.855 354.936C623.394 359.598 628.286 364.979 632.401 370.936C637.384 378.113 641.195 386.037 643.689 394.412C656.906 437.996 633.645 484.471 591.734 498.215C583.986 500.759 575.882 502.052 567.727 502.047V502.017Z" fill="white"/>
<path d="M527.599 499.514C527.25 499.519 526.907 499.429 526.606 499.252C525.611 498.682 525.233 497.392 525.752 496.343L606.231 340.217C606.777 339.152 608.047 338.749 609.071 339.314C610.094 339.881 610.482 341.203 609.938 342.267L529.445 498.337C529.275 498.684 529.013 498.977 528.688 499.185C528.362 499.393 527.985 499.506 527.599 499.514Z" fill="#263238"/>
<path opacity="0.4" d="M527.599 499.514C527.25 499.519 526.907 499.429 526.606 499.252C525.611 498.682 525.233 497.392 525.752 496.343L606.231 340.217C606.777 339.152 608.047 338.749 609.071 339.314C610.094 339.881 610.482 341.203 609.938 342.267L529.445 498.337C529.275 498.684 529.013 498.977 528.688 499.185C528.362 499.393 527.985 499.506 527.599 499.514Z" fill="white"/>
<path d="M552.494 523.994H583.182C585.237 523.994 586.903 525.726 586.903 527.862V534.99H548.789V527.862C548.787 525.732 550.444 524.002 552.494 523.994Z" fill="#263238"/>
<path d="M570.984 355.533C604.835 357.337 630.87 387.339 629.134 422.543C627.397 457.745 598.547 484.819 564.697 483.014C530.846 481.208 504.811 451.206 506.547 416.004V415.997C508.287 380.797 537.137 353.726 570.984 355.533Z" fill="#007CEE"/>
<path opacity="0.5" d="M603.589 367.431C603.496 367.38 603.407 367.321 603.323 367.256C603.154 367.102 602.965 366.97 602.763 366.864C600.218 365.409 600.931 370.543 598.567 371.708C596.203 372.872 592.036 370.777 592.539 369.264C593.042 367.751 588.26 363.548 586.944 362.879C584.814 362.083 582.468 363.234 581.703 365.449C581.543 365.913 581.461 366.401 581.462 366.892C581.266 371.256 583.574 373.844 582.931 375.169C582.288 376.494 582.302 376.9 578.063 379.009C573.825 381.117 570.762 378.426 568.203 380.827C565.643 383.227 568.959 384.565 567.937 390.383C566.917 396.201 565.406 392.026 562.342 392.651C559.279 393.277 561.027 389.437 561.418 387.197C561.81 384.957 558.621 384.288 557.222 384.113C555.823 383.938 552.327 383.502 552.774 378.994C553.222 374.485 552.999 370.266 547.055 370.615C543.991 370.819 542.328 366.251 541.46 361.656C525.769 369.431 513.972 383.744 508.982 401.058C509.304 400.987 509.583 401.452 510.031 402.615C511.43 406.251 512.731 409.887 514.506 412.097C516.105 413.876 516.641 416.419 515.905 418.73C515.164 420.519 511.555 421.639 511.486 422.875C511.415 424.111 508.031 425.784 507.5 426.918C507.458 427.042 507.376 427.149 507.268 427.223C507.159 427.296 507.029 427.332 506.898 427.325C509.035 444.844 518.078 460.651 531.865 470.961C533.39 466.829 536.061 463.558 537.851 463.456C541.599 463.253 553.166 461.348 548.914 456.039C544.661 450.729 540.116 445.857 540.116 445.857C541.003 444.463 542.004 443.144 543.109 441.915C543.794 441.465 541.57 440.14 545.473 439.705C549.376 439.268 549.669 439.24 548.033 437.29C546.397 435.342 543.697 436.824 545.487 434.381C547.278 431.937 549.236 430.017 551.166 432.723C553.095 435.428 551.921 436.868 552.564 437.668C553.208 438.469 558.984 437.231 558.984 437.231C558.984 437.231 560.48 439.398 559.837 439.879C558.774 441.169 557.806 442.534 556.942 443.965C556.479 445.314 555.719 446.542 554.717 447.558C553.543 448.27 557.934 452.911 559.248 453.623C560.563 454.335 561.109 454.918 562.241 454.612C563.374 454.307 565.57 451.848 566.367 451.106C567.164 450.364 571.961 452.182 571.961 452.182C573.768 453.273 575.46 454.545 577.011 455.978C578.605 457.625 581.077 457.913 582.983 456.676C583.975 455.745 583.919 453.215 585.78 454.087C587.641 454.959 588.269 455.862 589.556 460.559C590.843 465.256 598.493 472.152 597.542 475.061C603.23 471.796 608.354 467.636 612.717 462.741C607.304 460.864 605.291 458.697 604.479 457.461C603.43 455.847 604.046 455.832 604.633 453.098C605.22 450.364 610.158 448.734 610.955 447.992C611.752 447.25 615.598 442.276 617.486 441.752C619.374 441.228 619.235 438.609 619.235 438.609C619.235 438.609 619.584 439.293 620.354 437.562C621.124 435.83 620.284 434.055 622.829 431.657C624.458 430.356 626.378 429.468 628.424 429.068C628.757 426.876 628.977 424.666 629.081 422.449C629.28 418.565 629.131 414.67 628.634 410.813L621.976 413.445C620.415 413.473 618.856 413.317 617.332 412.98C616.606 412.544 613.136 410.216 610.451 411.642C607.766 413.068 607.5 410.696 602.465 409.839C597.43 408.982 604.94 401.577 606.115 400.471C607.291 399.365 607.514 399.947 610.913 398.188C614.312 396.428 613.71 393.692 613.71 393.692C611.66 390.598 609.242 387.766 606.507 385.257C603.206 382.552 607.906 382.275 616.088 379.818C612.533 375.115 608.324 370.943 603.589 367.431ZM581.21 448.155C580.036 450.002 578.413 447.792 578.413 447.792C573.644 446.337 573.182 442.309 574.804 440.781C576.426 439.253 577.224 434.047 579.77 436.127C581.816 437.714 583.96 439.172 586.189 440.491C586.189 440.491 588.986 432.985 589.111 439.967C589.237 446.949 593.056 444.824 589.195 446.963C585.334 449.101 582.412 446.264 581.236 448.112L581.21 448.155ZM599.853 450.047C599.875 451.828 599.683 453.605 599.281 455.341L595.701 457.246C593.03 454.934 594.065 451.428 595.519 451.108C596.974 450.788 599.688 447.995 599.897 450.002L599.853 450.047ZM593.295 396.113C594.231 398.018 591.378 399.255 588.218 404.069C585.058 408.883 583.112 404.957 583.112 404.957C583.112 404.957 576.706 399.634 578.791 397.305C580.875 394.978 579.309 391.909 582.386 390.134C584.303 389.028 586.203 389.989 587.981 392.039C589.756 394.089 592.4 394.178 593.324 396.068L593.295 396.113Z" fill="white"/>
<path opacity="0.2" d="M587.013 358.703C587.894 377.902 581.978 398.629 568.999 416.432C554.635 436.14 534.606 448.155 514.647 451.181C497.759 420.6 507.907 381.572 537.313 364.009C552.407 354.995 570.473 353.065 587.013 358.703Z" fill="white"/>
<path opacity="0.3" d="M552.494 523.994H583.182C585.237 523.994 586.903 525.726 586.903 527.862V534.99H548.789V527.862C548.787 525.732 550.444 524.002 552.494 523.994Z" fill="white"/>
<path d="M535.933 532.896H599.74C602.135 532.896 604.076 534.915 604.076 537.405V544.81H531.598V537.405C531.598 534.915 533.539 532.896 535.933 532.896Z" fill="#263238"/>
<path opacity="0.4" d="M535.933 532.896H599.74C602.135 532.896 604.076 534.915 604.076 537.405V544.81H531.598V537.405C531.598 534.915 533.539 532.896 535.933 532.896Z" fill="white"/>
<path d="M478.515 73L194 106.497L238.663 516.762L523.178 483.265L478.515 73Z" fill="#007CEE"/>
<path opacity="0.8" d="M478.515 73L194 106.497L238.663 516.762L523.178 483.265L478.515 73Z" fill="white"/>
<path opacity="0.2" d="M446.655 106.343L358.861 116.679L359.485 122.406L447.279 112.069L446.655 106.343ZM439.158 164.467L247.562 187.025L248.372 194.457L439.967 171.9L439.158 164.467ZM436.66 119.293L359.994 128.319L360.617 134.046L437.283 125.02L436.66 119.293ZM238.312 186.886L230 187.864L230.94 196.508L239.253 195.53L238.312 186.886ZM451.957 282.032L260.361 304.589L261.171 312.021L452.766 289.464L451.957 282.032ZM251.113 304.45L242.801 305.429L243.741 314.073L252.054 313.094L251.113 304.45ZM462.929 382.833L271.334 405.39L272.143 412.822L463.739 390.265L462.929 382.833ZM262.087 405.251L253.775 406.23L254.716 414.874L263.028 413.895L262.087 405.251ZM443.291 187.794L274.177 207.704L274.987 215.137L444.1 195.227L443.291 187.794ZM343.165 217.364L276.09 225.261L276.899 232.693L343.975 224.796L343.165 217.364Z" fill="#007CEE"/>
<path opacity="0.2" d="M262.816 207.812L251.42 209.153L252.71 221.005L264.106 219.663L262.816 207.812Z" stroke="#007CEE" stroke-width="0.75" stroke-miterlimit="10"/>
<path opacity="0.2" d="M448.377 234.517L279.263 254.427L280.073 261.859L449.186 241.949L448.377 234.517ZM348.251 264.086L281.175 271.984L281.985 279.416L349.061 271.519L348.251 264.086Z" fill="#007CEE"/>
<path opacity="0.2" d="M267.904 254.534L256.507 255.876L257.797 267.727L269.194 266.386L267.904 254.534Z" stroke="#007CEE" stroke-width="0.75" stroke-miterlimit="10"/>
<path opacity="0.2" d="M456.637 310.384L287.523 330.294L288.332 337.726L457.446 317.816L456.637 310.384ZM356.712 341.819L289.636 349.716L290.446 357.148L357.521 349.251L356.712 341.819Z" fill="#007CEE"/>
<path opacity="0.2" d="M276.162 330.402L264.765 331.743L266.055 343.595L277.452 342.253L276.162 330.402ZM278.168 348.827L266.771 350.169L268.061 362.02L279.458 360.679L278.168 348.827Z" stroke="#007CEE" stroke-width="0.75" stroke-miterlimit="10"/>
<path opacity="0.2" d="M397.468 356.5L291.732 368.948L292.541 376.381L398.277 363.932L397.468 356.5Z" fill="#007CEE"/>
<path opacity="0.2" d="M280.263 368.062L268.867 369.403L270.157 381.255L281.553 379.913L280.263 368.062Z" stroke="#007CEE" stroke-width="0.75" stroke-miterlimit="10"/>
<path opacity="0.2" d="M467.283 408.161L298.169 428.072L298.979 435.504L468.092 415.594L467.283 408.161ZM367.359 439.595L300.283 447.492L301.092 454.924L368.168 447.027L367.359 439.595Z" fill="#007CEE"/>
<path opacity="0.2" d="M286.808 428.179L275.412 429.521L276.702 441.372L288.098 440.03L286.808 428.179ZM288.816 446.605L277.42 447.946L278.71 459.798L290.106 458.456L288.816 446.605Z" stroke="#007CEE" stroke-width="0.75" stroke-miterlimit="10"/>
<path opacity="0.2" d="M408.114 454.277L302.379 466.725L303.188 474.158L408.924 461.709L408.114 454.277Z" fill="#007CEE"/>
<path opacity="0.2" d="M290.908 465.839L279.511 467.181L280.802 479.032L292.198 477.69L290.908 465.839Z" stroke="#007CEE" stroke-width="0.75" stroke-miterlimit="10"/>
<path d="M513.085 200.086L463.586 362.197L569.973 281.143L513.085 200.086ZM521.952 247.336L541.531 274.419L504.96 301.501L521.952 247.336Z" fill="#007CEE"/>
<path opacity="0.4" d="M513.085 200.086L463.586 362.197L569.973 281.143L513.085 200.086ZM521.952 247.336L541.531 274.419L504.96 301.501L521.952 247.336Z" fill="white"/>
<path d="M518.248 222.083L525.153 217.609M522.949 229.046C525.251 227.555 527.553 226.063 529.854 224.57M528.291 236.009L535.196 231.535M533.086 242.974L539.991 238.5M537.814 249.745C540.117 248.254 542.418 246.763 544.718 245.27M542.545 256.519L549.45 252.045M547.273 263.294L554.179 258.818M552.004 270.065L558.907 265.592M556.734 276.839L563.64 272.363" stroke="#263238" stroke-width="0.25" stroke-miterlimit="10"/>
<path opacity="0.4" d="M518.096 291.772L516.426 321.937L532.928 309.365L534.06 279.949L519.879 290.453" fill="white"/>
<path d="M433.622 241.041C450.375 241.041 463.957 226.917 463.957 209.495C463.957 192.073 450.375 177.949 433.622 177.949C416.868 177.949 403.287 192.073 403.287 209.495C403.287 226.917 416.868 241.041 433.622 241.041Z" fill="#007CEE"/>
<path d="M455.714 180.788C447.979 173.208 436.439 170.085 426.133 172.784M421.449 174.195C419.839 174.49 418.31 175.123 416.963 176.052" stroke="#007CEE" stroke-width="0.5" stroke-miterlimit="10" stroke-linecap="round" stroke-linejoin="round"/>
<path d="M417.686 244.272C417.686 246.194 416.188 247.752 414.338 247.752C412.49 247.752 410.992 246.194 410.992 244.272C410.992 242.35 412.49 240.791 414.338 240.791C416.186 240.791 417.686 242.349 417.686 244.272Z" fill="#007CEE"/>
<path d="M433.671 205.252C435.819 205.252 437.559 207.063 437.559 209.295C437.559 211.529 435.817 213.339 433.671 213.339C431.525 213.339 429.783 211.527 429.783 209.295C429.783 207.063 431.524 205.252 433.671 205.252ZM420.335 205.252C422.483 205.252 424.223 207.063 424.223 209.295C424.223 211.529 422.481 213.339 420.335 213.339C418.189 213.339 416.447 211.527 416.447 209.295C416.446 207.063 418.188 205.252 420.335 205.252ZM446.497 205.252C448.645 205.252 450.386 207.063 450.386 209.295C450.386 211.529 448.645 213.339 446.497 213.339C444.349 213.339 442.609 211.527 442.609 209.295C442.609 207.063 444.35 205.252 446.497 205.252Z" fill="white"/>
<path d="M326.069 210.649C326.069 214.826 322.813 218.21 318.798 218.21C314.783 218.21 311.527 214.824 311.527 210.649C311.527 206.472 314.783 203.088 318.798 203.088C322.813 203.088 326.069 206.472 326.069 210.649ZM305.518 220.25C305.518 223.222 303.2 225.633 300.342 225.633C297.484 225.633 295.166 223.222 295.166 220.25C295.166 217.278 297.484 214.867 300.342 214.867C303.2 214.867 305.518 217.277 305.518 220.25ZM310.907 197.361C310.907 199.217 309.458 200.724 307.673 200.724C305.888 200.724 304.439 199.219 304.439 197.361C304.439 195.504 305.886 193.998 307.673 193.998C309.46 193.998 310.907 195.504 310.907 197.361ZM334.396 219.63C336.182 219.63 337.629 218.124 337.629 216.267C337.629 214.41 336.182 212.904 334.396 212.904C332.61 212.904 331.162 214.41 331.162 216.267C331.162 218.124 332.61 219.63 334.396 219.63ZM334.976 205.323C337.42 205.323 339.402 203.263 339.402 200.721C339.402 198.18 337.42 196.119 334.976 196.119C332.532 196.119 330.551 198.18 330.551 200.721C330.551 203.262 332.532 205.323 334.976 205.323ZM328.337 234.457C328.337 237.429 326.019 239.84 323.16 239.84C320.301 239.84 317.984 237.429 317.984 234.457C317.984 231.485 320.302 229.074 323.16 229.074C326.018 229.074 328.337 231.485 328.337 234.457Z" fill="#007CEE"/>
<path d="M301.301 218.912L316.572 211.984L321.449 213.319L323.16 233.779M307.676 197.361L314.454 206.641L324.736 214.065L332.825 216.02M320.121 210.872L332.016 202.406" stroke="#007CEE" stroke-width="0.5" stroke-miterlimit="10"/>
<path d="M230.308 307.535C231.136 304.894 232.277 302.361 233.705 299.99C234.343 298.91 235.043 297.868 235.8 296.869C237.738 294.256 240.036 291.932 242.627 289.965C243.121 289.591 243.625 289.232 244.138 288.886C245.217 288.13 246.351 287.453 247.529 286.863C248.265 286.457 249.022 286.092 249.798 285.77C250.905 285.284 252.04 284.861 253.195 284.503C254.73 284.035 256.296 283.676 257.882 283.43C259.846 283.14 261.831 283.019 263.816 283.066C269.683 283.18 275.422 284.873 280.472 287.982H280.516C281.98 288.868 283.368 289.874 284.666 290.99C285.279 291.501 285.874 292.034 286.45 292.587C287.046 293.164 287.621 293.762 288.174 294.381C288.564 294.799 288.939 295.25 289.316 295.728C289.796 296.316 290.256 296.921 290.691 297.562C291.651 298.886 292.518 300.276 293.284 301.722C293.485 302.127 293.7 302.531 293.881 302.936C294.52 304.264 295.074 305.631 295.541 307.029C295.735 307.59 295.91 308.157 296.066 308.729C296.798 311.369 297.232 314.082 297.362 316.819C297.413 317.783 297.44 318.741 297.407 319.711C297.407 320.204 297.407 320.689 297.342 321.168C297.293 321.933 297.224 322.698 297.135 323.46C296.941 324.997 296.651 326.521 296.266 328.023C296.03 329 295.74 329.964 295.397 330.909C295.027 332.042 294.595 333.154 294.101 334.24C293.206 336.2 292.131 338.073 290.891 339.836C290.179 340.884 289.402 341.887 288.564 342.837C287.61 343.94 286.587 344.982 285.503 345.958C284.375 346.967 283.184 347.904 281.938 348.764C280.373 349.844 278.718 350.787 276.991 351.583C275.702 352.188 274.374 352.706 273.016 353.134C271.949 353.474 270.869 353.757 269.774 353.983H269.736C262.842 355.42 255.669 354.62 249.261 351.698C248.354 351.291 247.467 350.841 246.603 350.35C245.991 350.004 245.39 349.639 244.8 349.257C244.078 348.791 243.374 348.296 242.692 347.774C242.343 347.498 241.992 347.229 241.648 346.939C240.402 345.922 239.232 344.815 238.147 343.628C234.453 339.621 231.708 334.772 230.133 329.469C229.346 326.86 228.855 324.171 228.669 321.453C228.6 320.303 228.576 319.151 228.597 318C228.619 316.911 228.696 315.823 228.831 314.744C229.061 312.294 229.556 309.877 230.308 307.535Z" fill="#007CEE"/>
<path opacity="0.2" d="M230.308 307.535C231.136 304.894 232.277 302.361 233.705 299.99C234.343 298.91 235.043 297.868 235.8 296.869C237.738 294.256 240.036 291.932 242.627 289.965C243.121 289.591 243.625 289.232 244.138 288.886C245.217 288.13 246.351 287.453 247.529 286.863C248.265 286.457 249.022 286.092 249.798 285.77C250.905 285.284 252.04 284.861 253.195 284.503C254.73 284.035 256.296 283.676 257.882 283.43C259.846 283.14 261.831 283.019 263.816 283.066C269.683 283.18 275.422 284.873 280.472 287.982H280.516C281.98 288.868 283.368 289.874 284.666 290.99C285.279 291.501 285.874 292.034 286.45 292.587C287.046 293.164 287.621 293.762 288.174 294.381C288.564 294.799 288.939 295.25 289.316 295.728C289.796 296.316 290.256 296.921 290.691 297.562C291.651 298.886 292.518 300.276 293.284 301.722C293.485 302.127 293.7 302.531 293.881 302.936C294.52 304.264 295.074 305.631 295.541 307.029C295.735 307.59 295.91 308.157 296.066 308.729C296.798 311.369 297.232 314.082 297.362 316.819C297.413 317.783 297.44 318.741 297.407 319.711C297.407 320.204 297.407 320.689 297.342 321.168C297.293 321.933 297.224 322.698 297.135 323.46C296.941 324.997 296.651 326.521 296.266 328.023C296.03 329 295.74 329.964 295.397 330.909C295.027 332.042 294.595 333.154 294.101 334.24C293.206 336.2 292.131 338.073 290.891 339.836C290.179 340.884 289.402 341.887 288.564 342.837C287.61 343.94 286.587 344.982 285.503 345.958C284.375 346.967 283.184 347.904 281.938 348.764C280.373 349.844 278.718 350.787 276.991 351.583C275.702 352.188 274.374 352.706 273.016 353.134C271.949 353.474 270.869 353.757 269.774 353.983H269.736C262.842 355.42 255.669 354.62 249.261 351.698C248.354 351.291 247.467 350.841 246.603 350.35C245.991 350.004 245.39 349.639 244.8 349.257C244.078 348.791 243.374 348.296 242.692 347.774C242.343 347.498 241.992 347.229 241.648 346.939C240.402 345.922 239.232 344.815 238.147 343.628C234.453 339.621 231.708 334.772 230.133 329.469C229.346 326.86 228.855 324.171 228.669 321.453C228.6 320.303 228.576 319.151 228.597 318C228.619 316.911 228.696 315.823 228.831 314.744C229.061 312.294 229.556 309.877 230.308 307.535Z" fill="white"/>
<path opacity="0.2" d="M230.309 307.535C231.398 307.543 232.484 307.66 233.55 307.885C235.074 308.222 236.551 308.816 238.088 309.113C240.034 309.477 242.05 309.37 244.013 309.599C245.978 309.827 248.039 310.474 249.35 312.039C244.544 312.292 239.759 312.856 235.021 313.732C232.954 314.116 230.878 314.514 228.811 314.716C229.051 312.271 229.553 309.864 230.309 307.535ZM284.531 321.512C287.454 321.075 290.405 320.85 293.361 320.838C294.698 320.864 296.029 320.968 297.355 321.148C297.306 321.913 297.237 322.678 297.148 323.44H296.818C292.633 323.654 288.449 322.997 284.531 321.512ZM268.171 310.176C268.709 310.024 269.274 309.997 269.824 310.095C272.049 310.258 274.284 310.22 276.502 309.98C278.448 309.818 280.347 309.596 282.265 309.386C283.758 309.271 285.235 309.004 286.674 308.59C287.457 308.283 288.261 308.035 289.08 307.848C290.102 307.751 291.133 307.817 292.134 308.043C293.431 308.271 294.728 308.482 296.024 308.717C296.758 311.357 297.192 314.071 297.32 316.808C296.434 316.788 295.552 316.677 294.688 316.478C293.209 316.128 291.79 315.467 290.266 315.292C288.917 315.144 287.549 315.374 286.195 315.292C284.759 315.145 283.34 314.866 281.956 314.457C277.099 313.304 271.99 313.304 267.322 311.544C267.218 310.929 267.588 310.333 268.171 310.176ZM242.625 289.916C243.119 289.542 243.623 289.183 244.136 288.837C245.215 288.08 246.349 287.404 247.527 286.813C248.266 286.407 249.022 286.043 249.796 285.721C249.952 285.721 250.101 285.801 250.257 285.842C257.946 287.99 265.791 289.536 273.72 290.468C277.968 290.973 282.375 291.344 286.448 292.585C287.045 293.165 287.616 293.757 288.172 294.378C283.841 293.254 279.423 292.501 274.965 292.126C271.171 291.869 267.354 292.059 263.58 291.681C260.163 291.35 256.766 290.548 253.343 290.736C252.584 290.783 251.826 290.865 251.06 290.912C248.503 291.002 245.945 290.735 243.462 290.116C243.18 290.064 242.9 289.997 242.625 289.916ZM263.602 295.48C266.973 294.759 270.481 295.096 273.91 295.433C277.85 295.909 281.818 296.077 285.782 295.939C286.962 295.878 288.128 295.75 289.315 295.717C289.795 296.304 290.255 296.909 290.69 297.552C291.651 298.876 292.518 300.266 293.284 301.712C293.484 302.115 293.699 302.521 293.88 302.924C293.541 302.879 293.202 302.841 292.862 302.809C290.839 302.641 288.823 302.486 286.819 302.169C285.288 301.931 283.773 301.602 282.282 301.185C281.082 300.862 279.909 300.445 278.774 299.937C277.815 299.505 276.907 298.993 275.948 298.589C274.824 298.121 273.674 297.716 272.505 297.375C269.592 296.464 266.635 295.56 263.602 295.48Z" fill="black"/>
<path opacity="0.2" d="M281.735 298.768C283.271 298.398 284.878 298.768 286.415 298.445C287.005 298.323 287.557 298.108 288.139 297.953C288.971 297.72 289.825 297.577 290.688 297.527C291.649 298.851 292.516 300.241 293.282 301.687C291.34 301.519 289.409 301.24 287.499 300.852C286.442 300.637 285.379 300.393 284.328 300.178C283.725 300.036 281.624 299.874 281.274 299.429C281.054 299.18 281.436 298.863 281.735 298.768ZM235.799 296.833C236.833 295.442 237.968 294.13 239.196 292.908C240.904 293.079 242.593 293.409 244.241 293.892C245.566 294.293 246.921 294.57 248.292 294.721C250.082 294.83 251.871 294.438 253.667 294.398C255.464 294.358 257.402 294.701 258.653 296.056C256.332 296.204 254.004 296.366 251.683 296.508C247.644 296.75 243.604 296.92 239.552 296.898C238.301 296.897 237.049 296.876 235.799 296.833ZM245.124 289.108C244.799 289.006 244.47 288.916 244.139 288.838C245.218 288.081 246.352 287.405 247.53 286.814C249.233 287.27 250.967 287.59 252.717 287.772C255.622 288.089 258.746 288.089 261.146 289.869L257.38 289.443C254.881 289.059 252.344 288.979 249.826 289.206C248.898 289.387 247.956 289.483 247.013 289.497C246.37 289.442 245.736 289.311 245.124 289.108ZM253.195 284.456C254.73 283.988 256.296 283.629 257.882 283.383C259.846 283.094 261.831 282.972 263.815 283.019C269.686 283.146 275.427 284.856 280.471 287.982H280.516C281.98 288.868 283.368 289.874 284.666 290.989C282.37 290.989 279.31 290.059 278.319 289.883C275.725 289.418 273.086 288.946 270.48 288.441C264.677 287.298 258.912 285.969 253.195 284.456Z" fill="black"/>
<path opacity="0.2" d="M257.896 283.369C259.861 283.081 261.846 282.959 263.828 283.006C269.697 283.139 275.431 284.854 280.471 287.982C280.021 287.85 279.553 287.79 279.084 287.806C278.636 287.806 278.189 287.962 277.735 288.028C277.156 288.063 276.579 288.052 276.004 287.995C273.819 287.845 271.65 287.511 269.521 286.997C267.575 286.485 265.774 285.65 263.899 284.974C261.943 284.282 259.936 283.746 257.896 283.369ZM241.615 326.973C241.862 326.547 242.406 326.447 242.86 326.299C244.765 325.807 246.361 324.486 248.143 323.642C251.002 322.294 254.23 322.179 257.363 322.084C259.113 321.997 260.868 322.022 262.615 322.157C264.143 322.346 265.659 322.634 267.152 323.02C270.394 323.809 273.571 324.753 276.747 325.717C282.583 327.49 288.418 329.365 294.409 330.557C294.752 330.634 295.089 330.731 295.421 330.848C295.053 331.982 294.621 333.094 294.125 334.179C292.179 334.252 290.061 333.848 288.29 333.802C282.974 333.64 277.727 335.029 272.632 336.641C271.168 337.179 269.644 337.534 268.094 337.7C265.999 337.822 263.944 337.208 261.941 336.601C259.607 335.872 257.273 335.145 254.959 334.396C253.729 334.029 252.534 333.555 251.387 332.979C250.415 332.434 249.513 331.758 248.567 331.16C247.043 330.219 245.38 329.525 243.639 329.103C243.082 329.015 242.549 328.81 242.077 328.502C241.834 328.341 241.654 328.1 241.57 327.821C241.486 327.542 241.501 327.242 241.615 326.973Z" fill="black"/>
<path opacity="0.2" d="M273.191 333.518C271.078 333.981 268.909 334.134 266.752 333.97C263.963 334.001 261.179 333.719 258.453 333.128C256.372 332.531 254.346 331.755 252.398 330.809C251.211 330.277 249.954 329.683 249.273 328.544C255.718 324.499 263.92 325.133 271.253 326.946C275.752 328.059 280.155 329.548 284.55 331.046C284.154 330.911 282.197 332.03 281.665 332.159C280.865 332.306 280.046 332.306 279.246 332.159C277.048 332.022 275.252 332.959 273.191 333.518ZM230.088 329.406C230.874 329.455 231.657 329.56 232.428 329.723C233.777 330.013 235.371 330.869 235.267 332.299C238.509 332.252 242.017 332.265 244.7 334.174C243.443 334.49 242.185 334.807 240.926 335.144L273.227 340.464C274.169 340.672 275.133 340.746 276.094 340.679C278.123 340.484 279.881 339.176 281.857 338.656C284.289 338.048 288.068 338.595 290.883 339.781C290.171 340.829 289.394 341.832 288.555 342.782C287.601 343.885 286.579 344.927 285.495 345.903C284.366 346.912 283.175 347.848 281.929 348.707C274.985 348.093 268.184 346.118 261.454 344.15C263.956 343.922 266.446 343.691 268.95 343.476C270.324 343.341 271.803 343.186 272.839 342.242C268.789 341.487 264.707 340.914 260.606 340.522C258.277 340.314 255.945 340.137 253.611 339.99C249.603 339.733 245.596 339.468 241.59 339.194C241.22 339.126 240.839 339.171 240.495 339.323C240.324 339.414 240.194 339.569 240.134 339.753C240.074 339.938 240.087 340.139 240.171 340.314C240.251 340.408 240.35 340.485 240.462 340.54C240.574 340.594 240.695 340.625 240.819 340.63L244.559 341.521C245.706 341.791 247.153 342.58 246.803 343.726C244.676 343.726 242.53 343.653 240.39 343.605C239.638 343.605 238.873 343.605 238.101 343.538C234.411 339.54 231.666 334.701 230.088 329.406ZM241.604 346.868C243.396 346.59 245.215 346.52 247.023 346.66C251.062 346.924 255.037 347.888 258.992 348.73C260.053 349 261.142 349.135 262.234 349.134C263.453 349.094 264.653 348.715 265.878 348.708C267.79 348.708 269.593 349.517 271.383 350.191C272.453 350.588 275.002 350.898 277.005 351.539C275.716 352.144 274.389 352.662 273.031 353.09C270.544 352.132 267.94 351.512 265.288 351.244C259.628 350.408 253.922 349.592 248.23 350.023C247.675 350.053 247.125 350.141 246.589 350.286C245.977 349.941 245.376 349.576 244.786 349.194C244.064 348.728 243.36 348.233 242.678 347.711C242.311 347.442 241.952 347.161 241.604 346.868Z" fill="black"/>
<path opacity="0.2" d="M278.475 343.998C281.509 342.36 285.094 342.414 288.556 342.798C287.602 343.901 286.579 344.943 285.495 345.918C283.084 345.575 280.725 344.93 278.475 343.998ZM249.226 351.636C254.284 350.718 259.49 351.339 264.456 352.593C266.226 352.95 267.977 353.399 269.701 353.941C262.807 355.378 255.634 354.578 249.226 351.656V351.636ZM242.646 347.706C242.983 347.639 243.333 347.611 243.678 347.578C246.057 347.363 248.514 347.152 250.809 347.8C249.168 347.374 246.92 348.332 244.741 349.189C244.025 348.72 243.326 348.226 242.646 347.706ZM228.785 314.68C228.652 315.76 228.574 316.847 228.551 317.936C228.551 319.095 228.551 320.255 228.621 321.389C229.435 321.536 230.265 321.559 231.085 321.462C234.943 321.172 238.788 320.888 242.645 320.613C241.407 319.204 239.325 319.144 237.504 319.346C235.682 319.547 233.73 319.904 232.091 319.035C234.789 317.123 238.038 316.144 241.343 316.245C243.6 316.32 245.836 316.919 248.06 316.677C250.006 316.482 251.95 315.646 253.896 315.874C254.84 316.031 255.769 316.278 256.671 316.61C266.513 319.569 277.574 313.913 287.143 317.749C281.221 318.445 275.304 319.12 269.392 319.773C271.875 322.106 275.596 321.958 278.904 322.388C282.573 322.867 286.084 324.179 289.168 326.225C290.194 327.038 291.358 327.661 292.603 328.066C293.567 328.231 294.551 328.231 295.515 328.066C295.774 328.066 296.033 328.006 296.293 327.978C296.676 326.475 296.966 324.954 297.162 323.414C297.253 322.658 297.317 321.891 297.369 321.122C297.407 320.643 297.42 320.158 297.433 319.666C297.465 318.695 297.433 317.738 297.388 316.773C297.259 314.036 296.823 311.322 296.09 308.682C295.936 308.109 295.761 307.542 295.566 306.982C293.187 306.982 290.775 307.279 288.435 306.827C287.462 306.638 286.489 306.335 285.543 306.153C284.456 305.983 283.357 305.9 282.256 305.903L260.134 305.384C257.067 305.311 254.019 305.242 250.98 304.872C257.759 303.123 264.773 302.461 271.759 302.91C272.848 302.977 274.016 303.052 274.95 302.465C271.629 299.95 267.047 300.914 262.955 300.442C261.114 300.247 259.304 299.728 257.45 299.768C255.751 299.808 254.085 300.28 252.399 300.488C250.576 300.668 248.74 300.686 246.913 300.542C242.538 300.347 238.148 300.13 233.751 299.928C232.303 302.316 231.147 304.869 230.309 307.533C229.546 309.853 229.035 312.25 228.785 314.68ZM245.279 302.975C246.658 302.589 248.08 302.38 249.512 302.355L250.017 302.88C247.735 303.874 245.195 304.11 242.769 303.554C243.601 303.343 244.438 303.15 245.279 302.975Z" fill="black"/>
<path d="M386.512 68.8216C393.045 41.7636 377.247 14.3216 351.228 7.52959C325.209 0.737586 298.821 17.1646 292.289 44.2216C285.757 71.2786 301.554 98.7216 327.573 105.515C353.592 112.308 379.98 95.8796 386.512 68.8216Z" fill="#007CEE"/>
<path opacity="0.3" d="M386.512 68.8216C393.045 41.7636 377.247 14.3216 351.228 7.52959C325.209 0.737586 298.821 17.1646 292.289 44.2216C285.757 71.2786 301.554 98.7216 327.573 105.515C353.592 112.308 379.98 95.8796 386.512 68.8216Z" fill="black"/>
<path d="M347.165 101.149C373.645 96.6848 391.633 70.7428 387.34 43.2048C383.048 15.6668 358.102 -3.03818 331.621 1.42482C305.141 5.88882 287.153 31.8318 291.446 59.3688C295.738 86.9068 320.684 105.612 347.165 101.149Z" fill="#007CEE"/>
<path d="M376.874 66.8127C385.127 45.2827 375.035 20.8727 354.332 12.2897C333.629 3.70766 310.156 14.2027 301.902 35.7327C293.649 57.2617 303.742 81.6727 324.445 90.2547C345.148 98.8367 368.621 88.3417 376.874 66.8127Z" fill="white"/>
<path d="M344.664 86.8089L343.195 76.9629C343.383 76.933 343.57 76.9007 343.757 76.8659L345.455 86.6719C345.192 86.7219 344.928 86.7676 344.664 86.8089ZM328.942 85.5429C328.687 85.4582 328.432 85.3702 328.177 85.2789L331.306 75.8629C331.484 75.9269 331.663 75.9889 331.844 76.0489L328.942 85.5429ZM359.936 80.1999L354.232 72.1949L354.709 71.8219L360.554 79.7149C360.351 79.8782 360.145 80.0399 359.936 80.1999ZM314.83 76.5739C314.643 76.3772 314.459 76.1792 314.277 75.9799L321.238 69.1329L321.639 69.5649L314.83 76.5739ZM370.498 66.9709L361.874 62.6319L362.122 62.0869L370.896 66.0869L370.794 66.3199C370.726 66.4769 370.612 66.7259 370.498 66.9709ZM306.353 61.8179C306.274 61.5532 306.198 61.2876 306.125 61.0209L315.345 58.3089C315.396 58.4989 315.45 58.6886 315.507 58.8779L306.353 61.8179ZM364.374 50.3639C364.369 50.1758 364.361 49.9877 364.349 49.7999L373.913 49.2119C373.929 49.4966 373.941 49.7822 373.95 50.0689L364.374 50.3639ZM314.838 46.4889L305.426 44.6279L305.577 43.8449L314.955 45.8769L314.838 46.4889ZM361.113 38.4239L360.818 37.8989L369.052 32.8009C369.185 33.0356 369.317 33.2716 369.446 33.5089L361.113 38.4239ZM319.796 35.1599L312.276 28.9869C312.436 28.7762 312.598 28.5676 312.762 28.3609L320.175 34.6729L319.796 35.1599ZM352.89 29.4049C352.734 29.3001 352.576 29.1978 352.417 29.0979L357.383 20.5779C357.616 20.7246 357.845 20.8736 358.071 21.0249L352.89 29.4049ZM329.242 27.5399L325.346 18.4379C325.596 18.3226 325.848 18.2096 326.101 18.0989L329.746 27.3149C329.575 27.3889 329.407 27.4639 329.242 27.5399ZM341.578 25.3889L341.007 25.3439L341.623 15.3999C341.889 15.4186 342.154 15.4399 342.417 15.4639L341.578 25.3889Z" fill="black"/>
<path d="M321.754 47.02L340.104 52.41L341.225 29.832" stroke="black" stroke-miterlimit="10" stroke-linecap="round" stroke-linejoin="round"/>
<path d="M342.655 51.43C342.701 53.16 341.389 54.6 339.726 54.649C338.062 54.697 336.677 53.333 336.63 51.603C336.584 49.873 337.896 48.433 339.559 48.383C341.222 48.337 342.61 49.7 342.655 51.43Z" fill="black"/>
<path d="M360.554 450.33C360.554 450.33 350 377.737 347.722 360.072C345.444 342.407 347.722 333.384 354.138 327.596C360.554 321.808 390.445 314.111 410.435 313.392C426.073 312.83 434.189 316.013 447.507 352.579L425.402 362.579C425.402 362.579 443.078 422.857 440.945 446.26L360.554 450.33Z" fill="#007CEE"/>
<path opacity="0.3" d="M421.309 364.451L417.699 365.965L412.098 350.943L418.029 372.166L422.973 369.895L421.309 364.451Z" fill="black"/>
<path d="M354.123 327.547C354.123 327.547 341.579 333.218 336.718 346.04C334.329 352.339 329.471 363.663 324.725 374.739L361.73 380.472L354.123 327.547Z" fill="#007CEE"/>
<path d="M327.825 375.305C327.825 375.305 312.907 402.545 317.341 414.507H344.174L345.228 402.515L340.44 399.613L350.207 378.199L327.825 375.305Z" fill="#FFC3BD"/>
<path opacity="0.3" d="M340.439 399.614C340.439 399.614 332.632 397.564 326.896 400.274C326.896 400.274 331.66 393.303 341.272 397.787L340.439 399.614ZM345.004 357.44C345.004 357.44 343.446 366.132 345.288 371.967C347.129 377.801 350.206 378.198 350.206 378.198L345.004 357.44Z" fill="black"/>
<path d="M424.906 265.697C422.951 264.795 420.784 264.453 418.854 263.492C414.711 261.43 412.297 256.89 410.578 252.461C408.858 248.033 407.485 243.294 404.42 239.736C401.514 236.363 397.186 234.363 392.831 234.383C388.476 234.403 384.165 236.441 381.287 239.841L391.025 276.327C393.332 280.487 396.955 283.845 401.196 285.75C402.972 286.547 404.989 287.096 406.828 286.471C408.667 285.846 410.1 283.655 409.378 281.789C410.899 284.259 414.32 285.216 416.827 283.872C419.334 282.528 420.569 279.075 419.515 276.352C421.538 276.306 423.623 276.246 425.469 275.388C427.317 274.531 428.886 272.664 428.801 270.561C428.713 268.339 426.862 266.599 424.906 265.697ZM348.423 249.133C340.318 257.38 343.361 266.375 344.69 273.049C347.473 281.866 348.585 288.176 352.519 296.505L366.014 239.076C360.827 241.241 357.238 240.836 348.423 249.133Z" fill="#051923"/>
<path d="M360.094 241.927C368.336 235.793 378.131 239.216 383.946 241.788C390.501 245.672 395.148 252.285 396.712 259.962C398.014 267.169 399.594 275.906 396.072 280.483C394.112 283.119 391.175 284.777 387.981 285.051L347.758 258.856C350.419 252.215 354.665 246.387 360.094 241.927Z" fill="#051923"/>
<path d="M377.776 333.278C383.305 332.879 382.817 332.699 386.064 330.516C401.86 320.02 394.91 314.627 394.91 314.627C390.062 310.559 391.209 305.121 391.06 296.004C391.043 295.74 391.567 291.143 391.513 290.886C391.285 289.71 390.048 294.998 389.211 294.172C388.691 293.623 388.065 293.186 387.371 292.887C386.677 292.589 385.929 292.434 385.173 292.434C384.418 292.434 383.67 292.589 382.976 292.887C382.281 293.186 381.655 293.623 381.136 294.172L381.13 294.179L372.263 298.794L372.258 299.228C373.105 304.065 373.917 307.79 374.417 310.748C374.412 311.111 374.542 311.478 374.589 311.827C374.584 312.192 374.68 312.574 374.744 312.923C375.25 317.009 370.415 320.874 370.507 326.506C369.056 327.792 372.26 333.278 377.776 333.278Z" fill="#FFC3BD"/>
<path opacity="0.2" d="M372.265 298.761C372.285 298.911 372.283 299.061 372.26 299.213C373.108 304.05 373.918 307.775 374.419 310.732C374.502 311.086 374.558 311.448 374.59 311.81C374.639 312.19 374.663 312.573 374.661 312.957C379.354 310.592 383.42 307.613 386.697 303.731C389.168 300.804 390.632 297.101 390.974 293.223C390.756 292.063 389.923 295.034 389.129 294.188C386.92 291.848 383.31 291.805 381.05 294.092L372.265 298.761Z" fill="black"/>
<path d="M391.454 263.336C394.107 280.072 395.581 287.069 389.603 297.604C380.595 313.436 360.742 313.561 353.367 298.072C346.843 284.103 343.531 259.148 357.257 248.548C370.984 237.951 388.786 246.584 391.454 263.336Z" fill="#FFC3BD"/>
<path d="M401.637 275.959C400.666 279.874 398.193 282.868 395.601 284.396C391.702 286.695 387.674 280.313 387.94 275.536C388.182 271.235 391.605 267.449 395.912 267.132C400.153 266.82 402.747 271.484 401.637 275.959Z" fill="#FFC3BD"/>
<path opacity="0.2" d="M392.549 277.633C392.238 276.029 392.543 274.366 393.403 272.977C394.257 271.621 395.642 270.639 397.169 270.307" stroke="black" stroke-width="0.5" stroke-miterlimit="10" stroke-linecap="round" stroke-linejoin="round"/>
<path d="M372.384 274.328C372.77 276.093 372.244 277.784 371.208 278.105C370.173 278.427 369.022 277.259 368.637 275.494C368.25 273.731 368.776 272.04 369.811 271.718C370.846 271.396 371.997 272.563 372.384 274.328ZM356.759 278.774C357.13 280.483 356.594 282.131 355.563 282.452C354.531 282.772 353.394 281.648 353.024 279.936C352.653 278.227 353.189 276.579 354.222 276.258C355.252 275.936 356.389 277.064 356.759 278.774ZM374.07 267.311C373.973 267.353 373.867 267.373 373.761 267.369C373.654 267.365 373.551 267.336 373.457 267.286C370.394 265.64 367.867 267.256 367.838 267.275C367.752 267.333 367.654 267.372 367.552 267.389C367.449 267.406 367.344 267.4 367.244 267.373C367.144 267.346 367.05 267.298 366.97 267.232C366.89 267.166 366.825 267.083 366.78 266.99C366.681 266.789 366.658 266.559 366.714 266.342C366.771 266.125 366.904 265.936 367.088 265.809C367.219 265.723 370.389 263.693 374.19 265.737C374.569 265.94 374.712 266.452 374.509 266.881C374.421 267.074 374.265 267.227 374.07 267.311ZM349.311 272.025C349.221 272.02 349.132 271.994 349.053 271.95C348.974 271.906 348.906 271.844 348.854 271.77C348.61 271.438 348.66 270.914 348.965 270.6C352.019 267.444 355.129 268.278 355.26 268.318C355.631 268.424 355.833 268.869 355.709 269.314C355.588 269.758 355.188 270.033 354.818 269.93C354.696 269.895 352.274 269.289 349.845 271.8C349.778 271.874 349.695 271.932 349.603 271.971C349.511 272.01 349.411 272.028 349.311 272.025Z" fill="#263238"/>
<path d="M360.792 276.75C360.792 276.75 359.956 283.624 358.186 288.27C357.876 289.082 358.439 289.974 359.276 290.046C361.431 290.231 363.537 288.895 363.537 288.895L360.792 276.75Z" fill="#ED847E"/>
<path d="M370.425 271.617L366.555 271.771C366.555 271.771 369.293 274.016 370.425 271.617ZM354.605 276.19L350.734 276.343C350.734 276.343 353.472 278.588 354.605 276.19Z" fill="#263238"/>
<path d="M387.147 268.219C387.147 268.219 376.024 259.132 374.06 249.883C374.06 249.883 339.23 251.956 347.565 280.765C347.565 280.765 336.598 253.496 362.609 244.115C388.619 234.734 400.71 269.999 390.871 285.038C390.801 284.918 394.042 273.927 387.147 268.219Z" fill="#051923"/>
<path d="M395.251 266.643C392.781 255.508 386.848 247.771 378.683 245.828C367.628 243.198 354.586 246.235 354.586 246.235C354.466 249.571 348.201 259.699 348.02 263.082C351.016 262.37 359.831 255.534 362.528 254.035L360.717 256.508C360.717 256.508 365.521 255.634 367.84 252.462C373.096 266.095 390.712 266.643 395.251 266.643ZM376.073 239.233C376.073 239.233 381.624 240.129 386 245.5C386.002 245.457 384.07 237.924 376.073 239.233Z" fill="#051923"/>
<path d="M369.365 293.028C371.195 291.433 373.326 289.777 374.49 287.42" stroke="#263238" stroke-width="0.75" stroke-miterlimit="10" stroke-linecap="round" stroke-linejoin="round"/>
<path d="M370.612 320.41C370.612 320.41 361.437 335.938 377.99 335.421C394.543 334.904 399.508 318.515 400.238 313.986L395.073 312.135C395.073 312.135 392.09 325.479 380.894 328.131C369.698 330.783 372.324 318.842 372.324 318.842L370.612 320.41Z" fill="#051923"/>
<path d="M442.898 354.584C442.898 354.584 452.184 382.263 453.201 389.903C453.596 392.869 456.507 400.318 447.617 406.862C439.817 412.605 383.721 414.506 383.721 414.506L382.088 399.586L428.203 387.007L421.309 364.452L442.898 354.584Z" fill="#FFC3BD"/>
<path d="M385.07 398.986C385.07 398.986 376.604 392.069 376.241 391.944C375.879 391.818 365.599 391.315 364.147 392.572C362.695 393.829 361.728 399.615 361.728 399.615C361.728 399.615 357.858 401.124 357.133 403.136C356.408 405.148 357.858 406.909 357.858 406.909C357.858 406.909 357.011 409.048 358.342 410.807L359.672 412.569C359.672 412.569 358.342 414.203 359.552 415.461C360.762 416.719 387.902 414.507 387.902 414.507L385.07 398.986Z" fill="#FFC3BD"/>
<path opacity="0.3" d="M361.729 399.613L373.516 397.565C373.516 397.565 368.212 396.707 365.382 397.565C362.551 398.424 361.729 399.613 361.729 399.613Z" fill="black"/>
<path d="M375.532 381.57L369.344 398.399C368.077 398.132 366.583 399.026 365.781 398.909L372.613 380.286C372.955 379.433 373.895 379.03 374.714 379.385C375.534 379.74 375.922 380.718 375.58 381.57H375.532Z" fill="#263238"/>
<path opacity="0.3" d="M428.203 387.031C428.203 387.031 438.317 387.513 439.791 393.646C439.791 393.646 439.76 383.816 427.451 384.569L428.203 387.031Z" fill="black"/>
<path d="M345.226 402.514C345.226 402.514 364.253 401.079 368.731 404.879C373.211 408.679 377.327 415.156 377.327 415.156L343.225 414.503L345.226 402.514Z" fill="#FFC3BD"/>
<path opacity="0.3" d="M355.928 402.289C355.928 402.289 354.649 407.805 356.929 411.73C357.666 412.999 356.069 414.269 356.595 414.763L361.728 414.861L357.634 402.291L355.928 402.289Z" fill="black"/>
<path d="M275.734 638.22L277.887 625.1L303.461 627.016L296.458 646.053L281.289 646.582L275.734 638.22Z" fill="#FFC3BD"/>
<path d="M273.159 636.01H279.878C281.399 636.01 282.805 636.809 283.704 638.085C287.579 643.588 290.49 641.508 294.706 636.333C297.386 636.008 298.106 639.206 298.326 640.066L303.35 659.069C303.786 660.655 302.902 662.31 301.377 662.763C301.105 662.845 300.826 662.883 300.541 662.878H247.299C238.832 662.878 237.077 654.005 240.564 653.182C256.25 649.578 267.356 644.779 272.203 640.033C273.106 639.204 272.182 638.582 273.159 636.01Z" fill="#007CEE"/>
<path d="M268.781 642.232C271.096 642.561 273.244 643.999 274.488 646.056M264.318 644.67C266.633 644.999 268.781 646.436 270.025 648.493M259.123 647.42C261.438 647.749 263.585 649.188 264.83 651.243" stroke="white" stroke-width="0.5" stroke-miterlimit="10" stroke-linecap="round" stroke-linejoin="round"/>
<path d="M282.444 597.55L276.908 585.548L298.843 571.74L303.709 591.486L291.625 601.034L282.444 597.55Z" fill="#FFC3BD"/>
<path d="M279.114 597.293L284.598 593.254C285.838 592.34 287.431 592.147 288.873 592.649C295.094 594.811 296.314 591.363 296.878 584.607C298.885 582.731 301.251 584.908 301.907 585.478L316.567 597.965C317.806 598.997 318.004 600.879 317.012 602.167C316.835 602.395 316.627 602.597 316.394 602.762L298.296 616.093L272.948 634.762C266.038 639.851 259.673 633.664 262.063 630.897C272.86 618.529 279.255 607.936 280.573 601.149C280.846 599.933 279.747 599.98 279.114 597.293Z" fill="#007CEE"/>
<path d="M279 605.003C280.036 604.448 281.182 604.133 282.356 604.079C283.529 604.025 284.7 604.235 285.782 604.693M276.715 609.677C277.751 609.122 278.897 608.807 280.071 608.753C281.244 608.699 282.415 608.909 283.497 609.367M274 615.042C275.036 614.487 276.182 614.172 277.356 614.118C278.529 614.064 279.7 614.274 280.782 614.732" stroke="white" stroke-width="0.5" stroke-miterlimit="10" stroke-linecap="round" stroke-linejoin="round"/>
<path d="M361.132 444.809C361.132 444.809 280.05 433.3 255.557 457.253C255.557 457.253 236.575 469.766 243.873 511.917C248.647 537.932 262.825 571.506 278.013 592.764L299.298 573.948C299.298 573.948 287.515 522.002 286.771 495.401L316.22 493.582L358.454 463.558L362.881 451.114L361.132 444.809Z" fill="#051923"/>
<path opacity="0.3" d="M289.897 495.207C289.897 495.207 287.74 487.264 289.785 477.596C291.83 467.928 297.202 458.45 326.207 454.587C355.212 450.726 292.995 495.207 292.995 495.207H289.897Z" fill="black"/>
<path d="M440.834 443.891C440.834 443.891 443.08 467.911 435.749 485.492C428.418 503.073 402.515 509.511 385.047 508.344C367.579 507.176 345.043 505.675 335.467 508.477C335.467 508.477 323.068 581.587 301.655 634.898L275.734 632.562C275.734 632.562 289.817 529.378 292.079 505.408C294.341 481.438 293.202 477.869 307.285 466.159C321.368 454.45 393.5 438.62 440.834 443.891Z" fill="#051923"/>
<path opacity="0.3" d="M289.896 524.691L281.507 589.675C281.507 589.675 281.26 555.353 281.862 544.945C282.585 532.408 289.896 524.691 289.896 524.691Z" fill="black"/>
<path d="M315.188 657.065L343.58 517.402H439.85L461.163 657.065" stroke="#263238" stroke-width="3" stroke-miterlimit="10" stroke-linecap="round" stroke-linejoin="round"/>
<path opacity="0.5" d="M315.188 657.065L343.58 517.402H439.85L461.163 657.065" stroke="white" stroke-width="3" stroke-miterlimit="10" stroke-linecap="round" stroke-linejoin="round"/>
<path d="M442.267 517.403H341.311C338.517 517.403 336.252 515.048 336.252 512.142C336.252 509.236 338.517 506.881 341.311 506.881H442.267C445.061 506.881 447.326 509.236 447.326 512.142C447.326 515.048 445.061 517.403 442.267 517.403Z" fill="#007CEE"/>
<path d="M478.982 426.469H409.85V457.96H478.982V426.469Z" fill="#263238"/>
<path opacity="0.4" d="M478.982 426.469H409.85V457.96H478.982V426.469Z" fill="white"/>
<path d="M405.1 423.15H188.199V457.959H405.1V423.15Z" fill="#263238"/>
<path opacity="0.4" d="M405.1 423.15H188.199V457.959H405.1V423.15Z" fill="white"/>
<path d="M413.134 420.488H405.102V657.068H413.134V420.488Z" fill="#263238"/>
<path opacity="0.5" d="M413.134 420.488H405.102V657.068H413.134V420.488Z" fill="white"/>
<path d="M483.82 420.488H475.787V657.068H483.82V420.488Z" fill="#263238"/>
<path opacity="0.5" d="M483.82 420.488H475.787V657.068H483.82V420.488Z" fill="white"/>
<path d="M192.214 420.488H184.182V657.068H192.214V420.488Z" fill="#263238"/>
<path opacity="0.5" d="M192.214 420.488H184.182V657.068H192.214V420.488Z" fill="white"/>
<path d="M486.4 414.506H176.287V426.469H486.4V414.506Z" fill="#263238"/>
<path opacity="0.5" d="M486.4 414.506H176.287V426.469H486.4V414.506Z" fill="white"/>
<path d="M387.177 411.699H298.068V414.86H387.177V411.699Z" fill="#007CEE"/>
<path opacity="0.5" d="M387.177 411.699H298.068V414.86H387.177V411.699Z" fill="white"/>
<g opacity="0.3">
<path d="M237.321 162.743C236.957 162.785 236.646 162.698 236.389 162.483C236.132 162.269 235.983 161.972 235.943 161.592L232.416 127.994C232.376 127.616 232.459 127.292 232.666 127.024C232.873 126.757 233.158 126.603 233.523 126.561L256.735 123.925C257.099 123.885 257.41 123.971 257.667 124.185C257.924 124.401 258.073 124.698 258.113 125.076L258.623 129.935C258.663 130.314 258.58 130.637 258.373 130.905C258.166 131.173 257.881 131.328 257.516 131.368L241.66 133.169L242.393 140.147L257.155 138.471C257.52 138.429 257.832 138.533 258.093 138.782C258.351 138.998 258.5 139.295 258.539 139.673L259.011 144.17C259.047 144.515 258.964 144.838 258.761 145.14C258.554 145.408 258.269 145.562 257.904 145.604L243.142 147.28L243.896 154.464L260.15 152.619C260.514 152.578 260.825 152.665 261.082 152.879C261.34 153.095 261.489 153.392 261.528 153.77L262.038 158.629C262.078 159.008 261.995 159.331 261.788 159.599C261.581 159.867 261.296 160.021 260.931 160.062L237.321 162.743ZM276.522 158.292C276.157 158.334 275.846 158.247 275.589 158.032C275.332 157.818 275.183 157.521 275.144 157.141L271.616 123.543C271.576 123.165 271.659 122.841 271.866 122.573C272.073 122.306 272.358 122.152 272.723 122.11L294.146 119.677C294.51 119.637 294.821 119.724 295.079 119.938C295.336 120.154 295.484 120.451 295.524 120.829L296.067 125.997C296.107 126.377 296.025 126.718 295.822 127.019C295.615 127.287 295.33 127.441 294.965 127.483L281.197 129.046L284.041 156.131C284.081 156.51 283.998 156.833 283.791 157.101C283.688 157.234 283.559 157.344 283.412 157.424C283.264 157.503 283.101 157.551 282.934 157.564L276.522 158.292ZM324.116 153.411C321.499 153.708 319.073 153.6 316.84 153.087C314.636 152.535 312.793 151.594 311.312 150.262C309.831 148.931 308.862 147.21 308.406 145.1C308.371 144.963 308.367 144.819 308.396 144.679C308.425 144.54 308.486 144.409 308.573 144.297C308.768 144.072 309.04 143.929 309.336 143.896L315.798 143.162C316.195 143.117 316.501 143.152 316.714 143.268C316.927 143.384 317.151 143.602 317.386 143.924C317.801 144.68 318.466 145.267 319.382 145.685C320.331 146.101 321.584 146.22 323.142 146.042C325.063 145.824 326.491 145.052 327.425 143.725C328.392 142.395 328.759 140.628 328.528 138.422L328.441 137.595L318.798 138.69C318.628 138.714 318.455 138.697 318.293 138.643C318.13 138.589 317.982 138.499 317.86 138.378C317.6 138.129 317.44 137.794 317.409 137.435L316.975 133.3C316.935 132.921 317.017 132.58 317.22 132.278C317.423 131.976 317.707 131.805 318.071 131.763L327.714 130.668L327.638 129.945C327.385 127.533 326.67 125.835 325.494 124.853C324.314 123.837 322.747 123.439 320.792 123.661C319.234 123.839 318.037 124.254 317.2 124.906C316.397 125.556 315.919 126.272 315.766 127.056C315.604 127.423 315.447 127.685 315.296 127.842C315.145 127.998 314.87 128.099 314.472 128.144L307.961 128.884C307.667 128.919 307.371 128.841 307.133 128.664C307.012 128.57 306.915 128.45 306.848 128.312C306.782 128.175 306.747 128.024 306.748 127.871C306.778 125.601 307.378 123.65 308.548 122.017C309.717 120.385 311.308 119.089 313.32 118.128C315.328 117.134 317.624 116.489 320.209 116.195C323.125 115.865 325.749 116.107 328.082 116.923C330.443 117.701 332.384 119.102 333.905 121.126C335.454 123.112 336.456 125.788 336.91 129.154C337.038 130.081 337.153 131.009 337.253 131.939C337.366 132.694 337.448 133.469 337.497 134.265C337.577 135.023 337.656 135.938 337.735 137.01C337.994 140.433 337.591 143.303 336.527 145.621C335.463 147.939 333.875 149.741 331.763 151.026C329.648 152.278 327.099 153.073 324.116 153.411Z" fill="#8FC6F8"/>
</g>
</g>
</g>
<defs>
<clipPath id="clip0_2001_372">
<rect width="682" height="669" fill="white"/>
</clipPath>
</defs>
</svg>
