<svg width="155" height="155" viewBox="0 0 155 155" fill="none" xmlns="http://www.w3.org/2000/svg">
<path d="M30.0598 112.126C29.8491 112.126 29.6121 112.073 29.4277 111.942C28.822 111.573 28.6113 110.809 28.9537 110.203L73.9111 32.2982C74.2798 31.6925 75.0436 31.4818 75.6493 31.8241C76.2551 32.1929 76.4658 32.9566 76.1234 33.5624L31.1923 111.494C30.9289 111.889 30.5076 112.126 30.0598 112.126ZM125.189 112.126C124.742 112.126 124.32 111.889 124.083 111.494L79.1258 33.5887C78.7571 32.983 78.9678 32.1665 79.5999 31.8505C80.2056 31.4818 81.0221 31.6925 81.3381 32.3246L126.296 110.203C126.664 110.809 126.454 111.626 125.821 111.942C125.637 112.073 125.4 112.126 125.189 112.126ZM122.608 116.603H32.6409C31.9298 116.603 31.3503 116.05 31.3503 115.313C31.3503 114.575 31.9034 114.022 32.6409 114.022H122.556C123.267 114.022 123.846 114.575 123.846 115.313C123.899 116.024 123.293 116.603 122.608 116.603Z" fill="#007CEE"/>
<path d="M77.6247 34.9578C74.0429 34.9578 71.1458 32.0608 71.1458 28.4789C71.1458 24.8971 74.0429 22 77.6247 22C81.2066 22 84.1037 24.8971 84.1037 28.4789C84.1037 32.0608 81.2066 34.9578 77.6247 34.9578ZM77.6247 24.5547C75.4651 24.5547 73.7268 26.2929 73.7268 28.4526C73.7268 30.6122 75.4651 32.3505 77.6247 32.3505C79.7844 32.3505 81.5226 30.6122 81.5226 28.4526C81.5226 26.2929 79.7844 24.5547 77.6247 24.5547ZM77.6247 52.5774C73.3581 52.5774 69.1969 51.4449 65.5624 49.3379C64.9566 48.9692 64.7459 48.1791 65.0883 47.5996C65.457 46.9939 66.2471 46.7832 66.8265 47.1256C70.066 48.9955 73.7795 49.9963 77.5721 49.9963C81.3646 49.9963 85.1045 48.9955 88.3176 47.1256C88.9233 46.7569 89.7398 46.9676 90.0558 47.5996C90.4246 48.2054 90.2139 49.0219 89.5818 49.3379C86.0526 51.4712 81.8913 52.5774 77.6247 52.5774ZM50.2868 116.603C49.5757 116.603 48.9963 116.05 48.9963 115.312C48.9963 107.648 44.8877 100.511 38.2508 96.6656C37.645 96.2969 37.4343 95.5331 37.7767 94.9274C38.1454 94.3216 38.9092 94.1109 39.515 94.4533C46.942 98.7463 51.551 106.753 51.551 115.339C51.5774 116.023 50.9979 116.603 50.2868 116.603ZM104.963 116.603C104.252 116.603 103.672 116.05 103.672 115.312C103.672 106.753 108.281 98.7463 115.708 94.427C116.314 94.0583 117.13 94.269 117.446 94.9011C117.815 95.5068 117.604 96.3233 116.972 96.6393C110.335 100.485 106.2 107.648 106.2 115.286C106.253 116.023 105.674 116.603 104.963 116.603ZM27.4789 121.818C23.8971 121.818 21 118.92 21 115.339C21 111.757 23.8971 108.86 27.4789 108.86C31.0608 108.86 33.9578 111.757 33.9578 115.339C33.9578 118.894 31.0608 121.818 27.4789 121.818ZM27.4789 111.414C25.3193 111.414 23.581 113.153 23.581 115.312C23.581 117.472 25.3193 119.21 27.4789 119.21C29.6386 119.21 31.3768 117.472 31.3768 115.312C31.3768 113.153 29.6386 111.414 27.4789 111.414ZM127.771 121.818C124.189 121.818 121.292 118.92 121.292 115.339C121.292 111.757 124.189 108.86 127.771 108.86C131.352 108.86 134.249 111.757 134.249 115.339C134.249 118.894 131.352 121.818 127.771 121.818ZM127.771 111.414C125.611 111.414 123.873 113.153 123.873 115.312C123.873 117.472 125.611 119.21 127.771 119.21C129.93 119.21 131.668 117.472 131.668 115.312C131.668 113.153 129.93 111.414 127.771 111.414ZM115.497 127.533H39.752C39.0409 127.533 38.4615 126.98 38.4615 126.242C38.4615 125.505 39.0146 124.952 39.752 124.952H115.524C116.235 124.952 116.814 125.505 116.814 126.242C116.788 126.927 116.235 127.533 115.497 127.533Z" fill="#007CEE"/>
<path d="M44.8096 132.563C44.4673 132.563 44.1512 132.431 43.9142 132.168L38.8575 127.137C38.6204 126.9 38.4624 126.584 38.4624 126.242C38.4624 125.899 38.5941 125.583 38.8575 125.346L43.9142 120.289C44.4409 119.763 45.231 119.763 45.7314 120.289C46.2582 120.816 46.2582 121.606 45.7314 122.107L41.5702 126.268L45.7314 130.403C46.2582 130.93 46.2582 131.72 45.7314 132.22C45.4944 132.431 45.152 132.563 44.8096 132.563ZM110.442 132.563C110.099 132.563 109.783 132.431 109.546 132.168C109.046 131.641 109.046 130.851 109.546 130.35L113.707 126.215L109.546 122.054C109.019 121.527 109.019 120.737 109.546 120.237C110.073 119.71 110.863 119.71 111.363 120.237L116.42 125.294C116.657 125.531 116.815 125.847 116.815 126.189C116.815 126.531 116.684 126.847 116.42 127.084L111.363 132.115C111.1 132.431 110.784 132.563 110.442 132.563ZM72.2792 107.911H65.1945C64.4834 107.911 63.904 107.358 63.904 106.621C63.904 105.883 64.4571 105.33 65.1945 105.33H72.2792C72.5689 105.33 72.806 105.093 72.806 104.803V98.7457H66.9855C65.2999 98.7457 63.904 97.3499 63.904 95.6643V90.3706C63.904 88.685 65.2999 87.2891 66.9855 87.2891H72.2792C73.9648 87.2891 75.3607 88.685 75.3607 90.3706V104.856C75.3607 106.515 73.9648 107.911 72.2792 107.911ZM66.9855 89.8175C66.6958 89.8175 66.4587 90.0545 66.4587 90.3442V95.638C66.4587 95.9277 66.6958 96.1647 66.9855 96.1647H72.806V90.3442C72.806 90.0545 72.5689 89.8175 72.2792 89.8175H66.9855ZM86.8173 107.937H81.7606C79.996 107.937 78.5474 106.489 78.5474 104.724V90.4496C78.5474 88.685 79.996 87.2364 81.7606 87.2364H86.8173C88.5819 87.2364 90.0304 88.685 90.0304 90.4496V104.724C90.0304 106.489 88.5819 107.937 86.8173 107.937ZM81.7342 89.7911C81.3919 89.7911 81.1021 90.1072 81.1021 90.4232V104.698C81.1021 105.04 81.4182 105.33 81.7342 105.33H86.791C87.1333 105.33 87.423 105.014 87.423 104.698V90.4496C87.423 90.1072 87.107 89.8175 86.791 89.8175H81.7342V89.7911ZM96.1406 92.7146C93.823 92.7146 91.953 90.8446 91.953 88.527C91.953 86.2093 93.823 84.3394 96.1406 84.3394C98.4583 84.3394 100.328 86.2093 100.328 88.527C100.328 90.8183 98.4583 92.7146 96.1406 92.7146ZM96.1406 86.8677C95.2452 86.8677 94.5077 87.5788 94.5077 88.5006C94.5077 89.3961 95.2188 90.1335 96.1406 90.1335C97.0361 90.1335 97.7735 89.4224 97.7735 88.5006C97.7735 87.6315 97.0097 86.8677 96.1406 86.8677Z" fill="#007CEE"/>
</svg>
