<svg width="155" height="155" viewBox="0 0 155 155" fill="none" xmlns="http://www.w3.org/2000/svg">
<path fill-rule="evenodd" clip-rule="evenodd" d="M37.577 126.109C35.304 126.104 33.1256 125.198 31.5183 123.591C29.911 121.984 29.0056 119.805 29 117.532L29 37.577C29.0055 35.304 29.911 33.1256 31.5183 31.5183C33.1256 29.911 35.304 29.0055 37.577 29L117.532 29C119.805 29.0055 121.984 29.911 123.591 31.5183C125.198 33.1256 126.104 35.304 126.109 37.577V117.532C126.104 119.805 125.198 121.984 123.591 123.591C121.984 125.198 119.805 126.104 117.532 126.109H37.577ZM83.4592 104.023C83.0263 104.023 82.6112 104.195 82.3051 104.501C81.999 104.807 81.8271 105.222 81.8271 105.655V115.066C81.8271 115.499 81.999 115.914 82.3051 116.22C82.6112 116.526 83.0263 116.698 83.4592 116.698H92.8704C93.3033 116.698 93.7184 116.526 94.0245 116.22C94.3306 115.914 94.5025 115.499 94.5025 115.066V105.655C94.5025 105.222 94.3306 104.807 94.0245 104.501C93.7184 104.195 93.3033 104.023 92.8704 104.023H83.4592ZM91.2383 107.287H85.0903V113.434H91.2373V107.287L91.2383 107.287ZM83.4592 85.2008C83.0263 85.2008 82.6112 85.3728 82.3051 85.6789C81.999 85.9849 81.8271 86.4001 81.8271 86.8329V96.244C81.8271 96.6768 81.999 97.0919 82.3051 97.398C82.6112 97.7041 83.0263 97.876 83.4592 97.876H92.8704C93.3033 97.876 93.7184 97.7041 94.0245 97.398C94.3306 97.0919 94.5025 96.6768 94.5025 96.244V86.8329C94.5025 86.4001 94.3306 85.9849 94.0245 85.6789C93.7184 85.3728 93.3033 85.2008 92.8704 85.2008H83.4592ZM91.2383 88.465H85.0903V94.6119H91.2373V88.465H91.2383ZM104.677 66.3783C104.245 66.3783 103.829 66.5503 103.523 66.8564C103.217 67.1624 103.045 67.5776 103.045 68.0104V77.4217C103.045 77.636 103.088 77.8482 103.17 78.0462C103.252 78.2443 103.372 78.4242 103.523 78.5757C103.675 78.7273 103.855 78.8475 104.053 78.9295C104.251 79.0115 104.463 79.0538 104.677 79.0538H114.089C114.521 79.0538 114.937 78.8818 115.243 78.5757C115.549 78.2697 115.721 77.8545 115.721 77.4217V68.0102C115.721 67.5774 115.549 67.1622 115.243 66.8562C114.937 66.5501 114.521 66.3781 114.089 66.3781L104.677 66.3783ZM112.457 69.6425H106.308V75.7896H112.456V69.6423L112.457 69.6425ZM104.677 85.2008C104.245 85.2008 103.829 85.3728 103.523 85.6789C103.217 85.9849 103.045 86.4001 103.045 86.8329V115.066C103.045 115.499 103.217 115.914 103.523 116.22C103.829 116.526 104.245 116.698 104.677 116.698H114.089C114.521 116.698 114.937 116.526 115.243 116.22C115.549 115.914 115.721 115.499 115.721 115.066V86.8327C115.721 86.3999 115.549 85.9847 115.243 85.6786C114.937 85.3726 114.521 85.2006 114.089 85.2006L104.677 85.2008ZM112.457 88.465H106.308V113.434H112.456V88.4648L112.457 88.465ZM62.24 104.023C61.8071 104.023 61.392 104.195 61.0859 104.501C60.7798 104.807 60.6079 105.222 60.6079 105.655V115.066C60.6079 115.499 60.7798 115.914 61.0859 116.22C61.392 116.526 61.8071 116.698 62.24 116.698H71.6512C72.0841 116.698 72.4992 116.526 72.8053 116.22C73.1113 115.914 73.2833 115.499 73.2833 115.066V105.655C73.2833 105.222 73.1113 104.807 72.8053 104.501C72.4992 104.195 72.0841 104.023 71.6512 104.023H62.24ZM70.0191 107.287H63.8721V113.434H70.0191V107.287V107.287ZM41.0218 104.023C40.5889 104.023 40.1738 104.195 39.8677 104.501C39.5616 104.807 39.3897 105.222 39.3897 105.655L39.3897 115.066C39.3897 115.499 39.5616 115.914 39.8677 116.22C40.1738 116.526 40.5889 116.698 41.0218 116.698H50.433C50.8659 116.698 51.281 116.526 51.5871 116.22C51.8932 115.914 52.0651 115.499 52.0651 115.066V105.655C52.0651 105.222 51.8932 104.807 51.5871 104.501C51.281 104.195 50.8659 104.023 50.433 104.023H41.0218ZM48.8009 107.287H42.6539L42.6539 113.434H48.8009V107.287V107.287ZM62.24 85.2008C61.8071 85.2008 61.392 85.3728 61.0859 85.6789C60.7798 85.9849 60.6079 86.4001 60.6079 86.8329V96.244C60.6079 96.6768 60.7798 97.0919 61.0859 97.398C61.392 97.7041 61.8071 97.876 62.24 97.876H71.6512C72.0841 97.876 72.4992 97.7041 72.8053 97.398C73.1113 97.0919 73.2833 96.6768 73.2833 96.244V86.8329C73.2833 86.4001 73.1113 85.9849 72.8053 85.6789C72.4992 85.3728 72.0841 85.2008 71.6512 85.2008H62.24ZM70.0191 88.465H63.8721L63.8721 94.6119H70.0191V88.465ZM41.0218 85.2008C40.5889 85.2008 40.1738 85.3728 39.8677 85.6789C39.5616 85.9849 39.3897 86.4001 39.3897 86.8329V96.244C39.3897 96.6768 39.5616 97.0919 39.8677 97.398C40.1738 97.7041 40.5889 97.876 41.0218 97.876H50.433C50.8659 97.876 51.281 97.7041 51.5871 97.398C51.8932 97.0919 52.0651 96.6768 52.0651 96.244V86.8329C52.0651 86.4001 51.8932 85.9849 51.5871 85.6789C51.281 85.3728 50.8659 85.2008 50.433 85.2008H41.0218ZM48.8009 88.465H42.6539V94.6119H48.8009V88.465ZM83.4582 66.3781C83.0253 66.3781 82.6102 66.5501 82.3041 66.8562C81.998 67.1622 81.8261 67.5774 81.8261 68.0102V77.4215C81.8261 77.8543 81.998 78.2695 82.3041 78.5755C82.6102 78.8816 83.0253 79.0536 83.4582 79.0536H92.8694C93.3023 79.0536 93.7174 78.8816 94.0235 78.5755C94.3295 78.2695 94.5015 77.8543 94.5015 77.4215V68.0102C94.5015 67.5774 94.3295 67.1622 94.0235 66.8562C93.7174 66.5501 93.3023 66.3781 92.8694 66.3781H83.4582ZM91.2373 69.6423H85.0903V75.7894H91.2373V69.6423ZM41.0218 66.3781C40.5889 66.3781 40.1738 66.5501 39.8677 66.8562C39.5616 67.1622 39.3897 67.5774 39.3897 68.0102V77.4215C39.3897 77.8543 39.5616 78.2695 39.8677 78.5755C40.1738 78.8816 40.5889 79.0536 41.0218 79.0536H50.433C50.8659 79.0536 51.281 78.8816 51.5871 78.5755C51.8932 78.2695 52.0651 77.8543 52.0651 77.4215V68.0102C52.0651 67.5774 51.8932 67.1622 51.5871 66.8562C51.281 66.5501 50.8659 66.3781 50.433 66.3781H41.0218ZM48.8009 69.6423H42.6539V75.7894H48.8009V69.6423ZM62.24 66.3781C61.8071 66.3781 61.392 66.5501 61.0859 66.8562C60.7798 67.1622 60.6079 67.5774 60.6079 68.0102V77.4215C60.6079 77.8543 60.7798 78.2695 61.0859 78.5755C61.392 78.8816 61.8071 79.0536 62.24 79.0536H71.6512C72.0841 79.0536 72.4992 78.8816 72.8053 78.5755C73.1113 78.2695 73.2833 77.8543 73.2833 77.4215V68.0102C73.2833 67.5774 73.1113 67.1622 72.8053 66.8562C72.4992 66.5501 72.0841 66.3781 71.6512 66.3781H62.24ZM70.0191 69.6423H63.8721V75.7894H70.0191V69.6423ZM115.72 40.0431C115.72 39.6103 115.548 39.1951 115.242 38.8891C114.936 38.583 114.52 38.411 114.088 38.411L41.0218 38.411C40.5889 38.411 40.1738 38.583 39.8677 38.8891C39.5616 39.1951 39.3897 39.6103 39.3897 40.0431V58.5992C39.3897 59.032 39.5616 59.4472 39.8677 59.7532C40.1738 60.0593 40.5889 60.2313 41.0218 60.2313H114.088C114.52 60.2313 114.936 60.0593 115.242 59.7532C115.548 59.4472 115.72 59.032 115.72 58.5992V40.0431ZM112.456 56.9671V41.6752L42.6539 41.6752V56.9671H112.456ZM33.8261 121.283C34.3177 121.778 34.9021 122.17 35.5458 122.438C36.1895 122.706 36.8798 122.845 37.577 122.845H117.532C118.94 122.84 120.288 122.278 121.283 121.283C122.278 120.288 122.84 118.94 122.845 117.532V37.577C122.84 36.1696 122.278 34.8213 121.283 33.8261C120.288 32.8309 118.94 32.2694 117.532 32.2642L37.577 32.2642C36.1696 32.2694 34.8213 32.8308 33.826 33.826C32.8308 34.8213 32.2694 36.1696 32.2642 37.577L32.2642 117.532C32.2648 118.229 32.4031 118.92 32.6712 119.563C32.9392 120.207 33.3317 120.791 33.8261 121.283Z" fill="#007CEE"/>
</svg>
