<svg width="155" height="155" viewBox="0 0 155 155" fill="none" xmlns="http://www.w3.org/2000/svg">
<path d="M77.301 86.4659C72.2469 86.4659 68.1361 82.3552 68.1361 77.301C68.1361 72.2469 72.2469 68.1361 77.301 68.1361C82.3552 68.1361 86.4659 72.2469 86.4659 77.301C86.4659 82.3552 82.3552 86.4659 77.301 86.4659ZM77.301 70.315C73.4599 70.315 70.315 73.4374 70.315 77.301C70.315 81.1422 73.4374 84.287 77.301 84.287C81.1422 84.287 84.287 81.1647 84.287 77.301C84.287 73.4599 81.1422 70.315 77.301 70.315ZM52.8388 57.893C50.0534 57.893 47.7847 55.6242 47.7847 52.8388C47.7847 50.0534 50.0534 47.7847 52.8388 47.7847C55.6242 47.7847 57.893 50.0534 57.893 52.8388C57.893 55.6242 55.6242 57.893 52.8388 57.893ZM52.8388 49.986C51.2664 49.986 49.986 51.2664 49.986 52.8388C49.986 54.4112 51.2664 55.6916 52.8388 55.6916C54.4112 55.6916 55.6916 54.4112 55.6916 52.8388C55.6916 51.2664 54.4112 49.986 52.8388 49.986ZM52.8388 106.795C50.0534 106.795 47.7847 104.526 47.7847 101.741C47.7847 98.9553 50.0534 96.6866 52.8388 96.6866C55.6242 96.6866 57.893 98.9553 57.893 101.741C57.893 104.526 55.6242 106.795 52.8388 106.795ZM52.8388 98.9104C51.2664 98.9104 49.986 100.191 49.986 101.763C49.986 103.336 51.2664 104.616 52.8388 104.616C54.4112 104.616 55.6916 103.336 55.6916 101.763C55.6916 100.191 54.4112 98.9104 52.8388 98.9104ZM101.763 106.795C98.9778 106.795 96.709 104.526 96.709 101.741C96.709 98.9553 98.9778 96.6866 101.763 96.6866C104.549 96.6866 106.817 98.9553 106.817 101.741C106.817 104.526 104.549 106.795 101.763 106.795ZM101.763 98.9104C100.191 98.9104 98.9104 100.191 98.9104 101.763C98.9104 103.336 100.191 104.616 101.763 104.616C103.336 104.616 104.616 103.336 104.616 101.763C104.616 100.191 103.336 98.9104 101.763 98.9104ZM101.763 57.893C98.9778 57.893 96.709 55.6242 96.709 52.8388C96.709 50.0534 98.9778 47.7847 101.763 47.7847C104.549 47.7847 106.817 50.0534 106.817 52.8388C106.795 55.6242 104.549 57.893 101.763 57.893ZM101.763 49.986C100.191 49.986 98.9104 51.2664 98.9104 52.8388C98.9104 54.4112 100.191 55.6916 101.763 55.6916C103.336 55.6916 104.616 54.4112 104.616 52.8388C104.616 51.2664 103.336 49.986 101.763 49.986Z" fill="#007CEE"/>
<path d="M30.1065 125.596C29.8145 125.596 29.545 125.484 29.3203 125.282C28.8935 124.855 28.8935 124.158 29.3203 123.732L49.2675 103.784C49.6943 103.358 50.3906 103.358 50.8174 103.784C51.2442 104.211 51.2442 104.908 50.8174 105.334L30.8703 125.282C30.6681 125.484 30.3761 125.596 30.1065 125.596ZM55.647 100.033C55.3549 100.033 55.0854 99.9208 54.8608 99.7187C54.434 99.2919 54.434 98.5955 54.8608 98.1687L70.8095 82.2425C71.2363 81.8157 71.9326 81.8157 72.3594 82.2425C72.7862 82.6693 72.7862 83.3656 72.3594 83.7924L56.4107 99.7187C56.2085 99.9433 55.939 100.033 55.647 100.033Z" fill="#007CEE"/>
<path d="M40.2149 125.596H30.1065C29.5 125.596 29.0059 125.102 29.0059 124.496L29.0059 114.365C29.0059 113.758 29.5 113.264 30.1065 113.264C30.713 113.264 31.2072 113.758 31.2072 114.365L31.2072 123.395H40.2373C40.8438 123.395 41.338 123.889 41.338 124.496C41.3156 125.102 40.8214 125.596 40.2149 125.596ZM104.549 51.1541C104.257 51.1541 103.987 51.0418 103.763 50.8396C103.336 50.4128 103.336 49.7165 103.763 49.2897L123.71 29.3426C124.137 28.9158 124.833 28.9158 125.26 29.3426C125.687 29.7694 125.687 30.4657 125.26 30.8925L105.313 50.8396C105.11 51.0418 104.818 51.1541 104.549 51.1541ZM83.0069 72.6961C82.7148 72.6961 82.4453 72.5838 82.2207 72.3816C81.7939 71.9548 81.7939 71.2585 82.2207 70.8317L98.1469 54.883C98.5737 54.4562 99.2701 54.4562 99.6969 54.883C100.124 55.3098 100.124 56.0061 99.6969 56.4329L83.7706 72.3816C83.5684 72.5838 83.2989 72.6961 83.0069 72.6961Z" fill="#007CEE"/>
<path d="M124.495 41.3151C123.889 41.3151 123.395 40.8209 123.395 40.2144V31.2067L114.365 31.2067C113.758 31.2067 113.264 30.7126 113.264 30.1061C113.264 29.4996 113.758 29.0054 114.365 29.0054L124.495 29.0054C125.102 29.0054 125.596 29.4996 125.596 30.1061V40.2369C125.596 40.8209 125.102 41.3151 124.495 41.3151ZM124.495 125.596C124.203 125.596 123.934 125.484 123.709 125.282L103.762 105.335C103.335 104.908 103.335 104.211 103.762 103.785C104.189 103.358 104.885 103.358 105.312 103.785L125.259 123.732C125.686 124.159 125.686 124.855 125.259 125.282C125.057 125.484 124.787 125.596 124.495 125.596ZM98.9549 100.033C98.6629 100.033 98.3933 99.921 98.1687 99.7188L82.2425 83.7926C81.8157 83.3658 81.8157 82.6694 82.2425 82.2426C82.6693 81.8158 83.3656 81.8158 83.7924 82.2426L99.7187 98.1689C100.145 98.5957 100.145 99.292 99.7187 99.7188C99.5165 99.9435 99.2245 100.033 98.9549 100.033Z" fill="#007CEE"/>
<path d="M124.496 125.596H114.365C113.758 125.596 113.264 125.102 113.264 124.496C113.264 123.889 113.758 123.395 114.365 123.395H123.395V114.365C123.395 113.758 123.889 113.264 124.496 113.264C125.102 113.264 125.596 113.758 125.596 114.365V124.496C125.596 125.102 125.102 125.596 124.496 125.596ZM50.0534 51.1541C49.7614 51.1541 49.4919 51.0418 49.2672 50.8396L29.3201 30.87C28.8933 30.4432 28.8933 29.7469 29.3201 29.3201C29.7469 28.8933 30.4432 28.8933 30.87 29.3201L50.8172 49.2672C51.244 49.694 51.244 50.3904 50.8172 50.8172C50.615 51.0418 50.3454 51.1541 50.0534 51.1541ZM71.5954 72.6961C71.3034 72.6961 71.0339 72.5838 70.8092 72.3816L54.8605 56.4329C54.4337 56.0061 54.4337 55.3098 54.8605 54.883C55.2873 54.4562 55.9837 54.4562 56.4105 54.883L72.3592 70.8317C72.786 71.2585 72.786 71.9548 72.3592 72.3816C72.157 72.5838 71.865 72.6961 71.5954 72.6961Z" fill="#007CEE"/>
<path d="M30.1065 41.3151C29.5 41.3151 29.0059 40.8209 29.0059 40.2144V30.1061C29.0059 29.4996 29.5 29.0054 30.1065 29.0054H40.2373C40.8438 29.0054 41.338 29.4996 41.338 30.1061C41.338 30.7126 40.8438 31.2067 40.2373 31.2067H31.2072V40.2369C31.2072 40.8209 30.713 41.3151 30.1065 41.3151ZM65.3285 46.5939C65.0365 46.5939 64.7669 46.4816 64.5423 46.2794L57.3541 39.0913C56.9273 38.6645 56.9273 37.9681 57.3541 37.5413C57.7809 37.1145 58.4773 37.1145 58.9041 37.5413L66.0922 44.7295C66.519 45.1563 66.519 45.8526 66.0922 46.2794C65.8901 46.4816 65.6205 46.5939 65.3285 46.5939Z" fill="#007CEE"/>
<path d="M58.1625 46.5943C57.8704 46.5943 57.6009 46.482 57.3762 46.2798C56.9495 45.853 56.9495 45.1567 57.3762 44.7299L64.5644 37.5417C64.9912 37.1149 65.6876 37.1149 66.1143 37.5417C66.5411 37.9685 66.5411 38.6649 66.1143 39.0917L58.9262 46.2798C58.724 46.482 58.432 46.5943 58.1625 46.5943ZM93.6315 43.0002C93.2946 43.0002 92.9801 42.843 92.7554 42.5734L89.97 38.9793C89.5882 38.5076 89.678 37.8113 90.1722 37.4294C90.6439 37.0475 91.3403 37.1374 91.7222 37.6316L94.5076 41.2256C94.8894 41.6974 94.7996 42.3937 94.3054 42.7756C94.1032 42.9328 93.8786 43.0002 93.6315 43.0002Z" fill="#007CEE"/>
<path d="M90.8461 46.594C90.6215 46.594 90.3744 46.5266 90.1722 46.3694C89.7005 45.9875 89.6106 45.3136 89.9925 44.8194L95.5858 37.6313C95.9677 37.1595 96.6415 37.0697 97.1357 37.4516C97.6074 37.8334 97.6973 38.5073 97.3154 39.0015L91.7222 46.1897C91.4975 46.4368 91.1606 46.594 90.8461 46.594ZM65.3281 117.375C65.0361 117.375 64.7666 117.263 64.5419 117.06L57.3538 109.872C56.927 109.445 56.927 108.749 57.3538 108.322C57.7806 107.895 58.4769 107.895 58.9037 108.322L66.0919 115.51C66.5187 115.937 66.5187 116.634 66.0919 117.06C65.8897 117.285 65.6202 117.375 65.3281 117.375Z" fill="#007CEE"/>
<path d="M58.1632 117.375C57.8712 117.375 57.6016 117.263 57.377 117.061C56.9502 116.634 56.9502 115.937 57.377 115.511L64.5651 108.322C64.9919 107.896 65.6883 107.896 66.1151 108.322C66.5419 108.749 66.5419 109.446 66.1151 109.872L58.9269 117.061C58.7248 117.285 58.4327 117.375 58.1632 117.375ZM93.6322 113.781C93.2953 113.781 92.9808 113.646 92.7562 113.354L89.9708 109.783C89.5889 109.311 89.6787 108.614 90.1729 108.233C90.6447 107.851 91.341 107.941 91.7229 108.435L94.5083 112.006C94.8902 112.478 94.8003 113.174 94.3061 113.556C94.104 113.714 93.8793 113.781 93.6322 113.781Z" fill="#007CEE"/>
<path d="M90.846 117.375C90.6214 117.375 90.3743 117.307 90.1721 117.15C89.7004 116.768 89.6105 116.094 89.9924 115.6L95.5857 108.412C95.9676 107.94 96.6414 107.85 97.1356 108.232C97.6074 108.614 97.6972 109.288 97.3153 109.782L91.7221 116.97C91.4974 117.24 91.1605 117.375 90.846 117.375ZM40.3717 46.3241C40.0797 46.3241 39.8101 46.2118 39.5855 46.0096C39.1587 45.5828 39.1587 44.8865 39.5855 44.4597L44.4375 39.6077C44.8643 39.1809 45.5606 39.1809 45.9874 39.6077C46.4142 40.0345 46.4142 40.7308 45.9874 41.1576L41.1354 46.0096C40.9333 46.2118 40.6637 46.3241 40.3717 46.3241ZM109.378 115.33C109.086 115.33 108.816 115.218 108.592 115.016C108.165 114.589 108.165 113.893 108.592 113.466L113.444 108.614C113.871 108.187 114.567 108.187 114.994 108.614C115.421 109.041 115.421 109.737 114.994 110.164L110.142 115.016C109.94 115.218 109.648 115.33 109.378 115.33ZM45.2237 115.33C44.9317 115.33 44.6621 115.218 44.4375 115.016L39.5855 110.164C39.1587 109.737 39.1587 109.041 39.5855 108.614C40.0123 108.187 40.7086 108.187 41.1354 108.614L45.9874 113.466C46.4142 113.893 46.4142 114.589 45.9874 115.016C45.7853 115.218 45.5157 115.33 45.2237 115.33ZM114.23 46.3241C113.938 46.3241 113.668 46.2118 113.444 46.0096L108.592 41.1576C108.165 40.7308 108.165 40.0345 108.592 39.6077C109.019 39.1809 109.715 39.1809 110.142 39.6077L114.994 44.4597C115.421 44.8865 115.421 45.5828 114.994 46.0096C114.792 46.2118 114.5 46.3241 114.23 46.3241Z" fill="#007CEE"/>
</svg>
