<svg xmlns="http://www.w3.org/2000/svg" width="375" height="438" fill="none"><rect width="360" height="438" x="15" fill="#E4EDF8" rx="8"/><rect width="31" height="13" y="37" fill="#007CEE" rx="6.5"/><rect width="31" height="13" y="72" fill="#007CEE" rx="6.5"/><rect width="31" height="13" y="107" fill="#007CEE" rx="6.5"/><rect width="31" height="13" y="142" fill="#007CEE" rx="6.5"/><rect width="31" height="13" y="177" fill="#007CEE" rx="6.5"/><rect width="31" height="13" y="212" fill="#007CEE" rx="6.5"/><rect width="31" height="13" y="247" fill="#007CEE" rx="6.5"/><rect width="31" height="13" y="282" fill="#007CEE" rx="6.5"/><rect width="31" height="13" y="317" fill="#007CEE" rx="6.5"/><rect width="31" height="13" y="352" fill="#007CEE" rx="6.5"/><rect width="31" height="13" y="387" fill="#007CEE" rx="6.5"/><rect width="300" height="7" x="45" y="30" fill="#CDE2F7" rx="1"/><rect width="300" height="7" x="45" y="42" fill="#CDE2F7" rx="1"/><rect width="300" height="7" x="45" y="54" fill="#CDE2F7" rx="1"/><rect width="300" height="7" x="45" y="66" fill="#CDE2F7" rx="1"/><rect width="300" height="7" x="45" y="78" fill="#CDE2F7" rx="1"/><rect width="300" height="7" x="45" y="90" fill="#CDE2F7" rx="1"/><rect width="300" height="7" x="45" y="102" fill="#CDE2F7" rx="1"/><rect width="300" height="7" x="45" y="114" fill="#CDE2F7" rx="1"/><rect width="300" height="7" x="45" y="126" fill="#CDE2F7" rx="1"/><rect width="300" height="7" x="45" y="138" fill="#CDE2F7" rx="1"/><rect width="300" height="7" x="45" y="150" fill="#CDE2F7" rx="1"/><rect width="300" height="7" x="45" y="162" fill="#CDE2F7" rx="1"/><rect width="300" height="7" x="45" y="174" fill="#CDE2F7" rx="1"/><rect width="300" height="7" x="45" y="186" fill="#CDE2F7" rx="1"/><rect width="300" height="7" x="45" y="198" fill="#CDE2F7" rx="1"/><rect width="300" height="7" x="45" y="210" fill="#CDE2F7" rx="1"/><rect width="300" height="7" x="45" y="222" fill="#CDE2F7" rx="1"/><rect width="300" height="7" x="45" y="234" fill="#CDE2F7" rx="1"/><rect width="300" height="7" x="45" y="246" fill="#CDE2F7" rx="1"/><rect width="300" height="7" x="45" y="258" fill="#CDE2F7" rx="1"/><rect width="300" height="7" x="45" y="270" fill="#CDE2F7" rx="1"/><rect width="300" height="7" x="45" y="282" fill="#CDE2F7" rx="1"/><rect width="300" height="7" x="45" y="294" fill="#CDE2F7" rx="1"/><rect width="300" height="7" x="45" y="306" fill="#CDE2F7" rx="1"/><rect width="300" height="7" x="45" y="318" fill="#CDE2F7" rx="1"/><rect width="300" height="7" x="45" y="330" fill="#CDE2F7" rx="1"/><rect width="300" height="7" x="45" y="342" fill="#CDE2F7" rx="1"/><rect width="300" height="7" x="45" y="354" fill="#CDE2F7" rx="1"/><rect width="300" height="7" x="45" y="366" fill="#CDE2F7" rx="1"/><rect width="210" height="18" x="45" y="391" fill="#CDE2F7" rx="2"/></svg>