<svg width="155" height="155" viewBox="0 0 155 155" fill="none" xmlns="http://www.w3.org/2000/svg">
<path fill-rule="evenodd" clip-rule="evenodd" d="M69.7363 82.6101C72.3606 83.2791 81.7711 85.1664 85.0198 85.8134L86.1845 93.4977C86.2199 93.732 86.3065 93.9555 86.4382 94.1525C86.5698 94.3494 86.7431 94.515 86.946 94.6373C87.1488 94.7597 87.3761 94.8359 87.6117 94.8605C87.8473 94.8851 88.0854 94.8575 88.3092 94.7797L111.348 86.767C111.689 86.6489 111.981 86.4199 112.176 86.1167C112.371 85.8135 112.459 85.4535 112.426 85.0944C112.393 84.7352 112.24 84.3976 111.992 84.1355C111.744 83.8734 111.416 83.7019 111.059 83.6484L95.913 81.3646L95.1058 73.5706C95.0812 73.3328 95.004 73.1035 94.88 72.8992C94.7559 72.6949 94.5879 72.5207 94.3883 72.3893C94.1886 72.2579 93.9623 72.1725 93.7256 72.1392C93.4889 72.106 93.2477 72.1258 93.0196 72.1971L69.6531 79.5077C69.3181 79.6125 69.0265 79.8238 68.8225 80.1094C68.6184 80.395 68.5131 80.7394 68.5226 81.0903C68.532 81.4412 68.6556 81.7794 68.8746 82.0537C69.0937 82.328 69.3962 82.5233 69.7363 82.6101ZM76.408 80.7746L92.0999 75.8653L92.8327 82.9396C92.8696 83.2953 93.0236 83.6286 93.2704 83.8872C93.5173 84.1458 93.8432 84.315 94.1967 84.3683L104.121 85.8648L89.0832 91.0947L88.04 84.2103C87.9903 83.882 87.8405 83.577 87.611 83.337C87.3815 83.097 87.0836 82.9337 86.7578 82.8693C86.7578 82.8693 81.1609 81.7641 76.408 80.7746ZM73.0924 116.482L81.5577 101.82C81.7716 101.449 81.8296 101.009 81.7188 100.596C81.6081 100.182 81.3378 99.8301 80.9673 99.6162L54.3216 84.2324C45.3372 79.0452 42.2543 67.5399 47.4416 58.5555C52.6286 49.5713 64.134 46.4884 73.1182 51.6754L99.7639 67.0595C100.134 67.2734 100.575 67.3313 100.988 67.2206C101.401 67.1099 101.753 66.8395 101.967 66.4691L110.433 51.8068C110.647 51.4363 110.705 50.996 110.594 50.5828C110.483 50.1695 110.213 49.8172 109.842 49.6033L83.1966 34.2193C64.5779 23.4699 40.7348 29.8586 29.9854 48.4774C19.2358 67.0959 25.6246 90.9389 44.2433 101.689L70.889 117.072C71.2595 117.286 71.6997 117.344 72.113 117.233C72.5262 117.123 72.8785 116.852 73.0924 116.482ZM94.4034 44.4149L106.832 51.5906L99.9801 63.4588L87.5512 56.2831L94.4034 44.4149ZM84.7574 54.67L74.7313 48.8816C64.205 42.8041 50.7249 46.4161 44.6475 56.9424C38.5701 67.4687 42.1822 80.9488 52.7085 87.0263L62.7346 92.8147L55.8824 104.683L45.8564 98.8944C28.7798 89.0352 22.9201 67.1668 32.7793 50.0905C42.6385 33.0138 64.5069 27.1542 81.5835 37.0134L91.6095 42.8018L84.7574 54.67ZM65.5284 94.4278L77.9573 101.604L71.1051 113.472L58.6763 106.296L65.5284 94.4278ZM126.235 72.8338C127.116 73.3427 128.245 73.0401 128.753 72.1591C128.998 71.7356 129.064 71.2325 128.937 70.7603C128.811 70.2881 128.502 69.8854 128.079 69.6406L112.856 60.8518C112.432 60.6077 111.929 60.5416 111.457 60.6681C110.985 60.7946 110.582 61.1034 110.337 61.5266C110.093 61.9501 110.027 62.4533 110.154 62.9255C110.28 63.3977 110.589 63.8004 111.012 64.0451L126.235 72.8338ZM97.36 122.847C97.7835 123.091 98.2866 123.157 98.7589 123.031C99.2311 122.904 99.6338 122.595 99.8785 122.172C100.387 121.291 100.085 120.162 99.2035 119.654L83.981 110.865C83.5575 110.621 83.0544 110.555 82.5821 110.681C82.1099 110.808 81.7072 111.116 81.4625 111.54C81.2183 111.963 81.1523 112.466 81.2788 112.938C81.4054 113.411 81.7142 113.813 82.1375 114.058L97.36 122.847ZM124.535 62.0775C125.416 62.5864 126.545 62.284 127.053 61.4028C127.562 60.5216 127.26 59.3931 126.379 58.8846L117.088 53.5208C116.207 53.012 115.079 53.3143 114.57 54.1955C114.061 55.0767 114.364 56.2052 115.245 56.7138L124.535 62.0775ZM95.6602 112.09C96.0837 112.335 96.5868 112.401 97.059 112.274C97.5312 112.148 97.9339 111.839 98.1785 111.416C98.4226 110.992 98.4887 110.489 98.3622 110.017C98.2357 109.545 97.9269 109.142 97.5038 108.897L88.2135 103.534C87.3323 103.025 86.2038 103.327 85.6953 104.209C85.451 104.632 85.3848 105.135 85.5114 105.607C85.6379 106.08 85.9467 106.482 86.37 106.727L95.6602 112.09ZM116.07 76.7398C116.493 76.984 116.997 77.05 117.469 76.9235C117.941 76.797 118.344 76.4883 118.588 76.0651C118.832 75.6416 118.899 75.1384 118.772 74.6662C118.646 74.1939 118.337 73.7913 117.913 73.5466L108.623 68.1831C107.742 67.6743 106.614 67.9766 106.105 68.8578C105.596 69.739 105.899 70.8673 106.78 71.3761L116.07 76.7398ZM87.195 126.753C88.0762 127.262 89.2044 126.959 89.7132 126.078C90.222 125.197 89.9197 124.068 89.0385 123.56L79.7483 118.196C78.8671 117.687 77.7388 117.989 77.23 118.871C76.7212 119.752 77.0235 120.88 77.9047 121.389L87.195 126.753Z" fill="#007CEE"/>
</svg>
