<svg xmlns="http://www.w3.org/2000/svg" width="498" height="418" fill="none"><g clip-path="url(#a)"><path fill="#007CEE" d="m128.197 189.379 31.136 86.007 44.862-58.063z"/><path fill="#C2DFFF" d="m497.075 0-158.51 287.816A23.15 23.15 0 0 1 324.309 299a23.15 23.15 0 0 1-17.945-2.509L23.386 126.457a9.277 9.277 0 0 1 2.678-16.991z"/><path fill="#007CEE" d="M128.226 189.38 497.076 0 173.809 216.963l7.62 24.219z"/><path fill="#007CEE" d="m200.963 233.109-41.628 42.276 14.478-58.425z"/><mask id="b" width="150" height="133" x="0" y="285" maskUnits="userSpaceOnUse" style="mask-type:luminance"><path fill="#fff" d="M150 285H0v133h150z"/></mask><g mask="url(#b)"><path stroke="#051923" stroke-dasharray="20 20" stroke-linejoin="round" stroke-width="4" d="M150 285c-23.667 22.5-81.7 29-128.5 127s-73 135-166.5 129.5"/></g></g><defs><clipPath id="a"><path fill="#fff" d="M0 0h498v418H0z"/></clipPath></defs></svg>