<svg width="155" height="155" viewBox="0 0 155 155" fill="none" xmlns="http://www.w3.org/2000/svg">
<path d="M116.272 109.72C116.389 109.7 116.233 37.5817 116.294 37.5254C116.311 35.4547 115.506 33.4617 114.056 31.9833C112.606 30.5048 110.629 29.6617 108.558 29.6386H105.2V24.9411C105.2 24.4263 104.996 23.9326 104.632 23.5685C104.267 23.2045 103.774 23 103.259 23C102.744 23 102.25 23.2045 101.886 23.5685C101.522 23.9326 101.318 24.4263 101.318 24.9411V29.6386H94.7568V24.9411C94.7568 24.4263 94.5523 23.9326 94.1883 23.5685C93.8242 23.2045 93.3305 23 92.8157 23C92.3009 23 91.8071 23.2045 91.4431 23.5685C91.0791 23.9326 90.8746 24.4263 90.8746 24.9411V29.6386H84.3116V24.9411C84.3116 24.4263 84.1071 23.9326 83.7431 23.5685C83.379 23.2045 82.8853 23 82.3705 23C81.8557 23 81.362 23.2045 80.9979 23.5685C80.6339 23.9326 80.4294 24.4263 80.4294 24.9411V29.6386H73.8664V24.9411C73.8664 24.4263 73.6619 23.9326 73.2979 23.5685C72.9339 23.2045 72.4401 23 71.9253 23C71.4105 23 70.9168 23.2045 70.5527 23.5685C70.1887 23.9326 69.9842 24.4263 69.9842 24.9411V29.6386H63.4212V24.9411C63.4212 24.4263 63.2167 23.9326 62.8527 23.5685C62.4887 23.2045 61.9949 23 61.4801 23C60.9653 23 60.4716 23.2045 60.1075 23.5685C59.7435 23.9326 59.539 24.4263 59.539 24.9411V29.6386H52.976V24.9411C52.976 24.4263 52.7715 23.9326 52.4075 23.5685C52.0435 23.2045 51.5497 23 51.0349 23C50.5201 23 50.0264 23.2045 49.6623 23.5685C49.2983 23.9326 49.0938 24.4263 49.0938 24.9411V29.6386H45.7357C43.665 29.6617 41.6879 30.5048 40.2379 31.9833C38.7879 33.4617 37.9832 35.4547 38.0003 37.5254V123.816C37.9832 125.887 38.7879 127.88 40.2379 129.358C41.6879 130.837 43.665 131.68 45.7357 131.703H95.2712C95.5487 131.709 95.8234 131.646 96.071 131.521C96.2972 131.415 96.5035 131.271 96.6805 131.095L115.762 110.943C116.068 110.606 116.248 110.174 116.272 109.72ZM93.3282 114.871V127.821H45.7357C44.6941 127.799 43.7036 127.366 42.9812 126.615C42.2589 125.864 41.8638 124.858 41.8825 123.816V37.5254C41.8638 36.4838 42.2589 35.4773 42.9812 34.7266C43.7036 33.9759 44.6941 33.5423 45.7357 33.5209H49.0938V38.1466C49.0938 38.6614 49.2983 39.1551 49.6623 39.5192C50.0264 39.8832 50.5201 40.0877 51.0349 40.0877C51.5497 40.0877 52.0435 39.8832 52.4075 39.5192C52.7715 39.1551 52.976 38.6614 52.976 38.1466V33.5209H59.537V38.1466C59.537 38.6614 59.7416 39.1551 60.1056 39.5192C60.4696 39.8832 60.9634 40.0877 61.4782 40.0877C61.993 40.0877 62.4867 39.8832 62.8508 39.5192C63.2148 39.1551 63.4193 38.6614 63.4193 38.1466V33.5209H69.9842V38.1466C69.9842 38.6614 70.1887 39.1551 70.5527 39.5192C70.9168 39.8832 71.4105 40.0877 71.9253 40.0877C72.4401 40.0877 72.9339 39.8832 73.2979 39.5192C73.6619 39.1551 73.8664 38.6614 73.8664 38.1466V33.5209H80.4274V38.1466C80.4274 38.6614 80.6319 39.1551 80.996 39.5192C81.36 39.8832 81.8537 40.0877 82.3686 40.0877C82.8834 40.0877 83.3771 39.8832 83.7411 39.5192C84.1052 39.1551 84.3097 38.6614 84.3097 38.1466V33.5209H90.8726V38.1466C90.8726 38.6614 91.0771 39.1551 91.4412 39.5192C91.8052 39.8832 92.2989 40.0877 92.8137 40.0877C93.3286 40.0877 93.8223 39.8832 94.1863 39.5192C94.5504 39.1551 94.7549 38.6614 94.7549 38.1466V33.5209H101.318V38.1466C101.318 38.6614 101.522 39.1551 101.886 39.5192C102.25 39.8832 102.744 40.0877 103.259 40.0877C103.774 40.0877 104.267 39.8832 104.632 39.5192C104.996 39.1551 105.2 38.6614 105.2 38.1466V33.5209H108.558C109.6 33.5423 110.59 33.9759 111.313 34.7266C112.035 35.4773 112.43 36.4838 112.411 37.5254V107.666H100.402C98.5091 107.686 96.7017 108.456 95.376 109.807C94.0503 111.157 93.3126 112.979 93.3282 114.871ZM97.2104 124.888V114.871C97.1938 114.008 97.5201 113.174 98.118 112.551C98.7159 111.928 99.5364 111.567 100.4 111.548H109.839L97.2104 124.888Z" fill="#007CEE"/>
<path d="M75.4551 59.7831H103.26C103.775 59.7831 104.268 59.5786 104.632 59.2146C104.996 58.8506 105.201 58.3568 105.201 57.842C105.201 57.3272 104.996 56.8335 104.632 56.4694C104.268 56.1054 103.775 55.9009 103.26 55.9009H75.4551C74.9403 55.9009 74.4465 56.1054 74.0825 56.4694C73.7185 56.8335 73.514 57.3272 73.514 57.842C73.514 58.3568 73.7185 58.8506 74.0825 59.2146C74.4465 59.5786 74.9403 59.7831 75.4551 59.7831ZM51.0357 59.7831H67.0985C67.6134 59.7831 68.1071 59.5786 68.4711 59.2146C68.8352 58.8506 69.0397 58.3568 69.0397 57.842C69.0397 57.3272 68.8352 56.8335 68.4711 56.4694C68.1071 56.1054 67.6134 55.9009 67.0985 55.9009H51.0357C50.5209 55.9009 50.0272 56.1054 49.6631 56.4694C49.2991 56.8335 49.0946 57.3272 49.0946 57.842C49.0946 58.3568 49.2991 58.8506 49.6631 59.2146C50.0272 59.5786 50.5209 59.7831 51.0357 59.7831ZM103.26 68.4328H92.1662C91.6514 68.4328 91.1577 68.6373 90.7936 69.0013C90.4296 69.3654 90.2251 69.8591 90.2251 70.3739C90.2251 70.8887 90.4296 71.3825 90.7936 71.7465C91.1577 72.1105 91.6514 72.315 92.1662 72.315H103.26C103.775 72.315 104.268 72.1105 104.632 71.7465C104.996 71.3825 105.201 70.8887 105.201 70.3739C105.201 69.8591 104.996 69.3654 104.632 69.0013C104.268 68.6373 103.775 68.4328 103.26 68.4328ZM51.0357 72.315H83.8116C84.3264 72.315 84.8202 72.1105 85.1842 71.7465C85.5482 71.3825 85.7527 70.8887 85.7527 70.3739C85.7527 69.8591 85.5482 69.3654 85.1842 69.0013C84.8202 68.6373 84.3264 68.4328 83.8116 68.4328H51.0357C50.5209 68.4328 50.0272 68.6373 49.6631 69.0013C49.2991 69.3654 49.0946 69.8591 49.0946 70.3739C49.0946 70.8887 49.2991 71.3825 49.6631 71.7465C50.0272 72.1105 50.5209 72.315 51.0357 72.315ZM51.0357 84.8489H103.26C103.775 84.8489 104.268 84.6444 104.632 84.2803C104.996 83.9163 105.201 83.4226 105.201 82.9077C105.201 82.3929 104.996 81.8992 104.632 81.5352C104.268 81.1711 103.775 80.9666 103.26 80.9666H51.0357C50.5209 80.9666 50.0272 81.1711 49.6631 81.5352C49.2991 81.8992 49.0946 82.3929 49.0946 82.9077C49.0946 83.4226 49.2991 83.9163 49.6631 84.2803C50.0272 84.6444 50.5209 84.8489 51.0357 84.8489ZM105.201 95.4416C105.201 94.9268 104.996 94.433 104.632 94.069C104.268 93.705 103.775 93.5005 103.26 93.5005H67.0985C66.5837 93.5005 66.09 93.705 65.726 94.069C65.3619 94.433 65.1574 94.9268 65.1574 95.4416C65.1574 95.9564 65.3619 96.4501 65.726 96.8142C66.09 97.1782 66.5837 97.3827 67.0985 97.3827H103.262C103.777 97.3827 104.27 97.1782 104.634 96.8142C104.998 96.4501 105.201 95.9564 105.201 95.4416ZM58.7284 93.5005H51.0357C50.5209 93.5005 50.0272 93.705 49.6631 94.069C49.2991 94.433 49.0946 94.9268 49.0946 95.4416C49.0946 95.9564 49.2991 96.4501 49.6631 96.8142C50.0272 97.1782 50.5209 97.3827 51.0357 97.3827H58.7284C59.2432 97.3827 59.737 97.1782 60.101 96.8142C60.465 96.4501 60.6695 95.9564 60.6695 95.4416C60.6695 94.9268 60.465 94.433 60.101 94.069C59.737 93.705 59.2432 93.5005 58.7284 93.5005Z" fill="#007CEE"/>
</svg>
