<svg width="155" height="155" viewBox="0 0 155 155" fill="none" xmlns="http://www.w3.org/2000/svg">
<path d="M122.316 28H59.5217C57.9305 28.0014 56.4049 28.6342 55.2798 29.7593C54.1546 30.8845 53.5219 32.4101 53.5204 34.0013V78.9523L29.6364 108.968C27.8094 111.172 26.8737 113.98 27.0137 116.839C27.1537 119.699 28.3591 122.402 30.3927 124.417C31.4594 125.314 32.6992 125.983 34.0352 126.38C35.3712 126.778 36.7747 126.896 38.1584 126.728C39.5421 126.56 40.8765 126.109 42.0785 125.404C43.2805 124.698 44.3245 123.752 45.1454 122.626L53.5204 112.1V116.664C53.5214 118.256 54.1539 119.782 55.2791 120.908C56.4043 122.033 57.9302 122.666 59.5217 122.668H122.316C123.907 122.666 125.433 122.032 126.558 120.907C127.683 119.782 128.315 118.256 128.317 116.664V34.0031C128.315 32.4121 127.682 30.8867 126.557 29.7617C125.432 28.6366 123.907 28.0019 122.316 28ZM65.1377 74.5739L70.9454 79.5439L69.6065 84.447L61.0361 76.7414L65.1377 74.5739ZM44.827 117.211L34.7168 108.394C34.7259 108.374 56.6179 80.8755 56.6305 80.8556L58.1196 78.983L68.1012 87.9606L44.827 117.211ZM72.002 75.6829L68.5771 72.752L73.5181 70.1394L72.002 75.6829ZM37.2588 123.212C31.0784 123.668 28.616 115.807 32.4625 111.231L42.5708 120.048C41.9604 120.922 41.1711 121.656 40.2552 122.201C39.3394 122.747 38.318 123.091 37.2588 123.212ZM124.698 116.664C124.698 117.296 124.447 117.902 124 118.349C123.553 118.796 122.948 119.048 122.316 119.049H59.5217C58.8898 119.048 58.284 118.796 57.8373 118.349C57.3906 117.902 57.1394 117.296 57.139 116.664V107.553L71.9929 88.8833C72.1275 88.6796 72.238 88.461 72.3222 88.2319L77.2072 70.3692C77.3947 69.7586 77.3981 69.1064 77.217 68.494C77.0359 67.8815 76.6783 67.3361 76.189 66.9257C75.6996 66.5153 75.1002 66.2582 74.4656 66.1865C73.831 66.1148 73.1893 66.2318 72.6208 66.5227C68.7707 68.5708 60.9764 72.6723 57.139 74.7114V34.0013C57.1399 33.3696 57.3913 32.7641 57.8379 32.3175C58.2846 31.8708 58.8901 31.6195 59.5217 31.6185L122.316 31.6185C122.947 31.6195 123.553 31.8708 123.999 32.3175C124.446 32.7641 124.697 33.3696 124.698 34.0013V116.664Z" fill="#007CEE"/>
<path d="M111.11 46.4459C110.567 46.4489 110.03 46.3425 109.529 46.133C109.029 45.9234 108.575 45.6151 108.197 45.2264C106.786 43.932 104.94 43.2139 103.025 43.2139C101.11 43.2139 99.2647 43.932 97.8534 45.2264C97.4736 45.6126 97.0209 45.9194 96.5214 46.1287C96.0219 46.3381 95.4857 46.446 94.9441 46.446C94.4025 46.446 93.8663 46.3381 93.3668 46.1287C92.8673 45.9194 92.4145 45.6126 92.0348 45.2264C90.6249 43.9321 88.7806 43.214 86.8667 43.214C84.9527 43.214 83.1084 43.9321 81.6985 45.2264C81.3196 45.6121 80.8677 45.9184 80.3691 46.1275C79.8705 46.3366 79.3353 46.4443 78.7947 46.4443C78.254 46.4443 77.7188 46.3366 77.2202 46.1275C76.7216 45.9184 76.2697 45.6121 75.8908 45.2264C74.4902 43.9179 72.6403 43.1976 70.7236 43.2145C70.2437 43.2145 69.7835 43.4051 69.4442 43.7444C69.1049 44.0837 68.9143 44.5439 68.9143 45.0238C68.9143 45.5036 69.1049 45.9638 69.4442 46.3031C69.7835 46.6424 70.2437 46.833 70.7236 46.833C71.2648 46.8299 71.8011 46.9363 72.3002 47.1458C72.7992 47.3554 73.2507 47.6638 73.6274 48.0525C75.0447 49.3305 76.8854 50.0378 78.7938 50.0378C80.7021 50.0378 82.5428 49.3305 83.9601 48.0525C84.3393 47.6664 84.7917 47.3598 85.2907 47.1505C85.7898 46.9412 86.3255 46.8334 86.8667 46.8334C87.4078 46.8334 87.9436 46.9412 88.4426 47.1505C88.9416 47.3598 89.394 47.6664 89.7732 48.0525C91.1837 49.347 93.0286 50.0653 94.9432 50.0653C96.8577 50.0653 98.7026 49.347 100.113 48.0525C100.493 47.6663 100.947 47.3597 101.447 47.1504C101.947 46.941 102.483 46.8332 103.025 46.8332C103.567 46.8332 104.104 46.941 104.604 47.1504C105.104 47.3597 105.557 47.6663 105.937 48.0525C107.34 49.3616 109.193 50.0819 111.112 50.0644C111.591 50.0644 112.052 49.8738 112.391 49.5344C112.73 49.1951 112.921 48.735 112.921 48.2551C112.921 47.7753 112.73 47.3151 112.391 46.9758C112.052 46.6365 111.59 46.4459 111.11 46.4459ZM111.11 60.7933C110.567 60.7963 110.03 60.6899 109.529 60.4804C109.029 60.2708 108.575 59.9625 108.197 59.5738C106.786 58.2794 104.94 57.5613 103.025 57.5613C101.11 57.5613 99.2647 58.2794 97.8534 59.5738C97.4736 59.96 97.0209 60.2668 96.5214 60.4762C96.0219 60.6855 95.4857 60.7934 94.9441 60.7934C94.4025 60.7934 93.8663 60.6855 93.3668 60.4762C92.8673 60.2668 92.4145 59.96 92.0348 59.5738C90.6249 58.2795 88.7806 57.5614 86.8667 57.5614C84.9527 57.5614 83.1084 58.2795 81.6985 59.5738C81.3196 59.9595 80.8677 60.2658 80.3691 60.4749C79.8705 60.684 79.3353 60.7917 78.7947 60.7917C78.254 60.7917 77.7188 60.684 77.2202 60.4749C76.7216 60.2658 76.2697 59.9595 75.8908 59.5738C74.4902 58.2653 72.6403 57.545 70.7236 57.5619C70.2437 57.5619 69.7835 57.7525 69.4442 58.0918C69.1049 58.4311 68.9143 58.8913 68.9143 59.3712C68.9143 59.851 69.1049 60.3112 69.4442 60.6505C69.7835 60.9898 70.2437 61.1804 70.7236 61.1804C71.2647 61.177 71.8009 61.2831 72.3 61.4924C72.799 61.7017 73.2506 62.0097 73.6274 62.3981C75.0447 63.6761 76.8854 64.3834 78.7938 64.3834C80.7021 64.3834 82.5428 63.6761 83.9601 62.3981C84.3393 62.012 84.7917 61.7054 85.2907 61.4961C85.7898 61.2868 86.3255 61.179 86.8667 61.179C87.4078 61.179 87.9436 61.2868 88.4426 61.4961C88.9416 61.7054 89.394 62.012 89.7732 62.3981C91.1837 63.6926 93.0286 64.4109 94.9432 64.4109C96.8577 64.4109 98.7026 63.6926 100.113 62.3981C100.493 62.0119 100.947 61.7053 101.447 61.4959C101.947 61.2866 102.483 61.1788 103.025 61.1788C103.567 61.1788 104.104 61.2866 104.604 61.4959C105.104 61.7053 105.557 62.0119 105.937 62.3981C107.34 63.7079 109.192 64.4288 111.112 64.4118C111.591 64.4118 112.052 64.2212 112.391 63.8819C112.73 63.5425 112.921 63.0824 112.921 62.6025C112.921 62.1227 112.73 61.6625 112.391 61.3232C112.052 60.9839 111.59 60.7933 111.11 60.7933ZM111.11 74.3627C110.441 74.3817 109.785 74.178 109.244 73.7837C108.134 73.0686 106.84 72.6884 105.519 72.6884C104.198 72.6884 102.905 73.0686 101.794 73.7837C101.245 74.1582 100.596 74.3585 99.9313 74.3585C99.2668 74.3585 98.6177 74.1582 98.0687 73.7837C96.959 73.0688 95.667 72.6886 94.347 72.6886C93.027 72.6886 91.735 73.0688 90.6254 73.7837C90.0892 74.181 89.4343 74.3851 88.7673 74.3627C86.4243 74.2107 86.2271 72.6131 83.1875 72.6873C82.7077 72.6873 82.2475 72.8779 81.9082 73.2172C81.5689 73.5565 81.3783 74.0167 81.3783 74.4966C81.3783 74.9764 81.5689 75.4366 81.9082 75.7759C82.2475 76.1152 82.7077 76.3058 83.1875 76.3058C85.5233 76.4578 85.7313 78.0536 88.7673 77.9812C91.8068 78.0536 92.004 76.4578 94.347 76.3058C95.0144 76.2844 95.6696 76.4884 96.2069 76.8848C97.3168 77.5998 98.6092 77.9801 99.9295 77.9801C101.25 77.9801 102.542 77.5998 103.652 76.8848C106.536 75.0104 107.678 78.1332 111.11 77.9812C111.59 77.9812 112.05 77.7906 112.389 77.4513C112.728 77.112 112.919 76.6518 112.919 76.1719C112.919 75.6921 112.728 75.2319 112.389 74.8926C112.05 74.5533 111.59 74.3627 111.11 74.3627ZM111.11 88.7083C110.441 88.7272 109.785 88.5236 109.244 88.1293C108.134 87.4142 106.84 87.034 105.519 87.034C104.198 87.034 102.905 87.4142 101.794 88.1293C101.245 88.5038 100.596 88.7041 99.9313 88.7041C99.2668 88.7041 98.6177 88.5038 98.0687 88.1293C96.959 87.4144 95.667 87.0342 94.347 87.0342C93.027 87.0342 91.735 87.4144 90.6254 88.1293C90.0892 88.5266 89.4343 88.7307 88.7673 88.7083C86.4243 88.5563 86.2271 86.9605 83.1875 87.0347C82.7077 87.0347 82.2475 87.2253 81.9082 87.5646C81.5689 87.9039 81.3783 88.3641 81.3783 88.844C81.3783 89.3238 81.5689 89.784 81.9082 90.1233C82.2475 90.4626 82.7077 90.6532 83.1875 90.6532C85.5233 90.8052 85.7313 92.401 88.7673 92.3268C91.8068 92.3992 92.0058 90.8052 94.347 90.6514C95.0144 90.6299 95.6697 90.8338 96.2069 91.2304C97.3168 91.9454 98.6092 92.3257 99.9295 92.3257C101.25 92.3257 102.542 91.9454 103.652 91.2304C106.536 89.356 107.678 92.4806 111.11 92.3268C111.59 92.3268 112.05 92.1362 112.389 91.7969C112.728 91.4576 112.919 90.9974 112.919 90.5175C112.919 90.0377 112.728 89.5775 112.389 89.2382C112.05 88.8989 111.59 88.7083 111.11 88.7083ZM111.11 103.834C110.567 103.837 110.03 103.73 109.529 103.521C109.029 103.311 108.575 103.003 108.197 102.614C106.785 101.321 104.941 100.603 103.026 100.603C101.112 100.603 99.2666 101.321 97.8552 102.614C97.4752 103 97.0222 103.307 96.5226 103.516C96.0229 103.725 95.4867 103.833 94.945 103.833C94.4033 103.833 93.867 103.725 93.3674 103.516C92.8678 103.307 92.4148 103 92.0348 102.614C90.6247 101.32 88.7805 100.602 86.8667 100.602C84.9528 100.602 83.1086 101.32 81.6985 102.614C81.3196 103 80.8677 103.306 80.3691 103.515C79.8705 103.724 79.3353 103.832 78.7947 103.832C78.254 103.832 77.7188 103.724 77.2202 103.515C76.7216 103.306 76.2697 103 75.8908 102.614C74.4899 101.306 72.64 100.587 70.7236 100.604C70.2437 100.604 69.7835 100.795 69.4442 101.134C69.1049 101.473 68.9143 101.934 68.9143 102.413C68.9143 102.893 69.1049 103.353 69.4442 103.693C69.7835 104.032 70.2437 104.223 70.7236 104.223C71.2645 104.219 71.8006 104.325 72.2996 104.534C72.7986 104.743 73.2503 105.051 73.6274 105.438C75.0447 106.716 76.8854 107.424 78.7938 107.424C80.7021 107.424 82.5428 106.716 83.9601 105.438C84.3396 105.053 84.792 104.746 85.2911 104.537C85.7902 104.328 86.3259 104.221 86.867 104.221C87.4081 104.221 87.9438 104.329 88.4427 104.538C88.9417 104.748 89.394 105.054 89.7732 105.44C91.1845 106.733 93.0291 107.451 94.9432 107.451C96.8572 107.451 98.7018 106.733 100.113 105.44C100.494 105.054 100.947 104.747 101.447 104.538C101.947 104.329 102.484 104.221 103.026 104.221C103.568 104.221 104.105 104.329 104.605 104.538C105.105 104.747 105.558 105.054 105.939 105.44C107.341 106.749 109.192 107.469 111.11 107.452C111.59 107.452 112.05 107.262 112.389 106.922C112.728 106.583 112.919 106.123 112.919 105.643C112.919 105.163 112.728 104.703 112.389 104.364C112.05 104.024 111.59 103.834 111.11 103.834Z" fill="#007CEE"/>
</svg>
