<svg xmlns="http://www.w3.org/2000/svg" width="292" height="208" fill="none"><g clip-path="url(#a)"><path fill="#E6EFF9" d="M73.229 166.563c-1.767-4.304-4.044-8.289-6.095-12.377-23.114.662-39.212-4.024-42.968-14.3-3.708-10.152 5.28-23.894 22.933-38.101-33.242 21.932-51.784 44.409-46.075 60.029C6.87 177.81 36.776 182.912 77.8 177.649c-1.855-3.554-3.115-7.542-4.57-11.086M290.959 48.595c-6.094-16.674-38.342-21.509-82.072-15.102 25.787-1.522 43.935 3.09 47.958 14.092 3.866 10.59-6.079 25.077-25.259 39.93 3.682 7.542 7.079 15.227 10.73 22.783 34.85-22.455 54.496-45.68 48.643-61.703"/><path fill="url(#b)" d="M81.711 182.354c.137-.021.27-.038.41-.053-1.172-2.962-2.608-5.802-4.154-8.594 1.092 2.929 2.227 5.935 3.744 8.647"/><path fill="#E6EFF9" d="m195.741 16.197-22.796-1.308s-37.59 57.47-39.569 65.187c-7.172-3.473-79.03-17.498-79.03-17.498L38.902 85.883l89.677 8.97s9.491 1.101 13.634-4.968c13.988-20.498 53.528-73.688 53.528-73.688"/><path fill="#007CEE" d="m197.799 19.75-2.059.958-47.65 68.13s-1.914 4.524-8.055 7.602c-5.201 2.611-10.777 1.954-12.369 1.692l-.017-.017-.212-.024-.233-.043-.015.017-90.016-9.893 2.655 4.37 44.18 97.931 87.095 15.906-47.641-105.616 3.525.344 48.952 105.525a22.42 22.42 0 0 0 23.899-11.088q-24.688-53.231-49.384-106.465z"/><path fill="#7C9AF2" d="M202.688 20.182 154.96 88.7l48.663 103.68 44.291-75.928zm8.26 92.311-6.276 21.564-4.802-21.168-.826-1.134-21.566-6.276 21.566-4.891.737-.74 4.891-21.563 6.073 20.87 1.448 1.545 21.06 4.778-19.884 5.788z"/><path fill="#007CEE" d="m112.153 46.65-14.8-3.36-1.02-1.084-4.268-14.671-3.438 15.155-.517.52-15.156 3.44 15.156 4.41.58.796 3.375 14.879 4.412-15.156 1.7-.863zM161.686 27.237l-21.091-4.785-1.454-1.548L133.062 0l-4.899 21.596-.74.743-21.596 4.898 21.596 6.286.829 1.137 4.81 21.202 6.288-21.601 2.419-1.226z"/></g><defs><linearGradient id="b" x1="15.974" x2="311.718" y1="201.415" y2="93.341" gradientUnits="userSpaceOnUse"><stop stop-color="#BB28E1"/><stop offset=".16" stop-color="#A330DF"/><stop offset=".5" stop-color="#6546DB"/><stop offset=".987" stop-color="#0369D3"/><stop offset="1" stop-color="#006AD3"/></linearGradient><clipPath id="a"><path fill="#fff" d="M0 0h292v208H0z"/></clipPath></defs></svg>