<svg xmlns="http://www.w3.org/2000/svg" width="245" height="193" fill="none"><g clip-path="url(#a)"><mask id="b" width="245" height="193" x="0" y="0" maskUnits="userSpaceOnUse" style="mask-type:luminance"><path fill="#fff" d="M245 0H0v193h245z"/></mask><g mask="url(#b)"><path fill="#E6EFF9" d="M244.464 115.126c-3.135-17.474-34.07-27.784-78.25-28.997 25.664 2.937 42.748 10.602 44.818 22.133 1.986 11.097-10.302 23.657-31.752 34.988 2.33 8.064 4.354 16.219 6.651 24.291 38.193-16.125 61.542-35.623 58.533-52.415M.234 78.404c2.337 17.598 32.772 29.304 76.851 32.523-25.504-4.101-42.222-12.534-43.766-24.147-1.48-11.176 11.366-23.164 33.309-33.51-1.961-8.16-3.612-16.4-5.54-24.567C22.2 43.076-2.01 61.493.234 78.403"/><path fill="#007CEE" d="M123.78 193c53.141 0 96.22-43.079 96.22-96.22S176.921.56 123.78.56 27.56 43.64 27.56 96.78 70.64 193 123.78 193"/><path fill="#007CEE" d="M123.78.56V193c-53.142 0-96.22-43.078-96.22-96.22S70.638.56 123.78.56"/><path fill="#E6EFF9" d="M196.918 96.78a60 60 0 0 1-.103 3.657c-1.828 37.476-31.888 67.535-69.378 69.378a60 60 0 0 1-3.657.103c-1.229 0-2.443-.029-3.657-.103-37.476-1.843-67.535-31.902-69.378-69.378a61 61 0 0 1-.102-3.657c0-1.229.029-2.443.102-3.657 1.843-37.49 31.902-67.55 69.378-69.393a76 76 0 0 1 7.314 0c37.49 1.843 67.55 31.903 69.378 69.393a60 60 0 0 1 .103 3.657"/><path fill="#E6EFF9" d="M123.782 158.946c34.333 0 62.167-27.833 62.167-62.167s-27.834-62.167-62.167-62.167c-34.334 0-62.167 27.833-62.167 62.167s27.833 62.167 62.167 62.167"/><path fill="#7C9AF2" d="M71.677 93.123v7.314H50.745a61 61 0 0 1-.103-3.657c0-1.229.03-2.443.103-3.657zM196.918 96.78c0 1.229-.03 2.443-.103 3.657h-20.932v-7.314h20.932c.073 1.214.103 2.428.103 3.657M127.437 148.884v20.932a61 61 0 0 1-3.657.102c-1.229 0-2.443-.029-3.657-.102v-20.932zM127.437 23.73v20.947h-7.314V23.73a76 76 0 0 1 7.314 0"/><path fill="#007CEE" d="m120.486 98.361-18.511-38.536 6.592-3.167 11.559 24.06v-37.96h7.314v54.02z"/><path fill="#051923" d="M133.262 96.779a9.48 9.48 0 0 1-9.479 9.478 9.479 9.479 0 1 1 0-18.957c5.234 0 9.479 4.243 9.479 9.479"/></g></g><defs><clipPath id="a"><path fill="#fff" d="M0 0h245v193H0z"/></clipPath></defs></svg>