<svg xmlns="http://www.w3.org/2000/svg" width="229" height="195" fill="none"><g clip-path="url(#a)"><mask id="b" width="229" height="195" x="0" y="0" maskUnits="userSpaceOnUse" style="mask-type:luminance"><path fill="#fff" d="M229 0H0v195h229z"/></mask><g mask="url(#b)"><path fill="#E6EFF9" d="M163.232 144.274c1.112 13.462 23.799 23.506 57.175 27.615-19.227-4.078-31.614-11.118-32.349-20.001-.703-8.549 9.512-17.175 26.577-24.208-1.182-6.276-2.126-12.599-3.283-18.879-30.093 9.455-49.187 22.537-48.12 35.473M107.281 22.404c-10.048-9.028-33.442-.766-60.54 19.148 16.785-10.227 30.626-13.606 37.257-7.65 6.377 5.737 4.866 19.02-2.72 35.847 5.166 3.754 10.192 7.706 15.343 11.48 15.401-27.53 20.312-50.147 10.66-58.825"/><path fill="#007CEE" d="M69.457 106.739a69 69 0 0 0 2.741 9.866l-15.754 23.322 11.853 13.503 11.852 13.502 25.175-12.606a68.6 68.6 0 0 0 19.342 6.571l12.315 25.294 35.238-7.029 1.669-28.082a68.6 68.6 0 0 0 15.339-13.488l28.084 1.983 11.534-34.031-23.495-15.493a69 69 0 0 0-1.256-10.164 69 69 0 0 0-2.74-9.866l15.755-23.323-23.706-27.003L168.227 32.3a68.5 68.5 0 0 0-19.341-6.572L136.571.436l-35.238 7.028-1.669 28.082a68.6 68.6 0 0 0-15.34 13.49L56.237 47.05l-5.766 17.016-5.766 17.015 23.495 15.493a70 70 0 0 0 1.256 10.165m61.139-44.41c17.112-3.414 33.752 7.693 37.165 24.805s-7.693 33.751-24.805 37.165c-17.112 3.412-33.751-7.693-37.165-24.805-3.413-17.114 7.693-33.753 24.805-37.165"/><path stroke="#fff" stroke-linecap="round" stroke-width="2" d="m217.777 105.969-21.362-14.086a63 63 0 0 0-3.633-18.21l14.325-21.207-10.321-12.244"/><path fill="#7C9AF2" d="m68.297 153.431 11.852 13.501 25.176-12.606a68.6 68.6 0 0 0 19.342 6.572l12.314 25.293 17.62-3.515-11.643-58.378c-17.112 3.412-33.753-7.692-37.165-24.805-3.412-17.112 7.694-33.75 24.805-37.165L118.955 3.95l-17.62 3.515-1.669 28.082a68.6 68.6 0 0 0-15.341 13.489L56.24 47.05l-5.766 17.015-5.766 17.015 23.496 15.495a69 69 0 0 0 1.255 10.163 69 69 0 0 0 2.741 9.867l-15.754 23.322z"/><path fill="#E6EFF9" d="M141.378 116.382c-15.769 3.146-31.107-6.052-36.096-20.903.094 1.333.242 2.67.509 4.015 3.413 17.113 20.053 28.217 37.165 24.805 17.113-3.412 28.218-20.051 24.805-37.165-.268-1.343-.645-2.636-1.069-3.902 1.092 15.627-9.546 30.005-25.314 33.15M111.328 188.612 53.117 87.297l5.715-3.283 58.212 101.314 1.564 9.334z"/><path fill="#83A9D4" d="m117.044 185.328 1.564 9.334s-5.425-7.605-1.564-9.334"/><path fill="#83A9D4" d="m111.328 188.612 7.275 6.052s-3.836-8.517-7.275-6.052"/><path fill="#007CEE" d="m42.422 86 19.34-11.111a3.787 3.787 0 0 0 1.396-5.171L28.253 8.968C24.143 1.814 15.01-.653 7.858 3.457.704 7.567-1.763 16.698 2.347 23.85l34.905 60.752A3.787 3.787 0 0 0 42.422 86"/><path fill="#0068DA" d="M15.026 15.934a4.067 4.067 0 0 1 5.553 1.5l29.699 51.69a4.068 4.068 0 1 1-7.056 4.054l-29.695-51.69a4.066 4.066 0 0 1 1.499-5.554M23.642 10.984a2.64 2.64 0 0 1 3.608.976L58.37 66.12a2.643 2.643 0 0 1-4.584 2.633L22.668 14.593a2.643 2.643 0 0 1 .974-3.609M6.41 20.885a2.643 2.643 0 0 0-.975 3.607l31.12 54.162a2.643 2.643 0 0 0 4.582-2.633L10.018 21.86a2.64 2.64 0 0 0-3.608-.976M49.907 96.588l8.616-4.95 8.616-4.95s-6.463-3.41-5.378-11.798l-9.669 5.555L42.422 86c7.793 3.288 7.485 10.588 7.485 10.588"/><path fill="#007CEE" d="m49.818 101.406 21.529-12.369a2.525 2.525 0 1 0-2.516-4.378L47.302 97.028a2.524 2.524 0 1 0 2.516 4.378"/></g></g><defs><clipPath id="a"><path fill="#fff" d="M0 0h229v195H0z"/></clipPath></defs></svg>