<svg width="155" height="155" viewBox="0 0 155 155" fill="none" xmlns="http://www.w3.org/2000/svg">
<path d="M88.9728 44.1652C80.1614 41.0042 70.6586 41.4783 62.2029 45.4691C54.1225 49.2821 47.9388 55.8609 44.6395 64.1191C44.6395 64.1389 44.6197 64.1586 44.6197 64.1784C44.4617 64.5537 44.3234 64.9489 44.1851 65.3242C41.0241 74.1356 41.4982 83.6384 45.489 92.0941C49.4798 100.55 56.5328 106.951 65.3441 110.112C69.1966 111.495 73.2072 112.186 77.1782 112.186C82.2753 112.186 87.3527 111.06 92.114 108.808C100.57 104.817 106.971 97.7642 110.132 88.9529C113.293 80.1415 112.819 70.6387 108.828 62.183C104.837 53.7273 97.7841 47.3262 88.9728 44.1652ZM106.062 63.4869C106.951 65.3835 107.662 67.3394 108.156 69.315C104.442 74.9258 102.881 74.9258 102.881 74.9258C102.861 74.9258 101.182 74.0368 101.893 63.4474C102.15 59.5554 101.656 57.4415 100.194 56.3351C99.167 55.5448 97.8039 55.4461 96.1443 56.019C95.7097 56.177 95.4726 56.1968 95.3541 56.1771C95.275 56.019 95.117 55.4263 95.3541 53.8656C95.4726 53.0358 95.6899 52.127 95.9072 51.238C100.234 54.3397 103.731 58.5281 106.062 63.4869ZM63.5068 48.2152C67.8334 46.1606 72.4762 45.1332 77.1387 45.1332C80.7739 45.1332 84.4288 45.7654 87.9454 47.0299C88.1232 47.0891 88.301 47.1681 88.4591 47.2274C88.9925 50.1909 85.8513 52.2455 81.4258 54.7546C79.0748 56.098 77.0202 57.2439 76.2101 58.7454C70.9747 68.3272 68.762 70.3424 68.0508 70.7572C67.8532 70.3226 67.5371 69.157 67.4976 66.1343C67.4778 63.5067 67.6556 59.8912 68.11 54.7546V54.5965C68.0903 53.1543 67.8927 51.396 66.569 50.3884C65.68 49.7167 64.5144 49.5784 63.0919 49.9736C62.6573 50.0921 62.1634 49.8353 61.6497 49.1833C62.2424 48.8474 62.8746 48.5313 63.5068 48.2152ZM90.8101 106.042C83.0854 109.697 74.4123 110.112 66.3715 107.228C58.3306 104.343 51.8901 98.5149 48.2549 90.7902C44.7185 83.3025 44.2246 74.9258 46.8127 67.0826C47.0497 67.2999 47.3066 67.537 47.5437 67.7938C49.3415 70.5004 50.3886 74.3134 48.6895 76.7632C46.8917 79.371 46.5163 83.3618 47.8202 86.0684C48.7883 88.0836 50.5861 89.269 52.8779 89.427C53.8854 89.4863 54.8535 89.4665 55.7821 89.4468C59.4963 89.3677 61.0373 89.3282 61.3138 93.4771C61.4719 96.0256 62.4597 99.5423 64.7119 101.103C65.4824 101.636 66.3517 101.913 67.2605 101.913C67.7149 101.913 68.1693 101.854 68.6435 101.715C71.3303 101.162 72.5552 97.8827 73.7406 94.7217C74.195 93.5166 74.926 91.5607 75.4396 91.0075C75.5977 91.1261 75.894 91.4027 76.3287 91.9953C77.2572 93.319 78.3833 93.5561 79.1538 93.5363C81.248 93.4771 83.4015 91.4224 86.3452 86.6414C91.9362 77.6127 93.8131 77.8893 93.8328 77.8893C93.8328 77.8893 94.6626 78.4425 94.8602 82.2159C94.9787 84.5472 94.8206 87.6885 94.4058 91.0668C93.9909 94.5044 95.9665 98.5347 98.8312 100.649C96.4802 102.802 93.7933 104.639 90.8101 106.042ZM107.247 87.9255C105.845 91.8571 103.711 95.4132 101.024 98.4359C98.8904 97.0925 97.1519 93.8327 97.4482 91.4422C97.7643 88.8738 98.1002 85.1596 97.9224 81.9196C97.7841 79.371 97.3099 75.8741 94.8602 75.0246C92.0548 74.0368 88.7357 77.0398 83.7768 85.0609C80.3787 90.5334 79.1341 90.5136 79.0946 90.5136C79.0946 90.5136 78.9958 90.4741 78.8575 90.2568C78.4031 89.6246 77.0399 87.6687 75.1038 87.9255C72.9701 88.2021 72.0218 90.7309 70.9154 93.6746C70.224 95.512 69.0781 98.5742 68.0508 98.752C67.9915 98.7718 67.9322 98.7718 67.873 98.7915C67.3198 98.9496 66.8851 98.9101 66.4703 98.6137C65.2651 97.784 64.4946 95.2551 64.3761 93.2993C63.9217 86.2462 59.3777 86.345 55.7425 86.4043C54.8733 86.4241 53.9842 86.4438 53.0952 86.3845C51.9098 86.3055 51.0998 85.7721 50.5861 84.7448C49.7564 83.026 50.033 80.2205 51.2183 78.5017C53.925 74.5702 52.2654 69.2953 50.0132 65.9762C49.9737 65.9169 49.9144 65.8379 49.8551 65.7786C49.2229 65.1069 48.5907 64.5538 47.9585 64.0994C50.3688 58.6861 54.1818 54.1224 59.0221 50.8033C60.4446 52.7197 62.0646 53.4309 63.8822 52.937C64.5144 52.7592 64.7119 52.858 64.7119 52.858C64.7119 52.858 65.0083 53.1148 65.0478 54.5965C63.8624 68.505 64.3366 72.9897 67.1025 73.8195C67.3593 73.8985 67.5964 73.938 67.8532 73.938C69.572 73.938 71.1525 72.239 72.3774 70.6782C74.0962 68.4853 76.2299 65.0674 78.897 60.2271C79.2921 59.4961 81.2283 58.3898 82.9471 57.4217C85.0807 56.2166 87.5108 54.8336 89.2296 53.0753C90.6125 51.6726 91.383 50.1711 91.5608 48.5906C92.1338 48.8672 92.687 49.1833 93.2204 49.4796C92.1338 53.5692 91.5608 56.8093 93.2994 58.4293C93.9316 59.022 95.117 59.5751 97.1519 58.8837C97.8039 58.6664 98.2187 58.6466 98.357 58.7454C98.4756 58.8442 99.1078 59.5159 98.8509 63.2301C98.2187 72.5353 99.1473 76.9015 101.913 77.8103C102.229 77.9091 102.565 77.9683 102.901 77.9683C104.64 77.9683 106.615 76.5064 108.927 73.5034C109.48 78.3239 108.927 83.2235 107.247 87.9255ZM107.307 113.036C107.326 113.214 107.307 113.372 107.247 113.55C107.247 113.589 107.228 113.609 107.228 113.629L103.454 124.969C103.237 125.601 102.644 126.016 102.012 126.016C101.854 126.016 101.696 125.996 101.538 125.937C100.748 125.68 100.313 124.811 100.57 124.001L103.039 116.553C95.3541 121.61 86.4637 124.277 77.1584 124.277C64.5539 124.277 52.7198 119.378 43.8097 110.468C34.8996 101.557 30 89.7234 30 77.1188C30 67.4777 32.8844 58.212 38.3569 50.3094C38.8311 49.6179 39.7794 49.4401 40.4906 49.9143C41.1821 50.3884 41.3599 51.3367 40.8858 52.048C35.7491 59.4369 33.0425 68.1099 33.0425 77.1386C33.0425 101.459 52.8186 121.235 77.1387 121.235C85.9895 121.235 94.4453 118.647 101.716 113.747L93.7538 111.89C92.924 111.692 92.4301 110.882 92.6079 110.053C92.7857 109.223 93.6155 108.729 94.4453 108.907L106.082 111.613C106.121 111.613 106.141 111.633 106.181 111.633C106.358 111.673 106.516 111.752 106.655 111.85C106.852 111.989 106.991 112.147 107.109 112.344C107.228 112.581 107.287 112.799 107.307 113.036ZM124.317 77.1386C124.317 86.7797 121.432 96.0454 115.96 103.948C115.664 104.383 115.189 104.6 114.696 104.6C114.399 104.6 114.083 104.521 113.826 104.323C113.135 103.849 112.957 102.901 113.431 102.19C118.548 94.8007 121.255 86.1277 121.255 77.1188C121.255 52.7987 101.459 33.0028 77.1387 33.0028C68.4261 33.0028 60.0889 35.5119 52.8976 40.2534L60.8397 42.1895C61.6497 42.3871 62.1634 43.2169 61.9658 44.0269C61.788 44.7184 61.1755 45.1925 60.4841 45.1925C60.3655 45.1925 60.247 45.1728 60.1285 45.153L48.5117 42.3278C48.4722 42.3278 48.4524 42.3081 48.4129 42.3081C48.2351 42.2488 48.0968 42.1895 47.9585 42.0908C47.761 41.9525 47.6227 41.7747 47.5041 41.5771C47.4054 41.3795 47.3263 41.1622 47.3263 40.9251C47.3263 40.7671 47.3263 40.5893 47.3856 40.4115C47.3856 40.3917 47.4054 40.3522 47.4054 40.3324L51.2776 29.0318C51.5542 28.2415 52.4235 27.8069 53.2137 28.0835C54.004 28.3601 54.4386 29.2294 54.162 30.0196L51.6135 37.4283C59.2197 32.5089 67.9717 29.9406 77.1189 29.9406C89.7235 29.9406 101.558 34.8402 110.468 43.7503C119.417 52.6999 124.317 64.534 124.317 77.1386Z" fill="#007CEE"/>
</svg>
