<svg width="155" height="155" viewBox="0 0 155 155" fill="none" xmlns="http://www.w3.org/2000/svg">
<path d="M74.074 33.5273C68.0735 33.5273 63.1917 38.4092 63.1917 44.4096C63.1917 50.4101 68.0735 55.292 74.074 55.292C80.0745 55.292 84.9563 50.4101 84.9563 44.4096C84.9563 38.4092 80.0745 33.5273 74.074 33.5273ZM74.074 52.7375C69.4821 52.7375 65.7462 49.0017 65.7462 44.4096C65.7462 39.8175 69.4821 36.0818 74.074 36.0818C78.6659 36.0818 82.4018 39.8177 82.4018 44.4096C82.4018 49.0015 78.6661 52.7375 74.074 52.7375ZM78.3832 46.7144C78.3832 48.3448 77.1251 49.6874 75.3513 50.1281V50.2971C75.3513 50.6358 75.2167 50.9607 74.9772 51.2002C74.7376 51.4398 74.4128 51.5743 74.074 51.5743C73.7353 51.5743 73.4104 51.4398 73.1709 51.2002C72.9313 50.9607 72.7968 50.6358 72.7968 50.2971V50.123C71.6189 49.8232 70.6329 49.1167 70.1269 48.1579C70.046 48.0094 69.9954 47.8462 69.978 47.678C69.9606 47.5097 69.9769 47.3397 70.0258 47.1777C70.0746 47.0158 70.1552 46.8652 70.2628 46.7346C70.3704 46.6041 70.5028 46.4962 70.6524 46.4172C70.802 46.3383 70.9658 46.2899 71.1343 46.2747C71.3028 46.2596 71.4726 46.2781 71.6338 46.3291C71.7951 46.3802 71.9447 46.4627 72.0738 46.572C72.2029 46.6813 72.309 46.8152 72.3859 46.9658C72.5856 47.3441 73.2295 47.7271 74.074 47.7271C75.0784 47.7271 75.8287 47.1925 75.8287 46.7146C75.8287 46.2059 75.7329 46.0132 73.8531 45.6828C72.324 45.4142 69.7648 44.9646 69.7648 42.1353C69.7648 40.5047 71.0227 39.1623 72.7968 38.7217V38.5324C72.7968 38.1937 72.9313 37.8688 73.1709 37.6293C73.4104 37.3897 73.7353 37.2552 74.074 37.2552C74.4128 37.2552 74.7376 37.3897 74.9772 37.6293C75.2167 37.8688 75.3513 38.1937 75.3513 38.5324V38.727C76.5225 39.0252 77.5051 39.7262 78.013 40.6767C78.1727 40.9754 78.2072 41.3254 78.1089 41.6495C78.0105 41.9737 77.7875 42.2455 77.4887 42.4052C77.19 42.5649 76.84 42.5994 76.5159 42.5011C76.1917 42.4027 75.9199 42.1797 75.7602 41.8809C75.5588 41.5043 74.9151 41.1231 74.074 41.1231C73.0697 41.1231 72.3193 41.6576 72.3193 42.1355C72.3193 42.6443 72.4151 42.8369 74.295 43.1671C75.8241 43.4357 78.3832 43.8853 78.3832 46.7148V46.7144ZM129.36 83.8304L119.737 74.2073C119.619 74.0887 119.478 73.9946 119.323 73.9304C119.168 73.8662 119.002 73.8332 118.834 73.8332H112.181V70.5512H113.591C113.93 70.5512 114.255 70.4166 114.494 70.1771C114.734 69.9375 114.868 69.6127 114.868 69.2739V64.6439H117.962C118.301 64.6439 118.626 64.5093 118.866 64.2698C119.105 64.0303 119.24 63.7054 119.24 63.3667V60.2357H120.561C121.716 60.2357 122.712 59.487 123.039 58.3731C123.362 57.2691 122.952 56.1245 122.017 55.525L74.7637 25.2023C74.5579 25.0702 74.3185 25 74.074 25C73.8295 25 73.5901 25.0702 73.3843 25.2023L26.1304 55.525C25.1959 56.1247 24.7857 57.2693 25.1095 58.3733C25.4362 59.487 26.4319 60.2357 27.5871 60.2357H28.9084L28.9084 63.3667C28.9084 63.7054 29.043 64.0303 29.2825 64.2698C29.5221 64.5093 29.8469 64.6439 30.1857 64.6439H33.28V69.2739C33.28 69.6127 33.4146 69.9375 33.6541 70.1771C33.8936 70.4166 34.2185 70.5512 34.5572 70.5512H35.9675L35.9675 106.238H34.5572C34.2185 106.238 33.8936 106.372 33.6541 106.612C33.4146 106.851 33.28 107.176 33.28 107.515V112.094H30.1857C29.8469 112.094 29.5221 112.229 29.2825 112.468C29.043 112.708 28.9084 113.033 28.9084 113.371L28.9084 120.146C28.9084 120.485 29.043 120.81 29.2825 121.049C29.5221 121.289 29.8469 121.423 30.1857 121.423H87.209V125.648C87.209 127.901 89.0418 129.734 91.2949 129.734H125.649C127.901 129.734 129.734 127.901 129.734 125.648V84.7338C129.734 84.3952 129.6 84.0703 129.36 83.8308V83.8304ZM120.112 78.194L125.374 83.4562H121.643C120.798 83.4562 120.112 82.7692 120.112 81.925V78.194ZM112.314 67.9965H103.086V64.6437H112.314V67.9965ZM109.626 70.5509V73.833H105.774V70.5509H109.626ZM101.809 70.5509H103.219V73.833H91.2951C90.7535 73.833 90.2371 73.9414 89.7637 74.1336V70.5509H91.1739C91.5127 70.5509 91.8376 70.4164 92.0771 70.1768C92.3166 69.9373 92.4512 69.6124 92.4512 69.2737V64.6437H100.532V69.2737C100.532 69.6124 100.666 69.9373 100.906 70.1768C101.145 70.4164 101.47 70.5509 101.809 70.5509ZM27.5869 57.6812H27.5716C27.5652 57.6696 27.5606 57.6572 27.558 57.6442L74.0738 27.7949L120.591 57.6446C120.588 57.6612 120.585 57.6768 120.587 57.6791C120.587 57.6791 120.579 57.6812 120.561 57.6812L27.5869 57.6812ZM31.4627 62.0894V60.2357L116.685 60.2357V62.0894L31.4627 62.0894ZM68.7566 106.237H67.3464V70.5509H68.7566C69.0954 70.5509 69.4203 70.4164 69.6598 70.1768C69.8993 69.9373 70.0339 69.6124 70.0339 69.2737V64.6437H78.1141V69.2737C78.1141 69.6124 78.2487 69.9373 78.4882 70.1768C78.7278 70.4164 79.0526 70.5509 79.3914 70.5509H80.8017V106.237H79.3914C79.0526 106.237 78.7278 106.372 78.4882 106.612C78.2487 106.851 78.1141 107.176 78.1141 107.515V112.094H70.0339V107.515C70.0339 107.176 69.8993 106.851 69.6598 106.612C69.4203 106.372 69.0954 106.237 68.7566 106.237ZM46.3394 106.237H44.9291V70.5509H46.3394C46.6781 70.5509 47.003 70.4164 47.2425 70.1768C47.482 69.9373 47.6166 69.6124 47.6166 69.2737V64.6437H55.6969V69.2737C55.6969 69.6124 55.8314 69.9373 56.071 70.1768C56.3105 70.4164 56.6354 70.5509 56.9741 70.5509H58.3844L58.3844 106.237H56.9741C56.6354 106.237 56.3105 106.372 56.071 106.612C55.8314 106.851 55.6969 107.176 55.6969 107.515V112.094H47.6166V107.515C47.6166 107.176 47.482 106.851 47.2425 106.612C47.003 106.372 46.6781 106.237 46.3394 106.237ZM58.2513 67.9965V64.6437H67.4792V67.9965H58.2513ZM64.7917 70.5509V106.237H60.9391L60.9391 70.5509H64.7917ZM58.2513 108.792H67.4792V112.094H58.2513V108.792ZM35.8343 67.9965V64.6437H45.0621V67.9965H35.8343ZM42.3746 70.5509V106.237H38.5218L38.5218 70.5509H42.3746ZM35.8343 108.792H45.0621V112.094H35.8343V108.792ZM87.209 118.869H31.4627V114.648H87.209V118.869ZM87.209 112.094H80.6686V108.792H87.209V112.094ZM87.209 106.237H83.3562V70.5509H87.209V106.237ZM80.6686 67.9965V64.6437H89.8965V67.9965H80.6686ZM127.18 125.648C127.18 126.492 126.493 127.179 125.648 127.179H91.2946C90.4502 127.179 89.7632 126.492 89.7632 125.648V77.9189C89.7637 77.5129 89.9252 77.1236 90.2123 76.8365C90.4994 76.5494 90.8886 76.388 91.2946 76.3875H117.557V81.9248C117.557 84.1776 119.389 86.0105 121.643 86.0105H127.18V125.648V125.648ZM93.034 82.0112C93.034 81.6725 93.1686 81.3476 93.4081 81.1081C93.6477 80.8685 93.9725 80.734 94.3113 80.734H106.463C106.802 80.734 107.127 80.8685 107.366 81.1081C107.606 81.3476 107.74 81.6725 107.74 82.0112C107.74 82.3499 107.606 82.6748 107.366 82.9143C107.127 83.1539 106.802 83.2884 106.463 83.2884H94.3113C93.9725 83.2884 93.6477 83.1539 93.4081 82.9143C93.1686 82.6748 93.034 82.3499 93.034 82.0112ZM106.463 89.4435H94.3113C93.9725 89.4435 93.6477 89.3089 93.4081 89.0694C93.1686 88.8298 93.034 88.505 93.034 88.1662C93.034 87.8275 93.1686 87.5026 93.4081 87.2631C93.6477 87.0236 93.9725 86.889 94.3113 86.889H106.463C106.802 86.889 107.127 87.0236 107.366 87.2631C107.606 87.5026 107.74 87.8275 107.74 88.1662C107.74 88.505 107.606 88.8298 107.366 89.0694C107.127 89.3089 106.802 89.4435 106.463 89.4435ZM109.912 88.1662C109.912 87.8275 110.047 87.5026 110.286 87.2631C110.526 87.0236 110.851 86.889 111.189 86.889H114.908C115.247 86.889 115.572 87.0236 115.812 87.2631C116.051 87.5026 116.186 87.8275 116.186 88.1662C116.186 88.505 116.051 88.8298 115.812 89.0694C115.572 89.3089 115.247 89.4435 114.908 89.4435H111.189C110.851 89.4435 110.526 89.3089 110.286 89.0694C110.047 88.8298 109.912 88.505 109.912 88.1662ZM109.912 82.0112C109.912 81.6725 110.047 81.3476 110.286 81.1081C110.526 80.8685 110.851 80.734 111.189 80.734H114.908C115.247 80.734 115.572 80.8685 115.812 81.1081C116.051 81.3476 116.186 81.6725 116.186 82.0112C116.186 82.3499 116.051 82.6748 115.812 82.9143C115.572 83.1539 115.247 83.2884 114.908 83.2884H111.189C110.851 83.2884 110.526 83.1539 110.286 82.9143C110.047 82.6748 109.912 82.3499 109.912 82.0112ZM120.093 103.401C119.804 101.946 119.245 100.559 118.445 99.3112C118.3 99.0853 118.087 98.9108 117.838 98.8122C117.588 98.7137 117.314 98.6962 117.053 98.7622L115.77 99.0896C115.596 98.8984 115.416 98.7141 115.228 98.537L115.58 97.2598C115.651 97.0009 115.639 96.7261 115.545 96.4745C115.451 96.2229 115.28 96.0072 115.057 95.8582C113.824 95.0344 112.448 94.449 111 94.1324C110.738 94.0747 110.464 94.1012 110.218 94.2081C109.971 94.3151 109.765 94.497 109.628 94.7281L108.952 95.8669C108.694 95.8545 108.436 95.8521 108.178 95.8599L107.524 94.7087C107.391 94.4753 107.188 94.2897 106.944 94.1781C106.7 94.0666 106.427 94.0348 106.164 94.0873C104.709 94.3761 103.322 94.9353 102.074 95.7358C101.848 95.8805 101.673 96.0929 101.575 96.3426C101.476 96.5923 101.459 96.8668 101.525 97.1269L101.853 98.4106C101.661 98.5837 101.477 98.7643 101.3 98.9519L100.023 98.6002C99.7638 98.5293 99.4892 98.5416 99.2377 98.6353C98.9862 98.7291 98.7706 98.8996 98.6213 99.1226C97.7975 100.355 97.2121 101.732 96.8953 103.18C96.8378 103.442 96.8643 103.716 96.9712 103.962C97.0782 104.209 97.26 104.415 97.491 104.552L98.6303 105.228C98.6178 105.486 98.6155 105.744 98.6232 106.002L97.4714 106.656C97.2379 106.789 97.0522 106.992 96.9407 107.236C96.8291 107.48 96.7973 107.753 96.8498 108.017C97.1387 109.471 97.698 110.858 98.4987 112.106C98.6435 112.332 98.8559 112.507 99.1055 112.605C99.3552 112.704 99.6295 112.721 99.8896 112.655L101.173 112.328C101.346 112.519 101.527 112.703 101.715 112.88L101.363 114.158C101.292 114.417 101.304 114.691 101.398 114.943C101.491 115.195 101.662 115.41 101.886 115.559C102.172 115.75 102.467 115.928 102.768 116.093V124.205C102.768 124.456 102.842 124.701 102.98 124.91C103.118 125.119 103.315 125.283 103.546 125.381C103.777 125.479 104.031 125.507 104.278 125.462C104.524 125.416 104.752 125.299 104.932 125.125L108.694 121.498L112.455 125.125C112.636 125.299 112.863 125.416 113.11 125.461C113.356 125.507 113.61 125.479 113.841 125.381C114.072 125.283 114.269 125.119 114.407 124.91C114.545 124.701 114.619 124.456 114.619 124.205V115.834C114.702 115.784 114.787 115.735 114.869 115.682C115.095 115.537 115.269 115.325 115.368 115.075C115.466 114.825 115.484 114.551 115.417 114.291L115.09 113.007C115.281 112.834 115.466 112.653 115.642 112.466L116.92 112.817C117.179 112.888 117.453 112.876 117.705 112.782C117.956 112.688 118.172 112.518 118.321 112.295C119.145 111.062 119.731 109.686 120.047 108.238C120.105 107.976 120.078 107.702 119.971 107.456C119.865 107.209 119.683 107.003 119.452 106.866L118.312 106.189C118.325 105.932 118.327 105.674 118.319 105.416L119.471 104.761C119.705 104.629 119.89 104.426 120.002 104.182C120.114 103.937 120.145 103.664 120.093 103.401L120.093 103.401ZM112.065 121.199L109.58 118.803C109.342 118.574 109.025 118.446 108.694 118.446C108.363 118.446 108.046 118.574 107.807 118.803L105.323 121.199V117.13C105.528 117.186 105.734 117.239 105.943 117.285C106.205 117.342 106.479 117.316 106.725 117.209C106.972 117.102 107.178 116.92 107.315 116.689L107.991 115.55C108.249 115.563 108.507 115.565 108.765 115.557L109.419 116.708C109.552 116.942 109.755 117.127 109.999 117.239C110.243 117.351 110.516 117.382 110.78 117.33C111.214 117.242 111.643 117.131 112.065 116.995V121.199L112.065 121.199ZM116.356 103.593C116.138 103.717 115.961 103.903 115.847 104.128C115.734 104.352 115.689 104.605 115.719 104.854C115.792 105.47 115.786 106.091 115.702 106.701C115.668 106.95 115.708 107.204 115.817 107.43C115.926 107.656 116.099 107.846 116.315 107.974L117.315 108.567C117.144 109.096 116.927 109.608 116.664 110.097L115.543 109.788C115.301 109.722 115.045 109.728 114.806 109.807C114.567 109.885 114.357 110.032 114.201 110.229C113.819 110.715 113.375 111.149 112.883 111.522C112.682 111.674 112.531 111.881 112.448 112.119C112.365 112.356 112.354 112.612 112.416 112.856L112.703 113.983C112.209 114.236 111.693 114.444 111.161 114.605L110.587 113.594C110.463 113.375 110.277 113.198 110.053 113.085C109.828 112.972 109.575 112.927 109.326 112.957C108.712 113.03 108.091 113.024 107.479 112.94C107.23 112.905 106.976 112.945 106.75 113.054C106.523 113.163 106.334 113.337 106.206 113.553L105.613 114.552C105.084 114.382 104.573 114.164 104.083 113.901L104.392 112.781C104.459 112.538 104.452 112.282 104.374 112.043C104.296 111.804 104.148 111.594 103.951 111.438C103.466 111.056 103.031 110.613 102.658 110.12C102.506 109.919 102.299 109.768 102.062 109.685C101.824 109.602 101.568 109.591 101.324 109.653L100.197 109.94C99.9442 109.446 99.7362 108.93 99.5756 108.399L100.587 107.824C100.806 107.7 100.983 107.514 101.096 107.289C101.209 107.065 101.254 106.812 101.224 106.563C101.151 105.949 101.157 105.328 101.241 104.716C101.275 104.467 101.236 104.213 101.127 103.987C101.017 103.761 100.844 103.571 100.628 103.443L99.6282 102.85C99.7989 102.321 100.017 101.809 100.279 101.32L101.4 101.629C101.642 101.695 101.899 101.689 102.138 101.61C102.376 101.532 102.587 101.385 102.742 101.187C103.125 100.702 103.568 100.268 104.061 99.8951C104.261 99.7434 104.413 99.5359 104.496 99.2986C104.579 99.0614 104.59 98.8048 104.527 98.5613L104.24 97.4341C104.734 97.1812 105.25 96.9731 105.782 96.8125L106.356 97.8232C106.48 98.0419 106.666 98.2189 106.891 98.3323C107.115 98.4456 107.368 98.4902 107.618 98.4604C108.232 98.3873 108.852 98.3929 109.465 98.4772C109.714 98.5115 109.967 98.4716 110.194 98.3625C110.42 98.2534 110.609 98.08 110.738 97.8639L111.331 96.8647C111.859 97.0354 112.371 97.2533 112.86 97.5156L112.552 98.6364C112.485 98.8787 112.491 99.1354 112.57 99.3742C112.648 99.613 112.795 99.8233 112.993 99.9788C113.478 100.361 113.912 100.805 114.285 101.297C114.437 101.498 114.645 101.649 114.882 101.732C115.119 101.815 115.376 101.826 115.619 101.764L116.746 101.477C116.999 101.971 117.207 102.487 117.368 103.018L116.356 103.593L116.356 103.593ZM111.016 101.302C109.838 100.623 108.467 100.442 107.155 100.794C104.445 101.52 102.831 104.315 103.557 107.025C104.166 109.296 106.227 110.797 108.473 110.797C108.908 110.797 109.35 110.741 109.789 110.623C112.499 109.897 114.112 107.101 113.386 104.392C113.035 103.079 112.193 101.982 111.016 101.302ZM109.127 108.155C107.778 108.517 106.386 107.714 106.025 106.364C105.663 105.015 106.467 103.623 107.816 103.261C108.137 103.174 108.473 103.152 108.803 103.195C109.133 103.239 109.451 103.347 109.739 103.514C110.027 103.68 110.28 103.901 110.483 104.165C110.686 104.429 110.834 104.731 110.919 105.053C111.28 106.402 110.477 107.794 109.127 108.155Z" fill="#007CEE"/>
</svg>
