<svg xmlns="http://www.w3.org/2000/svg" width="130" height="130" fill="none"><path fill="#3778C6" d="M125.948 52.282 99.667 65H97.5V41.167c0-17.594 11.007-24.614 12.718-25.805a8.8 8.8 0 0 1 1.56 2.123l15.687 30.225a3.38 3.38 0 0 1 .202 2.605 3.37 3.37 0 0 1-1.719 1.967M32.5 41.167V65h-2.167L4.052 52.282a3.37 3.37 0 0 1-1.517-4.572l15.687-30.225a8.8 8.8 0 0 1 1.56-2.123C21.493 16.553 32.5 23.574 32.5 41.167"/><path fill="#4B95FF" d="M110.218 15.362c-1.711 1.192-10.551 8.212-10.551 25.805v80.167a6.5 6.5 0 0 1-6.5 6.5H36.833a6.5 6.5 0 0 1-6.5-6.5V41.167c0-17.593-8.84-24.613-10.551-25.805a8.5 8.5 0 0 1 2.253-1.647L44.113 2.622a4.38 4.38 0 0 1 2.817-.368c1.43.303 3.9.823 7.042 1.256 3.651.539 7.337.814 11.028.824a87 87 0 0 0 18.07-2.08 4.38 4.38 0 0 1 2.817.368l22.078 11.093a8.5 8.5 0 0 1 2.253 1.647"/><path fill="#2D629B" d="M84.5 2.21c-.022.953-.563 17.29-19.5 17.29S45.522 3.163 45.5 2.21a4 4 0 0 1 1.43.043A87 87 0 0 0 65 4.333a87 87 0 0 0 18.07-2.08c.47-.1.955-.115 1.43-.043"/></svg>