<svg width="1320" height="340" viewBox="0 0 1320 340" fill="none" xmlns="http://www.w3.org/2000/svg">
<g clip-path="url(#clip0_5037_170)">
<rect width="1320" height="340" fill="#F5F7FA"/>
<g clip-path="url(#clip1_5037_170)">
<path d="M1148 126.551H1146.46V84.3974C1146.46 81.1935 1145.83 78.021 1144.6 75.0609C1143.37 72.1009 1141.57 69.4114 1139.31 67.1458C1137.04 64.8803 1134.35 63.0832 1131.38 61.8572C1128.42 60.6311 1125.25 60 1122.04 60H1032.66C1029.45 60 1026.28 60.631 1023.32 61.8571C1020.35 63.0832 1017.66 64.8803 1015.39 67.1458C1013.13 69.4113 1011.33 72.1008 1010.1 75.0609C1008.87 78.0209 1008.24 81.1934 1008.24 84.3973V315.656C1008.24 322.126 1010.81 328.332 1015.39 332.907C1019.97 337.483 1026.18 340.053 1032.66 340.053H1122.04C1128.52 340.053 1134.73 337.483 1139.31 332.907C1143.88 328.332 1146.46 322.126 1146.46 315.656V156.557H1148V126.551Z" fill="#3F3D56"/>
<path d="M1123.03 66.3474H1111.36C1111.9 67.6618 1112.1 69.0878 1111.96 70.4999C1111.81 71.912 1111.32 73.2668 1110.53 74.4449C1109.73 75.6231 1108.66 76.5884 1107.41 77.2559C1106.16 77.9235 1104.76 78.2727 1103.34 78.2728H1052.13C1050.71 78.2727 1049.31 77.9235 1048.06 77.2559C1046.81 76.5884 1045.74 75.6231 1044.94 74.4449C1044.15 73.2668 1043.66 71.912 1043.52 70.4999C1043.37 69.0878 1043.58 67.6618 1044.11 66.3474H1033.21C1028.38 66.3474 1023.74 68.267 1020.32 71.6838C1016.9 75.1007 1014.98 79.7349 1014.98 84.5671V315.486C1014.98 317.879 1015.45 320.248 1016.37 322.459C1017.28 324.669 1018.63 326.678 1020.32 328.369C1022.01 330.061 1024.02 331.403 1026.24 332.319C1028.45 333.235 1030.82 333.706 1033.21 333.706H1123.03C1125.42 333.706 1127.79 333.235 1130 332.319C1132.22 331.403 1134.23 330.061 1135.92 328.369C1137.61 326.678 1138.96 324.669 1139.87 322.459C1140.79 320.248 1141.26 317.879 1141.26 315.486V84.5671C1141.26 82.1745 1140.79 79.8053 1139.87 77.5947C1138.96 75.3842 1137.61 73.3757 1135.92 71.6838C1134.23 69.992 1132.22 68.6499 1130 67.7343C1127.79 66.8187 1125.42 66.3474 1123.03 66.3474Z" fill="white"/>
<path d="M1060.89 349.322H1059.74L1062.05 195.014H1063.2L1060.89 349.322Z" fill="#3F3D56"/>
<path d="M1092.47 349.322H1091.32L1089.01 195.014H1090.16L1092.47 349.322Z" fill="#3F3D56"/>
<path d="M1089.39 198.093H1062.44V199.247H1089.39V198.093Z" fill="#3F3D56"/>
<path d="M1089.39 218.103H1062.44V219.257H1089.39V218.103Z" fill="#3F3D56"/>
<path d="M1090.16 238.113H1062.05V239.267H1090.16V238.113Z" fill="#3F3D56"/>
<path d="M1090.55 258.123H1062.05V259.277H1090.55V258.123Z" fill="#3F3D56"/>
<path d="M1090.93 278.133H1061.66V279.287H1090.93V278.133Z" fill="#3F3D56"/>
<path d="M1090.93 298.143H1061.28V299.297H1090.93V298.143Z" fill="#3F3D56"/>
<path d="M1091.32 318.153H1060.89V319.307H1091.32V318.153Z" fill="#3F3D56"/>
<path d="M1091.7 338.162H1060.12V339.317H1091.7V338.162Z" fill="#3F3D56"/>
<path d="M1074.63 270.192C1083.57 270.192 1090.81 262.954 1090.81 254.026C1090.81 245.097 1083.57 237.859 1074.63 237.859C1065.7 237.859 1058.45 245.097 1058.45 254.026C1058.45 262.954 1065.7 270.192 1074.63 270.192Z" fill="#2F2E41"/>
<path d="M1084.15 265.2L1079.31 266.075L1080.88 274.734L1085.72 273.859L1084.15 265.2Z" fill="#2F2E41"/>
<path d="M1074.47 266.95L1069.64 267.824L1071.21 276.483L1076.04 275.608L1074.47 266.95Z" fill="#2F2E41"/>
<path d="M1073.77 278.304C1075.5 276.843 1076.45 275.134 1075.91 274.488C1075.36 273.841 1073.51 274.501 1071.79 275.961C1070.06 277.422 1069.11 279.131 1069.65 279.778C1070.2 280.425 1072.05 279.765 1073.77 278.304Z" fill="#2F2E41"/>
<path d="M1083.25 276.591C1084.97 275.13 1085.93 273.421 1085.38 272.774C1084.83 272.128 1082.99 272.787 1081.26 274.248C1079.53 275.709 1078.58 277.418 1079.13 278.065C1079.68 278.711 1081.52 278.052 1083.25 276.591Z" fill="#2F2E41"/>
<path d="M1073.5 255.597C1076.55 255.597 1079.03 253.123 1079.03 250.071C1079.03 247.02 1076.55 244.546 1073.5 244.546C1070.44 244.546 1067.97 247.02 1067.97 250.071C1067.97 253.123 1070.44 255.597 1073.5 255.597Z" fill="white"/>
<path d="M1071.23 249.933C1072.24 249.933 1073.07 249.108 1073.07 248.091C1073.07 247.074 1072.24 246.249 1071.23 246.249C1070.21 246.249 1069.38 247.074 1069.38 248.091C1069.38 249.108 1070.21 249.933 1071.23 249.933Z" fill="#3F3D56"/>
<path d="M1087.4 236.438C1087.64 230.453 1082.48 225.384 1075.86 225.115C1069.25 224.847 1063.7 229.481 1063.45 235.466C1063.21 241.452 1067.81 242.811 1074.42 243.08C1081.03 243.348 1087.15 242.423 1087.4 236.438Z" fill="#007CEE"/>
<path d="M1067.58 252.887C1067.89 251.521 1064.61 249.605 1060.26 248.607C1055.9 247.61 1052.12 247.909 1051.81 249.275C1051.49 250.641 1054.77 252.557 1059.12 253.554C1063.48 254.551 1067.26 254.253 1067.58 252.887Z" fill="#2F2E41"/>
<path d="M1099.34 258.164C1099.65 256.798 1096.37 254.882 1092.02 253.884C1087.66 252.887 1083.88 253.186 1083.57 254.552C1083.25 255.918 1086.53 257.834 1090.88 258.831C1095.24 259.829 1099.02 259.53 1099.34 258.164Z" fill="#2F2E41"/>
<path d="M1079.07 260.397C1079.16 260.873 1079.15 261.362 1079.05 261.835C1078.95 262.308 1078.75 262.756 1078.48 263.154C1078.2 263.552 1077.85 263.892 1077.45 264.155C1077.04 264.417 1076.58 264.597 1076.11 264.683C1075.63 264.77 1075.14 264.762 1074.67 264.66C1074.2 264.557 1073.75 264.363 1073.35 264.088C1072.95 263.812 1072.61 263.461 1072.35 263.054C1072.09 262.647 1071.91 262.193 1071.82 261.716L1071.82 261.709C1071.46 259.707 1073 258.999 1075.01 258.637C1077.01 258.274 1078.71 258.395 1079.07 260.397Z" fill="white"/>
<path d="M1130.42 158.218L1026.85 167.492C1026.34 167.537 1025.84 167.379 1025.45 167.052C1025.06 166.725 1024.81 166.256 1024.76 165.748L1022.46 140.078C1022.42 139.57 1022.57 139.065 1022.9 138.673C1023.23 138.282 1023.7 138.036 1024.21 137.99L1127.77 128.716C1128.28 128.671 1128.79 128.829 1129.18 129.156C1129.57 129.483 1129.82 129.952 1129.86 130.46L1132.17 156.13C1132.21 156.638 1132.05 157.143 1131.72 157.535C1131.4 157.926 1130.93 158.172 1130.42 158.218ZM1024.28 138.757C1023.97 138.784 1023.69 138.932 1023.49 139.167C1023.3 139.401 1023.2 139.705 1023.23 140.009L1025.53 165.679C1025.56 165.984 1025.71 166.265 1025.94 166.462C1026.18 166.658 1026.48 166.753 1026.78 166.726L1130.35 157.451C1130.66 157.424 1130.94 157.276 1131.13 157.041C1131.33 156.807 1131.43 156.503 1131.4 156.199L1129.1 130.529C1129.07 130.224 1128.92 129.943 1128.69 129.746C1128.45 129.55 1128.15 129.455 1127.84 129.482L1024.28 138.757Z" fill="#3F3D56"/>
<path d="M1038.95 159.62C1043.42 159.62 1047.04 156.002 1047.04 151.539C1047.04 147.076 1043.42 143.458 1038.95 143.458C1034.49 143.458 1030.87 147.076 1030.87 151.539C1030.87 156.002 1034.49 159.62 1038.95 159.62Z" fill="#007CEE"/>
<path d="M1057.08 144.507C1056.9 144.523 1056.73 144.573 1056.57 144.655C1056.42 144.737 1056.28 144.849 1056.16 144.985C1056.05 145.121 1055.96 145.277 1055.91 145.446C1055.86 145.615 1055.84 145.793 1055.85 145.969C1055.87 146.145 1055.92 146.316 1056 146.473C1056.09 146.63 1056.2 146.769 1056.33 146.882C1056.47 146.996 1056.63 147.081 1056.79 147.134C1056.96 147.187 1057.14 147.206 1057.32 147.19L1120.61 141.522C1120.78 141.506 1120.96 141.456 1121.11 141.374C1121.27 141.292 1121.41 141.18 1121.52 141.044C1121.64 140.909 1121.72 140.752 1121.77 140.583C1121.83 140.414 1121.85 140.237 1121.83 140.061C1121.81 139.884 1121.76 139.713 1121.68 139.556C1121.6 139.4 1121.49 139.261 1121.35 139.147C1121.22 139.034 1121.06 138.948 1120.89 138.895C1120.72 138.843 1120.54 138.824 1120.37 138.839L1057.08 144.507Z" fill="#3F3D56"/>
<path d="M1057.8 152.556C1057.62 152.571 1057.45 152.621 1057.29 152.703C1057.14 152.784 1057 152.896 1056.88 153.032C1056.77 153.168 1056.68 153.325 1056.63 153.494C1056.58 153.663 1056.56 153.841 1056.57 154.018C1056.59 154.195 1056.64 154.366 1056.72 154.523C1056.8 154.68 1056.92 154.82 1057.05 154.933C1057.19 155.046 1057.35 155.132 1057.52 155.184C1057.69 155.237 1057.86 155.255 1058.04 155.239L1121.33 149.571C1121.69 149.539 1122.01 149.367 1122.24 149.093C1122.47 148.819 1122.58 148.465 1122.55 148.109C1122.52 147.754 1122.35 147.426 1122.07 147.197C1121.8 146.968 1121.45 146.857 1121.09 146.888L1057.8 152.556Z" fill="#3F3D56"/>
<path d="M1092.62 164.246C1094.25 159.972 1094.49 156.09 1093.15 155.578C1091.8 155.065 1089.39 158.114 1087.75 162.389C1086.12 166.664 1085.88 170.545 1087.22 171.058C1088.57 171.571 1090.98 168.521 1092.62 164.246Z" fill="#2F2E41"/>
<path d="M1091.23 178.487C1092.7 169.452 1086.56 160.94 1077.51 159.474C1068.47 158.008 1059.95 164.143 1058.48 173.178C1057.02 182.212 1063.16 190.725 1072.2 192.191C1081.24 193.657 1089.76 187.522 1091.23 178.487Z" fill="#2F2E41"/>
<path d="M1072.34 188.839H1067.3V197.859H1072.34V188.839Z" fill="#2F2E41"/>
<path d="M1082.41 188.839H1077.38V197.859H1082.41V188.839Z" fill="#2F2E41"/>
<path d="M1071.5 199.538C1073.81 199.538 1075.69 198.833 1075.69 197.964C1075.69 197.095 1073.81 196.391 1071.5 196.391C1069.18 196.391 1067.3 197.095 1067.3 197.964C1067.3 198.833 1069.18 199.538 1071.5 199.538Z" fill="#2F2E41"/>
<path d="M1081.57 199.328C1083.89 199.328 1085.77 198.623 1085.77 197.755C1085.77 196.886 1083.89 196.181 1081.57 196.181C1079.25 196.181 1077.38 196.886 1077.38 197.755C1077.38 198.623 1079.25 199.328 1081.57 199.328Z" fill="#2F2E41"/>
<path d="M1058.77 160.42C1057.43 154.428 1061.71 148.372 1068.33 146.895C1074.95 145.418 1081.4 149.079 1082.74 155.072C1084.08 161.065 1079.69 163.275 1073.07 164.752C1066.45 166.229 1060.11 166.413 1058.77 160.42Z" fill="#007CEE"/>
<path d="M1063.67 171.694C1064.28 170.396 1061.43 167.753 1057.29 165.792C1053.15 163.831 1049.3 163.294 1048.68 164.592C1048.07 165.89 1050.92 168.532 1055.06 170.493C1059.2 172.454 1063.05 172.992 1063.67 171.694Z" fill="#2F2E41"/>
<path d="M974.927 343.868C984.087 343.868 991.513 336.448 991.513 327.295C991.513 318.142 984.087 310.722 974.927 310.722C965.767 310.722 958.341 318.142 958.341 327.295C958.341 336.448 965.767 343.868 974.927 343.868Z" fill="#2F2E41"/>
<path d="M975.346 328.763C978.477 328.763 981.015 326.227 981.015 323.099C981.015 319.971 978.477 317.435 975.346 317.435C972.216 317.435 969.678 319.971 969.678 323.099C969.678 326.227 972.216 328.763 975.346 328.763Z" fill="white"/>
<path d="M975.347 324.987C976.39 324.987 977.236 324.142 977.236 323.099C977.236 322.057 976.39 321.211 975.347 321.211C974.303 321.211 973.457 322.057 973.457 323.099C973.457 324.142 974.303 324.987 975.347 324.987Z" fill="#3F3D56"/>
<path d="M958.838 311.883C957.499 305.89 961.78 299.834 968.4 298.357C975.02 296.88 981.472 300.541 982.812 306.534C984.151 312.527 979.763 314.737 973.143 316.214C966.523 317.691 960.177 317.876 958.838 311.883Z" fill="#007CEE"/>
<path d="M987.02 268.089C988.655 263.814 988.892 259.933 987.549 259.42C986.206 258.907 983.791 261.957 982.156 266.232C980.521 270.507 980.284 274.388 981.627 274.901C982.97 275.414 985.385 272.364 987.02 268.089Z" fill="#2F2E41"/>
<path d="M985.63 282.33C987.097 273.295 980.957 264.783 971.915 263.316C962.873 261.85 954.354 267.986 952.886 277.02C951.419 286.055 957.559 294.567 966.601 296.034C975.643 297.5 984.163 291.364 985.63 282.33Z" fill="#2F2E41"/>
<path d="M966.738 292.681H961.699V301.702H966.738V292.681Z" fill="#2F2E41"/>
<path d="M976.816 292.681H971.777V301.702H976.816V292.681Z" fill="#2F2E41"/>
<path d="M965.898 303.38C968.217 303.38 970.097 302.676 970.097 301.807C970.097 300.938 968.217 300.233 965.898 300.233C963.579 300.233 961.699 300.938 961.699 301.807C961.699 302.676 963.579 303.38 965.898 303.38Z" fill="#2F2E41"/>
<path d="M975.976 303.17C978.295 303.17 980.175 302.466 980.175 301.597C980.175 300.728 978.295 300.024 975.976 300.024C973.657 300.024 971.777 300.728 971.777 301.597C971.777 302.466 973.657 303.17 975.976 303.17Z" fill="#2F2E41"/>
<path d="M969.677 281.144C972.808 281.144 975.346 278.608 975.346 275.479C975.346 272.351 972.808 269.815 969.677 269.815C966.547 269.815 964.009 272.351 964.009 275.479C964.009 278.608 966.547 281.144 969.677 281.144Z" fill="white"/>
<path d="M969.678 277.368C970.721 277.368 971.567 276.522 971.567 275.48C971.567 274.437 970.721 273.592 969.678 273.592C968.634 273.592 967.788 274.437 967.788 275.48C967.788 276.522 968.634 277.368 969.678 277.368Z" fill="#3F3D56"/>
<path d="M953.169 264.263C951.83 258.27 956.111 252.215 962.731 250.737C969.351 249.26 975.803 252.921 977.143 258.914C978.482 264.907 974.094 267.117 967.474 268.594C960.854 270.071 954.508 270.256 953.169 264.263Z" fill="#007CEE"/>
<path d="M958.069 275.536C958.685 274.238 955.83 271.596 951.692 269.635C947.554 267.674 943.7 267.136 943.083 268.434C942.467 269.732 945.322 272.374 949.461 274.336C953.599 276.297 957.453 276.834 958.069 275.536Z" fill="#2F2E41"/>
<path d="M961.111 285.654C961.111 287.276 965.291 290.479 969.929 290.479C974.567 290.479 978.916 285.912 978.916 284.29C978.916 282.668 974.567 284.605 969.929 284.605C965.291 284.605 961.111 284.032 961.111 285.654Z" fill="white"/>
<path d="M1040.57 280.064C1042.21 275.789 1042.44 271.908 1041.1 271.395C1039.76 270.882 1037.34 273.932 1035.71 278.207C1034.07 282.481 1033.83 286.363 1035.18 286.876C1036.52 287.388 1038.94 284.339 1040.57 280.064Z" fill="#2F2E41"/>
<path d="M1042.65 297.768C1044.11 288.733 1037.97 280.221 1028.93 278.755C1019.89 277.289 1011.37 283.424 1009.9 292.459C1008.43 301.493 1014.58 310.006 1023.62 311.472C1032.66 312.938 1041.18 306.802 1042.65 297.768Z" fill="#2F2E41"/>
<path d="M1018.71 308.12H1023.75L1022.77 318.922L1018.71 317.14V308.12Z" fill="#2F2E41"/>
<path d="M1022.98 322.096C1023.74 321.685 1023.47 319.696 1022.38 317.655C1021.28 315.613 1019.77 314.292 1019 314.703C1018.24 315.114 1018.5 317.102 1019.6 319.143C1020.7 321.185 1022.21 322.507 1022.98 322.096Z" fill="#2F2E41"/>
<path d="M1029.7 308.147H1034.74L1033.75 318.95L1029.7 317.168V308.147Z" fill="#2F2E41"/>
<path d="M1033.96 322.124C1034.73 321.713 1034.46 319.725 1033.36 317.683C1032.26 315.642 1030.75 314.32 1029.99 314.731C1029.22 315.142 1029.49 317.13 1030.59 319.172C1031.68 321.213 1033.19 322.535 1033.96 322.124Z" fill="#2F2E41"/>
<path d="M1026.69 296.582C1029.82 296.582 1032.36 294.046 1032.36 290.918C1032.36 287.79 1029.82 285.254 1026.69 285.254C1023.56 285.254 1021.03 287.79 1021.03 290.918C1021.03 294.046 1023.56 296.582 1026.69 296.582Z" fill="white"/>
<path d="M1026.69 292.806C1027.74 292.806 1028.58 291.96 1028.58 290.918C1028.58 289.875 1027.74 289.03 1026.69 289.03C1025.65 289.03 1024.8 289.875 1024.8 290.918C1024.8 291.96 1025.65 292.806 1026.69 292.806Z" fill="#3F3D56"/>
<path d="M1010.18 279.701C1008.85 273.708 1013.13 267.653 1019.75 266.176C1026.37 264.699 1032.82 268.36 1034.16 274.352C1035.5 280.345 1031.11 282.556 1024.49 284.033C1017.87 285.51 1011.52 285.694 1010.18 279.701Z" fill="#007CEE"/>
<path d="M1013.67 290.241C1014.83 289.387 1013.56 285.711 1010.84 282.03C1008.12 278.349 1004.98 276.057 1003.82 276.91C1002.66 277.764 1003.93 281.44 1006.65 285.121C1009.37 288.802 1012.52 291.094 1013.67 290.241Z" fill="#2F2E41"/>
<path d="M1034.37 303.658C1034.37 302.322 1030.92 299.682 1027.1 299.682C1023.28 299.682 1019.69 303.445 1019.69 304.782C1019.69 306.119 1023.28 304.523 1027.1 304.523C1030.92 304.523 1034.37 304.995 1034.37 303.658Z" fill="white"/>
<path d="M1016.99 281.238C1012.19 281.24 1007.43 280.296 1002.99 278.46C998.548 276.623 994.514 273.931 991.117 270.536C987.719 267.141 985.024 263.11 983.186 258.674C981.348 254.238 980.403 249.483 980.405 244.682C980.405 244.606 980.405 244.525 980.41 244.448C980.522 224.429 996.933 208.125 1016.99 208.125C1025.24 208.127 1033.26 210.916 1039.72 216.04C1046.19 221.164 1050.73 228.322 1052.61 236.351C1054.5 244.381 1053.61 252.81 1050.09 260.271C1046.57 267.731 1040.63 273.784 1033.24 277.446C1028.19 279.956 1022.63 281.254 1016.99 281.238ZM1016.99 208.895C1007.54 208.916 998.47 212.664 991.764 219.326C985.059 225.988 981.255 235.025 981.179 244.473C981.175 244.554 981.176 244.62 981.176 244.682C981.173 253.758 984.622 262.495 990.823 269.126C997.024 275.757 1005.52 279.786 1014.58 280.397C1023.64 281.009 1032.6 278.158 1039.63 272.42C1046.67 266.683 1051.26 258.488 1052.48 249.495C1053.17 244.435 1052.77 239.286 1051.3 234.395C1049.83 229.503 1047.33 224.983 1043.97 221.137C1040.61 217.291 1036.46 214.208 1031.81 212.097C1027.15 209.985 1022.1 208.894 1016.99 208.895Z" fill="#3F3D56"/>
<path d="M1033.56 246.452L1008.52 232.006C1008.4 231.938 1008.27 231.903 1008.13 231.903C1008 231.903 1007.87 231.938 1007.75 232.006C1007.63 232.073 1007.53 232.17 1007.47 232.287C1007.4 232.404 1007.36 232.537 1007.36 232.672V261.564C1007.36 261.699 1007.4 261.832 1007.47 261.949C1007.53 262.066 1007.63 262.163 1007.75 262.23C1007.87 262.298 1008 262.334 1008.13 262.334C1008.27 262.334 1008.4 262.298 1008.52 262.23L1033.56 247.785C1033.68 247.717 1033.77 247.62 1033.84 247.503C1033.91 247.386 1033.94 247.253 1033.94 247.118C1033.94 246.983 1033.91 246.85 1033.84 246.733C1033.77 246.616 1033.68 246.519 1033.56 246.452L1008.52 232.006C1008.4 231.938 1008.27 231.903 1008.13 231.903C1008 231.903 1007.87 231.938 1007.75 232.006C1007.63 232.073 1007.53 232.17 1007.47 232.287C1007.4 232.404 1007.36 232.537 1007.36 232.672V261.564C1007.36 261.699 1007.4 261.832 1007.47 261.949C1007.53 262.066 1007.63 262.163 1007.75 262.23C1007.87 262.298 1008 262.334 1008.13 262.334C1008.27 262.334 1008.4 262.298 1008.52 262.23L1033.56 247.785C1033.68 247.717 1033.77 247.62 1033.84 247.503C1033.91 247.386 1033.94 247.253 1033.94 247.118C1033.94 246.983 1033.91 246.85 1033.84 246.733C1033.77 246.616 1033.68 246.519 1033.56 246.452Z" fill="#007CEE"/>
<path d="M1239.49 339.823L1147.96 290.521C1147.51 290.278 1147.18 289.867 1147.03 289.379C1146.89 288.89 1146.94 288.363 1147.18 287.914L1159.42 265.228C1159.66 264.779 1160.07 264.445 1160.56 264.299C1161.05 264.152 1161.58 264.206 1162.03 264.447L1253.56 313.75C1254.01 313.992 1254.34 314.403 1254.49 314.892C1254.63 315.38 1254.58 315.907 1254.34 316.357L1242.1 339.043C1241.86 339.491 1241.45 339.825 1240.96 339.972C1240.47 340.118 1239.94 340.065 1239.49 339.823ZM1161.66 265.125C1161.39 264.98 1161.08 264.948 1160.78 265.036C1160.49 265.123 1160.24 265.324 1160.1 265.593L1147.86 288.279C1147.71 288.549 1147.68 288.865 1147.77 289.158C1147.86 289.451 1148.06 289.698 1148.33 289.843L1239.86 339.146C1240.13 339.291 1240.44 339.323 1240.74 339.235C1241.03 339.147 1241.28 338.947 1241.42 338.677L1253.66 315.991C1253.81 315.722 1253.84 315.406 1253.75 315.112C1253.66 314.819 1253.46 314.573 1253.19 314.427L1161.66 265.125Z" fill="#3F3D56"/>
<path d="M1166.86 291.956C1171.33 291.956 1174.95 288.338 1174.95 283.875C1174.95 279.412 1171.33 275.794 1166.86 275.794C1162.39 275.794 1158.77 279.412 1158.77 283.875C1158.77 288.338 1162.39 291.956 1166.86 291.956Z" fill="#007CEE"/>
<path d="M1185.86 287.989C1185.71 287.905 1185.53 287.852 1185.36 287.834C1185.18 287.816 1185 287.833 1184.83 287.884C1184.66 287.935 1184.51 288.018 1184.37 288.13C1184.23 288.242 1184.12 288.379 1184.03 288.535C1183.95 288.691 1183.9 288.862 1183.88 289.038C1183.86 289.214 1183.88 289.391 1183.93 289.561C1183.98 289.73 1184.06 289.888 1184.18 290.025C1184.29 290.162 1184.43 290.276 1184.58 290.36L1240.52 320.489C1240.67 320.573 1240.84 320.626 1241.02 320.644C1241.19 320.662 1241.37 320.645 1241.54 320.594C1241.71 320.544 1241.87 320.46 1242.01 320.348C1242.14 320.236 1242.26 320.099 1242.34 319.943C1242.43 319.787 1242.48 319.617 1242.5 319.441C1242.52 319.265 1242.5 319.087 1242.45 318.917C1242.4 318.748 1242.31 318.59 1242.2 318.453C1242.09 318.316 1241.95 318.202 1241.8 318.118L1185.86 287.989Z" fill="#3F3D56"/>
<path d="M1182.02 295.102C1181.71 294.933 1181.34 294.895 1181 294.998C1180.65 295.1 1180.37 295.334 1180.2 295.649C1180.03 295.963 1179.99 296.332 1180.09 296.674C1180.19 297.016 1180.43 297.304 1180.74 297.473L1236.68 327.603C1236.83 327.686 1237 327.739 1237.18 327.757C1237.36 327.775 1237.53 327.758 1237.7 327.707C1237.87 327.656 1238.03 327.573 1238.17 327.461C1238.31 327.349 1238.42 327.212 1238.5 327.056C1238.59 326.9 1238.64 326.73 1238.66 326.554C1238.68 326.378 1238.66 326.2 1238.61 326.031C1238.56 325.861 1238.47 325.703 1238.36 325.566C1238.25 325.429 1238.11 325.315 1237.96 325.231L1182.02 295.102Z" fill="#3F3D56"/>
<g clip-path="url(#clip2_5037_170)">
<path d="M1045.96 143.085L1030.08 145.035L1032.03 160.915L1047.91 158.965L1045.96 143.085Z" fill="#007CEE"/>
<path d="M1037.6 155.109C1037.42 155.132 1037.27 155.099 1037.16 155.011C1037.05 154.917 1036.98 154.779 1036.96 154.596L1036.33 149.462C1036.31 149.273 1036.34 149.126 1036.43 149.02C1036.52 148.907 1036.65 148.84 1036.84 148.818L1038.96 148.557C1039.64 148.473 1040.19 148.573 1040.6 148.857C1041.01 149.135 1041.25 149.568 1041.33 150.156C1041.37 150.538 1041.33 150.878 1041.19 151.176C1041.06 151.472 1040.84 151.714 1040.55 151.9C1040.25 152.086 1039.87 152.207 1039.42 152.262L1039.48 152.12L1039.77 152.084C1040.01 152.055 1040.23 152.088 1040.42 152.184C1040.62 152.279 1040.8 152.445 1040.96 152.681L1041.78 153.826C1041.86 153.941 1041.91 154.058 1041.92 154.176C1041.93 154.295 1041.89 154.397 1041.82 154.484C1041.75 154.564 1041.63 154.614 1041.47 154.634C1041.31 154.653 1041.18 154.637 1041.07 154.584C1040.96 154.526 1040.86 154.431 1040.77 154.299L1039.68 152.768C1039.55 152.581 1039.4 152.464 1039.25 152.417C1039.1 152.364 1038.91 152.351 1038.69 152.379L1037.85 152.481L1038.09 154.458C1038.11 154.64 1038.08 154.79 1038 154.907C1037.92 155.019 1037.79 155.086 1037.6 155.109ZM1037.75 151.643L1039.12 151.474C1039.53 151.425 1039.82 151.305 1040.01 151.115C1040.2 150.918 1040.28 150.652 1040.23 150.317C1040.19 149.988 1040.06 149.753 1039.83 149.615C1039.6 149.47 1039.28 149.422 1038.88 149.472L1037.5 149.641L1037.75 151.643Z" fill="white"/>
</g>
<g clip-path="url(#clip3_5037_170)">
<path d="M1177.86 281L1164 273L1156 286.856L1169.86 294.856L1177.86 281Z" fill="#007CEE"/>
<path d="M1163.94 285.569C1163.78 285.477 1163.68 285.362 1163.65 285.225C1163.62 285.085 1163.65 284.935 1163.74 284.776L1166.33 280.296C1166.42 280.132 1166.54 280.034 1166.67 280.002C1166.81 279.965 1166.96 279.993 1167.12 280.085L1168.97 281.156C1169.57 281.499 1169.94 281.908 1170.1 282.382C1170.26 282.851 1170.19 283.342 1169.9 283.855C1169.7 284.189 1169.46 284.433 1169.17 284.589C1168.89 284.747 1168.57 284.81 1168.22 284.779C1167.87 284.747 1167.5 284.617 1167.1 284.389L1167.24 284.313L1167.49 284.46C1167.7 284.581 1167.86 284.738 1167.95 284.93C1168.05 285.124 1168.1 285.366 1168.09 285.655L1168.05 287.058C1168.05 287.201 1168.01 287.323 1167.95 287.422C1167.89 287.522 1167.8 287.585 1167.69 287.61C1167.58 287.63 1167.46 287.6 1167.32 287.52C1167.18 287.44 1167.08 287.346 1167.03 287.24C1166.98 287.128 1166.95 286.991 1166.96 286.829L1167.01 284.948C1167.02 284.721 1166.97 284.541 1166.88 284.411C1166.79 284.278 1166.65 284.156 1166.45 284.043L1165.72 283.621L1164.73 285.345C1164.63 285.504 1164.52 285.606 1164.38 285.651C1164.25 285.691 1164.1 285.664 1163.94 285.569ZM1166.14 282.889L1167.34 283.583C1167.7 283.787 1168.01 283.869 1168.27 283.829C1168.54 283.787 1168.76 283.62 1168.93 283.327C1169.09 283.04 1169.13 282.771 1169.02 282.521C1168.93 282.268 1168.71 282.04 1168.35 281.835L1167.15 281.142L1166.14 282.889Z" fill="white"/>
</g>
</g>
<g clip-path="url(#clip4_5037_170)">
<path d="M273 73H80V266H273V73Z" fill="#007CEE"/>
<path d="M155.163 204.669C152.947 204.669 151.232 204.061 150.016 202.846C148.873 201.559 148.301 199.808 148.301 197.592V135.189C148.301 132.901 148.908 131.186 150.124 130.042C151.339 128.827 153.054 128.219 155.27 128.219H181.111C189.403 128.219 195.8 130.221 200.304 134.224C204.807 138.155 207.059 143.695 207.059 150.843C207.059 155.49 206.022 159.493 203.949 162.852C201.948 166.212 199.017 168.785 195.157 170.572C191.297 172.359 186.615 173.253 181.111 173.253L182.076 171.644H185.614C188.545 171.644 191.082 172.359 193.227 173.789C195.443 175.219 197.373 177.47 199.017 180.544L207.059 195.448C207.916 196.949 208.309 198.414 208.238 199.844C208.167 201.274 207.63 202.453 206.63 203.382C205.629 204.24 204.164 204.669 202.234 204.669C200.304 204.669 198.731 204.276 197.516 203.489C196.301 202.632 195.228 201.345 194.299 199.629L183.47 179.686C182.183 177.256 180.646 175.648 178.859 174.861C177.144 174.003 174.928 173.574 172.211 173.574H162.025V197.592C162.025 199.808 161.453 201.559 160.31 202.846C159.166 204.061 157.45 204.669 155.163 204.669ZM162.025 163.388H178.752C183.684 163.388 187.401 162.388 189.903 160.386C192.476 158.313 193.763 155.239 193.763 151.165C193.763 147.162 192.476 144.16 189.903 142.158C187.401 140.085 183.684 139.049 178.752 139.049H162.025V163.388Z" fill="white"/>
</g>
<path d="M367.986 190.448C366.829 190.448 365.933 190.131 365.298 189.496C364.701 188.824 364.402 187.909 364.402 186.752V154.216C364.402 153.021 364.719 152.107 365.354 151.472C365.989 150.837 366.903 150.52 368.098 150.52H387.866C388.874 150.52 389.639 150.781 390.162 151.304C390.685 151.789 390.946 152.517 390.946 153.488C390.946 154.421 390.685 155.168 390.162 155.728C389.639 156.251 388.874 156.512 387.866 156.512H371.57V186.752C371.57 187.909 371.271 188.824 370.674 189.496C370.077 190.131 369.181 190.448 367.986 190.448ZM412.832 190.56C409.024 190.56 405.683 189.72 402.808 188.04C399.971 186.36 397.768 184.008 396.2 180.984C394.632 177.923 393.848 174.339 393.848 170.232C393.848 167.133 394.296 164.352 395.192 161.888C396.088 159.387 397.358 157.259 399 155.504C400.68 153.712 402.678 152.349 404.992 151.416C407.344 150.445 409.958 149.96 412.832 149.96C416.678 149.96 420.019 150.8 422.856 152.48C425.694 154.123 427.896 156.456 429.464 159.48C431.032 162.504 431.816 166.069 431.816 170.176C431.816 173.275 431.368 176.075 430.472 178.576C429.576 181.077 428.288 183.224 426.608 185.016C424.966 186.808 422.968 188.189 420.616 189.16C418.302 190.093 415.707 190.56 412.832 190.56ZM412.832 184.4C415.259 184.4 417.312 183.84 418.992 182.72C420.71 181.6 422.016 179.976 422.912 177.848C423.846 175.72 424.312 173.181 424.312 170.232C424.312 165.752 423.304 162.28 421.288 159.816C419.31 157.352 416.491 156.12 412.832 156.12C410.443 156.12 408.39 156.68 406.672 157.8C404.955 158.883 403.63 160.488 402.696 162.616C401.8 164.707 401.352 167.245 401.352 170.232C401.352 174.675 402.36 178.147 404.376 180.648C406.392 183.149 409.211 184.4 412.832 184.4ZM449.803 190.448C448.645 190.448 447.749 190.131 447.115 189.496C446.517 188.824 446.219 187.909 446.219 186.752V156.512H435.299C434.328 156.512 433.563 156.251 433.003 155.728C432.48 155.168 432.219 154.421 432.219 153.488C432.219 152.517 432.48 151.789 433.003 151.304C433.563 150.781 434.328 150.52 435.299 150.52H464.307C465.277 150.52 466.024 150.781 466.547 151.304C467.107 151.789 467.387 152.517 467.387 153.488C467.387 154.421 467.107 155.168 466.547 155.728C466.024 156.251 465.277 156.512 464.307 156.512H453.387V186.752C453.387 187.909 453.088 188.824 452.491 189.496C451.893 190.131 450.997 190.448 449.803 190.448ZM487.043 190.56C483.235 190.56 479.894 189.72 477.019 188.04C474.182 186.36 471.979 184.008 470.411 180.984C468.843 177.923 468.059 174.339 468.059 170.232C468.059 167.133 468.507 164.352 469.403 161.888C470.299 159.387 471.568 157.259 473.211 155.504C474.891 153.712 476.888 152.349 479.203 151.416C481.555 150.445 484.168 149.96 487.043 149.96C490.888 149.96 494.23 150.8 497.067 152.48C499.904 154.123 502.107 156.456 503.675 159.48C505.243 162.504 506.027 166.069 506.027 170.176C506.027 173.275 505.579 176.075 504.683 178.576C503.787 181.077 502.499 183.224 500.819 185.016C499.176 186.808 497.179 188.189 494.827 189.16C492.512 190.093 489.918 190.56 487.043 190.56ZM487.043 184.4C489.47 184.4 491.523 183.84 493.203 182.72C494.92 181.6 496.227 179.976 497.123 177.848C498.056 175.72 498.523 173.181 498.523 170.232C498.523 165.752 497.515 162.28 495.499 159.816C493.52 157.352 490.702 156.12 487.043 156.12C484.654 156.12 482.6 156.68 480.883 157.8C479.166 158.883 477.84 160.488 476.907 162.616C476.011 164.707 475.563 167.245 475.563 170.232C475.563 174.675 476.571 178.147 478.587 180.648C480.603 183.149 483.422 184.4 487.043 184.4ZM517.124 190C515.892 190 514.94 189.683 514.268 189.048C513.633 188.376 513.316 187.424 513.316 186.192V154.328C513.316 153.096 513.633 152.163 514.268 151.528C514.94 150.856 515.892 150.52 517.124 150.52H530.564C533.327 150.52 535.679 150.931 537.62 151.752C539.561 152.573 541.036 153.749 542.044 155.28C543.089 156.811 543.612 158.64 543.612 160.768C543.612 163.157 542.921 165.173 541.54 166.816C540.159 168.459 538.273 169.56 535.884 170.12V169.28C538.647 169.691 540.793 170.736 542.324 172.416C543.855 174.096 544.62 176.28 544.62 178.968C544.62 182.477 543.425 185.203 541.036 187.144C538.684 189.048 535.399 190 531.18 190H517.124ZM520.204 184.568H530.284C532.823 184.568 534.689 184.083 535.884 183.112C537.079 182.104 537.676 180.611 537.676 178.632C537.676 176.616 537.079 175.123 535.884 174.152C534.689 173.181 532.823 172.696 530.284 172.696H520.204V184.568ZM520.204 167.264H529.332C531.796 167.264 533.625 166.797 534.82 165.864C536.052 164.893 536.668 163.475 536.668 161.608C536.668 159.741 536.052 158.341 534.82 157.408C533.625 156.437 531.796 155.952 529.332 155.952H520.204V167.264ZM555.679 190C554.447 190 553.495 189.683 552.823 189.048C552.188 188.376 551.871 187.424 551.871 186.192V153.768C551.871 152.573 552.169 151.659 552.767 151.024C553.401 150.389 554.297 150.072 555.455 150.072C556.612 150.072 557.489 150.389 558.087 151.024C558.721 151.659 559.039 152.573 559.039 153.768V166.984H569.735C572.535 166.984 574.943 167.432 576.959 168.328C578.975 169.187 580.505 170.475 581.551 172.192C582.633 173.872 583.175 175.963 583.175 178.464C583.175 182.197 581.98 185.053 579.591 187.032C577.239 189.011 573.953 190 569.735 190H555.679ZM559.039 184.288H568.839C571.377 184.288 573.244 183.821 574.439 182.888C575.633 181.917 576.231 180.443 576.231 178.464C576.231 176.485 575.633 175.029 574.439 174.096C573.244 173.163 571.377 172.696 568.839 172.696H559.039V184.288ZM607.918 190.56C603.812 190.56 600.284 189.739 597.334 188.096C594.422 186.416 592.182 184.064 590.614 181.04C589.046 177.979 588.262 174.376 588.262 170.232C588.262 167.133 588.71 164.352 589.606 161.888C590.502 159.387 591.79 157.259 593.47 155.504C595.15 153.712 597.204 152.349 599.63 151.416C602.094 150.445 604.857 149.96 607.918 149.96C609.972 149.96 611.988 150.221 613.966 150.744C615.945 151.267 617.681 152.013 619.174 152.984C619.958 153.469 620.481 154.067 620.742 154.776C621.004 155.448 621.06 156.12 620.91 156.792C620.761 157.427 620.444 157.968 619.958 158.416C619.51 158.864 618.932 159.125 618.222 159.2C617.55 159.237 616.804 158.995 615.982 158.472C614.825 157.725 613.574 157.184 612.23 156.848C610.886 156.512 609.524 156.344 608.142 156.344C605.492 156.344 603.252 156.885 601.422 157.968C599.593 159.051 598.212 160.619 597.278 162.672C596.345 164.725 595.878 167.245 595.878 170.232C595.878 173.181 596.345 175.701 597.278 177.792C598.212 179.883 599.593 181.469 601.422 182.552C603.252 183.635 605.492 184.176 608.142 184.176C609.561 184.176 610.961 184.008 612.342 183.672C613.724 183.299 615.03 182.739 616.262 181.992C617.084 181.507 617.812 181.301 618.446 181.376C619.118 181.413 619.678 181.637 620.126 182.048C620.574 182.459 620.873 182.981 621.022 183.616C621.172 184.213 621.134 184.848 620.91 185.52C620.686 186.155 620.238 186.715 619.566 187.2C618.073 188.283 616.281 189.123 614.19 189.72C612.137 190.28 610.046 190.56 607.918 190.56ZM653.989 190.448C652.831 190.448 651.935 190.131 651.301 189.496C650.703 188.824 650.405 187.909 650.405 186.752V174.208H645.589C644.693 174.208 643.89 174.301 643.181 174.488C642.471 174.675 641.837 174.992 641.277 175.44C640.717 175.888 640.213 176.541 639.765 177.4L633.829 188.264C633.343 189.16 632.746 189.757 632.037 190.056C631.327 190.392 630.618 190.485 629.909 190.336C629.199 190.224 628.583 189.925 628.061 189.44C627.538 188.955 627.202 188.339 627.053 187.592C626.941 186.845 627.127 186.024 627.613 185.128L631.589 177.848C632.41 176.317 633.399 175.16 634.557 174.376C635.714 173.592 637.058 173.2 638.589 173.2H640.493L640.381 174.04C636.087 174.04 632.746 173.013 630.357 170.96C628.005 168.869 626.829 165.995 626.829 162.336C626.829 159.835 627.351 157.707 628.397 155.952C629.442 154.197 630.973 152.853 632.989 151.92C635.042 150.987 637.506 150.52 640.381 150.52H653.765C654.997 150.52 655.93 150.856 656.565 151.528C657.237 152.163 657.573 153.096 657.573 154.328V186.752C657.573 187.909 657.255 188.824 656.621 189.496C656.023 190.131 655.146 190.448 653.989 190.448ZM641.613 168.888H650.405V156.176H641.613C639.037 156.176 637.077 156.717 635.733 157.8C634.426 158.845 633.773 160.413 633.773 162.504C633.773 164.632 634.426 166.237 635.733 167.32C637.077 168.365 639.037 168.888 641.613 168.888ZM711.275 190.448C710.117 190.448 709.221 190.131 708.587 189.496C707.989 188.824 707.691 187.909 707.691 186.752V156.512H693.579V164.352C693.579 167.749 693.355 170.773 692.907 173.424C692.459 176.075 691.805 178.427 690.947 180.48C690.125 182.533 689.08 184.325 687.811 185.856C686.579 187.387 685.16 188.712 683.555 189.832C682.733 190.429 681.893 190.635 681.035 190.448C680.176 190.299 679.429 189.813 678.795 188.992C678.197 188.133 677.992 187.293 678.179 186.472C678.403 185.651 678.944 184.941 679.803 184.344C680.997 183.523 682.043 182.515 682.939 181.32C683.835 180.125 684.581 178.669 685.179 176.952C685.776 175.235 686.224 173.2 686.523 170.848C686.821 168.459 686.971 165.677 686.971 162.504V154.328C686.971 153.096 687.288 152.163 687.923 151.528C688.595 150.856 689.547 150.52 690.779 150.52H711.051C712.283 150.52 713.216 150.856 713.851 151.528C714.523 152.163 714.859 153.096 714.859 154.328V186.752C714.859 187.909 714.541 188.824 713.907 189.496C713.309 190.131 712.432 190.448 711.275 190.448ZM727.288 190C726.056 190 725.104 189.683 724.432 189.048C723.797 188.376 723.48 187.424 723.48 186.192V154.328C723.48 153.096 723.797 152.163 724.432 151.528C725.104 150.856 726.056 150.52 727.288 150.52H747.28C748.213 150.52 748.923 150.763 749.408 151.248C749.931 151.733 750.192 152.424 750.192 153.32C750.192 154.253 749.931 154.981 749.408 155.504C748.923 155.989 748.213 156.232 747.28 156.232H730.368V167.096H746.048C747.019 167.096 747.747 167.339 748.232 167.824C748.717 168.309 748.96 169.019 748.96 169.952C748.96 170.885 748.717 171.595 748.232 172.08C747.747 172.565 747.019 172.808 746.048 172.808H730.368V184.288H747.28C748.213 184.288 748.923 184.531 749.408 185.016C749.931 185.501 750.192 186.211 750.192 187.144C750.192 188.077 749.931 188.787 749.408 189.272C748.923 189.757 748.213 190 747.28 190H727.288ZM760.478 190.448C759.321 190.448 758.425 190.131 757.79 189.496C757.193 188.824 756.894 187.909 756.894 186.752V154.216C756.894 153.021 757.211 152.107 757.846 151.472C758.481 150.837 759.395 150.52 760.59 150.52H780.358C781.366 150.52 782.131 150.781 782.654 151.304C783.177 151.789 783.438 152.517 783.438 153.488C783.438 154.421 783.177 155.168 782.654 155.728C782.131 156.251 781.366 156.512 780.358 156.512H764.062V186.752C764.062 187.909 763.763 188.824 763.166 189.496C762.569 190.131 761.673 190.448 760.478 190.448ZM791.759 190.448C790.602 190.448 789.706 190.131 789.071 189.496C788.474 188.824 788.175 187.909 788.175 186.752V153.712C788.175 152.517 788.474 151.621 789.071 151.024C789.706 150.389 790.602 150.072 791.759 150.072C792.917 150.072 793.794 150.389 794.391 151.024C795.026 151.621 795.343 152.517 795.343 153.712V167.264H801.727L800.327 168.216L810.631 151.92C811.154 151.136 811.751 150.613 812.423 150.352C813.133 150.091 813.823 150.035 814.495 150.184C815.167 150.333 815.746 150.651 816.231 151.136C816.717 151.621 816.978 152.219 817.015 152.928C817.09 153.637 816.866 154.403 816.343 155.224L806.935 169.616L804.135 167.544C806.562 167.917 808.615 168.795 810.295 170.176C811.975 171.557 813.413 173.48 814.607 175.944L819.199 185.352C819.685 186.285 819.834 187.125 819.647 187.872C819.498 188.619 819.125 189.216 818.527 189.664C817.967 190.075 817.314 190.317 816.567 190.392C815.858 190.467 815.149 190.336 814.439 190C813.767 189.627 813.226 189.011 812.815 188.152L808.391 178.632C807.495 176.691 806.413 175.309 805.143 174.488C803.911 173.667 802.362 173.256 800.495 173.256H795.343V186.752C795.343 187.909 795.045 188.824 794.447 189.496C793.85 190.131 792.954 190.448 791.759 190.448ZM842.949 190.56C839.141 190.56 835.8 189.72 832.925 188.04C830.088 186.36 827.885 184.008 826.317 180.984C824.749 177.923 823.965 174.339 823.965 170.232C823.965 167.133 824.413 164.352 825.309 161.888C826.205 159.387 827.475 157.259 829.117 155.504C830.797 153.712 832.795 152.349 835.109 151.416C837.461 150.445 840.075 149.96 842.949 149.96C846.795 149.96 850.136 150.8 852.973 152.48C855.811 154.123 858.013 156.456 859.581 159.48C861.149 162.504 861.933 166.069 861.933 170.176C861.933 173.275 861.485 176.075 860.589 178.576C859.693 181.077 858.405 183.224 856.725 185.016C855.083 186.808 853.085 188.189 850.733 189.16C848.419 190.093 845.824 190.56 842.949 190.56ZM842.949 184.4C845.376 184.4 847.429 183.84 849.109 182.72C850.827 181.6 852.133 179.976 853.029 177.848C853.963 175.72 854.429 173.181 854.429 170.232C854.429 165.752 853.421 162.28 851.405 159.816C849.427 157.352 846.608 156.12 842.949 156.12C840.56 156.12 838.507 156.68 836.789 157.8C835.072 158.883 833.747 160.488 832.813 162.616C831.917 164.707 831.469 167.245 831.469 170.232C831.469 174.675 832.477 178.147 834.493 180.648C836.509 183.149 839.328 184.4 842.949 184.4Z" fill="#007CEE"/>
</g>
<defs>
<clipPath id="clip0_5037_170">
<rect width="1320" height="340" fill="white"/>
</clipPath>
<clipPath id="clip1_5037_170">
<rect width="317" height="291" fill="white" transform="translate(943 60)"/>
</clipPath>
<clipPath id="clip2_5037_170">
<rect x="1030.08" y="145.035" width="16" height="16" rx="8" transform="rotate(-7 1030.08 145.035)" fill="white"/>
</clipPath>
<clipPath id="clip3_5037_170">
<rect x="1164" y="273" width="16" height="16" rx="8" transform="rotate(30 1164 273)" fill="white"/>
</clipPath>
<clipPath id="clip4_5037_170">
<rect x="80" y="73" width="193" height="193" rx="96.5" fill="white"/>
</clipPath>
</defs>
</svg>
