<svg width="154" height="40" viewBox="0 0 154 40" fill="none" xmlns="http://www.w3.org/2000/svg">
<path d="M5.31086 26.3368C10.2684 29.7854 13.717 30.3602 16.9502 30.6476H20.83C22.7698 30.6476 29.5379 29.7854 32.4693 26.3368C35.4007 22.8881 37.4986 20.3734 37.4268 19.8705C29.0206 19.2238 25.2127 22.3133 22.7698 23.5347C25.3564 15.5596 20.83 6.50679 18.8901 4.56689C14.0619 9.73993 14.5792 19.8704 15.8725 23.5347C13.0704 20.7326 3.44282 18.4335 1 19.2238C1.28739 20.0142 2.7123 24.5291 5.31086 26.3368Z" fill="#22C55E" stroke="#22C55E" stroke-width="1.21429"/>
<path d="M46.2461 32C46.0421 32 45.8721 31.932 45.7361 31.796C45.6001 31.6373 45.5321 31.4673 45.5321 31.286C45.5321 31.218 45.5435 31.15 45.5661 31.082C45.5888 31.014 45.6115 30.946 45.6341 30.878L53.1481 19.862L46.1441 9.322C46.0761 9.186 46.0421 9.05 46.0421 8.914C46.0421 8.73266 46.1101 8.574 46.2461 8.438C46.3821 8.27933 46.5521 8.2 46.7561 8.2H50.9381C51.2328 8.2 51.4595 8.27933 51.6181 8.438C51.7995 8.59666 51.9355 8.744 52.0261 8.88L56.5821 15.646L61.1721 8.88C61.2628 8.744 61.3988 8.59666 61.5801 8.438C61.7615 8.27933 61.9995 8.2 62.2941 8.2H66.2721C66.4535 8.2 66.6121 8.27933 66.7481 8.438C66.9068 8.574 66.9861 8.73266 66.9861 8.914C66.9861 9.07266 66.9408 9.20866 66.8501 9.322L59.8461 19.828L67.3941 30.878C67.4395 30.946 67.4621 31.014 67.4621 31.082C67.4848 31.15 67.4961 31.218 67.4961 31.286C67.4961 31.4673 67.4281 31.6373 67.2921 31.796C67.1561 31.932 66.9861 32 66.7821 32H62.4641C62.1695 32 61.9315 31.9207 61.7501 31.762C61.5915 31.6033 61.4668 31.4673 61.3761 31.354L56.4121 24.214L51.4821 31.354C51.4141 31.4673 51.2895 31.6033 51.1081 31.762C50.9495 31.9207 50.7115 32 50.3941 32H46.2461Z" fill="#22C55E"/>
<path d="M72.0107 32C71.648 32 71.3534 31.898 71.1267 31.694C70.9227 31.49 70.798 31.2407 70.7527 30.946L66.8767 9.152C66.854 9.10666 66.8427 9.06133 66.8427 9.016C66.8427 8.97066 66.8427 8.93666 66.8427 8.914C66.8427 8.73266 66.9107 8.574 67.0467 8.438C67.1827 8.27933 67.3527 8.2 67.5567 8.2H71.1267C71.716 8.2 72.0447 8.438 72.1127 8.914L74.6627 23.296L77.4167 14.354C77.4847 14.1727 77.598 13.98 77.7567 13.776C77.9154 13.572 78.176 13.47 78.5387 13.47H80.6807C81.0434 13.47 81.304 13.572 81.4627 13.776C81.6214 13.98 81.7234 14.1727 81.7687 14.354L84.5567 23.262L87.0727 8.914C87.1407 8.438 87.4807 8.2 88.0927 8.2H91.6627C91.8667 8.2 92.0367 8.27933 92.1727 8.438C92.3087 8.574 92.3767 8.73266 92.3767 8.914C92.3767 8.93666 92.3767 8.97066 92.3767 9.016C92.3767 9.06133 92.3654 9.10666 92.3427 9.152L88.4667 30.946C88.4214 31.2407 88.2854 31.49 88.0587 31.694C87.8547 31.898 87.5714 32 87.2087 32H84.4547C84.092 32 83.8087 31.9093 83.6047 31.728C83.4234 31.524 83.2987 31.32 83.2307 31.116L79.5927 20.576L75.9887 31.116C75.9207 31.32 75.7847 31.524 75.5807 31.728C75.3994 31.9093 75.116 32 74.7307 32H72.0107ZM94.5949 32C94.3456 32 94.1416 31.9207 93.9829 31.762C93.8243 31.6033 93.7449 31.3993 93.7449 31.15V9.05C93.7449 8.80066 93.8243 8.59666 93.9829 8.438C94.1416 8.27933 94.3456 8.2 94.5949 8.2H109.997C110.246 8.2 110.45 8.27933 110.609 8.438C110.768 8.59666 110.847 8.80066 110.847 9.05V11.77C110.847 11.9967 110.768 12.1893 110.609 12.348C110.45 12.5067 110.246 12.586 109.997 12.586H98.9809V17.924H109.249C109.498 17.924 109.702 18.0033 109.861 18.162C110.02 18.3207 110.099 18.5247 110.099 18.774V21.29C110.099 21.5167 110.02 21.7093 109.861 21.868C109.702 22.0267 109.498 22.106 109.249 22.106H98.9809V27.614H110.269C110.518 27.614 110.722 27.6933 110.881 27.852C111.04 28.0107 111.119 28.2147 111.119 28.464V31.15C111.119 31.3993 111.04 31.6033 110.881 31.762C110.722 31.9207 110.518 32 110.269 32H94.5949ZM113.631 32C113.382 32 113.178 31.9207 113.019 31.762C112.86 31.6033 112.781 31.3993 112.781 31.15V9.05C112.781 8.80066 112.86 8.59666 113.019 8.438C113.178 8.27933 113.382 8.2 113.631 8.2H129.033C129.282 8.2 129.486 8.27933 129.645 8.438C129.804 8.59666 129.883 8.80066 129.883 9.05V11.77C129.883 11.9967 129.804 12.1893 129.645 12.348C129.486 12.5067 129.282 12.586 129.033 12.586H118.017V17.924H128.285C128.534 17.924 128.738 18.0033 128.897 18.162C129.056 18.3207 129.135 18.5247 129.135 18.774V21.29C129.135 21.5167 129.056 21.7093 128.897 21.868C128.738 22.0267 128.534 22.106 128.285 22.106H118.017V27.614H129.305C129.554 27.614 129.758 27.6933 129.917 27.852C130.076 28.0107 130.155 28.2147 130.155 28.464V31.15C130.155 31.3993 130.076 31.6033 129.917 31.762C129.758 31.9207 129.554 32 129.305 32H113.631ZM132.667 32C132.418 32 132.214 31.9207 132.055 31.762C131.896 31.6033 131.817 31.3993 131.817 31.15V9.05C131.817 8.80066 131.896 8.59666 132.055 8.438C132.214 8.27933 132.418 8.2 132.667 8.2H141.201C143.468 8.2 145.36 8.56266 146.879 9.288C148.398 9.99066 149.554 11.0333 150.347 12.416C151.163 13.776 151.594 15.4647 151.639 17.482C151.662 18.4793 151.673 19.352 151.673 20.1C151.673 20.848 151.662 21.7093 151.639 22.684C151.571 24.792 151.152 26.5373 150.381 27.92C149.61 29.3027 148.477 30.334 146.981 31.014C145.485 31.6713 143.615 32 141.371 32H132.667ZM137.223 27.614H141.201C142.334 27.614 143.264 27.444 143.989 27.104C144.714 26.764 145.247 26.2313 145.587 25.506C145.95 24.758 146.142 23.7947 146.165 22.616C146.188 21.9587 146.199 21.3693 146.199 20.848C146.222 20.3267 146.222 19.8053 146.199 19.284C146.199 18.7627 146.188 18.1847 146.165 17.55C146.12 15.85 145.678 14.6033 144.839 13.81C144.023 12.994 142.754 12.586 141.031 12.586H137.223V27.614Z" fill="#212121"/>
</svg>
