<svg width="80" height="80" viewBox="0 0 80 80" fill="none" xmlns="http://www.w3.org/2000/svg">
<path d="M69.771 73.5688L67.5225 17.3589C67.4704 16.0528 66.4053 15.0294 65.0979 15.0294H54.9509V14.9511C54.9509 6.70701 48.2439 0 39.9999 0C31.7558 0 25.0488 6.70701 25.0488 14.9511V15.0294H14.9019C13.5945 15.0294 12.5296 16.0526 12.4772 17.3589L10.2287 73.5688C10.1608 75.2662 10.7717 76.8756 11.9485 78.1005C13.1255 79.3254 14.7092 80 16.4078 80H63.592C65.2908 80 66.8744 79.3254 68.0514 78.1005C69.228 76.8755 69.8389 75.2662 69.771 73.5688ZM27.3971 14.9511C27.3971 8.00188 33.0507 2.34834 39.9999 2.34834C46.9491 2.34834 52.6026 8.00188 52.6026 14.9511V15.0294H27.3971V14.9511ZM66.3579 76.4734C65.6279 77.2332 64.6455 77.6517 63.592 77.6517H16.4078C15.3542 77.6517 14.372 77.2333 13.642 76.4736C12.912 75.7138 12.5331 74.7156 12.5754 73.6628L14.8237 17.4528C14.8254 17.4106 14.8597 17.3777 14.9019 17.3777H25.0488V24.9706C25.0488 25.6191 25.5745 26.1448 26.223 26.1448C26.8714 26.1448 27.3971 25.6191 27.3971 24.9706V17.3777H52.6026V24.9706C52.6026 25.6191 53.1283 26.1448 53.7768 26.1448C54.4252 26.1448 54.9509 25.6191 54.9509 24.9706V17.3777H65.0979C65.1401 17.3777 65.1743 17.4106 65.1761 17.4528L67.4245 73.6628C67.4666 74.7155 67.0878 75.7137 66.3579 76.4734Z" fill="white"/>
</svg>
