<svg width="30" height="30" viewBox="0 0 30 30" fill="none" xmlns="http://www.w3.org/2000/svg">
<path d="M27.6899 3.75293H2.31013C1.03797 3.75293 0 4.7909 0 6.06306V23.9365C0 25.2086 1.03797 26.2466 2.31013 26.2466H27.6899C28.962 26.2466 30 25.2086 30 23.9365V6.06306C30 4.7909 28.962 3.75293 27.6899 3.75293ZM27.3544 5.46179L15.1582 15.8922L2.96203 5.46179H27.3544ZM28.2911 23.9365C28.2911 24.2656 28.019 24.5377 27.6899 24.5377H2.31013C1.98101 24.5377 1.70886 24.2656 1.70886 23.9365V6.63901L14.6013 17.6643C14.6076 17.6707 14.6203 17.677 14.6266 17.6833C14.6329 17.6896 14.6456 17.696 14.6519 17.7023C14.6709 17.715 14.6835 17.7276 14.7025 17.7339C14.7089 17.7403 14.7152 17.7403 14.7215 17.7466C14.7468 17.7593 14.7722 17.7719 14.7975 17.7846C14.8038 17.7846 14.8101 17.7909 14.8165 17.7909C14.8354 17.7972 14.8544 17.8099 14.8797 17.8162C14.8861 17.8162 14.8987 17.8226 14.9051 17.8226C14.9241 17.8289 14.943 17.8352 14.962 17.8352C14.9684 17.8352 14.981 17.8415 14.9873 17.8415C15.0063 17.8479 15.0316 17.8479 15.0506 17.8542C15.057 17.8542 15.0633 17.8542 15.0696 17.8542C15.0949 17.8542 15.1266 17.8605 15.1519 17.8605C15.1772 17.8605 15.2089 17.8605 15.2342 17.8542C15.2405 17.8542 15.2468 17.8542 15.2532 17.8542C15.2722 17.8542 15.2975 17.8479 15.3165 17.8415C15.3228 17.8415 15.3354 17.8352 15.3418 17.8352C15.3608 17.8289 15.3797 17.8226 15.3987 17.8226C15.4051 17.8226 15.4177 17.8162 15.4241 17.8162C15.443 17.8099 15.462 17.8036 15.4873 17.7909C15.4937 17.7909 15.5 17.7846 15.5063 17.7846C15.5316 17.7719 15.557 17.7593 15.5823 17.7466C15.5886 17.7403 15.5949 17.7403 15.6013 17.7339C15.6203 17.7213 15.6329 17.715 15.6519 17.7023C15.6582 17.696 15.6709 17.6896 15.6772 17.6833C15.6835 17.677 15.6962 17.6707 15.7025 17.6643L28.2911 6.91116V23.9365Z" fill="white"/>
</svg>
