<svg width="98" height="98" viewBox="0 0 98 98" fill="none" xmlns="http://www.w3.org/2000/svg">
<path d="M3.06242 21.4375H94.9373C96.6279 21.4375 97.9997 20.0654 97.9997 18.375C97.9997 16.6845 96.6276 15.3126 94.9373 15.3126H3.06242C1.37211 15.3126 0 16.6845 0 18.375C0 20.0656 1.37211 21.4375 3.06242 21.4375Z" fill="white"/>
<path d="M94.9373 45.9376H3.06242C1.37185 45.9376 0 47.3097 0 49C0 50.6903 1.37211 52.0624 3.06242 52.0624H94.9373C96.6279 52.0624 97.9997 50.6903 97.9997 49C97.9997 47.3097 96.6279 45.9376 94.9373 45.9376Z" fill="white"/>
<path d="M94.9373 76.5626H3.06242C1.37185 76.5626 0 77.9347 0 79.625C0 81.3155 1.37211 82.6874 3.06242 82.6874H94.9373C96.6279 82.6874 97.9997 81.3153 97.9997 79.625C98 77.9344 96.6279 76.5626 94.9373 76.5626Z" fill="white"/>
</svg>
