<svg width="138" height="148" viewBox="0 0 138 148" fill="none" xmlns="http://www.w3.org/2000/svg">
<path d="M92.5856 118.688C93.3627 119.108 94.3318 118.822 94.7547 118.047C95.9023 115.938 96.9182 113.73 97.7761 111.485C98.0905 110.66 97.6777 109.735 96.8525 109.42C96.0303 109.107 95.1037 109.518 94.7873 110.343C93.981 112.456 93.0241 114.534 91.9444 116.519C91.5224 117.294 91.8091 118.266 92.5856 118.688Z" fill="#D4E4A3"/>
<path d="M123.734 71.8303C124.48 73.1672 124.86 74.6825 124.835 76.2109C124.822 77.0648 125.488 77.8121 126.409 77.8362C127.291 77.8503 128.019 77.1462 128.034 76.2626C128.067 74.1717 127.547 72.1004 126.528 70.2727C126.097 69.5013 125.122 69.2236 124.352 69.6545C123.581 70.0854 123.304 71.059 123.734 71.8303Z" fill="#D4E4A3"/>
<path d="M72.4848 42.9095L78.1342 42.3528C79.0138 42.2663 79.6558 41.483 79.5693 40.6045C79.4828 39.7249 78.6962 39.0847 77.821 39.1694L72.1716 39.7261C71.292 39.8126 70.6499 40.5959 70.7365 41.4744C70.8235 42.357 71.6096 42.9952 72.4848 42.9095Z" fill="#D4E4A3"/>
<path d="M86.1279 66.3437L90.2208 62.1781C90.8407 61.5476 90.8311 60.5355 90.2016 59.9167C89.5712 59.2958 88.5579 59.3063 87.9402 59.936L83.8472 64.1016C83.2273 64.7321 83.2369 65.7442 83.8665 66.363C84.5006 66.9873 85.5149 66.9681 86.1279 66.3437Z" fill="#D4E4A3"/>
<path d="M20.6997 82.2413C21.2071 82.2837 21.7274 82.0826 22.0731 81.658C23.1882 80.2895 23.9405 78.6482 24.2483 76.9114C24.4034 76.0415 23.8239 75.2117 22.9539 75.0577C22.1033 74.8853 21.2542 75.4821 21.1002 76.3521C20.886 77.5545 20.366 78.6906 19.5943 79.6375C18.7746 80.6422 19.4358 82.1359 20.6997 82.2413Z" fill="#D4E4A3"/>
<path d="M96.5636 21.4207C69.3562 8.11396 37.711 16.5223 20.2268 38.9596C16.8516 42.8072 11.2651 51.6614 9.20607 57.1777C-2.74378 89.1921 11.6078 122.382 40.0764 136.309C72.6006 152.221 111.109 136.735 124.893 104.978C140.354 73.9581 127.355 36.4849 96.5636 21.4207ZM126.562 91.2179C125.227 89.6344 124.163 88.6427 122.752 87.5547C123.692 80.2182 122.425 72.4464 121.109 64.9816C122.716 61.421 122.963 61.8215 124.579 56.9788C128.535 67.7607 129.367 79.6682 126.562 91.2179ZM62.9663 61.045L83.5037 72.324L85.5425 95.4798C85.4968 95.617 85.5172 95.7634 85.5094 95.9073C84.5808 96.3432 83.7831 97.294 83.425 97.5817C73.423 105.689 70.6918 105.913 64.8134 109.446C63.9001 108.415 56.5339 106.667 42.6128 98.4206C41.1986 70.2786 41.5334 74.5014 41.3877 73.8189C47.2744 68.6215 53.7049 64.0061 60.529 60.1176C60.7961 59.9652 60.9771 59.7354 61.1144 59.4839C61.7975 60.0485 62.597 60.8397 62.9663 61.045ZM62.5695 56.5602L65.2235 37.972L87.6161 36.0247L98.801 55.9629L84.5965 69.2758C62.8811 57.1871 65.3503 58.9751 63.9264 57.69C63.5038 57.3078 63.0735 56.9178 62.5695 56.5602ZM85.4388 100.067C85.8211 99.7562 86.313 99.2195 86.6859 98.9183C92.4215 101.25 98.3784 103.117 102.809 106.384C99.8035 111.54 101.02 113.338 94.1609 123.792C94.0565 123.878 93.7678 124.02 92.9983 124.226C85.9939 126.11 78.5676 127.853 71.4179 126.783C70.8721 125.909 67.19 112.343 67.0527 111.87C72.3233 108.685 75.2848 108.298 85.4388 100.067ZM88.7273 96.3424C88.8754 95.7999 88.8669 97.2175 86.6608 71.7248L101.389 57.9213C107.03 59.6206 112.26 62.2971 116.928 65.9052C117.181 66.1008 117.474 66.2089 117.771 66.2337C117.872 66.2421 117.967 66.1963 118.067 66.1857C119.237 73.1834 120.523 80.358 119.507 87.5553C118.41 88.3069 115.039 94.4642 105.062 104.137C99.2162 99.6392 90.5537 97.2439 88.7273 96.3424ZM122.865 52.7717C121.809 54.6973 121.354 56.7502 120.648 58.5127C120.29 59.4118 119.949 60.0817 118.475 63.0887C113.509 59.3248 107.971 56.5073 101.988 54.7473C101.917 54.7266 101.847 54.7399 101.776 54.7292L90.7252 35.0283C93.1552 32.3735 94.7155 28.0268 95.7342 24.5937C108.182 30.8526 117.476 40.9589 122.865 52.7717ZM50.1089 21.4725C64.1383 16.6691 79.1508 17.2625 92.7193 23.1691C92.6523 23.3835 92.6139 23.6058 92.6339 23.829C91.8179 26.5463 90.4121 30.4867 88.5799 32.6386C88.3034 32.6301 88.0253 32.6733 87.7681 32.8008L64.8537 34.7939C64.7309 34.4859 64.5377 34.203 64.2341 34.0155C58.9739 30.7732 53.2468 28.5251 47.2181 27.2434C48.3802 23.5107 49.917 22.3276 50.1089 21.4725ZM45.3343 23.352C44.7254 24.5985 44.2417 25.9038 43.9254 27.2385C41.8197 28.3175 36.7564 30.3375 29.4808 35.5772C27.8101 36.7803 26.1143 38.1098 24.7405 39.7504C24.5351 39.5708 24.2945 39.4347 24.0775 39.2689C29.8171 32.4305 37.0511 27.004 45.3343 23.352ZM26.5446 42.7033C29.6979 38.0622 40.2615 32.4627 45.3638 30.088C46.826 30.502 53.529 31.3921 61.8656 36.3553C61.833 36.64 61.8578 37.0002 62.0817 37.3484C61.4712 41.6419 59.2981 56.7761 59.2552 57.2365C59.1513 57.2696 59.0438 57.2824 58.9451 57.3381C51.8061 61.4059 45.0799 66.2407 38.9417 71.6995C34.0518 68.6479 28.4716 66.2448 21.957 64.4301C26.7432 42.3662 26.7819 43.5247 26.5446 42.7033ZM38.2912 75.0108C38.5477 82.806 39.0249 90.7778 39.4136 98.4493C35.0986 101.494 30.1151 103.448 25.1985 104.025C23.7633 101.653 18.8273 97.2551 14.0149 84.2081C17.1547 78.9319 19.3881 73.1997 21.4943 67.5896C28.0058 69.4356 33.5194 71.8723 38.2912 75.0108ZM22.1025 41.7662C22.5811 42.1279 23.0256 42.5274 23.4264 42.9759C18.5806 65.6091 18.2785 64.6289 18.8019 65.6546C12.8846 81.4537 10.806 82.813 10.6162 83.8133C8.99649 69.3933 12.6511 54.3543 22.1025 41.7662ZM10.6547 84.2991C10.6781 84.3823 10.7078 84.4725 10.7454 84.5769C13.5481 92.3705 16.9205 98.6581 21.054 103.798L21.2491 104.04C22.8902 106.075 22.5279 105.946 22.9463 106.588C22.7475 108.148 23.6805 113.155 24.3467 115.597C16.6653 106.569 12.0227 95.6371 10.6547 84.2991ZM30.0648 121.429C30.0288 121.291 30.0012 121.151 29.9257 121.022C27.524 116.897 26.4038 111.222 26.1321 107.114C31.306 106.407 36.4947 104.345 41.0273 101.198C50.0127 106.516 62.1575 111.98 63.4988 112.092C63.5975 112.1 63.693 112.08 63.7899 112.07C63.9545 112.642 67.5881 125.992 68.3488 127.782C62.9003 130.588 57.1822 132.009 51.3343 133.542C43.7034 131.097 36.4526 127.102 30.0648 121.429ZM57.6446 135.174C67.2957 132.486 70.4493 130.235 71.0768 129.955C78.7481 131.078 86.3492 129.328 93.8271 127.316C94.1261 127.236 94.5302 127.111 94.9484 126.947C95.8462 127.738 96.8778 128.366 97.9837 128.827C85.4838 135.77 71.2368 137.917 57.6446 135.174ZM101.693 126.596C100.9 126.215 99.4334 126.45 97.3328 124.764C103.661 114.936 103.082 112.268 105.607 107.971C105.712 107.91 105.826 107.87 105.919 107.783C111.54 102.501 116.677 96.6587 121.223 90.4283C121.917 91.0463 123.197 91.9084 124.814 94.061C124.832 94.54 125.08 94.9527 125.44 95.2353C121.303 108.176 112.935 119.219 101.693 126.596Z" fill="#D4E4A3"/>
<path d="M122.756 30.4022L131.433 28.6595C132.299 28.4852 132.859 27.6418 132.686 26.7759C132.51 25.9098 131.671 25.3477 130.802 25.5228L122.125 27.2655C121.259 27.4398 120.699 28.2832 120.872 29.1491C121.047 30.0177 121.892 30.5736 122.756 30.4022Z" fill="#D4E4A3"/>
<path d="M114.908 22.1812C115.427 22.2245 115.958 22.0138 116.302 21.5724L121.036 15.5181C121.58 14.8227 121.457 13.8168 120.76 13.2729C120.066 12.7313 119.061 12.8543 118.515 13.5484L113.783 19.6029C112.991 20.6134 113.662 22.0772 114.908 22.1812Z" fill="#D4E4A3"/>
<path d="M107.093 17.5153C107.976 17.4897 108.67 16.7536 108.645 15.8708L108.458 9.5198C108.432 8.63694 107.703 7.93879 106.812 7.96896C105.93 7.99456 105.235 8.73166 105.262 9.61461L105.449 15.9635C105.474 16.8612 106.232 17.547 107.093 17.5153Z" fill="#D4E4A3"/>
</svg>
