<svg width="103" height="111" viewBox="0 0 103 111" fill="none" xmlns="http://www.w3.org/2000/svg">
<path d="M33.4879 89.0513C32.9048 89.3667 32.1777 89.1522 31.8604 88.5702C30.9993 86.988 30.2371 85.331 29.5934 83.6468C29.3575 83.0277 29.6673 82.3339 30.2864 82.0973C30.9033 81.8624 31.5985 82.1713 31.8359 82.7903C32.4409 84.3758 33.1589 85.9346 33.969 87.4238C34.2856 88.0057 34.0705 88.7346 33.4879 89.0513Z" fill="#D4E4A3"/>
<path d="M10.1171 53.8922C9.55725 54.8953 9.27192 56.0322 9.29077 57.179C9.30072 57.8197 8.80103 58.3804 8.11008 58.3985C7.44779 58.4091 6.90203 57.8808 6.89062 57.2178C6.86556 55.649 7.2564 54.0948 8.02073 52.7236C8.344 52.1447 9.07523 51.9364 9.65327 52.2597C10.2321 52.583 10.4396 53.3135 10.1171 53.8922Z" fill="#D4E4A3"/>
<path d="M48.5696 32.1934L44.3307 31.7757C43.6708 31.7108 43.189 31.1231 43.254 30.4639C43.3189 29.804 43.909 29.3236 44.5657 29.3872L48.8046 29.8049C49.4645 29.8698 49.9462 30.4575 49.8813 31.1166C49.816 31.7789 49.2262 32.2577 48.5696 32.1934Z" fill="#D4E4A3"/>
<path d="M38.3334 49.7807L35.2624 46.6552C34.7973 46.1822 34.8045 45.4228 35.2769 44.9585C35.7499 44.4926 36.5101 44.5005 36.9736 44.9729L40.0446 48.0984C40.5097 48.5715 40.5025 49.3309 40.0302 49.7952C39.5543 50.2636 38.7933 50.2492 38.3334 49.7807Z" fill="#D4E4A3"/>
<path d="M87.4243 61.7098C87.0436 61.7416 86.6532 61.5907 86.3938 61.2722C85.5572 60.2453 84.9928 59.0139 84.7617 57.7108C84.6454 57.0581 85.0802 56.4355 85.733 56.3199C86.3712 56.1906 87.0083 56.6383 87.1239 57.2911C87.2846 58.1932 87.6747 59.0457 88.2537 59.7562C88.8688 60.51 88.3727 61.6307 87.4243 61.7098Z" fill="#D4E4A3"/>
<path d="M30.5031 16.0741C50.9171 6.08995 74.6607 12.3988 87.7793 29.2337C90.3117 32.1206 94.5033 38.7639 96.0482 42.9029C105.014 66.9236 94.2461 91.8261 72.8859 102.276C48.4827 114.215 19.5897 102.596 9.2472 78.7682C-2.35331 55.4934 7.39975 27.3769 30.5031 16.0741ZM7.99497 68.4436C8.99652 67.2554 9.79475 66.5114 10.8536 65.695C10.1483 60.1904 11.099 54.3592 12.0862 48.7582C10.8806 46.0867 10.6956 46.3872 9.48304 42.7536C6.51505 50.8434 5.89029 59.7777 7.99497 68.4436ZM55.7114 45.8046L40.3021 54.2673L38.7723 71.6413C38.8067 71.7442 38.7913 71.8541 38.7972 71.9621C39.4939 72.2891 40.0925 73.0025 40.3611 73.2184C47.8657 79.3014 49.915 79.4698 54.3256 82.1206C55.0108 81.3468 60.5377 80.0353 70.9829 73.8478C72.0439 52.7326 71.7928 55.901 71.902 55.3889C67.4852 51.4892 62.6603 48.0263 57.5402 45.1088C57.3398 44.9944 57.204 44.822 57.1009 44.6332C56.5884 45.0569 55.9885 45.6505 55.7114 45.8046ZM56.0092 42.4396L54.0179 28.4927L37.2165 27.0316L28.8243 41.9914L39.4821 51.9802C55.7754 42.9099 53.9227 44.2515 54.9911 43.2873C55.3082 43.0006 55.631 42.7079 56.0092 42.4396ZM38.8501 75.0831C38.5633 74.8499 38.1942 74.4472 37.9144 74.2213C33.6109 75.9707 29.1415 77.3715 25.8168 79.8225C28.0722 83.6917 27.1593 85.0405 32.3059 92.8839C32.3842 92.9487 32.6008 93.0553 33.1781 93.2101C38.4336 94.6232 44.0057 95.9315 49.3702 95.1281C49.7796 94.4726 52.5424 84.2936 52.6454 83.9392C48.6908 81.5493 46.4687 81.2589 38.8501 75.0831ZM36.3827 72.2885C36.2717 71.8814 36.278 72.9451 37.9333 53.8177L26.8825 43.4609C22.6498 44.7358 18.7257 46.744 15.2239 49.4512C15.0339 49.598 14.8141 49.6791 14.5907 49.6977C14.5153 49.704 14.4442 49.6696 14.3692 49.6617C13.4913 54.9121 12.5261 60.2953 13.2886 65.6955C14.1114 66.2594 16.6409 70.8793 24.1264 78.1369C28.5128 74.7621 35.0124 72.9649 36.3827 72.2885ZM10.769 39.597C11.5614 41.0419 11.9029 42.5821 12.4322 43.9046C12.7007 44.5791 12.9567 45.0818 14.0625 47.338C17.7889 44.5139 21.9438 42.3999 26.4334 41.0793C26.4865 41.0638 26.5389 41.0738 26.5922 41.0658L34.8837 26.284C33.0605 24.2921 31.8897 21.0307 31.1254 18.4549C21.7858 23.1509 14.8124 30.7338 10.769 39.597ZM65.3585 16.113C54.8321 12.5089 43.5681 12.9541 33.3875 17.3859C33.4378 17.5469 33.4666 17.7136 33.4516 17.8811C34.0639 19.9199 35.1186 22.8764 36.4933 24.491C36.7008 24.4846 36.9095 24.5171 37.1025 24.6127L54.2953 26.1082C54.3875 25.8771 54.5324 25.6648 54.7602 25.5241C58.707 23.0914 63.0041 21.4046 67.5274 20.4429C66.6555 17.6422 65.5024 16.7546 65.3585 16.113ZM68.9409 17.5232C69.3977 18.4585 69.7607 19.4378 69.998 20.4392C71.5779 21.2489 75.3769 22.7645 80.8359 26.6958C82.0894 27.5985 83.3618 28.5961 84.3926 29.827C84.5467 29.6923 84.7273 29.5902 84.89 29.4658C80.5836 24.3349 75.1558 20.2633 68.9409 17.5232ZM83.039 32.0426C80.673 28.5604 72.7471 24.359 68.9188 22.5773C67.8217 22.8879 62.7923 23.5558 56.5373 27.2797C56.5618 27.4933 56.5432 27.7635 56.3752 28.0248C56.8332 31.2463 58.4637 42.6016 58.4959 42.947C58.5739 42.9719 58.6546 42.9814 58.7286 43.0233C64.085 46.0753 69.1318 49.703 73.7373 53.7987C77.4062 51.5091 81.5931 49.706 86.4811 48.3444C82.8899 31.7897 82.8609 32.6589 83.039 32.0426ZM74.2254 56.2832C74.0329 62.1321 73.6749 68.1134 73.3833 73.8694C76.6208 76.1539 80.36 77.6198 84.049 78.0528C85.1258 76.2729 88.8293 72.9734 92.4401 63.1841C90.0843 59.2252 88.4085 54.9243 86.8282 50.715C81.9426 52.1001 77.8057 53.9284 74.2254 56.2832ZM86.3719 31.3395C86.0128 31.6109 85.6793 31.9106 85.3786 32.2471C89.0144 49.229 89.2411 48.4936 88.8484 49.2632C93.2882 61.1174 94.8478 62.1373 94.9902 62.8878C96.2055 52.0684 93.4634 40.7845 86.3719 31.3395ZM94.9613 63.2523C94.9438 63.3147 94.9215 63.3824 94.8932 63.4607C92.7903 69.3084 90.26 74.026 87.1586 77.8828L87.0122 78.0643C85.7809 79.5909 86.0527 79.4942 85.7388 79.9758C85.8879 81.146 85.188 84.9034 84.6881 86.7352C90.4515 79.9617 93.9349 71.7593 94.9613 63.2523ZM80.3977 91.1116C80.4247 91.0078 80.4454 90.9026 80.5021 90.8055C82.3041 87.711 83.1446 83.4524 83.3485 80.3703C79.4665 79.8401 75.5733 78.2932 72.1725 75.9319C65.4307 79.9218 56.3183 84.0216 55.3119 84.1056C55.2379 84.1118 55.1662 84.0963 55.0935 84.0888C54.97 84.5183 52.2437 94.5346 51.6729 95.8781C55.761 97.9831 60.0513 99.0497 64.4391 100.199C70.1646 98.3653 75.6049 95.3677 80.3977 91.1116ZM59.7044 101.424C52.463 99.4075 50.0969 97.7184 49.6261 97.5085C43.8702 98.3508 38.1671 97.0377 32.5563 95.5282C32.332 95.468 32.0287 95.3743 31.715 95.2514C31.0414 95.8448 30.2673 96.3161 29.4376 96.6622C38.8164 101.871 49.5061 103.482 59.7044 101.424ZM26.6545 94.9883C27.2496 94.7025 28.3498 94.8782 29.926 93.6136C25.1781 86.2395 25.6122 84.2374 23.7178 81.0134C23.6387 80.9678 23.5531 80.9378 23.4838 80.8724C19.2661 76.9091 15.4121 72.5258 12.0006 67.8511C11.4799 68.3148 10.5201 68.9616 9.30663 70.5768C9.29271 70.9362 9.1067 71.2458 8.8369 71.4578C11.9413 81.1674 18.2194 89.4532 26.6545 94.9883Z" fill="#D4E4A3"/>
<path d="M10.8507 22.8153L4.34041 21.5077C3.69064 21.3769 3.2702 20.7441 3.40021 20.0944C3.53177 19.4446 4.16133 19.0229 4.8135 19.1542L11.3238 20.4618C11.9736 20.5926 12.394 21.2254 12.264 21.8751C12.1325 22.5268 11.4986 22.9439 10.8507 22.8153Z" fill="#D4E4A3"/>
<path d="M16.7384 16.6439C16.3492 16.6764 15.9511 16.5184 15.693 16.1871L12.1408 11.6446C11.7328 11.1228 11.8251 10.3681 12.3476 9.96C12.8686 9.55359 13.6226 9.64589 14.0321 10.1667L17.5827 14.7094C18.177 15.4676 17.6738 16.5659 16.7384 16.6439Z" fill="#D4E4A3"/>
<path d="M22.6026 13.1425C21.9402 13.1233 21.419 12.5711 21.4382 11.9086L21.5784 7.14347C21.5976 6.48105 22.145 5.95722 22.8132 5.97986C23.4756 5.99906 23.9968 6.55212 23.9768 7.2146L23.8365 11.9782C23.8173 12.6518 23.2484 13.1664 22.6026 13.1425Z" fill="#D4E4A3"/>
</svg>
