<svg width="74" height="75" viewBox="0 0 74 75" fill="none" xmlns="http://www.w3.org/2000/svg">
<path d="M70.093 32.4703C67.8332 25.2802 66.3809 21.951 65.716 20.6062L65.7158 20.6057C65.1813 19.5048 63.8267 17.1357 63.7728 17.0416C63.5831 16.81 58.8792 11.1808 47.542 7.01721L46.0439 11.096C51.4045 13.0647 55.0736 15.3381 57.3465 17.0474C51.0684 15.1753 43.6034 14.0296 36.9918 14.0296C30.3722 14.0296 22.8982 15.1786 16.6156 17.0548C18.7198 15.4935 22.5463 13.0768 27.9398 11.096L26.4417 7.01721C15.1046 11.1808 10.4005 16.81 10.2108 17.0416C10.2108 17.0416 9.09334 18.8455 8.15447 20.8262C7.59176 22.0133 6.13407 24.7239 3.87641 32.5173C1.04489 42.2941 0.0392522 56.1133 0 56.6662C0.49985 57.7596 6.29354 66.9807 21.8841 66.9807L26.1562 60.7945C29.6824 61.7092 33.3201 62.1719 36.9921 62.1719C40.672 62.1719 44.3169 61.7071 47.8498 60.7888L52.0955 66.9807C67.9961 66.9807 73.1864 58.0735 74 56.6413C73.9371 55.983 72.3624 39.6914 70.093 32.4703ZM65.9317 58.8071C62.6245 61.1478 58.739 62.4253 54.3685 62.6117L52.1766 59.4152C55.1996 58.276 58.0999 56.7937 60.8254 54.9795L58.4177 51.3624C55.3776 53.386 52.0955 54.9517 48.66 56.0358V56.04C48.66 56.04 42.9712 57.8267 36.9923 57.8267C31.0133 57.8267 25.3404 56.0453 25.3404 56.0453V56.0408C21.8991 54.9565 18.6115 53.389 15.5668 51.3624L13.1589 54.9794C15.8892 56.7967 18.795 58.2811 21.8238 59.421L19.6203 62.6117C15.248 62.4261 11.3608 61.1485 8.0525 58.807C6.20808 57.5015 5.01979 56.1781 4.44868 55.4656C4.70071 52.4894 5.73198 41.7307 8.05076 33.7261C9.79104 27.7188 10.9924 24.9075 11.6482 23.5502C11.6482 23.5502 28.4657 18.3747 36.9923 18.3747C45.5119 18.3747 55.9067 20.4913 62.2794 23.5233C62.9684 25.0931 64.1951 28.1957 65.9478 33.773C67.797 39.657 69.1763 52.1604 69.5203 55.4844C68.9408 56.2044 67.7579 57.5145 65.9317 58.8071Z" fill="#D4E4A3"/>
<path d="M22.6011 36.6422H26.9463V43.8843H22.6011V36.6422Z" fill="#D4E4A3"/>
<path d="M47.0381 36.6422H51.3834V43.8843H47.0381V36.6422Z" fill="#D4E4A3"/>
</svg>
