<svg width="622" height="577" viewBox="0 0 622 577" fill="none" xmlns="http://www.w3.org/2000/svg">
<path d="M587.341 283.735C584.925 280.815 582.124 278.486 579.018 276.418C580.521 277.52 582.044 278.815 583.692 280.314C584.471 281.08 585.858 282.275 587.341 283.735Z" fill="#FAE5B7"/>
<path d="M591.535 303.311C592.24 302.504 593.453 302.811 594.159 302.004C593.815 300.378 593.191 298.805 592.386 297.148C592.661 298.448 592.715 299.829 592.664 301.198C591.352 301.577 589.899 301.708 588.381 301.661C589.756 302.96 590.772 303.69 591.535 303.311Z" fill="#FAE5B7"/>
<path d="M594.846 296.9C595.016 297.638 595.015 297.088 595.016 297.638C592.576 291.776 591.183 288.783 586.879 284.801C586.039 284.008 584.926 283.013 583.664 282.023C588.238 286.606 591.432 291.793 592.326 297.12C593.175 298.761 593.799 300.334 594.098 301.975C593.392 302.783 592.196 302.52 591.474 303.283C590.756 303.645 589.695 302.932 588.336 301.677C586.373 301.643 584.237 301.273 582.053 300.769C586.664 302.988 590.901 304.593 593.445 303.064C600.882 298.498 592.874 289.166 587.339 283.733C588.509 285.157 589.623 286.701 590.609 288.442C592.045 290.869 594.128 294.111 594.846 296.9Z" fill="#FAE5B7"/>
<path d="M572.817 272.723C574.991 273.88 577.092 275.114 579.016 276.413C576.967 274.91 574.926 273.704 572.817 272.723Z" fill="#FAE5B7"/>
<path d="M583.68 282.065C584.898 283.072 586.011 284.066 586.895 284.844C591.216 288.869 592.636 291.802 595.032 297.681C595.032 297.131 595.032 297.681 594.863 296.942C594.145 294.153 592.061 290.912 590.653 288.424C589.623 286.699 588.526 285.199 587.384 283.715C585.856 282.272 584.514 281.061 583.75 280.339C582.103 278.84 580.58 277.545 579.077 276.443C577.108 275.16 575.007 273.926 572.878 272.753C571.267 272.04 569.644 271.432 567.829 270.844C573.847 273.9 579.335 277.699 583.68 282.065Z" fill="#FAE5B7"/>
<path d="M559.324 334.416C560.384 334.579 560.372 334.683 561.412 334.654C561.435 334.445 561.459 334.236 561.527 334.012C560.792 333.78 560.118 333.576 559.443 333.372C559.439 333.773 559.343 334.058 559.324 334.416Z" fill="#FAE5B7"/>
<path d="M554.62 332.626C555.343 332.963 555.961 333.287 556.608 333.551C556.676 333.326 556.728 333.057 556.78 332.788C556.033 332.661 555.302 332.577 554.615 332.478C554.632 332.522 554.604 332.582 554.62 332.626Z" fill="#FAE5B7"/>
<path d="M383.793 131.161C383.074 130.973 382.415 130.813 381.713 130.67C382.179 130.85 382.556 131.062 382.994 131.302C383.231 131.266 383.512 131.213 383.793 131.161Z" fill="#FAE5B7"/>
<path d="M567.77 310.823C569.585 311.411 571.208 312.019 572.819 312.732C572.26 312.435 571.762 312.167 571.187 311.826C565.061 308.61 558.097 306.25 551.029 304.427C551.72 304.675 552.487 304.996 553.315 305.344C558.182 306.619 563.11 308.472 567.77 310.823Z" fill="#FAE5B7"/>
<path d="M242.548 402.563C243.457 400.53 244.514 398.493 245.704 396.408C246.938 394.307 248.426 392.764 249.885 391.281C246.403 393.252 243.92 397.96 242.548 402.563Z" fill="#FAE5B7"/>
<path d="M315.222 192.859C316.763 188.995 318.497 185.111 319.564 181.32C320.563 177.754 321.101 174.156 321.743 170.57C319.82 174.073 319.143 178.522 318.088 182.209C317.116 185.715 316.117 189.281 315.222 192.859Z" fill="#FAE5B7"/>
<path d="M251.76 303.913C251.877 303.82 251.949 303.744 252.021 303.668C251.615 303.516 251.646 302.504 251.838 301.384C251.1 302.653 250.789 303.717 251.76 303.913Z" fill="#FAE5B7"/>
<path d="M585.402 318.289C579.686 312.221 572.291 308.818 564.728 305.776C557.783 303.058 549.91 299.579 542.309 298.352C535.872 297.3 522.414 289.206 520.088 291.606C518.271 293.069 516.225 294.316 514.959 296.329C515.052 296.445 515.144 296.562 515.281 296.662C511.393 298.481 509.033 305.995 507.625 310.361C505.27 311.721 502.803 312.771 500.033 313.132C500.327 314.075 500.734 314.777 501.252 315.238C501.208 315.254 501.164 315.271 501.164 315.271C506.249 327.421 484.872 328.47 478.619 329.702C467.429 331.936 457.37 336.857 446.104 339.569C443.889 340.077 441.782 340.746 439.675 341.415C438.19 341.457 436.548 341.756 433.542 342.153L429.524 342.519C429.287 342.556 428.99 342.564 428.544 342.577C428.372 342.79 424.631 343.505 424.487 343.658C424.724 344.171 424.929 344.596 425.279 344.869C423.834 344.746 423.07 344.025 422.153 342.609C419.848 335.196 407.466 317.856 404.042 311.902C404.364 312.235 404.685 312.568 404.887 312.845C404.93 312.279 404.941 311.624 404.941 311.074C405.23 311.319 405.519 311.563 405.797 311.912C411.026 317.057 406.604 298.912 405.201 297.123C404.521 296.221 403.24 295.588 401.75 294.932C401.512 294.418 401.214 293.876 400.917 293.335C401.343 293.679 401.736 293.936 402.207 294.265C402.202 294.116 404.508 295.225 404.504 295.077C405.331 295.425 406.259 295.637 407.026 295.957C407.275 292.665 407.093 288.329 403.33 284.05C405.737 278.72 400.045 272.994 399.506 268.639C398.421 260.731 398.492 256.953 394.746 249.567C391.108 242.341 389.278 232.804 392.684 224.458C394.089 221.044 396.382 218.006 397.69 214.327C398.891 211.038 398.839 208.155 398.811 205.064C400.315 199.863 402.171 194.534 403.903 189.55C408.276 190.154 412.476 190.972 416.379 191.799C416.347 191.711 419.718 193.682 419.642 193.609C420.127 193.432 421.484 189.886 422.44 187.436C423.186 186.463 423.992 185.519 424.878 184.795C426.823 183.135 429.259 181.996 431.356 180.48C435.251 180.459 437.825 181.62 442.067 187.075C452.682 200.808 476.443 205.742 490.818 214.701C496.523 218.271 499.642 224.486 504.445 229.286C510.197 235.04 515.626 236.21 518.174 232.228C521.432 233.89 527.366 237.127 529.466 237.811C531.281 238.399 535.514 239.855 536.563 237.521C537.512 235.324 533.467 233.149 532.497 231.452C536.898 231.997 540.342 234.442 547.234 236.878C549.154 238.028 549.31 237.771 550.569 236.011C552.54 233.19 547.606 229.539 545.548 227.739C545.118 227.246 544.716 226.692 544.447 226.09C549.196 229.509 552.59 227.57 548.068 222.718C546.395 220.877 543.168 217.653 541.194 215.672C541.243 215.805 541.231 215.909 541.178 215.628C541.126 215.347 541.174 215.48 541.178 215.628C543.476 216.99 547.081 219.877 548.67 219.297C551.378 218.358 549.548 215.124 549.544 214.976C549.025 214.515 542.19 209.356 539.961 208.319C538.161 207.225 533.087 204.425 532.469 204.101C532.569 203.964 521.765 199.854 506.952 201.209L494.4 192.584C492.033 190.347 489.694 188.049 487.35 185.603C481.417 179.215 475.439 172.293 468.195 167.384C456.828 159.678 445.346 158.916 433.335 153.146C434.577 151.342 435.721 147.623 433.187 146.847C428.95 148.944 417.674 142.855 413.124 141.765C408.678 140.686 405.755 139.802 402.006 137.069C398.197 134.307 395.466 130.252 390.835 128.941C383.582 126.886 373.44 125.686 366.288 127.196C364.242 125.291 362.37 124.274 359.543 123.655C356.278 122.246 351.959 123.572 348.935 125.426C340.822 116.082 339.827 113.493 336.909 107.005C337.435 104.062 338.195 101.484 337.155 98.3616C337.552 97.6666 338.113 97.0116 338.369 96.0678C339.269 93.1883 338.157 89.5925 336.515 86.7401C336.833 76.92 323.41 68.5135 313.219 70.8823C311.881 69.27 310.028 67.8952 307.602 66.7299C301.472 63.915 296.667 67.4697 291.173 69.2748C291.241 68.4999 291.545 67.6886 291.941 66.9936C288.84 68.2258 284.581 69.0298 281.803 72.2448C280.326 73.1338 278.834 77.6802 278.158 78.9777C278.196 77.163 278.59 74.268 279.511 72.6812C270.247 77.3131 261.792 93.755 271.376 105.213C272.852 106.926 274.858 106.393 276.497 107.046C275.096 110.608 278.331 116.181 280.237 118.937C281.371 120.674 281.879 122.339 282.588 124.281C283.522 126.841 284.103 125.829 286.209 127.212C289.025 129.035 290.744 133.059 291.944 136.073C292.617 137.778 293.912 143.108 295.426 144.106C296.684 144.948 299.364 143.519 299.364 143.519C300.509 144.052 301.52 147.234 302.557 148.156C304.161 149.672 305.849 147.855 305.849 147.855C305.849 147.855 304.202 150.607 306.247 151.962C307.308 152.675 310.161 151.584 310.998 153.329C311.16 154.87 311.668 156.536 312.942 157.421C313.139 157.55 313.484 157.674 313.874 157.782C314.071 157.91 315.508 158.286 315.845 158.113C317.783 157.255 318.617 156.25 319.459 155.543C320.939 154.252 322.383 152.725 323.75 151.126C323.771 151.868 323.703 152.643 323.708 153.342C323.392 153.707 323.031 154.089 322.714 154.455C319.631 157.931 320.526 158.055 319.219 162.284C317.707 167.187 308.254 195.148 309.483 205.505C310.059 210.647 310.932 218.382 314.589 222.099C317.849 225.411 318.136 227.157 317.171 231.911C316.843 233.482 316.581 235.778 316.442 237.179L316.505 236.256C316.505 236.256 312.962 244.502 309.05 249.132C306.993 251.583 305.682 253.062 303.116 255.9C298.681 260.469 294.664 264.537 290.293 269.284C284.972 274.577 279.41 279.759 277.584 280.375C272.809 281.818 267.136 285.189 262.739 287.394C260.833 288.34 258.447 290.712 256.503 292.922C255.781 293.686 255.148 294.417 254.546 295.237C253.757 296.225 253.2 297.029 252.899 297.439C251.011 300.079 248.11 304.189 249.496 305.384C251.248 306.345 252.483 305.344 253.032 304.793C252.857 305.958 252.702 307.315 252.708 308.563C252.017 311.467 251.406 314.591 254.982 313.836C255.538 315.634 253.866 320.646 257.946 318.256C259.511 317.335 261.432 312.732 262.326 311.206C263.872 308.59 263.383 305.467 265.142 303.024C266.429 301.204 269.065 299.792 270.833 298.196C271.209 300.46 270.212 302.525 270.259 304.708C269.49 306.44 268.898 308.106 268.824 309.684C268.658 309.094 268.625 308.456 268.769 307.753C267.718 311.589 271.331 318.473 274.804 315.105C275.686 314.233 276.182 309.699 276.96 308.265C277.765 306.771 278.799 305.493 280.014 304.299C283.374 301.172 286.781 299.678 288.674 295.136C289.371 293.481 289.867 291.549 290.093 289.566C293.233 287.069 297.157 284.936 297.406 284.796C300.246 283.259 314.226 277.156 318.431 274.971C318.772 275.496 319.938 276.771 320.115 277.257C320.828 278.798 321.36 280.254 321.771 281.655C324.855 282.43 325.515 284.24 325.515 284.24C324.797 284.602 323.481 284.832 322.89 287.599C323.285 292.107 322.636 296.496 322.024 301.671C322.79 301.442 323.513 301.228 324.263 300.954C324.324 301.532 324.325 302.082 324.369 302.616C314.06 309.18 301.387 317.357 289.901 327.002C287.446 328.498 285.083 330.111 283.142 331.92C280.083 334.638 275.771 338.312 273.607 341.703C272.554 343.338 272.137 344.391 272.118 345.298C271.713 345.146 271.307 344.994 270.889 344.946C272.211 345.964 272.387 348.501 273.007 349.926C266.526 355.743 262.563 361.741 260.068 369.705C259.431 370.838 258.882 371.939 258.438 373.051C257.087 375.245 255.721 377.394 254.146 379.52C247.444 388.569 239.929 395.664 240.478 407.719C240.37 408.108 240.202 408.47 240.05 408.876C239.638 410.076 239.153 411.354 238.669 412.631C235.459 413.703 234.028 415.676 235.979 418.965L236.023 418.949C235.675 419.776 235.327 420.604 234.934 421.447C234.292 421.332 233.681 421.304 233.083 421.173C232.826 431.021 219.249 434.526 220.29 445.601C220.603 445.637 220.976 445.7 221.306 445.78C220.834 447.503 220.395 449.314 219.939 451.081C219.417 451.022 218.895 450.962 218.389 450.947C215.316 459.521 216.921 472.141 215.201 480.723C213.542 486.181 210.609 491.303 208.239 496.32C206.431 499.18 203.419 498.329 201.158 500.905C199.411 500.092 197.24 500.584 195.258 502.008C192.314 504.083 189.497 508.563 186.538 511.694C182.691 513.898 190.469 508.758 185.427 509.198C185.411 509.154 180.909 511.347 177.198 513.102C171.281 513.611 160.632 515.547 155.718 515.239C152.085 515.015 151.066 515.787 148.408 515.907C147.156 515.764 145.935 515.709 144.743 515.594C143.638 515.447 142.353 515.215 140.783 514.888C135.459 513.73 131.083 514.077 129.046 516.171C128.946 516.307 128.834 516.548 128.706 516.745C128.582 517.091 128.441 517.392 128.301 517.693C127.732 518.051 127.222 518.437 126.773 518.851C126.922 519.397 127.132 519.971 127.325 520.501C127.325 520.501 127.325 520.501 127.341 520.545C127.386 521.079 127.359 521.689 127.375 522.283C133.936 536.146 143.982 540.782 171.855 543.415C181.499 544.347 182.617 549.191 195.327 552.355C203.619 554.381 209.652 556.931 216.051 546.092C218.16 543.921 219.522 541.623 219.891 538.387C220.499 533.063 217.552 529.786 223.084 525.617C223.011 525.143 222.822 524.762 222.528 524.369C222.127 524.365 221.725 524.362 221.368 524.342C220.798 524.7 220.192 524.821 219.538 524.81C218.996 525.108 218.575 525.461 218.186 525.904C217.547 525.386 217.125 524.64 216.967 523.797C215.689 522.763 214.929 521.09 215.677 519.166C221.168 504.606 234.011 495.117 241.651 481.923C241.164 481.001 241.074 479.933 241.486 478.732C244.011 471.808 248.658 466.31 253.376 460.736C259.041 453.917 263.781 446.484 267.417 438.354C269.374 433.988 271.854 429.131 272.627 424.397C273.173 421.096 272.795 417.733 273.193 414.436C273.805 409.261 276.213 405.58 280.224 402.316C290.427 394.089 304.079 382.154 317.594 380.672C327.404 379.592 330.964 371.94 337.81 365.89C342.755 361.484 348.463 357.8 354.228 354.545C354.634 351.546 359.052 349.533 361.416 352.722C364.307 356.669 367.159 360.78 370.86 363.931C372.436 362.356 375.081 362.341 376.774 364.374C384.746 374.02 390.674 386.012 401.149 393.194C412.942 401.245 426.458 400.863 433.403 387.274C435.698 382.734 442.796 386.146 440.485 390.641C440.301 390.959 440.161 391.26 440.004 391.517C440.253 391.376 440.458 391.252 440.723 391.155C441.076 391.026 441.369 390.869 441.706 390.696C446.566 372.765 473.125 368.373 485.324 357.118C487.586 355.092 490.602 356.092 491.889 357.973C496.394 354.828 500.05 350.592 504.361 346.918C509.904 342.094 515.999 339.469 522.946 337.533C525.173 336.921 527.726 336.789 530.031 336.798C529.869 336.357 529.724 335.96 529.624 335.546C530.013 335.654 530.403 335.762 530.792 335.87C530.918 337.175 531.313 338.531 531.845 339.988C537.023 339.098 541.025 338.688 546.227 338.14C552.541 337.486 556.196 339.003 562.223 339.205C567.787 339.375 571.416 339.45 577.29 339.508C571.964 337.8 566.474 335.502 561.498 334.067C561.414 334.247 561.406 334.5 561.382 334.709C560.342 334.739 560.354 334.634 559.294 334.471C559.33 334.158 559.366 333.844 559.429 333.471C558.546 333.243 557.634 333.076 556.767 332.892C556.715 333.161 556.663 333.43 556.595 333.655C555.949 333.391 555.286 333.083 554.607 332.73C554.635 332.67 554.619 332.626 554.603 332.582C554.454 332.586 554.29 332.546 554.141 332.55C547.183 331.988 538.156 336.584 531.831 331.589C527.133 327.901 522.208 315.093 526.265 310.31L523.637 308.318C530.423 302.79 541.74 302.411 553.258 305.461C552.474 305.096 551.723 304.82 550.972 304.544C558.04 306.366 565.004 308.726 571.13 311.943C571.689 312.239 572.187 312.508 572.761 312.848C574.87 313.829 576.895 314.991 578.96 316.538C582.066 318.606 584.867 320.935 587.283 323.855C592.834 329.332 600.886 338.648 593.389 343.186C590.845 344.714 586.624 343.154 581.996 340.891C581.547 340.755 581.113 340.663 580.663 340.527C583.467 341.905 586.59 344.567 589.491 346.759C591.167 348.749 592.679 346.996 594.609 346.392C598.144 345.252 598.174 339.988 597.545 337.167C595.784 329.055 590.824 323.963 585.402 318.289ZM383.792 131.161C383.511 131.214 383.23 131.266 382.994 131.303C382.572 131.106 382.134 130.866 381.712 130.67C382.415 130.814 383.074 130.973 383.792 131.161ZM252.019 303.662C251.947 303.739 251.831 303.831 251.759 303.908C250.847 303.74 251.115 302.692 251.88 301.362C251.645 302.499 251.658 303.494 252.019 303.662ZM253.531 302.46L253.487 302.476C253.487 302.476 253.487 302.476 253.531 302.46ZM192.5 541.732C192.439 541.704 192.379 541.676 192.363 541.632L192.17 541.102C192.234 541.279 192.403 541.467 192.5 541.732ZM245.703 396.407C244.469 398.509 243.44 400.485 242.547 402.562C243.935 398.003 246.418 393.295 249.901 391.324C248.425 392.763 246.937 394.306 245.703 396.407ZM319.563 181.316C318.511 185.152 316.806 188.976 315.221 192.856C316.116 189.278 317.099 185.667 318.07 182.161C319.126 178.475 319.803 174.026 321.726 170.523C321.1 174.153 320.562 177.75 319.563 181.316Z" fill="#FAE5B7"/>
<path d="M588.397 341.707C589.899 341.709 591.396 341.563 592.68 341.244C592.731 339.875 592.633 338.51 592.402 337.194C591.493 331.823 588.315 326.68 583.741 322.097C579.396 317.73 573.907 313.931 567.785 310.863C563.125 308.512 558.197 306.659 553.286 305.401C541.768 302.351 530.452 302.73 523.666 308.258L526.293 310.251C522.236 315.033 527.162 327.842 531.859 331.529C538.184 336.524 547.167 331.945 554.17 332.49C554.318 332.486 554.483 332.526 554.631 332.522C555.318 332.621 556.109 332.733 556.795 332.832C557.663 333.016 558.53 333.2 559.458 333.411C560.133 333.615 560.851 333.803 561.542 334.051C566.534 335.53 572.009 337.784 577.334 339.492C578.475 339.876 579.627 340.156 580.736 340.451C581.186 340.587 581.619 340.679 582.069 340.815C584.298 341.302 586.434 341.673 588.397 341.707Z" fill="#FAE5B7"/>
<path d="M253.535 302.465L253.488 302.482C253.505 302.528 253.488 302.482 253.535 302.465Z" fill="#FAE5B7"/>
<path d="M347.988 409.4C326.136 402.019 302.371 413.794 295.051 435.675C287.654 457.483 299.446 481.291 321.282 488.628C343.118 495.964 366.899 484.233 374.219 462.353C381.572 440.561 369.824 416.736 347.988 409.4Z" fill="#D4E4A3"/>
<path d="M218.438 451.082C213.481 465.047 215.702 479.493 207.452 492.659C205.633 495.623 203.496 498.404 201.251 501.024C199.504 500.212 197.332 500.704 195.351 502.127C192.407 504.202 189.59 508.682 186.631 511.813C182.783 514.018 190.562 508.878 185.52 509.317C185.504 509.273 181.002 511.467 177.291 513.221C171.374 513.73 160.725 515.666 155.811 515.359C149.945 515.049 150.972 517.175 140.876 515.007C135.551 513.85 131.176 514.196 129.139 516.29C129.039 516.427 128.927 516.668 128.798 516.865C128.31 517.993 127.882 519.15 127.421 520.219C127.426 520.367 127.43 520.516 127.418 520.62L127.434 520.664C127.434 520.664 127.434 520.664 127.39 520.68C127.435 521.214 127.407 521.824 127.424 522.419C133.985 536.281 144.031 540.918 171.903 543.55C181.547 544.482 182.665 549.326 195.375 552.491C203.668 554.516 209.701 557.066 216.099 546.227C218.208 544.057 219.571 541.759 219.94 538.522C220.548 533.198 217.601 529.922 223.132 525.752C223.06 525.279 222.87 524.897 222.577 524.504C212.736 523.444 219.77 540.935 211.577 544.526C210.26 544.757 209.092 544.983 207.892 545.121C207.655 545.157 207.463 545.178 207.254 545.154L207.39 545.254C204.561 545.587 201.75 545.562 197.682 544.146C188.179 540.861 187.767 535.209 179.021 536.6C164.459 538.914 148.037 536.955 139.016 530.193C144.992 532.314 152.143 532.855 157.091 531.749C149.401 530.004 136.861 528.128 130.312 520.464C128.067 513.08 138.342 517.933 150.444 519.569C151.801 522.325 147.614 526.204 143.174 523.223C147.208 528.654 155.655 526.17 153.219 519.907C154.725 520.057 156.286 520.088 157.816 520.029C159.203 521.774 158.702 522.457 159.054 524.38C161.677 522.522 160.972 520.178 159.303 518.486C160.106 518.493 160.881 518.56 161.64 518.584C163.281 520.886 164.468 523.454 166.866 524.68C166.824 522.644 165.942 520.365 164.707 518.765C165.615 518.784 166.598 518.875 167.506 518.894C169.126 520.453 170.701 522.029 171.386 524.18C173.014 522.336 172.534 520.61 171.119 518.926C171.669 518.925 172.247 518.864 172.797 518.863C174.862 520.41 176.222 522.765 176.358 525.467C177.6 523.113 176.982 520.737 175.691 518.707C176.181 518.679 176.715 518.634 177.233 518.545C178.941 520.622 180.274 523.588 181.344 525.698C181.626 523.044 181.832 520.318 181.122 517.826C181.624 517.692 182.081 517.576 182.627 517.426C188.157 525.862 203.099 539.117 213.063 531.878C202.829 531.112 196.883 527.43 191.17 520.961C192.499 520.626 193.979 519.886 195.684 518.663C198.044 521.703 200.393 524.848 203.706 526.39C214.174 531.223 213.355 524.319 216.651 517.863C223.412 504.591 241.385 497.231 230.072 477.749C233.834 477.777 235.595 483.287 237.498 486.444C243.91 480.852 250.189 470.507 254.724 462.649C242.602 451.366 232.567 452.378 218.438 451.082Z" fill="#181712"/>
<path d="M233.131 421.306C232.874 431.154 219.297 434.659 220.338 445.734C230.116 447.718 246.643 450.239 257.036 459.802C263.28 453.471 273.853 438.857 269.285 429.77C264.561 420.389 241.709 422.878 233.131 421.306Z" fill="#181712"/>
<path d="M235.982 419.112L236.681 419.107C249.759 421.086 261.986 416.623 272.865 429.71C274.188 424.975 275.178 420.012 275.734 414.957C271.164 413.674 228.472 406.346 235.982 419.112Z" fill="#181712"/>
<path d="M285.914 330.608C286.73 331.06 297.157 325.504 297.856 326.049C296.553 327.275 291.152 332.898 287.759 335.937C296.997 333.015 308.205 328.774 317.901 328.887C309.938 330.643 294.554 334.407 288.451 339.886C299.663 339.496 314.174 334.299 325.123 339.357C314.839 346.812 294.92 344.728 283.206 348.954C291.268 352.264 303.523 350.892 310.419 356.629C316.567 361.688 319.758 370.978 320.618 378.818C315.456 372.898 314.264 355.926 296.928 355.3C304.534 360.378 306.225 365.013 304.627 371.598C303.269 377.196 300.13 377.092 296.099 380.714C292.069 384.336 288.806 388.828 284.455 392.117C280.247 395.254 274.922 397.247 271.342 401.005C277.576 391.226 286.736 382.881 293.827 373.94C285.166 379.402 277.281 385.482 269.806 392.412C266.589 395.386 259.747 400.485 256.294 400.345C253.146 406.246 245.727 406.753 241.353 408.199C242.144 402.008 245.557 392.308 251.649 390.635C252.62 393.432 252.668 396.716 252.307 399.699C259.854 385.84 259.343 368.268 271.16 356.652C274.204 354.44 278.883 352.733 280.052 349.905C277.152 348.812 273.957 345.677 270.969 345.167C272.291 346.185 272.467 348.722 273.087 350.146C266.606 355.963 262.643 361.962 260.148 369.926C259.996 370.331 262.03 366.587 260.148 369.926C259.511 371.058 258.962 372.159 258.518 373.272C257.167 375.465 255.801 377.615 254.226 379.74C247.412 389.03 239.632 396.222 240.567 408.786C240.322 409.076 240.062 409.321 239.954 409.71C249.241 407.471 263.291 410.196 273.854 410.493C281.408 402.683 313.676 377.75 323.42 385.398C326.55 373.551 347.972 360.98 360.899 353.911C335.101 326.811 328.668 315.903 325.444 302.273C313.67 309.622 298.675 319.247 285.914 330.608Z" fill="#181712"/>
<path d="M437.31 357.685C436.112 355.771 434.592 354.075 432.824 352.519C432.824 352.519 427.304 346.03 426.455 354.394C427.364 356.063 428.627 358.153 429.85 360.407C425.49 357.097 422.095 354.234 423.87 348.134C418.189 354.909 421.802 364.946 425.307 371.67C427.931 376.665 423.811 382.37 423.046 387.402C423.03 387.358 427.909 382.225 428.232 383.658C428.562 390.591 419.258 402.24 411.374 396.264C404.523 391.061 392.106 378.286 386.931 368.219C390.622 368.873 398.609 374.311 402.087 375.343C394.524 369.149 389.923 355.722 383.684 348.495L385.569 346.807C386.808 345.954 399.022 339.946 407.23 342.152C407.612 346.214 409.788 349.022 411.587 353.267C413.673 358.159 419.851 367.959 419.796 376.032C421.28 367.487 416.9 357.681 418.722 350.613C419.501 347.677 420.018 346.488 419.596 343.141C421.171 343.617 421.411 343.179 422.556 344.261C421.948 335.88 394.631 300.781 405.869 311.835C411.098 316.98 406.676 298.835 405.273 297.046C403.62 294.848 398.135 293.799 395.713 292.232C392.366 290.052 389.944 289.035 386.629 286.944C382.254 284.139 375.493 283.705 373.522 283.924C378.812 285.946 387.24 291.223 389.47 292.26C389.41 292.232 366.124 281.472 359.624 287.647C359.624 287.647 364.557 290.748 369.968 293.375C388.097 302.065 358.777 297.66 362.217 300.506C380.204 315.25 369.963 312.135 357.955 318.569C360.705 322.267 373.434 320.823 377.603 322.653C379.214 323.365 381.499 324.282 383.805 325.391C392.734 329.435 409.955 334.955 380.415 333.782C374.938 333.579 368.877 337.393 367.089 343.047C372.289 344.001 378.185 342.749 384.097 341.541C382.027 342.447 379.993 343.59 377.959 344.732C376.333 345.076 374.825 345.876 373.2 346.77C369.055 348.983 366.994 350.735 364.292 347.17C361.111 342.978 355.29 333.198 352.333 331.126C351.677 326.313 369.886 338.375 377.346 329.349C370.172 329.017 362.048 327.18 357.373 325.884C352.008 324.341 347.763 319.838 344.855 315.297C340.605 313.247 352.344 316.765 354.855 315.148C362.192 310.17 344.941 306.212 346.198 300.2C347.22 295.325 360.102 294.575 365.006 292.935C357.489 288.376 347.473 292.182 342.02 294.372C337.802 296.112 327.583 300.592 327.583 300.592C327.882 305.935 335.182 320.178 341.846 327.2C346.228 331.803 367.771 359.306 372 366.916C372.388 366.474 374.293 364.428 374.666 363.942C374.814 363.938 375.023 363.962 375.144 364.018C377.645 367.307 386.027 380.405 388.732 383.569C393.022 388.606 394.879 386.978 398.527 392.449C403.755 400.195 412.042 404.124 419.214 402.256C423.271 401.176 430.015 393.612 431.591 389.435C431.525 391.31 429.181 394.617 428.232 396.814C427.967 396.91 427.807 397.019 428.192 396.978C432.383 396.399 436.811 393.182 440.634 391.186C445.882 388.571 448.133 387.199 447.439 381.049C446.529 372.528 442.71 364.667 437.519 357.708C437.447 357.785 437.342 357.773 437.31 357.685Z" fill="#181712"/>
<path d="M535.692 324.078C533.895 321.483 532.963 317.971 530.756 315.625C529.052 313.696 524.263 310.442 521.18 310.767C524.792 316.551 527.284 322.145 518.355 321.802C514.753 321.666 512.483 320.244 509.074 322.689C506.395 324.667 503.696 323.851 501.607 326.214C498.263 329.936 491.056 335.818 485.987 336.868C479.292 338.261 478.486 335.504 472.986 332.359C474.86 335.026 480.526 342.463 480.441 345.795C480.421 348.754 474.962 346.544 471.889 348.266C465.743 351.71 466.084 354.837 463.877 348.79C462.539 345.126 457.411 339.845 452.702 340.513C456.703 345.856 458.141 349.933 458.932 353.196C456.424 350.71 453.617 347.132 451.589 346.372C450.882 346.079 447.804 343.401 447.093 343.511C440.358 340.817 440.563 341.242 433.559 342.198L429.54 342.564C429.304 342.601 429.006 342.609 428.561 342.621C428.388 342.834 424.648 343.55 424.503 343.702C424.87 344.569 425.316 345.106 425.93 345.282C426.252 345.615 426.734 345.839 427.232 346.108L427.104 346.305C427.313 346.328 432.313 348.105 438.009 353.98C439.091 355.436 440.128 356.908 440.997 358.191C445.324 364.565 449.692 374.476 449.693 382.429C453.032 381.16 458.324 378.529 461.433 376.493C463.579 375.11 463.817 372.472 464.742 370.484C464.786 370.467 464.786 370.467 464.786 370.467C467.149 369.405 468.127 371.399 469.327 371.261C471.932 370.86 475.674 367.544 478.185 365.927C481.663 363.807 484.989 362.093 488.548 360.194C494.61 356.931 498.98 351.634 504.262 347.055C509.804 342.231 515.899 339.606 522.846 337.671C525.073 337.058 527.626 336.926 529.931 336.936C527.699 330.547 532.012 327.972 535.692 324.078ZM428.709 342.617C428.649 342.589 428.99 342.565 429.271 342.512L428.709 342.617Z" fill="#181712"/>
<path d="M597.632 337.134C595.8 329.099 590.824 323.962 585.401 318.288C579.685 312.221 572.29 308.817 564.727 305.775C557.782 303.058 549.909 299.579 542.308 298.351C535.872 297.299 522.413 289.206 520.087 291.605C518.271 293.069 516.225 294.316 514.958 296.329C515.051 296.445 515.143 296.561 515.28 296.661C511.392 298.481 509.032 305.995 507.625 310.36C505.27 311.72 502.802 312.771 500.032 313.132C502.684 321.768 515.753 309.194 519.786 308.322C527.87 306.623 532.53 315.826 532.53 315.826C535.252 319.585 535.798 322.587 535.707 323.571C537.104 324.111 538.763 324.406 540.276 324.304C538.208 316.855 532.385 305.975 524.142 304.632C520.275 304.042 516.992 305.19 513.871 306.78C513.476 305.423 514.618 303.756 516.073 302.124C519.839 301.75 524.087 302.151 528.275 303.073C530.99 303.933 533.689 304.749 536.348 305.729C537.384 306.101 538.48 306.501 539.637 306.93C541.051 307.514 542.348 308.191 543.63 308.824C544.751 309.565 545.755 310.399 546.515 311.522C544.555 307.385 539.954 303.412 534.997 301.07C547.453 303.126 560.472 306.178 571.23 311.805C579.348 316.095 585.989 320.174 590.68 328.366C592.072 330.81 594.172 334.095 594.89 336.884C595.059 337.623 595.059 337.073 595.059 337.623C592.619 331.76 591.227 328.767 586.922 324.786C583.076 321.238 575.461 314.763 568.175 315.222C577.148 319.25 591.852 330.89 594.229 341.928C593.524 342.735 592.327 342.472 591.605 343.235C589.588 344.422 584.853 336.246 578.667 334.102C577.225 333.028 575.73 331.672 576.595 330.206C578.07 327.667 581.846 330.34 583.149 331.716C580.998 329.249 578.301 326.382 574.533 327.707C571.692 328.694 571.249 330.907 571.745 333.227C571.211 333.272 570.589 333.349 570.055 333.393C569.985 331.418 569.218 327.947 566.805 327.777C567.047 328.989 567.071 332.482 566.86 333.959C566.298 334.064 565.72 334.125 565.175 334.274C565.307 331.075 564.383 326.76 561.595 325.427C562.052 327.911 562.253 331.889 561.465 334.528C560.426 334.557 560.438 334.453 559.377 334.289C559.811 330.68 559.734 323.755 555.692 323.78C556.718 325.906 557.471 330.984 556.618 333.446C555.972 333.182 555.309 332.873 554.63 332.521C555.079 328.955 554.633 324.716 551.009 322.187C551.806 324.647 552.361 328.497 552.2 331.207C551.625 330.866 550.946 330.514 550.356 330.129C550.504 326.423 548.615 321.66 545.667 320.435C546.11 321.924 546.605 326.296 546.853 328.206C546.294 327.91 545.72 327.569 545.133 327.333C545.174 324.567 544.198 320.522 540.522 318.812C540.978 320.196 542.517 324.687 542.667 326.333C541.751 326.016 540.824 325.805 539.912 325.637C532.211 324.547 528.699 331.781 531.944 339.851C537.122 338.961 541.124 338.551 546.326 338.003C552.641 337.349 556.296 338.866 562.322 339.067C567.886 339.237 571.516 339.313 577.389 339.37C580.882 339.346 585.471 343.423 589.634 346.606C591.311 348.595 592.822 346.843 594.752 346.239C598.232 345.219 598.246 339.911 597.632 337.134Z" fill="#181712"/>
<path d="M347.988 409.4C326.136 402.019 302.371 413.794 295.051 435.675C287.654 457.483 299.446 481.291 321.282 488.628C343.118 495.964 366.899 484.233 374.219 462.353C381.572 440.561 369.824 416.736 347.988 409.4ZM348.568 417.842C350.719 419.758 352.848 421.482 354.493 423.933C355.286 425.144 356.359 426.303 356.975 427.579C357.623 428.943 357.705 430.814 358.321 432.09C358.441 434.747 357.794 437.635 356.147 440.387C355.438 441.596 354.294 442.163 353.038 442.422C348.738 441.74 342.606 440.977 337.978 441.316C337.829 441.32 337.709 441.264 337.56 441.268C334.336 437.643 331.698 433.704 328.342 430.127C331.002 422.753 331.543 421.355 335.667 415.798C340.022 414.708 344.611 415.634 348.568 417.842ZM307.29 421.103C312.194 416.312 318.296 412.884 324.922 411.166C328.455 410.977 331.7 412.193 334 415.206C332.323 418.969 330.137 421.067 327.437 429.156C322.041 432.326 315.083 434.916 309.123 432.839C308.171 432.287 306.612 431.305 305.013 430.488C304.587 430.143 304.173 429.694 303.775 429.289C303.92 426.535 305.238 423.703 307.29 421.103ZM327.911 455.945L327.207 455.251C327.404 455.38 327.661 455.536 327.874 455.708C327.863 455.813 327.895 455.901 327.911 455.945ZM295.612 451.327C295.297 446.49 295.929 441.507 297.529 436.571C298.486 434.671 299.689 433.031 301.141 431.801C302.505 431.153 303.994 431.26 305.545 431.944C306.087 432.197 306.662 432.537 307.204 432.79C307.324 432.846 307.461 432.946 307.537 433.018C308.823 433.799 310.779 434.636 311.732 435.739C312.962 437.191 312.703 439.086 312.962 440.892C312.99 440.832 313.063 440.756 313.075 440.651C313.207 443.754 313.588 446.717 313.499 449.9C309.649 453.056 306.209 457.063 301.759 458.987C298.43 457.952 296.443 454.975 295.612 451.327ZM336.343 487.132C334.963 487.736 333.393 487.959 331.699 487.977C330.27 487.898 328.836 487.671 327.403 487.444C321.162 485.97 314.345 481.956 309.896 478.677C309.848 478.545 309.8 478.412 309.735 478.236C309.851 477.593 309.621 476.827 309.496 476.072C309.516 475.715 309.656 475.414 309.856 475.14C311.279 473.421 313.469 474.622 315.28 475.062C317.746 476.062 320.436 476.581 322.954 477.313C324.019 477.625 325.051 477.848 325.978 478.06C327.842 478.78 329.77 479.677 331.614 480.755C331.69 480.827 331.706 480.871 331.783 480.943C333.077 482.022 337.537 485.196 336.343 487.132ZM333.74 472.876C331.008 474.573 329.854 476.345 326.269 476.253C324.306 476.219 321.981 476.017 319.769 475.574C312.856 472.945 305.567 467.502 303.849 460.326C306.061 457.617 311.043 453.998 314.508 450.883C319.307 452.382 322.74 452.88 325.681 454.358C326.521 455.152 327.373 455.841 328.132 456.414C328.917 457.879 330.738 459.715 331.393 460.827C332.483 462.58 335.664 466.771 335.901 469.886C335.376 470.778 334.602 471.811 333.74 472.876ZM334.41 462.377C334.004 461.675 333.509 461.005 333.059 460.319C332.459 459.087 331.815 457.871 331.115 456.776C331.099 456.732 331.099 456.732 331.099 456.732C330.519 455.143 330.775 453.649 330.909 452.099C332.704 449.343 334.32 447.603 336.163 444.429C339.705 441.936 342.914 442.916 347.462 442.906C349.217 442.916 351.003 443.014 352.654 443.562C353.136 443.787 353.558 443.983 353.984 444.328C356.909 446.311 360.555 453.834 359.348 457.927C358.684 460.22 351.986 468.867 349.823 469.657C347.792 470.398 342.557 469.758 339.842 468.898C337.619 467.058 336.128 465.301 334.41 462.377ZM347.795 485.754C347.044 486.028 346.278 486.257 345.511 486.487C343.489 486.975 341.514 487.046 339.815 486.365C339.838 486.157 339.995 485.9 340.211 485.67C346.3 484.949 350.639 480.664 356.777 480.074C354.575 482.128 351.206 484.409 347.795 485.754ZM369.535 466.514C368.113 469.334 366.402 471.909 364.446 474.224C362.97 475.663 361.321 476.765 359.604 477.542C356.742 477.786 354.932 478.447 353.158 475.092C352.655 474.126 352.36 473.182 352.243 472.175C353.002 469.047 356.291 467.096 357.89 464.211C359.957 460.555 361.386 456.933 364.631 454.448C365.947 454.217 367.24 454.196 367.75 454.36C368.939 454.876 369.88 456.633 370.597 458.323C371.014 460.972 370.559 463.839 369.535 466.514ZM371.604 437.646C372.155 438.745 372.514 439.865 372.828 441.001C373.05 442.02 373.212 443.012 373.33 444.019C373.768 447.961 373.319 452.077 372.903 456.28C368.955 451.769 368.765 443.435 370.684 437.182C371.041 437.201 371.359 437.385 371.604 437.646ZM369.808 433.549C368.971 434.956 367.217 435.496 365.406 435.056C360.497 432.296 357.2 424.496 352.524 418.949C352.508 418.905 352.492 418.861 352.492 418.861C352.09 418.307 351.527 417.312 350.803 416.426C351.295 415.446 353.335 415.552 355.246 415.854C355.351 415.866 355.411 415.894 355.487 415.967C361.329 419.637 365.964 424.798 369.102 430.656C369.457 431.627 369.663 432.602 369.808 433.549Z" fill="#181712"/>
<path d="M253.382 304.516C254.095 306.607 249.516 315.031 255.087 313.848C255.643 315.646 253.971 320.658 258.051 318.269C259.616 317.347 261.537 312.744 262.43 311.218C263.977 308.602 263.487 305.48 265.247 303.037C266.533 301.216 269.169 299.804 270.938 298.208C271.318 300.62 270.205 302.778 270.36 305.122L279.553 291.112C276.968 291.705 273.859 293.74 271.809 294.839C269.306 296.203 265.654 297.436 263.814 299.658C259.717 304.605 260.328 312.585 256.135 317.267C254.064 314.472 258.916 306.798 259.615 303.641C259.123 304.622 255.919 311.193 254.61 311.171C252.916 311.189 255.278 302.173 255.003 300.873C254.366 302.006 253.467 302.284 251.727 303.82C249.366 303.381 254.542 297.69 256.105 295.669C258.474 292.703 261.297 290.022 264.462 287.866C267.831 285.586 271.335 284.907 274.971 283.63C278.723 282.261 281.643 279.845 284.851 277.123C287.783 274.602 291.036 272.414 294.213 270.154C297.986 266.376 301.19 262.956 304.649 258.592C307.247 255.293 312.623 249.328 316.688 244.293C317.418 247.528 323.67 258.352 308.964 271.373C307.484 272.663 319.706 263.801 320.674 263.848C321.954 263.93 322.432 264.006 322.625 263.986C322.834 264.01 322.581 264.002 322.581 264.002C319.749 266.386 314.29 270.479 308.834 273.071C301.455 276.565 295.167 282.362 291.794 285.043C294.628 281.708 299.562 278.506 300.976 275.939C286.675 281.709 283.905 291.524 281.751 299.464L285.563 294.971C285.012 297.023 284.607 297.421 281.855 299.476C276.452 303.449 273.61 307.037 272.337 313.554C270.208 312.381 268.343 310.56 268.802 307.842C267.75 311.677 271.364 318.562 274.836 315.193C275.719 314.321 276.215 309.788 276.992 308.354C277.797 306.859 278.831 305.582 280.046 304.388C283.407 301.26 286.813 299.767 288.707 295.224C289.403 293.569 289.899 291.638 290.125 289.654C293.266 287.157 297.19 285.025 297.438 284.884C300.279 283.347 314.258 277.244 318.463 275.059C318.805 275.585 319.971 276.86 320.148 277.345C320.86 278.886 321.392 280.343 321.803 281.743C324.887 282.519 325.548 284.328 325.548 284.328C324.83 284.69 323.513 284.921 322.922 287.688C323.317 292.196 322.668 296.584 322.056 301.76C327.956 300.107 331.931 297.155 337.821 294.655C340.758 293.383 347.921 290.669 350.934 289.469C348.803 289.796 342.429 290.972 340.418 291.356C335.345 292.257 330.592 296.093 325.646 295.698C326.032 293.055 327.339 287.727 329.287 285.665C332.735 281.955 339.135 282.22 343.197 278.687C338.177 279.869 332.098 282.538 327.53 279.753C326.26 279.016 323.88 275.783 323.176 274.54C321.365 271.499 320.784 271.961 323.259 270.107C325.922 268.085 331.736 268.664 328.621 262.598C326.106 257.763 324.094 257.047 323.071 250.817C327.162 254.626 331.347 252.799 336.469 252.03C330.891 250.314 322.185 248.94 319.777 242.615C324.552 234.32 319.1 237.06 319.76 232.017C320.179 230.013 320.751 228.154 321.275 226.712C325.552 227.602 329.788 228.107 334.097 225.934C330.569 223.12 323.089 225.65 320.647 221.839C320.069 221.9 319.013 221.335 317.645 218.683C315.379 214.258 312.218 206.557 313.156 201.863C314.501 195.269 316.26 188.575 318.143 182.085C319.766 176.391 320.503 168.818 326.261 165.816C319.633 159.582 333.674 147.754 337.747 143.016C340.814 139.495 344.213 135.103 348.139 131.469L349.226 130.472C349.647 130.118 350.943 129.145 351.336 128.852C352.21 128.232 352.19 128.04 353.153 127.388C357.45 125.32 360.05 127.372 360.712 130.282C356.536 132.956 353.401 137.252 352.096 143.681C356.178 132.937 373.343 128.022 383.744 131.029C365.502 134.086 359.806 141.367 353.836 148.448C359.078 150.337 365.921 145.788 370.962 144.248C366.813 149.464 358.548 150.53 351.816 154.288C357.676 156.501 365.126 156.082 370.74 153.233C367.848 155.589 365.763 164.404 355.143 169.981C365.307 173.024 378.464 157.267 384.832 151.141C380.787 155.819 378.346 162.012 373.4 165.868C370.942 167.766 367.627 168.826 366.141 171.469C366.185 171.453 366.229 171.437 366.273 171.421C365.696 172.032 365.118 172.643 364.738 173.382C368.774 171.008 372.265 169.884 375.998 169.422C376.857 169.308 377.704 169.299 378.563 169.186C380.671 169.067 382.903 169.153 385.376 169.35C390.334 169.642 397.13 168.662 401.921 166.713C396.006 172.023 379.519 173.039 372.206 174.657C371.135 174.599 377.797 179.97 376.846 179.967C375.91 180.008 374.999 180.391 374.265 180.159C368.55 178.343 365.364 176.605 359.253 179.185C356.785 180.236 352.437 183.124 347.973 187.204C350.599 187.546 361.992 187.239 369.134 190.085C371.914 192.222 377.184 194.05 377.626 197.59C377.581 197.607 377.521 197.578 377.433 197.611C377.192 197.499 376.951 197.386 376.754 197.258C371.483 193.78 364.106 192.071 358.443 193.687C350.82 193.769 336.4 197.981 324.388 190.561C330.947 203.323 349.799 203.445 355.757 207.023C359.795 209.451 355.985 212.992 348.02 215.7C349.715 216.782 368.049 219.594 368.152 221.657C368.283 224.21 339.112 236.659 337.234 237.544C341.14 243.722 360.209 243.065 357.015 244.731C354.451 246.067 346.348 247.574 344.757 250.205C341.636 255.496 351.668 258.037 355.193 258.651C362.019 259.811 360.854 258.536 367.428 257.637C364.832 261.486 363.212 263.078 362.378 267.784C364.981 268.885 367.596 269.881 370.334 270.533C366.972 275.161 359.687 273.018 356.891 278.241C362.533 280.133 368.393 278.644 374.203 279.075C375.797 279.193 377.391 279.312 378.956 279.491C372.188 279.86 365.309 281.571 359.145 283.32C356.669 284.074 354.64 285.915 352.477 287.255C355.331 286.163 358.172 285.176 361.029 284.234C376.788 279.032 387.874 283.639 402.407 293.992C402.403 293.843 404.709 294.952 404.704 294.804C405.532 295.152 406.46 295.364 407.227 295.684C407.476 292.392 407.294 288.056 403.531 283.777C405.937 278.447 400.246 272.721 399.707 268.366C398.621 260.458 398.693 256.68 394.947 249.294C391.309 242.068 389.479 232.531 392.885 224.185C394.29 220.771 396.583 217.733 397.891 214.054C399.091 210.765 399.04 207.882 399.012 204.791C400.515 199.59 402.372 194.261 404.104 189.276C408.477 189.881 412.677 190.699 416.58 191.526C416.548 191.437 419.919 193.409 419.842 193.336C420.328 193.159 421.684 189.613 422.641 187.163C423.387 186.19 424.192 185.246 425.079 184.522C427.024 182.862 429.459 181.723 431.557 180.207C435.451 180.186 438.026 181.347 442.268 186.802C452.883 200.535 476.643 205.469 491.018 214.428C496.723 217.998 499.842 224.213 504.645 229.013C510.397 234.767 515.826 235.937 518.375 231.955C521.633 233.617 527.566 236.854 529.667 237.538C531.482 238.126 535.715 239.582 536.764 237.248C537.713 235.051 533.668 232.876 532.698 231.179C537.099 231.724 540.542 234.169 547.434 236.605C549.354 237.755 549.511 237.498 550.769 235.738C552.741 232.917 547.807 229.266 545.749 227.466C545.319 226.973 544.917 226.419 544.647 225.817C549.396 229.236 552.79 227.297 548.268 222.445C546.596 220.604 543.368 217.38 541.395 215.399C541.443 215.532 541.431 215.636 541.379 215.355C541.326 215.074 541.375 215.207 541.379 215.355C543.677 216.717 547.281 219.604 548.87 219.023C551.579 218.085 549.749 214.851 549.744 214.703C549.226 214.242 542.391 209.083 540.162 208.046C538.362 206.952 533.288 204.152 532.669 203.828C532.769 203.691 521.965 199.581 507.153 200.936L494.601 192.311C492.234 190.074 489.894 187.776 487.551 185.33C481.618 178.942 475.64 172.02 468.395 167.111C457.029 159.404 445.546 158.643 433.536 152.873C434.778 151.069 435.922 147.35 433.387 146.574C429.151 148.671 417.874 142.582 413.324 141.492C408.879 140.413 405.955 139.529 402.206 136.796C398.397 134.034 395.666 129.979 391.036 128.668C383.783 126.613 373.641 125.413 366.489 126.923C364.443 125.018 362.571 124.001 359.744 123.382C356.478 121.973 352.16 123.299 349.135 125.153C341.023 115.809 340.028 113.22 337.11 106.732C337.636 103.789 338.396 101.211 337.356 98.0886C337.753 97.3936 338.314 96.7385 338.57 95.7948C339.47 92.9152 338.357 89.3195 336.716 86.4671C337.033 76.6469 323.61 68.2404 313.42 70.6092C312.081 68.997 310.229 67.6222 307.803 66.4568C301.673 63.6419 296.868 67.1966 291.374 69.0018C291.441 68.2269 291.745 67.4155 292.142 66.7205C289.04 67.9527 284.782 68.7568 282.003 71.9718C280.527 72.8608 279.035 77.4071 278.358 78.7046C278.396 76.89 278.79 73.995 279.712 72.4081C270.447 77.04 261.992 93.482 271.577 104.94C273.052 106.653 275.059 106.12 276.698 106.773C275.297 110.335 278.531 115.908 280.438 118.664C281.572 120.4 282.08 122.066 282.789 124.008C283.723 126.568 284.304 125.556 286.409 126.939C289.226 128.762 290.945 132.786 292.145 135.8C292.817 137.505 294.112 142.835 295.627 143.833C296.885 144.674 299.565 143.246 299.565 143.246C300.709 143.779 301.721 146.961 302.758 147.883C304.361 149.399 306.049 147.582 306.049 147.582C306.049 147.582 304.403 150.334 306.448 151.689C307.508 152.402 310.362 151.311 311.199 153.056C311.361 154.597 311.869 156.263 313.143 157.148C313.34 157.277 313.685 157.401 314.074 157.509C314.271 157.637 315.709 158.013 316.046 157.839C317.984 156.982 318.818 155.977 319.66 155.27C321.14 153.979 322.583 152.452 323.95 150.853C323.971 151.595 323.904 152.37 323.909 153.069C323.592 153.434 323.231 153.816 322.915 154.182C319.832 157.658 320.727 157.782 319.419 162.011C317.908 166.914 308.455 194.875 309.684 205.232C310.26 210.374 311.132 218.109 314.79 221.826C318.05 225.138 318.337 226.884 317.371 231.638C317.044 233.209 316.782 235.505 316.643 236.906L316.706 235.983C316.706 235.983 313.163 244.229 309.25 248.859C306.604 252.025 305.189 253.492 300.855 258.476L301.296 257.765C298.069 261.394 281.293 279.022 277.741 280.118C272.965 281.561 267.293 284.932 262.895 287.137C259.304 288.948 254.186 295.619 253.056 297.182C251.168 299.822 248.266 303.932 249.653 305.127C251.686 306.586 253.081 304.926 253.382 304.516ZM532.124 234.54C530.402 234.618 528.991 233.632 527.325 233.04L528.293 230.486C528.249 230.502 528.261 230.398 528.457 229.976C529.944 231.034 532.362 232.452 532.124 234.54ZM534.876 223.031C535.053 222.966 535.29 222.93 535.482 222.91L535.779 222.901C535.691 222.933 535.587 222.922 535.482 222.91C537.809 224.762 544.622 228.078 544.854 231.044C541.178 231.936 533.508 227.232 534.876 223.031ZM536.798 208.423C539.906 209.54 544.682 211.798 546.063 214.896C543.205 214.739 539.314 211.206 536.915 209.431L536.798 208.423ZM536.411 214.217C538.88 213.716 542.799 218.288 543.203 220.492C540.915 220.526 538.543 217.591 536.807 216.123L536.348 215.14C536.388 214.976 536.027 214.808 536.411 214.217ZM513.321 202.486C514.699 202.833 516.313 203.145 518.032 203.468C517.779 203.46 517.437 203.485 517.184 203.477C513.819 202.754 510.41 202.048 507.145 201.189C507.8 201.2 512.663 202.326 513.321 202.486ZM429.601 162.513C429.942 162.488 430.223 162.436 430.548 162.367C429.635 160.549 428.29 160.84 428.175 158.881C428.13 157.797 428.662 156.652 429.444 155.917C432.616 156.11 436.458 156.358 439.182 158.065C442.481 160.112 444.377 164.623 447.578 165.305C448.774 165.569 451.555 164.554 453.105 164.688C454.699 164.807 456.361 165.251 457.908 165.787C461.844 167.251 465.501 170.418 468.84 172.851C475.703 177.95 481.821 184.57 488.204 190.544C491.411 193.576 495.061 197.546 499.059 200.688C501.274 202.781 503.242 204.064 502.604 204.097C493.895 199.422 480.695 192.585 474.576 185.414C478.283 193.515 486.638 200.37 494.661 205.495C498.925 209.091 503.187 211.037 504.028 212.931C505.823 217.028 506.543 218.316 506.709 218.906C506.852 217.653 507.43 214.44 508.216 213.303C511.105 209.297 517.162 211.639 521.45 211.874C523.87 211.241 516.09 207.878 514.266 206.993C514.294 206.933 514.338 206.917 514.382 206.901C513.282 206.352 512.265 205.623 511.509 204.648C511.553 204.632 511.597 204.616 511.597 204.616C511.581 204.572 511.521 204.543 511.505 204.499C516.3 202.699 529.65 203.229 533.489 207.58C533.565 207.652 533.658 207.769 533.75 207.885C534.128 208.097 534.566 208.338 534.899 208.566C536.999 211.852 533.976 212.205 532.972 215.622C532.033 218.666 534.616 220.675 532.789 223.342C531.286 225.392 528.797 225.7 527.363 228.074C526.582 229.36 526.596 230.905 526.015 231.918C523.442 232.957 522.751 232.159 519.271 229.477C516.551 227.369 511.438 225.833 508.522 224.146C509.395 226.129 510.417 227.557 513.329 229.095C513.124 229.219 514.981 230.743 514.849 230.791C514.788 230.763 512.452 231.215 512.408 231.232C509.545 230.376 506.067 226.193 504.134 224.047C498.698 217.928 495.461 213.307 488.021 209.369C481.003 205.628 459.069 193.225 452.599 188.383C451.218 187.887 449.836 187.391 448.699 186.605C445.413 184.453 443.894 180.156 440.523 178.185C434.493 174.683 424.789 177.425 417.646 176.08L418.544 168.399C418.516 168.459 418.471 168.476 418.443 168.536C418.471 168.476 418.499 168.415 418.527 168.355L418.499 168.415C418.808 167.753 419.148 167.178 419.361 166.8C421.749 162.927 425.422 162.987 429.601 162.513ZM409.178 175.219C411.847 171.294 413.84 166.614 416.895 162.648C417.123 162.315 417.384 162.07 417.612 161.736C416.29 163.869 415.165 166.131 414.092 168.674C412.262 172.843 407.657 182.427 411.652 186.521C411.64 186.626 411.672 186.714 411.677 186.863C407.298 184.459 397.362 181.633 388.739 181.579C388.679 181.551 388.663 181.507 388.618 181.523C396.949 181.734 405.551 180.495 409.178 175.219ZM403.423 163.564C403.367 163.684 403.355 163.789 403.283 163.865C403.146 163.765 403.158 163.66 403.423 163.564ZM321.029 148.467C320.789 148.905 320.504 149.359 320.115 149.801C319.57 150.501 318.773 151.742 317.967 152.686C317.446 153.727 316.833 154.651 316.336 154.933C312.881 156.844 311.912 148.844 310.717 149.68C309.903 150.327 307.234 151.102 308.295 148.663C308.275 148.471 308.266 148.174 308.39 147.828C308.514 147.483 309.115 146.663 309.789 145.767C309.829 145.602 309.913 145.422 309.953 145.257C310.172 144.076 311.059 143.353 310.115 143.097C307.921 144.898 305.724 144.499 304.444 144.417C303.637 144.811 303.051 144.575 301.571 142.164L301.659 142.132C301.643 142.087 301.643 142.087 301.643 142.087C301.643 142.087 301.643 142.087 301.627 142.043L301.611 141.999L301.683 141.923L301.755 141.846L301.739 141.802C302.634 141.376 304.831 139.173 305.368 138.177C305.592 137.695 305.556 138.008 305.555 137.458C306.077 136.967 305.555 137.458 306.033 136.984C306 136.895 305.94 136.867 305.908 136.779C306.908 136.914 307.947 136.885 309.076 136.823C306.296 135.787 303.389 134.947 300.886 133.71C300.912 135.151 301.612 136.246 302.756 136.779C302.934 137.264 303.067 137.766 303.156 138.284C303.172 138.328 303.144 138.388 303.16 138.432C302.394 139.212 300.508 139.8 299.573 140.392C299.453 140.336 297.12 143.538 295.952 140.613C295.199 138.687 293.634 135.356 293.241 133.049C293.032 132.475 292.794 131.961 292.649 131.564C292.8 130.058 300.859 128.017 302.016 125.294C302.729 123.683 300.873 123.26 301.992 121.801C303.21 120.206 304.839 118.911 306.122 117.493C302.498 115.514 299.373 117.505 295.717 118.589C293.137 119.331 288.771 124.776 286.477 123.012C282.073 119.717 284.073 110.534 287.024 107.106C287.762 106.936 288.485 106.722 289.223 106.553C297.498 104.283 301.364 97.4694 306.5 91.3931C304.185 96.2897 304.037 103.147 307.548 105.367C308.653 106.064 310.05 106.054 311.171 106.796C312.401 107.697 312.94 108.901 313.909 110.048C315.035 111.488 316.562 112.931 317.399 114.677L317.363 114.44C317.411 114.572 317.415 114.721 317.448 114.809C317.432 114.765 317.415 114.721 317.399 114.677L317.88 117.503C317.873 117.755 317.925 118.036 317.917 118.289C318.519 118.02 318.957 118.26 319.535 117.649C319.769 118.564 319.569 119.387 318.887 119.986C322.083 120.52 323.597 117.267 323.922 114.047C324.329 112.147 324.077 109.538 323.846 107.122C324.743 105.744 327.377 108.984 327.567 109.915C328.166 107.446 326.372 104.999 324.203 103.99C325.714 101.688 327.784 100.782 328.477 105.831C330.131 102.276 326.374 99.7959 323.734 101.06C324.714 98.4008 325.985 96.5365 328.917 97.7173C332.452 99.1784 330.784 104.889 333.302 105.621C333.548 105.881 333.777 106.098 334.006 106.315C334.776 108.835 337.798 118.486 339.298 120.54C340.236 122.699 343.426 127.737 344.379 129.39C344.802 130.136 341.98 120.762 342.535 121.459C344.189 124.757 347.091 127.5 345.914 130.581C339.56 135.101 335.243 140.678 329.899 146.73C329.077 147.631 328.255 148.531 327.433 149.431C327.352 148.661 327.255 147.846 327.129 147.091C329.543 144.109 331.622 140.899 332.851 137.55C335.696 129.858 330.564 122.377 331.43 114.608L331.469 113.343C331.968 111.01 332.049 108.629 331.585 106.398C331.311 108.799 329.724 117.882 324.905 116.739C325.312 117.991 326.866 118.275 328.351 118.233C328.303 121.802 329.393 126.156 330.031 129.275C329.995 132.739 329.578 136.943 326.459 137.031C326.459 137.031 323.454 135.377 324.058 130.454C323.835 128.335 320.812 138.692 320.529 126.54C315.535 126.562 312.401 128.256 307.708 128.418C308.371 128.727 307.708 128.418 308.371 128.727C308.717 128.851 310.986 129.723 311.705 129.911C313.716 130.077 315.975 128.453 317.12 129.535C319.15 131.396 317.399 137.837 321.823 141.324C324.789 143.694 322.957 146.213 321.029 148.467Z" fill="#181712"/>
<path d="M506.618 219.344C506.674 219.224 506.642 219.136 506.605 218.899C506.514 219.332 506.534 219.525 506.618 219.344Z" fill="#181712"/>
</svg>
