<svg width="96" height="96" viewBox="0 0 96 96" fill="none" xmlns="http://www.w3.org/2000/svg">
<path d="M72 81.9375H68.25C67.725 81.9375 67.3125 81.525 67.3125 81V19.6875H5.625V81C5.625 81.525 5.2125 81.9375 4.6875 81.9375H0.9375C0.4125 81.9375 0 81.525 0 81V15C0 14.475 0.4125 14.0625 0.9375 14.0625H72C72.525 14.0625 72.9375 14.475 72.9375 15V81C72.9375 81.525 72.525 81.9375 72 81.9375ZM69.1875 80.0625H71.0625V15.9375H1.875V80.0625H3.75V18.75C3.75 18.225 4.1625 17.8125 4.6875 17.8125H68.25C68.775 17.8125 69.1875 18.225 69.1875 18.75V80.0625Z" fill="#D4E4A3"/>
<path d="M4.6875 30.1875H12.5625V32.0625H4.6875V30.1875Z" fill="#D4E4A3"/>
<path d="M72 30.1875H79.875V32.0625H72V30.1875Z" fill="#D4E4A3"/>
<path d="M17.25 30.1875H68.25V32.0625H17.25V30.1875Z" fill="#D4E4A3"/>
<path d="M4.6875 42.75H19.125V44.625H4.6875V42.75Z" fill="#D4E4A3"/>
<path d="M72 42.75H86.4375V44.625H72V42.75Z" fill="#D4E4A3"/>
<path d="M23.4375 42.75H68.25V44.625H23.4375V42.75Z" fill="#D4E4A3"/>
<path d="M4.6875 55.125H22.6875V57H4.6875V55.125Z" fill="#D4E4A3"/>
<path d="M72 55.125H90V57H72V55.125Z" fill="#D4E4A3"/>
<path d="M26.8125 55.125H68.25V57H26.8125V55.125Z" fill="#D4E4A3"/>
<path d="M4.6875 67.6875H24V69.5625H4.6875V67.6875Z" fill="#D4E4A3"/>
<path d="M72 67.6875H91.3125V69.5625H72V67.6875Z" fill="#D4E4A3"/>
<path d="M27.75 67.6875H68.25V69.5625H27.75V67.6875Z" fill="#D4E4A3"/>
<path d="M4.6875 80.0625H95.0625V81.9375H4.6875V80.0625Z" fill="#D4E4A3"/>
<path d="M10.125 28.875H12V81H10.125V28.875Z" fill="#D4E4A3"/>
<path d="M16.6875 40.125H18.5625V81H16.6875V40.125Z" fill="#D4E4A3"/>
<path d="M77.4375 28.875H79.3125V81H77.4375V28.875Z" fill="#D4E4A3"/>
<path d="M84 40.125H85.875V81H84V40.125Z" fill="#D4E4A3"/>
<path d="M42.1875 80.9999H40.3125V66.1124C40.3125 48.3937 32.7938 31.3874 19.6875 19.4437L20.9437 18.0562C34.4437 30.3374 42.1687 47.8687 42.1687 66.1124V80.9999H42.1875Z" fill="#D4E4A3"/>
<path d="M55.6875 80.9999H53.8125V66.1124C53.8125 48.3937 46.2938 31.3874 33.1875 19.4437L34.4437 18.0562C47.9437 30.3374 55.6687 47.8687 55.6687 66.1124V80.9999H55.6875Z" fill="#D4E4A3"/>
<path d="M69.1875 80.9999H67.3125V66.1124C67.3125 48.3937 59.7938 31.3874 46.6875 19.4437L47.9437 18.0562C61.4437 30.3374 69.1687 47.8687 69.1687 66.1124V80.9999H69.1875Z" fill="#D4E4A3"/>
<path d="M67.5186 27.3376C65.3248 24.5063 62.8498 21.8438 60.2061 19.4251L61.4623 18.0376C64.1998 20.5313 66.7311 23.2688 68.9998 26.1751L67.5186 27.3376Z" fill="#D4E4A3"/>
<path d="M27.7502 81.9375H24.0002C23.4752 81.9375 23.0627 81.525 23.0627 81V69.075C23.0627 51.3937 16.2939 34.6687 4.0127 21.9562L5.3627 20.6437C11.6064 27.0937 16.4814 34.5937 19.8377 42.9187C23.2127 51.2625 24.9377 60.0562 24.9377 69.075V80.0625H26.8127V67.4062C26.8127 49.5187 19.5564 32.025 6.88145 19.4062L8.2127 18.075C14.7189 24.5625 19.8189 32.1749 23.3627 40.6687C26.9064 49.1812 28.6877 58.1812 28.6877 67.4062V81C28.6877 81.525 28.2752 81.9375 27.7502 81.9375Z" fill="#D4E4A3"/>
<path d="M95.0626 81.9374H91.3126C90.7876 81.9374 90.3751 81.5249 90.3751 80.9999V69.0749C90.3751 51.4312 83.6251 34.7249 71.4001 22.0312L72.7501 20.7374C78.9751 27.1874 83.8313 34.6687 87.1876 42.9749C90.5626 51.2999 92.2688 60.0937 92.2688 69.0749V80.0624H94.1438V67.4062C94.1438 48.3749 86.0813 30.1124 72.0001 17.2874L71.3813 16.7249L72.6376 15.3374L73.2563 15.8999C87.7126 29.0812 96.0001 47.8499 96.0001 67.4062V80.9999C96.0001 81.5249 95.5876 81.9374 95.0626 81.9374Z" fill="#D4E4A3"/>
</svg>
