<svg width="40" height="40" viewBox="0 0 40 40" fill="none" xmlns="http://www.w3.org/2000/svg">
<path fill-rule="evenodd" clip-rule="evenodd" d="M6.66667 8.33325C5.7462 8.33325 5 9.07945 5 9.99992C5 10.9204 5.7462 11.6666 6.66667 11.6666H33.3333C34.2538 11.6666 35 10.9204 35 9.99992C35 9.07945 34.2538 8.33325 33.3333 8.33325H6.66667ZM5 19.9999C5 19.0794 5.7462 18.3333 6.66667 18.3333H33.3333C34.2538 18.3333 35 19.0794 35 19.9999C35 20.9204 34.2538 21.6666 33.3333 21.6666H6.66667C5.7462 21.6666 5 20.9204 5 19.9999ZM5 29.9999C5 29.0794 5.7462 28.3333 6.66667 28.3333H33.3333C34.2538 28.3333 35 29.0794 35 29.9999C35 30.9204 34.2538 31.6666 33.3333 31.6666H6.66667C5.7462 31.6666 5 30.9204 5 29.9999Z" fill="white"/>
</svg>
