<svg width="200" height="200" viewBox="0 0 200 200" fill="none" xmlns="http://www.w3.org/2000/svg">
<path d="M66.8783 138.845C65.2594 138.953 61.4736 139.536 62.3192 139.256C62.2681 139.222 62.301 139.121 62.4029 139.082C62.4399 139.067 62.4748 139.064 62.4748 139.064L62.4857 139.066C62.5099 139.05 62.4357 139.104 62.5387 139.031L63.0523 138.625C65.5444 136.601 67.9219 133.585 67.8527 130.017C67.8251 128.344 67.276 126.675 66.1754 125.457C65.0681 124.217 63.5887 123.678 62.3731 123.557C59.8527 123.328 58.1653 124.368 57.2401 125.056C56.2954 125.801 55.9531 126.388 56.0991 126.618C56.2539 126.863 56.9054 126.727 57.9368 126.487C58.9574 126.265 60.4207 125.947 61.8513 126.403C63.3064 126.833 64.1943 128.021 64.0833 129.961C64.0103 131.758 62.5613 133.756 60.4524 135.466L60.0844 135.76C59.426 136.213 58.3327 136.893 57.5217 137.628C56.5275 138.508 56.0201 139.352 55.8863 140.098C55.8024 140.48 55.7893 140.853 55.8972 141.298C56.0207 141.725 56.2641 142.229 56.5182 142.467C57.0802 142.923 57.5942 143.298 58.6361 143.36C60.6277 143.474 63.706 142.703 64.3272 142.523C65.4506 142.22 66.4968 141.937 67.4528 141.68C71.3526 140.498 73.5144 139.152 73.3378 138.636C73.1556 138.083 70.7141 138.434 66.8783 138.845Z" fill="#D4E4A3"/>
<path d="M112.702 122.461C112.838 119.931 112.696 116.697 112.526 114.165C112.478 113.125 112.306 111.767 112.307 110.851C112.265 108.321 112.135 105.405 111.561 102.954C111.494 102.627 111.395 102.305 111.175 101.614C110.954 101.068 110.656 100.591 110.366 100.141C109.739 99.3106 108.657 98.9058 107.718 99.0778C107.019 99.2006 106.345 99.5994 105.805 99.9288C105.218 100.273 105.067 100.397 104.695 100.644C103.133 101.708 101.547 102.984 100.251 104.364C98.872 105.845 98.3186 106.933 98.597 107.231C98.887 107.544 99.9496 107.047 101.633 106.151C105.143 104.286 104.242 104.755 106.455 103.631C106.722 103.5 107.23 103.241 107.323 103.214C107.458 103.165 107.493 103.169 107.518 103.183C107.564 103.19 107.591 103.253 107.583 103.298L107.572 103.353C107.53 103.245 107.608 103.52 107.653 103.808C107.849 104.868 107.97 106.106 108.07 107.377C108.149 108.624 108.228 109.841 108.303 111.018C108.401 112.503 108.62 113.436 108.781 114.593C109.184 117.077 109.779 120.287 110.479 122.707C104.905 123.432 100.603 124.798 100.724 125.862C100.852 126.985 105.835 127.337 111.853 126.65C117.871 125.963 122.646 124.496 122.518 123.373C122.399 122.335 118.108 121.967 112.702 122.461Z" fill="#D4E4A3"/>
<path d="M166.368 120.796C165.869 120.629 165.456 120.551 165.04 120.467C165.338 120.19 165.633 119.895 165.896 119.538C166.504 118.712 167.095 117.469 166.894 115.959C166.324 112.77 163.35 111.885 161.737 111.913C160.006 111.922 158.79 112.293 157.693 112.696C155.561 113.548 154.596 114.656 154.831 115.145C155.073 115.671 156.394 115.559 158.298 115.525C159.213 115.518 160.449 115.503 161.443 115.67C162.426 115.798 162.898 116.414 162.843 116.526C162.97 116.651 162.456 117.731 161.657 118.316C160.823 119.015 159.918 119.519 159.104 119.888C157.474 120.632 156.189 120.876 156.106 121.455C156.005 121.972 157.309 122.845 159.736 122.711C160.679 122.652 161.778 122.399 162.899 121.882C163.458 122.28 164.209 122.747 164.981 123.335C166.662 124.663 167.175 126.441 165.28 128.381C163.504 130.08 160.021 130.579 157.798 131.04C152.854 132.175 152.657 133.486 158.038 133.923C159.299 134.008 160.76 134.151 162.492 133.861C164.201 133.587 166.302 133.03 168.126 131.319C169.848 129.656 170.828 127.116 170.148 124.747C169.42 122.395 167.664 121.322 166.368 120.796Z" fill="#D4E4A3"/>
<path d="M178.302 103.934C177.46 101.345 175.595 98.6772 172.838 97.6403C172.524 97.5233 172.216 97.4472 171.911 97.3813C171.705 96.3362 171.021 94.6653 169.575 92.7312C168.4 91.1896 166.72 89.5021 164.404 88.157C163.505 87.6425 162.466 87.2202 161.37 86.8797C162.077 86.2221 162.624 85.5412 162.945 84.915C163.679 83.495 163.547 82.5738 163.308 82.5208C163.011 82.4329 162.605 83.1118 161.673 83.9571C160.769 84.7929 159.208 85.7664 157.089 86.271C156.651 86.2788 156.22 86.2527 155.772 86.308C155.422 86.3529 155.106 86.4587 154.768 86.5289C154.366 86.5326 153.963 86.5498 153.562 86.4891C152.968 86.4358 152.437 86.2365 151.802 85.9709C151.156 85.7749 150.606 85.4249 150.053 85.0717C147.894 83.6559 146.734 80.7805 147.809 77.9521C148.834 75.1816 151.48 73.389 154.242 73.2188C156.901 72.7532 159.079 74.1353 160.522 75.7442C161.961 77.3711 162.563 79.1381 162.804 80.3799C163.04 81.6343 163.008 82.4318 163.308 82.5208C163.538 82.6023 164.133 81.9251 164.396 80.375C164.643 78.8506 164.406 76.4397 162.844 74.0189C162.069 72.8204 160.963 71.6223 159.439 70.7159C157.985 69.8111 155.818 69.24 153.965 69.4594C150.146 69.4128 145.544 72.0556 143.958 76.573C143.159 78.7817 143.115 81.2521 143.933 83.3924C144.725 85.5518 146.328 87.2137 148.023 88.2478C148.45 88.4901 148.874 88.7128 149.3 88.9044C148.785 89.2668 148.293 89.6442 147.849 90.0351C145.923 91.7814 144.492 93.6043 143.685 95.5779C143.107 93.1053 142.389 90.5704 141.389 87.9762C140.808 86.6379 140.237 85.2781 139.188 83.9221C138.908 83.5617 138.57 83.201 138.186 82.856C138.148 82.6116 138.138 82.4029 138.076 82.138C137.622 79.6794 136.551 76.1092 134.222 72.1332C131.902 68.2435 128.322 63.9208 123.253 60.4599C121.139 59.0331 118.775 57.7885 116.213 56.7829C116.665 56.2516 117.061 55.7245 117.364 55.2208C118.851 52.7765 118.844 51.1304 118.632 51.0941C118.308 50.9895 117.778 52.3933 116.093 54.2629C114.44 56.1267 111.37 58.3318 107.053 59.5249C104.913 60.1002 102.455 60.4732 99.9489 60.1824C98.6857 60.1061 97.4872 59.7147 96.1878 59.2051C95.5595 58.9458 94.8651 58.787 94.2644 58.4484C93.6724 58.1004 93.0727 57.7469 92.4649 57.3895C90.1718 55.8198 88.1877 53.6134 87.2125 50.8099C86.2022 48.0316 86.2862 44.7571 87.3678 41.7674C89.5737 35.7 95.4986 31.9009 101.237 31.674C106.951 30.8132 111.646 34.0112 114.376 37.4047C117.173 40.863 118.154 44.5202 118.391 47.0142C118.615 49.5372 118.299 51.0018 118.632 51.0941C118.829 51.1723 119.708 49.828 119.984 47.0085C120.234 44.2334 119.618 39.9315 116.698 35.68C115.252 33.5756 113.232 31.4972 110.534 29.9597C107.916 28.4285 104.305 27.4862 100.96 27.9153C94.1648 27.9247 86.2837 32.574 83.5165 40.3883C82.1313 44.2171 82.0484 48.4762 83.4354 52.1477C84.7784 55.8531 87.498 58.7208 90.4354 60.5663C90.5375 60.6215 90.6365 60.6743 90.7379 60.7297C89.1996 61.8161 87.7427 62.9615 86.4571 64.1706C82.0032 68.3722 79.1279 73.2594 77.6304 77.5849C76.1084 81.9421 75.8761 85.7196 76.0482 88.2393C76.0756 88.5841 76.1193 88.8496 76.1571 89.1496C76.0531 89.2812 75.9311 89.3973 75.8371 89.5362C74.7749 91.0487 74.3725 92.7739 74.2264 94.3079C74.0278 97.4546 74.4541 99.9178 74.6346 102.511C74.8237 104.562 75.005 106.526 75.1849 108.478C75.1633 108.474 75.1498 108.467 75.1282 108.463C74.8888 108.415 74.6059 108.405 74.3467 108.374C74.1111 107.322 73.4331 105.72 72.0471 103.866C70.8723 102.324 69.1919 100.637 66.8758 99.2918C65.9775 98.7773 64.9388 98.3549 63.8427 98.0145C64.5488 97.3569 65.0958 96.676 65.4167 96.0498C66.1506 94.6298 66.0193 93.7086 65.7801 93.6556C65.4827 93.5677 65.077 94.2466 64.1451 95.0919C63.2409 95.9277 61.6799 96.9019 59.5623 97.4064C59.1236 97.4135 58.6916 97.3875 58.2436 97.4428C57.8937 97.4877 57.5776 97.5935 57.2404 97.6637C56.8379 97.6674 56.4349 97.6846 56.0342 97.624C55.4406 97.5706 54.9093 97.3713 54.2739 97.1057C53.6281 96.9097 53.0782 96.5597 52.525 96.2065C50.3664 94.7906 49.2062 91.9153 50.2815 89.0869C51.3064 86.3164 53.9525 84.5238 56.714 84.3536C59.3735 83.888 61.5508 85.2701 62.9947 86.8789C64.4335 88.5059 65.0354 90.2729 65.2758 91.5148C65.512 92.7691 65.4797 93.5666 65.7801 93.6556C66.0099 93.7372 66.6046 93.0599 66.8679 91.5098C67.1151 89.9854 66.8792 87.5744 65.3166 85.1536C64.5409 83.9552 63.4356 82.7571 61.9106 81.8507C60.457 80.946 58.2905 80.3748 56.4369 80.5942C52.6187 80.5476 48.0164 83.1905 46.4302 87.7078C45.6307 89.9165 45.5873 92.3869 46.4051 94.5272C47.1975 96.6866 48.8003 98.3484 50.4955 99.3826C50.9219 99.6249 51.346 99.8477 51.7722 100.039C51.2572 100.402 50.7648 100.779 50.3206 101.17C48.3706 102.939 46.9224 104.784 46.1212 106.787C45.3588 108.771 45.4276 110.392 45.5048 111.426C45.5219 111.594 45.5458 111.729 45.5678 111.872C45.0879 112.087 44.6068 112.333 44.128 112.668C42.7123 113.613 41.5968 115.338 41.2907 117C40.9875 118.761 41.0589 119.831 41.0362 121.206C41.0473 122.506 41.1128 123.777 41.2141 125.016C41.5829 129.45 42.797 136.989 44.428 143.671C45.8107 149.316 47.1156 152.984 47.7961 153.823C42.3846 154.965 48.2332 154.737 53.778 154.367C58.9839 154.019 66.5026 153.382 75.7833 152.509C94.3772 150.86 119.897 147.779 148.228 145.337C162.625 143.959 167.848 143.218 173.883 142.405C175.5 142.119 177.565 142.038 179.525 140.264C180.484 139.34 180.931 138.035 181.068 137.051C181.22 136.038 181.209 135.17 181.203 134.352C181.192 132.778 181.18 131.222 181.168 129.685C181.162 123.464 180.483 117.435 179.882 112.083C179.585 109.322 179.247 106.566 178.302 103.934ZM146.242 96.9343C147.951 94.5218 151.785 90.9423 156.281 90.3671C160.843 89.7898 164.979 92.5198 167.447 94.6902C168.543 95.6519 169.389 96.5309 170.054 97.2143C169.633 97.2216 169.223 97.2416 168.846 97.274C166.067 97.5913 163.795 97.8257 159.681 98.4782C155.221 99.1856 149.249 100.346 144.904 101.641C144.827 101.212 144.751 100.786 144.671 100.353C145.044 99.4189 145.439 98.1446 146.242 96.9343ZM86.1831 93.7979C85.9664 93.8558 85.7332 93.9106 85.5222 93.9692C81.6978 95.0595 79.1691 96.6274 77.9487 97.7092C77.9036 96.6486 77.8881 95.6121 77.9773 94.6777C78.2124 92.3377 79.2705 90.7658 81.401 90.0534C82.6344 89.6217 84.167 89.4777 85.8206 89.3389C85.5365 89.9419 85.3713 90.7095 85.437 91.5875C85.506 92.4883 85.796 93.2392 86.1831 93.7979ZM88.8781 89.0159C89.3106 88.9578 88.6399 89.0762 95.5662 88.1199C95.573 88.3332 95.5738 88.5445 95.6036 88.7679C95.7636 89.9844 96.2303 90.9561 96.7783 91.6289C94.1286 92.0568 91.656 92.518 89.3956 93.0184C89.5069 92.4753 89.5534 91.8832 89.5162 91.2795C89.4411 90.4428 89.2298 89.6407 88.8781 89.0159ZM99.5376 87.589C101.473 87.3364 103.431 87.1092 105.407 86.9076C105.16 88.0372 105.245 89.2602 105.685 90.3753C103.588 90.6344 101.56 90.9069 99.6054 91.1934C99.7961 90.3778 99.7941 89.3362 99.6597 88.2323C99.6279 88.0098 99.5771 87.805 99.5376 87.589ZM108.971 86.5401C111.534 86.2708 114.083 86.0037 116.589 85.7408C116.594 85.9445 116.568 86.1335 116.592 86.3449C116.734 87.5909 117.207 88.5998 117.794 89.2211C115.09 89.3987 112.229 89.6458 109.28 89.9593C109.481 88.7409 109.391 87.7044 108.971 86.5401ZM120.531 85.3274C127.254 84.6226 127.115 84.6348 127.984 84.5645C127.45 85.1277 127.105 86.0504 127.266 87.164C127.365 87.8466 127.648 88.3806 127.986 88.8181C125.582 88.8454 122.918 88.9312 120.049 89.0883C120.538 88.3605 120.808 87.2061 120.656 85.8808C120.634 85.682 120.569 85.5161 120.531 85.3274ZM130.171 84.4621C131.878 84.4445 133.704 84.5948 135.202 85.4099C136.409 86.1898 137.157 87.791 137.766 89.1266C136.094 88.9512 133.761 88.8351 130.895 88.81C131.263 88.2046 131.43 87.405 131.315 86.5791C131.184 85.6968 130.755 84.9301 130.171 84.4621ZM88.9949 66.9393C90.7969 65.3614 92.8402 63.8729 95.0778 62.6242C96.5588 63.1335 98.1498 63.5442 99.6848 63.5641C102.774 63.746 105.549 63.1214 107.933 62.28C109.798 61.6057 111.414 60.7493 112.786 59.8149C112.994 59.8715 113.215 59.9054 113.416 59.9677C120.909 62.3389 127.254 67.4141 131.805 73.7081C133.934 76.7307 135.238 79.4775 136.14 81.6342C135.662 81.4261 135.193 81.1838 134.701 81.0449C131.412 80.1659 128.278 80.5314 125.395 80.7887C119.509 81.379 113.416 81.9894 107.175 82.6153C100.923 83.1565 94.8749 84.1499 89.0175 84.9617C86.3001 85.4811 83.3721 85.2674 80.1 86.37C79.292 86.6538 78.4788 87.07 77.7383 87.6054C78.9508 79.3532 82.9295 72.324 88.9949 66.9393ZM48.714 108.069C50.4229 105.657 54.2575 102.077 58.7528 101.502C63.3156 100.925 67.4521 103.655 69.9188 105.825C70.9771 106.753 71.8021 107.606 72.4579 108.279C68.7489 108.308 58.9341 109.542 55.241 110.025C52.9793 110.359 50.9382 110.528 48.263 111.023C47.9264 111.097 47.5787 111.18 47.2254 111.276C47.5763 110.364 47.9687 109.192 48.714 108.069ZM48.2484 153.732C48.4931 152.697 48.018 148.85 47.2717 143.14C46.8647 139.835 46.3808 135.899 45.8432 131.529C45.4501 128.037 45.096 124.61 45.1063 121.194C45.1148 120.084 45.1401 118.609 45.2916 117.85C45.6143 114.63 51.6495 114.691 55.8813 113.739C60.2215 112.965 64.1251 112.211 67.399 111.518C70.6927 110.821 73.3016 110.14 75.0222 110.052C75.1374 110.043 75.2211 110.048 75.3297 110.042C75.7345 114.84 76.2425 119.302 76.9206 123.348C78.1938 131.483 79.6327 137.99 80.7806 142.442C81.6074 145.642 82.2779 147.764 82.6912 148.694C80.1739 149.023 77.7592 149.338 75.4552 149.635C69.1675 150.479 54.4038 152.49 48.2484 153.732ZM83.1583 148.633C83.1073 146.268 81.3695 136.963 79.7882 122.965C79.2959 118.918 78.9567 114.467 78.7016 109.678C77.8042 95.7349 78.0457 99.552 78.0021 98.8499C79.3222 98.4991 82.0703 97.4091 86.1764 96.7868C91.7747 95.9638 99.882 95.1523 108.659 94.1361C122.124 92.634 133.67 91.6109 138.369 90.6969C139.998 95.0522 140.988 99.6214 141.857 103.858C144.656 118.149 146.37 134.746 147.98 141.25C147.932 141.255 147.887 141.259 147.84 141.264C123.242 143.385 100.745 146.334 83.1583 148.633ZM176.504 112.383C176.975 117.933 177.488 123.574 177.399 129.688C177.386 131.231 177.374 132.794 177.361 134.375C177.385 135.929 177.206 137.22 176.781 137.483C176.33 137.96 174.928 138.311 173.347 138.479C166.662 139.318 162.841 139.821 148.819 141.167C148.785 139.961 148.69 138.219 148.564 135.977C148.285 131.405 147.842 124.785 146.973 116.611C146.502 112.208 145.838 106.926 145.064 102.528C146.411 102.374 148.246 102.131 150.578 101.829C158.339 100.841 160.302 100.717 165.847 100.235C167.888 100.149 170.335 99.6983 171.774 100.33C173.424 101.051 174.648 102.729 175.316 104.956C176.03 107.148 176.294 109.7 176.504 112.383Z" fill="#D4E4A3"/>
</svg>
