<svg width="61" height="64" viewBox="0 0 61 64" fill="none" xmlns="http://www.w3.org/2000/svg">
<g clip-path="url(#clip0_133_34)">
<path d="M9.93729 18.7591C9.29521 20.3001 9.40935 22.2457 10.1764 23.9935C12.0381 27.7859 16.582 29.9737 20.1719 31.104L20.4335 31.1832C22.6209 31.8671 24.518 32.6389 24.4431 34.4834C24.4013 35.1297 23.9527 35.7408 23.4229 35.8221C23.1327 35.91 22.8491 35.7583 22.6381 35.5846C22.5216 35.4615 22.4271 35.4109 22.3831 35.2658C22.5788 35.1273 22.636 34.7932 22.4975 34.5975C22.337 34.3293 21.9809 34.1996 21.7127 34.36L21.4445 34.5205C21.2268 34.5864 21.1477 34.848 21.1191 35.0151C21.1278 35.5669 21.3762 36.1253 21.8708 36.4507C22.3874 36.8487 23.0051 37.0576 23.6075 36.9543L23.8251 36.8884C24.9859 36.5367 25.9116 35.1474 25.5226 33.6019C27.2394 34.8244 29.086 35.6907 31.1635 36.0119C31.5217 36.933 31.858 37.7816 32.1943 38.6303C32.2162 38.7028 31.638 39.67 31.5368 39.8591C31.0838 41.5013 32.1477 42.9215 33.5635 42.8887C33.9437 43.8824 34.1789 44.9201 34.2469 45.9291L31.8528 46.6544C31.3449 46.8082 30.9536 47.0852 30.7007 47.5578L28.5966 50.8091C28.4735 50.9256 28.4668 51.1652 28.5108 51.3103L30.2031 56.8966C30.3129 57.2593 30.546 57.5056 30.8515 57.7298C31.6384 58.7587 33.2565 58.3478 34.2942 58.1126C52.3017 52.9744 51.308 53.3547 51.6774 53.0052C51.9236 52.7721 51.9588 52.3654 51.7984 52.0972C51.4269 51.6553 50.7959 51.9257 49.5406 52.2267C49.7429 51.8486 49.8506 51.4199 49.7188 50.9846L48.0485 45.4709C48.0045 45.3258 47.888 45.2027 47.699 45.1015L43.7376 43.5293C43.287 43.349 42.7352 43.3578 42.2999 43.4896L39.3979 44.3687C38.9451 43.397 38.4704 42.3527 38.0681 41.2865C39.5236 39.8159 38.8797 37.9516 36.8022 37.6304C36.3187 36.0343 36.0836 34.9967 35.6374 33.7853C36.2816 33.0357 36.9038 32.2136 37.359 31.3628C37.915 32.9369 39.3615 33.5284 40.7399 33.1109C41.2478 32.957 41.7117 32.6581 41.9865 32.258C43.6003 30.2642 41.2109 27.3445 40.5315 28.5008C40.3798 28.7844 40.4677 29.0746 40.7007 29.3208C41.3844 29.7474 41.5909 30.9521 41.0698 31.5852C40.8456 31.8907 40.4323 32.0952 39.953 32.0819C38.7769 32.1214 38.2515 31.1716 38.256 30.1406C38.2473 29.5888 38.4056 29.0656 38.7376 28.3314C40.8375 23.4973 46.3251 20.1716 46.1563 14.1238C46.1388 13.0202 46.0181 11.3142 45.1146 10.1622C43.3144 7.61846 38.5944 7.46414 37.6818 10.9881C37.3609 10.4517 37.1212 10.445 37.0487 10.467C30.3061 11.4799 22.7435 12.6619 16.858 16.5042C16.5898 16.6646 16.5393 16.7592 16.4887 16.8537C14.2179 14.8485 10.9905 16.2223 9.93729 18.7591ZM31.8365 56.7978C31.6188 56.8637 31.4298 56.7626 31.3638 56.5449L29.9793 51.9743C35.8931 50.5789 41.5519 48.8646 47.246 46.7437L48.6305 51.3143C48.6965 51.532 48.5953 51.721 48.3777 51.7869L31.8365 56.7978ZM43.2319 44.4746L46.3865 45.7368C40.765 47.8357 35.2513 49.506 29.9178 50.7256L31.646 48.0635C31.9714 47.5689 32.4726 47.6547 34.3369 47.0107C34.3589 47.0833 34.3523 47.3229 34.3743 47.3955C33.9829 47.6724 33.7873 47.8109 33.8532 48.0286C33.9631 48.3913 35.7416 48.2486 37.7004 47.6552C40.8201 46.7101 42.414 45.4352 39.888 45.7252C39.866 45.6526 39.7276 45.457 39.7056 45.3844C39.7781 45.3624 42.6142 44.2657 43.2319 44.4746ZM36.9338 40.6796C36.8107 40.7961 36.7096 40.9851 36.7755 41.2028C36.8128 41.5875 38.6679 45.6196 38.7778 45.9823L35.7307 46.9053C35.6539 45.3445 35.0717 42.115 34.7947 41.7236C34.7947 41.7236 34.6782 41.6005 34.6056 41.6225C34.4166 41.5214 33.2404 41.5608 33.0207 40.8353C32.8009 40.1098 33.7506 39.5845 33.9024 39.3009C34.0541 39.0173 34.0101 38.8722 32.5771 35.1876C33.252 35.0623 33.9555 34.77 34.5645 34.4271L35.7733 38.4173C35.9118 38.613 36.0788 38.6416 36.1734 38.6922C37.6111 38.7319 38.0639 39.7036 36.9338 40.6796ZM40.3855 14.6838C38.6334 13.8681 38.0379 11.1178 39.5593 9.86488C40.8125 8.77239 43.2175 9.39036 44.1649 10.6875C44.8573 11.6658 44.9627 13.0596 44.9582 14.0907C45.0721 18.6502 41.638 21.433 39.0853 25.2954C39.8814 21.6483 39.6486 18.7882 38.9345 15.1234C39.2401 15.3477 39.5676 15.6445 39.9237 15.7742C40.2073 15.9259 40.57 15.816 40.7218 15.5325C40.757 15.1258 40.6691 14.8356 40.3855 14.6838ZM36.8485 11.6365C37.2068 12.5577 37.8902 15.5982 38.0374 16.3456C39.0328 21.9846 38.0235 24.6666 37.2559 28.1466C36.8469 29.9338 36.0597 31.5188 34.8724 32.8289C32.6915 34.5193 31.2164 34.0949 30.9262 34.1828C26.7999 33.3734 23.6191 30.4558 21.4386 26.9184C19.6515 23.8954 18.6406 20.5582 17.8187 17.3221C23.3853 13.7348 30.4907 12.6121 36.8485 11.6365ZM16.4424 18.5311L16.9039 20.0546C16.8907 20.5338 16.7829 20.9625 16.5081 21.3626C16.1321 21.9517 17.0488 22.6245 17.4753 21.9409C18.5874 25.0891 20.0403 28.0549 22.1747 30.6558C20.2995 29.9565 13.4627 28.3049 11.1262 23.4682C10.447 22.0106 10.3702 20.4497 10.8606 19.1923C11.9798 16.8731 15.0708 16.0951 16.4424 18.5311Z" fill="#D4E4A3"/>
<path d="M3.1303 19.6403L5.37483 19.9901C5.70898 20.0472 5.95522 19.8142 6.01241 19.4801C6.0696 19.1459 5.83659 18.8997 5.50244 18.8425L3.25791 18.4928C2.92376 18.4356 2.67752 18.6686 2.62033 19.0027C2.54116 19.2643 2.79615 19.5831 3.1303 19.6403Z" fill="#D4E4A3"/>
<path d="M5.55086 17.9518C5.76189 18.1255 6.14661 18.0882 6.32031 17.8771C6.494 17.6661 6.45666 17.2814 6.24563 17.1077L5.00143 16.1381C4.7904 15.9644 4.40567 16.0017 4.23198 16.2128C4.05829 16.4238 4.09563 16.8085 4.30666 16.9822L5.55086 17.9518Z" fill="#D4E4A3"/>
<path d="M7.59321 16.0667C7.86143 15.9063 7.99117 15.5502 7.83071 15.2819L7.12294 13.9914C6.96248 13.7232 6.60636 13.5935 6.33814 13.7539C6.06992 13.9144 5.94018 14.2705 6.10064 14.5387L6.80841 15.8292C6.96886 16.0975 7.30302 16.1547 7.59321 16.0667Z" fill="#D4E4A3"/>
<path d="M25.6855 26.8214C28.8512 26.8129 31.2454 26.0876 33.855 24.505C34.0507 24.3665 34.1518 24.1775 34.0859 23.9598C33.8113 21.746 33.4289 19.9609 32.7937 18.6484C32.7058 18.3582 32.3497 18.2285 32.0595 18.3164L31.6967 18.4263C28.1858 19.6482 26.7568 20.1603 23.7449 20.6767C23.4547 20.7646 23.281 20.9756 23.2744 21.2153C23.1775 22.9872 23.8435 24.924 25.1623 26.6631C25.3294 26.6917 25.5185 26.7928 25.6855 26.8214ZM24.5099 21.6331C27.2095 21.1321 28.7111 20.598 32.0044 19.4419C32.4066 20.5082 32.7516 21.9086 32.9449 23.5926C30.7486 24.9708 28.6953 25.5136 26.0088 25.5354C25.0328 24.4053 24.5207 22.9763 24.5099 21.6331Z" fill="#D4E4A3"/>
</g>
<defs>
<clipPath id="clip0_133_34">
<rect width="47.2516" height="51.5473" fill="white" transform="translate(0.699463 14.4893) rotate(-16.8532)"/>
</clipPath>
</defs>
</svg>
