<svg width="57" height="57" viewBox="0 0 57 57" fill="none" xmlns="http://www.w3.org/2000/svg">
<path d="M38.7221 44.0015C39.0196 44.1186 39.3552 43.9736 39.4732 43.6766C39.7933 42.8691 40.0618 42.0316 40.272 41.188C40.3489 40.8779 40.1602 40.5639 39.8501 40.4866C39.5412 40.4101 39.2263 40.5983 39.1487 40.9085C38.9513 41.7026 38.6983 42.4905 38.3972 43.2505C38.2795 43.5474 38.4248 43.8838 38.7221 44.0015Z" fill="#D4E4A3"/>
<path d="M47.8637 25.8123C48.1901 26.2599 48.3928 26.7875 48.4505 27.3376C48.483 27.6448 48.7548 27.8841 49.0866 27.8526C49.4042 27.8191 49.6347 27.5345 49.6016 27.2165C49.5224 26.4641 49.2449 25.7429 48.7993 25.131C48.6109 24.8727 48.2487 24.8155 47.9908 25.0039C47.7326 25.1923 47.6757 25.554 47.8637 25.8123Z" fill="#D4E4A3"/>
<path d="M28.1959 17.6644L30.2006 17.2179C30.5127 17.1485 30.7091 16.8391 30.6397 16.5274C30.5702 16.2152 30.2598 16.0196 29.9492 16.0883L27.9444 16.5348C27.6323 16.6042 27.4359 16.9135 27.5053 17.2253C27.5751 17.5385 27.8853 17.7333 28.1959 17.6644Z" fill="#D4E4A3"/>
<path d="M34.1183 25.4874L35.4065 23.8127C35.6016 23.5592 35.554 23.1961 35.3009 23.0013C35.0473 22.8058 34.6839 22.8538 34.4895 23.1069L33.2013 24.7816C33.0062 25.0351 33.0538 25.3982 33.3069 25.593C33.5619 25.7895 33.9253 25.7384 34.1183 25.4874Z" fill="#D4E4A3"/>
<path d="M11.3138 34.0489C11.4978 34.042 11.676 33.947 11.7816 33.7795C12.1223 33.2393 12.3209 32.617 12.3557 31.9798C12.3734 31.6606 12.1291 31.3879 11.8099 31.3705C11.4968 31.3457 11.218 31.5971 11.2006 31.9163C11.1761 32.3575 11.039 32.7882 10.8031 33.162C10.5526 33.5586 10.8552 34.0662 11.3138 34.0489Z" fill="#D4E4A3"/>
<path d="M36.1601 8.99635C25.8078 5.40458 14.8093 9.80548 9.50904 18.6269C8.46474 20.156 6.84477 23.5798 6.34599 25.6509C3.45132 37.6704 10.0541 48.9642 20.8865 52.7239C33.262 57.0193 46.4164 49.7769 49.9812 37.7699C54.1802 25.9542 47.8764 13.0629 36.1601 8.99635ZM49.9801 32.7549C49.4315 32.2445 49.0062 31.9347 48.4519 31.6055C48.4693 28.9296 47.6751 26.1937 46.8767 23.5701C47.2984 22.2212 47.4045 22.3543 47.7735 20.5445C49.6648 24.2442 50.4835 28.4844 49.9801 32.7549ZM25.8228 24.6937L33.691 27.8483L35.4338 36.0757C35.4234 36.127 35.4371 36.1787 35.4406 36.2307C35.1261 36.4278 34.8811 36.8041 34.765 36.923C31.5267 40.2713 30.5555 40.4711 28.5984 41.9965C28.2254 41.666 25.5036 41.3597 20.1439 39.0054C18.4079 28.9599 18.7124 30.4619 18.6303 30.2231C20.5177 28.0996 22.6258 26.1613 24.907 24.467C24.9962 24.4006 25.0512 24.3102 25.0896 24.2138C25.3595 24.3868 25.6812 24.6361 25.8228 24.6937ZM25.4845 23.1003L25.6265 16.3085L33.5839 14.6319L38.4711 21.3046L33.9505 26.7058C25.6238 23.3118 26.5887 23.8462 26.0212 23.4468C25.8527 23.328 25.6812 23.2067 25.4845 23.1003ZM35.5968 37.7277C35.7205 37.5994 35.8738 37.3852 35.9945 37.2608C38.1563 37.8479 40.3771 38.2584 42.1111 39.2383C41.2566 41.2215 41.772 41.8141 39.7647 45.8678C39.7309 45.9034 39.6335 45.967 39.3661 46.0747C36.9327 47.0568 34.3416 48.0071 31.727 47.9346C31.4929 47.6446 29.5784 42.9329 29.5085 42.7693C31.2624 41.3953 32.3092 41.1271 35.5968 37.7277ZM36.6153 36.2465C36.6448 36.0452 36.7036 36.5547 34.7988 27.4953L39.4861 21.895C41.5863 22.2591 43.5814 22.9921 45.4151 24.0843C45.5146 24.1435 45.6245 24.1695 45.7325 24.1655C45.769 24.1641 45.801 24.1435 45.8365 24.1353C46.5621 26.5975 47.3372 29.1181 47.2863 31.7474C46.9253 32.0652 45.9832 34.4237 42.8222 38.3331C40.5263 36.9728 37.3106 36.4906 36.6153 36.2465ZM46.9744 19.1083C46.6791 19.846 46.6052 20.6031 46.4288 21.2669C46.3395 21.6054 46.2462 21.8609 45.8481 23.0052C43.9002 21.8701 41.7884 21.0999 39.5625 20.7289C39.5362 20.7246 39.5117 20.7324 39.4857 20.7317L34.6571 14.1383C35.4139 13.0788 35.7846 11.4496 36.0006 10.1721C40.7444 11.8768 44.5234 15.1009 46.9744 19.1083ZM19.4781 11.0423C24.3071 8.70488 29.7248 8.26282 34.8557 9.79206C34.841 9.872 34.8369 9.95348 34.8538 10.0328C34.6793 11.0443 34.3464 12.5209 33.7823 13.3737C33.6826 13.3827 33.5846 13.4104 33.4978 13.4674L25.355 15.1832C25.2975 15.078 25.2158 14.9848 25.0985 14.9307C23.0678 13.9958 20.9128 13.4383 18.6917 13.241C18.9462 11.8497 19.4465 11.3578 19.4781 11.0423ZM17.8453 11.9257C17.681 12.3999 17.5643 12.8898 17.5089 13.383C16.7997 13.8624 15.0694 14.8089 12.685 17.0082C12.1375 17.5132 11.5865 18.0647 11.1646 18.7139C11.0831 18.6584 10.9907 18.62 10.9055 18.5699C12.6685 15.8634 15.0298 13.5988 17.8453 11.9257ZM11.9415 19.6957C12.8714 17.8912 16.421 15.4192 18.1499 14.3436C18.6931 14.4285 21.1393 14.4557 24.35 15.8744C24.3507 15.9781 24.3753 16.1063 24.471 16.2216C24.4391 17.7903 24.3191 23.3206 24.3238 23.4878C24.2879 23.5042 24.2498 23.5135 24.2168 23.5378C21.8304 25.3103 19.6256 27.3403 17.6593 29.5687C15.7699 28.6861 13.6609 28.0666 11.242 27.6991C11.9981 19.566 12.0625 19.9804 11.9415 19.6957ZM17.5702 30.7863C18.0025 33.5748 18.5218 36.4171 18.9962 39.1553C17.5793 40.4372 15.8748 41.3564 14.1341 41.7782C13.5152 40.9888 11.5505 39.6248 9.25272 35.149C10.1501 33.117 10.7021 30.9608 11.2137 28.854C13.6329 29.2329 15.7194 29.8674 17.5702 30.7863ZM10.3052 19.553C10.4929 19.662 10.6699 19.7861 10.8334 19.9297C10.0808 28.2699 9.92954 27.931 10.1623 28.2766C8.72655 34.2091 8.03935 34.788 8.01485 35.1555C6.80382 30.0473 7.46005 24.4865 10.3052 19.553ZM8.04987 35.3283C8.06189 35.3572 8.07649 35.3883 8.09457 35.4241C9.44128 38.1009 10.9269 40.2119 12.6358 41.8777L12.7164 41.956C13.3945 42.6151 13.2588 42.5847 13.4371 42.797C13.4338 43.3658 13.9874 45.1236 14.3332 45.9714C11.1805 43.0643 9.03597 39.3407 8.04987 35.3283ZM16.6414 47.8167C16.6225 47.7686 16.6064 47.7194 16.5737 47.6762C15.5311 46.2998 14.8811 44.3102 14.6042 42.8468C16.4316 42.3672 18.2052 41.4003 19.6957 40.0722C23.1549 41.5899 27.7552 43.0224 28.2418 43.004C28.2776 43.0027 28.311 42.9911 28.3454 42.9833C28.4294 43.1817 30.317 47.8176 30.6684 48.4275C28.834 49.6729 26.8424 50.433 24.809 51.2386C21.9616 50.6936 19.1831 49.5752 16.6414 47.8167ZM27.1465 51.5495C30.4955 50.1629 31.5298 49.2167 31.743 49.0889C34.5471 49.1573 37.2007 48.197 39.7986 47.1482C39.9025 47.1063 40.0422 47.0438 40.1852 46.9667C40.5422 47.2116 40.9401 47.3922 41.3574 47.5095C37.171 50.5485 32.1479 51.9412 27.1465 51.5495ZM42.5922 46.5465C42.2908 46.4443 41.7743 46.5923 40.9463 46.0787C42.7901 42.2728 42.4658 41.3397 43.1851 39.6862C43.2203 39.6598 43.2595 39.6405 43.2889 39.6051C45.0773 37.4627 46.6672 35.1404 48.0282 32.7043C48.3045 32.896 48.8015 33.1498 49.4763 33.8523C49.5038 34.0235 49.6109 34.161 49.7524 34.2467C48.8311 39.075 46.3079 43.4063 42.5922 46.5465Z" fill="#D4E4A3"/>
<path d="M45.705 10.9765L48.7453 9.97193C49.0487 9.87154 49.2131 9.54418 49.1131 9.24075C49.0123 8.93734 48.6865 8.77208 48.3819 8.8729L45.3417 9.87748C45.0383 9.97788 44.8738 10.3052 44.9738 10.6087C45.0747 10.913 45.4024 11.0758 45.705 10.9765Z" fill="#D4E4A3"/>
<path d="M42.5278 8.36887C42.716 8.36178 42.8974 8.26296 43.0016 8.08941L44.4377 5.70841C44.6027 5.43494 44.5146 5.07903 44.2408 4.91408C43.9677 4.74985 43.6122 4.83788 43.4465 5.11101L42.0111 7.49198C41.7708 7.88948 42.0755 8.38592 42.5278 8.36887Z" fill="#D4E4A3"/>
<path d="M39.5169 7.0309C39.8329 6.98318 40.0502 6.68851 40.0025 6.37255L39.6582 4.09975C39.6105 3.78379 39.318 3.56488 38.9995 3.61458C38.6836 3.6623 38.4663 3.95735 38.5144 4.2733L38.8586 6.54534C38.9069 6.86665 39.2092 7.07987 39.5169 7.0309Z" fill="#D4E4A3"/>
</svg>
