<svg width="70" height="71" viewBox="0 0 70 71" fill="none" xmlns="http://www.w3.org/2000/svg">
<path d="M68.6293 5.73614C67.5031 4.70432 65.9026 4.36048 64.4518 4.83858L2.90271 25.1278C1.2253 25.6807 0.0878045 27.178 0.00481625 28.9421C-0.0780353 30.7063 0.913859 32.3039 2.53179 33.0119L17.7534 39.6718C17.8276 40.0163 22.1973 60.283 22.3459 60.9719C22.5366 61.8567 22.9857 62.6449 23.9372 62.8873C24.8995 63.1325 25.5794 62.6065 26.2975 62.0689C26.6971 61.7698 37.5932 53.6108 37.5932 53.6108L50.7987 64.4169C51.5679 65.0466 52.508 65.375 53.4665 65.375C53.9229 65.3749 54.3836 65.3005 54.8318 65.1485C56.2216 64.6772 57.252 63.5429 57.5879 62.1143L69.8879 9.81911C70.2375 8.33229 69.7554 6.76796 68.6293 5.73614ZM27.2814 43.488C27.2739 43.5058 27.2665 43.5259 27.2596 43.5499L24.7133 52.446L21.8717 39.267L41.4112 28.4108L27.7501 42.6949C27.5349 42.9199 27.3766 43.192 27.2814 43.488ZM28.0896 55.591L29.2461 51.5503L30.3523 47.6854L34.3159 50.9289L28.0896 55.591ZM65.8859 8.87766L53.586 61.1729C53.5798 61.1988 53.5716 61.2347 53.5115 61.255C53.4519 61.2753 53.4229 61.2522 53.4024 61.2352L38.9524 49.4107C38.952 49.4104 38.9517 49.41 38.9513 49.4097L32.2564 43.9311L53.7654 21.4412C54.4678 20.7066 54.528 19.5689 53.9069 18.7643C53.2855 17.9596 52.1696 17.7298 51.2813 18.2236L19.4326 35.919L4.1798 29.2453C4.13331 29.2251 4.10775 29.2138 4.11144 29.1351C4.11513 29.0568 4.14165 29.0479 4.18978 29.0321L65.7389 8.743C65.7687 8.73329 65.8024 8.72208 65.8518 8.76719C65.9013 8.81259 65.8931 8.84704 65.8859 8.87766Z" fill="#D4E4A3"/>
</svg>
