<svg width="34" height="44" viewBox="0 0 34 44" fill="none" xmlns="http://www.w3.org/2000/svg">
<path d="M30.2004 36.698L16.8619 39.2946C14.8773 39.7118 13.3528 38.3744 12.9356 36.3898C12.5184 34.4052 13.8558 32.8807 15.8404 32.4635L29.179 29.867C31.1636 29.4498 32.6881 30.7872 33.1052 32.7718C33.6374 34.3177 32.185 36.2809 30.2004 36.698Z" fill="#D4E4A3"/>
<path d="M15.3517 27.0317C14.1293 28.1175 11.8211 27.981 10.7352 26.7587C9.64938 25.5363 9.78587 23.2281 11.0082 22.1423L18.2273 16.0657C19.4497 14.9799 21.7579 15.1164 22.8437 16.3387C23.9296 17.5611 23.7931 19.8693 22.5708 20.9552L15.3517 27.0317Z" fill="#D4E4A3"/>
<path d="M2.71677 15.7131C1.07724 14.8144 0.221438 12.7147 1.12018 11.0752L5.06023 3.20121C5.95897 1.56168 8.0586 0.705876 9.69813 1.60462C11.3376 2.50336 12.1935 4.60299 11.2947 6.24251L7.35466 14.1165C6.45592 15.756 4.47132 16.1732 2.71677 15.7131Z" fill="#D4E4A3"/>
</svg>
