<svg width="72" height="73" viewBox="0 0 72 73" fill="none" xmlns="http://www.w3.org/2000/svg">
<path d="M71.6819 15.4063C71.2562 14.7138 70.4773 14.3213 69.6664 14.3917L66.0763 14.7044L69.5079 7.78662C69.9166 6.9627 69.7552 5.97003 69.1066 5.31795C68.4578 4.66587 67.4661 4.49965 66.6402 4.90409L57.5576 9.35221C51.9462 6.38979 44.9357 7.26912 40.1116 11.6635C36.0855 15.331 33.9693 20.9711 34.3639 26.5955C23.841 25.5408 14.9338 19.5177 9.66683 9.78561C9.31738 9.14 8.66221 8.7177 7.92997 8.66581C7.19633 8.61477 6.48955 8.93989 6.05277 9.5301C2.78604 13.9432 2.55682 19.994 5.11775 24.972C4.41181 24.7937 3.66059 24.5524 2.82753 24.2741C2.11385 24.0355 1.32705 24.1883 0.754287 24.6766C0.18152 25.1648 -0.093824 25.9173 0.0286606 26.6599C1.04201 32.8036 4.62458 37.5252 10.2839 40.32C9.54702 40.5766 8.7951 40.7851 8.03052 40.9444C7.27086 41.1027 6.65577 41.6585 6.42163 42.3983C6.18749 43.138 6.37058 43.9466 6.90074 44.5132C10.9762 48.8695 16.8633 51.0136 21.045 52.0421C16.2904 55.7654 11.158 56.3886 3.7001 56.1325C2.83681 56.1063 2.04143 56.5926 1.67848 57.3752C1.31566 58.1579 1.45643 59.0818 2.03623 59.721C5.14517 63.1478 16.472 67.012 28.379 67.3016C28.85 67.313 29.3303 67.3192 29.8208 67.3192C38.1811 67.3191 49.2302 65.5269 57.1611 57.5961C63.1639 51.5934 66.9186 44.6829 68.3205 37.0574C69.4528 30.8984 68.7372 25.9664 68.3934 23.596C68.368 23.4218 68.341 23.2368 68.3191 23.0751L71.6774 17.6625C72.1057 16.972 72.1076 16.0987 71.6819 15.4063ZM64.1435 24.2125C64.7807 28.6034 66.7192 41.965 54.1247 54.5596C46.8037 61.8804 36.1404 63.195 28.4833 63.0089C21.9497 62.85 16.1056 61.6004 11.87 60.1753C13.5897 59.9644 15.1223 59.639 16.5689 59.1894C20.5569 57.9498 23.926 55.7193 27.1713 52.1701C27.7123 51.5785 27.8785 50.735 27.6027 49.9824C27.327 49.2297 26.6548 48.6934 25.8597 48.5916C23.8123 48.3292 17.6605 47.2936 12.8163 43.9521C14.2123 43.3811 15.5586 42.6666 16.8442 41.8139C17.5494 41.3459 17.9142 40.5075 17.7753 39.6726C17.6365 38.8378 17.0204 38.1621 16.2017 37.9475C12.2368 36.908 7.45157 34.5821 5.24501 29.3898C6.65408 29.6367 8.18619 29.6965 9.82026 29.3301C10.5777 29.1605 11.1846 28.5952 11.4074 27.8516C11.6302 27.108 11.4345 26.3019 10.8953 25.7436C8.14977 22.8999 7.12306 18.8018 8.00394 15.295C10.8887 19.5111 14.5434 23.0594 18.7307 25.6827C24.0873 29.0388 30.3392 30.8935 36.8109 31.0458C37.4694 31.0597 38.1011 30.7722 38.5205 30.2621C38.9395 29.752 39.1007 29.0774 38.9574 28.4329C37.8439 23.4274 39.432 18.0912 43.0033 14.8381C46.7074 11.4638 52.1818 10.952 56.3158 13.5942C56.947 13.9976 57.7434 14.0428 58.4164 13.7131L62.8519 11.5408L60.5303 16.2209C60.1853 16.9163 60.2426 17.7437 60.6801 18.3848C61.1174 19.026 61.8657 19.3819 62.6401 19.314L65.7679 19.0416L64.327 21.364C63.8434 22.1435 63.9437 22.8351 64.1435 24.2125Z" fill="#D4E4A3"/>
</svg>
