<svg width="20" height="21" viewBox="0 0 20 21" fill="none" xmlns="http://www.w3.org/2000/svg">
<g clip-path="url(#clip0_217_247)">
<path d="M19.5568 12.1374L19.1808 11.6233C18.8702 11.1989 18.8661 10.6235 19.1685 10.191L19.5364 9.67273C19.9615 9.0688 19.7653 8.23227 19.1113 7.88134L18.5514 7.57937C18.0854 7.33045 17.832 6.81222 17.9179 6.29398L18.0241 5.66556C18.1467 4.93921 17.6031 4.26591 16.8633 4.23735L16.2257 4.20878C15.6985 4.18838 15.2448 3.82929 15.0977 3.32329L14.9219 2.7112C14.7175 2.00117 13.9369 1.63391 13.2543 1.92772L12.6698 2.18072C12.1834 2.38883 11.6235 2.26641 11.2679 1.87059L10.8428 1.39724C10.3483 0.846356 9.48586 0.854517 8.99948 1.40948L8.58258 1.89099C8.23516 2.28681 7.67521 2.42147 7.18883 2.22152L6.60027 1.98077C5.9177 1.6992 5.14112 2.0787 4.94493 2.79281L4.77735 3.4049C4.64247 3.91906 4.19696 4.28223 3.66971 4.3108L3.0321 4.34752C2.29231 4.38833 1.76097 5.06979 1.89584 5.79206L2.01029 6.4164C2.10429 6.93464 1.85906 7.45695 1.3972 7.70995L0.841335 8.02008C0.19555 8.37917 0.00753634 9.21978 0.444872 9.81555L0.820898 10.3297C1.13153 10.7541 1.13562 11.3295 0.83316 11.762L0.465308 12.2802C0.0402343 12.8842 0.236422 13.7207 0.890382 14.0716L1.45033 14.3736C1.91628 14.6225 2.16969 15.1408 2.08386 15.659L1.9735 16.2833C1.85088 17.0097 2.39449 17.683 3.13428 17.7115L3.77189 17.7401C4.29915 17.7605 4.75283 18.1196 4.89997 18.6256L5.07572 19.2377C5.28008 19.9477 6.06075 20.315 6.74332 20.0212L7.3278 19.7682C7.81418 19.5601 8.37413 19.6825 8.72972 20.0742L9.15479 20.5476C9.64935 21.0985 10.5118 21.0903 10.9981 20.5353L11.415 20.0538C11.7625 19.658 12.3224 19.5233 12.8088 19.7233L13.3974 19.964C14.0799 20.2456 14.8565 19.8661 15.0527 19.152L15.2203 18.5399C15.3592 18.0339 15.8088 17.6707 16.3361 17.6381L16.9737 17.6014C17.7135 17.5606 18.2448 16.8791 18.11 16.1568L17.9955 15.5325C17.9015 15.0143 18.1467 14.4919 18.6086 14.2389L19.1645 13.9288C19.8062 13.5779 19.9901 12.7332 19.5568 12.1374ZM10.0009 17.4218C6.43678 17.4218 3.54709 14.5368 3.54709 10.9785C3.54709 7.42023 6.43678 4.53523 10.0009 4.53523C13.5649 4.53523 16.4546 7.42023 16.4546 10.9785C16.4546 14.5368 13.5649 17.4218 10.0009 17.4218Z" fill="#17C807"/>
<path d="M9.17535 11.1499L8.60314 10.5745C8.26389 10.2318 7.70803 10.2318 7.3647 10.5705C7.02137 10.9092 7.02137 11.4641 7.36061 11.8069L7.93283 12.3823L8.57044 13.0188C8.9015 13.3534 9.44102 13.3534 9.77617 13.0229L10.4138 12.3904L12.6372 10.1828C12.9806 9.84412 12.9806 9.28915 12.6413 8.94638C12.3021 8.60361 11.7462 8.60361 11.4029 8.9423L9.17535 11.1499Z" fill="#17C807"/>
</g>
<defs>
<clipPath id="clip0_217_247">
<rect width="20" height="19.9676" fill="white" transform="translate(0 0.988647)"/>
</clipPath>
</defs>
</svg>
