<svg width="22" height="22" viewBox="0 0 22 22" fill="none" xmlns="http://www.w3.org/2000/svg">
<path d="M11.0001 20.9C16.4677 20.9 20.9001 16.4676 20.9001 11C20.9001 5.53238 16.4677 1.1 11.0001 1.1C5.53248 1.1 1.1001 5.53238 1.1001 11C1.1001 16.4676 5.53248 20.9 11.0001 20.9Z" fill="#D7DBE0"/>
<path d="M10.9998 19.0667C15.4549 19.0667 19.0664 15.4551 19.0664 11C19.0664 6.5449 15.4549 2.93333 10.9998 2.93333C6.54468 2.93333 2.93311 6.5449 2.93311 11C2.93311 15.4551 6.54468 19.0667 10.9998 19.0667Z" fill="white"/>
<path d="M3.30013 11.3667H1.83346C1.63079 11.3667 1.4668 11.2027 1.4668 11C1.4668 10.7973 1.63079 10.6333 1.83346 10.6333H3.30013C3.5028 10.6333 3.6668 10.7973 3.6668 11C3.6668 11.2027 3.5028 11.3667 3.30013 11.3667Z" fill="#5C546A"/>
<path d="M20.1668 11.3667H18.7002C18.4975 11.3667 18.3335 11.2027 18.3335 11C18.3335 10.7973 18.4975 10.6333 18.7002 10.6333H20.1668C20.3695 10.6333 20.5335 10.7973 20.5335 11C20.5335 11.2027 20.3695 11.3667 20.1668 11.3667Z" fill="#5C546A"/>
<path d="M11 20.5333C10.7973 20.5333 10.6333 20.3694 10.6333 20.1667V18.7C10.6333 18.4973 10.7973 18.3333 11 18.3333C11.2026 18.3333 11.3666 18.4973 11.3666 18.7V20.1667C11.3666 20.3694 11.2026 20.5333 11 20.5333Z" fill="#5C546A"/>
<path d="M11 3.66667C10.7973 3.66667 10.6333 3.50268 10.6333 3.3V1.83333C10.6333 1.63066 10.7973 1.46667 11 1.46667C11.2026 1.46667 11.3666 1.63066 11.3666 1.83333V3.3C11.3666 3.50268 11.2026 3.66667 11 3.66667Z" fill="#5C546A"/>
<path d="M18.9381 15.95C18.8758 15.95 18.8128 15.9342 18.7551 15.901L17.8027 15.351C17.6272 15.2496 17.567 15.0254 17.6684 14.85C17.7697 14.6742 17.9942 14.614 18.1693 14.7157L19.1218 15.2657C19.2972 15.367 19.3574 15.5912 19.2561 15.7667C19.188 15.8845 19.0649 15.95 18.9381 15.95Z" fill="#8A8895"/>
<path d="M4.01376 7.33333C3.95148 7.33333 3.88846 7.31757 3.8308 7.28429L2.87833 6.73429C2.70288 6.63295 2.64271 6.40878 2.74404 6.23333C2.84538 6.05752 3.06987 5.99771 3.245 6.09904L4.19746 6.64904C4.37291 6.75038 4.43309 6.97455 4.33176 7.15C4.26369 7.26779 4.14054 7.33333 4.01376 7.33333Z" fill="#8A8895"/>
<path d="M3.06203 15.95C2.93526 15.95 2.81211 15.8845 2.74404 15.7667C2.64271 15.5912 2.70288 15.367 2.87833 15.2657L3.8308 14.7157C4.00556 14.614 4.23042 14.6742 4.33176 14.85C4.43309 15.0254 4.37291 15.2496 4.19746 15.351L3.245 15.901C3.18734 15.9342 3.12432 15.95 3.06203 15.95Z" fill="#8A8895"/>
<path d="M17.9864 7.33333C17.8596 7.33333 17.7364 7.26779 17.6684 7.15C17.567 6.97455 17.6272 6.75038 17.8027 6.64904L18.7551 6.09904C18.9299 5.99771 19.1544 6.05752 19.2561 6.23333C19.3574 6.40878 19.2972 6.63295 19.1218 6.73429L18.1693 7.28429C18.1117 7.31757 18.0486 7.33333 17.9864 7.33333Z" fill="#8A8895"/>
<path d="M15.033 4.38066C14.9707 4.38066 14.9077 4.36489 14.85 4.33162C14.6746 4.23028 14.6144 4.00611 14.7157 3.83066L15.2657 2.8782C15.3674 2.70238 15.5912 2.64225 15.7667 2.74391C15.9421 2.84524 16.0023 3.06942 15.901 3.24487L15.351 4.19733C15.2829 4.31512 15.1598 4.38066 15.033 4.38066Z" fill="#8A8895"/>
<path d="M6.41628 19.3051C6.35399 19.3051 6.29097 19.2894 6.23331 19.2561C6.05786 19.1548 5.99769 18.9306 6.09902 18.7551L6.64902 17.8027C6.75036 17.6269 6.97485 17.5667 7.14998 17.6684C7.32543 17.7697 7.38561 17.9939 7.28427 18.1693L6.73427 19.1218C6.66621 19.2396 6.54306 19.3051 6.41628 19.3051Z" fill="#8A8895"/>
<path d="M15.5837 19.3051C15.4569 19.3051 15.3338 19.2396 15.2657 19.1218L14.7157 18.1693C14.6144 17.9939 14.6746 17.7697 14.85 17.6684C15.0248 17.5667 15.2493 17.6269 15.351 17.8027L15.901 18.7551C16.0023 18.9306 15.9421 19.1548 15.7667 19.2561C15.709 19.2894 15.646 19.3051 15.5837 19.3051Z" fill="#8A8895"/>
<path d="M6.96701 4.38066C6.84024 4.38066 6.71709 4.31512 6.64902 4.19733L6.09902 3.24486C5.99769 3.06941 6.05786 2.84524 6.23331 2.7439C6.40808 2.6422 6.63257 2.70238 6.73427 2.8782L7.28427 3.83066C7.38561 4.00611 7.32543 4.23028 7.14998 4.33162C7.09232 4.36489 7.0293 4.38066 6.96701 4.38066Z" fill="#8A8895"/>
<path d="M15.3999 11.9167H15.2166V8.06666C15.2166 7.76339 14.9699 7.51666 14.6666 7.51666C14.3633 7.51666 14.1166 7.76339 14.1166 8.06666V11.9167H12.1916L13.7073 8.27828C13.7642 8.14256 13.7646 7.99324 13.7083 7.85716C13.6525 7.72108 13.5469 7.61548 13.4115 7.55888C13.1322 7.44214 12.8096 7.5757 12.6921 7.85501L10.8592 12.255C10.7879 12.4251 10.8065 12.6181 10.9089 12.7717C11.0114 12.925 11.1822 13.0167 11.3666 13.0167H14.1166V13.9333C14.1166 14.2366 14.3633 14.4833 14.6666 14.4833C14.9699 14.4833 15.2166 14.2366 15.2166 13.9333V13.0167H15.3999C15.7032 13.0167 15.9499 12.7699 15.9499 12.4667C15.9499 12.1634 15.7032 11.9167 15.3999 11.9167Z" fill="#FF4F19"/>
<path d="M8.6018 12.5169C9.53635 12.0983 10.8165 11.525 10.8165 9.90011C10.8165 8.58598 9.74727 7.51678 8.43314 7.51678C7.119 7.51678 6.0498 8.58598 6.0498 9.90011C6.0498 10.2034 6.29653 10.4501 6.5998 10.4501C6.90308 10.4501 7.1498 10.2034 7.1498 9.90011C7.1498 9.19254 7.72561 8.61678 8.43314 8.61678C9.14067 8.61678 9.71647 9.19258 9.71647 9.90011C9.71647 10.8121 9.02608 11.1215 8.15204 11.5132C7.21535 11.9329 6.0498 12.455 6.0498 13.9334C6.0498 14.2367 6.29653 14.4834 6.5998 14.4834H10.2665C10.5698 14.4834 10.8165 14.2367 10.8165 13.9334C10.8165 13.6302 10.5698 13.3834 10.2665 13.3834H7.29358C7.4941 13.0521 7.9133 12.8254 8.6018 12.5169Z" fill="#FF4F19"/>
<path d="M11 0C4.92488 0 0 4.92488 0 11C0 17.0751 4.92488 22 11 22C17.0751 22 22 17.0751 22 11C22 4.92488 17.0751 0 11 0ZM11 20.1667C5.93739 20.1667 1.83333 16.0626 1.83333 11C1.83333 5.93739 5.93739 1.83333 11 1.83333C16.0626 1.83333 20.1667 5.93739 20.1667 11C20.1667 16.0626 16.0626 20.1667 11 20.1667Z" fill="#FF4F19"/>
<path d="M1.83333 11C1.83333 5.93739 5.93739 1.83333 11 1.83333V0C4.92488 0 0 4.92488 0 11C0 17.0751 4.92488 22 11 22V20.1667C5.93739 20.1667 1.83333 16.0626 1.83333 11Z" fill="#E7001E"/>
</svg>
