<svg width="22" height="22" viewBox="0 0 22 22" fill="none" xmlns="http://www.w3.org/2000/svg">
<g clip-path="url(#clip0_217_29)">
<path d="M17.4113 12.4228C17.5832 12.658 17.7264 12.8983 17.802 13.146H16.7366C16.2655 13.5496 15.8612 13.6712 15.444 13.6712C15.0283 13.6712 14.6161 13.5482 14.1399 13.146H11.3368V10.0031C11.544 10.0124 11.7411 10.044 11.9439 10.0628C11.2195 8.7515 10.2988 6.83166 10.0097 5.57791C9.9996 5.53472 9.99601 5.49158 9.98669 5.44843C5.75499 5.82094 2.42456 9.37973 2.42456 13.7057C2.42456 18.279 6.14555 22 10.7196 22C15.293 22 19.0132 18.279 19.0132 13.7057C19.0132 13.7057 19.0132 13.7057 19.0132 13.7053C19.0132 13.7053 19.0132 13.705 19.0132 13.7046C19.0132 12.6893 18.8204 11.72 18.4853 10.8202C18.0818 11.4978 17.7293 12.021 17.4113 12.4228ZM7.6762 7.21721C7.21448 7.85058 6.82672 8.62921 6.52967 9.51537C5.6428 9.81281 4.86377 10.2012 4.23014 10.6637C4.94212 9.15137 6.16426 7.92924 7.6762 7.21721ZM6.17069 10.8554C6.02117 11.5754 5.92765 12.3426 5.89746 13.146H3.63951C3.91718 12.2394 4.84577 11.4283 6.17069 10.8554ZM3.63951 14.2653H5.89746C5.92765 15.0684 6.02117 15.8355 6.17069 16.5556C4.84643 15.9826 3.91784 15.172 3.63951 14.2653ZM4.23009 16.7472C4.86306 17.2101 5.64276 17.5985 6.52892 17.896C6.82672 18.7821 7.21448 19.5608 7.6762 20.1941C6.16426 19.482 4.94212 18.26 4.23009 16.7472ZM10.2176 20.8038C9.28743 20.5488 8.45453 19.6076 7.86971 18.2549C8.60702 18.4081 9.39319 18.502 10.2176 18.5294V20.8038ZM10.2176 17.4108C9.22491 17.373 8.28124 17.2274 7.43246 16.9933C7.2022 16.1603 7.05689 15.2367 7.01583 14.2652H10.2175V17.4108H10.2176ZM10.2176 13.146H7.01587C7.05693 12.1742 7.2022 11.2507 7.43251 10.4178C8.28129 10.1836 9.22496 10.038 10.2176 10.0002V13.146H10.2176ZM10.2176 8.88169C9.39319 8.90931 8.60702 9.00323 7.86971 9.15607C8.45453 7.80375 9.28823 6.86252 10.2176 6.60756V8.88169ZM11.3368 14.2653H14.4233C14.3823 15.2385 14.2363 16.1639 14.0061 16.998C13.1796 17.2252 12.2784 17.3655 11.3368 17.4079V14.2653ZM11.3368 20.8038V18.5268C12.1086 18.4944 12.8581 18.401 13.5709 18.2521C13.0099 19.55 12.2208 20.5042 11.3368 20.8038ZM13.763 20.1939C14.2262 19.5587 14.6153 18.7775 14.9125 17.8885C15.4663 17.7018 15.9885 17.4813 16.4598 17.2205C16.7352 17.0681 16.9819 16.9033 17.2149 16.7329C16.5043 18.2521 15.28 19.4792 13.763 20.1939ZM15.918 16.2412C15.7123 16.3548 15.4937 16.4585 15.2685 16.5566C15.4181 15.8362 15.5116 15.0691 15.5419 14.2652H17.8011C17.5789 14.9918 16.9344 15.6791 15.918 16.2412Z" fill="black"/>
<path d="M15.4441 0C12.495 0 10.8211 2.54315 11.4449 5.24663C11.8893 7.17184 14.5723 12.198 15.4441 12.198C16.2591 12.198 18.9925 7.17038 19.4434 5.24663C20.0722 2.56971 18.4119 0 15.4441 0ZM15.4908 5.18048C14.6263 5.18048 13.9257 4.47984 13.9257 3.61523C13.9257 2.75062 14.6263 2.05003 15.4908 2.05003C16.3555 2.05003 17.056 2.75062 17.056 3.61523C17.056 4.47984 16.3555 5.18048 15.4908 5.18048Z" fill="black"/>
</g>
<defs>
<clipPath id="clip0_217_29">
<rect width="22" height="22" fill="white"/>
</clipPath>
</defs>
</svg>
