<svg width="22" height="22" viewBox="0 0 22 22" fill="none" xmlns="http://www.w3.org/2000/svg">
<path d="M0.0454102 10.9557C3.68179 7.31699 7.33184 3.66486 10.9944 0C14.6376 3.61348 18.29 7.23615 21.9547 10.8711C18.3195 14.5923 14.6963 18.3014 11.0837 22C7.39359 18.3078 3.71479 14.6271 0.0454102 10.9557ZM7.56448 5.86557C7.54939 5.86887 7.53431 5.87217 7.51946 5.87547C7.50744 5.91766 7.49306 5.95914 7.48481 6.00204C7.325 6.80411 7.16567 7.60619 7.00704 8.40827C6.62686 10.3264 6.24668 12.2445 5.8672 14.1628C5.83397 14.3302 5.84151 14.3436 5.98599 14.3436C6.75367 14.3445 7.52158 14.3427 8.28925 14.346C8.39367 14.3464 8.43986 14.3068 8.44788 14.2069C8.46013 14.052 8.47475 13.8977 8.49078 13.7433C8.57068 12.9622 8.65082 12.1813 8.73166 11.4009C8.75617 11.1673 8.78328 10.9345 8.80944 10.7014C8.81911 10.6997 8.82901 10.6983 8.83867 10.6964C9.59786 11.8961 10.3575 13.0963 11.1375 14.3283C11.8973 13.102 12.6318 11.9173 13.3761 10.716C13.3945 10.7537 13.4037 10.7643 13.4051 10.7761C13.5442 11.9312 13.6844 13.0866 13.819 14.2425C13.8341 14.3709 13.8779 14.4216 14.0151 14.4207C14.8009 14.4153 15.5868 14.4183 16.3731 14.4174C16.5392 14.4174 16.547 14.4068 16.5058 14.2432C15.8201 11.532 15.1337 8.82121 14.4469 6.11046C14.4358 6.06567 14.416 6.02278 14.4007 5.97941C14.387 5.97799 14.3736 5.97634 14.3604 5.97446C13.3045 7.72239 12.2483 9.46985 11.1799 11.2383C9.9639 9.43143 8.76442 7.64838 7.56448 5.86557Z" fill="#FD4A12"/>
</svg>
