<svg width="50" height="50" viewBox="0 0 50 50" fill="none" xmlns="http://www.w3.org/2000/svg">
<path d="M25.0003 0C38.8076 0 49.9995 11.1934 49.9995 24.9993C49.9995 38.8066 38.8078 50 25.0003 50C11.1944 50 0.000976562 38.8066 0.000976562 24.9993C0.000976562 11.1934 11.1944 0 25.0003 0Z" fill="#EFC75E"/>
<path d="M20.766 20.7243C19.3005 21.7477 17.4207 22.1648 15.5568 21.6681C12.2101 20.7745 10.2241 17.3463 11.121 14.0121C11.3131 13.3011 11.6397 12.6684 12.0366 12.0965C10.8694 12.9089 9.95702 14.0964 9.56011 15.5744C8.66326 18.9086 10.6491 22.3368 13.996 23.2304C16.6303 23.9321 19.3021 22.8399 20.766 20.7243ZM40.6249 18.751C36.3093 18.751 32.8127 15.2527 32.8127 10.9388C32.8127 9.18096 33.4142 7.57634 34.3955 6.27008C32.4956 7.69508 31.2504 9.94496 31.2504 12.5011C31.2504 16.8166 34.747 20.3133 39.0626 20.3133C41.6203 20.3133 43.8671 19.0681 45.2921 17.1696C43.9887 18.1494 42.3825 18.751 40.6249 18.751ZM17.9364 37.4036C16.2709 36.9567 15.2817 35.2442 15.727 33.5755L15.902 33.1131C15.0785 33.485 14.4161 34.1958 14.1645 35.138C13.7192 36.8067 14.7082 38.5191 16.3739 38.9661C17.8769 39.3692 19.4097 38.599 20.0254 37.2207C19.391 37.5082 18.663 37.5989 17.9364 37.4036ZM33.1548 35.7707C30.6533 35.0989 29.169 32.5303 29.8407 30.0272C29.9611 29.574 30.1626 29.1695 30.3969 28.7897C29.3892 29.3944 28.6048 30.3677 28.2782 31.5897C27.6064 34.0928 29.0922 36.6613 31.5923 37.3332C33.6392 37.8817 35.7157 36.9724 36.7734 35.2567C35.7234 35.8864 34.4328 36.1114 33.1548 35.7707Z" fill="#C89147"/>
<path d="M28.1252 46.875C14.3193 46.875 3.12593 35.6816 3.12593 21.8743C3.12593 15.7667 5.32279 10.1762 8.96018 5.83423C3.48696 10.4199 0.000976562 17.2994 0.000976562 24.9993C0.000976562 38.8066 11.1944 50 25.0003 50C32.7 50 39.5779 46.5158 44.1653 41.0424C39.8232 44.6798 34.2344 46.875 28.1252 46.875Z" fill="#D7B354"/>
<path d="M46.84 12.848C45.0509 9.6418 42.5728 6.88251 39.6121 4.7435L39.0622 4.68726C34.7467 4.68726 31.25 8.18556 31.25 12.4995C31.25 16.815 34.7467 20.3117 39.0622 20.3117C43.259 20.3135 46.6541 16.998 46.84 12.848Z" fill="#DFA14F"/>
<path d="M32.8046 37.4925C35.3942 37.4925 37.4934 35.3933 37.4934 32.8037C37.4934 30.2141 35.3942 28.1148 32.8046 28.1148C30.215 28.1148 28.1157 30.2141 28.1157 32.8037C28.1157 35.3933 30.215 37.4925 32.8046 37.4925Z" fill="#DFA14F"/>
<path d="M17.2443 11.1543C13.896 10.2607 10.457 12.2386 9.56011 15.5744C8.66326 18.9087 10.6491 22.3368 13.996 23.2304C17.3443 24.1226 20.7847 22.1445 21.6816 18.8103C22.5784 15.4761 20.591 12.0481 17.2443 11.1543Z" fill="#DFA14F"/>
<path d="M17.1835 39.0723C18.9094 39.0723 20.3085 37.6732 20.3085 35.9473C20.3085 34.2215 18.9094 32.8224 17.1835 32.8224C15.4577 32.8224 14.0586 34.2215 14.0586 35.9473C14.0586 37.6732 15.4577 39.0723 17.1835 39.0723Z" fill="#DFA14F"/>
</svg>
