<svg width="17" height="17" viewBox="0 0 17 17" fill="none" xmlns="http://www.w3.org/2000/svg">
<path d="M3.94646 10.0179H2.73218V10.625H3.94646V10.0179Z" fill="#E34326"/>
<path d="M8.49993 10.0179H7.28564V10.625H8.49993V10.0179Z" fill="#E34326"/>
<path d="M8.49993 8.80356H7.28564V9.4107H8.49993V8.80356Z" fill="#E34326"/>
<path d="M8.49993 7.58929H7.28564V8.19644H8.49993V7.58929Z" fill="#E34326"/>
<path d="M8.49993 6.375H7.28564V6.98214H8.49993V6.375Z" fill="#E34326"/>
<path d="M10.0178 5.16071H7.28564V5.76785H10.0178V5.16071Z" fill="#E34326"/>
<path d="M10.0178 3.94644H7.28564V4.55358H10.0178V3.94644Z" fill="#E34326"/>
<path d="M10.0178 2.73215H7.28564V3.33929H10.0178V2.73215Z" fill="#E34326"/>
<path d="M10.0178 1.51785H7.28564V2.125H10.0178V1.51785Z" fill="#E34326"/>
<path d="M3.94646 11.2321H2.73218V11.8393H3.94646V11.2321Z" fill="#E34326"/>
<path d="M8.49993 11.2321H7.28564V11.8393H8.49993V11.2321Z" fill="#E34326"/>
<path d="M3.94646 12.4464H2.73218V13.0536H3.94646V12.4464Z" fill="#E34326"/>
<path d="M8.49993 12.4464H7.28564V13.0536H8.49993V12.4464Z" fill="#E34326"/>
<path d="M3.94646 13.6607H2.73218V14.2678H3.94646V13.6607Z" fill="#E34326"/>
<path d="M8.49993 13.6607H7.28564V14.2678H8.49993V13.6607Z" fill="#E34326"/>
<path d="M5.46429 10.0179H4.25V10.625H5.46429V10.0179Z" fill="#E34326"/>
<path d="M10.0178 10.0179H8.80347V10.625H10.0178V10.0179Z" fill="#E34326"/>
<path d="M10.0178 8.80356H8.80347V9.4107H10.0178V8.80356Z" fill="#E34326"/>
<path d="M10.0178 7.58929H8.80347V8.19644H10.0178V7.58929Z" fill="#E34326"/>
<path d="M10.0178 6.375H8.80347V6.98214H10.0178V6.375Z" fill="#E34326"/>
<path d="M5.46429 11.2321H4.25V11.8393H5.46429V11.2321Z" fill="#E34326"/>
<path d="M10.0178 11.2321H8.80347V11.8393H10.0178V11.2321Z" fill="#E34326"/>
<path d="M5.46429 12.4464H4.25V13.0536H5.46429V12.4464Z" fill="#E34326"/>
<path d="M10.0178 12.4464H8.80347V13.0536H10.0178V12.4464Z" fill="#E34326"/>
<path d="M5.46429 13.6607H4.25V14.2678H5.46429V13.6607Z" fill="#E34326"/>
<path d="M10.0178 13.6607H8.80347V14.2678H10.0178V13.6607Z" fill="#E34326"/>
<path d="M15.1785 6.67857H11.2321V0.303571C11.2321 0.136 11.0964 0 10.9285 0H6.37497C6.20709 0 6.07139 0.136 6.07139 0.303571V8.5H1.82139C1.65352 8.5 1.51782 8.636 1.51782 8.80357V16.6964C1.51782 16.864 1.65352 17 1.82139 17H3.03568H5.16068H6.37497H7.58925H9.71425H10.9285H12.1428H13.9643H15.1785C15.3464 17 15.4821 16.864 15.4821 16.6964V6.98214C15.4821 6.81457 15.3464 6.67857 15.1785 6.67857ZM2.12497 9.10714H6.07139V16.3929H5.46425V15.1786C5.46425 15.011 5.32855 14.875 5.16068 14.875H3.03568C2.8678 14.875 2.73211 15.011 2.73211 15.1786V16.3929H2.12497V9.10714ZM3.33925 16.3929V15.4821H4.85711V16.3929H3.33925ZM6.67854 8.80357V0.607143H10.625V6.98214V16.3929H10.0178V15.1786C10.0178 15.011 9.88213 14.875 9.71425 14.875H7.58925C7.42138 14.875 7.28568 15.011 7.28568 15.1786V16.3929H6.67854V8.80357ZM7.89282 16.3929V15.4821H9.41068V16.3929H7.89282ZM12.4464 16.3929V15.7857H13.6607V16.3929H12.4464ZM14.875 16.3929H14.2678V15.4821C14.2678 15.3146 14.1321 15.1786 13.9643 15.1786H12.1428C11.9749 15.1786 11.8393 15.3146 11.8393 15.4821V16.3929H11.2321V7.28571H14.875V16.3929Z" fill="#E34326"/>
<path d="M12.4465 7.89285H11.8394V9.71428H12.4465V7.89285Z" fill="#E34326"/>
<path d="M12.4465 10.3214H11.8394V12.1429H12.4465V10.3214Z" fill="#E34326"/>
<path d="M12.4465 12.75H11.8394V14.5714H12.4465V12.75Z" fill="#E34326"/>
<path d="M14.2678 7.89285H13.6606V9.71428H14.2678V7.89285Z" fill="#E34326"/>
<path d="M14.2678 10.3214H13.6606V12.1429H14.2678V10.3214Z" fill="#E34326"/>
<path d="M14.2678 12.75H13.6606V14.5714H14.2678V12.75Z" fill="#E34326"/>
<path d="M13.3571 7.89285H12.75V9.71428H13.3571V7.89285Z" fill="#E34326"/>
<path d="M13.3571 10.3214H12.75V12.1429H13.3571V10.3214Z" fill="#E34326"/>
<path d="M13.3571 12.75H12.75V14.5714H13.3571V12.75Z" fill="#E34326"/>
</svg>
