<svg width="16" height="16" viewBox="0 0 16 16" fill="none" xmlns="http://www.w3.org/2000/svg">
<path d="M15.6187 15.4886L11.1301 10.8205C12.275 9.67232 12.9843 8.08942 12.9843 6.34369C12.9843 2.8456 10.1387 0 6.64057 0C3.14247 0 0.296875 2.8456 0.296875 6.34369C0.296875 9.84179 3.14247 12.6874 6.64057 12.6874C8.17604 12.6874 9.58525 12.1385 10.6836 11.2277L15.1831 15.9073C15.2423 15.9692 15.3215 16 15.4009 16C15.4764 16 15.5516 15.9719 15.6102 15.9157C15.7305 15.8 15.7341 15.6088 15.6187 15.4886ZM6.64057 12.0832C3.47567 12.0832 0.901036 9.50859 0.901036 6.34369C0.901036 3.17879 3.47567 0.604161 6.64057 0.604161C9.80547 0.604161 12.3801 3.17879 12.3801 6.34369C12.3801 9.50859 9.80516 12.0832 6.64057 12.0832Z" fill="#1E1E1E"/>
</svg>
