<svg width="16" height="16" viewBox="0 0 16 16" fill="none" xmlns="http://www.w3.org/2000/svg">
<path d="M8.77243 0.502284L10.577 4.32582C10.7025 4.59175 10.9451 4.77601 11.2258 4.81859L15.2612 5.43177C15.9681 5.53926 16.2501 6.44733 15.7388 6.96837L12.8188 9.94456C12.6159 10.1515 12.5231 10.4499 12.5712 10.742L13.2604 14.9445C13.3812 15.6806 12.6423 16.2417 12.0101 15.8945L8.40097 13.9105C8.14999 13.7726 7.84994 13.7726 7.59896 13.9105L3.98978 15.8945C3.35766 16.2421 2.61874 15.6806 2.73955 14.9445L3.42875 10.742C3.47681 10.4499 3.38403 10.1515 3.18111 9.94456L0.261123 6.96837C-0.250182 6.44698 0.0318367 5.53891 0.73872 5.43177L4.7741 4.81859C5.05478 4.77601 5.29742 4.59175 5.42291 4.32582L7.2275 0.502284C7.54323 -0.167428 8.45637 -0.167428 8.77243 0.502284Z" fill="#ED8A19"/>
</svg>
