<svg width="20" height="21" viewBox="0 0 20 21" fill="none" xmlns="http://www.w3.org/2000/svg">
<path fill-rule="evenodd" clip-rule="evenodd" d="M11.7185 5.66441C9.74737 5.45764 7.76087 5.44226 5.7868 5.61848L4.46865 5.73615C3.37936 5.83338 2.49924 6.6642 2.34104 7.74458C2.0276 9.88502 2.0276 12.0597 2.34104 14.2001C2.49924 15.2804 3.37936 16.1112 4.46865 16.2085L5.7868 16.3261C7.76087 16.5024 9.74737 16.487 11.7185 16.2802L12.225 16.2271C13.2617 16.1184 14.1005 15.3479 14.3025 14.3365L16.8415 15.6833C17.0267 15.7814 17.2488 15.7804 17.433 15.6806C17.6173 15.5807 17.739 15.3952 17.7574 15.1867L17.7781 14.9505C18.0105 12.3035 18.0105 9.64117 17.7781 6.99408L17.7574 6.75792C17.739 6.54942 17.6173 6.36396 17.433 6.26407C17.2488 6.16418 17.0267 6.16317 16.8415 6.26138L14.3025 7.60816C14.1005 6.59676 13.2617 5.82628 12.225 5.71753L11.7185 5.66441ZM5.89812 6.86149C7.79167 6.69246 9.69721 6.70721 11.5879 6.90555L12.0943 6.95867C12.604 7.01213 13.0125 7.40378 13.0866 7.91003C13.384 9.94077 13.384 12.0039 13.0866 14.0346C13.0125 14.5409 12.604 14.9325 12.0943 14.986L11.5879 15.0391C9.69721 15.2374 7.79168 15.2522 5.89812 15.0832L4.57997 14.9655C4.06693 14.9197 3.6524 14.5284 3.57789 14.0196C3.28198 11.9988 3.28198 9.94584 3.57789 7.92511C3.6524 7.41626 4.06693 7.02495 4.57997 6.97916L5.89812 6.86149ZM14.4666 8.93424C14.5906 10.2901 14.5906 11.6545 14.4666 13.0104L16.5891 14.1362C16.7402 12.0296 16.7402 9.91497 16.5891 7.80841L14.4666 8.93424Z" fill="#17C807"/>
</svg>
