<svg width="25" height="25" viewBox="0 0 25 25" fill="none" xmlns="http://www.w3.org/2000/svg">
<path d="M25 0H0V25H25V0Z" fill="#1BD741"/>
<path d="M3.75732 21.2521L4.9819 16.9028C4.19442 15.565 3.77982 14.0429 3.77982 12.4793C3.77982 7.66477 7.69671 3.74788 12.5112 3.74788C17.3257 3.74788 21.2426 7.66477 21.2426 12.4793C21.2426 17.2938 17.3257 21.2107 12.5112 21.2107C11.0111 21.2107 9.5421 20.8267 8.24259 20.0975L3.75732 21.2521ZM8.47189 18.5091L8.73916 18.6723C9.87217 19.3639 11.1766 19.7296 12.5112 19.7296C16.509 19.7296 19.7614 16.4771 19.7614 12.4793C19.7614 8.48148 16.509 5.22902 12.5112 5.22902C8.51342 5.22902 5.26095 8.48148 5.26095 12.4793C5.26095 13.8723 5.65685 15.225 6.40576 16.3912L6.58575 16.6715L5.88056 19.1761L8.47189 18.5091Z" fill="white"/>
<path d="M10.0584 8.41543L9.49186 8.38455C9.3139 8.37484 9.13935 8.4343 9.00484 8.55115C8.73017 8.78967 8.29098 9.25079 8.15609 9.8517C7.95493 10.7477 8.26581 11.8448 9.07039 12.942C9.87498 14.0391 11.3744 15.7945 14.0258 16.5442C14.8802 16.7858 15.5523 16.623 16.0708 16.2912C16.4816 16.0285 16.7647 15.6068 16.8667 15.1301L16.9572 14.7076C16.9859 14.5733 16.9177 14.4371 16.793 14.3796L14.8782 13.497C14.7539 13.4397 14.6065 13.4759 14.5229 13.5843L13.7712 14.5587C13.7144 14.6324 13.6172 14.6616 13.5294 14.6307C13.0147 14.4498 11.2903 13.7276 10.3441 11.905C10.3031 11.826 10.3133 11.7301 10.3715 11.6626L11.0899 10.8316C11.1633 10.7467 11.1818 10.6274 11.1377 10.5242L10.3124 8.59322C10.2684 8.49042 10.1699 8.42152 10.0584 8.41543Z" fill="white"/>
</svg>
