<svg width="1200" height="427" viewBox="0 0 1200 427" fill="none" xmlns="http://www.w3.org/2000/svg">
<g opacity="0.6">
<path d="M1200 78H-14V79H1200V78Z" fill="#181818"/>
<path d="M1200 105H-14V106H1200V105Z" fill="#181818"/>
<path d="M1200 132H-14V133H1200V132Z" fill="#181818"/>
<path d="M1200 159H-14V160H1200V159Z" fill="#181818"/>
<path d="M1200 186H-14V187H1200V186Z" fill="#181818"/>
<path d="M1200 212H-14V213H1200V212Z" fill="#181818"/>
<path d="M1200 239H-14V240H1200V239Z" fill="#181818"/>
<path d="M1200 266H-14V267H1200V266Z" fill="#181818"/>
<path d="M1200 293H-14V294H1200V293Z" fill="#181818"/>
<path d="M1200 320H-14V321H1200V320Z" fill="#181818"/>
<path d="M1200 346H-14V347H1200V346Z" fill="#181818"/>
<path d="M1200 373H-14V374H1200V373Z" fill="#181818"/>
<path d="M1200 400H-14V401H1200V400Z" fill="#181818"/>
<path d="M1200 25H-15V26H1200V25Z" fill="#181818"/>
<path d="M1200 51H-14V52H1200V51Z" fill="#181818"/>
<path d="M67.8586 0H66.9062V427H67.8586V0Z" fill="#181818"/>
<path d="M42.1438 0H41.1914V427H42.1438V0Z" fill="#181818"/>
<path d="M16.4289 0H15.4766V427H16.4289V0Z" fill="#181818"/>
<path d="M93.5696 0H92.6172V427H93.5696V0Z" fill="#181818"/>
<path d="M119.284 0H118.332V427H119.284V0Z" fill="#181818"/>
<path d="M144.046 0H143.094V427H144.046V0Z" fill="#181818"/>
<path d="M169.761 0H168.809V427H169.761V0Z" fill="#181818"/>
<path d="M194.523 0H193.57V427H194.523V0Z" fill="#181818"/>
<path d="M219.284 0H218.332V427H219.284V0Z" fill="#181818"/>
<path d="M244.999 0H244.047V427H244.999V0Z" fill="#181818"/>
<path d="M270.714 0H269.762V427H270.714V0Z" fill="#181818"/>
<path d="M296.429 0H295.477V427H296.429V0Z" fill="#181818"/>
<path d="M322.144 0H321.191V427H322.144V0Z" fill="#181818"/>
<path d="M347.859 0H346.906V427H347.859V0Z" fill="#181818"/>
<path d="M372.62 0H371.668V427H372.62V0Z" fill="#181818"/>
<path d="M397.382 0H396.43V427H397.382V0Z" fill="#181818"/>
<path d="M423.097 0H422.145V427H423.097V0Z" fill="#181818"/>
<path d="M448.808 0H447.855V427H448.808V0Z" fill="#181818"/>
<path d="M474.523 0H473.57V427H474.523V0Z" fill="#181818"/>
<path d="M500.241 0H499.289V427H500.241V0Z" fill="#181818"/>
<path d="M524.999 0H524.047V427H524.999V0Z" fill="#181818"/>
<path d="M550.714 0H549.762V427H550.714V0Z" fill="#181818"/>
<path d="M601.191 0H600.238V427H601.191V0Z" fill="#181818"/>
<path d="M625.952 0H625V427H625.952V0Z" fill="#181818"/>
<path d="M651.667 0H650.715V427H651.667V0Z" fill="#181818"/>
<path d="M677.382 0H676.43V427H677.382V0Z" fill="#181818"/>
<path d="M703.093 0H702.141V427H703.093V0Z" fill="#181818"/>
<path d="M728.808 0H727.855V427H728.808V0Z" fill="#181818"/>
<path d="M753.57 0H752.617V427H753.57V0Z" fill="#181818"/>
<path d="M779.284 0H778.332V427H779.284V0Z" fill="#181818"/>
<path d="M804.046 0H803.094V427H804.046V0Z" fill="#181818"/>
<path d="M828.808 0H827.855V427H828.808V0Z" fill="#181818"/>
<path d="M854.523 0H853.57V427H854.523V0Z" fill="#181818"/>
<path d="M880.238 0H879.285V427H880.238V0Z" fill="#181818"/>
<path d="M905.952 0H905V427H905.952V0Z" fill="#181818"/>
<path d="M931.667 0H930.715V427H931.667V0Z" fill="#181818"/>
<path d="M957.382 0H956.43V427H957.382V0Z" fill="#181818"/>
<path d="M983.093 0H982.141V427H983.093V0Z" fill="#181818"/>
<path d="M1007.85 0H1006.9V427H1007.85V0Z" fill="#181818"/>
<path d="M1032.62 0H1031.67V427H1032.62V0Z" fill="#181818"/>
<path d="M1058.33 0H1057.38V427H1058.33V0Z" fill="#181818"/>
<path d="M1084.05 0H1083.09V427H1084.05V0Z" fill="#181818"/>
<path d="M1109.76 0H1108.81V427H1109.76V0Z" fill="#181818"/>
<path d="M1135.48 0H1134.52V427H1135.48V0Z" fill="#181818"/>
<path d="M1160.24 0H1159.29V427H1160.24V0Z" fill="#181818"/>
<path d="M1185.95 0H1185V427H1185.95V0Z" fill="#181818"/>
<path d="M575.476 0H574.523V427H575.476V0Z" fill="#181818"/>
</g>
</svg>
