<svg width="400" height="318" viewBox="0 0 400 318" fill="none" xmlns="http://www.w3.org/2000/svg">
<g opacity="0.44" clip-path="url(#clip0_1_473)">
<g opacity="0.9">
<g style="mix-blend-mode:multiply" opacity="0.1">
<path d="M387.838 207.751L360.57 157.763L333.531 107.688L279.857 7.25555L226.721 -93.4636L200.342 -143.923L174.233 -194.526L201.528 -144.553L228.554 -94.4367L282.256 5.98185L335.364 106.715L361.729 157.148L387.838 207.751Z" fill="url(#paint0_linear_1_473)"/>
<path d="M394.745 197.984L366.369 151.702L338.248 105.25L282.33 12.1748L226.964 -81.2283L199.49 -128.024L172.23 -175.002L200.606 -128.72L228.754 -82.2826L284.645 10.8073L340.011 104.21L367.499 151.033L394.745 197.984Z" fill="url(#paint1_linear_1_473)"/>
<path d="M401.68 188.208L372.197 145.631L342.955 102.858L284.82 17.1256L227.223 -68.9616L198.599 -112.132L170.203 -155.459L199.686 -112.883L228.929 -70.1096L287.063 15.623L344.66 101.71L373.284 144.881L401.68 188.208Z" fill="url(#paint2_linear_1_473)"/>
<path d="M408.589 178.44L378.025 139.555L347.676 100.488L287.338 22.0568L227.483 -56.7001L197.708 -96.2463L168.203 -135.936L198.74 -97.0365L229.089 -57.9689L289.455 20.4477L349.297 99.2459L379.057 138.765L408.589 178.44Z" fill="url(#paint3_linear_1_473)"/>
<path d="M415.497 168.678L383.853 133.484L352.409 98.0811L289.827 27.0075L227.728 -44.4604L196.858 -80.3422L166.176 -116.393L197.82 -81.1992L229.264 -45.7959L291.846 25.2777L353.946 96.7456L384.815 132.627L415.497 168.678Z" fill="url(#paint4_linear_1_473)"/>
<path d="M422.398 158.914L389.674 127.412L357.135 95.6732L292.351 31.9697L228.006 -32.2093L195.974 -64.4252L164.168 -96.8652L196.892 -65.3632L229.417 -33.6513L294.215 30.0793L358.56 94.2583L390.566 126.488L422.398 158.914Z" fill="url(#paint5_linear_1_473)"/>
<path d="M429.338 149.136L395.533 121.325L361.886 93.2918L294.899 36.8899L228.296 -19.9588L195.113 -48.5501L162.145 -77.3242L195.949 -49.5136L229.596 -21.4803L296.569 34.8946L363.172 91.7433L396.328 120.349L429.338 149.136Z" fill="url(#paint6_linear_1_473)"/>
<path d="M436.249 139.367L401.364 115.248L366.622 90.879L297.433 41.8471L228.585 -7.71258L194.266 -32.6522L160.105 -57.8145L195.005 -33.6681L229.732 -9.32627L298.936 39.7326L367.796 89.2511L402.088 114.205L436.249 139.367Z" fill="url(#paint7_linear_1_473)"/>
<path d="M443.154 129.604L407.215 109.161L371.393 88.4838L299.973 46.7679L228.867 4.53851L193.413 -16.7495L158.102 -38.2871L194.04 -17.8449L229.862 2.83263L301.282 44.5486L372.388 86.778L407.843 108.066L443.154 129.604Z" fill="url(#paint8_linear_1_473)"/>
<path d="M450.062 119.839L413.07 103.074L376.168 86.0881L302.531 51.7151L229.153 16.789L192.563 -0.847407L156.074 -18.7461L193.093 -1.99523L229.995 14.9909L303.605 49.3782L376.983 84.3043L413.574 101.941L450.062 119.839Z" fill="url(#paint9_linear_1_473)"/>
<path d="M456.998 110.058L418.925 96.9838L380.929 83.662L305.102 56.6177L229.467 29.0218L191.726 15.0101L154.074 0.777344L192.147 13.8512L230.143 27.173L305.97 54.2172L381.578 81.8274L419.332 95.7978L456.998 110.058Z" fill="url(#paint10_linear_1_473)"/>
<path d="M463.906 100.295L424.78 90.8986L385.689 81.2411L307.673 61.5256L229.78 41.26L190.876 30.9141L152.047 20.3203L191.2 29.7028L230.25 39.3475L308.28 59.0901L386.173 79.3557L425.078 89.7015L463.906 100.295Z" fill="url(#paint11_linear_1_473)"/>
<path d="M470.807 90.5318L430.614 84.7851L390.469 78.8047L310.236 66.4321L230.071 53.4697L190.031 46.7755L150.039 39.8477L190.218 45.5674L230.363 51.5478L310.61 63.9474L390.761 76.8827L430.801 83.5769L470.807 90.5318Z" fill="url(#paint12_linear_1_473)"/>
<path d="M477.716 80.7675L436.469 78.6978L395.229 76.3818L312.793 71.3109L230.37 65.6789L189.166 62.6506L148.012 59.3887L189.245 61.4313L230.484 63.7474L312.947 68.804L395.344 74.4503L436.547 77.4786L477.716 80.7675Z" fill="url(#paint13_linear_1_473)"/>
<path d="M484.654 70.9874L442.312 72.5821L400.005 73.916L315.352 76.1881L230.671 77.8863L188.332 78.5097L146 78.8867L188.315 77.3064L230.623 75.9724L315.275 73.7003L399.956 72.0021L442.295 71.3787L484.654 70.9874Z" fill="url(#paint14_linear_1_473)"/>
<path d="M491.563 61.2212L448.18 66.4516L404.751 71.4642L317.894 81.038L230.956 90.0665L187.495 94.3685L143.973 98.4258L187.355 93.1954L230.785 88.1828L317.627 78.582L404.553 69.5948L448.041 65.2784L491.563 61.2212Z" fill="url(#paint15_linear_1_473)"/>
<path d="M498.472 51.4556L454.021 60.3361L409.524 68.9987L320.451 85.9155L231.255 102.274L186.631 110.242L141.973 117.951L186.409 109.044L230.92 100.408L319.993 83.4913L409.162 67.1468L453.787 59.1788L498.472 51.4556Z" fill="url(#paint16_linear_1_473)"/>
<path d="M505.38 41.6894L459.862 54.2199L414.255 66.5199L322.993 90.7654L231.539 114.454L185.779 126.074L139.945 137.49L185.476 124.918L231.055 112.633L322.359 88.4L413.786 64.7252L459.559 53.0643L505.38 41.6894Z" fill="url(#paint17_linear_1_473)"/>
<path d="M512.315 31.9129L465.702 48.1077L419.001 64.072L325.494 95.6064L231.823 126.639L184.915 141.951L137.918 157.033L184.517 140.811L231.218 124.847L324.725 93.3127L418.41 62.3076L465.319 46.995L512.315 31.9129Z" fill="url(#paint18_linear_1_473)"/>
<path d="M519.202 22.1223L471.494 41.9814L423.725 61.5958L328.002 100.473L232.059 138.809L184.028 157.8L135.91 176.561L183.591 156.716L231.387 137.087L327.084 98.224L423.026 59.8886L471.084 40.883L519.202 22.1223Z" fill="url(#paint19_linear_1_473)"/>
<path d="M526.11 12.36L477.335 35.8692L428.457 59.1209L330.502 105.314L232.343 150.993L183.15 173.65L133.883 196.104L182.658 172.594L231.563 149.328L329.491 103.149L427.677 57.4566L476.843 34.8138L526.11 12.36Z" fill="url(#paint20_linear_1_473)"/>
<path d="M533.024 2.59172L483.166 29.7239L433.167 56.6542L333.008 110.149L232.592 163.158L182.276 189.494L131.873 215.599L181.731 188.467L231.731 161.537L331.904 108.069L432.32 55.0599L482.621 28.6971L533.024 2.59172Z" fill="url(#paint21_linear_1_473)"/>
</g>
<path d="M383.323 207.309L356.054 157.322L329.001 107.22L275.327 6.78711L222.206 -93.905L195.854 -144.379L169.717 -194.968L197.013 -144.994L224.065 -94.8925L277.726 5.51342L330.834 106.247L357.213 156.707L383.323 207.309Z" fill="url(#paint22_linear_1_473)"/>
<path d="M390.256 197.528L361.88 151.247L333.733 104.809L277.815 11.7334L222.449 -81.6697L194.96 -128.492L167.715 -175.443L196.091 -129.162L224.238 -82.724L280.129 10.3659L335.495 103.769L363.01 150.577L390.256 197.528Z" fill="url(#paint23_linear_1_473)"/>
<path d="M397.164 187.766L367.694 145.149L338.439 102.417L280.332 16.6699L222.708 -69.403L194.083 -112.574L165.688 -155.9L195.171 -113.324L224.399 -70.578L282.547 15.1816L340.144 101.269L368.768 144.44L397.164 187.766Z" fill="url(#paint24_linear_1_473)"/>
<path d="M404.073 177.999L373.495 139.087L343.173 100.005L282.822 21.6154L222.953 -57.1685L193.22 -96.702L163.688 -136.377L194.251 -97.4922L224.601 -58.4246L284.939 20.0063L344.794 98.7632L374.527 138.297L404.073 177.999Z" fill="url(#paint25_linear_1_473)"/>
<path d="M410.984 168.236L379.326 133.016L347.896 97.6394L285.341 26.5515L223.241 -44.9164L192.345 -80.7839L161.648 -116.861L193.307 -81.6409L224.778 -46.252L287.318 24.8089L349.418 96.2768L380.329 132.171L410.984 168.236Z" fill="url(#paint26_linear_1_473)"/>
<path d="M417.912 158.458L385.174 126.929L352.622 95.2316L287.851 31.4866L223.493 -32.651L191.473 -64.9082L159.641 -97.334L192.379 -65.8049L224.904 -34.0931L289.702 29.6376L354.033 93.7895L386.08 126.032L417.912 158.458Z" fill="url(#paint27_linear_1_473)"/>
<path d="M424.821 148.696L391.002 120.858L357.355 92.825L290.382 36.4501L223.779 -20.3986L190.596 -48.9899L157.613 -77.791L191.432 -49.9533L225.065 -21.9471L292.052 34.4548L358.655 91.3035L391.838 119.895L424.821 148.696Z" fill="url(#paint28_linear_1_473)"/>
<path d="M431.73 138.928L396.83 114.782L362.13 90.4259L292.899 41.3813L224.066 -8.15141L189.747 -33.091L155.613 -58.2676L190.471 -34.134L225.213 -9.76509L294.402 39.2668L363.277 88.8122L397.569 113.766L431.73 138.928Z" fill="url(#paint29_linear_1_473)"/>
<path d="M438.638 129.162L402.685 108.693L366.878 88.0425L295.457 46.3265L224.352 4.09709L188.897 -17.1909L153.586 -38.7285L189.551 -18.3006L225.346 2.39123L296.767 44.1072L367.872 86.3366L403.327 107.625L438.638 129.162Z" fill="url(#paint30_linear_1_473)"/>
<path d="M445.578 119.382L408.544 102.604L371.642 85.6183L298.006 51.2454L224.642 16.3462L188.037 -1.31715L151.59 -19.2031L188.582 -2.43794L225.484 14.5482L299.121 48.9211L372.499 83.8473L409.089 101.484L445.578 119.382Z" fill="url(#paint31_linear_1_473)"/>
<path d="M452.482 109.616L414.395 96.5154L376.413 83.2206L300.587 56.1763L224.951 28.5804L187.21 14.5687L149.559 0.335938L187.631 13.4097L225.614 26.7045L301.44 53.7488L377.09 81.3717L414.817 95.3564L452.482 109.616Z" fill="url(#paint32_linear_1_473)"/>
<path d="M459.379 99.8266L420.253 90.4298L381.203 80.7851L303.16 61.0838L225.252 40.7912L186.363 30.4724L147.52 19.8516L186.687 29.261L225.737 38.9058L303.78 58.607L381.66 78.914L420.55 89.2328L459.379 99.8266Z" fill="url(#paint33_linear_1_473)"/>
<path d="M466.28 90.063L426.101 84.3433L385.956 78.3629L305.709 65.9633L225.558 53.028L185.518 46.3338L145.512 39.3789L185.705 45.1256L225.85 51.106L306.083 63.4786L386.248 76.4409L426.288 83.1351L466.28 90.063Z" fill="url(#paint34_linear_1_473)"/>
<path d="M473.215 80.2864L431.941 78.2311L390.728 75.9007L308.28 70.8711L225.857 65.2391L184.68 62.1965L143.484 58.9219L184.758 60.9772L225.971 63.3076L308.434 68.3642L390.857 73.9963L432.019 77.0118L473.215 80.2864Z" fill="url(#paint35_linear_1_473)"/>
<path d="M480.124 70.5189L437.824 72.1263L395.489 73.4746L310.837 75.7467L226.183 77.4306L183.816 78.0683L141.484 78.4453L183.785 76.8379L226.134 75.5167L310.786 73.2446L395.44 71.5606L437.765 70.9102L480.124 70.5189Z" fill="url(#paint36_linear_1_473)"/>
<path d="M487.033 60.7528L443.664 66.0102L400.262 71.0085L313.379 80.5966L226.467 89.6108L182.979 93.9271L139.457 97.9844L182.852 92.7126L226.255 87.7143L313.111 78.1406L400.05 69.112L443.511 64.81L487.033 60.7528Z" fill="url(#paint37_linear_1_473)"/>
<path d="M493.942 50.9872L449.505 59.8946L404.994 68.5303L315.921 85.4471L226.752 101.792L182.115 109.801L137.457 117.51L181.893 108.602L226.39 99.9397L315.477 83.0499L404.647 66.7054L449.298 58.7231L493.942 50.9872Z" fill="url(#paint38_linear_1_473)"/>
<path d="M500.877 41.2068L455.346 53.7785L409.74 66.0785L318.463 90.2969L227.009 113.986L181.263 125.633L135.43 137.049L180.961 124.477L226.567 112.177L317.843 87.9586L409.271 64.2838L455.043 52.6229L500.877 41.2068Z" fill="url(#paint39_linear_1_473)"/>
<path d="M507.781 31.4467L461.167 47.6415L414.467 63.6058L320.973 95.1673L227.289 126.172L180.38 141.485L133.41 156.553L180.023 140.358L226.697 124.408L320.205 92.8735L413.89 61.8684L460.784 46.5288L507.781 31.4467Z" fill="url(#paint40_linear_1_473)"/>
<path d="M514.689 21.6806L467.008 41.5254L419.213 61.154L323.474 100.004L227.573 138.353L179.515 157.358L131.383 176.092L179.064 156.247L226.874 136.645L322.598 97.7679L418.513 59.4469L466.571 40.4413L514.689 21.6806Z" fill="url(#paint41_linear_1_473)"/>
<path d="M521.602 11.917L472.812 35.3991L423.948 58.6778L325.994 104.871L227.82 150.523L178.668 173.192L129.387 195.619L178.15 172.151L227.04 148.858L324.982 102.706L423.168 57.0135L472.32 34.3437L521.602 11.917Z" fill="url(#paint42_linear_1_473)"/>
<path d="M528.534 2.13564L478.65 29.2821L428.65 56.2125L328.491 109.708L228.075 162.716L177.786 189.038L127.356 215.157L177.241 188.011L227.214 161.095L327.372 107.6L427.789 54.5911L478.104 28.2553L528.534 2.13564Z" fill="url(#paint43_linear_1_473)"/>
</g>
</g>
<defs>
<linearGradient id="paint0_linear_1_473" x1="174.246" y1="-194.533" x2="387.852" y2="207.744" gradientUnits="userSpaceOnUse">
<stop stop-color="#CFCFCF"/>
<stop offset="1" stop-color="#B0B0B0"/>
</linearGradient>
<linearGradient id="paint1_linear_1_473" x1="181.771" y1="-180.068" x2="385.204" y2="203.05" gradientUnits="userSpaceOnUse">
<stop stop-color="#CFCFCF"/>
<stop offset="1" stop-color="#B0B0B0"/>
</linearGradient>
<linearGradient id="paint2_linear_1_473" x1="189.312" y1="-165.606" x2="382.571" y2="198.354" gradientUnits="userSpaceOnUse">
<stop stop-color="#CFCFCF"/>
<stop offset="1" stop-color="#B0B0B0"/>
</linearGradient>
<linearGradient id="paint3_linear_1_473" x1="196.853" y1="-151.148" x2="379.939" y2="193.653" gradientUnits="userSpaceOnUse">
<stop stop-color="#CFCFCF"/>
<stop offset="1" stop-color="#B0B0B0"/>
</linearGradient>
<linearGradient id="paint4_linear_1_473" x1="204.38" y1="-136.679" x2="377.293" y2="188.964" gradientUnits="userSpaceOnUse">
<stop stop-color="#CFCFCF"/>
<stop offset="1" stop-color="#B0B0B0"/>
</linearGradient>
<linearGradient id="paint5_linear_1_473" x1="211.913" y1="-122.217" x2="374.653" y2="184.266" gradientUnits="userSpaceOnUse">
<stop stop-color="#CFCFCF"/>
<stop offset="1" stop-color="#B0B0B0"/>
</linearGradient>
<linearGradient id="paint6_linear_1_473" x1="219.458" y1="-107.757" x2="372.025" y2="179.568" gradientUnits="userSpaceOnUse">
<stop stop-color="#CFCFCF"/>
<stop offset="1" stop-color="#B0B0B0"/>
</linearGradient>
<linearGradient id="paint7_linear_1_473" x1="226.973" y1="-93.3205" x2="369.381" y2="174.873" gradientUnits="userSpaceOnUse">
<stop stop-color="#CFCFCF"/>
<stop offset="1" stop-color="#B0B0B0"/>
</linearGradient>
<linearGradient id="paint8_linear_1_473" x1="234.51" y1="-78.8593" x2="366.745" y2="170.176" gradientUnits="userSpaceOnUse">
<stop stop-color="#CFCFCF"/>
<stop offset="1" stop-color="#B0B0B0"/>
</linearGradient>
<linearGradient id="paint9_linear_1_473" x1="242.037" y1="-64.3916" x2="364.099" y2="165.485" gradientUnits="userSpaceOnUse">
<stop stop-color="#CFCFCF"/>
<stop offset="1" stop-color="#B0B0B0"/>
</linearGradient>
<linearGradient id="paint10_linear_1_473" x1="249.591" y1="-49.9414" x2="361.481" y2="160.776" gradientUnits="userSpaceOnUse">
<stop stop-color="#CFCFCF"/>
<stop offset="1" stop-color="#B0B0B0"/>
</linearGradient>
<linearGradient id="paint11_linear_1_473" x1="257.119" y1="-35.4718" x2="358.835" y2="156.087" gradientUnits="userSpaceOnUse">
<stop stop-color="#CFCFCF"/>
<stop offset="1" stop-color="#B0B0B0"/>
</linearGradient>
<linearGradient id="paint12_linear_1_473" x1="264.652" y1="-21.0106" x2="356.195" y2="151.39" gradientUnits="userSpaceOnUse">
<stop stop-color="#CFCFCF"/>
<stop offset="1" stop-color="#B0B0B0"/>
</linearGradient>
<linearGradient id="paint13_linear_1_473" x1="272.179" y1="-6.54288" x2="353.549" y2="146.699" gradientUnits="userSpaceOnUse">
<stop stop-color="#CFCFCF"/>
<stop offset="1" stop-color="#B0B0B0"/>
</linearGradient>
<linearGradient id="paint14_linear_1_473" x1="279.721" y1="7.88186" x2="350.933" y2="141.992" gradientUnits="userSpaceOnUse">
<stop stop-color="#CFCFCF"/>
<stop offset="1" stop-color="#B0B0B0"/>
</linearGradient>
<linearGradient id="paint15_linear_1_473" x1="287.249" y1="22.3476" x2="348.287" y2="137.299" gradientUnits="userSpaceOnUse">
<stop stop-color="#CFCFCF"/>
<stop offset="1" stop-color="#B0B0B0"/>
</linearGradient>
<linearGradient id="paint16_linear_1_473" x1="294.789" y1="36.8068" x2="345.655" y2="132.6" gradientUnits="userSpaceOnUse">
<stop stop-color="#CFCFCF"/>
<stop offset="1" stop-color="#B0B0B0"/>
</linearGradient>
<linearGradient id="paint17_linear_1_473" x1="302.317" y1="51.2726" x2="343.009" y2="127.907" gradientUnits="userSpaceOnUse">
<stop stop-color="#CFCFCF"/>
<stop offset="1" stop-color="#B0B0B0"/>
</linearGradient>
<linearGradient id="paint18_linear_1_473" x1="309.857" y1="65.7351" x2="340.376" y2="123.211" gradientUnits="userSpaceOnUse">
<stop stop-color="#CFCFCF"/>
<stop offset="1" stop-color="#B0B0B0"/>
</linearGradient>
<linearGradient id="paint19_linear_1_473" x1="317.39" y1="80.1963" x2="337.722" y2="118.487" gradientUnits="userSpaceOnUse">
<stop stop-color="#CFCFCF"/>
<stop offset="1" stop-color="#B0B0B0"/>
</linearGradient>
<linearGradient id="paint20_linear_1_473" x1="324.917" y1="94.666" x2="335.076" y2="113.798" gradientUnits="userSpaceOnUse">
<stop stop-color="#CFCFCF"/>
<stop offset="1" stop-color="#B0B0B0"/>
</linearGradient>
<linearGradient id="paint21_linear_1_473" x1="331.904" y1="108.069" x2="333.008" y2="110.149" gradientUnits="userSpaceOnUse">
<stop stop-color="#CFCFCF"/>
<stop offset="1" stop-color="#B0B0B0"/>
</linearGradient>
<linearGradient id="paint22_linear_1_473" x1="169.731" y1="-194.975" x2="383.336" y2="207.302" gradientUnits="userSpaceOnUse">
<stop stop-color="#CFCFCF"/>
<stop offset="1" stop-color="#B0B0B0"/>
</linearGradient>
<linearGradient id="paint23_linear_1_473" x1="177.269" y1="-180.517" x2="380.702" y2="202.602" gradientUnits="userSpaceOnUse">
<stop stop-color="#CFCFCF"/>
<stop offset="1" stop-color="#B0B0B0"/>
</linearGradient>
<linearGradient id="paint24_linear_1_473" x1="184.796" y1="-166.047" x2="378.056" y2="197.913" gradientUnits="userSpaceOnUse">
<stop stop-color="#CFCFCF"/>
<stop offset="1" stop-color="#B0B0B0"/>
</linearGradient>
<linearGradient id="paint25_linear_1_473" x1="192.337" y1="-151.59" x2="375.424" y2="193.211" gradientUnits="userSpaceOnUse">
<stop stop-color="#CFCFCF"/>
<stop offset="1" stop-color="#B0B0B0"/>
</linearGradient>
<linearGradient id="paint26_linear_1_473" x1="199.853" y1="-137.147" x2="372.78" y2="188.522" gradientUnits="userSpaceOnUse">
<stop stop-color="#CFCFCF"/>
<stop offset="1" stop-color="#B0B0B0"/>
</linearGradient>
<linearGradient id="paint27_linear_1_473" x1="207.399" y1="-122.693" x2="370.154" y2="183.818" gradientUnits="userSpaceOnUse">
<stop stop-color="#CFCFCF"/>
<stop offset="1" stop-color="#B0B0B0"/>
</linearGradient>
<linearGradient id="paint28_linear_1_473" x1="214.926" y1="-108.224" x2="367.508" y2="179.129" gradientUnits="userSpaceOnUse">
<stop stop-color="#CFCFCF"/>
<stop offset="1" stop-color="#B0B0B0"/>
</linearGradient>
<linearGradient id="paint29_linear_1_473" x1="222.467" y1="-93.7664" x2="364.876" y2="174.427" gradientUnits="userSpaceOnUse">
<stop stop-color="#CFCFCF"/>
<stop offset="1" stop-color="#B0B0B0"/>
</linearGradient>
<linearGradient id="paint30_linear_1_473" x1="229.994" y1="-79.3007" x2="362.23" y2="169.734" gradientUnits="userSpaceOnUse">
<stop stop-color="#CFCFCF"/>
<stop offset="1" stop-color="#B0B0B0"/>
</linearGradient>
<linearGradient id="paint31_linear_1_473" x1="237.553" y1="-64.8486" x2="359.615" y2="165.028" gradientUnits="userSpaceOnUse">
<stop stop-color="#CFCFCF"/>
<stop offset="1" stop-color="#B0B0B0"/>
</linearGradient>
<linearGradient id="paint32_linear_1_473" x1="245.076" y1="-50.3828" x2="356.965" y2="160.335" gradientUnits="userSpaceOnUse">
<stop stop-color="#CFCFCF"/>
<stop offset="1" stop-color="#B0B0B0"/>
</linearGradient>
<linearGradient id="paint33_linear_1_473" x1="252.591" y1="-35.9405" x2="354.307" y2="155.619" gradientUnits="userSpaceOnUse">
<stop stop-color="#CFCFCF"/>
<stop offset="1" stop-color="#B0B0B0"/>
</linearGradient>
<linearGradient id="paint34_linear_1_473" x1="260.124" y1="-21.4793" x2="351.667" y2="150.921" gradientUnits="userSpaceOnUse">
<stop stop-color="#CFCFCF"/>
<stop offset="1" stop-color="#B0B0B0"/>
</linearGradient>
<linearGradient id="paint35_linear_1_473" x1="267.665" y1="-7.01682" x2="349.035" y2="146.225" gradientUnits="userSpaceOnUse">
<stop stop-color="#CFCFCF"/>
<stop offset="1" stop-color="#B0B0B0"/>
</linearGradient>
<linearGradient id="paint36_linear_1_473" x1="275.206" y1="7.44045" x2="346.403" y2="141.524" gradientUnits="userSpaceOnUse">
<stop stop-color="#CFCFCF"/>
<stop offset="1" stop-color="#B0B0B0"/>
</linearGradient>
<linearGradient id="paint37_linear_1_473" x1="282.733" y1="21.9062" x2="343.757" y2="136.831" gradientUnits="userSpaceOnUse">
<stop stop-color="#CFCFCF"/>
<stop offset="1" stop-color="#B0B0B0"/>
</linearGradient>
<linearGradient id="paint38_linear_1_473" x1="290.274" y1="36.3654" x2="341.125" y2="132.132" gradientUnits="userSpaceOnUse">
<stop stop-color="#CFCFCF"/>
<stop offset="1" stop-color="#B0B0B0"/>
</linearGradient>
<linearGradient id="paint39_linear_1_473" x1="297.814" y1="50.8241" x2="338.492" y2="127.432" gradientUnits="userSpaceOnUse">
<stop stop-color="#CFCFCF"/>
<stop offset="1" stop-color="#B0B0B0"/>
</linearGradient>
<linearGradient id="paint40_linear_1_473" x1="305.336" y1="65.2618" x2="335.855" y2="122.738" gradientUnits="userSpaceOnUse">
<stop stop-color="#CFCFCF"/>
<stop offset="1" stop-color="#B0B0B0"/>
</linearGradient>
<linearGradient id="paint41_linear_1_473" x1="312.863" y1="79.7276" x2="333.209" y2="118.045" gradientUnits="userSpaceOnUse">
<stop stop-color="#CFCFCF"/>
<stop offset="1" stop-color="#B0B0B0"/>
</linearGradient>
<linearGradient id="paint42_linear_1_473" x1="320.408" y1="94.1887" x2="330.581" y2="113.347" gradientUnits="userSpaceOnUse">
<stop stop-color="#CFCFCF"/>
<stop offset="1" stop-color="#B0B0B0"/>
</linearGradient>
<linearGradient id="paint43_linear_1_473" x1="327.386" y1="107.593" x2="328.505" y2="109.7" gradientUnits="userSpaceOnUse">
<stop stop-color="#CFCFCF"/>
<stop offset="1" stop-color="#B0B0B0"/>
</linearGradient>
<clipPath id="clip0_1_473">
<rect width="457.98" height="457.98" fill="white" transform="translate(-33.2031 -87.2188) rotate(-27.9679)"/>
</clipPath>
</defs>
</svg>
