<svg width="293" height="251" viewBox="0 0 293 251" fill="none" xmlns="http://www.w3.org/2000/svg">
<g opacity="0.44">
<path d="M333.782 1.62382C336.224 -4.34245 336.493 -9.75282 334.489 -14.4075C329.577 -25.8095 311.155 -31.3105 283.97 -29.523C230.909 -26.0237 158.876 3.64933 123.37 36.6361C107.166 51.6979 100.653 65.5756 105.04 75.7253C109.951 87.1272 128.374 92.6282 155.559 90.8408C208.619 87.3415 280.659 57.6526 316.159 24.6817C324.947 16.5147 330.893 8.68498 333.789 1.60796L333.782 1.62382ZM124.055 37.361C159.41 4.51635 231.175 -25.0442 284.045 -28.5291C310.793 -30.2913 328.838 -25.0003 333.588 -14.0167C337.79 -4.27594 331.363 9.21082 315.49 23.9632C280.134 56.8079 208.369 86.3684 155.5 89.8533C128.751 91.6156 110.706 86.3245 105.956 75.3409C101.755 65.6002 108.181 52.1134 124.055 37.361Z" fill="url(#paint0_linear_1_418)"/>
<path d="M336.725 -2.16385C339.575 -9.12979 339.79 -15.3588 337.226 -20.5019C331.231 -32.5142 310.708 -37.411 280.893 -33.9028C224.684 -27.2828 151.437 6.89532 117.628 42.2993C102.776 57.8589 97.3291 71.8947 102.3 81.8389C108.296 93.8512 128.818 98.748 158.634 95.2398C214.842 88.6198 288.089 54.4417 321.898 19.0377C329.09 11.5139 334.062 4.34191 336.731 -2.17974L336.725 -2.16385ZM103.7 63.8868C106.316 57.4921 111.244 50.4312 118.348 42.9832C152.023 7.72776 224.995 -26.322 281.006 -32.9117C310.372 -36.363 330.533 -31.6696 336.338 -20.0505C341.101 -10.5059 335.718 3.14833 321.171 18.3697C287.497 53.6251 214.525 87.6748 158.514 94.2646C129.148 97.7158 108.987 93.0225 103.182 81.4033C100.753 76.5192 100.966 70.5672 103.7 63.8868Z" fill="url(#paint1_linear_1_418)"/>
<path d="M339.232 -5.71432C342.589 -13.9179 342.723 -21.1251 339.463 -26.8308C332.243 -39.4736 309.496 -43.5952 277.073 -38.1528C217.877 -28.2166 143.919 10.5979 112.202 48.3585C98.8022 64.3085 94.4939 78.4583 100.055 88.1812C107.275 100.824 130.023 104.946 162.439 99.5191C221.635 89.5829 295.593 50.7684 327.31 13.0077C332.864 6.40704 336.849 0.109136 339.226 -5.69846L339.232 -5.71432ZM101.191 67.4348C103.522 61.7383 107.474 55.5197 112.964 48.9854C144.546 11.3733 218.233 -27.2746 277.231 -37.1805C309.22 -42.5595 331.587 -38.5937 338.593 -26.3347C343.935 -16.9797 339.665 -3.24025 326.554 12.365C294.972 49.9771 221.286 88.625 162.287 98.5309C130.298 103.91 107.931 99.9441 100.925 87.685C97.8165 82.2448 97.9571 75.337 101.191 67.4348Z" fill="url(#paint2_linear_1_418)"/>
<path d="M341.431 -9.09438C345.379 -18.742 345.304 -26.9791 341.14 -33.3702C332.505 -46.6291 307.464 -49.8551 272.468 -42.2426C210.493 -28.7752 136.344 14.7593 107.166 54.7815C95.1376 71.274 92.1183 85.0807 98.3969 94.7264C107.032 107.985 132.072 111.211 167.069 103.599C229.043 90.1315 303.192 46.5969 332.37 6.57473C336.413 1.0414 339.431 -4.20711 341.431 -9.09438ZM99.0095 70.8207C100.977 66.0128 103.963 60.8436 107.964 55.3673C137.016 15.516 210.909 -27.8455 272.686 -41.2825C307.274 -48.8028 331.934 -45.7326 340.327 -32.8322C346.369 -23.5608 343.344 -10.1458 331.589 5.99545C302.536 45.8467 228.643 89.2082 166.866 102.645C132.278 110.166 107.618 107.095 99.2257 94.1949C95.2434 88.0823 95.2074 80.1575 99.0189 70.8431L99.0095 70.8207Z" fill="url(#paint3_linear_1_418)"/>
<path d="M342.986 -11.805C347.707 -23.3408 347.471 -32.996 342.198 -40.1186C331.96 -53.941 304.561 -56.1128 267.03 -46.1101C202.539 -28.893 128.751 19.4201 102.564 61.5928C92.1896 78.299 90.377 92.0993 97.3358 101.486C107.574 115.309 134.973 117.48 172.503 107.478C236.994 90.2605 310.783 41.9474 336.969 -0.225272C339.472 -4.25848 341.479 -8.12366 342.986 -11.805ZM97.4454 73.5585C98.9258 69.9406 100.914 66.123 103.388 62.1151C129.465 20.1198 202.984 -27.9885 267.265 -45.1436C303.829 -54.9119 331.53 -52.8014 341.381 -39.5265C348.075 -30.4888 346.256 -17.0802 336.107 -0.744682C310.03 41.2505 236.511 89.3589 172.231 106.514C135.667 116.282 107.965 114.172 98.1141 100.897C93.0549 94.0658 92.8676 84.7452 97.4454 73.5585Z" fill="url(#paint4_linear_1_418)"/>
<path d="M344.007 -13.8014C349.709 -27.7332 349.232 -39.1542 342.545 -47.0776C330.641 -61.1742 300.062 -62.1836 260.764 -49.7179C194.039 -28.5801 121.244 24.5485 98.4989 68.7223C89.8201 85.5852 89.3008 99.3034 96.9845 108.413C108.905 122.516 139.474 123.503 178.766 111.053C245.491 89.9152 318.286 36.7866 341.031 -7.38723C342.15 -9.5784 343.157 -11.7227 344.007 -13.8014ZM99.3803 69.1942C122.018 25.236 194.544 -27.6878 261.059 -48.7636C299.967 -61.0923 330.153 -60.207 341.795 -46.4212C349.208 -37.6453 348.637 -24.3 340.152 -7.8208C317.514 36.1374 244.988 89.0612 178.474 110.137C139.565 122.466 109.38 121.58 97.7376 107.795C90.3251 99.0186 90.8955 85.6734 99.3803 69.1942Z" fill="url(#paint5_linear_1_418)"/>
<path d="M344.474 -14.8078L344.48 -14.8237C351.408 -31.7546 350.567 -45.3625 342.092 -54.166C328.105 -68.6517 295.044 -68.213 253.61 -52.972C184.987 -27.7389 113.869 30.2074 95.0519 76.1921L95.0454 76.208C88.1171 93.1388 88.9582 106.747 97.4339 115.55C111.42 130.036 144.488 129.581 185.916 114.356C254.539 89.1231 325.656 31.1769 344.474 -14.8078ZM95.9629 76.5463C114.689 30.7838 185.55 -26.8971 253.956 -52.0523C295.001 -67.1563 327.693 -67.6903 341.389 -53.4903C349.581 -44.9883 350.355 -31.7597 343.582 -15.2097L343.576 -15.1938C324.849 30.5687 253.989 88.2496 185.582 113.405C144.538 128.509 111.852 129.027 98.1495 114.843C89.9579 106.341 89.1839 93.1122 95.9564 76.5622L95.9629 76.5463Z" fill="url(#paint6_linear_1_418)"/>
<path d="M344.46 -14.7664C345.544 -17.4163 346.479 -20.0164 347.254 -22.5892C352.38 -39.5534 350.121 -53.0007 340.726 -61.4581C324.401 -76.1597 288.834 -74.0788 245.577 -55.8785C175.43 -26.3784 106.657 36.343 92.2677 83.9547C87.1412 100.919 89.4003 114.366 98.7957 122.824C115.121 137.525 150.688 135.444 193.944 117.244C260.312 89.3283 325.454 31.6785 344.453 -14.7505L344.46 -14.7664ZM96.0011 76.4609C114.909 30.254 179.808 -27.162 245.968 -54.9776C288.86 -73.012 324.046 -75.1564 340.073 -60.7246C349.156 -52.5435 351.319 -39.4504 346.317 -22.88C332.016 24.4713 263.499 86.9274 193.582 116.318C150.69 134.352 115.504 136.497 99.4767 122.065C90.3943 113.884 88.2311 100.791 93.2335 84.2203C94.0019 81.6634 94.9298 79.0791 96.0076 76.445L96.0011 76.4609Z" fill="url(#paint7_linear_1_418)"/>
<path d="M343.971 -13.4042C346.393 -19.3228 348.168 -25.062 349.227 -30.5935C352.507 -47.5723 348.734 -60.8055 338.307 -68.8699C319.339 -83.5414 281.328 -79.6078 236.618 -58.353C165.357 -24.4553 99.7141 42.9743 90.2717 91.9432C86.9917 108.922 90.7648 122.155 101.192 130.22C120.159 144.891 158.17 140.958 202.88 119.703C266.095 89.6257 324.92 33.1518 343.971 -13.4042ZM96.4671 75.083C115.421 28.765 174.034 -27.4622 237.047 -57.455C281.415 -78.5533 319.038 -82.5345 337.705 -68.0787C347.806 -60.2588 351.455 -47.3546 348.26 -30.7667C347.205 -25.2893 345.443 -19.5819 343.041 -13.7108C324.087 32.6071 265.474 88.8344 202.461 118.827C158.093 139.925 120.47 143.907 101.803 129.451C91.7018 121.631 88.0534 108.727 91.2476 92.1388C92.3034 86.6614 94.0646 80.954 96.4671 75.083Z" fill="url(#paint8_linear_1_418)"/>
<path d="M343.092 -10.4717C347.157 -20.4049 349.674 -29.9523 350.391 -38.8104C351.748 -55.7981 346.339 -68.7928 334.725 -76.3985C312.828 -90.7494 272.483 -84.7329 226.796 -60.3212C154.913 -21.9169 93.1599 50.0868 89.153 100.169C87.796 117.156 93.2043 130.151 104.819 137.757C126.715 152.108 167.061 146.091 212.748 121.679C271.902 90.0705 324.197 35.7035 343.092 -10.4717ZM97.3663 72.1299C116.164 26.1928 168.285 -27.9304 227.254 -59.4484C272.608 -83.6813 312.591 -89.7165 334.164 -75.572C345.456 -68.1725 350.711 -55.4816 349.385 -38.8884C345.387 10.9004 283.875 82.5399 212.251 120.809C166.897 145.042 126.915 151.078 105.342 136.933C94.0498 129.533 88.795 116.843 90.1203 100.249C90.8266 91.4613 93.3182 81.9773 97.3505 72.1234L97.3663 72.1299Z" fill="url(#paint9_linear_1_418)"/>
<path d="M341.865 -5.67229C347.923 -20.4769 351.034 -34.598 350.57 -47.181C349.924 -64.21 342.706 -76.9451 329.702 -84.0079C304.632 -97.6198 262.138 -89.2961 216.041 -61.7548C144.052 -18.7443 87.0425 57.6461 88.9639 108.542C89.6091 125.571 96.8279 138.306 109.832 145.369C134.902 158.981 177.396 150.657 223.493 123.116C277.699 90.7419 323.411 39.4238 341.865 -5.67229ZM98.5612 67.3429C116.924 22.4689 162.491 -28.6306 216.528 -60.9072C262.33 -88.2726 304.464 -96.5768 329.214 -83.133C341.904 -76.2542 348.941 -63.7975 349.573 -47.1443C351.478 3.42994 294.685 79.4273 222.974 122.255C177.171 149.621 135.038 157.925 110.288 144.481C97.5976 137.602 90.5613 125.146 89.9289 108.492C89.4513 96.0335 92.555 82.0205 98.5612 67.3429Z" fill="url(#paint10_linear_1_418)"/>
<path d="M340.489 1.12236C348.911 -19.4581 352.438 -39.0776 349.736 -55.6517C346.945 -72.7805 337.712 -85.21 323.028 -91.6079C294.605 -103.998 250.242 -93.1423 204.35 -62.5715C132.811 -14.9123 81.4073 65.6614 89.7691 117.025C92.5594 134.154 101.793 146.584 116.477 152.982C144.9 165.372 189.263 154.516 235.155 123.945C283.601 91.6595 322.821 44.2985 340.489 1.12236ZM99.9169 60.5833C117.494 17.6293 156.589 -29.5607 204.904 -61.752C250.511 -92.1245 294.514 -102.961 322.642 -90.7099C336.999 -84.4642 346.037 -72.2814 348.77 -55.5097C357.083 -4.48037 305.868 75.6332 234.623 123.116C189.016 153.489 145.013 164.325 116.885 152.074C102.528 145.829 93.4899 133.646 90.7572 116.874C88.0887 100.443 91.5825 80.9957 99.9328 60.5898L99.9169 60.5833Z" fill="url(#paint11_linear_1_418)"/>
<path d="M339.218 9.89523C350.354 -17.3179 353.967 -43.4413 347.789 -64.1978C342.641 -81.4949 331.112 -93.5669 314.447 -99.1081C282.591 -109.717 236.735 -96.1191 191.786 -62.7359C121.293 -10.3882 76.3943 74.0704 91.7085 125.556C96.8568 142.853 108.385 154.925 125.05 160.467C156.906 171.076 202.762 157.478 247.712 124.094C289.778 92.866 322.731 50.1834 339.211 9.91111L339.218 9.89523ZM101.191 51.8175C117.599 11.7198 150.449 -30.8013 192.391 -61.951C237.094 -95.1388 282.609 -108.673 314.157 -98.1712C330.507 -92.7216 341.818 -80.8869 346.857 -63.9123C362.05 -12.8094 317.325 71.1825 247.129 123.3C202.426 156.488 156.927 170.028 125.379 159.527C109.029 154.077 97.7246 142.227 92.6787 125.268C86.5693 104.706 90.146 78.8086 101.191 51.8175Z" fill="url(#paint12_linear_1_418)"/>
<path d="M338.389 20.4293C352.531 -14.1307 355.739 -47.7742 344.672 -72.6989C336.877 -90.227 322.721 -101.855 303.685 -106.31C268.509 -114.555 221.665 -98.0447 178.364 -62.1714C109.569 -5.14593 72.1054 82.8737 94.8402 134.062C102.636 151.59 116.791 163.218 135.827 167.673C171.004 175.917 217.847 159.407 261.148 123.534C296.443 94.2772 323.487 56.8457 338.389 20.4293ZM101.999 41.329C116.836 5.07119 143.806 -32.224 178.998 -61.4118C222.059 -97.1055 268.593 -113.538 303.464 -105.363C322.173 -100.968 336.113 -89.539 343.771 -72.308C366.331 -21.5066 328.989 65.9886 260.521 122.759C217.46 158.452 170.926 174.885 136.054 166.71C117.339 162.331 103.405 150.886 95.7477 133.655C84.7837 108.976 87.9738 75.6033 101.999 41.329Z" fill="url(#paint13_linear_1_418)"/>
<path d="M338.459 32.1657C355.783 -10.1694 357.775 -52.2948 340.286 -81.1259C329.462 -98.9486 312.229 -109.983 290.456 -113.002C252.248 -118.319 205.03 -98.8128 164.097 -60.8035C97.72 0.860821 68.6145 92.0413 99.2447 142.496C110.069 160.319 127.301 171.353 149.067 174.388C187.276 179.705 234.494 160.199 275.42 122.205C303.863 95.7944 325.46 63.9329 338.446 32.1974L338.459 32.1657ZM101.947 29.5996C114.881 -2.00889 136.41 -33.75 164.773 -60.1009C205.475 -97.9082 252.393 -117.315 290.305 -112.045C311.776 -109.057 328.765 -98.1964 339.431 -80.6232C369.817 -30.5654 340.801 60.0777 274.754 121.433C234.052 159.24 187.135 178.647 149.206 173.37C127.736 170.382 110.747 159.522 100.08 141.948C82.7409 113.383 84.7432 71.595 101.931 29.5931L101.947 29.5996Z" fill="url(#paint14_linear_1_418)"/>
<path d="M339.827 44.4357C360.378 -5.78569 360.042 -57.1626 334.531 -89.3874C320.169 -107.528 299.431 -117.737 274.507 -118.896C233.804 -120.788 186.891 -98.2672 149.027 -58.6131C85.7909 7.59712 66.0179 101.504 104.977 150.754C119.339 168.894 140.077 179.103 165.001 180.262C205.704 182.154 252.617 159.634 290.481 119.979C312.325 97.1109 328.983 70.9348 339.82 44.4515L339.827 44.4357ZM100.573 17.3325C111.371 -9.05558 127.974 -35.143 149.747 -57.9292C187.412 -97.3684 234.042 -119.783 274.468 -117.893C299.098 -116.743 319.595 -106.67 333.771 -88.7535C372.425 -39.8878 352.701 53.446 289.776 119.302C252.112 158.741 205.482 181.156 165.056 179.266C140.426 178.116 119.928 168.042 105.752 150.126C80.4838 118.168 80.1645 67.2048 100.573 17.3325Z" fill="url(#paint15_linear_1_418)"/>
<path d="M342.909 56.5493C366.629 -1.41552 362.433 -62.505 327.407 -97.4191C308.918 -115.841 284.159 -124.916 255.765 -123.66C213.278 -121.781 167.462 -96.329 133.212 -55.5478C73.8989 15.0648 64.4206 111.202 112.123 158.732C130.613 177.153 155.371 186.229 183.765 184.973C226.252 183.094 272.068 157.642 306.318 116.861C322.074 98.0957 334.332 77.5106 342.916 56.5334L342.909 56.5493ZM97.4991 5.1971C106.051 -15.7007 118.254 -36.1971 133.961 -54.8892C168.028 -95.4489 213.576 -120.788 255.795 -122.648C283.905 -123.89 308.41 -114.918 326.7 -96.6892C361.442 -62.0766 365.576 -1.42069 342.012 56.1633C333.46 77.0611 321.256 97.5575 305.549 116.25C271.483 156.809 225.935 182.149 183.715 184.008C155.605 185.25 131.1 176.279 112.81 158.05C78.0684 123.437 73.9351 62.7811 97.4991 5.1971Z" fill="url(#paint16_linear_1_418)"/>
<path d="M347.938 67.9465C374.703 2.53967 364.749 -68.427 318.781 -105.077C295.482 -123.651 266.225 -131.196 234.172 -126.881C190.143 -120.964 147.326 -93.4694 116.697 -51.4848C62.1095 23.3775 63.9179 121.132 120.719 166.439C144.017 185.013 173.274 192.558 205.328 188.242C249.356 182.325 292.173 154.831 322.803 112.846C333.229 98.5508 341.614 83.4017 347.938 67.9465ZM92.4753 -6.19233C98.7737 -21.584 107.104 -36.6445 117.494 -50.899C147.963 -92.6716 190.537 -120.024 234.291 -125.906C266.087 -130.178 295.083 -122.721 318.154 -104.315C363.755 -67.9446 373.611 2.53741 347.008 67.5475C340.71 82.9392 332.38 97.9996 321.989 112.254C291.521 154.027 248.947 181.38 205.193 187.261C173.397 191.533 144.4 184.077 121.33 165.67C75.7289 129.3 65.8566 58.8113 92.4594 -6.19882L92.4753 -6.19233Z" fill="url(#paint17_linear_1_418)"/>
<path d="M355.086 78.1912C384.76 5.67565 366.837 -75.017 308.662 -112.346C280.228 -130.595 245.146 -136.263 209.914 -128.302C165.966 -118.369 125.747 -88.5335 99.5864 -46.4243C50.584 32.446 64.6166 131.202 130.879 173.711C159.313 191.96 194.395 197.628 229.627 189.667C273.575 179.734 313.794 149.898 339.955 107.789C345.927 98.1736 350.969 88.2514 355.086 78.1912ZM85.3595 -16.4561C89.4633 -26.4845 94.4794 -36.3433 100.417 -45.9178C126.448 -87.802 166.439 -117.49 210.117 -127.348C245.099 -135.244 279.908 -129.633 308.123 -111.529C365.903 -74.4545 383.664 5.72748 354.172 77.7987C350.068 87.8271 345.052 97.686 339.115 107.26C313.084 149.145 273.092 178.832 229.415 188.691C194.432 196.587 159.639 190.982 131.424 172.878C73.6446 135.804 55.8831 55.6216 85.3754 -16.4496L85.3595 -16.4561Z" fill="url(#paint18_linear_1_418)"/>
<path d="M364.34 87.0789C396.812 7.72433 368.494 -82.2423 296.921 -119.108C220.914 -158.269 124.458 -122.918 81.9174 -40.3286C61.3039 -0.321417 56.2675 44.6708 67.7145 86.3676C79.1708 128.087 105.771 161.498 142.595 180.476C179.419 199.453 222.07 201.698 262.693 186.81C303.293 171.932 337.007 141.694 357.614 101.703C360.104 96.8866 362.343 92.0044 364.355 87.0854L364.34 87.0789ZM76.0157 -25.1821C78.0481 -30.1487 80.3091 -35.0403 82.7894 -39.8791C125.097 -121.989 220.953 -157.141 296.471 -118.236C367.582 -81.5968 395.691 7.83962 363.435 86.7088C361.435 91.596 359.21 96.4465 356.726 101.247C336.226 141.023 302.714 171.084 262.347 185.89C221.986 200.681 179.627 198.445 143.044 179.604C106.462 160.762 80.0537 127.559 68.6717 86.1109C58.6603 49.6883 61.3215 10.7266 76.0157 -25.1821Z" fill="url(#paint19_linear_1_418)"/>
<path d="M375.713 94.5012C410.9 8.51397 369.568 -90.0756 283.581 -125.263C197.594 -160.449 99.0041 -119.117 63.8172 -33.13C28.6303 52.8573 69.9624 151.447 155.95 186.634C241.937 221.821 340.527 180.488 375.713 94.5012ZM64.7217 -32.7599C99.7008 -118.239 197.709 -159.328 283.188 -124.349C368.668 -89.3696 409.756 8.63863 374.777 94.1181C339.798 179.598 241.79 220.686 156.31 185.707C70.831 150.728 29.7425 52.7196 64.7217 -32.7599Z" fill="url(#paint20_linear_1_418)"/>
</g>
<defs>
<linearGradient id="paint0_linear_1_418" x1="194.171" y1="-80.2766" x2="277.4" y2="121.772" gradientUnits="userSpaceOnUse">
<stop stop-color="#949494"/>
<stop offset="1" stop-color="#999999"/>
</linearGradient>
<linearGradient id="paint1_linear_1_418" x1="195.746" y1="-86.4884" x2="287.818" y2="121.345" gradientUnits="userSpaceOnUse">
<stop stop-color="#949494"/>
<stop offset="1" stop-color="#999999"/>
</linearGradient>
<linearGradient id="paint2_linear_1_418" x1="197.542" y1="-92.6691" x2="298.444" y2="119.916" gradientUnits="userSpaceOnUse">
<stop stop-color="#949494"/>
<stop offset="1" stop-color="#999999"/>
</linearGradient>
<linearGradient id="paint3_linear_1_418" x1="199.488" y1="-98.7801" x2="308.997" y2="117.621" gradientUnits="userSpaceOnUse">
<stop stop-color="#949494"/>
<stop offset="1" stop-color="#999999"/>
</linearGradient>
<linearGradient id="paint4_linear_1_418" x1="201.627" y1="-104.751" x2="319.473" y2="114.323" gradientUnits="userSpaceOnUse">
<stop stop-color="#949494"/>
<stop offset="1" stop-color="#999999"/>
</linearGradient>
<linearGradient id="paint5_linear_1_418" x1="203.821" y1="-110.48" x2="329.412" y2="110.331" gradientUnits="userSpaceOnUse">
<stop stop-color="#949494"/>
<stop offset="1" stop-color="#999999"/>
</linearGradient>
<linearGradient id="paint6_linear_1_418" x1="206.081" y1="-116.074" x2="339.003" y2="105.756" gradientUnits="userSpaceOnUse">
<stop stop-color="#949494"/>
<stop offset="1" stop-color="#999999"/>
</linearGradient>
<linearGradient id="paint7_linear_1_418" x1="208.282" y1="-121.486" x2="347.906" y2="100.914" gradientUnits="userSpaceOnUse">
<stop stop-color="#949494"/>
<stop offset="1" stop-color="#999999"/>
</linearGradient>
<linearGradient id="paint8_linear_1_418" x1="210.318" y1="-126.62" x2="355.957" y2="96.1987" gradientUnits="userSpaceOnUse">
<stop stop-color="#949494"/>
<stop offset="1" stop-color="#999999"/>
</linearGradient>
<linearGradient id="paint9_linear_1_418" x1="212.121" y1="-131.508" x2="363.164" y2="91.9974" gradientUnits="userSpaceOnUse">
<stop stop-color="#949494"/>
<stop offset="1" stop-color="#999999"/>
</linearGradient>
<linearGradient id="paint10_linear_1_418" x1="213.505" y1="-136.136" x2="369.38" y2="88.8453" gradientUnits="userSpaceOnUse">
<stop stop-color="#949494"/>
<stop offset="1" stop-color="#999999"/>
</linearGradient>
<linearGradient id="paint11_linear_1_418" x1="214.305" y1="-140.524" x2="374.536" y2="87.346" gradientUnits="userSpaceOnUse">
<stop stop-color="#949494"/>
<stop offset="1" stop-color="#999999"/>
</linearGradient>
<linearGradient id="paint12_linear_1_418" x1="214.396" y1="-144.713" x2="378.591" y2="88.0095" gradientUnits="userSpaceOnUse">
<stop stop-color="#949494"/>
<stop offset="1" stop-color="#999999"/>
</linearGradient>
<linearGradient id="paint13_linear_1_418" x1="213.609" y1="-148.701" x2="381.38" y2="91.3895" gradientUnits="userSpaceOnUse">
<stop stop-color="#949494"/>
<stop offset="1" stop-color="#999999"/>
</linearGradient>
<linearGradient id="paint14_linear_1_418" x1="211.813" y1="-152.53" x2="382.682" y2="97.8603" gradientUnits="userSpaceOnUse">
<stop stop-color="#949494"/>
<stop offset="1" stop-color="#999999"/>
</linearGradient>
<linearGradient id="paint15_linear_1_418" x1="208.873" y1="-156.228" x2="382.087" y2="107.568" gradientUnits="userSpaceOnUse">
<stop stop-color="#949494"/>
<stop offset="1" stop-color="#999999"/>
</linearGradient>
<linearGradient id="paint16_linear_1_418" x1="204.764" y1="-159.847" x2="379.176" y2="120.382" gradientUnits="userSpaceOnUse">
<stop stop-color="#949494"/>
<stop offset="1" stop-color="#999999"/>
</linearGradient>
<linearGradient id="paint17_linear_1_418" x1="199.449" y1="-163.325" x2="373.436" y2="135.917" gradientUnits="userSpaceOnUse">
<stop stop-color="#949494"/>
<stop offset="1" stop-color="#999999"/>
</linearGradient>
<linearGradient id="paint18_linear_1_418" x1="192.98" y1="-166.711" x2="364.382" y2="153.452" gradientUnits="userSpaceOnUse">
<stop stop-color="#949494"/>
<stop offset="1" stop-color="#999999"/>
</linearGradient>
<linearGradient id="paint19_linear_1_418" x1="185.424" y1="-170.205" x2="352.022" y2="172.048" gradientUnits="userSpaceOnUse">
<stop stop-color="#949494"/>
<stop offset="1" stop-color="#999999"/>
</linearGradient>
<linearGradient id="paint20_linear_1_418" x1="176.898" y1="-173.798" x2="336.317" y2="190.775" gradientUnits="userSpaceOnUse">
<stop stop-color="#949494"/>
<stop offset="1" stop-color="#999999"/>
</linearGradient>
</defs>
</svg>
