<svg width="196" height="196" viewBox="0 0 196 196" fill="none" xmlns="http://www.w3.org/2000/svg">
<path d="M57.242 152.972C53.4927 152.972 50.5212 151.925 48.4571 149.821C43.4015 144.666 44.4984 133.538 51.4485 119.298C65.0197 91.5076 96.8588 59.2697 122.436 47.4236C134.112 42.019 143.017 41.5703 147.514 46.1672C152.57 51.3224 151.473 62.4506 144.523 76.6899C130.951 104.481 99.1023 136.718 73.5354 148.565C67.2035 151.496 61.6793 152.972 57.232 152.972H57.242ZM122.675 47.9521C97.2078 59.7483 65.4884 91.8666 51.967 119.557C45.1266 133.567 43.9998 144.446 48.8659 149.422C53.1835 153.83 61.8588 153.341 73.2961 148.046C98.7633 136.25 130.483 104.132 144.004 76.4407C150.845 62.4307 151.971 51.5518 147.105 46.576C142.788 42.1686 134.112 42.6572 122.675 47.9521Z" fill="url(#paint0_linear_1_562)"/>
<path d="M54.5554 153.721C50.1779 153.721 46.7776 152.464 44.5739 149.951C39.4286 144.078 41.3132 131.953 49.7691 116.676C65.7135 87.8788 100.245 55.9799 126.749 45.5796C138.396 41.0127 147.151 41.1722 151.409 46.0383C156.554 51.9115 154.669 64.0369 146.213 79.3132C130.269 108.111 95.7377 140.01 69.2334 150.41C63.5995 152.624 58.6437 153.721 54.5454 153.721H54.5554ZM141.437 42.8375C137.419 42.8375 132.533 43.9343 126.959 46.1181C100.564 56.4785 66.1622 88.2577 50.2776 116.956C41.9514 132.003 40.0369 143.889 45.0126 149.572C49.101 154.239 57.6366 154.349 69.034 149.872C95.4286 139.511 129.83 107.732 145.715 79.034C154.041 63.987 155.956 52.101 150.98 46.4172C148.886 44.034 145.635 42.8375 141.437 42.8375Z" fill="url(#paint1_linear_1_562)"/>
<path d="M52.0921 154.288C46.9369 154.288 43.028 152.772 40.6748 149.761C35.4597 143.09 38.2517 129.937 48.3229 113.684C66.7104 84.0085 103.894 52.7478 131.206 43.9929C142.743 40.2934 151.309 41.0911 155.317 46.2265C160.532 52.8974 157.74 66.0498 147.679 82.3034C129.292 111.979 92.1078 143.239 64.7958 151.994C60.0195 153.53 55.7517 154.288 52.1021 154.288H52.0921ZM143.9 42.2678C140.32 42.2678 136.102 43.0256 131.376 44.5413C104.173 53.2564 67.1391 84.4074 48.8115 113.983C38.8699 130.017 36.0779 142.93 41.1334 149.402C44.9924 154.338 53.3286 155.065 64.6163 151.446C91.8186 142.731 128.853 111.58 147.18 82.0042C157.122 65.9701 159.914 53.057 154.859 46.5854C152.615 43.7136 148.866 42.2678 143.9 42.2678Z" fill="url(#paint2_linear_1_562)"/>
<path d="M49.7883 154.728C43.7256 154.728 39.3082 152.874 36.7854 149.224C31.5504 141.656 35.3296 127.466 47.1359 110.305C68.0361 79.9122 107.803 49.5888 135.773 42.6985C147.3 39.8566 155.397 41.2726 159.206 46.7768C164.441 54.3452 160.661 68.5347 148.855 85.6956C127.955 116.089 88.1886 146.412 60.2185 153.302C56.3495 154.26 52.8595 154.728 49.7883 154.728ZM146.203 41.8409C143.181 41.8409 139.741 42.3096 135.912 43.2569C108.062 50.1173 68.445 80.3409 47.6045 110.634C35.9379 127.596 32.1587 141.546 37.2541 148.905C40.9136 154.2 48.8011 155.526 60.0789 152.754C87.9293 145.894 127.546 115.67 148.387 85.3766C160.053 68.415 163.832 54.4649 158.737 47.1059C156.324 43.6159 152.066 41.8509 146.213 41.8509L146.203 41.8409Z" fill="url(#paint3_linear_1_562)"/>
<path d="M47.986 154.968C40.7367 154.968 35.5914 152.715 32.9191 148.307C27.7339 139.752 32.6 124.525 46.251 106.527C69.7239 75.6049 111.983 46.528 140.452 41.7218C151.73 39.8172 159.557 41.8813 163.077 47.6947C168.262 56.2502 163.396 71.4768 149.745 89.4753C126.272 120.397 84.0131 149.474 55.5444 154.28C52.8222 154.739 50.2994 154.968 47.986 154.968ZM148.02 41.6021C145.747 41.6021 143.254 41.8314 140.552 42.2802C112.203 47.0665 70.1128 76.0437 46.7196 106.866C33.4077 124.396 28.4419 139.772 33.4177 147.998C36.808 153.592 44.4262 155.566 55.4547 153.702C83.8037 148.915 125.893 119.938 149.287 89.1163C162.599 71.5864 167.564 56.2104 162.589 47.9839C160.026 43.7559 155.05 41.6021 148.02 41.6021Z" fill="url(#paint4_linear_1_562)"/>
<path d="M46.6877 155.077C37.9328 155.077 31.89 152.305 29.098 146.96C24.1322 137.447 30.3245 120.765 45.6906 102.357C71.7661 71.0968 116.399 43.6153 145.186 41.1024C156.175 40.1452 163.673 42.8873 166.884 49.0298C171.85 58.5526 165.648 75.225 150.292 93.6324C124.216 124.893 79.5837 152.375 50.796 154.887C49.3701 155.007 47.994 155.077 46.6877 155.077ZM145.246 41.6808C116.598 44.1836 72.135 71.5654 46.1393 102.726C30.9328 120.954 24.7604 137.397 29.6165 146.701C32.7077 152.624 40.0168 155.256 50.7561 154.319C79.4043 151.816 123.867 124.434 149.863 93.2734C165.07 75.0455 171.242 58.6024 166.386 49.299C163.295 43.376 155.985 40.7435 145.246 41.6808Z" fill="url(#paint5_linear_1_562)"/>
<path d="M46.0425 155.106H46.0325C35.3929 155.106 28.2533 151.656 25.3815 145.155C20.665 134.435 28.1835 116.736 45.514 97.79C74.212 66.4097 121.068 40.8926 149.966 40.8926H149.976C160.615 40.8926 167.755 44.3427 170.626 50.8441C175.343 61.5635 167.815 79.263 150.494 98.2088C121.796 129.589 74.9399 155.106 46.0425 155.106ZM149.956 41.461C121.198 41.461 74.541 66.8983 45.9328 98.1789C28.7618 116.945 21.2732 134.425 25.9 144.925C28.6721 151.207 35.6223 154.538 46.0225 154.538H46.0325C74.7903 154.538 121.447 129.101 150.055 97.8199C167.226 79.0536 174.705 61.5735 170.088 51.0735C167.316 44.7914 160.366 41.461 149.966 41.461H149.956Z" fill="url(#paint6_linear_1_562)"/>
<path d="M46.0682 155.109C44.403 155.109 42.7976 155.039 41.242 154.89C30.9814 153.913 24.2406 149.734 21.7577 142.814C17.44 130.789 26.3945 112.102 45.7192 92.8271C77.0497 61.5664 125.96 38.3627 154.758 41.1048C165.018 42.082 171.759 46.2601 174.242 53.1803C178.56 65.206 169.605 83.8926 150.281 103.168C120.635 132.743 75.2549 155.109 46.0782 155.109H46.0682ZM149.902 41.4638C120.865 41.4638 75.6637 63.7501 46.1181 93.2359C26.9628 112.351 18.0583 130.819 22.2962 142.625C24.6993 149.316 31.2705 153.364 41.2919 154.321C69.9301 157.054 118.641 133.93 149.862 102.769C169.017 83.6533 177.922 65.186 173.684 53.3798C171.281 46.6889 164.709 42.6405 154.688 41.6832C153.142 41.5336 151.547 41.4638 149.892 41.4638H149.902Z" fill="url(#paint7_linear_1_562)"/>
<path d="M46.9088 155.145C43.1894 155.145 39.7093 154.836 36.4985 154.188C26.6367 152.214 20.3447 147.268 18.3005 139.879C14.5811 126.437 25.0712 106.843 46.3603 87.4587C80.3034 56.567 131.058 36.0855 159.497 41.7892C169.359 43.7635 175.651 48.7094 177.695 56.0983C181.414 69.5399 170.924 89.1339 149.635 108.519C119.521 135.92 76.1652 155.145 46.9088 155.145ZM149.057 41.4103C119.95 41.4103 76.7734 60.5755 46.7492 87.8875C25.6196 107.123 15.1894 126.497 18.8589 139.729C20.8432 146.889 26.9857 151.695 36.6182 153.63C39.7991 154.268 43.2592 154.577 46.9487 154.577C76.0555 154.577 119.232 135.412 149.256 108.1C170.386 88.8647 180.816 69.49 177.147 56.2578C175.162 49.0983 169.02 44.292 159.387 42.3576C156.206 41.7194 152.746 41.4103 149.057 41.4103Z" fill="url(#paint8_linear_1_562)"/>
<path d="M48.681 155.318C42.4389 155.318 36.7451 154.57 31.8192 153.005C22.3762 149.993 16.5728 144.22 15.0371 136.292C12.1354 121.345 24.2608 100.953 47.4645 81.7381C83.9702 51.5045 136.331 34.1242 164.171 42.9988C173.614 46.0102 179.417 51.7837 180.953 59.7111C183.855 74.6584 171.729 95.0501 148.526 114.265C118.482 139.144 77.6981 155.318 48.681 155.318ZM147.269 41.2438C118.402 41.2438 77.7878 57.3777 47.8334 82.1769C24.7992 101.252 12.7437 121.445 15.6055 136.173C17.1012 143.881 22.775 149.505 31.9987 152.446C59.6796 161.261 111.791 143.93 148.167 113.807C171.201 94.731 183.256 74.5387 180.395 59.8108C178.899 52.1028 173.225 46.4789 164.002 43.5373C159.115 41.9817 153.462 41.2339 147.269 41.2339V41.2438Z" fill="url(#paint9_linear_1_562)"/>
<path d="M51.5348 155.715C42.2314 155.715 33.9451 154.279 27.2741 151.257C18.2499 147.159 12.985 140.468 12.0477 131.913C10.2428 115.42 24.0833 94.38 49.0619 75.6335C88.0704 46.3572 141.747 32.4968 168.72 44.7418C177.744 48.8401 183.009 55.531 183.947 64.0865C185.751 80.5794 171.911 101.619 146.932 120.366C117.566 142.413 79.8739 155.715 51.5348 155.715ZM144.429 40.833C116.23 40.833 78.6872 54.105 49.4109 76.0823C24.5918 94.709 10.8411 115.559 12.626 131.843C13.5334 140.189 18.6887 146.72 27.5135 150.729C54.3169 162.894 107.734 149.064 146.583 119.897C171.402 101.27 185.153 80.4199 183.368 64.1364C182.461 55.7902 177.305 49.2589 168.481 45.2503C161.88 42.2489 153.653 40.833 144.429 40.833Z" fill="url(#paint10_linear_1_562)"/>
<path d="M55.4942 156.472C42.5611 156.472 31.2235 154.049 22.8973 148.944C14.2919 143.669 9.6352 135.961 9.4258 126.647C9.01697 108.619 24.6323 87.1302 51.1964 69.1615C92.6081 41.1515 147.302 31.2299 173.108 47.0447C181.714 52.3196 186.37 60.0276 186.58 69.341C186.988 87.3695 171.373 108.858 144.809 126.827C116.759 145.793 82.6267 156.472 55.4942 156.472ZM140.491 40.0746C113.498 40.0746 79.4856 50.7242 51.5155 69.6401C25.121 87.4991 9.59532 108.798 9.99418 126.637C10.1936 135.741 14.7606 143.29 23.1865 148.455C48.8232 164.17 103.228 154.248 144.48 126.358C170.874 108.499 186.4 87.1999 186.001 69.3609C185.802 60.2569 181.235 52.7085 172.809 47.5433C164.553 42.4877 153.315 40.0846 140.491 40.0846V40.0746Z" fill="url(#paint11_linear_1_562)"/>
<path d="M60.4977 157.719C43.3965 157.719 28.539 153.91 18.727 146.013C10.5504 139.432 6.59167 130.567 7.27971 120.376C8.58597 100.892 26.0062 79.2037 53.8766 62.3619C97.5817 35.9473 152.934 30.3832 177.274 49.9673C185.451 56.5485 189.409 65.4131 188.721 75.604C187.415 95.0884 169.995 116.776 142.124 133.618C116.049 149.383 85.8153 157.719 60.5076 157.719H60.4977ZM135.493 38.8291C110.295 38.8291 80.1714 47.1453 54.1657 62.8604C26.4549 79.6126 9.14438 101.131 7.84808 120.426C7.17999 130.427 11.0589 139.123 19.086 145.574C43.2469 165.009 98.3096 159.434 141.825 133.13C169.536 116.378 186.847 94.869 188.143 75.5741C188.811 65.5727 184.922 56.8775 176.905 50.426C167.183 42.6083 152.455 38.8291 135.493 38.8291Z" fill="url(#paint12_linear_1_562)"/>
<path d="M66.3499 159.594C44.6319 159.594 25.8157 153.91 14.837 142.463C7.1191 134.406 3.97807 124.225 5.77294 112.997C9.08348 92.2464 28.2886 70.6681 57.1362 55.2621C102.985 30.792 158.616 30.0143 181.162 53.5271C188.88 61.5841 192.021 71.765 190.226 82.9929C186.915 103.744 167.71 125.322 138.863 140.728C115.34 153.282 89.2345 159.594 66.3499 159.594ZM129.669 36.9544C106.884 36.9544 80.8684 43.2564 57.4054 55.7707C28.7074 71.0869 9.61197 92.5157 6.33134 113.087C4.57636 124.125 7.65755 134.147 15.2459 142.064C37.6219 165.397 92.9439 164.57 138.583 140.219C167.281 124.903 186.377 103.474 189.658 82.9031C191.423 71.8647 188.331 61.8433 180.743 53.9259C169.874 42.5883 151.207 36.9544 129.669 36.9544Z" fill="url(#paint13_linear_1_562)"/>
<path d="M72.6527 162.216C46.0487 162.216 22.9347 154.009 11.2681 138.244C4.05867 128.492 1.91479 116.785 5.08574 104.401C10.6399 82.663 31.5402 61.5433 61.0159 47.8824C108.829 25.7357 164.321 30.153 184.732 57.7542C191.942 67.5063 194.086 79.2129 190.925 91.5975C185.371 113.335 164.47 134.455 135.005 148.116C114.523 157.609 92.6156 162.216 72.6726 162.216H72.6527ZM123.368 34.3411C103.505 34.3411 81.6769 38.9379 61.2453 48.4009C31.929 61.9821 11.1484 82.9621 5.63417 104.531C2.51309 116.746 4.61708 128.283 11.7268 137.895C31.9789 165.277 87.1612 169.625 134.735 147.588C164.052 134.006 184.832 113.026 190.346 91.4479C193.467 79.2328 191.364 67.6958 184.254 58.0832C172.697 42.4579 149.762 34.3311 123.368 34.3311V34.3411Z" fill="url(#paint14_linear_1_562)"/>
<path d="M78.9558 165.656C47.396 165.656 19.8148 154.159 8.08827 133.328C1.48713 121.602 0.559777 108.19 5.42587 94.519C13.3732 72.1928 35.829 51.9008 65.5142 40.2541C115.083 20.7996 169.986 30.841 187.914 62.66C194.516 74.3865 195.443 87.7982 190.577 101.469C182.63 123.795 160.174 144.087 130.489 155.734C113.367 162.455 95.6082 165.656 78.9658 165.656H78.9558ZM117.067 30.9008C100.484 30.9008 82.7849 34.0917 65.7236 40.7925C36.198 52.3794 13.8618 72.5418 5.97431 94.7184C1.16804 108.23 2.07545 121.482 8.59682 133.059C26.386 164.629 80.97 174.57 130.279 155.206C159.805 143.619 182.141 123.456 190.028 101.28C194.835 87.7683 193.927 74.5162 187.406 62.9392C175.769 42.2982 148.407 30.9008 117.067 30.9008Z" fill="url(#paint15_linear_1_562)"/>
<path d="M84.7976 169.982C48.3717 169.982 16.413 154.267 5.33465 127.723C-0.508654 113.713 0.0597262 98.3866 6.98993 83.3795C17.3603 60.9237 41.1523 41.8681 70.648 32.4151C121.722 16.0419 175.558 32.116 190.635 68.2627C196.479 82.2727 195.91 97.5989 188.98 112.606C178.61 135.062 154.818 154.117 125.322 163.57C111.751 167.918 97.97 169.982 84.7876 169.982H84.7976ZM111.212 26.5718C98.0797 26.5718 84.3589 28.626 70.8375 32.9636C41.5013 42.3667 17.829 61.3026 7.52839 83.6188C0.667989 98.4764 0.0996113 113.643 5.88309 127.503C16.8617 153.828 48.601 169.414 84.7876 169.414C97.9201 169.414 111.641 167.36 125.162 163.022C154.498 153.619 178.171 134.683 188.471 112.367C195.332 97.5091 195.9 82.3425 190.117 68.4821C179.138 42.1573 147.399 26.5718 111.212 26.5718Z" fill="url(#paint16_linear_1_562)"/>
<path d="M89.8239 175.201C48.7213 175.201 12.7142 154.211 3.11163 121.395C-1.75446 104.762 0.628726 87.3518 10.0119 71.0484C22.8951 48.6524 47.1259 31.6609 76.472 24.4216C128.793 11.5285 181.013 34.0342 192.889 74.5883C197.755 91.2208 195.372 108.631 185.989 124.934C173.106 147.33 148.875 164.322 119.529 171.561C109.538 174.024 99.5361 175.201 89.8239 175.201ZM106.187 21.3604C96.5148 21.3604 86.5732 22.527 76.6116 24.98C47.415 32.1795 23.3139 49.0712 10.5105 71.3276C1.20707 87.5014 -1.16615 104.752 3.66006 121.225C13.1928 153.782 48.9606 174.612 89.8139 174.612C99.4863 174.612 109.428 173.446 119.389 170.993C148.586 163.793 172.687 146.902 185.491 124.645C194.794 108.471 197.167 91.2208 192.341 74.7478C182.808 42.1909 147.04 21.3504 106.187 21.3504V21.3604Z" fill="url(#paint17_linear_1_562)"/>
<path d="M93.7646 181.304C48.1948 181.304 8.70766 153.882 1.42846 114.345C-2.13137 95.0203 2.54527 74.8878 14.5909 57.677C29.6179 36.2083 54.5367 21.1314 82.9655 16.3252C136.213 7.32088 186.28 36.6271 194.567 81.6585C198.126 100.983 193.45 121.116 181.404 138.327C166.377 159.795 141.458 174.872 113.03 179.678C106.538 180.775 100.087 181.304 93.7646 181.304ZM102.23 15.2682C95.9285 15.2682 89.5168 15.7967 83.0552 16.8836C54.776 21.6699 29.9869 36.6571 15.0595 57.9961C3.10367 75.0873 -1.54304 95.0602 1.98687 114.235C9.21621 153.503 48.4641 180.725 93.7547 180.725C100.057 180.725 106.468 180.197 112.93 179.11C141.209 174.324 165.998 159.337 180.926 137.998C192.881 120.906 197.528 100.943 193.998 81.7682C186.769 42.5004 147.521 15.2781 102.23 15.2781V15.2682Z" fill="url(#paint18_linear_1_562)"/>
<path d="M96.51 188.242C46.6425 188.242 4.453 153.183 0.374654 106.536C-3.96295 56.9974 36.312 12.8635 90.1382 8.15694C116.214 5.87347 141.541 13.0729 161.464 28.4191C181.397 43.7752 193.523 65.4532 195.627 89.4547C197.731 113.456 189.544 136.909 172.583 155.496C155.631 174.073 131.929 185.56 105.863 187.844C102.722 188.123 99.6011 188.252 96.51 188.252V188.242ZM99.5912 8.31648C96.4701 8.31648 93.339 8.45609 90.188 8.72532C36.6709 13.4119 -3.36466 57.2666 0.94303 106.486C5.00143 152.834 46.9516 187.664 96.51 187.674C99.5812 187.674 102.682 187.544 105.813 187.265C131.739 184.992 155.302 173.574 172.164 155.107C189.016 136.64 197.142 113.346 195.058 89.5045C192.974 65.6626 180.919 44.1341 161.115 28.8777C143.715 15.4661 122.157 8.31648 99.5912 8.31648Z" fill="url(#paint19_linear_1_562)"/>
<path d="M98 196C43.9644 196 0 152.036 0 98C0 43.9644 43.9644 0 98 0C152.036 0 196 43.9644 196 98C196 152.036 152.036 196 98 196ZM98 0.568376C44.2835 0.568376 0.578349 44.2735 0.578349 97.99C0.578349 151.707 44.2835 195.412 98 195.412C151.717 195.412 195.422 151.707 195.422 97.99C195.422 44.2735 151.717 0.568376 98 0.568376Z" fill="url(#paint20_linear_1_562)"/>
<defs>
<linearGradient id="paint0_linear_1_562" x1="43.9088" y1="59.7823" x2="134.334" y2="149.088" gradientUnits="userSpaceOnUse">
<stop stop-color="#949494"/>
<stop offset="1" stop-color="#999999"/>
</linearGradient>
<linearGradient id="paint1_linear_1_562" x1="40.2185" y1="59.261" x2="131.81" y2="154.601" gradientUnits="userSpaceOnUse">
<stop stop-color="#949494"/>
<stop offset="1" stop-color="#999999"/>
</linearGradient>
<linearGradient id="paint2_linear_1_562" x1="36.4962" y1="58.8656" x2="128.701" y2="160.005" gradientUnits="userSpaceOnUse">
<stop stop-color="#949494"/>
<stop offset="1" stop-color="#999999"/>
</linearGradient>
<linearGradient id="paint3_linear_1_562" x1="32.7781" y1="58.5686" x2="125.141" y2="165.181" gradientUnits="userSpaceOnUse">
<stop stop-color="#949494"/>
<stop offset="1" stop-color="#999999"/>
</linearGradient>
<linearGradient id="paint4_linear_1_562" x1="29.092" y1="58.4049" x2="121.057" y2="170.094" gradientUnits="userSpaceOnUse">
<stop stop-color="#949494"/>
<stop offset="1" stop-color="#999999"/>
</linearGradient>
<linearGradient id="paint5_linear_1_562" x1="25.5265" y1="58.3221" x2="116.72" y2="174.563" gradientUnits="userSpaceOnUse">
<stop stop-color="#949494"/>
<stop offset="1" stop-color="#999999"/>
</linearGradient>
<linearGradient id="paint6_linear_1_562" x1="22.0165" y1="58.3067" x2="112.144" y2="178.718" gradientUnits="userSpaceOnUse">
<stop stop-color="#949494"/>
<stop offset="1" stop-color="#999999"/>
</linearGradient>
<linearGradient id="paint7_linear_1_562" x1="18.6194" y1="58.3006" x2="107.577" y2="182.445" gradientUnits="userSpaceOnUse">
<stop stop-color="#949494"/>
<stop offset="1" stop-color="#999999"/>
</linearGradient>
<linearGradient id="paint8_linear_1_562" x1="15.4066" y1="58.2647" x2="103.265" y2="185.739" gradientUnits="userSpaceOnUse">
<stop stop-color="#949494"/>
<stop offset="1" stop-color="#999999"/>
</linearGradient>
<linearGradient id="paint9_linear_1_562" x1="12.3785" y1="58.1586" x2="99.4166" y2="188.693" gradientUnits="userSpaceOnUse">
<stop stop-color="#949494"/>
<stop offset="1" stop-color="#999999"/>
</linearGradient>
<linearGradient id="paint10_linear_1_562" x1="9.58277" y1="57.8847" x2="96.3508" y2="191.345" gradientUnits="userSpaceOnUse">
<stop stop-color="#949494"/>
<stop offset="1" stop-color="#999999"/>
</linearGradient>
<linearGradient id="paint11_linear_1_562" x1="7.04369" y1="57.3496" x2="94.4071" y2="193.791" gradientUnits="userSpaceOnUse">
<stop stop-color="#949494"/>
<stop offset="1" stop-color="#999999"/>
</linearGradient>
<linearGradient id="paint12_linear_1_562" x1="4.76954" y1="56.4754" x2="93.872" y2="196.12" gradientUnits="userSpaceOnUse">
<stop stop-color="#949494"/>
<stop offset="1" stop-color="#999999"/>
</linearGradient>
<linearGradient id="paint13_linear_1_562" x1="2.79619" y1="55.1738" x2="95.0765" y2="198.366" gradientUnits="userSpaceOnUse">
<stop stop-color="#949494"/>
<stop offset="1" stop-color="#999999"/>
</linearGradient>
<linearGradient id="paint14_linear_1_562" x1="1.13157" y1="53.362" x2="98.2736" y2="200.491" gradientUnits="userSpaceOnUse">
<stop stop-color="#949494"/>
<stop offset="1" stop-color="#999999"/>
</linearGradient>
<linearGradient id="paint15_linear_1_562" x1="-0.212076" y1="50.9665" x2="103.63" y2="202.31" gradientUnits="userSpaceOnUse">
<stop stop-color="#949494"/>
<stop offset="1" stop-color="#999999"/>
</linearGradient>
<linearGradient id="paint16_linear_1_562" x1="-1.25448" y1="47.9563" x2="111.169" y2="203.564" gradientUnits="userSpaceOnUse">
<stop stop-color="#949494"/>
<stop offset="1" stop-color="#999999"/>
</linearGradient>
<linearGradient id="paint17_linear_1_562" x1="-1.95682" y1="44.3306" x2="120.795" y2="203.897" gradientUnits="userSpaceOnUse">
<stop stop-color="#949494"/>
<stop offset="1" stop-color="#999999"/>
</linearGradient>
<linearGradient id="paint18_linear_1_562" x1="-2.35382" y1="40.1014" x2="132.228" y2="202.885" gradientUnits="userSpaceOnUse">
<stop stop-color="#949494"/>
<stop offset="1" stop-color="#999999"/>
</linearGradient>
<linearGradient id="paint19_linear_1_562" x1="-2.57055" y1="35.2646" x2="144.96" y2="200.328" gradientUnits="userSpaceOnUse">
<stop stop-color="#949494"/>
<stop offset="1" stop-color="#999999"/>
</linearGradient>
<linearGradient id="paint20_linear_1_562" x1="-2.62663" y1="29.8841" x2="158.5" y2="196" gradientUnits="userSpaceOnUse">
<stop stop-color="#949494"/>
<stop offset="1" stop-color="#999999"/>
</linearGradient>
</defs>
</svg>
