<svg width="210" height="210" viewBox="0 0 210 210" fill="none" xmlns="http://www.w3.org/2000/svg">
<g clip-path="url(#clip0_1_660)">
<g opacity="0.9">
<g style="mix-blend-mode:multiply" opacity="0.1">
<path d="M107.084 210L106.79 183.892L106.608 157.798L106.469 105.582L106.608 53.3663L106.776 27.2583L107.084 1.15039L107.392 27.2583L107.56 53.3663L107.714 105.582L107.56 157.798L107.392 183.892L107.084 210Z" fill="url(#paint0_linear_1_660)"/>
<path d="M111.981 207.53L110.442 182.685L109.043 157.825L106.412 108.107L104.075 58.3738L103.012 33.5144L102.074 8.62695L103.613 33.4723L105.027 58.3317L107.643 108.05L109.98 157.783L111.043 182.657L111.981 207.53Z" fill="url(#paint1_linear_1_660)"/>
<path d="M116.892 205.062L114.108 181.479L111.463 157.868L106.356 110.647L101.542 63.3972L99.2336 39.7584L97.0508 16.1055L99.8353 39.6882L102.48 63.299L107.587 110.521L112.401 157.77L114.709 181.409L116.892 205.062Z" fill="url(#paint2_linear_1_660)"/>
<path d="M121.791 202.592L117.775 180.272L113.885 157.924L106.315 113.185L99.0113 68.4187L95.4572 46.0004L92.043 23.582L96.0448 45.9022L99.9348 68.2504L107.519 112.989L114.809 157.769L118.363 180.174L121.791 202.592Z" fill="url(#paint3_linear_1_660)"/>
<path d="M126.688 200.124L121.441 179.066L116.32 157.967L106.259 115.726L96.4785 73.4281L91.693 52.2584L87.0195 31.0605L92.2667 52.1181L97.388 73.2177L107.449 115.459L117.229 157.756L122.015 178.926L126.688 200.124Z" fill="url(#paint4_linear_1_660)"/>
<path d="M131.583 197.654L125.105 177.859L118.752 158.008L106.215 118.278L93.9574 78.4496L87.9127 58.5144L82.0078 38.5371L88.4864 58.332L94.839 78.169L107.376 117.913L119.634 157.741L125.665 177.677L131.583 197.654Z" fill="url(#paint5_linear_1_660)"/>
<path d="M136.495 195.186L128.785 176.654L121.187 158.065L106.187 120.818L91.4387 83.473L84.1486 64.7584L76.9844 46.0156L84.6943 64.5479L92.2922 83.1363L107.292 120.369L122.04 157.714L129.316 176.429L136.495 195.186Z" fill="url(#paint6_linear_1_660)"/>
<path d="M141.396 192.716L132.455 175.447L123.625 158.107L106.149 123.371L88.9238 88.4949L80.3884 71.0148L71.9648 53.4785L80.9061 70.7622L89.7354 88.088L107.212 122.838L124.451 157.7L132.972 175.18L141.396 192.716Z" fill="url(#paint7_linear_1_660)"/>
<path d="M146.291 190.246L136.132 174.239L126.072 158.162L106.118 125.909L86.4028 93.5164L76.622 77.2708L66.9531 60.9551L77.1117 76.9622L87.1723 93.0394L107.126 125.292L126.841 157.685L136.622 173.931L146.291 190.246Z" fill="url(#paint8_linear_1_660)"/>
<path d="M151.188 187.778L139.812 173.034L128.52 158.219L106.09 128.464L83.884 98.5398L72.8579 83.5288L61.9297 68.4336L73.3196 83.1781L84.6116 97.9927L107.028 127.748L129.234 157.672L140.26 172.683L151.188 187.778Z" fill="url(#paint9_linear_1_660)"/>
<path d="M156.101 185.308L143.494 171.826L130.97 158.26L106.078 131.002L81.3808 103.561L69.1094 89.7708L56.9219 75.9102L69.5291 89.392L82.0525 102.958L106.945 130.216L131.628 157.657L143.913 171.434L156.101 185.308Z" fill="url(#paint10_linear_1_660)"/>
<path d="M160.998 182.84L147.174 170.621L133.419 158.303L106.064 133.542L78.876 108.585L65.3453 96.0288L51.8984 83.3887L65.7371 95.6079L79.4777 107.911L106.833 132.687L134.021 157.644L147.551 170.2L160.998 182.84Z" fill="url(#paint11_linear_1_660)"/>
<path d="M165.893 180.37L150.851 169.4L135.879 158.345L106.047 136.081L76.369 113.592L61.5929 102.271L46.8867 90.8652L61.9287 101.822L76.9007 112.877L106.733 135.155L136.411 157.629L151.187 168.951L165.893 180.37Z" fill="url(#paint12_linear_1_660)"/>
<path d="M170.791 177.902L154.531 168.194L138.328 158.388L106.033 138.607L73.8642 118.602L57.8288 108.515L41.8633 98.3438L58.1226 108.038L74.326 117.844L106.635 137.625L138.79 157.63L154.825 167.717L170.791 177.902Z" fill="url(#paint13_linear_1_660)"/>
<path d="M175.704 175.433L158.213 166.973L140.792 158.415L106.021 141.132L71.3612 123.609L54.0805 114.757L36.8557 105.807L54.3323 114.266L71.753 122.824L106.524 140.108L141.184 157.63L158.465 166.482L175.704 175.433Z" fill="url(#paint14_linear_1_660)"/>
<path d="M180.601 172.963L161.907 165.752L143.241 158.443L106.006 143.642L68.8563 128.603L50.3302 120.999L31.832 113.283L50.5261 120.494L69.1921 127.803L106.426 142.59L143.562 157.643L162.103 165.247L180.601 172.963Z" fill="url(#paint15_linear_1_660)"/>
<path d="M185.5 170.494L165.588 164.532L145.705 158.472L105.994 146.168L66.3531 133.612L46.5677 127.243L26.8242 120.762L46.7356 126.71L66.619 132.785L106.33 145.088L145.957 157.644L165.742 164.013L185.5 170.494Z" fill="url(#paint16_linear_1_660)"/>
<path d="M190.397 168.024L169.268 163.311L148.153 158.485L105.98 148.679L63.8484 138.606L42.8176 133.471L21.8008 128.238L42.9435 132.938L64.0443 137.764L106.232 147.584L148.349 157.657L169.394 162.778L190.397 168.024Z" fill="url(#paint17_linear_1_660)"/>
<path d="M195.308 165.556L172.948 162.091L150.602 158.514L105.952 151.177L61.3436 143.601L39.0535 139.715L16.7773 135.717L39.1374 139.168L61.4835 142.745L106.134 150.082L150.742 157.672L173.032 161.558L195.308 165.556Z" fill="url(#paint18_linear_1_660)"/>
<path d="M200.203 163.072L176.612 160.856L153.048 158.527L105.921 153.687L58.8225 148.58L35.2871 145.943L11.7656 143.193L35.343 145.41L58.9205 147.739L106.033 152.579L153.132 157.685L176.682 160.323L200.203 163.072Z" fill="url(#paint19_linear_1_660)"/>
<path d="M205.1 160.604L180.292 159.636L155.497 158.542L105.893 156.185L56.3177 153.576L31.523 152.173L6.74219 150.672L31.551 151.64L56.3597 152.734L105.949 155.091L155.539 157.7L180.32 159.103L205.1 160.604Z" fill="url(#paint20_linear_1_660)"/>
<path d="M209.999 158.135L183.973 158.401L157.933 158.556L105.867 158.682L53.8006 158.556L27.7605 158.401L1.73438 158.135L27.7605 157.868L53.8006 157.714L105.867 157.602L157.933 157.728L183.973 157.868L209.999 158.135Z" fill="url(#paint21_linear_1_660)"/>
</g>
<path d="M105.35 208.85L105.056 182.742L104.874 156.634L104.734 104.418L104.874 52.2159L105.056 26.108L105.35 0L105.658 26.108L105.84 52.2159L105.979 104.418L105.826 156.634L105.658 182.742L105.35 208.85Z" fill="url(#paint22_linear_1_660)"/>
<path d="M110.261 206.38L108.721 181.534L107.308 156.675L104.678 106.956L102.341 57.2234L101.277 32.35L100.34 7.47656L101.879 32.3219L103.292 57.1813L105.909 106.9L108.246 156.633L109.323 181.506L110.261 206.38Z" fill="url(#paint23_linear_1_660)"/>
<path d="M115.158 203.912L112.387 180.315L109.729 156.718L104.635 109.496L99.808 62.2468L97.4992 38.608L95.3164 14.9551L98.1009 38.5378L100.746 62.1346L105.853 109.37L110.666 156.62L112.975 180.259L115.158 203.912Z" fill="url(#paint24_linear_1_660)"/>
<path d="M120.057 201.442L116.041 179.107L112.165 156.759L104.581 112.035L97.2769 67.2543L93.7368 44.85L90.3086 22.4316L94.3245 44.7518L98.2144 67.1L105.784 111.838L113.088 156.605L116.629 179.009L120.057 201.442Z" fill="url(#paint25_linear_1_660)"/>
<path d="M124.954 198.974L119.707 177.902L114.586 156.817L104.539 114.575L94.7581 72.2781L89.9587 51.1083L85.2852 29.8965L90.5324 50.968L95.6676 72.0676L105.714 114.295L115.495 156.592L120.294 177.776L124.954 198.974Z" fill="url(#paint26_linear_1_660)"/>
<path d="M129.863 196.504L123.384 176.695L117.018 156.858L104.495 117.114L92.2231 77.2996L86.1923 57.3503L80.2734 37.373L86.752 57.182L93.1046 77.019L105.642 116.763L117.899 156.577L123.944 176.527L129.863 196.504Z" fill="url(#paint27_linear_1_660)"/>
<path d="M134.76 194.036L127.05 175.49L119.452 156.901L104.452 119.668L89.7043 82.323L82.4142 63.6083L75.25 44.8516L82.9599 63.3979L90.5578 81.9723L105.558 119.219L120.306 156.564L127.596 175.279L134.76 194.036Z" fill="url(#paint28_linear_1_660)"/>
<path d="M139.659 191.566L130.718 174.282L121.903 156.956L104.412 122.207L87.1872 87.3445L78.6517 69.8644L70.2422 52.3281L79.1694 69.5978L87.9987 86.9377L105.475 121.673L122.714 156.549L131.236 174.03L139.659 191.566Z" fill="url(#paint29_linear_1_660)"/>
<path d="M144.556 189.096L134.398 173.075L124.337 157.012L104.384 124.759L84.6684 92.366L74.8876 76.1204L65.2188 59.8047L75.3913 75.8118L85.438 91.889L105.391 124.142L125.107 156.535L134.888 172.78L144.556 189.096Z" fill="url(#paint30_linear_1_660)"/>
<path d="M149.469 186.628L138.079 171.869L126.787 157.055L104.357 127.299L82.1512 97.3894L71.1251 82.3644L60.2109 67.2832L71.5869 82.0277L82.8788 96.8423L105.309 126.598L127.515 156.522L138.541 171.533L149.469 186.628Z" fill="url(#paint31_linear_1_660)"/>
<path d="M154.367 184.158L141.759 170.662L129.236 157.11L104.343 129.852L79.6465 102.411L67.375 88.6204L55.1875 74.7598L67.7948 88.2416L80.3181 101.794L105.211 129.052L129.908 156.507L142.179 170.283L154.367 184.158Z" fill="url(#paint32_linear_1_660)"/>
<path d="M159.264 181.676L145.439 169.457L131.699 157.153L104.329 132.392L77.1417 107.421L63.6109 94.8788L50.1641 82.2246L64.0027 94.4579L77.7434 106.761L105.113 131.522L132.286 156.494L145.817 169.036L159.264 181.676Z" fill="url(#paint33_linear_1_660)"/>
<path d="M164.159 179.206L149.117 168.25L134.145 157.195L104.313 134.917L74.6346 112.442L59.8585 101.121L45.1523 89.7012L60.1943 100.672L75.1663 111.727L104.998 133.991L134.677 156.479L149.453 167.801L164.159 179.206Z" fill="url(#paint34_linear_1_660)"/>
<path d="M169.07 176.738L152.797 167.03L136.607 157.224L104.299 137.457L72.1298 117.452L56.1084 107.365L40.1289 97.1797L56.4022 106.888L72.5916 116.694L104.9 136.475L137.069 156.48L153.091 166.553L169.07 176.738Z" fill="url(#paint35_linear_1_660)"/>
<path d="M173.969 174.268L156.493 165.823L139.058 157.265L104.286 139.981L69.6409 122.459L52.3461 113.607L35.1213 104.656L52.598 113.102L70.0327 121.673L104.804 138.957L139.45 156.479L156.73 165.318L173.969 174.268Z" fill="url(#paint36_linear_1_660)"/>
<path d="M178.866 171.798L160.172 164.601L141.52 157.292L104.272 142.492L67.1359 127.452L48.5958 119.849L30.0977 112.133L48.8057 119.33L67.4577 126.639L104.692 141.439L141.842 156.478L160.368 164.082L178.866 171.798Z" fill="url(#paint37_linear_1_660)"/>
<path d="M183.765 169.33L163.854 163.382L143.97 157.307L104.26 145.004L64.6328 132.448L44.8333 126.093L25.0898 119.611L45.0012 125.56L64.8846 131.62L104.595 143.938L144.222 156.494L164.022 162.863L183.765 169.33Z" fill="url(#paint38_linear_1_660)"/>
<path d="M188.676 166.86L167.534 162.16L146.419 157.334L104.246 147.514L62.114 137.441L41.0832 132.321L20.0664 127.088L41.2091 131.788L62.3239 136.614L104.497 146.434L146.615 156.507L167.66 161.627L188.676 166.86Z" fill="url(#paint39_linear_1_660)"/>
<path d="M193.571 164.392L171.211 160.927L148.865 157.35L104.215 150.027L59.6069 142.437L37.3168 138.551L15.0547 134.553L37.4148 138.018L59.7469 141.595L104.397 148.932L149.005 156.522L171.295 160.394L193.571 164.392Z" fill="url(#paint40_linear_1_660)"/>
<path d="M198.469 161.922L174.891 159.706L151.314 157.377L104.187 152.523L57.1021 147.43L33.5527 144.793L10.0312 142.029L33.6087 144.246L57.1861 146.589L104.313 151.429L151.398 156.535L174.947 159.173L198.469 161.922Z" fill="url(#paint41_linear_1_660)"/>
<path d="M203.368 159.454L178.559 158.472L153.764 157.392L104.161 155.035L54.585 152.412L29.8042 151.023L5.02344 149.508L29.8182 150.49L54.627 151.57L104.217 153.941L153.806 156.55L178.587 157.939L203.368 159.454Z" fill="url(#paint42_linear_1_660)"/>
<path d="M208.279 156.984L182.239 157.251L156.199 157.405L104.132 157.532L52.0662 157.405L26.0401 157.251L0 156.984L26.0401 156.718L52.0662 156.564L104.132 156.437L156.199 156.564L182.239 156.718L208.279 156.984Z" fill="url(#paint43_linear_1_660)"/>
</g>
</g>
<defs>
<linearGradient id="paint0_linear_1_660" x1="107.091" y1="1.15039" x2="107.091" y2="210" gradientUnits="userSpaceOnUse">
<stop stop-color="#CFCFCF"/>
<stop offset="1" stop-color="#B0B0B0"/>
</linearGradient>
<linearGradient id="paint1_linear_1_660" x1="107.028" y1="8.62695" x2="107.028" y2="207.53" gradientUnits="userSpaceOnUse">
<stop stop-color="#CFCFCF"/>
<stop offset="1" stop-color="#B0B0B0"/>
</linearGradient>
<linearGradient id="paint2_linear_1_660" x1="106.971" y1="16.1055" x2="106.971" y2="205.062" gradientUnits="userSpaceOnUse">
<stop stop-color="#CFCFCF"/>
<stop offset="1" stop-color="#B0B0B0"/>
</linearGradient>
<linearGradient id="paint3_linear_1_660" x1="106.917" y1="23.582" x2="106.917" y2="202.592" gradientUnits="userSpaceOnUse">
<stop stop-color="#CFCFCF"/>
<stop offset="1" stop-color="#B0B0B0"/>
</linearGradient>
<linearGradient id="paint4_linear_1_660" x1="106.854" y1="31.0605" x2="106.854" y2="200.124" gradientUnits="userSpaceOnUse">
<stop stop-color="#CFCFCF"/>
<stop offset="1" stop-color="#B0B0B0"/>
</linearGradient>
<linearGradient id="paint5_linear_1_660" x1="106.796" y1="38.5371" x2="106.796" y2="197.654" gradientUnits="userSpaceOnUse">
<stop stop-color="#CFCFCF"/>
<stop offset="1" stop-color="#B0B0B0"/>
</linearGradient>
<linearGradient id="paint6_linear_1_660" x1="106.74" y1="46.0156" x2="106.74" y2="195.186" gradientUnits="userSpaceOnUse">
<stop stop-color="#CFCFCF"/>
<stop offset="1" stop-color="#B0B0B0"/>
</linearGradient>
<linearGradient id="paint7_linear_1_660" x1="106.68" y1="53.4785" x2="106.68" y2="192.716" gradientUnits="userSpaceOnUse">
<stop stop-color="#CFCFCF"/>
<stop offset="1" stop-color="#B0B0B0"/>
</linearGradient>
<linearGradient id="paint8_linear_1_660" x1="106.622" y1="60.9551" x2="106.622" y2="190.246" gradientUnits="userSpaceOnUse">
<stop stop-color="#CFCFCF"/>
<stop offset="1" stop-color="#B0B0B0"/>
</linearGradient>
<linearGradient id="paint9_linear_1_660" x1="106.559" y1="68.4336" x2="106.559" y2="187.778" gradientUnits="userSpaceOnUse">
<stop stop-color="#CFCFCF"/>
<stop offset="1" stop-color="#B0B0B0"/>
</linearGradient>
<linearGradient id="paint10_linear_1_660" x1="106.511" y1="75.9102" x2="106.511" y2="185.308" gradientUnits="userSpaceOnUse">
<stop stop-color="#CFCFCF"/>
<stop offset="1" stop-color="#B0B0B0"/>
</linearGradient>
<linearGradient id="paint11_linear_1_660" x1="106.448" y1="83.3887" x2="106.448" y2="182.84" gradientUnits="userSpaceOnUse">
<stop stop-color="#CFCFCF"/>
<stop offset="1" stop-color="#B0B0B0"/>
</linearGradient>
<linearGradient id="paint12_linear_1_660" x1="106.39" y1="90.8652" x2="106.39" y2="180.37" gradientUnits="userSpaceOnUse">
<stop stop-color="#CFCFCF"/>
<stop offset="1" stop-color="#B0B0B0"/>
</linearGradient>
<linearGradient id="paint13_linear_1_660" x1="106.327" y1="98.3438" x2="106.327" y2="177.902" gradientUnits="userSpaceOnUse">
<stop stop-color="#CFCFCF"/>
<stop offset="1" stop-color="#B0B0B0"/>
</linearGradient>
<linearGradient id="paint14_linear_1_660" x1="106.28" y1="105.807" x2="106.28" y2="175.433" gradientUnits="userSpaceOnUse">
<stop stop-color="#CFCFCF"/>
<stop offset="1" stop-color="#B0B0B0"/>
</linearGradient>
<linearGradient id="paint15_linear_1_660" x1="106.216" y1="113.283" x2="106.216" y2="172.963" gradientUnits="userSpaceOnUse">
<stop stop-color="#CFCFCF"/>
<stop offset="1" stop-color="#B0B0B0"/>
</linearGradient>
<linearGradient id="paint16_linear_1_660" x1="106.162" y1="120.762" x2="106.162" y2="170.494" gradientUnits="userSpaceOnUse">
<stop stop-color="#CFCFCF"/>
<stop offset="1" stop-color="#B0B0B0"/>
</linearGradient>
<linearGradient id="paint17_linear_1_660" x1="106.099" y1="128.238" x2="106.099" y2="168.024" gradientUnits="userSpaceOnUse">
<stop stop-color="#CFCFCF"/>
<stop offset="1" stop-color="#B0B0B0"/>
</linearGradient>
<linearGradient id="paint18_linear_1_660" x1="106.043" y1="135.717" x2="106.043" y2="165.556" gradientUnits="userSpaceOnUse">
<stop stop-color="#CFCFCF"/>
<stop offset="1" stop-color="#B0B0B0"/>
</linearGradient>
<linearGradient id="paint19_linear_1_660" x1="105.984" y1="143.193" x2="105.984" y2="163.072" gradientUnits="userSpaceOnUse">
<stop stop-color="#CFCFCF"/>
<stop offset="1" stop-color="#B0B0B0"/>
</linearGradient>
<linearGradient id="paint20_linear_1_660" x1="105.921" y1="150.672" x2="105.921" y2="160.604" gradientUnits="userSpaceOnUse">
<stop stop-color="#CFCFCF"/>
<stop offset="1" stop-color="#B0B0B0"/>
</linearGradient>
<linearGradient id="paint21_linear_1_660" x1="105.867" y1="157.602" x2="105.867" y2="158.682" gradientUnits="userSpaceOnUse">
<stop stop-color="#CFCFCF"/>
<stop offset="1" stop-color="#B0B0B0"/>
</linearGradient>
<linearGradient id="paint22_linear_1_660" x1="105.357" y1="0" x2="105.357" y2="208.85" gradientUnits="userSpaceOnUse">
<stop stop-color="#CFCFCF"/>
<stop offset="1" stop-color="#B0B0B0"/>
</linearGradient>
<linearGradient id="paint23_linear_1_660" x1="105.3" y1="7.47656" x2="105.3" y2="206.38" gradientUnits="userSpaceOnUse">
<stop stop-color="#CFCFCF"/>
<stop offset="1" stop-color="#B0B0B0"/>
</linearGradient>
<linearGradient id="paint24_linear_1_660" x1="105.237" y1="14.9551" x2="105.237" y2="203.912" gradientUnits="userSpaceOnUse">
<stop stop-color="#CFCFCF"/>
<stop offset="1" stop-color="#B0B0B0"/>
</linearGradient>
<linearGradient id="paint25_linear_1_660" x1="105.183" y1="22.4316" x2="105.183" y2="201.442" gradientUnits="userSpaceOnUse">
<stop stop-color="#CFCFCF"/>
<stop offset="1" stop-color="#B0B0B0"/>
</linearGradient>
<linearGradient id="paint26_linear_1_660" x1="105.12" y1="29.8965" x2="105.12" y2="198.974" gradientUnits="userSpaceOnUse">
<stop stop-color="#CFCFCF"/>
<stop offset="1" stop-color="#B0B0B0"/>
</linearGradient>
<linearGradient id="paint27_linear_1_660" x1="105.068" y1="37.373" x2="105.068" y2="196.504" gradientUnits="userSpaceOnUse">
<stop stop-color="#CFCFCF"/>
<stop offset="1" stop-color="#B0B0B0"/>
</linearGradient>
<linearGradient id="paint28_linear_1_660" x1="105.005" y1="44.8516" x2="105.005" y2="194.036" gradientUnits="userSpaceOnUse">
<stop stop-color="#CFCFCF"/>
<stop offset="1" stop-color="#B0B0B0"/>
</linearGradient>
<linearGradient id="paint29_linear_1_660" x1="104.951" y1="52.3281" x2="104.951" y2="191.566" gradientUnits="userSpaceOnUse">
<stop stop-color="#CFCFCF"/>
<stop offset="1" stop-color="#B0B0B0"/>
</linearGradient>
<linearGradient id="paint30_linear_1_660" x1="104.888" y1="59.8047" x2="104.888" y2="189.096" gradientUnits="userSpaceOnUse">
<stop stop-color="#CFCFCF"/>
<stop offset="1" stop-color="#B0B0B0"/>
</linearGradient>
<linearGradient id="paint31_linear_1_660" x1="104.84" y1="67.2832" x2="104.84" y2="186.628" gradientUnits="userSpaceOnUse">
<stop stop-color="#CFCFCF"/>
<stop offset="1" stop-color="#B0B0B0"/>
</linearGradient>
<linearGradient id="paint32_linear_1_660" x1="104.777" y1="74.7598" x2="104.777" y2="184.158" gradientUnits="userSpaceOnUse">
<stop stop-color="#CFCFCF"/>
<stop offset="1" stop-color="#B0B0B0"/>
</linearGradient>
<linearGradient id="paint33_linear_1_660" x1="104.714" y1="82.2246" x2="104.714" y2="181.676" gradientUnits="userSpaceOnUse">
<stop stop-color="#CFCFCF"/>
<stop offset="1" stop-color="#B0B0B0"/>
</linearGradient>
<linearGradient id="paint34_linear_1_660" x1="104.656" y1="89.7012" x2="104.656" y2="179.206" gradientUnits="userSpaceOnUse">
<stop stop-color="#CFCFCF"/>
<stop offset="1" stop-color="#B0B0B0"/>
</linearGradient>
<linearGradient id="paint35_linear_1_660" x1="104.6" y1="97.1797" x2="104.6" y2="176.738" gradientUnits="userSpaceOnUse">
<stop stop-color="#CFCFCF"/>
<stop offset="1" stop-color="#B0B0B0"/>
</linearGradient>
<linearGradient id="paint36_linear_1_660" x1="104.545" y1="104.656" x2="104.545" y2="174.268" gradientUnits="userSpaceOnUse">
<stop stop-color="#CFCFCF"/>
<stop offset="1" stop-color="#B0B0B0"/>
</linearGradient>
<linearGradient id="paint37_linear_1_660" x1="104.482" y1="112.133" x2="104.482" y2="171.798" gradientUnits="userSpaceOnUse">
<stop stop-color="#CFCFCF"/>
<stop offset="1" stop-color="#B0B0B0"/>
</linearGradient>
<linearGradient id="paint38_linear_1_660" x1="104.428" y1="119.611" x2="104.428" y2="169.33" gradientUnits="userSpaceOnUse">
<stop stop-color="#CFCFCF"/>
<stop offset="1" stop-color="#B0B0B0"/>
</linearGradient>
<linearGradient id="paint39_linear_1_660" x1="104.371" y1="127.088" x2="104.371" y2="166.86" gradientUnits="userSpaceOnUse">
<stop stop-color="#CFCFCF"/>
<stop offset="1" stop-color="#B0B0B0"/>
</linearGradient>
<linearGradient id="paint40_linear_1_660" x1="104.313" y1="134.553" x2="104.313" y2="164.392" gradientUnits="userSpaceOnUse">
<stop stop-color="#CFCFCF"/>
<stop offset="1" stop-color="#B0B0B0"/>
</linearGradient>
<linearGradient id="paint41_linear_1_660" x1="104.25" y1="142.029" x2="104.25" y2="161.922" gradientUnits="userSpaceOnUse">
<stop stop-color="#CFCFCF"/>
<stop offset="1" stop-color="#B0B0B0"/>
</linearGradient>
<linearGradient id="paint42_linear_1_660" x1="104.196" y1="149.508" x2="104.196" y2="159.454" gradientUnits="userSpaceOnUse">
<stop stop-color="#CFCFCF"/>
<stop offset="1" stop-color="#B0B0B0"/>
</linearGradient>
<linearGradient id="paint43_linear_1_660" x1="104.139" y1="156.437" x2="104.139" y2="157.532" gradientUnits="userSpaceOnUse">
<stop stop-color="#CFCFCF"/>
<stop offset="1" stop-color="#B0B0B0"/>
</linearGradient>
<clipPath id="clip0_1_660">
<rect width="210" height="210" fill="white"/>
</clipPath>
</defs>
</svg>
