<svg width="189" height="168" viewBox="0 0 189 168" fill="none" xmlns="http://www.w3.org/2000/svg">
<g clip-path="url(#clip0_1_636)">
<g opacity="0.9">
<path d="M188.418 108.944C190.143 84.9256 149.493 62.4022 97.6244 58.6366C45.7556 54.8711 2.30928 71.2893 0.584296 95.3078C-1.14069 119.326 39.5089 141.85 91.3777 145.615C143.247 149.381 186.693 132.963 188.418 108.944Z" stroke="url(#paint0_linear_1_636)" stroke-width="0.8" stroke-miterlimit="10"/>
<path d="M184.964 103.937C185.641 80.4562 145.072 60.2229 94.3517 58.7451C43.6309 57.2672 1.96486 75.1044 1.28802 98.5855C0.611186 122.067 41.1798 142.3 91.9006 143.778C142.621 145.256 184.287 127.418 184.964 103.937Z" stroke="url(#paint1_linear_1_636)" stroke-width="0.8" stroke-miterlimit="10"/>
<path d="M92.4463 141.963C142.015 141.154 181.899 121.894 181.528 98.9447C181.158 75.9952 140.674 58.0467 91.1044 58.8557C41.5353 59.6647 1.65194 78.9248 2.02248 101.874C2.39302 124.824 42.8771 142.772 92.4463 141.963Z" stroke="url(#paint2_linear_1_636)" stroke-width="0.8" stroke-miterlimit="10"/>
<path d="M92.9941 140.138C141.408 137.041 179.506 116.356 178.087 93.9352C176.668 71.5148 136.271 55.8497 87.8568 58.9462C39.4427 62.0427 1.34533 82.7284 2.76396 105.149C4.18258 127.569 44.58 143.234 92.9941 140.138Z" stroke="url(#paint3_linear_1_636)" stroke-width="0.8" stroke-miterlimit="10"/>
<path d="M93.5071 138.298C140.771 132.917 177.088 110.815 174.623 88.9321C172.159 67.0487 131.846 53.6704 84.5823 59.0509C37.3187 64.4314 1.00178 86.5332 3.46629 108.417C5.93079 130.3 46.2434 143.678 93.5071 138.298Z" stroke="url(#paint4_linear_1_636)" stroke-width="0.8" stroke-miterlimit="10"/>
<path d="M94.0366 136.476C140.154 128.808 174.693 105.285 171.182 83.9352C167.67 62.5854 127.438 51.4939 81.3199 59.1616C35.2022 66.8293 0.663138 90.3526 4.17476 111.702C7.68638 133.052 47.9189 144.144 94.0366 136.476Z" stroke="url(#paint5_linear_1_636)" stroke-width="0.8" stroke-miterlimit="10"/>
<path d="M94.5762 134.652C139.539 124.696 172.291 99.7505 167.732 78.9341C163.172 58.1178 123.026 49.3134 78.0639 59.269C33.1015 69.2246 0.348749 94.1702 4.9085 114.987C9.46824 135.803 49.6138 144.607 94.5762 134.652Z" stroke="url(#paint6_linear_1_636)" stroke-width="0.8" stroke-miterlimit="10"/>
<path d="M95.109 132.831C138.924 120.59 169.897 94.219 164.289 73.9308C158.682 53.6425 118.617 47.1192 74.8022 59.3606C30.9876 71.602 0.0145808 97.9725 5.62215 118.261C11.2297 138.549 51.2944 145.072 95.109 132.831Z" stroke="url(#paint7_linear_1_636)" stroke-width="0.8" stroke-miterlimit="10"/>
<path d="M95.6539 130.987C138.313 116.453 167.498 88.6563 160.84 68.9018C154.181 49.1473 114.202 44.9154 71.5423 59.4495C28.883 73.9836 -0.301659 101.78 6.35657 121.535C13.0148 141.289 52.9946 145.521 95.6539 130.987Z" stroke="url(#paint8_linear_1_636)" stroke-width="0.8" stroke-miterlimit="10"/>
<path d="M96.1744 129.155C137.686 112.335 165.094 83.1222 157.391 63.9062C149.688 44.6903 109.792 42.7481 68.2807 59.5682C26.7691 76.3883 -0.638603 105.601 7.06402 124.817C14.7666 144.033 54.6627 145.975 96.1744 129.155Z" stroke="url(#paint9_linear_1_636)" stroke-width="0.8" stroke-miterlimit="10"/>
<path d="M96.6952 127.327C137.056 108.223 162.682 77.5899 153.933 58.9055C145.184 40.2211 105.373 40.5608 65.0126 59.6643C24.6522 78.7677 -0.974008 109.401 7.7749 128.085C16.5238 146.77 56.3348 146.43 96.6952 127.327Z" stroke="url(#paint10_linear_1_636)" stroke-width="0.8" stroke-miterlimit="10"/>
<path d="M97.2416 125.506C136.449 104.112 160.29 72.0547 150.492 53.9042C140.694 35.7537 100.967 38.3829 61.7603 59.7768C22.5532 81.1707 -1.28772 113.228 8.51015 131.378C18.308 149.529 58.0344 146.9 97.2416 125.506Z" stroke="url(#paint11_linear_1_636)" stroke-width="0.8" stroke-miterlimit="10"/>
<path d="M97.7641 123.677C135.822 99.9982 157.885 66.5212 147.041 48.9038C136.198 31.2863 96.5551 36.1998 58.4967 59.8784C20.4384 83.5569 -1.62377 117.034 9.21961 134.651C20.063 152.269 59.7057 147.355 97.7641 123.677Z" stroke="url(#paint12_linear_1_636)" stroke-width="0.8" stroke-miterlimit="10"/>
<path d="M98.305 121.822C135.212 95.8495 155.49 60.947 143.598 43.8652C131.706 26.7833 92.1467 33.9906 55.2399 59.9631C18.333 85.9356 -1.94547 120.838 9.94665 137.92C21.8388 155.002 61.3982 147.794 98.305 121.822Z" stroke="url(#paint13_linear_1_636)" stroke-width="0.8" stroke-miterlimit="10"/>
<path d="M98.8378 120.012C134.595 91.7521 153.093 55.4275 140.154 38.8786C127.216 22.3298 87.7398 31.8234 51.9826 60.0832C16.2253 88.3431 -2.27283 124.668 10.6659 141.217C23.6046 157.765 63.0805 148.272 98.8378 120.012Z" stroke="url(#paint14_linear_1_636)" stroke-width="0.8" stroke-miterlimit="10"/>
<path d="M99.3581 118.186C133.962 87.643 150.676 49.8974 136.689 33.8792C122.702 17.8609 83.3113 29.6358 48.7072 60.1791C14.103 90.7224 -2.61062 128.468 11.3763 144.486C25.3631 160.505 64.754 148.73 99.3581 118.186Z" stroke="url(#paint15_linear_1_636)" stroke-width="0.8" stroke-miterlimit="10"/>
<path d="M99.899 116.354C133.353 83.5201 148.284 44.3498 133.249 28.865C118.215 13.3803 78.9065 27.4448 45.4526 60.2791C11.9987 93.1133 -2.93286 132.284 12.1021 147.768C27.137 163.253 66.445 149.189 99.899 116.354Z" stroke="url(#paint16_linear_1_636)" stroke-width="0.8" stroke-miterlimit="10"/>
<path d="M100.442 114.523C132.746 79.4003 145.896 38.8067 129.813 23.8545C113.73 8.90229 74.5056 25.2535 42.2019 60.376C9.89823 95.4985 -3.25152 136.092 12.8311 151.044C28.9137 165.997 68.1386 149.645 100.442 114.523Z" stroke="url(#paint17_linear_1_636)" stroke-width="0.8" stroke-miterlimit="10"/>
<path d="M100.961 112.697C132.114 75.2898 143.485 33.2771 126.358 18.8591C109.232 4.44118 70.0928 23.0777 38.9394 60.4851C7.78606 97.8924 -3.58484 139.905 13.5418 154.323C30.6685 168.741 69.8072 150.104 100.961 112.697Z" stroke="url(#paint18_linear_1_636)" stroke-width="0.8" stroke-miterlimit="10"/>
<path d="M101.476 110.855C131.474 71.1625 141.062 27.732 122.891 13.8497C104.72 -0.0324615 65.6711 20.8906 35.6726 60.5826C5.67408 100.275 -3.91399 143.705 14.2571 157.587C32.4281 171.47 71.4773 150.547 101.476 110.855Z" stroke="url(#paint19_linear_1_636)" stroke-width="0.8" stroke-miterlimit="10"/>
<path d="M102.036 109.036C130.883 67.0567 138.685 22.2012 119.462 8.84853C100.239 -4.50417 61.2702 18.7022 32.4233 60.6815C3.57644 102.661 -4.22523 147.516 14.9978 160.869C34.2209 174.222 73.1893 151.015 102.036 109.036Z" stroke="url(#paint20_linear_1_636)" stroke-width="0.8" stroke-miterlimit="10"/>
<path d="M102.556 107.222C130.26 62.9563 136.29 16.6785 116.024 3.85735C95.7579 -8.96382 56.8706 16.5267 29.1666 60.7921C1.46249 105.057 -4.56735 151.335 15.6985 164.156C35.9644 176.978 74.8518 151.487 102.556 107.222Z" stroke="url(#paint21_linear_1_636)" stroke-width="0.8" stroke-miterlimit="10"/>
</g>
</g>
<defs>
<linearGradient id="paint0_linear_1_636" x1="0.584296" y1="95.3078" x2="188.428" y2="108.799" gradientUnits="userSpaceOnUse">
<stop stop-color="#787878"/>
<stop offset="1" stop-color="#B4B4B4"/>
</linearGradient>
<linearGradient id="paint1_linear_1_636" x1="1.28802" y1="98.5855" x2="184.966" y2="103.88" gradientUnits="userSpaceOnUse">
<stop stop-color="#787878"/>
<stop offset="1" stop-color="#B4B4B4"/>
</linearGradient>
<linearGradient id="paint2_linear_1_636" x1="91.1044" y1="58.8557" x2="92.4608" y2="141.963" gradientUnits="userSpaceOnUse">
<stop stop-color="#787878"/>
<stop offset="1" stop-color="#B4B4B4"/>
</linearGradient>
<linearGradient id="paint3_linear_1_636" x1="87.8568" y1="58.9462" x2="93.0496" y2="140.134" gradientUnits="userSpaceOnUse">
<stop stop-color="#787878"/>
<stop offset="1" stop-color="#B4B4B4"/>
</linearGradient>
<linearGradient id="paint4_linear_1_636" x1="84.5823" y1="59.0509" x2="93.6026" y2="138.287" gradientUnits="userSpaceOnUse">
<stop stop-color="#787878"/>
<stop offset="1" stop-color="#B4B4B4"/>
</linearGradient>
<linearGradient id="paint5_linear_1_636" x1="81.3199" y1="59.1616" x2="94.1707" y2="136.454" gradientUnits="userSpaceOnUse">
<stop stop-color="#787878"/>
<stop offset="1" stop-color="#B4B4B4"/>
</linearGradient>
<linearGradient id="paint6_linear_1_636" x1="78.0639" y1="59.269" x2="94.7468" y2="134.614" gradientUnits="userSpaceOnUse">
<stop stop-color="#787878"/>
<stop offset="1" stop-color="#B4B4B4"/>
</linearGradient>
<linearGradient id="paint7_linear_1_636" x1="74.8022" y1="59.3606" x2="95.3132" y2="132.774" gradientUnits="userSpaceOnUse">
<stop stop-color="#787878"/>
<stop offset="1" stop-color="#B4B4B4"/>
</linearGradient>
<linearGradient id="paint8_linear_1_636" x1="71.5423" y1="59.4495" x2="95.8881" y2="130.907" gradientUnits="userSpaceOnUse">
<stop stop-color="#787878"/>
<stop offset="1" stop-color="#B4B4B4"/>
</linearGradient>
<linearGradient id="paint9_linear_1_636" x1="68.2807" y1="59.5682" x2="96.4341" y2="129.05" gradientUnits="userSpaceOnUse">
<stop stop-color="#787878"/>
<stop offset="1" stop-color="#B4B4B4"/>
</linearGradient>
<linearGradient id="paint10_linear_1_636" x1="65.0126" y1="59.6643" x2="96.9758" y2="127.194" gradientUnits="userSpaceOnUse">
<stop stop-color="#787878"/>
<stop offset="1" stop-color="#B4B4B4"/>
</linearGradient>
<linearGradient id="paint11_linear_1_636" x1="61.7603" y1="59.7768" x2="97.5379" y2="125.344" gradientUnits="userSpaceOnUse">
<stop stop-color="#787878"/>
<stop offset="1" stop-color="#B4B4B4"/>
</linearGradient>
<linearGradient id="paint12_linear_1_636" x1="58.4967" y1="59.8784" x2="98.071" y2="123.486" gradientUnits="userSpaceOnUse">
<stop stop-color="#787878"/>
<stop offset="1" stop-color="#B4B4B4"/>
</linearGradient>
<linearGradient id="paint13_linear_1_636" x1="55.2399" y1="59.9631" x2="98.6172" y2="121.602" gradientUnits="userSpaceOnUse">
<stop stop-color="#787878"/>
<stop offset="1" stop-color="#B4B4B4"/>
</linearGradient>
<linearGradient id="paint14_linear_1_636" x1="51.9826" y1="60.0832" x2="99.1504" y2="119.765" gradientUnits="userSpaceOnUse">
<stop stop-color="#787878"/>
<stop offset="1" stop-color="#B4B4B4"/>
</linearGradient>
<linearGradient id="paint15_linear_1_636" x1="48.7072" y1="60.1791" x2="99.6667" y2="117.914" gradientUnits="userSpaceOnUse">
<stop stop-color="#787878"/>
<stop offset="1" stop-color="#B4B4B4"/>
</linearGradient>
<linearGradient id="paint16_linear_1_636" x1="45.4526" y1="60.279" x2="100.2" y2="116.059" gradientUnits="userSpaceOnUse">
<stop stop-color="#787878"/>
<stop offset="1" stop-color="#B4B4B4"/>
</linearGradient>
<linearGradient id="paint17_linear_1_636" x1="42.2019" y1="60.376" x2="100.732" y2="114.208" gradientUnits="userSpaceOnUse">
<stop stop-color="#787878"/>
<stop offset="1" stop-color="#B4B4B4"/>
</linearGradient>
<linearGradient id="paint18_linear_1_636" x1="38.9394" y1="60.4851" x2="101.236" y2="112.367" gradientUnits="userSpaceOnUse">
<stop stop-color="#787878"/>
<stop offset="1" stop-color="#B4B4B4"/>
</linearGradient>
<linearGradient id="paint19_linear_1_636" x1="35.6726" y1="60.5826" x2="101.735" y2="110.511" gradientUnits="userSpaceOnUse">
<stop stop-color="#787878"/>
<stop offset="1" stop-color="#B4B4B4"/>
</linearGradient>
<linearGradient id="paint20_linear_1_636" x1="32.4233" y1="60.6815" x2="102.278" y2="108.684" gradientUnits="userSpaceOnUse">
<stop stop-color="#787878"/>
<stop offset="1" stop-color="#B4B4B4"/>
</linearGradient>
<linearGradient id="paint21_linear_1_636" x1="29.1666" y1="60.7921" x2="102.78" y2="106.864" gradientUnits="userSpaceOnUse">
<stop stop-color="#787878"/>
<stop offset="1" stop-color="#B4B4B4"/>
</linearGradient>
<clipPath id="clip0_1_636">
<rect width="189" height="168" fill="white"/>
</clipPath>
</defs>
</svg>
