<svg width="212" height="181" viewBox="0 0 212 181" fill="none" xmlns="http://www.w3.org/2000/svg">
<circle cx="128.285" cy="84.6738" r="72.0642" transform="rotate(-10 128.285 84.6738)" stroke="url(#paint0_linear_1_589)" stroke-width="0.4"/>
<circle cx="119.019" cy="91.5515" r="66.9024" transform="rotate(-10 119.019 91.5515)" stroke="url(#paint1_linear_1_589)" stroke-width="0.4"/>
<circle cx="109.742" cy="98.4235" r="61.7407" transform="rotate(-10 109.742 98.4235)" stroke="url(#paint2_linear_1_589)" stroke-width="0.4"/>
<circle cx="100.476" cy="105.301" r="56.579" transform="rotate(-10 100.476 105.301)" stroke="url(#paint3_linear_1_589)" stroke-width="0.4"/>
<circle cx="91.1984" cy="112.179" r="51.4173" transform="rotate(-10 91.1984 112.179)" stroke="url(#paint4_linear_1_589)" stroke-width="0.4"/>
<circle cx="81.9322" cy="119.053" r="46.2555" transform="rotate(-10 81.9322 119.053)" stroke="url(#paint5_linear_1_589)" stroke-width="0.4"/>
<circle cx="72.666" cy="125.928" r="41.0938" transform="rotate(-10 72.666 125.928)" stroke="url(#paint6_linear_1_589)" stroke-width="0.4"/>
<circle cx="63.3925" cy="132.806" r="35.9321" transform="rotate(-10 63.3925 132.806)" stroke="url(#paint7_linear_1_589)" stroke-width="0.4"/>
<circle cx="51.5862" cy="140.127" r="30.7704" transform="rotate(-10 51.5862 140.127)" stroke="url(#paint8_linear_1_589)" stroke-width="0.4"/>
<circle cx="42.3089" cy="147.005" r="25.6086" transform="rotate(-10 42.3089 147.005)" stroke="url(#paint9_linear_1_589)" stroke-width="0.4"/>
<circle cx="30.5027" cy="154.332" r="20.4469" transform="rotate(-10 30.5027 154.332)" stroke="url(#paint10_linear_1_589)" stroke-width="0.4"/>
<circle cx="21.2254" cy="161.204" r="15.2852" transform="rotate(-10 21.2254 161.204)" stroke="url(#paint11_linear_1_589)" stroke-width="0.4"/>
<circle cx="11.9593" cy="168.082" r="10.1235" transform="rotate(-10 11.9593 168.082)" stroke="url(#paint12_linear_1_589)" stroke-width="0.4"/>
<defs>
<linearGradient id="paint0_linear_1_589" x1="128.285" y1="12.4097" x2="128.285" y2="156.938" gradientUnits="userSpaceOnUse">
<stop stop-color="white" stop-opacity="0.18"/>
<stop offset="1" stop-color="white"/>
</linearGradient>
<linearGradient id="paint1_linear_1_589" x1="119.019" y1="24.449" x2="119.019" y2="158.654" gradientUnits="userSpaceOnUse">
<stop stop-color="white" stop-opacity="0.18"/>
<stop offset="1" stop-color="white"/>
</linearGradient>
<linearGradient id="paint2_linear_1_589" x1="109.742" y1="36.4828" x2="109.742" y2="160.364" gradientUnits="userSpaceOnUse">
<stop stop-color="white" stop-opacity="0.18"/>
<stop offset="1" stop-color="white"/>
</linearGradient>
<linearGradient id="paint3_linear_1_589" x1="100.476" y1="48.5222" x2="100.476" y2="162.08" gradientUnits="userSpaceOnUse">
<stop stop-color="white" stop-opacity="0.18"/>
<stop offset="1" stop-color="white"/>
</linearGradient>
<linearGradient id="paint4_linear_1_589" x1="91.1984" y1="60.5615" x2="91.1984" y2="163.796" gradientUnits="userSpaceOnUse">
<stop stop-color="white" stop-opacity="0.18"/>
<stop offset="1" stop-color="white"/>
</linearGradient>
<linearGradient id="paint5_linear_1_589" x1="81.9322" y1="72.5971" x2="81.9322" y2="165.508" gradientUnits="userSpaceOnUse">
<stop stop-color="white" stop-opacity="0.18"/>
<stop offset="1" stop-color="white"/>
</linearGradient>
<linearGradient id="paint6_linear_1_589" x1="72.666" y1="84.6347" x2="72.666" y2="167.222" gradientUnits="userSpaceOnUse">
<stop stop-color="white" stop-opacity="0.18"/>
<stop offset="1" stop-color="white"/>
</linearGradient>
<linearGradient id="paint7_linear_1_589" x1="63.3925" y1="96.674" x2="63.3925" y2="168.938" gradientUnits="userSpaceOnUse">
<stop stop-color="white" stop-opacity="0.18"/>
<stop offset="1" stop-color="white"/>
</linearGradient>
<linearGradient id="paint8_linear_1_589" x1="51.5862" y1="109.157" x2="51.5862" y2="171.098" gradientUnits="userSpaceOnUse">
<stop stop-color="white" stop-opacity="0.18"/>
<stop offset="1" stop-color="white"/>
</linearGradient>
<linearGradient id="paint9_linear_1_589" x1="42.3089" y1="121.196" x2="42.3089" y2="172.814" gradientUnits="userSpaceOnUse">
<stop stop-color="white" stop-opacity="0.18"/>
<stop offset="1" stop-color="white"/>
</linearGradient>
<linearGradient id="paint10_linear_1_589" x1="30.5027" y1="133.685" x2="30.5027" y2="174.979" gradientUnits="userSpaceOnUse">
<stop stop-color="white" stop-opacity="0.18"/>
<stop offset="1" stop-color="white"/>
</linearGradient>
<linearGradient id="paint11_linear_1_589" x1="21.2254" y1="145.719" x2="21.2254" y2="176.689" gradientUnits="userSpaceOnUse">
<stop stop-color="white" stop-opacity="0.18"/>
<stop offset="1" stop-color="white"/>
</linearGradient>
<linearGradient id="paint12_linear_1_589" x1="11.9593" y1="157.758" x2="11.9593" y2="178.405" gradientUnits="userSpaceOnUse">
<stop stop-color="white" stop-opacity="0.18"/>
<stop offset="1" stop-color="white"/>
</linearGradient>
</defs>
</svg>
