<svg width="86" height="87" fill="none" xmlns="http://www.w3.org/2000/svg"><path d="M43 86c23.748 0 43-19.252 43-43S66.748 0 43 0 0 19.252 0 43s19.252 43 43 43Z" fill="#B13A31"/><path d="M43.115 83.914c22.404 0 40.566-18.162 40.566-40.566 0-22.404-18.162-40.566-40.566-40.566-22.404 0-40.566 18.162-40.566 40.566 0 22.404 18.162 40.566 40.566 40.566Z" fill="url(#a)"/><path d="M15.994 23.065c-4.265 2.132-6.606-1.391-4.752-4.984 3.13-4.289 11.938-11.706 21.442-13.909 5.552-1.286 7.302 3.477 3.593 6.839l-5.795 2.55-3.94 1.854c-1.739 1.661-6.282 5.517-10.548 7.65Z" fill="url(#b)"/><path d="M43.116 77.192c18.691 0 33.844-15.153 33.844-33.844 0-18.691-15.152-33.844-33.844-33.844-18.691 0-33.844 15.153-33.844 33.844 0 18.691 15.153 33.844 33.844 33.844Z" fill="url(#c)"/><path d="M43.116 73.482c16.643 0 30.135-13.491 30.135-30.134S59.758 13.213 43.115 13.213 12.98 26.705 12.98 43.348s13.492 30.134 30.135 30.134Z" fill="url(#d)"/><path d="M22.485 69.31c-3.245 3.152-4.597 5.177-4.868 5.795 4.018 3.245 14.928 9.62 26.426 9.156 11.498-.463 20.09-5.37 22.949-7.765.039-3.902-.023-13.491-.58-20.63-.556-7.14-3.554-13.175-4.984-15.3V24.224c0-4.73-2.781-4.443-4.172-3.71l-8.23 6.375c-1.854-1.483-6.953-1.545-9.271-1.39l-3.477-4.984c-3.153-3.71-4.637-1.546-4.984 0v7.418c-5.007 2.132-8.577 8.229-9.736 11.01-3.616 8.345-.889 16.381.927 19.356v11.01Z" fill="#FF8A2D" stroke="#B13A31" stroke-width="4.279"/><path d="M26.194 37.089c-.695 2.434.928 5.1 1.623 6.027l-1.623.695v.927c-.116.734.719 1.762 4.984 0 4.265-1.761 5.95 1.044 6.259 2.666 6.583 0 10.16-4.713 11.127-7.07 4.265.371 9.504 2.55 10.547 3.825.927 1.133 1.715 2.782 1.623 6.954-.093 4.173-2.203 7.38-3.246 8.461-2.086 2.009-5.563 4.404-8.345 6.49-1.368 1.026-1.082 1.314-.58 1.74l6.143.695c3.71.695 4.83 2.973 5.1 4.056.348 1.391.232 1.391.232 2.202v1.623l-.232 3.361c-3.987 2.597-14.024 3.941-18.313 3.593l-3.708-4.636c-4.25-6.568-13.607-18.544-15.068-21.558-2.086-4.302-2.086-8.576-2.086-10.894 0-1.512.695-5.448 2.666-8.462 1.622-1.854 2.897-1.274 2.897-.695Z" fill="#FFE4A3"/><path d="M34.675 33.999c.742 1.669 0 2.395-.464 2.55 0 0-1.043.463-1.854-.232-.812-.695-1.829-1.623-1.97-2.898-.232-2.086 1.622-2.047 2.55-1.738.27.077.996.649 1.738 2.318ZM41.259 34.016c-2.88.535-3.515 1.633-3.472 2.115 0 .89.771 1.447 1.285 1.558.9.195 1.93.111 3.859-.445 2.16-.623 2.186-1.892 1.929-2.449 0-.482-.72-1.313-3.601-.779Z" fill="#FEE1A6"/><path d="M40.45 41.03c.657-1.623 2.759-4.057 5.911-.812-.695 1.43-2.851 3.593-5.91.812ZM31.873 36.741c1.113 1.206-1.236 2.82-2.55 3.477-1.668-1.02-1.583-2.975-1.158-3.825.656-.386 2.596-.857 3.709.348Z" fill="#D9D9D9"/><path d="m33.612 39.755-7.998 4.636M40.45 41.03c.656-1.623 2.758-4.057 5.91-.812-.694 1.43-2.85 3.593-5.91.812Zm-11.127-.812c1.314-.657 3.663-2.272 2.55-3.477s-3.052-.734-3.709-.348c-.425.85-.51 2.805 1.16 3.825Z" stroke="#B1332E" stroke-width="1.07"/><path d="M32.685 20.863c0-.65.54-.812.81-.812.65 0 .89.541.928.812.039 1.893.093 5.748 0 6.027-.116.347-.348.463-.927.58-.464.092-.734-.349-.811-.58v-6.027Z" fill="#FEE1A6"/><path d="M29.275 40.102c-1.067-1.78-.311-3.42.4-4.08.32-.353 1.867.389 2.4.866.747 1.187-1.556 2.638-2.8 3.215Z" fill="#B1332E"/><path d="m57.488 23.065-6.143 4.752c-.695.463-1.422.742.58 1.854 2.086 1.16 4.597 4.057 5.563 5.564.966 1.506 1.854.27 1.854-.464V23.876c0-2.04-1.236-1.39-1.854-.811Z" fill="#FEE1A6"/><path d="M25.035 51.924c1.02.742 2.086.464 2.782-.231 1.39 2.492 5.563 2.205 7.65 1.973 1.668-.186 2.318-.582 3.592-1.742.812-.231.928.696.232 1.044-1.738.386-5.517 1.089-8.577 1.274-3.06.186-5.06-1.467-5.679-2.318Z" fill="#B1332E"/><path d="M27.817 48.68s-.58 1.974 0 3.013m0 0c-.696.695-1.762.973-2.782.232.618.85 2.62 2.503 5.68 2.318 3.06-.186 6.838-.889 8.576-1.275.696-.348.58-1.275-.232-1.044-1.274 1.16-1.924 1.556-3.593 1.742-2.086.232-6.258.52-7.65-1.973Z" stroke="#B1332E" stroke-width="1.07"/><path d="M25.615 44.39c-1.623.658-3.71 4.405-.58 7.535" stroke="#E2954D" stroke-width="1.07"/><path d="M31.873 45.665c-1.762-2.874-5.331-2.201-6.375-1.274-.81 1.507 1.391 4.404 2.319 4.52 2.55-.232 4.411-2.666 4.056-3.246Z" fill="#B1332E" stroke="#B1332E" stroke-width=".535"/><path d="M43.657 42.185c-2.542-.992-1.216-2.73-.235-3.474 1.412 0 2.393 1.075 2.707 1.613-.941 1.588-2.04 1.902-2.472 1.861Z" fill="#B1332E"/><path d="M30.714 37.785a.348.348 0 1 0 0-.696.348.348 0 0 0 0 .696ZM43.927 40.566a.58.58 0 1 0 0-1.159.58.58 0 0 0 0 1.159Z" fill="#D9D9D9"/><path d="M48.796 56.097c-.928-1.39.927-2.55 2.086-1.97.695.463.88.98.527 1.893-.352.913-.411 1.004-.759 1.7-.348.695-.605 1.171-.812 1.738-.463 1.275.963.313 1.571 0 .677-.348 1.211-.695 1.907-1.043M54.359 57.546v.102" stroke="#861B03" stroke-width="1.605" stroke-linecap="round"/><path d="M57.78 53.378c.361.814.47 1.63.372 2.283-.099.657-.397 1.1-.804 1.28-.407.181-.935.106-1.49-.26-.55-.365-1.083-.992-1.445-1.806-.361-.814-.47-1.63-.372-2.282.1-.658.397-1.1.804-1.281.407-.18.935-.106 1.49.26.55.365 1.083.993 1.445 1.806Z" stroke="#861B03" stroke-width="1.605"/><defs><linearGradient id="a" x1="22.948" y1="8.693" x2="52.619" y2="83.914" gradientUnits="userSpaceOnUse"><stop stop-color="#FAEB34"/><stop offset=".266" stop-color="#F9E933"/><stop offset=".706" stop-color="#F74131"/></linearGradient><linearGradient id="b" x1="38.248" y1="6.49" x2="11.59" y2="23.644" gradientUnits="userSpaceOnUse"><stop stop-color="#fff" stop-opacity="0"/><stop offset=".235" stop-color="#fff"/><stop offset=".422" stop-color="#fff"/><stop offset=".528" stop-color="#fff"/><stop offset=".694" stop-color="#fff"/><stop offset="1" stop-color="#fff" stop-opacity="0"/></linearGradient><linearGradient id="c" x1="35.814" y1="30.83" x2="56.677" y2="70.817" gradientUnits="userSpaceOnUse"><stop stop-color="#F23F2D"/><stop offset="1" stop-color="#FFAD32"/></linearGradient><linearGradient id="d" x1="25.498" y1="19.472" x2="58.299" y2="67.571" gradientUnits="userSpaceOnUse"><stop stop-color="#FDDE4F"/><stop offset=".804" stop-color="#FB4429"/></linearGradient></defs></svg>