<svg width="680" height="864" fill="none" xmlns="http://www.w3.org/2000/svg"><g clip-path="url(#a)"><path d="m141.027 402.525 114.504-12.208h173.862c6.034 0 40.329 2.442 129.239 12.208 88.909 9.767 117.03 79.844 119.977 113.663v346.461H.843V516.188c0-73.755 93.456-106.506 140.184-113.663Z" fill="#000" stroke="#000" stroke-width=".842"/><path d="M71.986 605.013v157.265l18.415 68.376 48.34-1.709 26.701-19.231c-3.682-3.703-13.259-13.077-22.097-20.94-11.049-9.829-25.321-43.59-36.37-67.094-11.05-23.505-15.193-84.616-14.272-100.428.737-12.649-13.504-16.097-20.717-16.239Z" fill="#F79B74" stroke="#861B03" stroke-width="1.684"/><path d="M72.407 676.157c4.35-12.348 15.998-39.403 27.785-48.833 3.929 1.123 11.113 7.662 8.419 24.838l-10.945 11.072c5.052-1.445 13.639 1.136 7.577 23.027l-26.1 26.1h-8.42c1.544-3.648 1.684-15.492 1.684-23.574v-12.63Z" fill="#FFD2BA"/><path d="M72.407 688.787v-12.63c4.35-12.348 15.998-39.403 27.785-48.833 3.929 1.123 11.113 7.662 8.419 24.838l-10.945 11.072m-25.258 25.553 25.258-25.553m-25.258 25.553c0 8.082-.14 19.926-1.684 23.574h8.42l26.099-26.1c6.062-21.891-2.525-24.472-7.577-23.027" stroke="#861B03" stroke-width="1.684"/><path d="M90.51 810.027c13.135 3.031 23.154 13.612 26.522 18.523l5.051 33.678H75.355c-12.124-21.554-16.839-53.605-17.68-66.935V690.471c.14-1.123 2.61-1.769 11.366 4.63s10.384 13.612 10.103 16.418c-3.368 46.139 6.174 84.896 11.366 98.508Z" fill="#FFD2BA" stroke="#861B03" stroke-width="1.684"/><path d="M182.282 685.84v175.967h-79.564c1.684-31.658 38.589-58.375 56.831-67.777v-74.513c0-17.512 15.155-29.748 22.733-33.677Z" fill="#FFD2BA" stroke="#861B03" stroke-width="1.684"/><path d="M57.674 720.781h7.578c1.122-8.561 1.179-24.754-7.578-21.049M71.566 612.59c3.508-.561 10.524 1.095 10.524 12.209v9.682H71.566M84.195 648.373c1.543 1.825 5.22 5.473 7.577 5.473 5.894-5.193 15.155-17.176 5.052-23.575M82.51 678.683l7.578 9.262c4.21-2.947 11.703-13.051 7.998-24.838" stroke="#861B03" stroke-width="1.684"/><path d="M115.347 739.724c-11.647 8.139-32.836 33.51-24.416 69.882M115.346 817.183c1.684-2.946 6.904-9.766 14.313-13.471" stroke="#861B03" stroke-width=".842"/><path d="M82.09 708.993c2.86 10.253 9.49 30.612 15.962 41.256m0 0c1.146 1.885 1.867 3.044 2.982 4.209l-2.982-4.209Zm-6.7 25.258c-1.965-2.526-6.736-9.43-11.788-18.523" stroke="#861B03" stroke-width=".842"/><path d="m231.956 522.502-88.405-119.977 106.506-11.787 26.522 77.038c13.33 21.469 33.004 67.271 5.051 78.722-27.952 11.45-50.657 36.765-58.515 47.991l-31.152-47.991 39.993-23.996ZM540.107 400.42l-108.611-10.103c-7.857 17.54-23.995 53.211-25.679 55.568-1.684 2.358-3.227 63.287-3.789 93.456 33.005 9.767 57.253 35.221 65.251 46.728l23.996-39.571-37.888-27.784 86.72-118.294Z" fill="#1A1720" stroke="#000" stroke-width=".842"/><path d="M248.795 390.317v-55.99l182.281 3.368v52.622l-29.889 150.708-11.787 30.31-63.567 21.891-43.781-46.307-33.257-156.602Z" fill="#fff" stroke="#000" stroke-width=".842"/><path d="M340.988 477.458a7.577 7.577 0 1 0 0-15.155 7.577 7.577 0 0 0 0 15.155Z" fill="#000" stroke="#000" stroke-width=".842"/><path d="m204.594 200.458 18.944 17.26 39.993-118.293 129.659-3.368 71.987 128.817 9.261-24.416 5.894-112.4c-11.788-44.791-47.57-57.954-63.988-58.936-45.465-39.15-79.985-26.522-123.345-25.68-34.688.674-57.112 31.152-63.988 46.307-21.554 15.155-26.662 39.431-26.521 49.675l2.104 101.034Z" fill="#260805" stroke="#000" stroke-width=".842"/><path d="M232.799 43.014c-.982 2.105.169 6.146 12.629 5.473 3.903-.211 8.431 1.224 13.051 3.545m0 0c4.421 2.222 8.927 5.255 13.05 8.433m-13.05-8.433c1.378-2.532 2.113-6.078.256-9.018m12.794 17.45c5.323 4.103 10.009 8.447 13.05 11.597l-13.05-11.597Zm-12.794-17.45c-2.083-3.297-7.426-5.831-18.779-5.318m18.779 5.318c2.459-3.232 6.12-7.391 10.689-11.725m-29.468 6.407a79.44 79.44 0 0 0-3.789.267l3.789-.267Zm29.468-6.407c4.322-4.1 9.457-8.356 15.155-12.13m-15.155 12.13c11.366-5.213 36.966-10.918 52.621 3.727 13.051 12.208 11.732 22.282 9.61 28.626m81.534 10.524c1.45 1.388 1.713-1.6-4.002-19.785-7.409-23.575-21.891-36.625-49.254-45.045-7.543-2.321-14.114-2.57-34.52-2.314m87.776 67.144c-.429-.41-.963-1.206-1.476-2.105l1.476 2.105ZM325.413 7.022c-2.502.031-5.166.1-7.998.21-3.701.144-7.362.741-10.946 1.693m18.944-1.903c14.313-.912 45.465 3.41 55.569 27.994 4.93 11.997 6.051 20.606 5.417 26.52m-79.93-52.61c15.857-3.091 46.728 3.778 58.516 26.09 10.831 20.503 3.147 32.843-1.346 37.045m-57.17-63.136a59.89 59.89 0 0 0-4.107 1.253m84.037 51.359c-.191 1.782-.541 3.319-.995 4.63m.995-4.63-.995 4.63m-4.422 5.894c1.536-.768 3.298-2.636 4.422-5.893m-21.765 5.893c-1.244 1.165-2.549 1.831-3.706 2.105l3.706-2.105Zm-61.277-61.883c10.35-2.245 31.516 1.122 47.468 18.523 9.261 10.103 12.208 25.258 9.261 37.467-1.453 6.018-6.329 4.216-8.549 5.893m-48.18-61.883c-6.301 2.169-12.302 5.352-17.783 8.982m65.963 52.901c-2.537 1.918-4.642 1.862-5.764 1.263l5.764-1.263ZM284.579 19.16c8.56-1.45 29.737-1.751 41.676 4.49 18.523 9.682 23.575 24.416 23.575 37.045 0 9.21-3.402 11.526-6.315 11.085m0 0c-1.997-.302-4.045-1.91-5.473-3.508l5.473 3.508Zm-11.86-8.138c-.656 1.965-1.557 3.535-2.453 4.63l2.453-4.63Zm87.635-34.52c-2.187 2.803-5.04 7.61-6.614 13.05m0 0c-.989 3.42-1.471 7.092-.963 10.671m.963-10.67c6.879 6.251 24.515 16.008 42.397 7.827m-43.36 2.843c.342 2.413 1.135 4.785 2.526 7.01 6.735 10.777 1.122-.183-2.526-7.01ZM455.073 50c.982-.449 1.965-.952 2.947-1.513L455.073 50Zm7.156 2.843c-7.015 5.845-25.426 15.093-42.939 5.326-14.757-8.23-8.231-1.693-.774 4.597m0 0a206.504 206.504 0 0 0 4.142 3.402l-4.142-3.402Zm48.344-2.913c-3.929 5.052-17.428 13.808-39.992 8.42-18.895-4.513-16.28.5-10.893 5.051m0 0a44.772 44.772 0 0 0 3.315 2.526l-3.315-2.526Zm62.251 6.736c-6.105 6.455-22.987 17.933-41.676 12.208-8.334-2.554-12.347-2.858-13.892-2.099m0 0c-1.92.942-.033 3.523 2.105 5.467l-2.105-5.467Zm57.673 2.099c-7.803 6.455-26.893 17.428-40.834 9.682-6.129-3.405-9.24-4.06-10.582-3.367m0 0c-1.71.883-.547 3.955.9 6.314l-.9-6.314Zm48.049 55.568c-2.246-.421-9.093 1.431-18.523 12.208-9.43 10.777-5.332 6.455-2.105 2.947l2.105 7.999c5.332-6.595 17.681-18.443 17.681-12.63 0 5.894 0 8.42-.421 8.841-.421-2.806-4.126-5.052-15.576 10.103-9.647 12.768-10.011 7.707-8.544 1.684m0 0c.274-1.126.612-2.285.966-3.368l-.966 3.368Zm23.699-4.631c.842-3.788-7.999-3.367-25.259 15.997-1.618 1.816-3.219 3.258-4.519 4.631m0 0c-13.987 14.763-4.939 10.387 1.993 5.894l-1.993-5.894ZM224.38 53.96c-.456 4.35 6.569 12.04 38.308 7.998 27.932-3.557 16.944 1.972 4.893 6.314m0 0a186.965 186.965 0 0 1-4.893 1.684l4.893-1.684Zm-50.779-7.808c5.052 5.97 19.954 15.47 39.151 5.704 16.472-8.381 10.977-1.655 4.209 4.59m0 0a118.192 118.192 0 0 1-3.367 2.987l3.367-2.988Zm-46.728-4.59c1.684 5.893 11.956 16.502 39.572 11.787 23.375-3.991 18.841-.02 11.366 3.592m0 0a83.026 83.026 0 0 1-4.21 1.88l4.21-1.88Zm-58.936 0c8.419 6.942 29.721 18.13 47.57 7.353 14.793-8.931 13.451-3.83 9.682 1.694m0 0a49.202 49.202 0 0 1-2.526 3.358l2.526-3.358Zm-59.778 0c6.876 6.312 26.521 17.503 50.096 11.777 19.44-4.72 15.979-1.942 9.682 1.066m0 0c-1.339.64-2.807 1.29-4.209 1.881l4.209-1.881Zm-59.778 42.716 22.312 18.943v9.683l-21.47-19.786v10.524l21.47 18.523v10.103l-21.47-19.364v14.313l20.628 13.05" stroke="#8F6636" stroke-width="2.526"/><path d="m204.594 200.458 18.944 17.26 39.993-118.293 129.659-3.368 71.987 128.817 9.261-24.416 5.894-112.4c-11.788-44.791-47.57-57.954-63.988-58.936-45.465-39.15-79.985-26.522-123.345-25.68-34.688.674-57.112 31.152-63.988 46.307-21.554 15.155-26.662 39.431-26.521 49.675l2.104 101.034Z" stroke="#000" stroke-width="1.684"/><path d="m304.785 386.949-55.147-52.622 180.597 3.789c-14.033 13.05-43.529 40.582-49.254 46.307-5.725 5.725-13.05 7.437-15.997 7.578H319.94c-7.746 0-13.33-3.368-15.155-5.052Z" fill="#861B03"/><path d="M233.219 101.529c3.368-22.9 26.942-43.5 38.309-50.938 48.833 10.104 113.241 4.21 139.342 0 22.564 10.104 35.502 38.168 39.15 50.938v48.412l13.05 12.629c-2.946 36.905-9.093 115.263-10.103 133.449-1.01 18.186-11.366 31.713-16.418 36.203-11.086 9.963-35.446 31.573-44.202 38.309-8.756 6.736-23.855 8.419-30.31 8.419-6.315.421-23.238 1.011-40.414 0-17.175-1.01-28.766-7.156-32.414-10.103-8.7-7.577-29.3-25.511-42.098-36.625-12.797-11.113-17.4-28.766-18.102-36.203l-8.84-133.449 13.05-12.629v-48.412Z" fill="#FFD2BA" stroke="#871B01" stroke-width="1.684"/><path d="M202.91 205.51c0-15.026 15.015-4.21 20.628 5.051l4.21 71.145c-2.695.337-8.841-3.648-12.63-6.736-3.788-3.087-12.208-39.992-12.208-69.46ZM479.891 207.939c1.609-17.648-14.38-4.451-20.048 4.294l-5.981 68.235c2.592.397 5.642-4.301 12.156-9.287 4.431-3.392 10.946-31.152 13.873-63.242Z" fill="#FFD2BA" stroke="#861B03" stroke-width=".842"/><path d="m295.103 465.671-14.313-33.678h53.463l-6.314 6.736-32.836 26.942Z" fill="#000" stroke="#000" stroke-width=".842"/><path d="M464.333 233.294c1.011-4.715-3.508-7.578-5.893-8.42l-1.263 13.472c1.964.28 6.146-.337 7.156-5.052ZM218.064 234.136c-.673-6.062 3.93-7.157 6.315-6.736l.842 11.366c-1.825.983-6.483 1.432-7.157-4.63Z" fill="#FC9870"/><path d="M464.333 233.294c1.011-4.715-3.508-7.578-5.893-8.42l-1.263 13.472c1.964.28 6.146-.337 7.156-5.052ZM218.064 234.136c-.673-6.062 3.93-7.157 6.315-6.736l.842 11.366c-1.825.983-6.483 1.432-7.157-4.63Z" stroke="#861B03" stroke-width=".842"/><path d="m384.35 466.513-39.151-34.52h52.622l-13.471 34.52Z" fill="#000" stroke="#000" stroke-width=".842"/><path d="m396.978 380.213-38.308 32.836v18.523h59.357l-21.049-51.359ZM283.315 380.213l39.15 32.836 10.103 15.997-10.103 2.526h-61.883l22.733-51.359Z" fill="#151314"/><path d="m396.978 380.213-38.308 32.836v18.523h59.357l-21.049-51.359ZM283.315 380.213l39.15 32.836 10.103 15.997-10.103 2.526h-61.883l22.733-51.359Z" stroke="#000" stroke-width=".842"/><path d="M340.988 442.938c11.16 0 20.207-9.046 20.207-20.206s-9.047-20.207-20.207-20.207-20.207 9.047-20.207 20.207 9.047 20.206 20.207 20.206Z" fill="#000" stroke="#000" stroke-width=".842"/><path d="M251.742 194.564c-1.684-9.766 11.647-25.399 18.523-31.994l-.421-.842c-2.385-1.122-9.093-2.273-16.839 2.105-7.746 4.378-11.086 22.312-11.787 30.731h10.524ZM431.229 194.144c1.659-9.714-11.478-25.261-18.254-31.82l.415-.838c2.35-1.116 8.961-2.26 16.594 2.094 7.634 4.354 10.926 22.19 11.617 30.564h-10.372Z" fill="#F79B74"/><path d="m458.439 208.035-13.861-13.09v-23.637c0-4.107-.536-9.763-5.042-14.773-2.146-2.384-3.83-1.963-6.304-3.799V94.067c-.141-7.738-3.84-20.322-19.837-32.53l-6.639-3.347-.214.053c-10.272 2.522-30.723 7.545-46.433 7.545-19.446 0-66.398 1.688-81.947-7.598-7.845 3.658-24.542 16.377-28.577 37.988v54.87c-3.922 2.674-11.683 11.144-11.346 23.637.336 12.494.14 20.119 0 22.371l-14.282 13.084-2.947-47.149 12.186-13.209v-47.695c.139-4.221 3.11-16.04 13.867-29.546C257.822 59.034 267.516 52 271.018 50.17c15.268 2.673 51.353 7.513 73.542 5.487 17.65-.422 55.472-2.11 65.558-5.488 9.566 4.178 30.741 20.097 39.65 50.542.012.039.011.854.001 2.248-.026 14.365-.591 47.402-.591 47.402l13.05 12.629-3.789 45.044Z" fill="#FE9571"/><path d="M242.061 269.919c-.674-18.523-10.524-27.083-15.997-29.469 1.122 14.454 3.031 43.613 3.368 49.675.337 6.062.782 8.841 1.263 11.367 2.694 14.144 10.103 23.153 13.892 26.942-.562-12.349-1.853-39.993-2.526-58.515ZM303.522 162.57h9.682c12.124 6.736 15.436 21.049 15.576 27.364v61.462c0 2.02.644 5.045 2.57 7.577 1.953 2.568 5.224 4.631 10.48 4.631 5.257 0 9.746-1.221 11.788-3.789 2.014-2.532 1.614-6.399 1.684-8.419v-61.462c0-11.451 8.981-21.611 13.471-25.259l5.051-2.105 15.155-5.472c.421 1.122-1.347 4.21-11.787 7.577-10.44 3.368-14.453 19.645-15.155 27.364-.28 2.104 0 10.44 3.368 26.942 3.368 16.502 16.277 26.801 22.312 29.889 2.806.561 10.019 3.283 16.417 9.682 6.399 6.399 7.578 23.154 4.631 26.522-2.947 3.367-10.44 8.082-16.839 0-7.998-10.104-8.84-11.367-16.839-15.576-4.887-2.573-13.05-3.789-20.627-1.263-5.052 1.263-7.999 2.525-8.841 5.472v11.367c-2.357 5.051-5.192 2.104-6.314 0v-11.367c0-2.694-4.21-4.63-6.736-5.472-2.526-.842-7.156-1.179-17.26-.842-10.103.336-15.435 7.718-16.839 11.366-1.684 3.227-7.072 9.935-15.155 10.945-8.082 1.011-8.139-13.05-7.156-20.206 0-4.21 3.704-14.229 18.523-20.628 14.818-6.399 22.452-21.47 24.416-28.205 1.403-3.509 4.041-14.145 3.368-28.626-.674-14.482-15.015-27.925-18.944-29.469ZM300.154 331.802c-18.86-2.358-24.697-16.699-25.259-23.575-2.385 3.648-5.388 12.966 1.684 21.049 7.073 8.082 18.664 5.051 23.575 2.526ZM383.506 331.209c16.457-2.341 21.551-16.577 22.041-23.403 2.082 3.622 4.702 12.872-1.469 20.896-6.172 8.023-16.287 5.014-20.572 2.507ZM341.831 318.751c-15.492.337-27.223-2.105-31.152-3.368l17.681 11.788h31.573l21.048-13.471c-5.262 3.367-23.658 4.714-39.15 5.051Z" fill="#F79B74"/><path d="M290.472 191.197h-24.838c-.701 3.087-1.178 11.619 2.526 21.048 3.705 9.43 16.418 12.068 22.312 12.209v-33.257ZM391.505 225.716v-34.519h-24.416c-1.263 2.525-.842 4.209 0 15.576 1.003 13.538 16.98 18.242 24.416 18.943Z" fill="#F79B74"/><path d="M418.027 191.618c-1.263 3.788-7.915 11.029-24.417 9.682" stroke="#D8A383" stroke-width="1.684"/><path d="M417.607 191.197h-50.096l11.366-11.367h27.363l11.367 11.367Z" fill="#F4FDFA"/><path d="M430.657 191.197h-13.05m0 0h-50.096l11.366-11.367h27.363l11.367 11.367Zm0 0s3.367 5.472 4.63 5.472h8.42" stroke="#861B03" stroke-width="1.263"/><path d="M396.978 190.776c-6.736-.337-8.419-6.877-8.419-10.104h17.68c.421 5.052-2.525 10.44-9.261 10.104Z" fill="#000" stroke="#000" stroke-width=".842"/><path d="M315.309 164.254h-61.883c4.21-4.209 16.502-12.629 31.994-12.629s26.381 8.42 29.889 12.629ZM431.075 164.254h-61.883c3.789-4.35 15.324-13.05 31.152-13.05 15.829 0 27.083 8.7 30.731 13.05Z" fill="#1E0906" stroke="#000" stroke-width=".842"/><path d="M260.582 186.566s6.588-11.366 13.471-11.366h18.523M251.742 196.248c4.069.281 12.545-.336 13.892-5.051-1.404 2.946-.59 9.766 13.892 13.471 1.964.561 6.651 1.684 9.682 1.684M390.241 174.358h19.365c6.403 0 12.208 10.945 12.208 10.945M367.931 190.776l-2.105 2.104c2.667 4.351 11.872 13.135 27.363 13.472" stroke="#861B03" stroke-width="1.263"/><path d="M316.571 193.301c-2.806 3.509-12.124 10.02-26.942 7.999" stroke="#D8A383" stroke-width="1.684"/><path d="m303.942 180.251 10.946 10.946h-49.675L277 180.251h26.942Z" fill="#F4FDFA"/><path d="M252.164 191.197h13.05m0 0 11.787-10.946h26.943l10.945 10.946m-49.675 0h49.675m0 0 6.315 5.893" stroke="#861B03" stroke-width="1.263"/><path d="M315.73 164.675c5.34 4.691 12.083 12.627 13.05 23.996v50.938c-.561 5.893-1.263 15.576 2.947 19.785 1.263 1.544 4.967 4.631 9.682 4.631 4.715 0 8.841-1.052 11.367-3.368 2.525-2.315 3.367-3.368 2.525-21.048v-50.938c0-6.315 4.991-17.811 13.893-23.996" stroke="#731F09" stroke-width="1.263"/><path d="M294.682 190.355c-5.894-.281-8.28-5.894-7.999-9.262h16.839c.842 5.473-3.789 9.502-8.84 9.262Z" fill="#190606" stroke="#000" stroke-width=".842"/><path d="M300.576 309.009c4.911-3.789 16.839-12.292 25.259-15.997 8.419-3.704 11.927-1.543 12.629 0 1.684.562 5.809 1.347 8.84 0 3.789-1.683 5.052-2.526 11.366 0 6.315 2.527 19.786 11.366 25.68 15.997 3.91 3.073 8.091 2.111 10.524.813l1.263-.813a8.668 8.668 0 0 1-1.263.813c-2.433 1.298-6.614 2.26-10.524-.813h-83.774Z" fill="#C06351"/><path d="M285.841 306.904c1.403 2.526 6.314 6.483 14.734 2.105m0 0c4.911-3.789 16.839-12.292 25.258-15.997 8.42-3.704 11.928-1.543 12.629 0 1.684.562 5.81 1.347 8.841 0 3.789-1.683 5.052-2.526 11.366 0 6.315 2.527 19.786 11.366 25.679 15.997m-83.773 0h83.773m0 0c3.91 3.073 8.092 2.111 10.525.813m0 0a8.668 8.668 0 0 0 1.263-.813l-1.263.813Z" stroke="#861B03" stroke-width=".842"/><path d="M342.672 313.7c-24.248.337-37.888-2.947-41.676-4.631l22.732-6.315c5.389-2.02 9.542-2.525 10.945-2.525 10.946 7.156 13.893 0 18.102 0 3.368 0 22.452 5.893 31.573 8.84-3.789 1.404-17.428 4.294-41.676 4.631Z" fill="#FB9189" stroke="#861B03" stroke-width=".842"/><path d="M218.064 203.405c-2.104 1.403-5.893 5.557-4.209 10.945M465.597 204.668c1.403.28 4.209 2.778 4.209 10.524" stroke="#861B03" stroke-width=".842"/><path d="M312.783 249.712c0-10.103 10.665-12.068 15.997-11.787l.421 14.734c.421 4.631 1.543 5.613 2.105 6.314-6.174 1.123-18.523.842-18.523-9.261ZM371.299 249.712c-.337-10.777-10.805-12.349-15.997-11.787V258.973c6.314 1.404 16.334 1.516 15.997-9.261Z" fill="#FFD3B8"/><path d="M312.783 249.712c0-10.103 10.665-12.068 15.997-11.787l.421 14.734c.421 4.631 1.543 5.613 2.105 6.314-6.174 1.123-18.523.842-18.523-9.261ZM371.299 249.712c-.337-10.777-10.805-12.349-15.997-11.787V258.973c6.314 1.404 16.334 1.516 15.997-9.261Z" stroke="#731F09" stroke-width="1.263"/><path d="M441.602 266.551c1.01-13.808 9.963-21.47 14.313-23.575l-3.789 50.938c0 15.492-8.699 30.03-13.05 35.362l.842-7.578c.141-12.629.674-41.339 1.684-55.147Z" fill="#F79B74"/><path d="M232.798 547.34c-.336-7.746-2.385-15.857-3.367-18.944h10.103c-.701 2.385-2.105 9.514-2.105 18.944 0 9.429 1.404 17.119 2.105 19.785-1.347 1.684-5.052.702-6.736 0 .141-3.367.337-12.039 0-19.785Z" fill="#252A26" stroke="#141513" stroke-width=".842"/><path d="M227.746 529.659c-3.368-1.684-3.087-7.157-2.526-9.683 3.509-1.683 11.703-4.041 16.418 0 4.715 4.042 1.965 8.139 0 9.683-3.227.701-10.524 1.684-13.892 0Z" fill="#252A26" stroke="#141513" stroke-width=".842"/><path d="M220.59 484.194c2.386-2.807 7.83-8.756 10.525-10.104 2.694-1.347 10.945 6.174 14.734 10.104l2.947 16.839-7.026 16.285-2.236 5.184c-.846-.406-1.79-.861-2.797-1.348-7.687-3.715-19.093-9.299-19.093-9.597 0-.337 1.964-18.383 2.946-27.363Z" fill="#FF0D00"/><path d="M223.116 516.609c5.725 13.134 17.54 2.947 22.733-3.789m-25.259-28.626c2.386-2.807 7.83-8.756 10.525-10.104 2.694-1.347 10.945 6.174 14.734 10.104l2.947 16.839-9.262 21.469c-7.297-3.508-21.89-10.608-21.89-10.945 0-.337 1.964-18.383 2.946-27.363Z" stroke="#A70000" stroke-width=".842"/><path d="M252.585 512.82c-1.347 9.43-13.752 11.787-19.786 11.787-4.041 0-8.419-1.964-10.103-2.947-12.798-5.388-8.7-28.906-5.052-39.992 5.052 2.694 8.841 12.349 10.103 16.839 2.526 3.648 8.252 8.419 10.946-1.684 2.694-10.103 7.858-14.313 10.103-15.155 1.825 6.455 5.136 21.722 3.789 31.152Z" fill="#FF0D00" stroke="#A70000" stroke-width=".842"/><path d="M224.524 514.083c-6.736-10.44.842-25.399 5.472-31.573l2.526-2.105c3.227 2.947 9.262 11.366 10.946 16.418 1.683 5.052.982 11.226 0 14.313-3.509 5.332-12.209 13.387-18.944 2.947Z" fill="#FF2317"/><path d="M224.525 514.083c-6.736-10.44.276-23.715 4.907-29.889l2.946-4.21c3.228 2.947 9.407 11.787 11.091 16.839 1.683 5.052 1.118 13.892-1.829 17.26" stroke="#A70000" stroke-width=".842"/><path d="M348.566 843.284c86.257 0 156.181-69.925 156.181-156.181 0-86.257-69.924-156.181-156.181-156.181-86.256 0-156.181 69.924-156.181 156.181 0 86.256 69.925 156.181 156.181 156.181Z" fill="#B13A31"/><path d="M348.987 835.706c81.373 0 147.34-65.966 147.34-147.34 0-81.374-65.967-147.341-147.34-147.341-81.374 0-147.341 65.967-147.341 147.341 0 81.374 65.967 147.34 147.341 147.34Z" fill="url(#b)"/><path d="M250.48 614.695c-15.492 7.746-23.995-5.051-17.26-18.101 11.366-15.576 43.36-42.519 77.88-50.517 20.162-4.672 26.521 12.628 13.05 24.837l-21.048 9.262-14.313 6.735c-6.315 6.034-22.817 20.039-38.309 27.784Z" fill="url(#c)"/><path d="M348.988 811.29c67.889 0 122.924-55.035 122.924-122.924 0-67.889-55.035-122.924-122.924-122.924-67.889 0-122.924 55.035-122.924 122.924 0 67.889 55.035 122.924 122.924 122.924Z" fill="url(#d)"/><path d="M348.986 797.819c60.449 0 109.453-49.004 109.453-109.453 0-60.449-49.004-109.453-109.453-109.453-60.449 0-109.453 49.004-109.453 109.453 0 60.449 49.004 109.453 109.453 109.453Z" fill="url(#e)"/><path d="M274.054 782.664c-11.787 11.45-16.698 18.803-17.68 21.048 14.593 11.788 54.221 34.941 95.981 33.257 41.761-1.684 72.969-19.505 83.353-28.205.141-14.173-.084-49.001-2.105-74.933-2.021-25.932-12.909-47.851-18.102-55.569v-59.357c0-17.176-10.103-16.137-15.155-13.471l-29.889 23.154c-6.735-5.389-25.258-5.614-33.678-5.052l-12.629-18.102c-11.45-13.471-16.839-5.613-18.102 0v26.942c-18.186 7.746-31.152 29.889-35.361 39.993-13.135 30.31-3.228 59.497 3.367 70.302v39.993Z" fill="#FF8A2D" stroke="#B13A31" stroke-width="6.736"/><path d="M287.525 665.632c-2.526 8.841 3.368 18.523 5.894 21.891l-5.894 2.526v3.367c-.421 2.667 2.61 6.399 18.102 0 15.492-6.398 21.61 3.789 22.733 9.683 23.911 0 36.905-17.12 40.413-25.68 15.492 1.347 34.519 9.263 38.309 13.892 3.367 4.114 6.23 10.104 5.893 25.259-.336 15.155-7.998 26.802-11.787 30.731-7.577 7.297-20.207 15.998-30.31 23.574-4.968 3.726-3.929 4.772-2.105 6.315l22.311 2.527c13.471 2.525 17.54 10.799 18.524 14.734 1.262 5.051.841 5.051.841 7.998v5.894l-.841 12.208c-14.482 9.43-50.939 14.313-66.515 13.05l-13.47-16.84c-15.437-23.854-49.421-67.355-54.728-78.301-7.576-15.626-7.577-31.149-7.577-39.569v-.002c0-5.487 2.526-19.785 9.682-30.731 5.894-6.735 10.525-4.63 10.525-2.526Z" fill="#FFE4A3"/><path d="M318.328 654.41c2.695 6.062 0 8.7-1.683 9.261 0 0-3.789 1.684-6.737-.841-2.947-2.526-6.641-5.894-7.156-10.525-.842-7.577 5.894-7.437 9.262-6.315.982.282 3.62 2.358 6.314 8.42ZM342.242 654.473c-10.463 1.941-12.767 5.929-12.612 7.681 0 3.234 2.802 5.255 4.671 5.659 3.27.708 7.006.405 14.013-1.616 7.847-2.264 7.94-6.872 7.007-8.894-.001-1.751-2.616-4.77-13.079-2.83Z" fill="#FEE1A6"/><path d="M339.306 679.946c2.385-5.893 10.019-14.734 21.469-2.946-2.526 5.192-10.356 13.05-21.469 2.946ZM308.154 664.37c4.041 4.378-4.49 10.244-9.262 12.629-6.062-3.704-5.753-10.804-4.209-13.892 2.385-1.403 9.429-3.115 13.471 1.263Z" fill="#D9D9D9"/><path d="m314.468 675.315-29.048 16.839m53.885-12.208c2.385-5.893 10.019-14.734 21.47-2.947-2.526 5.193-10.356 13.051-21.47 2.947Zm-40.413-2.947c4.771-2.385 13.302-8.251 9.261-12.629s-11.086-2.666-13.471-1.263c-1.543 3.088-1.852 10.188 4.21 13.892Z" stroke="#B1332E" stroke-width="1.684"/><path d="M311.099 606.697c0-2.358 1.964-2.947 2.947-2.947 2.357 0 3.227 1.964 3.368 2.947.14 6.876.336 20.88 0 21.89-.421 1.263-1.263 1.684-3.368 2.105-1.684.337-2.667-1.263-2.947-2.105v-21.89Z" fill="#FEE1A6"/><path d="M298.715 676.578c-3.875-6.467-1.131-12.424 1.452-14.819 1.163-1.284 6.782 1.411 8.72 3.143 2.712 4.312-5.651 9.581-10.172 11.676Z" fill="#B1332E"/><path d="m401.188 614.695-22.312 17.26c-2.526 1.684-5.166 2.696 2.105 6.736 7.577 4.21 16.698 14.734 20.207 20.206 3.508 5.473 6.735.983 6.735-1.683v-39.572c0-7.409-4.49-5.052-6.735-2.947Z" fill="#FEE1A6"/><path d="M283.315 719.518c3.705 2.694 7.578 1.684 10.104-.842 5.051 9.053 20.206 8.008 27.784 7.166 6.062-.673 8.419-2.115 13.05-6.324 2.947-.842 3.368 2.526.842 3.788-6.314 1.404-20.038 3.958-31.152 4.631-11.114.674-18.382-5.332-20.628-8.419Z" fill="#B1332E"/><path d="M293.419 707.73s-2.105 7.174 0 10.946m0 0c-2.526 2.526-6.399 3.536-10.104.842 2.246 3.087 9.514 9.093 20.628 8.419 11.114-.673 24.838-3.227 31.152-4.631 2.526-1.262 2.105-4.63-.842-3.788-4.631 4.209-6.988 5.651-13.05 6.324-7.578.842-22.733 1.887-27.784-7.166Z" stroke="#B1332E" stroke-width="1.684"/><path d="M285.421 692.155c-5.893 2.385-13.472 15.997-2.105 27.363" stroke="#E2954D" stroke-width="1.684"/><path d="M308.152 696.784c-6.399-10.44-19.365-7.997-23.153-4.63-2.947 5.473 5.051 15.997 8.419 16.418 9.262-.842 16.024-9.683 14.734-11.788Z" fill="#B1332E" stroke="#B1332E" stroke-width=".842"/><path d="M350.953 684.143c-9.234-3.604-4.417-9.913-.855-12.616 5.13 0 8.693 3.905 9.833 5.857-3.42 5.768-7.41 6.909-8.978 6.759Z" fill="#B1332E"/><path d="M303.943 668.159a1.262 1.262 0 1 0 .001-2.525 1.262 1.262 0 0 0-.001 2.525ZM351.933 678.262a2.105 2.105 0 1 0 0-4.21 2.105 2.105 0 0 0 0 4.21ZM393.61 187.408a2.526 2.526 0 1 0 0-5.052 2.526 2.526 0 0 0 0 5.052ZM290.893 186.566a2.525 2.525 0 1 0 0-5.05 2.525 2.525 0 0 0 0 5.05Z" fill="#D9D9D9"/><path d="M369.615 734.673c-3.368-5.052 3.368-9.262 7.578-7.157 2.526 1.684 3.197 3.562 1.916 6.877-1.281 3.315-1.495 3.647-2.758 6.173-1.263 2.526-2.199 4.256-2.948 6.315-1.684 4.631 3.496 1.136 5.706 0 2.456-1.263 4.398-2.526 6.924-3.789M389.823 739.935v.37" stroke="#861B03" stroke-width="2.526" stroke-linecap="round"/><path d="M402.248 724.798c1.314 2.955 1.712 5.918 1.354 8.289-.361 2.388-1.444 3.995-2.922 4.652-1.477.657-3.395.385-5.411-.947-2-1.323-3.933-3.603-5.248-6.559-1.313-2.955-1.711-5.918-1.353-8.289.362-2.388 1.444-3.995 2.922-4.652 1.477-.656 3.396-.384 5.41.948 2.001 1.322 3.934 3.602 5.248 6.558Z" stroke="#861B03" stroke-width="2.526"/></g><defs><linearGradient id="b" x1="275.737" y1="562.495" x2="383.506" y2="835.706" gradientUnits="userSpaceOnUse"><stop stop-color="#FAEB34"/><stop offset=".266" stop-color="#F9E933"/><stop offset=".706" stop-color="#F74131"/></linearGradient><linearGradient id="c" x1="331.307" y1="554.496" x2="234.483" y2="616.8" gradientUnits="userSpaceOnUse"><stop stop-color="#fff" stop-opacity="0"/><stop offset=".235" stop-color="#fff"/><stop offset=".422" stop-color="#fff"/><stop offset=".528" stop-color="#fff"/><stop offset=".694" stop-color="#fff"/><stop offset="1" stop-color="#fff" stop-opacity="0"/></linearGradient><linearGradient id="d" x1="322.467" y1="642.901" x2="398.242" y2="788.136" gradientUnits="userSpaceOnUse"><stop stop-color="#F23F2D"/><stop offset="1" stop-color="#FFAD32"/></linearGradient><linearGradient id="e" x1="284.998" y1="601.645" x2="404.134" y2="776.349" gradientUnits="userSpaceOnUse"><stop stop-color="#FDDE4F"/><stop offset=".804" stop-color="#FB4429"/></linearGradient><clipPath id="a"><path fill="#fff" d="M0 0h679.45v863.836H0z"/></clipPath></defs></svg>