<svg width="1920" height="329" fill="none" xmlns="http://www.w3.org/2000/svg"><path d="M224.595 231.495c.53-15.568 18.087-45.077 84.085-38.56" stroke="#000"/><path d="M258.79 196.845c-17.303-20.234-28.472-60.485 65.286-59.618" stroke="#000"/><path d="M313.655 137.214c-1.323-6.716 2.224-20.146 27-20.146M352.499 130.767c9.211-5.102 33.002-12.562 54.477-1.583M405.792 202.485c.789-10.815 11.369-34.175 47.371-41.097M507.641 185.122c15.632-7.731 56.913-19.417 96.975-4.315 40.061 15.103 35.769 37.936 28.615 47.465" stroke="#000"/><path d="M512.378 154.363c14.333-1.092 43.639 1.202 46.187 19.113M650.939 202.697c11.663-4.544 39.122-10.143 55.662 3.818M1323.46 225.048c-11.14-10.556-25.29-35.641 7.16-51.53 32.46-15.888 57.02-8.767 65.24-3.22" stroke="#000"/><path d="M1377.06 163.806c-1.07-7.562 3.07-22.133 28.27-19.919M1415.99 157.359c19.64-6.081 66.55-14.594 97.11 0M1526.13 143.756c10.88-.732 32 2.415 29.38 20.856M1545.08 166.12c19.71-1.973 61.65-.968 71.74 18.836 10.1 19.805-1.04 34.443-7.87 39.287" stroke="#000"/><g clip-path="url(#a)"><path d="M1700.19 22.948c-9.06-13.198-25.8-23.47-55.11-22.367-5.96.477-14.3 2.393-21.53 6.533-7.22 4.139-13.3 10.472-14.85 19.783l-.07.418h-.42c-16.6 0-27.33 4.687-34 10.49-6.67 5.81-9.31 12.766-9.71 17.354l-.04.517-.52-.064c-8.83-1.108-23.77-1.774-39.85-.166-16.09 1.61-33.26 5.49-46.6 13.44l-.23.14-.25-.122c-7.19-3.595-19.96-8.584-34.85-11.84-14.77-3.23-31.59-4.749-47.1-1.542v2.929l-1 .05c-.53-5.349-3.55-13.375-10.88-19.954-7.26-6.509-18.79-11.63-36.41-11.293v.68l-1 .086c-.99-5.625-3.69-11.762-9.32-16.78-5.63-5.02-14.23-8.953-27.07-10.104-34.41-3.087-54.91 18.892-60.87 30.266-1.66 5.472-4.49 17.886-4.35 28.849l-.99.08c-1.89-12.819-13.04-31.842-39.53-43.112-28.85-12.274-58.93-7.192-67.65-5.528l-.01.002c-13.52 2.203-42.52 14.992-50.33 48.483v3.032l-.99.112c-.73-3.158-4.59-7.365-14.89-10.833-10.27-3.456-26.8-6.125-52.57-6.322-11.23-.085-21.289.297-30.241 1.012l-.639.051.106-.632c.788-4.71-.774-12.047-8.225-18.56-7.458-6.519-20.841-12.227-43.698-13.558-32.457-1.889-47.173 10.287-52.871 21.957l-.277.567-.489-.4c-6.738-5.51-18.689-12.05-32.601-13.732-13.89-1.68-29.744 1.48-44.358 15.375l-.212.201-.279-.085c-9.05-2.778-23.751-5.47-39.786-5.08-16.037.389-33.363 3.858-47.704 13.358l-.248.164-.263-.14c-6.026-3.212-16.722-6.999-29.167-7.878-12.439-.88-26.595 1.147-39.579 9.524l-.163.105-.192-.032c-14.356-2.437-41.095-4.853-62.866-1.373l-.354.056-.167-.316c-4.267-8.066-21.822-24.826-57.695-26.155-35.998-1.333-55.709-.394-80.072 6.098-10.742 2.863-26.94 8.877-40.603 17.602-13.693 8.744-24.687 20.111-25.329 33.637l-.001.02-.002.02c-.267 2.083-.308 5.47.442 8.819.751 3.356 2.276 6.593 5.072 8.492l-.487.87c-14.679-6.646-53.036-17.947-88.909-9.974l-.778.173.183-.775c1.031-4.376.194-11.04-5.706-16.869-5.908-5.836-16.941-10.885-36.385-11.878h-3.862l-.136-.283c-1.976-4.112-5.981-7.997-11.386-11.334-5.397-3.333-12.154-6.095-19.574-7.979-14.848-3.768-32.277-4-46.703 1.672-20.487 8.054-26.309 28.04-23.681 47.427l-.983.176c-2.641-11.836-8.529-23.707-20.709-32.629-12.188-8.926-30.733-14.94-58.767-14.94-30.317 0-50.168 10.879-62.682 24.438-12.52 13.565-17.722 29.843-18.674 40.68v118.745l8.726 9.697L1942.5 221.941V50.517c-8.58-1.8-22.35-3.115-36.25-1.298-14.13 1.845-28.31 6.91-37.36 17.888l-1.11 1.348.23-1.732c1.87-14.112-8.44-45.503-65.89-56.143-28.67-5.31-49.94 2.433-64.9 14.243-14.98 11.824-23.65 27.742-27.03 38.778l-.98-.214c1.49-10.94.06-27.205-9.02-40.439Z" fill="#E7F5FF" stroke="url(#b)"/><path d="M236.665 97.327c.518 15.54 17.717 44.995 82.368 38.49" stroke="#000"/><path d="M270.162 131.914c-16.95 20.197-27.892 60.374 63.953 59.509" stroke="#000"/><path d="M323.907 191.437c-1.296 6.703 2.179 20.108 26.449 20.108M361.958 197.871c9.023 5.093 32.329 12.539 53.365 1.581M414.163 126.284c.774 10.795 11.137 34.113 46.405 41.022M513.934 143.615c15.313 7.717 55.752 19.382 94.996 4.308 39.244-15.076 35.039-37.867 28.031-47.379" stroke="#000"/><path d="M518.574 174.318c14.041 1.09 42.748-1.199 45.245-19.077M654.309 126.072c11.424 4.537 38.323 10.126 54.525-3.81M1277.29 69.175c2.09 15.252 21.96 44.142 84.69 37.682" stroke="#000"/><path d="M1313.11 103.762c-10.92 10.537-24.78 35.576 7 51.436 31.8 15.859 55.86 8.751 63.91 3.214" stroke="#000"/><path d="M1365.61 164.893c-1.05 7.548 3.01 22.092 27.7 19.883M1403.75 171.328c19.23 6.069 65.18 14.567 95.13 0M1511.64 184.906c10.66.731 31.34-2.41 28.78-20.818M1530.2 162.583c19.3 1.97 60.4.967 70.28-18.802 9.9-19.769-1.02-34.38-7.72-39.215" stroke="#000"/><path d="M1541.8 106.646c28.88 3.544 86.48.851 85.85-38.276" stroke="#000"/></g><defs><linearGradient id="b" x1="964" y1="233" x2="964" y2="0" gradientUnits="userSpaceOnUse"><stop offset=".205" stop-opacity="0"/><stop offset="1"/></linearGradient><clipPath id="a"><path fill="#fff" transform="matrix(1 0 0 -1 0 248.546)" d="M0 0h1920v248.546H0z"/></clipPath></defs></svg>