<?xml version="1.0" standalone="no"?>
<!DOCTYPE svg PUBLIC "-//W3C//DTD SVG 20010904//EN"
 "http://www.w3.org/TR/2001/REC-SVG-20010904/DTD/svg10.dtd">
<svg version="1.0" xmlns="http://www.w3.org/2000/svg"
 width="656.000000pt" height="656.000000pt" viewBox="0 0 656.000000 656.000000"
 preserveAspectRatio="xMidYMid meet">
<metadata>
Created by potrace 1.14, written by Peter Selinger 2001-2017
</metadata>
<g transform="translate(0.000000,656.000000) scale(0.100000,-0.100000)"
fill="#000000" stroke="none">
<path d="M1631 6540 c-5 -3 -8 -122 -9 -266 0 -143 -3 -280 -7 -305 -11 -76
-16 -102 -21 -111 -3 -4 -7 -17 -9 -29 -5 -25 -40 -83 -72 -117 -33 -36 -104
-82 -125 -82 -10 0 -18 -4 -18 -10 0 -5 -3 -9 -7 -8 -5 1 -26 -4 -48 -10 -22
-6 -60 -14 -85 -18 -25 -3 -56 -8 -70 -11 -14 -2 -167 -5 -340 -7 l-315 -3 0
-1249 c0 -687 3 -1276 7 -1309 8 -65 15 -106 24 -145 3 -14 8 -36 11 -50 8
-45 75 -243 108 -320 62 -143 124 -266 184 -360 8 -14 16 -27 16 -30 1 -6 58
-93 66 -100 3 -3 8 -12 11 -20 5 -13 35 -54 155 -219 10 -13 23 -29 28 -35 6
-6 26 -31 44 -56 19 -25 39 -50 45 -55 6 -6 31 -35 56 -65 97 -119 333 -360
495 -507 87 -79 109 -98 168 -145 16 -13 36 -30 45 -38 31 -28 106 -86 217
-169 61 -44 115 -85 121 -90 7 -5 72 -49 145 -97 74 -48 150 -98 170 -111 19
-12 39 -23 44 -23 5 0 16 -7 25 -15 28 -25 341 -180 465 -229 127 -51 130 -51
210 -16 11 5 54 23 95 40 128 54 344 165 439 224 22 15 43 26 46 26 4 0 21 11
39 25 18 14 36 25 40 25 4 0 22 11 40 25 18 14 38 25 44 25 7 0 12 4 12 8 0 4
13 15 29 25 113 67 408 295 610 472 172 151 459 442 543 551 12 16 27 34 33
40 5 6 26 30 45 54 19 24 40 48 45 54 25 26 195 266 195 275 0 5 4 11 8 13 19
7 168 270 243 428 28 60 96 235 104 270 2 8 13 47 24 85 10 39 22 86 25 105 3
19 7 44 10 55 2 11 7 45 12 75 11 79 12 2540 0 2547 -5 4 -151 7 -325 9 -174
1 -327 5 -341 8 -14 4 -45 9 -69 12 -69 8 -193 60 -240 101 -51 43 -82 91
-104 158 -26 82 -30 128 -31 412 -1 150 -5 276 -10 280 -8 9 -3283 11 -3295 3z
m3126 -352 c1 -239 9 -306 45 -411 39 -115 117 -210 219 -270 52 -31 164 -74
211 -82 18 -3 40 -8 48 -10 15 -4 89 -14 160 -21 19 -2 125 -4 236 -5 l201 -2
-2 -1171 c-1 -644 -5 -1184 -8 -1201 -3 -16 -8 -46 -11 -65 -4 -28 -25 -114
-50 -210 -28 -106 -205 -485 -259 -555 -4 -5 -37 -54 -72 -107 -228 -347 -557
-708 -935 -1028 -36 -30 -67 -57 -70 -60 -3 -3 -25 -21 -50 -40 -25 -19 -47
-37 -50 -40 -34 -37 -510 -366 -510 -353 0 3 -8 -1 -17 -9 -10 -9 -34 -24 -53
-33 -19 -10 -37 -21 -40 -25 -8 -11 -280 -144 -373 -183 -91 -38 -116 -43
-133 -29 -5 5 -40 21 -79 37 -236 96 -567 288 -798 462 -31 23 -61 43 -66 43
-5 0 -11 3 -13 8 -1 4 -44 39 -95 79 -98 77 -106 83 -222 183 -195 166 -460
433 -597 600 -16 19 -35 41 -42 48 -7 8 -25 30 -40 50 -15 21 -29 39 -33 42
-3 3 -29 37 -57 75 -28 39 -56 75 -60 81 -5 5 -15 21 -22 35 -7 13 -16 26 -19
29 -6 5 -34 47 -83 125 -13 22 -37 59 -51 83 -15 23 -25 42 -21 42 3 0 -3 12
-14 27 -19 29 -72 137 -73 150 0 5 -6 15 -13 23 -17 20 -88 214 -114 310 -19
72 -34 157 -47 265 -5 37 -9 1944 -6 2266 l1 46 198 2 c271 2 305 5 459 41
210 49 349 162 413 333 10 28 22 67 25 86 3 19 8 38 11 42 4 8 17 200 15 229
0 8 0 35 0 60 1 43 1 64 -2 93 0 6 0 31 2 55 l2 42 1476 0 1477 0 1 -182z"/>
<path d="M2072 6100 c-4 -3 -7 -32 -6 -65 0 -72 -28 -252 -52 -321 -87 -257
-256 -423 -522 -515 -52 -18 -181 -48 -232 -54 -109 -13 -155 -17 -221 -19
-41 -1 -80 -5 -85 -8 -7 -5 -11 -501 -5 -609 1 -14 129 -15 1271 -15 699 1
1270 -2 1270 -5 0 -4 -28 -32 -63 -62 -34 -31 -91 -83 -127 -117 -306 -290
-335 -332 -334 -480 0 -94 22 -156 78 -217 32 -36 113 -91 142 -98 11 -2 35
-8 55 -13 109 -27 249 16 345 106 185 171 247 227 254 227 6 0 141 -125 329
-305 26 -25 118 -112 206 -195 253 -239 278 -269 278 -336 0 -43 -32 -100 -66
-118 -55 -29 -135 -15 -180 32 -12 13 -48 44 -81 69 -48 38 -63 44 -85 39 -26
-7 -51 -42 -51 -73 0 -9 15 -28 33 -43 142 -120 173 -166 155 -234 -30 -111
-148 -133 -244 -45 -144 133 -161 142 -201 101 -35 -34 -26 -60 38 -122 97
-94 119 -120 128 -153 17 -58 -12 -118 -71 -148 -64 -33 -128 -6 -232 98 -74
74 -108 87 -142 54 -31 -32 -22 -68 32 -122 70 -71 93 -108 100 -158 5 -33 2
-52 -12 -75 -10 -17 -22 -31 -25 -31 -4 0 -14 -6 -22 -14 -19 -20 -75 -27
-118 -16 -30 8 -216 151 -233 179 -3 4 21 35 53 68 79 81 94 112 97 201 2 54
-2 84 -17 120 -36 83 -123 149 -214 161 -37 6 -40 8 -47 48 -10 59 -34 107
-75 148 -28 28 -88 66 -113 71 -3 0 -24 4 -47 9 -29 5 -43 13 -44 24 -5 122
-102 230 -221 247 -51 7 -53 10 -56 45 -8 97 -99 200 -202 226 -49 13 -131 8
-179 -10 -53 -20 -80 -44 -328 -287 l-108 -106 -463 1 -463 0 2 -67 c1 -37 8
-95 15 -130 8 -35 16 -72 18 -83 16 -80 85 -264 142 -378 47 -92 125 -228 140
-245 7 -6 16 -21 19 -32 3 -11 11 -20 16 -20 5 0 9 -4 9 -10 0 -10 82 -130
124 -181 12 -14 32 -41 46 -59 29 -39 118 -146 175 -210 114 -129 429 -433
555 -536 48 -39 57 -47 77 -64 9 -8 51 -41 93 -72 41 -32 80 -61 85 -66 28
-23 125 -92 129 -92 3 0 15 -8 26 -18 54 -46 333 -212 483 -287 192 -96 166
-94 322 -17 216 108 450 253 675 420 63 47 117 88 120 91 3 3 38 33 79 66 179
144 430 382 570 540 105 117 116 131 156 180 21 28 42 52 45 55 8 7 108 143
162 220 147 211 295 514 333 680 0 3 6 28 13 55 24 103 39 254 25 256 -4 1
-198 2 -430 3 l-421 1 -99 97 c-54 53 -141 137 -193 188 -52 50 -200 194 -328
318 -128 125 -245 232 -259 238 -38 16 -68 3 -138 -62 -239 -223 -292 -270
-331 -289 -35 -17 -132 -26 -140 -14 -3 5 -12 9 -21 9 -8 0 -32 14 -53 30 -64
51 -80 141 -39 220 11 22 98 113 192 204 273 261 270 259 355 303 131 68 94
66 1050 67 l862 0 0 313 c0 172 -3 313 -7 314 -5 1 -39 2 -78 4 -135 6 -260
21 -340 41 -131 33 -270 88 -307 121 -10 9 -18 13 -18 9 0 -10 -95 68 -144
119 -39 40 -112 148 -133 195 -27 64 -33 78 -47 125 -8 28 -18 68 -22 90 -4
22 -8 49 -11 60 -2 11 -6 63 -10 115 -3 52 -8 97 -10 100 -6 7 -2403 7 -2411
0z m407 -2682 c45 -28 64 -99 38 -145 -16 -28 -356 -375 -388 -396 -14 -9 -41
-14 -68 -13 -89 5 -134 105 -79 176 40 51 364 374 388 387 27 14 79 10 109 -9z
m309 -308 c31 -46 25 -100 -14 -142 -138 -147 -373 -378 -384 -379 -8 0 -22
-2 -31 -4 -9 -1 -35 5 -58 16 -42 19 -72 64 -66 98 2 9 4 23 4 33 1 9 85 102
189 207 103 105 185 192 182 192 -3 0 13 9 34 19 53 25 111 9 144 -40z m229
-232 c47 -21 65 -48 68 -103 3 -40 -9 -61 -64 -116 -25 -26 -106 -108 -179
-183 -74 -75 -147 -143 -162 -151 -61 -32 -120 -12 -149 49 -29 60 -19 90 58
170 340 353 356 365 428 334z m299 -284 c47 -31 65 -95 40 -141 -8 -15 -96
-110 -194 -210 -204 -209 -238 -230 -306 -193 -15 7 -35 28 -45 44 -17 27 -18
41 -12 92 0 5 17 28 37 50 69 76 336 344 357 359 28 20 92 19 123 -1z"/>
</g>
</svg>
