<svg width="128" height="39" viewBox="0 0 128 39" fill="none" xmlns="http://www.w3.org/2000/svg">
<path fill-rule="evenodd" clip-rule="evenodd" d="M12.4488 7.01318V10.5225L11.986 10.5454C11.7286 10.5585 11.3668 10.5911 11.1778 10.6205C10.9888 10.6499 10.6662 10.7119 10.4609 10.7576C10.2556 10.8033 9.9134 10.898 9.70158 10.9665C9.49301 11.0383 9.1769 11.1526 9.00419 11.2244C8.82821 11.2995 8.51536 11.4464 8.31005 11.5541C8.10475 11.6651 7.75279 11.8741 7.52793 12.0242C7.30307 12.1744 6.99674 12.3964 6.84357 12.5172C6.69041 12.6412 6.3743 12.9318 6.14292 13.1668C5.90828 13.3986 5.61825 13.7153 5.49441 13.8687C5.37383 14.0221 5.15223 14.329 5.00233 14.5542C4.85568 14.7795 4.64385 15.1321 4.53631 15.3377C4.42551 15.5434 4.25931 15.9123 4.16154 16.1539C4.06378 16.3954 3.93342 16.7774 3.86825 17.0026C3.80633 17.2279 3.7216 17.5576 3.68575 17.7371C3.64991 17.9167 3.59776 18.2758 3.56518 18.537C3.52607 18.8993 3.51629 19.1735 3.52933 19.7122C3.5391 20.0974 3.57169 20.5675 3.59776 20.7568C3.62709 20.9462 3.68901 21.2694 3.73464 21.475C3.78026 21.6807 3.8878 22.0626 3.97579 22.3238C4.06052 22.585 4.21369 22.9734 4.31145 23.1889C4.40922 23.4044 4.57542 23.7276 4.67644 23.9071C4.78072 24.0866 4.95018 24.3576 5.05121 24.511C5.15223 24.6645 5.3608 24.942 5.51071 25.1313C5.66061 25.3174 5.94739 25.634 6.14292 25.8332C6.34171 26.029 6.65782 26.3163 6.84357 26.4665C7.03259 26.6199 7.34543 26.8484 7.54422 26.979C7.74301 27.1096 8.08519 27.312 8.31005 27.4295C8.53491 27.5438 8.83473 27.6907 8.97812 27.7527C9.1215 27.8147 9.39851 27.9192 9.5973 27.9845C9.79609 28.053 10.1317 28.151 10.3468 28.2032C10.5619 28.2554 10.9432 28.3305 11.1941 28.3697C11.5624 28.4252 11.8003 28.4383 12.4325 28.4415C13.006 28.4415 13.3222 28.4285 13.622 28.386C13.8468 28.3534 14.1988 28.2914 14.4041 28.2457C14.6094 28.1967 14.919 28.1183 15.0884 28.0661C15.2579 28.0106 15.5675 27.9029 15.7728 27.818C15.9781 27.7364 16.2747 27.6058 16.4344 27.5275C16.5908 27.4491 16.8743 27.2891 17.0666 27.1749C17.2621 27.0606 17.601 26.8289 17.8259 26.6624C18.0898 26.4665 18.4222 26.1694 18.7742 25.8201C19.1066 25.4871 19.426 25.128 19.6052 24.8865C19.7649 24.671 19.9995 24.325 20.1234 24.1193C20.2472 23.9136 20.4395 23.5513 20.5503 23.3195C20.6611 23.0877 20.8045 22.7482 20.8696 22.5686C20.9316 22.3891 21.0228 22.1116 21.0684 21.9484C21.114 21.7852 21.189 21.4718 21.2346 21.2465C21.2803 21.0213 21.3389 20.6393 21.365 20.3977C21.3878 20.1562 21.4106 19.8493 21.4106 19.4837H24.9302V19.7546C24.9302 19.9015 24.9171 20.2149 24.8976 20.4467C24.878 20.6785 24.8422 21.0343 24.8128 21.2302C24.7868 21.4261 24.7346 21.7362 24.6988 21.9157C24.6597 22.0953 24.5945 22.3891 24.5521 22.5686C24.5065 22.7482 24.4153 23.0714 24.3468 23.2868C24.2751 23.5023 24.1415 23.8777 24.047 24.1193C23.9525 24.3609 23.7472 24.8081 23.594 25.115C23.4409 25.4218 23.1899 25.8658 23.04 26.1041C22.8869 26.3457 22.6164 26.7374 22.4371 26.9758C22.2579 27.2141 21.9809 27.5601 21.818 27.7462C21.655 27.929 21.3259 28.2685 21.0847 28.5036C20.8436 28.7386 20.4916 29.052 20.3026 29.2022C20.1136 29.3523 19.8301 29.5678 19.6671 29.6853C19.5042 29.7996 19.1979 30.0052 18.9828 30.1391C18.7677 30.2729 18.3799 30.4916 18.1192 30.6222C17.8585 30.7561 17.4837 30.9324 17.2882 31.014C17.0926 31.0989 16.7309 31.2327 16.4898 31.3176C16.2486 31.3992 15.8869 31.5102 15.6913 31.5624C15.4958 31.6146 15.1862 31.6897 15.007 31.7256C14.8277 31.7648 14.4888 31.8203 14.2574 31.8562C14.0261 31.8921 13.6285 31.9346 13.3776 31.9542C13.1266 31.9705 12.716 31.9868 12.4651 31.9868C12.2141 31.9868 11.8035 31.9705 11.5526 31.9542C11.3017 31.9346 10.9432 31.8954 10.7542 31.8693C10.5652 31.8432 10.2588 31.7909 10.0698 31.755C9.88082 31.7191 9.581 31.6506 9.40176 31.6081C9.22253 31.5624 8.8999 31.471 8.68482 31.4025C8.46974 31.3306 8.09497 31.1968 7.85381 31.1021C7.61266 31.0074 7.1662 30.8018 6.85987 30.6483C6.55354 30.4916 6.1527 30.2729 5.96368 30.1554C5.77467 30.0411 5.47486 29.842 5.29562 29.7147C5.11639 29.5874 4.81657 29.3589 4.62756 29.2087C4.4418 29.0585 4.06704 28.7223 3.80307 28.4611C3.53585 28.2 3.19367 27.8474 3.04702 27.6776C2.89711 27.5079 2.63315 27.1749 2.45717 26.9366C2.27793 26.7015 2.02048 26.3261 1.88361 26.1041C1.74674 25.8854 1.52188 25.4904 1.38827 25.2292C1.25465 24.9681 1.07542 24.5927 0.990689 24.3968C0.909217 24.2009 0.782123 23.8745 0.710428 23.6786C0.641992 23.4827 0.53445 23.1497 0.472532 22.9441C0.413873 22.7384 0.325884 22.3891 0.280261 22.1671C0.234637 21.9484 0.172719 21.6252 0.143389 21.4522C0.117318 21.2759 0.0716946 20.9266 0.0488827 20.6752C0.0228119 20.4239 0 19.895 0 19.5C0 19.105 0.0228119 18.5696 0.0488827 18.3084C0.0716946 18.0473 0.123836 17.6425 0.162942 17.4107C0.202048 17.1789 0.286778 16.7806 0.345437 16.5293C0.407356 16.2779 0.518156 15.8894 0.589851 15.6642C0.664804 15.4389 0.775605 15.1223 0.840782 14.9623C0.9027 14.8023 1.03957 14.4857 1.1406 14.2604C1.24488 14.0352 1.40456 13.712 1.49907 13.5422C1.59357 13.3725 1.75 13.0983 1.85102 12.9383C1.94879 12.7783 2.13454 12.4976 2.26164 12.318C2.38873 12.1385 2.63966 11.8088 2.8189 11.5835C2.99814 11.3583 3.35661 10.9633 3.61732 10.7021C3.87802 10.4409 4.22346 10.1145 4.38315 9.98064C4.54283 9.84353 4.85242 9.60195 5.0675 9.44199C5.28259 9.28203 5.65735 9.0274 5.89851 8.87396C6.13966 8.72379 6.57961 8.47896 6.87616 8.33205C7.17272 8.18188 7.60614 7.98601 7.83752 7.89134C8.0689 7.79993 8.39478 7.67915 8.55447 7.62691C8.71415 7.57468 9.03026 7.48328 9.25512 7.42125C9.47998 7.35922 9.85474 7.27435 10.0861 7.22864C10.3175 7.1862 10.702 7.12418 10.9334 7.09806C11.1648 7.06868 11.4092 7.04256 11.4711 7.03604C11.533 7.02951 11.7807 7.01971 12.4488 7.01318ZM24.8878 7.04583C24.8943 7.06542 24.7053 7.45716 24.047 8.7597L24.4707 9.60195C24.7053 10.0623 24.8943 10.454 24.8911 10.4736C24.8845 10.4899 24.5 10.3071 23.1867 9.63133L22.3492 10.0525C21.8864 10.2842 21.4921 10.4736 21.4758 10.4736C21.4595 10.4736 21.6322 10.0949 21.8668 9.63133C22.0982 9.17103 22.2905 8.77929 22.2905 8.7597C22.2905 8.74012 22.0982 8.34837 21.8668 7.88481C21.6322 7.42451 21.4595 7.04583 21.4758 7.04583C21.4921 7.04583 21.8864 7.23517 23.1867 7.88808L24.0307 7.45389C24.4967 7.21232 24.8813 7.02951 24.8878 7.04583ZM21.3682 10.565C21.3748 10.578 20.8827 11.5705 20.2733 12.7751C19.6639 13.9797 19.1653 14.9852 19.1653 15.0113C19.1653 15.0374 19.6639 16.0429 20.2733 17.2475C20.8827 18.4521 21.3715 19.438 21.3617 19.4445C21.3519 19.4478 20.837 19.1931 20.2146 18.8797C19.5889 18.5663 18.595 18.0636 16.9297 17.2214L14.7398 18.3378C13.534 18.9483 12.5335 19.4478 12.5172 19.4445C12.5009 19.438 12.993 18.439 14.73 15.0113L13.6089 12.8012C12.993 11.5835 12.5042 10.5846 12.5172 10.5813C12.5335 10.5748 13.534 11.0743 16.9297 12.8012L19.0154 11.7467C20.1625 11.1657 21.1597 10.6564 21.2314 10.614C21.2998 10.5748 21.365 10.5519 21.3682 10.565Z" fill="white"/>
<path d="M42.6782 26.234C41.4128 26.234 40.2602 25.9307 39.2202 25.324C38.1802 24.7173 37.3568 23.894 36.7502 22.854C36.1608 21.814 35.8662 20.6527 35.8662 19.37C35.8662 18.0873 36.1695 16.9347 36.7762 15.912C37.3828 14.872 38.1975 14.0487 39.2202 13.442C40.2602 12.818 41.4128 12.506 42.6782 12.506C43.6835 12.506 44.6455 12.6967 45.5642 13.078C46.5002 13.4593 47.3062 13.9967 47.9822 14.69L46.3702 16.484C45.8675 15.9293 45.3042 15.5133 44.6802 15.236C44.0562 14.9587 43.4062 14.82 42.7302 14.82C41.9328 14.82 41.2048 15.0193 40.5462 15.418C39.9048 15.8167 39.3935 16.3627 39.0122 17.056C38.6308 17.7493 38.4402 18.5207 38.4402 19.37C38.4402 20.2193 38.6308 20.9907 39.0122 21.684C39.3935 22.3773 39.9135 22.932 40.5722 23.348C41.2308 23.7467 41.9675 23.946 42.7822 23.946C43.4582 23.946 44.0908 23.816 44.6802 23.556C45.2695 23.2787 45.8242 22.88 46.3442 22.36L47.9302 24.024C47.2368 24.7347 46.4308 25.2807 45.5122 25.662C44.6108 26.0433 43.6662 26.234 42.6782 26.234ZM50.0228 26V12.766H52.6228V14.456C53.0388 13.832 53.5501 13.3467 54.1568 13C54.7808 12.636 55.4828 12.454 56.2628 12.454C56.8001 12.4713 57.2421 12.5493 57.5888 12.688V15.028C57.3461 14.924 57.0948 14.8547 56.8348 14.82C56.5748 14.768 56.3148 14.742 56.0548 14.742C55.2921 14.742 54.6161 14.95 54.0268 15.366C53.4374 15.7647 52.9694 16.354 52.6228 17.134V26H50.0228ZM59.6712 26V12.766H62.2712V14.04C63.2592 13.0173 64.4985 12.506 65.9892 12.506C66.8905 12.506 67.6879 12.7053 68.3812 13.104C69.0919 13.5027 69.6552 14.04 70.0712 14.716C70.6259 13.988 71.2759 13.442 72.0212 13.078C72.7665 12.6967 73.6072 12.506 74.5432 12.506C75.5312 12.506 76.3892 12.7227 77.1172 13.156C77.8625 13.5893 78.4432 14.196 78.8592 14.976C79.2925 15.756 79.5092 16.6573 79.5092 17.68V26H76.9092V18.122C76.9092 17.082 76.6319 16.2673 76.0772 15.678C75.5399 15.0713 74.8032 14.768 73.8672 14.768C73.2259 14.768 72.6452 14.9153 72.1252 15.21C71.6052 15.5047 71.1545 15.9553 70.7732 16.562C70.8079 16.7353 70.8339 16.9173 70.8512 17.108C70.8685 17.2987 70.8772 17.4893 70.8772 17.68V26H68.3032V18.122C68.3032 17.082 68.0259 16.2673 67.4712 15.678C66.9339 15.0713 66.1972 14.768 65.2612 14.768C64.6372 14.768 64.0739 14.9067 63.5712 15.184C63.0685 15.444 62.6352 15.8427 62.2712 16.38V26H59.6712ZM88.7894 26.26C87.5067 26.26 86.3367 25.9567 85.2794 25.35C84.2394 24.7433 83.416 23.92 82.8094 22.88C82.2027 21.84 81.8994 20.6787 81.8994 19.396C81.8994 18.1133 82.2027 16.952 82.8094 15.912C83.416 14.872 84.2394 14.0487 85.2794 13.442C86.3367 12.818 87.5067 12.506 88.7894 12.506C90.0894 12.506 91.2594 12.818 92.2994 13.442C93.3394 14.0487 94.1627 14.872 94.7694 15.912C95.376 16.952 95.6794 18.1133 95.6794 19.396C95.6794 20.6787 95.376 21.84 94.7694 22.88C94.1627 23.92 93.3394 24.7433 92.2994 25.35C91.2594 25.9567 90.0894 26.26 88.7894 26.26ZM88.7894 23.972C89.604 23.972 90.3407 23.7727 90.9994 23.374C91.658 22.958 92.178 22.4033 92.5594 21.71C92.9407 21.0167 93.1314 20.2367 93.1314 19.37C93.1314 18.5207 92.932 17.758 92.5334 17.082C92.152 16.3887 91.632 15.834 90.9734 15.418C90.332 15.002 89.604 14.794 88.7894 14.794C87.9747 14.794 87.238 15.002 86.5794 15.418C85.938 15.834 85.418 16.3887 85.0194 17.082C84.638 17.758 84.4474 18.5207 84.4474 19.37C84.4474 20.2367 84.638 21.0167 85.0194 21.71C85.4007 22.4033 85.9207 22.958 86.5794 23.374C87.238 23.7727 87.9747 23.972 88.7894 23.972ZM104.43 26.26C103.147 26.26 101.977 25.9567 100.92 25.35C99.88 24.7433 99.0567 23.92 98.45 22.88C97.8433 21.84 97.54 20.6787 97.54 19.396C97.54 18.1133 97.8433 16.952 98.45 15.912C99.0567 14.872 99.88 14.0487 100.92 13.442C101.977 12.818 103.147 12.506 104.43 12.506C105.73 12.506 106.9 12.818 107.94 13.442C108.98 14.0487 109.803 14.872 110.41 15.912C111.017 16.952 111.32 18.1133 111.32 19.396C111.32 20.6787 111.017 21.84 110.41 22.88C109.803 23.92 108.98 24.7433 107.94 25.35C106.9 25.9567 105.73 26.26 104.43 26.26ZM104.43 23.972C105.245 23.972 105.981 23.7727 106.64 23.374C107.299 22.958 107.819 22.4033 108.2 21.71C108.581 21.0167 108.772 20.2367 108.772 19.37C108.772 18.5207 108.573 17.758 108.174 17.082C107.793 16.3887 107.273 15.834 106.614 15.418C105.973 15.002 105.245 14.794 104.43 14.794C103.615 14.794 102.879 15.002 102.22 15.418C101.579 15.834 101.059 16.3887 100.66 17.082C100.279 17.758 100.088 18.5207 100.088 19.37C100.088 20.2367 100.279 21.0167 100.66 21.71C101.041 22.4033 101.561 22.958 102.22 23.374C102.879 23.7727 103.615 23.972 104.43 23.972ZM113.779 26V12.766H116.379V14.118C117.401 13.0433 118.727 12.506 120.357 12.506C121.379 12.506 122.272 12.7227 123.035 13.156C123.815 13.5893 124.421 14.196 124.855 14.976C125.305 15.756 125.531 16.6573 125.531 17.68V26H122.931V18.122C122.931 17.082 122.636 16.2673 122.047 15.678C121.475 15.0713 120.669 14.768 119.629 14.768C118.935 14.768 118.311 14.9153 117.757 15.21C117.202 15.5047 116.743 15.9293 116.379 16.484V26H113.779Z" fill="white"/>
</svg>
