<svg width="78" height="78" viewBox="0 0 78 78" fill="none" xmlns="http://www.w3.org/2000/svg">
<circle cx="39.3033" cy="39.3028" r="37.8772" fill="black" stroke="white" stroke-width="0.851173"/>
<path d="M38.842 51.2231C37.415 51.2231 36.4508 50.0298 36.4508 48.4956C36.4508 47.6432 36.7979 46.3476 37.4921 44.6089C38.1863 42.836 38.5335 41.1313 38.5335 39.3584C36.8364 40.2789 35.5637 41.2336 34.5994 42.1882C32.671 44.0974 30.7811 45.9726 28.7756 45.9726C27.5414 45.9726 26.5386 45.1203 26.5386 44.0974C26.5386 42.9723 27.5799 41.8472 29.8555 41.3017C30.974 41.029 32.2468 40.7221 33.6738 40.4835C35.0623 40.2448 36.605 39.6993 38.2249 38.8811C36.5665 38.0628 34.9851 37.5173 33.5195 37.2446C30.6269 36.6991 28.3127 36.2558 27.3099 35.233C26.8086 34.7216 26.5386 34.1761 26.5386 33.5965C26.5386 32.5737 27.4642 31.7895 28.8141 31.7895C30.8583 31.7895 33.2495 34.1761 34.9466 35.8808C35.7951 36.7332 36.9907 37.5855 38.5335 38.4038V37.9605C38.5335 36.5968 38.4178 35.4717 38.1092 34.6534C37.4921 33.0169 36.5279 30.4599 36.5279 29.2666C36.5279 27.6983 37.5307 26.5391 38.9192 26.5391C40.2691 26.5391 41.3104 27.6301 41.3104 29.2666C41.3104 30.0848 40.9633 31.4145 40.2691 33.2215C39.5748 35.0285 39.2277 36.7672 39.2277 38.4038C41.4261 37.1764 41.1561 37.3128 43.046 35.7103C44.8587 33.9374 46.1315 32.8464 46.8258 32.4373C47.5586 31.9941 48.2914 31.7895 49.0627 31.7895C50.2969 31.7895 51.2226 32.5396 51.2226 33.5965C51.2226 34.7557 50.2584 35.7444 48.0214 36.3922C46.9415 36.6991 45.6687 36.9718 44.2416 37.2446C42.776 37.5173 41.2333 38.0628 39.5363 38.8811C41.1947 39.6993 42.6989 40.2107 44.1259 40.4835C46.9415 41.029 49.3327 41.5063 50.4126 42.495C50.9526 43.0064 51.2226 43.5178 51.2226 44.0974C51.2226 45.1203 50.2969 45.9726 48.947 45.9726C46.6715 45.9726 43.7402 42.7678 42.6218 41.6427C42.0818 41.0972 40.9247 40.313 39.2277 39.3584V39.8016C39.2277 41.2676 39.5748 42.9042 40.2305 44.677C40.8862 46.4499 41.2333 47.7114 41.2333 48.4956C41.2333 50.098 40.1919 51.2231 38.842 51.2231Z" fill="white"/>
<path d="M12.8277 35.1318L8.6103 35.4233L8.76678 34.6633L11.857 34.4909L9.11362 32.9786L9.25235 32.3047L12.37 31.9991L9.59919 30.6201L9.75083 29.8835L13.5085 31.8251L13.3536 32.5774L10.247 32.8689L12.9842 34.3717L12.8277 35.1318Z" fill="white"/>
<path d="M15.4947 27.0129C15.3168 27.3712 15.0719 27.6545 14.76 27.8629C14.4505 28.0665 14.1097 28.1831 13.7377 28.2127C13.3681 28.2376 13.0066 28.1623 12.6531 27.9868C12.3044 27.8136 12.0294 27.5759 11.8282 27.2735C11.6222 26.9688 11.5045 26.6364 11.4748 26.2763C11.4404 25.9139 11.5074 25.563 11.6758 25.2239C11.8443 24.8847 12.0797 24.6265 12.3821 24.4491C12.6797 24.2694 13.0122 24.1755 13.3795 24.1673C13.7444 24.152 14.1083 24.2345 14.4714 24.4147L14.672 24.5144L13.2453 27.3876C13.4649 27.449 13.6808 27.4639 13.893 27.4324C14.1076 27.396 14.3029 27.3143 14.4791 27.1874C14.6576 27.0558 14.7978 26.8872 14.8998 26.6818C14.9876 26.5051 15.0455 26.3225 15.0736 26.1339C15.0993 25.9383 15.0869 25.7594 15.0364 25.5974L15.7155 25.363C15.7712 25.6586 15.7827 25.9412 15.75 26.2108C15.715 26.4732 15.6299 26.7406 15.4947 27.0129ZM12.7115 27.1136L13.7824 24.9569C13.5771 24.8907 13.3767 24.8745 13.1812 24.9085C12.9833 24.9352 12.8058 25.0049 12.6487 25.1174C12.4892 25.2228 12.3655 25.3639 12.2778 25.5406C12.1877 25.7222 12.1452 25.9095 12.1505 26.1027C12.1558 26.2959 12.2065 26.4818 12.3024 26.6604C12.3958 26.8319 12.5322 26.9829 12.7115 27.1136Z" fill="white"/>
<path d="M19.6005 20.8998L15.9701 18.7338L16.5321 18.1987L19.1687 19.8197L17.7779 17.0128L18.2762 16.5384L21.0113 18.0656L19.5219 15.3525L20.0666 14.834L22.0457 18.5721L21.4894 19.1016L18.7714 17.5692L20.1625 20.3648L19.6005 20.8998Z" fill="white"/>
<path d="M24.3489 16.9165L22.1334 13.5L22.8046 13.0647L25.0201 16.4813L24.3489 16.9165ZM22.1121 12.732C22.0002 12.8045 21.8779 12.8266 21.7451 12.7983C21.6095 12.7655 21.5053 12.6932 21.4328 12.5813C21.3574 12.465 21.3352 12.3426 21.3665 12.2143C21.3948 12.0816 21.4649 11.9789 21.5767 11.9064C21.6931 11.8309 21.8176 11.8073 21.9504 11.8357C22.0803 11.8595 22.183 11.9296 22.2584 12.0459C22.331 12.1578 22.3545 12.2824 22.3291 12.4196C22.3008 12.5524 22.2285 12.6565 22.1121 12.732Z" fill="white"/>
<path d="M26.4485 15.6529L23.8438 10.6955L24.4813 10.1889L27.1567 15.2808L26.4485 15.6529Z" fill="white"/>
<path d="M28.656 14.5895L26.5385 9.40531L27.2216 8.96209L29.3966 14.287L28.656 14.5895Z" fill="white"/>
<path d="M33.7371 12.9564L33.0015 7.40491L33.7715 7.12535L34.0499 9.22699C34.3184 8.85785 34.7012 8.64036 35.1982 8.57451C35.5101 8.53318 35.7912 8.56319 36.0413 8.66454C36.2967 8.7652 36.5063 8.92573 36.67 9.14613C36.839 9.36584 36.9442 9.63166 36.9855 9.9436L37.3218 12.4814L36.5287 12.5865L36.2103 10.1835C36.1683 9.86628 36.0455 9.62969 35.8419 9.47375C35.6376 9.31252 35.3795 9.25257 35.0675 9.2939C34.8561 9.32192 34.6717 9.39208 34.5144 9.50438C34.3571 9.61668 34.2342 9.76478 34.1456 9.94868L34.5302 12.8513L33.7371 12.9564Z" fill="white"/>
<path d="M41.8603 12.7332C41.4624 12.6921 41.1113 12.562 40.8068 12.3429C40.5077 12.1243 40.2791 11.846 40.121 11.508C39.9682 11.1705 39.9121 10.8055 39.9526 10.4129C39.9926 10.0256 40.119 9.68478 40.3317 9.39041C40.545 9.09074 40.815 8.86396 41.1419 8.71007C41.4693 8.55087 41.8214 8.49072 42.198 8.52963C42.5747 8.56854 42.8991 8.69856 43.1711 8.91969C43.4437 9.13551 43.6482 9.41399 43.7845 9.75514C43.9267 10.0915 43.977 10.4613 43.9353 10.8645L43.9123 11.0873L40.7213 10.7577C40.7407 10.9849 40.8024 11.1923 40.9063 11.38C41.0155 11.5682 41.1605 11.7226 41.341 11.8431C41.5269 11.9642 41.7339 12.0365 41.962 12.0601C42.1583 12.0803 42.3497 12.0706 42.5361 12.0309C42.7283 11.9864 42.8915 11.9121 43.0255 11.808L43.483 12.362C43.2257 12.5177 42.965 12.6275 42.7011 12.6914C42.443 12.7505 42.1627 12.7644 41.8603 12.7332ZM40.7909 10.1617L43.1861 10.4091C43.1762 10.1936 43.1211 10.0003 43.0209 9.82906C42.9265 9.6531 42.799 9.51125 42.6386 9.40353C42.484 9.29105 42.3085 9.22467 42.1123 9.20439C41.9107 9.18357 41.7203 9.20948 41.5412 9.28213C41.3622 9.35478 41.2058 9.4673 41.0721 9.6197C40.9442 9.76735 40.8505 9.94801 40.7909 10.1617Z" fill="white"/>
<path d="M45.5613 13.3412L47.0243 7.93563L47.8363 7.99791L46.3336 13.5502L45.5613 13.3412Z" fill="white"/>
<path d="M47.4983 15.5735L49.8809 10.391L50.6005 10.7218L50.4368 11.078C50.8739 10.9443 51.3153 10.98 51.7611 11.1849C52.11 11.3453 52.386 11.575 52.5891 11.8738C52.797 12.1748 52.9177 12.5062 52.951 12.8678C52.9843 13.2294 52.9185 13.5896 52.7537 13.9481C52.5888 14.3067 52.3548 14.5924 52.0515 14.8052C51.7553 15.0153 51.4253 15.1395 51.0614 15.1777C50.7024 15.2181 50.346 15.1569 49.9922 14.9943C49.7887 14.9007 49.6069 14.779 49.4469 14.6291C49.2891 14.4744 49.1581 14.2997 49.0539 14.1051L48.2252 15.9077L47.4983 15.5735ZM50.203 14.3252C50.4404 14.4343 50.6769 14.4755 50.9122 14.4487C51.1525 14.4242 51.3717 14.343 51.5701 14.2052C51.7706 14.0627 51.9266 13.8702 52.038 13.6279C52.1494 13.3856 52.1939 13.142 52.1716 12.8969C52.1492 12.6518 52.0692 12.4301 51.9314 12.2318C51.7985 12.0357 51.6134 11.883 51.3759 11.7739C51.1676 11.6781 50.9559 11.6277 50.741 11.6228C50.526 11.618 50.3257 11.6579 50.1399 11.7428L49.3714 13.4145C49.4301 13.6059 49.5313 13.7816 49.675 13.9415C49.8235 14.1037 49.9995 14.2316 50.203 14.3252Z" fill="white"/>
<path d="M54.819 19.9713C54.7569 19.9128 54.7023 19.8541 54.6553 19.7952C54.6046 19.7401 54.5672 19.6903 54.5433 19.6457L55.0259 19.1332C55.0812 19.2146 55.1593 19.3028 55.2602 19.3978C55.532 19.6538 55.8652 19.6929 56.2598 19.515L56.6567 19.3503L58.2659 15.2613L58.9123 15.8701L57.6461 18.9415L60.7293 17.5814L61.3583 18.1737L56.7883 20.1557C56.4977 20.2776 56.2396 20.3532 56.0141 20.3826C55.785 20.4159 55.575 20.3977 55.3843 20.3279C55.1899 20.2621 55.0015 20.1432 54.819 19.9713Z" fill="white"/>
<path d="M60.8853 24.4133C60.6682 24.0837 60.5481 23.7318 60.5249 23.3574C60.5047 22.9875 60.5769 22.6366 60.7414 22.3046C60.9059 21.9727 61.153 21.6981 61.4825 21.481C61.8121 21.2639 62.1618 21.1452 62.5318 21.125C62.9017 21.1048 63.2526 21.177 63.5845 21.3415C63.9238 21.5075 64.2021 21.7553 64.4192 22.0849C64.6393 22.4189 64.7572 22.7723 64.7729 23.1452C64.7931 23.5151 64.721 23.866 64.5564 24.198C64.3919 24.5299 64.1449 24.8044 63.8153 25.0216C63.4858 25.2387 63.136 25.3574 62.7661 25.3776C62.3962 25.3978 62.0453 25.3256 61.7133 25.1611C61.3814 24.9966 61.1054 24.7473 60.8853 24.4133ZM61.4732 24.026C61.6111 24.2353 61.787 24.3908 62.001 24.4925C62.2194 24.5914 62.4499 24.6311 62.6926 24.6117C62.9353 24.5923 63.168 24.5092 63.3907 24.3625C63.6089 24.2187 63.7711 24.0384 63.8773 23.8215C63.9909 23.6062 64.0454 23.3787 64.0407 23.139C64.0391 22.9038 63.9693 22.6815 63.8314 22.4722C63.6934 22.2629 63.5153 22.1088 63.2969 22.01C63.0814 21.9157 62.8509 21.876 62.6053 21.8909C62.367 21.9074 62.1388 21.9875 61.9206 22.1313C61.6979 22.278 61.5298 22.459 61.4162 22.6744C61.3026 22.8897 61.2481 23.1172 61.2527 23.3569C61.2618 23.5936 61.3353 23.8166 61.4732 24.026Z" fill="white"/>
<path d="M63.5409 29.6321C63.4328 29.3365 63.4002 29.0532 63.443 28.782C63.4858 28.5108 63.597 28.2714 63.7766 28.0637C63.9612 27.8542 64.2013 27.6954 64.4968 27.5874L66.8935 26.7109L67.1656 27.4547L64.8965 28.2845C64.596 28.3944 64.3892 28.5665 64.2762 28.801C64.165 29.0404 64.1625 29.3053 64.2687 29.5959C64.3439 29.8012 64.4533 29.9685 64.5971 30.0976C64.7458 30.2249 64.9187 30.3094 65.1156 30.3509L67.858 29.348L68.1327 30.0994L64.3084 31.4979L64.0337 30.7466L64.4244 30.6037C64.0057 30.4218 63.7113 30.0979 63.5409 29.6321Z" fill="white"/>
<path d="M64.7706 33.5534L68.7892 32.8957L68.9184 33.6851L68.4052 33.7691C68.6154 33.8644 68.7881 33.9956 68.9236 34.1626C69.0651 34.334 69.1553 34.5381 69.194 34.7749C69.2155 34.939 69.2137 35.0771 69.1889 35.1892L68.4783 35.3055C68.4978 35.2267 68.5064 35.1469 68.504 35.0662C68.5069 34.9847 68.5018 34.9044 68.4889 34.8255C68.451 34.5939 68.3543 34.399 68.1987 34.2407C68.0483 34.0816 67.8461 33.9687 67.592 33.9022L64.8998 34.3429L64.7706 33.5534Z" fill="white"/>
<path d="M63.7012 39.8236L69.3652 40.4971L69.2717 41.2836L68.8825 41.2373C69.144 41.6122 69.2458 42.0432 69.1879 42.5304C69.1425 42.9117 69.0089 43.245 68.787 43.5301C68.5645 43.8205 68.2863 44.0372 67.9524 44.1801C67.6186 44.323 67.2557 44.3711 66.8638 44.3245C66.4719 44.2779 66.128 44.143 65.8323 43.9199C65.5413 43.7027 65.3217 43.4268 65.1735 43.0923C65.0246 42.7631 64.9732 42.4052 65.0192 42.0186C65.0456 41.7961 65.1056 41.5857 65.199 41.3874C65.2977 41.1896 65.4236 41.0113 65.5768 40.8522L63.6067 40.618L63.7012 39.8236ZM65.7207 42.0134C65.6898 42.2729 65.7233 42.5105 65.8212 42.7262C65.9185 42.9473 66.0631 43.131 66.2552 43.2773C66.4525 43.4243 66.6836 43.5136 66.9484 43.5451C67.2132 43.5766 67.4588 43.544 67.6851 43.4474C67.9114 43.3508 68.0978 43.2064 68.2441 43.0144C68.3899 42.8276 68.4782 42.6045 68.509 42.345C68.5361 42.1172 68.519 41.9004 68.4575 41.6943C68.3961 41.4883 68.2964 41.3099 68.1586 41.1593L66.3315 40.942C66.1675 41.0568 66.0314 41.2071 65.9234 41.393C65.8147 41.5841 65.7471 41.7909 65.7207 42.0134Z" fill="white"/>
<path d="M64.3876 45.7104L68.2748 46.9232L68.0365 47.6869L67.5401 47.532C67.6852 47.7114 67.7809 47.9061 67.8272 48.116C67.8769 48.3327 67.866 48.5556 67.7945 48.7847C67.7402 48.9409 67.6768 49.0636 67.6043 49.1527L66.917 48.9382C66.9697 48.8765 67.0131 48.809 67.0471 48.7358C67.0862 48.6642 67.1177 48.5902 67.1415 48.5139C67.2114 48.2899 67.2123 48.0722 67.1441 47.861C67.081 47.6514 66.9508 47.4599 66.7535 47.2866L64.1493 46.474L64.3876 45.7104Z" fill="white"/>
<path d="M62.124 51.1696C62.31 50.8215 62.562 50.548 62.8799 50.349C63.1954 50.1548 63.5382 50.0507 63.9084 50.0369C64.2786 50.023 64.6377 50.1091 64.9858 50.2951C65.3339 50.4811 65.6051 50.7318 65.7994 51.0473C65.9936 51.3627 66.0977 51.7055 66.1115 52.0757C66.1276 52.4532 66.0426 52.8159 65.8566 53.164C65.6681 53.5168 65.4137 53.7891 65.0936 53.9808C64.7782 54.1751 64.4353 54.2792 64.0651 54.293C63.6949 54.3068 63.3358 54.2208 62.9877 54.0348C62.6396 53.8488 62.3684 53.598 62.1741 53.2826C61.9799 52.9672 61.8758 52.6243 61.862 52.2541C61.8481 51.8839 61.9355 51.5224 62.124 51.1696ZM62.7449 51.5014C62.6268 51.7225 62.5741 51.9513 62.5867 52.1879C62.6041 52.4269 62.6792 52.6485 62.8121 52.8525C62.945 53.0565 63.129 53.2214 63.3642 53.347C63.5947 53.4702 63.8306 53.5267 64.0718 53.5165C64.3153 53.5136 64.5412 53.4529 64.7496 53.3345C64.9555 53.2207 65.1175 53.0533 65.2357 52.8322C65.3538 52.6112 65.4042 52.3811 65.3868 52.142C65.3669 51.9076 65.2918 51.6861 65.1614 51.4774C65.0332 51.2759 64.8539 51.1135 64.6234 50.9904C64.3882 50.8647 64.1489 50.8033 63.9054 50.8063C63.662 50.8092 63.4361 50.8699 63.2277 50.9884C63.024 51.1093 62.863 51.2803 62.7449 51.5014Z" fill="white"/>
<path d="M63.6559 57.6496C63.7369 57.5437 63.8447 57.4818 63.9793 57.4639C64.1181 57.4493 64.2405 57.4824 64.3464 57.5635C64.4565 57.6477 64.5184 57.7556 64.532 57.8869C64.5499 58.0215 64.5184 58.1417 64.4373 58.2476C64.3531 58.3577 64.2436 58.4217 64.109 58.4396C63.9787 58.4608 63.8585 58.4292 63.7483 58.3449C63.6425 58.2639 63.5785 58.1545 63.5563 58.0166C63.5384 57.8821 63.5716 57.7597 63.6559 57.6496ZM59.0035 53.1323C59.0553 53.0645 59.1119 53.0037 59.1732 52.9499C59.2336 52.8886 59.2842 52.84 59.3251 52.8042L59.8333 53.1931C59.7613 53.2521 59.688 53.3304 59.6134 53.4278C59.5065 53.5676 59.4621 53.6914 59.4802 53.7993C59.4909 53.9082 59.5661 54.0162 59.7059 54.1231L63.378 56.9333L62.8918 57.5686L59.1752 54.7244C58.8957 54.5105 58.7413 54.2647 58.712 53.9871C58.6794 53.7137 58.7766 53.4287 59.0035 53.1323Z" fill="white"/>
<path d="M56.833 58.0524C57.1247 57.7787 57.4531 57.5986 57.818 57.5122C58.1791 57.4294 58.5392 57.4389 58.8981 57.5409C59.2532 57.6466 59.5658 57.8433 59.8358 58.1311C60.1022 58.4151 60.2769 58.7338 60.36 59.0874C60.4467 59.4448 60.4411 59.7974 60.3432 60.1452C60.249 60.4969 60.0638 60.8023 59.7877 61.0614C59.5115 61.3204 59.2008 61.4803 58.8555 61.541C58.5139 61.6056 58.1695 61.5776 57.8225 61.4571C57.4752 61.3442 57.1628 61.1399 56.8855 60.8443L56.7322 60.681L59.0718 58.486C58.8874 58.3518 58.6903 58.2625 58.4804 58.2181C58.2666 58.1773 58.055 58.1857 57.8457 58.2432C57.6324 58.3043 57.4422 58.4133 57.2749 58.5702C57.131 58.7052 57.013 58.8562 56.9209 59.023C56.8286 59.1974 56.7778 59.3694 56.7686 59.5389L56.0504 59.5216C56.1014 59.2252 56.1892 58.9563 56.3138 58.715C56.4383 58.4813 56.6113 58.2604 56.833 58.0524ZM59.4765 58.929L57.7204 60.5766C57.8897 60.7103 58.0718 60.7954 58.2669 60.8318C58.4617 60.8757 58.6523 60.8723 58.8388 60.8217C59.0251 60.7786 59.1902 60.6895 59.3341 60.5545C59.4819 60.4158 59.587 60.255 59.6494 60.0722C59.7119 59.8893 59.7293 59.6974 59.7017 59.4965C59.6739 59.3032 59.5988 59.114 59.4765 58.929Z" fill="white"/>
<path d="M51.8642 61.696C52.2013 61.5012 52.5551 61.4045 52.9255 61.406C53.296 61.4074 53.6421 61.5 53.9638 61.6836C54.281 61.8699 54.5383 62.1339 54.7358 62.4756C54.9333 62.8173 55.03 63.171 55.0259 63.5369C55.0244 63.9074 54.9342 64.2521 54.7552 64.5712C54.5742 64.8976 54.3152 65.1582 53.9781 65.353C53.7103 65.5078 53.4247 65.6052 53.1212 65.6451C52.8132 65.6876 52.5157 65.6686 52.2289 65.588L52.3821 64.8618C52.6014 64.9322 52.8155 64.9563 53.0244 64.9341C53.2334 64.9119 53.4279 64.8487 53.6079 64.7446C53.8203 64.6218 53.9836 64.4566 54.0977 64.249C54.2071 64.0441 54.2592 63.8199 54.2541 63.5765C54.2489 63.333 54.1809 63.0982 54.0501 62.872C53.9193 62.6457 53.7498 62.4696 53.5414 62.3436C53.3331 62.2176 53.1091 62.1499 52.8696 62.1405C52.6328 62.1358 52.4058 62.1961 52.1888 62.3216C52.0087 62.4256 51.8602 62.5577 51.7433 62.7177C51.629 62.8823 51.5426 63.0739 51.4842 63.2925L50.8054 63.0935C50.8807 62.7974 51.0113 62.5279 51.1973 62.2848C51.3787 62.0444 51.601 61.8482 51.8642 61.696Z" fill="white"/>
<path d="M46.446 64.0095C46.8215 63.8879 47.1361 63.8813 47.3898 63.9897C47.6452 64.1032 47.8272 64.3274 47.9356 64.6622L48.6727 66.9378L49.4947 66.6716L49.7018 67.3109L48.8798 67.5771L49.2003 68.5665L48.506 68.9932L48.1263 67.8212L46.9847 68.191L46.7777 67.5517L47.9193 67.1819L47.2389 65.0813C47.1748 64.8835 47.0856 64.7554 46.9714 64.697C46.8538 64.6454 46.6935 64.6525 46.4906 64.7183C46.384 64.7528 46.2926 64.7908 46.2164 64.8323C46.135 64.8755 46.0511 64.9279 45.9646 64.9895L45.7575 64.3502C45.8475 64.2819 45.9585 64.2179 46.0905 64.1583C46.2159 64.0952 46.3344 64.0457 46.446 64.0095Z" fill="white"/>
<path d="M39.1925 65.0988C39.587 65.0862 39.8911 65.1672 40.1048 65.3417C40.3187 65.5216 40.4312 65.7875 40.4425 66.1393L40.5192 68.5301L41.3827 68.5024L41.4043 69.1741L40.5407 69.2018L40.574 70.2412L39.7886 70.4585L39.7491 69.2271L38.5497 69.2656L38.5282 68.5939L39.7276 68.5555L39.6568 66.3486C39.6502 66.1407 39.6001 65.9929 39.5065 65.9052C39.4079 65.823 39.2519 65.7853 39.0387 65.7921C38.9267 65.7957 38.8284 65.8069 38.7436 65.8256C38.6535 65.8445 38.5583 65.8716 38.4581 65.9068L38.4365 65.2351C38.5419 65.1944 38.6664 65.1637 38.8098 65.1431C38.9477 65.1174 39.0753 65.1026 39.1925 65.0988Z" fill="white"/>
<path d="M34.778 64.7564C35.0668 64.8078 35.3126 64.9031 35.5153 65.0421C35.7172 65.1863 35.8648 65.3616 35.9581 65.5678C36.0514 65.774 36.0765 65.9979 36.0335 66.2394C35.9663 66.6175 35.7691 66.8884 35.4419 67.0523C35.1139 67.2214 34.6978 67.2612 34.1938 67.1714C33.7999 67.1013 33.4486 66.9602 33.1396 66.7482L33.0639 67.1735C33.0125 67.4623 33.0582 67.6925 33.201 67.8642C33.3385 68.0349 33.5675 68.1488 33.8878 68.2058C34.0715 68.2385 34.2683 68.2438 34.4781 68.2215C34.687 68.2045 34.9251 68.1602 35.1925 68.0886L35.3788 68.7312C35.049 68.8188 34.7472 68.8707 34.4735 68.887C34.1988 68.9085 33.9275 68.8955 33.6597 68.8478C33.1399 68.7553 32.7602 68.5604 32.5206 68.2631C32.2757 67.9649 32.1939 67.5874 32.2752 67.1306L32.7491 64.4684L33.5209 64.6058L33.4592 64.9524C33.663 64.8424 33.8734 64.7715 34.0903 64.7397C34.3072 64.7079 34.5364 64.7135 34.778 64.7564ZM35.2746 66.1206C35.3092 65.9263 35.2559 65.7543 35.1146 65.6045C34.9671 65.4591 34.7595 65.3626 34.4917 65.3149C34.2817 65.2775 34.0849 65.2723 33.9013 65.2992C33.7116 65.3305 33.5315 65.3986 33.3611 65.5037L33.2406 66.1811C33.3769 66.2974 33.5259 66.389 33.6874 66.4556C33.8427 66.5266 34.0227 66.5803 34.2275 66.6168C34.5163 66.6682 34.7554 66.6484 34.945 66.5576C35.1283 66.471 35.2382 66.3254 35.2746 66.1206Z" fill="white"/>
<path d="M29.925 63.625L27.6817 68.7561L26.8878 68.5749L28.2754 65.401L25.7503 66.244L24.8927 65.8691L27.5832 64.9674L26.4212 62.0932L27.3888 62.5162L28.4261 65.0565L29.192 63.3046L29.925 63.625Z" fill="white"/>
<path d="M23.0811 59.7543C23.4006 59.9951 23.634 60.2879 23.7815 60.6328C23.9247 60.9744 23.9766 61.3308 23.9373 61.7019C23.8938 62.0698 23.7533 62.4114 23.5157 62.7266C23.2814 63.0375 22.9971 63.264 22.6629 63.4061C22.3255 63.5525 21.9771 63.6072 21.6177 63.5701C21.2551 63.5372 20.9226 63.4068 20.6202 63.1789C20.3178 62.951 20.1073 62.6721 19.9886 62.3422C19.8667 62.0166 19.8355 61.6725 19.8951 61.31C19.9471 60.9485 20.0951 60.6059 20.3391 60.2822L20.4739 60.1033L23.0357 62.0342C23.1365 61.8297 23.1909 61.6202 23.1988 61.4058C23.2026 61.1882 23.1582 60.9812 23.0659 60.7847C22.9693 60.585 22.8294 60.4161 22.6463 60.2781C22.4887 60.1593 22.3199 60.0688 22.1397 60.0065C21.9522 59.9452 21.7741 59.9246 21.6055 59.9444L21.5 59.2338C21.8008 59.2334 22.0807 59.2741 22.3397 59.3558C22.5912 59.4385 22.8384 59.5713 23.0811 59.7543ZM22.6682 62.5085L20.7452 61.0592C20.6424 61.2488 20.5897 61.4428 20.5871 61.6412C20.577 61.8407 20.6128 62.0279 20.6945 62.2031C20.7688 62.3792 20.8847 62.5267 21.0423 62.6455C21.2041 62.7675 21.3805 62.8436 21.5714 62.874C21.7622 62.9043 21.9543 62.8887 22.1475 62.8273C22.3332 62.767 22.5068 62.6607 22.6682 62.5085Z" fill="white"/>
<path d="M17.2943 53.6632C17.5174 53.9887 17.6439 54.3384 17.6739 54.7123C17.7008 55.0818 17.635 55.434 17.4766 55.7689C17.3182 56.1037 17.0762 56.3827 16.7506 56.6058C16.4251 56.829 16.0776 56.954 15.7081 56.9809C15.3386 57.0078 14.9864 56.9421 14.6515 56.7836C14.3092 56.6238 14.0265 56.3811 13.8034 56.0556C13.5773 55.7256 13.453 55.3744 13.4305 55.0019C13.4035 54.6324 13.4693 54.2802 13.6277 53.9454C13.7861 53.6105 14.0281 53.3315 14.3537 53.1084C14.6792 52.8853 15.0268 52.7602 15.3962 52.7333C15.7657 52.7064 16.1179 52.7722 16.4528 52.9306C16.7877 53.089 17.0682 53.3332 17.2943 53.6632ZM16.7136 54.0611C16.5719 53.8544 16.3931 53.7021 16.1774 53.6042C15.9572 53.5094 15.726 53.4739 15.4837 53.4978C15.2414 53.5216 15.0103 53.6089 14.7903 53.7596C14.5747 53.9073 14.4158 54.0906 14.3136 54.3094C14.204 54.5268 14.1536 54.7552 14.1626 54.9947C14.1686 55.2299 14.2424 55.4508 14.3841 55.6576C14.5258 55.8644 14.7068 56.0152 14.9269 56.11C15.1441 56.2004 15.3753 56.2359 15.6206 56.2165C15.8585 56.1957 16.0853 56.1114 16.3008 55.9637C16.5208 55.8129 16.6856 55.6288 16.7952 55.4115C16.9049 55.1941 16.9552 54.9656 16.9462 54.7261C16.9328 54.4896 16.8553 54.2679 16.7136 54.0611Z" fill="white"/>
<path d="M14.7971 49.3367L11.6543 50.634L12.0145 51.5066L11.3934 51.763L11.0332 50.8904L10.4638 51.1255C10.0694 51.2883 9.7239 51.3039 9.42731 51.1725C9.12868 51.0361 8.89491 50.7634 8.72601 50.3542C8.68327 50.2507 8.65098 50.1515 8.62914 50.0566C8.60034 49.9589 8.583 49.868 8.57712 49.7838L9.21307 49.5213C9.22505 49.6202 9.24035 49.7062 9.25898 49.7793C9.27269 49.8544 9.29683 49.9339 9.33143 50.0177C9.4169 50.2248 9.5303 50.3597 9.67163 50.4225C9.806 50.4825 9.97671 50.4697 10.1838 50.3842L10.731 50.1583L10.2853 49.0787L10.9065 48.8223L11.3521 49.9019L14.4949 48.6046L14.7971 49.3367Z" fill="white"/>
<path d="M13.2681 44.6836L9.93866 45.3725L10.1299 46.2969L9.47186 46.4331L9.2806 45.5087L8.67738 45.6335C8.25956 45.7199 7.9172 45.6709 7.6503 45.4865C7.38232 45.2969 7.20349 44.9853 7.1138 44.5518C7.09111 44.4421 7.07787 44.3387 7.07409 44.2414C7.064 44.14 7.06391 44.0475 7.07382 43.9637L7.74755 43.8243C7.74089 43.9237 7.7399 44.0111 7.74458 44.0864C7.74404 44.1627 7.75295 44.2453 7.77132 44.3341C7.81671 44.5534 7.90297 44.7071 8.03012 44.7952C8.15096 44.8791 8.32106 44.8984 8.54041 44.853L9.12014 44.7331L8.88349 43.5893L9.54155 43.4531L9.7782 44.5969L13.1077 43.9081L13.2681 44.6836Z" fill="white"/>
</svg>
