<svg width="24" height="25" viewBox="0 0 24 25" fill="none" xmlns="http://www.w3.org/2000/svg">
<path d="M3.75 7.86719H20.25C20.6642 7.86719 21 8.20297 21 8.61719C21 9.0314 20.6642 9.36719 20.25 9.36719H3.75C3.33579 9.36719 3 9.0314 3 8.61719C3 8.20297 3.33579 7.86719 3.75 7.86719Z" fill="white"/>
<path d="M6.75 12.1172H20.25C20.6642 12.1172 21 12.453 21 12.8672C21 13.2814 20.6642 13.6172 20.25 13.6172H6.75C6.33579 13.6172 6 13.2814 6 12.8672C6 12.453 6.33579 12.1172 6.75 12.1172Z" fill="white"/>
<path d="M3.75 16.3672H20.25C20.6642 16.3672 21 16.703 21 17.1172C21 17.5314 20.6642 17.8672 20.25 17.8672H3.75C3.33579 17.8672 3 17.5314 3 17.1172C3 16.703 3.33579 16.3672 3.75 16.3672Z" fill="white"/>
</svg>
