<svg width="45" height="42" viewBox="0 0 45 42" fill="none" xmlns="http://www.w3.org/2000/svg">
<rect x="0.259009" y="0.259009" width="40.6756" height="43.6373" rx="7.51126" transform="matrix(4.37114e-08 1 1 -4.37114e-08 1.13216e-08 -1.13216e-08)" stroke="white" stroke-width="0.518018"/>
<path d="M16.5067 19.9522L26.4304 10.4968C26.596 10.3389 26.816 10.2509 27.0448 10.2509C27.2735 10.2509 27.4935 10.3389 27.6591 10.4968L27.6698 10.5074C27.7503 10.584 27.8145 10.6761 27.8583 10.7782C27.9021 10.8803 27.9247 10.9902 27.9247 11.1013C27.9247 11.2124 27.9021 11.3223 27.8583 11.4244C27.8145 11.5265 27.7503 11.6186 27.6698 11.6952L18.3247 20.5986L27.6698 29.4985C27.7503 29.575 27.8145 29.6671 27.8583 29.7692C27.9021 29.8713 27.9247 29.9812 27.9247 30.0923C27.9247 30.2034 27.9021 30.3134 27.8583 30.4155C27.8145 30.5176 27.7503 30.6097 27.6698 30.6862L27.6591 30.6969C27.4935 30.8547 27.2735 30.9428 27.0448 30.9428C26.816 30.9428 26.596 30.8547 26.4304 30.6969L16.5067 21.2414C16.4194 21.1583 16.3499 21.0583 16.3024 20.9475C16.2549 20.8367 16.2305 20.7174 16.2305 20.5968C16.2305 20.4763 16.2549 20.357 16.3024 20.2462C16.3499 20.1354 16.4194 20.0354 16.5067 19.9522Z" fill="white"/>
</svg>
