<svg width="141" height="34" viewBox="0 0 141 34" fill="none" xmlns="http://www.w3.org/2000/svg">
<path fill-rule="evenodd" clip-rule="evenodd" d="M3.88277 1.3528V2.03124H9.17545C14.9393 2.03124 16.0319 2.10398 17.7977 2.60491C19.832 3.18209 21.3745 4.22847 22.4969 5.79283C23.051 6.5652 23.3392 7.10838 22.9133 6.5776C22.1371 5.61036 20.6318 4.50105 19.5465 4.09632C19.2116 3.9715 18.5127 3.77425 17.9934 3.65801C17.1312 3.4652 16.6093 3.44288 11.9872 3.40207L6.9252 3.35733V4.03784V4.71834L8.89229 4.65624C11.5499 4.57245 16.8126 4.76381 17.8317 4.98141C19.6189 5.3631 21.2218 6.46146 22.181 7.96196C22.2875 8.12863 22.0992 7.98759 21.7565 7.64413C21.4179 7.3045 20.8328 6.85782 20.4565 6.65147C19.1964 5.96032 18.9386 5.92995 13.928 5.8818L9.44308 5.83871V6.25987V6.68092H12.647C17.9328 6.68092 19.4983 6.96776 20.8682 8.18711C21.6322 8.8672 21.9251 9.50028 21.9265 10.4742C21.9284 11.8603 21.1697 13.1149 20.0404 13.5933C19.517 13.8152 19.5011 13.8157 18.6473 13.6401C17.932 13.493 17.0216 13.4555 13.351 13.4219L8.91852 13.3814V14.0609V14.7404L12.6691 14.7407C16.6716 14.741 17.6995 14.8145 19.3572 15.2189C21.8036 15.8157 23.6633 17.1731 24.8591 19.2351L25.0988 19.6484L24.8029 19.2867C24.1428 18.4799 22.943 17.5206 22.0122 17.0554C21.2752 16.6871 19.8762 16.3183 18.7452 16.1941C18.1527 16.129 15.3659 16.0836 11.965 16.0836H6.19082V16.7036V17.3235L10.8332 17.325C19.258 17.3277 20.6427 17.5247 22.5158 18.9874C23.1128 19.4536 23.8458 20.2842 24.1158 20.8009C24.1798 20.9232 23.9615 20.7591 23.6307 20.4363C23.2959 20.1096 22.7034 19.6826 22.2947 19.4735C20.9519 18.7865 20.5912 18.7481 14.9772 18.6953L9.96764 18.6481V19.0708V19.4934L13.6658 19.4935C17.6135 19.4936 19.1547 19.5866 20.5381 19.9083C21.6302 20.1623 22.1378 20.4176 22.8271 21.0597C23.5865 21.7671 23.8557 22.4091 23.7929 23.364C23.6767 25.1312 22.6689 26.131 20.5561 26.5752C19.1951 26.8614 16.9437 26.9272 8.42019 26.9301L0.105957 26.9329V27.3462V27.7595L9.10212 27.7578C14.0547 27.7569 18.6568 27.7106 19.341 27.6548C21.7829 27.4556 23.1604 26.8746 24.1154 25.6413L24.3554 25.3313L24.1644 25.6867C23.8857 26.2048 22.6251 27.4883 22.0175 27.8723C20.5789 28.7815 19.2056 28.998 14.8723 28.9988L11.6462 28.9994V29.671V30.3426L13.8756 30.3411C19.9699 30.337 22.0364 29.8346 24.0246 27.8742C24.5518 27.3543 25.0688 26.7268 25.2685 26.3646C25.749 25.4927 25.5609 26.0873 25.0397 27.0879C24.7156 27.7102 24.375 28.1477 23.6617 28.858C22.8257 29.6908 22.585 29.8634 21.6128 30.3277C20.5474 30.8363 19.2646 31.21 17.6262 31.4887C17.1958 31.5619 14.5541 31.6225 10.466 31.6529L3.98768 31.7012V32.3732V33.0452L10.6233 32.9997C16.7917 32.9574 17.3403 32.939 18.413 32.7392C21.3111 32.1993 23.3988 31.1826 24.9791 29.5416C26.3616 28.106 27.0606 26.5374 27.2797 24.3788C27.5985 21.238 26.6747 18.4384 24.6851 16.5158L24.0097 15.8631L24.427 15.0693C25.2978 13.412 25.6332 11.4528 25.4033 9.36493C24.9748 5.47355 22.6935 2.75576 18.7802 1.47452C16.6471 0.776135 16.4435 0.758776 9.8365 0.714346L3.88277 0.674255V1.3528ZM4.30242 6.26762V6.5776H5.92854H7.55467V6.26762V5.95764H5.92854H4.30242V6.26762ZM57.1817 6.07398C56.3797 6.31153 55.9186 6.86174 55.9193 7.57986C55.9201 8.46082 56.6825 9.05743 57.8073 9.05743C59.0497 9.05743 59.9307 8.27483 59.751 7.33085C59.6762 6.93852 59.2642 6.42364 58.8603 6.21792C58.4661 6.01715 57.6186 5.94452 57.1817 6.07398ZM37.1397 17.1685V27.4495L41.3624 27.4489C44.5648 27.4485 45.8354 27.4112 46.6212 27.2945C49.8393 26.8167 52.3016 25.0305 52.8167 22.8003C53.3759 20.3789 52.432 18.3948 50.2092 17.319C49.4806 16.9663 48.8396 16.7706 47.6318 16.5321C47.4057 16.4874 47.4438 16.455 47.9137 16.292C50.401 15.4294 51.8927 13.4259 51.6842 11.2278C51.5253 9.55164 50.0642 8.01042 48.0505 7.39491C46.6496 6.96672 45.6055 6.88881 41.2575 6.88819L37.1397 6.88758V17.1685ZM66.0166 8.82205L64.6265 9.19051V10.9838V12.7772H63.0529H61.4792V13.8104V14.8437H63.0529H64.6265L64.6274 19.3126C64.6278 21.8664 64.6744 24.0692 64.7361 24.453C65.0196 26.2182 66.2044 27.3371 68.1364 27.6644C69.0418 27.8179 70.9734 27.7314 71.7343 27.5032L72.2851 27.3382V26.2978C72.2851 25.348 72.2691 25.2639 72.1015 25.3312C71.2981 25.6535 70.9652 25.711 70.1066 25.6764C68.7138 25.6202 68.0704 25.2003 67.7756 24.1553C67.7125 23.9315 67.6699 21.9875 67.6696 19.3126L67.669 14.8437H69.977H72.2851V13.8104V12.7772H69.977H67.669V10.6073C67.669 8.93602 67.6389 8.43933 67.5378 8.44553C67.4658 8.44997 66.7812 8.61943 66.0166 8.82205ZM135.337 8.59649C135.077 8.67223 134.475 8.83517 133.999 8.95875L133.134 9.18338V10.986V12.7886L131.796 12.7472C131.06 12.7245 130.07 12.6464 129.596 12.5735C127.427 12.2408 125.321 13.215 124.241 15.0504L123.906 15.6186L123.904 14.1979L123.902 12.7772H122.38H120.859V20.1133V27.4495H122.38H123.902L123.903 23.1873C123.905 18.5196 123.941 18.1592 124.521 17.0384C124.92 16.2677 125.786 15.4443 126.577 15.0824C127.569 14.6285 129.227 14.6356 130.327 15.0985C130.459 15.1538 130.511 15.1285 130.511 15.0097C130.511 14.8661 130.688 14.8437 131.822 14.8437H133.134V19.575C133.134 24.8457 133.16 25.0953 133.816 26.0726C134.244 26.7109 134.852 27.1448 135.765 27.4648C136.353 27.6707 136.638 27.7005 138.012 27.6996C139.305 27.6986 139.689 27.6625 140.163 27.4965L140.74 27.2945L140.77 26.2746C140.798 25.3291 140.786 25.2601 140.613 25.3312C139.718 25.6968 138.43 25.8061 137.622 25.5851C137.086 25.4386 136.606 25.0145 136.344 24.4565C136.133 24.007 136.122 23.8037 136.09 19.4179L136.056 14.8477L138.398 14.8198L140.74 14.792L140.77 13.7846L140.8 12.7772H138.436H136.071V10.6073C136.071 8.93457 136.041 8.43995 135.94 8.44822C135.868 8.4541 135.597 8.52085 135.337 8.59649ZM5.14171 8.90244V9.26408H11.3315H17.5213V8.90244V8.5408H11.3315H5.14171V8.90244ZM74.8029 17.9952V27.4495H76.1721H77.5413L77.5098 19.4159L77.4782 11.3823L77.7405 12.1245C77.889 12.5448 79.7771 16.0299 82.0943 20.1606L86.1858 27.4545L86.9014 27.4262L87.6171 27.3978L91.7118 20.0617C93.9641 16.0268 95.9081 12.4644 96.032 12.1452L96.2573 11.5649L96.2246 19.5072L96.192 27.4495H97.5622H98.9326V17.9927V8.53584L97.1798 8.56415L95.4271 8.59246L91.825 14.947C89.8439 18.442 87.9242 21.8962 87.5589 22.6229L86.8948 23.9443L86.5093 23.1396C86.2973 22.697 84.4145 19.2319 82.3255 15.4394L78.5273 8.5439L76.6651 8.54235L74.8029 8.5408V17.9952ZM45.6521 9.30975C47.1164 9.61539 48.1067 10.3042 48.3568 11.1906C48.5187 11.7655 48.4958 12.6664 48.3049 13.218C48.1041 13.7983 47.4725 14.5274 46.8699 14.8742C45.8274 15.4742 45.1526 15.5953 42.5689 15.6457L40.1821 15.6924V12.4266V9.16075L42.5689 9.16251C44.2142 9.16375 45.172 9.20952 45.6521 9.30975ZM1.99436 10.969V11.3306H5.77118H9.54799V10.969V10.6073H5.77118H1.99436V10.969ZM11.3315 10.969V11.3306H14.3215H17.3114V10.969V10.6073H14.3215H11.3315V10.969ZM107.903 12.5764C107.014 12.7099 105.561 13.1329 104.757 13.4922L104.073 13.7975V15.0009C104.073 15.6627 104.109 16.1882 104.152 16.1688C104.195 16.1492 104.774 15.8696 105.437 15.5474C107.064 14.757 108.143 14.4978 109.843 14.4889C111.896 14.4782 112.796 14.8904 113.412 16.1234C113.831 16.9619 113.983 18.1501 113.671 18.1501C113.568 18.1501 112.053 18.3138 110.304 18.514C105.966 19.0102 104.727 19.3859 103.496 20.5783C101.871 22.1513 101.902 24.8871 103.561 26.3557C104.654 27.3234 106.085 27.761 108.148 27.7577C110.294 27.7542 111.897 27.1719 113.147 25.9413L113.83 25.2682V26.3588V27.4495H115.357H116.884L116.848 21.999C116.815 17.0669 116.793 16.4945 116.62 15.9803C116.054 14.2939 115.056 13.3422 113.253 12.7709C112.615 12.5689 112.256 12.5345 110.525 12.51C109.429 12.4945 108.249 12.5244 107.903 12.5764ZM56.2336 20.1133V27.4495H57.7548H59.276V20.1133V12.7772H57.7548H56.2336V20.1133ZM23.3036 14.1719C23.0605 14.655 22.8194 15.0504 22.768 15.0504C22.5347 15.0504 22.6035 14.8376 23.0336 14.2288C23.2885 13.8681 23.5259 13.4835 23.5611 13.374C23.5964 13.2645 23.6524 13.2015 23.6854 13.2342C23.7185 13.2667 23.5466 13.6887 23.3036 14.1719ZM21.7102 13.8198C21.5231 14.0524 21.3047 14.2673 21.2246 14.2976C20.9943 14.3847 20.9118 14.2197 21.1265 14.1014C21.2331 14.0426 21.4689 13.8615 21.6503 13.6988C22.0979 13.2975 22.1102 13.3224 21.7102 13.8198ZM46.2388 18.143C47.9077 18.4822 48.9109 19.0816 49.4495 20.0617C49.6393 20.407 49.6766 20.6448 49.6766 21.5082C49.6766 22.3874 49.6408 22.6076 49.4363 22.9849C48.9085 23.9584 47.9073 24.6266 46.4669 24.9667C45.7015 25.1474 45.2284 25.175 42.8836 25.1756L40.1821 25.1763V21.5599V17.9435L42.7263 17.9448C44.8153 17.946 45.4436 17.9814 46.2388 18.143ZM113.811 21.5082C113.761 22.76 113.46 23.5101 112.697 24.2781C111.696 25.2868 110.516 25.7309 108.847 25.7274C106.869 25.7231 105.688 25.0146 105.39 23.6543C105.272 23.1165 105.514 22.2185 105.891 21.7956C106.583 21.0198 107.614 20.7398 111.29 20.3304C114.189 20.0074 113.876 19.861 113.811 21.5082ZM3.98768 21.8182V22.1799H5.35153H6.71538V21.8182V21.4566H5.35153H3.98768V21.8182ZM8.28905 21.8182V22.1799H12.9052H17.5213V21.8182V21.4566H12.9052H8.28905V21.8182ZM2.22412 24.3239L2.25664 24.7114L6.42687 24.7383L10.5971 24.7654V24.3509V23.9364H6.39435H2.19149L2.22412 24.3239ZM12.0659 24.3497V24.6597H14.7936H17.5213V24.3497V24.0397H14.7936H12.0659V24.3497ZM2.20419 29.7743V30.2393H6.19082H10.1775V29.7743V29.3094H6.19082H2.20419V29.7743ZM0.31578 32.3058V32.9258H1.31244H2.3091V32.3058V31.6859H1.31244H0.31578V32.3058Z" fill="#8D8D8D"/>
</svg>
