<svg width="152" height="42" viewBox="0 0 152 42" fill="none" xmlns="http://www.w3.org/2000/svg">
<path d="M64.2695 17.3041L64.1823 18.3799L64.6475 17.7111L72.5856 9.19151H76.9763L68.224 18.4381L77.2961 30.3597H72.9927L65.7524 20.5898L64.2695 22.0437V30.3597H60.8384V9.19151H64.2695V17.3041ZM82.863 18.0601L83.1538 21.5493L83.0375 21.055C83.3864 20.3184 83.8614 19.6884 84.4623 19.165C85.0826 18.6222 85.7126 18.2151 86.3523 17.9438C86.992 17.653 87.5154 17.5076 87.9225 17.5076L87.7771 20.7643C86.8466 20.6867 86.0325 20.8612 85.3346 21.2876C84.6561 21.6947 84.123 22.2375 83.7353 22.916C83.367 23.5944 83.1829 24.3117 83.1829 25.0677V30.3597H79.9262V18.0601H82.863ZM95.8004 30.6796C94.6373 30.6796 93.5808 30.4373 92.6309 29.9527C91.7005 29.468 90.9638 28.7508 90.4211 27.8009C89.8783 26.8317 89.6069 25.6395 89.6069 24.2244C89.6069 22.8287 89.888 21.6366 90.4501 20.6479C91.0317 19.6399 91.7877 18.8645 92.7182 18.3218C93.668 17.779 94.6954 17.5076 95.8004 17.5076C96.9828 17.5076 97.9327 17.7402 98.6499 18.2055C99.3866 18.6707 99.9584 19.2232 100.365 19.8629L100.191 20.3281L100.511 18.0601H103.506V30.3597H100.249V27.3648L100.569 28.1499C100.491 28.2662 100.336 28.46 100.104 28.7314C99.8712 28.9834 99.5513 29.2645 99.1442 29.5747C98.7372 29.8848 98.2525 30.1465 97.6904 30.3597C97.1476 30.573 96.5176 30.6796 95.8004 30.6796ZM96.7018 28.0045C97.2833 28.0045 97.8067 27.8979 98.2719 27.6846C98.7565 27.4714 99.1636 27.1709 99.4932 26.7832C99.8421 26.3955 100.094 25.9303 100.249 25.3875V22.7124C100.094 22.2084 99.8421 21.7723 99.4932 21.404C99.1442 21.0163 98.7178 20.7158 98.2138 20.5026C97.7291 20.2893 97.1864 20.1827 96.5854 20.1827C95.9264 20.1827 95.3157 20.3475 94.7536 20.677C94.1914 21.0066 93.7359 21.4621 93.3869 22.0437C93.0574 22.6252 92.8926 23.294 92.8926 24.05C92.8926 24.7866 93.0671 25.4554 93.416 26.0563C93.765 26.6572 94.2302 27.1322 94.8117 27.4811C95.3933 27.83 96.0233 28.0045 96.7018 28.0045ZM107.712 30.3597V7.6795H110.969V30.3597H107.712ZM114.022 22.1018L119.634 30.3597H115.854L111.87 23.9627L114.022 22.1018ZM109.98 26.6669L109.66 23.5266L117.133 17.7693L119.11 19.5139L109.98 26.6669ZM127.947 30.6796C126.493 30.6796 125.253 30.3985 124.225 29.8364C123.198 29.2742 122.413 28.4988 121.87 27.5102C121.327 26.5022 121.056 25.3681 121.056 24.1081C121.056 22.8675 121.366 21.7529 121.986 20.7643C122.607 19.7756 123.44 18.9905 124.487 18.409C125.553 17.8081 126.726 17.5076 128.005 17.5076C129.692 17.5076 131.078 18.0019 132.163 18.9905C133.268 19.9598 134.005 21.3361 134.373 23.1195L124.458 26.4634L123.702 24.6315L131.436 21.8692L130.768 22.2472C130.554 21.6656 130.205 21.1616 129.721 20.7352C129.256 20.3087 128.596 20.0955 127.744 20.0955C127.065 20.0955 126.464 20.2602 125.941 20.5898C125.417 20.8999 125.001 21.3458 124.69 21.9273C124.4 22.4895 124.254 23.1583 124.254 23.9337C124.254 24.7284 124.419 25.4263 124.749 26.0272C125.078 26.6282 125.524 27.0934 126.086 27.4229C126.648 27.7331 127.288 27.8882 128.005 27.8882C128.509 27.8882 128.994 27.8009 129.459 27.6265C129.924 27.452 130.36 27.2194 130.768 26.9286L132.25 29.342C131.611 29.7491 130.903 30.0787 130.128 30.3307C129.372 30.5633 128.645 30.6796 127.947 30.6796ZM140.224 18.0601L140.514 20.7061L140.398 20.3572C140.824 19.5042 141.454 18.8258 142.288 18.3218C143.141 17.7984 144.149 17.5367 145.312 17.5367C146.475 17.5367 147.435 17.8759 148.191 18.5544C148.947 19.2329 149.334 20.1246 149.354 21.2295V30.3597H146.097V22.3926C146.078 21.7723 145.903 21.278 145.574 20.9096C145.244 20.5219 144.721 20.3184 144.004 20.299C143.345 20.299 142.753 20.5026 142.23 20.9096C141.707 21.2973 141.29 21.8401 140.98 22.538C140.689 23.2164 140.543 24.0015 140.543 24.8932V30.3597H137.287V18.0601H140.224Z" fill="#8D8D8D"/>
<path fill-rule="evenodd" clip-rule="evenodd" d="M18.6957 0.362448C18.6913 0.366676 18.5737 0.375728 18.4344 0.382588C15.9407 0.505119 13.3208 1.28437 11.0953 2.56555C9.81713 3.30131 8.69879 4.15566 7.40952 5.38122C5.84055 6.87268 4.49264 8.68564 3.47296 10.676C2.24931 13.0644 1.48241 15.7241 1.23152 18.4495C1.15174 19.316 1.15492 19.0932 1.14767 24.3396C1.14299 27.726 1.1467 29.3629 1.15934 29.4818C1.25954 30.4256 1.79134 31.2625 2.55658 31.6805C2.74979 31.7861 3.0667 31.8984 3.29069 31.9408C3.50379 31.9811 3.92211 31.9868 4.11269 31.952C5.15549 31.7613 5.93848 31.015 6.22559 29.9379C6.3368 29.5208 6.32814 29.9145 6.33903 24.7816L6.34897 20.1022L6.38975 19.8933C6.50387 19.3086 6.70649 18.8788 7.05497 18.4822C7.40567 18.0831 7.83355 17.8099 8.32284 17.6728C9.20459 17.4256 10.1125 17.6912 10.7742 18.3899C11.1762 18.8143 11.4333 19.3418 11.5485 19.9785C11.5799 20.1516 11.5815 20.3631 11.585 24.6759C11.5886 29.2333 11.5906 29.382 11.6534 29.7166C11.8519 30.7754 12.6311 31.6314 13.6303 31.8883C13.8081 31.9341 13.8595 31.9388 14.18 31.9385C14.4799 31.9384 14.5643 31.9315 14.7368 31.8935C15.3708 31.7537 15.9148 31.3855 16.2896 30.843C16.5475 30.4695 16.7004 30.0885 16.8015 29.5668C16.8264 29.4385 16.8306 28.9059 16.84 24.7336L16.8505 20.0445L16.8892 19.8664C16.9818 19.4393 17.1512 19.0302 17.3615 18.7256C17.7381 18.1801 18.3525 17.7771 19.0147 17.6412C19.2434 17.5943 19.6881 17.5938 19.9068 17.6403C21.0125 17.8751 21.8491 18.7995 22.0393 19.9965C22.0737 20.213 22.0744 20.3094 22.0723 24.8105C22.0702 29.3402 22.0706 29.4065 22.1059 29.6248C22.1738 30.0454 22.2794 30.3248 22.5155 30.7087C23.0071 31.5078 23.8071 31.9733 24.6892 31.9734C25.682 31.9735 26.5812 31.3687 27.0285 30.3999C27.1116 30.22 27.224 29.8634 27.2582 29.6714C27.2731 29.5875 27.291 29.4885 27.2979 29.4515C27.3049 29.4145 27.3157 27.3131 27.322 24.7816L27.3334 20.179L27.3715 20.0061C27.5022 19.4128 27.7164 18.9917 28.1003 18.5731C28.4861 18.1526 28.8959 17.9093 29.4322 17.7825C29.6908 17.7214 30.2022 17.7216 30.4642 17.783C31.1718 17.9486 31.7609 18.3828 32.1463 19.0228C32.3715 19.3969 32.4785 19.722 32.5393 20.2175C32.5522 20.323 32.5574 21.7506 32.5559 24.772C32.5543 27.9633 32.5592 29.2336 32.574 29.3938C32.705 30.819 33.7374 31.8949 35.057 31.9815C35.456 32.0076 35.9357 31.9009 36.2944 31.7062C36.937 31.3574 37.4395 30.7227 37.67 29.9687C37.744 29.7265 37.7706 29.5612 37.7885 29.2313C37.8109 28.8191 37.7968 19.537 37.7733 19.1893C37.6987 18.0856 37.6016 17.2836 37.4331 16.3801C37.265 15.4782 37.0035 14.4566 36.7299 13.6332C35.6137 10.273 33.7023 7.29765 31.1966 5.0198C28.6906 2.74154 25.6755 1.22639 22.4707 0.634818C21.9087 0.531082 21.2373 0.443489 20.6941 0.403036C20.6017 0.396156 20.4983 0.386912 20.4643 0.382473C20.3812 0.371654 18.7059 0.352686 18.6957 0.362448ZM13.8883 33.307C13.3396 33.3875 12.7539 33.6372 12.4117 33.9367C12.0132 34.2853 11.7829 34.8557 11.7377 35.6055L11.7263 35.7933H12.2497H12.773L12.7817 35.7308C12.7865 35.6965 12.7945 35.6121 12.7994 35.5434C12.8189 35.2731 12.9521 34.9663 13.1387 34.7623C13.4033 34.4729 13.8018 34.3444 14.3833 34.3612C15.1858 34.3843 15.6522 34.6609 15.8262 35.2167C15.8677 35.3493 15.8728 35.7831 15.8348 35.947C15.7605 36.2679 15.5982 36.4138 15.2486 36.4743C15.1567 36.4902 14.7116 36.5558 14.2595 36.6202C13.3966 36.743 13.1039 36.7976 12.8602 36.881C12.4293 37.0287 11.9994 37.3317 11.7634 37.6541C11.533 37.9688 11.4164 38.3402 11.3756 38.8895C11.3398 39.3722 11.3949 39.7464 11.5561 40.115C11.9106 40.9257 12.607 41.3515 13.5789 41.3519C14.3714 41.3523 15.0805 41.0085 15.7229 40.3125C15.814 40.2137 15.8912 40.1359 15.8945 40.1395C15.8978 40.1431 15.9168 40.2152 15.9368 40.2998C16.0536 40.7954 16.1868 41.0103 16.4631 41.1489C16.7352 41.2853 17.2437 41.2901 17.6315 41.1599L17.7243 41.1287V40.6595V40.1902L17.5961 40.2045C17.2079 40.2477 17.0813 40.199 17.0222 39.9836C16.9957 39.8871 16.9926 39.6461 16.9898 37.446L16.9866 35.015L16.9412 34.8284C16.8342 34.3885 16.5914 34.0235 16.2434 33.7796C16.1101 33.6861 15.7573 33.5214 15.5519 33.4567C15.0533 33.2996 14.3622 33.2374 13.8883 33.307ZM35.4063 33.298C34.7778 33.3626 34.1892 33.708 33.7085 34.2943C33.6175 34.4053 33.5356 34.499 33.5266 34.5025C33.5168 34.5063 33.5102 34.3011 33.5102 33.9905C33.5102 33.5925 33.5051 33.4703 33.4881 33.4646C33.4698 33.4585 32.57 33.4597 32.4849 33.466C32.4614 33.4677 32.4584 33.9024 32.4584 37.2682L32.4584 41.0685L33.0189 41.0736L33.5795 41.0786L33.5851 38.729L33.5908 36.3794L33.6315 36.1392C33.7486 35.4481 34.0047 35.0166 34.4773 34.7141C34.7676 34.5283 35.0266 34.45 35.4027 34.4345C35.7066 34.4219 35.8858 34.453 36.082 34.5522C36.486 34.7565 36.6827 35.1611 36.7618 35.9511C36.774 36.0724 36.7805 36.9987 36.7805 38.5983C36.7805 40.5529 36.7851 41.0593 36.8026 41.0608C36.8732 41.0671 37.8892 41.0683 37.9075 41.0622C37.936 41.0526 37.9394 36.0484 37.9111 35.6876C37.8855 35.3597 37.8148 34.9038 37.7603 34.715C37.5522 33.994 37.1057 33.5462 36.4313 33.3821C36.0729 33.2948 35.7191 33.2658 35.4063 33.298ZM10.1064 33.3146C9.7251 33.3726 9.35275 33.602 9.0296 33.9782C8.91878 34.1072 8.72212 34.3797 8.55253 34.6392L8.49668 34.7247V34.108C8.49668 33.6314 8.49166 33.4896 8.47459 33.4839C8.45627 33.4777 7.54645 33.4789 7.47581 33.4852C7.45822 33.4868 7.45372 34.262 7.45372 37.2922V41.0973H8.00171H8.54971L8.54986 38.8537C8.54995 37.4517 8.55678 36.5451 8.56808 36.4371C8.64429 35.7078 8.98613 35.1327 9.51464 34.8446C9.76115 34.7103 10.1113 34.6478 10.6577 34.6406C10.6866 34.6402 10.6887 34.5963 10.6887 33.9893V33.3385L10.6224 33.3264C10.4969 33.3037 10.22 33.2973 10.1064 33.3146ZM27.761 33.3163C26.6259 33.4358 25.7641 34.1405 25.2714 35.3521C24.8613 36.3608 24.7811 37.5159 25.0355 38.7494C25.2462 39.7702 25.815 40.6034 26.5895 41.0254C27.5347 41.5404 28.8151 41.4534 29.7096 40.8134C29.9268 40.6579 30.2536 40.2959 30.4152 40.0317C30.6392 39.6655 30.87 39.0818 30.9042 38.7952L30.9164 38.6935L30.3842 38.6991C29.879 38.7044 29.8502 38.7067 29.8171 38.7432C29.798 38.7643 29.7545 38.8668 29.7204 38.9709C29.504 39.6324 28.9677 40.1262 28.3291 40.2521C28.0654 40.3041 27.6122 40.2605 27.3337 40.1563C26.8071 39.9593 26.4147 39.4386 26.2399 38.7047C26.1861 38.4788 26.1446 38.1968 26.1297 37.9552C26.1238 37.8601 26.1153 37.7628 26.1108 37.739L26.1027 37.6958H28.5661C29.921 37.6958 31.033 37.692 31.0372 37.6874C31.05 37.6736 30.9686 36.5763 30.9288 36.2257C30.9084 36.046 30.8756 35.8176 30.8559 35.7182C30.6293 34.5735 29.8799 33.7195 28.8398 33.4202C28.4934 33.3206 28.0898 33.2817 27.761 33.3163ZM0.970491 33.4645L0.930664 33.4706L0.935136 37.2696L0.939591 41.0685L1.45993 41.0736C1.74611 41.0764 1.98673 41.0716 1.99467 41.063C2.0026 41.0544 2.00796 40.5721 2.00658 39.9913C2.00522 39.4105 2.00421 38.8402 2.00437 38.7239C2.00488 38.339 2.09921 38.0888 2.33402 37.8495C2.41182 37.7703 2.57961 37.5913 2.70687 37.4519L2.93827 37.1984L2.98414 37.279C3.00937 37.3233 3.46955 38.1681 4.00674 39.1563C4.54394 40.1446 5.00432 40.9766 5.02979 41.0051C5.0553 41.0337 5.10787 41.0642 5.14681 41.073C5.22401 41.0903 6.47603 41.0904 6.49198 41.0731C6.49737 41.0672 6.48201 41.0292 6.45784 40.9886C6.43367 40.948 6.14168 40.4348 5.80896 39.8482C5.47623 39.2616 4.88676 38.2263 4.49899 37.5477C4.11124 36.8691 3.78979 36.302 3.7847 36.2875C3.7789 36.2711 4.25859 35.7321 5.05945 34.855L6.34348 33.4487L5.67445 33.4488C5.28859 33.4489 4.97879 33.457 4.94255 33.4679C4.89579 33.482 4.8117 33.562 4.61407 33.7801C4.37949 34.039 2.95082 35.6385 2.36991 36.2926C2.25239 36.4249 2.13759 36.5698 2.11482 36.6147C2.07574 36.6917 2.07163 36.6944 2.04125 36.6645C2.01063 36.6344 2.00907 36.5564 2.00907 35.0504C2.00907 34.1801 2.00312 33.4671 1.99582 33.466C1.95839 33.4607 1.00454 33.4592 0.970491 33.4645ZM18.8517 33.4642C18.8344 33.4678 18.8189 33.5005 18.8107 33.5507C18.7882 33.6887 18.7816 40.9263 18.8039 40.9852C18.8371 41.0726 18.8809 41.0792 19.3948 41.0736L19.8721 41.0685L19.8809 39.6464C19.8874 38.5984 19.8953 38.2142 19.9108 38.1859C19.9223 38.1647 20.1302 37.9322 20.3728 37.6693L20.8139 37.1911L20.9592 37.4579C22.7351 40.7198 22.8946 41.0074 22.9467 41.0419C22.9973 41.0755 23.0476 41.078 23.686 41.078C24.0628 41.0781 24.371 41.074 24.371 41.069C24.371 41.0502 24.1841 40.7206 22.9651 38.5894C22.0152 36.9289 21.7102 36.3813 21.705 36.3272C21.6981 36.2558 21.6984 36.2554 22.9498 34.8812C23.6383 34.1251 24.2084 33.4932 24.2169 33.4768C24.2306 33.4501 24.1603 33.4476 23.537 33.4527C22.9537 33.4574 22.8341 33.4631 22.7933 33.4877C22.7666 33.5038 22.1303 34.2053 21.3791 35.0466C20.628 35.8879 19.9876 36.5997 19.9561 36.6284L19.8986 36.6807V35.0743C19.8986 33.803 19.894 33.4675 19.8765 33.466C19.8161 33.4608 18.8758 33.4591 18.8517 33.4642ZM28.4577 34.4678C28.9272 34.5768 29.2933 34.8704 29.5132 35.3143C29.6835 35.6578 29.8088 36.1352 29.8396 36.5572L29.847 36.6581H28.0017H26.1564L26.154 36.5956C26.135 36.1061 26.2677 35.6415 26.5384 35.2492C26.986 34.601 27.7288 34.2985 28.4577 34.4678ZM15.8789 37.3739C15.8733 37.4611 15.8643 37.6622 15.8588 37.8207C15.8246 38.8087 15.7618 39.0803 15.4879 39.4253C15.166 39.8307 14.7197 40.1042 14.2153 40.2051C14.0226 40.2437 13.5621 40.233 13.3668 40.1855C12.9765 40.0905 12.6695 39.7644 12.5786 39.3485C12.5448 39.1935 12.5486 38.8279 12.5856 38.6759C12.6588 38.376 12.8365 38.1227 13.0669 37.99C13.2679 37.8743 13.7018 37.7652 14.504 37.6288C15.138 37.521 15.432 37.4383 15.7356 37.2823C15.8036 37.2473 15.866 37.218 15.8742 37.217C15.8823 37.2161 15.8845 37.2867 15.8789 37.3739Z" fill="#8D8D8D"/>
</svg>
