<svg width="24" height="24" viewBox="0 0 24 24" fill="none" xmlns="http://www.w3.org/2000/svg">
<path d="M12.0034 4.84195e-07C9.62989 -0.00067362 7.30948 0.702541 5.33564 2.02071C3.3618 3.33887 1.8232 5.21278 0.914429 7.40544C0.00565525 9.59809 -0.232471 12.011 0.230167 14.339C0.692804 16.667 1.83542 18.8055 3.51352 20.4841C5.19161 22.1626 7.3298 23.3059 9.65767 23.7692C11.9855 24.2325 14.3985 23.995 16.5914 23.0869C18.7843 22.1787 20.6587 20.6407 21.9774 18.6672C23.2961 16.6937 24 14.3735 24 12C23.9973 8.81882 22.7326 5.76866 20.4835 3.51891C18.2344 1.26916 15.1846 0.0036102 12.0034 4.84195e-07ZM12.0034 22.6333C9.89937 22.634 7.84239 22.0107 6.09267 20.8421C4.34294 19.6736 2.97907 18.0124 2.17358 16.0687C1.36809 14.1249 1.15716 11.9859 1.56747 9.9223C1.97778 7.85865 2.99091 5.96305 4.47869 4.47527C5.96647 2.98749 7.86207 1.97437 9.92571 1.56406C11.9894 1.15374 14.1283 1.36468 16.0721 2.17017C18.0158 2.97566 19.677 4.33953 20.8456 6.08925C22.0141 7.83898 22.6374 9.89596 22.6368 12C22.6331 14.819 21.5117 17.5216 19.5183 19.5149C17.525 21.5083 14.8224 22.6297 12.0034 22.6333Z" fill="white"/>
<path d="M17.7261 7.01394L9.36255 15.916L6.49973 13.0872C6.37092 12.9602 6.19695 12.8896 6.01607 12.8909C5.83519 12.8921 5.66223 12.9652 5.53523 13.094C5.40823 13.2228 5.33761 13.3968 5.33888 13.5777C5.34016 13.7586 5.41324 13.9315 5.54205 14.0585L9.40004 17.8688L18.7144 7.94776C18.7835 7.88449 18.8387 7.80768 18.8767 7.72212C18.9148 7.63656 18.9348 7.54407 18.9355 7.45044C18.9362 7.35681 18.9176 7.26404 18.8808 7.17791C18.8441 7.09178 18.79 7.01415 18.722 6.94984C18.6539 6.88554 18.5733 6.83594 18.4853 6.80416C18.3972 6.77237 18.3035 6.75907 18.2101 6.76508C18.1166 6.77109 18.0254 6.79629 17.9422 6.83911C17.8589 6.88193 17.7853 6.94144 17.7261 7.01394Z" fill="white"/>
</svg>
