<svg width="7" height="175" viewBox="0 0 7 175" fill="none" xmlns="http://www.w3.org/2000/svg">
<g clip-path="url(#clip0_24_225)">
<g clip-path="url(#clip1_24_225)">
<path d="M7 9.62036V13.1215L0 13.1204V9.62036H7Z" fill="#F74A53"/>
<path d="M7 155.751V158.376H0V155.751H7Z" fill="#F74A53"/>
<path d="M0 168H7V170.625H0V168Z" fill="#F74A53"/>
<path d="M7 139.126H0V136.501H7V139.126Z" fill="#F74A53"/>
<path d="M0 131.25V128.625H7V131.25H0Z" fill="#F74A53"/>
<path d="M7 15.7441V18.3691H0V15.7441H7Z" fill="#F74A53"/>
<path d="M7 19.2454V21.8704H0V19.2454H7Z" fill="#F74A53"/>
<path d="M7 22.7454V25.3704H0V22.7454H7Z" fill="#F74A53"/>
<path d="M0 118.125V115.5H7V118.125H0Z" fill="#F74A53"/>
<path d="M0 37.6204V34.9954H7V37.6204H0Z" fill="#F74A53"/>
<path d="M7 82.2441H0V79.6191H7V82.2441Z" fill="#F74A53"/>
<path d="M0 41.9954H7V44.6204H0V41.9954Z" fill="#F74A53"/>
<path d="M7 55.1204H0V52.4954H7V55.1204Z" fill="#F74A53"/>
<path d="M7 49.8727V51.6227H0V49.8727H7Z" fill="#F74A53"/>
<path d="M0 27.9954V26.2454H7V27.9954H0Z" fill="#F74A53"/>
<path d="M0 1.74533V0C2.33333 0 4.66667 0 7 0V1.74067H0V1.74533Z" fill="#F74A53"/>
<path d="M7 165.376H0V163.626H7V165.376Z" fill="#F74A53"/>
<path d="M7 161.876H0V160.126H7V161.876Z" fill="#F74A53"/>
<path d="M0 61.2441H7V62.9941H0V61.2441Z" fill="#F74A53"/>
<path d="M7 45.4954V47.2454H0V45.4954H7Z" fill="#F74A53"/>
<path d="M7 147.875H0V146.125H7V147.875Z" fill="#F74A53"/>
<path d="M0 141.751H7V143.501H0V141.751Z" fill="#F74A53"/>
<path d="M0 133.875V132.125H7V133.875H0Z" fill="#F74A53"/>
<path d="M7 119V120.75H0V119H7Z" fill="#F74A53"/>
<path d="M0 74.3704H7V76.1204H0V74.3704Z" fill="#F74A53"/>
<path d="M7 173.25V175H0V173.25H7Z" fill="#F74A53"/>
<path d="M0 78.7454V76.9954H7V78.7454H0Z" fill="#F74A53"/>
<path d="M0 109.375H7V111.125H0V109.375Z" fill="#F74A53"/>
<path d="M7 30.6191H0V28.8691H7V30.6191Z" fill="#F74A53"/>
<path d="M7 103.245H0V101.495H7V103.245Z" fill="#F74A53"/>
<path d="M7 94.4954H0V92.7454H7V94.4954Z" fill="#F74A53"/>
<path d="M0 88.3727V86.6227H7V88.3727H0Z" fill="#F74A53"/>
<path d="M7 90.9954H0V89.2454H7V90.9954Z" fill="#F74A53"/>
<path d="M7 85.7477H0V84.8704H7V85.7477Z" fill="#F74A53"/>
<path d="M0 96.2454H7V97.1227H0V96.2454Z" fill="#F74A53"/>
<path d="M0 33.2454H7V34.1227H0V33.2454Z" fill="#F74A53"/>
<path d="M0 99.7454H7V100.623H0V99.7454Z" fill="#F74A53"/>
<path d="M0 105.869H7V106.745H0V105.869Z" fill="#F74A53"/>
<path d="M0 112H7V112.876H0V112Z" fill="#F74A53"/>
<path d="M0 38.4954H7V39.3727H0V38.4954Z" fill="#F74A53"/>
<path d="M0 121.625H7V122.501H0V121.625Z" fill="#F74A53"/>
<path d="M0 125.125H7V126.001H0V125.125Z" fill="#F74A53"/>
<path d="M0 70.8704H7V71.7477H0V70.8704Z" fill="#F74A53"/>
<path d="M0 134.75H7V135.626H0V134.75Z" fill="#F74A53"/>
<path d="M7 14.8703H0V13.9941H7V14.8703Z" fill="#F74A53"/>
<path d="M0 144.375H7V145.251H0V144.375Z" fill="#F74A53"/>
<path d="M0 67.3704H7V68.2477H0V67.3704Z" fill="#F74A53"/>
<path d="M0 5.24536H7V6.1227H0V5.24536Z" fill="#F74A53"/>
<path d="M0 150.5H7V151.376H0V150.5Z" fill="#F74A53"/>
<path d="M7 64.7477H0V63.8704H7V64.7477Z" fill="#F74A53"/>
<path d="M0 154.001H7V154.877H0V154.001Z" fill="#F74A53"/>
<path d="M7 3.49769H0V2.62036H7V3.49769Z" fill="#F74A53"/>
<path d="M0 57.7441H7V58.6203H0V57.7441Z" fill="#F74A53"/>
<path d="M0 48.1204H7V48.9977H0V48.1204Z" fill="#F74A53"/>
<path d="M0 171.5H7V172.376H0V171.5Z" fill="#F74A53"/>
</g>
</g>
<defs>
<clipPath id="clip0_24_225">
<rect width="7" height="175" fill="white"/>
</clipPath>
<clipPath id="clip1_24_225">
<rect width="7" height="175" fill="white"/>
</clipPath>
</defs>
</svg>
