<svg width="31" height="31" viewBox="0 0 31 31" fill="none" xmlns="http://www.w3.org/2000/svg">
<path d="M24.9349 23.587C23.0776 23.587 21.5653 25.0992 21.5653 26.9565C21.5653 28.8138 23.0775 30.3261 24.9349 30.3261C26.7922 30.3261 28.3044 28.8139 28.3044 26.9565C28.3044 25.0992 26.7921 23.587 24.9349 23.587ZM24.9349 28.9783C23.8202 28.9783 22.9131 28.0712 22.9131 26.9565C22.9131 25.8418 23.8202 24.9348 24.9349 24.9348C26.0495 24.9348 26.9566 25.8418 26.9566 26.9565C26.9566 28.0712 26.0495 28.9783 24.9349 28.9783Z" fill="white"/>
<path d="M11.4565 23.587C9.59918 23.587 8.08691 25.0992 8.08691 26.9565C8.08691 28.8138 9.59918 30.3261 11.4565 30.3261C13.3137 30.3261 14.826 28.8139 14.826 26.9566C14.826 25.0993 13.3138 23.587 11.4565 23.587ZM11.4565 28.9783C10.3418 28.9783 9.43472 28.0712 9.43472 26.9565C9.43472 25.8418 10.3418 24.9348 11.4565 24.9348C12.5711 24.9348 13.4782 25.8418 13.4782 26.9565C13.4782 28.0712 12.5711 28.9783 11.4565 28.9783Z" fill="white"/>
<path d="M27.6305 20.8913H12.0752C10.4753 20.8913 9.08571 19.7523 8.77164 18.1821L5.37783 1.21569C5.31447 0.900294 5.03818 0.673859 4.71742 0.673859H0.673935C0.301935 0.673859 0 0.975793 0 1.34779C0 1.71979 0.301935 2.02173 0.673935 2.02173H4.16479L7.44942 18.4477C7.88884 20.6446 9.83508 22.2391 12.0752 22.2391H27.6305C28.0025 22.2391 28.3044 21.9372 28.3044 21.5652C28.3044 21.1932 28.0025 20.8913 27.6305 20.8913Z" fill="white"/>
<path d="M30.8315 4.9452C30.7034 4.80096 30.5202 4.71744 30.3261 4.71744H6.06517C5.69317 4.71744 5.39124 5.01937 5.39124 5.39137C5.39124 5.76337 5.69317 6.06524 6.06517 6.06524H29.5632L28.6049 13.729C28.4782 14.7385 27.6156 15.5 26.598 15.5H8.08691C7.71491 15.5 7.41298 15.802 7.41298 16.174C7.41298 16.546 7.71491 16.8479 8.08691 16.8479H26.598C28.2935 16.8479 29.7317 15.5796 29.9419 13.8961L30.9946 5.4749C31.0188 5.28346 30.9596 5.08938 30.8315 4.9452Z" fill="white"/>
</svg>
