<svg width="28" height="28" viewBox="0 0 28 28" fill="none" xmlns="http://www.w3.org/2000/svg">
<path d="M6.30563 20.2187C5.89812 20.6263 5.89812 21.2869 6.30563 21.6944C6.71313 22.1019 7.37383 22.1019 7.78133 21.6944L6.30563 20.2187ZM14.7378 14.7378C15.1453 14.3303 15.1453 13.6697 14.7378 13.2622C14.3303 12.8547 13.6697 12.8547 13.2622 13.2622L14.7378 14.7378ZM13.2622 13.2622C12.8547 13.6697 12.8547 14.3303 13.2622 14.7378C13.6697 15.1453 14.3303 15.1453 14.7378 14.7378L13.2622 13.2622ZM21.6944 7.78133C22.1019 7.37383 22.1019 6.71313 21.6944 6.30563C21.2869 5.89812 20.6263 5.89812 20.2187 6.30563L21.6944 7.78133ZM14.7378 13.2622C14.3303 12.8547 13.6697 12.8547 13.2622 13.2622C12.8547 13.6697 12.8547 14.3303 13.2622 14.7378L14.7378 13.2622ZM20.2187 21.6944C20.6263 22.1019 21.2869 22.1019 21.6944 21.6944C22.1019 21.2869 22.1019 20.6263 21.6944 20.2187L20.2187 21.6944ZM13.2622 14.7378C13.6697 15.1453 14.3303 15.1453 14.7378 14.7378C15.1453 14.3303 15.1453 13.6697 14.7378 13.2622L13.2622 14.7378ZM7.78133 6.30563C7.37383 5.89812 6.71313 5.89812 6.30563 6.30563C5.89812 6.71313 5.89812 7.37383 6.30563 7.78133L7.78133 6.30563ZM7.78133 21.6944L14.7378 14.7378L13.2622 13.2622L6.30563 20.2187L7.78133 21.6944ZM14.7378 14.7378L21.6944 7.78133L20.2187 6.30563L13.2622 13.2622L14.7378 14.7378ZM13.2622 14.7378L20.2187 21.6944L21.6944 20.2187L14.7378 13.2622L13.2622 14.7378ZM14.7378 13.2622L7.78133 6.30563L6.30563 7.78133L13.2622 14.7378L14.7378 13.2622Z" fill="black"/>
</svg>
