<svg width="66" height="78" viewBox="0 0 66 78" fill="none" xmlns="http://www.w3.org/2000/svg">
<path d="M49.7587 24.9023H40.5798C40.5798 23.0362 39.1131 21.4053 36.9208 20.4958L42.567 11.8552C42.6932 11.8709 42.8193 11.8866 42.9613 11.8866C44.2861 11.8866 45.3743 10.8203 45.3743 9.48733C45.3743 8.1544 44.3018 7.08806 42.9613 7.08806C41.6207 7.08806 40.5482 8.1544 40.5482 9.48733C40.5482 9.97346 40.6902 10.4282 40.9425 10.8046L35.0125 19.9156C34.3501 19.7901 33.6404 19.7117 32.8991 19.7117C32.1579 19.7117 31.4639 19.7744 30.7858 19.9156L20.1085 3.54403C20.3451 3.18335 20.4713 2.75995 20.4713 2.30519C20.4713 1.03498 19.4304 0 18.1529 0C16.8754 0 15.8345 1.03498 15.8345 2.30519C15.8345 3.57539 16.8754 4.61037 18.1529 4.61037C18.2633 4.61037 18.3894 4.59469 18.4998 4.57901L28.8932 20.4958C26.701 21.4053 25.2342 23.0362 25.2342 24.9023H16.0553C7.19176 24.9023 0 32.0374 0 40.8661V58.4294C0 65.8625 5.10993 72.1194 12.0336 73.8914C11.9547 75.193 11.9232 78 12.9799 78C13.9104 78 15.4402 75.8046 16.3392 74.3932H49.4906C50.3738 75.8046 51.9194 78 52.8499 78C53.9066 78 53.8593 75.193 53.7962 73.8914C60.7199 72.1194 65.8298 65.8625 65.8298 58.4294V40.8661C65.814 32.0374 58.638 24.9023 49.7587 24.9023ZM46.4941 65.047H10.9296C9.19472 65.047 7.7753 63.6357 7.7753 61.9107V37.3848C7.7753 35.6598 9.19472 34.2485 10.9296 34.2485H46.4941C48.2289 34.2485 49.6483 35.6598 49.6483 37.3848V61.9264C49.6483 63.6514 48.2289 65.047 46.4941 65.047ZM56.3512 59.4801C54.2851 59.4801 52.6134 57.8179 52.6134 55.7636C52.6134 53.7093 54.2851 52.047 56.3512 52.047C58.4172 52.047 60.089 53.7093 60.089 55.7636C60.089 57.8179 58.4172 59.4801 56.3512 59.4801ZM56.3512 45.1158C54.2851 45.1158 52.6134 43.4536 52.6134 41.3993C52.6134 39.345 54.2851 37.6827 56.3512 37.6827C58.4172 37.6827 60.089 39.345 60.089 41.3993C60.089 43.4536 58.4172 45.1158 56.3512 45.1158Z" fill="#009393"/>
<rect x="6.63867" y="32.084" width="54.2128" height="35.9575" fill="#009393"/>
<path fill-rule="evenodd" clip-rule="evenodd" d="M36.3041 50.7106C36.1123 50.725 35.1217 50.7841 32.9121 50.7841C31.1546 50.7841 29.9068 50.7314 29.469 50.7106C22.677 50.4119 17.6074 49.2295 17.6074 47.8139C17.6074 46.3984 22.677 45.2176 29.469 44.9141V49.5331C29.9131 49.5651 31.1849 49.6401 32.9424 49.6401C35.0514 49.6401 36.1075 49.5523 36.2977 49.5347V44.9173C43.0752 45.2192 48.1337 46.4015 48.1337 47.8139C48.1337 49.2263 43.0768 50.4087 36.2977 50.709L36.3041 50.7106ZM36.304 44.4364V40.303H45.7625V34H20.0103V40.303H29.4673V44.4348C21.7806 44.7879 16 46.3105 16 48.1351C16 49.9597 21.7806 51.4808 29.4673 51.8355V65.0807H36.3024V51.8307C43.9715 51.4776 49.7425 49.9565 49.7425 48.1335C49.7425 46.3105 43.9763 44.7895 36.3024 44.4348L36.304 44.4364Z" fill="white"/>
</svg>
