<svg width="94" height="112" viewBox="0 0 94 112" fill="none" xmlns="http://www.w3.org/2000/svg">
<path d="M71.0518 35.5586H57.9449C57.9449 32.8939 55.8505 30.5652 52.7202 29.2664L60.7825 16.9284C60.9626 16.9508 61.1428 16.9732 61.3455 16.9732C63.2372 16.9732 64.7911 15.4505 64.7911 13.5472C64.7911 11.6439 63.2597 10.1212 61.3455 10.1212C59.4312 10.1212 57.8999 11.6439 57.8999 13.5472C57.8999 14.2414 58.1025 14.8907 58.4629 15.4281L49.9952 28.4379C49.0494 28.2588 48.0359 28.1468 46.9775 28.1468C45.919 28.1468 44.9281 28.2364 43.9598 28.4379L28.7135 5.06061C29.0513 4.54559 29.2314 3.941 29.2314 3.29163C29.2314 1.47788 27.7451 0 25.9209 0C24.0968 0 22.6104 1.47788 22.6104 3.29163C22.6104 5.10539 24.0968 6.58327 25.9209 6.58327C26.0786 6.58327 26.2587 6.56088 26.4164 6.53848L41.2573 29.2664C38.127 30.5652 36.0326 32.8939 36.0326 35.5586H22.9257C10.2693 35.5586 0 45.747 0 58.3537V83.4328C0 94.0467 7.2966 102.981 17.183 105.511C17.0704 107.37 17.0254 111.378 18.5343 111.378C19.863 111.378 22.0474 108.243 23.3311 106.228H70.6689C71.93 108.243 74.137 111.378 75.4657 111.378C76.9746 111.378 76.907 107.37 76.817 105.511C86.7034 102.981 94 94.0467 94 83.4328V58.3537C93.9775 45.747 83.7307 35.5586 71.0518 35.5586ZM66.39 92.8823H15.6066C13.1294 92.8823 11.1025 90.867 11.1025 88.4039V53.3827C11.1025 50.9196 13.1294 48.9043 15.6066 48.9043H66.39C68.8673 48.9043 70.8941 50.9196 70.8941 53.3827V88.4263C70.8941 90.8894 68.8673 92.8823 66.39 92.8823ZM80.4653 84.9331C77.5151 84.9331 75.1279 82.5596 75.1279 79.6262C75.1279 76.6928 77.5151 74.3193 80.4653 74.3193C83.4154 74.3193 85.8026 76.6928 85.8026 79.6262C85.8026 82.5596 83.4154 84.9331 80.4653 84.9331ZM80.4653 64.422C77.5151 64.422 75.1279 62.0484 75.1279 59.1151C75.1279 56.1817 77.5151 53.8081 80.4653 53.8081C83.4154 53.8081 85.8026 56.1817 85.8026 59.1151C85.8026 62.0484 83.4154 64.422 80.4653 64.422Z" fill="#009393"/>
<rect x="9.48047" y="45.8145" width="77.4118" height="51.3445" fill="#009393"/>
<path d="M37.9414 51.568L46.9868 81.1927H47.3226L56.368 51.568C60.6407 51.1263 63.0368 51.0905 67.3094 51.568L53.6623 92.0156C48.5821 90.9593 45.7276 90.9797 40.6471 92.0156L27 51.568C30.2776 50.9223 32.3409 50.7066 37.9414 51.568Z" fill="#15352C"/>
<path d="M34.7133 59.4176C34.3532 57.21 34.3422 55.9525 34.7133 53.666C44.4327 52.7848 49.8861 52.7994 59.4799 53.666C60.13 55.9548 60.041 57.2084 59.4799 59.4176H50.5949V82.9681C47.9855 82.1231 46.4596 82.1022 43.6127 82.9681V59.4176H34.7133Z" fill="white"/>
</svg>
