<svg width="75" height="75" viewBox="0 0 75 75" fill="none" xmlns="http://www.w3.org/2000/svg">
<rect width="75" height="75" rx="37.5" fill="#53AE94"/>
<path d="M24.1463 14.5972L37.3268 57.7646H37.816L50.9965 14.5972C57.2224 13.9536 60.7138 13.9015 66.9397 14.5972L47.0538 73.5352C39.6513 71.996 35.492 72.0257 28.0889 73.5352L8.20312 14.5972C12.9791 13.6563 15.9856 13.3421 24.1463 14.5972Z" fill="#15352C"/>
<path d="M23.2948 28.4811C22.882 25.9504 22.8694 24.509 23.2948 21.888C34.436 20.878 40.6872 20.8947 51.6844 21.888C52.4296 24.5116 52.3276 25.9486 51.6844 28.4811H41.4996V55.4766C38.5085 54.508 36.7594 54.4841 33.4961 55.4766V28.4811H23.2948Z" fill="white"/>
</svg>
