<svg width="140" height="147" viewBox="0 0 140 147" fill="none" xmlns="http://www.w3.org/2000/svg">
<g clip-path="url(#clip0_2001_4)">
<path d="M34.4118 100.135L97.1429 91.3065L95.5972 27.8397" stroke="#53AE94" stroke-width="0.356551" stroke-miterlimit="10"/>
<path d="M47.2319 82.2182L97.1537 91.2586L80.0645 43.4462" stroke="#53AE94" stroke-width="0.356551" stroke-miterlimit="10"/>
<path d="M61.2715 60.9629L97.1418 91.3073" stroke="#53AE94" stroke-width="0.356551" stroke-miterlimit="10"/>
<path d="M29.2736 33.6001C12.6454 53.2203 16.4115 86.3618 34.547 101.725C34.547 101.725 34.2343 85.3637 50.4185 82.9856C50.4185 82.9856 36.0405 67.957 30.9678 54.1319C26.4773 41.8735 29.2736 33.6001 29.2736 33.6001Z" fill="#53AE94"/>
<path d="M29.1288 33.7713C45.7571 14.1511 79.0196 12.3591 97.2041 27.734C97.2041 27.734 81.0199 30.1121 81.3326 46.4732C81.3326 46.4732 64.1523 34.7892 49.6724 32.0281C36.8408 29.6381 29.1288 33.7713 29.1288 33.7713Z" fill="url(#paint0_linear_2001_4)"/>
<path d="M29.1288 33.7713C45.7571 14.1511 79.0196 12.3591 97.2041 27.734C97.2041 27.734 81.0199 30.1121 81.3326 46.4732C81.3326 46.4732 64.1523 34.7892 49.6724 32.0281C36.8408 29.6381 29.1288 33.7713 29.1288 33.7713Z" fill="#D8E7E7"/>
<path d="M29.2727 33.5984C29.2727 33.5984 16.3341 56.3115 50.448 82.9653C50.448 82.9653 49.477 68.261 65.9564 64.6573L29.2727 33.5984Z" fill="#D8E7E7"/>
<path d="M29.2731 33.5985C29.2731 33.5985 49.5421 17.0594 81.4465 46.319C81.4465 46.319 66.8016 47.7971 65.9382 64.627L29.2731 33.5985Z" fill="#53AE94"/>
</g>
<path fill-rule="evenodd" clip-rule="evenodd" d="M99.3081 84.4734C99.122 88.1971 97.1593 91.7674 93.7391 93.86C92.6707 94.5136 91.5388 94.975 90.3835 95.2539L89.0772 96.8318C86.0699 100.464 86.5541 105.833 90.1725 108.828L97.3706 114.787C100.417 117.309 104.715 117.338 107.79 115.102C108.297 115.575 109.437 116.541 109.795 116.108C110.111 115.726 109.73 114.354 109.457 113.507L120.705 99.9203C121.583 100.037 123.007 100.149 123.323 99.7673C123.681 99.3342 122.515 98.4012 121.96 97.9855C123.583 94.5466 122.752 90.3295 119.706 87.8075L112.508 81.8485C108.884 78.8595 103.525 79.3796 100.512 83.0187L99.3081 84.4734ZM107.22 80.9103L88.8262 103.129L103.563 115.329L121.957 93.1102L107.22 80.9103Z" fill="#53AE94"/>
<rect x="88.2207" y="103.547" width="29.8037" height="20.0308" transform="rotate(-51.7687 88.2207 103.547)" fill="#53AE94"/>
<path d="M97.6457 96.2161L106.868 100.826L106.945 100.745L101.871 91.7702C102.744 90.638 103.285 90.0517 104.379 89.1303L111.009 101.697C109.59 102.681 108.94 103.374 108.025 104.837L95.137 98.8561C95.7328 97.9172 96.1538 97.3699 97.6457 96.2161Z" fill="#15352C"/>
<path d="M98.7996 98.7948C98.1843 98.3755 97.8784 98.0898 97.4118 97.476C99.4277 94.9289 100.682 93.6164 103.09 91.5004C103.792 91.8683 104.074 92.1772 104.478 92.8191L102.441 94.9629L108.123 100.363C107.321 100.799 106.966 101.162 106.522 102.047L100.84 96.6475L98.7996 98.7948Z" fill="white"/>
<defs>
<linearGradient id="paint0_linear_2001_4" x1="47.4757" y1="49.2773" x2="78.8627" y2="12.1976" gradientUnits="userSpaceOnUse">
<stop stop-color="white"/>
<stop offset="1" stop-color="#E2E5F4"/>
</linearGradient>
<clipPath id="clip0_2001_4">
<rect width="94.0582" height="87.0342" fill="white" transform="translate(0 49.0879) rotate(-31.4593)"/>
</clipPath>
</defs>
</svg>
