<svg width="352" height="429" viewBox="0 0 352 429" fill="none" xmlns="http://www.w3.org/2000/svg">
<g clip-path="url(#clip0_1_38)">
<path d="M10.1445 230.175L227.643 324.513L346.666 118.891" stroke="#009393" stroke-width="1.33434" stroke-miterlimit="10"/>
<path d="M86.0664 198.016L227.774 324.379L266.603 138.371" stroke="#009393" stroke-width="1.33434" stroke-miterlimit="10"/>
<path d="M172.4 157.586L227.642 324.512" stroke="#009393" stroke-width="1.33434" stroke-miterlimit="10"/>
<path d="M123.696 7.73828C32.2932 37.8945 -20.4134 151.047 7.47444 235.511C7.47444 235.511 38.4312 182.671 94.7406 206.689C94.7406 206.689 78.1947 130.631 89.0029 76.5904C98.6102 28.6875 123.696 7.73828 123.696 7.73828Z" fill="#009393"/>
<path d="M122.896 8.00522C214.299 -22.151 323.982 37.0939 352.003 121.691C352.003 121.691 295.694 97.6732 264.737 150.513C264.737 150.513 232.713 79.6595 191.882 42.5647C155.588 9.8733 122.896 8.00522 122.896 8.00522Z" fill="url(#paint0_linear_1_38)"/>
<path d="M122.896 8.00522C214.299 -22.151 323.982 37.0939 352.003 121.691C352.003 121.691 295.694 97.6732 264.737 150.513C264.737 150.513 232.713 79.6595 191.882 42.5647C155.588 9.8733 122.896 8.00522 122.896 8.00522Z" fill="#D8E7E7"/>
<path d="M123.696 7.73828C123.696 7.73828 38.0309 54.9741 94.8739 206.689C94.8739 206.689 120.493 157.852 180.139 178.534L123.696 7.73828Z" fill="#D8E7E7"/>
<path d="M123.697 7.73694C123.697 7.73694 220.704 -5.47307 265.405 150.245C265.405 150.245 215.767 126.36 180.14 178.4L123.697 7.73694Z" fill="#009393"/>
</g>
<path fill-rule="evenodd" clip-rule="evenodd" d="M247.889 306.945C240.021 318.457 226.789 326.012 211.792 326.012C207.114 326.012 202.607 325.277 198.381 323.915L191.115 326.406C174.42 332.129 165.48 350.212 171.181 366.841L182.52 399.923C187.32 413.924 200.984 422.41 215.17 421.277C215.862 423.78 217.615 429.087 219.605 428.405C221.358 427.804 222.822 422.681 223.604 419.443L286.047 398.038C288.622 400.126 292.95 403.263 294.703 402.663C296.693 401.98 294.792 396.724 293.833 394.313C305.73 386.505 311.315 371.42 306.515 357.419L295.176 324.338C289.445 307.718 271.322 298.912 254.597 304.645L247.889 306.945ZM280.129 311.011L178.016 346.014L201.232 413.742L303.345 378.739L280.129 311.011Z" fill="#009393"/>
<rect x="175.264" y="346.152" width="111.536" height="74.9625" transform="rotate(-20.3094 175.264 346.152)" fill="#009393"/>
<path fill-rule="evenodd" clip-rule="evenodd" d="M244.937 361.757C244.7 361.856 243.472 362.351 240.676 363.288C238.453 364.033 236.852 364.496 236.289 364.655C227.569 367.157 220.654 367.811 220.054 366.02C219.454 364.229 225.367 360.586 233.831 357.322L235.79 363.166C236.365 363.018 238.006 362.573 240.23 361.828C242.898 360.934 244.197 360.375 244.43 360.272L242.472 354.43C251.175 351.938 258.076 351.289 258.675 353.076C259.274 354.863 253.377 358.503 244.928 361.758L244.937 361.757ZM242.276 353.82L240.523 348.591L252.49 344.58L249.817 336.606L217.236 347.526L219.909 355.5L231.873 351.49L233.625 356.717C224.05 360.424 217.382 364.801 218.156 367.11C218.93 369.418 226.888 368.891 236.764 366.081L242.38 382.838L251.028 379.94L245.409 363.176C254.962 359.477 261.618 355.106 260.845 352.799C260.072 350.493 252.132 351.014 242.273 353.819L242.276 353.82Z" fill="white"/>
<defs>
<linearGradient id="paint0_linear_1_38" x1="151.18" y1="93.3382" x2="323.797" y2="36.2719" gradientUnits="userSpaceOnUse">
<stop stop-color="white"/>
<stop offset="1" stop-color="#E2E5F4"/>
</linearGradient>
<clipPath id="clip0_1_38">
<rect width="352" height="325.713" fill="white"/>
</clipPath>
</defs>
</svg>
