<svg width="148" height="148" viewBox="0 0 148 148" fill="none" xmlns="http://www.w3.org/2000/svg">
<g clip-path="url(#clip0_1_90)">
<path d="M38.5797 46.324L63.1573 104.711L124.118 86.9862" stroke="#009393" stroke-width="0.356551" stroke-miterlimit="10"/>
<path d="M59.1794 54.1352L63.2066 104.709L105.059 75.9605" stroke="#009393" stroke-width="0.356551" stroke-miterlimit="10"/>
<path d="M83.3184 62.2715L63.1564 104.709" stroke="#009393" stroke-width="0.356551" stroke-miterlimit="10"/>
<path d="M101.589 24.3408C78.3689 13.2831 47.2927 25.3994 37.0784 46.8608C37.0784 46.8608 52.8155 42.3743 59.2534 57.4122C59.2534 57.4122 70.1053 39.669 82.1733 31.2293C92.8758 23.7532 101.589 24.3408 101.589 24.3408Z" fill="#009393"/>
<path d="M101.386 24.2438C124.606 35.3015 134.845 66.9996 124.632 88.5114C124.632 88.5114 118.194 73.4735 102.457 77.96C102.457 77.96 109.359 58.3629 108.325 43.6585C107.354 30.6423 101.386 24.2438 101.386 24.2438Z" fill="url(#paint0_linear_1_90)"/>
<path d="M101.386 24.2438C124.606 35.3015 134.845 66.9996 124.632 88.5114C124.632 88.5114 118.194 73.4735 102.457 77.96C102.457 77.96 109.359 58.3629 108.325 43.6585C107.354 30.6423 101.386 24.2438 101.386 24.2438Z" fill="#D8E7E7"/>
<path d="M101.589 24.3403C101.589 24.3403 76.3221 17.6405 59.2788 57.4364C59.2788 57.4364 73.2458 52.7372 80.944 67.7471L101.589 24.3403Z" fill="#D8E7E7"/>
<path d="M101.589 24.3408C101.589 24.3408 122.762 39.706 102.634 78.0323C102.634 78.0323 97.4603 64.2524 80.9692 67.7217L101.589 24.3408Z" fill="#009393"/>
</g>
<path fill-rule="evenodd" clip-rule="evenodd" d="M70.319 105.057C66.672 105.829 62.719 104.844 59.8217 102.073C58.9169 101.208 58.1816 100.232 57.6167 99.1871L55.7569 98.3276C51.476 96.3493 46.41 98.1903 44.4395 102.454L40.5195 110.937C38.8604 114.527 39.9319 118.69 42.8804 121.091C42.5518 121.702 41.9101 123.051 42.4205 123.286C42.8699 123.494 44.0988 122.775 44.8479 122.294L60.8595 129.693C60.9711 130.572 61.2276 131.977 61.677 132.185C62.1873 132.421 62.791 131.055 63.051 130.412C66.7905 131.101 70.655 129.22 72.314 125.63L76.2341 117.147C78.197 112.88 76.3236 107.832 72.0351 105.85L70.319 105.057ZM75.7892 111.795L49.6055 99.6953L41.58 117.062L67.7638 129.162L75.7892 111.795Z" fill="#009393"/>
<rect x="49.0469" y="99.2148" width="29.8037" height="20.0308" transform="rotate(23.414 49.0469 99.2148)" fill="#009393"/>
<path fill-rule="evenodd" clip-rule="evenodd" d="M59.6172 115.097C59.5532 115.072 59.2246 114.941 58.5117 114.605C57.9447 114.339 57.5501 114.132 57.412 114.059C55.266 112.932 53.8099 111.781 54.0247 111.324C54.2396 110.868 56.0544 111.256 58.2918 112.189L57.5907 113.679C57.7292 113.757 58.1281 113.974 58.6951 114.241C59.3756 114.561 59.7297 114.693 59.7937 114.716L60.4945 113.226C62.6353 114.353 64.0879 115.502 63.8735 115.957C63.6592 116.413 61.8482 116.027 59.6154 115.095L59.6172 115.097ZM60.5703 113.072L61.1976 111.738L64.2493 113.174L65.2059 111.14L56.8974 107.232L55.9407 109.265L58.9919 110.701L58.3648 112.034C55.8312 110.981 53.7351 110.595 53.4581 111.184C53.1812 111.772 54.8154 113.14 57.2415 114.421L55.2312 118.695L57.4365 119.732L59.4475 115.457C61.9754 116.507 64.0682 116.892 64.3449 116.304C64.6216 115.716 62.992 114.35 60.57 113.071L60.5703 113.072Z" fill="white"/>
<defs>
<linearGradient id="paint0_linear_1_90" x1="91.0874" y1="45.9461" x2="134.961" y2="66.8067" gradientUnits="userSpaceOnUse">
<stop stop-color="white"/>
<stop offset="1" stop-color="#E2E5F4"/>
</linearGradient>
<clipPath id="clip0_1_90">
<rect width="94.0582" height="87.0342" fill="white" transform="translate(79.1309) rotate(43.7234)"/>
</clipPath>
</defs>
</svg>
