<svg width="129" height="140" viewBox="0 0 129 140" fill="none" xmlns="http://www.w3.org/2000/svg">
<path d="M19.5796 46.324L44.1572 104.711L105.118 86.9862" stroke="#53AE94" stroke-width="0.356551" stroke-miterlimit="10"/>
<path d="M40.1794 54.1352L44.2065 104.709L86.0586 75.9605" stroke="#53AE94" stroke-width="0.356551" stroke-miterlimit="10"/>
<path d="M64.3183 62.2715L44.1563 104.709" stroke="#53AE94" stroke-width="0.356551" stroke-miterlimit="10"/>
<path d="M82.5891 24.3408C59.3689 13.2831 28.2926 25.3994 18.0784 46.8608C18.0784 46.8608 33.8154 42.3743 40.2534 57.4122C40.2534 57.4122 51.1053 39.669 63.1733 31.2293C73.8757 23.7532 82.5891 24.3408 82.5891 24.3408Z" fill="#53AE94"/>
<path d="M82.3857 24.2438C105.606 35.3015 115.845 66.9996 105.632 88.5114C105.632 88.5114 99.1938 73.4735 83.4567 77.96C83.4567 77.96 90.3585 58.3629 89.3247 43.6585C88.3537 30.6423 82.3857 24.2438 82.3857 24.2438Z" fill="url(#paint0_linear_79_26)"/>
<path d="M82.3857 24.2438C105.606 35.3015 115.845 66.9996 105.632 88.5114C105.632 88.5114 99.1938 73.4735 83.4567 77.96C83.4567 77.96 90.3585 58.3629 89.3247 43.6585C88.3537 30.6423 82.3857 24.2438 82.3857 24.2438Z" fill="#D8E7E7"/>
<path d="M82.5887 24.3403C82.5887 24.3403 57.322 17.6405 40.2787 57.4364C40.2787 57.4364 54.2458 52.7372 61.944 67.7471L82.5887 24.3403Z" fill="#D8E7E7"/>
<path d="M82.5892 24.3408C82.5892 24.3408 103.762 39.706 83.6344 78.0323C83.6344 78.0323 78.4602 64.2524 61.9692 67.7217L82.5892 24.3408Z" fill="#53AE94"/>
<path fill-rule="evenodd" clip-rule="evenodd" d="M51.319 105.057C47.672 105.829 43.719 104.844 40.8217 102.073C39.9169 101.208 39.1816 100.232 38.6167 99.1871L36.7569 98.3276C32.476 96.3493 27.41 98.1903 25.4395 102.454L21.5195 110.937C19.8604 114.527 20.9319 118.69 23.8804 121.091C23.5518 121.702 22.9101 123.051 23.4205 123.286C23.8699 123.494 25.0988 122.775 25.8479 122.294L41.8595 129.693C41.9711 130.572 42.2276 131.977 42.677 132.185C43.1873 132.421 43.791 131.055 44.051 130.412C47.7905 131.101 51.655 129.22 53.314 125.63L57.2341 117.147C59.197 112.88 57.3236 107.832 53.0351 105.85L51.319 105.057ZM56.7892 111.795L30.6055 99.6953L22.58 117.062L48.7638 129.162L56.7892 111.795Z" fill="#53AE94"/>
<rect x="30.0469" y="99.2148" width="29.8037" height="20.0308" transform="rotate(23.414 30.0469 99.2148)" fill="#53AE94"/>
<path d="M39.4642 106.322L36.6273 117.743L36.7367 117.808L45.4696 109.92C46.9483 110.61 47.7362 111.067 49.0355 112.056L36.6894 122.574C35.24 121.237 34.3058 120.687 32.4477 120.032L35.8984 104.185C37.0926 104.615 37.8072 104.947 39.4642 106.322Z" fill="#15352C"/>
<path d="M36.8794 108.25C37.1931 107.46 37.4351 107.048 38.0025 106.375C41.3422 107.986 43.1167 109.055 46.0741 111.211C45.8391 112.084 45.5653 112.475 44.951 113.086L42.0553 111.351L37.4565 119.026C36.7711 118.241 36.2779 117.936 35.181 117.663L39.7798 109.987L36.8794 108.25Z" fill="white"/>
<defs>
<linearGradient id="paint0_linear_79_26" x1="72.0874" y1="45.9461" x2="115.961" y2="66.8067" gradientUnits="userSpaceOnUse">
<stop stop-color="white"/>
<stop offset="1" stop-color="#E2E5F4"/>
</linearGradient>
</defs>
</svg>
