<svg width="352" height="429" viewBox="0 0 352 429" fill="none" xmlns="http://www.w3.org/2000/svg">
<g clip-path="url(#clip0_79_27)">
<path d="M10.1445 230.175L227.643 324.513L346.666 118.891" stroke="#53AE94" stroke-width="1.33434" stroke-miterlimit="10"/>
<path d="M86.0664 198.016L227.774 324.379L266.603 138.371" stroke="#53AE94" stroke-width="1.33434" stroke-miterlimit="10"/>
<path d="M172.4 157.586L227.642 324.512" stroke="#53AE94" stroke-width="1.33434" stroke-miterlimit="10"/>
<path d="M123.696 7.73828C32.2932 37.8945 -20.4134 151.047 7.47444 235.511C7.47444 235.511 38.4312 182.671 94.7406 206.689C94.7406 206.689 78.1947 130.631 89.0029 76.5904C98.6102 28.6875 123.696 7.73828 123.696 7.73828Z" fill="#53AE94"/>
<path d="M122.896 8.00522C214.299 -22.151 323.982 37.0939 352.003 121.691C352.003 121.691 295.694 97.6732 264.737 150.513C264.737 150.513 232.713 79.6595 191.882 42.5647C155.588 9.8733 122.896 8.00522 122.896 8.00522Z" fill="url(#paint0_linear_79_27)"/>
<path d="M122.896 8.00522C214.299 -22.151 323.982 37.0939 352.003 121.691C352.003 121.691 295.694 97.6732 264.737 150.513C264.737 150.513 232.713 79.6595 191.882 42.5647C155.588 9.8733 122.896 8.00522 122.896 8.00522Z" fill="#D8E7E7"/>
<path d="M123.696 7.73828C123.696 7.73828 38.0309 54.9741 94.8739 206.689C94.8739 206.689 120.493 157.852 180.139 178.534L123.696 7.73828Z" fill="#D8E7E7"/>
<path d="M123.697 7.73694C123.697 7.73694 220.704 -5.47307 265.405 150.245C265.405 150.245 215.767 126.36 180.14 178.4L123.697 7.73694Z" fill="#53AE94"/>
</g>
<path fill-rule="evenodd" clip-rule="evenodd" d="M247.89 306.945C240.021 318.457 226.789 326.012 211.792 326.012C207.114 326.012 202.607 325.277 198.381 323.915L191.115 326.406C174.42 332.129 165.48 350.212 171.181 366.841L182.521 399.923C187.32 413.924 200.985 422.41 215.17 421.277C215.862 423.78 217.615 429.087 219.605 428.405C221.358 427.804 222.822 422.681 223.604 419.443L286.047 398.038C288.622 400.126 292.951 403.263 294.703 402.663C296.694 401.98 294.792 396.724 293.833 394.313C305.73 386.505 311.315 371.42 306.516 357.419L295.176 324.338C289.446 307.718 271.322 298.912 254.598 304.645L247.89 306.945ZM280.129 311.011L178.016 346.014L201.232 413.742L303.346 378.739L280.129 311.011Z" fill="#53AE94"/>
<rect x="175.264" y="346.152" width="111.536" height="74.9625" transform="rotate(-20.3094 175.264 346.152)" fill="#53AE94"/>
<path d="M226.171 346.608L246.147 375.962L246.514 375.848L246.342 340.342C250.869 338.406 253.48 337.552 258.32 336.622L257.135 385.54C251.214 386.111 248.096 387.104 242.887 389.966L214.193 350.329C217.562 348.508 219.747 347.57 226.171 346.608Z" fill="#15352C"/>
<path d="M225.306 356.299C224.161 354.005 223.722 352.632 223.351 350.003C233.691 345.733 239.665 343.895 250.462 341.581C251.952 343.865 252.281 345.268 252.418 347.877L242.692 350.898L250.7 376.679C247.556 376.641 245.879 377.137 243.057 379.053L235.048 353.273L225.306 356.299Z" fill="white"/>
<defs>
<linearGradient id="paint0_linear_79_27" x1="151.18" y1="93.3382" x2="323.797" y2="36.2719" gradientUnits="userSpaceOnUse">
<stop stop-color="white"/>
<stop offset="1" stop-color="#E2E5F4"/>
</linearGradient>
<clipPath id="clip0_79_27">
<rect width="352" height="325.713" fill="white"/>
</clipPath>
</defs>
</svg>
