<svg width="12" height="12" viewBox="0 0 12 12" fill="none" xmlns="http://www.w3.org/2000/svg">
<path fill-rule="evenodd" clip-rule="evenodd" d="M7.21949 6.4509C7.15131 6.45645 6.79902 6.47928 6.01319 6.47928C5.38816 6.47928 4.94438 6.45892 4.78869 6.4509C2.37324 6.33555 0.570312 5.87906 0.570312 5.33251C0.570312 4.78596 2.37324 4.3301 4.78869 4.21289V5.99627C4.94666 6.0086 5.39895 6.0376 6.02398 6.0376C6.77402 6.0376 7.1496 6.00367 7.21722 5.99688V4.21412C9.62756 4.33071 11.4265 4.7872 11.4265 5.33251C11.4265 5.87783 9.62813 6.33431 7.21722 6.45028L7.21949 6.4509ZM7.2208 4.0294V2.43356H10.5846V0H1.4262V2.43356H4.78943V4.02879C2.05578 4.16512 0 4.75299 0 5.45746C0 6.16193 2.05578 6.74919 4.78943 6.88614V12H7.22023V6.88428C9.94763 6.74796 12 6.16069 12 5.45684C12 4.75299 9.94934 4.16573 7.22023 4.02879L7.2208 4.0294Z" fill="#009393"/>
<path fill-rule="evenodd" clip-rule="evenodd" d="M7.21949 6.4509C7.15131 6.45645 6.79902 6.47928 6.01319 6.47928C5.38816 6.47928 4.94438 6.45892 4.78869 6.4509C2.37324 6.33555 0.570312 5.87906 0.570312 5.33251C0.570312 4.78596 2.37324 4.3301 4.78869 4.21289V5.99627C4.94666 6.0086 5.39895 6.0376 6.02398 6.0376C6.77402 6.0376 7.1496 6.00367 7.21722 5.99688V4.21412C9.62756 4.33071 11.4265 4.7872 11.4265 5.33251C11.4265 5.87783 9.62813 6.33431 7.21722 6.45028L7.21949 6.4509ZM7.2208 4.0294V2.43356H10.5846V0H1.4262V2.43356H4.78943V4.02879C2.05578 4.16512 0 4.75299 0 5.45746C0 6.16193 2.05578 6.74919 4.78943 6.88614V12H7.22023V6.88428C9.94763 6.74796 12 6.16069 12 5.45684C12 4.75299 9.94934 4.16573 7.22023 4.02879L7.2208 4.0294Z" fill="#009393"/>
</svg>
