<svg width="286" height="286" viewBox="0 0 286 286" fill="none" xmlns="http://www.w3.org/2000/svg">
<g clip-path="url(#clip0_2001_6)">
<path d="M285.072 143.001C285.072 221.465 221.465 285.072 143.001 285.072C64.5373 285.072 0.92981 221.465 0.92981 143.001C0.92981 64.5374 64.5373 0.929993 143.001 0.929993C221.465 0.929993 285.072 64.5374 285.072 143.001ZM29.0831 143.001C29.0831 205.916 80.086 256.919 143.001 256.919C205.916 256.919 256.919 205.916 256.919 143.001C256.919 80.086 205.916 29.0833 143.001 29.0833C80.086 29.0833 29.0831 80.086 29.0831 143.001Z" fill="#414141"/>
<path d="M31.6444 204.033C24.338 208.038 21.5977 217.263 26.354 224.104C38.4153 241.451 54.2336 255.945 72.704 266.462C95.559 279.475 121.577 285.889 147.861 284.989C174.146 284.089 199.664 275.911 221.576 261.366C243.487 246.82 260.931 226.478 271.964 202.605C282.998 178.732 287.189 152.264 284.069 126.15C280.95 100.036 270.643 75.3 254.297 54.6977C237.95 34.095 216.206 18.434 191.485 9.45881C171.507 2.20531 150.218 -0.451395 129.189 1.6026C120.897 2.4126 115.646 10.4778 117.33 18.6375C119.015 26.7973 127.003 31.9381 135.315 31.3659C150.834 30.2975 166.463 32.4732 181.188 37.8194C200.659 44.8886 217.786 57.2236 230.661 73.451C243.536 89.678 251.653 109.161 254.11 129.729C256.567 150.297 253.267 171.144 244.576 189.947C235.886 208.75 222.147 224.772 204.889 236.228C187.631 247.685 167.531 254.126 146.829 254.835C126.127 255.543 105.634 250.492 87.633 240.242C74.019 232.491 62.235 221.996 52.993 209.484C48.0428 202.782 38.9507 200.029 31.6444 204.033Z" fill="#F8FAFA"/>
<path d="M226.03 143.002C226.03 188.857 188.857 226.03 143.002 226.03C97.147 226.03 59.9736 188.857 59.9736 143.002C59.9736 97.147 97.147 59.9738 143.002 59.9738C188.857 59.9738 226.03 97.147 226.03 143.002ZM87.424 143.002C87.424 173.697 112.307 198.58 143.002 198.58C173.697 198.58 198.58 173.697 198.58 143.002C198.58 112.307 173.697 87.424 143.002 87.424C112.307 87.424 87.424 112.307 87.424 143.002Z" fill="#414141"/>
<path d="M117.418 78.594C114.62 71.549 118.058 63.4473 125.467 61.8465C135.285 59.7253 145.444 59.395 155.45 60.9123C169.999 63.1185 183.7 69.152 195.15 78.394C206.601 87.636 215.389 99.756 220.616 113.511C225.843 127.267 227.32 142.165 224.896 156.679C222.472 171.193 216.234 184.802 206.821 196.113C197.408 207.424 185.158 216.03 171.326 221.05C157.493 226.069 142.575 227.323 128.099 224.682C118.143 222.865 108.643 219.252 100.047 214.055C93.56 210.134 92.941 201.354 97.877 195.601C102.813 189.848 111.438 189.371 118.223 192.751C122.881 195.071 127.862 196.735 133.026 197.678C142.716 199.446 152.702 198.606 161.962 195.246C171.221 191.886 179.421 186.125 185.722 178.554C192.023 170.983 196.198 161.873 197.821 152.157C199.443 142.442 198.455 132.469 194.956 123.261C191.457 114.053 185.574 105.941 177.91 99.754C170.245 93.567 161.073 89.529 151.334 88.052C146.144 87.265 140.893 87.221 135.734 87.901C128.219 88.892 120.216 85.639 117.418 78.594Z" fill="#479F9E"/>
</g>
<defs>
<clipPath id="clip0_2001_6">
<rect width="286" height="286" fill="white"/>
</clipPath>
</defs>
</svg>
