<svg width="1373" height="605" viewBox="0 0 1373 605" fill="none" xmlns="http://www.w3.org/2000/svg">
<path d="M1372.11 604.62H682C693.486 592.809 705.949 581.486 715.968 570.815C738.858 546.296 768.672 525.687 803.047 522.917C861.371 518.193 916.111 565.683 973.621 555.093C1016.22 547.273 1046.28 510.128 1083.51 487.809C1121.87 464.838 1168.96 457.995 1212.86 466.548C1256.77 475.02 1297.17 498.398 1328.53 530.249C1348.9 551.102 1365.92 576.273 1372.11 604.62Z" fill="#AAD5D5"/>
<path d="M443 9.13598e-07H-27C-19.1778 8.09003 -10.6898 15.8453 -3.86617 23.1542C11.7228 39.948 32.0274 54.0637 55.4386 55.9607C95.16 59.1967 132.441 26.6692 171.607 33.9223C200.622 39.2785 221.093 64.7203 246.445 80.0076C272.575 95.7414 304.641 100.428 334.543 94.5697C364.445 88.7672 391.961 72.7545 413.32 50.9393C427.189 36.6562 438.784 19.4161 443 9.13598e-07Z" fill="#AAD5D5"/>
</svg>
