<svg width="40" height="40" viewBox="0 0 40 40" fill="none" xmlns="http://www.w3.org/2000/svg">
<rect width="40" height="40" rx="11" fill="white"/>
<g clip-path="url(#clip0_2003_7)">
<path d="M28.7694 14.9219C28.7777 15.1224 28.7777 15.3133 28.7777 15.5147C28.7859 21.5976 24.4909 28.62 16.6351 28.62C14.3187 28.62 12.0443 27.8989 10.0913 26.5499C10.4291 26.5955 10.767 26.6136 11.1057 26.6136C13.0249 26.6136 14.8939 25.9201 16.4068 24.6347C14.5807 24.5977 12.9747 23.3123 12.4159 21.4332C13.0587 21.57 13.7179 21.5425 14.3443 21.3516C12.3566 20.9317 10.9277 19.044 10.9194 16.8457C10.9194 16.8276 10.9194 16.8096 10.9194 16.7915C11.5111 17.1468 12.1794 17.3473 12.856 17.3653C10.987 16.0163 10.4036 13.3259 11.5367 11.2188C13.7097 14.1011 16.9063 15.8425 20.3393 16.0344C19.9924 14.4384 20.4662 12.7597 21.5737 11.6292C23.2903 9.88695 25.9956 9.97815 27.619 11.8297C28.575 11.6292 29.4962 11.2464 30.3335 10.7077C30.0121 11.7755 29.3437 12.678 28.4563 13.2528C29.3017 13.1435 30.1308 12.8965 30.9087 12.5317C30.3335 13.4627 29.6067 14.2645 28.7694 14.9219Z" fill="#009393"/>
</g>
<defs>
<clipPath id="clip0_2003_7">
<rect width="21" height="19" fill="white" transform="translate(10 10)"/>
</clipPath>
</defs>
</svg>
