<?xml version="1.0" standalone="no"?>
<!DOCTYPE svg PUBLIC "-//W3C//DTD SVG 20010904//EN"
 "http://www.w3.org/TR/2001/REC-SVG-20010904/DTD/svg10.dtd">
<svg version="1.0" xmlns="http://www.w3.org/2000/svg"
 width="648.000000pt" height="648.000000pt" viewBox="0 0 648.000000 648.000000"
 preserveAspectRatio="xMidYMid meet">
<metadata>
Created by potrace 1.14, written by Peter Selinger 2001-2017
</metadata>
<g transform="translate(0.000000,648.000000) scale(0.100000,-0.100000)"
fill="#000000" stroke="none">
<path d="M2844 6027 c-99 -67 -219 -149 -269 -182 -49 -33 -92 -62 -95 -66 -3
-3 -23 -16 -45 -29 -22 -13 -42 -27 -45 -30 -5 -6 -169 -118 -198 -135 -9 -5
-19 -12 -22 -15 -14 -14 -70 -50 -79 -50 -5 0 -11 -4 -13 -8 -1 -5 -45 -36
-96 -70 -51 -35 -99 -67 -105 -72 -7 -6 -66 -46 -132 -90 -66 -43 -124 -83
-130 -87 -23 -20 -104 -73 -111 -73 -4 0 -12 -6 -18 -13 -10 -11 -400 -277
-444 -302 -9 -5 -20 -14 -23 -18 -4 -5 -16 -14 -28 -20 -38 -21 -316 -212
-319 -219 -2 -5 -8 -8 -13 -8 -5 0 -39 -22 -77 -50 -38 -27 -74 -50 -80 -50
-7 0 -12 -4 -12 -8 0 -4 -15 -16 -32 -27 -18 -10 -35 -21 -38 -24 -3 -4 -72
-51 -155 -106 -82 -55 -158 -108 -169 -117 -11 -10 -26 -18 -33 -18 -7 0 -14
-8 -14 -17 -4 -50 -5 -629 -1 -636 2 -5 11 -2 20 6 10 8 123 85 252 173 129
87 288 194 353 239 65 44 129 87 142 95 13 8 71 48 129 88 58 39 110 72 115
72 5 0 11 4 13 9 2 4 75 57 163 116 290 196 528 357 650 440 66 45 199 135
295 200 96 65 236 160 310 210 74 51 214 145 310 210 96 65 182 124 191 131
19 17 45 18 62 3 26 -23 829 -549 838 -549 5 0 9 -4 9 -10 0 -5 5 -10 11 -10
6 0 17 -6 24 -12 29 -26 44 -38 49 -38 5 0 197 -125 213 -139 7 -6 24 -16 38
-23 14 -6 25 -15 25 -20 0 -4 5 -8 10 -8 12 0 73 -41 78 -52 2 -5 8 -8 12 -8
5 0 82 -49 172 -108 318 -212 463 -307 472 -311 6 -2 15 -8 21 -13 41 -37 452
-298 469 -299 25 0 869 0 875 1 2 0 -61 44 -140 97 -79 53 -145 100 -147 105
-2 4 -8 8 -13 8 -5 0 -32 16 -59 35 -126 88 -146 102 -162 108 -10 3 -18 11
-18 17 0 5 -4 10 -10 10 -5 0 -45 24 -87 53 -43 30 -103 70 -133 90 -30 20
-59 40 -65 44 -20 16 -276 188 -293 198 -9 6 -19 12 -22 15 -3 3 -54 39 -115
80 -60 41 -138 93 -173 117 -35 24 -67 43 -73 43 -5 0 -9 3 -9 8 0 4 -28 25
-63 47 -34 22 -64 42 -67 45 -3 3 -12 10 -22 15 -29 18 -163 109 -168 115 -3
3 -13 10 -22 15 -18 10 -394 263 -413 278 -14 10 -135 93 -412 280 -128 86
-255 172 -283 192 -27 19 -54 35 -59 35 -5 0 -11 4 -13 8 -1 4 -71 54 -154
109 l-151 102 -179 -122z"/>
<path d="M2929 5078 c-51 -34 -95 -66 -97 -70 -2 -4 -8 -8 -14 -8 -11 0 -101
-61 -106 -72 -2 -5 -8 -8 -13 -8 -11 0 -163 -102 -167 -112 -2 -5 -8 -8 -13
-8 -5 0 -46 -25 -90 -55 -44 -30 -84 -55 -89 -55 -4 0 -10 -7 -14 -15 -3 -8
-9 -15 -14 -15 -5 0 -74 -43 -152 -95 -78 -52 -146 -95 -150 -95 -5 0 -10 -3
-12 -7 -5 -11 -127 -93 -138 -93 -6 0 -10 -4 -10 -10 0 -5 -6 -10 -14 -10 -8
0 -16 -3 -18 -8 -2 -6 -263 -183 -320 -217 -10 -5 -327 -217 -705 -470 -378
-253 -695 -463 -703 -466 -47 -20 -45 52 -45 -1465 l0 -1423 265 2 265 2 0
1300 0 1300 65 43 c36 23 73 49 83 57 9 8 17 12 17 10 0 -3 25 13 55 35 30 22
56 40 58 40 2 0 95 61 206 135 112 74 206 135 210 135 4 0 16 8 27 18 10 9 84
60 164 112 80 52 150 98 155 103 6 4 60 39 120 79 61 39 190 125 288 190 97
65 182 118 187 118 6 0 10 4 10 8 0 5 12 15 28 23 15 8 32 18 37 22 6 5 98 66
204 137 107 71 202 133 210 139 26 18 173 115 190 126 59 36 98 62 109 73 7 6
16 12 19 12 6 0 97 -56 118 -73 6 -4 181 -120 389 -258 l379 -251 466 0 c256
0 470 1 476 1 10 1 -334 231 -345 231 -4 0 -15 9 -25 20 -10 11 -22 20 -26 20
-4 0 -65 38 -136 84 -70 47 -207 137 -303 200 -96 63 -180 119 -187 125 -7 6
-15 11 -17 11 -3 0 -94 59 -202 130 -108 72 -199 130 -201 130 -3 0 -22 13
-42 28 -20 15 -48 34 -63 41 -16 8 -28 18 -28 23 0 4 -4 8 -9 8 -9 0 -131 77
-141 89 -3 4 -16 12 -30 19 -14 6 -34 18 -46 27 -19 14 -26 11 -115 -47z"/>
<path d="M4275 3660 c-2 -3 -3 -583 -4 -1288 l0 -1282 293 0 293 0 1 1285 0
1285 -62 1 c-395 3 -518 3 -521 -1z"/>
<path d="M5589 3660 l-24 -5 0 -1675 0 -1675 293 -3 292 -2 -2 1681 -3 1681
-266 2 c-146 0 -276 -1 -290 -4z"/>
<path d="M829 876 c-1 -6 -2 -138 -3 -293 l-1 -283 2016 0 2016 0 0 294 0 294
-2013 0 c-1495 0 -2014 -3 -2015 -12z"/>
</g>
</svg>
