<svg width="800" height="569" viewBox="0 0 800 569" fill="none" xmlns="http://www.w3.org/2000/svg">
<g clip-path="url(#clip0_827_3695)">
<path d="M651.409 370.586L638.98 334.126L618.226 341.197L575.834 216.811L528.574 232.913L528.716 233.336L513.473 299.135L491.784 392.742L504.436 420.677L549.062 405.47L565.307 399.932L583.392 393.767L598.157 437.1L645.418 420.998L630.652 377.665L651.409 370.586ZM565.475 359.176L554.754 362.83L534.223 369.827L548.236 300.25L549.554 294.477L570.963 357.304L565.475 359.176Z" fill="#9DC2E7"/>
<path opacity="0.25" d="M630.652 377.663L645.418 420.997L615.315 408.12L567.204 234.77L549.554 294.478L541.382 328.297L513.474 299.132L528.717 233.335L528.575 232.911L575.834 216.811L618.224 341.198L638.979 334.126L651.409 370.586L630.652 377.663Z" fill="#010101"/>
<path opacity="0.25" d="M565.307 399.93L549.062 405.468L551.449 371.99V365.887L554.754 362.83L556.88 360.866L565.473 359.176C565.475 359.176 564.942 383.766 565.307 399.93Z" fill="#010101"/>
<path d="M565.478 359.175C565.478 359.175 561.417 354.076 554.329 354.665C547.24 355.255 543.285 357.913 543.047 365.297C542.809 372.681 544.57 409.893 542.952 424.66C541.334 439.428 551.402 440.904 551.979 429.976C552.558 419.049 548.28 384.79 551.451 379.179C554.625 373.568 552.693 385.38 556.021 389.221C559.35 393.06 562.893 386.267 559.35 377.112C555.805 367.955 565.478 359.175 565.478 359.175Z" fill="url(#paint0_linear_827_3695)"/>
<path d="M132.687 304.043C131.473 304.043 130.574 303.977 130.186 303.815C129.733 303.624 128.352 303.048 116.292 281.521L118.46 280.307C122.964 288.346 129.794 300.046 131.24 301.542C132.553 301.755 139.766 301.252 146.156 300.61L146.407 303.083C142.382 303.486 136.208 304.043 132.687 304.043Z" fill="#F26647"/>
<path d="M176.404 314.482V315.203C176.404 315.203 175.746 328.867 165.516 328.278C165.49 328.278 165.466 328.271 165.44 328.271C159.114 327.862 151.284 324.91 146.033 322.717C142.734 321.337 140.447 320.256 140.193 320.299C139.528 320.404 147.941 355.405 147.829 357.398C147.816 357.666 147.754 357.951 147.661 358.245C147.065 360.14 144.983 362.413 143.734 362.601C143.603 362.62 143.337 362.377 142.958 361.904C139.155 357.175 124.098 329.708 123.687 320.74C123.246 310.884 128.229 304.949 134.984 303.817C139.968 302.985 154.541 304.992 161.842 306.104C164.434 306.502 166.105 306.782 166.105 306.782L176.404 314.482Z" fill="#0A2533"/>
<path opacity="0.25" d="M147.83 357.398C147.818 357.666 147.756 357.951 147.662 358.245C147.066 360.14 144.985 362.413 143.736 362.601C143.604 362.62 143.338 362.377 142.96 361.904C148.317 354.341 134.314 317.521 137.359 317.416C138.863 317.366 142.188 319.921 146.035 322.717C142.735 321.337 140.448 320.256 140.194 320.299C139.528 320.404 147.942 355.403 147.83 357.398Z" fill="#010101"/>
<path opacity="0.25" d="M176.404 314.482V315.203C176.404 315.203 175.746 328.868 165.516 328.278C167.528 326.67 167.902 323.835 167.752 320.404C167.579 316.433 163.905 309.635 161.842 306.106C164.434 306.503 166.105 306.783 166.105 306.783L176.404 314.482Z" fill="#010101"/>
<path d="M154.634 269.613C154.294 270.149 154.069 270.596 154.069 270.937C154.069 270.937 154.057 270.916 154.033 270.875C153.914 270.664 153.486 269.924 152.934 269.066C152.001 267.625 150.714 265.834 149.937 265.616C148.688 265.274 145.364 269.474 140.871 269.811C140.573 269.838 140.275 269.842 139.97 269.831C135.024 269.607 129.778 262.591 133.991 254.325C135.464 257.352 138.491 257.426 138.491 257.426C138.491 257.426 136.644 257.055 136.577 254.766C141.963 255.723 144.768 251.665 149.422 253.144C154.069 254.616 153.779 257.425 153.779 257.425C153.779 257.425 157.32 256.02 158.426 260.451C159.314 263.996 156.002 267.488 154.634 269.613Z" fill="#0A2533"/>
<path d="M154.033 270.876C153.717 271.994 153.113 273.213 152.299 274.2C151.312 275.407 150.006 276.288 148.533 276.252C145.389 276.177 142.262 271.957 140.871 269.812C145.364 269.477 148.688 265.277 149.937 265.618C150.715 265.835 152 267.625 152.934 269.067C153.484 269.926 153.914 270.665 154.033 270.876Z" fill="url(#paint1_linear_827_3695)"/>
<path d="M158.575 271.303C158.575 271.303 156.213 276.698 155.325 275.516C154.847 274.877 153.467 274.455 152.299 274.198C153.114 273.212 153.717 271.992 154.033 270.875C154.059 270.916 154.07 270.937 154.07 270.937C154.07 270.595 154.294 270.147 154.635 269.613C156.35 270.907 158.575 271.303 158.575 271.303Z" fill="url(#paint2_linear_827_3695)"/>
<path d="M175.186 316.863C171.42 316.31 161.235 305.235 161.235 300.469C161.235 299.797 161.161 299.051 161.036 298.239C160.254 293.279 157.389 286.008 156.196 280.869C154.81 274.891 156.804 272.653 156.804 272.653C161.44 264.681 171.932 280.484 177.916 293.155L177.923 293.162C179.936 297.431 181.267 301.395 181.39 304.05C181.819 313.021 178.952 317.416 175.186 316.863Z" fill="#5462AD"/>
<path opacity="0.25" d="M175.186 316.863C171.42 316.31 161.235 305.235 161.235 300.469C161.235 299.797 161.161 299.051 161.036 298.239L161.012 296.114L164.702 276.773C164.702 276.773 169.798 282.833 170.612 293.684C171.42 304.534 183.367 306.895 177.922 293.162C179.935 297.43 181.266 301.395 181.389 304.05C181.819 313.021 178.952 317.416 175.186 316.863Z" fill="#010101"/>
<path d="M167.287 292.943C167.188 293.028 167.014 293.097 166.784 293.16C165.037 293.643 159.948 293.57 157.829 293.154C157.512 293.091 157.257 293.017 157.096 292.943C155.698 292.278 157.096 290.65 156.655 287.772C156.213 284.889 155.106 276.475 159.388 273.889C163.868 271.185 167.137 281.419 167.287 286.517C167.437 291.614 168.25 292.129 167.287 292.943Z" fill="#5462AD"/>
<path d="M166.784 293.16C166.784 293.16 166.58 305.607 164.205 311.48C164.205 311.487 164.205 311.487 164.205 311.493C163.465 313.32 162.515 314.507 161.29 314.483C156.139 314.37 144.568 302.135 143.513 301.687C142.462 301.245 137.199 302.022 137.366 301.245C137.534 300.469 139.584 298.753 141.796 297.927C144.015 297.095 143.623 297.591 157.854 304.13C157.661 302.874 157.742 297.443 157.804 294.366C157.811 293.9 157.825 293.49 157.83 293.155C159.949 293.57 165.037 293.644 166.784 293.16Z" fill="url(#paint3_linear_827_3695)"/>
<path d="M152.074 365.813C152.435 368.031 137.532 383.2 138.308 379.216C139.079 375.228 143.734 362.6 143.734 362.6C144.983 362.412 147.065 360.14 147.661 358.243C148.88 360.356 151.77 363.973 152.074 365.813Z" fill="#5462AD"/>
<path opacity="0.25" d="M165.516 319.226C165.516 319.226 141.594 314.734 136.869 316.906C132.143 319.077 145.514 356.881 145.514 356.881" stroke="white" stroke-width="0.4597" stroke-miterlimit="10"/>
<path opacity="0.25" d="M164.205 311.48C164.659 308.981 165.001 301.717 163.745 298.846C162.9 296.906 159.756 295.241 157.803 294.366C157.81 293.9 157.823 293.49 157.829 293.155C159.948 293.571 165.037 293.644 166.784 293.162C166.784 293.16 166.58 305.607 164.205 311.48Z" fill="#010101"/>
<path d="M550.81 227.294C550.326 229.158 549.518 231.557 548.262 234.769C546.472 239.374 543.769 245.65 539.785 254.4C539.686 258.844 538.27 287.187 537.885 293.712C537.835 294.508 537.804 294.98 537.791 295.042C537.736 295.327 536.71 295.875 535.592 296.154C534.535 296.427 533.405 296.464 532.918 295.818C531.918 294.489 525.164 267.684 524.835 261.373C524.5 255.059 524.17 256.5 531.918 231.364C530.035 232.246 517.83 231.916 517.83 231.916C517.83 231.916 520.068 262.702 520.08 262.925C520.08 262.956 520.061 263.03 520.018 263.136C519.876 263.559 519.427 264.498 518.943 264.97C518.725 265.186 518.501 265.311 518.295 265.249C518.178 265.219 517.891 264.957 517.476 264.516C515.134 262.029 508.708 253.666 505.227 245.866C501.131 236.675 500.13 230.248 504.009 223.829C507.887 217.404 527.524 216.912 527.524 216.912C528.767 217.26 531.625 217.602 534.453 218.274C535.285 218.467 536.118 218.697 536.902 218.958C541.203 220.386 549.399 222.2 551.164 221.182C551.556 222.553 551.642 224.156 550.81 227.294Z" fill="#6561AB"/>
<path d="M567.086 205.892C566.309 206.332 557.286 205.997 551.188 203.672C551.219 204.747 551.356 206.438 551.511 208.359C551.755 211.385 552.034 214.983 551.966 217.606C551.928 219.477 551.711 220.855 551.188 221.173C551.182 221.18 551.176 221.185 551.163 221.185C550.226 221.726 547.478 221.465 544.458 220.893C542.506 220.52 540.443 220.017 538.685 219.513C538.044 219.327 537.443 219.141 536.902 218.96C533.447 217.804 529.135 217.362 527.524 216.915C527.119 216.803 526.89 216.697 526.876 216.573C526.828 215.963 528.374 214.585 529.101 213.142C529.188 212.963 529.305 212.695 529.436 212.353C530.027 210.843 530.953 207.984 531.4 206.163C531.667 205.089 531.767 204.381 531.532 204.504C530.811 204.889 526.546 212.863 526.049 212.863C525.876 212.863 525.018 212.372 523.998 211.681C522.283 210.519 520.127 208.81 520.077 207.996C520.065 207.884 520.096 207.791 520.177 207.717C521.177 206.772 528.815 193.926 531.586 191.186C532.885 189.893 534.42 189.117 535.669 188.657C537.067 188.136 538.124 188.017 538.124 188.017C539.77 187.96 541.429 188.179 543.046 188.588C548.539 189.962 553.579 193.43 556.451 195.144C560.16 197.357 562.708 196.749 563.646 197.302C564.593 197.863 567.855 205.444 567.086 205.892Z" fill="#F26647"/>
<path d="M551.966 217.606C546.857 217.668 535.503 217.214 529.438 212.354C530.028 210.844 530.954 207.986 531.402 206.165C531.402 206.165 543.389 209.8 551.511 208.359C551.755 211.385 552.035 214.983 551.966 217.606Z" fill="#F69181"/>
<path opacity="0.25" d="M543.048 188.591C542.851 190.716 542.098 193.003 539.785 192.823C536.523 192.569 535.821 189.902 535.672 188.66C537.07 188.138 538.127 188.019 538.127 188.019C539.773 187.963 541.432 188.18 543.048 188.591Z" fill="#010101"/>
<path d="M541.668 183.96C541.668 183.96 541.115 181.692 540.003 180.524C539.103 181.991 535.629 182.742 532.95 182.936C531.682 183.029 530.588 182.998 530.035 182.854C528.152 175.54 534.024 172.333 537.294 172.11C540.556 171.885 543.496 174.316 542.608 178.026C545.54 180.916 541.668 183.96 541.668 183.96Z" fill="#321212"/>
<path d="M541.668 183.96C541.501 184.445 541.24 185.297 540.792 186.092H540.786C540.053 187.415 538.823 188.59 536.691 187.726C536.617 187.695 536.542 187.664 536.474 187.627C534.678 186.812 533.746 185.228 533.274 183.979C533.125 183.587 533.02 183.227 532.951 182.935C535.629 182.742 539.104 181.991 540.004 180.524C540.054 180.581 540.104 180.636 540.153 180.692C541.165 181.897 541.668 183.96 541.668 183.96Z" fill="url(#paint4_linear_827_3695)"/>
<path d="M541.388 189.609C541.06 191.659 537.679 191.549 537.312 190.218C537.118 189.529 536.901 188.864 536.733 188.379C536.584 187.926 536.472 187.633 536.472 187.633V187.627C536.541 187.664 536.615 187.695 536.69 187.726C538.821 188.59 540.052 187.416 540.784 186.092H540.791C540.561 186.551 541.176 187.13 541.382 188.217C541.457 188.609 541.476 189.07 541.388 189.609Z" fill="url(#paint5_linear_827_3695)"/>
<path d="M523.833 270.789C523.504 273.337 510.323 283.305 510.547 281.534C510.764 279.762 517.476 264.519 517.476 264.519C517.893 264.959 518.179 265.222 518.295 265.251C518.96 265.445 519.805 263.754 520.016 263.139C521.788 265.364 524.131 268.514 523.833 270.789Z" fill="#262166"/>
<path d="M532.917 316.571C529.816 309.92 532.917 295.819 532.917 295.819C533.912 297.149 537.678 295.596 537.789 295.043C537.802 294.981 537.832 294.508 537.882 293.713C537.882 293.713 538.379 300.469 538.97 306.192C539.561 311.916 536.019 323.213 532.917 316.571Z" fill="#262166"/>
<path opacity="0.25" d="M531.917 231.365C530.034 232.248 517.829 231.918 517.829 231.918C517.829 231.918 520.066 262.703 520.078 262.926C520.078 262.957 520.059 263.032 520.016 263.137C519.874 263.56 519.425 264.5 518.942 264.971C516.692 254.438 512.206 234.24 515.784 230.773C520.365 226.342 532.768 225.162 532.948 226.131C533.129 227.107 531.917 231.365 531.917 231.365Z" fill="#010101"/>
<path d="M523.136 216.816C522.956 217.19 522.863 217.5 522.92 217.706C523.186 218.737 521.769 231.657 522.286 232.987C522.801 234.317 523.099 238.524 522.801 241.184C522.502 243.844 516.967 245.466 516.967 243.179C516.967 240.887 517.632 235.499 517.855 233.429C518.078 231.366 516.01 216.414 516.563 214.344C516.923 212.995 518.309 210.709 519.228 209.286C519.719 208.522 520.08 207.999 520.08 207.999C520.162 209.297 525.599 212.865 526.052 212.865C526.05 212.864 523.863 215.313 523.136 216.816Z" fill="url(#paint6_linear_827_3695)"/>
<path opacity="0.25" d="M550.81 227.294C548.367 227.114 545.621 226.045 543.707 224.124C541.482 221.899 537.771 219.836 534.453 218.276C535.285 218.47 536.118 218.699 536.902 218.96C541.203 220.389 549.399 222.203 551.164 221.185C551.556 222.553 551.643 224.156 550.81 227.294Z" fill="#010101"/>
<path opacity="0.25" d="M548.262 234.77C546.472 239.375 543.769 245.651 539.785 254.401C539.686 258.846 538.27 287.188 537.885 293.713C537.835 294.509 537.803 294.981 537.791 295.043C537.736 295.329 536.71 295.876 535.592 296.156C535.846 286.598 535.511 265.792 537.128 259.603C539.058 252.195 547.721 235.789 548.262 234.77Z" fill="#010101"/>
<path opacity="0.25" d="M538.685 219.513C538.044 219.327 537.443 219.141 536.902 218.96C533.447 217.805 529.135 217.363 527.524 216.915C527.12 216.803 526.89 216.697 526.876 216.573C526.828 215.964 528.374 214.585 529.101 213.142C529.822 211.7 532.252 204.113 531.532 204.504C530.811 204.889 526.547 212.863 526.049 212.863C525.876 212.863 525.018 212.372 523.999 211.681C524.104 211.501 524.222 211.32 524.353 211.128C527.007 207.214 531.364 202.342 532.102 198.134C532.693 195.033 533.581 196.804 533.431 200.794C533.298 204.375 533.105 215.338 538.685 219.513Z" fill="#010101"/>
<path opacity="0.25" d="M551.188 221.173C551.181 221.18 551.176 221.185 551.163 221.185C550.226 221.726 547.478 221.465 544.458 220.893C549.858 215.481 546.911 200.82 547.758 201.573C548.751 202.456 551.187 203.674 551.187 203.674C551.3 207.663 552.91 220.123 551.188 221.173Z" fill="#010101"/>
<path opacity="0.25" d="M526.05 212.864C526.05 212.864 523.863 215.313 523.136 216.816C523.117 216.487 523.094 216.182 523.062 215.909C522.894 214.325 520.427 210.881 519.227 209.285C519.717 208.521 520.078 207.998 520.078 207.998C520.161 209.297 525.597 212.864 526.05 212.864Z" fill="#010101"/>
<path opacity="0.25" d="M540.151 180.692C538.823 183.632 534.914 183.972 533.273 183.979C533.124 183.587 533.018 183.227 532.949 182.935C535.627 182.742 539.103 181.991 540.003 180.524C540.053 180.581 540.103 180.636 540.151 180.692Z" fill="#010101"/>
<path opacity="0.25" d="M541.381 188.218C541.133 188.411 540.83 188.554 540.45 188.641C538.667 189.045 537.411 188.698 536.734 188.38C536.586 187.927 536.473 187.634 536.473 187.634V187.629C536.542 187.665 536.617 187.696 536.691 187.727C538.823 188.591 540.053 187.418 540.785 186.093H540.792C540.562 186.553 541.177 187.13 541.381 188.218Z" fill="#010101"/>
<path d="M559.054 -41.0627V234.77" stroke="#0A2533" stroke-width="0.9195" stroke-miterlimit="10"/>
<path d="M570.683 201.939C570.671 202.014 570.653 202.088 570.64 202.157C569.907 205.494 567.235 205.849 566.73 205.631C566.228 205.413 564.897 203.884 563.735 198.498C563.709 198.391 563.692 198.286 563.666 198.175C563.666 198.175 561.156 191.737 559.976 188.641C557.062 186.914 556.509 187.617 556.098 185.621C555.694 183.626 556.987 181.047 557.727 180.674C558.466 180.308 561.784 183.409 562.232 184.552C562.673 185.694 571.348 198.396 570.683 201.939Z" fill="url(#paint7_linear_827_3695)"/>
<path opacity="0.25" d="M570.64 202.157C569.907 205.494 567.235 205.848 566.731 205.631C566.228 205.413 564.898 203.884 563.735 198.498C564.475 199.994 565.613 201.934 566.862 202.735C568.234 203.61 569.776 203.332 570.64 202.157Z" fill="#010101"/>
<path d="M472.794 376.62L465.671 340.248C460.402 313.346 450.241 293.721 435.19 281.365C420.132 269.017 401.533 265.009 379.391 269.347C357.248 273.685 341.545 284.361 332.291 301.368C323.032 318.384 321.044 340.388 326.332 367.385L333.478 403.895C338.73 430.704 348.878 450.285 363.935 462.633C370.292 467.846 377.29 471.574 384.928 473.807C395.374 476.872 407.02 477.138 419.864 474.627C426.52 473.328 432.599 471.445 438.085 468.983C450.786 463.291 460.369 454.51 466.832 442.629C476.093 425.614 478.076 403.608 472.794 376.62ZM428.335 425.44C425.9 432.899 420.748 437.397 412.88 438.938C404.733 440.535 398.114 438.248 393.007 432.072C389.526 427.864 386.55 421.619 384.081 413.335C384.081 413.329 384.081 413.322 384.081 413.322C384.076 413.31 384.076 413.296 384.069 413.279C382.926 409.438 381.894 405.156 380.974 400.44L370.976 349.377C368.634 335.965 368.627 325.613 370.951 318.316C373.276 311.022 378.42 306.59 386.381 305.037C392.453 303.843 397.69 304.869 402.09 308.101H402.097C403.595 309.207 404.998 310.561 406.304 312.178C411.443 318.535 415.42 328.901 418.229 343.262L427.904 392.673C430.629 407.058 430.773 417.976 428.335 425.44Z" fill="#F26647"/>
<path opacity="0.25" d="M431.909 432.264C433.961 435.421 436.688 456.885 438.087 468.984C432.599 471.446 426.52 473.329 419.866 474.628C407.021 477.138 395.375 476.872 384.929 473.809C385.356 472.845 385.748 471.838 386.083 470.807C392.603 450.889 384.456 414.952 384.083 413.335C386.55 421.619 389.526 427.864 393.008 432.072C398.115 438.248 404.734 440.535 412.881 438.938C420.748 437.396 425.901 432.898 428.337 425.44C430.774 417.977 430.629 407.058 427.908 392.672L418.233 343.261C415.424 328.9 411.446 318.534 406.308 312.176C405.002 310.561 403.599 309.207 402.101 308.1C417.818 311.182 430.582 359.841 435.901 383.314C441.213 406.79 441.661 417.647 431.909 432.264Z" fill="#010101"/>
<path d="M387.55 422.883C387.55 422.883 388.569 425.547 393.922 427.023C399.276 428.499 404.296 420.218 407.841 422.883C411.385 425.547 417.057 436.589 422.047 434.908C427.038 433.226 428.514 459.806 426.152 462.76C423.789 465.713 422.09 441.842 415.852 442.556C409.613 443.267 414.338 461.282 410.794 464.532C407.25 467.781 408.727 456.558 404.888 454.49C401.048 452.423 409.023 544.863 403.115 546.34C397.208 547.817 393.369 542.205 395.732 522.418C398.095 502.632 395.14 434.407 391.595 430.863C388.054 427.319 388.276 426.654 387.55 422.883Z" fill="#6561AB"/>
<path d="M386.085 -41.0627V281.422" stroke="#0A2533" stroke-width="0.9195" stroke-miterlimit="10"/>
<path d="M462.755 156.716C462.755 156.716 458.049 143.814 458.436 142.816C458.824 141.82 463.993 139.937 464.373 140.49C464.75 141.044 468.017 151.067 467.463 151.786C466.909 152.507 462.755 156.716 462.755 156.716Z" fill="#262166"/>
<path d="M384.453 139.796C384.453 139.796 387.326 140.987 388.603 144.09C389.879 147.19 389.382 136.005 389.382 136.005L387.998 134.732L384.453 139.796Z" fill="url(#paint8_linear_827_3695)"/>
<path d="M382.958 139.796C382.958 139.796 386.558 142.482 387.168 142.649C387.776 142.815 388.952 135.782 388.421 134.675C387.887 133.566 385.936 132.459 384.67 133.18C383.402 133.9 382.369 139.361 382.958 139.796Z" fill="url(#paint9_linear_827_3695)"/>
<path d="M392.539 140.601C392.539 140.601 389.672 133.956 388.421 132.793C387.168 131.631 384.843 133.126 384.675 133.734C384.507 134.342 387.457 134.786 388.421 135.783C389.383 136.781 386.78 144.145 389.272 146.748C391.764 149.35 392.539 140.601 392.539 140.601Z" fill="url(#paint10_linear_827_3695)"/>
<path d="M459.212 158.21C459.212 158.21 461.758 156.826 462.313 156.105C462.865 155.385 461.869 152.672 463.475 150.18C465.081 147.688 468.514 148.408 469.344 151.398C470.176 154.388 468.017 158.154 467.019 159.317C466.022 160.479 459.212 165.352 459.212 165.352" fill="url(#paint11_linear_827_3695)"/>
<path d="M461.037 163.987C460.962 164.429 460.508 165.186 459.627 166.219C456.395 169.997 447.49 177.392 431.438 185.844C431.122 187.137 430.873 188.454 430.686 189.771C430.09 193.978 430.101 198.229 430.301 202.05C430.35 203.033 430.412 203.99 430.481 204.909C430.774 208.936 431.172 212.261 431.066 214.187C431.016 215.032 430.868 215.604 430.582 215.858C430.221 216.174 429.842 216.461 429.444 216.716C421.427 221.862 406.835 214.175 404.474 211.862C404.287 211.682 404.175 211.532 404.152 211.427C403.741 209.874 405.332 208.214 406.22 205.554C406.369 205.101 406.519 204.087 406.668 202.702C407.091 198.606 407.457 191.28 407.588 185.767C407.662 182.249 407.644 179.472 407.483 178.738C407.476 178.726 407.476 178.713 407.476 178.713C407.035 176.904 393.592 156.596 389.56 149.399C388.821 148.088 388.399 147.212 388.422 146.963C388.571 145.341 391.672 139.582 392.337 139.656C392.449 139.668 392.86 140.184 393.48 141.041C396.595 145.367 404.971 158.442 406.512 160.107C407.954 161.667 415.293 169.392 418.438 172.704C419.326 173.63 419.879 174.214 419.879 174.214C421.583 174.183 423.29 174.027 425 173.761C440.107 171.431 454.953 160.854 458.837 157.914C459.477 157.43 459.82 157.155 459.82 157.155C459.82 157.155 461.372 161.919 461.037 163.987Z" fill="#F47920"/>
<path d="M423.337 180.896C418.184 181.728 418.169 175.024 418.437 172.706C419.325 173.631 419.878 174.215 419.878 174.215C421.581 174.184 423.288 174.029 424.998 173.763C425.639 176.404 425.125 180.61 423.337 180.896Z" fill="#C54527"/>
<path d="M428.553 166.523C427.553 167.126 426.247 167.331 424.582 166.901C423.302 166.578 421.803 165.877 420.056 164.688C420.056 164.688 418.676 166.348 418.565 169.392C414.91 166.236 414.022 163.079 417.123 161.916C415.85 156.379 418.565 155.217 423.102 154.944C427.645 154.664 428.695 159.318 431.409 159.207C431.574 161.689 430.871 165.149 428.553 166.523Z" fill="#262166"/>
<path d="M428.553 166.523C428.503 166.97 428.429 167.485 428.323 168.039C427.714 171.278 426.123 175.796 423.725 175.547C423.6 175.541 423.471 175.516 423.333 175.473C421.177 174.795 419.878 172.701 419.201 171.161C418.753 170.16 418.567 169.395 418.567 169.395C418.603 168.433 418.764 167.605 418.971 166.928C419.411 165.467 420.058 164.691 420.058 164.691C421.804 165.878 423.302 166.581 424.583 166.904C426.247 167.331 427.553 167.126 428.553 166.523Z" fill="url(#paint12_linear_827_3695)"/>
<path d="M423.725 177.454C423.699 178.629 423.538 179.548 422.756 179.603C421.17 179.716 419.064 177.646 419.176 175.397C419.213 174.633 419.226 173.819 419.226 173.073C419.226 172.32 419.213 171.638 419.201 171.159C419.878 172.7 421.177 174.794 423.333 175.471C423.471 175.514 423.601 175.54 423.725 175.546C423.718 176.2 423.744 176.858 423.725 177.454Z" fill="url(#paint13_linear_827_3695)"/>
<path d="M461.037 163.987C460.962 164.429 460.508 165.186 459.627 166.219C459.669 163.577 459.092 159.569 458.837 157.915C459.477 157.431 459.82 157.157 459.82 157.157C459.82 157.157 461.372 161.919 461.037 163.987Z" fill="#C54527"/>
<path d="M393.479 141.044C391.119 143.064 389.967 147.465 389.559 149.403C388.819 148.092 388.398 147.216 388.421 146.967C388.569 145.345 391.67 139.586 392.335 139.66C392.449 139.671 392.858 140.186 393.479 141.044Z" fill="#C54527"/>
<path d="M430.48 204.909C425.198 205.673 415.261 206.351 406.666 202.703C407.089 198.607 407.456 191.281 407.587 185.769C411.843 187.57 421.034 190.777 430.686 189.77C429.933 195.06 430.144 200.423 430.48 204.909Z" fill="#FCAF17"/>
<path opacity="0.25" d="M429.443 216.718C420.804 222.261 404.535 212.908 404.151 211.428C403.74 209.875 405.331 208.215 406.219 205.555C406.368 205.102 406.518 204.088 406.666 202.703C407.089 198.607 407.456 191.281 407.587 185.769C407.661 182.25 407.642 179.474 407.481 178.74C407.668 179.311 410.589 188.571 412.085 197.581C413.639 206.884 413.303 211.316 417.846 214.305C420.505 216.051 425.359 216.972 429.443 216.718Z" fill="#010101"/>
<path d="M449.185 242.29C449.185 246.13 435.301 267.409 432.426 271.776C432.096 272.28 431.909 272.56 431.909 272.56C431.909 272.56 430.12 272.355 428.646 271.857C427.622 271.502 426.746 271.018 426.746 270.347C426.746 270.209 426.772 269.999 426.815 269.719C427.306 266.754 430.356 256.029 434.272 241.848C432.21 239.337 417.737 229.736 417.737 229.736C417.737 229.736 417.73 229.748 417.723 229.773C417.096 231.22 397.005 277.679 394.724 282.011C394.643 282.167 394.586 282.265 394.549 282.31C393.518 283.64 389.236 283.783 388.938 280.98C388.938 280.975 388.938 280.975 388.938 280.968C387.708 269.224 397.837 233.799 402.554 218.134C403.399 215.325 404.069 213.15 404.474 211.864C406.835 214.175 421.427 221.862 429.444 216.718C429.841 216.462 430.221 216.177 430.582 215.859C430.867 215.605 431.016 215.033 431.066 214.189C431.215 214.349 431.372 214.524 431.526 214.71C437.116 221.104 449.185 238.591 449.185 242.29Z" fill="#9DC2E7"/>
<path d="M396.139 288.512C395.586 291.277 380.963 299.474 382.295 294.515C383.376 290.493 387.439 283.478 388.937 280.968C388.937 280.975 388.937 280.975 388.937 280.98C389.236 283.783 393.518 283.641 394.548 282.31C394.585 282.267 394.641 282.168 394.722 282.011C395.469 284.15 396.5 286.722 396.139 288.512Z" fill="#262166"/>
<path d="M437.229 286.075C436.116 286.629 421.723 281.091 422.053 279.208C422.388 277.325 426.812 269.719 426.812 269.719C426.769 269.999 426.743 270.209 426.743 270.347C426.743 271.968 431.907 272.56 431.907 272.56C431.907 272.56 432.094 272.28 432.423 271.776C433.065 277.525 438.267 285.554 437.229 286.075Z" fill="#262166"/>
<path opacity="0.25" d="M415.852 228.151C415.852 228.151 399.903 259.471 393.922 280.968" stroke="#010101" stroke-width="0.4597" stroke-miterlimit="10"/>
<path opacity="0.25" d="M419.617 228.151C419.617 228.151 437.337 239.779 438.003 241.662C438.667 243.545 428.81 269.72 428.81 269.72" stroke="#010101" stroke-width="0.4597" stroke-miterlimit="10"/>
<path opacity="0.25" d="M431.524 214.709C429.574 222.502 418.275 220.384 412.496 218.886C409.134 218.015 405.281 217.984 402.554 218.133C403.399 215.324 404.069 213.149 404.474 211.862C406.835 214.174 421.427 221.861 429.444 216.716C429.841 216.461 430.221 216.176 430.582 215.858C430.867 215.604 431.016 215.032 431.066 214.187C431.213 214.349 431.369 214.524 431.524 214.709Z" fill="#010101"/>
<path opacity="0.25" d="M428.647 271.858C427.622 271.503 426.746 271.019 426.746 270.349C426.746 270.211 426.772 270 426.815 269.72C427.306 266.756 430.357 256.03 434.272 241.849C432.21 239.339 417.737 229.737 417.737 229.737C417.737 229.737 418.917 225.754 420.247 225.457C421.576 225.165 436.933 238.376 438.629 241.111C440.125 243.513 429.667 263.126 428.647 271.858Z" fill="#010101"/>
<path opacity="0.25" d="M428.553 166.523C428.503 166.97 428.429 167.485 428.324 168.039C424.452 170.01 420.654 165.572 420.201 165.628C419.94 165.659 419.405 166.331 418.971 166.927C419.412 165.466 420.058 164.69 420.058 164.69C421.804 165.877 423.302 166.58 424.583 166.903C426.247 167.331 427.553 167.126 428.553 166.523Z" fill="#010101"/>
<path opacity="0.25" d="M423.725 177.454C421.17 176.832 419.759 174.272 419.226 173.073C419.226 172.32 419.213 171.638 419.201 171.159C419.878 172.7 421.177 174.794 423.333 175.471C423.471 175.514 423.601 175.54 423.725 175.546C423.718 176.2 423.744 176.858 423.725 177.454Z" fill="#010101"/>
<path opacity="0.25" d="M430.686 189.771C430.09 193.978 430.101 198.229 430.301 202.05C429.294 197.806 428.413 193.244 429.443 190.604C431.219 186.055 431.412 185.844 431.438 185.844C431.12 187.136 430.871 188.453 430.686 189.771Z" fill="#010101"/>
<path d="M306.346 232.148L258.533 223.932L258.459 224.36L152.869 343.242L150.689 372.959L165.833 375.563L192.046 380.068L227.231 386.116L230.576 386.688L228.059 401.347L226.891 408.129L223.044 430.531L254.165 435.881L270.858 438.746L278.389 394.903L299.393 398.507L305.731 361.612L284.727 358.008L306.346 232.148ZM246.658 293.067L236.907 349.792L225.243 347.785L199.732 343.405L213.857 326.545L217.089 322.686L244.023 290.539L247.832 286.227L246.658 293.067Z" fill="#6561AB"/>
<path opacity="0.25" d="M227.232 386.116L192.046 380.068C196.191 366.378 201.362 347.51 199.733 343.404L225.244 347.784C226.879 350.507 228.171 354.253 228.52 359.393C229.14 368.492 227.784 377.782 227.232 386.116Z" fill="#010101"/>
<path d="M201.255 343.669C201.255 343.669 205.092 338.346 213.731 340.008C222.369 341.671 223.034 352.304 219.269 364.043C215.503 375.783 214.617 416.761 216.388 430.051C218.161 443.341 217.053 449.544 212.845 449.986C208.637 450.429 206.642 434.037 209.079 422.52C211.516 411.002 211.295 400.37 207.307 402.142C203.32 403.915 206.642 408.345 204.648 412.331C202.654 416.317 196.674 413.882 196.896 406.35C197.118 398.818 209.16 349.873 201.255 343.669Z" fill="#9DC2E7"/>
<path opacity="0.25" d="M284.727 358.008L305.731 361.612L299.393 398.507L278.389 394.903L270.857 438.746L254.165 435.879L283.504 252.817L306.346 232.148L284.727 358.008Z" fill="#010101"/>
<path d="M270.435 -41.0627V244.267" stroke="#0A2533" stroke-width="0.9195" stroke-miterlimit="10"/>
<path d="M350.84 187.38C355.611 187.38 359.479 183.512 359.479 178.741C359.479 173.97 355.611 170.102 350.84 170.102C346.069 170.102 342.201 173.97 342.201 178.741C342.201 183.512 346.069 187.38 350.84 187.38Z" fill="#F47920"/>
<path d="M651.409 297.162C656.18 297.162 660.048 293.294 660.048 288.523C660.048 283.752 656.18 279.884 651.409 279.884C646.638 279.884 642.77 283.752 642.77 288.523C642.77 293.294 646.638 297.162 651.409 297.162Z" fill="#6561AB"/>
<path d="M199.733 234.089C204.504 234.089 208.372 230.221 208.372 225.45C208.372 220.679 204.504 216.811 199.733 216.811C194.962 216.811 191.094 220.679 191.094 225.45C191.094 230.221 194.962 234.089 199.733 234.089Z" fill="#9DC2E7"/>
<path d="M342.202 498.274C346.973 498.274 350.841 494.406 350.841 489.635C350.841 484.864 346.973 480.996 342.202 480.996C337.431 480.996 333.563 484.864 333.563 489.635C333.563 494.406 337.431 498.274 342.202 498.274Z" fill="#F26647"/>
<path d="M602.025 208.077C603.865 208.077 605.357 206.586 605.357 204.745C605.357 202.905 603.865 201.413 602.025 201.413C600.185 201.413 598.693 202.905 598.693 204.745C598.693 206.586 600.185 208.077 602.025 208.077Z" fill="#F47920"/>
<path d="M347.508 259.961C349.348 259.961 350.84 258.469 350.84 256.629C350.84 254.789 349.348 253.297 347.508 253.297C345.668 253.297 344.176 254.789 344.176 256.629C344.176 258.469 345.668 259.961 347.508 259.961Z" fill="#9DC2E7"/>
<path d="M247.832 214.846C249.672 214.846 251.164 213.354 251.164 211.514C251.164 209.673 249.672 208.182 247.832 208.182C245.992 208.182 244.5 209.673 244.5 211.514C244.5 213.354 245.992 214.846 247.832 214.846Z" fill="#6561AB"/>
<path d="M698.602 28.9078C698.602 28.9078 685.286 15.6177 660.048 20.934C634.809 26.2503 617.07 66.1208 598.695 74.98C580.318 83.8405 544.09 110.003 541.383 132.362C576.775 102.89 590.065 115.737 613.101 112.193C636.137 108.649 637.909 81.625 671.136 82.5118C704.361 83.3972 739.802 124.681 773.028 101.604C806.253 78.5255 845.238 51.0585 813.784 28.4658C782.329 5.8731 718.537 40.4259 698.602 28.9078Z" fill="url(#paint14_linear_827_3695)"/>
<path d="M159.468 118.734C159.468 118.734 156.003 137.224 174.625 155.07C193.247 172.915 236.177 165.081 253.857 175.259C271.536 185.437 313.572 200.604 333.564 190.229C289.266 177.622 292.381 159.402 276.463 142.376C260.546 125.351 237.23 139.126 219.225 111.189C201.22 83.2499 215.326 30.7016 177.531 16.2774C139.736 1.85315 95.0682 -14.8528 94.1477 23.8633C93.2272 62.5793 157.738 95.775 159.468 118.734Z" fill="url(#paint15_linear_827_3695)"/>
<path d="M802.707 224.74C802.707 224.74 748.661 284.038 737.142 353.562C725.624 423.088 670.222 418.657 651.408 451.439C632.592 484.221 587.752 486.88 567.201 500.17C546.649 513.46 499.827 490.424 491.784 500.17C483.743 509.916 533.782 524.98 598.693 525.865C663.604 526.75 676.006 476.249 733.598 469.16C791.189 462.072 848.78 437.264 869.158 343.345C889.538 249.428 854.983 199.167 802.707 224.74Z" fill="url(#paint16_linear_827_3695)"/>
<path d="M22.682 248.618C22.682 248.618 76.7279 307.917 88.2473 377.44C99.7654 446.965 155.167 442.534 173.982 475.317C192.796 508.099 237.637 510.758 258.189 524.048C278.74 537.338 325.563 514.302 333.605 524.048C341.647 533.794 291.607 548.857 226.696 549.743C161.785 550.629 149.383 500.126 91.7915 493.038C34.2013 485.95 -23.3915 461.142 -43.7688 367.224C-64.1487 273.306 -29.5933 223.044 22.682 248.618Z" fill="url(#paint17_linear_827_3695)"/>
</g>
<defs>
<linearGradient id="paint0_linear_827_3695" x1="549.64" y1="322.02" x2="560.272" y2="492.131" gradientUnits="userSpaceOnUse">
<stop stop-color="#FCAF17"/>
<stop offset="1" stop-color="#F47920"/>
</linearGradient>
<linearGradient id="paint1_linear_827_3695" x1="146.853" y1="275.988" x2="148.071" y2="264.469" gradientUnits="userSpaceOnUse">
<stop stop-color="#FBC4AF"/>
<stop offset="1" stop-color="#EA8B69"/>
</linearGradient>
<linearGradient id="paint2_linear_827_3695" x1="162.204" y1="272.135" x2="151.572" y2="272.911" gradientUnits="userSpaceOnUse">
<stop stop-color="#FBC4AF"/>
<stop offset="1" stop-color="#EA8B69"/>
</linearGradient>
<linearGradient id="paint3_linear_827_3695" x1="148.285" y1="315.533" x2="158.031" y2="280.535" gradientUnits="userSpaceOnUse">
<stop stop-color="#FBC4AF"/>
<stop offset="1" stop-color="#EA8B69"/>
</linearGradient>
<linearGradient id="paint4_linear_827_3695" x1="537.145" y1="187.217" x2="537.587" y2="177.084" gradientUnits="userSpaceOnUse">
<stop stop-color="#FBC4AF"/>
<stop offset="1" stop-color="#EA8B69"/>
</linearGradient>
<linearGradient id="paint5_linear_827_3695" x1="539.111" y1="191.527" x2="538.779" y2="184.329" gradientUnits="userSpaceOnUse">
<stop stop-color="#FBC4AF"/>
<stop offset="1" stop-color="#EA8B69"/>
</linearGradient>
<linearGradient id="paint6_linear_827_3695" x1="516.894" y1="245.867" x2="524.868" y2="194.036" gradientUnits="userSpaceOnUse">
<stop stop-color="#FBC4AF"/>
<stop offset="1" stop-color="#EA8B69"/>
</linearGradient>
<linearGradient id="paint7_linear_827_3695" x1="561.506" y1="183.35" x2="567.708" y2="216.058" gradientUnits="userSpaceOnUse">
<stop stop-color="#FBC4AF"/>
<stop offset="1" stop-color="#EA8B69"/>
</linearGradient>
<linearGradient id="paint8_linear_827_3695" x1="385.601" y1="135.101" x2="389.479" y2="143.341" gradientUnits="userSpaceOnUse">
<stop stop-color="#FBC4AF"/>
<stop offset="1" stop-color="#EA8B69"/>
</linearGradient>
<linearGradient id="paint9_linear_827_3695" x1="379.722" y1="134.897" x2="389.356" y2="138.939" gradientUnits="userSpaceOnUse">
<stop stop-color="#FBC4AF"/>
<stop offset="1" stop-color="#EA8B69"/>
</linearGradient>
<linearGradient id="paint10_linear_827_3695" x1="385.251" y1="131.796" x2="391.454" y2="144.975" gradientUnits="userSpaceOnUse">
<stop stop-color="#FBC4AF"/>
<stop offset="1" stop-color="#EA8B69"/>
</linearGradient>
<linearGradient id="paint11_linear_827_3695" x1="473.565" y1="144.839" x2="455.956" y2="165.77" gradientUnits="userSpaceOnUse">
<stop stop-color="#FBC4AF"/>
<stop offset="1" stop-color="#EA8B69"/>
</linearGradient>
<linearGradient id="paint12_linear_827_3695" x1="424.315" y1="176.744" x2="422.432" y2="154.815" gradientUnits="userSpaceOnUse">
<stop stop-color="#FBC4AF"/>
<stop offset="1" stop-color="#EA8B69"/>
</linearGradient>
<linearGradient id="paint13_linear_827_3695" x1="421.095" y1="176.915" x2="421.981" y2="171.267" gradientUnits="userSpaceOnUse">
<stop stop-color="#FBC4AF"/>
<stop offset="1" stop-color="#EA8B69"/>
</linearGradient>
<linearGradient id="paint14_linear_827_3695" x1="746.933" y1="55.7024" x2="448.346" y2="124.812" gradientUnits="userSpaceOnUse">
<stop stop-color="white" stop-opacity="0"/>
<stop offset="1" stop-color="#9DC2E7"/>
</linearGradient>
<linearGradient id="paint15_linear_827_3695" x1="154.341" y1="63.7087" x2="379.791" y2="271.318" gradientUnits="userSpaceOnUse">
<stop stop-color="white" stop-opacity="0"/>
<stop offset="1" stop-color="#9DC2E7"/>
</linearGradient>
<linearGradient id="paint16_linear_827_3695" x1="777.991" y1="358.082" x2="349.393" y2="457.283" gradientUnits="userSpaceOnUse">
<stop stop-color="white" stop-opacity="0"/>
<stop offset="1" stop-color="#9DC2E7"/>
</linearGradient>
<linearGradient id="paint17_linear_827_3695" x1="47.3981" y1="381.958" x2="475.997" y2="481.159" gradientUnits="userSpaceOnUse">
<stop stop-color="white" stop-opacity="0"/>
<stop offset="1" stop-color="#9DC2E7"/>
</linearGradient>
<clipPath id="clip0_827_3695">
<rect width="800" height="568.771" fill="white"/>
</clipPath>
</defs>
</svg>
