<svg width="20" height="20" viewBox="0 0 20 20" fill="none" xmlns="http://www.w3.org/2000/svg">
<path opacity="0.5" fill-rule="evenodd" clip-rule="evenodd" d="M18.3334 9.99996C18.3334 14.6023 14.6025 18.3333 10.0001 18.3333C5.39771 18.3333 1.66675 14.6023 1.66675 9.99996C1.66675 5.39759 5.39771 1.66663 10.0001 1.66663C14.6025 1.66663 18.3334 5.39759 18.3334 9.99996Z" fill="#1C274C"/>
<path fill-rule="evenodd" clip-rule="evenodd" d="M7.5 11.0418C7.15482 11.0418 6.875 11.3216 6.875 11.6668C6.875 12.0119 7.15482 12.2918 7.5 12.2918H7.70833V14.1668C7.70833 14.5119 7.98816 14.7918 8.33333 14.7918C8.67851 14.7918 8.95833 14.5119 8.95833 14.1668V12.2918H10C10.3452 12.2918 10.625 12.0119 10.625 11.6668C10.625 11.3216 10.3452 11.0418 10 11.0418H8.95833V10.6251H11.25C12.7458 10.6251 13.9583 9.41253 13.9583 7.91676C13.9583 6.42099 12.7458 5.20843 11.25 5.20843L9.30125 5.2084C9.17998 5.20825 9.05392 5.2081 8.93853 5.22638C8.31452 5.32521 7.82512 5.81462 7.72629 6.43863C7.70801 6.55402 7.70816 6.68008 7.70831 6.80135L7.70833 9.37509H7.5C7.15482 9.37509 6.875 9.65491 6.875 10.0001C6.875 10.3453 7.15482 10.6251 7.5 10.6251H7.70833V11.0418H7.5ZM11.25 9.37509H8.95833V6.83343C8.95833 6.75262 8.95839 6.70452 8.95938 6.66826C8.96001 6.64525 8.96088 6.63525 8.96111 6.63284C8.97564 6.54477 9.04468 6.47573 9.13275 6.46121C9.13516 6.46097 9.14516 6.4601 9.16817 6.45947C9.20443 6.45848 9.25253 6.45843 9.33333 6.45843H11.25C12.0554 6.45843 12.7083 7.11134 12.7083 7.91676C12.7083 8.72217 12.0554 9.37509 11.25 9.37509Z" fill="#1C274C"/>
</svg>
