<svg width="12" height="13" viewBox="0 0 12 13" fill="none" xmlns="http://www.w3.org/2000/svg">
<g opacity="0.5">
<path d="M10.985 9.57882C10.985 9.75882 10.945 9.94382 10.86 10.1238C10.775 10.3038 10.665 10.4738 10.52 10.6338C10.275 10.9038 10.005 11.0988 9.7 11.2238C9.4 11.3488 9.075 11.4138 8.725 11.4138C8.215 11.4138 7.67 11.2938 7.095 11.0488C6.52 10.8038 5.945 10.4738 5.375 10.0588C4.8 9.63882 4.255 9.17382 3.735 8.65882C3.22 8.13882 2.755 7.59382 2.34 7.02382C1.93 6.45382 1.6 5.88382 1.36 5.31882C1.12 4.74882 1 4.20382 1 3.68382C1 3.34382 1.06 3.01882 1.18 2.71882C1.3 2.41382 1.49 2.13382 1.755 1.88382C2.075 1.56882 2.425 1.41382 2.795 1.41382C2.935 1.41382 3.075 1.44382 3.2 1.50382C3.33 1.56382 3.445 1.65382 3.535 1.78382L4.695 3.41882C4.785 3.54382 4.85 3.65882 4.895 3.76882C4.94 3.87382 4.965 3.97882 4.965 4.07382C4.965 4.19382 4.93 4.31382 4.86 4.42882C4.795 4.54382 4.7 4.66382 4.58 4.78382L4.2 5.17882C4.145 5.23382 4.12 5.29882 4.12 5.37882C4.12 5.41882 4.125 5.45382 4.135 5.49382C4.15 5.53382 4.165 5.56382 4.175 5.59382C4.265 5.75882 4.42 5.97382 4.64 6.23382C4.865 6.49382 5.105 6.75882 5.365 7.02382C5.635 7.28882 5.895 7.53382 6.16 7.75882C6.42 7.97882 6.635 8.12882 6.805 8.21882C6.83 8.22882 6.86 8.24382 6.895 8.25882C6.935 8.27382 6.975 8.27882 7.02 8.27882C7.105 8.27882 7.17 8.24882 7.225 8.19382L7.605 7.81882C7.73 7.69382 7.85 7.59882 7.965 7.53882C8.08 7.46882 8.195 7.43382 8.32 7.43382C8.415 7.43382 8.515 7.45382 8.625 7.49882C8.735 7.54382 8.85 7.60882 8.975 7.69382L10.63 8.86882C10.76 8.95882 10.85 9.06382 10.905 9.18882C10.955 9.31382 10.985 9.43882 10.985 9.57882Z" stroke="#292D32" stroke-miterlimit="10"/>
</g>
</svg>
