<svg width="20" height="21" viewBox="0 0 20 21" fill="none" xmlns="http://www.w3.org/2000/svg">
<path fill-rule="evenodd" clip-rule="evenodd" d="M13.5379 7.20021L17.8475 2.89055L17.8454 2.88838C16.856 1.89899 14.9816 2.52376 11.233 3.77332L6.94188 5.20369C3.91635 6.2122 2.40359 6.71645 1.97371 7.4559C1.56475 8.15936 1.56475 9.02816 1.97371 9.73161C2.40359 10.4711 3.91635 10.9753 6.94188 11.9838C7.31684 12.1088 7.73867 12.0196 8.01944 11.7414L12.6075 7.19588C12.8656 6.94016 13.2821 6.9421 13.5379 7.20021Z" fill="#1C274C"/>
<path opacity="0.5" d="M15.5297 13.7912L16.9601 9.50011C18.2088 5.75419 18.8335 3.87987 17.8472 2.88991L13.5375 7.19957C13.7933 7.45769 13.7913 7.87424 13.5332 8.12997L9.01927 12.6021C8.7098 12.9087 8.61184 13.378 8.7496 13.7912C9.7581 16.8167 10.2624 18.3295 11.0018 18.7594C11.7053 19.1684 12.5741 19.1684 13.2775 18.7594C14.017 18.3295 14.5212 16.8167 15.5297 13.7912Z" fill="#1C274C"/>
</svg>
