<svg width="12" height="13" viewBox="0 0 12 13" fill="none" xmlns="http://www.w3.org/2000/svg">
<path d="M9.91523 4.85002L7.65023 2.58502C7.17523 2.11002 6.52023 1.85502 5.85023 1.89002L3.35023 2.01002C2.35023 2.05502 1.55523 2.85002 1.50523 3.84502L1.38523 6.34502C1.35523 7.01502 1.60523 7.67002 2.08023 8.14502L4.34523 10.41C5.27523 11.34 6.78523 11.34 7.72023 10.41L9.91523 8.21502C10.8502 7.29002 10.8502 5.78002 9.91523 4.85002ZM4.75023 6.69002C3.95523 6.69002 3.31023 6.04502 3.31023 5.25002C3.31023 4.45502 3.95523 3.81002 4.75023 3.81002C5.54523 3.81002 6.19023 4.45502 6.19023 5.25002C6.19023 6.04502 5.54523 6.69002 4.75023 6.69002Z" fill="#5667FD"/>
</svg>
