<svg width="16" height="15" viewBox="0 0 16 15" fill="none" xmlns="http://www.w3.org/2000/svg">
<g opacity="0.4">
<g opacity="0.5">
<path d="M15.1861 7.60843C15.1861 11.3559 12.1481 14.3939 8.40066 14.3939C4.65318 14.3939 1.61523 11.3559 1.61523 7.60843C1.61523 3.86094 4.65318 0.822998 8.40066 0.822998C12.1481 0.822998 15.1861 3.86094 15.1861 7.60843Z" stroke="black"/>
<path d="M4.23854 7.44898C4.23854 7.44898 7.84737 5.91367 9.09897 5.37305C9.57877 5.15681 11.2059 4.46482 11.2059 4.46482C11.2059 4.46482 11.9568 4.16209 11.8943 4.89731C11.8734 5.20006 11.7065 6.25964 11.5396 7.40574C11.2893 9.02758 11.0181 10.8008 11.0181 10.8008C11.0181 10.8008 10.9764 11.2981 10.6218 11.3846C10.2672 11.4711 9.68305 11.0819 9.57877 10.9954C9.4953 10.9305 8.01424 9.95741 7.47188 9.48168C7.32585 9.35194 7.15898 9.09246 7.49272 8.78971C8.2437 8.0761 9.14068 7.18951 9.68305 6.62728C9.93339 6.36777 10.1837 5.76229 9.14068 6.49751C7.65962 7.55711 6.1994 8.55184 6.1994 8.55184C6.1994 8.55184 5.86563 8.76807 5.23983 8.57344C4.614 8.37885 3.88389 8.11934 3.88389 8.11934C3.88389 8.11934 3.38327 7.79498 4.23854 7.44898Z" fill="black"/>
</g>
</g>
</svg>
