<svg width="24" height="24" viewBox="0 0 24 24" fill="none" xmlns="http://www.w3.org/2000/svg">
<g clip-path="url(#clip0_117_4015)">
<path fill-rule="evenodd" clip-rule="evenodd" d="M3 5C3 4.44772 3.44772 4 4 4H20C20.5523 4 21 4.44772 21 5C21 5.55228 20.5523 6 20 6H4C3.44772 6 3 5.55228 3 5ZM3 12C3 11.4477 3.44772 11 4 11H20C20.5523 11 21 11.4477 21 12C21 12.5523 20.5523 13 20 13H4C3.44772 13 3 12.5523 3 12ZM3 19C3 18.4477 3.44772 18 4 18H16C16.5523 18 17 18.4477 17 19C17 19.5523 16.5523 20 16 20H4C3.44772 20 3 19.5523 3 19Z" fill="#CCCCCC"/>
</g>
<defs>
<clipPath id="clip0_117_4015">
<rect width="24" height="24" fill="white"/>
</clipPath>
</defs>
</svg>
