<svg width="12" height="12" viewBox="0 0 12 12" fill="none" xmlns="http://www.w3.org/2000/svg">
<path d="M4.18945 6.00004L5.39445 7.21004L7.80945 4.79004" stroke="#219653" stroke-linecap="round" stroke-linejoin="round"/>
<path d="M5.37445 1.22503C5.71945 0.930034 6.28445 0.930034 6.63445 1.22503L7.42445 1.90503C7.57445 2.03503 7.85445 2.14003 8.05445 2.14003H8.90445C9.43445 2.14003 9.86945 2.57503 9.86945 3.10503V3.95503C9.86945 4.15003 9.97445 4.43503 10.1045 4.58503L10.7845 5.37503C11.0795 5.72003 11.0795 6.28503 10.7845 6.63503L10.1045 7.42503C9.97445 7.57503 9.86945 7.85503 9.86945 8.05503V8.90503C9.86945 9.43503 9.43445 9.87003 8.90445 9.87003H8.05445C7.85945 9.87003 7.57445 9.97503 7.42445 10.105L6.63445 10.785C6.28945 11.08 5.72445 11.08 5.37445 10.785L4.58445 10.105C4.43445 9.97503 4.15445 9.87003 3.95445 9.87003H3.08945C2.55945 9.87003 2.12445 9.43503 2.12445 8.90503V8.05003C2.12445 7.85503 2.01945 7.57503 1.89445 7.42503L1.21945 6.63003C0.929453 6.28503 0.929453 5.72503 1.21945 5.38003L1.89445 4.58503C2.01945 4.43503 2.12445 4.15503 2.12445 3.96003V3.10003C2.12445 2.57003 2.55945 2.13503 3.08945 2.13503H3.95445C4.14945 2.13503 4.43445 2.03003 4.58445 1.90003L5.37445 1.22503Z" stroke="#219653" stroke-linecap="round" stroke-linejoin="round"/>
</svg>
