<svg width="30" height="30" viewBox="0 0 30 30" fill="none" xmlns="http://www.w3.org/2000/svg">
<path d="M15.6629 9.33709L20.6629 14.3371C20.846 14.5201 20.9375 14.7601 20.9375 15C20.9375 15.1271 20.9122 15.2483 20.8664 15.3589C20.8206 15.4694 20.7528 15.573 20.6629 15.6629L15.6629 20.6629C15.2968 21.029 14.7032 21.029 14.3371 20.6629C13.971 20.2968 13.971 19.7032 14.3371 19.3371L17.7367 15.9375H10C9.48223 15.9375 9.0625 15.5178 9.0625 15C9.0625 14.4822 9.48223 14.0625 10 14.0625H17.7367L14.3371 10.6629C13.971 10.2968 13.971 9.7032 14.3371 9.33709C14.7032 8.97097 15.2968 8.97097 15.6629 9.33709Z" fill="#ABB9E0" style="fill:#ABB9E0;fill:color(display-p3 0.6706 0.7255 0.8784);fill-opacity:1;"/>
<path fill-rule="evenodd" clip-rule="evenodd" d="M1.5625 15C1.5625 7.57867 7.57867 1.5625 15 1.5625C22.4213 1.5625 28.4375 7.57867 28.4375 15C28.4375 22.4213 22.4213 28.4375 15 28.4375C7.57867 28.4375 1.5625 22.4213 1.5625 15ZM15 3.4375C8.61421 3.4375 3.4375 8.61421 3.4375 15C3.4375 21.3858 8.61421 26.5625 15 26.5625C21.3858 26.5625 26.5625 21.3858 26.5625 15C26.5625 8.61421 21.3858 3.4375 15 3.4375Z" fill="#ABB9E0" style="fill:#ABB9E0;fill:color(display-p3 0.6706 0.7255 0.8784);fill-opacity:1;"/>
</svg>
