<svg width="52" height="53" viewBox="0 0 52 53" fill="none" xmlns="http://www.w3.org/2000/svg">
<path d="M27.6251 9.03671C29.7917 7.47671 32.3051 6.69671 35.1434 6.69671C36.7034 6.69671 38.4151 7.10838 40.2784 7.97505C42.1417 8.82005 43.6151 9.81671 44.6984 10.965C46.9301 13.7384 47.8617 16.9667 47.5367 20.65C47.1901 24.3334 45.9767 27.215 43.8751 29.2517L27.4301 45.6967C27.0184 46.1084 26.4984 46.3034 25.8917 46.3034C25.2851 46.3034 24.7867 46.1084 24.3751 45.6967C24.175 45.4993 24.0178 45.2627 23.9134 45.0017C23.809 44.7407 23.7596 44.461 23.7684 44.18C23.7684 43.5734 23.9634 43.0534 24.3751 42.6417L34.3201 32.6967C34.8617 32.22 34.8617 31.7217 34.3201 31.18C33.7784 30.6384 33.2801 30.6384 32.8034 31.18L22.8584 41.125C22.6579 41.327 22.4176 41.4852 22.1528 41.5897C21.8881 41.6941 21.6045 41.7425 21.3201 41.7317C20.7134 41.7317 20.2151 41.5367 19.8034 41.125C19.6033 40.9276 19.4461 40.691 19.3417 40.4301C19.2373 40.1691 19.188 39.8893 19.1967 39.6084C19.1967 39.0017 19.3917 38.4817 19.8034 38.07L29.7484 28.125C30.3334 27.5834 30.3334 27.0417 29.7484 26.5C29.2501 25.9584 28.7734 25.9584 28.2317 26.5L18.2867 36.5534C18.0839 36.7523 17.8433 36.9084 17.579 37.0126C17.3148 37.1168 17.0324 37.167 16.7484 37.16C16.1417 37.16 15.6217 36.965 15.1667 36.5534C14.7334 36.1417 14.5167 35.6434 14.5167 35.0367C14.5167 34.43 14.7551 33.8884 15.2317 33.4117L25.1984 23.445C25.7401 22.9034 25.7401 22.405 25.1984 21.9284C24.6567 21.4517 24.1367 21.4517 23.6601 21.9284L13.6067 31.9167C13.1301 32.35 12.6317 32.5884 12.0901 32.5884C11.4834 32.5884 10.9634 32.3717 10.5734 31.9167C10.1617 31.4834 9.94506 30.9634 9.94506 30.3567C9.94506 29.75 10.1617 29.2517 10.5734 28.84C17.2034 22.1667 21.2984 18.1367 22.8584 16.6417L30.5717 24.2684C31.4167 25.07 32.3917 25.4817 33.5834 25.4817C35.1001 25.4817 36.2917 24.875 37.1801 23.6617C37.7867 22.7734 38.0034 21.7984 37.8301 20.715C37.6567 19.6317 37.2017 18.7217 36.4651 17.9634L27.6251 9.03671ZM32.0884 22.7517L22.8584 13.5L7.5184 28.84C5.6984 26.9984 4.6584 24.1817 4.42006 20.3467C4.18173 16.5334 5.22173 13.2184 7.5184 10.445C10.0967 7.88838 13.1734 6.58838 16.7484 6.58838C20.3451 6.58838 23.4001 7.88838 25.8917 10.445L35.1434 19.6967C35.5551 20.1084 35.7501 20.6067 35.7501 21.2134C35.7501 21.82 35.5551 22.34 35.1434 22.7517C34.7317 23.1417 34.2334 23.3584 33.5834 23.3584C32.9984 23.3584 32.5001 23.1417 32.0884 22.7517Z" fill="#E83B43" style="fill:#E83B43;fill:color(display-p3 0.9098 0.2314 0.2627);fill-opacity:1;"/>
</svg>
