<svg width="48" height="48" viewBox="0 0 48 48" fill="none" xmlns="http://www.w3.org/2000/svg">
<path d="M18.7276 34.6875C18.662 34.9556 16.9782 41.25 7.50011 41.25C7.3012 41.25 7.11043 41.171 6.96978 41.0303C6.82913 40.8896 6.75011 40.6989 6.75011 40.5C6.75011 31.0237 13.0501 29.3381 13.3126 29.2725C13.5056 29.2227 13.7104 29.2517 13.8819 29.353C14.0535 29.4542 14.1779 29.6195 14.2276 29.8125C14.2773 30.0054 14.2484 30.2102 14.1471 30.3818C14.0458 30.5534 13.8806 30.6777 13.6876 30.7275C13.4776 30.7818 8.58198 32.1506 8.27073 39.7275C15.8551 39.4162 17.2239 34.5225 17.2801 34.3068C17.3298 34.1142 17.4541 33.9491 17.6255 33.848C17.7969 33.7469 18.0015 33.7181 18.1942 33.7678C18.3869 33.8175 18.5519 33.9418 18.653 34.1132C18.7541 34.2846 18.783 34.4892 18.7332 34.6818L18.7276 34.6875ZM36.3751 21.6956L35.2501 22.8093V34.0593C35.2509 34.3549 35.1929 34.6476 35.0796 34.9206C34.9663 35.1935 34.7999 35.4412 34.5901 35.6493L28.1514 42.09C27.8559 42.3857 27.4839 42.5933 27.0771 42.6895C26.6702 42.7856 26.2446 42.7666 25.848 42.6344C25.4514 42.5022 25.0995 42.2621 24.8317 41.941C24.5639 41.62 24.3909 41.2307 24.332 40.8168L23.2914 33.3525L14.6476 24.7068L7.18699 23.6662C6.77279 23.6079 6.38306 23.4353 6.06154 23.1677C5.74002 22.9002 5.49945 22.5483 5.36682 22.1516C5.2342 21.7549 5.21479 21.3291 5.31075 20.922C5.40672 20.5149 5.61427 20.1425 5.91011 19.8468L12.3507 13.4081C12.559 13.1986 12.8068 13.0326 13.0797 12.9196C13.3527 12.8066 13.6453 12.749 13.9407 12.75H25.1907L26.3045 11.6362C31.0914 6.84935 36.8607 6.64497 39.1201 6.7781C39.6667 6.81261 40.182 7.04533 40.5693 7.43263C40.9566 7.81993 41.1893 8.33521 41.2239 8.88185C41.357 11.1393 41.1526 16.9087 36.3751 21.6956ZM7.39511 22.1812L14.7339 23.205L23.6907 14.25H13.9407C13.7421 14.2508 13.552 14.3304 13.412 14.4712L6.97136 20.9081C6.87278 21.0065 6.80358 21.1305 6.77149 21.2661C6.73941 21.4016 6.74572 21.5435 6.78972 21.6756C6.83371 21.8078 6.91366 21.9251 7.02059 22.0144C7.12751 22.1037 7.2572 22.1615 7.39511 22.1812ZM33.7501 24.3093L24.7932 33.2662L25.817 40.6068C25.837 40.7446 25.895 40.8741 25.9844 40.9808C26.0738 41.0874 26.1911 41.1671 26.3233 41.2109C26.4554 41.2547 26.5971 41.2608 26.7326 41.2287C26.868 41.1965 26.9918 41.1273 27.0901 41.0287L33.5307 34.59C33.6004 34.5203 33.6556 34.4375 33.6932 34.3465C33.7309 34.2554 33.7502 34.1579 33.7501 34.0593V24.3093ZM35.3026 20.6362C39.6582 16.2787 39.8457 11.025 39.7239 8.96997C39.714 8.78869 39.6375 8.61745 39.5091 8.48908C39.3808 8.3607 39.2095 8.28424 39.0282 8.27435C36.9657 8.15247 31.7157 8.3381 27.362 12.6956L26.0289 14.0287L16.0614 24L24.0001 31.9387L33.9714 21.9693L35.3026 20.6362Z" fill="#E83B43" style="fill:#E83B43;fill:color(display-p3 0.9098 0.2314 0.2627);fill-opacity:1;"/>
</svg>
