<svg width="48" height="48" viewBox="0 0 48 48" fill="none" xmlns="http://www.w3.org/2000/svg">
<path d="M32.25 43.5C32.25 43.6989 32.171 43.8897 32.0303 44.0303C31.8897 44.171 31.6989 44.25 31.5 44.25H16.5C16.3011 44.25 16.1103 44.171 15.9697 44.0303C15.829 43.8897 15.75 43.6989 15.75 43.5C15.75 43.3011 15.829 43.1103 15.9697 42.9697C16.1103 42.829 16.3011 42.75 16.5 42.75H31.5C31.6989 42.75 31.8897 42.829 32.0303 42.9697C32.171 43.1103 32.25 43.3011 32.25 43.5ZM39.75 19.5C39.7558 21.8867 39.2164 24.2433 38.173 26.3898C37.1296 28.5364 35.6098 30.4164 33.7294 31.8863C33.2711 32.2385 32.8995 32.691 32.643 33.2091C32.3866 33.7271 32.2522 34.297 32.25 34.875V36C32.25 36.5967 32.0129 37.169 31.591 37.591C31.169 38.013 30.5967 38.25 30 38.25H18C17.4033 38.25 16.831 38.013 16.409 37.591C15.987 37.169 15.75 36.5967 15.75 36V34.875C15.7498 34.3026 15.6186 33.7379 15.3664 33.224C15.1142 32.7102 14.7477 32.2609 14.295 31.9106C12.4185 30.4499 10.899 28.5813 9.8517 26.4464C8.80437 24.3114 8.25663 21.9661 8.24999 19.5881C8.20312 11.0625 15.0975 3.95438 23.625 3.75001C25.7247 3.7 27.8131 4.07044 29.7675 4.83954C31.7219 5.60863 33.5027 6.76084 35.0051 8.22837C36.5076 9.6959 37.7014 11.4491 38.5163 13.3849C39.3311 15.3206 39.7506 17.3998 39.75 19.5ZM38.25 19.5C38.2506 17.5993 37.8708 15.7177 37.1332 13.9659C36.3956 12.2141 35.315 10.6276 33.955 9.29977C32.595 7.97193 30.9832 6.92958 29.2142 6.23408C27.4453 5.53858 25.5552 5.20399 23.655 5.25001C15.9375 5.43751 9.70687 11.8631 9.74999 19.5806C9.75689 21.7312 10.2529 23.852 11.2005 25.7825C12.148 27.7131 13.5223 29.4028 15.2194 30.7238C15.8521 31.2149 16.364 31.8444 16.716 32.5639C17.068 33.2835 17.2506 34.074 17.25 34.875V36C17.25 36.1989 17.329 36.3897 17.4697 36.5303C17.6103 36.671 17.8011 36.75 18 36.75H23.25V27.3113L17.4694 21.5306C17.3286 21.3899 17.2496 21.199 17.2496 21C17.2496 20.801 17.3286 20.6101 17.4694 20.4694C17.6101 20.3287 17.801 20.2496 18 20.2496C18.199 20.2496 18.3899 20.3287 18.5306 20.4694L24 25.9388L29.4694 20.4694C29.5391 20.3997 29.6218 20.3444 29.7128 20.3067C29.8039 20.269 29.9014 20.2496 30 20.2496C30.0985 20.2496 30.1961 20.269 30.2872 20.3067C30.3782 20.3444 30.4609 20.3997 30.5306 20.4694C30.6003 20.5391 30.6556 20.6218 30.6933 20.7128C30.731 20.8039 30.7504 20.9015 30.7504 21C30.7504 21.0986 30.731 21.1961 30.6933 21.2872C30.6556 21.3782 30.6003 21.461 30.5306 21.5306L24.75 27.3113V36.75H30C30.1989 36.75 30.3897 36.671 30.5303 36.5303C30.671 36.3897 30.75 36.1989 30.75 36V34.875C30.752 34.0707 30.9379 33.2776 31.2934 32.5561C31.649 31.8347 32.1647 31.2041 32.8012 30.7125C34.5037 29.3822 35.8797 27.6805 36.824 25.7372C37.7683 23.7939 38.2561 21.6606 38.25 19.5Z" fill="#E83B43" style="fill:#E83B43;fill:color(display-p3 0.9098 0.2314 0.2627);fill-opacity:1;"/>
</svg>
