<svg width="48" height="48" viewBox="0 0 48 48" fill="none" xmlns="http://www.w3.org/2000/svg">
<path d="M5.55 23.1C5.6288 23.1591 5.71846 23.2021 5.81387 23.2266C5.90928 23.251 6.00857 23.2564 6.10607 23.2425C6.20357 23.2286 6.29737 23.1956 6.38212 23.1454C6.46687 23.0952 6.54091 23.0288 6.6 22.95C7.57805 21.646 8.84628 20.5875 10.3043 19.8585C11.7622 19.1295 13.3699 18.75 15 18.75C16.6301 18.75 18.2378 19.1295 19.6957 19.8585C21.1537 20.5875 22.422 21.646 23.4 22.95C23.4683 23.0449 23.5581 23.1221 23.6621 23.1754C23.7661 23.2287 23.8813 23.2565 23.9981 23.2565C24.115 23.2565 24.2302 23.2287 24.3342 23.1754C24.4382 23.1221 24.528 23.0449 24.5963 22.95C25.5743 21.646 26.8425 20.5875 28.3005 19.8585C29.7585 19.1295 31.3662 18.75 32.9963 18.75C34.6263 18.75 36.234 19.1295 37.692 19.8585C39.15 20.5875 40.4182 21.646 41.3963 22.95C41.4553 23.0288 41.5294 23.0952 41.6141 23.1454C41.6989 23.1956 41.7927 23.2286 41.8902 23.2425C41.9877 23.2564 42.087 23.251 42.1824 23.2266C42.2778 23.2021 42.3675 23.1591 42.4463 23.1C42.525 23.0409 42.5914 22.9669 42.6416 22.8821C42.6918 22.7974 42.7248 22.7036 42.7387 22.6061C42.7526 22.5086 42.7472 22.4093 42.7228 22.3139C42.6983 22.2185 42.6553 22.1288 42.5963 22.05C41.0751 20.0074 38.9394 18.5058 36.5025 17.7656C37.7611 17.0006 38.7348 15.8449 39.2753 14.4748C39.8158 13.1047 39.8933 11.5954 39.4961 10.1771C39.0988 8.75888 38.2486 7.50947 37.0751 6.61947C35.9015 5.72948 34.4691 5.24774 32.9963 5.24774C31.5234 5.24774 30.091 5.72948 28.9174 6.61947C27.7439 7.50947 26.8937 8.75888 26.4964 10.1771C26.0992 11.5954 26.1767 13.1047 26.7172 14.4748C27.2577 15.8449 28.2314 17.0006 29.49 17.7656C27.3613 18.4154 25.4578 19.6497 23.9963 21.3281C22.535 19.6493 20.6314 18.4149 18.5025 17.7656C19.7611 17.0006 20.7348 15.8449 21.2753 14.4748C21.8158 13.1047 21.8933 11.5954 21.4961 10.1771C21.0988 8.75888 20.2486 7.50947 19.0751 6.61947C17.9015 5.72948 16.4691 5.24774 14.9963 5.24774C13.5234 5.24774 12.091 5.72948 10.9174 6.61947C9.7439 7.50947 8.89367 8.75888 8.49641 10.1771C8.09916 11.5954 8.17669 13.1047 8.71718 14.4748C9.25767 15.8449 10.2314 17.0006 11.49 17.7656C9.0548 18.5073 6.92077 20.0086 5.4 22.05C5.34091 22.1288 5.29791 22.2185 5.27347 22.3139C5.24902 22.4093 5.24361 22.5086 5.25754 22.6061C5.27147 22.7036 5.30447 22.7974 5.35465 22.8821C5.40483 22.9669 5.47121 23.0409 5.55 23.1ZM27.75 12C27.75 10.9617 28.0579 9.94663 28.6348 9.08328C29.2117 8.21992 30.0316 7.54701 30.9909 7.14965C31.9502 6.75229 33.0058 6.64833 34.0242 6.8509C35.0426 7.05347 35.9781 7.55348 36.7123 8.28771C37.4465 9.02194 37.9466 9.9574 38.1491 10.9758C38.3517 11.9942 38.2477 13.0498 37.8504 14.0091C37.453 14.9684 36.7801 15.7884 35.9167 16.3652C35.0534 16.9421 34.0384 17.25 33 17.25C31.6076 17.25 30.2723 16.6969 29.2877 15.7123C28.3031 14.7278 27.75 13.3924 27.75 12ZM9.75 12C9.75 10.9617 10.0579 9.94663 10.6348 9.08328C11.2117 8.21992 12.0316 7.54701 12.9909 7.14965C13.9502 6.75229 15.0058 6.64833 16.0242 6.8509C17.0426 7.05347 17.9781 7.55348 18.7123 8.28771C19.4465 9.02194 19.9466 9.9574 20.1491 10.9758C20.3517 11.9942 20.2477 13.0498 19.8504 14.0091C19.453 14.9684 18.7801 15.7884 17.9167 16.3652C17.0534 16.9421 16.0384 17.25 15 17.25C13.6076 17.25 12.2723 16.6969 11.2877 15.7123C10.3031 14.7278 9.75 13.3924 9.75 12ZM36.5063 37.2656C37.7648 36.5006 38.7386 35.3449 39.2791 33.9748C39.8196 32.6047 39.8971 31.0954 39.4998 29.6771C39.1026 28.2589 38.2524 27.0095 37.0788 26.1195C35.9053 25.2295 34.4729 24.7477 33 24.7477C31.5272 24.7477 30.0947 25.2295 28.9212 26.1195C27.7477 27.0095 26.8974 28.2589 26.5002 29.6771C26.1029 31.0954 26.1804 32.6047 26.7209 33.9748C27.2614 35.3449 28.2352 36.5006 29.4938 37.2656C27.3662 37.9128 25.4628 39.1438 24 40.8188C22.5375 39.1434 20.6341 37.9123 18.5063 37.2656C19.7648 36.5006 20.7386 35.3449 21.2791 33.9748C21.8196 32.6047 21.8971 31.0954 21.4998 29.6771C21.1026 28.2589 20.2524 27.0095 19.0788 26.1195C17.9053 25.2295 16.4729 24.7477 15 24.7477C13.5272 24.7477 12.0947 25.2295 10.9212 26.1195C9.74765 27.0095 8.89742 28.2589 8.50016 29.6771C8.10291 31.0954 8.18044 32.6047 8.72093 33.9748C9.26142 35.3449 10.2352 36.5006 11.4938 37.2656C9.05718 38.0065 6.92174 39.5079 5.4 41.55C5.28066 41.7091 5.22941 41.9092 5.25754 42.1061C5.28567 42.303 5.39087 42.4807 5.55 42.6C5.70913 42.7194 5.90916 42.7706 6.10607 42.7425C6.30298 42.7144 6.48066 42.6091 6.6 42.45C7.57805 41.146 8.84628 40.0875 10.3043 39.3585C11.7622 38.6295 13.3699 38.25 15 38.25C16.6301 38.25 18.2378 38.6295 19.6957 39.3585C21.1537 40.0875 22.422 41.146 23.4 42.45C23.4683 42.5449 23.5581 42.6221 23.6621 42.6754C23.7661 42.7287 23.8813 42.7565 23.9981 42.7565C24.115 42.7565 24.2302 42.7287 24.3342 42.6754C24.4382 42.6221 24.528 42.5449 24.5963 42.45C25.5743 41.146 26.8425 40.0875 28.3005 39.3585C29.7585 38.6295 31.3662 38.25 32.9963 38.25C34.6263 38.25 36.234 38.6295 37.692 39.3585C39.15 40.0875 40.4182 41.146 41.3963 42.45C41.5156 42.6091 41.6933 42.7144 41.8902 42.7425C42.0871 42.7706 42.2871 42.7194 42.4463 42.6C42.6054 42.4807 42.7106 42.303 42.7387 42.1061C42.7668 41.9092 42.7156 41.7091 42.5963 41.55C41.076 39.508 38.9418 38.0065 36.5063 37.2656ZM9.75 31.5C9.75 30.4617 10.0579 29.4466 10.6348 28.5833C11.2117 27.7199 12.0316 27.047 12.9909 26.6497C13.9502 26.2523 15.0058 26.1483 16.0242 26.3509C17.0426 26.5535 17.9781 27.0535 18.7123 27.7877C19.4465 28.5219 19.9466 29.4574 20.1491 30.4758C20.3517 31.4942 20.2477 32.5498 19.8504 33.5091C19.453 34.4684 18.7801 35.2884 17.9167 35.8652C17.0534 36.4421 16.0384 36.75 15 36.75C13.6076 36.75 12.2723 36.1969 11.2877 35.2123C10.3031 34.2278 9.75 32.8924 9.75 31.5ZM27.75 31.5C27.75 30.4617 28.0579 29.4466 28.6348 28.5833C29.2117 27.7199 30.0316 27.047 30.9909 26.6497C31.9502 26.2523 33.0058 26.1483 34.0242 26.3509C35.0426 26.5535 35.9781 27.0535 36.7123 27.7877C37.4465 28.5219 37.9466 29.4574 38.1491 30.4758C38.3517 31.4942 38.2477 32.5498 37.8504 33.5091C37.453 34.4684 36.7801 35.2884 35.9167 35.8652C35.0534 36.4421 34.0384 36.75 33 36.75C31.6076 36.75 30.2723 36.1969 29.2877 35.2123C28.3031 34.2278 27.75 32.8924 27.75 31.5Z" fill="#E83B43" style="fill:#E83B43;fill:color(display-p3 0.9098 0.2314 0.2627);fill-opacity:1;"/>
</svg>
