<svg width="48" height="48" viewBox="0 0 48 48" fill="none" xmlns="http://www.w3.org/2000/svg">
<path d="M41.8125 19.7962C41.0625 19.0087 40.275 18.195 39.9375 17.3962C39.6281 16.6462 39.6131 15.6094 39.5962 14.5069C39.57 12.8194 39.5419 10.9087 38.3156 9.68062C37.0894 8.45249 35.1769 8.42624 33.4894 8.39999C32.3869 8.38311 31.3462 8.36811 30.6 8.05874C29.8012 7.72874 28.9875 6.94686 28.2 6.19311C26.9475 4.99124 25.6519 3.75562 23.9962 3.75562C22.3406 3.75562 21.045 4.99686 19.7925 6.19311C19.005 6.94311 18.1912 7.73061 17.3925 8.06811C16.6425 8.37749 15.6056 8.39249 14.5031 8.40936C12.8156 8.43561 10.905 8.46374 9.67686 9.68999C8.44874 10.9162 8.42624 12.8194 8.39999 14.5069C8.38311 15.6094 8.36811 16.65 8.05874 17.3962C7.72874 18.195 6.94686 19.0087 6.19311 19.7962C4.99124 21.0487 3.75562 22.3444 3.75562 24C3.75562 25.6556 4.99686 26.9512 6.19311 28.2037C6.94311 28.9912 7.73061 29.805 8.06811 30.6037C8.37749 31.3537 8.39249 32.3906 8.40936 33.4931C8.43561 35.1806 8.46374 37.0912 9.68999 38.3194C10.9162 39.5475 12.8287 39.5737 14.5162 39.6C15.6187 39.6169 16.6594 39.6319 17.4056 39.9412C18.2044 40.2712 19.0181 41.0531 19.8056 41.8069C21.0581 43.0087 22.3537 44.2444 24.0094 44.2444C25.665 44.2444 26.9606 43.0031 28.2131 41.8069C29.0006 41.0569 29.8144 40.2694 30.6131 39.9319C31.3631 39.6225 32.4 39.6075 33.5025 39.5906C35.19 39.5644 37.1006 39.5362 38.3287 38.31C39.5569 37.0837 39.5831 35.1712 39.6094 33.4837C39.6262 32.3812 39.6412 31.3406 39.9506 30.5944C40.2806 29.7956 41.0625 28.9819 41.8162 28.1944C43.0181 26.9419 44.2537 25.6462 44.2537 23.9906C44.2537 22.335 43.0087 21.0487 41.8125 19.7962ZM40.7287 27.165C39.8775 28.0519 38.9962 28.9706 38.5594 30.03C38.1412 31.0406 38.1225 32.28 38.1037 33.4706C38.0812 35.0081 38.0587 36.4706 37.2619 37.2581C36.465 38.0456 35.0119 38.0775 33.4744 38.1C32.28 38.1187 31.0369 38.1375 30.0337 38.5556C28.9744 38.9925 28.0556 39.8681 27.1687 40.725C26.0794 41.7656 25.0537 42.75 24 42.75C22.9462 42.75 21.9206 41.7656 20.835 40.725C19.9481 39.8737 19.0294 38.9925 17.97 38.5556C16.9594 38.1375 15.72 38.1187 14.5294 38.1C12.9919 38.0775 11.5387 38.055 10.7419 37.2581C9.94499 36.4612 9.92249 35.0081 9.89999 33.4706C9.88124 32.2762 9.86249 31.0331 9.44436 30.03C9.00749 28.9706 8.13186 28.0519 7.27499 27.165C6.23436 26.0794 5.24999 25.0537 5.24999 24C5.24999 22.9462 6.23436 21.9206 7.27499 20.835C8.12624 19.9481 9.00749 19.0294 9.44436 17.97C9.86249 16.9594 9.88124 15.72 9.89999 14.5294C9.92249 12.9919 9.94499 11.5387 10.7419 10.7419C11.5387 9.94499 12.9919 9.92249 14.5294 9.89999C15.7237 9.88124 16.9669 9.86249 17.97 9.44437C19.0294 9.00749 19.9481 8.13187 20.835 7.27499C21.9206 6.23436 22.9462 5.24999 24 5.24999C25.0537 5.24999 26.0794 6.23436 27.165 7.27499C28.0519 8.12624 28.9706 9.00749 30.03 9.44437C31.0406 9.86249 32.28 9.88124 33.4706 9.89999C35.0081 9.92249 36.4706 9.94499 37.2581 10.7419C38.0456 11.5387 38.0775 12.9919 38.1 14.5294C38.1187 15.7237 38.1375 16.9669 38.5556 17.97C38.9925 19.0294 39.8681 19.9481 40.725 20.835C41.7656 21.9206 42.75 22.9462 42.75 24C42.75 25.0537 41.7656 26.0794 40.725 27.165H40.7287ZM32.0344 18.9694C32.1041 19.039 32.1594 19.1217 32.1972 19.2128C32.2349 19.3038 32.2543 19.4014 32.2543 19.5C32.2543 19.5986 32.2349 19.6961 32.1972 19.7872C32.1594 19.8782 32.1041 19.961 32.0344 20.0306L21.5344 30.5306C21.4647 30.6003 21.382 30.6557 21.2909 30.6934C21.1999 30.7312 21.1023 30.7506 21.0037 30.7506C20.9052 30.7506 20.8076 30.7312 20.7165 30.6934C20.6255 30.6557 20.5428 30.6003 20.4731 30.5306L15.9731 26.0306C15.8324 25.8899 15.7533 25.699 15.7533 25.5C15.7533 25.301 15.8324 25.1101 15.9731 24.9694C16.1138 24.8286 16.3047 24.7496 16.5037 24.7496C16.7028 24.7496 16.8936 24.8286 17.0344 24.9694L21 28.9387L30.9694 18.9694C31.039 18.8996 31.1217 18.8443 31.2128 18.8066C31.3038 18.7688 31.4014 18.7494 31.5 18.7494C31.5986 18.7494 31.6961 18.7688 31.7872 18.8066C31.8782 18.8443 31.961 18.8996 32.0306 18.9694H32.0344Z" fill="#E83B43" style="fill:#E83B43;fill:color(display-p3 0.9098 0.2314 0.2627);fill-opacity:1;"/>
</svg>
