<svg width="52" height="84" viewBox="0 0 52 84" fill="none" xmlns="http://www.w3.org/2000/svg">
<path fill-rule="evenodd" clip-rule="evenodd" d="M19.4239 41.6976C17.4548 42.2592 16.4712 42.0915 15.7716 41.1425C15.3116 40.51 15.3116 40.51 15.5346 37.4571C14.7477 38.6303 13.9283 39.5646 13.09 40.4986C11.8807 41.8639 10.3448 42.5814 8.46266 42.6689C5.91536 42.7785 4.54356 41.339 5.59449 38.6152C6.6049 36.0004 10.7845 34.2965 12.8863 34.5617C13.8333 34.6737 14.6405 35.0757 14.9937 36.2186C15.1688 35.8447 15.3564 35.479 15.542 35.1171C16.373 33.4969 17.1642 31.9544 16.6174 30.1016C16.072 28.2404 14.4605 27.3084 12.8275 26.4857C12.2455 26.1985 11.8341 26.7389 11.5391 27.1719C11.4528 27.3045 11.3672 27.4377 11.2814 27.5711C10.7019 28.4724 10.1193 29.3784 9.32438 30.1268C9.29089 30.159 9.25726 30.192 9.22344 30.2251C8.80635 30.6338 8.35821 31.0729 7.73787 30.5685C7.16011 30.0983 7.22534 28.9279 7.73035 28.4444C8.66232 27.5674 9.59387 26.7087 10.7654 26.1481C11.0725 26.0083 11.2307 25.7371 11.3514 25.4467C11.4501 25.2302 11.5527 25.0163 11.6552 24.8029C12.0934 23.8904 12.5282 22.985 12.6303 21.9039C12.6687 21.5436 12.7691 21.1846 12.871 20.82C13.0275 20.2604 13.1877 19.6877 13.1329 19.0768C13.1043 18.6733 13.0179 18.3052 12.8366 17.9351C12.3838 16.9915 11.8187 16.7962 10.8771 17.2702C9.33943 18.0608 8.38208 19.212 7.88606 20.9407L7.83376 21.1192C7.37654 22.6802 6.91507 24.2557 6.34914 25.7779C5.36288 28.4306 4.62459 31.1422 3.88728 33.8501C3.7613 34.3128 3.63534 34.7754 3.50819 35.2376C3.07166 36.8578 2.42763 38.4185 1.72707 39.9597C1.56713 40.3041 1.38735 40.6847 0.898096 40.491C0.389866 40.2969 0.456182 39.8955 0.617405 39.4962L0.666264 39.3794C1.45424 37.4956 2.23599 35.6266 2.72864 33.6461C3.1027 32.1593 3.57815 30.6961 4.05269 29.2357C4.56045 27.673 5.06721 26.1134 5.44761 24.5316C5.71502 23.4243 6.09517 22.3652 6.47515 21.3066C6.63273 20.8676 6.79029 20.4287 6.93976 19.9864C7.61258 18.0052 9.34899 16.8343 11.4139 16.2381C12.236 15.9996 13.1179 16.4581 13.537 17.2179C13.9557 17.996 14.1259 18.8419 14.0679 19.7012C13.9507 21.4748 13.663 23.2263 12.7713 24.8183C12.5135 25.2888 12.5299 25.399 13.1314 25.6683C15.9711 26.865 18.6912 29.1211 17.4443 32.9209L17.3859 33.0986C17.0594 34.0917 16.7388 35.0669 16.2335 35.9891C16.203 36.0407 16.1653 36.0923 16.1264 36.1453C15.9884 36.3335 15.8362 36.5411 15.9477 36.8435C16.1226 36.7193 16.2962 36.5975 16.4682 36.4769L16.4703 36.4755C16.9619 36.1307 17.4404 35.7952 17.8984 35.4392C18.4785 34.994 19.1307 34.7152 19.8562 34.5478C21.6317 34.1467 23.2082 34.9499 23.8696 36.722C23.9495 36.4214 24.0179 36.1369 24.0833 35.8643C24.1884 35.4269 24.286 35.0201 24.4121 34.6281C25.2496 32.1011 26.2186 29.6319 27.3197 27.2022C28.3815 24.8265 29.2738 22.3923 30.1285 19.939C30.1631 19.8402 30.1973 19.7414 30.2316 19.6427L30.2319 19.6418C30.6008 18.5787 30.9662 17.526 31.6305 16.6024C31.7676 16.4223 31.8672 16.223 31.8154 16.0022C31.5532 15.0261 32.375 14.8058 32.9858 14.6726C33.6729 14.5227 34.1739 15.0279 34.3488 15.6725C34.8338 17.6788 34.8245 19.711 34.2651 21.713C34.1298 22.2077 34.0027 22.704 33.8758 23.2001C33.5356 24.5293 33.1955 25.858 32.6952 27.1537C31.2606 30.8579 28.9644 34.0491 26.2195 36.9376C26.134 37.0242 26.0494 37.1135 25.9646 37.2031C25.663 37.5215 25.3576 37.8439 24.9968 38.0647C24.2436 38.5256 24.2026 39.1817 24.1527 39.9812C24.1451 40.1019 24.1374 40.2258 24.1269 40.3529C25.3611 38.7317 26.4771 37.2911 27.5931 35.8504C27.926 35.4182 28.2783 34.9681 28.6673 34.5737C29.0175 34.215 29.3039 34.148 29.556 34.7394C29.7546 35.1831 29.8578 35.6431 29.7721 36.0624C29.6425 36.737 29.9916 37.239 30.4834 37.3228C30.9562 37.4063 31.4967 37.0335 31.7178 36.5073C32.1799 35.4187 32.6425 34.3118 33.0481 33.2037C33.3416 32.411 33.6358 31.6178 33.9302 30.8241L33.935 30.811C35.2647 27.2257 36.5983 23.6298 37.8935 20.0338C39.1935 16.3999 40.6437 12.8425 42.3199 9.36327C42.3974 9.20166 42.4748 9.03989 42.5521 8.87809C43.6888 6.50009 44.8277 4.11766 46.7227 2.15286C47.0931 1.76274 47.5393 1.46445 47.9929 1.16117L48.1343 1.0665C49.3497 0.250542 51.7774 1.20027 51.8162 2.79408C51.8803 4.93775 51.6048 6.98251 50.9121 8.99993C48.7514 15.3434 45.7076 21.2832 41.9691 26.8784C40.5521 29.0083 38.8177 30.9116 37.009 32.7401C36.0914 33.6627 35.1452 34.566 34.1976 35.4706C33.8199 35.8311 33.4414 36.1925 33.065 36.5548C32.5984 37.0207 32.2634 37.5445 32.0586 38.1809C31.7303 39.2357 31.3685 40.2735 31.0068 41.3113C30.8259 41.8303 30.6449 42.3494 30.4682 42.8705C30.4537 42.9094 30.4369 42.9497 30.4197 42.9909C30.3166 43.2382 30.2008 43.516 30.506 43.6952C30.7446 43.8479 30.896 43.7017 31.0511 43.5521C31.1271 43.4787 31.2039 43.4046 31.2923 43.3644C31.4234 43.3014 31.5102 43.1406 31.5943 42.9848C31.7444 42.7068 31.886 42.4445 32.2554 42.781C32.6194 43.1187 32.2725 43.4635 31.9642 43.7701C31.8789 43.8549 31.7965 43.9368 31.7329 44.0147C31.5177 44.2847 31.1296 44.6425 30.7719 44.5066C29.9013 44.189 29.745 44.6994 29.5862 45.2175C29.5698 45.2709 29.5535 45.3244 29.5363 45.3771C29.2861 46.1306 29.0353 46.8842 28.7845 47.6379L28.783 47.6424C27.703 50.8873 26.6223 54.1344 25.5913 57.3946C25.4777 57.7571 25.3639 58.1196 25.2502 58.4822C24.1311 62.0484 23.0108 65.6187 22.0302 69.2374C21.033 72.9144 20.0734 76.6106 19.4162 80.3682C19.3055 81.0433 19.3471 81.7034 19.4073 82.3821L19.4125 82.4378C19.4433 82.7563 19.4787 83.1222 19.046 83.2166C18.6529 83.2951 18.5295 83.0576 18.395 82.7986C18.3597 82.7307 18.3237 82.6613 18.2818 82.5958C17.7483 81.7435 17.7782 80.8606 17.8095 79.9349C17.8136 79.8122 17.8178 79.6889 17.8207 79.5647C17.8444 77.8007 17.7413 76.0377 17.6382 74.2734C17.5155 72.1747 17.3927 70.074 17.483 67.9671C17.6539 63.8877 17.9763 59.8298 18.9997 55.8421C19.0423 55.6416 19.0854 55.4228 19.0711 55.2211C18.0144 57.3771 17.0897 59.5726 16.3527 61.8637C16.0638 62.7768 15.6721 63.6735 15.2811 64.5685C15.2283 64.6895 15.1754 64.8105 15.1228 64.9315C14.9823 65.258 14.8021 65.657 14.3284 65.6101C13.8547 65.5632 13.7684 65.1952 13.7208 64.7913C13.7061 64.6079 13.6732 64.3875 13.5619 64.2752C12.6877 63.4872 13.1624 62.6736 13.5966 61.9689C13.7936 61.6619 13.876 61.389 13.8836 61.0596C14.106 57.2193 14.764 53.425 15.7241 49.7106C16.4131 47.0339 17.6306 44.4969 19.129 42.1307C19.271 42.0327 19.3167 41.9326 19.401 41.7477L19.4239 41.6976ZM12.5602 35.5251L12.5841 35.5285C13.0329 35.5923 13.5484 35.6656 13.7601 36.1919C13.8055 36.3071 13.8604 36.4191 13.9149 36.5301C14.1398 36.9886 14.3571 37.4315 13.8693 38.0253C13.7531 38.1648 13.6378 38.3051 13.5227 38.4452L13.5218 38.4463C12.3024 39.9304 11.1012 41.3923 8.95863 41.7641C8.32927 41.8786 7.76111 41.8114 7.19679 41.5795C6.70754 41.3858 6.39168 41.086 6.63436 40.4504C6.82055 39.976 6.89538 39.4667 6.97009 38.9582C6.99259 38.8051 7.01508 38.652 7.0406 38.5C7.1534 37.7334 7.88874 37.1451 8.56288 36.7386C9.7576 35.9954 11.0957 35.6216 12.5602 35.5251ZM14.8188 61.2466C14.717 61.8731 14.6153 62.4985 14.5193 63.1241C15.2877 61.9322 15.7537 60.6789 16.1825 59.3882C16.5894 58.1198 17.1242 56.8968 17.6603 55.6707C18.3923 53.9964 19.1269 52.3163 19.5418 50.5073C20.0622 48.2725 20.8009 46.0913 21.5396 43.9101C21.9089 42.8195 22.2782 41.7289 22.6203 40.6316C22.647 40.5418 22.7009 40.4428 22.7564 40.3406C22.9148 40.0494 23.0869 39.7328 22.6838 39.5344C22.3028 39.3472 22.0397 39.628 21.7845 39.9002C21.7001 39.9902 21.6166 40.0793 21.53 40.1502L21.3541 40.3661C19.2874 43.489 17.6534 46.7861 16.6959 50.3908C16.0765 52.7369 15.7339 55.1187 15.3909 57.5034C15.3533 57.7648 15.3156 58.0269 15.2776 58.2883C15.1386 59.2801 14.9785 60.2647 14.8188 61.2466ZM28.6788 39.7923C27.9098 40.1967 27.3791 40.1486 26.9389 39.4799C26.8692 39.8023 26.6954 40.0439 26.5335 40.2689C26.4483 40.3873 26.3664 40.5011 26.3047 40.6198C26.2923 40.6429 26.28 40.6662 26.2676 40.6896C26.2584 40.707 26.2492 40.7245 26.2399 40.742L26.239 40.7437C25.8829 41.4188 25.5004 42.1438 24.4333 41.8793C24.2083 41.8198 24.1467 41.9874 24.0891 42.144C24.0693 42.1977 24.0501 42.25 24.0249 42.2915C23.4735 43.3255 23.1 44.4208 22.7255 45.519C22.628 45.8049 22.5303 46.0915 22.4295 46.3768C20.842 50.9382 19.708 55.6011 19.0838 60.3848C18.4847 64.9127 18.3406 69.4688 18.6331 74.0343C18.6497 74.3413 18.6639 74.6482 18.6781 74.9551C18.7208 75.8762 18.7635 76.7974 18.8702 77.7198C19.0288 77.4302 19.1116 77.1391 19.1753 76.8475C20.1381 72.1993 21.4228 67.5946 22.801 63.0469C24.7141 56.7348 26.6458 50.4413 29.0114 44.2671C29.0336 44.2113 29.0603 44.1564 29.0869 44.1017C29.1817 43.9073 29.2758 43.7141 29.1626 43.483C28.6187 42.3727 28.4376 41.1786 28.6788 39.7923ZM35.4631 29.1127C34.7444 31.1492 34.025 33.1881 33.173 35.1839C33.2477 35.2404 33.3224 35.297 33.416 35.3539C33.7277 35.0313 34.038 34.7072 34.3485 34.3829L34.3495 34.3819L34.3555 34.3756C35.1472 33.5486 35.9407 32.7198 36.7625 31.9108C40.9026 27.8257 43.7328 22.9067 46.4133 17.8928C47.7249 15.3944 48.8487 12.8004 49.7841 10.1474C50.6164 7.84 51.3163 5.51147 51.1655 3.01804C51.1226 2.41288 50.9118 1.67592 50.3631 1.59081L50.2418 1.5756C49.5456 1.48767 48.7189 1.38327 48.1157 1.87174C47.6124 2.28198 47.1647 2.74836 46.7727 3.27086C45.6947 4.71234 44.8419 6.26854 44.0067 7.88006C43.0114 9.80597 42.1429 11.7682 41.2751 13.7291C41.0333 14.2755 40.7915 14.8218 40.547 15.3672C39.5329 17.616 38.7252 19.9387 37.9177 22.2607C37.4816 23.5149 37.0455 24.7689 36.577 26.011C36.1944 27.0401 35.8288 28.0763 35.4631 29.1127ZM24.8384 37.5302C24.97 35.9831 25.4579 34.5981 25.9484 33.2057C26.0431 32.9368 26.1379 32.6676 26.2303 32.3969C26.7989 30.7593 27.4707 29.1611 28.1424 27.5632C28.9614 25.6146 29.7803 23.6664 30.4117 21.6479C30.9866 19.7927 31.7125 17.9774 32.6076 16.239C32.6302 16.1945 32.6502 16.1465 32.6702 16.0983C32.7562 15.8919 32.8445 15.68 33.1518 15.7015C33.5306 15.7463 33.6558 16.0786 33.7443 16.3552C34.0642 17.2959 34.0982 18.2854 33.9617 19.2529C33.2088 24.6747 31.307 29.6871 27.8248 34.061C27.1778 34.8795 26.4774 35.6707 25.7789 36.4598C25.4633 36.8163 25.1481 37.1723 24.8384 37.5302ZM21.528 36.1586C21.5999 35.5193 21.2794 35.4209 20.7069 35.5366C19.2285 35.4131 18.1481 36.1404 17.2697 37.1651C17.0743 37.3989 16.8975 37.6514 16.9844 38.0012C17.1567 38.7556 17.0819 39.523 16.9315 40.2705C16.8023 40.9268 17.1199 41.1534 17.7661 41.1308C20.0653 41.0707 21.9758 38.9515 21.6464 36.7837C21.6339 36.6998 21.6104 36.6183 21.5873 36.5385C21.5497 36.4086 21.5134 36.283 21.528 36.1586ZM23.584 40.8355C23.8169 41.5631 23.5222 41.9942 23.2482 42.3953C23.1681 42.5125 23.0897 42.6272 23.0268 42.746C23.005 42.1688 23.2261 41.6598 23.5141 40.9968L23.584 40.8355ZM26.4341 39.113C26.5766 38.7627 26.7197 38.4108 26.9145 38.0878C26.167 38.3829 24.8277 40.4413 24.9073 41.1022C25.7975 40.678 26.1141 39.8996 26.4341 39.113ZM28.7897 35.9725C28.9285 37.0021 29.0643 38.0101 28.3956 38.9072C28.3703 38.942 28.3467 38.982 28.3225 39.0228C28.2341 39.1721 28.1387 39.3332 27.9307 39.3C27.6658 39.2576 27.6157 38.9636 27.6389 38.781C27.6482 38.6958 27.657 38.6104 27.6658 38.5251C27.7721 37.495 27.8779 36.4696 28.7549 35.7107C28.7662 35.798 28.778 35.8855 28.7897 35.9725ZM30.7839 39.5439C30.5024 40.4466 30.2266 41.331 29.6856 42.2309C29.2987 40.9042 29.3432 39.8066 29.6345 38.7143C29.7499 38.2165 30.1478 38.1435 30.6388 38.0534C30.8666 38.0116 31.1144 37.9661 31.3633 37.8728C31.1277 38.4416 30.9548 38.9962 30.7839 39.5439Z" fill="#DCDEF1" style="fill:#DCDEF1;fill:color(display-p3 0.8627 0.8706 0.9451);fill-opacity:1;"/>
</svg>
