<svg width="401" height="415" viewBox="0 0 401 415" fill="none" xmlns="http://www.w3.org/2000/svg">
<g clip-path="url(#clip0_722_2154)">
<path d="M47.7998 265.732L33.4094 266.004L26.122 266.111C23.6864 266.159 21.2411 266.149 18.7958 266.169H18.3688V265.732L18.3203 253.477V252.991H18.8055L33.3123 253.05C38.1447 253.05 42.9868 253.156 47.8192 253.205H48.0909V253.467C48.0715 255.543 48.0035 257.61 47.9647 259.658L47.8289 265.732H47.7998ZM47.7998 265.732L47.6639 259.541C47.6154 257.504 47.5572 255.476 47.5378 253.467L47.7998 253.729C42.9674 253.777 38.1253 253.884 33.2929 253.884L18.7861 253.942L19.2713 253.457L19.2227 265.713L18.7861 265.276C21.1829 265.296 23.5699 265.276 25.9667 265.334L33.1765 265.441L47.7901 265.713L47.7998 265.732Z" fill="#EBEBEB"/>
<path d="M31.624 281.19L17.2336 281.462L9.94621 281.568C7.51061 281.617 5.06531 281.607 2.62001 281.627H2.19305V281.19L2.14453 268.934V268.449H2.62971L17.1366 268.507C21.9689 268.507 26.811 268.614 31.6434 268.663H31.9151V268.925C31.8957 271.001 31.8278 273.068 31.789 275.116L31.6531 281.19H31.624ZM31.624 281.19L31.4881 274.999C31.4396 272.961 31.3814 270.933 31.362 268.925L31.624 269.187C26.7916 269.235 21.9495 269.342 17.1171 269.342L2.6103 269.4L3.09548 268.915L3.04696 281.171L2.6103 280.734C5.00709 280.753 7.39417 280.734 9.79095 280.782L17.0007 280.889L31.6143 281.161L31.624 281.19Z" fill="#EBEBEB"/>
<path d="M31.624 15.9333L17.2336 16.205L9.94621 16.3117C7.51061 16.3602 5.06531 16.3505 2.62001 16.37H2.19305V15.9333L2.14453 3.67768V3.1925H2.62971L17.1366 3.25073C21.9689 3.25073 26.811 3.35747 31.6434 3.40598H31.9151V3.66798C31.8957 5.74454 31.8278 7.8114 31.789 9.85886L31.6531 15.9333H31.624ZM31.624 15.9333L31.4881 9.74241C31.4396 7.70466 31.3814 5.67662 31.362 3.66798L31.624 3.92998C26.7916 3.97849 21.9495 4.08523 17.1171 4.08523L2.6103 4.14345L3.09548 3.65828L3.04696 15.9139L2.6103 15.4772C5.00709 15.4966 7.39417 15.4772 9.79095 15.5257L17.0007 15.6325L31.6143 15.9042L31.624 15.9333Z" fill="#EBEBEB"/>
<path d="M398.39 15.9333L383.999 16.205L376.712 16.3117C374.276 16.3602 371.831 16.3505 369.386 16.37H368.959V15.9333L368.91 3.67768V3.1925H369.395L383.902 3.25073C388.735 3.25073 393.577 3.35747 398.409 3.40598H398.681V3.66798C398.661 5.74454 398.593 7.8114 398.555 9.85886L398.419 15.9333H398.39ZM398.39 15.9333L398.254 9.74241C398.205 7.70466 398.147 5.67662 398.128 3.66798L398.39 3.92998C393.557 3.97849 388.715 4.08523 383.883 4.08523L369.376 4.14345L369.861 3.65828L369.813 15.9139L369.376 15.4772C371.773 15.4966 374.16 15.4772 376.557 15.5257L383.766 15.6325L398.38 15.9042L398.39 15.9333Z" fill="#EBEBEB"/>
<path d="M382.214 31.3911L367.823 31.6628L360.536 31.7696C358.1 31.8181 355.655 31.8084 353.21 31.8181H352.783V31.3814L352.734 19.1258V18.6406H353.22L367.726 18.6988C372.559 18.6988 377.401 18.8056 382.233 18.8541H382.505V19.1161C382.486 21.1927 382.418 23.2595 382.379 25.307L382.243 31.3814L382.214 31.3911ZM382.214 31.3911L382.078 25.2002C382.029 23.1625 381.971 21.1344 381.952 19.1258L382.214 19.3878C377.381 19.4363 372.539 19.5431 367.707 19.5431L353.2 19.6013L353.685 19.1161L353.637 31.3717L353.2 30.935C355.597 30.9545 357.984 30.935 360.381 30.9933L367.591 31.1L382.204 31.3717L382.214 31.3911Z" fill="#EBEBEB"/>
<path d="M307.914 174.8L293.523 175.072L286.236 175.179C283.8 175.227 281.355 175.217 278.91 175.237H278.483V174.8L278.434 162.545V162.059H278.919L293.426 162.118C298.259 162.118 303.101 162.224 307.933 162.273H308.205V162.535C308.185 164.611 308.117 166.678 308.079 168.726L307.943 174.8H307.914ZM307.914 174.8L307.778 168.609C307.729 166.571 307.671 164.543 307.652 162.535L307.914 162.797C303.081 162.845 298.239 162.952 293.407 162.952L278.9 163.01L279.385 162.525L279.337 174.781L278.9 174.344C281.297 174.363 283.684 174.344 286.081 174.393L293.29 174.499L307.904 174.771L307.914 174.8Z" fill="#EBEBEB"/>
<path d="M291.728 190.258L277.338 190.53L270.05 190.636C267.615 190.685 265.169 190.675 262.724 190.695H262.297V190.258L262.249 178.002V177.517H262.734L277.241 177.575C282.073 177.575 286.915 177.682 291.747 177.731H292.019V177.993C292 180.069 291.932 182.136 291.893 184.183L291.757 190.258H291.728ZM291.728 190.258L291.592 184.067C291.544 182.029 291.485 180.001 291.466 177.993L291.728 178.255C286.896 178.303 282.054 178.41 277.221 178.41L262.714 178.468L263.199 177.983L263.151 190.238L262.714 189.802C265.111 189.821 267.498 189.802 269.895 189.86L277.105 189.967L291.718 190.238L291.728 190.258Z" fill="#EBEBEB"/>
<path d="M275.61 174.8L261.22 175.072L253.933 175.179C251.497 175.227 249.052 175.217 246.606 175.237H246.179V174.8L246.131 162.545V162.059H246.616L261.123 162.118C265.955 162.118 270.797 162.224 275.63 162.273H275.901V162.535C275.882 164.611 275.814 166.678 275.775 168.726L275.639 174.8H275.61ZM275.61 174.8L275.474 168.609C275.426 166.571 275.368 164.543 275.348 162.535L275.61 162.797C270.778 162.845 265.936 162.952 261.103 162.952L246.597 163.01L247.082 162.525L247.033 174.781L246.597 174.344C248.993 174.363 251.38 174.344 253.777 174.393L260.987 174.499L275.601 174.771L275.61 174.8Z" fill="#EBEBEB"/>
<path d="M398.39 281.19L383.999 281.462L376.712 281.568C374.276 281.617 371.831 281.607 369.386 281.627H368.959V281.19L368.91 268.934V268.449H369.395L383.902 268.507C388.735 268.507 393.577 268.614 398.409 268.663H398.681V268.925C398.661 271.001 398.593 273.068 398.555 275.116L398.419 281.19H398.39ZM398.39 281.19L398.254 274.999C398.205 272.961 398.147 270.933 398.128 268.925L398.39 269.187C393.557 269.235 388.715 269.342 383.883 269.342L369.376 269.4L369.861 268.915L369.813 281.171L369.376 280.734C371.773 280.753 374.16 280.734 376.557 280.782L383.766 280.889L398.38 281.161L398.39 281.19Z" fill="#EBEBEB"/>
<path d="M151.91 52.3897L137.519 52.6614L130.232 52.7681C127.796 52.8166 125.351 52.8069 122.906 52.8166H122.479V52.3799L122.43 40.1243V39.6392H122.915L137.422 39.6974C142.255 39.6974 147.097 39.8041 151.929 39.8526H152.201V40.1146C152.181 42.1912 152.113 44.2581 152.075 46.3055L151.939 52.3799L151.91 52.3897ZM151.91 52.3897L151.774 46.1988C151.725 44.161 151.667 42.133 151.648 40.1243L151.91 40.3863C147.077 40.4349 142.235 40.5416 137.403 40.5416L122.896 40.5998L123.381 40.1146L123.333 52.3702L122.896 51.9336C125.293 51.953 127.68 51.9336 130.077 51.9821L137.286 52.0888L151.9 52.3605L151.91 52.3897Z" fill="#EBEBEB"/>
<path d="M368.59 133.599L374.306 124.39L371.482 122.644C370.657 122.129 370.201 121.188 370.289 120.218C370.337 119.684 370.357 119.141 370.337 118.597C370.318 117.627 370.822 116.715 371.686 116.259L374.607 114.687L369.483 105.129L366.562 106.701C365.709 107.157 364.67 107.079 363.875 106.526C363.428 106.215 362.972 105.934 362.497 105.672C361.643 105.206 361.109 104.313 361.138 103.333L361.245 100.015L350.416 99.6752L350.319 103.003C350.29 103.984 349.688 104.828 348.805 105.245C348.562 105.361 348.329 105.478 348.097 105.604C347.864 105.73 347.631 105.866 347.408 106.002C346.573 106.506 345.545 106.536 344.72 106.021L341.877 104.265L336.161 113.474L338.985 115.23C339.81 115.744 340.266 116.686 340.178 117.656C340.13 118.19 340.111 118.733 340.13 119.267C340.149 120.237 339.645 121.139 338.781 121.605L335.86 123.177L340.984 132.735L343.905 131.163C344.759 130.707 345.797 130.785 346.592 131.338C347.039 131.648 347.495 131.93 347.97 132.182C348.824 132.648 349.358 133.541 349.329 134.521L349.222 137.849L360.051 138.189L360.158 134.86C360.187 133.89 360.789 133.046 361.662 132.628C361.905 132.512 362.138 132.396 362.38 132.269C362.613 132.143 362.846 132.007 363.069 131.872C363.904 131.367 364.942 131.338 365.776 131.852L368.6 133.599H368.59ZM359.421 126.758C355.103 129.077 349.727 127.456 347.408 123.129C345.088 118.811 346.709 113.425 351.027 111.106C355.345 108.787 360.731 110.417 363.05 114.735C365.369 119.053 363.739 124.439 359.421 126.748V126.758Z" fill="#EBEBEB"/>
<path d="M56.4362 237.951L62.1516 228.742L59.3279 226.996C58.5031 226.481 58.047 225.54 58.1343 224.57C58.1828 224.036 58.2022 223.493 58.1828 222.949C58.1634 221.979 58.668 221.067 59.5316 220.611L62.4524 219.039L57.3289 209.481L54.4081 211.053C53.5542 211.509 52.516 211.431 51.7203 210.878C51.2739 210.567 50.8178 210.286 50.3424 210.024C49.4884 209.558 48.9547 208.666 48.9839 207.685L49.0906 204.367L38.2614 204.027L38.1644 207.356C38.1353 208.336 37.5336 209.18 36.6506 209.597C36.408 209.714 36.1751 209.83 35.9423 209.956C35.7094 210.082 35.4765 210.218 35.2533 210.354C34.4188 210.859 33.3902 210.888 32.5654 210.373L29.7223 208.617L24.0069 217.826L26.8306 219.582C27.6554 220.096 28.1115 221.038 28.0241 222.008C27.9756 222.542 27.9562 223.085 27.9756 223.619C27.995 224.589 27.4904 225.492 26.6268 225.957L23.7061 227.529L28.8295 237.087L31.7503 235.515C32.6042 235.059 33.6425 235.137 34.4382 235.69C34.8846 236 35.3406 236.282 35.8161 236.534C36.67 237 37.2037 237.893 37.1746 238.873L37.0679 242.201L47.8971 242.541L48.0038 239.212C48.0329 238.242 48.6345 237.398 49.5078 236.981C49.7504 236.864 49.9833 236.748 50.2259 236.622C50.4588 236.495 50.6917 236.36 50.9149 236.224C51.7494 235.719 52.7877 235.69 53.6222 236.204L56.4459 237.951H56.4362ZM47.2663 231.11C42.9482 233.429 37.5725 231.809 35.2533 227.481C32.9342 223.163 34.5546 217.777 38.8727 215.458C43.1908 213.139 48.5763 214.769 50.8955 219.087C53.2146 223.405 51.5844 228.791 47.2663 231.1V231.11Z" fill="#EBEBEB"/>
<path d="M167.377 61.5596L163.583 54.9805L161.575 56.145C160.983 56.4846 160.255 56.4555 159.682 56.077C159.362 55.8733 159.042 55.6792 158.702 55.5045C158.091 55.194 157.703 54.5827 157.703 53.9034V51.5746H150.105V53.9034C150.105 54.5827 149.717 55.194 149.106 55.5045C148.766 55.6792 148.436 55.8636 148.126 56.077C147.553 56.4458 146.825 56.4846 146.233 56.145L144.225 54.9805L140.431 61.5596L142.449 62.724C143.041 63.0636 143.371 63.7138 143.332 64.4027C143.332 64.5871 143.322 64.7714 143.322 64.9655C143.322 65.1596 143.322 65.3342 143.332 65.5283C143.371 66.2076 143.041 66.8577 142.449 67.1973L140.421 68.3715L144.215 74.9505L146.233 73.7861C146.825 73.4464 147.553 73.4755 148.126 73.854C148.436 74.0578 148.766 74.2518 149.106 74.4168C149.717 74.7273 150.105 75.3386 150.105 76.0179V78.3467H157.703V76.0179C157.703 75.3386 158.091 74.7273 158.702 74.4168C159.042 74.2421 159.362 74.0578 159.682 73.854C160.255 73.4755 160.983 73.4464 161.575 73.7861L163.593 74.9505L167.387 68.3715L165.369 67.207C164.777 66.8674 164.457 66.2173 164.486 65.538C164.486 65.3537 164.495 65.1596 164.495 64.9752C164.495 64.7908 164.495 64.6065 164.486 64.4124C164.447 63.7332 164.777 63.083 165.369 62.7337L167.387 61.5693L167.377 61.5596ZM160.119 64.9558C160.119 68.3909 157.334 71.1758 153.899 71.1758C150.464 71.1758 147.679 68.3909 147.679 64.9558C147.679 61.5207 150.464 58.7358 153.899 58.7358C157.334 58.7358 160.119 61.5207 160.119 64.9558Z" fill="#EBEBEB"/>
<path d="M44.1126 252.827C31.43 265.237 29.3049 284.451 31.9734 301.267C32.0413 301.645 32.6333 301.548 32.6333 301.189C32.6333 297.356 32.5168 293.562 32.5265 289.778C32.5944 289.603 32.6527 289.438 32.7206 289.273C36.0295 286.867 39.0764 284.15 40.9589 280.424C43.0743 276.261 43.9088 271.564 45.5293 267.207C45.6845 266.79 45.2382 266.916 44.9471 267.13C37.2327 272.816 34.7777 278.939 32.5653 287.119C32.6721 282.869 32.9923 278.628 33.9044 274.378C35.5734 266.615 38.8726 258.92 44.4425 253.157C44.6463 252.933 44.3261 252.603 44.1029 252.817L44.1126 252.827Z" fill="#BA7AB8"/>
<path d="M46.4998 254.272C48.6831 254.35 50.0513 257.834 51.7494 258.852C52.6518 259.396 53.5251 259.357 54.1559 258.474C55.8443 256.126 53.5251 253.224 51.3515 251.594C52.9041 252.235 54.1947 253.36 55.8734 253.671C56.8923 253.855 57.6783 253.477 57.9112 252.448C58.6486 249.246 54.6314 247.82 51.8658 247.752C53.2049 246.82 57.0378 244.297 55.0001 243.055C52.9332 241.803 48.4405 245.423 46.9752 246.616C44.821 248.363 42.2496 250.983 42.1526 253.719C42.0264 256.912 44.821 254.952 46.4998 254.282V254.272Z" fill="#FFC727"/>
<path opacity="0.1" d="M46.4998 254.272C48.6831 254.35 50.0513 257.834 51.7494 258.852C52.6518 259.396 53.5251 259.357 54.1559 258.474C55.8443 256.126 53.5251 253.224 51.3515 251.594C52.9041 252.235 54.1947 253.36 55.8734 253.671C56.8923 253.855 57.6783 253.477 57.9112 252.448C58.6486 249.246 54.6314 247.82 51.8658 247.752C53.2049 246.82 57.0378 244.297 55.0001 243.055C52.9332 241.803 48.4405 245.423 46.9752 246.616C44.821 248.363 42.2496 250.983 42.1526 253.719C42.0264 256.912 44.821 254.952 46.4998 254.282V254.272Z" fill="black"/>
<path d="M45.869 254.806C48.6539 253.535 54.02 255.359 54.476 254.311C55.3979 252.167 51.1186 250.692 48.8091 250.401C50.9342 249.828 55.0194 248.906 54.8933 246.849C54.738 244.346 48.6345 246.5 45.5487 248.867C41.6576 251.846 41.6867 254.728 42.3272 255.311C43.2102 256.106 45.4226 255.02 45.8787 254.806H45.869Z" fill="#FFC727"/>
<path d="M15.2346 251.594C28.3829 263.52 31.2358 282.626 29.2077 299.54C29.1495 299.928 28.5576 299.84 28.5479 299.481C28.4023 295.658 28.3732 291.854 28.218 288.08C28.1403 287.905 28.0821 287.75 28.0045 287.575C24.6082 285.295 21.4643 282.694 19.4362 279.046C17.1656 274.96 16.1467 270.303 14.371 266.014C14.206 265.606 14.6524 265.713 14.9532 265.907C22.881 271.302 25.5689 277.318 28.0918 285.411C27.8298 281.171 27.3446 276.94 26.2676 272.729C24.3074 265.034 20.7171 257.475 14.9241 251.924C14.7106 251.711 15.0211 251.361 15.2443 251.575L15.2346 251.594Z" fill="#BA7AB8"/>
<path d="M12.906 253.127C10.7324 253.283 9.4903 256.824 7.83098 257.901C6.95766 258.474 6.07464 258.474 5.4148 257.61C3.63904 255.32 5.84175 252.341 7.94743 250.634C6.41426 251.332 5.17221 252.506 3.5129 252.885C2.50373 253.108 1.69833 252.759 1.42663 251.74C0.563012 248.567 4.53177 246.985 7.28759 246.81C5.91938 245.927 1.98944 243.55 3.97867 242.23C5.99701 240.901 10.6256 244.346 12.1394 245.481C14.3615 247.15 17.03 249.663 17.2337 252.39C17.486 255.573 14.6138 253.719 12.9157 253.118L12.906 253.127Z" fill="#FFC727"/>
<path opacity="0.1" d="M12.906 253.127C10.7324 253.283 9.4903 256.824 7.83098 257.901C6.95766 258.474 6.07464 258.474 5.4148 257.61C3.63904 255.32 5.84175 252.341 7.94743 250.634C6.41426 251.332 5.17221 252.506 3.5129 252.885C2.50373 253.108 1.69833 252.759 1.42663 251.74C0.563012 248.567 4.53177 246.985 7.28759 246.81C5.91938 245.927 1.98944 243.55 3.97867 242.23C5.99701 240.901 10.6256 244.346 12.1394 245.481C14.3615 247.15 17.03 249.663 17.2337 252.39C17.486 255.573 14.6138 253.719 12.9157 253.118L12.906 253.127Z" fill="black"/>
<path d="M13.5562 253.642C10.7227 252.477 5.43426 254.505 4.93938 253.467C3.93021 251.352 8.16096 249.721 10.4607 249.343C8.31622 248.848 4.20191 248.081 4.25043 246.024C4.30865 243.511 10.4898 245.432 13.6629 247.684C17.6608 250.517 17.7481 253.399 17.1271 254.001C16.2731 254.825 14.0316 253.826 13.5562 253.632V253.642Z" fill="#FFC727"/>
<path d="M28.6744 283.082C29.6448 289.37 30.848 295.862 32.7596 301.936C32.944 302.489 33.7591 302.344 33.6815 301.752C32.8178 295.939 31.2459 290.243 30.3823 284.431C29.5089 278.551 29.0335 272.593 29.3731 266.644C29.9262 256.854 32.585 246.442 38.9699 238.776C39.1058 238.591 38.8146 238.339 38.6691 238.504C25.8798 253.418 27.9176 271.7 27.9273 273.34C26.1127 267.168 24.2496 260.085 17.3989 253.807C17.1078 253.535 16.8749 253.661 16.9234 254.127C18.1461 265.577 21.3288 271.554 27.9661 277.677C28.1504 279.492 28.393 281.297 28.6744 283.082Z" fill="#BA7AB8"/>
<path d="M39.0769 240.493C41.3766 239.474 44.5497 242.405 46.83 242.599C48.0333 242.706 48.926 242.23 49.1395 240.998C49.7023 237.708 45.85 235.865 42.7739 235.273C44.7049 235.156 46.6068 235.671 48.5087 235.156C49.6538 234.836 50.2845 234.05 50.0128 232.857C49.1686 229.16 44.278 229.703 41.3766 231.023C42.2984 229.383 45.0057 224.832 42.2596 224.57C39.4941 224.317 36.6413 230.324 35.7194 232.303C34.3609 235.205 33.0121 239.212 34.2833 242.104C35.7583 245.481 37.6699 242.036 39.0769 240.493Z" fill="#FFC727"/>
<path opacity="0.1" d="M39.0769 240.493C41.3766 239.474 44.5497 242.405 46.83 242.599C48.0333 242.706 48.926 242.23 49.1395 240.998C49.7023 237.708 45.85 235.865 42.7739 235.273C44.7049 235.156 46.6068 235.671 48.5087 235.156C49.6538 234.836 50.2845 234.05 50.0128 232.857C49.1686 229.16 44.278 229.703 41.3766 231.023C42.2984 229.383 45.0057 224.832 42.2596 224.57C39.4941 224.317 36.6413 230.324 35.7194 232.303C34.3609 235.205 33.0121 239.212 34.2833 242.104C35.7583 245.481 37.6699 242.036 39.0769 240.493Z" fill="black"/>
<path d="M38.6986 241.376C40.9498 238.659 47.4318 237.854 47.3736 236.525C47.2474 233.827 42.0657 234.458 39.5234 235.321C41.4447 233.652 45.2097 230.644 44.0453 228.577C42.6285 226.054 37.3789 231.362 35.3606 235.37C32.8279 240.425 34.3029 243.395 35.2538 243.676C36.5638 244.055 38.3104 241.813 38.6889 241.367L38.6986 241.376Z" fill="#FFC727"/>
<path d="M20.2613 286.527L14.6235 329.63H48.9451C48.2367 325.807 41.8518 286.479 41.8518 286.479L20.2613 286.527Z" fill="#FFC727"/>
<path d="M0 329.776L50.1286 329.543L100.248 329.455L200.505 329.291L300.752 329.455L350.881 329.533L401 329.776L350.881 330.009L300.752 330.096L200.505 330.261L100.248 330.096L50.1286 330.009L0 329.776Z" fill="#BA7AB8"/>
<path d="M200.505 414.177C280.388 414.177 345.146 405.019 345.146 393.722C345.146 382.425 280.388 373.267 200.505 373.267C120.621 373.267 55.8633 382.425 55.8633 393.722C55.8633 405.019 120.621 414.177 200.505 414.177Z" fill="#EBEBEB"/>
<path d="M110.815 178.914L104.789 155.209L57.2025 167.299L50.9146 142.555L88.9428 55.8926L107.807 51.099L126.146 123.255L141.371 119.383L147.708 144.302L132.483 148.173L138.509 171.879L110.824 178.914H110.815ZM78.2107 135.433L101.742 129.455L93.9596 98.8309L78.2107 135.442V135.433Z" fill="#BA7AB8"/>
<path d="M247.101 99.7721C247.101 107.632 245.908 114.861 243.53 121.46C241.143 128.068 237.873 133.783 233.71 138.596C229.548 143.419 224.638 147.164 218.98 149.843C213.323 152.521 207.161 153.86 200.505 153.86C193.848 153.86 187.648 152.521 181.942 149.843C176.226 147.164 171.287 143.419 167.124 138.596C162.962 133.773 159.711 128.058 157.392 121.46C155.073 114.851 153.908 107.622 153.908 99.7721C153.908 91.9219 155.073 84.6831 157.392 78.0846C159.711 71.4765 162.952 65.7611 167.124 60.9481C171.287 56.1255 176.226 52.3508 181.942 49.6144C187.657 46.878 193.838 45.5098 200.505 45.5098C207.171 45.5098 213.333 46.878 218.98 49.6144C224.628 52.3508 229.538 56.1352 233.71 60.9481C237.873 65.7708 241.153 71.4862 243.53 78.0846C245.908 84.6928 247.101 91.9219 247.101 99.7721ZM218.359 99.7721C218.359 91.4465 216.69 84.6831 213.362 79.5111C210.024 74.3294 205.745 71.7482 200.505 71.7482C195.265 71.7482 190.656 74.3391 187.386 79.5111C184.115 84.6928 182.476 91.4465 182.476 99.7721C182.476 108.098 184.106 114.832 187.386 119.946C190.656 125.069 195.032 127.621 200.505 127.621C205.978 127.621 210.024 125.06 213.362 119.946C216.69 114.832 218.359 108.107 218.359 99.7721Z" fill="#BA7AB8"/>
<path d="M298.356 174.344L302.266 150.202L253.797 142.351L257.882 117.151L327.272 52.7875L346.485 55.9023L334.579 129.397L350.085 131.91L345.971 157.285L330.465 154.772L326.554 178.914L298.356 174.344ZM285.76 121.479L309.728 125.36L314.784 94.1635L285.76 121.479Z" fill="#BA7AB8"/>
<path d="M160.4 28.305C158.362 28.305 156.509 27.9072 154.85 27.1115C153.19 26.3158 151.764 25.2581 150.58 23.9384C149.386 22.6187 148.465 21.1147 147.815 19.4068C147.164 17.7087 146.834 15.9718 146.834 14.196C146.834 12.4203 147.184 10.5669 147.873 8.86877C148.562 7.17064 149.522 5.66659 150.735 4.35661C151.948 3.04662 153.394 2.00834 155.063 1.24176C156.732 0.475179 158.556 0.0870361 160.516 0.0870361C162.477 0.0870361 164.369 0.494586 166.028 1.31939C167.687 2.14419 169.104 3.22129 170.278 4.55068C171.452 5.88007 172.365 7.40353 173.024 9.10165C173.675 10.7998 174.004 12.527 174.004 14.2737C174.004 16.127 173.665 17.9028 172.986 19.5815C172.306 21.2699 171.365 22.7546 170.162 24.0451C168.959 25.3357 167.522 26.374 165.853 27.1406C164.184 27.9169 162.36 28.2953 160.4 28.2953V28.305ZM152.327 14.196C152.327 15.3993 152.511 16.5637 152.88 17.6893C153.249 18.8149 153.773 19.8047 154.471 20.6683C155.16 21.5319 156.014 22.2209 157.023 22.7449C158.032 23.2689 159.168 23.5309 160.449 23.5309C161.729 23.5309 162.913 23.2592 163.913 22.7255C164.922 22.1918 165.766 21.4737 166.465 20.5907C167.154 19.7077 167.678 18.6985 168.037 17.5923C168.386 16.4861 168.57 15.3507 168.57 14.2057C168.57 13.0607 168.376 11.8381 167.998 10.7124C167.62 9.58683 167.086 8.59706 166.387 7.73345C165.698 6.86983 164.844 6.18088 163.835 5.67629C162.826 5.17171 161.7 4.90971 160.449 4.90971C159.197 4.90971 157.984 5.18141 156.955 5.71511C155.936 6.2488 155.082 6.95716 154.403 7.83048C153.724 8.7038 153.21 9.70327 152.851 10.8095C152.501 11.9254 152.317 13.051 152.317 14.196H152.327Z" fill="#BA7AB8"/>
<path d="M187.133 28.4994C185.464 28.4994 183.96 28.2082 182.621 27.6357C181.292 27.0632 180.156 26.2869 179.234 25.3069C178.303 24.3268 177.595 23.2012 177.1 21.9203C176.605 20.6395 176.353 19.2907 176.353 17.8836C176.353 16.4766 176.605 15.089 177.1 13.8081C177.595 12.5273 178.313 11.4017 179.234 10.4216C180.166 9.44154 181.292 8.66525 182.621 8.09274C183.95 7.52023 185.454 7.22913 187.133 7.22913C188.812 7.22913 190.306 7.52023 191.626 8.09274C192.946 8.66525 194.071 9.44154 194.993 10.4216C195.925 11.4017 196.633 12.5273 197.128 13.8081C197.623 15.089 197.875 16.4475 197.875 17.8836C197.875 19.3198 197.623 20.6395 197.128 21.9203C196.633 23.2012 195.925 24.3268 195.012 25.3069C194.1 26.2869 192.975 27.0632 191.645 27.6357C190.316 28.2082 188.812 28.4994 187.133 28.4994ZM181.767 17.8739C181.767 18.7861 181.903 19.6206 182.175 20.3678C182.446 21.1149 182.825 21.7554 183.31 22.3085C183.795 22.8616 184.358 23.2788 185.018 23.5796C185.668 23.8805 186.376 24.026 187.133 24.026C187.89 24.026 188.598 23.8805 189.249 23.5796C189.899 23.2788 190.471 22.8519 190.956 22.3085C191.442 21.7554 191.82 21.1052 192.092 20.3484C192.363 19.5915 192.499 18.757 192.499 17.8351C192.499 16.9133 192.363 16.1273 192.092 15.3704C191.82 14.6135 191.442 13.9634 190.956 13.4103C190.471 12.8572 189.908 12.4399 189.249 12.1391C188.598 11.8383 187.89 11.6928 187.133 11.6928C186.376 11.6928 185.668 11.848 185.018 12.1585C184.368 12.4691 183.795 12.9057 183.31 13.4491C182.825 14.0022 182.446 14.6524 182.175 15.4092C181.903 16.1661 181.767 16.9909 181.767 17.8739Z" fill="#BA7AB8"/>
<path d="M213.711 28.4994C212.091 28.4994 210.684 28.1404 209.481 27.4223C208.277 26.7043 207.336 25.7339 206.657 24.5015V36.4563H201.407V7.56881H205.997V11.1009C206.754 9.89767 207.734 8.95642 208.937 8.25776C210.14 7.56881 211.528 7.21948 213.09 7.21948C214.478 7.21948 215.759 7.50089 216.933 8.06369C218.107 8.6265 219.126 9.38338 219.97 10.3343C220.814 11.2853 221.484 12.4109 221.969 13.7015C222.454 14.992 222.697 16.3602 222.697 17.7964C222.697 19.2325 222.474 20.688 222.027 21.9883C221.581 23.2983 220.96 24.4336 220.164 25.3943C219.369 26.3646 218.418 27.1215 217.321 27.6649C216.225 28.218 215.021 28.4897 213.711 28.4897V28.4994ZM211.945 24.0358C212.731 24.0358 213.449 23.8708 214.119 23.5215C214.788 23.1819 215.351 22.7258 215.827 22.1533C216.293 21.5808 216.661 20.9112 216.923 20.1543C217.185 19.3975 217.311 18.6115 217.311 17.8061C217.311 16.9425 217.166 16.1371 216.884 15.3996C216.593 14.6524 216.195 14.012 215.691 13.4589C215.177 12.9058 214.585 12.4788 213.886 12.1683C213.197 11.8578 212.44 11.7025 211.635 11.7025C211.14 11.7025 210.626 11.7899 210.102 11.9548C209.578 12.1295 209.092 12.3624 208.646 12.6826C208.2 12.9931 207.802 13.3618 207.453 13.7791C207.103 14.1964 206.832 14.6524 206.647 15.1473V19.97C207.123 21.1441 207.841 22.1242 208.801 22.8908C209.772 23.6573 210.81 24.0455 211.936 24.0455L211.945 24.0358Z" fill="#BA7AB8"/>
<path d="M234.011 28.4993C232.284 28.4993 230.605 28.2276 228.956 27.6745C227.306 27.1214 225.899 26.3451 224.725 25.3263L226.685 22.0368C227.937 22.9295 229.16 23.599 230.353 24.0551C231.547 24.5112 232.721 24.7441 233.905 24.7441C234.953 24.7441 235.768 24.55 236.369 24.1521C236.971 23.764 237.272 23.2012 237.272 22.4637C237.272 21.7263 236.922 21.1926 236.214 20.8529C235.506 20.5133 234.361 20.1252 232.769 19.6788C231.44 19.3101 230.305 18.9607 229.363 18.6211C228.422 18.2815 227.665 17.8933 227.093 17.4664C226.52 17.0394 226.103 16.5348 225.841 15.9817C225.579 15.4286 225.453 14.7494 225.453 13.9634C225.453 12.9154 225.657 11.9742 226.064 11.1397C226.472 10.3052 227.035 9.58709 227.772 9.00487C228.5 8.41296 229.363 7.96659 230.343 7.65608C231.324 7.34556 232.391 7.19031 233.536 7.19031C235.079 7.19031 236.525 7.41349 237.864 7.85985C239.213 8.30622 240.445 9.02428 241.57 10.014L239.455 13.1871C238.407 12.4011 237.398 11.8286 236.418 11.4599C235.438 11.0911 234.467 10.9068 233.497 10.9068C232.604 10.9068 231.867 11.0911 231.265 11.4599C230.664 11.8286 230.363 12.4108 230.363 13.2259C230.363 13.5947 230.431 13.8955 230.576 14.1284C230.722 14.3612 230.945 14.5747 231.265 14.7591C231.576 14.9435 231.993 15.1181 232.498 15.2928C233.012 15.4675 233.643 15.6421 234.4 15.8265C235.807 16.1952 237.02 16.5543 238.029 16.923C239.038 17.2917 239.853 17.709 240.493 18.1747C241.134 18.6405 241.6 19.1839 241.91 19.8049C242.211 20.4163 242.356 21.1537 242.356 22.0174C242.356 24.026 241.609 25.6174 240.125 26.7818C238.64 27.9462 236.612 28.5285 234.05 28.5285L234.011 28.4993Z" fill="#BA7AB8"/>
<path d="M246.752 17.6411V0H252.002V17.6411H246.752ZM246.752 28.1112V22.1921H252.002V28.1112H246.752Z" fill="#BA7AB8"/>
<path d="M220.485 262.53H186.027V265.354H220.485V262.53Z" fill="#37474F"/>
<path d="M220.485 266.208H186.027V269.031H220.485V266.208Z" fill="#37474F"/>
<path d="M220.485 269.885H186.027V272.709H220.485V269.885Z" fill="#37474F"/>
<path d="M220.485 273.563H186.027V276.387H220.485V273.563Z" fill="#37474F"/>
<path d="M220.485 277.241H186.027V280.064H220.485V277.241Z" fill="#37474F"/>
<path d="M235.409 350.59H169.89V353.414H235.409V350.59Z" fill="#37474F"/>
<path d="M235.409 354.268H169.89V357.091H235.409V354.268Z" fill="#37474F"/>
<path d="M235.409 357.945H169.89V360.769H235.409V357.945Z" fill="#37474F"/>
<path d="M235.409 361.623H169.89V364.447H235.409V361.623Z" fill="#37474F"/>
<path d="M235.409 365.301H169.89V368.124H235.409V365.301Z" fill="#37474F"/>
<path d="M141.149 239.193C141.178 238.815 126.807 234.002 126.807 234.002L127.651 184.62L146.709 180.535L141.139 239.193H141.149Z" fill="#FFC727"/>
<path opacity="0.2" d="M141.149 239.193C141.178 238.815 126.807 234.002 126.807 234.002L127.651 184.62L146.709 180.535L141.139 239.193H141.149Z" fill="black"/>
<path d="M272.787 258.581C272.884 258.212 288.041 258.639 288.041 258.639L304.236 211.984L287.75 201.582L272.787 258.581Z" fill="#FFC727"/>
<path opacity="0.2" d="M272.787 258.581C272.884 258.212 288.041 258.639 288.041 258.639L304.236 211.984L287.75 201.582L272.787 258.581Z" fill="black"/>
<path d="M138.383 257.377C138.383 257.377 143.71 177.517 148.387 151.25C148.387 151.25 244.86 158.547 296.939 178.449C296.939 178.449 270.089 271.729 268.702 276.358C268.702 276.358 200.767 262.976 138.393 257.377H138.383Z" fill="#FFC727"/>
<path opacity="0.1" d="M224.492 161.914C222.92 171.53 221.339 181.146 219.699 190.743L214.73 219.543L214.459 219.136L246.781 226.811L262.928 230.722L279.055 234.71L262.841 231.081L246.645 227.374L214.294 219.815L213.964 219.737L214.022 219.407L219.175 190.636C220.902 181.049 222.687 171.472 224.492 161.894V161.914Z" fill="black"/>
<path opacity="0.1" d="M220.941 167.396C220.96 168.279 220.252 169.182 219.243 169.269C218.758 169.318 218.224 169.162 217.826 168.813C217.428 168.464 217.186 167.93 217.186 167.396C217.186 166.853 217.428 166.319 217.826 165.98C218.224 165.63 218.758 165.475 219.243 165.523C220.252 165.611 220.951 166.523 220.941 167.396ZM220.941 167.396C220.941 166.95 220.737 166.513 220.407 166.232C220.077 165.95 219.641 165.834 219.243 165.882C218.428 165.98 217.904 166.707 217.913 167.396C217.904 168.085 218.428 168.813 219.243 168.91C219.641 168.959 220.077 168.842 220.407 168.561C220.737 168.279 220.931 167.843 220.941 167.396Z" fill="black"/>
<path opacity="0.1" d="M219.252 179.273C219.272 180.156 218.563 181.059 217.554 181.146C217.069 181.195 216.535 181.039 216.138 180.69C215.74 180.341 215.497 179.807 215.497 179.273C215.497 178.73 215.74 178.196 216.138 177.857C216.535 177.507 217.069 177.352 217.554 177.401C218.563 177.488 219.262 178.4 219.252 179.273ZM219.252 179.273C219.252 178.827 219.049 178.39 218.719 178.109C218.389 177.828 217.952 177.711 217.554 177.76C216.739 177.857 216.215 178.584 216.225 179.273C216.215 179.962 216.739 180.69 217.554 180.787C217.952 180.836 218.389 180.719 218.719 180.438C219.049 180.156 219.243 179.72 219.252 179.273Z" fill="black"/>
<path opacity="0.1" d="M217.166 191.83C217.185 192.713 216.477 193.615 215.468 193.703C214.983 193.751 214.449 193.596 214.051 193.247C213.653 192.897 213.411 192.364 213.411 191.83C213.411 191.296 213.653 190.753 214.051 190.413C214.449 190.064 214.983 189.909 215.468 189.957C216.477 190.044 217.176 190.957 217.166 191.83ZM217.166 191.83C217.166 191.383 216.962 190.947 216.632 190.665C216.302 190.384 215.866 190.268 215.468 190.316C214.653 190.413 214.129 191.141 214.138 191.83C214.129 192.519 214.653 193.247 215.468 193.344C215.866 193.392 216.302 193.276 216.632 192.994C216.962 192.713 217.156 192.276 217.166 191.83Z" fill="black"/>
<path opacity="0.1" d="M215.08 204.386C215.099 205.269 214.391 206.172 213.382 206.259C212.897 206.308 212.363 206.152 211.965 205.803C211.567 205.454 211.325 204.92 211.325 204.386C211.325 203.843 211.567 203.309 211.965 202.97C212.363 202.62 212.897 202.465 213.382 202.513C214.391 202.601 215.09 203.513 215.08 204.386ZM215.08 204.386C215.08 203.94 214.876 203.503 214.546 203.222C214.216 202.94 213.78 202.824 213.382 202.872C212.567 202.97 212.043 203.697 212.052 204.386C212.043 205.075 212.567 205.803 213.382 205.9C213.78 205.949 214.216 205.832 214.546 205.551C214.876 205.269 215.07 204.833 215.08 204.386Z" fill="black"/>
<path opacity="0.1" d="M222.183 224.414C222.202 225.297 221.494 226.2 220.485 226.287C220 226.336 219.466 226.18 219.068 225.831C218.67 225.482 218.428 224.948 218.428 224.414C218.428 223.871 218.67 223.337 219.068 222.998C219.466 222.648 220 222.493 220.485 222.542C221.494 222.629 222.193 223.541 222.183 224.414ZM222.183 224.414C222.183 223.968 221.979 223.531 221.649 223.25C221.319 222.969 220.883 222.852 220.485 222.901C219.67 222.998 219.146 223.725 219.156 224.414C219.146 225.103 219.67 225.831 220.485 225.928C220.883 225.977 221.319 225.86 221.649 225.579C221.979 225.297 222.173 224.861 222.183 224.414Z" fill="black"/>
<path opacity="0.1" d="M234.04 227.306C234.06 228.189 233.351 229.091 232.342 229.179C231.857 229.227 231.323 229.072 230.926 228.723C230.528 228.373 230.285 227.84 230.285 227.306C230.285 226.763 230.528 226.229 230.926 225.889C231.323 225.54 231.857 225.385 232.342 225.433C233.351 225.521 234.05 226.433 234.04 227.306ZM234.04 227.306C234.04 226.86 233.837 226.423 233.507 226.142C233.177 225.86 232.74 225.744 232.342 225.792C231.527 225.889 231.003 226.617 231.013 227.306C231.003 227.995 231.527 228.723 232.342 228.82C232.74 228.868 233.177 228.752 233.507 228.47C233.837 228.189 234.031 227.752 234.04 227.306Z" fill="black"/>
<path opacity="0.1" d="M245.889 230.198C245.908 231.081 245.2 231.983 244.19 232.071C243.705 232.119 243.172 231.964 242.774 231.614C242.376 231.265 242.133 230.731 242.133 230.198C242.133 229.654 242.376 229.121 242.774 228.781C243.172 228.432 243.705 228.276 244.19 228.325C245.2 228.412 245.898 229.324 245.889 230.198ZM245.889 230.198C245.889 229.751 245.685 229.315 245.355 229.033C245.025 228.752 244.588 228.635 244.19 228.684C243.375 228.781 242.851 229.509 242.861 230.198C242.851 230.887 243.375 231.614 244.19 231.711C244.588 231.76 245.025 231.644 245.355 231.362C245.685 231.081 245.879 230.644 245.889 230.198Z" fill="black"/>
<path opacity="0.1" d="M257.737 233.08C257.756 233.963 257.048 234.865 256.039 234.952C255.553 235.001 255.02 234.846 254.622 234.496C254.224 234.147 253.981 233.613 253.981 233.08C253.981 232.536 254.224 232.003 254.622 231.663C255.02 231.314 255.553 231.158 256.039 231.207C257.048 231.294 257.746 232.206 257.737 233.08ZM257.737 233.08C257.737 232.633 257.533 232.197 257.203 231.915C256.873 231.634 256.436 231.517 256.039 231.566C255.223 231.663 254.7 232.391 254.709 233.08C254.7 233.769 255.223 234.496 256.039 234.593C256.436 234.642 256.873 234.526 257.203 234.244C257.533 233.963 257.727 233.526 257.737 233.08Z" fill="black"/>
<path opacity="0.1" d="M269.585 236.107C269.536 236.99 268.76 237.834 267.751 237.844C267.256 237.844 266.742 237.66 266.373 237.281C266.004 236.903 265.81 236.359 265.849 235.816C265.898 235.282 266.169 234.768 266.596 234.448C267.023 234.128 267.567 234.021 268.052 234.098C269.051 234.263 269.682 235.224 269.595 236.097L269.585 236.107ZM269.585 236.107C269.614 235.661 269.449 235.214 269.148 234.904C268.838 234.603 268.411 234.448 268.013 234.467C267.198 234.496 266.616 235.185 266.567 235.874C266.499 236.553 266.975 237.33 267.78 237.485C268.168 237.563 268.615 237.485 268.964 237.223C269.313 236.971 269.546 236.544 269.585 236.107Z" fill="black"/>
<path opacity="0.1" d="M212.994 216.943C213.013 217.826 212.305 218.728 211.295 218.815C210.81 218.864 210.277 218.709 209.879 218.359C209.481 218.01 209.238 217.476 209.238 216.943C209.238 216.399 209.481 215.866 209.879 215.526C210.277 215.177 210.81 215.021 211.295 215.07C212.305 215.157 213.003 216.069 212.994 216.943ZM212.994 216.943C212.994 216.496 212.79 216.06 212.46 215.778C212.13 215.497 211.693 215.38 211.295 215.429C210.48 215.526 209.956 216.254 209.966 216.943C209.956 217.632 210.48 218.359 211.295 218.456C211.693 218.505 212.13 218.388 212.46 218.107C212.79 217.826 212.984 217.389 212.994 216.943Z" fill="black"/>
<path opacity="0.2" d="M193.039 237.746C204.289 227.63 205.209 210.31 195.093 199.06C184.978 187.81 167.658 186.89 156.408 197.006C145.158 207.121 144.238 224.441 154.353 235.691C164.469 246.941 181.789 247.861 193.039 237.746Z" fill="black"/>
<path d="M195.262 225.135C199.557 213.788 193.839 201.107 182.492 196.812C171.144 192.518 158.463 198.235 154.169 209.583C149.874 220.93 155.592 233.611 166.939 237.905C178.287 242.2 190.967 236.483 195.262 225.135Z" fill="#BA7AB8"/>
<path d="M173.397 209.303L168.263 208.471L167.431 213.605L172.565 214.437L173.397 209.303Z" fill="#FFC727"/>
<path d="M169.099 203.336L163.964 202.504L163.133 207.638L168.267 208.47L169.099 203.336Z" fill="#FFC727"/>
<path d="M189.64 206.664L184.506 205.833L183.674 210.967L188.809 211.799L189.64 206.664Z" fill="#FFC727"/>
<path d="M165.788 223.766L160.654 222.934L159.822 228.068L164.956 228.9L165.788 223.766Z" fill="#FFC727"/>
<path d="M186.33 227.094L181.196 226.263L180.364 231.397L185.498 232.229L186.33 227.094Z" fill="#FFC727"/>
<path d="M171.755 219.467L166.621 218.635L165.789 223.77L170.923 224.601L171.755 219.467Z" fill="#FFC727"/>
<path d="M177.714 215.215L172.58 214.383L171.749 219.518L176.883 220.349L177.714 215.215Z" fill="#FFC727"/>
<path d="M183.672 210.972L178.538 210.141L177.706 215.275L182.84 216.107L183.672 210.972Z" fill="#FFC727"/>
<path d="M182.032 221.116L176.897 220.285L176.066 225.419L181.2 226.25L182.032 221.116Z" fill="#FFC727"/>
<path d="M269.423 246.2C279.012 234.498 277.298 217.238 265.596 207.65C253.893 198.061 236.634 199.775 227.045 211.477C217.457 223.18 219.171 240.439 230.873 250.028C242.575 259.616 259.835 257.902 269.423 246.2Z" fill="#FFC727"/>
<path opacity="0.2" d="M269.423 246.2C279.012 234.498 277.298 217.238 265.596 207.65C253.893 198.061 236.634 199.775 227.045 211.477C217.457 223.18 219.171 240.439 230.873 250.028C242.575 259.616 259.835 257.902 269.423 246.2Z" fill="black"/>
<path opacity="0.2" d="M274.893 235.195C274.767 235.738 274.621 236.253 274.466 236.777L221.067 225.385C221.194 224.434 221.368 223.483 221.591 222.513C225.085 207.792 239.853 198.7 254.583 202.193C269.304 205.687 278.396 220.455 274.903 235.185L274.893 235.195Z" fill="black"/>
<path d="M256.716 249.102C267.911 244.423 273.193 231.556 268.515 220.361C263.837 209.166 250.969 203.883 239.774 208.562C228.579 213.24 223.296 226.108 227.975 237.303C232.653 248.497 245.521 253.78 256.716 249.102Z" fill="#BA7AB8"/>
<path d="M253.752 216.86L248.692 215.657L242.703 240.854L247.763 242.057L253.752 216.86Z" fill="#FFC727"/>
<path d="M276.474 234.681L220.388 221.348C224.065 205.861 239.61 196.293 255.097 199.971C270.584 203.649 280.162 219.184 276.474 234.671V234.681Z" fill="#FFC727"/>
<path opacity="0.2" d="M276.474 234.681L220.388 221.348C224.065 205.861 239.61 196.293 255.097 199.971C270.584 203.649 280.162 219.184 276.474 234.671V234.681Z" fill="black"/>
<path opacity="0.1" d="M200.573 245.141C200.719 242.948 201.524 240.726 203.106 238.97C203.892 238.087 204.93 237.388 206.085 236.971C207.24 236.544 208.491 236.466 209.675 236.573C210.878 236.719 212.111 237.136 213.12 237.902C214.11 238.679 214.857 239.688 215.303 240.784C216.215 242.958 216.322 245.277 215.876 247.431C215.507 245.277 214.954 243.191 213.945 241.473C212.945 239.746 211.354 238.669 209.471 238.504C207.54 238.261 205.668 238.785 204.154 240.057C202.64 241.337 201.485 243.162 200.583 245.141H200.573Z" fill="black"/>
<path d="M145.884 189.268C146.107 186.338 146.437 183.427 146.718 180.506C147.029 177.595 147.349 174.674 147.708 171.773C148.048 168.861 148.426 165.96 148.795 163.049C149.164 160.138 149.581 157.246 149.969 154.335L150.076 153.559L150.862 153.607C157.179 154.005 163.486 154.52 169.784 155.16C172.937 155.48 176.081 155.849 179.216 156.257C182.35 156.703 185.494 157.12 188.609 157.693L169.667 156.519L150.745 155.296L151.638 154.568C151.211 157.469 150.813 160.371 150.357 163.263C149.911 166.154 149.464 169.056 148.989 171.947C148.523 174.839 148.028 177.731 147.514 180.613C146.971 183.494 146.476 186.386 145.884 189.258V189.268Z" fill="white"/>
<path d="M150.444 211.402C151.085 207.88 152.676 204.532 154.83 201.611C155.364 200.874 155.975 200.194 156.558 199.496C157.188 198.845 157.848 198.205 158.498 197.565C159.207 196.992 159.925 196.42 160.652 195.866C161.429 195.372 162.186 194.867 162.972 194.392C163.796 193.994 164.621 193.586 165.456 193.208L168.056 192.305L170.754 191.752C171.656 191.616 172.578 191.597 173.481 191.519C177.129 191.422 180.729 192.208 184.028 193.538C180.516 192.878 177.013 192.519 173.568 192.849C170.123 193.169 166.785 194.197 163.796 195.886C160.779 197.526 158.12 199.796 155.859 202.436C153.617 205.085 151.754 208.083 150.435 211.402H150.444Z" fill="white"/>
<path d="M226.006 218.806C227.122 215.409 229.17 212.304 231.702 209.713C232.333 209.063 233.032 208.471 233.701 207.86C234.419 207.297 235.157 206.764 235.894 206.22C236.68 205.745 237.466 205.279 238.262 204.833C239.096 204.454 239.921 204.056 240.765 203.697C241.639 203.416 242.512 203.125 243.395 202.863L246.093 202.329L248.839 202.154C249.751 202.154 250.663 202.251 251.575 202.31C255.204 202.717 258.659 203.988 261.745 205.764C258.358 204.629 254.942 203.785 251.478 203.629C248.024 203.474 244.569 204.027 241.377 205.289C238.165 206.502 235.205 208.384 232.614 210.674C230.024 212.984 227.772 215.701 226.006 218.806Z" fill="white"/>
<path d="M141.449 306.594C134.434 306.594 119.073 305.012 109.185 292.31C96.5413 276.047 101.112 244.85 101.306 243.521L106.798 244.355C106.749 244.656 102.393 274.524 113.571 288.895C124.497 302.945 144.322 300.927 144.525 300.908L145.146 306.429C144.933 306.458 143.574 306.594 141.449 306.594Z" fill="#FFC727"/>
<path opacity="0.4" d="M141.449 306.594C134.434 306.594 119.073 305.012 109.185 292.31C96.5413 276.047 101.112 244.85 101.306 243.521L106.798 244.355C106.749 244.656 102.393 274.524 113.571 288.895C124.497 302.945 144.322 300.927 144.525 300.908L145.146 306.429C144.933 306.458 143.574 306.594 141.449 306.594Z" fill="white"/>
<path d="M108.409 248.13C107.409 248.13 106.381 248.043 105.342 247.878C96.0755 246.374 91.9806 240.833 90.166 236.447C88.3515 232.051 87.9342 226.734 88.924 220.64L100.675 222.542C100.064 226.316 100.238 229.635 101.18 231.906C101.849 233.516 103.14 235.457 107.254 236.127C109.137 236.427 111.165 236.272 113.299 233.06C114.939 230.586 115.929 227.209 116.278 225.074L128.029 226.976C127.758 228.655 126.603 234.535 123.226 239.639C119.548 245.19 114.367 248.13 108.428 248.13H108.409Z" fill="#FFC727"/>
<path d="M153.055 322.488C153.035 322.236 143.099 320.645 143.099 320.645L138.276 288.225L150.309 283.47L153.055 322.479V322.488Z" fill="#FFC727"/>
<path opacity="0.2" d="M153.055 322.488C153.035 322.236 143.099 320.645 143.099 320.645L138.276 288.225L150.309 283.47L153.055 322.479V322.488Z" fill="black"/>
<path d="M251.245 322.547C251.274 322.294 261.24 320.926 261.24 320.926L266.781 288.623L254.855 283.606L251.245 322.547Z" fill="#FFC727"/>
<path opacity="0.2" d="M251.245 322.547C251.274 322.294 261.24 320.926 261.24 320.926L266.781 288.623L254.855 283.606L251.245 322.547Z" fill="black"/>
<path d="M148.921 276.222C148.921 276.222 229.257 272.787 256.388 277.309C256.388 277.309 248.422 355.044 247.985 356.548C247.985 356.548 168.076 356.335 155.588 356.548C155.588 356.548 148.814 304.857 148.921 276.222Z" fill="#FFC727"/>
<path opacity="0.2" d="M173.316 297.521C173.316 297.521 217.166 295.794 231.984 298.074C231.984 298.074 227.637 337.267 227.394 338.034C227.394 338.034 183.767 337.927 176.955 338.034C176.955 338.034 173.956 311.203 173.316 297.531V297.521Z" fill="black"/>
<path opacity="0.2" d="M179.313 338.014C178.313 338.014 177.508 338.024 176.955 338.033C176.955 338.033 173.966 311.203 173.316 297.521C173.316 297.521 174.315 297.482 176.052 297.424L179.313 338.014Z" fill="black"/>
<path d="M192.248 307.196C189.793 306.419 187.173 307.788 186.396 310.243C185.62 312.707 186.988 315.318 189.443 316.094C191.898 316.87 194.518 315.502 195.285 313.047C196.061 310.592 194.693 307.972 192.238 307.196H192.248ZM194.751 312.872C194.072 315.036 191.772 316.23 189.618 315.55C187.464 314.871 186.26 312.571 186.94 310.408C187.619 308.253 189.919 307.05 192.083 307.729C194.237 308.409 195.43 310.708 194.751 312.863V312.872ZM192.248 307.196C189.793 306.419 187.173 307.788 186.396 310.243C185.62 312.707 186.988 315.318 189.443 316.094C191.898 316.87 194.518 315.502 195.285 313.047C196.061 310.592 194.693 307.972 192.238 307.196H192.248ZM194.751 312.872C194.072 315.036 191.772 316.23 189.618 315.55C187.464 314.871 186.26 312.571 186.94 310.408C187.619 308.253 189.919 307.05 192.083 307.729C194.237 308.409 195.43 310.708 194.751 312.863V312.872ZM192.248 307.196C189.793 306.419 187.173 307.788 186.396 310.243C185.62 312.707 186.988 315.318 189.443 316.094C191.898 316.87 194.518 315.502 195.285 313.047C196.061 310.592 194.693 307.972 192.238 307.196H192.248ZM194.751 312.872C194.072 315.036 191.772 316.23 189.618 315.55C187.464 314.871 186.26 312.571 186.94 310.408C187.619 308.253 189.919 307.05 192.083 307.729C194.237 308.409 195.43 310.708 194.751 312.863V312.872ZM193.8 302.266C188.618 300.636 183.097 303.518 181.467 308.69C179.837 313.872 182.709 319.393 187.891 321.023C193.063 322.653 198.584 319.781 200.224 314.599C201.854 309.427 198.982 303.896 193.81 302.266H193.8ZM195.983 313.26C195.091 316.094 192.063 317.675 189.22 316.783C186.387 315.89 184.805 312.863 185.698 310.019C186.59 307.186 189.628 305.604 192.461 306.497C195.294 307.39 196.876 310.417 195.983 313.251V313.26ZM195.294 313.047C196.071 310.592 194.703 307.972 192.248 307.196C189.793 306.419 187.173 307.788 186.396 310.243C185.62 312.707 186.988 315.318 189.443 316.094C191.898 316.87 194.518 315.502 195.285 313.047H195.294ZM194.751 312.872C194.072 315.036 191.772 316.23 189.618 315.55C187.464 314.871 186.26 312.571 186.94 310.408C187.619 308.253 189.919 307.05 192.083 307.729C194.237 308.409 195.43 310.708 194.751 312.863V312.872ZM192.248 307.196C189.793 306.419 187.173 307.788 186.396 310.243C185.62 312.707 186.988 315.318 189.443 316.094C191.898 316.87 194.518 315.502 195.285 313.047C196.061 310.592 194.693 307.972 192.238 307.196H192.248ZM194.751 312.872C194.072 315.036 191.772 316.23 189.618 315.55C187.464 314.871 186.26 312.571 186.94 310.408C187.619 308.253 189.919 307.05 192.083 307.729C194.237 308.409 195.43 310.708 194.751 312.863V312.872ZM192.248 307.196C189.793 306.419 187.173 307.788 186.396 310.243C185.62 312.707 186.988 315.318 189.443 316.094C191.898 316.87 194.518 315.502 195.285 313.047C196.061 310.592 194.693 307.972 192.238 307.196H192.248ZM194.751 312.872C194.072 315.036 191.772 316.23 189.618 315.55C187.464 314.871 186.26 312.571 186.94 310.408C187.619 308.253 189.919 307.05 192.083 307.729C194.237 308.409 195.43 310.708 194.751 312.863V312.872Z" fill="#FFC727"/>
<path d="M189.812 321.198L186.212 320.062L185.61 322.673L188.813 323.692L189.812 321.198Z" fill="#FFC727"/>
<path d="M183.339 317.821L181.593 314.473L179.312 315.89L180.865 318.869L183.339 317.821Z" fill="#FFC727"/>
<path d="M181.147 310.854L182.282 307.244L179.662 306.643L178.653 309.845L181.147 310.854Z" fill="#FFC727"/>
<path d="M184.524 304.372L187.871 302.625L186.455 300.355L183.466 301.907L184.524 304.372Z" fill="#FFC727"/>
<path d="M191.491 302.179L195.091 303.314L195.702 300.704L192.49 299.685L191.491 302.179Z" fill="#FFC727"/>
<path d="M197.973 305.556L199.719 308.913L201.99 307.487L200.437 304.508L197.973 305.556Z" fill="#FFC727"/>
<path d="M200.166 312.523L199.03 316.133L201.641 316.734L202.65 313.532L200.166 312.523Z" fill="#FFC727"/>
<path d="M196.789 319.005L193.431 320.752L194.858 323.032L197.837 321.479L196.789 319.005Z" fill="#FFC727"/>
<path d="M208.103 320.916C206.648 319.965 204.707 320.383 203.756 321.838C202.805 323.294 203.222 325.235 204.678 326.185C206.133 327.136 208.074 326.719 209.025 325.264C209.966 323.808 209.559 321.867 208.113 320.916H208.103ZM208.695 325.05C207.861 326.331 206.153 326.69 204.882 325.856C203.601 325.021 203.242 323.313 204.076 322.042C204.911 320.761 206.619 320.402 207.89 321.237C209.161 322.071 209.53 323.769 208.695 325.05ZM208.103 320.916C206.648 319.965 204.707 320.383 203.756 321.838C202.805 323.294 203.222 325.235 204.678 326.185C206.133 327.136 208.074 326.719 209.025 325.264C209.966 323.808 209.559 321.867 208.113 320.916H208.103ZM208.695 325.05C207.861 326.331 206.153 326.69 204.882 325.856C203.601 325.021 203.242 323.313 204.076 322.042C204.911 320.761 206.619 320.402 207.89 321.237C209.161 322.071 209.53 323.769 208.695 325.05ZM208.103 320.916C206.648 319.965 204.707 320.383 203.756 321.838C202.805 323.294 203.222 325.235 204.678 326.185C206.133 327.136 208.074 326.719 209.025 325.264C209.966 323.808 209.559 321.867 208.113 320.916H208.103ZM208.695 325.05C207.861 326.331 206.153 326.69 204.882 325.856C203.601 325.021 203.242 323.313 204.076 322.042C204.911 320.761 206.619 320.402 207.89 321.237C209.161 322.071 209.53 323.769 208.695 325.05ZM209.995 317.996C206.929 315.997 202.834 316.87 200.835 319.927C198.846 322.993 199.71 327.088 202.766 329.087C205.833 331.076 209.927 330.212 211.926 327.146C213.925 324.09 213.052 319.985 209.995 317.986V317.996ZM209.423 325.526C208.326 327.204 206.075 327.68 204.406 326.583C202.727 325.497 202.252 323.236 203.348 321.567C204.445 319.888 206.696 319.412 208.365 320.509C210.044 321.596 210.519 323.847 209.423 325.526ZM209.015 325.264C209.957 323.808 209.549 321.867 208.103 320.916C206.648 319.965 204.707 320.383 203.756 321.838C202.805 323.294 203.222 325.235 204.678 326.185C206.133 327.136 208.074 326.719 209.025 325.264H209.015ZM208.695 325.05C207.861 326.331 206.153 326.69 204.882 325.856C203.601 325.021 203.242 323.313 204.076 322.042C204.911 320.761 206.619 320.402 207.89 321.237C209.161 322.071 209.53 323.769 208.695 325.05ZM208.103 320.916C206.648 319.965 204.707 320.383 203.756 321.838C202.805 323.294 203.222 325.235 204.678 326.185C206.133 327.136 208.074 326.719 209.025 325.264C209.966 323.808 209.559 321.867 208.113 320.916H208.103ZM208.695 325.05C207.861 326.331 206.153 326.69 204.882 325.856C203.601 325.021 203.242 323.313 204.076 322.042C204.911 320.761 206.619 320.402 207.89 321.237C209.161 322.071 209.53 323.769 208.695 325.05ZM208.103 320.916C206.648 319.965 204.707 320.383 203.756 321.838C202.805 323.294 203.222 325.235 204.678 326.185C206.133 327.136 208.074 326.719 209.025 325.264C209.966 323.808 209.559 321.867 208.113 320.916H208.103ZM208.695 325.05C207.861 326.331 206.153 326.69 204.882 325.856C203.601 325.021 203.242 323.313 204.076 322.042C204.911 320.761 206.619 320.402 207.89 321.237C209.161 322.071 209.53 323.769 208.695 325.05Z" fill="#DBDBDB"/>
<path d="M203.999 329.553L201.864 328.165L201 329.756L202.893 330.989L203.999 329.553Z" fill="#DBDBDB"/>
<path d="M200.399 326.195L199.875 323.701L198.147 324.216L198.613 326.428L200.399 326.195Z" fill="#DBDBDB"/>
<path d="M200.243 321.275L201.631 319.141L200.039 318.277L198.807 320.179L200.243 321.275Z" fill="#DBDBDB"/>
<path d="M203.601 317.685L206.095 317.161L205.581 315.424L203.368 315.9L203.601 317.685Z" fill="#DBDBDB"/>
<path d="M208.521 317.52L210.655 318.917L211.519 317.326L209.617 316.094L208.521 317.52Z" fill="#DBDBDB"/>
<path d="M212.111 320.887L212.635 323.371L214.372 322.867L213.906 320.654L212.111 320.887Z" fill="#DBDBDB"/>
<path d="M212.276 325.807L210.888 327.932L212.47 328.796L213.702 326.904L212.276 325.807Z" fill="#DBDBDB"/>
<path d="M208.909 329.397L206.425 329.921L206.929 331.658L209.142 331.183L208.909 329.397Z" fill="#DBDBDB"/>
<path d="M254.448 347.504L257.533 348.077L266.364 288.274L262.851 287.633L254.448 347.504Z" fill="#FFC727"/>
<path d="M227.404 338.024L231.994 298.065L262.851 287.624C262.851 287.624 254.448 348.145 254.448 347.495L227.404 338.014V338.024Z" fill="#FFC727"/>
<path opacity="0.4" d="M227.404 338.024L231.994 298.065L262.851 287.624C262.851 287.624 254.448 348.145 254.448 347.495L227.404 338.014V338.024Z" fill="white"/>
<path d="M152.608 299.685C152.104 296.376 151.832 293.038 151.628 289.7C151.531 288.031 151.492 286.352 151.454 284.683C151.425 283.014 151.395 281.336 151.444 279.667V279.23L151.881 279.21C158.013 278.881 164.136 278.483 170.269 278.211C176.401 277.91 182.534 277.629 188.667 277.444C182.554 277.998 176.431 278.473 170.308 278.91C164.185 279.385 158.062 279.734 151.939 280.152L152.375 279.686L152.346 284.683L152.405 289.681C152.405 291.35 152.443 293.019 152.492 294.688L152.599 299.695L152.608 299.685Z" fill="white"/>
<path d="M236.292 298.656C238.204 297.744 240.144 296.9 242.114 296.124C244.074 295.328 246.054 294.571 248.053 293.882C250.052 293.203 252.06 292.534 254.108 291.961C256.145 291.389 258.203 290.855 260.308 290.515L260.823 290.428L260.726 290.923C260.24 293.514 259.736 296.095 259.134 298.666C259.357 296.037 259.678 293.426 260.017 290.816L260.444 291.224C258.406 291.709 256.388 292.281 254.37 292.873C252.351 293.475 250.343 294.106 248.344 294.765L236.292 298.666V298.656Z" fill="white"/>
<path opacity="0.1" d="M165.961 276.387L166.475 286.381L166.922 296.376L167.698 316.375L168.3 336.374L168.542 346.379L168.707 356.383L168.183 346.388L167.737 336.394L166.97 316.395L166.368 296.396L166.126 286.391L165.961 276.387Z" fill="black"/>
<path opacity="0.1" d="M163.098 282.413C163.292 283.276 162.778 284.295 161.808 284.586C161.342 284.732 160.789 284.683 160.323 284.421C159.867 284.159 159.527 283.684 159.42 283.16C159.314 282.636 159.44 282.063 159.76 281.646C160.08 281.229 160.575 280.967 161.06 280.918C162.07 280.802 162.933 281.559 163.088 282.422L163.098 282.413ZM163.098 282.413C163.011 281.976 162.729 281.588 162.351 281.374C161.973 281.161 161.516 281.141 161.148 281.258C160.371 281.51 159.993 282.335 160.139 283.005C160.265 283.684 160.925 284.295 161.74 284.227C162.137 284.198 162.545 283.994 162.807 283.655C163.079 283.315 163.185 282.849 163.098 282.413Z" fill="black"/>
<path opacity="0.1" d="M163.787 294.396C163.981 295.26 163.467 296.279 162.497 296.57C162.031 296.716 161.478 296.667 161.012 296.405C160.556 296.143 160.216 295.668 160.109 295.144C160.003 294.62 160.129 294.047 160.449 293.63C160.769 293.213 161.264 292.951 161.749 292.902C162.759 292.786 163.622 293.543 163.777 294.406L163.787 294.396ZM163.787 294.396C163.7 293.96 163.418 293.572 163.04 293.358C162.661 293.145 162.205 293.125 161.837 293.242C161.06 293.494 160.682 294.319 160.828 294.988C160.954 295.668 161.613 296.279 162.429 296.211C162.826 296.182 163.234 295.978 163.496 295.639C163.768 295.299 163.874 294.833 163.787 294.396Z" fill="black"/>
<path opacity="0.1" d="M164.224 307.108C164.418 307.972 163.904 308.991 162.933 309.282C162.468 309.427 161.915 309.379 161.449 309.117C160.993 308.855 160.653 308.379 160.546 307.855C160.44 307.331 160.566 306.759 160.896 306.342C161.216 305.924 161.711 305.662 162.196 305.614C163.205 305.497 164.069 306.254 164.224 307.118V307.108ZM164.224 307.108C164.137 306.672 163.855 306.283 163.477 306.07C163.098 305.857 162.642 305.837 162.274 305.954C161.497 306.206 161.119 307.031 161.264 307.7C161.391 308.379 162.05 308.991 162.865 308.923C163.263 308.894 163.671 308.69 163.933 308.35C164.205 308.011 164.311 307.545 164.224 307.108Z" fill="black"/>
<path opacity="0.1" d="M164.661 319.83C164.855 320.693 164.34 321.712 163.37 322.003C162.904 322.149 162.351 322.1 161.885 321.838C161.429 321.576 161.09 321.101 160.983 320.577C160.876 320.053 161.002 319.48 161.323 319.063C161.643 318.646 162.138 318.384 162.623 318.335C163.632 318.219 164.496 318.976 164.651 319.839L164.661 319.83ZM164.661 319.83C164.573 319.393 164.292 319.005 163.913 318.791C163.535 318.578 163.079 318.558 162.71 318.675C161.934 318.927 161.555 319.752 161.701 320.422C161.827 321.101 162.487 321.712 163.302 321.644C163.7 321.615 164.108 321.411 164.37 321.072C164.641 320.732 164.748 320.266 164.661 319.83Z" fill="black"/>
<path opacity="0.1" d="M165.097 332.551C165.291 333.415 164.777 334.434 163.807 334.725C163.341 334.87 162.788 334.822 162.322 334.56C161.866 334.298 161.526 333.822 161.419 333.298C161.313 332.774 161.439 332.202 161.759 331.784C162.079 331.367 162.574 331.105 163.059 331.057C164.069 330.94 164.932 331.697 165.087 332.561L165.097 332.551ZM165.097 332.551C165.01 332.114 164.728 331.726 164.35 331.513C163.972 331.299 163.515 331.28 163.147 331.396C162.37 331.649 161.992 332.473 162.138 333.143C162.264 333.822 162.924 334.433 163.739 334.366C164.136 334.336 164.544 334.133 164.806 333.793C165.078 333.453 165.184 332.988 165.097 332.551Z" fill="black"/>
<path opacity="0.1" d="M165.534 345.272C165.728 346.136 165.213 347.155 164.243 347.446C163.777 347.591 163.224 347.543 162.758 347.281C162.302 347.019 161.963 346.544 161.856 346.02C161.749 345.496 161.875 344.923 162.196 344.506C162.516 344.089 163.011 343.827 163.496 343.778C164.505 343.662 165.369 344.418 165.524 345.282L165.534 345.272ZM165.534 345.272C165.446 344.836 165.165 344.448 164.787 344.234C164.408 344.021 163.952 344.001 163.583 344.118C162.807 344.37 162.429 345.195 162.574 345.864C162.7 346.544 163.36 347.155 164.175 347.087C164.573 347.058 164.981 346.854 165.243 346.514C165.514 346.175 165.621 345.709 165.534 345.272Z" fill="black"/>
<path d="M169.481 364.72L123.996 378.505L125.606 383.816L171.091 370.032L169.481 364.72Z" fill="#FFC727"/>
<path opacity="0.4" d="M169.481 364.72L123.996 378.505L125.606 383.816L171.091 370.032L169.481 364.72Z" fill="white"/>
<path d="M147.668 369.514L142.379 371.196L144.878 379.056L150.168 377.374L147.668 369.514Z" fill="#FFC727"/>
<path d="M125.225 391.607L113.493 340.78L78.0654 349.183L95.5027 398.71L125.225 391.607Z" fill="#FFC727"/>
<path d="M133.085 389.026L125.225 391.607L113.493 340.78L124.798 343.468L133.085 389.026Z" fill="#FFC727"/>
<path opacity="0.2" d="M133.085 389.026L125.225 391.607L113.493 340.78L124.798 343.468L133.085 389.026Z" fill="black"/>
<path d="M170.288 373.403C173.616 373.403 176.314 370.705 176.314 367.377C176.314 364.049 173.616 361.351 170.288 361.351C166.96 361.351 164.262 364.049 164.262 367.377C164.262 370.705 166.96 373.403 170.288 373.403Z" fill="#FFC727"/>
<path d="M232.348 364.59L230.727 369.899L276.183 383.779L277.804 378.47L232.348 364.59Z" fill="#FFC727"/>
<path opacity="0.4" d="M232.348 364.59L230.727 369.899L276.183 383.779L277.804 378.47L232.348 364.59Z" fill="white"/>
<path d="M254.127 369.386L251.61 377.24L256.895 378.934L259.413 371.08L254.127 369.386Z" fill="#FFC727"/>
<path d="M276.532 391.558L288.38 340.76L323.789 349.231L306.245 398.729L276.532 391.558Z" fill="#FFC727"/>
<path d="M268.682 388.958L276.532 391.558L288.38 340.76L277.066 343.429L268.682 388.958Z" fill="#FFC727"/>
<path opacity="0.2" d="M268.682 388.958L276.532 391.558L288.38 340.76L277.066 343.429L268.682 388.958Z" fill="black"/>
<path d="M225.501 367.222C225.501 370.55 228.189 373.258 231.518 373.267C234.846 373.267 237.553 370.579 237.563 367.251C237.563 363.923 234.875 361.215 231.547 361.206C228.218 361.206 225.511 363.894 225.501 367.222Z" fill="#FFC727"/>
<path d="M271.011 304.537C271.157 304.401 285.761 290.855 302.946 295.483C320.519 300.228 335.035 326.7 335.171 326.962L340.052 324.322C339.421 323.148 324.284 295.483 304.382 290.117C284.14 284.664 267.857 299.85 267.168 300.5L270.992 304.527L271.011 304.537Z" fill="#FFC727"/>
<path opacity="0.4" d="M271.011 304.537C271.157 304.401 285.761 290.855 302.946 295.483C320.519 300.228 335.035 326.7 335.171 326.962L340.052 324.322C339.421 323.148 324.284 295.483 304.382 290.117C284.14 284.664 267.857 299.85 267.168 300.5L270.992 304.527L271.011 304.537Z" fill="white"/>
<path d="M328.699 353.617L339.227 348.057C338.218 346.146 336.976 342.856 336.791 339.887C336.559 336.044 338.082 334.686 339.77 333.803C343.458 331.852 345.66 332.629 347.165 333.512C349.27 334.754 351.415 337.306 353.2 340.683L363.729 335.122C360.847 329.669 357.314 325.671 353.22 323.255C349.134 320.848 342.526 318.888 334.22 323.274C327.748 326.69 324.449 332.842 324.924 340.605C325.293 346.718 327.922 352.104 328.708 353.608L328.699 353.617Z" fill="#FFC727"/>
<path d="M273.233 285.993C275.514 284.421 277.852 282.937 280.191 281.462C282.529 279.977 284.907 278.57 287.284 277.153C289.671 275.756 292.058 274.368 294.484 273.039L298.123 271.05C299.355 270.419 300.568 269.759 301.82 269.148C300.685 269.944 299.52 270.691 298.366 271.457L294.863 273.679C292.524 275.154 290.147 276.571 287.769 277.988C285.382 279.385 282.995 280.773 280.56 282.102C278.134 283.441 275.708 284.761 273.224 285.993H273.233Z" fill="#BA7AB8"/>
<path d="M267.188 308.7C270.458 310.563 273.554 312.659 276.6 314.823C279.638 317.006 282.636 319.247 285.45 321.731C282.18 319.868 279.085 317.772 276.038 315.609C273 313.425 270.012 311.184 267.188 308.7Z" fill="#BA7AB8"/>
<path d="M272.554 305.905C275.077 306.671 277.561 307.535 280.036 308.418C282.52 309.291 284.965 310.233 287.42 311.174C289.865 312.135 292.311 313.105 294.727 314.134L298.346 315.686C299.54 316.239 300.753 316.753 301.937 317.336C300.675 316.957 299.433 316.53 298.181 316.132L294.465 314.832C291.981 313.959 289.535 313.018 287.08 312.076C284.635 311.116 282.19 310.145 279.774 309.117C277.357 308.088 274.941 307.05 272.564 305.915L272.554 305.905Z" fill="#BA7AB8"/>
<path d="M279.715 288.118C282.132 287.488 284.567 286.964 287.003 286.459C289.438 285.945 291.884 285.498 294.339 285.052C296.794 284.635 299.249 284.217 301.713 283.868L305.41 283.354C306.652 283.218 307.885 283.053 309.127 282.946C307.924 283.267 306.701 283.529 305.488 283.829L301.839 284.606C299.404 285.12 296.959 285.566 294.504 286.013C292.049 286.43 289.594 286.847 287.129 287.196C284.664 287.555 282.199 287.885 279.715 288.118Z" fill="#BA7AB8"/>
<path d="M221.484 303.227C221.892 301.267 222.552 299.345 223.406 297.531C224.26 295.707 225.298 293.96 226.608 292.407C227.918 290.874 229.538 289.516 231.489 288.769C233.429 288.041 235.661 288.05 237.612 288.827C239.582 289.593 241.144 291.253 241.978 293.164C242.415 294.115 242.687 295.134 242.803 296.182C242.9 297.23 242.861 298.307 242.444 299.355C242.231 299.869 241.901 300.384 241.377 300.733C241.124 300.908 240.804 301.014 240.503 301.063C240.203 301.102 239.892 301.092 239.533 300.976C238.883 300.704 238.563 300.18 238.281 299.704C238.029 299.219 237.835 298.715 237.709 298.21C237.165 296.182 237.107 294.125 237.204 292.087C237.495 288.031 238.563 283.975 240.746 280.482C241.852 278.754 243.23 277.173 244.957 276.008C246.655 274.844 248.645 274.039 250.673 273.806C251.672 273.563 252.701 273.582 253.72 273.534C254.234 273.476 254.739 273.602 255.243 273.631C255.748 273.699 256.262 273.689 256.757 273.835C258.775 274.194 260.667 275.009 262.433 275.989C264.19 277.008 265.762 278.308 267.188 279.715C268.605 281.142 269.895 282.704 270.934 284.421C268.644 281.151 265.684 278.308 262.201 276.397C260.444 275.484 258.591 274.737 256.64 274.436C256.165 274.301 255.66 274.33 255.175 274.271C254.68 274.262 254.195 274.145 253.71 274.213C252.73 274.281 251.74 274.281 250.789 274.533C248.829 274.805 247.014 275.591 245.423 276.688C243.822 277.784 242.522 279.298 241.483 280.947C239.426 284.286 238.417 288.225 238.165 292.145C238.058 294.106 238.107 296.104 238.592 297.968C238.825 298.86 239.242 299.86 239.853 300.141C239.931 300.141 239.979 300.19 240.076 300.19C240.173 300.19 240.27 300.199 240.368 300.19C240.552 300.161 240.727 300.112 240.882 299.996C241.202 299.792 241.454 299.442 241.619 299.035C241.959 298.21 242.027 297.23 241.939 296.289C241.842 295.338 241.6 294.397 241.212 293.523C240.445 291.777 239.087 290.273 237.321 289.535C235.564 288.788 233.517 288.73 231.693 289.36C229.859 290.02 228.287 291.282 226.967 292.737C224.328 295.697 222.542 299.394 221.484 303.246V303.227Z" fill="#BA7AB8"/>
<path d="M131.813 328.378C132.755 326.612 134.123 325.089 135.734 323.876C137.335 322.673 139.188 321.732 141.168 321.275C143.137 320.8 145.262 320.79 147.232 321.392C149.212 321.984 150.988 323.139 152.414 324.613C153.85 326.088 154.918 327.884 155.655 329.785C156.373 331.697 156.81 333.735 156.654 335.831C156.548 336.859 156.344 337.966 155.529 338.858C155.121 339.295 154.5 339.586 153.899 339.596C153.316 339.596 152.763 339.499 152.23 339.217C151.696 338.946 151.269 338.46 151.026 337.936C150.784 337.403 150.687 336.85 150.658 336.306C150.619 335.219 150.852 334.191 151.172 333.201C151.822 331.231 152.89 329.465 154.141 327.854C155.393 326.253 156.878 324.817 158.537 323.633C161.826 321.246 166.009 319.917 170.094 320.451C172.112 320.722 174.111 321.305 175.877 322.333C177.663 323.323 179.206 324.711 180.457 326.282C181.719 327.864 182.699 329.65 183.446 331.503C184.203 333.356 184.756 335.297 185.028 337.277C184.213 333.385 182.612 329.611 180.069 326.603C178.808 325.099 177.284 323.808 175.557 322.896C173.849 321.955 171.928 321.44 169.997 321.227C166.115 320.8 162.176 322.042 159.051 324.361C155.927 326.661 153.365 329.873 152.074 333.502C151.774 334.404 151.56 335.355 151.589 336.267C151.609 337.17 151.929 338.043 152.657 338.412C152.996 338.606 153.462 338.684 153.87 338.693C154.267 338.684 154.617 338.528 154.888 338.237C155.451 337.645 155.694 336.675 155.781 335.753C155.936 333.861 155.539 331.901 154.859 330.086C154.17 328.272 153.151 326.574 151.832 325.157C150.512 323.74 148.853 322.634 147.019 322.032C145.185 321.421 143.176 321.372 141.265 321.78C137.441 322.595 133.9 324.982 131.794 328.369L131.813 328.378Z" fill="#BA7AB8"/>
<path d="M86.9247 94.0373C86.818 90.0492 85.964 86.0222 84.1107 82.5192C83.1791 80.7823 81.9468 79.1812 80.3263 78.1041C78.7058 77.0561 76.6971 76.6194 74.8146 76.93C72.9224 77.2308 71.2437 78.3661 70.0793 79.8798C69.4874 80.6367 69.0313 81.4906 68.7111 82.3834C68.4006 83.2761 68.2259 84.2464 68.3618 85.1295C68.4297 85.5661 68.5849 85.9737 68.8469 86.2454C68.9731 86.3909 69.1283 86.4783 69.303 86.5559C69.3806 86.6044 69.4874 86.6044 69.5747 86.6335C69.6717 86.6529 69.73 86.6335 69.8076 86.6335C70.4674 86.5074 71.1176 85.634 71.5542 84.8286C72.4761 83.1402 73.0001 81.2092 73.3591 79.2782C74.048 75.4162 74.0092 71.3504 72.806 67.6145C72.1947 65.7612 71.2922 63.9951 69.992 62.5396C68.7014 61.0937 67.1294 59.9002 65.2954 59.1627C64.4318 58.6873 63.4712 58.4544 62.5396 58.1536C62.0738 57.9692 61.579 57.9692 61.0938 57.8625C60.6086 57.7945 60.1234 57.6587 59.6382 57.6684C57.6684 57.4937 55.6889 57.7848 53.7773 58.2506C49.9444 59.2695 46.3929 61.3266 43.3848 63.9563C44.8015 62.5299 46.422 61.3266 48.1395 60.2786C49.8668 59.2501 51.7007 58.3573 53.6511 57.7945C55.6016 57.2705 57.6393 56.9309 59.6771 57.0668C60.1914 57.0377 60.6862 57.1735 61.2005 57.2317C61.7051 57.3288 62.2194 57.3288 62.7046 57.5034C63.6846 57.7945 64.6938 58.0177 65.6059 58.4932C67.5175 59.2015 69.2642 60.463 70.6324 61.9962C72.0297 63.5293 72.9904 65.4021 73.6502 67.3428C74.9408 71.2534 75.0087 75.455 74.3197 79.4626C73.9316 81.4615 73.3785 83.4507 72.3693 85.2847C72.117 85.7408 71.8162 86.1872 71.4572 86.6044C71.0788 86.9925 70.6324 87.4195 69.9337 87.5359C69.565 87.5748 69.2545 87.5068 68.9731 87.3904C68.682 87.2739 68.4103 87.0993 68.1968 86.8664C67.7601 86.4103 67.5661 85.8281 67.4787 85.275C67.3235 84.1688 67.5467 83.1014 67.8863 82.1117C68.2453 81.1219 68.7499 80.2001 69.4 79.3753C70.6712 77.7256 72.5828 76.4836 74.6788 76.2119C76.7553 75.9208 78.9289 76.4448 80.6368 77.6189C82.3446 78.8124 83.5964 80.5106 84.4988 82.3154C85.4012 84.1397 85.9931 86.0804 86.391 88.0599C86.7791 90.0298 86.9635 92.0481 86.8956 94.0567L86.9247 94.0373Z" fill="#BA7AB8"/>
<path d="M301.199 144.661C297.289 143.836 293.184 143.72 289.341 144.709C287.44 145.214 285.586 146.039 284.169 147.358C282.772 148.688 281.879 150.541 281.744 152.443C281.588 154.345 282.306 156.247 283.51 157.732C284.102 158.479 284.829 159.129 285.625 159.643C286.421 160.148 287.323 160.546 288.206 160.623C288.643 160.662 289.079 160.594 289.4 160.41C289.565 160.322 289.691 160.187 289.807 160.041C289.865 159.973 289.895 159.876 289.943 159.789C289.982 159.701 289.972 159.633 290.001 159.566C290.03 158.896 289.332 158.062 288.652 157.44C287.226 156.15 285.47 155.189 283.684 154.394C280.084 152.822 276.125 151.909 272.215 152.21C270.274 152.375 268.343 152.841 266.625 153.763C264.918 154.675 263.384 155.927 262.249 157.547C261.58 158.275 261.133 159.158 260.619 159.993C260.337 160.4 260.211 160.885 259.998 161.322C259.823 161.778 259.571 162.215 259.474 162.7C258.853 164.573 258.659 166.562 258.668 168.541C258.765 172.51 259.93 176.44 261.793 179.982C260.745 178.274 259.949 176.411 259.328 174.499C258.727 172.578 258.29 170.589 258.193 168.561C258.135 166.542 258.28 164.485 258.892 162.525C258.989 162.021 259.231 161.564 259.406 161.089C259.619 160.623 259.736 160.119 260.017 159.692C260.532 158.809 260.978 157.877 261.657 157.101C262.792 155.403 264.423 154.005 266.237 153.035C268.061 152.036 270.099 151.541 272.147 151.347C276.251 151.007 280.346 151.919 284.082 153.52C285.935 154.364 287.74 155.364 289.293 156.781C289.681 157.13 290.04 157.528 290.36 157.974C290.651 158.44 290.962 158.964 290.913 159.672C290.855 160.041 290.729 160.322 290.554 160.575C290.37 160.827 290.137 161.06 289.856 161.205C289.303 161.516 288.691 161.574 288.148 161.526C287.032 161.419 286.052 160.953 285.169 160.39C284.296 159.808 283.51 159.1 282.859 158.275C281.549 156.654 280.793 154.51 281.016 152.404C281.22 150.308 282.238 148.329 283.772 146.932C285.334 145.544 287.275 144.729 289.244 144.273C291.224 143.817 293.262 143.7 295.27 143.778C297.279 143.855 299.288 144.147 301.219 144.69L301.199 144.661Z" fill="#BA7AB8"/>
<path d="M241.124 81.8788C240.464 79.579 240.367 77.124 240.746 74.7467C241.114 72.3693 241.92 70.0404 243.239 67.993C244.53 65.9455 246.345 64.1698 248.528 63.0442C250.701 61.9088 253.186 61.414 255.631 61.4916C258.086 61.5595 260.492 62.1902 262.705 63.1994C264.917 64.228 266.984 65.6156 268.595 67.5175C269.361 68.4782 270.099 69.5941 270.147 71.0011C270.167 71.69 269.885 72.4372 269.391 72.9418C268.896 73.4173 268.362 73.7957 267.683 73.9898C267.013 74.1936 266.276 74.145 265.635 73.9025C264.995 73.6599 264.461 73.262 263.986 72.8254C263.054 71.9423 262.394 70.8652 261.851 69.759C260.774 67.5369 260.201 65.1401 259.93 62.7239C259.658 60.3078 259.735 57.8528 260.153 55.456C260.968 50.6721 263.433 46.0532 267.353 43.1033C269.303 41.6478 271.486 40.4737 273.854 39.872C276.202 39.2316 278.677 39.1152 281.064 39.4063C283.461 39.7071 285.79 40.396 287.992 41.347C290.195 42.2979 292.301 43.4818 294.193 44.9373C290.253 42.2688 285.722 40.3572 281.006 39.8914C278.657 39.6489 276.27 39.8138 274.019 40.4737C271.748 41.0947 269.672 42.2688 267.828 43.7049C266.004 45.1702 264.451 46.9653 263.316 49.0031C262.171 51.0408 261.424 53.2921 261.026 55.6015C260.269 60.2107 260.754 65.111 262.705 69.3321C263.209 70.3703 263.821 71.3698 264.626 72.1364C265.412 72.903 266.45 73.4076 267.421 73.0971C267.896 72.9709 268.372 72.641 268.731 72.3014C269.07 71.952 269.255 71.496 269.245 70.9914C269.235 69.9725 268.614 68.9342 267.906 68.0609C266.441 66.2949 264.451 64.9364 262.346 63.9563C260.23 62.9762 257.921 62.3746 255.592 62.2679C253.263 62.1611 250.905 62.6075 248.829 63.6458C246.742 64.6647 244.967 66.3143 243.676 68.2744C241.085 72.1849 240.066 77.2114 241.124 81.8788Z" fill="#BA7AB8"/>
<path d="M128.573 328.592C126.399 327.903 124.08 329.116 123.401 331.29C122.712 333.463 123.925 335.782 126.098 336.462C128.272 337.15 130.581 335.938 131.27 333.764C131.959 331.59 130.746 329.271 128.582 328.592H128.573ZM130.785 333.618C130.183 335.53 128.146 336.588 126.244 335.986C124.332 335.384 123.274 333.347 123.876 331.445C124.478 329.533 126.515 328.476 128.417 329.077C130.319 329.679 131.387 331.707 130.785 333.618ZM128.573 328.592C126.399 327.903 124.08 329.116 123.401 331.29C122.712 333.463 123.925 335.782 126.098 336.462C128.272 337.15 130.581 335.938 131.27 333.764C131.959 331.59 130.746 329.271 128.582 328.592H128.573ZM130.785 333.618C130.183 335.53 128.146 336.588 126.244 335.986C124.332 335.384 123.274 333.347 123.876 331.445C124.478 329.533 126.515 328.476 128.417 329.077C130.319 329.679 131.387 331.707 130.785 333.618ZM128.573 328.592C126.399 327.903 124.08 329.116 123.401 331.29C122.712 333.463 123.925 335.782 126.098 336.462C128.272 337.15 130.581 335.938 131.27 333.764C131.959 331.59 130.746 329.271 128.582 328.592H128.573ZM130.785 333.618C130.183 335.53 128.146 336.588 126.244 335.986C124.332 335.384 123.274 333.347 123.876 331.445C124.478 329.533 126.515 328.476 128.417 329.077C130.319 329.679 131.387 331.707 130.785 333.618ZM129.951 324.235C125.37 322.789 120.48 325.341 119.044 329.912C117.598 334.492 120.14 339.373 124.73 340.818C129.31 342.264 134.191 339.712 135.637 335.132C137.083 330.552 134.54 325.671 129.96 324.225L129.951 324.235ZM131.882 333.958C131.096 336.471 128.408 337.869 125.904 337.073C123.401 336.287 122.003 333.599 122.789 331.095C123.575 328.582 126.263 327.195 128.767 327.981C131.27 328.767 132.668 331.454 131.882 333.958ZM131.27 333.764C131.959 331.59 130.746 329.271 128.582 328.592C126.409 327.903 124.09 329.116 123.41 331.29C122.721 333.463 123.934 335.782 126.108 336.462C128.282 337.15 130.591 335.938 131.28 333.764H131.27ZM130.795 333.609C130.193 335.52 128.155 336.578 126.253 335.976C124.342 335.375 123.284 333.337 123.886 331.435C124.487 329.523 126.525 328.466 128.427 329.067C130.329 329.669 131.396 331.697 130.795 333.609ZM128.582 328.582C126.409 327.893 124.09 329.106 123.41 331.28C122.721 333.453 123.934 335.773 126.108 336.452C128.282 337.141 130.591 335.928 131.28 333.754C131.969 331.581 130.756 329.261 128.592 328.582H128.582ZM130.795 333.609C130.193 335.52 128.155 336.578 126.253 335.976C124.342 335.375 123.284 333.337 123.886 331.435C124.487 329.523 126.525 328.466 128.427 329.067C130.329 329.669 131.396 331.697 130.795 333.609ZM128.582 328.582C126.409 327.893 124.09 329.106 123.41 331.28C122.721 333.453 123.934 335.773 126.108 336.452C128.282 337.141 130.591 335.928 131.28 333.754C131.969 331.581 130.756 329.261 128.592 328.582H128.582ZM130.795 333.609C130.193 335.52 128.155 336.578 126.253 335.976C124.342 335.375 123.284 333.337 123.886 331.435C124.487 329.523 126.525 328.466 128.427 329.067C130.329 329.669 131.396 331.697 130.795 333.609Z" fill="#455A64"/>
<path d="M126.418 340.974L123.235 339.974L122.692 342.284L125.535 343.176L126.418 340.974Z" fill="#455A64"/>
<path d="M120.693 337.995L119.14 335.026L117.132 336.277L118.5 338.917L120.693 337.995Z" fill="#455A64"/>
<path d="M118.753 331.823L119.752 328.631L117.443 328.097L116.55 330.94L118.753 331.823Z" fill="#455A64"/>
<path d="M121.731 326.088L124.701 324.546L123.449 322.537L120.81 323.905L121.731 326.088Z" fill="#455A64"/>
<path d="M127.903 324.148L131.095 325.157L131.629 322.847L128.786 321.955L127.903 324.148Z" fill="#455A64"/>
<path d="M133.638 327.136L135.181 330.106L137.189 328.844L135.821 326.215L133.638 327.136Z" fill="#455A64"/>
<path d="M135.579 333.308L134.569 336.491L136.879 337.034L137.772 334.191L135.579 333.308Z" fill="#455A64"/>
<path d="M132.59 339.033L129.621 340.586L130.882 342.594L133.512 341.226L132.59 339.033Z" fill="#455A64"/>
<path d="M289.457 300.859C293.834 294.969 292.601 286.643 286.702 282.267C280.802 277.891 272.476 279.123 268.11 285.013C263.733 290.913 264.966 299.239 270.865 303.615C276.756 307.991 285.081 306.759 289.457 300.859ZM283.771 296.638C281.724 299.394 277.842 299.966 275.086 297.929C272.331 295.881 271.758 292 273.806 289.244C275.853 286.488 279.735 285.916 282.49 287.963C285.246 290.011 285.819 293.892 283.771 296.648V296.638Z" fill="#BA7AB8"/>
<path d="M273.243 304.702L269.138 301.655L267.207 304.721L270.856 307.438L273.243 304.702Z" fill="#BA7AB8"/>
<path d="M266.46 297.511L265.703 292.456L262.171 293.271L262.831 297.764L266.46 297.511Z" fill="#BA7AB8"/>
<path d="M266.732 287.643L269.778 283.538L266.702 281.607L263.995 285.256L266.732 287.643Z" fill="#BA7AB8"/>
<path d="M273.913 280.85L278.968 280.103L278.163 276.571L273.67 277.231L273.913 280.85Z" fill="#BA7AB8"/>
<path d="M283.791 281.132L287.895 284.179L289.826 281.103L286.178 278.395L283.791 281.132Z" fill="#BA7AB8"/>
<path d="M290.583 288.312L291.33 293.368L294.862 292.563L294.202 288.06L290.583 288.312Z" fill="#BA7AB8"/>
<path d="M290.302 298.191L287.255 302.295L290.331 304.226L293.038 300.578L290.302 298.191Z" fill="#BA7AB8"/>
<path d="M283.121 304.974L278.065 305.721L278.871 309.262L283.364 308.593L283.121 304.974Z" fill="#BA7AB8"/>
<path d="M274.019 293.581L276.843 297.143L281.336 296.473L283.005 292.252L280.181 288.691L275.688 289.351L274.019 293.581ZM279.375 291.757C280.016 292.233 280.152 293.135 279.676 293.776C279.201 294.416 278.298 294.552 277.658 294.076C277.017 293.601 276.882 292.698 277.357 292.058C277.833 291.418 278.735 291.282 279.375 291.757Z" fill="#BA7AB8"/>
<path d="M299.424 42.0262C297.522 41.4245 295.494 42.4822 294.892 44.3841C294.29 46.286 295.348 48.3141 297.25 48.9157C299.152 49.5173 301.18 48.4596 301.772 46.5577C302.373 44.6558 301.316 42.6278 299.414 42.0262H299.424ZM301.364 46.4219C300.84 48.0909 299.055 49.0224 297.386 48.4984C295.717 47.9745 294.785 46.189 295.319 44.52C295.843 42.851 297.628 41.9194 299.297 42.4531C300.966 42.9771 301.888 44.7626 301.364 46.4316V46.4219ZM299.424 42.0262C297.522 41.4245 295.494 42.4822 294.892 44.3841C294.29 46.286 295.348 48.3141 297.25 48.9157C299.152 49.5173 301.18 48.4596 301.772 46.5577C302.373 44.6558 301.316 42.6278 299.414 42.0262H299.424ZM301.364 46.4219C300.84 48.0909 299.055 49.0224 297.386 48.4984C295.717 47.9745 294.785 46.189 295.319 44.52C295.843 42.851 297.628 41.9194 299.297 42.4531C300.966 42.9771 301.888 44.7626 301.364 46.4316V46.4219ZM299.424 42.0262C297.522 41.4245 295.494 42.4822 294.892 44.3841C294.29 46.286 295.348 48.3141 297.25 48.9157C299.152 49.5173 301.18 48.4596 301.772 46.5577C302.373 44.6558 301.316 42.6278 299.414 42.0262H299.424ZM301.364 46.4219C300.84 48.0909 299.055 49.0224 297.386 48.4984C295.717 47.9745 294.785 46.189 295.319 44.52C295.843 42.851 297.628 41.9194 299.297 42.4531C300.966 42.9771 301.888 44.7626 301.364 46.4316V46.4219ZM300.627 38.2127C296.619 36.9512 292.34 39.1733 291.079 43.1809C289.817 47.1885 292.039 51.4677 296.047 52.7292C300.054 53.9907 304.324 51.7685 305.595 47.761C306.857 43.7534 304.634 39.4741 300.627 38.2127ZM302.315 46.7227C301.626 48.9157 299.278 50.1383 297.085 49.4494C294.892 48.7604 293.669 46.4122 294.358 44.2192C295.047 42.0262 297.396 40.8035 299.589 41.4925C301.782 42.1814 303.004 44.5297 302.315 46.7227ZM301.782 46.5577C302.383 44.6558 301.325 42.6278 299.424 42.0262C297.522 41.4245 295.494 42.4822 294.892 44.3841C294.29 46.286 295.348 48.3141 297.25 48.9157C299.152 49.5173 301.18 48.4596 301.772 46.5577H301.782ZM301.364 46.4219C300.84 48.0909 299.055 49.0224 297.386 48.4984C295.717 47.9745 294.785 46.189 295.319 44.52C295.843 42.851 297.628 41.9194 299.297 42.4531C300.966 42.9771 301.888 44.7626 301.364 46.4316V46.4219ZM299.424 42.0262C297.522 41.4245 295.494 42.4822 294.892 44.3841C294.29 46.286 295.348 48.3141 297.25 48.9157C299.152 49.5173 301.18 48.4596 301.772 46.5577C302.373 44.6558 301.316 42.6278 299.414 42.0262H299.424ZM301.364 46.4219C300.84 48.0909 299.055 49.0224 297.386 48.4984C295.717 47.9745 294.785 46.189 295.319 44.52C295.843 42.851 297.628 41.9194 299.297 42.4531C300.966 42.9771 301.888 44.7626 301.364 46.4316V46.4219ZM299.424 42.0262C297.522 41.4245 295.494 42.4822 294.892 44.3841C294.29 46.286 295.348 48.3141 297.25 48.9157C299.152 49.5173 301.18 48.4596 301.772 46.5577C302.373 44.6558 301.316 42.6278 299.414 42.0262H299.424ZM301.364 46.4219C300.84 48.0909 299.055 49.0224 297.386 48.4984C295.717 47.9745 294.785 46.189 295.319 44.52C295.843 42.851 297.628 41.9194 299.297 42.4531C300.966 42.9771 301.888 44.7626 301.364 46.4316V46.4219Z" fill="#BA7AB8"/>
<path d="M297.541 52.8651L294.747 51.9821L294.281 54.0101L296.765 54.7864L297.541 52.8651Z" fill="#BA7AB8"/>
<path d="M292.524 50.2451L291.175 47.6543L289.409 48.7508L290.612 51.0602L292.524 50.2451Z" fill="#BA7AB8"/>
<path d="M290.826 44.8499L291.709 42.065L289.681 41.5992L288.895 44.0737L290.826 44.8499Z" fill="#BA7AB8"/>
<path d="M293.436 39.8332L296.037 38.4844L294.931 36.728L292.631 37.9216L293.436 39.8332Z" fill="#BA7AB8"/>
<path d="M298.832 38.1351L301.626 39.0181L302.092 36.99L299.608 36.2137L298.832 38.1351Z" fill="#BA7AB8"/>
<path d="M303.848 40.755L305.207 43.3459L306.963 42.2494L305.76 39.9399L303.848 40.755Z" fill="#BA7AB8"/>
<path d="M305.546 46.1501L304.673 48.9351L306.691 49.4105L307.477 46.9264L305.546 46.1501Z" fill="#BA7AB8"/>
<path d="M302.936 51.167L300.335 52.5158L301.442 54.2818L303.751 53.0786L302.936 51.167Z" fill="#BA7AB8"/>
<path d="M262.336 180.651C260.434 180.05 258.406 181.107 257.805 183.009C257.203 184.911 258.261 186.939 260.163 187.541C262.064 188.142 264.093 187.085 264.684 185.183C265.286 183.281 264.228 181.253 262.326 180.651H262.336ZM264.277 185.047C263.753 186.716 261.967 187.648 260.298 187.124C258.629 186.6 257.698 184.814 258.232 183.145C258.756 181.476 260.541 180.545 262.21 181.078C263.879 181.602 264.801 183.388 264.277 185.057V185.047ZM262.336 180.651C260.434 180.05 258.406 181.107 257.805 183.009C257.203 184.911 258.261 186.939 260.163 187.541C262.064 188.142 264.093 187.085 264.684 185.183C265.286 183.281 264.228 181.253 262.326 180.651H262.336ZM264.277 185.047C263.753 186.716 261.967 187.648 260.298 187.124C258.629 186.6 257.698 184.814 258.232 183.145C258.756 181.476 260.541 180.545 262.21 181.078C263.879 181.602 264.801 183.388 264.277 185.057V185.047ZM262.336 180.651C260.434 180.05 258.406 181.107 257.805 183.009C257.203 184.911 258.261 186.939 260.163 187.541C262.064 188.142 264.093 187.085 264.684 185.183C265.286 183.281 264.228 181.253 262.326 180.651H262.336ZM264.277 185.047C263.753 186.716 261.967 187.648 260.298 187.124C258.629 186.6 257.698 184.814 258.232 183.145C258.756 181.476 260.541 180.545 262.21 181.078C263.879 181.602 264.801 183.388 264.277 185.057V185.047ZM263.539 176.838C259.532 175.576 255.253 177.798 253.991 181.806C252.73 185.814 254.952 190.093 258.959 191.354C262.967 192.616 267.236 190.394 268.508 186.386C269.769 182.379 267.547 178.099 263.539 176.838ZM265.228 185.348C264.539 187.541 262.191 188.763 259.998 188.075C257.805 187.386 256.582 185.037 257.271 182.844C257.96 180.651 260.308 179.429 262.501 180.118C264.694 180.807 265.917 183.155 265.228 185.348ZM264.694 185.183C265.296 183.281 264.238 181.253 262.336 180.651C260.434 180.05 258.406 181.107 257.805 183.009C257.203 184.911 258.261 186.939 260.163 187.541C262.064 188.142 264.093 187.085 264.684 185.183H264.694ZM264.277 185.047C263.753 186.716 261.967 187.648 260.298 187.124C258.629 186.6 257.698 184.814 258.232 183.145C258.756 181.476 260.541 180.545 262.21 181.078C263.879 181.602 264.801 183.388 264.277 185.057V185.047ZM262.336 180.651C260.434 180.05 258.406 181.107 257.805 183.009C257.203 184.911 258.261 186.939 260.163 187.541C262.064 188.142 264.093 187.085 264.684 185.183C265.286 183.281 264.228 181.253 262.326 180.651H262.336ZM264.277 185.047C263.753 186.716 261.967 187.648 260.298 187.124C258.629 186.6 257.698 184.814 258.232 183.145C258.756 181.476 260.541 180.545 262.21 181.078C263.879 181.602 264.801 183.388 264.277 185.057V185.047ZM262.336 180.651C260.434 180.05 258.406 181.107 257.805 183.009C257.203 184.911 258.261 186.939 260.163 187.541C262.064 188.142 264.093 187.085 264.684 185.183C265.286 183.281 264.228 181.253 262.326 180.651H262.336ZM264.277 185.047C263.753 186.716 261.967 187.648 260.298 187.124C258.629 186.6 257.698 184.814 258.232 183.145C258.756 181.476 260.541 180.545 262.21 181.078C263.879 181.602 264.801 183.388 264.277 185.057V185.047Z" fill="#BA7AB8"/>
<path d="M260.454 191.49L257.669 190.617L257.193 192.635L259.677 193.421L260.454 191.49Z" fill="#BA7AB8"/>
<path d="M255.437 188.88L254.088 186.279L252.332 187.386L253.525 189.695L255.437 188.88Z" fill="#BA7AB8"/>
<path d="M253.739 183.485L254.622 180.69L252.594 180.224L251.817 182.708L253.739 183.485Z" fill="#BA7AB8"/>
<path d="M256.359 178.468L258.949 177.119L257.853 175.353L255.543 176.556L256.359 178.468Z" fill="#BA7AB8"/>
<path d="M261.754 176.77L264.539 177.653L265.014 175.625L262.53 174.839L261.754 176.77Z" fill="#BA7AB8"/>
<path d="M266.771 179.38L268.119 181.981L269.885 180.874L268.682 178.575L266.771 179.38Z" fill="#BA7AB8"/>
<path d="M268.469 184.775L267.586 187.57L269.614 188.036L270.39 185.552L268.469 184.775Z" fill="#BA7AB8"/>
<path d="M265.849 189.792L263.258 191.151L264.354 192.907L266.664 191.704L265.849 189.792Z" fill="#BA7AB8"/>
<path d="M50.1191 71.5153C51.6134 65.3729 47.8485 59.1821 41.7061 57.6877C35.5637 56.1934 29.3729 59.9583 27.8785 66.1007C26.3842 72.2431 30.1491 78.4339 36.2915 79.9283C42.4339 81.4226 48.6247 77.6576 50.1191 71.5153ZM44.1902 70.0695C43.4915 72.9417 40.5999 74.6981 37.7373 73.9994C34.8651 73.3007 33.1087 70.4091 33.8074 67.5368C34.506 64.6646 37.3977 62.9082 40.27 63.6069C43.1422 64.3055 44.8986 67.1972 44.1999 70.0597L44.1902 70.0695Z" fill="#BA7AB8"/>
<path d="M38.5329 79.9865L34.2634 78.9482L33.7588 82.0243L37.5626 82.9558L38.5329 79.9865Z" fill="#BA7AB8"/>
<path d="M30.7509 76.5612L28.4609 72.8059L25.9282 74.6302L27.9563 77.9682L30.7509 76.5612Z" fill="#BA7AB8"/>
<path d="M27.6651 68.6334L28.7034 64.3541L25.6176 63.8593L24.6958 67.6631L27.6651 68.6334Z" fill="#BA7AB8"/>
<path d="M31.0906 60.8414L34.8458 58.561L33.0216 56.0187L29.6738 58.0564L31.0906 60.8414Z" fill="#BA7AB8"/>
<path d="M39.0181 57.7557L43.2876 58.8037L43.7922 55.7179L39.9884 54.7864L39.0181 57.7557Z" fill="#BA7AB8"/>
<path d="M46.8008 61.1811L49.0908 64.9461L51.6235 63.1121L49.5954 59.774L46.8008 61.1811Z" fill="#BA7AB8"/>
<path d="M49.8864 69.1089L48.8481 73.3882L51.9339 73.8927L52.8557 70.0889L49.8864 69.1089Z" fill="#BA7AB8"/>
<path d="M46.4609 76.9008L42.7056 79.1908L44.5298 81.7234L47.8776 79.6857L46.4609 76.9008Z" fill="#BA7AB8"/>
<path d="M35.4277 70.904L38.8628 72.7865L42.2105 70.7487L42.1232 66.8382L38.6978 64.9557L35.3501 66.9837L35.4374 70.8943L35.4277 70.904ZM39.0666 67.663C39.7361 67.8279 40.1437 68.4975 39.9787 69.1573C39.8137 69.8172 39.1442 70.2344 38.4844 70.0695C37.8245 69.9045 37.4073 69.235 37.5722 68.5751C37.7372 67.9056 38.4067 67.498 39.0666 67.663Z" fill="#BA7AB8"/>
<path d="M308.787 189.841C306.177 185.862 304.712 181.398 304.712 176.673C304.712 159.983 323.032 146.456 345.622 146.456C368.212 146.456 386.513 159.983 386.513 176.673C386.513 193.363 368.202 206.89 345.622 206.89C334.667 206.89 324.74 203.717 317.404 198.525L303.314 202.106L308.787 189.841Z" fill="white"/>
<path d="M308.787 189.841C306.322 186.173 304.78 181.835 304.615 177.391C304.488 172.947 305.585 168.454 307.865 164.611C310.097 160.74 313.27 157.479 316.861 154.85C320.451 152.21 324.497 150.211 328.728 148.814C332.949 147.407 337.354 146.553 341.799 146.204C346.243 145.874 350.726 146.155 355.122 146.883C356.208 147.106 357.324 147.252 358.401 147.543L361.633 148.416L364.786 149.532C365.834 149.91 366.834 150.425 367.862 150.861C371.889 152.773 375.674 155.286 378.847 158.459C382.02 161.613 384.572 165.475 385.921 169.793C387.27 174.092 387.367 178.817 386.057 183.145C384.785 187.483 382.282 191.383 379.157 194.586C376.023 197.797 372.278 200.35 368.27 202.31C364.262 204.289 359.944 205.589 355.568 206.375C351.182 207.132 346.709 207.453 342.264 207.142C337.82 206.861 333.415 206.046 329.184 204.658C324.963 203.27 320.897 201.33 317.287 198.729L317.472 198.758L303.353 202.232L303.14 202.281L303.227 202.086L308.797 189.86L308.787 189.841ZM308.787 189.841L303.411 202.154L303.285 202.009L317.346 198.312L317.443 198.283L317.53 198.341C324.788 203.348 333.541 205.958 342.294 206.424C346.68 206.696 351.095 206.337 355.413 205.56C359.721 204.755 363.962 203.484 367.892 201.524C371.822 199.593 375.47 197.079 378.517 193.945C381.554 190.821 383.951 187.046 385.154 182.873C386.406 178.711 386.28 174.198 384.999 170.065C383.718 165.921 381.263 162.185 378.197 159.1C375.121 156.004 371.433 153.54 367.494 151.647C366.485 151.211 365.514 150.706 364.486 150.337L361.39 149.231L358.217 148.368C357.159 148.086 356.063 147.931 354.996 147.708C350.677 146.97 346.262 146.708 341.876 146.99C337.5 147.3 333.153 148.096 328.971 149.454C324.788 150.803 320.781 152.734 317.22 155.306C313.658 157.858 310.514 161.05 308.253 164.825C305.944 168.57 304.799 172.985 304.847 177.391C304.935 181.806 306.4 186.144 308.807 189.85L308.787 189.841Z" fill="#BA7AB8"/>
<path d="M324.575 181.621V183.872H315.424V170.685H324.41V172.937H317.986V176.11H323.537V178.186H317.986V181.621H324.575Z" fill="#BA7AB8"/>
<path d="M326.574 183.863V170.676H332.406C333.007 170.676 333.57 170.802 334.084 171.054C334.599 171.307 335.045 171.646 335.414 172.054C335.782 172.471 336.074 172.937 336.287 173.461C336.5 173.985 336.607 174.519 336.607 175.052C336.607 175.906 336.394 176.682 335.967 177.381C335.54 178.08 334.958 178.584 334.23 178.895L337.238 183.853H334.356L331.668 179.438H329.145V183.853H326.583L326.574 183.863ZM329.135 177.197H332.347C332.58 177.197 332.803 177.138 333.007 177.032C333.211 176.925 333.386 176.77 333.541 176.576C333.686 176.382 333.803 176.158 333.89 175.896C333.978 175.634 334.016 175.353 334.016 175.062C334.016 174.771 333.968 174.47 333.871 174.208C333.774 173.946 333.638 173.723 333.473 173.529C333.308 173.335 333.114 173.189 332.9 173.082C332.687 172.976 332.464 172.927 332.241 172.927H329.135V177.197Z" fill="#BA7AB8"/>
<path d="M338.926 183.863V170.676H344.758C345.36 170.676 345.923 170.802 346.437 171.054C346.951 171.307 347.398 171.646 347.766 172.054C348.135 172.471 348.426 172.937 348.64 173.461C348.853 173.985 348.96 174.519 348.96 175.052C348.96 175.906 348.746 176.682 348.319 177.381C347.892 178.08 347.31 178.584 346.582 178.895L349.59 183.853H346.709L344.021 179.438H341.498V183.853H338.936L338.926 183.863ZM341.488 177.197H344.7C344.933 177.197 345.156 177.138 345.36 177.032C345.564 176.925 345.738 176.77 345.893 176.576C346.039 176.382 346.155 176.158 346.243 175.896C346.33 175.634 346.369 175.353 346.369 175.062C346.369 174.771 346.32 174.47 346.223 174.208C346.126 173.946 345.99 173.723 345.826 173.529C345.661 173.335 345.466 173.189 345.253 173.082C345.04 172.976 344.816 172.927 344.593 172.927H341.488V177.197Z" fill="#BA7AB8"/>
<path d="M356.907 183.96C355.937 183.96 355.063 183.776 354.277 183.397C353.491 183.019 352.812 182.514 352.249 181.893C351.687 181.272 351.25 180.554 350.939 179.749C350.629 178.943 350.474 178.119 350.474 177.274C350.474 176.43 350.639 175.557 350.969 174.751C351.298 173.946 351.745 173.238 352.327 172.617C352.9 171.996 353.588 171.51 354.384 171.142C355.18 170.773 356.034 170.589 356.965 170.589C357.897 170.589 358.79 170.783 359.576 171.171C360.362 171.559 361.031 172.073 361.594 172.704C362.147 173.335 362.584 174.053 362.894 174.858C363.205 175.664 363.36 176.479 363.36 177.313C363.36 178.196 363.195 179.031 362.875 179.826C362.555 180.622 362.108 181.33 361.536 181.942C360.963 182.553 360.284 183.048 359.488 183.407C358.693 183.776 357.839 183.95 356.907 183.95V183.96ZM353.084 177.274C353.084 177.847 353.171 178.39 353.346 178.924C353.521 179.458 353.773 179.923 354.103 180.331C354.433 180.739 354.831 181.068 355.306 181.311C355.781 181.563 356.325 181.68 356.927 181.68C357.528 181.68 358.091 181.554 358.566 181.301C359.042 181.049 359.449 180.709 359.77 180.292C360.1 179.875 360.342 179.399 360.517 178.875C360.682 178.351 360.769 177.818 360.769 177.265C360.769 176.712 360.682 176.149 360.497 175.615C360.313 175.081 360.061 174.616 359.741 174.208C359.411 173.8 359.013 173.471 358.537 173.238C358.062 172.995 357.528 172.879 356.927 172.879C356.325 172.879 355.752 173.005 355.277 173.257C354.792 173.509 354.394 173.849 354.074 174.257C353.753 174.674 353.511 175.14 353.336 175.664C353.171 176.188 353.084 176.721 353.084 177.274Z" fill="#BA7AB8"/>
<path d="M365.311 183.863V170.676H371.142C371.744 170.676 372.307 170.802 372.821 171.054C373.335 171.307 373.782 171.646 374.15 172.054C374.519 172.471 374.81 172.937 375.024 173.461C375.237 173.985 375.344 174.519 375.344 175.052C375.344 175.906 375.131 176.682 374.704 177.381C374.277 178.08 373.694 178.584 372.967 178.895L375.975 183.853H373.093L370.405 179.438H367.882V183.853H365.32L365.311 183.863ZM367.872 177.197H371.084C371.317 177.197 371.54 177.138 371.744 177.032C371.948 176.925 372.122 176.77 372.278 176.576C372.423 176.382 372.54 176.158 372.627 175.896C372.714 175.634 372.753 175.353 372.753 175.062C372.753 174.771 372.705 174.47 372.608 174.208C372.511 173.946 372.375 173.723 372.21 173.529C372.045 173.335 371.851 173.189 371.637 173.082C371.424 172.976 371.201 172.927 370.977 172.927H367.872V177.197Z" fill="#BA7AB8"/>
</g>
<defs>
<clipPath id="clip0_722_2154">
<rect width="401" height="414.168" fill="white"/>
</clipPath>
</defs>
</svg>
