<svg width="23" height="20" viewBox="0 0 23 20" fill="none" xmlns="http://www.w3.org/2000/svg">
<path d="M11.5 3.50063L10.9596 4.02073C10.963 4.02421 10.9664 4.02765 10.9698 4.03106L11.5 3.50063ZM8.46173 16.9109L7.99742 17.4999L8.46173 16.9109ZM14.5383 16.9109L14.074 16.3219L14.5383 16.9109ZM6.50061 14.4209C6.18078 14.1577 5.70813 14.2036 5.44491 14.5234C5.18169 14.8432 5.22758 15.3159 5.54741 15.5791L6.50061 14.4209ZM1.84199 11.4115C2.04074 11.7749 2.49647 11.9084 2.85988 11.7096C3.2233 11.5108 3.35677 11.0551 3.15801 10.6917L1.84199 11.4115ZM12.9698 6.03034C13.2627 6.32318 13.7376 6.32309 14.0304 6.03014C14.3233 5.7372 14.3232 5.26232 14.0302 4.96948L12.9698 6.03034ZM2.25 7.1371C2.25 4.98623 3.46537 3.18252 5.12436 2.42419C6.73607 1.68748 8.90166 1.88258 10.9596 4.02073L12.0404 2.98053C9.5985 0.443521 6.76409 0.0253866 4.50076 1.05996C2.28471 2.07292 0.75 4.42503 0.75 7.1371H2.25ZM7.99742 17.4999C8.50965 17.9037 9.05955 18.3343 9.61682 18.6599C10.1739 18.9854 10.8096 19.25 11.5 19.25V17.75C11.1904 17.75 10.8261 17.6293 10.3736 17.3648C9.92132 17.1005 9.45208 16.7366 8.92605 16.3219L7.99742 17.4999ZM15.0026 17.4999C16.4292 16.3752 18.2528 15.0866 19.6833 13.4758C21.1395 11.8361 22.25 9.80263 22.25 7.1371H20.75C20.75 9.3345 19.8508 11.0282 18.5617 12.4798C17.2469 13.9603 15.5896 15.1271 14.074 16.3219L15.0026 17.4999ZM22.25 7.1371C22.25 4.42503 20.7153 2.07292 18.4992 1.05996C16.2359 0.0253866 13.4015 0.443521 10.9596 2.98053L12.0404 4.02073C14.0983 1.88258 16.2639 1.68748 17.8756 2.42419C19.5346 3.18252 20.75 4.98623 20.75 7.1371H22.25ZM14.074 16.3219C13.5479 16.7366 13.0787 17.1005 12.6264 17.3648C12.1739 17.6293 11.8096 17.75 11.5 17.75V19.25C12.1904 19.25 12.8261 18.9854 13.3832 18.6599C13.9405 18.3343 14.4903 17.9037 15.0026 17.4999L14.074 16.3219ZM8.92605 16.3219C8.13014 15.6945 7.32129 15.0963 6.50061 14.4209L5.54741 15.5791C6.37768 16.2624 7.25472 16.9144 7.99742 17.4999L8.92605 16.3219ZM3.15801 10.6917C2.5968 9.66559 2.25 8.50327 2.25 7.1371H0.75C0.75 8.77464 1.16995 10.1827 1.84199 11.4115L3.15801 10.6917ZM10.9698 4.03106L12.9698 6.03034L14.0302 4.96948L12.0302 2.97021L10.9698 4.03106Z" fill="#DA5454"/>
</svg>
