<svg width="34" height="40" viewBox="0 0 34 40" fill="none" xmlns="http://www.w3.org/2000/svg">
<path fill-rule="evenodd" clip-rule="evenodd" d="M10.148 22.2286C23 18.5 19.0722 6.97732 18.0987 0.830905C18.0987 0.609127 18.2934 0.450714 18.4881 0.51408C25.7897 3.99916 34 11.603 34 23.0087C34 31.7531 27.0553 39.4836 16.9629 39.4836C13.3616 39.6435 9.80834 38.628 6.86391 36.5972C3.91948 34.5665 1.75159 31.6363 0.702395 28.2691C-0.346799 24.9019 -0.217541 21.2895 1.06977 18.0019C2.35708 14.7144 4.72913 11.9391 7.81152 10.1139C8.00623 9.98717 8.26585 10.1139 8.26585 10.3357C8.3632 11.5079 10 13 11.0182 16.2286C12.0365 19.4573 10.148 22.2286 10.148 22.2286Z" fill="#BA7AB8"/>
</svg>
