<svg width="25" height="24" viewBox="0 0 25 24" fill="none" xmlns="http://www.w3.org/2000/svg">
<path d="M13.25 7.04148C13.0874 7.0142 12.9204 7 12.75 7C11.0931 7 9.75 8.34315 9.75 10C9.75 11.6569 11.0931 13 12.75 13C14.4069 13 15.75 11.6569 15.75 10C15.75 9.82964 15.7358 9.6626 15.7085 9.5" stroke="#BA7AB8" stroke-width="1.5" stroke-linecap="round"/>
<path d="M5.75 15.2161C5.10254 13.5622 4.75 11.8013 4.75 10.1433C4.75 5.64588 8.33172 2 12.75 2C17.1683 2 20.75 5.64588 20.75 10.1433C20.75 14.6055 18.1967 19.8124 14.2129 21.6744C13.2843 22.1085 12.2157 22.1085 11.2871 21.6744C10.0147 21.0797 8.88831 20.1439 7.94438 19" stroke="#BA7AB8" stroke-width="1.5" stroke-linecap="round"/>
</svg>
