<svg width="25" height="24" viewBox="0 0 25 24" fill="none" xmlns="http://www.w3.org/2000/svg">
<path d="M11.2401 14.3082L11.685 13.7045H11.685L11.2401 14.3082ZM12.25 8.10615L11.7141 8.63086C11.8552 8.77495 12.0483 8.85615 12.25 8.85615C12.4517 8.85615 12.6448 8.77495 12.7859 8.63086L12.25 8.10615ZM13.2599 14.3082L12.815 13.7045L12.815 13.7045L13.2599 14.3082ZM12.25 14.8103L12.25 14.0603H12.25L12.25 14.8103ZM11.685 13.7045C11.0414 13.2302 10.2175 12.5568 9.56176 11.808C8.88279 11.0325 8.5 10.3064 8.5 9.71476H7C7 10.8757 7.69886 11.9574 8.43323 12.7961C9.19088 13.6614 10.1119 14.4085 10.7951 14.912L11.685 13.7045ZM8.5 9.71476C8.5 8.60703 8.99454 8.02373 9.50333 7.83348C10.0205 7.6401 10.8451 7.74331 11.7141 8.63086L12.7859 7.58145C11.63 6.40091 10.2046 5.96985 8.97797 6.42849C7.74299 6.89028 7 8.14533 7 9.71476H8.5ZM13.7049 14.912C14.3881 14.4085 15.3091 13.6614 16.0668 12.7961C16.8011 11.9574 17.5 10.8758 17.5 9.71475H16C16 10.3064 15.6172 11.0326 14.9382 11.808C14.2825 12.5568 13.4586 13.2302 12.815 13.7045L13.7049 14.912ZM17.5 9.71475C17.5 8.14532 16.757 6.89027 15.522 6.42849C14.2954 5.96985 12.87 6.40091 11.7141 7.58145L12.7859 8.63086C13.6549 7.74331 14.4795 7.6401 14.9967 7.83348C15.5055 8.02373 16 8.60702 16 9.71475H17.5ZM10.7951 14.912C11.1868 15.2007 11.6252 15.5603 12.25 15.5603L12.25 14.0603C12.2352 14.0603 12.2182 14.0626 12.149 14.0252C12.0508 13.972 11.928 13.8836 11.685 13.7045L10.7951 14.912ZM12.815 13.7045C12.572 13.8836 12.4492 13.972 12.351 14.0252C12.2818 14.0626 12.2648 14.0603 12.25 14.0603L12.25 15.5603C12.8748 15.5603 13.3132 15.2007 13.7049 14.912L12.815 13.7045Z" fill="#BA7AB8"/>
<path d="M13.3367 21.3877L13.9821 21.7697L13.3367 21.3877ZM13.8788 20.4718L13.2333 20.0898L13.8788 20.4718ZM10.6212 20.4718L9.97579 20.8539H9.97579L10.6212 20.4718ZM11.1633 21.3877L11.8087 21.0057L11.1633 21.3877ZM1.5 10.5C1.5 10.9142 1.83579 11.25 2.25 11.25C2.66421 11.25 3 10.9142 3 10.5H1.5ZM3.32351 15.6264C3.165 15.2437 2.72627 15.062 2.34359 15.2205C1.96091 15.379 1.77918 15.8177 1.93769 16.2004L3.32351 15.6264ZM8.03958 18.9915L8.02666 19.7413L8.03958 18.9915ZM5.33658 18.6194L5.04957 19.3123H5.04957L5.33658 18.6194ZM21.8694 15.9134L22.5623 16.2004V16.2004L21.8694 15.9134ZM16.4604 18.9915L16.4475 18.2416L16.4604 18.9915ZM19.1634 18.6194L19.4504 19.3123H19.4504L19.1634 18.6194ZM19.8625 2.7368L19.4706 3.37628L19.8625 2.7368ZM21.5132 4.38751L22.1527 3.99563V3.99563L21.5132 4.38751ZM4.63751 2.7368L4.24563 2.09732V2.09732L4.63751 2.7368ZM2.9868 4.38751L2.34732 3.99563H2.34732L2.9868 4.38751ZM9.65279 19.2098L10.0299 18.5615L10.0299 18.5615L9.65279 19.2098ZM13.9821 21.7697L14.5242 20.8539L13.2333 20.0898L12.6912 21.0057L13.9821 21.7697ZM9.97579 20.8539L10.5179 21.7697L11.8087 21.0057L11.2666 20.0898L9.97579 20.8539ZM12.6912 21.0057C12.4985 21.3313 12.0015 21.3313 11.8087 21.0057L10.5179 21.7697C11.2915 23.0767 13.2085 23.0767 13.9821 21.7697L12.6912 21.0057ZM10.75 2.75H13.75V1.25H10.75V2.75ZM21.5 10.5V11.5H23V10.5H21.5ZM8.0525 18.2416C6.79706 18.2199 6.13923 18.1401 5.62359 17.9265L5.04957 19.3123C5.85454 19.6457 6.77138 19.7197 8.02666 19.7413L8.0525 18.2416ZM1.93769 16.2004C2.52128 17.6093 3.64066 18.7287 5.04957 19.3123L5.6236 17.9265C4.58223 17.4951 3.75486 16.6678 3.32351 15.6264L1.93769 16.2004ZM21.5 11.5C21.5 12.6751 21.4996 13.5189 21.4542 14.1847C21.4092 14.8438 21.3226 15.2736 21.1765 15.6264L22.5623 16.2004C22.7968 15.6344 22.9005 15.0223 22.9507 14.2868C23.0004 13.5581 23 12.6546 23 11.5H21.5ZM16.4733 19.7413C17.7286 19.7197 18.6455 19.6457 19.4504 19.3123L18.8764 17.9265C18.3608 18.1401 17.7029 18.2199 16.4475 18.2416L16.4733 19.7413ZM21.1765 15.6264C20.7451 16.6678 19.9178 17.4951 18.8764 17.9265L19.4504 19.3123C20.8593 18.7287 21.9787 17.6093 22.5623 16.2004L21.1765 15.6264ZM13.75 2.75C15.4012 2.75 16.587 2.75079 17.5119 2.83873C18.4257 2.92561 19.0071 3.09223 19.4706 3.37628L20.2544 2.09732C19.5155 1.64457 18.6774 1.44279 17.6539 1.34547C16.6415 1.24921 15.3722 1.25 13.75 1.25V2.75ZM23 10.5C23 8.87781 23.0008 7.6085 22.9045 6.59611C22.8072 5.57256 22.6054 4.73445 22.1527 3.99563L20.8737 4.77938C21.1578 5.24291 21.3244 5.82434 21.4113 6.73809C21.4992 7.663 21.5 8.84876 21.5 10.5H23ZM19.4706 3.37628C20.0425 3.72672 20.5233 4.20752 20.8737 4.77938L22.1527 3.99563C21.6786 3.22194 21.0281 2.57144 20.2544 2.09732L19.4706 3.37628ZM10.75 1.25C9.12781 1.25 7.8585 1.24921 6.84611 1.34547C5.82256 1.44279 4.98445 1.64457 4.24563 2.09732L5.02938 3.37628C5.49291 3.09223 6.07434 2.92561 6.98809 2.83873C7.913 2.75079 9.09876 2.75 10.75 2.75V1.25ZM3 10.5C3 8.84876 3.00079 7.663 3.08873 6.73809C3.17561 5.82434 3.34223 5.24291 3.62628 4.77938L2.34732 3.99563C1.89457 4.73445 1.69279 5.57256 1.59547 6.59611C1.49921 7.6085 1.5 8.87781 1.5 10.5H3ZM4.24563 2.09732C3.47194 2.57144 2.82144 3.22194 2.34732 3.99563L3.62628 4.77938C3.97672 4.20752 4.45752 3.72672 5.02938 3.37628L4.24563 2.09732ZM11.2666 20.0898C11.0636 19.7468 10.8854 19.4441 10.7121 19.2063C10.5295 18.9559 10.3202 18.7304 10.0299 18.5615L9.27572 19.8582C9.32313 19.8857 9.38772 19.936 9.49985 20.0898C9.62122 20.2564 9.75835 20.4865 9.97579 20.8539L11.2666 20.0898ZM8.02666 19.7413C8.46575 19.7489 8.74387 19.7545 8.95588 19.7779C9.15399 19.7999 9.23078 19.832 9.27572 19.8582L10.0299 18.5615C9.7371 18.3912 9.43246 18.3215 9.12097 18.287C8.82339 18.2541 8.46375 18.2487 8.0525 18.2416L8.02666 19.7413ZM14.5242 20.8539C14.7416 20.4865 14.8787 20.2564 15.0001 20.0898C15.1122 19.936 15.1768 19.8857 15.2242 19.8582L14.4701 18.5615C14.1798 18.7304 13.9704 18.9559 13.7879 19.2063C13.6146 19.4441 13.4364 19.7468 13.2333 20.0898L14.5242 20.8539ZM16.4475 18.2416C16.0362 18.2487 15.6766 18.2541 15.379 18.287C15.0675 18.3215 14.7629 18.3912 14.4701 18.5615L15.2242 19.8582C15.2692 19.832 15.346 19.7999 15.5441 19.7779C15.7561 19.7545 16.0342 19.7489 16.4733 19.7413L16.4475 18.2416Z" fill="#BA7AB8"/>
</svg>
