<svg width="16" height="17" viewBox="0 0 16 17" fill="none" xmlns="http://www.w3.org/2000/svg">
<path d="M2.33358 15.072L6.44558 12.7987L7.81691 14.17C7.81691 14.17 8.30558 14.6414 8.75958 14.17C10.4782 12.3854 10.2622 10.7667 10.0669 9.95937L11.5956 8.43137C13.3329 8.7067 14.4416 7.4527 14.4909 7.39537C14.7209 7.13137 14.7062 6.73403 14.4589 6.4867L10.0129 2.04003C9.76558 1.7927 9.36958 1.77803 9.10424 2.00803C9.04758 2.05737 7.79891 3.1667 8.06891 4.90403L6.54024 6.43337C6.41891 6.40403 6.27758 6.37603 6.11824 6.3547C5.75691 6.3087 5.41758 6.5627 5.36958 6.92737C5.32091 7.2927 5.57758 7.62803 5.94224 7.6767C6.26158 7.7187 6.46558 7.80136 6.46558 7.80136C6.71558 7.90937 7.00691 7.8527 7.19958 7.66003L9.26824 5.59137C9.43824 5.42137 9.50358 5.17337 9.43958 4.94137C9.27358 4.3447 9.42091 3.8527 9.60358 3.5147L12.9856 6.89737C12.6496 7.08003 12.1569 7.22803 11.5589 7.0607C11.3236 6.99603 11.0789 7.06137 10.9089 7.23203L8.84091 9.30003C8.64691 9.49337 8.59158 9.78603 8.70091 10.0374C8.70758 10.0514 9.24291 11.3314 8.25158 12.718L3.78291 8.25003C3.89224 8.1727 4.00424 8.10137 4.12024 8.03736C4.44158 7.85803 4.55758 7.45203 4.37824 7.1307C4.19958 6.80803 3.79291 6.6947 3.47158 6.87203C3.06158 7.10003 2.67758 7.3927 2.32958 7.7407C2.06958 8.00137 2.07024 8.42203 2.33024 8.6827L3.70091 10.0534L1.42758 14.1667C1.28424 14.4267 1.33024 14.75 1.53958 14.96C1.54024 14.96 1.78291 15.2907 2.33358 15.072ZM3.71424 12.786L4.68224 11.0347L5.46558 11.818L3.71424 12.786Z" fill="white"/>
</svg>
