<svg width="16" height="17" viewBox="0 0 16 17" fill="none" xmlns="http://www.w3.org/2000/svg">
<path d="M11.231 7.68929C10.863 7.68929 10.5644 7.39062 10.5644 7.02262C10.5644 6.73062 10.4504 6.45529 10.2437 6.24796C10.037 6.04196 9.76235 5.92796 9.46969 5.92796C9.10169 5.92796 8.80302 5.62929 8.80302 5.26129C8.80302 4.89329 9.10169 4.59462 9.46969 4.59462C10.1184 4.59462 10.7277 4.84662 11.1864 5.30529C11.645 5.76462 11.8977 6.37462 11.8977 7.02262C11.8977 7.39062 11.599 7.68929 11.231 7.68929ZM13.9964 7.68862C14.3644 7.68862 14.663 7.38996 14.663 7.02196C14.663 5.63529 14.1224 4.33129 13.1417 3.35129C12.1617 2.37062 10.8577 1.83062 9.47102 1.82996C9.10302 1.82996 8.80435 2.12862 8.80435 2.49662C8.80435 2.86529 9.10235 3.16329 9.47102 3.16329C10.5024 3.16329 11.471 3.56529 12.1997 4.29396C12.9284 5.02262 13.3297 5.99196 13.3304 7.02262C13.329 7.39062 13.6277 7.68862 13.9964 7.68862C13.9957 7.68862 13.9957 7.68862 13.9964 7.68862ZM12.5017 14.4046L14.437 12.4693C14.6977 12.2086 14.6977 11.7873 14.437 11.5266L12.0457 9.13462C11.8484 8.93729 11.5484 8.88329 11.293 9.00129L9.78835 9.70129L6.79969 6.71196L7.49902 5.20796C7.61702 4.95396 7.56369 4.65329 7.36569 4.45529L4.97435 2.06329C4.71369 1.80262 4.29235 1.80329 4.03169 2.06329L2.09569 3.99862C1.12435 4.97062 1.12435 6.55129 2.09569 7.52196L2.61502 8.04129C2.87569 8.30196 3.29702 8.30196 3.55769 8.04129C3.81835 7.78062 3.81835 7.35929 3.55769 7.09862L3.03835 6.57929C2.58702 6.12796 2.58702 5.39329 3.03835 4.94129L4.50302 3.47729L6.09369 5.06796L5.39435 6.57196C5.27635 6.82596 5.32969 7.12662 5.52769 7.32462L9.17635 10.974C9.37435 11.172 9.67502 11.2266 9.92902 11.1073L11.4337 10.4073L13.0237 11.9986L11.5597 13.4626C11.1077 13.914 10.3737 13.914 9.92235 13.4626L5.16902 8.70929C4.90835 8.44862 4.48702 8.44862 4.22635 8.70929C3.96569 8.96996 3.96569 9.39129 4.22635 9.65196L8.97969 14.4053C9.46569 14.8913 10.103 15.134 10.741 15.134C11.379 15.134 12.0157 14.8906 12.5017 14.4046Z" fill="white"/>
</svg>
