<svg width="25" height="24" viewBox="0 0 25 24" fill="none" xmlns="http://www.w3.org/2000/svg">
<path d="M6.53954 7.77203C4.07986 8.32856 2.85002 8.60682 2.55742 9.54773C2.26482 10.4886 3.10325 11.4691 4.7801 13.4299L5.21392 13.9372C5.69043 14.4944 5.92868 14.773 6.03586 15.1177C6.14305 15.4624 6.10703 15.8341 6.03498 16.5776L5.9694 17.2544C5.71588 19.8706 5.58912 21.1787 6.35515 21.7602C7.12118 22.3417 8.27268 21.8115 10.5757 20.7512L11.1715 20.4768C11.8259 20.1755 12.1531 20.0248 12.5 20.0248C12.8469 20.0248 13.1741 20.1755 13.8285 20.4768L14.4243 20.7512C16.7273 21.8115 17.8788 22.3417 18.6449 21.7602C19.4109 21.1787 19.2841 19.8706 19.0306 17.2544M20.2199 13.4299C21.8968 11.4691 22.7352 10.4886 22.4426 9.54773C22.15 8.60682 20.9201 8.32856 18.4605 7.77203L17.8241 7.62805C17.1251 7.4699 16.7757 7.39083 16.4951 7.17781C16.2144 6.96479 16.0345 6.64193 15.6745 5.99623L15.3468 5.40837C14.0802 3.13612 13.4469 2 12.5 2C11.5531 2 10.9198 3.13613 9.65316 5.40838" stroke="black" stroke-width="1.5" stroke-linecap="round"/>
</svg>
