<svg width="16" height="17" viewBox="0 0 16 17" fill="none" xmlns="http://www.w3.org/2000/svg">
<path d="M10.0585 9.25537H9.89518C9.52652 9.25537 9.22852 9.55404 9.22852 9.92204C9.22852 10.29 9.52652 10.5887 9.89518 10.5887H10.0585C10.4272 10.5887 10.7252 10.29 10.7252 9.92204C10.7252 9.55404 10.4272 9.25537 10.0585 9.25537Z" fill="white"/>
<path d="M13.104 4.73206L13.1047 3.19073C13.1047 2.73939 12.9134 2.33939 12.58 2.09273C12.2467 1.84606 11.8074 1.78073 11.3607 1.91806L3.02003 4.71006C2.0647 4.86539 1.33203 5.69006 1.33203 6.68806V7.79939C1.33203 8.16739 1.63003 8.46606 1.9987 8.46606C2.36736 8.46606 2.66536 8.16739 2.66536 7.79939V6.68739C2.66536 6.31406 2.96936 6.01006 3.3427 6.01006H12.6554C13.0287 6.01006 13.3327 6.31406 13.3327 6.68739V7.56206H9.71136C8.36803 7.56206 7.27536 8.62339 7.27536 9.92739C7.27536 11.2321 8.3687 12.2934 9.71136 12.2934H13.3327V13.1554C13.3327 13.5287 13.0287 13.8327 12.6554 13.8327H3.3427C2.96936 13.8327 2.66536 13.5287 2.66536 13.1554V10.0714C2.66536 9.70339 2.36736 9.40473 1.9987 9.40473C1.63003 9.40473 1.33203 9.70339 1.33203 10.0714V13.1554C1.33203 14.2647 2.23403 15.1667 3.3427 15.1667H12.6554C13.764 15.1667 14.666 14.2647 14.666 13.1561V6.68739C14.6654 5.73406 13.9967 4.93739 13.104 4.73206ZM11.7714 3.19073L11.7707 4.67739H7.32336L11.7714 3.19073ZM9.7107 10.9607C9.1027 10.9607 8.60803 10.4974 8.60803 9.92806C8.60803 9.35873 9.1027 8.89606 9.7107 8.89606H13.332V10.9607H9.7107Z" fill="white"/>
</svg>
