<svg width="14" height="15" viewBox="0 0 14 15" fill="none" xmlns="http://www.w3.org/2000/svg">
<path d="M3.55461 12.8809C3.55461 12.6575 3.55461 12.4342 3.55461 12.2109C3.55619 12.2018 3.55587 12.1924 3.55366 12.1834C3.55145 12.1744 3.5474 12.1659 3.54175 12.1586C3.5361 12.1512 3.52899 12.145 3.52084 12.1404C3.51269 12.1359 3.50368 12.133 3.49438 12.1321C2.93523 11.9748 2.41914 11.6947 1.98458 11.3125C1.66795 11.0274 1.40432 10.6894 1.20569 10.3141C0.925719 9.77187 0.739396 9.1871 0.654443 8.58401C0.549186 7.82748 0.51263 7.06314 0.545215 6.30015C0.55236 5.94444 0.570735 5.59277 0.611568 5.23705C0.676689 4.56109 0.848936 3.89949 1.12198 3.27658C1.45914 2.51068 2.07079 1.89546 2.83901 1.54954C3.36232 1.31247 3.91285 1.1394 4.47845 1.03416C5.03311 0.930155 5.59469 0.866321 6.15873 0.843163C6.66716 0.825364 7.17616 0.832784 7.68384 0.865395C8.41045 0.895757 9.13048 1.01489 9.82757 1.2201C10.3444 1.36759 10.8361 1.59069 11.2863 1.88201C11.725 2.18014 12.0798 2.5839 12.3174 3.05527C12.5966 3.6058 12.7864 4.19648 12.8798 4.80555C12.9405 5.16715 12.9804 5.53187 12.9993 5.89795C13.0258 6.35169 13.0228 6.80745 13.0054 7.25917C12.988 7.71089 12.9493 8.14947 12.8931 8.59209C12.8221 9.25643 12.6159 9.89963 12.2867 10.4828C11.8583 11.2206 11.1721 11.7777 10.3574 12.0492C9.8003 12.2423 9.22509 12.3798 8.64035 12.4595C8.21263 12.5181 7.78388 12.5605 7.35309 12.5777C7.02337 12.5929 6.69364 12.5888 6.36391 12.5838C6.1771 12.5838 5.99131 12.5656 5.80552 12.5494C5.78728 12.546 5.76844 12.548 5.75136 12.5552C5.73428 12.5624 5.71974 12.5745 5.70957 12.5898C5.3339 13.0365 4.94395 13.471 4.55093 13.9036C4.47934 13.9825 4.39645 14.0506 4.30491 14.1057C4.24482 14.1447 4.1763 14.1692 4.10489 14.1772C4.03347 14.1851 3.96117 14.1764 3.8938 14.1516C3.82644 14.1268 3.7659 14.0867 3.71709 14.0345C3.66827 13.9823 3.63255 13.9194 3.61279 13.851C3.57389 13.7295 3.5546 13.6026 3.55563 13.4751C3.55461 13.275 3.55461 13.0779 3.55461 12.8809ZM4.00887 13.7287L4.05685 13.6843L4.90924 12.7475C5.23726 12.3871 5.56495 12.0263 5.89229 11.6652C5.90838 11.6432 5.93009 11.6258 5.9552 11.6147C5.98031 11.6037 6.00792 11.5995 6.03521 11.6025C6.14648 11.6136 6.25775 11.6177 6.37004 11.6187C6.75795 11.6187 7.14587 11.6187 7.53378 11.5914C7.88596 11.5641 8.23713 11.5217 8.58625 11.4671C8.96214 11.4023 9.33425 11.3177 9.70099 11.2135C10.5176 10.9962 11.1495 10.5313 11.5466 9.77848C11.7811 9.31561 11.9281 8.81422 11.9805 8.29903C12.0425 7.81345 12.0797 7.32506 12.0918 6.83575C12.1099 6.22107 12.0675 5.60611 11.9652 4.99957C11.8943 4.56013 11.7666 4.13152 11.5854 3.72425C11.3547 3.21898 11.0281 2.80061 10.5248 2.5318C9.75305 2.11949 8.91802 1.93557 8.05746 1.84159C7.81349 1.81532 7.56951 1.80117 7.32451 1.79207C6.82286 1.76647 6.32014 1.76917 5.81879 1.80016C5.45824 1.82665 5.09963 1.87457 4.74489 1.94366C4.2232 2.0378 3.71851 2.20808 3.24734 2.44893C2.97418 2.58557 2.72636 2.767 2.51439 2.98554C2.17084 3.36565 1.91885 3.81792 1.77735 4.30835C1.60949 4.87952 1.51786 5.46998 1.50479 6.0647C1.47194 6.6594 1.47945 7.25562 1.52725 7.84933C1.55699 8.20266 1.61675 8.55288 1.70589 8.89627C1.83853 9.43139 2.09583 9.92836 2.45722 10.3474C2.84738 10.775 3.35165 11.0846 3.91189 11.2408C3.98233 11.262 4.01398 11.2862 4.01398 11.3651C4.00785 11.6561 4.01398 11.9471 4.01398 12.2382L4.00887 13.7287Z" fill="#BDBDBD"/>
<path d="M3.29444 4.70259C3.2873 4.48127 3.40878 4.3206 3.55578 4.17609C3.74965 3.99223 3.96325 3.82992 4.19277 3.69203C4.29743 3.62814 4.42187 3.60379 4.54322 3.62347C4.66456 3.64315 4.77465 3.70553 4.85324 3.79915C5.13094 4.08812 5.3795 4.40322 5.59538 4.73998C5.70229 4.89146 5.78301 5.05948 5.83426 5.23717C5.85473 5.30651 5.85607 5.38002 5.83811 5.45004C5.82016 5.52007 5.78358 5.58405 5.73217 5.63533C5.61441 5.74976 5.48889 5.85612 5.35651 5.95365C5.28981 6.00628 5.24021 6.07716 5.21389 6.15748C5.18757 6.2378 5.18569 6.324 5.20849 6.40537C5.29024 6.78744 5.47551 7.14027 5.74442 7.42603C6.07118 7.82093 6.4922 8.12899 6.96941 8.32239C7.08668 8.38208 7.22104 8.40026 7.35018 8.37393C7.42091 8.35483 7.48377 8.31417 7.52984 8.25771C7.6013 8.16778 7.67889 8.08087 7.7432 7.98486C7.82661 7.86511 7.95397 7.78235 8.09814 7.75422C8.2423 7.7261 8.39187 7.75483 8.51494 7.83429C8.86097 8.03304 9.18767 8.26308 9.49085 8.52147C9.56231 8.5821 9.63683 8.64071 9.70828 8.70236C9.79283 8.76619 9.8539 8.85572 9.88211 8.95721C9.91032 9.0587 9.90413 9.16656 9.86447 9.26423C9.8014 9.42847 9.70947 9.58037 9.59293 9.71291C9.44811 9.91217 9.26364 10.08 9.05087 10.2061C8.94916 10.2652 8.83488 10.2999 8.71717 10.3075C8.59947 10.315 8.48161 10.2952 8.37305 10.2495C7.54713 9.92034 6.77541 9.47109 6.08334 8.9166C5.40643 8.36495 4.81487 7.71806 4.32752 6.99654C3.91744 6.39924 3.5912 5.74959 3.35774 5.06537C3.33288 4.98262 3.31243 4.89863 3.29649 4.81375C3.29195 4.77686 3.29126 4.73961 3.29444 4.70259Z" fill="#BDBDBD"/>
<path d="M6.81905 3.62728C7.51006 3.63992 8.17468 3.89225 8.69703 4.34027C9.21937 4.7883 9.56631 5.40359 9.67736 6.07888C9.72206 6.3244 9.74597 6.57319 9.74881 6.82265C9.74881 6.88126 9.7335 6.9237 9.67021 6.92977C9.60692 6.93583 9.59059 6.88227 9.59059 6.82871C9.60007 6.32411 9.49543 5.82381 9.28434 5.36442C9.10657 4.98694 8.84322 4.65516 8.51479 4.39488C8.18635 4.1346 7.80168 3.95284 7.39071 3.86375C7.17342 3.81395 6.95122 3.78819 6.72819 3.78694C6.70648 3.78731 6.68482 3.78459 6.66388 3.77886C6.64606 3.77388 6.63088 3.76225 6.62155 3.74642C6.61222 3.73058 6.60946 3.71178 6.61386 3.69397C6.61399 3.68552 6.61582 3.67719 6.61924 3.66945C6.62266 3.6617 6.6276 3.65471 6.63378 3.64888C6.63995 3.64305 6.64724 3.63849 6.65521 3.63548C6.66319 3.63246 6.67168 3.63105 6.68022 3.63132C6.72615 3.62526 6.77311 3.62728 6.81905 3.62728Z" fill="#BDBDBD"/>
<path d="M8.78938 6.36797C8.78595 6.08722 8.71611 5.81118 8.58546 5.56197C8.4548 5.31277 8.26697 5.09735 8.03703 4.93298C7.76867 4.74636 7.45668 4.63055 7.13054 4.59647C7.07541 4.58939 7.02029 4.58636 6.96414 4.5803C6.908 4.57423 6.87431 4.55099 6.87941 4.4944C6.88452 4.43781 6.92025 4.4176 6.9815 4.42164C7.88595 4.47621 8.65565 4.9825 8.89248 5.92535C8.9358 6.10714 8.95739 6.29335 8.95679 6.48014C8.95679 6.49732 8.95679 6.5145 8.95679 6.53067C8.95679 6.58119 8.92413 6.61454 8.87411 6.61353C8.86301 6.61316 8.85211 6.61056 8.84207 6.60588C8.83203 6.6012 8.82305 6.59454 8.8157 6.58631C8.80834 6.57809 8.80276 6.56846 8.79928 6.55802C8.79581 6.54759 8.79453 6.53656 8.7955 6.52561C8.78734 6.47812 8.78938 6.42961 8.78938 6.36797Z" fill="#BDBDBD"/>
<path d="M7.205 5.24206C7.70112 5.27541 8.04718 5.51592 8.14211 6.03838C8.15363 6.10531 8.16181 6.17276 8.16661 6.24049C8.16661 6.29506 8.15436 6.34154 8.09413 6.34154C8.03391 6.34154 8.01349 6.30112 8.01145 6.24049C8.01088 6.04022 7.94856 5.84489 7.8328 5.68064C7.71116 5.53188 7.53652 5.43495 7.34485 5.40981C7.302 5.40188 7.25871 5.39648 7.21521 5.39364C7.14375 5.39364 7.10394 5.35828 7.11312 5.30371C7.12231 5.24914 7.16518 5.23903 7.205 5.24206Z" fill="#BDBDBD"/>
</svg>
