<svg width="25" height="24" viewBox="0 0 25 24" fill="none" xmlns="http://www.w3.org/2000/svg">
<path d="M7.5 3.33782C8.97087 2.48697 10.6786 2 12.5 2C18.0228 2 22.5 6.47715 22.5 12C22.5 17.5228 18.0228 22 12.5 22C6.97715 22 2.5 17.5228 2.5 12C2.5 10.1786 2.98697 8.47087 3.83782 7" stroke="white" stroke-width="1.5" stroke-linecap="round"/>
<path d="M15.3284 19.0711C14.957 19.9997 14.516 20.7362 14.0307 21.2388C13.5454 21.7413 13.0253 22 12.5 22C11.9747 22 11.4546 21.7413 10.9693 21.2388C10.484 20.7362 10.043 19.9997 9.67157 19.0711C9.30014 18.1425 9.0055 17.0401 8.80448 15.8268C8.60346 14.6136 8.5 13.3132 8.5 12C8.5 10.6868 8.60346 9.38642 8.80448 8.17317C9.0055 6.95991 9.30014 5.85752 9.67157 4.92893C10.043 4.00035 10.484 3.26375 10.9693 2.76121C11.4546 2.25866 11.9747 2 12.5 2C13.0253 2 13.5454 2.25866 14.0307 2.7612C14.516 3.26375 14.957 4.00035 15.3284 4.92893C15.6999 5.85752 15.9945 6.95991 16.1955 8.17317C16.3965 9.38642 16.5 10.6868 16.5 12C16.5 13.3132 16.3965 14.6136 16.1955 15.8268" stroke="white" stroke-width="1.5" stroke-linecap="round"/>
<path d="M2.5 12H10.5M22.5 12H14.5" stroke="white" stroke-width="1.5" stroke-linecap="round"/>
</svg>
