<svg width="76" height="76" viewBox="0 0 76 76" fill="none" xmlns="http://www.w3.org/2000/svg">
<path d="M11.8734 50.2475L11.9097 50.4108L11.9465 50.4111L12.0476 50.1113C12.0579 50.2643 12.0203 50.419 12.0895 50.5542C12.0837 50.7276 11.948 51.038 11.8227 51.1575C11.7147 50.9065 11.8275 50.5087 11.8734 50.2475Z" fill="#1B2F5C"/>
<path d="M15.2612 60.1592L15.3013 60.3812L15.3394 60.4017C15.395 60.1163 15.3954 59.8101 15.4131 59.5195L15.4544 59.5285C15.4939 59.7042 15.4691 59.8881 15.4433 60.0642C15.4236 60.1973 15.411 60.3781 15.4911 60.4936L15.4896 60.5325C15.4814 60.7471 15.5204 61.2942 15.3698 61.4339L15.3 61.4099C15.1528 61.1019 15.2479 60.5023 15.2612 60.1592Z" fill="#1B2F5C"/>
<path d="M50.6935 12.9125C50.78 12.9031 50.8667 12.8963 50.9535 12.892C51.6119 12.8626 52.3971 13.3228 52.8654 13.7548C53.9538 14.7585 54.3059 16.4007 54.356 17.8229C54.082 17.5532 53.8541 17.2188 53.6079 16.9223C53.1774 16.4042 52.707 15.9396 52.1726 15.5299C51.1569 14.7644 50.3072 14.648 49.1328 14.3075C50.4451 14.156 51.7981 14.4913 52.9782 15.0442C52.2768 13.914 51.9612 13.5459 50.7307 13.0082L50.6935 12.9125Z" fill="#1B2F5C"/>
<path d="M22.1839 9.44727C22.2839 9.45968 22.2874 9.43964 22.3563 9.52116C22.3468 9.85719 22.0501 10.2322 21.9807 10.583C21.9349 10.8145 21.9701 11.0866 21.9809 11.3216C22.0376 12.5534 22.4527 13.5621 23.093 14.6005C22.2858 14.5632 21.7493 14.3545 21.1597 13.7919C20.2794 14.1486 19.5231 14.5353 18.8727 15.2487C18.0915 16.1055 17.9979 16.904 17.6882 17.9705C17.6026 18.2758 17.4972 18.5741 17.3722 18.8655C17.2471 19.1569 17.1034 19.4387 16.9411 19.7111C16.5575 20.3452 16.0351 20.8314 15.4971 21.3309C15.4575 21.3695 15.4181 21.4073 15.3767 21.444C15.1561 21.64 14.5644 22.2201 14.2578 22.2044C14.2852 21.9531 14.9072 21.3947 15.086 21.1727C15.3928 20.7917 15.6757 20.3772 15.8952 19.9393C16.2545 19.2233 16.46 18.4223 16.5649 17.6307C16.6734 16.8113 16.5187 15.9375 16.9859 15.2109C17.6118 14.2376 18.5215 13.2675 19.3759 12.4871C19.6969 12.1941 20.1202 11.9632 20.3905 11.6256C20.6183 11.3412 20.7142 10.9856 20.8497 10.654C21.1095 10.0184 21.5752 9.70446 22.1839 9.44727Z" fill="#1B2F5C"/>
<path d="M47.5928 4.66486C48.5593 4.54862 50.1937 5.07041 51.0171 5.56324C51.1184 5.62391 51.2813 5.72066 51.3122 5.84137C50.7797 6.07754 48.7616 4.65016 46.5212 5.81354C44.8406 6.68618 43.9884 8.65983 43.1779 10.2688C42.6965 11.2248 42.2242 12.1923 41.7085 13.1303C41.1162 14.208 40.3857 15.3296 39.51 16.2C38.9424 16.7643 38.1994 17.2768 37.4975 17.6544C37.1203 17.8757 36.6914 18.0455 36.2801 18.192C35.9723 18.3016 34.4853 18.7749 34.1992 18.639C34.2167 18.4992 34.4643 18.4147 34.5844 18.3552C34.9986 18.1499 35.4279 17.9677 35.8283 17.7364C39.2627 15.7521 40.0701 13.3335 41.7599 10.0113C42.3401 8.87044 43.031 7.68799 43.8422 6.69581C44.8256 5.49274 46.0532 4.8235 47.5928 4.66486Z" fill="#1B2F5C"/>
<path d="M26.4646 69.0924C26.4461 69.032 26.4258 68.9718 26.4194 68.9086C26.3938 68.6514 26.4607 68.134 26.6164 67.9297C26.6009 68.3131 26.6135 68.7338 26.4646 69.0924Z" fill="#1B2F5C"/>
<path d="M35.6035 19.4328C35.8225 19.4088 36.0928 19.3662 36.281 19.494C35.9746 19.7812 34.5412 20.1332 34.0579 20.3121C32.2785 20.9705 30.5721 21.7559 28.8839 22.6178C27.8358 23.1529 26.798 23.6714 25.8659 24.3991C25.4642 24.7127 25.1239 25.0521 24.8234 25.4632C25.0369 25.7739 25.3446 26.148 25.6964 26.2984C27.3649 27.0114 30.996 25.1064 32.5116 24.2932C32.976 24.0442 33.424 23.7397 33.9004 23.5171C34.0183 23.462 34.1685 23.3952 34.3002 23.4252C34.2928 23.4479 34.2887 23.472 34.2784 23.4936C34.1922 23.6721 33.6041 24.0387 33.4222 24.1781C31.9278 25.3232 30.5146 26.5154 28.72 27.1716C28.3834 27.3104 28.0216 27.4124 27.6699 27.5053C26.3973 27.8415 24.8977 28.0346 23.7084 27.3296C23.21 27.0343 22.7496 26.5543 22.6142 25.9781C22.4472 25.2665 22.6459 24.4347 23.0316 23.8259C24.2694 21.8714 27.3592 20.2416 29.5818 19.7392C29.2796 19.9818 28.9298 20.1625 28.5961 20.3577C27.5685 20.9586 26.45 21.6065 25.9413 22.7319C27.5366 22.6433 28.8124 21.8875 30.2378 21.2693C31.3761 20.7684 32.5378 20.3295 33.723 19.9527C34.342 19.7504 34.9594 19.5396 35.6035 19.4328Z" fill="#1B2F5C"/>
<path d="M55.797 27.127L55.8864 27.1732C56.0545 27.3694 56.1221 28.2452 56.2291 28.5453C56.7733 30.0721 57.4958 31.6046 58.3603 32.9765C59.8301 35.3089 61.4904 37.4871 63.2201 39.6307C63.7423 40.278 64.2528 40.9372 64.7912 41.5711C65.9397 42.9235 67.1601 44.2222 68.2897 45.5891C68.8986 46.3262 72.1007 50.1701 72.0923 50.8274L72.032 50.8354C71.86 50.7101 71.7273 50.5472 71.6043 50.3752C71.3144 49.9692 71.057 49.5256 70.732 49.1475C70.2367 48.5711 69.671 48.0637 69.1825 47.4782C68.7554 46.9718 68.2482 46.5448 67.7708 46.0878C66.838 45.195 65.6115 43.9928 64.5249 43.2955L64.7119 43.9027C64.871 44.4189 65.817 48.1995 65.6799 48.4588C65.5827 48.487 65.5723 48.4884 65.4759 48.459C65.2563 48.1215 65.1922 47.6391 65.0234 47.2663C64.6328 46.4027 64.1269 45.5356 63.6487 44.7179C61.4201 40.9063 58.7429 37.319 56.9825 33.2454C56.2845 31.6302 55.7352 29.7804 55.7241 28.0169C55.7224 27.7349 55.6921 27.3909 55.797 27.127Z" fill="#1B2F5C"/>
<path d="M11.875 50.2477C12.1054 48.9484 12.2206 47.6274 12.4034 46.3205C12.7546 43.8098 13.1444 41.2899 13.3059 38.7581C13.3754 37.6698 13.369 36.5808 13.3648 35.4909C13.3624 34.8663 13.3097 34.2036 13.404 33.5863C13.4673 33.1723 13.6809 32.8536 14.0201 32.6076C14.4699 32.2817 15.0312 32.1664 15.5759 32.2558C16.1334 32.3472 16.5977 32.6137 16.9129 33.0916C17.5458 34.0514 17.0811 36.4547 16.8314 37.5534C16.3029 39.8792 15.3032 42.0162 14.3763 44.1999C13.7828 45.5982 13.1731 47.0188 12.6919 48.4593C12.462 49.1479 12.2805 49.8539 12.0911 50.5544C12.0219 50.4192 12.0595 50.2645 12.0492 50.1116L11.9481 50.4114L11.9113 50.4111L11.875 50.2477Z" fill="#1B2F5C"/>
<path d="M51.863 6.34504C52.9609 6.28736 54.0623 6.71342 54.8812 7.43246C56.791 9.10944 57.9195 12.7532 58.0734 15.2405C58.1753 16.8861 58.1938 18.7002 57.777 20.3075C57.5779 21.0748 57.2715 21.8171 57.025 22.5705C56.7127 23.5254 56.2905 24.7272 55.6192 25.4868C55.7322 24.7945 56.104 24.1574 56.2946 23.4828C56.6403 22.2584 56.75 21.0221 56.8607 19.7596C56.9265 19.0101 57.0111 18.261 56.9472 17.5085C56.808 15.3835 56.4509 13.1581 55.3419 11.304C55.2959 11.2258 55.248 11.1489 55.1981 11.0731C55.1483 10.9973 55.0965 10.9228 55.0429 10.8496C54.9894 10.7764 54.9341 10.7046 54.8768 10.6342C54.8197 10.5637 54.7608 10.4948 54.7002 10.4273C54.6395 10.3598 54.5773 10.2939 54.5135 10.2295C54.4495 10.1651 54.384 10.1024 54.3169 10.0413C54.2499 9.98023 54.1813 9.92085 54.1113 9.86318C54.0414 9.80551 53.97 9.74963 53.8972 9.69553C53.8244 9.64143 53.7502 9.58918 53.6747 9.53878C53.5993 9.4884 53.5227 9.43992 53.4449 9.39336C53.3671 9.3468 53.2881 9.30221 53.208 9.2596C53.1279 9.21699 53.0468 9.1764 52.9647 9.13785C52.8826 9.09929 52.7996 9.06281 52.7157 9.0284C52.6317 8.994 52.5469 8.96171 52.4614 8.93154C52.3758 8.90136 52.2896 8.87335 52.2027 8.8475C52.1157 8.82164 52.0281 8.79797 51.9401 8.77649C50.6178 8.45182 48.9743 8.96283 47.7875 9.55405C47.0902 9.90138 46.4443 10.3277 45.7773 10.727C45.5793 10.8455 45.2779 11.0321 45.0396 10.9599C44.8027 10.8883 44.6786 10.683 44.5703 10.4773C44.7406 9.60155 45.2008 8.53488 45.8189 7.87881C46.0847 7.59651 46.4212 7.34884 46.8247 7.34572C47.4381 7.34098 47.9004 7.75741 48.3052 8.16362C49.4517 7.34775 50.3785 6.45273 51.863 6.34504ZM57.1187 17.1712C57.029 17.4204 57.0556 18.7604 57.1198 19.0508C57.1456 18.4326 57.1773 17.787 57.1187 17.1712ZM56.5249 23.1609C56.4578 23.3617 56.2382 23.8377 56.2771 24.0281L56.3118 24.048C56.4246 23.8058 56.6129 23.4168 56.5249 23.1609Z" fill="#1B2F5C"/>
<path d="M56.5258 23.1621C56.6139 23.418 56.4255 23.8071 56.3128 24.0492L56.278 24.0294C56.2391 23.8389 56.4587 23.3629 56.5258 23.1621Z" fill="#1B2F5C"/>
<path d="M57.1201 17.1719C57.1787 17.7877 57.147 18.4333 57.1212 19.0515C57.057 18.7611 57.0304 17.4211 57.1201 17.1719Z" fill="#1B2F5C"/>
<path d="M35.1658 29.9023C35.1746 29.9055 35.185 29.9062 35.1922 29.9121C35.2938 29.9956 35.2036 30.1863 35.1727 30.2997C34.8296 31.5608 34.7265 32.7217 34.7113 34.0268C35.1288 33.7144 35.5229 33.3773 35.9238 33.0441C36.3612 32.6809 36.8135 32.3322 37.3045 32.044C37.7723 31.7693 40.0751 30.7366 40.5297 30.7786L40.5528 30.8276C40.3741 31.0162 39.4372 31.4991 39.1338 31.7052C38.4857 32.146 37.9211 32.686 37.3655 33.235C36.4683 34.1215 35.5579 35.0362 34.7515 36.0069C33.9416 36.9821 33.2186 38.1039 32.2814 38.9608C32.6002 37.3946 32.4337 35.5006 32.9302 33.9915C31.568 35.4279 30.0739 36.7173 28.6971 38.1413C27.4238 39.4582 26.2805 40.9142 25.1557 42.3563C24.6173 43.0116 24.1848 43.7326 23.7351 44.449C22.762 45.9992 21.8115 47.6127 21.0515 49.2796C20.7658 49.9063 20.5583 50.562 20.2828 51.1914C20.2101 51.3578 20.102 51.6508 19.9303 51.7188C19.7922 51.4307 20.8568 48.6309 21.0109 48.1885C21.3334 47.263 21.6643 46.3198 22.0546 45.421C23.1978 42.7876 24.9842 39.895 26.8586 37.7353C27.1812 37.3637 27.542 37.024 27.88 36.6664C28.2637 36.2599 28.621 35.828 29.0134 35.4298C29.8763 34.5547 30.7974 33.7171 31.6896 32.8708C32.4021 32.1951 33.1425 31.5891 33.8869 30.953C34.3037 30.5968 34.6671 30.1435 35.1658 29.9023Z" fill="#1B2F5C"/>
<path d="M15.2572 60.1611C15.2092 59.1386 15.2838 58.149 15.3722 57.132C15.4674 56.0382 15.5519 54.9477 15.7444 53.865C15.8931 53.0295 16.1147 52.2114 16.3116 51.3866C16.5156 50.5314 16.6774 49.6574 16.9221 48.8132C17.126 48.1103 17.3985 47.4341 17.6367 46.7432C17.8622 46.0888 18.0528 45.4209 18.3037 44.7757C19.8393 40.8275 22.0829 37.042 24.93 33.8974C25.5667 33.1944 26.2813 32.5077 26.9802 31.8674C27.5017 31.39 30.5429 28.8191 31.1287 28.7825C31.187 28.7788 31.1733 28.7813 31.2141 28.8211C30.9521 29.0893 30.6475 29.3103 30.3712 29.5632C29.8291 30.0594 29.2996 30.6049 28.8178 31.1595C28.1248 31.9576 27.4187 32.8 26.7875 33.6467C26.5188 34.0072 26.2872 34.3934 26.0241 34.7577C25.6319 35.3005 25.1985 35.8162 24.8255 36.3723C23.3407 38.5861 21.882 41.3512 20.7939 43.7893C20.5073 44.4312 20.2605 45.092 19.9891 45.7406C19.6484 46.5547 19.2523 47.3382 18.9348 48.1635C17.8494 50.983 17.0427 53.9063 16.337 56.8404C16.0447 58.0557 15.7115 59.265 15.4871 60.4955C15.407 60.38 15.4196 60.1992 15.4393 60.0661C15.4651 59.8899 15.49 59.7061 15.4504 59.5304L15.4091 59.5214C15.3915 59.8119 15.391 60.1182 15.3354 60.4036L15.2973 60.3831L15.2572 60.1611Z" fill="#1B2F5C"/>
<path d="M19.9776 19.5586C20.0366 19.585 20.0311 19.597 20.0611 19.6512C20.0268 20.0871 19.275 22.8296 19.0849 23.2737C18.8953 23.7167 18.6251 24.1557 18.3484 24.5492C17.9002 25.186 17.3104 25.7334 16.9502 26.4296C15.8289 28.5967 18.4339 29.1284 19.6451 30.1665C20.0491 30.5126 20.3615 30.9547 20.5215 31.4641C20.944 32.8096 20.5306 35.0399 20.1527 36.4048C19.8655 37.4421 19.4712 38.4485 19.0872 39.453C18.1848 41.8139 17.1654 44.1171 16.1475 46.4293C15.6734 47.506 15.1608 48.5707 14.7367 49.6683C14.257 50.91 13.7817 52.1787 13.3891 53.4505C13.2137 54.0186 13.0597 55.1019 12.8267 55.5529L12.7796 55.5667C12.5927 54.66 13.2483 52.537 13.4996 51.589C14.0115 49.666 14.5144 47.7479 15.1146 45.8497C15.5849 44.36 16.066 42.8739 16.5581 41.3913C17.2788 39.2415 18.9113 35.093 18.5737 32.8913C18.504 32.4379 18.387 31.919 17.9901 31.6401C17.2228 31.1012 15.2756 30.89 14.3472 30.9017C13.8111 30.9084 13.2913 30.9739 12.7627 31.0543C12.9273 30.806 13.1407 30.5892 13.3367 30.3658C13.9088 29.7136 14.5046 29.0147 14.7394 28.1636C14.3436 27.9961 13.9176 27.9111 13.4923 27.8622C13.1305 27.8206 11.9504 27.8984 11.7232 27.7426C11.7103 27.6132 11.9287 27.5757 12.0295 27.5395C13.0134 27.1864 13.9346 26.4275 14.741 25.7739C15.1133 25.4725 15.4747 25.1586 15.8251 24.8322C16.1755 24.5057 16.5142 24.1674 16.8411 23.8173C17.1679 23.4672 17.4823 23.1062 17.7841 22.7343C18.0859 22.3623 18.3744 21.9804 18.6496 21.5884C19.1128 20.9218 19.4797 20.2034 19.9776 19.5586Z" fill="#1B2F5C"/>
<path d="M48.4683 17.839C49.7783 17.8169 51.1122 17.9005 52.3075 18.488C53.4266 19.038 54.0681 19.9009 54.4641 21.0713C55.0812 22.8958 55.052 25.2548 54.8328 27.1605C54.8054 27.3989 54.8328 27.7644 54.73 27.9707L54.6712 27.9774C54.417 27.852 53.8152 27.118 53.5288 26.8775C52.9117 26.3589 52.1817 25.8677 51.4477 25.5386C47.4046 23.7254 41.568 24.5208 37.4083 25.5341L33.2538 26.5613C32.6044 26.716 31.9642 26.9186 31.2969 26.979C32.1278 26.2098 33.9207 25.4378 34.9563 24.9263C36.3461 24.2868 37.7614 23.6729 39.2017 23.1551C39.8499 22.9222 40.5193 22.7363 41.1784 22.5369C41.9383 22.3069 42.6973 22.0625 43.4673 21.8679C46.0506 21.2155 48.7012 20.8304 51.3446 20.5364C48.7111 19.3633 42.019 20.0349 39.0098 20.292C38.3782 20.346 36.8186 20.6064 36.2491 20.3947C36.1794 20.3687 36.2044 20.3881 36.1703 20.3176C36.4454 20.1845 37.6264 20.0058 38.0431 19.9047C39.17 19.632 40.2828 19.3059 41.4122 19.0396C42.4165 18.8025 43.435 18.6219 44.4467 18.419C45.7712 18.1534 47.116 17.8932 48.4683 17.839Z" fill="#1B2F5C"/>
<path d="M28.3076 4.78476C30.113 4.64911 33.0292 6.40785 34.5932 7.29342C35.3939 7.74672 36.2193 8.32136 37.1589 8.39532C38.8641 8.52952 40.4848 7.60111 41.9912 6.93068C42.3187 6.78489 42.7739 6.54155 43.1344 6.52713C43.2194 6.52372 43.2274 6.53761 43.2825 6.59403C43.2455 6.8814 42.6888 7.36547 42.5038 7.61889C42.3445 7.83737 42.1995 8.07048 42.0642 8.30444C41.7533 8.8413 41.4961 9.4147 41.2191 9.96985C40.8851 10.6388 40.5365 11.3001 40.2074 11.9715C39.7098 12.987 39.2298 14.0577 38.4541 14.901C38.3739 14.9882 38.2996 15.0797 38.1771 15.0861C38.0614 14.7639 38.4597 12.7649 38.575 12.3398C38.5624 12.3445 38.5497 12.3492 38.5373 12.3541L38.4746 12.3791C37.8164 12.6372 37.2289 13.0459 36.567 13.3024C35.9342 13.5476 34.6485 13.6517 34.1802 14.0332C33.8434 14.3079 33.5753 14.6758 33.3051 15.0131C32.7047 15.7634 32.1643 16.4748 31.3972 17.0691C31.3068 17.1466 31.214 17.2209 31.1187 17.2921C31.0232 17.3633 30.9255 17.4312 30.8256 17.4956C30.7256 17.5602 30.6236 17.6214 30.5195 17.679C30.4154 17.7367 30.3095 17.7908 30.2018 17.8413C30.094 17.8918 29.9847 17.9386 29.8738 17.9817C29.7629 18.0249 29.6507 18.0642 29.5371 18.0998C29.4235 18.1352 29.3089 18.1669 29.1933 18.1947C29.0775 18.2225 28.961 18.2463 28.8436 18.2662C26.46 18.667 24.1693 17.0961 22.3203 15.7874C23.4275 15.9042 24.3251 16.3755 25.514 16.3819C26.843 16.389 27.5797 16.0928 28.5216 15.1657C28.0033 15.0204 27.4791 14.8833 26.9688 14.7124C26.0302 14.3979 25.243 13.8271 24.7992 12.9212C24.349 12.0022 24.3591 10.7669 24.6884 9.81223C25.0934 8.63774 26.1551 7.60724 27.257 7.07277C26.3811 7.21769 25.4528 7.41449 24.6411 7.77693C24.2624 7.9461 23.9127 8.19615 23.5327 8.35287C23.4036 8.40609 23.2926 8.42177 23.1626 8.36959C23.1557 8.2897 23.1828 8.26115 23.2342 8.20341C23.4337 7.97945 23.6789 7.79158 23.8849 7.57146C24.182 7.25389 24.4576 6.91436 24.7694 6.61083C25.7348 5.67102 26.9429 4.90145 28.3076 4.78476Z" fill="#1B2F5C"/>
<path d="M30.0422 9.33371C30.2291 9.3122 30.4283 9.30875 30.6047 9.38382C30.7118 9.42945 30.8154 9.5113 30.8419 9.63075C30.8845 9.82366 30.7426 10.002 30.642 10.1515C30.6112 10.1561 30.5804 10.1603 30.5494 10.1639C30.3393 10.1876 30.1346 10.1603 29.9689 10.0177C29.8812 9.9424 29.839 9.85337 29.8326 9.7377C29.8233 9.57322 29.9375 9.44447 30.0422 9.33371Z" fill="white"/>
<path d="M29.2564 7.45048C29.2695 7.44827 29.2825 7.44488 29.2956 7.44387C29.5658 7.42321 30.1105 8.03549 30.3358 8.20684L30.3695 8.23203C29.9507 8.50817 29.5709 8.83108 29.3323 9.28088C29.125 9.67105 29.0533 10.1013 29.1942 10.5264C29.3611 11.0299 29.7865 11.487 30.2641 11.7133C31.1975 12.1557 31.8828 11.5535 32.7292 11.2734L32.792 11.2529C32.6301 11.4478 32.4569 11.6334 32.2869 11.8211C32.1052 12.0026 31.9001 12.1629 31.6693 12.2769C31.0264 12.5945 30.1433 12.6114 29.4673 12.3883C28.8371 12.1803 28.3435 11.7465 28.052 11.1495C27.7038 10.4363 27.6394 9.7248 27.9082 8.97203C28.1487 8.29854 28.6121 7.76136 29.2564 7.45048Z" fill="white"/>
<path d="M47.8177 41.9414C47.9117 41.9875 47.9173 42.0088 47.962 42.1052C48.2552 42.7382 48.4498 43.4458 48.6875 44.103C48.8661 44.5963 49.0929 45.0864 49.2871 45.5758C50.9829 49.8491 53.094 52.775 57.6329 54.2086C58.7067 54.5478 59.89 54.5638 60.918 55.0073C59.417 55.0925 56.8502 54.6951 55.4275 54.1568C54.4306 53.7797 53.3245 53.235 52.4545 52.6176C52.0186 52.3083 51.6477 51.9312 51.2598 51.5665C50.8365 51.1686 50.3863 50.7875 49.999 50.3538C49.6207 49.9302 49.3115 49.439 48.987 48.9735C48.0523 47.633 47.3403 46.4708 46.6639 44.9764C45.8707 45.3804 45.071 45.7442 44.3277 46.24C40.6363 48.7029 38.0837 52.3152 35.9865 56.154C35.6931 56.6913 35.3524 57.2117 35.0878 57.7634C34.7091 58.553 34.4547 59.4058 34.0939 60.2072C33.2041 59.6038 32.6149 58.6678 31.9608 57.8377C31.586 57.3619 31.1645 56.9341 30.7678 56.4781C30.1224 55.7366 29.7205 55.1681 28.9241 54.5479C28.4868 55.1271 28.2195 55.8814 27.9066 56.5364C27.0845 58.1801 26.6548 59.6576 26.1956 61.418C26.0398 62.0152 25.863 62.6097 25.7301 63.2126C25.4584 64.4451 25.2719 65.7429 25.1373 66.9974C24.9158 69.0624 24.9344 71.1097 24.9346 73.1824C24.9346 73.7968 24.9684 74.4238 24.9469 75.0366C24.9431 75.1485 24.9317 75.2033 24.8628 75.2909L24.7795 75.2922L24.7169 75.2294C24.658 74.7827 24.5081 74.3533 24.4306 73.9097C24.1615 72.3738 23.9334 70.8319 23.7462 69.2839C23.6181 68.1329 23.6242 66.9596 23.6179 65.8024C23.6134 64.9591 23.5881 64.1056 23.6535 63.2641C23.7158 62.4627 23.8602 61.6719 23.9788 60.8775C24.2834 58.834 24.6175 56.9533 25.3329 55.0045C25.7674 53.821 26.2344 52.6033 26.7664 51.4609C27.1465 50.6446 27.6007 49.8666 27.961 49.0403C28.3107 49.5184 28.7801 49.9426 29.1813 50.38C29.6515 50.8927 30.0874 51.4395 30.5687 51.9411C30.9673 52.3565 31.4075 52.7313 31.8051 53.1477C32.2608 53.6246 32.6589 54.1514 33.0628 54.6717C33.6697 53.8122 34.1999 52.9075 34.7803 52.0311C35.3574 51.1602 36.0049 50.2993 36.666 49.49C37.6367 48.3019 38.6795 47.2677 39.8648 46.2941C40.8714 45.4671 41.9521 44.7979 43.0644 44.1272C44.3526 43.3503 46.318 42.0947 47.8177 41.9414Z" fill="#1B2F5C"/>
<path d="M30.4705 0.86138C31.5712 0.846325 32.6505 0.919805 33.7482 0.956721C34.3626 0.977381 34.9787 0.944853 35.5926 0.975171C36.6625 1.02801 37.7441 1.14795 38.8106 1.25144C40.5889 1.41325 42.3628 1.61348 44.1325 1.85212C44.7162 1.93071 45.3058 2.02133 45.8846 2.13014C46.2227 2.19372 46.5588 2.28983 46.9001 2.33389C47.5688 2.42021 48.1421 2.0872 48.8218 2.2848C49.7278 2.54821 50.4035 3.16294 50.8412 3.98899C50.9461 4.18685 51.1031 4.51765 51.0346 4.74209L50.9711 4.76773C50.7961 4.65596 50.6726 4.4011 50.5437 4.23688C50.1281 3.70753 49.5089 3.19647 48.8159 3.13795C48.7086 3.1289 48.596 3.11412 48.5108 3.18188C48.6128 3.37377 49.0537 3.55527 49.2241 3.72603L49.2203 3.78353C48.7936 3.84903 47.9134 3.43639 47.4603 3.33448C46.1791 3.04623 44.8572 2.81681 43.5532 2.66724C41.2742 2.40585 39.0067 2.23917 36.7177 2.11178C36.0332 2.07368 35.3517 2.00329 34.6658 1.985C33.6815 1.95875 32.6895 1.93081 31.7051 1.9396C30.6915 1.94865 29.6782 1.99857 28.6646 1.99431C29.028 2.22207 31.4832 4.17642 31.6231 4.42944C31.5261 4.52481 30.8971 4.26657 30.7596 4.21185C28.7682 3.42007 26.3916 2.86871 24.3231 3.72361C22.8037 4.35154 21.4225 6.0063 20.6628 7.42224C20.4803 7.7627 20.3629 8.11817 20.2045 8.46731C20.1473 8.59335 20.1305 8.64673 20.0036 8.6976C19.9404 8.68749 19.9043 8.69688 19.8597 8.64488C19.7296 8.49335 19.7639 8.21 19.7642 8.02096C19.7387 8.03279 19.7134 8.04524 19.6885 8.0583C19.0325 8.40335 18.5573 9.07762 18.101 9.64055C17.71 10.1228 17.2965 10.5838 16.9405 11.0937C15.8244 12.6921 14.8719 14.7109 14.452 16.6154C14.1493 17.9878 14.2348 19.4877 13.7931 20.8178C13.2894 22.3349 12.148 23.5861 10.7438 24.3297C10.2995 24.5649 9.82318 24.7264 9.375 24.9519L9.33413 24.9727C10.3654 25.006 11.4307 24.9272 12.4298 24.6585C12.9721 24.5126 13.4954 24.3148 14.0431 24.1852C12.9093 25.6555 10.9655 26.7378 9.49436 27.8283C8.62201 28.4748 7.82454 29.2032 6.93394 29.8335C7.66104 29.7257 8.37794 29.5581 9.10776 29.4569C10.1899 29.3067 11.282 29.2317 12.3667 29.1006C12.0908 29.4292 11.7563 29.721 11.4656 30.0389C11.0794 30.4611 10.7266 30.9209 10.3654 31.3647C9.96314 31.812 9.55939 32.2611 9.20616 32.7489C8.74523 33.3854 8.34298 34.0669 7.8932 34.7125C8.25033 34.5249 8.58259 34.286 8.92975 34.0802C9.66914 33.6416 10.567 33.1597 11.3919 32.9278C11.8596 37.7484 12.2536 43.1436 10.7902 47.8377C10.6517 48.2818 10.5473 48.8017 10.3458 49.2157C10.3047 49.3003 10.2728 49.3682 10.1815 49.4001L10.2221 49.2136L10.2113 49.2364C10.3566 48.4566 10.6279 47.7106 10.723 46.9194C10.823 46.0877 10.7568 45.2245 10.7511 44.3876C10.7445 43.4149 10.782 42.4299 10.7221 41.46C10.6052 39.5669 10.228 37.6763 9.87328 35.8162C7.94037 36.1465 6.53219 37.5109 4.71975 38.0552C4.89115 37.6102 5.12306 37.1885 5.32714 36.7578C5.94696 35.4498 6.59291 34.1349 7.39785 32.928C7.81857 32.2973 8.34976 31.7345 8.74051 31.086L8.77308 31.0314C7.73532 31.2463 6.69012 31.4365 5.67119 31.7345C5.09695 31.9023 4.56091 32.1893 3.97656 32.3231C4.75228 30.5442 5.81895 29.0247 7.33584 27.8006C7.91308 27.3347 8.52628 26.9231 9.09453 26.4437C7.99833 26.4031 6.99184 26.0397 5.98286 25.6444C7.67708 24.5241 9.69134 23.4688 10.8262 21.7223C11.7763 20.2601 11.787 18.8629 12.0624 17.2162C12.1534 16.6718 12.2972 16.1406 12.4659 15.6157C13.5434 12.2624 15.5548 9.37016 17.8905 6.76722C18.1954 6.42204 18.5148 6.09101 18.8489 5.77414C19.1777 5.46238 19.5411 5.16354 19.8209 4.80579C20.4473 4.00507 20.478 3.09769 21.2931 2.21335C22.91 0.458875 24.9214 0.927989 27.0347 0.953245C28.1847 0.966987 29.322 0.902364 30.4705 0.86138Z" fill="#1B2F5C"/>
<path d="M45.5831 26.1246C46.4499 26.0081 48.2448 26.0786 49.1131 26.2291C50.9994 26.556 52.9029 27.3377 53.988 28.9874C54.6981 30.0671 54.828 31.533 55.0903 32.7744C55.307 33.8005 55.5259 34.8321 55.7599 35.8542C55.9496 36.6821 56.1896 37.4827 56.4137 38.2992C56.9899 40.3988 57.6634 42.4373 58.4707 44.4605C59.1485 46.1587 59.8341 47.7425 60.8937 49.2434C61.5254 50.1381 62.1338 50.791 63.1833 51.1748C63.4064 51.2563 63.7104 51.361 63.9476 51.3344C64.3073 51.2939 64.7652 51.0652 65.1201 51.1259L65.1417 51.2169C65.105 51.3034 65.0684 51.3641 65.0008 51.4304C64.044 52.3682 62.601 52.7765 61.2961 52.7763C58.8394 52.776 56.41 51.411 54.7151 49.7066C52.3657 47.3441 50.6881 44.3145 49.6162 41.1789C49.4879 40.8038 49.1677 40.0884 49.169 39.7063L49.2174 39.6701C49.3164 39.6996 49.3849 39.7758 49.4531 39.85C49.794 40.2206 50.0941 40.6498 50.4134 41.0412C51.1665 41.9639 51.9521 42.923 52.7765 43.7834C53.4111 44.4456 55.2343 45.8715 56.0591 46.2825L56.1193 46.2514C56.1015 46.0647 55.7103 45.6692 55.5879 45.503C55.036 44.7531 54.554 43.9544 54.0873 43.1497C52.8395 40.9986 51.8219 38.6219 51.0132 36.2725C50.3966 36.3973 49.7933 36.5387 49.1919 36.725C47.0047 37.4024 45.0524 38.4103 43.134 39.6483C39.8944 41.7387 37.0934 44.3199 34.9106 47.5154C34.1347 48.6515 33.5288 49.8565 32.8888 51.0686C32.1745 50.7606 31.6026 50.0485 31.1124 49.4701C29.917 48.0591 29.175 47.0187 28.3719 45.3475C28.0364 45.8063 27.6075 46.2288 27.235 46.6595C26.7154 47.264 26.2259 47.8919 25.7664 48.5432C23.609 51.567 22.0254 55.9553 21.1239 59.5437C20.8568 60.5184 20.6787 61.5234 20.4937 62.5162C20.1851 64.1719 19.9524 65.4708 19.9231 67.16C19.8731 67.2357 19.8404 67.2557 19.7573 67.2911C19.687 67.278 19.6697 67.2629 19.6247 67.2035C19.4017 66.9093 19.4964 66.1447 19.4972 65.7696C19.4994 64.9193 19.5292 64.0699 19.5864 63.2214C19.6437 62.373 19.7285 61.5273 19.8406 60.6844C19.9527 59.8414 20.092 59.0029 20.2584 58.1689C20.4249 57.3351 20.6182 56.5074 20.8383 55.686C20.9983 55.0643 21.2251 54.4608 21.436 53.8551C22.3682 51.1773 23.7188 48.073 25.2393 45.6838C26.1044 44.3244 27.0945 43.0681 28.0877 41.8035C28.9067 40.7606 29.9357 39.3917 31.0752 38.7194C30.8997 40.3551 31.0694 42.1642 31.6004 43.7172C32.0006 43.1373 32.3557 42.5239 32.7735 41.9563C33.2213 41.3482 33.7378 40.7814 34.2154 40.1957C34.8765 39.3853 35.5638 38.6294 36.2494 37.8421C36.6478 37.3847 37.0223 36.9029 37.4475 36.4694C37.8359 36.0733 38.2821 35.7405 38.6889 35.3638C39.0867 34.9955 39.4639 34.6055 39.8744 34.2507C40.3324 33.855 40.8238 33.4961 41.3068 33.1316C42.9896 31.8614 44.6015 30.8367 46.5961 30.1203C46.8969 30.0122 47.9739 29.6584 48.2582 29.7917C48.2265 29.9952 47.5293 30.3005 47.3349 30.4126C46.4247 30.9374 45.4761 31.5367 44.6502 32.1852C44.2367 32.5098 43.8525 32.8719 43.451 33.211C42.6201 33.9126 41.7804 34.6136 41.0076 35.3798C39.7301 36.646 38.5792 38.0689 37.4557 39.4717C36.9749 40.0721 36.3207 40.7037 35.9894 41.3971L35.9633 41.4525C36.288 41.1703 36.5851 40.8524 36.8995 40.5583C37.4088 40.0822 37.9397 39.6219 38.4655 39.1635C41.3294 36.667 43.9912 34.9818 47.5702 33.6977C48.5204 33.3567 49.5178 32.9435 50.534 32.8973C50.4954 32.145 50.4049 31.3974 50.1447 30.6865C49.6892 29.4424 48.6958 28.5111 47.5008 27.9697C44.6494 26.6781 40.7842 28.0327 38.2238 29.4851C37.5353 29.8756 36.9009 30.5002 36.1647 30.7691C36.1466 30.7758 36.1283 30.7819 36.1102 30.7883C36.1245 30.7715 36.1384 30.7542 36.1531 30.7377C36.9553 29.8416 37.7947 29.0122 38.7903 28.3323C40.6846 27.0389 43.3027 26.2932 45.5831 26.1246Z" fill="#1B2F5C"/>
</svg>
