<svg width="245" height="71" viewBox="0 0 245 71" fill="none" xmlns="http://www.w3.org/2000/svg">
<path d="M18.9531 21.1143C19.3734 20.4472 19.801 19.8375 20.3194 19.2402C20.141 19.9721 19.9524 20.6688 19.6711 21.3702L18.9531 21.1143Z" fill="#1B2F5C"/>
<path d="M132.432 45.5059L132.78 45.627C133.035 46.1851 133.192 47.1362 132.952 47.7196C132.922 47.791 132.875 47.8527 132.824 47.9102C132.637 47.9428 132.476 47.9601 132.285 47.9483L132.462 47.7046C132.576 47.0221 132.589 46.1809 132.432 45.5059Z" fill="white"/>
<path d="M48.7031 14.0645C49.4031 14.2547 50.0832 14.4658 50.7661 14.7101C50.7315 15.1153 50.9154 15.4058 50.9171 15.7729C50.1461 15.3331 49.3619 14.6584 48.7031 14.0645Z" fill="#1B2F5C"/>
<path d="M20.0675 58.498C20.1635 58.5282 20.4537 58.5852 20.4928 58.6651C20.6019 58.8874 20.6063 59.1162 20.6216 59.3588C20.4365 60.2142 20.3249 61.0711 20.2162 61.9385C20.0267 60.7602 19.9413 59.6893 20.0675 58.498Z" fill="#1B2F5C"/>
<path d="M11.9588 41.2303C12.1395 40.9775 12.333 41.0439 12.5933 40.873C12.4968 42.1387 12.234 43.3702 11.9804 44.6121C11.9606 43.485 11.9534 42.3577 11.9588 41.2303Z" fill="#1B2F5C"/>
<path d="M22.3304 42.8516C22.5681 43.0194 22.6226 43.1745 22.7021 43.4475C22.41 43.9938 21.5234 46.05 21.1094 46.3522C21.424 45.1444 21.8057 43.9862 22.3304 42.8516Z" fill="#1B2F5C"/>
<path d="M17.0068 17.9746C17.1977 18.2051 17.4025 18.4325 17.5643 18.6844C17.0757 19.6371 16.4316 20.3981 15.7031 21.1721C16.0776 20.0933 16.5743 19.033 17.0068 17.9746Z" fill="#1B2F5C"/>
<path d="M175.927 10.9503C176.376 10.9388 176.616 10.8577 176.988 11.1222C177.313 11.7317 177.452 12.7316 177.234 13.4112C177.214 13.4762 177.184 13.5387 177.153 13.5991L175.555 13.3911C175.798 13.3692 176.186 13.3772 176.386 13.2323C176.546 13.1158 176.747 12.6084 176.776 12.4077C176.817 12.1236 176.679 11.3508 176.503 11.1303C176.365 10.9577 176.136 10.9804 175.927 10.9503Z" fill="white"/>
<path d="M49.7734 13.0137C50.7611 13.4866 51.4559 14.0005 51.8247 15.0638C52.0029 15.5776 52.0873 16.1374 52.1421 16.6767C51.7953 16.4343 51.1594 16.1037 50.9217 15.7737C50.92 15.4066 50.736 15.1161 50.7707 14.7109C50.7747 14.0623 50.175 13.4961 49.7734 13.0137Z" fill="#1B2F5C"/>
<path d="M193.482 60.3729C194.137 60.2824 194.837 60.3111 195.498 60.2949C195.538 60.3524 195.565 60.4092 195.588 60.4751C195.745 60.9176 195.697 61.6168 195.498 62.0354C195.151 62.2594 193.838 62.128 193.375 62.1305C193.664 61.6132 193.601 60.9322 193.482 60.3729Z" fill="#A3A8C2"/>
<path d="M38.5977 2.11719C40.6352 2.35008 42.6685 2.69929 44.7094 2.88391C45.571 2.96184 46.6719 2.78434 47.4781 2.99072C47.9065 3.10039 48.3666 3.49324 48.6394 3.83134C48.7198 3.93086 48.7719 4.03675 48.8098 4.1581L48.6962 4.28945C48.279 4.23329 48.0409 3.92621 47.6764 3.81329C47.1843 3.66085 46.2715 3.81238 45.7011 3.75116C43.8617 3.55374 42.0152 3.23546 40.1791 2.99199C40.7025 2.8816 41.2276 2.87877 41.7601 2.83664C40.8628 2.72384 39.2126 2.82377 38.5977 2.11719Z" fill="#1B2F5C"/>
<path d="M220.254 10.8349C223.701 10.5124 228.169 10.7857 231.729 10.7888C233.643 10.7905 237.138 10.5855 238.838 10.7986C239.195 11.3485 239.14 12.5689 239.067 13.202C238.895 13.3465 238.838 13.3549 238.623 13.3864C238.654 12.703 238.807 11.6421 238.443 11.0369C232.548 11.1449 226.637 11.0619 220.738 11.0504C221.115 11.5894 220.943 12.7537 220.922 13.3951L220.595 13.418C220.045 12.8179 220.612 11.633 220.277 10.887L220.254 10.8349Z" fill="white"/>
<path d="M17.0078 17.9735C17.4076 16.3236 17.5348 14.6956 18.8244 13.4353C19.3321 12.9391 19.908 12.5473 20.353 11.9859C20.8557 11.3518 21.3673 10.369 22.0378 9.93316L22.3008 9.90039C22.3077 10.3824 22.1817 10.8466 22.1687 11.326C22.1425 12.2876 22.6926 13.3752 23.0507 14.2542C22.4154 14.071 21.8066 13.8613 21.1914 13.6204C19.8022 14.2066 19.0241 14.9624 18.4545 16.3562C18.1454 17.1123 17.9402 17.9631 17.5653 18.6832C17.4035 18.4314 17.1988 18.204 17.0078 17.9735Z" fill="#1B2F5C"/>
<path d="M45.7072 5.125C46.6304 5.16716 47.3541 5.32737 48.2102 5.6802C47.4984 5.66967 46.7393 5.62361 46.047 5.81106C42.1693 6.86085 41.351 12.4367 38.9542 15.2124C38.2475 16.0309 37.4616 16.5909 36.5406 17.1363C36.0804 17.3548 35.5154 17.5803 35.0028 17.6023C34.9104 17.6062 34.9136 17.5928 34.8438 17.5303C34.8608 17.475 37.2141 15.7286 37.542 15.3822C39.3583 13.463 40.1291 10.9119 41.5278 8.72009C42.5467 7.12378 43.7616 5.55622 45.7072 5.125Z" fill="#1B2F5C"/>
<path d="M32.9975 19.3642C33.1447 19.3578 33.3051 19.3862 33.4527 19.3997C32.7535 20.1845 27.1763 22.1663 25.5677 23.6377C25.3129 23.8706 25.1047 24.1007 25.0901 24.4603C25.2712 24.7927 25.7469 24.9385 26.0786 25.0917C28.7173 24.9343 30.7251 23.7672 33.1311 22.837C31.9681 24.234 30.3276 24.9895 28.6786 25.672C28.1297 25.8688 27.5722 26.0382 27.0063 26.1802C25.9898 26.4369 24.809 26.5702 23.8674 26.0035C23.4069 25.7263 23.0921 25.3043 22.9682 24.7828C22.8042 24.0927 23.0318 23.3788 23.3956 22.7906C24.4359 21.11 26.1739 20.0983 28.0598 19.6495C27.5824 20.0613 26.2185 21.0006 26.0196 21.535L26.1245 21.662C27.5298 21.8073 31.3798 19.843 32.9975 19.3642Z" fill="#1B2F5C"/>
<path d="M34.3491 28.6328C34.1401 29.7419 34.2128 30.8891 34.0061 31.9863C35.5349 31.084 37.0556 30.0465 38.6494 29.268C36.5755 31.6169 34.3303 33.88 32.056 36.0377C32.2574 34.7671 32.3204 33.476 32.4092 32.1938C28.5043 35.4365 25.3505 39.1374 22.7037 43.4483C22.6243 43.1753 22.5698 43.0202 22.332 42.8524C24.7604 37.2504 29.4657 32.2662 34.3491 28.6328Z" fill="#1B2F5C"/>
<path d="M15.2772 30.6465C15.7097 30.5855 16.1325 30.5574 16.5553 30.6914C16.9781 30.8255 17.3219 31.0753 17.5232 31.4762C17.8566 32.1407 17.7637 33.0172 17.637 33.7217C17.3642 35.2385 16.7382 36.75 16.2389 38.2087L13.7646 45.4105C13.5542 46.0743 13.236 46.6801 12.9204 47.2986C12.6447 45.2102 13.9677 39.1405 14.2122 36.5763C14.3438 35.1962 14.1379 33.7959 14.2794 32.419C14.3684 31.552 14.599 31.193 15.2772 30.6465Z" fill="#1B2F5C"/>
<path d="M49.8948 6.79075C50.9296 6.71749 51.9071 7.07213 52.7118 7.70599C54.6566 9.23799 55.3853 11.978 55.6462 14.3275C55.9854 17.3792 55.6441 21.473 53.6485 23.95C54.3381 21.615 54.841 19.3101 54.7386 16.8618C54.631 15.1803 54.2662 13.4659 53.5599 11.9275C52.987 10.6799 52.1004 9.54667 50.7659 9.06165C48.2635 8.15205 45.7314 9.98776 43.5532 10.9851C43.538 10.744 43.5282 10.5028 43.5237 10.2613C43.5128 9.52103 43.8544 8.71593 44.3873 8.19065C44.6631 7.91874 44.996 7.75111 45.3901 7.75899C45.9706 7.77059 46.2692 8.03788 46.6375 8.43421C47.6696 7.7275 48.6425 7.03899 49.8948 6.79075Z" fill="#1B2F5C"/>
<path d="M53.7266 26.5625C53.7738 26.6016 53.8196 26.6426 53.8617 26.687C54.1044 26.9429 55.7666 30.7781 56.4277 31.7637C57.8255 33.8478 59.4888 35.7456 61.0934 37.6729C62.2683 39.0841 63.396 40.541 64.5868 41.9368C65.2163 42.6748 67.8363 45.379 67.8083 46.2312L67.6307 46.3041C66.9426 46.0268 66.003 44.7286 65.4785 44.1741C64.291 42.9804 63.1457 41.7487 61.9145 40.5979C62.2177 42.0566 62.4865 43.534 62.8965 44.9673C61.4998 43.2906 60.465 41.2202 59.3445 39.3497C57.6992 36.6035 55.6988 33.7521 54.5594 30.7631C54.0319 29.3788 53.8148 28.0353 53.7266 26.5625Z" fill="#1B2F5C"/>
<path d="M29.4158 28.3945L29.4684 28.4344C29.1647 29.0861 27.6627 30.4738 27.1094 31.1696C26.0625 32.5095 25.0717 33.8891 24.1368 35.3083C20.0886 41.3832 17.9946 48.7668 16.1718 55.744C16.1631 55.7284 16.1541 55.7132 16.1458 55.6975C15.2174 53.9253 16.5126 48.8008 17.08 46.9912C18.9179 41.1292 23.78 31.3321 29.4158 28.3945Z" fill="#1B2F5C"/>
<path d="M103.954 51.7062C105.528 51.5604 107.477 51.5031 109.045 51.7043C109.342 51.7425 109.659 51.7778 109.854 52.0286L109.804 52.2742C109.538 52.4994 108.996 52.4157 108.659 52.4104C108.987 53.3493 109.116 54.4507 109.382 55.4222C109.912 57.3602 110.852 59.4739 111.043 61.4629C111.463 61.5293 112.009 61.3869 112.378 61.6292L112.42 61.913L112.267 62.0905C110.98 62.301 109.002 62.2592 107.682 62.1797C107.437 62.1649 107.442 62.1666 107.275 61.9821L107.326 61.624C107.639 61.3655 108.059 61.6348 108.403 61.4336C107.733 60.0728 107.6 57.593 106.899 56.5887C106.893 56.5802 106.887 56.5716 106.881 56.5629C106.9 56.5211 106.915 56.4796 106.925 56.4346C107.059 55.8692 106.527 54.4758 106.204 53.9978C106.254 54.6123 104.013 57.1486 104.021 58.6994C104.026 59.8796 104.79 60.8949 104.966 62.0096C104.975 62.0713 104.961 62.1129 104.944 62.1713C104.042 62.442 102.719 62.2786 101.766 62.2773C101.95 61.9621 102.049 59.8587 102.36 59.0663C103.048 57.3147 105.67 54.0608 105.753 52.4952C105.381 52.4758 105.012 52.5229 104.641 52.5216C104.325 52.5206 104.165 52.4637 103.946 52.2465L103.954 51.7062Z" fill="#A3A8C2"/>
<path d="M18.9533 21.1133L19.6712 21.3692C19.1726 22.9665 17.8335 24.2534 17.4095 25.617C16.9315 27.1542 19.4008 28.1734 20.2904 29.0114C20.6141 29.3161 20.8344 29.7088 21.0478 30.0933C21.3313 34.2344 15.793 46.1055 13.8943 50.5058C14.0973 48.9164 14.636 47.4355 15.1255 45.9166C16.2734 42.3552 19.1223 34.8617 19.1238 31.4335C19.1241 30.9149 19.071 30.4562 18.6798 30.0741C17.5982 29.0176 15.3922 29.1974 13.9892 29.198C14.3649 28.6903 14.8066 28.1635 15.0994 27.6056C15.2566 27.3062 15.2811 27.1202 15.1821 26.8066C14.5685 26.2923 13.5772 26.4383 12.8203 26.4463C15.2341 24.8882 17.1302 23.3382 18.9533 21.1133Z" fill="#1B2F5C"/>
<path d="M83.7713 51.4695C88.6859 51.2446 88.3477 54.6869 89.7193 55.1575L89.5989 55.3618L89.6626 55.4045L89.6896 55.4041C88.8476 55.6637 86.0073 55.4873 85.0679 55.3373L84.9663 55.1756L85.062 54.9039L85.1142 54.8849C85.5149 54.7374 85.6584 54.6681 85.8383 54.2826C85.8374 54.0176 85.7899 53.7964 85.6749 53.5576C85.4237 53.0361 84.8738 52.3916 84.3013 52.2105C83.9637 52.1036 83.556 52.1924 83.2467 52.3462C83.1784 52.3801 83.112 52.4174 83.0474 52.458C82.9829 52.4987 82.9206 52.5424 82.8606 52.5892C82.8005 52.6362 82.743 52.6859 82.688 52.7384C82.633 52.7911 82.5808 52.8464 82.5314 52.9043C82.482 52.9622 82.4357 53.0224 82.3924 53.0849C82.3492 53.1474 82.3092 53.2119 82.2726 53.2785C82.236 53.345 82.2028 53.4131 82.1731 53.483C82.1434 53.5528 82.1173 53.624 82.0948 53.6965C81.2593 56.3507 82.6776 57.2934 82.8939 59.5282C82.9577 60.1879 82.6122 61.476 82.8985 62.01C83.0304 62.0455 83.1862 62.1163 83.3198 62.0863C84.0604 61.9202 84.7167 61.2043 85.1104 60.5927C85.3152 60.2747 85.6157 59.7486 85.5114 59.3621C85.5064 59.3437 85.5005 59.3255 85.4949 59.3072C85.5652 59.2112 85.645 59.1053 85.6875 58.9936C86.0184 58.1238 85.2168 58.2614 84.9439 57.6807L85.0982 57.4692C85.8843 57.2851 88.8804 57.3025 89.6783 57.5009L89.8001 57.7952C89.5665 58.1234 89.2297 57.9873 88.9399 58.1657C88.9079 58.1853 88.7123 59.6455 87.5462 60.7328C85.9164 62.2524 83.7792 62.4977 81.6517 62.4229C82.0824 60.1636 78.9963 58.9249 78.7414 56.472C78.7341 56.4016 78.7285 56.3311 78.7247 56.2605C78.721 56.1899 78.719 56.1192 78.7188 56.0485C78.7185 55.9777 78.72 55.907 78.7232 55.8364C78.7265 55.7658 78.7315 55.6953 78.7383 55.6249C78.7451 55.5544 78.7536 55.4842 78.764 55.4142C78.7743 55.3442 78.7863 55.2745 78.8001 55.2052C78.8138 55.1358 78.8292 55.0669 78.8465 54.9983C78.8637 54.9295 78.8826 54.8613 78.9033 54.7936C78.9238 54.7259 78.9461 54.6588 78.9701 54.5922C78.9941 54.5256 79.0197 54.4597 79.0469 54.3944C79.0742 54.329 79.103 54.2643 79.1334 54.2004C79.1639 54.1365 79.196 54.0733 79.2296 54.0109C79.2632 53.9485 79.2984 53.887 79.3351 53.8264C79.3717 53.7658 79.4099 53.7061 79.4496 53.6474C79.4893 53.5886 79.5303 53.5309 79.5728 53.4742C79.6155 53.4174 79.6594 53.3617 79.7047 53.3072C80.7421 52.0677 82.2131 51.621 83.7713 51.4695Z" fill="#A3A8C2"/>
<path d="M148.731 51.4682C150.335 51.3399 152.512 51.6165 153.692 52.7939C154.004 53.1045 154.123 53.6187 154.48 53.8638C154.669 53.994 155.091 53.8568 155.376 54.028L155.379 54.3099C155.332 54.3606 155.287 54.3963 155.222 54.4225C154.685 54.6382 151.42 54.6239 150.936 54.4409L150.86 54.1433C151.044 53.8279 151.27 54.0235 151.486 53.718C151.386 53.2706 151.228 53.05 150.835 52.802C150.252 52.4341 149.366 52.0966 148.668 52.2642C146.357 52.8199 147.392 54.704 146.556 56.0622C147.96 55.5547 148.948 55.016 150.524 55.2821C151.341 55.4199 151.968 55.7937 152.445 56.4699C152.716 56.8525 153.136 57.0102 153.549 57.2113L153.521 57.3436C153.306 57.4462 153.081 57.5127 152.844 57.5431C152.043 57.653 149.631 57.8561 149.018 57.3937C149.175 57.017 149.55 57.1042 149.768 56.793C149.668 56.5286 149.286 56.2602 149.03 56.1445C148.412 55.8645 147.243 56.4473 146.634 56.6639C146.693 56.7348 146.751 56.8067 146.8 56.8855C146.978 57.1701 147.017 57.5598 146.939 57.8797C147.28 58.3137 147.44 58.9789 147.585 59.5068C147.765 60.1667 147.92 61.0682 147.561 61.692C147.781 61.6947 148.001 61.6931 148.221 61.6873C149.159 61.6598 150.017 61.4876 150.677 60.7816C150.927 60.5143 151.324 59.9833 151.31 59.6228C151.053 59.5224 150.785 59.4724 150.516 59.4166L150.445 59.2353C150.521 59.0853 150.551 58.9845 150.727 58.9285C151.242 58.7645 154.679 58.7907 155.118 59.0049C155.209 59.0491 155.216 59.1622 155.247 59.2547C154.987 59.649 154.762 59.4626 154.417 59.6625C154.239 59.7654 154.001 60.086 153.848 60.2379C152.911 61.1643 152.078 61.8456 150.758 62.1551C149.883 62.3605 147.721 62.6621 146.932 62.1209C146.493 61.82 146.447 60.9716 146.148 60.4921C145.291 59.1172 143.914 58.4131 143.635 56.6886C143.624 56.6218 143.615 56.5548 143.607 56.4876C143.6 56.4204 143.594 56.353 143.59 56.2854C143.585 56.2179 143.583 56.1504 143.582 56.0827C143.582 56.0151 143.582 55.9475 143.585 55.8799C143.588 55.8123 143.592 55.7448 143.598 55.6773C143.604 55.61 143.612 55.5429 143.622 55.4759C143.631 55.4089 143.642 55.3421 143.655 55.2756C143.668 55.2092 143.682 55.1431 143.698 55.0775C143.714 55.0116 143.732 54.9463 143.751 54.8815C143.771 54.8167 143.792 54.7524 143.814 54.6885C143.837 54.6247 143.861 54.5615 143.887 54.499C143.913 54.4364 143.94 54.3744 143.969 54.3132C143.998 54.2519 144.029 54.1914 144.061 54.1317C144.093 54.0719 144.126 54.013 144.161 53.9549C144.196 53.8968 144.232 53.8396 144.27 53.7833C144.308 53.727 144.347 53.6717 144.388 53.6174C145.453 52.1746 147.038 51.727 148.731 51.4682Z" fill="#A3A8C2"/>
<path d="M177.734 51.5882C178.172 51.5151 178.629 51.493 179.073 51.4942C179.524 51.4953 179.702 51.618 180.007 51.9223C180.173 52.4703 179.787 53.3645 179.527 53.8674C179.161 53.743 178.795 53.6295 178.415 53.5572C176.408 53.1758 176.22 55.6016 174.934 56.4467C174.925 56.4528 174.915 56.4587 174.906 56.4648C176.046 56.636 177.172 56.9257 178.111 57.6203C179.559 58.6908 179.629 59.7793 179.876 61.4182C180.067 61.4368 180.262 61.453 180.451 61.4862C180.747 61.5378 180.887 61.5475 181.062 61.7945C180.994 61.9745 180.959 61.9874 180.797 62.099C179.984 62.2032 176.657 62.3661 176.095 61.9885C176.086 61.7461 176.1 61.7131 176.252 61.5236L176.804 61.4718C176.866 61.3484 176.918 61.2223 176.948 61.0872C177.136 60.2431 176.939 59.3602 176.473 58.6367C175.786 57.5683 174.802 57.1184 173.594 56.8585L173.618 56.9029C173.674 57.0022 173.72 57.0986 173.748 57.2095C173.907 57.8308 173.837 59.8559 173.506 60.3749C173.712 60.6687 173.707 61.049 173.738 61.3951C174.027 61.6548 174.452 61.3989 174.829 61.6331L174.825 62.0028C174.47 62.3505 172.074 62.2099 171.489 62.2097C171.023 62.2097 169.888 62.2959 169.584 61.994L169.596 61.6732C169.921 61.4025 170.491 61.4932 170.918 61.4866C170.926 61.4685 170.933 61.4507 170.94 61.4327C171.239 60.6587 171.177 53.0824 170.872 52.3849C170.6 52.4054 170.3 52.4477 170.03 52.4229C169.77 52.3993 169.714 52.3821 169.547 52.1827C169.573 51.9375 169.562 51.919 169.766 51.7543C171.039 51.5396 173.671 51.4644 174.915 51.786C175.01 51.9849 174.981 52.0738 174.959 52.2892C174.649 52.5548 174.137 52.4614 173.733 52.4496C173.843 53.3015 173.507 55.6948 174.063 56.2537C174.863 55.9649 175.649 52.8248 177.734 51.5882Z" fill="#A3A8C2"/>
<path d="M205.6 51.5868C206.384 51.4435 207.135 51.501 207.914 51.6447C207.94 51.7051 207.965 51.7691 207.977 51.8346C208.051 52.272 207.59 53.4961 207.33 53.8632C206.88 53.7225 206.407 53.554 205.935 53.5154C204.315 53.3833 203.819 55.5902 202.795 56.4298C202.788 56.4369 202.778 56.4439 202.769 56.4509C204.692 56.7641 206.769 57.5936 207.445 59.5842C207.619 60.0958 207.592 60.7343 207.872 61.199C208.109 61.5929 208.633 61.4475 208.867 61.7841C208.905 61.8387 208.852 62.0081 208.836 62.0787C208.666 62.1341 208.49 62.1727 208.31 62.1816C207.487 62.222 204.47 62.369 203.917 61.8777L203.921 61.7265C204.214 61.4528 204.468 61.609 204.782 61.3974C204.909 60.5771 204.784 59.2226 204.315 58.5148C203.666 57.5351 202.55 57.1254 201.444 56.8993C201.463 56.9578 201.48 57.0168 201.494 57.0764C201.674 57.82 201.768 59.8449 201.364 60.4916C201.528 60.7578 201.593 61.1215 201.68 61.4209C202.038 61.366 202.386 61.501 202.694 61.6673C202.717 61.8733 202.721 61.883 202.61 62.0574C202.499 62.0948 202.382 62.1277 202.265 62.1372C201.852 62.17 197.792 62.2002 197.643 62.1303C197.583 62.103 197.488 61.9978 197.434 61.9528L197.417 61.6664C197.668 61.4243 198.328 61.5284 198.692 61.532C199.075 60.473 198.939 53.7282 198.738 52.3891C198.452 52.4054 198.123 52.4495 197.842 52.4109C197.578 52.3749 197.52 52.3282 197.367 52.1271L197.434 51.807C197.97 51.4443 201.387 51.6225 202.166 51.6909C202.497 51.7199 202.684 51.7866 202.893 52.0368L202.782 52.256C202.438 52.5106 201.995 52.4096 201.595 52.3741C201.808 53.6496 201.502 55.0051 201.674 56.2848C202.227 56.295 203.886 53.0323 204.44 52.4191C204.767 52.0582 205.18 51.8234 205.6 51.5868Z" fill="#A3A8C2"/>
<path d="M156.336 51.7065C157.302 51.589 160.729 51.3532 161.416 51.9003C161.552 52.0093 161.53 52.1122 161.546 52.2728C161.24 52.4558 160.741 52.4028 160.38 52.4184C160.142 52.7612 160.351 53.5297 160.147 53.9993C160.192 54.0238 160.236 54.0481 160.279 54.0747C160.875 54.4402 163.813 57.2739 163.959 57.907C164.394 56.8993 164.147 53.6778 164.025 52.4878C163.805 52.3992 163.419 52.5093 163.164 52.437C162.953 52.3772 162.9 52.272 162.797 52.092L162.93 51.8993C163.971 51.4405 166.491 51.4747 167.625 51.6879C167.957 51.7501 168.148 51.8094 168.337 52.0898L168.237 52.2807C167.803 52.5159 167.174 52.4303 166.689 52.4187C166.933 52.8867 166.895 60.6614 166.645 61.5107C166.987 61.4963 167.42 61.4456 167.755 61.5035C167.983 61.5432 168.151 61.6394 168.29 61.8236L168.21 62.0034C167.792 62.2824 167.216 62.1923 166.734 62.1716C165.866 62.1778 164.998 62.1966 164.13 62.1942C163.721 62.1928 163.096 62.2234 162.79 61.9177L162.849 61.6835C163.153 61.435 163.67 61.491 164.067 61.4676C164.109 60.8499 164.296 59.4375 164.014 58.9006C163.324 58.0348 160.967 55.4909 160.108 55.0154C160.12 55.0444 160.132 55.0736 160.143 55.1035L160.16 55.1553C160.741 56.8107 159.891 59.3737 160.291 60.9699C160.501 61.8107 161.12 61.3989 161.614 61.7049L161.421 62.0763C160.312 62.2602 157.23 62.3071 156.183 62.0882C156.105 61.8678 156.105 61.8298 156.187 61.6108C156.511 61.3919 157.089 61.4952 157.471 61.5113C157.811 60.6105 157.741 53.3455 157.401 52.413C157.034 52.44 156.486 52.4747 156.179 52.2561C156.141 51.9758 156.184 51.9453 156.336 51.7065Z" fill="#A3A8C2"/>
<path d="M214.453 51.3493C214.759 51.325 215.006 51.3256 215.272 51.4934C215.756 51.7962 216.195 52.238 216.635 52.6021C217.814 53.5773 219.115 54.4158 219.498 56.0036C219.739 57.0031 219.506 58.0228 218.968 58.8862C218.38 59.8264 215.821 62.3124 214.751 62.5577C213.879 62.4665 211.392 60.2984 210.803 59.5842C210.162 58.8085 209.735 57.8462 209.846 56.8275C210.137 54.1208 212.573 52.8662 214.453 51.3493ZM213.031 53.4864C212.365 54.0599 211.775 54.5956 211.714 55.5216C211.666 56.239 212.07 56.8475 212.539 57.3549C213.559 58.462 214.74 59.322 215.733 60.4882L215.923 60.4723L215.996 60.373C216.62 60.1156 217.362 59.6421 217.623 58.9944C217.806 58.537 217.747 58.0326 217.542 57.5935C216.834 56.0657 214.834 54.5834 213.563 53.4926C213.356 53.4267 213.237 53.4402 213.031 53.4864Z" fill="#A3A8C2"/>
<path d="M117.817 51.3509C117.901 51.3357 117.986 51.3237 118.071 51.3148C118.702 51.2535 119.909 52.4127 120.403 52.8182C121.607 53.8046 122.856 54.8878 123.004 56.5337C123.109 57.7001 122.652 58.7543 121.901 59.6313C121.297 60.336 119.07 62.508 118.212 62.5738C117.502 62.5102 114.846 60.2686 114.315 59.6503C113.65 58.875 113.217 57.9146 113.309 56.8815C113.549 54.1979 115.959 52.8742 117.817 51.3509ZM116.683 53.3695C116.023 53.7624 115.369 54.2162 115.172 55.0017C115.018 55.6158 115.215 56.1977 115.542 56.7205C115.818 57.163 119.033 60.4154 119.283 60.4962L119.394 60.3749C120.01 60.1532 120.766 59.7318 121.05 59.1186C121.241 58.707 121.215 58.2303 121.054 57.8146C120.707 56.9244 117.703 53.8538 116.927 53.4359C116.855 53.3976 116.763 53.3809 116.683 53.3695Z" fill="#A3A8C2"/>
<path d="M95.1886 51.3489L95.2576 51.33C95.4861 51.2692 95.6876 51.2424 95.8976 51.3702C97.4591 52.3207 99.8356 54.1825 100.301 55.9966C100.316 56.0581 100.33 56.12 100.343 56.1823C100.355 56.2444 100.366 56.3069 100.375 56.3696C100.385 56.4324 100.392 56.4954 100.399 56.5585C100.405 56.6217 100.409 56.6849 100.413 56.7482C100.415 56.8116 100.417 56.875 100.417 56.9384C100.416 57.0018 100.415 57.0652 100.411 57.1286C100.408 57.1919 100.403 57.2551 100.397 57.3183C100.39 57.3813 100.382 57.4442 100.372 57.507C100.363 57.5696 100.351 57.632 100.338 57.6941C100.326 57.7563 100.311 57.8181 100.295 57.8796C100.279 57.941 100.262 58.002 100.243 58.0626C100.224 58.1231 100.204 58.1832 100.181 58.2428C100.16 58.3024 100.136 58.3614 100.111 58.4197C100.086 58.478 100.06 58.5358 100.032 58.5928C100.004 58.65 99.9747 58.7064 99.9439 58.762C99.9133 58.8177 99.8813 58.8725 99.8479 58.9266C99.3037 59.8251 96.7465 62.2533 95.7018 62.5107C95.6702 62.5172 95.6365 62.5267 95.6036 62.5259C94.7821 62.5109 92.4441 60.4483 91.8607 59.7837C91.0824 58.8975 90.597 57.8071 90.6914 56.6147C90.9017 53.9564 93.3833 52.913 95.1408 51.3907L95.1886 51.3489ZM94.1951 53.3675C93.4679 53.8362 92.7258 54.4204 92.5306 55.3128C92.4178 55.8282 92.6142 56.3022 92.8994 56.7212C93.8459 58.112 95.662 58.9137 96.4349 60.3887C96.4766 60.4681 96.531 60.5376 96.5861 60.6082L96.6977 60.5469C97.3818 60.278 98.1891 59.8099 98.4906 59.1083C98.6889 58.6469 98.6535 58.1319 98.459 57.6772C98.1805 57.0255 94.9479 53.6001 94.3501 53.3996C94.2994 53.3825 94.2481 53.3741 94.1951 53.3675Z" fill="#A3A8C2"/>
<path d="M186.566 51.3498C186.849 51.32 187.104 51.3058 187.363 51.4447C188.961 52.3028 191.138 54.1904 191.636 55.9599C191.91 56.9345 191.776 57.9266 191.274 58.8046C190.693 59.8221 188.135 62.2401 187.016 62.542C186.942 62.5378 186.954 62.5408 186.883 62.5274C185.855 62.3333 183.247 60.067 182.656 59.2057C182.102 58.3984 181.884 57.4638 182.077 56.5019C182.549 54.1522 184.682 52.6039 186.566 51.3498ZM185.165 53.4868C184.516 54.052 183.964 54.5509 183.892 55.4501C183.833 56.189 184.229 56.8141 184.703 57.3463C185.514 58.2563 186.577 58.9449 187.396 59.8436C187.612 60.0801 187.796 60.5065 188.107 60.528L188.253 60.3734C188.855 60.1153 189.526 59.6579 189.773 59.029C189.96 58.5512 189.878 58.0365 189.667 57.5832C189.359 56.9214 186.27 53.6634 185.611 53.4441C185.478 53.3997 185.302 53.462 185.165 53.4868Z" fill="#A3A8C2"/>
<path d="M46.9453 17.3803C47.4122 17.3367 47.88 17.3252 48.3485 17.3459C49.4753 17.3873 50.512 17.7422 51.2895 18.5796C53.1333 20.5653 52.7442 23.8919 52.6563 26.3826C51.4409 25.7492 50.4571 24.7668 49.1808 24.2256C45.5982 22.7067 40.7753 23.3514 37.1065 24.176C35.3446 24.5719 33.5588 25.1361 31.7578 25.2819C32.3558 24.8796 33.0364 24.5643 33.6732 24.225C36.256 22.9298 39.0902 21.9048 41.8843 21.1481C42.8854 20.877 48.5539 19.8976 48.8245 19.6894C48.7983 19.6489 48.7715 19.611 48.7375 19.5768C48.0622 18.9015 38.7057 19.5164 37.1269 19.4659C40.1795 18.3092 43.7052 17.7297 46.9453 17.3803Z" fill="#1B2F5C"/>
<path d="M231.989 51.5876C233.293 51.4664 234.878 51.5166 236.173 51.6992L236.304 51.894C236.292 52.1816 236.309 52.2173 236.106 52.4236L235.146 52.4105C235.718 54.4241 237.27 59.685 237.337 61.5093C237.774 61.5006 238.222 61.4636 238.645 61.58L238.734 61.8144C238.645 61.9657 238.572 62.0703 238.39 62.1206C237.931 62.2484 234.185 62.1709 233.875 61.9843L233.94 61.7003L234.311 61.576C234.476 61.3497 234.525 61.292 234.524 61.0013C234.522 60.2775 233.161 55.1188 232.858 54.2753C232.78 54.06 232.659 53.8732 232.497 53.7107C233.036 54.9519 231.36 59.5329 231.174 61.1166C231.101 61.74 231.786 61.3286 232.158 61.7897L232.043 62.0616C231.042 62.3312 228.148 62.1557 226.999 62.0901L226.827 61.8846L226.842 61.724C227.103 61.6335 227.342 61.5445 227.574 61.3951C227.652 61.3442 227.669 61.2732 227.685 61.1826C227.755 60.7783 226.326 55.4485 225.958 54.9361C225.952 54.928 225.947 54.9202 225.941 54.9122C225.973 54.6502 226.056 54.3919 225.937 54.1529C225.6 54.308 225.315 54.8505 225.114 55.1679C223.045 58.4326 224.81 60.4472 224.075 62.2753L220.844 62.2271C221.309 61.4182 220.886 59.8543 221.429 58.7817C222.379 56.9156 224.193 55.646 225.198 53.8267C225.424 53.4199 225.585 53.0835 225.453 52.6235C225.099 52.3192 224.565 52.5125 224.142 52.3101C224.082 52.0261 224.136 51.9625 224.243 51.7003C225.526 51.4516 227.478 51.5181 228.787 51.726C229.084 51.7732 229.112 51.797 229.287 52.0388L229.233 52.1987C229.028 52.2575 228.774 52.3099 228.586 52.4094C228.397 52.5098 228.322 52.6843 228.33 52.8908C228.381 54.5468 230.55 59.5918 230.158 60.9003C230.686 60.39 231.968 53.8273 232.097 52.5709C231.846 52.4149 231.687 52.4219 231.465 52.1808C231.448 51.9646 231.425 51.8907 231.538 51.6963L231.989 51.5876Z" fill="#A3A8C2"/>
<path d="M131.828 52.4704C131.461 52.4626 131.125 52.455 130.769 52.351C130.64 52.1165 130.654 52.0704 130.712 51.8097C131.682 51.4494 134.734 51.5764 135.803 51.7545C135.944 52.0148 135.973 52.0797 135.954 52.3753C135.647 52.538 134.962 52.4165 134.603 52.3933C134.791 53.5227 134.897 60.713 134.508 61.4815L138 61.4688C138.071 61.3499 138.129 61.225 138.158 61.0887C138.323 60.3151 138.313 56.5514 137.95 55.9807C138.441 55.2346 138.129 53.3791 138.053 52.4751C137.861 52.3927 137.452 52.4894 137.218 52.4299C137.005 52.3762 136.952 52.2893 136.842 52.1108L136.956 51.9255C137.911 51.4411 140.519 51.5197 141.601 51.6915C141.944 51.7458 142.18 51.7936 142.386 52.0759L142.289 52.2621C141.869 52.5085 141.277 52.4096 140.805 52.384C141.002 53.3907 140.968 60.6515 140.783 61.5109C141.097 61.4988 141.447 61.4663 141.758 61.5109C142.014 61.5477 142.204 61.6884 142.357 61.8881L142.262 62.0334C142.09 62.0922 141.915 62.1332 141.734 62.1514C139.2 62.4047 136.123 62.1957 133.54 62.1941C130.826 62.1924 127.723 62.3823 125.049 62.1716C124.738 62.1473 124.522 62.1241 124.277 61.9261L124.367 61.7307C124.724 61.4206 125.174 61.4716 125.62 61.4722C125.949 60.4372 125.973 53.4596 125.591 52.4763C125.186 52.4744 124.57 52.5419 124.229 52.3208C124.151 52.0392 124.189 51.9802 124.293 51.7065C125.935 51.5525 128.061 51.5179 129.676 51.7484C129.802 51.9762 129.787 52.017 129.747 52.2619C129.37 52.496 128.815 52.4079 128.369 52.4081C128.615 53.2436 128.623 60.8328 128.297 61.4963L131.776 61.483C132.159 60.8478 132.069 53.5646 131.828 52.4704Z" fill="#A3A8C2"/>
<path d="M27.7723 5.4862C30.6549 5.17973 32.1999 7.21555 34.59 8.12213C37.2123 9.11677 39.1064 8.10834 41.45 7.06024C40.2522 9.59653 38.9022 12.2695 37.4322 14.6591C37.4002 13.8771 37.4934 13.1066 37.574 12.3302C36.1982 12.6729 34.8411 13.1688 33.4913 13.6034C32.9697 14.2368 32.479 14.9023 31.9752 15.5503C31.9497 15.5796 31.9236 15.6084 31.8969 15.6367C30.8566 16.7585 29.4704 17.4888 27.9227 17.5497C26.206 17.6174 24.7909 16.9244 23.5625 15.7888C24.2451 15.8958 24.9818 15.9925 25.6741 15.9865C26.8197 15.9765 27.5298 15.5079 28.3101 14.7234C27.2387 14.501 26.2274 14.2996 25.4354 13.4855C24.8415 12.875 24.5771 12.0512 24.603 11.2119C24.6547 9.53529 25.7629 8.36886 26.9244 7.29061C25.9253 7.6154 24.917 7.90866 23.8994 8.17038C23.9319 8.12024 23.9652 8.07062 23.9993 8.02153C24.9684 6.62887 26.0789 5.78892 27.7723 5.4862ZM28.7506 7.67004C28.0496 8.28632 27.5872 8.82998 27.529 9.79161C27.5235 9.87986 27.5224 9.96817 27.5258 10.0565C27.5292 10.1449 27.537 10.2329 27.5491 10.3204C27.5614 10.408 27.5779 10.4948 27.5989 10.5808C27.6198 10.6667 27.645 10.7514 27.6745 10.8349C27.7038 10.9183 27.7373 11.0001 27.775 11.0803C27.8126 11.1604 27.8542 11.2385 27.8998 11.3145C27.9452 11.3905 27.9943 11.4641 28.0471 11.5353C28.1001 11.6065 28.1564 11.6748 28.2162 11.7404C28.2694 11.8001 28.3255 11.8569 28.3844 11.911C28.4432 11.9651 28.5047 12.0161 28.5687 12.0642C28.6328 12.1122 28.6991 12.1569 28.7676 12.1983C28.8361 12.2398 28.9066 12.2778 28.9789 12.3122C29.0513 12.3467 29.1251 12.3776 29.2006 12.4048C29.2761 12.4319 29.3527 12.4553 29.4304 12.4749C29.5083 12.4945 29.5869 12.5102 29.6663 12.5221C29.7456 12.5339 29.8254 12.5418 29.9055 12.5457C30.5481 12.572 31.1533 12.3821 31.6768 12.0168L31.9849 11.5591L31.9409 11.3836C30.9251 11.4112 30.1153 11.9748 29.2228 11.1571C29.0304 10.9809 28.9079 10.7368 28.9113 10.4742C28.9221 9.62869 30.0789 8.69282 29.5912 7.96809C29.3035 7.80602 29.0873 7.69582 28.7506 7.67004Z" fill="#1B2F5C"/>
<path d="M7.50779 24.4393C11.6915 21.6866 12.3962 20.6552 13.5343 15.7534C13.6218 15.3862 13.7207 15.022 13.831 14.6608C13.9413 14.2997 14.0628 13.9423 14.1954 13.5886C14.3281 13.235 14.4717 12.8858 14.6262 12.5409C14.7807 12.1961 14.9458 11.8564 15.1216 11.5218C15.2974 11.1872 15.4834 10.8583 15.6798 10.5351C15.8761 10.2119 16.0824 9.89511 16.2985 9.58466C16.5147 9.27421 16.7404 8.97072 16.9755 8.67417C17.2107 8.37763 17.4549 8.08861 17.7081 7.80712C18.5027 6.94012 19.4383 6.1491 20.1626 5.22644C20.97 4.19774 21.4029 2.85138 22.5734 2.13697C23.0643 1.83726 23.6104 1.70916 24.1774 1.63702C26.9007 1.29047 36.0317 1.49316 38.5964 2.1166C39.2114 2.82318 40.8615 2.72325 41.7588 2.83606C41.2263 2.87818 40.7013 2.88101 40.1778 2.9914C36.3311 2.63173 32.5441 2.41706 28.679 2.64882C29.4116 3.35532 30.2271 3.94104 30.9738 4.62273C28.581 4.06502 26.172 3.20611 23.887 4.59722C23.7558 4.67818 23.6274 4.76314 23.5017 4.8521C23.3759 4.94107 23.2531 5.03387 23.1332 5.1305C23.0134 5.22712 22.8967 5.3274 22.7832 5.43131C22.6696 5.53522 22.5595 5.64256 22.4528 5.75334C22.3461 5.86412 22.243 5.97812 22.1435 6.09534C22.0439 6.21254 21.9482 6.33274 21.8564 6.45592C21.7645 6.5791 21.6766 6.70502 21.5926 6.83368C21.5088 6.96235 21.429 7.09351 21.3534 7.22714C21.1784 7.53778 20.9987 8.00694 20.7648 8.26737C20.537 8.52112 20.0788 8.10758 19.7057 8.46057C17.7882 10.2744 15.9964 13.051 15.3969 15.6322C15.1688 16.6143 15.1285 17.6276 14.9647 18.6201C14.5311 21.2469 12.5633 22.6138 10.4725 23.9628C11.8866 23.8889 13.238 23.495 14.6393 23.3593C12.5231 24.9421 10.3098 26.4645 8.27303 28.1423C9.82673 28.1772 11.353 27.8537 12.8981 27.7652C11.6574 29.391 10.3181 30.9458 9.15392 32.6272C10.2135 32.1826 11.2196 31.6634 12.2328 31.1239C12.8515 33.1335 13.2519 39.0303 12.5926 40.872C12.3323 41.0428 12.1389 40.9764 11.9581 41.2292C11.934 38.6328 11.4773 36.0422 11.0918 33.4794C9.56537 34.2849 7.97157 34.9951 6.41344 35.7402C7.10023 33.4766 8.50115 31.4753 9.64046 29.4191L5.58203 30.4327C6.74075 28.2328 8.42991 26.6926 10.3169 25.1189C9.3736 24.9256 8.4411 24.6754 7.50779 24.4393Z" fill="#1B2F5C"/>
<path d="M45.8997 39.4316C45.922 39.4394 45.9442 39.447 45.9662 39.455C46.7429 39.7365 47.8019 43.3795 48.2351 44.3054C50.3718 48.8712 52.7921 49.6032 57.2285 51.2186C55.9486 51.0963 54.6744 51.0043 53.4406 50.6191C49.3694 49.3485 46.9672 45.8201 45.0905 42.2375C41.1142 43.9267 37.7987 47.8979 35.7047 51.5578C34.8627 53.0295 34.2343 54.608 33.3083 56.0344C31.8272 54.2488 30.2531 52.5355 28.7624 50.7558C28.4029 51.3819 28.0856 52.0345 27.7564 52.6769C25.199 57.59 25.0156 64.0075 24.8322 69.4282C22.9111 60.9591 23.8034 53.7093 27.7929 46.0018C29.3634 47.6196 30.8778 49.2948 32.4069 50.9511C35.6017 46.9026 38.3019 43.301 42.9381 40.7563C43.8559 40.2527 44.8784 39.6868 45.8997 39.4316Z" fill="#1B2F5C"/>
<path d="M35.9836 28.7827C38.1791 26.2615 41.1966 25.0634 44.5131 24.8291C46.6201 24.6803 49.2781 25.1002 50.9032 26.499C52.8894 28.2087 53.1013 32.2422 53.7348 34.7203C54.5943 38.0816 56.7072 45.2581 59.4958 47.2729C60.3043 47.8569 61.0092 47.9732 61.9858 47.911C62.1083 47.9032 62.2306 47.8958 62.3527 47.8838C61.0582 48.9564 59.7004 49.3302 58.0199 49.1852C55.3536 48.9555 53.2858 47.2858 51.6378 45.3214C49.7836 43.1111 48.327 40.3147 47.5507 37.5463C49.5549 39.7589 51.2695 41.774 53.8667 43.3068C52.943 41.3953 51.5844 39.7407 50.6911 37.7902C50.283 36.8995 49.8864 34.879 49.1158 34.3471C47.9048 33.9959 44.2886 35.8372 43.1459 36.4574C38.2539 39.1115 34.8674 43.1132 32.19 47.8926C30.747 46.1415 29.4207 44.2315 27.9082 42.5463C23.8424 47.5169 21.7005 53.0809 20.6244 59.3583C20.6091 59.1157 20.6047 58.8869 20.4956 58.6646C20.4566 58.5847 20.1664 58.5277 20.0703 58.4976C20.5331 52.4967 24.714 41.3951 29.3836 37.4436C29.6758 37.1962 30.0089 36.9474 30.3548 36.7786C30.591 38.2271 30.7961 39.6976 30.9121 41.1612C32.2145 39.988 33.2241 38.4262 34.3228 37.0622C36.7108 34.0979 39.7752 31.3161 43.1306 29.4688C43.7438 29.1311 45.0911 28.4201 45.7662 28.4693C45.8233 28.4735 45.8776 28.4835 45.9329 28.498C45.6131 29.1729 43.0775 30.5752 42.3387 31.1819C39.7379 33.3178 37.356 35.904 35.3968 38.6314C36.916 37.6312 38.282 36.4069 39.7275 35.3064C42.48 33.2105 44.5533 32.4142 47.7637 31.348C48.1106 31.2328 48.808 30.978 48.8955 30.5834C49.0475 29.8977 48.3182 28.7457 47.9536 28.2049C47.2347 27.1385 46.079 26.4557 44.8193 26.2133C42.7343 25.8121 40.306 26.5018 38.4514 27.4607C37.6238 27.8888 36.8438 28.4186 35.9836 28.7827Z" fill="#1B2F5C"/>
<path d="M220.738 11.0506C226.637 11.062 232.548 11.1451 238.443 11.0371C238.807 11.6422 238.654 12.7031 238.623 13.3866C237.115 13.2939 235.555 13.3606 234.043 13.3567C234.092 13.4207 234.136 13.4908 234.157 13.5706C234.573 15.2454 234.368 44.9437 233.997 45.5897C235.531 45.5558 237.064 45.5417 238.598 45.5476C238.65 45.6229 238.692 45.7028 238.711 45.7923C238.837 46.3732 238.881 47.4515 238.571 47.9629L220.629 47.9731C220.694 47.8801 220.748 47.7818 220.778 47.6715C220.931 47.1052 220.949 46.089 220.656 45.5755C222.144 45.5409 223.632 45.5318 225.121 45.5481C225.137 45.5028 225.15 45.4579 225.163 45.4116C225.383 44.5902 225.066 38.0451 225.047 36.6097C224.972 31.354 225.014 26.0907 225.012 20.8342C225.01 19.6582 225.217 14.1106 224.805 13.4143C223.515 13.3437 222.212 13.3881 220.922 13.3953C220.943 12.7539 221.115 11.5896 220.738 11.0506Z" fill="#BB796B"/>
<path d="M157.868 10.9606C160.552 10.7734 163.344 10.9311 166.044 10.9339C169.328 10.9374 172.645 10.8151 175.924 10.9504C176.133 10.9804 176.362 10.9578 176.5 11.1303C176.676 11.3508 176.814 12.1237 176.773 12.4078C176.744 12.6084 176.543 13.1159 176.383 13.2324C176.183 13.3773 175.795 13.3693 175.552 13.3912L173.345 13.4549C173.597 13.7869 173.699 14.1476 173.795 14.5464C174.217 16.2926 174.447 18.13 174.792 19.8975C175.367 22.8704 176.039 25.8218 176.806 28.7516C177.434 31.2028 181.442 44.2723 181.322 45.3239C181.314 45.3951 181.286 45.4611 181.253 45.524C182.456 45.5217 183.748 45.4205 184.94 45.5416C185.256 46.0354 185.243 47.1545 185.102 47.7202C185.076 47.8222 185.032 47.9078 184.973 47.9945C179.516 47.8491 174.018 47.9454 168.558 47.9852C168.91 47.4514 168.871 46.5284 168.74 45.9232C168.713 45.7968 168.657 45.6872 168.584 45.5813C169.592 45.5469 170.895 45.6745 171.867 45.4769C171.882 45.4306 171.878 45.4465 171.887 45.4063C171.89 45.3928 171.893 45.3793 171.896 45.366C172.033 44.8369 171.323 43.4642 171.106 42.8848C170.223 40.538 169.632 38.1707 169.067 35.7353C168.588 33.6144 168.153 31.4846 167.763 29.346C167.356 27.0349 166.554 21.5011 165.636 19.5831C165.549 19.6397 165.468 19.7003 165.391 19.7707C163.884 21.1617 162.431 24.5228 161.548 26.4272C159.451 30.949 157.916 35.6419 159.491 40.5587C159.784 41.4734 160.248 42.35 160.65 43.2222C161.132 44.2676 161.921 45.7945 161.883 46.9542C161.873 47.2682 161.783 47.5196 161.544 47.7333C160.315 48.8291 157.853 48.2911 156.352 48.2708C155.384 48.2577 154.413 48.3416 153.446 48.3015C152.869 48.2776 151.949 48.2552 151.541 47.7939C150.98 47.1606 151.164 45.1885 151.233 44.3593C151.503 41.1102 152.095 38.6134 153.367 35.586C154.407 33.1111 155.795 30.5815 157.111 28.2375C157.736 27.1255 158.513 26.1011 159.157 24.9998C160.264 23.1052 163.679 16.7752 163.756 14.7886C163.77 14.436 163.688 14.0768 163.431 13.8184C162.702 13.0841 159.004 13.4398 157.862 13.4002C157.89 13.3513 157.914 13.3018 157.933 13.2492C158.111 12.7751 158.091 11.4096 157.868 10.9606Z" fill="#BB796B"/>
<path d="M165.639 19.5832C165.603 19.3505 165.613 19.3573 165.752 19.1641C166.344 19.5597 167.79 27.4646 168.036 28.712C168.765 32.4192 169.56 36.0495 170.576 39.6924C170.823 40.5774 171.042 41.4839 171.329 42.3562C171.666 43.3849 172.119 44.4414 172.325 45.5024C172.158 45.5212 172.033 45.5277 171.87 45.477C171.885 45.4306 171.881 45.4466 171.89 45.4063C171.893 45.3929 171.896 45.3794 171.899 45.3661C172.035 44.837 171.326 43.4643 171.109 42.8849C170.226 40.5381 169.635 38.1708 169.07 35.7353C168.591 33.6145 168.156 31.4847 167.765 29.3461C167.359 27.035 166.557 21.5012 165.639 19.5832Z" fill="white"/>
<path d="M187.981 10.8637C189.802 10.8134 191.639 10.8973 193.463 10.898L205.784 10.869C205.803 10.8966 205.822 10.9207 205.835 10.9522C205.983 11.338 205.862 12.9903 205.694 13.3684C204.182 13.279 202.631 13.3365 201.115 13.3364C201.289 14.5971 201.372 25.2985 201.05 26.0506C202.002 26.4238 202.922 27.1293 203.82 27.6352C206.123 28.9333 208.812 29.9385 211.438 30.33C213.319 30.6107 215.593 30.0604 217.161 30.4182C217.653 30.5308 218.137 30.7649 218.405 31.2118C218.679 31.6668 218.744 32.3039 218.786 32.8207C218.975 35.2588 218.815 37.7964 218.803 40.2419C218.796 42.1059 219.132 44.3515 218.654 46.1446C218.505 46.6989 218.275 47.1025 217.764 47.3977L217.708 47.5177C217.287 47.833 216.774 47.8829 216.265 47.9247C213.735 48.131 211.08 47.968 208.534 47.9716C201.621 47.9813 194.632 47.7664 187.729 48.0447C187.788 47.931 187.832 47.8167 187.862 47.6917C188.006 47.0803 188.039 46.1151 187.708 45.5644C189.231 45.5111 190.75 45.5568 192.272 45.5954C192.349 45.4824 192.403 45.3677 192.431 45.2345C192.646 44.2557 192.347 38.9261 192.343 37.5264C192.339 36.0088 192.448 34.4916 192.464 32.9739L192.506 20.5553C192.508 19.2885 192.76 14.1135 192.303 13.3933C190.69 13.3277 189.065 13.3924 187.453 13.4598C187.651 12.7139 187.303 11.5494 187.669 10.9332L187.981 10.8637ZM201.069 29.833C201.33 30.5583 201.301 44.9939 201.058 45.5173C201.052 45.53 201.046 45.5422 201.041 45.5547C202.639 45.4756 204.385 45.3662 205.979 45.5029C206.442 45.4944 206.923 45.4608 207.348 45.2614C207.855 45.0226 208.215 44.4814 208.398 43.9667C208.787 42.8753 209.143 34.2492 208.714 33.3716C207.215 32.3649 205.38 32.0697 203.774 31.2718C202.936 30.8541 201.971 29.9875 201.069 29.833Z" fill="#BB796B"/>
<path d="M201.07 29.8328L201.149 29.3373C201.271 29.317 201.342 29.3869 201.449 29.4478C202.485 30.0375 203.486 30.834 204.575 31.3126C206.06 31.9653 207.944 32.108 209.261 33.0455C209.785 33.4179 210.032 33.8722 210.13 34.4955C210.313 35.6683 210.344 42.0399 210.191 43.0977C210.118 43.6104 209.965 44.1241 209.653 44.5458C209.218 45.1314 208.585 45.4629 207.865 45.5627C207.266 45.6459 206.571 45.6278 205.98 45.5027C206.443 45.4942 206.924 45.4606 207.348 45.2613C207.856 45.0224 208.216 44.4812 208.399 43.9666C208.788 42.8752 209.144 34.249 208.715 33.3714C207.216 32.3647 205.381 32.0695 203.775 31.2716C202.937 30.854 201.972 29.9873 201.07 29.8328Z" fill="white"/>
<path d="M119.912 13.5245C121.208 13.018 122.064 11.8301 123.384 11.2765C127.288 9.63997 136.67 9.97046 140.531 11.5565C143.085 12.6056 145.334 14.5431 146.392 17.1137C147.393 19.5433 147.114 22.8342 146.087 25.2406C145.05 27.673 143.184 29.62 140.689 30.6154C138.892 31.3324 136.404 31.4258 134.588 30.674C133.553 30.2457 132.603 29.6274 131.57 29.1876C131.568 29.2094 131.568 29.2312 131.566 29.2529C131.501 29.8013 128.472 33.407 127.917 33.7914C128.134 34.2502 128.238 45.1402 128.1 45.5846C129.545 45.4866 130.984 45.4893 132.432 45.5051C132.589 46.1801 132.576 47.0213 132.462 47.7038L132.285 47.9475C130.264 48.0493 128.196 47.9583 126.167 47.9585L114.498 47.9817C114.553 47.8987 114.597 47.8108 114.616 47.7125C114.714 47.1952 114.651 45.9734 114.371 45.5269C115.883 45.4604 117.41 45.4838 118.924 45.4648C119.063 45.2603 119.111 45.0014 119.122 44.7594C119.24 42.2009 119.097 39.5982 119.106 37.0335L119.282 20.0758C119.314 18.4748 119.228 16.7704 119.405 15.1844C119.47 14.5978 119.954 14.1049 119.912 13.5245ZM131.858 12.6438C130.693 12.9664 129.887 13.617 129.286 14.666C127.778 17.2985 128.012 23.9142 128.02 26.9963C128.023 28.002 128.207 29.411 127.801 30.3344C128.554 29.9864 130.13 28.2247 130.428 27.4259C130.464 27.3296 130.49 27.2339 130.477 27.1307C130.769 26.7971 130.889 26.6122 131.314 26.4541C132.717 26.5312 133.856 27.7835 135.193 26.6086C136.478 25.4796 136.627 23.3382 136.714 21.7371C136.861 19.0574 137.011 16.0139 135.078 13.8769C134.374 13.0984 133.51 12.6798 132.46 12.6251C132.259 12.6147 132.058 12.6241 131.858 12.6438Z" fill="#BB796B"/>
<path d="M94.5388 9.67634C95.3965 9.52613 95.9074 9.61147 96.6273 10.1084C97.9872 11.0472 98.9938 12.4641 100.249 13.5361C104.473 17.1444 109.191 19.8875 110.262 25.7759C111.03 29.9991 110.369 34.0731 107.88 37.6197C107.15 38.6469 106.35 39.6182 105.481 40.5333C104.144 41.9615 96.9842 49.029 95.4874 49.2952C95.2532 49.4066 95.0294 49.3834 94.7792 49.3162C92.9481 48.8246 86.4804 43.1985 84.8908 41.6344C83.714 40.4767 82.2848 39.0123 81.4778 37.5709C79.5429 34.1148 79.2575 29.2356 80.3436 25.4817C81.9744 19.8446 86.5187 16.0164 90.9163 12.477C92.0762 11.5435 93.231 10.3944 94.5388 9.67634ZM91.2599 16.6813C88.892 17.5468 87.0397 18.7703 85.9407 21.1247C85.1415 22.8365 84.9857 24.7525 85.648 26.5328C87.0623 30.3351 91.2241 34.2346 94.139 37.0163C95.136 37.968 96.3484 38.9191 97.1234 40.0551C97.56 40.6949 97.831 41.6553 98.022 42.3968L98.1511 42.3279C100.599 41.4933 103.003 39.3288 104.121 37.041C104.831 35.5865 104.869 34.2844 104.329 32.7666C103.177 29.5279 100.219 27.0061 97.9277 24.539C96.6303 23.1417 95.3818 21.6955 94.1185 20.2681C93.413 19.471 92.5896 18.6887 92.0104 17.7958C91.7923 17.46 91.6995 17.0796 91.5123 16.7314L91.2599 16.6813Z" fill="#BB796B"/>
</svg>
