<svg width="20" height="20" viewBox="0 0 20 20" fill="none" xmlns="http://www.w3.org/2000/svg">
<path d="M15.2474 8.95964C15.2474 12.4344 12.4305 15.2513 8.95573 15.2513V17.2513C13.5351 17.2513 17.2474 13.539 17.2474 8.95964H15.2474ZM8.95573 15.2513C5.48094 15.2513 2.66406 12.4344 2.66406 8.95964H0.664062C0.664062 13.539 4.37637 17.2513 8.95573 17.2513V15.2513ZM2.66406 8.95964C2.66406 5.48484 5.48094 2.66797 8.95573 2.66797V0.667969C4.37637 0.667969 0.664062 4.38027 0.664062 8.95964H2.66406ZM8.95573 2.66797C12.4305 2.66797 15.2474 5.48484 15.2474 8.95964H17.2474C17.2474 4.38027 13.5351 0.667969 8.95573 0.667969V2.66797Z" fill="#1B2F5C"/>
<path d="M18.3333 18.3333L15 15" stroke="#1B2F5C" stroke-width="2" stroke-linecap="round"/>
</svg>
