<svg width="48" height="48" viewBox="0 0 48 48" fill="none" xmlns="http://www.w3.org/2000/svg">
<path fill-rule="evenodd" clip-rule="evenodd" d="M24 20.4C25.273 20.4 26.4939 19.8943 27.3941 18.9941C28.2943 18.0939 28.8 16.873 28.8 15.6C28.8 14.3269 28.2943 13.106 27.3941 12.2059C26.4939 11.3057 25.273 10.8 24 10.8C22.727 10.8 21.5061 11.3057 20.6059 12.2059C19.7057 13.106 19.2 14.3269 19.2 15.6C19.2 16.873 19.7057 18.0939 20.6059 18.9941C21.5061 19.8943 22.727 20.4 24 20.4ZM24 13.2C24.6365 13.2 25.247 13.4528 25.6971 13.9029C26.1471 14.353 26.4 14.9635 26.4 15.6C26.4 16.2365 26.1471 16.847 25.6971 17.297C25.247 17.7471 24.6365 18 24 18C23.3635 18 22.753 17.7471 22.3029 17.297C21.8529 16.847 21.6 16.2365 21.6 15.6C21.6 14.9635 21.8529 14.353 22.3029 13.9029C22.753 13.4528 23.3635 13.2 24 13.2Z" fill="#F86238" style="fill:#F86238;fill:color(display-p3 0.9725 0.3843 0.2196);fill-opacity:1;"/>
<path fill-rule="evenodd" clip-rule="evenodd" d="M13.2 15.0864C13.2 21.5016 19.5672 32.4 24 32.4C28.4352 32.4 34.8 21.5016 34.8 15.0864C34.8 8.75998 29.9832 3.59998 24 3.59998C18.0168 3.59998 13.2 8.75998 13.2 15.0864ZM32.4 15.0864C32.4 20.3496 26.7648 30 24 30C21.2376 30 15.6 20.352 15.6 15.0864C15.6 10.0488 19.38 5.99998 24 5.99998C28.62 5.99998 32.4 10.0488 32.4 15.0864Z" fill="#F86238" style="fill:#F86238;fill:color(display-p3 0.9725 0.3843 0.2196);fill-opacity:1;"/>
<path d="M32.244 21.936C31.957 21.8125 31.7296 21.582 31.6099 21.2934C31.4902 21.0049 31.4877 20.681 31.6031 20.3907C31.7184 20.1004 31.9424 19.8665 32.2274 19.7387C32.5125 19.6109 32.8361 19.5993 33.1296 19.7064C34.1055 20.0934 34.985 20.6893 35.7064 21.4521C36.4278 22.215 36.9736 23.1263 37.3056 24.1224L40.5072 33.7224C40.8682 34.8051 40.9667 35.9581 40.7945 37.0864C40.6223 38.2147 40.1843 39.2858 39.5167 40.2115C38.8491 41.1373 37.9709 41.891 36.9547 42.4106C35.9385 42.9302 34.8133 43.2007 33.672 43.2H14.328C13.1871 43.2 12.0625 42.9289 11.0469 42.4089C10.0313 41.889 9.1538 41.1352 8.48673 40.2096C7.81965 39.284 7.3821 38.2131 7.21013 37.0852C7.03815 35.9573 7.13668 34.8047 7.4976 33.7224L10.6968 24.1224C11.0346 23.1085 11.5939 22.1825 12.334 21.4116C13.0742 20.6407 13.9767 20.0443 14.976 19.6656C15.1233 19.6096 15.2803 19.5832 15.4378 19.5879C15.5953 19.5926 15.7504 19.6283 15.8941 19.6929C16.0379 19.7576 16.1675 19.8499 16.2756 19.9646C16.3836 20.0793 16.4681 20.2142 16.524 20.3616C16.5799 20.5089 16.6063 20.6658 16.6016 20.8233C16.5969 20.9809 16.5612 21.136 16.4966 21.2797C16.432 21.4234 16.3397 21.5531 16.2249 21.6611C16.1102 21.7692 15.9753 21.8536 15.828 21.9096C15.1609 22.1619 14.5585 22.5597 14.0645 23.0741C13.5704 23.5885 13.1972 24.2065 12.972 24.8832L9.7728 34.4832C9.53246 35.2048 9.46703 35.9731 9.58192 36.725C9.6968 37.4768 9.98869 38.1906 10.4336 38.8075C10.8784 39.4244 11.4635 39.9268 12.1406 40.2732C12.8177 40.6196 13.5674 40.8001 14.328 40.8H33.6768C34.4374 40.7999 35.1872 40.619 35.8642 40.2723C36.5413 39.9256 37.1262 39.423 37.5709 38.8058C38.0155 38.1887 38.3071 37.4747 38.4216 36.7227C38.5362 35.9707 38.4703 35.2023 38.2296 34.4808L35.0328 24.8808C34.8113 24.217 34.4473 23.6098 33.9664 23.1015C33.4855 22.5932 32.8993 22.1962 32.2488 21.9384" fill="#F86238" style="fill:#F86238;fill:color(display-p3 0.9725 0.3843 0.2196);fill-opacity:1;"/>
</svg>
