<svg width="36" height="36" viewBox="0 0 36 36" fill="none" xmlns="http://www.w3.org/2000/svg">
<path d="M2.79 15.1965L20.8035 33.21C20.9624 33.3687 21.1652 33.4763 21.3857 33.5188C21.6063 33.5613 21.8345 33.5368 22.041 33.4485L30.951 29.6325C31.1198 29.5599 31.2683 29.4471 31.3835 29.3039C31.4986 29.1607 31.5769 28.9914 31.6115 28.8109C31.6462 28.6305 31.6361 28.4443 31.5821 28.2686C31.5281 28.0929 31.432 27.9332 31.302 27.8032L25.893 22.392C25.7262 22.225 25.511 22.1147 25.278 22.0767C25.045 22.0388 24.806 22.0751 24.5947 22.1805L22.1377 23.409L12.5887 13.86L13.8195 11.403C13.9252 11.192 13.9619 10.9531 13.9243 10.7201C13.8868 10.4871 13.7769 10.2719 13.6102 10.1047L8.19675 4.69575C8.06668 4.56584 7.90676 4.46978 7.73098 4.41598C7.5552 4.36218 7.36891 4.35227 7.18841 4.38713C7.00792 4.42198 6.83871 4.50054 6.6956 4.61592C6.55249 4.73131 6.43984 4.88 6.3675 5.049L2.54925 13.959C2.46093 14.1655 2.43644 14.3937 2.47895 14.6143C2.52145 14.8348 2.629 15.0376 2.78775 15.1965H2.79ZM4.91625 14.1435L7.78275 7.461L11.4457 11.1262L10.5795 12.8565L9.855 14.3055L11.0002 15.453L20.547 24.9997L21.6945 26.1472L23.1435 25.4205L24.876 24.5565L28.539 28.2172L21.8565 31.0815L4.91625 14.1435ZM18 11.25V9C20.3869 9 22.6761 9.94821 24.364 11.636C26.0518 13.3239 27 15.6131 27 18H24.75C24.75 16.2098 24.0388 14.4929 22.773 13.227C21.5071 11.9612 19.7902 11.25 18 11.25ZM18 4.5V2.25C22.1772 2.25 26.1832 3.90937 29.1369 6.86307C32.0906 9.81677 33.75 13.8228 33.75 18H31.5C31.5 14.4196 30.0777 10.9858 27.5459 8.45406C25.0142 5.92232 21.5804 4.5 18 4.5Z" fill="#F86238" style="fill:#F86238;fill:color(display-p3 0.9725 0.3843 0.2196);fill-opacity:1;"/>
</svg>
