<svg width="36" height="36" viewBox="0 0 36 36" fill="none" xmlns="http://www.w3.org/2000/svg">
<path fill-rule="evenodd" clip-rule="evenodd" d="M13.3798 18C13.3798 20.5555 15.4422 22.6179 17.9976 22.6179C20.553 22.6179 22.6154 20.5555 22.6154 18C22.6154 15.4445 20.553 13.3821 17.9976 13.3821C15.4422 13.3821 13.3798 15.4445 13.3798 18ZM14.9964 18C14.9964 16.3474 16.345 14.9987 17.9976 14.9987C19.6502 14.9987 20.9988 16.3474 20.9988 18C20.9988 19.6526 19.6502 21.0013 17.9976 21.0013C16.345 21.0013 14.9964 19.6526 14.9964 18Z" fill="#9AD3F9"/>
<path d="M21.726 13.193C21.726 13.7897 22.2078 14.2715 22.8045 14.2715C22.9462 14.2717 23.0865 14.2439 23.2174 14.1897C23.3483 14.1356 23.4673 14.0562 23.5675 13.956C23.6677 13.8558 23.7471 13.7369 23.8012 13.6059C23.8554 13.475 23.8831 13.3347 23.8829 13.193C23.8829 12.5963 23.4011 12.1145 22.8045 12.1145C22.2078 12.1145 21.726 12.5963 21.726 13.193Z" fill="#9AD3F9"/>
<path fill-rule="evenodd" clip-rule="evenodd" d="M18 0C27.9411 0 36 8.05887 36 18C36 27.9411 27.9411 36 18 36C8.05887 36 0 27.9411 0 18C0 8.05887 8.05887 0 18 0ZM26.9993 17.5454C26.9992 17.6968 26.999 17.8483 26.999 18C26.999 18.1696 26.9992 18.3391 26.9995 18.5084C27.0011 19.5792 27.0027 20.6438 26.9405 21.715C26.8707 23.156 26.5442 24.4326 25.4883 25.4886C24.4346 26.5423 23.1557 26.871 21.7148 26.9408C20.6256 27.0021 19.5434 27.0009 18.4544 26.9997C18.303 26.9995 18.1515 26.9993 17.9998 26.9993C17.8485 26.9993 17.6972 26.9995 17.5461 26.9997C16.4586 27.0009 15.3761 27.0021 14.2849 26.9408C12.8439 26.871 11.5674 26.5445 10.5114 25.4886C9.45772 24.4348 9.129 23.156 9.05921 21.715C8.99793 20.6258 8.99913 19.5418 9.00033 18.4538C9.0005 18.3026 9.00067 18.1514 9.00067 18C9.00067 17.8486 9.0005 17.6974 9.00033 17.5462C8.99913 16.4587 8.99793 15.3762 9.05921 14.285C9.129 12.844 9.45547 11.5674 10.5114 10.5114C11.5651 9.45773 12.8439 9.12901 14.2849 9.05921C15.374 8.99793 16.4563 8.99913 17.5452 9.00033C17.6966 9.0005 17.8481 9.00067 17.9998 9.00067C18.1512 9.00067 18.3025 9.0005 18.4536 9.00033C19.5411 8.99913 20.6236 8.99793 21.7148 9.05921C23.1557 9.12901 24.4323 9.45548 25.4883 10.5114C26.5419 11.5652 26.8707 12.844 26.9405 14.285C27.0017 15.3742 27.0005 16.4564 26.9993 17.5454Z" fill="#9AD3F9"/>
</svg>
