<svg width="183" height="41" viewBox="0 0 183 41" fill="none" xmlns="http://www.w3.org/2000/svg">
<path fill-rule="evenodd" clip-rule="evenodd" d="M39.1742 0.028626C38.2636 0.20403 37.6891 1.00213 37.6123 2.19849C37.5644 2.94363 37.7187 3.62024 38.1303 4.47075L38.4536 5.13869L37.8575 5.73274C37.3679 6.2208 37.212 6.43091 36.9842 6.9103C36.6028 7.71246 36.4811 8.33701 36.5213 9.28435C36.5728 10.4991 36.9455 11.4308 37.6374 12.0744C38.1253 12.5281 38.4753 12.659 39.1983 12.6579C39.742 12.6572 39.8639 12.6327 40.2597 12.4442C40.7368 12.217 41.2623 11.7341 41.5529 11.256C41.6468 11.1016 41.7396 10.9745 41.7592 10.9734C41.7788 10.9724 41.9631 11.2807 42.1687 11.6584L42.5425 12.3453L43.0402 12.3471L43.5379 12.3489L43.3682 12.0562C43.2749 11.8952 42.9705 11.3659 42.6919 10.8798L42.1852 9.99595L42.3742 9.39915C42.5447 8.8604 42.6274 8.36091 42.7439 7.16669L42.7826 6.7707H42.4066H42.0307L42.0285 7.13225C42.0244 7.84971 41.8136 9.04331 41.6912 9.04331C41.6665 9.04331 41.193 8.25107 40.639 7.28273L39.6316 5.52214L40.1883 4.93705C40.8441 4.24769 41.1026 3.75206 41.2189 2.96029C41.4759 1.2108 40.4765 -0.222256 39.1742 0.028626ZM2.04198 0.40216C1.5755 0.534316 1.298 0.707103 0.977633 1.06487C0.672967 1.40521 0.435186 1.92515 0.335542 2.469C0.243405 2.97179 0.234737 9.98162 0.325645 10.4652C0.510875 11.4508 0.973538 12.117 1.70886 12.457C2.09051 12.6334 2.21554 12.6559 2.82133 12.6573C3.67601 12.6592 4.08578 12.5265 4.56346 12.0932C5.23579 11.4833 5.44893 10.8037 5.44893 9.26988V8.21691H5.08154H4.71422L4.68099 9.336C4.64345 10.5981 4.56442 10.9203 4.18188 11.3714C3.86998 11.739 3.44253 11.9034 2.82133 11.8944C2.06608 11.8836 1.5927 11.57 1.27233 10.8683L1.11509 10.524V6.48828V2.45261L1.35396 1.98018C1.65351 1.38778 2.01687 1.13105 2.6363 1.07437C3.53071 0.992557 4.20911 1.38131 4.49876 2.1416C4.61799 2.45453 4.65567 2.72986 4.68222 3.4823L4.71566 4.42922H5.0896H5.46354L5.43187 3.379C5.39037 2.00056 5.26684 1.61739 4.66959 1.01487C4.38171 0.724527 4.15001 0.559246 3.91332 0.475297C3.43775 0.306711 2.50751 0.270349 2.04198 0.40216ZM28.4392 0.424542C27.414 0.767155 26.888 1.54935 26.7417 2.94859C26.6583 3.74641 26.6573 9.23338 26.7404 10.0307C26.8426 11.0106 27.0319 11.482 27.5216 11.9763C28.0663 12.526 28.4285 12.6594 29.3704 12.6573C29.9762 12.6559 30.1012 12.6334 30.4828 12.457C31.2182 12.117 31.6808 11.4508 31.8661 10.4652C31.9011 10.2789 31.9297 9.69672 31.9297 9.17168V8.21691H31.5645H31.1994L31.1617 9.30156C31.132 10.1572 31.0948 10.4634 30.9859 10.7518C30.6781 11.5667 30.2014 11.8978 29.3363 11.8978C28.4539 11.8978 27.906 11.4964 27.6635 10.6724C27.5125 10.1594 27.5125 2.83103 27.6635 2.31811C27.8004 1.85277 28.1123 1.43599 28.4652 1.24681C28.8748 1.02727 29.7902 1.02272 30.1894 1.23827C30.8987 1.62124 31.1713 2.34531 31.1769 3.86107L31.179 4.42922H31.5544H31.9297V3.64662C31.9297 3.21627 31.9011 2.71161 31.8661 2.52526C31.6805 1.53791 31.2161 0.869629 30.4856 0.538861C29.9166 0.281161 29.0182 0.230957 28.4392 0.424542ZM86.7188 0.395136C85.5463 0.734994 84.9586 1.68646 84.95 3.25849C84.9458 4.0225 85.1029 4.58741 85.4779 5.15749C85.7851 5.62455 86.1538 5.9642 87.3287 6.86278C88.8814 8.05018 89.2049 8.51834 89.2479 9.64046C89.3041 11.1048 88.7014 11.892 87.519 11.8986C86.8968 11.9021 86.4675 11.7357 86.1584 11.3714C85.8318 10.9864 85.7095 10.5781 85.6622 9.71476L85.6216 8.97444H85.2565H84.8913V9.58488C84.8913 10.7632 85.1525 11.5156 85.7543 12.0705C86.2512 12.5288 86.648 12.6601 87.519 12.6544C88.3684 12.6488 88.8229 12.4891 89.2779 12.0365C89.8605 11.4569 90.1067 10.6741 90.0677 9.52517C90.0444 8.83857 90.0263 8.75868 89.7807 8.25706C89.4471 7.5761 88.966 7.08095 87.7518 6.16915C86.7451 5.4132 86.2751 4.9385 85.9983 4.39789C85.7553 3.92333 85.7002 2.85011 85.8878 2.24669C86.1856 1.28889 87.1062 0.846421 88.1503 1.15928C88.4117 1.23765 88.5691 1.34405 88.7782 1.58371C89.092 1.94347 89.2258 2.33622 89.2958 3.10354L89.3414 3.60282H89.7098H90.0783L90.0773 3.1724C90.0743 1.90139 89.4843 0.845733 88.5798 0.49334C88.1078 0.309534 87.1827 0.260708 86.7188 0.395136ZM7.35992 6.59853V12.6933H9.6804H12.0009V12.3145V11.9357H10.0899H8.17891V6.21977V0.503808H7.76941H7.35992V6.59853ZM13.7754 6.59853V12.6933H14.1849H14.5944V6.59853V0.503808H14.1849H13.7754V6.59853ZM16.5736 6.59853V12.6933H16.949H17.3243V7.34457C17.3243 4.40285 17.3398 2.01151 17.3586 2.03052C17.3774 2.04953 18.1622 4.2782 19.1024 6.98316C20.0427 9.68811 20.8759 12.0795 20.9541 12.2973L21.0964 12.6933H21.5308H21.9653V6.59853V0.503808H21.5903H21.2155L21.1979 5.52807L21.1804 10.5524L19.4124 5.52807L17.6443 0.503808H17.1089H16.5736V6.59853ZM23.9445 6.59853V12.6933H24.354H24.7635V6.59853V0.503808H24.354H23.9445V6.59853ZM47.7636 6.59316V12.6933H48.1731H48.5826V10.1796V7.66597H49.6603C50.9171 7.66597 51.3818 7.57266 51.8927 7.21779C52.2785 6.94982 52.4827 6.67594 52.6953 6.14112C52.8247 5.81565 52.8451 5.60609 52.8684 4.36408C52.906 2.36163 52.7479 1.7233 52.0595 1.09882C51.4997 0.590925 51.3178 0.551051 49.4187 0.520061L47.7636 0.493065V6.59316ZM54.7251 6.59853V12.6933H55.1346H55.5441V6.59853V0.503808H55.1346H54.7251V6.59853ZM57.5233 6.59853V12.6933H59.8097H62.096V12.3145V11.9357H60.2192H58.3423V6.21977V0.503808H57.9328H57.5233V6.59853ZM65.069 6.51307C64.3581 9.81744 63.7636 12.5599 63.7479 12.6072C63.7274 12.6692 63.8259 12.6933 64.1008 12.6933C64.4401 12.6933 64.4861 12.6762 64.5181 12.5383C64.5378 12.4531 64.6713 11.8565 64.8146 11.2126L65.0753 10.0419L66.9552 10.0236L68.8352 10.0053L68.8781 10.2302C68.9017 10.3538 69.0333 10.9587 69.1705 11.5742L69.42 12.6933H69.8274H70.2348L70.1961 12.5039C70.1749 12.3997 69.5722 9.66766 68.8567 6.43256C68.1413 3.19754 67.556 0.540101 67.556 0.527223C67.556 0.514345 67.2873 0.504084 66.9588 0.504428L66.3616 0.504979L65.069 6.51307ZM70.9685 0.882576V1.26134H72.1969H73.4254V6.9773V12.6933H73.8349H74.2444V6.9773V1.26134H75.4729H76.7014V0.882576V0.503808H73.8349H70.9685V0.882576ZM78.2711 6.59853V12.6933H80.6599H83.0486V12.3145V11.9357H81.0694H79.0901V9.42332V6.91091L80.7452 6.89246L82.4002 6.874L82.4209 6.51245L82.4415 6.1509H80.7658H79.0901V3.70612V1.26134H81.0694H83.0486V0.882576V0.503808H80.6599H78.2711V6.59853ZM39.9149 1.11073C40.0088 1.1785 40.17 1.40059 40.2732 1.6043C40.4235 1.90077 40.4609 2.06791 40.4609 2.44186C40.4609 3.15808 40.2706 3.58746 39.6753 4.21395L39.1805 4.73472L38.8707 4.11223C38.4528 3.27274 38.3245 2.80197 38.3567 2.22679C38.3771 1.862 38.4235 1.70044 38.5732 1.47215C38.9088 0.960465 39.4901 0.803861 39.9149 1.11073ZM51.2417 1.46795C51.9112 1.84651 52.0633 2.33767 52.0633 4.12091C52.0633 5.5636 52.0046 5.91028 51.6897 6.32679C51.3348 6.79632 51.0848 6.87015 49.7599 6.89645L48.5826 6.9198V4.08489V1.24998L49.7599 1.27285C50.8671 1.2944 50.9554 1.30604 51.2417 1.46795ZM67.8195 5.40507C68.2751 7.43795 68.648 9.1347 68.648 9.17554C68.648 9.22684 68.1155 9.24991 66.9344 9.24991H65.2207L65.257 9.09496C65.2769 9.0097 65.6553 7.29017 66.0978 5.27367C66.5403 3.25711 66.9223 1.63013 66.9466 1.65816C66.971 1.68612 67.3638 3.37225 67.8195 5.40507ZM40.1681 8.1395L41.2828 10.0937L41.108 10.3946C40.8685 10.807 40.2792 11.3975 39.9491 11.5561C39.7989 11.6281 39.4918 11.6988 39.2666 11.713C38.9209 11.7349 38.7986 11.7087 38.4822 11.5446C37.783 11.1823 37.3964 10.4296 37.3388 9.31871C37.2791 8.16719 37.6333 7.21951 38.433 6.39193C38.8675 5.94216 38.9039 5.91909 38.976 6.0476C39.0186 6.12335 39.555 7.06469 40.1681 8.1395ZM0.0228224 16.9801C0.00241577 17.0654 -0.00584242 22.481 0.004395 29.0147L0.0230954 40.8943H19.4401H38.8571L38.8752 38.9708C38.8893 37.4778 38.8741 37.0348 38.807 36.9919C38.7595 36.9614 30.912 36.9361 21.3681 36.9355L4.01569 36.9344V28.8771V20.8198L21.4364 20.8025L38.8571 20.7851V18.8224V16.8597L19.4584 16.8424L0.0598819 16.8251L0.0228224 16.9801ZM50.5934 16.9112C50.5756 16.9587 50.5688 22.3742 50.5784 28.9459L50.596 40.8943H70.013H89.4299L89.4481 39.0088C89.461 37.6754 89.4435 37.0958 89.3886 37.0289C89.3231 36.9493 86.5794 36.9344 71.9497 36.9344H54.5886V33.9044V30.8744L72.0093 30.8571L89.4299 30.8397L89.4481 28.9543C89.461 27.6208 89.4435 27.0412 89.3886 26.9743C89.3231 26.8947 86.5794 26.8799 71.9497 26.8799H54.5886V23.8498V20.8198L72.0093 20.8025L89.4299 20.7851V18.8224V16.8597L70.0279 16.8424C54.5421 16.8285 50.6193 16.8424 50.5934 16.9112ZM101.18 16.8712C101.155 16.8964 101.135 22.298 101.135 28.8747C101.135 38.0832 101.154 40.8513 101.217 40.9149C101.311 41.01 104.862 41.0346 105.007 40.9411C105.074 40.8988 105.096 39.7839 105.11 35.8976L105.127 30.9086L122.565 30.8741L140.003 30.8397L140.021 28.9543C140.034 27.6208 140.016 27.0412 139.961 26.9743C139.896 26.8947 137.147 26.8799 122.488 26.8799H105.092L105.11 23.8669L105.127 20.854L122.565 20.8196L140.003 20.7851L140.022 18.9602C140.033 17.9564 140.024 17.0655 140.004 16.9802L139.966 16.8253H120.596C109.942 16.8253 101.205 16.8459 101.18 16.8712ZM144.163 16.9122C144.145 16.9602 144.138 17.8512 144.148 18.8923L144.166 20.7851L152.885 20.8026L161.603 20.8201L161.621 30.8572L161.638 40.8943H163.583H165.528L165.562 30.8741L165.596 20.854L174.298 20.8196L183 20.7851V18.8224V16.8597L163.598 16.8424C147.997 16.8284 144.189 16.8421 144.163 16.9122ZM42.7204 37.0289C42.6655 37.0958 42.648 37.6754 42.6609 39.0088L42.679 40.8943H44.6583H46.6375L46.6557 39.0088C46.6686 37.6754 46.6511 37.0958 46.5961 37.0289C46.5338 36.9531 46.1514 36.9344 44.6583 36.9344C43.1651 36.9344 42.7828 36.9531 42.7204 37.0289ZM93.302 36.9919C93.2349 37.0348 93.2196 37.4778 93.2338 38.9708L93.2519 40.8943L95.2141 40.9125L97.1763 40.9309V38.9744C97.1763 37.254 97.1632 37.013 97.0683 36.9762C96.9061 36.9134 93.4017 36.928 93.302 36.9919ZM108.923 37.0279C108.867 37.0961 108.85 37.6632 108.863 39.0088L108.881 40.8943L110.821 40.9126C111.946 40.9232 112.778 40.9043 112.801 40.8678C112.822 40.833 112.824 39.9415 112.805 38.8867L112.771 36.9689L110.887 36.9505C109.346 36.9356 108.988 36.9497 108.923 37.0279ZM169.534 37.0171C169.44 37.1128 169.416 40.6955 169.509 40.8437C169.552 40.9114 169.998 40.9268 171.505 40.9126L173.445 40.8943L173.463 39.0088C173.476 37.6754 173.459 37.0958 173.404 37.0289C173.298 36.9002 169.661 36.889 169.534 37.0171Z" fill="#9AD3F9"/>
</svg>
