<svg width="12" height="20" viewBox="0 0 12 20" fill="none" xmlns="http://www.w3.org/2000/svg">
<path d="M9.69231 0H2.30769C1.69565 0 1.10868 0.239447 0.675907 0.665666C0.243131 1.09189 0 1.66996 0 2.27273V17.7273C0 18.33 0.243131 18.9081 0.675907 19.3343C1.10868 19.7606 1.69565 20 2.30769 20H9.69231C10.3043 20 10.8913 19.7606 11.3241 19.3343C11.7569 18.9081 12 18.33 12 17.7273V2.27273C12 1.66996 11.7569 1.09189 11.3241 0.665666C10.8913 0.239447 10.3043 0 9.69231 0ZM6 19.0909C5.23385 19.0909 4.61538 18.4818 4.61538 17.7273C4.61538 16.9727 5.23385 16.3636 6 16.3636C6.76615 16.3636 7.38462 16.9727 7.38462 17.7273C7.38462 18.4818 6.76615 19.0909 6 19.0909ZM10.1538 15.4545H1.84615V2.72727H10.1538V15.4545Z" fill="#68AAD7"/>
</svg>
