<svg width="20" height="19" viewBox="0 0 20 19" fill="none" xmlns="http://www.w3.org/2000/svg">
<path d="M18.5194 0.519418C18.2724 0.537388 18.0299 0.595334 17.8015 0.690995H17.7984C17.5791 0.777938 16.5366 1.2165 14.9516 1.88127L9.27185 4.27336C5.19629 5.98914 1.18999 7.67875 1.18999 7.67875L1.23769 7.66029C1.23769 7.66029 0.961475 7.75108 0.672947 7.94882C0.494697 8.06224 0.341312 8.21065 0.222074 8.38507C0.0805034 8.59281 -0.0333689 8.91058 0.00894855 9.23911C0.0781952 9.79463 0.438278 10.1278 0.696799 10.3117C0.958397 10.4979 1.20769 10.5848 1.20769 10.5848H1.21384L4.97086 11.8505C5.13936 12.3914 6.11574 15.6013 6.35041 16.3407C6.4889 16.7824 6.62355 17.0586 6.79205 17.2694C6.8736 17.3771 6.96901 17.4672 7.08365 17.5395C7.14325 17.5741 7.2068 17.6015 7.27292 17.621L7.23445 17.6118C7.246 17.6149 7.25523 17.6241 7.26369 17.6272C7.29447 17.6357 7.31524 17.6387 7.35448 17.6449C7.94923 17.8249 8.42704 17.4556 8.42704 17.4556L8.45397 17.4341L10.6722 15.4144L14.3899 18.2666L14.4746 18.3027C15.2494 18.6428 16.0342 18.4535 16.4489 18.1196C16.8667 17.7834 17.029 17.3533 17.029 17.3533L17.0559 17.284L19.9289 2.56604C20.0105 2.20288 20.0312 1.8628 19.9412 1.53273C19.8484 1.19867 19.6341 0.911359 19.3403 0.727157C19.0937 0.577211 18.8076 0.504836 18.5194 0.519418ZM18.4416 2.0967C18.4386 2.14518 18.4478 2.13979 18.4263 2.23289V2.24135L15.5802 16.8062C15.5679 16.827 15.5471 16.8724 15.4902 16.9178C15.4302 16.9655 15.3825 16.9955 15.1324 16.8963L10.5852 13.4101L7.83844 15.9137L8.41549 12.2283L15.8449 5.30359C16.1511 5.01891 16.0488 4.9589 16.0488 4.9589C16.0703 4.60959 15.5864 4.85657 15.5864 4.85657L6.21807 10.6602L6.21499 10.6448L1.72473 9.13293V9.12986L1.71319 9.12755C1.72106 9.12493 1.72877 9.12185 1.73627 9.11832L1.76089 9.10601L1.78474 9.09754C1.78474 9.09754 5.79412 7.40792 9.86968 5.69214C11.9101 4.83272 13.966 3.96713 15.5471 3.29929C16.4848 2.90458 17.4235 2.51218 18.3632 2.12209C18.4263 2.09747 18.3962 2.09747 18.4416 2.09747V2.0967Z" fill="#68AAD7"/>
</svg>
