<svg width="20" height="13" viewBox="0 0 20 13" fill="none" xmlns="http://www.w3.org/2000/svg">
<path fill-rule="evenodd" clip-rule="evenodd" d="M19.5413 1.45698C19.6796 1.00199 19.5413 0.666992 18.8788 0.666992H16.6913C16.1347 0.666992 15.878 0.956153 15.7388 1.27531C15.7388 1.27531 14.6264 3.93859 13.0506 5.66855C12.5406 6.17021 12.3089 6.32937 12.0306 6.32937C11.8914 6.32937 11.6823 6.17021 11.6823 5.71439V1.45698C11.6823 0.91032 11.5289 0.666992 11.0656 0.666992H7.62567C7.27818 0.666992 7.06902 0.92032 7.06902 1.16115C7.06902 1.67864 7.85734 1.79864 7.93817 3.25527V6.42021C7.93817 7.11436 7.81067 7.24019 7.53234 7.24019C6.79069 7.24019 4.98656 4.56441 3.91575 1.50281C3.70826 0.906987 3.49826 0.666992 2.93911 0.666992H0.749984C0.124997 0.666992 0 0.956153 0 1.27531C0 1.84363 0.741651 4.66691 3.45409 8.401C5.26239 10.9509 7.80817 12.3334 10.1273 12.3334C11.5181 12.3334 11.6898 12.0268 11.6898 11.4976V9.57014C11.6898 8.95599 11.8214 8.83349 12.2622 8.83349C12.5872 8.83349 13.1431 8.99348 14.4414 10.2226C15.9247 11.6801 16.1688 12.3334 17.0038 12.3334H19.1913C19.8163 12.3334 20.1296 12.0268 19.9496 11.4201C19.7513 10.8168 19.0429 9.94096 18.1038 8.90182C17.5938 8.31016 16.8288 7.67268 16.5963 7.35352C16.2722 6.94436 16.3647 6.76186 16.5963 6.39771C16.5963 6.39771 19.2629 2.70945 19.5404 1.45698H19.5413Z" fill="#68AAD7"/>
</svg>
