<svg width="1445" height="462" viewBox="0 0 1445 462" fill="none" xmlns="http://www.w3.org/2000/svg">
<path d="M1406.4 278.857C1417.17 282.342 1433.13 296.549 1439.53 304.228C1395.84 303.256 1305.92 298.687 1295.69 288.189C1282.91 275.065 1243.68 246.485 1241.36 244.444V235.695C1241.36 234.237 1240.54 231.321 1237.29 231.321C1234.04 231.321 1217.92 231.126 1210.27 231.029C1209.73 230.98 1208.93 231.098 1208.26 231.612C891.724 230.785 255.747 229.334 244.124 230.147C268.332 228.528 294.858 227.1 319.963 225.92C345.376 224.725 369.333 223.783 387.956 223.155C398.348 224.546 585.64 219.947 677.944 217.906C819.936 215.864 1110.89 210.615 1145.76 210.615C1187.62 210.615 1272.45 215.281 1308.19 220.822C1343.93 226.363 1374.73 252.901 1382.87 261.65C1386.55 265.616 1388.39 273.024 1406.4 278.857Z" fill="#DDF1FF"/>
<path d="M1237.58 306.27C1237.39 308.408 1235.66 312.627 1230.32 312.394C1224.97 312.161 1210.07 312.297 1203.29 312.394C1201.65 311.519 1198.53 309.652 1199.23 306.853C1196.67 302.42 1203.39 256.79 1207.07 234.529C1207.07 233.019 1207.6 232.122 1208.26 231.612C1208.93 231.098 1209.73 230.98 1210.27 231.029C1217.92 231.126 1234.04 231.321 1237.29 231.321C1240.54 231.321 1241.36 234.237 1241.36 235.695V244.444C1239.23 261.942 1235.49 298.804 1237.58 306.27Z" fill="#C4E4FD"/>
<path d="M1439.53 304.228L1237.58 306.27C1235.49 298.804 1239.23 261.942 1241.36 244.444C1243.68 246.485 1282.91 275.065 1295.69 288.189C1305.92 298.687 1395.84 303.256 1439.53 304.228Z" fill="#C4E4FD"/>
<path d="M528.182 384.718C498.835 383.843 366.335 365.762 311.127 351.181C286.668 344.72 233.144 328.15 184.848 312.685H310.837C310.837 316.652 313.742 317.838 315.195 317.935C321.103 318.032 334.024 318.226 338.441 318.226C342.857 318.226 344.446 314.824 344.252 312.685L389 313.56L484.016 322.601L641.214 337.182L788.823 351.472C783.244 357.072 783.206 375.969 783.884 384.718C783.339 384.809 760.863 384.923 729.375 385.011C715.791 385.05 700.529 385.083 684.627 385.108C619.357 385.21 543.301 385.169 528.182 384.718Z" fill="#00548F"/>
<path d="M305.725 168.329C337.397 204.782 379.239 221.989 387.956 223.155C369.333 223.783 345.376 224.725 319.963 225.92C317.638 226.028 256.909 223.155 204.026 186.41C161.719 157.013 122.279 49.9269 107.847 0.0582672H162.765C180.199 -1.69161 203.799 36.5119 208.093 42.053C210.127 44.6776 280.055 138.784 305.725 168.329Z" fill="#F00808"/>
<path d="M127.315 96.8793C125.688 90.6747 105.813 0.0582672 107.847 0.0582672C122.279 49.9269 161.719 157.013 204.026 186.41C256.909 223.155 317.638 226.028 319.963 225.92C294.858 227.1 268.332 228.528 244.124 230.147C201.833 232.974 166.616 236.383 158.406 240.07C148.042 194.478 128.768 102.42 127.315 96.8793Z" fill="#D10505"/>
<path d="M87.2166 270.691C84.6014 270.691 -2.27878 256.693 0.0457764 256.693C0.772858 256.693 8.74891 256.75 19.6704 256.73C72.6755 256.913 148.772 257.721 183.804 258.151C201.392 257.956 237.557 258.909 241.509 264.275C246.449 270.982 240.637 273.899 224.365 279.44C211.348 283.872 127.509 275.454 87.2166 270.691Z" fill="#D10505"/>
<path d="M981.589 409.507C974.615 404.841 972.291 390.065 972 383.26L1094.91 381.141C1094.14 392.735 1095.9 417.147 1109.15 422.047C1100.72 422.922 1047.84 420.589 1031.86 420.297C1015.88 420.005 990.306 415.339 981.589 409.507Z" fill="#F00808"/>
<path d="M1124.26 380.635C1126.87 396.675 1117.58 421.172 1109.15 422.047C1095.9 417.147 1094.14 392.735 1094.91 381.141L1099.27 381.066C1099.85 394.143 1102.99 419.422 1110.89 415.922C1118.8 412.423 1120.97 390.976 1121.06 380.69L1124.26 380.635Z" fill="#DDF1FF"/>
<path d="M1121.06 380.69C1120.97 390.976 1118.8 412.423 1110.89 415.922C1102.99 419.422 1099.85 394.143 1099.27 381.066L1105.66 380.956C1105.76 387.168 1106.94 399.65 1110.89 399.883C1114.84 400.116 1115.25 387.255 1114.96 380.796L1121.06 380.69Z" fill="#161616"/>
<path d="M1114.96 380.796C1115.25 387.255 1114.84 400.116 1110.89 399.883C1106.94 399.65 1105.76 387.168 1105.66 380.956L1114.96 380.796Z" fill="#3E3E3E"/>
<path d="M802.308 341.848C808.816 342.315 882.505 337.571 918.535 335.141C914.636 336.445 911.173 342.309 908.694 350.514C905.845 359.945 904.297 372.469 904.883 384.718H799.693C793.881 385.593 781.387 347.681 802.308 341.848Z" fill="#F00808"/>
<path d="M790.685 408.923C784.198 401.456 783.884 384.718 783.884 384.718C783.206 375.969 783.244 357.072 788.823 351.472C790.954 348.07 795.799 341.382 802.308 341.848C781.387 347.681 793.881 385.593 799.693 384.718H904.883C905.611 399.929 909.63 414.716 918.535 422.63C902.961 423.173 882.637 422.988 862.746 421.956C858.112 421.716 853.501 421.429 848.98 421.095C845.968 420.873 842.995 420.629 840.082 420.364C835.346 419.933 830.766 419.445 826.425 418.898C808.424 416.631 794.532 413.352 790.685 408.923Z" fill="#D10505"/>
<path d="M821.549 438.67C821.549 445.416 826.63 450.975 833.171 451.719C833.662 451.775 834.162 451.804 834.668 451.804C841.914 451.804 847.788 445.923 847.788 438.67C847.788 431.416 841.914 425.535 834.668 425.535C827.423 425.535 821.549 431.416 821.549 438.67Z" fill="#DDF1FF"/>
<path d="M828.109 438.67C828.109 442.296 831.046 445.237 834.668 445.237C838.291 445.237 841.228 442.296 841.228 438.67C841.228 435.043 838.291 432.103 834.668 432.103C831.046 432.103 828.109 435.043 828.109 438.67Z" fill="#3E3E3E"/>
<path d="M688.635 438.67C688.635 440.031 689.049 441.296 689.758 442.345C690.938 444.09 692.933 445.237 695.195 445.237C698.818 445.237 701.755 442.296 701.755 438.67C701.755 435.043 698.818 432.103 695.195 432.103C692.933 432.103 690.938 433.249 689.758 434.994C689.049 436.043 688.635 437.308 688.635 438.67Z" fill="#3E3E3E"/>
<path d="M1253.52 430.715C1253.54 431.044 1253.55 431.363 1253.56 431.671V438.492C1253.42 438.249 1253.28 438.009 1253.13 437.774C1252.41 436.182 1251.22 434.962 1249.81 434.04C1248.51 432.973 1247.03 432.111 1245.43 431.506C1247.14 430.858 1249 430.504 1250.95 430.504C1251.82 430.504 1252.68 430.576 1253.52 430.715Z" fill="#00548F"/>
<path d="M1236.71 405.132C1235.26 400.758 1220.44 378.886 1219.27 378.886C1221.37 378.851 1256.37 377.51 1273.61 376.844C1270.71 377.427 1253.85 404.549 1253.56 405.132C1253.34 405.582 1253.19 421.801 1253.52 430.715C1252.68 430.576 1251.82 430.504 1250.95 430.504C1249 430.504 1247.14 430.858 1245.43 431.506C1243.71 430.858 1241.85 430.504 1239.91 430.504C1239.12 430.504 1238.36 430.561 1237.61 430.672C1237.78 422.957 1237.82 408.481 1236.71 405.132Z" fill="#00548F"/>
<path d="M1235.47 448.864C1235.88 451.324 1236.86 453.591 1238.26 455.524C1233.63 454.995 1230.03 451.046 1230.03 446.252C1230.03 441.458 1233.63 437.509 1238.26 436.98C1236.86 438.913 1235.88 441.18 1235.47 443.64C1234.97 444.386 1234.67 445.284 1234.67 446.252C1234.67 447.22 1234.97 448.118 1235.47 448.864Z" fill="#DDF1FF"/>
<path d="M1248.62 446.252C1248.62 451.406 1244.46 455.584 1239.32 455.584C1238.97 455.584 1238.61 455.564 1238.26 455.524C1236.86 453.591 1235.88 451.324 1235.47 448.864C1236.31 450.103 1237.72 450.918 1239.32 450.918C1241.89 450.918 1243.97 448.829 1243.97 446.252C1243.97 443.675 1241.89 441.586 1239.32 441.586C1237.72 441.586 1236.31 442.401 1235.47 443.64C1235.88 441.18 1236.86 438.913 1238.26 436.98C1238.61 436.94 1238.97 436.92 1239.32 436.92C1244.46 436.92 1248.62 441.098 1248.62 446.252Z" fill="#DDF1FF"/>
<path d="M1243.97 446.252C1243.97 448.829 1241.89 450.918 1239.32 450.918C1237.72 450.918 1236.31 450.103 1235.47 448.864C1235.33 448.014 1235.26 447.142 1235.26 446.252C1235.26 445.362 1235.33 444.49 1235.47 443.64C1236.31 442.401 1237.72 441.586 1239.32 441.586C1241.89 441.586 1243.97 443.675 1243.97 446.252Z" fill="#3E3E3E"/>
<path fill-rule="evenodd" clip-rule="evenodd" d="M1245.43 460.998C1243.71 461.646 1241.85 462 1239.91 462C1231.24 462 1224.21 454.949 1224.21 446.252C1224.21 438.339 1230.03 431.789 1237.61 430.672C1238.36 430.561 1239.12 430.504 1239.91 430.504C1241.85 430.504 1243.71 430.858 1245.43 431.506C1247.03 432.111 1248.51 432.973 1249.81 434.04C1251.22 434.962 1252.41 436.182 1253.13 437.774C1253.28 438.009 1253.42 438.249 1253.56 438.492C1254.86 440.782 1255.6 443.431 1255.6 446.252C1255.6 452.999 1251.37 458.756 1245.43 460.998ZM1235.47 448.864C1234.97 448.118 1234.67 447.22 1234.67 446.252C1234.67 445.284 1234.97 444.386 1235.47 443.64C1235.33 444.49 1235.26 445.362 1235.26 446.252C1235.26 447.142 1235.33 448.014 1235.47 448.864ZM1238.26 436.98C1233.63 437.509 1230.03 441.458 1230.03 446.252C1230.03 451.046 1233.63 454.995 1238.26 455.524C1238.61 455.564 1238.97 455.584 1239.32 455.584C1244.46 455.584 1248.62 451.406 1248.62 446.252C1248.62 441.098 1244.46 436.92 1239.32 436.92C1238.97 436.92 1238.61 436.94 1238.26 436.98Z" fill="#3E3E3E"/>
<path d="M1266.64 446.252C1266.64 454.949 1259.61 462 1250.95 462C1249 462 1247.14 461.646 1245.43 460.998C1251.37 458.756 1255.6 452.999 1255.6 446.252C1255.6 443.431 1254.86 440.782 1253.56 438.492V431.671C1253.55 431.363 1253.54 431.044 1253.52 430.715C1260.96 431.948 1266.64 438.435 1266.64 446.252Z" fill="#161616"/>
<path d="M848.98 421.095C853.501 421.429 858.112 421.716 862.746 421.956C871.347 423.983 873.304 433.943 873.207 438.67C873.207 450.91 863.295 460.833 851.068 460.833C848.326 460.833 845.701 460.335 843.278 459.423C851.662 456.267 857.627 448.166 857.627 438.67C857.627 431.512 854.239 425.147 848.98 421.095Z" fill="#161616"/>
<path d="M835.488 460.833C823.261 460.833 813.349 450.91 813.349 438.67C813.156 432.682 815.5 420.346 826.425 418.898C830.766 419.445 835.346 419.933 840.082 420.364C842.995 420.629 845.968 420.873 848.98 421.095C854.239 425.147 857.627 431.512 857.627 438.67C857.627 448.166 851.662 456.267 843.278 459.423C839.201 457.888 835.696 455.184 833.171 451.719C833.662 451.775 834.162 451.804 834.668 451.804C841.914 451.804 847.788 445.923 847.788 438.67C847.788 431.416 841.914 425.535 834.668 425.535C827.423 425.535 821.549 431.416 821.549 438.67C821.549 445.416 826.63 450.975 833.171 451.719C835.696 455.184 839.201 457.888 843.278 459.423C840.855 460.335 838.23 460.833 835.488 460.833Z" fill="#3E3E3E"/>
<path d="M713.103 416.556C712.604 416.523 712.101 416.506 711.594 416.506C708.92 416.506 706.356 416.981 703.982 417.851C703.923 417.872 703.864 417.894 703.805 417.917C702.059 417.259 700.208 416.817 698.284 416.621V405.715C694.313 398.845 686.022 385.106 684.627 385.108C700.529 385.083 715.791 385.05 729.375 385.011C724.145 391.329 713.568 404.316 713.103 405.715V416.556Z" fill="#00548F"/>
<path d="M703.805 417.917C703.864 417.894 703.923 417.872 703.982 417.851C706.356 416.981 708.92 416.506 711.594 416.506C712.101 416.506 712.604 416.523 713.103 416.556V424.577C712.711 424.101 712.3 423.642 711.871 423.201C710.826 422.106 709.224 420.649 706.891 419.36C705.907 418.803 704.876 418.32 703.805 417.917Z" fill="#00548F"/>
<path d="M733.733 438.67C733.733 450.91 723.821 460.833 711.594 460.833C708.853 460.833 706.228 460.335 703.805 459.423C712.189 456.267 718.154 448.166 718.154 438.67C718.154 433.317 716.259 428.407 713.103 424.577V416.556C724.626 417.333 733.733 426.936 733.733 438.67Z" fill="#161616"/>
<path d="M708.315 438.67C708.315 445.923 702.441 451.804 695.195 451.804C694.689 451.804 694.189 451.775 693.698 451.719C691.715 448.998 690.336 445.808 689.758 442.345C690.938 444.09 692.933 445.237 695.195 445.237C698.818 445.237 701.755 442.296 701.755 438.67C701.755 435.043 698.818 432.103 695.195 432.103C692.933 432.103 690.938 433.249 689.758 434.994C690.336 431.532 691.714 428.341 693.698 425.62C694.189 425.564 694.689 425.535 695.195 425.535C702.441 425.535 708.315 431.416 708.315 438.67Z" fill="#DDF1FF"/>
<path fill-rule="evenodd" clip-rule="evenodd" d="M696.015 460.833C683.788 460.833 673.876 450.91 673.876 438.67C673.876 426.429 683.788 416.506 696.015 416.506C696.781 416.506 697.538 416.545 698.284 416.621C700.208 416.817 702.059 417.259 703.805 417.917C704.876 418.32 705.907 418.803 706.891 419.36C708.731 420.401 710.407 421.697 711.871 423.201C715.759 427.195 718.154 432.652 718.154 438.67C718.154 448.166 712.189 456.267 703.805 459.423C701.382 460.335 698.757 460.833 696.015 460.833ZM695.195 451.804C694.689 451.804 694.189 451.775 693.698 451.719C687.157 450.975 682.076 445.416 682.076 438.67C682.076 431.923 687.157 426.364 693.698 425.62C694.189 425.564 694.689 425.535 695.195 425.535C702.441 425.535 708.315 431.416 708.315 438.67C708.315 445.923 702.441 451.804 695.195 451.804ZM689.758 434.994C690.938 433.249 692.933 432.103 695.195 432.103C698.818 432.103 701.755 435.043 701.755 438.67C701.755 442.296 698.818 445.237 695.195 445.237C692.933 445.237 690.938 444.09 689.758 442.345C689.049 441.296 688.635 440.031 688.635 438.67C688.635 437.308 689.049 436.043 689.758 434.994Z" fill="#3E3E3E"/>
<path d="M693.698 425.62C691.714 428.341 690.336 431.532 689.758 434.994C689.049 436.043 688.635 437.308 688.635 438.67C688.635 440.031 689.049 441.296 689.758 442.345C690.336 445.808 691.715 448.998 693.698 451.719C687.157 450.975 682.076 445.416 682.076 438.67C682.076 431.923 687.157 426.364 693.698 425.62Z" fill="#DDF1FF"/>
<path d="M904.588 379.177C904.588 403.014 911.873 422.338 920.86 422.338C929.328 422.338 936.285 405.182 937.06 383.26C937.108 381.916 937.132 380.554 937.132 379.177C937.132 366.557 935.09 355.203 931.835 347.311C928.941 340.295 925.089 336.016 920.86 336.016C916.021 336.016 911.675 341.619 908.694 350.514C906.14 358.136 904.588 368.176 904.588 379.177Z" fill="#DDF1FF"/>
<path d="M910.981 377.719C910.981 398.496 915.534 415.339 921.151 415.339C926.767 415.339 931.32 398.496 931.32 377.719C931.32 356.942 926.767 340.099 921.151 340.099C915.534 340.099 910.981 356.942 910.981 377.719Z" fill="#161616"/>
<path d="M915.63 377.719C915.63 389.154 918.102 398.425 921.151 398.425C924.2 398.425 926.671 389.154 926.671 377.719C926.671 366.283 924.2 357.013 921.151 357.013C918.102 357.013 915.63 366.283 915.63 377.719Z" fill="#3E3E3E"/>
<path d="M949.045 309.186C955.341 309.38 967.758 312.744 967.061 324.642C964.252 326.1 955.438 328.842 942.653 328.142C929.868 327.442 568.224 318.129 389 313.56C429.447 309.827 778.868 309.089 949.045 309.186Z" fill="#DDF1FF"/>
<path d="M967.061 324.642C966.189 339.515 952.242 345.931 949.045 345.931C946.62 345.931 937.031 346.806 931.835 347.311C928.941 340.295 925.089 336.016 920.86 336.016C916.021 336.016 911.675 341.619 908.694 350.514C911.173 342.309 914.636 336.445 918.535 335.141C882.505 337.571 808.816 342.315 802.308 341.848C795.799 341.382 790.954 348.07 788.823 351.472L641.214 337.182L484.016 322.601L389 313.56C568.224 318.129 929.868 327.442 942.653 328.142C955.438 328.842 964.252 326.1 967.061 324.642Z" fill="#023F6A"/>
<path d="M1237.58 306.27C1237.39 308.408 1235.66 312.627 1230.32 312.394C1224.97 312.161 1210.07 312.297 1203.29 312.394C1201.65 311.519 1198.53 309.652 1199.23 306.853C1196.67 302.42 1203.39 256.79 1207.07 234.529C1207.07 233.019 1207.6 232.122 1208.26 231.612C1208.93 231.098 1209.73 230.98 1210.27 231.029C1217.92 231.126 1234.04 231.321 1237.29 231.321C1240.54 231.321 1241.36 234.237 1241.36 235.695V244.444C1239.23 261.942 1235.49 298.804 1237.58 306.27Z" fill="#C4E4FD"/>
<path fill-rule="evenodd" clip-rule="evenodd" d="M343.67 312.705L343.673 312.738C343.757 313.655 343.454 314.887 342.628 315.885C341.819 316.864 340.485 317.643 338.441 317.643C334.034 317.643 321.137 317.449 315.22 317.352C314.602 317.307 313.648 317.026 312.856 316.324C312.078 315.634 311.418 314.508 311.418 312.685V312.625L311.406 312.567C310.665 308.994 310.473 303.186 310.691 296.437C310.91 289.704 311.535 282.084 312.409 274.917C313.283 267.748 314.404 261.048 315.611 256.149C316.215 253.695 316.835 251.72 317.445 250.368C317.752 249.69 318.042 249.2 318.306 248.889C318.581 248.565 318.747 248.527 318.8 248.527C319.061 248.527 319.94 248.508 321.226 248.481C323.528 248.432 327.132 248.355 330.815 248.308C333.694 248.272 336.628 248.254 339.052 248.281C341.498 248.308 343.367 248.382 344.153 248.518C345.868 248.815 346.746 249.087 347.286 249.821C347.563 250.197 347.783 250.739 347.931 251.573C348.073 252.376 348.143 253.417 348.148 254.783C347.984 255.078 347.839 255.453 347.707 255.878C347.548 256.39 347.396 257.011 347.251 257.724C346.96 259.15 346.688 260.975 346.434 263.094C345.926 267.335 345.485 272.792 345.112 278.666C344.365 290.417 343.885 303.869 343.671 312.671L343.67 312.705ZM348.729 254.943C348.729 249.11 347.621 248.527 344.252 247.944C341.831 247.524 330.497 247.708 323.77 247.844C322.809 247.863 321.943 247.882 321.209 247.898C319.932 247.925 319.06 247.944 318.8 247.944C313.861 247.944 307.813 298.104 310.837 312.685C310.837 316.652 313.742 317.838 315.195 317.935C321.103 318.032 334.024 318.226 338.441 318.226C342.857 318.226 344.446 314.824 344.252 312.685C344.679 295.09 346.172 258.909 348.729 254.943Z" fill="#75A6C7"/>
<path d="M1370.37 253.776H1345.09L1361.36 274.482H1387.51L1370.37 253.776Z" fill="#30598E"/>
<path d="M1339.28 254.943H1325.91L1322.43 276.523L1356.42 275.648L1339.28 254.943Z" fill="#30598E"/>
<path d="M1320.1 254.943C1320.1 254.943 1313.38 253.752 1309.35 254.943C1299.87 257.747 1295.99 276.523 1295.99 276.523H1315.16L1320.1 254.943Z" fill="#30598E"/>
<path fill-rule="evenodd" clip-rule="evenodd" d="M1241.36 244.444V235.695C1241.36 234.237 1240.54 231.321 1237.29 231.321C1234.04 231.321 1217.92 231.126 1210.27 231.029C1209.73 230.98 1208.93 231.098 1208.26 231.612C1207.6 232.122 1207.07 233.019 1207.07 234.529C1203.39 256.79 1196.67 302.42 1199.23 306.853C1198.53 309.652 1201.65 311.519 1203.29 312.394C1210.07 312.297 1224.97 312.161 1230.32 312.394C1235.66 312.627 1237.39 308.408 1237.58 306.27C1235.49 298.804 1239.23 261.942 1241.36 244.444ZM1240.78 244.409C1239.71 253.165 1238.25 266.744 1237.31 279.074C1236.84 285.247 1236.5 291.114 1236.41 295.909C1236.36 298.307 1236.38 300.443 1236.47 302.218C1236.57 303.921 1236.73 305.326 1236.99 306.319C1236.88 307.288 1236.44 308.695 1235.44 309.838C1234.43 310.998 1232.84 311.92 1230.34 311.811C1225.01 311.579 1210.28 311.711 1203.43 311.808C1202.63 311.376 1201.58 310.75 1200.8 309.938C1199.97 309.089 1199.51 308.12 1199.79 306.994L1199.85 306.765L1199.73 306.561C1199.62 306.38 1199.51 306.031 1199.43 305.465C1199.34 304.914 1199.28 304.212 1199.26 303.367C1199.21 301.678 1199.27 299.466 1199.43 296.849C1199.76 291.618 1200.48 284.816 1201.39 277.448C1203.21 262.714 1205.8 245.75 1207.64 234.624L1207.65 234.577V234.529C1207.65 233.17 1208.12 232.457 1208.61 232.075C1209.14 231.669 1209.79 231.571 1210.21 231.61L1210.24 231.612L1210.26 231.612C1217.91 231.709 1234.03 231.904 1237.29 231.904C1238.71 231.904 1239.55 232.525 1240.06 233.286C1240.59 234.079 1240.78 235.052 1240.78 235.695V244.409Z" fill="#75A6C7"/>
<path d="M1219.27 378.886C1218.34 378.886 1155.54 380.052 1124.26 380.635L1121.06 380.69L1114.96 380.796L1105.66 380.956L1099.27 381.066L1094.91 381.141L972 383.26H937.06C937.108 381.916 937.132 380.554 937.132 379.177C937.132 366.557 935.09 355.203 931.835 347.311C937.031 346.806 946.62 345.931 949.045 345.931C952.242 345.931 966.189 339.515 967.061 324.642C967.758 312.744 955.341 309.38 949.045 309.186H981.589L1097.53 307.436L1199.23 306.853C1198.53 309.652 1201.65 311.519 1203.29 312.394C1210.07 312.297 1224.97 312.161 1230.32 312.394C1235.66 312.627 1237.39 308.408 1237.58 306.27L1439.53 304.228C1459.87 334.266 1417.73 353.514 1407.27 357.888C1397.75 361.871 1346.54 371.303 1328.82 373.345C1317.8 374.614 1300.26 375.432 1287.87 376.01L1287.87 376.011L1287.86 376.011L1287.86 376.011L1287.86 376.011L1287.85 376.011L1287.85 376.011L1287.85 376.011H1287.85L1287.84 376.011C1280.32 376.362 1274.71 376.624 1273.61 376.844C1256.37 377.51 1221.37 378.851 1219.27 378.886Z" fill="#00548F"/>
<path d="M88.6694 254.068C97.3865 252.61 139.81 243.278 158.406 240.07C166.616 236.383 201.833 232.974 244.124 230.147C255.747 229.334 891.724 230.785 1208.26 231.612C1207.6 232.122 1207.07 233.019 1207.07 234.529C1203.39 256.79 1196.67 302.42 1199.23 306.853L1097.53 307.436L981.589 309.186H949.045C778.868 309.089 429.447 309.827 389 313.56L344.252 312.685C344.679 295.09 346.172 258.909 348.729 254.943C348.729 249.11 347.621 248.527 344.252 247.944C341.831 247.524 330.497 247.708 323.77 247.844C322.809 247.863 321.943 247.882 321.209 247.898C319.932 247.925 319.06 247.944 318.8 247.944C313.861 247.944 307.813 298.104 310.837 312.685H184.848C134.012 296.407 87.9244 281.354 88.6694 280.606L87.2166 270.691C127.509 275.454 211.348 283.872 224.365 279.44C240.637 273.899 246.449 270.982 241.509 264.275C237.557 258.909 201.392 257.956 183.804 258.151C148.772 257.721 72.6755 256.913 19.6704 256.73C43.6661 256.686 81.8802 256.272 88.6694 254.068Z" fill="#C4E4FD"/>
<path d="M343.673 312.738L343.67 312.705L343.671 312.671C343.885 303.869 344.365 290.417 345.112 278.666C345.485 272.792 345.926 267.335 346.434 263.094C346.688 260.975 346.96 259.15 347.251 257.724C347.396 257.011 347.548 256.39 347.707 255.878C347.839 255.453 347.984 255.078 348.148 254.783C348.143 253.417 348.073 252.376 347.931 251.573C347.783 250.739 347.563 250.197 347.286 249.821C346.746 249.087 345.868 248.815 344.153 248.518C343.367 248.382 341.498 248.308 339.052 248.281C336.628 248.254 333.694 248.272 330.815 248.308C327.132 248.355 323.528 248.432 321.226 248.481C319.94 248.508 319.061 248.527 318.8 248.527C318.747 248.527 318.581 248.565 318.306 248.889C318.042 249.2 317.752 249.69 317.445 250.368C316.835 251.72 316.215 253.695 315.611 256.149C314.404 261.048 313.283 267.748 312.409 274.917C311.535 282.084 310.91 289.704 310.691 296.437C310.473 303.186 310.665 308.994 311.406 312.567L311.418 312.625V312.685C311.418 314.508 312.078 315.634 312.856 316.324C313.648 317.026 314.602 317.307 315.22 317.352C321.137 317.449 334.034 317.643 338.441 317.643C340.485 317.643 341.819 316.864 342.628 315.885C343.454 314.887 343.757 313.655 343.673 312.738Z" fill="#C4E4FD"/>
</svg>
