<svg width="510" height="183" viewBox="0 0 510 183" fill="none" xmlns="http://www.w3.org/2000/svg">
<path fill-rule="evenodd" clip-rule="evenodd" d="M33.0784 144.047H29.8114C28.9092 144.047 28.1779 144.773 28.1779 145.67C28.1779 146.566 28.9092 147.293 29.8114 147.293H33.0784C33.9806 147.293 34.7119 146.566 34.7119 145.67C34.7119 144.773 33.9806 144.047 33.0784 144.047ZM29.8114 143.235C28.4582 143.235 27.3611 144.325 27.3611 145.67C27.3611 147.014 28.4582 148.104 29.8114 148.104H33.0784C34.4316 148.104 35.5286 147.014 35.5286 145.67C35.5286 144.325 34.4316 143.235 33.0784 143.235H29.8114Z" fill="#161616"/>
<path fill-rule="evenodd" clip-rule="evenodd" d="M128.638 144.047H125.371C124.469 144.047 123.738 144.773 123.738 145.67C123.738 146.566 124.469 147.293 125.371 147.293H128.638C129.54 147.293 130.272 146.566 130.272 145.67C130.272 144.773 129.54 144.047 128.638 144.047ZM125.371 143.235C124.018 143.235 122.921 144.325 122.921 145.67C122.921 147.014 124.018 148.104 125.371 148.104H128.638C129.991 148.104 131.088 147.014 131.088 145.67C131.088 144.325 129.991 143.235 128.638 143.235H125.371Z" fill="#161616"/>
<path fill-rule="evenodd" clip-rule="evenodd" d="M231.549 144.047H228.282C227.38 144.047 226.648 144.773 226.648 145.67C226.648 146.566 227.38 147.293 228.282 147.293H231.549C232.451 147.293 233.182 146.566 233.182 145.67C233.182 144.773 232.451 144.047 231.549 144.047ZM228.282 143.235C226.929 143.235 225.832 144.325 225.832 145.67C225.832 147.014 226.929 148.104 228.282 148.104H231.549C232.902 148.104 233.999 147.014 233.999 145.67C233.999 144.325 232.902 143.235 231.549 143.235H228.282Z" fill="#161616"/>
<path fill-rule="evenodd" clip-rule="evenodd" d="M323.025 144.047H319.758C318.856 144.047 318.124 144.773 318.124 145.67C318.124 146.566 318.856 147.293 319.758 147.293H323.025C323.927 147.293 324.658 146.566 324.658 145.67C324.658 144.773 323.927 144.047 323.025 144.047ZM319.758 143.235C318.405 143.235 317.308 144.325 317.308 145.67C317.308 147.014 318.405 148.104 319.758 148.104H323.025C324.378 148.104 325.475 147.014 325.475 145.67C325.475 144.325 324.378 143.235 323.025 143.235H319.758Z" fill="#161616"/>
<path fill-rule="evenodd" clip-rule="evenodd" d="M416.134 69.3858C414.781 69.3858 413.684 70.4758 413.684 71.8204V78.8576V90.4856C413.684 91.8302 414.781 92.9202 416.134 92.9202H417.934H418.6H421.035C422.388 92.9202 423.485 91.8302 423.485 90.4856V80.6593V71.8204C423.485 70.4758 422.388 69.3858 421.035 69.3858H419.265H418.585H416.134Z" fill="#161616"/>
<path fill-rule="evenodd" clip-rule="evenodd" d="M402.25 101.847C401.348 101.847 400.616 102.574 400.616 103.47V106.716C400.616 107.613 401.348 108.339 402.25 108.339H403.066C403.969 108.339 404.7 107.613 404.7 106.716V103.47C404.7 102.574 403.969 101.847 403.066 101.847H402.25Z" fill="#365153"/>
<path fill-rule="evenodd" clip-rule="evenodd" d="M69.3337 168.618C71.1404 166.201 72.2824 162.825 72.2824 159.06C72.2824 155.295 71.1404 151.918 69.3337 149.502C67.5269 147.085 65.0953 145.67 62.4814 145.67C59.8675 145.67 57.436 147.085 55.6292 149.502C53.8224 151.918 52.6804 155.295 52.6804 159.06C52.6804 162.825 53.8224 166.201 55.6292 168.618C57.436 171.035 59.8675 172.45 62.4814 172.45C65.0953 172.45 67.5269 171.035 69.3337 168.618ZM62.4814 173.262C68.3454 173.262 73.0992 166.903 73.0992 159.06C73.0992 151.216 68.3454 144.858 62.4814 144.858C56.6174 144.858 51.8637 151.216 51.8637 159.06C51.8637 166.903 56.6174 173.262 62.4814 173.262Z" fill="#3E3E3E"/>
<path fill-rule="evenodd" clip-rule="evenodd" d="M66.452 164.593C67.5166 163.205 68.1987 161.251 68.1987 159.06C68.1987 156.868 67.5166 154.915 66.452 153.526C65.3879 152.139 63.9765 151.35 62.4814 151.35C60.9863 151.35 59.575 152.139 58.5108 153.526C57.4462 154.915 56.7642 156.868 56.7642 159.06C56.7642 161.251 57.4462 163.205 58.5108 164.593C59.575 165.981 60.9863 166.769 62.4814 166.769C63.9765 166.769 65.3879 165.981 66.452 164.593ZM62.4814 167.581C66.09 167.581 69.0154 163.766 69.0154 159.06C69.0154 154.354 66.09 150.539 62.4814 150.539C58.8728 150.539 55.9474 154.354 55.9474 159.06C55.9474 163.766 58.8728 167.581 62.4814 167.581Z" fill="#3E3E3E"/>
<path fill-rule="evenodd" clip-rule="evenodd" d="M266.171 168.618C267.977 166.201 269.119 162.825 269.119 159.06C269.119 155.295 267.977 151.918 266.171 149.502C264.364 147.085 261.932 145.67 259.318 145.67C256.704 145.67 254.273 147.085 252.466 149.502C250.659 151.918 249.517 155.295 249.517 159.06C249.517 162.825 250.659 166.201 252.466 168.618C254.273 171.035 256.704 172.45 259.318 172.45C261.932 172.45 264.364 171.035 266.171 168.618ZM259.318 173.262C265.182 173.262 269.936 166.903 269.936 159.06C269.936 151.216 265.182 144.858 259.318 144.858C253.454 144.858 248.701 151.216 248.701 159.06C248.701 166.903 253.454 173.262 259.318 173.262Z" fill="#3E3E3E"/>
<path fill-rule="evenodd" clip-rule="evenodd" d="M263.289 164.593C264.354 163.205 265.036 161.251 265.036 159.06C265.036 156.868 264.354 154.915 263.289 153.526C262.225 152.139 260.813 151.35 259.318 151.35C257.823 151.35 256.412 152.139 255.348 153.526C254.283 154.915 253.601 156.868 253.601 159.06C253.601 161.251 254.283 163.205 255.348 164.593C256.412 165.981 257.823 166.769 259.318 166.769C260.813 166.769 262.225 165.981 263.289 164.593ZM259.318 167.581C262.927 167.581 265.852 163.766 265.852 159.06C265.852 154.354 262.927 150.539 259.318 150.539C255.71 150.539 252.784 154.354 252.784 159.06C252.784 163.766 255.71 167.581 259.318 167.581Z" fill="#3E3E3E"/>
<path fill-rule="evenodd" clip-rule="evenodd" d="M306.49 175.503C309.626 171.324 311.59 165.513 311.59 159.06C311.59 152.607 309.626 146.796 306.49 142.617C303.353 138.438 299.084 135.931 294.439 135.931C289.793 135.931 285.524 138.438 282.388 142.617C279.251 146.796 277.287 152.607 277.287 159.06C277.287 165.513 279.251 171.324 282.388 175.503C285.524 179.682 289.793 182.188 294.439 182.188C299.084 182.188 303.353 179.682 306.49 175.503ZM294.439 183C296.05 183 297.612 182.717 299.098 182.187C305.608 179.865 310.661 172.793 312.035 163.929C312.279 162.357 312.407 160.728 312.407 159.06C312.407 145.838 304.362 135.12 294.439 135.12C285.828 135.12 278.632 143.189 276.878 153.961C276.611 155.604 276.47 157.31 276.47 159.06C276.47 160.81 276.611 162.515 276.878 164.158C277.455 167.703 278.622 170.955 280.234 173.723C283.521 179.367 288.661 183 294.439 183Z" fill="#3E3E3E"/>
<path fill-rule="evenodd" clip-rule="evenodd" d="M301.291 168.618C303.098 166.201 304.24 162.825 304.24 159.06C304.24 155.295 303.098 151.918 301.291 149.502C299.484 147.085 297.052 145.67 294.439 145.67C291.825 145.67 289.393 147.085 287.586 149.502C285.78 151.918 284.638 155.295 284.638 159.06C284.638 162.825 285.78 166.201 287.586 168.618C289.393 171.035 291.825 172.45 294.439 172.45C297.052 172.45 299.484 171.035 301.291 168.618ZM294.439 173.262C300.303 173.262 305.056 166.903 305.056 159.06C305.056 151.216 300.303 144.858 294.439 144.858C288.575 144.858 283.821 151.216 283.821 159.06C283.821 166.903 288.575 173.262 294.439 173.262Z" fill="#3E3E3E"/>
<path fill-rule="evenodd" clip-rule="evenodd" d="M298.409 164.593C299.474 163.205 300.156 161.251 300.156 159.06C300.156 156.868 299.474 154.915 298.409 153.526C297.345 152.139 295.934 151.35 294.439 151.35C292.943 151.35 291.532 152.139 290.468 153.526C289.403 154.915 288.721 156.868 288.721 159.06C288.721 161.251 289.403 163.205 290.468 164.593C291.532 165.981 292.943 166.769 294.439 166.769C295.934 166.769 297.345 165.981 298.409 164.593ZM294.439 167.581C298.047 167.581 300.973 163.766 300.973 159.06C300.973 154.354 298.047 150.539 294.439 150.539C290.83 150.539 287.905 154.354 287.905 159.06C287.905 163.766 290.83 167.581 294.439 167.581Z" fill="#3E3E3E"/>
<path fill-rule="evenodd" clip-rule="evenodd" d="M405.316 175.503C408.453 171.324 410.417 165.513 410.417 159.06C410.417 152.607 408.453 146.796 405.316 142.617C402.18 138.438 397.911 135.931 393.265 135.931C388.62 135.931 384.351 138.438 381.214 142.617C378.078 146.796 376.114 152.607 376.114 159.06C376.114 165.513 378.078 171.324 381.214 175.503C384.351 179.682 388.62 182.188 393.265 182.188C397.911 182.188 402.18 179.682 405.316 175.503ZM393.265 183C394.029 183 394.781 182.937 395.519 182.814C403.02 181.563 409.084 174.152 410.768 164.502C411.073 162.754 411.234 160.932 411.234 159.06C411.234 145.838 403.189 135.12 393.265 135.12C383.342 135.12 375.297 145.838 375.297 159.06C375.297 160.443 375.385 161.799 375.554 163.118C375.589 163.39 375.627 163.66 375.669 163.929C376.601 169.939 379.224 175.126 382.846 178.566C383.042 178.752 383.24 178.933 383.441 179.108C386.265 181.569 389.64 183 393.265 183Z" fill="#3E3E3E"/>
<path fill-rule="evenodd" clip-rule="evenodd" d="M400.118 168.618C401.924 166.201 403.066 162.825 403.066 159.06C403.066 155.295 401.924 151.918 400.118 149.502C398.311 147.085 395.879 145.67 393.265 145.67C390.651 145.67 388.22 147.085 386.413 149.502C384.606 151.918 383.464 155.295 383.464 159.06C383.464 162.825 384.606 166.201 386.413 168.618C388.22 171.035 390.651 172.45 393.265 172.45C395.879 172.45 398.311 171.035 400.118 168.618ZM393.265 173.262C399.129 173.262 403.883 166.903 403.883 159.06C403.883 151.216 399.129 144.858 393.265 144.858C387.401 144.858 382.648 151.216 382.648 159.06C382.648 166.903 387.401 173.262 393.265 173.262Z" fill="#3E3E3E"/>
<path fill-rule="evenodd" clip-rule="evenodd" d="M397.236 164.593C398.301 163.205 398.983 161.251 398.983 159.06C398.983 156.868 398.301 154.915 397.236 153.526C396.172 152.139 394.761 151.35 393.265 151.35C391.77 151.35 390.359 152.139 389.295 153.526C388.23 154.915 387.548 156.868 387.548 159.06C387.548 161.251 388.23 163.205 389.295 164.593C390.359 165.981 391.77 166.769 393.265 166.769C394.761 166.769 396.172 165.981 397.236 164.593ZM393.265 167.581C396.874 167.581 399.799 163.766 399.799 159.06C399.799 154.354 396.874 150.539 393.265 150.539C389.657 150.539 386.731 154.354 386.731 159.06C386.731 163.766 389.657 167.581 393.265 167.581Z" fill="#3E3E3E"/>
<path fill-rule="evenodd" clip-rule="evenodd" d="M15.1099 14.6075C15.1099 13.0389 16.3897 11.7672 17.9685 11.7672C19.5473 11.7672 20.8271 13.0389 20.8271 14.6075V116.049C20.8271 117.617 19.5473 118.889 17.9685 118.889C16.3897 118.889 15.1099 117.617 15.1099 116.049V14.6075ZM33.8951 14.6075C33.8951 13.0389 35.175 11.7672 36.7538 11.7672C38.3326 11.7672 39.6124 13.0389 39.6124 14.6075V116.049C39.6124 117.617 38.3326 118.889 36.7538 118.889C35.175 118.889 33.8951 117.617 33.8951 116.049V14.6075ZM55.539 11.7672C53.9603 11.7672 52.6804 13.0389 52.6804 14.6075V116.049C52.6804 117.617 53.9603 118.889 55.539 118.889C57.1178 118.889 58.3977 117.617 58.3977 116.049V14.6075C58.3977 13.0389 57.1178 11.7672 55.539 11.7672ZM71.4657 14.6075C71.4657 13.0389 72.7455 11.7672 74.3243 11.7672C75.9031 11.7672 77.1829 13.0389 77.1829 14.6075V116.049C77.1829 117.617 75.9031 118.889 74.3243 118.889C72.7455 118.889 71.4657 117.617 71.4657 116.049V14.6075ZM93.1096 11.7672C91.5308 11.7672 90.2509 13.0389 90.2509 14.6075V116.049C90.2509 117.617 91.5308 118.889 93.1096 118.889C94.6883 118.889 95.9682 117.617 95.9682 116.049V14.6075C95.9682 13.0389 94.6883 11.7672 93.1096 11.7672ZM109.036 14.6075C109.036 13.0389 110.316 11.7672 111.895 11.7672C113.474 11.7672 114.753 13.0389 114.753 14.6075V116.049C114.753 117.617 113.474 118.889 111.895 118.889C110.316 118.889 109.036 117.617 109.036 116.049V14.6075ZM130.68 11.7672C129.101 11.7672 127.821 13.0389 127.821 14.6075V116.049C127.821 117.617 129.101 118.889 130.68 118.889C132.259 118.889 133.539 117.617 133.539 116.049V14.6075C133.539 13.0389 132.259 11.7672 130.68 11.7672ZM146.607 14.6075C146.607 13.0389 147.887 11.7672 149.465 11.7672C151.044 11.7672 152.324 13.0389 152.324 14.6075V116.049C152.324 117.617 151.044 118.889 149.465 118.889C147.887 118.889 146.607 117.617 146.607 116.049V14.6075ZM168.251 11.7672C166.672 11.7672 165.392 13.0389 165.392 14.6075V116.049C165.392 117.617 166.672 118.889 168.251 118.889C169.829 118.889 171.109 117.617 171.109 116.049V14.6075C171.109 13.0389 169.829 11.7672 168.251 11.7672ZM184.177 14.6075C184.177 13.0389 185.457 11.7672 187.036 11.7672C188.615 11.7672 189.895 13.0389 189.895 14.6075V116.049C189.895 117.617 188.615 118.889 187.036 118.889C185.457 118.889 184.177 117.617 184.177 116.049V14.6075ZM205.821 11.7672C204.242 11.7672 202.963 13.0389 202.963 14.6075V116.049C202.963 117.617 204.242 118.889 205.821 118.889C207.4 118.889 208.68 117.617 208.68 116.049V14.6075C208.68 13.0389 207.4 11.7672 205.821 11.7672ZM221.748 14.6075C221.748 13.0389 223.028 11.7672 224.606 11.7672C226.185 11.7672 227.465 13.0389 227.465 14.6075V116.049C227.465 117.617 226.185 118.889 224.606 118.889C223.028 118.889 221.748 117.617 221.748 116.049V14.6075ZM243.392 11.7672C241.813 11.7672 240.533 13.0389 240.533 14.6075V116.049C240.533 117.617 241.813 118.889 243.392 118.889C244.97 118.889 246.25 117.617 246.25 116.049V14.6075C246.25 13.0389 244.97 11.7672 243.392 11.7672ZM259.318 14.6075C259.318 13.0389 260.598 11.7672 262.177 11.7672C263.756 11.7672 265.036 13.0389 265.036 14.6075V116.049C265.036 117.617 263.756 118.889 262.177 118.889C260.598 118.889 259.318 117.617 259.318 116.049V14.6075ZM280.962 11.7672C279.383 11.7672 278.104 13.0389 278.104 14.6075V116.049C278.104 117.617 279.383 118.889 280.962 118.889C282.541 118.889 283.821 117.617 283.821 116.049V14.6075C283.821 13.0389 282.541 11.7672 280.962 11.7672ZM296.889 14.6075C296.889 13.0389 298.169 11.7672 299.747 11.7672C301.326 11.7672 302.606 13.0389 302.606 14.6075V116.049C302.606 117.617 301.326 118.889 299.747 118.889C298.169 118.889 296.889 117.617 296.889 116.049V14.6075ZM318.533 11.7672C316.954 11.7672 315.674 13.0389 315.674 14.6075V116.049C315.674 117.617 316.954 118.889 318.533 118.889C320.112 118.889 321.391 117.617 321.391 116.049V14.6075C321.391 13.0389 320.112 11.7672 318.533 11.7672Z" fill="#161616"/>
<path d="M342.219 0H354.061V131.062H342.219V0Z" fill="#023F6A"/>
<path fill-rule="evenodd" clip-rule="evenodd" d="M15.1099 14.6075C15.1099 13.0389 16.3897 11.7672 17.9685 11.7672C19.5473 11.7672 20.8271 13.0389 20.8271 14.6075V116.049C20.8271 117.617 19.5473 118.889 17.9685 118.889C16.3897 118.889 15.1099 117.617 15.1099 116.049V14.6075ZM33.8951 14.6075C33.8951 13.0389 35.175 11.7672 36.7538 11.7672C38.3326 11.7672 39.6124 13.0389 39.6124 14.6075V116.049C39.6124 117.617 38.3326 118.889 36.7538 118.889C35.175 118.889 33.8951 117.617 33.8951 116.049V14.6075ZM55.539 11.7672C53.9603 11.7672 52.6804 13.0389 52.6804 14.6075V116.049C52.6804 117.617 53.9603 118.889 55.539 118.889C57.1178 118.889 58.3977 117.617 58.3977 116.049V14.6075C58.3977 13.0389 57.1178 11.7672 55.539 11.7672ZM71.4657 14.6075C71.4657 13.0389 72.7455 11.7672 74.3243 11.7672C75.9031 11.7672 77.1829 13.0389 77.1829 14.6075V116.049C77.1829 117.617 75.9031 118.889 74.3243 118.889C72.7455 118.889 71.4657 117.617 71.4657 116.049V14.6075ZM93.1096 11.7672C91.5308 11.7672 90.2509 13.0389 90.2509 14.6075V116.049C90.2509 117.617 91.5308 118.889 93.1096 118.889C94.6883 118.889 95.9682 117.617 95.9682 116.049V14.6075C95.9682 13.0389 94.6883 11.7672 93.1096 11.7672ZM109.036 14.6075C109.036 13.0389 110.316 11.7672 111.895 11.7672C113.474 11.7672 114.753 13.0389 114.753 14.6075V116.049C114.753 117.617 113.474 118.889 111.895 118.889C110.316 118.889 109.036 117.617 109.036 116.049V14.6075ZM130.68 11.7672C129.101 11.7672 127.821 13.0389 127.821 14.6075V116.049C127.821 117.617 129.101 118.889 130.68 118.889C132.259 118.889 133.539 117.617 133.539 116.049V14.6075C133.539 13.0389 132.259 11.7672 130.68 11.7672ZM146.607 14.6075C146.607 13.0389 147.887 11.7672 149.465 11.7672C151.044 11.7672 152.324 13.0389 152.324 14.6075V116.049C152.324 117.617 151.044 118.889 149.465 118.889C147.887 118.889 146.607 117.617 146.607 116.049V14.6075ZM168.251 11.7672C166.672 11.7672 165.392 13.0389 165.392 14.6075V116.049C165.392 117.617 166.672 118.889 168.251 118.889C169.829 118.889 171.109 117.617 171.109 116.049V14.6075C171.109 13.0389 169.829 11.7672 168.251 11.7672ZM184.177 14.6075C184.177 13.0389 185.457 11.7672 187.036 11.7672C188.615 11.7672 189.895 13.0389 189.895 14.6075V116.049C189.895 117.617 188.615 118.889 187.036 118.889C185.457 118.889 184.177 117.617 184.177 116.049V14.6075ZM205.821 11.7672C204.242 11.7672 202.963 13.0389 202.963 14.6075V116.049C202.963 117.617 204.242 118.889 205.821 118.889C207.4 118.889 208.68 117.617 208.68 116.049V14.6075C208.68 13.0389 207.4 11.7672 205.821 11.7672ZM221.748 14.6075C221.748 13.0389 223.028 11.7672 224.606 11.7672C226.185 11.7672 227.465 13.0389 227.465 14.6075V116.049C227.465 117.617 226.185 118.889 224.606 118.889C223.028 118.889 221.748 117.617 221.748 116.049V14.6075ZM243.392 11.7672C241.813 11.7672 240.533 13.0389 240.533 14.6075V116.049C240.533 117.617 241.813 118.889 243.392 118.889C244.97 118.889 246.25 117.617 246.25 116.049V14.6075C246.25 13.0389 244.97 11.7672 243.392 11.7672ZM259.318 14.6075C259.318 13.0389 260.598 11.7672 262.177 11.7672C263.756 11.7672 265.036 13.0389 265.036 14.6075V116.049C265.036 117.617 263.756 118.889 262.177 118.889C260.598 118.889 259.318 117.617 259.318 116.049V14.6075ZM280.962 11.7672C279.383 11.7672 278.104 13.0389 278.104 14.6075V116.049C278.104 117.617 279.383 118.889 280.962 118.889C282.541 118.889 283.821 117.617 283.821 116.049V14.6075C283.821 13.0389 282.541 11.7672 280.962 11.7672ZM296.889 14.6075C296.889 13.0389 298.169 11.7672 299.747 11.7672C301.326 11.7672 302.606 13.0389 302.606 14.6075V116.049C302.606 117.617 301.326 118.889 299.747 118.889C298.169 118.889 296.889 117.617 296.889 116.049V14.6075ZM318.533 11.7672C316.954 11.7672 315.674 13.0389 315.674 14.6075V116.049C315.674 117.617 316.954 118.889 318.533 118.889C320.112 118.889 321.391 117.617 321.391 116.049V14.6075C321.391 13.0389 320.112 11.7672 318.533 11.7672Z" fill="#00548F"/>
<path d="M29.8114 144.047H33.0784C33.9806 144.047 34.7119 144.773 34.7119 145.67C34.7119 146.566 33.9806 147.293 33.0784 147.293H29.8114C28.9092 147.293 28.1779 146.566 28.1779 145.67C28.1779 144.773 28.9092 144.047 29.8114 144.047Z" fill="#F00808"/>
<path d="M125.371 144.047H128.638C129.54 144.047 130.272 144.773 130.272 145.67C130.272 146.566 129.54 147.293 128.638 147.293H125.371C124.469 147.293 123.738 146.566 123.738 145.67C123.738 144.773 124.469 144.047 125.371 144.047Z" fill="#F00808"/>
<path d="M228.282 144.047H231.549C232.451 144.047 233.182 144.773 233.182 145.67C233.182 146.566 232.451 147.293 231.549 147.293H228.282C227.38 147.293 226.648 146.566 226.648 145.67C226.648 144.773 227.38 144.047 228.282 144.047Z" fill="#F00808"/>
<path d="M319.758 144.047H323.025C323.927 144.047 324.658 144.773 324.658 145.67C324.658 146.566 323.927 147.293 323.025 147.293H319.758C318.856 147.293 318.124 146.566 318.124 145.67C318.124 144.773 318.856 144.047 319.758 144.047Z" fill="#F00808"/>
<path d="M133.791 133.497L132.974 131.874H209.305L210.667 133.497H133.791Z" fill="#161616"/>
<path d="M198.85 166.697C199.857 163.885 200.416 160.885 200.501 157.843H167.831C167.747 160.976 167.172 164.068 166.133 166.969C165.263 169.396 164.082 171.652 162.632 173.662C162.945 174.075 163.269 174.476 163.606 174.865C165.622 177.197 168.01 179.038 170.628 180.292C173.245 181.546 176.045 182.188 178.868 182.188C181.692 182.188 184.492 181.546 187.109 180.292C189.727 179.038 192.114 177.197 194.131 174.865C196.148 172.533 197.753 169.758 198.85 166.697Z" fill="#161616"/>
<path d="M115.57 159.06C115.57 170.122 109.939 179.432 102.287 182.178C102.359 182.18 102.43 182.182 102.502 182.184C105.187 182.125 107.843 181.485 110.335 180.292C112.952 179.038 115.34 177.197 117.356 174.865C119.373 172.533 120.978 169.758 122.075 166.697C122.628 165.155 123.045 163.557 123.324 161.927C123.1 160.582 122.969 159.216 122.932 157.843H115.547C115.563 158.246 115.57 158.652 115.57 159.06Z" fill="#161616"/>
<path d="M80.0416 164.158C78.6159 172.915 73.5941 179.886 67.1395 182.188C69.9068 182.163 72.6482 181.521 75.2142 180.292C77.8322 179.038 80.2195 177.197 82.2362 174.865C82.6033 174.44 82.9569 174.001 83.2962 173.548C81.7363 170.818 80.6065 167.629 80.0416 164.158Z" fill="#161616"/>
<path d="M103.776 134.994C100.236 133.193 96.2627 132.724 92.2528 134.177C88.2356 135.633 84.1345 139.036 80.3892 145.071L80.0506 145.617L79.6992 145.079C75.7527 139.047 71.4828 135.775 67.3422 134.48C63.2069 133.186 59.1484 133.847 55.5814 135.78C48.4201 139.661 43.2947 148.645 43.6957 157.012L43.7161 157.437H44.5536C45.1799 144.972 52.9671 135.12 62.4814 135.12C71.0919 135.12 78.2878 143.189 80.0416 153.961C81.7953 143.189 88.9912 135.12 97.6017 135.12C107.013 135.12 114.734 144.759 115.507 157.031H116.387C116.223 147.584 110.88 138.607 103.776 134.994Z" fill="#161616"/>
<path fill-rule="evenodd" clip-rule="evenodd" d="M277.287 159.06C277.287 160.81 277.146 162.515 276.878 164.158C276.611 162.515 276.47 160.81 276.47 159.06C276.47 157.31 276.611 155.604 276.878 153.961C277.146 155.604 277.287 157.31 277.287 159.06Z" fill="#3E3E3E"/>
<path d="M276.47 159.06C276.47 165.513 274.506 171.324 271.369 175.503C268.233 179.682 263.963 182.188 259.318 182.188C254.673 182.188 250.404 179.682 247.267 175.503C244.131 171.324 242.167 165.513 242.167 159.06C242.167 152.607 244.131 146.796 247.267 142.617C250.404 138.438 254.673 135.931 259.318 135.931C263.963 135.931 268.233 138.438 271.369 142.617C274.506 146.796 276.47 152.607 276.47 159.06C276.47 157.31 276.611 155.604 276.878 153.961C275.125 143.189 267.929 135.12 259.318 135.12C249.804 135.12 242.017 144.972 241.39 157.437C241.363 157.973 241.35 158.514 241.35 159.06C241.35 172.282 249.395 183 259.318 183C260.978 183 262.585 182.7 264.11 182.139C270.5 179.789 275.463 172.855 276.878 164.158C276.611 162.515 276.47 160.81 276.47 159.06Z" fill="#3E3E3E"/>
<path d="M265.036 159.06C265.036 161.251 264.354 163.205 263.289 164.593C262.225 165.981 260.813 166.769 259.318 166.769C257.823 166.769 256.412 165.981 255.348 164.593C254.283 163.205 253.601 161.251 253.601 159.06C253.601 156.868 254.283 154.915 255.348 153.526C256.412 152.139 257.823 151.35 259.318 151.35C260.813 151.35 262.225 152.139 263.289 153.526C264.354 154.915 265.036 156.868 265.036 159.06Z" fill="#3E3E3E"/>
<path fill-rule="evenodd" clip-rule="evenodd" d="M271.369 175.503C274.506 171.324 276.47 165.513 276.47 159.06C276.47 152.607 274.506 146.796 271.369 142.617C268.233 138.438 263.963 135.931 259.318 135.931C254.673 135.931 250.404 138.438 247.267 142.617C244.131 146.796 242.167 152.607 242.167 159.06C242.167 165.513 244.131 171.324 247.267 175.503C250.404 179.682 254.673 182.188 259.318 182.188C263.963 182.188 268.233 179.682 271.369 175.503ZM259.318 173.262C265.182 173.262 269.936 166.903 269.936 159.06C269.936 151.216 265.182 144.858 259.318 144.858C253.454 144.858 248.701 151.216 248.701 159.06C248.701 166.903 253.454 173.262 259.318 173.262Z" fill="#3E3E3E"/>
<path fill-rule="evenodd" clip-rule="evenodd" d="M74.5323 175.503C77.6689 171.324 79.6332 165.513 79.6332 159.06C79.6332 152.607 77.6689 146.796 74.5323 142.617C71.3959 138.438 67.1266 135.931 62.4814 135.931C57.8363 135.931 53.5669 138.438 50.4305 142.617C47.294 146.796 45.3297 152.607 45.3297 159.06C45.3297 165.513 47.294 171.324 50.4305 175.503C53.5669 179.682 57.8363 182.188 62.4814 182.188C67.1266 182.188 71.3959 179.682 74.5323 175.503ZM62.4814 173.262C68.3454 173.262 73.0992 166.903 73.0992 159.06C73.0992 151.216 68.3454 144.858 62.4814 144.858C56.6174 144.858 51.8637 151.216 51.8637 159.06C51.8637 166.903 56.6174 173.262 62.4814 173.262Z" fill="#3E3E3E"/>
<path d="M68.1987 159.06C68.1987 161.251 67.5166 163.205 66.452 164.593C65.3879 165.981 63.9765 166.769 62.4814 166.769C60.9863 166.769 59.575 165.981 58.5108 164.593C57.4462 163.205 56.7642 161.251 56.7642 159.06C56.7642 156.868 57.4462 154.915 58.5108 153.526C59.575 152.139 60.9863 151.35 62.4814 151.35C63.9765 151.35 65.3879 152.139 66.452 153.526C67.5166 154.915 68.1987 156.868 68.1987 159.06Z" fill="#3E3E3E"/>
<path fill-rule="evenodd" clip-rule="evenodd" d="M72.2824 159.06C72.2824 162.825 71.1404 166.201 69.3337 168.618C67.5269 171.035 65.0953 172.45 62.4814 172.45C59.8675 172.45 57.436 171.035 55.6292 168.618C53.8224 166.201 52.6804 162.825 52.6804 159.06C52.6804 155.295 53.8224 151.918 55.6292 149.502C57.436 147.085 59.8675 145.67 62.4814 145.67C65.0953 145.67 67.5269 147.085 69.3337 149.502C71.1404 151.918 72.2824 155.295 72.2824 159.06ZM62.4814 167.581C66.09 167.581 69.0154 163.766 69.0154 159.06C69.0154 154.354 66.09 150.539 62.4814 150.539C58.8728 150.539 55.9474 154.354 55.9474 159.06C55.9474 163.766 58.8728 167.581 62.4814 167.581Z" fill="#DDF1FF"/>
<path fill-rule="evenodd" clip-rule="evenodd" d="M79.6332 159.06C79.6332 165.513 77.6689 171.324 74.5323 175.503C71.3959 179.682 67.1266 182.188 62.4814 182.188C57.8363 182.188 53.5669 179.682 50.4305 175.503C47.294 171.324 45.3297 165.513 45.3297 159.06C45.3297 152.607 47.294 146.796 50.4305 142.617C53.5669 138.438 57.8363 135.931 62.4814 135.931C67.1266 135.931 71.3959 138.438 74.5323 142.617C77.6689 146.796 79.6332 152.607 79.6332 159.06ZM80.0416 153.961C78.2878 143.189 71.0919 135.12 62.4814 135.12C52.9671 135.12 45.1799 144.972 44.5536 157.437C44.5266 157.973 44.5129 158.514 44.5129 159.06C44.5129 172.282 52.5577 183 62.4814 183C64.0924 183 65.6539 182.718 67.1395 182.188C73.5941 179.886 78.6159 172.915 80.0416 164.158C80.6065 167.629 81.7363 170.818 83.2962 173.548C86.5784 179.292 91.7651 183 97.6017 183C99.2225 183 100.793 182.714 102.287 182.178C109.939 179.432 115.57 170.122 115.57 159.06C115.57 158.652 115.563 158.246 115.547 157.843C115.537 157.571 115.524 157.3 115.507 157.031C114.734 144.759 107.013 135.12 97.6017 135.12C88.9912 135.12 81.7953 143.189 80.0416 153.961ZM80.4499 159.06C80.4499 157.31 80.3091 155.604 80.0416 153.961C79.7741 155.604 79.6332 157.31 79.6332 159.06C79.6332 160.81 79.7741 162.515 80.0416 164.158C80.3091 162.515 80.4499 160.81 80.4499 159.06ZM80.4499 159.06C80.4499 165.513 82.4143 171.324 85.5508 175.503C88.6872 179.682 92.9565 182.188 97.6017 182.188C102.247 182.188 106.516 179.682 109.653 175.503C112.789 171.324 114.753 165.513 114.753 159.06C114.753 152.607 112.789 146.796 109.653 142.617C106.516 138.438 102.247 135.931 97.6017 135.931C92.9565 135.931 88.6872 138.438 85.5508 142.617C82.4143 146.796 80.4499 152.607 80.4499 159.06Z" fill="#3E3E3E"/>
<path d="M79.6332 159.06C79.6332 160.81 79.7741 162.515 80.0416 164.158C80.3091 162.515 80.4499 160.81 80.4499 159.06C80.4499 157.31 80.3091 155.604 80.0416 153.961C79.7741 155.604 79.6332 157.31 79.6332 159.06Z" fill="#3E3E3E"/>
<path fill-rule="evenodd" clip-rule="evenodd" d="M109.653 175.503C112.789 171.324 114.753 165.513 114.753 159.06C114.753 152.607 112.789 146.796 109.653 142.617C106.516 138.438 102.247 135.931 97.6017 135.931C92.9565 135.931 88.6872 138.438 85.5508 142.617C82.4143 146.796 80.4499 152.607 80.4499 159.06C80.4499 165.513 82.4143 171.324 85.5508 175.503C88.6872 179.682 92.9565 182.188 97.6017 182.188C102.247 182.188 106.516 179.682 109.653 175.503ZM104.454 168.618C106.261 166.201 107.403 162.825 107.403 159.06C107.403 155.295 106.261 151.918 104.454 149.502C102.647 147.085 100.216 145.67 97.6017 145.67C94.9878 145.67 92.5562 147.085 90.7494 149.502C88.9427 151.918 87.8007 155.295 87.8007 159.06C87.8007 162.825 88.9427 166.201 90.7494 168.618C92.5562 171.035 94.9878 172.45 97.6017 172.45C100.216 172.45 102.647 171.035 104.454 168.618Z" fill="#3E3E3E"/>
<path fill-rule="evenodd" clip-rule="evenodd" d="M104.136 159.06C104.136 163.766 101.21 167.581 97.6017 167.581C93.9931 167.581 91.0677 163.766 91.0677 159.06C91.0677 154.354 93.9931 150.539 97.6017 150.539C101.21 150.539 104.136 154.354 104.136 159.06ZM101.572 164.593C102.637 163.205 103.319 161.251 103.319 159.06C103.319 156.868 102.637 154.915 101.572 153.526C100.508 152.139 99.0968 151.35 97.6017 151.35C96.1066 151.35 94.6953 152.139 93.6311 153.526C92.5665 154.915 91.8844 156.868 91.8844 159.06C91.8844 161.251 92.5665 163.205 93.6311 164.593C94.6953 165.981 96.1066 166.769 97.6017 166.769C99.0968 166.769 100.508 165.981 101.572 164.593Z" fill="#3E3E3E"/>
<path d="M103.319 159.06C103.319 161.251 102.637 163.205 101.572 164.593C100.508 165.981 99.0968 166.769 97.6017 166.769C96.1066 166.769 94.6953 165.981 93.6311 164.593C92.5665 163.205 91.8844 161.251 91.8844 159.06C91.8844 156.868 92.5665 154.915 93.6311 153.526C94.6953 152.139 96.1066 151.35 97.6017 151.35C99.0968 151.35 100.508 152.139 101.572 153.526C102.637 154.915 103.319 156.868 103.319 159.06Z" fill="#3E3E3E"/>
<path fill-rule="evenodd" clip-rule="evenodd" d="M107.403 159.06C107.403 162.825 106.261 166.201 104.454 168.618C102.647 171.035 100.216 172.45 97.6017 172.45C94.9878 172.45 92.5562 171.035 90.7494 168.618C88.9427 166.201 87.8007 162.825 87.8007 159.06C87.8007 155.295 88.9427 151.918 90.7494 149.502C92.5562 147.085 94.9878 145.67 97.6017 145.67C100.216 145.67 102.647 147.085 104.454 149.502C106.261 151.918 107.403 155.295 107.403 159.06ZM97.6017 167.581C101.21 167.581 104.136 163.766 104.136 159.06C104.136 154.354 101.21 150.539 97.6017 150.539C93.9931 150.539 91.0677 154.354 91.0677 159.06C91.0677 163.766 93.9931 167.581 97.6017 167.581Z" fill="#DDF1FF"/>
<path fill-rule="evenodd" clip-rule="evenodd" d="M269.119 159.06C269.119 162.825 267.977 166.201 266.171 168.618C264.364 171.035 261.932 172.45 259.318 172.45C256.704 172.45 254.273 171.035 252.466 168.618C250.659 166.201 249.517 162.825 249.517 159.06C249.517 155.295 250.659 151.918 252.466 149.502C254.273 147.085 256.704 145.67 259.318 145.67C261.932 145.67 264.364 147.085 266.171 149.502C267.977 151.918 269.119 155.295 269.119 159.06ZM259.318 167.581C262.927 167.581 265.852 163.766 265.852 159.06C265.852 154.354 262.927 150.539 259.318 150.539C255.71 150.539 252.784 154.354 252.784 159.06C252.784 163.766 255.71 167.581 259.318 167.581Z" fill="#DDF1FF"/>
<path fill-rule="evenodd" clip-rule="evenodd" d="M306.49 175.503C309.626 171.324 311.59 165.513 311.59 159.06C311.59 152.607 309.626 146.796 306.49 142.617C303.353 138.438 299.084 135.931 294.439 135.931C289.793 135.931 285.524 138.438 282.388 142.617C279.251 146.796 277.287 152.607 277.287 159.06C277.287 165.513 279.251 171.324 282.388 175.503C285.524 179.682 289.793 182.188 294.439 182.188C299.084 182.188 303.353 179.682 306.49 175.503ZM294.439 173.262C300.303 173.262 305.056 166.903 305.056 159.06C305.056 151.216 300.303 144.858 294.439 144.858C288.575 144.858 283.821 151.216 283.821 159.06C283.821 166.903 288.575 173.262 294.439 173.262Z" fill="#3E3E3E"/>
<path fill-rule="evenodd" clip-rule="evenodd" d="M304.24 159.06C304.24 162.825 303.098 166.201 301.291 168.618C299.484 171.035 297.052 172.45 294.439 172.45C291.825 172.45 289.393 171.035 287.586 168.618C285.78 166.201 284.638 162.825 284.638 159.06C284.638 155.295 285.78 151.918 287.586 149.502C289.393 147.085 291.825 145.67 294.439 145.67C297.052 145.67 299.484 147.085 301.291 149.502C303.098 151.918 304.24 155.295 304.24 159.06ZM294.439 167.581C298.047 167.581 300.973 163.766 300.973 159.06C300.973 154.354 298.047 150.539 294.439 150.539C290.83 150.539 287.905 154.354 287.905 159.06C287.905 163.766 290.83 167.581 294.439 167.581Z" fill="#DDF1FF"/>
<path d="M300.156 159.06C300.156 161.251 299.474 163.205 298.409 164.593C297.345 165.981 295.934 166.769 294.439 166.769C292.943 166.769 291.532 165.981 290.468 164.593C289.403 163.205 288.721 161.251 288.721 159.06C288.721 156.868 289.403 154.915 290.468 153.526C291.532 152.139 292.943 151.35 294.439 151.35C295.934 151.35 297.345 152.139 298.409 153.526C299.474 154.915 300.156 156.868 300.156 159.06Z" fill="#3E3E3E"/>
<path fill-rule="evenodd" clip-rule="evenodd" d="M410.417 159.06C410.417 165.513 408.453 171.324 405.316 175.503C402.18 179.682 397.911 182.188 393.265 182.188C388.62 182.188 384.351 179.682 381.214 175.503C378.078 171.324 376.114 165.513 376.114 159.06C376.114 152.607 378.078 146.796 381.214 142.617C384.351 138.438 388.62 135.931 393.265 135.931C397.911 135.931 402.18 138.438 405.316 142.617C408.453 146.796 410.417 152.607 410.417 159.06ZM393.265 173.262C399.129 173.262 403.883 166.903 403.883 159.06C403.883 151.216 399.129 144.858 393.265 144.858C387.401 144.858 382.648 151.216 382.648 159.06C382.648 166.903 387.401 173.262 393.265 173.262Z" fill="#3E3E3E"/>
<path fill-rule="evenodd" clip-rule="evenodd" d="M403.066 159.06C403.066 162.825 401.924 166.201 400.118 168.618C398.311 171.035 395.879 172.45 393.265 172.45C390.651 172.45 388.22 171.035 386.413 168.618C384.606 166.201 383.464 162.825 383.464 159.06C383.464 155.295 384.606 151.918 386.413 149.502C388.22 147.085 390.651 145.67 393.265 145.67C395.879 145.67 398.311 147.085 400.118 149.502C401.924 151.918 403.066 155.295 403.066 159.06ZM393.265 167.581C396.874 167.581 399.799 163.766 399.799 159.06C399.799 154.354 396.874 150.539 393.265 150.539C389.657 150.539 386.731 154.354 386.731 159.06C386.731 163.766 389.657 167.581 393.265 167.581Z" fill="#DDF1FF"/>
<path d="M398.983 159.06C398.983 161.251 398.301 163.205 397.236 164.593C396.172 165.981 394.761 166.769 393.265 166.769C391.77 166.769 390.359 165.981 389.295 164.593C388.23 163.205 387.548 161.251 387.548 159.06C387.548 156.868 388.23 154.915 389.295 153.526C390.359 152.139 391.77 151.35 393.265 151.35C394.761 151.35 396.172 152.139 397.236 153.526C398.301 154.915 398.983 156.868 398.983 159.06Z" fill="#3E3E3E"/>
<path fill-rule="evenodd" clip-rule="evenodd" d="M20.8271 156.625V134.714H46.7426L49.1929 131.874H132.061L133.286 134.308H212.547H243.107L246.782 131.874H341.402H342.219H354.878V127.004H399.329C408.617 129.89 413.969 136.663 416.888 143.953C419.744 151.085 420.258 158.684 419.845 163.523H414.474C413.695 152.637 410.831 144.994 406.918 140.113C402.953 135.166 397.919 133.069 392.958 133.325C383.144 133.831 373.838 143.501 373.666 157.842H315.256C314.947 148.275 309.417 138.904 302.016 134.885C298.251 132.841 293.991 132.178 289.701 133.601C285.544 134.98 281.41 138.301 277.686 144.108C273.764 138.299 269.486 135.033 265.241 133.706C260.864 132.336 256.577 133.045 252.844 135.068C245.527 139.033 240.291 148.074 240.518 156.625H117.194C116.888 147.068 111.459 137.991 104.148 134.272C100.429 132.38 96.2199 131.876 91.9729 133.415C87.8585 134.906 83.7534 138.299 80.0325 144.108C76.1107 138.299 71.8319 135.033 67.5875 133.706C63.2108 132.336 58.9231 133.045 55.1903 135.068C47.8736 139.033 42.6372 148.074 42.8641 156.625H20.8271ZM29.8114 143.235C28.4582 143.235 27.3611 144.325 27.3611 145.67C27.3611 147.014 28.4582 148.104 29.8114 148.104H33.0784C34.4316 148.104 35.5286 147.014 35.5286 145.67C35.5286 144.325 34.4316 143.235 33.0784 143.235H29.8114ZM125.371 143.235C124.018 143.235 122.921 144.325 122.921 145.67C122.921 147.014 124.018 148.104 125.371 148.104H128.638C129.991 148.104 131.088 147.014 131.088 145.67C131.088 144.325 129.991 143.235 128.638 143.235H125.371ZM228.282 143.235C226.929 143.235 225.832 144.325 225.832 145.67C225.832 147.014 226.929 148.104 228.282 148.104H231.549C232.902 148.104 233.999 147.014 233.999 145.67C233.999 144.325 232.902 143.235 231.549 143.235H228.282ZM319.758 143.235C318.405 143.235 317.308 144.325 317.308 145.67C317.308 147.014 318.405 148.104 319.758 148.104H323.025C324.378 148.104 325.475 147.014 325.475 145.67C325.475 144.325 324.378 143.235 323.025 143.235H319.758Z" fill="#3E3E3E"/>
<path d="M419.739 164.335H413.71L410.768 164.502C409.084 174.152 403.02 181.563 395.519 182.814C412.35 181.185 418.216 175.044 419.739 164.335Z" fill="#161616"/>
<path fill-rule="evenodd" clip-rule="evenodd" d="M416.134 69.3858C414.781 69.3858 413.684 70.4758 413.684 71.8204V78.8576V90.4856C413.684 91.8302 414.781 92.9202 416.134 92.9202H417.934H418.6H421.035C422.388 92.9202 423.485 91.8302 423.485 90.4856V80.6593V71.8204C423.485 70.4758 422.388 69.3858 421.035 69.3858H419.265H418.585H416.134Z" fill="#F00808"/>
<path fill-rule="evenodd" clip-rule="evenodd" d="M17.9685 11.7672C16.3897 11.7672 15.1099 13.0389 15.1099 14.6075V116.049C15.1099 117.617 16.3897 118.889 17.9685 118.889C19.5473 118.889 20.8271 117.617 20.8271 116.049V14.6075C20.8271 13.0389 19.5473 11.7672 17.9685 11.7672ZM36.7538 11.7672C35.175 11.7672 33.8951 13.0389 33.8951 14.6075V116.049C33.8951 117.617 35.175 118.889 36.7538 118.889C38.3326 118.889 39.6124 117.617 39.6124 116.049V14.6075C39.6124 13.0389 38.3326 11.7672 36.7538 11.7672ZM52.6804 14.6075C52.6804 13.0389 53.9603 11.7672 55.539 11.7672C57.1178 11.7672 58.3977 13.0389 58.3977 14.6075V116.049C58.3977 117.617 57.1178 118.889 55.539 118.889C53.9603 118.889 52.6804 117.617 52.6804 116.049V14.6075ZM74.3243 11.7672C72.7455 11.7672 71.4657 13.0389 71.4657 14.6075V116.049C71.4657 117.617 72.7455 118.889 74.3243 118.889C75.9031 118.889 77.1829 117.617 77.1829 116.049V14.6075C77.1829 13.0389 75.9031 11.7672 74.3243 11.7672ZM90.2509 14.6075C90.2509 13.0389 91.5308 11.7672 93.1096 11.7672C94.6883 11.7672 95.9682 13.0389 95.9682 14.6075V116.049C95.9682 117.617 94.6883 118.889 93.1096 118.889C91.5308 118.889 90.2509 117.617 90.2509 116.049V14.6075ZM111.895 11.7672C110.316 11.7672 109.036 13.0389 109.036 14.6075V116.049C109.036 117.617 110.316 118.889 111.895 118.889C113.474 118.889 114.753 117.617 114.753 116.049V14.6075C114.753 13.0389 113.474 11.7672 111.895 11.7672ZM127.821 14.6075C127.821 13.0389 129.101 11.7672 130.68 11.7672C132.259 11.7672 133.539 13.0389 133.539 14.6075V116.049C133.539 117.617 132.259 118.889 130.68 118.889C129.101 118.889 127.821 117.617 127.821 116.049V14.6075ZM149.465 11.7672C147.887 11.7672 146.607 13.0389 146.607 14.6075V116.049C146.607 117.617 147.887 118.889 149.465 118.889C151.044 118.889 152.324 117.617 152.324 116.049V14.6075C152.324 13.0389 151.044 11.7672 149.465 11.7672ZM165.392 14.6075C165.392 13.0389 166.672 11.7672 168.251 11.7672C169.829 11.7672 171.109 13.0389 171.109 14.6075V116.049C171.109 117.617 169.829 118.889 168.251 118.889C166.672 118.889 165.392 117.617 165.392 116.049V14.6075ZM187.036 11.7672C185.457 11.7672 184.177 13.0389 184.177 14.6075V116.049C184.177 117.617 185.457 118.889 187.036 118.889C188.615 118.889 189.895 117.617 189.895 116.049V14.6075C189.895 13.0389 188.615 11.7672 187.036 11.7672ZM202.963 14.6075C202.963 13.0389 204.242 11.7672 205.821 11.7672C207.4 11.7672 208.68 13.0389 208.68 14.6075V116.049C208.68 117.617 207.4 118.889 205.821 118.889C204.242 118.889 202.963 117.617 202.963 116.049V14.6075ZM224.606 11.7672C223.028 11.7672 221.748 13.0389 221.748 14.6075V116.049C221.748 117.617 223.028 118.889 224.606 118.889C226.185 118.889 227.465 117.617 227.465 116.049V14.6075C227.465 13.0389 226.185 11.7672 224.606 11.7672ZM240.533 14.6075C240.533 13.0389 241.813 11.7672 243.392 11.7672C244.97 11.7672 246.25 13.0389 246.25 14.6075V116.049C246.25 117.617 244.97 118.889 243.392 118.889C241.813 118.889 240.533 117.617 240.533 116.049V14.6075ZM262.177 11.7672C260.598 11.7672 259.318 13.0389 259.318 14.6075V116.049C259.318 117.617 260.598 118.889 262.177 118.889C263.756 118.889 265.036 117.617 265.036 116.049V14.6075C265.036 13.0389 263.756 11.7672 262.177 11.7672ZM278.104 14.6075C278.104 13.0389 279.383 11.7672 280.962 11.7672C282.541 11.7672 283.821 13.0389 283.821 14.6075V116.049C283.821 117.617 282.541 118.889 280.962 118.889C279.383 118.889 278.104 117.617 278.104 116.049V14.6075ZM299.747 11.7672C298.169 11.7672 296.889 13.0389 296.889 14.6075V116.049C296.889 117.617 298.169 118.889 299.747 118.889C301.326 118.889 302.606 117.617 302.606 116.049V14.6075C302.606 13.0389 301.326 11.7672 299.747 11.7672ZM315.674 14.6075C315.674 13.0389 316.954 11.7672 318.533 11.7672C320.112 11.7672 321.391 13.0389 321.391 14.6075V116.049C321.391 117.617 320.112 118.889 318.533 118.889C316.954 118.889 315.674 117.617 315.674 116.049V14.6075Z" fill="#023F6A"/>
<path d="M413.685 163.956L413.71 164.335H419.739L419.837 163.589L419.845 163.523H414.474C413.695 152.637 410.831 144.994 406.918 140.113C402.953 135.166 397.919 133.069 392.958 133.325C383.144 133.831 373.838 143.501 373.666 157.842H315.256C314.947 148.275 309.417 138.904 302.016 134.885C298.251 132.841 293.991 132.178 289.701 133.601C285.544 134.98 281.41 138.301 277.686 144.108C273.764 138.299 269.486 135.033 265.241 133.706C260.864 132.336 256.577 133.045 252.844 135.068C245.527 139.033 240.291 148.074 240.518 156.625H117.194C116.888 147.068 111.459 137.991 104.148 134.272C100.429 132.38 96.2199 131.876 91.9729 133.415C87.8585 134.906 83.7534 138.299 80.0325 144.108C76.1107 138.299 71.8319 135.033 67.5875 133.706C63.2108 132.336 58.9231 133.045 55.1903 135.068C47.8736 139.033 42.6372 148.074 42.8641 156.625H20.8271V134.714H46.7426L49.1929 131.874H48.1171L46.367 133.902H20.0104V157.437H43.7161L43.6957 157.012C43.2947 148.645 48.4201 139.661 55.5814 135.78C59.1484 133.847 63.2069 133.186 67.3422 134.48C71.4828 135.775 75.7527 139.047 79.6992 145.079L80.0506 145.617L80.3892 145.071C84.1345 139.036 88.2356 135.633 92.2528 134.177C96.2627 132.724 100.236 133.193 103.776 134.994C110.88 138.607 116.223 147.584 116.387 157.031H122.921H124.554H125.371H156.408H167.842H201.329C201.329 157.144 201.328 157.257 201.327 157.37L201.326 157.437H241.37L241.349 157.012C240.948 148.645 246.074 139.661 253.235 135.78C256.802 133.847 260.86 133.186 264.996 134.48C269.136 135.775 273.406 139.047 277.353 145.079L277.704 145.616L278.043 145.071C281.787 139.038 285.91 135.714 289.96 134.371C294.003 133.03 298.028 133.645 301.624 135.597C308.842 139.516 314.288 148.808 314.449 158.255L314.456 158.654H374.48V158.248C374.48 144.003 383.632 134.618 393.001 134.135C397.678 133.894 402.465 135.86 406.279 140.618C410.101 145.386 412.953 152.97 413.685 163.956Z" fill="#3E3E3E"/>
<path d="M167.831 157.843H167.014C166.93 160.885 166.37 163.885 165.363 166.697C164.55 168.966 163.457 171.078 162.125 172.969C162.29 173.204 162.459 173.435 162.632 173.662C164.082 171.652 165.263 169.396 166.133 166.969C167.172 164.068 167.747 160.976 167.831 157.843Z" fill="#161616"/>
<path d="M156.419 157.843C156.503 160.976 157.078 164.068 158.117 166.969C158.987 169.396 160.168 171.652 161.618 173.662C161.791 173.435 161.96 173.204 162.125 172.969C163.457 171.078 164.55 168.966 165.363 166.697C166.37 163.885 166.93 160.885 167.014 157.843H157.236H156.419Z" fill="#161616"/>
<path d="M200.501 157.843C200.416 160.885 199.857 163.885 198.85 166.697C197.753 169.758 196.148 172.533 194.131 174.865C192.114 177.197 189.727 179.038 187.109 180.292C184.492 181.546 181.692 182.188 178.868 182.188C176.045 182.188 173.245 181.546 170.628 180.292C168.01 179.038 165.622 177.197 163.606 174.865C163.269 174.476 162.945 174.075 162.632 173.662C162.466 173.892 162.297 174.118 162.125 174.341C162.403 174.701 162.69 175.052 162.986 175.394C165.072 177.805 167.548 179.718 170.273 181.023C172.998 182.328 175.919 183 178.868 183C181.818 183 184.739 182.328 187.464 181.023C190.189 179.718 192.665 177.805 194.75 175.394C196.836 172.982 198.491 170.12 199.619 166.969C200.658 164.068 201.233 160.976 201.318 157.843C201.32 157.76 201.322 157.678 201.324 157.596L201.325 157.526L201.326 157.437L201.327 157.37C201.328 157.257 201.329 157.144 201.329 157.031H167.842H156.408H125.371H124.554H122.921H116.387H115.507C115.524 157.3 115.537 157.571 115.547 157.843H122.932H123.726H123.749H124.543H125.36H156.419H157.236H167.014H167.831H200.501Z" fill="#161616"/>
<path d="M125.36 157.843H124.543C124.506 159.216 124.375 160.581 124.152 161.926C124.266 162.597 124.405 163.263 124.566 163.922C125.037 161.942 125.305 159.901 125.36 157.843Z" fill="#161616"/>
<path d="M124.543 157.843H123.749C123.787 159.206 123.92 160.56 124.146 161.893C124.372 160.56 124.505 159.206 124.543 157.843Z" fill="#161616"/>
<path d="M124.152 161.926C124.375 160.581 124.506 159.216 124.543 157.843C124.505 159.206 124.372 160.56 124.146 161.893L124.152 161.926Z" fill="#9B0404"/>
<path d="M122.932 157.843C122.969 159.216 123.1 160.582 123.324 161.927C123.553 160.583 123.688 159.217 123.726 157.843H122.932Z" fill="#161616"/>
<path d="M162.632 173.662C162.459 173.435 162.29 173.204 162.125 172.969C161.96 173.204 161.791 173.435 161.618 173.662C161.784 173.892 161.953 174.118 162.125 174.341C162.297 174.118 162.466 173.892 162.632 173.662Z" fill="#161616"/>
<path fill-rule="evenodd" clip-rule="evenodd" d="M419.739 164.335C419.747 164.276 419.756 164.217 419.764 164.158C419.771 164.109 419.777 164.059 419.784 164.009C419.787 163.983 419.791 163.957 419.794 163.931L419.798 163.905L419.801 163.88C419.808 163.828 419.814 163.776 419.821 163.723L419.831 163.645C419.833 163.626 419.835 163.608 419.837 163.589C419.84 163.567 419.843 163.545 419.845 163.523L419.837 163.589L419.739 164.335ZM132.061 131.874L133.286 134.308H212.547L211.73 133.497L210.368 131.874H209.305L210.667 133.497H133.791L132.974 131.874H132.061Z" fill="#161616"/>
<path d="M270.737 180.727C273.319 179.762 275.661 178.351 277.63 176.576C278.601 175.7 279.473 174.744 280.234 173.723C278.622 170.955 277.455 167.703 276.878 164.158C275.463 172.855 270.5 179.789 264.11 182.139C266.387 181.992 268.625 181.516 270.737 180.727Z" fill="#161616"/>
<path d="M491.256 163.929H448.824C448.827 163.995 448.83 164.06 448.834 164.126C448.838 164.196 448.843 164.265 448.848 164.335H491.232C491.242 164.2 491.25 164.064 491.256 163.929Z" fill="#D10505"/>
<path d="M448.824 163.929H491.256C491.25 164.064 491.242 164.2 491.232 164.335H492.051C492.053 164.302 492.055 164.268 492.057 164.235C492.064 164.133 492.069 164.031 492.074 163.929C492.08 163.794 492.085 163.659 492.088 163.523H447.992C447.995 163.659 448 163.794 448.006 163.929C448.012 164.064 448.02 164.2 448.029 164.335H448.848C448.843 164.265 448.838 164.196 448.834 164.126C448.83 164.06 448.827 163.995 448.824 163.929Z" fill="#D10505"/>
<path d="M492.092 163.118H447.988C447.988 163.253 447.989 163.388 447.992 163.523H492.088C492.091 163.388 492.092 163.253 492.092 163.118Z" fill="#F00808"/>
<path fill-rule="evenodd" clip-rule="evenodd" d="M132.061 131.874H49.1929H48.1171H0V0H342.219V131.062V131.874H341.402H246.782H245.31H210.368H209.305H132.974H132.061ZM17.9685 11.7672C16.3897 11.7672 15.1099 13.0389 15.1099 14.6075V116.049C15.1099 117.617 16.3897 118.889 17.9685 118.889C19.5473 118.889 20.8271 117.617 20.8271 116.049V14.6075C20.8271 13.0389 19.5473 11.7672 17.9685 11.7672ZM36.7538 11.7672C35.175 11.7672 33.8951 13.0389 33.8951 14.6075V116.049C33.8951 117.617 35.175 118.889 36.7538 118.889C38.3326 118.889 39.6124 117.617 39.6124 116.049V14.6075C39.6124 13.0389 38.3326 11.7672 36.7538 11.7672ZM52.6804 14.6075C52.6804 13.0389 53.9603 11.7672 55.539 11.7672C57.1178 11.7672 58.3977 13.0389 58.3977 14.6075V116.049C58.3977 117.617 57.1178 118.889 55.539 118.889C53.9603 118.889 52.6804 117.617 52.6804 116.049V14.6075ZM74.3243 11.7672C72.7455 11.7672 71.4657 13.0389 71.4657 14.6075V116.049C71.4657 117.617 72.7455 118.889 74.3243 118.889C75.9031 118.889 77.1829 117.617 77.1829 116.049V14.6075C77.1829 13.0389 75.9031 11.7672 74.3243 11.7672ZM90.2509 14.6075C90.2509 13.0389 91.5308 11.7672 93.1096 11.7672C94.6883 11.7672 95.9682 13.0389 95.9682 14.6075V116.049C95.9682 117.617 94.6883 118.889 93.1096 118.889C91.5308 118.889 90.2509 117.617 90.2509 116.049V14.6075ZM111.895 11.7672C110.316 11.7672 109.036 13.0389 109.036 14.6075V116.049C109.036 117.617 110.316 118.889 111.895 118.889C113.474 118.889 114.753 117.617 114.753 116.049V14.6075C114.753 13.0389 113.474 11.7672 111.895 11.7672ZM127.821 14.6075C127.821 13.0389 129.101 11.7672 130.68 11.7672C132.259 11.7672 133.539 13.0389 133.539 14.6075V116.049C133.539 117.617 132.259 118.889 130.68 118.889C129.101 118.889 127.821 117.617 127.821 116.049V14.6075ZM149.465 11.7672C147.887 11.7672 146.607 13.0389 146.607 14.6075V116.049C146.607 117.617 147.887 118.889 149.465 118.889C151.044 118.889 152.324 117.617 152.324 116.049V14.6075C152.324 13.0389 151.044 11.7672 149.465 11.7672ZM165.392 14.6075C165.392 13.0389 166.672 11.7672 168.251 11.7672C169.829 11.7672 171.109 13.0389 171.109 14.6075V116.049C171.109 117.617 169.829 118.889 168.251 118.889C166.672 118.889 165.392 117.617 165.392 116.049V14.6075ZM187.036 11.7672C185.457 11.7672 184.177 13.0389 184.177 14.6075V116.049C184.177 117.617 185.457 118.889 187.036 118.889C188.615 118.889 189.895 117.617 189.895 116.049V14.6075C189.895 13.0389 188.615 11.7672 187.036 11.7672ZM202.963 14.6075C202.963 13.0389 204.242 11.7672 205.821 11.7672C207.4 11.7672 208.68 13.0389 208.68 14.6075V116.049C208.68 117.617 207.4 118.889 205.821 118.889C204.242 118.889 202.963 117.617 202.963 116.049V14.6075ZM224.606 11.7672C223.028 11.7672 221.748 13.0389 221.748 14.6075V116.049C221.748 117.617 223.028 118.889 224.606 118.889C226.185 118.889 227.465 117.617 227.465 116.049V14.6075C227.465 13.0389 226.185 11.7672 224.606 11.7672ZM240.533 14.6075C240.533 13.0389 241.813 11.7672 243.392 11.7672C244.97 11.7672 246.25 13.0389 246.25 14.6075V116.049C246.25 117.617 244.97 118.889 243.392 118.889C241.813 118.889 240.533 117.617 240.533 116.049V14.6075ZM262.177 11.7672C260.598 11.7672 259.318 13.0389 259.318 14.6075V116.049C259.318 117.617 260.598 118.889 262.177 118.889C263.756 118.889 265.036 117.617 265.036 116.049V14.6075C265.036 13.0389 263.756 11.7672 262.177 11.7672ZM278.104 14.6075C278.104 13.0389 279.383 11.7672 280.962 11.7672C282.541 11.7672 283.821 13.0389 283.821 14.6075V116.049C283.821 117.617 282.541 118.889 280.962 118.889C279.383 118.889 278.104 117.617 278.104 116.049V14.6075ZM299.747 11.7672C298.169 11.7672 296.889 13.0389 296.889 14.6075V116.049C296.889 117.617 298.169 118.889 299.747 118.889C301.326 118.889 302.606 117.617 302.606 116.049V14.6075C302.606 13.0389 301.326 11.7672 299.747 11.7672ZM315.674 14.6075C315.674 13.0389 316.954 11.7672 318.533 11.7672C320.112 11.7672 321.391 13.0389 321.391 14.6075V116.049C321.391 117.617 320.112 118.889 318.533 118.889C316.954 118.889 315.674 117.617 315.674 116.049V14.6075Z" fill="#00548F"/>
<path d="M354.878 126.193V0.814661V0H354.061V131.062H342.219V131.874H354.878V127.004V126.193Z" fill="#023F6A"/>
<path fill-rule="evenodd" clip-rule="evenodd" d="M413.684 78.8576V90.4856C413.684 91.8302 414.781 92.9202 416.134 92.9202H417.934H418.6H421.035C422.388 92.9202 423.485 91.8302 423.485 90.4856V80.6593V71.8204C423.485 70.4758 422.388 69.3858 421.035 69.3858H419.265H418.585H416.134C414.781 69.3858 413.684 70.4758 413.684 71.8204V78.8576Z" fill="#F00808"/>
<path d="M417.934 92.9202C417.823 94.2173 417.801 97.0071 418.6 97.7894H419.265C418.467 97.0071 418.489 94.2173 418.6 92.9202H417.934Z" fill="#161616"/>
<path d="M420.264 66.1397C418.933 66.1397 418.59 68.3038 418.585 69.3858H419.265C419.265 68.3287 419.598 66.1995 420.929 66.1397H420.264Z" fill="#161616"/>
<path d="M403.883 66.1397C401.628 66.1397 399.799 67.9564 399.799 70.1973V76.3051L413.684 78.8576V71.8204C413.684 70.4758 414.781 69.3858 416.134 69.3858H418.585C418.59 68.3038 418.933 66.1397 420.264 66.1397H403.883Z" fill="#51696B"/>
<path d="M426.752 70.1973C426.752 67.9564 424.924 66.1397 422.668 66.1397H420.929C419.598 66.1995 419.265 68.3287 419.265 69.3858H421.035C422.388 69.3858 423.485 70.4758 423.485 71.8204V80.6593L426.752 81.2599V70.1973Z" fill="#51696B"/>
<path d="M399.799 93.7317C399.799 95.9727 401.628 97.7894 403.883 97.7894H418.6C417.801 97.0071 417.823 94.2173 417.934 92.9202H416.134C414.781 92.9202 413.684 91.8302 413.684 90.4856V78.8576L399.799 76.3051V93.7317Z" fill="#365153"/>
<path d="M422.668 97.7894C424.924 97.7894 426.752 95.9727 426.752 93.7317V81.2599L423.485 80.6593V90.4856C423.485 91.8302 422.388 92.9202 421.035 92.9202H418.6C418.489 94.2173 418.467 97.0071 419.265 97.7894H422.668Z" fill="#365153"/>
<path fill-rule="evenodd" clip-rule="evenodd" d="M445.537 99.0067H501.698C501.604 87.6288 501.522 74.7583 501.495 65.3282H443.496C442.058 65.3282 440.904 65.5053 440.121 66.1522C439.316 66.8168 439.003 67.8847 439.003 69.3858V94.1375C439.003 96.8947 441.832 99.0067 445.537 99.0067ZM487.887 96.468C490.143 96.468 491.971 94.6514 491.971 92.4104V72.1793C491.971 69.9383 490.143 68.1216 487.887 68.1216H475.833L453.039 68.7948C456.927 75.1691 460.526 81.2599 464.187 96.468H487.887Z" fill="#365153"/>
<path d="M471.764 68.1216C469.509 68.1216 467.68 69.9383 467.68 72.1793V92.4104C467.68 94.6514 469.509 96.468 471.764 96.468H483.819C485.682 87.2295 479.271 72.6199 475.833 68.1216H471.764Z" fill="#729091"/>
<path fill-rule="evenodd" clip-rule="evenodd" d="M483.819 96.468H487.887C490.143 96.468 491.971 94.6514 491.971 92.4104V72.1793C491.971 69.9383 490.143 68.1216 487.887 68.1216H475.833C479.271 72.6199 485.682 87.2295 483.819 96.468Z" fill="#51696B"/>
<path fill-rule="evenodd" clip-rule="evenodd" d="M491.971 92.4104C491.971 94.6514 490.143 96.468 487.887 96.468H464.187C460.526 81.2599 456.927 75.1691 453.039 68.7948L475.833 68.1216H487.887C490.143 68.1216 491.971 69.9383 491.971 72.1793V92.4104ZM467.68 72.1793C467.68 69.9383 469.509 68.1216 471.764 68.1216H475.833H487.887C490.143 68.1216 491.971 69.9383 491.971 72.1793V92.4104C491.971 94.6514 490.143 96.468 487.887 96.468H483.819H471.764C469.509 96.468 467.68 94.6514 467.68 92.4104V72.1793Z" fill="#51696B"/>
<path d="M443.439 113.614H441.055L440.627 130.656H446.012L443.439 113.614Z" fill="#365153"/>
<path d="M501.076 113.208H498.691L495.69 130.251H501.076V113.208Z" fill="#365153"/>
<path d="M493.317 142.424H451.255V148.916H493.317V142.424Z" fill="#365153"/>
<path d="M448.274 155.002H439.003V160.277H450.204L448.274 155.002Z" fill="#365153"/>
<path d="M501.689 155.002H493.836L492.146 160.277H501.689V155.002Z" fill="#365153"/>
<path d="M450.03 141.612H435.736V150.945H450.03V141.612Z" fill="#DDF1FF"/>
<path d="M493.726 150.945H502.215L502.114 141.612H493.726V150.945Z" fill="#DDF1FF"/>
<path d="M390.407 60.459H365.088V63.2993H390.407V60.459Z" fill="#9B0404"/>
<path d="M390.407 63.7051H365.088V65.7339H390.407V63.7051Z" fill="#9B0404"/>
<path d="M390.407 66.5455H365.088V98.6009H390.407V66.5455Z" fill="#9B0404"/>
<path d="M390.407 101.441H365.088V120.512H390.407V101.441Z" fill="#9B0404"/>
<path d="M361.61 0.81153C369.083 2.40709 377.229 6.23984 384.315 11.2748C393.621 17.8887 401.205 26.6545 402.994 35.303L469.245 35.8389C466.01 26.4642 453.287 6.30406 428.341 0.81153H361.61Z" fill="#9B0404"/>
<path fill-rule="evenodd" clip-rule="evenodd" d="M402.994 35.303C410.309 35.3669 417.707 37.5131 423.365 41.5139C429.116 45.5812 433.078 51.575 433.286 59.2307L433.286 59.2366L434.511 156.62L434.511 156.625C434.511 156.705 434.511 156.783 434.512 156.861C434.512 156.977 434.512 157.091 434.512 157.205C434.516 158.452 434.519 159.524 434.357 160.407C434.163 161.459 433.726 162.294 432.771 162.901C432.383 163.148 431.916 163.353 431.357 163.523H447.992C447.989 163.388 447.988 163.253 447.988 163.118H492.092C492.092 163.253 492.091 163.388 492.088 163.523H499.057L499.08 163.526C499.611 163.584 500.418 163.476 501.083 162.968C501.729 162.475 502.302 161.556 502.302 159.871C502.302 159.15 502.268 155.914 502.215 150.945H493.726V141.612H502.114C501.99 130.049 501.827 114.446 501.698 99.0067H445.537C441.832 99.0067 439.003 96.8947 439.003 94.1375V69.3858C439.003 67.8847 439.316 66.8168 440.121 66.1522C440.904 65.5053 442.058 65.3282 443.496 65.3282H501.495C501.49 63.195 501.485 61.1594 501.485 59.2417C501.485 53.6772 499.105 47.8251 493.949 43.3993C488.793 38.974 480.832 35.9518 469.638 36.113L469.341 36.1173L469.245 35.8389L402.994 35.303ZM494.926 113.614L494.95 113.994C495.01 114.924 495.078 116.027 495.137 117.234C495.168 117.879 495.196 118.554 495.218 119.247C495.271 120.903 495.29 122.665 495.235 124.387C495.209 125.2 495.166 126.004 495.103 126.784C495.056 127.358 494.997 127.921 494.926 128.467C494.722 130.014 494.41 131.419 493.943 132.531C493.316 134.024 492.345 135.12 490.867 135.12H453.705C451.884 135.12 450.774 133.573 450.096 131.612C449.774 130.68 449.533 129.609 449.354 128.467C449.149 127.164 449.026 125.771 448.958 124.387C448.87 122.602 448.872 120.819 448.914 119.247C448.933 118.525 448.96 117.847 448.99 117.234C449.038 116.259 449.094 115.447 449.138 114.878C449.143 114.812 449.148 114.749 449.153 114.69L449.16 114.599L449.167 114.522C449.177 114.401 449.186 114.299 449.193 114.217C449.2 114.14 449.205 114.081 449.209 114.042L449.213 113.996L449.215 113.982L449.215 113.981L449.251 113.614H494.926ZM498.691 113.208H501.076V130.251H495.69L498.691 113.208ZM441.055 113.614H443.439L446.012 130.656H440.627L441.055 113.614ZM435.736 141.612H450.03V150.945H435.736V141.612ZM451.255 142.424H493.317V148.916H451.255V142.424ZM439.003 155.002H448.274L450.204 160.277H439.003V155.002ZM493.836 155.002H501.689V160.277H492.146L493.836 155.002Z" fill="#F00808"/>
<path d="M495.137 117.234H448.99C448.96 117.847 448.933 118.525 448.914 119.247H495.218C495.196 118.554 495.168 117.879 495.137 117.234Z" fill="#51696B"/>
<path d="M495.103 126.784C495.166 126.004 495.209 125.2 495.235 124.387H448.958C449.026 125.771 449.149 127.164 449.354 128.467H494.926C494.997 127.921 495.056 127.358 495.103 126.784Z" fill="#51696B"/>
<path d="M494.95 113.994L494.926 113.614H449.251L449.215 113.981L449.215 113.982L449.213 113.996L449.209 114.042C449.205 114.081 449.2 114.14 449.193 114.217C449.186 114.299 449.177 114.401 449.167 114.522L449.16 114.599L449.153 114.69C449.148 114.749 449.143 114.812 449.138 114.878C449.094 115.447 449.038 116.259 448.99 117.234H495.137C495.078 116.027 495.01 114.924 494.95 113.994Z" fill="#365153"/>
<path d="M448.914 119.247C448.872 120.819 448.87 122.602 448.958 124.387H495.235C495.29 122.665 495.271 120.903 495.218 119.247H448.914Z" fill="#365153"/>
<path fill-rule="evenodd" clip-rule="evenodd" d="M490.414 170.726C491.349 168.69 491.902 166.53 492.051 164.335H491.232C491.084 166.412 490.558 168.458 489.671 170.389C488.61 172.698 487.053 174.801 485.084 176.576C483.116 178.351 480.774 179.762 478.192 180.727C475.609 181.691 472.839 182.188 470.04 182.188C467.241 182.188 464.471 181.691 461.888 180.727C459.306 179.762 456.964 178.351 454.995 176.576C453.027 174.801 451.47 172.698 450.409 170.389C449.522 168.458 448.996 166.412 448.848 164.335H448.029C448.178 166.53 448.731 168.69 449.666 170.726C450.775 173.138 452.399 175.33 454.447 177.177C456.494 179.023 458.925 180.487 461.601 181.487C464.276 182.486 467.144 183 470.04 183C472.936 183 475.803 182.486 478.479 181.487C481.155 180.487 483.586 179.023 485.633 177.177C487.681 175.33 489.305 173.138 490.414 170.726Z" fill="#161616"/>
<path d="M490.867 135.12C492.345 135.12 493.316 134.024 493.943 132.531C494.41 131.419 494.722 130.014 494.926 128.467H449.354C449.533 129.609 449.774 130.68 450.096 131.612C450.774 133.573 451.884 135.12 453.705 135.12H490.867Z" fill="#365153"/>
<path d="M413.479 136.094C413.641 136.312 413.8 136.533 413.955 136.755H425.335C430.579 136.755 430.579 132.356 430.579 126.929V69.9442C430.579 62.7617 430.579 60.1191 425.335 60.1191H401.216C393.976 60.1191 393.976 64.518 393.976 69.9442V126.193H394.642V69.9442C394.642 68.5799 394.642 67.3208 394.752 66.1827C394.861 65.0449 395.076 64.079 395.475 63.2948C395.866 62.5267 396.443 61.9145 397.324 61.484C398.221 61.0463 399.468 60.7798 401.216 60.7798H425.335C426.603 60.7798 427.468 60.9417 428.073 61.2371C428.65 61.5186 429.036 61.9437 429.309 62.5928C429.594 63.269 429.752 64.1843 429.833 65.4216C429.913 66.6534 429.913 68.1413 429.913 69.9442V126.929C429.913 129.689 429.904 132.007 429.298 133.65C429.005 134.444 428.587 135.035 427.993 135.436C427.395 135.839 426.554 136.094 425.335 136.094H413.479Z" fill="#9B0404"/>
<path fill-rule="evenodd" clip-rule="evenodd" d="M399.512 126.211L399.453 126.193H394.642V69.9442C394.642 68.5799 394.642 67.3208 394.752 66.1827C394.861 65.0449 395.076 64.079 395.475 63.2948C395.866 62.5267 396.443 61.9145 397.324 61.484C398.221 61.0463 399.468 60.7798 401.216 60.7798H425.335C426.603 60.7798 427.468 60.9417 428.073 61.2371C428.65 61.5186 429.036 61.9437 429.309 62.5928C429.594 63.269 429.752 64.1843 429.833 65.4216C429.913 66.6534 429.913 68.1413 429.913 69.9442V126.929C429.913 129.689 429.904 132.007 429.298 133.65C429.005 134.444 428.587 135.035 427.993 135.436C427.395 135.839 426.554 136.094 425.335 136.094H413.479C410.261 131.753 405.747 128.134 399.512 126.211ZM403.883 66.1397C401.628 66.1397 399.799 67.9564 399.799 70.1973V76.3051V93.7317C399.799 95.9727 401.628 97.7894 403.883 97.7894H418.6H419.265H422.668C424.924 97.7894 426.752 95.9727 426.752 93.7317V81.2599V70.1973C426.752 67.9564 424.924 66.1397 422.668 66.1397H420.929H420.264H403.883ZM402.25 101.847C401.348 101.847 400.616 102.574 400.616 103.47V106.716C400.616 107.613 401.348 108.339 402.25 108.339H403.066C403.969 108.339 404.7 107.613 404.7 106.716V103.47C404.7 102.574 403.969 101.847 403.066 101.847H402.25Z" fill="#D10505"/>
<path fill-rule="evenodd" clip-rule="evenodd" d="M414.055 136.898C415.532 139.032 416.713 141.321 417.647 143.653C420.544 150.887 421.076 158.576 420.665 163.523C424.031 163.517 426.538 163.438 428.409 163.24C430.371 163.032 431.578 162.697 432.331 162.218C433.05 161.76 433.39 161.15 433.553 160.261C433.701 159.458 433.699 158.472 433.695 157.212V157.21C433.695 157.022 433.695 156.827 433.695 156.626V156.625L432.47 59.2527L432.47 59.2509C432.269 51.8941 428.471 46.1214 422.891 42.1751C417.303 38.2233 409.935 36.1131 402.658 36.1131H402.319L402.257 35.7826C400.652 27.3329 393.2 18.5868 383.839 11.9349C374.629 5.38958 363.679 0.948927 354.878 0.814661V126.193H393.976V69.9442C393.976 64.518 393.976 60.1191 401.216 60.1191H425.335C430.579 60.1191 430.579 62.7617 430.579 69.9442V126.929C430.579 132.356 430.579 136.755 425.335 136.755H413.955L413.957 136.758C413.99 136.804 414.022 136.851 414.055 136.898ZM365.088 60.459H390.407V63.2993H365.088V60.459ZM365.088 63.7051H390.407V65.7339H365.088V63.7051ZM365.088 66.5455H390.407V98.6009H365.088V66.5455ZM365.088 101.441H390.407V120.512H365.088V101.441Z" fill="#D10505"/>
<path d="M413.71 164.335L413.685 163.956C412.953 152.97 410.101 145.386 406.279 140.618C402.465 135.86 397.678 133.894 393.001 134.135C383.632 134.618 374.48 144.003 374.48 158.248V158.654H314.456L314.449 158.255C314.288 148.808 308.842 139.516 301.624 135.597C298.028 133.645 294.003 133.03 289.96 134.371C285.91 135.714 281.787 139.038 278.043 145.071L277.704 145.616L277.353 145.079C273.406 139.047 269.136 135.775 264.996 134.48C260.86 133.186 256.802 133.847 253.235 135.78C246.074 139.661 240.948 148.645 241.349 157.012L241.37 157.437H241.39C242.017 144.972 249.804 135.12 259.318 135.12C267.929 135.12 275.125 143.189 276.878 153.961C278.632 143.189 285.828 135.12 294.439 135.12C304.362 135.12 312.407 145.838 312.407 159.06C312.407 160.728 312.279 162.357 312.035 163.929C310.661 172.793 305.608 179.865 299.098 182.187C299.178 182.188 299.259 182.188 299.339 182.188C302.138 182.188 304.908 181.691 307.491 180.727C310.073 179.762 312.415 178.351 314.384 176.576C315.456 175.609 316.406 174.545 317.22 173.403C318.139 174.772 319.239 176.04 320.5 177.177C322.547 179.023 324.978 180.487 327.654 181.487C330.329 182.486 333.197 183 336.093 183C338.989 183 341.856 182.486 344.532 181.487C347.207 180.487 349.638 179.023 351.686 177.177C352.237 176.68 352.757 176.159 353.245 175.614C353.732 176.159 354.252 176.68 354.803 177.177C356.851 179.023 359.282 180.487 361.957 181.487C364.633 182.486 367.5 183 370.396 183C373.292 183 376.16 182.486 378.835 181.487C381.221 180.596 381.876 180.44 383.441 179.108C383.24 178.933 383.042 178.752 382.846 178.566C379.224 175.126 376.601 169.939 375.669 163.929C375.627 163.66 375.589 163.39 375.554 163.118C375.385 161.799 375.297 160.443 375.297 159.06C375.297 145.838 383.342 135.12 393.265 135.12C403.189 135.12 411.234 145.838 411.234 159.06C411.234 160.932 411.073 162.754 410.768 164.502L413.71 164.335Z" fill="#161616"/>
<path d="M450.409 170.389C451.47 172.698 453.027 174.801 454.995 176.576C456.964 178.351 459.306 179.762 461.888 180.727C464.471 181.691 467.241 182.188 470.04 182.188C472.839 182.188 475.609 181.691 478.192 180.727C480.774 179.762 483.116 178.351 485.084 176.576C487.053 174.801 488.61 172.698 489.671 170.389C490.558 168.458 491.084 166.412 491.232 164.335H448.848C448.996 166.412 449.522 168.458 450.409 170.389Z" fill="#161616"/>
<path d="M158.117 166.969C157.078 164.068 156.503 160.976 156.419 157.843H125.36C125.305 159.901 125.037 161.942 124.566 163.922C124.797 164.863 125.075 165.79 125.4 166.697C126.497 169.758 128.102 172.533 130.119 174.865C132.136 177.197 134.523 179.038 137.141 180.292C139.758 181.546 142.558 182.188 145.382 182.188C148.205 182.188 151.005 181.546 153.622 180.292C156.24 179.038 158.628 177.197 160.644 174.865C160.98 174.476 161.305 174.075 161.618 173.662C160.168 171.652 158.987 169.396 158.117 166.969Z" fill="#161616"/>
<path d="M507.55 92.9202C508.903 92.9202 510 91.8302 510 90.4856V71.8204C510 70.4758 508.903 69.3858 507.55 69.3858H505.78H505.099H502.323L502.466 92.915L502.466 92.9202H504.449H505.115H506.332H507.55Z" fill="#F00808"/>
<path fill-rule="evenodd" clip-rule="evenodd" d="M428.474 0.00954175L428.43 0H354.878V0.814661C363.679 0.948927 374.629 5.38958 383.839 11.9349C393.2 18.5868 400.652 27.3329 402.257 35.7826L402.319 36.1131H402.658C409.935 36.1131 417.303 38.2233 422.891 42.1751C428.471 46.1214 432.269 51.8941 432.47 59.2509L432.47 59.2527L433.695 156.625V156.626C433.695 156.827 433.695 157.022 433.695 157.21V157.212C433.699 158.472 433.701 159.458 433.553 160.261C433.39 161.15 433.05 161.76 432.331 162.218C431.578 162.697 430.371 163.032 428.409 163.24C426.538 163.438 424.031 163.517 420.665 163.523C421.076 158.576 420.544 150.887 417.647 143.653C416.713 141.321 415.532 139.032 414.055 136.898C414.022 136.851 413.99 136.804 413.957 136.758L413.955 136.755C413.8 136.533 413.641 136.312 413.479 136.094C410.261 131.753 405.747 128.134 399.512 126.211L399.453 126.193H394.642H393.976H354.878V127.004H399.329C408.617 129.89 413.969 136.663 416.888 143.953C419.744 151.085 420.258 158.684 419.845 163.523L419.837 163.589L419.831 163.645L419.821 163.723C419.814 163.776 419.808 163.828 419.801 163.88L419.798 163.905L419.794 163.931L419.784 164.009C419.777 164.059 419.771 164.109 419.764 164.158C419.756 164.217 419.747 164.276 419.739 164.335H448.029C448.02 164.2 448.012 164.064 448.006 163.929C448 163.794 447.995 163.659 447.992 163.523H431.357C431.916 163.353 432.383 163.148 432.771 162.901C433.726 162.294 434.163 161.459 434.357 160.407C434.519 159.524 434.516 158.452 434.512 157.205C434.512 157.091 434.512 156.977 434.512 156.861C434.511 156.783 434.511 156.705 434.511 156.625L434.511 156.62L433.286 59.2366L433.286 59.2307C433.078 51.575 429.116 45.5812 423.365 41.5139C417.707 37.5131 410.309 35.3669 402.994 35.303C401.205 26.6545 393.621 17.8887 384.315 11.2748C377.229 6.23984 369.083 2.40709 361.61 0.81153H428.341C453.287 6.30406 466.01 26.4642 469.245 35.8389L469.341 36.1173L469.638 36.113C480.832 35.9518 488.793 38.974 493.949 43.3993C499.105 47.8251 501.485 53.6772 501.485 59.2417C501.485 61.1594 501.49 63.195 501.495 65.3282C501.522 74.7583 501.604 87.6288 501.698 99.0067C501.827 114.446 501.99 130.049 502.114 141.612L502.215 150.945C502.268 155.914 502.302 159.15 502.302 159.871C502.302 161.556 501.729 162.475 501.083 162.968C500.418 163.476 499.611 163.584 499.08 163.526L499.057 163.523H492.088C492.085 163.659 492.08 163.794 492.074 163.929C492.069 164.031 492.064 164.133 492.057 164.235C492.055 164.268 492.053 164.302 492.051 164.335H499.013C499.706 164.406 500.724 164.266 501.581 163.612C502.466 162.936 503.118 161.757 503.118 159.871C503.118 159.761 503.118 159.591 503.116 159.365C503.105 157.793 503.059 153.503 502.994 147.441L502.994 147.41V147.406L502.993 147.316L502.991 147.128L502.99 147.121C502.862 135.25 502.663 116.78 502.512 98.5975C502.509 98.2135 502.505 97.8296 502.502 97.4459C502.5 97.1198 502.497 96.7938 502.494 96.468C502.485 95.2824 502.475 94.0992 502.466 92.9202L502.466 92.915C502.391 83.2074 502.333 73.7899 502.311 65.7328C502.309 64.8352 502.307 63.9544 502.305 63.0921C502.305 62.9075 502.305 62.7239 502.304 62.541C502.303 61.4072 502.302 60.3063 502.302 59.2417C502.302 53.4448 499.821 47.3674 494.483 42.7852C489.19 38.2423 481.115 35.1915 469.92 35.2981C466.472 25.6296 453.568 5.51441 428.474 0.00954175Z" fill="#D10505"/>
<path d="M505.115 92.9202L505.099 95.4639C505.115 96.7852 503.784 96.4549 502.494 96.468L502.502 97.4459C503.873 97.4459 506.332 97.2388 506.332 95.4639V92.9202H505.115Z" fill="#161616"/>
<path d="M505.099 69.3858H505.78L505.78 64.7437C505.78 63.6866 504.698 62.541 502.304 62.541L502.305 63.0921C503.518 63.0921 505.115 63.7527 505.115 64.7437L505.099 69.3858Z" fill="#161616"/>
</svg>
