<svg width="118" height="105" viewBox="0 0 118 105" fill="none" xmlns="http://www.w3.org/2000/svg">
<mask id="mask0_165_2119" style="mask-type:alpha" maskUnits="userSpaceOnUse" x="0" y="0" width="118" height="105">
<rect width="118" height="105" fill="#D9D9D9"/>
</mask>
<g mask="url(#mask0_165_2119)">
<path fill-rule="evenodd" clip-rule="evenodd" d="M112.753 57.3529C116.601 57.3529 117.854 60.294 118 61.7646V66.1765H108.818C108.09 69.5588 108.906 75.9706 118 74.5588V92.647C116.251 96.1763 112.316 95.5882 110.567 94.8529C111.879 88.2353 107.944 76.3235 95.7018 76.3235C83.4596 76.3235 79.9619 85.5882 80.8363 94.8529H44.5471C45.4215 85.1471 42.7982 79.4118 37.5516 75.4412C30.8691 70.384 23.1233 72.7941 21.3744 72.7941C19.6256 72.7941 19.1883 71.0294 19.6256 69.7059C19.9753 68.6471 22.1031 68.0882 23.1233 67.9412C22.074 66.8824 18.3139 66.3235 16.565 66.1765V78.0882C15.3345 79.1525 14.4464 80.5361 13.8201 82.0768C12.4274 85.5029 12.3295 89.7053 12.6416 92.8986C12.7477 93.9842 12.9012 94.9531 13.0673 95.7353H9.5695V40.5882V5.29412H16.565V61.7646L26.1839 63.5294C31.2848 48.0882 41.9238 15.7941 43.6726 10.1471C45.4215 4.5 49.9395 1.6176 51.9798 0.882277C61.7444 0.735218 82.3229 0.529335 86.5202 0.882277C90.7175 1.23522 92.3498 5.14698 92.6413 7.05875C93.2242 21.4705 94.6525 51.0882 95.7018 54.2646C97.0135 58.2352 107.944 57.3529 112.753 57.3529ZM88.2691 11.4706C88.4148 9.41177 87.9193 5.29412 84.7713 5.29412H53.7287C51.6883 5.58824 47.6076 6.97059 47.6076 10.1471C47.6076 13.3235 36.2399 48.8235 30.5561 66.1765C36.2399 68.3824 47.6076 75.0882 47.6076 84.2647H55.0404C56.4978 79.7059 60.1121 70.0588 62.9103 67.9412C66.4081 65.2941 76.4641 65.2942 78.6502 63.5294C80.3375 62.1673 82.6624 57.3887 86.1588 54.2646C87.1925 53.3411 88.3285 52.5621 89.5807 52.0588C89.5807 42.8824 88.7063 21.1765 88.2691 11.4706Z" fill="#D10505"/>
<path d="M108.818 66.1765H118V74.5588C108.906 75.9706 108.09 69.5588 108.818 66.1765Z" fill="#F16415"/>
<path d="M47.6076 84.2647C47.6076 75.0882 36.2399 68.3824 30.5561 66.1765L46.296 43.2353L46.8106 43.6347L51.9798 47.6471C49.5022 51.7647 43.6726 61.2353 40.1749 66.1765C40.8664 66.316 41.5009 66.6533 42.0785 67.1262C44.1412 68.8153 45.4774 72.2348 46.0871 74.5588C46.1702 74.8757 46.2398 75.1722 46.296 75.4412H55.9148C56.0605 73.5294 56.5269 69 57.2265 66.1765C58.1009 62.6471 65.9709 63.5294 62.9103 62.6471C59.8498 61.7647 60.7242 57.3529 61.5987 57.3529C62.4731 57.3529 76.4641 58.2353 77.7758 57.3529C78.8577 56.625 79.6421 54.9968 80.3744 50.7353C80.53 49.8302 80.6831 48.8063 80.8363 47.6471C81.7108 41.0295 84.7713 39.2647 86.1588 41.4706C87.2688 43.2353 86.6213 50.7352 86.1588 54.2646C82.6624 57.3887 80.3375 62.1673 78.6502 63.5294C76.4641 65.2942 66.4081 65.2941 62.9103 67.9412C60.1121 70.0588 56.4978 79.7059 55.0404 84.2647H47.6076Z" fill="#161616"/>
<path d="M18.3139 0L16.565 5.29412H9.5695L8.69507 0H18.3139Z" fill="#161616"/>
<path d="M9.5695 40.5882V95.7353H7.82063V92.0005V54.2646V40.5882H9.5695Z" fill="#161616"/>
<path d="M6.07175 54.2646H7.82063V92.0005H-390V89.0005H6L6.07175 54.2646Z" fill="#D10505"/>
<path fill-rule="evenodd" clip-rule="evenodd" d="M82.148 91.3235C82.148 92.5439 82.3064 93.727 82.6036 94.8529C84.1459 100.696 89.4257 105 95.7018 105C101.978 105 107.258 100.696 108.8 94.8529C109.097 93.727 109.256 92.5439 109.256 91.3235C109.256 83.7702 103.187 77.6471 95.7018 77.6471C88.2162 77.6471 82.148 83.7702 82.148 91.3235ZM95.7018 100.588C90.6309 100.588 86.5202 96.4403 86.5202 91.3235C86.5202 86.2068 90.6309 82.0588 95.7018 82.0588C100.773 82.0588 104.883 86.2068 104.883 91.3235C104.883 96.4403 100.773 100.588 95.7018 100.588Z" fill="#3E3E3E"/>
<path fill-rule="evenodd" clip-rule="evenodd" d="M86.5202 91.3235C86.5202 96.4403 90.6309 100.588 95.7018 100.588C100.773 100.588 104.883 96.4403 104.883 91.3235C104.883 86.2068 100.773 82.0588 95.7018 82.0588C90.6309 82.0588 86.5202 86.2068 86.5202 91.3235ZM95.7018 95.2941C93.5286 95.2941 91.7668 93.5164 91.7668 91.3235C91.7668 89.1306 93.5286 87.3529 95.7018 87.3529C97.875 87.3529 99.6368 89.1306 99.6368 91.3235C99.6368 93.5164 97.875 95.2941 95.7018 95.2941Z" fill="#DDF1FF"/>
<path d="M91.7668 91.3235C91.7668 93.5164 93.5286 95.2941 95.7018 95.2941C97.875 95.2941 99.6368 93.5164 99.6368 91.3235C99.6368 89.1306 97.875 87.3529 95.7018 87.3529C93.5286 87.3529 91.7668 89.1306 91.7668 91.3235Z" fill="#3E3E3E"/>
<path d="M23.3631 89.1176C23.3631 91.6642 25.409 93.7287 27.9327 93.7287C30.4565 93.7287 32.5024 91.6642 32.5024 89.1176C32.5024 86.5711 30.4565 84.5066 27.9327 84.5066C25.409 84.5066 23.3631 86.5711 23.3631 89.1176Z" fill="#3E3E3E"/>
<path fill-rule="evenodd" clip-rule="evenodd" d="M17.2702 89.1176C17.2702 95.0597 22.044 99.8767 27.9327 99.8767C33.8215 99.8767 38.5953 95.0597 38.5953 89.1176C38.5953 83.1756 33.8215 78.3586 27.9327 78.3586C22.044 78.3586 17.2702 83.1756 17.2702 89.1176ZM27.9327 93.7287C25.409 93.7287 23.3631 91.6642 23.3631 89.1176C23.3631 86.5711 25.409 84.5066 27.9327 84.5066C30.4565 84.5066 32.5024 86.5711 32.5024 89.1176C32.5024 91.6642 30.4565 93.7287 27.9327 93.7287Z" fill="#DDF1FF"/>
<path fill-rule="evenodd" clip-rule="evenodd" d="M12.1928 89.1176C12.1928 90.4206 12.3483 91.6869 12.6416 92.8986C12.3295 89.7053 12.4274 85.5029 13.8201 82.0768C12.7783 84.1988 12.1928 86.5892 12.1928 89.1176Z" fill="#161616"/>
<path fill-rule="evenodd" clip-rule="evenodd" d="M43.6726 89.1176C43.6726 91.14 43.2981 93.074 42.6151 94.8529C40.3358 100.79 34.6215 105 27.9327 105C20.5311 105 14.3227 99.8448 12.6416 92.8986C12.3295 89.7053 12.4274 85.5029 13.8201 82.0768C15.4897 78.676 18.3311 75.9649 21.8117 74.481C23.6933 73.6788 25.7617 73.2353 27.9327 73.2353C36.6256 73.2353 43.6726 80.3461 43.6726 89.1176ZM27.9327 99.8767C22.044 99.8767 17.2702 95.0597 17.2702 89.1176C17.2702 83.1756 22.044 78.3586 27.9327 78.3586C33.8215 78.3586 38.5953 83.1756 38.5953 89.1176C38.5953 95.0597 33.8215 99.8767 27.9327 99.8767Z" fill="#3E3E3E"/>
<path d="M80.8363 94.8529C79.9619 85.5882 83.4596 76.3235 95.7018 76.3235C107.944 76.3235 111.879 88.2353 110.567 94.8529H108.8C109.097 93.727 109.256 92.5439 109.256 91.3235C109.256 83.7702 103.187 77.6471 95.7018 77.6471C88.2162 77.6471 82.148 83.7702 82.148 91.3235C82.148 92.5439 82.3064 93.727 82.6036 94.8529H80.8363Z" fill="#161616"/>
<path d="M21.3744 72.7941C23.1233 72.7941 30.8691 70.384 37.5516 75.4412C42.7982 79.4118 45.4215 85.1471 44.5471 94.8529H42.6151C43.2981 93.074 43.6726 91.14 43.6726 89.1176C43.6726 80.3461 36.6256 73.2353 27.9327 73.2353C25.7617 73.2353 23.6933 73.6788 21.8117 74.481L21.3744 72.7941Z" fill="#161616"/>
<path d="M42.7982 67.0588C43.4978 67.1028 44.5471 67.9595 44.9843 68.3824C44.6345 69.0882 46.7332 70.5882 48.0448 72.3529L46.0871 74.5588C45.4774 72.2348 44.1412 68.8153 42.0785 67.1262C42.0269 67.0854 42.0987 67.0149 42.7982 67.0588Z" fill="#161616"/>
<path d="M58.5381 46.3235C58.3454 46.7124 56.9938 46.2265 55.4776 45.5149C56.5086 45.4714 57.5452 45.147 58.2657 44.8879C58.7551 45.6251 58.7757 45.844 58.5381 46.3235Z" fill="#161616"/>
<path d="M51.9798 47.6471L46.8106 43.6347C47.6573 44.1318 48.9449 44.1958 49.7937 41.9118C43.6726 37.5 44.5471 37.9412 44.5471 36.6176C44.5471 35.2941 53.2915 37.5 55.9148 41.4706C55.9609 41.5404 56.0063 41.6089 56.0511 41.6763C54.6237 41.5665 53.2538 41.4706 52.8543 41.4706C51.9798 41.4706 51.1054 43.0799 51.5426 43.5988C50.7958 43.5983 50.2214 44.3941 51.9798 47.6471Z" fill="#161616"/>
<path d="M51.5426 43.5988C51.6871 43.5989 51.8381 43.6288 51.9798 43.6765C52.8961 44.2048 54.2416 44.9348 55.4776 45.5149C54.0785 45.5739 52.2713 44.2621 51.5426 43.5988Z" fill="#F7CDC2"/>
<path d="M51.9798 43.6765C51.8381 43.6288 51.6871 43.5989 51.5426 43.5988C51.1054 43.0799 51.9798 41.4706 52.8543 41.4706C53.2538 41.4706 54.6237 41.5665 56.0511 41.6763C57.1691 43.3587 57.8703 44.2924 58.2657 44.8879C57.5452 45.147 56.5086 45.4714 55.4776 45.5149C54.2416 44.9348 52.8961 44.2048 51.9798 43.6765Z" fill="#F7CDC2"/>
<path d="M58.9765 41.9118C58.9823 42.7029 59.0149 43.8854 59.2021 44.5588C59.1157 44.5588 58.7674 44.7075 58.2657 44.8879C57.8703 44.2924 57.1691 43.3587 56.0511 41.6763C57.1226 41.7586 58.2265 41.8487 58.9765 41.9118Z" fill="#F7CDC2"/>
<path d="M77.7758 17.6471C77.7758 19.4118 77.3386 19.8529 76.9013 21.3596C76.3184 21.7397 74.9776 22.4118 74.278 22.0588C73.7115 21.773 73.4891 19.9249 73.425 18.5294C73.4099 18.2016 73.4036 17.8988 73.4036 17.6471H77.7758Z" fill="#161616"/>
<path d="M70.7803 17.6471H73.4036C73.4036 17.8988 73.4099 18.2016 73.425 18.5294H72.5291V23.8235C72.5291 24.2647 69.9058 23.9034 69.0314 23.9034C68.1569 23.9034 69.0314 21.3596 69.0314 21.1765C69.0314 20.9934 70.343 21.3596 70.7803 21.1765C71.13 21.03 70.926 18.7625 70.7803 17.6471Z" fill="#161616"/>
<path d="M69.0314 14.5588C70.343 11.9118 72.0919 11.9118 73.8408 11.9118C77.6391 11.9118 78.0277 14.6864 77.8731 16.7647H70.5H68.5H65.5336V14.5588H69.0314Z" fill="#FFB200"/>
<path d="M76.9013 21.3596C76.5516 22.5649 76.7556 23.5577 76.9013 23.9034C75.5167 23.6629 74.0398 24.8654 72.7425 26.6884C72.9131 26.1568 72.6714 24.557 72.5291 23.8235V18.5294H73.425C73.4891 19.9249 73.7115 21.773 74.278 22.0588C74.9776 22.4118 76.3184 21.7397 76.9013 21.3596Z" fill="#F7CDC2"/>
<path d="M77.7758 17.6471H73.4036H70.7803L70.5 16.7647H77.8731C77.8498 17.0787 77.814 17.3768 77.7758 17.6471Z" fill="#161616"/>
<path d="M70.7803 17.6471C70.926 18.7625 71.13 21.03 70.7803 21.1765C70.343 21.3596 69.0314 20.9934 69.0314 21.1765C68.7399 20.7566 68.5 20 68.3387 19C68.2589 18.2913 68.2855 17.5091 68.5 16.7647H70.5L70.7803 17.6471Z" fill="#F7CDC2"/>
<path d="M80.8363 47.6471C80.6831 48.8063 80.53 49.8302 80.3744 50.7353L69.4686 48.9706C69.3229 47.0588 69.0314 43.3235 69.0314 43.6765C69.0314 44.1176 59.8498 45.4412 59.4126 45C59.3266 44.9133 59.2576 44.7584 59.2021 44.5588C59.0149 43.8854 58.9823 42.7029 58.9765 41.9118C58.9753 41.7443 58.9753 41.5944 58.9753 41.4706C60.3744 40.0588 66.2623 38.2353 69.0314 37.5C68.774 34.9024 70.4869 29.8578 72.7425 26.6884C74.0398 24.8654 75.5167 23.6629 76.9013 23.9034C77.1979 23.9549 77.4903 24.0727 77.7758 24.2647C80.9238 26.3824 81.1278 40.7353 80.8363 47.6471Z" fill="#C4E4FD"/>
<path d="M77.7758 57.3529C76.4641 58.2353 62.4731 57.3529 61.5987 57.3529C60.87 57.3529 59.4126 57.5294 59.4126 58.2353C59.4126 58.9412 51.6883 67.7941 48.0448 72.3529C46.7332 70.5882 44.6345 69.0882 44.9843 68.3824C47.1704 63.9706 56.352 50.7353 58.1009 49.8529C59.5 49.1471 66.2623 48.9706 69.4686 48.9706L80.3744 50.7353C79.6421 54.9968 78.8577 56.625 77.7758 57.3529Z" fill="#00548F"/>
</g>
</svg>
