<svg width="786" height="378" viewBox="0 0 786 378" fill="none" xmlns="http://www.w3.org/2000/svg">
<mask id="mask0_165_2113" style="mask-type:alpha" maskUnits="userSpaceOnUse" x="0" y="0" width="786" height="378">
<rect width="786" height="378" fill="#D9D9D9"/>
</mask>
<g mask="url(#mask0_165_2113)">
<path d="M-1256.49 65.9654C-1243.36 63.7791 -1179.48 49.7858 -1151.48 44.9756C-1139.12 39.4484 -1086.09 34.3366 -1022.41 30.0967C-1004.91 28.8774 -47.2826 31.0537 429.343 32.2942C428.347 33.0577 427.552 34.404 427.552 36.6671C422.01 70.0466 411.889 138.467 415.739 145.114L262.605 145.989C264.938 142.199 262.605 120.16 249.917 93.9515C234.166 61.4174 208.643 48.328 197.851 45.8501C137.326 45.1212 18.9028 44.7131 29.4034 48.9111C42.5292 54.1585 56.53 67.2771 69.6558 85.2058C82.7816 103.135 88.0319 132.433 88.0319 148.612H39.0289C-217.215 148.467 -743.358 149.574 -804.262 155.172L-871.641 153.86C-871.349 157.066 -873.741 162.168 -880.391 162.168C-887.042 162.168 -906.497 161.877 -915.393 161.731C-917.581 161.585 -921.956 159.807 -921.956 153.86H-1111.66C-1188.21 129.451 -1257.61 106.88 -1256.49 105.758L-1258.67 90.8907C-1198 98.033 -1071.76 110.656 -1052.16 104.009C-1027.66 95.7007 -1018.91 91.3278 -1026.35 81.2702C-1032.3 73.2242 -1086.75 71.7957 -1113.24 72.0872C-1165.99 71.4434 -1280.57 70.2308 -1360.38 69.9568C-1324.25 69.8918 -1266.71 69.2709 -1256.49 65.9654Z" fill="#C4E4FD"/>
<path d="M473.492 144.239C473.201 147.446 470.605 153.772 462.554 153.422C454.504 153.073 432.073 153.277 421.864 153.422C419.385 152.111 414.689 149.312 415.739 145.114C411.889 138.467 422.01 70.0466 427.552 36.6671C427.552 34.404 428.347 33.0577 429.343 32.2942C430.348 31.5233 431.559 31.3464 432.365 31.4196C443.886 31.5654 468.154 31.8569 473.055 31.8569C477.955 31.8569 479.18 36.2298 479.18 38.4162V51.5348C475.972 77.7719 470.342 133.045 473.492 144.239Z" fill="#C4E4FD"/>
<path d="M777.573 141.179L473.492 144.239C470.342 133.045 475.972 77.7719 479.18 51.5348C482.68 54.5958 541.746 97.4498 560.997 117.128C576.398 132.87 711.798 139.721 777.573 141.179Z" fill="#C4E4FD"/>
<path d="M-594.687 261.87C-638.877 260.557 -838.389 233.446 -921.519 211.581C-958.348 201.895 -1038.94 177.048 -1111.66 153.86H-921.956C-921.956 159.807 -917.581 161.585 -915.393 161.731C-906.497 161.877 -887.042 162.168 -880.391 162.168C-873.741 162.168 -871.349 157.066 -871.641 153.86L-804.262 155.172L-661.191 168.727L-424.489 190.592L-202.226 212.019C-210.627 220.415 -210.685 248.751 -209.664 261.87C-210.484 262.006 -244.327 262.177 -291.741 262.309C-312.195 262.366 -335.175 262.417 -359.12 262.454C-457.401 262.608 -571.922 262.545 -594.687 261.87Z" fill="#00548F"/>
<path d="M88.0319 148.612C88.0319 132.433 82.7816 103.135 69.6558 85.2058C56.53 67.2771 42.5292 54.1585 29.4034 48.9111C18.9028 44.7131 137.326 45.1212 197.851 45.8501C208.643 48.328 234.166 61.4174 249.917 93.9515C262.605 120.16 264.938 142.199 262.605 145.989L88.0319 148.612Z" fill="#00548F"/>
<path d="M-929.654 -62.5966C-881.963 -7.936 -818.96 17.8639 -805.834 19.6132C-833.874 20.5552 -869.948 21.9666 -908.215 23.7584C-911.715 23.9215 -1003.16 19.6132 -1082.79 -35.4851C-1146.49 -79.5638 -1205.88 -240.135 -1227.61 -314.911H-1144.92C-1118.66 -317.535 -1083.13 -260.25 -1076.66 -251.942C-1073.6 -248.006 -968.306 -106.898 -929.654 -62.5966Z" fill="#F00808"/>
<path d="M-1198.29 -169.732C-1200.74 -179.035 -1230.67 -314.911 -1227.61 -314.911C-1205.88 -240.135 -1146.49 -79.5638 -1082.79 -35.4851C-1003.16 19.6132 -911.715 23.9215 -908.215 23.7584C-946.016 25.5284 -985.958 27.6697 -1022.41 30.0967C-1086.09 34.3366 -1139.12 39.4484 -1151.48 44.9756C-1167.08 -23.3867 -1196.11 -161.424 -1198.29 -169.732Z" fill="#D10505"/>
<path d="M-1258.67 90.8907C-1262.61 90.8907 -1393.43 69.9009 -1389.93 69.9009C-1388.84 69.9009 -1376.83 69.9865 -1360.38 69.9568C-1280.57 70.2308 -1165.99 71.4434 -1113.24 72.0872C-1086.75 71.7957 -1032.3 73.2242 -1026.35 81.2702C-1018.91 91.3278 -1027.66 95.7007 -1052.16 104.009C-1071.76 110.656 -1198 98.033 -1258.67 90.8907Z" fill="#D10505"/>
<path d="M88.0319 299.039C77.5312 292.042 74.0311 269.886 73.5936 259.683L258.667 256.506C257.5 273.891 260.155 310.496 280.106 317.842C267.418 319.154 187.788 315.656 163.724 315.218C139.66 314.781 101.158 307.785 88.0319 299.039Z" fill="#F00808"/>
<path d="M302.857 255.748C306.795 279.798 292.794 316.53 280.106 317.842C260.155 310.496 257.5 273.891 258.667 256.506L265.23 256.393C266.105 276.002 270.83 313.907 282.731 308.659C294.632 303.411 297.899 271.253 298.044 255.83L302.857 255.748Z" fill="#DDF1FF"/>
<path d="M298.044 255.83C297.899 271.253 294.632 303.411 282.731 308.659C270.83 313.907 266.105 276.002 265.23 256.393L274.855 256.228C275.001 265.543 276.781 284.258 282.731 284.608C288.681 284.958 289.294 265.674 288.856 255.988L298.044 255.83Z" fill="#161616"/>
<path d="M288.856 255.988C289.294 265.674 288.681 284.958 282.731 284.608C276.781 284.258 275.001 265.543 274.855 256.228L288.856 255.988Z" fill="#3E3E3E"/>
<path d="M-181.922 197.588C-172.121 198.288 -61.1645 191.175 -6.91125 187.531C-12.7828 189.487 -17.9977 198.279 -21.7299 210.582C-26.0198 224.723 -28.3506 243.502 -27.468 261.87H-185.859C-194.61 263.181 -213.424 206.334 -181.922 197.588Z" fill="#F00808"/>
<path d="M-199.423 298.164C-209.19 286.967 -209.664 261.87 -209.664 261.87C-210.685 248.751 -210.627 220.415 -202.226 212.019C-199.017 206.917 -191.722 196.889 -181.922 197.588C-213.424 206.334 -194.61 263.181 -185.859 261.87H-27.468C-26.372 284.678 -20.3205 306.85 -6.91125 318.717C-30.3623 319.53 -60.9662 319.254 -90.9162 317.706C-97.8942 317.346 -104.837 316.916 -111.645 316.415C-116.18 316.082 -120.656 315.716 -125.043 315.319C-132.174 314.672 -139.07 313.941 -145.607 313.121C-172.712 309.722 -193.63 304.805 -199.423 298.164Z" fill="#D10505"/>
<path d="M-152.949 342.767C-152.949 352.884 -145.298 361.219 -135.449 362.334C-134.709 362.418 -133.957 362.461 -133.194 362.461C-122.284 362.461 -113.44 353.644 -113.44 342.767C-113.44 331.891 -122.284 323.073 -133.194 323.073C-144.105 323.073 -152.949 331.891 -152.949 342.767Z" fill="#DDF1FF"/>
<path d="M-143.072 342.767C-143.072 348.206 -138.649 352.614 -133.194 352.614C-127.739 352.614 -123.317 348.206 -123.317 342.767C-123.317 337.329 -127.739 332.92 -133.194 332.92C-138.649 332.92 -143.072 337.329 -143.072 342.767Z" fill="#3E3E3E"/>
<path d="M-353.084 342.767C-353.084 344.809 -352.461 346.706 -351.393 348.279C-349.618 350.895 -346.614 352.614 -343.207 352.614C-337.752 352.614 -333.33 348.206 -333.33 342.767C-333.33 337.329 -337.752 332.92 -343.207 332.92C-346.614 332.92 -349.618 334.64 -351.393 337.256C-352.461 338.828 -353.084 340.725 -353.084 342.767Z" fill="#3E3E3E"/>
<path d="M497.497 330.84C497.516 331.333 497.536 331.811 497.556 332.273V342.501C497.349 342.136 497.132 341.777 496.906 341.424C495.817 339.037 494.034 337.208 491.911 335.825C489.947 334.225 487.72 332.934 485.306 332.026C487.891 331.055 490.693 330.523 493.618 330.523C494.939 330.523 496.235 330.632 497.497 330.84Z" fill="#00548F"/>
<path d="M472.18 292.48C469.992 285.92 447.678 253.124 445.928 253.124C449.078 253.072 501.786 251.062 527.746 250.063C523.37 250.937 497.994 291.605 497.556 292.48C497.219 293.154 496.99 317.474 497.497 330.84C496.235 330.632 494.939 330.523 493.618 330.523C490.693 330.523 487.891 331.055 485.306 332.026C482.72 331.055 479.918 330.523 476.992 330.523C475.816 330.523 474.66 330.609 473.529 330.775C473.793 319.208 473.855 297.501 472.18 292.48Z" fill="#00548F"/>
<path d="M470.315 358.053C470.931 361.742 472.403 365.141 474.519 368.04C467.539 367.247 462.117 361.325 462.117 354.137C462.117 346.949 467.539 341.026 474.519 340.234C472.403 343.133 470.931 346.532 470.315 350.221C469.559 351.338 469.117 352.686 469.117 354.137C469.117 355.588 469.559 356.935 470.315 358.053Z" fill="#DDF1FF"/>
<path d="M490.118 354.137C490.118 361.865 483.85 368.13 476.117 368.13C475.577 368.13 475.044 368.099 474.519 368.04C472.403 365.141 470.931 361.742 470.315 358.053C471.574 359.912 473.703 361.133 476.117 361.133C479.984 361.133 483.118 358.001 483.118 354.137C483.118 350.273 479.984 347.14 476.117 347.14C473.703 347.14 471.574 348.362 470.315 350.221C470.931 346.532 472.403 343.133 474.519 340.234C475.044 340.174 475.577 340.144 476.117 340.144C483.85 340.144 490.118 346.409 490.118 354.137Z" fill="#DDF1FF"/>
<path d="M483.118 354.137C483.118 358.001 479.984 361.133 476.117 361.133C473.703 361.133 471.574 359.912 470.315 358.053C470.103 356.779 469.992 355.471 469.992 354.137C469.992 352.803 470.103 351.494 470.315 350.221C471.574 348.362 473.703 347.14 476.117 347.14C479.984 347.14 483.118 350.273 483.118 354.137Z" fill="#3E3E3E"/>
<path fill-rule="evenodd" clip-rule="evenodd" d="M485.306 376.247C482.72 377.219 479.918 377.75 476.992 377.75C463.944 377.75 453.366 367.178 453.366 354.137C453.366 342.271 462.122 332.45 473.529 330.775C474.66 330.609 475.816 330.523 476.992 330.523C479.918 330.523 482.72 331.055 485.306 332.026C487.72 332.934 489.947 334.225 491.911 335.825C494.034 337.208 495.817 339.037 496.906 341.424C497.132 341.777 497.349 342.136 497.556 342.501C499.506 345.936 500.619 349.906 500.619 354.137C500.619 364.254 494.253 372.885 485.306 376.247ZM470.315 358.053C469.559 356.935 469.117 355.588 469.117 354.137C469.117 352.686 469.559 351.338 470.315 350.221C470.103 351.494 469.992 352.803 469.992 354.137C469.992 355.471 470.103 356.779 470.315 358.053ZM474.519 340.234C467.539 341.026 462.117 346.949 462.117 354.137C462.117 361.325 467.539 367.247 474.519 368.04C475.044 368.099 475.577 368.13 476.117 368.13C483.85 368.13 490.118 361.865 490.118 354.137C490.118 346.409 483.85 340.144 476.117 340.144C475.577 340.144 475.044 340.174 474.519 340.234Z" fill="#3E3E3E"/>
<path d="M517.245 354.137C517.245 367.178 506.667 377.75 493.618 377.75C490.693 377.75 487.891 377.219 485.306 376.247C494.253 372.885 500.619 364.254 500.619 354.137C500.619 349.906 499.506 345.936 497.556 342.501V332.273C497.536 331.811 497.516 331.333 497.497 330.84C508.7 332.689 517.245 342.416 517.245 354.137Z" fill="#161616"/>
<path d="M-111.645 316.415C-104.837 316.916 -97.8942 317.346 -90.9162 317.706C-77.9655 320.746 -75.0195 335.68 -75.1653 342.767C-75.1653 361.122 -90.0903 376.001 -108.501 376.001C-112.629 376.001 -116.582 375.253 -120.23 373.886C-107.606 369.154 -98.6239 357.006 -98.6239 342.767C-98.6239 332.035 -103.727 322.491 -111.645 316.415Z" fill="#161616"/>
<path d="M-131.96 376.001C-150.371 376.001 -165.296 361.122 -165.296 342.767C-165.587 333.79 -162.058 315.292 -145.607 313.121C-139.07 313.941 -132.174 314.672 -125.043 315.319C-120.656 315.716 -116.18 316.082 -111.645 316.415C-103.727 322.491 -98.6239 332.035 -98.6239 342.767C-98.6239 357.006 -107.606 369.154 -120.23 373.886C-126.369 371.585 -131.647 367.53 -135.449 362.334C-134.709 362.418 -133.957 362.461 -133.194 362.461C-122.284 362.461 -113.44 353.644 -113.44 342.767C-113.44 331.891 -122.284 323.073 -133.194 323.073C-144.105 323.073 -152.949 331.891 -152.949 342.767C-152.949 352.884 -145.298 361.219 -135.449 362.334C-131.647 367.53 -126.369 371.585 -120.23 373.886C-123.879 375.253 -127.832 376.001 -131.96 376.001Z" fill="#3E3E3E"/>
<path d="M-316.242 309.61C-316.993 309.559 -317.75 309.534 -318.514 309.534C-322.541 309.534 -326.402 310.246 -329.976 311.55C-330.065 311.583 -330.154 311.616 -330.243 311.649C-332.872 310.664 -335.659 310 -338.556 309.706V293.354C-344.536 283.053 -357.02 262.451 -359.12 262.454C-335.175 262.417 -312.195 262.366 -291.741 262.309C-299.616 271.783 -315.542 291.255 -316.242 293.354V309.61Z" fill="#00548F"/>
<path d="M-330.243 311.649C-330.154 311.616 -330.065 311.583 -329.976 311.55C-326.402 310.246 -322.541 309.534 -318.514 309.534C-317.75 309.534 -316.993 309.559 -316.242 309.61V321.635C-316.832 320.923 -317.451 320.234 -318.097 319.573C-319.671 317.93 -322.083 315.746 -325.595 313.814C-327.078 312.979 -328.631 312.253 -330.243 311.649Z" fill="#00548F"/>
<path d="M-285.178 342.767C-285.178 361.122 -300.103 376.001 -318.514 376.001C-322.642 376.001 -326.594 375.253 -330.243 373.886C-317.619 369.154 -308.636 357.006 -308.636 342.767C-308.636 334.741 -311.49 327.379 -316.242 321.635V309.61C-298.891 310.774 -285.178 325.174 -285.178 342.767Z" fill="#161616"/>
<path d="M-323.452 342.767C-323.452 353.644 -332.297 362.461 -343.207 362.461C-343.969 362.461 -344.722 362.418 -345.462 362.334C-348.448 358.254 -350.524 353.47 -351.393 348.279C-349.618 350.895 -346.614 352.614 -343.207 352.614C-337.752 352.614 -333.33 348.206 -333.33 342.767C-333.33 337.329 -337.752 332.92 -343.207 332.92C-346.614 332.92 -349.618 334.64 -351.393 337.256C-350.524 332.064 -348.448 327.28 -345.462 323.2C-344.722 323.116 -343.969 323.073 -343.207 323.073C-332.297 323.073 -323.452 331.891 -323.452 342.767Z" fill="#DDF1FF"/>
<path fill-rule="evenodd" clip-rule="evenodd" d="M-341.972 376.001C-360.383 376.001 -375.308 361.122 -375.308 342.767C-375.308 324.413 -360.383 309.534 -341.972 309.534C-340.819 309.534 -339.679 309.592 -338.556 309.706C-335.659 310 -332.872 310.664 -330.243 311.649C-328.631 312.253 -327.078 312.979 -325.595 313.814C-322.826 315.374 -320.302 317.318 -318.097 319.573C-312.243 325.562 -308.636 333.745 -308.636 342.767C-308.636 357.006 -317.619 369.154 -330.243 373.886C-333.891 375.253 -337.844 376.001 -341.972 376.001ZM-343.207 362.461C-343.969 362.461 -344.722 362.418 -345.462 362.334C-355.31 361.219 -362.962 352.884 -362.962 342.767C-362.962 332.651 -355.31 324.316 -345.462 323.2C-344.722 323.116 -343.969 323.073 -343.207 323.073C-332.297 323.073 -323.452 331.891 -323.452 342.767C-323.452 353.644 -332.297 362.461 -343.207 362.461ZM-351.393 337.256C-349.618 334.64 -346.614 332.92 -343.207 332.92C-337.752 332.92 -333.33 337.329 -333.33 342.767C-333.33 348.206 -337.752 352.614 -343.207 352.614C-346.614 352.614 -349.618 350.895 -351.393 348.279C-352.461 346.706 -353.084 344.809 -353.084 342.767C-353.084 340.725 -352.461 338.828 -351.393 337.256Z" fill="#3E3E3E"/>
<path d="M-345.462 323.2C-348.448 327.28 -350.524 332.064 -351.393 337.256C-352.461 338.828 -353.084 340.725 -353.084 342.767C-353.084 344.809 -352.461 346.706 -351.393 348.279C-350.524 353.47 -348.448 358.254 -345.462 362.334C-355.31 361.219 -362.962 352.884 -362.962 342.767C-362.962 332.651 -355.31 324.316 -345.462 323.2Z" fill="#DDF1FF"/>
<path d="M-27.9125 253.561C-27.9125 289.304 -16.9428 318.279 -3.41101 318.279C9.33905 318.279 19.8145 292.555 20.9822 259.683C21.0538 257.668 21.0904 255.626 21.0904 253.561C21.0904 234.638 18.0159 217.613 13.1145 205.779C8.75751 195.259 2.95697 188.843 -3.41101 188.843C-10.6979 188.843 -17.2418 197.245 -21.7299 210.582C-25.5762 222.011 -27.9125 237.065 -27.9125 253.561Z" fill="#DDF1FF"/>
<path d="M-18.2869 251.375C-18.2869 282.529 -11.4309 307.784 -2.97351 307.784C5.48383 307.784 12.3399 282.529 12.3399 251.375C12.3399 220.22 5.48383 194.965 -2.97351 194.965C-11.4309 194.965 -18.2869 220.22 -18.2869 251.375Z" fill="#161616"/>
<path d="M-11.2865 251.375C-11.2865 268.521 -7.5647 282.422 -2.97351 282.422C1.61761 282.422 5.33948 268.521 5.33948 251.375C5.33948 234.228 1.61761 220.327 -2.97351 220.327C-7.5647 220.327 -11.2865 234.228 -11.2865 251.375Z" fill="#3E3E3E"/>
<path d="M66.1556 171.788C64.843 194.09 43.8417 203.71 39.0289 203.71C35.3768 203.71 20.9385 205.022 13.1145 205.779C8.75751 195.259 2.95697 188.843 -3.41101 188.843C-10.6979 188.843 -17.2418 197.245 -21.7299 210.582C-17.9977 198.279 -12.7828 189.487 -6.91125 187.531C-61.1645 191.175 -172.121 198.288 -181.922 197.588C-191.722 196.889 -199.017 206.917 -202.226 212.019L-424.489 190.592L-661.191 168.727L-804.262 155.172C-534.395 162.022 10.1523 175.986 29.4034 177.036C48.6545 178.085 61.9262 173.975 66.1556 171.788Z" fill="#023F6A"/>
<path d="M473.492 144.239C473.201 147.446 470.605 153.772 462.554 153.422C454.504 153.073 432.073 153.277 421.864 153.422C419.385 152.111 414.689 149.312 415.739 145.114C411.889 138.467 422.01 70.0466 427.552 36.6671C427.552 34.404 428.347 33.0577 429.343 32.2942C430.348 31.5233 431.559 31.3464 432.365 31.4196C443.886 31.5654 468.154 31.8569 473.055 31.8569C477.955 31.8569 479.18 36.2298 479.18 38.4162V51.5348C475.972 77.7719 470.342 133.045 473.492 144.239Z" fill="#C4E4FD"/>
<path fill-rule="evenodd" clip-rule="evenodd" d="M-872.517 153.889L-872.512 153.939C-872.387 155.314 -872.843 157.161 -874.086 158.658C-875.305 160.125 -877.314 161.294 -880.391 161.294C-887.027 161.294 -906.446 161.003 -915.356 160.857C-916.286 160.79 -917.723 160.368 -918.916 159.315C-920.088 158.282 -921.081 156.593 -921.081 153.86V153.77L-921.1 153.682C-922.215 148.325 -922.504 139.615 -922.175 129.496C-921.846 119.4 -920.905 107.975 -919.589 97.2282C-918.272 86.4778 -916.584 76.4312 -914.767 69.0859C-913.857 65.4069 -912.924 62.4443 -912.005 60.4178C-911.544 59.4005 -911.107 58.666 -910.709 58.1995C-910.295 57.7136 -910.046 57.6569 -909.965 57.6569C-909.573 57.6569 -908.248 57.6288 -906.313 57.5876C-902.846 57.514 -897.419 57.3987 -891.873 57.3289C-887.539 57.2742 -883.12 57.2469 -879.471 57.2878C-875.788 57.3291 -872.974 57.44 -871.79 57.6442C-869.207 58.0894 -867.886 58.4971 -867.072 59.598C-866.655 60.1613 -866.324 60.9738 -866.101 62.2238C-865.887 63.4286 -865.783 64.9893 -865.775 67.0373C-866.022 67.4806 -866.239 68.0424 -866.438 68.6792C-866.678 69.4474 -866.907 70.3787 -867.126 71.4474C-867.564 73.5852 -867.973 76.3221 -868.356 79.5001C-869.121 85.8588 -869.784 94.0412 -870.346 102.849C-871.471 120.469 -872.194 140.64 -872.516 153.839L-872.517 153.889ZM-864.9 67.2771C-864.9 58.5313 -866.569 57.6568 -871.641 56.7822C-875.806 56.0639 -897.503 56.5255 -906.338 56.7135C-908.26 56.7544 -909.574 56.7822 -909.965 56.7822C-917.403 56.7822 -926.51 131.995 -921.956 153.86C-921.956 159.807 -917.581 161.585 -915.393 161.731C-906.497 161.877 -887.042 162.168 -880.391 162.168C-873.741 162.168 -871.349 157.066 -871.641 153.86C-870.998 127.477 -868.75 73.2242 -864.9 67.2771Z" fill="#75A6C7"/>
<path d="M673.442 65.5279H635.377L659.878 96.5752H699.256L673.442 65.5279Z" fill="#30598E"/>
<path d="M626.626 67.2771H606.5L601.25 99.6362L652.44 98.3244L626.626 67.2771Z" fill="#30598E"/>
<path d="M597.75 67.2771C597.75 67.2771 587.626 65.4915 581.561 67.2771C567.28 71.4819 561.435 99.6362 561.435 99.6362H590.312L597.75 67.2771Z" fill="#30598E"/>
<path fill-rule="evenodd" clip-rule="evenodd" d="M479.18 51.5348V38.4162C479.18 36.2298 477.955 31.8569 473.055 31.8569C468.154 31.8569 443.886 31.5654 432.365 31.4196C431.559 31.3464 430.348 31.5233 429.343 32.2942C428.347 33.0577 427.552 34.404 427.552 36.6671C422.01 70.0466 411.889 138.467 415.739 145.114C414.689 149.312 419.385 152.111 421.864 153.422C432.073 153.277 454.504 153.073 462.554 153.422C470.605 153.772 473.201 147.446 473.492 144.239C470.342 133.045 475.972 77.7719 479.18 51.5348ZM478.305 51.4815C476.7 64.6108 474.493 84.9722 473.079 103.461C472.371 112.717 471.861 121.515 471.726 128.705C471.658 132.299 471.684 135.502 471.827 138.165C471.964 140.718 472.21 142.824 472.605 144.313C472.442 145.766 471.769 147.876 470.273 149.59C468.755 151.329 466.349 152.712 462.592 152.549C454.569 152.2 432.378 152.399 422.077 152.545C420.869 151.896 419.29 150.957 418.105 149.74C416.864 148.466 416.165 147.014 416.588 145.326L416.674 144.982L416.496 144.676C416.34 144.406 416.173 143.881 416.041 143.033C415.912 142.207 415.828 141.154 415.788 139.887C415.709 137.355 415.808 134.038 416.054 130.114C416.547 122.269 417.622 112.071 418.992 101.023C421.732 78.9302 425.646 53.4928 428.415 36.8102L428.427 36.7391V36.667C428.427 34.6303 429.129 33.5602 429.875 32.9881C430.67 32.3787 431.649 32.2327 432.286 32.2906L432.32 32.2937L432.354 32.2941C443.871 32.4398 468.147 32.7315 473.055 32.7315C475.193 32.7315 476.461 33.6626 477.229 34.8044C478.028 35.9931 478.305 37.4513 478.305 38.4162V51.4815Z" fill="#75A6C7"/>
<path fill-rule="evenodd" clip-rule="evenodd" d="M227.969 160.769H239.782V191.379H204.78V160.769H220.094V168.203H227.969V160.769Z" fill="#F7C37C"/>
<path d="M227.969 160.769V168.203H220.094V160.769H227.969Z" fill="#D68B47"/>
<path fill-rule="evenodd" clip-rule="evenodd" d="M227.969 191.379H239.782V221.989H204.78V191.379H220.094V198.813H227.969V191.379Z" fill="#F7C37C"/>
<path d="M227.969 191.379V198.813H220.094V191.379H227.969Z" fill="#D68B47"/>
<path d="M227.969 221.989V229.423H220.094V221.989H227.969Z" fill="#D68B47"/>
<path fill-rule="evenodd" clip-rule="evenodd" d="M192.967 160.769H204.78V191.379H169.778V160.769H185.092V168.203H192.967V160.769Z" fill="#F7C37C"/>
<path d="M192.967 160.769V168.203H185.092V160.769H192.967Z" fill="#D68B47"/>
<path fill-rule="evenodd" clip-rule="evenodd" d="M192.967 191.379H204.78V221.989H169.778V191.379H185.092V198.813H192.967V191.379Z" fill="#F7C37C"/>
<path d="M192.967 191.379V198.813H185.092V191.379H192.967Z" fill="#D68B47"/>
<path d="M192.967 221.989V229.423H185.092V221.989H192.967Z" fill="#D68B47"/>
<path fill-rule="evenodd" clip-rule="evenodd" d="M157.965 160.769H169.778V191.379H134.776V160.769H150.09V168.203H157.965V160.769Z" fill="#F7C37C"/>
<path d="M157.965 160.769V168.203H150.09V160.769H157.965Z" fill="#D68B47"/>
<path fill-rule="evenodd" clip-rule="evenodd" d="M157.965 191.379H169.778V221.989H134.776V191.379H150.09V198.813H157.965V191.379Z" fill="#F7C37C"/>
<path d="M157.965 191.379V198.813H150.09V191.379H157.965Z" fill="#D68B47"/>
<path d="M157.965 221.989V229.423H150.09V221.989H157.965Z" fill="#D68B47"/>
<path fill-rule="evenodd" clip-rule="evenodd" d="M122.963 160.769H134.776V191.379H99.7742V160.769H115.088V168.203H122.963V160.769Z" fill="#F7C37C"/>
<path d="M122.963 160.769V168.203H115.088V160.769H122.963Z" fill="#D68B47"/>
<path d="M122.963 191.379V198.813H115.088V191.379H122.963Z" fill="#D68B47"/>
<path d="M445.928 253.124C444.528 253.124 349.964 254.873 302.857 255.748L298.044 255.83L288.856 255.988L274.855 256.228L265.23 256.393L258.667 256.506L73.5936 259.683H20.9822C21.0538 257.668 21.0904 255.626 21.0904 253.561C21.0904 234.638 18.0159 217.613 13.1145 205.779C20.9385 205.022 35.3768 203.71 39.0289 203.71C43.8417 203.71 64.843 194.09 66.1556 171.788C67.2057 153.947 48.5087 148.904 39.0289 148.612H88.0319C88.0319 161.042 92.9377 179.406 99.7742 197.363V221.989V252.599H134.776H169.778H204.78H239.782V246.127H324.733C301.962 239.506 292.12 224.662 282.23 209.747C281.844 209.166 281.459 208.584 281.072 208.003C280.896 207.738 280.72 207.473 280.543 207.209C272.442 195.063 264.355 162.605 262.605 145.989L415.739 145.114C414.689 149.312 419.385 152.111 421.864 153.422C432.073 153.277 454.504 153.073 462.554 153.422C470.605 153.772 473.201 147.446 473.492 144.239L777.573 141.179C808.2 186.219 744.758 215.08 729.008 221.639C714.666 227.612 637.565 241.754 610.876 244.815C594.277 246.719 567.863 247.946 549.211 248.813L549.206 248.813L549.201 248.813L549.196 248.813L549.191 248.813L549.186 248.814L549.182 248.814H549.18C537.856 249.34 529.398 249.732 527.746 250.063C501.786 251.062 449.078 253.072 445.928 253.124Z" fill="#00548F"/>
<path d="M134.339 251.725H100.649V222.864H112.252C113.02 223.846 113.822 224.8 114.65 225.727V229.86H118.455C123.881 235.306 129.482 239.048 134.339 241.649V251.725Z" fill="#00548F"/>
<path d="M99.7742 252.599V221.989H111.581C111.802 222.283 112.025 222.575 112.252 222.864H100.649V251.725H134.339V241.649C134.485 241.728 134.631 241.805 134.776 241.882V252.599H99.7742Z" fill="#00548F"/>
<path d="M110.939 221.115H100.649V200.135C102.497 205.689 104.71 210.584 107.156 214.899C108.248 217.072 109.525 219.144 110.939 221.115Z" fill="#00548F"/>
<path d="M99.7742 221.989V197.363C100.056 198.304 100.348 199.228 100.649 200.135V221.115H110.939C111.15 221.408 111.364 221.7 111.581 221.989H99.7742Z" fill="#00548F"/>
<path d="M115.525 226.725V228.986H117.6C117.741 229.133 117.882 229.279 118.024 229.423H115.088V226.221C115.233 226.391 115.379 226.559 115.525 226.725Z" fill="#00548F"/>
<path d="M114.65 229.86V225.727C114.747 225.835 114.844 225.943 114.942 226.051C114.99 226.108 115.039 226.165 115.088 226.221V229.423H118.024C118.167 229.57 118.311 229.716 118.455 229.86H114.65Z" fill="#00548F"/>
<path d="M115.525 228.986V226.725C116.212 227.508 116.904 228.261 117.6 228.986H115.525Z" fill="#00548F"/>
<path d="M114.65 222.864V225.707C113.884 224.798 113.127 223.851 112.381 222.864H114.65Z" fill="#F7C37C"/>
<path d="M134.339 192.254V221.115H111.1C109.736 219.189 108.415 217.121 107.156 214.899C106.896 214.382 106.646 213.859 106.408 213.331C104.401 208.884 102.465 204.281 100.649 199.632V192.254H114.65V199.25H123.401V192.254H134.339Z" fill="#F7C37C"/>
<path d="M238.907 251.725H205.218V246.127H238.907V251.725Z" fill="#00548F"/>
<path d="M239.782 252.599H204.78V246.127H205.218V251.725H238.907V246.127H239.782V252.599Z" fill="#00548F"/>
<path d="M204.343 251.725H170.216V246.127H204.343V251.725Z" fill="#00548F"/>
<path d="M204.78 252.599H169.778V246.127H170.216V251.725H204.343V246.127H204.78V252.599Z" fill="#00548F"/>
<path d="M169.341 251.725H135.214V242.11C138.935 244.036 142.168 245.286 144.473 246.127H169.341V251.725Z" fill="#00548F"/>
<path d="M169.778 252.599H134.776V241.882C134.923 241.959 135.069 242.035 135.214 242.11V251.725H169.341V246.127H169.778V252.599Z" fill="#00548F"/>
<path d="M205.218 222.864H219.656V229.86H228.407V222.864H238.907V246.127H205.218V222.864Z" fill="#F7C37C"/>
<path d="M170.216 222.864H184.654V229.86H193.405V222.864H204.343V246.127H170.216V222.864Z" fill="#F7C37C"/>
<path fill-rule="evenodd" clip-rule="evenodd" d="M239.782 221.989V246.127H238.907V222.864H228.407V229.86H219.656V222.864H205.218V246.127H204.78H204.343V222.864H193.405V229.86H184.654V222.864H170.216V246.127H169.778H169.341V222.864H158.403V229.86H149.652V222.864H135.214V241.757C138.793 243.743 142.023 245.209 144.473 246.127C142.168 245.286 138.935 244.036 135.214 242.11C135.069 242.035 134.923 241.959 134.776 241.882C134.631 241.805 134.485 241.728 134.339 241.649C129.482 239.048 123.881 235.306 118.455 229.86C118.311 229.716 118.167 229.57 118.024 229.423C117.882 229.279 117.741 229.133 117.6 228.986C116.904 228.261 116.212 227.508 115.525 226.725C115.379 226.559 115.233 226.391 115.088 226.221C115.039 226.165 114.99 226.108 114.942 226.051C114.844 225.943 114.747 225.835 114.65 225.727C113.822 224.8 113.02 223.846 112.252 222.864C112.025 222.575 111.802 222.283 111.581 221.989C111.364 221.7 111.15 221.408 110.939 221.115C109.525 219.144 108.248 217.072 107.156 214.899C104.71 210.584 102.497 205.689 100.649 200.135C100.348 199.228 100.056 198.304 99.7742 197.363V191.379V160.769H239.782V221.989ZM107.156 214.899C108.415 217.121 109.736 219.189 111.1 221.115H134.339V192.254H123.401V199.25H114.65V192.254H100.649V199.632C102.465 204.281 104.401 208.884 106.408 213.331C106.646 213.859 106.896 214.382 107.156 214.899ZM228.407 161.644V168.64H219.656V161.644H205.218V190.505H238.907V161.644H228.407ZM220.531 161.644H227.532V167.766H220.531V161.644ZM238.907 221.115V192.254H228.407V199.25H219.656V192.254H205.218V221.115H238.907ZM227.532 198.376V192.254H220.531V198.376H227.532ZM204.343 221.115V192.254H193.405V199.25H184.654V192.254H170.216V221.115H204.343ZM192.53 198.376V192.254H185.529V198.376H192.53ZM169.341 221.115V192.254H158.403V199.25H149.652V192.254H135.214V221.115H169.341ZM157.528 198.376V192.254H150.527V198.376H157.528ZM122.526 198.376V192.254H115.525V198.376H122.526ZM100.649 161.644V190.505H134.339V161.644H123.401V168.64H114.65V161.644H100.649ZM135.214 190.505V161.644H149.652V168.64H158.403V161.644H169.341V190.505H135.214ZM157.528 161.644H150.527V167.766H157.528V161.644ZM170.216 190.505V161.644H184.654V168.64H193.405V161.644H204.343V190.505H170.216ZM192.53 161.644H185.529V167.766H192.53V161.644ZM122.526 167.766V161.644H115.525V167.766H122.526ZM227.532 228.986V222.864H220.531V228.986H227.532ZM192.53 228.986V222.864H185.529V228.986H192.53ZM157.528 228.986V222.864H150.527V228.986H157.528ZM123.401 222.864H134.339V241.265C129.342 238.418 123.752 234.592 118.698 229.86H123.401V222.864ZM114.65 225.707V222.864H112.381C113.127 223.851 113.884 224.798 114.65 225.707Z" fill="#C98B48"/>
<path d="M135.214 222.864H149.652V229.86H158.403V222.864H169.341V246.127H144.473C142.023 245.209 138.793 243.743 135.214 241.757V222.864Z" fill="#F7C37C"/>
<path d="M123.401 222.864H134.339V241.265C129.342 238.418 123.752 234.592 118.698 229.86H123.401V222.864Z" fill="#F7C37C"/>
<path d="M262.605 145.989C264.355 162.605 272.442 195.063 280.543 207.209C280.72 207.473 280.896 207.738 281.072 208.003C281.459 208.584 281.844 209.166 282.23 209.747C292.12 224.662 301.962 239.506 324.733 246.127H239.782V221.989V191.379V160.769H227.969H220.094H204.78H192.967H185.092H169.778H157.965H150.09H134.776H122.963H115.088H99.7742V191.379V197.363C92.9377 179.406 88.0319 161.042 88.0319 148.612L262.605 145.989Z" fill="#161616"/>
<path fill-rule="evenodd" clip-rule="evenodd" d="M673.442 65.5279H635.377L659.878 96.5752H699.256L673.442 65.5279ZM626.626 67.2771H606.5L601.25 99.6362L652.44 98.3244L626.626 67.2771ZM597.75 67.2771C597.75 67.2771 587.626 65.4915 581.561 67.2771C567.28 71.4819 561.435 99.6362 561.435 99.6362H590.312L597.75 67.2771Z" fill="#00548F"/>
<path fill-rule="evenodd" clip-rule="evenodd" d="M727.695 103.135C743.905 108.361 767.947 129.663 777.573 141.179C711.798 139.721 576.398 132.87 560.997 117.128C541.746 97.4498 482.68 54.5958 479.18 51.5348V38.4162C479.18 36.2298 477.955 31.8569 473.055 31.8569C468.154 31.8569 443.886 31.5654 432.365 31.4196C431.559 31.3464 430.348 31.5233 429.343 32.2942C-47.2826 31.0537 -1004.91 28.8774 -1022.41 30.0967C-985.958 27.6697 -946.016 25.5284 -908.215 23.7584C-869.948 21.9666 -833.874 20.5552 -805.834 19.6132C-790.186 21.6985 -508.17 14.803 -369.183 11.742C-155.378 8.681 282.731 0.809845 335.234 0.809845C398.262 0.809845 525.995 7.80643 579.811 16.1149C633.627 24.4233 680.005 64.2162 692.255 77.3349C697.808 83.2812 700.568 94.3889 727.695 103.135ZM635.377 65.5279H673.442L699.256 96.5752H659.878L635.377 65.5279ZM606.5 67.2771H626.626L652.44 98.3244L601.25 99.6362L606.5 67.2771ZM581.561 67.2771C587.626 65.4915 597.75 67.2771 597.75 67.2771L590.312 99.6362H561.435C561.435 99.6362 567.28 71.4819 581.561 67.2771Z" fill="#EFEFEF"/>
<path d="M39.0289 148.612C48.5087 148.904 67.2057 153.947 66.1556 171.788C61.9262 173.975 48.6545 178.085 29.4034 177.036C10.1523 175.986 -534.395 162.022 -804.262 155.172C-743.358 149.574 -217.215 148.467 39.0289 148.612Z" fill="#EFEFEF"/>
</g>
</svg>
