<svg width="50" height="50" viewBox="0 0 50 50" fill="none" xmlns="http://www.w3.org/2000/svg">
<path d="M14.5834 4.1665H12.5C6.25002 4.1665 4.16669 7.89567 4.16669 12.4998V14.5832V43.7498C4.16669 45.479 6.12502 46.4582 7.50002 45.4165L11.0625 42.7498C11.8959 42.1248 13.0625 42.2082 13.8125 42.9582L17.2709 46.4373C18.0834 47.2498 19.4167 47.2498 20.2292 46.4373L23.7292 42.9373C24.4584 42.2082 25.625 42.1248 26.4375 42.7498L30 45.4165C31.375 46.4373 33.3334 45.4582 33.3334 43.7498V8.33317C33.3334 6.0415 35.2084 4.1665 37.5 4.1665H14.5834ZM12.4375 29.1873C11.2917 29.1873 10.3542 28.2498 10.3542 27.104C10.3542 25.9582 11.2917 25.0207 12.4375 25.0207C13.5834 25.0207 14.5209 25.9582 14.5209 27.104C14.5209 28.2498 13.5834 29.1873 12.4375 29.1873ZM12.4375 20.854C11.2917 20.854 10.3542 19.9165 10.3542 18.7707C10.3542 17.6248 11.2917 16.6873 12.4375 16.6873C13.5834 16.6873 14.5209 17.6248 14.5209 18.7707C14.5209 19.9165 13.5834 20.854 12.4375 20.854ZM25 28.6665H18.75C17.8959 28.6665 17.1875 27.9582 17.1875 27.104C17.1875 26.2498 17.8959 25.5415 18.75 25.5415H25C25.8542 25.5415 26.5625 26.2498 26.5625 27.104C26.5625 27.9582 25.8542 28.6665 25 28.6665ZM25 20.3332H18.75C17.8959 20.3332 17.1875 19.6248 17.1875 18.7707C17.1875 17.9165 17.8959 17.2082 18.75 17.2082H25C25.8542 17.2082 26.5625 17.9165 26.5625 18.7707C26.5625 19.6248 25.8542 20.3332 25 20.3332Z" fill="#054E81"/>
<path d="M37.5208 4.1665V7.2915C38.8958 7.2915 40.2083 7.854 41.1666 8.7915C42.1666 9.81234 42.7083 11.1248 42.7083 12.4998V17.5415C42.7083 19.0832 42.0208 19.7915 40.4583 19.7915H36.4583V8.354C36.4583 7.77067 36.9375 7.2915 37.5208 7.2915V4.1665ZM37.5208 4.1665C35.2083 4.1665 33.3333 6.0415 33.3333 8.354V22.9165H40.4583C43.75 22.9165 45.8333 20.8332 45.8333 17.5415V12.4998C45.8333 10.2082 44.8958 8.12484 43.3958 6.604C41.875 5.104 39.8125 4.18734 37.5208 4.1665C37.5416 4.1665 37.5208 4.1665 37.5208 4.1665Z" fill="#054E81"/>
</svg>
