<svg width="50" height="50" viewBox="0 0 50 50" fill="none" xmlns="http://www.w3.org/2000/svg">
<g clip-path="url(#clip0_1_1014)">
<path d="M35.5069 4.55125L37.0105 4.7213C38.0547 4.84562 38.8727 5.67495 38.9792 6.71738C39.626 13.0443 39.9493 19.3712 39.9493 25.6981C39.9493 31.3923 39.6874 37.0865 39.1635 42.7807L38.9793 44.6787C38.8727 45.7212 38.0547 46.5505 37.0105 46.6748C31.9986 47.2715 26.9866 47.5699 21.9747 47.5699C17.4639 47.5699 12.9531 47.3282 8.44239 46.8449L6.9388 46.6748C5.89462 46.5505 5.07665 45.7212 4.9701 44.6788C4.32337 38.3519 4 32.025 4 25.6981C4 20.0039 4.26193 14.3097 4.78578 8.61546L4.97008 6.71739C5.07663 5.67496 5.8946 4.84562 6.9388 4.7213C7.83219 4.61494 8.72557 4.51806 9.61896 4.43066L34.3315 4.43076C34.7233 4.46909 35.1151 4.50927 35.5069 4.55125ZM27.03 29.5716H12.4256C11.495 29.5716 10.7405 30.3233 10.7405 31.2507C10.7405 32.178 11.495 32.9297 12.4256 32.9297H27.03C27.9607 32.9297 28.7152 32.178 28.7152 31.2507C28.7152 30.3233 27.9607 29.5716 27.03 29.5716ZM22.5364 21.7361H12.4256C11.495 21.7361 10.7405 22.4878 10.7405 23.4151C10.7405 24.3424 11.495 25.0942 12.4256 25.0942H22.5364C23.467 25.0942 24.2215 24.3424 24.2215 23.4151C24.2215 22.4878 23.467 21.7361 22.5364 21.7361ZM29.2769 13.9005H12.4256C11.495 13.9005 10.7405 14.6523 10.7405 15.5796C10.7405 16.5069 11.495 17.2586 12.4256 17.2586H29.2769C30.2075 17.2586 30.962 16.5069 30.962 15.5796C30.962 14.6523 30.2075 13.9005 29.2769 13.9005Z" fill="#054E81"/>
<path d="M33.523 27.4921C35.2495 24.1772 37.566 20.6846 39.946 17.0132L39.9493 26.7546L40.2482 27.4921C39.7242 28.4099 38.878 29.4036 38.3139 30.341C35.549 34.9357 32.7655 38.9963 29.9623 42.5228C29.5073 43.0953 28.7166 43.2439 28.0945 42.874C27.4675 42.5012 27.2023 41.7103 27.4721 41.0185C29.4465 35.9556 31.4632 31.447 33.523 27.4921Z" fill="white"/>
<mask id="mask0_1_1014" style="mask-type:alpha" maskUnits="userSpaceOnUse" x="28" y="15" width="17" height="28">
<path d="M37.8296 29.897C37.763 30.0065 37.6936 30.1189 37.6239 30.2314C34.8332 34.734 32.0264 38.7094 29.2034 42.1577C29.0317 42.3674 28.7332 42.4219 28.4985 42.2863C28.2652 42.1517 28.1665 41.8659 28.2669 41.616C30.2622 36.6483 32.2985 32.2284 34.3757 28.356L34.5624 28.0108C35.0027 28.5056 35.4951 28.9103 36.0396 29.2247C36.5842 29.5391 37.1808 29.7632 37.8296 29.897ZM43.9699 15.489C44.1942 15.6185 44.271 15.9052 44.1415 16.1294L43.9066 16.5351L43.9857 16.5808C44.4038 16.8222 44.5703 17.3418 44.3702 17.7813C42.9403 20.9229 41.2155 24.2065 39.1958 27.6323C38.5256 27.5014 37.9115 27.2738 37.3524 26.9509C36.7967 26.6301 36.2953 26.2153 35.8482 25.7065C37.5646 22.7164 39.5453 19.5853 41.7904 16.3121C42.0674 15.9083 42.6084 15.7856 43.0325 16.0305L43.0946 16.0663L43.3295 15.6606C43.459 15.4364 43.7457 15.3595 43.9699 15.489Z" fill="white"/>
</mask>
<g mask="url(#mask0_1_1014)">
<path d="M37.8296 29.897C37.763 30.0065 37.6936 30.1189 37.6239 30.2314C34.8332 34.734 32.0264 38.7094 29.2034 42.1577C29.0317 42.3674 28.7332 42.4219 28.4985 42.2863C28.2652 42.1517 28.1665 41.8659 28.2669 41.616C30.2622 36.6483 32.2985 32.2284 34.3757 28.356L34.5624 28.0108C35.0027 28.5056 35.4951 28.9103 36.0396 29.2247C36.5842 29.5391 37.1808 29.7632 37.8296 29.897ZM43.9699 15.489C44.1942 15.6185 44.271 15.9052 44.1415 16.1294L43.9066 16.5351L43.9857 16.5808C44.4038 16.8222 44.5703 17.3418 44.3702 17.7813C42.9403 20.9229 41.2155 24.2065 39.1958 27.6323C38.5256 27.5014 37.9115 27.2738 37.3524 26.9509C36.7967 26.6301 36.2953 26.2153 35.8482 25.7065C37.5646 22.7164 39.5453 19.5853 41.7904 16.3121C42.0674 15.9083 42.6084 15.7856 43.0325 16.0305L43.0946 16.0663L43.3295 15.6606C43.459 15.4364 43.7457 15.3595 43.9699 15.489Z" fill="#054E81"/>
</g>
<path d="M35.3762 25.6855C35.8919 26.355 36.4881 26.8851 37.1648 27.2758C37.8415 27.6665 38.5987 27.9178 39.4364 28.0297L38.4987 29.6538C37.661 29.5419 36.9039 29.2906 36.2272 28.8999C35.5505 28.5092 34.9542 27.9791 34.4385 27.3096L35.3762 25.6855Z" fill="#054E81"/>
</g>
<defs>
<clipPath id="clip0_1_1014">
<rect width="50" height="50" fill="white"/>
</clipPath>
</defs>
</svg>
