<svg width="50" height="50" viewBox="0 0 50 50" fill="none" xmlns="http://www.w3.org/2000/svg">
<g clip-path="url(#clip0_1_994)">
<mask id="mask0_1_994" style="mask-type:alpha" maskUnits="userSpaceOnUse" x="4" y="6" width="33" height="39">
<path d="M20.3258 6C24.3644 6 28.403 6.23845 32.4416 6.71536L33.7878 6.88319C34.814 7.01783 35.6163 7.83468 35.7324 8.86314C36.3452 14.289 36.6517 19.7148 36.6517 25.1406C36.6517 30.0239 36.4035 34.9071 35.9071 39.7904L35.7324 41.4181C35.6162 42.4466 34.814 43.2634 33.7878 43.3981C29.3004 43.9869 24.8131 44.2812 20.3258 44.2812C16.3004 44.2812 12.2749 44.0443 8.2495 43.5705C8.33928 43.3088 8.38895 43.0287 8.39263 42.7374C8.46666 36.8718 8.50368 31.0062 8.50368 25.1406C8.50368 19.2745 8.46666 13.409 8.39261 7.5439C8.38893 7.25255 8.33927 6.97244 8.25059 6.71044C12.275 6.2369 16.3004 6 20.3258 6ZM7.09215 6.85551C7.20091 7.06635 7.26358 7.30496 7.26678 7.55811C7.34077 13.4189 7.37776 19.2798 7.37776 25.1406C7.37776 31.0015 7.34077 36.8623 7.26678 42.7231C7.26358 42.9763 7.20091 43.2149 7.09215 43.4257L6.86388 43.3981C5.83767 43.2634 5.0354 42.4466 4.91924 41.4181C4.30641 35.9923 4 30.5665 4 25.1406C4 20.2574 4.24819 15.3741 4.74458 10.4909L4.91926 8.86312C5.03542 7.83465 5.83769 7.01781 6.8639 6.88316L7.09215 6.85551ZM22.0147 10.5037C19.7745 10.5037 17.5343 10.5533 15.2941 10.6526C14.3002 10.6966 13.461 11.3857 13.2145 12.3348L13.1754 12.5157L13.1018 12.9979C13.0388 13.4801 13.0074 13.9622 13.0074 14.4444C13.0074 15.0873 13.0633 15.7302 13.1753 16.373C13.3461 17.3532 14.1368 18.0974 15.1097 18.2205L15.2941 18.2362L16.9743 18.3014C18.6544 18.3572 20.3346 18.3851 22.0147 18.3851C24.2549 18.3851 26.4951 18.3355 28.7353 18.2362C29.7292 18.1922 30.5684 17.5031 30.8149 16.554L30.8541 16.3731L30.9276 15.8909C30.9906 15.4087 31.0221 14.9266 31.0221 14.4444C31.0221 13.8015 30.9661 13.1586 30.8541 12.5158C30.6834 11.5356 29.8926 10.7914 28.9197 10.6683L28.7353 10.6525L27.0552 10.5874C25.375 10.5316 23.6949 10.5037 22.0147 10.5037Z" fill="white"/>
</mask>
<g mask="url(#mask0_1_994)">
<path d="M20.3258 6C24.3644 6 28.403 6.23845 32.4416 6.71536L33.7878 6.88319C34.814 7.01783 35.6163 7.83468 35.7324 8.86314C36.3452 14.289 36.6517 19.7148 36.6517 25.1406C36.6517 30.0239 36.4035 34.9071 35.9071 39.7904L35.7324 41.4181C35.6162 42.4466 34.814 43.2634 33.7878 43.3981C29.3004 43.9869 24.8131 44.2812 20.3258 44.2812C16.3004 44.2812 12.2749 44.0443 8.2495 43.5705C8.33928 43.3088 8.38895 43.0287 8.39263 42.7374C8.46666 36.8718 8.50368 31.0062 8.50368 25.1406C8.50368 19.2745 8.46666 13.409 8.39261 7.5439C8.38893 7.25255 8.33927 6.97244 8.25059 6.71044C12.275 6.2369 16.3004 6 20.3258 6ZM7.09215 6.85551C7.20091 7.06635 7.26358 7.30496 7.26678 7.55811C7.34077 13.4189 7.37776 19.2798 7.37776 25.1406C7.37776 31.0015 7.34077 36.8623 7.26678 42.7231C7.26358 42.9763 7.20091 43.2149 7.09215 43.4257L6.86388 43.3981C5.83767 43.2634 5.0354 42.4466 4.91924 41.4181C4.30641 35.9923 4 30.5665 4 25.1406C4 20.2574 4.24819 15.3741 4.74458 10.4909L4.91926 8.86312C5.03542 7.83465 5.83769 7.01781 6.8639 6.88316L7.09215 6.85551ZM22.0147 10.5037C19.7745 10.5037 17.5343 10.5533 15.2941 10.6526C14.3002 10.6966 13.461 11.3857 13.2145 12.3348L13.1754 12.5157L13.1018 12.9979C13.0388 13.4801 13.0074 13.9622 13.0074 14.4444C13.0074 15.0873 13.0633 15.7302 13.1753 16.373C13.3461 17.3532 14.1368 18.0974 15.1097 18.2205L15.2941 18.2362L16.9743 18.3014C18.6544 18.3572 20.3346 18.3851 22.0147 18.3851C24.2549 18.3851 26.4951 18.3355 28.7353 18.2362C29.7292 18.1922 30.5684 17.5031 30.8149 16.554L30.8541 16.3731L30.9276 15.8909C30.9906 15.4087 31.0221 14.9266 31.0221 14.4444C31.0221 13.8015 30.9661 13.1586 30.8541 12.5158C30.6834 11.5356 29.8926 10.7914 28.9197 10.6683L28.7353 10.6525L27.0552 10.5874C25.375 10.5316 23.6949 10.5037 22.0147 10.5037Z" fill="#054E81"/>
</g>
<mask id="mask1_1_994" style="mask-type:alpha" maskUnits="userSpaceOnUse" x="38" y="6" width="5" height="38">
<path d="M42.8575 24.6694C42.8539 24.8233 42.8492 24.9818 42.8442 25.1406C42.6455 31.4983 42.1135 37.3175 41.2482 42.5983C41.1955 42.9195 40.9179 43.1553 40.5924 43.1553C40.269 43.1553 39.9948 42.9175 39.9491 42.5973C39.0415 36.2335 38.5054 30.4146 38.3405 25.1406L38.3274 24.6695C39.0824 24.9198 39.8374 25.0449 40.5924 25.0449C41.3474 25.0449 42.1024 24.9197 42.8575 24.6694ZM40.5924 6C40.9033 6 41.1553 6.25205 41.1553 6.56296L41.1546 7.12592H41.2642C41.8441 7.12593 42.3291 7.56627 42.3849 8.14339C42.7841 12.2688 42.962 16.719 42.9185 21.4941C42.1429 21.7604 41.3676 21.8923 40.5924 21.8923C39.8219 21.8923 39.0515 21.762 38.281 21.5014C38.2707 17.3614 38.4506 12.9162 38.8201 8.16456C38.8657 7.57835 39.3547 7.12592 39.9426 7.12592H40.0287L40.0294 6.56296C40.0294 6.25205 40.2815 6 40.5924 6Z" fill="white"/>
</mask>
<g mask="url(#mask1_1_994)">
<path d="M42.8575 24.6694C42.8539 24.8233 42.8492 24.9818 42.8442 25.1406C42.6455 31.4983 42.1135 37.3175 41.2482 42.5983C41.1955 42.9195 40.9179 43.1553 40.5924 43.1553C40.269 43.1553 39.9948 42.9175 39.9491 42.5973C39.0415 36.2335 38.5054 30.4146 38.3405 25.1406L38.3274 24.6695C39.0824 24.9198 39.8374 25.0449 40.5924 25.0449C41.3474 25.0449 42.1024 24.9197 42.8575 24.6694ZM40.5924 6C40.9033 6 41.1553 6.25205 41.1553 6.56296L41.1546 7.12592H41.2642C41.8441 7.12593 42.3291 7.56627 42.3849 8.14339C42.7841 12.2688 42.962 16.719 42.9185 21.4941C42.1429 21.7604 41.3676 21.8923 40.5924 21.8923C39.8219 21.8923 39.0515 21.762 38.281 21.5014C38.2707 17.3614 38.4506 12.9162 38.8201 8.16456C38.8657 7.57835 39.3547 7.12592 39.9426 7.12592H40.0287L40.0294 6.56296C40.0294 6.25205 40.2815 6 40.5924 6Z" fill="#054E81"/>
</g>
<path d="M37.7776 21.7627C38.7159 22.1493 39.6541 22.3425 40.5924 22.3425C41.5307 22.3425 42.4689 22.1493 43.4072 21.7627V24.0145C42.4689 24.4011 41.5307 24.5944 40.5924 24.5944C39.6541 24.5944 38.7159 24.4011 37.7776 24.0145V21.7627Z" fill="#054E81"/>
</g>
<defs>
<clipPath id="clip0_1_994">
<rect width="50" height="50" fill="white"/>
</clipPath>
</defs>
</svg>
