<svg width="342" height="364" viewBox="0 0 342 364" fill="none" xmlns="http://www.w3.org/2000/svg">
<path fill-rule="evenodd" clip-rule="evenodd" d="M42.419 7.2103C35.4493 12.0172 32.6855 25.8369 32.6855 25.8369V315.451L278.427 315.21C278.427 315.21 267.612 323.142 267.853 339.725C268.093 356.309 278.427 364 278.427 364C278.427 364 290.536 364 299.457 357.03C307.197 350.983 310.152 335.399 310.152 335.399V48.0687C308.83 32.0458 311.594 0 333.224 0H63.0878C63.0878 0 49.4459 2.36401 42.419 7.2103ZM67.7743 97.8197C67.7743 94.6953 69.5768 94.6953 69.5768 94.6953H283.114C283.114 94.6953 284.916 94.8155 284.916 97.8197C284.916 100.824 283.114 100.824 283.114 100.824H69.5768C69.5768 100.824 67.7743 100.944 67.7743 97.8197ZM67.7743 126.661C67.7743 123.536 69.5768 123.536 69.5768 123.536H283.114C283.114 123.536 284.916 123.657 284.916 126.661C284.916 129.665 283.114 129.665 283.114 129.665H69.5768C69.5768 129.665 67.7743 129.785 67.7743 126.661ZM67.7743 153.099C67.7743 149.974 69.5768 149.974 69.5768 149.974H283.114C283.114 149.974 284.916 150.094 284.916 153.099C284.916 156.103 283.114 156.103 283.114 156.103H69.5768C69.5768 156.103 67.7743 156.223 67.7743 153.099ZM67.7743 181.94C67.7743 178.815 69.5768 178.815 69.5768 178.815H283.114C283.114 178.815 284.916 178.936 284.916 181.94C284.916 184.944 283.114 184.944 283.114 184.944H69.5768C69.5768 184.944 67.7743 185.064 67.7743 181.94ZM67.7743 210.781C67.7743 207.657 69.5768 207.657 69.5768 207.657H283.114C283.114 207.657 284.916 207.777 284.916 210.781C284.916 213.785 283.114 213.785 283.114 213.785H69.5768C69.5768 213.785 67.7743 213.906 67.7743 210.781ZM67.7743 237.219C67.7743 234.094 69.5768 234.094 69.5768 234.094H283.114C283.114 234.094 284.916 234.215 284.916 237.219C284.916 240.223 283.114 240.223 283.114 240.223H69.5768C69.5768 240.223 67.7743 240.343 67.7743 237.219ZM67.7743 266.06C67.7743 262.936 69.5768 262.936 69.5768 262.936H283.114C283.114 262.936 284.916 263.056 284.916 266.06C284.916 269.064 283.114 269.064 283.114 269.064H69.5768C69.5768 269.064 67.7743 269.185 67.7743 266.06Z" fill="#F2F8FC"/>
<path d="M8.77221 364H278.427C278.427 364 268.093 356.309 267.853 339.725C267.612 323.142 278.427 315.21 278.427 315.21L32.6855 315.451H8.77221C8.77221 315.451 -1.46688e-05 326.987 0 340.927C1.46689e-05 354.867 8.77221 364 8.77221 364Z" fill="#00548F"/>
<path d="M341.876 20.309C340.84 11.4272 333.224 0 333.224 0C311.594 0 308.83 32.0458 310.152 48.0687H333.224C333.224 48.0687 343.22 31.8317 341.876 20.309Z" fill="#00548F"/>
<path d="M69.5768 94.6953C69.5768 94.6953 67.7743 94.6953 67.7743 97.8197C67.7743 100.944 69.5768 100.824 69.5768 100.824H283.114C283.114 100.824 284.916 100.824 284.916 97.8197C284.916 94.8155 283.114 94.6953 283.114 94.6953H69.5768Z" fill="#00548F"/>
<path d="M69.5768 123.536C69.5768 123.536 67.7743 123.536 67.7743 126.661C67.7743 129.785 69.5768 129.665 69.5768 129.665H283.114C283.114 129.665 284.916 129.665 284.916 126.661C284.916 123.657 283.114 123.536 283.114 123.536H69.5768Z" fill="#00548F"/>
<path d="M69.5768 149.974C69.5768 149.974 67.7743 149.974 67.7743 153.099C67.7743 156.223 69.5768 156.103 69.5768 156.103H283.114C283.114 156.103 284.916 156.103 284.916 153.099C284.916 150.094 283.114 149.974 283.114 149.974H69.5768Z" fill="#00548F"/>
<path d="M69.5768 178.815C69.5768 178.815 67.7743 178.815 67.7743 181.94C67.7743 185.064 69.5768 184.944 69.5768 184.944H283.114C283.114 184.944 284.916 184.944 284.916 181.94C284.916 178.936 283.114 178.815 283.114 178.815H69.5768Z" fill="#00548F"/>
<path d="M69.5768 207.657C69.5768 207.657 67.7743 207.657 67.7743 210.781C67.7743 213.906 69.5768 213.785 69.5768 213.785H283.114C283.114 213.785 284.916 213.785 284.916 210.781C284.916 207.777 283.114 207.657 283.114 207.657H69.5768Z" fill="#00548F"/>
<path d="M69.5768 234.094C69.5768 234.094 67.7743 234.094 67.7743 237.219C67.7743 240.343 69.5768 240.223 69.5768 240.223H283.114C283.114 240.223 284.916 240.223 284.916 237.219C284.916 234.215 283.114 234.094 283.114 234.094H69.5768Z" fill="#00548F"/>
<path d="M69.5768 262.936C69.5768 262.936 67.7743 262.936 67.7743 266.06C67.7743 269.185 69.5768 269.064 69.5768 269.064H283.114C283.114 269.064 284.916 269.064 284.916 266.06C284.916 263.056 283.114 262.936 283.114 262.936H69.5768Z" fill="#00548F"/>
</svg>
