<svg width="175" height="37" viewBox="0 0 175 37" fill="none" xmlns="http://www.w3.org/2000/svg">
<g clip-path="url(#clip0_104_398)">
<path d="M1.69614 23V3.48485H9.39548C10.8756 3.48485 12.1366 3.76754 13.1784 4.33292C14.2203 4.89194 15.0143 5.67014 15.5607 6.66749C16.1133 7.6585 16.3897 8.80196 16.3897 10.0979C16.3897 11.3938 16.1102 12.5373 15.5511 13.5283C14.9921 14.5193 14.1822 15.2911 13.1213 15.8438C12.0667 16.3965 10.7899 16.6728 9.29066 16.6728H4.38329V13.3663H8.62364C9.41771 13.3663 10.072 13.2297 10.5866 12.9566C11.1075 12.677 11.495 12.2927 11.7491 11.8036C12.0096 11.3081 12.1398 10.7395 12.1398 10.0979C12.1398 9.44993 12.0096 8.88455 11.7491 8.40175C11.495 7.9126 11.1075 7.53462 10.5866 7.26781C10.0657 6.99465 9.40501 6.85807 8.60458 6.85807H5.82215V23H1.69614ZM36.4127 13.2424C36.4127 15.3705 36.0093 17.181 35.2025 18.6739C34.4021 20.1667 33.3095 21.307 31.9246 22.0948C30.5461 22.8761 28.9961 23.2668 27.2745 23.2668C25.5402 23.2668 23.9839 22.8729 22.6054 22.0852C21.2268 21.2975 20.1374 20.1572 19.3369 18.6644C18.5365 17.1715 18.1363 15.3642 18.1363 13.2424C18.1363 11.1143 18.5365 9.30382 19.3369 7.81096C20.1374 6.3181 21.2268 5.18099 22.6054 4.39962C23.9839 3.6119 25.5402 3.21804 27.2745 3.21804C28.9961 3.21804 30.5461 3.6119 31.9246 4.39962C33.3095 5.18099 34.4021 6.3181 35.2025 7.81096C36.0093 9.30382 36.4127 11.1143 36.4127 13.2424ZM32.2295 13.2424C32.2295 11.8639 32.0231 10.7014 31.6101 9.75485C31.2036 8.80832 30.6287 8.09047 29.8854 7.60132C29.1422 7.11218 28.2719 6.8676 27.2745 6.8676C26.2771 6.8676 25.4068 7.11218 24.6636 7.60132C23.9203 8.09047 23.3423 8.80832 22.9293 9.75485C22.5228 10.7014 22.3195 11.8639 22.3195 13.2424C22.3195 14.6209 22.5228 15.7835 22.9293 16.73C23.3423 17.6765 23.9203 18.3944 24.6636 18.8835C25.4068 19.3727 26.2771 19.6172 27.2745 19.6172C28.2719 19.6172 29.1422 19.3727 29.8854 18.8835C30.6287 18.3944 31.2036 17.6765 31.6101 16.73C32.0231 15.7835 32.2295 14.6209 32.2295 13.2424ZM56.0975 10.3171H51.9238C51.8476 9.77709 51.6919 9.29746 51.4569 8.87819C51.2218 8.45257 50.9201 8.09047 50.5516 7.7919C50.1832 7.49333 49.7576 7.26464 49.2748 7.10582C48.7983 6.94701 48.2806 6.8676 47.7216 6.8676C46.7115 6.8676 45.8317 7.11853 45.0821 7.62038C44.3325 8.11588 43.7512 8.84008 43.3383 9.79297C42.9254 10.7395 42.7189 11.8893 42.7189 13.2424C42.7189 14.6336 42.9254 15.8025 43.3383 16.7491C43.7575 17.6956 44.342 18.4103 45.0916 18.8931C45.8412 19.3758 46.7083 19.6172 47.693 19.6172C48.2457 19.6172 48.757 19.5442 49.2271 19.3981C49.7036 19.252 50.126 19.0392 50.4945 18.7596C50.8629 18.4738 51.1678 18.1276 51.4092 17.721C51.657 17.3144 51.8285 16.8507 51.9238 16.3298L56.0975 16.3488C55.9895 17.2446 55.7195 18.1085 55.2875 18.9407C54.8619 19.7665 54.287 20.5066 53.5628 21.1609C52.8449 21.8089 51.9873 22.3234 50.99 22.7046C49.999 23.0794 48.8777 23.2668 47.6263 23.2668C45.8857 23.2668 44.3293 22.8729 42.9571 22.0852C41.5913 21.2975 40.5114 20.1572 39.7173 18.6644C38.9296 17.1715 38.5357 15.3642 38.5357 13.2424C38.5357 11.1143 38.9359 9.30382 39.7364 7.81096C40.5368 6.3181 41.6231 5.18099 42.9952 4.39962C44.3674 3.6119 45.9111 3.21804 47.6263 3.21804C48.757 3.21804 49.8052 3.37685 50.7708 3.69448C51.7428 4.01211 52.6035 4.47585 53.3531 5.0857C54.1027 5.68919 54.7126 6.42927 55.1827 7.30593C55.6591 8.18259 55.964 9.18629 56.0975 10.3171Z" fill="#F00808"/>
<path d="M58.4658 3.48485H62.5823V15.758H62.7443L71.1774 3.48485H74.7888V23H70.6628V10.7173H70.5199L62.0392 23H58.4658V3.48485ZM77.6074 3.48485H82.6959L88.0702 16.5966H88.2988L93.6731 3.48485H98.7616V23H94.7594V10.298H94.5974L89.5471 22.9047H86.8219L81.7716 10.2504H81.6096V23H77.6074V3.48485ZM118.16 3.48485V23H114.082V6.83901H106.192V23H102.114V3.48485H118.16ZM139.432 13.2424C139.432 15.3705 139.028 17.181 138.222 18.6739C137.421 20.1667 136.329 21.307 134.944 22.0948C133.565 22.8761 132.015 23.2668 130.294 23.2668C128.559 23.2668 127.003 22.8729 125.624 22.0852C124.246 21.2975 123.156 20.1572 122.356 18.6644C121.556 17.1715 121.155 15.3642 121.155 13.2424C121.155 11.1143 121.556 9.30382 122.356 7.81096C123.156 6.3181 124.246 5.18099 125.624 4.39962C127.003 3.6119 128.559 3.21804 130.294 3.21804C132.015 3.21804 133.565 3.6119 134.944 4.39962C136.329 5.18099 137.421 6.3181 138.222 7.81096C139.028 9.30382 139.432 11.1143 139.432 13.2424ZM135.249 13.2424C135.249 11.8639 135.042 10.7014 134.629 9.75485C134.223 8.80832 133.648 8.09047 132.904 7.60132C132.161 7.11218 131.291 6.8676 130.294 6.8676C129.296 6.8676 128.426 7.11218 127.683 7.60132C126.939 8.09047 126.361 8.80832 125.948 9.75485C125.542 10.7014 125.339 11.8639 125.339 13.2424C125.339 14.6209 125.542 15.7835 125.948 16.73C126.361 17.6765 126.939 18.3944 127.683 18.8835C128.426 19.3727 129.296 19.6172 130.294 19.6172C131.291 19.6172 132.161 19.3727 132.904 18.8835C133.648 18.3944 134.223 17.6765 134.629 16.73C135.042 15.7835 135.249 14.6209 135.249 13.2424ZM141.898 23V3.48485H149.597C151.077 3.48485 152.338 3.76754 153.38 4.33292C154.422 4.89194 155.216 5.67014 155.762 6.66749C156.315 7.6585 156.591 8.80196 156.591 10.0979C156.591 11.3938 156.312 12.5373 155.753 13.5283C155.194 14.5193 154.384 15.2911 153.323 15.8438C152.268 16.3965 150.992 16.6728 149.492 16.6728H144.585V13.3663H148.825C149.619 13.3663 150.274 13.2297 150.788 12.9566C151.309 12.677 151.697 12.2927 151.951 11.8036C152.211 11.3081 152.341 10.7395 152.341 10.0979C152.341 9.44993 152.211 8.88455 151.951 8.40175C151.697 7.9126 151.309 7.53462 150.788 7.26781C150.267 6.99465 149.607 6.85807 148.806 6.85807H146.024V23H141.898ZM157.938 6.88666V3.48485H173.965V6.88666H167.991V23H163.912V6.88666H157.938Z" fill="#0278CB"/>
<path d="M0.745739 28.1076H1.98864L4.14962 33.3841H4.22917L6.39015 28.1076H7.63305V34.8955H6.65862V29.9836H6.59564L4.59375 34.8856H3.78504L1.78314 29.9803H1.72017V34.8955H0.745739V28.1076ZM8.88871 34.8955V28.1076H13.1444V28.9893H9.91286V31.0574H12.9223V31.9358H9.91286V34.0139H13.1842V34.8955H8.88871ZM18.6806 28.1076V34.8955H17.6664V28.1076H18.6806ZM13.7919 34.8955L15.9661 31.3425L13.9443 28.1076H15.1972L16.8809 31.0442H19.4893L21.1598 28.1076H22.4093L20.3941 31.3491L22.5551 34.8955H21.3586L19.6517 31.9987H16.7052L14.9751 34.8955H13.7919ZM22.8107 36.5361V34.0271H23.2581C23.4106 33.899 23.5531 33.7167 23.6857 33.4803C23.8182 33.2438 23.9309 32.9245 24.0237 32.5224C24.1165 32.1203 24.1806 31.6043 24.216 30.9746L24.375 28.1076H28.5611V34.0271H29.3301V36.5262H28.349V34.8955H23.7917V36.5361H22.8107ZM24.4645 34.0271H27.5801V28.9893H25.3031L25.197 30.9746C25.1683 31.4541 25.1208 31.8849 25.0545 32.2672C24.9904 32.6495 24.9076 32.9875 24.8059 33.2814C24.7065 33.5731 24.5927 33.8216 24.4645 34.0271ZM30.6992 34.9883V34.0868H31.1069C31.2771 34.0868 31.4174 34.0581 31.5278 34.0006C31.6405 33.9432 31.7322 33.8658 31.8029 33.7686C31.8759 33.6692 31.9366 33.5609 31.9852 33.4438L32.0813 33.2019L29.695 28.1076H30.7821L32.5619 32.0319L34.1462 28.1076H35.2201L32.8735 33.7189C32.7741 33.9443 32.6592 34.1531 32.5288 34.3453C32.4006 34.5376 32.2294 34.6933 32.0151 34.8126C31.8007 34.9298 31.5168 34.9883 31.1633 34.9883H30.6992ZM35.9554 34.8955V28.1076H36.9795V31.0574H40.3635V28.1076H41.391V34.8955H40.3635V31.9358H36.9795V34.8955H35.9554ZM43.2225 34.8955H42.1354L44.5781 28.1076H45.7613L48.2041 34.8955H47.1169L45.1979 29.3406H45.1449L43.2225 34.8955ZM43.4048 32.2374H46.9313V33.0991H43.4048V32.2374ZM48.951 34.8955V28.1076H51.3705C51.8986 28.1076 52.3361 28.2037 52.683 28.396C53.0299 28.5882 53.2895 28.8512 53.4618 29.1848C53.6342 29.5162 53.7204 29.8897 53.7204 30.3051C53.7204 30.7227 53.6331 31.0983 53.4585 31.432C53.2862 31.7634 53.0254 32.0263 52.6763 32.2208C52.3294 32.413 51.893 32.5091 51.3671 32.5091H49.7033V31.6408H51.2743C51.608 31.6408 51.8787 31.5833 52.0864 31.4684C52.2941 31.3513 52.4465 31.1922 52.5438 30.9912C52.641 30.7901 52.6896 30.5614 52.6896 30.3051C52.6896 30.0488 52.641 29.8212 52.5438 29.6223C52.4465 29.4234 52.293 29.2677 52.0831 29.155C51.8754 29.0423 51.6014 28.9859 51.2611 28.9859H49.9751V34.8955H48.951ZM60.584 31.5016C60.584 32.2263 60.4514 32.8494 60.1863 33.3709C59.9211 33.8901 59.5576 34.2901 59.0958 34.5707C58.6362 34.8491 58.1137 34.9883 57.5281 34.9883C56.9404 34.9883 56.4156 34.8491 55.9538 34.5707C55.4942 34.2901 55.1318 33.889 54.8666 33.3676C54.6015 32.8461 54.4689 32.2241 54.4689 31.5016C54.4689 30.7768 54.6015 30.1548 54.8666 29.6356C55.1318 29.1141 55.4942 28.7142 55.9538 28.4358C56.4156 28.1551 56.9404 28.0148 57.5281 28.0148C58.1137 28.0148 58.6362 28.1551 59.0958 28.4358C59.5576 28.7142 59.9211 29.1141 60.1863 29.6356C60.4514 30.1548 60.584 30.7768 60.584 31.5016ZM59.5698 31.5016C59.5698 30.9492 59.4803 30.484 59.3013 30.1062C59.1245 29.7262 58.8815 29.4389 58.5721 29.2445C58.265 29.0478 57.917 28.9495 57.5281 28.9495C57.137 28.9495 56.7879 29.0478 56.4808 29.2445C56.1736 29.4389 55.9306 29.7262 55.7516 30.1062C55.5748 30.484 55.4864 30.9492 55.4864 31.5016C55.4864 32.054 55.5748 32.5202 55.7516 32.9002C55.9306 33.2781 56.1736 33.5653 56.4808 33.762C56.7879 33.9564 57.137 34.0537 57.5281 34.0537C57.917 34.0537 58.265 33.9564 58.5721 33.762C58.8815 33.5653 59.1245 33.2781 59.3013 32.9002C59.4803 32.5202 59.5698 32.054 59.5698 31.5016ZM61.1138 36.5361V34.0271H61.5612C61.7137 33.899 61.8562 33.7167 61.9888 33.4803C62.1214 33.2438 62.234 32.9245 62.3269 32.5224C62.4197 32.1203 62.4837 31.6043 62.5191 30.9746L62.6782 28.1076H66.8643V34.0271H67.6332V36.5262H66.6521V34.8955H62.0948V36.5361H61.1138ZM62.7677 34.0271H65.8832V28.9893H63.6062L63.5001 30.9746C63.4714 31.4541 63.4239 31.8849 63.3576 32.2672C63.2935 32.6495 63.2107 32.9875 63.109 33.2814C63.0096 33.5731 62.8958 33.8216 62.7677 34.0271ZM68.5218 34.8955V28.1076H69.5459V31.0574H72.9299V28.1076H73.9574V34.8955H72.9299V31.9358H69.5459V34.8955H68.5218ZM75.9348 30.8453H77.7643C78.2681 30.8453 78.6968 30.9271 79.0503 31.0906C79.4038 31.2541 79.6734 31.485 79.859 31.7833C80.0468 32.0816 80.1396 32.4329 80.1374 32.8373C80.1396 33.2416 80.0468 33.5985 79.859 33.9078C79.6734 34.2172 79.4038 34.4591 79.0503 34.6337C78.6968 34.8082 78.2681 34.8955 77.7643 34.8955H75.2222V28.1076H76.2496V34.0338H77.7643C78.0582 34.0338 78.3057 33.9763 78.5067 33.8614C78.71 33.7465 78.8636 33.5974 78.9674 33.414C79.0735 33.2306 79.1265 33.0339 79.1265 32.824C79.1265 32.5191 79.0094 32.2572 78.7752 32.0385C78.541 31.8175 78.204 31.7071 77.7643 31.7071H75.9348V30.8453ZM81.7913 28.1076V34.8955H80.7638V28.1076H81.7913ZM83.0486 34.8955V28.1076H87.3043V28.9893H84.0728V31.0574H87.0822V31.9358H84.0728V34.0139H87.3441V34.8955H83.0486ZM94.9082 28.1076V28.9893H91.6998V34.8955H90.6757V28.1076H94.9082ZM95.8291 34.8955V28.1076H98.2486C98.7767 28.1076 99.2142 28.2037 99.5611 28.396C99.908 28.5882 100.168 28.8512 100.34 29.1848C100.512 29.5162 100.598 29.8897 100.598 30.3051C100.598 30.7227 100.511 31.0983 100.337 31.432C100.164 31.7634 99.9036 32.0263 99.5545 32.2208C99.2076 32.413 98.7712 32.5091 98.2453 32.5091H96.5814V31.6408H98.1525C98.4861 31.6408 98.7568 31.5833 98.9645 31.4684C99.1722 31.3513 99.3247 31.1922 99.4219 30.9912C99.5191 30.7901 99.5677 30.5614 99.5677 30.3051C99.5677 30.0488 99.5191 29.8212 99.4219 29.6223C99.3247 29.4234 99.1711 29.2677 98.9612 29.155C98.7535 29.0423 98.4795 28.9859 98.1392 28.9859H96.8532V34.8955H95.8291ZM102.046 34.9883V34.0868H102.454C102.624 34.0868 102.765 34.0581 102.875 34.0006C102.988 33.9432 103.079 33.8658 103.15 33.7686C103.223 33.6692 103.284 33.5609 103.332 33.4438L103.428 33.2019L101.042 28.1076H102.129L103.909 32.0319L105.493 28.1076H106.567L104.221 33.7189C104.121 33.9443 104.006 34.1531 103.876 34.3453C103.748 34.5376 103.577 34.6933 103.362 34.8126C103.148 34.9298 102.864 34.9883 102.51 34.9883H102.046ZM109.573 34.9883C109.118 34.9883 108.711 34.9099 108.353 34.753C107.997 34.5961 107.716 34.3785 107.508 34.1001C107.303 33.8194 107.192 33.4946 107.177 33.1256H108.217C108.231 33.3267 108.298 33.5013 108.419 33.6493C108.543 33.7951 108.705 33.9078 108.903 33.9874C109.102 34.0669 109.323 34.1067 109.566 34.1067C109.834 34.1067 110.07 34.0603 110.276 33.9675C110.483 33.8747 110.646 33.7454 110.763 33.5797C110.88 33.4118 110.938 33.2184 110.938 32.9997C110.938 32.7721 110.88 32.5721 110.763 32.3998C110.648 32.2252 110.479 32.0882 110.256 31.9888C110.035 31.8894 109.767 31.8396 109.454 31.8396H108.88V31.0044H109.454C109.705 31.0044 109.926 30.9591 110.116 30.8685C110.309 30.7779 110.459 30.652 110.567 30.4907C110.675 30.3272 110.73 30.136 110.73 29.9173C110.73 29.7074 110.682 29.5251 110.587 29.3704C110.494 29.2135 110.362 29.0909 110.189 29.0025C110.019 28.9141 109.818 28.8699 109.586 28.8699C109.365 28.8699 109.159 28.9108 108.966 28.9926C108.776 29.0721 108.622 29.187 108.502 29.3373C108.383 29.4853 108.319 29.6632 108.31 29.8709H107.319C107.33 29.5041 107.438 29.1815 107.644 28.9031C107.852 28.6247 108.126 28.407 108.466 28.2501C108.806 28.0933 109.184 28.0148 109.599 28.0148C110.035 28.0148 110.41 28.0999 110.726 28.27C111.044 28.438 111.29 28.6622 111.462 28.9429C111.637 29.2235 111.723 29.5306 111.721 29.8643C111.723 30.2443 111.617 30.5669 111.402 30.8321C111.19 31.0972 110.907 31.2751 110.554 31.3657V31.4187C111.005 31.4872 111.354 31.6662 111.601 31.9556C111.851 32.2451 111.975 32.6042 111.972 33.0328C111.975 33.4062 111.871 33.741 111.661 34.0371C111.453 34.3332 111.169 34.5663 110.809 34.7364C110.449 34.9043 110.037 34.9883 109.573 34.9883ZM118.981 31.5016C118.981 32.2263 118.849 32.8494 118.583 33.3709C118.318 33.8901 117.955 34.2901 117.493 34.5707C117.033 34.8491 116.511 34.9883 115.925 34.9883C115.337 34.9883 114.813 34.8491 114.351 34.5707C113.891 34.2901 113.529 33.889 113.264 33.3676C112.999 32.8461 112.866 32.2241 112.866 31.5016C112.866 30.7768 112.999 30.1548 113.264 29.6356C113.529 29.1141 113.891 28.7142 114.351 28.4358C114.813 28.1551 115.337 28.0148 115.925 28.0148C116.511 28.0148 117.033 28.1551 117.493 28.4358C117.955 28.7142 118.318 29.1141 118.583 29.6356C118.849 30.1548 118.981 30.7768 118.981 31.5016ZM117.967 31.5016C117.967 30.9492 117.877 30.484 117.698 30.1062C117.522 29.7262 117.279 29.4389 116.969 29.2445C116.662 29.0478 116.314 28.9495 115.925 28.9495C115.534 28.9495 115.185 29.0478 114.878 29.2445C114.571 29.4389 114.328 29.7262 114.149 30.1062C113.972 30.484 113.884 30.9492 113.884 31.5016C113.884 32.054 113.972 32.5202 114.149 32.9002C114.328 33.2781 114.571 33.5653 114.878 33.762C115.185 33.9564 115.534 34.0537 115.925 34.0537C116.314 34.0537 116.662 33.9564 116.969 33.762C117.279 33.5653 117.522 33.2781 117.698 32.9002C117.877 32.5202 117.967 32.054 117.967 31.5016ZM125.331 28.1076V34.8955H124.31V28.9826H121.115V34.8955H120.094V28.1076H125.331ZM126.664 34.8955V28.1076H130.919V28.9893H127.688V31.0574H130.697V31.9358H127.688V34.0139H130.959V34.8955H126.664ZM132.054 34.8955V28.1076H134.474C135.002 28.1076 135.439 28.2037 135.786 28.396C136.133 28.5882 136.393 28.8512 136.565 29.1848C136.737 29.5162 136.824 29.8897 136.824 30.3051C136.824 30.7227 136.736 31.0983 136.562 31.432C136.389 31.7634 136.129 32.0263 135.779 32.2208C135.433 32.413 134.996 32.5091 134.47 32.5091H132.806V31.6408H134.377C134.711 31.6408 134.982 31.5833 135.19 31.4684C135.397 31.3513 135.55 31.1922 135.647 30.9912C135.744 30.7901 135.793 30.5614 135.793 30.3051C135.793 30.0488 135.744 29.8212 135.647 29.6223C135.55 29.4234 135.396 29.2677 135.186 29.155C134.978 29.0423 134.704 28.9859 134.364 28.9859H133.078V34.8955H132.054ZM137.791 34.8955V28.1076H142.046V28.9893H138.815V31.0574H141.824V31.9358H138.815V34.0139H142.086V34.8955H137.791ZM143.181 34.8955V28.1076H145.667C146.149 28.1076 146.547 28.1872 146.863 28.3463C147.179 28.5031 147.416 28.7164 147.573 28.9859C147.73 29.2533 147.808 29.5549 147.808 29.8908C147.808 30.1736 147.756 30.4122 147.652 30.6067C147.548 30.7989 147.409 30.9536 147.235 31.0707C147.062 31.1856 146.872 31.2696 146.665 31.3226V31.3889C146.89 31.3999 147.11 31.4728 147.324 31.6076C147.541 31.7402 147.72 31.9291 147.861 32.1744C148.003 32.4197 148.073 32.718 148.073 33.0693C148.073 33.4162 147.991 33.7277 147.828 34.0039C147.667 34.2779 147.417 34.4956 147.079 34.6569C146.741 34.816 146.309 34.8955 145.783 34.8955H143.181ZM144.205 34.0172H145.684C146.174 34.0172 146.525 33.9222 146.738 33.7322C146.95 33.5421 147.056 33.3046 147.056 33.0196C147.056 32.8052 147.002 32.6086 146.893 32.4296C146.785 32.2506 146.63 32.1081 146.429 32.002C146.23 31.896 145.994 31.843 145.72 31.843H144.205V34.0172ZM144.205 31.0442H145.577C145.807 31.0442 146.014 31 146.197 30.9116C146.383 30.8232 146.53 30.6995 146.638 30.5404C146.749 30.3791 146.804 30.1891 146.804 29.9703C146.804 29.6897 146.705 29.4544 146.509 29.2644C146.312 29.0743 146.011 28.9793 145.604 28.9793H144.205V31.0442ZM154.951 31.5016C154.951 32.2263 154.818 32.8494 154.553 33.3709C154.288 33.8901 153.925 34.2901 153.463 34.5707C153.003 34.8491 152.481 34.9883 151.895 34.9883C151.307 34.9883 150.783 34.8491 150.321 34.5707C149.861 34.2901 149.499 33.889 149.234 33.3676C148.968 32.8461 148.836 32.2241 148.836 31.5016C148.836 30.7768 148.968 30.1548 149.234 29.6356C149.499 29.1141 149.861 28.7142 150.321 28.4358C150.783 28.1551 151.307 28.0148 151.895 28.0148C152.481 28.0148 153.003 28.1551 153.463 28.4358C153.925 28.7142 154.288 29.1141 154.553 29.6356C154.818 30.1548 154.951 30.7768 154.951 31.5016ZM153.937 31.5016C153.937 30.9492 153.847 30.484 153.668 30.1062C153.491 29.7262 153.248 29.4389 152.939 29.2445C152.632 29.0478 152.284 28.9495 151.895 28.9495C151.504 28.9495 151.155 29.0478 150.848 29.2445C150.541 29.4389 150.298 29.7262 150.119 30.1062C149.942 30.484 149.853 30.9492 149.853 31.5016C149.853 32.054 149.942 32.5202 150.119 32.9002C150.298 33.2781 150.541 33.5653 150.848 33.762C151.155 33.9564 151.504 34.0537 151.895 34.0537C152.284 34.0537 152.632 33.9564 152.939 33.762C153.248 33.5653 153.491 33.2781 153.668 32.9002C153.847 32.5202 153.937 32.054 153.937 31.5016ZM158.265 34.9883C157.81 34.9883 157.403 34.9099 157.045 34.753C156.689 34.5961 156.408 34.3785 156.2 34.1001C155.994 33.8194 155.884 33.4946 155.869 33.1256H156.909C156.922 33.3267 156.99 33.5013 157.111 33.6493C157.235 33.7951 157.396 33.9078 157.595 33.9874C157.794 34.0669 158.015 34.1067 158.258 34.1067C158.526 34.1067 158.762 34.0603 158.967 33.9675C159.175 33.8747 159.338 33.7454 159.455 33.5797C159.572 33.4118 159.63 33.2184 159.63 32.9997C159.63 32.7721 159.572 32.5721 159.455 32.3998C159.34 32.2252 159.171 32.0882 158.948 31.9888C158.727 31.8894 158.459 31.8396 158.145 31.8396H157.572V31.0044H158.145C158.397 31.0044 158.618 30.9591 158.808 30.8685C159.001 30.7779 159.151 30.652 159.259 30.4907C159.367 30.3272 159.422 30.136 159.422 29.9173C159.422 29.7074 159.374 29.5251 159.279 29.3704C159.186 29.2135 159.054 29.0909 158.881 29.0025C158.711 28.9141 158.51 28.8699 158.278 28.8699C158.057 28.8699 157.851 28.9108 157.658 28.9926C157.468 29.0721 157.314 29.187 157.194 29.3373C157.075 29.4853 157.011 29.6632 157.002 29.8709H156.011C156.022 29.5041 156.13 29.1815 156.336 28.9031C156.544 28.6247 156.818 28.407 157.158 28.2501C157.498 28.0933 157.876 28.0148 158.291 28.0148C158.727 28.0148 159.102 28.0999 159.418 28.27C159.736 28.438 159.982 28.6622 160.154 28.9429C160.329 29.2235 160.415 29.5306 160.413 29.8643C160.415 30.2443 160.309 30.5669 160.094 30.8321C159.882 31.0972 159.599 31.2751 159.246 31.3657V31.4187C159.697 31.4872 160.046 31.6662 160.293 31.9556C160.543 32.2451 160.667 32.6042 160.664 33.0328C160.667 33.4062 160.563 33.741 160.353 34.0371C160.145 34.3332 159.861 34.5663 159.501 34.7364C159.141 34.9043 158.729 34.9883 158.265 34.9883ZM165.804 34.8955L163.523 31.8529H162.801V34.8955H161.777V28.1076H162.801V30.9746H163.136L165.701 28.1076H166.951L164.236 31.1469L167.053 34.8955H165.804ZM167.769 28.1076H168.783V33.0925H168.846L172.299 28.1076H173.247V34.8955H172.223V29.9173H172.16L168.713 34.8955H167.769V28.1076Z" fill="#575757"/>
</g>
<defs>
<clipPath id="clip0_104_398">
<rect width="175" height="36.1667" fill="white"/>
</clipPath>
</defs>
</svg>
