<svg width="175" height="37" viewBox="0 0 175 37" fill="none" xmlns="http://www.w3.org/2000/svg">
<g clip-path="url(#clip0_104_429)">
<path d="M1.69614 23V3.48485H9.39548C10.8756 3.48485 12.1366 3.76754 13.1784 4.33292C14.2203 4.89194 15.0143 5.67014 15.5607 6.66749C16.1133 7.6585 16.3897 8.80196 16.3897 10.0979C16.3897 11.3938 16.1102 12.5373 15.5511 13.5283C14.9921 14.5193 14.1822 15.2911 13.1213 15.8438C12.0667 16.3965 10.7899 16.6728 9.29066 16.6728H4.38329V13.3663H8.62364C9.41771 13.3663 10.072 13.2297 10.5866 12.9566C11.1075 12.677 11.495 12.2927 11.7491 11.8036C12.0096 11.3081 12.1398 10.7395 12.1398 10.0979C12.1398 9.44993 12.0096 8.88455 11.7491 8.40175C11.495 7.9126 11.1075 7.53462 10.5866 7.26781C10.0657 6.99465 9.40501 6.85807 8.60458 6.85807H5.82215V23H1.69614ZM36.4127 13.2424C36.4127 15.3705 36.0093 17.181 35.2025 18.6739C34.4021 20.1667 33.3095 21.307 31.9246 22.0948C30.5461 22.8761 28.9961 23.2668 27.2745 23.2668C25.5402 23.2668 23.9839 22.8729 22.6054 22.0852C21.2268 21.2975 20.1374 20.1572 19.3369 18.6644C18.5365 17.1715 18.1363 15.3642 18.1363 13.2424C18.1363 11.1143 18.5365 9.30382 19.3369 7.81096C20.1374 6.3181 21.2268 5.18099 22.6054 4.39962C23.9839 3.6119 25.5402 3.21804 27.2745 3.21804C28.9961 3.21804 30.5461 3.6119 31.9246 4.39962C33.3095 5.18099 34.4021 6.3181 35.2025 7.81096C36.0093 9.30382 36.4127 11.1143 36.4127 13.2424ZM32.2295 13.2424C32.2295 11.8639 32.0231 10.7014 31.6101 9.75485C31.2036 8.80832 30.6287 8.09047 29.8854 7.60132C29.1422 7.11218 28.2719 6.8676 27.2745 6.8676C26.2771 6.8676 25.4068 7.11218 24.6636 7.60132C23.9203 8.09047 23.3423 8.80832 22.9293 9.75485C22.5228 10.7014 22.3195 11.8639 22.3195 13.2424C22.3195 14.6209 22.5228 15.7835 22.9293 16.73C23.3423 17.6765 23.9203 18.3944 24.6636 18.8835C25.4068 19.3727 26.2771 19.6172 27.2745 19.6172C28.2719 19.6172 29.1422 19.3727 29.8854 18.8835C30.6287 18.3944 31.2036 17.6765 31.6101 16.73C32.0231 15.7835 32.2295 14.6209 32.2295 13.2424ZM56.0975 10.3171H51.9238C51.8476 9.77709 51.6919 9.29746 51.4569 8.87819C51.2218 8.45257 50.9201 8.09047 50.5516 7.7919C50.1832 7.49333 49.7576 7.26464 49.2748 7.10582C48.7983 6.94701 48.2806 6.8676 47.7216 6.8676C46.7115 6.8676 45.8317 7.11853 45.0821 7.62038C44.3325 8.11588 43.7512 8.84008 43.3383 9.79297C42.9254 10.7395 42.7189 11.8893 42.7189 13.2424C42.7189 14.6336 42.9254 15.8025 43.3383 16.7491C43.7575 17.6956 44.342 18.4103 45.0916 18.8931C45.8412 19.3758 46.7083 19.6172 47.693 19.6172C48.2457 19.6172 48.757 19.5442 49.2271 19.3981C49.7036 19.252 50.126 19.0392 50.4945 18.7596C50.8629 18.4738 51.1678 18.1276 51.4092 17.721C51.657 17.3144 51.8285 16.8507 51.9238 16.3298L56.0975 16.3488C55.9895 17.2446 55.7195 18.1085 55.2875 18.9407C54.8619 19.7665 54.287 20.5066 53.5628 21.1609C52.8449 21.8089 51.9873 22.3234 50.99 22.7046C49.999 23.0794 48.8777 23.2668 47.6263 23.2668C45.8857 23.2668 44.3293 22.8729 42.9571 22.0852C41.5913 21.2975 40.5114 20.1572 39.7173 18.6644C38.9296 17.1715 38.5357 15.3642 38.5357 13.2424C38.5357 11.1143 38.9359 9.30382 39.7364 7.81096C40.5368 6.3181 41.6231 5.18099 42.9952 4.39962C44.3674 3.6119 45.9111 3.21804 47.6263 3.21804C48.757 3.21804 49.8052 3.37685 50.7708 3.69448C51.7428 4.01211 52.6035 4.47585 53.3531 5.0857C54.1027 5.68919 54.7126 6.42927 55.1827 7.30593C55.6591 8.18259 55.964 9.18629 56.0975 10.3171Z" fill="#F00808"/>
<path d="M58.4658 3.48485H62.5823V15.758H62.7443L71.1774 3.48485H74.7888V23H70.6628V10.7173H70.5199L62.0392 23H58.4658V3.48485ZM77.6074 3.48485H82.6959L88.0702 16.5966H88.2988L93.6731 3.48485H98.7616V23H94.7594V10.298H94.5974L89.5471 22.9047H86.8219L81.7716 10.2504H81.6096V23H77.6074V3.48485ZM118.16 3.48485V23H114.082V6.83901H106.192V23H102.114V3.48485H118.16ZM139.432 13.2424C139.432 15.3705 139.028 17.181 138.222 18.6739C137.421 20.1667 136.329 21.307 134.944 22.0948C133.565 22.8761 132.015 23.2668 130.294 23.2668C128.559 23.2668 127.003 22.8729 125.624 22.0852C124.246 21.2975 123.156 20.1572 122.356 18.6644C121.556 17.1715 121.155 15.3642 121.155 13.2424C121.155 11.1143 121.556 9.30382 122.356 7.81096C123.156 6.3181 124.246 5.18099 125.624 4.39962C127.003 3.6119 128.559 3.21804 130.294 3.21804C132.015 3.21804 133.565 3.6119 134.944 4.39962C136.329 5.18099 137.421 6.3181 138.222 7.81096C139.028 9.30382 139.432 11.1143 139.432 13.2424ZM135.249 13.2424C135.249 11.8639 135.042 10.7014 134.629 9.75485C134.223 8.80832 133.648 8.09047 132.904 7.60132C132.161 7.11218 131.291 6.8676 130.294 6.8676C129.296 6.8676 128.426 7.11218 127.683 7.60132C126.939 8.09047 126.361 8.80832 125.948 9.75485C125.542 10.7014 125.339 11.8639 125.339 13.2424C125.339 14.6209 125.542 15.7835 125.948 16.73C126.361 17.6765 126.939 18.3944 127.683 18.8835C128.426 19.3727 129.296 19.6172 130.294 19.6172C131.291 19.6172 132.161 19.3727 132.904 18.8835C133.648 18.3944 134.223 17.6765 134.629 16.73C135.042 15.7835 135.249 14.6209 135.249 13.2424ZM141.898 23V3.48485H149.597C151.077 3.48485 152.338 3.76754 153.38 4.33292C154.422 4.89194 155.216 5.67014 155.762 6.66749C156.315 7.6585 156.591 8.80196 156.591 10.0979C156.591 11.3938 156.312 12.5373 155.753 13.5283C155.194 14.5193 154.384 15.2911 153.323 15.8438C152.268 16.3965 150.992 16.6728 149.492 16.6728H144.585V13.3663H148.825C149.619 13.3663 150.274 13.2297 150.788 12.9566C151.309 12.677 151.697 12.2927 151.951 11.8036C152.211 11.3081 152.341 10.7395 152.341 10.0979C152.341 9.44993 152.211 8.88455 151.951 8.40175C151.697 7.9126 151.309 7.53462 150.788 7.26781C150.267 6.99465 149.607 6.85807 148.806 6.85807H146.024V23H141.898ZM157.938 6.88666V3.48485H173.965V6.88666H167.991V23H163.912V6.88666H157.938Z" fill="#0278CB"/>
<path d="M0.745739 28.1079H1.98864L4.14962 33.3844H4.22917L6.39015 28.1079H7.63305V34.8958H6.65862V29.9838H6.59564L4.59375 34.8858H3.78504L1.78314 29.9805H1.72017V34.8958H0.745739V28.1079ZM8.88871 34.8958V28.1079H13.1444V28.9895H9.91286V31.0577H12.9223V31.936H9.91286V34.0141H13.1842V34.8958H8.88871ZM18.6806 28.1079V34.8958H17.6664V28.1079H18.6806ZM13.7919 34.8958L15.9661 31.3427L13.9443 28.1079H15.1972L16.8809 31.0444H19.4893L21.1598 28.1079H22.4093L20.3941 31.3494L22.5551 34.8958H21.3586L19.6517 31.999H16.7052L14.9751 34.8958H13.7919ZM22.8107 36.5364V34.0274H23.2581C23.4106 33.8992 23.5531 33.7169 23.6857 33.4805C23.8182 33.2441 23.9309 32.9248 24.0237 32.5226C24.1165 32.1205 24.1806 31.6046 24.216 30.9748L24.375 28.1079H28.5611V34.0274H29.3301V36.5264H28.349V34.8958H23.7917V36.5364H22.8107ZM24.4645 34.0274H27.5801V28.9895H25.3031L25.197 30.9748C25.1683 31.4543 25.1208 31.8852 25.0545 32.2674C24.9904 32.6497 24.9076 32.9878 24.8059 33.2816C24.7065 33.5733 24.5927 33.8219 24.4645 34.0274ZM30.6992 34.9886V34.087H31.1069C31.2771 34.087 31.4174 34.0583 31.5278 34.0009C31.6405 33.9434 31.7322 33.8661 31.8029 33.7689C31.8759 33.6694 31.9366 33.5612 31.9852 33.444L32.0813 33.2021L29.695 28.1079H30.7821L32.5619 32.0321L34.1462 28.1079H35.2201L32.8735 33.7191C32.7741 33.9445 32.6592 34.1533 32.5288 34.3456C32.4006 34.5378 32.2294 34.6936 32.0151 34.8129C31.8007 34.93 31.5168 34.9886 31.1633 34.9886H30.6992ZM35.9554 34.8958V28.1079H36.9795V31.0577H40.3635V28.1079H41.391V34.8958H40.3635V31.936H36.9795V34.8958H35.9554ZM43.2225 34.8958H42.1354L44.5781 28.1079H45.7613L48.2041 34.8958H47.1169L45.1979 29.3408H45.1449L43.2225 34.8958ZM43.4048 32.2376H46.9313V33.0994H43.4048V32.2376ZM48.951 34.8958V28.1079H51.3705C51.8986 28.1079 52.3361 28.204 52.683 28.3962C53.0299 28.5885 53.2895 28.8514 53.4618 29.1851C53.6342 29.5165 53.7204 29.8899 53.7204 30.3053C53.7204 30.7229 53.6331 31.0986 53.4585 31.4322C53.2862 31.7636 53.0254 32.0266 52.6763 32.221C52.3294 32.4133 51.893 32.5094 51.3671 32.5094H49.7033V31.641H51.2743C51.608 31.641 51.8787 31.5836 52.0864 31.4687C52.2941 31.3516 52.4465 31.1925 52.5438 30.9914C52.641 30.7903 52.6896 30.5616 52.6896 30.3053C52.6896 30.049 52.641 29.8214 52.5438 29.6226C52.4465 29.4237 52.293 29.2679 52.0831 29.1552C51.8754 29.0425 51.6014 28.9862 51.2611 28.9862H49.9751V34.8958H48.951ZM60.584 31.5018C60.584 32.2266 60.4514 32.8497 60.1863 33.3711C59.9211 33.8904 59.5576 34.2903 59.0958 34.5709C58.6362 34.8494 58.1137 34.9886 57.5281 34.9886C56.9404 34.9886 56.4156 34.8494 55.9538 34.5709C55.4942 34.2903 55.1318 33.8893 54.8666 33.3678C54.6015 32.8464 54.4689 32.2244 54.4689 31.5018C54.4689 30.7771 54.6015 30.1551 54.8666 29.6358C55.1318 29.1143 55.4942 28.7144 55.9538 28.436C56.4156 28.1554 56.9404 28.0151 57.5281 28.0151C58.1137 28.0151 58.6362 28.1554 59.0958 28.436C59.5576 28.7144 59.9211 29.1143 60.1863 29.6358C60.4514 30.1551 60.584 30.7771 60.584 31.5018ZM59.5698 31.5018C59.5698 30.9494 59.4803 30.4843 59.3013 30.1065C59.1245 29.7264 58.8815 29.4392 58.5721 29.2447C58.265 29.0481 57.917 28.9497 57.5281 28.9497C57.137 28.9497 56.7879 29.0481 56.4808 29.2447C56.1736 29.4392 55.9306 29.7264 55.7516 30.1065C55.5748 30.4843 55.4864 30.9494 55.4864 31.5018C55.4864 32.0542 55.5748 32.5204 55.7516 32.9005C55.9306 33.2783 56.1736 33.5656 56.4808 33.7622C56.7879 33.9567 57.137 34.0539 57.5281 34.0539C57.917 34.0539 58.265 33.9567 58.5721 33.7622C58.8815 33.5656 59.1245 33.2783 59.3013 32.9005C59.4803 32.5204 59.5698 32.0542 59.5698 31.5018ZM61.1138 36.5364V34.0274H61.5612C61.7137 33.8992 61.8562 33.7169 61.9888 33.4805C62.1214 33.2441 62.234 32.9248 62.3269 32.5226C62.4197 32.1205 62.4837 31.6046 62.5191 30.9748L62.6782 28.1079H66.8643V34.0274H67.6332V36.5264H66.6521V34.8958H62.0948V36.5364H61.1138ZM62.7677 34.0274H65.8832V28.9895H63.6062L63.5001 30.9748C63.4714 31.4543 63.4239 31.8852 63.3576 32.2674C63.2935 32.6497 63.2107 32.9878 63.109 33.2816C63.0096 33.5733 62.8958 33.8219 62.7677 34.0274ZM68.5218 34.8958V28.1079H69.5459V31.0577H72.9299V28.1079H73.9574V34.8958H72.9299V31.936H69.5459V34.8958H68.5218ZM75.9348 30.8456H77.7643C78.2681 30.8456 78.6968 30.9273 79.0503 31.0908C79.4038 31.2543 79.6734 31.4852 79.859 31.7835C80.0468 32.0818 80.1396 32.4332 80.1374 32.8375C80.1396 33.2419 80.0468 33.5987 79.859 33.9081C79.6734 34.2174 79.4038 34.4594 79.0503 34.6339C78.6968 34.8085 78.2681 34.8958 77.7643 34.8958H75.2222V28.1079H76.2496V34.034H77.7643C78.0582 34.034 78.3057 33.9766 78.5067 33.8617C78.71 33.7468 78.8636 33.5976 78.9674 33.4142C79.0735 33.2308 79.1265 33.0342 79.1265 32.8243C79.1265 32.5193 79.0094 32.2575 78.7752 32.0387C78.541 31.8178 78.204 31.7073 77.7643 31.7073H75.9348V30.8456ZM81.7913 28.1079V34.8958H80.7638V28.1079H81.7913ZM83.0486 34.8958V28.1079H87.3043V28.9895H84.0728V31.0577H87.0822V31.936H84.0728V34.0141H87.3441V34.8958H83.0486ZM94.9082 28.1079V28.9895H91.6998V34.8958H90.6757V28.1079H94.9082ZM95.8291 34.8958V28.1079H98.2486C98.7767 28.1079 99.2142 28.204 99.5611 28.3962C99.908 28.5885 100.168 28.8514 100.34 29.1851C100.512 29.5165 100.598 29.8899 100.598 30.3053C100.598 30.7229 100.511 31.0986 100.337 31.4322C100.164 31.7636 99.9036 32.0266 99.5545 32.221C99.2076 32.4133 98.7712 32.5094 98.2453 32.5094H96.5814V31.641H98.1525C98.4861 31.641 98.7568 31.5836 98.9645 31.4687C99.1722 31.3516 99.3247 31.1925 99.4219 30.9914C99.5191 30.7903 99.5677 30.5616 99.5677 30.3053C99.5677 30.049 99.5191 29.8214 99.4219 29.6226C99.3247 29.4237 99.1711 29.2679 98.9612 29.1552C98.7535 29.0425 98.4795 28.9862 98.1392 28.9862H96.8532V34.8958H95.8291ZM102.046 34.9886V34.087H102.454C102.624 34.087 102.765 34.0583 102.875 34.0009C102.988 33.9434 103.079 33.8661 103.15 33.7689C103.223 33.6694 103.284 33.5612 103.332 33.444L103.428 33.2021L101.042 28.1079H102.129L103.909 32.0321L105.493 28.1079H106.567L104.221 33.7191C104.121 33.9445 104.006 34.1533 103.876 34.3456C103.748 34.5378 103.577 34.6936 103.362 34.8129C103.148 34.93 102.864 34.9886 102.51 34.9886H102.046ZM109.573 34.9886C109.118 34.9886 108.711 34.9101 108.353 34.7532C107.997 34.5964 107.716 34.3787 107.508 34.1003C107.303 33.8197 107.192 33.4949 107.177 33.1259H108.217C108.231 33.3269 108.298 33.5015 108.419 33.6495C108.543 33.7954 108.705 33.9081 108.903 33.9876C109.102 34.0672 109.323 34.1069 109.566 34.1069C109.834 34.1069 110.07 34.0605 110.276 33.9677C110.483 33.8749 110.646 33.7457 110.763 33.5799C110.88 33.412 110.938 33.2187 110.938 32.9999C110.938 32.7723 110.88 32.5724 110.763 32.4C110.648 32.2255 110.479 32.0885 110.256 31.989C110.035 31.8896 109.767 31.8399 109.454 31.8399H108.88V31.0047H109.454C109.705 31.0047 109.926 30.9594 110.116 30.8688C110.309 30.7782 110.459 30.6522 110.567 30.4909C110.675 30.3274 110.73 30.1363 110.73 29.9175C110.73 29.7076 110.682 29.5253 110.587 29.3707C110.494 29.2138 110.362 29.0911 110.189 29.0028C110.019 28.9144 109.818 28.8702 109.586 28.8702C109.365 28.8702 109.159 28.9111 108.966 28.9928C108.776 29.0724 108.622 29.1873 108.502 29.3375C108.383 29.4856 108.319 29.6634 108.31 29.8711H107.319C107.33 29.5043 107.438 29.1817 107.644 28.9033C107.852 28.6249 108.126 28.4073 108.466 28.2504C108.806 28.0935 109.184 28.0151 109.599 28.0151C110.035 28.0151 110.41 28.1001 110.726 28.2703C111.044 28.4382 111.29 28.6625 111.462 28.9431C111.637 29.2237 111.723 29.5309 111.721 29.8645C111.723 30.2446 111.617 30.5672 111.402 30.8323C111.19 31.0975 110.907 31.2753 110.554 31.3659V31.419C111.005 31.4874 111.354 31.6664 111.601 31.9559C111.851 32.2453 111.975 32.6044 111.972 33.0331C111.975 33.4065 111.871 33.7412 111.661 34.0373C111.453 34.3334 111.169 34.5665 110.809 34.7367C110.449 34.9046 110.037 34.9886 109.573 34.9886ZM118.981 31.5018C118.981 32.2266 118.849 32.8497 118.583 33.3711C118.318 33.8904 117.955 34.2903 117.493 34.5709C117.033 34.8494 116.511 34.9886 115.925 34.9886C115.337 34.9886 114.813 34.8494 114.351 34.5709C113.891 34.2903 113.529 33.8893 113.264 33.3678C112.999 32.8464 112.866 32.2244 112.866 31.5018C112.866 30.7771 112.999 30.1551 113.264 29.6358C113.529 29.1143 113.891 28.7144 114.351 28.436C114.813 28.1554 115.337 28.0151 115.925 28.0151C116.511 28.0151 117.033 28.1554 117.493 28.436C117.955 28.7144 118.318 29.1143 118.583 29.6358C118.849 30.1551 118.981 30.7771 118.981 31.5018ZM117.967 31.5018C117.967 30.9494 117.877 30.4843 117.698 30.1065C117.522 29.7264 117.279 29.4392 116.969 29.2447C116.662 29.0481 116.314 28.9497 115.925 28.9497C115.534 28.9497 115.185 29.0481 114.878 29.2447C114.571 29.4392 114.328 29.7264 114.149 30.1065C113.972 30.4843 113.884 30.9494 113.884 31.5018C113.884 32.0542 113.972 32.5204 114.149 32.9005C114.328 33.2783 114.571 33.5656 114.878 33.7622C115.185 33.9567 115.534 34.0539 115.925 34.0539C116.314 34.0539 116.662 33.9567 116.969 33.7622C117.279 33.5656 117.522 33.2783 117.698 32.9005C117.877 32.5204 117.967 32.0542 117.967 31.5018ZM125.331 28.1079V34.8958H124.31V28.9829H121.115V34.8958H120.094V28.1079H125.331ZM126.664 34.8958V28.1079H130.919V28.9895H127.688V31.0577H130.697V31.936H127.688V34.0141H130.959V34.8958H126.664ZM132.054 34.8958V28.1079H134.474C135.002 28.1079 135.439 28.204 135.786 28.3962C136.133 28.5885 136.393 28.8514 136.565 29.1851C136.737 29.5165 136.824 29.8899 136.824 30.3053C136.824 30.7229 136.736 31.0986 136.562 31.4322C136.389 31.7636 136.129 32.0266 135.779 32.221C135.433 32.4133 134.996 32.5094 134.47 32.5094H132.806V31.641H134.377C134.711 31.641 134.982 31.5836 135.19 31.4687C135.397 31.3516 135.55 31.1925 135.647 30.9914C135.744 30.7903 135.793 30.5616 135.793 30.3053C135.793 30.049 135.744 29.8214 135.647 29.6226C135.55 29.4237 135.396 29.2679 135.186 29.1552C134.978 29.0425 134.704 28.9862 134.364 28.9862H133.078V34.8958H132.054ZM137.791 34.8958V28.1079H142.046V28.9895H138.815V31.0577H141.824V31.936H138.815V34.0141H142.086V34.8958H137.791ZM143.181 34.8958V28.1079H145.667C146.149 28.1079 146.547 28.1874 146.863 28.3465C147.179 28.5034 147.416 28.7166 147.573 28.9862C147.73 29.2535 147.808 29.5552 147.808 29.891C147.808 30.1738 147.756 30.4125 147.652 30.6069C147.548 30.7992 147.409 30.9538 147.235 31.0709C147.062 31.1858 146.872 31.2698 146.665 31.3228V31.3891C146.89 31.4002 147.11 31.4731 147.324 31.6079C147.541 31.7404 147.72 31.9294 147.861 32.1746C148.003 32.4199 148.073 32.7182 148.073 33.0695C148.073 33.4164 147.991 33.728 147.828 34.0042C147.667 34.2782 147.417 34.4958 147.079 34.6571C146.741 34.8162 146.309 34.8958 145.783 34.8958H143.181ZM144.205 34.0174H145.684C146.174 34.0174 146.525 33.9224 146.738 33.7324C146.95 33.5424 147.056 33.3048 147.056 33.0198C147.056 32.8055 147.002 32.6088 146.893 32.4298C146.785 32.2509 146.63 32.1083 146.429 32.0023C146.23 31.8962 145.994 31.8432 145.72 31.8432H144.205V34.0174ZM144.205 31.0444H145.577C145.807 31.0444 146.014 31.0002 146.197 30.9119C146.383 30.8235 146.53 30.6997 146.638 30.5406C146.749 30.3793 146.804 30.1893 146.804 29.9706C146.804 29.6899 146.705 29.4546 146.509 29.2646C146.312 29.0746 146.011 28.9796 145.604 28.9796H144.205V31.0444ZM154.951 31.5018C154.951 32.2266 154.818 32.8497 154.553 33.3711C154.288 33.8904 153.925 34.2903 153.463 34.5709C153.003 34.8494 152.481 34.9886 151.895 34.9886C151.307 34.9886 150.783 34.8494 150.321 34.5709C149.861 34.2903 149.499 33.8893 149.234 33.3678C148.968 32.8464 148.836 32.2244 148.836 31.5018C148.836 30.7771 148.968 30.1551 149.234 29.6358C149.499 29.1143 149.861 28.7144 150.321 28.436C150.783 28.1554 151.307 28.0151 151.895 28.0151C152.481 28.0151 153.003 28.1554 153.463 28.436C153.925 28.7144 154.288 29.1143 154.553 29.6358C154.818 30.1551 154.951 30.7771 154.951 31.5018ZM153.937 31.5018C153.937 30.9494 153.847 30.4843 153.668 30.1065C153.491 29.7264 153.248 29.4392 152.939 29.2447C152.632 29.0481 152.284 28.9497 151.895 28.9497C151.504 28.9497 151.155 29.0481 150.848 29.2447C150.541 29.4392 150.298 29.7264 150.119 30.1065C149.942 30.4843 149.853 30.9494 149.853 31.5018C149.853 32.0542 149.942 32.5204 150.119 32.9005C150.298 33.2783 150.541 33.5656 150.848 33.7622C151.155 33.9567 151.504 34.0539 151.895 34.0539C152.284 34.0539 152.632 33.9567 152.939 33.7622C153.248 33.5656 153.491 33.2783 153.668 32.9005C153.847 32.5204 153.937 32.0542 153.937 31.5018ZM158.265 34.9886C157.81 34.9886 157.403 34.9101 157.045 34.7532C156.689 34.5964 156.408 34.3787 156.2 34.1003C155.994 33.8197 155.884 33.4949 155.869 33.1259H156.909C156.922 33.3269 156.99 33.5015 157.111 33.6495C157.235 33.7954 157.396 33.9081 157.595 33.9876C157.794 34.0672 158.015 34.1069 158.258 34.1069C158.526 34.1069 158.762 34.0605 158.967 33.9677C159.175 33.8749 159.338 33.7457 159.455 33.5799C159.572 33.412 159.63 33.2187 159.63 32.9999C159.63 32.7723 159.572 32.5724 159.455 32.4C159.34 32.2255 159.171 32.0885 158.948 31.989C158.727 31.8896 158.459 31.8399 158.145 31.8399H157.572V31.0047H158.145C158.397 31.0047 158.618 30.9594 158.808 30.8688C159.001 30.7782 159.151 30.6522 159.259 30.4909C159.367 30.3274 159.422 30.1363 159.422 29.9175C159.422 29.7076 159.374 29.5253 159.279 29.3707C159.186 29.2138 159.054 29.0911 158.881 29.0028C158.711 28.9144 158.51 28.8702 158.278 28.8702C158.057 28.8702 157.851 28.9111 157.658 28.9928C157.468 29.0724 157.314 29.1873 157.194 29.3375C157.075 29.4856 157.011 29.6634 157.002 29.8711H156.011C156.022 29.5043 156.13 29.1817 156.336 28.9033C156.544 28.6249 156.818 28.4073 157.158 28.2504C157.498 28.0935 157.876 28.0151 158.291 28.0151C158.727 28.0151 159.102 28.1001 159.418 28.2703C159.736 28.4382 159.982 28.6625 160.154 28.9431C160.329 29.2237 160.415 29.5309 160.413 29.8645C160.415 30.2446 160.309 30.5672 160.094 30.8323C159.882 31.0975 159.599 31.2753 159.246 31.3659V31.419C159.697 31.4874 160.046 31.6664 160.293 31.9559C160.543 32.2453 160.667 32.6044 160.664 33.0331C160.667 33.4065 160.563 33.7412 160.353 34.0373C160.145 34.3334 159.861 34.5665 159.501 34.7367C159.141 34.9046 158.729 34.9886 158.265 34.9886ZM165.804 34.8958L163.523 31.8531H162.801V34.8958H161.777V28.1079H162.801V30.9748H163.136L165.701 28.1079H166.951L164.236 31.1472L167.053 34.8958H165.804ZM167.769 28.1079H168.783V33.0927H168.846L172.299 28.1079H173.247V34.8958H172.223V29.9175H172.16L168.713 34.8958H167.769V28.1079Z" fill="#F4F4F4"/>
</g>
<defs>
<clipPath id="clip0_104_429">
<rect width="175" height="36.1667" fill="white"/>
</clipPath>
</defs>
</svg>
