<svg width="20" height="20" viewBox="0 0 20 20" fill="none" xmlns="http://www.w3.org/2000/svg">
<path d="M5.51667 8.98776C6.71667 11.3461 8.65 13.2794 11.0083 14.4794L12.8417 12.6461C13.075 12.4128 13.4 12.3461 13.6917 12.4378C14.625 12.7461 15.625 12.9128 16.6667 12.9128C17.125 12.9128 17.5 13.2878 17.5 13.7461V16.6628C17.5 17.1211 17.125 17.4961 16.6667 17.4961C8.84167 17.4961 2.5 11.1544 2.5 3.32943C2.5 2.87109 2.875 2.49609 3.33333 2.49609H6.25C6.70833 2.49609 7.08333 2.87109 7.08333 3.32943C7.08333 4.37109 7.25 5.37109 7.55833 6.30443C7.65 6.59609 7.58333 6.92109 7.35 7.15443L5.51667 8.98776ZM14.1667 2.49609V1.24609L12.2917 3.12109L14.1667 4.99609V3.74609C14.7192 3.74609 15.2491 3.96559 15.6398 4.35629C16.0305 4.74699 16.25 5.27689 16.25 5.82943C16.25 6.16276 16.175 6.47943 16.0333 6.76276L16.9417 7.67109C17.2917 7.14609 17.5 6.51276 17.5 5.82943C17.5 3.98776 16.0083 2.49609 14.1667 2.49609ZM14.1667 7.91276C13.6141 7.91276 13.0842 7.69327 12.6935 7.30257C12.3028 6.91186 12.0833 6.38196 12.0833 5.82943C12.0833 5.49609 12.1583 5.17943 12.3 4.89609L11.3917 3.98776C11.0417 4.51276 10.8333 5.14609 10.8333 5.82943C10.8333 7.67109 12.325 9.16276 14.1667 9.16276V10.4128L16.0417 8.53776L14.1667 6.66276V7.91276Z" fill="white"/>
</svg>
