<svg width="50" height="50" viewBox="0 0 50 50" fill="none" xmlns="http://www.w3.org/2000/svg">
<path d="M25.833 13.3335C28.5944 13.3335 30.833 11.0949 30.833 8.3335C30.833 5.57207 28.5944 3.3335 25.833 3.3335C23.0716 3.3335 20.833 5.57207 20.833 8.3335C20.833 11.0949 23.0716 13.3335 25.833 13.3335Z" fill="#054E81"/>
<path d="M15.833 21.6667V30C15.833 30.8933 16.4955 31.6667 17.4997 31.6667C18.4197 31.6667 19.1663 30.92 19.1663 30V22.5C19.1663 22.0392 19.5388 21.6667 19.9997 21.6667C20.4605 21.6667 20.833 22.0392 20.833 22.5V43.3333C19.9863 43.6158 17.4997 45.2742 17.4997 46.735C17.4997 47.1692 17.9013 47.5 18.3355 47.5H23.333C24.253 47.5 24.9997 46.7533 24.9997 45.8333V30.8333C24.9997 30.3725 25.3722 30 25.833 30C26.2938 30 26.6663 30.3725 26.6663 30.8333V45.8333C26.6663 46.7533 27.413 47.5 28.333 47.5H33.333C33.788 47.5 34.1663 47.1317 34.1663 46.6767C34.1663 44.8333 31.7188 43.6292 30.833 43.3333V22.5C30.833 22.0392 31.2055 21.6667 31.6663 21.6667C32.1272 21.6667 32.4997 22.0392 32.4997 22.5V30C32.4997 30.895 33.1638 31.6667 34.1663 31.6667C35.0863 31.6667 35.833 30.92 35.833 30V21.6667C35.833 17.985 32.848 15 29.1663 15H22.4997C18.818 15 15.833 17.985 15.833 21.6667Z" fill="#054E81"/>
<path d="M14.167 29.9108V21.6667C14.167 17.4075 17.3812 13.89 21.5103 13.3975C20.0787 12.1742 19.167 10.36 19.167 8.33333C19.167 8.05 19.1903 7.77333 19.2245 7.5H12.5128C12.0462 7.5 11.667 7.87917 11.667 8.34667V34.1667H12.6195C12.902 33.0783 13.7162 32.205 14.7695 31.8458C14.3945 31.2883 14.167 30.6225 14.167 29.9108Z" fill="#054E81"/>
<path d="M30.1621 13.3982C34.3579 13.9015 37.4996 17.5098 37.4996 21.6665V29.9998C37.4996 31.8382 36.0046 33.3332 34.1663 33.3332C33.5854 33.3332 33.0204 33.189 32.4996 32.8782V42.2423C32.6479 42.3198 32.7996 42.409 32.9513 42.4998H47.4996V15.8357C47.4996 15.3348 47.0929 15.0032 46.6663 14.9998C46.4596 14.9982 46.2479 15.074 46.0754 15.2457L41.9104 19.4107C41.7538 19.5673 41.6663 19.7782 41.6663 19.9998V39.9998H39.9996V19.9998C39.9996 19.3315 40.2604 18.704 40.7321 18.2323L42.4996 16.4648V5.009C42.4996 4.54317 42.1229 4.1665 41.6579 4.1665H31.0329C31.9488 5.30817 32.4996 6.75484 32.4996 8.33317C32.4996 10.3623 31.5921 12.1757 30.1621 13.3982Z" fill="#054E81"/>
<path d="M15.8337 36.6668V35.0002H19.167V33.3335H15.8337C14.9137 33.3335 14.167 34.0802 14.167 35.0002V36.6668H11.667C10.2862 36.6668 9.16699 37.786 9.16699 39.1668V40.0002H19.167V36.6668H15.8337Z" fill="#054E81"/>
<path d="M15.8333 46.7351C15.8333 44.7909 17.7783 43.1609 19.1667 42.3209V41.6667H15V43.3334C15 43.7942 14.6275 44.1667 14.1667 44.1667C13.7058 44.1667 13.3333 43.7942 13.3333 43.3334V41.6667H10V45.0001C10 46.3809 11.12 47.5001 12.5 47.5001H15.9725C15.8883 47.2584 15.8333 47.0034 15.8333 46.7351Z" fill="#054E81"/>
<path d="M7.5 39.1666C7.5 37.4624 8.53083 35.9974 10 35.3533V16.6666C10 16.2058 9.6275 15.8333 9.16667 15.8333H3.33333C2.8725 15.8333 2.5 16.2058 2.5 16.6666V41.6666C2.5 42.1274 2.8725 42.4999 3.33333 42.4999H7.5V39.1666Z" fill="#054E81"/>
</svg>
