<svg width="50" height="50" viewBox="0 0 50 50" fill="none" xmlns="http://www.w3.org/2000/svg">
<path d="M27.5 45.0633C27.5 44.8333 27.5325 44.6033 27.5967 44.3825L28.3867 41.6666H33.5783L32.405 45.6425C32.1292 46.68 31.1983 47.5 29.9692 47.5C28.5333 47.5 27.5 46.3633 27.5 45.0633Z" fill="#054E81"/>
<path d="M13.5437 12.9451L12.0837 13.3101C11.9728 13.3376 11.8603 13.3334 11.7503 13.3334C11.3078 13.3334 10.9003 13.1409 10.6428 12.7751L4.98533 4.76172L1.77116 13.6059C1.70783 13.7817 1.66699 13.9692 1.66699 14.1667C1.66699 14.8792 2.11616 15.4834 2.74616 15.7209L11.732 19.0951L13.5437 12.9451Z" fill="#054E81"/>
<path d="M14.0881 11.0908L15.4372 6.51075L7.24389 3.44242C7.06389 3.37492 6.86973 3.33325 6.66639 3.33325C6.46389 3.33325 6.27389 3.37742 6.09473 3.44409L11.8814 11.6424L14.0881 11.0908Z" fill="#054E81"/>
<path d="M21.5838 2.5925C21.3421 2.53667 21.0929 2.5 20.8329 2.5C19.3254 2.5 18.0679 3.50667 17.6554 4.87917L9.19043 33.6275L24.9996 37.3258V28.5608L16.7963 26.6308C16.2446 26.5008 15.8329 26.0075 15.8329 25.4167C15.8329 24.7267 16.3929 24.1667 17.0829 24.1667C17.1821 24.1667 17.2771 24.1817 17.3696 24.2025L24.9996 25.9983V25.8333C24.9996 24.4817 25.8113 23.3217 26.9688 22.7983L18.4629 20.7967C17.9113 20.6675 17.4996 20.1742 17.4996 19.5833C17.4996 18.8933 18.0596 18.3333 18.7496 18.3333C18.8488 18.3333 18.9438 18.3483 19.0363 18.3692L33.2029 21.7025C33.6179 21.8008 33.9529 22.1033 34.0938 22.5H38.3121L41.8463 10.4925C42.2071 9.27083 43.0738 8.33583 44.1729 7.85667L21.5838 2.5925ZM34.5829 18.3333C34.4838 18.3333 34.3896 18.3183 34.2963 18.2975L20.1296 14.9642C19.5779 14.8342 19.1663 14.3408 19.1663 13.75C19.1663 13.06 19.7263 12.5 20.4163 12.5C20.5154 12.5 20.6104 12.515 20.7029 12.5358L34.8696 15.8692C35.4213 15.9992 35.8329 16.4925 35.8329 17.0833C35.8329 17.7733 35.2729 18.3333 34.5829 18.3333ZM36.2496 12.5C36.1504 12.5 36.0563 12.485 35.9629 12.4642L21.7963 9.13083C21.2446 9.00083 20.8329 8.5075 20.8329 7.91667C20.8329 7.22667 21.3929 6.66667 22.0829 6.66667C22.1821 6.66667 22.2771 6.68167 22.3696 6.7025L36.5363 10.0358C37.0879 10.1658 37.4996 10.6592 37.4996 11.25C37.4996 11.94 36.9396 12.5 36.2496 12.5Z" fill="#054E81"/>
<path d="M38.6528 32.9792C38.3128 33.21 37.9112 33.3334 37.5003 33.3334C37.0895 33.3334 36.6878 33.21 36.3478 32.9792L26.667 26.1984V37.7059L29.3678 38.3359L28.8787 40H46.667C47.587 40 48.3337 39.2534 48.3337 38.3334V26.1984L38.6528 32.9792Z" fill="#054E81"/>
<path d="M47.1599 15.9841L48.2208 12.3708C48.2866 12.145 48.3333 11.9125 48.3333 11.6666C48.3333 10.2858 47.2133 9.16663 45.8333 9.16663C44.6991 9.16663 43.7516 9.92746 43.4458 10.9633L42.3008 14.8516L47.1599 15.9841Z" fill="#054E81"/>
<path d="M25.833 45.0001C25.833 44.5859 25.9022 44.1684 26.0455 43.7259L27.2713 39.5584L4.16635 34.1667L3.51218 36.3992C3.39801 36.7901 3.33468 37.1951 3.33301 37.6026C3.32968 39.6051 4.71301 41.3451 6.66385 41.8001L26.0705 46.3284C25.9272 45.9092 25.833 45.4676 25.833 45.0001Z" fill="#054E81"/>
<path d="M37.7158 31.6L48.3108 24.1666H26.6875L37.2842 31.6C37.4133 31.6875 37.5867 31.6875 37.7158 31.6Z" fill="#054E81"/>
</svg>
