<svg width="50" height="50" viewBox="0 0 50 50" fill="none" xmlns="http://www.w3.org/2000/svg">
<path d="M29.5386 24.1283L14.5477 2.73244C13.7561 1.60161 12.1969 1.32661 11.0661 2.11911C9.93523 2.91161 9.66023 4.47078 10.4527 5.60161L25.4269 26.9733L29.5386 24.1283Z" fill="#054E81"/>
<path d="M29.583 48.3334C31.6541 48.3334 33.333 46.6544 33.333 44.5834C33.333 42.5123 31.6541 40.8334 29.583 40.8334C27.5119 40.8334 25.833 42.5123 25.833 44.5834C25.833 46.6544 27.5119 48.3334 29.583 48.3334Z" fill="#054E81"/>
<path d="M15.0003 25C9.01699 25 4.16699 29.85 4.16699 35.8333C4.16699 41.8167 9.01699 46.6667 15.0003 46.6667C20.9837 46.6667 25.8337 41.8167 25.8337 35.8333C25.8337 29.85 20.9837 25 15.0003 25ZM19.167 42.5H10.8337C9.91366 42.5 9.16699 41.7533 9.16699 40.8333V35.8333H11.667V37.5C11.667 37.9608 12.0395 38.3333 12.5003 38.3333C12.9612 38.3333 13.3337 37.9608 13.3337 37.5V35.8333H16.667V37.5C16.667 37.9608 17.0395 38.3333 17.5003 38.3333C17.9612 38.3333 18.3337 37.9608 18.3337 37.5V35.8333H20.8337V40.8333C20.8337 41.7533 20.087 42.5 19.167 42.5ZM21.667 33.3333C21.667 33.7942 21.2945 34.1667 20.8695 34.1667H9.20283C8.70616 34.1667 8.33366 33.7942 8.33366 33.3333V32.5C8.33366 31.58 9.08033 30.8333 10.0003 30.8333H12.5003V29.1667C12.5003 28.7058 12.8728 28.3333 13.3337 28.3333H16.667C17.1278 28.3333 17.5003 28.7058 17.5003 29.1667V30.8333H20.0003C20.9203 30.8333 21.667 31.58 21.667 32.5V33.3333Z" fill="#054E81"/>
<path d="M11.1708 23.9366C12.3783 23.5483 13.6633 23.3333 15 23.3333C17.9025 23.3333 20.5675 24.3316 22.6892 25.9916L15.8033 16.1525L11.0658 19.4291C10.3808 19.9091 10 20.6425 10 21.4466C10 21.9525 10.14 22.465 10.4525 22.9108L11.1708 23.9366Z" fill="#054E81"/>
<path d="M47.8804 32.4525L31.1438 8.56583C30.6571 7.87083 29.8813 7.5 29.0938 7.5C28.5979 7.5 28.0988 7.64667 27.6613 7.9525L22.6621 11.4092L31.8654 24.5458L25.4488 28.9825C26.0479 29.8942 26.5296 30.8883 26.8763 31.9458L34.4154 26.7317L37.9654 31.7983L29.7396 37.4867L27.3654 34.0983C27.4446 34.6667 27.4996 35.2425 27.4996 35.8333C27.4996 37.2825 27.2396 38.6683 26.7871 39.9633C27.6038 39.4658 28.5563 39.1667 29.5829 39.1667C32.5204 39.1667 34.9063 41.5067 34.9913 44.4242L47.2663 35.9342C47.9721 35.44 48.3329 34.67 48.3329 33.8475C48.3321 33.3642 48.1779 32.8783 47.8804 32.4525Z" fill="#054E81"/>
<path d="M40.8337 13.3333C41.7541 13.3333 42.5003 12.5871 42.5003 11.6667C42.5003 10.7462 41.7541 10 40.8337 10C39.9132 10 39.167 10.7462 39.167 11.6667C39.167 12.5871 39.9132 13.3333 40.8337 13.3333Z" fill="#054E81"/>
<path d="M44.9997 20C45.9201 20 46.6663 19.2538 46.6663 18.3333C46.6663 17.4128 45.9201 16.6666 44.9997 16.6666C44.0792 16.6666 43.333 17.4128 43.333 18.3333C43.333 19.2538 44.0792 20 44.9997 20Z" fill="#054E81"/>
<path d="M9.99967 13.3333C10.9201 13.3333 11.6663 12.5871 11.6663 11.6667C11.6663 10.7462 10.9201 10 9.99967 10C9.0792 10 8.33301 10.7462 8.33301 11.6667C8.33301 12.5871 9.0792 13.3333 9.99967 13.3333Z" fill="#054E81"/>
<path d="M5.83366 20C6.75413 20 7.50033 19.2538 7.50033 18.3333C7.50033 17.4128 6.75413 16.6666 5.83366 16.6666C4.91318 16.6666 4.16699 17.4128 4.16699 18.3333C4.16699 19.2538 4.91318 20 5.83366 20Z" fill="#054E81"/>
<path d="M4.16667 27.5C5.08714 27.5 5.83333 26.7538 5.83333 25.8333C5.83333 24.9128 5.08714 24.1666 4.16667 24.1666C3.24619 24.1666 2.5 24.9128 2.5 25.8333C2.5 26.7538 3.24619 27.5 4.16667 27.5Z" fill="#054E81"/>
<path d="M25.8337 5.83333C26.7541 5.83333 27.5003 5.08714 27.5003 4.16667C27.5003 3.24619 26.7541 2.5 25.8337 2.5C24.9132 2.5 24.167 3.24619 24.167 4.16667C24.167 5.08714 24.9132 5.83333 25.8337 5.83333Z" fill="#054E81"/>
<path d="M34.1667 8.33333C35.0871 8.33333 35.8333 7.58714 35.8333 6.66667C35.8333 5.74619 35.0871 5 34.1667 5C33.2462 5 32.5 5.74619 32.5 6.66667C32.5 7.58714 33.2462 8.33333 34.1667 8.33333Z" fill="#054E81"/>
</svg>
