<svg width="50" height="50" viewBox="0 0 50 50" fill="none" xmlns="http://www.w3.org/2000/svg">
<g clip-path="url(#clip0_1_2170)">
<path d="M30.0003 4.16675C27.5003 19.1667 11.667 24.1667 11.667 24.1667L24.167 35.8334C24.167 35.8334 44.167 30.0001 44.167 13.3334L30.0003 4.16675ZM30.0003 26.6667C27.6987 26.6667 25.8337 24.8017 25.8337 22.5001C25.8337 20.1984 27.6987 18.3334 30.0003 18.3334C32.302 18.3334 34.167 20.1984 34.167 22.5001C34.167 24.8017 32.302 26.6667 30.0003 26.6667Z" fill="#054E81"/>
<path d="M24.867 38.2333C24.6362 38.3008 24.4003 38.3333 24.167 38.3333C23.542 38.3333 22.9312 38.1 22.462 37.6617L21.0762 36.3675C18.5287 37.745 16.667 38.3333 16.667 38.3333L29.167 50C29.167 50 49.167 44.1667 49.167 27.5L43.8753 24.0767C41.837 27.6917 38.932 30.505 35.9962 32.6342C38.0453 33.1392 39.5037 35.1458 39.0995 37.4292C38.8103 39.0575 37.5237 40.3983 35.9053 40.7392C33.2095 41.305 30.8337 39.2633 30.8337 36.6667C30.8337 36.3367 30.8812 36.0208 30.9545 35.7125C27.707 37.3783 25.1645 38.1458 24.867 38.2333Z" fill="#054E81"/>
<path d="M16.6663 0C16.6305 0 16.5963 0.0025 16.5622 0.00666667L9.89551 0.84C9.48467 0.890833 9.16634 1.24167 9.16634 1.66667C9.16634 1.89667 9.25884 2.105 9.41051 2.25583L11.1488 3.99417L3.82301 11.32C3.52051 11.6217 3.33301 12.0392 3.33301 12.5C3.33301 13.42 4.07967 14.1667 4.99967 14.1667C5.46051 14.1667 5.87717 13.9792 6.17967 13.6775L13.5055 6.35083L15.2438 8.08917C15.3947 8.24 15.603 8.33333 15.833 8.33333C16.258 8.33333 16.6088 8.015 16.6597 7.60417L17.493 0.9375C17.498 0.903333 17.4997 0.869167 17.4997 0.833333C17.4997 0.3725 17.1272 0 16.6663 0Z" fill="#054E81"/>
<path d="M14.9997 15.8334C14.9997 14.9134 14.253 14.1667 13.333 14.1667C12.8722 14.1667 12.4555 14.3542 12.153 14.6559L4.82717 21.9826L3.08884 20.2442C2.93801 20.0934 2.72967 20.0001 2.49967 20.0001C2.07467 20.0001 1.72384 20.3184 1.67301 20.7292L0.839674 27.3959C0.834674 27.4301 0.833008 27.4642 0.833008 27.5001C0.833008 27.9609 1.20551 28.3334 1.66634 28.3334C1.70217 28.3334 1.73634 28.3309 1.77051 28.3267L8.43717 27.4934C8.84801 27.4426 9.16634 27.0917 9.16634 26.6667C9.16634 26.4367 9.07384 26.2284 8.92217 26.0776L7.18384 24.3392L14.5097 17.0134C14.8122 16.7117 14.9997 16.2942 14.9997 15.8334Z" fill="#054E81"/>
</g>
<defs>
<clipPath id="clip0_1_2170">
<rect width="50" height="50" fill="white"/>
</clipPath>
</defs>
</svg>
