<svg width="50" height="50" viewBox="0 0 50 50" fill="none" xmlns="http://www.w3.org/2000/svg">
<path d="M37.2215 31.5884C36.9307 31.095 36.3898 30.835 35.8332 30.8334C35.6932 30.8334 35.5523 30.8509 35.4123 30.8859C34.4448 31.1375 34.0082 32.1109 34.2173 32.9175C34.254 33.06 36.2123 38.4059 36.6807 39.5725C37.104 40.6209 37.9373 41.8459 39.0598 43.2392C39.6623 43.9884 39.9998 44.915 39.9998 45.875V47.5H47.4998V32.5617C47.4998 30.4284 46.479 28.4242 44.754 27.1692L40.8332 24.3184V35.0675C40.8332 35.54 40.4573 35.8334 40.0632 35.8334C39.8232 35.8334 39.5807 35.725 39.424 35.4775C38.4265 33.9009 37.259 31.6467 37.2215 31.5884Z" fill="#054E81"/>
<path d="M13.333 9.16663H16.6663V10.8333H13.333V9.16663Z" fill="#054E81"/>
<path d="M2.5 5.83337V25C2.5 26.3809 3.61917 27.5 5 27.5H14.5833L20.5108 31.4517C20.7208 31.5917 20.9683 31.6667 21.2208 31.6667C21.9275 31.6667 22.5 31.0942 22.5 30.3875V27.5H25C26.38 27.5 27.5 26.3809 27.5 25V5.83337C27.5 4.45254 26.38 3.33337 25 3.33337H5C3.61917 3.33337 2.5 4.45254 2.5 5.83337ZM20.8333 24.1667H9.16667C8.24667 24.1667 7.5 23.42 7.5 22.5V16.6667H10.8333V17.9167C10.8333 18.6067 11.3933 19.1667 12.0833 19.1667C12.7733 19.1667 13.3333 18.6067 13.3333 17.9167V16.6667H16.6667V17.9167C16.6667 18.6067 17.2267 19.1667 17.9167 19.1667C18.6067 19.1667 19.1667 18.6067 19.1667 17.9167V16.6667H22.5V22.5C22.5 23.42 21.7533 24.1667 20.8333 24.1667ZM23.3333 14.1667C23.3333 14.6275 22.9608 15 22.5 15H7.5C7.03917 15 6.66667 14.6275 6.66667 14.1667V13.3334C6.66667 11.9525 7.78667 10.8334 9.16667 10.8334H10.8333V8.33337C10.8333 7.41337 11.58 6.66671 12.5 6.66671H17.5C18.42 6.66671 19.1667 7.41337 19.1667 8.33337V10.8334H20.8333C22.2133 10.8334 23.3333 11.9525 23.3333 13.3334V14.1667Z" fill="#054E81"/>
<path d="M36.667 7.5H29.167V10.8333H35.8337V29.1675L35.8437 29.1667C37.0253 29.17 38.0795 29.7592 38.6587 30.7425L38.657 30.7433C38.6887 30.7983 38.7395 30.89 38.8045 31.0125C38.8862 31.165 39.012 31.4008 39.1678 31.6892V10C39.167 8.61917 38.047 7.5 36.667 7.5Z" fill="#054E81"/>
<path d="M33.197 35H17.5003V31.4475L14.167 29.225V40.8333C14.167 42.2141 15.287 43.3333 16.667 43.3333H36.667C36.7812 43.3333 36.8895 43.315 36.9987 43.3C36.0987 42.0941 35.4945 41.0891 35.1362 40.195C34.9078 39.6275 33.8712 36.845 33.197 35ZM26.667 40.8333C25.747 40.8333 25.0003 40.0866 25.0003 39.1666C25.0003 38.2466 25.747 37.5 26.667 37.5C27.587 37.5 28.3337 38.2466 28.3337 39.1666C28.3337 40.0866 27.587 40.8333 26.667 40.8333Z" fill="#054E81"/>
<path d="M7.49967 36.6667C8.42015 36.6667 9.16634 35.9205 9.16634 35C9.16634 34.0796 8.42015 33.3334 7.49967 33.3334C6.5792 33.3334 5.83301 34.0796 5.83301 35C5.83301 35.9205 6.5792 36.6667 7.49967 36.6667Z" fill="#054E81"/>
<path d="M7.49967 42.5C8.42015 42.5 9.16634 41.7538 9.16634 40.8333C9.16634 39.9128 8.42015 39.1666 7.49967 39.1666C6.5792 39.1666 5.83301 39.9128 5.83301 40.8333C5.83301 41.7538 6.5792 42.5 7.49967 42.5Z" fill="#054E81"/>
<path d="M44.9997 9.16671C45.9201 9.16671 46.6663 8.42052 46.6663 7.50004C46.6663 6.57957 45.9201 5.83337 44.9997 5.83337C44.0792 5.83337 43.333 6.57957 43.333 7.50004C43.333 8.42052 44.0792 9.16671 44.9997 9.16671Z" fill="#054E81"/>
<path d="M44.9997 15C45.9201 15 46.6663 14.2538 46.6663 13.3333C46.6663 12.4128 45.9201 11.6666 44.9997 11.6666C44.0792 11.6666 43.333 12.4128 43.333 13.3333C43.333 14.2538 44.0792 15 44.9997 15Z" fill="#054E81"/>
</svg>
