<svg width="50" height="50" viewBox="0 0 50 50" fill="none" xmlns="http://www.w3.org/2000/svg">
<path d="M14.1667 14.1666C16.4679 14.1666 18.3333 12.3011 18.3333 9.99992C18.3333 7.69873 16.4679 5.83325 14.1667 5.83325C11.8655 5.83325 10 7.69873 10 9.99992C10 12.3011 11.8655 14.1666 14.1667 14.1666Z" fill="#054E81"/>
<path d="M18.3333 35.0001H14.8924C12.4049 35.0001 10.2949 33.1709 9.94328 30.7076L7.49495 13.5718C7.33578 12.4551 6.35744 11.5743 5.23328 11.6751C4.03494 11.7826 3.18661 12.8693 3.35411 14.0451L6.63578 37.0201C6.81328 38.2518 7.86744 39.1668 9.11161 39.1668H9.16661V45.8334H11.6666V39.1668H14.9999V45.8334H17.4999V39.1668H18.3333C18.7941 39.1668 19.1666 38.7943 19.1666 38.3334V35.8334C19.1666 35.3726 18.7941 35.0001 18.3333 35.0001Z" fill="#054E81"/>
<path d="M32.502 17.4999H38.8087L41.0253 12.1791C41.2028 11.7541 41.6903 11.5541 42.1153 11.7308L43.6545 12.3724C43.972 12.5049 44.167 12.8066 44.167 13.1341C44.167 13.2433 44.147 13.3549 44.102 13.4624L41.4578 19.8083C41.1987 20.4291 40.5928 20.8333 39.9187 20.8333H32.5003C32.0395 20.8333 31.667 20.4599 31.667 19.9991L31.6687 18.3324C31.6687 17.8724 32.0412 17.4999 32.502 17.4999Z" fill="#054E81"/>
<path d="M45.0003 22.5H27.5003C27.0395 22.5 26.667 22.8725 26.667 23.3333V25C26.667 25.4608 27.0395 25.8333 27.5003 25.8333H32.6437L42.5003 35.69V45.8333H46.667V24.1667C46.667 23.2467 45.9203 22.5 45.0003 22.5ZM37.357 25.8333H42.5003V30.9767L37.357 25.8333Z" fill="#054E81"/>
<path d="M13.3058 15.8333C11.4517 15.8333 10 17.3599 10 19.1724C10 19.3233 10.015 19.4758 10.0375 19.6291L11.585 30.4716C11.82 32.1133 13.2267 33.3333 14.8858 33.3333H18.3333C19.7133 33.3333 20.8333 34.4524 20.8333 35.8333V44.1666C20.8333 45.0866 21.58 45.8333 22.5 45.8333H26.6667C27.1192 45.8333 27.4933 45.4691 27.5 45.0174C27.5133 44.0108 26.8742 43.1249 25.9217 42.8083L25 42.4999V32.5458C25 31.0424 23.9942 29.7258 22.5442 29.3308L17.3817 27.9291C17.1242 27.8591 16.9158 27.6708 16.8208 27.4224L15.0575 22.8016C14.8908 22.3716 15.105 21.8891 15.5325 21.7233C15.9625 21.5574 16.445 21.7708 16.6108 22.1991L17.62 24.7749C17.87 25.4141 18.4867 25.8341 19.1717 25.8341H23.2442C24.0742 25.8341 24.8442 25.2666 24.9775 24.4474C25.1467 23.4024 24.3458 22.4999 23.3333 22.4999H19.8567L18.6942 19.5349C17.8258 17.3183 15.6867 15.8333 13.3058 15.8333Z" fill="#054E81"/>
</svg>
