<svg width="50" height="50" viewBox="0 0 50 50" fill="none" xmlns="http://www.w3.org/2000/svg">
<path d="M33.5904 33.7283C32.2979 37.8224 30.3979 41.1066 29.1221 43.0341C33.5296 42.2358 37.3879 39.8641 40.0929 36.5191C38.3496 35.5533 36.1287 34.5108 33.5904 33.7283Z" fill="#054E81"/>
<path d="M20.5 16.9092C22.1875 17.2742 23.9775 17.5001 25.8333 17.5001C27.6892 17.5001 29.4792 17.2742 31.1667 16.9092C29.2217 10.8426 25.8333 6.66675 25.8333 6.66675C25.8333 6.66675 22.445 10.8426 20.5 16.9092Z" fill="#054E81"/>
<path d="M10.1258 34.4584C12.0483 33.3767 14.5392 32.1901 17.415 31.3126C16.9567 29.3334 16.6667 27.2142 16.6667 25.0001C16.6667 22.7859 16.9567 20.6667 17.415 18.6876C14.5392 17.8101 12.0483 16.6234 10.1258 15.5417C8.46 18.3034 7.5 21.5401 7.5 25.0001C7.5 28.4601 8.46 31.6967 10.1258 34.4584Z" fill="#054E81"/>
<path d="M29.1221 6.9668C30.3979 8.89346 32.2987 12.1785 33.5904 16.2726C36.1296 15.4901 38.3496 14.4476 40.0929 13.4826C37.3879 10.1368 33.5296 7.76513 29.1221 6.9668Z" fill="#054E81"/>
<path d="M18.0757 16.2717C19.3682 12.1775 21.2682 8.89332 22.5441 6.96582C18.1366 7.76415 14.2782 10.1358 11.5732 13.4808C13.3166 14.4467 15.5374 15.4892 18.0757 16.2717Z" fill="#054E81"/>
<path d="M12.1838 6.07325C8.04134 9.06575 4.86301 13.3858 3.38634 18.4074C3.35467 18.5174 3.33301 18.6299 3.33301 18.7499C3.33301 19.4399 3.89301 19.9999 4.58301 19.9999C5.14967 19.9999 5.62134 19.6208 5.77634 19.1049C7.07051 14.5224 9.89384 10.7991 13.6588 8.08409C13.9647 7.85659 14.1663 7.49492 14.1663 7.08325C14.1663 6.39325 13.6063 5.83325 12.9163 5.83325C12.6422 5.83325 12.3905 5.92325 12.1838 6.07325Z" fill="#054E81"/>
<path d="M46.5113 36.0073C46.6072 35.8307 46.6663 35.6315 46.6663 35.4165C46.6663 34.7265 46.1063 34.1665 45.4163 34.1665C44.9347 34.1665 44.5222 34.4415 44.313 34.8407C42.5538 38.1365 39.3805 41.0157 36.3663 42.729C36.0355 42.9282 35.833 43.3265 35.833 43.7498C35.833 44.4398 36.393 44.9998 37.083 44.9998C37.3047 44.9998 37.5088 44.9373 37.6888 44.8373C41.3538 42.644 44.4855 39.7665 46.5113 36.0073Z" fill="#054E81"/>
<path d="M36.6838 23.8392C41.533 18.6292 46.6663 12.2809 46.6663 8.75008C46.6663 6.22341 44.6097 4.16675 42.083 4.16675C40.213 4.16675 37.6397 5.37758 34.8597 7.16258C35.6963 7.58675 36.4972 8.06758 37.2613 8.60175C39.2863 7.38091 40.963 6.66675 42.083 6.66675C43.2338 6.66675 44.1663 7.59925 44.1663 8.75008C44.1663 11.0426 40.2305 16.3117 34.9072 22.0618L33.9222 21.0776C33.7713 20.9267 33.563 20.8334 33.333 20.8334C33.103 20.8334 32.8947 20.9267 32.7438 21.0776L28.5772 25.2442C28.4255 25.3951 28.333 25.6034 28.333 25.8334C28.333 26.0634 28.4255 26.2717 28.5772 26.4226L29.6288 27.4734C21.2155 35.6934 11.5872 43.3334 7.91634 43.3334C6.76551 43.3334 5.83301 42.4009 5.83301 41.2501C5.83301 40.0326 6.95301 37.9676 8.79301 35.4426C8.30801 34.6551 7.87551 33.8318 7.50217 32.9776C5.08384 36.1701 3.33301 39.1901 3.33301 41.2501C3.33301 43.7767 5.38967 45.8334 7.91634 45.8334C13.5463 45.8334 25.5338 34.8909 30.4255 30.1867C30.7263 29.8976 31.053 29.5817 31.398 29.2442L32.7438 30.5901C32.8947 30.7401 33.103 30.8334 33.333 30.8334C33.563 30.8334 33.7713 30.7401 33.9222 30.5893L38.0888 26.4226C38.2405 26.2717 38.333 26.0634 38.333 25.8334C38.333 25.6034 38.2405 25.3951 38.0888 25.2442L36.6838 23.8392Z" fill="#054E81"/>
<path d="M23.0654 39.04C24.5238 41.7183 25.8338 43.3334 25.8338 43.3334C25.8338 43.3334 29.2221 39.1575 31.1671 33.0908C30.7913 33.0092 30.4071 32.9375 30.0196 32.8708C27.8179 34.9433 25.4488 37.07 23.0654 39.04Z" fill="#054E81"/>
<path d="M13.7449 38.7734C15.1616 37.8059 16.7791 36.5959 18.5624 35.1542C18.3932 34.69 18.2307 34.2159 18.0757 33.7275C15.5366 34.51 13.3166 35.5525 11.5732 36.5175C12.2316 37.3317 12.9599 38.0842 13.7449 38.7734Z" fill="#054E81"/>
<path d="M19.1875 42.0783C20.2617 42.4966 21.3825 42.8233 22.5442 43.0333C22.1142 42.3841 21.6117 41.5691 21.0867 40.6333C20.4508 41.1316 19.8167 41.615 19.1875 42.0783Z" fill="#054E81"/>
<path d="M24.4828 30.0407C25.3887 29.2124 26.312 28.3541 27.267 27.4399C26.8862 26.9924 26.667 26.4332 26.667 25.8332C26.667 25.1624 26.9278 24.5341 27.4028 24.0624L31.5662 19.8991C31.667 19.7974 31.7795 19.7107 31.8945 19.6299C31.8728 19.5282 31.8553 19.4241 31.832 19.3241C29.9437 19.7407 27.9312 19.9999 25.8337 19.9999C23.7362 19.9999 21.7237 19.7407 19.8362 19.3232C19.4245 21.1116 19.167 23.0182 19.167 24.9999C19.167 26.9816 19.4245 28.8882 19.8362 30.6766C21.3137 30.3491 22.8703 30.1249 24.4828 30.0407Z" fill="#054E81"/>
<path d="M39.0031 23.8017L39.2673 24.0659C39.739 24.5342 39.9998 25.1626 39.9998 25.8334C39.9998 26.5042 39.739 27.1326 39.264 27.6042L35.2373 31.6309C37.6965 32.4651 39.8415 33.5017 41.5398 34.4584C43.2065 31.6967 44.1665 28.4601 44.1665 25.0001C44.1665 22.8734 43.8015 20.8334 43.1348 18.9351C41.8848 20.5334 40.4831 22.1726 39.0031 23.8017Z" fill="#054E81"/>
</svg>
