<svg width="50" height="50" viewBox="0 0 50 50" fill="none" xmlns="http://www.w3.org/2000/svg">
<path d="M46.7362 5.83325H32.4312C32.0087 5.83325 31.667 6.17492 31.667 6.59742V9.16659H40.9028C42.2428 9.16659 43.3337 10.2574 43.3337 11.5974V27.4999H46.7362C47.1587 27.4999 47.5003 27.1583 47.5003 26.7358V6.59742C47.5003 6.17492 47.1587 5.83325 46.7362 5.83325Z" fill="#054E81"/>
<path d="M22.5 3.33337H4.16667C3.24667 3.33337 2.5 4.08004 2.5 5.00004V21.6667C2.5 22.5867 3.24667 23.3334 4.16667 23.3334H18.5L22.16 26.3834C22.38 26.5667 22.6567 26.6667 22.9433 26.6667C23.6192 26.6667 24.1667 26.1192 24.1667 25.4434V5.00004C24.1667 4.08004 23.42 3.33337 22.5 3.33337ZM11.1717 6.15337C10.4125 7.51337 9.38167 9.80754 9.19667 12.5H5.8825C6.21583 9.48087 8.34083 7.00421 11.1717 6.15337ZM13.3333 5.83337C13.3333 5.83337 15.5025 8.75004 15.7983 12.5H10.8683C11.1642 8.75004 13.3333 5.83337 13.3333 5.83337ZM5.8825 14.1667H9.19667C9.38167 16.8592 10.4125 19.1534 11.1717 20.5134C8.34083 19.6625 6.21583 17.1859 5.8825 14.1667ZM10.8683 14.1667H15.7983C15.5025 17.9159 13.3333 20.8334 13.3333 20.8334C13.3333 20.8334 11.1642 17.9159 10.8683 14.1667ZM15.495 20.5134C16.2542 19.1534 17.285 16.8592 17.47 14.1667H20.7842C20.4508 17.1859 18.3258 19.6625 15.495 20.5134ZM17.47 12.5C17.285 9.80754 16.2542 7.51337 15.495 6.15337C18.3258 7.00421 20.45 9.48087 20.7842 12.5H17.47Z" fill="#054E81"/>
<path d="M40.9022 10.8333H26.5972C26.1747 10.8333 25.833 11.1749 25.833 11.5974V27.4999H29.1663C31.0047 27.4999 32.4997 28.9949 32.4997 30.8333V32.4999H40.9022C41.3247 32.4999 41.6663 32.1583 41.6663 31.7358V11.5974C41.6663 11.1749 41.3247 10.8333 40.9022 10.8333ZM34.9997 14.9999H38.333V24.9999H34.9997V14.9999ZM32.4997 24.9999H29.1663V17.4999H32.4997V24.9999ZM38.333 29.1666H34.9997C34.5397 29.1666 34.1663 28.7933 34.1663 28.3333C34.1663 27.8733 34.5397 27.4999 34.9997 27.4999H38.333C38.793 27.4999 39.1663 27.8733 39.1663 28.3333C39.1663 28.7933 38.793 29.1666 38.333 29.1666Z" fill="#054E81"/>
<path d="M29.1667 29.1667H16.6667L14.6525 25.8092C14.3508 25.3075 13.8083 25 13.2233 25H6.66667C5.74667 25 5 25.7467 5 26.6667V45C5 45.92 5.74667 46.6667 6.66667 46.6667H29.1667C30.0867 46.6667 30.8333 45.92 30.8333 45V30.8333C30.8333 29.9133 30.0867 29.1667 29.1667 29.1667ZM20 43.3333C19.08 43.3333 18.3333 42.5867 18.3333 41.6667C18.3333 40.7467 19.08 40 20 40C20.92 40 21.6667 40.7467 21.6667 41.6667C21.6667 42.5867 20.92 43.3333 20 43.3333ZM25.8333 43.3333C24.9133 43.3333 24.1667 42.5867 24.1667 41.6667C24.1667 40.7467 24.9133 40 25.8333 40C26.7533 40 27.5 40.7467 27.5 41.6667C27.5 42.5867 26.7533 43.3333 25.8333 43.3333Z" fill="#054E81"/>
</svg>
