<svg width="50" height="50" viewBox="0 0 50 50" fill="none" xmlns="http://www.w3.org/2000/svg">
<path d="M46.0395 10.045L40.9045 4.33913C40.797 4.21913 40.6579 4.16663 40.522 4.16663C40.2562 4.16746 39.9995 4.37163 39.9995 4.68579V6.82746C39.9995 7.75329 39.4879 8.60413 38.6695 9.03663L28.7979 14.2625C30.5462 16.5783 32.197 19.0058 33.7929 21.3558C34.542 22.4591 35.2787 23.5408 36.0095 24.5916L46.0495 13.2966C46.4462 12.8508 46.6662 12.2741 46.6662 11.6766C46.6662 11.0741 46.4429 10.4933 46.0395 10.045Z" fill="#054E81"/>
<path d="M13.3333 25C7.35 25 2.5 29.85 2.5 35.8333C2.5 41.8167 7.35 46.6667 13.3333 46.6667C19.3167 46.6667 24.1667 41.8167 24.1667 35.8333C24.1667 29.85 19.3167 25 13.3333 25ZM17.5 42.5H9.16667C8.24667 42.5 7.5 41.7533 7.5 40.8333V35.8333H10V37.5C10 37.9608 10.3725 38.3333 10.8333 38.3333C11.2942 38.3333 11.6667 37.9608 11.6667 37.5V35.8333H15V37.5C15 37.9608 15.3725 38.3333 15.8333 38.3333C16.2942 38.3333 16.6667 37.9608 16.6667 37.5V35.8333H19.1667V40.8333C19.1667 41.7533 18.42 42.5 17.5 42.5ZM20 33.3333C20 33.7942 19.6275 34.1667 19.2025 34.1667H7.53583C7.03917 34.1667 6.66667 33.7942 6.66667 33.3333V32.5C6.66667 31.58 7.41333 30.8333 8.33333 30.8333H10.8333V29.1667C10.8333 28.7058 11.2058 28.3333 11.6667 28.3333H15C15.4608 28.3333 15.8333 28.7058 15.8333 29.1667V30.8333H18.3333C19.2533 30.8333 20 31.58 20 32.5V33.3333Z" fill="#054E81"/>
<path d="M19.6342 13.6992C19.86 13.9259 20 14.2384 20 14.5834C20 15.2734 19.44 15.8334 18.75 15.8334C18.3859 15.8334 18.0584 15.6775 17.83 15.43L7.76669 4.82171C7.30752 4.33421 6.61586 4.06837 5.86919 4.20087C4.99002 4.35671 4.28919 5.10754 4.18252 5.99254C4.10419 6.64587 4.32752 7.24671 4.73169 7.67671L19.12 22.9775L18.3642 24.3942C22.3734 26.16 25.2792 29.965 25.7609 34.4984L28.0442 32.4684L38.505 43.5942C38.8642 43.9759 39.3492 44.1667 39.8359 44.1667C40.2884 44.1667 40.7167 43.9984 41.0634 43.6725L47.1167 37.9784C47.3684 37.7409 47.5 37.4317 47.5 37.1C47.5 36.8 47.39 36.4975 47.1684 36.2609L45.5242 34.5125C45.3059 34.28 45.0217 34.1667 44.7134 34.1667C44.4459 34.1667 44.1775 34.2667 43.9667 34.465L43.3692 35.0275L41.9409 33.51C41.8317 33.3934 41.6942 33.3325 41.5342 33.3334C41.3992 33.3334 41.2642 33.3859 41.1584 33.4867L38.9042 35.6075C38.5692 35.9225 38.0417 35.9067 37.7267 35.5717C37.41 35.2367 37.4267 34.7084 37.7617 34.3934L39.9134 32.3684C31.1417 22.7875 23.4909 3.33337 9.80169 3.33337L19.6342 13.6992Z" fill="#054E81"/>
<path d="M27.987 9.51004L24.657 6.18004C24.3545 5.87837 24.167 5.46087 24.167 5.00004C24.167 4.08004 24.9137 3.33337 25.8337 3.33337C26.2945 3.33337 26.7112 3.52087 27.0128 3.82337L30.3437 7.15337C30.6462 7.45587 30.8337 7.87254 30.8337 8.33337C30.8337 9.25337 30.087 10 29.167 10C28.7062 10 28.2887 9.81254 27.987 9.51004Z" fill="#054E81"/>
<path d="M9.65301 22.01L6.32301 18.68C6.02051 18.3784 5.83301 17.9609 5.83301 17.5C5.83301 16.58 6.57967 15.8334 7.49967 15.8334C7.96051 15.8334 8.37717 16.0209 8.67884 16.3234L12.0097 19.6534C12.3122 19.9559 12.4997 20.3725 12.4997 20.8334C12.4997 21.7534 11.753 22.5 10.833 22.5C10.3722 22.5 9.95467 22.3125 9.65301 22.01Z" fill="#054E81"/>
<path d="M43.82 30.3433L40.49 27.0133C40.1875 26.7116 40 26.2941 40 25.8333C40 24.9133 40.7467 24.1666 41.6667 24.1666C42.1275 24.1666 42.5442 24.3541 42.8458 24.6566L46.1767 27.9866C46.4792 28.2891 46.6667 28.7058 46.6667 29.1666C46.6667 30.0866 45.92 30.8333 45 30.8333C44.5392 30.8333 44.1217 30.6458 43.82 30.3433Z" fill="#054E81"/>
<path d="M30.487 43.6767L27.157 40.3467C26.8545 40.045 26.667 39.6275 26.667 39.1667C26.667 38.2467 27.4137 37.5 28.3337 37.5C28.7945 37.5 29.2112 37.6875 29.5128 37.99L32.8437 41.32C33.1462 41.6225 33.3337 42.0392 33.3337 42.5C33.3337 43.42 32.587 44.1667 31.667 44.1667C31.2062 44.1667 30.7887 43.9792 30.487 43.6767Z" fill="#054E81"/>
</svg>
