<svg width="600" height="275" viewBox="0 0 600 275" fill="none" xmlns="http://www.w3.org/2000/svg">
<path fill-rule="evenodd" clip-rule="evenodd" d="M711.642 216.463H716.517C717.863 216.463 718.954 217.555 718.954 218.902C718.954 220.249 717.863 221.341 716.517 221.341H711.642C710.296 221.341 709.204 220.249 709.204 218.902C709.204 217.555 710.296 216.463 711.642 216.463ZM716.517 215.244C718.536 215.244 720.173 216.882 720.173 218.902C720.173 220.923 718.536 222.561 716.517 222.561H711.642C709.623 222.561 707.986 220.923 707.986 218.902C707.986 216.882 709.623 215.244 711.642 215.244H716.517Z" fill="#161616"/>
<path fill-rule="evenodd" clip-rule="evenodd" d="M569.052 216.463H573.926C575.273 216.463 576.364 217.555 576.364 218.902C576.364 220.249 575.273 221.341 573.926 221.341H569.052C567.705 221.341 566.614 220.249 566.614 218.902C566.614 217.555 567.705 216.463 569.052 216.463ZM573.926 215.244C575.946 215.244 577.583 216.882 577.583 218.902C577.583 220.923 575.946 222.561 573.926 222.561H569.052C567.032 222.561 565.395 220.923 565.395 218.902C565.395 216.882 567.032 215.244 569.052 215.244H573.926Z" fill="#161616"/>
<path fill-rule="evenodd" clip-rule="evenodd" d="M415.493 216.463H420.368C421.714 216.463 422.805 217.555 422.805 218.902C422.805 220.249 421.714 221.341 420.368 221.341H415.493C414.147 221.341 413.055 220.249 413.055 218.902C413.055 217.555 414.147 216.463 415.493 216.463ZM420.368 215.244C422.387 215.244 424.024 216.882 424.024 218.902C424.024 220.923 422.387 222.561 420.368 222.561H415.493C413.474 222.561 411.837 220.923 411.837 218.902C411.837 216.882 413.474 215.244 415.493 215.244H420.368Z" fill="#161616"/>
<path fill-rule="evenodd" clip-rule="evenodd" d="M278.996 216.463H283.871C285.217 216.463 286.309 217.555 286.309 218.902C286.309 220.249 285.217 221.341 283.871 221.341H278.996C277.65 221.341 276.559 220.249 276.559 218.902C276.559 217.555 277.65 216.463 278.996 216.463ZM283.871 215.244C285.89 215.244 287.527 216.882 287.527 218.902C287.527 220.923 285.89 222.561 283.871 222.561H278.996C276.977 222.561 275.34 220.923 275.34 218.902C275.34 216.882 276.977 215.244 278.996 215.244H283.871Z" fill="#161616"/>
<path fill-rule="evenodd" clip-rule="evenodd" d="M140.062 104.268C142.081 104.268 143.718 105.906 143.718 107.927V118.502V135.976C143.718 137.996 142.081 139.634 140.062 139.634H137.376H136.383H132.75C130.731 139.634 129.094 137.996 129.094 135.976V121.209V107.927C129.094 105.906 130.731 104.268 132.75 104.268H135.39H136.406H140.062Z" fill="#161616"/>
<path fill-rule="evenodd" clip-rule="evenodd" d="M160.78 153.049C162.127 153.049 163.218 154.141 163.218 155.488V160.366C163.218 161.713 162.127 162.805 160.78 162.805H159.562C158.216 162.805 157.124 161.713 157.124 160.366V155.488C157.124 154.141 158.216 153.049 159.562 153.049H160.78Z" fill="#365153"/>
<path fill-rule="evenodd" clip-rule="evenodd" d="M657.543 253.388C654.847 249.756 653.143 244.682 653.143 239.024C653.143 233.367 654.847 228.292 657.543 224.661C660.239 221.029 663.868 218.902 667.768 218.902C671.668 218.902 675.297 221.029 677.993 224.661C680.689 228.292 682.393 233.367 682.393 239.024C682.393 244.682 680.689 249.756 677.993 253.388C675.297 257.02 671.668 259.146 667.768 259.146C663.868 259.146 660.239 257.02 657.543 253.388ZM667.768 260.366C659.018 260.366 651.925 250.811 651.925 239.024C651.925 227.238 659.018 217.683 667.768 217.683C676.518 217.683 683.611 227.238 683.611 239.024C683.611 250.811 676.518 260.366 667.768 260.366Z" fill="#3E3E3E"/>
<path fill-rule="evenodd" clip-rule="evenodd" d="M661.843 247.34C660.255 245.253 659.237 242.317 659.237 239.024C659.237 235.731 660.255 232.795 661.843 230.709C663.431 228.624 665.537 227.439 667.768 227.439C669.999 227.439 672.105 228.624 673.693 230.709C675.281 232.795 676.299 235.731 676.299 239.024C676.299 242.317 675.281 245.253 673.693 247.34C672.105 249.425 669.999 250.61 667.768 250.61C665.537 250.61 663.431 249.425 661.843 247.34ZM667.768 251.829C662.383 251.829 658.018 246.096 658.018 239.024C658.018 231.952 662.383 226.22 667.768 226.22C673.153 226.22 677.518 231.952 677.518 239.024C677.518 246.096 673.153 251.829 667.768 251.829Z" fill="#3E3E3E"/>
<path fill-rule="evenodd" clip-rule="evenodd" d="M363.832 253.388C361.136 249.756 359.432 244.682 359.432 239.024C359.432 233.367 361.136 228.292 363.832 224.661C366.528 221.029 370.156 218.902 374.056 218.902C377.957 218.902 381.585 221.029 384.281 224.661C386.977 228.292 388.681 233.367 388.681 239.024C388.681 244.682 386.977 249.756 384.281 253.388C381.585 257.02 377.957 259.146 374.056 259.146C370.156 259.146 366.528 257.02 363.832 253.388ZM374.056 260.366C365.306 260.366 358.213 250.811 358.213 239.024C358.213 227.238 365.306 217.683 374.056 217.683C382.806 217.683 389.9 227.238 389.9 239.024C389.9 250.811 382.806 260.366 374.056 260.366Z" fill="#3E3E3E"/>
<path fill-rule="evenodd" clip-rule="evenodd" d="M368.132 247.34C366.543 245.253 365.525 242.317 365.525 239.024C365.525 235.731 366.543 232.795 368.132 230.709C369.72 228.624 371.825 227.439 374.056 227.439C376.287 227.439 378.393 228.624 379.981 230.709C381.57 232.795 382.587 235.731 382.587 239.024C382.587 242.317 381.57 245.253 379.981 247.34C378.393 249.425 376.287 250.61 374.056 250.61C371.825 250.61 369.72 249.425 368.132 247.34ZM374.056 251.829C368.672 251.829 364.307 246.096 364.307 239.024C364.307 231.952 368.672 226.22 374.056 226.22C379.441 226.22 383.806 231.952 383.806 239.024C383.806 246.096 379.441 251.829 374.056 251.829Z" fill="#3E3E3E"/>
<path fill-rule="evenodd" clip-rule="evenodd" d="M303.67 263.734C298.989 257.454 296.058 248.722 296.058 239.024C296.058 229.327 298.989 220.595 303.67 214.315C308.35 208.035 314.72 204.268 321.651 204.268C328.583 204.268 334.953 208.035 339.633 214.315C344.313 220.595 347.245 229.327 347.245 239.024C347.245 248.722 344.313 257.454 339.633 263.734C334.953 270.014 328.583 273.781 321.651 273.781C314.72 273.781 308.35 270.014 303.67 263.734ZM321.651 275C319.247 275 316.916 274.575 314.699 273.779C304.985 270.289 297.446 259.661 295.395 246.341C295.031 243.979 294.84 241.532 294.84 239.024C294.84 219.156 306.844 203.049 321.651 203.049C334.5 203.049 345.237 215.175 347.854 231.363C348.253 233.832 348.463 236.395 348.463 239.024C348.463 241.654 348.253 244.217 347.854 246.686C346.993 252.012 345.253 256.899 342.848 261.059C337.943 269.541 330.272 275 321.651 275Z" fill="#3E3E3E"/>
<path fill-rule="evenodd" clip-rule="evenodd" d="M311.427 253.388C308.731 249.756 307.027 244.682 307.027 239.024C307.027 233.367 308.731 228.292 311.427 224.661C314.123 221.029 317.751 218.902 321.651 218.902C325.552 218.902 329.18 221.029 331.876 224.661C334.572 228.292 336.276 233.367 336.276 239.024C336.276 244.682 334.572 249.756 331.876 253.388C329.18 257.02 325.552 259.146 321.651 259.146C317.751 259.146 314.123 257.02 311.427 253.388ZM321.651 260.366C312.901 260.366 305.808 250.811 305.808 239.024C305.808 227.238 312.901 217.683 321.651 217.683C330.401 217.683 337.495 227.238 337.495 239.024C337.495 250.811 330.401 260.366 321.651 260.366Z" fill="#3E3E3E"/>
<path fill-rule="evenodd" clip-rule="evenodd" d="M315.727 247.34C314.138 245.253 313.12 242.317 313.12 239.024C313.12 235.731 314.138 232.795 315.727 230.709C317.315 228.624 319.421 227.439 321.651 227.439C323.882 227.439 325.988 228.624 327.576 230.709C329.165 232.795 330.182 235.731 330.182 239.024C330.182 242.317 329.165 245.253 327.576 247.34C325.988 249.425 323.882 250.61 321.651 250.61C319.421 250.61 317.315 249.425 315.727 247.34ZM321.651 251.829C316.267 251.829 311.902 246.096 311.902 239.024C311.902 231.952 316.267 226.22 321.651 226.22C327.036 226.22 331.401 231.952 331.401 239.024C331.401 246.096 327.036 251.829 321.651 251.829Z" fill="#3E3E3E"/>
<path fill-rule="evenodd" clip-rule="evenodd" d="M156.204 263.734C151.524 257.454 148.593 248.722 148.593 239.024C148.593 229.327 151.524 220.595 156.204 214.315C160.885 208.035 167.255 204.268 174.186 204.268C181.118 204.268 187.488 208.035 192.168 214.315C196.848 220.595 199.779 229.327 199.779 239.024C199.779 248.722 196.848 257.454 192.168 263.734C187.488 270.014 181.118 273.781 174.186 273.781C167.255 273.781 160.885 270.014 156.204 263.734ZM174.186 275C173.047 275 171.925 274.905 170.823 274.72C159.631 272.84 150.582 261.704 148.07 247.202C147.615 244.575 147.375 241.837 147.375 239.024C147.375 219.156 159.379 203.049 174.186 203.049C188.994 203.049 200.998 219.156 200.998 239.024C200.998 241.103 200.867 243.14 200.615 245.122C200.563 245.531 200.505 245.937 200.443 246.341C199.052 255.373 195.138 263.167 189.734 268.337C189.442 268.617 189.146 268.888 188.846 269.152C184.633 272.85 179.597 275 174.186 275Z" fill="#3E3E3E"/>
<path fill-rule="evenodd" clip-rule="evenodd" d="M163.962 253.388C161.266 249.756 159.562 244.682 159.562 239.024C159.562 233.367 161.266 228.292 163.962 224.661C166.658 221.029 170.286 218.902 174.186 218.902C178.087 218.902 181.715 221.029 184.411 224.661C187.107 228.292 188.811 233.367 188.811 239.024C188.811 244.682 187.107 249.756 184.411 253.388C181.715 257.02 178.087 259.146 174.186 259.146C170.286 259.146 166.658 257.02 163.962 253.388ZM174.186 260.366C165.436 260.366 158.343 250.811 158.343 239.024C158.343 227.238 165.436 217.683 174.186 217.683C182.936 217.683 190.03 227.238 190.03 239.024C190.03 250.811 182.936 260.366 174.186 260.366Z" fill="#3E3E3E"/>
<path fill-rule="evenodd" clip-rule="evenodd" d="M168.262 247.34C166.673 245.253 165.655 242.317 165.655 239.024C165.655 235.731 166.673 232.795 168.262 230.709C169.849 228.624 171.955 227.439 174.186 227.439C176.417 227.439 178.523 228.624 180.111 230.709C181.7 232.795 182.717 235.731 182.717 239.024C182.717 242.317 181.7 245.253 180.111 247.34C178.523 249.425 176.417 250.61 174.186 250.61C171.955 250.61 169.849 249.425 168.262 247.34ZM174.186 251.829C168.802 251.829 164.437 246.096 164.437 239.024C164.437 231.952 168.802 226.22 174.186 226.22C179.571 226.22 183.936 231.952 183.936 239.024C183.936 246.096 179.571 251.829 174.186 251.829Z" fill="#3E3E3E"/>
<path fill-rule="evenodd" clip-rule="evenodd" d="M738.454 21.9512C738.454 19.5939 736.544 17.6829 734.188 17.6829C731.832 17.6829 729.923 19.5939 729.923 21.9512V174.39C729.923 176.748 731.832 178.659 734.188 178.659C736.544 178.659 738.454 176.748 738.454 174.39V21.9512ZM710.423 21.9512C710.423 19.5939 708.513 17.6829 706.158 17.6829C703.802 17.6829 701.892 19.5939 701.892 21.9512V174.39C701.892 176.748 703.802 178.659 706.158 178.659C708.513 178.659 710.423 176.748 710.423 174.39V21.9512ZM678.127 17.6829C680.483 17.6829 682.393 19.5939 682.393 21.9512V174.39C682.393 176.748 680.483 178.659 678.127 178.659C675.771 178.659 673.862 176.748 673.862 174.39V21.9512C673.862 19.5939 675.771 17.6829 678.127 17.6829ZM654.362 21.9512C654.362 19.5939 652.452 17.6829 650.096 17.6829C647.741 17.6829 645.831 19.5939 645.831 21.9512V174.39C645.831 176.748 647.741 178.659 650.096 178.659C652.452 178.659 654.362 176.748 654.362 174.39V21.9512ZM622.066 17.6829C624.422 17.6829 626.331 19.5939 626.331 21.9512V174.39C626.331 176.748 624.422 178.659 622.066 178.659C619.71 178.659 617.8 176.748 617.8 174.39V21.9512C617.8 19.5939 619.71 17.6829 622.066 17.6829ZM598.301 21.9512C598.301 19.5939 596.391 17.6829 594.035 17.6829C591.68 17.6829 589.77 19.5939 589.77 21.9512V174.39C589.77 176.748 591.68 178.659 594.035 178.659C596.391 178.659 598.301 176.748 598.301 174.39V21.9512ZM566.005 17.6829C568.361 17.6829 570.27 19.5939 570.27 21.9512V174.39C570.27 176.748 568.361 178.659 566.005 178.659C563.649 178.659 561.739 176.748 561.739 174.39V21.9512C561.739 19.5939 563.649 17.6829 566.005 17.6829ZM542.24 21.9512C542.24 19.5939 540.33 17.6829 537.974 17.6829C535.618 17.6829 533.709 19.5939 533.709 21.9512V174.39C533.709 176.748 535.618 178.659 537.974 178.659C540.33 178.659 542.24 176.748 542.24 174.39V21.9512ZM509.944 17.6829C512.299 17.6829 514.209 19.5939 514.209 21.9512V174.39C514.209 176.748 512.299 178.659 509.944 178.659C507.588 178.659 505.678 176.748 505.678 174.39V21.9512C505.678 19.5939 507.588 17.6829 509.944 17.6829ZM486.179 21.9512C486.179 19.5939 484.269 17.6829 481.913 17.6829C479.557 17.6829 477.648 19.5939 477.648 21.9512V174.39C477.648 176.748 479.557 178.659 481.913 178.659C484.269 178.659 486.179 176.748 486.179 174.39V21.9512ZM453.883 17.6829C456.238 17.6829 458.148 19.5939 458.148 21.9512V174.39C458.148 176.748 456.238 178.659 453.883 178.659C451.527 178.659 449.617 176.748 449.617 174.39V21.9512C449.617 19.5939 451.527 17.6829 453.883 17.6829ZM430.118 21.9512C430.118 19.5939 428.208 17.6829 425.852 17.6829C423.496 17.6829 421.586 19.5939 421.586 21.9512V174.39C421.586 176.748 423.496 178.659 425.852 178.659C428.208 178.659 430.118 176.748 430.118 174.39V21.9512ZM397.821 17.6829C400.177 17.6829 402.087 19.5939 402.087 21.9512V174.39C402.087 176.748 400.177 178.659 397.821 178.659C395.466 178.659 393.556 176.748 393.556 174.39V21.9512C393.556 19.5939 395.466 17.6829 397.821 17.6829ZM374.056 21.9512C374.056 19.5939 372.147 17.6829 369.791 17.6829C367.435 17.6829 365.525 19.5939 365.525 21.9512V174.39C365.525 176.748 367.435 178.659 369.791 178.659C372.147 178.659 374.056 176.748 374.056 174.39V21.9512ZM341.76 17.6829C344.116 17.6829 346.026 19.5939 346.026 21.9512V174.39C346.026 176.748 344.116 178.659 341.76 178.659C339.405 178.659 337.495 176.748 337.495 174.39V21.9512C337.495 19.5939 339.405 17.6829 341.76 17.6829ZM317.995 21.9512C317.995 19.5939 316.086 17.6829 313.73 17.6829C311.374 17.6829 309.464 19.5939 309.464 21.9512V174.39C309.464 176.748 311.374 178.659 313.73 178.659C316.086 178.659 317.995 176.748 317.995 174.39V21.9512ZM285.699 17.6829C288.055 17.6829 289.965 19.5939 289.965 21.9512V174.39C289.965 176.748 288.055 178.659 285.699 178.659C283.343 178.659 281.434 176.748 281.434 174.39V21.9512C281.434 19.5939 283.343 17.6829 285.699 17.6829Z" fill="#161616"/>
<path d="M250.356 0H232.685V196.951H250.356V0Z" fill="#023F6A"/>
<path fill-rule="evenodd" clip-rule="evenodd" d="M738.454 21.9512C738.454 19.5939 736.544 17.6829 734.188 17.6829C731.832 17.6829 729.923 19.5939 729.923 21.9512V174.39C729.923 176.748 731.832 178.659 734.188 178.659C736.544 178.659 738.454 176.748 738.454 174.39V21.9512ZM710.423 21.9512C710.423 19.5939 708.513 17.6829 706.158 17.6829C703.802 17.6829 701.892 19.5939 701.892 21.9512V174.39C701.892 176.748 703.802 178.659 706.158 178.659C708.513 178.659 710.423 176.748 710.423 174.39V21.9512ZM678.127 17.6829C680.483 17.6829 682.393 19.5939 682.393 21.9512V174.39C682.393 176.748 680.483 178.659 678.127 178.659C675.771 178.659 673.862 176.748 673.862 174.39V21.9512C673.862 19.5939 675.771 17.6829 678.127 17.6829ZM654.362 21.9512C654.362 19.5939 652.452 17.6829 650.096 17.6829C647.741 17.6829 645.831 19.5939 645.831 21.9512V174.39C645.831 176.748 647.741 178.659 650.096 178.659C652.452 178.659 654.362 176.748 654.362 174.39V21.9512ZM622.066 17.6829C624.422 17.6829 626.331 19.5939 626.331 21.9512V174.39C626.331 176.748 624.422 178.659 622.066 178.659C619.71 178.659 617.8 176.748 617.8 174.39V21.9512C617.8 19.5939 619.71 17.6829 622.066 17.6829ZM598.301 21.9512C598.301 19.5939 596.391 17.6829 594.035 17.6829C591.68 17.6829 589.77 19.5939 589.77 21.9512V174.39C589.77 176.748 591.68 178.659 594.035 178.659C596.391 178.659 598.301 176.748 598.301 174.39V21.9512ZM566.005 17.6829C568.361 17.6829 570.27 19.5939 570.27 21.9512V174.39C570.27 176.748 568.361 178.659 566.005 178.659C563.649 178.659 561.739 176.748 561.739 174.39V21.9512C561.739 19.5939 563.649 17.6829 566.005 17.6829ZM542.24 21.9512C542.24 19.5939 540.33 17.6829 537.974 17.6829C535.618 17.6829 533.709 19.5939 533.709 21.9512V174.39C533.709 176.748 535.618 178.659 537.974 178.659C540.33 178.659 542.24 176.748 542.24 174.39V21.9512ZM509.944 17.6829C512.299 17.6829 514.209 19.5939 514.209 21.9512V174.39C514.209 176.748 512.299 178.659 509.944 178.659C507.588 178.659 505.678 176.748 505.678 174.39V21.9512C505.678 19.5939 507.588 17.6829 509.944 17.6829ZM486.179 21.9512C486.179 19.5939 484.269 17.6829 481.913 17.6829C479.557 17.6829 477.648 19.5939 477.648 21.9512V174.39C477.648 176.748 479.557 178.659 481.913 178.659C484.269 178.659 486.179 176.748 486.179 174.39V21.9512ZM453.883 17.6829C456.238 17.6829 458.148 19.5939 458.148 21.9512V174.39C458.148 176.748 456.238 178.659 453.883 178.659C451.527 178.659 449.617 176.748 449.617 174.39V21.9512C449.617 19.5939 451.527 17.6829 453.883 17.6829ZM430.118 21.9512C430.118 19.5939 428.208 17.6829 425.852 17.6829C423.496 17.6829 421.586 19.5939 421.586 21.9512V174.39C421.586 176.748 423.496 178.659 425.852 178.659C428.208 178.659 430.118 176.748 430.118 174.39V21.9512ZM397.821 17.6829C400.177 17.6829 402.087 19.5939 402.087 21.9512V174.39C402.087 176.748 400.177 178.659 397.821 178.659C395.466 178.659 393.556 176.748 393.556 174.39V21.9512C393.556 19.5939 395.466 17.6829 397.821 17.6829ZM374.056 21.9512C374.056 19.5939 372.147 17.6829 369.791 17.6829C367.435 17.6829 365.525 19.5939 365.525 21.9512V174.39C365.525 176.748 367.435 178.659 369.791 178.659C372.147 178.659 374.056 176.748 374.056 174.39V21.9512ZM341.76 17.6829C344.116 17.6829 346.026 19.5939 346.026 21.9512V174.39C346.026 176.748 344.116 178.659 341.76 178.659C339.405 178.659 337.495 176.748 337.495 174.39V21.9512C337.495 19.5939 339.405 17.6829 341.76 17.6829ZM317.995 21.9512C317.995 19.5939 316.086 17.6829 313.73 17.6829C311.374 17.6829 309.464 19.5939 309.464 21.9512V174.39C309.464 176.748 311.374 178.659 313.73 178.659C316.086 178.659 317.995 176.748 317.995 174.39V21.9512ZM285.699 17.6829C288.055 17.6829 289.965 19.5939 289.965 21.9512V174.39C289.965 176.748 288.055 178.659 285.699 178.659C283.343 178.659 281.434 176.748 281.434 174.39V21.9512C281.434 19.5939 283.343 17.6829 285.699 17.6829Z" fill="#00548F"/>
<path d="M716.517 216.463H711.642C710.296 216.463 709.204 217.555 709.204 218.902C709.204 220.249 710.296 221.341 711.642 221.341H716.517C717.863 221.341 718.954 220.249 718.954 218.902C718.954 217.555 717.863 216.463 716.517 216.463Z" fill="#F00808"/>
<path d="M573.926 216.463H569.052C567.705 216.463 566.614 217.555 566.614 218.902C566.614 220.249 567.705 221.341 569.052 221.341H573.926C575.273 221.341 576.364 220.249 576.364 218.902C576.364 217.555 575.273 216.463 573.926 216.463Z" fill="#F00808"/>
<path d="M420.368 216.463H415.493C414.147 216.463 413.055 217.555 413.055 218.902C413.055 220.249 414.147 221.341 415.493 221.341H420.368C421.714 221.341 422.805 220.249 422.805 218.902C422.805 217.555 421.714 216.463 420.368 216.463Z" fill="#F00808"/>
<path d="M283.871 216.463H278.996C277.65 216.463 276.559 217.555 276.559 218.902C276.559 220.249 277.65 221.341 278.996 221.341H283.871C285.217 221.341 286.309 220.249 286.309 218.902C286.309 217.555 285.217 216.463 283.871 216.463Z" fill="#F00808"/>
<path d="M561.363 200.61L562.581 198.171H448.684L446.653 200.61H561.363Z" fill="#161616"/>
<path d="M464.285 250.501C462.782 246.275 461.947 241.767 461.821 237.195H510.569C510.696 241.904 511.554 246.551 513.104 250.91C514.402 254.557 516.164 257.947 518.328 260.968C517.861 261.588 517.376 262.191 516.875 262.775C513.865 266.279 510.303 269.047 506.397 270.931C502.491 272.815 498.314 273.781 494.1 273.781C489.887 273.781 485.709 272.815 481.804 270.931C477.898 269.047 474.335 266.279 471.326 262.775C468.317 259.271 465.921 255.101 464.285 250.501Z" fill="#161616"/>
<path d="M588.551 239.024C588.551 255.648 596.954 269.638 608.372 273.765C608.265 273.768 608.158 273.771 608.051 273.774C604.044 273.685 600.081 272.724 596.364 270.931C592.457 269.047 588.895 266.279 585.886 262.775C582.876 259.271 580.481 255.101 578.845 250.501C578.02 248.184 577.397 245.783 576.982 243.332C577.315 241.311 577.511 239.259 577.566 237.195H588.585C588.563 237.801 588.551 238.411 588.551 239.024Z" fill="#161616"/>
<path d="M641.565 246.686C643.693 259.845 651.186 270.32 660.817 273.779C656.688 273.742 652.598 272.778 648.769 270.931C644.862 269.047 641.3 266.279 638.291 262.775C637.743 262.137 637.215 261.477 636.709 260.797C639.037 256.694 640.722 251.901 641.565 246.686Z" fill="#161616"/>
<path d="M606.15 202.86C611.432 200.154 617.361 199.448 623.344 201.632C629.339 203.82 635.458 208.934 641.047 218.003L641.552 218.823L642.076 218.015C647.965 208.95 654.336 204.033 660.515 202.087C666.685 200.143 672.741 201.136 678.064 204.041C688.75 209.874 696.398 223.373 695.799 235.947L695.769 236.585H694.519C693.585 217.854 681.965 203.049 667.768 203.049C654.92 203.049 644.182 215.175 641.565 231.363C638.949 215.175 628.211 203.049 615.363 203.049C601.321 203.049 589.799 217.534 588.646 235.976H587.332C587.577 221.78 595.55 208.29 606.15 202.86Z" fill="#161616"/>
<path fill-rule="evenodd" clip-rule="evenodd" d="M347.245 239.024C347.245 241.654 347.455 244.217 347.854 246.686C348.253 244.217 348.463 241.654 348.463 239.024C348.463 236.395 348.253 233.832 347.854 231.363C347.455 233.832 347.245 236.395 347.245 239.024Z" fill="#3E3E3E"/>
<path d="M348.463 239.024C348.463 248.722 351.394 257.454 356.075 263.734C360.755 270.014 367.125 273.781 374.056 273.781C380.988 273.781 387.358 270.014 392.038 263.734C396.718 257.454 399.65 248.722 399.65 239.024C399.65 229.327 396.718 220.595 392.038 214.315C387.358 208.035 380.988 204.268 374.056 204.268C367.125 204.268 360.755 208.035 356.075 214.315C351.394 220.595 348.463 229.327 348.463 239.024C348.463 236.395 348.253 233.832 347.854 231.363C350.471 215.175 361.208 203.049 374.056 203.049C388.253 203.049 399.873 217.854 400.808 236.585C400.848 237.391 400.868 238.205 400.868 239.024C400.868 258.893 388.864 275 374.056 275C371.58 275 369.182 274.55 366.906 273.706C357.371 270.175 349.966 259.754 347.854 246.686C348.253 244.217 348.463 241.654 348.463 239.024Z" fill="#3E3E3E"/>
<path d="M365.525 239.024C365.525 242.317 366.543 245.253 368.132 247.34C369.72 249.425 371.825 250.61 374.056 250.61C376.287 250.61 378.393 249.425 379.981 247.34C381.57 245.253 382.587 242.317 382.587 239.024C382.587 235.731 381.57 232.795 379.981 230.709C378.393 228.624 376.287 227.439 374.056 227.439C371.825 227.439 369.72 228.624 368.132 230.709C366.543 232.795 365.525 235.731 365.525 239.024Z" fill="#3E3E3E"/>
<path fill-rule="evenodd" clip-rule="evenodd" d="M356.075 263.734C351.394 257.454 348.463 248.722 348.463 239.024C348.463 229.327 351.394 220.595 356.075 214.315C360.755 208.035 367.125 204.268 374.056 204.268C380.988 204.268 387.358 208.035 392.038 214.315C396.718 220.595 399.65 229.327 399.65 239.024C399.65 248.722 396.718 257.454 392.038 263.734C387.358 270.014 380.988 273.781 374.056 273.781C367.125 273.781 360.755 270.014 356.075 263.734ZM374.056 260.366C365.306 260.366 358.213 250.811 358.213 239.024C358.213 227.238 365.306 217.683 374.056 217.683C382.806 217.683 389.9 227.238 389.9 239.024C389.9 250.811 382.806 260.366 374.056 260.366Z" fill="#3E3E3E"/>
<path fill-rule="evenodd" clip-rule="evenodd" d="M649.786 263.734C645.106 257.454 642.175 248.722 642.175 239.024C642.175 229.327 645.106 220.595 649.786 214.315C654.466 208.035 660.837 204.268 667.768 204.268C674.699 204.268 681.07 208.035 685.75 214.315C690.43 220.595 693.361 229.327 693.361 239.024C693.361 248.722 690.43 257.454 685.75 263.734C681.07 270.014 674.699 273.781 667.768 273.781C660.837 273.781 654.466 270.014 649.786 263.734ZM667.768 260.366C659.018 260.366 651.925 250.811 651.925 239.024C651.925 227.238 659.018 217.683 667.768 217.683C676.518 217.683 683.611 227.238 683.611 239.024C683.611 250.811 676.518 260.366 667.768 260.366Z" fill="#3E3E3E"/>
<path d="M659.237 239.024C659.237 242.317 660.255 245.253 661.843 247.34C663.431 249.425 665.537 250.61 667.768 250.61C669.999 250.61 672.105 249.425 673.693 247.34C675.281 245.253 676.299 242.317 676.299 239.024C676.299 235.731 675.281 232.795 673.693 230.709C672.105 228.624 669.999 227.439 667.768 227.439C665.537 227.439 663.431 228.624 661.843 230.709C660.255 232.795 659.237 235.731 659.237 239.024Z" fill="#3E3E3E"/>
<path fill-rule="evenodd" clip-rule="evenodd" d="M653.143 239.024C653.143 244.682 654.847 249.756 657.543 253.388C660.239 257.02 663.868 259.146 667.768 259.146C671.668 259.146 675.297 257.02 677.993 253.388C680.689 249.756 682.393 244.682 682.393 239.024C682.393 233.367 680.689 228.292 677.993 224.661C675.297 221.029 671.668 218.902 667.768 218.902C663.868 218.902 660.239 221.029 657.543 224.661C654.847 228.292 653.143 233.367 653.143 239.024ZM667.768 251.829C662.383 251.829 658.018 246.096 658.018 239.024C658.018 231.952 662.383 226.22 667.768 226.22C673.153 226.22 677.518 231.952 677.518 239.024C677.518 246.096 673.153 251.829 667.768 251.829Z" fill="#DDF1FF"/>
<path fill-rule="evenodd" clip-rule="evenodd" d="M642.175 239.024C642.175 248.722 645.106 257.454 649.786 263.734C654.466 270.014 660.837 273.781 667.768 273.781C674.699 273.781 681.07 270.014 685.75 263.734C690.43 257.454 693.361 248.722 693.361 239.024C693.361 229.327 690.43 220.595 685.75 214.315C681.07 208.035 674.699 204.268 667.768 204.268C660.837 204.268 654.466 208.035 649.786 214.315C645.106 220.595 642.175 229.327 642.175 239.024ZM641.565 231.363C644.182 215.175 654.92 203.049 667.768 203.049C681.965 203.049 693.585 217.854 694.519 236.585C694.559 237.391 694.58 238.205 694.58 239.024C694.58 258.893 682.576 275 667.768 275C665.364 275 663.034 274.576 660.817 273.779C651.186 270.32 643.693 259.845 641.565 246.686C640.722 251.901 639.037 256.694 636.709 260.797C631.811 269.428 624.072 275 615.363 275C612.944 275 610.601 274.57 608.372 273.765C596.954 269.638 588.551 255.648 588.551 239.024C588.551 238.411 588.563 237.801 588.585 237.195C588.6 236.787 588.621 236.38 588.646 235.976C589.799 217.534 601.321 203.049 615.363 203.049C628.211 203.049 638.949 215.175 641.565 231.363ZM640.956 239.024C640.956 236.395 641.166 233.832 641.565 231.363C641.965 233.832 642.175 236.395 642.175 239.024C642.175 241.654 641.965 244.217 641.565 246.686C641.166 244.217 640.956 241.654 640.956 239.024ZM640.956 239.024C640.956 248.722 638.025 257.454 633.345 263.734C628.665 270.014 622.294 273.781 615.363 273.781C608.432 273.781 602.061 270.014 597.381 263.734C592.701 257.454 589.77 248.722 589.77 239.024C589.77 229.327 592.701 220.595 597.381 214.315C602.061 208.035 608.432 204.268 615.363 204.268C622.294 204.268 628.665 208.035 633.345 214.315C638.025 220.595 640.956 229.327 640.956 239.024Z" fill="#3E3E3E"/>
<path d="M642.175 239.024C642.175 241.654 641.965 244.217 641.565 246.686C641.166 244.217 640.956 241.654 640.956 239.024C640.956 236.395 641.166 233.832 641.565 231.363C641.965 233.832 642.175 236.395 642.175 239.024Z" fill="#3E3E3E"/>
<path fill-rule="evenodd" clip-rule="evenodd" d="M597.381 263.734C592.701 257.454 589.77 248.722 589.77 239.024C589.77 229.327 592.701 220.595 597.381 214.315C602.061 208.035 608.432 204.268 615.363 204.268C622.294 204.268 628.665 208.035 633.345 214.315C638.025 220.595 640.956 229.327 640.956 239.024C640.956 248.722 638.025 257.454 633.345 263.734C628.665 270.014 622.294 273.781 615.363 273.781C608.432 273.781 602.061 270.014 597.381 263.734ZM605.138 253.388C602.442 249.756 600.738 244.682 600.738 239.024C600.738 233.367 602.442 228.292 605.138 224.661C607.834 221.029 611.463 218.902 615.363 218.902C619.263 218.902 622.892 221.029 625.588 224.661C628.284 228.292 629.988 233.367 629.988 239.024C629.988 244.682 628.284 249.756 625.588 253.388C622.892 257.02 619.263 259.146 615.363 259.146C611.463 259.146 607.834 257.02 605.138 253.388Z" fill="#3E3E3E"/>
<path fill-rule="evenodd" clip-rule="evenodd" d="M605.613 239.024C605.613 246.096 609.978 251.829 615.363 251.829C620.748 251.829 625.113 246.096 625.113 239.024C625.113 231.952 620.748 226.22 615.363 226.22C609.978 226.22 605.613 231.952 605.613 239.024ZM609.438 247.34C607.85 245.253 606.832 242.317 606.832 239.024C606.832 235.731 607.85 232.795 609.438 230.709C611.026 228.624 613.132 227.439 615.363 227.439C617.594 227.439 619.7 228.624 621.288 230.709C622.876 232.795 623.894 235.731 623.894 239.024C623.894 242.317 622.876 245.253 621.288 247.34C619.7 249.425 617.594 250.61 615.363 250.61C613.132 250.61 611.026 249.425 609.438 247.34Z" fill="#3E3E3E"/>
<path d="M606.832 239.024C606.832 242.317 607.85 245.253 609.438 247.34C611.026 249.425 613.132 250.61 615.363 250.61C617.594 250.61 619.7 249.425 621.288 247.34C622.876 245.253 623.894 242.317 623.894 239.024C623.894 235.731 622.876 232.795 621.288 230.709C619.7 228.624 617.594 227.439 615.363 227.439C613.132 227.439 611.026 228.624 609.438 230.709C607.85 232.795 606.832 235.731 606.832 239.024Z" fill="#3E3E3E"/>
<path fill-rule="evenodd" clip-rule="evenodd" d="M600.738 239.024C600.738 244.682 602.442 249.756 605.138 253.388C607.834 257.02 611.463 259.146 615.363 259.146C619.263 259.146 622.892 257.02 625.588 253.388C628.284 249.756 629.988 244.682 629.988 239.024C629.988 233.367 628.284 228.292 625.588 224.661C622.892 221.029 619.263 218.902 615.363 218.902C611.463 218.902 607.834 221.029 605.138 224.661C602.442 228.292 600.738 233.367 600.738 239.024ZM615.363 251.829C609.978 251.829 605.613 246.096 605.613 239.024C605.613 231.952 609.978 226.22 615.363 226.22C620.748 226.22 625.113 231.952 625.113 239.024C625.113 246.096 620.748 251.829 615.363 251.829Z" fill="#DDF1FF"/>
<path fill-rule="evenodd" clip-rule="evenodd" d="M359.432 239.024C359.432 244.682 361.136 249.756 363.832 253.388C366.528 257.02 370.156 259.146 374.056 259.146C377.957 259.146 381.585 257.02 384.281 253.388C386.977 249.756 388.681 244.682 388.681 239.024C388.681 233.367 386.977 228.292 384.281 224.661C381.585 221.029 377.957 218.902 374.056 218.902C370.156 218.902 366.528 221.029 363.832 224.661C361.136 228.292 359.432 233.367 359.432 239.024ZM374.056 251.829C368.672 251.829 364.307 246.096 364.307 239.024C364.307 231.952 368.672 226.22 374.056 226.22C379.441 226.22 383.806 231.952 383.806 239.024C383.806 246.096 379.441 251.829 374.056 251.829Z" fill="#DDF1FF"/>
<path fill-rule="evenodd" clip-rule="evenodd" d="M303.67 263.734C298.989 257.454 296.058 248.722 296.058 239.024C296.058 229.327 298.989 220.595 303.67 214.315C308.35 208.035 314.72 204.268 321.651 204.268C328.583 204.268 334.953 208.035 339.633 214.315C344.313 220.595 347.245 229.327 347.245 239.024C347.245 248.722 344.313 257.454 339.633 263.734C334.953 270.014 328.583 273.781 321.651 273.781C314.72 273.781 308.35 270.014 303.67 263.734ZM321.651 260.366C312.901 260.366 305.808 250.811 305.808 239.024C305.808 227.238 312.901 217.683 321.651 217.683C330.401 217.683 337.495 227.238 337.495 239.024C337.495 250.811 330.401 260.366 321.651 260.366Z" fill="#3E3E3E"/>
<path fill-rule="evenodd" clip-rule="evenodd" d="M307.027 239.024C307.027 244.682 308.731 249.756 311.427 253.388C314.123 257.02 317.751 259.146 321.651 259.146C325.552 259.146 329.18 257.02 331.876 253.388C334.572 249.756 336.276 244.682 336.276 239.024C336.276 233.367 334.572 228.292 331.876 224.661C329.18 221.029 325.552 218.902 321.651 218.902C317.751 218.902 314.123 221.029 311.427 224.661C308.731 228.292 307.027 233.367 307.027 239.024ZM321.651 251.829C316.267 251.829 311.902 246.096 311.902 239.024C311.902 231.952 316.267 226.22 321.651 226.22C327.036 226.22 331.401 231.952 331.401 239.024C331.401 246.096 327.036 251.829 321.651 251.829Z" fill="#DDF1FF"/>
<path d="M313.12 239.024C313.12 242.317 314.138 245.253 315.727 247.34C317.315 249.425 319.421 250.61 321.651 250.61C323.882 250.61 325.988 249.425 327.576 247.34C329.165 245.253 330.182 242.317 330.182 239.024C330.182 235.731 329.165 232.795 327.576 230.709C325.988 228.624 323.882 227.439 321.651 227.439C319.421 227.439 317.315 228.624 315.727 230.709C314.138 232.795 313.12 235.731 313.12 239.024Z" fill="#3E3E3E"/>
<path fill-rule="evenodd" clip-rule="evenodd" d="M148.593 239.024C148.593 248.722 151.524 257.454 156.204 263.734C160.885 270.014 167.255 273.781 174.186 273.781C181.118 273.781 187.488 270.014 192.168 263.734C196.848 257.454 199.779 248.722 199.779 239.024C199.779 229.327 196.848 220.595 192.168 214.315C187.488 208.035 181.118 204.268 174.186 204.268C167.255 204.268 160.885 208.035 156.204 214.315C151.524 220.595 148.593 229.327 148.593 239.024ZM174.186 260.366C165.436 260.366 158.343 250.811 158.343 239.024C158.343 227.238 165.436 217.683 174.186 217.683C182.936 217.683 190.03 227.238 190.03 239.024C190.03 250.811 182.936 260.366 174.186 260.366Z" fill="#3E3E3E"/>
<path fill-rule="evenodd" clip-rule="evenodd" d="M159.562 239.024C159.562 244.682 161.266 249.756 163.962 253.388C166.658 257.02 170.286 259.146 174.186 259.146C178.087 259.146 181.715 257.02 184.411 253.388C187.107 249.756 188.811 244.682 188.811 239.024C188.811 233.367 187.107 228.292 184.411 224.661C181.715 221.029 178.087 218.902 174.186 218.902C170.286 218.902 166.658 221.029 163.962 224.661C161.266 228.292 159.562 233.367 159.562 239.024ZM174.186 251.829C168.802 251.829 164.437 246.096 164.437 239.024C164.437 231.952 168.802 226.22 174.186 226.22C179.571 226.22 183.936 231.952 183.936 239.024C183.936 246.096 179.571 251.829 174.186 251.829Z" fill="#DDF1FF"/>
<path d="M165.655 239.024C165.655 242.317 166.673 245.253 168.262 247.34C169.849 249.425 171.955 250.61 174.186 250.61C176.417 250.61 178.523 249.425 180.111 247.34C181.7 245.253 182.717 242.317 182.717 239.024C182.717 235.731 181.7 232.795 180.111 230.709C178.523 228.624 176.417 227.439 174.186 227.439C171.955 227.439 169.849 228.624 168.262 230.709C166.673 232.795 165.655 235.731 165.655 239.024Z" fill="#3E3E3E"/>
<path fill-rule="evenodd" clip-rule="evenodd" d="M729.923 235.366V202.439H691.253L687.597 198.171H563.944L562.116 201.829H443.846H398.246L392.762 198.171H251.575H250.356H231.466V190.854H165.139C151.279 195.19 143.294 205.368 138.937 216.323C134.676 227.041 133.909 238.459 134.525 245.732H142.54C143.702 229.373 147.975 217.888 153.814 210.552C159.731 203.118 167.243 199.967 174.644 200.351C189.289 201.112 203.175 215.644 203.432 237.195H290.589C291.05 222.818 299.301 208.736 310.345 202.697C315.963 199.625 322.319 198.628 328.721 200.767C334.924 202.839 341.092 207.829 346.649 216.556C352.501 207.827 358.885 202.919 365.219 200.924C371.749 198.866 378.147 199.931 383.717 202.971C394.635 208.93 402.448 222.515 402.11 235.366H586.128C586.585 221.004 594.685 207.363 605.594 201.774C611.144 198.932 617.425 198.174 623.762 200.487C629.901 202.727 636.027 207.826 641.579 216.556C647.431 207.827 653.816 202.919 660.149 200.924C666.68 198.866 673.077 199.931 678.647 202.971C689.565 208.93 697.379 222.516 697.04 235.366H729.923ZM716.517 215.244C718.536 215.244 720.173 216.882 720.173 218.902C720.173 220.923 718.536 222.561 716.517 222.561H711.642C709.623 222.561 707.986 220.923 707.986 218.902C707.986 216.882 709.623 215.244 711.642 215.244H716.517ZM573.926 215.244C575.946 215.244 577.583 216.882 577.583 218.902C577.583 220.923 575.946 222.561 573.926 222.561H569.052C567.032 222.561 565.395 220.923 565.395 218.902C565.395 216.882 567.032 215.244 569.052 215.244H573.926ZM420.368 215.244C422.387 215.244 424.024 216.882 424.024 218.902C424.024 220.923 422.387 222.561 420.368 222.561H415.493C413.474 222.561 411.837 220.923 411.837 218.902C411.837 216.882 413.474 215.244 415.493 215.244H420.368ZM283.871 215.244C285.89 215.244 287.527 216.882 287.527 218.902C287.527 220.923 285.89 222.561 283.871 222.561H278.996C276.977 222.561 275.34 220.923 275.34 218.902C275.34 216.882 276.977 215.244 278.996 215.244H283.871Z" fill="#3E3E3E"/>
<path d="M134.683 246.951H143.679L148.07 247.202C150.582 261.704 159.631 272.84 170.823 274.72C145.709 272.273 136.956 263.045 134.683 246.951Z" fill="#161616"/>
<path fill-rule="evenodd" clip-rule="evenodd" d="M140.062 104.268C142.081 104.268 143.718 105.906 143.718 107.927V118.502V135.976C143.718 137.996 142.081 139.634 140.062 139.634H137.376H136.383H132.75C130.731 139.634 129.094 137.996 129.094 135.976V121.209V107.927C129.094 105.906 130.731 104.268 132.75 104.268H135.39H136.406H140.062Z" fill="#F00808"/>
<path fill-rule="evenodd" clip-rule="evenodd" d="M734.188 17.6829C736.544 17.6829 738.454 19.5939 738.454 21.9512V174.39C738.454 176.748 736.544 178.659 734.188 178.659C731.832 178.659 729.923 176.748 729.923 174.39V21.9512C729.923 19.5939 731.832 17.6829 734.188 17.6829ZM706.158 17.6829C708.513 17.6829 710.423 19.5939 710.423 21.9512V174.39C710.423 176.748 708.513 178.659 706.158 178.659C703.802 178.659 701.892 176.748 701.892 174.39V21.9512C701.892 19.5939 703.802 17.6829 706.158 17.6829ZM682.393 21.9512C682.393 19.5939 680.483 17.6829 678.127 17.6829C675.771 17.6829 673.862 19.5939 673.862 21.9512V174.39C673.862 176.748 675.771 178.659 678.127 178.659C680.483 178.659 682.393 176.748 682.393 174.39V21.9512ZM650.096 17.6829C652.452 17.6829 654.362 19.5939 654.362 21.9512V174.39C654.362 176.748 652.452 178.659 650.096 178.659C647.741 178.659 645.831 176.748 645.831 174.39V21.9512C645.831 19.5939 647.741 17.6829 650.096 17.6829ZM626.331 21.9512C626.331 19.5939 624.422 17.6829 622.066 17.6829C619.71 17.6829 617.8 19.5939 617.8 21.9512V174.39C617.8 176.748 619.71 178.659 622.066 178.659C624.422 178.659 626.331 176.748 626.331 174.39V21.9512ZM594.035 17.6829C596.391 17.6829 598.301 19.5939 598.301 21.9512V174.39C598.301 176.748 596.391 178.659 594.035 178.659C591.68 178.659 589.77 176.748 589.77 174.39V21.9512C589.77 19.5939 591.68 17.6829 594.035 17.6829ZM570.27 21.9512C570.27 19.5939 568.361 17.6829 566.005 17.6829C563.649 17.6829 561.739 19.5939 561.739 21.9512V174.39C561.739 176.748 563.649 178.659 566.005 178.659C568.361 178.659 570.27 176.748 570.27 174.39V21.9512ZM537.974 17.6829C540.33 17.6829 542.24 19.5939 542.24 21.9512V174.39C542.24 176.748 540.33 178.659 537.974 178.659C535.618 178.659 533.709 176.748 533.709 174.39V21.9512C533.709 19.5939 535.618 17.6829 537.974 17.6829ZM514.209 21.9512C514.209 19.5939 512.299 17.6829 509.944 17.6829C507.588 17.6829 505.678 19.5939 505.678 21.9512V174.39C505.678 176.748 507.588 178.659 509.944 178.659C512.299 178.659 514.209 176.748 514.209 174.39V21.9512ZM481.913 17.6829C484.269 17.6829 486.179 19.5939 486.179 21.9512V174.39C486.179 176.748 484.269 178.659 481.913 178.659C479.557 178.659 477.648 176.748 477.648 174.39V21.9512C477.648 19.5939 479.557 17.6829 481.913 17.6829ZM458.148 21.9512C458.148 19.5939 456.238 17.6829 453.883 17.6829C451.527 17.6829 449.617 19.5939 449.617 21.9512V174.39C449.617 176.748 451.527 178.659 453.883 178.659C456.238 178.659 458.148 176.748 458.148 174.39V21.9512ZM425.852 17.6829C428.208 17.6829 430.118 19.5939 430.118 21.9512V174.39C430.118 176.748 428.208 178.659 425.852 178.659C423.496 178.659 421.586 176.748 421.586 174.39V21.9512C421.586 19.5939 423.496 17.6829 425.852 17.6829ZM402.087 21.9512C402.087 19.5939 400.177 17.6829 397.821 17.6829C395.466 17.6829 393.556 19.5939 393.556 21.9512V174.39C393.556 176.748 395.466 178.659 397.821 178.659C400.177 178.659 402.087 176.748 402.087 174.39V21.9512ZM369.791 17.6829C372.147 17.6829 374.056 19.5939 374.056 21.9512V174.39C374.056 176.748 372.147 178.659 369.791 178.659C367.435 178.659 365.525 176.748 365.525 174.39V21.9512C365.525 19.5939 367.435 17.6829 369.791 17.6829ZM346.026 21.9512C346.026 19.5939 344.116 17.6829 341.76 17.6829C339.405 17.6829 337.495 19.5939 337.495 21.9512V174.39C337.495 176.748 339.405 178.659 341.76 178.659C344.116 178.659 346.026 176.748 346.026 174.39V21.9512ZM313.73 17.6829C316.086 17.6829 317.995 19.5939 317.995 21.9512V174.39C317.995 176.748 316.086 178.659 313.73 178.659C311.374 178.659 309.464 176.748 309.464 174.39V21.9512C309.464 19.5939 311.374 17.6829 313.73 17.6829ZM289.965 21.9512C289.965 19.5939 288.055 17.6829 285.699 17.6829C283.343 17.6829 281.434 19.5939 281.434 21.9512V174.39C281.434 176.748 283.343 178.659 285.699 178.659C288.055 178.659 289.965 176.748 289.965 174.39V21.9512Z" fill="#023F6A"/>
<path d="M143.717 246.382L143.679 246.951H134.683L134.537 245.831L134.525 245.732H142.54C143.702 229.373 147.975 217.888 153.814 210.552C159.731 203.118 167.243 199.967 174.644 200.351C189.289 201.112 203.175 215.644 203.432 237.195H290.589C291.05 222.818 299.301 208.736 310.345 202.697C315.963 199.625 322.319 198.628 328.721 200.767C334.924 202.839 341.092 207.829 346.649 216.556C352.501 207.827 358.885 202.919 365.219 200.924C371.749 198.866 378.147 199.931 383.717 202.971C394.635 208.93 402.448 222.515 402.11 235.366H586.128C586.585 221.004 594.685 207.363 605.594 201.774C611.144 198.932 617.425 198.174 623.762 200.487C629.901 202.727 636.027 207.826 641.579 216.556C647.431 207.827 653.816 202.919 660.149 200.924C666.68 198.866 673.077 199.931 678.647 202.971C689.565 208.93 697.379 222.516 697.04 235.366H729.923V202.439H691.253L687.597 198.171H689.202L691.813 201.22H731.141V236.585H695.769L695.799 235.947C696.398 223.373 688.75 209.874 678.064 204.041C672.741 201.136 666.685 200.143 660.515 202.087C654.336 204.033 647.965 208.95 642.076 218.015L641.552 218.823L641.047 218.003C635.458 208.934 629.339 203.82 623.344 201.632C617.361 199.448 611.432 200.154 606.15 202.86C595.55 208.29 587.577 221.78 587.332 235.976H577.583H575.145H573.926H527.615H510.553H460.586C460.586 236.146 460.586 236.315 460.588 236.485L460.59 236.585H400.839L400.869 235.946C401.467 223.373 393.819 209.874 383.133 204.041C377.811 201.136 371.755 200.143 365.585 202.087C359.406 204.033 353.035 208.95 347.146 218.015L346.622 218.823L346.117 218.003C340.53 208.938 334.377 203.942 328.335 201.924C322.301 199.908 316.296 200.832 310.929 203.767C300.16 209.656 292.033 223.618 291.793 237.815L291.783 238.415H202.217V237.805C202.217 216.399 188.56 202.295 174.581 201.569C167.602 201.207 160.459 204.161 154.767 211.312C149.065 218.476 144.809 229.874 143.717 246.382Z" fill="#3E3E3E"/>
<path d="M510.569 237.195H511.789C511.915 241.767 512.749 246.275 514.252 250.501C515.466 253.911 517.096 257.085 519.084 259.926C518.837 260.279 518.585 260.626 518.328 260.968C516.164 257.947 514.402 254.557 513.104 250.91C511.554 246.551 510.696 241.904 510.569 237.195Z" fill="#161616"/>
<path d="M527.599 237.195C527.472 241.904 526.615 246.551 525.064 250.91C523.767 254.557 522.004 257.947 519.84 260.968C519.583 260.626 519.331 260.279 519.084 259.926C517.096 257.085 515.466 253.911 514.252 250.501C512.749 246.275 511.915 241.767 511.789 237.195H526.38H527.599Z" fill="#161616"/>
<path d="M461.821 237.195C461.947 241.767 462.782 246.275 464.285 250.501C465.921 255.101 468.317 259.271 471.326 262.775C474.335 266.279 477.898 269.047 481.804 270.931C485.709 272.815 489.887 273.781 494.1 273.781C498.314 273.781 502.491 272.815 506.397 270.931C510.303 269.047 513.865 266.279 516.875 262.775C517.376 262.191 517.861 261.588 518.328 260.968C518.575 261.313 518.827 261.653 519.084 261.988C518.669 262.528 518.24 263.056 517.799 263.57C514.687 267.194 510.992 270.068 506.926 272.029C502.86 273.991 498.502 275 494.1 275C489.699 275 485.341 273.991 481.275 272.029C477.209 270.068 473.514 267.194 470.402 263.57C467.29 259.946 464.821 255.644 463.137 250.91C461.586 246.551 460.728 241.904 460.602 237.195C460.599 237.072 460.596 236.948 460.593 236.825L460.592 236.72L460.59 236.585L460.588 236.485C460.586 236.315 460.586 236.146 460.586 235.976H510.553H527.615H573.926H575.145H577.583H587.332H588.646C588.621 236.38 588.6 236.787 588.585 237.195H577.566H576.381H576.347H575.162H573.943H527.599H526.38H511.789H510.569H461.821Z" fill="#161616"/>
<path d="M573.943 237.195H575.162C575.217 239.259 575.413 241.311 575.746 243.331C575.575 244.34 575.369 245.341 575.128 246.331C574.425 243.355 574.026 240.288 573.943 237.195Z" fill="#161616"/>
<path d="M575.162 237.195H576.347C576.291 239.243 576.092 241.279 575.755 243.282C575.417 241.279 575.219 239.243 575.162 237.195Z" fill="#161616"/>
<path d="M575.746 243.331C575.413 241.311 575.217 239.259 575.162 237.195C575.219 239.243 575.417 241.279 575.755 243.282L575.746 243.331Z" fill="#9B0404"/>
<path d="M577.566 237.195C577.511 239.259 577.315 241.311 576.982 243.332C576.639 241.313 576.438 239.261 576.381 237.195H577.566Z" fill="#161616"/>
<path d="M518.328 260.968C518.585 260.626 518.837 260.279 519.084 259.926C519.331 260.279 519.583 260.626 519.84 260.968C519.593 261.313 519.341 261.653 519.084 261.988C518.827 261.653 518.575 261.313 518.328 260.968Z" fill="#161616"/>
<path fill-rule="evenodd" clip-rule="evenodd" d="M134.683 246.951C134.671 246.863 134.659 246.774 134.647 246.686C134.636 246.611 134.626 246.537 134.617 246.462C134.611 246.423 134.606 246.384 134.601 246.345L134.596 246.306L134.591 246.268C134.581 246.19 134.571 246.111 134.562 246.032L134.547 245.914C134.544 245.886 134.54 245.859 134.537 245.831C134.533 245.798 134.529 245.765 134.525 245.732L134.537 245.831L134.683 246.951ZM563.944 198.171L562.116 201.829H443.846L445.066 200.61L447.097 198.171H448.684L446.653 200.61H561.363L562.581 198.171H563.944Z" fill="#161616"/>
<path d="M357.018 271.584C353.165 270.135 349.671 268.013 346.733 265.346C345.283 264.029 343.983 262.593 342.848 261.059C345.253 256.899 346.993 252.012 347.854 246.686C349.966 259.754 357.371 270.175 366.906 273.706C363.509 273.485 360.17 272.77 357.018 271.584Z" fill="#161616"/>
<path d="M27.9686 246.341H91.2847C91.28 246.44 91.2748 246.539 91.269 246.638C91.2629 246.742 91.2561 246.847 91.2487 246.951H28.0046C27.9902 246.748 27.9782 246.545 27.9686 246.341Z" fill="#D10505"/>
<path d="M91.2847 246.341H27.9686C27.9782 246.545 27.9902 246.748 28.0046 246.951H26.783C26.7796 246.901 26.7764 246.851 26.7733 246.801C26.7637 246.648 26.7556 246.495 26.7487 246.341C26.7396 246.138 26.7327 245.935 26.7281 245.732H92.5252C92.5206 245.935 92.5137 246.138 92.5046 246.341C92.4955 246.545 92.484 246.748 92.4703 246.951H91.2487C91.2561 246.847 91.2629 246.742 91.269 246.638C91.2748 246.539 91.28 246.44 91.2847 246.341Z" fill="#D10505"/>
<path d="M26.7212 245.122H92.532C92.532 245.325 92.5298 245.529 92.5252 245.732H26.7281C26.7235 245.529 26.7212 245.325 26.7212 245.122Z" fill="#F00808"/>
<path fill-rule="evenodd" clip-rule="evenodd" d="M563.944 198.171H687.597H689.202H761V0H250.356V196.951V198.171H251.575H392.762H394.959H447.097H448.684H562.581H563.944ZM734.188 17.6829C736.544 17.6829 738.454 19.5939 738.454 21.9512V174.39C738.454 176.748 736.544 178.659 734.188 178.659C731.832 178.659 729.923 176.748 729.923 174.39V21.9512C729.923 19.5939 731.832 17.6829 734.188 17.6829ZM706.158 17.6829C708.513 17.6829 710.423 19.5939 710.423 21.9512V174.39C710.423 176.748 708.513 178.659 706.158 178.659C703.802 178.659 701.892 176.748 701.892 174.39V21.9512C701.892 19.5939 703.802 17.6829 706.158 17.6829ZM682.393 21.9512C682.393 19.5939 680.483 17.6829 678.127 17.6829C675.771 17.6829 673.862 19.5939 673.862 21.9512V174.39C673.862 176.748 675.771 178.659 678.127 178.659C680.483 178.659 682.393 176.748 682.393 174.39V21.9512ZM650.096 17.6829C652.452 17.6829 654.362 19.5939 654.362 21.9512V174.39C654.362 176.748 652.452 178.659 650.096 178.659C647.741 178.659 645.831 176.748 645.831 174.39V21.9512C645.831 19.5939 647.741 17.6829 650.096 17.6829ZM626.331 21.9512C626.331 19.5939 624.422 17.6829 622.066 17.6829C619.71 17.6829 617.8 19.5939 617.8 21.9512V174.39C617.8 176.748 619.71 178.659 622.066 178.659C624.422 178.659 626.331 176.748 626.331 174.39V21.9512ZM594.035 17.6829C596.391 17.6829 598.301 19.5939 598.301 21.9512V174.39C598.301 176.748 596.391 178.659 594.035 178.659C591.68 178.659 589.77 176.748 589.77 174.39V21.9512C589.77 19.5939 591.68 17.6829 594.035 17.6829ZM570.27 21.9512C570.27 19.5939 568.361 17.6829 566.005 17.6829C563.649 17.6829 561.739 19.5939 561.739 21.9512V174.39C561.739 176.748 563.649 178.659 566.005 178.659C568.361 178.659 570.27 176.748 570.27 174.39V21.9512ZM537.974 17.6829C540.33 17.6829 542.24 19.5939 542.24 21.9512V174.39C542.24 176.748 540.33 178.659 537.974 178.659C535.618 178.659 533.709 176.748 533.709 174.39V21.9512C533.709 19.5939 535.618 17.6829 537.974 17.6829ZM514.209 21.9512C514.209 19.5939 512.299 17.6829 509.944 17.6829C507.588 17.6829 505.678 19.5939 505.678 21.9512V174.39C505.678 176.748 507.588 178.659 509.944 178.659C512.299 178.659 514.209 176.748 514.209 174.39V21.9512ZM481.913 17.6829C484.269 17.6829 486.179 19.5939 486.179 21.9512V174.39C486.179 176.748 484.269 178.659 481.913 178.659C479.557 178.659 477.648 176.748 477.648 174.39V21.9512C477.648 19.5939 479.557 17.6829 481.913 17.6829ZM458.148 21.9512C458.148 19.5939 456.238 17.6829 453.883 17.6829C451.527 17.6829 449.617 19.5939 449.617 21.9512V174.39C449.617 176.748 451.527 178.659 453.883 178.659C456.238 178.659 458.148 176.748 458.148 174.39V21.9512ZM425.852 17.6829C428.208 17.6829 430.118 19.5939 430.118 21.9512V174.39C430.118 176.748 428.208 178.659 425.852 178.659C423.496 178.659 421.586 176.748 421.586 174.39V21.9512C421.586 19.5939 423.496 17.6829 425.852 17.6829ZM402.087 21.9512C402.087 19.5939 400.177 17.6829 397.821 17.6829C395.466 17.6829 393.556 19.5939 393.556 21.9512V174.39C393.556 176.748 395.466 178.659 397.821 178.659C400.177 178.659 402.087 176.748 402.087 174.39V21.9512ZM369.791 17.6829C372.147 17.6829 374.056 19.5939 374.056 21.9512V174.39C374.056 176.748 372.147 178.659 369.791 178.659C367.435 178.659 365.525 176.748 365.525 174.39V21.9512C365.525 19.5939 367.435 17.6829 369.791 17.6829ZM346.026 21.9512C346.026 19.5939 344.116 17.6829 341.76 17.6829C339.405 17.6829 337.495 19.5939 337.495 21.9512V174.39C337.495 176.748 339.405 178.659 341.76 178.659C344.116 178.659 346.026 176.748 346.026 174.39V21.9512ZM313.73 17.6829C316.086 17.6829 317.995 19.5939 317.995 21.9512V174.39C317.995 176.748 316.086 178.659 313.73 178.659C311.374 178.659 309.464 176.748 309.464 174.39V21.9512C309.464 19.5939 311.374 17.6829 313.73 17.6829ZM289.965 21.9512C289.965 19.5939 288.055 17.6829 285.699 17.6829C283.343 17.6829 281.434 19.5939 281.434 21.9512V174.39C281.434 176.748 283.343 178.659 285.699 178.659C288.055 178.659 289.965 176.748 289.965 174.39V21.9512Z" fill="#00548F"/>
<path d="M231.466 189.634V1.22422V0H232.685V196.951H250.356V198.171H231.466V190.854V189.634Z" fill="#023F6A"/>
<path fill-rule="evenodd" clip-rule="evenodd" d="M143.718 118.502V135.976C143.718 137.996 142.081 139.634 140.062 139.634H137.376H136.383H132.75C130.731 139.634 129.094 137.996 129.094 135.976V121.209V107.927C129.094 105.906 130.731 104.268 132.75 104.268H135.39H136.406H140.062C142.081 104.268 143.718 105.906 143.718 107.927V118.502Z" fill="#F00808"/>
<path d="M137.376 139.634C137.542 141.583 137.575 145.776 136.383 146.951H135.39C136.582 145.776 136.549 141.583 136.383 139.634H137.376Z" fill="#161616"/>
<path d="M133.901 99.3902C135.887 99.3902 136.398 102.642 136.406 104.268H135.39C135.39 102.68 134.894 99.4801 132.908 99.3902H133.901Z" fill="#161616"/>
<path d="M158.343 99.3902C161.708 99.3902 164.437 102.12 164.437 105.488V114.666L143.718 118.502V107.927C143.718 105.906 142.081 104.268 140.062 104.268H136.406C136.398 102.642 135.887 99.3902 133.901 99.3902H158.343Z" fill="#51696B"/>
<path d="M124.219 105.488C124.219 102.12 126.947 99.3902 130.312 99.3902H132.908C134.894 99.4801 135.39 102.68 135.39 104.268H132.75C130.731 104.268 129.094 105.906 129.094 107.927V121.209L124.219 122.112V105.488Z" fill="#51696B"/>
<path d="M164.437 140.854C164.437 144.221 161.708 146.951 158.343 146.951H136.383C137.575 145.776 137.542 141.583 137.376 139.634H140.062C142.081 139.634 143.718 137.996 143.718 135.976V118.502L164.437 114.666V140.854Z" fill="#365153"/>
<path d="M130.312 146.951C126.947 146.951 124.219 144.221 124.219 140.854V122.112L129.094 121.209V135.976C129.094 137.996 130.731 139.634 132.75 139.634H136.383C136.549 141.583 136.582 145.776 135.39 146.951H130.312Z" fill="#365153"/>
<path fill-rule="evenodd" clip-rule="evenodd" d="M96.1882 148.781H12.3872C12.5279 131.683 12.6501 112.342 12.6901 98.1707H99.235C101.38 98.1707 103.101 98.4369 104.271 99.409C105.472 100.408 105.938 102.013 105.938 104.268V141.463C105.938 145.607 101.717 148.781 96.1882 148.781ZM32.9954 144.966C29.6299 144.966 26.9018 142.236 26.9018 138.868V108.466C26.9018 105.099 29.6299 102.369 32.9954 102.369H50.9828L84.9941 103.38C79.1939 112.959 73.8225 122.112 68.3608 144.966H32.9954Z" fill="#365153"/>
<path d="M57.0538 102.369C60.4192 102.369 63.1474 105.099 63.1474 108.466V138.868C63.1474 142.236 60.4192 144.966 57.0538 144.966H39.0664C36.2859 131.083 45.8521 109.128 50.9828 102.369H57.0538Z" fill="#729091"/>
<path fill-rule="evenodd" clip-rule="evenodd" d="M39.0664 144.966H32.9954C29.6299 144.966 26.9018 142.236 26.9018 138.868V108.466C26.9018 105.099 29.6299 102.369 32.9954 102.369H50.9828C45.8521 109.128 36.2859 131.083 39.0664 144.966Z" fill="#51696B"/>
<path fill-rule="evenodd" clip-rule="evenodd" d="M26.9018 138.868C26.9018 142.236 29.6299 144.966 32.9954 144.966H68.3608C73.8225 122.112 79.1939 112.959 84.9941 103.38L50.9828 102.369H32.9954C29.6299 102.369 26.9018 105.099 26.9018 108.466V138.868ZM63.1474 108.466C63.1474 105.099 60.4192 102.369 57.0538 102.369H50.9828H32.9954C29.6299 102.369 26.9018 105.099 26.9018 108.466V138.868C26.9018 142.236 29.6299 144.966 32.9954 144.966H39.0664H57.0538C60.4192 144.966 63.1474 142.236 63.1474 138.868V108.466Z" fill="#51696B"/>
<path d="M99.3196 170.732H102.876L103.516 196.341H95.4807L99.3196 170.732Z" fill="#365153"/>
<path d="M13.3153 170.122H16.8741L21.3529 195.732H13.3153V170.122Z" fill="#365153"/>
<path d="M24.8931 214.024H87.6572V223.781H24.8931V214.024Z" fill="#365153"/>
<path d="M92.1053 232.927H105.938V240.854H89.2247L92.1053 232.927Z" fill="#365153"/>
<path d="M12.4012 232.927H24.1199L26.6405 240.854H12.4012V232.927Z" fill="#365153"/>
<path d="M89.4853 212.805H110.813V226.829H89.4853V212.805Z" fill="#DDF1FF"/>
<path d="M24.2838 226.829H11.6166L11.7666 212.805H24.2838V226.829Z" fill="#DDF1FF"/>
<path d="M178.452 90.8537H216.232V95.122H178.452V90.8537Z" fill="#9B0404"/>
<path d="M178.452 95.7317H216.232V98.7805H178.452V95.7317Z" fill="#9B0404"/>
<path d="M178.452 100H216.232V148.171H178.452V100Z" fill="#9B0404"/>
<path d="M178.452 152.439H216.232V181.098H178.452V152.439Z" fill="#9B0404"/>
<path d="M221.421 1.21951C210.27 3.61721 198.115 9.37681 187.542 16.9431C173.655 26.8819 162.34 40.0546 159.67 53.051L60.8124 53.8563C65.6393 39.7686 84.6243 9.47331 121.848 1.21951H221.421Z" fill="#9B0404"/>
<path fill-rule="evenodd" clip-rule="evenodd" d="M159.67 53.051C148.755 53.1469 137.716 56.3721 129.274 62.3843C120.691 68.4964 114.78 77.5035 114.469 89.0079L114.469 89.0168L112.641 235.358L112.641 235.366C112.641 235.485 112.641 235.603 112.641 235.72C112.64 235.894 112.64 236.066 112.639 236.236C112.634 238.11 112.629 239.723 112.872 241.049C113.161 242.629 113.812 243.884 115.237 244.797C115.816 245.168 116.513 245.476 117.348 245.732H92.5252C92.5298 245.529 92.532 245.325 92.532 245.122H26.7212C26.7212 245.325 26.7235 245.529 26.7281 245.732H16.3283L16.2947 245.735C15.502 245.824 14.298 245.661 13.3058 244.898C12.3414 244.156 11.4872 242.776 11.4872 240.244C11.4872 239.159 11.537 234.296 11.6166 226.829H24.2838V212.805H11.7666C11.9516 195.429 12.1946 171.982 12.3872 148.781H96.1882C101.717 148.781 105.938 145.607 105.938 141.463V104.268C105.938 102.013 105.472 100.408 104.271 99.409C103.101 98.4369 101.38 98.1707 99.235 98.1707H12.6901C12.6983 94.9651 12.7059 91.9062 12.7059 89.0244C12.7059 80.6624 16.2566 71.8683 23.9509 65.2175C31.6445 58.5674 43.5235 54.026 60.2272 54.2682L60.6691 54.2746L60.8124 53.8563L159.67 53.051ZM22.4933 170.732L22.457 171.303C22.3679 172.7 22.2653 174.358 22.1784 176.171C22.1319 177.14 22.0898 178.155 22.0567 179.197C21.9775 181.685 21.949 184.333 22.0316 186.92C22.0705 188.142 22.1343 189.35 22.2292 190.522C22.2991 191.385 22.3861 192.231 22.4933 193.051C22.7972 195.376 23.2631 197.488 23.9595 199.158C24.8951 201.402 26.3442 203.049 28.5493 203.049H84.001C86.7175 203.049 88.3752 200.725 89.3857 197.778C89.8661 196.377 90.2266 194.767 90.4939 193.051C90.7987 191.094 90.9822 189 91.0841 186.92C91.2155 184.238 91.2118 181.559 91.1503 179.197C91.1221 178.111 91.0817 177.092 91.0365 176.171C90.9648 174.706 90.8811 173.486 90.8153 172.631C90.8077 172.532 90.8003 172.437 90.7931 172.348L90.7822 172.212L90.7727 172.096C90.7577 171.914 90.7445 171.76 90.7336 171.637C90.7234 171.522 90.7154 171.434 90.7098 171.374L90.7034 171.306L90.7012 171.284L90.7012 171.282L90.6472 170.732H22.4933ZM16.8741 170.122H13.3153V195.732H21.3529L16.8741 170.122ZM102.876 170.732H99.3196L95.4807 196.341H103.516L102.876 170.732ZM110.813 212.805H89.4853V226.829H110.813V212.805ZM87.6572 214.024H24.8931V223.781H87.6572V214.024ZM105.938 232.927H92.1053L89.2247 240.854H105.938V232.927ZM24.1199 232.927H12.4012V240.854H26.6405L24.1199 232.927Z" fill="#F00808"/>
<path d="M22.1784 176.171H91.0365C91.0817 177.092 91.1221 178.111 91.1503 179.197H22.0567C22.0898 178.155 22.1319 177.14 22.1784 176.171Z" fill="#51696B"/>
<path d="M22.2292 190.522C22.1343 189.35 22.0705 188.142 22.0316 186.92H91.0841C90.9822 189 90.7987 191.094 90.4939 193.051H22.4933C22.3861 192.231 22.2991 191.385 22.2292 190.522Z" fill="#51696B"/>
<path d="M22.457 171.303L22.4933 170.732H90.6472L90.7012 171.282L90.7012 171.284L90.7034 171.306L90.7098 171.374C90.7154 171.434 90.7234 171.522 90.7336 171.637C90.7445 171.76 90.7577 171.914 90.7727 172.096L90.7822 172.212L90.7931 172.348C90.8003 172.437 90.8077 172.532 90.8153 172.631C90.8811 173.486 90.9648 174.706 91.0365 176.171H22.1784C22.2653 174.358 22.3679 172.7 22.457 171.303Z" fill="#365153"/>
<path d="M91.1503 179.197C91.2118 181.559 91.2155 184.238 91.0841 186.92H22.0316C21.949 184.333 21.9775 181.685 22.0567 179.197H91.1503Z" fill="#365153"/>
<path fill-rule="evenodd" clip-rule="evenodd" d="M29.226 256.556C27.8298 253.495 27.0057 250.249 26.783 246.951H28.0046C28.2254 250.073 29.0104 253.147 30.3347 256.049C31.9171 259.518 34.2403 262.678 37.1779 265.346C40.1158 268.013 43.6098 270.135 47.4631 271.584C51.3165 273.033 55.4499 273.781 59.6266 273.781C63.8033 273.781 67.9369 273.033 71.7902 271.584C75.6435 270.135 79.1375 268.013 82.0754 265.346C85.013 262.678 87.3361 259.518 88.9186 256.049C90.2429 253.147 91.0279 250.073 91.2487 246.951H92.4703C92.2475 250.249 91.4235 253.495 90.0273 256.556C88.3737 260.181 85.9498 263.474 82.8943 266.249C79.8387 269.023 76.2112 271.224 72.219 272.726C68.2267 274.227 63.9479 275 59.6266 275C55.3054 275 51.0266 274.227 47.0343 272.726C43.042 271.224 39.4146 269.023 36.359 266.249C33.3035 263.474 30.8796 260.181 29.226 256.556Z" fill="#161616"/>
<path d="M28.5493 203.049C26.3442 203.049 24.8951 201.402 23.9595 199.158C23.2631 197.488 22.7972 195.376 22.4933 193.051H90.4939C90.2266 194.767 89.8661 196.377 89.3857 197.778C88.3752 200.725 86.7175 203.049 84.001 203.049H28.5493Z" fill="#365153"/>
<path d="M144.025 204.513C143.783 204.841 143.546 205.172 143.314 205.505H126.333C118.509 205.505 118.509 198.895 118.509 190.741V105.107C118.509 94.3141 118.509 90.343 126.333 90.343H162.323C173.126 90.343 173.126 96.9532 173.126 105.107V189.634H172.133V105.107C172.133 103.057 172.132 101.165 171.968 99.4548C171.805 97.745 171.484 96.2935 170.889 95.1151C170.306 93.9609 169.445 93.0409 168.13 92.3941C166.792 91.7362 164.931 91.3357 162.323 91.3357H126.333C124.442 91.3357 123.151 91.5791 122.248 92.023C121.387 92.446 120.811 93.0848 120.403 94.0602C119.979 95.0764 119.742 96.4518 119.622 98.3111C119.502 100.162 119.502 102.398 119.502 105.107V190.741C119.502 194.887 119.516 198.371 120.419 200.84C120.857 202.034 121.481 202.922 122.368 203.524C123.259 204.129 124.515 204.513 126.333 204.513H144.025Z" fill="#9B0404"/>
<path fill-rule="evenodd" clip-rule="evenodd" d="M164.865 189.662L164.953 189.634H172.133V105.107C172.133 103.057 172.132 101.165 171.968 99.4548C171.805 97.745 171.484 96.2935 170.889 95.1151C170.306 93.9609 169.445 93.0409 168.13 92.3941C166.792 91.7362 164.931 91.3357 162.323 91.3357H126.333C124.442 91.3357 123.151 91.5791 122.248 92.023C121.387 92.446 120.811 93.0848 120.403 94.0602C119.979 95.0764 119.742 96.4518 119.622 98.3111C119.502 100.162 119.502 102.398 119.502 105.107V190.741C119.502 194.887 119.516 198.371 120.419 200.84C120.857 202.034 121.481 202.922 122.368 203.524C123.259 204.129 124.515 204.513 126.333 204.513H144.025C148.827 197.99 155.562 192.551 164.865 189.662ZM158.343 99.3902C161.708 99.3902 164.437 102.12 164.437 105.488V114.666V140.854C164.437 144.221 161.708 146.951 158.343 146.951H136.383H135.39H130.312C126.947 146.951 124.219 144.221 124.219 140.854V122.112V105.488C124.219 102.12 126.947 99.3902 130.312 99.3902H132.908H133.901H158.343ZM160.78 153.049C162.127 153.049 163.218 154.141 163.218 155.488V160.366C163.218 161.713 162.127 162.805 160.78 162.805H159.562C158.216 162.805 157.124 161.713 157.124 160.366V155.488C157.124 154.141 158.216 153.049 159.562 153.049H160.78Z" fill="#D10505"/>
<path fill-rule="evenodd" clip-rule="evenodd" d="M143.165 205.721C140.962 208.928 139.199 212.367 137.805 215.872C133.482 226.743 132.689 238.298 133.302 245.731C128.28 245.722 124.538 245.604 121.747 245.306C118.819 244.994 117.019 244.49 115.894 243.77C114.821 243.083 114.315 242.165 114.071 240.83C113.85 239.623 113.854 238.141 113.858 236.248V236.245C113.859 235.962 113.86 235.67 113.86 235.368V235.366L115.688 89.0409L115.688 89.0383C115.987 77.983 121.653 69.3081 129.98 63.3779C138.319 57.4395 149.312 54.2683 160.171 54.2683H160.676L160.77 53.7716C163.164 41.0741 174.284 27.931 188.251 17.935C201.995 8.0991 218.335 1.42598 231.466 1.22422V189.634H173.126V105.107C173.126 96.9532 173.126 90.343 162.323 90.343H126.333C118.509 90.343 118.509 94.3141 118.509 105.107V190.741C118.509 198.895 118.509 205.505 126.333 205.505H143.314L143.311 205.51C143.262 205.58 143.214 205.651 143.165 205.721ZM216.232 90.8537H178.452V95.122H216.232V90.8537ZM216.232 95.7317H178.452V98.7805H216.232V95.7317ZM216.232 100H178.452V148.171H216.232V100ZM216.232 152.439H178.452V181.098H216.232V152.439Z" fill="#D10505"/>
<path d="M143.679 246.951L143.717 246.382C144.809 229.874 149.065 218.476 154.767 211.312C160.459 204.161 167.602 201.207 174.581 201.569C188.56 202.295 202.217 216.399 202.217 237.805V238.415H291.783L291.793 237.815C292.033 223.618 300.16 209.656 310.929 203.767C316.296 200.832 322.301 199.908 328.335 201.924C334.377 203.942 340.53 208.938 346.117 218.003L346.622 218.823L347.146 218.015C353.035 208.95 359.406 204.033 365.585 202.087C371.755 200.143 377.811 201.136 383.133 204.041C393.819 209.874 401.467 223.373 400.869 235.946L400.839 236.585H400.808C399.873 217.854 388.253 203.049 374.056 203.049C361.208 203.049 350.471 215.175 347.854 231.363C345.237 215.175 334.5 203.049 321.651 203.049C306.844 203.049 294.84 219.156 294.84 239.024C294.84 241.532 295.031 243.979 295.395 246.341C297.446 259.661 304.985 270.289 314.699 273.779C314.579 273.78 314.459 273.781 314.339 273.781C310.162 273.781 306.029 273.033 302.176 271.584C298.322 270.135 294.828 268.013 291.89 265.346C290.29 263.893 288.872 262.294 287.657 260.578C286.287 262.636 284.646 264.541 282.764 266.249C279.709 269.023 276.081 271.224 272.089 272.726C268.097 274.227 263.818 275 259.497 275C255.176 275 250.897 274.227 246.904 272.726C242.912 271.224 239.285 269.023 236.229 266.249C235.407 265.503 234.631 264.719 233.904 263.902C233.176 264.719 232.4 265.503 231.578 266.249C228.523 269.023 224.895 271.224 220.903 272.726C216.911 274.227 212.632 275 208.31 275C203.989 275 199.71 274.227 195.718 272.726C192.159 271.387 191.181 271.153 188.846 269.152C189.146 268.888 189.442 268.617 189.734 268.337C195.138 263.167 199.052 255.373 200.443 246.341C200.505 245.937 200.563 245.531 200.615 245.122C200.867 243.14 200.998 241.103 200.998 239.024C200.998 219.156 188.994 203.049 174.186 203.049C159.379 203.049 147.375 219.156 147.375 239.024C147.375 241.837 147.615 244.575 148.07 247.202L143.679 246.951Z" fill="#161616"/>
<path d="M88.9186 256.049C87.3361 259.518 85.013 262.678 82.0754 265.346C79.1375 268.013 75.6435 270.135 71.7902 271.584C67.9369 273.033 63.8033 273.781 59.6266 273.781C55.4499 273.781 51.3165 273.033 47.4631 271.584C43.6098 270.135 40.1158 268.013 37.1779 265.346C34.2403 262.678 31.9171 259.518 30.3347 256.049C29.0104 253.147 28.2254 250.073 28.0046 246.951H91.2487C91.0279 250.073 90.2429 253.147 88.9186 256.049Z" fill="#161616"/>
<path d="M525.064 250.91C526.615 246.551 527.472 241.904 527.599 237.195H573.943C574.026 240.288 574.425 243.355 575.128 246.331C574.784 247.745 574.368 249.138 573.883 250.501C572.247 255.101 569.852 259.271 566.842 262.775C563.833 266.279 560.271 269.047 556.364 270.931C552.459 272.815 548.281 273.781 544.068 273.781C539.855 273.781 535.677 272.815 531.771 270.931C527.865 269.047 524.303 266.279 521.294 262.775C520.792 262.191 520.307 261.588 519.84 260.968C522.004 257.947 523.767 254.557 525.064 250.91Z" fill="#161616"/>
<path d="M3.65613 139.634C1.6369 139.634 0 137.996 0 135.976V107.927C0 105.906 1.6369 104.268 3.65613 104.268H6.29675H7.31232H11.4552L11.2418 139.626L11.2417 139.634H8.28278H7.28979H5.4729H3.65613Z" fill="#F00808"/>
<path fill-rule="evenodd" clip-rule="evenodd" d="M121.65 0.0143387L121.715 0H231.466V1.22422C218.335 1.42598 201.995 8.0991 188.251 17.935C174.284 27.931 163.164 41.0741 160.77 53.7716L160.676 54.2683H160.171C149.312 54.2683 138.319 57.4395 129.98 63.3779C121.653 69.3081 115.987 77.983 115.688 89.0383L115.688 89.0409L113.86 235.366V235.368C113.86 235.67 113.859 235.962 113.858 236.245V236.248C113.854 238.141 113.85 239.623 114.071 240.83C114.315 242.165 114.821 243.083 115.894 243.77C117.019 244.49 118.819 244.994 121.747 245.306C124.538 245.604 128.28 245.722 133.302 245.731C132.689 238.298 133.482 226.743 137.805 215.872C139.199 212.367 140.962 208.928 143.165 205.721C143.214 205.651 143.262 205.58 143.311 205.51L143.314 205.505C143.546 205.172 143.783 204.841 144.025 204.513C148.827 197.99 155.562 192.551 164.865 189.662L164.953 189.634H172.133H173.126H231.466V190.854H165.139C151.279 195.19 143.294 205.368 138.937 216.323C134.676 227.041 133.909 238.459 134.525 245.732L134.537 245.831L134.547 245.914L134.562 246.032C134.571 246.111 134.581 246.19 134.591 246.268L134.596 246.306L134.601 246.345L134.617 246.462C134.626 246.537 134.636 246.611 134.647 246.686C134.659 246.774 134.671 246.863 134.683 246.951H92.4703C92.484 246.748 92.4955 246.545 92.5046 246.341C92.5137 246.138 92.5206 245.935 92.5252 245.732H117.348C116.513 245.476 115.816 245.168 115.237 244.797C113.812 243.884 113.161 242.629 112.872 241.049C112.629 239.723 112.634 238.11 112.639 236.236C112.64 236.066 112.64 235.894 112.641 235.72C112.641 235.603 112.641 235.485 112.641 235.366L112.641 235.358L114.469 89.0168L114.469 89.0079C114.78 77.5035 120.691 68.4964 129.274 62.3843C137.716 56.3721 148.755 53.1469 159.67 53.051C162.34 40.0546 173.655 26.8819 187.542 16.9431C198.115 9.37681 210.27 3.61721 221.421 1.21951H121.848C84.6243 9.47331 65.6393 39.7686 60.8124 53.8563L60.6691 54.2746L60.2272 54.2682C43.5235 54.026 31.6445 58.5674 23.9509 65.2175C16.2566 71.8683 12.7059 80.6624 12.7059 89.0244C12.7059 91.9062 12.6983 94.9651 12.6901 98.1707C12.6501 112.342 12.5279 131.683 12.3872 148.781C12.1946 171.982 11.9516 195.429 11.7666 212.805L11.6166 226.829C11.537 234.296 11.4872 239.159 11.4872 240.244C11.4872 242.776 12.3414 244.156 13.3058 244.898C14.298 245.661 15.502 245.824 16.2947 245.735L16.3283 245.732H26.7281C26.7327 245.935 26.7396 246.138 26.7487 246.341C26.7556 246.495 26.7637 246.648 26.7733 246.801C26.7764 246.851 26.7796 246.901 26.783 246.951H16.3947C15.3599 247.058 13.8416 246.848 12.563 245.865C11.2424 244.848 10.2685 243.078 10.2685 240.244C10.2685 240.077 10.2697 239.822 10.272 239.483C10.2878 237.121 10.3567 230.674 10.4541 221.564L10.4547 221.518V221.511L10.4561 221.377L10.4592 221.094L10.4594 221.084C10.6505 203.245 10.9478 175.489 11.1735 148.166C11.1783 147.589 11.183 147.012 11.1877 146.435C11.1917 145.945 11.1957 145.455 11.1996 144.966C11.214 143.184 11.2281 141.406 11.2417 139.634L11.2418 139.626C11.3541 125.038 11.4404 110.887 11.4731 98.7788C11.4767 97.4299 11.4797 96.1064 11.4819 94.8105C11.4824 94.5332 11.4828 94.2572 11.4832 93.9824C11.4858 92.2786 11.4872 90.6241 11.4872 89.0244C11.4872 80.3132 15.188 71.1805 23.1542 64.2947C31.052 57.468 43.1005 52.8834 59.8049 53.0435C64.9504 38.5144 84.2054 8.28668 121.65 0.0143387Z" fill="#D10505"/>
<path d="M7.28979 139.634L7.31232 143.457C7.28943 145.442 9.27545 144.946 11.1996 144.966L11.1877 146.435C9.14258 146.435 5.4729 146.124 5.4729 143.457V139.634H7.28979Z" fill="#161616"/>
<path d="M7.31232 104.268H6.29675L6.29639 97.2924C6.29639 95.704 7.91071 93.9824 11.4832 93.9824L11.4819 94.8105C9.67212 94.8105 7.28979 95.8033 7.28979 97.2924L7.31232 104.268Z" fill="#161616"/>
</svg>
