<svg width="511" height="283" viewBox="0 0 511 283" fill="none" xmlns="http://www.w3.org/2000/svg">
<path d="M435.853 266.422C435.853 275.36 443.099 282.606 452.037 282.606C460.975 282.606 468.221 275.36 468.221 266.422C468.221 257.484 460.975 250.238 452.037 250.238C443.099 250.238 435.853 257.484 435.853 266.422Z" fill="#3E3E3E"/>
<path d="M439.899 266.422C439.899 273.125 445.334 278.56 452.037 278.56C458.741 278.56 464.175 273.125 464.175 266.422C464.175 259.718 458.741 254.284 452.037 254.284C445.334 254.284 439.899 259.718 439.899 266.422Z" fill="#DDF1FF"/>
<path d="M447.182 266.422C447.182 269.103 449.356 271.277 452.037 271.277C454.719 271.277 456.892 269.103 456.892 266.422C456.892 263.74 454.719 261.566 452.037 261.566C449.356 261.566 447.182 263.74 447.182 266.422Z" fill="#3E3E3E"/>
<path d="M392.282 266.422C392.282 275.36 399.527 282.606 408.465 282.606C417.403 282.606 424.649 275.36 424.649 266.422C424.649 257.484 417.403 250.238 408.465 250.238C399.527 250.238 392.282 257.484 392.282 266.422Z" fill="#3E3E3E"/>
<path d="M396.328 266.422C396.328 273.125 401.762 278.56 408.465 278.56C415.169 278.56 420.603 273.125 420.603 266.422C420.603 259.718 415.169 254.284 408.465 254.284C401.762 254.284 396.328 259.718 396.328 266.422Z" fill="#DDF1FF"/>
<path d="M403.61 266.422C403.61 269.103 405.784 271.277 408.465 271.277C411.147 271.277 413.321 269.103 413.321 266.422C413.321 263.74 411.147 261.566 408.465 261.566C405.784 261.566 403.61 263.74 403.61 266.422Z" fill="#3E3E3E"/>
<path d="M348.71 266.422C348.71 275.36 355.955 282.606 364.893 282.606C373.832 282.606 381.077 275.36 381.077 266.422C381.077 257.484 373.832 250.238 364.893 250.238C355.955 250.238 348.71 257.484 348.71 266.422Z" fill="#3E3E3E"/>
<path d="M352.756 266.422C352.756 273.125 358.19 278.56 364.893 278.56C371.597 278.56 377.031 273.125 377.031 266.422C377.031 259.718 371.597 254.284 364.893 254.284C358.19 254.284 352.756 259.718 352.756 266.422Z" fill="#DDF1FF"/>
<path d="M360.038 266.422C360.038 269.103 362.212 271.277 364.893 271.277C367.575 271.277 369.749 269.103 369.749 266.422C369.749 263.74 367.575 261.566 364.893 261.566C362.212 261.566 360.038 263.74 360.038 266.422Z" fill="#3E3E3E"/>
<path d="M124.625 266.422C124.625 275.36 131.871 282.606 140.809 282.606C149.747 282.606 156.993 275.36 156.993 266.422C156.993 257.484 149.747 250.238 140.809 250.238C131.871 250.238 124.625 257.484 124.625 266.422Z" fill="#3E3E3E"/>
<path d="M128.671 266.422C128.671 273.125 134.106 278.56 140.809 278.56C147.513 278.56 152.947 273.125 152.947 266.422C152.947 259.718 147.513 254.284 140.809 254.284C134.106 254.284 128.671 259.718 128.671 266.422Z" fill="#DDF1FF"/>
<path d="M135.954 266.422C135.954 269.103 138.128 271.277 140.809 271.277C143.491 271.277 145.664 269.103 145.664 266.422C145.664 263.74 143.491 261.566 140.809 261.566C138.128 261.566 135.954 263.74 135.954 266.422Z" fill="#3E3E3E"/>
<path d="M81.0535 266.422C81.0535 275.36 88.2993 282.606 97.2374 282.606C106.175 282.606 113.421 275.36 113.421 266.422C113.421 257.484 106.175 250.238 97.2374 250.238C88.2993 250.238 81.0535 257.484 81.0535 266.422Z" fill="#3E3E3E"/>
<path d="M85.0995 266.422C85.0995 273.125 90.5338 278.56 97.2374 278.56C103.941 278.56 109.375 273.125 109.375 266.422C109.375 259.718 103.941 254.284 97.2374 254.284C90.5338 254.284 85.0995 259.718 85.0995 266.422Z" fill="#DDF1FF"/>
<path d="M92.3822 266.422C92.3822 269.103 94.5559 271.277 97.2374 271.277C99.9188 271.277 102.093 269.103 102.093 266.422C102.093 263.74 99.9188 261.566 97.2374 261.566C94.5559 261.566 92.3822 263.74 92.3822 266.422Z" fill="#3E3E3E"/>
<path d="M37.4816 266.422C37.4816 275.36 44.7273 282.606 53.6654 282.606C62.6035 282.606 69.8493 275.36 69.8493 266.422C69.8493 257.484 62.6035 250.238 53.6654 250.238C44.7273 250.238 37.4816 257.484 37.4816 266.422Z" fill="#3E3E3E"/>
<path d="M41.5275 266.422C41.5275 273.125 46.9619 278.56 53.6654 278.56C60.369 278.56 65.8033 273.125 65.8033 266.422C65.8033 259.718 60.369 254.284 53.6654 254.284C46.9619 254.284 41.5275 259.718 41.5275 266.422Z" fill="#DDF1FF"/>
<path d="M48.8103 266.422C48.8103 269.103 50.984 271.277 53.6654 271.277C56.3469 271.277 58.5206 269.103 58.5206 266.422C58.5206 263.74 56.3469 261.566 53.6654 261.566C50.984 261.566 48.8103 263.74 48.8103 266.422Z" fill="#3E3E3E"/>
<path fill-rule="evenodd" clip-rule="evenodd" d="M43.7062 189.858V54.1629H462.619V189.858H43.7062ZM407.379 78.4462C407.434 78.6573 407.502 78.8629 407.583 79.0622C407.804 79.6083 408.119 80.1063 408.508 80.536C409.008 81.0885 409.631 81.5282 410.333 81.8125C410.573 81.9096 410.822 81.9886 411.079 82.0477C411.439 82.1306 411.815 82.1744 412.2 82.1744H421.537H427.139H438.343C440.045 82.1744 441.548 81.3208 442.446 80.0184C442.999 79.216 443.323 78.2432 443.323 77.1948V70.9702C443.323 69.7927 442.914 68.7106 442.231 67.8581C442.1 67.6945 441.959 67.5393 441.808 67.3936C441.271 66.8735 440.618 66.4731 439.891 66.2356C439.404 66.0766 438.884 65.9906 438.343 65.9906H432.741H412.2C410.333 65.9906 407.221 69.103 407.221 70.9702V77.1948C407.221 77.627 407.276 78.0464 407.379 78.4462ZM352.605 78.4556C352.66 78.6634 352.727 78.8659 352.806 79.0622C353.393 80.5117 354.643 81.6221 356.179 82.0176C356.494 82.0985 356.82 82.1495 357.156 82.1673C357.245 82.172 357.334 82.1744 357.424 82.1744H366.622H367.383H374.23H383.567C383.581 82.1744 383.594 82.1744 383.608 82.1743C386.333 82.15 387.928 79.6725 388.547 77.1948V72.8377V70.9702C388.547 70.7694 388.535 70.5714 388.512 70.3768C388.486 70.1548 388.445 69.9374 388.39 69.7254C388.049 68.3999 387.176 67.288 386.012 66.6308C385.29 66.2232 384.456 65.9906 383.567 65.9906H374.23H357.424C357.335 66.0351 357.233 66.0847 357.121 66.1393C355.664 66.8488 352.444 68.4167 352.444 70.9702V77.1948C352.444 77.6304 352.5 78.0529 352.605 78.4556ZM137.075 74.705C137.075 71.9548 134.845 69.7253 132.095 69.7253H120.268H116.845H113.421C110.671 69.7253 108.442 71.9548 108.442 74.705V79.0622V90.8888V123.257C108.442 126.007 110.671 128.236 113.421 128.236H128.983H132.095C133.273 128.236 134.355 127.827 135.207 127.144C135.374 127.01 135.532 126.866 135.68 126.713C136.543 125.817 137.075 124.599 137.075 123.257V104.583V98.9808V74.705ZM93.5027 128.236C96.2529 128.236 98.4823 126.007 98.4823 123.257V108.318V98.9808V74.705C98.4823 71.9548 96.2529 69.7253 93.5027 69.7253H84.1658H77.3188H74.829C72.0788 69.7253 69.8494 71.9548 69.8494 74.705V87.7766V123.257C69.8494 126.007 72.0788 128.236 74.829 128.236H93.5027ZM161.581 84.6643C159.047 84.6643 156.993 82.1561 156.993 79.0622C156.993 75.9682 159.047 73.4601 161.581 73.4601L325.448 73.4601C327.982 73.4601 330.036 75.9682 330.036 79.0622C330.036 82.1561 327.982 84.6643 325.448 84.6643H161.581ZM161.581 102.093C159.047 102.093 156.993 99.5849 156.993 96.491C156.993 93.397 159.047 90.8888 161.581 90.8888H325.448C327.982 90.8888 330.036 93.397 330.036 96.491C330.036 99.5849 327.982 102.093 325.448 102.093H161.581ZM161.581 119.522C159.047 119.522 156.993 117.014 156.993 113.92C156.993 110.826 159.047 108.318 161.581 108.318H325.448C327.982 108.318 330.036 110.826 330.036 113.92C330.036 117.014 327.982 119.522 325.448 119.522H161.581Z" fill="#00548F"/>
<path d="M478.803 241.522L486.895 266.42H480.67L476.313 259.573H339.995L336.261 266.42H330.036L336.261 241.522H478.803Z" fill="#161616"/>
<path d="M168.82 241.522L175.044 266.42H168.82L164.463 259.573H28.1448L23.7876 266.42H17.563L23.7876 241.522H168.82Z" fill="#161616"/>
<path d="M501.211 199.549C502.727 198.684 503.107 198.126 503.871 196.706C505.064 194.588 505.517 191.963 505.579 189.858C505.591 189.417 505.587 188.999 505.569 188.613H510.548V222.226H505.569C505.569 220.105 505.286 218.341 504.812 216.881C504.329 215.188 503.59 213.886 502.476 212.89C502.049 212.455 501.599 212.088 501.137 211.78C499.649 210.664 498.528 210.303 497.087 210.399C496.783 210.381 496.496 210.382 496.232 210.399V200.44C498.147 200.679 499.324 200.492 500.588 199.879C500.805 199.779 501.012 199.669 501.211 199.549Z" fill="#161616"/>
<path d="M468.844 210.399V189.858H496.232V200.44V210.399V241.522H478.803H336.261H168.82H23.7876H12.5834V232.185V222.849V189.858H39.9715V210.399H468.844Z" fill="#3E3E3E"/>
<path d="M468.844 189.858V210.399H39.9715V189.858H43.7062H462.619H468.844Z" fill="#D10505"/>
<path d="M38.1041 54.1629V43.5811H57.4002H186.871H304.515H433.986H470.711V54.1629H462.619H43.7062H38.1041Z" fill="#3E3E3E"/>
<path fill-rule="evenodd" clip-rule="evenodd" d="M333.675 4.36639C333.446 4.75776 333.268 5.17305 333.148 5.61131C333.148 5.10913 333.507 4.48241 333.994 3.88185M333.675 4.36639C333.773 4.20056 333.879 4.03902 333.994 3.88185L333.675 4.36639ZM340.864 0.241489C338.915 0.579716 337.083 1.26688 335.676 2.26281C335.898 2.09533 336.099 1.96276 336.261 1.8777C337.518 1.0392 339.236 0.515901 340.864 0.241489Z" fill="#00548F"/>
<path d="M305.225 35.8033C305.258 35.6985 305.293 35.5937 305.328 35.4903C305.763 34.2506 306.853 32.5308 307.628 31.8297C307.701 31.7668 307.777 31.7057 307.853 31.6465C308.678 31.0405 310.172 30.5096 311.362 30.5096H322.567H363.649H427.139C427.807 30.5102 429.485 31.1549 431.028 32.3684C432.393 33.4827 433.619 35.0155 433.986 36.7351V43.5811H304.515C304.385 41.6259 304.51 38.1181 305.225 35.8033Z" fill="#00548F"/>
<path d="M57.2037 40.7891C57.1976 39.2856 57.3481 37.6389 57.7631 36.1128C58.1213 35.0503 58.8556 33.3957 59.5664 32.5206C59.6701 32.4023 59.778 32.2881 59.89 32.1783C61.135 31.0952 62.7874 30.5096 64.2473 30.5096H180.647C181.606 30.8934 183.223 32.0335 184.569 34.2337C185.786 36.2325 186.768 39.0801 186.864 42.9587C186.869 43.1633 186.871 43.3708 186.871 43.5811H57.4002C57.3076 42.7785 57.224 41.8094 57.2037 40.7891Z" fill="#00548F"/>
<path d="M156.993 79.0622C156.993 82.1561 159.047 84.6643 161.581 84.6643H325.448C327.982 84.6643 330.036 82.1561 330.036 79.0622C330.036 75.9682 327.982 73.4601 325.448 73.4601L161.581 73.4601C159.047 73.4601 156.993 75.9682 156.993 79.0622Z" fill="#023F6A"/>
<path d="M156.993 113.92C156.993 117.014 159.047 119.522 161.581 119.522H325.448C327.982 119.522 330.036 117.014 330.036 113.92C330.036 110.826 327.982 108.318 325.448 108.318H161.581C159.047 108.318 156.993 110.826 156.993 113.92Z" fill="#023F6A"/>
<path d="M156.993 96.491C156.993 99.5849 159.047 102.093 161.581 102.093H325.448C327.982 102.093 330.036 99.5849 330.036 96.491C330.036 93.397 327.982 90.8888 325.448 90.8888H161.581C159.047 90.8888 156.993 93.397 156.993 96.491Z" fill="#023F6A"/>
<path d="M113.421 128.236C110.671 128.236 108.442 126.007 108.442 123.257V90.8888L128.983 128.236H113.421Z" fill="#365153"/>
<path d="M137.075 123.257C137.075 124.599 136.543 125.817 135.68 126.713C135.532 126.866 135.374 127.01 135.207 127.144L108.442 79.0622V74.705C108.442 71.9548 110.671 69.7253 113.421 69.7253H116.845L137.075 104.583V123.257Z" fill="#365153"/>
<path d="M132.095 69.7253C134.845 69.7253 137.075 71.9548 137.075 74.705V98.9808L120.268 69.7253H132.095Z" fill="#365153"/>
<path d="M120.268 69.7253L137.075 98.9808V104.583L116.845 69.7253H120.268Z" fill="#51696B"/>
<path d="M135.207 127.144C134.355 127.827 133.273 128.236 132.095 128.236H128.983L108.442 90.8888V79.0622L135.207 127.144Z" fill="#51696B"/>
<path fill-rule="evenodd" clip-rule="evenodd" d="M496.232 200.44C498.147 200.679 499.324 200.492 500.588 199.879C499.409 200.423 497.973 200.658 496.232 200.44ZM501.211 199.549C500.999 199.67 500.793 199.78 500.588 199.879C500.805 199.779 501.012 199.669 501.211 199.549ZM503.871 196.706C503.107 198.126 502.727 198.684 501.211 199.549C502.354 198.861 503.222 197.859 503.871 196.706ZM503.871 196.706C505.116 194.391 505.509 190.805 505.569 188.613C505.587 188.999 505.591 189.417 505.579 189.858C505.517 191.963 505.064 194.588 503.871 196.706ZM504.812 216.881C505.231 218.35 505.457 220.113 505.569 222.226C505.569 220.105 505.286 218.341 504.812 216.881ZM502.476 212.89C503.423 213.857 504.252 215.158 504.812 216.881C504.329 215.188 503.59 213.886 502.476 212.89ZM501.137 211.78C501.55 212.09 501.992 212.458 502.476 212.89C502.049 212.455 501.599 212.088 501.137 211.78ZM497.087 210.399C497.214 210.407 497.344 210.419 497.477 210.434C498.601 210.562 499.907 210.959 501.137 211.78C499.649 210.664 498.528 210.303 497.087 210.399ZM497.087 210.399C496.783 210.381 496.496 210.382 496.232 210.399H497.087ZM7.55545 234.639C8.63156 233.3 10.1476 232.359 12.5834 232.185C12.1448 232.217 11.7303 232.278 11.3385 232.366C9.71313 232.73 8.48013 233.557 7.55545 234.639ZM7.55545 234.639C6.77856 235.549 6.21939 236.639 5.82785 237.789C6.30148 236.633 6.82791 235.545 7.55545 234.639ZM7.5054 220.341C5.7059 218.562 4.70398 217.912 4.49146 213.512C4.49146 218.396 5.83868 218.694 7.5054 220.341ZM10.9229 222.418C9.90289 222.183 9.22784 222.027 7.53616 220.371C8.77081 221.578 10.1765 222.165 11.3385 222.516L12.4701 222.82C12.1365 222.737 11.753 222.642 11.3385 222.516C11.1932 222.48 11.0565 222.449 10.9256 222.418L10.9229 222.418ZM57.2037 40.7891C57.2058 41.3272 57.2281 41.8469 57.2654 42.3362C57.2992 42.7791 57.3454 43.197 57.4002 43.5811C57.3076 42.7785 57.224 41.8094 57.2037 40.7891ZM57.7631 36.1128C57.2918 37.5105 57.1721 39.2112 57.2037 40.7891C57.1976 39.2856 57.3481 37.6389 57.7631 36.1128ZM59.5664 32.5206C58.7071 33.5008 58.1311 34.7593 57.7631 36.1128C58.1213 35.0503 58.8556 33.3957 59.5664 32.5206ZM59.89 32.1783C59.7837 32.2708 59.6753 32.3866 59.5664 32.5206C59.6701 32.4023 59.778 32.2881 59.89 32.1783ZM64.2473 30.5096C62.7874 30.5096 61.135 31.0952 59.89 32.1783C60.9359 31.1532 62.3524 30.5096 64.2473 30.5096ZM180.647 30.5096C181.692 30.9279 183.265 32.0949 184.569 34.2337C183.223 32.0335 181.606 30.8934 180.647 30.5096ZM184.569 34.2337C185.841 36.3151 186.871 39.3453 186.871 43.5811C186.871 43.3708 186.869 43.1633 186.864 42.9587C186.768 39.0801 185.786 36.2325 184.569 34.2337ZM304.437 42.3362C304.452 42.7791 304.479 43.197 304.515 43.5811C304.385 41.6259 304.51 38.1181 305.225 35.8033C304.547 37.9543 304.372 40.3866 304.437 42.3362ZM305.328 35.4903C305.293 35.5919 305.258 35.6964 305.225 35.8033C305.258 35.6985 305.293 35.5937 305.328 35.4903ZM307.628 31.8297C306.565 32.7382 305.826 34.04 305.328 35.4903C305.763 34.2506 306.853 32.5308 307.628 31.8297ZM307.853 31.6465C307.771 31.707 307.696 31.7682 307.628 31.8297C307.701 31.7668 307.777 31.7057 307.853 31.6465ZM307.853 31.6465C308.678 31.0405 310.172 30.5096 311.362 30.5096C309.931 30.5096 308.777 30.9356 307.853 31.6465ZM427.139 30.5096C428.054 30.5104 429.615 31.2155 431.028 32.3684C429.485 31.1549 427.807 30.5102 427.139 30.5096ZM433.986 36.7351C433.591 34.8879 432.36 33.4161 431.028 32.3684C432.393 33.4827 433.619 35.0155 433.986 36.7351ZM412.2 65.9906C409.794 65.9906 407.221 68.5638 407.221 70.9702C407.221 69.103 410.333 65.9906 412.2 65.9906ZM408.392 80.4034C407.221 79.0623 407.221 77.4935 407.221 77.1948C407.221 77.627 407.276 78.0464 407.379 78.4462C407.434 78.6573 407.502 78.8629 407.583 79.0622C407.781 79.553 408.056 80.005 408.392 80.4034ZM427.139 82.1744H421.537L441.808 67.3936C441.316 66.9432 440.686 66.4997 439.891 66.2356C439.404 66.0766 438.884 65.9906 438.343 65.9906C438.918 65.9906 439.432 66.0833 439.891 66.2356C440.618 66.4731 441.271 66.8735 441.808 67.3936C441.959 67.5393 442.1 67.6945 442.231 67.8581C442.914 68.7106 443.323 69.7927 443.323 70.9702L427.139 82.1744ZM438.343 82.1744C440.045 82.1744 441.548 81.3208 442.446 80.0184C441.606 81.2633 440.195 82.1744 438.343 82.1744ZM442.446 80.0184C442.999 79.216 443.323 78.2432 443.323 77.1948C443.323 78.1693 443.017 79.1712 442.446 80.0184ZM357.424 65.9906C355.018 65.9906 352.444 68.5638 352.444 70.9702C352.444 68.4167 355.664 66.8488 357.121 66.1393C357.233 66.0847 357.335 66.0351 357.424 65.9906ZM352.806 79.0622L374.23 65.9906H383.567C384.512 65.9906 385.328 66.2372 386.012 66.6308C387.052 67.2179 387.86 68.168 388.263 69.3092C388.311 69.4453 388.354 69.5842 388.39 69.7254C388.445 69.9374 388.486 70.1548 388.512 70.3768C388.535 70.5714 388.547 70.7694 388.547 70.9702V72.8377L374.23 82.1744L366.761 82.1745L388.263 69.3092C387.89 68.3135 387.13 67.2752 386.012 66.6308C385.29 66.2232 384.456 65.9906 383.567 65.9906L357.156 82.1673L366.622 82.1744H357.424C357.334 82.1744 357.245 82.172 357.156 82.1673C356.82 82.1495 356.494 82.0985 356.179 82.0176C354.643 81.6221 353.393 80.5117 352.806 79.0622ZM352.806 79.0622C352.727 78.8659 352.66 78.6634 352.605 78.4556C352.5 78.0529 352.444 77.6304 352.444 77.1948C352.444 77.4554 352.647 78.3549 352.754 78.8283C352.777 78.9289 352.795 79.0103 352.806 79.0622ZM383.608 82.1743C386.333 82.15 387.928 79.6725 388.547 77.1948C388.547 79.5896 386.382 82.1496 383.608 82.1743ZM98.4823 123.257C98.4823 126.007 96.2529 128.236 93.5027 128.236L69.8494 87.7766V74.705L98.4823 123.257ZM98.4823 108.318L77.3188 69.7253H84.1658L98.4823 98.9808V108.318Z" fill="#51696B"/>
<path d="M74.829 128.236C72.0788 128.236 69.8494 126.007 69.8494 123.257V87.7766L93.5027 128.236H74.829Z" fill="#365153"/>
<path d="M69.8494 74.705C69.8494 71.9548 72.0788 69.7253 74.829 69.7253H77.3188L98.4823 108.318V123.257L69.8494 74.705Z" fill="#365153"/>
<path d="M93.5027 69.7253C96.2529 69.7253 98.4823 71.9548 98.4823 74.705V98.9808L84.1658 69.7253H93.5027Z" fill="#365153"/>
<path d="M408.392 80.4034L427.139 65.9906H432.741L411.079 82.0477C410.822 81.9886 410.573 81.9096 410.333 81.8125C409.631 81.5282 409.008 81.0885 408.508 80.536C408.469 80.4925 408.43 80.4483 408.392 80.4034Z" fill="#51696B"/>
<path d="M412.2 82.1744C411.815 82.1744 411.439 82.1306 411.079 82.0477L432.741 65.9906H438.343C438.884 65.9906 439.404 66.0766 439.891 66.2356C440.686 66.4997 441.316 66.9432 441.808 67.3936L421.537 82.1744H412.2Z" fill="#365153"/>
<path d="M407.221 77.1948V70.9702C407.221 69.103 410.333 65.9906 412.2 65.9906H427.139L408.392 80.4034C408.056 80.005 407.781 79.553 407.583 79.0622C407.502 78.8629 407.434 78.6573 407.379 78.4462C407.276 78.0464 407.221 77.627 407.221 77.1948Z" fill="#365153"/>
<path d="M427.139 82.1744L443.323 70.9702V77.1948C443.323 78.1693 443.017 79.1712 442.446 80.0184C441.548 81.3208 440.045 82.1744 438.343 82.1744H427.139Z" fill="#365153"/>
<path d="M374.23 82.1744L388.547 72.8377V77.1948C387.928 79.6725 386.333 82.15 383.608 82.1743L383.567 82.1744H374.23Z" fill="#365153"/>
<path d="M357.156 82.1673L383.567 65.9906C384.456 65.9906 385.29 66.2232 386.012 66.6308C387.13 67.2752 387.89 68.3135 388.263 69.3092L366.761 82.1745L366.622 82.1744L357.156 82.1673Z" fill="#365153"/>
<path d="M352.444 77.1948V70.9702C352.444 68.4167 355.664 66.8488 357.121 66.1393C357.233 66.0847 357.335 66.0351 357.424 65.9906H374.23L352.806 79.0622C352.795 79.0103 352.777 78.9289 352.754 78.8283C352.647 78.3549 352.444 77.4554 352.444 77.1948Z" fill="#365153"/>
<path d="M333.148 5.61131C333.268 5.17305 333.446 4.75776 333.675 4.36639C333.773 4.20056 333.879 4.03902 333.994 3.88185C334.501 3.25742 335.147 2.66128 335.676 2.26281C337.083 1.26688 338.915 0.579716 340.864 0.241489C341.654 0.108487 342.422 0.0339519 343.108 0.0103334C345.597 -0.0754648 347.888 0.456505 349.466 1.25385C350.863 1.96727 351.988 2.99545 352.636 4.36643C352.82 4.75386 352.965 5.16863 353.067 5.61135L350.577 5.61131L355.557 22.4176H363.649V30.5096H322.567V22.4176H331.281L336.261 5.61131H333.148Z" fill="#3E3E3E"/>
<path d="M5.11392 240.9H0.134247V213.512H4.49146C4.49146 218.396 5.83868 218.694 7.5054 220.341L7.52026 220.356L7.52454 220.36L7.53616 220.371C9.22784 222.027 9.90289 222.183 10.9229 222.418L10.9256 222.418C11.0565 222.449 11.1932 222.48 11.3385 222.516C11.753 222.642 12.1365 222.737 12.4701 222.82L12.5834 222.849V232.185C10.1476 232.359 8.63156 233.3 7.55545 234.639C6.77856 235.549 6.21939 236.639 5.82785 237.789C5.74481 237.791 5.47003 238.168 5.03513 239.655C5.04617 240.101 5.07388 240.519 5.11392 240.9Z" fill="#161616"/>
<path d="M435.607 190.482V152.384C435.4 148.221 432.762 139.894 423.857 139.894C422.1 139.894 411.985 139.894 396.028 139.894M68.8839 190.482C68.8839 181.738 68.8839 161.878 68.8839 152.384C68.8839 142.891 76.7172 140.102 80.6339 139.894C88.912 139.894 97.8217 139.894 107.226 139.894M107.226 139.894V190.482M107.226 139.894C122.231 139.894 138.496 139.894 155.463 139.894M155.463 139.894V190.482M155.463 139.894C171.091 139.894 187.315 139.894 203.699 139.894M203.699 139.894V190.482M203.699 139.894C219.968 139.894 236.395 139.894 252.554 139.894M252.554 139.894V190.482M252.554 139.894C268.406 139.894 284 139.894 298.936 139.894M298.936 139.894V190.482M298.936 139.894C316.326 139.894 332.822 139.894 347.791 139.894M347.791 139.894V190.482M347.791 139.894C366.751 139.894 383.26 139.894 396.028 139.894M396.028 139.894V190.482M493.12 190.482V139.894C467.146 139.893 470.857 134.898 470.857 190.482M16.3182 190.482V139.894C42.2918 139.893 39.1998 131.15 39.1998 190.482" stroke="#9B0404" stroke-width="5"/>
</svg>
