<svg width="18" height="11" viewBox="0 0 18 11" fill="none" xmlns="http://www.w3.org/2000/svg">
<path d="M9.59156 0.42257C9.45876 0.288673 9.30075 0.182395 9.12667 0.109869C8.95259 0.037342 8.76586 0 8.57727 0C8.38869 0 8.20196 0.037342 8.02788 0.109869C7.85379 0.182395 7.69579 0.288673 7.56299 0.42257L0.420131 7.56543C0.151126 7.83443 0 8.19928 0 8.57971C0 8.96014 0.151126 9.32499 0.420131 9.594C0.689136 9.863 1.05399 10.0141 1.43442 10.0141C1.81485 10.0141 2.1797 9.863 2.4487 9.594L8.57727 3.45114L14.7058 9.594C14.8387 9.72789 14.9967 9.83417 15.1707 9.9067C15.3448 9.97923 15.5315 10.0166 15.7201 10.0166C15.9087 10.0166 16.0954 9.97923 16.2695 9.9067C16.4436 9.83417 16.6016 9.72789 16.7344 9.594C16.8683 9.46119 16.9746 9.30319 17.0471 9.12911C17.1196 8.95502 17.157 8.7683 17.157 8.57971C17.157 8.39112 17.1196 8.2044 17.0471 8.03032C16.9746 7.85623 16.8683 7.69823 16.7344 7.56543L9.59156 0.42257Z" fill="#00548F"/>
</svg>
