<svg width="65" height="39" viewBox="0 0 65 39" fill="none" xmlns="http://www.w3.org/2000/svg">
<path d="M39.5688 7.29102V31.1836H49.5981C50.1313 28.873 52.2134 27.1211 54.6763 27.1211C57.1392 27.1211 59.2212 28.873 59.7544 31.1836H61.6587V23.0586L54.5239 21.2813H41.3462V10.8711H49.1792L48.3032 8.9668L39.5688 7.29102ZM3 13.1563V27.6543L8.35361 31.1836H10.2389C10.7645 28.873 12.8452 27.1211 15.3208 27.1211C17.7837 27.1211 19.8657 28.873 20.3989 31.1836H37.2837V13.1563H35.5063V23.3125H4.77734V13.1563H3ZM43.6313 13.1563V18.9961H52.8228L49.9028 13.1563H43.6313ZM6.93555 18.9961V21.2813H33.3481V18.9961H6.93555ZM15.3208 29.4063C13.6831 29.4063 12.3882 30.7012 12.3882 32.3262C12.3882 33.9512 13.6831 35.2461 15.3208 35.2461C16.9458 35.2461 18.2407 33.9512 18.2407 32.3262C18.2407 30.7012 16.9458 29.4063 15.3208 29.4063ZM54.6763 29.4063C53.0513 29.4063 51.7563 30.7012 51.7563 32.3262C51.7563 33.9512 53.0513 35.2461 54.6763 35.2461C56.3013 35.2461 57.5962 33.9512 57.5962 32.3262C57.5962 30.7012 56.3013 29.4063 54.6763 29.4063Z" fill="#00548F"/>
<path d="M3 3V11.0615V13.1563H4.77734L5.096 4.77734H35.189L35.5063 13.1563H37.2837V3H3Z" fill="#00548F"/>
<path d="M6.93555 11.25V6.75781H14.5527V11.25H6.93555Z" fill="#00548F"/>
<path d="M16.3105 11.25V6.75781H23.9277V11.25H16.3105Z" fill="#00548F"/>
<path d="M25.6855 11.25V6.75781H33.3027V11.25H25.6855Z" fill="#00548F"/>
<path d="M6.93555 17.5V13.0078H14.5527V17.5H6.93555Z" fill="#00548F"/>
<path d="M16.3105 17.5V13.0078H23.9277V17.5H16.3105Z" fill="#00548F"/>
<path d="M25.6855 17.5V13.0078H33.3027V17.5H25.6855Z" fill="#00548F"/>
</svg>
