<svg width="50" height="50" viewBox="0 0 50 50" fill="none" xmlns="http://www.w3.org/2000/svg">
<g clip-path="url(#clip0_1_1730)">
<path d="M5.05469 2.24609V4.00391H7.30078V5.37109H9.05859V4.00391H11.3047V2.24609H5.05469ZM4.25391 7.12891L1.38086 27.2461H10.4258V14.1113H6.56836V9.32617H10.4258V7.12891H4.25391ZM15.3086 13.3789V17.8711H22.9258V13.3789H15.3086ZM24.6836 13.3789V17.8711H32.3008V13.3789H24.6836ZM34.0586 13.3789V17.8711H41.6758V13.3789H34.0586ZM15.3086 19.6289V24.1211H22.9258V19.6289H15.3086ZM24.6836 19.6289V24.1211H32.3008V19.6289H24.6836ZM34.0586 19.6289V24.1211H41.6758V19.6289H34.0586ZM15.3086 25.8789V30.3711H22.9258V25.8789H15.3086ZM24.6836 25.8789V30.3711H26.5684L29.6934 27.2461H32.3008V25.8789H24.6836ZM34.0586 25.8789V27.2461H41.6758V25.8789H34.0586ZM-0.0996094 29.0039L2.25488 39.5996C4.7373 38.877 7.56445 38.1836 9.74219 38.1836C12.1055 38.1836 14.2539 39.0234 16.3047 39.8047C18.3555 40.5859 20.3086 41.3086 22.2422 41.3086C24.1758 41.3086 26.1289 40.5859 28.1797 39.8047C30.0352 39.1016 31.9785 38.3398 34.0879 38.2031L29.7813 36.7676L30.3281 35.1074L33.8633 36.2793V33.6914H32.2031V31.9336H33.8633V29.0039H30.416L27.291 32.1289H12.3203L10.7578 29.0039H-0.0996094ZM35.6211 29.0039V31.9336H37.2812V33.6914H35.6211V36.2793L39.1562 35.1074L39.7031 36.7676L35.4062 38.2031C36.5879 38.2715 37.916 38.5059 39.2539 38.8086C39.7812 38.1152 40.3086 37.3145 40.8262 36.4648C42.2812 34.0332 43.5801 31.2012 44.4199 29.0039H35.6211ZM9.74219 39.7461C7.37891 39.7461 4.24805 40.5566 1.62793 41.3477C0.649414 41.6406 -0.25293 41.9336 -1 42.1973V44.0527C-0.183594 43.7598 0.911133 43.3984 2.13574 43.0273C4.69141 42.2559 7.80859 41.5039 9.74219 41.5039C11.6758 41.5039 13.6289 42.2266 15.6797 43.0078C17.7305 43.7891 19.8789 44.6289 22.2422 44.6289C24.6055 44.6289 26.7539 43.7891 28.8047 43.0078C30.8555 42.2266 32.8086 41.5039 34.7422 41.5039C36.6758 41.5039 39.791 42.2559 42.3496 43.0273C43.5703 43.3984 44.6641 43.7598 45.4844 44.0527V42.1973C44.7324 41.9434 43.834 41.6406 42.8574 41.3477C40.2402 40.5566 37.1055 39.7461 34.7422 39.7461C32.3789 39.7461 30.2305 40.5859 28.1797 41.3672C26.1289 42.1484 24.1758 42.8711 22.2422 42.8711C20.3086 42.8711 18.3555 42.1484 16.3047 41.3672C14.2539 40.5859 12.1055 39.7461 9.74219 39.7461ZM9.74219 43.2617C7.37891 43.2617 4.24805 44.0723 1.62793 44.8633C0.649414 45.1562 -0.25293 45.4492 -1 45.7129V47.5684C-0.183594 47.2754 0.911133 46.9141 2.13574 46.543C4.69141 45.7715 7.80859 45.0195 9.74219 45.0195C11.6758 45.0195 13.6289 45.7422 15.6797 46.5234C17.7305 47.3047 19.8789 48.1445 22.2422 48.1445C24.6055 48.1445 26.7539 47.3047 28.8047 46.5234C30.8555 45.7422 32.8086 45.0195 34.7422 45.0195C36.6758 45.0195 39.791 45.7715 42.3496 46.543C43.5703 46.9141 44.6641 47.2754 45.4844 47.5684V45.7129C44.7324 45.459 43.834 45.1562 42.8574 44.8633C40.2402 44.0723 37.1055 43.2617 34.7422 43.2617C32.3789 43.2617 30.2305 44.1016 28.1797 44.8828C26.1289 45.6641 24.1758 46.3867 22.2422 46.3867C20.3086 46.3867 18.3555 45.6641 16.3047 44.8828C14.2539 44.1016 12.1055 43.2617 9.74219 43.2617Z" fill="#00548F"/>
</g>
<defs>
<clipPath id="clip0_1_1730">
<rect width="50" height="50" fill="white"/>
</clipPath>
</defs>
</svg>
