<svg width="50" height="50" viewBox="0 0 50 50" fill="none" xmlns="http://www.w3.org/2000/svg">
<path d="M45.7031 2.56378C45.625 2.56183 45.5371 2.56183 45.4492 2.56574V2.56476C44.7461 2.5921 43.8672 2.83234 42.959 3.21906C41.1621 3.99152 39.2773 5.34308 38.2715 6.34308L13.418 33.2815L14.4434 34.3069L18.2422 30.5179L19.4922 31.7679L15.7031 35.5667L16.7285 36.5921L43.6621 11.7288C44.6582 10.723 46.0156 8.83722 46.7871 7.03644C47.168 6.13507 47.4121 5.25421 47.4414 4.55206C47.4609 3.84992 47.3145 3.37921 46.9629 3.03351C46.6602 2.73175 46.2695 2.57843 45.7031 2.56378ZM16.377 5.19171L14.9219 6.80011L19.1211 8.20245L19.2578 8.08234C19.2578 8.02277 19.2285 7.90753 19.1504 7.73566C18.9648 7.34796 18.5645 6.81085 18.1055 6.34796C17.6465 5.88605 17.1094 5.48761 16.7187 5.30304C16.5527 5.22199 16.4355 5.20148 16.377 5.19171ZM39.8535 5.72687L43.1738 6.83136L44.2773 10.1468L43.1738 11.2503L38.75 6.83136L39.8535 5.72687ZM8.81836 6.61847C8.0293 6.65265 7.12207 7.07062 6.13477 7.81085C5.37988 8.37726 4.58984 9.12628 3.78906 9.91241L23.4961 19.7562L29.3164 13.4476L8.81836 6.61847ZM22.8223 7.58038L21.5332 9.00617L25.6934 10.3909C25.6836 10.3323 25.6543 10.2444 25.5957 10.1273C25.4199 9.73761 25.0195 9.2005 24.5508 8.73761C24.0918 8.2757 23.5547 7.87726 23.1641 7.69269C22.998 7.61163 22.8809 7.59015 22.8223 7.58038ZM36.5527 20.6839L30.2344 26.514L40.0879 46.221C40.8789 45.4202 41.6309 44.6194 42.1973 43.8675C42.9297 42.8812 43.3496 41.973 43.3887 41.1917L36.5527 20.6839ZM39.6094 24.3069L40.9961 28.4671L42.4219 27.178C42.4219 27.1194 42.3926 27.012 42.3145 26.8362C42.1289 26.4456 41.7285 25.9085 41.2695 25.4495C40.8008 24.9905 40.2637 24.5901 39.873 24.4046C39.7656 24.3558 39.6777 24.3265 39.6094 24.3069ZM41.9238 30.7425L41.7969 30.8792L43.2031 35.0784L44.8047 33.6331C44.8047 33.5745 44.7754 33.4573 44.6973 33.2913C44.5117 32.9007 44.1113 32.3636 43.6523 31.8948C43.1934 31.4358 42.6562 31.0355 42.2656 30.8499C42.0996 30.7718 41.9824 30.7425 41.9238 30.7425ZM7.00098 33.2034L4.77734 35.4202L10.6641 39.346L14.5801 45.2249L16.8066 42.9983L15.8496 38.1937L14.4531 36.8069L11.7578 39.5023L10.5078 38.2523L13.2031 35.5569L11.8066 34.1605L7.00098 33.2034Z" fill="#00548F"/>
</svg>
