<svg width="75" height="75" viewBox="0 0 75 75" fill="none" xmlns="http://www.w3.org/2000/svg">
<g clip-path="url(#clip0)">
<path d="M55.7066 41.2267V42.241L56.0117 46.6884L52.2957 50.3194C52.2957 50.3194 34.6502 30.312 34.9231 30.2665C35.1959 30.221 42.1996 28.1744 42.1996 28.1744L55.7066 41.2267Z" fill="#FFDFCF"/>
<path d="M53.7852 46.8307L40.2437 33.2892L30.9699 23.7367C30.3351 23.1019 29.5733 22.6086 28.7345 22.2889L25.5806 21.0873L23.5038 19.0105L20.2538 14.7808L5.77051 29.3018L10.2382 34.0334L14.6818 38.477V41.348C14.6818 42.3874 15.0947 43.3843 15.8297 44.1192L21.0029 48.9956L34.3631 59.2602L37.8594 62.7566C38.9588 63.8559 40.7407 63.8559 41.8401 62.7566C42.389 62.2061 42.665 61.4869 42.665 60.7647C42.665 60.0455 42.389 59.3234 41.8401 58.7744C42.389 59.3234 43.1112 59.5993 43.8304 59.5993C44.5526 59.5993 45.2718 59.3234 45.8222 58.7744C46.9216 57.675 46.9216 55.8931 45.8222 54.7937C46.3726 55.3427 47.0919 55.6186 47.8126 55.6186C48.5332 55.6186 49.2525 55.3427 49.8029 54.7937C50.9023 53.6943 50.9023 51.9109 49.8029 50.8116C50.9023 51.9109 52.6857 51.9109 53.7851 50.8116C54.334 50.2611 54.61 49.5419 54.61 48.8212C54.6101 48.1004 54.3342 47.3811 53.7852 46.8307Z" fill="#FFEEE6"/>
<path d="M34.4778 55.2294C35.5596 56.3112 35.5596 58.0638 34.4778 59.1455L31.5202 62.1032C30.4384 63.1835 28.6858 63.1835 27.6041 62.1032L27.538 62.0371C26.4577 60.9553 26.4577 59.2028 27.538 58.121L30.1639 55.4951L30.4971 55.1634C31.5774 54.0816 33.33 54.0816 34.4117 55.1634L34.4778 55.2294Z" fill="#FFDFCF"/>
<path d="M30.1639 51.5806C31.2457 52.6609 31.2457 54.4149 30.1639 55.4953L27.538 58.1212C26.9978 58.6628 26.2889 58.9328 25.5799 58.9328C24.8724 58.9328 24.1635 58.6628 23.6233 58.1212C22.5416 57.0408 22.5416 55.2868 23.6233 54.2065L26.2492 51.5806C26.7894 51.039 27.4983 50.7689 28.2073 50.7689C28.9148 50.7689 29.6237 51.039 30.1639 51.5806Z" fill="#FFDFCF"/>
<path d="M27.4822 46.4329C28.5625 47.5132 28.5625 49.2658 27.4822 50.3476L26.2492 51.5805L23.6233 54.2064C23.0817 54.7466 22.3742 55.0166 21.6653 55.0166C20.9563 55.0166 20.2488 54.7466 19.7072 54.2064C18.6269 53.1246 18.6269 51.3721 19.7072 50.2903L22.0865 47.911L23.5661 46.4329C24.1062 45.8928 24.8152 45.6212 25.5241 45.6212C26.2331 45.6212 26.942 45.8928 27.4822 46.4329Z" fill="#FFDFCF"/>
<path d="M22.0865 43.9964C23.1683 45.0782 23.1683 46.8307 22.0865 47.911L19.7072 50.2903C19.167 50.8305 18.4581 51.102 17.7506 51.102C17.0416 51.102 16.3327 50.8305 15.7925 50.2903C14.7108 49.21 14.7108 47.4575 15.7925 46.3757L18.1718 43.9964C18.7135 43.4562 19.4209 43.1847 20.1299 43.1847C20.8388 43.1847 21.5463 43.4562 22.0865 43.9964Z" fill="#FFDFCF"/>
<path d="M29.4009 59.9843L32.0268 57.3584L32.3599 57.0267C33.1165 56.2691 34.2048 56.046 35.1595 56.3494C35.0296 55.9408 34.8018 55.554 34.4775 55.2298L34.4115 55.1637C33.3297 54.082 31.5772 54.082 30.4969 55.1637L30.1637 55.4955L27.5378 58.1214C26.4575 59.2031 26.4575 60.9557 27.5378 62.0375L27.6038 62.1035C27.9282 62.4275 28.3142 62.6547 28.7232 62.7843C28.4205 61.8296 28.6445 60.7417 29.4009 59.9843Z" fill="#FFCEBF"/>
<path d="M25.4863 56.0696L28.1122 53.4437C28.6523 52.9021 29.3613 52.632 30.0702 52.632C30.3363 52.632 30.6026 52.6703 30.8601 52.7468C30.7331 52.3198 30.501 51.9175 30.1639 51.5806C29.6237 51.039 28.9148 50.7689 28.2073 50.7689C27.4983 50.7689 26.7894 51.039 26.2492 51.5806L23.6233 54.2065C22.5416 55.2868 22.5416 57.0408 23.6233 58.1212C23.9603 58.459 24.3631 58.6911 24.7901 58.8181C24.5099 57.8756 24.7418 56.813 25.4863 56.0696Z" fill="#FFCEBF"/>
<path d="M21.5701 52.1536L23.9495 49.7743L25.429 48.2962C25.9692 47.7561 26.6781 47.4845 27.3871 47.4845C27.6536 47.4845 27.92 47.523 28.1776 47.5996C28.0508 47.1726 27.8192 46.7701 27.4822 46.4333C26.942 45.8931 26.2331 45.6216 25.5241 45.6216C24.8152 45.6216 24.1062 45.8931 23.5661 46.4333L22.0865 47.9114L19.7072 50.2907C18.6269 51.3724 18.6269 53.125 19.7072 54.2068C20.0451 54.5438 20.4476 54.7755 20.8747 54.9022C20.5951 53.9597 20.8268 52.8979 21.5701 52.1536Z" fill="#FFCEBF"/>
<path d="M17.6555 48.2389L20.0348 45.8596C20.5764 45.3194 21.2839 45.0479 21.9929 45.0479C22.2593 45.0479 22.5254 45.0863 22.7824 45.1628C22.6554 44.736 22.4235 44.3338 22.0864 43.9966C21.5462 43.4565 20.8387 43.1849 20.1298 43.1849C19.4208 43.1849 18.7133 43.4565 18.1717 43.9966L15.7924 46.3759C14.7106 47.4577 14.7106 49.2103 15.7924 50.2906C16.1293 50.6274 16.5317 50.8597 16.9589 50.9869C16.6793 50.0449 16.9113 48.9831 17.6555 48.2389Z" fill="#FFCEBF"/>
<path d="M56.2526 20.0653L69.2925 33.2418L67.4695 35.2307L56.0118 46.6884L39.8175 31.6434H34.4468L30.974 34.4982C29.6618 35.5756 27.7463 35.4831 26.5471 34.2825C25.9028 33.6381 25.5798 32.7941 25.5798 31.9501C25.5798 31.1061 25.9028 30.2621 26.5471 29.6178L30.7333 25.4316C31.0958 25.0691 31.5861 24.865 32.0984 24.865H43.1524C43.5238 24.865 43.8892 24.9604 44.2151 25.1424L48.3396 27.4425C48.5319 27.5496 48.7697 27.5174 48.9267 27.3647L53.0337 23.3547L56.2526 20.0653Z" fill="#FFDFCF"/>
<path d="M28.9361 33.128C28.9361 32.284 29.259 31.44 29.9034 30.7957L32.8227 27.8763C33.9967 26.7024 35.5888 26.0429 37.249 26.0429H45.8298L44.2151 25.1424C43.8892 24.9604 43.5238 24.865 43.1524 24.865H32.0984C31.5871 24.865 31.0967 25.0681 30.7352 25.4297L26.5471 29.6177C25.9028 30.2621 25.5798 31.1061 25.5798 31.9501C25.5798 32.7941 25.9028 33.6381 26.5471 34.2824C27.3798 35.1161 28.5602 35.415 29.642 35.1594C29.1751 34.5641 28.9361 33.8463 28.9361 33.128Z" fill="#FFCEBF"/>
<path d="M73.1781 32.3637L69.7736 35.7681C69.2934 36.2484 68.5175 36.2572 68.0264 35.7881L53.442 21.8567C52.9347 21.3722 52.9255 20.5651 53.4216 20.0689L60.8611 12.6294C61.4732 12.0173 62.4988 12.1494 62.9359 12.8967L73.3843 30.7626C73.6877 31.2811 73.6029 31.9389 73.1781 32.3637Z" fill="#FD8087"/>
<path d="M1.72543 26.3935C1.38167 26.7296 1.37859 27.2818 1.71853 27.6219L6.76587 32.6692C7.53016 33.4335 8.76928 33.4335 9.53356 32.6692L23.5988 18.604C24.3631 17.8397 24.3631 16.6006 23.5988 15.8363L18.725 10.9626C18.3903 10.6279 17.8485 10.6249 17.5102 10.9559L1.72543 26.3935Z" fill="#99E6FC"/>
<path d="M60.8361 40.3074L54.8146 46.3291C54.7359 46.2338 54.6525 46.1412 54.5634 46.0521L46.7867 38.2754C46.3566 37.8454 45.6597 37.8454 45.2298 38.2754C44.7999 38.7053 44.7999 39.4023 45.2298 39.8321L53.0065 47.6088C53.6751 48.2773 53.6751 49.3651 53.0067 50.0335C52.3378 50.702 51.2501 50.7021 50.5818 50.0335L46.2605 45.7122C45.8304 45.2822 45.1335 45.2822 44.7036 45.7122C44.2737 46.1421 44.2737 46.8391 44.7036 47.2689L49.0249 51.5903C49.0251 51.5904 49.0254 51.5906 49.0255 51.5909C49.349 51.9147 49.5272 52.3449 49.5272 52.8027C49.5272 53.2606 49.3489 53.6911 49.0249 54.0151C48.7012 54.3389 48.2706 54.5172 47.8127 54.5172C47.3547 54.5172 46.9242 54.3389 46.6004 54.0151L42.2791 49.6937C41.849 49.2638 41.1521 49.2638 40.7222 49.6937C40.2922 50.1236 40.2922 50.8207 40.7222 51.2505L45.0435 55.5718C45.7121 56.2403 45.7121 57.3281 45.0437 57.9965C44.7197 58.3204 44.2891 58.4988 43.8311 58.4988C43.3732 58.4988 42.9427 58.3205 42.6189 57.9967L38.2975 53.6753C37.8674 53.2454 37.1705 53.2454 36.7406 53.6753C36.3107 54.1052 36.3107 54.8023 36.7406 55.232L41.062 59.5534C41.7305 60.2218 41.7305 61.3096 41.062 61.9781C40.7382 62.3019 40.3077 62.4802 39.8497 62.4802C39.3917 62.4802 38.9612 62.3019 38.6374 61.9781L35.8379 59.1785C36.7299 57.6921 36.5364 55.7312 35.2563 54.4513L35.19 54.385C34.3372 53.5322 33.1819 53.1618 32.0661 53.2733C32.0034 52.3394 31.6108 51.4699 30.9426 50.8018C30.4258 50.285 29.7979 49.9453 29.135 49.7827C29.304 49.3442 29.3933 48.8741 29.3933 48.3902C29.3933 47.3565 28.9909 46.3848 28.2601 45.654C27.5292 44.9232 26.5575 44.5207 25.5239 44.5207C24.9349 44.5207 24.3663 44.6518 23.8506 44.8996C23.6771 44.2834 23.3494 43.702 22.8654 43.2181C21.357 41.7094 18.9021 41.7096 17.3933 43.2181L16.9393 43.672L16.6083 43.3411C16.076 42.8087 15.7828 42.1011 15.7828 41.3482V38.4772C15.7828 38.1852 15.6669 37.9052 15.4605 37.6988L10.7609 32.9992L12.0823 31.6776C12.5123 31.2477 12.5123 30.5506 12.0822 30.1208C11.6524 29.6908 10.9554 29.6909 10.5254 30.1208L8.75527 31.8911C8.42149 32.2249 7.87811 32.2251 7.54433 31.8911L1.87934 26.226C1.44942 25.7961 0.752507 25.7961 0.32244 26.226C-0.10748 26.6559 -0.10748 27.3528 0.32244 27.7828L5.98758 33.4479C6.5838 34.044 7.36673 34.3419 8.14966 34.3419C8.40036 34.3419 8.65032 34.3079 8.89486 34.2468L13.5811 38.9329V41.3481C13.5811 42.6889 14.1034 43.9495 15.0514 44.8977L15.3826 45.2288L15.0141 45.5972C14.2833 46.328 13.8807 47.2997 13.8807 48.3334C13.8807 49.367 14.2832 50.3387 15.014 51.0693C15.7684 51.8237 16.7594 52.2009 17.7503 52.2009C17.766 52.2009 17.7817 52.2 17.7974 52.1997C17.7972 52.216 17.7962 52.2321 17.7962 52.2486C17.7962 53.2822 18.1987 54.2539 18.9295 54.9846C19.6603 55.7154 20.6322 56.1179 21.6656 56.1179C21.6819 56.1179 21.6982 56.1168 21.7145 56.1167C21.7023 57.1232 22.0785 58.1336 22.8447 58.8998C23.5992 59.6541 24.5901 60.0313 25.581 60.0313C25.5973 60.0313 25.6136 60.0303 25.6297 60.0302C25.6171 61.0372 25.9933 62.0484 26.7601 62.8152L26.8265 62.8815C27.5573 63.6123 28.529 64.0148 29.5624 64.0148C30.5961 64.0148 31.5678 63.6123 32.2986 62.8815L34.363 60.8172L37.0808 63.535C37.8205 64.2748 38.8039 64.6821 39.85 64.6821C40.8961 64.6821 41.8795 64.2748 42.6191 63.535C43.3996 62.7545 43.78 61.724 43.7627 60.6989C43.7856 60.6993 43.8084 60.7005 43.8314 60.7005C44.8775 60.7005 45.8609 60.2932 46.6007 59.5534C47.3816 58.7725 47.762 57.7411 47.7443 56.7156C47.7672 56.716 47.7901 56.7172 47.813 56.7172C48.8156 56.717 49.8187 56.3352 50.582 55.572C51.3218 54.8324 51.7291 53.8489 51.7291 52.8028C51.7291 52.7798 51.7278 52.757 51.7275 52.7341C51.7498 52.7346 51.7721 52.7357 51.7944 52.7357C52.7972 52.7357 53.8002 52.354 54.5637 51.5906C55.3939 50.7604 55.7716 49.6472 55.6991 48.5588L62.3934 41.8644C62.8233 41.4345 62.8233 40.7375 62.3934 40.3077C61.9631 39.8775 61.2661 39.8775 60.8361 40.3074ZM16.5707 49.5124C16.2558 49.1975 16.0824 48.7787 16.0824 48.3334C16.0824 47.8879 16.2559 47.4691 16.5709 47.1541L18.9501 44.775C19.2753 44.4498 19.7023 44.2872 20.1294 44.2872C20.5564 44.2872 20.9834 44.4497 21.3085 44.7748C21.9588 45.4252 21.9588 46.4832 21.3085 47.1333L18.9292 49.5126C18.279 50.1628 17.2211 50.1627 16.5707 49.5124ZM21.6654 53.9163C21.22 53.9163 20.8011 53.7428 20.4861 53.4278C20.1711 53.1128 19.9978 52.6941 19.9978 52.2487C19.9978 51.8034 20.1713 51.3845 20.4863 51.0695L22.8656 48.6902L24.3448 47.2109C24.6598 46.8959 25.0784 46.7224 25.5239 46.7224C25.9694 46.7224 26.3882 46.8959 26.703 47.2109C27.018 47.5259 27.1915 47.9448 27.1915 48.3902C27.1915 48.8355 27.018 49.2544 26.703 49.5694L22.8444 53.428C22.5294 53.7428 22.1108 53.9163 21.6654 53.9163ZM24.4013 57.343C23.7511 56.6928 23.7511 55.6348 24.4013 54.9846L27.0274 52.3584C27.3525 52.0334 27.7795 51.8709 28.2066 51.8709C28.6336 51.8709 29.0607 52.0335 29.3857 52.3585C29.7007 52.6735 29.8742 53.0924 29.8742 53.5378C29.8742 53.9829 29.701 54.4014 29.3863 54.7163L26.7597 57.3429C26.1096 57.9933 25.0516 57.9933 24.4013 57.343ZM30.7412 61.3246C30.4262 61.6396 30.0076 61.8131 29.5621 61.8131C29.1168 61.8131 28.6979 61.6396 28.3831 61.3246L28.3169 61.2584C27.6665 60.6082 27.6665 59.5502 28.3169 58.8999L30.9428 56.274C30.9436 56.2732 30.9444 56.2723 30.9451 56.2715L31.2746 55.9419C31.5999 55.6168 32.0269 55.4543 32.454 55.4543C32.881 55.4543 33.3081 55.6169 33.6331 55.9419L33.6993 56.0081C34.3497 56.6583 34.3497 57.7163 33.6993 58.3665L30.7412 61.3246Z" fill="black"/>
<path d="M74.6776 30.8644C74.2477 30.4345 73.5508 30.4343 73.1207 30.8644L68.9953 34.9898C68.9385 35.0466 68.845 35.0475 68.787 34.9921L54.2026 21.0608C54.1725 21.032 54.1569 20.9963 54.1565 20.9546C54.1561 20.913 54.1709 20.8769 54.2002 20.8475L62.8505 12.1974C63.2804 11.7675 63.2804 11.0705 62.8505 10.6407C62.4205 10.2108 61.7236 10.2108 61.2936 10.6407L52.6433 19.2907C52.1921 19.7421 51.9478 20.342 51.9551 20.98C51.9611 21.4944 52.1326 21.9786 52.4395 22.3786L48.4808 26.2608L44.751 24.1806C44.2635 23.9086 43.7109 23.7649 43.1527 23.7649H32.5551L31.7486 22.9585C30.9991 22.209 30.1169 21.6378 29.1266 21.2604L26.1929 20.1427L24.8372 18.787C25.5383 17.6129 25.3874 16.0679 24.3774 15.058L19.96 10.6407C19.5301 10.2108 18.8332 10.2108 18.4031 10.6407C17.9732 11.0706 17.9732 11.7677 18.4031 12.1974L22.8205 16.6148C23.1543 16.9486 23.1543 17.4918 22.8205 17.8257L13.8429 26.8033C13.413 27.2332 13.413 27.9302 13.8429 28.36C14.058 28.5749 14.3398 28.6825 14.6215 28.6825C14.9031 28.6825 15.185 28.5751 15.4 28.36L23.3483 20.4117L24.8025 21.8659C24.9123 21.9757 25.0441 22.0609 25.1891 22.1163L28.3428 23.3178C29.0233 23.5772 29.6307 23.9673 30.1503 24.4761C30.0835 24.5323 30.0179 24.5904 29.9553 24.6529L25.7686 28.84C24.9376 29.6708 24.4801 30.7756 24.4801 31.9506C24.4801 33.1255 24.9376 34.2302 25.7684 35.0611C26.6269 35.9197 27.75 36.3552 28.878 36.3552C29.8637 36.3552 30.8532 36.0224 31.6727 35.3487L34.8411 32.7439H38.1414L41.9125 36.515C42.1276 36.7299 42.4094 36.8375 42.691 36.8375C42.9727 36.8375 43.2545 36.73 43.4696 36.515C43.8995 36.0851 43.8995 35.388 43.4696 34.9582L40.7452 32.2338C40.8542 32.063 40.9182 31.8607 40.9182 31.6431C40.9182 31.0351 40.4255 30.5422 39.8174 30.5422H34.4465C34.1916 30.5422 33.9444 30.6307 33.7474 30.7928L30.2744 33.6479C29.3963 34.3697 28.1288 34.3079 27.3253 33.5044C26.9102 33.0893 26.6817 32.5375 26.6817 31.9507C26.6817 31.3639 26.9102 30.812 27.3253 30.397L31.5122 26.21C31.6689 26.0532 31.8773 25.9669 32.0989 25.9669H43.1525C43.3361 25.9669 43.5179 26.0142 43.6783 26.1037L47.8034 28.4043C48.4158 28.7462 49.1944 28.6427 49.6979 28.1507L54.0099 23.9218L65.8816 35.2619L64.1534 36.9901C63.7235 37.42 63.7235 38.1171 64.1536 38.5469C64.3685 38.7619 64.6503 38.8694 64.932 38.8694C65.2136 38.8694 65.4954 38.7619 65.7105 38.5469L67.4884 36.7689C67.9018 37.0753 68.3951 37.2298 68.8893 37.2298C69.4935 37.2298 70.0973 37.0016 70.552 36.5467L74.6776 32.4214C75.1074 31.9912 75.1074 31.2943 74.6776 30.8644Z" fill="black"/>
</g>
<defs>
<clipPath id="clip0">
<rect width="75" height="75" fill="white"/>
</clipPath>
</defs>
</svg>
