<svg width="75" height="75" viewBox="0 0 75 75" fill="none" xmlns="http://www.w3.org/2000/svg">
<path d="M64.0115 16.1607C56.925 9.07483 47.5097 5.17249 37.5 5.17249C27.4903 5.17249 18.075 9.07483 10.9885 16.1609C10.1303 17.0191 10.1313 18.4109 10.9885 19.2682L17.6439 25.924C18.5021 26.7823 19.8942 26.7814 20.7516 25.9239C25.2275 21.4468 31.1757 18.981 37.5 18.981C43.8243 18.981 49.7724 21.4468 54.2486 25.9238C54.6606 26.3358 55.2196 26.5676 55.8023 26.5676C56.7518 26.5676 57.3104 25.9697 57.3561 25.9239L64.0115 19.2681C64.8697 18.41 64.8688 17.0181 64.0115 16.1607Z" fill="#FFE600"/>
<path d="M64.0115 16.1607C56.925 9.07483 47.5097 5.17249 37.5 5.17249V18.9811C43.8243 18.9811 49.7725 21.4469 54.2486 25.9239C54.6606 26.336 55.2196 26.5677 55.8023 26.5677C56.7519 26.5677 57.3104 25.9699 57.3561 25.924L64.0115 19.2682C64.8697 18.41 64.8688 17.0181 64.0115 16.1607Z" fill="#FFAA32"/>
<path d="M20.7513 59.4208C18.8607 57.5304 13.8416 51.9401 13.8086 42.6678C13.8098 36.346 16.2753 30.3998 20.7513 25.9242L10.9885 16.1609C3.90249 23.2463 0 32.6618 0 42.6725C0 52.6833 3.90249 62.0987 10.9885 69.1841C11.4176 69.6132 11.9798 69.8276 12.5421 69.8276C13.1045 69.8276 13.6668 69.613 14.0959 69.184L20.7513 62.5282C21.6094 61.6701 21.6094 60.2789 20.7513 59.4208Z" fill="#9BFF00"/>
<path d="M54.2488 59.4208C56.1393 57.5304 61.1585 51.9401 61.1914 42.6678C61.1903 36.346 58.7248 30.3998 54.2488 25.9242L64.0115 16.1609C71.0976 23.2463 75.0001 32.6618 75.0001 42.6725C75.0001 52.6833 71.0976 62.0987 64.0115 69.1841C63.5825 69.6132 63.0203 69.8276 62.4579 69.8276C61.8956 69.8276 61.3332 69.613 60.9042 69.184L54.2488 62.5282C53.3907 61.6701 53.3907 60.2789 54.2488 59.4208Z" fill="#FF1E5A"/>
<path d="M13.8086 42.6678C13.8098 36.346 16.2753 30.3998 20.7513 25.9242L10.9885 16.1609C3.90249 23.2463 0 32.6618 0 42.6725L13.8086 42.6678Z" fill="#00D200"/>
<path d="M54.2488 59.4207C56.1393 57.5303 61.1585 51.94 61.1914 42.6677L75.0001 42.6724C75.0001 52.6832 71.0976 62.0986 64.0115 69.184C63.5825 69.6131 63.0203 69.8275 62.4579 69.8275C61.8956 69.8275 61.3332 69.6129 60.9042 69.1839L54.2488 62.5281C53.3907 61.67 53.3907 60.2788 54.2488 59.4207Z" fill="#C40050"/>
<path d="M32.6181 37.7896C29.9261 40.4815 29.9261 44.8617 32.6181 47.5538C36.0189 50.9546 52.732 61.626 54.6266 62.8315C55.4954 63.3845 56.6317 63.2597 57.36 62.5315C58.0882 61.8034 58.213 60.6671 57.66 59.7981C56.4545 57.9037 45.7831 41.1904 42.3823 37.7896C39.6903 35.0976 35.3102 35.0976 32.6181 37.7896Z" fill="#003C50"/>
<path d="M32.6182 37.7896L57.36 62.5314C58.0881 61.8032 58.2129 60.6669 57.66 59.798C56.4544 57.9035 45.783 41.1902 42.3822 37.7895C39.6904 35.0977 35.3103 35.0977 32.6182 37.7896Z" fill="#001428"/>
</svg>
