<svg width="75" height="75" viewBox="0 0 75 75" fill="none" xmlns="http://www.w3.org/2000/svg">
<g clip-path="url(#clip0)">
<path d="M37.4336 59.5571C53.8798 59.5571 67.2121 46.2248 67.2121 29.7785C67.2121 13.3323 53.8798 0 37.4336 0C20.9873 0 7.65503 13.3323 7.65503 29.7785C7.65503 46.2248 20.9873 59.5571 37.4336 59.5571Z" fill="#FFD15C"/>
<path d="M13.3095 47.1998L3.06348 64.9607L15.0221 64.3258L20.4552 75L29.9336 58.5679C23.1422 56.811 17.3105 52.7215 13.3095 47.1998Z" fill="#40596B"/>
<path d="M61.6166 47.1112C57.6451 52.6476 51.8134 56.752 45.0369 58.5384L54.5447 75L59.9778 64.3258L71.9365 64.9606L61.6166 47.1112Z" fill="#40596B"/>
<path d="M37.4335 51.3631C49.3544 51.3631 59.0182 41.6994 59.0182 29.7785C59.0182 17.8576 49.3544 8.19385 37.4335 8.19385C25.5127 8.19385 15.8489 17.8576 15.8489 29.7785C15.8489 41.6994 25.5127 51.3631 37.4335 51.3631Z" fill="#F8B64C"/>
<path d="M52.2268 27.4459C52.8912 26.7963 52.5221 25.6594 51.6067 25.5266L43.088 24.2864C42.7189 24.2274 42.4089 24.0059 42.2465 23.6663L38.4374 15.9449C38.0241 15.1033 36.8282 15.1033 36.4148 15.9449L32.6205 23.6663C32.4581 23.9911 32.1333 24.2274 31.779 24.2864L23.2603 25.5266C22.3449 25.6594 21.9758 26.7963 22.6402 27.4459L28.7967 33.4547C29.0624 33.7205 29.1805 34.0896 29.1215 34.4439L27.6746 42.9183C27.5122 43.8337 28.4867 44.5423 29.3134 44.0994L36.9315 40.0984C37.2563 39.9213 37.655 39.9213 37.9798 40.0984L45.5979 44.0994C46.4246 44.5276 47.3843 43.8337 47.2367 42.9183L45.775 34.4439C45.716 34.0748 45.8341 33.7057 46.0998 33.4547L52.2268 27.4459Z" fill="white"/>
</g>
<defs>
<clipPath id="clip0">
<rect width="75" height="75" fill="white"/>
</clipPath>
</defs>
</svg>
