<svg width="75" height="75" viewBox="0 0 75 75" fill="none" xmlns="http://www.w3.org/2000/svg">
<path d="M35.4551 61.6519C35.2622 60.7015 34.8554 59.8074 34.2656 59.0377C33.6757 58.2679 32.9183 57.6425 32.0508 57.209L24.5845 54.0215V53.8265C22.8215 54.6508 20.899 55.078 18.9529 55.078C17.0067 55.078 15.0843 54.6508 13.3213 53.8265V54.0215L5.85498 57.209C4.8738 57.6992 4.03537 58.4338 3.4204 59.342C2.80543 60.2503 2.43465 61.3015 2.34375 62.3946V70.5127H35.562V62.3946C35.5421 62.145 35.5064 61.8969 35.4551 61.6519Z" fill="#50A6EA"/>
<path d="M10.2495 57.209L16.0132 54.7481C15.0855 54.5382 14.183 54.2292 13.3213 53.8264V54.0214L5.85498 57.2089C4.87378 57.6991 4.03533 58.4337 3.42036 59.342C2.80539 60.2502 2.43462 61.3015 2.34375 62.3946V70.5127H6.73828V62.3946C6.82918 61.3015 7.19996 60.2503 7.81493 59.3421C8.4299 58.4339 9.26833 57.6993 10.2495 57.209Z" fill="#72BCEF"/>
<path d="M72.6563 10.1144V58.7223C72.6564 59.1071 72.5807 59.4881 72.4335 59.8436C72.2863 60.1991 72.0705 60.5221 71.7984 60.7942C71.5264 61.0662 71.2034 61.282 70.8479 61.4292C70.4924 61.5764 70.1113 61.6521 69.7266 61.652H35.4551C35.2622 60.7016 34.8554 59.8075 34.2656 59.0378C33.6757 58.268 32.9183 57.6426 32.0508 57.2091L27.252 55.1613V46.5509L27.2505 46.5494C29.3369 44.345 30.4977 41.424 30.4937 38.3888V36.8829C30.9049 36.8103 31.2969 36.654 31.6454 36.4237C31.9938 36.1934 32.2913 35.8941 32.5194 35.5442C32.7475 35.1943 32.9013 34.8014 32.9714 34.3896C33.0415 33.9779 33.0263 33.5561 32.9268 33.1505C32.8129 32.6795 32.5529 32.2566 32.184 31.9424C31.8151 31.6283 31.3562 31.4389 30.873 31.4015H30.5859V26.7653C30.5897 23.6551 29.3957 20.663 27.252 18.4098V10.1144C27.252 9.33738 27.5606 8.5922 28.11 8.04278C28.6595 7.49335 29.4046 7.18469 30.1816 7.18469H37.4194V9.52405H63.9536V7.18469H69.7266C70.5036 7.18469 71.2488 7.49335 71.7982 8.04278C72.3476 8.5922 72.6563 9.33738 72.6563 10.1144Z" fill="#E5F5FD"/>
<path d="M42.1685 33.9723C47.0225 33.9723 50.9575 30.0373 50.9575 25.1832C50.9575 20.3292 47.0225 16.3942 42.1685 16.3942C37.3144 16.3942 33.3794 20.3292 33.3794 25.1832C33.3794 30.0373 37.3144 33.9723 42.1685 33.9723Z" fill="#49C160"/>
<path d="M36.3092 25.183C36.3099 23.1063 37.0458 21.0969 38.3864 19.5108C39.727 17.9248 41.5858 16.8645 43.6334 16.5179C42.3728 16.304 41.0807 16.3677 39.8472 16.7046C38.6138 17.0415 37.4687 17.6435 36.4919 18.4686C35.5151 19.2936 34.73 20.3218 34.1915 21.4815C33.653 22.6412 33.374 23.9045 33.374 25.1831C33.374 26.4617 33.653 27.725 34.1915 28.8847C34.73 30.0444 35.5151 31.0726 36.4919 31.8976C37.4687 32.7227 38.6138 33.3247 39.8472 33.6616C41.0807 33.9985 42.3728 34.0622 43.6334 33.8483C41.5856 33.5019 39.7267 32.4417 38.386 30.8556C37.0454 29.2695 36.3096 27.2599 36.3092 25.183Z" fill="#5AE070"/>
<path d="M30.5859 31.4014V31.5361C30.5859 31.5361 20.2134 33.3643 13.2583 27.1665C11.83 27.2867 10.3959 27.3229 8.96338 27.2749L8.63965 32.5879C8.63649 32.6283 8.6234 32.6672 8.60154 32.7013C8.57967 32.7354 8.54972 32.7636 8.51434 32.7833C8.47896 32.803 8.43926 32.8137 8.39876 32.8144C8.35826 32.815 8.31823 32.8057 8.28223 32.7871L6.84668 32.0503C6.6951 31.9721 6.56616 31.8563 6.47227 31.7139C6.37838 31.5716 6.32269 31.4074 6.31055 31.2373V26.7651C6.31055 23.546 7.58934 20.4587 9.8656 18.1825C12.1419 15.9062 15.2291 14.6274 18.4482 14.6274C21.6674 14.6274 24.7546 15.9062 27.0309 18.1825C29.3071 20.4587 30.5859 23.546 30.5859 26.7651V31.4014Z" fill="#4A5160"/>
<path d="M12.7954 18.1826C14.7149 16.26 17.2257 15.0393 19.9233 14.7171C19.4339 14.6576 18.9413 14.6276 18.4482 14.6274C15.2292 14.6276 12.142 15.9064 9.86572 18.1826C7.58949 20.4589 6.31066 23.5461 6.31055 26.7651V31.2373C6.32269 31.4074 6.37838 31.5716 6.47227 31.7139C6.56616 31.8563 6.6951 31.9721 6.84668 32.0503L8.28223 32.7871C8.31824 32.8056 8.35826 32.815 8.39874 32.8143C8.43923 32.8136 8.47892 32.8029 8.51428 32.7832C8.54965 32.7635 8.5796 32.7354 8.60147 32.7013C8.62334 32.6672 8.63646 32.6283 8.63965 32.5879C8.63965 32.5879 8.00874 22.9687 12.7954 18.1826Z" fill="#58606D"/>
<path d="M24.5845 48.6689V53.8267C22.8215 54.6508 20.899 55.078 18.9529 55.078C17.0067 55.078 15.0843 54.6508 13.3213 53.8267V49.0527C15.0844 49.9239 17.0358 50.3447 19.0012 50.2778C20.9666 50.2108 22.8848 49.6581 24.5845 48.6689Z" fill="#EFC597"/>
<path d="M16.251 53.8266V50.0522C15.2348 49.8489 14.2498 49.5129 13.3213 49.0529V53.8266C15.5343 54.8613 17.9897 55.2662 20.4177 54.9969C18.9742 54.8372 17.5666 54.4418 16.251 53.8266Z" fill="#D8AD82"/>
<path d="M24.5845 48.669C22.7768 49.7223 20.7232 50.2801 18.631 50.2863C16.5388 50.2924 14.482 49.7465 12.6681 48.7038C10.8543 47.6611 9.34756 46.1584 8.30001 44.3473C7.25245 42.5362 6.70113 40.4809 6.70167 38.3887V36.8828C6.29067 36.8095 5.89903 36.6528 5.55088 36.4224C5.20274 36.192 4.90546 35.8927 4.67737 35.543C4.44928 35.1933 4.29521 34.8006 4.22465 34.3892C4.15409 33.9777 4.16854 33.5561 4.2671 33.1504C4.38128 32.6793 4.64158 32.2564 5.01074 31.9422C5.37989 31.6281 5.83898 31.4387 6.32228 31.4014L6.33546 31.3984C6.36866 31.5375 6.43154 31.6678 6.51977 31.7803C6.60801 31.8928 6.71953 31.9849 6.84669 32.0503L8.28224 32.7871C8.31824 32.8057 8.35828 32.815 8.39877 32.8144C8.43927 32.8137 8.47898 32.803 8.51435 32.7833C8.54973 32.7636 8.57969 32.7354 8.60155 32.7013C8.62341 32.6672 8.6365 32.6283 8.63966 32.5879L8.96339 27.2749C10.3959 27.3229 11.83 27.2867 13.2583 27.1665C20.2134 33.3643 30.586 31.5361 30.586 31.5361V31.4014H30.8731C31.3562 31.4388 31.8151 31.6281 32.184 31.9423C32.5529 32.2565 32.8129 32.6794 32.9268 33.1504C33.0263 33.556 33.0415 33.9778 32.9714 34.3895C32.9013 34.8012 32.7475 35.1942 32.5194 35.5441C32.2913 35.894 31.9938 36.1933 31.6454 36.4236C31.297 36.6539 30.905 36.8102 30.4937 36.8828V38.3887C30.4978 41.4239 29.3369 44.3449 27.2505 46.5493C27.1729 46.6343 27.0908 46.7178 27.0088 46.7998C26.2845 47.5246 25.4697 48.1528 24.5845 48.669Z" fill="#FFD8B7"/>
<path d="M16.251 49.0528C14.2632 48.0691 12.5899 46.5493 11.4202 44.6649C10.2505 42.7805 9.63091 40.6066 9.63139 38.3887V36.8829C9.22038 36.8095 8.82874 36.6529 8.4806 36.4224C8.13245 36.192 7.83518 35.8927 7.60709 35.543C7.379 35.1934 7.22493 34.8007 7.15437 34.3892C7.08381 33.9777 7.09826 33.5561 7.19682 33.1504C7.26187 32.8826 7.37434 32.6286 7.5289 32.4004L6.84672 32.0508C6.71956 31.9854 6.60804 31.8933 6.5198 31.7808C6.43156 31.6683 6.36869 31.538 6.33549 31.3989L6.32231 31.4019C5.83901 31.4392 5.37992 31.6285 5.01076 31.9427C4.64161 32.2569 4.38131 32.6798 4.26713 33.1509C4.16772 33.5566 4.15265 33.9784 4.22285 34.3902C4.29305 34.802 4.44703 35.195 4.67525 35.5449C4.90347 35.8948 5.20107 36.1941 5.54964 36.4243C5.89821 36.6545 6.29032 36.8107 6.7017 36.8833V38.3892C6.70093 39.9516 7.0081 41.4988 7.60566 42.9425C8.20322 44.3861 9.07944 45.6978 10.1842 46.8026C11.289 47.9074 12.6007 48.7836 14.0444 49.3812C15.488 49.9788 17.0353 50.2859 18.5977 50.2852C19.0866 50.2848 19.575 50.2545 20.0602 50.1946C18.7351 50.0318 17.4472 49.6457 16.251 49.0528Z" fill="#E8BC9E"/>
<path d="M37.4194 4.48792H63.9536V9.52405H37.4194V4.48792Z" fill="#475673"/>
<path d="M69.7266 6.30632H64.8318V4.48743C64.8318 4.25433 64.7392 4.03077 64.5744 3.86595C64.4095 3.70112 64.186 3.60852 63.9529 3.60852H37.4199C37.1868 3.60852 36.9632 3.70112 36.7984 3.86595C36.6336 4.03077 36.541 4.25433 36.541 4.48743V6.30632H30.1813C29.1716 6.30737 28.2034 6.70897 27.4894 7.42299C26.7754 8.13701 26.3738 9.10514 26.3728 10.1149V16.4477C24.4467 14.9661 22.1443 14.0536 19.7262 13.8135C17.3081 13.5734 14.8712 14.0154 12.6914 15.0894C10.5117 16.1633 8.67632 17.8263 7.39329 19.8899C6.11026 21.9535 5.43086 24.3353 5.43208 26.7652V30.7046C4.93527 30.8786 4.49011 31.1745 4.13747 31.5653C3.78483 31.9561 3.536 32.4293 3.41382 32.9413C3.18648 33.8708 3.30566 34.8514 3.74906 35.6994C4.19245 36.5474 4.92968 37.2048 5.82275 37.5485V38.389C5.82431 40.6761 6.43935 42.9208 7.60377 44.8893C8.76818 46.8577 10.4393 48.4777 12.443 49.5804V53.4416L5.50942 56.4006C5.49316 56.4076 5.4772 56.4153 5.46152 56.4229C4.34821 56.9841 3.39688 57.8206 2.69791 58.853C1.99893 59.8854 1.57553 61.0794 1.46792 62.3215C1.46587 62.3457 1.46484 62.3701 1.46484 62.3947V70.5131C1.46484 70.7462 1.55744 70.9697 1.72227 71.1345C1.8871 71.2994 2.11065 71.392 2.34375 71.392H35.5619C35.795 71.392 36.0185 71.2994 36.1833 71.1345C36.3482 70.9697 36.4408 70.7462 36.4408 70.5131V62.531H69.7266C70.7363 62.5299 71.7044 62.1283 72.4184 61.4143C73.1325 60.7002 73.5341 59.7321 73.5352 58.7224V10.1146C73.534 9.10491 73.1323 8.13688 72.4183 7.42293C71.7043 6.70898 70.7363 6.30741 69.7266 6.30632ZM38.2988 5.36633H63.074V8.64539H38.2988V5.36633ZM7.18989 26.7652C7.18989 25.2868 7.48109 23.8228 8.04687 22.4569C8.61265 21.091 9.44192 19.8499 10.4873 18.8045C11.5328 17.759 12.7739 16.9298 14.1398 16.364C15.5057 15.7982 16.9696 15.507 18.4481 15.507C19.9265 15.507 21.3905 15.7982 22.7564 16.364C24.1223 16.9298 25.3634 17.759 26.4088 18.8045C27.4543 19.8499 28.2835 21.091 28.8493 22.4569C29.4151 23.8228 29.7063 25.2868 29.7063 26.7652V30.7666C27.5284 31.002 20.8799 31.3572 15.5413 27.8173C19.2095 27.3283 23.6811 26.2021 26.9975 23.6587C27.0917 23.5895 27.1712 23.5021 27.2313 23.4018C27.2913 23.3015 27.3308 23.1902 27.3473 23.0744C27.3638 22.9586 27.357 22.8407 27.3273 22.7276C27.2977 22.6145 27.2458 22.5084 27.1746 22.4156C27.1035 22.3228 27.0145 22.2452 26.913 22.1872C26.8114 22.1292 26.6993 22.092 26.5833 22.0779C26.4672 22.0638 26.3494 22.073 26.237 22.105C26.1245 22.1369 26.0195 22.191 25.9282 22.264C19.8949 26.8913 9.11675 26.4032 9.00923 26.3975C8.77788 26.3858 8.55125 26.4658 8.37849 26.6201C8.20573 26.7744 8.10077 26.9906 8.08638 27.2218L7.82271 31.5626L7.24922 31.2681C7.23441 31.2606 7.22147 31.2499 7.21133 31.2367C7.2012 31.2236 7.19412 31.2083 7.19063 31.1921L7.18989 26.7652ZM7.58057 38.389V36.883C7.5806 36.6762 7.50769 36.476 7.37466 36.3176C7.24163 36.1592 7.057 36.0528 6.85327 36.0172C6.56059 35.9651 6.28168 35.8536 6.03376 35.6896C5.78584 35.5256 5.57419 35.3124 5.41186 35.0634C5.24954 34.8144 5.13999 34.5347 5.08997 34.2416C5.03996 33.9486 5.05055 33.6484 5.12109 33.3596C5.16828 33.1511 5.26366 32.9564 5.3996 32.7913C5.53554 32.6262 5.70825 32.4953 5.90391 32.409C6.05664 32.5825 6.24046 32.726 6.4459 32.832L7.88145 33.569C8.04611 33.6536 8.22913 33.6962 8.41424 33.6931C8.59935 33.69 8.78083 33.6412 8.94256 33.5511C9.1043 33.461 9.24128 33.3324 9.34135 33.1766C9.44143 33.0209 9.50149 32.8428 9.51621 32.6583C9.51621 32.6527 9.51709 32.6473 9.51738 32.6417L9.7894 28.1761C10.5072 28.1829 11.6172 28.1712 12.9667 28.0771C20.1451 34.1838 30.3041 32.4787 30.7386 32.4024C30.8296 32.3856 30.9174 32.3545 30.9987 32.3102C31.2596 32.364 31.4996 32.4914 31.6903 32.6774C31.8809 32.8634 32.0142 33.1002 32.0744 33.3596C32.145 33.6484 32.1557 33.9486 32.1057 34.2417C32.0557 34.5347 31.9462 34.8144 31.7839 35.0635C31.6215 35.3126 31.4099 35.5257 31.1619 35.6897C30.914 35.8537 30.635 35.9652 30.3423 36.0172C30.1386 36.0528 29.954 36.1592 29.8209 36.3176C29.6879 36.476 29.615 36.6762 29.615 36.883V38.389C29.6044 41.3039 28.439 44.0958 26.3741 46.1532C24.3092 48.2106 21.5131 49.3658 18.5982 49.3658C15.6833 49.3658 12.8871 48.2106 10.8222 46.1532C8.75732 44.0958 7.59193 41.3039 7.5813 38.389H7.58057ZM26.3732 48.517V53.8298L25.4626 53.4413V49.1578C25.7758 48.9574 26.0793 48.7438 26.3732 48.517ZM23.7048 50.0977V53.2532C20.6602 54.5035 17.2454 54.5035 14.2008 53.2532V50.3839C17.2876 51.5153 20.6917 51.4127 23.7048 50.0977ZM34.683 69.6344H3.22266V62.4317C3.30957 61.5007 3.63045 60.6068 4.15547 59.8331C4.68048 59.0594 5.39259 58.431 6.22559 58.0064L13.5445 54.8827C17.0106 56.3036 20.8965 56.3036 24.3625 54.8827L31.6816 58.0065C32.5144 58.4313 33.2261 59.0598 33.7509 59.8335C34.2756 60.6071 34.5962 61.5009 34.683 62.4317V69.6344ZM71.7773 58.7227C71.7768 59.2664 71.5606 59.7878 71.1761 60.1722C70.7916 60.5567 70.2703 60.773 69.7266 60.7735H36.1307C35.8387 59.8384 35.362 58.9715 34.7287 58.2242C34.0954 57.4769 33.3185 56.8643 32.4441 56.4229C32.4284 56.4148 32.4125 56.4082 32.3962 56.4006L28.131 54.5801V46.8826C30.2205 44.5472 31.3746 41.5228 31.3721 38.389V37.5485C32.2652 37.2048 33.0024 36.5475 33.4458 35.6995C33.8892 34.8516 34.0084 33.8711 33.7811 32.9416C33.6466 32.3777 33.3591 31.8619 32.9503 31.451C32.5415 31.04 32.0272 30.7499 31.4641 30.6125V26.7652C31.4667 23.5562 30.2791 20.4602 28.131 18.0762V10.1146C28.1315 9.57088 28.3477 9.04955 28.7322 8.66506C29.1167 8.28057 29.638 8.06435 30.1818 8.06384H36.5414V9.524C36.5414 9.7571 36.634 9.98065 36.7988 10.1455C36.9637 10.3103 37.1872 10.4029 37.4203 10.4029H63.9529C64.186 10.4029 64.4095 10.3103 64.5744 10.1455C64.7392 9.98065 64.8318 9.7571 64.8318 9.524V8.06414H69.7266C70.2703 8.06464 70.7916 8.28087 71.1761 8.66535C71.5606 9.04984 71.7768 9.57117 71.7773 10.1149V58.7227Z" fill="#284268"/>
<path d="M65.4176 32.4735H58.9919C58.7588 32.4735 58.5353 32.5661 58.3705 32.7309C58.2056 32.8958 58.113 33.1193 58.113 33.3524C58.113 33.5855 58.2056 33.8091 58.3705 33.9739C58.5353 34.1387 58.7588 34.2313 58.9919 34.2313H65.4176C65.6507 34.2313 65.8743 34.1387 66.0391 33.9739C66.2039 33.8091 66.2965 33.5855 66.2965 33.3524C66.2965 33.1193 66.2039 32.8958 66.0391 32.7309C65.8743 32.5661 65.6507 32.4735 65.4176 32.4735Z" fill="#284268"/>
<path d="M53.0503 34.2313H55.2058C55.4389 34.2313 55.6625 34.1387 55.8273 33.9739C55.9921 33.8091 56.0847 33.5855 56.0847 33.3524C56.0847 33.1193 55.9921 32.8958 55.8273 32.7309C55.6625 32.5661 55.4389 32.4735 55.2058 32.4735H53.0503C52.8172 32.4735 52.5936 32.5661 52.4288 32.7309C52.264 32.8958 52.1714 33.1193 52.1714 33.3524C52.1714 33.5855 52.264 33.8091 52.4288 33.9739C52.5936 34.1387 52.8172 34.2313 53.0503 34.2313Z" fill="#284268"/>
<path d="M65.4175 41.9799H63.2356C63.0025 41.9799 62.7789 42.0725 62.6141 42.2373C62.4493 42.4021 62.3567 42.6257 62.3567 42.8588C62.3567 43.0919 62.4493 43.3154 62.6141 43.4802C62.7789 43.6451 63.0025 43.7377 63.2356 43.7377H65.4175C65.6506 43.7377 65.8741 43.6451 66.039 43.4802C66.2038 43.3154 66.2964 43.0919 66.2964 42.8588C66.2964 42.6257 66.2038 42.4021 66.039 42.2373C65.8741 42.0725 65.6506 41.9799 65.4175 41.9799Z" fill="#284268"/>
<path d="M60.1959 43.7377C60.429 43.7377 60.6526 43.6451 60.8174 43.4802C60.9822 43.3154 61.0748 43.0919 61.0748 42.8588C61.0748 42.6257 60.9822 42.4021 60.8174 42.2373C60.6526 42.0725 60.429 41.9799 60.1959 41.9799H48.5564C48.3233 41.9799 48.0997 42.0725 47.9349 42.2373C47.7701 42.4021 47.6775 42.6257 47.6775 42.8588C47.6775 43.0919 47.7701 43.3154 47.9349 43.4802C48.0997 43.6451 48.3233 43.7377 48.5564 43.7377H60.1959Z" fill="#284268"/>
<path d="M45.4743 41.9799H44.689C44.4559 41.9799 44.2323 42.0725 44.0675 42.2373C43.9027 42.4021 43.8101 42.6257 43.8101 42.8588C43.8101 43.0919 43.9027 43.3154 44.0675 43.4802C44.2323 43.6451 44.4559 43.7377 44.689 43.7377H45.4743C45.7074 43.7377 45.9309 43.6451 46.0957 43.4802C46.2606 43.3154 46.3532 43.0919 46.3532 42.8588C46.3532 42.6257 46.2606 42.4021 46.0957 42.2373C45.9309 42.0725 45.7074 41.9799 45.4743 41.9799Z" fill="#284268"/>
<path d="M35.9197 41.9799C35.6866 41.9799 35.463 42.0725 35.2982 42.2373C35.1334 42.4021 35.0408 42.6257 35.0408 42.8588C35.0408 43.0919 35.1334 43.3154 35.2982 43.4802C35.463 43.6451 35.6866 43.7377 35.9197 43.7377H40.9028C41.1359 43.7377 41.3594 43.6451 41.5243 43.4802C41.6891 43.3154 41.7817 43.0919 41.7817 42.8588C41.7817 42.6257 41.6891 42.4021 41.5243 42.2373C41.3594 42.0725 41.1359 41.9799 40.9028 41.9799H35.9197Z" fill="#284268"/>
<path d="M65.4175 50.7661H60.3879C60.1548 50.7661 59.9313 50.8587 59.7665 51.0235C59.6016 51.1884 59.509 51.4119 59.509 51.645C59.509 51.8781 59.6016 52.1017 59.7665 52.2665C59.9313 52.4313 60.1548 52.5239 60.3879 52.5239H65.4175C65.6506 52.5239 65.8741 52.4313 66.039 52.2665C66.2038 52.1017 66.2964 51.8781 66.2964 51.645C66.2964 51.4119 66.2038 51.1884 66.039 51.0235C65.8741 50.8587 65.6506 50.7661 65.4175 50.7661Z" fill="#284268"/>
<path d="M57.2335 50.7661H56.6016C56.3685 50.7661 56.1449 50.8587 55.9801 51.0235C55.8153 51.1884 55.7227 51.4119 55.7227 51.645C55.7227 51.8781 55.8153 52.1017 55.9801 52.2665C56.1449 52.4313 56.3685 52.5239 56.6016 52.5239H57.2331C57.4662 52.5239 57.6897 52.4313 57.8545 52.2665C58.0194 52.1017 58.112 51.8781 58.112 51.645C58.112 51.4119 58.0194 51.1884 57.8545 51.0235C57.6897 50.8587 57.4662 50.7661 57.2331 50.7661H57.2335Z" fill="#284268"/>
<path d="M54.128 50.7661H49.3506C49.1175 50.7661 48.8939 50.8587 48.7291 51.0235C48.5643 51.1884 48.4717 51.4119 48.4717 51.645C48.4717 51.8781 48.5643 52.1017 48.7291 52.2665C48.8939 52.4313 49.1175 52.5239 49.3506 52.5239H54.1282C54.3613 52.5239 54.5848 52.4313 54.7497 52.2665C54.9145 52.1017 55.0071 51.8781 55.0071 51.645C55.0071 51.4119 54.9145 51.1884 54.7497 51.0235C54.5848 50.8587 54.3613 50.7661 54.1282 50.7661H54.128Z" fill="#284268"/>
<path d="M45.4741 50.7661H35.9197C35.6866 50.7661 35.463 50.8587 35.2982 51.0235C35.1334 51.1884 35.0408 51.4119 35.0408 51.645C35.0408 51.8781 35.1334 52.1017 35.2982 52.2665C35.463 52.4313 35.6866 52.5239 35.9197 52.5239H45.4741C45.7072 52.5239 45.9308 52.4313 46.0956 52.2665C46.2604 52.1017 46.353 51.8781 46.353 51.645C46.353 51.4119 46.2604 51.1884 46.0956 51.0235C45.9308 50.8587 45.7072 50.7661 45.4741 50.7661Z" fill="#284268"/>
<path d="M65.4175 24.9902H64.8503C64.6172 24.9902 64.3937 25.0828 64.2289 25.2477C64.064 25.4125 63.9714 25.636 63.9714 25.8691C63.9714 26.1022 64.064 26.3258 64.2289 26.4906C64.3937 26.6554 64.6172 26.748 64.8503 26.748H65.4175C65.6506 26.748 65.8742 26.6554 66.039 26.4906C66.2038 26.3258 66.2964 26.1022 66.2964 25.8691C66.2964 25.636 66.2038 25.4125 66.039 25.2477C65.8742 25.0828 65.6506 24.9902 65.4175 24.9902Z" fill="#284268"/>
<path d="M54.8347 26.748H61.0644C61.2975 26.748 61.5211 26.6554 61.6859 26.4906C61.8507 26.3258 61.9433 26.1022 61.9433 25.8691C61.9433 25.636 61.8507 25.4125 61.6859 25.2477C61.5211 25.0828 61.2975 24.9902 61.0644 24.9902H54.8347C54.6016 24.9902 54.3781 25.0828 54.2132 25.2477C54.0484 25.4125 53.9558 25.636 53.9558 25.8691C53.9558 26.1022 54.0484 26.3258 54.2132 26.4906C54.3781 26.6554 54.6016 26.748 54.8347 26.748Z" fill="#284268"/>
<path d="M65.4175 17.666H59.1382C58.9051 17.666 58.6815 17.7586 58.5167 17.9234C58.3519 18.0883 58.2593 18.3118 58.2593 18.5449C58.2593 18.778 58.3519 19.0016 58.5167 19.1664C58.6815 19.3312 58.9051 19.4238 59.1382 19.4238H65.4175C65.6506 19.4238 65.8742 19.3312 66.039 19.1664C66.2038 19.0016 66.2964 18.778 66.2964 18.5449C66.2964 18.3118 66.2038 18.0883 66.039 17.9234C65.8742 17.7586 65.6506 17.666 65.4175 17.666Z" fill="#284268"/>
<path d="M54.8347 19.4238H55.3522C55.5853 19.4238 55.8089 19.3312 55.9737 19.1664C56.1386 19.0016 56.2312 18.778 56.2312 18.5449C56.2312 18.3118 56.1386 18.0883 55.9737 17.9234C55.8089 17.7586 55.5853 17.666 55.3522 17.666H54.8347C54.6016 17.666 54.3781 17.7586 54.2132 17.9234C54.0484 18.0883 53.9558 18.3118 53.9558 18.5449C53.9558 18.778 54.0484 19.0016 54.2132 19.1664C54.3781 19.3312 54.6016 19.4238 54.8347 19.4238Z" fill="#284268"/>
<path d="M42.1692 34.8516C44.0813 34.8516 45.9505 34.2846 47.5404 33.2222C49.1303 32.1599 50.3695 30.65 51.1012 28.8834C51.833 27.1168 52.0244 25.1729 51.6514 23.2975C51.2783 21.4221 50.3576 19.6994 49.0055 18.3473C47.6534 16.9952 45.9307 16.0744 44.0553 15.7014C42.1799 15.3284 40.236 15.5198 38.4694 16.2516C36.7028 16.9833 35.1929 18.2225 34.1306 19.8124C33.0682 21.4023 32.5012 23.2715 32.5012 25.1836C32.5041 27.7468 33.5236 30.2042 35.3361 32.0167C37.1486 33.8291 39.606 34.8487 42.1692 34.8516ZM42.1692 17.2734C43.7337 17.2734 45.263 17.7374 46.5638 18.6065C47.8647 19.4757 48.8785 20.7111 49.4772 22.1565C50.0759 23.6019 50.2326 25.1924 49.9273 26.7268C49.6221 28.2612 48.8688 29.6707 47.7625 30.7769C46.6563 31.8832 45.2468 32.6366 43.7124 32.9418C42.178 33.247 40.5875 33.0903 39.1421 32.4916C37.6967 31.8929 36.4613 30.8791 35.5921 29.5782C34.723 28.2774 34.259 26.7481 34.259 25.1836C34.2614 23.0864 35.0956 21.0759 36.5785 19.5929C38.0614 18.11 40.072 17.2758 42.1692 17.2734Z" fill="#284268"/>
<path d="M39.59 29.0155C39.7548 29.1803 39.9783 29.2729 40.2114 29.2729C40.4445 29.2729 40.668 29.1803 40.8329 29.0155L47.2536 22.5948C47.4162 22.4295 47.5069 22.2067 47.506 21.9748C47.505 21.743 47.4125 21.5209 47.2485 21.3569C47.0846 21.193 46.8625 21.1004 46.6306 21.0995C46.3988 21.0986 46.1759 21.1893 46.0107 21.3519L40.2115 27.151L38.3274 25.2671C38.2462 25.1837 38.1492 25.1172 38.0421 25.0715C37.935 25.0259 37.8199 25.002 37.7035 25.0012C37.5871 25.0004 37.4717 25.0227 37.364 25.0669C37.2563 25.1111 37.1584 25.1762 37.0761 25.2585C36.9937 25.3409 36.9286 25.4387 36.8844 25.5464C36.8402 25.6541 36.8178 25.7695 36.8186 25.886C36.8194 26.0024 36.8433 26.1175 36.889 26.2246C36.9346 26.3317 37.0011 26.4287 37.0845 26.5099L39.59 29.0155Z" fill="#284268"/>
</svg>
