<svg width="75" height="75" viewBox="0 0 75 75" fill="none" xmlns="http://www.w3.org/2000/svg">
<g clip-path="url(#clip0)">
<path d="M66.2078 50.0845C64.1919 55.5479 61.1432 60.2983 57.1452 64.2025C52.5944 68.6462 46.6355 72.1773 39.4337 74.6962C39.1974 74.7786 38.9508 74.8461 38.703 74.8959C38.3757 74.9605 38.0427 74.9954 37.7125 75H37.6479C37.296 75 36.9424 74.9645 36.5916 74.8959C36.3438 74.8461 36.1006 74.7786 35.8655 74.6979C28.6551 72.183 22.6887 68.6537 18.1334 64.2099C14.1337 60.3058 11.0855 55.5582 9.07253 50.0948C5.41213 40.1613 5.62042 29.2185 5.78807 20.4248L5.79093 20.2898C5.82469 19.5636 5.84644 18.8009 5.85845 17.9586C5.91968 13.8233 9.20757 10.4021 13.3435 10.1715C21.9666 9.69025 28.6374 6.87786 34.3371 1.32233L34.3869 1.27655C35.3333 0.408514 36.5258 -0.0172063 37.7125 0.000532164C38.857 0.0154095 39.9968 0.440558 40.9095 1.27655L40.9581 1.32233C46.659 6.87786 53.3297 9.69025 61.9529 10.1715C66.0888 10.4021 69.3767 13.8233 69.4379 17.9586C69.4499 18.8066 69.4716 19.5682 69.5054 20.2898L69.5071 20.347C69.6742 29.1572 69.8813 40.1218 66.2078 50.0845Z" fill="#00DD80"/>
<path d="M66.2076 50.0845C64.1918 55.5479 61.1431 60.2983 57.1451 64.2025C52.5943 68.6462 46.6354 72.1773 39.4336 74.6961C39.1973 74.7785 38.9507 74.8461 38.7029 74.8958C38.3756 74.9605 38.0426 74.9954 37.7124 75V0.000488281C38.8568 0.0153657 39.9966 0.440514 40.9093 1.27651L40.9579 1.32228C46.6588 6.87782 53.3296 9.69021 61.9527 10.1714C66.0886 10.402 69.3765 13.8232 69.4377 17.9586C69.4498 18.8066 69.4715 19.5682 69.5053 20.2897L69.507 20.347C69.6741 29.1572 69.8812 40.1218 66.2076 50.0845Z" fill="#00AA63"/>
<path d="M56.3382 37.5C56.3382 47.7842 47.988 56.1556 37.7124 56.1922H37.6466C27.3406 56.1922 18.9543 47.8066 18.9543 37.5C18.9543 27.194 27.3406 18.8083 37.6466 18.8083H37.7124C47.988 18.845 56.3382 27.2163 56.3382 37.5Z" fill="white"/>
<path d="M56.3383 37.5C56.3383 47.7842 47.9881 56.1556 37.7124 56.1922V18.8083C47.9881 18.845 56.3383 27.2163 56.3383 37.5Z" fill="#E1EBF0"/>
<path d="M46.1307 34.8083L37.7124 43.2277L35.8933 45.0468C35.4636 45.4765 34.9 45.6911 34.3369 45.6911C33.7733 45.6911 33.2103 45.4765 32.78 45.0468L28.869 41.134C28.0095 40.2746 28.0095 38.8824 28.869 38.0224C29.7273 37.1629 31.1212 37.1629 31.9806 38.0224L34.3369 40.3787L43.019 31.6967C43.8785 30.8366 45.2724 30.8366 46.1307 31.6967C46.9901 32.5561 46.9901 33.95 46.1307 34.8083Z" fill="#B4D2D7"/>
<path d="M46.1307 34.8083L37.7124 43.2277V37.0027L43.019 31.6967C43.8785 30.8366 45.2724 30.8366 46.1307 31.6967C46.9901 32.5561 46.9901 33.95 46.1307 34.8083Z" fill="#6FA5AA"/>
</g>
<defs>
<clipPath id="clip0">
<rect width="75" height="75" fill="white"/>
</clipPath>
</defs>
</svg>
