<svg width="555" height="413" viewBox="0 0 555 413" fill="none" xmlns="http://www.w3.org/2000/svg">
<g clip-path="url(#clip0)">
<path opacity="0.1" d="M322.459 57.9C286.879 56.9809 252.992 48.439 220.634 39.0935C188.275 29.748 156.224 19.3734 121.496 14.4199C99.1597 11.2332 73.6125 10.7819 55.6191 19.6926C38.2963 28.2565 32.6998 43.0397 29.6926 56.7992C27.4276 67.1299 26.0972 77.9999 32.2984 87.6701C36.6085 94.3847 44.2501 100.026 49.5388 106.46C67.9391 128.839 54.9319 156.429 34.9977 178.279C25.6519 188.527 14.7942 198.302 7.57594 209.216C0.357647 220.13 -2.97937 232.624 3.33732 243.758C9.59354 254.766 24.5084 263.071 40.6657 268.899C73.4806 280.738 112.134 284.123 149.853 286.044C233.322 290.293 317.231 288.449 400.92 286.594C431.894 285.912 462.999 285.224 493.466 281.641C510.388 279.665 527.853 276.522 540.141 268.943C555.732 259.323 559.596 243.031 549.145 230.967C531.619 210.73 483.175 205.699 470.91 183.981C464.17 172.027 471.091 158.713 480.893 147.623C501.916 123.841 537.15 102.976 539.003 75.7874C540.278 57.1185 523.34 38.4165 497.15 29.5829C469.7 20.3255 431.63 21.4868 411.388 36.8149C390.525 52.6164 353.878 58.6926 322.459 57.9Z" fill="#FD8D1F"/>
<g opacity="0.8">
<path opacity="0.8" d="M516.094 98.397C516.094 98.397 509.893 95.8762 490.168 104.935C470.442 113.995 467.979 112.844 462.872 111.457C457.765 110.071 454.917 109.746 449.442 102.184C449.442 102.184 445.593 81.2306 441.844 77.9669C438.095 74.7031 422.229 79.8216 422.229 79.8216C422.229 79.8216 403.196 84.2027 399.546 58.7255C399.546 58.7255 402.119 39.5283 398.611 33.6337C398.611 33.6337 405.692 36.6883 417.369 31.7569C429.046 26.8255 438.392 37.0736 438.392 37.0736C438.392 37.0736 441.338 44.7073 441.03 49.2535C440.723 53.7996 442.586 55.5168 448.177 53.3153C448.177 53.3153 450.926 49.4186 447.039 42.9792C443.153 36.5397 440.398 31.7404 441.481 26.7374C442.564 21.7345 445.67 14.8052 455.659 11.3268C465.649 7.84837 479.222 7.19892 485.737 4.51307C492.251 1.82721 493.823 0.0274658 493.823 0.0274658C493.823 0.0274658 489.816 4.05075 499.261 21.0905C508.705 38.1303 502.686 45.5329 502.686 45.5329C502.686 45.5329 497.661 57.5202 475.484 56.5405C475.484 56.5405 454.115 57.3221 465.764 66.3923C465.764 66.3923 473.224 64.8733 484.384 61.3233C495.544 57.7734 503.587 72.4245 505.588 82.6176C507.589 92.8106 516.094 98.397 516.094 98.397Z" fill="#FD8D1F"/>
<path opacity="0.8" d="M487.375 12.9283L487.49 12.8953C488.348 16.1481 478.798 29.2141 470.634 39.6053L470.541 39.5337C482.053 24.8771 488.056 15.4271 487.375 12.9283Z" fill="#444053"/>
<path opacity="0.8" d="M470.707 39.3192L470.756 39.4513C464.236 47.751 456.034 57.6579 449.47 64.9944C448.843 65.6934 448.222 66.4254 447.628 67.196L447.436 67.0474C448.04 66.2933 448.662 65.5558 449.288 64.8458C455.852 57.4983 464.192 47.6134 470.707 39.3192Z" fill="#444053"/>
<path opacity="0.8" d="M447.595 66.8271L447.727 67.0472C435.78 81.9791 434.989 105.161 434.961 105.365L432.443 102.481C432.471 102.25 435.566 81.858 447.595 66.8271Z" fill="#444053"/>
<path opacity="0.8" d="M502.246 90.3009C502.246 90.3009 488.161 82.9699 477.183 85.6007C466.204 88.2315 441.493 76.2992 441.493 76.2992C441.493 76.2992 430.998 72.0338 428.887 67.1684C428.887 67.1684 421.691 59.5457 421.278 55.6104C420.866 51.6752 413.84 41.7464 409.288 41.3886" stroke="#444053" stroke-miterlimit="10"/>
<path opacity="0.8" d="M500.206 97.3567C500.206 97.3567 493.114 92.5739 493.939 86.993" stroke="#444053" stroke-miterlimit="10"/>
<path opacity="0.8" d="M489.327 103.537C489.327 103.537 479.178 99.8499 478.161 85.3749" stroke="#444053" stroke-miterlimit="10"/>
<path opacity="0.8" d="M472.955 107.28C472.955 107.28 463.257 99.2281 466.479 85.1548" stroke="#444053" stroke-miterlimit="10"/>
<path opacity="0.8" d="M453.279 103.345C453.279 103.345 446.825 89.789 452.57 80.9719" stroke="#444053" stroke-miterlimit="10"/>
<path opacity="0.8" d="M502.41 81.3627C502.41 81.3627 495.071 83.6963 496.649 87.56" stroke="#444053" stroke-miterlimit="10"/>
<path opacity="0.8" d="M493.554 68.0325C493.554 68.0325 483.736 71.1476 483.505 85.0557" stroke="#444053" stroke-miterlimit="10"/>
<path opacity="0.8" d="M479.866 64.8238C479.866 64.8238 470.932 75.8644 471.564 85.8978" stroke="#444053" stroke-miterlimit="10"/>
<path opacity="0.8" d="M464.219 69.1552C464.219 69.1552 455.34 77.6476 456.473 82.3643" stroke="#444053" stroke-miterlimit="10"/>
<path opacity="0.8" d="M458.865 66.1557C458.865 66.1557 450.542 67.6473 449.382 64.9119" stroke="#444053" stroke-miterlimit="10"/>
<path opacity="0.8" d="M448.051 56.0947C448.051 56.0947 452.256 61.67 453.339 60.4207" stroke="#444053" stroke-miterlimit="10"/>
<path opacity="0.8" d="M489.734 52.5668C489.734 52.5668 468.755 54.0913 464.011 47.762" stroke="#444053" stroke-miterlimit="10"/>
<path opacity="0.8" d="M443.636 28.0033C443.636 28.0033 453.482 49.1544 460.629 51.8513" stroke="#444053" stroke-miterlimit="10"/>
<path opacity="0.8" d="M453.972 17.9258C453.972 17.9258 460.019 37.3818 467.507 43.458" stroke="#444053" stroke-miterlimit="10"/>
<path opacity="0.8" d="M498.562 36.5122C498.562 36.5122 482.619 43.3645 473.031 36.4297" stroke="#444053" stroke-width="0.75" stroke-miterlimit="10"/>
<path opacity="0.8" d="M468.178 13.776C468.178 13.776 471.823 28.0859 476.732 31.5368" stroke="#444053" stroke-width="0.75" stroke-miterlimit="10"/>
<path opacity="0.8" d="M496.154 20.4741C496.154 20.4741 487.188 23.87 483.84 21.2667" stroke="#444053" stroke-width="0.75" stroke-miterlimit="10"/>
<path opacity="0.8" d="M440.37 60.7674C440.37 60.7674 440.37 73.2335 436.979 74.1196" stroke="#444053" stroke-miterlimit="10"/>
<path opacity="0.8" d="M412.652 76.9211C412.652 76.9211 426.121 78.0769 432.328 71.1201" stroke="#444053" stroke-miterlimit="10"/>
<path opacity="0.8" d="M436.896 46.0392C436.896 46.0392 433.642 58.698 424.653 62.0883" stroke="#444053" stroke-miterlimit="10"/>
<path opacity="0.8" d="M404.576 63.602C404.576 63.602 414.109 66.9043 422.306 58.4724" stroke="#444053" stroke-miterlimit="10"/>
<path opacity="0.8" d="M426.303 35.1692C426.303 35.1692 425.401 45.9071 419.568 50.9321" stroke="#444053" stroke-miterlimit="10"/>
<path opacity="0.8" d="M404.939 47.2391C404.939 47.2391 412.85 47.2887 414.703 44.7129" stroke="#444053" stroke-miterlimit="10"/>
</g>
<path opacity="0.1" d="M144.514 413C210.703 413 264.36 409.181 264.36 404.469C264.36 399.758 210.703 395.938 144.514 395.938C78.3242 395.938 24.667 399.758 24.667 404.469C24.667 409.181 78.3242 413 144.514 413Z" fill="#FD8D1F"/>
<path d="M213.943 358.022C215.592 355.056 217.566 352.26 219.16 349.255C220.617 346.503 221.755 343.586 223.069 340.757C225.318 335.914 228.088 331.335 230.612 326.623C232.261 323.536 233.855 320.173 233.537 316.683C233.234 313.381 231.299 310.519 230.551 307.327C227.506 294.222 220.177 282.191 215.708 269.516C214.564 266.302 213.454 263.065 212.025 259.961C209.276 253.99 205.428 248.623 201.579 243.301C200.192 241.268 198.648 239.347 196.961 237.555C195.581 236.174 194.031 234.957 192.778 233.46C190.194 230.378 188.984 225.942 185.752 223.554C185.697 223.697 185.636 223.834 185.576 223.977C183.261 218.061 175.499 214.159 170.996 209.255C168.375 206.26 165.963 203.088 163.778 199.761L153.976 185.577C152.288 183.134 150.567 180.624 149.886 177.712C149.05 174.201 149.825 170.458 149.001 166.947C148.473 164.833 147.446 162.877 146.004 161.245C146.098 161.217 146.197 161.179 146.296 161.157C148.165 160.656 150.144 160.568 151.997 160.122C156.037 159.159 159.55 156.572 163.575 155.537C165.631 154.987 167.824 154.877 169.688 153.886C170.594 153.343 171.309 152.531 171.733 151.562C172.157 150.594 172.268 149.517 172.052 148.482C170.749 141.574 174.388 134.574 173.773 127.567C173.608 125.63 173.113 123.742 172.794 121.821C172.052 117.363 172.189 112.795 172.453 108.271C173.708 106.232 175.213 104.359 176.934 102.695C179.408 100.307 182.36 98.2924 184.081 95.3039C185.581 92.6565 185.944 89.4588 185.565 86.4317C185.295 84.2302 184.548 81.9131 182.816 80.5757C181.084 79.2382 178.599 79.1392 176.505 79.8382C176.214 79.9317 175.928 80.0473 175.647 80.1684C174.772 79.7297 173.816 79.4742 172.839 79.4175C171.862 79.3607 170.883 79.5038 169.963 79.8382C167.874 80.5316 166.082 81.9131 164.399 83.3496C163.402 84.1323 162.528 85.0599 161.804 86.1015C160.743 87.7526 160.436 89.789 160.034 91.7319C159.181 95.4824 157.937 99.133 156.323 102.624C156.026 103.24 155.224 104.347 154.575 105.403L153.399 105.161C152.887 110.065 148.786 113.665 146.29 117.902C145.075 119.961 144.223 122.212 143.129 124.342C141.881 126.661 140.487 128.898 138.957 131.04C137.472 133.242 135.986 135.423 134.498 137.584C132.633 140.422 130.614 143.156 128.451 145.774C126.433 145.609 124.416 145.46 122.403 145.427C119.026 145.379 115.653 145.679 112.337 146.324C112.144 145.157 112.025 143.979 111.98 142.796C111.98 142.725 111.98 142.653 111.98 142.582C111.98 142.295 112.013 141.954 112.052 141.585C114.909 139.67 117.234 137.06 118.811 134C120.387 130.941 121.163 127.531 121.066 124.09C120.969 120.648 120.002 117.288 118.255 114.322C116.508 111.356 114.039 108.883 111.079 107.132C111.188 106.513 111.257 105.888 111.287 105.26C111.287 104.891 111.287 104.517 111.287 104.159C111.287 103.972 111.287 103.785 111.249 103.609C111.215 103.238 111.152 102.87 111.062 102.508C111.018 102.332 110.969 102.156 110.908 101.958C110.791 101.613 110.638 101.281 110.452 100.967C110.44 100.948 110.427 100.93 110.413 100.912C110.342 100.797 110.27 100.681 110.188 100.571C110.105 100.461 110.116 100.483 110.083 100.439C110.026 100.358 109.963 100.281 109.897 100.208L109.759 100.065C109.699 99.9986 109.638 99.9326 109.572 99.872L109.418 99.7344L109.226 99.5638L109.05 99.4317L108.852 99.2831L108.66 99.1565L108.462 99.0299C108.396 98.9859 108.324 98.9474 108.253 98.9088L108.049 98.7933L107.829 98.6832L107.626 98.5841L107.384 98.4796L107.186 98.3915L106.922 98.2924L106.735 98.2209L106.45 98.1218L106.279 98.0668L105.966 97.9677L105.817 97.9237L105.476 97.8301L105.345 97.7916L104.987 97.7035L104.883 97.676L104.487 97.5879H104.421L103.838 97.4614C101.43 96.966 99.0077 96.5385 96.5705 96.179C94.5749 95.8818 92.5298 95.6286 90.5616 96.0744C87.8458 96.6798 85.5808 98.5181 83.041 99.6574C80.0393 101.011 76.7078 101.369 73.5082 102.112C70.3086 102.855 67.0156 104.126 65.009 106.752C63.4807 108.755 62.8705 111.303 62.4142 113.786C58.6098 134.502 62.711 155.752 63.4862 176.81C63.7886 185.005 63.4202 193.767 58.7803 200.476L72.2933 200.118C72.942 200.118 73.5962 200.08 74.2559 200.041C74.9156 200.003 75.5753 199.953 76.224 199.876C77.9378 199.715 79.6027 199.216 81.1223 198.407C81.8261 198.005 82.4685 197.505 83.03 196.921C84.8662 195.027 85.8447 192.38 86.7408 189.848C87.0432 188.995 87.3456 188.131 87.6149 187.261C87.7249 186.898 87.8294 186.535 87.9228 186.161L87.9668 185.985L88.1207 186.056C88.6705 187.091 89.2917 188.104 89.9514 189.083C92.3099 192.562 95.3005 195.534 98.2692 198.489C104.168 204.351 110.199 210.317 117.593 214.081C120.089 215.342 122.788 216.404 124.69 218.485C125.625 219.492 126.433 220.785 127.758 221.132C128.583 221.346 129.49 221.132 130.276 221.484C131.43 221.968 131.854 223.361 132.387 224.506C132.92 225.65 134.124 226.817 135.268 226.294C135.053 227.357 135.142 228.459 135.523 229.474C135.904 230.489 136.562 231.376 137.423 232.035C137.977 232.343 138.454 232.772 138.819 233.29C138.995 233.762 139.092 234.261 139.105 234.765C139.34 236.17 140.081 237.441 141.189 238.337C140.117 240.114 140.974 242.663 141.002 244.881C141.002 246.741 140.391 248.535 139.974 250.346C138.759 255.657 139.424 261.216 140.413 266.571C140.963 269.527 141.661 272.587 143.586 274.882C144.212 275.625 144.96 276.269 145.62 276.99C146.879 278.411 147.925 280.007 148.726 281.729C150.394 285.138 151.531 288.784 152.096 292.538C152.361 294.422 152.898 296.257 153.69 297.987C154.894 300.618 153.794 303.854 154.872 306.54C155.361 307.745 156.263 308.774 156.554 310.035C156.967 311.868 156.005 313.7 155.746 315.566C155.119 319.936 158.27 323.992 158.555 328.395C158.602 328.654 158.547 328.92 158.401 329.139C158.187 329.381 157.819 329.375 157.527 329.513C156.978 329.777 156.829 330.52 156.653 331.136C156.477 331.753 155.983 332.452 155.372 332.265C146.34 337.103 136.988 341.572 127.956 346.409L123.833 348.611L101.782 360.406C101.514 360.539 101.289 360.745 101.133 361C100.976 361.255 100.895 361.548 100.897 361.848C100.897 362.112 100.93 362.398 100.952 362.646C99.4072 363.031 97.9229 363.493 96.8673 363.686C96.433 363.768 95.9987 363.851 95.5699 363.945C95.6742 363.777 95.7417 363.59 95.7678 363.394C95.7696 363.123 95.6713 362.861 95.4917 362.657C95.3121 362.454 95.0639 362.325 94.7948 362.293C94.2561 362.24 93.7125 362.312 93.206 362.503C91.9455 362.847 90.6581 363.085 89.3577 363.213C87.8129 363.361 86.2406 363.356 84.7452 363.763C83.2499 364.17 81.7765 365.078 81.1718 366.515C80.8693 367.346 80.7347 368.229 80.776 369.113C80.7425 372.515 81.1453 375.907 81.9745 379.207C81.9876 379.338 82.0306 379.464 82.1002 379.575C82.1698 379.687 82.2641 379.781 82.3758 379.851C82.5682 379.928 82.7991 379.851 82.9915 379.939C83.1609 380.041 83.2877 380.201 83.3488 380.39C84.2724 382.492 84.4868 384.837 84.7342 387.127C85.1007 390.521 85.5644 393.905 86.1251 397.281C86.455 399.251 86.8618 401.31 88.1427 402.829C89.5501 404.48 91.7766 405.212 93.9261 405.504C98.4616 406.115 103.041 405.196 107.516 404.254C108.352 404.078 109.248 403.864 109.809 403.214C110.219 402.696 110.415 402.04 110.358 401.381C110.254 399.119 108.198 397.529 106.329 396.257L103.778 394.491C103.56 394.375 103.388 394.19 103.288 393.964C103.188 393.738 103.167 393.486 103.228 393.247L103.393 389.906H102.898C103.448 387.55 104.333 385.288 106.065 383.67C107.258 382.569 108.814 381.799 110.061 380.797C111.663 382.03 113.602 382.742 115.619 382.839C118.918 378.392 123.563 375.365 128.209 372.382C131.982 369.996 135.882 367.817 139.891 365.854C143.138 364.247 146.437 362.741 149.787 361.336C154.515 359.343 159.331 357.566 164.152 355.832C167.368 354.676 170.612 353.537 173.575 351.831C181.271 347.378 186.708 338.49 185.669 329.59C184.361 318.362 187.159 306.661 186.972 295.356C186.917 292.054 186.796 288.752 185.796 285.587C186.029 285.752 186.247 285.936 186.45 286.137C188.451 288.009 188.935 290.981 190.848 293.116C192.338 294.795 194.603 295.868 195.504 297.915C196.192 299.484 196.093 301.603 197.528 302.506C197.934 302.764 198.418 302.874 198.825 303.128C199.312 303.475 199.722 303.919 200.029 304.432C201.552 306.606 203.13 308.934 203.294 311.587C203.366 312.638 203.267 313.854 204.037 314.564C204.257 314.768 204.537 314.917 204.652 315.192C204.894 315.742 204.257 316.326 204.147 316.937C203.987 317.784 204.823 318.428 205.34 319.138C205.771 319.73 206.003 320.444 206.003 321.177C206.003 321.91 205.771 322.624 205.34 323.216C200.832 329.078 200.018 336.976 196.076 343.245C194.713 345.408 193.195 347.455 191.876 349.646C187.819 356.371 185.768 364.099 183.778 371.71C184.628 373.192 185.78 374.479 187.159 375.486C186.414 378.049 185.13 380.423 183.393 382.448C182.95 382.944 182.535 383.464 182.151 384.006C181.828 383.597 181.406 383.279 180.925 383.081C180.202 386.241 179.833 389.471 179.825 392.713C179.825 394.848 180.117 397.287 181.849 398.519C182.54 398.955 183.3 399.27 184.097 399.45L187.868 400.55C188.532 400.805 189.252 400.875 189.952 400.754C190.397 400.627 190.793 400.352 191.249 400.264C191.745 400.213 192.246 400.279 192.712 400.457L195.972 401.409C197.074 401.703 198.151 402.084 199.193 402.548C200.122 402.994 200.98 403.572 201.893 404.067C203.41 404.835 204.985 405.483 206.604 406.005L212.222 407.942C213.788 408.563 215.424 408.988 217.093 409.208C218.248 409.307 219.419 409.208 220.557 409.406C221.425 409.555 222.267 409.868 223.141 409.956C224.591 410 226.017 409.575 227.209 408.746C227.674 408.482 228.076 408.12 228.385 407.683C229.21 406.395 228.501 404.695 227.698 403.396C226.208 400.985 224.345 398.729 221.887 397.342C220.892 396.791 219.815 396.384 218.787 395.878C215.862 394.447 213.657 392.058 210.892 390.423C210.539 390.172 210.111 390.051 209.679 390.08C209.247 390.109 208.838 390.287 208.523 390.583C206.225 389.091 203.74 387.633 202.475 385.206C201.912 384.035 201.541 382.78 201.376 381.491C202.668 381.799 203.971 382.041 205.285 382.256C207.423 373.956 209.76 365.508 213.943 358.022ZM161.128 123.291C161.018 123.913 160.897 124.529 160.765 125.145C159.666 130.314 158.094 136.104 154.498 139.951C153.316 141.078 151.942 141.986 150.441 142.631L150.04 142.829C152.629 135.905 156.752 129.488 161.128 123.291Z" fill="url(#paint0_linear)"/>
<path d="M166.45 92.6345C166.856 90.7136 167.164 88.6993 168.225 87.0426C168.951 86.001 169.827 85.0735 170.826 84.2907C172.508 82.8652 174.306 81.4948 176.4 80.8013C178.495 80.1078 180.958 80.2014 182.717 81.5333C184.476 82.8652 185.218 85.1603 185.493 87.3508C185.867 90.3614 185.493 93.5316 184.003 96.1569C182.299 99.1345 179.341 101.11 176.856 103.499C175.056 105.223 173.491 107.177 172.2 109.311C171.613 110.423 170.901 111.464 170.078 112.415C169.661 112.888 169.138 113.256 168.553 113.491C167.968 113.725 167.336 113.818 166.708 113.764C165.647 113.593 164.784 112.855 163.959 112.151C162.942 111.259 160.204 109.669 160.111 108.254C160.045 107.109 162.183 104.512 162.706 103.438C164.331 99.9793 165.585 96.3578 166.45 92.6345Z" fill="#FBBEBE"/>
<path opacity="0.1" d="M166.45 92.6345C166.856 90.7136 167.164 88.6993 168.225 87.0426C168.951 86.001 169.827 85.0735 170.826 84.2907C172.508 82.8652 174.306 81.4948 176.4 80.8013C178.495 80.1078 180.958 80.2014 182.717 81.5333C184.476 82.8652 185.218 85.1603 185.493 87.3508C185.867 90.3614 185.493 93.5316 184.003 96.1569C182.299 99.1345 179.341 101.11 176.856 103.499C175.056 105.223 173.491 107.177 172.2 109.311C171.613 110.423 170.901 111.464 170.078 112.415C169.661 112.888 169.138 113.256 168.553 113.491C167.968 113.725 167.336 113.818 166.708 113.764C165.647 113.593 164.784 112.855 163.959 112.151C162.942 111.259 160.204 109.669 160.111 108.254C160.045 107.109 162.183 104.512 162.706 103.438C164.331 99.9793 165.585 96.3578 166.45 92.6345Z" fill="black"/>
<path d="M108.726 147.645C113.13 146.472 117.676 145.917 122.233 145.994C129.836 146.104 137.665 147.948 144.905 145.614C146.774 144.965 148.592 144.176 150.342 143.253C151.799 142.526 153.283 141.778 154.399 140.589C158 136.769 159.55 131.018 160.677 125.883C161.804 120.748 162.096 115.475 162.387 110.23C164.262 111.105 166.235 111.969 168.314 111.793C170.392 111.617 172.464 110.032 172.453 107.941C172.145 112.8 171.903 117.721 172.723 122.52C173.041 124.424 173.536 126.301 173.707 128.228C174.322 135.184 170.678 142.136 171.98 148.999C172.196 150.028 172.083 151.1 171.659 152.062C171.235 153.025 170.521 153.83 169.616 154.365C167.747 155.372 165.548 155.499 163.492 156.016C159.462 157.045 155.944 159.61 151.898 160.568C150.012 161.014 148.05 161.118 146.191 161.597C143.52 162.302 141.095 163.832 138.374 164.316C136.334 164.679 134.234 164.432 132.173 164.608C130.38 164.756 128.621 165.23 126.824 165.274C122.425 165.384 118.264 162.891 115.339 159.583C112.414 156.275 110.562 151.652 108.726 147.645Z" fill="#FD8D1F"/>
<path opacity="0.1" d="M108.726 147.645C113.13 146.472 117.676 145.917 122.233 145.994C129.836 146.104 137.665 147.948 144.905 145.614C146.774 144.965 148.592 144.176 150.342 143.253C151.799 142.526 153.283 141.778 154.399 140.589C158 136.769 159.55 131.018 160.677 125.883C161.804 120.748 162.096 115.475 162.387 110.23C164.262 111.105 166.235 111.969 168.314 111.793C170.392 111.617 172.464 110.032 172.453 107.941C172.145 112.8 171.903 117.721 172.723 122.52C173.041 124.424 173.536 126.301 173.707 128.228C174.322 135.184 170.678 142.136 171.98 148.999C172.196 150.028 172.083 151.1 171.659 152.062C171.235 153.025 170.521 153.83 169.616 154.365C167.747 155.372 165.548 155.499 163.492 156.016C159.462 157.045 155.944 159.61 151.898 160.568C150.012 161.014 148.05 161.118 146.191 161.597C143.52 162.302 141.095 163.832 138.374 164.316C136.334 164.679 134.234 164.432 132.173 164.608C130.38 164.756 128.621 165.23 126.824 165.274C122.425 165.384 118.264 162.891 115.339 159.583C112.414 156.275 110.562 151.652 108.726 147.645Z" fill="black"/>
<path d="M306.434 154.409C313.919 154.409 321.237 156.631 327.46 160.795C333.684 164.958 338.535 170.876 341.399 177.799C344.263 184.723 345.012 192.341 343.552 199.691C342.091 207.041 338.486 213.792 333.193 219.09C327.9 224.389 321.156 227.997 313.814 229.458C306.472 230.92 298.863 230.168 291.948 227.3C285.032 224.431 279.122 219.574 274.964 213.343C270.807 207.112 268.588 199.786 268.589 192.292C268.59 182.244 272.578 172.609 279.676 165.504C286.773 158.4 296.398 154.409 306.434 154.409ZM306.434 145.053C297.1 145.053 287.976 147.824 280.216 153.015C272.455 158.207 266.406 165.586 262.835 174.219C259.263 182.852 258.329 192.352 260.15 201.516C261.972 210.681 266.467 219.099 273.067 225.706C279.667 232.313 288.077 236.813 297.231 238.635C306.386 240.457 315.874 239.521 324.497 235.944C333.12 232.368 340.49 226.311 345.675 218.541C350.86 210.771 353.626 201.636 353.625 192.292C353.611 179.767 348.634 167.759 339.787 158.903C330.94 150.047 318.945 145.066 306.434 145.053Z" fill="#3F3D56"/>
<path d="M310.507 134.001H299.446V145.658H310.507V134.001Z" fill="#3F3D56"/>
<path d="M339.718 144.433L330.236 138.73L324.239 148.722L333.721 154.425L339.718 144.433Z" fill="#3F3D56"/>
<path d="M359.161 167.504L353.799 157.818L343.615 163.47L348.977 173.155L359.161 167.504Z" fill="#3F3D56"/>
<path d="M353.654 226.448L359.516 217.057L349.641 210.88L343.78 220.271L353.654 226.448Z" fill="#3F3D56"/>
<path d="M263.893 173.151L269.256 163.466L259.072 157.815L253.709 167.5L263.893 173.151Z" fill="#3F3D56"/>
<path d="M269.093 220.266L263.231 210.875L253.357 217.053L259.218 226.444L269.093 220.266Z" fill="#3F3D56"/>
<path d="M279.145 154.424L288.626 148.721L282.629 138.729L273.148 144.432L279.145 154.424Z" fill="#3F3D56"/>
<path d="M310.507 238.926H299.446V250.583H310.507V238.926Z" fill="#3F3D56"/>
<path d="M333.722 230.162L324.241 235.865L330.238 245.857L339.719 240.154L333.722 230.162Z" fill="#3F3D56"/>
<path d="M273.149 240.154L282.63 245.858L288.627 235.866L279.146 230.162L273.149 240.154Z" fill="#3F3D56"/>
<path d="M260.441 187.63H247.049V197.537H260.441V187.63Z" fill="#3F3D56"/>
<path d="M352.426 197.537H365.818V187.63H352.426V197.537Z" fill="#3F3D56"/>
<path d="M394.35 86.2116C401.836 86.2116 409.153 88.4339 415.376 92.5973C421.6 96.7608 426.451 102.678 429.315 109.602C432.179 116.525 432.929 124.144 431.468 131.493C430.007 138.843 426.402 145.594 421.109 150.893C415.816 156.191 409.072 159.799 401.73 161.261C394.388 162.722 386.779 161.971 379.864 159.102C372.948 156.234 367.038 151.377 362.88 145.145C358.723 138.914 356.504 131.588 356.505 124.094C356.507 114.047 360.494 104.411 367.592 97.3069C374.689 90.2026 384.314 86.2116 394.35 86.2116ZM394.35 76.8552C385.016 76.8552 375.892 79.6262 368.132 84.8177C360.371 90.0093 354.322 97.3882 350.751 106.021C347.179 114.654 346.245 124.154 348.066 133.319C349.888 142.484 354.383 150.902 360.983 157.509C367.583 164.116 375.993 168.615 385.147 170.437C394.302 172.26 403.79 171.323 412.413 167.747C421.036 164.17 428.406 158.114 433.591 150.344C438.776 142.573 441.542 133.439 441.541 124.094C441.527 111.569 436.55 99.5614 427.703 90.7053C418.856 81.8493 406.861 76.8683 394.35 76.8552Z" fill="#3F3D56"/>
<path d="M398.424 65.809H387.363V77.466H398.424V65.809Z" fill="#3F3D56"/>
<path d="M427.637 76.2317L418.156 70.5283L412.159 80.5204L421.64 86.2237L427.637 76.2317Z" fill="#3F3D56"/>
<path d="M447.081 99.3041L441.719 89.6188L431.535 95.2703L436.897 104.956L447.081 99.3041Z" fill="#3F3D56"/>
<path d="M441.569 158.251L447.431 148.86L437.556 142.683L431.695 152.074L441.569 158.251Z" fill="#3F3D56"/>
<path d="M351.806 104.96L357.169 95.2752L346.985 89.6238L341.623 99.309L351.806 104.96Z" fill="#3F3D56"/>
<path d="M357.008 152.073L351.146 142.682L341.272 148.859L347.133 158.25L357.008 152.073Z" fill="#3F3D56"/>
<path d="M367.062 86.2247L376.543 80.5213L370.546 70.5292L361.065 76.2326L367.062 86.2247Z" fill="#3F3D56"/>
<path d="M398.424 170.728H387.363V182.385H398.424V170.728Z" fill="#3F3D56"/>
<path d="M421.639 161.966L412.158 167.669L418.155 177.661L427.636 171.958L421.639 161.966Z" fill="#3F3D56"/>
<path d="M361.062 171.955L370.543 177.658L376.54 167.666L367.059 161.963L361.062 171.955Z" fill="#3F3D56"/>
<path d="M348.352 119.433H334.96V129.339H348.352V119.433Z" fill="#3F3D56"/>
<path d="M440.348 129.339H453.74V119.433H440.348V129.339Z" fill="#3F3D56"/>
<path d="M218.495 83.2945C218.94 83.2945 219.385 83.2945 219.831 83.2945C229.75 83.6332 239.139 87.8595 245.976 95.0627C252.813 102.266 256.549 111.87 256.38 121.805C256.212 131.74 252.151 141.211 245.074 148.177C237.997 155.144 228.469 159.048 218.544 159.049C218.099 159.049 217.654 159.049 217.203 159.049C207.283 158.71 197.893 154.484 191.056 147.28C184.22 140.076 180.484 130.471 180.653 120.536C180.822 110.6 184.884 101.129 191.962 94.1633C199.041 87.1973 208.569 83.294 218.495 83.2945ZM218.495 73.938C206.118 73.9365 194.236 78.803 185.409 87.4888C176.582 96.1746 171.517 107.984 171.305 120.374C171.093 132.763 175.751 144.739 184.276 153.723C192.8 162.706 204.509 167.977 216.878 168.4C217.428 168.4 217.978 168.427 218.528 168.427C230.904 168.427 242.785 163.56 251.611 154.874C260.437 146.188 265.501 134.378 265.712 121.989C265.923 109.6 261.265 97.6246 252.74 88.6418C244.216 79.659 232.508 74.3884 220.138 73.9656C219.589 73.9656 219.039 73.938 218.489 73.938H218.495Z" fill="#3F3D56"/>
<path d="M224.603 63.0778L213.549 62.6933L213.144 74.3433L224.199 74.7279L224.603 63.0778Z" fill="#3F3D56"/>
<path d="M253.43 74.5105L244.152 68.481L237.812 78.2585L247.09 84.288L253.43 74.5105Z" fill="#3F3D56"/>
<path d="M272.065 98.2425L267.042 88.3766L256.668 93.6707L261.692 103.536L272.065 98.2425Z" fill="#3F3D56"/>
<path d="M264.524 156.944L270.708 147.763L261.054 141.246L254.87 150.428L264.524 156.944Z" fill="#3F3D56"/>
<path d="M176.657 100.571L182.353 91.0779L172.371 85.0758L166.676 94.5688L176.657 100.571Z" fill="#3F3D56"/>
<path d="M179.449 148.752L173.918 139.117L163.788 144.946L169.318 154.58L179.449 148.752Z" fill="#3F3D56"/>
<path d="M192.562 82.3767L202.235 77.0064L196.589 66.8119L186.915 72.1822L192.562 82.3767Z" fill="#3F3D56"/>
<path d="M220.968 167.928L209.914 167.544L209.51 179.194L220.564 179.578L220.968 167.928Z" fill="#3F3D56"/>
<path d="M244.479 159.985L234.806 165.356L240.452 175.55L250.126 170.18L244.479 159.985Z" fill="#3F3D56"/>
<path d="M183.603 167.854L192.881 173.883L199.221 164.106L189.943 158.076L183.603 167.854Z" fill="#3F3D56"/>
<path d="M172.711 114.928L159.327 114.462L158.984 124.363L172.367 124.828L172.711 114.928Z" fill="#3F3D56"/>
<path d="M264.309 128.011L277.693 128.477L278.037 118.576L264.653 118.11L264.309 128.011Z" fill="#3F3D56"/>
<path d="M96.6309 362.761C95.2689 362.928 93.9483 363.34 92.7331 363.978C91.0838 364.985 90.0668 366.763 89.3411 368.557C87.5214 373.059 87.1421 378.001 87.0651 382.867C86.9992 386.785 87.1311 390.798 88.533 394.452C88.9175 395.609 89.5845 396.651 90.4736 397.485C91.2557 398.101 92.1615 398.54 93.1289 398.773C95.218 399.323 97.6424 399.323 99.3522 398.002C101.254 396.511 101.733 393.885 102.134 391.502C102.684 388.288 103.448 384.898 105.834 382.657C107.604 381.006 110.138 380.181 111.425 378.133C112.959 375.701 112.15 372.525 111.172 369.817C110.32 367.472 109.072 362.712 106.62 361.512C104.168 360.312 99.1817 362.299 96.6309 362.761Z" fill="#FBBEBE"/>
<path d="M187.049 374.292C186.308 376.916 184.994 379.343 183.201 381.397C182.101 382.652 180.754 384.177 181.332 385.734C181.566 386.262 181.916 386.73 182.354 387.105C190.414 395.003 201.689 398.844 212.877 400.242C213.057 400.291 213.246 400.291 213.426 400.242C213.756 400.094 213.833 399.692 213.877 399.323C214.056 398.156 214.056 396.968 213.877 395.801C213.327 393.049 210.936 391.139 208.594 389.631C206.252 388.123 203.69 386.659 202.382 384.199C200.733 381.139 201.442 377.154 199.501 374.292C197.929 371.964 195.01 370.99 192.239 370.533C191.277 370.384 189.232 369.327 188.391 369.817C187.533 370.313 187.341 373.334 187.049 374.292Z" fill="#FBBEBE"/>
<path d="M95.5314 362.475C95.5332 362.204 95.4349 361.941 95.2553 361.738C95.0757 361.535 94.8276 361.406 94.5584 361.374C94.0202 361.319 93.4765 361.389 92.9696 361.578C91.7089 361.921 90.4216 362.156 89.1213 362.282C87.5765 362.431 85.9987 362.426 84.4978 362.833C82.997 363.24 81.5292 364.137 80.9189 365.585C80.6221 366.412 80.4877 367.288 80.5231 368.166C80.4921 371.544 80.8948 374.913 81.7216 378.188C81.7361 378.32 81.7803 378.446 81.8508 378.557C81.9213 378.669 82.0162 378.763 82.1284 378.832C82.3208 378.909 82.5517 378.832 82.7441 378.92C82.9131 379.021 83.0401 379.179 83.1015 379.366C84.0306 381.458 84.245 383.769 84.4924 386.059C84.8589 389.431 85.3225 392.792 85.8832 396.142C86.2131 398.096 86.6199 400.149 87.9063 401.646C89.3137 403.297 91.5457 404.007 93.6953 404.298C98.2362 404.904 102.821 403.99 107.307 403.055C108.163 402.969 108.967 402.608 109.6 402.025C110.01 401.511 110.206 400.859 110.149 400.204C110.045 397.958 107.983 396.351 106.114 395.118L103.541 393.384C103.362 393.285 103.208 393.146 103.091 392.977C102.969 392.72 102.925 392.433 102.964 392.152L103.129 388.849C101.42 388.876 99.7504 389.367 98.2982 390.27C96.8459 391.172 95.6655 392.452 94.8827 393.973C94.5254 394.683 94.19 395.514 93.4479 395.79C92.5298 396.136 91.5072 395.36 91.1994 394.43C90.9852 393.47 91.0136 392.471 91.2818 391.524C92.7882 383.445 92.4363 375.139 93.3544 366.972C93.4112 366.055 93.6925 365.167 94.1735 364.385C94.6188 363.768 95.449 363.229 95.5314 362.475Z" fill="#3F3D56"/>
<path d="M207.812 393.803C208.192 394.43 208.78 394.903 209.132 395.553C209.484 396.202 209.478 397.149 208.846 397.518C208.473 397.682 208.057 397.725 207.658 397.639C199.587 396.636 192.009 393.204 185.927 387.798C184.917 386.944 184.022 385.961 183.266 384.876C182.557 383.775 181.957 382.481 180.748 382.03C180.025 385.167 179.656 388.376 179.648 391.596C179.648 393.715 179.94 396.136 181.672 397.364C182.366 397.795 183.128 398.106 183.926 398.283L187.702 399.35C188.368 399.602 189.089 399.673 189.791 399.554C190.237 399.433 190.633 399.152 191.089 399.07C191.586 399.017 192.089 399.081 192.557 399.257L195.817 400.209C196.92 400.49 197.999 400.858 199.044 401.31C199.973 401.75 200.836 402.328 201.743 402.818C203.264 403.582 204.843 404.224 206.466 404.739L212.205 406.731C213.774 407.351 215.414 407.773 217.087 407.986C218.241 408.085 219.412 407.986 220.556 408.184C221.424 408.333 222.265 408.646 223.145 408.734C224.594 408.774 226.019 408.352 227.213 407.529C227.679 407.269 228.082 406.91 228.395 406.478C229.22 405.196 228.511 403.506 227.703 402.212C226.213 399.824 224.349 397.584 221.886 396.219C220.886 395.668 219.808 395.261 218.78 394.76C215.855 393.34 213.64 390.968 210.875 389.345C208.263 387.826 206.581 391.783 207.812 393.803Z" fill="#3F3D56"/>
<path d="M127.203 162.472C124.171 164.558 120.697 165.91 117.054 166.424C115.149 166.662 113.229 166.765 111.309 166.732C103.304 166.723 95.313 166.054 87.417 164.734C90.5616 161.267 93.7392 157.579 94.9266 153.033C95.5151 150.635 95.6364 148.146 95.284 145.702C94.8078 142.567 94.061 139.479 93.052 136.472C96.4199 136.653 99.7967 136.567 103.151 136.214C105.064 136.021 109.748 134.276 111.397 135.597C112.942 136.825 111.777 141.167 111.749 143.17C111.749 143.242 111.749 143.314 111.749 143.385C111.836 146.426 112.49 149.424 113.679 152.224C116.098 157.64 121.271 162.087 127.203 162.472Z" fill="#FBBEBE"/>
<path opacity="0.1" d="M111.771 143.143C109.361 144.719 106.643 145.76 103.798 146.197C100.953 146.633 98.0482 146.455 95.2779 145.675C94.8017 142.539 94.0549 139.451 93.0459 136.445C96.4138 136.626 99.7907 136.539 103.145 136.186C105.058 135.994 109.742 134.249 111.391 135.57C112.964 136.797 111.798 141.14 111.771 143.143Z" fill="black"/>
<path d="M100.754 145.488C111.866 145.488 120.875 136.469 120.875 125.344C120.875 114.219 111.866 105.2 100.754 105.2C89.6413 105.2 80.6328 114.219 80.6328 125.344C80.6328 136.469 89.6413 145.488 100.754 145.488Z" fill="#FBBEBE"/>
<path d="M186.125 227.274C186.136 228.9 185.723 230.501 184.928 231.919C184.132 233.337 182.982 234.522 181.589 235.359C180.034 236.177 178.367 236.761 176.641 237.093C167.439 239.294 158.01 241.105 148.56 240.566C146.515 240.45 144.437 240.208 142.601 239.311C140.764 238.414 139.198 236.735 138.923 234.71C138.91 234.209 138.812 233.713 138.631 233.246C138.267 232.73 137.789 232.304 137.235 232.002C136.385 231.348 135.735 230.469 135.36 229.464C134.985 228.458 134.899 227.368 135.113 226.316C133.964 226.828 132.765 225.673 132.227 224.533C131.688 223.394 131.265 222.018 130.11 221.539C129.324 221.203 128.417 221.402 127.587 221.187C126.262 220.846 125.454 219.536 124.519 218.556C122.611 216.514 119.907 215.457 117.411 214.203C110.006 210.465 103.969 204.543 98.0594 198.72C95.0852 195.787 92.0891 192.831 89.7306 189.364C89.0654 188.39 88.4662 187.388 87.8999 186.359C86.1119 182.927 84.5616 179.376 83.26 175.731C82.5123 173.783 81.7537 171.724 82.0615 169.677C82.089 169.49 82.1275 169.303 82.1715 169.126C82.5546 167.796 83.1727 166.545 83.9967 165.433C86.0417 162.423 88.7245 159.572 92.243 158.647C95.7614 157.723 99.2744 158.84 102.848 159.599C104.034 159.864 105.237 160.048 106.449 160.15C110.236 160.419 113.986 159.401 117.647 158.388L121.638 157.288C123.64 156.737 124.64 154.316 126.663 153.892C127.567 153.762 128.487 153.808 129.373 154.029C133.48 154.811 137.62 155.818 141.232 157.91C142.036 158.377 142.806 158.901 143.535 159.478C146.108 161.515 148.142 164.228 148.89 167.398C149.714 170.882 148.939 174.603 149.775 178.087C150.457 180.965 152.183 183.475 153.876 185.902L163.7 199.948C165.893 203.253 168.308 206.405 170.929 209.381C176.196 215.122 185.993 219.464 186.125 227.274Z" fill="#FD8D1F"/>
<path d="M159.891 92.6345C160.297 90.7136 160.6 88.6993 161.661 87.0426C162.386 86.001 163.263 85.0735 164.261 84.2907C165.949 82.8652 167.741 81.4948 169.836 80.8013C171.93 80.1078 174.393 80.2014 176.152 81.5333C177.912 82.8652 178.654 85.1603 178.929 87.3508C179.302 90.3614 178.929 93.5316 177.439 96.1569C175.735 99.1345 172.777 101.11 170.292 103.499C168.493 105.225 166.928 107.179 165.636 109.311C165.048 110.423 164.336 111.464 163.513 112.415C163.096 112.888 162.574 113.256 161.989 113.491C161.403 113.725 160.771 113.818 160.143 113.764C159.088 113.593 158.219 112.855 157.395 112.151C156.378 111.259 153.634 109.669 153.546 108.254C153.48 107.109 155.619 104.512 156.141 103.438C157.765 99.9785 159.022 96.3573 159.891 92.6345Z" fill="#FBBEBE"/>
<path d="M230.606 325.974C228.077 330.647 225.307 335.198 223.053 340.008C221.739 342.821 220.601 345.716 219.138 348.451C217.544 351.434 215.581 354.208 213.916 357.158C209.721 364.594 207.385 372.982 205.224 381.243C199.181 380.337 193.366 378.282 188.094 375.189C187.736 374.98 187.395 374.76 187.066 374.523C185.656 373.511 184.477 372.211 183.608 370.709C185.603 363.152 187.654 355.469 191.717 348.793C193.041 346.591 194.559 344.582 195.922 342.436C199.875 336.216 200.689 328.368 205.202 322.545C205.633 321.958 205.866 321.248 205.866 320.52C205.866 319.791 205.633 319.081 205.202 318.494C204.68 317.817 203.85 317.173 204.004 316.337C204.119 315.726 204.757 315.175 204.509 314.603C204.394 314.328 204.113 314.179 203.894 313.981C203.124 313.271 203.223 312.06 203.157 311.02C202.986 308.384 201.409 306.067 199.858 303.915C199.549 303.404 199.14 302.962 198.654 302.616C198.248 302.368 197.764 302.258 197.357 302.005C195.917 301.102 196.021 299 195.328 297.442C194.427 295.389 192.156 294.343 190.666 292.676C188.77 290.557 188.286 287.601 186.268 285.746C186.065 285.546 185.846 285.362 185.614 285.196C186.615 288.306 186.714 291.625 186.785 294.899C186.978 306.122 184.174 317.74 185.488 328.891C186.521 337.735 181.09 346.564 173.366 350.983C170.397 352.678 167.153 353.812 163.932 354.962C159.1 356.674 154.284 358.441 149.545 360.422C146.195 361.809 142.896 363.304 139.649 364.908C135.635 366.858 131.728 369.023 127.945 371.391C123.294 374.352 118.643 377.363 115.339 381.782C112.145 381.694 109.22 379.773 107.197 377.297C105.174 374.82 103.899 371.793 102.739 368.843C101.711 366.284 100.699 363.642 100.622 360.884C100.636 360.588 100.733 360.302 100.902 360.058C101.071 359.815 101.306 359.624 101.579 359.508L123.662 347.791L127.791 345.589C136.834 340.785 146.202 336.343 155.246 331.544C155.856 331.725 156.345 331.032 156.527 330.443C156.708 329.854 156.835 329.094 157.406 328.83C157.692 328.693 158.066 328.698 158.28 328.456C158.42 328.239 158.475 327.979 158.434 327.724C158.143 323.321 154.987 319.32 155.62 314.977C155.889 313.128 156.84 311.306 156.428 309.473C156.136 308.213 155.235 307.195 154.745 306C153.646 303.331 154.745 300.117 153.558 297.503C152.769 295.784 152.232 293.96 151.964 292.087C151.395 288.357 150.257 284.737 148.588 281.354C147.785 279.644 146.739 278.059 145.482 276.649C144.817 275.933 144.069 275.295 143.437 274.552C141.518 272.273 140.809 269.235 140.265 266.296C139.275 260.974 138.616 255.454 139.825 250.181C140.243 248.381 140.881 246.598 140.853 244.754C140.826 242.316 139.754 239.47 141.447 237.709C142.148 237.079 143 236.641 143.921 236.438C147.813 235.277 151.865 234.748 155.894 234.236L174.339 231.82C176.45 231.539 178.61 231.27 180.474 230.219C182.975 228.837 184.636 226.278 185.653 223.614C188.891 225.981 190.1 230.389 192.684 233.444C193.943 234.935 195.499 236.141 196.879 237.511C198.566 239.29 200.112 241.199 201.502 243.219C205.35 248.508 209.199 253.835 211.948 259.769C213.382 262.851 214.493 266.065 215.636 269.263C220.139 281.85 227.478 293.799 230.524 306.81C231.271 309.991 233.212 312.864 233.514 316.116C233.855 319.567 232.261 322.903 230.606 325.974Z" fill="#3F3D56"/>
<path opacity="0.1" d="M134.014 221.435C133.562 222.271 133.327 223.208 133.332 224.159C133.744 222.123 136.543 220.994 136.724 218.98C136.807 218.05 136.636 218.094 136.064 218.584C135.196 219.338 134.816 220.637 134.014 221.435Z" fill="black"/>
<path opacity="0.1" d="M142.541 227.621C141.95 228.12 141.508 228.774 141.265 229.509C140.789 230.544 140.698 231.714 141.007 232.811C141.419 232.618 141.557 232.112 141.683 231.672C141.886 230.986 142.18 230.33 142.557 229.723C142.887 229.173 144.41 227.946 144.404 227.368C144.388 226.482 142.948 227.307 142.541 227.621Z" fill="black"/>
<path opacity="0.1" d="M143.525 159.44C142.232 160.554 140.806 161.504 139.281 162.269C135.295 164.289 130.88 165.356 126.867 167.316C124.887 168.331 122.964 169.454 121.106 170.679L109.176 178.246C108.218 178.796 107.334 179.467 106.548 180.244C105.113 181.774 105.119 184.466 103.799 186.106C102.48 187.746 100.204 188.67 98.0106 188.781C95.8133 188.794 93.6307 188.421 91.5619 187.68C90.309 187.305 89.0791 186.856 87.8786 186.337C86.623 185.803 85.4347 185.123 84.3381 184.311C82.2106 182.704 80.4898 180.365 80.171 177.707C80.0277 175.883 80.2693 174.049 80.8802 172.324C81.2104 171.202 81.6353 170.11 82.1501 169.06C82.4433 168.463 82.7815 167.889 83.1617 167.343C85.9104 163.458 90.7318 161.636 95.3992 160.739C97.8511 160.26 100.347 159.968 102.826 159.55C104.013 159.814 105.216 159.998 106.427 160.1C110.215 160.37 113.964 159.352 117.626 158.339L121.617 157.238C123.618 156.688 124.619 154.266 126.642 153.842C127.546 153.712 128.466 153.759 129.352 153.98C133.459 154.762 137.598 155.769 141.21 157.86C142.019 158.331 142.792 158.858 143.525 159.44Z" fill="black"/>
<path d="M153.255 105.976C152.744 110.847 148.637 114.424 146.108 118.634C144.893 120.676 144.041 122.916 142.947 125.03C141.694 127.334 140.298 129.558 138.769 131.689L134.3 138.184C131.672 142.004 129.016 145.856 125.657 149.054C119.803 150.05 114.893 154.404 109.341 156.517C104.899 158.207 100.055 158.438 95.3934 159.346C90.7315 160.254 85.8991 162.098 83.1613 165.951C82.1419 167.47 81.3699 169.142 80.8744 170.904C80.2599 172.626 80.02 174.459 80.1707 176.281C80.506 178.934 82.2048 181.268 84.3323 182.886C86.4599 184.504 89.0052 185.462 91.5561 186.254C93.6256 186.993 95.8077 187.365 98.0047 187.355C100.204 187.245 102.436 186.397 103.799 184.68C105.163 182.963 105.097 180.349 106.548 178.819C107.336 178.042 108.221 177.37 109.181 176.821L121.111 169.253C122.968 168.036 124.889 166.921 126.867 165.912C130.88 163.947 135.295 162.885 139.28 160.865C143.266 158.845 146.977 155.51 147.774 151.107C150.204 137.579 159.555 126.175 167.565 115.002C167.301 114.947 167.384 114.347 167.285 114.094C166.262 111.441 163.986 109.443 161.424 108.183C158.863 106.922 156.004 106.57 153.255 105.976Z" fill="#FD8D1F"/>
<path d="M111.078 106.075C111.227 104.607 110.938 103.129 110.248 101.826C108.923 99.6243 106.147 98.8483 103.651 98.3309C101.236 97.8356 98.8098 97.41 96.3725 97.054C94.3714 96.7623 92.3208 96.5037 90.3527 96.955C87.6039 97.5549 85.3664 99.3767 82.821 100.51C79.8139 101.853 76.4824 102.206 73.2718 102.949C70.0612 103.692 66.7737 104.952 64.7616 107.561C63.2332 109.542 62.623 112.074 62.1667 114.54C58.3569 135.118 62.4581 156.225 63.2387 177.14C63.5411 185.28 63.1728 193.982 58.5273 200.669L72.0568 200.311C75.5203 200.223 79.2421 200.041 81.9524 197.9C84.3494 196.018 85.4818 192.985 86.5099 190.112C87.318 187.85 88.1317 185.544 88.2361 183.145C88.4505 178.23 85.6633 173.403 86.5869 168.565C87.2631 164.954 89.8854 162.037 92.6946 159.665C95.5039 157.293 98.6265 155.262 100.897 152.356C104.954 147.221 105.729 140.204 105.224 133.682C104.921 129.802 104.229 125.922 104.564 122.041C104.817 119.141 105.735 116.147 107.632 113.885C109.765 111.32 110.892 109.713 111.078 106.075Z" fill="#3F3D56"/>
<path opacity="0.1" d="M110.247 101.826C108.945 99.6574 106.24 98.8759 103.76 98.3585C105.078 98.8281 106.206 99.7174 106.971 100.89C107.663 102.192 107.952 103.672 107.801 105.139C107.614 108.772 106.487 110.379 104.332 112.949C102.435 115.211 101.517 118.2 101.264 121.106C100.929 124.986 101.622 128.866 101.924 132.746C102.43 139.268 101.655 146.286 97.6031 151.421C95.3271 154.305 92.2045 156.374 89.4008 158.73C86.597 161.085 83.9637 164.019 83.2875 167.629C82.3804 172.467 85.1677 177.294 84.9368 182.209C84.8323 184.609 84.0132 186.915 83.205 189.177C82.1825 192.05 81.0445 195.077 78.6476 196.959C75.8988 199.1 72.1989 199.287 68.752 199.375L59.1697 199.629C58.9553 199.981 58.7354 200.333 58.499 200.669L72.0285 200.311C75.492 200.223 79.2138 200.041 81.9241 197.9C84.321 196.018 85.4535 192.985 86.4816 190.112C87.2897 187.85 88.1033 185.544 88.2078 183.145C88.4222 178.23 85.6349 173.403 86.5585 168.565C87.2347 164.955 89.8571 162.038 92.6663 159.665C95.4756 157.293 98.5982 155.262 100.869 152.356C104.926 147.221 105.701 140.204 105.195 133.682C104.893 129.802 104.2 125.922 104.536 122.041C104.788 119.141 105.707 116.147 107.603 113.885C109.758 111.32 110.902 109.713 111.072 106.075C111.223 104.608 110.936 103.13 110.247 101.826Z" fill="black"/>
<path opacity="0.1" d="M211.898 313.926L187.065 374.55C185.656 373.539 184.477 372.239 183.607 370.736C185.603 363.18 187.654 355.496 191.716 348.82C193.041 346.619 194.559 344.61 195.922 342.463C199.875 336.244 200.688 328.396 205.202 322.572C205.633 321.985 205.866 321.276 205.866 320.547C205.866 319.818 205.633 319.109 205.202 318.522C204.68 317.845 203.849 317.201 204.003 316.364C204.119 315.753 204.757 315.203 204.509 314.631C204.394 314.355 204.113 314.207 203.893 314.009C203.124 313.299 203.223 312.088 203.157 311.048C202.986 308.411 201.409 306.094 199.858 303.942C199.549 303.432 199.139 302.99 198.654 302.643C198.247 302.396 197.764 302.285 197.357 302.032C195.916 301.13 196.021 299.027 195.328 297.47C194.427 295.417 192.156 294.371 190.666 292.703C188.77 290.584 188.286 287.629 186.268 285.774L186.098 285.345L188.033 273.649L211.898 313.926Z" fill="black"/>
</g>
<defs>
<linearGradient id="paint0_linear" x1="146.164" y1="409.978" x2="146.164" y2="79.3648" gradientUnits="userSpaceOnUse">
<stop stop-color="#808080" stop-opacity="0.25"/>
<stop offset="0.54" stop-color="#808080" stop-opacity="0.12"/>
<stop offset="1" stop-color="#808080" stop-opacity="0.1"/>
</linearGradient>
<clipPath id="clip0">
<rect width="555" height="413" fill="white"/>
</clipPath>
</defs>
</svg>
