<svg width="207" height="44" viewBox="0 0 207 44" fill="none" xmlns="http://www.w3.org/2000/svg">
<g clip-path="url(#clip0)">
<path d="M42.0003 22.1845V16.0004C42.0003 13.9035 40.3737 12.1981 38.3187 12.0327L32.5756 2.00162C32.0434 1.07388 31.184 0.4108 30.1557 0.13546C29.1323 -0.138004 28.062 0.00561882 27.146 0.538766L7.45854 12.0005H4.00082C1.79482 12.0005 0.000854492 13.7943 0.000854492 16.0004V40C0.000854492 42.206 1.79473 44 4.00082 44H38.0003C40.2063 44 42.0003 42.2061 42.0003 40V33.8159C43.1617 33.4017 44.0002 32.3022 44.0002 31.0002V25.0003C44.0002 23.6983 43.1617 22.5987 42.0003 22.1845ZM35.9947 12.0005H27.2788L33.8158 8.19464L35.9947 12.0005ZM32.8222 6.45908L23.304 12.0005H19.356L31.835 4.73495L32.8222 6.45908ZM28.1528 2.26721C28.6049 2.00255 29.1332 1.93224 29.6381 2.06705C30.1489 2.20374 30.5747 2.53383 30.8393 2.99573L30.8414 2.99938L15.3813 12.0005H11.4335L28.1528 2.26721ZM40.0002 40C40.0002 41.1025 39.1028 42 38.0003 42H4.00082C2.89834 42 2.00088 41.1025 2.00088 40V16.0004C2.00088 14.8979 2.89834 14.0005 4.00082 14.0005H38.0003C39.1028 14.0005 40.0002 14.8979 40.0002 16.0004V22.0003H34.0003C30.6918 22.0003 28.0004 24.6917 28.0004 28.0002C28.0004 31.3088 30.6918 34.0001 34.0003 34.0001H40.0002V40ZM42.0003 31.0002C42.0003 31.5519 41.552 32.0002 41.0002 32.0002H34.0003C31.7943 32.0002 30.0004 30.2063 30.0004 28.0002C30.0004 25.7942 31.7942 24.0003 34.0003 24.0003H41.0002C41.552 24.0003 42.0003 24.4485 42.0003 25.0003V31.0002Z" fill="#FD8D1F"/>
<path d="M33.9997 26.0003C32.8972 26.0003 31.9998 26.8977 31.9998 28.0002C31.9998 29.1027 32.8972 30.0001 33.9997 30.0001C35.1022 30.0001 35.9996 29.1027 35.9996 28.0002C35.9997 26.8977 35.1023 26.0003 33.9997 26.0003Z" fill="#FD8D1F"/>
</g>
<path d="M61.798 4.4V17H58.918V6.776H54.598L54.508 9.404C54.448 11.192 54.304 12.644 54.076 13.76C53.848 14.864 53.464 15.716 52.924 16.316C52.396 16.904 51.652 17.198 50.692 17.198C50.296 17.198 49.816 17.132 49.252 17L49.432 14.534C49.588 14.582 49.762 14.606 49.954 14.606C50.65 14.606 51.136 14.198 51.412 13.382C51.688 12.554 51.862 11.264 51.934 9.512L52.114 4.4H61.798ZM69.2649 17.144C68.2449 17.144 67.3269 16.934 66.5109 16.514C65.7069 16.082 65.0769 15.488 64.6209 14.732C64.1649 13.976 63.9369 13.118 63.9369 12.158C63.9369 11.198 64.1649 10.34 64.6209 9.584C65.0769 8.828 65.7069 8.24 66.5109 7.82C67.3269 7.388 68.2449 7.172 69.2649 7.172C70.2849 7.172 71.1969 7.388 72.0009 7.82C72.8049 8.24 73.4349 8.828 73.8909 9.584C74.3469 10.34 74.5749 11.198 74.5749 12.158C74.5749 13.118 74.3469 13.976 73.8909 14.732C73.4349 15.488 72.8049 16.082 72.0009 16.514C71.1969 16.934 70.2849 17.144 69.2649 17.144ZM69.2649 14.84C69.9849 14.84 70.5729 14.6 71.0289 14.12C71.4969 13.628 71.7309 12.974 71.7309 12.158C71.7309 11.342 71.4969 10.694 71.0289 10.214C70.5729 9.722 69.9849 9.476 69.2649 9.476C68.5449 9.476 67.9509 9.722 67.4829 10.214C67.0149 10.694 66.7809 11.342 66.7809 12.158C66.7809 12.974 67.0149 13.628 67.4829 14.12C67.9509 14.6 68.5449 14.84 69.2649 14.84ZM85.9563 17V11.204L83.0583 16.064H81.8703L79.0443 11.186V17H76.5063V7.316H79.4403L82.5363 12.914L85.8303 7.316H88.4583L88.4943 17H85.9563ZM96.782 7.982C97.706 7.982 98.516 8.174 99.212 8.558C99.908 8.93 100.442 9.458 100.814 10.142C101.198 10.826 101.39 11.618 101.39 12.518C101.39 13.442 101.162 14.264 100.706 14.984C100.262 15.692 99.638 16.244 98.834 16.64C98.03 17.024 97.118 17.216 96.098 17.216C94.406 17.216 93.074 16.676 92.102 15.596C91.142 14.504 90.662 12.908 90.662 10.808C90.662 8.864 91.082 7.316 91.922 6.164C92.774 5 94.076 4.238 95.828 3.878L100.436 2.96L100.814 5.372L96.746 6.182C95.642 6.398 94.82 6.758 94.28 7.262C93.752 7.766 93.44 8.48 93.344 9.404C93.764 8.948 94.268 8.6 94.856 8.36C95.444 8.108 96.086 7.982 96.782 7.982ZM96.116 15.038C96.836 15.038 97.412 14.804 97.844 14.336C98.288 13.868 98.51 13.274 98.51 12.554C98.51 11.822 98.288 11.24 97.844 10.808C97.412 10.376 96.836 10.16 96.116 10.16C95.384 10.16 94.796 10.376 94.352 10.808C93.908 11.24 93.686 11.822 93.686 12.554C93.686 13.286 93.914 13.886 94.37 14.354C94.826 14.81 95.408 15.038 96.116 15.038ZM106.899 7.172C108.399 7.172 109.551 7.532 110.355 8.252C111.159 8.96 111.561 10.034 111.561 11.474V17H108.933V15.794C108.405 16.694 107.421 17.144 105.981 17.144C105.237 17.144 104.589 17.018 104.037 16.766C103.497 16.514 103.083 16.166 102.795 15.722C102.507 15.278 102.363 14.774 102.363 14.21C102.363 13.31 102.699 12.602 103.371 12.086C104.055 11.57 105.105 11.312 106.521 11.312H108.753C108.753 10.7 108.567 10.232 108.195 9.908C107.823 9.572 107.265 9.404 106.521 9.404C106.005 9.404 105.495 9.488 104.991 9.656C104.499 9.812 104.079 10.028 103.731 10.304L102.723 8.342C103.251 7.97 103.881 7.682 104.613 7.478C105.357 7.274 106.119 7.172 106.899 7.172ZM106.683 15.254C107.163 15.254 107.589 15.146 107.961 14.93C108.333 14.702 108.597 14.372 108.753 13.94V12.95H106.827C105.675 12.95 105.099 13.328 105.099 14.084C105.099 14.444 105.237 14.732 105.513 14.948C105.801 15.152 106.191 15.254 106.683 15.254ZM119.706 7.172C120.606 7.172 121.422 7.382 122.154 7.802C122.898 8.21 123.48 8.792 123.9 9.548C124.32 10.292 124.53 11.162 124.53 12.158C124.53 13.154 124.32 14.03 123.9 14.786C123.48 15.53 122.898 16.112 122.154 16.532C121.422 16.94 120.606 17.144 119.706 17.144C118.47 17.144 117.498 16.754 116.79 15.974V20.492H113.982V7.316H116.664V8.432C117.36 7.592 118.374 7.172 119.706 7.172ZM119.22 14.84C119.94 14.84 120.528 14.6 120.984 14.12C121.452 13.628 121.686 12.974 121.686 12.158C121.686 11.342 121.452 10.694 120.984 10.214C120.528 9.722 119.94 9.476 119.22 9.476C118.5 9.476 117.906 9.722 117.438 10.214C116.982 10.694 116.754 11.342 116.754 12.158C116.754 12.974 116.982 13.628 117.438 14.12C117.906 14.6 118.5 14.84 119.22 14.84ZM137.212 14.696V19.088H134.602V17H127.798V19.088H125.188V14.696H125.584C126.184 14.684 126.598 14.33 126.826 13.634C127.054 12.938 127.198 11.948 127.258 10.664L127.384 7.316H135.826V14.696H137.212ZM129.796 10.862C129.76 11.846 129.682 12.65 129.562 13.274C129.454 13.898 129.244 14.372 128.932 14.696H133.018V9.62H129.85L129.796 10.862ZM50.566 26.4H60.736V28.722H53.464V31.314H56.956C58.48 31.314 59.638 31.632 60.43 32.268C61.234 32.904 61.636 33.822 61.636 35.022C61.636 36.282 61.192 37.26 60.304 37.956C59.416 38.652 58.162 39 56.542 39H50.566V26.4ZM56.38 36.84C57.124 36.84 57.694 36.696 58.09 36.408C58.486 36.108 58.684 35.676 58.684 35.112C58.684 34.008 57.916 33.456 56.38 33.456H53.464V36.84H56.38ZM68.1751 39.144C67.1551 39.144 66.2371 38.934 65.4211 38.514C64.6171 38.082 63.9871 37.488 63.5311 36.732C63.0751 35.976 62.8471 35.118 62.8471 34.158C62.8471 33.198 63.0751 32.34 63.5311 31.584C63.9871 30.828 64.6171 30.24 65.4211 29.82C66.2371 29.388 67.1551 29.172 68.1751 29.172C69.1951 29.172 70.1071 29.388 70.9111 29.82C71.7151 30.24 72.3451 30.828 72.8011 31.584C73.2571 32.34 73.4851 33.198 73.4851 34.158C73.4851 35.118 73.2571 35.976 72.8011 36.732C72.3451 37.488 71.7151 38.082 70.9111 38.514C70.1071 38.934 69.1951 39.144 68.1751 39.144ZM68.1751 36.84C68.8951 36.84 69.4831 36.6 69.9391 36.12C70.4071 35.628 70.6411 34.974 70.6411 34.158C70.6411 33.342 70.4071 32.694 69.9391 32.214C69.4831 31.722 68.8951 31.476 68.1751 31.476C67.4551 31.476 66.8611 31.722 66.3931 32.214C65.9251 32.694 65.6911 33.342 65.6911 34.158C65.6911 34.974 65.9251 35.628 66.3931 36.12C66.8611 36.6 67.4551 36.84 68.1751 36.84ZM83.1744 31.62H78.2064V39H75.4164V29.316H83.1744V31.62ZM88.4245 29.172C89.9245 29.172 91.0765 29.532 91.8805 30.252C92.6845 30.96 93.0865 32.034 93.0865 33.474V39H90.4585V37.794C89.9305 38.694 88.9465 39.144 87.5065 39.144C86.7625 39.144 86.1145 39.018 85.5625 38.766C85.0225 38.514 84.6085 38.166 84.3205 37.722C84.0325 37.278 83.8885 36.774 83.8885 36.21C83.8885 35.31 84.2245 34.602 84.8965 34.086C85.5805 33.57 86.6305 33.312 88.0465 33.312H90.2785C90.2785 32.7 90.0925 32.232 89.7205 31.908C89.3485 31.572 88.7905 31.404 88.0465 31.404C87.5305 31.404 87.0205 31.488 86.5165 31.656C86.0245 31.812 85.6045 32.028 85.2565 32.304L84.2485 30.342C84.7765 29.97 85.4065 29.682 86.1385 29.478C86.8825 29.274 87.6445 29.172 88.4245 29.172ZM88.2085 37.254C88.6885 37.254 89.1145 37.146 89.4865 36.93C89.8585 36.702 90.1225 36.372 90.2785 35.94V34.95H88.3525C87.2005 34.95 86.6245 35.328 86.6245 36.084C86.6245 36.444 86.7625 36.732 87.0385 36.948C87.3265 37.152 87.7165 37.254 88.2085 37.254ZM103.662 31.62H100.386V39H97.5958V31.62H94.3198V29.316H103.662V31.62ZM110.253 32.412C111.513 32.424 112.467 32.706 113.115 33.258C113.763 33.81 114.087 34.602 114.087 35.634C114.087 36.714 113.721 37.548 112.989 38.136C112.257 38.724 111.219 39.018 109.875 39.018L105.159 39V29.316H107.949V32.412H110.253ZM115.131 29.316H117.921V39H115.131V29.316ZM109.623 37.02C110.163 37.032 110.577 36.918 110.865 36.678C111.153 36.438 111.297 36.078 111.297 35.598C111.297 35.13 111.153 34.788 110.865 34.572C110.589 34.356 110.175 34.242 109.623 34.23L107.949 34.212V37.02H109.623ZM126.333 29.172C127.233 29.172 128.049 29.382 128.781 29.802C129.525 30.21 130.107 30.792 130.527 31.548C130.947 32.292 131.157 33.162 131.157 34.158C131.157 35.154 130.947 36.03 130.527 36.786C130.107 37.53 129.525 38.112 128.781 38.532C128.049 38.94 127.233 39.144 126.333 39.144C125.097 39.144 124.125 38.754 123.417 37.974V42.492H120.609V29.316H123.291V30.432C123.987 29.592 125.001 29.172 126.333 29.172ZM125.847 36.84C126.567 36.84 127.155 36.6 127.611 36.12C128.079 35.628 128.313 34.974 128.313 34.158C128.313 33.342 128.079 32.694 127.611 32.214C127.155 31.722 126.567 31.476 125.847 31.476C125.127 31.476 124.533 31.722 124.065 32.214C123.609 32.694 123.381 33.342 123.381 34.158C123.381 34.974 123.609 35.628 124.065 36.12C124.533 36.6 125.127 36.84 125.847 36.84ZM137.733 39.144C136.701 39.144 135.771 38.934 134.943 38.514C134.127 38.082 133.485 37.488 133.017 36.732C132.561 35.976 132.333 35.118 132.333 34.158C132.333 33.198 132.561 32.34 133.017 31.584C133.485 30.828 134.127 30.24 134.943 29.82C135.771 29.388 136.701 29.172 137.733 29.172C138.753 29.172 139.641 29.388 140.397 29.82C141.165 30.24 141.723 30.846 142.071 31.638L139.893 32.808C139.389 31.92 138.663 31.476 137.715 31.476C136.983 31.476 136.377 31.716 135.897 32.196C135.417 32.676 135.177 33.33 135.177 34.158C135.177 34.986 135.417 35.64 135.897 36.12C136.377 36.6 136.983 36.84 137.715 36.84C138.675 36.84 139.401 36.396 139.893 35.508L142.071 36.696C141.723 37.464 141.165 38.064 140.397 38.496C139.641 38.928 138.753 39.144 137.733 39.144ZM148.044 35.328H146.586V39H143.778V29.316H146.586V33.078H148.098L150.726 29.316H153.714L150.33 33.96L153.948 39H150.636L148.044 35.328ZM155.327 29.316H158.117V35.076L162.833 29.316H165.407V39H162.617V33.24L157.919 39H155.327V29.316ZM168.106 29.316H170.896V35.076L175.612 29.316H178.186V39H175.396V33.24L170.698 39H168.106V29.316ZM172.966 28.272C170.854 28.272 169.792 27.342 169.78 25.482H171.616C171.628 25.902 171.742 26.232 171.958 26.472C172.186 26.7 172.516 26.814 172.948 26.814C173.38 26.814 173.71 26.7 173.938 26.472C174.178 26.232 174.298 25.902 174.298 25.482H176.17C176.158 27.342 175.09 28.272 172.966 28.272ZM194.749 36.624V39H185.227V37.11L190.087 32.52C190.603 32.028 190.951 31.608 191.131 31.26C191.311 30.9 191.401 30.546 191.401 30.198C191.401 29.694 191.227 29.31 190.879 29.046C190.543 28.77 190.045 28.632 189.385 28.632C188.833 28.632 188.335 28.74 187.891 28.956C187.447 29.16 187.075 29.472 186.775 29.892L184.651 28.524C185.143 27.792 185.821 27.222 186.685 26.814C187.549 26.394 188.539 26.184 189.655 26.184C190.591 26.184 191.407 26.34 192.103 26.652C192.811 26.952 193.357 27.384 193.741 27.948C194.137 28.5 194.335 29.154 194.335 29.91C194.335 30.594 194.191 31.236 193.903 31.836C193.615 32.436 193.057 33.12 192.229 33.888L189.331 36.624H194.749ZM201.983 31.098C202.787 31.098 203.519 31.26 204.179 31.584C204.839 31.908 205.361 32.37 205.745 32.97C206.129 33.558 206.321 34.242 206.321 35.022C206.321 35.862 206.111 36.6 205.691 37.236C205.271 37.872 204.695 38.364 203.963 38.712C203.243 39.048 202.439 39.216 201.551 39.216C199.787 39.216 198.407 38.676 197.411 37.596C196.415 36.516 195.917 34.974 195.917 32.97C195.917 31.542 196.187 30.318 196.727 29.298C197.267 28.278 198.017 27.504 198.977 26.976C199.949 26.448 201.071 26.184 202.343 26.184C203.015 26.184 203.657 26.262 204.269 26.418C204.893 26.562 205.421 26.772 205.853 27.048L204.773 29.19C204.149 28.77 203.363 28.56 202.415 28.56C201.347 28.56 200.501 28.872 199.877 29.496C199.253 30.12 198.917 31.026 198.869 32.214C199.613 31.47 200.651 31.098 201.983 31.098ZM201.389 37.038C202.013 37.038 202.517 36.87 202.901 36.534C203.297 36.198 203.495 35.742 203.495 35.166C203.495 34.59 203.297 34.134 202.901 33.798C202.517 33.45 202.001 33.276 201.353 33.276C200.717 33.276 200.195 33.456 199.787 33.816C199.379 34.164 199.175 34.614 199.175 35.166C199.175 35.718 199.373 36.168 199.769 36.516C200.165 36.864 200.705 37.038 201.389 37.038Z" fill="#FD8D1F"/>
<defs>
<clipPath id="clip0">
<rect width="44" height="44" fill="white"/>
</clipPath>
</defs>
</svg>
