<svg width="364" height="249" viewBox="0 0 364 249" fill="none" xmlns="http://www.w3.org/2000/svg">
<g clip-path="url(#clip0)">
<path d="M230.23 69.6731H185.08V59.8919C185.08 59.2714 184.834 58.6763 184.396 58.2376C183.958 57.7988 183.363 57.5523 182.744 57.5523H169.486V47.1334C169.486 46.7428 169.331 46.3682 169.055 46.092C168.779 45.8158 168.405 45.6606 168.015 45.6606H150.936C150.546 45.6606 150.172 45.8158 149.897 46.092C149.621 46.3682 149.466 46.7428 149.466 47.1334V57.5558H133.879C133.259 57.5558 132.665 57.8023 132.227 58.2411C131.789 58.6799 131.543 59.2749 131.543 59.8954V69.6766H88.4892C88.3639 69.6775 88.244 69.728 88.1557 69.8171C88.0674 69.9062 88.0178 70.0267 88.0178 70.1522V199.996C88.0178 200.121 88.0674 200.242 88.1557 200.331C88.244 200.42 88.3639 200.47 88.4892 200.471H117.103C117.229 200.471 117.349 200.421 117.438 200.332C117.528 200.243 117.578 200.122 117.578 199.996V182.526C117.578 182.4 117.629 182.28 117.718 182.191C117.807 182.102 117.927 182.051 118.052 182.051H130.139C130.265 182.051 130.385 182.102 130.474 182.191C130.563 182.28 130.613 182.4 130.614 182.526V199.996C130.614 200.121 130.664 200.242 130.752 200.331C130.841 200.42 130.96 200.47 131.086 200.471H187.627C187.752 200.47 187.873 200.42 187.961 200.331C188.05 200.242 188.101 200.121 188.102 199.996V182.526C188.102 182.401 188.151 182.28 188.239 182.191C188.328 182.102 188.448 182.051 188.573 182.051H200.66C200.786 182.051 200.907 182.101 200.996 182.19C201.085 182.279 201.135 182.4 201.135 182.526V199.996C201.136 200.121 201.186 200.242 201.275 200.331C201.364 200.42 201.484 200.47 201.61 200.471H230.223C230.349 200.47 230.469 200.42 230.558 200.331C230.647 200.242 230.697 200.121 230.698 199.996V70.1487C230.697 70.024 230.648 69.9046 230.56 69.8158C230.473 69.727 230.355 69.6758 230.23 69.6731ZM112.456 175.983C112.456 176.108 112.406 176.228 112.318 176.317C112.229 176.406 112.109 176.455 111.984 176.455H94.3111C94.2489 176.456 94.1872 176.444 94.1296 176.42C94.072 176.397 94.0196 176.362 93.9755 176.318C93.9314 176.274 93.8963 176.222 93.8724 176.165C93.8485 176.107 93.8362 176.045 93.8362 175.983V169.954C93.8362 169.892 93.8485 169.83 93.8723 169.772C93.8962 169.715 93.9312 169.662 93.9753 169.618C94.0194 169.574 94.0717 169.539 94.1294 169.515C94.187 169.491 94.2487 169.479 94.3111 169.479H111.995C112.12 169.48 112.24 169.53 112.328 169.619C112.417 169.708 112.466 169.829 112.466 169.954L112.456 175.983ZM112.456 160.36C112.456 160.422 112.444 160.484 112.421 160.542C112.397 160.6 112.363 160.652 112.319 160.696C112.275 160.74 112.223 160.776 112.166 160.799C112.108 160.823 112.047 160.836 111.984 160.836H94.3111C94.2486 160.836 94.1866 160.824 94.1288 160.8C94.071 160.777 94.0184 160.742 93.9742 160.697C93.9301 160.653 93.8951 160.601 93.8714 160.543C93.8477 160.485 93.8357 160.423 93.8362 160.36V154.317C93.8357 154.255 93.8477 154.193 93.8714 154.135C93.8951 154.077 93.9301 154.024 93.9742 153.98C94.0184 153.936 94.071 153.901 94.1288 153.877C94.1866 153.853 94.2486 153.841 94.3111 153.842H111.995C112.057 153.842 112.119 153.854 112.176 153.878C112.233 153.902 112.286 153.937 112.329 153.981C112.373 154.025 112.408 154.078 112.431 154.136C112.455 154.193 112.467 154.255 112.466 154.317L112.456 160.36ZM112.456 144.741C112.456 144.866 112.406 144.987 112.318 145.076C112.23 145.165 112.11 145.215 111.984 145.216H94.3111C94.2487 145.216 94.187 145.204 94.1294 145.18C94.0717 145.156 94.0194 145.121 93.9753 145.077C93.9312 145.033 93.8962 144.98 93.8723 144.923C93.8485 144.865 93.8362 144.803 93.8362 144.741V138.694C93.8362 138.632 93.8485 138.57 93.8723 138.512C93.8962 138.455 93.9312 138.402 93.9753 138.358C94.0194 138.314 94.0717 138.279 94.1294 138.255C94.187 138.231 94.2487 138.219 94.3111 138.219H111.995C112.12 138.22 112.24 138.27 112.328 138.359C112.417 138.448 112.466 138.569 112.466 138.694L112.456 144.741ZM112.456 129.117C112.456 129.18 112.444 129.242 112.421 129.299C112.397 129.357 112.363 129.409 112.319 129.454C112.275 129.498 112.223 129.533 112.166 129.557C112.108 129.581 112.047 129.593 111.984 129.593H94.3111C94.2486 129.594 94.1866 129.582 94.1288 129.558C94.071 129.534 94.0184 129.499 93.9742 129.455C93.9301 129.411 93.8951 129.358 93.8714 129.3C93.8477 129.242 93.8357 129.18 93.8362 129.117V123.092C93.8357 123.03 93.8477 122.968 93.8714 122.91C93.8951 122.852 93.9301 122.799 93.9742 122.755C94.0184 122.711 94.071 122.676 94.1288 122.652C94.1866 122.628 94.2486 122.616 94.3111 122.617H111.995C112.057 122.617 112.119 122.629 112.176 122.653C112.233 122.677 112.286 122.712 112.329 122.756C112.373 122.8 112.408 122.853 112.431 122.911C112.455 122.968 112.467 123.03 112.466 123.092L112.456 129.117ZM112.456 113.498C112.456 113.623 112.406 113.744 112.318 113.833C112.23 113.922 112.11 113.973 111.984 113.974H94.3111C94.2487 113.974 94.187 113.961 94.1294 113.937C94.0717 113.914 94.0194 113.878 93.9753 113.834C93.9312 113.79 93.8962 113.738 93.8723 113.68C93.8485 113.622 93.8362 113.56 93.8362 113.498V107.452C93.8362 107.389 93.8485 107.328 93.8724 107.27C93.8963 107.213 93.9314 107.16 93.9755 107.117C94.0196 107.073 94.072 107.038 94.1296 107.014C94.1872 106.991 94.2489 106.979 94.3111 106.98H111.995C112.12 106.98 112.24 107.029 112.328 107.118C112.417 107.206 112.466 107.326 112.466 107.452L112.456 113.498ZM112.456 97.8784C112.456 98.0036 112.406 98.1237 112.318 98.2123C112.229 98.3008 112.109 98.3506 111.984 98.3506H94.3111C94.2489 98.351 94.1872 98.3392 94.1296 98.3156C94.072 98.2921 94.0196 98.2574 93.9755 98.2135C93.9314 98.1696 93.8963 98.1174 93.8724 98.0599C93.8485 98.0024 93.8362 97.9407 93.8362 97.8784V91.8321C93.8362 91.7697 93.8485 91.7078 93.8723 91.6501C93.8962 91.5924 93.9312 91.54 93.9753 91.4958C94.0194 91.4516 94.0717 91.4166 94.1294 91.3927C94.187 91.3688 94.2487 91.3565 94.3111 91.3565H111.995C112.12 91.3574 112.24 91.4079 112.328 91.497C112.417 91.5861 112.466 91.7066 112.466 91.8321L112.456 97.8784ZM112.456 82.2554C112.456 82.3177 112.444 82.3794 112.421 82.4371C112.397 82.4948 112.363 82.5473 112.319 82.5915C112.275 82.6357 112.223 82.6708 112.166 82.6947C112.108 82.7187 112.047 82.731 111.984 82.731H94.3111C94.2486 82.7315 94.1866 82.7195 94.1288 82.6958C94.071 82.672 94.0184 82.637 93.9742 82.5927C93.9301 82.5485 93.8951 82.4959 93.8714 82.4379C93.8477 82.38 93.8357 82.318 93.8362 82.2554V76.2302C93.8357 76.1676 93.8477 76.1056 93.8714 76.0476C93.8951 75.9897 93.9301 75.9371 93.9742 75.8928C94.0184 75.8486 94.071 75.8136 94.1288 75.7898C94.1866 75.7661 94.2486 75.7541 94.3111 75.7546H111.995C112.057 75.7546 112.119 75.7669 112.176 75.7908C112.233 75.8148 112.286 75.8499 112.329 75.8941C112.373 75.9383 112.408 75.9908 112.431 76.0485C112.455 76.1061 112.467 76.1679 112.466 76.2302L112.456 82.2554ZM154.356 175.98C154.356 176.042 154.343 176.104 154.319 176.161C154.296 176.219 154.261 176.271 154.216 176.315C154.172 176.359 154.12 176.393 154.062 176.417C154.005 176.44 153.943 176.452 153.881 176.452H136.208C136.082 176.452 135.962 176.402 135.873 176.314C135.784 176.225 135.734 176.105 135.733 175.98V169.954C135.734 169.829 135.784 169.708 135.873 169.619C135.962 169.53 136.082 169.48 136.208 169.479H153.881C153.943 169.479 154.005 169.491 154.063 169.515C154.12 169.539 154.173 169.574 154.217 169.618C154.261 169.662 154.296 169.715 154.32 169.772C154.343 169.83 154.356 169.892 154.356 169.954V175.98ZM154.356 160.357C154.356 160.419 154.344 160.481 154.321 160.539C154.297 160.597 154.262 160.65 154.218 160.694C154.173 160.738 154.121 160.773 154.063 160.797C154.005 160.821 153.943 160.833 153.881 160.832H136.208C136.082 160.832 135.961 160.782 135.872 160.693C135.783 160.604 135.733 160.483 135.733 160.357V154.317C135.733 154.191 135.783 154.07 135.872 153.981C135.961 153.892 136.082 153.842 136.208 153.842H153.881C153.943 153.841 154.005 153.853 154.063 153.877C154.121 153.901 154.173 153.936 154.218 153.98C154.262 154.024 154.297 154.077 154.321 154.135C154.344 154.193 154.356 154.255 154.356 154.317V160.357ZM154.356 144.737C154.356 144.799 154.343 144.861 154.32 144.919C154.296 144.977 154.261 145.029 154.217 145.073C154.173 145.118 154.12 145.153 154.063 145.176C154.005 145.2 153.943 145.213 153.881 145.213H136.208C136.082 145.212 135.962 145.161 135.873 145.072C135.784 144.983 135.734 144.863 135.733 144.737V138.694C135.734 138.568 135.784 138.448 135.873 138.359C135.962 138.27 136.082 138.22 136.208 138.219H153.881C153.943 138.219 154.005 138.231 154.063 138.255C154.12 138.279 154.173 138.314 154.217 138.358C154.261 138.402 154.296 138.455 154.32 138.512C154.343 138.57 154.356 138.632 154.356 138.694V144.737ZM154.356 129.114C154.356 129.177 154.344 129.239 154.321 129.297C154.297 129.354 154.262 129.407 154.218 129.451C154.173 129.496 154.121 129.531 154.063 129.554C154.005 129.578 153.943 129.59 153.881 129.59H136.208C136.082 129.59 135.961 129.54 135.872 129.45C135.783 129.361 135.733 129.24 135.733 129.114V123.092C135.733 122.966 135.783 122.845 135.872 122.756C135.961 122.667 136.082 122.617 136.208 122.617H153.881C153.943 122.616 154.005 122.628 154.063 122.652C154.121 122.676 154.173 122.711 154.218 122.755C154.262 122.799 154.297 122.852 154.321 122.91C154.344 122.968 154.356 123.03 154.356 123.092V129.114ZM154.356 113.494C154.356 113.557 154.343 113.619 154.32 113.676C154.296 113.734 154.261 113.787 154.217 113.831C154.173 113.875 154.12 113.91 154.063 113.934C154.005 113.958 153.943 113.97 153.881 113.97H136.208C136.082 113.969 135.962 113.919 135.873 113.83C135.784 113.741 135.734 113.62 135.733 113.494V107.452C135.734 107.326 135.784 107.206 135.873 107.118C135.962 107.029 136.082 106.98 136.208 106.98H153.881C153.943 106.979 154.005 106.991 154.062 107.014C154.12 107.038 154.172 107.073 154.216 107.117C154.261 107.16 154.296 107.213 154.319 107.27C154.343 107.328 154.356 107.389 154.356 107.452V113.494ZM154.356 97.8749C154.356 97.9372 154.343 97.9989 154.319 98.0564C154.296 98.1139 154.261 98.1661 154.216 98.21C154.172 98.2539 154.12 98.2886 154.062 98.3121C154.005 98.3356 153.943 98.3475 153.881 98.347H136.208C136.082 98.347 135.962 98.2974 135.873 98.209C135.784 98.1205 135.734 98.0004 135.733 97.8749V91.8321C135.734 91.7063 135.784 91.5858 135.873 91.4968C135.962 91.4078 136.082 91.3574 136.208 91.3565H153.881C153.943 91.3565 154.005 91.3688 154.063 91.3927C154.12 91.4166 154.173 91.4516 154.217 91.4958C154.261 91.54 154.296 91.5924 154.32 91.6501C154.343 91.7078 154.356 91.7697 154.356 91.8321V97.8749ZM154.356 82.2518C154.356 82.3144 154.344 82.3765 154.321 82.4344C154.297 82.4923 154.262 82.545 154.218 82.5892C154.173 82.6335 154.121 82.6685 154.063 82.6922C154.005 82.716 153.943 82.728 153.881 82.7275H136.208C136.082 82.7275 135.961 82.6774 135.872 82.5882C135.783 82.499 135.733 82.378 135.733 82.2518V76.2302C135.733 76.1041 135.783 75.9831 135.872 75.8939C135.961 75.8047 136.082 75.7546 136.208 75.7546H153.881C153.943 75.7541 154.005 75.7661 154.063 75.7898C154.121 75.8136 154.173 75.8486 154.218 75.8928C154.262 75.9371 154.297 75.9897 154.321 76.0476C154.344 76.1056 154.356 76.1676 154.356 76.2302V82.2518ZM182.987 175.976C182.987 176.038 182.974 176.1 182.951 176.158C182.927 176.215 182.892 176.267 182.847 176.311C182.803 176.355 182.751 176.39 182.693 176.413C182.636 176.437 182.574 176.449 182.512 176.448H164.839C164.713 176.448 164.593 176.399 164.504 176.31C164.415 176.222 164.365 176.102 164.364 175.976V169.954C164.365 169.829 164.415 169.708 164.504 169.619C164.593 169.53 164.713 169.48 164.839 169.479H182.512C182.638 169.479 182.759 169.529 182.848 169.618C182.937 169.707 182.987 169.828 182.987 169.954V175.976ZM182.987 160.353C182.987 160.416 182.975 160.478 182.952 160.536C182.928 160.594 182.893 160.646 182.849 160.69C182.804 160.735 182.752 160.77 182.694 160.793C182.636 160.817 182.574 160.829 182.512 160.829H164.839C164.713 160.829 164.592 160.779 164.503 160.689C164.414 160.6 164.364 160.479 164.364 160.353V154.317C164.364 154.191 164.414 154.07 164.503 153.981C164.592 153.892 164.713 153.842 164.839 153.842H182.512C182.574 153.841 182.636 153.853 182.694 153.877C182.752 153.901 182.804 153.936 182.849 153.98C182.893 154.024 182.928 154.077 182.952 154.135C182.975 154.193 182.987 154.255 182.987 154.317V160.353ZM182.987 144.733C182.987 144.86 182.937 144.981 182.848 145.07C182.759 145.159 182.638 145.209 182.512 145.209H164.839C164.713 145.208 164.593 145.158 164.504 145.069C164.415 144.98 164.365 144.859 164.364 144.733V138.694C164.365 138.568 164.415 138.448 164.504 138.359C164.593 138.27 164.713 138.22 164.839 138.219H182.512C182.638 138.219 182.759 138.269 182.848 138.358C182.937 138.447 182.987 138.568 182.987 138.694V144.733ZM182.987 129.11C182.987 129.173 182.975 129.235 182.952 129.293C182.928 129.351 182.893 129.404 182.849 129.448C182.804 129.492 182.752 129.527 182.694 129.551C182.636 129.575 182.574 129.587 182.512 129.586H164.839C164.713 129.586 164.592 129.536 164.503 129.447C164.414 129.358 164.364 129.237 164.364 129.11V123.092C164.364 122.966 164.414 122.845 164.503 122.756C164.592 122.667 164.713 122.617 164.839 122.617H182.512C182.574 122.616 182.636 122.628 182.694 122.652C182.752 122.676 182.804 122.711 182.849 122.755C182.893 122.799 182.928 122.852 182.952 122.91C182.975 122.968 182.987 123.03 182.987 123.092V129.11ZM182.987 113.491C182.987 113.617 182.937 113.738 182.848 113.827C182.759 113.916 182.638 113.967 182.512 113.967H164.839C164.713 113.966 164.593 113.915 164.504 113.826C164.415 113.737 164.365 113.617 164.364 113.491V107.452C164.365 107.326 164.415 107.206 164.504 107.118C164.593 107.029 164.713 106.98 164.839 106.98H182.512C182.574 106.979 182.636 106.991 182.693 107.014C182.751 107.038 182.803 107.073 182.847 107.117C182.892 107.16 182.927 107.213 182.951 107.27C182.974 107.328 182.987 107.389 182.987 107.452V113.491ZM182.987 97.8714C182.987 97.9337 182.974 97.9954 182.951 98.0529C182.927 98.1104 182.892 98.1626 182.847 98.2065C182.803 98.2504 182.751 98.2851 182.693 98.3086C182.636 98.3321 182.574 98.344 182.512 98.3435H164.839C164.713 98.3435 164.593 98.2939 164.504 98.2054C164.415 98.117 164.365 97.9969 164.364 97.8714V91.8321C164.365 91.7063 164.415 91.5858 164.504 91.4968C164.593 91.4078 164.713 91.3574 164.839 91.3565H182.512C182.638 91.3565 182.759 91.4066 182.848 91.4958C182.937 91.585 182.987 91.706 182.987 91.8321V97.8714ZM182.987 82.2483C182.987 82.3109 182.975 82.373 182.952 82.4309C182.928 82.4888 182.893 82.5414 182.849 82.5857C182.804 82.63 182.752 82.665 182.694 82.6887C182.636 82.7125 182.574 82.7244 182.512 82.724H164.839C164.713 82.724 164.592 82.6739 164.503 82.5847C164.414 82.4955 164.364 82.3745 164.364 82.2483V76.2302C164.364 76.1041 164.414 75.9831 164.503 75.8939C164.592 75.8047 164.713 75.7546 164.839 75.7546H182.512C182.574 75.7541 182.636 75.7661 182.694 75.7898C182.752 75.8136 182.804 75.8486 182.849 75.8928C182.893 75.9371 182.928 75.9897 182.952 76.0476C182.975 76.1056 182.987 76.1676 182.987 76.2302V82.2483ZM224.887 175.973C224.886 176.098 224.835 176.218 224.746 176.307C224.657 176.395 224.537 176.445 224.412 176.445H206.739C206.676 176.445 206.615 176.433 206.557 176.41C206.5 176.386 206.447 176.352 206.403 176.308C206.359 176.264 206.324 176.212 206.3 176.154C206.276 176.097 206.264 176.035 206.264 175.973V169.954C206.264 169.828 206.314 169.707 206.403 169.618C206.492 169.529 206.613 169.479 206.739 169.479H224.412C224.538 169.48 224.658 169.53 224.747 169.619C224.836 169.708 224.886 169.829 224.887 169.954V175.973ZM224.887 160.35C224.887 160.476 224.837 160.597 224.748 160.686C224.659 160.775 224.538 160.825 224.412 160.825H206.739C206.676 160.826 206.614 160.814 206.556 160.79C206.499 160.766 206.446 160.731 206.402 160.687C206.358 160.643 206.323 160.59 206.299 160.532C206.275 160.474 206.263 160.412 206.264 160.35V154.317C206.263 154.255 206.275 154.193 206.299 154.135C206.323 154.077 206.358 154.024 206.402 153.98C206.446 153.936 206.499 153.901 206.556 153.877C206.614 153.853 206.676 153.841 206.739 153.842H224.412C224.538 153.842 224.659 153.892 224.748 153.981C224.837 154.07 224.887 154.191 224.887 154.317V160.35ZM224.887 144.73C224.886 144.856 224.836 144.976 224.747 145.065C224.658 145.154 224.538 145.205 224.412 145.206H206.739C206.613 145.206 206.492 145.156 206.403 145.066C206.314 144.977 206.264 144.856 206.264 144.73V138.694C206.264 138.568 206.314 138.447 206.403 138.358C206.492 138.269 206.613 138.219 206.739 138.219H224.412C224.538 138.22 224.658 138.27 224.747 138.359C224.836 138.448 224.886 138.568 224.887 138.694V144.73ZM224.887 129.107C224.887 129.233 224.837 129.354 224.748 129.443C224.659 129.532 224.538 129.583 224.412 129.583H206.739C206.615 129.582 206.497 129.532 206.41 129.446C206.323 129.359 206.273 129.241 206.271 129.117V123.092C206.27 123.03 206.282 122.968 206.306 122.91C206.33 122.852 206.365 122.799 206.409 122.755C206.453 122.711 206.506 122.676 206.563 122.652C206.621 122.628 206.683 122.616 206.746 122.617H224.419C224.545 122.617 224.666 122.667 224.755 122.756C224.844 122.845 224.894 122.966 224.894 123.092L224.887 129.107ZM224.887 113.487C224.886 113.613 224.836 113.734 224.747 113.823C224.658 113.912 224.538 113.962 224.412 113.963H206.739C206.613 113.963 206.492 113.913 206.403 113.824C206.314 113.735 206.264 113.614 206.264 113.487V107.452C206.264 107.389 206.276 107.328 206.3 107.27C206.324 107.213 206.359 107.16 206.403 107.117C206.447 107.073 206.5 107.038 206.557 107.014C206.615 106.991 206.676 106.979 206.739 106.98H224.412C224.537 106.98 224.657 107.029 224.746 107.118C224.835 107.206 224.886 107.326 224.887 107.452V113.487ZM224.887 97.8678C224.886 97.9934 224.835 98.1135 224.746 98.2019C224.657 98.2904 224.537 98.34 224.412 98.34H206.739C206.676 98.3405 206.615 98.3286 206.557 98.3051C206.5 98.2815 206.447 98.2468 206.403 98.203C206.359 98.1591 206.324 98.1069 206.3 98.0493C206.276 97.9918 206.264 97.9301 206.264 97.8678V91.8321C206.264 91.706 206.314 91.585 206.403 91.4958C206.492 91.4066 206.613 91.3565 206.739 91.3565H224.412C224.538 91.3574 224.658 91.4078 224.747 91.4968C224.836 91.5858 224.886 91.7063 224.887 91.8321V97.8678ZM224.887 82.2448C224.887 82.3073 224.874 82.3691 224.851 82.4268C224.827 82.4845 224.792 82.537 224.748 82.5811C224.704 82.6253 224.651 82.6603 224.594 82.6842C224.536 82.7081 224.474 82.7205 224.412 82.7205H206.739C206.615 82.7196 206.497 82.6704 206.41 82.5834C206.323 82.4965 206.273 82.3787 206.271 82.2554V76.2302C206.27 76.1676 206.282 76.1056 206.306 76.0476C206.33 75.9897 206.365 75.9371 206.409 75.8928C206.453 75.8486 206.506 75.8136 206.563 75.7898C206.621 75.7661 206.683 75.7541 206.746 75.7546H224.419C224.545 75.7546 224.666 75.8047 224.755 75.8939C224.844 75.9831 224.894 76.1041 224.894 76.2302L224.887 82.2448Z" fill="#798493"/>
<path d="M93.9769 15.5878L88.5173 19.0549L91.831 13.0157C90.8927 12.2658 89.7317 11.8505 88.5314 11.8353H88.4434C88.0641 11.841 87.685 11.8127 87.3107 11.7508L85.4604 12.9241L86.2519 11.4795C84.9396 11.0212 83.8064 10.1576 83.0155 9.01303L79.7053 11.1271L81.7949 7.31824C79.8601 4.98923 77.2499 3.56223 74.3759 3.56223C70.932 3.56223 67.8646 5.61288 65.8841 8.80867C65.2984 9.76825 64.4685 10.5546 63.4795 11.0871C62.4904 11.6195 61.3778 11.879 60.2556 11.8389H60.0727C56.27 11.8389 53.1885 16.1586 53.1885 21.4826C53.1885 26.8065 56.2841 31.1298 60.0868 31.1298C60.9222 31.1255 61.7441 30.9188 62.4824 30.5273C63.7766 29.8966 65.1923 29.5554 66.6314 29.5274C68.0704 29.4995 69.4983 29.7853 70.816 30.3653C71.9304 30.8646 73.1375 31.1227 74.3583 31.1227C75.5792 31.1227 76.7863 30.8646 77.9007 30.3653C79.2079 29.7974 80.6218 29.518 82.0464 29.546C83.471 29.5739 84.8729 29.9086 86.1569 30.5273C86.8889 30.9155 87.7032 31.1221 88.5314 31.1298C92.3341 31.1298 95.4156 26.8101 95.4156 21.4826C95.4382 19.4278 94.9434 17.4004 93.9769 15.5878Z" fill="#798493"/>
<path opacity="0.03" d="M83.6875 29.6993C81.7012 29.3205 79.6472 29.5438 77.7883 30.3406C76.6741 30.8388 75.4677 31.0963 74.2476 31.0963C73.0275 31.0963 71.8211 30.8388 70.707 30.3406C69.3889 29.7623 67.9612 29.4773 66.5225 29.5053C65.0837 29.5333 63.6681 29.8736 62.3734 30.5027C61.6346 30.8961 60.8111 31.103 59.9743 31.1052C56.5973 31.1052 53.7866 27.698 53.2026 23.2021C53.8777 22.7084 54.451 22.0886 54.8912 21.3769C56.8717 18.1811 59.9391 16.1304 63.383 16.1304C66.8269 16.1304 69.8557 18.1564 71.8256 21.3205C72.4156 22.2761 73.2423 23.0626 74.2255 23.6035C75.2087 24.1443 76.3149 24.4212 77.4365 24.4071H77.5244C80.2261 24.3895 82.5548 26.5493 83.6875 29.6993Z" fill="#B0A396"/>
<path d="M286.391 6.00047L283.661 7.73049L285.315 4.71792C284.846 4.34424 284.267 4.13723 283.668 4.12951H283.626C283.436 4.13323 283.247 4.11907 283.06 4.08722L282.138 4.67564L282.532 3.97095C281.879 3.74154 281.314 3.31267 280.917 2.74478L279.268 3.80182L280.323 1.90267C279.887 1.32948 279.329 0.861126 278.689 0.531913C278.05 0.202699 277.345 0.0209605 276.626 0C274.909 0 273.379 1.02533 272.404 2.61794C272.111 3.09707 271.696 3.48954 271.202 3.75514C270.707 4.02074 270.151 4.14994 269.59 4.12951H269.499C267.603 4.12951 266.065 6.28234 266.065 8.93904C266.065 11.5957 267.603 13.7486 269.499 13.7486C269.916 13.7472 270.326 13.6444 270.695 13.4491C271.34 13.135 272.046 12.9651 272.763 12.9511C273.48 12.9371 274.192 13.0794 274.849 13.368C275.406 13.6167 276.008 13.7452 276.617 13.7452C277.226 13.7452 277.828 13.6167 278.385 13.368C279.037 13.0853 279.742 12.9463 280.453 12.9602C281.164 12.9742 281.863 13.1409 282.504 13.4491C282.869 13.6402 283.274 13.7405 283.686 13.7415C285.582 13.7415 287.119 11.5887 287.119 8.93199C287.125 7.90924 286.874 6.9014 286.391 6.00047Z" fill="#798493"/>
<path opacity="0.03" d="M281.259 13.0368C280.267 12.8501 279.243 12.9617 278.314 13.3575C277.761 13.6041 277.161 13.7314 276.555 13.731C275.949 13.7278 275.35 13.5982 274.796 13.3504C274.139 13.0617 273.427 12.9194 272.709 12.9334C271.991 12.9474 271.284 13.1173 270.639 13.4315C270.27 13.6272 269.86 13.73 269.442 13.731C267.757 13.731 266.357 12.0326 266.065 9.78819C266.402 9.54209 266.689 9.23349 266.91 8.87914C267.895 7.28653 269.425 6.2612 271.131 6.2612C272.837 6.2612 274.36 7.27243 275.352 8.85095C275.648 9.32988 276.063 9.72362 276.556 9.99355C277.049 10.2635 277.604 10.4003 278.167 10.3907H278.212C279.531 10.3907 280.692 11.4689 281.259 13.0368Z" fill="#FD8D1F"/>
<path d="M218.038 37.687L214.837 39.7201L216.778 36.1966C216.23 35.7524 215.549 35.5044 214.844 35.4919H214.791C214.568 35.495 214.346 35.4785 214.126 35.4426L213.042 36.1473L213.507 35.2981C212.738 35.0299 212.073 34.5256 211.607 33.857L209.665 35.0902L210.893 32.8564C210.377 32.1882 209.718 31.6436 208.966 31.262C208.213 30.8805 207.385 30.6717 206.542 30.6507C204.523 30.6507 202.721 31.8557 201.561 33.7302C201.216 34.2887 200.73 34.746 200.151 35.0554C199.573 35.3648 198.923 35.5154 198.268 35.4919H198.159C195.929 35.4919 194.124 38.0253 194.124 41.1295C194.124 44.2336 195.929 46.7846 198.159 46.7846C198.65 46.7838 199.133 46.6628 199.566 46.4323C200.325 46.0629 201.155 45.8631 201.999 45.8467C202.842 45.8302 203.679 45.9976 204.452 46.3371C205.106 46.6287 205.814 46.7793 206.529 46.7793C207.245 46.7793 207.953 46.6287 208.607 46.3371C209.374 46.0044 210.203 45.8407 211.039 45.8571C211.875 45.8735 212.697 46.0697 213.451 46.4323C213.885 46.6612 214.367 46.7821 214.858 46.7846C217.088 46.7846 218.896 44.2548 218.896 41.1295C218.902 39.9282 218.607 38.7446 218.038 37.687Z" fill="#798493"/>
<path opacity="0.03" d="M212.005 45.9637C210.839 45.7427 209.634 45.8739 208.543 46.3407C207.89 46.6322 207.182 46.7829 206.466 46.7829C205.75 46.7829 205.043 46.6322 204.389 46.3407C203.616 46.0011 202.779 45.8338 201.935 45.8502C201.092 45.8666 200.262 46.0664 199.503 46.4358C199.069 46.6659 198.586 46.7869 198.096 46.7882C196.115 46.7882 194.465 44.7903 194.124 42.1548C194.518 41.8694 194.854 41.5105 195.113 41.0977C196.273 39.2233 198.074 38.0218 200.094 38.0218C202.113 38.0218 203.893 39.2092 205.054 41.0625C205.399 41.6233 205.883 42.085 206.46 42.4024C207.036 42.7198 207.685 42.8821 208.343 42.8736H208.382C209.972 42.8489 211.34 44.1174 212.005 45.9637Z" fill="#FD8D1F"/>
<path d="M333.22 200.556C333.22 201.162 333.22 201.768 333.181 202.367C333.091 204.698 332.811 207.019 332.344 209.305C330.032 220.618 323.359 229.413 314.976 232.01C313.309 232.53 311.573 232.795 309.826 232.796C296.906 232.796 286.433 218.349 286.433 200.556C286.433 182.762 296.906 168.316 309.826 168.316C321.945 168.316 331.914 181.022 333.1 197.297C333.181 198.368 333.22 199.457 333.22 200.556Z" fill="#36334A"/>
<path opacity="0.1" d="M333.181 202.37C333.091 204.702 332.811 207.022 332.344 209.308C330.032 220.622 323.359 229.417 314.976 232.013C308.486 229.022 303.67 217.81 303.67 204.435C303.67 188.77 310.284 176.071 318.445 176.071C325.294 176.071 331.056 185.028 332.727 197.18C332.959 198.847 333.11 200.588 333.181 202.37Z" fill="#798493"/>
<path d="M215.727 129.206C215.727 129.206 279.046 116.169 312.465 128.149C312.465 128.149 317.39 130.615 312.465 134.843C312.465 134.843 317.122 139.776 308.989 141.538L276.679 143.528L215.727 137.31V129.206Z" fill="#3F3D56"/>
<path opacity="0.1" d="M226.807 130.844C226.807 130.844 281.02 119.682 309.633 129.938C309.633 129.938 313.854 132.053 309.633 135.671C309.633 135.671 313.619 139.899 306.657 141.404L278.993 143.106L226.807 137.789V130.844Z" fill="#FD8D1F"/>
<path d="M288.544 150.346L284.323 141.89C284.323 141.89 286.173 133.335 271.131 130.819C270.297 127.088 266.519 124.273 261.985 124.273C257.56 124.273 253.859 126.951 252.902 130.545C250.742 130.731 248.442 130.985 245.979 131.32L242.539 149.797L242.11 148.937C242.11 148.937 244.294 138.832 224.605 137.355C225.679 136.052 226.27 134.418 226.28 132.729C226.28 128.251 222.104 124.625 216.958 124.625C211.811 124.625 207.636 128.251 207.636 132.729C207.649 134.569 208.346 136.337 209.591 137.69C207.75 137.866 205.809 138.092 203.766 138.367L199.896 159.155L217.837 161.621L246.331 157.393L243.809 152.337L260.05 154.571L288.544 150.346Z" fill="#798493"/>
<path opacity="0.2" d="M288.544 150.346L284.323 141.89C284.323 141.89 286.173 133.335 271.131 130.819C270.297 127.088 266.519 124.273 261.985 124.273C257.56 124.273 253.859 126.951 252.902 130.545C250.742 130.731 248.442 130.985 245.979 131.32L242.539 149.797L242.11 148.937C242.11 148.937 244.294 138.832 224.605 137.355C225.679 136.052 226.27 134.418 226.28 132.729C226.28 128.251 222.104 124.625 216.958 124.625C211.811 124.625 207.636 128.251 207.636 132.729C207.649 134.569 208.346 136.337 209.591 137.69C207.75 137.866 205.809 138.092 203.766 138.367L199.896 159.155L217.837 161.621L246.331 157.393L243.809 152.337L260.05 154.571L288.544 150.346Z" fill="#EE6161"/>
<path d="M228.032 131.63C228.032 131.63 225.217 115.816 238.233 115.464C251.249 115.112 247.027 138.367 247.027 138.367C247.027 138.367 256.877 140.481 257.581 144.357C258.284 148.232 223.458 149.289 223.458 149.289L228.032 131.63Z" fill="#798493"/>
<path d="M205.173 215.178C205.173 233.853 191.313 249.004 174.217 249.004C157.121 249.004 143.261 233.853 143.261 215.178C143.261 196.504 157.293 178.358 174.393 178.358C191.493 178.358 205.173 196.497 205.173 215.178Z" fill="#36334A"/>
<path opacity="0.1" d="M174.217 245.124C187.817 245.124 198.841 232.348 198.841 216.588C198.841 200.827 187.817 188.051 174.217 188.051C160.617 188.051 149.593 200.827 149.593 216.588C149.593 232.348 160.617 245.124 174.217 245.124Z" fill="#798493"/>
<path d="M38.0798 245.829C55.1765 245.829 69.0361 230.685 69.0361 212.004C69.0361 193.322 55.1765 178.178 38.0798 178.178C20.9831 178.178 7.12354 193.322 7.12354 212.004C7.12354 230.685 20.9831 245.829 38.0798 245.829Z" fill="#36334A"/>
<path d="M90.846 131.32C90.846 131.32 76.4232 132.024 77.1267 139.776C77.8303 147.528 89.4389 141.89 89.4389 141.89L90.846 131.32Z" fill="#36334A"/>
<path d="M210.844 144.233L216.782 104.541C216.782 104.541 218.189 99.6084 199.193 99.6084C199.193 99.6084 138.336 95.7326 122.858 102.075C122.858 102.075 104.917 108.769 79.9412 143.299C79.9412 143.299 208.382 146.347 210.844 144.233Z" fill="#3F3D56"/>
<path d="M208.691 102.78L197.786 146.118L190.947 145.953L158.584 145.163L86.4032 143.402C86.2027 139.977 120.385 104.541 120.385 104.541L208.691 102.78Z" fill="#36334A"/>
<path opacity="0.2" d="M158.595 145.163L161.543 133.747C161.543 133.747 158.728 117.93 171.744 117.578C184.76 117.226 180.539 140.481 180.539 140.481C180.539 140.481 189.509 142.408 190.937 145.953L158.595 145.163Z" fill="#798493"/>
<path d="M333.396 198.089C331.285 177.653 318.093 173.249 318.093 173.249C305.429 172.544 296.987 220.816 296.987 220.816L199.545 229.624C199.545 229.624 202.887 188.576 179.318 181.881C155.749 175.187 149.593 223.282 148.537 229.977C147.482 236.671 6.41991 229.272 2.55037 226.453C-1.31916 223.635 0.087944 196.504 1.14327 194.39C2.1986 192.276 5.01281 182.762 5.01281 182.762C5.01281 180.493 6.09627 177.625 6.99682 175.634C7.63002 174.225 8.17879 173.249 8.17879 173.249C11.2357 155.885 27.1078 151.682 28.1737 151.403H28.23C32.4513 147.175 71.4984 144.357 71.4984 144.357L86.273 141.538L206.394 143.902L211.505 144.004L272.573 141.062L313.872 139.071C323.37 139.071 328.295 163.031 328.295 163.031C337.089 184.172 333.396 198.089 333.396 198.089Z" fill="#FD8D1F"/>
<path opacity="0.1" d="M135.362 177.338C144.64 173.599 150.267 165.85 147.93 160.032C145.592 154.213 136.175 152.528 126.897 156.268C117.618 160.008 111.992 167.756 114.329 173.575C116.667 179.393 126.083 181.078 135.362 177.338Z" fill="#FD8D1F"/>
<path d="M134.659 175.928C143.937 172.188 149.564 164.439 147.227 158.621C144.889 152.803 135.472 151.117 126.194 154.857C116.915 158.597 111.289 166.345 113.626 172.164C115.964 177.982 125.38 179.667 134.659 175.928Z" fill="#9B9B9B"/>
<path opacity="0.1" d="M28.8773 152.122C28.6979 155.998 26.9637 160.889 23.8434 165.6C18.8236 173.182 11.9393 177.646 7.70044 176.339C8.33364 174.93 8.88241 173.954 8.88241 173.954C11.9393 156.59 27.8115 152.387 28.8773 152.122Z" fill="#FD8D1F"/>
<path d="M27.8219 151.418C27.6425 155.293 25.9083 160.184 22.788 164.895C17.7682 172.477 10.8839 176.942 6.64502 175.634C7.27822 174.225 7.82699 173.249 7.82699 173.249C10.8839 155.885 26.756 151.682 27.8219 151.418Z" fill="#9B9B9B"/>
<path d="M77.1268 161.97H49.3365L47.9294 158.095H81.6999L77.1268 161.97Z" fill="#36334A"/>
<path d="M70.7948 190.51H25.064V203.9H70.7948V190.51Z" fill="#36334A"/>
<path opacity="0.1" d="M120.043 216.936C123.54 216.936 126.375 214.097 126.375 210.594C126.375 207.092 123.54 204.252 120.043 204.252C116.546 204.252 113.711 207.092 113.711 210.594C113.711 214.097 116.546 216.936 120.043 216.936Z" fill="#FD8D1F"/>
<path d="M119.34 215.879C122.837 215.879 125.672 213.04 125.672 209.537C125.672 206.034 122.837 203.195 119.34 203.195C115.843 203.195 113.008 206.034 113.008 209.537C113.008 213.04 115.843 215.879 119.34 215.879Z" fill="#9B9B9B"/>
<path opacity="0.1" d="M5.01291 212.356C6.76143 212.356 8.17889 209.359 8.17889 205.661C8.17889 201.964 6.76143 198.967 5.01291 198.967C3.26438 198.967 1.84692 201.964 1.84692 205.661C1.84692 209.359 3.26438 212.356 5.01291 212.356Z" fill="#FD8D1F"/>
<path d="M3.95749 212.004C5.70601 212.004 7.12347 209.006 7.12347 205.309C7.12347 201.612 5.70601 198.614 3.95749 198.614C2.20896 198.614 0.791504 201.612 0.791504 205.309C0.791504 209.006 2.20896 212.004 3.95749 212.004Z" fill="#9B9B9B"/>
<path d="M282.916 177.125C279.046 189.105 278.695 207.779 278.695 207.779L277.287 212.712L208.691 220.463C208.691 220.463 209.043 185.933 210.098 169.725C210.84 158.292 208.086 148.613 206.394 143.902L211.505 144.004L272.574 141.062C282.775 148.225 286.388 166.368 282.916 177.125Z" fill="#FD8D1F"/>
<path d="M267.276 155.526C267.035 155.542 266.801 155.608 266.588 155.72C266.375 155.832 266.188 155.987 266.038 156.176C265.888 156.365 265.779 156.583 265.719 156.816C265.658 157.049 265.647 157.293 265.686 157.531C265.719 157.73 265.801 157.918 265.923 158.078C266.046 158.239 266.206 158.366 266.389 158.45C267.525 159.018 275.089 157.746 277.956 157.238C278.38 157.169 278.77 156.962 279.064 156.647C279.358 156.333 279.54 155.93 279.581 155.501C279.616 155.001 279.433 154.575 278.701 154.575L267.276 155.526Z" fill="#F2F2F2"/>
<path d="M206.229 142.595C206.229 142.595 207.987 150.346 216.43 147.88L219.244 136.957L213.616 133.786L206.229 142.595Z" fill="#36334A"/>
<path d="M216.567 126.855C220.437 124.558 226.575 122.55 232.647 127.373C233.911 128.373 234.802 129.769 235.178 131.337C235.554 132.906 235.392 134.555 234.719 136.02C232.731 140.329 228.014 145.005 217 139.406C215.919 138.856 214.996 138.039 214.319 137.031L214.263 136.947C213.73 136.139 213.366 135.232 213.194 134.28C213.021 133.328 213.043 132.35 213.258 131.407C213.474 130.464 213.878 129.574 214.447 128.791C215.016 128.009 215.737 127.35 216.567 126.855Z" fill="#36334A"/>
<path d="M174.393 222.045C178.279 222.045 181.428 218.89 181.428 214.999C181.428 211.107 178.279 207.952 174.393 207.952C170.507 207.952 167.357 211.107 167.357 214.999C167.357 218.89 170.507 222.045 174.393 222.045Z" fill="#F2F2F2"/>
<path d="M319.676 209.361C321.813 209.361 323.546 206.206 323.546 202.314C323.546 198.422 321.813 195.267 319.676 195.267C317.539 195.267 315.807 198.422 315.807 202.314C315.807 206.206 317.539 209.361 319.676 209.361Z" fill="#F2F2F2"/>
<path d="M174.569 193.329H173.865C171.534 193.329 169.644 195.222 169.644 197.557V201.433C169.644 203.768 171.534 205.661 173.865 205.661H174.569C176.9 205.661 178.79 203.768 178.79 201.433V197.557C178.79 195.222 176.9 193.329 174.569 193.329Z" fill="#36334A"/>
<path d="M319.676 179.764C319.999 179.764 320.32 179.828 320.618 179.952C320.917 180.076 321.189 180.257 321.417 180.486C321.646 180.715 321.827 180.987 321.951 181.286C322.075 181.586 322.139 181.906 322.139 182.23V187.868C322.139 188.989 321.694 190.065 320.902 190.858C320.111 191.651 319.037 192.096 317.917 192.096C317.264 192.096 316.638 191.836 316.176 191.374C315.714 190.911 315.455 190.284 315.455 189.63V183.992C315.455 182.871 315.9 181.795 316.691 181.002C317.483 180.209 318.557 179.764 319.676 179.764Z" fill="#36334A"/>
<path d="M319.676 224.868C318.557 224.868 317.483 224.422 316.691 223.629C315.9 222.836 315.455 221.761 315.455 220.64V216.764C315.455 215.642 315.9 214.567 316.691 213.774C317.483 212.981 318.557 212.536 319.676 212.536C321.998 212.536 321.787 214.438 321.787 216.764V220.64C321.783 222.965 322.005 224.868 319.676 224.868Z" fill="#36334A"/>
<path d="M309.123 195.972C310.243 195.972 311.316 196.417 312.108 197.21C312.9 198.003 313.344 199.079 313.344 200.2V205.485C313.344 206.233 313.048 206.95 312.52 207.478C311.992 208.007 311.276 208.304 310.53 208.304C309.411 208.304 308.337 207.858 307.545 207.066C306.754 206.273 306.309 205.197 306.309 204.076V198.791C306.309 198.043 306.605 197.326 307.133 196.797C307.661 196.269 308.377 195.972 309.123 195.972Z" fill="#36334A"/>
<path d="M333.22 200.556C333.22 201.162 333.22 201.768 333.181 202.367C333.091 204.698 332.811 207.019 332.344 209.305C332.111 209.344 331.876 209.364 331.64 209.364C330.521 209.364 329.447 208.919 328.655 208.126C327.864 207.333 327.419 206.258 327.419 205.136V201.26C327.419 200.139 327.864 199.064 328.655 198.271C329.447 197.478 330.521 197.032 331.64 197.032C332.009 197.031 332.375 197.08 332.731 197.177C332.857 197.212 332.984 197.251 333.104 197.297C333.181 198.368 333.22 199.456 333.22 200.556Z" fill="#36334A"/>
<path d="M192.333 208.304H191.63C189.298 208.304 187.408 210.197 187.408 212.532V216.408C187.408 218.743 189.298 220.636 191.63 220.636H192.333C194.665 220.636 196.555 218.743 196.555 216.408V212.532C196.555 210.197 194.665 208.304 192.333 208.304Z" fill="#36334A"/>
<path d="M157.859 208.304H157.156C154.825 208.304 152.935 210.197 152.935 212.532V216.408C152.935 218.743 154.825 220.636 157.156 220.636H157.859C160.191 220.636 162.081 218.743 162.081 216.408V212.532C162.081 210.197 160.191 208.304 157.859 208.304Z" fill="#36334A"/>
<path d="M174.745 226.626H174.041C171.71 226.626 169.82 228.519 169.82 230.854V234.73C169.82 237.065 171.71 238.958 174.041 238.958H174.745C177.076 238.958 178.966 237.065 178.966 234.73V230.854C178.966 228.519 177.076 226.626 174.745 226.626Z" fill="#36334A"/>
<path d="M297.254 72.587C297.252 73.259 297.133 73.9255 296.902 74.5566C296.501 75.678 295.768 76.6501 294.8 77.3427C293.832 78.0353 292.677 78.4154 291.488 78.4323C290.298 78.4491 289.132 78.1019 288.146 77.437C287.159 76.7721 286.398 75.8213 285.965 74.7116C285.7 74.0385 285.564 73.3212 285.564 72.5976C285.564 71.0463 286.18 69.5586 287.275 68.4617C288.37 67.3648 289.855 66.7486 291.404 66.7486C292.953 66.7486 294.438 67.3648 295.533 68.4617C296.628 69.5586 297.243 71.0463 297.243 72.5976L297.254 72.587Z" fill="#FF6584"/>
<path d="M286.75 74.0457C286.378 73.3741 286.142 72.6356 286.054 71.8725C285.967 71.1094 286.031 70.3365 286.242 69.598C286.453 68.8596 286.807 68.17 287.284 67.5686C287.761 66.9673 288.352 66.4659 289.023 66.0932C289.674 65.7236 290.391 65.4843 291.133 65.3885C290.329 65.3599 289.527 65.4983 288.778 65.7949C288.03 66.0915 287.35 66.54 286.783 67.1121C286.216 67.6843 285.772 68.3678 285.481 69.1196C285.19 69.8715 285.058 70.6755 285.092 71.4812C285.126 72.2869 285.326 73.0768 285.679 73.8013C286.033 74.5259 286.532 75.1694 287.146 75.6915C287.759 76.2136 288.474 76.6029 289.245 76.8351C290.016 77.0673 290.826 77.1373 291.626 77.0406C290.625 77.0025 289.65 76.707 288.797 76.1824C287.943 75.6579 287.238 74.922 286.75 74.0457Z" fill="#FF6584"/>
<path d="M299.759 80.7332H284.115V105.176H299.759V80.7332Z" fill="#FF6584"/>
<path opacity="0.1" d="M300.111 80.0285H284.467V104.471H300.111V80.0285Z" fill="#FD8D1F"/>
<path d="M259.389 169.412C259.389 169.412 257.721 173.992 253.76 174.634C249.799 175.275 247.513 176.297 247.513 176.297L256.898 182.354L261.904 181.726C261.904 181.726 262.527 175.25 264.613 173.788C266.699 172.326 259.389 169.412 259.389 169.412Z" fill="#FBBEBE"/>
<path d="M327.183 169.412C327.183 169.412 328.851 173.992 332.812 174.634C336.773 175.275 339.066 176.307 339.066 176.307L329.681 182.364L324.675 181.737C324.675 181.737 324.052 175.261 321.966 173.799C319.88 172.336 327.183 169.412 327.183 169.412Z" fill="#FBBEBE"/>
<path d="M281.508 128.885C281.508 128.885 279.004 130.139 278.17 132.644C278.17 132.644 273.597 134.107 271.078 138.078C271.078 138.078 267.951 141.418 267.532 143.092C267.114 144.765 262.319 154.804 262.319 154.804C262.319 154.804 257.524 170.469 255.02 172.143C255.02 172.143 262.945 170.469 264.405 178.407C264.405 178.407 266.284 178.407 268.37 171.096C270.456 163.785 275.458 154.804 275.458 154.804C275.458 154.804 277.129 148.535 278.589 147.492C280.049 146.449 282.342 141.643 284.428 142.894C286.514 144.145 300.279 142.686 300.279 142.686C300.279 142.686 308.412 146.446 308.62 148.955C308.827 151.463 310.291 151.668 310.498 153.757C310.706 155.847 318.424 172.35 318.424 172.35C318.424 172.35 319.884 176.931 320.299 177.988C320.299 177.988 324.89 166.917 330.937 173.182C330.937 173.182 330.729 169.003 328.851 166.487C326.972 163.972 318.839 144.342 318.839 144.342C318.839 144.342 318.005 141.418 317.172 140.583C316.338 139.748 309.872 133.064 307.582 133.064C307.582 133.064 306.33 129.928 304.87 129.512L281.508 128.885Z" fill="#696880"/>
<path d="M262.738 180.275C261.108 180.93 259.337 181.151 257.596 180.916C255.856 180.682 254.206 179.999 252.807 178.936C251.448 177.891 249.959 177.028 248.378 176.367C246.169 175.472 243.52 174.806 242.715 176.307C241.255 179.02 260.444 185.708 260.444 185.708C260.444 185.708 262.945 184.242 262.738 180.275Z" fill="#696880"/>
<path d="M323.845 180.275C325.474 180.93 327.246 181.151 328.986 180.916C330.727 180.682 332.377 179.999 333.775 178.936C335.134 177.891 336.623 177.028 338.204 176.367C340.413 175.472 343.062 174.806 343.868 176.307C345.328 179.02 326.138 185.708 326.138 185.708C326.138 185.708 323.637 184.242 323.845 180.275Z" fill="#696880"/>
<path d="M288.326 94.5241C288.245 95.2499 288.009 96.0356 287.39 96.4232C286.884 96.7403 286.243 96.7122 285.66 96.8355C285.046 96.9879 284.477 97.2829 283.998 97.6968C283.52 98.1106 283.145 98.6315 282.905 99.2173C282.438 100.4 282.347 101.698 282.645 102.935C282.781 103.541 282.959 104.138 283.176 104.721C283.792 106.455 284.53 108.17 285.67 109.615C286.646 110.76 287.743 111.794 288.942 112.702C289.684 113.308 290.451 113.928 291.365 114.213C291.986 114.378 292.626 114.462 293.268 114.463C294.06 114.502 294.901 114.527 295.587 114.132C296.642 113.523 296.959 112.173 297.529 111.095C298.017 110.175 298.742 109.4 299.196 108.463C299.517 107.728 299.753 106.958 299.899 106.169L300.874 101.832C301.226 100.26 301.549 98.4845 300.663 97.135C300.601 97.0236 300.511 96.9301 300.403 96.8637C300.234 96.7953 300.05 96.7758 299.871 96.8073C298.75 96.8828 297.63 96.6267 296.653 96.0709C296.498 95.9938 296.36 95.8859 296.248 95.7538C296.104 95.5306 296.018 95.2751 295.998 95.0103C295.903 94.4722 295.752 93.9456 295.548 93.4388C295.49 93.2579 295.384 93.096 295.242 92.9702C295.093 92.8762 294.925 92.8194 294.749 92.8046C293.244 92.5587 291.725 92.3987 290.201 92.3254C289.698 92.3043 288.945 92.1035 288.604 92.5439C288.263 92.9843 288.382 93.9956 288.326 94.5241Z" fill="#FBBEBE"/>
<path opacity="0.1" d="M288.326 94.5241C288.245 95.2499 288.009 96.0356 287.39 96.4232C286.884 96.7403 286.243 96.7122 285.66 96.8355C285.046 96.9879 284.477 97.2829 283.998 97.6968C283.52 98.1106 283.145 98.6315 282.905 99.2173C282.438 100.4 282.347 101.698 282.645 102.935C282.781 103.541 282.959 104.138 283.176 104.721C283.792 106.455 284.53 108.17 285.67 109.615C286.646 110.76 287.743 111.794 288.942 112.702C289.684 113.308 290.451 113.928 291.365 114.213C291.986 114.378 292.626 114.462 293.268 114.463C294.06 114.502 294.901 114.527 295.587 114.132C296.642 113.523 296.959 112.173 297.529 111.095C298.017 110.175 298.742 109.4 299.196 108.463C299.517 107.728 299.753 106.958 299.899 106.169L300.874 101.832C301.226 100.26 301.549 98.4845 300.663 97.135C300.601 97.0236 300.511 96.9301 300.403 96.8637C300.234 96.7953 300.05 96.7758 299.871 96.8073C298.75 96.8828 297.63 96.6267 296.653 96.0709C296.498 95.9938 296.36 95.8859 296.248 95.7538C296.104 95.5306 296.018 95.2751 295.998 95.0103C295.903 94.4722 295.752 93.9456 295.548 93.4388C295.49 93.2579 295.384 93.096 295.242 92.9702C295.093 92.8762 294.925 92.8194 294.749 92.8046C293.244 92.5587 291.725 92.3987 290.201 92.3254C289.698 92.3043 288.945 92.1035 288.604 92.5439C288.263 92.9843 288.382 93.9956 288.326 94.5241Z" fill="#FD8D1F"/>
<path d="M285.501 97.0187C284.685 96.7756 283.841 96.6417 282.99 96.6205C280.977 96.5712 278.828 97.2689 277.664 98.9143C276.876 100.101 276.586 101.55 276.858 102.949C277.14 104.337 277.769 105.631 278.687 106.708C279.219 107.274 279.69 107.892 280.095 108.555C280.65 109.612 280.664 110.873 280.798 112.078C281.15 114.936 282.367 117.627 282.852 120.467C283.338 123.307 282.916 126.605 280.675 128.416C280.299 128.719 279.845 129.036 279.813 129.519C279.76 130.291 280.763 130.622 281.533 130.693C283.837 130.915 286.201 131.129 288.439 130.534C289.367 130.287 290.257 129.903 291.2 129.727C293.596 129.28 296.002 130.196 298.394 130.64C300.128 130.924 301.882 131.067 303.639 131.066C304.049 131.102 304.462 131.048 304.849 130.907C305.04 130.832 305.202 130.698 305.312 130.525C305.422 130.351 305.475 130.147 305.461 129.942C305.385 129.676 305.242 129.433 305.046 129.237C303.836 127.736 303.467 125.749 303.136 123.85L302.045 117.455C301.451 114.044 300.899 110.341 302.51 107.276C303.671 105.073 305.802 103.523 307.026 101.356C307.459 100.7 307.655 99.9157 307.582 99.1328C307.399 98.044 306.418 97.2653 305.412 96.8073C303.479 95.9415 301.285 95.8619 299.294 96.5853C299.33 98.111 298.943 99.6543 298.689 101.166L298.264 103.632C298.048 105.086 297.731 106.522 297.314 107.931C297.159 108.493 296.9 109.022 296.551 109.488C296.175 109.907 295.716 110.241 295.203 110.471C294.092 111.015 292.87 111.294 291.633 111.285C291.098 111.296 290.565 111.215 290.057 111.046C289.22 110.743 288.541 110.119 287.886 109.513C287.671 109.33 287.479 109.122 287.313 108.893C287.141 108.599 287.009 108.282 286.922 107.952C286.638 107.091 286.414 106.21 286.254 105.316C286.145 104.633 286.113 103.939 286.064 103.248C285.909 101.247 285.913 98.9813 285.501 97.0187Z" fill="#F2F2F2"/>
<path d="M283.383 137.451C283.383 137.451 282.55 148.521 287.763 150.403C292.976 152.284 288.389 141.21 288.389 141.21L286.722 137.866L283.383 137.451Z" fill="#FBBEBE"/>
<path d="M301.113 137.451C301.113 137.451 301.947 148.521 296.733 150.403C291.52 152.284 296.107 141.21 296.107 141.21L297.775 137.866L301.113 137.451Z" fill="#FBBEBE"/>
<path opacity="0.1" d="M278.796 100.475L277.129 103.192C277.129 103.192 278.589 112.592 278.796 114.263C278.975 115.465 279.254 116.651 279.63 117.807C279.63 117.807 279.838 122.821 279.838 124.699C279.838 126.577 280.893 129.713 280.893 129.713C281.039 131.489 281.393 133.242 281.948 134.935C282.782 137.236 283.619 139.949 283.619 139.949C283.619 139.949 284.674 137.024 288.832 141.411C289.297 140.937 289.558 140.299 289.558 139.635C289.558 138.971 289.297 138.333 288.832 137.859C288.832 137.859 287.58 132.222 287.58 129.297C287.58 126.373 285.287 112.385 285.287 112.385C285.287 112.385 283.802 96.5043 278.796 100.475Z" fill="#FD8D1F"/>
<path d="M278.385 100.267L276.717 102.98C276.717 102.98 278.177 112.381 278.385 114.055C278.565 115.259 278.845 116.445 279.222 117.603C279.222 117.603 279.44 122.617 279.44 124.502C279.44 126.387 280.495 129.516 280.495 129.516C280.643 131.292 280.997 133.044 281.551 134.737C282.384 137.035 283.218 139.751 283.218 139.751C283.218 139.751 284.273 136.827 288.431 141.214C288.897 140.74 289.158 140.102 289.158 139.438C289.158 138.773 288.897 138.135 288.431 137.662C288.431 137.662 287.179 132.024 287.179 129.096C287.179 126.168 284.886 112.184 284.886 112.184C284.886 112.184 283.383 96.314 278.385 100.267Z" fill="#F2F2F2"/>
<path opacity="0.1" d="M305.908 98.8016L306.963 100.045C306.963 100.045 308.194 107.159 305.482 116.141L304.648 124.29C304.648 124.29 303.188 131.182 302.977 132.856C302.766 134.53 302.77 134.734 302.355 135.361C302.227 135.507 302.157 135.695 302.157 135.89C302.157 136.084 302.227 136.272 302.355 136.418L301.102 141.016C301.102 141.016 299.224 138.719 295.474 141.643C295.474 141.643 294.419 139.97 295.266 138.508C296.114 137.045 296.1 136.418 295.893 136.002C295.685 135.587 296.726 133.494 296.726 133.078C296.726 132.662 298.186 123.05 298.186 123.05C298.186 123.05 298.812 113.649 299.438 110.517C299.822 108.59 299.811 104.291 299.748 101.268C299.681 98.1216 303.484 96.4127 305.728 98.6289C305.788 98.6747 305.848 98.7382 305.908 98.8016Z" fill="#FD8D1F"/>
<path d="M306.527 98.3858L307.582 99.6296C307.582 99.6296 308.81 106.74 306.101 115.725L305.268 123.871C305.268 123.871 303.808 130.766 303.597 132.437C303.386 134.107 303.389 134.318 302.971 134.942C302.845 135.089 302.776 135.277 302.776 135.47C302.776 135.664 302.845 135.851 302.971 135.999L301.722 140.579C301.722 140.579 299.843 138.282 296.093 141.207C296.093 141.207 295.038 139.536 295.886 138.074C296.734 136.612 296.719 135.985 296.508 135.565C296.297 135.146 297.346 133.06 297.346 132.641C297.346 132.222 298.805 122.613 298.805 122.613C298.805 122.613 299.432 113.213 300.054 110.08C300.677 106.948 300.265 97.5472 300.265 97.5472C300.265 97.5472 303.614 95.257 306.527 98.3858Z" fill="#F2F2F2"/>
<path d="M292.561 95.4613C297.17 95.4613 300.906 91.7195 300.906 87.1037C300.906 82.4879 297.17 78.746 292.561 78.746C287.953 78.746 284.217 82.4879 284.217 87.1037C284.217 91.7195 287.953 95.4613 292.561 95.4613Z" fill="#FBBEBE"/>
<path opacity="0.1" d="M296.913 74.5566C296.512 75.678 295.778 76.6501 294.811 77.3427C293.843 78.0353 292.687 78.4154 291.498 78.4323C290.309 78.4491 289.143 78.1019 288.156 77.437C287.169 76.7721 286.409 75.8213 285.976 74.7116C289.23 73.4009 292.561 74.5707 292.561 74.5707C294.215 73.9823 295.664 74.0387 296.913 74.5566Z" fill="#FD8D1F"/>
<path d="M292.561 74.99C292.561 74.99 276.503 69.3525 280.464 96.7157C280.464 96.7157 284.01 99.013 286.722 97.5508C286.722 97.5508 284.843 78.524 292.143 79.3767C299.442 80.2294 298.193 97.1315 298.193 97.1315C298.193 97.1315 302.365 98.3858 303.614 96.0744C304.863 93.763 303.199 71.2269 292.561 74.99Z" fill="#FF6584"/>
<path opacity="0.1" d="M292.143 78.1223C287.134 77.548 286.448 86.3179 286.514 91.8815C286.578 86.3532 287.506 78.8447 292.143 79.3767C297.356 79.9722 298.207 88.7668 298.271 93.7489C298.327 89.179 297.828 78.7742 292.143 78.1223Z" fill="#FD8D1F"/>
<path opacity="0.1" d="M280.464 95.4614C280.102 93.0601 279.894 90.638 279.841 88.2101C279.824 91.0526 280.032 93.8921 280.464 96.7016C280.464 96.7016 284.01 98.9989 286.722 97.5367C286.722 97.5367 286.676 97.0857 286.627 96.3281C283.929 97.7234 280.464 95.4614 280.464 95.4614Z" fill="#FD8D1F"/>
<path opacity="0.1" d="M303.614 94.8342C302.45 96.9729 298.753 96.0357 298.25 95.8912C298.225 96.6664 298.193 97.128 298.193 97.128C298.193 97.128 302.365 98.3823 303.614 96.0709C303.875 95.5953 304.008 94.2599 303.966 92.4735C303.931 93.6397 303.808 94.4783 303.614 94.8342Z" fill="#FD8D1F"/>
<path d="M346.38 230.044C347.343 228.257 346.249 226.066 344.994 224.473C343.738 222.881 342.204 221.221 342.236 219.188C342.285 216.27 345.377 214.548 347.864 213.001C349.698 211.852 351.39 210.489 352.905 208.942C353.538 208.345 354.061 207.643 354.453 206.866C354.963 205.725 354.949 204.425 354.917 203.174C354.812 199.009 354.606 194.848 354.302 190.69" stroke="#3F3D56" stroke-width="4" stroke-miterlimit="10"/>
<path d="M358.98 190.465C358.945 189.702 358.719 188.96 358.323 188.308C357.926 187.656 357.372 187.114 356.711 186.733L355.694 188.749L355.726 186.307C355.24 186.165 354.734 186.104 354.228 186.127C353.33 186.169 352.465 186.477 351.741 187.012C351.018 187.546 350.469 188.283 350.165 189.13C349.86 189.977 349.812 190.896 350.028 191.769C350.245 192.643 350.715 193.433 351.379 194.04C352.043 194.646 352.872 195.041 353.761 195.176C354.65 195.31 355.558 195.178 356.372 194.795C357.185 194.413 357.867 193.797 358.332 193.026C358.796 192.255 359.022 191.364 358.98 190.465Z" fill="#798493"/>
<path d="M350.875 221.277C350.417 222.168 349.678 222.883 348.773 223.31C347.868 223.737 346.848 223.853 345.87 223.641C344.892 223.428 344.012 222.898 343.366 222.133C342.72 221.368 342.343 220.411 342.295 219.41C342.263 218.779 342.364 218.149 342.591 217.56C342.923 216.697 343.51 215.957 344.272 215.436C345.035 214.915 345.938 214.639 346.861 214.644C347.784 214.649 348.684 214.936 349.44 215.466C350.197 215.995 350.775 216.743 351.097 217.609L348.258 219.924L351.378 219.198C351.38 219.922 351.207 220.635 350.875 221.277Z" fill="#798493"/>
<path d="M348.631 212.437C348.034 212.465 347.438 212.375 346.877 212.172C346.315 211.969 345.799 211.657 345.357 211.255C344.916 210.852 344.558 210.366 344.304 209.824C344.051 209.283 343.906 208.697 343.878 208.1C343.844 207.387 343.979 206.677 344.272 206.028C344.546 205.42 344.949 204.879 345.452 204.444C345.956 204.008 346.548 203.688 347.189 203.505L347.167 205.383L348.195 203.339C349.399 203.284 350.575 203.71 351.466 204.523C352.356 205.336 352.888 206.471 352.944 207.677C352.971 208.202 352.906 208.728 352.75 209.231C352.475 210.124 351.933 210.911 351.196 211.485C350.459 212.058 349.563 212.391 348.631 212.437Z" fill="#798493"/>
<path d="M359.666 205.083C359.07 205.111 358.474 205.021 357.912 204.818C357.35 204.616 356.834 204.304 356.393 203.901C355.951 203.498 355.594 203.012 355.34 202.471C355.086 201.93 354.941 201.343 354.914 200.746C354.875 200.003 355.023 199.262 355.343 198.59C355.609 198.025 355.988 197.521 356.457 197.109C356.926 196.697 357.475 196.387 358.069 196.197C358.663 196.006 359.289 195.941 359.91 196.004C360.53 196.067 361.131 196.258 361.675 196.564L360.873 198.766L362.523 197.177C363.408 197.989 363.937 199.119 363.993 200.32C364.014 200.741 363.975 201.164 363.877 201.574C363.652 202.538 363.119 203.402 362.359 204.036C361.599 204.669 360.654 205.037 359.666 205.083Z" fill="#798493"/>
<path opacity="0.1" d="M358.372 191.677C357.316 191.793 356.3 192.117 355.248 192.184C354.196 192.251 353.039 191.997 352.374 191.176C352.064 190.7 351.784 190.206 351.533 189.696C351.246 189.248 350.853 188.877 350.39 188.615C350.031 189.316 349.862 190.1 349.901 190.887C349.95 191.993 350.4 193.043 351.166 193.84C351.932 194.638 352.962 195.128 354.064 195.22C355.165 195.312 356.261 194.999 357.149 194.34C358.036 193.681 358.654 192.72 358.885 191.638C358.713 191.645 358.54 191.659 358.372 191.677Z" fill="#FD8D1F"/>
<path opacity="0.1" d="M359.666 205.083C359.07 205.111 358.474 205.021 357.912 204.819C357.35 204.616 356.834 204.304 356.393 203.901C355.951 203.498 355.594 203.012 355.34 202.471C355.086 201.93 354.941 201.344 354.914 200.746C354.875 200.003 355.023 199.262 355.343 198.59C355.704 198.833 356.014 199.144 356.257 199.506C356.581 199.996 356.775 200.563 357.158 201.01C357.861 201.842 359.075 202.117 360.173 202.067C361.27 202.018 362.325 201.715 363.42 201.606C363.571 201.606 363.726 201.581 363.877 201.578C363.651 202.541 363.117 203.404 362.358 204.037C361.598 204.67 360.653 205.037 359.666 205.083Z" fill="#FD8D1F"/>
<path opacity="0.1" d="M348.631 212.437C348.034 212.465 347.438 212.375 346.877 212.172C346.315 211.969 345.799 211.657 345.357 211.255C344.916 210.852 344.558 210.366 344.304 209.824C344.051 209.283 343.906 208.697 343.878 208.1C343.844 207.387 343.979 206.677 344.272 206.028C344.641 206.277 344.963 206.589 345.222 206.951C345.574 207.451 345.796 208.008 346.207 208.487C346.974 209.343 348.265 209.643 349.426 209.618C350.587 209.594 351.635 209.315 352.754 209.231C352.479 210.125 351.935 210.912 351.198 211.486C350.46 212.059 349.564 212.392 348.631 212.437Z" fill="#EE6161"/>
<path opacity="0.1" d="M350.875 221.277C350.417 222.168 349.678 222.883 348.773 223.31C347.868 223.737 346.848 223.853 345.87 223.641C344.892 223.428 344.012 222.898 343.366 222.133C342.72 221.368 342.343 220.411 342.295 219.41C342.263 218.779 342.364 218.149 342.591 217.56C342.965 217.807 343.3 218.107 343.586 218.452C344.019 218.98 344.29 219.579 344.804 220.069C345.732 220.985 347.234 221.362 348.568 221.397C349.339 221.402 350.109 221.362 350.875 221.277Z" fill="#FD8D1F"/>
<path d="M339.527 227.986C339.527 227.986 343.111 227.877 344.195 227.105C345.278 226.334 349.711 225.414 349.982 226.651C350.252 227.887 355.371 232.803 351.322 232.834C347.273 232.866 341.912 232.204 340.832 231.545C339.752 230.886 339.527 227.986 339.527 227.986Z" fill="#656380"/>
<path opacity="0.2" d="M351.392 232.404C347.343 232.436 341.982 231.77 340.902 231.115C340.083 230.611 339.755 228.814 339.646 227.982H339.527C339.527 227.982 339.752 230.882 340.832 231.541C341.912 232.2 347.273 232.862 351.322 232.831C352.49 232.831 352.894 232.404 352.873 231.774C352.711 232.165 352.258 232.397 351.392 232.404Z" fill="#FD8D1F"/>
</g>
<defs>
<clipPath id="clip0">
<rect width="364" height="249" fill="white"/>
</clipPath>
</defs>
</svg>
