<svg width="326" height="184" viewBox="0 0 326 184" fill="none" xmlns="http://www.w3.org/2000/svg">
<path d="M300.373 183.64C305.142 183.64 309.009 182.994 309.009 182.198C309.009 181.402 305.142 180.756 300.373 180.756C295.604 180.756 291.737 181.402 291.737 182.198C291.737 182.994 295.604 183.64 300.373 183.64Z" fill="#F2F2F2"/>
<path d="M310.448 44.5132H309.729V59.6513H310.448V44.5132Z" fill="#F2F2F2"/>
<path d="M302.532 34.7816H298.214V184H302.532V34.7816Z" fill="#FD8D1F"/>
<path d="M320.141 46.4956H280.605C280.172 46.4956 279.743 46.4032 279.348 46.2246C278.952 46.046 278.599 45.7852 278.312 45.4595C278.025 45.1339 277.811 44.7508 277.683 44.3357C277.555 43.9206 277.517 43.483 277.571 43.052L282.608 2.6837C282.701 1.94316 283.061 1.26214 283.62 0.768143C284.178 0.274148 284.898 0.00105592 285.643 0H315.104C315.849 0.00105582 316.568 0.274148 317.127 0.768143C317.685 1.26214 318.045 1.94316 318.138 2.6837L323.176 43.052C323.23 43.483 323.191 43.9206 323.064 44.3357C322.936 44.7508 322.721 45.1339 322.434 45.4595C322.147 45.7852 321.794 46.046 321.399 46.2246C321.004 46.4032 320.575 46.4956 320.141 46.4956Z" fill="#FD8D1F"/>
<path d="M310.089 62.1743C311.48 62.1743 312.607 61.0447 312.607 59.6513C312.607 58.2579 311.48 57.1283 310.089 57.1283C308.698 57.1283 307.57 58.2579 307.57 59.6513C307.57 61.0447 308.698 62.1743 310.089 62.1743Z" fill="#F2F2F2"/>
<path d="M45.1795 143.943C43.3616 150.26 38.0537 154.682 32.5168 158.439C31.7437 158.963 30.9704 159.476 30.1968 159.976C30.1915 159.979 30.1861 159.984 30.1808 159.986C30.1436 160.01 30.1063 160.034 30.0717 160.058C29.912 160.161 29.7523 160.264 29.5939 160.366L29.6809 160.405C29.6809 160.405 29.7663 160.451 29.6729 160.413C29.6451 160.401 29.6159 160.39 29.5882 160.379C26.3716 159.079 23.0979 157.684 20.6329 155.25C18.0758 152.722 16.5815 148.757 17.9661 145.436C18.1481 145.001 18.378 144.587 18.6515 144.204C18.7638 144.043 18.8848 143.888 19.0107 143.737C19.7745 142.803 20.7728 142.09 21.9029 141.671C23.033 141.252 24.2542 141.142 25.4409 141.352C26.6276 141.563 27.7369 142.086 28.6549 142.868C29.5728 143.65 30.2662 144.663 30.6638 145.802C31.0706 142.009 27.9476 138.831 24.9421 136.486C21.9354 134.142 18.5188 131.59 17.9376 127.817C17.6129 125.718 18.3417 123.684 19.6691 122.051C19.7102 122.001 19.7512 121.952 19.7936 121.903C21.4095 120.002 23.6822 118.78 26.1578 118.483C30.7683 118.003 35.2467 120.448 38.5961 123.659C43.987 128.825 47.246 136.761 45.1795 143.943Z" fill="#FD8D1F"/>
<path d="M36.5134 135.681C37.3983 137.06 38.0776 138.56 38.53 140.136C38.9126 141.544 39.0829 143.001 39.0352 144.46C38.9118 147.461 38.0707 150.389 36.5826 152.997C35.4616 154.975 34.0955 156.804 32.5168 158.439C31.7437 158.963 30.9704 159.476 30.1968 159.976C30.1915 159.979 30.1861 159.984 30.1808 159.986C30.1436 160.01 30.1063 160.034 30.0716 160.058C29.912 160.161 29.7523 160.264 29.5939 160.366C29.5939 160.366 29.7663 160.451 29.6729 160.413C29.6451 160.401 29.6159 160.39 29.5882 160.379C29.8765 158.011 29.594 155.609 28.7646 153.373C27.9351 151.137 26.5828 149.133 24.8209 147.529C23.0547 145.949 20.9408 144.81 18.6515 144.204C18.7638 144.043 18.8848 143.889 19.0107 143.737C19.8949 143.986 20.7554 144.312 21.5822 144.712C24.5379 146.134 26.958 148.471 28.4843 151.378C29.854 154.017 30.4435 156.993 30.1836 159.956C30.3157 159.836 30.4481 159.714 30.5764 159.592C33.0206 157.31 35.1916 154.69 36.6609 151.666C37.9355 149.105 38.562 146.27 38.4851 143.409C38.3652 140.29 37.1246 137.401 35.3284 134.886C33.3597 132.203 31.0341 129.802 28.416 127.751C25.7776 125.634 22.8905 123.848 19.819 122.434C19.7498 122.402 19.6956 122.344 19.6677 122.272C19.6398 122.201 19.6403 122.122 19.6691 122.051C19.6896 121.987 19.7343 121.934 19.7936 121.904C19.8241 121.89 19.8571 121.884 19.8903 121.886C19.9235 121.887 19.9559 121.896 19.9852 121.912C20.3644 122.087 20.741 122.264 21.1145 122.449C24.226 123.989 27.1343 125.911 29.7728 128.17C32.3213 130.346 34.7206 132.833 36.5134 135.681Z" fill="#FD8D1F"/>
<path d="M18.9358 159.851H38.8569C39.0754 159.851 39.2914 159.898 39.4906 159.988C39.6898 160.078 39.8676 160.209 40.0122 160.373C40.1568 160.537 40.265 160.73 40.3294 160.939C40.3939 161.149 40.4132 161.369 40.3861 161.586L37.8478 181.927C37.8007 182.3 37.6194 182.643 37.338 182.892C37.0565 183.141 36.6941 183.279 36.3186 183.279H21.474C21.0986 183.279 20.7362 183.141 20.4547 182.892C20.1732 182.643 19.9919 182.3 19.9449 181.927L17.4066 161.586C17.3794 161.369 17.3988 161.149 17.4632 160.939C17.5277 160.73 17.6358 160.537 17.7804 160.373C17.925 160.209 18.1028 160.078 18.302 159.988C18.5012 159.898 18.7172 159.851 18.9358 159.851Z" fill="#FD8D1F"/>
<path d="M83.8885 183.435C85.2654 183.435 86.3816 182.317 86.3816 180.938C86.3816 179.559 85.2654 178.441 83.8885 178.441C82.5116 178.441 81.3954 179.559 81.3954 180.938C81.3954 182.317 82.5116 183.435 83.8885 183.435Z" fill="#CCCCCC"/>
<path d="M241.37 183.435C242.747 183.435 243.863 182.317 243.863 180.938C243.863 179.559 242.747 178.441 241.37 178.441C239.993 178.441 238.877 179.559 238.877 180.938C238.877 182.317 239.993 183.435 241.37 183.435Z" fill="#CCCCCC"/>
<path d="M129.596 146.184H90.5367C88.719 146.182 86.9764 145.457 85.691 144.17C84.4057 142.882 83.6827 141.137 83.6807 139.316V112.678C83.6827 110.857 84.4057 109.112 85.691 107.824C86.9764 106.537 88.719 105.812 90.5367 105.81H129.596C131.413 105.812 133.156 106.537 134.441 107.824C135.727 109.112 136.45 110.857 136.452 112.678V139.316C136.45 141.137 135.727 142.882 134.441 144.17C133.156 145.457 131.413 146.182 129.596 146.184Z" fill="#FD8D1F"/>
<path d="M182.159 146.392H143.1C141.282 146.39 139.54 145.666 138.254 144.378C136.969 143.091 136.246 141.345 136.244 139.524V112.886C136.246 111.065 136.969 109.32 138.254 108.032C139.54 106.745 141.282 106.02 143.1 106.018H182.159C183.976 106.02 185.719 106.745 187.004 108.032C188.29 109.32 189.013 111.065 189.015 112.886V139.524C189.013 141.345 188.29 143.091 187.004 144.378C185.719 145.666 183.976 146.39 182.159 146.392Z" fill="#F2983F"/>
<path d="M234.722 146.6H195.663C193.845 146.598 192.103 145.874 190.817 144.586C189.532 143.299 188.809 141.553 188.807 139.732V113.094C188.809 111.273 189.532 109.528 190.817 108.24C192.103 106.953 193.845 106.229 195.663 106.227H234.722C236.54 106.229 238.282 106.953 239.568 108.24C240.853 109.528 241.576 111.273 241.578 113.094V139.732C241.576 141.553 240.853 143.299 239.568 144.586C238.282 145.874 236.54 146.598 234.722 146.6Z" fill="#EC8723"/>
<path d="M249.681 144.727H77.6558V180.73H249.681V144.727Z" fill="#FD8D1F"/>
<path d="M83.8885 180.938H76.4092C72.6287 180.938 69.5531 177.44 69.5531 173.141V135.57H83.8885V180.938Z" fill="#FD8D1F"/>
<path d="M248.849 180.938H241.37V129.743H255.706V172.139C255.706 176.991 252.63 180.938 248.849 180.938Z" fill="#FD8D1F"/>
<path d="M136.659 152.219H83.8885V140.981C101.479 130.874 119.069 130.874 136.659 140.981V152.219Z" fill="#C7711D"/>
<path d="M189.223 152.427H136.452V141.189C154.042 131.082 171.632 131.082 189.223 141.189V152.427Z" fill="#E67C14"/>
<path d="M241.786 152.635H189.015V141.397C206.605 131.29 224.196 131.29 241.786 141.397V152.635Z" fill="#F29C47"/>
<path d="M73.7082 145.143C80.478 145.143 85.9661 139.646 85.9661 132.865C85.9661 126.083 80.478 120.586 73.7082 120.586C66.9384 120.586 61.4504 126.083 61.4504 132.865C61.4504 139.646 66.9384 145.143 73.7082 145.143Z" fill="#DE7D1D"/>
<path d="M253.212 144.727C259.982 144.727 265.47 139.23 265.47 132.448C265.47 125.667 259.982 120.17 253.212 120.17C246.443 120.17 240.955 125.667 240.955 132.448C240.955 139.23 246.443 144.727 253.212 144.727Z" fill="#D3781E"/>
<path d="M217.104 108.394C217.133 108.591 217.146 108.791 217.143 108.99L231.836 119.134L235.754 117.276L239.327 122.833L232.709 126.797C232.175 127.118 231.551 127.256 230.931 127.19C230.312 127.125 229.73 126.861 229.273 126.436L214.393 112.602C213.655 112.81 212.871 112.788 212.145 112.539C211.419 112.29 210.787 111.825 210.331 111.207C209.876 110.589 209.619 109.847 209.595 109.079C209.571 108.311 209.78 107.554 210.196 106.908C210.612 106.263 211.215 105.759 211.923 105.465C212.632 105.171 213.413 105.1 214.163 105.261C214.913 105.422 215.596 105.808 216.121 106.368C216.647 106.928 216.99 107.634 217.104 108.394V108.394Z" fill="#FFB8B8"/>
<path d="M232.119 118.261C232.184 118.037 232.296 117.83 232.448 117.653C232.6 117.477 232.788 117.335 232.999 117.238L240.387 113.847C241.385 113.197 242.6 112.969 243.765 113.214C244.93 113.459 245.95 114.156 246.603 115.154C247.255 116.152 247.486 117.367 247.244 118.535C247.003 119.703 246.309 120.727 245.315 121.383L239.208 126.793C239.033 126.948 238.828 127.062 238.605 127.13C238.383 127.198 238.148 127.217 237.917 127.185C237.687 127.154 237.466 127.073 237.269 126.948C237.073 126.824 236.905 126.658 236.778 126.463L232.317 119.597C232.19 119.402 232.107 119.181 232.072 118.951C232.038 118.72 232.054 118.485 232.119 118.261Z" fill="white"/>
<path d="M216.919 109.055L216.845 109.06L216.644 106.269C216.579 105.376 216.003 104.691 215.357 104.738L211.072 105.048C210.426 105.095 209.237 105.909 209.301 106.801L209.353 107.52L210.407 122.116C210.472 123.008 211.766 123.642 212.412 123.595L216.696 123.284C217.343 123.237 217.814 122.476 217.75 121.584L216.989 111.048L217.063 111.042L216.919 109.055Z" fill="#3F3D56"/>
<path d="M216.396 106.298L217.5 121.591C217.548 122.257 217.196 122.826 216.713 122.861L212.409 123.173C211.926 123.207 211.496 122.696 211.447 122.029L210.343 106.737C210.295 106.07 210.647 105.502 211.13 105.467L211.652 105.429C211.616 105.565 211.624 105.709 211.674 105.84C211.725 105.972 211.816 106.084 211.934 106.16C211.984 106.184 212.039 106.194 212.093 106.191L214.548 106.013C214.777 105.996 214.945 105.726 214.921 105.409C214.916 105.336 214.901 105.264 214.875 105.195L215.434 105.155C215.917 105.12 216.347 105.632 216.396 106.298Z" fill="white"/>
<path d="M156.005 141.61L154.585 137.426L170.02 129.949L172.115 136.124L156.005 141.61Z" fill="#FFB8B8"/>
<path d="M152.319 144.056L147.741 130.566L147.911 130.508C148.599 130.273 149.327 130.177 150.053 130.224C150.778 130.272 151.487 130.461 152.14 130.783C152.792 131.105 153.374 131.552 153.854 132.1C154.334 132.647 154.701 133.284 154.935 133.973L154.935 133.974L157.731 142.213L152.319 144.056Z" fill="#2F2E41"/>
<path d="M217.262 144.596C213.952 144.782 210.651 144.09 207.694 142.589L189.545 130.221L168.353 138.082C167.79 138.274 167.176 138.244 166.634 138C166.093 137.756 165.663 137.315 165.434 136.766L164.395 134.263C164.158 133.7 164.151 133.067 164.376 132.499C164.601 131.931 165.039 131.474 165.597 131.227L185.843 122.119C188.274 121.03 191 120.794 193.582 121.449L221.688 128.623L229.118 137.461L229.035 137.575C225.388 142.615 221.062 144.32 217.262 144.596Z" fill="#2F2E41"/>
<path d="M240.217 107.666C245.098 107.666 249.055 103.702 249.055 98.813C249.055 93.9239 245.098 89.9604 240.217 89.9604C235.336 89.9604 231.379 93.9239 231.379 98.813C231.379 103.702 235.336 107.666 240.217 107.666Z" fill="#FFB8B8"/>
<path d="M231.145 141.401L216.922 130.798L226.622 123.893C226.344 122.998 225.114 117.884 231.845 114.399C233.976 113.295 235.511 112.346 236.408 111.576C237.681 110.476 239.311 109.881 240.991 109.901C242.051 109.918 243.092 110.182 244.032 110.671C244.972 111.161 245.785 111.863 246.408 112.721C247.03 113.58 247.445 114.572 247.618 115.619C247.792 116.666 247.719 117.739 247.407 118.754C246.004 123.324 243.768 129.38 241.087 132.276C238.055 135.549 234.766 138.573 231.253 141.32L231.145 141.401Z" fill="white"/>
<path d="M158.261 145.317L156.841 141.133L172.275 133.657L174.371 139.831L158.261 145.317Z" fill="#FFB8B8"/>
<path d="M154.574 147.763L149.996 134.273L150.167 134.215C150.855 133.98 151.583 133.884 152.308 133.931C153.034 133.979 153.743 134.169 154.395 134.49C155.047 134.812 155.63 135.26 156.11 135.807C156.589 136.354 156.956 136.991 157.19 137.68L157.191 137.681L159.987 145.92L154.574 147.763Z" fill="#2F2E41"/>
<path d="M219.518 148.303C216.207 148.489 212.907 147.797 209.949 146.296L191.8 133.929L170.608 141.789C170.046 141.981 169.432 141.952 168.89 141.707C168.348 141.463 167.919 141.022 167.689 140.473L166.65 137.97C166.414 137.407 166.407 136.774 166.632 136.206C166.856 135.638 167.294 135.181 167.852 134.934L188.098 125.826C190.529 124.737 193.256 124.501 195.837 125.156L223.944 132.33L231.373 141.168L231.29 141.282C227.643 146.323 223.317 148.027 219.518 148.303Z" fill="#2F2E41"/>
<path d="M215.438 119.013C215.548 119.179 215.645 119.354 215.728 119.535L233.342 122.401L236.089 119.042L241.692 122.531L237.406 128.952C237.06 129.471 236.555 129.863 235.968 130.07C235.38 130.277 234.741 130.287 234.147 130.099L214.787 123.979C214.208 124.484 213.49 124.8 212.728 124.886C211.966 124.972 211.196 124.824 210.52 124.461C209.844 124.097 209.294 123.537 208.944 122.853C208.594 122.169 208.46 121.395 208.56 120.633C208.66 119.872 208.989 119.158 209.504 118.589C210.018 118.019 210.694 117.619 211.441 117.443C212.187 117.268 212.97 117.324 213.684 117.604C214.398 117.884 215.01 118.376 215.438 119.013Z" fill="#FFB8B8"/>
<path d="M233.225 121.491C233.187 121.261 233.2 121.025 233.262 120.801C233.324 120.576 233.433 120.367 233.583 120.189L238.81 113.956C239.434 112.94 240.434 112.213 241.591 111.935C242.749 111.657 243.97 111.85 244.985 112.471C246.001 113.093 246.73 114.093 247.011 115.252C247.292 116.41 247.103 117.634 246.485 118.653L243.277 126.161C243.186 126.376 243.049 126.568 242.877 126.724C242.705 126.881 242.501 126.998 242.279 127.069C242.057 127.14 241.823 127.161 241.592 127.133C241.361 127.105 241.139 127.027 240.941 126.905L233.975 122.613C233.776 122.491 233.607 122.328 233.477 122.134C233.348 121.94 233.262 121.721 233.225 121.491Z" fill="white"/>
<path d="M237.854 108.562C240.422 105.253 241.846 101.197 241.912 97.0055C240.703 97.9054 239.335 98.5673 237.879 98.9564C236.335 99.3684 234.638 99.4513 233.183 98.7877C231.136 97.8537 229.926 95.4718 230.158 93.2308C230.39 90.9898 231.936 88.9878 233.95 87.9828C236.01 87.0176 238.361 86.8751 240.522 87.5843C241.666 86.6086 243.066 85.9839 244.556 85.7848C246.045 85.5857 247.559 85.8208 248.919 86.4619C252.047 87.9999 253.777 91.5613 254.077 95.0389C254.377 98.5165 253.485 101.974 252.601 105.351L252.501 105.732C252.226 106.783 251.425 108.8 251.425 108.8C251.425 108.8 246.778 107.881 244.931 107.292C242.255 108.261 237.854 108.562 237.854 108.562Z" fill="#2F2E41"/>
<path d="M215.701 109.411L211.914 109.685C211.819 109.692 211.725 109.661 211.653 109.598C211.581 109.536 211.536 109.447 211.529 109.352C211.522 109.256 211.554 109.162 211.616 109.09C211.678 109.018 211.767 108.973 211.862 108.966L215.649 108.692C215.696 108.688 215.743 108.694 215.788 108.709C215.833 108.724 215.875 108.747 215.911 108.778C215.947 108.809 215.976 108.847 215.997 108.89C216.018 108.932 216.031 108.978 216.035 109.025C216.038 109.073 216.032 109.12 216.017 109.165C216.002 109.21 215.979 109.252 215.948 109.287C215.917 109.323 215.879 109.353 215.836 109.374C215.794 109.395 215.748 109.408 215.701 109.411Z" fill="#3F3D56"/>
<path d="M215.831 111.208L212.044 111.483C211.997 111.486 211.949 111.48 211.904 111.466C211.859 111.451 211.818 111.427 211.782 111.396C211.746 111.365 211.717 111.327 211.696 111.285C211.674 111.243 211.662 111.197 211.658 111.149C211.655 111.102 211.661 111.055 211.676 111.01C211.691 110.965 211.714 110.923 211.745 110.887C211.776 110.851 211.814 110.822 211.856 110.801C211.899 110.78 211.945 110.767 211.992 110.764L215.779 110.489C215.874 110.482 215.968 110.514 216.04 110.576C216.112 110.639 216.157 110.727 216.163 110.823C216.17 110.918 216.139 111.012 216.077 111.085C216.014 111.157 215.926 111.201 215.831 111.208Z" fill="#3F3D56"/>
<path d="M215.96 113.006L212.174 113.28C212.079 113.287 211.985 113.256 211.913 113.193C211.841 113.13 211.796 113.042 211.79 112.947C211.783 112.851 211.814 112.757 211.876 112.685C211.938 112.613 212.027 112.568 212.122 112.561L215.908 112.287C216.004 112.28 216.098 112.311 216.17 112.374C216.242 112.436 216.286 112.525 216.293 112.62C216.3 112.716 216.269 112.81 216.206 112.882C216.144 112.954 216.055 112.999 215.96 113.006Z" fill="#3F3D56"/>
<path d="M325.64 184H0.359823C0.264392 184 0.17287 183.962 0.10539 183.894C0.0379096 183.827 0 183.735 0 183.64C0 183.544 0.0379096 183.452 0.10539 183.385C0.17287 183.317 0.264392 183.279 0.359823 183.279H325.64C325.736 183.279 325.827 183.317 325.895 183.385C325.962 183.452 326 183.544 326 183.64C326 183.735 325.962 183.827 325.895 183.894C325.827 183.962 325.736 184 325.64 184Z" fill="#2F80ED"/>
<path d="M172.996 63.9765H136.653C135.795 63.9755 134.972 63.6334 134.365 63.0253C133.758 62.4172 133.416 61.5926 133.415 60.7326V29.3751C133.416 28.5151 133.758 27.6905 134.365 27.0824C134.972 26.4743 135.795 26.1322 136.653 26.1312H172.996C173.854 26.1322 174.677 26.4743 175.284 27.0824C175.892 27.6906 176.233 28.5151 176.234 29.3751V60.7326C176.233 61.5926 175.892 62.4171 175.284 63.0253C174.677 63.6334 173.854 63.9755 172.996 63.9765ZM136.653 26.8521C135.986 26.8528 135.345 27.1189 134.873 27.5919C134.401 28.0649 134.135 28.7062 134.135 29.3751V60.7326C134.135 61.4015 134.401 62.0428 134.873 62.5158C135.345 62.9888 135.986 63.2549 136.653 63.2556H172.996C173.663 63.2549 174.304 62.9888 174.776 62.5158C175.248 62.0428 175.514 61.4015 175.514 60.7326V29.3751C175.514 28.7062 175.248 28.0649 174.776 27.5919C174.304 27.1189 173.663 26.8528 172.996 26.8521H136.653Z" fill="#F2F2F2"/>
<path d="M167.682 59.1107H141.967C141.156 59.1098 140.379 58.7867 139.806 58.2124C139.232 57.638 138.91 56.8593 138.909 56.047V34.0607C138.91 33.2485 139.232 32.4698 139.806 31.8954C140.379 31.3211 141.156 30.998 141.967 30.9971H167.682C168.493 30.998 169.271 31.3211 169.844 31.8954C170.417 32.4698 170.74 33.2485 170.741 34.0607V56.047C170.74 56.8593 170.417 57.638 169.844 58.2124C169.271 58.7867 168.493 59.1098 167.682 59.1107Z" fill="#FD8D1F"/>
<path d="M155.004 21.4457C155.998 21.4457 156.804 20.6388 156.804 19.6435C156.804 18.6482 155.998 17.8414 155.004 17.8414C154.011 17.8414 153.205 18.6482 153.205 19.6435C153.205 20.6388 154.011 21.4457 155.004 21.4457Z" fill="#F2F2F2"/>
<path d="M158.787 26.6769L155.005 20.3466L151.245 26.6758L150.627 26.3075L155.004 18.9402L159.405 26.3064L158.787 26.6769Z" fill="#F2F2F2"/>
<path d="M159.143 42.5308C159.142 41.9853 159.082 41.4415 158.964 40.9089H153.565C153.184 40.9089 152.817 41.0608 152.548 41.3312C152.278 41.6015 152.126 41.9682 152.126 42.3506V50.0726C154.031 49.9371 155.814 49.0838 157.116 47.6845C158.417 46.2851 159.142 44.4436 159.143 42.5308Z" fill="white"/>
<path d="M151.586 50.4603C150.093 50.4609 148.63 50.0384 147.367 49.2418C146.103 48.4451 145.09 47.3068 144.445 45.9581C143.8 44.6094 143.548 43.1054 143.72 41.6197C143.891 40.1341 144.479 38.7273 145.414 37.5618C146.35 36.3963 147.596 35.5196 149.007 35.0329C150.419 34.5463 151.94 34.4695 153.393 34.8114C154.847 35.1533 156.174 35.9001 157.222 36.9654C158.27 38.0307 158.996 39.3712 159.316 40.832L159.411 41.2694H153.565C153.279 41.2697 153.005 41.3837 152.802 41.5864C152.6 41.7891 152.486 42.064 152.486 42.3506V50.4084L152.089 50.4366C151.922 50.4487 151.756 50.4603 151.586 50.4603ZM151.586 35.3222C149.678 35.3222 147.847 36.0817 146.497 37.4336C145.148 38.7855 144.39 40.619 144.39 42.5309C144.39 44.4427 145.148 46.2762 146.497 47.6281C147.847 48.98 149.678 49.7395 151.586 49.7395C151.647 49.7395 151.706 49.7377 151.766 49.7349V42.3506C151.767 41.8729 151.956 41.4148 152.294 41.0769C152.631 40.7391 153.088 40.549 153.565 40.5485H158.503C158.067 39.0466 157.158 37.7262 155.911 36.7843C154.665 35.8424 153.148 35.3296 151.586 35.3222Z" fill="white"/>
<path d="M162.201 52.8031H153.565C153.088 52.8026 152.631 52.6125 152.294 52.2747C151.956 51.9368 151.767 51.4788 151.766 51.001V49.7368L152.101 49.7131C153.131 49.6418 154.133 49.3487 155.04 48.8538C155.947 48.3589 156.736 47.6738 157.354 46.8453C157.973 46.0168 158.405 45.0645 158.622 44.0533C158.839 43.0421 158.836 41.9958 158.613 40.986L158.517 40.5485H162.201C162.678 40.549 163.135 40.7391 163.473 41.0769C163.81 41.4148 164 41.8728 164 42.3506V51.001C164 51.4788 163.81 51.9368 163.473 52.2747C163.135 52.6125 162.678 52.8026 162.201 52.8031ZM152.486 50.4012V51.001C152.486 51.2876 152.6 51.5625 152.802 51.7652C153.005 51.9679 153.279 52.0819 153.565 52.0823H162.201C162.487 52.0819 162.762 51.9679 162.964 51.7652C163.166 51.5625 163.28 51.2876 163.28 51.001V42.3506C163.28 42.0639 163.166 41.7891 162.964 41.5864C162.762 41.3837 162.487 41.2696 162.201 41.2693H159.399C159.467 41.6864 159.502 42.1082 159.502 42.5308C159.496 44.4752 158.778 46.3496 157.485 47.7999C156.192 49.2501 154.414 50.1755 152.486 50.4012Z" fill="white"/>
</svg>
