<svg width="343" height="242" viewBox="0 0 343 242" fill="none" xmlns="http://www.w3.org/2000/svg">
<g clip-path="url(#clip0)">
<path d="M175.177 241.487C185.493 241.487 193.857 233.114 193.857 222.786C193.857 212.458 185.493 204.085 175.177 204.085C164.861 204.085 156.498 212.458 156.498 222.786C156.498 233.114 164.861 241.487 175.177 241.487Z" fill="#FD8D1F"/>
<path d="M286.769 240.436C297.219 237.294 308.329 234.018 316.616 226.549C324.022 219.874 329.022 209.681 325.954 199.671C322.892 189.682 313.721 183.021 304.253 179.708C298.882 177.829 293.264 176.786 287.648 175.967C281.542 175.077 275.41 174.348 269.281 173.646C244.462 170.804 219.551 169.068 194.546 168.438C182.207 168.127 169.871 168.134 157.531 168.314C146.51 168.474 134.904 168.47 124.68 163.78C116.73 160.134 109.514 153.499 107.299 144.781C104.742 134.717 109.458 124.469 116.224 117.18C119.791 113.338 123.959 110.105 128.259 107.131C132.924 103.906 137.751 100.909 142.683 98.1109C152.397 92.6033 162.552 87.9161 173.044 84.0979C178.219 82.2138 183.472 80.5883 188.77 79.0887C193.244 77.8225 197.731 76.5544 202.055 74.8292C210.413 71.494 218.363 65.8446 220.488 56.5829C222.503 47.805 219.107 38.2759 213.153 31.755C206.265 24.2108 195.879 20.9036 185.921 20.3685C174.743 19.7678 163.822 22.5688 153.315 26.1235C142.109 29.9149 131.144 34.2744 119.701 37.3454C108.354 40.3878 96.7867 42.5404 85.1053 43.7837C79.3869 44.3933 73.4956 45.0817 67.7431 44.615C62.922 44.2238 58.1256 42.8043 54.5725 39.3788C51.5259 36.4416 49.7111 32.405 50.335 28.145C50.4484 27.3713 51.6224 27.7003 51.5097 28.4693C50.7502 33.6548 54.271 38.4331 58.6096 40.8808C63.6238 43.7096 69.7255 43.7135 75.308 43.39C87.4126 42.658 99.4353 40.918 111.251 38.188C122.862 35.533 134.058 31.7376 145.241 27.6833C155.863 23.8327 166.721 20.0745 178.068 19.2405C187.914 18.5168 198.271 19.9528 206.848 25.1041C214.387 29.6314 219.93 37.1814 221.696 45.8452C223.422 54.3113 221.032 62.8326 214.631 68.7406C208.003 74.8576 198.915 77.4728 190.446 79.8814C179.705 82.9363 169.194 86.5073 159.019 91.1439C148.706 95.8305 138.816 101.397 129.457 107.783C120.424 113.963 111.508 121.74 108.651 132.766C107.32 137.902 107.566 143.349 109.793 148.2C111.773 152.513 115.034 156.142 118.833 158.94C127.897 165.617 139.32 166.988 150.269 167.125C162.565 167.278 174.862 166.863 187.163 167.065C212.23 167.477 237.247 169.004 262.212 171.647C268.468 172.31 274.716 173.043 280.956 173.846C286.568 174.568 292.2 175.285 297.718 176.567C307.53 178.847 317.077 183.231 323.175 191.56C325.882 195.17 327.559 199.448 328.027 203.938C328.454 208.622 327.308 213.316 325.192 217.484C320.509 226.709 311.738 232.576 302.422 236.431C297.433 238.495 292.258 240.06 287.092 241.613C286.34 241.839 286.018 240.662 286.769 240.437L286.769 240.436Z" fill="white"/>
<path d="M51.1217 38.0119C56.5042 38.0119 60.8675 33.6435 60.8675 28.2548C60.8675 22.8661 56.5042 18.4977 51.1217 18.4977C45.7393 18.4977 41.376 22.8661 41.376 28.2548C41.376 33.6435 45.7393 38.0119 51.1217 38.0119Z" fill="white"/>
<path d="M118.733 56.5096C124.115 56.5096 128.479 52.1412 128.479 46.7525C128.479 41.3639 124.115 36.9955 118.733 36.9955C113.35 36.9955 108.987 41.3639 108.987 46.7525C108.987 52.1412 113.35 56.5096 118.733 56.5096Z" fill="white"/>
<path d="M175.989 19.5141C181.372 19.5141 185.735 15.1457 185.735 9.75706C185.735 4.36838 181.372 0 175.989 0C170.607 0 166.243 4.36838 166.243 9.75706C166.243 15.1457 170.607 19.5141 175.989 19.5141Z" fill="white"/>
<path d="M211.724 60.9816C217.106 60.9816 221.47 56.6132 221.47 51.2245C221.47 45.8359 217.106 41.4675 211.724 41.4675C206.341 41.4675 201.978 45.8359 201.978 51.2245C201.978 56.6132 206.341 60.9816 211.724 60.9816Z" fill="#F2F2F2"/>
<path d="M163.401 108.954C168.783 108.954 173.147 104.585 173.147 99.1967C173.147 93.808 168.783 89.4396 163.401 89.4396C158.019 89.4396 153.655 93.808 153.655 99.1967C153.655 104.585 158.019 108.954 163.401 108.954Z" fill="white"/>
<path d="M102.084 132.127C107.466 132.127 111.83 127.758 111.83 122.37C111.83 116.981 107.466 112.613 102.084 112.613C96.7015 112.613 92.3381 116.981 92.3381 122.37C92.3381 127.758 96.7015 132.127 102.084 132.127Z" fill="white"/>
<path d="M167.056 168.309C172.438 168.309 176.801 163.941 176.801 158.552C176.801 153.163 172.438 148.795 167.056 148.795C161.673 148.795 157.31 153.163 157.31 158.552C157.31 163.941 161.673 168.309 167.056 168.309Z" fill="#F2F2F2"/>
<path d="M236.9 188.636C242.283 188.636 246.646 184.268 246.646 178.879C246.646 173.491 242.283 169.122 236.9 169.122C231.518 169.122 227.155 173.491 227.155 178.879C227.155 184.268 231.518 188.636 236.9 188.636Z" fill="#F2F2F2"/>
<path d="M318.521 184.164C323.903 184.164 328.267 179.796 328.267 174.407C328.267 169.019 323.903 164.65 318.521 164.65C313.138 164.65 308.775 169.019 308.775 174.407C308.775 179.796 313.138 184.164 318.521 184.164Z" fill="#F2F2F2"/>
<path d="M173.176 27.6464C143.983 27.8528 120.08 51.604 119.665 80.829C119.661 81.0988 119.659 82.996 119.659 85.4775C119.66 89.1158 121.103 92.6051 123.673 95.1779C126.243 97.7507 129.728 99.1963 133.362 99.1967H133.362C135.163 99.1963 136.947 98.8405 138.611 98.1497C140.275 97.4589 141.787 96.4465 143.06 95.1705C144.334 93.8945 145.343 92.3798 146.031 90.713C146.72 89.0462 147.073 87.26 147.071 85.4565C147.07 83.7684 147.069 82.6001 147.069 82.5284C147.068 78.0117 148.242 73.5726 150.474 69.6477C152.707 65.7227 155.921 62.4473 159.802 60.1434C163.682 57.8395 168.095 56.5866 172.605 56.508C177.116 56.4293 181.57 57.5276 185.528 59.6948C189.486 61.862 192.813 65.0235 195.18 68.8682C197.548 72.7129 198.875 77.1084 199.031 81.6224C199.187 86.1364 198.167 90.6133 196.071 94.6128C193.975 98.6123 190.875 101.997 187.076 104.433L187.08 104.439C187.08 104.439 167.577 117.009 161.631 134.253L161.636 134.254C160.591 137.786 160.061 141.452 160.064 145.136C160.064 146.651 160.153 159.902 160.325 170.658C160.385 174.369 161.9 177.908 164.543 180.511C167.185 183.114 170.744 184.572 174.452 184.571H174.452C176.315 184.571 178.159 184.202 179.879 183.486C181.599 182.769 183.16 181.719 184.473 180.397C185.787 179.074 186.825 177.504 187.53 175.778C188.235 174.051 188.592 172.203 188.581 170.338C188.521 160.487 188.489 149.018 188.489 148.185C188.489 137.597 198.691 127.047 207.072 120.167C216.723 112.245 223.667 101.449 226.457 89.2703C227.074 86.763 227.414 84.1954 227.472 81.6137C227.472 74.4936 226.064 67.4439 223.331 60.8707C220.598 54.2976 216.592 48.3309 211.545 43.3144C206.498 38.298 200.509 34.331 193.924 31.6419C187.339 28.9529 180.288 27.5949 173.176 27.6464Z" fill="#FD8D1F"/>
<path d="M342.517 242H0.483571C0.355581 242 0.232961 241.948 0.142589 241.858C0.0522168 241.767 0.00146484 241.644 0.00146484 241.516C0.00146484 241.388 0.0522168 241.265 0.142589 241.174C0.232961 241.083 0.355581 241.032 0.483571 241.032H342.517C342.645 241.032 342.768 241.083 342.858 241.174C342.949 241.264 343 241.388 343 241.516C343 241.644 342.949 241.767 342.858 241.858C342.768 241.949 342.645 242 342.517 242Z" fill="#3F3D56"/>
<path d="M255.196 110.985C261.924 110.985 267.379 105.524 267.379 98.7885C267.379 92.0527 261.924 86.5922 255.196 86.5922C248.468 86.5922 243.014 92.0527 243.014 98.7885C243.014 105.524 248.468 110.985 255.196 110.985Z" fill="#2F2E41"/>
<path d="M232.685 236.661H227.707L225.338 217.436H232.686L232.685 236.661Z" fill="#A0616A"/>
<path d="M224.151 235.237H233.752V241.289H218.105C218.105 240.494 218.262 239.707 218.566 238.973C218.869 238.239 219.315 237.571 219.876 237.009C220.437 236.447 221.104 236.002 221.837 235.698C222.571 235.393 223.357 235.237 224.151 235.237Z" fill="#2F2E41"/>
<path d="M271.262 236.661H266.284L263.915 217.436H271.263L271.262 236.661Z" fill="#A0616A"/>
<path d="M262.728 235.237H272.329V241.289H256.682C256.682 240.494 256.839 239.707 257.143 238.973C257.446 238.239 257.892 237.571 258.453 237.009C259.014 236.447 259.681 236.002 260.414 235.698C261.148 235.393 261.934 235.237 262.728 235.237Z" fill="#2F2E41"/>
<path d="M253.345 111.056C258.853 111.056 263.319 106.586 263.319 101.071C263.319 95.5563 258.853 91.0858 253.345 91.0858C247.837 91.0858 243.371 95.5563 243.371 101.071C243.371 106.586 247.837 111.056 253.345 111.056Z" fill="#A0616A"/>
<path d="M259.29 143.268L263.752 133.003C264.836 130.595 265.147 127.91 264.641 125.317C264.136 122.725 262.839 120.353 260.93 118.53C260.538 118.142 260.122 117.78 259.683 117.445C257.481 115.72 254.768 114.78 251.972 114.774C250.092 114.781 248.236 115.194 246.531 115.985C246.384 116.05 246.242 116.119 246.096 116.189C245.816 116.323 245.54 116.469 245.272 116.62C243.524 117.624 242.036 119.027 240.929 120.713C239.821 122.399 239.125 124.323 238.896 126.328L236.927 142.85C236.432 144.147 218.759 190.98 224.94 226.736C225.006 227.118 225.192 227.469 225.471 227.737C225.75 228.005 226.107 228.178 226.491 228.228L232.757 229.082C233.214 229.144 233.679 229.031 234.056 228.765C234.433 228.499 234.696 228.099 234.791 227.647L245.304 177.475C245.37 177.163 245.538 176.883 245.782 176.678C246.025 176.473 246.33 176.356 246.648 176.345C246.966 176.334 247.279 176.43 247.536 176.618C247.793 176.806 247.979 177.075 248.066 177.382L262.92 230.143C263.026 230.526 263.254 230.864 263.57 231.105C263.886 231.346 264.273 231.476 264.67 231.476C264.788 231.476 264.907 231.465 265.023 231.444L272.678 229.968C273.123 229.885 273.521 229.638 273.793 229.276C274.066 228.915 274.194 228.464 274.152 228.013C273.027 215.454 267.05 152.55 259.29 143.268Z" fill="#19191A"/>
<path d="M214.585 109.381C214.516 109.974 214.578 110.576 214.766 111.143C214.954 111.71 215.264 112.229 215.674 112.663C216.084 113.098 216.585 113.437 217.14 113.656C217.695 113.876 218.291 113.971 218.887 113.935L224.462 127.348L228.679 121.09L222.739 109.312C222.612 108.314 222.124 107.397 221.367 106.735C220.61 106.073 219.637 105.712 218.632 105.721C217.626 105.729 216.659 106.106 215.914 106.781C215.168 107.455 214.695 108.38 214.585 109.381L214.585 109.381Z" fill="#A0616A"/>
<path d="M252.792 156.774C253.385 156.703 253.955 156.503 254.462 156.188C254.969 155.872 255.401 155.449 255.727 154.949C256.053 154.448 256.266 153.882 256.35 153.291C256.434 152.699 256.388 152.096 256.214 151.524L267.943 142.971L260.882 140.324L250.826 148.852C249.886 149.208 249.109 149.897 248.642 150.788C248.175 151.679 248.052 152.711 248.294 153.687C248.536 154.664 249.128 155.517 249.957 156.086C250.786 156.655 251.795 156.9 252.792 156.774Z" fill="#A0616A"/>
<path d="M233.671 136.29C233.221 136.29 232.772 136.246 232.331 136.158C231.264 135.955 230.264 135.492 229.418 134.81C228.572 134.128 227.906 133.249 227.48 132.249L219.669 122.714C219.504 122.512 219.384 122.278 219.317 122.026C219.249 121.774 219.237 121.511 219.279 121.253C219.322 120.996 219.419 120.751 219.564 120.535C219.709 120.318 219.899 120.135 220.12 119.998L225.677 116.554C225.882 116.427 226.111 116.342 226.349 116.303C226.587 116.265 226.83 116.274 227.065 116.331C227.3 116.387 227.521 116.489 227.716 116.632C227.911 116.774 228.076 116.954 228.201 117.16L233.706 126.24L244.248 118.44C245.087 117.999 246.057 117.875 246.98 118.091C247.903 118.308 248.717 118.849 249.275 119.616C249.832 120.384 250.095 121.327 250.015 122.272C249.935 123.218 249.518 124.103 248.841 124.766L238.319 134.375C237.082 135.602 235.412 136.291 233.671 136.29Z" fill="#19191A"/>
<path d="M262.157 150.63C262.142 150.63 262.128 150.63 262.114 150.63C261.857 150.623 261.605 150.563 261.374 150.453C261.142 150.343 260.936 150.186 260.769 149.991L255.829 144.221C255.661 144.024 255.536 143.794 255.463 143.546C255.39 143.298 255.371 143.037 255.406 142.78C255.441 142.524 255.531 142.278 255.668 142.059C255.805 141.839 255.988 141.652 256.203 141.508L265.454 135.334L257.073 125.246C256.585 124.433 256.407 123.471 256.569 122.536C256.732 121.601 257.225 120.756 257.958 120.155C258.692 119.554 259.616 119.237 260.564 119.263C261.511 119.288 262.418 119.654 263.118 120.294L273.304 130.259C274.106 130.992 274.718 131.909 275.087 132.931C275.457 133.953 275.574 135.05 275.427 136.127C275.28 137.204 274.874 138.23 274.245 139.115C273.615 140.001 272.78 140.72 271.811 141.212L263.487 150.056C263.316 150.237 263.109 150.381 262.881 150.48C262.652 150.579 262.406 150.63 262.157 150.63Z" fill="#19191A"/>
<path d="M250.809 129.368C250.73 129.368 250.65 129.363 250.572 129.353C250.228 129.311 249.903 129.171 249.636 128.95C249.369 128.729 249.171 128.436 249.065 128.105L245.353 116.71C245.26 116.422 245.274 116.11 245.393 115.832C245.512 115.553 245.728 115.328 246 115.196L246.12 115.139C246.23 115.087 246.338 115.036 246.448 114.986C248.179 114.183 250.064 113.763 251.972 113.757C254.449 113.762 256.871 114.491 258.941 115.854C259.218 116.039 259.412 116.325 259.481 116.652C259.549 116.978 259.487 117.319 259.307 117.6L252.343 128.523C252.179 128.782 251.953 128.996 251.685 129.144C251.417 129.291 251.115 129.369 250.809 129.368Z" fill="#E6E6E6"/>
<path d="M264.801 93.3436C267.002 93.3436 268.787 91.5568 268.787 89.3527C268.787 87.1486 267.002 85.3618 264.801 85.3618C262.599 85.3618 260.814 87.1486 260.814 89.3527C260.814 91.5568 262.599 93.3436 264.801 93.3436Z" fill="#2F2E41"/>
<path d="M251.136 84.966C248.335 84.966 245.65 86.0796 243.67 88.0619C241.69 90.0442 240.578 92.7328 240.578 95.5361V100.008H246.072L248.699 95.5361L249.487 100.008H266.16L261.693 95.5361C261.693 92.7328 260.581 90.0442 258.601 88.0619C256.621 86.0796 253.936 84.966 251.136 84.966Z" fill="#2F2E41"/>
<path d="M266.85 86.619C267.29 85.239 268.203 84.0588 269.427 83.2858C270.651 82.5128 272.108 82.1966 273.542 82.3928C276.082 82.818 278.091 84.8623 279.288 87.1457C280.484 89.4291 281.037 91.9846 281.842 94.4342C282.646 96.8838 283.787 99.3467 285.818 100.932C287.849 102.518 290.966 102.948 292.961 101.317C292.733 103.017 291.977 104.602 290.8 105.849C289.623 107.095 288.084 107.939 286.402 108.262C284.719 108.585 282.978 108.37 281.424 107.647C279.87 106.925 278.582 105.732 277.743 104.236C276.69 102.362 276.418 100.164 276.106 98.0363C275.794 95.9084 275.389 93.7067 274.132 91.9623C272.875 90.218 270.523 89.0788 268.526 89.8733L266.85 86.619Z" fill="#2F2E41"/>
<path d="M137.231 92.7076C133.597 92.7072 130.112 91.2616 127.542 88.6888C124.972 86.116 123.529 82.6267 123.529 78.9884C123.528 76.5069 123.53 74.6097 123.534 74.3399C123.649 65.8404 125.787 57.491 129.771 49.9843C123.226 58.9539 119.628 69.7379 119.473 80.8446C119.469 81.1144 119.468 83.0116 119.468 85.4931C119.468 89.1315 120.912 92.6208 123.481 95.1935C126.051 97.7663 129.536 99.2119 133.17 99.2123C136.157 99.2112 139.061 98.2342 141.442 96.4298C143.823 94.6255 145.551 92.0923 146.363 89.2152C143.854 91.4677 140.601 92.7117 137.231 92.7076Z" fill="#3F3D56"/>
<path d="M174.105 56.554C178.306 56.7549 182.396 57.9736 186.023 60.1056C189.651 62.2375 192.707 65.2189 194.93 68.7938C197.152 72.3687 198.475 76.4303 198.785 80.6299C199.094 84.8295 198.381 89.0415 196.707 92.9043C199.129 90.0564 200.909 86.719 201.926 83.1197C202.943 79.5204 203.173 75.7439 202.6 72.0476C202.028 68.3513 200.665 64.8221 198.606 61.7007C196.548 58.5792 193.841 55.9389 190.671 53.9598C187.5 51.9806 183.941 50.7091 180.235 50.2319C176.529 49.7548 172.765 50.0833 169.197 51.1949C165.63 52.3065 162.344 54.1752 159.563 56.6735C156.782 59.1718 154.572 62.241 153.084 65.6719C155.657 62.6421 158.89 60.2443 162.534 58.6634C166.179 57.0825 170.138 56.3609 174.105 56.554Z" fill="#3F3D56"/>
<path d="M178.321 178.082C174.613 178.083 171.054 176.624 168.412 174.022C165.769 171.419 164.254 167.88 164.194 164.169C164.022 153.413 163.933 140.162 163.933 138.647C163.93 134.963 164.46 131.297 165.506 127.765L165.501 127.763C166.118 125.99 166.864 124.265 167.732 122.6C165.067 126.155 162.947 130.088 161.44 134.268L161.445 134.269C160.399 137.802 159.869 141.467 159.872 145.152C159.872 146.666 159.961 159.918 160.133 170.674C160.193 174.385 161.708 177.923 164.351 180.526C166.994 183.129 170.553 184.587 174.26 184.587C177.317 184.586 180.291 183.593 182.736 181.757C185.182 179.921 186.967 177.341 187.824 174.403C185.226 176.775 181.836 178.087 178.321 178.082Z" fill="#3F3D56"/>
<path d="M51.385 236.846L56.3631 236.846L58.7317 217.621L51.3838 217.622L51.385 236.846Z" fill="#FFB8B8"/>
<path d="M65.9644 241.474L50.3181 241.475L50.3178 235.422L59.9189 235.422C61.5222 235.422 63.0598 236.059 64.1936 237.194C65.3273 238.329 65.9643 239.869 65.9644 241.474L65.9644 241.474Z" fill="#2F2E41"/>
<path d="M33.5178 236.846L38.4959 236.846L40.8645 217.621L33.5166 217.622L33.5178 236.846Z" fill="#FFB8B8"/>
<path d="M48.0972 241.474L32.4509 241.475L32.4506 235.422L42.0517 235.422C43.655 235.422 45.1927 236.059 46.3264 237.194C47.4601 238.329 48.0971 239.869 48.0972 241.474L48.0972 241.474Z" fill="#2F2E41"/>
<path d="M37.8682 230.934L33.0054 230.678C32.7547 230.665 32.509 230.602 32.2827 230.493C32.0565 230.384 31.854 230.231 31.6871 230.043C31.5202 229.855 31.3922 229.636 31.3105 229.399C31.2288 229.161 31.1951 228.909 31.2112 228.658L37.0232 164.235L63.7879 171.466L66.3665 170.761L58.3026 227.793C58.2339 228.222 58.0211 228.615 57.6993 228.907C57.3776 229.198 56.9661 229.371 56.5329 229.397L51.2909 229.642C51.0288 229.656 50.7665 229.616 50.5206 229.524C50.2748 229.432 50.0507 229.29 49.8624 229.107C49.6742 228.923 49.5261 228.703 49.4272 228.459C49.3284 228.216 49.2811 227.955 49.2884 227.692L50.2382 193.462C50.2426 193.304 50.1877 193.15 50.0842 193.03C49.9807 192.91 49.8362 192.834 49.6791 192.815C49.522 192.797 49.3637 192.838 49.2355 192.931C49.1072 193.024 49.0183 193.161 48.9862 193.316L39.8264 229.422C39.7399 229.851 39.5077 230.236 39.1694 230.512C38.8311 230.788 38.4075 230.938 37.971 230.937C37.9369 230.937 37.9026 230.936 37.8682 230.934Z" fill="#FD8D1F"/>
<path d="M52.2788 111.523C57.787 111.523 62.2523 107.053 62.2523 101.538C62.2523 96.0233 57.787 91.5528 52.2788 91.5528C46.7705 91.5528 42.3052 96.0233 42.3052 101.538C42.3052 107.053 46.7705 111.523 52.2788 111.523Z" fill="#FFB8B8"/>
<path d="M35.6735 130.874L36.7701 154.562L37.1665 163.18C37.1823 163.555 37.3096 163.917 37.532 164.22C37.7543 164.522 38.0618 164.751 38.4149 164.878L64.134 174.205C64.3418 174.282 64.5619 174.321 64.7835 174.319C65.0369 174.32 65.2878 174.27 65.5215 174.172C65.7551 174.074 65.9666 173.93 66.1434 173.749C66.3202 173.567 66.4585 173.351 66.5503 173.115C66.642 172.879 66.6852 172.626 66.6773 172.373L65.6229 129.78C65.5537 126.286 64.2688 122.925 61.9898 120.277C59.7109 117.629 56.5806 115.861 53.1387 115.276C52.89 115.238 52.6369 115.2 52.3838 115.166C50.2495 114.901 48.0831 115.107 46.037 115.77C43.9909 116.433 42.1148 117.537 40.5406 119.004C38.9107 120.505 37.6299 122.346 36.7889 124.397C35.9478 126.448 35.5671 128.659 35.6735 130.874L35.6735 130.874Z" fill="#CCCCCC"/>
<path d="M76.4198 169.478C75.8115 169.289 75.2558 168.961 74.7969 168.518C74.338 168.076 73.9888 167.533 73.777 166.931C73.5652 166.33 73.4967 165.687 73.5771 165.055C73.6574 164.422 73.8843 163.817 74.2397 163.288L65.5181 151.677L73.0443 151.211L80.1727 162.308C80.9358 162.899 81.4669 163.74 81.6726 164.683C81.8784 165.627 81.7458 166.613 81.2981 167.468C80.8504 168.324 80.1161 168.994 79.2241 169.361C78.3321 169.729 77.3393 169.77 76.4198 169.478H76.4198Z" fill="#FFB8B8"/>
<path d="M70.2876 161.187C70.0565 161.093 69.8463 160.954 69.6692 160.778C69.4921 160.603 69.3515 160.394 69.2557 160.163L56.1159 128.821C55.8581 128.207 55.7235 127.549 55.72 126.883C55.7165 126.217 55.8441 125.557 56.0954 124.941C56.3468 124.325 56.717 123.764 57.1849 123.291C57.6528 122.818 58.2092 122.442 58.8223 122.184C59.4355 121.927 60.0933 121.792 60.7583 121.789C61.4232 121.786 62.0823 121.915 62.6977 122.167C63.3131 122.419 63.8729 122.79 64.345 123.259C64.8171 123.728 65.1923 124.285 65.4492 124.899L78.589 156.242C78.7832 156.706 78.7854 157.229 78.595 157.695C78.4047 158.162 78.0373 158.533 77.5736 158.729L71.7402 161.18C71.5106 161.277 71.2639 161.328 71.0146 161.329C70.7652 161.33 70.5181 161.282 70.2875 161.187L70.2876 161.187Z" fill="#CCCCCC"/>
<path d="M49.0722 160.081L61.6926 135.888C61.936 135.423 62.3538 135.074 62.8543 134.916C63.3548 134.759 63.8972 134.807 64.3625 135.05L82.6811 144.628C83.1458 144.871 83.495 145.29 83.6521 145.791C83.8092 146.292 83.7613 146.835 83.519 147.301L70.8985 171.494C70.6552 171.959 70.2374 172.309 69.7368 172.466C69.2363 172.623 68.6939 172.575 68.2286 172.333L49.9101 162.754C49.4453 162.511 49.0961 162.092 48.939 161.591C48.782 161.09 48.8298 160.547 49.0722 160.081Z" fill="#3F3D56"/>
<path d="M57.5359 149.028C57.3115 148.431 56.9509 147.895 56.4829 147.463C56.0149 147.031 55.4523 146.714 54.8402 146.537C54.2281 146.361 53.5833 146.331 52.9573 146.448C52.3313 146.566 51.7415 146.829 51.2349 147.215L39.1426 139.184L39.1221 146.733L50.6082 153.202C51.2422 153.93 52.112 154.411 53.0649 154.561C54.0178 154.711 54.9931 154.52 55.8196 154.022C56.646 153.524 57.271 152.751 57.5849 151.838C57.8987 150.925 57.8814 149.93 57.5359 149.028Z" fill="#FFB8B8"/>
<path d="M42.2471 150.726L32.3646 142.889C31.2955 142.529 30.3295 141.916 29.5494 141.1C28.7694 140.285 28.1987 139.292 27.8863 138.207C27.5739 137.122 27.5291 135.978 27.7558 134.872C27.9824 133.766 28.4738 132.731 29.1877 131.857L38.1607 120.084C38.7843 119.321 39.6612 118.808 40.6313 118.639C41.6013 118.47 42.5997 118.657 43.4438 119.164C44.2879 119.672 44.9215 120.466 45.2286 121.403C45.5358 122.339 45.496 123.355 45.1166 124.265L38.0169 135.892L48.4505 140.846C48.6932 140.962 48.9086 141.127 49.0826 141.332C49.2567 141.537 49.3853 141.776 49.4601 142.034C49.5348 142.292 49.554 142.563 49.5164 142.83C49.4787 143.096 49.3851 143.351 49.2416 143.578L45.0299 150.251C44.8876 150.477 44.6995 150.669 44.478 150.817C44.2565 150.965 44.0064 151.065 43.744 151.11C43.7336 151.111 43.7231 151.113 43.7126 151.115C43.4548 151.154 43.1917 151.139 42.9396 151.072C42.6875 151.006 42.4518 150.888 42.2471 150.726Z" fill="#CCCCCC"/>
<path d="M44.7423 108.224C44.6995 108.099 44.6859 107.965 44.7026 107.834C44.7193 107.703 44.7658 107.577 44.8386 107.466C44.9113 107.355 45.0084 107.263 45.1224 107.196C45.2364 107.128 45.3642 107.088 45.4961 107.078C45.7662 107.093 46.0306 107.162 46.2732 107.282C46.5158 107.402 46.7316 107.57 46.9076 107.775C47.2686 108.192 47.6888 108.553 48.1548 108.847C48.6372 109.091 49.2916 109.056 49.5666 108.592C49.8249 108.156 49.6479 107.572 49.4916 107.066C49.0937 105.778 48.8711 104.442 48.8297 103.094C48.7847 101.59 48.9967 100.02 49.8285 98.8464C50.9021 97.3322 52.8219 96.7573 54.6386 96.799C56.4554 96.8407 58.2427 97.4021 60.0423 97.7571C60.6636 97.8796 61.3938 97.9422 61.8093 97.4602C62.2512 96.9476 62.0889 96.118 61.901 95.4259C61.4133 93.63 60.8959 91.7733 59.7629 90.3229C58.5378 88.8158 56.7878 87.8294 54.8653 87.5624C53.0196 87.3335 51.1461 87.5464 49.3986 88.1837C46.5516 89.0821 44.0464 90.8294 42.2181 93.1918C40.3334 95.7041 39.519 98.8614 39.953 101.973C40.377 104.684 41.8115 107.132 43.9673 108.825L44.7423 108.224Z" fill="#2F2E41"/>
<path d="M171.062 236.926C168.408 235.769 166.06 234.01 164.201 231.789C162.343 229.567 161.026 226.944 160.353 224.125C159.681 221.307 159.672 218.371 160.328 215.548C160.983 212.726 162.285 210.095 164.13 207.862C161.991 209.426 160.208 211.427 158.9 213.734C157.593 216.04 156.79 218.598 156.546 221.239C156.301 223.879 156.62 226.541 157.482 229.049C158.344 231.557 159.728 233.852 161.544 235.783C163.36 237.714 165.565 239.236 168.013 240.248C170.461 241.261 173.096 241.74 175.744 241.655C178.391 241.57 180.99 240.922 183.368 239.755C185.746 238.587 187.849 236.926 189.537 234.883C186.904 236.809 183.813 238.012 180.572 238.37C177.33 238.729 174.051 238.231 171.062 236.926Z" fill="#3F3D56"/>
</g>
<defs>
<clipPath id="clip0">
<rect width="343" height="242" fill="white"/>
</clipPath>
</defs>
</svg>
