<svg width="35" height="35" viewBox="0 0 35 35" fill="none" xmlns="http://www.w3.org/2000/svg">
<g clip-path="url(#clip0)">
<path d="M34.2708 6.5625H0.729189C0.326689 6.5625 0 6.88919 0 7.29169C0 7.69419 0.326689 8.02088 0.729189 8.02088H34.2709C34.6734 8.02088 35.0001 7.69419 35.0001 7.29169C35.0001 6.88919 34.6733 6.5625 34.2708 6.5625Z" fill="white"/>
<path d="M34.2708 16.7708H0.729189C0.326689 16.7708 0 17.0975 0 17.5C0 17.9025 0.326689 18.2292 0.729189 18.2292H34.2709C34.6734 18.2292 35.0001 17.9025 35.0001 17.5C35.0001 17.0975 34.6733 16.7708 34.2708 16.7708Z" fill="white"/>
<path d="M34.2708 26.9792H0.729189C0.326689 26.9792 0 27.3058 0 27.7083C0 28.1108 0.326689 28.4375 0.729189 28.4375H34.2709C34.6734 28.4375 35.0001 28.1108 35.0001 27.7083C35 27.3058 34.6733 26.9792 34.2708 26.9792Z" fill="white"/>
</g>
<defs>
<clipPath id="clip0">
<rect width="35" height="35" fill="white"/>
</clipPath>
</defs>
</svg>
