<svg width="503" height="377" viewBox="0 0 503 377" fill="none" xmlns="http://www.w3.org/2000/svg">
<g clip-path="url(#clip0)">
<path d="M468.443 154.899H0V377H468.443V154.899Z" fill="#FD8D1F"/>
<path d="M390.999 244.872H77.4443V377H390.999V244.872Z" fill="#F0F0F0"/>
<path d="M390.999 252.934H77.4443V254.193H390.999V252.934Z" fill="#3F3D56"/>
<path d="M83.0963 251.515C84.3416 251.515 85.3512 250.506 85.3512 249.262C85.3512 248.017 84.3416 247.008 83.0963 247.008C81.8509 247.008 80.8413 248.017 80.8413 249.262C80.8413 250.506 81.8509 251.515 83.0963 251.515Z" fill="#3F3D56"/>
<path d="M90.8277 251.515C92.0731 251.515 93.0827 250.506 93.0827 249.262C93.0827 248.017 92.0731 247.008 90.8277 247.008C89.5823 247.008 88.5728 248.017 88.5728 249.262C88.5728 250.506 89.5823 251.515 90.8277 251.515Z" fill="#3F3D56"/>
<path d="M98.5587 251.515C99.804 251.515 100.814 250.506 100.814 249.262C100.814 248.017 99.804 247.008 98.5587 247.008C97.3133 247.008 96.3037 248.017 96.3037 249.262C96.3037 250.506 97.3133 251.515 98.5587 251.515Z" fill="#3F3D56"/>
<path d="M250.617 312.309L253.956 319.069L261.42 320.152L256.019 325.414L257.294 332.842L250.617 329.335L243.941 332.842L245.216 325.414L239.815 320.152L247.279 319.069L250.617 312.309Z" fill="#FD8D1F"/>
<path d="M280.651 312.309L283.989 319.069L291.454 320.152L286.052 325.414L287.327 332.842L280.651 329.335L273.975 332.842L275.25 325.414L269.849 320.152L277.313 319.069L280.651 312.309Z" fill="#FD8D1F"/>
<path d="M310.684 312.309L314.022 319.069L321.487 320.152L316.085 325.414L317.361 332.842L310.684 329.335L304.008 332.842L305.283 325.414L299.882 320.152L307.346 319.069L310.684 312.309Z" fill="#FD8D1F"/>
<path d="M340.718 312.309L344.056 319.069L351.521 320.152L346.119 325.414L347.394 332.842L340.718 329.335L334.042 332.842L335.317 325.414L329.916 320.152L337.38 319.069L340.718 312.309Z" fill="#FD8D1F"/>
<path d="M370.752 312.309L374.09 319.069L381.554 320.152L376.153 325.414L377.428 332.842L370.752 329.335L364.075 332.842L365.35 325.414L359.949 320.152L367.414 319.069L370.752 312.309Z" fill="#FD8D1F"/>
<path d="M220.999 283.881H98.8516V361.271H220.999V283.881Z" fill="#3F3D56"/>
<path opacity="0.1" d="M123.76 154.899L0 239.801V196.306L60.3562 154.899H123.76Z" fill="black"/>
<path opacity="0.1" d="M264.513 154.899L0 336.361V292.86L201.109 154.899H264.513Z" fill="black"/>
<path d="M71.5532 218.221L63.0752 209.138L72.1646 200.666L80.6426 209.749L71.5532 218.221ZM64.4265 209.185L71.6002 216.871L79.2913 209.702L72.1176 202.016L64.4265 209.185Z" fill="#F0F0F0"/>
<path d="M351.332 212.508H338.902V200.087H351.332V212.508ZM339.858 211.553H350.376V201.043H339.858V211.553Z" fill="#3F3D56"/>
<path d="M428.342 318.508C431.847 318.508 434.688 315.669 434.688 312.167C434.688 308.665 431.847 305.826 428.342 305.826C424.837 305.826 421.996 308.665 421.996 312.167C421.996 315.669 424.837 318.508 428.342 318.508Z" fill="#F0F0F0"/>
<path d="M428.341 330.486C424.716 330.486 421.171 329.412 418.157 327.399C415.142 325.386 412.792 322.525 411.405 319.177C410.017 315.83 409.654 312.147 410.362 308.593C411.069 305.04 412.815 301.775 415.379 299.213C417.942 296.651 421.209 294.907 424.765 294.2C428.321 293.493 432.007 293.856 435.357 295.242C438.707 296.629 441.57 298.977 443.584 301.989C445.598 305.002 446.674 308.544 446.674 312.167C446.668 317.024 444.735 321.68 441.298 325.115C437.862 328.549 433.202 330.481 428.341 330.486ZM428.341 295.257C424.995 295.257 421.723 296.249 418.94 298.107C416.157 299.965 413.988 302.606 412.708 305.696C411.427 308.786 411.092 312.186 411.745 315.466C412.398 318.746 414.009 321.759 416.376 324.124C418.742 326.489 421.758 328.1 425.04 328.752C428.323 329.405 431.725 329.07 434.817 327.79C437.909 326.51 440.552 324.343 442.412 321.562C444.271 318.781 445.263 315.511 445.263 312.167C445.258 307.684 443.474 303.386 440.301 300.215C437.129 297.045 432.828 295.262 428.341 295.257Z" fill="#2F2E41"/>
<path d="M144.184 344.305C147.099 355.073 157.083 361.742 157.083 361.742C157.083 361.742 162.342 350.953 159.427 340.185C156.512 329.418 146.528 322.749 146.528 322.749C146.528 322.749 141.27 333.538 144.184 344.305Z" fill="white"/>
<path d="M148.468 341.991C156.467 349.772 157.444 361.733 157.444 361.733C157.444 361.733 145.452 361.079 137.454 353.298C129.455 345.517 128.479 333.557 128.479 333.557C128.479 333.557 140.47 334.211 148.468 341.991Z" fill="#FD8D1F"/>
<path d="M170.702 344.305C167.787 355.073 157.803 361.742 157.803 361.742C157.803 361.742 152.545 350.953 155.46 340.185C158.375 329.418 168.359 322.749 168.359 322.749C168.359 322.749 173.617 333.538 170.702 344.305Z" fill="white"/>
<path d="M166.419 341.991C158.42 349.772 157.443 361.733 157.443 361.733C157.443 361.733 169.435 361.079 177.433 353.298C185.431 345.517 186.408 333.557 186.408 333.557C186.408 333.557 174.417 334.211 166.419 341.991Z" fill="#FD8D1F"/>
<path d="M406.528 11.9905H357.092V69.545H406.528V11.9905Z" fill="#F2F2F2"/>
<path d="M389.72 155.564L389.033 154.894C392.193 151.315 394.587 147.128 396.071 142.591C398.406 135.568 399.547 124.477 391.718 111.52C383.709 98.2635 383.348 87.4961 384.456 80.7978C385.662 73.5094 388.738 69.4239 388.868 69.2537L389.631 69.8361C389.6 69.8762 386.551 73.9398 385.394 81.0109C384.326 87.5392 384.698 98.0457 392.54 111.024C400.569 124.312 399.379 135.712 396.968 142.935C394.355 150.761 389.908 155.372 389.72 155.564Z" fill="#3F3D56"/>
<path d="M425.726 70.0246H356.612V0.959236H425.726V70.0246ZM357.572 69.0654H424.766V1.91848H357.572V69.0654Z" fill="#3F3D56"/>
<path d="M413.247 21.1033H371.011V22.0626H413.247V21.1033Z" fill="#3F3D56"/>
<path d="M413.247 31.655H371.011V32.6142H413.247V31.655Z" fill="#3F3D56"/>
<path d="M413.247 42.2066H371.011V43.1659H413.247V42.2066Z" fill="#3F3D56"/>
<path d="M483.801 53.7175H434.365V111.272H483.801V53.7175Z" fill="#F2F2F2"/>
<path d="M466.994 197.291L466.307 196.621C469.466 193.042 471.861 188.855 473.344 184.318C475.679 177.295 476.82 166.204 468.992 153.247C460.982 139.99 460.622 129.223 461.73 122.525C462.935 115.236 466.011 111.151 466.142 110.981L466.904 111.563C466.874 111.603 463.824 115.667 462.667 122.738C461.599 129.266 461.972 139.773 469.813 152.751C477.842 166.039 476.653 177.439 474.241 184.662C471.628 192.488 467.182 197.099 466.994 197.291Z" fill="#3F3D56"/>
<path d="M503 111.752H433.886V42.6863H503V111.752ZM434.846 110.792H502.04V43.6455H434.846V110.792Z" fill="#3F3D56"/>
<path d="M490.521 62.8303H448.285V63.7896H490.521V62.8303Z" fill="#3F3D56"/>
<path d="M490.521 73.382H448.285V74.3412H490.521V73.382Z" fill="#3F3D56"/>
<path d="M490.521 83.9336H448.285V84.8929H490.521V83.9336Z" fill="#3F3D56"/>
<path d="M116.151 11.0313H66.7148V68.5858H116.151V11.0313Z" fill="#F2F2F2"/>
<path d="M99.3428 154.605L98.6559 153.935C101.815 150.355 104.21 146.169 105.693 141.632C108.028 134.609 109.169 123.517 101.341 110.561C93.3313 97.3042 92.9708 86.5369 94.0787 79.8386C95.2844 72.5501 98.3603 68.4647 98.4906 68.2944L99.2535 68.8769C99.2228 68.9169 96.1736 72.9806 95.0165 80.0517C93.9484 86.58 94.321 97.0864 102.163 110.065C110.191 123.353 109.002 134.752 106.59 141.975C103.978 149.802 99.5309 154.412 99.3428 154.605Z" fill="#3F3D56"/>
<path d="M135.349 69.0654H66.2349V0H135.349V69.0654ZM67.1948 68.1061H134.389V0.959242H67.1948V68.1061Z" fill="#3F3D56"/>
<path d="M122.87 20.1441H80.6338V21.1033H122.87V20.1441Z" fill="#3F3D56"/>
<path d="M122.87 30.6957H80.6338V31.655H122.87V30.6957Z" fill="#3F3D56"/>
<path d="M122.87 41.2474H80.6338V42.2066H122.87V41.2474Z" fill="#3F3D56"/>
<path d="M225.324 175.617L228.662 182.377L236.126 183.46L230.725 188.722L232 196.151L225.324 192.643L218.647 196.151L219.922 188.722L214.521 183.46L221.985 182.377L225.324 175.617Z" fill="#F0F0F0"/>
<path d="M237.391 23.2189H237.391C248.925 23.2189 258.275 33.5885 258.275 46.3801V62.632H253.274L250.378 56.6105L251.102 62.632H218.952L216.319 57.1579L216.977 62.632H213.357V49.8713C213.357 35.1516 224.117 23.2189 237.391 23.2189Z" fill="#2F2E41"/>
<path d="M261.321 129.4L274.144 134.846L318.704 171.046C320.343 173.058 321.347 175.51 321.59 178.093C321.91 182.258 335.375 204.042 330.566 206.925C325.757 209.808 308.446 218.458 307.484 212.691C306.522 206.925 301.393 182.258 301.393 182.258L258.436 143.816L261.321 129.4Z" fill="#2F2E41"/>
<path d="M311.652 207.886L317.102 223.904C317.102 223.904 311.331 229.99 314.216 235.116V252.735H318.705L319.987 243.445C319.987 243.445 325.099 252.618 327.681 252.735C333.093 252.981 343.812 254.905 344.133 252.022C344.453 249.139 336.016 246.328 336.016 246.328L327.04 221.661L323.193 206.605L311.652 207.886Z" fill="#2F2E41"/>
<path d="M227.981 125.235C227.981 125.235 225.096 153.426 233.431 158.552C241.766 163.677 278.633 180.015 278.633 180.015C278.633 180.015 262.924 194.752 266.13 198.275C269.336 201.799 283.762 211.41 285.685 209.488C287.609 207.566 309.088 184.5 306.523 177.132C303.958 169.764 268.374 145.738 268.374 145.738L264.206 130.681L262.924 118.508L249.46 109.858L227.981 125.235Z" fill="#2F2E41"/>
<path d="M242.668 59.5996C250.049 59.5996 256.032 53.6204 256.032 46.2447C256.032 38.869 250.049 32.8898 242.668 32.8898C235.287 32.8898 229.303 38.869 229.303 46.2447C229.303 53.6204 235.287 59.5996 242.668 59.5996Z" fill="#FFB9B9"/>
<path d="M232.308 51.7145C232.308 51.7145 232.949 63.8879 223.011 67.7321C213.073 71.5764 247.696 96.5638 247.696 96.5638V68.6932C247.696 68.6932 243.208 63.8879 247.696 56.5198L232.308 51.7145Z" fill="#FFB9B9"/>
<path d="M210.99 108.897L213.555 121.391L221.249 164.318C221.249 164.318 214.837 182.578 223.493 182.258C232.148 181.938 227.981 162.396 227.981 162.396L223.493 126.837V113.062L210.99 108.897Z" fill="#FFB9B9"/>
<path d="M266.13 102.811L269.015 114.023L282.158 145.738C282.158 145.738 291.135 160.794 283.761 160.474C276.388 160.154 276.388 145.738 276.388 145.738L261.321 120.11V105.694L266.13 102.811Z" fill="#FFB9B9"/>
<path d="M268.373 196.353L257.794 206.284C257.794 206.284 250.421 204.683 247.536 213.332C244.651 221.982 242.727 227.427 242.727 227.427L246.574 229.67L251.383 222.943C251.383 222.943 254.268 235.116 257.153 236.077C260.038 237.038 274.464 243.445 273.182 236.077L266.129 225.826C266.129 225.826 265.168 214.293 268.053 213.332C270.938 212.371 278.632 202.76 278.632 202.76L268.373 196.353Z" fill="#2F2E41"/>
<path d="M227.473 135.166C227.473 135.166 257.607 124.274 259.53 125.235C260.962 125.867 262.487 126.263 264.046 126.406L264.019 122.032C264.019 122.032 254.081 118.508 248.631 120.75C243.181 122.993 226.511 132.924 226.511 132.924L227.473 135.166Z" fill="#3F3D56"/>
<path d="M245.773 90.1568C245.773 90.1568 237.117 80.2259 234.553 74.1392C232.93 70.4492 229.952 67.5226 226.232 65.9635C226.232 65.9635 206.983 70.2949 207.303 77.9834C207.624 85.6719 219.485 97.5249 219.485 97.5249C219.485 97.5249 217.882 140.132 226.538 139.491C228.405 137.264 229.723 134.631 230.385 131.802C231.347 127.318 261.161 122.512 261.161 122.512C261.161 122.512 263.725 126.997 264.046 125.075C264.366 123.153 261.481 76.0613 261.481 76.0613L246.194 65.9635L245.773 90.1568Z" fill="#D0CDE1"/>
<path d="M209.773 74.8887L209.558 75.0091C208.873 75.3933 208.303 75.9529 207.906 76.6304C207.509 77.3079 207.3 78.0789 207.3 78.8639L207.303 102.638C207.301 103.284 207.158 103.922 206.884 104.508C206.61 105.093 206.212 105.612 205.717 106.029C204.483 107.078 203.337 108.591 205.701 109.378C209.548 110.659 224.615 117.066 224.935 114.824C225.256 112.581 225.897 110.019 224.935 110.019C224.182 110.019 219.696 87.0467 216.092 77.2248C215.872 76.6235 215.523 76.0772 215.071 75.6236C214.619 75.17 214.073 74.8201 213.473 74.5979C212.872 74.3757 212.23 74.2867 211.591 74.3369C210.952 74.3871 210.332 74.5753 209.773 74.8887Z" fill="#D0CDE1"/>
<path d="M257.153 74.9401L261.641 76.2215L266.771 98.3258C266.771 98.3258 272.862 99.6072 270.938 101.85C269.015 104.092 261 109.858 261 109.858L257.153 74.9401Z" fill="#D0CDE1"/>
<path d="M231.453 29.599C232.458 28.2504 233.761 27.1513 235.26 26.387C236.758 25.6227 238.413 25.2138 240.096 25.1919H240.506C248.411 25.1919 254.82 32.3406 254.82 41.1589V41.159H252.171L251.743 37.905L251.116 41.159H235.405L234.089 38.406L234.418 41.159H231.327C229.885 48.3166 231.957 55.4743 237.544 62.632H232.279L229.646 57.1261L230.305 62.632H220.268L218.293 49.9684C218.293 40.4845 223.808 32.4424 231.453 29.599Z" fill="#2F2E41"/>
</g>
<defs>
<clipPath id="clip0">
<rect width="503" height="377" fill="white"/>
</clipPath>
</defs>
</svg>
