<svg width="583" height="376" viewBox="0 0 583 376" fill="none" xmlns="http://www.w3.org/2000/svg">
<g clip-path="url(#clip0)">
<path d="M202.711 204.899C203.203 206.047 203.725 207.207 204.26 208.347L203.113 208.885C202.572 207.732 202.045 206.56 201.546 205.399L202.711 204.899Z" fill="#E6E6E6"/>
<path d="M407.276 113.105C407.999 114.646 408.694 116.216 409.342 117.773L408.172 118.259C407.203 115.928 406.131 113.58 405 111.308L406.135 110.745C406.523 111.524 406.903 112.311 407.276 113.105ZM402.46 103.948L401.367 104.588C400.083 102.395 398.709 100.224 397.285 98.1326L398.332 97.42C399.772 99.5347 401.162 101.731 402.46 103.948ZM412.067 125C412.89 127.434 413.639 129.922 414.291 132.397L413.066 132.719C412.421 130.273 411.681 127.812 410.866 125.406L412.067 125ZM393.765 91.1895L392.768 91.9725C391.2 89.98 389.541 88.0167 387.839 86.1375L388.778 85.2872C390.5 87.1884 392.178 89.174 393.765 91.1895ZM416.001 139.931C416.482 142.448 416.88 145.017 417.187 147.564L415.929 147.716C415.626 145.196 415.231 142.657 414.756 140.168L416.001 139.931ZM383.395 79.7438L382.518 80.6571C380.69 78.9004 378.778 77.1856 376.837 75.5611L377.651 74.5904C379.614 76.2334 381.546 77.967 383.395 79.7438ZM417.844 155.273C417.974 157.84 418.015 160.442 417.967 163.006L416.699 162.982C416.747 160.448 416.706 157.875 416.578 155.337L417.844 155.273ZM371.564 69.8423L370.819 70.8668C368.766 69.3773 366.637 67.9395 364.49 66.5954L365.162 65.5216C367.334 66.8815 369.487 68.3354 371.564 69.8423ZM417.557 170.727C417.333 173.287 417.017 175.868 416.619 178.4L415.367 178.203C415.761 175.7 416.073 173.147 416.295 170.616L417.557 170.727ZM358.48 61.6484L357.882 62.765C355.645 61.5684 353.339 60.4341 351.027 59.3936L351.547 58.2385C353.886 59.2911 356.218 60.4381 358.48 61.6484ZM415.157 185.99C414.587 188.489 413.922 191.003 413.182 193.461L411.969 193.096C412.7 190.665 413.357 188.18 413.922 185.708L415.157 185.99ZM344.396 55.3084L343.956 56.4959C341.577 55.6146 339.137 54.8035 336.703 54.0858L337.062 52.8708C339.523 53.597 341.99 54.4171 344.396 55.3084ZM410.702 200.779C409.796 203.179 408.796 205.579 407.73 207.91L406.578 207.383C407.632 205.078 408.621 202.706 409.517 200.332L410.702 200.779ZM329.576 50.9391L329.3 52.1749C326.826 51.6252 324.297 51.1536 321.785 50.7731L321.975 49.5213C324.516 49.9055 327.073 50.3829 329.576 50.9391ZM404.28 214.82C403.057 217.075 401.74 219.315 400.367 221.478L399.297 220.8C400.655 218.661 401.957 216.446 403.167 214.216L404.28 214.82ZM314.293 48.6271L314.19 49.8888C311.658 49.6815 309.088 49.5599 306.549 49.5273L306.566 48.2612C309.133 48.294 311.733 48.4169 314.293 48.6271ZM396.009 227.851C394.49 229.916 392.88 231.954 391.224 233.909L390.258 233.091C391.895 231.158 393.487 229.143 394.988 227.101L396.009 227.851ZM298.83 48.4275L298.902 49.6918C296.365 49.8347 293.801 50.0676 291.281 50.3845L291.122 49.128C293.672 48.807 296.265 48.5713 298.83 48.4275ZM386.037 239.621C384.247 241.461 382.371 243.26 380.46 244.97L379.615 244.026C381.504 242.336 383.359 240.557 385.129 238.738L386.037 239.621ZM283.491 50.358L283.736 51.6012C281.246 52.091 278.743 52.674 276.295 53.3333L275.965 52.1107C278.441 51.4438 280.973 50.8543 283.491 50.358ZM374.527 249.92C372.503 251.495 370.397 253.019 368.268 254.45L367.561 253.4C369.665 251.984 371.748 250.477 373.749 248.921L374.527 249.92ZM268.578 54.3755L268.99 55.5728C266.595 56.3977 264.195 57.3175 261.856 58.3058L261.363 57.1394C263.728 56.1397 266.156 55.2098 268.578 54.3755H268.578ZM361.712 258.54C359.494 259.821 357.2 261.043 354.894 262.175L354.336 261.037C356.617 259.919 358.885 258.71 361.079 257.443L361.712 258.54ZM254.921 61.5168C252.653 62.66 250.398 63.8942 248.219 65.185L247.573 64.0958C249.776 62.79 252.057 61.542 254.35 60.3856L254.921 61.5168ZM241.782 69.3015C239.691 70.7438 237.626 72.2741 235.645 73.8511L234.856 72.8605C236.859 71.2655 238.948 69.7174 241.063 68.259L241.782 69.3015ZM229.836 78.8128C227.967 80.5242 226.135 82.3219 224.389 84.1566L223.471 83.284C225.237 81.4282 227.09 79.6098 228.98 77.8794L229.836 78.8128ZM219.323 89.8651C217.705 91.8195 216.136 93.8534 214.659 95.9097L213.63 95.1713C215.123 93.0913 216.71 91.0346 218.346 89.0579L219.323 89.8651ZM210.42 102.261C209.084 104.421 207.807 106.651 206.625 108.889L205.505 108.298C206.7 106.034 207.991 103.779 209.343 101.595L210.42 102.261ZM203.291 115.761C202.262 118.079 201.3 120.462 200.432 122.845L199.241 122.412C200.12 120.001 201.093 117.591 202.133 115.247L203.291 115.761ZM198.062 130.108C197.357 132.548 196.728 135.041 196.192 137.518L194.954 137.25C195.496 134.746 196.132 132.224 196.845 129.757L198.062 130.108ZM194.831 145.037C194.466 147.552 194.183 150.108 193.99 152.634L192.727 152.538C192.922 149.983 193.208 147.398 193.578 144.855L194.831 145.037ZM193.672 160.272C193.654 162.812 193.724 165.383 193.881 167.915L192.617 167.993C192.458 165.432 192.387 162.832 192.405 160.263L193.672 160.272ZM194.617 175.526C194.949 178.04 195.372 180.574 195.876 183.059L194.634 183.311C194.124 180.798 193.696 178.234 193.361 175.691L194.617 175.526ZM197.652 190.489C198.326 192.931 199.094 195.383 199.934 197.778L198.738 198.197C197.888 195.775 197.112 193.295 196.43 190.825L197.652 190.489Z" fill="#E6E6E6"/>
<path d="M347.193 264.24L347.671 265.412C346.486 265.895 345.287 266.36 344.108 266.795L343.669 265.607C344.836 265.177 346.021 264.717 347.193 264.24Z" fill="#E6E6E6"/>
<path d="M129.656 41.7951C123.26 30.9924 110.606 30.489 110.606 30.489C110.606 30.489 98.275 28.9128 90.365 45.3654C82.9923 60.7006 72.8169 75.507 88.7269 79.0968L91.6007 70.1561L93.3804 79.7625C95.6457 79.9253 97.9182 79.9641 100.188 79.8787C117.226 79.3289 133.452 80.0396 132.93 73.9282C132.235 65.8039 135.81 52.1894 129.656 41.7951Z" fill="#2F2E41"/>
<path d="M78.5121 278.528V295.604L69.6953 294.502V280.181L78.5121 278.528Z" fill="#FFB8B8"/>
<path d="M139.679 289.545L142.985 302.764L150.7 300.01L145.189 287.341L139.679 289.545Z" fill="#FFB8B8"/>
<path d="M80.1655 95.6572L81.2676 125.952L88.4313 128.155L90.6355 98.9621L80.1655 95.6572Z" fill="#FFB8B8"/>
<path d="M82.3693 123.749L81.2672 125.952L71.3483 135.316C71.3483 135.316 64.1846 141.375 66.9398 145.231L74.1035 141.926V139.723L90.6351 128.156L82.3693 123.749Z" fill="#FFB8B8"/>
<path d="M122.597 132.562V145.231L80.1655 138.621L85.125 129.257L122.597 132.562Z" fill="#FFB8B8"/>
<path d="M141.883 92.9033C141.883 92.9033 145.741 103.369 146.292 104.47C146.843 105.572 153.455 130.91 153.455 130.91L169.987 157.349C169.987 157.349 182.11 171.67 174.395 172.221C166.681 172.772 161.17 160.103 161.17 160.103L144.638 138.621L129.209 97.8607L141.883 92.9033Z" fill="#FFB8B8"/>
<path d="M110.198 69.4937C119.024 69.4937 126.178 62.3421 126.178 53.52C126.178 44.698 119.024 37.5464 110.198 37.5464C101.372 37.5464 94.2173 44.698 94.2173 53.52C94.2173 62.3421 101.372 69.4937 110.198 69.4937Z" fill="#FFB8B8"/>
<path d="M105.514 64.2612C105.514 64.2612 105.514 75.8284 99.4519 77.4808C93.3904 79.1333 104.411 91.2512 104.411 91.2512L126.453 80.2349C126.453 80.2349 117.086 76.93 119.841 64.2612H105.514Z" fill="#FFB8B8"/>
<path d="M101.932 76.1035L90.245 79.9591C87.0733 81.2384 84.3186 83.3715 82.2869 86.1215C80.2551 88.8715 79.0259 92.1307 78.7357 95.537C78.53 97.6374 78.8311 99.7565 79.6139 101.716C82.9202 109.428 86.7776 111.08 86.7776 111.08C86.7776 111.08 87.3287 114.385 86.7776 114.936C86.2266 115.487 85.1244 116.038 85.6755 117.69C86.2266 119.343 86.7776 118.792 86.2266 120.444C85.6755 122.097 83.4713 125.952 83.4713 125.952C83.4713 125.952 85.6755 127.054 84.0223 128.156C82.3692 129.257 81.8181 131.461 81.8181 131.461C81.8181 131.461 119.29 133.113 123.147 136.969L129.76 109.979C129.76 109.979 145.189 103.92 144.638 97.8608C144.087 91.8018 140.781 86.2936 136.923 84.6412C133.066 82.9887 123.705 78.5774 123.705 78.5774C123.705 78.5774 122.472 82.6739 111.189 81.6875C109.323 81.5217 107.519 80.9326 105.915 79.965C104.31 78.9973 102.948 77.6767 101.932 76.1035Z" fill="#3F3D56"/>
<path d="M123.699 141.375C123.699 141.375 87.3291 139.172 81.8186 131.46L66.3892 146.332L68.0423 155.696L67.4913 277.977C67.4913 277.977 66.9402 284.036 68.5934 284.036C70.2465 284.036 79.0634 285.138 79.6144 284.036C80.1655 282.935 77.9612 280.732 81.8186 279.63C85.676 278.528 85.676 282.384 85.676 278.528C85.676 274.673 85.1249 258.148 84.0228 255.394C82.9207 252.64 96.697 189.296 96.697 189.296C96.697 189.296 133.066 287.341 135.822 289.545C138.577 291.748 139.128 295.053 140.781 294.502C142.434 293.951 150.149 291.748 150.7 291.197C151.251 290.646 150.149 286.24 150.7 284.587C151.251 282.935 152.904 285.138 150.7 281.833C148.496 278.528 147.945 276.325 147.945 274.673C147.945 273.02 127.556 166.713 127.556 166.713C127.556 166.713 131.964 156.798 125.352 151.29L123.699 141.375Z" fill="#2F2E41"/>
<path d="M79.6143 291.197C79.6143 291.197 74.1038 285.689 71.8996 285.689H66.3891C66.3891 285.689 61.4296 296.154 59.7765 296.705C58.1233 297.256 47.1023 310.476 57.0212 310.476C66.9401 310.476 70.7975 307.171 70.7975 307.171L79.6143 302.764V291.197Z" fill="#2F2E41"/>
<path d="M142.071 299.111L140.781 310.476C140.781 310.476 151.802 314.882 151.802 315.433C151.802 315.984 169.435 324.246 170.538 317.085C171.64 309.925 161.721 303.866 161.721 303.866C161.721 303.866 151.146 291.352 149.27 291.825C147.393 292.299 147.393 295.603 147.393 295.603L142.071 299.111Z" fill="#2F2E41"/>
<path d="M255.675 238.413H101.381V169.698L178.528 204.361L255.675 169.698V238.413Z" fill="#3F3D56"/>
<path d="M101.381 169.698H255.675L178.681 209.4L101.381 169.698Z" fill="#FD8D1F"/>
<path d="M178.681 215.813C182.224 215.813 185.097 212.942 185.097 209.4C185.097 205.858 182.224 202.986 178.681 202.986C175.137 202.986 172.265 205.858 172.265 209.4C172.265 212.942 175.137 215.813 178.681 215.813Z" fill="#E6E6E6"/>
<path d="M112.154 39.6892C117.208 39.6892 121.304 35.5945 121.304 30.5436C121.304 25.4926 117.208 21.3979 112.154 21.3979C107.101 21.3979 103.005 25.4926 103.005 30.5436C103.005 35.5945 107.101 39.6892 112.154 39.6892Z" fill="#2F2E41"/>
<path d="M102.042 28.1368C102.042 25.8781 102.878 23.6993 104.39 22.0202C105.901 20.3411 107.981 19.2805 110.228 19.0426C108.952 18.9068 107.662 19.0408 106.441 19.4359C105.22 19.8311 104.096 20.4785 103.142 21.3361C102.188 22.1938 101.424 23.2425 100.902 24.4141C100.38 25.5858 100.11 26.8541 100.11 28.1368C100.11 29.4195 100.38 30.6879 100.902 31.8595C101.424 33.0312 102.188 34.0799 103.142 34.9375C104.096 35.7952 105.22 36.4426 106.441 36.8377C107.662 37.2328 108.952 37.3668 110.228 37.231C107.981 36.9932 105.901 35.9326 104.39 34.2535C102.878 32.5744 102.042 30.3956 102.042 28.1368Z" fill="#2F2E41"/>
<path d="M126.828 40.7539L114.326 34.208L97.0621 36.8855L93.4902 52.6548L102.382 52.3128L104.866 46.5198V52.2175L108.969 52.0599L111.35 42.8365L112.838 52.6548L127.423 52.3574L126.828 40.7539Z" fill="#2F2E41"/>
<path d="M583 219.867H316.842V349.308H583V219.867Z" fill="#3F3D56"/>
<path d="M583 219.867H316.842V236.391H583V219.867Z" fill="#FD8D1F"/>
<path d="M355.416 308.548C368.807 308.548 379.662 297.697 379.662 284.312C379.662 270.927 368.807 260.076 355.416 260.076C342.025 260.076 331.169 270.927 331.169 284.312C331.169 297.697 342.025 308.548 355.416 308.548Z" fill="#E6E6E6"/>
<path d="M551.59 270.817H419.338V274.673H551.59V270.817Z" fill="#E6E6E6"/>
<path d="M551.59 282.384H419.338V286.24H551.59V282.384Z" fill="#E6E6E6"/>
<path d="M499.24 293.951H419.338V297.807H499.24V293.951Z" fill="#E6E6E6"/>
<path d="M489.89 104.983C489.89 104.983 486.29 116.805 488.347 120.403C490.404 124.001 484.747 131.711 475.491 128.113C466.235 124.515 465.721 120.403 465.721 120.403C465.721 120.403 469.321 114.749 470.349 102.927L489.89 104.983Z" fill="#A0616A"/>
<path d="M536.941 220.89C536.941 220.89 555.453 230.142 547.225 242.478C542.443 249.649 533.317 263.592 526.513 274.012C520.819 282.732 516.451 292.25 513.554 302.253L512.258 306.728L507.116 312.896L496.317 300.56C496.317 300.56 512.258 271.262 512.258 265.608C512.258 259.954 525.114 241.964 525.114 241.964L512.258 233.74C512.258 233.74 526.656 217.292 536.941 220.89Z" fill="#A0616A"/>
<path d="M476.777 252.758C476.777 252.758 476.263 267.15 475.749 272.804C475.324 277.469 479.45 290.529 478.02 305.059C477.147 314.46 477.251 323.925 478.331 333.304L480.377 351.96L464.95 353.502L459.808 311.354C459.808 311.354 456.723 281.542 458.265 271.776L457.751 251.216C457.751 251.216 469.064 247.104 476.777 252.758Z" fill="#A0616A"/>
<path d="M504.288 192.877C504.288 192.877 540.283 216.007 540.798 223.203C540.798 223.203 520.229 221.147 519.714 239.137C519.714 239.137 507.373 234.511 504.288 233.483C501.203 232.455 484.747 221.661 484.747 221.661C484.747 221.661 478.063 226.801 478.063 235.025C478.063 243.249 478.577 257.641 478.063 258.669C477.548 259.697 465.721 244.791 455.951 257.641L449.266 222.175C449.266 222.175 447.209 200.587 451.323 199.045L480.119 188.251L504.288 192.877Z" fill="#2F2E41"/>
<path d="M482.433 111.408C490.953 111.408 497.86 104.504 497.86 95.9879C497.86 87.4716 490.953 80.5679 482.433 80.5679C473.914 80.5679 467.007 87.4716 467.007 95.9879C467.007 104.504 473.914 111.408 482.433 111.408Z" fill="#A0616A"/>
<path d="M486.29 122.973C486.29 122.973 468.89 127.567 466.534 118.845C466.534 118.845 445.153 122.973 441.553 136.851C437.954 150.729 450.295 184.139 450.295 185.167C450.295 186.195 440.01 192.363 444.638 195.447C449.266 198.531 453.38 194.933 451.323 199.045C449.266 203.157 445.667 204.185 448.752 205.213C451.837 206.241 470.349 190.307 484.748 194.419C499.146 198.531 506.345 195.447 506.345 195.447L512.801 139.672C513.053 137.535 512.766 135.369 511.965 133.372C511.165 131.375 509.877 129.609 508.218 128.238C504.996 125.586 500.72 122.722 496.575 121.945C488.347 120.403 488.005 119.559 488.005 119.559L486.29 122.973Z" fill="#D0CDE1"/>
<path d="M502.745 212.923C502.745 212.923 498.117 239.137 491.946 235.539C485.776 231.941 493.489 212.923 493.489 212.923L502.745 212.923Z" fill="#A0616A"/>
<path d="M481.264 216.315C481.264 216.315 489.283 241.699 482.147 241.36C475.011 241.02 473.056 220.592 473.056 220.592L481.264 216.315Z" fill="#A0616A"/>
<path d="M509.687 305.7C509.687 305.7 513.287 301.588 515.344 307.242C517.401 312.896 523.057 320.092 523.057 320.092C523.057 320.092 535.398 333.97 526.657 334.484C517.915 334.998 505.573 322.148 505.573 322.148L491.175 308.784C491.175 308.784 495.947 297.168 498.189 297.065C500.431 296.962 499.917 310.84 509.687 305.7Z" fill="#2F2E41"/>
<path d="M476.263 348.362C476.263 348.362 479.886 349.42 479.617 345.036C479.617 345.036 492.718 351.96 489.118 357.1C489.082 357.152 489.046 357.203 489.01 357.255C483.94 364.469 477.001 370.166 468.936 373.735C464.982 375.485 461.463 376.65 460.836 375.604C459.293 373.034 459.293 367.894 460.322 365.838C461.35 363.782 466.492 360.184 464.95 357.1C463.407 354.016 465.464 345.792 468.035 345.792C470.606 345.792 476.263 348.362 476.263 348.362Z" fill="#2F2E41"/>
<path d="M495.896 82.9217C495.896 82.9217 490.933 72.1741 481.422 74.6543C471.91 77.1345 466.534 80.8549 466.12 84.5752C465.707 88.2956 466.327 93.8761 466.327 93.8761C466.327 93.8761 467.361 86.2287 473.978 87.8822C480.594 89.5357 490.933 88.2956 490.933 88.2956L492.587 103.177C492.587 103.177 494.448 100.49 496.516 102.144C498.584 103.797 502.513 86.2287 495.896 82.9217Z" fill="#2F2E41"/>
<path d="M450.295 136.337C450.295 136.337 462.636 169.747 461.608 173.859C460.579 177.971 461.608 178.485 463.15 179.513C464.693 180.541 468.807 191.335 468.807 191.335C468.807 191.335 471.378 197.503 473.435 199.045C475.492 200.587 475.492 204.699 475.492 204.699C475.492 204.699 480.634 209.839 479.605 210.867C478.577 211.895 478.577 213.437 480.634 214.979C482.691 216.521 484.748 218.577 483.719 219.091C482.691 219.605 475.492 225.259 473.435 224.745C471.378 224.231 474.463 222.175 471.892 221.147C469.321 220.119 467.778 218.577 468.807 218.063C469.835 217.549 472.92 217.549 469.835 216.521C466.75 215.493 455.951 208.811 452.352 200.587C448.752 192.363 431.505 142.606 441.929 135.616C441.929 135.616 446.181 130.169 450.295 136.337Z" fill="#D0CDE1"/>
<path d="M507.373 130.683L507.582 130.77C509.524 131.58 511.24 132.85 512.58 134.472C513.921 136.094 514.846 138.018 515.275 140.077C516.398 145.449 517.502 153.219 516.629 160.495C515.086 173.345 514.058 178.999 512.001 183.111C509.944 187.223 509.43 185.681 509.944 188.765C510.458 191.849 513.029 189.279 510.458 193.391C507.887 197.503 506.345 196.475 507.373 198.531C508.401 200.587 509.944 200.587 507.887 203.157C505.83 205.727 505.83 206.755 505.316 207.783C504.802 208.811 503.259 216.521 503.259 216.521C503.259 216.521 495.032 213.951 490.404 214.979C490.404 214.979 494.518 207.783 493.489 206.241C492.461 204.699 490.918 204.185 492.461 202.643C494.003 201.101 496.574 201.615 494.003 200.073C491.432 198.531 496.06 182.597 496.06 182.597L507.373 130.683Z" fill="#D0CDE1"/>
<path d="M368.641 296.581C368.641 306.566 362.702 310.053 355.378 310.053C355.207 310.053 355.037 310.051 354.869 310.046C354.53 310.039 354.193 310.024 353.861 310C347.25 309.533 342.113 305.867 342.113 296.581C342.113 286.972 354.396 274.847 355.322 273.947L355.324 273.946C355.359 273.911 355.378 273.894 355.378 273.894C355.378 273.894 368.641 286.596 368.641 296.581Z" fill="#3F3D56"/>
<path d="M354.893 308.525L359.745 301.75L354.882 309.269L354.869 310.046C354.529 310.039 354.193 310.024 353.861 310L354.384 300.011L354.38 299.933L354.389 299.919L354.438 298.975L349.562 291.437L354.453 298.267L354.465 298.467L354.86 290.92L350.686 283.131L354.911 289.594L355.322 273.947L355.324 273.894V273.946L355.256 286.285L359.41 281.393L355.238 287.347L355.129 294.105L359.009 287.62L355.112 295.1L355.051 298.857L360.684 289.83L355.03 300.168L354.893 308.525Z" fill="#F2F2F2"/>
<path d="M26.4852 270.33C26.3836 270.164 23.9887 266.167 23.1585 257.867C22.3969 250.252 22.8866 237.417 29.546 219.513C42.162 185.595 26.6386 158.227 26.4799 157.955L27.2458 157.511C27.286 157.58 31.2917 164.557 33.658 175.668C36.7846 190.398 35.6461 205.715 30.3758 219.821C17.7814 253.682 27.1447 269.711 27.2406 269.869L26.4852 270.33Z" fill="#3F3D56"/>
<path d="M21.5518 155.964C24.7294 155.964 27.3053 153.389 27.3053 150.212C27.3053 147.036 24.7294 144.461 21.5518 144.461C18.3743 144.461 15.7983 147.036 15.7983 150.212C15.7983 153.389 18.3743 155.964 21.5518 155.964Z" fill="#FD8D1F"/>
<path d="M39.6978 177.198C42.8754 177.198 45.4513 174.623 45.4513 171.447C45.4513 168.271 42.8754 165.696 39.6978 165.696C36.5203 165.696 33.9443 168.271 33.9443 171.447C33.9443 174.623 36.5203 177.198 39.6978 177.198Z" fill="#3F3D56"/>
<path d="M27.3057 191.354C30.4833 191.354 33.0592 188.779 33.0592 185.603C33.0592 182.427 30.4833 179.852 27.3057 179.852C24.1282 179.852 21.5522 182.427 21.5522 185.603C21.5522 188.779 24.1282 191.354 27.3057 191.354Z" fill="#FD8D1F"/>
<path d="M42.3531 203.299C45.5307 203.299 48.1066 200.724 48.1066 197.548C48.1066 194.372 45.5307 191.797 42.3531 191.797C39.1755 191.797 36.5996 194.372 36.5996 197.548C36.5996 200.724 39.1755 203.299 42.3531 203.299Z" fill="#FD8D1F"/>
<path d="M22.8795 221.879C26.057 221.879 28.633 219.304 28.633 216.128C28.633 212.952 26.057 210.377 22.8795 210.377C19.7019 210.377 17.126 212.952 17.126 216.128C17.126 219.304 19.7019 221.879 22.8795 221.879Z" fill="#3F3D56"/>
<path d="M29.9611 270.542C29.9611 270.542 24.2076 256.385 41.4681 245.768L29.9611 270.542Z" fill="#3F3D56"/>
<path d="M22.885 270.285C22.885 270.285 20.2665 255.231 0 255.36L22.885 270.285Z" fill="#3F3D56"/>
<path d="M399.5 0H248.512V84.0536H399.5V0Z" fill="#3F3D56"/>
<path d="M371.396 32.167H276.251V34.9547H371.396V32.167Z" fill="white"/>
<path d="M371.396 43.3179H276.251V46.1056H371.396V43.3179Z" fill="white"/>
<path d="M371.396 54.4688H276.251V57.2564H371.396V54.4688Z" fill="white"/>
<path d="M399.5 0.0913086H248.512V9.45518H399.5V0.0913086Z" fill="#FD8D1F"/>
<path d="M254.679 8.45934C256.564 8.45934 258.092 6.93226 258.092 5.04852C258.092 3.16477 256.564 1.6377 254.679 1.6377C252.795 1.6377 251.267 3.16477 251.267 5.04852C251.267 6.93226 252.795 8.45934 254.679 8.45934Z" fill="#E6E6E6"/>
<path d="M263.941 8.45934C265.826 8.45934 267.353 6.93226 267.353 5.04852C267.353 3.16477 265.826 1.6377 263.941 1.6377C262.057 1.6377 260.529 3.16477 260.529 5.04852C260.529 6.93226 262.057 8.45934 263.941 8.45934Z" fill="#E6E6E6"/>
<path d="M273.203 8.45934C275.087 8.45934 276.615 6.93226 276.615 5.04852C276.615 3.16477 275.087 1.6377 273.203 1.6377C271.318 1.6377 269.791 3.16477 269.791 5.04852C269.791 6.93226 271.318 8.45934 273.203 8.45934Z" fill="#E6E6E6"/>
<path d="M325.108 231.984C327.238 231.984 328.965 230.258 328.965 228.129C328.965 225.999 327.238 224.273 325.108 224.273C322.977 224.273 321.25 225.999 321.25 228.129C321.25 230.258 322.977 231.984 325.108 231.984Z" fill="white"/>
<path d="M336.129 231.984C338.259 231.984 339.986 230.258 339.986 228.129C339.986 225.999 338.259 224.273 336.129 224.273C333.998 224.273 332.271 225.999 332.271 228.129C332.271 230.258 333.998 231.984 336.129 231.984Z" fill="white"/>
<path d="M347.15 231.984C349.28 231.984 351.007 230.258 351.007 228.129C351.007 225.999 349.28 224.273 347.15 224.273C345.019 224.273 343.292 225.999 343.292 228.129C343.292 230.258 345.019 231.984 347.15 231.984Z" fill="white"/>
</g>
<defs>
<clipPath id="clip0">
<rect width="583" height="376" fill="white"/>
</clipPath>
</defs>
</svg>
