<svg width="570" height="369" viewBox="0 0 570 369" fill="none" xmlns="http://www.w3.org/2000/svg">
<g clip-path="url(#clip0)">
<path d="M570 364.829H0V369H570V364.829Z" fill="#85848B"/>
<path d="M451.588 291.186C451.588 294.394 432.912 303.747 410.727 303.747C388.542 303.747 371.256 294.394 371.256 291.186C371.256 287.977 389.238 289.011 411.444 289.011C433.65 289.011 451.588 287.972 451.588 291.186Z" fill="#504F60"/>
<path opacity="0.2" d="M451.588 291.186C451.588 294.394 432.912 303.747 410.727 303.747C388.542 303.747 371.256 294.394 371.256 291.186" fill="black"/>
<path d="M228.173 232.317C231.773 232.779 235.51 233.073 238.958 231.952C239.501 231.784 240.099 231.409 240.044 230.865C240.006 230.667 239.922 230.481 239.8 230.321C238.5 228.369 237.408 226.286 236.542 224.106C236.507 223.992 236.437 223.893 236.341 223.823C236.228 223.782 236.105 223.782 235.993 223.823C234.402 224.242 233.028 225.269 231.448 225.71C230.642 225.931 229.801 225.994 228.971 225.895C228.254 225.813 227.277 225.22 226.625 225.297C226.994 227.673 227.896 229.892 228.173 232.317Z" fill="#6C63FF"/>
<path d="M296.269 226.297C298.642 224.666 301.102 222.953 302.504 220.435C302.604 220.285 302.662 220.11 302.672 219.93C302.648 219.752 302.579 219.583 302.471 219.44C301.136 217.316 299.418 215.459 297.404 213.964C296.353 214.708 295.404 215.585 294.58 216.574C293.983 217.205 292.332 218.206 292.315 219.168C292.315 219.712 292.945 220.343 293.239 220.8C293.635 221.387 294.01 221.985 294.368 222.594C294.575 222.893 296.459 226.178 296.269 226.297Z" fill="#6C63FF"/>
<path d="M242.287 239.598C242.33 240.158 242.176 240.716 241.853 241.175C241.599 241.43 241.286 241.617 240.941 241.719C235.906 243.524 230.079 241.273 225.056 243.051C224.024 243.415 223.046 243.943 222.009 244.291C220.772 244.663 219.496 244.889 218.207 244.965C216.432 245.134 214.645 245.242 212.864 245.291C211.51 245.387 210.15 245.268 208.834 244.938C208.176 244.769 207.56 244.464 207.028 244.041C206.496 243.619 206.058 243.089 205.744 242.485C205.471 241.945 205.416 241.32 205.592 240.74C205.671 240.541 205.783 240.357 205.923 240.196C206.264 239.814 206.663 239.489 207.107 239.234L208.959 238.037C209.827 237.423 210.771 236.922 211.767 236.547C212.5 236.308 213.276 236.205 214.02 236.004C216.622 235.242 218.609 233.176 220.456 231.191L222.976 228.5C223.211 228.203 223.51 227.964 223.85 227.798C224.199 227.681 224.571 227.646 224.936 227.695C227.384 227.87 229.747 228.663 231.806 230C232.332 230.396 232.9 230.731 233.5 231.001C234.978 231.577 236.873 231.142 238.236 230.414C238.882 230.066 238.741 229.87 239.013 229.25C239.284 228.63 239.947 228.233 240.522 228.799C240.696 228.994 240.819 229.23 240.881 229.484C241.424 231.278 241.217 233.209 241.217 235.09C241.202 235.384 241.238 235.679 241.326 235.96C241.465 236.244 241.63 236.513 241.82 236.765C241.859 236.832 241.893 236.901 241.923 236.972C242.256 237.805 242.381 238.706 242.287 239.598Z" fill="#514E7F"/>
<path d="M242.287 239.598C242.33 240.158 242.176 240.716 241.853 241.175C241.599 241.43 241.286 241.617 240.941 241.719C235.906 243.524 230.079 241.273 225.056 243.051C224.024 243.415 223.046 243.943 222.009 244.291C220.772 244.663 219.496 244.889 218.207 244.965C216.432 245.133 214.645 245.242 212.864 245.291C211.51 245.387 210.15 245.268 208.834 244.938C208.176 244.769 207.56 244.463 207.028 244.041C206.496 243.618 206.058 243.088 205.744 242.485C205.471 241.945 205.416 241.32 205.592 240.74C205.671 240.541 205.783 240.357 205.923 240.196C206.216 240.81 206.428 241.626 206.613 241.92C206.862 242.355 207.201 242.732 207.608 243.025C208.014 243.319 208.479 243.522 208.97 243.622C209.705 243.667 210.442 243.573 211.142 243.344C215.704 242.213 220.553 242.197 224.936 240.484C226.44 239.891 227.874 239.103 229.454 238.744C231.035 238.385 232.713 238.483 234.342 238.347C236.916 238.141 239.409 237.363 241.945 236.955C242.273 237.795 242.39 238.702 242.287 239.598Z" fill="#464353"/>
<path d="M307.798 225.966C307.559 227.88 306.348 229.527 305.018 230.925C303.687 232.322 302.183 233.578 301.124 235.188C299.82 237.184 299.234 239.658 297.539 241.344C296.889 241.957 296.158 242.478 295.367 242.893C294.481 243.417 293.544 243.849 292.57 244.182C290.04 244.992 287.313 244.807 284.669 244.612C283.81 244.603 282.96 244.439 282.16 244.128C281.795 243.942 281.446 243.728 281.117 243.486C280.454 243.077 279.896 242.518 279.488 241.855C279.287 241.494 279.231 241.07 279.33 240.669C279.481 240.228 279.741 239.831 280.085 239.516C280.68 238.897 281.319 238.321 281.997 237.793C282.926 237.192 283.764 236.459 284.484 235.618C284.925 234.953 285.251 234.217 285.445 233.442C285.83 232.086 286.065 230.691 286.146 229.283C286.143 228.347 286.239 227.414 286.434 226.498C286.835 225.063 287.9 223.78 287.78 222.295C287.732 222.083 287.751 221.86 287.835 221.659C287.961 221.502 288.137 221.392 288.334 221.349C289.164 221.018 290.039 220.814 290.93 220.745C291.377 220.714 291.825 220.783 292.242 220.947C292.659 221.111 293.035 221.365 293.341 221.691C293.711 222.137 293.955 222.779 294.498 222.953C294.767 223.027 295.05 223.038 295.324 222.986C296.66 222.85 298.072 222.681 299.125 221.817C299.612 221.379 300.003 220.846 300.275 220.25C300.546 219.653 300.69 219.008 300.7 218.353C300.7 217.858 300.477 217.341 301.243 217.265C301.819 217.189 302.275 217.809 302.568 218.19C303.627 219.609 304.713 221.093 305.11 222.823C305.264 222.763 305.428 222.731 305.593 222.73C305.932 222.727 306.266 222.806 306.568 222.96C306.87 223.115 307.13 223.34 307.326 223.616C307.758 224.318 307.926 225.151 307.798 225.966Z" fill="#514E7F"/>
<path d="M307.798 225.966C307.559 227.88 306.348 229.527 305.018 230.925C303.687 232.322 302.183 233.578 301.124 235.188C299.821 237.184 299.234 239.658 297.54 241.343C296.889 241.956 296.158 242.478 295.367 242.893C294.481 243.417 293.544 243.849 292.57 244.182C290.04 244.992 287.314 244.807 284.669 244.612C283.81 244.603 282.96 244.439 282.16 244.128C281.795 243.942 281.447 243.728 281.117 243.486C280.454 243.077 279.896 242.518 279.488 241.855C279.997 241.61 280.552 241.476 281.117 241.463C282.29 241.528 283.148 242.638 284.272 242.98C285.874 243.464 287.471 242.333 289.095 241.947C290.154 241.697 291.267 241.762 292.315 241.403C293.189 241.065 293.996 240.576 294.699 239.957C295.664 239.266 296.522 238.438 297.246 237.499C297.848 236.559 298.349 235.559 298.74 234.514C299.597 232.511 300.607 230.576 301.759 228.728C301.93 228.435 302.136 228.165 302.373 227.923C302.628 227.689 302.916 227.526 303.204 227.32C304.29 226.498 304.741 225.144 305.121 223.818C305.224 223.414 305.368 223.023 305.55 222.649C305.889 222.646 306.223 222.725 306.525 222.879C306.826 223.033 307.086 223.258 307.282 223.535C307.75 224.253 307.933 225.119 307.798 225.966Z" fill="#464353"/>
<path d="M193.921 56.4274C195.273 57.4416 196.385 58.7411 197.179 60.2338C197.94 61.7238 202.322 73.2844 202.067 74.9647C203.495 73.5237 209.127 73.2898 210.572 71.8488C211.174 71.2453 214.427 68.2327 214.916 67.5313C215.405 66.8298 219.033 65.3562 219.429 64.6166C220.912 61.9576 208.915 51.8814 210.452 49.255C210.537 49.1343 210.581 48.9894 210.577 48.8417C210.542 48.7178 210.472 48.6064 210.376 48.5209C209.393 47.5149 208.09 46.8896 206.906 46.1446C205.722 45.3996 204.582 44.361 204.261 42.9907C203.132 43.5111 202.096 44.2128 201.193 45.0679C198.991 46.9567 196.828 48.8834 194.703 50.8483C193.872 51.6204 192.265 52.6482 191.879 53.752C191.423 54.9375 193.128 55.7803 193.921 56.4274Z" fill="#A1616A"/>
<path d="M213.341 52.1479C211.501 53.3864 209.781 54.7955 208.204 56.3568C206.716 57.8304 205.304 59.5378 204.945 61.5987C204.793 62.409 204.815 63.2301 204.69 64.0512C204.147 67.6129 201.073 70.223 199.715 73.5564C199.322 74.5852 199.033 75.6509 198.852 76.7374C198.47 78.7972 198.262 80.8853 198.227 82.98C198.195 85.0082 200.183 86.4057 200.91 88.2981C201.638 90.1904 201.833 92.1371 202.203 94.0784C202.898 97.7434 204.174 101.278 205.461 104.791C208.139 112.197 216.817 132.67 219.494 140.082C227.7 138.021 249.543 133.285 256.809 128.94C259.231 127.493 240.001 111.175 242.591 110.049C242.739 110.026 242.88 109.969 243.002 109.882C243.124 109.795 243.225 109.681 243.295 109.549C243.366 109.416 243.405 109.269 243.409 109.119C243.413 108.969 243.382 108.82 243.319 108.684C240.728 97.3411 232.626 88.0208 228.949 76.9767C227.673 73.1431 225.381 69.8696 223.643 66.2263C222.068 62.9256 221.227 59.2768 219.342 56.1393C218.987 55.4928 218.522 54.9132 217.968 54.4264C217.498 54.0655 216.99 53.7573 216.453 53.5074C215.378 52.9854 214.378 52.6754 213.341 52.1479Z" fill="#514E7F"/>
<path d="M194.355 55.1388C201.449 55.1388 207.199 49.381 207.199 42.2785C207.199 35.176 201.449 29.4182 194.355 29.4182C187.262 29.4182 181.512 35.176 181.512 42.2785C181.512 49.381 187.262 55.1388 194.355 55.1388Z" fill="#A1616A"/>
<path d="M207.422 48.3199C208.062 47.7287 208.866 47.3458 209.728 47.2215C210.59 47.0972 211.469 47.2375 212.25 47.6239C213.119 48.0752 213.879 48.9887 213.684 49.9458L220.054 50.0437C221.068 50.0159 222.081 50.109 223.073 50.321C224.072 50.5386 224.963 51.0982 225.593 51.9034C225.669 52.0067 225.756 52.1318 225.886 52.1481C225.992 52.1497 226.096 52.1152 226.18 52.0502C227.16 51.5581 228.264 51.3688 229.351 51.5064C232.794 51.7294 235.977 53.4531 238.676 55.6065C239.163 55.9415 239.54 56.4123 239.762 56.9605C239.985 57.6837 239.719 58.5918 240.305 59.1084C240.305 65.0899 242.358 70.6799 243.726 76.5092C243.971 77.5478 244.965 78.4668 245.654 79.2824C246.506 80.1867 247.202 81.2269 247.713 82.3602C248.875 85.3836 247.273 88.9398 248.402 91.9741C248.88 93.2574 249.803 94.3123 250.575 95.4271C251.591 96.7143 252.234 98.2571 252.432 99.886C252.481 100.615 252.388 101.349 252.432 102.061C252.505 103.041 252.687 104.009 252.975 104.949C253.438 106.703 253.924 108.456 254.43 110.207C255.256 113.035 256.331 116.085 258.862 117.591C252.752 118.63 246.311 119.647 240.49 117.521C239.678 117.243 238.907 116.857 238.198 116.373C236.096 114.872 235.081 112.306 234.174 109.881C233.164 107.162 232.137 104.394 231.931 101.501C231.933 100.581 231.803 99.6653 231.545 98.7822C230.953 97.2052 229.373 96.2536 227.939 95.3781C226.32 94.4899 224.853 93.348 223.595 91.9959C222.97 91.3148 222.492 90.5127 222.189 89.6391C221.886 88.7655 221.766 87.8391 221.835 86.917C221.944 86.0198 222.297 85.1552 222.329 84.2525C222.362 83.3499 221.96 82.3167 221.096 82.0774C216.649 80.7289 214.525 75.4542 213.537 70.9083C213.11 68.5587 212.919 66.1724 212.967 63.7848L212.907 59.1464C212.293 58.5873 211.799 57.909 211.456 57.1527C211.112 56.3964 210.926 55.578 210.908 54.7473C210.967 54.2627 210.958 53.7721 210.881 53.29C210.666 52.7007 210.317 52.1699 209.86 51.7402C208.878 50.7311 208.056 49.5777 207.422 48.3199Z" fill="#464353"/>
<path d="M193.741 63.0234C193.595 64.459 193.921 65.9326 193.6 67.341C193.475 67.8848 193.258 68.4286 193.101 68.9343C192.619 70.9614 192.827 73.0914 193.693 74.9865C194.557 76.8629 195.591 78.6559 196.783 80.3427C197.186 80.9185 197.518 81.5411 197.771 82.1969C197.976 82.8856 198.104 83.5951 198.151 84.3122C198.466 87.1918 198.97 90.0474 199.661 92.8603C200.269 95.2965 207.177 116.123 208.785 118.053C209.076 118.481 209.519 118.782 210.023 118.896C210.386 118.91 210.748 118.835 211.076 118.679L214.335 117.428C214.612 117.343 214.869 117.203 215.09 117.015C215.395 116.658 215.561 116.202 215.557 115.732C215.79 113.078 208.866 92.1045 207.986 89.5977C205.325 82.0284 201.784 74.7309 200.052 66.8951C199.569 64.72 199.313 61.3704 197.722 59.6357C197.065 58.9179 197.288 59.2225 196.5 59.5977C196.102 59.7705 195.718 59.9723 195.349 60.2012C194.888 60.5221 194.504 60.942 194.226 61.4303C193.948 61.9185 193.783 62.4628 193.741 63.0234Z" fill="#464353"/>
<path d="M203.631 77.3846C204.505 82.0122 205.407 86.6288 206.303 91.2563L219.054 87.9121C219.158 86.5744 218.446 85.3346 217.968 84.1057C216.806 81.1856 216.779 77.9338 215.839 74.9322C215.128 72.6483 213.89 70.5494 213.222 68.2492C212.836 66.9115 212.641 65.5303 212.261 64.1763C211.853 62.8467 211.352 61.5475 210.762 60.2884C210.046 58.4623 209.112 56.7296 207.981 55.1279C206.352 55.737 204.614 56.4439 203.685 57.9175C203.209 58.7478 202.937 59.6799 202.892 60.6364C202.67 63.5021 203.707 66.3841 203.365 69.2334C203.013 71.947 203.102 74.6999 203.631 77.3846Z" fill="#FD8D1F"/>
<path d="M219.266 138.94C219.983 141.659 218.946 144.519 218.099 147.211C216.823 151.265 215.953 155.436 215.503 159.663C215.447 160.739 215.231 161.8 214.862 162.812C214.46 163.72 213.776 164.486 213.309 165.351C212.027 167.624 212.06 170.397 212.337 172.996C212.521 174.709 212.798 176.417 213.14 178.103C213.558 180.163 214.074 182.317 213.472 184.329C214.482 184.106 215.166 185.416 215.101 186.444C215.036 187.472 214.704 188.619 215.199 189.505C216.448 189.962 216.459 191.681 216.42 193.013C216.441 195.323 216.733 197.622 217.289 199.864C219.179 208.964 221.185 218.037 223.307 227.086C227.896 228.51 233.256 229.995 237.633 228.021C238.448 227.657 239.262 227.075 239.447 226.194C239.495 225.719 239.435 225.24 239.273 224.791L237.199 217.233C236.693 215.405 236.188 213.519 236.454 211.643C236.655 210.245 237.264 208.739 236.579 207.504C236.346 207.08 235.977 206.749 235.705 206.346C234.619 204.753 235.189 202.621 235.276 200.691C235.31 200.258 235.281 199.822 235.189 199.397C235.04 198.9 234.833 198.424 234.57 197.977C232.856 194.645 232.032 190.924 232.181 187.178C232.245 186.7 232.18 186.213 231.99 185.77C231.859 185.587 231.741 185.394 231.637 185.193C231.556 184.844 231.597 184.478 231.751 184.155C231.129 183.682 230.567 183.134 230.079 182.523C230.38 182.336 230.635 182.082 230.824 181.782C231.013 181.481 231.131 181.142 231.17 180.789C231.209 180.436 231.167 180.078 231.047 179.744C230.928 179.41 230.734 179.107 230.481 178.858C230.702 178.814 230.907 178.708 231.072 178.554C231.238 178.4 231.357 178.203 231.417 177.985C231.477 177.767 231.476 177.536 231.413 177.319C231.351 177.102 231.229 176.906 231.062 176.754C230.796 176.569 230.443 176.487 230.253 176.21C229.959 175.808 230.198 175.248 230.437 174.818L231.703 172.529C232.648 170.827 232.859 168.722 233.875 167.091C235.33 164.715 236.281 162.067 237.22 159.446L240.875 149.348L243.335 151.485C244.155 152.112 244.841 152.895 245.355 153.79C245.705 154.675 245.927 155.605 246.013 156.553C246.914 162.034 250.357 166.787 251.633 172.186C251.916 173.388 252.106 174.65 252.796 175.677C253.042 175.993 253.264 176.327 253.458 176.678C253.638 177.212 253.731 177.772 253.735 178.336C253.849 179.441 254.199 180.508 254.761 181.465C255.323 182.422 256.085 183.247 256.994 183.883C258.205 184.715 259.709 185.286 260.366 186.602C260.497 187.009 260.68 187.398 260.909 187.76C261.496 188.467 262.761 188.548 263.011 189.435C263.152 189.93 262.891 190.522 263.168 190.957C263.326 191.159 263.534 191.314 263.771 191.409L267.307 193.176C271.26 195.155 273.28 199.701 276.197 203.013C277.204 204.091 278.096 205.272 278.858 206.536C280.118 208.793 280.699 211.626 282.828 213.062C283.4 213.359 283.921 213.746 284.37 214.209C285.038 215.09 284.794 216.324 284.853 217.434C284.913 218.543 285.76 219.864 286.814 219.527C286.445 220.871 286.445 222.289 286.814 223.633C291.439 223.395 295.85 221.606 299.337 218.554C300.369 217.651 301.363 216.498 301.374 215.128C301.389 214.892 301.337 214.656 301.222 214.448C301.013 214.181 300.737 213.973 300.423 213.845C297.116 212.05 296.122 207.89 294.449 204.514C292.989 201.534 290.827 198.967 289.019 196.199C285.087 190.245 282.404 183.04 276.457 179.108C275.149 178.244 273.628 177.477 272.971 176.047C272.607 175.248 272.564 174.334 272.276 173.508C271.988 172.681 271.298 171.876 270.418 171.876C270.907 170.68 270.809 169.223 270.842 167.928C270.875 167.354 270.809 166.778 270.646 166.226C270.421 165.633 270.127 165.067 269.772 164.541C268.221 161.91 267.445 158.894 267.535 155.84C267.578 154.269 267.855 152.648 267.383 151.148C267.144 150.392 266.725 149.701 266.438 148.972C266.004 147.652 265.775 146.273 265.759 144.883L265.433 139.658C265.384 137.917 265.158 136.186 264.76 134.492C263.673 130.435 262.587 113.442 258.867 111.528C255.147 109.614 248.755 122.692 244.568 122.947C242.716 123.025 240.885 123.378 239.137 123.997C236.351 125.041 234.016 126.988 231.741 128.891L224.04 135.367C222.411 136.71 221.064 137.994 219.266 138.94Z" fill="#464353"/>
<path d="M182.305 27.9991C183.999 25.6826 186.91 24.4536 189.777 24.3503C192.645 24.247 195.469 25.1497 198.037 26.4276C198.796 26.8593 199.606 27.1919 200.449 27.4172C201.806 27.6945 203.316 27.3248 204.543 27.961C206.173 28.8256 206.488 31.0279 206.346 32.855C206.205 34.682 205.863 36.7103 206.835 38.2927C207.18 38.744 207.494 39.2182 207.775 39.712C208.193 40.6527 207.949 41.7402 207.699 42.7354C207.063 42.1916 206.705 41.3705 206.14 40.7397C205.575 40.1089 204.592 39.6848 203.892 40.1579C203.191 40.6309 203.202 41.4901 203.164 42.2623C203.126 43.0344 202.931 43.9588 202.203 44.209C201.899 44.2782 201.581 44.2546 201.291 44.1412C201 44.0278 200.75 43.8298 200.574 43.5728C199.33 42.0502 199.83 39.6195 198.597 38.0861C197.896 37.216 196.729 36.7919 196.082 35.8784C195.572 35.1606 195.442 34.247 194.996 33.4749C194.551 32.7027 193.514 32.1372 192.824 32.6701C192.589 32.8953 192.392 33.158 192.243 33.4477C191.813 34.0645 191.187 34.5181 190.468 34.7352C189.749 34.9523 188.977 34.9201 188.278 34.644C187.744 34.3157 187.167 34.0649 186.562 33.899C186.167 33.8792 185.774 33.9705 185.427 34.1627C185.081 34.3549 184.795 34.6403 184.602 34.9866C184.212 35.6785 184.024 36.4659 184.059 37.2595C184.059 38.3471 184.254 39.5053 183.635 40.3754C183.4 40.7029 183.105 40.9833 182.766 41.2019C181.859 41.7837 180.594 42.1753 179.758 41.5119C179.474 41.2475 179.263 40.9146 179.145 40.5451C179.027 40.1756 179.006 39.782 179.084 39.402C179.247 38.6452 179.461 37.9003 179.725 37.1725C180.203 35.4868 179.578 33.5891 180.1 32.0012C180.646 30.5713 181.388 29.2243 182.305 27.9991Z" fill="#464353"/>
<path d="M189.185 66.3623C189.104 66.7586 189.145 67.1705 189.305 67.5423C189.466 67.7956 189.686 68.0063 189.946 68.1568C191.772 69.296 193.849 69.9699 195.995 70.1198C196.287 70.1248 196.574 70.1994 196.832 70.3373C197.342 70.6745 197.375 71.4249 197.185 72.023C196.931 72.5873 196.8 73.1988 196.799 73.8175C196.957 74.954 198.303 75.4488 199.438 75.6174C201.03 75.8186 202.773 75.7152 204.033 74.7201C204.886 73.9407 205.537 72.9645 205.928 71.8762C209.045 64.7038 210.137 56.7756 213.292 49.6249C213.531 49.158 213.691 48.6545 213.765 48.135C213.798 47.875 213.761 47.6107 213.658 47.3697C213.555 47.1288 213.389 46.9198 213.178 46.7647C212.592 46.4003 211.679 46.607 211.283 46.036C211.087 45.7478 211.109 45.3563 210.935 45.0518C210.571 44.4047 209.616 44.508 208.964 44.1328C208.453 43.8609 208.101 43.3008 207.53 43.1921C207.25 43.1762 206.971 43.226 206.713 43.3374C206.456 43.4488 206.228 43.6187 206.048 43.8337C204.196 45.5629 203.224 48.0154 202.192 50.3318C200.616 53.8826 198.772 57.3075 196.674 60.5766C196.919 60.1959 195.501 57.3139 194.947 57.1888C193.975 56.9931 192.731 58.7005 192.205 59.3368C190.552 61.3436 189.504 63.7807 189.185 66.3623Z" fill="#FD8D1F"/>
<path opacity="0.1" d="M208.915 44.6384C208.525 44.6449 208.141 44.7392 207.793 44.9143C207.444 45.0894 207.139 45.3408 206.9 45.6498C206.319 46.4057 206.205 47.4062 206.059 48.3687C205.564 51.418 204.478 54.3407 202.86 56.9712" fill="black"/>
<path opacity="0.1" d="M211.685 46.8081C211.146 46.8201 210.62 46.9723 210.158 47.2498C209.697 47.5273 209.315 47.9204 209.051 48.3905C208.691 49.2458 208.468 50.1522 208.388 51.0767C207.923 53.1265 207.025 55.0529 205.754 56.7266" fill="black"/>
<path d="M340.752 153.116V146.362C340.751 141.391 338.777 136.623 335.266 133.108C331.754 129.593 326.992 127.618 322.027 127.618H55.6544C50.6891 127.618 45.9271 129.593 42.4156 133.108C38.9041 136.623 36.9306 141.391 36.9292 146.362V158.815L340.752 153.116Z" fill="#33323D"/>
<path d="M129.757 119.701C129.757 119.701 128.996 166.933 137.36 182.475C145.723 198.016 149.307 265.623 149.307 265.623C149.307 265.623 236.981 274.704 298.077 254.748C359.173 234.791 489.174 226.629 489.174 226.629L467.267 78.7822C467.267 78.7822 359.037 71.8327 297.469 101.235C235.901 130.637 129.757 119.701 129.757 119.701Z" fill="#8DD070"/>
<path opacity="0.1" d="M129.757 119.701C129.757 119.701 128.996 166.933 137.36 182.475C145.723 198.016 149.307 265.623 149.307 265.623C149.307 265.623 236.981 274.704 298.077 254.748C359.173 234.791 489.174 226.629 489.174 226.629L467.267 78.7822C467.267 78.7822 359.037 71.8327 297.469 101.235C235.901 130.637 129.757 119.701 129.757 119.701Z" fill="black"/>
<path d="M149.161 136.955C149.161 136.955 146.418 175.927 153.299 188.38C160.18 200.832 160.5 256.422 160.5 256.422C160.5 256.422 239.403 260.087 295.53 240.957C351.657 221.827 469.602 209.418 469.602 209.418L456.199 88.5102C456.199 88.5102 358.608 87.5043 301.651 114.432C244.693 141.36 149.161 136.955 149.161 136.955Z" fill="#8DD070"/>
<path opacity="0.1" d="M300.784 218.82C312.011 217.42 318.681 196.74 315.681 172.631C312.682 148.522 301.15 130.112 289.923 131.512C278.697 132.912 272.027 153.592 275.026 177.701C278.025 201.811 289.558 220.22 300.784 218.82Z" fill="black"/>
<path opacity="0.2" d="M407.93 6.75903C407.93 6.75903 302.785 33.404 253.203 80.3045C203.62 127.205 99.2412 149.413 99.2412 149.413C99.2412 149.413 112.992 194.595 125.711 206.819C138.429 219.043 162.553 282.295 162.553 282.295C162.553 282.295 248.777 263.992 300.803 226.21C352.83 188.429 474.082 140.712 474.082 140.712L407.93 6.75903Z" fill="black"/>
<path d="M97.6611 142.648C97.6611 142.648 111.406 187.836 124.114 200.06C136.822 212.284 160.956 275.531 160.956 275.531C160.956 275.531 247.191 257.233 299.223 219.451C351.255 181.67 472.496 133.97 472.496 133.97L406.345 0C406.345 0 301.205 26.645 251.623 73.5455C202.04 120.446 97.6611 142.648 97.6611 142.648Z" fill="#8DD070"/>
<path opacity="0.1" d="M97.6611 142.648C97.6611 142.648 111.406 187.836 124.114 200.06C136.822 212.284 160.956 275.531 160.956 275.531C160.956 275.531 247.191 257.233 299.223 219.451C351.255 181.67 472.496 133.97 472.496 133.97L406.345 0C406.345 0 301.205 26.645 251.623 73.5455C202.04 120.446 97.6611 142.648 97.6611 142.648Z" fill="black"/>
<path d="M121.399 153.111C121.399 153.111 130.734 191.05 141.102 200.783C151.469 210.517 168.798 263.317 168.798 263.317C168.798 263.317 245.014 242.556 292.571 207.102C340.128 171.648 448.59 123.649 448.59 123.649L398.785 12.6536C398.785 12.6536 305.599 41.6748 259.639 84.807C213.678 127.939 121.399 153.111 121.399 153.111Z" fill="#8DD070"/>
<path opacity="0.1" d="M290.812 184.437C301.068 179.655 301.078 157.923 290.835 135.899C280.592 113.874 263.974 99.8957 253.718 104.678C243.463 109.46 243.452 131.191 253.695 153.216C263.938 175.241 280.556 189.219 290.812 184.437Z" fill="black"/>
<path opacity="0.1" d="M347.942 159.745V347.347C347.942 349.478 347.523 351.587 346.709 353.556C345.894 355.524 344.7 357.312 343.196 358.819C341.691 360.325 339.904 361.52 337.938 362.335C335.972 363.149 333.865 363.569 331.737 363.568H53.1398C48.8442 363.566 44.7251 361.857 41.6882 358.815C38.6513 355.773 36.9453 351.648 36.9453 347.347V140.832C44.9285 143.801 44.9285 143.801 53.1398 143.551H331.737C336.029 143.551 340.146 145.256 343.184 148.292C346.223 151.328 347.934 155.447 347.942 159.745Z" fill="black"/>
<path d="M347.942 162.132V349.734C347.941 354.036 346.233 358.162 343.194 361.204C340.155 364.246 336.034 365.955 331.737 365.955H53.1398C48.8442 365.953 44.7251 364.244 41.6882 361.202C38.6513 358.16 36.9453 354.035 36.9453 349.734V143.214C44.9285 146.177 44.9285 146.177 53.1398 145.933H331.737C336.03 145.933 340.148 147.639 343.186 150.676C346.225 153.713 347.935 157.833 347.942 162.132Z" fill="#504F60"/>
<path opacity="0.1" d="M347.149 231.49V291.485H289.04C281.165 291.379 273.648 288.172 268.116 282.558C262.584 276.943 259.482 269.374 259.482 261.488C259.482 253.601 262.584 246.032 268.116 240.418C273.648 234.804 281.165 231.596 289.04 231.49H347.149Z" fill="black"/>
<path d="M347.942 229.892V289.897H289.833C281.958 289.791 274.441 286.584 268.909 280.97C263.377 275.356 260.275 267.786 260.275 259.9C260.275 252.013 263.377 244.444 268.909 238.83C274.441 233.216 281.958 230.009 289.833 229.902L347.942 229.892Z" fill="#33323D"/>
<path opacity="0.1" d="M292.62 273.187C299.071 273.187 304.301 267.95 304.301 261.49C304.301 255.03 299.071 249.794 292.62 249.794C286.168 249.794 280.938 255.03 280.938 261.49C280.938 267.95 286.168 273.187 292.62 273.187Z" fill="black"/>
<path d="M293.412 271.599C299.864 271.599 305.094 266.362 305.094 259.902C305.094 253.443 299.864 248.206 293.412 248.206C286.96 248.206 281.73 253.443 281.73 259.902C281.73 266.362 286.96 271.599 293.412 271.599Z" fill="#FD8D1F"/>
<path d="M448.808 229.375C449.269 234.383 445.484 239.245 446.586 244.149C446.825 245.199 447.276 246.189 447.439 247.249C447.895 250.164 446.163 252.921 444.506 255.357L430.278 276.259C429.708 277.178 429.026 278.022 428.247 278.772C425.531 281.197 421.447 280.947 417.874 281.67C415.362 282.18 412.99 283.231 410.923 284.748C410.836 284.822 410.781 284.926 410.769 285.039C410.757 285.152 410.789 285.266 410.858 285.357C411.448 286.162 412.231 286.806 413.134 287.231C414.037 287.655 415.032 287.847 416.028 287.787C416.402 288.282 416.028 289.005 415.485 289.359C414.719 289.903 413.671 290.033 413.519 291.327C413.465 291.779 413.556 292.236 413.779 292.632C414.353 293.511 415.244 294.133 416.267 294.367C421.192 295.873 426.514 293.225 430.202 289.62C433.889 286.015 436.534 281.463 440.151 277.793C442.155 275.765 444.43 274.024 446.494 272.056C450.611 268.13 453.809 263.356 456.899 258.576C457.828 257.135 458.762 255.656 459.153 253.986C459.544 252.317 459.359 250.631 459.799 249.016C460.375 246.895 461.923 245.21 463.21 243.432C465.735 239.952 467.419 235.694 467.087 231.409C466.756 227.124 464.101 222.888 460.06 221.431C458.808 220.927 457.427 220.843 456.123 221.191C454.466 221.702 453.244 223.073 452.115 224.383L449.399 227.51C448.722 228.196 448.187 229.009 447.825 229.903C447.651 230.351 447.609 230.841 447.706 231.312C447.802 231.784 448.032 232.217 448.368 232.562" fill="#FBBEBE"/>
<path opacity="0.05" d="M448.808 229.375C449.269 234.383 445.484 239.245 446.586 244.149C446.825 245.199 447.276 246.189 447.439 247.249C447.895 250.164 446.163 252.921 444.506 255.357L430.278 276.259C429.708 277.178 429.026 278.022 428.247 278.772C425.531 281.197 421.447 280.947 417.874 281.67C415.362 282.18 412.99 283.231 410.923 284.748C410.836 284.822 410.781 284.926 410.769 285.039C410.757 285.152 410.789 285.266 410.858 285.357C411.448 286.162 412.231 286.806 413.134 287.231C414.037 287.655 415.032 287.847 416.028 287.787C416.402 288.282 416.028 289.005 415.485 289.359C414.719 289.903 413.671 290.033 413.519 291.327C413.465 291.779 413.556 292.236 413.779 292.632C414.353 293.511 415.244 294.133 416.267 294.367C421.192 295.873 426.514 293.225 430.202 289.62C433.889 286.015 436.534 281.463 440.151 277.793C442.155 275.765 444.43 274.024 446.494 272.056C450.611 268.13 453.809 263.356 456.899 258.576C457.828 257.135 458.762 255.656 459.153 253.986C459.544 252.317 459.359 250.631 459.799 249.016C460.375 246.895 461.923 245.21 463.21 243.432C465.735 239.952 467.419 235.694 467.087 231.409C466.756 227.124 464.101 222.888 460.06 221.431C458.808 220.927 457.427 220.843 456.123 221.191C454.466 221.702 453.244 223.073 452.115 224.383L449.399 227.51C448.722 228.196 448.187 229.009 447.825 229.903C447.651 230.351 447.609 230.841 447.706 231.312C447.802 231.784 448.032 232.217 448.368 232.562" fill="black"/>
<path d="M459.576 358.304C456.47 360.202 452.598 360.316 448.987 359.876C448.405 359.805 447.716 359.761 447.357 360.213C446.814 360.865 447.455 361.844 448.118 362.35C450.248 363.951 452.75 364.982 455.389 365.346C457.746 365.68 460.124 365.839 462.504 365.819C469.02 365.933 475.537 366.042 481.951 365.107C482.331 365.078 482.701 364.971 483.037 364.791C483.451 364.501 483.738 364.063 483.841 363.568C484.281 361.893 483.434 360.099 482.152 358.935C480.87 357.771 479.225 357.124 477.617 356.499L471.969 354.296C470.644 353.78 468.521 352.41 467.082 352.518C464.377 352.714 461.819 356.988 459.576 358.304Z" fill="#3F3D56"/>
<path opacity="0.05" d="M459.576 358.304C456.47 360.202 452.598 360.316 448.987 359.876C448.405 359.805 447.716 359.761 447.357 360.213C446.814 360.865 447.455 361.844 448.118 362.35C450.248 363.951 452.75 364.982 455.389 365.346C457.746 365.68 460.124 365.839 462.504 365.819C469.02 365.933 475.537 366.042 481.951 365.107C482.331 365.078 482.701 364.971 483.037 364.791C483.451 364.501 483.738 364.063 483.841 363.568C484.281 361.893 483.434 360.099 482.152 358.935C480.87 357.771 479.225 357.124 477.617 356.499L471.969 354.296C470.644 353.78 468.521 352.41 467.082 352.518C464.377 352.714 461.819 356.988 459.576 358.304Z" fill="black"/>
<path d="M463.536 283.23C461.184 286.362 458.751 289.979 459.332 293.856C459.647 295.944 460.815 297.787 461.673 299.718C462.835 302.339 463.443 305.155 464.041 307.961C464.92 312.061 465.806 316.172 466.343 320.337C466.957 325.041 464.073 338.652 463.807 343.388C463.742 344.53 463.606 345.764 462.813 346.585C462.504 346.912 462.091 347.173 461.95 347.597C461.867 348.006 461.934 348.43 462.14 348.793C463.465 351.784 466.175 354.013 469.2 355.286C472.225 356.558 479.518 358.755 482.815 358.869C483.249 358.917 483.689 358.859 484.096 358.701C484.535 358.433 484.88 358.036 485.085 357.564C487.447 353.04 485.177 336.955 485.21 331.849C485.242 327.591 486.247 323.361 486.062 319.109C485.91 315.694 484.976 312.355 484.667 308.951C484.123 303.372 485.144 297.765 486.171 292.251C486.953 288.021 487.74 283.79 488.745 279.614C489.359 277.064 490.07 274.492 491.46 272.279C492.547 270.522 494.073 269.054 495.338 267.385C498.85 262.774 500.411 256.966 499.683 251.213C499.607 250.669 491.536 253.263 490.825 253.573C487.922 254.804 485.251 256.523 482.929 258.657C481.061 260.441 479.589 262.822 477.954 264.818C475.641 267.642 473.356 270.486 471.101 273.35C468.526 276.623 466.005 279.917 463.536 283.23Z" fill="#464353"/>
<path opacity="0.05" d="M463.536 283.04C461.184 286.172 458.751 289.794 459.332 293.665C459.647 295.759 460.815 297.602 461.673 299.533C462.835 302.148 463.443 304.97 464.041 307.771C464.92 311.876 465.806 315.987 466.343 320.147C466.957 324.856 464.073 338.462 463.807 343.198C463.742 344.34 463.606 345.58 462.813 346.401C462.504 346.721 462.091 346.982 461.95 347.407C461.866 347.815 461.934 348.24 462.14 348.603C463.465 351.599 466.175 353.823 469.2 355.128C472.225 356.433 479.518 357.57 482.815 357.679C483.249 357.726 483.689 357.669 484.096 357.51C484.536 357.245 484.881 356.85 485.085 356.379C487.447 351.855 485.177 336.803 485.21 331.692C485.242 327.428 486.247 323.203 486.062 318.945C485.91 315.531 484.976 312.192 484.667 308.793C484.123 303.209 485.144 297.602 486.171 292.088C486.953 287.863 487.74 283.633 488.745 279.451C489.359 276.901 490.07 274.329 491.46 272.116C492.547 270.359 494.073 268.891 495.338 267.222C498.851 262.612 500.412 256.803 499.683 251.05C499.607 250.506 491.536 253.1 490.825 253.41C487.923 254.644 485.253 256.366 482.929 258.499C481.061 260.278 479.589 262.659 477.954 264.655C475.641 267.479 473.356 270.325 471.101 273.192C468.526 276.44 466.005 279.723 463.536 283.04Z" fill="black"/>
<path d="M437.37 214.247C444.65 214.247 450.551 208.338 450.551 201.05C450.551 193.761 444.65 187.852 437.37 187.852C430.091 187.852 424.19 193.761 424.19 201.05C424.19 208.338 430.091 214.247 437.37 214.247Z" fill="#FBBEBE"/>
<path d="M449.242 200.495C450.459 202.44 452.056 204.119 453.936 205.433C455.816 206.746 457.941 207.667 460.185 208.141L459.191 211.757C457.475 217.967 455.547 224.535 450.757 228.842C451.3 226.738 450.605 224.492 449.421 222.665C448.237 220.838 446.575 219.402 444.946 217.983L437.359 211.403C437.14 211.225 436.956 211.007 436.816 210.762C436.629 210.298 436.629 209.779 436.816 209.315C437.783 206.303 440.542 204.421 442.79 202.387C443.918 201.336 444.926 200.161 445.793 198.885C447.308 196.721 448.248 198.896 449.242 200.495Z" fill="#FBBEBE"/>
<path d="M420.008 187.782L419.71 185.302C421.79 185.846 423.766 184.073 425.097 182.241C426.427 180.408 427.66 178.249 429.686 177.483C432.146 176.558 434.753 178.026 437.104 179.266C439.737 180.729 442.626 181.67 445.614 182.039C446.091 182.055 446.564 182.132 447.021 182.268C448.552 182.812 449.28 184.736 449.503 186.482C449.725 188.228 449.666 190.082 450.42 191.637C450.963 192.817 451.974 193.692 452.593 194.856C454.222 197.977 452.647 202.246 454.347 205.307L450.122 201.43C449.736 201.077 449.193 200.707 448.764 201.006C448.427 201.245 448.4 201.762 448.264 202.175C447.857 203.383 446.347 203.741 445.256 203.263C444.164 202.784 443.366 201.746 442.54 200.8C440.672 198.592 438.446 196.651 435.839 195.71C434.696 195.282 433.476 195.103 432.259 195.183C431.041 195.264 429.855 195.603 428.779 196.177C426.808 197.292 425.363 199.891 422.946 199.984C419.634 200.109 418.254 193.932 416.723 191.49C417.283 191.068 417.677 190.462 417.836 189.778C417.995 189.094 417.908 188.375 417.592 187.749C417.814 187.657 419.959 187.401 420.008 187.782Z" fill="#464353"/>
<path d="M256.983 110.625C255.924 111.569 254.945 112.598 254.056 113.703C253.161 114.824 252.684 116.222 252.709 117.656C252.714 118.072 252.846 118.477 253.089 118.815C253.213 118.976 253.384 119.095 253.579 119.155C253.774 119.214 253.982 119.211 254.175 119.146C254.393 119.035 254.58 118.87 254.718 118.668C255.292 117.977 255.901 117.317 256.543 116.688C256.777 116.455 257.086 116.21 257.401 116.297C257.542 116.347 257.669 116.431 257.77 116.542C258.136 116.858 258.402 117.273 258.536 117.738C258.726 118.57 258.243 119.402 257.694 120.054C257.146 120.707 256.5 121.332 256.277 122.153C256.193 122.37 256.193 122.611 256.277 122.828C256.382 122.985 256.529 123.109 256.701 123.187C257.478 123.615 258.341 123.868 259.226 123.926C260.112 123.984 261 123.847 261.827 123.524C262.913 123.083 263.88 122.327 264.999 121.936C265.483 121.803 265.953 121.621 266.4 121.392C266.72 121.179 266.995 120.904 267.208 120.584C267.421 120.264 267.569 119.905 267.643 119.527C267.785 118.772 267.812 118.001 267.725 117.238C267.59 114.284 266.958 111.374 265.857 108.63C265.793 108.453 265.684 108.295 265.542 108.173C265.378 108.073 265.19 108.022 264.999 108.026C263.608 107.879 261.328 107.167 259.986 107.684C259.517 107.941 259.112 108.302 258.802 108.738C258.552 109.016 256.983 110.261 256.983 110.625Z" fill="#A1616A"/>
<path d="M256.543 109.397C256.543 108.07 254.914 104.867 257.504 104.655C257.504 103.236 255.5 102.355 255.875 100.848C255.994 100.348 256.418 99.9404 256.467 99.4292C256.63 97.9774 254.012 97.1889 254.447 95.7968C254.61 95.253 255.185 94.9377 255.31 94.3993C255.603 93.1432 253.361 92.5831 253.317 91.2944C253.317 90.8593 253.562 90.4515 253.54 90.0165C253.54 89.4727 253.067 89.0595 252.807 88.5864C252.128 87.3738 252.459 85.4977 251.221 84.8724C252.041 84.9431 252.307 83.725 251.97 82.98C251.634 82.2351 250.944 81.588 250.938 80.7615C250.979 80.4619 250.979 80.1583 250.938 79.8588C250.71 79.0649 249.412 78.9996 249.195 78.2275C249.167 77.9311 249.158 77.6332 249.168 77.3357C249.081 76.7212 248.451 76.3297 247.859 76.1557C247.244 76.0511 246.652 75.8395 246.111 75.5303C245.73 75.2421 245.291 74.7636 244.883 74.9866C244.731 75.079 244.655 75.253 244.541 75.3835C244.052 75.9545 243.118 75.7043 242.505 75.2856C240.691 74.0513 239.789 71.8381 239.404 69.6793C239.018 67.5205 239.029 65.2911 238.546 63.154C238.398 62.488 238.202 61.8337 237.959 61.1965C237.753 60.6527 237.09 59.7989 237.047 59.2497C236.949 57.9991 239.534 58.8528 240.517 58.9778C241.471 59.0712 242.415 59.2532 243.335 59.5216C244.318 59.8933 245.281 60.3163 246.219 60.7886C250.14 62.5233 254.876 62.7353 258.026 65.65C259.063 66.607 259.937 67.8631 261.284 68.2981C261.902 68.4167 262.511 68.5747 263.109 68.7712C264.602 69.4727 264.836 71.4575 265.65 72.893C265.906 73.2721 266.13 73.6724 266.318 74.0893C266.475 74.5811 266.549 75.0958 266.536 75.6119L266.65 79.3803C266.834 85.6935 267.019 92.023 266.346 98.2982C266.128 100.37 265.802 102.502 266.416 104.492C266.579 105.036 266.807 105.547 266.959 106.096C267.094 106.74 267.163 107.396 267.166 108.054L267.252 110.495C267.283 110.685 267.24 110.879 267.133 111.039C267.042 111.113 266.936 111.165 266.822 111.192C266.709 111.22 266.59 111.221 266.476 111.197C263.082 110.892 259.649 108.978 256.445 110.136" fill="#464353"/>
<path d="M411.439 296.999C433.622 296.999 451.604 294.396 451.604 291.186C451.604 287.975 433.622 285.373 411.439 285.373C389.256 285.373 371.273 287.975 371.273 291.186C371.273 294.396 389.256 296.999 411.439 296.999Z" fill="#504F60"/>
<path d="M445.994 291.469C445.288 288.44 444.849 285.781 444.849 285.781C444.849 285.781 445.011 282.485 443.534 280.011V279.185V273.095C443.955 271.989 444.469 270.921 445.071 269.903C446.157 267.988 445.071 260.974 445.071 260.974C445.071 260.974 441.014 251.083 441.997 244.807C442.98 238.532 433.667 216.944 433.667 216.944C433.724 214.862 434.017 212.794 434.541 210.778C434.64 210.354 434.681 209.919 434.66 209.484C434.66 209.429 434.66 209.38 434.66 209.326C434.66 209.272 434.66 209.359 434.66 209.375C434.519 205.237 431.25 197.483 431.25 197.483L431.69 182.703C431.69 182.703 433.775 174.002 430.376 162.284C429.186 158.2 428.426 154.932 427.943 152.409C427.888 152.126 427.834 151.865 427.791 151.588C434.791 150.501 440.14 149.631 440.14 149.631C440.14 149.631 436.078 132.616 433.335 129.636C430.593 126.656 428.399 117.298 428.399 117.298C428.399 117.298 426.97 105.286 429.279 101.773C431.587 98.2601 431.912 92.2025 431.912 92.2025C431.912 92.2025 437.175 88.396 437.837 86.6723C438.5 84.9485 439.592 81.1421 439.592 79.1247C439.592 77.1073 438.934 75.3183 439.152 74.2307C439.369 73.1432 437.615 69.1247 438.495 67.2106C438.722 66.6226 438.84 65.9978 438.842 65.3672C438.844 65.3491 438.844 65.3309 438.842 65.3128C438.85 63.6378 438.696 61.966 438.381 60.321C436.858 59.0339 435.082 58.0833 433.167 57.5314L433.053 57.0746L432.754 55.8783C432.588 55.768 432.415 55.6663 432.238 55.5738V55.1388L432.189 53.4096L433.015 49.527C434.644 42.7734 425.635 41.7674 425.635 41.7674C425.088 40.7314 424.179 39.9337 423.082 39.527C421.274 38.8908 422.783 49.6847 423.625 50.4025C424.261 50.9463 426.226 54.3068 427.177 55.9708L427.329 56.2427C427.18 56.3766 427.042 56.522 426.916 56.6777L427.258 59.0214L427.313 59.3802C426.716 60.1227 426.231 60.949 425.874 61.8327C425.874 61.8327 427.503 63.638 427.193 65.6391C426.884 67.6402 427.698 70.1796 427.736 70.3155C427.639 70.2014 426.482 68.9507 425.325 69.2552C424.168 69.5597 420.937 70.5331 420.937 70.5331C420.937 70.5331 418.526 70.9572 418.765 71.4901C419.004 72.023 417.135 74.3612 417.135 74.3612L410.651 68.2057C410.586 68.0208 410.515 67.8359 410.461 67.6619C410.196 66.7744 410.015 65.8642 409.918 64.9431C410.625 64.7749 411.318 64.555 411.993 64.2851C412.674 64.0509 413.289 63.6554 413.785 63.1323C414.442 62.3547 414.567 61.2998 414.833 60.3318C415.343 58.4395 416.462 56.7593 417.239 54.9594C418.554 51.9179 418.978 48.5646 418.461 45.291C418.361 44.2822 418.02 43.3123 417.467 42.4634C416.408 41.0061 414.485 40.4134 413.09 39.2497C411.694 38.086 410.792 36.3079 409.163 35.4433C407.691 34.6548 405.905 34.7473 404.243 35.0191C400.997 35.555 397.879 36.6909 395.049 38.3688C394.104 38.9126 393.061 39.5814 391.975 39.3802C391.041 39.2116 390.346 38.4667 389.759 37.7489C389.766 37.7192 389.775 37.6901 389.786 37.6619C389.76 37.6354 389.736 37.6062 389.716 37.5749C389.028 39.102 388.684 40.7614 388.706 42.4362C388.706 42.6972 388.706 42.98 388.738 43.2138V43.4857C388.738 43.5618 388.738 43.638 388.738 43.7087C388.738 43.8246 388.721 43.9399 388.689 44.0512C388.552 44.3839 388.345 44.6826 388.081 44.9267C387.882 45.1534 387.7 45.3952 387.538 45.6499C387.538 45.5629 387.592 45.4759 387.625 45.3835C387.211 45.989 386.977 46.7 386.951 47.4335C386.921 47.9675 387.096 48.4928 387.44 48.9017C387.765 49.2178 388.12 49.5019 388.499 49.75C388.37 50.4678 388.305 51.1957 388.304 51.9251C388.316 54.0874 388.885 56.21 389.956 58.0876C391.028 59.9651 392.565 61.5341 394.419 62.6429C394.495 62.8223 394.565 63.0072 394.636 63.1867C395.467 65.3618 396.091 67.9175 395.814 70.2557C395.814 70.4243 395.765 70.5983 395.738 70.7669C395.711 70.9354 395.575 70.9463 395.505 71.0388C395.505 71.0388 384.79 71.1475 382.27 68.8637C379.75 66.5798 375.905 74.4482 375.905 74.4482C375.905 74.4482 372.066 75.1932 371.295 74.4482C370.523 73.7033 366.032 74.3449 366.032 74.3449C364.192 72.7064 361.798 71.8314 359.336 71.8979C357.845 70.763 356.199 69.8475 354.448 69.1791L354.329 69.1356C353.556 68.8536 352.73 68.7495 351.912 68.831C351.912 68.831 346.644 64.4809 345.107 62.1317C343.571 59.7826 336.255 51.1094 336.223 51.0714V50.6527L336.141 49.3911C335.924 49.4252 335.704 49.4434 335.484 49.4455C335.446 49.3204 335.392 49.1736 335.338 49.005C334.916 47.7745 334.397 46.5798 333.784 45.4324C333.784 45.4324 333.784 43.8392 334.246 43.4368C334.708 43.0344 334.056 37.1888 334.056 37.1888C334.056 37.1888 329.309 26.0795 325.057 34.3721C325.057 34.3721 317.02 39.7391 323.765 45.9925C323.765 45.9925 326.48 47.2976 326.838 48.3307C327.088 48.9996 328.001 50.8756 328.614 52.1372L328.891 52.6809L328.815 52.7462L328.913 53.7902L328.956 54.1926C327.686 54.9159 326.822 55.6336 327.034 56.172C327.408 57.0932 327.665 58.0578 327.8 59.0431C327.8 59.0431 337.13 70.7451 338.335 75.7424C338.335 75.7424 363.355 90.631 371.582 91.6913L370.127 99.1138C369.915 101.128 369.806 103.152 369.801 105.177C369.91 106.77 368.813 114.002 368.813 114.002C368.813 114.002 367.384 124.639 366.179 126.129C364.973 127.619 365.19 133.997 365.19 133.997C364.906 137.051 364.361 140.074 363.561 143.035C362.356 147.075 363.23 152.077 363.23 152.077C363.23 152.077 359.065 161.648 369.046 155.161C369.046 155.161 373.934 154.856 379.593 154.66C379.593 154.845 379.593 155.036 379.593 155.204C379.593 155.933 379.593 156.721 379.555 157.548C379.479 163.029 379.446 170.598 379.696 176.297C380.136 186.401 383.21 206.395 383.21 206.395V216.46C383.011 217.404 382.913 218.367 382.916 219.332C382.851 222.873 383.793 226.36 385.632 229.386L386.403 236.085C386.403 236.085 388.206 240.501 388.238 243.154C388.231 243.368 388.206 243.581 388.162 243.791C388.092 244.128 388.063 244.473 388.076 244.818C387.972 247.863 389.802 255.15 389.802 255.15C389.802 255.15 389.911 262.485 391.008 262.915C391.948 263.279 389.754 267.14 389.102 268.249C389.085 268.182 389.072 268.113 389.064 268.043L388.928 268.26C388.702 268.854 388.586 269.484 388.586 270.12C388.524 270.621 388.606 271.129 388.821 271.585C389.036 272.042 389.377 272.427 389.802 272.698C391.888 273.975 393.007 275.036 391.236 275.46C390.585 275.561 389.94 275.697 389.303 275.868C389.303 275.786 389.238 275.699 389.211 275.623C388.961 275.721 388.752 275.902 388.621 276.136C388.489 276.37 388.442 276.642 388.488 276.906C388.505 277.769 388.727 278.615 389.135 279.375C390.889 283.312 392.105 284.813 392.105 284.813L392.947 284.72C392.823 285.042 392.658 285.348 392.458 285.629C392.138 286.085 391.713 286.457 391.22 286.716C390.76 286.992 390.248 287.168 389.716 287.233C389.121 287.252 388.537 287.397 388.002 287.657C387.466 287.918 386.992 288.288 386.609 288.744C385.523 290.164 384.828 292.094 386.989 293.791L394.837 296.509C394.837 296.509 408.338 298.266 407.621 295.232C406.904 292.197 406.469 289.544 406.469 289.544C406.527 287.691 406.156 285.85 405.383 284.166C405.242 283.891 405.082 283.626 404.905 283.372L405.383 283.323C405.383 283.323 406.372 276.618 407.686 275.346C407.99 275.052 408.061 274.802 407.99 274.65C408.126 274.285 407.778 274.073 407.338 273.948L407.241 274.215C406.811 274.121 406.372 274.072 405.932 274.068C405.932 274.068 405.492 270.561 406.92 269.283C407.035 269.137 407.12 268.969 407.167 268.789C407.215 268.61 407.225 268.422 407.197 268.239C407.208 267.757 407.157 267.277 407.045 266.808C407.031 266.839 407.015 266.868 406.996 266.895C406.279 263.709 403.846 258.646 403.846 258.646C403.846 258.646 403.738 255.46 404.618 254.182C405.497 252.904 404.504 236.846 404.504 236.846C404.504 236.846 404.835 229.087 403.846 225.471C402.858 221.855 405.052 217.597 405.052 217.597C405.052 217.597 405.052 217.515 405.052 217.368V217.314L404.927 216.091C404.924 216.116 404.924 216.141 404.927 216.167C404.704 214.111 404.286 210.386 403.977 208.668C403.537 206.221 404.091 194.53 404.091 194.53L406.062 189.527L409.576 198.146L413.307 209.631C413.307 209.631 415.153 212.056 415.197 214.525C415.197 214.644 415.197 214.764 415.197 214.883C415.167 215.138 415.152 215.394 415.153 215.65C415.087 217.101 415.485 218.536 416.288 219.745C416.288 219.745 417.277 225.183 418.814 226.547C420.35 227.912 420.35 230.588 420.35 230.588C420.35 230.588 422.213 238.462 423.066 239.832C423.804 240.996 423.842 244.182 423.837 245.177C423.837 245.357 423.837 245.46 423.837 245.46C423.837 245.46 424.098 248.277 424.087 250.637C424.087 250.93 424.087 251.213 424.087 251.479C424.089 251.46 424.089 251.44 424.087 251.42C424.086 252.064 424.01 252.707 423.859 253.334L423.826 253.443C423.826 253.307 423.826 253.176 423.864 253.046C423.482 254.648 423.3 256.292 423.321 257.94C423.272 260.767 423.701 264.117 425.412 266.096C428.377 269.5 430.24 269.076 430.24 269.076C430.24 269.076 428.817 273.328 427.057 274.182C426.991 274.214 426.929 274.254 426.873 274.302C426.873 274.215 426.84 274.133 426.829 274.052C426.633 274.264 426.484 274.514 426.39 274.788C426.296 275.061 426.261 275.351 426.286 275.639C426.161 277.51 427.34 280.533 428.459 281.942C428.874 282.349 429.383 282.648 429.941 282.812C429.853 282.874 429.76 282.931 429.664 282.98C429.469 283.088 429.268 283.184 429.061 283.269C428.776 283.39 428.474 283.469 428.165 283.502C427.57 283.518 426.985 283.661 426.449 283.922C425.913 284.183 425.439 284.555 425.059 285.014C423.973 286.428 423.278 288.358 425.439 290.055L433.286 292.774C433.286 292.774 446.7 294.497 445.994 291.469Z" fill="url(#paint0_linear)"/>
<path d="M394.451 296.493L386.848 293.774C384.752 292.078 385.42 290.147 386.479 288.728C386.843 288.275 387.3 287.906 387.819 287.645C388.338 287.385 388.907 287.238 389.487 287.216C390.002 287.151 390.497 286.974 390.937 286.7C391.419 286.437 391.832 286.065 392.143 285.612C392.698 284.731 392.997 283.712 393.007 282.67C393.007 282.67 401.348 280.223 403.629 282.67C404.036 283.113 404.376 283.613 404.639 284.155C405.397 285.844 405.768 287.681 405.725 289.533C405.725 289.533 406.149 292.186 406.839 295.221C407.528 298.255 394.451 296.493 394.451 296.493Z" fill="#2D293D"/>
<path d="M431.619 292.741L424.016 290.022C421.92 288.326 422.588 286.395 423.647 284.981C424.008 284.527 424.464 284.156 424.983 283.896C425.501 283.635 426.07 283.489 426.65 283.47C426.95 283.439 427.244 283.36 427.519 283.236C427.72 283.151 427.915 283.055 428.105 282.948C430.229 281.778 430.174 278.907 430.174 278.907C430.174 278.907 438.511 276.46 440.797 278.907C441.103 279.239 441.371 279.604 441.595 279.995C443.024 282.469 442.866 285.77 442.866 285.77C442.866 285.77 443.29 288.429 443.952 291.458C444.615 294.486 431.619 292.741 431.619 292.741Z" fill="#2D293D"/>
<path opacity="0.1" d="M403.634 282.665C404.042 283.108 404.382 283.608 404.645 284.149L392.154 285.601C392.709 284.72 393.008 283.701 393.017 282.659C393.017 282.659 401.354 280.218 403.634 282.665Z" fill="black"/>
<path opacity="0.1" d="M441.606 280.006V282.35C439.662 285.552 430.261 284.851 427.53 283.247C427.731 283.162 427.926 283.066 428.116 282.959C430.24 281.79 430.185 278.918 430.185 278.918C430.185 278.918 438.522 276.471 440.808 278.918C441.114 279.25 441.382 279.615 441.606 280.006Z" fill="black"/>
<path d="M443.089 269.903C442.508 270.924 442.012 271.991 441.606 273.094V281.496C439.477 285.003 428.437 283.834 426.943 281.92C425.45 280.006 423.891 275.025 425.569 274.16C427.247 273.296 428.649 269.054 428.649 269.054C428.649 269.054 426.84 269.478 423.973 266.074C421.105 262.67 421.958 255.123 422.49 253.317C423.022 251.512 422.49 245.449 422.49 245.449C422.49 245.449 422.599 241.191 421.751 239.81C420.904 238.429 419.096 230.566 419.096 230.566C419.096 230.566 419.096 227.907 417.608 226.526C416.12 225.144 415.164 219.718 415.164 219.718C414.294 218.361 413.92 216.746 414.105 215.144C414.42 212.485 412.297 209.614 412.297 209.614L408.685 198.124L405.285 189.511L403.374 194.508C403.374 194.508 402.831 206.205 403.271 208.646C403.711 211.088 404.357 217.581 404.357 217.581C404.357 217.581 402.233 221.833 403.189 225.449C404.145 229.065 403.797 236.836 403.797 236.836C403.797 236.836 404.753 252.888 403.901 254.166C403.048 255.444 403.157 258.635 403.157 258.635C403.157 258.635 407.501 267.988 406.133 269.266C404.764 270.544 405.177 274.052 405.177 274.052C405.177 274.052 408.147 274.052 406.877 275.329C405.606 276.607 404.645 283.307 404.645 283.307L391.801 284.813C391.801 284.813 390.628 283.328 388.928 279.375C387.228 275.422 389.243 275.868 390.954 275.438C392.664 275.009 391.584 273.954 389.563 272.676C387.543 271.398 388.716 268.527 388.716 268.527C388.716 268.527 391.795 263.317 390.731 262.893C389.667 262.469 389.563 255.128 389.563 255.128C389.563 255.128 387.44 246.428 387.972 244.068C388.504 241.708 386.272 236.096 386.272 236.096L385.528 229.397C383.256 225.595 382.427 221.101 383.193 216.738V206.406C383.193 206.406 380.217 186.417 379.793 176.313C379.522 169.843 379.598 161.012 379.685 155.503C379.739 152.415 379.793 150.365 379.793 150.365L425.672 145.579C425.672 145.579 425.629 147.7 426.503 152.404C426.976 154.927 427.709 158.195 428.86 162.279C432.151 173.975 430.137 182.692 430.137 182.692L429.708 197.477C429.708 197.477 433.743 207.363 432.895 210.767C432.383 212.788 432.096 214.86 432.037 216.944C432.037 216.944 441.063 238.532 440.107 244.807C439.152 251.082 443.078 260.974 443.078 260.974C443.078 260.974 444.153 267.988 443.089 269.903Z" fill="#464353"/>
<path opacity="0.05" d="M416.858 214.503L430.826 212.638C430.826 212.638 422.914 220.724 416.858 214.503Z" fill="black"/>
<path opacity="0.1" d="M428.806 198.973C428.806 198.973 429.284 203.921 426.259 205.781C426.259 205.781 431.674 204.932 428.806 198.973Z" fill="black"/>
<path opacity="0.1" d="M427.948 183.236C427.948 183.236 416.272 192.861 412.025 192.061C407.778 191.262 427.948 183.236 427.948 183.236Z" fill="black"/>
<path opacity="0.1" d="M399.545 219.016C399.545 219.016 390.677 221.034 390.411 224.601C390.145 228.168 399.545 219.016 399.545 219.016Z" fill="black"/>
<path opacity="0.05" d="M401.495 263.366C401.495 263.366 388.966 265.704 392.523 267.298C396.08 268.891 401.924 270.169 401.924 270.169C401.924 270.169 405.97 270.381 401.495 263.366Z" fill="black"/>
<g opacity="0.05">
<path opacity="0.05" d="M389.992 269.832C389.677 269.635 389.411 269.369 389.212 269.055C389.014 268.74 388.889 268.385 388.846 268.016L388.716 268.239C388.716 268.239 387.548 271.11 389.569 272.382C389.797 272.529 390.019 272.676 390.22 272.817C390.595 272.746 390.997 272.692 391.383 272.594C393.093 272.17 392.012 271.11 389.992 269.832Z" fill="black"/>
<path opacity="0.05" d="M406.132 268.978C406.48 268.663 406.469 267.847 406.257 266.803C405.714 267.624 405.557 268.908 405.546 269.881C405.678 269.543 405.877 269.236 406.132 268.978Z" fill="black"/>
<path opacity="0.05" d="M404.205 216.074C403.743 217.332 403.458 218.648 403.357 219.984C403.6 219.061 403.925 218.162 404.33 217.298L404.205 216.074Z" fill="black"/>
<path opacity="0.05" d="M432.901 210.495C432.984 210.113 433.023 209.723 433.015 209.332C432.858 210.125 432.749 210.86 432.667 211.507C432.738 211.175 432.814 210.86 432.901 210.495Z" fill="black"/>
<path opacity="0.05" d="M403.906 253.883C404.08 253.622 404.178 252.741 404.221 251.518C403.828 252.464 403.62 253.478 403.607 254.503C403.682 254.285 403.782 254.077 403.906 253.883Z" fill="black"/>
<path opacity="0.05" d="M406.513 273.937C405.854 276.07 405.366 278.252 405.052 280.463L392.208 281.947C392.208 281.947 391.035 280.463 389.335 276.509C389.198 276.204 389.077 275.892 388.971 275.574C388.2 275.927 387.885 276.727 388.906 279.06C390.606 282.997 391.784 284.497 391.784 284.497L404.628 283.007C404.628 283.007 405.584 276.308 406.855 275.03C407.506 274.416 407.105 274.095 406.513 273.937Z" fill="black"/>
<path opacity="0.05" d="M389.569 254.84C389.569 254.84 389.672 262.176 390.736 262.6C391.28 261.387 391.633 260.234 391.155 260.044C390.068 259.62 389.987 252.279 389.987 252.279C389.987 252.279 387.864 243.579 388.396 241.219C388.928 238.859 386.696 233.247 386.696 233.247L385.952 226.547C383.68 222.746 382.851 218.252 383.617 213.888V203.557C383.617 203.557 380.641 183.568 380.217 173.464C379.946 166.993 380.022 158.162 380.108 152.654C380.108 151.659 380.141 150.778 380.157 150.033L379.793 150.071C379.793 150.071 379.734 152.116 379.685 155.21C379.598 160.718 379.517 169.549 379.793 176.015C380.217 186.118 383.188 206.112 383.188 206.112V216.444C382.425 220.807 383.256 225.298 385.528 229.098L386.267 235.797C386.267 235.797 388.499 241.431 387.967 243.774C387.435 246.118 389.569 254.84 389.569 254.84Z" fill="black"/>
<path opacity="0.05" d="M427.378 279.081C426.334 277.569 425.639 275.844 425.341 274.03C424.032 275.215 425.537 279.816 426.97 281.643C428.453 283.557 439.499 284.726 441.633 281.213V279.19C438.739 282.034 428.779 280.892 427.378 279.081Z" fill="black"/>
<path opacity="0.05" d="M443.518 267.064C442.935 268.086 442.438 269.153 442.03 270.256V271.762C442.274 271.219 442.616 270.49 443.116 269.631C443.452 268.793 443.611 267.895 443.583 266.993C443.583 266.993 443.534 267.042 443.518 267.064Z" fill="black"/>
<path opacity="0.05" d="M428.03 268.744C428.434 267.925 428.784 267.081 429.078 266.216C429.078 266.216 427.269 266.64 424.402 263.236C422.316 260.762 422.197 256.085 422.496 253.029C421.953 254.84 421.111 262.388 423.978 265.792C425.852 268.016 427.269 268.603 428.03 268.744Z" fill="black"/>
<path opacity="0.05" d="M422.49 245.161C422.678 247.256 422.748 249.36 422.702 251.463C422.755 251.131 422.828 250.802 422.919 250.479C423.462 248.668 422.919 242.611 422.919 242.611C422.919 242.611 423.028 238.353 422.175 236.972C421.323 235.59 419.547 227.717 419.547 227.717C419.547 227.717 419.547 225.057 418.059 223.676C416.571 222.295 415.615 216.868 415.615 216.868C414.737 215.515 414.353 213.899 414.529 212.295C414.849 209.636 412.726 206.765 412.726 206.765L409.114 195.28L405.715 186.667L403.798 191.67C403.798 191.67 403.798 192.3 403.732 193.301L405.286 189.239L408.685 197.836L412.297 209.321C412.297 209.321 414.42 212.192 414.1 214.851C413.924 216.455 414.308 218.071 415.186 219.424C415.186 219.424 416.142 224.862 417.63 226.232C419.118 227.602 419.112 230.272 419.112 230.272C419.112 230.272 420.921 238.141 421.768 239.516C422.615 240.892 422.49 245.161 422.49 245.161Z" fill="black"/>
</g>
<path d="M431.407 49.5108L430.609 53.3933L430.658 55.1225L430.69 56.395L426.259 56.8517L425.765 55.9327C424.847 54.2688 422.941 50.8865 422.327 50.3645C421.507 49.6793 420.046 38.88 421.784 39.5216C422.854 39.9353 423.732 40.7317 424.249 41.7565C424.249 41.7565 432.977 42.7571 431.407 49.5108Z" fill="#FFCDD3"/>
<path opacity="0.1" d="M430.69 56.3948L426.259 56.8516L425.765 55.9326C426.361 55.2531 427.174 54.8016 428.065 54.6548C428.956 54.5081 429.87 54.6752 430.652 55.1278L430.69 56.3948Z" fill="black"/>
<path d="M431.809 58.4992L425.966 59.8532L425.841 58.9832L425.51 56.6395C425.51 56.6395 427.823 53.5509 431.169 55.8674L431.462 57.0582L431.809 58.4992Z" fill="#6C63FF"/>
<path d="M337.152 49.9347L330.912 53.2844L330.369 52.1098C329.777 50.8646 328.891 48.9886 328.647 48.3034C328.278 47.2702 325.676 45.9652 325.676 45.9652C319.159 39.7172 326.925 34.3447 326.925 34.3447C331.042 26.0521 335.615 37.1615 335.615 37.1615C335.615 37.1615 336.255 43.0179 335.805 43.4094C335.354 43.8009 335.354 45.4051 335.354 45.4051C335.949 46.5544 336.452 47.749 336.858 48.9777C337.048 49.5704 337.152 49.9347 337.152 49.9347Z" fill="#FFCDD3"/>
<path opacity="0.1" d="M337.151 49.9348L330.911 53.2845L330.368 52.1099C331.248 51.3704 334.371 48.8473 335.397 48.9506C335.887 49.0118 336.382 49.0246 336.874 48.9887C337.048 49.5705 337.151 49.9348 337.151 49.9348Z" fill="black"/>
<path d="M337.787 51.8216L330.776 55.2801L330.634 53.7738L330.537 52.7297C330.537 52.7297 334.599 49.2442 335.799 49.3801C336.406 49.4681 337.022 49.4681 337.629 49.3801L337.711 50.6417L337.787 51.8216Z" fill="#6C63FF"/>
<path d="M414.415 75.302C414.415 75.302 383.851 78.755 389.564 76.8953C393.539 75.5956 395.119 73.0888 395.451 70.2612C395.722 67.9067 395.114 65.3672 394.316 63.1921C393.597 61.2625 392.688 59.4099 391.6 57.662C391.6 57.662 414.952 44.7962 410.287 56.4928C409.568 58.262 409.121 60.1303 408.962 62.0339C408.822 63.9256 409.026 65.8271 409.565 67.6456C410.446 70.5965 412.124 73.2461 414.415 75.302Z" fill="#FFCDD3"/>
<path opacity="0.1" d="M410.271 56.4765C409.552 58.2456 409.105 60.114 408.946 62.0175C406.746 63.8718 404.335 63.7467 401.234 63.7467C398.856 63.7467 396.216 64.3231 394.315 63.1758C393.597 61.2462 392.687 59.3935 391.6 57.6456C391.6 57.6456 414.947 44.7799 410.271 56.4765Z" fill="black"/>
<path d="M400.821 64.5624C407.801 64.5624 413.459 58.8972 413.459 51.9088C413.459 44.9204 407.801 39.2551 400.821 39.2551C393.842 39.2551 388.184 44.9204 388.184 51.9088C388.184 58.8972 393.842 64.5624 400.821 64.5624Z" fill="#FFCDD3"/>
<path opacity="0.1" d="M414.415 75.3019C414.415 75.3019 383.851 78.7549 389.564 76.8952C393.539 75.5956 395.119 73.0888 395.451 70.2612C396.971 68.6298 400.029 67.4172 401.968 66.7864C403.76 66.1829 405.695 66.1506 407.507 66.694C408.219 66.9089 408.898 67.2238 409.522 67.6293C410.412 70.591 412.106 73.2471 414.415 75.3019Z" fill="black"/>
<path opacity="0.1" d="M431.809 58.4994L425.966 59.8534L425.841 58.9834C426.466 58.1228 427.342 57.4763 428.348 57.1319C429.353 56.7874 430.441 56.7617 431.462 57.0584L431.809 58.4994Z" fill="black"/>
<path opacity="0.1" d="M337.787 51.8217L330.776 55.2801L330.635 53.7738C332.906 52.5512 335.266 51.5024 337.695 50.6362L337.787 51.8217Z" fill="black"/>
<path opacity="0.1" d="M426.504 152.414C414.659 154.307 397.824 156.721 395.152 155.906C392.931 155.231 385.849 155.302 379.685 155.514C379.739 152.425 379.794 150.375 379.794 150.375L425.673 145.59C425.673 145.59 425.629 147.711 426.504 152.414Z" fill="black"/>
<path d="M438.31 149.63C438.31 149.63 399.334 156.33 395.152 155.068C390.97 153.807 369.492 155.171 369.492 155.171C359.825 161.659 363.86 152.088 363.86 152.088C363.86 152.088 363.013 147.091 364.18 143.051C364.965 140.084 365.5 137.058 365.782 134.002C365.782 134.002 365.571 127.618 366.738 126.128C367.906 124.639 369.291 114.008 369.291 114.008C369.291 114.008 370.35 106.776 370.246 105.182C370.143 103.589 370.561 99.1192 370.561 99.1192L371.946 91.6749C363.979 90.6145 339.764 75.726 339.764 75.726C338.596 70.7287 329.57 59.0321 329.57 59.0321C329.439 58.0485 329.189 57.0845 328.826 56.161C328.191 54.459 337.749 51.0549 337.749 51.0549C337.749 51.0549 344.863 59.7553 346.351 62.1153C347.839 64.4753 352.933 68.8146 352.933 68.8146C353.725 68.7331 354.524 68.8374 355.269 69.1191L355.393 69.1572C357.101 69.8282 358.701 70.7441 360.145 71.8761C362.54 71.8192 364.863 72.6966 366.624 74.323C366.624 74.323 370.969 73.6814 371.724 74.4264C372.479 75.1713 376.182 74.4264 376.182 74.4264C376.182 74.4264 379.897 66.5579 382.341 68.8418C384.785 71.1257 395.152 71.0169 395.152 71.0169C396.531 69.1789 399.893 67.863 401.995 67.2105C403.788 66.6094 405.722 66.5771 407.534 67.118C408.316 67.3516 409.051 67.7196 409.706 68.2056L416.011 74.372C416.011 74.372 417.814 72.0283 417.603 71.5009C417.391 70.9734 419.726 70.5438 419.726 70.5438C419.726 70.5438 422.805 69.5868 423.973 69.2659C425.14 68.9451 426.21 70.2121 426.308 70.3263C426.27 70.1904 425.472 67.6074 425.765 65.6498C426.058 63.6923 424.489 61.8434 424.489 61.8434C428.203 52.6971 436.594 60.3535 436.594 60.3535C436.594 60.3535 437.55 65.3508 436.703 67.2648C435.855 69.1789 437.55 73.2192 437.338 74.285C437.126 75.3508 437.767 77.1561 437.767 79.179C437.767 81.2018 436.681 85.0245 436.067 86.7265C435.453 88.4286 430.332 92.2567 430.332 92.2567C430.332 92.2567 430.012 98.3198 427.78 101.827C425.548 105.335 426.949 117.33 426.949 117.33C426.949 117.33 429.072 126.689 431.728 129.668C434.384 132.648 438.31 149.63 438.31 149.63Z" fill="#3F3D56"/>
<path opacity="0.1" d="M381.493 79.6575C381.493 79.6575 380.326 76.1502 379.261 75.8511C378.205 75.4619 377.176 75.0004 376.182 74.4699L376.866 73.1594C376.866 73.1594 380.853 74.247 381.493 75.427C382.134 76.607 381.493 79.6575 381.493 79.6575Z" fill="black"/>
<path opacity="0.1" d="M360.145 71.8978C359.933 72.9854 350.479 73.9152 350.479 73.9152L355.258 69.1191L355.377 69.1626C357.091 69.8373 358.697 70.7587 360.145 71.8978Z" fill="black"/>
<path d="M332.796 58.1512C333.264 58.1512 333.643 57.7714 333.643 57.3029C333.643 56.8344 333.264 56.4546 332.796 56.4546C332.328 56.4546 331.949 56.8344 331.949 57.3029C331.949 57.7714 332.328 58.1512 332.796 58.1512Z" fill="#575988"/>
<path d="M333.882 59.8533C334.35 59.8533 334.729 59.4735 334.729 59.005C334.729 58.5365 334.35 58.1567 333.882 58.1567C333.414 58.1567 333.035 58.5365 333.035 59.005C333.035 59.4735 333.414 59.8533 333.882 59.8533Z" fill="#575988"/>
<path d="M334.946 61.4248C335.414 61.4248 335.793 61.0451 335.793 60.5766C335.793 60.1081 335.414 59.7283 334.946 59.7283C334.478 59.7283 334.099 60.1081 334.099 60.5766C334.099 61.0451 334.478 61.4248 334.946 61.4248Z" fill="#575988"/>
<path d="M336.06 63.1214C336.528 63.1214 336.907 62.7416 336.907 62.2731C336.907 61.8046 336.528 61.4248 336.06 61.4248C335.592 61.4248 335.213 61.8046 335.213 62.2731C335.213 62.7416 335.592 63.1214 336.06 63.1214Z" fill="#575988"/>
<path d="M436.17 62.8712C436.551 62.8712 436.86 62.562 436.86 62.1806C436.86 61.7992 436.551 61.49 436.17 61.49C435.789 61.49 435.48 61.7992 435.48 62.1806C435.48 62.562 435.789 62.8712 436.17 62.8712Z" fill="#575988"/>
<path d="M436.279 64.4427C436.659 64.4427 436.968 64.1335 436.968 63.7521C436.968 63.3707 436.659 63.0615 436.279 63.0615C435.898 63.0615 435.589 63.3707 435.589 63.7521C435.589 64.1335 435.898 64.4427 436.279 64.4427Z" fill="#575988"/>
<path d="M436.371 66.0086C436.752 66.0086 437.061 65.6994 437.061 65.318C437.061 64.9366 436.752 64.6274 436.371 64.6274C435.99 64.6274 435.682 64.9366 435.682 65.318C435.682 65.6994 435.99 66.0086 436.371 66.0086Z" fill="#575988"/>
<path opacity="0.1" d="M381.532 108.478C381.428 108.353 405.373 138.625 423.957 121.131C423.973 121.137 394.609 125.123 381.532 108.478Z" fill="black"/>
<path opacity="0.1" d="M367.792 124.214C367.792 124.214 382.118 124.606 383.617 128.733V133.029C383.209 133.256 382.75 133.374 382.283 133.374C381.817 133.374 381.358 133.256 380.95 133.029C379.506 132.246 370.844 127.841 367.792 129.962V124.214Z" fill="black"/>
<path d="M368.058 124.214C368.058 124.214 381.759 124.59 383.193 128.526V132.616C382.803 132.833 382.363 132.947 381.917 132.947C381.47 132.947 381.031 132.833 380.641 132.616C379.261 131.876 370.979 127.673 368.058 129.696V124.214Z" fill="#3F3D56"/>
<path opacity="0.1" d="M375.612 93.0671C377.075 96.4594 378.941 99.6634 381.167 102.61C383.589 105.868 386.524 108.709 389.857 111.023C389.857 111.023 375.851 95.0356 375.612 93.0671Z" fill="black"/>
<path opacity="0.1" d="M370.925 76.4004C370.925 76.4004 373.315 86.7321 379.473 90.2394L370.925 76.4004Z" fill="black"/>
<path opacity="0.1" d="M367.259 77.4444C367.199 77.254 365.136 85.601 375.199 90.2394C375.199 90.2394 370.925 88.7875 367.259 77.4444Z" fill="black"/>
<path opacity="0.1" d="M429.816 70.5167C429.659 70.5167 434.78 73.7793 436.175 75.3019C436.175 75.3019 432.841 70.2991 429.816 70.5167Z" fill="black"/>
<path d="M397.406 63.377C397.407 63.6531 397.467 63.9257 397.579 64.1777C397.692 64.4298 397.855 64.6557 398.059 64.8412C398.263 65.0267 398.504 65.1678 398.765 65.2555C399.027 65.3433 399.303 65.3757 399.578 65.3509C403.428 65.5902 407.442 65.7587 410.982 64.2634C411.647 64.026 412.243 63.6303 412.72 63.1106C413.35 62.333 413.475 61.278 413.73 60.3101C414.23 58.4178 415.294 56.7375 416.06 54.9376C417.356 51.8967 417.79 48.5573 417.315 45.2856C417.214 44.2828 416.884 43.3168 416.348 42.4634C415.327 41.0007 413.464 40.408 412.112 39.2443C410.76 38.0806 409.891 36.3025 408.311 35.4379C406.888 34.644 405.144 34.7418 403.542 35.0137C400.391 35.5495 397.372 36.6847 394.647 38.3579C393.729 38.9017 392.724 39.5706 391.671 39.3694C390.747 39.1954 390.074 38.4177 389.498 37.6891C388.758 39.4293 388.447 41.3224 388.591 43.2084C388.632 43.4852 388.622 43.7668 388.564 44.0404C388.432 44.3711 388.23 44.6696 387.972 44.9159C387.022 46.0034 386.43 47.7707 387.37 48.8909C387.777 49.3748 388.407 49.6413 388.803 50.1361C389.515 51.0224 389.276 52.3112 389.259 53.4422C389.22 53.8372 389.32 54.2334 389.542 54.5624C389.747 54.7542 389.999 54.8895 390.272 54.9552C390.545 55.021 390.83 55.0149 391.1 54.9376C391.639 54.7754 392.203 54.7218 392.762 54.7799C393.351 54.9716 393.859 55.3543 394.207 55.8675C395.961 58.1568 396.656 60.6473 397.406 63.377Z" fill="#2D293D"/>
<g opacity="0.1">
<path opacity="0.1" d="M413.171 62.1478C412.694 62.6676 412.097 63.0632 411.433 63.3006C407.87 64.7851 403.863 64.6165 400.028 64.3881C399.617 64.3923 399.21 64.3011 398.839 64.1217C398.253 63.7791 398.03 63.0613 397.851 62.4088C397.101 59.6899 396.412 57.194 394.63 54.9265C394.287 54.4034 393.778 54.0109 393.186 53.8117C392.627 53.759 392.063 53.8125 391.524 53.9694C391.254 54.0474 390.969 54.0544 390.696 53.9896C390.423 53.9248 390.171 53.7905 389.965 53.5997C389.744 53.2707 389.644 52.8744 389.683 52.4795C389.683 51.3376 389.938 50.0597 389.227 49.1733C388.83 48.6785 388.2 48.4121 387.793 47.9227C387.527 47.5619 387.364 47.1357 387.321 46.6895C387.278 46.2433 387.357 45.7937 387.549 45.3887C386.87 46.4762 386.582 47.8411 387.369 48.7764C387.777 49.2603 388.407 49.5268 388.803 50.0216C389.515 50.9134 389.276 52.1967 389.259 53.3278C389.218 53.7221 389.316 54.1186 389.536 54.448C389.742 54.6406 389.995 54.7765 390.269 54.8423C390.543 54.908 390.829 54.9015 391.1 54.8232C391.638 54.6609 392.203 54.6073 392.762 54.6655C393.351 54.8572 393.859 55.2398 394.207 55.753C395.983 58.0205 396.678 60.511 397.427 63.2408C397.515 63.9125 397.85 64.5272 398.367 64.9646C398.739 65.1442 399.148 65.2336 399.561 65.2256C403.412 65.4648 407.425 65.6388 410.966 64.138C411.631 63.9022 412.228 63.5063 412.704 62.9852C412.943 62.6789 413.127 62.3329 413.247 61.9629C413.252 62.0336 413.214 62.0934 413.171 62.1478Z" fill="black"/>
<path opacity="0.1" d="M388.591 43.7085C388.762 43.523 388.893 43.3047 388.977 43.0668C389.026 42.7917 389.026 42.51 388.977 42.2349C388.871 40.6845 389.072 39.1285 389.569 37.6563L389.498 37.5747C388.755 39.3122 388.444 41.2042 388.591 43.0886C388.608 43.2949 388.608 43.5022 388.591 43.7085Z" fill="black"/>
</g>
<path opacity="0.1" d="M395.152 71.0442C395.152 71.0442 410.939 73.1432 412.356 70.7668L395.152 71.0442Z" fill="black"/>
<path opacity="0.1" d="M425.841 64.5024C425.841 64.5024 434.617 64.5024 436.545 67.8086L425.841 64.5024Z" fill="black"/>
<path d="M474.94 358.223C472.337 360.553 468.955 361.818 465.464 361.768C464.573 361.768 463.34 361.936 463.335 362.828C463.356 363.09 463.446 363.341 463.596 363.557C464.698 365.396 466.438 366.765 468.483 367.401C470.384 367.978 472.415 367.88 474.397 367.777L480.181 367.478C481.267 367.418 482.353 367.363 483.44 367.227C484.526 367.091 485.71 366.869 486.845 366.684C489.634 366.287 492.454 366.156 495.268 366.292C496.017 366.319 496.897 366.292 497.342 365.748C497.788 365.205 497.56 364.166 497.391 363.35C497.044 361.67 497.391 359.908 497.071 358.223C496.528 355.264 493.97 352.997 491.168 351.926C488.561 350.936 483.945 349.799 481.479 351.453C478.878 353.187 477.287 356.085 474.94 358.223Z" fill="#3F3D56"/>
<path d="M480.686 259.114C481.196 261.545 483.548 263.404 483.613 265.884C483.673 267.874 482.255 269.544 481.234 271.246C480.272 273.008 479.46 274.849 478.807 276.749C476.884 281.694 474.499 286.446 471.682 290.941C470.324 293.116 468.803 295.438 469.113 297.967C469.329 299.149 469.746 300.286 470.346 301.327L474.419 309.429C475.311 311.047 476.009 312.765 476.499 314.546C476.852 316.085 476.884 317.678 477.091 319.245C477.731 324.215 480.061 329.217 478.682 334.035C478.562 334.448 478.139 334.949 477.807 334.661C479.154 337.178 480.235 339.712 480.132 342.567C480.077 344.062 479.621 345.623 480.17 347.015C480.403 347.597 480.811 348.141 480.805 348.766C480.805 349.179 480.615 349.565 480.572 349.968C480.458 351.115 481.511 352.072 482.603 352.437C483.694 352.801 484.884 352.774 485.986 353.105C488.104 353.742 489.619 355.569 491.417 356.836C493.261 358.108 495.434 358.816 497.673 358.875C497.992 358.909 498.315 358.844 498.596 358.69C498.756 358.55 498.884 358.378 498.972 358.185C499.06 357.992 499.106 357.782 499.107 357.57C499.205 356.554 499.053 355.53 498.662 354.587C498.272 353.645 497.656 352.813 496.869 352.165C496.524 351.948 496.239 351.649 496.038 351.295C495.937 350.981 495.911 350.647 495.962 350.321C496.29 345.864 496.21 341.387 495.723 336.944C495.504 335.537 495.433 334.109 495.512 332.687C495.626 331.501 495.984 330.327 495.854 329.147C495.723 327.967 495.121 326.89 494.768 325.754C494.138 323.731 494.311 321.556 494.225 319.44C494.116 315.764 493.274 312.154 492.438 308.565C492.107 307.156 491.743 305.683 490.749 304.639C489.902 303.752 488.533 302.904 488.854 301.724C489.031 301.289 489.295 300.895 489.63 300.566C490.023 300.072 490.312 299.502 490.478 298.893C490.644 298.283 490.685 297.646 490.597 297.02C490.954 297.112 491.332 297.076 491.666 296.919C491.999 296.763 492.269 296.495 492.427 296.161C499.042 293.035 504.375 286.781 506.753 279.848C506.894 279.333 507.11 278.842 507.394 278.391C508.008 277.532 509.072 277.162 510.017 276.689C512.982 275.193 515.03 272.393 516.909 269.652C517.995 268.064 519.081 266.422 519.57 264.552C519.827 263.342 519.949 262.107 519.934 260.87L520.102 254.481C520.139 254.06 520.098 253.636 519.982 253.23C519.821 252.851 519.587 252.507 519.293 252.219C517.487 250.306 515.114 249.025 512.526 248.565C510.788 248.255 509.012 248.315 507.253 248.168C503.842 247.885 500.475 246.825 497.065 247.08C491.705 247.477 486.931 251.197 484.406 255.949C483.521 257.624 482.586 259.081 480.686 259.114Z" fill="#464353"/>
<path d="M450.925 217.57C450.998 218.556 450.864 219.547 450.534 220.479C450.116 221.371 449.068 222.067 448.15 221.702C448.427 221.077 447.694 220.365 447.01 220.441C446.673 220.518 446.36 220.677 446.098 220.902C445.836 221.128 445.633 221.413 445.505 221.735C445.052 222.648 444.9 223.682 445.071 224.688C445.288 225.938 446.01 227.14 445.82 228.396C445.668 229.44 444.903 230.479 445.31 231.447C445.574 231.889 445.906 232.287 446.293 232.627C446.829 233.288 447.092 234.131 447.026 234.981C446.961 235.831 446.572 236.623 445.94 237.194L456.215 237.401C455.84 239.119 456.611 240.876 457.491 242.404C459.955 246.605 463.358 250.177 467.432 252.84C471.506 255.504 476.141 257.186 480.974 257.754C480.712 257.907 480.488 258.116 480.318 258.366C480.147 258.616 480.034 258.901 479.986 259.201C479.939 259.5 479.959 259.806 480.044 260.096C480.129 260.387 480.278 260.655 480.479 260.881C481.316 261.713 482.733 261.61 483.781 261.072C484.829 260.533 485.649 259.641 486.605 258.951C488.293 257.754 490.351 257.198 492.411 257.385C493.698 257.51 494.947 257.929 496.239 257.994C500.041 258.195 503.299 255.454 506.96 254.334C509.626 253.513 512.651 253.513 514.889 251.844C515.855 251.126 516.648 249.946 516.366 248.782C516.132 248.113 515.762 247.501 515.28 246.982C513.993 245.313 513.232 243.306 512.309 241.409C510.48 237.651 507.962 234.272 504.885 231.447C502.563 229.414 500.102 227.547 497.521 225.857C496.897 225.396 496.232 224.993 495.533 224.655C494.632 224.258 493.633 224.068 492.818 223.567C491.612 222.806 490.917 221.463 489.989 220.381C487.952 217.999 484.824 216.906 482.315 215.036C480.631 213.779 479.143 212.126 477.134 211.523C476.157 211.224 475.119 211.202 474.142 210.908C471.921 210.234 470.302 208.26 468.124 207.461C466.403 206.83 464.502 206.993 462.694 206.77C460.655 206.518 458.708 205.776 457.019 204.606C456.474 204.162 455.864 203.806 455.21 203.551C452.457 202.714 452.234 207.847 451.952 209.625C451.588 212.268 450.925 214.894 450.925 217.57Z" fill="#FD8D1F"/>
<path d="M453.608 234.786C454.07 239.799 450.29 244.655 451.393 249.565C451.626 250.609 452.077 251.605 452.24 252.665C452.701 255.574 450.964 258.331 449.307 260.767L435.079 281.675C434.507 282.593 433.825 283.437 433.048 284.188C430.332 286.607 426.248 286.363 422.675 287.08C420.165 287.597 417.794 288.646 415.723 290.158C415.63 290.23 415.569 290.336 415.553 290.453C415.536 290.57 415.567 290.689 415.637 290.784C416.227 291.588 417.008 292.232 417.91 292.656C418.812 293.081 419.806 293.273 420.801 293.214C421.176 293.704 420.801 294.432 420.285 294.786C419.525 295.33 418.471 295.455 418.319 296.754C418.268 297.206 418.359 297.662 418.58 298.059C419.155 298.935 420.046 299.555 421.067 299.788C425.993 301.3 431.315 298.647 435.003 295.041C438.69 291.436 441.335 286.885 444.952 283.22C446.956 281.186 449.231 279.451 451.295 277.483C455.411 273.551 458.616 268.782 461.7 264.003C462.629 262.562 463.568 261.083 463.954 259.413C464.34 257.744 464.16 256.053 464.6 254.438C465.176 252.322 466.724 250.631 468.011 248.859C470.536 245.378 472.225 241.121 471.888 236.83C471.552 232.54 468.901 228.309 464.861 226.852C463.608 226.353 462.228 226.27 460.924 226.613C459.267 227.124 458.045 228.494 456.916 229.81L454.2 232.931C453.539 233.623 453.021 234.437 452.674 235.329C452.499 235.779 452.457 236.269 452.554 236.742C452.65 237.214 452.88 237.649 453.217 237.994" fill="#FBBEBE"/>
<path d="M460.82 214.22C458.952 214.329 456.894 214.514 455.574 215.851C455.021 216.466 454.573 217.168 454.249 217.929C452.967 220.544 451.718 223.279 451.626 226.194C451.55 228.521 452.223 230.8 452.576 233.1C452.87 235.014 452.126 236.966 451.984 238.902C454.303 238.19 457.366 237.222 459.468 236.02C460.902 235.199 462.287 234.264 463.851 233.742C466.083 232.997 469.824 234.285 471.948 235.319C472.062 233.829 470.943 231.229 471.063 229.734C471.079 229.105 471.191 228.481 471.394 227.885C471.712 227.255 472.088 226.656 472.518 226.096C473.326 224.78 473.698 223.242 473.58 221.702C473.462 220.161 472.86 218.698 471.861 217.521C469.976 215.4 467.028 214.606 464.214 214.258C462.443 214.053 460.658 213.991 458.876 214.073" fill="#FD8D1F"/>
</g>
<defs>
<linearGradient id="paint0_linear" x1="383.53" y1="296.999" x2="383.53" y2="31.278" gradientUnits="userSpaceOnUse">
<stop stop-color="#808080" stop-opacity="0.25"/>
<stop offset="0.54" stop-color="#808080" stop-opacity="0.12"/>
<stop offset="1" stop-color="#808080" stop-opacity="0.1"/>
</linearGradient>
<clipPath id="clip0">
<rect width="570" height="369" fill="white"/>
</clipPath>
</defs>
</svg>
