<svg width="598" height="347" viewBox="0 0 598 347" fill="none" xmlns="http://www.w3.org/2000/svg">
<g clip-path="url(#clip0)">
<g opacity="0.1">
<path opacity="0.1" d="M439.668 341.882C446.051 341.882 451.226 335.115 451.226 326.768C451.226 318.42 446.051 311.653 439.668 311.653C433.286 311.653 428.111 318.42 428.111 326.768C428.111 335.115 433.286 341.882 439.668 341.882Z" fill="#3F3D56"/>
<path opacity="0.1" d="M448.814 262.107C450.433 259.299 451.273 256.11 451.247 252.869C451.247 244.504 446.072 237.755 439.69 237.755C433.307 237.755 428.138 244.52 428.138 252.869C428.105 256.108 428.938 259.297 430.55 262.107C428.968 264.929 428.138 268.108 428.138 271.342C428.138 274.576 428.968 277.756 430.55 280.578C428.968 283.4 428.138 286.581 428.138 289.816C428.138 293.05 428.968 296.231 430.55 299.054C428.938 301.864 428.105 305.053 428.138 308.291C428.138 316.656 433.312 323.406 439.69 323.406C446.067 323.406 451.247 316.641 451.247 308.291C451.279 305.053 450.447 301.864 448.835 299.054C450.416 296.231 451.247 293.05 451.247 289.816C451.247 286.581 450.416 283.4 448.835 280.578C450.416 277.756 451.247 274.576 451.247 271.342C451.247 268.108 450.416 264.929 448.835 262.107H448.814Z" fill="#3F3D56"/>
<path opacity="0.1" d="M439.668 249.513C446.051 249.513 451.226 242.746 451.226 234.399C451.226 226.052 446.051 219.285 439.668 219.285C433.286 219.285 428.111 226.052 428.111 234.399C428.111 242.746 433.286 249.513 439.668 249.513Z" fill="#3F3D56"/>
<path opacity="0.1" d="M439.668 231.037C446.051 231.037 451.226 224.27 451.226 215.923C451.226 207.575 446.051 200.809 439.668 200.809C433.286 200.809 428.111 207.575 428.111 215.923C428.111 224.27 433.286 231.037 439.668 231.037Z" fill="#3F3D56"/>
<path opacity="0.1" d="M482.925 89.4986C484.503 87.4893 485.94 85.3739 487.226 83.1675L456.881 78.1852L489.722 78.4309C492.869 71.5816 494.585 64.1627 494.765 56.628C494.945 49.0933 493.585 41.601 490.768 34.6095L446.705 57.4351L487.346 27.604C483.538 21.036 478.417 15.3216 472.303 10.8166C466.189 6.31164 459.212 3.11246 451.807 1.41822C444.402 -0.276018 436.728 -0.42905 429.261 0.968653C421.794 2.36636 414.695 5.28488 408.406 9.54254C402.117 13.8002 396.772 19.3059 392.705 25.7168C388.637 32.1278 385.933 39.3068 384.762 46.807C383.591 54.3073 383.977 61.9681 385.896 69.3128C387.816 76.6574 391.228 83.5286 395.92 89.4986C393.461 92.6243 391.345 96.0054 389.61 99.5835L429.022 120.046L387 105.93C384.043 114.643 383.308 123.956 384.861 133.024C386.414 142.093 390.206 150.631 395.894 157.866C389.472 166.024 385.478 175.823 384.366 186.142C383.255 196.462 385.073 206.886 389.611 216.222C394.149 225.559 401.224 233.43 410.028 238.938C418.832 244.445 429.01 247.366 439.397 247.366C449.783 247.366 459.961 244.445 468.765 238.938C477.569 233.43 484.644 225.559 489.182 216.222C493.72 206.886 495.538 196.462 494.427 186.142C493.316 175.823 489.321 166.024 482.899 157.866C490.573 148.117 494.745 136.074 494.745 123.672C494.745 111.269 490.573 99.226 482.899 89.4777L482.925 89.4986Z" fill="#FD8D1F"/>
<path opacity="0.1" d="M384.075 123.695C384.056 136.1 388.23 148.148 395.92 157.886C389.499 166.045 385.504 175.844 384.393 186.163C383.282 196.483 385.099 206.907 389.637 216.243C394.175 225.58 401.251 233.451 410.055 238.959C418.859 244.466 429.036 247.387 439.423 247.387C449.81 247.387 459.987 244.466 468.791 238.959C477.595 233.451 484.671 225.58 489.209 216.243C493.747 206.907 495.564 196.483 494.453 186.163C493.342 175.844 489.347 166.045 482.926 157.886C490.344 148.476 384.075 117.484 384.075 123.695Z" fill="black"/>
</g>
<g opacity="0.1">
<path opacity="0.1" d="M115.525 325.717C119.408 325.717 122.556 321.598 122.556 316.516C122.556 311.434 119.408 307.314 115.525 307.314C111.641 307.314 108.493 311.434 108.493 316.516C108.493 321.598 111.641 325.717 115.525 325.717Z" fill="#3F3D56"/>
<path opacity="0.1" d="M121.117 277.154C122.099 275.443 122.607 273.501 122.588 271.528C122.588 266.447 119.449 262.327 115.551 262.327C111.653 262.327 108.519 266.447 108.519 271.528C108.499 273.5 109.004 275.442 109.984 277.154C109.024 278.872 108.52 280.808 108.52 282.777C108.52 284.745 109.024 286.681 109.984 288.399C109.024 290.118 108.52 292.054 108.52 294.022C108.52 295.99 109.024 297.926 109.984 299.645C109.004 301.354 108.498 303.295 108.519 305.265C108.519 310.352 111.658 314.471 115.551 314.471C119.443 314.471 122.588 310.352 122.588 305.265C122.607 303.294 122.1 301.354 121.117 299.645C122.081 297.927 122.587 295.991 122.587 294.022C122.587 292.053 122.081 290.117 121.117 288.399C122.081 286.682 122.587 284.746 122.587 282.777C122.587 280.808 122.081 278.872 121.117 277.154Z" fill="#3F3D56"/>
<path opacity="0.1" d="M115.525 269.484C119.408 269.484 122.556 265.365 122.556 260.283C122.556 255.201 119.408 251.082 115.525 251.082C111.641 251.082 108.493 255.201 108.493 260.283C108.493 265.365 111.641 269.484 115.525 269.484Z" fill="#3F3D56"/>
<path opacity="0.1" d="M115.525 258.239C119.408 258.239 122.556 254.119 122.556 249.037C122.556 243.956 119.408 239.836 115.525 239.836C111.641 239.836 108.493 243.956 108.493 249.037C108.493 254.119 111.641 258.239 115.525 258.239Z" fill="#3F3D56"/>
<path opacity="0.1" d="M89.2029 172.07C88.2426 170.848 87.3685 169.561 86.587 168.217L105.071 165.185L85.0802 165.337C83.1664 161.169 82.1223 156.656 82.0116 152.071C81.901 147.487 82.7261 142.929 84.4367 138.674L111.239 152.586L86.5085 134.392C88.8281 130.396 91.9457 126.92 95.6674 124.18C99.389 121.44 103.635 119.495 108.142 118.465C112.648 117.435 117.318 117.343 121.862 118.194C126.405 119.045 130.725 120.822 134.552 123.413C138.379 126.004 141.631 129.354 144.107 133.255C146.583 137.156 148.228 141.525 148.942 146.089C149.656 150.653 149.422 155.315 148.255 159.784C147.088 164.254 145.013 168.436 142.16 172.07C143.657 173.971 144.944 176.027 146 178.203L122.007 190.666L147.59 182.087C149.387 187.393 149.831 193.063 148.883 198.584C147.935 204.105 145.624 209.303 142.16 213.706C146.068 218.673 148.5 224.638 149.176 230.92C149.852 237.202 148.746 243.547 145.983 249.231C143.22 254.914 138.913 259.706 133.554 263.058C128.194 266.411 121.999 268.189 115.676 268.189C109.353 268.189 103.158 266.411 97.7984 263.058C92.439 259.706 88.1318 254.914 85.3692 249.231C82.6066 243.547 81.5 237.202 82.1761 230.92C82.8522 224.638 85.2837 218.673 89.1924 213.706C84.5217 207.771 81.9824 200.439 81.9824 192.888C81.9824 185.338 84.5217 178.006 89.1924 172.07H89.2029Z" fill="#FD8D1F"/>
<path opacity="0.1" d="M149.37 192.888C149.381 200.441 146.841 207.776 142.16 213.706C146.069 218.673 148.5 224.638 149.176 230.92C149.853 237.202 148.746 243.547 145.983 249.231C143.221 254.914 138.914 259.706 133.554 263.058C128.195 266.411 121.999 268.189 115.677 268.189C109.354 268.189 103.158 266.411 97.7989 263.058C92.4395 259.706 88.1322 254.914 85.3696 249.231C82.607 243.547 81.5005 237.202 82.1766 230.92C82.8527 224.638 85.2841 218.673 89.1929 213.706C84.6778 208.003 149.37 189.108 149.37 192.888Z" fill="black"/>
</g>
<g opacity="0.1">
<path opacity="0.1" d="M274.049 333.726C279.247 333.726 283.461 328.214 283.461 321.414C283.461 314.614 279.247 309.102 274.049 309.102C268.851 309.102 264.637 314.614 264.637 321.414C264.637 328.214 268.851 333.726 274.049 333.726Z" fill="#3F3D56"/>
<path opacity="0.1" d="M281.499 268.736C282.811 266.446 283.488 263.847 283.461 261.208C283.461 254.412 279.276 248.896 274.044 248.896C268.812 248.896 264.627 254.412 264.627 261.208C264.599 263.848 265.278 266.447 266.594 268.736C265.304 271.035 264.627 273.627 264.627 276.262C264.627 278.898 265.304 281.489 266.594 283.788C265.304 286.086 264.627 288.676 264.627 291.311C264.627 293.946 265.304 296.536 266.594 298.834C265.278 301.123 264.599 303.723 264.627 306.362C264.627 313.159 268.844 318.674 274.044 318.674C279.245 318.674 283.461 313.159 283.461 306.362C283.488 303.723 282.811 301.125 281.499 298.834C282.786 296.535 283.462 293.945 283.462 291.311C283.462 288.677 282.786 286.087 281.499 283.788C282.786 281.488 283.462 278.897 283.462 276.262C283.462 273.627 282.786 271.036 281.499 268.736Z" fill="#3F3D56"/>
<path opacity="0.1" d="M274.049 258.474C279.247 258.474 283.461 252.961 283.461 246.162C283.461 239.362 279.247 233.85 274.049 233.85C268.851 233.85 264.637 239.362 264.637 246.162C264.637 252.961 268.851 258.474 274.049 258.474Z" fill="#3F3D56"/>
<path opacity="0.1" d="M274.049 243.422C279.247 243.422 283.461 237.91 283.461 231.11C283.461 224.311 279.247 218.798 274.049 218.798C268.851 218.798 264.637 224.311 264.637 231.11C264.637 237.91 268.851 243.422 274.049 243.422Z" fill="#3F3D56"/>
<path opacity="0.1" d="M238.834 128.118C237.547 126.483 236.376 124.761 235.328 122.963L260.059 118.906L233.314 119.105C230.748 113.526 229.348 107.482 229.199 101.343C229.051 95.2041 230.157 89.0996 232.451 83.4028L268.341 102.004L235.239 77.6938C238.332 72.3234 242.5 67.648 247.482 63.9598C252.465 60.2716 258.155 57.6498 264.197 56.2584C270.239 54.8669 276.504 54.7356 282.599 55.8727C288.694 57.0098 294.49 59.3909 299.622 62.8671C304.755 66.3434 309.116 70.84 312.431 76.0762C315.746 81.3124 317.945 87.1755 318.89 93.2992C319.835 99.4229 319.506 105.676 317.924 111.667C316.342 117.658 313.54 123.258 309.694 128.118C311.696 130.665 313.419 133.421 314.831 136.337L282.729 153.004L316.961 141.502C319.365 148.602 319.96 156.189 318.691 163.577C317.423 170.965 314.33 177.92 309.694 183.812C314.924 190.458 318.178 198.441 319.083 206.847C319.987 215.254 318.507 223.745 314.81 231.351C311.113 238.956 305.349 245.368 298.177 249.855C291.005 254.341 282.714 256.72 274.253 256.72C265.792 256.72 257.501 254.341 250.329 249.855C243.157 245.368 237.394 238.956 233.697 231.351C230 223.745 228.519 215.254 229.424 206.847C230.328 198.441 233.582 190.458 238.813 183.812C232.563 175.87 229.165 166.059 229.165 155.955C229.165 145.851 232.563 136.04 238.813 128.097L238.834 128.118Z" fill="#FD8D1F"/>
<path opacity="0.1" d="M319.341 155.978C319.357 166.084 315.957 175.899 309.694 183.833C314.924 190.479 318.178 198.462 319.083 206.868C319.987 215.275 318.507 223.766 314.81 231.372C311.113 238.977 305.349 245.389 298.177 249.876C291.005 254.362 282.714 256.741 274.253 256.741C265.792 256.741 257.501 254.362 250.329 249.876C243.157 245.389 237.394 238.977 233.697 231.372C230 223.766 228.519 215.275 229.424 206.868C230.328 198.462 233.582 190.479 238.813 183.833C232.77 176.169 319.341 150.917 319.341 155.978Z" fill="black"/>
</g>
<path d="M598 332.618C598 336.209 571.725 339.493 528.285 342.028C520.385 342.483 511.92 342.917 502.942 343.325C495.185 343.673 487.055 344.003 478.551 344.313C470.313 344.606 461.759 344.877 452.889 345.128C424.878 345.928 393.911 346.503 361.013 346.791C353.029 346.864 344.939 346.92 336.742 346.958C328.204 346.997 319.568 347.014 310.834 347.01C152.236 347.01 23.6738 340.575 23.6738 332.633C23.6738 324.692 152.236 318.256 310.834 318.256C379.115 318.256 441.819 319.454 491.103 321.44L496.491 321.66H496.523C558.604 324.289 598 328.247 598 332.618Z" fill="#3F3D56"/>
<path opacity="0.15" d="M598 332.618C598 336.209 571.725 339.493 528.285 342.028C520.385 342.483 511.92 342.917 502.942 343.325C495.185 343.673 487.055 344.003 478.551 344.313C470.313 344.606 461.759 344.877 452.889 345.128C424.878 345.928 393.911 346.503 361.013 346.791C353.029 346.864 344.939 346.92 336.742 346.958C328.204 346.997 319.568 347.014 310.834 347.01C152.236 347.01 23.6738 340.575 23.6738 332.633C23.6738 324.692 152.236 318.256 310.834 318.256C379.115 318.256 441.819 319.454 491.103 321.44L496.491 321.66H496.523C558.604 324.289 598 328.247 598 332.618Z" fill="black"/>
<path d="M574.326 330.087C574.326 333.088 548.052 335.838 504.612 337.929C496.717 338.311 488.246 338.671 479.274 339.011C471.513 339.304 463.383 339.579 454.883 339.837C446.644 340.081 438.09 340.31 429.221 340.522C401.204 341.191 370.237 341.672 337.339 341.913C329.362 341.972 321.272 342.017 313.068 342.049C304.53 342.08 295.896 342.096 287.166 342.096C128.567 342.096 0 336.716 0 330.071C0 323.427 128.567 318.047 287.166 318.047C355.441 318.047 418.145 319.045 467.429 320.708L472.818 320.891H472.854C534.956 323.123 574.326 326.412 574.326 330.087Z" fill="#3F3D56"/>
<path d="M74.1665 220.858L66.957 198.801L239.608 196.914L246.681 218.751L74.1665 220.858Z" fill="#3F3D56"/>
<path opacity="0.15" d="M74.1665 220.858L66.957 198.801L239.608 196.914L246.681 218.751L74.1665 220.858Z" fill="black"/>
<path d="M62.6567 220.858L55.4473 198.801L228.098 196.914L235.172 218.751L62.6567 220.858Z" fill="#3F3D56"/>
<path d="M357.393 186.965C339.542 186.965 325.473 179.884 315.187 165.723C304.902 151.562 299.759 134.407 299.759 114.259C299.759 93.9739 304.733 76.8538 314.68 62.8985C324.627 48.9431 338.659 41.9724 356.775 41.9863C375.987 41.9863 390.462 49.3387 400.2 64.0434C409.938 78.7481 414.809 95.7671 414.812 115.1C414.812 134.294 409.772 151.073 399.692 165.436C389.612 179.799 375.512 186.975 357.393 186.965ZM357.916 171.035C369.66 171.035 378.437 165.92 384.248 155.691C390.059 145.461 392.964 132.565 392.964 117.003C392.964 99.6812 389.991 85.4975 384.044 74.4524C378.097 63.4073 368.976 57.8831 356.681 57.8796C333.312 57.8796 321.628 76.4286 321.628 113.527C321.628 151.869 333.72 171.039 357.906 171.035H357.916ZM363.797 323.584H337.977L507.008 44.8252H532.34L363.797 323.584ZM513.333 326.443C495.214 326.443 481.088 319.298 470.955 305.009C460.823 290.719 455.736 273.562 455.694 253.539C455.694 233.39 460.633 216.338 470.511 202.382C480.388 188.427 494.455 181.456 512.711 181.47C531.786 181.47 546.16 188.823 555.831 203.527C565.503 218.232 570.341 235.249 570.345 254.579C570.345 273.647 565.338 290.394 555.324 304.82C545.31 319.246 531.31 326.454 513.323 326.443H513.333ZM513.637 310.106C525.325 310.106 534.055 305.078 539.827 295.023C545.6 284.968 548.486 272.124 548.486 256.492C548.486 239.763 545.565 225.732 539.723 214.402C533.88 203.071 524.779 197.397 512.418 197.379C488.913 197.379 477.16 215.928 477.16 253.026C477.153 291.083 489.309 310.109 513.626 310.106H513.637Z" fill="#3F3D56"/>
<path d="M357.393 186.965C339.542 186.965 325.473 179.884 315.187 165.723C304.902 151.562 299.759 134.407 299.759 114.259C299.759 93.9739 304.733 76.8538 314.68 62.8985C324.627 48.9431 338.659 41.9724 356.775 41.9863C375.987 41.9863 390.462 49.3387 400.2 64.0434C409.938 78.7481 414.809 95.7671 414.812 115.1C414.812 134.294 409.772 151.073 399.692 165.436C389.612 179.799 375.512 186.975 357.393 186.965ZM357.916 171.035C369.66 171.035 378.437 165.92 384.248 155.691C390.059 145.461 392.964 132.565 392.964 117.003C392.964 99.6812 389.991 85.4975 384.044 74.4524C378.097 63.4073 368.976 57.8831 356.681 57.8796C333.312 57.8796 321.628 76.4286 321.628 113.527C321.628 151.869 333.72 171.039 357.906 171.035H357.916ZM363.797 323.584H337.977L507.008 44.8252H532.34L363.797 323.584ZM513.333 326.443C495.214 326.443 481.088 319.298 470.955 305.009C460.823 290.719 455.736 273.562 455.694 253.539C455.694 233.39 460.633 216.338 470.511 202.382C480.388 188.427 494.455 181.456 512.711 181.47C531.786 181.47 546.16 188.823 555.831 203.527C565.503 218.232 570.341 235.249 570.345 254.579C570.345 273.647 565.338 290.394 555.324 304.82C545.31 319.246 531.31 326.454 513.323 326.443H513.333ZM513.637 310.106C525.325 310.106 534.055 305.078 539.827 295.023C545.6 284.968 548.486 272.124 548.486 256.492C548.486 239.763 545.565 225.732 539.723 214.402C533.88 203.071 524.779 197.397 512.418 197.379C488.913 197.379 477.16 215.928 477.16 253.026C477.153 291.083 489.309 310.109 513.626 310.106H513.637Z" fill="#3F3D56"/>
<path opacity="0.15" d="M357.393 186.965C339.542 186.965 325.473 179.884 315.187 165.723C304.902 151.562 299.759 134.407 299.759 114.259C299.759 93.9739 304.733 76.8538 314.68 62.8985C324.627 48.9431 338.659 41.9724 356.775 41.9863C375.987 41.9863 390.462 49.3387 400.2 64.0434C409.938 78.7481 414.809 95.7671 414.812 115.1C414.812 134.294 409.772 151.073 399.692 165.436C389.612 179.799 375.512 186.975 357.393 186.965ZM357.916 171.035C369.66 171.035 378.437 165.92 384.248 155.691C390.059 145.461 392.964 132.565 392.964 117.003C392.964 99.6812 389.991 85.4975 384.044 74.4524C378.097 63.4073 368.976 57.8831 356.681 57.8796C333.312 57.8796 321.628 76.4286 321.628 113.527C321.628 151.869 333.72 171.039 357.906 171.035H357.916ZM363.797 323.584H337.977L507.008 44.8252H532.34L363.797 323.584ZM513.333 326.443C495.214 326.443 481.088 319.298 470.955 305.009C460.823 290.719 455.736 273.562 455.694 253.539C455.694 233.39 460.633 216.338 470.511 202.382C480.388 188.427 494.455 181.456 512.711 181.47C531.786 181.47 546.16 188.823 555.831 203.527C565.503 218.232 570.341 235.249 570.345 254.579C570.345 273.647 565.338 290.394 555.324 304.82C545.31 319.246 531.31 326.454 513.323 326.443H513.333ZM513.637 310.106C525.325 310.106 534.055 305.078 539.827 295.023C545.6 284.968 548.486 272.124 548.486 256.492C548.486 239.763 545.565 225.732 539.723 214.402C533.88 203.071 524.779 197.397 512.418 197.379C488.913 197.379 477.16 215.928 477.16 253.026C477.153 291.083 489.309 310.109 513.626 310.106H513.637Z" fill="black"/>
<path d="M341.174 186.965C323.323 186.965 309.255 179.884 298.969 165.723C288.683 151.562 283.54 134.407 283.54 114.259C283.54 93.9739 288.514 76.8538 298.461 62.8985C308.409 48.9431 322.441 41.9724 340.557 41.9863C359.768 41.9863 374.243 49.3387 383.981 64.0434C393.719 78.7481 398.59 95.7671 398.594 115.1C398.594 134.294 393.554 151.073 383.474 165.436C373.394 179.799 359.294 186.975 341.174 186.965ZM341.697 171.035C353.441 171.035 362.218 165.92 368.029 155.691C373.84 145.461 376.745 132.565 376.745 117.003C376.745 99.6812 373.772 85.4975 367.825 74.4524C361.878 63.4073 352.757 57.8831 340.463 57.8796C317.094 57.8796 305.409 76.4286 305.409 113.527C305.409 151.869 317.502 171.039 341.687 171.035H341.697ZM347.578 323.584H321.759L490.789 44.8252H516.122L347.578 323.584ZM497.114 326.443C478.995 326.443 464.869 319.298 454.736 305.009C444.604 290.719 439.517 273.562 439.475 253.539C439.475 233.39 444.414 216.338 454.292 202.382C464.169 188.427 478.236 181.456 496.492 181.47C515.567 181.47 529.941 188.823 539.613 203.527C549.285 218.232 554.122 235.249 554.126 254.579C554.126 273.647 549.119 290.394 539.105 304.82C529.091 319.246 515.091 326.454 497.104 326.443H497.114ZM497.418 310.106C509.106 310.106 517.836 305.078 523.609 295.023C529.381 284.968 532.267 272.124 532.267 256.492C532.267 239.763 529.346 225.732 523.504 214.402C517.662 203.071 508.556 197.397 496.188 197.379C472.683 197.379 460.931 215.928 460.931 253.026C460.931 291.083 473.09 310.109 497.407 310.106H497.418Z" fill="#3F3D56"/>
<path d="M397.656 330.579C399.812 326.585 397.363 321.691 394.549 318.126C391.734 314.56 388.302 310.859 388.375 306.315C388.48 299.796 395.407 295.943 400.932 292.482C405.041 289.917 408.83 286.874 412.222 283.417C413.642 282.085 414.816 280.513 415.691 278.774C416.836 276.223 416.8 273.321 416.737 270.53C416.496 261.217 416.036 251.918 415.356 242.633" stroke="#3F3D56" stroke-width="4" stroke-miterlimit="10"/>
<path d="M425.883 242.12C425.804 240.417 425.297 238.761 424.409 237.304C423.522 235.848 422.281 234.638 420.802 233.787L418.521 238.293L418.589 232.835C417.501 232.518 416.368 232.382 415.236 232.433C413.224 232.527 411.286 233.215 409.666 234.41C408.046 235.605 406.817 237.253 406.134 239.146C405.452 241.039 405.346 243.092 405.831 245.045C406.315 246.998 407.369 248.763 408.858 250.118C410.347 251.473 412.204 252.356 414.195 252.656C416.186 252.955 418.222 252.659 420.044 251.803C421.866 250.947 423.393 249.57 424.433 247.846C425.472 246.123 425.977 244.13 425.883 242.12Z" fill="#FD8D1F"/>
<path d="M407.728 310.995C406.66 313.069 404.91 314.713 402.773 315.651C400.636 316.589 398.24 316.765 395.989 316.148C393.738 315.531 391.767 314.16 390.408 312.263C389.048 310.367 388.382 308.061 388.522 305.733C388.662 303.404 389.599 301.194 391.175 299.474C392.752 297.754 394.873 296.627 397.182 296.284C399.491 295.94 401.847 296.4 403.857 297.587C405.867 298.774 407.407 300.615 408.22 302.802L401.858 307.973L408.868 306.342C408.865 307.961 408.474 309.557 407.728 310.995Z" fill="#FD8D1F"/>
<path d="M402.7 291.227C401.365 291.29 400.03 291.089 398.772 290.636C397.514 290.183 396.357 289.487 395.369 288.587C394.38 287.688 393.578 286.602 393.01 285.393C392.441 284.184 392.116 282.875 392.053 281.54C391.974 279.946 392.275 278.357 392.932 276.903C393.541 275.544 394.439 274.334 395.566 273.36C396.692 272.385 398.018 271.669 399.451 271.262L399.394 275.444L401.701 270.885C404.398 270.759 407.036 271.709 409.032 273.526C411.029 275.342 412.222 277.877 412.348 280.573C412.474 283.268 411.524 285.903 409.705 287.899C407.887 289.894 405.351 291.086 402.653 291.212L402.7 291.227Z" fill="#FD8D1F"/>
<path d="M427.416 274.796C426.065 274.886 424.709 274.705 423.428 274.265C422.147 273.825 420.967 273.134 419.957 272.232C418.946 271.331 418.126 270.237 417.544 269.015C416.962 267.793 416.629 266.467 416.566 265.115C416.503 263.763 416.71 262.412 417.175 261.141C417.641 259.87 418.355 258.705 419.277 257.713C420.198 256.721 421.309 255.923 422.543 255.365C423.777 254.807 425.11 254.501 426.464 254.464C428.367 254.371 430.257 254.819 431.915 255.755L430.116 260.68L433.82 257.13C435.808 258.941 436.995 261.467 437.121 264.152C437.167 265.093 437.079 266.037 436.86 266.954C436.353 269.109 435.157 271.041 433.453 272.456C431.749 273.872 429.629 274.693 427.416 274.796Z" fill="#FD8D1F"/>
<path opacity="0.1" d="M424.512 244.834C422.163 245.09 419.882 245.822 417.522 245.968C415.162 246.115 412.573 245.55 411.082 243.715C410.276 242.732 409.878 241.483 409.198 240.406C408.556 239.403 407.675 238.575 406.634 237.996C405.981 239.285 405.61 240.699 405.546 242.143C405.482 243.587 405.727 245.028 406.264 246.37C406.802 247.713 407.619 248.925 408.662 249.927C409.705 250.928 410.949 251.697 412.312 252.18C413.676 252.663 415.126 252.851 416.568 252.73C418.009 252.609 419.409 252.183 420.672 251.48C421.936 250.776 423.035 249.812 423.897 248.65C424.758 247.489 425.362 246.158 425.668 244.745C425.281 244.766 424.899 244.792 424.512 244.834Z" fill="black"/>
<path opacity="0.1" d="M427.415 274.796C425.661 274.876 423.916 274.501 422.349 273.708C420.782 272.916 419.446 271.732 418.472 270.272C417.498 268.812 416.917 267.125 416.788 265.375C416.658 263.624 416.983 261.87 417.731 260.283C418.538 260.829 419.232 261.525 419.777 262.332C420.504 263.425 420.944 264.69 421.796 265.694C423.366 267.56 426.092 268.167 428.545 268.057C430.999 267.947 433.374 267.246 435.823 267.011C436.163 266.98 436.508 266.959 436.869 266.948C436.363 269.107 435.166 271.041 433.46 272.457C431.754 273.874 429.631 274.695 427.415 274.796Z" fill="black"/>
<path opacity="0.1" d="M402.7 291.227C401.365 291.29 400.03 291.089 398.772 290.636C397.514 290.183 396.357 289.487 395.369 288.587C394.38 287.687 393.578 286.602 393.01 285.393C392.441 284.184 392.116 282.874 392.053 281.54C391.974 279.946 392.275 278.357 392.932 276.902C393.772 277.461 394.501 278.17 395.083 278.994C395.873 280.107 396.37 281.393 397.296 282.423C399.012 284.331 401.9 285.006 404.5 284.943C407.1 284.88 409.449 284.274 411.955 284.08C411.334 286.077 410.113 287.835 408.457 289.114C406.801 290.392 404.791 291.13 402.7 291.227Z" fill="black"/>
<path opacity="0.1" d="M407.728 310.994C406.543 313.321 404.509 315.104 402.046 315.973C399.582 316.843 396.879 316.733 394.495 315.667C392.11 314.6 390.227 312.659 389.235 310.244C388.243 307.829 388.218 305.125 389.165 302.692C390.003 303.244 390.756 303.915 391.399 304.684C392.367 305.866 393.005 307.204 394.125 308.302C396.218 310.341 399.566 311.183 402.559 311.261C404.286 311.275 406.012 311.186 407.728 310.994Z" fill="black"/>
<path d="M555.135 330.056C557.29 326.062 554.842 321.168 552.027 317.603C549.213 314.037 545.78 310.336 545.854 305.792C545.958 299.273 552.885 295.42 558.41 291.959C562.519 289.394 566.309 286.351 569.7 282.894C571.121 281.562 572.295 279.99 573.169 278.251C574.315 275.7 574.278 272.798 574.216 270.007C573.975 260.694 573.514 251.395 572.834 242.11" stroke="#3F3D56" stroke-width="4" stroke-miterlimit="10"/>
<path d="M583.361 241.598C583.282 239.894 582.776 238.238 581.888 236.782C581 235.325 579.76 234.116 578.281 233.264L576 237.771L576.068 232.313C574.98 231.995 573.847 231.859 572.714 231.91C570.703 232.005 568.765 232.693 567.145 233.888C565.524 235.083 564.295 236.731 563.613 238.624C562.93 240.517 562.824 242.569 563.309 244.522C563.794 246.475 564.847 248.241 566.336 249.595C567.825 250.95 569.682 251.833 571.674 252.133C573.665 252.433 575.7 252.136 577.522 251.28C579.345 250.424 580.872 249.047 581.911 247.324C582.95 245.601 583.455 243.608 583.361 241.598Z" fill="#FD8D1F"/>
<path d="M565.206 310.472C564.138 312.546 562.389 314.19 560.251 315.128C558.114 316.066 555.719 316.242 553.468 315.625C551.216 315.008 549.246 313.637 547.886 311.74C546.527 309.844 545.861 307.538 546.001 305.21C546.14 302.881 547.077 300.671 548.654 298.951C550.23 297.231 552.351 296.104 554.66 295.761C556.969 295.417 559.326 295.878 561.336 297.064C563.345 298.251 564.886 300.092 565.698 302.279L559.336 307.45L566.347 305.819C566.344 307.438 565.953 309.034 565.206 310.472Z" fill="#FD8D1F"/>
<path d="M560.179 290.704C558.843 290.767 557.508 290.566 556.25 290.113C554.992 289.66 553.836 288.964 552.847 288.064C551.859 287.165 551.057 286.079 550.488 284.87C549.919 283.661 549.594 282.352 549.532 281.017C549.453 279.423 549.754 277.834 550.411 276.38C551.019 275.021 551.918 273.811 553.044 272.837C554.17 271.862 555.497 271.146 556.93 270.739L556.872 274.921L559.179 270.362H559.206C560.541 270.3 561.876 270.501 563.134 270.954C564.392 271.407 565.548 272.103 566.537 273.003C567.525 273.902 568.327 274.987 568.896 276.197C569.465 277.406 569.79 278.715 569.852 280.05C569.915 281.384 569.714 282.718 569.26 283.975C568.807 285.232 568.11 286.388 567.21 287.376C566.31 288.364 565.224 289.165 564.014 289.733C562.804 290.302 561.493 290.626 560.158 290.689L560.179 290.704Z" fill="#FD8D1F"/>
<path d="M584.895 274.273C583.543 274.363 582.187 274.182 580.906 273.742C579.626 273.302 578.446 272.611 577.435 271.709C576.425 270.808 575.605 269.714 575.022 268.492C574.44 267.27 574.108 265.944 574.044 264.592C573.981 263.24 574.188 261.889 574.654 260.618C575.119 259.347 575.834 258.182 576.755 257.19C577.677 256.198 578.787 255.4 580.021 254.842C581.255 254.284 582.588 253.978 583.942 253.941C585.845 253.849 587.735 254.296 589.394 255.232L587.594 260.157L591.298 256.607C593.286 258.418 594.474 260.944 594.6 263.629C594.646 264.57 594.558 265.514 594.338 266.431C593.832 268.587 592.636 270.518 590.932 271.934C589.227 273.349 587.108 274.17 584.895 274.273Z" fill="#FD8D1F"/>
<path opacity="0.1" d="M581.99 244.311C579.641 244.567 577.36 245.299 575 245.445C572.641 245.592 570.051 245.027 568.56 243.192C567.754 242.209 567.357 240.96 566.677 239.883C566.034 238.88 565.154 238.052 564.113 237.473C563.459 238.762 563.088 240.176 563.025 241.62C562.961 243.064 563.206 244.505 563.743 245.848C564.28 247.19 565.097 248.402 566.14 249.404C567.183 250.405 568.428 251.174 569.791 251.657C571.154 252.14 572.605 252.328 574.046 252.207C575.488 252.086 576.887 251.66 578.151 250.957C579.414 250.253 580.514 249.289 581.375 248.127C582.236 246.966 582.84 245.635 583.146 244.222C582.759 244.243 582.377 244.269 581.99 244.311Z" fill="black"/>
<path opacity="0.1" d="M584.894 274.273C583.139 274.353 581.394 273.978 579.827 273.186C578.26 272.393 576.925 271.209 575.95 269.749C574.976 268.289 574.396 266.602 574.266 264.852C574.136 263.101 574.461 261.347 575.21 259.76C576.016 260.306 576.711 261.002 577.255 261.809C577.983 262.902 578.422 264.167 579.275 265.171C580.844 267.037 583.57 267.644 586.024 267.534C588.478 267.424 590.853 266.724 593.302 266.488C593.642 266.457 593.987 266.436 594.348 266.426C593.842 268.584 592.645 270.518 590.939 271.934C589.232 273.351 587.11 274.172 584.894 274.273Z" fill="black"/>
<path opacity="0.1" d="M560.179 290.705C558.843 290.767 557.508 290.566 556.25 290.113C554.992 289.66 553.836 288.964 552.847 288.065C551.859 287.165 551.057 286.08 550.488 284.87C549.919 283.661 549.594 282.352 549.532 281.017C549.453 279.424 549.754 277.834 550.411 276.38C551.25 276.939 551.979 277.648 552.561 278.471C553.351 279.585 553.848 280.871 554.774 281.901C556.49 283.809 559.378 284.483 561.979 284.421C564.5 284.368 566.928 283.751 569.434 283.558C568.813 285.555 567.591 287.312 565.935 288.591C564.279 289.87 562.269 290.608 560.179 290.705Z" fill="black"/>
<path opacity="0.1" d="M565.207 310.472C564.023 312.798 561.988 314.581 559.525 315.45C557.062 316.32 554.359 316.21 551.974 315.144C549.59 314.077 547.707 312.136 546.715 309.721C545.723 307.306 545.698 304.602 546.645 302.169C547.483 302.721 548.236 303.392 548.879 304.161C549.847 305.343 550.485 306.681 551.605 307.779C553.697 309.818 557.046 310.66 560.038 310.738C561.765 310.752 563.491 310.663 565.207 310.472Z" fill="black"/>
<path d="M57.5141 323.259C55.3586 319.265 57.8071 314.372 60.6218 310.806C63.4366 307.241 66.8687 303.539 66.7954 298.996C66.6908 292.477 59.7638 288.624 54.239 285.163C50.13 282.598 46.3401 279.555 42.9487 276.097C41.5284 274.766 40.3542 273.194 39.48 271.455C38.3342 268.904 38.3708 266.002 38.4336 263.21C38.6743 253.897 39.1347 244.598 39.8148 235.313" stroke="#3F3D56" stroke-width="4" stroke-miterlimit="10"/>
<path d="M29.2875 234.801C29.3662 233.098 29.8728 231.441 30.7606 229.985C31.6484 228.528 32.8889 227.319 34.3676 226.468L36.6487 230.974L36.5807 225.516C37.6688 225.198 38.8019 225.062 39.9343 225.114C41.9457 225.208 43.8839 225.896 45.5039 227.091C47.124 228.286 48.353 229.934 49.0357 231.827C49.7184 233.72 49.824 235.773 49.3392 237.725C48.8545 239.678 47.8011 241.444 46.3122 242.799C44.8234 244.153 42.966 245.036 40.9749 245.336C38.9838 245.636 36.9484 245.339 35.1261 244.483C33.3038 243.627 31.7765 242.25 30.7372 240.527C29.698 238.804 29.1935 236.811 29.2875 234.801Z" fill="#FD8D1F"/>
<path d="M47.4423 303.675C48.5106 305.749 50.26 307.394 52.3973 308.332C54.5346 309.27 56.9297 309.445 59.1811 308.829C61.4324 308.212 63.4031 306.84 64.7625 304.944C66.122 303.047 66.7877 300.742 66.6479 298.413C66.5081 296.085 65.5714 293.875 63.9948 292.155C62.4182 290.434 60.2976 289.308 57.9886 288.964C55.6796 288.621 53.3226 289.081 51.3129 290.268C49.3032 291.455 47.763 293.296 46.9505 295.483L53.3124 300.653L46.3018 299.022C46.3047 300.642 46.6958 302.238 47.4423 303.675Z" fill="#FD8D1F"/>
<path d="M52.4702 283.908C53.8058 283.971 55.1408 283.77 56.3987 283.317C57.6566 282.864 58.8129 282.168 59.8016 281.268C60.7903 280.368 61.5919 279.283 62.1608 278.074C62.7296 276.865 63.0546 275.555 63.117 274.221C63.1962 272.627 62.8949 271.037 62.2381 269.583C61.6298 268.224 60.731 267.015 59.6047 266.04C58.4785 265.066 57.1522 264.35 55.7192 263.942L55.7767 268.125L53.4695 263.566C50.772 263.44 48.1349 264.389 46.1383 266.206C44.1416 268.023 42.9489 270.558 42.8227 273.253C42.6964 275.949 43.6469 278.584 45.465 280.579C47.283 282.574 49.8198 283.766 52.5173 283.892L52.4702 283.908Z" fill="#FD8D1F"/>
<path d="M27.7552 267.476C29.1066 267.566 30.4624 267.385 31.7432 266.945C33.024 266.505 34.2041 265.814 35.2145 264.913C36.2248 264.011 37.0451 262.917 37.6273 261.695C38.2096 260.473 38.5421 259.148 38.6054 257.796C38.6687 256.444 38.4615 255.093 37.9961 253.822C37.5306 252.551 36.8161 251.385 35.8944 250.393C34.9728 249.401 33.8624 248.603 32.6284 248.046C31.3943 247.488 30.0613 247.181 28.7074 247.145C26.8134 247.057 24.933 247.505 23.2819 248.436L25.0817 253.361L21.3514 249.827C19.3671 251.634 18.18 254.153 18.0501 256.832C18.0037 257.774 18.0918 258.717 18.3117 259.634C18.818 261.79 20.0139 263.722 21.7181 265.137C23.4222 266.552 25.5417 267.373 27.7552 267.476Z" fill="#FD8D1F"/>
<path opacity="0.1" d="M30.6592 237.515C33.0083 237.771 35.2894 238.503 37.6489 238.649C40.0085 238.795 42.5982 238.231 44.0893 236.396C44.895 235.413 45.2926 234.163 45.9728 233.086C46.6151 232.084 47.4958 231.256 48.5364 230.676C49.1899 231.966 49.561 233.38 49.6248 234.824C49.6886 236.268 49.4437 237.709 48.9065 239.051C48.3692 240.393 47.552 241.606 46.5091 242.607C45.4662 243.609 44.2217 244.377 42.8584 244.861C41.4952 245.344 40.0445 245.532 38.603 245.411C37.1615 245.29 35.7623 244.864 34.4986 244.16C33.2349 243.457 32.1357 242.492 31.2743 241.331C30.4129 240.17 29.8091 238.838 29.5029 237.426C29.8901 237.447 30.272 237.473 30.6592 237.515Z" fill="black"/>
<path opacity="0.1" d="M27.7547 267.476C29.5092 267.556 31.2545 267.182 32.8215 266.389C34.3884 265.597 35.7238 264.413 36.6982 262.953C37.6725 261.492 38.2527 259.805 38.3825 258.055C38.5122 256.305 38.1872 254.551 37.4389 252.963C36.6323 253.51 35.9379 254.205 35.3932 255.013C34.666 256.105 34.2265 257.371 33.3737 258.374C31.8042 260.241 29.0784 260.847 26.6247 260.737C24.1709 260.628 21.7957 259.927 19.3472 259.692C19.0071 259.66 18.6618 259.64 18.3008 259.629C18.8066 261.787 20.0037 263.722 21.71 265.138C23.4164 266.554 25.5388 267.375 27.7547 267.476Z" fill="black"/>
<path opacity="0.1" d="M52.47 283.908C53.8056 283.971 55.1405 283.77 56.3985 283.317C57.6564 282.864 58.8127 282.168 59.8014 281.268C60.7901 280.369 61.5917 279.283 62.1606 278.074C62.7294 276.865 63.0544 275.555 63.1168 274.221C63.196 272.627 62.8947 271.038 62.2378 269.583C61.3984 270.142 60.6694 270.851 60.0876 271.675C59.2975 272.788 58.8005 274.074 57.8745 275.104C56.1584 277.013 53.2705 277.687 50.6702 277.624C48.1485 277.572 45.7209 276.955 43.2148 276.762C43.836 278.759 45.0577 280.516 46.7136 281.795C48.3696 283.073 50.3795 283.811 52.47 283.908Z" fill="black"/>
<path opacity="0.1" d="M47.4424 303.675C48.6271 306.002 50.6615 307.784 53.1246 308.654C55.5878 309.524 58.2912 309.414 60.6757 308.347C63.0601 307.281 64.9431 305.339 65.935 302.924C66.927 300.51 66.952 297.806 66.005 295.373C65.1668 295.924 64.4141 296.595 63.771 297.365C62.8031 298.546 62.1648 299.885 61.0452 300.983C58.9524 303.022 55.6041 303.863 52.6114 303.942C50.8846 303.956 49.1586 303.867 47.4424 303.675Z" fill="black"/>
<path d="M352.364 274.268C352.374 273 352.087 271.748 351.525 270.611C350.964 269.475 350.144 268.485 349.131 267.722C349.005 262.928 345.584 259.012 341.184 258.406C340.844 256.777 340.081 255.266 338.971 254.025C337.862 252.785 336.445 251.858 334.864 251.337C334.479 251.216 334.085 251.123 333.687 251.06H333.571L333.367 251.034H333.195H333.022H332.797H332.661H332.29C327.801 251.034 324.065 254.464 323.296 258.986C320.392 258.317 317.729 259.185 317.253 261.02C317.13 261.506 317.158 262.018 317.332 262.489C317.824 263.911 319.425 265.27 321.596 265.945L321.878 266.028C322.02 266.07 322.161 266.101 322.302 266.133H322.396C321.598 267.833 321.485 269.776 322.08 271.558C322.675 273.339 323.933 274.824 325.593 275.705C325.528 275.741 325.465 275.781 325.405 275.825C325.136 276.071 324.923 276.371 324.777 276.704C324.252 277.624 323.844 278.605 323.563 279.626C323.354 280.499 323.317 281.414 323.04 282.277C322.564 283.845 321.339 285.22 321.198 286.888C321.135 287.63 321.256 288.503 320.727 289.011C320.596 289.124 320.456 289.227 320.309 289.319C319.938 289.572 319.625 289.9 319.388 290.281C319.234 290.596 319.027 290.883 318.776 291.128C318.3 291.489 317.515 291.452 317.28 292.006C317.044 292.56 317.651 293.214 317.51 293.82C317.395 294.312 316.856 294.537 316.463 294.866C316.024 295.342 315.718 295.924 315.574 296.555C314.792 296.705 313.987 296.682 313.216 296.486C312.444 296.289 311.726 295.926 311.111 295.42C311.322 295.959 311.476 296.518 311.572 297.088C310.949 296.424 309.924 296.23 309.165 295.885C308.186 295.437 307.313 294.789 306.601 293.982L307.972 293.794L301.903 284.593L300.114 284.227L301.72 287.306C301.589 287.369 301.473 287.461 301.383 287.575C301.292 287.69 301.228 287.823 301.197 287.965C301.11 288.306 301.089 288.661 301.134 289.011C301.219 289.836 301.357 290.655 301.547 291.463L302.013 293.627C302.052 293.83 302.103 294.031 302.165 294.228C301.558 294.206 300.951 294.275 300.365 294.432C299.162 293.987 297.909 293.691 296.635 293.549C296.354 293.499 296.066 293.514 295.792 293.59C295.481 293.734 295.211 293.953 295.008 294.228C293.961 295.437 293.033 296.743 292.235 298.128C288.975 303.795 284.622 308.741 280.547 313.865C277.732 315.01 274.896 316.097 272.055 317.174L265.95 319.5C264.731 319.966 263.465 320.441 262.167 320.358C261.581 320.321 260.87 320.232 260.54 320.729C260.38 320.975 260.255 321.243 260.169 321.524C259.954 321.524 259.74 321.576 259.541 321.586H259.504C259.117 320.624 258.782 319.595 258.039 318.894C257.89 318.917 257.748 318.977 257.628 319.068C257.507 319.159 257.411 319.279 257.349 319.417C257.202 319.689 257.113 319.987 256.946 320.238C256.616 320.719 256.046 320.954 255.638 321.362C255.23 321.769 254.973 322.407 254.534 322.805C253.919 323.252 253.197 323.531 252.441 323.615C251.309 323.881 250.216 324.296 249.192 324.849C248.815 325.081 248.411 325.267 247.989 325.403C247.525 325.492 247.05 325.508 246.582 325.45L243.348 325.215C243.061 325.177 242.769 325.189 242.485 325.251C242.152 325.373 241.869 325.602 241.679 325.902C241.49 326.202 241.405 326.556 241.439 326.909C241.478 327.259 241.589 327.597 241.764 327.903C241.94 328.209 242.176 328.475 242.459 328.686C243.02 329.097 243.641 329.42 244.301 329.643C247.11 330.73 250.007 331.578 252.959 332.178V332.832C255.006 333.862 257.265 334.399 259.557 334.4C259.725 334.413 259.895 334.383 260.048 334.311C260.26 334.152 260.407 333.922 260.462 333.663C261.148 331.613 261.582 329.487 261.754 327.332C262.158 327.306 262.554 327.205 262.921 327.034C264.035 326.731 265.139 327.494 266.285 327.62C267.697 327.771 269.011 326.95 270.345 326.443C270.538 326.37 270.732 326.307 270.925 326.245C270.545 326.737 270.095 327.171 269.591 327.536C269.037 327.933 268.414 328.226 267.87 328.639C267.418 329.052 266.933 329.428 266.421 329.763C266.06 329.931 265.687 330.074 265.306 330.192C264.754 330.393 264.227 330.658 263.737 330.981C263.297 331.24 262.925 331.598 262.649 332.027C262.51 332.227 262.424 332.459 262.4 332.702C262.377 332.944 262.415 333.189 262.513 333.412C262.61 333.635 262.764 333.83 262.958 333.977C263.152 334.125 263.38 334.22 263.622 334.254C264.059 334.331 264.505 334.344 264.945 334.291C266.693 334.16 268.435 333.998 270.177 333.841C270.915 333.792 271.648 333.687 272.369 333.527C272.751 333.433 273.128 333.308 273.51 333.208C274.161 333.037 274.83 332.937 275.503 332.91C275.699 332.895 275.895 332.914 276.084 332.968C276.492 333.099 276.78 333.491 277.193 333.595C277.461 333.621 277.732 333.584 277.983 333.485C279.259 333.209 280.56 333.07 281.865 333.072C282.435 333.041 283.105 332.931 283.372 332.403C283.696 331.75 283.152 331.018 282.938 330.312C282.828 329.863 282.769 329.404 282.76 328.942C282.66 327.803 282.333 326.696 281.797 325.685C281.512 325.214 281.272 324.717 281.08 324.2C283.58 323.25 285.973 322.037 288.217 320.583C289.504 319.783 290.833 318.92 292.287 318.627C293.982 318.288 295.73 318.737 297.399 319.218C301.374 320.367 305.284 321.73 309.113 323.301C310.944 324.049 312.775 324.843 314.648 325.392C315.195 326.131 315.858 326.777 316.61 327.306C317.865 328.116 319.398 328.351 320.874 328.466C322.867 328.648 324.868 328.724 326.87 328.691C328.397 328.665 329.972 328.561 331.337 327.865C331.671 327.694 331.985 327.487 332.274 327.248C333.32 327.437 334.393 326.877 335.214 326.161C336.301 325.237 337.085 324.007 337.464 322.632C337.945 320.745 337.574 318.544 338.735 317.001C339.044 316.588 339.447 316.254 339.75 315.836C340.124 315.275 340.307 314.61 340.273 313.938L340.326 313.859C340.589 313.253 340.765 312.612 340.849 311.956C340.987 311.444 341.161 310.943 341.372 310.456C341.962 308.997 342.475 307.509 342.91 305.996C343.213 304.993 343.45 303.972 343.622 302.938C343.747 302.112 343.821 301.281 343.889 300.45C343.973 299.148 344.226 297.864 344.642 296.628C345.675 293.678 346.258 290.591 346.374 287.468C346.374 287.406 346.374 287.348 346.374 287.285C347.893 287.119 349.295 286.392 350.306 285.247C351.317 284.103 351.865 282.622 351.841 281.095C351.842 280.175 351.65 279.265 351.276 278.424C351.998 277.158 352.373 275.724 352.364 274.268ZM322.778 310.189C322.867 310.508 322.972 310.827 323.076 311.146C322.595 310.67 322.119 310.179 321.632 309.708C321.826 309.766 322.02 309.829 322.208 309.897C322.408 309.976 322.601 310.074 322.783 310.189H322.778ZM320.434 308.621C317.578 306.143 314.271 304.219 311.347 301.824C312.916 302.614 314.486 303.529 316.055 304.407C317.883 305.453 319.732 306.453 321.601 307.408C321.294 307.873 320.904 308.277 320.45 308.6L320.434 308.621ZM321.653 302.379L321.789 302.237C321.789 302.588 321.789 302.917 321.789 303.215C321.533 303.131 321.266 303.048 321.02 302.954C321.246 302.77 321.459 302.57 321.659 302.358L321.653 302.379ZM296.504 309.091C297.68 307.762 298.703 306.305 299.554 304.747C300.684 306.728 302.526 308.156 304.095 309.813C301.574 309.457 299.047 309.18 296.509 309.071L296.504 309.091Z" fill="url(#paint0_linear)"/>
<path d="M300.585 284.99L302.39 285.356L308.537 294.432L305.822 294.798L300.585 284.99Z" fill="#2F2E41"/>
<path d="M256.873 321.827C257.36 323.436 257.959 325.008 258.668 326.532C260.704 326.107 262.708 325.535 264.663 324.823C264.285 324.234 263.869 323.67 263.418 323.134C262.937 322.6 262.363 322.159 261.723 321.832C261.1 321.561 260.331 321.765 259.667 321.801C258.736 321.836 257.804 321.845 256.873 321.827Z" fill="#FBBEBE"/>
<path d="M261.734 324.253C260.719 323.934 260.096 322.909 259.683 321.921C259.27 320.933 258.935 319.856 258.15 319.129C258.001 319.153 257.859 319.213 257.739 319.304C257.618 319.395 257.522 319.515 257.459 319.652C257.308 319.914 257.219 320.212 257.046 320.463C256.722 320.933 256.146 321.163 255.733 321.566C255.32 321.968 255.063 322.58 254.618 322.982C254.002 323.426 253.281 323.703 252.526 323.788C251.385 324.046 250.284 324.454 249.251 325C248.868 325.222 248.461 325.397 248.037 325.523C247.569 325.612 247.091 325.628 246.619 325.57L243.36 325.335C243.07 325.299 242.776 325.313 242.491 325.377C242.159 325.492 241.875 325.716 241.686 326.012C241.496 326.307 241.411 326.658 241.445 327.008C241.488 327.357 241.603 327.692 241.783 327.994C241.964 328.295 242.205 328.556 242.491 328.759C243.058 329.164 243.682 329.481 244.343 329.7C247.183 330.768 250.105 331.601 253.08 332.194V332.837C255.148 333.86 257.423 334.397 259.73 334.406C259.909 334.421 260.089 334.391 260.253 334.317C260.465 334.162 260.614 333.935 260.672 333.679C261.454 331.395 261.91 329.012 262.027 326.6C262.087 325.99 262.041 325.375 261.891 324.781C261.713 324.195 262.32 324.441 261.755 324.211" fill="#2F2E41"/>
<path d="M324.222 311.977C314.559 312.563 305.016 309.729 295.337 309.426C294.136 309.353 292.93 309.43 291.748 309.656C290.516 309.986 289.323 310.449 288.191 311.036C283.006 313.446 277.638 315.444 272.275 317.441L266.123 319.731C264.888 320.185 263.617 320.651 262.304 320.572C261.718 320.536 261.001 320.447 260.666 320.938C259.667 322.418 260.143 324.598 260.802 326.26C261.017 326.783 261.378 327.384 261.953 327.447C262.36 327.419 262.759 327.318 263.13 327.149C264.25 326.851 265.369 327.604 266.52 327.724C267.949 327.876 269.272 327.065 270.617 326.569C272.846 325.748 275.284 325.774 277.628 325.382C281.562 324.729 285.203 322.904 288.615 320.823C289.912 320.034 291.23 319.187 292.716 318.899C294.427 318.565 296.19 319.004 297.87 319.48C301.873 320.612 305.815 321.954 309.678 323.5C311.689 324.373 313.75 325.124 315.852 325.748C320.431 326.953 325.276 326.671 329.685 324.943C331.254 324.331 332.907 323.254 332.996 321.586C333.049 320.635 332.311 319.798 331.819 318.972C331.5 318.45 331.186 317.927 330.841 317.43C329.177 315.004 327.158 311.8 324.222 311.977Z" fill="#2F2E41"/>
<path opacity="0.1" d="M324.222 311.977C314.559 312.563 305.016 309.729 295.337 309.426C294.136 309.353 292.93 309.43 291.748 309.656C290.516 309.986 289.323 310.449 288.191 311.036C283.006 313.446 277.638 315.444 272.275 317.441L266.123 319.731C264.888 320.185 263.617 320.651 262.304 320.572C261.718 320.536 261.001 320.447 260.666 320.938C259.667 322.418 260.143 324.598 260.802 326.26C261.017 326.783 261.378 327.384 261.953 327.447C262.36 327.419 262.759 327.318 263.13 327.149C264.25 326.851 265.369 327.604 266.52 327.724C267.949 327.876 269.272 327.065 270.617 326.569C272.846 325.748 275.284 325.774 277.628 325.382C281.562 324.729 285.203 322.904 288.615 320.823C289.912 320.034 291.23 319.187 292.716 318.899C294.427 318.565 296.19 319.004 297.87 319.48C301.873 320.612 305.815 321.954 309.678 323.5C311.689 324.373 313.75 325.124 315.852 325.748C320.431 326.953 325.276 326.671 329.685 324.943C331.254 324.331 332.907 323.254 332.996 321.586C333.049 320.635 332.311 319.798 331.819 318.972C331.5 318.45 331.186 317.927 330.841 317.43C329.177 315.004 327.158 311.8 324.222 311.977Z" fill="black"/>
<path d="M275.42 322.298C276.934 322.81 278.458 323.284 279.993 323.72C280.856 322.303 282.467 321.32 282.833 319.705C282.854 319.635 282.854 319.56 282.833 319.49C282.793 319.422 282.733 319.367 282.661 319.333C281.558 318.726 280.334 318.368 279.077 318.288C278.083 318.225 277.633 319.26 277.183 319.987C277.026 320.28 275.823 322.434 275.42 322.298Z" fill="#FBBEBE"/>
<path d="M277.55 321.263C277.098 321.187 276.667 321.019 276.284 320.768C275.901 320.517 275.575 320.188 275.326 319.804C275.112 319.433 274.887 318.931 274.458 318.957C274.029 318.983 273.882 319.454 273.793 319.846C273.504 321.311 273.085 322.747 272.543 324.138C271.996 325.533 271.07 326.748 269.869 327.646C269.31 328.033 268.687 328.326 268.138 328.733C267.68 329.142 267.19 329.512 266.673 329.842C266.309 330.008 265.933 330.148 265.548 330.26C264.984 330.457 264.445 330.718 263.942 331.039C263.501 331.297 263.126 331.655 262.848 332.085C262.714 332.303 262.636 332.55 262.619 332.805C262.603 333.06 262.649 333.315 262.754 333.549C262.867 333.738 263.018 333.902 263.199 334.029C263.379 334.156 263.584 334.243 263.801 334.286C264.242 334.359 264.691 334.369 265.135 334.317C266.898 334.186 268.656 334.03 270.414 333.873C271.158 333.827 271.898 333.725 272.627 333.569C273.014 333.475 273.391 333.35 273.772 333.251C274.432 333.083 275.107 332.984 275.787 332.958C275.984 332.943 276.182 332.962 276.373 333.015C276.781 333.146 277.068 333.538 277.487 333.632C277.757 333.66 278.029 333.624 278.282 333.528C279.569 333.256 280.881 333.119 282.196 333.12C282.771 333.088 283.451 332.979 283.713 332.461C284.043 331.818 283.498 331.097 283.279 330.406C283.17 329.965 283.109 329.512 283.096 329.058C282.997 327.934 282.667 326.843 282.128 325.853C281.678 325.027 281.081 324.117 281.38 323.239C281.54 322.965 281.641 322.66 281.678 322.345C281.604 320.928 278.345 321.451 277.55 321.263Z" fill="#2F2E41"/>
<path d="M309.736 296.492C308.024 295.737 306.652 294.376 305.885 292.67C305.728 292.304 305.592 291.923 305.44 291.551C304.931 290.324 304.143 289.232 303.138 288.362C303.031 288.244 302.899 288.151 302.751 288.088C302.604 288.026 302.445 287.996 302.285 288.002C302.131 288.048 301.991 288.134 301.881 288.251C301.771 288.369 301.694 288.514 301.658 288.671C301.568 289.012 301.545 289.367 301.59 289.716C301.679 290.528 301.819 291.333 302.008 292.126L302.479 294.259C302.538 294.587 302.637 294.907 302.772 295.211C302.973 295.569 303.239 295.886 303.557 296.147C303.986 296.544 304.42 296.926 304.859 297.297C305.102 297.516 305.367 297.709 305.649 297.872C306.114 298.092 306.61 298.237 307.12 298.301C309.04 298.656 310.991 299.169 312.608 300.392C312.608 300.392 312.608 298.965 312.571 298.824C312.552 298.41 312.41 298.012 312.163 297.679C311.556 297.025 310.51 296.832 309.736 296.492Z" fill="#FBBEBE"/>
<path opacity="0.1" d="M309.736 296.492C308.024 295.737 306.652 294.376 305.885 292.67C305.728 292.304 305.592 291.923 305.44 291.551C304.931 290.324 304.143 289.232 303.138 288.362C303.031 288.244 302.899 288.151 302.751 288.088C302.604 288.026 302.445 287.996 302.285 288.002C302.131 288.048 301.991 288.134 301.881 288.251C301.771 288.369 301.694 288.514 301.658 288.671C301.568 289.012 301.545 289.367 301.59 289.716C301.679 290.528 301.819 291.333 302.008 292.126L302.479 294.259C302.538 294.587 302.637 294.907 302.772 295.211C302.973 295.569 303.239 295.886 303.557 296.147C303.986 296.544 304.42 296.926 304.859 297.297C305.102 297.516 305.367 297.709 305.649 297.872C306.114 298.092 306.61 298.237 307.12 298.301C309.04 298.656 310.991 299.169 312.608 300.392C312.608 300.392 312.608 298.965 312.571 298.824C312.552 298.41 312.41 298.012 312.163 297.679C311.556 297.025 310.51 296.832 309.736 296.492Z" fill="black"/>
<path d="M329.408 280.181C330.705 280.181 331.757 279.123 331.757 277.818C331.757 276.513 330.705 275.455 329.408 275.455C328.11 275.455 327.059 276.513 327.059 277.818C327.059 279.123 328.11 280.181 329.408 280.181Z" fill="#2F2E41"/>
<path d="M327.953 276.39C327.322 276.246 326.66 276.341 326.095 276.657C325.824 276.897 325.608 277.193 325.462 277.525C324.934 278.427 324.523 279.394 324.238 280.4C324.029 281.263 323.992 282.162 323.715 283.014C323.234 284.582 321.999 285.916 321.858 287.552C321.795 288.284 321.915 289.146 321.382 289.643C321.249 289.754 321.107 289.854 320.958 289.941C320.586 290.19 320.271 290.514 320.032 290.893C319.872 291.232 319.65 291.539 319.378 291.797C318.896 292.153 318.106 292.116 317.871 292.665C317.636 293.214 318.242 293.852 318.101 294.448C317.986 294.934 317.442 295.159 317.055 295.493C316.614 295.96 316.305 296.536 316.16 297.161C315.374 297.309 314.566 297.285 313.79 297.091C313.014 296.897 312.29 296.537 311.666 296.037C312.32 297.653 312.336 299.435 312.362 301.176C312.437 301.733 312.289 302.297 311.949 302.745C313.822 302.786 315.642 303.267 317.468 303.701C318.249 303.963 319.094 303.963 319.875 303.701C320.292 303.477 320.666 303.179 320.979 302.823C321.973 301.814 323.014 300.732 323.255 299.325C323.318 298.534 323.332 297.74 323.296 296.947C323.392 295.968 323.594 295.002 323.898 294.066C324.424 292.123 324.774 290.137 324.944 288.132C325.054 286.893 326.122 285.9 326.687 284.792C327.733 282.7 328.832 280.531 328.915 278.189C328.989 277.425 328.727 276.489 327.953 276.39Z" fill="#2F2E41"/>
<path opacity="0.1" d="M327.953 276.39C327.322 276.246 326.66 276.341 326.095 276.657C325.824 276.897 325.608 277.193 325.462 277.525C324.934 278.427 324.523 279.394 324.238 280.4C324.029 281.263 323.992 282.162 323.715 283.014C323.234 284.582 321.999 285.916 321.858 287.552C321.795 288.284 321.915 289.146 321.382 289.643C321.249 289.754 321.107 289.854 320.958 289.941C320.586 290.19 320.271 290.514 320.032 290.893C319.872 291.232 319.65 291.539 319.378 291.797C318.896 292.153 318.106 292.116 317.871 292.665C317.636 293.214 318.242 293.852 318.101 294.448C317.986 294.934 317.442 295.159 317.055 295.493C316.614 295.96 316.305 296.536 316.16 297.161C315.374 297.309 314.566 297.285 313.79 297.091C313.014 296.897 312.29 296.537 311.666 296.037C312.32 297.653 312.336 299.435 312.362 301.176C312.437 301.733 312.289 302.297 311.949 302.745C313.822 302.786 315.642 303.267 317.468 303.701C318.249 303.963 319.094 303.963 319.875 303.701C320.292 303.477 320.666 303.179 320.979 302.823C321.973 301.814 323.014 300.732 323.255 299.325C323.318 298.534 323.332 297.74 323.296 296.947C323.392 295.968 323.594 295.002 323.898 294.066C324.424 292.123 324.774 290.137 324.944 288.132C325.054 286.893 326.122 285.9 326.687 284.792C327.733 282.7 328.832 280.531 328.915 278.189C328.989 277.425 328.727 276.489 327.953 276.39Z" fill="black"/>
<path d="M325.756 314.011C323.742 313.054 322.272 311.272 320.644 309.745C317.537 306.828 313.738 304.768 310.474 302.034C308.313 300.225 306.377 298.118 303.997 296.602C301.903 295.267 299.529 294.435 297.059 294.171C296.777 294.122 296.488 294.136 296.212 294.213C295.9 294.352 295.628 294.568 295.422 294.84C294.367 296.028 293.43 297.315 292.623 298.683C288.484 305.699 282.609 311.601 277.738 318.131C277.582 318.285 277.489 318.491 277.479 318.71C277.468 318.929 277.54 319.144 277.681 319.312L278.669 321.252C279.224 322.334 280.113 323.599 281.285 323.385C281.823 323.23 282.304 322.923 282.672 322.501L287.119 318.251L291.78 313.797C294.511 311.183 297.29 308.516 299.074 305.181C300.465 307.591 302.935 309.17 304.63 311.381C305.273 312.218 305.797 313.143 306.372 314.032C307.298 315.459 308.344 316.798 309.391 318.131L314.743 324.953C315.418 325.925 316.255 326.774 317.218 327.463C318.484 328.263 320.027 328.477 321.518 328.608C323.527 328.791 325.544 328.864 327.561 328.827C329.099 328.801 330.7 328.702 332.06 328.017C333.421 327.332 334.577 325.926 334.504 324.394C334.42 323.591 334.158 322.818 333.735 322.13C331.846 318.627 329.345 315.7 325.756 314.011Z" fill="#2F2E41"/>
<path d="M330.852 281.268C331.849 281.268 332.657 280.456 332.657 279.454C332.657 278.452 331.849 277.64 330.852 277.64C329.855 277.64 329.047 278.452 329.047 279.454C329.047 280.456 329.855 281.268 330.852 281.268Z" fill="#E8E8F0"/>
<path d="M330.454 278.089C330.862 278.9 330.933 279.84 330.653 280.703C330.374 281.553 329.983 282.361 329.492 283.108C329.068 283.879 328.561 284.602 327.979 285.262C330.768 285.398 333.473 284.305 335.932 282.977C337.915 281.932 339.892 280.599 340.949 278.607C340.635 278.682 340.308 278.69 339.99 278.632C339.672 278.573 339.37 278.449 339.102 278.267C338.57 277.896 338.093 277.453 337.685 276.949L336.288 275.381C335.958 275.037 335.668 274.656 335.424 274.246C335.119 273.69 334.989 273.054 335.053 272.422C334.497 273.004 333.875 273.519 333.201 273.959C332.202 274.612 331.108 275.083 330.098 275.726C329.743 275.956 328.953 276.327 329.157 276.772C329.361 277.216 330.172 277.587 330.454 278.089Z" fill="#FBBEBE"/>
<path opacity="0.1" d="M330.454 278.089C330.862 278.9 330.933 279.84 330.653 280.703C330.374 281.553 329.983 282.361 329.492 283.108C329.068 283.879 328.561 284.602 327.979 285.262C330.768 285.398 333.473 284.305 335.932 282.977C337.915 281.932 339.892 280.599 340.949 278.607C340.635 278.682 340.308 278.69 339.99 278.632C339.672 278.573 339.37 278.449 339.102 278.267C338.57 277.896 338.093 277.453 337.685 276.949L336.288 275.381C335.958 275.037 335.668 274.656 335.424 274.246C335.119 273.69 334.989 273.054 335.053 272.422C334.497 273.004 333.875 273.519 333.201 273.959C332.202 274.612 331.108 275.083 330.098 275.726C329.743 275.956 328.953 276.327 329.157 276.772C329.361 277.216 330.172 277.587 330.454 278.089Z" fill="black"/>
<path d="M330.49 278.361C330.208 278.759 330.057 279.235 330.057 279.723C330.057 280.211 330.208 280.687 330.49 281.085C330.569 281.184 330.867 281.807 331.014 281.812C331.137 281.801 331.251 281.743 331.333 281.65C331.965 280.99 332.555 280.291 333.101 279.558C333.652 278.816 334.45 278.294 335.351 278.084C336.444 277.912 337.496 278.492 338.453 279.046C338.865 279.25 339.223 279.547 339.5 279.914C339.701 280.278 339.821 280.681 339.85 281.096C340.125 283.588 340.23 286.096 340.164 288.603C340.215 290.41 340.096 292.218 339.808 294.004C339.63 294.924 339.364 295.823 339.238 296.753C339.146 297.573 339.11 298.397 339.128 299.221V302.672C339.105 303.304 339.151 303.937 339.264 304.559C339.48 305.301 339.733 306.032 340.023 306.749C340.277 307.603 340.453 308.478 340.546 309.363L341.017 312.934C341.169 314.063 341.278 315.292 340.593 316.197C340.29 316.61 339.882 316.934 339.547 317.341C338.37 318.837 338.762 321.006 338.239 322.862C337.852 324.224 337.06 325.437 335.968 326.339C335.136 327.045 334.058 327.604 332.981 327.385C331.532 327.113 330.658 325.602 330.26 324.175C329.863 322.747 329.737 321.189 328.863 319.992C328.162 319.004 327.079 318.387 326.101 317.681C325.122 316.975 324.16 316.071 323.945 314.879C323.851 314.356 323.909 313.833 323.856 313.311C323.779 312.644 323.523 312.011 323.116 311.478C322.709 310.944 322.166 310.53 321.544 310.278C320.801 309.991 319.88 309.886 319.451 309.233C320.516 308.564 321.293 307.522 321.628 306.31C321.952 305.117 322.128 303.887 322.151 302.651L322.402 298.5C322.512 296.644 322.564 294.803 323.38 293.136C323.746 292.393 324.202 291.693 324.578 290.956C325.083 289.921 325.513 288.852 325.865 287.756C326.457 286.057 327.053 284.353 327.581 282.633C327.793 281.8 328.109 280.997 328.523 280.243C329.01 279.459 329.653 278.518 330.49 278.361Z" fill="#E8E8F0"/>
<path d="M321.267 305.332L322.366 305.369L322.601 303.712C322.632 303.38 322.71 303.055 322.831 302.745C323.014 302.418 323.226 302.108 323.464 301.819C324.547 300.293 324.469 298.264 324.736 296.408C325.091 293.935 326.127 291.614 327.153 289.335L329.287 284.582C329.478 284.192 329.63 283.784 329.743 283.364C329.836 282.901 329.88 282.43 329.873 281.958C329.873 281.226 330.114 278.554 330.13 277.817C330.13 277.545 329.533 277.697 329.408 277.457C329.141 276.934 328.775 278.356 328.272 278.67C327.799 279.031 327.454 279.535 327.289 280.107C326.828 281.304 326.546 282.564 326.117 283.767C325.741 284.998 325.054 286.112 324.124 287.003C323.689 287.39 323.182 287.693 322.769 288.101C321.44 289.413 321.314 291.483 321.267 293.329C321.236 294.474 321.021 305.332 321.267 305.332Z" fill="#2F2E41"/>
<path d="M337.093 276.38C336.047 276.798 335.44 277.948 335.142 279.067C334.844 280.186 334.718 281.368 334.143 282.361C332.803 284.693 329.387 285.372 328.44 287.892C328.199 288.743 328.071 289.622 328.058 290.506C327.891 292.31 327.294 294.056 327.116 295.86C327.024 297.263 327.057 298.671 327.216 300.068L328.414 314.304C328.646 316.401 328.524 318.522 328.053 320.578C329.282 320.755 330.535 320.548 331.642 319.987C332.767 319.464 333.792 318.774 334.87 318.178C336.727 317.133 338.778 316.427 340.4 315.041C340.694 314.812 340.947 314.535 341.148 314.221C341.408 313.622 341.585 312.99 341.671 312.344C341.809 311.84 341.984 311.347 342.195 310.869C342.795 309.434 343.319 307.968 343.764 306.478C344.069 305.489 344.308 304.481 344.481 303.461C344.612 302.651 344.68 301.83 344.753 301.015C344.837 299.732 345.092 298.466 345.512 297.25C346.549 294.351 347.137 291.309 347.254 288.232C347.29 287.787 347.26 287.34 347.165 286.904C346.984 286.376 346.742 285.87 346.443 285.398C345.946 284.463 345.648 283.433 345.177 282.486C344.13 280.343 342.252 278.717 340.29 277.352C339.286 276.689 338.182 275.967 337.093 276.38Z" fill="#2F2E41"/>
<path d="M312.116 299.608C311.267 299.164 310.497 298.581 309.84 297.883C309.542 297.532 309.317 297.14 308.993 296.795C308.224 295.977 307.227 295.408 306.131 295.164C305.042 294.924 303.929 294.817 302.814 294.845C302.07 294.794 301.322 294.884 300.611 295.112C300.255 295.228 299.933 295.433 299.677 295.707C299.421 295.982 299.238 296.316 299.147 296.68C298.984 297.569 299.565 298.431 300.261 298.996C300.908 299.524 301.669 299.895 302.484 300.078C303.149 300.193 303.82 300.272 304.494 300.314C308.449 300.727 311.98 302.875 315.444 304.836C318.489 306.554 321.593 308.163 324.756 309.661C324.882 308.715 324.934 307.761 324.913 306.807C324.913 306.096 324.861 305.008 324.186 304.59C323.401 304.099 322.093 303.989 321.225 303.696C319.186 303.031 317.195 302.228 315.266 301.291C314.172 300.763 313.126 300.204 312.116 299.608Z" fill="#FBBEBE"/>
<path d="M329.408 277.279C333.3 277.279 336.455 274.107 336.455 270.195C336.455 266.282 333.3 263.111 329.408 263.111C325.516 263.111 322.36 266.282 322.36 270.195C322.36 274.107 325.516 277.279 329.408 277.279Z" fill="#FBBEBE"/>
<path d="M339.107 284.41C338.546 285.198 338.087 286.053 337.742 286.956C336.868 288.75 335.502 290.287 334.822 292.184C334.1 294.155 334.126 296.503 332.729 298.055C332.449 298.291 332.237 298.598 332.117 298.944C332.109 299.16 332.084 299.375 332.044 299.587C331.845 300.152 330.919 300.178 330.747 300.753C330.7 300.92 330.747 301.103 330.663 301.276C330.522 301.647 330.035 301.699 329.705 301.924C329.02 302.389 329.182 303.466 328.659 304.136C328.446 304.384 328.172 304.572 327.863 304.68C327.554 304.789 327.223 304.814 326.901 304.753C326.26 304.618 325.643 304.387 325.07 304.068C324.869 303.955 324.646 303.885 324.416 303.864C324.143 303.87 323.878 303.959 323.657 304.12C322.355 304.946 321.743 306.588 321.753 308.135C321.845 309.683 322.212 311.202 322.836 312.621C322.91 312.866 323.033 313.094 323.197 313.29C323.626 313.745 324.379 313.672 324.955 313.415C325.494 313.096 326.068 312.84 326.666 312.652C327.754 312.453 328.821 313.206 329.925 313.144C330.733 313.021 331.493 312.685 332.128 312.171C333.248 311.491 334.252 310.635 335.099 309.636C335.581 309.003 335.937 308.281 336.36 307.607C336.902 306.778 337.496 305.986 338.139 305.234L342.204 300.262C342.612 299.791 342.978 299.285 343.298 298.751C343.664 298.028 343.95 297.267 344.151 296.482C344.586 295.172 344.869 293.816 344.993 292.441C345.014 291.302 344.914 290.165 344.695 289.048C344.558 287.936 344.264 286.85 343.821 285.822C342.916 283.992 340.766 282.476 339.107 284.41Z" fill="#2F2E41"/>
<path d="M353.264 275.183C353.27 273.927 352.977 272.687 352.409 271.567C351.842 270.446 351.016 269.476 350 268.736C349.969 266.507 349.147 264.36 347.68 262.68C346.213 261 344.196 259.894 341.99 259.561C341.563 257.449 340.404 255.555 338.717 254.213C337.03 252.871 334.923 252.167 332.768 252.225C330.613 252.284 328.547 253.1 326.935 254.531C325.323 255.962 324.268 257.915 323.956 260.047C321.026 259.389 318.347 260.246 317.86 262.05C317.337 263.937 319.43 266.143 322.527 266.98C323.498 267.254 324.509 267.355 325.515 267.278C326.235 268.335 327.168 269.229 328.255 269.905C329.341 270.58 330.557 271.021 331.824 271.199C332.196 272.904 333.038 274.472 334.253 275.725C335.469 276.979 337.01 277.868 338.704 278.293C339.173 279.425 339.9 280.431 340.828 281.231C340.828 281.451 340.792 281.676 340.792 281.906C340.758 282.71 340.887 283.512 341.172 284.264C341.456 285.017 341.89 285.704 342.447 286.284C343.005 286.865 343.673 287.327 344.414 287.642C345.154 287.958 345.951 288.121 346.756 288.121C347.561 288.121 348.358 287.958 349.098 287.642C349.838 287.327 350.507 286.865 351.064 286.284C351.622 285.704 352.056 285.017 352.34 284.264C352.625 283.512 352.754 282.71 352.72 281.906C352.72 281.004 352.526 280.112 352.15 279.292C352.885 278.048 353.27 276.628 353.264 275.183Z" fill="#F86D70"/>
<path opacity="0.1" d="M319.849 262.41C320.336 260.607 322.988 259.749 325.944 260.408C326.288 258.243 327.386 256.268 329.045 254.834C330.704 253.399 332.817 252.596 335.011 252.566C335.215 252.566 335.419 252.566 335.618 252.566C334.77 252.308 333.888 252.177 333.002 252.179C330.808 252.209 328.695 253.012 327.036 254.447C325.377 255.882 324.279 257.856 323.935 260.021C321.005 259.363 318.326 260.22 317.84 262.024C317.317 263.911 319.409 266.117 322.507 266.954C323.083 267.113 323.674 267.215 324.27 267.257C321.33 266.399 319.352 264.256 319.849 262.41Z" fill="black"/>
<path opacity="0.1" d="M342.78 282.272C342.78 282.042 342.78 281.817 342.817 281.592C341.888 280.794 341.161 279.789 340.692 278.659C339 278.23 337.46 277.338 336.245 276.084C335.03 274.831 334.188 273.264 333.813 271.559C332.545 271.382 331.329 270.942 330.242 270.266C329.156 269.591 328.223 268.696 327.503 267.638C326.917 267.685 326.328 267.669 325.745 267.591C326.468 268.565 327.378 269.386 328.422 270.005C329.466 270.625 330.622 271.03 331.825 271.199C332.197 272.904 333.038 274.472 334.253 275.725C335.469 276.978 337.01 277.868 338.704 278.293C339.173 279.425 339.901 280.431 340.829 281.231C340.829 281.451 340.792 281.676 340.792 281.906C340.765 283.508 341.374 285.057 342.486 286.212C343.597 287.368 345.121 288.038 346.725 288.075C345.554 287.624 344.55 286.826 343.845 285.789C343.14 284.752 342.768 283.525 342.78 282.272Z" fill="black"/>
<path d="M332.631 272.791C333.11 272.427 333.106 271.617 332.621 270.98C332.137 270.343 331.357 270.121 330.878 270.484C330.4 270.848 330.404 271.658 330.888 272.295C331.372 272.932 332.153 273.154 332.631 272.791Z" fill="#FBBEBE"/>
<path d="M164.176 308.041L171.144 303.947C170.203 302.339 168.998 300.898 167.582 299.686L154.439 303.77L164.735 297.721C162.186 296.325 159.317 295.618 156.41 295.667C153.504 295.716 150.66 296.521 148.159 298.002C145.658 299.483 143.587 301.588 142.148 304.112C140.708 306.636 139.952 309.491 139.952 312.396C139.952 321.634 147.449 321.953 156.694 321.953C165.939 321.953 173.436 321.634 173.436 312.396C173.441 310.054 172.951 307.738 171.997 305.599L164.176 308.041Z" fill="#FD8D1F"/>
<path opacity="0.1" d="M165.949 317.022C165.207 316.279 164.378 315.628 163.48 315.083C162.219 314.241 160.906 313.384 159.415 313.101C158.107 312.85 156.757 313.065 155.423 312.986C153.106 312.845 150.926 311.846 149.307 310.184C148.355 309.201 147.606 307.994 146.461 307.241C145.18 306.48 143.669 306.204 142.202 306.462C141.777 306.521 141.356 306.606 140.941 306.718C140.285 308.539 139.951 310.46 139.952 312.396C139.952 321.633 147.449 321.952 156.694 321.952C161.183 321.952 165.253 321.879 168.262 320.745L167.738 319.809C167.263 318.808 166.662 317.871 165.949 317.022Z" fill="black"/>
</g>
<defs>
<linearGradient id="paint0_linear" x1="296.907" y1="334.406" x2="296.907" y2="250.945" gradientUnits="userSpaceOnUse">
<stop stop-color="#808080" stop-opacity="0.25"/>
<stop offset="0.54" stop-color="#808080" stop-opacity="0.12"/>
<stop offset="1" stop-color="#808080" stop-opacity="0.1"/>
</linearGradient>
<clipPath id="clip0">
<rect width="598" height="347" fill="white"/>
</clipPath>
</defs>
</svg>
