<svg width="260" height="164" viewBox="0 0 260 164" fill="none" xmlns="http://www.w3.org/2000/svg">
<g clip-path="url(#clip0)">
<path d="M97.2901 68.637C97.2901 68.637 118.608 69.6675 119.892 77.1383C121.176 84.6091 94.9785 77.9111 94.9785 77.9111L97.2901 68.637Z" fill="#A0616A"/>
<path d="M63.6441 44.9366C63.6441 44.9366 67.2399 45.967 70.0651 52.1498C72.8904 58.3325 78.541 64 78.541 64L101.4 68.3794L97.5473 79.972L75.7157 77.1383L62.103 69.4099L63.6441 44.9366Z" fill="#575A89"/>
<path opacity="0.1" d="M63.6441 44.9366C63.6441 44.9366 67.2399 45.967 70.0651 52.1498C72.8904 58.3325 78.541 64 78.541 64L101.4 68.3794L97.5473 79.972L75.7157 77.1383L62.103 69.4099L63.6441 44.9366Z" fill="black"/>
<path d="M238.682 23.9412H211.714V24.4564H238.682V23.9412Z" fill="#3F3D56"/>
<path d="M190.653 23.9412H105.124V24.4564H190.653V23.9412Z" fill="#3F3D56"/>
<path d="M210.43 86.026H7.78076V163.568H210.43V86.026Z" fill="#3F3D56"/>
<path d="M29.7407 33.0863L32.0523 47.7703L47.9765 48.5431L46.1786 26.9036L29.7407 33.0863Z" fill="#A0616A"/>
<path d="M12.9175 131.108L12.147 163.568H36.2902L39.886 150.687L42.7112 163.568H67.8818C67.8818 163.568 68.3955 126.471 65.5702 126.214C62.745 125.956 12.9175 131.108 12.9175 131.108Z" fill="#2F2E41"/>
<path d="M34.8773 36.9506C42.5372 36.9506 48.7468 30.7224 48.7468 23.0395C48.7468 15.3566 42.5372 9.12836 34.8773 9.12836C27.2174 9.12836 21.0078 15.3566 21.0078 23.0395C21.0078 30.7224 27.2174 36.9506 34.8773 36.9506Z" fill="#A0616A"/>
<path d="M11.5049 132.525L18.6965 96.9745L9.19336 49.8313L31.08 41.5939L41.8124 40.2996L47.2078 39.2894L51.0587 40.2996C51.0587 40.2996 66.4693 44.1638 67.2398 46.9975C68.0103 49.8313 64.1577 73.0165 64.1577 73.0165L60.5619 92.0799L68.524 126.342C68.524 126.342 35.3913 137.677 12.0186 132.525H11.5049Z" fill="#575A89"/>
<path opacity="0.1" d="M21.1362 62.8407V72.3724L51.4416 72.4138L22.6773 69.281L21.1362 62.8407Z" fill="black"/>
<path opacity="0.1" d="M18.5332 89.1652L56.5803 83.7075L18.5332 94.5159V89.1652Z" fill="black"/>
<path opacity="0.1" d="M78.9256 64.1287L74.8467 78.8707L81.7509 64.6151L78.9256 64.1287Z" fill="black"/>
<path d="M46.2917 9.08807L48.8422 8.06394C48.8422 8.06394 43.5094 2.17523 36.0898 2.68732L38.1766 0.383012C38.1766 0.383012 33.0757 -1.66522 28.4385 3.71141C26.0008 6.53778 23.1804 9.86004 21.4221 13.6025H18.6908L19.8307 16.1202L15.8408 18.6378L19.9361 18.1856C19.692 19.5642 19.6546 20.9717 19.8249 22.3615C20.0006 23.7517 20.7079 25.0191 21.7976 25.8961C21.7976 25.8961 24.9606 19.3293 24.9606 18.3051V20.8655C24.9606 20.8655 27.5111 18.5612 27.5111 17.025L28.9022 18.8172L29.5978 16.0009L38.1766 18.8172L36.7855 16.513L42.1183 17.2811L40.0315 14.4647C40.0315 14.4647 46.0598 17.7931 46.2917 20.6095C46.5236 23.4258 48.2881 26.0944 48.2881 26.0944C48.2881 26.0944 53.0157 12.9285 46.2917 9.08807Z" fill="#2F2E41"/>
<path d="M158.547 60.5222H59.9199V163.825H158.547V60.5222Z" fill="#D0CDE1"/>
<path d="M143.137 83.1923H70.1934V93.4968H143.137V83.1923Z" fill="#FD8D1F"/>
<path d="M130.505 110.499H82.7334V115.652H130.505V110.499Z" fill="#FD8D1F"/>
<path d="M130.596 119.516H82.8252V124.668H130.596V119.516Z" fill="#FD8D1F"/>
<path d="M106.803 128.532H82.9175V133.684H106.803V128.532Z" fill="#FD8D1F"/>
<path d="M144.421 154.551H133.376V159.703H144.421V154.551Z" fill="#FD8D1F"/>
<path d="M52.8564 73.5317C52.8564 73.5317 75.2017 70.1828 78.5407 75.0774C81.8797 79.9721 54.9112 82.5482 54.9112 82.5482L52.8564 73.5317Z" fill="#A0616A"/>
<path d="M11.7616 49.5737H10.1523C9.49037 49.5718 8.85221 49.8209 8.36572 50.271C6.83804 51.6938 3.60782 55.3653 2.25843 61.9391C0.460534 70.698 -2.62158 87.7005 4.31317 88.9885C11.2479 90.2766 56.7091 84.0939 56.7091 84.0939L53.3701 72.2437L20.4943 72.5013C20.4943 72.5013 21.0079 66.8338 19.9806 63.2272C18.9532 59.6206 11.7616 49.5737 11.7616 49.5737Z" fill="#575A89"/>
<path d="M105.124 34.7609C110.94 34.7609 115.654 30.0321 115.654 24.1988C115.654 18.3654 110.94 13.6366 105.124 13.6366C99.3079 13.6366 94.5933 18.3654 94.5933 24.1988C94.5933 30.0321 99.3079 34.7609 105.124 34.7609Z" fill="#D0CDE1"/>
<path d="M153.154 34.7609C158.969 34.7609 163.684 30.0321 163.684 24.1988C163.684 18.3654 158.969 13.6366 153.154 13.6366C147.338 13.6366 142.623 18.3654 142.623 24.1988C142.623 30.0321 147.338 34.7609 153.154 34.7609Z" fill="#3F3D56"/>
<path d="M201.183 35.0185C199.049 35.0185 196.964 34.3839 195.19 33.1951C193.416 32.0062 192.033 30.3163 191.217 28.3393C190.4 26.3622 190.187 24.1867 190.603 22.0879C191.019 19.9891 192.046 18.0612 193.555 16.548C195.064 15.0348 196.986 14.0044 199.078 13.5869C201.171 13.1694 203.34 13.3837 205.311 14.2026C207.282 15.0215 208.967 16.4083 210.152 18.1876C211.338 19.9669 211.97 22.0588 211.97 24.1987C211.967 27.0673 210.83 29.8175 208.807 31.8459C206.785 33.8743 204.043 35.0153 201.183 35.0185ZM201.183 13.8942C199.151 13.8942 197.165 14.4986 195.475 15.6308C193.786 16.7631 192.469 18.3725 191.691 20.2554C190.914 22.1383 190.71 24.2102 191.107 26.2091C191.503 28.2079 192.481 30.044 193.918 31.4852C195.355 32.9263 197.186 33.9077 199.179 34.3053C201.172 34.7029 203.237 34.4988 205.114 33.7189C206.992 32.939 208.596 31.6182 209.725 29.9236C210.854 28.2291 211.457 26.2368 211.457 24.1987C211.454 21.4668 210.37 18.8476 208.444 16.9158C206.518 14.984 203.907 13.8973 201.183 13.8942Z" fill="#3F3D56"/>
<path d="M249.213 35.0185C247.079 35.0185 244.994 34.3839 243.22 33.1951C241.446 32.0062 240.063 30.3163 239.246 28.3393C238.43 26.3622 238.216 24.1867 238.633 22.0879C239.049 19.9891 240.076 18.0612 241.585 16.548C243.093 15.0348 245.016 14.0044 247.108 13.5869C249.201 13.1694 251.37 13.3837 253.341 14.2026C255.312 15.0215 256.997 16.4083 258.182 18.1876C259.367 19.9669 260 22.0588 260 24.1987C259.997 27.0673 258.859 29.8175 256.837 31.8459C254.815 33.8743 252.073 35.0153 249.213 35.0185ZM249.213 13.8942C247.181 13.8942 245.194 14.4986 243.505 15.6308C241.815 16.7631 240.499 18.3725 239.721 20.2554C238.943 22.1383 238.74 24.2102 239.136 26.2091C239.533 28.2079 240.511 30.044 241.948 31.4852C243.385 32.9263 245.215 33.9077 247.208 34.3053C249.201 34.7029 251.267 34.4988 253.144 33.7189C255.022 32.939 256.626 31.6182 257.755 29.9236C258.884 28.2291 259.486 26.2368 259.486 24.1987C259.483 21.4668 258.4 18.8476 256.474 16.9158C254.548 14.984 251.936 13.8973 249.213 13.8942Z" fill="#3F3D56"/>
<path d="M103.672 28.6922L99.1084 22.5896L100.752 21.3528L103.894 25.5545L118.339 11.0668L119.791 12.5239L103.672 28.6922Z" fill="#3F3D56"/>
<path d="M213.973 163.283H4.23682V164H213.973V163.283Z" fill="#3F3D56"/>
</g>
<defs>
<clipPath id="clip0">
<rect width="260" height="164" fill="white"/>
</clipPath>
</defs>
</svg>
