<svg width="260" height="175" viewBox="0 0 260 175" fill="none" xmlns="http://www.w3.org/2000/svg">
<g clip-path="url(#clip0)">
<path opacity="0.1" d="M175.16 175C192.957 175 207.385 173.983 207.385 172.729C207.385 171.475 192.957 170.458 175.16 170.458C157.363 170.458 142.935 171.475 142.935 172.729C142.935 173.983 157.363 175 175.16 175Z" fill="#3677D0"/>
<path opacity="0.1" d="M260 103.127C259.995 111.933 258.08 120.634 254.389 128.628C250.697 136.622 245.317 143.719 238.618 149.43C231.919 155.141 224.062 159.33 215.589 161.707C207.116 164.085 198.228 164.594 189.539 163.2H93.1571C89.4344 163.711 85.6813 163.967 81.9238 163.967C79.2262 163.967 76.5613 163.839 73.9288 163.581C53.6742 161.613 34.8788 152.164 21.2099 137.077C7.54105 121.99 -0.0207163 102.348 4.2628e-05 81.9837C4.2628e-05 36.7042 36.6796 0 81.9238 0C118.363 0 149.24 23.8093 159.881 56.73C170.857 47.3849 184.804 42.2635 199.215 42.2863C232.781 42.2863 260 69.5249 260 103.127Z" fill="#3677D0"/>
<path opacity="0.1" d="M236.646 151.061C230.049 156.216 222.461 159.954 214.356 162.043C206.251 164.131 197.803 164.525 189.539 163.2H93.157C89.4343 163.711 85.6812 163.967 81.9237 163.967C79.2262 163.967 76.5612 163.839 73.9287 163.581C57.9668 162.015 42.815 155.796 30.3504 145.695C17.8859 135.595 8.65648 122.057 3.80566 106.758C11.6531 89.9777 31.814 78.0367 55.4516 78.0367C78.4856 78.0367 98.229 89.3781 106.469 105.486C110.527 104.748 114.643 104.378 118.767 104.38C142.64 104.38 162.967 116.569 170.642 133.602C176.999 131.673 183.608 130.7 190.251 130.715C209.722 130.724 226.836 138.825 236.646 151.061Z" fill="#3677D0"/>
<path d="M79.8132 152.892C79.8132 158.71 77.5825 161.869 73.9288 163.581C60.1662 162.251 46.968 157.439 35.5767 149.596C35.8687 147.618 36.4283 145.689 37.2401 143.862L47.6315 147.096L38.377 141.646C39.6286 139.507 41.2278 137.593 43.1087 135.982L60.5668 141.414L46.8894 133.374C49.7058 131.83 52.823 130.914 56.0268 130.69C59.2305 130.466 62.4448 130.939 65.4484 132.077C68.4521 133.214 71.174 134.989 73.4269 137.279C75.6798 139.57 77.4103 142.322 78.4993 145.345L78.5469 145.481C78.5832 145.583 78.6196 145.686 78.6536 145.79C78.7761 146.152 78.8889 146.518 78.9917 146.887C79.0303 147.019 79.0666 147.15 79.0984 147.284C79.1302 147.418 79.1642 147.539 79.1937 147.666C79.2232 147.793 79.2482 147.893 79.2709 147.998C79.2868 148.066 79.3026 148.134 79.3163 148.202C79.3412 148.311 79.3639 148.429 79.3843 148.531C79.4161 148.69 79.4479 148.851 79.4751 149.01C79.5023 149.169 79.5318 149.342 79.5568 149.508C79.5818 149.674 79.6113 149.876 79.634 150.062C79.6567 150.248 79.6748 150.393 79.6907 150.559C79.6907 150.611 79.702 150.661 79.7066 150.714C79.7225 150.859 79.7338 151.004 79.7452 151.15C79.7463 151.169 79.7463 151.188 79.7452 151.207C79.7588 151.388 79.7701 151.57 79.7792 151.752C79.7883 151.933 79.7951 152.11 79.7996 152.283C79.8008 152.3 79.8008 152.318 79.7996 152.335C79.811 152.517 79.8132 152.703 79.8132 152.892Z" fill="#FD8D1F"/>
<path opacity="0.1" d="M79.8131 152.892C79.8131 158.71 77.5823 161.869 73.9286 163.581C65.0286 162.724 56.3307 160.403 48.1851 156.714L48.5572 156.466C50.2388 155.351 51.9772 154.211 53.956 153.832C55.6966 153.498 57.4917 153.78 59.2595 153.68C62.337 153.491 65.2341 152.163 67.3861 149.953C68.6501 148.645 69.6554 147.039 71.1645 146.04C72.803 144.964 74.8817 144.732 76.8243 145C77.3886 145.082 77.9478 145.197 78.4991 145.343L78.5468 145.479C78.5831 145.581 78.6194 145.683 78.6534 145.788C78.776 146.15 78.8887 146.515 78.9915 146.885C79.0301 147.017 79.0664 147.148 79.0982 147.282C79.13 147.416 79.164 147.537 79.1935 147.664C79.223 147.791 79.248 147.891 79.2707 147.995C79.2866 148.063 79.3024 148.132 79.3161 148.2C79.341 148.309 79.3637 148.427 79.3841 148.529C79.4159 148.688 79.4477 148.849 79.4749 149.008C79.5021 149.167 79.5317 149.34 79.5566 149.506C79.5816 149.671 79.6111 149.873 79.6338 150.06C79.6565 150.246 79.6746 150.391 79.6905 150.557C79.6905 150.609 79.7019 150.659 79.7064 150.712C79.7223 150.857 79.7336 151.002 79.745 151.148C79.7461 151.166 79.7461 151.185 79.745 151.204C79.7586 151.386 79.7699 151.568 79.779 151.749C79.7881 151.931 79.7949 152.108 79.7994 152.281C79.8006 152.298 79.8006 152.316 79.7994 152.333C79.8108 152.517 79.8131 152.703 79.8131 152.892Z" fill="black"/>
<path d="M212.298 156.668C212.3 157.261 212.239 157.851 212.117 158.431C212.094 158.54 212.069 158.646 212.044 158.751C211.399 161.338 209.582 163.229 207.412 163.35C207.34 163.35 207.267 163.35 207.185 163.35C204.891 163.35 202.951 161.369 202.311 158.642C202.292 158.569 202.277 158.497 202.261 158.415C202.138 157.835 202.077 157.245 202.079 156.652C202.079 152.957 204.364 149.964 207.185 149.964C210.006 149.964 212.298 152.973 212.298 156.668Z" fill="#3F3D56"/>
<path opacity="0.1" d="M212.298 156.668C212.3 157.261 212.239 157.851 212.117 158.431C212.094 158.54 212.069 158.646 212.044 158.751C211.967 158.751 211.892 158.751 211.817 158.751C211.255 158.721 210.697 158.645 210.147 158.524C209.66 158.674 209.162 158.788 208.658 158.864C208.272 158.923 207.882 158.959 207.492 158.973C207.36 158.973 207.229 158.973 207.097 158.973C206.629 158.973 206.162 158.942 205.699 158.88C204.95 158.78 204.214 158.597 203.505 158.335C203.116 158.465 202.721 158.571 202.32 158.653C202.302 158.581 202.286 158.508 202.27 158.426C202.148 157.847 202.087 157.256 202.088 156.664C202.088 152.969 204.374 149.976 207.195 149.976C210.015 149.976 212.298 152.973 212.298 156.668Z" fill="black"/>
<path d="M223.191 144.21C223.193 142.584 222.812 140.98 222.079 139.529L216.074 141.398L221.346 138.298C220.462 137.02 219.303 135.956 217.953 135.186C216.603 134.416 215.098 133.959 213.548 133.849C213.302 133.475 213.031 133.117 212.738 132.777L204.115 135.464L211.188 131.301C209.835 130.262 208.247 129.572 206.564 129.294C204.881 129.015 203.156 129.156 201.54 129.703C199.925 130.251 198.469 131.189 197.302 132.434C196.135 133.678 195.292 135.192 194.849 136.84L202.236 145.35L194.223 139.549C192.193 140.99 190.748 143.113 190.151 145.53C189.554 147.948 189.845 150.5 190.97 152.721C192.096 154.942 193.982 156.684 196.283 157.631C198.585 158.577 201.15 158.664 203.511 157.877C205.647 158.662 207.98 158.727 210.156 158.06C211.672 158.393 213.244 158.381 214.756 158.025C216.267 157.669 217.679 156.979 218.889 156.005C220.099 155.032 221.075 153.799 221.746 152.398C222.417 150.997 222.766 149.463 222.767 147.909C222.767 147.682 222.767 147.455 222.744 147.228C223.041 146.249 223.192 145.232 223.191 144.21Z" fill="#FD8D1F"/>
<path opacity="0.1" d="M223.012 146.135C219.841 145.534 216.589 145.492 213.403 146.013C209.797 146.61 206.112 147.923 202.585 146.964C200.516 146.401 198.727 145.098 196.705 144.373C194.755 143.692 192.653 143.566 190.635 144.01C189.866 145.851 189.643 147.875 189.992 149.839C190.342 151.804 191.249 153.626 192.606 155.088C193.963 156.551 195.711 157.591 197.643 158.086C199.575 158.58 201.608 158.508 203.5 157.877C205.635 158.662 207.969 158.727 210.145 158.06C211.662 158.395 213.235 158.384 214.748 158.029C216.261 157.675 217.675 156.985 218.886 156.011C220.097 155.037 221.074 153.803 221.746 152.401C222.418 150.999 222.766 149.464 222.767 147.909C222.767 147.682 222.767 147.455 222.744 147.228C222.853 146.869 222.943 146.504 223.012 146.135Z" fill="black"/>
<path d="M161.923 56.8708H160.952C160.665 56.8708 160.432 57.1036 160.432 57.3909V72.9337C160.432 73.2209 160.665 73.4537 160.952 73.4537H161.923C162.21 73.4537 162.443 73.2209 162.443 72.9337V57.3909C162.443 57.1036 162.21 56.8708 161.923 56.8708Z" fill="#3A3768"/>
<path d="M94.2215 43.8783H94.1329C93.8459 43.8783 93.6133 44.1111 93.6133 44.3984V48.8177C93.6133 49.105 93.8459 49.3378 94.1329 49.3378H94.2215C94.5085 49.3378 94.7411 49.105 94.7411 48.8177V44.3984C94.7411 44.1111 94.5085 43.8783 94.2215 43.8783Z" fill="#3A3768"/>
<path d="M94.3234 53.8754H94.0919C93.8049 53.8754 93.5723 54.1082 93.5723 54.3954V62.8572C93.5723 63.1444 93.8049 63.3773 94.0919 63.3773H94.3234C94.6104 63.3773 94.8431 63.1444 94.8431 62.8572V54.3954C94.8431 54.1082 94.6104 53.8754 94.3234 53.8754Z" fill="#3A3768"/>
<path d="M94.2826 66.702H94.1124C93.8254 66.702 93.5928 66.9349 93.5928 67.2221V75.7657C93.5928 76.0529 93.8254 76.2857 94.1124 76.2857H94.2826C94.5696 76.2857 94.8023 76.0529 94.8023 75.7657V67.2221C94.8023 66.9349 94.5696 66.702 94.2826 66.702Z" fill="#3A3768"/>
<path d="M152.668 25.8373H103.101C98.2144 25.8373 94.2529 29.8017 94.2529 34.692V153.786C94.2529 158.677 98.2144 162.641 103.101 162.641H152.668C157.555 162.641 161.517 158.677 161.517 153.786V34.692C161.517 29.8017 157.555 25.8373 152.668 25.8373Z" fill="#3F3D56"/>
<path d="M129.912 29.9229H122.275C121.79 29.9229 121.397 30.3164 121.397 30.8018V30.9517C121.397 31.4371 121.79 31.8306 122.275 31.8306H129.912C130.397 31.8306 130.79 31.4371 130.79 30.9517V30.8018C130.79 30.3164 130.397 29.9229 129.912 29.9229Z" fill="#E6E8EC"/>
<path d="M133.29 31.96C133.888 31.96 134.373 31.475 134.373 30.8767C134.373 30.2785 133.888 29.7935 133.29 29.7935C132.693 29.7935 132.208 30.2785 132.208 30.8767C132.208 31.475 132.693 31.96 133.29 31.96Z" fill="#E6E8EC"/>
<path d="M152.013 29.4006H144.32V30.3294C144.32 31.4967 143.856 32.6162 143.031 33.4416C142.207 34.267 141.088 34.7307 139.922 34.7307H115.372C114.205 34.7307 113.087 34.267 112.262 33.4416C111.437 32.6162 110.974 31.4967 110.974 30.3294V29.4006H103.748C103.047 29.4006 102.352 29.5389 101.704 29.8076C101.056 30.0762 100.467 30.4701 99.9714 30.9665C99.4755 31.463 99.0822 32.0523 98.814 32.7009C98.5458 33.3495 98.4079 34.0446 98.4082 34.7466V153.732C98.4079 154.434 98.5458 155.129 98.814 155.778C99.0822 156.426 99.4755 157.016 99.9714 157.512C100.467 158.008 101.056 158.402 101.704 158.671C102.352 158.94 103.047 159.078 103.748 159.078H152.013C153.429 159.078 154.788 158.515 155.79 157.512C156.792 156.51 157.355 155.15 157.355 153.732V34.7466C157.355 33.3287 156.792 31.9689 155.79 30.9664C154.788 29.9638 153.429 29.4006 152.013 29.4006Z" fill="#FD8D1F"/>
<path opacity="0.1" d="M134.693 50.7504H100.88V56.2009H134.693V50.7504Z" fill="black" stroke="#3677D0" stroke-miterlimit="10"/>
<path opacity="0.1" d="M109.05 87.995C113.06 87.995 116.311 84.7414 116.311 80.7278C116.311 76.7142 113.06 73.4606 109.05 73.4606C105.039 73.4606 101.788 76.7142 101.788 80.7278C101.788 84.7414 105.039 87.995 109.05 87.995Z" fill="black" stroke="#3677D0" stroke-miterlimit="10"/>
<path d="M107.007 79.3652V82.0904H108.822L111.092 84.4637V76.9897L108.822 79.3652H107.007Z" fill="white"/>
<path opacity="0.1" d="M128.339 87.995C132.349 87.995 135.6 84.7414 135.6 80.7278C135.6 76.7142 132.349 73.4606 128.339 73.4606C124.328 73.4606 121.077 76.7142 121.077 80.7278C121.077 84.7414 124.328 87.995 128.339 87.995Z" fill="black" stroke="#3677D0" stroke-miterlimit="10"/>
<path d="M128.339 83.7619C128.167 83.761 127.999 83.8111 127.856 83.9059C127.713 84.0007 127.601 84.1359 127.535 84.2943C127.468 84.4527 127.45 84.6273 127.483 84.7959C127.516 84.9645 127.599 85.1195 127.72 85.2413C127.841 85.363 127.995 85.4461 128.163 85.48C128.332 85.5138 128.506 85.4969 128.665 85.4314C128.824 85.3658 128.959 85.2547 129.055 85.1119C129.15 84.9691 129.201 84.8012 129.201 84.6294C129.201 84.4001 129.11 84.1802 128.949 84.0176C128.787 83.855 128.568 83.7631 128.339 83.7619ZM125.797 75.9587C125.625 75.9574 125.457 76.0071 125.314 76.1016C125.17 76.1961 125.058 76.3311 124.991 76.4895C124.925 76.6479 124.906 76.8225 124.939 76.9913C124.972 77.16 125.054 77.3152 125.175 77.4372C125.296 77.5592 125.45 77.6425 125.619 77.6766C125.787 77.7106 125.962 77.6938 126.12 77.6284C126.279 77.5629 126.415 77.4517 126.511 77.3089C126.606 77.1661 126.657 76.9981 126.657 76.8262C126.657 76.5973 126.567 76.3777 126.406 76.2152C126.245 76.0527 126.026 75.9605 125.797 75.9587ZM125.797 78.5613C125.625 78.5599 125.457 78.6097 125.313 78.7043C125.17 78.7989 125.058 78.9341 124.991 79.0926C124.924 79.2511 124.906 79.4259 124.939 79.5947C124.972 79.7635 125.054 79.9187 125.176 80.0406C125.297 80.1625 125.451 80.2457 125.62 80.2794C125.788 80.3132 125.963 80.2961 126.122 80.2303C126.281 80.1645 126.416 80.053 126.512 79.9098C126.607 79.7667 126.658 79.5985 126.657 79.4266C126.657 79.1979 126.567 78.9785 126.405 78.8163C126.244 78.6542 126.026 78.5625 125.797 78.5613ZM125.797 81.1616C125.625 81.1603 125.457 81.21 125.314 81.3045C125.17 81.399 125.058 81.534 124.991 81.6924C124.925 81.8508 124.906 82.0254 124.939 82.1942C124.972 82.3629 125.054 82.5181 125.175 82.6401C125.296 82.7621 125.45 82.8454 125.619 82.8795C125.787 82.9135 125.962 82.8967 126.12 82.8313C126.279 82.7658 126.415 82.6546 126.511 82.5118C126.606 82.369 126.657 82.201 126.657 82.0291C126.657 81.8002 126.567 81.5806 126.406 81.4181C126.245 81.2556 126.026 81.1634 125.797 81.1616ZM130.88 77.6938C131.052 77.6947 131.22 77.6446 131.363 77.5498C131.506 77.455 131.618 77.3198 131.684 77.1614C131.751 77.0029 131.769 76.8284 131.736 76.6598C131.703 76.4912 131.621 76.3362 131.499 76.2144C131.378 76.0926 131.224 76.0096 131.056 75.9757C130.887 75.9419 130.713 75.9588 130.554 76.0243C130.396 76.0898 130.26 76.201 130.164 76.3438C130.069 76.4866 130.018 76.6545 130.018 76.8262C130.018 76.9399 130.04 77.0524 130.083 77.1575C130.126 77.2626 130.19 77.3582 130.27 77.4387C130.35 77.5193 130.445 77.5833 130.55 77.627C130.654 77.6708 130.767 77.6935 130.88 77.6938ZM128.339 81.1616C128.167 81.1607 127.999 81.2108 127.856 81.3056C127.713 81.4004 127.601 81.5355 127.535 81.694C127.468 81.8524 127.45 82.027 127.483 82.1956C127.516 82.3642 127.599 82.5192 127.72 82.6409C127.841 82.7627 127.995 82.8458 128.163 82.8796C128.332 82.9135 128.506 82.8966 128.665 82.8311C128.824 82.7655 128.959 82.6543 129.055 82.5116C129.15 82.3688 129.201 82.2009 129.201 82.0291C129.201 81.7998 129.11 81.5799 128.949 81.4173C128.787 81.2547 128.568 81.1628 128.339 81.1616ZM130.88 81.1616C130.709 81.1607 130.541 81.2108 130.398 81.3056C130.254 81.4004 130.143 81.5355 130.076 81.694C130.01 81.8524 129.992 82.027 130.025 82.1956C130.058 82.3642 130.14 82.5192 130.261 82.6409C130.382 82.7627 130.537 82.8458 130.705 82.8796C130.873 82.9135 131.048 82.8966 131.207 82.8311C131.365 82.7655 131.501 82.6543 131.596 82.5116C131.692 82.3688 131.743 82.2009 131.743 82.0291C131.743 81.7998 131.652 81.5799 131.49 81.4173C131.329 81.2547 131.109 81.1628 130.88 81.1616ZM130.88 78.5613C130.709 78.5604 130.54 78.6106 130.397 78.7054C130.254 78.8003 130.142 78.9356 130.076 79.0942C130.01 79.2528 129.992 79.4275 130.025 79.5961C130.058 79.7647 130.141 79.9197 130.262 80.0414C130.383 80.1631 130.538 80.246 130.706 80.2796C130.875 80.3132 131.049 80.296 131.208 80.2301C131.367 80.1642 131.502 80.0527 131.597 79.9096C131.693 79.7665 131.743 79.5984 131.743 79.4266C131.743 79.1975 131.652 78.9777 131.49 78.8155C131.329 78.6533 131.109 78.5619 130.88 78.5613ZM128.339 78.5613C128.167 78.5604 127.999 78.6106 127.856 78.7054C127.712 78.8003 127.601 78.9356 127.534 79.0942C127.468 79.2528 127.45 79.4275 127.484 79.5961C127.517 79.7647 127.599 79.9197 127.72 80.0414C127.842 80.1631 127.996 80.246 128.165 80.2796C128.333 80.3132 128.508 80.296 128.666 80.2301C128.825 80.1642 128.961 80.0527 129.056 79.9096C129.151 79.7665 129.201 79.5984 129.201 79.4266C129.201 79.1975 129.11 78.9777 128.949 78.8155C128.787 78.6533 128.568 78.5619 128.339 78.5613ZM128.339 75.9587C128.167 75.9578 127.999 76.0079 127.856 76.1027C127.713 76.1975 127.601 76.3326 127.535 76.4911C127.468 76.6495 127.45 76.8241 127.483 76.9927C127.516 77.1613 127.599 77.3163 127.72 77.438C127.841 77.5598 127.995 77.6429 128.163 77.6767C128.332 77.7106 128.506 77.6937 128.665 77.6282C128.824 77.5626 128.959 77.4514 129.055 77.3087C129.15 77.1659 129.201 76.998 129.201 76.8262C129.201 76.5969 129.11 76.377 128.949 76.2144C128.787 76.0518 128.568 75.9599 128.339 75.9587Z" fill="white"/>
<g opacity="0.4">
<path opacity="0.1" d="M109.05 109.797C113.06 109.797 116.311 106.543 116.311 102.53C116.311 98.516 113.06 95.2623 109.05 95.2623C105.039 95.2623 101.788 98.516 101.788 102.53C101.788 106.543 105.039 109.797 109.05 109.797Z" fill="black" stroke="#3677D0" stroke-miterlimit="10"/>
<path opacity="0.4" d="M112.454 102.984H109.503V105.936H108.596V102.984H105.646V102.075H108.596V99.123H109.503V102.075H112.454V102.984Z" fill="white"/>
</g>
<path opacity="0.1" d="M147.628 87.995C151.639 87.995 154.89 84.7414 154.89 80.7278C154.89 76.7142 151.639 73.4606 147.628 73.4606C143.618 73.4606 140.366 76.7142 140.366 80.7278C140.366 84.7414 143.618 87.995 147.628 87.995Z" fill="black" stroke="#3677D0" stroke-miterlimit="10"/>
<path d="M147.629 76.2971C147.085 76.3042 146.548 76.4184 146.049 76.6331C145.549 76.8479 145.097 77.159 144.718 77.5488C144.338 77.9385 144.039 78.3992 143.838 78.9045C143.637 79.4098 143.537 79.9499 143.544 80.4939V83.7573C143.541 83.9387 143.575 84.1187 143.642 84.2872C143.709 84.4556 143.809 84.6092 143.935 84.7391C144.062 84.869 144.212 84.9727 144.379 85.0443C144.545 85.1159 144.724 85.1539 144.905 85.1563H146.267V81.4068H144.452V80.4984C144.452 79.6552 144.786 78.8465 145.382 78.2502C145.978 77.654 146.786 77.319 147.629 77.319C148.471 77.319 149.279 77.654 149.875 78.2502C150.471 78.8465 150.806 79.6552 150.806 80.4984V81.4068H148.99V85.154H150.352C150.533 85.152 150.712 85.1141 150.879 85.0426C151.045 84.9711 151.196 84.8674 151.323 84.7375C151.449 84.6075 151.549 84.4538 151.616 84.2852C151.683 84.1167 151.716 83.9365 151.713 83.7551V80.4939C151.721 79.9499 151.621 79.4098 151.419 78.9045C151.218 78.3992 150.919 77.9385 150.54 77.5488C150.16 77.159 149.708 76.8479 149.209 76.6331C148.709 76.4184 148.172 76.3042 147.629 76.2971Z" fill="white"/>
<g opacity="0.4">
<path opacity="0.1" d="M128.339 109.797C132.349 109.797 135.6 106.543 135.6 102.53C135.6 98.516 132.349 95.2623 128.339 95.2623C124.328 95.2623 121.077 98.516 121.077 102.53C121.077 106.543 124.328 109.797 128.339 109.797Z" fill="black" stroke="#3677D0" stroke-miterlimit="10"/>
<path opacity="0.4" d="M131.062 101.751V99.9339C131.061 99.865 131.047 99.7969 131.019 99.7336C130.992 99.6703 130.953 99.613 130.904 99.5649C130.854 99.5168 130.796 99.4789 130.732 99.4534C130.668 99.4278 130.6 99.4152 130.531 99.4161H124.1C123.961 99.4148 123.827 99.4686 123.728 99.5657C123.629 99.6627 123.573 99.7951 123.571 99.9339V105.114C123.573 105.253 123.63 105.385 123.729 105.482C123.828 105.578 123.961 105.632 124.1 105.632H130.529C130.668 105.633 130.801 105.579 130.901 105.482C131 105.385 131.057 105.253 131.06 105.114V103.297L133.102 105.368V99.6795L131.062 101.751Z" fill="white"/>
</g>
<path opacity="0.1" d="M147.628 109.797C151.639 109.797 154.89 106.543 154.89 102.53C154.89 98.516 151.639 95.2623 147.628 95.2623C143.618 95.2623 140.366 98.516 140.366 102.53C140.366 106.543 143.618 109.797 147.628 109.797Z" fill="black" stroke="#3677D0" stroke-miterlimit="10"/>
<path d="M147.27 104.401C146.879 104.623 146.438 104.739 145.989 104.739C145.54 104.739 145.098 104.623 144.708 104.401C143.705 104.707 143.09 105.723 142.863 106.615H149.115C148.888 105.723 148.275 104.707 147.27 104.401ZM145.99 99.6318C145.544 99.6313 145.108 99.7633 144.737 100.011C144.366 100.259 144.077 100.611 143.906 101.023C143.735 101.435 143.691 101.889 143.777 102.326C143.864 102.764 144.079 103.166 144.394 103.481C144.71 103.797 145.111 104.012 145.549 104.099C145.986 104.186 146.439 104.141 146.851 103.97C147.263 103.799 147.615 103.51 147.862 103.138C148.11 102.767 148.242 102.331 148.241 101.885C148.241 101.287 148.004 100.714 147.582 100.292C147.16 99.8691 146.587 99.6318 145.99 99.6318ZM145.99 103.602C145.651 103.595 145.322 103.49 145.042 103.299C144.762 103.107 144.544 102.839 144.415 102.525H147.563C147.434 102.839 147.217 103.108 146.937 103.299C146.658 103.491 146.329 103.597 145.99 103.604V103.602Z" fill="white"/>
<path d="M149.044 105.253H152.394C152.29 104.781 152.065 104.345 151.741 103.987C151.418 103.628 151.007 103.36 150.549 103.209C150.158 103.43 149.716 103.547 149.267 103.547C148.965 103.55 148.666 103.499 148.382 103.397C148.224 103.675 148.023 103.926 147.787 104.142C148.306 104.38 148.744 104.766 149.044 105.253ZM148.704 101.335H150.842C150.712 101.648 150.494 101.916 150.214 102.106C149.934 102.296 149.605 102.401 149.267 102.407C149.083 102.406 148.9 102.373 148.727 102.312C148.699 102.494 148.652 102.673 148.588 102.845C148.898 102.944 149.226 102.975 149.549 102.935C149.872 102.895 150.183 102.786 150.459 102.614C150.736 102.443 150.972 102.214 151.152 101.942C151.332 101.671 151.451 101.364 151.5 101.042C151.55 100.72 151.53 100.391 151.44 100.078C151.351 99.7648 151.195 99.4747 150.983 99.2276C150.771 98.9806 150.508 98.7824 150.212 98.6467C149.916 98.5111 149.594 98.4412 149.269 98.4418C148.89 98.4423 148.518 98.5383 148.186 98.7209C147.854 98.9034 147.573 99.1667 147.37 99.4864C147.71 99.6827 148.005 99.949 148.235 100.268C148.465 100.586 148.625 100.95 148.704 101.335Z" fill="white"/>
<path d="M128.339 138.866C132.349 138.866 135.6 135.612 135.6 131.599C135.6 127.585 132.349 124.331 128.339 124.331C124.328 124.331 121.077 127.585 121.077 131.599C121.077 135.612 124.328 138.866 128.339 138.866Z" fill="#FF6F61"/>
<path d="M124.61 133.393C125.008 133.017 125.46 132.705 125.952 132.466C126.028 132.432 126.092 132.377 126.137 132.306C126.182 132.236 126.205 132.154 126.204 132.071L126.242 130.658C127.63 130.246 129.113 130.285 130.477 130.772L130.438 132.185C130.437 132.267 130.457 132.347 130.497 132.419C130.537 132.491 130.595 132.551 130.665 132.593C131.158 132.85 131.605 133.188 131.986 133.593C132.027 133.636 132.076 133.671 132.13 133.695C132.185 133.72 132.244 133.733 132.303 133.735C132.363 133.737 132.422 133.726 132.478 133.705C132.534 133.684 132.585 133.652 132.628 133.611L133.781 132.516C133.868 132.433 133.919 132.32 133.922 132.2C133.925 132.08 133.881 131.963 133.799 131.876C133.102 131.139 132.267 130.548 131.342 130.134C130.416 129.721 129.419 129.494 128.406 129.467C127.393 129.439 126.384 129.612 125.438 129.975C124.492 130.337 123.626 130.883 122.89 131.58C122.847 131.622 122.812 131.671 122.788 131.725C122.764 131.78 122.751 131.839 122.749 131.898C122.748 131.958 122.758 132.018 122.779 132.073C122.801 132.129 122.833 132.18 122.874 132.223L123.966 133.377C124.007 133.42 124.056 133.455 124.111 133.479C124.165 133.503 124.224 133.517 124.284 133.518C124.343 133.519 124.403 133.509 124.458 133.488C124.514 133.466 124.565 133.434 124.608 133.393H124.61Z" fill="white"/>
<path opacity="0.1" d="M148.536 60.97C151.669 60.97 154.209 58.4281 154.209 55.2925C154.209 52.1569 151.669 49.6149 148.536 49.6149C145.402 49.6149 142.862 52.1569 142.862 55.2925C142.862 58.4281 145.402 60.97 148.536 60.97Z" fill="black" stroke="#3677D0" stroke-miterlimit="10"/>
<path d="M149.818 56.5665C149.427 56.7882 148.985 56.9048 148.536 56.9048C148.086 56.9048 147.645 56.7882 147.254 56.5665C146.251 56.8731 145.636 57.8882 145.409 58.783H151.663C151.436 57.8882 150.821 56.8731 149.818 56.5665ZM148.536 51.7974C148.09 51.7969 147.654 51.9288 147.283 52.1763C146.912 52.4238 146.623 52.7759 146.452 53.1879C146.281 53.5999 146.236 54.0534 146.323 54.491C146.41 54.9286 146.624 55.3307 146.939 55.6463C147.254 55.9619 147.656 56.1769 148.093 56.2641C148.53 56.3513 148.984 56.3068 149.395 56.1362C149.807 55.9655 150.159 55.6765 150.407 55.3056C150.655 54.9347 150.787 54.4986 150.787 54.0525C150.786 53.455 150.549 52.8821 150.127 52.4593C149.705 52.0366 149.133 51.7986 148.536 51.7974ZM148.536 55.7694C148.197 55.7625 147.868 55.657 147.588 55.4659C147.308 55.2747 147.091 55.0061 146.961 54.6929H150.111C149.981 55.0062 149.763 55.2749 149.483 55.4664C149.204 55.658 148.875 55.764 148.536 55.7716V55.7694Z" fill="white"/>
<path opacity="0.1" d="M91.8133 15.0773C91.2846 14.7707 90.5697 15.0637 90.2066 15.5565C89.8435 16.0493 89.7527 16.692 89.6506 17.2892C89.4486 18.6314 89.3011 20.1734 90.2066 21.1863C88.727 16.6965 84.472 13.2559 79.7676 12.754" stroke="#3677D0" stroke-width="3" stroke-miterlimit="10"/>
<path opacity="0.1" d="M183.503 89.1692C183.162 88.9716 182.704 89.1692 182.47 89.478C182.263 89.8147 182.14 90.1964 182.112 90.5908C181.982 91.4561 181.885 92.4462 182.47 93.0889C181.972 91.6476 181.079 90.3753 179.893 89.4169C178.708 88.4585 177.277 87.8526 175.764 87.668" stroke="#3677D0" stroke-width="3" stroke-miterlimit="10"/>
<path opacity="0.1" d="M67.8786 59.8095C67.5382 59.6142 67.0798 59.8095 66.8461 60.1183C66.6386 60.4557 66.5156 60.8382 66.4875 61.2334C66.3582 62.0964 66.2606 63.0866 66.8461 63.7315C66.3472 62.2905 65.4543 61.0184 64.2688 60.0601C63.0833 59.1018 61.6528 58.4956 60.1401 58.3106" stroke="#3677D0" stroke-width="3" stroke-miterlimit="10"/>
<path d="M158.14 166.004C158.367 166.434 158.794 166.697 159.204 166.931C162.058 168.568 165.065 169.923 168.182 170.976C168.26 171.021 168.346 171.048 168.436 171.055C168.525 171.062 168.615 171.048 168.699 171.016C168.782 170.983 168.858 170.932 168.919 170.867C168.981 170.801 169.026 170.723 169.053 170.637C169.412 170.033 169.805 169.048 169.712 168.251C170.007 168.072 170.221 167.785 170.308 167.451C170.431 167.045 170.618 166.662 170.862 166.316C171.286 165.675 171.799 165.032 171.867 164.254C171.862 163.976 171.888 163.698 171.947 163.427C172.067 163.068 172.387 162.832 172.628 162.546C173.002 162.092 173.181 161.506 173.352 160.936C174.06 158.567 174.768 156.198 175.358 153.793C175.548 153.014 175.725 152.233 175.986 151.477C176.213 150.814 176.504 150.178 176.792 149.542C177.823 147.237 179.022 145.012 180.38 142.883C180.592 143.598 180.849 144.299 181.149 144.982C181.303 145.334 181.469 145.681 181.626 146.033C182.218 147.359 182.111 149.063 182.84 150.309C183.142 150.821 183.44 151.332 183.734 151.842C183.901 152.093 184.03 152.366 184.117 152.653C184.165 152.853 184.17 153.062 184.204 153.264C184.358 154.172 185.096 154.813 185.504 155.624C185.878 156.364 185.958 157.213 186.185 158.029C186.723 159.914 188.043 161.551 188.177 163.515C188.194 164.046 188.181 164.576 188.139 165.105C188.105 166.031 188.166 166.958 188.323 167.871C188.335 167.963 188.359 168.053 188.395 168.139C187.233 169.871 185.442 171.081 183.403 171.514C183.017 171.591 182.574 171.673 182.372 172.027C182.13 172.45 182.404 173.031 182.826 173.258C183.248 173.485 183.734 173.462 184.188 173.422C187.444 173.149 190.665 172.554 193.803 171.646C193.962 171.613 194.107 171.534 194.221 171.419C194.332 171.253 194.382 171.052 194.359 170.853C194.357 170.119 194.187 169.396 193.86 168.739L194.087 168.659C194.214 167.751 193.746 166.872 193.383 166.029C192.752 164.56 192.407 162.973 191.908 161.444C190.946 158.492 189.391 155.737 189.017 152.649C188.915 151.799 188.661 150.936 188.606 150.082C188.497 148.343 188.379 146.594 188 144.9C187.683 143.505 187.181 142.175 186.866 140.764C186.55 139.354 186.448 137.871 186.911 136.522C187.043 136.136 187.22 135.77 187.34 135.387C187.794 133.885 187.36 132.259 186.92 130.751C186.781 130.275 186.643 129.799 186.507 129.325C186.323 128.701 186.142 128.074 185.942 127.454C185.969 127.429 185.994 127.404 186.021 127.374C186.421 126.92 186.416 126.225 186.702 125.683C186.843 125.403 187.056 125.174 187.206 124.901C187.489 124.312 187.562 123.644 187.413 123.007C187.292 122.371 187.052 121.767 186.87 121.147C186.377 119.446 186.34 117.645 186.761 115.924C186.945 115.19 187.215 114.471 187.254 113.714C187.267 113.209 187.22 112.703 187.115 112.209C186.764 110.301 186.074 108.366 184.673 107.106C183.927 106.424 182.917 105.827 182.838 104.791C182.717 104.745 182.584 104.74 182.461 104.778C182.397 104.542 182.354 104.301 182.334 104.058H182.345C182.414 104.066 182.484 104.066 182.554 104.058C182.613 104.054 182.67 104.038 182.722 104.01C182.751 103.993 182.779 103.972 182.803 103.949C182.892 103.858 182.968 103.757 183.03 103.647C183.123 103.492 183.207 103.327 183.278 103.213C183.348 103.1 183.462 102.918 183.55 102.759C183.815 102.305 184.061 101.843 184.288 101.374V101.355C184.31 101.312 184.331 101.267 184.351 101.224L184.378 101.162L184.419 101.069C184.419 101.047 184.44 101.022 184.449 100.999C184.458 100.976 184.474 100.942 184.485 100.913L184.517 100.838C184.528 100.81 184.537 100.783 184.549 100.754C184.56 100.728 184.57 100.703 184.578 100.676C184.589 100.649 184.599 100.622 184.608 100.595C184.617 100.567 184.626 100.542 184.637 100.515C184.648 100.488 184.653 100.461 184.662 100.433L184.689 100.352C184.689 100.324 184.703 100.299 184.712 100.272L184.735 100.188L184.755 100.109L184.776 100.022C184.776 99.9973 184.776 99.9724 184.791 99.9451C184.807 99.9179 184.791 99.8861 184.807 99.8565C184.823 99.827 184.807 99.8066 184.807 99.7816L184.821 99.693V99.6181C184.821 99.5863 184.821 99.5568 184.821 99.5272C184.821 99.4977 184.821 99.4773 184.821 99.4523C184.821 99.4273 184.821 99.391 184.821 99.3615V99.3092C184.821 99.2774 184.821 99.2479 184.821 99.2161C184.821 99.1843 184.821 99.1707 184.821 99.148C184.821 99.1253 184.821 99.0844 184.821 99.0526C184.821 99.0208 184.821 99.0095 184.821 98.989C184.81 98.9 184.793 98.812 184.769 98.7256C184.616 98.1966 184.306 97.7269 183.879 97.3789C183.467 97.0419 183.008 96.7658 182.518 96.559C182.398 96.513 182.289 96.4444 182.195 96.3569C182.086 96.1982 181.996 96.0275 181.925 95.8482C181.726 95.4985 181.326 95.3418 180.952 95.2486C180.577 95.1555 180.176 95.0965 179.862 94.858C179.834 94.8339 179.802 94.8154 179.767 94.8035C179.719 94.7997 179.671 94.8099 179.629 94.8331L178.755 95.2214C178.746 95.1671 178.727 95.1151 178.698 95.0685C178.669 95.0218 178.631 94.9813 178.586 94.9494C178.541 94.9175 178.491 94.8948 178.437 94.8826C178.383 94.8705 178.328 94.869 178.274 94.8785C178.058 94.9307 177.862 95.0434 177.709 95.2032C177.682 95.1763 177.663 95.1427 177.654 95.1059C177.645 95.0692 177.646 95.0306 177.657 94.9943L176.976 95.4485C176.892 95.503 176.737 95.5166 176.749 95.4122C176.37 95.8261 176.042 96.2835 175.771 96.7748C175.686 96.9249 175.615 97.0822 175.557 97.2449C175.557 97.2789 175.537 97.313 175.528 97.3471C175.527 97.3538 175.527 97.3607 175.528 97.3675C175.528 97.397 175.514 97.4288 175.51 97.4606C175.509 97.4697 175.509 97.4788 175.51 97.4879C175.51 97.5265 175.51 97.5674 175.51 97.606C175.507 97.6498 175.507 97.6938 175.51 97.7377C175.517 97.8639 175.557 97.9861 175.626 98.092C175.695 98.198 175.79 98.2841 175.902 98.3418C175.989 98.3741 176.082 98.3888 176.175 98.3849C176.37 98.3618 176.563 98.3223 176.751 98.2668C176.812 98.2518 176.874 98.2412 176.937 98.235C176.967 98.2328 176.996 98.2328 177.026 98.235C177.144 98.2323 177.26 98.2717 177.352 98.3463L177.366 98.3599C176.87 98.7169 176.467 99.1875 176.191 99.7324C175.915 100.277 175.773 100.881 175.778 101.492C175.777 102.093 175.913 102.686 176.177 103.227C176.086 103.277 176.012 103.352 175.961 103.443C175.911 103.533 175.888 103.636 175.893 103.74C175.834 103.566 175.803 103.383 175.8 103.199C175.428 103.125 175.158 103.561 175.024 103.935C174.749 104.782 174.536 105.648 174.386 106.527C174.271 107.11 174.159 107.694 174.041 108.277C173.923 108.861 173.815 109.488 173.728 110.094C173.528 111.669 173.599 113.266 173.939 114.816C173.917 114.866 173.896 114.918 173.876 114.968C173.808 115.15 173.615 115.304 173.592 115.497C173.47 116.653 174.2 117.695 174.89 118.602C174.947 118.694 175.025 118.772 175.117 118.829C175.218 118.871 175.329 118.885 175.437 118.869C175.712 118.856 175.986 118.829 176.259 118.788C176.275 118.942 176.293 119.094 176.311 119.242C176.506 120.873 176.84 122.503 176.837 124.145C176.835 125.787 176.524 127.452 177.153 128.914C177.257 129.164 177.459 129.368 177.48 129.627H177.518C177.134 130.411 176.819 131.227 176.579 132.066C176.329 133.052 176.277 134.088 175.998 135.064C175.759 135.893 175.362 136.654 175.042 137.462C174.521 138.776 174.215 140.164 174.135 141.575C174.126 142.223 173.995 142.863 173.749 143.462C173.382 144.181 173.06 144.922 172.787 145.681C172.333 147.03 171.568 148.309 171.425 149.737C171.345 150.546 171.461 151.409 171.123 152.14C170.991 152.426 170.796 152.674 170.642 152.944C170.417 153.377 170.241 153.834 170.118 154.306L167.871 161.762C167.786 162.172 167.597 162.553 167.322 162.868C167.113 163.068 166.839 163.177 166.641 163.384C166.323 163.706 166.244 164.179 166.242 164.66C166.001 164.704 165.767 164.78 165.547 164.887C164.597 165.293 163.575 165.503 162.542 165.503C161.508 165.503 160.486 165.293 159.536 164.887C159.173 164.73 158.76 164.544 158.401 164.724C157.981 164.942 157.913 165.575 158.14 166.004ZM176.039 109.529C176.173 108.912 176.426 108.326 176.783 107.805C177.291 106.967 177.827 106.138 178.312 105.282L178.451 105.148C178.489 105.257 178.526 105.375 178.56 105.477C178.644 105.768 178.711 106.064 178.762 106.363C178.833 106.737 178.855 107.119 178.825 107.499L178.794 107.523C178.61 107.642 178.462 107.807 178.365 108.003C178.301 108.197 178.301 108.407 178.365 108.602L178.344 108.625L178.367 108.609C178.446 108.922 178.594 109.245 178.546 109.563C178.494 109.947 178.185 110.226 177.992 110.555C177.539 111.348 177.684 112.552 176.937 113.038L176.924 113.069C176.763 113.031 176.614 112.957 176.487 112.853C176.36 112.748 176.258 112.615 176.191 112.465C176.25 111.496 175.886 110.501 176.039 109.529Z" fill="url(#paint0_linear)"/>
<path d="M194.656 170.896C194.68 171.093 194.629 171.292 194.513 171.453C194.392 171.568 194.241 171.647 194.078 171.68C190.801 172.577 187.447 173.164 184.061 173.433C183.575 173.469 183.062 173.497 182.633 173.272C182.204 173.047 181.918 172.472 182.179 172.057C182.39 171.707 182.86 171.625 183.253 171.55C185.378 171.135 187.261 169.915 188.509 168.144C188.658 167.89 188.851 167.665 189.08 167.481C189.516 167.183 190.095 167.254 190.61 167.356C191.518 167.542 192.723 167.762 193.542 168.207C194.361 168.652 194.643 170.026 194.656 170.896Z" fill="#3F3D56"/>
<path opacity="0.1" d="M194.656 170.896C194.68 171.093 194.629 171.292 194.513 171.453C194.392 171.568 194.241 171.647 194.078 171.68C190.801 172.577 187.447 173.164 184.061 173.433C183.575 173.469 183.062 173.497 182.633 173.272C182.204 173.047 181.918 172.472 182.179 172.057C182.39 171.707 182.86 171.625 183.253 171.55C185.378 171.135 187.261 169.915 188.509 168.144C188.658 167.89 188.851 167.665 189.08 167.481C189.516 167.183 190.095 167.254 190.61 167.356C191.518 167.542 192.723 167.762 193.542 168.207C194.361 168.652 194.643 170.026 194.656 170.896Z" fill="black"/>
<path d="M168.284 170.676C168.196 170.854 168.045 170.993 167.86 171.067C167.697 171.094 167.529 171.074 167.376 171.01C164.14 169.976 161.008 168.64 158.022 167.02C157.595 166.793 157.151 166.529 156.912 166.111C156.674 165.693 156.747 165.051 157.185 164.839C157.552 164.662 157.983 164.839 158.36 165.001C160.369 165.812 162.614 165.812 164.624 165.001C164.887 164.868 165.172 164.785 165.466 164.755C165.99 164.744 166.441 165.114 166.827 165.484C167.49 166.136 168.377 166.979 168.822 167.796C169.267 168.614 168.745 169.938 168.284 170.676Z" fill="#3F3D56"/>
<path opacity="0.1" d="M168.284 170.676C168.196 170.854 168.045 170.993 167.86 171.067C167.697 171.094 167.529 171.074 167.376 171.01C164.14 169.976 161.008 168.64 158.022 167.02C157.595 166.793 157.151 166.529 156.912 166.111C156.674 165.693 156.747 165.051 157.185 164.839C157.552 164.662 157.983 164.839 158.36 165.001C160.369 165.812 162.614 165.812 164.624 165.001C164.887 164.868 165.172 164.785 165.466 164.755C165.99 164.744 166.441 165.114 166.827 165.484C167.49 166.136 168.377 166.979 168.822 167.796C169.267 168.614 168.745 169.938 168.284 170.676Z" fill="black"/>
<path d="M185.581 127.186C185.919 128.094 186.203 129.003 186.489 129.911L186.92 131.319C187.374 132.807 187.828 134.41 187.358 135.893C187.233 136.277 187.049 136.638 186.904 137.029C186.423 138.359 186.534 139.838 186.856 141.216C187.179 142.595 187.701 143.919 188.032 145.304C188.434 146.976 188.549 148.711 188.663 150.416C188.719 151.259 188.983 152.11 189.092 152.948C189.482 155.994 191.1 158.724 192.103 161.626C192.623 163.132 192.981 164.696 193.642 166.148C194.018 166.979 194.506 167.84 194.375 168.741C192.53 169.395 190.485 169.384 188.747 168.487C188.637 168.447 188.542 168.376 188.474 168.281C188.406 168.187 188.368 168.074 188.365 167.958C188.206 167.059 188.145 166.145 188.184 165.232C188.227 164.713 188.24 164.191 188.222 163.67C188.084 161.733 186.707 160.118 186.148 158.256C185.921 157.463 185.817 156.616 185.427 155.885C185 155.085 184.233 154.447 184.065 153.557C184.029 153.357 184.024 153.153 183.977 152.955C183.883 152.669 183.748 152.399 183.575 152.154L182.649 150.634C181.889 149.403 182 147.723 181.385 146.415C181.222 146.067 181.047 145.733 180.886 145.379C180.575 144.707 180.307 144.015 180.085 143.308C178.671 145.396 177.42 147.59 176.34 149.869C176.028 150.491 175.748 151.128 175.5 151.779C175.228 152.524 175.047 153.296 174.845 154.064C174.232 156.437 173.483 158.774 172.755 161.104C172.578 161.667 172.389 162.239 172.001 162.693C171.751 162.975 171.42 163.207 171.293 163.563C171.233 163.83 171.205 164.103 171.211 164.376C171.139 165.146 170.605 165.78 170.163 166.42C169.909 166.764 169.714 167.148 169.587 167.556C169.534 167.738 169.444 167.908 169.32 168.053C169.197 168.197 169.044 168.314 168.872 168.395C168.7 168.475 168.513 168.518 168.323 168.52C168.133 168.523 167.945 168.484 167.771 168.407H167.753C167.573 168.318 167.4 168.214 167.235 168.098C166.806 167.828 166.398 167.525 166.017 167.19C165.679 166.864 165.375 166.505 165.109 166.118C165.063 166.052 165.034 165.977 165.022 165.897C165.01 165.818 165.018 165.737 165.043 165.661C165.068 165.584 165.11 165.515 165.167 165.458C165.223 165.401 165.292 165.358 165.368 165.332C165.32 164.701 165.307 163.981 165.76 163.545C165.971 163.341 166.257 163.232 166.475 163.036C166.759 162.73 166.956 162.354 167.047 161.946C167.822 159.506 168.595 157.065 169.366 154.624C169.495 154.155 169.679 153.702 169.913 153.275C170.074 153.007 170.276 152.764 170.415 152.483C170.767 151.761 170.642 150.911 170.728 150.112C170.876 148.702 171.665 147.443 172.144 146.113C172.431 145.361 172.766 144.629 173.147 143.921C173.404 143.334 173.54 142.702 173.549 142.061C173.633 140.665 173.952 139.293 174.493 138.003C174.824 137.213 175.239 136.456 175.487 135.636C175.78 134.674 175.832 133.652 176.095 132.684C176.348 131.85 176.677 131.041 177.078 130.268C177.407 129.586 177.745 128.889 178.287 128.36C179.177 127.493 180.486 127.209 181.728 127.17C182.969 127.132 184.344 127.315 185.581 127.186Z" fill="#3F3D56"/>
<path d="M177.963 109.499C179.561 108.555 181.141 107.58 182.704 106.574C182.33 106.07 182.123 105.461 182.112 104.832C182.112 104.807 182.112 104.782 182.112 104.757C182.089 104.146 182.32 103.622 181.551 103.701C180.812 103.797 180.081 103.949 179.366 104.156C179.161 104.208 177.391 104.86 177.323 104.794C177.718 105.262 178.009 105.808 178.179 106.397C178.266 106.684 178.336 106.976 178.39 107.271C178.544 108.053 178.551 108.97 177.963 109.499Z" fill="#A0616A"/>
<path d="M175.818 119.976C176.022 121.583 176.37 123.194 176.367 124.81C176.365 126.427 176.041 128.074 176.696 129.523C176.805 129.768 177.014 129.959 177.037 130.227C177.945 130.384 178.83 129.959 179.694 129.652C180.487 129.374 181.31 129.19 182.145 129.103C182.826 129.035 183.525 129.03 184.201 128.901C184.875 128.795 185.498 128.477 185.978 127.992C186.393 127.538 186.389 126.857 186.679 126.323C186.827 126.048 187.049 125.823 187.206 125.553C187.498 124.976 187.574 124.313 187.419 123.684C187.262 123.063 187.073 122.451 186.854 121.849C186.339 120.176 186.3 118.393 186.741 116.698C186.931 115.974 187.208 115.263 187.253 114.516C187.267 114.017 187.219 113.518 187.11 113.031C186.743 111.15 186.023 109.24 184.567 107.998C183.788 107.333 182.735 106.735 182.653 105.727C182.318 105.595 181.957 105.82 181.669 106.034L178.432 108.421C178.24 108.534 178.083 108.698 177.979 108.895C177.777 109.379 178.242 109.91 178.167 110.433C178.112 110.812 177.79 111.087 177.591 111.414C177.114 112.193 177.268 113.38 176.49 113.86C176.42 114.005 176.354 114.155 176.295 114.314C176.017 115.108 175.83 115.93 175.739 116.767C175.63 117.835 175.657 118.913 175.818 119.976Z" fill="#3F3D56"/>
<path opacity="0.1" d="M177.332 104.798C177.727 105.267 178.018 105.813 178.188 106.402C178.445 106.459 178.709 106.488 178.973 106.488C180.294 106.488 181.179 104.973 181.834 103.933C181.814 103.322 182.32 103.626 181.551 103.706C180.812 103.801 180.081 103.953 179.365 104.16C179.161 104.212 177.391 104.864 177.332 104.798Z" fill="black"/>
<path d="M178.972 106.177C181.023 106.177 182.685 104.513 182.685 102.461C182.685 100.41 181.023 98.7461 178.972 98.7461C176.922 98.7461 175.26 100.41 175.26 102.461C175.26 104.513 176.922 106.177 178.972 106.177Z" fill="#A0616A"/>
<path d="M176.133 105.092L176.991 106.033C177.272 106.342 177.75 106.363 178.059 106.082L180.942 103.448C181.25 103.167 181.272 102.689 180.99 102.38L180.132 101.439C179.85 101.131 179.373 101.109 179.064 101.39L176.181 104.024C175.873 104.305 175.851 104.784 176.133 105.092Z" fill="#3F3D56"/>
<path opacity="0.1" d="M176.133 105.092L176.991 106.033C177.272 106.342 177.75 106.363 178.059 106.082L180.942 103.448C181.25 103.167 181.272 102.689 180.99 102.38L180.132 101.439C179.85 101.131 179.373 101.109 179.064 101.39L176.181 104.024C175.873 104.305 175.851 104.784 176.133 105.092Z" fill="black"/>
<path d="M179.204 103.468C179.375 103.468 179.513 103.329 179.513 103.159C179.513 102.988 179.375 102.85 179.204 102.85C179.034 102.85 178.896 102.988 178.896 103.159C178.896 103.329 179.034 103.468 179.204 103.468Z" fill="white"/>
<path opacity="0.1" d="M175.818 119.975C178.682 119.553 181.283 117.832 183.273 115.697C183.645 115.346 183.933 114.915 184.115 114.436C184.215 114.037 184.25 113.623 184.217 113.212L184.17 111.573C184.149 110.855 184.12 110.11 183.773 109.483C183.425 108.857 182.652 108.405 181.984 108.666C180.23 109.347 179.089 110.905 178.086 112.499C177.799 112.996 177.486 113.478 177.148 113.941C176.978 114.157 176.747 114.377 176.468 114.348C176.409 114.343 176.351 114.327 176.297 114.302C176.019 115.096 175.833 115.919 175.741 116.755C175.631 117.828 175.657 118.91 175.818 119.975Z" fill="black"/>
<path d="M175.562 110.401C175.704 109.787 175.968 109.208 176.338 108.698C177.448 106.96 178.696 105.264 179.288 103.286C178.424 103.443 178.288 104.932 177.412 104.998L177.48 103.924C177.48 103.742 177.48 103.522 177.332 103.427C177.185 103.331 176.921 103.456 176.824 103.636C176.726 103.815 176.706 104.033 176.615 104.217C176.524 104.401 176.311 104.564 176.123 104.483L176.045 104.126C175.965 104.109 175.881 104.111 175.801 104.131C175.72 104.151 175.646 104.19 175.583 104.243C175.519 104.297 175.469 104.364 175.436 104.439C175.402 104.515 175.387 104.598 175.39 104.68C175.328 104.509 175.295 104.329 175.292 104.147C174.904 104.074 174.623 104.503 174.484 104.873C174.197 105.707 173.974 106.561 173.817 107.428L173.461 109.156C173.336 109.754 173.213 110.351 173.132 110.953C172.918 112.55 173.003 114.174 173.381 115.74C173.857 115.476 174.318 115.187 174.763 114.875C175.106 114.584 175.489 114.255 175.619 113.812C175.939 112.695 175.374 111.525 175.562 110.401Z" fill="#A0616A"/>
<path d="M181.984 108.203C182.651 107.941 183.425 108.393 183.772 109.02C184.119 109.647 184.149 110.383 184.169 111.109L184.214 112.754C184.249 113.164 184.215 113.578 184.115 113.978C183.932 114.455 183.645 114.886 183.275 115.238C181.074 117.598 178.13 119.449 174.908 119.605C174.795 119.62 174.68 119.606 174.574 119.564C174.483 119.507 174.405 119.429 174.347 119.337C173.628 118.443 172.868 117.414 172.986 116.274C173.006 116.083 173.213 115.929 173.281 115.751C173.713 114.719 174.506 113.88 175.512 113.39L175.707 113.299C175.782 113.449 175.89 113.581 176.022 113.685C176.154 113.788 176.308 113.861 176.472 113.898C176.744 113.926 176.978 113.707 177.152 113.492C177.49 113.027 177.803 112.545 178.09 112.047C179.088 110.437 180.232 108.886 181.984 108.203Z" fill="#3F3D56"/>
<path d="M181.755 104.891C181.44 104.728 181.39 104.308 181.358 103.954C181.322 103.541 181.259 103.131 181.169 102.727C181.072 102.273 180.911 101.805 180.525 101.564C180.39 101.481 180.235 101.432 180.076 101.425C179.917 101.417 179.758 101.449 179.615 101.519C179.472 101.59 179.349 101.695 179.258 101.825C179.167 101.956 179.11 102.108 179.093 102.266C179.098 102.342 179.075 102.417 179.029 102.477C178.999 102.506 178.961 102.526 178.921 102.534C178.742 102.575 178.556 102.548 178.396 102.458C178.237 102.368 178.118 102.222 178.06 102.048C177.995 101.821 178.045 101.528 177.883 101.342C177.722 101.156 177.532 101.16 177.375 101.038C177.28 100.944 177.208 100.829 177.164 100.704C177.119 100.578 177.104 100.443 177.119 100.311C177.119 99.9724 177.164 99.5682 176.892 99.3592C176.481 99.039 175.864 99.5477 175.38 99.3592C175.247 99.2941 175.135 99.1902 175.061 99.061C174.987 98.9318 174.954 98.7833 174.965 98.6348C174.993 98.3375 175.094 98.0519 175.26 97.8036C175.544 97.3166 175.886 96.866 176.279 96.4614C176.279 96.5613 176.436 96.55 176.522 96.4955L177.239 96.0594C177.227 96.0957 177.226 96.1346 177.236 96.1714C177.246 96.2082 177.267 96.2411 177.296 96.2661C177.459 96.108 177.662 95.998 177.883 95.9482C177.995 95.9274 178.11 95.9513 178.203 96.0146C178.297 96.0779 178.362 96.1756 178.385 96.2866L179.293 95.8937C179.33 95.8683 179.374 95.8569 179.419 95.8615C179.463 95.866 179.505 95.8863 179.536 95.9186C179.862 96.1457 180.28 96.2116 180.67 96.3024C181.061 96.3933 181.476 96.55 181.685 96.8952C181.759 97.0723 181.854 97.24 181.968 97.3948C182.069 97.4832 182.185 97.5518 182.311 97.5969C182.822 97.7982 183.304 98.0696 183.741 98.4031C184.179 98.7409 184.503 99.2055 184.669 99.734C184.914 100.617 184.56 101.551 184.149 102.366C183.836 102.989 183.484 103.592 183.096 104.172C182.951 104.399 182.751 104.828 182.517 104.96C182.263 105.03 181.992 105.006 181.755 104.891Z" fill="#3F3D56"/>
<path opacity="0.1" d="M175.387 98.4327C175.871 98.6189 176.488 98.1102 176.899 98.4327C177.164 98.6416 177.126 99.0458 177.126 99.3842C177.111 99.5169 177.126 99.6512 177.17 99.777C177.215 99.9029 177.287 100.017 177.382 100.111C177.539 100.234 177.761 100.263 177.89 100.415C178.02 100.567 178.001 100.885 178.067 101.122C178.124 101.295 178.244 101.441 178.403 101.531C178.562 101.621 178.749 101.648 178.927 101.608C178.968 101.599 179.006 101.579 179.036 101.551C179.082 101.49 179.104 101.415 179.1 101.34C179.117 101.181 179.173 101.029 179.265 100.899C179.356 100.768 179.479 100.663 179.622 100.593C179.765 100.523 179.924 100.49 180.083 100.498C180.242 100.506 180.396 100.554 180.532 100.638C180.918 100.879 181.079 101.355 181.176 101.801C181.266 102.205 181.329 102.614 181.365 103.027C181.396 103.381 181.446 103.801 181.762 103.965C182.003 104.083 182.28 104.107 182.538 104.033C182.765 103.901 182.971 103.465 183.117 103.245C183.505 102.662 183.857 102.055 184.17 101.428C184.43 100.943 184.618 100.423 184.728 99.8838C184.891 100.72 184.555 101.587 184.17 102.357C183.856 102.98 183.505 103.583 183.117 104.162C182.971 104.39 182.772 104.819 182.538 104.95C182.28 105.025 182.003 105 181.762 104.882C181.446 104.719 181.396 104.299 181.365 103.944C181.329 103.532 181.266 103.122 181.176 102.718C181.079 102.264 180.918 101.796 180.532 101.555C180.396 101.471 180.242 101.423 180.083 101.415C179.924 101.408 179.765 101.44 179.622 101.51C179.479 101.58 179.356 101.686 179.265 101.816C179.173 101.947 179.117 102.099 179.1 102.257C179.104 102.333 179.082 102.408 179.036 102.468C179.006 102.497 178.968 102.516 178.927 102.525C178.749 102.566 178.562 102.539 178.403 102.449C178.244 102.359 178.124 102.213 178.067 102.039C178.001 101.812 178.051 101.519 177.89 101.333C177.729 101.147 177.539 101.151 177.382 101.028C177.287 100.935 177.215 100.82 177.17 100.695C177.126 100.569 177.111 100.434 177.126 100.302C177.126 99.9633 177.171 99.5591 176.899 99.3502C176.488 99.0299 175.871 99.5387 175.387 99.3502C175.253 99.285 175.142 99.1811 175.068 99.0519C174.994 98.9227 174.961 98.7742 174.972 98.6257C174.98 98.4618 175.018 98.3009 175.085 98.1511C175.151 98.2769 175.257 98.3764 175.387 98.4327Z" fill="black"/>
</g>
<defs>
<linearGradient id="paint0_linear" x1="176.188" y1="173.449" x2="176.188" y2="94.799" gradientUnits="userSpaceOnUse">
<stop stop-color="#808080" stop-opacity="0.25"/>
<stop offset="0.54" stop-color="#808080" stop-opacity="0.12"/>
<stop offset="1" stop-color="#808080" stop-opacity="0.1"/>
</linearGradient>
<clipPath id="clip0">
<rect width="260" height="175" fill="white"/>
</clipPath>
</defs>
</svg>
