<svg width="298" height="159" viewBox="0 0 298 159" fill="none" xmlns="http://www.w3.org/2000/svg">
<g clip-path="url(#clip0)">
<path opacity="0.1" d="M149 159C231.29 159 298 138.158 298 112.448C298 86.7387 231.29 65.8969 149 65.8969C66.7096 65.8969 0 86.7387 0 112.448C0 138.158 66.7096 159 149 159Z" fill="#3677D0"/>
<g opacity="0.8">
<path opacity="0.8" d="M108.284 9.47809C110.81 13.0253 112.748 23.356 113.288 26.4689L117.803 26.3767C117.569 23.7023 112.317 12.8241 110.856 9.8393C110.044 9.71173 109.177 9.58714 108.284 9.47809Z" fill="#65617D"/>
<path opacity="0.8" d="M51.9311 7.17013L51.8779 9.99139L53.8779 10.0292L53.9311 7.20796L51.9311 7.17013Z" fill="#DCE0ED"/>
<path opacity="0.1" d="M51.9309 7.1701L51.9136 8.08872C52.0541 8.13181 52.2001 8.15437 52.3471 8.15569L53.9127 8.17193L53.9309 7.20793L51.9309 7.1701Z" fill="black"/>
<path opacity="0.8" d="M54.9111 0.0361099L53.0228 0.000396705C52.5718 -0.00804617 52.1286 0.118444 51.7498 0.363688C51.3711 0.608933 51.074 0.961773 50.8966 1.37706C50.3178 2.72982 49.8089 4.88869 50.9984 7.07386C51.1313 7.318 51.3268 7.52223 51.5648 7.66548C51.8027 7.80874 52.0746 7.88584 52.3522 7.88883L54.7625 7.91374L54.9111 0.0361099Z" fill="#DCE0ED"/>
<path opacity="0.8" d="M56.8589 4.01316C56.8999 1.83782 56.0278 0.0572243 54.911 0.0361016C53.7942 0.0149789 52.8555 1.76132 52.8145 3.93667C52.7735 6.11202 53.6456 7.89261 54.7624 7.91373C55.8792 7.93486 56.8178 6.18851 56.8589 4.01316Z" fill="#F0F0F4"/>
<path opacity="0.8" d="M69.6965 7.53948L69.6499 10.0096L71.6499 10.0474L71.6964 7.57731L69.6965 7.53948Z" fill="#DCE0ED"/>
<path opacity="0.1" d="M69.6969 7.53949L69.6821 8.32458C69.8227 8.36768 69.9687 8.39024 70.1157 8.39155L71.6812 8.4078L71.6969 7.57732L69.6969 7.53949Z" fill="black"/>
<path opacity="0.8" d="M72.6768 0.405556L70.7884 0.369842C70.3375 0.3614 69.8942 0.487894 69.5155 0.733138C69.1367 0.978383 68.8396 1.33122 68.6622 1.74651C68.0834 3.09927 67.5745 5.25814 68.764 7.44331C68.8969 7.68745 69.0924 7.89167 69.3304 8.03493C69.5684 8.17818 69.8402 8.25528 70.1178 8.25827L72.5282 8.28319L72.6768 0.405556Z" fill="#DCE0ED"/>
<path opacity="0.8" d="M74.624 4.38254C74.665 2.2072 73.7929 0.426613 72.6761 0.405494C71.5593 0.384374 70.6207 2.13072 70.5796 4.30606C70.5386 6.48141 71.4107 8.26199 72.5275 8.28311C73.6444 8.30423 74.583 6.55789 74.624 4.38254Z" fill="#F0F0F4"/>
<path opacity="0.8" d="M72.1447 1.83569C72.1447 1.83569 72.8884 1.96932 72.4819 2.948C72.2671 3.42329 72.1074 3.92173 72.0062 4.4335C72.0062 4.4335 71.2529 4.80783 71.307 3.52358C71.361 2.23933 72.1447 1.83569 72.1447 1.83569Z" fill="#DCE0ED"/>
<path opacity="0.8" d="M158.675 59.7774C158.81 52.6246 153.636 46.7262 147.119 46.6029C140.602 46.4796 135.21 52.1783 135.075 59.3311C134.94 66.484 140.114 72.3824 146.631 72.5056C153.148 72.6289 158.54 66.9303 158.675 59.7774Z" fill="#636780"/>
<path opacity="0.1" d="M142.682 47.3271C148.85 47.8598 153.635 53.5799 153.505 60.4622C153.4 66.0097 150.133 70.6817 145.631 72.4422C139.464 71.9095 134.679 66.1895 134.809 59.3072C134.914 53.7596 138.181 49.0877 142.682 47.3271Z" fill="black"/>
<path opacity="0.8" d="M64.6332 29.6826C64.7634 22.7756 60.581 17.0952 55.2915 16.9952C50.0019 16.8951 45.6083 22.4133 45.4781 29.3204C45.3478 36.2274 49.5302 41.9078 54.8197 42.0078C60.1093 42.1078 64.5029 36.5897 64.6332 29.6826Z" fill="#636780"/>
<path opacity="0.1" d="M57.9583 17.5696C61.9017 19.1692 64.7116 24.019 64.6045 29.6992C64.49 35.7693 61.0826 40.7661 56.6682 41.8201C52.7248 40.2206 49.9149 35.3708 50.022 29.6906C50.1365 23.6204 53.5439 18.6237 57.9583 17.5696Z" fill="black"/>
<path opacity="0.8" d="M91.0829 27.5115L90.9907 22.9685C90.9907 22.9685 91.9165 21.027 92.8087 20.8658C93.701 20.7046 95.7475 20.632 95.7475 20.632C95.7475 20.632 97.2245 27.1825 96.1209 29.1206C95.0173 31.0587 91.0829 27.5115 91.0829 27.5115Z" fill="#65617D"/>
<path opacity="0.1" d="M91.0829 27.5115L90.9907 22.9685C90.9907 22.9685 91.9165 21.027 92.8087 20.8658C93.701 20.7046 95.7475 20.632 95.7475 20.632C95.7475 20.632 97.2245 27.1825 96.1209 29.1206C95.0173 31.0587 91.0829 27.5115 91.0829 27.5115Z" fill="black"/>
<path opacity="0.8" d="M107.492 27.3321C107.492 27.3321 108.162 21.0478 104.709 20.8692C104.265 20.8462 103.82 20.8271 103.378 20.7758C100.988 20.4984 94.4684 19.8704 95.2224 21.3789C95.2224 21.3789 96.6747 26.8826 95.582 28.2422L107.492 27.3321Z" fill="#65617D"/>
<path opacity="0.8" d="M58.3174 38.0781L53.6816 38.124C53.6816 38.124 53.0428 29.5636 52.7887 28.8909C52.5347 28.2183 52.4618 25.0113 53.3372 24.5604C54.2127 24.1095 57.1233 23.5969 57.1233 23.5969L59.1647 28.5107L59.2483 32.9199L58.3174 38.0781Z" fill="#65617D"/>
<path opacity="0.1" d="M58.3174 38.0781L53.6816 38.124C53.6816 38.124 53.0428 29.5636 52.7887 28.8909C52.5347 28.2183 52.4618 25.0113 53.3372 24.5604C54.2127 24.1095 57.1233 23.5969 57.1233 23.5969L59.1647 28.5107L59.2483 32.9199L58.3174 38.0781Z" fill="black"/>
<path opacity="0.8" d="M69.7845 24.1035L69.8231 23.1522C69.8261 23.0772 69.8138 23.0024 69.7868 22.9324C69.7598 22.8623 69.7188 22.7986 69.6662 22.745C69.6137 22.6915 69.5507 22.6493 69.4813 22.6211C69.4118 22.5929 69.3373 22.5793 69.2624 22.581C66.9641 22.6346 58.6007 22.8774 57.1231 23.5969C57.1231 23.5969 58.4984 35.5437 56.6782 38.3476L57.0982 47.9056L77.5933 46.7572L69.7845 24.1035Z" fill="#65617D"/>
<path opacity="0.1" d="M71.668 9.08474C71.1011 9.01792 70.4263 8.94371 69.6714 8.87067L69.6499 10.0096L71.6499 10.0474L71.668 9.08474Z" fill="black"/>
<path opacity="0.1" d="M51.8806 9.84717L51.8779 9.99138L53.8779 10.0292L53.8942 9.16266C53.1972 9.30597 52.5208 9.53592 51.8806 9.84717Z" fill="black"/>
<path opacity="0.8" d="M41.312 38.0569L44.3337 38.1581L50.7934 26.911L51.8718 25.0334L51.1623 20.2118L50.5259 21.3645L41.312 38.0569Z" fill="#DCE0ED"/>
<path opacity="0.8" d="M68.9082 24.5984L70.1171 26.4913L73.9319 21.5252L75.6779 19.2501L74.6815 17.8517L73.8808 18.7875L68.9082 24.5984Z" fill="#DCE0ED"/>
<path opacity="0.1" d="M73.8803 18.7875C73.8732 18.8835 73.866 18.9822 73.8574 19.0822L73.9314 21.5252L75.6776 19.2502L74.6809 17.8516L73.8803 18.7875Z" fill="black"/>
<path opacity="0.1" d="M50.5259 21.3645L50.7934 26.911L51.8717 25.0334L51.1623 20.2118L50.5259 21.3645Z" fill="black"/>
<path opacity="0.8" d="M77.3525 22.3989C77.3525 22.3989 79.0552 11.2643 73.6542 9.49256C73.5849 9.47026 73.5138 9.45419 73.4416 9.44452C72.1943 9.26973 60.5647 7.70365 54.4828 9.18842C54.4828 9.18842 50.3379 9.73334 50.3403 11.9595L51.6497 39.1874L54.6274 39.2437L53.9887 21.2446C53.9887 21.2446 52.7143 13.3846 55.0798 12.8951C57.4454 12.4055 68.1731 11.718 71.9306 12.8576C71.9306 12.8576 74.6978 12.2866 74.125 19.0877L74.2339 22.7406L77.3525 22.3989Z" fill="#DCE0ED"/>
<path opacity="0.8" d="M68.2234 25.5432C68.2041 25.2481 68.2611 24.9531 68.3888 24.6864C68.5164 24.4198 68.7105 24.1906 68.9523 24.0209C69.7976 23.4025 72.39 22.0825 72.39 22.0825L73.2221 22.165L75.6049 28.4209L75.1896 41.6028L70.5846 47.0921L68.2234 25.5432Z" fill="#65617D"/>
<path opacity="0.1" d="M68.2234 25.5432C68.2041 25.2481 68.2611 24.9531 68.3888 24.6864C68.5164 24.4198 68.7105 24.1906 68.9523 24.0209C69.7976 23.4025 72.39 22.0825 72.39 22.0825L73.2221 22.165L75.6049 28.4209L75.1896 41.6028L70.5846 47.0921L68.2234 25.5432Z" fill="black"/>
<path opacity="0.8" d="M85.918 39.702L86.0843 26.1704C86.0843 26.1704 86.5833 20.9262 83.4517 20.7779C83.4517 20.7779 76.0608 20.692 72.8317 21.6751C72.7298 21.7058 72.6359 21.7589 72.557 21.8305C72.4781 21.9021 72.4161 21.9904 72.3755 22.089C72.3349 22.1876 72.3167 22.294 72.3223 22.4005C72.3279 22.507 72.357 22.6109 72.4077 22.7047C73.0259 23.831 74.0482 26.8006 74.4257 34.3757L74.2727 42.487L85.918 39.702Z" fill="#65617D"/>
<path opacity="0.8" d="M70.1665 48.0524L83.6174 47.9929L83.6308 47.9932L90.2414 47.9648L89.6416 39.1046L85.9725 39.1688L74.2569 41.5517L70.5846 47.092L70.1665 48.0524Z" fill="#65617D"/>
<path opacity="0.1" d="M70.1665 48.0524L83.6174 47.9929L83.6308 47.9932L90.2414 47.9648L89.6416 39.1046L85.9725 39.1688L74.2569 41.5517L70.5846 47.092L70.1665 48.0524Z" fill="black"/>
<path opacity="0.8" d="M70.1665 48.0524L83.6174 47.993L83.9505 42.069L74.2569 41.5517L70.5846 47.0921L70.1665 48.0524Z" fill="#65617D"/>
<path opacity="0.1" d="M83.6309 47.9933L90.2416 47.9648L89.6418 39.1046C89.6418 39.1046 87.5128 42.3701 83.9507 42.069L83.6309 47.9933Z" fill="white"/>
<path opacity="0.8" d="M36.0714 54.253C36.2903 56.7949 38.0978 56.4284 38.0978 56.4284L38.4343 56.404L41.7706 56.1639L41.7116 52.2226C40.5826 52.1363 39.4473 52.1829 38.3292 52.3616C37.075 52.597 35.974 53.1238 36.0714 54.253Z" fill="#DCE0ED"/>
<path opacity="0.1" d="M36.0714 54.253C36.2903 56.7949 38.0978 56.4284 38.0978 56.4284L38.4343 56.404C38.8061 55.8422 39.0033 55.1827 39.0009 54.5087C39.0434 53.7353 38.8048 52.9726 38.3292 52.3616C37.075 52.597 35.974 53.1238 36.0714 54.253Z" fill="black"/>
<path opacity="0.8" d="M82.5565 29.3315C82.4789 33.4487 84.8833 36.833 87.9269 36.8906C90.9706 36.9481 93.5009 33.6571 93.5785 29.54C93.6562 25.4228 91.2518 22.0385 88.2081 21.9809C85.1645 21.9233 82.6342 25.2143 82.5565 29.3315ZM84.6361 29.8606C84.6925 26.8741 86.6185 24.4886 88.938 24.5325C91.2576 24.5763 93.0923 27.0329 93.036 30.0194C92.9797 33.0059 91.0536 35.3914 88.7341 35.3475C86.4145 35.3037 84.5798 32.8471 84.6361 29.8606V29.8606Z" fill="#636780"/>
<path opacity="0.8" d="M87.7578 31.7228L85.1322 34.2109L84.2417 31.9234L88.0162 29.8133L87.7578 31.7228Z" fill="#636780"/>
<path opacity="0.8" d="M84.4317 6.54279L82.1823 6.77397L81.3311 7.7488L82.4861 13.4606L84.9953 22.6753L86.6365 29L87.8025 32.8439L88.4959 37.9149L89.2192 41.4057L91.5412 43.8204L96.4606 38.2235L97.2853 36.3424L99.2517 32.5074L94.4037 30.1238L89.0483 29.5484L86.6461 23.0227L84.7366 15.4788L84.4317 6.54279Z" fill="#3677D0"/>
<path opacity="0.8" d="M129.319 34.5123L131.788 59.2245L94.8845 56.9681L99.3794 44.9431L106.578 40.4488L90.3062 40.4084L90.3449 33.6416L96.9494 32.3419L110.214 31.5243L120.177 31.2674L129.63 34.5629" fill="#65617D"/>
<path opacity="0.1" d="M129.319 34.5123L131.788 59.2245L94.8845 56.9681L99.3794 44.9431L106.578 40.4488L90.3062 40.4084L90.3449 33.6416L96.9494 32.3419L110.214 31.5243L120.177 31.2674L129.63 34.5629" fill="black"/>
<path opacity="0.8" d="M78.3989 58.1309C78.2833 64.258 80.2109 69.8741 85.8632 69.3701C92.9806 69.352 93.6304 64.5483 93.746 58.4212C93.8615 52.2941 90.512 47.6693 86.274 47.5891C82.036 47.509 78.5145 52.0039 78.3989 58.1309Z" fill="#636780"/>
<path opacity="0.1" d="M78.354 58.1405C78.4434 53.3968 80.5747 49.6322 83.4992 48.2109C87.2055 48.9896 89.9846 53.3285 89.8791 58.9185C89.7845 63.9397 89.33 68.0714 85.2521 69.4095C80.037 69.4985 78.2424 64.0582 78.354 58.1405Z" fill="black"/>
<path opacity="0.8" d="M71.3316 48.3776L73.454 50.9069L69.5618 50.1617L66.6937 47.4204L64.1887 42.1573L60.5627 39.8364L51.5465 40.8908L43.2177 41.0494L40.1968 38.2586L43.6331 37.8565L47.1056 37.8433L55.8265 37.8107L66.2055 37.7303L68.2283 43.4587L69.7718 47.3995L71.3316 48.3776Z" fill="#3677D0"/>
<path opacity="0.8" d="M41.2927 57.958C41.465 58.2284 47.2707 59.2291 47.2707 59.2291L63.3029 62.4708L90.9401 63.3942L94.2361 60.6957L95.9343 61.031L96.0034 61.0444L118.687 65.5218L119.058 65.4754L125.279 64.7075L157.768 60.6952L157.494 55.9778L157.332 53.1939L156.997 47.4134L156.713 45.8934L153.833 45.5745L152.487 45.4248L131.494 43.095L128.749 42.7907L127.211 42.62L112.227 40.289L90.3066 40.4087L90.3448 33.6416L82.182 6.77386C80.2655 7.04882 80.2851 8.34079 80.2851 8.34079L87.1881 33.626L86.9861 49.0719C71.6132 50.3331 71.1817 46.9765 68.7325 48.0588L65.9763 38.6129L40.197 38.2589C39.1509 39.4853 41.2927 57.958 41.2927 57.958Z" fill="#65617D"/>
<path opacity="0.8" d="M105.511 45.148L97.0012 62.5736L94.2285 63.411L93.6162 60.5505L96.8667 50.8614L100.129 45.2688L105.511 45.148Z" fill="#65617D"/>
<path opacity="0.15" d="M105.511 45.148L97.0012 62.5736L94.2285 63.411L93.6162 60.5505L96.8667 50.8614L100.129 45.2688L105.511 45.148Z" fill="black"/>
<path opacity="0.8" d="M125.278 64.889C125.453 55.5977 118.964 47.9402 110.785 47.7855C102.605 47.6309 95.8323 55.0376 95.6571 64.3289C95.4819 73.6202 101.971 81.2777 110.15 81.4323C118.33 81.587 125.102 74.1803 125.278 64.889Z" fill="#636780"/>
<path opacity="0.1" d="M105.483 48.7352C113.223 49.422 119.224 56.8481 119.056 65.788C118.92 72.994 114.815 79.0654 109.164 81.356C101.423 80.6691 95.4223 73.2431 95.5909 64.3032C95.7268 57.0971 99.8316 51.0257 105.483 48.7352Z" fill="black"/>
<path opacity="0.8" d="M150.722 35.9416L151.39 39.4163L153.434 50.0615L163.096 49.3093C163.096 49.3093 163.707 47.5404 162.209 46.8442C162.209 46.8442 161.827 40.8091 160.08 38.8781C159.893 38.6581 159.656 38.4861 159.389 38.3761L150.722 35.9416Z" fill="#65617D"/>
<path opacity="0.1" d="M151.39 39.4163L153.434 50.0615L163.096 49.3092C163.096 49.3092 163.707 47.5403 162.209 46.8442C162.209 46.8442 161.827 40.8091 160.08 38.8781L151.39 39.4163Z" fill="white"/>
<path opacity="0.8" d="M128.971 36.4652C127.688 38.5325 130.345 57.8619 130.345 57.8619L154.108 54.3924L153.582 37.509C153.15 34.4729 151.379 34.0841 151.379 34.0841C143.103 29.6975 123.921 28.4438 123.921 28.4438C106.398 28.7802 90.3447 33.6416 90.3447 33.6416C110.313 30.9472 128.971 36.4652 128.971 36.4652Z" fill="#65617D"/>
<path opacity="0.1" d="M130.346 57.8619L154.108 54.3925L153.582 37.509C153.15 34.4729 151.38 34.0841 151.38 34.0841C151.38 34.0841 134.122 32.1095 128.971 36.4652C127.688 38.5326 130.346 57.8619 130.346 57.8619Z" fill="black"/>
<path opacity="0.8" d="M132.871 56.7961L152.74 53.8284L152.306 39.4238C151.946 36.8335 150.465 36.5024 150.465 36.5024C150.465 36.5024 136.036 34.8233 131.728 38.5412C130.654 40.3054 132.871 56.7961 132.871 56.7961Z" fill="#65617D"/>
<path opacity="0.1" d="M137.435 45.0395C137.486 42.3111 136.314 40.0764 134.817 40.0481C133.32 40.0197 132.064 42.2086 132.013 44.937C131.961 47.6654 133.133 49.9002 134.63 49.9285C136.128 49.9568 137.383 47.7679 137.435 45.0395Z" fill="black"/>
<path opacity="0.8" d="M137.437 44.9061C137.489 42.1777 136.317 39.9429 134.819 39.9146C133.322 39.8863 132.067 42.0751 132.015 44.8035C131.964 47.5319 133.136 49.7667 134.633 49.795C136.13 49.8233 137.386 47.6345 137.437 44.9061Z" fill="#DCE0ED"/>
<path opacity="0.8" d="M134.439 41.1985C134.439 41.1985 135.547 41.3975 134.942 42.8553C134.622 43.5633 134.384 44.3057 134.233 45.068C134.233 45.068 133.111 45.6256 133.192 43.7127C133.272 41.7997 134.439 41.1985 134.439 41.1985Z" fill="#F0F0F4"/>
<path opacity="0.1" d="M151.827 43.3527C151.875 40.8032 150.78 38.715 149.381 38.6886C147.982 38.6621 146.808 40.7074 146.76 43.2569C146.712 45.8064 147.808 47.8946 149.207 47.9211C150.606 47.9475 151.779 45.9022 151.827 43.3527Z" fill="black"/>
<path opacity="0.8" d="M151.829 43.2192C151.877 40.6698 150.782 38.5815 149.383 38.5551C147.984 38.5286 146.81 40.5739 146.762 43.1234C146.714 45.6729 147.809 47.7611 149.209 47.7876C150.608 47.8141 151.781 45.7687 151.829 43.2192Z" fill="#DCE0ED"/>
<path opacity="0.8" d="M149.009 39.5151C149.009 39.5151 150.117 39.7141 149.512 41.1719C149.192 41.8799 148.954 42.6223 148.803 43.3846C148.803 43.3846 147.681 43.9422 147.761 42.0292C147.842 40.1163 149.009 39.5151 149.009 39.5151Z" fill="#F0F0F4"/>
<path opacity="0.1" d="M137.914 40.863C138.057 42.6916 138.691 56.2379 138.691 56.2379L140.204 56.0141L141.045 55.8911L142.166 55.7253L142.301 55.7051L146.716 55.054L146.117 40.6856C146.098 40.2241 145.902 39.7878 145.57 39.4669C145.238 39.1461 144.796 38.9654 144.335 38.9623C144.291 38.9628 144.245 38.9633 144.2 38.9664C143.895 38.9874 143.567 39.0132 143.225 39.0441C143.08 39.0574 142.935 39.0707 142.787 39.0866C142.363 39.1293 141.926 39.1825 141.496 39.2452C141.277 39.2784 141.062 39.3131 140.849 39.3505C140.489 39.4158 140.141 39.488 139.819 39.5714C139.601 39.6274 139.393 39.6889 139.202 39.7561C138.402 40.0295 137.876 40.3908 137.914 40.863Z" fill="black"/>
<path opacity="0.8" d="M144.335 38.9623L144.892 55.109L145.382 55.0742L144.831 39.0358C144.67 38.9883 144.503 38.9635 144.335 38.9623Z" fill="#65617D"/>
<path opacity="0.8" d="M142.786 39.0866L143.286 55.3899L144.042 55.4042L143.224 39.0441C143.08 39.0574 142.934 39.0707 142.786 39.0866Z" fill="#65617D"/>
<path opacity="0.8" d="M140.849 39.3505L141.813 55.7186L142.302 55.7279L142.301 55.7051L141.497 39.2452C141.277 39.2784 141.062 39.3131 140.849 39.3505Z" fill="#65617D"/>
<path opacity="0.8" d="M139.202 39.7561L140.203 56.0141L140.206 56.0448L141.051 55.9714L141.045 55.8911L139.819 39.5714C139.6 39.6274 139.392 39.6889 139.202 39.7561Z" fill="#65617D"/>
<path opacity="0.1" d="M157.042 52.6675C157.042 52.6675 158.834 44.2533 155.109 43.7487C151.384 43.2442 139.101 43.9134 139.402 47.3919C139.703 50.8703 140.004 56.1519 140.004 56.1519L142.548 55.6324C142.548 55.6324 140.797 47.652 143.77 47.4077C146.742 47.1634 154.024 46.4663 154.024 46.4663C154.024 46.4663 155.997 46.1697 154.732 53.1247L157.042 52.6675Z" fill="black"/>
<path opacity="0.8" d="M157.027 53.4686C157.027 53.4686 158.829 44.5203 155.104 44.0158C151.379 43.5112 139.096 44.1805 139.397 47.6589C139.698 51.1373 139.999 56.4189 139.999 56.4189L142.543 55.8994C142.543 55.8994 140.793 47.9191 143.765 47.6747C146.737 47.4304 154.019 46.7334 154.019 46.7334C154.019 46.7334 155.982 46.9708 154.717 53.9258L157.027 53.4686Z" fill="#DCE0ED"/>
<path opacity="0.8" d="M90.9404 63.3943L94.2292 63.411C96.8289 52.8643 100.909 46.3526 100.909 46.3526C102.256 45.6649 116.831 46.03 116.831 46.03C118.338 46.3257 118.647 51.1399 118.647 51.1399C118.647 51.1399 117.337 52.2277 118.568 52.9643C119.118 53.2926 120.946 53.3872 123.056 53.319C125.676 53.2323 128.731 52.892 130.315 52.4291C133.177 51.5924 130.941 49.9032 130.941 49.9032C130.941 49.9032 130.552 49.3616 130.34 46.4191C130.19 44.7008 129.667 43.0359 128.809 41.5403C128.69 41.3337 128.615 41.2214 128.615 41.2214C128.468 41.0761 128.293 40.962 128.101 40.8858C124.363 39.239 105.867 40.3905 105.867 40.3905L98.9821 42.4427C98.7914 42.5153 98.4903 42.9931 98.1157 43.758C95.8655 48.3623 90.9404 63.3943 90.9404 63.3943Z" fill="#65617D"/>
<path opacity="0.1" d="M90.9404 63.3943L94.2292 63.411C96.8289 52.8643 100.909 46.3526 100.909 46.3526C102.256 45.6649 116.831 46.03 116.831 46.03C118.338 46.3257 118.647 51.1399 118.647 51.1399C118.647 51.1399 117.337 52.2277 118.568 52.9643C119.118 53.2926 120.946 53.3872 123.056 53.319C125.676 53.2323 128.731 52.892 130.315 52.4291C133.177 51.5924 130.941 49.9032 130.941 49.9032C130.941 49.9032 130.552 49.3616 130.34 46.4191C130.19 44.7008 129.667 43.0359 128.809 41.5403C128.69 41.3337 128.615 41.2214 128.615 41.2214C128.468 41.0761 128.293 40.962 128.101 40.8858C124.363 39.239 105.867 40.3905 105.867 40.3905L98.9821 42.4427C98.7914 42.5153 98.4903 42.9931 98.1157 43.758C95.8655 48.3623 90.9404 63.3943 90.9404 63.3943Z" fill="black"/>
<path opacity="0.8" d="M98.1152 43.758C104.48 41.4194 121.867 43.0532 121.867 43.0532C123.746 41.5047 127.227 41.4663 128.809 41.5403C128.69 41.3337 128.615 41.2214 128.615 41.2214C128.468 41.0761 128.293 40.962 128.101 40.8858C124.363 39.239 105.867 40.3905 105.867 40.3905L98.9817 42.4427C98.7909 42.5153 98.4898 42.9931 98.1152 43.758Z" fill="#65617D"/>
<path opacity="0.8" d="M120.832 43.7015C121.206 45.0884 122.746 50.6391 122.746 50.6391C122.9 51.5257 123.004 52.4205 123.056 53.319C125.675 53.2323 128.731 52.8921 130.315 52.4292C133.177 51.5924 130.941 49.9032 130.941 49.9032C130.941 49.9032 130.551 49.3616 130.34 46.4191C130.179 44.5753 129.588 42.795 128.615 41.2215C128.468 41.0762 128.293 40.962 128.101 40.8859C125.619 41.4226 120.549 42.6517 120.832 43.7015Z" fill="#65617D"/>
<path opacity="0.1" d="M120.832 43.7015C121.206 45.0884 122.746 50.6391 122.746 50.6391C122.9 51.5257 123.004 52.4205 123.056 53.319C125.675 53.2323 128.731 52.8921 130.315 52.4292C133.177 51.5924 130.941 49.9032 130.941 49.9032C130.941 49.9032 130.551 49.3616 130.34 46.4191C130.179 44.5753 129.588 42.795 128.615 41.2215C128.468 41.0762 128.293 40.962 128.101 40.8859C125.619 41.4226 120.549 42.6517 120.832 43.7015Z" fill="white"/>
<path opacity="0.8" d="M82.1821 6.77389L90.345 33.6417L124.383 28.709L119.886 12.5625C119.886 12.5625 119.188 8.87626 117.427 8.5758C117.427 8.5758 90.2166 3.31954 82.1821 6.77389ZM85.9706 10.9861C84.872 7.35904 101.043 9.16752 101.043 9.16752C103.221 8.99899 105.845 9.18219 108.284 9.47809C109.177 9.58714 110.044 9.71174 110.857 9.83931C112.669 10.1247 114.208 10.4289 115.129 10.6213C115.714 10.7433 116.05 10.8204 116.05 10.8204C119.265 11.883 120.846 25.2696 120.846 25.2696C121.087 26.6766 119.426 26.3446 119.426 26.3446L119.318 26.3466L117.803 26.3767L113.288 26.4689L91.2721 26.9141C89.9747 26.756 89.8036 25.2167 89.8036 25.2167C89.1244 24.1019 85.9706 10.9861 85.9706 10.9861H85.9706Z" fill="#65617D"/>
<path opacity="0.8" d="M119.317 26.3466L119.425 26.3446C119.425 26.3446 121.086 26.6766 120.846 25.2696C120.846 25.2696 119.265 11.883 116.05 10.8204C116.05 10.8204 115.714 10.7433 115.128 10.6213C116.26 12.9374 119.878 20.8636 119.317 26.3466Z" fill="#65617D"/>
<path opacity="0.1" d="M119.317 26.3466L119.425 26.3446C119.425 26.3446 121.086 26.6766 120.846 25.2696C120.846 25.2696 119.265 11.883 116.05 10.8204C116.05 10.8204 115.714 10.7433 115.128 10.6213C116.26 12.9374 119.878 20.8636 119.317 26.3466Z" fill="black"/>
<path opacity="0.1" d="M115.709 59.2213C115.896 59.5848 116.182 59.8876 116.534 60.0942C116.886 60.3008 117.29 60.4025 117.697 60.3875L118.377 60.371L124.79 60.2158L127.101 60.1593L129.237 60.0221L157.494 55.9778L157.332 53.1939L154.083 53.5973L152.739 53.7642L132.797 56.2373L130.172 56.563L128.9 56.7206L123.522 56.5801L117.7 56.4273C117.406 56.4188 117.113 56.4696 116.838 56.5766C116.335 56.7664 115.923 57.1433 115.69 57.6288C115.568 57.877 115.506 58.1506 115.509 58.4273C115.513 58.704 115.581 58.9761 115.709 59.2213Z" fill="black"/>
<path opacity="0.8" d="M115.704 59.4883C115.891 59.8519 116.177 60.1547 116.529 60.3613C116.881 60.5678 117.285 60.6696 117.692 60.6546L127.096 60.4264L129.233 60.2891L159.365 55.9758L161.734 55.6373L163.024 55.452C165.568 54.9658 164.86 52.4147 164.86 52.4147C164.704 51.2537 160.368 50.1032 158.946 50.1217C157.99 50.133 157.828 51.6058 157.826 52.5715C157.825 53.0443 157.861 53.3949 157.861 53.3949L156.452 53.5699L128.895 56.9876L117.695 56.6943C117.28 56.679 116.869 56.7843 116.513 56.9975C116.156 57.2107 115.869 57.5227 115.685 57.8958C115.563 58.1441 115.501 58.4177 115.505 58.6944C115.508 58.9711 115.576 59.2431 115.704 59.4883Z" fill="#DCE0ED"/>
<path opacity="0.1" d="M160.96 51.7621C160.96 51.7621 159.733 53.2082 157.862 53.3954C157.862 53.3954 158.648 51.7629 160.96 51.7621Z" fill="black"/>
<path opacity="0.1" d="M161.193 55.9071C161.193 55.9071 165.15 55.8929 165.11 58.0292C165.07 60.1655 162.574 60.4745 162.574 60.4745L127.113 66.6157L117.066 66.6038C117.066 66.6038 113.607 63.7335 117.275 62.5562L127.403 63.0149L161.208 57.4657C161.208 57.4657 160.342 56.2472 161.193 55.9071Z" fill="black"/>
<path opacity="0.8" d="M117.06 66.8709L127.108 66.8832L158.638 61.4223L160.945 61.0225L162.569 60.742C162.569 60.742 165.065 60.4326 165.105 58.2963C165.134 56.7635 163.102 56.3377 161.954 56.2198C161.502 56.1739 161.188 56.1746 161.188 56.1746C160.337 56.5138 161.203 57.7323 161.203 57.7323L159.973 57.9348L127.398 63.2824L117.27 62.8237C113.603 64.0006 117.06 66.8709 117.06 66.8709Z" fill="#DCE0ED"/>
<path opacity="0.8" d="M158.248 54.115L156.177 53.1409L155.111 53.0762L155.031 62.0682L158.332 61.4628L159.727 60.5987L160.464 56.8728C160.464 56.8728 160.227 55.31 160.096 55.174C159.965 55.0379 158.248 54.115 158.248 54.115Z" fill="#DCE0ED"/>
<path opacity="0.1" d="M158.248 54.115L156.177 53.1409L155.111 53.0762L155.031 62.0682L158.332 61.4628L159.727 60.5987L160.464 56.8728C160.464 56.8728 160.227 55.31 160.096 55.174C159.965 55.0379 158.248 54.115 158.248 54.115Z" fill="black"/>
<path opacity="0.1" d="M158.639 61.4223C158.613 61.4526 158.599 61.4683 158.599 61.4683L160.918 61.0661C160.928 61.0516 160.937 61.037 160.946 61.0225C162.201 59.0788 162.335 57.4839 161.954 56.2198C161.503 56.1739 161.188 56.1746 161.188 56.1746C160.337 56.5138 161.204 57.7323 161.204 57.7323L159.973 57.9348C160.022 59.6961 158.869 61.1489 158.639 61.4223Z" fill="black"/>
<path opacity="0.1" d="M155.377 53.0808C155.765 53.2391 156.124 53.4021 156.453 53.57C157.934 54.3192 158.842 55.1458 159.366 55.9758L161.734 55.6373C160.75 53.487 158.323 52.4687 158.323 52.4687L157.827 52.5715L155.377 53.0808Z" fill="black"/>
<path opacity="0.8" d="M158.057 52.4641C158.057 52.4641 164.497 55.1682 160.651 61.0615L158.332 61.4628C158.332 61.4628 163.008 56.2976 155.111 53.0762L158.057 52.4641Z" fill="#DCE0ED"/>
<path opacity="0.8" d="M142.536 55.0645L140.138 54.9301L140.356 64.5955L144.236 63.9566L145.895 63.1865L146.687 61.2872L147.257 59.3833L146.001 57.6233L144.552 56.6164L142.536 55.0645Z" fill="#DCE0ED"/>
<path opacity="0.1" d="M142.536 55.0645L140.138 54.9301L140.356 64.5955L144.236 63.9566L145.895 63.1865L146.687 61.2872L147.257 59.3833L146.001 57.6233L144.552 56.6164L142.536 55.0645Z" fill="black"/>
<path opacity="0.8" d="M143.865 60.0762C143.885 58.9946 143.384 58.1081 142.746 58.096C142.108 58.084 141.574 58.9509 141.554 60.0324C141.533 61.114 142.034 62.0005 142.672 62.0126C143.31 62.0246 143.844 61.1577 143.865 60.0762Z" fill="#DCE0ED"/>
<path opacity="0.8" d="M153.68 62.9211C153.76 62.956 153.832 63.0075 153.892 63.0721C153.951 63.1368 153.996 63.2132 154.025 63.2965C154.053 63.3797 154.063 63.4679 154.055 63.5554C154.047 63.6429 154.02 63.7277 153.978 63.8044C153.706 64.2901 153.38 64.9189 153.407 65.0873C153.451 65.3719 152.822 65.1263 152.74 65.058C152.658 64.9896 151.507 65.0346 151.455 64.249C151.449 64.012 151.504 63.7774 151.616 63.5687C151.729 63.3599 151.893 63.1842 152.094 63.0589L151.86 61.3348L153.446 61.2313L153.4 62.7998L153.68 62.9211Z" fill="#636780"/>
<path opacity="0.1" d="M153.68 62.9211C153.76 62.956 153.832 63.0075 153.892 63.0721C153.951 63.1368 153.996 63.2132 154.025 63.2965C154.053 63.3797 154.063 63.4679 154.055 63.5554C154.047 63.6429 154.02 63.7277 153.978 63.8044C153.706 64.2901 153.38 64.9189 153.407 65.0873C153.451 65.3719 152.822 65.1263 152.74 65.058C152.658 64.9896 151.507 65.0346 151.455 64.249C151.449 64.012 151.504 63.7774 151.616 63.5687C151.729 63.3599 151.893 63.1842 152.094 63.0589L151.86 61.3348L153.446 61.2313L153.4 62.7998L153.68 62.9211Z" fill="black"/>
<path opacity="0.1" d="M153.248 62.8804C153.248 62.8804 152.68 64.7062 152.912 64.7774C153.144 64.8486 153.248 62.8804 153.248 62.8804Z" fill="black"/>
<path opacity="0.1" d="M152.656 62.4351C152.656 62.4351 152.088 64.2609 152.32 64.3321C152.552 64.4033 152.656 62.4351 152.656 62.4351Z" fill="black"/>
<path opacity="0.8" d="M146.371 56.7839L147.156 62.3204C147.156 62.3204 148.259 62.1903 148.868 62.071C149.002 62.0553 149.132 62.0176 149.253 61.9594C149.284 61.9293 149.35 61.9331 149.436 61.9521L149.437 61.9522C149.732 62.0178 150.256 62.2735 150.362 62.0685C150.37 62.0526 150.38 62.0379 150.392 62.025L150.394 62.0237C150.5 61.9122 150.701 61.9988 150.896 62.0319C151.001 62.0601 151.112 62.0474 151.208 61.9963C151.374 61.89 151.702 62.0725 151.973 62.1364C152.145 62.177 152.293 62.1718 152.364 62.0182C152.391 61.9685 152.429 61.9258 152.476 61.8938C152.523 61.8617 152.577 61.8411 152.633 61.8336L152.634 61.8337C152.891 61.7744 153.249 61.8253 153.457 61.7851C153.538 61.7706 153.595 61.741 153.614 61.6852C153.657 61.5658 153.887 61.5128 154.133 61.4707C154.432 61.4189 154.753 61.3835 154.779 61.2625C154.786 61.2226 154.816 61.2058 154.86 61.2053C155.025 61.2331 155.187 61.2765 155.344 61.3346L155.346 61.3347C155.478 61.3706 155.589 61.374 155.623 61.2785C155.659 61.1736 155.813 61.1885 155.986 61.2346C156.127 61.272 156.282 61.3297 156.402 61.36C156.509 61.386 156.586 61.3915 156.601 61.341C156.648 61.1643 157.218 61.5758 157.358 61.2218C157.498 60.8678 159.365 58.5443 157.067 55.4288C157.067 55.4288 156.429 55.4608 155.94 55.5398C155.778 55.5587 155.619 55.6002 155.469 55.6631C155.466 55.663 155.465 55.6643 155.462 55.6656C155.182 55.7384 154.893 55.7662 154.604 55.7482C154.438 55.7471 154.275 55.7828 154.125 55.8527C154.065 55.8838 154.018 55.9329 153.989 55.993C153.911 56.1612 153.739 56.1927 153.553 56.1785C153.301 56.159 153.023 56.0576 152.919 56.1064C152.916 56.1079 152.913 56.1092 152.91 56.1102C152.722 56.1868 152.026 56.0962 151.905 56.2101C151.902 56.2132 151.898 56.2168 151.896 56.2206C151.843 56.2944 151.572 56.2105 151.294 56.1678L151.292 56.1678C151.2 56.1404 151.103 56.1331 151.007 56.1462C150.912 56.1594 150.82 56.1928 150.739 56.2441C150.614 56.339 150.458 56.382 150.303 56.3641C150.115 56.3466 149.925 56.3507 149.737 56.3761C149.693 56.3871 149.654 56.411 149.624 56.4447C149.508 56.5828 149.238 56.559 148.996 56.5664C148.872 56.5589 148.749 56.5876 148.641 56.6492C148.602 56.6755 148.558 56.693 148.512 56.7002C148.153 56.7263 147.793 56.7015 147.441 56.6265L146.371 56.7839Z" fill="#636780"/>
<path opacity="0.1" d="M155.987 61.2346C156.127 61.2719 156.282 61.3296 156.402 61.36C158.26 58.5902 156.78 56.4318 155.941 55.5397C155.778 55.5587 155.62 55.6002 155.469 55.663C157.241 57.7922 156.351 60.3933 155.987 61.2346Z" fill="black"/>
<path opacity="0.1" d="M154.86 61.2052C155.025 61.2331 155.187 61.2764 155.344 61.3346L155.346 61.3346C156.943 58.6281 155.392 56.5525 154.604 55.7482C154.438 55.7471 154.275 55.7828 154.125 55.8527C155.818 57.7787 155.26 60.1242 154.86 61.2052Z" fill="black"/>
<path opacity="0.1" d="M153.457 61.7851C153.538 61.7706 153.595 61.741 153.615 61.6852C153.657 61.5658 153.887 61.5127 154.134 61.4707C155.535 59.0182 154.359 57.0926 153.553 56.1784C153.301 56.159 153.023 56.0575 152.92 56.1063C152.917 56.1079 152.913 56.1091 152.91 56.1102C154.782 58.2933 153.808 60.993 153.457 61.7851Z" fill="black"/>
<path opacity="0.1" d="M151.974 62.1364C152.145 62.177 152.293 62.1718 152.364 62.0182C152.391 61.9685 152.43 61.9258 152.476 61.8938C152.523 61.8617 152.577 61.8411 152.633 61.8336L152.634 61.8337C154.268 59.1037 152.695 57.0104 151.905 56.2101C151.902 56.2132 151.899 56.2167 151.896 56.2206C151.844 56.2944 151.572 56.2104 151.294 56.1678C153.496 58.4801 152.285 61.4731 151.974 62.1364Z" fill="black"/>
<path opacity="0.1" d="M150.394 62.0237C150.5 61.9122 150.701 61.9988 150.896 62.0319C152.595 59.3232 151.12 57.225 150.303 56.3641C150.115 56.3466 149.925 56.3507 149.737 56.3761C151.621 58.4847 150.778 61.1093 150.394 62.0237Z" fill="black"/>
<path opacity="0.1" d="M148.868 62.071C149.002 62.0553 149.132 62.0176 149.253 61.9594C149.285 61.9293 149.35 61.9332 149.436 61.9522L149.438 61.9522C150.945 59.4776 149.816 57.5222 148.996 56.5664C148.872 56.5589 148.749 56.5876 148.641 56.6492C148.602 56.6755 148.558 56.693 148.512 56.7002C150.069 58.7933 149.22 61.2615 148.868 62.071Z" fill="black"/>
<path opacity="0.8" d="M112.952 65.4575C113.063 59.5582 109.91 54.7146 105.909 54.6389C101.908 54.5632 98.5749 59.2842 98.4637 65.1834C98.3524 71.0827 101.506 75.9263 105.506 76.002C109.507 76.0777 112.841 71.3567 112.952 65.4575Z" fill="#636780"/>
<path opacity="0.1" d="M111.216 65.5805C111.307 60.7996 109.022 56.8794 106.113 56.8244C103.204 56.7694 100.773 60.6004 100.683 65.3813C100.593 70.1621 102.878 74.0824 105.787 74.1374C108.695 74.1924 111.126 70.3614 111.216 65.5805Z" fill="black"/>
<path opacity="0.8" d="M111.221 65.3134C111.311 60.5326 109.027 56.6123 106.118 56.5573C103.209 56.5023 100.778 60.3333 100.688 65.1142C100.598 69.895 102.883 73.8153 105.791 73.8703C108.7 73.9253 111.131 70.0943 111.221 65.3134Z" fill="#F0F0F4"/>
<path opacity="0.8" d="M105.731 59.3994C105.742 58.8095 105.472 58.326 105.129 58.3195C104.785 58.313 104.498 58.7859 104.486 59.3759C104.475 59.9658 104.745 60.4493 105.089 60.4558C105.432 60.4623 105.72 59.9893 105.731 59.3994Z" fill="#636780"/>
<path opacity="0.8" d="M103.066 68.6986C103.077 68.1087 102.807 67.6252 102.464 67.6187C102.12 67.6122 101.833 68.0852 101.821 68.6751C101.81 69.265 102.08 69.7485 102.423 69.755C102.767 69.7615 103.055 69.2885 103.066 68.6986Z" fill="#636780"/>
<path opacity="0.8" d="M109.861 64.375C109.872 63.7851 109.602 63.3016 109.259 63.2951C108.915 63.2886 108.627 63.7615 108.616 64.3515C108.605 64.9414 108.875 65.4249 109.218 65.4314C109.562 65.4379 109.85 64.9649 109.861 64.375Z" fill="#636780"/>
<path opacity="0.8" d="M107.921 70.5714C107.932 69.9815 107.662 69.498 107.319 69.4915C106.975 69.485 106.688 69.958 106.676 70.5479C106.665 71.1378 106.935 71.6213 107.278 71.6278C107.622 71.6343 107.91 71.1613 107.921 70.5714Z" fill="#636780"/>
<path opacity="0.8" d="M53.0603 44.5568C53.0603 44.5568 47.5985 58.3444 47.8488 59.2173C47.8488 59.2173 45.6237 60.5109 45.0966 60.167C44.5696 59.8231 45.1521 53.6901 45.1521 53.6901L46.2541 48.3015L47.4478 45.1184L53.0603 44.5568Z" fill="#65617D"/>
<path opacity="0.15" d="M53.0603 44.5568C53.0603 44.5568 47.5985 58.3444 47.8488 59.2173C47.8488 59.2173 45.6237 60.5109 45.0966 60.167C44.5696 59.8231 45.1521 53.6901 45.1521 53.6901L46.2541 48.3015L47.4478 45.1184L53.0603 44.5568Z" fill="black"/>
<path opacity="0.8" d="M102.286 62.8961C102.297 62.3061 102.028 61.8226 101.684 61.8161C101.34 61.8096 101.053 62.2826 101.042 62.8725C101.031 63.4624 101.3 63.9459 101.644 63.9524C101.987 63.9589 102.275 63.486 102.286 62.8961Z" fill="#636780"/>
<path opacity="0.8" d="M106.815 65.564C106.841 64.1629 106.047 63.0117 105.04 62.9926C104.034 62.9736 103.197 64.094 103.17 65.4951C103.144 66.8961 103.938 68.0474 104.945 68.0664C105.951 68.0854 106.788 66.9651 106.815 65.564Z" fill="#636780"/>
<path opacity="0.8" d="M46.9102 63.0063C46.7586 71.044 49.2872 78.4114 56.7022 77.7503C66.0391 77.7265 66.8915 71.4248 67.0431 63.3871C67.1947 55.3493 62.8006 49.2823 57.241 49.1772C51.6815 49.072 47.0618 54.9686 46.9102 63.0063Z" fill="#636780"/>
<path opacity="0.1" d="M46.8516 63.0188C46.969 56.7959 49.7649 51.8574 53.6013 49.9929C58.4634 51.0144 62.109 56.7062 61.9707 64.0394C61.8465 70.6264 61.2503 76.0465 55.9008 77.8019C49.0594 77.9187 46.7052 70.7818 46.8516 63.0188Z" fill="black"/>
<path opacity="0.1" d="M43.041 59.5271C43.041 59.5271 44.3529 60.6873 45.1013 59.9C45.1013 59.9 47.1733 45.514 49.4411 45.4901L57.2422 45.5708C57.2422 45.5708 58.168 45.9891 58.5352 47.7324L63.308 62.2038L90.9451 63.1272L93.1393 58.7383L70.2719 58.3726L70.2694 58.3618C70.1538 57.9162 66.5915 44.1823 64.0556 42.434C64.0543 42.4326 64.053 42.4326 64.0517 42.4312C63.9659 42.3707 63.8721 42.3227 63.7729 42.2884C63.7729 42.2884 54.2637 40.8397 51.1141 41.6483C51.1141 41.6483 47.8337 42.3209 47.0148 43.3071C47.0124 43.3096 47.0101 43.3122 47.008 43.315C46.8992 43.4251 45.6356 44.797 45.177 48.8154L43.041 59.5271Z" fill="black"/>
<path opacity="0.8" d="M43.0361 59.7942C43.0361 59.7942 44.348 60.9543 45.0965 60.1671C45.0965 60.1671 47.1684 45.781 49.4362 45.7571L57.2373 45.8379C57.2373 45.8379 58.1631 46.2561 58.5303 47.9994L63.3031 62.4708L90.9403 63.3942L93.1344 59.0053L70.267 58.6396L70.2645 58.6289C70.1489 58.1832 66.5866 44.4493 64.0508 42.701C64.0494 42.6997 64.0481 42.6996 64.0468 42.6983C63.9611 42.6378 63.8672 42.5897 63.7681 42.5554C63.7681 42.5554 54.2589 41.1067 51.1092 41.9153C51.1092 41.9153 47.8288 42.5879 47.0099 43.5742C47.0075 43.5766 47.0052 43.5793 47.0031 43.582C46.8943 43.6922 45.6307 45.0641 45.1721 49.0824L43.0361 59.7942Z" fill="#65617D"/>
<path opacity="0.1" d="M43.0361 59.7942C43.0361 59.7942 44.348 60.9543 45.0965 60.1671C45.0965 60.1671 47.1684 45.781 49.4362 45.7571L57.2373 45.8379C57.2373 45.8379 58.1631 46.2561 58.5303 47.9994L63.3031 62.4708L90.9403 63.3942L93.1344 59.0053L70.267 58.6396L70.2645 58.6289C70.1489 58.1832 66.5866 44.4493 64.0508 42.701C64.0494 42.6997 64.0481 42.6996 64.0468 42.6983C63.9611 42.6378 63.8672 42.5897 63.7681 42.5554C63.7681 42.5554 54.2589 41.1067 51.1092 41.9153C51.1092 41.9153 47.8288 42.5879 47.0099 43.5742C47.0075 43.5766 47.0052 43.5793 47.0031 43.582C46.8943 43.6922 45.6307 45.0641 45.1721 49.0824L43.0361 59.7942Z" fill="black"/>
<path opacity="0.8" d="M60.266 44.3592C60.9088 45.6402 66.3473 61.3704 66.3473 61.3704L70.2668 58.6396L70.2643 58.6289C70.1487 58.1833 66.5827 44.4346 64.0466 42.6983C62.3719 42.9525 59.8289 43.4894 60.266 44.3592Z" fill="#65617D"/>
<path opacity="0.8" d="M67.8675 37.3571L70.8068 47.6973L87.1486 47.5389L86.9863 49.0718C86.9863 49.0718 74.1513 50.699 68.7326 48.0588L65.9765 38.6125L40.1968 38.2584L45.1296 37.1942L67.8675 37.3571Z" fill="#65617D"/>
<path opacity="0.1" d="M67.8675 37.3571L70.8068 47.6973L87.1486 47.5389L86.9863 49.0718C86.9863 49.0718 74.1513 50.699 68.7326 48.0588L65.9765 38.6125L40.1968 38.2584L45.1296 37.1942L67.8675 37.3571Z" fill="white"/>
<path opacity="0.1" d="M144.138 55.0057C144.138 55.0057 152.81 59.5774 146.243 63.5938L144.502 63.9616C144.502 63.9616 150.944 59.4976 140.404 54.9351L144.138 55.0057Z" fill="black"/>
<path opacity="0.8" d="M143.871 55.0007C143.871 55.0007 152.543 59.5724 145.976 63.5888L144.236 63.9566C144.236 63.9566 150.677 59.4926 140.138 54.9301L143.871 55.0007Z" fill="#DCE0ED"/>
<path opacity="0.8" d="M57.9549 64.3505C58.0419 59.7417 55.9335 55.9643 53.2458 55.9135C50.558 55.8627 48.3088 59.5576 48.2218 64.1664C48.1349 68.7752 50.2433 72.5526 52.931 72.6034C55.6187 72.6542 57.868 68.9593 57.9549 64.3505Z" fill="#636780"/>
<path opacity="0.1" d="M56.7875 64.5086C56.8579 60.7735 55.331 57.7157 53.377 57.6788C51.4231 57.6418 49.782 60.6397 49.7115 64.3747C49.6411 68.1098 51.168 71.1676 53.1219 71.2045C55.0759 71.2415 56.717 68.2436 56.7875 64.5086Z" fill="black"/>
<path opacity="0.8" d="M56.7923 64.2415C56.8628 60.5065 55.3359 57.4487 53.3819 57.4117C51.428 57.3748 49.7869 60.3727 49.7164 64.1077C49.646 67.8428 51.1729 70.9006 53.1268 70.9375C55.0808 70.9745 56.7219 67.9766 56.7923 64.2415Z" fill="#F0F0F4"/>
<path opacity="0.8" d="M53.1159 59.6329C53.1246 59.172 52.9445 58.7948 52.7136 58.7904C52.4828 58.7861 52.2886 59.1562 52.2799 59.617C52.2712 60.0779 52.4513 60.4551 52.6821 60.4594C52.913 60.4638 53.1072 60.0937 53.1159 59.6329Z" fill="#636780"/>
<path opacity="0.8" d="M51.3063 66.903C51.315 66.4421 51.1349 66.065 50.904 66.0606C50.6732 66.0562 50.479 66.4263 50.4703 66.8872C50.4616 67.3481 50.6417 67.7252 50.8726 67.7296C51.1034 67.734 51.2976 67.3639 51.3063 66.903Z" fill="#636780"/>
<path opacity="0.8" d="M55.88 63.5112C55.8887 63.0503 55.7086 62.6732 55.4778 62.6688C55.2469 62.6645 55.0528 63.0345 55.0441 63.4954C55.0354 63.9563 55.2155 64.3334 55.4463 64.3378C55.6771 64.3422 55.8713 63.9721 55.88 63.5112Z" fill="#636780"/>
<path opacity="0.8" d="M54.5641 68.356C54.5728 67.8951 54.3927 67.518 54.1619 67.5136C53.931 67.5092 53.7368 67.8793 53.7281 68.3402C53.7194 68.8011 53.8995 69.1782 54.1304 69.1826C54.3612 69.187 54.5554 68.8169 54.5641 68.356Z" fill="#636780"/>
<path opacity="0.8" d="M50.7946 62.3716C50.8033 61.9107 50.6232 61.5335 50.3923 61.5292C50.1615 61.5248 49.9673 61.8949 49.9586 62.3558C49.9499 62.8166 50.13 63.1938 50.3609 63.1982C50.5917 63.2025 50.7859 62.8324 50.7946 62.3716Z" fill="#636780"/>
<path opacity="0.8" d="M53.8313 64.4464C53.8519 63.3518 53.3206 62.4541 52.6446 62.4413C51.9685 62.4285 51.4037 63.3055 51.3831 64.4001C51.3624 65.4947 51.8938 66.3924 52.5698 66.4052C53.2459 66.418 53.8107 65.541 53.8313 64.4464Z" fill="#636780"/>
<path opacity="0.1" d="M124.454 28.4766C124.454 28.4766 109.644 28.7307 90.3447 33.6416L124.454 28.4766Z" fill="black"/>
<path opacity="0.8" d="M54.3308 1.19574C54.3308 1.19574 55.132 1.3397 54.6941 2.3941C54.4626 2.90616 54.2907 3.44316 54.1816 3.99452C54.1816 3.99452 53.37 4.39781 53.4283 3.0142C53.4865 1.6306 54.3308 1.19574 54.3308 1.19574Z" fill="#DCE0ED"/>
<path opacity="0.8" d="M85.4766 26.5687L86.6563 31.2708L90.7205 27.7045" stroke="black" stroke-miterlimit="10"/>
<path opacity="0.8" d="M92.4977 32.1081L80.4819 30.0428L78.4552 41.8682L90.4709 43.9334L92.4977 32.1081Z" fill="white"/>
<path opacity="0.8" d="M83.9657 42.246L84.1917 40.9273C83.4868 40.8039 82.8302 40.4862 82.2954 40.01L82.7583 39.189C83.3098 39.658 83.9758 39.972 84.6883 40.0987C85.6139 40.2578 86.3315 39.83 86.4591 39.0858C86.5821 38.3677 86.1498 37.8364 85.252 37.2789C84.0117 36.528 83.442 35.8118 83.6367 34.6759C83.8224 33.5923 84.6583 32.8892 85.8914 32.8995L86.1174 31.5808L86.7769 31.6942L86.5598 32.9606C87.1537 33.0675 87.7104 33.3252 88.1765 33.7089L87.7028 34.5146C87.2859 34.1355 86.767 33.8874 86.2105 33.8011C85.2066 33.6286 84.8743 34.1897 84.7848 34.7119C84.6684 35.3909 84.9439 35.7878 85.9976 36.4527C87.2465 37.2318 87.9569 38.0529 87.7577 39.2149C87.581 40.2463 86.6983 41.0893 85.3174 41.0805L85.0847 42.4383L83.9657 42.246Z" fill="#636780"/>
<path opacity="0.8" d="M83.7616 85.0978C83.8656 85.0942 83.9642 85.0503 84.0365 84.9753C84.1088 84.9003 84.1492 84.8002 84.1492 84.696C84.1492 84.5917 84.1088 84.4916 84.0365 84.4166C83.9642 84.3417 83.8656 84.2977 83.7616 84.2941C83.6576 84.2977 83.5591 84.3417 83.4867 84.4166C83.4144 84.4916 83.374 84.5917 83.374 84.696C83.374 84.8002 83.4144 84.9003 83.4867 84.9753C83.5591 85.0503 83.6576 85.0942 83.7616 85.0978Z" fill="#65617D"/>
</g>
<path opacity="0.1" d="M177.598 121.831C180.357 121.831 182.594 121.452 182.594 120.985C182.594 120.518 180.357 120.139 177.598 120.139C174.839 120.139 172.602 120.518 172.602 120.985C172.602 121.452 174.839 121.831 177.598 121.831Z" fill="#3677D0"/>
<path d="M174.243 117.055C174.243 117.055 177.093 116.967 177.952 116.355C178.811 115.742 182.336 115.011 182.549 115.993C182.762 116.975 186.832 120.878 183.614 120.904C180.397 120.93 176.138 120.402 175.281 119.879C174.424 119.357 174.243 117.055 174.243 117.055Z" fill="#A8A8A8"/>
<path opacity="0.2" d="M183.671 120.562C180.454 120.588 176.196 120.06 175.338 119.537C174.685 119.139 174.425 117.71 174.338 117.051C174.278 117.054 174.243 117.055 174.243 117.055C174.243 117.055 174.424 119.356 175.281 119.879C176.138 120.402 180.397 120.93 183.614 120.904C184.543 120.897 184.864 120.566 184.846 120.076C184.717 120.372 184.363 120.557 183.671 120.562Z" fill="black"/>
<path opacity="0.1" d="M206.576 111.781C208.7 111.781 210.421 111.489 210.421 111.13C210.421 110.77 208.7 110.479 206.576 110.479C204.453 110.479 202.732 110.77 202.732 111.13C202.732 111.489 204.453 111.781 206.576 111.781Z" fill="#3677D0"/>
<path d="M203.994 108.106C203.994 108.106 206.187 108.038 206.848 107.567C207.509 107.095 210.221 106.533 210.385 107.288C210.549 108.044 213.681 111.048 211.205 111.068C208.729 111.088 205.452 110.681 204.793 110.279C204.133 109.877 203.994 108.106 203.994 108.106Z" fill="#A8A8A8"/>
<path opacity="0.2" d="M211.249 110.805C208.773 110.825 205.496 110.418 204.837 110.016C204.335 109.71 204.134 108.61 204.067 108.103C204.021 108.105 203.994 108.106 203.994 108.106C203.994 108.106 204.133 109.877 204.793 110.279C205.452 110.681 208.729 111.088 211.205 111.068C211.92 111.062 212.167 110.807 212.153 110.43C212.054 110.658 211.781 110.8 211.249 110.805Z" fill="black"/>
<path opacity="0.1" d="M189.133 153.829C194.202 153.829 198.311 153.133 198.311 152.275C198.311 151.417 194.202 150.722 189.133 150.722C184.064 150.722 179.955 151.417 179.955 152.275C179.955 153.133 184.064 153.829 189.133 153.829Z" fill="#3677D0"/>
<path d="M182.969 145.056C182.969 145.056 188.204 144.894 189.782 143.769C191.36 142.644 197.835 141.3 198.227 143.105C198.618 144.909 206.094 152.079 200.184 152.127C194.273 152.175 186.45 151.205 184.876 150.244C183.301 149.284 182.969 145.056 182.969 145.056Z" fill="#A8A8A8"/>
<path opacity="0.2" d="M200.289 151.499C194.379 151.547 186.556 150.577 184.981 149.616C183.782 148.885 183.304 146.26 183.144 145.049C183.033 145.054 182.969 145.056 182.969 145.056C182.969 145.056 183.301 149.284 184.876 150.244C186.45 151.205 194.273 152.175 200.184 152.127C201.89 152.113 202.479 151.505 202.447 150.605C202.21 151.149 201.559 151.489 200.289 151.499Z" fill="black"/>
<path d="M286.04 97.583C286.04 103.752 283.661 109.683 279.4 114.137C275.139 118.592 269.324 121.227 263.17 121.492C257.015 121.757 250.997 119.632 246.369 115.559C241.742 111.487 238.864 105.783 238.335 99.6367C238.301 99.248 238.275 98.8593 238.263 98.4648V98.4445C238.251 98.1574 238.246 97.8702 238.246 97.583C238.248 91.2375 240.766 85.1526 245.248 80.6664C249.729 76.1802 255.806 73.66 262.143 73.66C268.479 73.66 274.556 76.1802 279.038 80.6664C283.519 85.1526 286.038 91.2375 286.04 97.583Z" fill="#65617D"/>
<path opacity="0.2" d="M286.04 97.583C286.04 103.752 283.661 109.683 279.4 114.137C275.139 118.592 269.324 121.227 263.17 121.492C257.015 121.757 250.997 119.632 246.369 115.559C241.742 111.487 238.864 105.783 238.335 99.6367C238.301 99.248 238.275 98.8593 238.263 98.4648V98.4445C238.251 98.1574 238.246 97.8702 238.246 97.583C238.248 91.2375 240.766 85.1526 245.248 80.6664C249.729 76.1802 255.806 73.66 262.143 73.66C268.479 73.66 274.556 76.1802 279.038 80.6664C283.519 85.1526 286.038 91.2375 286.04 97.583Z" fill="black"/>
<path d="M262.142 110.636C269.341 110.636 275.177 104.792 275.177 97.583C275.177 90.3739 269.341 84.5298 262.142 84.5298C254.943 84.5298 249.107 90.3739 249.107 97.583C249.107 104.792 254.943 110.636 262.142 110.636Z" fill="#DCE0ED"/>
<path d="M262.142 105.415C266.462 105.415 269.963 101.908 269.963 97.5829C269.963 93.2575 266.462 89.751 262.142 89.751C257.823 89.751 254.321 93.2575 254.321 97.5829C254.321 101.908 257.823 105.415 262.142 105.415Z" fill="#65617D"/>
<path d="M158.464 97.583C158.464 103.752 156.085 109.683 151.824 114.137C147.563 118.592 141.748 121.227 135.594 121.492C129.439 121.757 123.42 119.632 118.793 115.559C114.166 111.487 111.288 105.783 110.759 99.6367C110.724 99.248 110.698 98.8593 110.687 98.4648V98.4445C110.675 98.1574 110.669 97.8702 110.669 97.583C110.672 91.2375 113.19 85.1526 117.672 80.6664C122.153 76.1802 128.23 73.66 134.567 73.66C140.903 73.66 146.98 76.1802 151.462 80.6664C155.943 85.1526 158.462 91.2375 158.464 97.583Z" fill="#65617D"/>
<path opacity="0.2" d="M158.464 97.583C158.464 103.752 156.085 109.683 151.824 114.137C147.563 118.592 141.748 121.227 135.594 121.492C129.439 121.757 123.42 119.632 118.793 115.559C114.166 111.487 111.288 105.783 110.759 99.6367C110.724 99.248 110.698 98.8593 110.687 98.4648V98.4445C110.675 98.1574 110.669 97.8702 110.669 97.583C110.672 91.2375 113.19 85.1526 117.672 80.6664C122.153 76.1802 128.23 73.66 134.567 73.66C140.903 73.66 146.98 76.1802 151.462 80.6664C155.943 85.1526 158.462 91.2375 158.464 97.583Z" fill="black"/>
<path d="M134.566 110.636C141.765 110.636 147.601 104.792 147.601 97.583C147.601 90.3739 141.765 84.5298 134.566 84.5298C127.367 84.5298 121.531 90.3739 121.531 97.583C121.531 104.792 127.367 110.636 134.566 110.636Z" fill="#DCE0ED"/>
<path d="M134.566 105.415C138.885 105.415 142.387 101.908 142.387 97.5829C142.387 93.2575 138.885 89.751 134.566 89.751C130.247 89.751 126.745 93.2575 126.745 97.5829C126.745 101.908 130.247 105.415 134.566 105.415Z" fill="#65617D"/>
<path d="M293.493 93.0987L285.52 92.7515L278.24 79.2121L252.586 77.1291L240.106 93.4458L240.799 97.959L239.065 102.125L157.597 102.819V100.736H156.904L156.21 97.6118H162.451L157.944 92.7515L141.997 79.2121C141.997 79.2121 114.61 79.9064 114.263 79.2121C113.916 78.5177 115.823 71.4008 115.823 71.4008L127.61 67.9292L167.824 64.8047C176.664 50.7445 184.638 44.1484 184.638 44.1484H287.947L292.8 69.1443V69.2033L293.493 93.0987Z" fill="#444053"/>
<path d="M235.945 94.8346C235.945 94.8346 246.345 75.3933 254.319 75.3933H273.733C273.733 75.3933 278.586 75.3933 280.666 79.2121L288.64 94.8346H282.399C282.399 94.8346 277.199 80.2536 271.306 79.9065C265.412 79.5593 255.359 79.9065 255.359 79.9065C255.359 79.9065 251.892 79.9065 249.812 84.0724C247.732 88.2384 240.699 97.3131 240.699 97.3131C240.699 97.3131 233.172 99.6949 235.945 94.8346Z" fill="#33323D"/>
<path d="M298 91.7101H284.96L284.827 102.125L298 99.0006V91.7101Z" fill="#33323D"/>
<path d="M109.409 85.4611C109.409 85.4611 110.103 80.2536 114.956 78.1706L146.85 76.4348C146.85 76.4348 152.05 76.782 154.823 83.3781L163.837 96.9176V99.0006H153.783C153.783 99.0006 148.93 80.6008 135.063 81.2951H118.423C118.423 81.2951 114.609 81.2951 113.223 87.5441L109.409 85.4611Z" fill="#33323D"/>
<path d="M184.291 46.2314H290.72C290.72 45.2186 290.318 44.2473 289.603 43.5311C288.888 42.8149 287.918 42.4126 286.906 42.4126H188.104C187.604 42.4126 187.108 42.5114 186.645 42.7033C186.182 42.8952 185.762 43.1765 185.408 43.5311C185.054 43.8857 184.773 44.3067 184.581 44.77C184.39 45.2333 184.291 45.7299 184.291 46.2314Z" fill="#33323D"/>
<path opacity="0.3" d="M207.099 66.7142H177.648C177.316 66.7142 176.99 66.6312 176.698 66.4727C176.407 66.3143 176.159 66.0853 175.978 65.8068C175.798 65.5282 175.689 65.2088 175.663 64.8777C175.637 64.5465 175.694 64.214 175.828 63.9104L180.489 53.4099C181.208 51.7899 182.38 50.4135 183.865 49.4475C185.349 48.4815 187.081 47.9673 188.852 47.9673H206.746C207.075 47.9673 207.4 48.0322 207.705 48.1583C208.009 48.2844 208.285 48.4693 208.517 48.7023C208.75 48.9353 208.935 49.2119 209.061 49.5164C209.187 49.8209 209.251 50.1472 209.251 50.4767V64.5588C209.251 64.8418 209.196 65.1221 209.088 65.3836C208.979 65.6451 208.821 65.8828 208.621 66.0829C208.421 66.2831 208.184 66.4418 207.923 66.5501C207.662 66.6585 207.382 66.7142 207.099 66.7142Z" fill="#3677D0"/>
<path opacity="0.3" d="M244.171 47.9673H218.36C217.542 47.9673 216.878 48.6317 216.878 49.4512V65.2303C216.878 66.0498 217.542 66.7142 218.36 66.7142H244.171C244.989 66.7142 245.652 66.0498 245.652 65.2303V49.4512C245.652 48.6317 244.989 47.9673 244.171 47.9673Z" fill="#3677D0"/>
<path d="M292.8 69.1442V69.2035L248.079 69.8386L246.914 44.1486H287.946L292.8 69.1442Z" fill="#33323D"/>
<path opacity="0.3" d="M283.345 47.9673H253.374C252.556 47.9673 251.893 48.6317 251.893 49.4512V65.2303C251.893 66.0498 252.556 66.7142 253.374 66.7142H283.345C284.163 66.7142 284.827 66.0498 284.827 65.2303V49.4512C284.827 48.6317 284.163 47.9673 283.345 47.9673Z" fill="#3677D0"/>
<path d="M210.861 73.3104H200.709C200.449 73.3104 200.238 73.5214 200.238 73.7818V74.9219C200.238 75.1823 200.449 75.3934 200.709 75.3934H210.861C211.121 75.3934 211.331 75.1823 211.331 74.9219V73.7818C211.331 73.5214 211.121 73.3104 210.861 73.3104Z" fill="#33323D"/>
<path d="M242.755 73.3104H232.603C232.343 73.3104 232.132 73.5214 232.132 73.7818V74.9219C232.132 75.1823 232.343 75.3934 232.603 75.3934H242.755C243.015 75.3934 243.225 75.1823 243.225 74.9219V73.7818C243.225 73.5214 243.015 73.3104 242.755 73.3104Z" fill="#33323D"/>
<path d="M267.434 45.894H254.597V58.5282H267.434V45.894Z" fill="white"/>
<path d="M260.383 57.9373V56.5285C259.63 56.5261 258.892 56.3135 258.252 55.9147L258.586 54.9801C259.242 55.3685 259.989 55.5755 260.751 55.5799C261.74 55.5799 262.409 55.008 262.409 54.2128C262.409 53.4456 261.865 52.9713 260.835 52.5529C259.414 51.9949 258.695 51.3532 258.695 50.1396C258.695 48.9818 259.438 48.1031 260.719 47.8938V46.4849H261.424V47.838C262.059 47.843 262.683 48.0111 263.235 48.3262L262.886 49.2468C262.386 48.9278 261.804 48.7629 261.211 48.7726C260.138 48.7726 259.893 49.4142 259.893 49.9722C259.893 50.6976 260.25 51.0603 261.461 51.5625C262.896 52.1483 263.779 52.8737 263.779 54.1152C263.779 55.2172 263.013 56.2495 261.579 56.4866V57.9373L260.383 57.9373Z" fill="#636780"/>
<path d="M113.4 124.572C113.401 128.284 111.969 131.853 109.405 134.534C106.841 137.215 103.342 138.8 99.6389 138.959C95.9355 139.119 92.3137 137.84 89.5293 135.39C86.7449 132.939 85.0131 129.507 84.6951 125.808C84.6742 125.574 84.6586 125.34 84.6516 125.103V125.091C84.6446 124.918 84.6411 124.745 84.6411 124.572C84.646 120.757 86.1632 117.099 88.8594 114.402C91.5556 111.706 95.2103 110.191 99.0208 110.191C102.831 110.191 106.486 111.706 109.182 114.402C111.878 117.099 113.396 120.757 113.4 124.572Z" fill="#65617D"/>
<path d="M99.0207 132.427C103.353 132.427 106.864 128.91 106.864 124.572C106.864 120.234 103.353 116.718 99.0207 116.718C94.6889 116.718 91.1772 120.234 91.1772 124.572C91.1772 128.91 94.6889 132.427 99.0207 132.427Z" fill="#DCE0ED"/>
<path d="M99.0205 129.285C101.62 129.285 103.727 127.175 103.727 124.572C103.727 121.97 101.62 119.86 99.0205 119.86C96.4214 119.86 94.3145 121.97 94.3145 124.572C94.3145 127.175 96.4214 129.285 99.0205 129.285Z" fill="#65617D"/>
<path d="M61.2572 97.2263L26.6309 97.9244V92.805C26.9411 88.6909 31.1539 87.2474 34.999 86.7953C37.9969 86.4545 41.0321 86.6825 43.9458 87.4673C51.2925 89.4153 55.9776 89.7923 58.2784 89.829C58.7845 89.8367 59.2725 90.0191 59.6599 90.3454C60.0473 90.6716 60.3104 91.1218 60.4048 91.6198C60.5146 92.2045 60.6227 92.8416 60.7238 93.47C60.8005 93.9622 60.8737 94.4475 60.9399 94.8996C61.1299 96.2104 61.2572 97.2263 61.2572 97.2263Z" fill="#65617D"/>
<path d="M88.8818 125.503H16.9502C16.3948 125.508 15.85 125.35 15.3836 125.049C14.9172 124.747 14.5497 124.314 14.327 123.804C13.7849 122.507 14.5431 121.68 15.3519 121.195C17.007 120.213 18.2616 118.675 18.8936 116.856C19.6606 114.595 20.41 111.036 20.7046 105.489C21.0079 99.7519 23.0821 96.9155 25.3235 95.5418H25.3253C28.2204 93.7685 31.3944 94.4335 31.3944 94.4335L60.5599 94.6674C61.079 94.9032 61.5592 95.2169 61.9839 95.5977C64.5827 98.0204 60.7934 101.183 60.7934 101.183C52.6589 109.794 58.8169 118.521 58.8169 118.521H73.7404C76.5287 118.535 79.2553 117.699 81.5577 116.124C83.5744 114.73 84.3552 113.379 84.6568 112.562C84.8868 111.937 85.1204 111.314 85.3993 110.71C89.314 102.208 84.5923 88.3767 82.5547 83.2049C82.0492 81.9185 81.7094 81.168 81.7094 81.168L86.3893 80.8136L89.3489 80.5885L89.3785 80.5867C95.9008 91.8519 98.3253 103.428 99.141 112.005C99.2177 112.813 99.2805 113.597 99.331 114.349C99.4238 115.78 99.2224 117.214 98.7391 118.564C98.2558 119.914 97.501 121.149 96.5215 122.195C95.5419 123.241 94.3584 124.074 93.0443 124.643C91.7302 125.212 90.3135 125.504 88.8818 125.503Z" fill="#FD8D1F"/>
<path opacity="0.1" d="M60.9399 94.8996H26.6309V93.47H60.7238C60.8005 93.9622 60.8737 94.4475 60.9399 94.8996Z" fill="black"/>
<path opacity="0.1" d="M61.9838 95.5977H25.6006C25.5059 95.5983 25.4122 95.5793 25.3252 95.5419C28.2203 93.7685 31.3943 94.4335 31.3943 94.4335L60.5598 94.6674C61.0789 94.9032 61.5591 95.2169 61.9838 95.5977Z" fill="black"/>
<path d="M62.2874 93.8198H12.8711C12.4771 93.8198 12.1577 94.1397 12.1577 94.5342C12.1577 94.9288 12.4771 95.2486 12.8711 95.2486H62.2874C62.6814 95.2486 63.0008 94.9288 63.0008 94.5342C63.0008 94.1397 62.6814 93.8198 62.2874 93.8198Z" fill="#DCE0ED"/>
<path opacity="0.1" d="M99.1414 112.005C97.4838 113.81 96.2637 114.52 96.3212 112.616C96.4955 106.856 86.3896 80.8136 86.3896 80.8136L89.3789 80.5867C95.9012 91.8519 98.3257 103.428 99.1414 112.005Z" fill="black"/>
<path opacity="0.1" d="M113.313 122.995C111.596 123.406 109.473 123.825 106.855 124.209C105.883 124.353 104.839 124.49 103.725 124.621C101.053 124.939 97.9626 125.217 94.393 125.429C93.382 125.491 92.3322 125.546 91.2434 125.595C89.2041 125.688 87.0212 125.759 84.6949 125.808L84.6514 125.103V125.091C87.9021 123.777 93.016 120.27 93.8404 111.136C95.8948 110.343 98.1035 110.033 100.296 110.23C102.489 110.426 104.608 111.124 106.489 112.27C108.37 113.415 109.963 114.978 111.147 116.837C112.33 118.697 113.071 120.803 113.313 122.995Z" fill="black"/>
<path d="M81.9414 125.503C81.9414 125.503 98.4476 123.712 92.7654 98.5237C92.7654 98.5237 100.922 106.011 105.995 110.172C111.068 114.334 120.11 120.071 120.11 120.071C120.11 120.071 114.71 125.125 81.9414 125.503Z" fill="#FFAD5C"/>
<path opacity="0.1" d="M81.9414 125.503C81.9414 125.503 98.4476 123.712 92.7654 98.5237C92.7654 98.5237 100.922 106.011 105.995 110.172C111.068 114.334 120.11 120.071 120.11 120.071C120.11 120.071 114.71 125.125 81.9414 125.503Z" fill="#B66F2A"/>
<path d="M37.8436 138.973C45.7852 138.973 52.2232 132.525 52.2232 124.572C52.2232 116.619 45.7852 110.172 37.8436 110.172C29.9019 110.172 23.4639 116.619 23.4639 124.572C23.4639 132.525 29.9019 138.973 37.8436 138.973Z" fill="#65617D"/>
<path d="M37.844 132.427C42.1758 132.427 45.6874 128.91 45.6874 124.572C45.6874 120.234 42.1758 116.718 37.844 116.718C33.5121 116.718 30.0005 120.234 30.0005 124.572C30.0005 128.91 33.5121 132.427 37.844 132.427Z" fill="#DCE0ED"/>
<path d="M37.8438 129.285C40.4429 129.285 42.5499 127.175 42.5499 124.572C42.5499 121.97 40.4429 119.86 37.8438 119.86C35.2447 119.86 33.1377 121.97 33.1377 124.572C33.1377 127.175 35.2447 129.285 37.8438 129.285Z" fill="#65617D"/>
<path opacity="0.1" d="M53.9665 120.248C53.9665 110.949 46.5921 103.41 37.4952 103.41C28.3984 103.41 21.0239 110.949 21.0239 120.248C21.0239 120.64 21.0382 121.029 21.064 121.415H53.9264C53.9523 121.029 53.9665 120.64 53.9665 120.248Z" fill="black"/>
<path d="M53.3563 119.958C53.3563 111.003 46.2549 103.743 37.495 103.743C28.7351 103.743 21.6338 111.003 21.6338 119.958C21.6338 120.336 21.6475 120.71 21.6724 121.081H53.3177C53.3426 120.71 53.3563 120.336 53.3563 119.958Z" fill="#FFAD5C"/>
<path opacity="0.1" d="M53.3562 119.957C53.3562 120.218 53.3493 120.476 53.3371 120.732C53.3318 120.849 53.3249 120.965 53.3179 121.082H21.6721C21.6652 120.965 21.6582 120.849 21.653 120.732C21.6408 120.476 21.6338 120.218 21.6338 119.957C21.6338 111.003 28.7347 103.744 37.495 103.744C46.2553 103.744 53.3562 111.003 53.3562 119.957Z" fill="#FD8D1F"/>
<path opacity="0.1" d="M53.3369 120.732C53.3317 120.849 53.3247 120.965 53.3178 121.082H21.672C21.665 120.965 21.6581 120.849 21.6528 120.732H53.3369Z" fill="black"/>
<path opacity="0.1" d="M96.3061 96.7909C97.3566 96.3152 97.2383 93.7819 96.042 91.1326C94.8456 88.4833 93.0243 86.7213 91.9738 87.197C90.9233 87.6727 91.0416 90.206 92.2379 92.8553C93.4343 95.5046 95.2557 97.2666 96.3061 96.7909Z" fill="black"/>
<path d="M96.4809 96.6163C97.5314 96.1406 97.4131 93.6073 96.2168 90.958C95.0204 88.3088 93.1991 86.5467 92.1486 87.0224C91.0981 87.4981 91.2164 90.0314 92.4127 92.6807C93.6091 95.33 95.4305 97.092 96.4809 96.6163Z" fill="#DCE0ED"/>
<path opacity="0.1" d="M89.349 80.5885V83.3236H84.0329C83.5378 83.3242 83.0435 83.2845 82.5548 83.205C82.0494 81.9185 81.7095 81.168 81.7095 81.168L86.3894 80.8137L89.349 80.5885Z" fill="black"/>
<path d="M89.3492 82.9743H84.0331C79.3643 82.9743 75.5796 79.4762 75.5796 75.1611V74.4362C75.5796 70.1211 79.3644 66.623 84.0331 66.623L89.3492 67.1063V82.9743Z" fill="#FD8D1F"/>
<path d="M80.5906 71.2485C80.5906 71.2485 83.7716 72.9503 81.9414 75.8304C81.9414 75.8304 79.6974 79.5177 76.1678 79.1686L74.8823 71.2485C74.8823 71.2485 79.1091 70.8558 80.5906 71.2485Z" fill="#FFAD5C"/>
<path opacity="0.1" d="M79.3696 71.0947C79.8746 71.1144 80.3687 71.2473 80.8157 71.4835C81.2626 71.7196 81.6511 72.0532 81.9524 72.4595C82.5188 73.2449 82.8565 74.3904 81.9415 75.8304C81.9415 75.8304 79.6974 79.5177 76.1678 79.1686L74.8823 71.2485C76.3739 71.1117 77.8721 71.0603 79.3696 71.0947Z" fill="#FFAD5C"/>
<path opacity="0.1" d="M89.1748 67.1063C89.7356 67.1063 90.2909 67.2169 90.809 67.4318C91.3271 67.6467 91.7979 67.9617 92.1944 68.3588C92.591 68.7559 92.9055 69.2274 93.1201 69.7462C93.3347 70.265 93.4452 70.8211 93.4452 71.3827V78.6979C93.4452 79.8321 92.9953 80.9198 92.1944 81.7218C91.3936 82.5238 90.3074 82.9743 89.1748 82.9743V67.1063Z" fill="black"/>
<path d="M89.3491 67.1063C90.4817 67.1063 91.5679 67.5569 92.3687 68.3588C93.1695 69.1608 93.6194 70.2485 93.6194 71.3827V78.6979C93.6194 79.8321 93.1695 80.9198 92.3687 81.7218C91.5679 82.5238 90.4817 82.9743 89.3491 82.9743V67.1063Z" fill="#DCE0ED"/>
<path d="M74.5143 79.6704C76.4649 79.6704 78.0461 77.744 78.0461 75.3676C78.0461 72.9912 76.4649 71.0648 74.5143 71.0648C72.5637 71.0648 70.9824 72.9912 70.9824 75.3676C70.9824 77.744 72.5637 79.6704 74.5143 79.6704Z" fill="#FD8D1F"/>
<path d="M36.9028 95.2587L38.4461 98.6999L41.0251 95.2587" stroke="black" stroke-miterlimit="10"/>
<path d="M44.6055 98.8436H32.0215V111.228H44.6055V98.8436Z" fill="white"/>
<path d="M37.6931 110.649V109.268C36.9545 109.266 36.2311 109.057 35.604 108.666L35.9317 107.75C36.5746 108.131 37.3069 108.334 38.0538 108.338C39.0232 108.338 39.6786 107.777 39.6786 106.998C39.6786 106.246 39.1462 105.781 38.1356 105.371C36.7429 104.824 36.0385 104.195 36.0385 103.005C36.0385 101.87 36.7662 101.009 38.0225 100.804V99.4228H38.7132V100.749C39.336 100.754 39.9472 100.919 40.4883 101.228L40.1469 102.13C39.6567 101.817 39.0855 101.656 38.5043 101.665C37.4529 101.665 37.2127 102.294 37.2127 102.841C37.2127 103.552 37.5622 103.908 38.7501 104.4C40.1565 104.974 41.0223 105.685 41.0223 106.902C41.0223 107.983 40.2714 108.994 38.865 109.227V110.649L37.6931 110.649Z" fill="#636780"/>
<path d="M15.5151 66.1058H13.6426V95.0372H15.5151V66.1058Z" fill="#DCE0ED"/>
<path d="M13.6427 66.1058C13.6427 66.1058 6.68761 66.3737 5.35009 66.9095C4.01257 67.4453 0 67.1774 0 67.1774V74.6781C0 74.6781 4.54758 73.6066 6.95512 74.4102C9.36266 75.2139 14.4452 73.3387 14.4452 73.3387L13.6427 66.1058Z" fill="#DCE0ED"/>
</g>
<defs>
<clipPath id="clip0">
<rect width="298" height="159" fill="white"/>
</clipPath>
</defs>
</svg>
