<svg width="563" height="411" viewBox="0 0 563 411" fill="none" xmlns="http://www.w3.org/2000/svg">
<g clip-path="url(#clip0)">
<g opacity="0.1">
<path opacity="0.1" d="M34.1556 61.4682C39.4048 70.6084 36.4971 82.4726 30.7951 91.3348C25.093 100.197 16.9826 107.231 10.663 115.686C-1.89905 132.556 -5.14633 159.194 10.6938 173.056C14.1058 176.043 18.3257 178.406 20.4048 182.433C23.2764 187.989 21.151 194.683 18.9844 200.569L18.8043 201.053C10.6166 223.263 22.6795 247.877 45.2869 254.844C57.7975 258.701 69.0884 264.952 77.4459 275.06C84.7484 283.897 88.9683 294.798 93.7852 305.2C102.493 323.99 113.732 341.956 129.263 355.638C144.795 369.32 165.061 378.389 185.749 377.642C233.002 375.937 267.795 326.148 315.002 323.527C318.404 323.336 322.027 323.465 324.873 325.339C328.887 327.986 330.117 333.182 331.805 337.698C340.744 361.607 367.658 372.626 391.758 380.999L437.045 396.746C461.644 405.294 487.479 413.971 513.21 410.011C538.941 406.051 564.065 384.908 562.948 358.872C562.032 337.487 544.319 318.666 546.64 297.383C548.246 282.676 559.253 270.323 561.096 255.642C563.015 240.364 554.668 225.693 545.06 213.664C517.414 179.039 478.015 156.217 439.562 134.204C412.477 118.694 385.254 103.122 356.095 91.9784C284.212 64.5784 205.207 65.7576 128.63 58.2807C115.461 56.9934 101.695 55.4794 89.627 49.6554C80.3638 45.1858 73.123 34.8509 62.9592 32.6624C55.2141 30.994 43.7585 34.4389 36.9963 38.2032C24.671 45.1137 28.0676 50.8656 34.1556 61.4682Z" fill="#FD8D1F"/>
</g>
<path d="M508.383 0H94.7835C92.8899 0.00809317 91.0165 0.389568 89.2703 1.12261C87.5242 1.85566 85.9395 2.9259 84.607 4.27215C83.2745 5.6184 82.2202 7.21425 81.5045 8.96846C80.7888 10.7227 80.4256 12.6008 80.4358 14.4956V305.54C80.4256 307.435 80.7888 309.313 81.5045 311.067C82.2202 312.821 83.2745 314.417 84.607 315.764C85.9395 317.11 87.5242 318.18 89.2703 318.913C91.0165 319.646 92.8899 320.028 94.7835 320.036H508.383C510.276 320.028 512.15 319.646 513.896 318.913C515.642 318.18 517.227 317.11 518.559 315.764C519.892 314.417 520.946 312.821 521.662 311.067C522.377 309.313 522.741 307.435 522.73 305.54V14.4956C522.741 12.6008 522.377 10.7227 521.662 8.96846C520.946 7.21425 519.892 5.6184 518.559 4.27215C517.227 2.9259 515.642 1.85566 513.896 1.12261C512.15 0.389568 510.276 0.00809317 508.383 0Z" fill="url(#paint0_linear)"/>
<path d="M520.863 30.8345V302.069C520.863 305.844 519.364 309.464 516.696 312.133C514.029 314.803 510.411 316.302 506.638 316.302H96.693C92.9205 316.302 89.3025 314.803 86.6349 312.133C83.9674 309.464 82.4688 305.844 82.4688 302.069V30.8345H520.863Z" fill="#F6F7F9"/>
<path d="M189.557 170.636V316.297H96.693C88.8398 316.297 82.4688 309.798 82.4688 301.786V170.636H189.557Z" fill="#DDE1EC"/>
<path d="M399.833 64.043H221.351V69.0636H399.833V64.043Z" fill="#DDE1EC"/>
<path d="M328.995 99.7593H221.351V104.78H328.995V99.7593Z" fill="#DDE1EC"/>
<path d="M389.237 99.7593H352.981V104.78H389.237V99.7593Z" fill="#DDE1EC"/>
<g opacity="0.1">
<path opacity="0.1" d="M151.629 225.05H115.374V230.07H151.629V225.05Z" fill="#FD8D1F"/>
</g>
<path d="M389.237 146.64H352.981V151.66H389.237V146.64Z" fill="#DDE1EC"/>
<path d="M389.237 193.52H352.981V198.541H389.237V193.52Z" fill="#DDE1EC"/>
<path d="M389.237 115.388H352.981V120.408H389.237V115.388Z" fill="#DDE1EC"/>
<path d="M451.702 115.388H415.447V120.408H451.702V115.388Z" fill="#DDE1EC"/>
<path d="M389.237 131.011H352.981V136.032H389.237V131.011Z" fill="#DDE1EC"/>
<path d="M451.702 131.011H415.447V136.032H451.702V131.011Z" fill="#DDE1EC"/>
<path d="M451.702 160.033H415.447V165.054H451.702V160.033Z" fill="#DDE1EC"/>
<path d="M451.702 175.662H415.447V180.682H451.702V175.662Z" fill="#DDE1EC"/>
<path d="M451.702 209.148H415.447V214.169H451.702V209.148Z" fill="#DDE1EC"/>
<path d="M328.995 115.388H221.351V120.408H328.995V115.388Z" fill="#DDE1EC"/>
<path d="M328.995 131.011H221.351V136.032H328.995V131.011Z" fill="#DDE1EC"/>
<path d="M328.995 146.64H221.351V151.66H328.995V146.64Z" fill="#DDE1EC"/>
<path d="M328.995 162.268H221.351V167.289H328.995V162.268Z" fill="#DDE1EC"/>
<path d="M328.995 177.892H221.351V182.912H328.995V177.892Z" fill="#DDE1EC"/>
<path d="M328.995 193.52H221.351V198.541H328.995V193.52Z" fill="#DDE1EC"/>
<path d="M328.995 209.148H221.351V214.169H328.995V209.148Z" fill="#DDE1EC"/>
<path d="M189.557 30.5566H82.4688V173.427H189.557V30.5566Z" fill="#FD8D1F"/>
<path d="M520.863 16.3235C520.861 12.5496 519.362 8.93071 516.695 6.26262C514.027 3.59454 510.41 2.0957 506.638 2.0957H96.693C92.9205 2.0957 89.3025 3.59524 86.6349 6.26444C83.9674 8.93364 82.4688 12.5538 82.4688 16.3287V32.5133H520.863V16.3235Z" fill="#E8EAF1"/>
<path d="M99.7602 22.745C102.841 22.745 105.339 20.2458 105.339 17.163C105.339 14.0802 102.841 11.5811 99.7602 11.5811C96.6792 11.5811 94.1816 14.0802 94.1816 17.163C94.1816 20.2458 96.6792 22.745 99.7602 22.745Z" fill="#FF5252"/>
<path d="M118.163 22.745C121.244 22.745 123.742 20.2458 123.742 17.163C123.742 14.0802 121.244 11.5811 118.163 11.5811C115.082 11.5811 112.584 14.0802 112.584 17.163C112.584 20.2458 115.082 22.745 118.163 22.745Z" fill="#FFFF00"/>
<path d="M136.571 22.745C139.652 22.745 142.15 20.2458 142.15 17.163C142.15 14.0802 139.652 11.5811 136.571 11.5811C133.49 11.5811 130.993 14.0802 130.993 17.163C130.993 20.2458 133.49 22.745 136.571 22.745Z" fill="#69F0AE"/>
<path d="M167.253 101.994C167.263 109.152 164.806 116.094 160.296 121.649C160.126 121.861 159.956 122.067 159.781 122.273C159.747 122.308 159.716 122.345 159.688 122.386C158.09 124.236 156.282 125.893 154.3 127.324L154.043 127.515C153.688 127.767 153.328 128.03 152.962 128.246L152.71 128.405L152.17 128.74C152.09 128.791 152.007 128.837 151.923 128.879C151.856 128.927 151.785 128.97 151.712 129.008C150.919 129.471 150.101 129.899 149.262 130.29C149.169 130.342 149.066 130.383 148.969 130.429C148.871 130.476 148.758 130.532 148.644 130.573C148.531 130.615 148.31 130.723 148.13 130.79C146.333 131.551 144.466 132.137 142.556 132.54C140.736 132.93 138.885 133.156 137.024 133.215H136.741H136.005C133.55 133.223 131.102 132.942 128.713 132.376L128.265 132.268C127.215 131.993 126.186 131.674 125.178 131.31C124.565 131.083 123.958 130.836 123.366 130.573C123.217 130.506 123.073 130.445 122.923 130.373L122.476 130.172L122.085 129.971L121.673 129.76L121.215 129.518L120.7 129.224L120.618 129.178C118.424 127.932 116.389 126.426 114.556 124.693C114.401 124.543 114.242 124.399 114.093 124.24C113.943 124.08 113.768 123.92 113.614 123.756C110.049 120.082 107.441 115.588 106.019 110.67C104.596 105.751 104.404 100.558 105.458 95.5475C106.512 90.5369 108.78 85.8622 112.063 81.9345C115.346 78.0067 119.543 74.9463 124.285 73.0224C129.028 71.0985 134.17 70.3699 139.259 70.9009C144.349 71.4319 149.23 73.206 153.474 76.0674C157.718 78.9288 161.194 82.7897 163.596 87.3105C165.999 91.8314 167.255 96.8738 167.253 101.994Z" fill="white"/>
<path d="M153.585 114.512V114.554L153.621 114.59C153.61 114.559 153.595 114.538 153.585 114.512ZM122.11 129.961C122.059 129.24 122.007 128.591 121.961 128.035C121.925 127.643 121.889 127.293 121.858 127.005C121.855 126.991 121.855 126.977 121.858 126.964C121.858 126.892 121.858 126.825 121.858 126.758C121.362 127.515 120.955 128.327 120.644 129.178L120.726 129.224L121.241 129.518L121.699 129.76L122.11 129.971C122.11 130.201 122.127 130.441 122.162 130.692C122.136 130.445 122.126 130.208 122.11 129.976V129.961ZM128.96 100.521L128.986 100.568C128.987 100.58 128.987 100.592 128.986 100.604C128.981 100.58 128.972 100.558 128.96 100.537V100.521Z" fill="url(#paint1_linear)"/>
<path d="M137.92 95.2642C137.92 95.2642 136.062 103.617 141.167 108.03C146.272 112.443 129.109 115.898 126.083 112.206C123.057 108.514 128.183 106.629 128.183 106.629C128.183 106.629 130.756 104.538 128.183 98.2766L137.92 95.2642Z" fill="#E0A17E"/>
<path d="M142.551 132.551C140.731 132.941 138.879 133.167 137.019 133.226H136.736H136C133.546 133.23 131.1 132.945 128.713 132.376L128.265 132.268C127.215 131.993 126.186 131.674 125.177 131.31L124.663 123.586L126.896 112.891L128.208 106.588L128.579 104.827L128.955 105.341L129.037 105.455L129.14 105.589L133.257 111.073L137.472 106.531L137.688 106.294L138.846 105.043L139.283 104.574L139.489 106.165L140.23 111.886L141.604 122.438L142.551 132.551Z" fill="#F0F1F5"/>
<path opacity="0.1" d="M154.037 127.515C153.682 127.767 153.322 128.03 152.957 128.246L152.704 128.405L152.164 128.74C152.084 128.791 152.002 128.837 151.917 128.879C151.85 128.927 151.779 128.97 151.706 129.008C150.572 128.04 149.721 126.784 149.241 125.372C149.18 125.193 149.129 125.011 149.087 124.827C149.084 124.797 149.084 124.768 149.087 124.739L148.793 125.512L147.893 127.741C147.893 127.741 148.16 128.833 148.639 130.563C148.471 130.642 148.299 130.714 148.124 130.779C146.327 131.541 144.461 132.127 142.551 132.53C140.731 132.92 138.879 133.146 137.019 133.205H136.736C136.475 130.811 136.384 128.402 136.463 125.996L137.142 113.034L137.487 106.495L137.677 102.89C137.677 102.89 137.744 102.962 137.873 103.081C138.002 103.199 138.089 103.287 138.243 103.426C140.54 105.434 143.434 106.63 146.477 106.829C147.318 106.854 148.142 107.072 148.884 107.466C149.627 107.861 150.269 108.422 150.759 109.105C151.689 110.429 152.288 111.956 152.504 113.56L152.658 114.976L152.699 115.377L152.756 115.892L154.037 127.515Z" fill="black"/>
<path d="M154.295 127.329L154.038 127.52C153.683 127.772 153.322 128.035 152.957 128.251L152.705 128.411L152.165 128.745C150.954 127.772 150.033 126.486 149.499 125.028C149.474 124.967 149.453 124.905 149.437 124.842C149.38 124.662 149.329 124.471 149.288 124.286L149.077 124.837L148.789 125.584L148.13 127.304C148.13 127.304 148.434 128.539 148.969 130.445C148.861 130.496 148.758 130.548 148.645 130.589C148.531 130.63 148.31 130.738 148.13 130.805C146.333 131.566 144.466 132.153 142.557 132.556C140.736 132.946 138.885 133.172 137.024 133.231C136.724 130.681 136.616 128.113 136.7 125.548L137.359 112.988L137.709 106.294L137.879 103.137L137.909 102.483C137.937 102.514 137.966 102.544 137.997 102.571C140.368 104.848 143.466 106.214 146.746 106.428C147.574 106.452 148.387 106.664 149.122 107.048C149.856 107.433 150.494 107.98 150.986 108.647C151.942 109.982 152.557 111.531 152.777 113.158L153.05 115.697V115.733L153.106 116.248L154.295 127.329Z" fill="#293158"/>
<path opacity="0.1" d="M129.274 104.054V104.368L129.192 105.563L128.903 109.652C128.903 109.652 128.734 110.831 128.61 113.488C128.43 116.99 128.322 123.056 128.739 132.386L128.291 132.278C127.241 132.003 126.212 131.684 125.203 131.32C124.591 131.094 123.984 130.847 123.392 130.584C123.242 130.517 123.098 130.455 122.949 130.383C122.8 128.323 122.62 127.062 122.62 127.062C122.62 127.062 122.481 127.237 122.27 127.577C122.182 127.716 122.074 127.886 121.961 128.092L121.935 128.138C121.836 128.31 121.729 128.505 121.616 128.725C121.488 128.982 121.359 129.24 121.235 129.564L120.721 129.271L120.638 129.225C118.445 127.979 116.409 126.473 114.576 124.739C115.405 121.82 116.12 118.884 116.377 118.509C117.337 117.034 118.074 115.425 118.565 113.735C118.907 112.587 119.501 111.53 120.302 110.639C121.103 109.749 122.091 109.047 123.196 108.586C125.505 107.503 127.569 105.961 129.264 104.054H129.274Z" fill="black"/>
<path d="M129.279 103.91C127.287 105.598 125.068 106.997 122.687 108.066C121.582 108.527 120.593 109.229 119.792 110.119C118.991 111.01 118.398 112.067 118.055 113.215C117.565 114.905 116.828 116.514 115.868 117.989C115.616 118.364 114.895 121.305 114.067 124.23C114.216 124.384 114.376 124.533 114.53 124.683C116.363 126.416 118.399 127.922 120.592 129.168L120.675 129.214C120.975 128.449 121.354 127.717 121.807 127.031L121.833 126.99C122.013 126.722 122.126 126.578 122.126 126.578C122.126 126.578 122.172 126.918 122.239 127.53C122.306 128.143 122.394 129.075 122.476 130.157L122.924 130.357C123.068 130.429 123.212 130.491 123.366 130.558C123.958 130.821 124.565 131.073 125.178 131.295C126.176 131.662 127.205 131.981 128.265 132.252C127.843 123.014 127.936 116.928 128.106 113.339C128.24 110.445 128.42 109.162 128.42 109.162L129.073 105.403L129.259 104.343L129.346 103.828L129.279 103.91Z" fill="#293158"/>
<path opacity="0.1" d="M132.588 103.39C131.431 103.391 130.289 103.128 129.248 102.622C129.068 101.288 128.71 99.9837 128.183 98.7448L137.919 95.7324C137.564 97.5993 137.497 99.5095 137.719 101.397C136.316 102.677 134.486 103.387 132.588 103.39Z" fill="black"/>
<path d="M132.588 102.926C136.814 102.926 140.241 99.4979 140.241 95.269C140.241 91.04 136.814 87.6118 132.588 87.6118C128.362 87.6118 124.936 91.04 124.936 95.269C124.936 99.4979 128.362 102.926 132.588 102.926Z" fill="#E0A17E"/>
<g opacity="0.1">
<path opacity="0.1" d="M148.14 130.8C147.538 128.684 147.204 127.293 147.204 127.293L148.362 124.276C148.452 124.7 148.585 125.114 148.758 125.512L148.783 125.579L148.125 127.299C148.125 127.299 148.428 128.534 148.964 130.44C148.856 130.491 148.753 130.543 148.639 130.584C148.526 130.625 148.305 130.733 148.14 130.8Z" fill="black"/>
</g>
<path d="M157.172 116.382C157.172 116.382 156.477 109.651 157.172 106.402C157.867 103.153 149.056 106.865 150.909 111.273C151.9 113.717 153.144 116.05 154.619 118.235L157.172 116.382Z" fill="#E0A17E"/>
<path opacity="0.1" d="M159.683 122.386C158.085 124.236 156.277 125.893 154.295 127.324L154.038 127.515C153.683 127.767 153.322 128.03 152.957 128.246C152.128 127.261 151.387 126.205 150.744 125.089L150.677 124.971L152.535 115.223L152.731 115.424C152.813 115.501 152.921 115.604 153.05 115.707H153.075C154.038 116.531 156.071 117.767 157.048 114.893C157.214 114.39 157.332 113.873 157.403 113.349L157.594 114.059L157.707 114.476L159.766 122.247L159.683 122.386Z" fill="black"/>
<path d="M159.683 122.386C158.085 124.236 156.277 125.893 154.295 127.324L154.038 127.515C153.683 127.767 153.322 128.029 152.957 128.246L152.705 128.405C151.95 127.469 151.272 126.474 150.677 125.429L150.744 125.084L152.535 115.681C152.535 115.681 152.628 115.789 152.787 115.939L153.106 116.222C153.24 116.335 153.394 116.459 153.564 116.572C154.63 117.303 156.251 117.854 157.074 115.285C157.226 114.808 157.336 114.318 157.403 113.822L157.64 114.698L159.683 122.386Z" fill="#293158"/>
<path opacity="0.02" d="M159.683 122.386C158.085 124.236 156.277 125.893 154.295 127.324L154.038 127.515C153.683 127.767 153.322 128.029 152.957 128.246L152.705 128.405C151.95 127.469 151.272 126.474 150.677 125.429L150.744 125.084L152.535 115.681C152.535 115.681 152.628 115.789 152.787 115.939L153.106 116.222C153.24 116.335 153.394 116.459 153.564 116.572C154.63 117.303 156.251 117.854 157.074 115.285C157.226 114.808 157.336 114.318 157.403 113.822L157.64 114.698L159.683 122.386Z" fill="black"/>
<path opacity="0.1" d="M121.858 127.01L121.832 127.051C121.832 127.025 121.832 126.994 121.832 126.974C122.156 125.846 122.45 125.084 122.712 124.857C122.712 124.857 123.057 127.149 123.366 130.584C123.216 130.517 123.072 130.455 122.923 130.383L122.475 130.182C122.398 129.075 122.316 128.174 122.239 127.556C122.161 126.938 122.125 126.603 122.125 126.603C122.125 126.603 122.038 126.742 121.858 127.01Z" fill="black"/>
<path opacity="0.1" d="M132.681 93.1581C133.081 92.9386 133.541 92.8554 133.993 92.9213C134.188 93.0037 134.363 93.1265 134.508 93.2817C135.11 93.8533 135.707 94.5176 136.52 94.6927C137.022 94.769 137.534 94.7463 138.028 94.6257C138.893 94.5256 139.734 94.2691 140.508 93.8687C142.232 92.8389 142.783 90.6092 142.891 88.6061C142.927 87.9315 142.788 87.0612 142.124 86.917C141.28 86.7368 140.663 88.019 139.808 87.88C139.549 87.8169 139.315 87.6748 139.139 87.4732C138.558 86.8913 138.161 86.1446 137.595 85.5576C136.69 84.7113 135.518 84.2085 134.281 84.1364C133.055 84.0698 131.825 84.1861 130.633 84.4814C129.975 84.59 129.34 84.8075 128.754 85.1251C128.464 85.2839 128.212 85.5046 128.016 85.7715C127.821 86.0385 127.686 86.3451 127.622 86.6699C127.565 87.1179 127.684 87.5813 127.596 88.0242C127.51 88.3233 127.363 88.6015 127.164 88.8415C126.966 89.0816 126.721 89.2783 126.443 89.4197C125.929 89.7389 125.322 89.9346 124.817 90.326C124.016 90.9491 123.46 91.8354 123.248 92.8286C123.042 93.8164 123.014 94.833 123.165 95.8307C123.376 97.5639 123.859 99.253 124.596 100.836C124.839 101.388 125.152 101.908 125.527 102.381C126.078 102.982 126.71 103.502 127.406 103.926C127.532 104.04 127.682 104.125 127.845 104.174C128.008 104.223 128.179 104.235 128.348 104.209C128.444 104.174 128.533 104.122 128.61 104.054C129.269 103.503 129.331 102.509 129.125 101.67C128.919 100.831 128.569 100.033 128.528 99.1778C128.501 98.9379 128.548 98.6956 128.662 98.4826C128.799 98.3103 128.954 98.1532 129.125 98.014C129.348 97.7576 129.522 97.4627 129.639 97.1438C130.033 96.3559 130.302 95.5116 130.437 94.6412C130.511 93.9243 130.355 93.2025 129.989 92.5814C130.343 92.9139 130.78 93.1434 131.255 93.2451C131.729 93.3467 132.222 93.3167 132.681 93.1581Z" fill="black"/>
<path d="M132.681 92.8901C133.081 92.6705 133.541 92.5874 133.993 92.6532C134.188 92.7356 134.363 92.8584 134.508 93.0137C135.11 93.5852 135.707 94.2495 136.52 94.4246C137.022 94.501 137.534 94.4782 138.028 94.3576C138.893 94.2575 139.734 94.001 140.508 93.6007C142.232 92.5708 142.783 90.3411 142.891 88.338C142.927 87.6634 142.788 86.7932 142.124 86.649C141.28 86.4688 140.663 87.751 139.808 87.6119C139.549 87.5488 139.315 87.4067 139.139 87.2051C138.558 86.6232 138.161 85.8766 137.595 85.2895C136.69 84.4432 135.518 83.9404 134.281 83.8683C133.055 83.8017 131.825 83.918 130.633 84.2133C129.975 84.3219 129.34 84.5395 128.754 84.857C128.464 85.0158 128.212 85.2365 128.016 85.5035C127.821 85.7704 127.686 86.0771 127.622 86.4018C127.565 86.8498 127.684 87.3133 127.596 87.7561C127.51 88.0553 127.363 88.3334 127.164 88.5735C126.966 88.8135 126.721 89.0103 126.443 89.1516C125.929 89.4709 125.322 89.6665 124.817 90.0579C124.016 90.681 123.46 91.5673 123.248 92.5605C123.042 93.5483 123.014 94.565 123.165 95.5626C123.376 97.2958 123.859 98.985 124.596 100.568C124.839 101.12 125.152 101.64 125.527 102.113C126.078 102.714 126.71 103.234 127.406 103.657C127.532 103.772 127.682 103.857 127.845 103.906C128.008 103.955 128.179 103.967 128.348 103.941C128.444 103.906 128.533 103.854 128.61 103.786C129.269 103.235 129.331 102.241 129.125 101.402C128.919 100.563 128.569 99.7645 128.528 98.9097C128.501 98.6698 128.548 98.4275 128.662 98.2146C128.799 98.0423 128.954 97.8852 129.125 97.746C129.348 97.4895 129.522 97.1946 129.639 96.8757C130.033 96.0878 130.302 95.2436 130.437 94.3731C130.511 93.6563 130.355 92.9344 129.989 92.3133C130.343 92.6459 130.78 92.8754 131.255 92.977C131.729 93.0787 132.222 93.0486 132.681 92.8901Z" fill="#463E3B"/>
<path d="M90.5738 291.637C97.7333 291.637 103.537 289.504 103.537 286.874C103.537 284.243 97.7333 282.11 90.5738 282.11C83.4143 282.11 77.6104 284.243 77.6104 286.874C77.6104 289.504 83.4143 291.637 90.5738 291.637Z" fill="#CD9494"/>
<path opacity="0.05" d="M90.5739 288.774C94.2261 288.774 97.1868 287.685 97.1868 286.343C97.1868 285.001 94.2261 283.913 90.5739 283.913C86.9217 283.913 83.9609 285.001 83.9609 286.343C83.9609 287.685 86.9217 288.774 90.5739 288.774Z" fill="black"/>
<path d="M77.6055 285.828C77.6055 285.828 91.8915 293.769 103.532 286.889C103.532 286.889 101.947 314.423 94.0066 317.07H83.431C83.431 317.07 74.4354 298.516 77.6055 285.828Z" fill="#FF7361"/>
<path d="M101.767 235.364C105.405 248.665 89.8946 286.554 89.8946 286.554C89.8946 286.554 57.2725 261.837 53.6341 248.541C51.8877 242.155 52.7485 235.335 56.027 229.584C59.3054 223.832 64.7331 219.619 71.1159 217.871C77.4987 216.124 84.3139 216.985 90.0621 220.266C95.8103 223.546 100.021 228.977 101.767 235.364Z" fill="#FD8D1F"/>
<path opacity="0.1" d="M101.767 235.364C105.405 248.665 89.8946 286.554 89.8946 286.554C89.8946 286.554 57.2725 261.837 53.6341 248.541C51.8877 242.155 52.7485 235.335 56.027 229.584C59.3054 223.832 64.7331 219.619 71.1159 217.871C77.4987 216.124 84.3139 216.985 90.0621 220.266C95.8103 223.546 100.021 228.977 101.767 235.364Z" fill="black"/>
<path d="M71.25 217.943C71.25 217.943 91.5571 248.618 90.0287 286.621" stroke="#535461" stroke-miterlimit="10"/>
<path d="M106.95 259.669C106.95 259.669 88.5156 249.643 90.8675 286.647C90.8675 286.647 106.229 286.096 111.679 273.557C112.744 271.119 112.878 268.374 112.057 265.843C111.236 263.312 109.516 261.171 107.222 259.823L106.95 259.669Z" fill="#FD8D1F"/>
<path d="M107.253 259.731C107.253 259.731 104.875 278.938 90.8672 286.647" stroke="#535461" stroke-miterlimit="10"/>
<path opacity="0.05" d="M101.803 287.77C101.289 294.104 99.0707 313.774 92.4269 315.994H82.9424C83.246 316.668 83.4313 317.055 83.4313 317.055H94.0171C101.947 314.403 103.538 286.858 103.538 286.858C102.975 287.191 102.397 287.496 101.803 287.77Z" fill="black"/>
<path d="M328.995 243.469H221.351V305.978H328.995V243.469Z" fill="#DDE1EC"/>
<path d="M505.789 120.089C505.803 119.887 505.803 119.684 505.789 119.482C505.604 116.969 503.216 115.151 500.849 114.183C498.482 113.215 495.836 112.741 493.742 111.273C490.201 108.791 489.11 104.152 488.791 99.9087C488.693 98.5904 488.652 97.2722 488.647 95.9488C488.642 94.6254 488.729 93.1629 488.853 91.7726C489.059 89.4657 489.398 87.0763 489.368 84.7643C489.488 82.5582 489.064 80.3565 488.133 78.3532C486.033 74.2028 481.319 72.0813 476.955 70.2738C475.277 69.5786 473.558 68.8732 471.737 68.7959C469.812 68.7135 467.939 69.3366 466.117 69.9546C463.225 70.9329 460.291 72.2048 457.301 72.8691C455.624 73.2399 453.786 72.9618 452.155 73.554C448.954 74.7281 448.27 77.6066 448.321 80.7632C448.321 80.964 448.321 81.1597 448.321 81.3605C448.002 81.067 447.673 80.7889 447.338 80.5211L447.143 80.3667C446.799 80.0886 446.434 79.826 446.046 79.5788L445.861 79.4604C445.075 78.9504 444.251 78.5011 443.396 78.1164L443.267 78.0597C442.839 77.8709 442.403 77.6993 441.96 77.5448L441.878 77.5139C440.962 77.1944 440.022 76.9465 439.068 76.7724C436.061 76.2148 432.963 76.4029 430.046 77.3204C427.128 78.2378 424.48 79.8566 422.332 82.0351L418.797 85.6397C402.725 82.0351 402.005 96.0054 402.005 96.0054L402.123 95.9797L402.082 96.0775C402.448 97.8453 402.91 99.5918 403.466 101.309L279.354 228.155L266.808 267.064L273.853 264.551L306.037 253.047L421.283 135.249C429.908 141.382 438.873 149.6 438.873 149.6C438.873 149.6 433.315 152.541 435.373 166.012C437.89 182.49 434.107 205.945 434.107 205.945V221.115L434.817 220.92C434.73 221.435 434.637 221.95 434.55 222.542C433.378 230.164 433.229 237.908 434.107 245.57C436.011 261.667 443.617 283.645 443.617 283.645C443.617 283.645 446.468 291.369 447.107 297.574C447.207 298.799 447.481 300.004 447.92 301.153C449.351 304.557 450.106 308.207 450.143 311.9C450.143 318.635 451.023 328.743 455.032 339.057C458.248 347.338 459.437 352.188 459.792 355.021C457.512 358.038 454.533 361.329 452.181 361.658C447.745 362.276 439.181 362.894 444.889 370.325C445.088 370.58 445.31 370.816 445.552 371.03C441.219 371.73 436.454 373.275 441.085 379.3C446.793 386.731 480.398 383.327 480.398 383.327C480.398 383.327 480.614 379.207 480.398 374.666C482.755 374.501 484.211 374.352 484.211 374.352C484.211 374.352 485.163 356.396 481.041 354.228C480.279 354.311 479.532 354.494 478.818 354.773C478.375 352.291 478.036 349.207 477.825 346.921L479.456 346.797V319.866C479.456 319.866 477.552 303.151 470.579 295.72C469.69 294.792 468.923 293.754 468.299 292.63C468.35 290.483 468.355 287.481 468.33 284.015C468.607 283.547 468.937 283.112 469.313 282.718C469.313 282.718 473.116 278.083 486.115 248.665C493.783 231.316 492.075 221.301 489.383 215.997C488.868 214.112 487.53 208.731 485.781 198.824C483.563 186.13 486.1 173.746 486.1 173.746C486.1 173.746 494.334 152.386 498.147 143.72C499.03 141.632 499.397 139.363 499.218 137.103C500.211 136.377 500.689 135.167 501.116 134.013L505.022 123.586C505.444 122.458 505.877 121.284 505.784 120.084L505.789 120.089ZM452.742 101.314C453.166 101.977 453.639 102.607 454.157 103.199C454.157 103.199 453.575 102.591 452.613 101.613C452.659 101.515 452.701 101.412 452.742 101.314ZM433.536 122.721L444.286 111.732C448.002 115.13 451.98 118.601 455.305 121.459C454.988 122.923 454.568 124.364 454.049 125.769C452.608 126.485 450.704 126.716 448.388 125.455C444.719 123.472 437.946 122.885 433.536 122.721Z" fill="url(#paint2_linear)"/>
<path d="M424.885 82.1694C424.885 82.1694 416.913 86.773 419.368 93.2407C419.368 93.2407 427.648 95.6969 431.019 101.835C434.39 107.973 460.461 130.064 460.461 130.064L479.471 120.533C479.471 120.533 472.858 111.696 451.939 105.527C451.939 105.527 439.588 92.2983 435.311 89.8472C431.034 87.3961 424.885 82.1694 424.885 82.1694Z" fill="#FEBDD5"/>
<path opacity="0.05" d="M424.885 82.1694C424.885 82.1694 416.913 86.773 419.368 93.2407C419.368 93.2407 427.648 95.6969 431.019 101.835C434.39 107.973 460.461 130.064 460.461 130.064L479.471 120.533C479.471 120.533 472.858 111.696 451.939 105.527C451.939 105.527 439.588 92.2983 435.311 89.8472C431.034 87.3961 424.885 82.1694 424.885 82.1694Z" fill="black"/>
<path d="M282.848 229.375L421.169 84.4861C424.438 81.0665 428.93 79.085 433.658 78.9768C438.386 78.8687 442.964 80.6428 446.386 83.9094C449.803 87.1805 451.784 91.6751 451.892 96.4061C452 101.137 450.227 105.718 446.962 109.141L308.662 254.051L270.713 267.954L282.848 229.375Z" fill="#FD8D1F"/>
<path opacity="0.1" d="M438.847 81.3402C442.264 84.6113 444.244 89.1059 444.353 93.8369C444.461 98.5679 442.688 103.148 439.423 106.572L301.107 251.461L272.618 261.889L270.693 267.944L308.641 254.041L446.978 109.204C450.242 105.78 452.015 101.199 451.907 96.4683C451.799 91.7373 449.819 87.2427 446.401 83.9716C443.552 81.2396 439.874 79.5347 435.949 79.126C436.988 79.7636 437.959 80.5055 438.847 81.3402Z" fill="white"/>
<path d="M282.848 229.38L308.662 254.051L277.527 265.452L270.713 267.944L275.031 254.231L282.848 229.38Z" fill="#EFC8C4"/>
<path d="M275.031 254.226C275.976 254.41 276.877 254.771 277.687 255.292C278.623 255.967 279.303 257.135 279.045 258.258C278.792 258.957 278.431 259.612 277.975 260.199C277.51 260.985 277.228 261.865 277.15 262.774C277.073 263.684 277.202 264.599 277.527 265.452L270.693 267.944L275.031 254.226Z" fill="#727A9C"/>
<path d="M474.567 343.913C474.567 343.913 475.488 357.415 477.021 358.95C478.555 360.484 463.219 361.406 463.219 361.406L465.365 343.898L474.567 343.913Z" fill="#FFB9B9"/>
<path opacity="0.05" d="M474.567 343.913C474.567 343.913 475.488 357.415 477.021 358.95C478.555 360.484 463.219 361.406 463.219 361.406L465.365 343.898L474.567 343.913Z" fill="black"/>
<path d="M477.938 354.346C477.938 354.346 475.792 354.346 468.124 358.337C468.124 358.337 462.911 357.415 460.765 350.052C460.765 350.052 454.327 361.097 450.03 361.71C445.733 362.323 437.457 362.936 442.974 370.304C448.491 377.673 481 374.295 481 374.295C481 374.295 481.926 356.494 477.938 354.346Z" fill="#CBCDDA"/>
<path opacity="0.05" d="M477.938 354.346C477.938 354.346 475.792 354.346 468.124 358.337C468.124 358.337 462.911 357.415 460.765 350.052C460.765 350.052 454.327 361.097 450.03 361.71C445.733 362.323 437.457 362.936 442.974 370.304C448.491 377.673 481 374.295 481 374.295C481 374.295 481.926 356.494 477.938 354.346Z" fill="black"/>
<path d="M473.337 364.779L471.191 370.608L457.085 366.617L457.888 360.829L458.083 359.434L458.598 355.572C458.598 355.572 470.558 352.482 470.558 354.027C470.72 355.292 470.983 356.542 471.345 357.765C471.86 359.65 472.452 361.802 472.889 363.218C473.157 364.166 473.337 364.779 473.337 364.779Z" fill="#FFB9B9"/>
<path d="M465.643 284.752C464.676 286.39 463.585 289.459 465.617 293.29C466.219 294.399 466.959 295.427 467.82 296.349C474.567 303.712 476.409 320.283 476.409 320.283V346.978L471.808 347.333L464.449 347.899L453.385 302.492C453.385 302.492 446.947 269.35 450.014 263.521C453.081 257.692 455.839 221.177 455.839 221.177L458.387 218.541L464.429 212.279H481.926C483.324 213.283 484.486 214.582 485.327 216.085C488.261 220.946 490.896 231.054 482.847 249.715C470.275 278.866 466.595 283.47 466.595 283.47C466.23 283.86 465.911 284.29 465.643 284.752Z" fill="#4C4C78"/>
<path opacity="0.05" d="M465.643 284.752C464.676 286.39 463.585 289.459 465.617 293.29C466.219 294.399 466.959 295.427 467.82 296.349C474.567 303.712 476.409 320.283 476.409 320.283V346.978L471.808 347.333L464.449 347.899L453.385 302.492C453.385 302.492 446.947 269.35 450.014 263.521C453.081 257.692 455.839 221.177 455.839 221.177L458.387 218.541L464.429 212.279H481.926C483.324 213.283 484.486 214.582 485.327 216.085C488.261 220.946 490.896 231.054 482.847 249.715C470.275 278.866 466.595 283.47 466.595 283.47C466.23 283.86 465.911 284.29 465.643 284.752Z" fill="black"/>
<path opacity="0.1" d="M471.366 357.776L458.083 359.434L458.598 355.572C458.598 355.572 470.558 352.482 470.558 354.027C470.726 355.296 470.996 356.55 471.366 357.776Z" fill="black"/>
<path d="M464.753 245.416C464.753 245.416 465.515 269.571 465.643 284.752C465.669 288.187 465.643 291.163 465.617 293.29C465.636 294.417 465.553 295.544 465.37 296.657C464.449 299.417 466.292 305.556 466.292 305.556C473.96 325.808 471.814 343.605 471.814 343.605V357.106L457.085 358.95C457.085 358.95 459.54 357.106 452.793 339.31C448.918 329.083 448.079 319.068 448.064 312.389C448.028 308.735 447.298 305.121 445.912 301.74C445.495 300.596 445.239 299.401 445.151 298.187C444.538 292.049 441.78 284.376 441.78 284.376C441.78 284.376 434.421 262.589 432.579 246.631C431.728 239.036 431.872 231.362 433.006 223.804C433.277 221.882 433.646 219.976 434.112 218.093C434.112 218.093 464.089 199.215 475.411 212.264C476.506 213.538 477.377 214.991 477.984 216.558C478.605 218.106 479.089 219.705 479.43 221.337C482.909 238.67 464.753 245.416 464.753 245.416Z" fill="#4C4C78"/>
<path d="M463.832 111.016C472.469 111.016 479.471 104.01 479.471 95.3668C479.471 86.7241 472.469 79.7178 463.832 79.7178C455.194 79.7178 448.192 86.7241 448.192 95.3668C448.192 104.01 455.194 111.016 463.832 111.016Z" fill="#FFB9B9"/>
<path d="M455.248 105.182C455.248 105.182 461.686 123.287 455.248 132.798C448.81 142.309 475.791 139.24 475.791 139.24L486.218 126.66C486.218 126.66 473.949 126.66 473.352 105.182C472.755 83.7034 455.248 105.182 455.248 105.182Z" fill="#FFB9B9"/>
<path opacity="0.1" d="M486.218 219.638C483.994 220.408 481.708 220.982 479.384 221.352C475.565 221.939 471.062 221.965 468.427 219.638C466.884 218.258 463.019 218.093 458.397 218.531C448.666 219.463 435.491 223.098 432.97 223.814C433.241 221.893 433.61 219.987 434.076 218.103C434.076 218.103 464.053 199.225 475.375 212.274H481.916C483.314 213.278 484.476 214.577 485.317 216.079C485.889 218.52 486.218 219.638 486.218 219.638Z" fill="black"/>
<path opacity="0.1" d="M473.337 364.779L471.191 370.608L457.085 366.617L457.888 360.829C460.312 366.195 464.444 366.921 464.444 366.921C468.901 364.604 471.494 363.63 472.884 363.224C473.157 364.166 473.337 364.779 473.337 364.779Z" fill="black"/>
<path d="M474.258 363.244C474.258 363.244 472.112 363.244 464.444 367.235C464.444 367.235 459.231 366.313 457.085 358.95C457.085 358.95 450.647 369.995 446.35 370.608C442.053 371.221 433.778 371.823 439.3 379.202C444.822 386.581 477.325 383.193 477.325 383.193C477.325 383.193 478.247 365.392 474.258 363.244Z" fill="#CBCDDA"/>
<path d="M401.505 98.3639C401.505 98.3639 402.2 84.5171 417.747 88.0908L413.759 95.5729L401.505 98.3639Z" fill="#FFB9B9"/>
<path d="M473.97 130.347C473.97 130.347 458.943 127.89 454.954 124.821C454.954 124.821 451.867 130.651 446.365 127.582C440.864 124.512 427.968 124.821 427.968 124.821C427.968 124.821 417.232 118.992 415.102 105.794C415.102 105.794 412.956 97.8179 413.558 95.6706C413.558 95.6706 405.586 87.3852 401.598 98.4307C403.142 106.103 404.357 105.491 404.053 111.623L408.957 125.125C408.957 125.125 409.266 129.729 418.159 135.867C427.051 142.005 437.174 151.516 437.174 151.516C437.174 151.516 431.807 154.431 433.803 167.778C436.238 184.091 432.579 207.361 432.579 207.361V222.398C432.579 222.398 463.245 213.499 468.458 218.103C473.671 222.707 486.244 218.103 486.244 218.103C486.244 218.103 484.7 212.887 482.564 200.307C480.428 187.727 482.873 175.45 482.873 175.45C482.873 175.45 490.844 154.276 494.524 145.687C498.204 137.098 491.766 125.434 485.323 121.14C478.879 116.845 476.486 119.425 476.486 119.425C476.486 119.425 487.752 127.587 473.97 130.347Z" fill="#FEBDD5"/>
<path opacity="0.1" d="M446.916 91.5358C446.911 92.1746 447.019 92.8091 447.235 93.4102C447.593 94.0939 448.08 94.7009 448.671 95.1971C450.966 97.4422 452.983 100.11 453.791 103.22C454.337 105.326 454.306 107.53 454.275 109.708C454.141 118.519 453.761 128.03 448.336 134.94C446.34 137.489 443.767 139.513 441.353 141.67C441.014 141.924 440.759 142.274 440.622 142.675C440.555 143.094 440.635 143.523 440.849 143.89C441.97 146.223 444.333 147.654 446.571 148.952C447.6 149.544 448.671 150.157 449.855 150.193C452.644 150.285 454.486 147.335 457.023 146.176C460.718 144.487 464.861 146.835 468.53 148.586C471.186 149.851 473.971 150.823 476.836 151.485C480.763 152.392 485.199 152.613 488.503 150.311C490.413 148.965 491.718 146.921 492.136 144.621C492.404 143.123 492.363 141.382 493.495 140.368C494.081 139.853 494.879 139.626 495.507 139.163C496.49 138.442 496.953 137.232 497.37 136.073L501.147 125.738C501.634 124.646 501.885 123.463 501.883 122.268C501.703 119.78 499.408 117.973 497.107 117.015C494.807 116.057 492.26 115.589 490.232 114.131C486.81 111.67 485.75 107.072 485.441 102.865C485.23 99.9753 485.251 97.0737 485.503 94.1878C485.878 89.9086 486.712 85.3462 484.808 81.4945C482.775 77.375 478.216 75.2792 474.001 73.4872C472.38 72.7971 470.712 72.102 468.952 72.0247C467.089 71.9423 465.278 72.5397 463.518 73.173C460.718 74.1463 457.857 75.4027 454.991 76.0619C453.369 76.4326 451.589 76.1546 450.024 76.7416C444.276 78.9043 446.916 86.9065 446.916 91.5358Z" fill="black"/>
<path d="M446.916 90.9231C446.911 91.5618 447.019 92.1964 447.235 92.7975C447.592 93.4812 448.08 94.0882 448.671 94.5844C450.966 96.8295 452.983 99.4969 453.791 102.607C454.337 104.713 454.306 106.917 454.275 109.095C454.141 117.906 453.76 127.417 448.336 134.327C446.339 136.876 443.766 138.9 441.353 141.058C441.015 141.305 440.759 141.648 440.617 142.041C440.55 142.46 440.63 142.89 440.843 143.257C441.965 145.589 444.327 147.021 446.566 148.318C447.595 148.911 448.666 149.523 449.849 149.559C452.638 149.652 454.481 146.702 457.018 145.543C460.713 143.854 464.856 146.202 468.525 147.953C471.18 149.218 473.965 150.19 476.831 150.852C480.758 151.758 485.194 151.98 488.498 149.678C490.408 148.331 491.712 146.288 492.131 143.988C492.398 142.489 492.357 140.749 493.489 139.734C494.076 139.219 494.874 138.993 495.502 138.529C496.485 137.808 496.948 136.598 497.365 135.44L501.142 125.105C501.629 124.013 501.879 122.83 501.878 121.634C501.698 119.147 499.402 117.34 497.102 116.382C494.802 115.424 492.254 114.955 490.227 113.498C486.804 111.037 485.744 106.438 485.436 102.231C485.225 99.342 485.245 96.4404 485.497 93.5545C485.873 89.2753 486.707 84.7129 484.803 80.8612C482.77 76.7417 478.21 74.6459 473.995 72.8539C472.374 72.1638 470.707 71.4687 468.947 71.3914C467.084 71.309 465.273 71.9064 463.512 72.5397C460.713 73.513 457.852 74.7694 454.985 75.4286C453.364 75.7993 451.583 75.5212 450.019 76.1083C444.276 78.3071 446.916 86.2938 446.916 90.9231Z" fill="#B96B6B"/>
<path opacity="0.05" d="M434.555 174.668C434.555 174.668 436.999 174.086 449.268 172.232C461.537 170.378 483.002 174.688 483.002 174.688" fill="black"/>
</g>
<defs>
<linearGradient id="paint0_linear" x1="301.586" y1="320.036" x2="301.586" y2="0" gradientUnits="userSpaceOnUse">
<stop stop-color="#808080" stop-opacity="0.25"/>
<stop offset="0.54" stop-color="#808080" stop-opacity="0.12"/>
<stop offset="1" stop-color="#808080" stop-opacity="0.1"/>
</linearGradient>
<linearGradient id="paint1_linear" x1="-10806.6" y1="9294.64" x2="-10806.6" y2="7526.06" gradientUnits="userSpaceOnUse">
<stop stop-color="#808080" stop-opacity="0.25"/>
<stop offset="0.54" stop-color="#808080" stop-opacity="0.12"/>
<stop offset="1" stop-color="#808080" stop-opacity="0.1"/>
</linearGradient>
<linearGradient id="paint2_linear" x1="192333" y1="251329" x2="192333" y2="58244.7" gradientUnits="userSpaceOnUse">
<stop stop-color="#808080" stop-opacity="0.25"/>
<stop offset="0.54" stop-color="#808080" stop-opacity="0.12"/>
<stop offset="1" stop-color="#808080" stop-opacity="0.1"/>
</linearGradient>
<clipPath id="clip0">
<rect width="563" height="411" fill="white"/>
</clipPath>
</defs>
</svg>
