<svg width="35" height="35" viewBox="0 0 35 35" fill="none" xmlns="http://www.w3.org/2000/svg">
<path d="M35 0H0V35H35V0Z" fill="#7D3DAF"/>
<path d="M28.5693 11.282L28.5624 11.2544C28.0033 8.99416 25.4827 6.56882 23.168 6.06425L23.1418 6.05887C19.3979 5.34463 15.6016 5.34463 11.8584 6.05887L11.8316 6.06425C9.51758 6.56882 6.99701 8.99416 6.43714 11.2544L6.431 11.282C5.7398 14.4385 5.7398 17.6395 6.431 20.796L6.43714 20.8236C6.97312 22.9874 9.30599 25.3013 11.5343 25.9376V28.4607C11.5343 29.3738 12.6472 29.8223 13.28 29.1634L15.8363 26.5062C16.3907 26.5372 16.9454 26.5545 17.5001 26.5545C19.3848 26.5545 21.2702 26.3763 23.1418 26.0192L23.168 26.0138C25.4827 25.5092 28.0033 23.0839 28.5624 20.8237L28.5693 20.796C29.2605 17.6395 29.2605 14.4385 28.5693 11.282ZM26.5464 20.3382C26.1731 21.8128 24.2593 23.646 22.7386 23.9847C20.7479 24.3632 18.7414 24.5251 16.737 24.4695C16.6971 24.4684 16.6588 24.4839 16.631 24.5125C16.3465 24.8044 14.7645 26.4285 14.7645 26.4285L12.7793 28.466C12.6341 28.6172 12.3791 28.5143 12.3791 28.3054V24.1258C12.3791 24.0568 12.3298 23.9981 12.262 23.9848C12.2616 23.9848 12.2612 23.9847 12.2609 23.9846C10.7402 23.6459 8.82715 21.8127 8.45313 20.3382C7.83105 17.4851 7.83105 14.5928 8.45313 11.7397C8.82715 10.2651 10.7402 8.4319 12.2609 8.09322C15.7376 7.43197 19.2627 7.43197 22.7386 8.09322C24.26 8.4319 26.1731 10.2651 26.5464 11.7397C27.1691 14.5929 27.1691 17.4851 26.5464 20.3382Z" fill="white"/>
<path d="M20.8081 22.2675C20.5743 22.1966 20.3515 22.1489 20.1446 22.063C18.0007 21.1735 16.0275 20.026 14.4646 18.2669C13.5758 17.2666 12.8801 16.1372 12.2921 14.9421C12.0132 14.3753 11.7782 13.7863 11.5386 13.2012C11.3202 12.6676 11.6419 12.1163 11.9807 11.7143C12.2986 11.3369 12.7076 11.0482 13.1506 10.8354C13.4964 10.6693 13.8374 10.765 14.0899 11.0581C14.6358 11.6917 15.1373 12.3577 15.5433 13.0921C15.793 13.5439 15.7245 14.0961 15.272 14.4035C15.162 14.4782 15.0618 14.5659 14.9593 14.6503C14.8695 14.7243 14.7849 14.799 14.7233 14.8991C14.6107 15.0824 14.6053 15.2985 14.6778 15.4977C15.2359 17.0313 16.1764 18.2237 17.72 18.866C17.9669 18.9688 18.215 19.0884 18.4996 19.0552C18.9761 18.9996 19.1304 18.4769 19.4643 18.2038C19.7907 17.9369 20.2078 17.9333 20.5594 18.1558C20.9111 18.3784 21.252 18.6173 21.5908 18.8588C21.9234 19.0958 22.2546 19.3276 22.5614 19.5978C22.8564 19.8576 22.958 20.1985 22.7919 20.5511C22.4878 21.1968 22.0452 21.734 21.4069 22.0769C21.2266 22.1736 21.0114 22.2049 20.8081 22.2675C20.5743 22.1965 21.0114 22.2049 20.8081 22.2675Z" fill="white"/>
<path d="M17.5061 10.0971C20.3104 10.1757 22.6137 12.0368 23.1073 14.8092C23.1914 15.2816 23.2214 15.7646 23.2588 16.2441C23.2745 16.4458 23.1603 16.6374 22.9427 16.64C22.7179 16.6427 22.6167 16.4546 22.6021 16.253C22.5733 15.8539 22.5532 15.4531 22.4982 15.0574C22.2079 12.9684 20.5421 11.24 18.4628 10.8692C18.1499 10.8133 17.8296 10.7987 17.5127 10.7654C17.3123 10.7444 17.0499 10.7322 17.0055 10.4832C16.9682 10.2744 17.1445 10.1081 17.3433 10.0974C17.3974 10.0944 17.4518 10.0969 17.5061 10.0971C20.3104 10.1757 17.4518 10.0969 17.5061 10.0971Z" fill="white"/>
<path d="M21.7676 15.6218C21.763 15.6568 21.7606 15.7391 21.7401 15.8167C21.6657 16.0982 21.2388 16.1335 21.1405 15.8493C21.1114 15.765 21.107 15.6691 21.1069 15.5783C21.1059 14.9843 20.9768 14.391 20.6772 13.8742C20.3694 13.343 19.899 12.8965 19.3472 12.6263C19.0136 12.463 18.6528 12.3615 18.2872 12.3009C18.1273 12.2745 17.9658 12.2585 17.8052 12.2361C17.6106 12.2091 17.5067 12.0851 17.5159 11.8933C17.5245 11.7136 17.6559 11.5843 17.8517 11.5954C18.4953 11.6319 19.1169 11.771 19.6891 12.074C20.8526 12.6902 21.5172 13.6628 21.7112 14.9614C21.7199 15.0203 21.7341 15.0786 21.7385 15.1376C21.7495 15.2835 21.7564 15.4295 21.7676 15.6218C21.763 15.6568 21.7564 15.4295 21.7676 15.6218Z" fill="white"/>
<path d="M20.0234 15.5537C19.7888 15.5579 19.6632 15.428 19.639 15.2129C19.6222 15.0629 19.6089 14.911 19.5731 14.765C19.5026 14.4777 19.3499 14.2113 19.1081 14.0352C18.994 13.952 18.8646 13.8914 18.7292 13.8523C18.5571 13.8027 18.3783 13.8163 18.2066 13.7742C18.0202 13.7285 17.917 13.5776 17.9463 13.4026C17.973 13.2434 18.1279 13.1191 18.3019 13.1317C19.3891 13.2102 20.1662 13.7723 20.2771 15.0523C20.2849 15.1426 20.2941 15.238 20.2741 15.3244C20.2397 15.4724 20.1302 15.5465 20.0234 15.5537C19.7888 15.5579 20.1302 15.5465 20.0234 15.5537Z" fill="white"/>
</svg>
