<svg width="40" height="40" viewBox="0 0 40 40" fill="none" xmlns="http://www.w3.org/2000/svg">
<g clip-path="url(#clip0)">
<path d="M38.4296 20.2343C39.0895 20.3643 39.5193 21.0038 39.3901 21.663L38.9087 24.1147C38.7756 24.7935 38.1024 25.2287 37.4229 25.062C36.7864 24.9062 36.4005 24.2557 36.5265 23.613L36.5398 23.5472L33.3663 23.692C33.2708 23.6959 33.1878 23.7593 33.1581 23.8509C32.8481 24.7872 32.4402 25.6796 31.9463 26.5141C31.8962 26.5986 31.904 26.7059 31.9674 26.781L33.371 28.4484C33.6497 28.1831 34.0137 28.0453 34.3816 28.0453C34.6916 28.0453 35.0047 28.1431 35.2701 28.3467C35.9128 28.8383 36.0349 29.7581 35.5433 30.4016L35.1363 30.9331C34.6587 31.5578 33.7687 31.7253 33.1205 31.2783C32.5623 30.894 32.3604 30.2027 32.5623 29.6023L30.5403 28.7138C30.4487 28.6739 30.3431 28.6974 30.2765 28.771C29.3403 29.7988 28.2506 30.6834 27.0435 31.3895C26.9605 31.438 26.9159 31.532 26.9315 31.6267L27.449 34.783L27.8967 34.6037C28.5394 34.347 29.2706 34.6758 29.5 35.3372C29.7145 35.9565 29.3778 36.6336 28.7696 36.8763L26.4814 37.7922C25.8395 38.0489 25.1083 37.7201 24.879 37.0587C24.6645 36.4395 25.0011 35.7623 25.6094 35.5189L25.6712 35.4946L23.8253 32.9082C23.7697 32.8299 23.6719 32.7954 23.5787 32.8197C22.4757 33.1054 21.3187 33.2589 20.1257 33.2589C19.1816 33.2589 18.261 33.1626 17.371 32.981C17.277 32.9622 17.1807 33.0021 17.1291 33.0827L15.2824 35.9799L15.3474 36.0034C15.9486 36.2226 16.3212 36.7902 16.3212 37.3945C16.3212 37.5636 16.2922 37.735 16.2312 37.9025C16.2312 38.7691 15.565 39.2357 14.7509 38.9382L12.4815 38.1108C11.7222 37.8344 11.326 37.0007 11.5883 36.239C11.8576 35.4539 12.7523 35.0578 13.532 35.3419L13.5845 35.3607L13.9602 31.9656C13.9712 31.8701 13.9211 31.7793 13.8358 31.7347C12.3985 30.9926 11.1092 30.0039 10.0234 28.8242C9.95768 28.753 9.85513 28.7295 9.76589 28.7663L6.99628 29.9021C7.3094 30.4877 7.13327 31.2298 6.56181 31.6055C5.96531 31.9977 5.15979 31.8153 4.75272 31.2298L4.04349 30.2082C3.6466 29.6375 3.73897 28.8422 4.28538 28.4116C4.86779 27.9529 5.69836 28.0719 6.13439 28.6488L8.08518 26.4444C8.15015 26.3708 8.16111 26.2644 8.11336 26.179C7.31254 24.7355 6.76456 23.1323 6.52893 21.4297C6.51563 21.3342 6.44596 21.2567 6.3528 21.2355L3.23562 20.5153L3.23249 20.8809C3.22936 21.2465 3.07905 21.5776 2.83716 21.8164C2.59606 22.0559 2.26414 22.2031 1.89778 22.2031C1.16976 22.2031 0.580297 21.6089 0.587343 20.8809L0.607696 18.6162C0.613959 17.8757 1.22612 17.2518 1.96589 17.2713C2.68373 17.2901 3.25675 17.8804 3.25284 18.6006L6.34732 17.8749C6.44126 17.853 6.51093 17.7755 6.52346 17.68C6.76613 15.8795 7.35872 14.1894 8.23 12.6801C8.27853 12.5956 8.26992 12.4899 8.20651 12.4147L6.7309 10.6816L6.60252 10.8507C6.20485 11.3767 5.44551 11.4683 4.93277 11.0417C4.45212 10.6409 4.39341 9.92224 4.77072 9.42359L5.75394 8.12411C5.98253 7.82272 6.32932 7.66381 6.6808 7.66381C6.92426 7.66381 7.17006 7.74053 7.37986 7.89865C7.86599 8.2658 7.98028 8.94059 7.65933 9.44629L9.72283 10.3387C9.81364 10.3778 9.91854 10.3544 9.98586 10.2816C10.9597 9.21379 12.1003 8.30102 13.3669 7.58318C13.4498 7.53543 13.496 7.44227 13.4819 7.34755L13.0068 4.18418L12.5559 4.35796C11.9108 4.60612 11.1836 4.26716 10.9636 3.60333C10.7569 2.98099 11.1029 2.30854 11.7143 2.0737L14.0142 1.18911C14.6601 0.940959 15.3865 1.27914 15.6065 1.94375C15.8132 2.56531 15.4679 3.23775 14.8558 3.47338L14.7939 3.49686L16.6038 6.10678C16.6586 6.18585 16.7557 6.22186 16.8488 6.19915C17.8994 5.94161 18.9961 5.8054 20.1257 5.8054H20.1273C20.2259 5.8054 20.3144 5.74512 20.3472 5.65196L20.9469 3.97517C20.2525 3.75754 19.7899 3.07258 19.8783 2.32577C19.9793 1.47954 20.7895 0.878334 21.6358 0.984797L22.4593 1.08813C23.2985 1.19381 23.9279 1.94532 23.8363 2.78685C23.7643 3.44207 23.293 3.95246 22.6949 4.10903L22.9032 5.92673C22.9141 6.02459 22.9869 6.10443 23.084 6.12557C24.4758 6.43165 25.7886 6.9491 26.9863 7.64189C27.0701 7.68964 27.1734 7.6826 27.2478 7.62154L29.7317 5.60578L29.3544 5.30596C28.8119 4.87541 28.7351 4.07771 29.1954 3.55088C29.626 3.05692 30.3814 3.01308 30.8942 3.42093L32.8238 4.95291C33.3663 5.38267 33.443 6.18115 32.9827 6.70799C32.5522 7.20116 31.7968 7.245 31.284 6.83793L31.2316 6.79645L29.9015 9.68427C29.8608 9.77116 29.8796 9.87371 29.947 9.9426C30.8832 10.9015 31.6801 11.9975 32.3048 13.1968C32.3502 13.2837 32.4449 13.333 32.542 13.3197L34.4278 13.0559C34.1507 12.2824 34.5617 11.4253 35.3523 11.1661C36.1062 10.9188 36.9187 11.3376 37.1959 12.0813L37.6303 13.2461C37.9043 13.9827 37.5755 14.8258 36.8553 15.1389C36.1649 15.4388 35.386 15.1679 35.0149 14.5557L33.4501 15.6173C33.3679 15.6728 33.3311 15.7746 33.3577 15.8701C33.6794 17.0365 33.8517 18.264 33.8517 19.5321C33.8517 19.7443 33.847 19.9548 33.8368 20.1639C33.8329 20.2601 33.8869 20.3486 33.9746 20.387L36.9086 21.6684L37.0009 21.1948C37.1309 20.5349 37.7704 20.1052 38.4296 20.2343Z" fill="#F79595"/>
<path d="M26.0861 14.3945C27.1564 14.3945 28.0241 13.669 28.0241 12.7741C28.0241 11.8792 27.1564 11.1538 26.0861 11.1538C25.0158 11.1538 24.1482 11.8792 24.1482 12.7741C24.1482 13.669 25.0158 14.3945 26.0861 14.3945Z" fill="#EE6161"/>
<path d="M19.0926 24.983C20.2625 24.983 21.2108 24.0346 21.2108 22.8647C21.2108 21.6949 20.2625 20.7465 19.0926 20.7465C17.9227 20.7465 16.9744 21.6949 16.9744 22.8647C16.9744 24.0346 17.9227 24.983 19.0926 24.983Z" fill="#EE6161"/>
<path d="M27.348 23.2778C28.1857 23.2778 28.8647 22.5988 28.8647 21.7612C28.8647 20.9236 28.1857 20.2446 27.348 20.2446C26.5104 20.2446 25.8314 20.9236 25.8314 21.7612C25.8314 22.5988 26.5104 23.2778 27.348 23.2778Z" fill="#F9B1B1"/>
<path d="M21.7469 30.6371C22.5612 30.6371 23.2214 29.9769 23.2214 29.1626C23.2214 28.3482 22.5612 27.6881 21.7469 27.6881C20.9325 27.6881 20.2723 28.3482 20.2723 29.1626C20.2723 29.9769 20.9325 30.6371 21.7469 30.6371Z" fill="#F9B1B1"/>
<path d="M11.7782 18.8748C11.7782 13.598 14.2955 8.90802 18.1931 5.94044C17.738 6.00463 17.2887 6.09136 16.849 6.19924C16.7558 6.22194 16.6587 6.18593 16.6039 6.10686L14.7941 3.49695L14.8559 3.47346C15.4681 3.23783 15.8133 2.56539 15.6066 1.94383C15.3866 1.27922 14.6602 0.941043 14.0144 1.1892L11.7144 2.07378C11.1031 2.30863 10.7571 2.98107 10.9637 3.60341C11.1837 4.26724 11.9109 4.6062 12.556 4.35805L13.0069 4.18426L13.4821 7.34763C13.4961 7.44235 13.45 7.53551 13.367 7.58326C12.1004 8.3011 10.9598 9.21387 9.98598 10.2816C9.91866 10.3544 9.81376 10.3779 9.72296 10.3388L7.65945 9.44637C7.9804 8.94067 7.86611 8.26588 7.37998 7.89874C7.17019 7.74061 6.92438 7.66389 6.68092 7.66389C6.32944 7.66389 5.98265 7.8228 5.75407 8.12419L4.77085 9.42367C4.39353 9.92232 4.45224 10.6409 4.93289 11.0418C5.44564 11.4684 6.20497 11.3768 6.60264 10.8507L6.73102 10.6817L8.20664 12.4148C8.27005 12.49 8.27866 12.5956 8.23012 12.6802C7.35885 14.1895 6.76625 15.8796 6.52358 17.6801C6.51105 17.7756 6.44138 17.8531 6.34744 17.875L3.25296 18.6006C3.25688 17.8805 2.68385 17.2902 1.96601 17.2714C1.22624 17.2519 0.614081 17.8758 0.607818 18.6163L0.587465 20.881C0.580419 21.609 1.16988 22.2032 1.8979 22.2032C2.26426 22.2032 2.59618 22.056 2.83729 21.8165C3.07918 21.5777 3.22948 21.2466 3.23261 20.881L3.23574 20.5154L6.35292 21.2356C6.44608 21.2568 6.51575 21.3343 6.52906 21.4298C6.76469 23.1324 7.31266 24.7356 8.11348 26.1791C8.16123 26.2644 8.15027 26.3709 8.0853 26.4445L6.13452 28.6489C5.69849 28.072 4.86792 27.953 4.2855 28.4117C3.73909 28.8423 3.64672 29.6376 4.04361 30.2083L4.75284 31.2299C5.15991 31.8154 5.96543 31.9978 6.56194 31.6056C7.13339 31.2299 7.30953 30.4878 6.9964 29.9022L9.76601 28.7663C9.85525 28.7295 9.9578 28.753 10.0236 28.8243C11.1093 30.004 12.3986 30.9927 13.8359 31.7348C13.9212 31.7794 13.9713 31.8702 13.9604 31.9657L13.5846 35.3608L13.5322 35.342C12.7525 35.0578 11.8577 35.454 11.5884 36.2391C11.3262 37.0008 11.7223 37.8345 12.4816 38.1108L14.751 38.9383C15.5651 39.2358 16.2313 38.7692 16.2313 37.9026C16.2924 37.7351 16.3213 37.5636 16.3213 37.3946C16.3213 36.7902 15.9487 36.2227 15.3475 36.0035L15.2825 35.98L17.1292 33.0828C17.1809 33.0022 17.2772 32.9622 17.3711 32.981C18.2612 33.1626 19.1818 33.2589 20.1258 33.2589C20.2369 33.2589 20.3498 33.2575 20.4603 33.2549C15.2993 30.5335 11.7782 25.1148 11.7782 18.8748Z" fill="#F37C7C"/>
<path d="M12.5204 27.1715C13.3688 27.1715 14.0565 26.4838 14.0565 25.6354C14.0565 24.7871 13.3688 24.0994 12.5204 24.0994C11.6721 24.0994 10.9844 24.7871 10.9844 25.6354C10.9844 26.4838 11.6721 27.1715 12.5204 27.1715Z" fill="#EE6161"/>
<path d="M17.6656 17.0416C19.4187 15.6592 19.9039 13.3518 18.7494 11.8877C17.595 10.4236 15.2379 10.3574 13.4849 11.7397C11.7318 13.1221 11.2466 15.4295 12.401 16.8936C13.5555 18.3577 15.9125 18.424 17.6656 17.0416Z" fill="#EE6161"/>
<path d="M38.5429 19.6585C38.0699 19.5658 37.5893 19.6627 37.1893 19.9314C36.858 20.1541 36.6148 20.4726 36.4884 20.8441L34.4328 19.9465C34.437 19.8058 34.4391 19.6672 34.4391 19.5321C34.4391 18.3235 34.2878 17.1235 33.9893 15.9609L34.9113 15.3354C35.4958 15.8473 36.3452 16.0004 37.0889 15.6773C38.0896 15.2424 38.5689 14.0844 38.18 13.0409L37.7459 11.876C37.3524 10.8197 36.2204 10.2632 35.169 10.6083C34.6369 10.783 34.2087 11.1558 33.9634 11.6579C33.8238 11.9435 33.7534 12.2498 33.7532 12.5576L32.7072 12.7037C32.5638 12.441 32.4073 12.1747 32.2401 11.9095C32.0671 11.6352 31.7045 11.5531 31.4303 11.7259C31.1559 11.8989 31.0737 12.2614 31.2467 12.5357C31.444 12.8487 31.6248 13.1624 31.7841 13.4682C31.9441 13.7747 32.2813 13.9486 32.6226 13.901L34.5091 13.6377C34.6841 13.6132 34.8389 13.5112 34.9303 13.36C35.0217 13.2088 35.0402 13.0243 34.9805 12.858C34.8995 12.6322 34.913 12.3891 35.0183 12.1736C35.1233 11.9586 35.3069 11.799 35.5353 11.724C35.9782 11.5787 36.476 11.8308 36.6456 12.2861L37.0797 13.451C37.2477 13.9019 37.0419 14.4175 36.6209 14.6005C36.2179 14.7756 35.7433 14.6255 35.5165 14.2515C35.4332 14.114 35.2969 14.0167 35.1398 13.9824C34.9827 13.948 34.8182 13.9799 34.685 14.0702L33.1204 15.1314C32.8301 15.3282 32.698 15.6881 32.7916 16.0269C33.1057 17.1641 33.2649 18.3435 33.2649 19.5322C33.2649 19.727 33.26 19.9305 33.2504 20.1372C33.2349 20.474 33.4316 20.7907 33.7399 20.9253L36.6732 22.2063C36.8364 22.2776 37.0231 22.271 37.1807 22.1884C37.3384 22.1058 37.45 21.9561 37.4843 21.7814L37.5773 21.3078C37.6097 21.1427 37.7045 21.0001 37.8442 20.9062C37.9838 20.8123 38.1516 20.7784 38.3168 20.8109C38.6577 20.8778 38.8806 21.2095 38.8138 21.5504L38.3327 24.0019C38.2992 24.1726 38.2 24.3181 38.0533 24.4117C37.9068 24.5053 37.7325 24.5336 37.5628 24.4921C37.2418 24.4133 37.0355 24.0696 37.1029 23.7258L37.1158 23.6602C37.1504 23.4834 37.1019 23.3005 36.9842 23.164C36.8666 23.0274 36.6915 22.9519 36.5128 22.9608L33.3398 23.1055C33.0039 23.1208 32.7068 23.3461 32.6006 23.6664C32.3067 24.554 31.9165 25.4116 31.4409 26.2152C31.2637 26.5144 31.2948 26.8937 31.5181 27.1591L32.9219 28.8268C33.0262 28.9507 33.177 29.0259 33.3386 29.0349C33.5002 29.0437 33.6585 28.9856 33.7757 28.874C34.0904 28.5748 34.5687 28.5492 34.9131 28.8127C35.0996 28.9554 35.2192 29.162 35.2502 29.3947C35.2812 29.6273 35.2196 29.8581 35.0771 30.0445L34.6703 30.5761C34.3781 30.9579 33.8323 31.0561 33.4537 30.7952C33.1318 30.5734 32.9942 30.1601 33.119 29.79C33.2162 29.5019 33.0773 29.1872 32.7988 29.0649L30.7766 28.1767C30.455 28.0353 30.0796 28.1152 29.8423 28.3756C28.9406 29.3657 27.8994 30.2093 26.7475 30.8829C26.4565 31.0528 26.2977 31.3899 26.352 31.7215L26.8697 34.8782C26.8985 35.0538 27.0054 35.207 27.1605 35.2945C27.3156 35.382 27.5018 35.3944 27.6672 35.3283L28.1152 35.149C28.2767 35.0845 28.4528 35.0887 28.6111 35.161C28.7693 35.2332 28.8878 35.364 28.9451 35.5293C29.0533 35.8416 28.8766 36.2016 28.5513 36.3317L26.2637 37.2468C26.1022 37.3115 25.9262 37.3072 25.7678 37.2349C25.6097 37.1628 25.4911 37.0319 25.4338 36.8667C25.3256 36.5544 25.5022 36.1944 25.8273 36.0643L25.8892 36.0396C26.0566 35.9726 26.1839 35.8326 26.2346 35.6597C26.2852 35.4867 26.2538 35.3001 26.149 35.1534L24.3035 32.5676C24.1083 32.2939 23.7577 32.1668 23.4317 32.2514C22.3557 32.5303 21.2434 32.6717 20.1256 32.6717C19.2404 32.6717 18.3531 32.5823 17.4884 32.406C17.1583 32.3388 16.8153 32.4839 16.6342 32.7673L14.787 35.6644C14.6912 35.8145 14.6688 36 14.7261 36.1686C14.7831 36.3372 14.9137 36.4707 15.081 36.5317L15.1464 36.5556C15.3706 36.6373 15.5497 36.8016 15.6504 37.018C15.7512 37.2344 15.7616 37.4771 15.6799 37.7014C15.6563 37.7658 15.6443 37.8339 15.6443 37.9025C15.6443 38.1246 15.5788 38.2928 15.4598 38.376C15.3409 38.4593 15.1605 38.4634 14.9518 38.3872L12.6825 37.5597C12.2281 37.3941 11.9862 36.8874 12.1432 36.4302C12.2181 36.2123 12.3793 36.035 12.5973 35.9311C12.8275 35.8212 13.0951 35.8076 13.3313 35.8937L13.3833 35.9127C13.5525 35.9745 13.7408 35.955 13.8939 35.86C14.0471 35.765 14.1481 35.6049 14.1679 35.4258L14.544 32.0304C14.581 31.6963 14.4047 31.3681 14.1054 31.2136C12.7327 30.5047 11.5045 29.567 10.4553 28.427C10.2244 28.1758 9.85772 28.0939 9.54287 28.2231L6.77365 29.3588C6.61998 29.4218 6.50021 29.5469 6.44401 29.7031C6.38772 29.8594 6.40033 30.0321 6.47853 30.1786C6.65427 30.5074 6.55133 30.9102 6.23914 31.1154C5.91733 31.3272 5.46674 31.2281 5.23502 30.8947L4.52571 29.8736C4.29822 29.5462 4.35239 29.1066 4.649 28.8729C4.80236 28.752 4.99266 28.6991 5.18445 28.7237C5.37773 28.7486 5.5487 28.8477 5.66604 29.0029C5.77219 29.1433 5.9358 29.2287 6.11178 29.2355C6.28713 29.2423 6.45739 29.1698 6.57403 29.0379L8.5245 26.8333C8.7534 26.5746 8.79442 26.1973 8.6265 25.894C8.41679 25.5158 8.22171 25.1175 8.04683 24.7101C7.91876 24.4122 7.57361 24.2744 7.27559 24.4023C6.97765 24.5303 6.83988 24.8756 6.96779 25.1735C7.12459 25.5384 7.29626 25.8969 7.4796 26.2422L6.08258 27.8214C5.85791 27.6836 5.60443 27.5937 5.33444 27.559C4.82663 27.4938 4.32547 27.6328 3.92224 27.9505C3.13871 28.568 2.98027 29.707 3.56151 30.5435L4.27082 31.5644C4.86271 32.4165 6.03506 32.655 6.8845 32.0964C7.51975 31.6786 7.82592 30.9498 7.71906 30.24L9.76065 29.4027C10.8092 30.5036 12.0147 31.4238 13.3502 32.1425L13.0709 34.6645C12.7357 34.655 12.3984 34.7247 12.0917 34.871C11.587 35.1118 11.2108 35.5299 11.0327 36.0485C10.6693 37.1066 11.229 38.2794 12.2803 38.6627L14.5495 39.4902C14.7773 39.5732 15.0061 39.6142 15.2264 39.6142C15.5584 39.6142 15.8713 39.5211 16.1331 39.3379C16.5439 39.0504 16.7896 38.5686 16.8162 38.0052C16.9684 37.5142 16.9335 36.9914 16.715 36.5221C16.5749 36.2212 16.3694 35.9639 16.1152 35.7654L17.4938 33.6031C19.4735 33.9714 21.5379 33.9173 23.4889 33.4471L24.8286 35.3242C24.3013 35.8014 24.0822 36.5524 24.3242 37.251C24.4877 37.7225 24.8271 38.096 25.28 38.3029C25.7267 38.5069 26.244 38.5192 26.6998 38.337L28.9874 37.4219C29.9015 37.0562 30.3703 36.056 30.0547 35.1449C29.8913 34.6734 29.5519 34.2998 29.0989 34.0929C28.7273 33.9231 28.3065 33.886 27.913 33.9835L27.5502 31.7713C28.6491 31.1034 29.652 30.2916 30.5366 29.3538L31.9028 29.9539C31.8646 30.6557 32.19 31.3504 32.7874 31.7621C33.6884 32.3829 34.9251 32.1753 35.6029 31.2897L36.0096 30.7581C36.3429 30.3226 36.4866 29.7834 36.4143 29.2399C36.3419 28.6963 36.0623 28.2133 35.6268 27.8801C34.9914 27.3939 34.1619 27.3284 33.4789 27.665L32.578 26.5947C32.9991 25.8534 33.3542 25.0725 33.6364 24.2674L35.9392 24.1623C36.0534 24.8643 36.5649 25.4561 37.2829 25.6324C37.7675 25.7515 38.2656 25.6693 38.6852 25.4014C39.099 25.1372 39.3906 24.7095 39.485 24.2279L39.9661 21.7763C40.1576 20.8001 39.5192 19.85 38.5429 19.6585Z" fill="black"/>
<path d="M3.78274 21.2444L5.9834 21.7526C6.0313 22.0587 6.09056 22.3694 6.16023 22.6793C6.22153 22.9523 6.46389 23.1379 6.73255 23.1378C6.77514 23.1378 6.81843 23.1331 6.86172 23.1234C7.17805 23.0524 7.37697 22.7384 7.30589 22.422C7.22502 22.0615 7.15935 21.7006 7.11081 21.3491C7.06455 21.0146 6.81295 20.7389 6.48487 20.6632L3.36808 19.9434C3.19484 19.9034 3.01229 19.9442 2.87255 20.0543C2.73274 20.1645 2.65047 20.3322 2.6489 20.5102L2.64569 20.8751C2.64201 21.2836 2.30673 21.616 1.89818 21.616C1.70365 21.616 1.52102 21.5399 1.3841 21.4017C1.24711 21.2635 1.17266 21.0803 1.17438 20.8858L1.19474 18.6215C1.19654 18.4139 1.28476 18.2108 1.43671 18.0642C1.57949 17.9265 1.75993 17.8526 1.95055 17.8582C2.34712 17.8687 2.66808 18.2003 2.66589 18.5974C2.66487 18.7772 2.74636 18.9477 2.88703 19.0598C3.02771 19.1719 3.21214 19.2134 3.38702 19.1722L6.48189 18.4466C6.80974 18.3697 7.06024 18.0933 7.10541 17.7587C7.33376 16.0652 7.88322 14.4554 8.73845 12.9737C8.91098 12.6745 8.87701 12.297 8.65351 12.0343L7.17766 10.301C7.06228 10.1655 6.89264 10.0894 6.71369 10.0947C6.53575 10.0999 6.36972 10.1854 6.26231 10.3273L6.1344 10.4964C6.03882 10.6228 5.89948 10.7022 5.74197 10.7203C5.58502 10.7383 5.43073 10.6921 5.30837 10.5902C5.07713 10.3976 5.04597 10.0332 5.23893 9.77811L6.222 8.47832C6.41285 8.22602 6.77342 8.17592 7.02572 8.36685C7.26197 8.54549 7.32248 8.88108 7.16357 9.13088C7.07136 9.27594 7.04732 9.45403 7.09782 9.61834C7.14831 9.78265 7.26824 9.91659 7.4259 9.98478L9.48964 10.8773C9.80958 11.0158 10.1831 10.9355 10.419 10.6772C11.3585 9.64801 12.4476 8.77877 13.6563 8.09365C13.949 7.92753 14.1123 7.5928 14.0625 7.26041L13.5871 4.0972C13.5606 3.92115 13.4556 3.76662 13.3018 3.67706C13.1478 3.58743 12.9615 3.57256 12.7956 3.63644L12.3453 3.80967C12.1829 3.87199 12.0069 3.86549 11.8497 3.79112C11.6925 3.71683 11.5757 3.58446 11.5207 3.41842C11.4166 3.10467 11.598 2.74715 11.9251 2.62136L14.2248 1.73685C14.3871 1.67438 14.5631 1.68103 14.7204 1.7554C14.8775 1.82969 14.9944 1.96207 15.0495 2.1281C15.1534 2.44185 14.972 2.79937 14.6449 2.92525L14.5827 2.9492C14.4146 3.01394 14.2854 3.15226 14.2324 3.32448C14.1795 3.4967 14.2085 3.68372 14.3113 3.83175L16.1216 6.44151C16.3131 6.71753 16.6615 6.84928 16.9887 6.7692C18.009 6.51932 19.0644 6.39258 20.1268 6.39258H20.1271C20.4735 6.39258 20.7841 6.17425 20.8998 5.84962L21.4993 4.17235C21.553 4.0219 21.5432 3.85594 21.4719 3.713C21.4006 3.56997 21.2742 3.4621 21.1216 3.41443C20.6851 3.2779 20.4075 2.84923 20.4613 2.3952C20.49 2.15362 20.6169 1.93373 20.8186 1.77599C21.0303 1.61035 21.3013 1.53418 21.5623 1.56713L22.3856 1.67078C22.9191 1.73794 23.3078 2.20991 23.252 2.72281C23.2089 3.11876 22.9317 3.43987 22.5458 3.54085C22.2632 3.61483 22.0779 3.88537 22.1112 4.17564L22.3195 5.99319C22.3592 6.34005 22.6155 6.62359 22.9575 6.69882C24.2689 6.9869 25.5255 7.47514 26.6922 8.14977C26.9844 8.31886 27.3562 8.28974 27.6176 8.0776L30.1014 6.06145C30.2397 5.94927 30.3194 5.78042 30.3185 5.60241C30.3175 5.42447 30.2358 5.25648 30.0965 5.14579L29.7186 4.84573C29.5824 4.73763 29.4986 4.58263 29.4828 4.40923C29.4671 4.23615 29.5217 4.06832 29.6369 3.93657C29.8543 3.68755 30.2544 3.66235 30.529 3.88021L32.4586 5.41226C32.5948 5.52037 32.6786 5.67536 32.6944 5.84868C32.7102 6.02176 32.6555 6.1896 32.5404 6.32142C32.3229 6.57028 31.9226 6.59549 31.6484 6.37786L31.5964 6.33653C31.4551 6.22435 31.2702 6.18333 31.0951 6.22514C30.9198 6.26694 30.7734 6.38695 30.698 6.55063L29.3676 9.43861C29.2269 9.74406 29.2907 10.1114 29.5261 10.3525C29.6096 10.438 29.692 10.5265 29.7901 10.633C30.0097 10.8716 30.3811 10.887 30.6197 10.6673C30.8582 10.4477 30.8736 10.0763 30.654 9.83769C30.6125 9.79252 30.5735 9.75025 30.5356 9.70977L31.5018 7.61229C32.1778 7.83336 32.9383 7.65088 33.4247 7.09407C33.753 6.71823 33.909 6.23813 33.8637 5.74222C33.8192 5.25327 33.5731 4.7979 33.1887 4.49276L31.259 2.96078C30.488 2.3487 29.3871 2.43786 28.7525 3.16424C28.4242 3.54007 28.2683 4.02017 28.3135 4.51609C28.3506 4.923 28.5272 5.30674 28.8071 5.5999L27.0672 7.0125C25.9306 6.38084 24.7184 5.9095 23.4578 5.60882L23.3288 4.48258C23.9255 4.15255 24.3441 3.54477 24.4198 2.85002C24.5445 1.70413 23.6979 0.652567 22.5327 0.505789L21.7094 0.402144C21.1406 0.330594 20.5522 0.494203 20.0957 0.85109C19.6458 1.20297 19.3616 1.70217 19.2958 2.2568C19.2 3.0631 19.572 3.83355 20.218 4.26927L19.878 5.22047C18.8887 5.23738 17.9054 5.3555 16.9481 5.57242L15.6342 3.67832C16.1677 3.20831 16.3968 2.46033 16.1643 1.75861C16.0072 1.28493 15.6727 0.906827 15.2226 0.6939C14.7788 0.484027 14.2616 0.464691 13.8034 0.640903L11.5039 1.52533C10.585 1.8787 10.1028 2.87256 10.4063 3.78791C10.5634 4.26159 10.8977 4.6397 11.3479 4.85262C11.7172 5.02727 12.1372 5.07009 12.5322 4.97779L12.8654 7.19458C11.7061 7.87806 10.6515 8.71927 9.7248 9.69952L8.39925 9.12626C8.50697 8.49868 8.26719 7.83336 7.73425 7.43021C7.36186 7.14855 6.90227 7.02854 6.43962 7.09297C5.97713 7.15708 5.56733 7.39756 5.28575 7.76995L4.30261 9.06974C3.72731 9.83017 3.83902 10.8943 4.55686 11.4923C4.92831 11.8018 5.39667 11.942 5.87607 11.8869C6.17832 11.8522 6.46546 11.738 6.70829 11.5608L7.59765 12.6055C6.77584 14.0879 6.23124 15.6849 5.97651 17.359L3.70469 17.8917C3.4289 17.2035 2.76163 16.705 1.98163 16.6844C1.47381 16.6716 0.992613 16.861 0.621244 17.2193C0.244239 17.5831 0.0252059 18.0903 0.0204307 18.6109L7.74149e-05 20.8753C-0.00446293 21.3854 0.19085 21.866 0.549929 22.2284C0.909008 22.5907 1.38786 22.7903 1.8981 22.7903C2.82574 22.7904 3.6066 22.1238 3.78274 21.2444Z" fill="black"/>
<path d="M17.219 18.0394C17.5055 17.8876 17.6147 17.5322 17.4628 17.2457C17.311 16.9594 16.9558 16.8499 16.669 17.002C15.266 17.7456 13.6668 17.5491 12.8669 16.5342C12.4182 15.965 12.2638 15.2106 12.4322 14.4101C12.6088 13.5708 13.1139 12.7871 13.8544 12.2035C14.5947 11.6198 15.4747 11.3122 16.332 11.336C17.1497 11.3591 17.8471 11.6854 18.2959 12.2547C18.9698 13.1096 18.9613 14.3857 18.2741 15.5057C18.1046 15.7821 18.1911 16.1436 18.4675 16.3132C18.7439 16.4827 19.1054 16.3961 19.2749 16.1198C20.2223 14.5758 20.1999 12.7733 19.218 11.5278C18.5501 10.6803 17.5368 10.1954 16.3652 10.1623C15.2329 10.1294 14.0834 10.5277 13.1275 11.2814C12.1713 12.035 11.5164 13.0603 11.2831 14.1683C11.0417 15.3153 11.2767 16.4137 11.9447 17.2611C12.6481 18.1534 13.7494 18.6228 14.9343 18.6227C15.6892 18.6227 16.4779 18.4323 17.219 18.0394Z" fill="black"/>
<path d="M28.6112 12.7741C28.6112 11.5569 27.4785 10.5667 26.0862 10.5667C24.6939 10.5667 23.561 11.5569 23.561 12.7741C23.561 13.9913 24.6939 14.9816 26.0862 14.9816C27.4785 14.9816 28.6112 13.9913 28.6112 12.7741ZM24.7353 12.7741C24.7353 12.2044 25.3413 11.7409 26.0862 11.7409C26.8311 11.7409 27.4371 12.2044 27.4371 12.7741C27.4371 13.3439 26.8311 13.8074 26.0862 13.8074C25.3413 13.8074 24.7353 13.3439 24.7353 12.7741Z" fill="black"/>
<path d="M21.798 22.8647C21.798 21.373 20.5844 20.1594 19.0926 20.1594C17.6008 20.1594 16.3872 21.373 16.3872 22.8647C16.3872 24.3565 17.6008 25.5701 19.0926 25.5701C20.5844 25.5701 21.798 24.3565 21.798 22.8647ZM17.5615 22.8647C17.5615 22.0205 18.2484 21.3336 19.0927 21.3336C19.9369 21.3336 20.6238 22.0205 20.6238 22.8647C20.6238 23.709 19.937 24.3958 19.0927 24.3958C18.2484 24.3958 17.5615 23.709 17.5615 22.8647Z" fill="black"/>
<path d="M29.452 21.7612C29.452 20.6011 28.5082 19.6574 27.3481 19.6574C26.1882 19.6574 25.2444 20.6011 25.2444 21.7612C25.2444 22.9212 26.1882 23.865 27.3481 23.865C28.5082 23.8649 29.452 22.9212 29.452 21.7612ZM26.4185 21.7612C26.4185 21.2486 26.8355 20.8316 27.3481 20.8316C27.8606 20.8316 28.2777 21.2486 28.2777 21.7612C28.2777 22.2738 27.8606 22.6908 27.3481 22.6908C26.8356 22.6907 26.4185 22.2738 26.4185 21.7612Z" fill="black"/>
<path d="M21.7469 31.2242C22.8836 31.2242 23.8085 30.2994 23.8085 29.1626C23.8085 28.0259 22.8837 27.101 21.7469 27.101C20.6101 27.101 19.6852 28.0258 19.6852 29.1626C19.6852 30.2994 20.61 31.2242 21.7469 31.2242ZM21.7469 28.2752C22.2362 28.2752 22.6343 28.6733 22.6343 29.1626C22.6343 29.6519 22.2362 30.05 21.7469 30.05C21.2575 30.05 20.8594 29.6519 20.8594 29.1626C20.8594 28.6733 21.2575 28.2752 21.7469 28.2752Z" fill="black"/>
<path d="M12.5204 27.7586C13.6911 27.7586 14.6435 26.8061 14.6435 25.6354C14.6435 24.4647 13.6911 23.5123 12.5204 23.5123C11.3497 23.5123 10.3972 24.4647 10.3972 25.6354C10.3972 26.8061 11.3497 27.7586 12.5204 27.7586ZM12.5204 24.6865C13.0437 24.6865 13.4693 25.1122 13.4693 25.6354C13.4693 26.1587 13.0436 26.5844 12.5204 26.5844C11.9971 26.5844 11.5714 26.1587 11.5714 25.6354C11.5714 25.1122 11.9971 24.6865 12.5204 24.6865Z" fill="black"/>
<path d="M24.4758 18.2877C24.4758 17.9634 24.213 17.7006 23.8887 17.7006H23.3697C23.0454 17.7006 22.7826 17.9634 22.7826 18.2877C22.7826 18.6119 23.0454 18.8748 23.3697 18.8748H23.8887C24.213 18.8748 24.4758 18.6119 24.4758 18.2877Z" fill="black"/>
<path d="M16.4411 29.1375H16.9744C17.2987 29.1375 17.5615 28.8747 17.5615 28.5504C17.5615 28.2262 17.2987 27.9633 16.9744 27.9633H16.4411C16.1168 27.9633 15.854 28.2262 15.854 28.5504C15.854 28.8747 16.1169 29.1375 16.4411 29.1375Z" fill="black"/>
<path d="M11.498 20.5874C11.8223 20.5874 12.0851 20.3246 12.0851 20.0003C12.0851 19.6761 11.8223 19.4132 11.498 19.4132H10.9843C10.66 19.4132 10.3972 19.6761 10.3972 20.0003C10.3972 20.3246 10.66 20.5874 10.9843 20.5874H11.498Z" fill="black"/>
<path d="M21.9258 10.3155C22.2501 10.3155 22.5129 10.0527 22.5129 9.72841C22.5129 9.40417 22.2501 9.1413 21.9258 9.1413H21.2109C20.8866 9.1413 20.6238 9.40417 20.6238 9.72841C20.6238 10.0527 20.8866 10.3155 21.2109 10.3155H21.9258Z" fill="black"/>
<path d="M25.8314 26.052C25.5071 26.052 25.2443 26.3149 25.2443 26.6391C25.2443 26.9633 25.5071 27.2262 25.8314 27.2262H26.6208C26.9451 27.2262 27.2079 26.9633 27.2079 26.6391C27.2079 26.3149 26.9451 26.052 26.6208 26.052H25.8314Z" fill="black"/>
</g>
<defs>
<clipPath id="clip0">
<rect width="40" height="40" fill="white"/>
</clipPath>
</defs>
</svg>
