<svg width="35" height="35" viewBox="0 0 35 35" fill="none" xmlns="http://www.w3.org/2000/svg">
<rect width="35" height="35" fill="white"/>
<path fill-rule="evenodd" clip-rule="evenodd" d="M18.432 7.4386C18.0505 7.50091 15.2859 8.12199 15.2859 12.9304C15.2859 15.1254 15.8367 16.4477 16.4693 17.2427C17.0786 18.0079 18.0234 18.4283 19.0014 18.4283H20.7129V7.43237H18.5132C18.4859 7.43237 18.4594 7.43399 18.432 7.4386Z" fill="black"/>
<path fill-rule="evenodd" clip-rule="evenodd" d="M0 0V35H35V0H0ZM23.3553 29.6154H20.785V20.5704H18.9759L14.882 29.6154H11.6447L16.7862 20.3323C16.7862 20.3323 12.4545 18.3331 12.4545 13.382C12.4545 8.43162 15.9063 5.38462 18.8035 5.38462H23.3553V29.6154Z" fill="black"/>
</svg>
