<svg width="447" height="413" viewBox="0 0 447 413" fill="none" xmlns="http://www.w3.org/2000/svg">
<g clip-path="url(#clip0)">
<path d="M27.0925 32.9839C19.9096 32.9921 13.0233 35.8487 7.94423 40.9271C2.86517 46.0054 0.00816985 52.8909 0 60.0728V372.153C0.00824021 379.334 2.86528 386.22 7.94434 391.298C13.0234 396.376 19.9097 399.233 27.0925 399.241H256.057C263.239 399.233 270.126 396.376 275.204 391.298C280.283 386.22 283.14 379.334 283.149 372.153V60.0727C283.141 52.8909 280.284 46.0055 275.205 40.9271C270.126 35.8488 263.239 32.9921 256.057 32.9839H27.0925Z" fill="#3F3D56"/>
<path d="M269.06 52.2244H14.0889V380.001H269.06V52.2244Z" fill="white"/>
<path d="M235.729 110.977H47.4209V123.345H235.729V110.977Z" fill="#FD8D1F"/>
<path d="M235.729 143.96H47.4209V156.329H235.729V143.96Z" fill="#FD8D1F"/>
<path d="M235.729 176.944H47.4209V189.313H235.729V176.944Z" fill="#FD8D1F"/>
<path d="M235.729 209.928H47.4209V222.297H235.729V209.928Z" fill="#FD8D1F"/>
<path d="M235.729 242.912H47.4209V255.281H235.729V242.912Z" fill="#FD8D1F"/>
<path d="M235.729 275.896H47.4209V288.264H235.729V275.896Z" fill="#FD8D1F"/>
<path d="M235.729 308.879H47.4209V321.248H235.729V308.879Z" fill="#FD8D1F"/>
<path d="M238.379 31.4409L51.6543 65.6074L95.5886 305.65L282.313 271.483L238.379 31.4409Z" fill="#E6E6E6"/>
<path d="M221.844 78.9338L83.9395 104.167L85.5973 113.225L223.502 87.9919L221.844 78.9338Z" fill="#FD8D1F"/>
<path d="M226.265 103.089L88.3604 128.323L90.0182 137.381L227.923 112.147L226.265 103.089Z" fill="#FD8D1F"/>
<path d="M230.686 127.244L92.7812 152.478L94.4391 161.536L232.344 136.302L230.686 127.244Z" fill="#FD8D1F"/>
<path d="M235.108 151.399L97.2031 176.633L98.861 185.691L236.765 160.458L235.108 151.399Z" fill="#FD8D1F"/>
<path d="M239.526 175.555L101.622 200.788L103.28 209.846L241.184 184.613L239.526 175.555Z" fill="#FD8D1F"/>
<path d="M243.949 199.71L106.045 224.943L107.703 234.001L245.607 208.768L243.949 199.71Z" fill="#FD8D1F"/>
<path d="M248.37 223.865L110.466 249.098L112.124 258.157L250.028 232.923L248.37 223.865Z" fill="#FD8D1F"/>
<path d="M370.545 294.029L317.711 303.696L330.142 371.617L382.977 361.95L370.545 294.029Z" fill="#E6E6E6"/>
<path d="M365.866 307.467L326.846 314.607L327.315 317.17L366.335 310.03L365.866 307.467Z" fill="white"/>
<path d="M367.117 314.302L328.097 321.442L328.566 324.005L367.586 316.865L367.117 314.302Z" fill="white"/>
<path d="M368.369 321.136L329.349 328.276L329.818 330.839L368.838 323.699L368.369 321.136Z" fill="white"/>
<path d="M369.619 327.971L330.599 335.111L331.068 337.674L370.088 330.534L369.619 327.971Z" fill="white"/>
<path d="M370.87 334.806L331.85 341.946L332.319 344.509L371.339 337.369L370.87 334.806Z" fill="white"/>
<path d="M372.121 341.641L333.101 348.781L333.57 351.344L372.59 344.204L372.121 341.641Z" fill="white"/>
<path d="M373.372 348.476L334.352 355.616L334.821 358.179L373.841 351.039L373.372 348.476Z" fill="white"/>
<path d="M188.784 17.179H166.315V12.5799C166.315 9.24352 164.99 6.04377 162.63 3.68457C160.271 1.32538 157.071 0 153.734 0H129.415C126.078 2.99892e-06 122.878 1.32539 120.518 3.68458C118.159 6.04377 116.833 9.24353 116.833 12.5799V17.179H94.3648C92.7126 17.179 91.0765 17.5044 89.55 18.1366C88.0236 18.7688 86.6366 19.6955 85.4683 20.8636C84.3 22.0318 83.3732 23.4186 82.7409 24.9448C82.1086 26.4711 81.7832 28.107 81.7832 29.759V64.5932H201.365V29.759C201.365 28.107 201.04 26.4711 200.408 24.9448C199.775 23.4186 198.849 22.0318 197.68 20.8636C196.512 19.6955 195.125 18.7688 193.599 18.1366C192.072 17.5044 190.436 17.179 188.784 17.179Z" fill="#3F3D56"/>
<path d="M133.508 356.165C137.223 353.623 141.041 350.979 145.453 349.824C149.478 348.769 154.099 349.048 157.283 351.995C159.852 354.373 160.937 358.028 159.033 361.157C158.625 361.87 158.07 362.489 157.405 362.973C156.74 363.457 155.98 363.794 155.176 363.963C154.398 364.066 153.607 363.97 152.877 363.685C152.146 363.399 151.5 362.934 150.998 362.331C150 361.229 149.402 359.599 149.933 358.145C150.49 356.617 151.982 355.682 153.448 355.16C155.153 354.62 156.91 354.257 158.689 354.078L165.979 353.08L195.817 348.996L229.046 344.447C229.309 344.373 229.532 344.198 229.666 343.961C229.801 343.724 229.837 343.443 229.766 343.179C229.688 342.92 229.512 342.7 229.276 342.566C229.04 342.432 228.762 342.394 228.498 342.459L162.38 351.51C159.988 351.837 157.563 352.071 155.196 352.552C153.333 352.854 151.566 353.587 150.038 354.694C146.871 357.202 147.097 361.636 150.012 364.259C152.962 366.915 157.24 366.458 159.83 363.525C161.139 362.041 161.916 360.162 162.038 358.187C162.16 356.212 161.621 354.253 160.505 352.618C157.678 348.357 152.528 346.72 147.607 347.324C141.915 348.023 137.09 351.222 132.468 354.385C131.379 355.13 132.41 356.917 133.508 356.165Z" fill="#3F3D56"/>
<path d="M365.51 279.767L366.197 286.639C366.197 286.639 362.074 301.756 371.008 301.756C379.942 301.756 373.07 286.639 373.07 286.639L373.757 281.141L365.51 279.767Z" fill="#A0616A"/>
<path d="M427.932 256.873L424.779 263.017C424.779 263.017 413.108 273.476 420.612 278.325C428.115 283.174 430.551 266.747 430.551 266.747L434.112 262.504L427.932 256.873Z" fill="#A0616A"/>
<path d="M376.506 285.951L386.127 351.232L390.938 397.959C390.938 397.959 395.062 408.266 408.807 399.333L406.745 372.534L405.371 348.483C405.371 348.483 403.996 325.12 402.622 320.997C401.247 316.874 403.309 303.13 403.309 303.13L408.807 280.454L376.506 285.951Z" fill="#2F2E41"/>
<path d="M392.312 396.584L386.814 402.769C386.814 402.769 378.567 400.02 376.505 405.518C374.444 411.015 392.312 412.389 392.312 412.389C392.312 412.389 410.868 413.764 410.868 412.389C410.868 411.015 410.371 400.504 407.871 399.919C405.37 399.333 392.312 396.584 392.312 396.584Z" fill="#2F2E41"/>
<path d="M402.621 282.516L412.243 351.232L417.053 397.959C417.053 397.959 421.177 408.266 434.922 399.333L432.86 372.534L431.486 348.483C431.486 348.483 430.111 325.12 428.737 320.997C427.362 316.874 429.424 303.131 429.424 303.131L428.049 277.706L402.621 282.516Z" fill="#2F2E41"/>
<path d="M418.428 396.584L412.93 402.769C412.93 402.769 404.682 400.02 402.621 405.518C400.559 411.015 418.428 412.389 418.428 412.389C418.428 412.389 436.983 413.764 436.983 412.389C436.983 411.015 436.486 400.504 433.986 399.919C431.485 399.333 418.428 396.584 418.428 396.584Z" fill="#2F2E41"/>
<path d="M382.004 173.944C389.974 173.944 396.436 167.483 396.436 159.514C396.436 151.544 389.974 145.083 382.004 145.083C374.033 145.083 367.571 151.544 367.571 159.514C367.571 167.483 374.033 173.944 382.004 173.944Z" fill="#A0616A"/>
<path d="M392.656 166.042L398.841 176.349L383.034 183.221L380.973 170.852L392.656 166.042Z" fill="#A0616A"/>
<path d="M400.559 175.318C400.559 175.318 386.127 173.944 380.629 182.877L367.064 193.185C365.965 194.02 365.107 195.13 364.577 196.404C364.046 197.677 363.862 199.068 364.043 200.436L375.818 289.387L392.999 288.7L421.177 283.203L429.424 281.141L425.3 244.722C425.3 244.722 420.489 230.291 425.987 220.671L423.238 187L403.995 179.441L400.559 175.318Z" fill="#575A89"/>
<path d="M368.258 195.933L367.227 194.215C367.227 194.215 365.852 194.215 365.852 196.964C365.852 199.713 363.447 259.152 363.447 259.152L362.76 281.828L375.818 283.203L380.628 240.599L378.567 212.425L368.258 195.933Z" fill="#575A89"/>
<path d="M413.617 185.626L423.239 187C426.988 190.926 430.221 195.313 432.86 200.056C436.984 207.615 449.354 222.045 446.605 233.04C443.856 244.034 435.609 263.962 435.609 263.962L422.551 258.465C422.551 258.465 432.86 234.414 432.173 232.353C431.486 230.291 423.239 217.922 423.239 217.922L413.617 185.626Z" fill="#575A89"/>
<path d="M372.039 151.611C372.039 151.611 360.355 150.924 367.915 143.365C367.915 143.365 374.1 140.617 376.85 141.991C376.85 141.991 380.973 139.242 380.973 140.617C380.973 140.617 395.405 136.494 397.467 150.924C399.529 165.355 396.093 172.226 396.093 172.226L386.471 171.539C386.471 171.539 388.533 159.857 380.973 161.232C380.973 161.232 374.788 163.293 374.1 161.232C373.413 159.17 372.039 151.611 372.039 151.611Z" fill="#2F2E41"/>
<path opacity="0.2" d="M377.537 282.172L383.722 240.942L379.598 215.517L380.973 243.172L376.85 282.172H377.537Z" fill="black"/>
</g>
<defs>
<clipPath id="clip0">
<rect width="447" height="413" fill="white"/>
</clipPath>
</defs>
</svg>
