<?xml version="1.0" standalone="no"?>
<!DOCTYPE svg PUBLIC "-//W3C//DTD SVG 20010904//EN"
 "http://www.w3.org/TR/2001/REC-SVG-20010904/DTD/svg10.dtd">
<svg version="1.0" xmlns="http://www.w3.org/2000/svg"
 width="85.000000pt" height="85.000000pt" viewBox="0 0 85.000000 85.000000"
 preserveAspectRatio="xMidYMid meet">
<metadata>
Created by potrace 1.14, written by Peter Selinger 2001-2017
</metadata>
<g transform="translate(0.000000,85.000000) scale(0.100000,-0.100000)"
fill="#000000" stroke="none">
<path d="M394 784 c12 -8 14 -14 6 -19 -8 -5 -8 -11 1 -21 9 -11 8 -14 -6 -14
-13 0 -16 6 -13 25 4 16 1 25 -7 25 -9 0 -11 -8 -7 -22 4 -18 2 -20 -17 -15
-17 4 -21 1 -19 -10 2 -9 10 -18 18 -20 13 -4 13 -3 0 6 -11 8 0 9 40 5 40 -4
51 -3 40 5 -13 9 -13 11 2 11 9 0 18 9 20 22 2 14 12 22 27 25 47 7 32 12 -35
11 -56 -1 -64 -3 -50 -14z m46 -14 c0 -14 -6 -20 -22 -19 -19 1 -19 2 -5 6 11
3 16 11 13 19 -3 8 -1 14 4 14 6 0 10 -9 10 -20z"/>
<path d="M330 779 c12 -9 10 -10 -9 -5 -32 7 -93 -25 -152 -81 -50 -46 -65
-73 -60 -108 1 -15 0 -17 -7 -7 -7 11 -10 10 -16 -3 -9 -24 -7 -32 4 -15 8 13
10 13 10 -2 0 -9 3 -18 8 -21 4 -2 1 -2 -7 0 -9 2 -11 -2 -7 -13 3 -8 6 -20 6
-25 0 -5 6 -9 14 -9 21 0 27 49 7 60 -14 7 -14 11 -2 22 8 7 11 8 8 2 -4 -7 0
-15 8 -18 11 -4 14 -14 10 -33 -5 -26 -5 -26 5 -5 10 24 -8 76 -29 84 -6 2 -7
9 -2 16 6 10 13 3 26 -24 17 -35 19 -36 31 -19 8 10 14 24 14 29 -1 6 -8 0
-16 -14 -8 -14 -13 -17 -10 -8 3 10 -2 21 -12 27 -16 9 -16 11 2 28 14 13 16
13 8 2 -10 -14 -10 -18 2 -22 25 -10 28 11 7 32 -11 11 -16 23 -12 26 12 7 32
-19 34 -44 1 -22 10 -19 13 6 2 9 -4 26 -12 38 -14 21 -13 22 13 19 25 -2 26
-1 10 11 -15 11 -15 13 -2 18 10 4 17 -1 21 -18 7 -26 30 -40 40 -23 4 6 3 8
-4 4 -6 -3 -14 4 -18 16 -4 13 -12 27 -18 31 -7 6 -4 7 7 3 12 -4 16 -2 11 6
-5 7 -3 8 5 4 7 -5 10 -14 7 -22 -7 -18 24 -33 49 -23 11 4 15 8 10 8 -6 1
-12 13 -13 27 -2 23 1 25 23 20 14 -4 25 -3 25 2 0 12 -22 32 -34 32 -6 0 -4
-5 4 -11z m-26 -15 c-5 -2 -9 -18 -8 -34 1 -17 -2 -28 -7 -25 -4 3 -6 12 -3
19 3 8 0 17 -6 21 -9 6 -9 10 1 16 8 5 19 8 24 8 6 0 6 -2 -1 -5z m-161 -119
c-3 -9 -8 -14 -10 -11 -3 3 -2 9 2 15 9 16 15 13 8 -4z"/>
<path d="M515 778 c-12 -39 -13 -42 -14 -21 -1 15 -7 21 -21 20 -20 -1 -30
-37 -9 -37 5 0 7 5 4 10 -3 6 -1 10 4 10 22 0 10 -30 -11 -31 -13 0 -17 -3
-10 -6 7 -3 24 -2 37 1 18 5 25 13 25 31 0 17 5 25 18 25 14 0 15 -2 2 -10
-10 -6 -6 -9 16 -8 17 1 39 -4 50 -11 18 -11 17 -12 -3 -6 -13 4 -23 2 -23 -3
0 -6 11 -9 25 -8 28 4 25 -9 -5 -17 -11 -3 -20 -1 -20 4 0 6 -8 5 -19 -1 -11
-5 -28 -7 -38 -4 -17 5 -17 5 0 -6 9 -6 27 -8 40 -5 15 4 18 3 9 -3 -11 -7
-11 -10 3 -15 9 -4 13 -3 10 3 -6 10 7 14 31 11 7 -1 14 6 18 14 3 9 11 13 17
10 6 -5 3 -12 -10 -22 -12 -8 -25 -12 -29 -9 -16 10 -9 -24 8 -39 15 -14 18
-14 23 -1 4 11 1 13 -11 9 -16 -6 -16 -5 1 14 17 20 51 28 40 10 -4 -6 -1 -7
7 -2 9 5 11 4 6 -4 -6 -9 -11 -9 -22 0 -8 7 -14 7 -14 1 0 -5 6 -15 14 -21 11
-10 16 -8 24 6 6 10 14 14 19 10 10 -11 -27 -38 -40 -30 -6 3 -7 1 -3 -5 4 -7
2 -12 -4 -12 -6 0 -3 -11 6 -25 9 -14 19 -23 22 -20 3 3 0 11 -6 17 -15 15
-16 28 -2 28 6 0 10 -8 10 -17 0 -15 2 -16 10 -3 6 9 5 17 -2 21 -7 4 -7 9 1
13 11 7 15 -5 12 -31 -1 -7 3 -13 9 -13 5 0 10 7 10 16 0 14 2 15 17 3 15 -13
15 -12 5 7 -23 42 -92 106 -149 134 -64 33 -82 36 -88 18z"/>
<path d="M548 752 c-18 -3 -26 -32 -9 -32 10 0 36 29 30 33 -2 2 -12 2 -21 -1z"/>
<path d="M318 683 c-46 -21 -52 -22 -78 -8 -18 10 -31 11 -35 5 -3 -6 1 -13
10 -16 13 -5 13 -9 3 -23 -10 -13 -9 -13 8 2 35 29 40 19 7 -15 -57 -60 -78
-114 -77 -198 0 -52 6 -86 19 -110 28 -53 27 -89 -2 -96 -12 -4 -23 -11 -23
-18 0 -6 -4 -5 -9 3 -5 8 -7 21 -4 28 4 11 8 12 13 3 8 -12 30 -6 30 8 0 11
-39 12 -45 1 -7 -11 -25 -2 -25 12 0 6 4 8 9 4 5 -3 12 -1 16 5 4 6 11 8 16 5
5 -4 9 -1 9 6 0 7 7 4 15 -7 13 -15 13 -13 -1 16 -20 42 -29 53 -20 25 8 -26
-29 -53 -38 -29 -3 9 -4 20 0 25 3 5 0 9 -5 9 -6 0 -11 -8 -12 -17 0 -15 -2
-15 -9 2 -13 31 -12 33 15 27 20 -3 24 -9 19 -24 -4 -14 -2 -19 7 -16 12 4 14
29 11 137 -2 68 -13 61 -14 -9 0 -38 -3 -49 -11 -41 -41 41 -57 -31 -23 -104
38 -84 140 -180 201 -189 8 -1 18 -5 21 -9 15 -15 34 -6 40 18 5 19 15 26 43
31 52 8 62 14 21 12 -19 -1 -41 1 -48 6 -7 4 -22 4 -33 1 -15 -5 -19 -4 -15 4
11 17 -12 13 -32 -7 -19 -18 -67 -29 -57 -12 3 6 15 10 26 10 19 0 25 11 12
24 -6 6 -14 36 -9 36 1 0 22 -10 47 -22 63 -31 176 -31 241 0 90 44 155 136
160 227 2 25 8 45 13 45 6 0 5 4 -2 8 -6 4 -14 19 -17 34 -5 30 -32 86 -53
110 -8 9 -12 22 -7 29 4 8 3 10 -5 5 -6 -4 -24 4 -41 17 -69 59 -192 72 -282
30z m-197 -323 c14 8 19 7 19 -3 0 -19 -44 -16 -46 3 0 9 1 10 3 3 3 -10 10
-10 24 -3z m112 -127 c24 -30 31 -56 14 -50 -7 2 -12 9 -12 15 0 5 -4 14 -9
19 -5 5 -6 2 -1 -7 6 -12 5 -13 -5 -3 -14 13 -24 53 -14 53 3 0 16 -12 27 -27z
m-30 -46 c-4 -6 0 -8 8 -5 8 3 23 -4 34 -15 11 -11 15 -17 8 -13 -6 3 -16 -1
-21 -10 -8 -14 -14 -12 -46 16 -34 30 -35 33 -19 45 20 15 48 1 36 -18z m117
-58 c13 -9 12 -10 -2 -5 -16 5 -23 -4 -19 -26 0 -4 -6 -5 -14 -2 -11 5 -12 10
-2 25 14 22 17 23 37 8z m43 4 c-7 -2 -13 -11 -13 -19 0 -8 -9 -14 -20 -14
-19 0 -19 1 -2 19 9 11 24 19 32 19 10 0 11 -1 3 -5z"/>
<path d="M177 194 c-3 -3 3 -16 14 -27 15 -17 22 -18 32 -8 10 10 8 11 -5 6
-17 -7 -23 3 -19 28 1 8 -13 9 -22 1z"/>
<path d="M696 583 c-3 -6 2 -30 11 -52 14 -35 17 -38 30 -25 18 17 33 18 34 2
0 -7 4 -4 9 7 7 16 9 17 9 3 1 -20 -15 -32 -24 -18 -4 6 -11 8 -16 5 -12 -8
-12 -55 1 -55 6 0 10 -4 10 -10 0 -5 -6 -7 -14 -4 -8 3 -17 1 -21 -5 -3 -6 -1
-11 6 -11 9 0 9 -3 0 -14 -17 -20 -3 -86 23 -109 12 -10 15 -15 8 -12 -8 4
-13 2 -11 -6 3 -29 -1 -38 -18 -32 -12 5 -15 2 -11 -14 3 -12 0 -20 -8 -20 -7
0 -10 5 -7 10 3 6 -1 15 -10 22 -11 7 -13 16 -6 26 7 11 9 11 9 -3 0 -10 5
-18 11 -18 5 0 7 4 4 10 -3 5 -2 18 3 27 5 10 6 27 1 38 l-8 20 -1 -20 c-2
-11 -2 -26 -1 -33 1 -7 -2 -11 -6 -10 -4 1 -31 -21 -59 -51 -41 -44 -63 -58
-120 -77 -38 -12 -62 -23 -54 -23 17 -1 25 -41 9 -41 -5 0 -9 7 -9 15 0 11
-10 14 -40 13 -48 -2 -56 -6 -64 -38 -3 -14 -3 -19 0 -12 7 14 44 17 44 3 0
-5 20 -9 45 -9 24 0 44 3 44 6 -1 4 -1 17 0 30 1 19 5 22 22 17 18 -6 20 -4
14 14 -4 12 -2 21 4 21 10 0 16 -21 12 -43 0 -4 4 -7 10 -7 6 0 8 9 4 20 -4
13 -2 20 7 20 10 0 10 2 0 8 -9 6 -6 12 13 20 14 6 25 8 25 3 0 -5 3 -16 6
-25 3 -9 1 -16 -5 -16 -6 0 -10 5 -9 11 2 6 -2 13 -7 15 -6 2 -12 -7 -13 -21
-1 -14 4 -25 11 -25 6 0 4 -5 -6 -11 -12 -7 -27 -7 -48 0 -26 9 -29 8 -29 -10
0 -18 4 -20 33 -14 41 9 67 23 67 36 0 6 4 8 9 5 18 -12 126 88 114 106 -2 5
0 8 6 8 15 0 38 51 34 73 -3 9 -11 17 -19 17 -8 0 -14 9 -13 23 1 16 2 18 6 5
4 -18 33 -26 33 -9 0 14 -28 33 -40 26 -6 -4 -10 3 -9 17 0 13 3 17 6 11 2 -7
11 -13 19 -13 7 0 21 -12 29 -27 16 -28 16 -28 11 -3 -3 14 -6 28 -6 33 0 4
-9 7 -20 7 -13 0 -20 6 -19 18 0 10 3 12 6 5 10 -26 33 -13 33 17 0 23 -4 30
-20 30 -13 0 -20 6 -19 18 0 10 3 12 6 5 8 -20 31 -15 38 8 4 12 0 40 -9 63
-15 39 -19 42 -51 42 -19 -1 -37 -6 -39 -13z m54 -15 c0 -10 2 -10 9 0 7 11
10 10 15 -3 3 -9 6 -20 6 -25 0 -13 -39 -19 -44 -6 -2 6 -5 2 -6 -9 0 -15 -5
-11 -15 14 -19 43 -19 41 10 41 14 0 25 -6 25 -12z m27 -150 c-3 -7 -5 -2 -5
12 0 14 2 19 5 13 2 -7 2 -19 0 -25z m-108 -190 c-10 -18 -8 -24 8 -38 20 -15
19 -16 -6 -35 -43 -34 -47 -35 -46 -11 1 12 5 28 10 36 6 10 4 12 -8 7 -9 -3
-2 9 16 28 38 41 42 43 26 13z m44 -22 c9 5 9 4 0 -6 -10 -11 -15 -11 -27 0
-9 7 -13 17 -10 22 4 6 11 4 16 -6 5 -9 15 -13 21 -10z m-196 -72 c-3 -3 -12
-4 -19 -1 -8 3 -5 6 6 6 11 1 17 -2 13 -5z m-102 -34 c3 -5 1 -10 -4 -10 -6 0
-11 5 -11 10 0 6 2 10 4 10 3 0 8 -4 11 -10z m38 3 c-7 -2 -13 -11 -13 -19 0
-8 -4 -14 -9 -14 -5 0 -7 9 -4 20 3 11 13 20 22 19 10 0 11 -2 4 -6z m22 -31
c-3 -3 -11 0 -18 7 -9 10 -8 11 6 5 10 -3 15 -9 12 -12z"/>
<path d="M727 563 c-13 -12 -7 -19 18 -21 14 -1 25 3 25 10 0 6 -3 8 -7 5 -3
-4 -11 -2 -18 3 -7 5 -15 7 -18 3z"/>
<path d="M647 191 c2 -2 -2 -10 -8 -17 -14 -18 9 -30 25 -13 6 8 10 13 7 12
-2 -2 -9 3 -15 10 -6 7 -10 10 -9 8z"/>
<path d="M74 527 c3 -10 6 -27 6 -38 0 -10 7 -19 15 -19 8 0 15 -8 14 -17 0
-11 -3 -13 -6 -5 -2 6 -11 12 -18 12 -8 0 -16 12 -18 28 -3 21 -4 19 -4 -8 1
-20 -3 -42 -8 -49 -5 -9 -4 -12 3 -7 7 4 10 -5 8 -26 -2 -18 -1 -23 1 -11 4
19 8 21 29 13 13 -5 24 -6 24 -1 0 5 -9 11 -20 14 -11 3 -20 13 -20 24 1 17 1
17 11 1 15 -27 29 -21 29 12 0 20 -5 30 -15 30 -8 0 -15 8 -15 18 0 9 -5 24
-11 32 -9 12 -10 12 -5 -3z"/>
<path d="M803 435 c0 -27 2 -38 4 -22 2 15 2 37 0 50 -2 12 -4 0 -4 -28z"/>
<path d="M727 286 c-6 -14 0 -26 13 -26 3 0 6 9 6 20 0 23 -11 27 -19 6z"/>
<path d="M270 176 c0 -2 7 -7 16 -10 8 -3 12 -2 9 4 -6 10 -25 14 -25 6z"/>
</g>
</svg>
