<svg xmlns="http://www.w3.org/2000/svg" width="1545" height="772" fill="none"><path stroke="url(#a)" stroke-width="1.333" d="M856.48 54.153c211.78 53.63 394.05 139.417 517.54 234.734 61.75 47.659 108.77 97.681 137.45 147.231 28.68 49.546 39 98.58 27.42 144.317-11.59 45.737-44 83.95-92.8 113.875-48.81 29.928-113.97 51.54-190.96 64.067-153.97 25.053-355.103 13.751-566.884-39.88-211.782-53.63-394.052-139.417-517.543-234.734-61.746-47.659-108.771-97.681-137.452-147.231C4.573 286.986-5.743 237.952 5.84 192.216S49.83 108.264 98.634 78.339C147.441 48.412 212.606 26.8 289.593 14.273 443.566-10.781 644.699.523 856.48 54.153Z"/><defs><linearGradient id="a" x1="58.928" x2="1387.01" y1="165.728" y2="716.7" gradientUnits="userSpaceOnUse"><stop stop-color="#484848"/><stop offset=".491" stop-color="#484848" stop-opacity=".36"/><stop offset="1" stop-color="#484848"/></linearGradient></defs></svg>