<svg xmlns="http://www.w3.org/2000/svg" width="91" height="21" fill="none"><path fill="#fff" d="M6.59 20v-7.849L0 .713h4.26l4.178 7.26 4.179-7.26h4.259l-6.59 11.438V20zm19.363.402q-2.894 0-4.996-1.26-2.09-1.258-3.228-3.522-1.125-2.263-1.125-5.263t1.125-5.264q1.139-2.264 3.228-3.523Q23.06.311 25.953.311t4.982 1.26q2.103 1.259 3.228 3.522Q35.3 7.357 35.3 10.357t-1.138 5.263q-1.125 2.265-3.228 3.523-2.09 1.26-4.982 1.259m0-3.429q1.834.027 3.053-.79 1.22-.817 1.822-2.317.616-1.5.616-3.51t-.616-3.482q-.604-1.473-1.822-2.29t-3.053-.844-3.054.79q-1.219.817-1.835 2.317-.603 1.5-.603 3.51t.603 3.482q.615 1.473 1.835 2.29 1.218.817 3.054.844M37.23 20v-3.643h3.643V20zm16.027.402a9.5 9.5 0 0 1-3.469-.643 8.6 8.6 0 0 1-2.92-1.929q-1.258-1.272-1.995-3.147-.723-1.875-.723-4.326 0-3.201 1.218-5.438 1.233-2.25 3.295-3.429Q50.74.311 53.257.311q3.724 0 5.853 1.728 2.13 1.728 2.853 4.889l-3.723.536q-.523-1.688-1.715-2.693-1.177-1.018-3.027-1.03-1.834-.028-3.053.79-1.22.816-1.835 2.316-.603 1.5-.603 3.51t.603 3.482q.615 1.473 1.835 2.29 1.218.817 3.053.844 1.245.027 2.25-.428 1.019-.456 1.715-1.434.697-.977.991-2.504H55.4V9.794h6.938q.027.174.04.616t.014.51q0 2.772-1.125 4.915a8.35 8.35 0 0 1-3.175 3.361q-2.048 1.206-4.835 1.206m20.096 0q-2.893 0-4.995-1.26-2.09-1.258-3.228-3.522-1.125-2.263-1.125-5.263t1.125-5.264q1.139-2.264 3.228-3.523Q70.46.311 73.353.311t4.983 1.26q2.103 1.259 3.228 3.522 1.138 2.264 1.138 5.264t-1.138 5.263q-1.125 2.265-3.228 3.523-2.09 1.26-4.983 1.259m0-3.429q1.836.027 3.054-.79 1.22-.817 1.822-2.317.615-1.5.616-3.51 0-2.009-.616-3.482-.603-1.473-1.822-2.29-1.218-.817-3.054-.844-1.834-.026-3.053.79-1.22.817-1.835 2.317-.603 1.5-.603 3.51t.603 3.482q.615 1.473 1.835 2.29 1.218.817 3.053.844M86.715 20v-3.215h3.643V20zm0-4.822V.713h3.643v14.465z"/></svg>