<svg xmlns="http://www.w3.org/2000/svg" width="40" height="40" fill="none"><path fill="#fff" d="M9.677 26.895c-3.76.434-3.766.438-4.941-3.07-.717-2.137-1.41-4.281-2.157-6.545 2.618-1.224 5.124-2.36 7.586-3.58.501-.25.84-.82 1.251-1.242-.57-.282-1.111-.7-1.712-.82-1.66-.331-3.319-.524-4.978-1.098l2.426-1.178q-.035-.229-.077-.458H0l6.584-3.395-.176-.402-3.016.594c2.655-2.17 5.366-4.138 8.731-4.878 2.287-.501 3.837.56 4.314 2.774.024.11 0 .29.06.316 1.859.873.534 2.744 1.228 4.002.13.232-.256.81-.491 1.168a9.4 9.4 0 0 1-.94 1.062l.266.369c1.295-.419 2.625-1.245 3.88-1.145 1.327.103 3.88 1.659 3.88 1.659 1.327-1.43-.07-2.18-.625-3.123-.554-.942-1.141-1.991-1.941-3.368l3.103 1.307L20.284.202 20.533 0l5.897 2.655.249-.418-1.895-1.59c.073-.162.146-.332.222-.488 2.732 1.109 5.562 2.025 8.167 3.379 2.4 1.244 2.629 3.01 1.175 5.27-.478.737-.57 1.61-1.091 2.416-.956 1.48-1.992 1.387-3.266 1.46-.133 0-.259.16-.803.518l5.04 2.555c1.235-1.583 3.363-2.688 1.733-5.05 1.892-1.893 1.892-1.893 4.039-.14-1.072 3.225-2.144 6.517-3.292 9.786-.113.332-.707.638-1.092.664-1.27.084-2.544.05-3.806-.103-1.477-.215-2.101.398-2.39 1.746-.209.962-.597 1.885-.959 2.987h6.432c-1.056 3.186-2.035 6.146-3.146 9.508l2.505-1.474c.604 1.855 1.178 3.628 1.809 5.562H24.084l2.074-6.504H20.06c-.62 1.918-1.218 3.903-1.911 5.85-.375 1.05-2.708 1.199-4.072.273-1.716-1.162-3.402-2.37-5.436-3.794.488 1.593.856 2.788 1.28 4.169H3.78c.996-3.07 1.965-6.09 2.987-9.256l5.83 1.905c1.05-1.991 1.942-3.94.814-6.23-.458-.932-.664-1.99-.98-2.986-.776-2.456-.776-2.456-3.487-2.483-.299.933-.614 1.912-.93 2.878 2.732 1.43 2.732 1.43 1.663 3.83"/></svg>