<svg xmlns="http://www.w3.org/2000/svg" width="1438" height="953" fill="none"><path stroke="url(#a)" stroke-width=".515" d="M82-117.565v911.739"/><path stroke="url(#b)" stroke-width=".515" d="M156.477-117.565v911.739"/><path fill="#fff" d="m156.656 80.809 2.139 2.139-2.14 2.139-2.138-2.14zM156.656 234.459l2.139 2.139-2.139 2.139-2.139-2.139zM156.656 339.512l2.139 2.139-2.139 2.139-2.139-2.139z"/><path stroke="url(#c)" stroke-width=".515" d="M82.219-118V952.49"/><path stroke="url(#d)" stroke-width=".515" d="M157 0v952"/><path stroke="url(#e)" stroke-width=".515" d="M84.717 15H1357.2"/><g filter="url(#f)"><ellipse cx="719.164" cy="161.098" fill="#fff" fill-opacity=".28" rx="285.164" ry="120.337"/></g><path fill="#fff" d="m938.402 65.57 2.14 2.138-2.14 2.14-2.139-2.14z"/><path stroke="url(#g)" stroke-width=".515" d="M84.717 67.919H1357.2"/><path fill="#fff" d="m938.402 166 2.139 2.139-2.139 2.139-2.139-2.139z"/><path stroke="url(#h)" stroke-width=".515" d="M84.717 167.956H1357.2"/><path fill="#fff" d="m938.402 337.484 2.139 2.139-2.139 2.139-2.139-2.139z"/><path stroke="url(#i)" stroke-width=".515" d="M84.717 392H1357.2"/><defs><linearGradient id="a" x1="81.5" x2="81.5" y1="-117.565" y2="794.174" gradientUnits="userSpaceOnUse"><stop stop-color="#fff" stop-opacity="0"/><stop offset=".37" stop-color="#FFEFE7" stop-opacity=".4"/><stop offset="1" stop-color="#FFEFE7" stop-opacity="0"/></linearGradient><linearGradient id="b" x1="155.977" x2="155.977" y1="-117.565" y2="794.174" gradientUnits="userSpaceOnUse"><stop stop-color="#fff" stop-opacity="0"/><stop offset=".37" stop-color="#FFEFE7" stop-opacity=".4"/><stop offset="1" stop-color="#FFEFE7" stop-opacity="0"/></linearGradient><linearGradient id="c" x1="81.719" x2="81.719" y1="-118" y2="952.49" gradientUnits="userSpaceOnUse"><stop stop-color="#fff" stop-opacity="0"/><stop offset=".37" stop-color="#FFEFE7" stop-opacity=".4"/><stop offset="1" stop-color="#FFEFE7" stop-opacity="0"/></linearGradient><linearGradient id="d" x1="156.5" x2="156.5" y1="106.717" y2="952" gradientUnits="userSpaceOnUse"><stop stop-color="#fff" stop-opacity="0"/><stop offset=".37" stop-color="#FFEFE7" stop-opacity=".4"/><stop offset="1" stop-color="#FFEFE7" stop-opacity="0"/></linearGradient><linearGradient id="e" x1="84.717" x2="1357.2" y1="15.5" y2="15.5" gradientUnits="userSpaceOnUse"><stop stop-color="#fff" stop-opacity="0"/><stop offset=".445" stop-color="#FFEFE7" stop-opacity=".4"/><stop offset="1" stop-color="#999" stop-opacity="0"/></linearGradient><linearGradient id="g" x1="84.717" x2="1357.2" y1="68.419" y2="68.419" gradientUnits="userSpaceOnUse"><stop stop-color="#fff" stop-opacity="0"/><stop offset=".445" stop-color="#FFEFE7" stop-opacity=".4"/><stop offset="1" stop-color="#999" stop-opacity="0"/></linearGradient><linearGradient id="h" x1="84.717" x2="1357.2" y1="168.456" y2="168.456" gradientUnits="userSpaceOnUse"><stop stop-color="#fff" stop-opacity="0"/><stop offset=".445" stop-color="#FFEFE7" stop-opacity=".4"/><stop offset="1" stop-color="#999" stop-opacity="0"/></linearGradient><linearGradient id="i" x1="84.717" x2="1357.2" y1="392.5" y2="392.5" gradientUnits="userSpaceOnUse"><stop stop-color="#fff" stop-opacity="0"/><stop offset=".445" stop-color="#FFEFE7" stop-opacity=".4"/><stop offset="1" stop-color="#999" stop-opacity="0"/></linearGradient><filter id="f" width="1437.07" height="1107.41" x=".63" y="-392.609" color-interpolation-filters="sRGB" filterUnits="userSpaceOnUse"><feFlood flood-opacity="0" result="BackgroundImageFix"/><feBlend in="SourceGraphic" in2="BackgroundImageFix" result="shape"/><feGaussianBlur result="effect1_foregroundBlur_3_132" stdDeviation="216.685"/></filter></defs></svg>