<svg xmlns="http://www.w3.org/2000/svg" width="73" height="62" fill="none"><path fill="#fff" d="M54.628 0c-8.533 14.528-13.247 21.773-18 21.773S27.16 14.528 18.667 0c8.493 14.528 12.545 22.195 10.168 26.22-2.376 4.025-11.142 4.447-28.168 4.447 17.649 0 26.415.421 28.402 4.868 1.87 4.14-2.182 11.768-10.402 25.798 8.532-14.528 13.246-21.773 18-21.773s9.467 7.245 18 21.773c-9.04-15.448-13.013-23.115-9.663-26.948 2.961-3.373 11.689-3.718 27.663-3.718-18 0-26.767-.46-28.52-5.175C42.55 21.275 46.602 13.685 54.627 0"/></svg>