<svg width="24" height="24" viewBox="0 0 24 24" fill="none" xmlns="http://www.w3.org/2000/svg">
<g clip-path="url(#clip0_339_6012)">
<path d="M21.2938 2.1582H2.66822C1.2001 2.1582 0 3.3583 0 4.82643V15.5853C0 17.0014 1.1581 18.1595 2.57421 18.1595C2.97025 18.1595 3.27827 18.5096 3.22427 18.9016C3.01225 20.4497 2.18618 21.2078 2.10418 21.4938C1.97816 21.9379 4.06634 22.2559 5.89849 20.4937C6.66656 19.7557 7.03459 19.0216 7.2006 18.5796C7.29661 18.3256 7.54063 18.1595 7.81265 18.1595H21.3578C22.8179 18.1595 24 16.9754 24 15.5173V4.86643C24.002 3.3763 22.7839 2.1582 21.2938 2.1582Z" fill="url(#paint0_linear_339_6012)"/>
<path d="M5.71439 11.717C6.59812 11.717 7.31452 11.0006 7.31452 10.1169C7.31452 9.23313 6.59812 8.51672 5.71439 8.51672C4.83066 8.51672 4.11426 9.23313 4.11426 10.1169C4.11426 11.0006 4.83066 11.717 5.71439 11.717Z" fill="#2196F3"/>
<path d="M12.115 11.717C12.9988 11.717 13.7152 11.0006 13.7152 10.1169C13.7152 9.23313 12.9988 8.51672 12.115 8.51672C11.2313 8.51672 10.5149 9.23313 10.5149 10.1169C10.5149 11.0006 11.2313 11.717 12.115 11.717Z" fill="#2196F3"/>
<path d="M18.2875 11.717C19.1712 11.717 19.8876 11.0006 19.8876 10.1169C19.8876 9.23313 19.1712 8.51672 18.2875 8.51672C17.4038 8.51672 16.6874 9.23313 16.6874 10.1169C16.6874 11.0006 17.4038 11.717 18.2875 11.717Z" fill="#2196F3"/>
<g opacity="0.2">
<path d="M5.71439 8.91676C6.37645 8.91676 6.91449 9.4548 6.91449 10.1169C6.91449 10.7789 6.37645 11.317 5.71439 11.317C5.05234 11.317 4.51429 10.7789 4.51429 10.1169C4.51429 9.4548 5.05234 8.91676 5.71439 8.91676ZM5.71439 8.51672C4.83032 8.51672 4.11426 9.23278 4.11426 10.1169C4.11426 11.0009 4.83032 11.717 5.71439 11.717C6.59846 11.717 7.31452 11.0009 7.31452 10.1169C7.31452 9.23278 6.59846 8.51672 5.71439 8.51672Z" fill="#424242"/>
<path d="M12.115 8.91676C12.7771 8.91676 13.3151 9.4548 13.3151 10.1169C13.3151 10.7789 12.7771 11.317 12.115 11.317C11.453 11.317 10.9149 10.7789 10.9149 10.1169C10.9149 9.4548 11.453 8.91676 12.115 8.91676ZM12.115 8.51672C11.231 8.51672 10.5149 9.23278 10.5149 10.1169C10.5149 11.0009 11.231 11.717 12.115 11.717C12.9991 11.717 13.7152 11.0009 13.7152 10.1169C13.7152 9.23278 12.9991 8.51672 12.115 8.51672Z" fill="#424242"/>
<path d="M18.2875 8.91676C18.9496 8.91676 19.4876 9.4548 19.4876 10.1169C19.4876 10.7789 18.9496 11.317 18.2875 11.317C17.6255 11.317 17.0874 10.7789 17.0874 10.1169C17.0874 9.4548 17.6255 8.91676 18.2875 8.91676ZM18.2875 8.51672C17.4034 8.51672 16.6874 9.23278 16.6874 10.1169C16.6874 11.0009 17.4034 11.717 18.2875 11.717C19.1716 11.717 19.8876 11.0009 19.8876 10.1169C19.8876 9.23278 19.1716 8.51672 18.2875 8.51672Z" fill="#424242"/>
</g>
<g opacity="0.2">
<path d="M21.2938 2.75825C22.4559 2.75825 23.4019 3.70433 23.4019 4.86643V15.5173C23.4019 16.6434 22.4859 17.5595 21.3598 17.5595H7.81465C7.29661 17.5595 6.82457 17.8855 6.64255 18.3696C6.48454 18.7856 6.15651 19.4176 5.48446 20.0637C4.39837 21.1078 3.33628 21.2338 2.97025 21.2438C3.27227 20.7778 3.67631 20.0417 3.82032 18.9856C3.87032 18.6276 3.76031 18.2655 3.52229 17.9935C3.28427 17.7195 2.93824 17.5615 2.57421 17.5615C1.48412 17.5615 0.60005 16.6754 0.60005 15.5873V4.82643C0.60005 3.68633 1.52813 2.75825 2.66822 2.75825H21.2938ZM21.2938 2.1582H2.66822C1.2001 2.1582 0 3.3583 0 4.82643V15.5853C0 17.0014 1.1581 18.1595 2.57421 18.1595C2.97025 18.1595 3.27827 18.5096 3.22427 18.9016C3.01225 20.4497 2.18618 21.2078 2.10418 21.4938C2.05217 21.6778 2.3842 21.8418 2.92024 21.8418C3.67231 21.8418 4.8284 21.5218 5.89849 20.4937C6.66656 19.7557 7.03459 19.0216 7.2006 18.5796C7.29661 18.3256 7.54063 18.1595 7.81265 18.1595H21.3578C22.8179 18.1595 24 16.9754 24 15.5173V4.86643C24.002 3.3763 22.7839 2.1582 21.2938 2.1582Z" fill="#424242"/>
</g>
</g>
<defs>
<linearGradient id="paint0_linear_339_6012" x1="12.001" y1="3.3517" x2="12.001" y2="19.5897" gradientUnits="userSpaceOnUse">
<stop offset="0.4391" stop-color="#FAFAFA"/>
<stop offset="0.8212" stop-color="#E0E0E0"/>
</linearGradient>
<clipPath id="clip0_339_6012">
<rect width="24" height="19.6837" fill="white" transform="translate(0 2.1582)"/>
</clipPath>
</defs>
</svg>
