<svg width="21" height="20" viewBox="0 0 21 20" fill="none" xmlns="http://www.w3.org/2000/svg">
<path d="M15.5702 7.88336L15.5702 7.88326C15.2992 7.83284 15.0345 7.69993 14.819 7.54091C14.6052 7.38316 14.3964 7.16767 14.2718 6.91328L13.0984 4.56647C13.0983 4.56631 13.0982 4.56615 13.0981 4.56599C12.813 3.99976 12.527 3.88475 12.3854 3.8844C12.2443 3.88405 11.9595 3.99708 11.675 4.55816C11.6748 4.55854 11.6746 4.55893 11.6744 4.55931L10.5016 6.90495C10.3778 7.15753 10.1705 7.3749 9.95594 7.53453C9.74072 7.69463 9.47172 7.83121 9.19256 7.87677L9.19293 7.87671L9.11167 7.38336L9.19201 7.87686L7.06967 8.22643C6.47752 8.32852 6.28303 8.56246 6.23785 8.70355C6.19294 8.84382 6.21471 9.14596 6.64022 9.57147L8.29856 11.2298C8.51115 11.4424 8.65424 11.7285 8.73514 12.0039C8.81649 12.2807 8.85001 12.5976 8.79477 12.8922L8.79282 12.9026L8.79043 12.9129L8.31543 14.9629L8.31541 14.963C8.13811 15.7274 8.31689 16.0029 8.40583 16.0676C8.49648 16.1335 8.81658 16.2175 9.49017 15.8198C9.49035 15.8197 9.49054 15.8196 9.49072 15.8195L11.4798 14.6377C11.7562 14.4712 12.0908 14.4042 12.395 14.4042C12.6993 14.4042 13.0338 14.4712 13.3102 14.6377L15.3004 15.8202L15.3011 15.8206C15.9746 16.2223 16.2937 16.1368 16.3834 16.0713C16.4733 16.0056 16.6518 15.7271 16.4746 14.963L16.4746 14.9629L15.9998 12.914C15.9998 12.9138 15.9998 12.9137 15.9997 12.9136C15.9298 12.6145 15.9599 12.2924 16.0392 12.0147C16.1185 11.7374 16.2622 11.4507 16.4748 11.2381L18.1316 9.58131C18.1318 9.5811 18.132 9.58088 18.1323 9.58066C18.5583 9.15066 18.5805 8.84629 18.5355 8.70563C18.4908 8.56596 18.2979 8.33329 17.7054 8.23505L15.5702 7.88336ZM15.5702 7.88336L15.5804 7.88505L17.705 8.23497L15.5702 7.88336Z" fill="white" stroke="#FED430"/>
<path d="M7.38672 4.79169H2.38672C2.04505 4.79169 1.76172 4.50835 1.76172 4.16669C1.76172 3.82502 2.04505 3.54169 2.38672 3.54169H7.38672C7.72839 3.54169 8.01172 3.82502 8.01172 4.16669C8.01172 4.50835 7.72839 4.79169 7.38672 4.79169Z" fill="#FED430"/>
<path d="M4.88672 16.4583H2.38672C2.04505 16.4583 1.76172 16.175 1.76172 15.8333C1.76172 15.4916 2.04505 15.2083 2.38672 15.2083H4.88672C5.22839 15.2083 5.51172 15.4916 5.51172 15.8333C5.51172 16.175 5.22839 16.4583 4.88672 16.4583Z" fill="#FED430"/>
<path d="M3.22005 10.625H2.38672C2.04505 10.625 1.76172 10.3417 1.76172 10C1.76172 9.65833 2.04505 9.375 2.38672 9.375H3.22005C3.56172 9.375 3.84505 9.65833 3.84505 10C3.84505 10.3417 3.56172 10.625 3.22005 10.625Z" fill="#FED430"/>
</svg>
