<svg width="21" height="20" viewBox="0 0 21 20" fill="none" xmlns="http://www.w3.org/2000/svg">
<path d="M13.545 4.34169L14.72 6.69169C14.8783 7.01669 15.3033 7.32503 15.6617 7.39169L17.7867 7.74169C19.145 7.96669 19.4617 8.95003 18.4867 9.93336L16.8283 11.5917C16.5533 11.8667 16.395 12.4084 16.4867 12.8L16.9617 14.85C17.3367 16.4667 16.47 17.1 15.045 16.25L13.0533 15.0667C12.695 14.85 12.095 14.85 11.7367 15.0667L9.745 16.25C8.32 17.0917 7.45334 16.4667 7.82834 14.85L8.30334 12.8C8.37834 12.4 8.22 11.8584 7.945 11.5834L6.28667 9.92503C5.31167 8.95003 5.62834 7.96669 6.98667 7.73336L9.11167 7.38336C9.47 7.32503 9.895 7.00836 10.0533 6.68336L11.2283 4.33336C11.87 3.06669 12.9033 3.06669 13.545 4.34169Z" fill="#FED430"/>
<path d="M7.38672 4.79169H2.38672C2.04505 4.79169 1.76172 4.50835 1.76172 4.16669C1.76172 3.82502 2.04505 3.54169 2.38672 3.54169H7.38672C7.72839 3.54169 8.01172 3.82502 8.01172 4.16669C8.01172 4.50835 7.72839 4.79169 7.38672 4.79169Z" fill="#FED430"/>
<path d="M4.88672 16.4583H2.38672C2.04505 16.4583 1.76172 16.175 1.76172 15.8333C1.76172 15.4916 2.04505 15.2083 2.38672 15.2083H4.88672C5.22839 15.2083 5.51172 15.4916 5.51172 15.8333C5.51172 16.175 5.22839 16.4583 4.88672 16.4583Z" fill="#FED430"/>
<path d="M3.22005 10.625H2.38672C2.04505 10.625 1.76172 10.3417 1.76172 10C1.76172 9.65833 2.04505 9.375 2.38672 9.375H3.22005C3.56172 9.375 3.84505 9.65833 3.84505 10C3.84505 10.3417 3.56172 10.625 3.22005 10.625Z" fill="#FED430"/>
</svg>
