<svg width="24" height="25" viewBox="0 0 24 25" fill="none" xmlns="http://www.w3.org/2000/svg">
<path d="M18.1404 22.099C17.2604 22.359 16.2204 22.479 15.0004 22.479H9.00035C7.78035 22.479 6.74035 22.359 5.86035 22.099C6.08035 19.499 8.75035 17.449 12.0004 17.449C15.2504 17.449 17.9204 19.499 18.1404 22.099Z" stroke="#5667FD" stroke-width="1.5" stroke-linecap="round" stroke-linejoin="round"/>
<path d="M15 2.479H9C4 2.479 2 4.479 2 9.479V15.479C2 19.259 3.14 21.329 5.86 22.099C6.08 19.499 8.75 17.449 12 17.449C15.25 17.449 17.92 19.499 18.14 22.099C20.86 21.329 22 19.259 22 15.479V9.479C22 4.479 20 2.479 15 2.479ZM12 14.649C10.02 14.649 8.42 13.039 8.42 11.059C8.42 9.07902 10.02 7.479 12 7.479C13.98 7.479 15.58 9.07902 15.58 11.059C15.58 13.039 13.98 14.649 12 14.649Z" stroke="#5667FD" stroke-width="1.5" stroke-linecap="round" stroke-linejoin="round"/>
<path d="M15.58 11.059C15.58 13.039 13.98 14.649 12 14.649C10.02 14.649 8.42004 13.039 8.42004 11.059C8.42004 9.07902 10.02 7.479 12 7.479C13.98 7.479 15.58 9.07902 15.58 11.059Z" stroke="#5667FD" stroke-width="1.5" stroke-linecap="round" stroke-linejoin="round"/>
</svg>
