<svg width="25" height="24" viewBox="0 0 25 24" fill="none" xmlns="http://www.w3.org/2000/svg">
<path d="M15.9901 5.21L17.4 8.02999C17.59 8.41999 18.1 8.78999 18.53 8.86999L21.0801 9.28999C22.7101 9.55999 23.0901 10.74 21.9201 11.92L19.93 13.91C19.6 14.24 19.4101 14.89 19.5201 15.36L20.09 17.82C20.54 19.76 19.5001 20.52 17.7901 19.5L15.4 18.08C14.97 17.82 14.25 17.82 13.82 18.08L11.43 19.5C9.72003 20.51 8.68005 19.76 9.13005 17.82L9.70005 15.36C9.81005 14.9 9.62005 14.25 9.29005 13.91L7.30006 11.92C6.13006 10.75 6.51006 9.56999 8.14006 9.28999L10.69 8.86999C11.12 8.79999 11.63 8.41999 11.82 8.02999L13.2301 5.21C13.9801 3.68 15.2201 3.68 15.9901 5.21Z" stroke="#5667FD" stroke-width="1.5" stroke-linecap="round" stroke-linejoin="round"/>
<path d="M8.59998 5H2.59998" stroke="#5667FD" stroke-width="1.5" stroke-linecap="round" stroke-linejoin="round"/>
<path d="M5.59998 19H2.59998" stroke="#5667FD" stroke-width="1.5" stroke-linecap="round" stroke-linejoin="round"/>
<path d="M3.59998 12H2.59998" stroke="#5667FD" stroke-width="1.5" stroke-linecap="round" stroke-linejoin="round"/>
</svg>
