<svg width="25" height="24" viewBox="0 0 25 24" fill="none" xmlns="http://www.w3.org/2000/svg">
<path d="M16.11 5.50002V15.66C16.11 16.06 15.99 16.45 15.77 16.78L13.04 20.84C12.61 21.49 11.54 21.95 10.63 21.61C9.65002 21.28 9.00002 20.18 9.21002 19.2L9.73002 15.93C9.77002 15.63 9.69002 15.36 9.52002 15.15C9.35002 14.96 9.10002 14.84 8.83002 14.84H4.72002C3.93002 14.84 3.25002 14.52 2.85002 13.96C2.47002 13.42 2.40002 12.72 2.65002 12.01L5.11002 4.52002C5.42002 3.28002 6.77002 2.27002 8.11002 2.27002H12.01C12.68 2.27002 13.62 2.50002 14.05 2.93002L15.33 3.92002C15.82 4.30002 16.11 4.88002 16.11 5.50002Z" fill="#364356"/>
<path d="M19.2904 17.61H20.3204C21.8704 17.61 22.5004 17.01 22.5004 15.53V5.48002C22.5004 4.00002 21.8704 3.40002 20.3204 3.40002H19.2904C17.7404 3.40002 17.1104 4.00002 17.1104 5.48002V15.54C17.1104 17.01 17.7404 17.61 19.2904 17.61Z" fill="#364356"/>
</svg>
