<svg width="14" height="15" viewBox="0 0 14 15" fill="none" xmlns="http://www.w3.org/2000/svg">
<path d="M0.333496 14.4668L1.29013 10.9129C0.518629 9.52851 0.273515 7.91303 0.599768 6.36291C0.926022 4.8128 1.80176 3.43202 3.06628 2.47397C4.3308 1.51591 5.89928 1.04484 7.48391 1.14719C9.06854 1.24954 10.563 1.91844 11.6931 3.03116C12.8232 4.14389 13.5131 5.62578 13.6362 7.20492C13.7593 8.78406 13.3074 10.3545 12.3633 11.6281C11.4192 12.9017 10.0464 13.793 8.49668 14.1385C6.94697 14.4839 5.32433 14.2604 3.92653 13.5088L0.333496 14.4668ZM4.09978 12.1789L4.32199 12.3104C5.33445 12.909 6.51698 13.1567 7.6853 13.0149C8.85363 12.8731 9.94213 12.3498 10.7812 11.5266C11.6202 10.7033 12.1626 9.62636 12.324 8.46349C12.4853 7.30062 12.2564 6.11719 11.673 5.0976C11.0897 4.07802 10.1845 3.27957 9.09869 2.82667C8.01286 2.37377 6.80733 2.29186 5.66996 2.59372C4.53259 2.89558 3.52727 3.56423 2.81067 4.4955C2.09407 5.42676 1.70644 6.56831 1.70819 7.74226C1.70724 8.71565 1.97713 9.67021 2.48781 10.4997L2.62716 10.7288L2.09235 12.7124L4.09978 12.1789Z" fill="#C4C4C4"/>
<path fill-rule="evenodd" clip-rule="evenodd" d="M9.49293 8.6548C9.36266 8.55 9.21013 8.47624 9.04697 8.43913C8.8838 8.40202 8.71429 8.40255 8.55136 8.44067C8.30655 8.5421 8.14836 8.92528 7.99018 9.11687C7.95682 9.1628 7.90781 9.19502 7.85234 9.20746C7.79686 9.21991 7.73874 9.21175 7.68888 9.1845C6.79262 8.83436 6.04138 8.19226 5.55716 7.36249C5.51586 7.31071 5.49631 7.24497 5.50263 7.1791C5.50896 7.11324 5.54066 7.05239 5.59106 7.00936C5.76748 6.83515 5.89702 6.61938 5.96768 6.382C5.98338 6.12016 5.92323 5.85934 5.79444 5.63065C5.69486 5.31004 5.50536 5.02456 5.24832 4.80794C5.11575 4.74846 4.96876 4.72852 4.82507 4.75052C4.68139 4.77252 4.54716 4.83551 4.43857 4.93191C4.25006 5.09414 4.10043 5.29648 4.0007 5.52403C3.90097 5.75159 3.85369 5.99856 3.86233 6.24675C3.86291 6.38613 3.88062 6.52491 3.91506 6.65999C4.00251 6.98453 4.13701 7.2946 4.31429 7.58038C4.44219 7.7993 4.58174 8.01123 4.73234 8.21527C5.22179 8.88546 5.83703 9.45448 6.54393 9.89076C6.89865 10.1125 7.27777 10.2927 7.67381 10.428C8.08521 10.614 8.53943 10.6854 8.98824 10.6346C9.24396 10.596 9.48625 10.4953 9.69378 10.3413C9.90131 10.1874 10.0677 9.98492 10.1784 9.75176C10.2434 9.61091 10.2631 9.45344 10.2349 9.30095C10.1671 8.98915 9.74903 8.80507 9.49293 8.6548Z" fill="#C4C4C4"/>
</svg>
