<svg width="21" height="32" viewBox="0 0 21 32" fill="none" xmlns="http://www.w3.org/2000/svg">
<path d="M8.34171 22.3334L8.34169 22.3334L8.34554 22.3377C8.48151 22.4889 8.65949 22.6964 8.87253 22.9448C9.7718 23.9934 11.2958 25.7704 12.9217 27.1151C13.9253 27.9452 15.0235 28.66 16.0899 28.9227C16.6309 29.056 17.1829 29.0777 17.7144 28.9216C18.2498 28.7644 18.7276 28.4375 19.1322 27.9344C19.5804 27.3863 19.672 26.6854 19.6054 26.0026C19.5385 25.3166 19.3062 24.5784 19.021 23.8745C18.6344 22.9204 18.1052 21.9327 17.7011 21.1785C17.5204 20.8411 17.3647 20.5505 17.258 20.3305L17.258 20.3305L17.2559 20.3264C16.5497 18.9039 16.1462 17.3442 15.8394 15.7323C15.701 15.0051 15.5834 14.2741 15.4656 13.5415C15.4529 13.4622 15.4401 13.3829 15.4273 13.3036C15.297 12.4953 15.1638 11.6863 15.001 10.8986C14.9721 10.7528 14.9425 10.6013 14.9119 10.4448C14.6179 8.93932 14.2337 6.9726 13.5011 5.26442C12.6928 3.37946 11.3992 1.6685 9.1989 1.31224L9.11898 1.80581L9.19987 1.3124C7.83573 1.08878 6.7168 1.32382 5.82747 1.90575C4.9481 2.48116 4.34379 3.36246 3.93482 4.34489C3.122 6.29746 3.02397 8.78473 3.17166 10.6014L3.17178 10.6027C3.51096 14.6394 5.653 19.2729 8.34171 22.3334Z" fill="#86B20D" stroke="black"/>
<path d="M5.11986 3.27545C4.90829 6.33051 6.17699 9.99481 7.1364 12.2016C8.01333 14.2064 9.20684 16.6582 11.5264 17.2651C12.5808 17.541 13.9512 17.5355 14.7808 16.6672C15.0376 16.3737 15.2422 16.0944 15.3805 15.7769C15.6869 17.4313 16.0977 19.0576 16.8408 20.5663C17.5979 22.1271 20.1036 26.018 18.7766 27.6369C15.9561 31.0877 10.23 23.6669 8.74296 21.9948C6.09032 19.0121 3.99873 14.4771 3.66954 10.5593C3.48315 8.3121 3.69263 5.14553 5.11986 3.27545Z" fill="#82A504"/>
<path d="M4.67973 3.92627C4.11403 7.32905 4.30228 10.7245 5.70929 14.0713C6.58831 16.1877 7.81365 18.2386 9.15329 20.0906C9.80549 20.9513 10.9118 22.2498 12.0685 22.386C12.3858 22.5245 12.7081 22.5777 13.0946 22.5574C14.3183 22.4234 14.8222 20.9705 15.1448 19.9869C15.3812 19.3067 15.5845 18.6074 15.8209 17.9272C16.0605 18.8152 16.3855 19.7082 16.7746 20.5278C17.5317 22.0887 20.0375 25.9795 18.7104 27.5984C15.8899 31.0493 10.1639 23.6284 8.6768 21.9563C6.09044 19.0118 3.99886 14.4768 3.66967 10.559C3.5206 8.55387 3.6531 5.82835 4.67973 3.92627Z" fill="#587F01"/>
<path opacity="0.55" d="M12.3826 14.3191C10.4012 12.1639 8.52862 9.16691 7.5919 6.42169C7.21764 5.34591 6.82718 4.10638 7.92196 3.3907C10.0925 1.99251 11.6921 5.11923 12.148 6.70532C12.5617 8.13471 14.8759 13.7023 13.403 14.8843C13.1963 15.0521 12.8106 14.764 12.3826 14.3191Z" fill="#C5D625"/>
<path d="M14.5836 16.6649C14.3409 17.0106 14.0136 17.0429 13.5522 17.6157C13.1806 17.3797 12.7808 17.0393 12.4141 16.718C12.6242 17.0815 13.0833 17.434 13.3646 17.7503C13.0556 18.0579 11.3366 19.054 10.9924 19.231C11.7943 18.9866 12.7607 18.4176 13.4541 17.9783C13.2164 18.2386 13.2106 18.6324 13.0392 18.9309C13.2247 18.6847 13.361 18.2556 13.6339 18.126C13.8623 18.7648 14.4109 19.3452 14.6915 19.97C14.6549 19.4195 14.2227 18.7516 13.9844 18.2835C14.4513 18.3537 14.9422 18.3053 15.3929 18.2117C14.883 18.2933 14.2744 18.0092 13.8315 17.8205C13.9748 17.4176 14.3148 17.0176 14.5836 16.6649Z" fill="#486802"/>
<path d="M5.86176 7.8968C5.8482 8.5729 5.44187 8.93471 5.34639 10.1372C4.61852 10.1375 3.75104 10.0354 2.98298 9.99044C3.57253 10.3077 4.56346 10.3485 5.22217 10.507C5.09718 11.1851 3.68381 14.1442 3.367 14.734C4.21854 13.6357 5.00743 11.9939 5.56771 10.75C5.49987 11.3286 5.83759 11.8539 5.90024 12.3974C5.95607 11.878 5.74675 11.206 5.96126 10.7558C6.8653 11.4085 8.14958 11.7064 9.12486 12.3118C8.56714 11.5937 7.34497 11.111 6.60874 10.6652C7.30424 10.3374 7.91726 9.80779 8.47104 9.26611C7.84601 9.85504 6.79298 9.99908 5.96986 10.1651C5.75349 9.46703 5.82915 8.60606 5.86176 7.8968Z" fill="#486802"/>
<path d="M8.93543 12.3341C8.69273 12.6798 8.36547 12.7121 7.91113 13.311C7.53949 13.075 7.13966 12.7346 6.77298 12.4133C6.98308 12.7769 7.44215 13.1293 7.72349 13.4456C7.4406 13.7461 5.69547 14.7494 5.35125 14.9263C6.15322 14.6819 7.1196 14.1129 7.81301 13.6737C7.57527 13.9339 7.56953 14.3277 7.39808 14.6262C7.58363 14.38 7.72689 13.9771 7.99282 13.8213C8.2212 14.4601 8.76978 15.0406 9.0574 15.6914C9.02085 15.1409 8.58865 14.473 8.35037 14.005C8.81726 14.0751 9.30815 14.0267 9.75886 13.9331C9.24891 14.0147 8.64031 13.7306 8.19742 13.5419C8.32659 13.0868 8.66664 12.6868 8.93543 12.3341Z" fill="#486802"/>
<path d="M13.7959 20.8024C13.168 21.5882 12.8045 22.835 12.3564 23.7685C11.5821 23.389 10.8226 22.7534 10.1055 22.2745C10.5405 22.7455 11.4939 23.5809 11.8838 24.0921C11.8838 24.0921 9.59218 24.6264 8.73801 24.8849C10.0351 24.8151 11.1784 24.5907 12.151 24.3562C12.3985 24.9619 12.7835 28.3603 12.9879 29.1177C13.0544 28.1191 12.4394 24.6987 12.613 24.5118C12.8126 24.3178 14.2916 24.5071 14.5265 24.4438C14.1188 24.3856 13.1117 24.1811 12.7161 24.0637C12.6759 24.0185 13.7359 21.0987 13.7959 20.8024Z" fill="#486802"/>
<path d="M13.9375 7.73596C13.3096 8.52179 12.9461 9.76863 12.498 10.7021C11.7237 10.3226 10.9642 9.68698 10.2471 9.20805C10.6821 9.67905 11.6355 10.5145 12.0254 11.0257C12.0254 11.0257 9.73378 11.56 8.87961 11.8185C10.1767 11.7487 11.32 11.5243 12.2926 11.2898C12.533 11.8694 12.9251 15.2939 13.1295 16.0513C13.196 15.0527 12.581 11.6323 12.7546 11.4454C12.9542 11.2514 14.4332 11.4407 14.6681 11.3774C14.2604 11.3192 13.2533 11.1147 12.8577 10.9973C12.8175 10.9521 13.8965 7.99918 13.9375 7.73596Z" fill="#486802"/>
<path d="M10.0527 2.67544C9.93477 3.37971 10.1553 4.30084 10.189 5.04825C9.57962 5.07259 8.86872 4.92819 8.21915 4.90733C8.64793 5.0438 9.56971 5.24337 9.98649 5.43911C9.98649 5.43911 8.7294 6.59085 8.26592 7.05213C9.05666 6.55858 9.65063 6.06209 10.1924 5.57968C10.552 5.8749 11.0837 6.60002 11.4715 6.99971C11.1768 6.32272 10.6593 5.64983 10.7214 5.46496C10.7765 5.25398 12.1815 4.6507 12.3099 4.50398C12.0299 4.60756 10.8315 5.04299 10.5374 5.09433C10.4591 5.11546 10.1091 2.88438 10.0527 2.67544Z" fill="#486802"/>
<path d="M7.4464 16.1541C7.51609 16.7237 7.88905 17.3796 8.07018 17.9471C7.60747 18.1 7.03124 18.1434 6.53538 18.2772C6.90284 18.2901 7.64271 18.2306 8.01721 18.2696C8.01721 18.2696 7.29825 19.4442 7.05059 19.8753C7.57123 19.3145 7.92118 18.7438 8.24008 18.2655C8.58353 18.397 10.1476 19.628 10.5453 19.8569C10.1766 19.4241 8.4961 18.2805 8.50601 18.1097C8.48983 17.9459 9.18819 17.4213 9.26439 17.2887C9.07675 17.4233 8.57803 17.754 8.35725 17.8696C8.29305 17.943 7.54088 16.2967 7.4464 16.1541Z" fill="#486802"/>
</svg>
