<svg width="481" height="480" viewBox="0 0 481 480" fill="none" xmlns="http://www.w3.org/2000/svg">
<path d="M474 240.236C474 369.314 369.362 473.953 240.284 473.953C111.206 473.953 6.56787 369.314 6.56787 240.236C6.56787 111.158 111.206 6.52014 240.284 6.52014C369.362 6.52014 474 111.158 474 240.236ZM123.426 240.236C123.426 304.775 175.745 357.094 240.284 357.094C304.823 357.094 357.142 304.775 357.142 240.236C357.142 175.697 304.823 123.378 240.284 123.378C175.745 123.378 123.426 175.697 123.426 240.236Z" fill="#FFC331"/>
<path d="M25.9522 147.042C44.6337 104.078 75.7965 67.7196 115.397 42.685C154.998 17.6505 201.208 5.09533 248.033 6.64863L244.244 120.873C220.316 120.079 196.703 126.495 176.467 139.288C156.231 152.08 140.307 170.659 130.76 192.614L25.9522 147.042Z" fill="#A7614F"/>
<mask id="path-3-inside-1_3_787" fill="white">
<path d="M28.4652 141.464C48.2649 99.003 80.3688 63.4729 120.611 39.4835C160.854 15.4942 207.377 4.15301 254.145 6.93152L247.63 116.585C222.843 115.112 198.186 121.123 176.857 133.837C155.529 146.552 138.514 165.383 128.02 187.887L28.4652 141.464Z"/>
</mask>
<path d="M28.4652 141.464C48.2649 99.003 80.3688 63.4729 120.611 39.4835C160.854 15.4942 207.377 4.15301 254.145 6.93152L247.63 116.585C222.843 115.112 198.186 121.123 176.857 133.837C155.529 146.552 138.514 165.383 128.02 187.887L28.4652 141.464Z" fill="#B39355" stroke="black" stroke-width="2" mask="url(#path-3-inside-1_3_787)"/>
<path d="M266.741 8.02249C322.534 14.3792 374.173 40.6112 412.211 81.9193C450.249 123.227 472.143 176.85 473.887 232.977C475.631 289.103 457.109 343.982 421.71 387.572C386.31 431.162 336.4 460.55 281.109 470.359L261.145 357.829C289.399 352.817 314.903 337.8 332.992 315.525C351.082 293.25 360.546 265.207 359.655 236.527C358.764 207.846 347.576 180.445 328.138 159.336C308.701 138.228 282.313 124.823 253.803 121.575L266.741 8.02249Z" fill="#A7614F"/>
<mask id="path-5-inside-2_3_787" fill="white">
<path d="M274.829 9.0873C330.366 17.3873 381.059 45.4055 417.632 88.016C454.205 130.626 474.214 184.98 473.999 241.134C473.783 297.287 453.357 351.486 416.458 393.814C379.558 436.142 328.653 463.77 273.053 471.644L257.652 362.882C287.119 358.709 314.099 344.067 333.656 321.633C353.213 299.198 364.038 270.473 364.153 240.712C364.267 210.951 353.662 182.143 334.278 159.56C314.895 136.976 288.028 122.126 258.593 117.727L274.829 9.0873Z"/>
</mask>
<path d="M274.829 9.0873C330.366 17.3873 381.059 45.4055 417.632 88.016C454.205 130.626 474.214 184.98 473.999 241.134C473.783 297.287 453.357 351.486 416.458 393.814C379.558 436.142 328.653 463.77 273.053 471.644L257.652 362.882C287.119 358.709 314.099 344.067 333.656 321.633C353.213 299.198 364.038 270.473 364.153 240.712C364.267 210.951 353.662 182.143 334.278 159.56C314.895 136.976 288.028 122.126 258.593 117.727L274.829 9.0873Z" fill="#FFD66D"/>
<path d="M274.829 9.0873C330.366 17.3873 381.059 45.4055 417.632 88.016C454.205 130.626 474.214 184.98 473.999 241.134C473.783 297.287 453.357 351.486 416.458 393.814C379.558 436.142 328.653 463.77 273.053 471.644L257.652 362.882C287.119 358.709 314.099 344.067 333.656 321.633C353.213 299.198 364.038 270.473 364.153 240.712C364.267 210.951 353.662 182.143 334.278 159.56C314.895 136.976 288.028 122.126 258.593 117.727L274.829 9.0873Z" fill="#FFD66D"/>
<path d="M274.829 9.0873C330.366 17.3873 381.059 45.4055 417.632 88.016C454.205 130.626 474.214 184.98 473.999 241.134C473.783 297.287 453.357 351.486 416.458 393.814C379.558 436.142 328.653 463.77 273.053 471.644L257.652 362.882C287.119 358.709 314.099 344.067 333.656 321.633C353.213 299.198 364.038 270.473 364.153 240.712C364.267 210.951 353.662 182.143 334.278 159.56C314.895 136.976 288.028 122.126 258.593 117.727L274.829 9.0873Z" stroke="black" stroke-width="2" mask="url(#path-5-inside-2_3_787)"/>
<path d="M20.6626 320.166C2.06118 269.059 1.86566 213.065 20.1097 161.829L127.775 200.167C118.452 226.348 118.552 254.961 128.057 281.077L20.6626 320.166Z" fill="#A7614F"/>
<mask id="path-7-inside-3_3_787" fill="white">
<path d="M18.6456 314.396C1.38835 262.82 2.65865 206.84 22.2376 156.1L124.719 195.644C114.343 222.536 113.669 252.206 122.816 279.541L18.6456 314.396Z"/>
</mask>
<path d="M18.6456 314.396C1.38835 262.82 2.65865 206.84 22.2376 156.1L124.719 195.644C114.343 222.536 113.669 252.206 122.816 279.541L18.6456 314.396Z" fill="#FFD66D"/>
<path d="M18.6456 314.396C1.38835 262.82 2.65865 206.84 22.2376 156.1L124.719 195.644C114.343 222.536 113.669 252.206 122.816 279.541L18.6456 314.396Z" fill="#D0953C"/>
<path d="M18.6456 314.396C1.38835 262.82 2.65865 206.84 22.2376 156.1L124.719 195.644C114.343 222.536 113.669 252.206 122.816 279.541L18.6456 314.396Z" stroke="black" stroke-width="2" mask="url(#path-7-inside-3_3_787)"/>
<path d="M199.7 470.402C165.819 464.428 133.675 451.048 105.563 431.216L171.441 337.827C185.807 347.961 202.233 354.798 219.546 357.851L199.7 470.402Z" fill="#A7614F"/>
<path d="M262.685 472.876C246.591 474.426 230.381 474.302 214.313 472.505L227.013 358.926C235.223 359.844 243.507 359.907 251.73 359.115L262.685 472.876Z" fill="#A7614F"/>
<mask id="path-10-inside-4_3_787" fill="white">
<path d="M193.689 469.261C159.976 462.402 128.194 448.185 100.61 427.625L166.257 339.552C180.876 350.449 197.721 357.984 215.589 361.619L193.689 469.261Z"/>
</mask>
<path d="M193.689 469.261C159.976 462.402 128.194 448.185 100.61 427.625L166.257 339.552C180.876 350.449 197.721 357.984 215.589 361.619L193.689 469.261Z" fill="#FFEA32" stroke="black" stroke-width="2" mask="url(#path-10-inside-4_3_787)"/>
<mask id="path-11-inside-5_3_787" fill="white">
<path d="M258.621 473.232C242.504 474.501 226.297 474.093 210.264 472.016L224.373 363.08C232.871 364.18 241.46 364.396 250.003 363.724L258.621 473.232Z"/>
</mask>
<path d="M258.621 473.232C242.504 474.501 226.297 474.093 210.264 472.016L224.373 363.08C232.871 364.18 241.46 364.396 250.003 363.724L258.621 473.232Z" fill="#FF6F32" stroke="black" stroke-width="2" mask="url(#path-11-inside-5_3_787)"/>
<path d="M91.6225 420.578C65.076 398.694 43.6881 371.221 28.9855 340.117L132.311 291.275C139.824 307.169 150.753 321.208 164.318 332.391L91.6225 420.578Z" fill="#A7614F"/>
<mask id="path-13-inside-6_3_787" fill="white">
<path d="M86.9526 416.624C60.9881 394.054 40.3267 366.029 26.4433 334.552L126.948 290.223C134.307 306.907 145.257 321.76 159.018 333.722L86.9526 416.624Z"/>
</mask>
<path d="M86.9526 416.624C60.9881 394.054 40.3267 366.029 26.4433 334.552L126.948 290.223C134.307 306.907 145.257 321.76 159.018 333.722L86.9526 416.624Z" fill="#FFD66D"/>
<path d="M86.9526 416.624C60.9881 394.054 40.3267 366.029 26.4433 334.552L126.948 290.223C134.307 306.907 145.257 321.76 159.018 333.722L86.9526 416.624Z" fill="#FFAD32"/>
<path d="M86.9526 416.624C60.9881 394.054 40.3267 366.029 26.4433 334.552L126.948 290.223C134.307 306.907 145.257 321.76 159.018 333.722L86.9526 416.624Z" stroke="black" stroke-width="2" mask="url(#path-13-inside-6_3_787)"/>
<path d="M400.532 222.839L400.012 224.419L399.752 227.639C399.979 227.546 400.259 227.459 400.592 227.379C400.939 227.286 401.326 227.239 401.752 227.239C402.619 227.239 403.359 227.406 403.972 227.739C404.586 228.059 405.059 228.512 405.392 229.099C405.739 229.686 405.912 230.379 405.912 231.179C405.912 231.939 405.739 232.632 405.392 233.259C405.046 233.872 404.519 234.366 403.812 234.739C403.106 235.099 402.219 235.279 401.152 235.279C400.366 235.279 399.672 235.192 399.072 235.019C398.486 234.859 398.026 234.639 397.692 234.359C397.359 234.066 397.192 233.739 397.192 233.379C397.192 233.086 397.279 232.839 397.452 232.639C397.639 232.426 397.832 232.272 398.032 232.179C398.366 232.446 398.772 232.699 399.252 232.939C399.732 233.179 400.326 233.299 401.032 233.299C401.819 233.299 402.412 233.099 402.812 232.699C403.212 232.299 403.412 231.799 403.412 231.199C403.412 230.586 403.212 230.099 402.812 229.739C402.426 229.379 401.879 229.199 401.172 229.199C400.759 229.199 400.392 229.259 400.072 229.379C399.752 229.486 399.432 229.626 399.112 229.799C398.619 229.772 398.219 229.632 397.912 229.379C397.619 229.112 397.472 228.739 397.472 228.259C397.472 228.179 397.472 228.086 397.472 227.979C397.486 227.859 397.499 227.726 397.512 227.579L397.792 224.219C397.832 223.792 397.966 223.459 398.192 223.219C398.419 222.966 398.746 222.839 399.172 222.839H400.532ZM399.432 224.859V222.839H405.112C405.179 222.932 405.239 223.066 405.292 223.239C405.346 223.412 405.372 223.599 405.372 223.799C405.372 224.146 405.292 224.412 405.132 224.599C404.986 224.772 404.766 224.859 404.472 224.859H399.432ZM411.079 222.839L410.559 224.419L410.299 227.639C410.526 227.546 410.806 227.459 411.139 227.379C411.486 227.286 411.872 227.239 412.299 227.239C413.166 227.239 413.906 227.406 414.519 227.739C415.132 228.059 415.606 228.512 415.939 229.099C416.286 229.686 416.459 230.379 416.459 231.179C416.459 231.939 416.286 232.632 415.939 233.259C415.592 233.872 415.066 234.366 414.359 234.739C413.652 235.099 412.766 235.279 411.699 235.279C410.912 235.279 410.219 235.192 409.619 235.019C409.032 234.859 408.572 234.639 408.239 234.359C407.906 234.066 407.739 233.739 407.739 233.379C407.739 233.086 407.826 232.839 407.999 232.639C408.186 232.426 408.379 232.272 408.579 232.179C408.912 232.446 409.319 232.699 409.799 232.939C410.279 233.179 410.872 233.299 411.579 233.299C412.366 233.299 412.959 233.099 413.359 232.699C413.759 232.299 413.959 231.799 413.959 231.199C413.959 230.586 413.759 230.099 413.359 229.739C412.972 229.379 412.426 229.199 411.719 229.199C411.306 229.199 410.939 229.259 410.619 229.379C410.299 229.486 409.979 229.626 409.659 229.799C409.166 229.772 408.766 229.632 408.459 229.379C408.166 229.112 408.019 228.739 408.019 228.259C408.019 228.179 408.019 228.086 408.019 227.979C408.032 227.859 408.046 227.726 408.059 227.579L408.339 224.219C408.379 223.792 408.512 223.459 408.739 223.219C408.966 222.966 409.292 222.839 409.719 222.839H411.079ZM409.979 224.859V222.839H415.659C415.726 222.932 415.786 223.066 415.839 223.239C415.892 223.412 415.919 223.599 415.919 223.799C415.919 224.146 415.839 224.412 415.679 224.599C415.532 224.772 415.312 224.859 415.019 224.859H409.979ZM424.085 225.679C424.085 226.599 423.798 227.332 423.225 227.879C422.651 228.412 421.931 228.679 421.065 228.679C420.198 228.679 419.478 228.412 418.905 227.879C418.331 227.332 418.045 226.599 418.045 225.679C418.045 224.746 418.331 224.012 418.905 223.479C419.478 222.946 420.198 222.679 421.065 222.679C421.931 222.679 422.651 222.946 423.225 223.479C423.798 224.012 424.085 224.746 424.085 225.679ZM419.945 225.679C419.945 226.132 420.051 226.486 420.265 226.739C420.478 226.979 420.745 227.099 421.065 227.099C421.385 227.099 421.651 226.979 421.865 226.739C422.078 226.486 422.185 226.132 422.185 225.679C422.185 225.212 422.078 224.866 421.865 224.639C421.651 224.399 421.385 224.279 421.065 224.279C420.745 224.279 420.478 224.399 420.265 224.639C420.051 224.866 419.945 225.212 419.945 225.679ZM421.045 233.219L428.185 222.679C428.571 222.719 428.898 222.812 429.165 222.959C429.431 223.106 429.565 223.306 429.565 223.559C429.565 223.719 429.525 223.892 429.445 224.079C429.365 224.252 429.258 224.432 429.125 224.619L421.985 235.139C421.585 235.112 421.251 235.019 420.985 234.859C420.731 234.686 420.605 234.479 420.605 234.239C420.605 234.092 420.645 233.932 420.725 233.759C420.805 233.586 420.911 233.406 421.045 233.219ZM432.085 232.139C432.085 233.072 431.798 233.812 431.225 234.359C430.665 234.892 429.951 235.159 429.085 235.159C428.231 235.159 427.511 234.892 426.925 234.359C426.351 233.812 426.065 233.072 426.065 232.139C426.065 231.219 426.351 230.492 426.925 229.959C427.511 229.426 428.231 229.159 429.085 229.159C429.951 229.159 430.665 229.426 431.225 229.959C431.798 230.492 432.085 231.219 432.085 232.139ZM427.965 232.139C427.965 232.619 428.071 232.979 428.285 233.219C428.498 233.459 428.765 233.579 429.085 233.579C429.405 233.579 429.665 233.459 429.865 233.219C430.078 232.979 430.185 232.619 430.185 232.139C430.185 231.699 430.078 231.359 429.865 231.119C429.665 230.879 429.405 230.759 429.085 230.759C428.765 230.759 428.498 230.879 428.285 231.119C428.071 231.359 427.965 231.699 427.965 232.139Z" fill="black"/>
<path d="M140.486 85.339C140.486 84.9924 140.64 84.6857 140.946 84.419C141.253 84.1524 141.666 83.9457 142.186 83.799C142.72 83.6524 143.326 83.579 144.006 83.579C144.953 83.579 145.753 83.7324 146.406 84.039C147.073 84.3324 147.58 84.7524 147.926 85.299C148.273 85.8324 148.446 86.4524 148.446 87.159C148.446 87.879 148.246 88.5857 147.846 89.279C147.446 89.959 146.793 90.6857 145.886 91.459L142.946 94.039H148.326C148.393 94.1324 148.453 94.2657 148.506 94.439C148.573 94.6124 148.606 94.799 148.606 94.999C148.606 95.3457 148.52 95.599 148.346 95.759C148.186 95.919 147.98 95.999 147.726 95.999H140.726C140.513 95.8524 140.346 95.6657 140.226 95.439C140.12 95.2124 140.066 94.959 140.066 94.679C140.066 94.3457 140.133 94.0657 140.266 93.839C140.4 93.599 140.56 93.3924 140.746 93.219L143.926 90.299C144.7 89.619 145.226 89.059 145.506 88.619C145.786 88.1657 145.926 87.719 145.926 87.279C145.926 86.7724 145.74 86.3657 145.366 86.059C145.006 85.739 144.473 85.579 143.766 85.579C143.206 85.579 142.706 85.6724 142.266 85.859C141.826 86.0457 141.46 86.239 141.166 86.439C140.98 86.3324 140.82 86.1857 140.686 85.999C140.553 85.8124 140.486 85.5924 140.486 85.339ZM153.825 83.839L153.305 85.419L153.045 88.639C153.272 88.5457 153.552 88.459 153.885 88.379C154.232 88.2857 154.619 88.239 155.045 88.239C155.912 88.239 156.652 88.4057 157.265 88.739C157.879 89.059 158.352 89.5124 158.685 90.099C159.032 90.6857 159.205 91.379 159.205 92.179C159.205 92.939 159.032 93.6324 158.685 94.259C158.339 94.8724 157.812 95.3657 157.105 95.739C156.399 96.099 155.512 96.279 154.445 96.279C153.659 96.279 152.965 96.1924 152.365 96.019C151.779 95.859 151.319 95.639 150.985 95.359C150.652 95.0657 150.485 94.739 150.485 94.379C150.485 94.0857 150.572 93.839 150.745 93.639C150.932 93.4257 151.125 93.2724 151.325 93.179C151.659 93.4457 152.065 93.699 152.545 93.939C153.025 94.179 153.619 94.299 154.325 94.299C155.112 94.299 155.705 94.099 156.105 93.699C156.505 93.299 156.705 92.799 156.705 92.199C156.705 91.5857 156.505 91.099 156.105 90.739C155.719 90.379 155.172 90.199 154.465 90.199C154.052 90.199 153.685 90.259 153.365 90.379C153.045 90.4857 152.725 90.6257 152.405 90.799C151.912 90.7724 151.512 90.6324 151.205 90.379C150.912 90.1124 150.765 89.739 150.765 89.259C150.765 89.179 150.765 89.0857 150.765 88.979C150.779 88.859 150.792 88.7257 150.805 88.579L151.085 85.219C151.125 84.7924 151.259 84.459 151.485 84.219C151.712 83.9657 152.039 83.839 152.465 83.839H153.825ZM152.725 85.859V83.839H158.405C158.472 83.9324 158.532 84.0657 158.585 84.239C158.639 84.4124 158.665 84.599 158.665 84.799C158.665 85.1457 158.585 85.4124 158.425 85.599C158.279 85.7724 158.059 85.859 157.765 85.859H152.725ZM166.831 86.679C166.831 87.599 166.544 88.3324 165.971 88.879C165.397 89.4124 164.677 89.679 163.811 89.679C162.944 89.679 162.224 89.4124 161.651 88.879C161.077 88.3324 160.791 87.599 160.791 86.679C160.791 85.7457 161.077 85.0124 161.651 84.479C162.224 83.9457 162.944 83.679 163.811 83.679C164.677 83.679 165.397 83.9457 165.971 84.479C166.544 85.0124 166.831 85.7457 166.831 86.679ZM162.691 86.679C162.691 87.1324 162.797 87.4857 163.011 87.739C163.224 87.979 163.491 88.099 163.811 88.099C164.131 88.099 164.397 87.979 164.611 87.739C164.824 87.4857 164.931 87.1324 164.931 86.679C164.931 86.2124 164.824 85.8657 164.611 85.639C164.397 85.399 164.131 85.279 163.811 85.279C163.491 85.279 163.224 85.399 163.011 85.639C162.797 85.8657 162.691 86.2124 162.691 86.679ZM163.791 94.219L170.931 83.679C171.317 83.719 171.644 83.8124 171.911 83.959C172.177 84.1057 172.311 84.3057 172.311 84.559C172.311 84.719 172.271 84.8924 172.191 85.079C172.111 85.2524 172.004 85.4324 171.871 85.619L164.731 96.139C164.331 96.1124 163.997 96.019 163.731 95.859C163.477 95.6857 163.351 95.479 163.351 95.239C163.351 95.0924 163.391 94.9324 163.471 94.759C163.551 94.5857 163.657 94.4057 163.791 94.219ZM174.831 93.139C174.831 94.0724 174.544 94.8124 173.971 95.359C173.411 95.8924 172.697 96.159 171.831 96.159C170.977 96.159 170.257 95.8924 169.671 95.359C169.097 94.8124 168.811 94.0724 168.811 93.139C168.811 92.219 169.097 91.4924 169.671 90.959C170.257 90.4257 170.977 90.159 171.831 90.159C172.697 90.159 173.411 90.4257 173.971 90.959C174.544 91.4924 174.831 92.219 174.831 93.139ZM170.711 93.139C170.711 93.619 170.817 93.979 171.031 94.219C171.244 94.459 171.511 94.579 171.831 94.579C172.151 94.579 172.411 94.459 172.611 94.219C172.824 93.979 172.931 93.619 172.931 93.139C172.931 92.699 172.824 92.359 172.611 92.119C172.411 91.879 172.151 91.759 171.831 91.759C171.511 91.759 171.244 91.879 171.031 92.119C170.817 92.359 170.711 92.699 170.711 93.139Z" fill="black"/>
<path d="M53.8655 237.419H51.3855V231.199L49.1055 232.119C48.9188 232.026 48.7455 231.886 48.5855 231.699C48.4388 231.512 48.3655 231.266 48.3655 230.959C48.3655 230.372 48.7188 229.952 49.4255 229.699L51.9655 228.699H52.5255C52.9388 228.699 53.2655 228.819 53.5055 229.059C53.7455 229.299 53.8655 229.632 53.8655 230.059V237.419ZM51.3855 235.719H53.8655V240.999C53.7588 241.039 53.6055 241.072 53.4055 241.099C53.2055 241.139 52.9855 241.159 52.7455 241.159C52.2788 241.159 51.9321 241.072 51.7055 240.899C51.4921 240.726 51.3855 240.426 51.3855 239.999V235.719ZM60.0459 228.839L59.5259 230.419L59.2659 233.639C59.4926 233.546 59.7726 233.459 60.1059 233.379C60.4526 233.286 60.8393 233.239 61.2659 233.239C62.1326 233.239 62.8726 233.406 63.4859 233.739C64.0993 234.059 64.5726 234.512 64.9059 235.099C65.2526 235.686 65.4259 236.379 65.4259 237.179C65.4259 237.939 65.2526 238.632 64.9059 239.259C64.5593 239.872 64.0326 240.366 63.3259 240.739C62.6193 241.099 61.7326 241.279 60.6659 241.279C59.8793 241.279 59.1859 241.192 58.5859 241.019C57.9993 240.859 57.5393 240.639 57.2059 240.359C56.8726 240.066 56.7059 239.739 56.7059 239.379C56.7059 239.086 56.7926 238.839 56.9659 238.639C57.1526 238.426 57.3459 238.272 57.5459 238.179C57.8793 238.446 58.2859 238.699 58.7659 238.939C59.2459 239.179 59.8393 239.299 60.5459 239.299C61.3326 239.299 61.9259 239.099 62.3259 238.699C62.7259 238.299 62.9259 237.799 62.9259 237.199C62.9259 236.586 62.7259 236.099 62.3259 235.739C61.9393 235.379 61.3926 235.199 60.6859 235.199C60.2726 235.199 59.9059 235.259 59.5859 235.379C59.2659 235.486 58.9459 235.626 58.6259 235.799C58.1326 235.772 57.7326 235.632 57.4259 235.379C57.1326 235.112 56.9859 234.739 56.9859 234.259C56.9859 234.179 56.9859 234.086 56.9859 233.979C56.9993 233.859 57.0126 233.726 57.0259 233.579L57.3059 230.219C57.3459 229.792 57.4793 229.459 57.7059 229.219C57.9326 228.966 58.2593 228.839 58.6859 228.839H60.0459ZM58.9459 230.859V228.839H64.6259C64.6926 228.932 64.7526 229.066 64.8059 229.239C64.8593 229.412 64.8859 229.599 64.8859 229.799C64.8859 230.146 64.8059 230.412 64.6459 230.599C64.4993 230.772 64.2793 230.859 63.9859 230.859H58.9459ZM73.0514 231.679C73.0514 232.599 72.7647 233.332 72.1914 233.879C71.6181 234.412 70.8981 234.679 70.0314 234.679C69.1647 234.679 68.4447 234.412 67.8714 233.879C67.2981 233.332 67.0114 232.599 67.0114 231.679C67.0114 230.746 67.2981 230.012 67.8714 229.479C68.4447 228.946 69.1647 228.679 70.0314 228.679C70.8981 228.679 71.6181 228.946 72.1914 229.479C72.7647 230.012 73.0514 230.746 73.0514 231.679ZM68.9114 231.679C68.9114 232.132 69.0181 232.486 69.2314 232.739C69.4447 232.979 69.7114 233.099 70.0314 233.099C70.3514 233.099 70.6181 232.979 70.8314 232.739C71.0447 232.486 71.1514 232.132 71.1514 231.679C71.1514 231.212 71.0447 230.866 70.8314 230.639C70.6181 230.399 70.3514 230.279 70.0314 230.279C69.7114 230.279 69.4447 230.399 69.2314 230.639C69.0181 230.866 68.9114 231.212 68.9114 231.679ZM70.0114 239.219L77.1514 228.679C77.5381 228.719 77.8647 228.812 78.1314 228.959C78.3981 229.106 78.5314 229.306 78.5314 229.559C78.5314 229.719 78.4914 229.892 78.4114 230.079C78.3314 230.252 78.2247 230.432 78.0914 230.619L70.9514 241.139C70.5514 241.112 70.2181 241.019 69.9514 240.859C69.6981 240.686 69.5714 240.479 69.5714 240.239C69.5714 240.092 69.6114 239.932 69.6914 239.759C69.7714 239.586 69.8781 239.406 70.0114 239.219ZM81.0514 238.139C81.0514 239.072 80.7647 239.812 80.1914 240.359C79.6314 240.892 78.9181 241.159 78.0514 241.159C77.1981 241.159 76.4781 240.892 75.8914 240.359C75.3181 239.812 75.0314 239.072 75.0314 238.139C75.0314 237.219 75.3181 236.492 75.8914 235.959C76.4781 235.426 77.1981 235.159 78.0514 235.159C78.9181 235.159 79.6314 235.426 80.1914 235.959C80.7647 236.492 81.0514 237.219 81.0514 238.139ZM76.9314 238.139C76.9314 238.619 77.0381 238.979 77.2514 239.219C77.4647 239.459 77.7314 239.579 78.0514 239.579C78.3714 239.579 78.6314 239.459 78.8314 239.219C79.0447 238.979 79.1514 238.619 79.1514 238.139C79.1514 237.699 79.0447 237.359 78.8314 237.119C78.6314 236.879 78.3714 236.759 78.0514 236.759C77.7314 236.759 77.4647 236.879 77.2514 237.119C77.0381 237.359 76.9314 237.699 76.9314 238.139Z" fill="black"/>
<path d="M91.2307 346.419H88.7507V340.199L86.4707 341.119C86.284 341.026 86.1107 340.886 85.9507 340.699C85.804 340.512 85.7307 340.266 85.7307 339.959C85.7307 339.372 86.084 338.952 86.7907 338.699L89.3307 337.699H89.8907C90.304 337.699 90.6307 337.819 90.8707 338.059C91.1107 338.299 91.2307 338.632 91.2307 339.059V346.419ZM88.7507 344.719H91.2307V349.999C91.124 350.039 90.9707 350.072 90.7707 350.099C90.5707 350.139 90.3507 350.159 90.1107 350.159C89.644 350.159 89.2974 350.072 89.0707 349.899C88.8574 349.726 88.7507 349.426 88.7507 348.999V344.719ZM101.431 343.919C101.431 342.919 101.318 342.099 101.091 341.459C100.878 340.819 100.578 340.346 100.191 340.039C99.8178 339.732 99.3778 339.579 98.8712 339.579C98.3912 339.579 97.9578 339.739 97.5712 340.059C97.1845 340.366 96.8845 340.839 96.6712 341.479C96.4578 342.119 96.3512 342.932 96.3512 343.919C96.3512 345.359 96.5712 346.446 97.0112 347.179C97.4512 347.912 98.0712 348.279 98.8712 348.279C99.6845 348.279 100.311 347.912 100.751 347.179C101.205 346.446 101.431 345.359 101.431 343.919ZM98.8912 350.279C97.8912 350.279 97.0112 350.046 96.2512 349.579C95.5045 349.112 94.9178 348.412 94.4912 347.479C94.0645 346.532 93.8512 345.346 93.8512 343.919C93.8512 342.466 94.0778 341.272 94.5312 340.339C94.9845 339.406 95.5912 338.712 96.3512 338.259C97.1112 337.806 97.9578 337.579 98.8912 337.579C99.8112 337.579 100.651 337.806 101.411 338.259C102.185 338.712 102.798 339.412 103.251 340.359C103.705 341.292 103.931 342.479 103.931 343.919C103.931 345.332 103.718 346.512 103.291 347.459C102.865 348.392 102.271 349.099 101.511 349.579C100.751 350.046 99.8778 350.279 98.8912 350.279ZM111.686 340.679C111.686 341.599 111.4 342.332 110.826 342.879C110.253 343.412 109.533 343.679 108.666 343.679C107.8 343.679 107.08 343.412 106.506 342.879C105.933 342.332 105.646 341.599 105.646 340.679C105.646 339.746 105.933 339.012 106.506 338.479C107.08 337.946 107.8 337.679 108.666 337.679C109.533 337.679 110.253 337.946 110.826 338.479C111.4 339.012 111.686 339.746 111.686 340.679ZM107.546 340.679C107.546 341.132 107.653 341.486 107.866 341.739C108.08 341.979 108.346 342.099 108.666 342.099C108.986 342.099 109.253 341.979 109.466 341.739C109.68 341.486 109.786 341.132 109.786 340.679C109.786 340.212 109.68 339.866 109.466 339.639C109.253 339.399 108.986 339.279 108.666 339.279C108.346 339.279 108.08 339.399 107.866 339.639C107.653 339.866 107.546 340.212 107.546 340.679ZM108.646 348.219L115.786 337.679C116.173 337.719 116.5 337.812 116.766 337.959C117.033 338.106 117.166 338.306 117.166 338.559C117.166 338.719 117.126 338.892 117.046 339.079C116.966 339.252 116.86 339.432 116.726 339.619L109.586 350.139C109.186 350.112 108.853 350.019 108.586 349.859C108.333 349.686 108.206 349.479 108.206 349.239C108.206 349.092 108.246 348.932 108.326 348.759C108.406 348.586 108.513 348.406 108.646 348.219ZM119.686 347.139C119.686 348.072 119.4 348.812 118.826 349.359C118.266 349.892 117.553 350.159 116.686 350.159C115.833 350.159 115.113 349.892 114.526 349.359C113.953 348.812 113.666 348.072 113.666 347.139C113.666 346.219 113.953 345.492 114.526 344.959C115.113 344.426 115.833 344.159 116.686 344.159C117.553 344.159 118.266 344.426 118.826 344.959C119.4 345.492 119.686 346.219 119.686 347.139ZM115.566 347.139C115.566 347.619 115.673 347.979 115.886 348.219C116.1 348.459 116.366 348.579 116.686 348.579C117.006 348.579 117.266 348.459 117.466 348.219C117.68 347.979 117.786 347.619 117.786 347.139C117.786 346.699 117.68 346.359 117.466 346.119C117.266 345.879 117.006 345.759 116.686 345.759C116.366 345.759 116.1 345.879 115.886 346.119C115.673 346.359 115.566 346.699 115.566 347.139Z" fill="black"/>
<path d="M160.231 399.419H157.751V393.199L155.471 394.119C155.284 394.026 155.111 393.886 154.951 393.699C154.804 393.512 154.731 393.266 154.731 392.959C154.731 392.372 155.084 391.952 155.791 391.699L158.331 390.699H158.891C159.304 390.699 159.631 390.819 159.871 391.059C160.111 391.299 160.231 391.632 160.231 392.059V399.419ZM157.751 397.719H160.231V402.999C160.124 403.039 159.971 403.072 159.771 403.099C159.571 403.139 159.351 403.159 159.111 403.159C158.644 403.159 158.297 403.072 158.071 402.899C157.857 402.726 157.751 402.426 157.751 401.999V397.719ZM170.431 396.919C170.431 395.919 170.318 395.099 170.091 394.459C169.878 393.819 169.578 393.346 169.191 393.039C168.818 392.732 168.378 392.579 167.871 392.579C167.391 392.579 166.958 392.739 166.571 393.059C166.185 393.366 165.885 393.839 165.671 394.479C165.458 395.119 165.351 395.932 165.351 396.919C165.351 398.359 165.571 399.446 166.011 400.179C166.451 400.912 167.071 401.279 167.871 401.279C168.685 401.279 169.311 400.912 169.751 400.179C170.205 399.446 170.431 398.359 170.431 396.919ZM167.891 403.279C166.891 403.279 166.011 403.046 165.251 402.579C164.505 402.112 163.918 401.412 163.491 400.479C163.065 399.532 162.851 398.346 162.851 396.919C162.851 395.466 163.078 394.272 163.531 393.339C163.985 392.406 164.591 391.712 165.351 391.259C166.111 390.806 166.958 390.579 167.891 390.579C168.811 390.579 169.651 390.806 170.411 391.259C171.185 391.712 171.798 392.412 172.251 393.359C172.705 394.292 172.931 395.479 172.931 396.919C172.931 398.332 172.718 399.512 172.291 400.459C171.865 401.392 171.271 402.099 170.511 402.579C169.751 403.046 168.878 403.279 167.891 403.279ZM180.686 393.679C180.686 394.599 180.4 395.332 179.826 395.879C179.253 396.412 178.533 396.679 177.666 396.679C176.8 396.679 176.08 396.412 175.506 395.879C174.933 395.332 174.646 394.599 174.646 393.679C174.646 392.746 174.933 392.012 175.506 391.479C176.08 390.946 176.8 390.679 177.666 390.679C178.533 390.679 179.253 390.946 179.826 391.479C180.4 392.012 180.686 392.746 180.686 393.679ZM176.546 393.679C176.546 394.132 176.653 394.486 176.866 394.739C177.08 394.979 177.346 395.099 177.666 395.099C177.986 395.099 178.253 394.979 178.466 394.739C178.68 394.486 178.786 394.132 178.786 393.679C178.786 393.212 178.68 392.866 178.466 392.639C178.253 392.399 177.986 392.279 177.666 392.279C177.346 392.279 177.08 392.399 176.866 392.639C176.653 392.866 176.546 393.212 176.546 393.679ZM177.646 401.219L184.786 390.679C185.173 390.719 185.5 390.812 185.766 390.959C186.033 391.106 186.166 391.306 186.166 391.559C186.166 391.719 186.126 391.892 186.046 392.079C185.966 392.252 185.86 392.432 185.726 392.619L178.586 403.139C178.186 403.112 177.853 403.019 177.586 402.859C177.333 402.686 177.206 402.479 177.206 402.239C177.206 402.092 177.246 401.932 177.326 401.759C177.406 401.586 177.513 401.406 177.646 401.219ZM188.686 400.139C188.686 401.072 188.4 401.812 187.826 402.359C187.266 402.892 186.553 403.159 185.686 403.159C184.833 403.159 184.113 402.892 183.526 402.359C182.953 401.812 182.666 401.072 182.666 400.139C182.666 399.219 182.953 398.492 183.526 397.959C184.113 397.426 184.833 397.159 185.686 397.159C186.553 397.159 187.266 397.426 187.826 397.959C188.4 398.492 188.686 399.219 188.686 400.139ZM184.566 400.139C184.566 400.619 184.673 400.979 184.886 401.219C185.1 401.459 185.366 401.579 185.686 401.579C186.006 401.579 186.266 401.459 186.466 401.219C186.68 400.979 186.786 400.619 186.786 400.139C186.786 399.699 186.68 399.359 186.466 399.119C186.266 398.879 186.006 398.759 185.686 398.759C185.366 398.759 185.1 398.879 184.886 399.119C184.673 399.359 184.566 399.699 184.566 400.139Z" fill="black"/>
<path d="M230.806 415.839L230.286 417.419L230.026 420.639C230.252 420.546 230.532 420.459 230.866 420.379C231.212 420.286 231.599 420.239 232.026 420.239C232.892 420.239 233.632 420.406 234.246 420.739C234.859 421.059 235.332 421.512 235.666 422.099C236.012 422.686 236.186 423.379 236.186 424.179C236.186 424.939 236.012 425.632 235.666 426.259C235.319 426.872 234.792 427.366 234.086 427.739C233.379 428.099 232.492 428.279 231.426 428.279C230.639 428.279 229.946 428.192 229.346 428.019C228.759 427.859 228.299 427.639 227.966 427.359C227.632 427.066 227.466 426.739 227.466 426.379C227.466 426.086 227.552 425.839 227.726 425.639C227.912 425.426 228.106 425.272 228.306 425.179C228.639 425.446 229.046 425.699 229.526 425.939C230.006 426.179 230.599 426.299 231.306 426.299C232.092 426.299 232.686 426.099 233.086 425.699C233.486 425.299 233.686 424.799 233.686 424.199C233.686 423.586 233.486 423.099 233.086 422.739C232.699 422.379 232.152 422.199 231.446 422.199C231.032 422.199 230.666 422.259 230.346 422.379C230.026 422.486 229.706 422.626 229.386 422.799C228.892 422.772 228.492 422.632 228.186 422.379C227.892 422.112 227.746 421.739 227.746 421.259C227.746 421.179 227.746 421.086 227.746 420.979C227.759 420.859 227.772 420.726 227.786 420.579L228.066 417.219C228.106 416.792 228.239 416.459 228.466 416.219C228.692 415.966 229.019 415.839 229.446 415.839H230.806ZM229.706 417.859V415.839H235.386C235.452 415.932 235.512 416.066 235.566 416.239C235.619 416.412 235.646 416.599 235.646 416.799C235.646 417.146 235.566 417.412 235.406 417.599C235.259 417.772 235.039 417.859 234.746 417.859H229.706ZM243.811 418.679C243.811 419.599 243.525 420.332 242.951 420.879C242.378 421.412 241.658 421.679 240.791 421.679C239.925 421.679 239.205 421.412 238.631 420.879C238.058 420.332 237.771 419.599 237.771 418.679C237.771 417.746 238.058 417.012 238.631 416.479C239.205 415.946 239.925 415.679 240.791 415.679C241.658 415.679 242.378 415.946 242.951 416.479C243.525 417.012 243.811 417.746 243.811 418.679ZM239.671 418.679C239.671 419.132 239.778 419.486 239.991 419.739C240.205 419.979 240.471 420.099 240.791 420.099C241.111 420.099 241.378 419.979 241.591 419.739C241.805 419.486 241.911 419.132 241.911 418.679C241.911 418.212 241.805 417.866 241.591 417.639C241.378 417.399 241.111 417.279 240.791 417.279C240.471 417.279 240.205 417.399 239.991 417.639C239.778 417.866 239.671 418.212 239.671 418.679ZM240.771 426.219L247.911 415.679C248.298 415.719 248.625 415.812 248.891 415.959C249.158 416.106 249.291 416.306 249.291 416.559C249.291 416.719 249.251 416.892 249.171 417.079C249.091 417.252 248.985 417.432 248.851 417.619L241.711 428.139C241.311 428.112 240.978 428.019 240.711 427.859C240.458 427.686 240.331 427.479 240.331 427.239C240.331 427.092 240.371 426.932 240.451 426.759C240.531 426.586 240.638 426.406 240.771 426.219ZM251.811 425.139C251.811 426.072 251.525 426.812 250.951 427.359C250.391 427.892 249.678 428.159 248.811 428.159C247.958 428.159 247.238 427.892 246.651 427.359C246.078 426.812 245.791 426.072 245.791 425.139C245.791 424.219 246.078 423.492 246.651 422.959C247.238 422.426 247.958 422.159 248.811 422.159C249.678 422.159 250.391 422.426 250.951 422.959C251.525 423.492 251.811 424.219 251.811 425.139ZM247.691 425.139C247.691 425.619 247.798 425.979 248.011 426.219C248.225 426.459 248.491 426.579 248.811 426.579C249.131 426.579 249.391 426.459 249.591 426.219C249.805 425.979 249.911 425.619 249.911 425.139C249.911 424.699 249.805 424.359 249.591 424.119C249.391 423.879 249.131 423.759 248.811 423.759C248.491 423.759 248.225 423.879 248.011 424.119C247.798 424.359 247.691 424.699 247.691 425.139Z" fill="black"/>
</svg>
