<svg width="150" height="151" viewBox="0 0 150 151" fill="none" xmlns="http://www.w3.org/2000/svg">
<path d="M99.5391 126.068C72.3243 139.422 39.1285 127.567 25.3887 99.5651C11.649 71.5628 22.5865 38.0538 49.8013 24.7004C77.0161 11.3471 110.212 23.2014 123.952 51.2036C137.691 79.2057 126.739 112.722 99.5391 126.068Z" fill="#FBDC79" stroke="black" stroke-width="0.776574"/>
<path d="M34.2556 95.2129C45.524 118.178 72.7558 127.907 95.0693 116.958C117.383 106.01 126.352 78.5187 115.084 55.5533C103.815 32.5879 76.5838 22.8594 54.2704 33.8077C54.2703 33.8077 54.2702 33.8078 54.2702 33.8078M34.2556 95.2129L54.0991 33.4592M34.2556 95.2129C22.9874 72.2478 31.9638 44.7715 54.2702 33.8078M34.2556 95.2129L54.2702 33.8078M54.2702 33.8078L54.0991 33.4592M54.0991 33.4592C31.5913 44.5217 22.5488 72.2353 33.907 95.3839C45.2653 118.533 72.7251 128.354 95.2404 117.307C117.756 106.259 126.791 78.5308 115.432 55.3822C104.074 32.2336 76.6143 22.4117 54.0991 33.4592Z" fill="#E4BB39" stroke="black" stroke-width="0.776574"/>
<g opacity="0.62" clip-path="url(#clip0_32_96)">
<path d="M60.4044 68.9548C60.2487 68.8688 60.0845 68.774 60.0028 68.616C59.9012 68.4197 59.9548 68.1796 60.0366 67.9744C60.3369 67.221 60.9624 66.655 61.4609 66.0153C61.9595 65.3757 62.3516 64.532 62.0753 63.7694C62.6598 63.6178 63.0944 63.1415 63.4929 62.688C64.3939 61.6629 65.2946 60.6379 66.1955 59.6128C66.5036 59.2623 66.8177 58.9022 66.9884 58.4678C67.0826 58.2283 67.1336 57.966 67.286 57.7586C67.4346 57.5561 67.6624 57.4297 67.8832 57.3094C68.0771 57.2038 68.2831 57.0949 68.504 57.1029C68.7248 57.1108 68.9556 57.285 68.9401 57.5054C69.0968 57.2861 69.4616 57.3332 69.6479 57.5281C69.8342 57.7231 69.8895 58.0053 69.9365 58.2709C71.8337 57.7691 73.8716 57.8126 75.7459 58.3942C76.1126 58.5082 76.486 58.6438 76.8692 58.6163C77.2574 58.5881 77.6117 58.3957 77.9847 58.284C79.3927 57.8624 80.8791 58.6299 82.0258 59.5492C82.6796 60.0734 83.3205 60.7158 83.4655 61.5409C83.6851 62.7916 82.6443 63.9689 81.458 64.4219C80.272 64.8747 78.9626 64.8095 77.6952 64.8844C75.2673 65.0282 72.9067 65.7064 70.5698 66.3801C68.2429 67.0514 65.906 67.7258 63.7006 68.7261C63.4585 68.836 63.2039 68.9623 63.0698 69.1918C62.9357 69.4212 62.9958 69.7809 63.2485 69.8634C63.2552 69.8656 62.3847 70.6798 62.2455 70.7427C61.9417 70.8805 61.7112 70.936 61.5341 70.5934C61.3634 70.2621 61.6919 70.0484 61.6311 69.7692C61.5528 69.4081 60.7074 69.1223 60.4044 68.9548Z" fill="#110E0D"/>
<path d="M87.6084 59.2929C87.6726 59.448 87.7225 59.6092 87.7779 59.7679C87.8189 59.885 87.8657 60.001 87.8981 60.1206C87.9205 60.203 87.9166 60.2928 87.9364 60.3764C87.9744 60.5369 88.0342 60.6931 88.0614 60.8553C88.1692 61.4947 88.2733 62.1344 88.368 62.7757C88.4405 63.2685 88.4983 63.7636 88.5597 64.258C88.5933 64.5299 88.6204 64.8026 88.6515 65.0751C88.6824 65.3473 88.724 65.6188 88.7426 65.8915C88.7581 66.1186 88.7505 66.3478 88.7469 66.576C88.7422 66.8958 88.7318 67.2156 88.7231 67.5353C88.716 67.7881 88.7032 68.041 88.7017 68.2938C88.6998 68.5925 88.8295 68.8434 89.0174 69.0628C89.4345 69.55 89.8511 70.0383 90.2813 70.5137C90.5931 70.8586 90.943 71.169 91.2462 71.5206C91.9254 72.3078 92.5982 73.1013 93.2493 73.912C93.5792 74.3221 93.8529 74.7769 94.1573 75.2074C94.5167 75.7149 94.8904 76.2125 95.2426 76.7246C95.6159 77.2681 95.9838 77.8161 96.3295 78.3768C96.551 78.736 96.7248 79.1242 96.9272 79.4957C97.0796 79.776 97.246 80.049 97.401 80.3281C97.653 80.7825 97.6747 81.2671 97.6203 81.774C97.5603 82.3326 97.2749 82.7802 96.965 83.2138C96.6946 83.5919 96.406 83.9609 96.092 84.303C95.3983 85.0584 94.7017 85.8124 93.9724 86.5331C93.1878 87.308 92.3888 88.0725 91.5502 88.7881C90.8603 89.3767 90.109 89.8949 89.3739 90.4293C88.6297 90.9704 87.8738 91.4954 87.1194 92.0229C86.4208 92.5114 85.7126 92.986 85.0181 93.4806C84.0704 94.1552 83.1543 94.8693 82.384 95.75C82.0174 96.1693 81.7621 96.6577 81.5572 97.1695C81.3256 97.7471 81.1195 98.3351 80.902 98.9183C80.8473 99.0651 80.7024 99.154 80.5564 99.1078C80.2283 99.0038 80.0922 99.0093 79.8932 99.4278C79.7393 99.7516 79.6469 100.104 79.5293 100.446C79.5094 100.504 79.5014 100.566 79.4873 100.63C79.1494 100.519 78.8179 100.423 78.4951 100.304C77.0554 99.7696 75.5676 99.552 74.0375 99.6092C73.0117 99.6476 71.9865 99.6963 70.9611 99.7419C70.5335 99.7609 70.1057 99.8028 69.6782 99.7979C69.4048 99.7946 69.1204 99.76 68.862 99.6751C68.5859 99.5846 68.4481 99.3244 68.3329 99.0653C68.02 98.3606 67.9292 97.5999 67.7691 96.8569C67.7022 96.5456 67.6557 96.2302 67.6002 95.9164C67.8626 95.9599 68.1247 96.0046 68.3874 96.0459C68.4637 96.0578 68.5568 96.091 68.6162 96.0618C68.8585 95.9427 69.0969 96.0048 69.3395 96.0409C69.5306 96.0696 69.7225 96.0948 69.9149 96.1098C70.4413 96.151 70.9724 96.1551 71.4934 96.232C71.9795 96.3039 72.462 96.3388 72.9451 96.2715C73.3998 96.2081 73.8296 96.2516 74.2514 96.4296C74.3639 96.477 74.4874 96.4884 74.6139 96.4388C74.7569 96.3828 74.9079 96.3471 75.0555 96.3025C75.3347 96.2184 75.6139 96.1344 75.8934 96.0502C75.9393 96.0605 75.9942 96.0918 76.0302 96.0771C76.1694 96.0198 76.3028 95.9475 76.4384 95.8807C76.5752 95.7789 76.7024 95.8071 76.8428 95.888C77.323 96.1649 77.8073 96.4346 78.294 96.6998C78.3488 96.7295 78.4488 96.7388 78.4932 96.7079C78.536 96.6782 78.5341 96.5839 78.5533 96.5184C78.5706 96.4585 78.5841 96.3966 78.6094 96.3401C78.6345 96.2839 78.6776 96.2355 78.7043 96.1796C78.8228 95.9287 78.9362 95.6754 79.057 95.4255C79.0807 95.3764 79.1243 95.3347 79.1649 95.2962C79.2428 95.2223 79.3367 95.163 79.4034 95.0809C79.5519 94.898 79.6807 94.699 79.8313 94.5182C79.9305 94.3996 80.0542 94.3012 80.1667 94.1939C80.5259 94.0177 80.8856 93.8416 81.245 93.6652C81.236 93.7524 81.2331 93.8406 81.2172 93.9266C81.193 94.0554 81.1459 94.1811 81.1373 94.3102C81.1331 94.371 81.1823 94.4636 81.2338 94.49C81.2715 94.5092 81.386 94.4604 81.4083 94.4141C81.4949 94.2332 81.6557 94.1325 81.8166 94.0637C82.2771 93.867 82.5812 93.5058 82.8747 93.1281C82.9345 93.0506 83.0035 92.961 83.0158 92.8698C83.0351 92.7312 83.1178 92.657 83.2131 92.585C83.4092 92.4365 83.6118 92.2967 83.8058 92.1453C84.4619 91.6344 85.1232 91.129 85.7668 90.6028C86.126 90.3092 86.4183 89.9384 86.8189 89.6885C86.9408 89.6127 87.0424 89.4989 87.1391 89.39C87.615 88.8541 88.0813 88.3092 88.5611 87.777C88.9866 87.3048 89.3787 86.8067 89.7047 86.2627C89.9516 85.8502 90.1612 85.4155 90.3808 84.987C90.4277 84.8954 90.4579 84.7908 90.4753 84.6886C90.5895 84.0232 90.6984 83.3566 90.8073 82.69C90.8166 82.6344 90.813 82.5764 90.8153 82.5193C90.8153 82.5193 90.8139 82.52 90.8137 82.5198C90.8174 82.5046 90.821 82.4891 90.8247 82.4739C90.8327 82.061 90.8569 81.6475 90.8444 81.235C90.8311 80.801 90.7911 80.3674 90.7477 79.9351C90.6365 78.8316 90.3729 77.773 89.8504 76.7826C89.6486 76.3996 89.5204 75.9785 89.3383 75.5843C88.8908 74.6147 88.4828 73.6184 87.715 72.8397C87.4803 72.6017 87.2243 72.3838 86.9685 72.1679C86.6038 71.8603 86.2115 71.8462 85.7652 72.0127C85.0897 72.2643 84.3943 72.4608 83.7109 72.6921C83.3347 72.8191 82.9668 72.9715 82.5937 73.1086C82.2598 73.2311 81.915 73.3288 81.5915 73.4742C81.3363 73.5889 81.1058 73.7594 80.8643 73.9052C80.7689 73.4228 80.6522 72.9479 80.4212 72.5076C80.2685 72.2169 80.1438 71.9097 79.9741 71.6299C79.7259 71.2208 79.4697 70.8131 79.1783 70.4345C78.7793 69.9165 78.2894 69.4865 77.7856 69.066C77.2718 68.6374 76.7283 68.2735 76.1461 67.9844L64.9865 72.5078C64.9865 72.5078 59.3659 73.5393 62.2959 70.6475C65.2255 67.7557 83.3223 62.7075 83.3223 62.7075C83.5498 62.4446 83.7847 62.1881 84.0188 61.9307C84.1913 61.7411 84.3694 61.5562 84.5418 61.3664C84.9977 60.8644 85.5165 60.4372 86.0764 60.0567C86.3164 59.8937 86.5371 59.7027 86.7746 59.5357C86.9523 59.4108 87.143 59.3043 87.3268 59.1883C87.4676 59.0996 87.5559 59.1661 87.6084 59.2929Z" fill="#C19038"/>
<path d="M86.636 60.7598C86.636 60.7598 84.4312 62.1649 82.9007 64.9256C82.9007 64.9256 85.4051 65.559 87.2553 66.6083C87.2549 66.6081 87.4852 62.9074 86.636 60.7598Z" fill="#815120"/>
<path d="M52.6065 62.8061C51.9473 60.5006 52.2666 58.1054 53.7062 55.8554C53.7313 55.8161 53.75 55.7632 53.7867 55.7429C53.8937 55.6837 54.0246 55.5795 54.1153 55.6034C54.2031 55.6265 54.2921 55.7787 54.3125 55.8874C54.4163 56.4391 54.4681 57.0019 54.5926 57.5482C55.1722 60.094 56.7754 61.7266 59.2474 62.5741C60.3211 62.9422 61.4123 63.2113 62.5655 63.1604C62.6868 63.1549 62.8142 63.1594 62.9273 63.1232C63.1812 63.0419 63.2759 63.1765 63.3648 63.3735C64.2694 65.3815 63.343 67.2595 62.167 68.2477C61.8142 68.5442 61.3926 68.7823 60.9674 68.9664C60.5779 69.1349 60.1436 69.2152 59.7054 69.1202C58.1128 68.7754 56.7155 68.0437 55.4571 67.0475C54.1203 65.9894 53.2021 64.6425 52.6065 62.8061Z" fill="#F0860E"/>
<path d="M85.1369 52.5486C85.6768 54.3202 85.6661 55.8897 85.2748 57.4907C84.9555 58.7967 84.3551 59.9617 83.5839 61.0456C83.254 61.5097 82.9306 62.2724 82.8421 62.296C80.2372 63.1341 78.0267 62.0802 77.1064 60.4264C76.8862 60.031 76.7953 59.5622 76.6697 59.1202C76.6465 59.0389 76.7154 58.8686 76.7888 58.8317C78.0437 58.2015 78.9299 57.1953 79.7065 56.0799C80.5867 54.8151 81.1487 53.4492 81.0745 51.8892C81.009 50.5193 80.5467 49.274 79.9029 48.0829C79.8074 47.9064 79.6024 47.7254 79.7974 47.5081C79.996 47.287 80.2034 47.4735 80.387 47.5513C82.7867 48.5694 84.3695 50.3237 85.1369 52.5486Z" fill="#F0860E"/>
<path d="M71.8484 63.6061C71.7356 63.6478 71.6536 63.6823 71.5692 63.7092C70.3394 64.1001 69.1092 64.4888 67.8797 64.8803C67.5227 64.9939 66.9444 62.4967 66.735 61.4234C66.5877 60.6694 66.7291 57.9949 67.0168 57.8078C67.7133 57.3541 68.4605 57.1153 69.2923 57.1456C69.5078 57.1534 69.626 57.2349 69.7058 57.4192C70.0581 58.2364 70.1518 59.1591 70.3935 60.0132C70.5852 60.6906 70.8115 61.3582 71.0708 62.0132C71.1288 62.1594 71.882 63.5937 71.8484 63.6061Z" fill="#84878B"/>
<path d="M64.2121 66.892C63.8956 67.0628 63.6239 67.3175 63.3336 67.5319C63.5211 66.9956 63.7418 66.4829 63.8787 65.949C64.0989 65.0931 64.0076 64.2402 63.6598 63.4301C63.5124 63.0872 63.5172 62.8014 63.7158 62.4811C64.4 61.3764 65.2674 60.4809 66.3533 59.8262C66.342 60.5096 66.3698 61.193 66.4368 61.5193C66.657 62.589 67.281 64.951 67.5147 65.0151C67.5955 65.0368 65.496 66.2006 64.2121 66.892Z" fill="#4A474A"/>
<path d="M79.0928 62.505C78.0101 62.4595 76.9337 62.6033 75.8687 62.7776C75.3289 62.8658 74.7817 62.939 74.2458 63.0428L73.6497 63.1505C73.4107 63.1938 72.7638 63.338 72.525 63.3816C72.3434 63.4146 72.2479 63.4976 72.1123 63.352C71.9767 63.2067 71.8704 63.0177 71.7718 62.8463C71.5729 62.5002 71.4168 62.132 71.2619 61.7647C71.0404 61.2395 70.8315 60.6529 70.6708 60.1078C69.8313 57.2609 71.2322 58.1082 71.4656 58.0614C71.7973 57.9945 72.1121 57.9771 72.4504 57.966C72.8799 57.9517 73.3105 57.9713 73.7367 58.0279C74.5959 58.143 75.4292 58.4117 76.1991 58.8088C76.3095 58.8654 76.4111 59.0209 76.4362 59.1462C76.7427 60.6848 77.6481 61.7452 79.0225 62.4415C79.0371 62.449 79.0486 62.4651 79.0928 62.505Z" fill="#4A474A"/>
<path d="M70.9703 64.4294C72.5705 63.7569 74.2754 63.5416 75.9711 63.2807C77.1537 63.0989 78.3354 62.8968 79.5362 63.0603C80.4394 63.1834 81.5378 63.1503 82.4313 63.3328C83.0497 63.4594 83.7746 63.8346 83.6011 64.8973C83.4968 65.7195 82.4316 65.8794 81.8887 65.8552C79.8447 65.7635 77.83 66.0354 75.8269 66.4211C71.9365 67.17 68.2749 68.528 64.8656 70.5459C64.1138 70.9909 63.406 71.5124 62.6941 72.0213C62.4788 72.1751 62.2752 72.238 62.0174 72.2186C61.3277 72.1665 61.3675 72.1555 61.0878 71.5303C60.8546 71.0092 60.8891 70.6374 61.2955 70.2042C62.4238 69.0027 63.5659 67.812 65.0059 66.9913C66.1768 66.3237 67.3951 65.73 68.628 65.1835C69.373 64.8534 70.1868 64.6757 70.9703 64.4294Z" fill="#84878B" stroke="black" stroke-width="0.188872" stroke-miterlimit="10"/>
<path d="M77.0851 86.5249C77.2462 86.8976 77.3772 87.2832 77.5236 87.6622C77.5723 87.7884 77.526 87.8452 77.4179 87.854C77.131 87.5516 76.8519 87.2569 76.5739 86.9631C76.4068 87.1482 76.2839 87.3215 76.1259 87.4528C75.5373 87.9432 74.9445 88.4293 74.3386 88.8984C73.9716 89.1826 73.5853 89.4436 73.1941 89.6934C72.8991 89.882 72.5806 90.0341 72.2749 90.2062C71.5216 90.6298 70.7687 91.0479 69.9415 91.323C69.0451 91.6215 68.1406 91.8714 67.1959 91.9384C66.4394 91.9923 65.6983 91.9281 65.0169 91.5492C64.9767 91.527 64.9442 91.49 64.9178 91.468C64.7144 91.9538 64.5197 92.3618 64.0452 92.5367C64.0429 92.6338 64.0448 92.6722 64.0773 92.7348L64.0774 92.7351C63.4637 92.898 63.3475 92.2769 63.3443 92.2585C63.5034 92.2349 63.6352 92.1464 63.7669 92.0338C64.0402 91.8008 64.1845 91.4893 64.3385 91.1813C64.3897 91.0792 64.3813 90.9874 64.3293 90.8723C64.1918 90.5684 64.0596 90.2572 63.9747 89.936C63.9272 89.7557 63.8418 89.7211 63.6881 89.6963C63.4916 89.6647 63.2934 89.6209 63.108 89.55C62.5946 89.3539 62.1543 89.0484 61.8347 88.5946C61.6489 88.3308 61.4451 88.0673 61.3239 87.7728C61.1138 87.2613 61.4007 86.7143 61.9384 86.412C62.2695 86.2259 62.6349 86.1004 62.9867 85.951C63.7234 85.6381 64.4996 85.5121 65.293 85.4736C65.6556 85.4564 65.9374 85.6439 66.1335 85.913C66.3316 86.1847 66.4187 86.5183 66.4139 86.8627C66.4104 87.118 66.4837 87.3748 66.3807 87.6292C66.3309 87.7517 66.3266 87.8924 66.281 88.017C66.2019 88.2332 66.0691 88.4121 65.9178 88.5915C65.7391 88.8034 65.5394 88.9751 65.3191 89.1329C65.1836 89.2295 65.0463 89.3252 64.921 89.4339C64.8023 89.5366 64.7599 89.6698 64.8131 89.8283C64.8941 90.0696 64.9645 90.3144 65.0477 90.5551C65.1073 90.7286 65.1738 90.8956 65.3689 90.9754C65.9213 91.2009 66.493 91.3078 67.0862 91.2402C67.8096 91.1578 68.5416 91.1203 69.238 90.8706C69.7192 90.698 70.2208 90.574 70.687 90.3692C71.2516 90.121 71.7919 89.8168 72.3364 89.5255C73.0674 89.1348 73.7552 88.6777 74.3931 88.147C74.8146 87.7964 75.2706 87.4848 75.5858 87.0179C75.8072 86.6898 76.0591 86.382 76.2894 86.0597C76.4435 85.8442 76.5543 85.833 76.7538 85.9967C76.9268 86.1389 77.0036 86.3363 77.0851 86.5249Z" fill="#110E0D"/>
<path d="M72.7375 67.1079C72.7862 67.1122 72.8348 67.1166 72.8835 67.1209C72.8746 67.101 72.8658 67.0811 72.857 67.0612C72.8172 67.0768 72.7774 67.0923 72.7375 67.1079Z" fill="#110E0D"/>
<path d="M82.0261 65.7089C82.0363 65.7138 82.0469 65.7158 82.058 65.7142C82.0474 65.7121 82.0366 65.7106 82.0261 65.7089Z" fill="#110E0D"/>
<path d="M67.5843 95.8253C67.498 95.5811 67.3086 95.478 67.0744 95.3882C66.5727 95.1961 66.1286 94.9012 65.7208 94.5479C65.158 94.0603 64.6123 93.5597 64.2016 92.9293C64.0504 92.6973 64.0421 92.7018 64.0465 92.5368C64.5208 92.3617 64.7157 91.954 64.919 91.4679C64.9455 91.4901 64.9778 91.5268 65.0182 91.5493C65.6999 91.9281 66.4408 91.992 67.1972 91.9385C68.1419 91.8715 69.0462 91.6214 69.9428 91.3231C70.7698 91.0477 71.5227 90.6296 72.2761 90.206C72.5819 90.0342 72.9002 89.8818 73.1954 89.6935C73.5869 89.4436 73.973 89.1823 74.3399 88.8985C74.9458 88.4294 75.5386 87.9433 76.1272 87.4529C76.285 87.3213 76.4081 87.1483 76.5749 86.9634C76.8532 87.257 77.1323 87.5517 77.4189 87.8543C77.527 87.8455 77.5732 87.7884 77.5246 87.6625C77.3782 87.2835 77.2473 86.8979 77.0861 86.5252C77.0046 86.3365 76.9279 86.1391 76.7549 85.997C76.5553 85.8333 76.4445 85.8445 76.2904 86.06C76.0602 86.3823 75.8083 86.6901 75.5868 87.0182C75.2717 87.4851 74.8159 87.7965 74.3941 88.1473C73.7563 88.678 73.0685 89.1351 72.3377 89.5256C71.793 89.8166 71.2527 90.1213 70.6883 90.3693C70.2218 90.5743 69.7205 90.6981 69.2393 90.8707C68.5429 91.1204 67.8112 91.1578 67.0876 91.2403C66.4943 91.3079 65.9228 91.2009 65.3705 90.9754C65.1751 90.8957 65.1089 90.7286 65.049 90.5552C64.9661 90.3144 64.8957 90.0696 64.8147 89.8283C64.7615 89.6698 64.8039 89.5366 64.9223 89.434C65.0478 89.3252 65.1849 89.2296 65.3204 89.133C65.5407 88.9753 65.7407 88.8034 65.9192 88.5919C66.0708 88.4124 66.2033 88.2336 66.2828 88.0172C66.3283 87.8926 66.3326 87.752 66.3824 87.6295C66.4854 87.375 66.4122 87.1182 66.4156 86.863C66.4204 86.5185 66.3334 86.1853 66.1353 85.9136C65.9392 85.6444 65.6574 85.4566 65.2948 85.4742C64.5013 85.5124 63.7252 85.6386 62.9885 85.9513C62.6369 86.1005 62.2712 86.2262 61.9401 86.4123C61.4024 86.7146 61.1158 87.2615 61.3259 87.7729C61.4468 88.0675 61.651 88.3309 61.8367 88.5947C62.1563 89.0485 62.5964 89.3538 63.11 89.5501C63.2953 89.6207 63.4937 89.6648 63.6901 89.6964C63.8438 89.7213 63.9292 89.7558 63.9767 89.9361C64.0616 90.2574 64.1939 90.5685 64.3313 90.8724C64.3832 90.9873 64.3916 91.0791 64.3405 91.1814C64.1865 91.4894 64.0419 91.8011 63.7686 92.0341C63.5931 92.1836 63.4179 92.2908 63.1776 92.2588C62.2684 92.1373 61.4608 91.7958 60.8239 91.1232C60.5229 90.805 60.3259 90.4132 60.1141 90.0257C59.8396 89.5234 59.7809 88.9911 59.736 88.4576C59.7014 88.0466 59.7546 87.62 59.8248 87.2099C59.9596 86.4229 60.2946 85.7046 60.6772 85.0091C60.8712 84.6563 61.0694 84.3056 61.2658 83.9541C61.3119 83.9315 61.3627 83.8152 61.4104 83.7981C61.7997 83.6597 62.1833 83.6116 62.5732 83.4746C62.7962 83.3999 63.0199 83.3266 63.2424 83.25C63.8181 83.0519 64.3768 82.8193 64.8902 82.4838C65.1789 82.2952 65.4696 82.0936 65.7877 81.9712C66.0888 81.8556 66.4274 81.78 66.7479 81.7847C67.5843 81.7973 68.4204 81.8567 69.2555 81.9114C69.636 81.9362 70.0132 82.0147 70.3936 82.0309C70.8634 82.051 71.3359 82.0445 71.8061 82.025C72.2175 82.0082 72.6281 81.9621 73.0379 81.9186C73.2032 81.9011 73.366 81.8574 73.5295 81.8235C73.9491 81.7368 74.3742 81.6698 74.7867 81.5568C75.386 81.3926 75.9368 81.106 76.4673 80.7872C76.9331 80.5073 77.3983 80.2225 77.8408 79.9078C78.3911 79.5163 78.8047 78.9836 79.2389 78.4727C79.7313 77.8934 80.1344 77.2492 80.4583 76.5751C80.8089 75.8459 80.9433 75.0404 80.8779 74.2175C80.8695 74.1137 80.8699 74.0091 80.866 73.9052C81.1075 73.7595 81.338 73.5889 81.5932 73.4743C81.9167 73.3288 82.2612 73.2313 82.5954 73.1086C82.9685 72.9716 83.3365 72.8195 83.7126 72.6921C84.3957 72.461 85.0916 72.2646 85.7669 72.0127C86.2132 71.8463 86.6055 71.8603 86.9702 72.168C87.226 72.3839 87.482 72.6018 87.7167 72.8398C88.4846 73.6187 88.8925 74.6147 89.34 75.5843C89.5221 75.9786 89.6503 76.3996 89.8521 76.7827C90.3746 77.773 90.6379 78.8318 90.749 79.935C90.7924 80.3673 90.8325 80.8012 90.8458 81.2351C90.8586 81.6475 90.834 82.0609 90.8259 82.4738C90.8224 82.4893 90.8187 82.5045 90.8151 82.52L90.8167 82.5195C90.7576 82.569 90.6926 82.6129 90.6404 82.6684C89.9444 83.4122 89.2696 84.1768 88.5505 84.8974C87.8614 85.5879 87.141 86.2496 86.4082 86.894C85.6138 87.5926 84.8029 88.2744 83.9734 88.9306C83.2838 89.4761 82.5655 89.9864 81.8436 90.4886C81.3014 90.8659 80.7422 91.221 80.1736 91.5573C79.7149 91.8284 79.2333 92.0616 78.7572 92.3026C78.0391 92.6662 77.3222 93.033 76.5946 93.3769C75.9862 93.6648 75.3644 93.9246 74.746 94.191C74.5357 94.2816 74.3195 94.3592 74.1032 94.4355C73.7448 94.5618 73.3848 94.6825 73.0252 94.8051C72.6311 94.9393 72.2426 95.0949 71.8413 95.2027C70.8146 95.4789 69.7629 95.6136 68.7061 95.7114C68.3313 95.7459 67.958 95.7871 67.5843 95.8253ZM66.8023 93.9041C66.8096 93.8819 66.8164 93.8595 66.8236 93.8373C66.6963 93.6464 66.5734 93.4523 66.4407 93.2648C66.2091 92.937 66.2744 92.7755 66.6687 92.6982C66.9291 92.6471 67.1863 92.5803 67.4468 92.5309C67.4972 92.5213 67.5646 92.5479 67.6112 92.5778C67.7546 92.6703 67.8894 92.7766 68.0332 92.8678C68.0717 92.8923 68.1316 92.8825 68.1663 92.8867C68.1007 92.6324 68.0396 92.3967 67.979 92.161C67.9459 92.0316 67.8683 91.9935 67.7379 92.0176C67.1972 92.1175 66.7035 92.3838 66.1541 92.4553C65.7484 92.5084 65.346 92.5851 64.9412 92.6448C64.7715 92.6698 64.6053 92.8368 64.6189 92.9879C64.6444 93.2737 65.0141 93.6805 65.3012 93.7311C65.3354 93.7369 65.3889 93.7159 65.4094 93.6892C65.4252 93.6687 65.4115 93.615 65.3961 93.5833C65.3366 93.461 65.269 93.3427 65.2093 93.2206C65.1717 93.1443 65.1781 93.0687 65.2737 93.0475C65.4006 93.0192 65.5197 93.0127 65.6323 93.1209C65.9107 93.3881 66.1691 93.685 66.5354 93.841C66.6181 93.8772 66.713 93.8842 66.8023 93.9041Z" fill="white"/>
<path d="M90.6382 82.6671C89.9425 83.4108 89.2674 84.1755 88.5485 84.8959C87.8591 85.5865 87.1391 86.2481 86.4063 86.8925C85.612 87.5914 84.801 88.2729 83.9712 88.9293C83.2818 89.4744 82.5635 89.9846 81.8416 90.4871C81.2993 90.8641 80.7402 91.2196 80.1716 91.5558C79.7127 91.827 79.2311 92.0603 78.7552 92.3009C78.037 92.6644 77.3201 93.0312 76.5927 93.3755C75.9841 93.6631 75.3624 93.9231 74.744 94.1896C74.5335 94.2802 74.3175 94.3578 74.1013 94.4341C73.7429 94.5603 73.3827 94.6808 73.0232 94.8033C72.6291 94.9378 72.2405 95.0931 71.8392 95.201C70.8126 95.4772 69.7608 95.6119 68.7042 95.7099C68.3301 95.7445 67.9565 95.7858 67.5828 95.824C67.5884 95.8543 67.5937 95.8847 67.5992 95.915C67.8617 95.9585 68.1237 96.0032 68.3865 96.0444C68.4628 96.0564 68.5559 96.0896 68.6152 96.0604C68.8576 95.9412 69.096 96.0034 69.3386 96.0395C69.5297 96.0682 69.7215 96.0934 69.9139 96.1084C70.4404 96.1496 70.9715 96.1537 71.4925 96.2306C71.9786 96.3024 72.4611 96.3374 72.9441 96.2701C73.3988 96.2067 73.8287 96.2502 74.2505 96.4282C74.363 96.4756 74.4865 96.487 74.613 96.4374C74.756 96.3814 74.907 96.3456 75.0546 96.301C75.3338 96.217 75.6887 96.2542 75.9679 96.1702C76.1075 96.1022 76.2454 96.0297 76.3884 95.9701C76.4201 95.9568 76.471 95.9892 76.513 96.0007C76.6499 95.8985 76.7014 95.8057 76.8419 95.8866C77.3945 96.2843 77.9765 96.6203 78.6157 96.855C78.5535 96.6919 78.5901 96.506 78.6636 96.3478C78.7371 96.1895 78.8446 96.05 78.9333 95.8997C79.0679 95.6699 79.1622 95.4092 79.355 95.2258C79.4548 95.1308 79.5758 95.0618 79.689 94.984C80.0199 94.7565 80.2914 94.4436 80.4705 94.0841C80.4772 94.1314 80.484 94.1783 80.4906 94.2256C80.7153 94.0829 80.9399 93.9407 81.1646 93.7979C81.0805 94.0961 81.0064 94.4497 81.2037 94.6887C81.2593 94.6217 81.3059 94.5472 81.342 94.4677C81.355 94.4394 81.3666 94.4105 81.3766 94.3812C81.3825 94.398 81.3883 94.4145 81.394 94.4309C81.3983 94.4425 81.4024 94.4542 81.4065 94.4659C81.4557 94.3303 81.6083 94.2695 81.7382 94.207C82.0468 94.0584 82.301 93.8103 82.5366 93.531C82.6554 93.4037 82.7653 93.2664 82.8737 93.1267C82.9124 93.0765 82.9549 93.0213 82.9833 92.9639C83.1562 92.7419 83.3321 92.5278 83.5264 92.3524C83.5267 92.3522 83.5268 92.3518 83.5271 92.3517C83.6206 92.2837 83.7137 92.215 83.8049 92.1439C84.461 91.633 85.1223 91.1275 85.7659 90.6014C86.125 90.3077 86.4173 89.937 86.8179 89.6871C86.9399 89.6113 87.0415 89.4975 87.1381 89.3886C87.6141 88.8526 88.0803 88.3078 88.5602 87.7755C88.9856 87.3034 89.3777 86.8053 89.7038 86.2613C89.9507 85.8488 90.1602 85.4141 90.3799 84.9856C90.4268 84.894 90.457 84.7893 90.4744 84.6872C90.5885 84.0218 90.6975 83.3552 90.8064 82.6885C90.8157 82.6329 90.8121 82.5749 90.8143 82.5179C90.7553 82.5674 90.6903 82.6113 90.6382 82.6671Z" fill="#DDDDDC"/>
<path d="M55.5638 80.57C55.6706 80.4002 55.7775 80.2299 55.8843 80.0601C55.9196 80.0386 55.9598 80.0225 55.9894 79.9951C56.2336 79.7693 56.4536 79.5104 56.7228 79.3209C57.1898 78.9923 57.6709 78.6767 58.1753 78.4114C58.6832 78.144 59.2195 77.9243 59.7574 77.7215C60.2026 77.5534 60.6621 77.4092 61.127 77.3098C61.7141 77.1841 62.3119 77.1036 62.9078 77.0231C63.37 76.9605 63.8373 76.9352 64.3003 76.8779C64.4622 76.8578 64.6189 76.7918 64.7779 76.7468C64.776 76.7189 64.7743 76.6913 64.7721 76.6636C64.6275 76.6451 64.4818 76.6051 64.3387 76.6123C64.0328 76.6277 63.7272 76.6616 63.4232 76.6992C62.9406 76.7589 62.4581 76.8193 61.9781 76.8963C61.5893 76.9586 61.2026 77.0363 60.8192 77.1251C60.4964 77.1998 60.1768 77.291 59.8614 77.3927C59.616 77.4718 59.3766 77.5716 59.1392 77.6732C58.7369 77.8455 58.3294 78.0095 57.9405 78.2086C57.6053 78.3802 57.2861 78.5858 56.9725 78.7952C56.7461 78.9465 56.537 79.1247 56.3269 79.2988C56.1688 79.4298 56.0214 79.5731 55.8631 79.7165C55.8535 79.6563 55.8458 79.6074 55.838 79.5585C55.9992 79.2874 56.1602 79.0161 56.3214 78.745C56.6037 78.5747 56.8851 78.4024 57.1692 78.2343C57.3078 78.1524 57.4489 78.0734 57.5929 78.0018C57.836 77.8805 58.082 77.7652 58.3269 77.6483C58.5601 77.5368 58.7901 77.4175 59.0283 77.3173C59.2998 77.203 59.578 77.1043 59.8543 77.0017C60.0443 76.9314 60.2337 76.8562 60.4284 76.8009C60.677 76.7303 60.9301 76.6758 61.1822 76.6186C61.4198 76.5647 61.6564 76.4991 61.8972 76.4693C62.3506 76.4132 62.8062 76.3656 63.2625 76.3401C63.7085 76.3151 64.1562 76.3202 64.603 76.318C64.6569 76.3176 64.7151 76.347 64.7642 76.375C64.9587 76.4867 65.0824 76.4782 65.2508 76.3474C65.5812 76.0899 65.9017 75.8176 66.2498 75.5864C66.6322 75.3326 67.0324 75.1008 67.4419 74.8929C67.758 74.7325 68.0948 74.6082 68.4321 74.496C68.8291 74.3639 69.2349 74.2573 69.6393 74.1486C69.8775 74.0846 70.1204 74.0373 70.3611 73.9826C70.7671 74.0057 71.174 74.0166 71.5785 74.0552C72.065 74.1015 72.5475 74.1867 73.0344 74.2262C73.4847 74.2627 73.9382 74.2741 74.3905 74.273C74.8941 74.2718 75.3802 74.1591 75.8456 73.9666C76.0313 73.8897 76.2145 73.8263 76.4204 73.8564C76.5095 73.8694 76.5559 73.9026 76.5406 73.997C76.5215 74.1155 76.5023 74.2337 76.483 74.3519C76.4015 74.3858 76.3196 74.4185 76.2384 74.4532C75.9744 74.567 75.7096 74.6794 75.4475 74.7971C75.3044 74.8612 75.1709 74.9498 75.0238 75.0005C74.632 75.1359 74.2376 75.266 73.8392 75.3805C73.607 75.4472 73.3659 75.4884 73.1266 75.5254C72.855 75.5674 72.5804 75.5922 72.3074 75.6243C71.9835 75.6623 71.6589 75.6961 71.3359 75.7401C71.1317 75.7678 70.9297 75.8106 70.7268 75.8465C70.5307 75.8706 70.3346 75.895 70.1385 75.9191C70.0412 75.9207 69.9425 75.9132 69.8464 75.9255C69.5633 75.9615 69.2813 76.0073 68.9984 76.0457C68.7159 76.0842 68.4309 76.1065 68.1511 76.1581C67.8019 76.2224 67.4542 76.298 67.1114 76.3898C66.8156 76.4687 66.5259 76.5727 66.2365 76.6738C66.0227 76.7485 65.8139 76.8376 65.6016 76.9176C65.4508 76.9743 65.2964 77.0208 65.1478 77.0818C65.0173 77.1354 64.8837 77.1899 64.768 77.2682C64.6352 77.3582 64.5989 77.5049 64.5966 77.6643C64.5944 77.8042 64.5987 77.9803 64.4261 78.0142C64.0905 78.0802 63.7489 78.1144 63.4092 78.1603C63.0504 78.2087 62.6915 78.2533 62.3328 78.3034C61.9941 78.3506 61.6545 78.395 61.3176 78.4543C60.9365 78.5215 60.5536 78.5879 60.1797 78.685C59.754 78.7954 59.3113 78.8582 58.9182 79.0758C58.7807 79.1105 58.6395 79.1347 58.5066 79.1821C58.1571 79.3071 57.8023 79.4228 57.4659 79.5785C57.1101 79.7432 56.7651 79.9359 56.4321 80.143C56.2269 80.2704 56.0541 80.4495 55.864 80.6025C55.7045 80.7314 55.6999 80.7291 55.5638 80.57Z" fill="#4D7E3D"/>
<path d="M66.1586 70.8591C66.1379 71.0452 66.1096 71.2308 66.0734 71.4145C65.9654 71.9621 65.8857 72.5123 65.8923 73.0719C65.8936 73.1996 65.8539 73.2647 65.7112 73.2924C65.3017 73.3724 64.896 73.4729 64.4895 73.5689C64.2573 73.6236 64.0266 73.6842 63.7957 73.7439C63.4503 73.8327 63.103 73.9154 62.7606 74.0151C62.472 74.0993 62.1879 74.2005 61.9039 74.3002C61.6246 74.3988 61.3407 74.489 61.0726 74.6122C60.7303 74.7694 60.4022 74.9566 60.0676 75.13C59.7609 75.2889 59.4534 75.446 59.1473 75.606C58.8556 75.7582 58.7949 75.7817 58.6381 75.4976C58.6395 75.4744 58.6413 75.451 58.6429 75.4273C58.6349 75.3483 58.6269 75.2694 58.6189 75.1904C58.6138 75.1718 58.6091 75.153 58.6044 75.1343C58.6064 75.1192 58.6086 75.104 58.6106 75.089C58.6434 74.8312 58.6611 74.5706 58.7123 74.3166C58.7689 74.0367 58.8448 73.7595 58.9315 73.4872C59.132 72.8597 59.5395 72.3621 59.9675 71.8795C59.9768 71.8735 59.9858 71.8676 59.9949 71.862C60.014 71.8543 60.033 71.8466 60.052 71.8389C60.2084 71.7526 60.3649 71.6664 60.5213 71.5801L60.5504 71.5657C60.5858 71.5351 60.6182 71.4992 60.6573 71.4745C61.1183 71.1858 61.637 71.0501 62.1573 70.9242C62.3878 70.8682 62.6244 70.8371 62.8578 70.7923C63.1812 70.7302 63.5031 70.6542 63.8287 70.6075C64.0324 70.5783 64.2429 70.5822 64.4494 70.5895C64.7738 70.6008 65.099 70.6197 65.4222 70.6502C65.6424 70.6711 65.8615 70.7137 66.0791 70.7566C66.1126 70.7632 66.1619 70.8269 66.1586 70.8591Z" fill="#4D7E3D"/>
<path d="M56.5757 77.9982C56.8223 77.7236 57.0619 77.442 57.3176 77.1756C57.7404 76.735 58.2025 76.3389 58.7193 76.0101C58.9995 75.8949 59.2879 75.7968 59.5578 75.6608C59.9779 75.4494 60.3807 75.204 60.799 74.9889C61.0899 74.8393 61.3864 74.6925 61.6943 74.5858C62.2268 74.401 62.7692 74.2431 63.3102 74.0847C63.6328 73.9903 63.9593 73.9074 64.2873 73.8346C64.7887 73.723 65.2929 73.6227 65.7967 73.5222C65.8895 73.5038 65.9865 73.5073 66.1023 73.4992C65.8642 74.0969 65.4542 74.5455 65.1281 75.0463C64.9561 75.3105 64.7795 75.5719 64.6189 75.8428C64.5371 75.9808 64.4638 76.1006 64.2756 76.0786C64.1625 76.0652 64.0469 76.0612 63.9329 76.0652C63.5694 76.0779 63.2043 76.0806 62.8429 76.1173C62.3588 76.1668 61.8748 76.2286 61.3964 76.3157C61.0615 76.3768 60.7316 76.4748 60.4074 76.5816C59.8658 76.76 59.3248 76.9426 58.7953 77.1532C58.4358 77.2962 58.0919 77.4813 57.7493 77.6633C57.3884 77.8552 57.0384 78.0676 56.6812 78.267C56.637 78.2919 56.5794 78.2927 56.5277 78.3047C56.5117 78.2881 56.4958 78.2717 56.4798 78.2551C56.5121 78.1694 56.5437 78.0837 56.5757 77.9982Z" fill="#4D7E3D"/>
<path d="M66.8011 93.9022C66.7117 93.8823 66.6167 93.8751 66.5339 93.84C66.1676 93.684 65.9092 93.3871 65.6307 93.1199C65.5182 93.0117 65.3991 93.0182 65.2722 93.0465C65.1766 93.0677 65.1705 93.1431 65.2078 93.2195C65.2678 93.3416 65.3354 93.4598 65.3945 93.5823C65.41 93.614 65.4237 93.6676 65.4078 93.6882C65.3871 93.715 65.3336 93.736 65.2996 93.73C65.0126 93.6795 64.6429 93.2727 64.6174 92.9869C64.6041 92.8356 64.77 92.6687 64.9397 92.6438C65.3445 92.5841 65.747 92.5069 66.1526 92.4542C66.702 92.3827 67.1956 92.1161 67.7364 92.0166C67.8668 91.9925 67.9443 92.0302 67.9775 92.16C68.0383 92.3959 68.0993 92.6317 68.1648 92.8856C68.13 92.8815 68.0702 92.8912 68.0317 92.8668C67.8877 92.7753 67.7529 92.669 67.6096 92.5768C67.5631 92.5468 67.496 92.5201 67.4453 92.5298C67.1848 92.5793 66.9276 92.646 66.6672 92.6972C66.2728 92.7745 66.2072 92.9358 66.4392 93.2637C66.5717 93.451 66.6946 93.6451 66.8221 93.8362C66.8153 93.8579 66.8083 93.88 66.8011 93.9022Z" fill="#110E0D"/>
<path d="M67.2037 74.7847C66.8717 74.9766 66.543 75.1739 66.2173 75.3766C65.8699 75.5927 65.5308 75.8229 65.1803 76.0342C65.1164 76.0726 64.9811 76.0847 64.9405 76.0455C64.8943 76.0006 64.9149 75.8845 64.9119 75.7992C64.9111 75.775 64.9254 75.7486 64.9374 75.7254C65.1457 75.3151 65.4967 75.0474 65.8791 74.8238C66.125 74.68 66.3952 74.5772 66.6561 74.4591C66.9637 74.3198 67.27 74.178 67.582 74.0488C67.8168 73.9513 68.0582 73.8696 68.2984 73.7856C68.5824 73.6865 68.866 73.5859 69.1542 73.5002C69.2671 73.4665 69.3924 73.478 69.5099 73.4569C69.7939 73.4059 70.0769 73.3478 70.3604 73.2929C70.4947 73.2866 70.6284 73.2798 70.7629 73.2738C71.4112 73.2441 72.0569 73.1986 72.7012 73.3552C73.2628 73.4918 73.8354 73.5814 74.4187 73.5348C74.548 73.5247 74.6781 73.5176 74.8055 73.4968C75.0097 73.4634 75.2135 73.4243 75.4148 73.3773C75.4576 73.3672 75.4901 73.3124 75.5272 73.2781C75.5222 73.2637 75.5171 73.2494 75.5124 73.2349C75.4379 73.2237 75.3622 73.1974 75.2893 73.2034C74.917 73.2339 74.5459 73.2944 74.1734 73.3018C73.863 73.3082 73.5494 73.2701 73.2407 73.2261C72.8749 73.1742 72.5151 73.0786 72.1489 73.0336C71.9036 73.0034 71.6506 73.0157 71.4025 73.0322C71.0891 73.0531 70.7775 73.0974 70.465 73.1315C70.3108 73.1523 70.1562 73.1688 70.0027 73.1945C69.6663 73.2511 69.3214 73.2816 68.9969 73.3791C68.4564 73.5414 67.9279 73.7442 67.3973 73.9378C67.0236 74.0741 66.6549 74.2234 66.2838 74.3665C66.1437 74.4207 66.0032 74.4734 65.8228 74.5424C66.0691 74.0029 66.357 73.5461 66.7088 73.1345C66.9609 72.8392 67.232 72.5571 67.5193 72.2964C67.849 71.9974 68.2036 71.725 68.5536 71.449C68.691 71.3406 68.8451 71.254 68.9918 71.1572C68.9686 71.1107 68.9452 71.0643 68.9221 71.0178C68.8843 71.0359 68.8465 71.054 68.8088 71.0721C68.7642 71.0977 68.7194 71.1235 68.675 71.1495C68.4306 71.3147 68.1835 71.4759 67.9422 71.6455C67.5114 71.9484 67.1269 72.3035 66.7722 72.6923C66.6396 72.8377 66.501 72.9783 66.3566 73.1121C66.2683 73.194 66.1876 73.149 66.1788 73.0444C66.155 72.7599 66.126 72.4726 66.1421 72.189C66.1575 71.9173 66.2228 71.6478 66.2741 71.3794C66.3093 71.1956 66.3432 71.0093 66.4044 70.8333C66.5485 70.4184 66.857 70.1205 67.1553 69.8153C67.3538 69.6121 67.5385 69.3954 67.7294 69.1848C67.6092 69.175 67.529 69.2321 67.4602 69.3279C67.2774 69.5823 67.0639 69.8091 66.8148 70.0008C66.7313 70.1067 66.654 70.2183 66.563 70.3174C66.3769 70.52 66.1485 70.6044 65.874 70.5346C65.6554 70.5086 65.4365 70.4843 65.2184 70.4563C65.1583 70.4486 65.0992 70.4309 65.0395 70.4177C64.9835 70.4259 64.9274 70.4418 64.8713 70.4413C64.5602 70.4385 64.2478 70.4114 63.9382 70.4308C63.5172 70.4573 63.0979 70.5169 62.6781 70.565C62.1725 70.6228 61.685 70.7461 61.2257 70.9707C61.2022 70.9856 61.1788 71 61.1552 71.0149C61.141 71.0336 61.1266 71.052 61.1121 71.0708C61.0884 71.0939 61.0647 71.1169 61.041 71.1399C60.9564 71.182 60.8719 71.2241 60.7874 71.2664C60.6418 71.3504 60.4961 71.4342 60.3505 71.5182C60.2518 71.5792 60.1535 71.6401 60.0549 71.7014C60.054 71.7476 60.053 71.7938 60.0521 71.84C60.2085 71.7537 60.365 71.6674 60.5216 71.5815C60.5311 71.5767 60.5406 71.5717 60.5502 71.5669C60.5856 71.5363 60.618 71.5004 60.6575 71.4759C61.1186 71.1871 61.6369 71.0516 62.1573 70.9253C62.3879 70.8693 62.6245 70.8381 62.8578 70.7934C63.1815 70.7316 63.5032 70.6552 63.8287 70.6086C64.0325 70.5793 64.2427 70.5834 64.4495 70.5906C64.7739 70.6018 65.0987 70.6207 65.422 70.6515C65.6425 70.6722 65.8614 70.7149 66.0789 70.7578C66.1124 70.7644 66.1617 70.8281 66.1584 70.8603C66.138 71.0463 66.1095 71.232 66.0732 71.4157C65.9653 71.9629 65.8858 72.5134 65.892 73.0728C65.8933 73.2005 65.8536 73.2656 65.7109 73.2933C65.3013 73.3733 64.8957 73.4738 64.4892 73.5698C64.257 73.6245 64.0264 73.6854 63.7954 73.7448C63.45 73.8336 63.1027 73.9164 62.7603 74.016C62.4716 74.1002 62.1875 74.2011 61.9036 74.3012C61.6242 74.3997 61.3404 74.4899 61.0722 74.6131C60.7302 74.7702 60.4017 74.9572 60.0673 75.1309C59.7606 75.2898 59.4531 75.447 59.147 75.607C58.8554 75.7594 58.7946 75.7826 58.6378 75.4985C58.6537 75.5757 58.6722 75.6526 58.6844 75.7302C58.6989 75.8229 58.7602 76.0641 58.7714 76.1574C59.0851 75.9518 59.2875 75.7962 59.5571 75.6603C59.9772 75.4489 60.3801 75.2035 60.7983 74.9884C61.0892 74.8388 61.3857 74.692 61.6937 74.5853C62.2262 74.4005 62.7685 74.2426 63.3096 74.0842C63.6321 73.9898 63.9586 73.9069 64.2867 73.8341C64.7881 73.7225 65.2922 73.6222 65.796 73.5217C65.8888 73.5033 65.9858 73.5067 66.1017 73.4987C65.8635 74.0964 65.4535 74.545 65.1274 75.0458C64.9554 75.31 64.7789 75.5714 64.6183 75.8422C64.5365 75.9803 64.4632 76.1001 64.275 76.078C64.1618 76.0647 64.0463 76.0607 63.9322 76.0647C63.5687 76.0774 63.2037 76.0801 62.8422 76.1168C62.3581 76.1663 61.8741 76.2281 61.3957 76.3152C61.0608 76.3763 60.7309 76.4743 60.4068 76.5811C59.8651 76.7595 59.3242 76.9421 58.7947 77.1527C58.4351 77.2957 58.0913 77.4808 57.7487 77.6628C57.3877 77.8547 57.0377 78.0671 56.6806 78.2665C56.6363 78.2914 56.5788 78.2922 56.5271 78.3042C56.5366 78.4725 56.4679 78.603 56.3361 78.7041C56.3259 78.7119 56.3256 78.7318 56.3206 78.7465C56.603 78.5762 56.8843 78.4039 57.1685 78.2359C57.307 78.1539 57.4481 78.075 57.5921 78.0033C57.8352 77.8821 58.0812 77.7667 58.3262 77.6498C58.5594 77.5384 58.7894 77.419 59.0275 77.3189C59.299 77.2046 59.5772 77.1059 59.8535 77.0033C60.0436 76.933 60.2329 76.8578 60.4276 76.8024C60.6762 76.7318 60.9293 76.6773 61.1814 76.6201C61.419 76.5663 61.6557 76.5006 61.8965 76.4708C62.3499 76.4148 62.8054 76.3671 63.2617 76.3416C63.7077 76.3166 64.1554 76.3218 64.6022 76.3196C64.6561 76.3191 64.7144 76.3485 64.7634 76.3765C64.9579 76.4883 65.0817 76.4798 65.25 76.3489C65.5804 76.0914 65.9009 75.8191 66.249 75.588C66.6315 75.3341 67.0316 75.1024 67.4411 74.8944C67.7572 74.734 68.0941 74.6097 68.4313 74.4975C68.8283 74.3654 69.2341 74.2589 69.6385 74.1502C69.877 74.0861 70.1196 74.0388 70.3603 73.9841C70.3383 73.9399 70.3163 73.8956 70.2944 73.8517C69.8776 73.8597 69.4713 73.9299 69.067 74.034C68.4124 74.2028 67.7891 74.4461 67.2037 74.7847Z" fill="#110E0D"/>
<path d="M56.7229 79.3213C57.1899 78.9927 57.671 78.6771 58.1754 78.4118C58.6833 78.1444 59.2195 77.9248 59.7574 77.7219C60.2026 77.5539 60.6622 77.4097 61.1271 77.3103C61.7142 77.1845 62.312 77.1041 62.9079 77.0235C63.3701 76.961 63.8374 76.9356 64.3004 76.8783C64.4623 76.8582 64.619 76.7922 64.778 76.7472C64.7761 76.7193 64.7743 76.6917 64.7721 76.664C64.6276 76.6456 64.4818 76.6056 64.3388 76.6127C64.0329 76.6281 63.7273 76.662 63.4233 76.6997C62.9407 76.7593 62.4581 76.8197 61.9782 76.8967C61.5894 76.959 61.2027 77.0367 60.8193 77.1255C60.4965 77.2003 60.1769 77.2914 59.8615 77.3931C59.6161 77.4723 59.3767 77.572 59.1392 77.6736C58.737 77.8459 58.3295 78.0099 57.9405 78.209C57.6054 78.3807 57.2861 78.5862 56.9726 78.7956C56.7462 78.9469 56.5371 79.1251 56.327 79.2993C56.1689 79.4303 56.0215 79.5736 55.8632 79.717C55.8536 79.6567 55.8459 79.6078 55.8381 79.559C55.8323 79.6343 55.8154 79.7105 55.8232 79.7843C55.833 79.8775 55.8631 79.9684 55.8846 80.0604C55.92 80.0389 55.9602 80.0228 55.9898 79.9954C56.2332 79.7695 56.4535 79.5105 56.7229 79.3213Z" fill="#110E0D"/>
<path d="M76.3344 73.5936C76.1288 73.6474 75.931 73.7296 75.7256 73.784C75.3964 73.8714 75.0676 73.9703 74.7319 74.0198C74.4206 74.0661 74.1003 74.0682 73.7845 74.0632C73.49 74.0585 73.1943 74.0309 72.902 73.9917C72.5932 73.9505 72.29 73.8577 71.9809 73.8349C71.5065 73.7999 71.0292 73.8024 70.5533 73.797C70.4681 73.7961 70.3824 73.8338 70.2971 73.8537C70.3191 73.898 70.3411 73.9422 70.363 73.9862C70.7689 74.0093 71.1759 74.0202 71.5804 74.0588C72.0668 74.1051 72.5494 74.1903 73.0362 74.2298C73.4865 74.2663 73.9401 74.2777 74.3924 74.2766C74.896 74.2754 75.382 74.1627 75.8474 73.9702C76.0331 73.8933 76.2164 73.8299 76.4223 73.86C76.5114 73.873 76.5578 73.9062 76.5425 74.0006C76.5234 74.1191 76.5041 74.2373 76.4849 74.3555C76.4033 74.3894 76.3215 74.4221 76.2403 74.4568C75.9762 74.5706 75.7115 74.6829 75.4494 74.8007C75.3062 74.8648 75.1727 74.9534 75.0257 75.0041C74.6339 75.1395 74.2394 75.2696 73.8411 75.3841C73.6088 75.4508 73.3677 75.4919 73.1284 75.529C72.8568 75.571 72.5822 75.5958 72.3092 75.6279C71.9853 75.6659 71.6608 75.6997 71.3377 75.7437C71.1336 75.7714 70.9316 75.8142 70.7287 75.8501C70.5325 75.8742 70.3365 75.8986 70.1403 75.9227C70.0431 75.9243 69.9444 75.9168 69.8482 75.9291C69.5652 75.9651 69.2831 76.0109 69.0002 76.0493C68.7177 76.0878 68.4327 76.1101 68.1529 76.1617C67.8038 76.226 67.4561 76.3016 67.1132 76.3934C66.8174 76.4723 66.5278 76.5763 66.2384 76.6774C66.0245 76.7521 65.8157 76.8412 65.6034 76.9212C65.4527 76.9779 65.2983 77.0244 65.1496 77.0853C65.0192 77.139 64.8856 77.1935 64.7699 77.2718C64.6372 77.362 64.6007 77.5085 64.5984 77.6679C64.5963 77.8078 64.6006 77.9839 64.4279 78.0178C64.0923 78.0838 63.7507 78.118 63.4111 78.1639C63.0523 78.2123 62.6933 78.2569 62.3347 78.307C61.996 78.3541 61.6563 78.3986 61.3195 78.4579C60.9384 78.5251 60.5555 78.5915 60.1815 78.6885C59.7559 78.799 59.3131 78.8617 58.9198 79.0796C58.7823 79.1142 58.6411 79.1384 58.5082 79.1858C58.1587 79.3108 57.8038 79.4265 57.4675 79.5822C57.1117 79.7469 56.7666 79.9396 56.4337 80.1467C56.2285 80.2741 56.0556 80.4533 55.8656 80.6062C55.7064 80.7342 55.7017 80.732 55.5656 80.5729C55.5497 80.6702 55.7386 80.8557 55.8795 80.8816C56.1488 80.6773 56.4072 80.4567 56.6899 80.2731C56.9971 80.0736 57.3266 79.9083 57.6471 79.7299C57.6633 79.7207 57.6875 79.7263 57.708 79.7252C57.5631 80.0198 57.6029 80.3309 57.6563 80.632C57.7387 81.0966 58.075 81.6828 58.419 82.0161C58.3604 82.0319 58.3138 82.0477 58.2659 82.0568C57.7722 82.1491 57.2757 82.2013 56.7724 82.177C56.7159 82.1742 56.6584 82.1859 56.6014 82.1907C56.6671 82.3279 56.7324 82.4648 56.7982 82.6019C56.9912 82.5115 57.1677 82.4125 57.4015 82.3964C57.9094 82.3614 58.4153 82.2764 58.9179 82.1878C59.4503 82.0941 59.9796 81.9799 60.5069 81.8604C60.8495 81.7828 61.1864 81.6792 61.5257 81.5874C61.7972 81.4963 62.0688 81.4055 62.3403 81.3144C62.3675 81.2984 62.3945 81.2829 62.4219 81.2671C62.5429 81.2214 62.6663 81.1804 62.7847 81.1285C63.0524 81.0108 63.3186 80.8893 63.5839 80.7661C63.906 80.6164 64.2279 80.4662 64.5472 80.3102C64.7455 80.2133 64.9342 80.0959 65.1357 80.0069C65.2528 79.9553 65.3869 79.9428 65.5133 79.9122C65.6637 79.9777 65.8238 80.0274 65.963 80.1115C66.3958 80.373 66.8498 80.3859 67.3288 80.2816C67.5489 80.2336 67.7791 80.2312 68.0046 80.2076C68.1951 80.1877 68.3884 80.182 68.5752 80.1439C68.7919 80.0997 69.0049 80.0339 69.2161 79.9657C69.5919 79.8449 69.9663 79.7188 70.339 79.5882C70.6211 79.4894 70.8999 79.3806 71.1797 79.2759C71.3596 79.2086 71.5437 79.1504 71.7176 79.0702C71.9504 78.9628 72.178 78.843 72.4029 78.7191C72.5771 78.6233 72.744 78.5136 72.914 78.41C72.9251 78.3384 72.9363 78.2668 72.9471 78.1953C72.9137 78.2214 72.8803 78.2475 72.8466 78.2738C72.8385 78.2802 72.8306 78.287 72.8226 78.2934C72.7839 78.3109 72.7447 78.3283 72.7059 78.3458C72.6431 78.3869 72.5798 78.4279 72.5169 78.469C72.4934 78.4804 72.4707 78.4948 72.4463 78.5031C72.0885 78.627 71.7273 78.7419 71.373 78.8756C71.0306 79.0052 70.6964 79.1566 70.3567 79.2929C70.0791 79.4043 69.7978 79.5052 69.5196 79.6147C69.0593 79.7962 68.591 79.9388 68.0918 79.9702C67.7921 79.9888 67.4846 79.9178 67.1969 80.0943C67.006 80.2115 66.777 80.1795 66.5564 80.1454C66.4216 80.1245 66.2987 80.0647 66.1809 79.9989C66.122 79.966 66.0636 79.9314 66.0037 79.9C65.9435 79.868 65.8799 79.8406 65.8308 79.7919C65.8087 79.7702 65.7898 79.7455 65.7752 79.7183C65.7363 79.6466 65.7288 79.5565 65.7633 79.4824C65.7901 79.424 65.8439 79.3779 65.9061 79.3617C65.9388 79.3532 65.963 79.3637 65.9952 79.3649C66.0358 79.3665 66.0763 79.3667 66.117 79.3665C66.2797 79.3664 66.4422 79.3573 66.6047 79.3511C66.6389 79.3499 66.673 79.3484 66.707 79.3476C67.764 79.415 68.7834 79.2131 69.7897 78.9171C70.0452 78.8987 70.2362 78.8465 70.4353 78.776C70.7342 78.6702 71.0005 78.5912 71.3008 78.4903C71.3231 78.4828 71.401 78.4648 71.4257 78.4644C71.4613 78.4474 71.9178 78.2365 72.0612 78.148C72.3766 77.9531 72.6872 77.7427 72.9698 77.5037C73.3335 77.1965 73.6712 76.8584 74.014 76.5276C74.2187 76.3298 74.4177 76.1256 74.6078 75.914C74.7768 75.7259 74.9244 75.5178 75.0928 75.3292C75.1916 75.2189 75.3004 75.1061 75.4277 75.0354C75.654 74.9095 75.8973 74.8148 76.1336 74.7068C76.1418 74.7013 76.1501 74.6954 76.1583 74.6899C76.2192 74.6702 76.28 74.6505 76.3412 74.6306C76.3495 74.6254 76.3574 74.6201 76.3657 74.6149C76.3947 74.5997 76.4237 74.5846 76.4532 74.5696C76.4598 74.5589 76.4663 74.5487 76.473 74.538C76.4821 74.5345 76.4907 74.5305 76.4993 74.5259C76.5093 74.5283 76.5218 74.5358 76.5289 74.5323C76.7954 74.4015 76.8889 74.1683 76.786 73.8929C76.6996 73.6598 76.5339 73.5415 76.3344 73.5936ZM60.3945 80.247C60.2326 80.3187 60.0397 80.2305 59.9588 80.0481C59.904 79.9239 59.9631 79.8073 60.1159 79.739C60.2951 79.659 60.479 79.7001 60.5434 79.8344C60.6113 79.9753 60.5356 80.1842 60.3945 80.247ZM61.3678 80.5638C61.1869 80.6517 60.9843 80.5844 60.9047 80.4095C60.83 80.2459 60.8813 80.0769 61.0267 80.0081C61.1969 79.9277 61.3889 79.9998 61.4698 80.1744C61.5489 80.3454 61.5097 80.4949 61.3678 80.5638ZM65.3092 79.6671C64.8243 79.9357 64.3493 80.2268 63.8457 80.4548C63.3934 80.6594 62.9087 80.7919 62.4382 80.9563C62.4598 80.6938 62.533 80.4226 62.4907 80.1708C62.4216 79.7583 62.2414 79.3719 61.9835 79.0372C61.8752 78.8966 61.7154 78.7957 61.5791 78.6765C61.7619 78.6411 61.944 78.6001 62.1279 78.5719C62.4252 78.5264 62.7233 78.4881 63.0215 78.4495C63.4204 78.3976 63.8198 78.3488 64.219 78.2982C64.2501 78.2943 64.2805 78.2862 64.3112 78.2794C64.6839 78.196 64.7643 78.234 64.9715 78.5416C65.1072 78.7431 65.2558 78.9364 65.4087 79.125C65.5539 79.3031 65.5183 79.5511 65.3092 79.6671ZM66.4404 76.8212C66.3289 77.2452 66.3163 77.6624 66.5193 78.0663C66.7163 78.4581 66.9246 78.8407 67.3533 79.0996C67.1488 79.1233 66.9866 79.1421 66.8245 79.1612C66.8126 79.1605 66.8005 79.1594 66.7885 79.1587C66.776 79.1604 66.7639 79.1622 66.7513 79.1639C66.7405 79.1626 66.7297 79.1613 66.7188 79.16C66.7059 79.1615 66.6931 79.1633 66.6798 79.165C66.5092 79.169 66.3374 79.1637 66.1676 79.1793C65.8527 79.2083 65.6202 79.1021 65.4176 78.8482C65.1985 78.5732 65.0103 78.2867 64.8663 77.9681C64.7483 77.7069 64.8181 77.4967 65.0923 77.3737C65.5173 77.1827 65.9487 77.0068 66.3782 76.8255C66.3963 76.8168 66.4197 76.822 66.4404 76.8212C66.4576 76.8078 66.4745 76.793 66.4915 76.7776C66.4744 76.7927 66.4576 76.8078 66.4404 76.8212ZM68.4703 76.8244C68.4071 76.6882 68.4696 76.5206 68.6094 76.4518C68.7346 76.3903 68.9488 76.4542 69.0118 76.5723C69.0839 76.7073 69.0281 76.875 68.8874 76.9443C68.7227 77.0258 68.5389 76.9731 68.4703 76.8244ZM69.752 77.4575C69.584 77.5305 69.3207 77.4519 69.2554 77.3093C69.1788 77.1421 69.2598 76.9549 69.4446 76.8721C69.5703 76.8159 69.7782 76.915 69.8467 77.0641C69.9269 77.2372 69.8878 77.3984 69.752 77.4575ZM71.9777 77.9385C71.5933 78.0846 71.2093 78.2321 70.8238 78.3753C70.7638 78.3974 70.6959 78.3988 70.5943 78.4164C70.7508 77.9946 70.7556 77.5929 70.7191 77.1867C70.6817 76.7693 70.5163 76.417 70.1633 76.1011C70.4239 76.0608 70.6452 76.0266 70.8663 75.9926C71.1291 75.9674 71.3919 75.9446 71.6541 75.9161C71.9107 75.8883 72.1667 75.8559 72.4227 75.8228C72.716 75.7848 73.0102 75.7521 73.3014 75.7028C73.6615 75.6422 74.0193 75.5686 74.3774 75.4967C74.4944 75.4733 74.6086 75.4372 74.761 75.3973C73.9617 76.4295 73.0393 77.2603 71.9777 77.9385Z" fill="#110E0D"/>
<path d="M70.2979 70.5783C70.5694 70.4682 70.8594 70.3918 71.1483 70.3385C71.5559 70.263 71.9691 70.1876 72.3816 70.1772C72.8747 70.1649 73.3693 70.2206 73.8634 70.2498C73.9297 70.2537 73.9941 70.2772 74.0604 70.2875C74.2967 70.3243 74.533 70.3632 74.7698 70.3934C74.8664 70.4058 74.9309 70.3618 74.9253 70.2225C74.5341 70.1506 74.1429 70.0534 73.746 70.0125C73.303 69.9671 72.8539 69.9499 72.4087 69.9632C71.9857 69.9757 71.5579 70.0127 71.1434 70.0948C70.7464 70.1731 70.353 70.2967 69.9778 70.4493C69.6222 70.5938 69.2925 70.8018 68.9518 70.9828C68.9393 70.9894 68.9326 71.0071 68.9232 71.0199C68.9463 71.0664 68.9697 71.1128 68.9928 71.1593C69.0181 71.1548 69.0458 71.1554 69.0683 71.1449C69.4777 70.955 69.8802 70.7478 70.2979 70.5783Z" fill="#110E0D"/>
<path d="M72.6053 80.6666C72.5509 80.655 72.4918 80.6647 72.4348 80.666C72.1067 80.6731 71.7784 80.6901 71.4504 80.6859C70.9104 80.6789 70.3704 80.6662 69.831 80.6399C69.488 80.6232 69.1468 80.5763 68.8044 80.5459C68.6436 80.5316 68.4826 80.5154 68.3217 80.5184C68.2683 80.5193 68.2159 80.5777 68.163 80.61C68.2064 80.6401 68.2469 80.6769 68.2944 80.6983C68.3361 80.7169 68.3855 80.7216 68.4321 80.7254C68.9878 80.7711 69.543 80.8208 70.099 80.8585C70.4881 80.8851 70.8783 80.9041 71.2684 80.9087C71.6315 80.9129 71.9948 80.8954 72.3582 80.8838C72.4508 80.8806 72.5429 80.8636 72.6489 80.8513C72.6776 80.8121 72.7051 80.7741 72.7325 80.7366C72.69 80.712 72.6506 80.6764 72.6053 80.6666Z" fill="#110E0D"/>
<path d="M73.0122 78.3612C73.5347 77.9853 74.0642 77.6185 74.5742 77.2267C74.8153 77.0413 75.0212 76.8099 75.2362 76.5925C75.2664 76.5621 75.2565 76.4921 75.2653 76.4406C75.2137 76.442 75.1536 76.4272 75.1126 76.4487C75.0496 76.4818 75 76.5398 74.9443 76.5869C74.5337 76.936 74.1281 77.2911 73.7105 77.6313C73.4659 77.8307 73.2021 78.0072 72.9469 78.194C72.9358 78.2656 72.9247 78.3372 72.9138 78.4087C72.9465 78.3932 72.9828 78.3821 73.0122 78.3612Z" fill="#110E0D"/>
<path d="M57.7056 79.7212C57.5607 80.0158 57.6005 80.3269 57.6539 80.628C57.7363 81.0926 58.0725 81.6788 58.4166 82.0121C58.358 82.0279 58.3114 82.0437 58.2635 82.0528C57.7697 82.1451 57.2732 82.1973 56.77 82.173C56.7134 82.1702 56.656 82.1819 56.5989 82.1867C56.3691 82.1552 56.1306 82.1683 55.9276 82.0169C55.6784 81.8311 55.607 81.4549 55.7774 81.1947C55.8096 81.1456 55.8201 81.0817 55.838 81.0239C55.8529 80.9761 55.8643 80.9268 55.8773 80.8781C56.1467 80.6739 56.405 80.4532 56.6878 80.2697C56.995 80.0701 57.3244 79.9048 57.6449 79.7264C57.6609 79.7167 57.6852 79.7226 57.7056 79.7212Z" fill="#F4F3F3"/>
<path d="M61.5764 78.672C61.7592 78.6366 61.9413 78.5956 62.1252 78.5674C62.4225 78.5218 62.7206 78.4836 63.0188 78.4449C63.4178 78.3931 63.8171 78.3442 64.2163 78.2937C64.2475 78.2898 64.2779 78.2817 64.3086 78.2748C64.6813 78.1914 64.7617 78.2295 64.9688 78.5371C65.1046 78.7385 65.2531 78.9318 65.406 79.1205C65.5508 79.2992 65.5155 79.547 65.3062 79.6627C64.8214 79.9313 64.3464 80.2224 63.8428 80.4504C63.3904 80.655 62.9058 80.7875 62.4352 80.9519C62.4569 80.6894 62.5301 80.4182 62.4878 80.1664C62.4187 79.7539 62.2384 79.3675 61.9805 79.0328C61.8724 78.8918 61.7126 78.7909 61.5764 78.672Z" fill="#F8F8F8"/>
<path d="M61.4684 80.1735C61.5473 80.3442 61.508 80.4935 61.3663 80.5626C61.1853 80.6505 60.9828 80.5832 60.9032 80.4083C60.8285 80.2447 60.8798 80.0758 61.0252 80.0069C61.1953 79.9269 61.3876 79.999 61.4684 80.1735Z" fill="#F4F3F3"/>
<path d="M60.1108 79.732C60.29 79.652 60.474 79.6931 60.5383 79.8274C60.606 79.9684 60.5307 80.1775 60.3895 80.2399C60.2276 80.3117 60.0346 80.2234 59.9538 80.0411C59.8988 79.9166 59.9579 79.8 60.1108 79.732Z" fill="#F4F3F3"/>
<path d="M70.8623 75.9857C71.1251 75.9605 71.3879 75.9376 71.6501 75.9092C71.9067 75.8814 72.1627 75.849 72.4187 75.8159C72.712 75.7779 73.0061 75.7452 73.2974 75.6959C73.6575 75.6353 74.0153 75.5617 74.3733 75.4898C74.4904 75.4664 74.6046 75.4303 74.757 75.3904C73.9574 76.4227 73.0353 77.2534 71.9737 77.9316C71.5893 78.0777 71.2053 78.2252 70.8198 78.3684C70.7598 78.3905 70.6919 78.3919 70.5903 78.4095C70.7468 77.9877 70.7516 77.586 70.7151 77.1797C70.6777 76.7624 70.5123 76.4101 70.1593 76.0942C70.4198 76.0539 70.6409 76.0199 70.8623 75.9857Z" fill="#F4F4F4"/>
<path d="M66.6766 79.1591C66.506 79.1631 66.3343 79.1578 66.1644 79.1733C65.8495 79.2024 65.617 79.0962 65.4144 78.8422C65.1953 78.5673 65.0071 78.2808 64.8631 77.9622C64.7451 77.701 64.8149 77.4908 65.0891 77.3678C65.5141 77.1768 65.9455 77.0008 66.375 76.8196C66.393 76.812 66.4159 76.8171 66.4369 76.8162C66.3254 77.2401 66.3129 77.6573 66.5159 78.0612C66.7129 78.453 66.9211 78.8356 67.3498 79.0946C67.1454 79.1182 66.9831 79.137 66.8211 79.1561C66.8091 79.1554 66.797 79.1544 66.785 79.1536C66.7725 79.1553 66.7604 79.1571 66.7479 79.1588C66.737 79.1575 66.7262 79.1562 66.7153 79.1549C66.7025 79.156 66.6896 79.1575 66.6766 79.1591Z" fill="#F4F3F3"/>
<path d="M69.8444 77.0609C69.9243 77.2343 69.8853 77.3954 69.7494 77.4545C69.5815 77.5275 69.3181 77.449 69.2528 77.3064C69.1763 77.1391 69.2572 76.9519 69.4421 76.8691C69.568 76.8127 69.7756 76.912 69.8444 77.0609Z" fill="#F4F3F3"/>
<path d="M68.8835 76.9399C68.7186 77.0212 68.5351 76.9683 68.4663 76.8201C68.4031 76.6838 68.4657 76.5163 68.6054 76.4475C68.7306 76.3859 68.9449 76.4498 69.0078 76.568C69.0796 76.7031 69.0237 76.8705 68.8835 76.9399Z" fill="#F4F3F3"/>
<path d="M79.9721 71.6277C79.7239 71.2185 79.4677 70.8108 79.1764 70.4322C78.7774 69.9142 78.2875 69.4842 77.7837 69.0637C76.8592 68.2923 75.8378 67.7302 74.6685 67.4378C74.447 67.3827 74.2286 67.3159 74.0085 67.2545C73.9951 67.2517 73.9816 67.2485 73.968 67.2458C73.8405 67.227 73.7128 67.2079 73.5853 67.189C73.5099 67.1787 73.4343 67.1682 73.3586 67.158L73.3596 67.1586C73.3217 67.1538 73.2839 67.1491 73.246 67.1444L73.247 67.145C73.2236 67.1432 73.2003 67.1415 73.1769 67.1398C73.0788 67.1334 72.9805 67.1267 72.8824 67.1203C72.8336 67.1161 72.785 67.1118 72.7365 67.1074C72.7248 67.0974 72.7127 67.0781 72.7019 67.0789C72.2184 67.1064 71.7349 67.1352 71.2517 67.166C71.2224 67.168 71.1945 67.1882 71.166 67.2002L71.1659 67.1999C71.0748 67.2027 70.9802 67.1914 70.8932 67.2115C70.7121 67.2531 70.5079 67.2731 70.3641 67.3741C70.2317 67.467 70.0983 67.4434 69.9861 67.5083C69.9539 67.5659 69.9173 67.6238 69.8657 67.6607C69.7951 67.7109 69.6994 67.7321 69.7003 67.8449C69.4241 67.8677 69.2386 68.0658 69.0223 68.2015C68.7465 68.3749 68.4799 68.5635 68.2091 68.7456C68.049 68.8917 67.8886 69.0379 67.7284 69.1844C67.5375 69.3951 67.3526 69.6115 67.1541 69.8146C66.8559 70.1198 66.5474 70.4177 66.4032 70.8326C66.342 71.0086 66.3082 71.1949 66.273 71.3787C66.2218 71.6475 66.1565 71.9169 66.141 72.1883C66.125 72.4722 66.154 72.7595 66.1778 73.044C66.1862 73.1485 66.2672 73.1933 66.3554 73.1114C66.4996 72.9778 66.6381 72.8372 66.7708 72.6918C67.1255 72.303 67.51 71.9479 67.9408 71.645C68.182 71.4754 68.4291 71.3141 68.6736 71.149C68.7181 71.1233 68.7625 71.0973 68.8074 71.0715C68.8451 71.0534 68.8829 71.0354 68.9207 71.0173C68.9298 71.0046 68.9365 70.9869 68.949 70.9803C69.2897 70.7993 69.6194 70.5913 69.975 70.4468C70.3502 70.2942 70.7438 70.1709 71.1406 70.0923C71.5553 70.0105 71.9826 69.9734 72.4058 69.9612C72.8511 69.9482 73.3 69.965 73.7431 70.0104C74.1403 70.0512 74.5314 70.1484 74.9227 70.2203C74.9283 70.3596 74.8637 70.4036 74.7672 70.3912C74.5299 70.3609 74.2937 70.3222 74.0574 70.2854C73.9914 70.275 73.9266 70.2514 73.8607 70.2476C73.3666 70.2184 72.8719 70.1625 72.3789 70.175C71.9665 70.1849 71.5532 70.2608 71.1455 70.336C70.8571 70.3895 70.5671 70.4659 70.2955 70.576C69.8777 70.7452 69.4752 70.9524 69.0658 71.1423C69.0433 71.1528 69.0155 71.1522 68.9903 71.1566C68.8439 71.2531 68.6895 71.34 68.5522 71.4484C68.2022 71.7245 67.8479 71.9967 67.5181 72.2957C67.2304 72.5563 66.9594 72.8384 66.7072 73.1337C66.3557 73.5451 66.068 74.0022 65.8216 74.5417C66.0018 74.4728 66.1424 74.4198 66.2826 74.3659C66.6537 74.2227 67.0227 74.0733 67.3962 73.9371C67.9268 73.7435 68.4557 73.5409 68.9957 73.3784C69.3203 73.281 69.6651 73.2504 70.0016 73.1938C70.1549 73.1678 70.3099 73.1515 70.4639 73.1309C70.7762 73.0964 71.0881 73.052 71.4012 73.0313C71.6493 73.0148 71.9023 73.0025 72.1479 73.0325C72.5141 73.0775 72.8739 73.1731 73.2398 73.2253C73.5484 73.269 73.862 73.3071 74.1724 73.3007C74.5448 73.293 74.916 73.2328 75.2883 73.2023C75.3612 73.1963 75.4368 73.2223 75.5114 73.2338C75.5164 73.2481 75.521 73.2624 75.5261 73.2767C75.489 73.311 75.4566 73.3661 75.4138 73.3762C75.2122 73.4233 75.0087 73.4623 74.8045 73.4957C74.6768 73.5167 74.5466 73.5235 74.4173 73.5336C73.834 73.5801 73.2614 73.4905 72.6998 73.354C72.0555 73.1973 71.4098 73.2429 70.7615 73.2725C70.6274 73.2787 70.4932 73.2853 70.3592 73.2915C70.0759 73.3467 69.7929 73.4048 69.5089 73.4558C69.3913 73.4766 69.2659 73.4655 69.1529 73.4992C68.865 73.5848 68.5811 73.6856 68.2971 73.7847C68.057 73.8682 67.8156 73.9503 67.581 74.0477C67.269 74.1769 66.9624 74.3188 66.6551 74.458C66.3942 74.5761 66.1239 74.6786 65.8776 74.8225C65.4955 75.046 65.1447 75.314 64.9361 75.7244C64.9244 75.7475 64.9099 75.7736 64.9107 75.7978C64.9139 75.8834 64.8933 75.9995 64.9394 76.0441C64.98 76.0833 65.1153 76.0712 65.1791 76.0328C65.5297 75.8215 65.8685 75.5915 66.2162 75.3752C66.5415 75.1726 66.8705 74.9752 67.2023 74.7835C67.7879 74.4447 68.4112 74.2015 69.0666 74.0326C69.4711 73.9284 69.8771 73.8583 70.294 73.8503C70.3798 73.8305 70.4652 73.7929 70.5503 73.7938C71.0266 73.7992 71.5038 73.7966 71.978 73.8318C72.2871 73.8546 72.5906 73.9472 72.8991 73.9886C73.1915 74.0273 73.4871 74.0554 73.7819 74.0599C74.0975 74.0647 74.4178 74.0625 74.7289 74.0164C75.0646 73.9668 75.3933 73.868 75.7225 73.7805C75.9278 73.7259 76.126 73.6438 76.3314 73.5902C76.5308 73.5381 76.6967 73.656 76.7839 73.89C76.8868 74.1654 76.7933 74.3987 76.5268 74.5295C76.5197 74.533 76.5072 74.5255 76.4972 74.5231C76.4889 74.5275 76.4801 74.5316 76.4712 74.535C76.4645 74.5457 76.4578 74.5561 76.4514 74.5666C76.4224 74.5817 76.3929 74.5968 76.3639 74.6119L76.3539 74.6229L76.3395 74.6279C76.2786 74.6476 76.2178 74.6673 76.1569 74.6871C76.1496 74.6942 76.1414 74.6997 76.1323 74.7039C75.8958 74.8117 75.6524 74.9068 75.426 75.0327C75.299 75.1033 75.19 75.2162 75.0912 75.3265C74.9227 75.5151 74.7755 75.723 74.6061 75.9113C74.4159 76.1226 74.217 76.3271 74.0122 76.5246C73.6696 76.8557 73.3317 77.1936 72.968 77.5007C72.6851 77.7398 72.375 77.9504 72.0594 78.145C71.9157 78.2337 71.73 78.254 71.5634 78.3049C71.5442 78.3144 71.5246 78.3238 71.5053 78.333C71.4907 78.3319 71.4756 78.3306 71.4608 78.3291C71.4253 78.3461 71.3899 78.3633 71.3544 78.3803C71.1951 78.4459 71.0381 78.519 70.8757 78.5756C70.5395 78.6921 70.2007 78.8005 69.8625 78.9108C69.8394 78.9181 69.8128 78.9134 69.7879 78.9141C68.7816 79.2101 67.7621 79.4117 66.7051 79.3443C66.4538 79.3516 66.2019 79.371 65.9515 79.3602C65.8486 79.3555 65.7703 79.3621 65.7016 79.4367C65.7025 79.4838 65.7034 79.5308 65.7045 79.5777C65.7075 79.5864 65.7093 79.5957 65.7098 79.6053C65.7354 79.7458 65.8274 79.8105 65.9542 79.8725C66.1518 79.9694 66.3261 80.107 66.5546 80.1424C66.7752 80.1765 67.0042 80.2085 67.1951 80.0913C67.4828 79.9148 67.7906 79.9857 68.09 79.9672C68.5893 79.9361 69.0575 79.7932 69.5178 79.6117C69.796 79.5022 70.0776 79.4011 70.3549 79.2899C70.6948 79.1535 71.0291 79.002 71.3714 78.8725C71.7253 78.7387 72.0867 78.624 72.4448 78.5C72.469 78.4914 72.4919 78.4773 72.5152 78.4656C72.5783 78.4248 72.6414 78.3835 72.7043 78.3424C72.7432 78.3252 72.7822 78.3075 72.8211 78.2903C72.8266 78.2809 72.8345 78.2741 72.8449 78.2703C72.8783 78.2442 72.9118 78.2181 72.9452 78.192C73.2004 78.0053 73.4641 77.8287 73.7088 77.6293C74.1265 77.2887 74.5321 76.9336 74.9425 76.5846C74.9982 76.5376 75.048 76.4794 75.1107 76.4465C75.152 76.4249 75.2122 76.4399 75.2639 76.4385C75.255 76.49 75.2646 76.5601 75.2347 76.5904C75.0197 76.8078 74.8136 77.0394 74.5725 77.2247C74.0625 77.6165 73.5328 77.983 73.0106 78.3588C72.9814 78.38 72.9451 78.3911 72.9121 78.4068C72.7421 78.5103 72.5755 78.6199 72.401 78.7158C72.1763 78.8395 71.9487 78.9594 71.7157 79.0669C71.5418 79.1471 71.3577 79.2053 71.1777 79.2726C70.8977 79.3775 70.6191 79.4862 70.3368 79.5851C69.9643 79.7155 69.59 79.8416 69.2139 79.9626C69.0029 80.0303 68.79 80.0964 68.5733 80.1406C68.3865 80.1787 68.1931 80.1849 68.0024 80.2045C67.7771 80.228 67.5469 80.2303 67.3268 80.2783C66.8478 80.3826 66.3938 80.3697 65.9611 80.1082C65.8219 80.0242 65.6618 79.9744 65.5111 79.9091C65.3848 79.9392 65.2507 79.9518 65.1336 80.0033C64.932 80.092 64.7434 80.2097 64.5451 80.3066C64.2261 80.4625 63.904 80.6129 63.5818 80.7626C63.3165 80.8858 63.0503 81.0073 62.7826 81.125C62.6644 81.1771 62.5408 81.2178 62.4199 81.2639C62.3926 81.2796 62.3653 81.2953 62.3383 81.3111C62.0665 81.4021 61.795 81.4932 61.5235 81.5843C61.1842 81.6761 60.8475 81.7795 60.5047 81.8572C59.9774 81.9768 59.448 82.0907 58.9156 82.1846C58.4132 82.2729 57.9073 82.3578 57.3992 82.393C57.1653 82.4091 56.989 82.5084 56.796 82.5988C56.81 82.6263 56.8243 82.6536 56.8383 82.6811C57.0547 82.7373 57.2714 82.7934 57.4881 82.8494C57.4968 82.8458 57.5058 82.8441 57.5152 82.844C57.553 82.8456 57.5907 82.8472 57.6284 82.8489C57.9604 82.8307 58.2666 82.9055 58.5137 83.1359C58.9119 83.5067 59.3892 83.6251 59.8859 83.6793C59.8862 83.6792 59.8863 83.6795 59.8866 83.6793C61.4152 84.017 62.9369 83.3528 62.9647 83.3408C62.965 83.3406 62.965 83.3406 62.965 83.3406C63.0565 83.3098 63.1477 83.2789 63.239 83.2476C63.8148 83.0494 64.3734 82.8169 64.8868 82.4813C65.1752 82.2929 65.4662 82.0912 65.7843 81.9688C66.0851 81.8533 66.4237 81.7777 66.7445 81.7823C67.5809 81.7948 68.4168 81.8547 69.2522 81.9092C69.6323 81.9339 70.0098 82.0123 70.3899 82.0285C70.8601 82.0485 71.3322 82.0422 71.8025 82.0227C72.2139 82.0058 72.6245 81.9598 73.0342 81.9163C73.1995 81.8988 73.3622 81.8548 73.5259 81.8212C73.9454 81.7345 74.3706 81.6675 74.783 81.5545C75.3823 81.3903 75.9331 81.1037 76.4636 80.7849C76.9295 80.505 77.3946 80.2202 77.8372 79.9055C78.3874 79.514 78.801 78.9813 79.2352 78.4703C79.7276 77.8911 80.1307 77.2469 80.4546 76.5728C80.8053 75.8436 80.9397 75.038 80.8742 74.2152C80.866 74.1117 80.8661 74.0072 80.8623 73.9029C80.7669 73.4206 80.6502 72.9456 80.4192 72.5054C80.2665 72.2146 80.1419 71.9075 79.9721 71.6277ZM72.6465 80.8477C72.54 80.8599 72.448 80.8771 72.3555 80.8799C71.9923 80.8918 71.6291 80.9094 71.2659 80.9051C70.8761 80.9004 70.4857 80.8811 70.0968 80.8548C69.5406 80.8172 68.9853 80.7675 68.4296 80.7219C68.383 80.718 68.3339 80.7132 68.292 80.6947C68.2446 80.6736 68.2041 80.6368 68.1605 80.6065C68.2135 80.5745 68.2657 80.5162 68.3194 80.5151C68.4799 80.5119 68.6413 80.5283 68.8018 80.5427C69.1442 80.5731 69.4856 80.6199 69.8287 80.6366C70.3677 80.6628 70.9081 80.6756 71.4481 80.6826C71.7758 80.687 72.1041 80.6699 72.4322 80.6628C72.4892 80.6616 72.5483 80.6518 72.6026 80.6635C72.6479 80.6733 72.6877 80.7087 72.73 80.733C72.7024 80.7707 72.6751 80.8085 72.6465 80.8477Z" fill="#4D7E3D"/>
<path d="M71.0877 69.952C71.4555 69.8355 71.8351 69.7462 72.1886 69.596C72.7936 69.3386 72.9531 68.8817 72.6206 68.3313C72.2428 67.7053 71.6562 67.3601 70.9295 67.3432C70.2579 67.3275 69.7687 67.7019 69.4317 68.2591C69.1575 68.713 69.0822 69.1885 69.3894 69.6739C69.6772 70.1287 70.1083 70.0809 70.5441 70.0234C70.724 69.9997 70.9014 69.9578 71.08 69.9245C71.0828 69.9337 71.0853 69.943 71.0877 69.952Z" fill="white"/>
<path d="M82.655 63.4024C84.1112 60.1228 87.6057 58.843 87.6057 58.843C89.3124 61.7708 89.0304 68.6698 89.0304 68.6698C95.2181 75.4056 97.8383 80.6729 97.8383 80.6729C98.768 83.6043 90.758 89.7027 90.3896 90.0252C90.0212 90.3477 84.729 93.6854 83.1838 95.1118C81.6384 96.5384 80.921 99.4734 80.921 99.4734C80.7998 99.3146 80.1933 99.3902 80.1933 99.3902C80.0594 99.531 79.6106 101.052 79.6106 101.052C76.3177 99.1298 70.5239 100.009 70.5239 100.009C68.6968 100.176 68.4081 99.7446 68.4081 99.7446C67.7707 99.0973 67.4205 96.2303 67.4205 96.2303C67.3914 95.9111 67.1987 95.7102 67.1987 95.7102C65.0026 94.7997 63.9964 93.0008 63.9964 93.0008C63.6709 92.384 63.3812 92.4722 63.3812 92.4722C60.4484 92.3177 59.6225 89.5759 59.6225 89.5759C58.819 86.6559 61.0594 84.1172 61.0594 84.1172C59.1735 84.3286 58.2582 83.1796 58.2582 83.1796C57.9616 82.8634 57.1966 83.04 57.1966 83.04C56.7436 83.0801 56.4932 82.3534 56.4932 82.3534C55.8432 82.2602 55.6321 81.8895 55.6321 81.8895C55.3769 81.3765 55.6942 80.9705 55.6942 80.9705C55.5502 80.9156 55.3616 80.7025 55.3616 80.7025C55.3285 80.5519 55.6913 80.0515 55.6913 80.0515C55.6065 79.8711 55.5918 79.6281 55.5918 79.6281C55.5923 79.3775 56.3072 78.4376 56.3072 78.4376C56.2195 78.2239 56.2687 78.1368 56.2687 78.1368C56.988 76.931 58.556 75.8424 58.556 75.8424C57.9091 72.2915 60.915 70.9369 60.915 70.9369C60.5863 70.1758 61.8488 69.2011 61.7573 69.2178C60.7293 69.4032 59.5356 69.0248 59.5356 69.0248C57.9817 68.6759 56.6167 67.9454 55.3853 66.954C54.0774 65.9009 53.1758 64.5647 52.5864 62.7459C51.9326 60.4631 52.2317 58.0966 53.6233 55.8788C53.6473 55.8401 53.6656 55.7878 53.7011 55.768C53.8051 55.71 53.9322 55.6077 54.0207 55.6316C54.1065 55.655 54.1939 55.8059 54.2144 55.9135C54.3183 56.4595 54.3716 57.0163 54.4954 57.557C55.0733 60.0773 56.6435 61.6996 59.0568 62.5499C60.105 62.9191 61.1697 63.1907 62.2931 63.1463C62.353 63.1439 62.4145 63.1439 62.4751 63.1398C62.8996 63.0587 63.4275 62.8246 63.8767 62.2214C63.9222 62.1531 63.9684 62.0855 64.0154 62.0189L64.0155 62.0184C64.0155 62.0184 65.0951 60.1247 66.8418 59.3712C66.868 58.5885 66.9465 57.8755 67.076 57.7861C67.6993 57.3555 68.3746 57.1391 69.135 57.1919C69.3321 57.2057 69.4423 57.2894 69.5199 57.4744C69.6516 57.7886 69.749 58.1166 69.8328 58.4505C69.8328 58.4505 70.1932 57.9368 72.569 57.9624C72.8438 57.9572 73.119 57.9662 73.3927 57.99C73.3941 57.99 73.3955 57.99 73.397 57.99L73.3977 57.99C73.5101 57.9998 73.6223 58.0119 73.7342 58.0269C74.4076 58.117 75.03 58.3977 75.6886 58.569C76.3472 58.7402 76.6257 58.7487 77.0474 58.6233C77.6827 58.4346 78.1445 57.9359 78.5944 57.4903C78.5945 57.4899 78.5951 57.4896 78.5953 57.4894C79.0686 57.0202 79.4797 56.4874 79.8625 55.9253C80.7091 54.6829 81.2467 53.3386 81.1657 51.7996C81.0946 50.448 80.639 49.2169 80.0074 48.0383C79.9137 47.8634 79.7136 47.6838 79.9019 47.4706C80.0935 47.2536 80.2957 47.4389 80.4739 47.5165C82.8081 48.5345 84.3535 50.2737 85.1109 52.4726C85.6446 54.2234 85.6433 55.7714 85.2727 57.3483C84.9716 58.6351 82.655 63.4024 82.655 63.4024Z" stroke="#110E0D" stroke-width="0.75549" stroke-miterlimit="10"/>
<path d="M60.7778 74.1253C60.1401 74.285 59.7371 74.0164 59.6705 73.377C59.5945 72.6498 59.8544 72.0209 60.4235 71.569C60.9499 71.1514 61.566 71.1551 62.1707 71.3968C62.663 71.5935 63.0099 71.9276 63.0575 72.4998C63.1022 73.0362 62.7295 73.2582 62.3473 73.475C62.1897 73.5647 62.0227 73.6382 61.8601 73.7191C61.8638 73.7279 61.1505 74.032 60.7778 74.1253Z" fill="white"/>
</g>
<defs>
<clipPath id="clip0_32_96">
<rect width="51.5313" height="60.341" fill="white" transform="translate(37.863 58.8755) rotate(-26.4469)"/>
</clipPath>
</defs>
</svg>
