<svg width="304" height="330" viewBox="0 0 304 330" fill="none" xmlns="http://www.w3.org/2000/svg">
<g clip-path="url(#clip0_3_1130)">
<path d="M210.296 130.129C210.927 129.629 211.591 129.083 211.838 128.317C212.146 127.364 211.728 126.331 211.21 125.475C209.308 122.332 206.092 120.268 203.389 117.781C200.686 115.294 198.307 111.816 198.974 108.203C196.25 107.96 193.954 106.155 191.836 104.425C187.048 100.515 182.262 96.6053 177.474 92.695C175.837 91.3582 174.165 89.9825 173.08 88.1687C172.48 87.1684 172.058 86.0343 171.222 85.2213C170.408 84.4267 169.296 84.0316 168.22 83.658C167.275 83.3304 166.274 82.9974 165.293 83.197C164.312 83.3966 163.41 84.3466 163.643 85.3199C162.78 84.4567 161.185 84.9382 160.498 85.9478C159.811 86.9573 159.773 88.2594 159.761 89.4812C150.911 88.6501 141.838 90.3598 133.896 94.3523C132.342 95.1341 130.775 96.0178 129.042 96.1799C127.286 96.3425 125.56 95.7463 123.81 95.5245C117.206 94.6881 111.135 99.2226 106.695 104.183C104.164 107.011 101.778 110.358 101.744 114.152C101.693 119.904 107.219 124.39 112.856 125.532C118.492 126.673 124.294 125.408 130.012 124.801C140.967 123.638 152.019 124.912 162.962 126.185C173.857 127.453 184.8 128.729 195.398 131.559C196.561 131.869 197.793 132.244 198.563 133.17C199.332 134.096 199.332 135.747 198.264 136.304C198.235 136.319 202.731 139.309 203.399 139.487C204.859 139.876 205.93 139.953 206.467 138.291C206.983 136.683 205.356 135.973 205.42 134.68C205.502 133.009 209.066 131.103 210.296 130.129Z" fill="#110E0D"/>
<path d="M81.5649 107.182C81.3936 107.923 81.2904 108.68 81.1608 109.431C81.0647 109.984 80.9419 110.537 80.886 111.096C80.8474 111.48 80.9313 111.879 80.905 112.267C80.8547 113.012 80.7037 113.755 80.7026 114.5C80.6964 117.437 80.707 120.373 80.7608 123.309C80.8034 125.564 80.9132 127.819 81.0068 130.074C81.0586 131.314 81.1407 132.552 81.2043 133.793C81.2683 135.032 81.2846 136.276 81.4044 137.509C81.5037 138.535 81.7083 139.553 81.8939 140.57C82.153 141.996 82.4371 143.417 82.7137 144.839C82.9336 145.963 83.1786 147.083 83.3734 148.212C83.6039 149.545 83.211 150.762 82.5345 151.883C81.0332 154.37 79.5352 156.861 77.9665 159.305C76.8297 161.078 75.4972 162.725 74.4039 164.522C71.9546 168.544 69.5385 172.59 67.2321 176.696C66.0633 178.774 65.1786 181.01 64.1383 183.159C62.9102 185.694 61.6103 188.195 60.4177 190.745C59.1537 193.451 57.9177 196.173 56.7899 198.936C56.0671 200.705 55.5794 202.569 54.9515 204.379C54.4788 205.745 53.9383 207.089 53.4534 208.451C52.6651 210.669 52.9287 212.85 53.5488 215.075C54.2323 217.526 55.8404 219.313 57.5475 221.02C59.0367 222.509 60.6008 223.943 62.2579 225.238C65.9194 228.097 69.5925 230.948 73.387 233.626C77.4689 236.505 81.6071 239.326 85.8866 241.9C89.4068 244.017 93.1489 245.774 96.8308 247.615C100.558 249.479 104.326 251.263 108.089 253.059C111.573 254.722 115.091 256.316 118.562 258.009C123.298 260.318 127.922 262.828 132.019 266.19C133.969 267.791 135.472 269.783 136.768 271.918C138.233 274.326 139.591 276.8 140.997 279.244C141.35 279.859 142.063 280.149 142.682 279.834C144.07 279.125 144.683 279.049 145.883 280.771C146.811 282.103 147.487 283.611 148.265 285.048C148.398 285.292 148.48 285.565 148.59 285.839C150.018 285.094 151.428 284.419 152.781 283.644C158.816 280.187 165.302 278.109 172.181 277.227C176.793 276.635 181.41 276.091 186.026 275.532C187.95 275.299 189.893 275.168 191.799 274.828C193.018 274.61 194.263 274.244 195.355 273.672C196.521 273.063 196.943 271.798 197.265 270.554C198.139 267.173 197.979 263.707 198.142 260.268C198.21 258.827 198.183 257.383 198.198 255.94C197.057 256.329 195.92 256.724 194.776 257.104C194.445 257.214 194.053 257.431 193.766 257.345C192.595 256.993 191.576 257.448 190.519 257.79C189.686 258.06 188.848 258.315 187.999 258.525C185.678 259.101 183.308 259.514 181.037 260.245C178.919 260.928 176.789 261.443 174.58 261.501C172.502 261.556 170.613 262.07 168.861 263.179C168.394 263.474 167.85 263.617 167.248 263.49C166.568 263.346 165.867 263.298 165.174 263.209C163.864 263.041 162.554 262.873 161.243 262.705C161.045 262.785 160.823 262.966 160.651 262.927C159.987 262.774 159.337 262.55 158.681 262.353C157.995 262 157.447 262.22 156.88 262.686C154.94 264.281 152.977 265.845 150.999 267.392C150.777 267.566 150.337 267.682 150.116 267.577C149.902 267.476 149.84 267.053 149.706 266.775C149.584 266.52 149.478 266.253 149.323 266.02C149.169 265.788 148.94 265.603 148.779 265.373C148.063 264.34 147.368 263.293 146.643 262.266C146.5 262.065 146.274 261.911 146.064 261.769C145.662 261.497 145.198 261.301 144.839 260.984C144.039 260.277 143.316 259.484 142.508 258.788C141.977 258.332 141.351 257.984 140.769 257.588C139.033 257.068 137.295 256.549 135.557 256.028C135.663 256.411 135.741 256.803 135.876 257.175C136.08 257.733 136.384 258.259 136.518 258.83C136.583 259.098 136.431 259.549 136.221 259.705C136.067 259.819 135.519 259.686 135.385 259.496C134.863 258.752 134.07 258.421 133.3 258.234C131.096 257.697 129.469 256.31 127.877 254.84C127.552 254.538 127.177 254.189 127.054 253.791C126.865 253.186 126.44 252.916 125.961 252.665C124.974 252.147 123.965 251.673 122.985 251.142C119.674 249.346 116.343 247.58 113.077 245.708C111.253 244.663 109.672 243.223 107.696 242.405C107.095 242.157 106.556 241.724 106.043 241.309C103.518 239.269 101.03 237.181 98.4898 235.16C96.2379 233.366 94.1155 231.432 92.2542 229.244C90.8441 227.585 89.5847 225.798 88.2846 224.047C88.0069 223.673 87.7941 223.227 87.6404 222.784C86.6357 219.896 85.6532 216.998 84.6708 214.101C84.5881 213.859 84.5607 213.597 84.5084 213.344C84.5084 213.344 84.5152 213.346 84.5156 213.345C84.4878 213.28 84.4605 213.213 84.4327 213.148C84.0897 211.309 83.674 209.48 83.4232 207.627C83.16 205.679 83.016 203.711 82.8887 201.747C82.5649 196.734 82.9554 191.808 84.5535 186.995C85.1703 185.133 85.4301 183.157 85.9504 181.26C87.2288 176.595 88.311 171.84 91.1623 167.79C92.0342 166.552 93.0162 165.388 93.9985 164.233C95.3991 162.587 97.1416 162.233 99.2596 162.644C102.464 163.266 105.718 163.627 108.943 164.152C110.719 164.44 112.476 164.848 114.245 165.183C115.828 165.482 117.441 165.662 118.995 166.071C120.22 166.393 121.377 166.984 122.564 167.456C122.632 165.23 122.8 163.021 123.505 160.882C123.971 159.469 124.299 158.004 124.85 156.628C125.655 154.615 126.496 152.603 127.516 150.695C128.914 148.083 130.783 145.798 132.721 143.544C134.698 141.247 136.856 139.217 139.243 137.492L192.468 149.405C192.468 149.405 218.348 149.834 203.107 139.092C187.867 128.35 103.255 119.251 103.255 119.251C102.043 118.246 100.803 117.275 99.5652 116.299C98.6533 115.58 97.7202 114.886 96.8087 114.166C94.3984 112.262 91.7627 110.739 88.9778 109.456C87.7846 108.906 86.6564 108.217 85.4708 107.647C84.5842 107.221 83.653 106.887 82.7454 106.505C82.0503 106.214 81.7053 106.576 81.5649 107.182Z" fill="#C19038"/>
<path d="M86.9999 113.014C86.9999 113.014 97.8959 117.652 106.787 128.849C106.787 128.849 96.0683 133.542 88.5818 139.606C88.5836 139.605 84.8024 123.241 86.9999 113.014Z" fill="#815120"/>
<path d="M240.568 96.8532C241.798 86.062 238.591 75.5974 230.485 66.6146C230.344 66.458 230.221 66.2356 230.042 66.172C229.52 65.9871 228.857 65.619 228.47 65.7929C228.095 65.9615 227.81 66.7079 227.8 67.2088C227.746 69.7508 227.933 72.3039 227.784 74.8375C227.087 86.6432 221.138 95.1302 210.723 100.755C206.199 103.198 201.524 105.212 196.334 105.842C195.787 105.908 195.221 106.023 194.689 105.945C193.494 105.77 193.171 106.442 192.921 107.389C190.372 117.033 195.908 124.735 201.897 128.276C203.694 129.338 205.755 130.089 207.792 130.596C209.657 131.058 211.657 131.094 213.545 130.344C220.404 127.619 226.103 123.311 230.985 117.924C236.171 112.202 239.272 105.501 240.568 96.8532Z" fill="#F0860E"/>
<path d="M87.5917 75.2121C86.497 83.5296 87.7119 90.5343 90.6507 97.3965C93.0486 102.995 96.5977 107.753 100.849 112.023C102.669 113.851 104.681 117.018 105.094 117.058C117.356 118.865 126.449 112.513 129.331 104.439C130.021 102.509 130.078 100.347 130.311 98.2781C130.354 97.8977 129.92 97.1878 129.564 97.0777C123.488 95.1951 118.781 91.3586 114.481 86.9521C109.608 81.9556 106.081 76.2704 105.253 69.2452C104.527 63.0757 105.666 57.1679 107.657 51.3668C107.953 50.5074 108.734 49.546 107.701 48.7204C106.649 47.8799 105.861 48.8676 105.099 49.3518C95.1338 55.6853 89.3662 64.7005 87.5917 75.2121Z" fill="#F0860E"/>
<path d="M155.186 114.742C155.722 114.845 156.114 114.938 156.511 114.995C162.296 115.827 168.082 116.649 173.867 117.484C175.546 117.726 176.273 106.139 176.411 101.187C176.508 97.7087 173.887 85.864 172.463 85.2422C169.013 83.733 165.497 83.2218 161.803 83.9757C160.846 84.1707 160.378 84.6226 160.159 85.5054C159.193 89.4189 159.46 93.6113 159.016 97.6068C158.663 100.776 158.148 103.927 157.476 107.047C157.326 107.743 155.027 114.712 155.186 114.742Z" fill="#84878B"/>
<path d="M191.754 123.741C193.295 124.269 194.698 125.205 196.155 125.947C194.918 123.69 193.551 121.564 192.542 119.28C190.922 115.619 190.696 111.741 191.647 107.863C192.051 106.221 191.817 104.947 190.691 103.664C186.812 99.2371 182.271 95.8808 176.932 93.7628C177.491 96.8081 177.875 99.8822 177.818 101.39C177.63 106.333 176.598 117.351 175.602 117.811C175.257 117.968 185.503 121.607 191.754 123.741Z" fill="#4A474A"/>
<path d="M122.002 115.208C126.806 114.2 131.722 114.042 136.61 114.029C139.088 114.021 141.587 113.941 144.058 114.006L146.802 114.044C147.902 114.06 150.9 114.223 151.999 114.241C152.835 114.253 153.323 114.553 153.821 113.802C154.319 113.052 154.653 112.128 154.967 111.289C155.598 109.594 156.021 107.833 156.441 106.077C157.04 103.566 157.537 100.789 157.849 98.2341C159.483 84.8899 153.854 89.7174 152.776 89.6817C151.245 89.6295 149.825 89.786 148.305 89.9878C146.375 90.2433 144.466 90.6511 142.604 91.221C138.851 92.3743 135.327 94.1942 132.183 96.5413C131.731 96.876 131.393 97.6463 131.374 98.225C131.149 105.328 127.892 110.739 122.269 114.872C122.209 114.916 122.169 114.997 122.002 115.208Z" fill="#4A474A"/>
<path d="M159.72 117.776C152.07 115.961 144.292 116.267 136.522 116.362C131.102 116.429 125.672 116.405 120.429 118.029C116.484 119.25 111.552 119.919 107.696 121.399C105.027 122.424 102.067 124.64 103.632 129.259C104.71 132.855 109.588 132.778 111.996 132.266C121.061 130.336 130.264 130.053 139.501 130.286C157.441 130.74 174.811 134.084 191.544 140.565C195.234 141.994 198.785 143.798 202.344 145.542C203.42 146.07 204.377 146.2 205.515 145.921C208.557 145.175 208.371 145.156 209.156 142.154C209.81 139.653 209.38 138.017 207.242 136.384C201.307 131.854 195.319 127.383 188.274 124.787C182.546 122.675 176.661 120.929 170.746 119.404C167.172 118.483 163.404 118.294 159.72 117.776Z" fill="#84878B" stroke="black" stroke-width="0.855504" stroke-miterlimit="10"/>
<path d="M148.832 221.033C148.39 222.818 148.091 224.638 147.719 226.44C147.595 227.04 147.844 227.26 148.334 227.218C149.391 225.654 150.419 224.13 151.442 222.61C152.327 223.313 153.005 223.996 153.808 224.465C156.803 226.218 159.813 227.95 162.869 229.595C164.72 230.592 166.64 231.471 168.574 232.296C170.032 232.919 171.568 233.362 173.062 233.904C176.743 235.236 180.418 236.544 184.319 237.158C188.546 237.826 192.773 238.269 197.044 237.866C200.464 237.545 203.728 236.707 206.49 234.507C206.654 234.378 206.771 234.189 206.873 234.071C208.143 236.09 209.316 237.768 211.566 238.197C211.649 238.629 211.669 238.802 211.57 239.106L211.57 239.107C214.433 239.379 214.491 236.517 214.491 236.432C213.763 236.445 213.108 236.148 212.436 235.743C211.041 234.905 210.165 233.62 209.248 232.359C208.943 231.941 208.912 231.524 209.059 230.971C209.447 229.511 209.807 228.023 209.948 226.524C210.026 225.683 210.381 225.465 211.05 225.24C211.904 224.953 212.757 224.61 213.533 224.155C215.681 222.897 217.421 221.205 218.512 218.939C219.145 217.622 219.86 216.293 220.183 214.888C220.741 212.446 219.052 210.215 216.425 209.265C214.808 208.679 213.081 208.39 211.398 207.984C207.874 207.134 204.312 207.148 200.739 207.566C199.106 207.759 197.986 208.806 197.31 210.155C196.627 211.516 196.486 213.071 196.763 214.606C196.969 215.744 196.832 216.946 197.482 218.006C197.796 218.517 197.919 219.142 198.215 219.665C198.73 220.572 199.456 221.273 200.266 221.962C201.222 222.776 202.242 223.395 203.344 223.936C204.021 224.266 204.705 224.592 205.346 224.985C205.953 225.355 206.241 225.919 206.121 226.666C205.939 227.805 205.806 228.951 205.614 230.088C205.476 230.908 205.303 231.703 204.491 232.205C202.191 233.623 199.715 234.526 197.015 234.665C193.721 234.835 190.423 235.212 187.126 234.614C184.847 234.201 182.514 234.02 180.278 233.451C177.571 232.762 174.931 231.805 172.281 230.908C168.725 229.706 165.312 228.175 162.067 226.278C159.923 225.025 157.653 223.972 155.898 222.12C154.665 220.819 153.31 219.631 152.042 218.362C151.193 217.514 150.69 217.546 149.92 218.426C149.253 219.19 149.056 220.129 148.832 221.033Z" fill="#110E0D"/>
<path d="M153.82 131.042C153.606 131.098 153.392 131.153 153.178 131.208C153.203 131.113 153.228 131.018 153.252 130.922C153.442 130.962 153.631 131.002 153.82 131.042Z" fill="#110E0D"/>
<path d="M111.275 131.709C111.236 131.737 111.193 131.753 111.146 131.753C111.189 131.737 111.233 131.723 111.275 131.709Z" fill="#110E0D"/>
<path d="M198.205 255.515C198.409 254.359 199.179 253.758 200.158 253.182C202.257 251.951 204.022 250.303 205.581 248.421C207.733 245.824 209.8 243.182 211.165 240.06C211.669 238.91 211.709 238.924 211.567 238.19C209.317 237.761 208.143 236.084 206.874 234.063C206.771 234.182 206.654 234.37 206.491 234.501C203.727 236.7 200.464 237.537 197.044 237.86C192.773 238.263 188.547 237.818 184.319 237.152C180.419 236.537 176.744 235.229 173.063 233.896C171.569 233.356 170.033 232.912 168.574 232.29C166.639 231.464 164.72 230.584 162.87 229.589C159.814 227.944 156.803 226.212 153.809 224.459C153.006 223.988 152.327 223.307 151.444 222.604C150.419 224.124 149.391 225.648 148.336 227.213C147.846 227.254 147.597 227.033 147.721 226.434C148.093 224.632 148.391 222.812 148.834 221.027C149.058 220.123 149.254 219.184 149.922 218.421C150.692 217.541 151.195 217.508 152.043 218.357C153.312 219.625 154.667 220.813 155.9 222.115C157.655 223.966 159.923 225.019 162.069 226.273C165.313 228.17 168.726 229.7 172.282 230.902C174.932 231.797 177.573 232.757 180.279 233.445C182.516 234.014 184.848 234.195 187.126 234.608C190.423 235.206 193.72 234.828 197.015 234.659C199.716 234.52 202.19 233.617 204.49 232.198C205.304 231.697 205.475 230.901 205.614 230.082C205.805 228.945 205.938 227.798 206.12 226.66C206.24 225.912 205.952 225.348 205.346 224.978C204.704 224.585 204.021 224.26 203.344 223.929C202.242 223.388 201.221 222.769 200.266 221.957C199.455 221.268 198.73 220.567 198.214 219.66C197.918 219.137 197.794 218.512 197.481 218.001C196.831 216.941 196.967 215.739 196.762 214.601C196.484 213.066 196.625 211.512 197.308 210.151C197.984 208.802 199.104 207.754 200.737 207.562C204.311 207.143 207.872 207.13 211.397 207.979C213.079 208.384 214.806 208.674 216.424 209.259C219.051 210.21 220.738 212.44 220.18 214.882C219.859 216.288 219.143 217.617 218.509 218.934C217.418 221.199 215.679 222.89 213.53 224.149C212.755 224.603 211.901 224.947 211.047 225.235C210.379 225.46 210.023 225.677 209.945 226.518C209.804 228.017 209.445 229.505 209.056 230.966C208.91 231.517 208.941 231.934 209.245 232.353C210.162 233.615 211.04 234.9 212.434 235.738C213.33 236.275 214.193 236.624 215.242 236.302C219.214 235.083 222.569 232.957 224.914 229.478C226.023 227.832 226.612 225.935 227.27 224.046C228.122 221.598 227.989 219.176 227.793 216.759C227.642 214.897 227.087 213.03 226.468 211.25C225.281 207.834 223.25 204.874 221.023 202.051C219.894 200.618 218.748 199.199 217.609 197.774C217.386 197.708 217.073 197.226 216.846 197.185C215.004 196.856 213.255 196.926 211.41 196.604C210.359 196.436 209.304 196.275 208.254 196.098C205.534 195.641 202.865 195.018 200.321 193.9C198.891 193.272 197.442 192.588 195.93 192.278C194.499 191.985 192.93 191.899 191.501 192.158C187.773 192.836 184.082 193.724 180.391 194.589C178.71 194.983 177.082 195.614 175.395 195.969C173.31 196.408 171.195 196.731 169.079 196.993C167.228 197.224 165.36 197.324 163.497 197.434C162.745 197.479 161.985 197.404 161.229 197.374C159.29 197.299 157.341 197.316 155.414 197.118C152.614 196.83 149.94 195.959 147.332 194.929C145.043 194.025 142.753 193.098 140.541 192.021C137.791 190.681 135.547 188.609 133.227 186.648C130.597 184.426 128.316 181.848 126.368 179.077C124.259 176.079 123.059 172.58 122.74 168.855C122.7 168.385 122.621 167.918 122.561 167.451C121.374 166.979 120.217 166.388 118.991 166.066C117.438 165.657 115.826 165.477 114.241 165.178C112.473 164.843 110.715 164.437 108.94 164.147C105.716 163.623 102.461 163.263 99.2561 162.639C97.1381 162.228 95.3957 162.582 93.995 164.228C93.0128 165.383 92.0308 166.547 91.1589 167.785C88.3072 171.836 87.2253 176.59 85.9469 181.255C85.4267 183.152 85.1669 185.128 84.5501 186.99C82.952 191.803 82.5628 196.73 82.887 201.742C83.0143 203.705 83.158 205.674 83.4211 207.623C83.6705 209.475 84.0881 211.304 84.431 213.142C84.4584 213.209 84.4862 213.274 84.5135 213.341L84.5063 213.34C84.8071 213.517 85.1301 213.665 85.4046 213.874C89.0675 216.68 92.651 219.594 96.4002 222.279C99.9927 224.852 103.703 227.273 107.457 229.607C111.526 232.137 115.656 234.581 119.85 236.896C123.337 238.821 126.926 240.566 130.525 242.273C133.228 243.556 135.991 244.727 138.781 245.807C141.032 246.677 143.358 247.361 145.664 248.084C149.143 249.174 152.619 250.28 156.125 251.276C159.058 252.109 162.03 252.807 164.991 253.538C165.997 253.786 167.022 253.973 168.044 254.153C169.74 254.45 171.438 254.722 173.136 255.002C174.997 255.309 176.848 255.715 178.721 255.899C183.514 256.369 188.314 256.189 193.108 255.84C194.808 255.715 196.507 255.622 198.205 255.515ZM200.27 246.349C200.221 246.255 200.174 246.16 200.126 246.066C200.552 245.119 200.957 244.16 201.41 243.224C202.202 241.587 201.79 240.914 199.971 240.862C198.769 240.827 197.57 240.72 196.369 240.693C196.137 240.687 195.856 240.856 195.67 241.024C195.098 241.544 194.575 242.12 194 242.634C193.846 242.772 193.571 242.773 193.419 242.817C193.523 241.633 193.621 240.534 193.716 239.436C193.768 238.833 194.087 238.605 194.687 238.616C197.177 238.66 199.581 239.483 202.089 239.393C203.941 239.329 205.796 239.373 207.65 239.338C208.426 239.324 209.293 239.947 209.344 240.632C209.443 241.928 208.094 244.02 206.849 244.46C206.7 244.511 206.446 244.457 206.334 244.353C206.248 244.273 206.27 244.023 206.315 243.87C206.49 243.279 206.704 242.701 206.88 242.11C206.991 241.742 206.906 241.409 206.463 241.385C205.875 241.353 205.338 241.412 204.916 241.98C203.87 243.381 202.936 244.899 201.416 245.869C201.073 246.092 200.655 246.194 200.27 246.349Z" fill="white"/>
<path d="M85.4066 213.88C89.0682 216.686 92.653 219.601 96.4008 222.285C99.9947 224.858 103.704 227.279 107.457 229.613C111.526 232.145 115.656 234.587 119.852 236.903C123.338 238.825 126.927 240.571 130.526 242.279C133.229 243.561 135.991 244.733 138.782 245.813C141.034 246.683 143.36 247.367 145.665 248.088C149.144 249.178 152.62 250.284 156.126 251.281C159.059 252.114 162.03 252.813 164.992 253.544C166 253.793 167.022 253.979 168.045 254.159C169.74 254.456 171.439 254.726 173.137 255.007C174.997 255.315 176.849 255.72 178.722 255.903C183.515 256.374 188.315 256.193 193.108 255.846C194.806 255.722 196.506 255.629 198.204 255.522C198.201 255.661 198.2 255.801 198.198 255.94C197.058 256.33 195.92 256.725 194.777 257.104C194.445 257.214 194.053 257.432 193.767 257.346C192.595 256.993 191.576 257.448 190.519 257.79C189.687 258.06 188.848 258.316 188 258.526C185.678 259.101 183.308 259.514 181.037 260.246C178.919 260.928 176.789 261.443 174.581 261.502C172.502 261.556 170.614 262.071 168.861 263.179C168.394 263.475 167.851 263.618 167.249 263.49C166.568 263.346 165.867 263.299 165.174 263.209C163.864 263.041 162.306 263.472 160.996 263.304C160.322 263.104 159.652 262.882 158.968 262.723C158.817 262.687 158.613 262.869 158.435 262.952C157.747 262.597 157.447 262.221 156.88 262.687C154.707 264.875 152.356 266.809 149.675 268.333C149.831 267.557 149.53 266.754 149.083 266.102C148.637 265.45 148.054 264.906 147.545 264.3C146.773 263.374 146.158 262.279 145.16 261.603C144.644 261.253 144.051 261.034 143.488 260.771C141.84 260.001 140.394 258.804 139.327 257.331C139.332 257.548 139.337 257.762 139.342 257.979C138.232 257.508 137.123 257.039 136.013 256.569C136.61 257.838 137.204 259.363 136.5 260.578C136.202 260.32 135.938 260.022 135.718 259.693C135.639 259.577 135.566 259.456 135.499 259.333C135.485 259.412 135.472 259.49 135.458 259.568C135.448 259.623 135.438 259.678 135.429 259.733C135.108 259.164 134.381 259.006 133.754 258.823C132.264 258.389 130.944 257.469 129.684 256.397C129.059 255.916 128.465 255.384 127.877 254.841C127.667 254.645 127.436 254.43 127.266 254.195C126.329 253.331 125.384 252.506 124.385 251.866C124.384 251.866 124.383 251.864 124.381 251.864C123.913 251.63 123.446 251.392 122.986 251.142C119.674 249.347 116.344 247.58 113.077 245.708C111.254 244.663 109.672 243.224 107.696 242.405C107.095 242.157 106.556 241.724 106.044 241.31C103.518 239.269 101.03 237.181 98.4901 235.16C96.2382 233.367 94.1158 231.433 92.2545 229.245C90.8445 227.585 89.585 225.799 88.285 224.047C88.0072 223.673 87.7944 223.228 87.6408 222.784C86.636 219.896 85.6536 216.999 84.6711 214.101C84.5884 213.86 84.5611 213.598 84.5087 213.345C84.8095 213.522 85.1325 213.67 85.4066 213.88Z" fill="#DDDDDC"/>
<path d="M240.56 178.435C239.957 177.755 239.353 177.074 238.749 176.395C238.575 176.325 238.384 176.283 238.231 176.183C236.972 175.355 235.797 174.362 234.453 173.716C232.122 172.595 229.738 171.542 227.287 170.732C224.818 169.915 222.259 169.332 219.705 168.826C217.591 168.406 215.43 168.103 213.279 168.005C210.562 167.88 207.831 167.965 205.109 168.048C202.997 168.112 200.891 168.347 198.779 168.435C198.041 168.465 197.292 168.287 196.548 168.204C196.535 168.078 196.523 167.954 196.512 167.828C197.144 167.638 197.766 167.351 198.41 167.277C199.788 167.118 201.179 167.042 202.565 166.984C204.766 166.892 206.967 166.803 209.168 166.79C210.952 166.779 212.738 166.839 214.517 166.951C216.015 167.045 217.511 167.214 218.996 167.434C220.151 167.605 221.295 167.873 222.431 168.15C224.356 168.621 226.299 169.051 228.185 169.651C229.81 170.169 231.389 170.85 232.946 171.552C234.07 172.06 235.137 172.701 236.205 173.322C237.009 173.79 237.774 174.321 238.588 174.844C238.586 174.568 238.584 174.343 238.583 174.119C237.661 173.028 236.74 171.935 235.818 170.844C234.43 170.293 233.045 169.732 231.65 169.193C230.97 168.93 230.281 168.682 229.584 168.469C228.408 168.108 227.223 167.775 226.042 167.435C224.917 167.11 223.8 166.748 222.662 166.478C221.364 166.169 220.047 165.935 218.736 165.682C217.835 165.509 216.933 165.314 216.022 165.212C214.859 165.081 213.687 165.026 212.518 164.958C211.417 164.894 210.31 164.776 209.212 164.822C207.145 164.909 205.074 165.035 203.016 165.26C201.005 165.48 199.009 165.836 197.01 166.159C196.769 166.197 196.531 166.371 196.332 166.533C195.547 167.177 194.987 167.231 194.138 166.771C192.47 165.867 190.835 164.888 189.108 164.114C187.211 163.264 185.251 162.526 183.266 161.902C181.735 161.42 180.137 161.115 178.547 160.865C176.675 160.57 174.782 160.396 172.895 160.211C171.783 160.102 170.662 160.071 169.546 160.006C167.749 160.411 165.939 160.762 164.16 161.235C162.021 161.804 159.929 162.543 157.783 163.082C155.798 163.58 153.78 163.968 151.758 164.3C149.507 164.669 147.252 164.526 145.029 164.012C144.142 163.807 143.276 163.66 142.379 163.948C141.99 164.072 141.808 164.255 141.946 164.665C142.12 165.181 142.294 165.694 142.467 166.208C142.857 166.299 143.247 166.384 143.636 166.479C144.9 166.791 146.167 167.096 147.425 167.427C148.112 167.607 148.775 167.904 149.47 168.021C151.321 168.335 153.18 168.623 155.045 168.838C156.132 168.963 157.24 168.968 158.337 168.956C159.582 168.941 160.827 168.848 162.071 168.788C163.546 168.717 165.022 168.627 166.498 168.583C167.431 168.555 168.365 168.596 169.298 168.606C170.192 168.567 171.086 168.531 171.981 168.492C172.417 168.427 172.852 168.32 173.291 168.304C174.582 168.254 175.877 168.249 177.169 168.21C178.46 168.172 179.75 168.06 181.038 168.082C182.646 168.11 184.256 168.189 185.856 168.344C187.237 168.477 188.608 168.726 189.976 168.963C190.987 169.138 191.986 169.38 192.995 169.58C193.71 169.721 194.435 169.814 195.144 169.976C195.767 170.119 196.404 170.263 196.98 170.527C197.64 170.83 197.912 171.459 198.04 172.169C198.154 172.792 198.266 173.583 199.062 173.605C200.611 173.651 202.163 173.55 203.714 173.502C205.353 173.452 206.99 173.384 208.63 173.341C210.178 173.3 211.729 173.246 213.278 173.26C215.031 173.277 216.791 173.289 218.534 173.445C220.518 173.622 222.543 173.573 224.461 174.253C225.101 174.306 225.75 174.309 226.379 174.422C228.034 174.721 229.705 174.974 231.324 175.419C233.036 175.89 234.721 176.495 236.363 177.173C237.375 177.589 238.28 178.261 239.243 178.803C240.051 179.26 240.071 179.247 240.56 178.435Z" fill="#4D7E3D"/>
<path d="M185.997 142.936C186.228 143.752 186.492 144.56 186.79 145.354C187.68 147.721 188.445 150.12 188.832 152.625C188.921 153.196 189.147 153.458 189.805 153.475C191.694 153.528 193.582 153.676 195.469 153.802C196.548 153.874 197.624 153.973 198.699 154.068C200.309 154.208 201.922 154.32 203.526 154.51C204.878 154.672 206.223 154.913 207.566 155.147C208.887 155.38 210.223 155.572 211.512 155.923C213.159 156.371 214.764 156.963 216.388 157.489C217.876 157.971 219.367 158.445 220.853 158.932C222.27 159.395 222.559 159.455 223.048 158.069C223.024 157.966 222.999 157.863 222.975 157.758C222.952 157.399 222.929 157.04 222.906 156.682C222.914 156.595 222.922 156.508 222.929 156.42C222.909 156.355 222.887 156.288 222.867 156.223C222.529 155.095 222.256 153.944 221.838 152.847C221.377 151.639 220.832 150.457 220.242 149.304C218.88 146.65 216.689 144.729 214.418 142.891C214.372 142.871 214.327 142.852 214.282 142.833C214.191 142.813 214.101 142.793 214.01 142.773C213.247 142.504 212.484 142.234 211.721 141.965L211.58 141.923C211.399 141.812 211.228 141.676 211.035 141.595C208.76 140.647 206.342 140.427 203.923 140.251C202.852 140.173 201.771 140.209 200.695 140.183C199.204 140.146 197.709 140.046 196.22 140.079C195.288 140.1 194.35 140.274 193.433 140.461C191.992 140.752 190.553 141.079 189.132 141.455C188.163 141.712 187.216 142.065 186.276 142.419C186.131 142.473 185.958 142.795 185.997 142.936Z" fill="#4D7E3D"/>
<path d="M234.121 167.706C232.815 166.663 231.535 165.583 230.194 164.583C227.978 162.928 225.618 161.502 223.065 160.417C221.727 160.111 220.365 159.887 219.059 159.48C217.024 158.848 215.042 158.051 213.013 157.401C211.602 156.949 210.168 156.514 208.713 156.266C206.196 155.836 203.656 155.534 201.12 155.228C199.609 155.047 198.088 154.919 196.569 154.837C194.245 154.712 191.918 154.638 189.592 154.564C189.164 154.551 188.733 154.638 188.209 154.689C189.718 157.182 191.884 158.882 193.713 160.877C194.678 161.929 195.661 162.966 196.58 164.057C197.048 164.613 197.465 165.093 198.289 164.855C198.785 164.711 199.298 164.607 199.811 164.54C201.445 164.327 203.078 164.067 204.72 163.962C206.92 163.824 209.128 163.74 211.33 163.774C212.872 163.798 214.419 163.99 215.947 164.226C218.5 164.62 221.053 165.034 223.575 165.581C225.288 165.953 226.962 166.524 228.628 167.083C230.383 167.671 232.105 168.36 233.849 168.986C234.065 169.064 234.323 169.025 234.563 169.04C234.622 168.954 234.681 168.869 234.74 168.783C234.532 168.424 234.328 168.065 234.121 167.706Z" fill="#4D7E3D"/>
<path d="M200.269 246.352C200.653 246.197 201.072 246.094 201.416 245.875C202.937 244.906 203.871 243.387 204.916 241.986C205.338 241.419 205.876 241.359 206.464 241.392C206.907 241.415 206.99 241.748 206.88 242.117C206.703 242.707 206.489 243.285 206.315 243.876C206.27 244.03 206.249 244.28 206.335 244.359C206.447 244.464 206.702 244.518 206.849 244.466C208.094 244.027 209.444 241.934 209.345 240.638C209.292 239.953 208.427 239.33 207.65 239.345C205.797 239.379 203.941 239.334 202.09 239.4C199.581 239.489 197.178 238.665 194.688 238.622C194.087 238.612 193.769 238.838 193.717 239.442C193.621 240.542 193.523 241.64 193.42 242.824C193.572 242.779 193.846 242.778 194 242.641C194.576 242.125 195.099 241.55 195.67 241.031C195.856 240.863 196.136 240.693 196.37 240.699C197.571 240.726 198.769 240.833 199.971 240.868C201.79 240.92 202.204 241.592 201.411 243.23C200.958 244.165 200.553 245.124 200.126 246.073C200.172 246.164 200.22 246.258 200.269 246.352Z" fill="#110E0D"/>
<path d="M184.252 161.23C185.879 161.84 187.494 162.477 189.1 163.141C190.813 163.848 192.499 164.624 194.222 165.308C194.536 165.432 195.15 165.386 195.302 165.18C195.475 164.945 195.297 164.442 195.247 164.058C195.232 163.95 195.149 163.842 195.078 163.747C193.842 162.069 192.075 161.134 190.2 160.419C188.994 159.96 187.71 159.702 186.457 159.368C184.979 158.974 183.505 158.568 182.015 158.223C180.893 157.962 179.754 157.776 178.618 157.58C177.276 157.348 175.934 157.11 174.582 156.941C174.052 156.874 173.501 157.019 172.961 157.012C171.654 156.996 170.346 156.946 169.039 156.912C168.434 156.983 167.831 157.053 167.226 157.126C164.307 157.475 161.388 157.752 158.626 158.931C156.218 159.959 153.726 160.785 151.085 161.011C150.5 161.062 149.914 161.127 149.329 161.128C148.392 161.131 147.452 161.108 146.518 161.047C146.319 161.034 146.133 160.813 145.942 160.688C145.954 160.62 145.966 160.552 145.976 160.484C146.3 160.379 146.619 160.205 146.949 160.177C148.635 160.037 150.338 160.031 152.008 159.787C153.4 159.585 154.773 159.181 156.12 158.755C157.715 158.251 159.252 157.557 160.855 157.083C161.928 156.766 163.068 156.633 164.189 156.522C165.604 156.382 167.03 156.348 168.451 156.269C169.156 156.247 169.859 156.205 170.564 156.206C172.109 156.209 173.672 156.089 175.195 156.283C177.731 156.606 180.243 157.119 182.757 157.59C184.529 157.921 186.287 158.314 188.052 158.677C188.718 158.815 189.384 158.946 190.242 159.12C188.74 156.893 187.115 155.066 185.237 153.488C183.89 152.357 182.469 151.298 180.992 150.347C179.296 149.256 177.509 148.302 175.74 147.329C175.046 146.947 174.293 146.675 173.566 146.351C173.634 146.127 173.704 145.902 173.773 145.677C173.955 145.73 174.138 145.782 174.32 145.835C174.538 145.917 174.757 145.999 174.975 146.082C176.19 146.638 177.414 147.175 178.618 147.753C180.768 148.786 182.75 150.086 184.624 151.56C185.325 152.111 186.049 152.636 186.793 153.126C187.249 153.427 187.576 153.166 187.538 152.692C187.432 151.403 187.348 150.098 187.065 148.843C186.795 147.64 186.302 146.485 185.873 145.323C185.58 144.528 185.29 143.721 184.885 142.98C183.933 141.234 182.333 140.132 180.773 138.99C179.735 138.23 178.749 137.399 177.739 136.6C178.269 136.467 178.67 136.662 179.048 137.039C180.054 138.04 181.177 138.894 182.433 139.566C182.884 139.977 183.313 140.418 183.793 140.793C184.775 141.56 185.858 141.767 187.033 141.251C187.99 140.973 188.95 140.701 189.904 140.414C190.167 140.335 190.418 140.212 190.674 140.108C190.931 140.103 191.193 140.133 191.444 140.089C192.832 139.845 194.207 139.492 195.605 139.348C197.506 139.154 199.424 139.108 201.335 139.011C203.637 138.893 205.907 139.081 208.126 139.743C208.242 139.792 208.358 139.839 208.474 139.888C208.551 139.961 208.629 140.033 208.708 140.106C208.831 140.191 208.954 140.277 209.077 140.362C209.487 140.487 209.896 140.612 210.304 140.738C211.017 141.006 211.731 141.271 212.444 141.539C212.93 141.738 213.415 141.937 213.901 142.138C213.939 142.343 213.978 142.549 214.016 142.754C213.253 142.485 212.49 142.216 211.727 141.949C211.68 141.934 211.634 141.919 211.588 141.905C211.407 141.794 211.235 141.658 211.041 141.578C208.766 140.63 206.349 140.411 203.93 140.233C202.858 140.154 201.778 140.191 200.702 140.165C199.21 140.129 197.716 140.027 196.226 140.061C195.294 140.082 194.358 140.256 193.44 140.442C191.998 140.734 190.561 141.059 189.14 141.437C188.169 141.694 187.224 142.047 186.283 142.401C186.139 142.455 185.966 142.777 186.005 142.918C186.234 143.734 186.5 144.543 186.798 145.336C187.687 147.701 188.452 150.101 188.84 152.606C188.929 153.177 189.155 153.438 189.813 153.456C191.703 153.509 193.59 153.656 195.477 153.783C196.556 153.855 197.631 153.956 198.708 154.049C200.317 154.189 201.93 154.3 203.534 154.491C204.887 154.653 206.231 154.892 207.574 155.128C208.895 155.361 210.231 155.553 211.521 155.904C213.165 156.351 214.772 156.942 216.396 157.47C217.884 157.952 219.375 158.425 220.862 158.913C222.278 159.377 222.567 159.435 223.056 158.049C223.043 158.406 223.017 158.763 223.02 159.119C223.024 159.544 222.93 160.668 222.949 161.092C221.395 160.407 220.374 159.863 219.069 159.456C217.035 158.824 215.052 158.027 213.023 157.377C211.612 156.925 210.179 156.489 208.723 156.241C206.206 155.812 203.666 155.509 201.131 155.204C199.619 155.022 198.099 154.895 196.579 154.813C194.256 154.687 191.928 154.614 189.603 154.54C189.174 154.527 188.744 154.614 188.22 154.664C189.728 157.158 191.894 158.857 193.723 160.852C194.688 161.905 195.672 162.942 196.591 164.032C197.059 164.589 197.475 165.069 198.3 164.831C198.795 164.687 199.309 164.583 199.821 164.516C201.455 164.303 203.088 164.043 204.73 163.938C206.93 163.8 209.138 163.716 211.341 163.749C212.883 163.773 214.43 163.966 215.957 164.202C218.51 164.596 221.063 165.01 223.585 165.557C225.298 165.929 226.972 166.5 228.638 167.058C230.394 167.647 232.115 168.336 233.859 168.962C234.076 169.04 234.334 169.001 234.573 169.016C234.656 169.775 235.06 170.307 235.724 170.66C235.776 170.688 235.792 170.776 235.825 170.839C234.437 170.288 233.052 169.727 231.657 169.187C230.977 168.924 230.288 168.676 229.591 168.463C228.415 168.102 227.23 167.77 226.048 167.43C224.924 167.105 223.807 166.743 222.669 166.473C221.371 166.164 220.054 165.93 218.743 165.677C217.842 165.504 216.94 165.309 216.029 165.206C214.866 165.076 213.694 165.02 212.525 164.952C211.424 164.888 210.317 164.771 209.219 164.817C207.152 164.904 205.081 165.03 203.023 165.255C201.012 165.475 199.015 165.831 197.017 166.153C196.776 166.191 196.538 166.366 196.339 166.528C195.554 167.171 194.994 167.226 194.145 166.766C192.477 165.861 190.842 164.883 189.115 164.109C187.218 163.259 185.257 162.521 183.273 161.897C181.741 161.415 180.144 161.11 178.554 160.86C176.682 160.565 174.789 160.39 172.902 160.205C171.788 160.096 170.669 160.066 169.553 160C169.618 159.786 169.684 159.572 169.749 159.359C171.617 159.085 173.485 159.097 175.368 159.261C178.419 159.529 181.385 160.152 184.252 161.23Z" fill="#110E0D"/>
<path d="M234.454 173.713C232.123 172.592 229.739 171.54 227.288 170.729C224.819 169.912 222.26 169.33 219.706 168.823C217.592 168.404 215.431 168.101 213.28 168.003C210.563 167.877 207.832 167.962 205.11 168.046C202.998 168.11 200.892 168.344 198.78 168.432C198.042 168.463 197.293 168.285 196.549 168.202C196.536 168.076 196.524 167.951 196.513 167.826C197.145 167.636 197.767 167.349 198.411 167.274C199.79 167.116 201.18 167.04 202.566 166.982C204.767 166.89 206.968 166.801 209.17 166.788C210.953 166.777 212.739 166.837 214.518 166.948C216.016 167.042 217.512 167.212 218.997 167.432C220.152 167.603 221.296 167.87 222.432 168.148C224.358 168.619 226.3 169.048 228.186 169.649C229.811 170.166 231.391 170.847 232.947 171.55C234.071 172.058 235.138 172.698 236.206 173.32C237.01 173.788 237.775 174.318 238.589 174.842C238.587 174.565 238.586 174.341 238.584 174.117C238.666 174.449 238.798 174.777 238.818 175.113C238.843 175.537 238.776 175.965 238.749 176.392C238.575 176.322 238.383 176.28 238.231 176.18C236.975 175.352 235.798 174.358 234.454 173.713Z" fill="#110E0D"/>
<path d="M142.578 162.685C143.537 162.773 144.482 162.993 145.44 163.083C146.976 163.229 148.518 163.426 150.055 163.398C151.481 163.373 152.913 163.144 154.32 162.887C155.633 162.647 156.933 162.304 158.21 161.911C159.559 161.498 160.845 160.858 162.209 160.526C164.303 160.017 166.437 159.673 168.56 159.295C168.94 159.227 169.35 159.332 169.747 159.358C169.681 159.572 169.616 159.786 169.551 159.999C167.754 160.404 165.944 160.755 164.165 161.228C162.026 161.797 159.934 162.537 157.787 163.075C155.803 163.573 153.785 163.961 151.763 164.293C149.512 164.662 147.256 164.519 145.034 164.006C144.147 163.8 143.281 163.653 142.383 163.941C141.995 164.065 141.812 164.248 141.951 164.658C142.124 165.174 142.298 165.688 142.472 166.201C142.862 166.292 143.252 166.377 143.64 166.472C144.905 166.784 146.171 167.089 147.43 167.42C148.117 167.601 148.78 167.897 149.474 168.014C151.326 168.328 153.185 168.616 155.05 168.831C156.137 168.956 157.245 168.961 158.342 168.949C159.587 168.934 160.832 168.841 162.076 168.781C163.551 168.71 165.026 168.62 166.502 168.576C167.435 168.548 168.369 168.589 169.303 168.599C170.197 168.561 171.091 168.524 171.986 168.486C172.421 168.42 172.857 168.313 173.296 168.297C174.587 168.248 175.881 168.242 177.174 168.203C178.465 168.166 179.755 168.053 181.043 168.076C182.651 168.103 184.261 168.182 185.861 168.338C187.241 168.47 188.613 168.72 189.981 168.956C190.992 169.131 191.991 169.374 192.999 169.573C193.715 169.714 194.439 169.807 195.149 169.969C195.772 170.112 196.409 170.256 196.985 170.52C197.644 170.824 197.916 171.452 198.045 172.162C198.159 172.786 198.27 173.576 199.067 173.599C200.616 173.644 202.167 173.543 203.719 173.495C205.358 173.445 206.995 173.377 208.635 173.334C210.183 173.293 211.734 173.239 213.283 173.254C215.036 173.271 216.796 173.282 218.539 173.438C220.523 173.615 222.548 173.566 224.467 174.247C225.107 174.299 225.756 174.302 226.385 174.416C228.04 174.714 229.712 174.967 231.33 175.413C233.042 175.884 234.727 176.488 236.369 177.166C237.381 177.583 238.286 178.255 239.249 178.797C240.056 179.25 240.075 179.237 240.564 178.425C240.708 178.847 240.002 179.817 239.392 180.037C238.036 179.325 236.718 178.531 235.318 177.921C233.797 177.258 232.202 176.765 230.638 176.206C230.558 176.177 230.454 176.22 230.362 176.23C231.228 177.439 231.282 178.858 231.267 180.243C231.244 182.381 230.178 185.25 228.889 186.995C229.162 187.022 229.382 187.058 229.603 187.063C231.878 187.108 234.135 186.972 236.365 186.49C236.616 186.435 236.881 186.445 237.14 186.424C236.948 187.085 236.758 187.746 236.566 188.407C235.636 188.147 234.774 187.836 233.717 187.938C231.422 188.159 229.099 188.155 226.787 188.133C224.339 188.111 221.889 187.994 219.444 187.852C217.856 187.76 216.273 187.548 214.689 187.39C213.408 187.185 212.127 186.981 210.846 186.776C210.713 186.725 210.58 186.675 210.446 186.625C209.872 186.511 209.29 186.419 208.722 186.276C207.439 185.949 206.159 185.604 204.882 185.251C203.331 184.822 201.782 184.39 200.239 183.93C199.281 183.644 198.35 183.26 197.384 183.012C196.822 182.869 196.214 182.913 195.626 182.87C195.003 183.275 194.325 183.616 193.765 184.095C192.026 185.585 190.007 185.98 187.789 185.87C186.77 185.82 185.74 185.981 184.714 186.043C183.848 186.096 182.98 186.213 182.118 186.182C181.116 186.146 180.116 186.01 179.122 185.863C177.352 185.602 175.586 185.317 173.824 185.011C172.49 184.779 171.163 184.501 169.835 184.241C168.981 184.074 168.115 183.951 167.279 183.722C166.159 183.415 165.053 183.049 163.956 182.663C163.106 182.364 162.279 181.998 161.442 181.662C161.339 181.35 161.236 181.038 161.135 180.727C161.303 180.819 161.472 180.911 161.642 181.003C161.683 181.026 161.723 181.05 161.764 181.073C161.95 181.122 162.138 181.171 162.324 181.22C162.636 181.357 162.949 181.493 163.26 181.63C163.374 181.663 163.486 181.711 163.601 181.73C165.292 182.017 166.991 182.262 168.674 182.596C170.3 182.92 171.906 183.349 173.525 183.705C174.848 183.996 176.18 184.238 177.504 184.52C179.696 184.989 181.895 185.278 184.148 185.047C185.501 184.907 186.822 184.361 188.239 184.936C189.18 185.317 190.179 185.004 191.139 184.688C191.726 184.494 192.23 184.136 192.708 183.754C192.947 183.563 193.182 183.365 193.426 183.18C193.671 182.993 193.935 182.823 194.118 182.569C194.201 182.455 194.267 182.331 194.312 182.199C194.432 181.849 194.399 181.441 194.19 181.136C194.026 180.895 193.752 180.729 193.462 180.703C193.309 180.689 193.209 180.754 193.066 180.783C192.886 180.82 192.705 180.852 192.523 180.881C191.796 181.002 191.063 181.082 190.333 181.175C190.179 181.195 190.025 181.213 189.873 181.235C185.2 182.322 180.495 182.178 175.779 181.604C174.624 181.712 173.731 181.621 172.789 181.454C171.375 181.203 170.127 181.048 168.71 180.821C168.605 180.804 168.243 180.781 168.132 180.798C167.961 180.749 165.764 180.146 165.058 179.857C163.504 179.22 161.959 178.511 160.519 177.654C158.666 176.552 156.905 175.292 155.128 174.069C154.066 173.337 153.025 172.573 152.018 171.769C151.123 171.054 150.309 170.234 149.416 169.517C148.893 169.097 148.323 168.674 147.702 168.453C146.597 168.059 145.439 167.817 144.303 167.51C144.262 167.491 144.221 167.471 144.18 167.453C143.894 167.41 143.607 167.367 143.319 167.324C143.278 167.307 143.239 167.289 143.198 167.272C143.057 167.226 142.916 167.179 142.773 167.134C142.735 167.092 142.699 167.05 142.661 167.008C142.618 166.999 142.576 166.988 142.534 166.973C142.492 166.992 142.441 167.034 142.407 167.024C141.119 166.638 140.528 165.665 140.783 164.358C140.995 163.253 141.648 162.601 142.578 162.685ZM218.746 180.559C219.523 180.76 220.319 180.222 220.545 179.347C220.697 178.751 220.347 178.274 219.614 178.083C218.753 177.859 217.962 178.179 217.774 178.827C217.575 179.507 218.069 180.384 218.746 180.559ZM214.633 182.699C215.507 182.957 216.362 182.506 216.588 181.665C216.8 180.878 216.445 180.162 215.744 179.962C214.924 179.729 214.119 180.195 213.888 181.035C213.662 181.857 213.948 182.497 214.633 182.699ZM196.356 181.623C198.722 182.463 201.061 183.41 203.481 184.055C205.654 184.632 207.918 184.864 210.143 185.249C209.851 184.092 209.322 182.934 209.324 181.778C209.326 179.883 209.844 178.023 210.747 176.336C211.126 175.627 211.765 175.057 212.286 174.423C211.443 174.401 210.599 174.353 209.756 174.364C208.394 174.382 207.033 174.432 205.672 174.482C203.851 174.547 202.03 174.625 200.209 174.696C200.067 174.702 199.925 174.688 199.783 174.681C198.056 174.585 197.725 174.815 197.028 176.343C196.571 177.344 196.051 178.319 195.508 179.275C194.992 180.179 195.335 181.261 196.356 181.623ZM189.185 169.749C189.999 171.56 190.365 173.415 189.758 175.371C189.17 177.268 188.524 179.132 186.801 180.608C187.732 180.561 188.471 180.525 189.209 180.49C189.262 180.478 189.315 180.464 189.368 180.452C189.425 180.45 189.481 180.449 189.538 180.447C189.586 180.433 189.633 180.419 189.68 180.406C189.739 180.403 189.798 180.401 189.858 180.399C190.624 180.29 191.387 180.139 192.158 180.082C193.587 179.978 194.546 179.33 195.263 178.045C196.037 176.653 196.665 175.233 197.072 173.703C197.405 172.448 196.936 171.561 195.62 171.215C193.579 170.677 191.52 170.212 189.467 169.722C189.379 169.696 189.278 169.737 189.185 169.749C189.098 169.701 189.012 169.648 188.925 169.592C189.012 169.647 189.098 169.701 189.185 169.749ZM180.118 171.273C180.299 170.617 179.895 169.915 179.219 169.711C178.614 169.529 177.705 169.974 177.511 170.549C177.289 171.206 177.663 171.913 178.343 172.118C179.14 172.36 179.922 171.988 180.118 171.273ZM174.862 175.054C175.667 175.256 176.785 174.709 176.971 174.023C177.188 173.219 176.688 172.443 175.8 172.21C175.197 172.052 174.342 172.65 174.146 173.367C173.917 174.2 174.211 174.891 174.862 175.054ZM165.275 178.859C167.101 179.226 168.927 179.599 170.756 179.952C171.04 180.007 171.344 179.962 171.812 179.965C170.799 178.197 170.478 176.406 170.339 174.563C170.196 172.671 170.673 170.974 172.015 169.3C170.821 169.314 169.807 169.325 168.794 169.338C167.601 169.42 166.409 169.514 165.217 169.582C164.05 169.649 162.882 169.694 161.714 169.736C160.375 169.785 159.036 169.857 157.698 169.854C156.044 169.851 154.391 169.788 152.737 169.733C152.197 169.715 151.66 169.639 150.949 169.574C155.288 173.592 160.027 176.618 165.275 178.859Z" fill="#E85D53"/>
<path d="M167.304 144.736C166.009 144.446 164.657 144.32 163.326 144.296C161.449 144.262 159.547 144.233 157.696 144.493C155.483 144.805 153.315 145.421 151.129 145.919C150.836 145.986 150.565 146.139 150.277 146.234C149.249 146.574 148.222 146.924 147.186 147.235C146.764 147.362 146.443 147.213 146.364 146.587C148.059 145.975 149.734 145.25 151.477 144.771C153.423 144.239 155.417 143.829 157.415 143.557C159.315 143.298 161.254 143.146 163.167 143.204C164.999 143.259 166.849 143.518 168.639 143.921C170.335 144.302 171.963 144.986 173.619 145.542C173.68 145.562 173.723 145.636 173.775 145.686C173.706 145.911 173.636 146.136 173.567 146.361C173.451 146.36 173.328 146.383 173.219 146.353C171.249 145.809 169.297 145.182 167.304 144.736Z" fill="#110E0D"/>
<path d="M164.494 191.532C164.728 191.439 164.999 191.439 165.255 191.402C166.726 191.19 168.206 191.022 169.668 190.759C172.076 190.326 174.479 189.868 176.87 189.35C178.39 189.02 179.879 188.556 181.387 188.166C182.094 187.983 182.802 187.79 183.523 187.684C183.762 187.648 184.04 187.871 184.3 187.976C184.128 188.142 183.975 188.337 183.778 188.468C183.606 188.582 183.389 188.639 183.184 188.691C180.735 189.308 178.291 189.944 175.835 190.526C174.116 190.934 172.387 191.309 170.647 191.619C169.028 191.908 167.392 192.1 165.759 192.318C165.343 192.373 164.919 192.366 164.436 192.389C164.279 192.235 164.128 192.086 163.977 191.939C164.149 191.798 164.299 191.609 164.494 191.532Z" fill="#110E0D"/>
<path d="M160.958 181.531C158.344 180.24 155.706 178.995 153.136 177.624C151.92 176.975 150.828 176.094 149.706 175.283C149.549 175.169 149.541 174.849 149.463 174.625C149.695 174.594 149.952 174.483 150.151 174.548C150.458 174.649 150.722 174.872 151.006 175.041C153.1 176.295 155.177 177.58 157.295 178.79C158.537 179.499 159.847 180.091 161.126 180.736C161.229 181.047 161.332 181.359 161.433 181.671C161.276 181.625 161.105 181.603 160.958 181.531Z" fill="#110E0D"/>
<path d="M230.353 176.252C231.219 177.461 231.273 178.88 231.258 180.265C231.236 182.402 230.169 185.272 228.88 187.017C229.153 187.044 229.373 187.08 229.594 187.085C231.869 187.13 234.126 186.994 236.357 186.511C236.607 186.457 236.873 186.466 237.131 186.445C238.134 186.133 239.21 186.015 240.004 185.187C240.98 184.172 241.019 182.438 240.064 181.402C239.884 181.207 239.79 180.929 239.666 180.684C239.564 180.481 239.477 180.27 239.382 180.062C238.027 179.349 236.709 178.556 235.309 177.946C233.788 177.283 232.193 176.789 230.628 176.23C230.55 176.199 230.445 176.243 230.353 176.252Z" fill="#F4F3F3"/>
<path d="M212.279 174.435C211.436 174.413 210.592 174.365 209.749 174.376C208.387 174.393 207.027 174.444 205.665 174.493C203.844 174.558 202.024 174.637 200.202 174.708C200.061 174.713 199.919 174.7 199.776 174.692C198.049 174.597 197.718 174.826 197.021 176.355C196.565 177.356 196.045 178.33 195.502 179.287C194.988 180.193 195.33 181.274 196.351 181.635C198.717 182.475 201.056 183.422 203.475 184.066C205.649 184.644 207.913 184.876 210.137 185.261C209.845 184.104 209.317 182.946 209.318 181.79C209.32 179.895 209.838 178.035 210.742 176.347C211.12 175.637 211.759 175.068 212.279 174.435Z" fill="#F8F8F8"/>
<path d="M213.878 181.066C213.652 181.887 213.939 182.525 214.624 182.729C215.498 182.987 216.353 182.536 216.578 181.695C216.79 180.908 216.436 180.192 215.735 179.992C214.915 179.761 214.11 180.226 213.878 181.066Z" fill="#F4F3F3"/>
<path d="M219.61 178.095C218.75 177.871 217.959 178.192 217.771 178.839C217.573 179.52 218.065 180.398 218.743 180.572C219.52 180.772 220.316 180.235 220.542 179.36C220.695 178.762 220.344 178.285 219.61 178.095Z" fill="#F4F3F3"/>
<path d="M168.788 169.349C167.595 169.432 166.403 169.526 165.211 169.594C164.044 169.66 162.876 169.706 161.707 169.748C160.369 169.797 159.03 169.869 157.692 169.866C156.038 169.862 154.384 169.8 152.731 169.745C152.191 169.727 151.654 169.651 150.943 169.586C155.284 173.604 160.021 176.629 165.269 178.87C167.095 179.238 168.921 179.611 170.749 179.964C171.034 180.018 171.338 179.974 171.806 179.977C170.792 178.209 170.472 176.417 170.333 174.575C170.19 172.683 170.667 170.986 172.009 169.312C170.815 169.325 169.802 169.338 168.788 169.349Z" fill="#F4F4F4"/>
<path d="M189.85 180.418C190.615 180.309 191.378 180.157 192.149 180.101C193.578 179.996 194.537 179.349 195.254 178.063C196.028 176.672 196.656 175.252 197.063 173.721C197.396 172.466 196.927 171.579 195.611 171.233C193.57 170.696 191.511 170.231 189.458 169.74C189.371 169.72 189.273 169.76 189.178 169.771C189.992 171.582 190.358 173.437 189.752 175.393C189.163 177.29 188.517 179.154 186.794 180.63C187.725 180.584 188.464 180.547 189.202 180.512C189.255 180.5 189.308 180.486 189.361 180.474C189.418 180.472 189.474 180.471 189.531 180.469C189.579 180.456 189.626 180.442 189.674 180.428C189.732 180.423 189.791 180.42 189.85 180.418Z" fill="#F4F3F3"/>
<path d="M174.138 173.39C173.91 174.224 174.204 174.915 174.855 175.078C175.659 175.279 176.778 174.732 176.964 174.047C177.181 173.242 176.68 172.466 175.793 172.234C175.188 172.076 174.334 172.673 174.138 173.39Z" fill="#F4F3F3"/>
<path d="M178.338 172.136C179.135 172.377 179.916 172.004 180.113 171.291C180.294 170.635 179.89 169.933 179.214 169.729C178.609 169.547 177.699 169.992 177.506 170.567C177.285 171.224 177.66 171.931 178.338 172.136Z" fill="#F4F3F3"/>
<path d="M124.852 156.632C125.656 154.619 126.498 152.607 127.518 150.699C128.916 148.088 130.785 145.802 132.723 143.548C136.28 139.414 140.426 136.143 145.433 133.967C146.381 133.556 147.308 133.096 148.245 132.658C148.303 132.635 148.361 132.611 148.42 132.589C148.976 132.41 149.532 132.229 150.087 132.05C150.417 131.948 150.747 131.845 151.077 131.743L151.073 131.746C151.239 131.697 151.405 131.648 151.57 131.599L151.566 131.602C151.67 131.577 151.773 131.552 151.876 131.526C152.309 131.425 152.743 131.322 153.177 131.22C153.392 131.165 153.606 131.11 153.82 131.055C153.864 131.001 153.904 130.906 153.953 130.901C156.133 130.665 158.315 130.434 160.497 130.212C160.629 130.199 160.769 130.269 160.905 130.301L160.906 130.3C161.315 130.245 161.729 130.124 162.133 130.149C162.973 130.2 163.9 130.137 164.618 130.482C165.278 130.799 165.857 130.594 166.406 130.801C166.593 131.034 166.8 131.265 167.058 131.392C167.411 131.564 167.854 131.587 167.934 132.092C169.185 131.988 170.161 132.735 171.228 133.181C172.59 133.751 173.921 134.395 175.267 135.007C176.09 135.541 176.916 136.075 177.741 136.61C178.75 137.41 179.737 138.239 180.775 138.999C182.334 140.141 183.934 141.243 184.887 142.989C185.291 143.73 185.581 144.537 185.875 145.332C186.304 146.495 186.796 147.65 187.067 148.852C187.349 150.108 187.433 151.413 187.539 152.702C187.579 153.175 187.251 153.436 186.795 153.135C186.052 152.646 185.328 152.121 184.627 151.569C182.753 150.096 180.771 148.795 178.621 147.762C177.417 147.184 176.193 146.647 174.978 146.091C174.76 146.009 174.542 145.927 174.323 145.845C174.141 145.792 173.959 145.739 173.776 145.686C173.726 145.637 173.683 145.562 173.622 145.542C171.966 144.987 170.338 144.303 168.641 143.921C166.851 143.519 165.001 143.26 163.169 143.204C161.256 143.147 159.319 143.299 157.419 143.559C155.42 143.832 153.427 144.241 151.481 144.774C149.736 145.251 148.061 145.977 146.366 146.589C146.445 147.215 146.766 147.364 147.188 147.237C148.226 146.925 149.252 146.576 150.281 146.236C150.568 146.141 150.84 145.987 151.131 145.921C153.317 145.423 155.486 144.805 157.698 144.495C159.548 144.232 161.451 144.264 163.329 144.297C164.657 144.321 166.01 144.447 167.305 144.737C169.298 145.182 171.251 145.809 173.221 146.353C173.329 146.383 173.453 146.36 173.569 146.361C174.295 146.683 175.049 146.957 175.743 147.339C177.512 148.312 179.298 149.265 180.994 150.356C182.473 151.306 183.894 152.365 185.24 153.497C187.117 155.074 188.742 156.902 190.244 159.129C189.388 158.956 188.72 158.823 188.053 158.686C186.289 158.323 184.529 157.93 182.759 157.599C180.244 157.128 177.731 156.616 175.197 156.292C173.674 156.098 172.111 156.218 170.565 156.215C169.861 156.213 169.156 156.255 168.453 156.278C167.032 156.356 165.605 156.39 164.191 156.53C163.07 156.64 161.93 156.774 160.855 157.091C159.253 157.564 157.716 158.259 156.12 158.764C154.774 159.189 153.401 159.592 152.009 159.794C150.34 160.037 148.636 160.044 146.95 160.185C146.62 160.212 146.302 160.384 145.977 160.491C145.965 160.559 145.955 160.626 145.943 160.694C146.134 160.819 146.32 161.042 146.519 161.055C147.454 161.115 148.393 161.138 149.33 161.136C149.916 161.134 150.503 161.068 151.088 161.017C153.729 160.791 156.221 159.965 158.629 158.937C161.391 157.758 164.31 157.482 167.229 157.132C167.832 157.06 168.437 156.99 169.04 156.918C170.347 156.954 171.655 157.003 172.962 157.019C173.503 157.025 174.055 156.882 174.584 156.949C175.935 157.117 177.278 157.356 178.621 157.588C179.755 157.782 180.895 157.97 182.016 158.23C183.506 158.575 184.981 158.982 186.458 159.375C187.711 159.709 188.995 159.966 190.203 160.426C192.076 161.14 193.843 162.077 195.08 163.755C195.15 163.849 195.234 163.956 195.248 164.064C195.297 164.449 195.476 164.953 195.303 165.186C195.151 165.391 194.537 165.438 194.223 165.314C192.5 164.63 190.815 163.854 189.101 163.147C187.497 162.484 185.88 161.846 184.255 161.236C181.386 160.158 178.42 159.535 175.367 159.268C173.482 159.103 171.615 159.092 169.747 159.366C169.349 159.341 168.939 159.237 168.56 159.304C166.436 159.682 164.301 160.026 162.209 160.536C160.845 160.867 159.558 161.507 158.21 161.921C156.932 162.311 155.632 162.657 154.319 162.896C152.912 163.152 151.479 163.381 150.055 163.406C148.518 163.434 146.976 163.237 145.44 163.091C144.482 163 143.536 162.78 142.578 162.693C141.648 162.609 140.995 163.259 140.779 164.369C140.524 165.677 141.115 166.649 142.403 167.035C142.437 167.046 142.488 167.003 142.531 166.985C142.571 166.999 142.614 167.01 142.656 167.019C142.694 167.061 142.732 167.103 142.768 167.145C142.909 167.191 143.052 167.236 143.193 167.282L143.245 167.324L143.313 167.336C143.6 167.379 143.887 167.422 144.173 167.464C144.211 167.491 144.252 167.509 144.296 167.521C145.433 167.827 146.591 168.071 147.696 168.465C148.316 168.686 148.887 169.11 149.41 169.529C150.303 170.246 151.116 171.066 152.013 171.781C153.02 172.584 154.06 173.349 155.122 174.08C156.9 175.304 158.66 176.563 160.514 177.664C161.956 178.523 163.498 179.233 165.053 179.868C165.76 180.157 166.605 180.11 167.388 180.213C167.481 180.241 167.575 180.269 167.668 180.296C167.733 180.28 167.799 180.263 167.864 180.245C168.035 180.295 168.206 180.345 168.377 180.395C169.138 180.569 169.894 180.779 170.662 180.911C172.25 181.182 173.845 181.415 175.438 181.656C175.547 181.671 175.662 181.63 175.774 181.615C180.49 182.189 185.195 182.332 189.868 181.245C190.996 181.09 192.136 180.99 193.247 180.755C193.703 180.658 194.058 180.629 194.42 180.911C194.451 181.122 194.482 181.333 194.512 181.543C194.505 181.584 194.504 181.627 194.509 181.67C194.499 182.317 194.136 182.675 193.616 183.046C192.805 183.626 192.128 184.371 191.134 184.699C190.174 185.015 189.174 185.328 188.234 184.947C186.817 184.372 185.495 184.918 184.143 185.058C181.889 185.29 179.691 185 177.499 184.531C176.175 184.249 174.842 184.006 173.52 183.716C171.9 183.359 170.294 182.931 168.668 182.607C166.987 182.272 165.287 182.028 163.595 181.74C163.48 181.72 163.367 181.674 163.254 181.639C162.942 181.504 162.63 181.366 162.318 181.229C162.131 181.181 161.944 181.131 161.757 181.083C161.726 181.045 161.685 181.021 161.636 181.012C161.467 180.92 161.299 180.828 161.13 180.736C159.851 180.092 158.541 179.499 157.3 178.79C155.18 177.579 153.104 176.294 151.011 175.04C150.727 174.871 150.461 174.648 150.156 174.548C149.956 174.482 149.698 174.594 149.466 174.626C149.544 174.849 149.553 175.17 149.709 175.283C150.831 176.094 151.925 176.976 153.14 177.624C155.71 178.996 158.349 180.24 160.962 181.53C161.108 181.603 161.278 181.626 161.437 181.671C162.274 182.008 163.1 182.373 163.951 182.672C165.047 183.058 166.153 183.424 167.274 183.731C168.111 183.96 168.977 184.083 169.83 184.25C171.16 184.511 172.485 184.789 173.82 185.021C175.582 185.327 177.348 185.612 179.118 185.873C180.111 186.018 181.112 186.156 182.113 186.192C182.976 186.223 183.845 186.107 184.711 186.053C185.735 185.99 186.765 185.829 187.785 185.88C190.002 185.99 192.021 185.595 193.76 184.105C194.32 183.625 194.998 183.284 195.623 182.88C196.21 182.921 196.818 182.877 197.379 183.021C198.346 183.267 199.276 183.653 200.234 183.938C201.776 184.397 203.327 184.83 204.878 185.259C206.155 185.612 207.434 185.957 208.718 186.284C209.285 186.429 209.867 186.519 210.442 186.635C210.576 186.685 210.709 186.735 210.842 186.785C212.124 186.989 213.405 187.195 214.685 187.4C216.27 187.557 217.851 187.77 219.44 187.862C221.885 188.004 224.336 188.119 226.784 188.143C229.095 188.163 231.418 188.167 233.715 187.946C234.771 187.844 235.633 188.157 236.563 188.417C236.521 188.55 236.477 188.683 236.435 188.816C235.51 189.228 234.583 189.64 233.657 190.052C233.615 190.042 233.574 190.041 233.531 190.048C233.364 190.083 233.197 190.118 233.029 190.153C231.532 190.319 230.22 190.881 229.287 192.094C227.784 194.047 225.739 194.931 223.56 195.543C223.559 195.542 223.558 195.544 223.557 195.543C216.978 198.189 209.685 196.353 209.552 196.32C209.551 196.319 209.551 196.319 209.551 196.319C209.119 196.25 208.689 196.179 208.257 196.107C205.537 195.65 202.868 195.026 200.325 193.909C198.896 193.281 197.446 192.597 195.934 192.286C194.504 191.994 192.935 191.908 191.505 192.167C187.777 192.845 184.087 193.734 180.394 194.599C178.715 194.992 177.086 195.623 175.4 195.978C173.314 196.417 171.2 196.74 169.084 197.003C167.234 197.233 165.365 197.333 163.502 197.443C162.75 197.488 161.99 197.412 161.234 197.384C159.295 197.308 157.346 197.325 155.419 197.127C152.619 196.839 149.945 195.968 147.337 194.938C145.048 194.034 142.758 193.107 140.546 192.03C137.796 190.69 135.552 188.618 133.232 186.657C130.602 184.435 128.321 181.857 126.373 179.086C124.264 176.088 123.064 172.589 122.745 168.864C122.705 168.396 122.627 167.929 122.566 167.46C122.634 165.234 122.802 163.025 123.506 160.886C123.973 159.473 124.301 158.008 124.852 156.632ZM164.439 192.38C164.924 192.355 165.348 192.364 165.763 192.308C167.395 192.091 169.031 191.899 170.651 191.61C172.389 191.299 174.119 190.923 175.837 190.516C178.294 189.934 180.738 189.299 183.187 188.682C183.392 188.63 183.608 188.572 183.782 188.458C183.978 188.329 184.131 188.134 184.304 187.966C184.043 187.863 183.766 187.641 183.526 187.676C182.806 187.781 182.097 187.975 181.391 188.158C179.884 188.549 178.393 189.012 176.873 189.342C174.484 189.859 172.079 190.318 169.671 190.751C168.21 191.015 166.73 191.182 165.259 191.395C165.004 191.431 164.732 191.432 164.498 191.524C164.303 191.602 164.152 191.79 163.981 191.93C164.132 192.078 164.282 192.226 164.439 192.38Z" fill="#4D7E3D"/>
<path d="M163.308 142.521C161.578 142.274 159.815 142.157 158.124 141.749C155.229 141.049 154.177 139.126 155.253 136.42C156.476 133.342 158.84 131.363 162.074 130.747C165.064 130.177 167.527 131.487 169.448 133.726C171.01 135.55 171.7 137.618 170.689 140.015C169.741 142.262 167.779 142.369 165.789 142.436C164.968 142.464 164.144 142.409 163.321 142.393C163.316 142.436 163.311 142.479 163.308 142.521Z" fill="white"/>
<path d="M106.749 121.872C97.8033 108.301 81.238 105.182 81.238 105.182C75.7897 119.532 82.18 150.148 82.18 150.148C59.5415 184.845 51.7516 210.329 51.7516 210.329C49.7775 224.118 90.1018 245.409 91.9875 246.576C93.8733 247.743 120.001 258.721 127.966 263.945C135.932 269.17 141.32 281.75 141.32 281.75C141.743 280.951 144.509 280.838 144.509 280.838C145.212 281.367 148.349 287.83 148.349 287.83C161.632 276.792 188.173 276.411 188.173 276.411C196.461 275.798 197.43 273.657 197.43 273.657C199.797 270.291 199.23 257.22 199.23 257.22C199.122 255.773 199.834 254.732 199.834 254.732C208.969 249.03 212.127 240.245 212.127 240.245C213.123 237.247 214.483 237.425 214.483 237.425C227.472 234.554 229.123 221.689 229.123 221.689C230.542 208.045 218.644 198.368 218.644 198.368C227.227 197.91 230.463 192.096 230.463 192.096C231.552 190.462 235.102 190.683 235.102 190.683C237.156 190.525 237.734 187.092 237.734 187.092C240.569 186.192 241.237 184.378 241.237 184.378C241.995 181.897 240.276 180.318 240.276 180.318C240.878 179.966 241.563 178.873 241.563 178.873C241.598 178.176 239.605 176.21 239.605 176.21C239.85 175.341 239.735 174.244 239.735 174.244C239.546 173.125 235.653 169.457 235.653 169.457C235.886 168.437 235.602 168.085 235.602 168.085C231.491 163.232 223.676 159.534 223.676 159.534C223.925 143.187 209.488 139.37 209.488 139.37C210.39 135.725 204.024 132.309 204.446 132.315C209.176 132.379 214.229 129.801 214.229 129.801C220.912 127.086 226.468 122.807 231.233 117.462C236.294 111.784 239.328 105.143 240.609 96.5786C241.833 85.8927 238.737 75.5411 230.869 66.6669C230.733 66.512 230.613 66.2918 230.439 66.2299C229.932 66.0478 229.288 65.6855 228.91 65.8578C228.544 66.0262 228.266 66.7656 228.254 67.2616C228.196 69.7785 228.372 72.3057 228.221 74.8136C227.513 86.5041 221.703 94.9205 211.553 100.514C207.144 102.943 202.589 104.949 197.537 105.586C197.267 105.62 196.992 105.665 196.719 105.692C194.762 105.645 192.229 104.992 189.773 102.631C189.519 102.36 189.263 102.092 189.003 101.829L189.002 101.827C189.002 101.827 182.77 94.1686 174.406 92.1008C173.706 88.6233 172.825 85.4958 172.18 85.1927C169.075 83.7321 165.897 83.2675 162.539 84.0689C161.668 84.277 161.238 84.7329 161.029 85.6172C160.674 87.1191 160.483 88.6574 160.357 90.2112C160.357 90.2112 158.364 88.1842 147.768 90.0652C146.537 90.2463 145.314 90.4912 144.108 90.8011C144.102 90.8022 144.096 90.8032 144.089 90.8043L144.086 90.8048C143.591 90.9323 143.099 91.0695 142.61 91.2198C139.668 92.1231 137.096 93.8402 134.281 95.0953C131.465 96.3503 130.227 96.5952 128.25 96.3485C125.271 95.9776 122.837 94.0929 120.495 92.4364C120.494 92.4346 120.492 92.4338 120.49 92.4334C118.027 90.6888 115.794 88.6137 113.666 86.3871C108.959 81.4654 105.557 75.8587 104.775 68.9221C104.087 62.8301 105.207 56.9909 107.153 51.255C107.441 50.4039 108.202 49.4525 107.202 48.6401C106.185 47.8131 105.419 48.7913 104.681 49.2707C95.0081 55.555 89.3965 64.4747 87.6478 74.863C86.565 83.0827 87.7222 89.9982 90.5505 96.7685C92.8527 102.294 106.749 121.872 106.749 121.872Z" stroke="#110E0D" stroke-width="3.42202" stroke-miterlimit="10"/>
<path d="M212.475 153.504C215.444 153.744 217.044 152.244 216.867 149.338C216.665 146.032 215.036 143.415 212.157 141.819C209.495 140.345 206.745 140.819 204.223 142.349C202.169 143.594 200.868 145.345 201.08 147.937C201.28 150.367 203.11 151.081 204.979 151.766C205.75 152.049 206.551 152.254 207.337 152.494C207.328 152.536 210.741 153.365 212.475 153.504Z" fill="white"/>
</g>
<defs>
<clipPath id="clip0_3_1130">
<rect width="233.413" height="273.316" fill="white" transform="matrix(-0.956317 -0.292331 -0.292331 0.956317 303.518 68.3287)"/>
</clipPath>
</defs>
</svg>
