<svg width="47" height="20" viewBox="0 0 47 20" fill="none" xmlns="http://www.w3.org/2000/svg">
<path d="M46.4556 11.6334C46.0591 10.6051 45.3436 9.68608 44.4636 8.98541C42.723 7.59317 40.3635 7.10179 38.1201 7.16549C36.5149 7.21099 34.9 7.51128 33.4011 8.06635C33.3818 7.97536 33.3625 7.87526 33.3431 7.78426C33.0917 6.57401 32.879 5.35467 32.6566 4.14442C32.4825 3.18896 32.3278 2.1607 31.7379 1.34174C31.4768 0.97775 31.1094 0.75936 30.6742 0.604666C30.2101 0.440873 29.7169 0.349877 29.2334 0.26798C26.7289 -0.168801 24.147 -0.00500822 21.6521 0.386275C21.13 0.468172 20.5981 0.531869 20.0856 0.631965C19.6118 0.722961 19.1283 0.877655 18.7705 1.20524C18.4321 1.52373 18.2193 1.94231 18.0453 2.35179C17.8519 2.79767 17.6875 3.26175 17.5231 3.71673C16.9332 5.43656 16.5851 7.22919 16.3047 9.03091C15.0186 8.94901 13.7228 8.79432 12.456 8.53043C11.8081 8.39394 11.1602 8.22105 10.5414 8.00265C10.1062 7.84796 9.67107 7.69327 9.21658 7.55677C8.29793 7.28378 7.35995 7.09269 6.39295 7.04719C5.49364 7.0017 4.58467 7.08359 3.74338 7.38388C2.86341 7.69327 2.10916 8.23924 1.55797 8.94901C0.871403 9.81348 0.561964 10.869 0.784373 11.9428C1.00678 12.9892 1.65467 13.9538 2.43794 14.7091C3.20186 15.4461 4.12051 16.0194 5.04883 16.5563C6.0545 17.1387 7.08919 17.6391 8.2109 17.994C10.551 18.7402 13.0072 18.9404 15.4634 18.995C18.1806 19.0587 20.9076 18.9131 23.5765 18.4217C26.1777 17.9394 28.7015 17.1296 31.2641 16.4653C32.5405 16.1286 33.8363 15.8374 35.1514 15.6281C36.5245 15.4097 37.9074 15.3187 39.2902 15.2641C40.5086 15.2187 41.727 15.2096 42.9454 15.1823C43.806 15.1641 44.7247 15.1095 45.5273 14.7819C45.8561 14.6454 46.1462 14.4452 46.3492 14.1631C46.3782 14.1267 46.3782 14.0903 46.3589 14.0721C46.5233 13.8628 46.6297 13.6171 46.678 13.335C46.794 12.7618 46.6587 12.1703 46.4556 11.6334Z" fill="#363636"/>
<path d="M16.6913 7.92043C16.904 6.81028 17.1458 5.70013 17.4649 4.60817C17.6196 4.0804 17.7936 3.56172 17.9967 3.05214C18.1514 2.64266 18.3061 2.22407 18.5189 1.84189C18.6253 1.6599 18.751 1.47791 18.9057 1.33231C19.0701 1.17762 19.2731 1.06842 19.4859 0.986526C19.9404 0.813633 20.4432 0.768135 20.9267 0.695338C21.5069 0.613442 22.0774 0.513346 22.6576 0.440549C23.2765 0.358653 23.8954 0.304055 24.5239 0.258557C25.7714 0.17666 27.0188 0.18576 28.2565 0.331354C28.7981 0.395051 29.3396 0.486047 29.8617 0.604342C30.3162 0.704438 30.7997 0.831833 31.1769 1.10482C31.5347 1.36871 31.7571 1.79639 31.9215 2.18768C32.0955 2.60626 32.2019 3.03394 32.2889 3.47072C32.521 4.66277 32.7434 5.85482 32.9851 7.04687C33.0625 7.41086 33.1399 7.77484 33.2172 8.12973C32.608 8.36632 32.0278 8.6393 31.467 8.95779C31.1479 9.13978 30.8481 9.33088 30.5483 9.54017C29.2816 9.78586 27.9954 9.94055 26.7093 10.0315C24.4272 10.1953 22.1258 10.2317 19.8533 10.0042C19.2151 9.94055 18.5866 9.84955 17.9484 9.77676C17.6583 9.74036 17.3682 9.70396 17.0974 9.61296C16.8653 9.54017 16.6623 9.38547 16.4302 9.33087C16.5172 8.86679 16.6042 8.39361 16.6913 7.92043Z" fill="#C28A5E"/>
<path d="M27.5316 12.187C27.4736 12.187 27.4156 12.1961 27.3575 12.1961C25.9844 12.2871 24.6016 12.3235 23.2285 12.3053C21.8843 12.2871 20.5209 12.2325 19.1768 12.0687C18.5289 11.9868 17.881 11.8776 17.2428 11.7047C17.0107 11.641 16.7883 11.5773 16.5659 11.4772C16.4111 11.4044 16.2178 11.3134 16.1211 11.1678C16.1307 11.1496 16.1114 11.1314 16.092 11.1314C16.1017 11.095 16.1114 11.0677 16.1114 11.0313C16.1211 10.9585 16.1404 10.8948 16.1501 10.822C16.1791 10.6855 16.1984 10.5399 16.2274 10.4034C16.2758 10.1304 16.3241 9.85746 16.3821 9.58447C16.3918 9.54807 16.3918 9.52077 16.4015 9.48438C16.4692 9.52077 16.5369 9.56627 16.6045 9.61177C16.7109 9.67547 16.8173 9.73007 16.9333 9.77556C17.1751 9.86656 17.4458 9.91206 17.7069 9.94846C18.2678 10.0213 18.8286 10.094 19.3895 10.1577C20.5596 10.2851 21.7296 10.3579 22.8997 10.3579C25.1721 10.3488 27.4639 10.2396 29.7073 9.88476C29.8717 9.85746 30.0458 9.83016 30.2102 9.79376C29.5333 10.3033 28.9047 10.8857 28.2859 11.459C28.0441 11.6956 27.7927 11.9413 27.5316 12.187Z" fill="#B2765A"/>
<path d="M46.2427 13.8898C46.0879 14.1446 45.8655 14.3448 45.6045 14.4995C45.5754 14.5177 45.5658 14.5359 45.5561 14.5632C45.0339 14.8089 44.357 14.8725 43.8348 14.918C42.8195 14.9999 41.7945 14.9817 40.7791 14.9999C39.4157 15.0272 38.0522 15.0818 36.6984 15.2183C35.451 15.3457 34.2229 15.555 33.0142 15.828C30.5096 16.3922 28.0631 17.1748 25.5683 17.7844C22.9961 18.4123 20.3852 18.7308 17.7356 18.7945C15.2504 18.8491 12.6976 18.7854 10.2607 18.294C9.10035 18.0574 7.9593 17.7298 6.88593 17.2475C5.89959 16.8108 4.95194 16.2557 4.0623 15.6642C2.30237 14.5086 0.455406 12.5339 1.04527 10.35C1.29669 9.36728 2.04128 8.48462 2.95026 7.93864C3.72385 7.47456 4.63283 7.26527 5.53214 7.22887C6.46045 7.19247 7.38877 7.31987 8.28807 7.52916C9.26474 7.75665 10.1737 8.13883 11.131 8.42092C12.3301 8.77581 13.5872 8.9578 14.8346 9.09429C15.3181 9.14889 15.792 9.18529 16.2755 9.20349C16.2174 9.61297 16.1594 10.0225 16.1014 10.4319C16.0821 10.5684 16.0627 10.7049 16.0434 10.8414C16.0337 10.9051 16.024 10.9688 16.0144 11.0325C16.0144 11.0689 16.0047 11.1053 15.995 11.1417C15.9757 11.1599 15.966 11.1781 15.9757 11.1963C16.0144 11.3692 16.1594 11.4784 16.3141 11.5694C16.4979 11.6786 16.7106 11.7605 16.9137 11.8242C17.4359 11.988 17.9774 12.0972 18.5092 12.1791C19.8533 12.3884 21.2362 12.4521 22.5996 12.4884C24.0308 12.5248 25.4619 12.4975 26.8834 12.4157C27.0285 12.4066 27.1735 12.3975 27.3282 12.3884C26.4966 13.1982 25.665 14.0081 24.785 14.7634C23.5473 15.8189 22.1741 16.738 20.6366 17.3749C19.0604 18.021 17.3488 18.385 15.6276 18.3759C15.1924 18.3759 14.7669 18.3486 14.3415 18.2849C14.3318 18.2849 14.3125 18.3031 14.3221 18.3122C15.1247 18.4487 15.9273 18.5124 16.7396 18.4578C17.5519 18.4032 18.3642 18.2667 19.1474 18.0574C20.7236 17.6297 22.2031 16.9109 23.5183 15.9827C24.814 15.0636 25.9648 13.9808 27.0961 12.8888C28.1985 11.8242 29.3009 10.7231 30.5483 9.79496C32.3083 8.49372 34.5227 7.75665 36.7274 7.49276C38.9515 7.21977 41.3497 7.44726 43.303 8.53012C44.2603 9.06699 45.0726 9.79496 45.6625 10.6867C45.9816 11.169 46.2427 11.6968 46.378 12.2519C46.5038 12.7796 46.5328 13.3893 46.2427 13.8898Z" fill="#C28A5E"/>
<path d="M1.20001 12.0153C1.08398 11.3874 1.13233 10.7413 1.39341 10.1498C1.62549 9.60387 2.02196 9.12159 2.50546 8.75761C3.59816 7.92954 5.03899 7.67475 6.41212 7.74755C7.24374 7.79305 8.06569 7.95684 8.86829 8.13883C9.6709 8.32082 10.4638 8.51192 11.2664 8.68481C12.3301 8.9123 13.4809 9.13979 14.5929 9.06699C13.4228 8.9305 12.2624 8.74851 11.1311 8.42092C10.1737 8.13883 9.26476 7.75665 8.2881 7.52916C7.38879 7.31987 6.46047 7.19247 5.53216 7.22887C4.62318 7.26527 3.7142 7.47456 2.95028 7.93864C2.0413 8.48462 1.30638 9.35818 1.0453 10.35C0.735857 11.4966 1.10332 12.5885 1.77054 13.5258C1.49978 13.0526 1.29671 12.543 1.20001 12.0153Z" fill="#C28A5E"/>
<path opacity="0.49" d="M15.9658 10.7487C15.9174 10.7396 15.8594 10.7396 15.8111 10.7305C15.6854 10.7305 15.5597 10.7396 15.4339 10.7487C15.0568 10.776 14.6797 10.8124 14.3122 10.8579C13.5967 10.9489 12.8907 11.0763 12.1848 11.2218C11.3049 11.4038 10.3669 11.6222 9.60296 12.1045C9.30319 12.2956 9.03243 12.5413 8.88738 12.8507C8.87771 12.9417 8.87771 13.0236 8.88738 13.1146C9.18715 12.3411 10.1251 11.9589 10.8987 11.7132C11.2952 11.5949 11.7013 11.4948 12.0978 11.4129C12.7457 11.2764 13.4033 11.1491 14.0608 11.049C14.7764 10.9398 15.492 10.8488 16.2172 10.8033C16.1398 10.776 16.0528 10.7578 15.9658 10.7487Z" fill="#C28A5E"/>
<path d="M30.6933 1.59749C30.645 1.57019 30.587 1.56109 30.529 1.55199C30.5193 1.57019 30.5193 1.57929 30.529 1.59749C30.6547 1.76128 30.7514 1.93417 30.6353 2.12526C30.5193 2.30726 30.2969 2.43465 30.1035 2.53475C29.649 2.76224 29.1558 2.91693 28.653 2.99883C27.7537 3.13532 26.7964 3.06252 25.9357 2.79863C25.0654 2.53475 24.2918 2.04337 23.5376 1.56109C23.1218 1.2972 22.6769 0.987811 22.1741 0.905914C21.8453 0.851317 21.5166 0.887715 21.1974 0.942313C21.1394 0.969612 21.0911 0.996911 21.0427 1.03331C21.4102 0.969612 21.7873 0.942313 22.1548 1.03331C22.6189 1.1516 23.0251 1.45189 23.4022 1.72488C24.1661 2.25266 24.9687 2.75314 25.8874 3.01703C27.2895 3.41741 28.9237 3.33551 30.2002 2.64394C30.4323 2.51655 30.6837 2.36185 30.7997 2.13436C30.8577 2.03427 30.8674 1.92507 30.8481 1.82498C30.8094 1.72488 30.761 1.66118 30.6933 1.59749Z" fill="#363636"/>
<path d="M23.5185 15.9733C22.2034 16.9015 20.7239 17.6203 19.1477 18.048C18.8576 18.1299 18.5578 18.1936 18.2581 18.2573C18.7125 18.1936 19.1574 18.1208 19.6022 18.0207C20.2307 17.8842 20.8399 17.6931 21.4201 17.4292C21.981 17.1744 22.5128 16.8469 23.0253 16.5102C25.027 15.1907 26.7386 13.5255 28.4985 11.9331C30.1618 10.4225 31.941 8.97569 34.1071 8.13853C34.5906 7.95654 35.0935 7.79274 35.5963 7.65625C33.7783 8.01114 31.9991 8.70271 30.5389 9.78556C29.2915 10.7046 28.1988 11.8148 27.0867 12.8794C25.965 13.9714 24.8143 15.0542 23.5185 15.9733Z" fill="#C28A5E"/>
<path opacity="0.37" d="M46.4556 11.6334C46.0591 10.6051 45.3436 9.68608 44.4636 8.98541C42.723 7.59317 40.3635 7.10179 38.1201 7.16549C36.5149 7.21099 34.9 7.51128 33.4011 8.06635C33.3818 7.97536 33.3625 7.87526 33.3431 7.78426C33.0917 6.57401 32.879 5.35467 32.6566 4.14442C32.4825 3.18896 32.3278 2.1607 31.7379 1.34174C31.4768 0.97775 31.1094 0.75936 30.6742 0.604666C30.2101 0.440873 29.7169 0.349877 29.2334 0.26798C26.7289 -0.168801 24.147 -0.00500822 21.6521 0.386275C21.13 0.468172 20.5981 0.531869 20.0856 0.631965C19.6118 0.722961 19.1283 0.877655 18.7705 1.20524C18.4321 1.52373 18.2193 1.94231 18.0453 2.35179C18.0066 2.44279 17.9679 2.54288 17.9292 2.63388C18.3644 2.1061 18.9832 1.69662 19.6408 1.45093C20.5594 1.11424 21.6231 1.12334 22.4838 1.61472C22.9383 1.87861 23.3154 2.2426 23.6828 2.60658C24.0406 2.95237 24.4274 3.27995 24.9206 3.43465C25.1817 3.51654 25.4718 3.55294 25.7425 3.56204C26.0326 3.57114 26.3227 3.55294 26.6032 3.62574C26.8449 3.68944 27.019 3.83503 27.135 4.04432C27.2414 4.25361 27.2897 4.4902 27.3091 4.71769C27.3284 4.93608 27.3284 5.16357 27.3284 5.38196C27.3284 5.55486 27.3478 5.71865 27.3478 5.89154C27.3574 6.06444 27.3574 6.23733 27.3574 6.41022C27.3671 7.11999 27.3381 7.82976 27.2704 8.53953C27.2317 8.89442 27.193 9.2493 27.135 9.60419C27.0963 9.84988 27.0577 10.1047 26.961 10.3413C26.8836 10.5323 26.7772 10.7143 26.6225 10.8508C26.4581 11.0055 26.255 11.1147 26.0423 11.1966C25.7425 11.3058 25.4138 11.3786 25.1043 11.4514C24.7659 11.5242 24.4274 11.5697 24.089 11.6152C23.4024 11.6971 22.7062 11.7244 22.0196 11.7153C21.333 11.7062 20.6465 11.6516 19.9696 11.5788C19.6505 11.5424 19.341 11.4969 19.0219 11.4514C18.7318 11.4059 18.4321 11.3604 18.1516 11.2876C17.5811 11.142 17.0589 10.8417 16.7591 10.3504C16.4981 9.91357 16.4884 9.3949 16.469 8.90352C16.4304 9.3676 16.3723 9.86808 16.1306 10.2685C16.0339 10.4323 15.8889 10.5778 15.7051 10.6506C15.5407 10.7143 15.3473 10.7416 15.1636 10.7598C14.9509 10.7871 14.7285 10.8053 14.5157 10.8235C14.0516 10.8599 13.5874 10.8781 13.1232 10.96C12.6881 11.0328 12.2626 11.1329 11.8371 11.2512C11.2183 11.4241 10.6091 11.6334 10.0095 11.8609C9.99985 11.87 9.99018 11.87 9.98051 11.8791C9.73876 12.0338 9.51635 12.2249 9.34229 12.4524C10.0772 11.9974 10.9475 11.7517 11.8081 11.6425C12.7074 11.5242 13.6357 11.5242 14.5157 11.7062C15.1443 11.8336 15.7535 12.0702 16.3627 12.2704C17.1363 12.5161 17.9195 12.7527 18.7125 12.9255C19.5344 13.1075 20.366 13.1985 21.2073 13.2258C21.6038 13.2349 22.0099 13.2622 22.4064 13.2349C22.7545 13.2076 23.1123 13.1439 23.4508 13.244C23.4798 13.2531 23.4991 13.2804 23.4991 13.3077C23.4798 13.4897 23.4218 13.6535 23.3251 13.8082C23.1026 14.1813 22.7158 14.4634 22.3387 14.7C21.9036 14.973 21.4297 15.1823 20.9462 15.3733C19.8729 15.8101 18.7512 16.1832 17.6101 16.438C16.0629 16.7838 14.4577 16.9385 12.8622 16.9567C11.6341 16.9658 10.406 16.9021 9.19724 16.7201C7.98849 16.5381 6.79909 16.2287 5.69671 15.7373C4.60401 15.2459 3.608 14.5726 2.82473 13.699C1.95444 12.7345 1.30655 11.4787 1.3549 10.1957C1.37424 9.63149 1.5483 9.10371 1.84807 8.63053C1.7417 8.73972 1.645 8.84892 1.55797 8.96721C0.871403 9.83168 0.561964 10.8872 0.784373 11.961C1.00678 13.0074 1.65467 13.972 2.43794 14.7273C3.20186 15.4643 4.12051 16.0376 5.04883 16.5745C6.0545 17.1569 7.08919 17.6573 8.2109 18.0122C10.551 18.7584 13.0072 18.9586 15.4634 19.0132C18.1806 19.0769 20.9076 18.9313 23.5765 18.4399C26.1777 17.9576 28.7015 17.1478 31.2641 16.4835C32.5405 16.1468 33.8363 15.8556 35.1514 15.6463C36.5245 15.4279 37.9074 15.3369 39.2902 15.2823C40.5086 15.2368 41.727 15.2278 42.9454 15.2005C43.806 15.1823 44.7247 15.1277 45.5273 14.8001C45.8561 14.6636 46.1462 14.4634 46.3492 14.1813C46.3782 14.1449 46.3782 14.1085 46.3589 14.0903C46.5233 13.881 46.6297 13.6353 46.678 13.3532C46.794 12.7618 46.6587 12.1703 46.4556 11.6334Z" fill="#363636"/>
<path opacity="0.37" d="M22.6673 0.241092C22.5415 0.313889 22.4352 0.404885 22.3868 0.53228C22.2611 0.841667 22.5996 1.08736 22.8316 1.23295C23.1314 1.42404 23.4602 1.56054 23.76 1.75163C24.5916 2.27941 25.4425 2.82538 26.4289 3.05287C26.6803 3.10747 26.951 3.16207 27.2121 3.17117C27.4055 3.18027 27.6086 3.16207 27.802 3.16207C27.9664 3.16207 28.1404 3.18027 28.2855 3.25307C28.4499 3.32586 28.5563 3.47146 28.6336 3.62615C28.8173 4.00833 28.8173 4.46332 28.798 4.8728C28.769 5.33688 28.885 9.36801 28.798 9.88669C28.7206 10.3599 27.3572 11.6702 26.951 11.834C26.7383 11.9159 24.1854 12.2799 23.5666 12.2799C22.6092 12.289 21.6519 12.38 20.6946 12.3345C21.0524 12.4073 21.4102 12.4528 21.7776 12.4801C22.2708 12.5074 22.7736 12.5256 23.2668 12.5165C23.5666 12.5074 23.8663 12.4983 24.1564 12.5074C24.4562 12.5165 24.7656 12.5256 25.0557 12.6166C25.2588 12.6803 25.4619 12.7986 25.4812 13.017C25.5006 13.2626 25.3458 13.5174 25.2008 13.7085C24.814 14.2363 24.2821 14.6731 23.789 15.1099C23.5085 15.3556 23.2474 15.6194 22.967 15.8742C22.6479 16.1654 22.3288 16.4657 22.0484 16.7933C22.1257 16.7751 22.1934 16.7478 22.2611 16.7296C23.4118 16.3383 24.3885 15.5739 25.2588 14.7823C26.1291 13.9906 26.9317 13.1444 27.8213 12.3709C28.8367 11.4882 29.8424 10.6056 30.9447 9.82299C32.0665 9.02222 33.2849 8.36705 34.5806 7.84837C34.9288 7.71188 35.2769 7.58448 35.625 7.46619C34.8707 7.61178 34.1262 7.82107 33.4009 8.08496C33.3816 7.99397 33.3622 7.89387 33.3429 7.80287C33.0915 6.59263 32.8787 5.37328 32.6563 4.16303C32.4823 3.20757 32.3275 2.17931 31.7377 1.36035C31.4766 0.996361 31.1091 0.77797 30.674 0.623276C30.2098 0.459483 29.7167 0.368487 29.2332 0.28659C27.0671 -0.113793 24.843 -0.0409958 22.6673 0.241092Z" fill="#363636"/>
<path opacity="0.37" d="M30.4227 2.32489C30.5387 2.21569 30.6451 2.0792 30.6741 1.9245C30.7031 1.77891 30.6354 1.63332 30.529 1.53322C30.3453 1.35123 30.0939 1.25113 29.8521 1.16014C29.5717 1.06004 29.2816 0.969045 28.9915 0.896248C28.3823 0.741555 27.7538 0.632359 27.1156 0.568662C26.4967 0.495865 25.8681 0.459466 25.2493 0.450367C24.8721 0.441267 24.4853 0.423068 24.1082 0.432168C23.6924 0.441267 23.2572 0.450367 22.8608 0.586861C22.6964 0.641459 22.5223 0.741554 22.4933 0.914447C22.4933 0.932646 22.4933 0.941746 22.4836 0.959945C22.5803 1.06914 22.7157 1.16014 22.8318 1.23293C23.1315 1.42403 23.4603 1.56052 23.7601 1.75161C24.5917 2.27939 25.4426 2.82537 26.429 3.05286C26.574 3.08926 26.7191 3.11655 26.8641 3.13475C26.8931 3.10746 26.9415 3.10746 26.9705 3.14385C26.9705 3.14385 26.9705 3.15295 26.9802 3.15295C27.0575 3.16205 27.1349 3.17115 27.2123 3.17115C27.4057 3.18025 27.6087 3.16205 27.8021 3.16205C27.9665 3.16205 28.1406 3.18025 28.2856 3.25305C28.6531 3.18025 29.0205 3.08926 29.3687 2.95276C29.7555 2.77987 30.1326 2.59788 30.4227 2.32489Z" fill="#363636"/>
<path opacity="0.37" d="M46.4556 11.6348C46.0591 10.6065 45.3435 9.68745 44.4635 8.98678C43.2645 8.03132 41.7656 7.50355 40.2281 7.28516C40.0734 7.28516 39.9187 7.28516 39.7639 7.28516C38.8356 7.31246 37.9073 7.45805 37.008 7.66734C36.1377 7.87663 35.2868 8.14962 34.4648 8.5045C33.4785 8.94129 32.5502 9.49636 31.6895 10.1151C31.2544 10.4245 30.8386 10.7612 30.4324 11.0979C30.094 11.3891 29.7652 11.6894 29.4364 11.9806C28.8175 12.5265 28.1793 13.0452 27.6185 13.6458C27.3574 13.937 27.106 14.2464 26.9319 14.5921C26.8545 14.7377 26.7965 14.8924 26.7772 15.0562C26.7578 15.1745 26.7482 15.311 26.8159 15.4202C26.9319 15.6295 27.222 15.6568 27.4444 15.6568C27.7635 15.6568 28.0923 15.6022 28.4017 15.5476C29.243 15.3929 30.1037 15.3019 30.9546 15.2018C32.0763 15.0835 33.227 15.0016 34.3584 15.1745C34.4358 15.1836 34.4068 15.2746 34.3584 15.2928C33.7976 15.493 33.2464 15.7114 32.6952 15.9298C32.4051 16.0481 32.115 16.1664 31.8249 16.2938C32.9273 16.0208 34.0297 15.7751 35.161 15.5931C36.5342 15.3747 37.917 15.2837 39.2998 15.2291C40.5182 15.1836 41.7366 15.1745 42.955 15.1472C43.8157 15.129 44.7343 15.0744 45.5369 14.7468C45.8657 14.6103 46.1558 14.4102 46.3589 14.1281C46.3879 14.0917 46.3879 14.0553 46.3685 14.0371C46.5329 13.8278 46.6393 13.5821 46.6876 13.3C46.794 12.7631 46.6586 12.1717 46.4556 11.6348Z" fill="#363636"/>
<path opacity="0.37" d="M46.4554 11.6338C46.059 10.6055 45.3434 9.68648 44.4634 8.98581C43.5448 8.24874 42.4521 7.77556 41.2917 7.48438C41.9686 7.69367 42.6358 7.93936 43.245 8.29424C43.8639 8.65823 44.4151 9.12231 44.8019 9.70468C45.0049 10.0141 45.1597 10.3508 45.266 10.7056C45.3821 11.0969 45.4594 11.5064 45.4594 11.9159C45.4498 12.2708 45.3724 12.6166 45.1983 12.9259C45.0146 13.2535 44.7342 13.5083 44.4054 13.7176C43.9703 13.9906 43.4674 14.1726 42.9743 14.3364C42.4424 14.5093 41.9009 14.6458 41.3497 14.7459C40.8565 14.846 40.3537 14.9279 39.8509 14.9825C39.5027 15.0189 39.1643 15.0462 38.8162 15.0826C38.0232 15.1554 37.2303 15.2191 36.4374 15.3464C35.9442 15.4192 35.451 15.5193 34.9675 15.6467C35.0255 15.6376 35.0739 15.6285 35.1319 15.6194C36.5051 15.401 37.8879 15.31 39.2707 15.2554C40.4891 15.21 41.7075 15.2009 42.9259 15.1736C43.7865 15.1554 44.7052 15.1008 45.5078 14.7732C45.8366 14.6367 46.1267 14.4365 46.3297 14.1544C46.3587 14.118 46.3587 14.0816 46.3394 14.0634C46.5038 13.8541 46.6102 13.6084 46.6585 13.3263C46.7939 12.7622 46.6585 12.1707 46.4554 11.6338Z" fill="#363636"/>
<path opacity="0.55" d="M18.7123 11.3611C18.4319 11.2064 18.1515 10.9971 17.9968 10.7241C17.8324 10.4238 17.8227 10.078 17.842 9.75953C17.8614 9.39555 17.9097 9.04066 17.9484 8.68578C17.9968 8.2308 18.0548 7.78492 18.1225 7.32994C18.2192 6.71116 18.3352 6.09239 18.4512 5.46451C18.5093 5.03683 18.5673 4.61825 18.635 4.19967C18.6737 3.96308 18.722 3.73559 18.78 3.5081C18.8477 3.04402 18.8961 2.57994 18.9347 2.10676C18.9251 2.10676 18.9154 2.09766 18.9057 2.09766C18.6737 2.76193 18.4706 3.4353 18.2869 4.11777C18.0935 4.84574 17.9194 5.59191 17.7647 6.32898C17.61 7.07515 17.4843 7.83041 17.3489 8.57658C17.2812 8.94967 17.2135 9.32275 17.1265 9.68674C17.0684 9.94153 17.0008 10.1963 16.8944 10.442C16.7783 10.6877 16.614 10.8879 16.4109 11.0608C17.4359 11.4885 18.5576 11.6614 19.6697 11.7705C19.3409 11.6614 19.0218 11.534 18.7123 11.3611Z" fill="#C28A5E"/>
<path opacity="0.55" d="M22.7835 2.60737C22.9285 2.98045 23.0349 3.36264 23.238 3.70842C23.441 4.06331 23.7408 4.3272 24.147 4.46369C24.6014 4.61838 25.1139 4.60019 25.5781 4.49099C25.8972 4.41819 26.2163 4.2908 26.4871 4.09971C26.4774 4.09971 26.4581 4.09971 26.4484 4.09971C25.8489 4.2635 25.1816 4.11791 24.6401 3.86312C24.0503 3.59013 23.5281 3.17155 23.0833 2.72566C22.9575 2.59827 22.8415 2.47088 22.7255 2.34348C22.7061 2.31618 22.6868 2.29798 22.6578 2.27068C22.6384 2.23429 22.6191 2.20699 22.5901 2.17969C22.6578 2.30708 22.7255 2.46178 22.7835 2.60737Z" fill="#C28A5E"/>
</svg>
