<svg width="50" height="31" viewBox="0 0 50 31" fill="none" xmlns="http://www.w3.org/2000/svg">
<path fill-rule="evenodd" clip-rule="evenodd" d="M35.4947 16.4429C35.4947 16.4429 39.1994 4.4827 31.0665 1.18724C22.9336 -2.0798 16.4504 9.02815 16.4504 9.02815C15.148 10.7327 35.379 18.8293 35.4947 16.4429Z" fill="#C08547"/>
<path fill-rule="evenodd" clip-rule="evenodd" d="M35.9867 16.5579C36.2182 15.8193 39.5466 4.17158 31.2111 0.819311C22.8177 -2.56137 16.3056 8.2909 15.9872 8.80227C15.5531 9.39886 16.3346 10.2227 17.8396 11.1602C19.6919 12.2966 22.702 13.6886 25.7409 14.8534C28.7799 16.0182 31.8189 16.9841 33.6712 17.2398C35.0605 17.4102 35.9288 17.2398 35.9867 16.5579ZM30.8927 1.58636C38.4178 4.59772 35.1763 15.7057 35.0026 16.2739C35.0026 16.3023 34.9737 16.3307 34.9737 16.3875C34.9737 16.5295 34.5106 16.5011 33.7291 16.4159C31.9926 16.1602 29.0404 15.2227 26.0883 14.0864C23.1361 12.95 20.1839 11.5864 18.3895 10.5068C17.3765 9.88181 16.7687 9.45568 16.8845 9.31363L16.9134 9.28522C16.9424 9.2284 23.194 -1.53864 30.8927 1.58636Z" fill="#152013"/>
<path fill-rule="evenodd" clip-rule="evenodd" d="M41.3353 29.6751C41.3353 29.6751 49.4682 26.1239 49.1498 23.908C48.8025 21.6637 44.1138 17.5444 28.4268 11.2376C12.7399 4.93074 3.53613 3.70915 1.79956 4.87392C0.0630035 6.0671 2.06005 12.2035 4.11498 15.4421C6.16991 18.6523 36.0677 30.8682 41.3353 29.6751Z" fill="#E2A83C"/>
<path fill-rule="evenodd" clip-rule="evenodd" d="M41.6306 30.0518C42.1516 29.8245 49.9951 26.3018 49.6477 23.887C49.4451 22.5233 47.8533 20.5915 43.6566 18.0063C40.415 16.0177 35.6105 13.6597 28.6353 10.8472C21.6312 8.03471 15.9005 6.21653 11.5591 5.1938C5.97319 3.85858 2.55796 3.80176 1.48708 4.54039C0.560913 5.16539 0.503025 6.86994 0.937164 8.83017C1.42919 11.1029 2.55796 13.8018 3.71566 15.5915C4.87337 17.4097 14.0482 21.7847 23.1362 25.279C31.0665 28.3188 38.9679 30.6768 41.5438 30.0802C41.5727 30.0802 41.6017 30.0518 41.6306 30.0518ZM48.6347 23.887C48.9242 25.762 41.7753 28.9722 41.1096 29.2563C38.7363 29.7677 31.1244 27.4381 23.4256 24.512C14.5113 21.1029 5.59694 16.8983 4.555 15.279C3.45518 13.5461 2.3843 10.9893 1.89227 8.80176C1.51602 7.09721 1.51602 5.67676 2.15276 5.25062C3.02104 4.65403 6.14685 4.79608 11.3855 6.04608C15.6979 7.0688 21.3418 8.85858 28.288 11.6427C35.2053 14.4268 39.9519 16.7563 43.1356 18.7165C47.014 21.0745 48.4611 22.779 48.6347 23.887Z" fill="#152013"/>
<path fill-rule="evenodd" clip-rule="evenodd" d="M22.3257 21.5863C15.5531 18.9159 10.2566 16.3022 10.4881 15.7624C10.7197 15.2227 16.4214 16.9556 23.194 19.6261C29.9376 22.2965 35.2631 24.9102 35.0315 25.4499C34.8 25.9897 29.0983 24.2568 22.3257 21.5863Z" fill="#C08547"/>
<path fill-rule="evenodd" clip-rule="evenodd" d="M22.4707 21.187C19.1133 19.8518 16.1322 18.5449 13.9905 17.4938C12.1092 16.5563 10.9226 15.9597 10.9515 15.9313C10.9804 15.9029 12.225 16.2438 14.251 16.8688C16.5374 17.5506 19.6343 18.6586 22.9917 19.9938H23.0206C26.378 21.329 29.388 22.6359 31.5008 23.687C33.3821 24.6245 34.5398 25.2211 34.5398 25.2495C34.5109 25.2779 33.2663 24.937 31.2403 24.312C28.9539 23.6302 25.857 22.5222 22.4996 21.187H22.4707ZM13.5853 18.2324C15.7271 19.2836 18.766 20.6188 22.1523 21.954H22.1813C25.5676 23.2893 28.6934 24.3972 31.0377 25.1074C33.6136 25.9029 35.3213 26.1302 35.5239 25.6188C35.7265 25.1074 34.3662 24.1415 31.9639 22.9483C29.7932 21.8972 26.7832 20.562 23.3969 19.2268H23.3679C19.9816 17.8915 16.8558 16.7836 14.5115 16.0734C11.9356 15.2779 10.2279 15.0506 10.0253 15.562C9.7938 16.0734 11.183 17.0393 13.5853 18.2324Z" fill="#152013"/>
<path fill-rule="evenodd" clip-rule="evenodd" d="M45.0458 27.269C44.8432 27.411 44.8722 27.6951 45.0748 27.8656C45.2774 28.036 45.5958 28.0644 45.7694 27.9224C46.4062 27.411 46.0878 26.6724 45.0458 25.7349C42.3542 23.3769 34.1344 19.2576 25.5674 15.7065C17.0004 12.1554 8.05707 9.11558 4.00509 8.91672C2.23959 8.83149 1.25554 9.25763 1.34237 10.3088C1.37131 10.536 1.60284 10.7349 1.86333 10.7633C2.15276 10.7633 2.35536 10.5929 2.32642 10.3656C2.29747 9.88263 2.93421 9.71217 4.06298 9.76899C7.99918 9.96785 16.7688 12.9508 25.2201 16.4451C33.6714 19.9394 41.7753 23.9735 44.3802 26.2747C44.959 26.786 45.2195 27.1269 45.0458 27.269Z" fill="#152013"/>
<path fill-rule="evenodd" clip-rule="evenodd" d="M36.1023 11.7865C36.3339 9.8547 33.237 11.0195 32.1661 10.1956C31.5004 9.68424 31.1821 8.97402 30.5453 8.43424C29.8507 7.86606 29.0693 8.71834 28.2878 8.46265C27.5353 8.20697 27.159 7.61038 26.5223 7.21265C25.6251 6.64447 24.9305 6.75811 23.8885 6.58765C22.1809 6.30356 21.4573 4.31493 19.5761 5.05356C19.2866 5.1672 19.0551 4.76947 19.2577 4.62743C20.4443 3.74674 22.2677 4.76947 23.1939 5.7922C23.7438 6.38879 25.2488 6.07629 26.0013 6.30356C26.8696 6.55924 28.0563 8.17856 28.9824 7.95129C29.7639 7.75243 30.1112 7.61038 30.8927 8.09334C32.1082 8.83197 31.9635 10.1388 33.8738 10.0252C35.2341 9.93993 36.8259 10.6217 36.3918 11.8717C36.3339 12.0138 36.0734 11.9286 36.1023 11.7865Z" fill="#152013"/>
<path fill-rule="evenodd" clip-rule="evenodd" d="M35.9868 9.19931C34.5686 7.12545 31.6165 5.64817 29.1563 4.71067C27.796 4.1709 26.3778 3.80158 24.9596 3.5459C23.8019 3.34704 22.6732 3.46067 21.5444 3.34704C21.226 3.31863 21.1971 2.97772 21.4286 2.86408C22.3837 2.49476 23.9466 2.77886 24.9886 2.94931C26.5804 3.20499 28.1723 3.74477 29.6773 4.34136C32.2821 5.39249 34.8291 6.89817 36.1605 9.14249C36.2184 9.25613 36.0447 9.28454 35.9868 9.19931Z" fill="#152013"/>
<path fill-rule="evenodd" clip-rule="evenodd" d="M47.8823 26.2726H47.9112C48.0559 26.3294 47.9691 26.4999 47.8244 26.4431C47.7665 26.4147 47.6797 26.3862 47.6507 26.3294C47.5929 26.2726 47.6218 26.1874 47.7086 26.1874C47.7955 26.1874 47.8533 26.2158 47.9112 26.2442C48.0559 26.301 47.9691 26.4715 47.8244 26.4147H47.7955C47.6507 26.4147 47.7376 26.2158 47.8823 26.2726Z" fill="#152013"/>
<path fill-rule="evenodd" clip-rule="evenodd" d="M47.13 26.0476C48.0561 25.1953 46.0012 24.3714 45.2197 23.9737C44.583 23.6612 44.0331 23.2919 43.8016 22.6953C43.4832 21.843 43.2516 21.2464 42.036 21.1612C41.4861 21.1328 40.9941 20.9623 40.531 20.6782C39.4312 19.9964 39.0839 18.9169 38.0998 18.1214C36.8842 17.1555 36.1028 18.093 34.8293 17.8941C33.6716 17.7237 33.0638 17.1555 32.456 16.3032C31.964 15.6498 31.5588 14.9964 30.6326 14.7407C30.0538 14.5987 29.5039 14.7976 28.9829 14.9112C27.9988 15.1101 27.0437 14.6271 26.3202 14.0021C25.8571 13.6328 25.5387 13.1498 25.0756 12.7521C24.3231 12.1271 23.1943 12.2123 22.4708 12.5816C21.8051 12.951 21.1684 12.6385 20.5027 12.2407C19.4029 11.5305 19.2003 9.91119 17.5795 9.9396C16.306 9.96801 15.6982 10.6782 14.3379 10.0248C13.1223 9.42823 12.775 8.17823 11.5015 7.61005C10.7779 7.29755 10.1122 7.7521 9.50444 7.92255C9.01242 8.0646 8.43356 8.17823 7.88365 8.20664C7.1022 8.23505 6.26286 7.35437 5.62612 7.04187C3.94744 6.21801 2.50031 6.78619 1.31366 7.63846C0.937405 7.89414 0.416435 7.32596 0.79269 7.07028C2.61608 5.73505 4.69995 5.5646 6.95749 6.98505C7.44951 7.29755 7.56528 7.52482 8.17308 7.46801C8.89665 7.38278 9.53339 7.15551 10.1991 6.92823C11.0095 6.64414 12.1382 6.98505 12.8039 7.58164C14.0485 8.66119 14.5984 10.0816 16.5954 9.48505C17.5795 9.17255 18.5346 9.25778 19.4318 9.96801C20.1264 10.5362 20.9658 12.5816 22.1814 11.9566C23.0496 11.5021 24.2073 11.5305 25.1914 12.0419C26.378 12.6669 26.7543 13.9453 28.2304 14.2862C29.2434 14.5135 30.0248 13.7748 31.1246 14.201C32.2534 14.6555 32.7454 15.5646 33.4111 16.3885C34.5978 17.8941 35.6687 16.8146 37.0579 16.9566C38.0998 17.0703 38.9392 17.8373 39.518 18.576C39.8075 18.9453 40.0101 19.343 40.3284 19.7123C41.0809 20.5362 42.065 20.3941 43.049 20.6498C44.2067 20.9623 44.1489 22.2123 44.6698 22.8941C45.104 23.5191 46.5222 23.9737 47.1878 24.4282C47.9693 24.968 48.2587 25.6498 47.593 26.218C47.3326 26.4737 46.9274 26.218 47.13 26.0476Z" fill="#152013"/>
<path fill-rule="evenodd" clip-rule="evenodd" d="M36.9998 24.9957C38.5627 25.5639 40.0388 26.5582 41.1386 27.6662C41.5438 28.0639 41.949 28.5753 41.949 29.0866C41.949 29.5412 41.3412 29.8253 40.8492 29.6264C40.7044 29.5696 40.5887 29.3707 40.7044 29.2855C40.9649 29.0582 41.3122 29.0866 41.0807 28.6605C40.8202 28.1775 40.2992 27.7514 39.8651 27.3537C39.0547 26.615 37.9838 25.5923 36.9419 25.0809C36.9129 25.0241 36.9419 24.9673 36.9998 24.9957Z" fill="#152013"/>
<path fill-rule="evenodd" clip-rule="evenodd" d="M8.43324 14.0289C7.13082 13.546 4.43915 13.6028 3.91818 14.7675C3.77346 15.08 3.16566 14.8528 3.31038 14.5119C3.88923 12.921 6.95716 13.1198 8.49112 13.9153C8.54901 13.9721 8.52007 14.0857 8.43324 14.0289Z" fill="#152013"/>
<path fill-rule="evenodd" clip-rule="evenodd" d="M33.2372 24.713C33.1504 24.9119 33.0635 25.196 32.803 25.2812C32.7452 25.2812 32.6873 25.2528 32.7162 25.2244C32.7452 25.1392 32.803 25.1108 32.8609 25.0255C32.9478 24.9119 33.0056 24.7983 33.0635 24.6562C33.1214 24.5994 33.2661 24.6562 33.2372 24.713Z" fill="#152013"/>
<path fill-rule="evenodd" clip-rule="evenodd" d="M33.0634 24.8827C32.7451 24.769 32.9187 24.3713 33.2371 24.4849C33.5555 24.627 33.3818 25.0247 33.0634 24.8827Z" fill="#152013"/>
<path fill-rule="evenodd" clip-rule="evenodd" d="M32.9475 24.7382C32.7449 24.7382 32.6002 24.795 32.4265 24.8518C32.2818 24.9086 32.195 24.9654 32.0213 24.937C31.9924 24.937 31.9634 24.8802 31.9345 24.8518C31.8766 24.5109 32.5712 24.4541 32.8606 24.4257C33.1211 24.4257 33.179 24.7382 32.9475 24.7382Z" fill="#152013"/>
<path fill-rule="evenodd" clip-rule="evenodd" d="M32.3401 23.8888C32.1954 24.2297 31.906 24.5991 31.5008 24.6843C31.385 24.7127 31.2693 24.5991 31.3271 24.5138C31.414 24.4002 31.5587 24.315 31.6745 24.2297C31.8481 24.1161 31.9639 23.9456 32.0507 23.7752C32.1375 23.6616 32.427 23.7468 32.3401 23.8888Z" fill="#152013"/>
<path fill-rule="evenodd" clip-rule="evenodd" d="M31.4716 23.4612C31.2111 23.7737 30.8927 24.2282 30.4297 24.3703C30.3428 24.3987 30.256 24.285 30.3139 24.2282C30.4297 24.0578 30.6612 23.9157 30.8349 23.7737C31.0085 23.6316 31.1532 23.4612 31.2979 23.3191C31.3558 23.2339 31.5584 23.3759 31.4716 23.4612Z" fill="#152013"/>
<path fill-rule="evenodd" clip-rule="evenodd" d="M30.5456 23.3187C30.4009 23.6596 29.9668 24.1141 29.5037 24.1709C29.3879 24.1993 29.3011 24.0573 29.359 23.9721C29.4748 23.83 29.6774 23.7448 29.8221 23.6312C29.9957 23.5175 30.1694 23.3755 30.2562 23.1766C30.343 23.063 30.6035 23.1482 30.5456 23.3187Z" fill="#152013"/>
<path fill-rule="evenodd" clip-rule="evenodd" d="M29.764 23.0075C29.6482 23.32 29.3298 23.8882 28.8668 23.8882C28.8089 23.8882 28.722 23.8314 28.751 23.7746C28.8089 23.6325 28.9825 23.5757 29.0983 23.4621C29.3009 23.32 29.4167 23.1211 29.5324 22.8939C29.5903 22.8086 29.8219 22.8939 29.764 23.0075Z" fill="#152013"/>
<path fill-rule="evenodd" clip-rule="evenodd" d="M29.0693 22.7219C28.9246 23.0344 28.6352 23.4889 28.1721 23.5458C28.0274 23.5742 27.9695 23.4037 28.0274 23.3185C28.1142 23.2048 28.2589 23.1196 28.4036 23.0344C28.5773 22.9208 28.693 22.7503 28.7799 22.5798C28.8378 22.4378 29.1272 22.5514 29.0693 22.7219Z" fill="#152013"/>
<path fill-rule="evenodd" clip-rule="evenodd" d="M28.259 22.1554C28.0854 22.5531 27.7959 23.1213 27.275 23.2633C27.1303 23.3201 27.0145 23.1497 27.0724 23.0644C27.1881 22.894 27.3618 22.7804 27.5355 22.6383C27.7091 22.4679 27.8538 22.269 27.9696 22.0417C28.0564 21.8997 28.3169 22.0133 28.259 22.1554Z" fill="#152013"/>
<path fill-rule="evenodd" clip-rule="evenodd" d="M27.6514 21.9827C27.4198 22.2383 27.2462 22.6645 26.7542 22.6361C26.6384 22.6361 26.6094 22.494 26.6384 22.4372C26.7542 22.3236 26.8699 22.2383 26.9857 22.1247C27.1015 22.0111 27.2172 21.869 27.333 21.7554C27.4777 21.6133 27.7961 21.8122 27.6514 21.9827Z" fill="#152013"/>
<path fill-rule="evenodd" clip-rule="evenodd" d="M46.0588 23.0082H46.0298C46.0877 22.9798 46.1745 22.9798 46.2324 22.9514C46.1745 22.9798 46.1166 23.0082 46.0588 23.0082C45.8851 23.065 45.6536 22.9798 45.5667 22.8093C45.5378 22.7525 45.5088 22.6957 45.5088 22.6389C45.5378 22.6957 45.5667 22.7525 45.5957 22.8093C45.2773 22.4968 45.5378 22.0423 46.0009 22.1275C46.5508 22.2412 46.6376 23.0082 46.0588 23.0082Z" fill="#152013"/>
<path fill-rule="evenodd" clip-rule="evenodd" d="M41.6015 19.7949C40.9647 19.5393 41.312 18.7722 41.9488 19.0279C42.5566 19.2552 42.2092 20.0506 41.6015 19.7949Z" fill="#152013"/>
<path fill-rule="evenodd" clip-rule="evenodd" d="M34.5975 16.3291C33.9608 16.0734 34.3081 15.3064 34.9449 15.5336C35.5527 15.7893 35.2053 16.5564 34.5975 16.3291Z" fill="#152013"/>
<path fill-rule="evenodd" clip-rule="evenodd" d="M28.0275 12.4663C27.9117 12.4947 27.8828 12.4947 27.9696 12.4663C28.0275 12.4663 28.0565 12.4379 28.1143 12.4379C28.3169 12.4094 28.4906 12.5231 28.5774 12.6651C28.809 13.0344 28.4327 13.4038 27.9696 13.3185C27.6802 13.2617 27.4776 13.0629 27.4776 12.8072C27.5065 12.6083 27.767 12.4094 28.0275 12.4663Z" fill="#152013"/>
<path fill-rule="evenodd" clip-rule="evenodd" d="M21.4289 11.1309C20.7921 10.8752 21.1394 10.1082 21.7762 10.3638C22.4129 10.5911 22.0656 11.3582 21.4289 11.1309Z" fill="#152013"/>
<path fill-rule="evenodd" clip-rule="evenodd" d="M15.8427 8.12196C15.9006 8.15037 15.9296 8.20719 15.9875 8.2356C16.2479 8.46287 16.0453 8.88901 15.698 8.88901C15.6401 8.88901 15.5823 8.88901 15.4954 8.88901C15.1481 8.8606 14.9455 8.51969 15.0323 8.26401C15.1771 8.03673 15.5823 7.9231 15.8427 8.12196Z" fill="#152013"/>
<path fill-rule="evenodd" clip-rule="evenodd" d="M8.02803 6.86916C7.39129 6.61348 7.7386 5.84644 8.37534 6.10212C8.98314 6.3578 8.66477 7.12485 8.02803 6.86916Z" fill="#152013"/>
<path fill-rule="evenodd" clip-rule="evenodd" d="M4.09175 7.52544L4.12069 7.49703C4.35223 7.26976 4.96003 7.44021 4.90214 7.80953C4.90214 7.86635 4.8732 7.92317 4.81532 7.97999C4.58377 8.29249 4.03386 8.0084 4.03386 7.66749C4.0628 7.61067 4.06281 7.55385 4.09175 7.52544Z" fill="#152013"/>
<path fill-rule="evenodd" clip-rule="evenodd" d="M10.633 9.31448C9.99627 9.0588 10.3436 8.29175 10.9803 8.54743C11.5881 8.7747 11.2697 9.57016 10.633 9.31448Z" fill="#152013"/>
<path fill-rule="evenodd" clip-rule="evenodd" d="M18.3321 10.8747L18.361 10.9031C18.2742 10.8747 18.1874 10.8463 18.1295 10.8179C18.2163 10.8463 18.3031 10.8463 18.361 10.8747C18.5636 10.9599 18.7083 11.1588 18.6215 11.3292C18.5636 11.4713 18.4479 11.5565 18.2742 11.6133C17.9269 11.6985 17.4927 11.4429 17.5217 11.1304C17.5506 10.8179 18.0137 10.619 18.3321 10.8747Z" fill="#152013"/>
<path fill-rule="evenodd" clip-rule="evenodd" d="M24.0917 14.1728C23.4549 13.9172 23.8023 13.1501 24.439 13.3774C25.0468 13.6331 24.6995 14.4285 24.0917 14.1728Z" fill="#152013"/>
<path fill-rule="evenodd" clip-rule="evenodd" d="M31.0665 15.9025C31.0955 15.9593 31.1244 16.0161 31.1534 16.1013C31.1823 16.215 31.1244 16.357 31.0376 16.3854C30.9797 16.4138 30.9218 16.4422 30.835 16.4706C30.4298 16.5559 29.9667 16.215 30.1114 15.8741C30.2561 15.5047 30.835 15.5616 31.0665 15.9025Z" fill="#152013"/>
<path fill-rule="evenodd" clip-rule="evenodd" d="M37.0578 19.7676C36.4211 19.5119 36.7684 18.7449 37.4051 19.0006C38.0129 19.2278 37.6946 19.9949 37.0578 19.7676Z" fill="#152013"/>
<path fill-rule="evenodd" clip-rule="evenodd" d="M42.3252 22.5244C41.7174 22.2972 42.0358 21.5301 42.6436 21.7858C43.2514 22.0131 42.9041 22.7517 42.3252 22.5244Z" fill="#152013"/>
<path fill-rule="evenodd" clip-rule="evenodd" d="M45.7984 25.6489C45.2196 25.4216 45.5379 24.7114 46.1168 24.9387C46.6957 25.166 46.3773 25.8762 45.7984 25.6489Z" fill="#152013"/>
<path fill-rule="evenodd" clip-rule="evenodd" d="M23.2517 1.84333C25.8565 1.67287 28.4035 2.32628 30.8926 3.29219C32.8028 4.03083 35.8997 5.47969 36.4785 7.35469C36.5364 7.52515 36.247 7.61037 36.1312 7.46833C35.4076 6.67287 34.7998 5.96265 33.8737 5.33765C32.8317 4.59901 31.6161 4.05924 30.4005 3.57628C28.2588 2.72401 25.5382 1.87174 23.2806 1.92856C23.1938 1.90015 23.1649 1.84333 23.2517 1.84333Z" fill="#152013"/>
<path fill-rule="evenodd" clip-rule="evenodd" d="M34.7421 9.11593C34.7131 9.17275 34.6842 9.20115 34.6553 9.25797C34.6553 9.22956 34.6553 9.17275 34.6553 9.14434C34.6842 9.0307 34.8289 8.91706 34.9736 9.00229C35.0315 9.0307 35.0605 9.0307 35.1183 9.05911C35.0605 9.0307 35.0315 9.0307 35.0894 9.0307C35.2341 9.0307 35.3788 9.14434 35.4367 9.22956C35.6682 9.54206 35.4946 9.93979 35.0315 9.88297C34.5974 9.82615 34.3948 9.31479 34.7421 9.11593Z" fill="#152013"/>
<path fill-rule="evenodd" clip-rule="evenodd" d="M30.4877 7.18166C29.8509 6.92598 30.1983 6.15894 30.835 6.41462C31.4428 6.64189 31.0955 7.43735 30.4877 7.18166Z" fill="#152013"/>
<path fill-rule="evenodd" clip-rule="evenodd" d="M26.2622 5.73371C26.0885 5.59166 26.0596 5.50644 26.0306 5.33598C26.0306 5.05189 26.4358 4.90985 26.7252 5.02348C27.4778 5.30757 26.8121 6.18825 26.2622 5.73371Z" fill="#152013"/>
<path fill-rule="evenodd" clip-rule="evenodd" d="M22.6731 4.54024C22.0653 4.28456 22.3837 3.54592 22.9915 3.77319C23.6282 4.02888 23.2809 4.79592 22.6731 4.54024Z" fill="#152013"/>
<path fill-rule="evenodd" clip-rule="evenodd" d="M36.0736 13.2634C33.2661 12.127 30.6902 10.4225 27.9117 9.17249C26.3778 8.49067 24.8149 7.86567 23.1941 7.35431C21.6601 6.87135 20.213 6.81454 18.679 6.50204C18.3607 6.44522 18.3607 6.10431 18.6501 6.0759C19.8657 5.87704 21.3996 6.33158 22.6152 6.64408C24.236 7.07022 25.8279 7.69522 27.3908 8.37704C30.314 9.62704 33.7292 11.1611 36.1604 13.0929C36.2762 13.1782 36.1894 13.3202 36.0736 13.2634Z" fill="#152013"/>
<path fill-rule="evenodd" clip-rule="evenodd" d="M45.0458 25.7337C42.3542 23.3758 34.1344 19.2565 25.5674 15.7053C17.0004 12.1542 8.05707 9.11443 4.00509 8.91557C3.13681 8.88716 2.44218 8.94398 1.9791 9.17125C1.95016 9.05761 1.92122 8.91557 1.89227 8.80193C1.7765 8.31898 1.71862 7.89284 1.66073 7.4667C2.7895 6.75648 4.09192 6.38716 5.59694 7.09739C6.23368 7.40989 7.07302 8.29057 7.85447 8.26216C8.40438 8.23375 8.98323 8.12011 9.47526 7.97807C10.0831 7.7792 10.7487 7.35307 11.4723 7.66557C12.7747 8.23375 13.0931 9.48375 14.3087 10.0803C15.2349 10.5065 15.7848 10.336 16.4505 10.194C16.6241 10.1656 16.7688 10.1088 16.9425 10.0803C17.1161 10.0519 17.3187 10.0235 17.5213 10.0235C18.4475 9.99511 18.9106 10.5349 19.3447 11.1315C19.5473 11.4156 19.7499 11.6712 19.9815 11.9269C20.1262 12.069 20.2709 12.211 20.4445 12.3247C20.9366 12.6372 21.3997 12.8644 21.8627 12.836C22.0364 12.836 22.2101 12.7792 22.3837 12.6656C22.4127 12.6656 22.4126 12.6372 22.4416 12.6372C23.1652 12.2678 24.236 12.211 24.9886 12.836C25.4516 13.2337 25.77 13.6883 26.2331 14.086C26.3489 14.1712 26.4646 14.2849 26.5804 14.3701C27.1303 14.7678 27.767 15.0235 28.4327 15.0235C28.5774 15.0235 28.7511 15.0235 28.8958 14.9667C29.4168 14.8531 29.9667 14.6542 30.5456 14.7962C31.3559 15.0235 31.7901 15.5633 32.2242 16.1315C32.2821 16.2167 32.34 16.2735 32.3689 16.3587C32.4558 16.4724 32.5137 16.5576 32.6005 16.6428C32.7452 16.8417 32.9189 17.0122 33.0925 17.1542C33.5266 17.5519 34.0187 17.8076 34.7422 17.9212C36.0157 18.1201 36.7972 17.1826 38.0128 18.1485C38.9968 18.944 39.3441 20.0235 40.444 20.7053C40.907 20.9894 41.3991 21.1599 41.949 21.1883C43.1646 21.2735 43.3672 21.8417 43.7145 22.7224C43.946 23.3474 44.4959 23.6883 45.1327 24.0008C45.9141 24.3417 47.6217 25.0235 47.3323 25.7622C46.9271 26.0747 46.4351 26.4156 45.9431 26.7281C45.7694 26.444 45.48 26.1031 45.0458 25.7337ZM10.633 9.3133C11.2697 9.56898 11.5881 8.77352 10.9803 8.54625C10.3435 8.29057 9.99623 9.05761 10.633 9.3133ZM24.0913 14.1712C24.4097 14.2849 24.6412 14.1712 24.7281 13.9724C24.8149 13.8303 24.786 13.6031 24.6123 13.4894C24.5544 13.461 24.4965 13.4042 24.4386 13.3758C24.3808 13.3474 24.3229 13.3474 24.265 13.319C24.0334 13.2906 23.8598 13.4042 23.8019 13.5747C23.6861 13.7735 23.773 14.0292 24.0913 14.1712ZM18.5922 11.1031C18.5343 11.0178 18.4475 10.9326 18.3317 10.8758C18.3028 10.8758 18.3028 10.8758 18.2738 10.8474C18.187 10.7906 18.1002 10.7622 17.9844 10.7337C17.8108 10.7337 17.6082 10.819 17.5213 10.9326C17.4924 10.9894 17.4634 11.0178 17.4634 11.0747C17.4345 11.4156 17.8397 11.6712 18.216 11.5576C18.3028 11.5292 18.3607 11.5008 18.4186 11.444C18.4764 11.3872 18.5343 11.3303 18.5633 11.2735C18.6501 11.2735 18.6501 11.1883 18.5922 11.1031ZM30.5166 15.6201C30.343 15.6201 30.1982 15.7053 30.1114 15.8474C30.1114 15.8758 30.0825 15.9042 30.0825 15.9042C29.9956 16.2451 30.4298 16.5292 30.806 16.444C30.8929 16.4156 30.9507 16.4156 31.0086 16.3587C31.0665 16.3303 31.1244 16.2735 31.1244 16.2167C31.1533 16.1599 31.1533 16.1315 31.1244 16.0747C31.0955 16.0178 31.0665 15.961 31.0376 15.8758C30.9797 15.7906 30.9218 15.7337 30.8639 15.7053C30.7771 15.6485 30.6324 15.6201 30.5166 15.6201ZM42.6436 21.7849C42.0358 21.5576 41.7174 22.2962 42.3252 22.5235C42.9041 22.7508 43.2514 22.0122 42.6436 21.7849ZM37.405 18.9724C36.7682 18.7167 36.4499 19.5122 37.0577 19.7394C37.6944 19.9951 38.0128 19.2281 37.405 18.9724ZM4.90231 7.7792C4.9602 7.40989 4.3524 7.23943 4.12086 7.4667L4.09192 7.49511C4.06298 7.52352 4.06297 7.58034 4.03403 7.63716C4.03403 7.94966 4.58395 8.23375 4.81549 7.94966C4.87337 7.89284 4.90231 7.86443 4.90231 7.7792ZM46.1167 24.9383C45.5379 24.711 45.2195 25.4212 45.7984 25.6485C46.3772 25.8758 46.6956 25.1656 46.1167 24.9383Z" fill="#AD1C22"/>
<path fill-rule="evenodd" clip-rule="evenodd" d="M30.8639 3.29267C28.809 2.46881 26.7251 1.90062 24.5834 1.8154C26.4646 0.963123 28.6353 0.650623 30.8929 1.58812C32.9189 2.41199 34.1634 3.80403 34.887 5.39494C33.6714 4.45744 32.0506 3.74721 30.8639 3.29267Z" fill="#518E44"/>
<path fill-rule="evenodd" clip-rule="evenodd" d="M23.9175 6.61615C24.9594 6.7866 25.6251 6.64456 26.5513 7.24115C27.188 7.66728 27.5643 8.23546 28.3168 8.49115C29.0693 8.74683 29.8797 7.89456 30.5743 8.46274C31.2111 9.00251 31.5005 9.68433 32.1951 10.2241C33.0345 10.8491 35.1473 10.2809 35.8708 10.9343C35.8419 11.5593 35.813 12.1843 35.7261 12.7525C33.3239 10.9911 30.1402 9.57069 27.3906 8.37751C25.8277 7.7241 24.2648 7.0991 22.6151 6.64456C21.6021 6.36046 20.3865 6.01956 19.2867 6.01956C19.605 5.65024 19.9524 5.28092 20.3286 4.9116C21.7179 4.85478 22.4414 6.36046 23.9175 6.61615Z" fill="#E2A83C"/>
<path fill-rule="evenodd" clip-rule="evenodd" d="M26.0305 6.30226C25.278 6.07499 23.7729 6.38749 23.223 5.7909C22.6731 5.1659 21.7759 4.5409 20.9076 4.34204C21.2839 4.00113 21.6601 3.66022 22.0943 3.34772C23.0494 3.40454 24.0045 3.34772 24.9885 3.51817C26.4067 3.77385 27.8249 4.14317 29.1852 4.68294C31.5006 5.62044 34.3081 6.98408 35.7842 8.9159C35.842 9.45567 35.842 9.96703 35.842 10.4784C35.3211 10.1375 34.5686 9.96704 33.845 10.0239C31.9348 10.1375 32.1084 8.83067 30.8639 8.09204C30.0824 7.60908 29.7641 7.75113 28.9537 7.94999C28.0854 8.20567 26.8987 6.55794 26.0305 6.30226ZM26.262 5.73408C26.8119 6.18863 27.4776 5.30794 26.7251 5.02385C26.4357 4.91022 26.0305 5.05226 26.0305 5.33635C26.0305 5.50681 26.0883 5.59204 26.262 5.73408ZM22.6731 4.5409C23.2809 4.79658 23.6282 4.02954 22.9915 3.77385C22.3837 3.54658 22.0653 4.31363 22.6731 4.5409ZM30.806 6.38749C30.1693 6.13181 29.8509 6.92726 30.4587 7.15454C31.0954 7.43863 31.4428 6.64317 30.806 6.38749ZM34.6554 9.14317C34.6554 9.17158 34.6554 9.17158 34.6554 9.19999C34.4528 9.42726 34.6554 9.82499 35.0316 9.88181C35.4947 9.96704 35.6684 9.5409 35.4368 9.2284C35.35 9.14317 35.2053 9.02954 35.0895 9.02954C35.0895 9.02954 35.0895 9.02954 35.0606 9.02954C35.0316 9.00113 35.0027 9.00113 34.9738 9.00113C34.829 8.9159 34.6843 9.00113 34.6554 9.14317Z" fill="#AD1C22"/>
<path fill-rule="evenodd" clip-rule="evenodd" d="M17.8396 7.83754C20.9075 8.80345 24.3806 10.0535 28.2589 11.616C30.9506 12.6955 33.3239 13.7182 35.3788 14.6557C35.5525 14.741 35.6972 14.7978 35.8419 14.883C36.0156 14.9682 36.1603 15.025 36.305 15.1103C39.1124 16.4171 41.341 17.6103 43.0776 18.6898C47.0138 21.0762 48.4609 22.7807 48.6346 23.8887C48.6925 24.3148 48.3741 24.7978 47.8531 25.3091C47.7374 25.025 47.5058 24.7694 47.1296 24.5137C46.4639 24.0591 45.0746 23.6046 44.6116 22.9796C44.1195 22.2978 44.1485 21.0194 42.9908 20.7353C42.0357 20.4796 41.0227 20.6216 40.2702 19.7978C39.9518 19.4285 39.7492 19.0307 39.4598 18.6614C38.8809 17.9228 38.0416 17.1557 36.9996 17.0421C36.3339 16.9569 35.7262 17.1841 35.1473 17.241C34.6263 17.2978 34.1343 17.241 33.6423 16.7864C33.5265 16.7012 33.4397 16.5875 33.3239 16.4455C33.295 16.3887 33.2371 16.3319 33.2081 16.275C32.6003 15.4796 32.1083 14.6557 31.0374 14.2296C29.9376 13.775 29.1562 14.5137 28.1432 14.3148C26.6671 14.0023 26.3198 12.6955 25.1042 12.0705C24.1201 11.5591 22.9624 11.5307 22.0941 11.9853C21.8626 12.0989 21.6311 12.1273 21.4285 12.0705C21.2837 12.0421 21.139 11.9569 20.9943 11.8716C20.3286 11.4171 19.8077 10.366 19.3446 9.99663C18.5631 9.37163 17.7238 9.22959 16.8555 9.40004C16.7397 9.42845 16.624 9.45686 16.5082 9.48527C16.4793 9.48527 16.4793 9.48527 16.4503 9.51368C16.2767 9.5705 16.1319 9.59891 15.9872 9.62732C14.3954 9.85459 13.8455 8.60459 12.7167 7.61027C12.051 7.04209 10.9222 6.67277 10.1119 6.95686C9.44617 7.18413 8.80943 7.41141 8.08587 7.49663C7.47807 7.55345 7.33335 7.32618 6.87027 7.01368C4.96006 5.79209 3.16561 5.73527 1.57376 6.55913C1.6027 5.90573 1.74741 5.42277 2.09473 5.1955C2.96301 4.59891 6.08882 4.74095 11.3275 5.99095C12.9482 6.38868 14.7716 6.87163 16.7976 7.49663C16.9713 7.55345 17.1449 7.61027 17.2896 7.66709C17.5212 7.75232 17.6948 7.80913 17.8396 7.83754ZM27.9984 12.4682C27.738 12.4114 27.5064 12.6103 27.4775 12.8091C27.4485 13.0364 27.6801 13.2637 27.9695 13.3205C28.4036 13.4057 28.8088 13.0648 28.5773 12.6671C28.4905 12.525 28.3168 12.4114 28.1142 12.4398C28.0563 12.4682 28.0274 12.4682 27.9984 12.4682ZM34.9158 15.5364C34.279 15.2807 33.9317 16.0762 34.5684 16.3319C34.7132 16.3887 34.8579 16.3887 34.9736 16.3603C35.2341 16.275 35.321 15.9341 35.1473 15.7353C35.1184 15.65 35.0315 15.5932 34.9158 15.5364ZM15.9872 8.26368C15.9293 8.23527 15.9004 8.17845 15.8425 8.15004C15.582 7.95118 15.1768 8.03641 15.0611 8.29209C14.9453 8.54777 15.1768 8.88868 15.5241 8.91709C15.582 8.91709 15.6399 8.91709 15.7267 8.91709C16.0741 8.91709 16.2477 8.49095 15.9872 8.26368ZM21.7758 10.3375C21.139 10.0819 20.8207 10.8773 21.4285 11.1046C22.0652 11.3603 22.4125 10.5932 21.7758 10.3375ZM41.9199 19.0023C41.2832 18.7466 40.9648 19.5421 41.5726 19.7694C42.2093 20.0535 42.5566 19.258 41.9199 19.0023ZM46.0008 22.1557C45.5667 22.0989 45.3062 22.4966 45.5377 22.7807C45.5377 22.7807 45.5377 22.8091 45.5667 22.8091C45.6535 22.9796 45.885 23.0648 46.0587 23.008H46.0876C46.6376 22.9796 46.5507 22.241 46.0008 22.1557ZM8.02798 6.87163C8.66472 7.12732 8.98309 6.33186 8.37529 6.10459C7.73855 5.84891 7.39124 6.64436 8.02798 6.87163Z" fill="#518E44"/>
</svg>
