<svg width="82" height="96" viewBox="0 0 82 96" fill="none" xmlns="http://www.w3.org/2000/svg">
<path d="M56.945 30.2947C57.1056 30.0621 57.2721 29.811 57.2766 29.5284C57.2821 29.1773 57.0361 28.8737 56.7745 28.6396C55.8141 27.7803 54.5236 27.4176 53.3617 26.8604C52.1997 26.3032 51.0448 25.3804 50.8982 24.0999C49.9594 24.298 49.004 23.9278 48.1162 23.5647C46.1089 22.7439 44.1022 21.9231 42.0949 21.1023C41.4087 20.8217 40.7069 20.5316 40.1567 20.0344C39.8531 19.7603 39.595 19.4231 39.2314 19.2361C38.8767 19.053 38.4631 19.0345 38.0639 19.0195C37.7133 19.0065 37.3432 18.9975 37.0345 19.165C36.7259 19.3326 36.5208 19.7438 36.6989 20.0464C36.3208 19.8453 35.8351 20.1704 35.708 20.5796C35.581 20.9887 35.702 21.4294 35.8231 21.8406C32.7689 22.4693 29.9004 23.9734 27.6455 26.1272C27.2044 26.5488 26.7692 27.006 26.2045 27.2381C25.6323 27.4727 24.992 27.4497 24.3823 27.5547C22.0809 27.9513 20.5093 30.0951 19.5285 32.2144C18.9693 33.4229 18.5121 34.7904 18.8897 36.0669C19.4624 38.0016 21.7763 38.94 23.7846 38.7449C25.7923 38.5498 27.609 37.5304 29.4652 36.7401C33.021 35.2266 36.8595 34.5208 40.6609 33.8256C44.4463 33.1338 48.2483 32.4395 52.0937 32.302C52.5159 32.287 52.9675 32.2865 53.3207 32.5181C53.6738 32.7496 53.8429 33.3039 53.5417 33.6C53.5337 33.608 55.3484 34.1502 55.591 34.1412C56.1207 34.1222 56.4878 34.0381 56.4974 33.4254C56.5059 32.8332 55.8871 32.7617 55.7761 32.3215C55.632 31.7523 56.6324 30.7474 56.945 30.2947Z" fill="#110E0D"/>
<path d="M11.4058 35.7955C11.4243 36.0616 11.4673 36.3262 11.5008 36.5913C11.5253 36.7869 11.5408 36.9849 11.5794 37.178C11.6059 37.3111 11.6749 37.4361 11.7059 37.5692C11.7654 37.8243 11.7909 38.0889 11.867 38.3389C12.1661 39.3248 12.4707 40.3087 12.7898 41.2881C13.0354 42.0403 13.3035 42.7856 13.5661 43.5324C13.7107 43.9431 13.8652 44.3502 14.0138 44.7599C14.1623 45.169 14.2954 45.5847 14.4619 45.9858C14.6005 46.3199 14.7736 46.6406 14.9401 46.9627C15.1732 47.4144 15.4143 47.862 15.6529 48.3107C15.842 48.6653 16.039 49.016 16.2201 49.3746C16.4342 49.7983 16.4272 50.2469 16.3151 50.6921C16.0665 51.6805 15.8194 52.6698 15.5438 53.6507C15.3443 54.362 15.0662 55.0512 14.8836 55.766C14.4744 57.3666 14.0788 58.9717 13.7262 60.5858C13.5471 61.4026 13.4796 62.2434 13.351 63.0712C13.199 64.0476 13.0194 65.02 12.8808 65.9978C12.7343 67.0352 12.5987 68.0751 12.5037 69.1175C12.4427 69.7853 12.4702 70.4605 12.4452 71.1323C12.4267 71.639 12.3832 72.1451 12.3601 72.6518C12.3231 73.4766 12.6353 74.1814 13.0714 74.8642C13.5521 75.6164 14.2749 76.0511 15.0226 76.4488C15.6749 76.7954 16.3466 77.116 17.0354 77.3806C18.557 77.9643 20.0815 78.544 21.6291 79.0532C23.2938 79.6004 24.9714 80.1226 26.671 80.5473C28.069 80.8964 29.5046 81.102 30.9286 81.3421C32.3702 81.5852 33.8172 81.7973 35.2637 82.0139C36.6032 82.2144 37.9468 82.3885 39.2848 82.6006C41.1104 82.8897 42.9191 83.2573 44.6383 83.9651C45.4566 84.3022 46.1653 84.8164 46.8191 85.3996C47.5574 86.0574 48.2666 86.7481 48.9889 87.4239C49.1705 87.5939 49.4396 87.618 49.6146 87.4489C50.0078 87.0687 50.2054 86.9802 50.7846 87.4349C51.2327 87.7865 51.6139 88.2232 52.0225 88.6253C52.0921 88.6939 52.1476 88.7769 52.2126 88.8574C52.6153 88.4613 53.0189 88.0901 53.3936 87.6915C55.0637 85.9128 57.0264 84.5503 59.2437 83.5489C60.7303 82.8777 62.2234 82.2214 63.7144 81.5607C64.3362 81.2851 64.9744 81.042 65.5791 80.7324C65.9658 80.5343 66.3459 80.2837 66.6535 79.9801C66.9822 79.656 66.9942 79.1883 66.9747 78.7381C66.9211 77.5142 66.512 76.3677 66.2139 75.1973C66.0888 74.7071 65.9318 74.2254 65.7887 73.7397C65.4461 73.9873 65.1049 74.2364 64.7603 74.481C64.6603 74.552 64.5512 74.6651 64.4462 74.6656C64.017 74.6676 63.7219 74.9247 63.4023 75.1478C63.1507 75.3238 62.8956 75.4954 62.6325 75.653C61.9127 76.0841 61.16 76.4658 60.4732 76.9439C59.8325 77.3901 59.1707 77.7813 58.4359 78.0274C57.7442 78.2589 57.1635 78.6251 56.6893 79.1768C56.5627 79.3238 56.3952 79.4274 56.1801 79.4464C55.937 79.4679 55.6969 79.5239 55.4553 79.5649C54.9987 79.643 54.542 79.721 54.0848 79.799C54.0268 79.846 53.9708 79.9296 53.9092 79.9341C53.6707 79.9511 53.4296 79.9426 53.1895 79.9436C52.9229 79.8956 52.7618 80.0256 52.6193 80.2402C52.1321 80.974 51.6339 81.7002 51.1292 82.422C51.0722 82.503 50.9366 82.5871 50.8516 82.5746C50.7696 82.5626 50.7055 82.427 50.632 82.3475C50.565 82.2744 50.502 82.1959 50.4259 82.1334C50.3504 82.0714 50.2549 82.0329 50.1773 81.9723C49.8312 81.6992 49.4906 81.4191 49.142 81.149C49.0734 81.096 48.9819 81.0675 48.8969 81.0415C48.7338 80.9915 48.5582 80.9735 48.4052 80.9039C48.0645 80.7489 47.7404 80.5568 47.3983 80.4062C47.1732 80.3077 46.9276 80.2552 46.6915 80.1822C46.0558 80.1857 45.4196 80.1897 44.7833 80.1932C44.8578 80.3107 44.9244 80.4343 45.0079 80.5453C45.1334 80.7114 45.2895 80.8569 45.393 81.0345C45.4421 81.118 45.4376 81.2846 45.383 81.3586C45.343 81.4126 45.1455 81.4241 45.0809 81.3741C44.8298 81.178 44.5297 81.1485 44.2521 81.1645C43.4578 81.2105 42.7696 80.9119 42.0848 80.5823C41.9448 80.5143 41.7832 80.4358 41.7012 80.3147C41.5756 80.1311 41.4056 80.0841 41.219 80.0491C40.8348 79.9766 40.4477 79.9211 40.0645 79.843C38.7696 79.5804 37.4711 79.3293 36.1831 79.0362C35.4643 78.8727 34.7861 78.5521 34.0393 78.48C33.8122 78.4585 33.5871 78.3685 33.3725 78.2819C32.3161 77.8563 31.2672 77.4111 30.2078 76.9935C29.2685 76.6228 28.3582 76.1917 27.5093 75.6485C26.8661 75.2363 26.2604 74.7661 25.6446 74.312C25.5131 74.2149 25.396 74.0874 25.299 73.9543C24.6658 73.0885 24.039 72.2172 23.4123 71.3458C23.3598 71.2733 23.3238 71.1883 23.2802 71.1088C23.2802 71.1088 23.2827 71.1088 23.2827 71.1083C23.2667 71.0892 23.2507 71.0697 23.2347 71.0507C22.9311 70.469 22.604 69.8978 22.3299 69.3021C22.0418 68.6753 21.7917 68.0301 21.5476 67.3844C20.9249 65.7357 20.5507 64.0431 20.5932 62.2644C20.6092 61.5767 20.4937 60.8869 20.4737 60.1972C20.4242 58.501 20.2996 56.7949 20.8408 55.1438C21.0064 54.6391 21.2165 54.1479 21.4276 53.6597C21.7287 52.9639 22.2769 52.6663 23.0297 52.5873C24.1686 52.4673 25.297 52.2547 26.4329 52.1001C27.0582 52.0146 27.6894 51.9711 28.3171 51.902C28.8788 51.84 29.4386 51.735 30.0018 51.713C30.4459 51.6955 30.8946 51.775 31.3413 51.8115C31.1357 51.0577 30.9656 50.2994 30.9826 49.5096C30.9941 48.9879 30.9541 48.4627 30.9976 47.9446C31.0612 47.1868 31.1372 46.4255 31.2837 45.6807C31.4848 44.6613 31.8775 43.703 32.2966 42.7481C32.7243 41.7747 33.24 40.8724 33.8637 40.0491L52.9414 38.587C52.9414 38.587 61.6677 36.0771 55.4528 34.0363C49.2385 31.9956 19.92 37.6202 19.92 37.6202C19.4103 37.4071 18.8946 37.2085 18.3794 37.0079C17.9998 36.8604 17.6156 36.7233 17.236 36.5753C16.2321 36.1836 15.1917 35.943 14.1258 35.798C13.6691 35.736 13.22 35.6204 12.7638 35.5509C12.4227 35.4989 12.076 35.4824 11.7324 35.4474C11.4693 35.4209 11.3908 35.5779 11.4058 35.7955Z" fill="#C19038"/>
<path d="M13.8266 37.1948C13.8266 37.1948 17.9577 37.6335 22.0887 40.4781C22.0887 40.4781 18.9741 43.1516 17.0844 45.9536C17.0849 45.9531 14.1383 40.8512 13.8266 37.1948Z" fill="#815120"/>
<path d="M63.6881 16.0249C62.9944 12.2785 60.8451 9.09677 57.2047 6.91445C57.1412 6.87644 57.0771 6.81442 57.0106 6.81142C56.8165 6.80291 56.5564 6.74739 56.4444 6.84543C56.3359 6.94047 56.3169 7.22007 56.3649 7.38913C56.6075 8.24746 56.9321 9.08477 57.1417 9.95009C58.1185 13.9821 56.9931 17.4394 54.076 20.3945C52.809 21.678 51.447 22.8329 49.7704 23.5767C49.5938 23.6547 49.4158 23.7513 49.2292 23.7798C48.8105 23.8438 48.771 24.1024 48.784 24.4455C48.9181 27.9424 51.5651 29.9586 53.9375 30.5323C54.6492 30.7044 55.4175 30.7449 56.1528 30.7059C56.826 30.6699 57.5008 30.4768 58.057 30.0316C60.0788 28.414 61.5488 26.3843 62.6342 24.0764C63.7872 21.625 64.1403 19.059 63.6881 16.0249Z" fill="#F0860E"/>
<path d="M10.1489 24.4508C10.6346 27.3534 11.7605 29.5787 13.4501 31.5795C14.8287 33.2116 16.5073 34.444 18.3715 35.4404C19.1693 35.8671 20.1692 36.7234 20.3117 36.6944C24.6108 36.0431 27.0097 32.9795 27.1488 29.9753C27.1823 29.2571 26.9797 28.5258 26.8457 27.808C26.8212 27.676 26.6026 27.4824 26.472 27.4819C24.2407 27.4734 22.268 26.6691 20.3737 25.6317C18.2264 24.4553 16.4603 22.9097 15.4619 20.6378C14.5856 18.6426 14.362 16.5438 14.435 14.3935C14.446 14.0749 14.6096 13.6722 14.1784 13.5012C13.7392 13.3271 13.5762 13.7393 13.3701 13.9798C10.6766 17.1265 9.66622 20.7424 10.1489 24.4508Z" fill="#F0860E"/>
<path d="M36.8791 30.7809C37.0691 30.7604 37.2102 30.7514 37.3492 30.7299C39.3755 30.4158 41.4008 30.0981 43.427 29.785C44.0152 29.694 43.0709 25.732 42.6092 24.0569C42.2851 22.8799 40.1913 19.175 39.6496 19.1125C38.3376 18.96 37.1056 19.149 35.9437 19.7808C35.6426 19.9443 35.532 20.1439 35.5491 20.4625C35.6261 21.8746 36.1458 23.2536 36.4064 24.6396C36.613 25.739 36.7635 26.8489 36.858 27.9643C36.8791 28.2134 36.8225 30.7869 36.8791 30.7809Z" fill="#84878B"/>
<path d="M50.0691 30.0477C50.6403 30.0667 51.207 30.2368 51.7717 30.3363C51.1255 29.7061 50.4487 29.1329 49.876 28.4701C48.9572 27.4082 48.4835 26.1302 48.405 24.7317C48.372 24.1395 48.1629 23.7363 47.6537 23.4212C45.8985 22.3338 44.0308 21.6736 42.0226 21.5105C42.5223 22.4749 42.9664 23.4667 43.102 23.9784C43.5456 25.6561 44.3294 29.458 44.0423 29.7146C43.9428 29.8026 47.7532 29.9727 50.0691 30.0477Z" fill="#4A474A"/>
<path d="M25.7941 34.3403C27.3021 33.5095 28.9352 32.9523 30.5739 32.4466C31.4042 32.19 32.2345 31.9069 33.0703 31.6753L33.9946 31.4067C34.3653 31.2992 35.3877 31.0466 35.7583 30.9395C36.0399 30.858 36.2345 30.9085 36.3245 30.6054C36.4146 30.3028 36.4321 29.9587 36.4511 29.6451C36.4891 29.0118 36.4506 28.3776 36.4111 27.7453C36.3545 26.8415 36.2365 25.8591 36.0794 24.9698C35.2591 20.3256 33.8656 22.5224 33.5005 22.6209C32.9813 22.7605 32.5211 22.9585 32.0319 23.1821C31.4107 23.4657 30.812 23.7984 30.2457 24.1805C29.1048 24.9523 28.1094 25.9242 27.2951 27.0341C27.1781 27.1926 27.1436 27.4857 27.1966 27.6818C27.8493 30.0877 27.3116 32.237 25.8491 34.2003C25.8336 34.2213 25.8286 34.2523 25.7941 34.3403Z" fill="#4A474A"/>
<path d="M38.711 31.3337C35.9584 31.5092 33.3805 32.4096 30.7835 33.2384C28.9723 33.8166 27.1481 34.3653 25.5555 35.4477C24.3576 36.262 22.7715 36.9923 21.6296 37.8841C20.8393 38.5018 20.0735 39.5487 21.0724 40.9378C21.8026 42.0337 23.4312 41.5075 24.1865 41.0888C27.0296 39.5117 30.0882 38.4728 33.2109 37.604C39.2757 35.9164 45.446 35.2571 51.7244 35.7153C53.1089 35.8163 54.4849 36.0574 55.8579 36.2775C56.2731 36.344 56.6072 36.2895 56.9603 36.0794C57.9047 35.5172 57.8402 35.5297 57.7956 34.4423C57.7586 33.536 57.4465 33.0313 56.5617 32.7027C54.1063 31.7918 51.6388 30.906 49.0093 30.7574C46.871 30.6364 44.7177 30.6539 42.5769 30.7489C41.2834 30.8065 40 31.1296 38.711 31.3337Z" fill="#84878B" stroke="black" stroke-width="0.300113" stroke-miterlimit="10"/>
<path d="M45.6481 67.0944C45.6826 67.7386 45.7692 68.3799 45.8292 69.0226C45.8492 69.2367 45.9552 69.2847 46.1153 69.2207C46.3094 68.5874 46.4979 67.9707 46.6855 67.356C47.0542 67.501 47.3518 67.6606 47.6694 67.7356C48.8538 68.0167 50.0413 68.2888 51.2352 68.5274C51.9585 68.672 52.6928 68.77 53.426 68.8485C53.9793 68.9081 54.54 68.8991 55.0967 68.9276C56.4682 68.9971 57.8352 69.0591 59.2067 68.8651C60.6933 68.6555 62.1568 68.3709 63.5483 67.7977C64.6628 67.339 65.6716 66.7232 66.3729 65.7019C66.4144 65.6418 66.4344 65.5663 66.4564 65.5163C67.0897 66.0635 67.6554 66.5062 68.4542 66.4191C68.5262 66.5557 68.5507 66.6117 68.5487 66.7238V66.7242C69.5371 66.5217 69.263 65.5558 69.2545 65.5273C69.0114 65.6063 68.7613 65.5738 68.4942 65.5068C67.9405 65.3687 67.5148 65.0276 67.0777 64.6985C66.9326 64.5894 66.8796 64.4529 66.8721 64.2523C66.8526 63.7226 66.8206 63.1864 66.714 62.6692C66.654 62.3791 66.7511 62.2696 66.9521 62.1255C67.2092 61.9415 67.4603 61.7389 67.6739 61.5068C68.2656 60.8646 68.6758 60.1183 68.8093 59.2464C68.8869 58.7397 68.9904 58.2206 68.9544 57.7159C68.8914 56.8395 68.0961 56.2643 67.1172 56.2148C66.5145 56.1843 65.9057 56.2643 65.2995 56.3008C64.03 56.3769 62.8366 56.747 61.6806 57.2537C61.1524 57.4858 60.8843 57.952 60.7958 58.4737C60.7063 59.0003 60.8183 59.5365 61.0689 60.0232C61.2545 60.3839 61.332 60.801 61.6586 61.0901C61.8162 61.2292 61.9217 61.4263 62.0748 61.5713C62.3404 61.8229 62.656 61.9835 62.9981 62.1315C63.4023 62.3066 63.8079 62.4096 64.2331 62.4782C64.4942 62.5197 64.7573 62.5587 65.0124 62.6247C65.254 62.6867 65.4085 62.8463 65.4451 63.1094C65.5006 63.51 65.5736 63.9082 65.6256 64.3093C65.6636 64.5985 65.6872 64.8831 65.4661 65.1347C64.8398 65.8464 64.1021 66.4031 63.2102 66.7268C62.1228 67.1214 61.0549 67.5861 59.8875 67.7236C59.0807 67.8187 58.2794 67.9972 57.4711 68.0357C56.4922 68.0823 55.5083 68.0317 54.5275 68.0027C53.211 67.9642 51.909 67.8007 50.626 67.497C49.7782 67.2965 48.9088 67.1759 48.1301 66.7348C47.5829 66.4246 47.0066 66.165 46.4509 65.8694C46.0793 65.6719 45.9137 65.7344 45.7457 66.1085C45.6001 66.4331 45.6306 66.7683 45.6481 67.0944Z" fill="#110E0D"/>
<path d="M38.0925 36.3918C38.0265 36.4324 37.9605 36.4729 37.8945 36.5134C37.893 36.4789 37.8915 36.4444 37.89 36.4099C37.9575 36.4038 38.025 36.3978 38.0925 36.3918Z" fill="#110E0D"/>
<path d="M23.8875 40.9763C23.8773 40.9896 23.8645 40.9993 23.8487 41.0044C23.8615 40.9947 23.8747 40.9855 23.8875 40.9763Z" fill="#110E0D"/>
<path d="M65.7473 73.5994C65.6972 73.1907 65.8938 72.9101 66.1634 72.6165C66.7411 71.9883 67.1643 71.2545 67.4944 70.4632C67.9501 69.3713 68.3722 68.2729 68.5103 67.0854C68.5613 66.6482 68.5763 66.6487 68.4533 66.4172C67.6545 66.5037 67.0888 66.0615 66.4555 65.5138C66.4335 65.5643 66.4135 65.6394 66.372 65.6999C65.6702 66.7213 64.6614 67.3365 63.5474 67.7957C62.1559 68.3689 60.6924 68.653 59.2058 68.8631C57.8343 69.0567 56.4673 68.9946 55.0958 68.9251C54.539 68.8971 53.9783 68.9056 53.4251 68.8466C52.6914 68.768 51.9571 68.6695 51.2343 68.5255C50.0404 68.2869 48.8529 68.0148 47.6685 67.7337C47.3508 67.6581 47.0532 67.4991 46.6851 67.354C46.497 67.9687 46.3085 68.5855 46.1149 69.2187C45.9548 69.2827 45.8488 69.2342 45.8288 69.0206C45.7688 68.3779 45.6822 67.7367 45.6477 67.0924C45.6302 66.7663 45.5997 66.4312 45.7452 66.1065C45.9133 65.7324 46.0789 65.6699 46.4505 65.8675C47.0062 66.1631 47.5824 66.4227 48.1296 66.7328C48.9084 67.1739 49.7773 67.2945 50.6256 67.4951C51.9086 67.7987 53.2105 67.9622 54.5265 68.0008C55.5074 68.0293 56.4918 68.0803 57.4701 68.0338C58.279 67.9953 59.0798 67.8167 59.8866 67.7217C61.054 67.5841 62.1214 67.1194 63.2093 66.7248C64.1011 66.4012 64.8384 65.8444 65.4647 65.1327C65.6862 64.8811 65.6622 64.5965 65.6247 64.3074C65.5722 63.9062 65.4992 63.5081 65.4436 63.1074C65.4071 62.8443 65.2526 62.6848 65.0115 62.6227C64.7559 62.5567 64.4933 62.5177 64.2322 62.4762C63.807 62.4077 63.4009 62.3046 62.9972 62.1301C62.6546 61.982 62.3395 61.8214 62.0734 61.5698C61.9203 61.4248 61.8148 61.2277 61.6572 61.0887C61.3306 60.7995 61.2531 60.3824 61.0675 60.0218C60.8169 59.5351 60.7049 58.9994 60.7944 58.4727C60.8829 57.951 61.151 57.4843 61.6792 57.2527C62.8352 56.7455 64.0286 56.3759 65.2981 56.2994C65.9038 56.2628 66.513 56.1828 67.1158 56.2133C68.0946 56.2628 68.8894 56.8381 68.9525 57.7144C68.989 58.2191 68.8849 58.7383 68.8074 59.245C68.6739 60.1168 68.2637 60.8626 67.672 61.5053C67.4584 61.7369 67.2073 61.94 66.9502 62.124C66.7491 62.2681 66.6521 62.3776 66.7121 62.6678C66.8187 63.1849 66.8507 63.7211 66.8702 64.2508C66.8777 64.4509 66.9307 64.5875 67.0758 64.697C67.5129 65.0261 67.9391 65.3673 68.4928 65.5053C68.8484 65.5939 69.1735 65.6224 69.4927 65.4068C70.7001 64.5905 71.6075 63.5331 72.0376 62.1256C72.2407 61.4598 72.2437 60.763 72.2707 60.0618C72.3057 59.1529 72.0126 58.3541 71.699 57.5633C71.4574 56.9541 71.0798 56.3849 70.6896 55.8512C69.9408 54.8268 68.956 54.042 67.9196 53.3232C67.3939 52.9586 66.8637 52.6 66.3355 52.2388C66.2539 52.2393 66.0994 52.1098 66.0194 52.1193C65.3676 52.1978 64.7879 52.4009 64.1362 52.4819C63.766 52.5334 63.3959 52.5875 63.0252 52.636C62.0659 52.7615 61.1065 52.8261 60.1387 52.712C59.5944 52.648 59.0382 52.567 58.499 52.618C57.9888 52.6665 57.4536 52.7985 57.001 53.0321C55.82 53.6419 54.6726 54.3181 53.5232 54.9869C52.9995 55.2915 52.5183 55.6701 51.9886 55.9622C51.3343 56.3234 50.6576 56.6485 49.9748 56.9536C49.3776 57.2207 48.7609 57.4458 48.1471 57.6739C47.8996 57.7659 47.637 57.8189 47.3804 57.8865C46.7221 58.06 46.0699 58.2656 45.4031 58.3966C44.4343 58.5872 43.4479 58.5692 42.4675 58.4912C41.6067 58.4227 40.7434 58.3466 39.891 58.2121C38.8312 58.0445 37.8658 57.5793 36.8864 57.1597C35.776 56.684 34.7466 56.0528 33.8088 55.323C32.7939 54.5337 32.0326 53.4828 31.5434 52.2658C31.4819 52.1123 31.4074 51.9637 31.3393 51.8132C30.8927 51.7767 30.444 51.6971 29.9998 51.7146C29.4366 51.7366 28.8774 51.8417 28.3152 51.9037C27.6875 51.9727 27.0562 52.0168 26.431 52.1018C25.2956 52.2563 24.1666 52.4694 23.0277 52.589C22.2749 52.668 21.7267 52.9656 21.4256 53.6614C21.2145 54.1496 21.0045 54.6407 20.8389 55.1454C20.2977 56.797 20.4222 58.5027 20.4718 60.1988C20.4918 60.8886 20.6073 61.5783 20.5913 62.2661C20.5488 64.0448 20.9234 65.7374 21.5462 67.3855C21.7903 68.0313 22.0403 68.677 22.3285 69.3037C22.6021 69.8995 22.9297 70.4702 23.2333 71.0519C23.2493 71.0714 23.2653 71.0904 23.2813 71.1099L23.2788 71.1104C23.3979 71.1389 23.5214 71.1554 23.6349 71.1975C25.1515 71.7632 26.6526 72.3734 28.1857 72.8896C29.6547 73.3843 31.1478 73.8159 32.6463 74.2141C34.2709 74.6457 35.9071 75.0419 37.5517 75.3885C38.9187 75.6766 40.3017 75.8942 41.6842 76.0978C42.7226 76.2509 43.7695 76.3604 44.8164 76.4364C45.6607 76.4974 46.511 76.4884 47.3589 76.4944C48.6378 76.5034 49.9173 76.518 51.1958 76.4924C52.2652 76.4714 53.3336 76.4009 54.402 76.3424C54.7651 76.3224 55.1278 76.2799 55.4894 76.2353C56.0886 76.1613 56.6864 76.0783 57.2846 75.9983C57.9403 75.9102 58.6031 75.8567 59.2503 75.7262C60.9064 75.3925 62.498 74.8398 64.0706 74.2311C64.6283 74.015 65.1885 73.8094 65.7473 73.5994ZM65.5002 70.3126C65.4742 70.2861 65.4486 70.2591 65.4226 70.2326C65.4687 69.871 65.5062 69.5078 65.5622 69.1472C65.6597 68.517 65.4526 68.3334 64.8369 68.5024C64.4303 68.614 64.0171 68.701 63.6115 68.8151C63.5329 68.8371 63.4559 68.9226 63.4109 68.9981C63.2723 69.2312 63.1558 69.4778 63.0157 69.7094C62.9782 69.7714 62.8862 69.7999 62.8397 69.8304C62.7531 69.4223 62.6731 69.0436 62.5926 68.6655C62.5481 68.4579 62.6316 68.3489 62.8342 68.2909C63.674 68.0503 64.5648 68.0798 65.3971 67.7927C66.0119 67.5811 66.6386 67.4055 67.2568 67.204C67.5159 67.1194 67.8706 67.2395 67.9581 67.4641C68.1242 67.8887 67.8861 68.729 67.5134 69.0041C67.4689 69.0366 67.3779 69.0446 67.3299 69.0211C67.2928 69.0031 67.2743 68.9171 67.2738 68.8611C67.2718 68.645 67.2843 68.4289 67.2828 68.2128C67.2823 68.0778 67.2198 67.9747 67.0688 68.0123C66.8682 68.0618 66.6941 68.1368 66.6106 68.3704C66.4035 68.9476 66.2459 69.5528 65.8353 70.034C65.7433 70.1441 65.6132 70.2211 65.5002 70.3126Z" fill="white"/>
<path d="M23.6365 71.1981C25.1526 71.7638 26.6541 72.3741 28.1867 72.8903C29.6562 73.3849 31.1488 73.8166 32.6474 74.2148C34.272 74.6469 35.9081 75.0426 37.5532 75.3892C38.9197 75.6768 40.3027 75.8944 41.6853 76.0985C42.7237 76.251 43.7705 76.3611 44.8174 76.4371C45.6623 76.4981 46.5126 76.4891 47.3599 76.4946C48.6389 76.5036 49.9184 76.5181 51.1968 76.4931C52.2662 76.4716 53.3346 76.4016 54.403 76.3431C54.7667 76.3231 55.1288 76.2805 55.4904 76.236C56.0897 76.162 56.6874 76.0785 57.2856 75.9984C57.9414 75.9109 58.6041 75.8569 59.2514 75.7263C60.9075 75.3927 62.4991 74.84 64.0717 74.2318C64.6284 74.0162 65.1891 73.8106 65.7478 73.6005C65.7613 73.6475 65.7753 73.6946 65.7888 73.7416C65.4462 73.9892 65.1051 74.2383 64.7604 74.4829C64.6604 74.5539 64.5514 74.6669 64.4463 74.6674C64.0172 74.6694 63.722 74.9265 63.4024 75.1496C63.1508 75.3257 62.8957 75.4972 62.6326 75.6548C61.9129 76.086 61.1601 76.4676 60.4733 76.9458C59.8326 77.3919 59.1708 77.7831 58.4361 78.0292C57.7443 78.2608 57.1636 78.6269 56.6894 79.1786C56.5629 79.3257 56.3953 79.4292 56.1802 79.4482C55.9371 79.4697 55.697 79.5258 55.4554 79.5668C54.9988 79.6448 54.5201 79.9489 54.0634 80.0269C53.8168 80.0289 53.5692 80.0234 53.3236 80.0399C53.2691 80.0435 53.2196 80.1255 53.1681 80.1715C52.901 80.123 52.7619 80.0274 52.6194 80.242C52.1147 81.1989 51.5245 82.0887 50.7812 82.875C50.7542 82.5989 50.5706 82.3603 50.354 82.1873C50.1374 82.0142 49.8858 81.8916 49.6533 81.7406C49.2991 81.509 48.9805 81.2049 48.5764 81.0803C48.3673 81.0158 48.1462 81.0033 47.9301 80.9728C47.2984 80.8833 46.6906 80.6302 46.1815 80.2455C46.2055 80.3176 46.229 80.3891 46.253 80.4611C45.8323 80.4171 45.4122 80.3736 44.9915 80.3296C45.3221 80.6942 45.6778 81.1449 45.5662 81.6245C45.4397 81.5685 45.3206 81.4955 45.2131 81.408C45.1746 81.377 45.1376 81.3439 45.1025 81.3094C45.106 81.3374 45.1096 81.3649 45.1131 81.3925C45.1151 81.412 45.1176 81.4315 45.1201 81.451C44.954 81.2929 44.6939 81.3144 44.4648 81.3174C43.9206 81.3244 43.3834 81.1514 42.8507 80.9208C42.5916 80.8237 42.338 80.7062 42.0849 80.5842C41.9944 80.5401 41.8948 80.4916 41.8138 80.4301C41.4107 80.2365 41.009 80.0565 40.6084 79.9444C40.6079 79.9444 40.6074 79.9439 40.6069 79.9439C40.4258 79.9134 40.2447 79.8814 40.0647 79.8449C38.7697 79.5823 37.4712 79.3312 36.1832 79.0381C35.4644 78.8745 34.7862 78.5539 34.0394 78.4819C33.8123 78.4604 33.5872 78.3703 33.3726 78.2838C32.3162 77.8581 31.2674 77.413 30.208 76.9953C29.2686 76.6247 28.3583 76.1935 27.5094 75.6503C26.8662 75.2381 26.2605 74.768 25.6447 74.3138C25.5132 74.2168 25.3961 74.0892 25.2991 73.9562C24.6659 73.0903 24.0391 72.219 23.4124 71.3477C23.3599 71.2752 23.3239 71.1901 23.2804 71.1106C23.3994 71.1391 23.5229 71.1556 23.6365 71.1981Z" fill="#DDDDDC"/>
<path d="M72.0519 43.3963C71.7798 43.2303 71.5072 43.0637 71.2351 42.8976C71.1695 42.8921 71.101 42.8976 71.0395 42.8796C70.5323 42.7311 70.0361 42.5185 69.5189 42.4395C68.6221 42.3024 67.7143 42.1939 66.8089 42.1734C65.8971 42.1524 64.9787 42.2194 64.0699 42.3114C63.3176 42.3874 62.5618 42.5075 61.83 42.6951C60.9057 42.9316 59.9984 43.2403 59.0935 43.5474C58.3917 43.7855 57.709 44.0801 57.0097 44.3262C56.7651 44.4122 56.4955 44.4292 56.2374 44.4777C56.2204 44.4367 56.2034 44.3962 56.1869 44.3552C56.3795 44.2266 56.5586 44.0666 56.7671 43.9755C57.2133 43.781 57.672 43.6129 58.1312 43.4513C58.8599 43.1947 59.5892 42.9391 60.3265 42.7091C60.9237 42.5225 61.5289 42.3594 62.1372 42.2144C62.6493 42.0923 63.1685 41.9958 63.6892 41.9173C64.0944 41.8562 64.5055 41.8287 64.9152 41.8052C65.6095 41.7657 66.3052 41.7107 66.9995 41.7187C67.5977 41.7257 68.1974 41.7922 68.7917 41.8682C69.2208 41.9233 69.6445 42.0288 70.0666 42.1278C70.3843 42.2024 70.6954 42.3019 71.022 42.3939C70.993 42.3014 70.9695 42.2264 70.946 42.1514C70.5248 41.8797 70.1036 41.6076 69.6825 41.336C69.1603 41.2935 68.6381 41.2475 68.1149 41.2095C67.8598 41.191 67.6032 41.1785 67.3476 41.1785C66.916 41.178 66.4843 41.188 66.0531 41.195C65.6425 41.2015 65.2308 41.1945 64.8212 41.2205C64.354 41.25 63.8883 41.3065 63.4226 41.3561C63.1025 41.3906 62.7799 41.4176 62.4638 41.4766C62.0601 41.5521 61.6615 41.6537 61.2623 41.7507C60.8862 41.8422 60.503 41.9163 60.1394 42.0443C59.4546 42.2854 58.7729 42.54 58.1056 42.8266C57.4534 43.1067 56.8202 43.4308 56.1829 43.744C56.1059 43.7815 56.0439 43.8645 55.9938 43.939C55.7963 44.2356 55.6142 44.3112 55.2821 44.2441C54.6298 44.1116 53.9811 43.951 53.3223 43.8685C52.5986 43.778 51.8653 43.7314 51.1355 43.7254C50.5723 43.7209 50.0051 43.7825 49.4459 43.8615C48.7876 43.9545 48.1349 44.0901 47.4827 44.2216C47.0985 44.2992 46.7194 44.4037 46.3382 44.4962C45.777 44.8164 45.2058 45.12 44.6576 45.4611C43.9983 45.8712 43.3721 46.3339 42.7074 46.7346C42.0926 47.1052 41.4554 47.4423 40.8111 47.761C40.0939 48.1156 39.3226 48.2992 38.5243 48.3547C38.2057 48.3767 37.9001 48.4162 37.6285 48.6048C37.5109 48.6863 37.4684 48.7663 37.5569 48.8899C37.668 49.0449 37.779 49.1995 37.8901 49.3541C38.0301 49.3446 38.1697 49.333 38.3097 49.325C38.7659 49.3 39.2221 49.2725 39.6782 49.2545C39.9273 49.2445 40.1799 49.276 40.425 49.244C41.0782 49.1595 41.7315 49.0654 42.3792 48.9464C42.7569 48.8769 43.129 48.7648 43.4957 48.6483C43.9118 48.5157 44.32 48.3567 44.7311 48.2091C45.2188 48.0341 45.7045 47.8525 46.1952 47.6864C46.5053 47.5814 46.8229 47.4994 47.137 47.4068C47.4331 47.3023 47.7292 47.1982 48.0254 47.0937C48.1649 47.0272 48.3 46.9467 48.4455 46.8961C48.8737 46.7471 49.3073 46.6125 49.737 46.467C50.1662 46.3219 50.5873 46.1519 51.022 46.0273C51.5642 45.8717 52.1124 45.7332 52.6651 45.6212C53.1418 45.5241 53.6275 45.4671 54.1106 45.4061C54.4678 45.3611 54.8279 45.34 55.1865 45.3035C55.4411 45.2775 55.6937 45.2345 55.9483 45.216C56.1719 45.2 56.4005 45.183 56.6206 45.2125C56.8732 45.2465 57.0287 45.4296 57.1448 45.6547C57.2468 45.8522 57.3654 46.1058 57.635 46.0318C58.1592 45.8883 58.6694 45.6952 59.185 45.5201C59.7298 45.335 60.272 45.1445 60.8177 44.9619C61.3329 44.7893 61.8475 44.6123 62.3687 44.4582C62.9585 44.2842 63.5502 44.1076 64.1509 43.981C64.8347 43.837 65.5089 43.6129 66.2222 43.6444C66.4423 43.5964 66.6604 43.5309 66.8829 43.5044C67.4687 43.4348 68.0554 43.3483 68.6441 43.3318C69.2668 43.3143 69.8941 43.3443 70.5143 43.4033C70.8964 43.4393 71.2691 43.5719 71.6477 43.6549C71.9658 43.7254 71.9708 43.7189 72.0519 43.3963Z" fill="#4D7E3D"/>
<path d="M50.1063 37.0796C50.2673 37.3297 50.4389 37.5738 50.6205 37.8094C51.1617 38.5121 51.6643 39.2384 52.051 40.0392C52.1395 40.2218 52.2421 40.2863 52.4646 40.2248C53.1039 40.0487 53.7521 39.9047 54.3984 39.7536C54.7675 39.6671 55.1387 39.59 55.5093 39.5115C56.0635 39.3935 56.6162 39.2654 57.1739 39.1649C57.6441 39.0804 58.1198 39.0233 58.5944 38.9643C59.0616 38.9068 59.5293 38.8343 59.998 38.8198C60.5962 38.8013 61.1954 38.8353 61.7942 38.8453C62.3429 38.8543 62.8916 38.8603 63.4403 38.8713C63.963 38.8813 64.066 38.8718 64.088 38.3566C64.0695 38.3246 64.0505 38.2926 64.0315 38.26C63.987 38.142 63.9425 38.024 63.8979 37.9059C63.8919 37.8759 63.8854 37.8459 63.8789 37.8159C63.8654 37.7959 63.8514 37.7759 63.8379 37.7559C63.6088 37.4122 63.3993 37.0541 63.1467 36.729C62.8681 36.3708 62.5639 36.0302 62.2478 35.7041C61.5185 34.9533 60.5867 34.5337 59.6363 34.15C59.6188 34.148 59.6018 34.146 59.5848 34.1445C59.5523 34.147 59.5198 34.1495 59.4873 34.152C59.2037 34.14 58.9201 34.128 58.6365 34.116H58.5849C58.5129 34.0975 58.4414 34.0695 58.3684 34.062C57.508 33.9774 56.6742 34.1515 55.8449 34.3406C55.4773 34.4241 55.1186 34.5472 54.755 34.6487C54.2508 34.7892 53.7391 34.9088 53.2429 35.0729C52.9323 35.1754 52.6357 35.3299 52.3471 35.4865C51.8934 35.7321 51.4443 35.9892 51.0061 36.2613C50.7075 36.4469 50.4259 36.6624 50.1468 36.8775C50.1038 36.9105 50.0788 37.0361 50.1063 37.0796Z" fill="#4D7E3D"/>
<path d="M68.7916 40.4524C68.2464 40.2363 67.7062 40.0052 67.154 39.8071C66.2407 39.4795 65.3028 39.2429 64.3349 39.1409C63.8548 39.1754 63.3751 39.2399 62.8949 39.2374C62.1476 39.2339 61.4008 39.1699 60.6536 39.1599C60.1339 39.1529 59.6082 39.1539 59.0945 39.2199C58.2061 39.3339 57.3228 39.493 56.441 39.6506C55.9153 39.7446 55.3921 39.8576 54.8739 39.9862C54.0816 40.1823 53.2933 40.3963 52.5055 40.6099C52.3605 40.6494 52.2249 40.723 52.0543 40.7935C52.8161 41.4752 53.717 41.8234 54.5353 42.3051C54.9669 42.5591 55.4031 42.8062 55.8233 43.0778C56.0373 43.2164 56.2264 43.3349 56.4785 43.1704C56.6301 43.0713 56.7916 42.9838 56.9567 42.9088C57.4829 42.6697 58.0041 42.4151 58.5443 42.2115C59.268 41.9394 60.0003 41.6848 60.7426 41.4702C61.2623 41.3202 61.801 41.2261 62.3377 41.1486C63.2345 41.0191 64.1334 40.896 65.0357 40.821C65.6484 40.77 66.2687 40.79 66.8849 40.8065C67.5342 40.824 68.1824 40.8785 68.8316 40.9095C68.9122 40.9135 68.9947 40.874 69.0767 40.8545C69.0877 40.8195 69.0987 40.785 69.1097 40.75C69.0032 40.6509 68.8977 40.5514 68.7916 40.4524Z" fill="#4D7E3D"/>
<path d="M65.5002 70.3121C65.6133 70.2205 65.7433 70.143 65.8363 70.0345C66.247 69.5533 66.4046 68.9481 66.6116 68.3708C66.6952 68.1373 66.8692 68.0622 67.0698 68.0127C67.2209 67.9752 67.2829 68.0782 67.2839 68.2133C67.2849 68.4294 67.2724 68.6454 67.2749 68.8615C67.2754 68.9175 67.2939 69.0036 67.3309 69.0216C67.3794 69.0451 67.4705 69.0371 67.5145 69.0046C67.8871 68.7295 68.1252 67.8892 67.9591 67.4645C67.8711 67.2399 67.517 67.1199 67.2579 67.2044C66.6397 67.406 66.0124 67.581 65.3982 67.7931C64.5659 68.0802 63.675 68.0502 62.8352 68.2913C62.6326 68.3493 62.5491 68.4579 62.5936 68.6659C62.6742 69.0446 62.7542 69.4232 62.8407 69.8309C62.8872 69.8004 62.9793 69.7719 63.0168 69.7098C63.1568 69.4778 63.2734 69.2312 63.4119 68.9986C63.457 68.923 63.5335 68.8375 63.6125 68.8155C64.0182 68.7015 64.4313 68.6144 64.838 68.5029C65.4537 68.3338 65.6613 68.5169 65.5632 69.1476C65.5072 69.5078 65.4697 69.8709 65.4237 70.233C65.4487 70.259 65.4742 70.2856 65.5002 70.3121Z" fill="#110E0D"/>
<path d="M51.3981 43.3993C52.0063 43.4373 52.6135 43.4853 53.2203 43.5434C53.8675 43.6049 54.5127 43.6924 55.161 43.7449C55.279 43.7544 55.4801 43.6759 55.5101 43.5914C55.5441 43.4948 55.4326 43.3443 55.3766 43.2207C55.3606 43.1857 55.3215 43.1582 55.288 43.1337C54.7013 42.6975 54.0126 42.565 53.3103 42.5175C52.8586 42.487 52.4014 42.532 51.9468 42.5485C51.4106 42.568 50.8744 42.583 50.3392 42.62C49.936 42.6475 49.5349 42.702 49.1337 42.7526C48.6595 42.8126 48.1849 42.8701 47.7142 42.9521C47.5296 42.9841 47.3596 43.0892 47.1775 43.1422C46.7373 43.2708 46.2937 43.3883 45.8515 43.5108C45.6559 43.5969 45.4608 43.6819 45.2653 43.7684C44.3219 44.1851 43.3711 44.5772 42.5653 45.256C41.863 45.8477 41.1117 46.3804 40.2489 46.7271C40.0578 46.8041 39.8677 46.8861 39.6717 46.9466C39.3575 47.0437 39.0399 47.1322 38.7203 47.2077C38.6523 47.2237 38.5673 47.1687 38.4902 47.1462C38.4872 47.1222 38.4842 47.0982 38.4807 47.0742C38.5788 47.0057 38.6678 46.9146 38.7758 46.8716C39.327 46.6515 39.8978 46.475 40.433 46.2219C40.8791 46.0113 41.2983 45.7352 41.7064 45.4541C42.1901 45.1214 42.6343 44.7308 43.1235 44.4077C43.4511 44.1911 43.8197 44.0295 44.1844 43.8775C44.645 43.6854 45.1197 43.5279 45.5884 43.3553C45.8225 43.2758 46.0541 43.1897 46.2907 43.1177C46.8093 42.9601 47.3215 42.7596 47.8522 42.6685C48.7361 42.517 49.6314 42.4314 50.5232 42.3314C51.1515 42.2609 51.7817 42.2124 52.4109 42.1533C52.6485 42.1313 52.8856 42.1068 53.1912 42.0773C52.459 41.4841 51.7262 41.0379 50.9344 40.7013C50.3667 40.4597 49.7815 40.2501 49.1882 40.0826C48.5075 39.8905 47.8102 39.7539 47.117 39.6089C46.8449 39.5519 46.5643 39.5379 46.2872 39.5038C46.2872 39.4213 46.2877 39.3388 46.2877 39.2562C46.3542 39.2552 46.4207 39.2542 46.4872 39.2532C46.5688 39.2582 46.6508 39.2632 46.7323 39.2688C47.197 39.3308 47.6627 39.3853 48.1258 39.4558C48.9532 39.5819 49.7515 39.815 50.5312 40.1171C50.8229 40.2301 51.1195 40.3322 51.4196 40.4202C51.6031 40.4742 51.6862 40.3532 51.6247 40.1981C51.4571 39.7764 51.295 39.3473 51.0714 38.9551C50.8574 38.5795 50.5738 38.2424 50.3107 37.8967C50.1306 37.6601 49.9505 37.4191 49.7389 37.212C49.2403 36.7238 48.5905 36.5182 47.9503 36.2951C47.5241 36.1466 47.108 35.969 46.6873 35.8044C46.8514 35.7054 47.0059 35.7299 47.1715 35.8175C47.6116 36.05 48.0758 36.2216 48.566 36.3181C48.7596 36.4097 48.9487 36.5137 49.1482 36.5902C49.5564 36.7468 49.941 36.7053 50.2822 36.4117C50.5748 36.2201 50.8689 36.0305 51.1595 35.8365C51.2395 35.7829 51.311 35.7159 51.3866 35.6549C51.4721 35.6269 51.5631 35.6099 51.6427 35.5694C52.0833 35.3453 52.5085 35.0857 52.9627 34.8941C53.5804 34.634 54.2191 34.4219 54.8504 34.1933C55.6107 33.9177 56.3914 33.7482 57.2038 33.7427C57.2478 33.7472 57.2913 33.7512 57.3353 33.7557C57.3688 33.7722 57.4023 33.7882 57.4363 33.8047C57.4864 33.8207 57.5364 33.8367 57.5864 33.8527C57.7365 33.8527 57.8865 33.8527 58.0366 33.8532C58.3032 33.8697 58.5698 33.8857 58.8364 33.9022C59.0199 33.9192 59.203 33.9362 59.3866 33.9538C59.4206 34.0188 59.4546 34.0838 59.4886 34.1488C59.205 34.1368 58.9214 34.1248 58.6378 34.1133C58.6208 34.1133 58.6038 34.1128 58.5868 34.1128C58.5147 34.0943 58.4432 34.0663 58.3697 34.0593C57.5094 33.9748 56.6761 34.1488 55.8462 34.3374C55.4786 34.4209 55.12 34.544 54.7563 34.6455C54.2521 34.7866 53.7405 34.9056 53.2443 35.0697C52.9336 35.1722 52.6375 35.3268 52.3484 35.4833C51.8948 35.7289 51.4461 35.9855 51.0079 36.2581C50.7088 36.4437 50.4277 36.6593 50.1486 36.8744C50.1056 36.9074 50.0806 37.0329 50.1081 37.0764C50.2686 37.3265 50.4407 37.5706 50.6223 37.8062C51.163 38.5085 51.6657 39.2352 52.0528 40.0355C52.1413 40.2181 52.2439 40.2826 52.4665 40.2211C53.1057 40.045 53.754 39.901 54.4002 39.7499C54.7693 39.6634 55.1405 39.5869 55.5111 39.5078C56.0653 39.3898 56.618 39.2617 57.1757 39.1612C57.6459 39.0767 58.1216 39.0192 58.5963 38.9606C59.0634 38.9031 59.5311 38.8306 59.9998 38.8161C60.5975 38.7976 61.1972 38.8311 61.796 38.8416C62.3447 38.8506 62.8934 38.8566 63.4421 38.8676C63.9648 38.8781 64.0678 38.8681 64.0898 38.3529C64.1218 38.474 64.1499 38.5965 64.1874 38.7155C64.2324 38.8576 64.3159 39.2442 64.3659 39.3848C63.7742 39.3143 63.3761 39.2362 62.8964 39.2337C62.1491 39.2302 61.4023 39.1662 60.655 39.1562C60.1354 39.1492 59.6097 39.1502 59.096 39.2162C58.2076 39.3303 57.3243 39.4893 56.4425 39.6469C55.9168 39.7409 55.3936 39.854 54.8754 39.9825C54.0831 40.1786 53.2948 40.3927 52.507 40.6063C52.3619 40.6458 52.2264 40.7193 52.0558 40.7898C52.8176 41.4716 53.7184 41.8197 54.5367 42.3014C54.9684 42.5555 55.4046 42.8026 55.8247 43.0742C56.0388 43.2127 56.2279 43.3313 56.48 43.1667C56.6315 43.0677 56.7931 42.9801 56.9582 42.9051C57.4844 42.666 58.0056 42.4114 58.5458 42.2079C59.2695 41.9358 60.0018 41.6812 60.7441 41.4666C61.2638 41.3165 61.8025 41.2225 62.3392 41.145C63.236 41.0154 64.1349 40.8924 65.0372 40.8173C65.6499 40.7663 66.2702 40.7863 66.8864 40.8028C67.5356 40.8203 68.1839 40.8749 68.8331 40.9059C68.9136 40.9099 68.9962 40.8704 69.0782 40.8508C69.1837 41.0969 69.3738 41.234 69.6329 41.2845C69.6529 41.2885 69.6674 41.3165 69.6849 41.334C69.1627 41.2915 68.6405 41.2455 68.1173 41.2075C67.8623 41.189 67.6057 41.1765 67.3501 41.1765C66.9184 41.176 66.4867 41.186 66.0556 41.193C65.6449 41.1995 65.2333 41.1925 64.8236 41.2185C64.3564 41.248 63.8908 41.3045 63.4251 41.354C63.105 41.3885 62.7823 41.4156 62.4662 41.4746C62.0626 41.5501 61.6639 41.6516 61.2648 41.7487C60.8886 41.8402 60.5055 41.9142 60.1419 42.0423C59.4571 42.2834 58.7753 42.538 58.1081 42.8246C57.4558 43.1047 56.8226 43.4288 56.1854 43.7419C56.1083 43.7794 56.0463 43.8625 55.9963 43.937C55.7987 44.2336 55.6167 44.3091 55.2845 44.2421C54.6323 44.1096 53.9835 43.949 53.3248 43.8665C52.601 43.7759 51.8677 43.7294 51.138 43.7234C50.5748 43.7189 50.0075 43.7804 49.4483 43.8595C48.7901 43.9525 48.1373 44.0881 47.4851 44.2196C47.1005 44.2971 46.7218 44.4017 46.3407 44.4942C46.3407 44.4157 46.3407 44.3372 46.3407 44.2591C46.9394 43.9755 47.5671 43.7879 48.2159 43.6499C49.2668 43.4268 50.3257 43.3318 51.3981 43.3993Z" fill="#110E0D"/>
<path d="M69.519 42.4374C68.6221 42.3003 67.7143 42.1918 66.809 42.1713C65.8971 42.1503 64.9788 42.2173 64.0699 42.3093C63.3176 42.3854 62.5619 42.5054 61.8301 42.693C60.9057 42.9296 59.9984 43.2382 59.0936 43.5453C58.3918 43.7834 57.709 44.078 57.0098 44.3241C56.7652 44.4101 56.4956 44.4271 56.2375 44.4756C56.2205 44.4346 56.2035 44.3941 56.187 44.3531C56.3795 44.2245 56.5586 44.0645 56.7672 43.9735C57.2134 43.7789 57.672 43.6108 58.1312 43.4493C58.86 43.1927 59.5892 42.9371 60.3265 42.707C60.9237 42.5204 61.529 42.3573 62.1372 42.2123C62.6494 42.0902 63.1686 41.9937 63.6893 41.9152C64.0944 41.8542 64.5056 41.8266 64.9152 41.8031C65.6095 41.7636 66.3053 41.7086 66.9995 41.7166C67.5978 41.7236 68.1975 41.7901 68.7917 41.8662C69.2209 41.9212 69.6445 42.0267 70.0667 42.1258C70.3843 42.2003 70.6954 42.2998 71.022 42.3919C70.993 42.2993 70.9695 42.2243 70.946 42.1493C71.0075 42.2523 71.0856 42.3488 71.1266 42.4594C71.1786 42.5989 71.2001 42.7495 71.2346 42.8955C71.1691 42.89 71.1006 42.8955 71.039 42.8775C70.5329 42.7285 70.0362 42.5159 69.519 42.4374Z" fill="#110E0D"/>
<path d="M37.5659 48.162C37.8965 48.0929 38.2361 48.0699 38.5667 48.0019C39.0969 47.8934 39.6346 47.8013 40.1473 47.6343C40.623 47.4797 41.0802 47.2561 41.5258 47.0255C41.9415 46.8105 42.3427 46.5619 42.7308 46.2993C43.141 46.0222 43.5066 45.6755 43.9303 45.4244C44.5805 45.0388 45.2612 44.7047 45.9345 44.36C46.055 44.2985 46.2036 44.2915 46.3392 44.2595C46.3392 44.338 46.3392 44.4166 46.3392 44.4946C45.7779 44.8147 45.2067 45.1183 44.6585 45.4595C43.9993 45.8696 43.373 46.3323 42.7083 46.7329C42.0936 47.1036 41.4563 47.4407 40.8121 47.7593C40.0948 48.114 39.3235 48.2975 38.5252 48.353C38.2066 48.375 37.901 48.4146 37.6294 48.6031C37.5118 48.6847 37.4693 48.7647 37.5579 48.8882C37.6689 49.0433 37.7799 49.1979 37.891 49.3524C38.031 49.3429 38.1706 49.3314 38.3106 49.3234C38.7668 49.2984 39.223 49.2709 39.6792 49.2529C39.9282 49.2429 40.1808 49.2744 40.4259 49.2424C41.0792 49.1578 41.7324 49.0638 42.3802 48.9448C42.7578 48.8752 43.1299 48.7632 43.4966 48.6467C43.9127 48.5141 44.3209 48.355 44.7321 48.2075C45.2197 48.0324 45.7054 47.8509 46.1961 47.6848C46.5062 47.5798 46.8238 47.4977 47.138 47.4052C47.4341 47.3006 47.7302 47.1966 48.0263 47.0921C48.1658 47.0255 48.3009 46.945 48.4464 46.8945C48.8746 46.7454 49.3083 46.6109 49.7379 46.4653C50.1671 46.3203 50.5882 46.1502 51.0229 46.0257C51.5651 45.8701 52.1133 45.7316 52.666 45.6195C53.1427 45.5225 53.6284 45.4655 54.1116 45.4044C54.4687 45.3594 54.8288 45.3384 55.1875 45.3019C55.4421 45.2759 55.6947 45.2329 55.9493 45.2144C56.1728 45.1984 56.4014 45.1813 56.6215 45.2109C56.8741 45.2454 57.0297 45.4279 57.1457 45.653C57.2477 45.8506 57.3663 46.1042 57.6359 46.0302C58.1601 45.8866 58.6703 45.6935 59.186 45.5185C59.7307 45.3334 60.2729 45.1428 60.8186 44.9603C61.3338 44.7877 61.8485 44.6106 62.3697 44.4566C62.9594 44.2825 63.5511 44.1059 64.1518 43.9794C64.8356 43.8353 65.5099 43.6113 66.2236 43.6428C66.4437 43.5948 66.6618 43.5292 66.8844 43.5027C67.4701 43.4332 68.0568 43.3467 68.6455 43.3302C69.2683 43.3126 69.8955 43.3427 70.5157 43.4017C70.8979 43.4377 71.2705 43.5702 71.6492 43.6533C71.9663 43.7228 71.9713 43.7163 72.0523 43.3937C72.1438 43.5207 72.0063 43.9184 71.8242 44.0549C71.2965 43.9549 70.7728 43.8238 70.2406 43.7628C69.6624 43.6963 69.0767 43.6943 68.4945 43.6673C68.465 43.6658 68.4344 43.6908 68.4044 43.7038C68.8191 44.0204 68.9827 44.4911 69.1197 44.9573C69.3313 45.6765 69.2678 46.7484 69.0142 47.4662C69.1087 47.4472 69.1862 47.4367 69.2608 47.4157C70.0285 47.1976 70.7718 46.9205 71.4706 46.5299C71.5491 46.4858 71.6392 46.4618 71.7237 46.4283C71.7272 46.6699 71.7312 46.911 71.7347 47.1526C71.3961 47.1606 71.0749 47.1446 70.7308 47.2871C69.9835 47.5968 69.2037 47.8338 68.4259 48.0634C67.6021 48.307 66.7683 48.5191 65.9335 48.7222C65.3913 48.8542 64.8386 48.9453 64.2909 49.0548C63.8402 49.1173 63.3896 49.1804 62.9389 49.2429C62.8889 49.2394 62.8393 49.2364 62.7893 49.2334C62.5848 49.2539 62.3802 49.2829 62.1751 49.2929C61.7109 49.3149 61.2462 49.3304 60.7816 49.3429C60.2174 49.3579 59.6532 49.3719 59.0884 49.3759C58.7378 49.3784 58.3862 49.3449 58.0365 49.3609C57.8335 49.3704 57.6339 49.4475 57.4323 49.4935C57.2648 49.693 57.0722 49.8771 56.9336 50.0952C56.503 50.7734 55.8662 51.1131 55.1109 51.3037C54.7638 51.3912 54.4347 51.5507 54.0971 51.6768C53.812 51.7833 53.5329 51.9119 53.2402 51.9899C52.9006 52.0804 52.551 52.1375 52.2024 52.19C51.5821 52.284 50.9604 52.3696 50.3377 52.4476C49.8665 52.5066 49.3928 52.5491 48.9206 52.5981C48.617 52.6296 48.3139 52.6772 48.0098 52.6862C47.6026 52.6982 47.194 52.6887 46.7863 52.6717C46.4707 52.6587 46.1556 52.6206 45.8405 52.5936C45.7739 52.4996 45.7074 52.4056 45.6414 52.3115C45.7074 52.325 45.7734 52.3385 45.84 52.352C45.856 52.3555 45.872 52.3595 45.888 52.363C45.9555 52.3605 46.0235 52.3575 46.0911 52.355C46.2096 52.3691 46.3287 52.3826 46.4472 52.3966C46.4887 52.3961 46.5312 52.4006 46.5717 52.3951C47.1685 52.318 47.7637 52.226 48.3624 52.1655C48.9411 52.1075 49.5238 52.0864 50.1036 52.0399C50.5772 52.0019 51.0489 51.9464 51.5221 51.9054C52.3054 51.8378 53.0727 51.7093 53.805 51.4007C54.2446 51.2151 54.6318 50.8965 55.166 50.944C55.5206 50.9755 55.8237 50.7679 56.1133 50.5634C56.2904 50.4383 56.4229 50.2663 56.544 50.0892C56.6045 50.0007 56.663 49.9101 56.7261 49.8231C56.7891 49.7351 56.8601 49.651 56.8956 49.547C56.9116 49.5005 56.9211 49.452 56.9226 49.4029C56.9271 49.2734 56.8741 49.1398 56.7726 49.0588C56.693 48.9948 56.584 48.9673 56.484 48.9883C56.4314 48.9993 56.4044 49.0313 56.3594 49.0558C56.3029 49.0868 56.2454 49.1158 56.1874 49.1443C55.9558 49.2594 55.7182 49.3614 55.4826 49.4675C55.4331 49.49 55.3835 49.512 55.3345 49.535C53.8785 50.3788 52.2854 50.813 50.6443 51.1041C50.2676 51.2586 49.959 51.3197 49.6259 51.3602C49.1257 51.4212 48.691 51.4972 48.1924 51.5662C48.1553 51.5713 48.0318 51.6008 47.9963 51.6178C47.9338 51.6188 47.135 51.6418 46.8684 51.6173C46.2816 51.5632 45.6909 51.4837 45.1197 51.3437C44.3849 51.1641 43.6652 50.922 42.9434 50.6939C42.5122 50.5574 42.0846 50.4078 41.6644 50.2412C41.2908 50.0932 40.9336 49.9016 40.5605 49.7526C40.3419 49.6655 40.1073 49.582 39.8762 49.5715C39.4651 49.5525 39.0519 49.59 38.6393 49.6035C38.6238 49.6015 38.6078 49.599 38.5922 49.597C38.4917 49.612 38.3912 49.627 38.2901 49.642C38.2746 49.6405 38.2596 49.6385 38.2441 49.637C38.1921 49.636 38.1401 49.635 38.0876 49.6345C38.0705 49.624 38.054 49.614 38.037 49.6035C38.0215 49.605 38.0065 49.6055 37.991 49.605C37.9785 49.6155 37.966 49.635 37.9535 49.635C37.4818 49.6375 37.1837 49.3719 37.1352 48.9072C37.0932 48.5146 37.2452 48.229 37.5659 48.162ZM64.9516 46.3473C65.2327 46.3348 65.4448 46.0727 65.4308 45.7561C65.4208 45.5405 65.2543 45.4164 64.9887 45.4274C64.677 45.4404 64.4445 45.629 64.448 45.8656C64.451 46.1142 64.7065 46.3578 64.9516 46.3473ZM63.7912 47.4867C64.1108 47.4837 64.3514 47.2446 64.3409 46.9395C64.3314 46.6539 64.1388 46.4498 63.8832 46.4548C63.5841 46.4608 63.362 46.6994 63.3705 47.005C63.3791 47.3041 63.5406 47.4892 63.7912 47.4867ZM57.5494 49.0003C58.4292 49.0393 59.311 49.1173 60.1889 49.0853C60.9771 49.0563 61.7604 48.9017 62.5462 48.8027C62.3297 48.4446 62.0335 48.1105 61.9155 47.7223C61.7219 47.0866 61.7049 46.4093 61.835 45.7506C61.8895 45.474 62.0455 45.2174 62.1551 44.9513C61.87 45.0303 61.5819 45.1008 61.3003 45.1909C60.8451 45.3364 60.3939 45.493 59.9423 45.649C59.338 45.8576 58.7353 46.0707 58.1316 46.2813C58.0846 46.2978 58.0355 46.3078 57.987 46.3198C57.3978 46.4648 57.3103 46.5759 57.2332 47.1601C57.1827 47.5427 57.1082 47.9229 57.0242 48.2995C56.9436 48.6557 57.1697 48.9833 57.5494 49.0003ZM53.926 45.7521C54.3847 46.2763 54.6978 46.861 54.6948 47.5793C54.6918 48.276 54.6663 48.9678 54.2396 49.6395C54.5472 49.5285 54.7913 49.4404 55.0354 49.3529C55.0519 49.3434 55.0684 49.3334 55.0849 49.3239C55.1039 49.3174 55.1225 49.3114 55.1415 49.3049C55.156 49.2954 55.1705 49.2859 55.185 49.2764C55.2045 49.2694 55.224 49.2629 55.244 49.2559C55.4896 49.1408 55.7302 49.0118 55.9828 48.9138C56.4515 48.7322 56.707 48.4166 56.8156 47.9119C56.9326 47.3657 56.9977 46.825 56.9771 46.2698C56.9601 45.8146 56.712 45.565 56.2349 45.584C55.4951 45.613 54.7568 45.668 54.0175 45.714C53.9855 45.7145 53.956 45.7386 53.926 45.7521C53.892 45.7451 53.8575 45.7361 53.8225 45.7261C53.8575 45.7356 53.892 45.7451 53.926 45.7521ZM51.0404 47.1931C51.0339 46.9545 50.8263 46.7604 50.5787 46.7614C50.3572 46.7624 50.0976 47.005 50.0916 47.2176C50.0846 47.4607 50.2826 47.6598 50.5317 47.6588C50.8238 47.6583 51.0479 47.4532 51.0404 47.1931ZM49.6649 49.0008C49.9555 48.9858 50.2746 48.6877 50.2666 48.4386C50.2571 48.1465 50.0095 47.9374 49.6879 47.9504C49.4693 47.9594 49.2437 48.2475 49.2517 48.5081C49.2603 48.8112 49.4298 49.0128 49.6649 49.0008ZM46.8388 51.2601C47.4891 51.1961 48.1398 51.1341 48.7896 51.0651C48.8906 51.0541 48.9881 51.008 49.1452 50.961C48.624 50.4718 48.3329 49.9036 48.0973 49.2999C47.8552 48.6797 47.8412 48.0614 48.1198 47.3622C47.7207 47.4892 47.3815 47.5973 47.0429 47.7053C46.6513 47.8554 46.2611 48.0089 45.868 48.154C45.4833 48.296 45.0962 48.4311 44.7085 48.5651C44.2644 48.7187 43.8227 48.8802 43.3735 49.0163C42.8183 49.1849 42.2571 49.3334 41.6969 49.4845C41.5138 49.534 41.3258 49.5635 41.0807 49.6145C42.9484 50.5174 44.8486 51.0466 46.8388 51.2601Z" fill="#110E0D"/>
<path d="M44.0202 39.6028C43.556 39.6383 43.0894 39.7348 42.6407 39.8634C42.0075 40.0444 41.3662 40.2295 40.772 40.5066C40.0617 40.8382 39.3975 41.2674 38.7152 41.6585C38.6237 41.7111 38.5487 41.7901 38.4616 41.8516C38.1515 42.0712 37.8429 42.2938 37.5273 42.5044C37.3987 42.5904 37.2757 42.5734 37.1852 42.3713C37.6908 41.9922 38.1785 41.577 38.7142 41.2379C39.3125 40.8597 39.9392 40.5176 40.5819 40.2215C41.1927 39.9399 41.8274 39.6898 42.4751 39.5132C43.0954 39.3437 43.7426 39.2411 44.3844 39.1926C44.9926 39.1466 45.6088 39.2091 46.2215 39.2256C46.2441 39.2261 46.2661 39.2466 46.2886 39.2581C46.2886 39.3407 46.2881 39.4232 46.2881 39.5057C46.2491 39.5172 46.21 39.5378 46.1705 39.5388C45.4538 39.5583 44.7345 39.5483 44.0202 39.6028Z" fill="#110E0D"/>
<path d="M47.8761 55.5874C47.9452 55.5324 48.0362 55.5044 48.1182 55.4659C48.5899 55.2438 49.0691 55.0357 49.5328 54.7976C50.2961 54.4055 51.0553 54.0053 51.8041 53.5862C52.2803 53.3196 52.7325 53.0114 53.1981 52.7258C53.4167 52.5918 53.6343 52.4547 53.8654 52.3452C53.9419 52.3087 54.058 52.3547 54.156 52.3632C54.1155 52.4367 54.084 52.5178 54.0315 52.5818C53.9854 52.6378 53.9184 52.6793 53.8549 52.7178C53.0966 53.176 52.3418 53.6397 51.5775 54.0869C51.0428 54.4 50.5011 54.7031 49.9494 54.9857C49.4357 55.2488 48.9065 55.4809 48.3813 55.7215C48.2473 55.7825 48.1042 55.8235 47.9447 55.881C47.8761 55.8455 47.8101 55.811 47.7446 55.777C47.7876 55.712 47.8186 55.6334 47.8761 55.5874Z" fill="#110E0D"/>
<path d="M45.6654 52.5966C44.656 52.4315 43.6432 52.2844 42.6403 52.0879C42.1661 51.9948 41.7094 51.8113 41.2498 51.6542C41.1852 51.6322 41.1497 51.5257 41.1007 51.4586C41.1752 51.4241 41.2503 51.3606 41.3238 51.3621C41.4368 51.3646 41.5484 51.4121 41.6609 51.4396C42.4922 51.6457 43.3205 51.8638 44.1554 52.0523C44.6445 52.1629 45.1447 52.2274 45.6399 52.3124C45.7064 52.4065 45.773 52.5005 45.839 52.5946C45.7815 52.5956 45.7219 52.6056 45.6654 52.5966Z" fill="#110E0D"/>
<path d="M68.4038 43.7039C68.8184 44.0205 68.982 44.4912 69.119 44.9574C69.3306 45.6766 69.2671 46.7485 69.0135 47.4663C69.108 47.4473 69.1856 47.4368 69.2601 47.4158C70.0279 47.1977 70.7712 46.9206 71.4699 46.53C71.5485 46.4859 71.6385 46.4619 71.723 46.4284C72.0276 46.2208 72.3763 46.0708 72.5578 45.7117C72.7809 45.271 72.6164 44.6853 72.1897 44.4357C72.1092 44.3887 72.0491 44.3051 71.9826 44.2356C71.9276 44.1781 71.8766 44.1161 71.8236 44.056C71.2959 43.956 70.7722 43.8249 70.24 43.7639C69.6618 43.6974 69.076 43.6954 68.4938 43.6684C68.4643 43.6659 68.4338 43.6914 68.4038 43.7039Z" fill="#F4F3F3"/>
<path d="M62.1545 44.949C61.8694 45.028 61.5813 45.0985 61.2997 45.1886C60.8445 45.3341 60.3933 45.4907 59.9417 45.6467C59.3374 45.8553 58.7347 46.0684 58.131 46.279C58.084 46.2955 58.0349 46.3055 57.9864 46.3175C57.3972 46.4625 57.3097 46.5736 57.2326 47.1578C57.1821 47.5404 57.1076 47.9206 57.0236 48.2972C56.944 48.6539 57.1696 48.9815 57.5493 48.998C58.4291 49.037 59.3109 49.115 60.1888 49.083C60.9771 49.054 61.7603 48.8995 62.5461 48.8004C62.3296 48.4423 62.0335 48.1082 61.9154 47.72C61.7218 47.0843 61.7048 46.407 61.8349 45.7483C61.8889 45.4712 62.045 45.2146 62.1545 44.949Z" fill="#F8F8F8"/>
<path d="M63.3706 47.0066C63.3791 47.3052 63.5407 47.4898 63.7913 47.4878C64.1109 47.4848 64.3515 47.2457 64.341 46.9406C64.3315 46.655 64.1389 46.4509 63.8833 46.4559C63.5847 46.4624 63.3621 46.701 63.3706 47.0066Z" fill="#F4F3F3"/>
<path d="M64.9888 45.4236C64.6772 45.4366 64.4446 45.6252 64.4481 45.8618C64.4516 46.1103 64.7067 46.3544 64.9518 46.3434C65.2329 46.3309 65.445 46.0688 65.431 45.7522C65.421 45.5361 65.2544 45.4121 64.9888 45.4236Z" fill="#F4F3F3"/>
<path d="M47.0422 47.7045C46.6506 47.8545 46.2604 48.0081 45.8673 48.1531C45.4827 48.2952 45.0955 48.4302 44.7079 48.5643C44.2637 48.7178 43.822 48.8794 43.3729 49.0154C42.8177 49.184 42.2564 49.3326 41.6962 49.4836C41.5132 49.5331 41.3251 49.5627 41.08 49.6137C42.9482 50.5165 44.8479 51.0457 46.8382 51.2593C47.4884 51.1953 48.1392 51.1332 48.7889 51.0642C48.8899 51.0532 48.9875 51.0072 49.1445 50.9602C48.6233 50.471 48.3322 49.9028 48.0966 49.2991C47.8545 48.6788 47.8405 48.0606 48.1191 47.3613C47.72 47.4884 47.3814 47.5964 47.0422 47.7045Z" fill="#F4F4F4"/>
<path d="M55.2428 49.2549C55.4884 49.1399 55.729 49.0108 55.9816 48.9128C56.4503 48.7312 56.7059 48.4156 56.8144 47.9109C56.9315 47.3647 56.9965 46.824 56.976 46.2688C56.959 45.8136 56.7109 45.564 56.2337 45.583C55.4939 45.6121 54.7557 45.6671 54.0164 45.7131C53.9854 45.7151 53.9564 45.7386 53.9258 45.7521C54.3845 46.2763 54.6976 46.861 54.6946 47.5793C54.6916 48.2761 54.6661 48.9678 54.2395 49.6396C54.5471 49.5285 54.7912 49.4405 55.0353 49.353C55.0518 49.3435 55.0683 49.3335 55.0848 49.324C55.1038 49.3174 55.1223 49.3114 55.1413 49.3049C55.1558 49.2954 55.1703 49.2859 55.1848 49.2764C55.2038 49.2689 55.2233 49.2619 55.2428 49.2549Z" fill="#F4F3F3"/>
<path d="M49.2512 48.5068C49.2602 48.8099 49.4298 49.0115 49.6649 48.9995C49.9555 48.9844 50.2746 48.6863 50.2666 48.4372C50.2571 48.1451 50.0095 47.9361 49.6879 47.9491C49.4688 47.9581 49.2437 48.2462 49.2512 48.5068Z" fill="#F4F3F3"/>
<path d="M50.5322 47.6574C50.8243 47.6564 51.0479 47.4513 51.0409 47.1917C51.0344 46.9531 50.8268 46.759 50.5792 46.76C50.3576 46.761 50.098 47.0036 50.092 47.2162C50.0855 47.4593 50.2836 47.6579 50.5322 47.6574Z" fill="#F4F3F3"/>
<path d="M30.9978 47.9442C31.0614 47.1864 31.1374 46.4251 31.2839 45.6803C31.485 44.6609 31.8777 43.7026 32.2968 42.7477C33.0661 40.996 34.1215 39.4735 35.5781 38.23C35.8542 37.9949 36.1178 37.7453 36.3874 37.5022C36.4044 37.4887 36.4214 37.4747 36.4389 37.4612C36.6069 37.3442 36.775 37.2266 36.9431 37.1096C37.0431 37.0416 37.1431 36.973 37.2437 36.905L37.2427 36.9065C37.2932 36.873 37.3437 36.8395 37.3942 36.806L37.3932 36.8075C37.4252 36.7885 37.4573 36.7695 37.4893 36.7505C37.6243 36.6719 37.7594 36.5929 37.8944 36.5144C37.9609 36.4738 38.027 36.4333 38.093 36.3928C38.1025 36.3703 38.106 36.3343 38.122 36.3278C38.8293 36.0247 39.5375 35.7236 40.2468 35.4255C40.2898 35.4074 40.3438 35.4165 40.3929 35.4135V35.413C40.5244 35.3524 40.651 35.2694 40.789 35.2364C41.0761 35.1674 41.3807 35.0513 41.6568 35.0933C41.9109 35.1318 42.084 35.0038 42.2896 35.0168C42.3761 35.0758 42.4691 35.1323 42.5687 35.1484C42.7047 35.1699 42.8558 35.1323 42.9343 35.2934C43.3435 35.1303 43.7476 35.2809 44.1513 35.3209C44.6665 35.3724 45.1792 35.452 45.6934 35.5195C46.0245 35.614 46.3561 35.7086 46.6877 35.8036C47.1084 35.9682 47.5245 36.1452 47.9507 36.2938C48.5909 36.5169 49.2407 36.7224 49.7394 37.2106C49.951 37.4177 50.131 37.6588 50.3111 37.8954C50.5742 38.2415 50.8578 38.5786 51.0719 38.9538C51.2955 39.3464 51.4575 39.7756 51.6251 40.1972C51.6871 40.3518 51.6036 40.4728 51.42 40.4188C51.1204 40.3308 50.8238 40.2288 50.5322 40.1157C49.7524 39.8136 48.9541 39.5805 48.1268 39.4545C47.6636 39.3839 47.1979 39.3294 46.7332 39.2674C46.6517 39.2624 46.5702 39.2569 46.4882 39.2519C46.4216 39.2529 46.3551 39.2539 46.2886 39.2549C46.2666 39.2434 46.2446 39.2229 46.2221 39.2224C45.6093 39.2059 44.9931 39.1434 44.3849 39.1894C43.7431 39.2379 43.0959 39.3409 42.4756 39.51C41.8279 39.6871 41.1937 39.9366 40.5829 40.2188C39.9402 40.5154 39.3135 40.857 38.7152 41.2351C38.179 41.5743 37.6913 41.9894 37.1857 42.3686C37.2762 42.5706 37.3992 42.5876 37.5278 42.5016C37.8439 42.2905 38.1525 42.0684 38.4626 41.8489C38.5492 41.7873 38.6247 41.7078 38.7157 41.6558C39.398 41.2646 40.0622 40.835 40.7725 40.5039C41.3662 40.2263 42.008 40.0417 42.6412 39.8601C43.0894 39.7321 43.556 39.6355 44.0202 39.6C44.7345 39.545 45.4538 39.555 46.1705 39.5355C46.21 39.5345 46.2491 39.514 46.2881 39.5025C46.5647 39.536 46.8458 39.5505 47.1179 39.6075C47.8111 39.7526 48.5079 39.8891 49.1887 40.0812C49.7824 40.2483 50.3676 40.4578 50.9353 40.6994C51.7266 41.0361 52.4594 41.4827 53.1917 42.076C52.8866 42.1055 52.649 42.1295 52.4114 42.152C51.7821 42.211 51.1514 42.2595 50.5237 42.33C49.6318 42.4301 48.736 42.5161 47.8527 42.6672C47.322 42.7582 46.8098 42.9588 46.2911 43.1163C46.0545 43.1879 45.8224 43.2744 45.5888 43.3539C45.1201 43.526 44.645 43.6836 44.1848 43.8756C43.8202 44.0277 43.4515 44.1892 43.1234 44.4058C42.6342 44.7289 42.19 45.1196 41.7064 45.4527C41.2982 45.7333 40.879 46.0094 40.4329 46.22C39.8977 46.4726 39.327 46.6497 38.7758 46.8698C38.6677 46.9128 38.5787 47.0033 38.4806 47.0723C38.4836 47.0963 38.4871 47.1198 38.4901 47.1439C38.5672 47.1664 38.6522 47.2219 38.7202 47.2059C39.0404 47.1303 39.3575 47.0418 39.6716 46.9448C39.8682 46.8843 40.0582 46.8017 40.2493 46.7247C41.1121 46.3781 41.8634 45.8454 42.5657 45.2536C43.3715 44.5749 44.3223 44.1827 45.2657 43.7661C45.4608 43.6801 45.6563 43.5945 45.8514 43.5085C46.2936 43.3864 46.7372 43.2689 47.1774 43.1404C47.3595 43.0868 47.53 42.9823 47.7146 42.9503C48.1848 42.8683 48.66 42.8107 49.1341 42.7507C49.5348 42.6997 49.9364 42.6457 50.3391 42.6182C50.8743 42.5811 51.411 42.5661 51.9467 42.5466C52.4014 42.5301 52.8585 42.4846 53.3107 42.5151C54.0125 42.5626 54.7012 42.6957 55.2885 43.1319C55.3215 43.1564 55.3605 43.1834 55.3765 43.2184C55.4325 43.3424 55.5441 43.493 55.51 43.589C55.48 43.6736 55.279 43.7521 55.1609 43.7426C54.5127 43.6901 53.8679 43.6025 53.2202 43.541C52.614 43.483 52.0062 43.435 51.3985 43.3969C50.3256 43.3294 49.2667 43.4245 48.2148 43.648C47.5656 43.7861 46.9383 43.9737 46.3396 44.2573C46.2035 44.2898 46.0555 44.2968 45.9349 44.3583C45.2612 44.7029 44.5804 45.0371 43.9307 45.4227C43.507 45.6738 43.1409 46.0204 42.7312 46.2975C42.3426 46.5596 41.9419 46.8087 41.5258 47.0238C41.0801 47.2539 40.6229 47.4775 40.1478 47.632C39.6351 47.7991 39.0974 47.8911 38.5672 47.9997C38.2366 48.0672 37.8964 48.0907 37.5663 48.1597C37.2457 48.2268 37.0931 48.5119 37.1346 48.9065C37.1832 49.3712 37.4813 49.6368 37.9529 49.6343C37.9655 49.6343 37.978 49.6148 37.9905 49.6043C38.0055 49.6048 38.021 49.6043 38.036 49.6028C38.053 49.6133 38.07 49.6233 38.0865 49.6338C38.1385 49.6348 38.191 49.6353 38.2431 49.6363L38.2651 49.6448L38.2891 49.6418C38.3896 49.6268 38.4901 49.6118 38.5907 49.5968C38.6062 49.6018 38.6217 49.6038 38.6377 49.6033C39.0504 49.5893 39.464 49.5523 39.8752 49.5713C40.1058 49.5818 40.3408 49.6653 40.5594 49.7523C40.9326 49.9014 41.2892 50.093 41.6633 50.241C42.0835 50.4071 42.5112 50.5571 42.9423 50.6932C43.6641 50.9218 44.3839 51.1634 45.1186 51.3429C45.6904 51.483 46.2806 51.563 46.8673 51.6165C47.1344 51.641 47.413 51.5385 47.6861 51.493C47.7201 51.493 47.7546 51.4925 47.7886 51.492C47.8086 51.48 47.8292 51.4675 47.8492 51.455C47.9117 51.454 47.9742 51.4535 48.0367 51.4525C48.3098 51.433 48.5849 51.426 48.856 51.3914C49.4167 51.3194 49.9755 51.2339 50.5347 51.1514C50.5727 51.1454 50.6072 51.1199 50.6432 51.1033C52.2843 50.8122 53.8774 50.3776 55.3335 49.5338C55.6961 49.3662 56.0682 49.2156 56.4169 49.0231C56.5599 48.9435 56.676 48.8975 56.8265 48.955C56.8585 49.0226 56.8906 49.0901 56.9221 49.1576C56.9241 49.1721 56.9281 49.1866 56.9341 49.2006C56.9971 49.4187 56.9121 49.5758 56.7755 49.7538C56.5629 50.0314 56.4124 50.3506 56.1123 50.5626C55.8227 50.7672 55.5195 50.9748 55.1649 50.9433C54.6307 50.8958 54.2431 51.2144 53.8039 51.4C53.0716 51.7091 52.3043 51.8371 51.521 51.9046C51.0479 51.9457 50.5757 52.0012 50.1025 52.0392C49.5223 52.0857 48.9396 52.1067 48.3609 52.1647C47.7626 52.2248 47.1674 52.3173 46.5702 52.3943C46.5297 52.3993 46.4871 52.3953 46.4456 52.3953C46.3271 52.3818 46.208 52.3678 46.0895 52.3538C46.022 52.3568 45.9539 52.3593 45.8864 52.3623C45.8719 52.3528 45.8559 52.3488 45.8384 52.3508C45.7724 52.3373 45.7064 52.3238 45.6403 52.3103C45.1451 52.2253 44.645 52.1607 44.1558 52.0502C43.3205 51.8611 42.4922 51.643 41.6613 51.437C41.5488 51.4095 41.4368 51.3619 41.3242 51.3594C41.2502 51.3579 41.1752 51.422 41.1006 51.4565C41.1496 51.5235 41.1857 51.63 41.2497 51.6521C41.7094 51.8091 42.1665 51.9927 42.6407 52.0857C43.6436 52.2823 44.6565 52.4288 45.6653 52.5939C45.7219 52.6034 45.7814 52.5934 45.8394 52.5924C46.1545 52.6194 46.4691 52.6574 46.7853 52.6704C47.1924 52.6874 47.6011 52.6969 48.0087 52.6849C48.3128 52.6759 48.6159 52.6284 48.9196 52.5969C49.3922 52.5479 49.8654 52.5054 50.3371 52.4464C50.9593 52.3683 51.5811 52.2828 52.2018 52.1888C52.5499 52.1357 52.8996 52.0792 53.2392 51.9887C53.5318 51.9106 53.8114 51.7826 54.0965 51.6756C54.4336 51.5495 54.7628 51.3899 55.1099 51.3024C55.8652 51.1118 56.5019 50.7722 56.9326 50.094C57.0711 49.8759 57.2637 49.6918 57.4318 49.4922C57.6328 49.4457 57.8324 49.3687 58.0355 49.3592C58.3851 49.3427 58.7367 49.3767 59.0874 49.3742C59.6516 49.3702 60.2163 49.3562 60.7805 49.3412C61.2452 49.3287 61.7099 49.3132 62.174 49.2912C62.3791 49.2817 62.5837 49.2521 62.7883 49.2321C62.8383 49.2351 62.8883 49.2381 62.9378 49.2416C63.389 49.1786 63.8397 49.1161 64.2903 49.0536C64.838 48.944 65.3902 48.853 65.933 48.7209C66.7678 48.5179 67.6016 48.3053 68.4254 48.0622C69.2027 47.8321 69.9825 47.595 70.7303 47.2854C71.0744 47.1429 71.3955 47.1594 71.7341 47.1514C71.7336 47.2004 71.7326 47.2494 71.7321 47.2984C71.464 47.5315 71.1954 47.7646 70.9268 47.9977C70.9118 47.9987 70.8978 48.0027 70.8843 48.0092C70.8318 48.0382 70.7793 48.0672 70.7268 48.0962C70.2416 48.3053 69.8589 48.6284 69.6704 49.1311C69.3662 49.9404 68.771 50.4466 68.1028 50.8753C68.1023 50.8753 68.1023 50.8758 68.1018 50.8758C66.166 52.4378 63.5311 52.5699 63.483 52.5724C63.4825 52.5724 63.4825 52.5724 63.4825 52.5724C63.3305 52.5934 63.1789 52.6139 63.0269 52.6339C62.0675 52.7595 61.1081 52.824 60.1403 52.7099C59.5966 52.6459 59.0399 52.5649 58.5007 52.6159C57.991 52.6644 57.4558 52.7965 57.0026 53.0301C55.8217 53.6398 54.6747 54.3165 53.5248 54.9853C53.0016 55.2894 52.5199 55.6681 51.9907 55.9602C51.336 56.3213 50.6597 56.6464 49.977 56.9515C49.3797 57.2186 48.763 57.4437 48.1493 57.6718C47.9017 57.7638 47.6391 57.8164 47.3825 57.8844C46.7242 58.058 46.072 58.2635 45.4052 58.3946C44.4364 58.5852 43.45 58.5671 42.4696 58.4891C41.6088 58.4206 40.7455 58.3446 39.8932 58.21C38.8333 58.0424 37.8679 57.5773 36.8885 57.1576C35.7781 56.6819 34.7487 56.0507 33.8109 55.3209C32.796 54.5316 32.0347 53.4807 31.5455 52.2638C31.484 52.1107 31.41 51.9622 31.3415 51.8111C31.1359 51.0573 30.9658 50.299 30.9828 49.5092C30.9943 48.9875 30.9543 48.4624 30.9978 47.9442ZM47.9447 55.8771C48.1048 55.8191 48.2478 55.7786 48.3814 55.7171C48.9066 55.477 49.4358 55.2449 49.9495 54.9818C50.5007 54.6992 51.0424 54.3956 51.5771 54.083C52.3418 53.6358 53.0966 53.1721 53.8549 52.7139C53.9184 52.6754 53.985 52.6339 54.0315 52.5779C54.084 52.5144 54.1155 52.4333 54.156 52.3593C54.058 52.3513 53.9424 52.3053 53.8654 52.3418C53.6348 52.4508 53.4168 52.5884 53.1987 52.7224C52.733 53.0081 52.2803 53.3162 51.8041 53.5828C51.0559 54.0014 50.2961 54.4021 49.5328 54.7942C49.0696 55.0323 48.5904 55.2404 48.1188 55.4625C48.0367 55.501 47.9457 55.529 47.8767 55.584C47.8192 55.63 47.7876 55.7086 47.7446 55.7731C47.8106 55.8071 47.8762 55.8416 47.9447 55.8771Z" fill="#4D7E3D"/>
<path d="M42.4526 39.27C41.8469 39.3645 41.2436 39.506 40.6344 39.5426C39.5915 39.6046 39.0413 39.0674 39.1248 38.049C39.2194 36.8911 39.8096 35.9847 40.8315 35.4465C41.7758 34.9488 42.7367 35.1354 43.6105 35.6896C44.3218 36.1413 44.7655 36.7645 44.6719 37.6724C44.5844 38.5232 43.9372 38.7603 43.2764 38.9868C43.0038 39.0804 42.7217 39.1464 42.4441 39.2254C42.4466 39.2404 42.4496 39.2554 42.4526 39.27Z" fill="white"/>
<path d="M21.3603 38.1422C16.9677 34.5068 11.0905 35.159 11.0905 35.159C10.7343 40.5321 16.0178 50.1477 16.0178 50.1477C11.9813 64.1094 11.9813 73.4574 11.9813 73.4574C12.7331 78.2857 28.4445 81.2934 29.1968 81.4914C29.9491 81.6895 39.8403 82.6929 43.048 83.6287C46.2562 84.5646 49.3538 88.2325 49.3538 88.2325C49.4139 87.9208 50.3302 87.5992 50.3302 87.5992C50.6203 87.7048 52.3355 89.5515 52.3355 89.5515C55.6597 84.4861 64.5245 81.6365 64.5245 81.6365C67.2421 80.5811 67.3476 79.7633 67.3476 79.7633C67.7963 78.3913 66.2657 74.0646 66.2657 74.0646C66.0811 73.59 66.2132 73.1678 66.2132 73.1678C68.6931 70.3182 68.8517 67.047 68.8517 67.047C68.8782 65.9391 69.3529 65.8596 69.3529 65.8596C73.4159 63.5642 72.6506 59.079 72.6506 59.079C71.7272 54.3562 66.7434 52.33 66.7434 52.33C69.5759 51.2961 70.0651 49.0137 70.0651 49.0137C70.2632 48.354 71.4767 48.0639 71.4767 48.0639C72.1494 47.8003 71.9913 46.5893 71.9913 46.5893C72.8502 45.9966 72.8882 45.3198 72.8882 45.3198C72.8882 44.4095 72.1494 44.0564 72.1494 44.0564C72.3155 43.8763 72.433 43.4396 72.433 43.4396C72.3735 43.2021 71.5032 42.7469 71.5032 42.7469C71.4962 42.4303 71.3451 42.0741 71.3451 42.0741C71.167 41.718 69.4849 40.8867 69.4849 40.8867C69.4584 40.5205 69.3268 40.4315 69.3268 40.4315C67.4501 39.2251 64.449 38.7859 64.449 38.7859C62.8564 33.2763 57.6215 33.4764 57.6215 33.4764C57.5504 32.1609 55.0645 31.6677 55.2065 31.6267C56.8001 31.163 58.2307 29.78 58.2307 29.78C60.1944 28.1839 61.6195 26.1787 62.6698 23.8968C63.7853 21.4729 64.1224 18.9339 63.6737 15.9293C62.9885 12.2189 60.8882 9.06373 57.3388 6.89342C57.2773 6.8554 57.2143 6.79388 57.1498 6.79088C56.9607 6.78187 56.7076 6.72635 56.5986 6.82289C56.493 6.91693 56.4755 7.19353 56.5225 7.36109C56.7611 8.21141 57.0792 9.04122 57.2858 9.89804C58.2472 13.8925 57.1613 17.3118 54.3297 20.2294C53.0998 21.4964 51.7773 22.6363 50.1476 23.3681C50.0606 23.4071 49.9731 23.4506 49.884 23.4876C49.2228 23.6727 48.306 23.7132 47.2401 23.173C47.127 23.108 47.0135 23.0445 46.8994 22.983L46.8989 22.9825C46.8989 22.9825 44.0228 21.0522 41.0047 21.2163C40.4135 20.1214 39.7973 19.1625 39.5497 19.127C38.3582 18.9554 37.2443 19.1255 36.1999 19.7387C35.9293 19.8978 35.8318 20.0949 35.8523 20.413C35.8873 20.9532 35.9808 21.4889 36.0979 22.0231C36.0979 22.0231 35.2215 21.5474 31.8598 23.2651C31.4651 23.4521 31.08 23.6597 30.7073 23.8873C30.7053 23.8883 30.7033 23.8893 30.7013 23.8903L30.7003 23.8908C30.5473 23.9843 30.3962 24.0809 30.2477 24.1814C29.3533 24.7861 28.6666 25.626 27.8508 26.3357C27.035 27.0455 26.6448 27.2546 25.9561 27.3746C24.9187 27.5557 23.9088 27.173 22.9534 26.8574C22.9529 26.8569 22.9519 26.8569 22.9514 26.8569C21.9461 26.5243 20.9842 26.0571 20.0418 25.5284C17.9581 24.36 16.2419 22.8279 15.268 20.5811C14.4127 18.6078 14.1896 16.534 14.2542 14.4102C14.2637 14.0951 14.4212 13.698 14.0026 13.5279C13.5764 13.3548 13.4199 13.7615 13.2213 13.9981C10.6208 17.0982 9.65294 20.6661 10.1316 24.3305C10.6113 27.199 11.7087 29.4004 13.3518 31.3816C14.6908 32.9992 21.3603 38.1422 21.3603 38.1422Z" stroke="#110E0D" stroke-width="1.20045" stroke-miterlimit="10"/>
<path d="M60.0736 37.91C61.094 37.6859 61.4771 37.0187 61.1195 36.0618C60.7128 34.9734 59.898 34.2626 58.7686 34.0226C57.7242 33.801 56.8504 34.2421 56.1611 35.0139C55.5999 35.6422 55.3428 36.3629 55.68 37.2108C55.9961 38.0056 56.6833 38.0576 57.3806 38.0956C57.6682 38.1116 57.9578 38.0981 58.2464 38.0981C58.2474 38.1131 59.4774 38.0411 60.0736 37.91Z" fill="white"/>
</svg>
