<svg width="24" height="16" viewBox="0 0 24 16" fill="none" xmlns="http://www.w3.org/2000/svg">
<path d="M22.1843 6.50464H1.23607C0.553409 6.50464 0 7.05805 0 7.74071V7.87083C0 8.55349 0.553409 9.1069 1.23607 9.1069H22.1843C22.8669 9.1069 23.4204 8.55349 23.4204 7.87083V7.74071C23.4204 7.05805 22.8669 6.50464 22.1843 6.50464Z" fill="#8C5844"/>
<path d="M22.1843 13.0122H1.23607C0.553409 13.0122 0 13.5656 0 14.2483V14.3784C0 15.0611 0.553409 15.6145 1.23607 15.6145H22.1843C22.8669 15.6145 23.4204 15.0611 23.4204 14.3784V14.2483C23.4204 13.5656 22.8669 13.0122 22.1843 13.0122Z" fill="#8C5844"/>
<path d="M22.1843 0H1.23607C0.553409 0 0 0.553409 0 1.23607V1.36619C0 2.04885 0.553409 2.60226 1.23607 2.60226H22.1843C22.8669 2.60226 23.4204 2.04885 23.4204 1.36619V1.23607C23.4204 0.553409 22.8669 0 22.1843 0Z" fill="#8C5844"/>
</svg>
