<svg width="399" height="446" viewBox="0 0 399 446" fill="none" xmlns="http://www.w3.org/2000/svg">
<g clip-path="url(#clip0_3_957)">
<path d="M-102 171.9C-101.645 178.827 -94.5338 183.09 -88.312 185.399C-73.3795 190.905 -57.2027 192.858 -41.3814 191.437C-37.8261 194.634 -33.2042 196.766 -28.4044 198.187C-18.0939 201.384 -6.89462 201.384 3.06033 197.831C5.19354 197.121 7.14899 196.233 9.10443 195.167C12.1265 195.7 15.3263 196.055 18.3483 196.41C38.7915 198.719 60.3014 201.028 79.5002 194.99C88.3886 204.58 102.965 208.843 115.587 204.758C121.453 202.982 126.609 199.252 130.697 194.812C139.23 196.055 147.763 196.233 156.296 194.99C167.673 193.391 178.872 188.951 188.294 181.136C191.671 183.445 196.293 184.511 200.382 185.043C214.425 186.819 228.825 186.464 242.69 184.155C249.09 183.09 255.667 181.491 261 177.584C266.333 173.676 269.889 167.105 268.644 160.711C268.111 158.224 266.867 155.915 265.089 154.139C261.356 150.232 255.49 147.923 249.801 148.1C249.623 148.1 249.268 148.1 249.09 148.1C249.09 146.502 248.735 144.903 248.201 143.483C247.312 140.286 245.535 137.266 243.402 134.78C243.224 134.602 243.224 134.602 243.046 134.424C238.069 129.451 231.136 126.787 224.203 126.432C217.092 126.077 210.159 127.675 202.515 131.227C202.515 121.104 196.293 111.335 187.405 107.428C178.517 103.52 167.495 105.652 159.495 114.71C158.429 100.146 149.185 86.8248 136.386 81.1413C123.586 75.4578 107.943 77.7667 97.988 89.6666C94.7882 79.7204 82.8778 73.8593 74.5227 78.4772C72.2118 64.9788 63.5012 52.7237 51.9463 46.3297C40.2137 39.9357 25.8145 39.7581 13.9041 45.4416C8.39337 48.1058 3.41586 52.1908 0.393829 57.5191C-2.80597 62.8474 -3.87256 69.7743 -1.38382 78.2995C-12.4054 74.3921 -25.2046 75.813 -34.9818 82.207C-44.9368 88.601 -51.8697 99.7904 -53.2918 112.046C-54.0029 116.841 -53.6473 121.992 -50.092 128.386C-58.2693 125.366 -67.8687 127.32 -74.4461 133.004C-76.046 134.424 -77.4681 136.023 -78.5348 137.799C-79.4236 139.22 -80.3124 140.641 -81.0235 142.239C-82.9789 147.035 -83.8678 152.363 -82.9789 157.336C-90.4452 158.224 -99.3335 161.776 -101.467 168.348C-101.822 169.414 -102 170.657 -102 171.9Z" fill="#FEFFFE"/>
<path fill-rule="evenodd" clip-rule="evenodd" d="M-41.3814 191.437C-57.2027 192.858 -73.3795 190.905 -88.312 185.399C-94.5338 183.09 -101.645 178.827 -102 171.9C-102 170.657 -101.822 169.414 -101.467 168.348C-99.4104 162.013 -91.0774 158.484 -83.7918 157.443C-83.5192 157.404 -83.2482 157.368 -82.9789 157.336C-82.9789 157.336 -82.9789 157.336 -82.9789 157.336C-83.0269 157.068 -83.0696 156.799 -83.1073 156.529C-83.7688 151.79 -82.8735 146.776 -81.0235 142.239C-80.3124 140.641 -79.4236 139.22 -78.5348 137.799C-77.4682 136.023 -76.046 134.424 -74.4461 133.004C-68.1717 127.582 -59.1473 125.554 -51.2307 128C-50.8484 128.118 -50.4687 128.247 -50.092 128.386C-50.2909 128.028 -50.4798 127.674 -50.659 127.324C-53.6838 121.417 -53.9631 116.573 -53.2918 112.046C-51.8697 99.7904 -44.9368 88.601 -34.9818 82.207C-25.482 75.9944 -13.1291 74.4767 -2.32596 77.9799C-2.01056 78.0822 -1.69647 78.1887 -1.38382 78.2995C-1.47757 77.9784 -1.56628 77.6595 -1.64999 77.3429C-3.78915 69.2547 -2.68542 62.6467 0.393829 57.5191C3.41589 52.1908 8.39337 48.1058 13.9041 45.4416C25.8145 39.7581 40.2137 39.9357 51.9463 46.3297C63.2594 52.5898 71.8459 64.4684 74.3693 77.6314C74.4232 77.9127 74.4744 78.1947 74.5227 78.4772C74.7741 78.3382 75.0288 78.2087 75.2863 78.0886C83.3272 74.3368 94.1809 79.6662 97.6732 88.7732C97.7859 89.0671 97.891 89.365 97.988 89.6666C98.1926 89.4221 98.3995 89.1816 98.6088 88.9452C108.585 77.6752 123.849 75.5746 136.386 81.1413C148.859 86.6799 157.955 99.4712 159.398 113.598C159.436 113.968 159.468 114.338 159.495 114.71C159.744 114.429 159.995 114.154 160.249 113.886C168.177 105.525 178.792 103.641 187.405 107.428C196.032 111.22 202.147 120.534 202.499 130.335C202.51 130.632 202.515 130.93 202.515 131.227C202.788 131.101 203.06 130.976 203.331 130.854C210.654 127.564 217.346 126.089 224.203 126.432C231.136 126.787 238.069 129.451 243.046 134.424L243.402 134.78C245.535 137.266 247.312 140.286 248.201 143.483C248.735 144.903 249.09 146.502 249.09 148.1H249.801C249.837 148.099 249.873 148.098 249.909 148.097C255.564 147.952 261.38 150.256 265.089 154.139C266.867 155.915 268.111 158.224 268.644 160.711C269.889 167.105 266.333 173.676 261 177.584C255.667 181.491 249.09 183.09 242.69 184.155C228.825 186.464 214.425 186.819 200.382 185.043C196.293 184.511 191.671 183.445 188.294 181.136C178.872 188.951 167.673 193.391 156.296 194.99C147.763 196.233 139.23 196.055 130.697 194.812C126.608 199.252 121.453 202.982 115.587 204.758C102.965 208.843 88.3886 204.58 79.5002 194.99C60.3014 201.028 38.7915 198.719 18.3483 196.41C18.0618 196.377 17.7737 196.343 17.4843 196.309C14.7212 195.986 11.84 195.649 9.10443 195.167C7.14902 196.233 5.19354 197.121 3.06033 197.831C-6.89462 201.384 -18.094 201.384 -28.4044 198.187C-33.2042 196.766 -37.8261 194.634 -41.3814 191.437ZM200.486 184.233C214.447 185.999 228.766 185.646 242.556 183.35C248.934 182.287 255.347 180.712 260.516 176.925C265.67 173.149 269.005 166.87 267.842 160.874C267.34 158.541 266.171 156.377 264.509 154.716L264.503 154.71L264.496 154.703C260.934 150.974 255.297 148.746 249.827 148.917L249.814 148.917H248.271V148.1C248.271 146.619 247.94 145.118 247.434 143.769L247.422 143.735L247.412 143.701C246.564 140.651 244.862 137.744 242.8 135.334L242.787 135.322C242.778 135.313 242.782 135.317 242.785 135.32L242.776 135.311L242.774 135.309L242.769 135.304L242.766 135.301L242.763 135.298L242.755 135.29L242.753 135.288L242.62 135.155C242.618 135.153 242.617 135.152 242.616 135.151L242.466 135.001C237.653 130.192 230.922 127.594 224.161 127.248C217.213 126.901 210.413 128.458 202.861 131.968L201.696 132.509V131.227C201.696 121.41 195.651 111.945 187.075 108.175C178.539 104.423 167.893 106.437 160.11 115.25L158.821 116.709L158.679 114.769C157.633 100.493 148.565 87.4436 136.053 81.8875C123.55 76.3356 108.311 78.6012 98.6169 90.1899L97.6631 91.3301L97.2082 89.9162C95.6834 85.1765 92.0725 81.3896 87.8322 79.3458C83.5898 77.301 78.8116 77.0405 74.9197 79.1916L73.9098 79.7498L73.7154 78.6147C71.4456 65.3567 62.8835 53.3171 51.5517 47.0454C40.0585 40.7829 25.9398 40.6052 14.2609 46.1769C8.86319 48.7865 4.02863 52.7695 1.10666 57.9213L1.10165 57.9301L1.09644 57.9389C-1.97076 63.0463 -3.03149 69.7334 -0.597504 78.0712L-0.150116 79.6038L-1.65814 79.0692C-12.4438 75.2454 -24.9747 76.6394 -34.5327 82.8901L-34.5384 82.8937C-44.2806 89.1511 -51.0834 100.119 -52.4783 112.139L-52.4798 112.152L-52.4817 112.165C-53.1692 116.802 -52.8351 121.768 -49.3758 127.99L-48.3041 129.917L-50.3764 129.152C-58.2573 126.242 -67.5421 128.122 -73.9051 133.617C-75.4577 134.996 -76.8189 136.532 -77.8322 138.219L-77.836 138.225L-77.8399 138.231C-78.7307 139.655 -79.5865 141.026 -80.2698 142.559C-82.1784 147.245 -83.0274 152.41 -82.1727 157.193L-82.0204 158.045L-82.882 158.147C-86.5363 158.582 -90.5227 159.668 -93.8373 161.431C-97.1618 163.2 -99.7121 165.594 -100.688 168.6L-100.69 168.606C-101.011 169.569 -101.179 170.715 -101.181 171.879C-101.012 175.038 -99.3105 177.637 -96.8232 179.761C-94.3247 181.894 -91.0899 183.496 -88.0264 184.633C-73.2145 190.094 -57.161 192.034 -41.4549 190.624L-41.0987 190.592L-40.833 190.831C-37.4005 193.917 -32.9043 196.002 -28.1714 197.403L-28.1613 197.407C-18.0062 200.555 -6.98972 200.55 2.78445 197.062L2.79266 197.059L2.80093 197.057C4.88043 196.364 6.7912 195.497 8.71173 194.45L8.96399 194.313L9.24701 194.363C11.9575 194.841 14.8145 195.175 17.5815 195.498C17.8697 195.532 18.1569 195.565 18.4429 195.599C38.9201 197.912 60.2502 200.188 79.2539 194.211L79.7492 194.055L80.1016 194.435C88.7869 203.807 103.035 207.962 115.334 203.981L115.342 203.979L115.349 203.977C121.041 202.253 126.077 198.622 130.094 194.259L130.387 193.941L130.816 194.004C139.282 195.237 147.734 195.412 156.177 194.181L156.181 194.181C167.425 192.601 178.478 188.215 187.77 180.508L188.246 180.113L188.757 180.462C191.968 182.658 196.429 183.704 200.486 184.233Z" fill="black"/>
<path d="M145.096 182.734C150.785 182.379 156.473 182.912 162.162 182.379C153.629 188.063 142.608 187.352 133.186 184.333C137.808 183.622 140.652 183.09 145.096 182.734Z" fill="#FEFFFE"/>
<path d="M130.342 175.805C135.675 175.805 138.519 176.515 143.852 177.403C137.986 179.357 131.408 179.179 125.542 177.048C121.098 175.805 128.742 175.982 130.342 175.805Z" fill="#FEFFFE"/>
<path d="M8.74886 183.445C11.2376 183.622 13.9041 183.445 16.3928 183.445C24.5701 183.267 32.5697 185.221 40.7469 186.287C30.4365 190.016 18.526 188.596 8.92661 183.8C8.57108 183.445 8.0378 183.267 8.74886 183.445Z" fill="#FEFFFE"/>
<path d="M10.5266 175.806C2.34932 180.247 -7.78341 181.135 -15.7829 175.984C-7.07234 176.339 1.63825 175.629 10.5266 175.806Z" fill="#FEFFFE"/>
<path d="M-100.899 171.661C-100.545 178.366 -93.4652 182.493 -87.2702 184.728C-72.4023 190.057 -56.2954 191.948 -40.5424 190.573C-37.0025 193.667 -32.4005 195.731 -27.6215 197.106C-17.3555 200.2 -6.20459 200.2 3.70737 196.762C5.83136 196.074 7.77835 195.215 9.72534 194.183C12.7343 194.699 15.9203 195.043 18.9293 195.387C39.2842 197.622 60.7011 199.857 79.817 194.011C88.667 203.295 103.181 207.421 115.748 203.467C121.589 201.748 126.722 198.137 130.793 193.839C139.289 195.043 147.785 195.215 156.281 194.011C167.609 192.464 178.76 188.166 188.141 180.601C191.504 182.836 196.106 183.868 200.176 184.384C214.159 186.103 228.496 185.759 242.302 183.524C248.674 182.493 255.223 180.945 260.533 177.163C265.843 173.381 269.383 167.02 268.144 160.83C267.613 158.423 266.374 156.189 264.604 154.469C263.011 159.455 256.993 162.893 251.506 164.613C229.735 171.49 204.601 168.223 185.486 156.017C167.786 174.24 133.979 174.24 116.279 156.017C109.022 165.3 92.384 164.957 85.481 155.501C77.162 163.753 63.3561 165.472 52.2052 161.518C41.0542 157.564 32.3812 148.452 27.0713 138.137C17.8673 147.077 5.83136 154.125 -7.08957 155.157C-20.1875 156.189 -34.1705 150.515 -40.3654 139.168C-43.1974 147.764 -52.9324 153.61 -62.1364 152.234C-69.3933 151.031 -75.4113 145.529 -77.7123 138.824C-78.5973 140.2 -79.4823 141.575 -80.1903 143.122C-82.1373 147.764 -83.0223 152.922 -82.1373 157.736C-89.5713 158.595 -98.4212 162.034 -100.545 168.395C-100.722 169.255 -100.899 170.458 -100.899 171.661Z" fill="#D6F9FF"/>
</g>
<path d="M223.819 239.39L223.821 239.392C224.618 240.01 225.59 240.11 226.359 239.714C227.132 239.315 227.627 238.472 227.627 237.455C227.019 194.639 223.961 152.373 211.052 112.145C210.68 111.002 209.707 110.19 208.678 110.078L223.819 239.39ZM223.819 239.39C188.376 212.172 156.138 183.418 135.065 149.24C134.433 148.206 134.461 146.927 135.073 146.069C135.074 146.069 135.074 146.068 135.074 146.068L163.684 106.372C163.684 106.372 163.685 106.371 163.685 106.371C164.154 105.73 164.891 105.403 165.705 105.481C165.706 105.481 165.707 105.481 165.708 105.481L208.677 110.078L223.819 239.39ZM140.415 147.959L140.217 148.233L140.398 148.519C160.179 179.776 189.493 206.303 221.715 231.396L222.544 232.041L222.523 230.992C221.733 191.655 218.589 152.783 207.024 115.636L206.927 115.323L206.6 115.288L167.307 111.075L167.018 111.044L166.848 111.28L140.415 147.959Z" fill="#966D44" stroke="black"/>
<path d="M227.208 238.853L227.206 238.856C226.724 239.685 225.79 240.13 224.823 240.003C171.032 232.524 123.186 216.854 87.5305 184.431C86.6397 183.608 86.4291 182.3 86.9907 181.284C95.2769 166.391 116.058 138.829 162.674 139.034C166.062 139.059 169.846 137.307 173.393 135.253C176.429 133.496 179.342 131.442 181.823 129.64C182.332 129.27 182.822 128.911 183.29 128.569C185.118 127.232 186.615 126.137 187.659 125.531L187.66 125.53C216.089 108.928 240.11 95.6913 264.902 93.7116C265.577 93.6604 266.251 93.8901 266.764 94.362C267.281 94.8376 267.593 95.5162 267.612 96.2112L267.612 96.2121C269.062 146.054 254.02 193.358 227.208 238.853ZM92.4821 181.762L92.2695 182.118L92.581 182.393C126.985 212.712 172.521 227.478 223.415 234.773L223.748 234.821L223.918 234.529C249.001 191.435 263.379 146.673 262.714 99.5419L262.706 98.986L262.154 99.0525C238.988 101.845 216.446 114.537 190.116 129.912C189.021 130.548 187.461 131.688 185.624 133.032C185.161 133.371 184.68 133.722 184.185 134.082C181.705 135.883 178.821 137.914 175.833 139.643L175.832 139.644C171.377 142.237 166.717 144.082 162.721 144.061L162.721 144.061C120.928 143.874 101.062 167.366 92.4821 181.762Z" fill="#966D44" stroke="black"/>
<path d="M131.481 46.7192C181.139 22.3538 241.699 43.8537 266.986 94.7957L86.5676 183.321C61.7602 132.167 81.8233 71.0846 131.481 46.7192Z" fill="#B9DEFA" stroke="black"/>
<path d="M131.462 46.731C147.911 38.6601 167.919 41.6303 187.019 53.0936C206.002 64.487 224.026 84.2403 236.615 109.7L116.92 168.43C104.491 142.904 99.8971 116.561 102.501 94.5725C105.121 72.4489 115.013 54.8019 131.462 46.731Z" fill="white" stroke="black"/>
<path d="M131.462 46.7292C134.387 45.2936 138.486 46.2699 143.535 49.6181C148.551 52.944 154.348 58.5106 160.558 65.9063C172.901 80.6054 186.804 102.442 199.369 127.974L154.166 150.153C141.665 124.602 132.907 100.241 128.835 81.4806C126.787 72.0414 125.931 64.048 126.368 58.0448C126.808 52.0009 128.541 48.1622 131.462 46.7292Z" fill="#B9DEFA" stroke="black"/>
<path d="M262.478 89.1331C265.259 87.7683 268.636 88.9221 270.001 91.7036C271.364 94.482 270.206 97.8419 267.429 99.2274L89.8602 186.354C87.0787 187.719 83.702 186.565 82.3372 183.784C80.9724 181.002 82.1261 177.626 84.9076 176.261L262.478 89.1331Z" fill="#B9DEFA" stroke="black"/>
<path d="M228.455 234.88C230.538 233.858 233.046 234.715 234.068 236.797L241.595 252.139C242.617 254.221 241.76 256.729 239.677 257.751L232.492 261.277C230.41 262.298 227.902 261.441 226.88 259.359L219.352 244.018C218.331 241.935 219.188 239.427 221.27 238.405L228.455 234.88Z" fill="#B9DEFA" stroke="black"/>
<mask id="mask0_3_957" style="mask-type:luminance" maskUnits="userSpaceOnUse" x="218" y="233" width="25" height="30">
<mask id="mask1_3_957" style="mask-type:luminance" maskUnits="userSpaceOnUse" x="218" y="233" width="25" height="30">
<path d="M228.458 234.895C230.541 233.874 233.049 234.731 234.071 236.813L241.598 252.154C242.62 254.237 241.763 256.745 239.68 257.767L232.495 261.292C230.413 262.314 227.904 261.457 226.883 259.375L219.355 244.033C218.334 241.951 219.191 239.443 221.273 238.421L228.458 234.895Z" fill="white" stroke="white"/>
</mask>
<g mask="url(#mask1_3_957)">
<path d="M-551.65 1496.03L-1027.62 525.983L525.007 -235.838L1000.98 734.209L-551.65 1496.03Z" fill="white" stroke="white"/>
</g>
</mask>
<g mask="url(#mask0_3_957)">
<path d="M236.076 237.994C237.187 237.449 238.538 237.911 239.083 239.022C239.628 240.133 239.167 241.484 238.055 242.029L220.209 250.786C219.098 251.331 217.747 250.87 217.202 249.758C216.656 248.647 217.118 247.296 218.229 246.751L236.076 237.994Z" fill="#966D44" stroke="black"/>
</g>
<mask id="mask2_3_957" style="mask-type:luminance" maskUnits="userSpaceOnUse" x="218" y="233" width="25" height="30">
<mask id="mask3_3_957" style="mask-type:luminance" maskUnits="userSpaceOnUse" x="218" y="233" width="25" height="30">
<path d="M228.458 234.895C230.541 233.874 233.049 234.731 234.071 236.813L241.598 252.154C242.62 254.237 241.763 256.745 239.68 257.767L232.495 261.292C230.413 262.314 227.904 261.457 226.883 259.375L219.355 244.033C218.334 241.951 219.191 239.443 221.273 238.421L228.458 234.895Z" fill="white" stroke="white"/>
</mask>
<g mask="url(#mask3_3_957)">
<path d="M-551.65 1496.03L-1027.62 525.983L525.007 -235.838L1000.98 734.209L-551.65 1496.03Z" fill="white" stroke="white"/>
</g>
</mask>
<g mask="url(#mask2_3_957)">
<path d="M240.097 246.19C241.208 245.644 242.559 246.106 243.104 247.217C243.649 248.329 243.188 249.679 242.076 250.225L224.23 258.981C223.119 259.526 221.768 259.065 221.223 257.954C220.677 256.842 221.139 255.492 222.25 254.946L240.097 246.19Z" fill="#966D44" stroke="black"/>
</g>
<path d="M238.303 268.449L234.789 261.288L238.571 259.432L242.085 266.593L238.303 268.449Z" fill="#966D44" stroke="black"/>
<path d="M304.42 399.081C269.376 416.276 226.629 401.011 208.936 364.952C191.244 328.894 205.328 285.744 240.373 268.549C275.417 251.353 318.164 266.618 335.857 302.677C353.549 338.735 339.446 381.895 304.42 399.081Z" fill="#FBDC79" stroke="black"/>
<path d="M298.665 387.35C269.932 401.448 234.865 388.921 220.355 359.348C205.845 329.776 217.403 294.394 246.128 280.276C274.861 266.178 309.927 278.705 324.438 308.278C338.948 337.851 327.398 373.251 298.665 387.35Z" fill="#E4BB39" stroke="black"/>
<path d="M252.788 285.794C224.492 299.678 213.59 335.307 228.325 365.337C230.489 369.747 233.083 373.788 236.025 377.432C230.366 372.289 225.533 365.971 221.918 358.602C207.4 329.014 218.195 294.003 245.923 280.397C265.808 270.641 289.033 274.488 305.952 288.346C289.844 278.934 270.08 277.309 252.788 285.794Z" fill="#FFA400" stroke="black"/>
<g opacity="0.62" clip-path="url(#clip1_3_957)">
<path d="M254.026 325.535C253.826 325.424 253.615 325.302 253.509 325.099C253.379 324.846 253.448 324.537 253.553 324.273C253.94 323.303 254.745 322.574 255.387 321.75C256.029 320.926 256.534 319.84 256.178 318.858C256.931 318.663 257.49 318.049 258.004 317.465C259.164 316.145 260.324 314.825 261.484 313.505C261.88 313.054 262.285 312.59 262.505 312.031C262.626 311.723 262.692 311.385 262.888 311.118C263.079 310.857 263.373 310.694 263.657 310.539C263.907 310.403 264.172 310.263 264.456 310.273C264.741 310.284 265.038 310.508 265.018 310.792C265.22 310.509 265.69 310.57 265.929 310.821C266.169 311.072 266.241 311.435 266.301 311.777C268.744 311.131 271.368 311.187 273.782 311.936C274.254 312.083 274.735 312.258 275.228 312.222C275.728 312.186 276.185 311.938 276.665 311.794C278.478 311.251 280.392 312.24 281.869 313.423C282.71 314.098 283.536 314.926 283.722 315.988C284.005 317.599 282.665 319.115 281.137 319.698C279.61 320.281 277.924 320.197 276.292 320.294C273.166 320.479 270.126 321.352 267.117 322.22C264.12 323.084 261.111 323.953 258.271 325.241C257.959 325.382 257.631 325.545 257.459 325.84C257.286 326.136 257.363 326.599 257.689 326.705C257.698 326.708 256.577 327.756 256.397 327.837C256.006 328.015 255.709 328.086 255.481 327.645C255.261 327.219 255.684 326.943 255.606 326.584C255.505 326.119 254.417 325.751 254.026 325.535Z" fill="#110E0D"/>
<path d="M289.057 313.094C289.14 313.293 289.204 313.501 289.276 313.705C289.328 313.856 289.389 314.005 289.43 314.159C289.459 314.265 289.454 314.381 289.48 314.489C289.529 314.695 289.606 314.897 289.641 315.106C289.779 315.929 289.914 316.753 290.035 317.578C290.129 318.213 290.203 318.85 290.282 319.487C290.326 319.837 290.36 320.188 290.4 320.539C290.44 320.89 290.494 321.239 290.518 321.591C290.538 321.883 290.528 322.178 290.523 322.472C290.517 322.884 290.504 323.296 290.493 323.707C290.483 324.033 290.467 324.358 290.465 324.684C290.463 325.069 290.63 325.392 290.872 325.674C291.409 326.302 291.945 326.93 292.499 327.543C292.901 327.987 293.351 328.387 293.742 328.839C294.616 329.853 295.483 330.875 296.321 331.919C296.746 332.447 297.098 333.032 297.49 333.587C297.953 334.24 298.434 334.881 298.888 335.541C299.369 336.24 299.842 336.946 300.287 337.668C300.573 338.131 300.797 338.63 301.057 339.109C301.253 339.47 301.468 339.821 301.667 340.181C301.992 340.766 302.02 341.39 301.95 342.043C301.872 342.762 301.505 343.338 301.106 343.897C300.758 344.384 300.386 344.859 299.982 345.299C299.088 346.272 298.191 347.243 297.252 348.171C296.242 349.169 295.213 350.153 294.133 351.075C293.245 351.833 292.277 352.5 291.331 353.188C290.372 353.885 289.399 354.561 288.428 355.24C287.528 355.869 286.616 356.48 285.722 357.117C284.501 357.986 283.322 358.906 282.33 360.04C281.858 360.58 281.529 361.208 281.265 361.868C280.967 362.611 280.702 363.369 280.421 364.12C280.351 364.308 280.164 364.423 279.976 364.364C279.554 364.23 279.379 364.237 279.122 364.776C278.924 365.193 278.805 365.647 278.654 366.086C278.628 366.161 278.618 366.241 278.6 366.323C278.164 366.181 277.738 366.057 277.322 365.903C275.468 365.216 273.552 364.935 271.582 365.009C270.261 365.059 268.941 365.121 267.62 365.18C267.07 365.204 266.519 365.258 265.968 365.252C265.616 365.248 265.25 365.203 264.917 365.094C264.562 364.977 264.384 364.642 264.236 364.309C263.833 363.401 263.716 362.422 263.51 361.465C263.424 361.064 263.364 360.658 263.293 360.254C263.631 360.31 263.968 360.368 264.306 360.421C264.404 360.436 264.524 360.479 264.601 360.441C264.913 360.288 265.22 360.368 265.532 360.414C265.778 360.451 266.025 360.484 266.273 360.503C266.951 360.556 267.635 360.561 268.306 360.66C268.932 360.753 269.553 360.798 270.175 360.711C270.761 360.63 271.314 360.686 271.857 360.915C272.002 360.976 272.161 360.99 272.324 360.927C272.508 360.854 272.703 360.808 272.893 360.751C273.252 360.643 273.612 360.535 273.972 360.426C274.031 360.439 274.102 360.48 274.148 360.461C274.327 360.387 274.499 360.294 274.674 360.208C274.85 360.077 275.013 360.113 275.194 360.217C275.813 360.574 276.436 360.921 277.063 361.263C277.134 361.301 277.262 361.313 277.32 361.273C277.375 361.235 277.372 361.113 277.397 361.029C277.419 360.952 277.437 360.872 277.469 360.799C277.502 360.727 277.557 360.665 277.591 360.593C277.744 360.27 277.89 359.944 278.046 359.622C278.076 359.559 278.132 359.505 278.185 359.455C278.285 359.36 278.406 359.284 278.492 359.178C278.683 358.943 278.849 358.686 279.043 358.453C279.17 358.301 279.33 358.174 279.475 358.036C279.937 357.809 280.4 357.582 280.863 357.355C280.851 357.467 280.848 357.581 280.827 357.692C280.796 357.857 280.735 358.019 280.724 358.186C280.719 358.264 280.782 358.383 280.849 358.417C280.897 358.442 281.045 358.379 281.073 358.319C281.185 358.086 281.392 357.957 281.599 357.868C282.192 357.615 282.584 357.15 282.962 356.663C283.039 356.564 283.128 356.448 283.143 356.331C283.168 356.152 283.275 356.057 283.397 355.964C283.65 355.773 283.911 355.593 284.161 355.398C285.006 354.74 285.857 354.089 286.686 353.412C287.148 353.033 287.525 352.556 288.041 352.234C288.198 352.137 288.328 351.99 288.453 351.85C289.066 351.16 289.666 350.458 290.284 349.773C290.832 349.165 291.337 348.523 291.757 347.823C292.075 347.292 292.344 346.732 292.627 346.18C292.688 346.062 292.727 345.927 292.749 345.796C292.896 344.939 293.036 344.081 293.177 343.222C293.188 343.151 293.184 343.076 293.187 343.002C293.187 343.002 293.185 343.003 293.185 343.003C293.19 342.983 293.194 342.963 293.199 342.944C293.209 342.412 293.24 341.88 293.224 341.349C293.207 340.79 293.156 340.231 293.1 339.675C292.957 338.254 292.617 336.89 291.944 335.615C291.684 335.122 291.519 334.58 291.285 334.072C290.709 332.824 290.183 331.541 289.195 330.538C288.892 330.231 288.563 329.951 288.233 329.673C287.764 329.277 287.258 329.259 286.684 329.473C285.814 329.797 284.918 330.05 284.038 330.348C283.554 330.511 283.08 330.708 282.6 330.884C282.17 331.042 281.726 331.168 281.309 331.355C280.981 331.503 280.684 331.722 280.373 331.91C280.25 331.289 280.1 330.677 279.802 330.11C279.606 329.736 279.445 329.34 279.226 328.98C278.907 328.453 278.577 327.928 278.202 327.441C277.688 326.774 277.057 326.22 276.408 325.678C275.747 325.126 275.047 324.658 274.297 324.286L259.927 330.11C259.927 330.11 252.689 331.439 256.462 327.715C260.235 323.991 283.538 317.491 283.538 317.491C283.831 317.152 284.133 316.822 284.435 316.49C284.657 316.246 284.886 316.008 285.108 315.764C285.695 315.117 286.363 314.567 287.085 314.077C287.394 313.867 287.678 313.621 287.984 313.406C288.212 313.245 288.458 313.108 288.695 312.959C288.876 312.845 288.99 312.93 289.057 313.094Z" fill="#C19038"/>
<path d="M287.805 314.982C287.805 314.982 284.966 316.792 282.995 320.347C282.995 320.347 286.22 321.162 288.603 322.514C288.602 322.513 288.899 317.748 287.805 314.982Z" fill="#815120"/>
<path d="M243.985 317.618C243.136 314.649 243.547 311.564 245.401 308.667C245.434 308.616 245.458 308.548 245.505 308.522C245.643 308.446 245.811 308.312 245.928 308.343C246.041 308.372 246.156 308.568 246.182 308.708C246.316 309.419 246.382 310.143 246.543 310.847C247.289 314.125 249.354 316.227 252.537 317.319C253.919 317.793 255.324 318.139 256.809 318.074C256.966 318.067 257.13 318.072 257.275 318.026C257.602 317.921 257.724 318.095 257.839 318.348C259.004 320.934 257.811 323.352 256.296 324.625C255.842 325.006 255.299 325.313 254.751 325.55C254.25 325.767 253.691 325.871 253.126 325.748C251.076 325.304 249.276 324.362 247.656 323.079C245.934 321.717 244.752 319.982 243.985 317.618Z" fill="#F0860E"/>
<path d="M285.875 304.409C286.57 306.69 286.556 308.711 286.052 310.773C285.641 312.454 284.868 313.955 283.875 315.35C283.45 315.948 283.034 316.93 282.92 316.961C279.565 318.04 276.719 316.683 275.534 314.553C275.25 314.044 275.133 313.44 274.971 312.871C274.942 312.766 275.03 312.547 275.125 312.499C276.741 311.688 277.882 310.392 278.882 308.956C280.015 307.327 280.739 305.568 280.644 303.56C280.559 301.796 279.964 300.192 279.135 298.658C279.012 298.431 278.748 298.198 278.999 297.918C279.255 297.633 279.522 297.873 279.758 297.974C282.848 299.285 284.887 301.544 285.875 304.409Z" fill="#F0860E"/>
<path d="M268.763 318.648C268.618 318.701 268.512 318.746 268.404 318.78C266.82 319.284 265.236 319.784 263.653 320.288C263.193 320.435 262.448 317.219 262.178 315.837C261.989 314.866 262.171 311.422 262.541 311.181C263.438 310.597 264.4 310.289 265.472 310.328C265.749 310.338 265.901 310.443 266.004 310.681C266.458 311.733 266.578 312.921 266.89 314.021C267.136 314.893 267.428 315.753 267.762 316.596C267.836 316.785 268.806 318.632 268.763 318.648Z" fill="#84878B"/>
<path d="M258.93 322.879C258.522 323.099 258.172 323.427 257.798 323.703C258.04 323.012 258.324 322.352 258.5 321.665C258.784 320.562 258.666 319.464 258.218 318.421C258.029 317.98 258.035 317.612 258.291 317.199C259.172 315.777 260.289 314.623 261.687 313.78C261.672 314.66 261.708 315.54 261.794 315.961C262.078 317.338 262.881 320.38 263.182 320.462C263.286 320.49 260.583 321.989 258.93 322.879Z" fill="#4A474A"/>
<path d="M278.092 317.23C276.697 317.171 275.311 317.356 273.94 317.581C273.245 317.694 272.54 317.788 271.85 317.922L271.082 318.061C270.775 318.117 269.942 318.302 269.634 318.358C269.4 318.401 269.277 318.508 269.103 318.32C268.928 318.133 268.791 317.89 268.664 317.669C268.408 317.223 268.207 316.749 268.008 316.276C267.722 315.6 267.454 314.845 267.246 314.143C266.165 310.477 267.969 311.568 268.27 311.508C268.697 311.421 269.102 311.399 269.538 311.385C270.091 311.366 270.646 311.392 271.195 311.464C272.301 311.613 273.374 311.959 274.365 312.47C274.508 312.543 274.638 312.743 274.671 312.904C275.065 314.886 276.231 316.251 278.001 317.148C278.02 317.157 278.035 317.178 278.092 317.23Z" fill="#4A474A"/>
<path d="M267.633 319.708C269.693 318.842 271.889 318.565 274.072 318.229C275.595 317.994 277.117 317.734 278.663 317.945C279.826 318.103 281.241 318.061 282.391 318.296C283.187 318.459 284.121 318.942 283.897 320.31C283.763 321.369 282.391 321.575 281.692 321.544C279.06 321.426 276.466 321.776 273.887 322.272C268.877 323.237 264.162 324.985 259.772 327.584C258.804 328.157 257.892 328.829 256.975 329.484C256.698 329.682 256.436 329.763 256.104 329.738C255.216 329.671 255.267 329.657 254.907 328.852C254.607 328.181 254.651 327.702 255.174 327.144C256.627 325.597 258.098 324.063 259.952 323.007C261.46 322.147 263.029 321.383 264.616 320.679C265.576 320.254 266.624 320.025 267.633 319.708Z" fill="#84878B" stroke="black" stroke-width="0.243212" stroke-miterlimit="10"/>
<path d="M275.507 348.16C275.714 348.64 275.883 349.137 276.071 349.625C276.134 349.787 276.074 349.86 275.935 349.872C275.566 349.482 275.206 349.103 274.848 348.725C274.633 348.963 274.475 349.186 274.271 349.355C273.513 349.987 272.75 350.613 271.97 351.217C271.497 351.583 271 351.919 270.496 352.24C270.116 352.483 269.706 352.679 269.312 352.901C268.342 353.446 267.373 353.985 266.308 354.339C265.153 354.723 263.989 355.045 262.772 355.131C261.798 355.201 260.844 355.118 259.966 354.63C259.914 354.601 259.873 354.554 259.839 354.526C259.577 355.151 259.326 355.677 258.715 355.902C258.712 356.027 258.714 356.076 258.756 356.157L258.757 356.157C257.966 356.367 257.817 355.567 257.812 355.543C258.017 355.513 258.187 355.399 258.357 355.254C258.709 354.954 258.894 354.553 259.093 354.156C259.159 354.025 259.148 353.907 259.081 353.758C258.904 353.367 258.734 352.966 258.624 352.553C258.563 352.321 258.453 352.276 258.255 352.244C258.002 352.203 257.747 352.147 257.508 352.056C256.847 351.803 256.28 351.41 255.868 350.825C255.629 350.486 255.367 350.146 255.211 349.767C254.94 349.109 255.31 348.404 256.002 348.015C256.428 347.775 256.899 347.614 257.352 347.421C258.301 347.018 259.3 346.856 260.322 346.807C260.789 346.784 261.152 347.026 261.404 347.372C261.659 347.722 261.771 348.152 261.765 348.595C261.761 348.924 261.855 349.255 261.722 349.582C261.658 349.74 261.653 349.921 261.594 350.082C261.492 350.36 261.321 350.59 261.126 350.821C260.896 351.094 260.639 351.315 260.355 351.519C260.181 351.643 260.004 351.766 259.843 351.906C259.69 352.038 259.635 352.21 259.704 352.414C259.808 352.725 259.899 353.04 260.006 353.35C260.083 353.573 260.168 353.788 260.42 353.891C261.131 354.182 261.867 354.319 262.631 354.232C263.562 354.126 264.505 354.078 265.402 353.756C266.021 353.534 266.667 353.374 267.268 353.111C267.995 352.791 268.69 352.399 269.392 352.024C270.333 351.521 271.219 350.932 272.04 350.249C272.583 349.798 273.17 349.396 273.576 348.795C273.861 348.373 274.185 347.976 274.482 347.561C274.68 347.284 274.823 347.269 275.08 347.48C275.303 347.663 275.402 347.917 275.507 348.16Z" fill="#110E0D"/>
<path d="M269.908 323.157C269.971 323.162 270.033 323.168 270.096 323.174C270.085 323.148 270.073 323.122 270.062 323.097C270.011 323.117 269.959 323.137 269.908 323.157Z" fill="#110E0D"/>
<path d="M281.869 321.355C281.882 321.361 281.895 321.364 281.909 321.362C281.895 321.359 281.882 321.357 281.869 321.355Z" fill="#110E0D"/>
<path d="M263.272 360.137C263.161 359.822 262.917 359.689 262.616 359.574C261.97 359.326 261.398 358.947 260.873 358.492C260.148 357.864 259.445 357.219 258.916 356.407C258.722 356.109 258.711 356.114 258.717 355.902C259.327 355.676 259.578 355.151 259.84 354.525C259.874 354.554 259.916 354.601 259.968 354.63C260.846 355.118 261.8 355.2 262.774 355.131C263.99 355.045 265.155 354.723 266.309 354.339C267.374 353.984 268.344 353.446 269.314 352.9C269.708 352.679 270.118 352.483 270.498 352.241C271.002 351.919 271.499 351.582 271.972 351.217C272.752 350.613 273.515 349.987 274.273 349.355C274.476 349.186 274.635 348.963 274.85 348.725C275.208 349.103 275.567 349.482 275.936 349.872C276.076 349.861 276.135 349.787 276.072 349.625C275.884 349.137 275.715 348.641 275.508 348.161C275.403 347.918 275.304 347.664 275.081 347.481C274.824 347.27 274.682 347.284 274.483 347.562C274.187 347.977 273.862 348.373 273.577 348.795C273.171 349.397 272.584 349.798 272.041 350.249C271.22 350.933 270.334 351.521 269.393 352.024C268.692 352.399 267.996 352.791 267.269 353.111C266.669 353.375 266.023 353.534 265.403 353.756C264.507 354.078 263.564 354.126 262.633 354.232C261.869 354.319 261.133 354.182 260.422 353.891C260.17 353.789 260.085 353.573 260.008 353.35C259.901 353.04 259.81 352.725 259.706 352.414C259.637 352.21 259.692 352.038 259.844 351.906C260.006 351.766 260.183 351.643 260.357 351.519C260.641 351.316 260.898 351.094 261.128 350.822C261.323 350.591 261.494 350.361 261.596 350.082C261.655 349.921 261.66 349.74 261.725 349.583C261.857 349.255 261.763 348.924 261.767 348.596C261.774 348.152 261.662 347.723 261.406 347.373C261.154 347.026 260.791 346.785 260.324 346.807C259.302 346.856 258.303 347.019 257.354 347.422C256.902 347.614 256.431 347.776 256.004 348.015C255.312 348.404 254.943 349.109 255.213 349.767C255.369 350.147 255.632 350.486 255.871 350.826C256.283 351.41 256.849 351.803 257.511 352.056C257.749 352.147 258.005 352.204 258.258 352.244C258.456 352.276 258.566 352.321 258.627 352.553C258.736 352.967 258.906 353.367 259.083 353.759C259.15 353.906 259.161 354.025 259.095 354.157C258.897 354.553 258.711 354.954 258.359 355.254C258.133 355.447 257.907 355.585 257.598 355.544C256.427 355.387 255.387 354.948 254.567 354.082C254.179 353.672 253.926 353.167 253.653 352.668C253.299 352.021 253.224 351.336 253.166 350.649C253.121 350.12 253.19 349.57 253.28 349.042C253.454 348.029 253.885 347.104 254.378 346.208C254.628 345.754 254.883 345.302 255.136 344.85C255.195 344.821 255.261 344.671 255.322 344.649C255.823 344.471 256.317 344.409 256.819 344.232C257.107 344.136 257.395 344.042 257.681 343.943C258.423 343.688 259.142 343.389 259.803 342.957C260.175 342.714 260.549 342.454 260.959 342.296C261.347 342.148 261.783 342.05 262.195 342.056C263.272 342.072 264.349 342.149 265.424 342.219C265.914 342.251 266.4 342.352 266.89 342.373C267.495 342.399 268.103 342.391 268.709 342.366C269.239 342.344 269.767 342.285 270.295 342.229C270.508 342.206 270.717 342.15 270.928 342.106C271.468 341.995 272.016 341.908 272.547 341.763C273.319 341.551 274.028 341.182 274.711 340.772C275.311 340.411 275.91 340.045 276.48 339.639C277.188 339.135 277.721 338.449 278.28 337.791C278.914 337.045 279.433 336.216 279.85 335.348C280.302 334.409 280.475 333.372 280.391 332.312C280.38 332.178 280.38 332.044 280.375 331.91C280.686 331.722 280.983 331.502 281.312 331.355C281.728 331.168 282.172 331.042 282.602 330.884C283.083 330.708 283.557 330.512 284.041 330.348C284.921 330.05 285.817 329.797 286.686 329.473C287.261 329.259 287.766 329.277 288.236 329.673C288.565 329.951 288.895 330.231 289.197 330.538C290.186 331.541 290.711 332.823 291.287 334.072C291.522 334.58 291.687 335.122 291.947 335.615C292.62 336.89 292.959 338.254 293.102 339.674C293.158 340.231 293.209 340.79 293.226 341.349C293.243 341.88 293.211 342.412 293.201 342.944C293.196 342.964 293.191 342.983 293.187 343.003L293.189 343.003C293.113 343.066 293.029 343.123 292.962 343.194C292.066 344.152 291.197 345.137 290.271 346.064C289.383 346.954 288.456 347.806 287.512 348.636C286.489 349.535 285.445 350.413 284.377 351.258C283.489 351.961 282.564 352.618 281.634 353.264C280.936 353.75 280.216 354.208 279.484 354.641C278.893 354.99 278.273 355.29 277.66 355.6C276.735 356.068 275.812 356.541 274.875 356.984C274.091 357.354 273.291 357.689 272.494 358.032C272.224 358.149 271.945 358.249 271.667 358.347C271.205 358.509 270.742 358.665 270.279 358.823C269.771 358.996 269.271 359.196 268.754 359.335C267.432 359.69 266.078 359.864 264.717 359.99C264.234 360.034 263.754 360.087 263.272 360.137ZM262.265 357.663C262.275 357.634 262.283 357.605 262.293 357.576C262.129 357.331 261.971 357.081 261.8 356.839C261.501 356.417 261.585 356.209 262.093 356.11C262.429 356.044 262.76 355.958 263.095 355.894C263.16 355.882 263.247 355.916 263.307 355.955C263.492 356.074 263.665 356.211 263.85 356.328C263.9 356.36 263.977 356.347 264.022 356.352C263.937 356.025 263.859 355.721 263.781 355.418C263.738 355.251 263.638 355.202 263.47 355.233C262.774 355.362 262.138 355.705 261.431 355.797C260.908 355.865 260.39 355.964 259.869 356.041C259.65 356.073 259.436 356.288 259.454 356.483C259.487 356.851 259.963 357.375 260.332 357.44C260.376 357.447 260.445 357.42 260.472 357.386C260.492 357.359 260.474 357.29 260.454 357.249C260.378 357.092 260.291 356.94 260.214 356.782C260.166 356.684 260.174 356.587 260.297 356.56C260.46 356.523 260.614 356.515 260.759 356.654C261.117 356.998 261.45 357.38 261.922 357.581C262.028 357.628 262.15 357.637 262.265 357.663Z" fill="white"/>
<path d="M292.959 343.193C292.063 344.15 291.194 345.135 290.268 346.063C289.38 346.952 288.453 347.804 287.509 348.634C286.487 349.534 285.442 350.411 284.374 351.256C283.486 351.958 282.561 352.615 281.631 353.262C280.933 353.748 280.213 354.206 279.481 354.639C278.89 354.988 278.27 355.288 277.657 355.598C276.732 356.066 275.809 356.539 274.872 356.982C274.089 357.352 273.288 357.687 272.492 358.03C272.221 358.147 271.943 358.247 271.664 358.345C271.203 358.508 270.739 358.663 270.276 358.82C269.768 358.994 269.268 359.194 268.751 359.333C267.429 359.688 266.075 359.862 264.714 359.988C264.233 360.032 263.751 360.086 263.27 360.135C263.277 360.174 263.284 360.213 263.291 360.252C263.629 360.308 263.967 360.366 264.305 360.419C264.403 360.434 264.523 360.477 264.6 360.439C264.912 360.286 265.219 360.366 265.531 360.412C265.777 360.449 266.024 360.482 266.272 360.501C266.95 360.554 267.634 360.559 268.305 360.658C268.931 360.751 269.552 360.796 270.174 360.709C270.76 360.628 271.313 360.684 271.856 360.913C272.001 360.974 272.16 360.989 272.323 360.925C272.507 360.853 272.702 360.807 272.892 360.749C273.251 360.641 273.708 360.689 274.068 360.581C274.247 360.493 274.425 360.4 274.609 360.323C274.65 360.306 274.716 360.348 274.77 360.362C274.946 360.231 275.012 360.111 275.193 360.215C275.905 360.728 276.654 361.16 277.477 361.462C277.397 361.252 277.444 361.013 277.539 360.809C277.634 360.606 277.772 360.426 277.886 360.232C278.06 359.936 278.181 359.601 278.429 359.364C278.558 359.242 278.714 359.153 278.859 359.053C279.286 358.76 279.635 358.357 279.866 357.894C279.874 357.955 279.883 358.016 279.892 358.077C280.181 357.893 280.47 357.71 280.76 357.526C280.651 357.91 280.556 358.365 280.81 358.673C280.882 358.587 280.942 358.491 280.988 358.388C281.005 358.352 281.02 358.315 281.033 358.277C281.04 358.298 281.048 358.32 281.055 358.341C281.061 358.356 281.066 358.371 281.071 358.386C281.134 358.211 281.331 358.133 281.498 358.053C281.896 357.861 282.223 357.542 282.526 357.182C282.679 357.018 282.821 356.841 282.96 356.662C283.01 356.597 283.065 356.526 283.102 356.452C283.324 356.166 283.551 355.89 283.801 355.664C283.801 355.664 283.801 355.664 283.802 355.663C283.922 355.576 284.042 355.487 284.16 355.396C285.004 354.738 285.856 354.087 286.685 353.41C287.147 353.031 287.524 352.554 288.039 352.232C288.196 352.135 288.327 351.988 288.452 351.848C289.065 351.158 289.665 350.456 290.283 349.771C290.831 349.163 291.336 348.521 291.756 347.821C292.074 347.29 292.343 346.73 292.626 346.178C292.687 346.06 292.725 345.925 292.748 345.794C292.895 344.937 293.035 344.079 293.175 343.22C293.187 343.149 293.183 343.074 293.186 343C293.11 343.064 293.026 343.121 292.959 343.193Z" fill="#DDDDDC"/>
<path d="M247.793 340.492C247.931 340.273 248.068 340.054 248.206 339.835C248.251 339.808 248.303 339.787 248.341 339.752C248.656 339.461 248.939 339.128 249.286 338.884C249.887 338.46 250.506 338.054 251.156 337.712C251.81 337.368 252.5 337.085 253.193 336.824C253.766 336.608 254.358 336.422 254.957 336.294C255.713 336.132 256.483 336.028 257.25 335.925C257.845 335.844 258.447 335.812 259.043 335.738C259.252 335.712 259.453 335.627 259.658 335.569C259.656 335.533 259.653 335.497 259.651 335.462C259.464 335.438 259.277 335.386 259.093 335.396C258.699 335.416 258.305 335.459 257.914 335.508C257.292 335.585 256.671 335.662 256.053 335.761C255.552 335.842 255.054 335.942 254.56 336.056C254.145 336.152 253.733 336.27 253.327 336.401C253.011 336.503 252.703 336.631 252.397 336.762C251.879 336.984 251.354 337.195 250.854 337.451C250.422 337.672 250.011 337.937 249.607 338.207C249.316 338.401 249.046 338.631 248.776 338.855C248.572 339.024 248.382 339.208 248.179 339.393C248.166 339.315 248.156 339.253 248.146 339.19C248.354 338.841 248.561 338.491 248.769 338.142C249.132 337.923 249.494 337.701 249.86 337.484C250.039 337.379 250.22 337.277 250.406 337.185C250.719 337.029 251.036 336.88 251.351 336.73C251.651 336.586 251.948 336.433 252.254 336.304C252.604 336.156 252.962 336.029 253.318 335.897C253.563 335.807 253.807 335.71 254.057 335.639C254.377 335.548 254.703 335.477 255.028 335.404C255.334 335.334 255.639 335.25 255.949 335.212C256.533 335.139 257.119 335.078 257.707 335.045C258.281 335.013 258.858 335.02 259.433 335.017C259.502 335.016 259.577 335.054 259.641 335.09C259.891 335.234 260.05 335.223 260.267 335.055C260.693 334.723 261.105 334.372 261.553 334.075C262.046 333.748 262.561 333.449 263.089 333.182C263.496 332.975 263.929 332.815 264.364 332.671C264.875 332.5 265.397 332.363 265.918 332.223C266.225 332.141 266.538 332.08 266.848 332.009C267.37 332.039 267.894 332.053 268.415 332.103C269.042 332.163 269.663 332.272 270.29 332.323C270.87 332.37 271.454 332.385 272.036 332.383C272.685 332.382 273.311 332.237 273.91 331.989C274.149 331.89 274.385 331.808 274.65 331.847C274.765 331.864 274.825 331.906 274.805 332.028C274.781 332.181 274.756 332.333 274.731 332.485C274.626 332.529 274.52 332.571 274.416 332.615C274.076 332.762 273.735 332.907 273.398 333.058C273.213 333.141 273.041 333.255 272.852 333.32C272.347 333.495 271.839 333.662 271.326 333.81C271.027 333.895 270.717 333.948 270.409 333.996C270.059 334.05 269.705 334.082 269.354 334.123C268.937 334.172 268.519 334.216 268.103 334.273C267.84 334.308 267.58 334.363 267.319 334.41C267.066 334.441 266.814 334.472 266.561 334.503C266.436 334.505 266.309 334.496 266.185 334.511C265.82 334.558 265.457 334.617 265.093 334.666C264.729 334.716 264.362 334.744 264.002 334.811C263.552 334.894 263.104 334.991 262.663 335.109C262.282 335.211 261.909 335.345 261.536 335.475C261.261 335.571 260.992 335.686 260.719 335.789C260.525 335.862 260.326 335.922 260.134 336C259.966 336.069 259.794 336.14 259.645 336.24C259.474 336.356 259.428 336.545 259.425 336.75C259.422 336.931 259.427 337.157 259.205 337.201C258.773 337.286 258.333 337.33 257.896 337.389C257.434 337.451 256.971 337.509 256.51 337.573C256.073 337.634 255.636 337.691 255.202 337.768C254.712 337.854 254.219 337.94 253.737 338.065C253.189 338.207 252.619 338.288 252.113 338.568C251.936 338.613 251.754 338.644 251.583 338.705C251.132 338.866 250.676 339.015 250.242 339.215C249.784 339.427 249.34 339.676 248.911 339.942C248.647 340.106 248.424 340.337 248.18 340.534C247.974 340.7 247.968 340.697 247.793 340.492Z" fill="#4D7E3D"/>
<path d="M261.436 327.988C261.409 328.227 261.373 328.466 261.326 328.703C261.187 329.408 261.085 330.116 261.093 330.837C261.095 331.001 261.044 331.085 260.86 331.121C260.333 331.224 259.81 331.353 259.287 331.477C258.988 331.547 258.691 331.625 258.393 331.702C257.949 331.817 257.501 331.923 257.06 332.051C256.689 332.16 256.323 332.29 255.957 332.419C255.598 332.546 255.232 332.662 254.887 332.82C254.446 333.023 254.024 333.264 253.593 333.487C253.198 333.692 252.802 333.894 252.408 334.1C252.032 334.296 251.954 334.326 251.752 333.96C251.754 333.931 251.756 333.9 251.758 333.87C251.748 333.768 251.737 333.667 251.727 333.565C251.721 333.541 251.715 333.517 251.708 333.493C251.711 333.473 251.714 333.454 251.717 333.434C251.759 333.102 251.782 332.767 251.848 332.44C251.92 332.079 252.018 331.722 252.13 331.372C252.388 330.564 252.913 329.923 253.464 329.301C253.476 329.294 253.487 329.286 253.499 329.279C253.524 329.269 253.548 329.259 253.573 329.249C253.774 329.138 253.976 329.027 254.177 328.916L254.214 328.897C254.26 328.858 254.302 328.812 254.352 328.78C254.946 328.408 255.614 328.233 256.284 328.071C256.58 327.999 256.885 327.959 257.186 327.902C257.602 327.822 258.017 327.724 258.436 327.664C258.698 327.626 258.969 327.631 259.235 327.64C259.653 327.655 260.072 327.679 260.488 327.719C260.771 327.745 261.054 327.8 261.334 327.856C261.377 327.864 261.44 327.946 261.436 327.988Z" fill="#4D7E3D"/>
<path d="M249.096 337.18C249.414 336.827 249.723 336.464 250.052 336.121C250.596 335.554 251.191 335.044 251.857 334.62C252.218 334.472 252.589 334.346 252.936 334.171C253.477 333.898 253.996 333.582 254.535 333.305C254.909 333.113 255.291 332.924 255.688 332.786C256.373 332.548 257.072 332.345 257.769 332.141C258.184 332.019 258.604 331.913 259.027 331.819C259.672 331.675 260.322 331.546 260.97 331.417C261.09 331.393 261.215 331.397 261.364 331.387C261.057 332.157 260.529 332.734 260.109 333.379C259.888 333.719 259.661 334.056 259.454 334.405C259.348 334.583 259.254 334.737 259.012 334.708C258.866 334.691 258.717 334.686 258.57 334.691C258.102 334.708 257.632 334.711 257.167 334.758C256.543 334.822 255.92 334.902 255.304 335.014C254.873 335.093 254.448 335.219 254.031 335.356C253.333 335.586 252.637 335.821 251.955 336.092C251.492 336.276 251.049 336.515 250.608 336.749C250.143 336.996 249.692 337.27 249.232 337.527C249.175 337.559 249.101 337.56 249.035 337.575C249.014 337.554 248.994 337.533 248.973 337.511C249.015 337.401 249.055 337.291 249.096 337.18Z" fill="#4D7E3D"/>
<path d="M262.264 357.66C262.149 357.634 262.026 357.625 261.92 357.58C261.448 357.379 261.115 356.997 260.757 356.653C260.612 356.513 260.458 356.522 260.295 356.558C260.172 356.586 260.164 356.683 260.212 356.781C260.289 356.938 260.376 357.09 260.453 357.248C260.472 357.289 260.49 357.358 260.47 357.384C260.443 357.419 260.374 357.446 260.33 357.438C259.961 357.373 259.485 356.85 259.452 356.481C259.435 356.287 259.648 356.072 259.867 356.04C260.388 355.963 260.906 355.863 261.429 355.796C262.136 355.703 262.772 355.36 263.468 355.232C263.636 355.201 263.736 355.25 263.779 355.417C263.857 355.72 263.935 356.024 264.02 356.351C263.975 356.346 263.898 356.358 263.848 356.327C263.663 356.209 263.489 356.072 263.305 355.953C263.245 355.915 263.159 355.88 263.093 355.893C262.758 355.957 262.427 356.043 262.091 356.108C261.583 356.208 261.499 356.416 261.798 356.838C261.968 357.079 262.127 357.329 262.291 357.575C262.282 357.603 262.273 357.631 262.264 357.66Z" fill="#110E0D"/>
<path d="M262.782 333.042C262.354 333.29 261.931 333.544 261.512 333.805C261.064 334.083 260.628 334.379 260.176 334.651C260.094 334.701 259.92 334.716 259.868 334.666C259.808 334.608 259.835 334.459 259.831 334.349C259.83 334.318 259.848 334.284 259.864 334.254C260.132 333.725 260.584 333.381 261.076 333.093C261.393 332.908 261.741 332.775 262.077 332.623C262.473 332.444 262.867 332.261 263.269 332.095C263.572 331.969 263.882 331.864 264.192 331.756C264.557 331.628 264.922 331.499 265.294 331.388C265.439 331.345 265.6 331.36 265.752 331.333C266.117 331.267 266.482 331.192 266.847 331.121C267.02 331.113 267.192 331.105 267.365 331.097C268.2 331.059 269.031 331 269.861 331.202C270.584 331.377 271.322 331.493 272.073 331.433C272.239 331.42 272.407 331.411 272.571 331.384C272.834 331.341 273.096 331.291 273.355 331.23C273.411 331.217 273.452 331.146 273.5 331.102C273.494 331.084 273.487 331.065 273.481 331.047C273.385 331.032 273.288 330.998 273.194 331.006C272.714 331.045 272.237 331.123 271.757 331.133C271.357 331.141 270.953 331.092 270.556 331.035C270.085 330.969 269.622 330.845 269.15 330.788C268.834 330.749 268.508 330.764 268.189 330.786C267.785 330.813 267.384 330.87 266.982 330.914C266.783 330.94 266.584 330.962 266.386 330.995C265.953 331.068 265.509 331.107 265.091 331.232C264.395 331.441 263.715 331.702 263.031 331.952C262.55 332.127 262.075 332.32 261.597 332.504C261.417 332.574 261.236 332.641 261.004 332.73C261.321 332.036 261.692 331.447 262.145 330.917C262.469 330.537 262.818 330.174 263.188 329.838C263.613 329.453 264.07 329.102 264.52 328.747C264.697 328.607 264.896 328.496 265.084 328.371C265.055 328.311 265.025 328.252 264.995 328.192C264.946 328.215 264.897 328.238 264.849 328.262C264.791 328.295 264.734 328.328 264.677 328.361C264.362 328.574 264.044 328.782 263.733 329C263.178 329.39 262.683 329.847 262.226 330.348C262.056 330.535 261.877 330.716 261.691 330.889C261.577 330.994 261.474 330.936 261.462 330.801C261.432 330.435 261.394 330.065 261.415 329.7C261.435 329.35 261.519 329.003 261.585 328.657C261.63 328.421 261.674 328.181 261.753 327.954C261.938 327.42 262.336 327.036 262.72 326.643C262.975 326.382 263.213 326.103 263.459 325.831C263.304 325.819 263.201 325.892 263.112 326.016C262.877 326.343 262.602 326.635 262.281 326.882C262.174 327.018 262.074 327.162 261.957 327.29C261.717 327.551 261.423 327.659 261.07 327.569C260.788 327.536 260.506 327.505 260.225 327.469C260.148 327.459 260.072 327.436 259.995 327.419C259.923 327.43 259.851 327.45 259.778 327.449C259.378 327.446 258.976 327.411 258.577 327.436C258.035 327.47 257.495 327.547 256.954 327.609C256.303 327.683 255.675 327.842 255.084 328.131C255.054 328.15 255.024 328.169 254.993 328.188C254.975 328.212 254.956 328.236 254.938 328.26C254.907 328.29 254.877 328.319 254.846 328.349C254.737 328.403 254.628 328.457 254.52 328.512C254.332 328.62 254.145 328.728 253.957 328.836C253.83 328.915 253.703 328.993 253.576 329.072C253.575 329.132 253.574 329.191 253.573 329.25C253.774 329.139 253.976 329.028 254.177 328.918C254.19 328.911 254.202 328.905 254.214 328.899C254.26 328.859 254.302 328.813 254.352 328.782C254.946 328.41 255.614 328.235 256.284 328.073C256.581 328.001 256.885 327.96 257.186 327.903C257.603 327.823 258.017 327.725 258.436 327.665C258.698 327.627 258.969 327.632 259.235 327.642C259.653 327.656 260.071 327.68 260.488 327.72C260.772 327.747 261.053 327.802 261.334 327.857C261.377 327.865 261.44 327.947 261.436 327.989C261.41 328.228 261.373 328.468 261.326 328.704C261.187 329.409 261.085 330.118 261.093 330.838C261.094 331.002 261.043 331.086 260.86 331.122C260.332 331.225 259.81 331.354 259.287 331.478C258.987 331.548 258.691 331.627 258.393 331.703C257.948 331.818 257.501 331.924 257.06 332.053C256.688 332.161 256.323 332.291 255.957 332.42C255.597 332.547 255.232 332.663 254.886 332.821C254.446 333.024 254.023 333.265 253.592 333.488C253.197 333.693 252.801 333.895 252.407 334.101C252.032 334.298 251.953 334.327 251.752 333.962C251.772 334.061 251.796 334.16 251.812 334.26C251.83 334.379 251.909 334.69 251.924 334.81C252.328 334.545 252.588 334.345 252.935 334.17C253.476 333.898 253.995 333.582 254.534 333.305C254.908 333.112 255.29 332.923 255.687 332.786C256.372 332.548 257.071 332.344 257.767 332.14C258.183 332.019 258.603 331.912 259.026 331.818C259.671 331.675 260.321 331.545 260.969 331.416C261.089 331.392 261.214 331.397 261.363 331.386C261.056 332.156 260.528 332.734 260.108 333.379C259.887 333.719 259.66 334.055 259.453 334.404C259.347 334.582 259.253 334.736 259.011 334.708C258.865 334.691 258.716 334.685 258.569 334.691C258.101 334.707 257.631 334.71 257.166 334.758C256.542 334.821 255.919 334.901 255.303 335.013C254.872 335.092 254.447 335.218 254.03 335.356C253.332 335.585 252.635 335.82 251.954 336.092C251.491 336.276 251.048 336.514 250.607 336.749C250.142 336.996 249.691 337.269 249.231 337.526C249.174 337.558 249.1 337.559 249.034 337.575C249.046 337.791 248.957 337.959 248.788 338.089C248.775 338.1 248.774 338.125 248.768 338.144C249.131 337.925 249.494 337.703 249.86 337.486C250.038 337.381 250.22 337.279 250.405 337.187C250.718 337.031 251.035 336.882 251.35 336.732C251.651 336.588 251.947 336.435 252.253 336.306C252.603 336.158 252.961 336.031 253.317 335.899C253.562 335.809 253.806 335.712 254.056 335.641C254.376 335.55 254.702 335.48 255.027 335.406C255.333 335.337 255.638 335.252 255.948 335.214C256.532 335.141 257.118 335.08 257.706 335.047C258.28 335.015 258.857 335.022 259.432 335.019C259.501 335.018 259.576 335.056 259.64 335.092C259.89 335.236 260.049 335.225 260.266 335.057C260.692 334.725 261.104 334.374 261.553 334.077C262.045 333.75 262.56 333.451 263.088 333.184C263.495 332.977 263.929 332.817 264.363 332.673C264.874 332.503 265.397 332.365 265.917 332.225C266.224 332.143 266.537 332.082 266.847 332.012C266.818 331.955 266.79 331.898 266.762 331.841C266.225 331.851 265.702 331.942 265.181 332.076C264.338 332.293 263.536 332.606 262.782 333.042Z" fill="#110E0D"/>
<path d="M249.286 338.884C249.887 338.461 250.507 338.055 251.156 337.713C251.81 337.369 252.501 337.086 253.194 336.825C253.767 336.608 254.359 336.423 254.957 336.295C255.713 336.133 256.483 336.029 257.251 335.925C257.846 335.845 258.447 335.812 259.044 335.738C259.252 335.712 259.454 335.627 259.659 335.569C259.656 335.534 259.654 335.498 259.651 335.462C259.465 335.439 259.277 335.387 259.093 335.396C258.699 335.416 258.306 335.46 257.914 335.508C257.293 335.585 256.671 335.663 256.053 335.762C255.553 335.842 255.055 335.942 254.561 336.057C254.145 336.153 253.734 336.27 253.328 336.401C253.012 336.503 252.703 336.632 252.398 336.762C251.88 336.984 251.355 337.195 250.854 337.452C250.422 337.673 250.011 337.938 249.608 338.207C249.316 338.402 249.047 338.632 248.776 338.856C248.573 339.024 248.383 339.209 248.179 339.394C248.167 339.316 248.157 339.253 248.147 339.19C248.139 339.287 248.117 339.385 248.128 339.48C248.14 339.6 248.179 339.717 248.207 339.836C248.252 339.808 248.304 339.787 248.342 339.752C248.655 339.461 248.939 339.128 249.286 338.884Z" fill="#110E0D"/>
<path d="M274.54 331.509C274.275 331.578 274.021 331.684 273.756 331.754C273.332 331.867 272.909 331.994 272.477 332.058C272.076 332.117 271.663 332.12 271.257 332.114C270.877 332.107 270.497 332.072 270.12 332.021C269.723 331.968 269.332 331.849 268.934 331.82C268.323 331.774 267.709 331.778 267.096 331.771C266.986 331.77 266.876 331.818 266.766 331.844C266.794 331.901 266.822 331.958 266.851 332.014C267.373 332.044 267.897 332.058 268.418 332.108C269.045 332.167 269.666 332.277 270.293 332.328C270.873 332.375 271.457 332.39 272.039 332.388C272.688 332.387 273.314 332.242 273.913 331.994C274.152 331.895 274.388 331.813 274.653 331.852C274.768 331.869 274.828 331.911 274.808 332.033C274.783 332.185 274.759 332.338 274.734 332.49C274.629 332.534 274.523 332.576 274.419 332.62C274.079 332.767 273.738 332.912 273.4 333.063C273.216 333.146 273.044 333.26 272.855 333.325C272.35 333.499 271.842 333.667 271.329 333.814C271.03 333.9 270.72 333.953 270.412 334.001C270.062 334.055 269.708 334.087 269.357 334.128C268.94 334.177 268.522 334.221 268.106 334.277C267.843 334.313 267.583 334.368 267.322 334.415C267.069 334.446 266.817 334.477 266.564 334.508C266.439 334.51 266.312 334.5 266.188 334.516C265.823 334.563 265.46 334.622 265.096 334.671C264.732 334.721 264.365 334.749 264.005 334.816C263.555 334.899 263.107 334.996 262.666 335.114C262.285 335.216 261.912 335.35 261.539 335.48C261.264 335.576 260.995 335.691 260.722 335.794C260.528 335.867 260.329 335.927 260.137 336.005C259.969 336.074 259.797 336.144 259.648 336.245C259.477 336.361 259.431 336.55 259.428 336.755C259.425 336.935 259.43 337.162 259.208 337.206C258.776 337.291 258.336 337.335 257.899 337.394C257.437 337.456 256.974 337.514 256.512 337.578C256.076 337.639 255.639 337.696 255.205 337.773C254.715 337.859 254.221 337.945 253.74 338.07C253.192 338.212 252.622 338.293 252.115 338.573C251.938 338.618 251.756 338.649 251.585 338.71C251.135 338.871 250.678 339.02 250.245 339.22C249.787 339.432 249.343 339.681 248.914 339.947C248.65 340.111 248.427 340.342 248.182 340.539C247.977 340.704 247.971 340.701 247.796 340.496C247.775 340.621 248.019 340.86 248.2 340.894C248.547 340.631 248.88 340.346 249.244 340.11C249.639 339.853 250.064 339.64 250.476 339.41C250.497 339.399 250.528 339.406 250.555 339.404C250.368 339.784 250.419 340.184 250.488 340.572C250.594 341.17 251.027 341.925 251.47 342.355C251.395 342.375 251.335 342.395 251.273 342.407C250.637 342.526 249.998 342.593 249.35 342.562C249.277 342.558 249.203 342.573 249.13 342.579C249.214 342.756 249.298 342.932 249.383 343.109C249.632 342.992 249.859 342.865 250.16 342.844C250.814 342.799 251.465 342.69 252.113 342.576C252.798 342.455 253.48 342.308 254.159 342.154C254.6 342.054 255.034 341.921 255.471 341.802C255.82 341.685 256.17 341.568 256.52 341.451C256.555 341.43 256.59 341.41 256.625 341.39C256.781 341.331 256.94 341.278 257.092 341.212C257.437 341.06 257.779 340.904 258.121 340.745C258.536 340.552 258.95 340.359 259.362 340.158C259.617 340.033 259.86 339.882 260.119 339.767C260.27 339.701 260.443 339.685 260.606 339.645C260.799 339.73 261.005 339.794 261.185 339.902C261.742 340.239 262.327 340.255 262.943 340.121C263.227 340.059 263.523 340.056 263.814 340.026C264.059 340 264.308 339.993 264.548 339.944C264.828 339.887 265.102 339.802 265.374 339.714C265.858 339.559 266.34 339.396 266.82 339.228C267.183 339.101 267.542 338.961 267.902 338.826C268.134 338.739 268.371 338.664 268.595 338.561C268.895 338.423 269.188 338.268 269.477 338.109C269.702 337.986 269.917 337.844 270.136 337.711C270.15 337.619 270.164 337.526 270.178 337.434C270.135 337.468 270.092 337.502 270.049 337.535C270.038 337.544 270.028 337.552 270.018 337.561C269.968 337.583 269.918 337.606 269.868 337.628C269.787 337.681 269.705 337.734 269.624 337.787C269.594 337.802 269.565 337.82 269.533 337.831C269.073 337.99 268.607 338.138 268.151 338.311C267.71 338.477 267.28 338.672 266.842 338.848C266.485 338.991 266.123 339.121 265.765 339.262C265.172 339.496 264.569 339.68 263.926 339.72C263.54 339.744 263.144 339.653 262.774 339.88C262.528 340.031 262.233 339.989 261.949 339.946C261.775 339.919 261.617 339.842 261.465 339.757C261.389 339.715 261.314 339.67 261.237 339.63C261.16 339.588 261.078 339.553 261.014 339.49C260.986 339.462 260.962 339.431 260.943 339.396C260.893 339.303 260.883 339.187 260.928 339.092C260.962 339.017 261.031 338.957 261.111 338.936C261.154 338.925 261.185 338.939 261.226 338.94C261.278 338.943 261.331 338.943 261.383 338.943C261.593 338.943 261.802 338.931 262.011 338.923C262.055 338.921 262.099 338.919 262.143 338.918C263.504 339.005 264.817 338.745 266.112 338.364C266.441 338.34 266.687 338.273 266.944 338.182C267.329 338.046 267.672 337.944 268.058 337.814C268.087 337.805 268.187 337.781 268.219 337.781C268.265 337.759 268.853 337.487 269.037 337.373C269.444 337.123 269.844 336.852 270.207 336.544C270.676 336.148 271.111 335.713 271.552 335.287C271.816 335.032 272.072 334.769 272.317 334.497C272.534 334.255 272.724 333.987 272.941 333.744C273.068 333.602 273.209 333.456 273.372 333.365C273.664 333.203 273.977 333.081 274.282 332.942C274.292 332.935 274.303 332.928 274.313 332.921C274.392 332.895 274.47 332.87 274.549 332.844C274.559 332.837 274.57 332.831 274.58 332.824C274.618 332.804 274.655 332.785 274.693 332.766C274.702 332.752 274.71 332.739 274.719 332.725C274.73 332.72 274.741 332.715 274.752 332.709C274.765 332.712 274.781 332.722 274.79 332.718C275.134 332.549 275.254 332.249 275.122 331.894C275.01 331.594 274.797 331.442 274.54 331.509ZM254.014 340.076C253.806 340.169 253.557 340.055 253.453 339.82C253.383 339.66 253.459 339.51 253.655 339.422C253.886 339.319 254.123 339.372 254.206 339.545C254.293 339.727 254.196 339.996 254.014 340.076ZM255.267 340.484C255.034 340.597 254.774 340.511 254.671 340.286C254.575 340.075 254.641 339.857 254.828 339.769C255.047 339.665 255.295 339.758 255.399 339.983C255.501 340.203 255.45 340.396 255.267 340.484ZM260.343 339.33C259.718 339.676 259.107 340.05 258.458 340.344C257.876 340.608 257.252 340.778 256.646 340.99C256.674 340.652 256.768 340.303 256.713 339.978C256.624 339.447 256.392 338.95 256.06 338.519C255.921 338.337 255.715 338.208 255.539 338.054C255.775 338.009 256.009 337.956 256.246 337.919C256.629 337.861 257.013 337.811 257.397 337.762C257.911 337.695 258.425 337.632 258.939 337.567C258.979 337.562 259.018 337.552 259.058 337.543C259.538 337.435 259.641 337.484 259.908 337.88C260.083 338.14 260.274 338.389 260.471 338.632C260.658 338.861 260.612 339.18 260.343 339.33ZM261.799 335.665C261.656 336.211 261.64 336.748 261.901 337.268C262.155 337.773 262.423 338.266 262.975 338.599C262.712 338.629 262.503 338.654 262.294 338.678C262.279 338.677 262.263 338.676 262.248 338.675C262.232 338.677 262.216 338.679 262.2 338.682C262.186 338.68 262.172 338.678 262.158 338.677C262.141 338.679 262.125 338.681 262.108 338.683C261.888 338.688 261.667 338.681 261.448 338.701C261.043 338.739 260.743 338.602 260.482 338.275C260.2 337.921 259.958 337.552 259.772 337.142C259.621 336.806 259.71 336.535 260.064 336.376C260.611 336.13 261.166 335.904 261.719 335.67C261.743 335.659 261.773 335.666 261.799 335.665C261.822 335.648 261.843 335.629 261.865 335.609C261.843 335.628 261.822 335.648 261.799 335.665ZM264.413 335.669C264.332 335.494 264.413 335.278 264.593 335.189C264.754 335.11 265.03 335.192 265.111 335.344C265.204 335.518 265.132 335.734 264.951 335.823C264.738 335.929 264.502 335.861 264.413 335.669ZM266.064 336.484C265.848 336.578 265.508 336.477 265.424 336.294C265.326 336.078 265.43 335.837 265.668 335.73C265.83 335.658 266.098 335.786 266.186 335.978C266.289 336.201 266.239 336.408 266.064 336.484ZM268.93 337.104C268.435 337.292 267.94 337.482 267.444 337.666C267.367 337.695 267.279 337.697 267.148 337.719C267.35 337.176 267.356 336.659 267.309 336.136C267.261 335.598 267.048 335.145 266.594 334.738C266.929 334.686 267.214 334.642 267.499 334.598C267.837 334.566 268.176 334.536 268.513 334.499C268.844 334.464 269.173 334.422 269.503 334.379C269.881 334.33 270.259 334.288 270.634 334.225C271.098 334.147 271.559 334.052 272.02 333.959C272.171 333.929 272.318 333.883 272.514 333.831C271.485 335.161 270.297 336.23 268.93 337.104Z" fill="#110E0D"/>
<path d="M266.766 327.626C267.116 327.484 267.489 327.386 267.861 327.317C268.386 327.22 268.918 327.123 269.449 327.109C270.085 327.093 270.721 327.165 271.358 327.203C271.443 327.208 271.526 327.238 271.611 327.251C271.916 327.299 272.22 327.349 272.525 327.388C272.649 327.404 272.732 327.347 272.725 327.168C272.221 327.075 271.718 326.95 271.207 326.897C270.636 326.839 270.058 326.817 269.484 326.834C268.94 326.85 268.389 326.897 267.855 327.003C267.344 327.104 266.837 327.263 266.354 327.46C265.896 327.646 265.472 327.914 265.033 328.147C265.017 328.155 265.008 328.178 264.996 328.194C265.026 328.254 265.056 328.314 265.086 328.374C265.118 328.368 265.154 328.369 265.183 328.355C265.71 328.111 266.228 327.844 266.766 327.626Z" fill="#110E0D"/>
<path d="M269.738 340.617C269.668 340.602 269.591 340.614 269.518 340.616C269.096 340.625 268.673 340.647 268.25 340.642C267.555 340.632 266.86 340.616 266.165 340.582C265.723 340.561 265.284 340.5 264.843 340.461C264.636 340.443 264.429 340.422 264.222 340.426C264.153 340.427 264.085 340.502 264.017 340.544C264.073 340.583 264.125 340.63 264.187 340.657C264.24 340.681 264.304 340.687 264.364 340.692C265.079 340.751 265.794 340.815 266.51 340.864C267.011 340.898 267.514 340.922 268.016 340.928C268.484 340.934 268.951 340.911 269.419 340.896C269.539 340.892 269.657 340.87 269.794 340.854C269.831 340.804 269.866 340.755 269.901 340.707C269.847 340.675 269.796 340.629 269.738 340.617Z" fill="#110E0D"/>
<path d="M270.262 337.648C270.935 337.164 271.616 336.691 272.273 336.187C272.584 335.948 272.849 335.65 273.126 335.37C273.165 335.331 273.152 335.241 273.163 335.175C273.097 335.177 273.019 335.157 272.967 335.185C272.885 335.228 272.822 335.302 272.75 335.363C272.221 335.813 271.699 336.27 271.161 336.708C270.846 336.965 270.506 337.192 270.178 337.432C270.163 337.525 270.149 337.617 270.135 337.709C270.177 337.689 270.224 337.675 270.262 337.648Z" fill="#110E0D"/>
<path d="M250.551 339.399C250.365 339.779 250.416 340.179 250.485 340.567C250.591 341.165 251.024 341.92 251.467 342.349C251.391 342.369 251.331 342.39 251.27 342.402C250.634 342.52 249.995 342.588 249.346 342.556C249.274 342.553 249.2 342.568 249.126 342.574C248.83 342.533 248.523 342.55 248.262 342.355C247.941 342.116 247.849 341.632 248.068 341.297C248.11 341.233 248.123 341.151 248.146 341.077C248.166 341.015 248.18 340.952 248.197 340.889C248.544 340.626 248.876 340.342 249.241 340.105C249.636 339.848 250.06 339.636 250.473 339.406C250.494 339.393 250.525 339.401 250.551 339.399Z" fill="#F4F3F3"/>
<path d="M255.536 338.048C255.771 338.002 256.006 337.95 256.242 337.913C256.625 337.855 257.009 337.805 257.393 337.756C257.907 337.689 258.421 337.626 258.935 337.561C258.975 337.556 259.014 337.545 259.054 337.537C259.534 337.429 259.637 337.478 259.904 337.874C260.079 338.134 260.27 338.383 260.467 338.626C260.654 338.856 260.608 339.175 260.339 339.324C259.714 339.67 259.103 340.045 258.454 340.338C257.872 340.602 257.248 340.772 256.642 340.984C256.67 340.646 256.764 340.297 256.709 339.972C256.62 339.441 256.388 338.944 256.056 338.513C255.917 338.331 255.711 338.201 255.536 338.048Z" fill="#F8F8F8"/>
<path d="M255.397 339.982C255.498 340.201 255.448 340.394 255.265 340.483C255.032 340.596 254.771 340.509 254.669 340.284C254.573 340.073 254.639 339.856 254.826 339.767C255.045 339.664 255.293 339.757 255.397 339.982Z" fill="#F4F3F3"/>
<path d="M253.648 339.413C253.879 339.31 254.116 339.363 254.199 339.536C254.286 339.718 254.189 339.987 254.007 340.067C253.799 340.16 253.55 340.046 253.446 339.811C253.375 339.651 253.451 339.501 253.648 339.413Z" fill="#F4F3F3"/>
<path d="M267.493 334.589C267.831 334.556 268.17 334.527 268.507 334.49C268.838 334.455 269.167 334.413 269.497 334.37C269.875 334.321 270.254 334.279 270.629 334.216C271.092 334.138 271.553 334.043 272.014 333.95C272.165 333.92 272.312 333.874 272.508 333.822C271.479 335.152 270.291 336.221 268.924 337.095C268.429 337.283 267.935 337.473 267.438 337.657C267.361 337.686 267.274 337.687 267.143 337.71C267.344 337.167 267.35 336.65 267.303 336.126C267.255 335.589 267.042 335.135 266.588 334.729C266.923 334.677 267.208 334.633 267.493 334.589Z" fill="#F4F4F4"/>
<path d="M262.104 338.675C261.884 338.68 261.663 338.674 261.444 338.694C261.038 338.731 260.739 338.594 260.478 338.267C260.196 337.913 259.954 337.544 259.768 337.134C259.616 336.798 259.706 336.527 260.059 336.369C260.607 336.123 261.162 335.896 261.715 335.663C261.738 335.653 261.768 335.66 261.795 335.658C261.651 336.204 261.635 336.742 261.897 337.262C262.15 337.766 262.418 338.259 262.97 338.592C262.707 338.623 262.498 338.647 262.29 338.671C262.274 338.671 262.259 338.669 262.243 338.668C262.227 338.67 262.211 338.673 262.195 338.675C262.181 338.673 262.167 338.672 262.153 338.67C262.137 338.671 262.12 338.673 262.104 338.675Z" fill="#F4F3F3"/>
<path d="M266.183 335.973C266.286 336.197 266.235 336.404 266.06 336.48C265.844 336.574 265.505 336.473 265.421 336.29C265.322 336.074 265.427 335.833 265.665 335.726C265.827 335.654 266.094 335.782 266.183 335.973Z" fill="#F4F3F3"/>
<path d="M264.945 335.818C264.733 335.922 264.497 335.854 264.408 335.663C264.327 335.488 264.407 335.272 264.587 335.184C264.748 335.104 265.024 335.187 265.105 335.339C265.198 335.513 265.126 335.728 264.945 335.818Z" fill="#F4F3F3"/>
<path d="M279.224 328.977C278.905 328.45 278.575 327.925 278.199 327.438C277.686 326.771 277.055 326.217 276.406 325.675C275.216 324.682 273.9 323.958 272.395 323.582C272.109 323.511 271.828 323.425 271.545 323.346C271.528 323.342 271.51 323.338 271.493 323.335C271.328 323.31 271.164 323.286 271 323.261C270.903 323.248 270.805 323.235 270.708 323.221L270.709 323.222C270.66 323.216 270.612 323.21 270.563 323.204L270.564 323.205C270.534 323.202 270.504 323.2 270.474 323.198C270.348 323.19 270.221 323.181 270.095 323.173C270.032 323.167 269.969 323.162 269.907 323.156C269.892 323.143 269.876 323.119 269.862 323.12C269.24 323.155 268.617 323.192 267.995 323.232C267.957 323.234 267.921 323.26 267.884 323.276L267.884 323.275C267.767 323.279 267.645 323.264 267.533 323.29C267.3 323.344 267.037 323.37 266.852 323.5C266.681 323.619 266.51 323.589 266.365 323.673C266.324 323.747 266.277 323.821 266.21 323.869C266.119 323.933 265.996 323.961 265.997 324.106C265.641 324.135 265.402 324.39 265.124 324.565C264.769 324.789 264.425 325.031 264.077 325.266C263.871 325.454 263.664 325.642 263.458 325.831C263.212 326.102 262.974 326.381 262.718 326.642C262.334 327.035 261.937 327.419 261.751 327.953C261.673 328.18 261.629 328.42 261.584 328.656C261.518 329.003 261.434 329.35 261.414 329.699C261.393 330.065 261.43 330.434 261.461 330.801C261.472 330.935 261.576 330.993 261.69 330.888C261.875 330.716 262.054 330.535 262.225 330.347C262.681 329.847 263.177 329.389 263.731 328.999C264.042 328.781 264.36 328.573 264.675 328.361C264.732 328.328 264.789 328.294 264.847 328.261C264.896 328.238 264.944 328.214 264.993 328.191C265.005 328.175 265.013 328.152 265.03 328.143C265.468 327.91 265.893 327.643 266.351 327.456C266.834 327.26 267.341 327.101 267.852 327C268.386 326.895 268.936 326.847 269.481 326.831C270.054 326.814 270.632 326.836 271.203 326.894C271.714 326.947 272.218 327.072 272.722 327.165C272.729 327.344 272.646 327.401 272.522 327.385C272.216 327.346 271.912 327.296 271.608 327.249C271.523 327.235 271.439 327.205 271.354 327.2C270.718 327.162 270.081 327.09 269.446 327.106C268.915 327.119 268.383 327.217 267.858 327.314C267.487 327.383 267.113 327.481 266.764 327.623C266.225 327.841 265.707 328.108 265.18 328.352C265.151 328.366 265.115 328.365 265.083 328.371C264.894 328.495 264.695 328.607 264.519 328.746C264.068 329.102 263.612 329.452 263.187 329.837C262.817 330.173 262.468 330.536 262.143 330.916C261.69 331.446 261.32 332.035 261.002 332.73C261.234 332.641 261.416 332.572 261.596 332.503C262.074 332.319 262.549 332.126 263.03 331.951C263.713 331.702 264.394 331.441 265.09 331.232C265.508 331.106 265.952 331.067 266.385 330.994C266.582 330.96 266.782 330.939 266.98 330.913C267.382 330.868 267.784 330.811 268.187 330.785C268.507 330.763 268.833 330.747 269.149 330.786C269.62 330.844 270.084 330.967 270.555 331.034C270.952 331.091 271.356 331.14 271.756 331.131C272.235 331.122 272.713 331.044 273.193 331.005C273.287 330.997 273.384 331.031 273.48 331.045C273.486 331.064 273.492 331.082 273.499 331.101C273.451 331.145 273.409 331.216 273.354 331.229C273.095 331.289 272.833 331.34 272.57 331.383C272.405 331.41 272.238 331.418 272.071 331.431C271.32 331.491 270.583 331.376 269.86 331.2C269.03 330.998 268.198 331.057 267.364 331.095C267.191 331.103 267.018 331.112 266.846 331.12C266.481 331.191 266.116 331.266 265.751 331.331C265.599 331.358 265.438 331.344 265.292 331.387C264.921 331.497 264.556 331.627 264.19 331.755C263.881 331.862 263.57 331.968 263.268 332.093C262.866 332.26 262.471 332.442 262.076 332.622C261.74 332.774 261.392 332.906 261.075 333.091C260.583 333.379 260.131 333.724 259.862 334.252C259.847 334.282 259.828 334.316 259.83 334.347C259.834 334.457 259.807 334.607 259.866 334.664C259.919 334.715 260.093 334.699 260.175 334.65C260.627 334.377 261.063 334.081 261.511 333.803C261.929 333.542 262.353 333.288 262.78 333.041C263.534 332.605 264.337 332.291 265.181 332.074C265.702 331.94 266.225 331.849 266.762 331.839C266.872 331.814 266.982 331.765 267.092 331.766C267.705 331.773 268.319 331.77 268.93 331.815C269.328 331.845 269.719 331.964 270.116 332.017C270.493 332.067 270.873 332.103 271.253 332.109C271.659 332.115 272.072 332.112 272.472 332.053C272.905 331.989 273.328 331.862 273.752 331.749C274.016 331.679 274.271 331.573 274.536 331.504C274.793 331.437 275.006 331.589 275.119 331.89C275.251 332.245 275.131 332.545 274.788 332.714C274.779 332.718 274.762 332.709 274.75 332.705C274.739 332.711 274.727 332.716 274.716 332.721C274.707 332.735 274.699 332.748 274.69 332.762C274.653 332.781 274.615 332.8 274.578 332.82L274.565 332.834L274.546 332.84C274.468 332.866 274.39 332.891 274.311 332.917C274.302 332.926 274.291 332.933 274.28 332.938C273.975 333.077 273.662 333.2 273.37 333.362C273.207 333.453 273.066 333.598 272.939 333.74C272.722 333.983 272.532 334.251 272.314 334.493C272.069 334.765 271.813 335.029 271.55 335.283C271.108 335.709 270.673 336.144 270.205 336.54C269.841 336.848 269.441 337.119 269.035 337.369C268.85 337.484 268.611 337.51 268.396 337.575C268.371 337.588 268.346 337.6 268.321 337.612C268.303 337.61 268.283 337.608 268.264 337.607C268.218 337.628 268.173 337.651 268.127 337.672C267.922 337.757 267.72 337.851 267.511 337.924C267.078 338.074 266.641 338.214 266.206 338.356C266.176 338.365 266.142 338.359 266.11 338.36C264.814 338.741 263.501 339.001 262.14 338.914C261.817 338.923 261.492 338.948 261.17 338.934C261.037 338.928 260.936 338.937 260.848 339.033C260.849 339.093 260.85 339.154 260.852 339.214C260.855 339.226 260.858 339.238 260.858 339.25C260.891 339.431 261.01 339.514 261.173 339.594C261.428 339.719 261.652 339.896 261.946 339.942C262.23 339.985 262.525 340.027 262.771 339.876C263.142 339.648 263.538 339.74 263.924 339.716C264.566 339.676 265.169 339.492 265.762 339.258C266.12 339.117 266.483 338.987 266.84 338.844C267.278 338.668 267.708 338.473 268.149 338.306C268.605 338.134 269.07 337.986 269.531 337.827C269.562 337.816 269.592 337.797 269.622 337.782C269.703 337.73 269.784 337.677 269.865 337.624C269.915 337.601 269.966 337.579 270.016 337.557C270.023 337.544 270.033 337.536 270.046 337.531C270.089 337.497 270.132 337.464 270.176 337.43C270.504 337.19 270.844 336.962 271.159 336.705C271.697 336.267 272.219 335.81 272.747 335.36C272.819 335.3 272.883 335.225 272.964 335.182C273.017 335.154 273.095 335.174 273.161 335.172C273.15 335.238 273.162 335.329 273.124 335.368C272.847 335.648 272.581 335.946 272.271 336.184C271.614 336.689 270.932 337.161 270.26 337.645C270.222 337.672 270.175 337.686 270.133 337.707C269.914 337.84 269.699 337.981 269.475 338.105C269.185 338.264 268.892 338.418 268.592 338.557C268.368 338.66 268.131 338.735 267.9 338.822C267.539 338.957 267.18 339.096 266.817 339.224C266.337 339.392 265.855 339.554 265.371 339.71C265.099 339.797 264.825 339.882 264.546 339.939C264.305 339.988 264.056 339.996 263.811 340.022C263.521 340.052 263.224 340.055 262.941 340.117C262.324 340.251 261.739 340.234 261.182 339.898C261.003 339.789 260.797 339.725 260.603 339.641C260.44 339.68 260.267 339.696 260.117 339.762C259.857 339.877 259.614 340.028 259.359 340.153C258.948 340.354 258.533 340.547 258.118 340.74C257.777 340.899 257.434 341.055 257.089 341.207C256.937 341.274 256.778 341.326 256.622 341.386C256.587 341.406 256.552 341.426 256.517 341.447C256.167 341.564 255.817 341.681 255.468 341.798C255.031 341.916 254.597 342.05 254.156 342.15C253.477 342.304 252.795 342.45 252.11 342.571C251.463 342.685 250.811 342.794 250.157 342.84C249.856 342.86 249.629 342.988 249.38 343.105C249.398 343.14 249.417 343.175 249.435 343.211C249.713 343.283 249.992 343.355 250.271 343.427C250.283 343.423 250.294 343.421 250.306 343.42C250.355 343.422 250.403 343.425 250.452 343.427C250.88 343.403 251.274 343.5 251.592 343.796C252.105 344.274 252.719 344.426 253.359 344.496C253.359 344.496 253.36 344.496 253.36 344.496C255.328 344.931 257.288 344.076 257.324 344.06C257.324 344.06 257.324 344.06 257.324 344.06C257.442 344.02 257.559 343.98 257.677 343.94C258.418 343.685 259.138 343.385 259.799 342.953C260.17 342.711 260.545 342.451 260.954 342.293C261.342 342.145 261.778 342.047 262.191 342.053C263.268 342.069 264.344 342.146 265.42 342.217C265.909 342.249 266.396 342.349 266.885 342.37C267.49 342.396 268.099 342.388 268.704 342.363C269.234 342.341 269.763 342.282 270.29 342.226C270.503 342.203 270.713 342.147 270.923 342.103C271.464 341.992 272.011 341.905 272.542 341.76C273.314 341.548 274.023 341.179 274.706 340.769C275.306 340.408 275.905 340.042 276.475 339.636C277.184 339.132 277.716 338.446 278.275 337.788C278.909 337.042 279.428 336.213 279.845 335.345C280.297 334.406 280.47 333.369 280.386 332.309C280.375 332.176 280.375 332.041 280.37 331.907C280.248 331.286 280.097 330.674 279.8 330.107C279.603 329.733 279.443 329.337 279.224 328.977ZM269.791 340.85C269.654 340.865 269.535 340.888 269.416 340.891C268.949 340.907 268.481 340.929 268.013 340.924C267.511 340.918 267.008 340.893 266.508 340.859C265.791 340.811 265.076 340.747 264.361 340.688C264.301 340.683 264.238 340.677 264.184 340.653C264.122 340.626 264.07 340.578 264.014 340.539C264.083 340.498 264.15 340.423 264.219 340.422C264.425 340.417 264.633 340.439 264.84 340.457C265.281 340.496 265.721 340.556 266.162 340.578C266.856 340.612 267.552 340.628 268.248 340.637C268.67 340.643 269.092 340.621 269.515 340.612C269.588 340.61 269.664 340.598 269.734 340.613C269.793 340.625 269.844 340.671 269.898 340.702C269.863 340.751 269.828 340.799 269.791 340.85Z" fill="#4D7E3D"/>
<path d="M267.784 326.819C268.257 326.669 268.746 326.554 269.201 326.361C269.98 326.029 270.186 325.441 269.758 324.732C269.271 323.926 268.516 323.482 267.58 323.46C266.715 323.44 266.085 323.922 265.651 324.639C265.298 325.224 265.201 325.836 265.597 326.461C265.967 327.047 266.523 326.985 267.084 326.911C267.315 326.881 267.544 326.827 267.774 326.784C267.777 326.796 267.781 326.808 267.784 326.819Z" fill="white"/>
<path d="M282.679 318.385C284.554 314.162 289.054 312.514 289.054 312.514C291.252 316.284 290.889 325.168 290.889 325.168C298.857 333.842 302.231 340.625 302.231 340.625C303.428 344.399 293.113 352.252 292.639 352.668C292.165 353.083 285.35 357.381 283.36 359.218C281.37 361.055 280.446 364.834 280.446 364.834C280.29 364.63 279.509 364.727 279.509 364.727C279.337 364.908 278.759 366.867 278.759 366.867C274.519 364.392 267.058 365.524 267.058 365.524C264.705 365.739 264.333 365.183 264.333 365.183C263.513 364.35 263.062 360.658 263.062 360.658C263.024 360.247 262.776 359.988 262.776 359.988C259.948 358.816 258.652 356.499 258.652 356.499C258.233 355.705 257.86 355.819 257.86 355.819C254.084 355.62 253.02 352.089 253.02 352.089C251.985 348.329 254.87 345.06 254.87 345.06C252.442 345.332 251.263 343.852 251.263 343.852C250.881 343.445 249.896 343.673 249.896 343.673C249.313 343.724 248.99 342.789 248.99 342.789C248.153 342.668 247.882 342.191 247.882 342.191C247.553 341.531 247.962 341.008 247.962 341.008C247.776 340.937 247.533 340.663 247.533 340.663C247.491 340.469 247.958 339.824 247.958 339.824C247.849 339.592 247.83 339.279 247.83 339.279C247.83 338.956 248.751 337.746 248.751 337.746C248.638 337.471 248.701 337.359 248.701 337.359C249.628 335.806 251.647 334.404 251.647 334.404C250.814 329.832 254.684 328.087 254.684 328.087C254.261 327.107 255.887 325.852 255.769 325.874C254.445 326.112 252.908 325.625 252.908 325.625C250.907 325.176 249.149 324.235 247.564 322.959C245.88 321.602 244.719 319.882 243.96 317.54C243.118 314.6 243.503 311.553 245.295 308.697C245.326 308.647 245.349 308.58 245.395 308.554C245.529 308.48 245.693 308.348 245.807 308.379C245.917 308.409 246.03 308.603 246.056 308.742C246.19 309.445 246.258 310.162 246.418 310.858C247.162 314.103 249.184 316.192 252.292 317.287C253.641 317.763 255.012 318.113 256.459 318.055C256.536 318.052 256.615 318.052 256.693 318.047C257.24 317.943 257.92 317.641 258.498 316.864C258.557 316.776 258.616 316.689 258.677 316.604L258.677 316.603C258.677 316.603 260.067 314.164 262.316 313.194C262.35 312.186 262.451 311.268 262.618 311.153C263.421 310.598 264.29 310.32 265.269 310.388C265.523 310.406 265.665 310.513 265.765 310.752C265.935 311.156 266.06 311.579 266.168 312.009C266.168 312.009 266.632 311.347 269.691 311.38C270.045 311.373 270.4 311.385 270.752 311.416C270.754 311.416 270.756 311.416 270.757 311.416L270.758 311.416C270.903 311.428 271.048 311.444 271.192 311.463C272.059 311.579 272.86 311.941 273.708 312.161C274.557 312.382 274.915 312.393 275.458 312.231C276.276 311.988 276.871 311.346 277.45 310.772C277.45 310.772 277.451 310.771 277.451 310.771C278.061 310.167 278.59 309.481 279.083 308.757C280.173 307.157 280.866 305.426 280.761 303.444C280.67 301.704 280.083 300.118 279.27 298.601C279.149 298.375 278.892 298.144 279.134 297.87C279.381 297.59 279.641 297.829 279.871 297.929C282.876 299.24 284.866 301.479 285.842 304.311C286.529 306.565 286.527 308.559 286.05 310.589C285.662 312.246 282.679 318.385 282.679 318.385Z" stroke="#110E0D" stroke-width="0.972849" stroke-miterlimit="10"/>
<path d="M254.507 332.193C253.686 332.399 253.167 332.053 253.081 331.23C252.984 330.293 253.318 329.483 254.051 328.902C254.729 328.364 255.522 328.369 256.301 328.68C256.935 328.933 257.382 329.363 257.443 330.1C257.501 330.791 257.021 331.077 256.528 331.356C256.326 331.471 256.111 331.566 255.901 331.67C255.906 331.681 254.987 332.073 254.507 332.193Z" fill="white"/>
</g>
<defs>
<clipPath id="clip0_3_957">
<rect width="371" height="165" fill="white" transform="matrix(-1 0 0 1 269 41)"/>
</clipPath>
<clipPath id="clip1_3_957">
<rect width="66.3573" height="77.7015" fill="white" transform="translate(225 312.556) rotate(-26.4469)"/>
</clipPath>
</defs>
</svg>
