<svg width="121" height="223" viewBox="0 0 121 223" fill="none" xmlns="http://www.w3.org/2000/svg">
<g clip-path="url(#clip0_201_3)">
<path d="M64.3722 187.415C64.3442 187.314 64.3438 187.205 64.3711 187.088L74.1156 145.564C74.1398 145.436 74.184 145.327 74.3005 145.21L61.6108 99.1816C61.4958 98.7644 61.8586 98.3004 62.37 98.1594C62.8814 98.0184 63.4307 98.2309 63.5458 98.6482L76.2012 144.552L110.45 174.324C110.667 174.519 110.705 174.763 110.601 175.034C110.497 175.306 110.204 175.483 109.872 175.575L65.4785 187.814C65.1606 187.902 64.8486 187.903 64.6237 187.734C64.4789 187.641 64.4126 187.562 64.3722 187.415ZM75.7387 146.597L66.4979 185.956L107.906 174.54L75.7387 146.597Z" fill="#352929"/>
</g>
<g clip-path="url(#clip1_201_3)">
<g clip-path="url(#clip2_201_3)">
<mask id="mask0_201_3" style="mask-type:luminance" maskUnits="userSpaceOnUse" x="23" y="77" width="26" height="25">
<path d="M46.8307 95.0294C43.3433 100.852 35.6696 102.968 29.6911 99.7547C23.7126 96.5419 21.6932 89.2172 25.1807 83.3947C28.6682 77.5721 36.3419 75.4565 42.3204 78.6694C48.2989 81.8822 50.3182 89.2069 46.8307 95.0294Z" fill="white"/>
</mask>
<g mask="url(#mask0_201_3)">
<path d="M42.4133 95.9695C42.7973 95.7454 42.8627 95.219 42.6931 94.8284C42.6247 94.67 42.5362 94.5289 42.4248 94.3941C42.2721 94.1998 42.0849 94.0149 41.9208 93.8238C40.5348 92.2554 40.1949 90.0794 39.4711 88.1275C39.3875 87.9142 39.3069 87.7118 39.2233 87.4984C38.6278 86.1022 37.8373 84.807 36.9692 83.545C36.3925 82.711 35.7844 81.8976 35.1647 81.0873C35.0326 80.9227 35.5808 80.6652 35.4403 80.5148C34.3675 80.6214 33.9446 80.7498 33.5509 80.8938C33.5479 80.8828 33.5563 80.8687 33.5533 80.8577C33.4988 80.8845 33.4588 80.9192 33.4043 80.9461C32.4938 81.5517 31.6542 82.2797 30.9339 83.0811C30.6692 83.3787 30.4275 83.6699 30.2003 83.969C30.2185 84.0349 30.2452 84.0867 30.2718 84.1384C30.4941 84.5854 30.8225 84.9678 31.2138 85.3091C31.2138 85.3091 31.2168 85.3201 31.2283 85.3169C31.3598 85.4343 31.5027 85.5486 31.6457 85.6629C31.8674 85.8382 32.1122 86.0071 32.3423 86.1683C32.4792 86.2605 32.6192 86.3638 32.7476 86.4703C32.7621 86.4781 32.7767 86.4859 32.7942 86.5047C33.4358 86.9898 34.0234 87.5489 34.3014 88.2879C34.6455 89.2215 34.425 90.2634 34.2644 91.2534C34.1039 92.2433 34.0342 93.3383 34.6279 94.144C35.2864 95.05 36.5427 95.2946 37.6913 95.4627C38.4551 95.5831 39.219 95.7035 39.9799 95.8129C40.4833 95.8869 40.9897 95.9719 41.4931 96.0459C41.7911 96.0937 42.1382 96.1399 42.4133 95.9695Z" fill="#FDF1E0"/>
<path d="M52.3219 89.1003C52.9235 81.9836 45.5149 77.5718 45.5149 77.5718L41.4726 79.6201L40.9074 79.9059C40.9074 79.9059 40.8844 79.9123 40.8644 79.9296C40.6893 80.0133 40.1011 80.3055 40.1302 80.3212C39.7159 80.66 39.1434 80.8296 38.6006 80.8374C38.5776 80.8438 38.5516 80.8391 38.5255 80.8345C38.4995 80.8299 38.4764 80.8362 38.4504 80.8316C37.7053 80.8242 36.9778 80.611 36.229 80.5456C36.1539 80.5426 36.0758 80.5287 36.0007 80.5258C35.9891 80.529 35.9746 80.5211 35.9631 80.5243C35.888 80.5214 35.8244 80.5153 35.7493 80.5123C35.7377 80.5155 35.7378 80.5155 35.7232 80.5077C35.6481 80.5048 35.576 80.5128 35.5009 80.5099C35.4894 80.5131 35.4748 80.5052 35.4633 80.5084C35.3912 80.5165 35.3276 80.5104 35.2556 80.5184L35.244 80.5216C34.8654 80.7205 34.5371 81.012 34.299 81.3614C33.9562 81.8696 33.8283 82.4841 33.9168 83.0744C34.001 83.3349 34.1022 83.5671 34.1851 83.7334C34.1882 83.7443 34.1912 83.7553 34.1912 83.7553C34.2118 83.7851 34.2209 83.8181 34.2415 83.8479C34.3687 84.0847 34.5074 84.3183 34.6692 84.5456C34.8751 84.8435 35.0926 85.1381 35.33 85.4155C35.4591 85.5691 35.5881 85.7226 35.7286 85.873C36.1945 86.3948 36.6918 86.896 37.1576 87.4177C38.2238 88.5896 39.2373 89.9297 39.445 91.4919C39.5813 92.4355 39.4178 93.4145 39.5425 94.3612C39.5589 94.5104 39.5868 94.6564 39.6261 94.7992C39.7055 95.132 39.8194 95.4552 39.9678 95.7689C40.1962 96.2379 40.4936 96.6879 40.848 97.0748L45.3373 96.7828L46.0413 96.7306L49.3015 96.5174C49.3021 96.5645 51.7173 96.206 52.3219 89.1003Z" fill="#EEDAAE"/>
<path d="M44.3644 87.9133C44.8084 87.6372 45.1028 87.1777 45.3773 86.7356C45.8413 85.993 46.3053 85.2504 46.5749 84.4313C46.856 83.6091 46.9311 82.7136 46.6149 81.926C46.3611 81.2749 45.8371 80.7219 45.1834 80.4174C44.1058 79.9225 42.8028 80.0926 41.6803 79.7046C41.6106 79.6766 41.5294 79.6516 41.4598 79.6236L40.8946 79.9094C40.8946 79.9094 40.8716 79.9158 40.8516 79.9331C40.6765 80.0168 40.0883 80.309 40.1174 80.3247C39.703 80.6635 39.1306 80.8331 38.5878 80.8409C38.5648 80.8473 38.5387 80.8426 38.5127 80.838C38.4751 80.8365 38.4491 80.8319 38.4115 80.8304L38.4261 80.8382C38.6641 80.9381 38.9301 80.9593 39.1821 81.0199C39.4195 81.0726 39.6546 81.1615 39.8696 81.2677C40.7328 81.7035 41.3901 82.5153 41.7711 83.4033C42.2473 84.5014 42.3726 85.7199 42.5265 86.9068C42.5744 87.2601 42.6398 87.6322 42.8942 87.8812C43.2686 88.2508 43.9234 88.2003 44.3644 87.9133Z" fill="#E0C286"/>
<path d="M46.0435 96.7772C46.029 96.3202 45.7431 95.8671 45.4069 95.546C44.749 94.9118 43.8573 94.5074 42.9293 94.4205C42.7645 94.4068 42.6027 94.4041 42.441 94.4014C41.6499 94.4067 40.8727 94.5974 40.0979 94.7519C39.9452 94.7821 39.7926 94.8124 39.6399 94.8426C38.8506 94.9893 38.0316 95.0733 37.261 94.8838C36.3457 94.6633 35.4964 93.9636 35.4183 93.0512C35.3474 92.2551 35.8635 91.5218 36.2646 90.8201C36.6656 90.1185 36.9776 89.2287 36.556 88.5529C35.9635 87.6169 34.2746 87.6451 33.8888 86.6048C33.7034 86.1121 33.8978 85.5148 33.661 85.0599C33.6404 85.0301 33.6283 84.9862 33.5962 84.9596C33.1667 84.3451 32.1411 84.5333 31.5063 84.1172C31.1567 83.8826 30.9756 83.4951 30.9471 83.0774C30.6824 83.375 30.4407 83.6663 30.2135 83.9653C30.1596 84.0393 30.1057 84.1132 30.0518 84.1872C29.6774 84.716 29.3636 85.2399 29.145 85.7494C29.0299 86.0057 28.9378 86.2557 28.8657 86.4884C28.8542 86.4915 28.8542 86.4915 28.8427 86.4947C27.705 86.9502 26.445 87.3212 25.2928 87.7689C25.2038 87.8053 25.1148 87.8416 25.0257 87.878C24.8821 87.9412 24.7155 88.0108 24.6247 88.1304C24.5992 88.1729 24.5738 88.2154 24.5568 88.2437C24.5259 88.3113 24.515 88.3616 24.5272 88.4056C24.5332 88.4275 24.5362 88.4385 24.5423 88.4605C24.5514 88.4934 24.5805 88.5091 24.6011 88.5389C24.718 88.6485 24.9239 88.7217 25.0093 88.8519C25.5533 89.1629 26.1143 89.4456 26.6837 89.7142C26.826 89.7814 26.9684 89.8485 27.1108 89.9156C27.5378 90.1171 27.9819 90.2902 28.4259 90.4633C28.4471 90.5402 28.4798 90.6139 28.498 90.6799C28.5192 90.7568 28.5519 90.8305 28.5701 90.8964C28.5913 90.9733 28.624 91.047 28.6421 91.113C28.6633 91.1899 28.693 91.2526 28.7257 91.3263C28.8245 91.5946 28.9317 91.8488 29.042 92.1139C29.0898 92.2426 29.1492 92.3681 29.2116 92.5045C29.2503 92.6002 29.3036 92.7038 29.3424 92.7995C29.3691 92.8512 29.3842 92.9062 29.4109 92.9579C29.4169 92.9799 29.4345 92.9987 29.4436 93.0316C29.4793 93.1164 29.5266 93.1979 29.5593 93.2716C29.6186 93.3971 29.678 93.5226 29.7489 93.6449C29.7992 93.7374 29.8379 93.8331 29.8852 93.9147C29.9651 94.07 30.0481 94.2362 30.1396 94.3883C29.6368 95.2599 29.0474 96.1316 28.5446 97.0032C28.3441 97.354 28.1327 97.7551 28.2587 98.1222C28.2647 98.1442 28.2708 98.1662 28.2768 98.1882C28.2829 98.2101 28.3005 98.2289 28.3065 98.2509C28.3126 98.2729 28.3271 98.2807 28.3332 98.3027C28.3507 98.3215 28.3538 98.3324 28.3713 98.3512C28.3889 98.37 28.3919 98.381 28.4095 98.3998L28.4125 98.4108C28.4331 98.4406 28.4622 98.4562 28.4943 98.4828C28.4943 98.4828 28.4943 98.4828 28.4973 98.4938C28.5119 98.5016 28.5294 98.5204 28.544 98.5282C28.5615 98.547 28.5761 98.5549 28.6021 98.5595C28.6167 98.5673 28.6312 98.5751 28.6457 98.5829C28.6603 98.5908 28.6748 98.5986 28.6894 98.6064C28.7039 98.6142 28.73 98.6188 28.7445 98.6266C28.7445 98.6266 28.7445 98.6266 28.759 98.6345C28.7851 98.6391 28.8142 98.6547 28.8402 98.6594C28.8662 98.664 28.8953 98.6796 28.9214 98.6843C29.1994 98.7495 29.4908 98.7282 29.7791 98.696C31.2154 98.5601 32.4149 98.4186 34.6817 97.5218L40.8357 97.1136L45.3251 96.8216L46.0435 96.7772Z" fill="#FF8500" stroke="#AF5300" stroke-width="1.0878" stroke-miterlimit="10"/>
<path d="M28.4368 88.8408C27.1701 89.3673 25.6406 89.2098 24.5338 88.4746C24.5429 88.5076 24.572 88.5232 24.5926 88.553C24.7095 88.6626 24.9154 88.7359 25.0009 88.866C26.0858 89.4771 27.2246 90.0143 28.3914 90.4728C28.4017 89.9262 28.4265 89.3874 28.4368 88.8408Z" fill="#DB6D00"/>
<path d="M45.3404 96.8292C43.136 96.7395 38.1287 97.6234 34.0173 96.5464C33.0293 96.2868 32.4241 95.9335 32.0952 95.7287C31.9292 95.6208 31.8389 95.5629 31.8044 95.5724C31.5888 95.6437 31.7293 96.0187 31.7971 96.13C31.8977 96.3151 32.0558 96.4843 32.0788 96.7025C32.1079 96.9427 31.9637 97.1835 31.7608 97.3458L31.7493 97.349C31.5433 97.5003 31.2962 97.5921 31.0575 97.6697C30.1428 97.9455 29.2093 98.1083 28.254 98.1471C28.26 98.1691 28.2661 98.191 28.2722 98.213C28.2782 98.235 28.2958 98.2538 28.3018 98.2758C28.3079 98.2977 28.3224 98.3055 28.3285 98.3275C28.3461 98.3463 28.3491 98.3573 28.3667 98.3761C28.3842 98.3949 28.3873 98.4059 28.4048 98.4247L28.4078 98.4357C28.4284 98.4655 28.4575 98.4811 28.4896 98.5077C28.4896 98.5077 28.4896 98.5077 28.4927 98.5187C28.5072 98.5265 28.5248 98.5453 28.5393 98.5531C28.5569 98.5719 28.5714 98.5797 28.5975 98.5844C28.612 98.5922 28.6265 98.6 28.6411 98.6078C28.6556 98.6156 28.6701 98.6234 28.6847 98.6312C28.6992 98.6391 28.7253 98.6437 28.7398 98.6515C28.7398 98.6515 28.7398 98.6515 28.7543 98.6593C28.7804 98.664 28.8095 98.6796 28.8355 98.6842C28.8616 98.6889 28.8906 98.7045 28.9167 98.7091C29.1947 98.7743 29.4861 98.7531 29.7745 98.7209C31.2108 98.585 32.4102 98.4434 34.677 97.5466L40.831 97.1385L45.3404 96.8292Z" fill="#DB6D00"/>
<path d="M43.9977 89.3498C44.0886 89.2302 44.1679 89.1138 44.2328 88.9895C44.1564 89.1169 44.0771 89.2334 43.9977 89.3498Z" fill="#E8CF9E"/>
<path d="M52.3248 89.0995C52.9264 81.9828 45.5178 77.571 45.5178 77.571L41.4755 79.6193L40.9103 79.9051C40.9103 79.9051 40.8873 79.9115 40.8673 79.9288C40.7037 80.0094 40.1846 80.2825 40.1331 80.3204C39.7188 80.6592 39.1463 80.8289 38.6035 80.8366C38.5805 80.843 38.5545 80.8383 38.5284 80.8337C38.5024 80.8291 38.4794 80.8354 38.4533 80.8308C37.7082 80.8234 36.9807 80.6102 36.2319 80.5448C36.1568 80.5418 36.0787 80.5279 36.0036 80.525C35.9921 80.5282 35.9775 80.5204 35.966 80.5235C35.8909 80.5206 35.8273 80.5145 35.7522 80.5116C35.7407 80.5147 35.7407 80.5147 35.7261 80.5069C35.651 80.504 35.5789 80.512 35.5038 80.5091C35.4923 80.5123 35.4778 80.5045 35.4662 80.5076C35.3942 80.5157 35.3306 80.5096 35.2585 80.5176L35.247 80.5208C35.2094 80.5193 35.1749 80.5289 35.1373 80.5274C35.0162 80.5371 34.895 80.5469 34.7769 80.5677C34.7308 80.5803 34.6818 80.5821 34.6357 80.5947C34.5406 80.6091 34.434 80.6267 34.3419 80.6521C33.9476 80.749 33.5653 80.8898 33.1952 81.0746C33.0117 81.1725 32.8311 81.2814 32.6652 81.3981C32.1672 81.7481 31.579 82.2649 30.9478 83.03C30.7346 83.2898 30.5068 83.5417 30.2966 83.8124C30.2681 83.8439 30.2427 83.8864 30.2172 83.9289C30.1633 84.0029 30.1094 84.0768 30.0555 84.1508C29.6811 84.6796 29.3673 85.2035 29.1486 85.713C29.0335 85.9693 28.9415 86.2193 28.8694 86.4519C28.8579 86.4551 28.8579 86.4551 28.8463 86.4583C27.7087 86.9138 26.4487 87.2848 25.2965 87.7325C25.2075 87.7688 25.1184 87.8052 25.0294 87.8416C24.8858 87.9048 24.7192 87.9744 24.6284 88.094C24.5999 88.1255 24.5744 88.168 24.5605 88.2073C24.5551 88.2324 24.5496 88.2576 24.5442 88.2827C24.5423 88.366 24.5635 88.4429 24.6047 88.5024C24.6841 88.6106 24.8095 88.7061 24.9403 88.7764C24.9694 88.792 24.9839 88.7998 25.013 88.8154C25.557 89.1265 26.1179 89.4092 26.6874 89.6778C26.8297 89.7449 26.9721 89.8121 27.1144 89.8792C27.5415 90.0807 27.9855 90.2538 28.4296 90.4269C28.4508 90.5038 28.4835 90.5775 28.5016 90.6434C28.5229 90.7203 28.5556 90.7941 28.5737 90.86C28.5949 90.9369 28.6276 91.0106 28.6458 91.0765C28.667 91.1534 28.6967 91.2162 28.7294 91.2899C28.8282 91.5582 28.9354 91.8124 29.0456 92.0775C29.0935 92.2062 29.1528 92.3317 29.2152 92.4681C29.254 92.5638 29.3073 92.6673 29.3461 92.763C29.3727 92.8148 29.3879 92.8697 29.4145 92.9215C29.4206 92.9435 29.4382 92.9623 29.4472 92.9952C29.483 93.0799 29.5302 93.1615 29.5629 93.2352C29.6223 93.3607 29.6817 93.4862 29.7526 93.6085C29.8028 93.701 29.8416 93.7967 29.8889 93.8783C29.9688 94.0335 30.0518 94.1998 30.1433 94.3519C29.6405 95.2234 29.0511 96.0952 28.5483 96.9667C28.3478 97.3175 28.1363 97.7186 28.2623 98.0858C28.2684 98.1078 28.2745 98.1298 28.2805 98.1517C28.2866 98.1737 28.3041 98.1925 28.3102 98.2145C28.3163 98.2365 28.3308 98.2443 28.3368 98.2662C28.3544 98.285 28.3574 98.296 28.375 98.3148C28.3926 98.3336 28.3956 98.3446 28.4132 98.3634L28.4162 98.3744C28.4368 98.4042 28.4659 98.4198 28.498 98.4464C28.498 98.4464 28.498 98.4464 28.501 98.4574C28.5155 98.4652 28.5331 98.484 28.5477 98.4918C28.5652 98.5106 28.5798 98.5184 28.6058 98.5231C28.6203 98.5309 28.6349 98.5387 28.6494 98.5465C28.664 98.5543 28.6785 98.5622 28.693 98.57C28.7076 98.5778 28.7336 98.5824 28.7482 98.5902C28.7482 98.5902 28.7482 98.5902 28.7627 98.598C28.7888 98.6027 28.8178 98.6183 28.8439 98.6229C28.8699 98.6276 28.899 98.6432 28.925 98.6479C29.2031 98.7131 29.4945 98.6918 29.7828 98.6596C31.2191 98.5237 32.4185 98.3822 34.6853 97.4853L40.8394 97.0772L45.3287 96.7852L46.0327 96.733L49.2929 96.5198C49.305 96.5638 51.7202 96.2052 52.3248 89.0995Z" stroke="#893E00" stroke-width="1.0878" stroke-miterlimit="10"/>
<path d="M31.5307 84.8314C30.8753 85.5086 31.0649 86.5557 31.7755 86.7971C33.4777 87.3563 33.9478 83.042 34.8885 82.9954" stroke="#893E00" stroke-width="1.0878" stroke-miterlimit="10" stroke-linecap="round" stroke-linejoin="round"/>
<path d="M37.055 82.1026C37.4524 82.4659 37.5614 83.086 37.3076 83.5579C38.0587 84.0364 38.7221 84.6456 39.0243 85.4725C39.3381 86.2962 39.3672 87.2102 39.1067 88.0622" stroke="#893E00" stroke-width="1.0878" stroke-miterlimit="10" stroke-linecap="round" stroke-linejoin="round"/>
<path d="M37.3064 83.5464C36.8442 83.532 36.3808 83.6479 35.9706 83.8674" stroke="#893E00" stroke-width="1.0878" stroke-miterlimit="10" stroke-linecap="round" stroke-linejoin="round"/>
<path d="M36.0753 85.6827C36.32 85.4024 36.5502 85.1144 36.7108 84.7982C36.8265 84.589 36.9185 84.339 36.947 84.0829C36.97 83.852 36.947 83.6337 36.8319 83.4408C36.655 83.1586 36.3206 82.9789 35.9499 82.892C35.6458 82.8221 35.3223 82.8168 35.0661 82.8756C34.1908 83.0696 34.1308 84.02 34.3561 84.7026C34.4973 85.1247 34.7705 85.4868 35.1291 85.7544C35.1582 85.77 35.1903 85.7966 35.2193 85.8123C35.5452 86.0061 35.8191 85.9661 36.0753 85.6827Z" fill="#44190D"/>
<path d="M35.2163 85.8013C34.9582 85.2695 34.6311 84.7568 34.5917 84.1648C34.5627 83.7 34.7383 83.2142 35.06 82.8536C34.1847 83.0476 34.1247 83.9981 34.35 84.6807C34.4912 85.1028 34.7644 85.4648 35.123 85.7324C35.1551 85.759 35.1872 85.7856 35.2163 85.8013Z" fill="#4F2117"/>
<path d="M36.0755 85.6823C36.3202 85.4021 36.5504 85.114 36.711 84.7979C36.8267 84.5886 36.9187 84.3387 36.9472 84.0826C36.9702 83.8516 36.9472 83.6334 36.8321 83.4405C36.6552 83.1583 36.3208 82.9786 35.9501 82.8916C36.1203 83.1048 36.2336 83.3809 36.2457 83.6494C36.2724 84.1504 36.0507 84.6489 35.712 85.0378C35.5158 85.2692 35.2844 85.463 35.1347 85.7289L35.1263 85.7431C35.1553 85.7587 35.1874 85.7853 35.2165 85.8009C35.5454 86.0058 35.8193 85.9657 36.0755 85.6823Z" fill="#280D06"/>
<path d="M38.1259 82.4694C38.6505 82.6203 39.0939 82.9709 39.3568 83.4303C39.6197 83.8898 39.6875 84.4503 39.5409 84.9518" stroke="#893E00" stroke-width="1.0878" stroke-miterlimit="10" stroke-linecap="round" stroke-linejoin="round"/>
<path d="M33.1885 96.4203C33.3454 96.4953 33.3454 96.7199 33.1818 96.8004C32.6651 97.0375 32.1308 97.2557 31.5783 97.408C31.3021 97.4842 31.0083 97.5415 30.723 97.5847C30.3165 97.6377 30.0651 97.175 30.3299 96.8774C30.4153 96.783 30.4807 96.7058 30.5146 96.6492C30.6709 96.4524 30.7866 96.2432 30.8847 96.0152C30.9689 95.8265 30.9732 95.4825 31.078 95.3236C31.3785 94.8861 31.8988 95.6056 32.1526 95.8075C32.4761 96.0375 32.8311 96.247 33.1885 96.4203Z" fill="#44190D"/>
<path d="M33.5258 97.0605C33.8874 97.339 34.366 97.5026 34.8397 97.5139" stroke="#893E00" stroke-width="1.0878" stroke-miterlimit="10"/>
<path d="M28.5257 88.4027C28.3385 89.1163 28.3222 89.8656 28.4554 90.5736" stroke="#893E00" stroke-width="1.0878" stroke-miterlimit="10"/>
<path d="M34.8667 92.0096C35.2944 91.5843 35.4888 90.9869 35.4525 90.4059C35.4319 90.1515 35.3738 89.8957 35.2611 89.6666C35.1781 89.5004 35.0691 89.3295 34.9146 89.2184C34.7601 89.1073 34.5281 89.0294 34.3591 89.1351C33.7945 89.4681 33.4741 90.1475 33.5946 90.7644C33.6073 90.8555 33.6315 90.9434 33.6643 91.0171C33.8411 91.5239 34.3082 91.9153 34.8667 92.0096Z" fill="#FDF1E0"/>
<path d="M34.8697 92.009C35.2973 91.5837 35.4918 90.9864 35.4554 90.4053C35.198 90.1453 34.8097 90.0396 34.4299 90.1443C33.9925 90.2649 33.6969 90.6301 33.6587 91.0307C33.8441 91.5234 34.3111 91.9147 34.8697 92.009Z" fill="#44190D"/>
<path d="M34.8679 92.0092C34.2313 91.901 33.6933 91.3874 33.5843 90.7673C33.4753 90.1472 33.7957 89.4677 34.3488 89.138C34.5178 89.0323 34.7498 89.1101 34.9043 89.2212C35.0588 89.3323 35.1678 89.5032 35.2508 89.6695C35.6185 90.4192 35.481 91.4028 34.8679 92.0092Z" stroke="#893E00" stroke-width="1.0878" stroke-miterlimit="10"/>
<path d="M34.0863 91.0545C33.9827 91.083 33.9233 91.1821 33.9506 91.281C33.9778 91.3799 34.0796 91.4346 34.1832 91.406C34.2868 91.3775 34.3461 91.2783 34.3189 91.1795C34.2916 91.0806 34.1898 91.0259 34.0863 91.0545Z" fill="#FDF1E0"/>
<path d="M32.9202 86.1506C32.9426 86.0971 32.9505 86.0359 32.9583 85.9746C32.9844 85.7546 32.9323 85.5207 32.8402 85.3215C32.8372 85.3105 32.8196 85.2917 32.8166 85.2807C32.6658 85.0032 32.4204 84.7871 32.1272 84.667C31.8746 84.5593 31.5784 84.6528 31.4312 84.8825C31.1931 85.2318 31.092 85.6735 31.2155 86.0768C31.2549 86.2196 31.3288 86.3529 31.4372 86.4767C31.622 86.6976 31.8952 86.8351 32.1951 86.7997C32.5379 86.7406 32.8263 86.4838 32.9202 86.1506Z" fill="#FDF1E0"/>
<path d="M32.9218 86.15C32.9442 86.0966 32.952 86.0353 32.9599 85.974C32.986 85.7541 32.9339 85.5202 32.8418 85.321C32.8388 85.31 32.8212 85.2912 32.8182 85.2802C32.6328 85.2367 32.4335 85.2326 32.2378 85.2865C31.6969 85.4356 31.354 85.9439 31.4243 86.4683C31.609 86.6893 31.8823 86.8267 32.1821 86.7913C32.5395 86.7401 32.8279 86.4833 32.9218 86.15Z" fill="#44190D"/>
<path d="M32.9583 85.9746C32.9844 85.7546 32.9323 85.5207 32.8402 85.3215C32.6979 85.0298 32.435 84.7949 32.1272 84.667C31.8746 84.5593 31.5784 84.6528 31.4312 84.8825C31.1931 85.2318 31.092 85.6735 31.2155 86.0768C31.3391 86.4801 31.728 86.8575 32.1951 86.7997C32.5525 86.7485 32.8408 86.4916 32.9377 86.1694C32.9426 86.0971 32.9505 86.0359 32.9583 85.9746Z" stroke="#893E00" stroke-width="1.0878" stroke-miterlimit="10"/>
<path d="M31.8101 86.2087C31.7065 86.2373 31.6472 86.3364 31.6744 86.4353C31.7017 86.5341 31.8035 86.5888 31.9071 86.5603C32.0106 86.5317 32.07 86.4326 32.0427 86.3337C32.0155 86.2349 31.9022 86.1833 31.8101 86.2087Z" fill="#FDF1E0"/>
<path d="M30.6909 86.2807C30.5582 86.069 30.339 85.8576 30.0851 85.8803C29.8459 85.9108 29.6726 86.1359 29.6611 86.3637C29.6496 86.5914 29.7592 86.8095 29.8943 86.985C30.0706 87.2201 30.3099 87.4142 30.5685 87.5438C30.6412 87.5829 30.7254 87.6188 30.809 87.6076C31.2852 87.5827 30.8175 86.4704 30.6909 86.2807Z" fill="#FDF1E0"/>
<path d="M33.2601 91.4238C33.3383 91.6624 33.411 91.926 33.3564 92.1775C33.2904 92.4321 33.0451 92.6652 32.7876 92.6298C32.6344 92.613 32.5029 92.4955 32.4205 92.3764C32.3381 92.2573 32.3072 92.1003 32.2763 91.9433C32.1988 91.5273 32.1558 91.1018 32.1619 90.6745C32.1594 90.2615 32.4242 89.9639 32.7464 90.3242C33.0015 90.6204 33.1341 91.0567 33.2601 91.4238Z" fill="#FDF1E0"/>
<path d="M40.9092 82.1987C40.6445 81.8225 40.2998 81.5156 39.8897 81.2859C39.4766 81.0451 39.0041 80.9035 38.5213 80.8593C38.4837 80.8578 38.4577 80.8532 38.4201 80.8517C38.3711 80.8534 38.319 80.8441 38.2699 80.8459" stroke="#893E00" stroke-width="1.0878" stroke-miterlimit="10"/>
</g>
</g>
<path d="M79.7234 147.256C77.2957 147.723 74.0242 148.22 71.8491 146.694C71.8025 146.707 71.7223 146.78 71.6757 146.792C70.708 147.464 69.6808 148.102 68.7002 148.726C66.687 149.788 64.6142 150.815 62.5156 151.747C61.3097 152.282 57.291 154.251 56.8082 151.954C56.5382 150.611 57.3733 148.913 57.7868 147.686C58.4509 145.731 59.115 143.776 59.9448 141.877C61.3277 138.712 63.2544 135.701 65.365 132.993C63.0355 128.725 60.7863 124.385 58.55 120.091C56.0443 115.366 53.492 110.654 51.0199 105.868C50.3772 104.628 49.7475 103.435 49.1049 102.195C49.066 102.054 48.9935 101.973 48.9546 101.832L48.9416 101.785L48.9286 101.738C48.9157 101.69 48.8561 101.656 48.8561 101.656C48.8201 102.071 48.5848 102.49 48.0411 102.337C47.6632 102.238 47.4869 101.781 47.3572 101.31C46.9975 101.46 46.5912 101.623 46.2315 101.772C45.5121 102.072 44.8316 102.513 44.0733 102.671C43.5609 102.812 42.8698 102.851 42.4606 102.458C42.0048 102.077 41.8362 101.466 41.6806 100.901C41.5845 100.371 41.4548 99.9005 41.7107 99.3743C41.9873 98.7413 42.6289 98.1595 43.0972 97.6761C44.0879 96.5424 45.1045 95.5029 46.2998 94.5659C46.1442 94.0014 45.9756 93.3899 45.7138 92.804C44.6898 89.9987 43.2129 87.3688 41.7619 84.833C41.0002 83.5245 40.2048 82.2759 39.3163 81.0529C38.9277 80.5526 38.5521 80.0994 38.1636 79.5991C37.946 79.3554 37.6895 78.9705 37.3918 78.7995C37.1382 78.9707 36.7213 78.7313 36.4908 78.4405C36.1777 78.5774 35.9111 78.7015 35.585 78.7914C35.4919 78.8171 35.4453 78.83 35.3521 78.8557C35.3521 78.8557 35.3521 78.8557 35.3055 78.8685C32.3684 80.0326 29.2602 80.9401 26.1491 81.2916C24.886 81.4374 23.5841 81.442 22.3311 81.0788C21.0781 80.7156 20.2803 79.822 19.7568 78.6502C19.495 78.0644 19.36 77.393 19.2846 76.7557C19.2793 76.5547 19.287 76.4007 19.2817 76.1997C19.2687 76.1527 19.2687 76.1527 19.2557 76.1056C19.2139 75.4085 19.2782 74.7328 19.296 74.0698C19.3881 72.2222 19.7857 70.3916 20.1962 68.6081C20.6067 66.8245 21.17 65.0495 21.7462 63.3215C22.1054 62.2607 22.3997 60.9647 22.8987 59.8654C22.7406 59.6559 22.7094 59.3608 22.7377 59.0999C21.7767 57.7957 21.1494 56.2477 20.3617 54.8451C19.3771 53.0918 18.3925 51.3386 17.3949 49.5383C16.4698 47.8192 15.5448 46.1002 14.9794 44.2314C14.5957 43.0211 14.367 41.4644 14.5681 40.1941L14.6018 40.1342C14.9038 38.6843 15.8426 37.3625 16.7997 36.2887C17.9508 35.0097 19.234 33.846 20.6622 32.8448C21.0368 31.4762 21.7893 30.2057 22.6738 29.0507C23.0695 28.4861 23.5378 28.0027 24.006 27.5193C23.6381 26.9121 22.9364 26.5487 22.2011 26.2452C21.2742 25.7921 20.4405 25.3134 19.6144 24.6806C18.3585 23.7614 17.5242 22.3717 17.6942 20.8063C17.9774 18.1973 20.7071 16.2806 22.8004 15.1466C24.3737 14.308 26.0507 13.8456 27.8522 13.6527C29.5139 13.4983 31.5069 13.455 33.0164 14.203C34.5388 14.9981 34.6254 16.9483 34.4295 18.4196C34.1976 20.3058 33.5878 22.0937 33.0971 23.9499C33.9798 24.0609 34.8884 24.266 35.7169 24.5437C36.1078 24.689 36.4522 24.8472 36.8561 25.0395C39.2991 24.2648 41.807 23.7252 44.2865 23.4466C45.4098 23.3394 46.4659 23.3519 47.5816 23.3987C48.6506 23.4582 49.919 23.5135 50.8252 24.0735C50.8848 24.1077 50.8848 24.1077 50.9444 24.1419C50.978 24.082 51.0711 24.0564 51.0971 24.1504C53.2698 26.0317 54.6795 28.7813 56.2909 31.1717C57.9748 33.6432 59.7183 36.149 61.1952 38.7789C61.4646 39.2108 61.7004 39.7026 61.9699 40.1344C63.3002 39.8689 64.6358 39.8044 65.9896 39.988C67.9207 40.2655 69.728 41.1845 71.08 42.634C72.3724 44.0493 73.0439 45.9395 73.0113 47.8213C72.9923 50.6611 71.5468 53.2362 69.5082 55.1143C69.6197 55.3366 69.7311 55.559 69.783 55.7472C70.0318 56.286 70.234 56.8377 70.4828 57.3765C73.0415 55.2032 76.5559 54.133 79.8409 54.594C81.772 54.8715 83.5793 55.7906 84.9313 57.2401C86.2237 58.6553 86.8952 60.5455 86.8626 62.4274C86.883 66.3193 84.1567 69.703 80.9429 71.5002C79.543 72.2404 78.0317 72.7583 76.4166 72.8999C78.4546 79.0195 80.1536 85.182 81.586 91.4686C82.1932 94.0346 82.7072 96.6262 83.2342 99.2649C83.4777 99.6027 83.7212 99.9405 83.9647 100.278C87.5241 105.371 91.1767 110.438 94.436 115.715C95.8091 117.969 97.2418 120.256 98.1621 122.685C98.9191 124.704 99.6943 126.97 99.2348 129.122C98.4527 132.83 93.3163 131.108 91.0509 130.163C89.4146 129.501 87.7524 128.744 86.1704 127.915C86.1627 128.069 86.168 128.27 86.1603 128.424C86.6142 130.07 87.2545 131.665 87.7084 133.312C88.1441 134.71 88.44 136.147 88.6427 137.61C88.9286 139.556 89.2875 142.494 87.6369 143.961C85.4586 145.878 82.4435 146.76 79.7234 147.256Z" fill="#858889"/>
<path d="M41.7558 100.627C41.8649 101.205 42.0205 101.769 42.3831 102.175C42.8908 102.744 43.7888 102.547 44.428 102.32C45.0672 102.093 45.6339 101.785 46.2602 101.512C46.5733 101.375 46.933 101.225 47.2591 101.135C47.2538 100.934 47.2019 100.746 47.2096 100.592C47.1678 99.8946 47.0923 99.2574 47.0039 98.5731C46.5175 98.8085 46.0439 99.0909 45.5574 99.3262C45.788 99.617 45.8322 99.9591 45.923 100.288C45.9359 100.335 45.8428 100.361 45.8298 100.314C45.739 99.9848 45.6948 99.6427 45.4772 99.399L45.4643 99.3519C44.7578 99.6985 44.0255 99.9511 43.2335 100.169C43.6091 100.623 43.7647 101.187 43.8738 101.764C43.8868 101.812 43.7936 101.837 43.7806 101.79C43.625 101.226 43.4694 100.661 43.0938 100.208C42.8143 100.285 41.9032 100.435 41.5795 100.17C41.665 100.298 41.7169 100.486 41.7558 100.627Z" fill="url(#paint0_linear_201_3)"/>
<path opacity="0.45" d="M44.4861 102.355C43.8469 102.582 42.9488 102.779 42.4411 102.21C42.2106 101.919 42.0137 101.568 41.9099 101.192C41.9954 101.32 42.0939 101.496 42.1794 101.624C42.7 102.24 43.6446 102.03 44.3304 101.79C44.9696 101.563 45.6165 101.183 46.2557 100.956C46.5689 100.819 46.9286 100.669 47.2547 100.579L47.2676 100.626C47.2599 100.78 47.3118 100.968 47.3171 101.169C47.004 101.306 46.6313 101.409 46.3182 101.546C45.679 101.773 45.0787 102.141 44.4861 102.355Z" fill="url(#paint1_linear_201_3)"/>
<path d="M43.6921 97.1071C43.1903 97.6504 42.748 98.2279 42.2462 98.7712C42.0185 99.0364 41.7909 99.3016 41.6824 99.6352C41.6617 99.7422 41.6411 99.8491 41.667 99.9432C41.7708 100.32 42.6482 100.229 43.2072 100.075C43.3935 100.024 43.5799 99.9726 43.6265 99.9598C44.8377 99.6259 45.8519 98.9413 47.0242 98.4662C46.8733 97.1918 46.6163 95.896 46.2791 94.6729C45.3374 95.4387 44.4552 96.2387 43.6921 97.1071Z" fill="url(#paint2_linear_201_3)"/>
<path opacity="0.45" d="M43.6265 99.9598C43.5334 99.9854 43.3936 100.024 43.2073 100.075C42.6353 100.182 41.7708 100.32 41.6671 99.9432C41.6877 99.8362 41.6618 99.7422 41.6824 99.6352C41.791 99.3016 42.0186 99.0364 42.2462 98.7712C42.748 98.2279 43.1903 97.6504 43.6922 97.1071C43.7724 97.0343 43.806 96.9745 43.8862 96.9017C43.4645 97.3723 43.0895 97.83 42.6679 98.3006C42.4402 98.5658 42.2126 98.831 42.1041 99.1647C42.0834 99.2716 42.0628 99.3785 42.0887 99.4726C42.1925 99.8489 43.0699 99.7589 43.6289 99.6048C43.8152 99.5534 44.0016 99.502 44.0482 99.4892C45.1196 99.1938 46.0201 98.6418 47.006 98.2182C47.0319 98.3123 47.0579 98.4063 47.0372 98.5133C45.852 98.9413 44.8377 99.6258 43.6265 99.9598Z" fill="url(#paint3_linear_201_3)"/>
<path d="M37.4579 78.6799C37.8618 78.8723 38.1443 79.3512 38.4214 79.6291C39.2787 80.557 39.9756 81.6303 40.6259 82.7164C42.0716 85.0512 43.4035 87.5186 44.5826 89.9775C45.2176 91.3716 45.7594 92.7913 46.208 94.2368C46.5658 95.353 46.8175 96.4478 47.0356 97.6025C47.2148 98.616 47.3345 99.5954 47.4205 100.635C47.4776 101.024 47.4546 101.486 47.6981 101.824C47.8561 102.033 48.1203 102.264 48.3998 102.187C48.7725 102.084 48.6764 101.554 48.6452 101.259C48.5697 100.622 48.3882 99.9629 48.3127 99.3257C48.2243 98.6414 48.0764 97.9229 47.9284 97.2045C47.5547 95.4853 47.0878 93.7918 46.5407 92.171C46.3644 91.7134 46.2347 91.243 46.0585 90.7854C45.8433 90.1867 45.5815 89.6008 45.3663 89.0021C44.314 86.4577 43.0882 84.0117 41.6891 81.664C40.9533 80.4496 40.1373 79.3079 39.3213 78.1662C38.9923 77.7001 38.6167 77.2469 38.2075 76.8535C38.0029 76.6568 37.7517 76.473 37.454 76.302C37.6485 77.0076 37.7629 77.786 37.5794 78.3933C37.5252 78.5601 37.4916 78.62 37.4579 78.6799Z" fill="#004A74"/>
<path d="M48.0835 102.122C48.1248 101.908 48.1065 101.66 48.0547 101.472C47.9792 100.835 47.7977 100.176 47.7222 99.5391C47.6338 98.8548 47.4859 98.1364 47.3379 97.4179C46.9642 95.6987 46.4973 94.0052 45.9502 92.3844C45.774 91.9268 45.6443 91.4564 45.468 90.9988C45.2528 90.4001 44.991 89.8143 44.7759 89.2156C43.7235 86.6711 42.4978 84.2251 41.0987 81.8775C40.3628 80.663 39.5468 79.5213 38.7308 78.3796C38.4018 77.9135 38.0263 77.4603 37.6171 77.0669C37.5988 76.8189 37.521 76.5366 37.4561 76.3014C37.7409 76.4253 37.9921 76.6092 38.2097 76.8529C38.6189 77.2463 38.9945 77.6995 39.3235 78.1656C40.186 79.2945 40.9555 80.449 41.6913 81.6635C43.0904 84.0111 44.3161 86.4571 45.3685 89.0016C45.6302 89.5874 45.8454 90.1861 46.0606 90.7848C46.2369 91.2424 46.4132 91.7 46.5429 92.1704C47.1029 93.8382 47.6164 95.5189 47.9306 97.2039C48.0785 97.9224 48.2135 98.5938 48.3149 99.3251C48.3903 99.9623 48.5719 100.621 48.6473 101.258C48.6785 101.553 48.7616 102.037 48.4019 102.186C48.3088 102.212 48.2026 102.191 48.0835 102.122Z" fill="url(#paint4_linear_201_3)"/>
<path d="M20.7918 68.0386C20.035 70.93 19.3691 74.1506 19.8005 77.17C20.6165 78.3117 21.567 79.2138 22.9857 79.6326C24.6296 80.1411 26.431 79.9482 28.0538 79.6526C29.8163 79.3186 31.5347 78.6424 33.2194 78.026C34.3114 77.6237 35.4448 77.0076 35.5994 75.7501C35.718 74.9075 35.3189 74.0052 35.0518 73.2184C33.8073 69.6133 31.6882 66.6543 29.3699 63.6996C28.7508 62.9085 24.4921 57.0974 23.22 59.5741L23.1734 59.5869C22.106 62.2602 21.3958 65.1387 20.7918 68.0386Z" fill="#E9E9E9"/>
<path d="M28.0861 79.5931C26.4633 79.8886 24.6153 80.0944 23.0179 79.573C21.5863 79.1072 20.6488 78.2521 19.8328 77.1104C19.7237 76.5331 19.7078 75.93 19.6919 75.327C22.307 76.6307 25.4416 76.7283 28.1666 75.5215C30.8785 74.2676 32.3941 72.1288 31.3052 69.0882C30.81 67.6556 30.0016 66.36 29.2399 65.0514C28.4316 63.7558 27.5637 62.4259 26.3078 61.5067C25.2565 60.7842 24.0577 60.2542 22.8129 60.648C22.955 60.2545 23.0972 59.861 23.2393 59.4675C23.2393 59.4675 23.2393 59.4675 23.2859 59.4546C24.558 56.978 28.8167 62.7891 29.4358 63.5801C31.8007 66.522 33.9197 69.481 35.1177 73.0989C35.3847 73.8858 35.7709 74.7411 35.6653 75.6307C35.5237 76.9352 34.3773 77.5043 33.2852 77.9066C31.5669 78.5828 29.8486 79.259 28.0861 79.5931Z" fill="#E9E9E9"/>
<path d="M22.9582 58.9884C22.8909 59.1082 22.8833 59.2622 22.9092 59.3563C22.9222 59.4033 22.9351 59.4503 22.9351 59.4503L22.9481 59.4974C22.974 59.5915 22.987 59.6385 23.0129 59.7326C23.1008 59.5059 23.2483 59.3134 23.3491 59.1337L23.3155 59.1936C24.4767 57.4056 27.6859 61.2282 28.3646 62.0535C31.3692 65.6795 34.0218 69.3013 35.4662 73.813C35.8759 75.1173 35.9413 76.2635 34.8521 77.2218C34.1639 77.8165 33.2322 78.0733 32.3731 78.4114C31.281 78.8137 30.1889 79.216 29.0579 79.4772C27.148 80.0038 25.1006 80.2139 23.1902 79.8295C21.7042 79.5305 20.6476 78.607 19.8316 77.4653C19.8446 77.5123 19.8446 77.5123 19.8576 77.5594C20.5248 81.0705 23.9649 81.1851 26.7835 80.8635C28.6315 80.6578 30.3551 80.1826 32.0528 79.6133C32.0528 79.6133 32.0994 79.6005 32.146 79.5876C32.1926 79.5748 32.2391 79.5619 32.2857 79.5491C32.4721 79.4977 32.705 79.4335 32.8784 79.3351C33.1579 79.258 33.4374 79.181 33.7169 79.1039C33.9032 79.0525 34.0766 78.9541 34.2163 78.9156C34.589 78.8129 35.0083 78.6973 35.368 78.5475C35.4611 78.5218 35.5543 78.4961 35.6345 78.4234C35.8208 78.372 36.0072 78.3206 36.1805 78.2222C36.3798 78.2179 36.6128 78.1537 36.8121 78.1494L36.7655 78.1622C36.6257 78.2007 36.499 78.2863 36.4058 78.312C36.5379 78.4274 36.7036 78.483 36.8769 78.3846C36.9235 78.3717 36.9105 78.3247 36.9701 78.3589C37.0969 78.2733 37.2702 78.1749 37.3711 77.9952C37.3658 77.7942 37.3475 77.5462 37.3422 77.3452C37.2851 76.956 37.1813 76.5796 37.0646 76.1563C37.0387 76.0622 37.0127 75.9681 36.9868 75.874C36.9738 75.827 36.9608 75.7799 36.9479 75.7329C36.603 74.6638 36.2245 73.6545 35.7994 72.6581C34.8508 70.49 33.6693 68.3861 32.3739 66.4148C31.1641 64.5718 29.7809 62.8272 28.2372 61.2281C27.4654 60.4285 26.66 59.6889 25.7744 59.0219C25.3911 58.7226 24.9743 58.4832 24.5574 58.2438C24.3657 58.0942 24.1405 58.0044 23.8816 57.9746C23.4701 57.9362 23.0614 58.4538 22.9582 58.9884Z" fill="#004A74"/>
<path d="M19.6575 34.286C18.0483 35.5395 16.4573 37.0411 15.5213 38.9189C15.0094 39.9712 14.7746 41.3013 15.2852 42.426C15.6714 43.2813 16.6578 43.7686 17.5382 44.2345C19.7853 44.9311 22.3893 44.9218 24.6955 44.7416C24.827 43.946 24.9715 43.1975 25.1031 42.402C23.0068 42.98 20.496 42.9635 18.4016 42.2755C18.1298 42.1986 17.832 42.0276 17.5808 41.8438C17.4747 41.8224 17.4021 41.7412 17.3762 41.6471C16.5448 40.8133 16.0885 39.5218 16.9318 38.5807C16.2672 39.6244 16.5343 40.4113 17.2076 41.0355C17.2642 40.5137 17.5279 39.8336 17.696 39.5342C18.0062 38.8413 18.508 38.298 18.9969 37.7077C19.7263 36.8991 20.6864 36.3814 21.5013 35.7011C20.9524 35.3463 20.6234 34.8802 20.5143 34.3029C20.4754 34.1617 20.4831 34.0078 20.4908 33.8538C20.4648 33.7597 20.4984 33.6998 20.5191 33.5929C20.1983 33.8838 19.9111 34.1148 19.6575 34.286Z" fill="#00002B"/>
<path d="M15.7876 38.7949C15.2757 39.8472 15.0409 41.1773 15.5515 42.302C15.9377 43.1573 16.9241 43.6446 17.8045 44.1105C19.9455 44.7857 22.3631 44.8278 24.5631 44.6262C24.5761 44.6733 24.5425 44.7332 24.5555 44.7802C22.2493 44.9604 19.6453 44.9697 17.3982 44.2732C16.5179 43.8072 15.5314 43.3199 15.1452 42.4646C14.5881 41.3528 14.8694 40.0098 15.3813 38.9576C16.3173 37.0798 17.9213 35.6252 19.5176 34.3246C19.8047 34.0936 20.0583 33.9225 20.3455 33.6914C20.3585 33.7385 20.3248 33.7984 20.3378 33.8454C20.211 33.931 20.0506 34.0764 19.9239 34.162C18.3275 35.4626 16.7701 36.9043 15.7876 38.7949Z" fill="#386889"/>
<path opacity="0.44" d="M17.2055 41.0361C16.5322 40.4119 16.2185 39.6379 16.9297 38.5813C16.0399 39.5353 16.4962 40.8267 17.3612 41.6006C17.4337 41.6819 17.5062 41.7631 17.5658 41.7973C17.8169 41.9811 18.1147 42.1521 18.3865 42.229C20.481 42.9171 22.9452 42.9463 25.088 42.3556C24.9642 42.9971 24.8403 43.6387 24.763 44.2674C22.7829 44.3578 20.6578 44.2856 18.7886 43.6874C17.9212 43.2684 16.9218 42.7341 16.5356 41.8788C15.9914 40.814 16.2598 39.424 16.7717 38.3718C17.6534 36.6608 19.071 35.2576 20.5406 34.0426C20.5665 34.1367 20.5795 34.1837 20.5588 34.2906C20.6679 34.868 20.9969 35.3341 21.5458 35.6889C20.7438 36.4162 19.7709 36.8869 19.0414 37.6954C18.5861 38.2259 18.1179 38.7093 17.7947 39.3552L17.6939 39.5348C17.5388 39.8813 17.2622 40.5143 17.2055 41.0361Z" fill="url(#paint5_linear_201_3)"/>
<path d="M21.5269 35.7954C21.1724 36.1462 20.686 36.3815 20.3315 36.7323C19.6434 37.327 19.0147 37.9559 18.4586 38.666C18.05 39.1836 17.2639 40.5139 17.5309 41.3008C18.2715 41.8052 19.2786 42.1856 20.0086 42.2881C21.6343 42.5485 23.5471 42.578 25.131 42.1413C25.4071 40.5973 25.7427 39.0875 26.0654 37.5306C24.4839 37.6123 22.1854 37.6385 21.5269 35.7954Z" fill="#004A74"/>
<path opacity="0.39" d="M26.0644 37.5309C25.783 38.8739 25.4887 40.1698 25.2073 41.5128C24.2238 41.5815 23.2013 41.5091 22.3056 41.3511C21.6093 41.1888 20.5685 40.8683 19.8616 40.3039C19.5945 39.517 20.3806 38.1867 20.7893 37.6691C21.1643 37.2114 21.5058 36.8136 21.9068 36.4499C22.8289 37.613 24.7288 37.5954 26.0644 37.5309Z" fill="#4F5353"/>
<path d="M33.9123 19.2708C34.271 17.2991 34.28 14.9682 32.0664 14.2118C30.4561 13.6434 28.4088 13.8535 26.7601 14.055C25.1709 14.2906 23.6596 14.8085 22.2726 15.5958C19.9257 16.9009 16.8392 19.5234 18.174 22.5468C18.9593 24.3044 21.0124 25.2063 22.6281 25.9757C23.3168 26.292 23.8787 26.6939 24.187 27.2669C25.9927 25.453 28.2335 24.1266 30.8658 23.8564C31.5439 23.7707 32.2014 23.7919 32.8718 23.8602C33.2074 22.3504 33.6362 20.8149 33.9123 19.2708Z" fill="#0088B8"/>
<path d="M22.7355 15.8225C20.3885 17.1276 17.302 19.7501 18.6368 22.7735C19.4221 24.5311 21.4753 25.4329 23.0909 26.2024C23.6139 26.4631 24.0903 26.7367 24.3934 27.1087C24.3132 27.1814 24.2796 27.2413 24.1994 27.314C23.891 26.741 23.3421 26.3862 22.6404 26.0228C21.0248 25.2534 18.9846 24.3986 18.1863 22.594C16.8516 19.5706 19.9846 16.9352 22.285 15.643C23.6719 14.8557 25.1833 14.3378 26.7724 14.1021C28.4211 13.9007 30.4684 13.6906 32.0788 14.259C32.1979 14.3274 32.304 14.3487 32.4231 14.4171C30.8128 13.8487 28.8121 14.046 27.2099 14.2346C25.6208 14.4703 24.1224 15.0352 22.7355 15.8225Z" fill="#00A0CA"/>
<path d="M35.9312 25.1426C34.9707 24.7494 33.9429 24.476 32.9075 24.3565C32.9075 24.3565 32.9075 24.3565 32.9205 24.4035C32.9205 24.4035 32.8739 24.4164 32.8609 24.3693L32.8014 24.3351C32.2836 24.2754 31.7193 24.2285 31.1344 24.2885C28.5228 24.4518 26.4217 25.7397 24.5901 27.4594C24.3831 27.6177 24.1761 27.776 24.0753 27.9557C24.0287 27.9685 24.0417 28.0156 23.9951 28.0284C22.9914 29.115 22.0602 30.2828 21.4268 31.6217C21.2924 31.8612 21.1373 32.2077 20.9951 32.6012C20.9615 32.6611 20.9409 32.768 20.9073 32.8279C20.5817 33.8287 20.7739 34.8894 21.7397 35.4836C22.3612 35.9197 23.2775 35.9707 24.0281 35.9663C24.8849 35.9831 25.7623 35.8931 26.5802 35.7688C26.6345 35.602 26.6757 35.3882 26.73 35.2214C26.7507 35.1144 26.95 35.1101 26.8957 35.2769C26.8414 35.4437 26.8338 35.5977 26.7795 35.7645L26.8261 35.7517C26.8391 35.7987 26.7925 35.8116 26.8054 35.8586L26.7589 35.8714C26.2734 37.9287 25.8009 40.0331 25.4216 42.1117C25.4812 42.1459 25.4735 42.2999 25.3804 42.3256C25.2694 43.0142 25.112 43.7156 25.001 44.4042C24.9804 44.5112 24.9598 44.6181 24.9391 44.725C24.9391 44.725 24.9987 44.7592 24.9521 44.7721L24.965 44.8191C24.978 44.8662 24.9314 44.879 24.8849 44.8918C24.4643 47.1843 24.0024 49.6907 24.3324 51.9787C24.7302 55.058 28.0435 55.2581 30.4635 54.9452C32.9301 54.6195 35.2487 53.5754 37.5208 52.5441C41.0323 50.9179 45.7545 48.0469 43.9452 43.484C43.292 41.8418 42.3386 40.3837 41.2248 39.071C41.1263 38.8956 40.9943 38.7802 40.8026 38.6306C39.3911 37.1469 37.7389 35.8814 36.0325 34.7827C35.5897 34.4492 35.1599 34.1627 34.6835 33.8891C34.0154 33.4659 33.381 32.9828 32.6663 32.5724C32.5472 32.504 32.4281 32.4356 32.309 32.3672C32.3556 32.3544 32.3556 32.3544 32.4151 32.3886C32.819 32.5809 33.2695 32.7604 33.6864 32.9998C33.7796 32.9741 33.8598 32.9014 33.9529 32.8757C35.653 31.9515 37.0889 30.7963 38.5325 29.4872C38.5791 29.4744 38.5791 29.4744 38.5791 29.4744C38.7059 29.3888 38.8197 29.2562 38.9335 29.1236C39.2879 28.7728 39.5828 28.3878 39.7585 27.9344C39.8464 27.7077 39.8281 27.4597 39.7297 27.2843C39.7297 27.2843 39.6701 27.2501 39.7037 27.1903C39.4343 26.7584 38.8517 26.4634 38.4348 26.224C38.3157 26.1556 38.1966 26.0872 38.0905 26.0659C38.0775 26.0188 38.0775 26.0188 38.018 25.9846C37.3293 25.6683 36.6406 25.352 35.9312 25.1426Z" fill="#0088B8"/>
<path d="M30.3699 54.971C27.9033 55.2967 24.6366 55.0838 24.2388 52.0045C23.9087 49.7165 24.4172 47.1973 24.7912 44.9176C24.4662 46.8295 24.2137 48.8226 24.4736 50.6744C24.8714 53.7536 28.1847 53.9537 30.6047 53.6409C33.0712 53.3152 35.3899 52.271 37.6619 51.2397C40.2005 50.0843 43.3547 48.2529 44.2358 45.631C44.1601 48.9926 40.3254 51.2646 37.3935 52.6297C35.168 53.6482 32.8494 54.6924 30.3699 54.971Z" fill="#00A0CA"/>
<path d="M39.2662 30.1455C38.9767 30.7315 38.6146 31.2362 38.2525 31.741C37.5955 32.6308 36.6125 33.6104 35.5334 34.0598C36.9161 34.8934 38.185 35.8596 39.3737 36.8986C40.4787 36.5433 41.5136 35.7518 42.4347 35.0929C43.7828 34.1645 44.9521 33.1335 46.1292 31.9485C47.0992 30.9218 48.2297 29.7496 48.6974 28.3552C48.9145 27.688 48.8779 27.1919 48.668 26.7942C47.5985 25.8236 45.4244 26.1193 44.1613 26.265C42.7455 26.4023 41.3946 26.7747 40.01 27.2071C40.1267 27.6304 40.0571 28.1052 39.7623 28.4902C39.5322 29.1104 39.5222 29.6193 39.2662 30.1455Z" fill="#004A74"/>
<path opacity="0.39" d="M44.7129 28.4414C44.9228 28.8391 45.0059 29.3224 44.7423 30.0025C44.2746 31.3969 43.1441 32.569 42.1741 33.5957C41.1238 34.6952 40.0346 35.6535 38.8263 36.5434C37.7697 35.6199 36.6459 34.8161 35.5014 34.1193C36.5805 33.6699 37.5636 32.6903 38.2205 31.8005C38.5826 31.2957 38.9317 30.7439 39.2343 30.205C39.4902 29.6788 39.5003 29.1699 39.6501 28.6224C39.7975 28.4299 39.8854 28.2032 39.9267 27.9894C40.0199 27.9637 40.0664 27.9508 40.1726 27.9722C41.4227 27.7794 43.6434 27.4709 44.7129 28.4414Z" fill="#4F5353"/>
<path d="M39.4345 28.9349C39.0258 29.4525 38.4048 29.9274 37.8641 30.3296C36.6741 31.4676 35.2199 32.3747 33.7734 33.1278C34.2964 33.3885 34.7728 33.6621 35.3088 33.9699C36.3413 33.5334 37.177 32.7462 37.94 31.8778C38.3617 31.4072 38.6642 30.8683 38.9667 30.3293C39.2486 29.8973 39.3183 29.4225 39.4345 28.9349Z" fill="url(#paint6_linear_201_3)"/>
<path d="M49.4188 24.0564C45.4788 23.2192 41.242 24.0329 37.3342 25.3127C37.4403 25.3341 37.5129 25.4153 37.619 25.4367C38.2611 25.7658 38.9964 26.0693 39.5247 26.531C39.7163 26.6807 39.8148 26.856 39.9133 27.0313C41.4582 26.4535 43.1146 26.0981 44.7427 26.0036C45.7262 25.9349 47.52 25.8959 48.4651 26.5971C47.9445 25.9814 46.9168 25.7079 46.0677 25.5371C46.0081 25.5029 46.0417 25.443 46.0883 25.4301C47.1237 25.5496 48.6433 25.7887 48.8873 27.0375C49.1703 28.4274 48.472 29.531 47.6676 30.6133C46.5012 32.2003 44.9178 33.5479 43.3422 34.7416C42.5944 35.3021 41.7872 35.8283 41.0135 36.2947C40.54 36.5771 39.9992 36.9793 39.4143 37.0393C39.9555 37.5481 40.5098 38.104 40.9709 38.6855C43.8326 36.8842 46.6036 34.7535 48.608 32.0244C48.608 32.0244 48.608 32.0244 48.6546 32.0115C50.2917 29.5861 53.4184 24.9278 49.4188 24.0564Z" fill="#00002B"/>
<path d="M48.2657 32.0681C49.8562 29.6555 52.9829 24.9972 49.0429 24.1599C45.2555 23.3312 41.2051 24.0936 37.4577 25.228L37.3981 25.1938C41.3189 23.961 45.5427 23.1002 49.4828 23.9374C53.4228 24.7746 50.2961 29.433 48.7522 31.8327C48.7522 31.8327 48.7522 31.8327 48.7056 31.8456C46.7141 34.6218 43.9302 36.7053 41.0684 38.5067C41.0555 38.4596 41.0089 38.4725 40.9959 38.4254C43.7309 36.7097 46.3414 34.7245 48.2657 32.0681Z" fill="#386889"/>
<path opacity="0.44" d="M46.8884 32.7009C45.2124 34.9852 43.0547 36.7949 40.7856 38.3822C40.3504 37.8948 39.9282 37.4544 39.4595 37.0268C40.0444 36.9668 40.5256 36.5304 41.0587 36.2822C41.8919 35.85 42.6397 35.2896 43.3874 34.7291C44.976 33.5825 46.5464 32.1878 47.7129 30.6008C48.5172 29.5185 49.1689 28.4277 48.9325 27.025C48.6885 25.7762 47.1224 25.55 46.1335 25.4177C46.0869 25.4305 46.0533 25.4904 46.1129 25.5246C47.0086 25.6826 47.9897 25.9689 48.5104 26.5846C47.5782 25.9305 45.7844 25.9695 44.7879 25.9911C43.1598 26.0856 41.5034 26.4411 39.9585 27.0188C39.86 26.8435 39.7616 26.6682 39.5699 26.5185C39.0287 26.0097 38.3063 25.7533 37.6642 25.4242C40.9847 24.5594 44.4089 24.0709 47.7121 24.78C51.559 25.6429 48.4789 30.2884 46.8884 32.7009Z" fill="url(#paint7_linear_201_3)"/>
<path d="M80.6874 71.1148C84.5144 68.9967 87.68 64.4795 86.2227 59.9207C84.812 55.3492 79.4067 54.106 75.3072 55.2362C73.6768 55.6857 72.1035 56.5244 70.7478 57.6068C70.3675 57.8635 70.0001 58.1673 69.7052 58.5523C68.0263 60.2806 66.9223 62.4578 66.7995 64.9213C66.6584 67.1367 67.5941 69.2578 69.2981 70.7115C70.9425 72.131 73.1508 72.6864 75.25 72.6644C75.4027 72.6729 75.602 72.6686 75.7418 72.6301C76.0006 72.66 76.2931 72.6299 76.5856 72.5999C76.6322 72.5871 76.6322 72.5871 76.6658 72.5272C78.0556 72.2959 79.4272 71.8165 80.6874 71.1148Z" fill="#042639"/>
<path opacity="0.37" d="M71.5633 57.8375C71.183 58.0942 70.8156 58.398 70.5207 58.783C68.8418 60.5113 67.7378 62.6885 67.615 65.152C67.4739 67.3674 68.4096 69.4885 70.1136 70.9422C70.8335 71.5536 71.6543 71.9853 72.5423 72.2973C71.3618 72.0153 70.2097 71.4725 69.2851 70.6644C67.5811 69.2107 66.6455 67.0896 66.7866 64.8742C66.9224 62.4577 68.06 60.2206 69.6923 58.5052C69.9871 58.1202 70.295 57.7822 70.7349 57.5597C72.0776 56.4303 73.6639 55.6386 75.2943 55.1891C77.2974 54.6369 79.6555 54.6448 81.6567 55.3585C79.8265 54.9014 77.88 54.9318 76.1098 55.4199C74.4923 55.9164 72.919 56.7551 71.5633 57.8375Z" fill="white"/>
<path d="M79.8924 70.4234C82.9794 68.7118 85.5347 65.0715 84.3704 61.3937C83.206 57.7159 78.8621 56.6864 75.5546 57.5982C74.2502 57.9578 72.9305 58.6254 71.875 59.5238C71.5282 59.7206 71.254 59.9987 71.0394 60.3109C69.7149 61.6884 68.7996 63.4593 68.6868 65.4139C68.5817 67.2144 69.3541 68.925 70.7214 70.0665C72.0292 71.1739 73.8129 71.6439 75.5135 71.6306C75.6662 71.6391 75.7594 71.6134 75.9121 71.6219C76.1244 71.6646 76.3573 71.6004 76.5566 71.5961C76.6032 71.5833 76.6032 71.5833 76.6368 71.5234C77.7471 71.3691 78.8858 70.954 79.8924 70.4234Z" fill="#042639"/>
<path d="M87.1383 144.149C89.2417 142.506 88.5898 138.687 88.2002 136.365C87.7328 133.761 86.8125 131.332 86.1122 128.791C85.8819 133.41 85.1805 137.957 83.7956 142.388C83.7414 142.555 83.5291 142.512 83.5833 142.345C84.9706 137.559 85.6874 132.705 85.8398 127.804C82.6888 126.192 79.6127 124.307 76.6297 122.396C73.0253 120.049 69.4285 117.548 65.9379 115.068C66.3884 115.248 66.7923 115.44 67.2428 115.619C68.0765 116.098 68.8301 116.65 69.6638 117.129C70.6556 117.817 71.6473 118.505 72.6857 119.181C74.8013 120.673 76.9635 122.152 79.1463 123.524C81.1505 124.794 83.2608 126.085 85.3917 127.269C85.3917 127.269 85.4047 127.316 85.4513 127.303C85.4979 127.29 85.5108 127.337 85.5574 127.325C85.617 127.359 85.7361 127.427 85.7956 127.461C85.8682 127.543 85.9743 127.564 86.0934 127.632C86.153 127.667 86.153 127.667 86.1995 127.654C88.4237 128.812 90.715 129.851 93.0217 130.582C94.7252 131.124 97.6298 131.842 98.7521 129.913C99.4038 128.822 99.1621 127.218 98.944 126.064C98.7077 124.661 98.1452 123.348 97.443 122.074C94.7221 116.75 91.3414 111.76 87.9865 106.863C86.4736 104.648 84.9607 102.433 83.4012 100.231C83.4142 100.278 83.4271 100.325 83.4401 100.372C83.2432 100.022 83.0463 99.6711 82.8157 99.3803C82.8157 99.3803 82.8157 99.3803 82.8028 99.3333C77.3755 91.4653 71.868 83.6701 66.2002 76.0203C64.3635 73.5402 62.4467 71.1328 60.4497 68.7982C58.9008 66.998 57.2793 65.1166 55.2416 63.9068C52.7999 62.5047 50.0879 63.7585 48.0388 65.2346C46.1164 66.6251 45.9364 68.6994 46.3466 70.9147C46.3596 70.9617 46.2664 70.9874 46.2534 70.9404C45.9057 69.3153 45.8633 67.7072 46.7037 66.2101C47.6449 64.5333 49.552 63.4507 51.2832 62.8216C53.3872 62.0897 55.267 63.0899 56.8855 64.4153C58.7812 66.0187 60.369 67.9599 61.9438 69.8542C65.8706 74.6432 69.3369 79.7617 72.9765 84.7817C76.2276 89.3015 79.4657 93.7742 82.6365 98.3667C81.0427 90.4037 79.0166 82.5091 76.5376 74.79C76.3224 74.1913 76.1408 73.5328 75.9257 72.9341C73.4202 73.1186 70.9271 72.4393 68.9926 70.6948C67.6329 69.3993 66.801 67.6546 66.6343 65.7771C66.4286 63.7584 67.0668 61.7097 68.1607 60.0414C68.7245 59.1773 69.3608 58.3945 70.1292 57.7271C69.8415 57.0471 69.5668 56.4142 69.279 55.7343C69.3256 55.7215 69.3127 55.6744 69.2997 55.6274C69.2738 55.5333 69.2142 55.4991 69.2012 55.452C69.1883 55.405 69.1287 55.3708 69.1157 55.3238C69.0898 55.2297 69.0303 55.1955 68.9577 55.1142C68.8204 54.7978 68.683 54.4813 68.5456 54.1649C68.5327 54.1178 68.5197 54.0708 68.5067 54.0238C68.4808 53.9297 68.4548 53.8356 68.3693 53.7073C68.3434 53.6132 68.3304 53.5662 68.2579 53.4849C68.2449 53.4379 68.2449 53.4379 68.1854 53.4037C67.426 51.7402 66.6201 50.0896 65.8271 48.4859C65.4798 47.7718 65.1326 47.0577 64.7983 46.3906C64.5236 45.7577 64.2358 45.0777 63.8679 44.4705C63.855 44.4235 63.7825 44.3422 63.7695 44.2952C63.7565 44.2481 63.684 44.1669 63.6244 44.1327C62.9948 42.9396 62.3781 41.7936 61.7018 40.6133C61.6629 40.4722 61.5904 40.391 61.5515 40.2498C61.5385 40.2028 61.5385 40.2028 61.5255 40.1558C61.5126 40.1087 61.5126 40.1087 61.466 40.1216C60.5928 38.5907 59.673 37.0726 58.7067 35.5674C57.4113 33.5962 56.0228 31.6506 54.7275 29.6793C53.7016 28.1399 52.8154 26.562 51.6291 25.168C51.8832 25.9078 51.731 26.8103 51.4804 27.5374C50.9637 29.2996 49.8179 30.7797 48.7782 32.2812C48.6308 32.4737 48.4367 32.679 48.2893 32.8715C48.2557 32.9314 48.1755 33.0041 48.1419 33.064C47.7875 33.4148 47.4331 33.7656 47.1978 34.1848C46.5355 34.8736 45.8137 35.5281 45.079 36.1356C43.85 37.1325 42.6081 38.0822 41.2342 38.9166C42.1304 39.9856 42.8998 41.1401 43.5554 42.4273C44.3484 44.0309 44.7092 45.703 44.0268 47.4097C43.4323 48.8896 42.1957 50.0405 40.9538 50.9902C39.3781 52.1839 37.559 53.0398 35.7734 53.8357C33.6152 54.7345 31.3249 55.5177 28.9798 55.5568C27.0333 55.5873 25.0167 55.1815 24.3063 53.1502C23.6348 51.26 24.1692 48.8349 24.4477 46.9359C24.525 46.3072 24.6359 45.6186 24.7132 44.9899C23.5356 45.2639 22.0886 45.106 20.8798 45.085C20.0696 45.0552 19.1998 44.9913 18.3844 44.7606C18.0659 44.6965 17.7346 44.5854 17.4627 44.5085C16.3831 44.0469 15.3837 43.5126 14.912 42.529C15.0263 43.3074 15.2338 44.06 15.4879 44.7999C16.0739 46.5618 17.0196 48.1739 17.9058 49.7518C18.7919 51.3297 19.6651 52.8606 20.5513 54.4386C21.3519 55.8882 22.0388 57.4704 22.9792 58.8816C23.0541 58.6078 23.1549 58.4282 23.3153 58.2827C24.1303 57.6025 25.1946 58.372 25.8756 58.8423C28.6203 60.6165 30.773 63.5156 32.5683 66.2095C34.4621 69.0788 36.1748 72.2005 37.2354 75.5019C37.3003 75.7371 37.3651 75.9723 37.4299 76.2075C37.7743 76.3657 38.1446 76.6179 38.1576 76.665C38.6004 76.9985 38.9889 77.4987 39.3179 77.9648C39.792 78.5934 40.266 79.222 40.6805 79.8163C42.3644 82.2879 43.7947 84.9306 45.0051 87.6846C46.2155 90.4386 47.2059 93.3038 47.9634 96.2333C48.3707 97.8926 48.6254 99.5434 48.8464 101.254L48.9059 101.288C48.9189 101.335 48.9319 101.382 48.9448 101.429C49.647 102.704 50.3026 103.991 51.0048 105.265C53.5105 109.99 55.9827 114.776 58.535 119.488C60.9629 123.931 63.4503 128.408 65.7178 132.997C66.1601 132.419 66.6154 131.889 67.1172 131.345C67.1172 131.345 67.1638 131.333 67.1302 131.393C66.6749 131.923 66.1861 132.513 65.7438 133.091C65.6636 133.164 65.63 133.223 65.5498 133.296C63.747 135.666 62.1488 138.233 60.7759 140.889C59.8942 142.6 59.2172 144.507 58.6203 146.342C58.0983 147.904 57.4366 149.503 57.2331 151.129C56.9417 152.981 58.4766 152.912 59.7809 152.552C61.1319 152.18 62.3843 151.632 63.6238 151.037C67.0216 149.544 70.1835 147.558 73.4828 145.889C73.1024 146.146 72.6755 146.416 72.3081 146.719C74.5269 147.677 76.872 147.638 79.2584 147.385C81.8388 146.926 84.921 145.925 87.1383 144.149Z" fill="#EAD87A"/>
<path d="M86.1521 127.667C86.1055 127.68 86.1055 127.68 86.046 127.645C85.9269 127.577 85.8673 127.543 85.7482 127.474C85.6887 127.44 85.5696 127.372 85.51 127.338C85.4634 127.35 85.4505 127.303 85.4039 127.316L85.3443 127.282C83.2134 126.098 81.1031 124.807 79.0989 123.537C77.3459 122.451 75.6601 121.246 73.9408 120.1C76.6101 121.237 80.0555 121.552 82.4178 119.939C84.3531 118.596 85.1257 116.308 84.5964 114.024C84.228 112.506 83.58 111.065 82.9321 109.624C82.2193 107.947 81.4134 106.297 80.6204 104.693C77.2232 98.1887 73.0601 91.997 68.8892 85.9591C64.9489 80.2121 60.5894 74.5806 55.2857 70.07C53.39 68.4666 51.3883 66.842 49.009 66.03C48.5715 65.8975 48.0279 65.7437 47.5101 65.684C47.6705 65.5385 47.8309 65.3931 47.9913 65.2476C50.0275 63.7245 52.799 62.5049 55.1941 63.9199C57.2785 65.1168 58.8999 66.9982 60.4023 68.8112C62.3993 71.1458 64.3161 73.5532 66.1527 76.0333C71.8206 83.6831 77.341 91.5254 82.7553 99.3463C82.7553 99.3463 82.7553 99.3463 82.7683 99.3933C82.9989 99.6841 83.1958 100.035 83.3927 100.385C83.3797 100.338 83.3668 100.291 83.3538 100.244C84.8667 102.459 86.3796 104.674 87.9391 106.876C91.2939 111.773 94.6877 116.81 97.3956 122.087C98.0512 123.374 98.6007 124.64 98.8966 126.077C99.1147 127.231 99.3563 128.835 98.7047 129.926C97.5824 131.855 94.6778 131.137 92.9743 130.595C90.608 129.83 88.3297 128.838 86.1521 127.667Z" fill="#DED160"/>
<path d="M75.8359 71.339C75.7893 71.3518 75.7893 71.3518 75.7297 71.3176C75.577 71.3091 75.4113 71.2536 75.3181 71.2793C75.3181 71.2793 75.3181 71.2793 75.3052 71.2322C75.0463 71.2024 74.7745 71.1254 74.5156 71.0956C72.8976 70.6811 71.4967 69.5995 70.7762 68.0771C69.7344 65.9347 70.4009 63.625 71.821 61.8668C72.0616 61.6486 72.2426 61.3963 72.4832 61.1781C72.5298 61.1652 72.5168 61.1182 72.5038 61.0711C73.3265 60.2369 74.3537 59.5994 75.3526 59.2228C78.3494 58.0929 82.1444 58.7676 83.6112 61.9065C85.1506 65.1265 82.8749 68.6897 80.0414 70.2302C78.8072 71.026 77.3035 71.3899 75.8359 71.339Z" fill="black"/>
<path d="M79.897 70.0674C81.6773 69.0704 83.1026 67.5132 83.6942 65.4773C84.2186 63.5611 83.6945 61.4784 82.1485 60.2343C80.6025 58.9901 78.4048 58.8367 76.5621 59.2435C74.9653 59.6331 73.4645 60.5531 72.36 61.8193C72.2462 61.9519 72.1324 62.0845 72.0186 62.2172C71.8375 62.4695 71.6901 62.662 71.509 62.9144C70.1591 65.1088 70.2385 68.124 72.3594 69.817C73.1985 70.4968 74.2056 70.8772 75.2876 70.9838C75.4533 71.0394 75.6526 71.0351 75.8053 71.0436C77.1798 71.1202 78.6705 70.7092 79.897 70.0674Z" fill="#004A74"/>
<path d="M77.2667 59.8085C75.6699 60.1981 74.1691 61.1181 73.0646 62.3843C72.9508 62.5169 72.837 62.6495 72.7231 62.7822C72.5421 63.0345 72.3947 63.227 72.2136 63.4794C70.8974 65.6139 70.9508 68.535 72.8724 70.2324C72.6937 70.1298 72.5021 69.9802 72.3105 69.8305C70.1896 68.1375 70.1102 65.1223 71.4601 62.9279C71.5945 62.6884 71.7756 62.436 71.9696 62.2306C72.0834 62.098 72.1843 61.9184 72.311 61.8328C73.4156 60.5666 74.9163 59.6466 76.5132 59.257C78.3895 58.7903 80.5406 58.9566 82.0995 60.2478C82.1591 60.282 82.1721 60.329 82.2316 60.3632C80.7894 59.4954 78.9101 59.4061 77.2667 59.8085Z" fill="#004A74"/>
<path d="M74.6313 66.6094C73.9109 65.0871 75.1911 63.3674 76.6093 62.8752C77.8877 62.4215 79.4668 62.6948 80.1354 64.029C80.7704 65.4231 79.8239 66.8989 78.6569 67.5749C77.9168 67.9814 77.0989 68.1057 76.2964 67.922C75.5405 67.7254 74.9526 67.2295 74.6313 66.6094Z" fill="black"/>
<path d="M78.5117 67.4124C79.2518 67.0059 79.8674 66.3299 80.1258 65.4488C80.3505 64.6276 80.1171 63.7809 79.4567 63.2037C78.8093 62.6735 77.8929 62.6224 77.088 62.7937C76.19 62.9907 75.3957 63.564 74.9587 64.3425C74.4078 65.2536 74.419 66.5666 75.3176 67.2806C76.1955 68.1015 77.5517 67.9301 78.5117 67.4124Z" fill="url(#paint8_radial_201_3)"/>
<path opacity="0.37" d="M77.3522 63.0246C76.4541 63.2216 75.6598 63.7949 75.2228 64.5734C74.672 65.4845 74.6831 66.7975 75.5817 67.5115C75.6412 67.5457 75.6412 67.5457 75.7008 67.5799C75.5817 67.5115 75.416 67.456 75.3305 67.3277C74.4319 66.6137 74.4338 65.3477 74.9716 64.3896C75.4552 63.5982 76.2495 63.0249 77.101 62.8408C77.8593 62.6823 78.7161 62.6992 79.3505 63.1823C78.768 62.8874 78.0043 62.8448 77.3522 63.0246Z" fill="white"/>
<path d="M61.2745 106.331C60.0358 103.838 58.9704 101.247 57.7783 98.7409C56.5732 96.1879 55.3811 93.682 54.2692 91.1034C52.1049 85.9803 50.2408 80.6732 48.2628 75.4987C48.2628 75.4987 48.2499 75.4516 48.3094 75.4858C50.5669 80.5833 52.2317 85.8947 54.4426 91.0049C55.5545 93.5836 56.7932 96.0767 57.9983 98.6296C59.237 101.123 60.5688 103.59 61.541 106.207C61.5669 106.301 61.3263 106.52 61.2745 106.331Z" fill="#CDCFD0"/>
<path d="M26.1533 37.3041C26.2824 36.8635 26.352 36.3888 26.4812 35.9482C25.0577 36.2394 23.3159 36.4666 21.9774 35.9751C21.9178 35.9409 21.8583 35.9067 21.7987 35.8725C22.1925 36.5738 22.9072 36.9842 23.6165 37.1936C24.3984 37.4842 25.2965 37.2872 26.1533 37.3041Z" fill="url(#paint9_linear_201_3)"/>
<path d="M72.3694 45.3157C71.0235 40.9793 66.097 39.6548 62.1061 40.4514C62.7953 41.6786 63.4845 42.9059 64.1401 44.1931C66.4386 44.1668 68.7041 45.1114 69.7847 47.3949C70.7799 49.5502 70.16 51.847 68.74 53.6052C68.9033 54.0157 69.1002 54.3664 69.2635 54.7769C71.8376 52.2957 73.4818 48.8053 72.3694 45.3157Z" fill="#042639"/>
<path d="M64.2523 44.4151C65.7475 47.293 67.2091 50.2308 68.5774 53.1943C69.1335 52.4842 69.524 51.7185 69.7823 50.8374C70.3066 48.9213 69.7826 46.8386 68.2366 45.5944C67.1334 44.6837 65.694 44.3719 64.2523 44.4151Z" fill="#004A74"/>
<path d="M24.187 27.2669C23.8786 26.6939 23.3297 26.339 22.628 25.9757C22.118 25.762 21.595 25.5012 21.059 25.1935C22.092 25.6679 30.6151 24.5836 32.6992 20.8707C33.943 18.655 33.7964 15.7596 31.8282 14.075C31.9343 14.0964 31.9939 14.1306 32.1 14.1519C34.3136 14.9084 34.3045 17.2392 33.9459 19.211C33.6698 20.755 33.2876 22.2777 32.9054 23.8003C32.2349 23.7321 31.5775 23.7109 30.8994 23.7966C28.1999 24.1865 25.9927 25.453 24.187 27.2669Z" fill="url(#paint10_linear_201_3)"/>
<path d="M26.1888 37.8003C26.3127 37.1587 26.4961 36.5513 26.62 35.9098L26.6666 35.8969C26.6536 35.8499 26.7002 35.8371 26.6872 35.79L26.6406 35.8029C26.6949 35.636 26.7026 35.4821 26.7568 35.3153C26.7645 35.1613 26.6118 35.1528 26.5912 35.2597C26.5369 35.4265 26.4956 35.6404 26.4413 35.8072C25.6235 35.9314 24.746 36.0215 23.8893 36.0046C23.1386 36.0091 22.2689 35.9452 21.6008 35.5219C20.6686 34.8678 20.4894 33.8542 20.7684 32.8662C20.802 32.8063 20.8227 32.6994 20.8563 32.6395C20.9984 32.246 21.1535 31.8995 21.288 31.66C21.9214 30.3212 22.8396 29.1063 23.8562 28.0668C23.9028 28.0539 23.8898 28.0069 23.9364 27.994C24.0839 27.8015 24.2779 27.5962 24.4512 27.4978C26.2699 25.7309 28.3709 24.4431 30.9955 24.3269C31.5805 24.2668 32.0982 24.3266 32.6625 24.3735L32.7221 24.4077C32.7221 24.4077 32.7686 24.3948 32.7816 24.4419C32.7816 24.4419 32.7816 24.4419 32.7686 24.3948C33.8041 24.5143 34.8318 24.7878 35.7924 25.181C36.5017 25.3904 37.1904 25.7067 37.8455 26.0828C37.9051 26.117 37.9051 26.117 37.918 26.1641C38.0371 26.2325 38.1562 26.3009 38.2624 26.3222C38.6197 26.5274 39.2618 26.8566 39.5313 27.2885C39.5442 27.3355 39.5442 27.3355 39.5572 27.3826C39.6557 27.5579 39.6739 27.8059 39.586 28.0326C39.4103 28.486 39.1154 28.871 38.761 29.2218C38.6472 29.3544 38.5204 29.44 38.4066 29.5726L38.36 29.5855C36.9164 30.8946 35.5271 32.0369 33.7805 32.9739C33.6873 32.9996 33.6071 33.0724 33.5139 33.098C33.11 32.9057 32.6466 32.6791 32.2427 32.4868C32.1831 32.4526 32.1831 32.4526 32.1365 32.4654C32.2556 32.5338 32.3747 32.6022 32.4939 32.6706C33.1619 33.0939 33.7964 33.577 34.511 33.9874C34.9874 34.261 35.4173 34.5474 35.8601 34.8809C37.6131 35.9667 39.2186 37.2451 40.6302 38.7288C40.7752 38.8913 40.9539 38.9939 41.0523 39.1692C42.2127 40.469 43.1661 41.9272 43.7727 43.5822C43.8841 43.8045 43.962 44.0868 44.0268 44.322C42.8889 41.6493 40.2964 38.9726 37.3028 36.6597C31.7197 32.226 27.0705 36.0893 26.1888 37.8003Z" fill="url(#paint11_linear_201_3)"/>
<path d="M32.6673 20.9301C32.9588 19.0782 34.3182 15.4639 31.7137 14.5621L31.7008 14.5151C32.7958 14.6688 33.2727 15.8533 33.4389 16.8199C33.6623 18.1756 33.174 19.6769 32.8666 20.9258C32.846 21.0327 32.6467 21.0371 32.6673 20.9301Z" fill="#00A0CA"/>
<path d="M26.0646 53.5262C24.3246 52.4874 24.2918 49.4594 24.9871 47.7998C24.9871 47.7998 25.0337 47.7869 25.0467 47.834C24.336 49.8015 24.7079 52.7867 26.9214 53.5431C28.4256 54.0901 30.1156 53.6748 31.6375 53.5589C31.7903 53.5675 31.749 53.7813 31.6092 53.8198C29.8467 54.1539 27.6985 54.5437 26.0646 53.5262Z" fill="#EEEEEE"/>
<path d="M37.6524 27.199C38.2956 29.3501 31.8987 32.3285 26.4796 34.1262C21.0735 35.971 20.5801 33.2724 21.0401 32.032C21.1074 31.9123 21.128 31.8053 21.1953 31.6856C21.8286 30.3467 22.7468 29.1319 23.7635 28.0923C23.8101 28.0795 23.7971 28.0324 23.8437 28.0196C23.9911 27.8271 24.1851 27.6217 24.3585 27.5233C26.1771 25.7565 28.2782 24.4686 30.9028 24.3524C31.4877 24.2924 32.0055 24.3521 32.5698 24.399L32.6293 24.4332C32.6293 24.4332 32.6759 24.4204 32.6889 24.4674C32.6889 24.4674 32.6889 24.4674 32.6759 24.4204C33.2532 24.5143 33.8304 24.6083 34.4337 24.7963C35.9638 25.4374 37.3465 26.271 37.6524 27.199Z" fill="#00A0CA"/>
<path d="M24.146 34.5671C23.5144 34.64 21.6069 34.8116 21.8599 33.7295C21.8469 33.6824 21.9531 33.7038 21.9065 33.7166C21.713 34.8329 24.2002 34.4003 24.7722 34.2932C26.9929 33.9847 29.1122 32.9449 31.1047 31.9906C31.1979 31.9649 31.1902 32.1189 31.1437 32.1317C29.0296 33.3726 26.6385 34.3355 24.146 34.5671Z" fill="#00A0CA"/>
<path d="M34.6182 26.0108C32.8293 25.3398 30.7608 24.7458 28.9104 25.3066L28.8974 25.2596C30.7219 24.6047 32.9507 25.0532 34.6725 25.844C34.6984 25.938 34.6778 26.045 34.6182 26.0108Z" fill="#00A0CA"/>
<path d="M36.9226 27.0963C36.8035 27.0279 36.718 26.8997 36.5859 26.7842C36.5134 26.703 36.3217 26.5533 36.169 26.5448C36.1224 26.5577 36.1431 26.4507 36.1897 26.4379C36.5287 26.395 36.8188 26.72 36.9898 26.9766C37.0028 27.0236 36.9821 27.1305 36.9226 27.0963Z" fill="#00A0CA"/>
<path d="M70.3918 45.4053C72.4695 48.5782 71.0688 52.4063 69.1882 54.4939C69.0508 54.1775 68.9135 53.861 68.7761 53.5446C70.1495 51.7992 70.816 49.4896 69.8208 47.3343C68.7401 45.0507 66.4747 44.1062 64.1762 44.1324C63.7564 43.337 63.3367 42.5417 62.9169 41.7463C65.4536 41.8568 68.5575 42.5702 70.3918 45.4053Z" fill="#042639"/>
<path opacity="0.45" d="M41.7544 100.628C41.7154 100.487 41.6636 100.299 41.6583 100.098C41.9354 100.375 42.8464 100.226 43.1725 100.136C43.4626 100.461 43.5664 100.837 43.7167 101.2C43.1312 100.349 41.6895 100.393 41.7544 100.628Z" fill="url(#paint12_linear_201_3)"/>
<path opacity="0.45" d="M43.9219 101.751C43.8128 101.174 43.6572 100.61 43.2816 100.156C44.0399 99.9979 44.8059 99.6855 45.5124 99.3389L45.5253 99.3859C45.6833 99.5954 45.7482 99.8306 45.813 100.066C44.9298 99.0439 44.064 101.358 43.9219 101.751Z" fill="url(#paint13_linear_201_3)"/>
<path opacity="0.45" d="M45.9226 100.288C45.8784 99.9463 45.7876 99.617 45.5571 99.3263C46.0436 99.0909 46.5301 98.8556 47.0036 98.5732C47.0348 98.8683 47.066 99.1634 47.0973 99.4584C46.4369 98.8812 45.9226 100.288 45.9226 100.288Z" fill="url(#paint14_linear_201_3)"/>
<path d="M26.2485 59.6502C29.0917 61.5997 34.493 69.3736 36.1237 73.8339C38.0474 79.1752 32.1744 79.3265 27.7383 80.1445C23.4083 80.9839 20.7361 79.291 20.0858 78.2049C20.0209 77.9696 19.9691 77.7815 19.9042 77.5463C19.8912 77.4992 19.8912 77.4992 19.8783 77.4522C20.7409 78.581 21.7509 79.5174 23.2368 79.8164C25.2068 80.235 27.1946 79.9907 29.1046 79.4641C30.2226 79.1559 31.3147 78.7536 32.4197 78.3983C33.2453 78.1201 34.2106 77.8034 34.8987 77.2087C35.9543 76.3103 35.9225 75.1042 35.5128 73.7999C34.0685 69.2882 31.3693 65.6792 28.4112 62.0404C27.7325 61.2151 24.5233 57.3925 23.3621 59.1805L23.3957 59.1206C23.2483 59.3131 23.1475 59.4928 23.0596 59.7195C23.0466 59.6724 23.0207 59.5784 23.0077 59.5313C22.8545 58.6118 23.5839 57.8033 26.2485 59.6502Z" fill="url(#paint15_linear_201_3)"/>
<g opacity="0.7">
<path d="M75.8779 72.9472C76.0931 73.5459 76.2747 74.2044 76.4899 74.8032C78.9688 82.5222 80.9949 90.4168 82.5888 98.3798C80.4568 95.3738 78.3118 92.3207 76.1798 89.3146C74.6077 83.0665 72.8261 77.3317 70.9154 72.0375C72.4249 72.7856 74.1567 73.0674 75.8779 72.9472Z" fill="#DED160"/>
<path d="M48.7625 32.2348C49.8022 30.7334 50.8884 29.2191 51.4647 27.4911C51.7153 26.764 51.8209 25.8743 51.6134 25.1217C52.7997 26.5156 53.6859 28.0935 54.7118 29.6329C56.0537 31.5914 57.3827 33.5028 58.691 35.5211C59.6573 37.0263 60.5771 38.5443 61.4503 40.0752C61.4503 40.0752 61.4632 40.1223 61.5098 40.1094C61.5228 40.1565 61.5228 40.1565 61.5358 40.2035C61.5747 40.3446 61.6472 40.4259 61.6861 40.567C62.3624 41.7472 62.9791 42.8933 63.6087 44.0863C63.6683 44.1205 63.6942 44.2146 63.7538 44.2488C63.7668 44.2959 63.8393 44.3771 63.8522 44.4241C64.2202 45.0314 64.4949 45.6643 64.7826 46.3442C65.1299 47.0584 65.4771 47.7725 65.8114 48.4396C66.6174 50.0903 67.4103 51.6939 68.1697 53.3574C68.1697 53.3574 68.2293 53.3916 68.2422 53.4386C68.2682 53.5327 68.2811 53.5797 68.3537 53.661C68.3796 53.755 68.4055 53.8491 68.491 53.9774C68.504 54.0245 68.517 54.0715 68.5299 54.1185C68.6673 54.435 68.8047 54.7514 68.942 55.0679C69.0146 55.1491 69.0275 55.1962 69.1 55.2774C69.113 55.3245 69.1726 55.3587 69.1855 55.4057C69.1985 55.4527 69.271 55.534 69.284 55.581C69.297 55.6281 69.3099 55.6751 69.2634 55.688C69.5511 56.3679 69.8258 57.0008 70.1135 57.6807C69.3581 58.3952 68.7088 59.131 68.145 59.995C67.7287 60.6666 67.3383 61.4323 67.1006 62.2065C61.4219 49.2448 54.9298 39.6963 48.4806 32.6669C48.5013 32.56 48.6487 32.3675 48.7625 32.2348Z" fill="#DED160"/>
<path d="M86.0611 128.806C86.7615 131.346 87.7283 133.762 88.1492 136.379C88.5388 138.702 89.1777 142.474 87.0872 144.163C85.8583 145.16 84.3522 145.879 82.7477 146.423C82.7477 146.423 83.9857 143.095 84.8163 138.108C85.5341 135.076 85.9206 131.932 86.0611 128.806Z" fill="#DED160"/>
</g>
<g opacity="0.7">
<path d="M82.7981 146.409C81.6465 146.777 80.4689 147.051 79.299 147.171C79.5566 140.469 78.2988 131.907 75.7823 121.87C76.0335 122.054 76.3313 122.225 76.5824 122.409C79.5188 124.332 82.6415 126.205 85.7926 127.816C85.8008 128.573 85.7235 129.202 85.6851 129.972C85.3847 134.155 84.7192 138.286 83.5361 142.358C83.4818 142.525 83.6941 142.568 83.7483 142.401C84.2031 140.96 84.5646 139.544 84.8666 138.094C85.5249 135.027 85.8778 131.944 86.0649 128.804C86.7653 131.345 87.7321 133.761 88.153 136.378C88.5426 138.7 89.1815 142.472 87.091 144.162C85.9087 145.146 84.369 145.925 82.7981 146.409Z" fill="#DED160"/>
<path d="M72.9298 84.7946C69.2901 79.7745 65.8239 74.6561 61.8971 69.867C60.3222 67.9728 58.7214 65.9845 56.8388 64.4282C56.1188 63.8168 55.3782 63.3123 54.5834 62.9747C51.2169 55.8546 47.7478 50.1801 44.3104 45.7117C44.3511 44.5869 44.0063 43.5178 43.5087 42.4401C42.866 41.2 42.0836 39.9984 41.1874 38.9295C42.5148 38.1079 43.8033 37.1453 45.0322 36.1485C45.767 35.541 46.4888 34.8864 47.151 34.1977C47.4329 33.7656 47.7873 33.4148 48.0951 33.0769C48.1288 33.017 48.209 32.9443 48.2426 32.8844C48.2762 32.8245 48.3228 32.8116 48.3564 32.7518C48.4702 32.6192 48.6176 32.4267 48.7314 32.294C49.7711 30.7926 50.8574 29.2783 51.4336 27.5503C51.6843 26.8232 51.7899 25.9335 51.5824 25.1809C52.7687 26.5748 53.6548 28.1527 54.6807 29.6921C56.0227 31.6506 57.3516 33.562 58.6599 35.5803C59.6263 37.0855 60.546 38.6035 61.4192 40.1344C61.4192 40.1344 61.4322 40.1815 61.4788 40.1686C61.4917 40.2157 61.4917 40.2157 61.5047 40.2627C61.5436 40.4038 61.6161 40.4851 61.655 40.6262C62.3313 41.8064 62.948 42.9525 63.5777 44.1455C63.6372 44.1797 63.6632 44.2738 63.7227 44.308C63.7357 44.3551 63.8082 44.4363 63.8212 44.4833C64.1891 45.0906 64.4638 45.7235 64.7515 46.4034C65.0988 47.1176 65.4461 47.8317 65.7803 48.4988C66.5863 50.1494 67.3793 51.7531 68.1386 53.4166C68.1386 53.4166 68.1982 53.4508 68.2112 53.4978C68.2371 53.5919 68.2501 53.6389 68.3226 53.7202C68.3485 53.8143 68.3745 53.9083 68.46 54.0366C68.4729 54.0837 68.4859 54.1307 68.4989 54.1777C68.6362 54.4942 68.7736 54.8106 68.911 55.1271C68.9835 55.2083 68.9965 55.2554 69.069 55.3366C69.082 55.3837 69.1415 55.4179 69.1545 55.4649C69.1675 55.5119 69.24 55.5932 69.2529 55.6402C69.2659 55.6873 69.2789 55.7343 69.2323 55.7472C69.52 56.4271 69.7947 57.06 70.0824 57.7399C69.327 58.4544 68.6778 59.1902 68.114 60.0542C67.6976 60.7258 67.3072 61.4915 67.0695 62.2657C66.6767 63.3863 66.5092 64.5967 66.6341 65.7771C66.8009 67.6546 67.6327 69.3993 68.9924 70.6948C69.5932 71.2378 70.2743 71.7081 70.9759 72.0715C72.4854 72.8195 74.2172 73.1013 75.9385 72.9811C76.1536 73.5798 76.3352 74.2384 76.5504 74.8371C79.0294 82.5562 81.0555 90.4507 82.6494 98.4138C80.5173 95.4077 78.3724 92.3546 76.2404 89.3486C75.0618 87.8007 73.9893 86.2741 72.9298 84.7946Z" fill="#DED160"/>
</g>
<path d="M59.0524 145.92C60.2543 143.007 63.9191 133.391 65.5948 135.106C67.2705 136.821 53.3553 159.436 59.0524 145.92Z" fill="#EEEEEE"/>
<path d="M79.9247 100.532C63.6429 76.9276 56.7053 71.3995 51.4717 67.3251C49.5684 65.8757 47.974 65.9103 46.6543 66.5779C46.9568 66.0389 47.3784 65.5684 47.9192 65.1662C49.9554 63.6431 52.7269 62.4234 55.122 63.8384C57.2064 65.0354 58.8278 66.9168 60.3301 68.7298C62.3271 71.0644 64.244 73.4718 66.0806 75.9519C71.7614 83.6487 77.2689 91.444 82.6962 99.3119C82.6962 99.3119 82.6962 99.3119 82.7091 99.359C82.9397 99.6497 83.1366 100 83.3335 100.351C83.3205 100.304 83.3076 100.257 83.2946 100.21C84.8075 102.425 86.3204 104.64 87.8799 106.842C91.2477 111.785 94.6285 116.775 97.3494 122.099C98.005 123.387 98.5674 124.699 98.8504 126.089C99.0814 127.291 99.3101 128.848 98.6585 129.939C98.3895 130.418 97.9756 130.734 97.5227 130.91C99.7212 127.975 92.9242 119.321 79.9247 100.532Z" fill="#F04E23"/>
<path d="M63.9018 79.1344C60.9414 75.8506 58.0688 72.34 54.4797 69.685C53.6666 69.0993 49.8157 65.8585 48.9441 67.0605C48.8769 67.1803 48.6983 67.0777 48.7655 66.9579C49.8258 65.3495 53.3246 68.5862 54.1637 69.266C57.8176 72.1562 60.9231 75.6025 63.9018 79.1344Z" fill="#5D5D5D"/>
<path d="M41.0089 78.4602C44.4175 82.2785 49.0049 92.5546 49.1531 98.1829C49.3013 103.811 55.5028 112.124 61.2188 122.494C67.5126 133.868 68.4989 129.446 61.4859 114.372C54.473 99.2978 49.1503 79.8095 41.5992 69.6925C34.0611 59.6225 23.4477 53.488 29.2831 59.9274C35.1185 66.3668 37.6263 74.736 41.0089 78.4602Z" fill="#FEEAEA"/>
<path d="M21.4305 54.9048C19.8887 52.0397 15.4691 45.4631 17.7575 45.9458C20.0589 46.4755 23.1023 45.3327 23.0318 48.8954C22.9614 52.458 23.9957 59.6643 21.4305 54.9048Z" fill="#EEEEEE"/>
<path opacity="0.35" d="M58.5757 75.642C61.3228 77.0612 45.3724 62.4771 50.4494 77.9836C55.5265 93.4901 68.5146 114.965 73.1161 118.201C73.1161 118.201 38.8694 65.4341 58.5757 75.642Z" fill="#EEEEEE"/>
<path opacity="0.2" d="M37.6013 50.6493C50.4676 44.7737 57.762 31.7787 53.871 21.6649C49.9929 11.5982 36.4121 8.15471 23.5458 14.0303C10.6796 19.9058 3.38512 32.9009 7.27617 43.0146C11.1672 53.1283 24.6885 56.5377 37.6013 50.6493Z" fill="#E4E5E6" stroke="#292421" stroke-width="0.5"/>
<path opacity="0.8" d="M11.6817 24.995C14.5371 21.1707 18.0582 18.1247 22.1883 16.3786C24.3802 15.42 26.6705 14.6368 28.992 14.1486C31.4533 13.6219 33.9717 13.4843 36.4902 13.3468C36.4902 13.3468 36.4696 13.4537 36.423 13.4666C31.6762 14.0666 27.108 14.7692 22.6388 16.5581C18.343 18.2486 14.6898 21.1793 11.6947 25.0421C11.6611 25.1019 11.6351 25.0079 11.6817 24.995Z" fill="#EEEEEE"/>
<path opacity="0.8" d="M20.6715 18.8721C23.4737 17.0366 26.6231 15.9152 29.848 15.4311C29.9412 15.4054 29.8197 15.692 29.7731 15.7048C26.626 16.4712 23.4919 17.2846 20.6508 18.979C20.6172 19.0389 20.6249 18.8849 20.6715 18.8721Z" fill="#EEEEEE"/>
<path opacity="0.8" d="M24.2679 18.2856C25.6342 17.6052 27.1119 17.1472 28.5766 16.6421C28.6698 16.6164 28.5819 16.8431 28.5354 16.856C27.1431 17.4423 25.6524 17.8532 24.2602 18.4395C24.1541 18.4182 24.2213 18.2984 24.2679 18.2856Z" fill="#EEEEEE"/>
<path opacity="0.8" d="M25.8656 51.3538C24.103 51.6879 22.1902 51.6585 20.3652 51.4023C18.5868 51.1334 16.9505 50.4709 15.2134 49.9881C15.1539 49.9539 15.2211 49.8341 15.2677 49.8213C16.8338 50.0475 18.4052 50.4748 19.9714 50.701C21.6902 50.9358 23.4374 50.9097 25.1456 50.7424C28.808 50.3908 32.4027 49.2479 35.7745 47.6603C37.234 46.9542 38.6598 46.308 40.0208 45.4266C41.5552 44.4468 42.9781 43.2446 44.4011 42.0425C45.7774 40.8531 47.0553 39.4885 48.2477 37.9955C49.3134 36.5882 50.2469 35.0653 51.3125 33.658C51.3797 33.5382 51.385 33.7392 51.3514 33.7991C49.3912 36.8704 47.4386 39.7877 44.8981 42.2091C42.2775 44.7032 39.4081 46.6585 36.2096 48.1477C34.5638 48.9052 32.8585 49.6284 31.1608 50.1977C29.4631 50.7669 27.6747 51.0069 25.8656 51.3538Z" fill="#EEEEEE"/>
<path opacity="0.8" d="M23.752 49.5067C23.7054 49.5196 23.7596 49.3527 23.8062 49.3399C25.6855 49.4292 27.5359 48.8684 29.3526 48.3676C31.0297 47.9052 32.6029 47.0665 34.1892 46.2749C35.7754 45.4833 37.3487 44.6446 38.8831 43.6648C39.5636 43.2241 40.2777 42.7235 40.9323 42.1887C41.5403 41.6668 42.3528 41.3415 42.9738 40.8666C43.054 40.7939 43.0127 41.0077 42.9791 41.0676C42.4772 41.6109 41.9494 42.0601 41.3491 42.4281C40.5419 42.9544 39.8201 43.6089 39.0258 44.1822C37.5173 45.2561 35.944 46.0948 34.3112 46.8993C31.0585 48.5553 27.4744 50.1002 23.752 49.5067Z" fill="#EEEEEE"/>
<path opacity="0.8" d="M30.5357 45.207C31.6072 44.9116 32.5283 44.2528 33.4883 43.735C34.2413 43.3755 35.4731 42.9347 36.0033 42.1305C36.1042 41.9509 36.1431 42.092 36.0888 42.2588C35.7579 43.0587 34.8056 43.4224 34.1458 43.7562C32.9658 44.3852 31.7652 45.1212 30.4685 45.3268C30.4219 45.3396 30.4892 45.2199 30.5357 45.207Z" fill="#EEEEEE"/>
<path opacity="0.8" d="M30.7575 43.273C31.1845 43.0035 31.6374 42.828 32.0773 42.6055C32.1704 42.5798 32.0696 42.7595 32.0825 42.8065C31.6556 43.0761 31.1898 43.2045 30.7628 43.4741C30.6101 43.4655 30.711 43.2859 30.7575 43.273Z" fill="#EEEEEE"/>
<path opacity="0.8" d="M11.9508 38.3345C10.9354 37.1971 10.968 35.3153 11.1639 33.844C11.3934 32.3128 11.9336 30.9997 12.7586 29.8105C12.8388 29.7377 12.8182 29.8447 12.7846 29.9046C11.3881 32.1118 10.6549 35.4522 12.0386 38.1078C12.0982 38.142 12.0103 38.3687 11.9508 38.3345Z" fill="#EEEEEE"/>
<path opacity="0.8" d="M13.0194 36.5721C12.711 35.9991 12.6692 35.302 12.5938 34.6648C12.5808 34.6177 12.6946 34.4851 12.661 34.545C12.783 35.1694 12.905 35.7938 13.1202 36.3925C13.1461 36.4866 13.0919 36.6534 13.0194 36.5721Z" fill="#EEEEEE"/>
<path d="M23.1443 61.1142C23.1443 61.1142 20.413 69.2067 20.1443 74.5956L21.8118 75.5532L25.6969 61.8277C25.6969 61.8277 24.0294 60.8701 23.1443 61.1142Z" fill="#E9E9E9"/>
</g>
<defs>
<linearGradient id="paint0_linear_201_3" x1="44.1408" y1="99.1063" x2="45.3343" y2="102" gradientUnits="userSpaceOnUse">
<stop offset="0.0181818" stop-color="#754C24"/>
<stop offset="0.9013" stop-color="#42210B"/>
</linearGradient>
<linearGradient id="paint1_linear_201_3" x1="44.2867" y1="100.193" x2="45.0758" y2="102.106" gradientUnits="userSpaceOnUse">
<stop offset="0.0987468" stop-color="#42210B"/>
<stop offset="0.9818" stop-color="#754C24"/>
</linearGradient>
<linearGradient id="paint2_linear_201_3" x1="43.3759" y1="95.8915" x2="44.8679" y2="99.5089" gradientUnits="userSpaceOnUse">
<stop offset="0.0987468" stop-color="#42210B"/>
<stop offset="0.9818" stop-color="#754C24"/>
</linearGradient>
<linearGradient id="paint3_linear_201_3" x1="43.4896" y1="97.072" x2="44.5489" y2="99.6405" gradientUnits="userSpaceOnUse">
<stop offset="0.0987468" stop-color="#42210B"/>
<stop offset="0.9818" stop-color="#754C24"/>
</linearGradient>
<linearGradient id="paint4_linear_201_3" x1="38.9965" y1="77.5277" x2="49.1151" y2="101.036" gradientUnits="userSpaceOnUse">
<stop offset="0.0987468" stop-color="#264A64"/>
<stop offset="0.7793" stop-color="#5068A6"/>
<stop offset="0.8926" stop-color="#576DB2"/>
</linearGradient>
<linearGradient id="paint5_linear_201_3" x1="13.5638" y1="42.9356" x2="30.4246" y2="36.0277" gradientUnits="userSpaceOnUse">
<stop offset="0.1538" stop-color="#000013"/>
<stop offset="0.2381" stop-color="#070E23"/>
<stop offset="0.4196" stop-color="#15283F"/>
<stop offset="0.6012" stop-color="#1E3B54"/>
<stop offset="0.7811" stop-color="#244660"/>
<stop offset="0.9576" stop-color="#264A64"/>
</linearGradient>
<linearGradient id="paint6_linear_201_3" x1="35.552" y1="28.4436" x2="37.5368" y2="33.256" gradientUnits="userSpaceOnUse">
<stop offset="0.4338" stop-color="#CFE4F6"/>
<stop offset="0.494" stop-color="#C9DFF2"/>
<stop offset="0.5748" stop-color="#B8D2E8"/>
<stop offset="0.6673" stop-color="#9CBDD7"/>
<stop offset="0.7686" stop-color="#759FC0"/>
<stop offset="0.877" stop-color="#4278A2"/>
<stop offset="0.9898" stop-color="#06497E"/>
<stop offset="1" stop-color="#00457A"/>
</linearGradient>
<linearGradient id="paint7_linear_201_3" x1="32.7742" y1="34.5512" x2="55.9651" y2="25.05" gradientUnits="userSpaceOnUse">
<stop offset="0.1538" stop-color="#000013"/>
<stop offset="0.2381" stop-color="#070E23"/>
<stop offset="0.4196" stop-color="#15283F"/>
<stop offset="0.6012" stop-color="#1E3B54"/>
<stop offset="0.7811" stop-color="#244660"/>
<stop offset="0.9576" stop-color="#264A64"/>
</linearGradient>
<radialGradient id="paint8_radial_201_3" cx="0" cy="0" r="1" gradientUnits="userSpaceOnUse" gradientTransform="translate(77.3756 65.298) rotate(67.7212) scale(4.77329 4.72817)">
<stop stop-color="#B3B3B3"/>
<stop offset="0.6126" stop-color="#4D4D4D"/>
</radialGradient>
<linearGradient id="paint9_linear_201_3" x1="22.3766" y1="31.7036" x2="25.5202" y2="39.3254" gradientUnits="userSpaceOnUse">
<stop offset="0.0793921" stop-color="#CFE4F6"/>
<stop offset="0.209" stop-color="#CBE1F4"/>
<stop offset="0.3312" stop-color="#C0D8ED"/>
<stop offset="0.4505" stop-color="#ADCAE2"/>
<stop offset="0.568" stop-color="#92B5D1"/>
<stop offset="0.6841" stop-color="#6F9BBD"/>
<stop offset="0.7992" stop-color="#457AA3"/>
<stop offset="0.9116" stop-color="#145486"/>
<stop offset="0.9527" stop-color="#00457A"/>
</linearGradient>
<linearGradient id="paint10_linear_201_3" x1="24.9124" y1="14.4194" x2="29.398" y2="25.2951" gradientUnits="userSpaceOnUse">
<stop stop-color="white"/>
<stop offset="0.9939" stop-color="#BECEDF"/>
</linearGradient>
<linearGradient id="paint11_linear_201_3" x1="29.7557" y1="29.7621" x2="40.875" y2="56.7221" gradientUnits="userSpaceOnUse">
<stop offset="0.00606064" stop-color="#BECEDF"/>
<stop offset="1" stop-color="white"/>
</linearGradient>
<linearGradient id="paint12_linear_201_3" x1="42.298" y1="99.8662" x2="42.9905" y2="101.545" gradientUnits="userSpaceOnUse">
<stop offset="0.0987468" stop-color="#42210B"/>
<stop offset="0.9818" stop-color="#754C24"/>
</linearGradient>
<linearGradient id="paint13_linear_201_3" x1="44.3688" y1="99.7007" x2="45.0217" y2="101.284" gradientUnits="userSpaceOnUse">
<stop offset="0.0987468" stop-color="#42210B"/>
<stop offset="0.9818" stop-color="#754C24"/>
</linearGradient>
<linearGradient id="paint14_linear_201_3" x1="46.2579" y1="98.8957" x2="46.6994" y2="99.966" gradientUnits="userSpaceOnUse">
<stop offset="0.0987468" stop-color="#42210B"/>
<stop offset="0.9818" stop-color="#754C24"/>
</linearGradient>
<linearGradient id="paint15_linear_201_3" x1="23.1078" y1="89.1778" x2="31.8353" y2="61.6522" gradientUnits="userSpaceOnUse">
<stop stop-color="#576DB2"/>
<stop offset="0.1775" stop-color="#4A649E"/>
<stop offset="0.4986" stop-color="#36567E"/>
<stop offset="0.77" stop-color="#2A4D6B"/>
<stop offset="0.9576" stop-color="#264A64"/>
</linearGradient>
<clipPath id="clip0_201_3">
<rect width="107" height="48" fill="white" transform="translate(91.9911 106.996) rotate(74.5868)"/>
</clipPath>
<clipPath id="clip1_201_3">
<rect width="144" height="72" fill="white" transform="matrix(0.265778 0.964034 0.964034 -0.265778 0.671997 19.7798)"/>
</clipPath>
<clipPath id="clip2_201_3">
<rect width="24" height="29" fill="white" transform="matrix(0.265778 0.964034 0.964034 -0.265778 20.6985 80.9858)"/>
</clipPath>
</defs>
</svg>
