<svg width="393" height="203" viewBox="0 0 393 203" fill="none" xmlns="http://www.w3.org/2000/svg">
<g opacity="0.39" clip-path="url(#clip0_3_523)">
<path d="M453.723 160.422C453.289 168.902 444.607 174.12 437.01 176.947C418.777 183.687 399.025 186.079 379.707 184.34C375.366 188.254 369.722 190.863 363.861 192.602C351.272 196.516 337.597 196.516 325.442 192.168C322.837 191.298 320.45 190.211 318.062 188.906C314.372 189.558 310.465 189.993 306.775 190.428C281.813 193.255 255.549 196.081 232.107 188.689C221.254 200.43 203.456 205.649 188.044 200.648C180.882 198.473 174.587 193.907 169.595 188.471C159.176 189.993 148.757 190.211 138.338 188.689C124.446 186.732 110.772 181.296 99.2677 171.728C95.1436 174.555 89.5001 175.86 84.5078 176.512C67.3602 178.686 49.7785 178.251 32.848 175.425C25.0339 174.12 17.0028 172.163 10.491 167.38C3.97928 162.596 -0.361876 154.551 1.15753 146.723C1.8087 143.679 3.32811 140.852 5.49869 138.678C10.0569 133.894 17.2198 131.067 24.1657 131.285C24.3827 131.285 24.8168 131.285 25.0339 131.285C25.0339 129.328 25.468 127.371 26.1192 125.631C27.2045 121.718 29.3751 118.021 31.9798 114.977C32.1968 114.76 32.1968 114.76 32.4139 114.542C38.4915 108.454 46.9568 105.192 55.422 104.757C64.1043 104.323 72.5696 106.279 81.9031 110.628C81.9031 98.2343 89.5001 86.2752 100.353 81.4915C111.206 76.7079 124.664 79.3172 134.431 90.4065C135.733 72.5766 147.02 56.2687 162.649 49.3107C178.277 42.3527 197.378 45.1794 209.533 59.7477C213.44 47.5712 227.983 40.3957 238.185 46.0491C241.007 29.5238 251.642 14.5206 265.751 6.69281C280.077 -1.13496 297.659 -1.3524 312.202 5.60562C318.93 8.8672 325.008 13.8683 328.698 20.3914C332.605 26.9146 333.907 35.3946 330.869 45.8317C344.326 41.048 359.954 42.7875 371.893 50.6153C384.048 58.4431 392.513 72.1417 394.25 87.1449C395.118 93.0158 394.684 99.3215 390.342 107.149C400.327 103.453 412.048 105.845 420.079 112.803C422.033 114.542 423.769 116.499 425.072 118.673C426.157 120.413 427.242 122.152 428.111 124.109C430.498 129.98 431.583 136.503 430.498 142.592C439.615 143.679 450.468 148.028 453.072 156.073C453.506 157.377 453.723 158.899 453.723 160.422Z" fill="#FEFFFE"/>
<path fill-rule="evenodd" clip-rule="evenodd" d="M379.707 184.34C399.025 186.079 418.777 183.687 437.01 176.947C444.607 174.12 453.289 168.902 453.723 160.422C453.723 158.899 453.506 157.377 453.072 156.073C450.561 148.318 440.387 143.997 431.491 142.722C431.158 142.674 430.827 142.631 430.498 142.592C430.498 142.592 430.498 142.592 430.498 142.592C430.557 142.263 430.609 141.934 430.655 141.603C431.463 135.802 430.369 129.664 428.111 124.109C427.242 122.152 426.157 120.413 425.072 118.673C423.769 116.499 422.033 114.542 420.079 112.803C412.418 106.165 401.399 103.683 391.733 106.677C391.266 106.822 390.802 106.979 390.342 107.149C390.585 106.711 390.816 106.278 391.035 105.85C394.728 98.6173 395.069 92.6873 394.25 87.1449C392.513 72.1417 384.048 58.4431 371.893 50.6153C360.293 43.0096 345.21 41.1516 332.019 45.4403C331.634 45.5655 331.25 45.696 330.869 45.8317C330.983 45.4385 331.091 45.0481 331.194 44.6605C333.806 34.7585 332.458 26.6688 328.698 20.3914C325.008 13.8683 318.93 8.8672 312.202 5.60562C297.659 -1.3524 280.077 -1.13496 265.751 6.69281C251.938 14.3568 241.453 28.899 238.372 45.0137C238.306 45.3581 238.244 45.7033 238.185 46.0491C237.878 45.879 237.567 45.7205 237.253 45.5734C227.434 40.9803 214.182 47.5048 209.918 58.6539C209.78 59.0138 209.652 59.3784 209.533 59.7477C209.283 59.4484 209.031 59.154 208.775 58.8645C196.594 45.0673 177.956 42.4956 162.649 49.3107C147.419 56.0913 136.312 71.7509 134.55 89.0456C134.504 89.4981 134.464 89.9518 134.431 90.4065C134.128 90.0623 133.821 89.7263 133.511 89.3984C123.831 79.1623 110.869 76.8564 100.353 81.4915C89.8195 86.1344 82.353 97.5366 81.9227 109.535C81.9097 109.899 81.9031 110.264 81.9031 110.628C81.5698 110.473 81.2376 110.321 80.9064 110.171C71.9647 106.143 63.7943 104.338 55.422 104.757C46.9568 105.192 38.4915 108.454 32.4139 114.542L31.9798 114.977C29.3751 118.021 27.2045 121.718 26.1192 125.631C25.468 127.371 25.0339 129.328 25.0339 131.285H24.1657C24.1218 131.283 24.0778 131.282 24.0339 131.281C17.1294 131.103 10.0281 133.924 5.49869 138.678C3.32811 140.852 1.8087 143.679 1.15753 146.723C-0.361876 154.551 3.97928 162.596 10.491 167.38C17.0028 172.163 25.0339 174.12 32.848 175.425C49.7785 178.251 67.3602 178.686 84.5078 176.512C89.5001 175.86 95.1436 174.555 99.2677 171.728C110.772 181.296 124.446 186.732 138.338 188.689C148.757 190.211 159.176 189.993 169.595 188.471C174.587 193.907 180.882 198.473 188.044 200.648C203.456 205.649 221.254 200.43 232.107 188.689C255.549 196.081 281.813 193.255 306.775 190.428C307.125 190.387 307.477 190.346 307.83 190.304C311.204 189.909 314.722 189.496 318.062 188.906C320.45 190.211 322.837 191.298 325.442 192.168C337.597 196.516 351.272 196.516 363.861 192.602C369.722 190.863 375.366 188.254 379.707 184.34ZM84.3809 175.52C67.3333 177.682 49.8499 177.25 33.0127 174.438C25.2243 173.138 17.3939 171.21 11.0831 166.574C4.78906 161.95 0.717295 154.263 2.1374 146.923C2.75033 144.066 4.17725 141.417 6.20641 139.384L6.21463 139.376L6.22265 139.368C10.5723 134.803 17.4546 132.075 24.1344 132.284L24.15 132.285H26.0339V131.285C26.0339 129.471 26.4376 127.633 27.0557 125.982L27.0711 125.941L27.0828 125.899C28.1183 122.164 30.1968 118.606 32.7148 115.656L32.7302 115.641C32.7406 115.63 32.7365 115.634 32.7324 115.638L32.7432 115.628L32.7463 115.625L32.7525 115.618L32.7556 115.615L32.7596 115.611L32.7693 115.602L32.7712 115.6L32.9341 115.436C32.9365 115.434 32.9379 115.433 32.9387 115.432L33.1216 115.249C38.999 109.361 47.2174 106.18 55.4733 105.756C63.9571 105.331 72.2594 107.238 81.4808 111.535L82.9031 112.197V110.628C82.9031 98.6098 90.2847 87.0222 100.756 82.4066C111.179 77.8126 124.178 80.2787 133.681 91.0675L135.255 92.8547L135.428 90.4793C136.705 73.002 147.778 57.0263 163.055 50.2242C178.322 43.4273 196.928 46.201 208.765 60.3884L209.93 61.7842L210.485 60.0532C212.347 54.2507 216.756 49.6146 221.934 47.1126C227.114 44.6093 232.948 44.2903 237.7 46.9238L238.933 47.6072L239.171 46.2174C241.942 29.9865 252.397 15.2471 266.233 7.56903C280.266 -0.0978103 297.506 -0.315378 311.766 6.50576C318.357 9.70057 324.26 14.5767 327.828 20.8838L327.834 20.8946L327.84 20.9052C331.585 27.158 332.88 35.3447 329.908 45.5521L329.362 47.4285L331.204 46.7739C344.373 42.0927 359.674 43.7992 371.344 51.4516L371.351 51.4561C383.247 59.1166 391.553 72.5444 393.256 87.2599L393.258 87.2756L393.26 87.2912C394.1 92.9679 393.692 99.0481 389.468 106.664L388.159 109.024L390.69 108.087C400.313 104.525 411.649 106.826 419.419 113.553C421.315 115.242 422.977 117.122 424.214 119.187L424.219 119.195L424.223 119.203C425.311 120.946 426.356 122.624 427.19 124.501C429.521 130.238 430.557 136.561 429.514 142.416L429.328 143.459L430.38 143.585C434.842 144.117 439.709 145.447 443.757 147.605C447.816 149.771 450.93 152.702 452.121 156.381L452.123 156.389C452.516 157.567 452.721 158.971 452.723 160.396C452.517 164.263 450.439 167.444 447.402 170.045C444.352 172.657 440.402 174.618 436.661 176.01C418.576 182.695 398.974 185.071 379.796 183.344L379.361 183.305L379.037 183.597C374.846 187.376 369.356 189.928 363.577 191.644L363.565 191.647C351.165 195.502 337.714 195.496 325.779 191.226L325.769 191.222L325.759 191.219C323.22 190.371 320.887 189.31 318.542 188.028L318.234 187.86L317.888 187.921C314.578 188.506 311.09 188.915 307.711 189.311C307.36 189.352 307.009 189.394 306.66 189.435C281.657 192.266 255.612 195.053 232.408 187.735L231.803 187.544L231.373 188.01C220.768 199.483 203.37 204.57 188.353 199.696L188.344 199.693L188.335 199.691C181.385 197.581 175.236 193.135 170.331 187.795L169.973 187.405L169.45 187.482C159.113 188.992 148.792 189.205 138.483 187.699L138.478 187.698C124.748 185.764 111.253 180.395 99.9072 170.959L99.3259 170.476L98.7024 170.904C94.7809 173.591 89.3347 174.873 84.3809 175.52Z" fill="black"/>
<path d="M152.013 173.685C145.067 173.25 138.121 173.902 131.175 173.25C141.594 180.208 155.052 179.338 166.556 175.642C160.912 174.772 157.439 174.12 152.013 173.685Z" fill="#FEFFFE"/>
<path d="M170.029 165.203C163.517 165.203 160.044 166.073 153.532 167.16C160.695 169.552 168.726 169.334 175.889 166.725C181.316 165.203 171.982 165.421 170.029 165.203Z" fill="#FEFFFE"/>
<path d="M318.496 174.554C315.457 174.771 312.202 174.554 309.163 174.554C299.178 174.337 289.41 176.728 279.426 178.033C292.015 182.599 306.558 180.86 318.279 174.989C318.713 174.554 319.364 174.337 318.496 174.554Z" fill="#FEFFFE"/>
<path d="M330.218 180.643C343.458 188.036 361.908 186.731 370.808 174.555C358.001 179.991 343.892 180.426 330.218 180.643Z" fill="#FEFFFE"/>
<path d="M316.326 165.203C326.31 170.639 338.683 171.727 348.45 165.421C337.814 165.856 327.179 164.986 316.326 165.203Z" fill="#FEFFFE"/>
<path d="M452.379 160.128C451.947 168.337 443.302 173.388 435.738 176.124C417.584 182.649 397.917 184.964 378.682 183.28C374.359 187.069 368.74 189.595 362.905 191.279C350.37 195.067 336.755 195.067 324.652 190.858C322.058 190.016 319.681 188.963 317.304 187.7C313.63 188.332 309.74 188.753 306.065 189.174C281.212 191.91 255.061 194.646 231.72 187.49C220.914 198.856 203.192 203.907 187.848 199.066C180.716 196.961 174.448 192.541 169.477 187.279C159.104 188.753 148.73 188.963 138.356 187.49C124.524 185.596 110.909 180.334 99.4544 171.073C95.3481 173.809 89.729 175.072 84.7582 175.703C67.6847 177.808 50.179 177.387 33.3216 174.651C25.5413 173.388 17.5448 171.494 11.0612 166.864C4.5776 162.233 0.255191 154.446 1.76803 146.869C2.41639 143.922 3.92924 141.186 6.09044 139.081C8.03552 145.185 15.3836 149.394 22.0833 151.499C48.6661 159.918 79.3552 155.919 102.696 140.975C124.308 163.285 165.587 163.285 187.199 140.975C196.06 152.341 216.376 151.92 224.804 140.344C234.962 150.447 251.819 152.551 265.435 147.71C279.05 142.869 289.64 131.714 296.124 119.086C307.362 130.031 322.058 138.66 337.835 139.923C353.828 141.186 370.902 134.24 378.466 120.349C381.924 130.872 393.81 138.029 405.049 136.345C413.91 134.871 421.258 128.136 424.067 119.928C425.148 121.612 426.228 123.295 427.093 125.19C429.47 130.872 430.551 137.187 429.47 143.08C438.547 144.132 449.353 148.342 451.947 156.129C452.163 157.182 452.379 158.655 452.379 160.128Z" fill="#D6F9FF"/>
</g>
<defs>
<clipPath id="clip0_3_523">
<rect width="453" height="202" fill="white" transform="translate(0.723145 0.167969)"/>
</clipPath>
</defs>
</svg>
