<svg width="314" height="182" viewBox="0 0 314 182" fill="none" xmlns="http://www.w3.org/2000/svg">
<path d="M-225.769 161.191L-225.767 161.191C-211.879 163.199 -197.383 164.013 -183.459 162.437C-177.319 170.717 -166.076 174.922 -155.834 173.296C-150.677 172.493 -145.909 170.51 -141.722 167.541C-123.687 177.466 -100.606 179.192 -77.7937 176.401C-54.9976 173.612 -32.4051 166.304 -15.2524 158.072C-10.6626 162.638 -5.12607 166.03 0.557709 169.204L0.56781 169.209C27.8147 183.604 61.4652 185.226 89.9136 173.669L89.9167 173.668C98.6035 170.072 107.111 165.091 114.088 158.524C125.888 167.308 140.789 172.097 155.467 173.703L155.47 173.703C188.703 177.148 223.135 166.411 248.363 144.325L248.368 144.322C253.546 139.686 258.855 134.342 260.288 127.302L260.298 127.252V127.202C260.298 127.089 260.322 127.005 260.372 126.854L260.376 126.842C260.393 126.791 260.412 126.733 260.43 126.666C273.088 125.841 285.745 123.824 298.013 120.42L298.016 120.419C301.227 119.505 304.78 118.175 307.589 116.185C310.405 114.19 312.523 111.495 312.734 107.861L312.735 107.847V107.832C312.735 106.174 312.53 104.69 311.898 103.198L311.892 103.185L311.886 103.172C310.853 101.082 309.203 99.1977 307.133 97.9348C306.286 97.2979 305.246 96.8771 304.281 96.4862L304.248 96.473L304.24 96.47L304.233 96.4672C299.938 94.8867 295.11 95.0102 290.523 95.3752C291.799 88.0792 287.739 80.7456 281.83 76.3595C279.378 74.4984 276.531 73.2677 273.725 72.2536L273.715 72.25L273.715 72.2501C269.487 70.824 265.263 70.0102 260.846 69.6034C248.496 68.2153 234.435 68.5528 224.518 76.7333C215.801 54.7752 198.471 41.3596 179.716 38.7347C160.793 36.0864 141.304 44.0308 127.656 57.4361L127.651 57.4413C125.553 59.5647 123.441 61.8855 121.673 64.4001C119.992 63.4817 118.314 62.7272 116.656 61.9814L116.648 61.9775L116.639 61.9736L116.63 61.9701C103.548 56.6745 87.394 57.2614 76.2517 66.2821L76.2487 66.2845C70.4195 71.0776 66.4129 77.6799 63.3349 84.7137C63.3646 83.5644 63.3821 82.0642 63.3306 80.2884C63.2021 75.86 62.6441 69.7139 60.7734 63.0054C57.0289 49.5771 48.0204 33.8948 26.7099 25.248C26.7098 25.2479 26.7097 25.2479 26.7096 25.2478L26.5216 25.7112C8.37793 18.2456 -12.9558 20.8687 -29.7039 31.159L-225.769 161.191ZM-225.769 161.191C-233.954 159.979 -242.185 158.357 -249.828 154.897C-257.377 151.479 -264.175 145.866 -267.864 138.425C-278.87 139.412 -287.948 139.85 -295.524 138.387C-303.211 136.903 -309.355 133.462 -314.421 126.696C-318.721 121.098 -319.525 113.455 -317.286 106.864L-317.284 106.859C-316.268 103.979 -314.647 101.11 -312.828 98.6564L-312.821 98.6475C-310.595 95.7805 -307.762 93.117 -304.519 91.066L-304.511 91.0612C-304.258 90.9073 -304.009 90.7472 -303.76 90.5873C-303.093 90.1578 -302.426 89.7291 -301.671 89.4202C-289.054 82.8475 -272.802 84.2452 -261.509 92.8613C-261.587 82.1883 -256.996 71.8082 -249.578 64.3016C-247.364 62.0608 -244.937 60.0116 -242.096 58.3688C-230.178 51.3352 -214.527 51.4023 -203.032 60.9467C-200.873 53.8725 -195.918 47.8134 -189.44 44.4361C-182.925 41.0395 -174.985 40.3291 -169.047 43.9731C-152.703 15.4223 -119.204 -2.02792 -86.6836 0.798702L-86.6807 0.798974C-64.9504 2.81647 -44.2239 13.8522 -29.6045 30.5127L-225.769 161.191Z" fill="#FEFFFE" stroke="black"/>
<path d="M-314.021 126.398C-304.052 139.715 -289.896 139.916 -267.566 137.899C-263.977 145.364 -257.198 151.014 -249.621 154.444C-242.045 157.874 -233.87 159.488 -225.696 160.699C-211.739 162.717 -197.184 163.524 -183.227 161.909C-177.246 170.182 -166.081 174.419 -155.912 172.805C-150.728 171.998 -145.943 169.98 -141.756 166.954C-105.867 186.929 -49.4426 174.016 -15.149 157.47C-10.5633 162.111 -4.98059 165.541 0.801453 168.77C27.9173 183.095 61.4133 184.71 89.7255 173.209C98.4982 169.577 107.072 164.532 114.05 157.874C125.813 166.752 140.767 171.594 155.521 173.209C188.619 176.639 222.912 165.945 248.034 143.952C253.218 139.311 258.402 134.065 259.798 127.205C259.798 126.801 259.997 126.599 259.997 126.196C272.757 125.389 285.518 123.371 297.879 119.941C304.26 118.125 311.836 114.695 312.235 107.835C312.235 106.221 312.035 104.808 311.437 103.396C310.44 101.378 308.845 99.5621 306.852 98.3515C304.06 102.992 297.481 105.01 291.898 106.019C279.536 108.238 266.377 109.449 255.212 105.01C243.648 113.484 230.688 119.941 216.931 123.573C209.155 125.591 200.98 127.003 192.806 125.994C184.83 124.985 176.855 121.757 171.073 116.511C162.699 127.608 148.543 132.249 134.985 134.469C125.016 136.083 114.648 136.688 104.679 134.67C94.71 132.653 84.9403 128.012 77.3638 120.345C60.6158 128.214 41.4752 132.047 23.3315 128.012C5.18784 123.976 -11.3608 111.265 -16.1459 92.7019C-27.7101 98.9568 -40.0717 104.405 -53.0315 105.01C-65.9912 105.615 -80.1473 100.571 -86.5275 87.8594C-101.082 101.378 -118.428 112.677 -137.968 116.309C-157.507 120.143 -179.24 115.099 -193.196 99.9657C-209.944 111.063 -229.484 117.923 -249.422 119.336C-260.787 120.143 -272.351 119.134 -282.519 113.888C-291.89 109.045 -299.666 99.9657 -301.46 89.4735C-302.457 89.8771 -303.255 90.4824 -304.252 91.0877C-307.442 93.1054 -310.233 95.7285 -312.426 98.5533C-314.221 100.975 -315.816 103.799 -316.813 106.624C-319.006 113.484 -318.208 120.95 -314.021 126.398Z" fill="#D6F9FF"/>
<path d="M167.484 155.244C173.466 154.841 179.646 155.446 185.628 155.446C175.26 160.692 161.104 162.71 150.936 155.446C156.518 156.253 162.101 155.446 167.484 155.244Z" fill="#FEFFFE"/>
<path d="M196.793 146.974C191.609 149.395 185.428 149.597 180.045 147.983C185.628 146.369 190.812 146.369 196.793 146.974Z" fill="#FEFFFE"/>
<path d="M19.1447 158.876C23.9299 159.28 30.3101 161.297 35.6934 163.113C28.5156 164.526 20.9392 162.71 14.7583 158.674C13.1633 158.069 18.3472 158.876 19.1447 158.876Z" fill="#FEFFFE"/>
</svg>
