<svg width="34" height="35" viewBox="0 0 34 35" fill="none" xmlns="http://www.w3.org/2000/svg">
<g clip-path="url(#clip0_3_198)">
<path opacity="0.3" d="M33.9875 15.3601C33.9188 13.8998 33.4503 12.4703 32.632 11.2141L29.2151 6.00371C28.5405 4.97649 27.6535 4.10396 26.6478 3.48515C26.0107 3.08911 25.3298 2.7302 24.6364 2.42079C23.0935 1.72772 21.4132 1.375 19.6454 1.375H14.3546C12.618 1.375 10.9752 1.70916 9.48227 2.3651C8.93257 2.60644 8.39537 2.87871 7.8769 3.16955C6.77127 3.80074 5.8093 4.7104 5.09719 5.81188L1.31178 11.6535C0.455998 12.9715 0 14.4567 0 15.9542V15.979V19.8218C0 22.2847 0.674628 24.729 1.96142 26.8948C2.11134 27.1423 2.29249 27.3899 2.51111 27.6312L5.55319 30.948C5.76557 31.177 5.9842 31.375 6.20908 31.5421C9.23865 33.7698 13.074 34.995 17.0031 34.995H17.0219H17.0406C19.027 34.9889 21.0759 34.5124 22.9623 33.6089L26.0919 32.1176C29.9335 30.2797 32.682 26.9567 33.6315 23.0025C33.8813 21.9629 34.0062 20.8923 34.0062 19.8218V15.979C34 15.7748 34 15.5644 33.9875 15.3601Z" fill="black"/>
<path d="M19.6454 0.742574C21.257 0.742574 22.8561 1.06436 24.3241 1.7203C24.9925 2.02351 25.6359 2.36386 26.248 2.73515C27.1913 3.31683 27.9783 4.10891 28.5842 5.03094L32.0011 10.2413C32.7382 11.3676 33.1754 12.6733 33.2379 14.0161C33.2442 14.2079 33.2504 14.4059 33.2504 14.604V18.4468C33.2504 19.4802 33.1255 20.4889 32.8944 21.4604C31.9886 25.2537 29.3026 28.3911 25.7608 30.0804L22.6313 31.5718C20.8822 32.4072 18.977 32.8775 17.0344 32.8837C17.0219 32.8837 17.0094 32.8837 16.9969 32.8837C13.0615 32.8837 9.46353 31.6399 6.65258 29.573C6.45269 29.4245 6.27154 29.2574 6.10288 29.078L3.06081 25.7611C2.88591 25.5755 2.72974 25.3713 2.59857 25.1485C1.42421 23.1436 0.749587 20.8663 0.749587 18.4468V14.604C0.749587 14.5978 0.749587 14.5854 0.749587 14.5792C0.749587 13.1931 1.18685 11.8441 1.94268 10.6807L5.73434 4.83911C6.37149 3.8552 7.23351 3.02599 8.25795 2.44431C8.75142 2.16584 9.26364 1.90594 9.7946 1.67079C11.2313 1.0396 12.7929 0.742574 14.3608 0.742574H19.6454ZM19.6454 0H14.3546C12.618 0 10.9752 0.334158 9.48227 0.990099C8.93257 1.23144 8.39537 1.50371 7.8769 1.79455C6.77127 2.43193 5.81554 3.34158 5.10344 4.43688L1.31178 10.2847C0.455998 11.5965 0 13.0817 0 14.5792V14.604V18.4468C0 20.9097 0.674628 23.354 1.96142 25.5198C2.11134 25.7673 2.29249 26.0149 2.51111 26.2562L5.55319 29.573C5.76557 29.802 5.9842 30 6.20908 30.1671C9.23865 32.3948 13.074 33.62 17.0031 33.62H17.0219H17.0406C19.027 33.6139 21.0759 33.1374 22.9623 32.2339L26.0919 30.7426C29.9335 28.9047 32.682 25.5817 33.6315 21.6275C33.8813 20.5879 34.0062 19.5173 34.0062 18.4468V14.604C34.0062 14.3936 34 14.1894 33.9938 13.9851C33.925 12.5248 33.4565 11.0953 32.6382 9.83911L29.2214 4.62871C28.5468 3.60149 27.6597 2.72896 26.654 2.11015C26.0169 1.71411 25.336 1.3552 24.6427 1.04579C23.0935 0.352723 21.4132 0 19.6454 0Z" fill="#261301"/>
<path d="M22.6377 31.5738L25.7672 30.0825C29.309 28.3932 31.995 25.2558 32.9008 21.4625C33.1319 20.4909 33.2568 19.4823 33.2568 18.4488V14.606H32.6697C30.7707 8.50454 24.4804 4.01196 17.0033 4.01196C9.52617 4.01196 3.22964 8.50454 1.33693 14.606H0.749756V18.4488C0.749756 20.8684 1.42438 23.1456 2.60498 25.1444C2.73616 25.3672 2.89232 25.5652 3.06723 25.757L6.1093 29.0738C6.27796 29.2533 6.45911 29.4266 6.659 29.5689C9.46995 31.6357 13.0742 32.8795 17.0033 32.8795C17.0158 32.8795 17.0283 32.8795 17.0408 32.8795C18.9835 32.8795 20.8887 32.4092 22.6377 31.5738Z" fill="url(#paint0_linear_3_198)"/>
<path d="M2.59253 25.1158C2.59878 25.122 2.60502 25.1344 2.60502 25.1406C2.7362 25.3633 2.89236 25.5614 3.06727 25.7532L6.10934 29.07C6.278 29.2495 6.45915 29.4227 6.65904 29.5651C6.74024 29.6269 6.82145 29.6826 6.90265 29.7383L7.83964 23.1727L2.81116 20.1096L2.59253 25.1158Z" fill="url(#paint1_linear_3_198)"/>
<path d="M2.81112 20.1131L0.968385 14.6057H0.749756V18.4485C0.749756 20.8557 1.41814 23.1268 2.59249 25.1193L2.81112 20.1131Z" fill="url(#paint2_linear_3_198)"/>
<path d="M32.9008 21.4606C33.1319 20.4891 33.2568 19.4804 33.2568 18.447V14.6042H32.6696C32.3823 13.6759 31.995 12.791 31.514 11.9495L27.991 24.8579L28.4095 27.3826L28.5032 28.348C30.6582 26.5906 32.2449 24.1957 32.9008 21.4606Z" fill="url(#paint3_linear_3_198)"/>
<path d="M27.991 24.8596L18.6086 27.3349L18.8585 31.9574L18.9272 32.7309C20.214 32.5329 21.4633 32.1368 22.6439 31.5737L25.7734 30.0824C26.7292 29.6245 27.6162 29.0675 28.422 28.4178L27.991 24.8596Z" fill="url(#paint4_linear_3_198)"/>
<path d="M33.238 14.0221C33.1755 12.6793 32.7383 11.3798 32.0012 10.2474L28.5843 5.03699C27.9784 4.11496 27.1913 3.32288 26.2481 2.74119C25.6359 2.36372 24.9925 2.02337 24.3242 1.72634C22.8562 1.06421 21.2571 0.742432 19.6455 0.742432H14.3547C12.7868 0.742432 11.2189 1.03946 9.78842 1.67065C9.25746 1.9058 8.74525 2.15951 8.25177 2.44416C7.22733 3.02585 6.37155 3.85506 5.72816 4.83897L1.9365 10.6806C1.18067 11.8439 0.749655 13.1929 0.743408 14.5791C0.743408 14.5853 0.743408 14.5976 0.743408 14.6038C0.743408 16.0395 0.980777 17.4318 1.42428 18.7437C1.73036 19.6533 2.23009 20.4949 2.87973 21.2065L6.92125 25.6125C7.47095 26.2127 8.11434 26.714 8.83894 27.0853C11.2376 28.3229 14.0236 29.0345 16.9969 29.0345C17.4467 29.0345 17.8965 29.0159 18.34 28.985C19.4144 28.9046 20.4638 28.6261 21.4382 28.162L27.1851 25.4145C28.2095 24.9256 29.1465 24.2511 29.8836 23.3909C31.9949 20.9528 33.2505 17.9083 33.2505 14.5976C33.2505 14.412 33.2505 14.214 33.238 14.0221Z" fill="url(#paint5_linear_3_198)"/>
<path d="M33.2506 14.4104C33.2069 17.6468 31.9575 20.6295 29.8899 23.0181C29.1466 23.872 28.2159 24.5527 27.1914 25.0416L21.4446 27.7891C20.4764 28.2532 19.427 28.5317 18.3463 28.6121C17.9028 28.6431 17.4593 28.6616 17.0033 28.6616C14.0299 28.6616 11.244 27.95 8.84529 26.7124C8.12069 26.3411 7.4773 25.8337 6.9276 25.2396L2.88608 20.8337C2.23644 20.122 1.73671 19.2866 1.43063 18.3708C1.01211 17.1332 0.780989 15.8213 0.756002 14.4723C0.756002 14.5156 0.749756 14.5527 0.749756 14.5899C0.749756 14.596 0.749756 14.6084 0.749756 14.6146C0.749756 16.0503 0.987125 17.4426 1.43063 18.7545C1.71173 19.5899 2.15523 20.3634 2.72991 21.0317V22.3312L2.99227 21.3225L6.9276 25.6171C7.00256 25.7037 7.09001 25.778 7.17122 25.8584L7.15248 25.8522V27.9562L7.61472 26.2606C7.99576 26.5762 8.40179 26.8609 8.84529 27.0899C11.244 28.3275 14.0299 29.0391 17.0033 29.0391C17.453 29.0391 17.9028 29.0205 18.3463 28.9896C18.4088 28.9834 18.4712 28.9772 18.5399 28.971L18.8585 31.9537V28.9339C19.7518 28.8163 20.6263 28.5564 21.4446 28.1666L27.1914 25.4191C27.4288 25.3077 27.6599 25.1839 27.8848 25.0478C27.8848 25.0478 27.8848 25.0478 27.8785 25.054C27.9285 25.4191 27.9847 25.7904 28.0535 26.174C28.1284 26.6196 28.2159 27.0527 28.3033 27.4673C28.2783 26.9723 28.2533 26.471 28.2221 25.9698C28.2034 25.6047 28.1784 25.2396 28.1596 24.8745C28.803 24.4661 29.3902 23.971 29.8899 23.3955C32.0013 20.9574 33.2568 17.9129 33.2568 14.6022C33.2506 14.5404 33.2506 14.4723 33.2506 14.4104Z" fill="#C7B299"/>
</g>
<defs>
<linearGradient id="paint0_linear_3_198" x1="17.0017" y1="32.8844" x2="17.0017" y2="4.01499" gradientUnits="userSpaceOnUse">
<stop offset="0.3482" stop-color="#8A4836"/>
<stop offset="0.5209" stop-color="#8F5B43"/>
<stop offset="0.7189" stop-color="#885335"/>
<stop offset="0.8858" stop-color="#9C633E"/>
<stop offset="1" stop-color="#A36841"/>
</linearGradient>
<linearGradient id="paint1_linear_3_198" x1="2.5903" y1="24.9282" x2="7.83771" y2="24.9282" gradientUnits="userSpaceOnUse">
<stop stop-color="#A36841"/>
<stop offset="0.2861" stop-color="#855133"/>
<stop offset="0.7603" stop-color="#582E1F"/>
<stop offset="1" stop-color="#472117"/>
</linearGradient>
<linearGradient id="paint2_linear_3_198" x1="0.749725" y1="19.8641" x2="2.80822" y2="19.8641" gradientUnits="userSpaceOnUse">
<stop stop-color="#824333"/>
<stop offset="0.2175" stop-color="#9F5742"/>
<stop offset="0.4233" stop-color="#8C4F38"/>
<stop offset="0.6245" stop-color="#703D27"/>
<stop offset="0.8214" stop-color="#AE7453"/>
<stop offset="1" stop-color="#A36841"/>
</linearGradient>
<linearGradient id="paint3_linear_3_198" x1="30.6207" y1="28.3452" x2="30.6207" y2="11.9496" gradientUnits="userSpaceOnUse">
<stop stop-color="#AC5D48"/>
<stop offset="0.3601" stop-color="#99624B"/>
<stop offset="1" stop-color="#A36841"/>
</linearGradient>
<linearGradient id="paint4_linear_3_198" x1="18.606" y1="28.7942" x2="28.4159" y2="28.7942" gradientUnits="userSpaceOnUse">
<stop stop-color="#924935"/>
<stop offset="0.1953" stop-color="#794739"/>
<stop offset="0.4105" stop-color="#87513C"/>
<stop offset="0.6352" stop-color="#9A6145"/>
<stop offset="0.8649" stop-color="#A5623B"/>
<stop offset="1" stop-color="#A36841"/>
</linearGradient>
<linearGradient id="paint5_linear_3_198" x1="17.0015" y1="29.0404" x2="17.0015" y2="0.742452" gradientUnits="userSpaceOnUse">
<stop offset="0.2277" stop-color="#A7604F"/>
<stop offset="0.5752" stop-color="#7D523D"/>
<stop offset="1" stop-color="#A36841"/>
</linearGradient>
<clipPath id="clip0_3_198">
<rect width="34" height="35" fill="white"/>
</clipPath>
</defs>
</svg>
