<svg width="902" height="372" viewBox="0 0 902 372" fill="none" xmlns="http://www.w3.org/2000/svg">
<path d="M225.309 21.6607C222.726 21.3645 177.845 16.0326 177.845 16.0326C140.391 14.2554 121.986 13.0705 84.8548 10.1084C52.5665 6.85004 36.4223 4.77655 4.45687 0.925781C3.48822 26.9925 2.84246 40.0259 1.87381 66.0927C4.13399 67.5737 5.10263 68.1661 7.36282 69.351C7.03993 77.3487 6.71705 81.4957 6.39417 89.4935C9.623 92.4556 11.2374 93.6405 14.1434 96.6026C13.1747 119.707 12.5289 131.556 11.2374 154.957C13.1747 157.03 14.1434 158.215 15.7578 160.288C15.7578 164.139 15.4349 166.213 15.4349 170.063C11.8832 172.729 10.2688 173.914 6.71706 176.876C5.74841 178.95 5.10263 180.135 4.13398 182.208C3.8111 199.685 3.48822 208.275 3.16534 225.455C2.84245 226.64 2.84245 227.233 2.51957 228.417C1.8738 241.451 1.55092 247.967 0.905151 261.297C3.8111 264.259 5.10264 266.036 7.68571 268.999C11.2374 270.183 12.8518 271.072 16.4036 272.257C14.4663 274.923 13.8205 276.108 11.8832 278.774C9.623 299.212 8.33147 309.284 5.7484 330.018C11.8832 334.462 15.112 336.535 21.2468 340.978C13.8205 344.237 10.2688 345.718 2.84246 349.272C4.77976 356.678 5.74841 360.528 7.68571 367.934C15.4349 369.415 19.3095 370.007 27.3816 371.488C153.952 357.566 279.553 349.569 407.738 346.903C567.242 345.125 722.872 352.531 880.439 368.822C886.897 367.341 890.126 366.453 896.583 364.972C895.292 335.943 894.969 321.428 893.677 292.399C890.448 283.513 888.834 279.07 885.605 270.183C883.022 268.406 881.731 267.518 879.148 265.74C881.731 264.555 883.022 263.963 885.928 262.778C885.282 250.93 884.959 245.005 884.314 233.157C886.897 226.64 887.865 223.382 890.448 216.569C890.448 216.569 883.991 178.357 880.439 178.95C876.887 179.542 892.063 174.21 892.063 174.21C892.063 174.21 890.448 158.511 893.031 157.326C895.615 156.141 900.781 152.587 900.781 152.587C900.135 127.409 899.812 114.968 899.166 89.7897C890.125 89.4935 885.605 89.1973 876.564 88.9011C873.336 87.1238 871.721 86.5314 868.815 84.7541C869.138 79.126 869.461 76.1639 869.784 70.5359C873.336 66.0927 874.95 64.0192 878.502 59.576C877.21 38.8411 876.241 28.4736 874.95 7.73868C869.784 5.66519 867.201 4.77655 861.712 2.99927C746.12 15.7364 628.913 22.8455 511.706 24.0304C505.249 25.8077 502.02 26.4001 495.885 28.1774C430.663 28.4736 398.052 27.8812 333.152 25.2153C289.886 24.6228 268.252 23.7342 225.309 21.6607Z" fill="#9E8952"/>
<path d="M433.569 329.418C296.99 332.38 162.67 341.563 28.0278 356.966C28.0278 362.594 27.705 365.556 27.705 371.184C154.275 357.262 279.877 349.264 408.061 346.598C567.566 344.821 723.195 352.226 880.762 368.518C881.085 363.482 881.085 360.817 881.408 355.781C732.559 339.489 584.678 330.899 433.569 329.418Z" fill="#855D2F"/>
<path d="M890.771 216.572C890.771 216.572 886.897 194.652 883.668 184.285C882.376 182.211 881.731 181.027 880.762 178.953C863.003 194.356 853.963 202.058 836.204 216.868C835.881 223.978 835.558 227.532 835.235 234.641C851.38 245.305 859.452 250.637 875.919 261.597C880.116 262.189 882.376 262.485 886.574 262.781C885.928 250.933 885.605 245.009 884.959 233.16C887.22 226.643 888.511 223.385 890.771 216.572Z" fill="#855D2F"/>
<path d="M885.928 270.18C885.928 270.18 885.928 294.173 880.762 296.543C875.595 298.912 860.42 302.467 860.42 302.467C863.003 309.28 864.617 312.538 867.2 319.351C875.595 331.792 879.47 338.309 887.865 351.046C891.417 356.674 893.354 359.34 896.906 364.968C895.614 335.939 895.291 321.425 894 292.396C890.771 283.213 889.157 279.066 885.928 270.18Z" fill="#855D2F"/>
<path d="M116.821 325.279C111.009 321.132 108.103 319.059 102.291 314.912C86.4696 308.988 78.3975 306.025 62.5762 300.101C45.4634 289.141 36.7456 283.513 19.6328 271.961C16.4039 274.923 14.7895 276.404 11.8836 279.366C9.62337 299.509 8.33184 309.876 6.07166 330.019C12.2064 334.462 15.4353 336.535 21.57 340.979C58.3787 336.832 76.4602 335.054 113.592 331.5C114.883 329.13 115.529 327.649 116.821 325.279Z" fill="#855D2F"/>
<path d="M225.309 21.6607C222.726 21.3645 177.845 16.0326 177.845 16.0326C140.391 14.2554 121.986 13.0705 84.8549 10.1084C52.5666 6.85004 36.4224 4.77655 4.45696 0.925781C3.48831 26.9925 2.84255 40.0259 1.8739 66.0927C5.10273 67.2775 6.71714 67.8699 9.62309 69.0548C9.62309 77.3487 9.62309 81.4957 9.62309 89.7897C69.0336 93.6405 128.444 96.8988 188.178 99.2685C132.642 98.6761 77.4286 97.7874 21.8927 96.3064C20.924 119.707 20.2782 131.556 19.3096 154.957C23.5071 155.549 25.4444 155.845 29.6419 156.438C25.4444 157.622 23.1842 158.215 19.3096 159.104C19.3096 163.843 19.3096 166.213 19.3096 170.952C92.927 173.618 166.867 175.988 240.807 178.061C162.993 177.765 85.1778 177.173 7.04003 176.876C6.07138 178.95 5.42561 180.135 4.45696 182.208C4.13408 199.685 3.8112 208.275 3.48832 225.455C10.5917 225.751 13.8206 225.751 20.924 226.048C14.1435 226.936 10.9146 227.529 4.45696 228.417C5.10273 241.451 5.42561 247.967 6.07138 261.001C8.65445 263.371 9.62309 264.259 12.2062 266.629C75.8142 263.371 139.745 260.408 203.353 258.039C142.005 261.889 80.9803 266.333 19.9554 271.961C18.0181 274.33 16.7265 275.811 14.7892 278.181C15.435 299.212 15.7579 309.58 16.4036 330.611C22.5384 333.277 25.7673 334.462 32.2249 337.128C64.8361 334.758 80.9803 333.573 113.591 331.796C82.5947 335.054 67.4192 336.831 36.4224 340.682C30.6105 340.978 27.3817 340.978 21.5698 340.978C17.6952 342.459 15.7579 343.348 11.8833 344.829C12.529 349.272 12.8519 351.346 13.4977 355.789C18.9867 356.678 21.8927 356.974 27.3817 357.566C153.952 344.829 279.876 337.424 407.738 334.758C566.92 333.277 722.872 339.793 880.439 354.9C883.345 353.123 884.637 352.234 887.543 350.457C887.22 333.277 886.897 324.687 886.574 307.802C879.793 306.914 876.565 306.321 870.107 305.433C875.919 304.84 879.148 304.544 884.96 303.655C884.314 290.03 883.991 283.217 883.345 269.591C824.58 266.333 765.816 263.667 706.728 261.889C761.941 262.186 816.831 263.074 872.044 264.555C873.336 263.371 873.982 262.482 875.596 261.297C876.242 251.522 876.565 246.486 877.21 236.711C864.295 236.119 857.837 235.823 844.922 234.934C857.514 234.045 863.972 233.453 876.565 232.564C878.825 226.048 879.793 222.789 881.731 215.976C881.731 215.976 881.408 178.357 878.179 178.654C794.875 186.355 690.907 181.32 597.271 182.208C695.427 179.838 793.906 177.173 892.063 173.914C892.063 173.914 890.449 158.215 893.032 157.03C895.615 155.845 900.781 152.291 900.781 152.291C900.135 127.113 899.812 114.672 899.166 89.4935C890.126 89.1973 885.605 88.9011 876.565 88.6048C801.656 94.8253 726.424 99.5647 650.869 103.119C723.841 98.3799 796.49 92.1594 868.815 84.4579C869.138 78.8298 869.461 75.8677 869.784 70.2396C873.336 65.7964 874.95 63.7229 878.502 59.2798C877.21 38.5448 876.242 28.1774 874.95 7.44247C869.784 5.36898 867.201 4.48034 861.712 2.70306C746.12 15.4402 628.913 22.5493 511.706 23.7342C505.249 25.5115 502.02 26.1039 495.885 27.8812C430.663 28.1774 398.052 27.585 333.152 24.919C289.886 24.6228 268.253 23.7342 225.309 21.6607Z" fill="url(#paint0_linear_208_4)"/>
<mask id="mask0_208_4" style="mask-type:luminance" maskUnits="userSpaceOnUse" x="1" y="0" width="900" height="358">
<path d="M225.31 21.6646C222.727 21.3684 177.846 16.0366 177.846 16.0366C140.391 14.2593 121.987 13.0744 84.8554 10.1123C52.567 6.85395 36.4229 4.78046 4.45745 0.929688C3.4888 26.9964 2.84304 40.0298 1.87439 66.0966C5.10322 67.2814 6.71763 67.8738 9.62358 69.0587C9.62358 77.3526 9.62358 81.4996 9.62358 89.7936C69.0341 93.6444 128.445 96.9027 188.178 99.2724C132.642 98.68 77.4291 97.7914 21.8931 96.3103C20.9245 119.711 20.2787 131.56 19.3101 154.96C23.5076 155.553 25.4449 155.849 29.6423 156.442C25.4449 157.626 23.1847 158.219 19.3101 159.107C19.3101 163.847 19.3101 166.217 19.3101 170.956C92.9275 173.622 166.868 175.992 240.808 178.065C162.993 177.769 85.1783 177.176 7.04052 176.88C6.07187 178.954 5.4261 180.139 4.45745 182.212C4.13457 199.689 3.81169 208.279 3.48881 225.459C10.5922 225.755 13.8211 225.755 20.9245 226.052C14.1439 226.94 10.9151 227.533 4.45745 228.421C5.10322 241.455 5.4261 247.971 6.07187 261.005C8.65493 263.374 9.62358 264.263 12.2066 266.633C75.8146 263.374 139.746 260.412 203.354 258.043C142.006 261.893 80.9808 266.337 19.9558 271.965C18.0185 274.334 16.727 275.815 14.7897 278.185C15.4355 299.216 15.7584 309.584 16.4041 330.615C22.5389 333.281 25.7677 334.466 32.2254 337.131C64.8366 334.762 80.9808 333.577 113.592 331.8C82.5952 335.058 67.4197 336.835 36.4229 340.686C30.611 340.982 27.3822 340.982 21.5703 340.982C17.6957 342.463 15.7584 343.352 11.8838 344.833C12.5295 349.276 12.8524 351.35 13.4982 355.793C18.9872 356.682 21.8931 356.978 27.3822 357.57C153.952 344.833 279.877 337.428 407.739 334.762C566.92 333.281 722.873 339.797 880.44 354.904C883.346 353.127 884.637 352.238 887.543 350.461C887.22 333.281 886.897 324.691 886.574 307.806C879.794 306.918 876.565 306.325 870.107 305.437C875.919 304.844 879.148 304.548 884.96 303.659C884.314 290.034 883.991 283.221 883.346 269.595C824.581 266.337 765.816 263.671 706.729 261.893C761.942 262.19 816.832 263.078 872.045 264.559C873.336 263.374 873.982 262.486 875.596 261.301C876.242 251.526 876.565 246.49 877.211 236.715C864.296 236.123 857.838 235.827 844.922 234.938C857.515 234.049 863.973 233.457 876.565 232.568C878.825 226.052 879.794 222.793 881.731 215.98C881.731 215.98 881.408 178.361 878.179 178.658C794.876 186.359 690.907 181.323 597.271 182.212C695.428 179.842 793.907 177.176 892.063 173.918C892.063 173.918 890.449 158.219 893.032 157.034C895.615 155.849 900.781 152.295 900.781 152.295C900.135 127.116 899.813 114.675 899.167 89.4974C890.126 89.2012 885.606 88.905 876.565 88.6087C801.656 94.8292 726.424 99.5686 650.87 103.123C723.841 98.3838 796.49 92.1633 868.816 84.4618C869.139 78.8337 869.462 75.8716 869.785 70.2435C873.336 65.8003 874.951 63.7269 878.502 59.2837C877.211 38.5487 876.242 28.1813 874.951 7.44637C869.784 5.37288 867.201 4.48424 861.712 2.70697C746.12 15.4441 628.914 22.5532 511.707 23.7381C505.249 25.5154 502.021 26.1078 495.886 27.8851C430.663 28.1813 398.052 27.5889 333.153 24.9229C289.886 24.6267 268.253 23.7381 225.31 21.6646Z" fill="white"/>
</mask>
<g mask="url(#mask0_208_4)">
<path opacity="0.3" d="M-19.436 327.942C84.2095 300.098 192.053 288.25 301.833 281.733C440.027 277.29 580.481 281.733 717.061 296.84C715.769 298.025 715.123 298.617 713.832 300.098C494.594 287.065 237.902 280.845 30.6109 342.161C31.2567 342.161 -24.925 344.53 -19.436 327.942Z" fill="#C1944F"/>
<path opacity="0.3" d="M275.357 360.827C399.021 332.983 533.018 312.841 662.817 316.395C718.676 318.765 774.211 321.431 829.747 324.393C726.102 321.431 615.03 316.691 512.676 331.502C481.356 339.204 461.015 347.498 461.015 347.498C399.344 351.645 337.673 358.754 275.357 360.827Z" fill="#855D2F"/>
<path opacity="0.4" d="M576.929 357.263C576.929 357.263 659.264 342.749 709.957 343.045C776.471 342.749 842.985 342.453 909.822 343.045C912.082 357.856 913.373 365.261 915.634 380.072C802.947 369.112 688.97 368.223 576.929 357.263Z" fill="#C6803E"/>
<path opacity="0.3" d="M385.137 200.574C334.121 202.647 292.146 209.164 291.501 215.088C290.855 221.013 331.861 223.678 382.876 221.605C433.246 219.531 474.575 213.311 475.221 207.387C475.544 201.759 435.506 198.5 385.137 200.574ZM416.133 213.903C394.823 214.792 377.387 213.903 377.71 211.534C378.033 209.46 395.469 206.794 417.102 205.906C438.412 205.017 455.525 206.202 455.202 208.275C455.202 210.645 437.767 213.311 416.133 213.903Z" fill="#C6803E"/>
<path opacity="0.5" d="M914.343 210.046C842.986 206.788 771.306 204.715 700.271 199.679C610.51 191.385 519.78 183.387 429.372 181.906C352.526 183.387 272.128 195.828 200.125 214.786C168.16 225.45 173.003 241.149 225.633 242.63C314.426 243.815 408.385 239.964 494.918 226.042C497.501 225.45 543.673 224.265 560.463 218.933C576.93 213.601 599.855 207.973 606.635 207.084C661.848 207.677 716.738 210.935 771.306 215.378C824.581 220.118 909.822 221.895 909.822 221.895C911.76 217.156 912.728 214.786 914.343 210.046ZM576.284 201.16C568.535 203.234 541.736 202.641 528.497 203.234C515.259 203.826 522.685 209.75 525.914 212.416C529.143 214.786 517.842 216.267 507.833 218.044C497.823 219.822 480.065 221.895 464.566 224.857C455.526 226.634 430.018 228.708 390.626 229.3C350.912 230.189 231.768 230.189 246.297 219.525C261.15 209.158 315.072 200.864 369.962 193.459C429.049 187.238 489.751 189.015 549.162 193.162C576.93 195.532 583.71 199.087 576.284 201.16Z" fill="#C1944F"/>
<path opacity="0.4" d="M958.577 322.312C875.919 306.909 791.97 294.468 707.374 287.359C639.892 282.323 607.603 278.473 607.603 278.473C693.167 281.731 778.409 287.951 863.65 292.098C890.449 292.395 960.838 302.762 975.044 309.575C989.574 316.388 958.577 322.312 958.577 322.312Z" fill="#C6803E"/>
<path opacity="0.4" d="M64.1909 379.184C149.109 357.561 237.256 340.084 326.049 329.42C396.761 321.423 429.695 316.683 429.695 316.683C338.965 322.904 249.203 332.975 159.119 343.046C130.382 345.416 56.7646 361.412 42.8806 368.817C29.3195 376.815 64.1909 379.184 64.1909 379.184Z" fill="#C6803E"/>
<path opacity="0.4" d="M18.3417 284.987C80.981 279.656 142.975 271.954 205.937 268.103C306.353 261.29 406.447 254.478 507.187 249.738C404.51 249.442 301.51 250.627 199.156 255.07C138.454 254.478 67.4199 255.366 18.3417 284.987Z" fill="#C1944F"/>
<path d="M24.1537 255.657C24.1537 255.657 77.7523 231.664 129.414 219.223C180.429 206.782 221.758 196.711 228.539 196.711C235.319 196.711 109.395 211.818 78.0752 222.481C46.7555 233.145 0.906128 250.622 0.906128 250.622C0.906128 250.622 12.207 257.435 24.1537 255.657Z" fill="#C1944F"/>
<path opacity="0.5" d="M914.342 146.665C876.565 139.556 810.051 136.89 805.208 137.186C800.365 137.778 657.973 131.262 657.973 131.262C555.942 138.075 452.619 140.741 351.234 151.108C314.425 156.736 268.899 156.44 196.25 151.7C120.05 146.961 43.5264 143.999 -32.674 140.148C-32.674 140.148 -50.7555 148.146 -41.069 170.658C-31.3825 193.17 -30.4138 212.128 -10.718 218.941C44.8179 203.538 101.322 189.912 159.119 179.841C214.977 172.732 272.451 170.066 329.278 170.066C402.25 171.25 475.544 170.954 548.516 170.954C634.08 172.732 720.29 173.324 805.531 179.544C856.869 184.58 937.59 188.431 937.59 188.431C940.173 186.357 941.465 185.173 944.371 183.099C949.214 173.62 951.474 168.585 956.317 158.81C955.994 158.513 951.797 153.478 914.342 146.665ZM691.876 162.957C611.801 159.402 531.08 159.698 451.005 158.81C506.541 154.366 562.077 149.331 617.613 145.776C655.067 143.999 711.572 149.627 765.816 151.997C819.415 154.366 924.998 172.732 924.998 172.732C847.183 169.769 769.368 167.4 691.876 162.957Z" fill="#C1944F"/>
<path d="M-4.26067 93.6338C60.9617 98.3732 129.09 102.816 194.635 96.5959C261.795 87.4133 328.955 76.4534 396.76 69.9367C445.839 66.3821 498.469 64.9011 538.183 66.9746C656.036 69.9367 799.719 69.0481 910.467 37.3533C910.467 37.3533 889.803 37.3533 876.888 34.9836C782.283 48.3132 685.418 58.0882 588.876 59.273C484.262 59.5692 378.679 52.1639 275.679 39.4268C179.46 29.9479 80.3347 30.5404 -16.5302 28.1707C-44.944 27.8744 -36.549 37.6495 -36.549 37.6495C46.1091 42.3889 129.09 46.2397 212.071 45.6472C239.193 44.7586 329.601 43.5737 304.739 57.1995C250.494 77.342 183.012 81.1928 122.955 81.7852C69.6796 81.7852 8.65466 77.342 8.65466 77.342C3.48853 83.8587 0.905464 87.1171 -4.26067 93.6338Z" fill="#C1944F"/>
<path opacity="0.5" d="M141.037 -8.85156C242.745 16.6228 350.911 37.3577 458.754 42.3933C528.497 44.763 599.208 45.0592 668.951 40.9122C741.6 34.3955 813.925 28.1751 886.251 18.9925C801.656 28.4713 716.415 35.2842 630.851 38.5425C613.092 38.8387 581.127 30.2486 540.121 26.1016C498.792 22.2508 409.03 6.55152 409.03 6.55152C386.428 5.95909 375.45 5.66288 352.848 4.47803C352.848 4.47803 377.71 14.8455 402.249 17.2152C426.789 19.8811 480.71 26.1016 484.908 26.3978C489.105 26.694 534.954 35.2842 534.954 35.2842C534.954 35.2842 542.704 37.6539 486.845 37.3577C399.989 35.5804 306.03 22.8432 225.632 -1.74245C192.053 -3.81594 174.94 -5.29701 141.037 -8.85156Z" fill="#C6803E"/>
<path opacity="0.3" d="M-15.2384 110.523C62.8994 114.67 144.266 119.706 221.758 111.116C320.56 97.4897 422.268 92.1579 522.039 84.7526C572.409 81.4942 624.07 81.198 601.791 86.8261C579.512 92.4541 496.854 91.2693 533.663 101.044C592.751 112.893 659.265 112.893 719.967 110.227C780.669 104.303 851.38 94.8238 900.136 66.6836C910.468 69.3495 915.634 70.5344 925.966 73.2003C864.941 95.12 798.427 114.67 730.299 120.002C656.682 122.668 575.315 121.779 503.958 107.265C479.096 99.5632 467.472 96.8973 390.626 104.895C295.698 114.374 198.833 122.668 102.937 123.26C53.2129 122.372 -27.5079 122.075 -27.5079 122.075C-22.6647 117.336 -20.0816 114.966 -15.2384 110.523Z" fill="#C6803E"/>
<path d="M382.23 263.069C550.775 253.591 736.433 239.669 903.687 261.292C900.135 263.662 898.198 264.847 894.646 267.216C820.706 262.181 745.474 257.441 670.888 258.922C574.669 260.996 478.45 260.7 382.23 263.069Z" fill="#C1944F"/>
<path opacity="0.5" d="M593.396 239.073C701.885 239.962 812.311 244.109 919.831 254.773C926.289 250.626 929.518 248.552 936.298 244.405C936.298 244.405 861.067 237.296 821.029 238.481C745.151 239.37 669.274 238.777 593.396 239.073Z" fill="#855D2F"/>
</g>
<g opacity="0.3">
<path d="M881.731 216.568C881.731 216.568 881.731 178.653 878.179 179.245C876.887 179.541 841.047 180.134 795.198 180.726C800.041 182.503 811.342 184.577 817.8 185.169C830.392 186.354 855.254 193.167 855.254 199.684C855.254 206.2 847.828 218.345 846.536 226.935C845.245 235.526 837.173 244.116 842.985 244.412C848.474 244.708 862.68 245.301 846.536 251.521C830.715 257.742 734.819 262.481 729.007 262.481C786.48 263.073 815.217 263.37 872.044 264.851C873.336 263.666 873.981 262.777 875.596 261.592C876.242 251.817 876.564 246.782 877.21 237.007C864.295 236.414 857.837 236.118 844.922 235.229C857.514 234.341 863.972 233.748 876.564 232.86C878.825 226.343 879.793 223.085 881.731 216.568Z" fill="#C1944F"/>
<path d="M841.047 19.293C841.047 19.293 842.661 16.9233 844.599 36.1772C846.536 55.431 857.191 66.6871 846.536 72.019C835.881 77.0546 858.16 71.4265 835.881 77.0546C783.574 90.6804 720.935 96.6047 662.816 103.121C731.59 98.3819 800.364 92.4577 868.815 85.3486C869.138 79.7205 869.461 76.7584 869.784 71.1303C873.335 66.6871 874.95 64.6136 878.501 60.1704C877.21 39.4355 876.241 29.0681 874.95 8.33316C869.784 6.25967 867.201 5.37103 861.712 3.59375C746.119 16.3309 628.913 23.44 511.706 24.6249C505.249 26.4022 502.02 26.9946 495.885 28.7719C482.97 28.7719 476.512 28.7719 463.597 28.7719C590.167 30.2529 715.123 27.2908 841.047 19.293Z" fill="#C1944F"/>
<path d="M178.168 344.237C254.368 338.905 331.214 335.943 408.061 335.055C567.242 333.574 723.195 340.09 880.762 355.197C883.668 353.42 884.959 352.531 887.865 350.754C887.542 333.574 887.219 324.983 886.897 308.099C880.116 307.211 876.887 306.618 870.429 305.73C876.241 305.137 879.47 304.841 885.282 303.952C884.636 290.326 884.313 283.514 883.668 269.888C826.517 266.629 797.781 265.445 740.308 263.371C768.398 265.741 839.11 272.257 844.922 277.293C852.025 283.81 860.42 314.024 855.577 318.763C833.944 340.979 665.722 328.538 587.584 330.019C451.004 332.685 314.425 334.462 178.168 344.237Z" fill="#C1944F"/>
<path d="M876.564 89.1953C851.38 91.2688 838.464 92.4537 813.279 94.2309C831.038 93.3423 844.599 93.3423 849.765 94.2309C871.398 98.0817 876.565 97.7855 873.013 106.968C869.461 116.151 865.909 130.665 865.909 137.478C865.909 144.291 866.232 148.734 862.358 156.436C861.389 158.213 861.389 159.102 861.712 159.398C860.097 159.398 856.546 159.99 847.828 162.656C823.612 170.358 825.872 176.578 801.979 177.467C838.141 176.282 856.223 175.986 892.386 174.505C892.386 174.505 890.771 158.805 893.354 157.621C895.937 156.436 901.104 152.881 901.104 152.881C900.458 127.703 900.135 115.262 899.489 90.084C890.126 89.7877 885.605 89.4915 876.564 89.1953Z" fill="#C1944F"/>
</g>
<path d="M19.9551 271.958C16.7263 269.884 15.1119 268.699 12.2059 266.626C73.5537 263.071 134.902 260.406 196.249 258.332C137.162 261.887 78.397 266.33 19.9551 271.958Z" fill="#855D2F"/>
<path d="M6.71765 176.582C82.2723 177.175 158.15 177.471 233.705 177.767C162.024 175.694 90.3444 173.324 18.6643 170.658C17.3728 170.362 16.4041 170.066 15.1126 169.77C11.8838 172.435 10.2694 173.917 6.71765 176.582Z" fill="#855D2F"/>
<path d="M5.74808 260.711C8.33115 263.081 9.2998 263.969 11.8829 266.339C73.2307 262.784 134.578 260.119 195.926 258.045C136.516 258.934 76.7824 260.415 17.3719 262.192C17.3719 262.192 13.1744 258.341 10.9142 256.86C8.65404 255.675 6.71674 230.793 6.71674 230.793C12.2058 228.72 15.1117 227.831 20.6007 225.758C13.8202 226.646 10.5913 227.239 4.13367 228.128C4.77943 241.161 5.10232 247.678 5.74808 260.711Z" fill="#7B7B7B" fill-opacity="0.17"/>
<path d="M863.972 90.3841C874.304 93.9386 879.47 95.7159 889.803 99.2705C889.803 99.2705 894.646 141.333 893.677 143.702C892.709 146.072 889.48 154.07 887.865 156.736C886.251 159.402 886.897 169.177 886.897 169.177C863.649 172.139 852.348 173.62 829.101 176.582C854.608 175.693 867.201 175.397 892.386 174.509C892.386 174.509 890.771 158.809 893.354 157.624C895.937 156.44 901.104 152.885 901.104 152.885C900.458 127.707 900.135 115.266 899.489 90.0879C890.448 89.7917 885.928 89.4954 876.887 89.1992C871.398 89.4954 868.815 89.7916 863.972 90.3841Z" fill="#7B7B7B" fill-opacity="0.17"/>
<path d="M7.68529 222.493C7.68529 222.493 8.97682 183.393 9.94547 182.801C40.9423 168.879 156.212 178.061 227.892 177.765C230.798 177.765 157.826 177.469 95.5095 177.173C94.5409 177.173 93.8951 177.173 92.9265 177.173C89.0518 177.173 85.1773 177.173 81.6255 177.173C53.2118 176.877 39.005 176.877 10.5912 176.58C8.65393 176.877 8.00817 177.173 6.07087 177.469C5.10222 179.246 4.77933 180.135 4.13356 181.616C3.81068 199.093 3.4878 207.683 3.16492 224.863C10.2683 225.159 13.4972 225.159 20.6006 225.455C15.4345 224.567 12.8514 223.974 7.68529 222.493Z" fill="#7B7B7B" fill-opacity="0.17"/>
<path d="M18.6638 352.825C18.0181 351.344 17.6952 350.751 17.0494 349.27C18.6638 347.493 19.6325 346.604 21.2469 345.123C21.2469 345.123 26.4131 344.531 30.9334 344.531C35.1309 344.531 113.269 332.09 113.269 332.09C82.2719 335.348 67.0963 337.125 36.0995 340.976C30.2876 341.272 27.0588 341.272 21.2469 341.272C17.3723 342.754 15.435 343.642 11.5604 345.123C12.2062 349.566 12.5291 351.64 13.1748 356.083C18.6639 356.972 21.5698 357.268 27.0588 357.86C153.629 345.123 279.553 337.718 407.415 335.052C566.597 333.571 722.549 340.088 880.116 355.195C883.022 353.417 884.314 352.529 887.22 350.751C886.897 333.571 886.574 324.981 886.251 308.097C879.471 307.208 876.242 306.616 869.784 305.727C875.596 305.134 878.825 304.838 884.637 303.95C883.991 290.324 883.668 283.511 883.022 269.885C824.258 266.627 765.493 263.961 706.405 262.184C764.201 264.85 821.674 268.404 879.148 272.551C880.116 284.103 880.439 290.028 881.408 301.58C874.304 303.357 870.753 304.246 863.972 306.023C870.753 307.8 874.304 308.689 881.085 310.466C881.085 310.466 882.054 341.865 881.731 344.235C881.085 346.604 877.533 352.232 877.533 352.232C768.722 340.384 658.295 333.275 548.515 331.794C377.064 329.424 205.613 335.348 35.7767 353.713C28.9961 353.121 25.4444 353.121 18.6638 352.825Z" fill="#7B7B7B" fill-opacity="0.17"/>
<path d="M21.892 327.348C20.9234 311.648 20.2776 303.651 19.3089 287.655C19.3089 287.655 21.5691 277.584 24.1522 276.103C26.4124 274.918 146.848 262.181 184.625 259.219C129.412 262.773 74.522 266.92 19.6318 272.252C17.6945 274.622 16.403 276.103 14.4657 278.473C15.1115 299.504 15.4343 309.871 16.0801 330.902C22.2149 333.568 25.4437 334.753 31.9014 337.419C64.5126 335.049 80.6568 333.864 113.268 332.087C81.3025 332.383 65.4812 332.68 33.5158 333.568C28.9954 330.606 26.7353 329.421 21.892 327.348Z" fill="#7B7B7B" fill-opacity="0.17"/>
<path d="M875.595 261.596C876.241 251.821 876.564 246.785 877.21 237.01C864.294 236.418 857.837 236.121 844.921 235.233C857.514 234.344 863.971 233.752 876.564 232.863C878.824 226.346 879.793 223.088 881.73 216.275C881.73 216.275 881.73 178.36 878.178 178.952C876.887 179.248 841.047 179.841 795.197 180.433C825.548 181.322 840.724 181.618 871.398 182.507C873.658 194.948 874.95 201.464 877.21 214.202C877.21 214.202 873.335 227.235 871.721 228.42C870.106 229.605 834.912 234.64 834.912 234.64C849.442 236.418 856.868 237.306 871.721 239.38C871.721 239.38 870.752 260.707 870.106 261.003C850.733 270.482 761.295 261.892 706.727 262.484C761.94 262.78 816.831 263.669 872.044 265.15C873.658 263.373 874.304 262.78 875.595 261.596Z" fill="#7B7B7B" fill-opacity="0.17"/>
<path d="M675.991 352.726L702.55 354.124L764.057 358.162L827.42 363.455L880.715 368.651L896.748 364.494L894.224 292.643L885.911 270.375L879.082 265.921L886.801 262.507L885.02 233.261L890.958 216.486L884.129 184.717L881.457 179.373H880.269V178.631L891.7 174.474V160.52L893.036 157.402L901.053 152.8L899.42 89.7075L876.152 88.9338L868.264 85.1359L869.725 71.113L878.782 59.4272L874.107 6.54887L860.961 2.75098L811.296 8.0096L739.136 14.1446L676.325 18.2347L599.783 21.7404L510.678 23.7854L495.779 28.4598H452.542L321.953 25.2462L197.499 18.2344L5.55918 1H4.39352L3.54502 30.2657L2.90887 48.1522L2.20197 66.4629L7.85767 69.715L6.65581 89.3689L14.6446 96.8629L12.3823 140.908L11.4632 155.118L16.1293 160.279L15.7051 169.611L7.36279 176.539L4.32279 182.336V198.88L3.19163 225.179L2.41395 229.845L1 259.892L7.64551 269.012L16.412 272.264L12.3116 278.697L10.1199 295.665L6.01947 329.599L21.5729 340.982L2.97947 349.253L7.999 367.918L27.7943 371.452L48.8622 369.049L82.4436 365.797L226.48 354.182M343.765 348.623L394.215 347.094M509.414 346.824L559.165 347.903" stroke="black"/>
<defs>
<linearGradient id="paint0_linear_208_4" x1="451.266" y1="355.796" x2="451.266" y2="-16.1088" gradientUnits="userSpaceOnUse">
<stop stop-color="#EBCB8A"/>
<stop offset="1" stop-color="#D7A456"/>
</linearGradient>
</defs>
</svg>
