<svg width="14" height="12" viewBox="0 0 14 12" fill="none" xmlns="http://www.w3.org/2000/svg">
<path d="M13.4979 1.11992C13.4979 1.15916 13.4979 1.1984 13.4979 1.23764L11.937 10.5763C11.897 10.8118 11.7369 11.0472 11.5368 11.1649C11.2166 11.3611 10.8564 11.3611 10.5362 11.1649L6.21379 8.26128C5.89361 8.06509 5.85359 7.59423 6.13375 7.3588L10.136 3.59193C10.216 3.51345 10.216 3.39574 10.176 3.31726C10.096 3.19955 9.93589 3.16031 9.81582 3.23878L4.49283 6.69175C3.89249 7.08413 3.17208 7.16261 2.4917 6.96642L0.490574 6.3386C0.290462 6.26013 0.130371 6.06394 0.130371 5.86775C0.130371 5.75003 0.170394 5.67155 0.210416 5.59308C0.250439 5.5146 0.330484 5.43612 0.450552 5.39689L12.4573 0.374394C12.7775 0.25668 13.1377 0.335156 13.3378 0.570585C13.4178 0.727538 13.4979 0.923729 13.4979 1.11992Z" fill="#FFC331"/>
</svg>
