<svg width="37" height="36" viewBox="0 0 37 36" fill="none" xmlns="http://www.w3.org/2000/svg">
<mask id="mask0_2001_7226" style="mask-type:alpha" maskUnits="userSpaceOnUse" x="0" y="0" width="37" height="36">
<path d="M13.0686 0H23.1486V9.27048L31.1769 4.63535L36.2169 13.3649L28.1882 18.0003L36.2169 22.6357L31.1769 31.3652L23.1486 26.7301V36H13.0686V26.7296L5.04 31.3649L0 22.6354L8.02816 18.0003L1.8978e-06 13.3652L5.04 4.6357L13.0686 9.27103V0Z" fill="#FF0000"/>
</mask>
<g mask="url(#mask0_2001_7226)">
<path d="M13.0686 0H23.1486V9.27048L31.1769 4.63535L36.2169 13.3649L28.1882 18.0003L36.2169 22.6357L31.1769 31.3652L23.1486 26.7301V36H13.0686V26.7296L5.04 31.3649L0 22.6354L8.02816 18.0003L1.8978e-06 13.3652L5.04 4.6357L13.0686 9.27103V0Z" fill="#D52C3A"/>
<mask id="path-3-inside-1_2001_7226" fill="white">
<path fill-rule="evenodd" clip-rule="evenodd" d="M15.9459 2L16.2901 13.4751C16.5346 13.5675 16.7076 13.7553 16.7278 13.9758H16.7297V14.7104C17.088 14.7569 17.3243 14.8365 17.3243 14.9269C17.3243 15.0174 17.088 15.097 16.7297 15.1434V16.014C17.2951 16.2218 17.6976 16.6472 17.7508 17.1481C18.2791 17.1147 18.6216 17.1117 18.6216 17.2399C18.6216 17.3736 18.2878 17.4938 17.7568 17.5769V20.4311C18.094 20.48 18.2973 20.5432 18.2973 20.6122C18.2973 20.6812 18.094 20.7444 17.7568 20.7933V21.1228C18.094 21.1718 18.2973 21.2349 18.2973 21.3039C18.2973 21.3729 18.094 21.4361 17.7568 21.485V23.3839C18.51 23.4506 19 23.5592 19 23.6818C19 23.8044 18.51 23.913 17.7568 23.9797V24.2222L21.4444 24.2222V22.3704H21C21 22.2902 21.1665 22.2166 21.4444 22.1587V21.7811H21C21 21.711 21.1665 21.6466 21.4444 21.596V21.0669C21.1665 21.009 21 20.9354 21 20.8552H21.5004C21.6269 20.6692 21.9578 20.5177 22.3889 20.4428V19.2785C22.2508 19.2429 22.1667 19.1922 22.1667 19.1274C22.1667 19.0023 22.4793 18.6947 22.8889 18.6348V17.7407H23.1111V18.6283C23.5476 18.6668 23.8889 18.9967 23.8889 19.1274C23.8889 19.2005 23.7819 19.2556 23.6111 19.2914V20.4428C24.0422 20.5177 24.3731 20.6692 24.4996 20.8552H25C25 20.9354 24.8335 21.009 24.5556 21.0669V21.596C24.8335 21.6466 25 21.711 25 21.7811H24.5556V22.1587C24.8335 22.2166 25 22.2902 25 22.3704H24.5556V24.2222L37.381 24.2222L40 37.2593H-4L-1.38095 24.2222H14.1351V23.9697C13.4435 23.9024 13 23.7984 13 23.6818C13 23.5652 13.4435 23.4612 14.1351 23.3939V21.4681C13.863 21.4219 13.7027 21.3652 13.7027 21.3039C13.7027 21.2427 13.863 21.186 14.1351 21.1398V20.7763C13.863 20.7302 13.7027 20.6735 13.7027 20.6122C13.7027 20.5509 13.863 20.4942 14.1351 20.448V17.559C13.6672 17.477 13.3784 17.3643 13.3784 17.2399C13.3784 17.1088 13.6626 17.1149 14.1409 17.1505C14.1931 16.6485 14.5959 16.2221 15.1622 16.014V15.1278C14.8652 15.0803 14.6757 15.0079 14.6757 14.9269C14.6757 14.8459 14.8652 14.7736 15.1622 14.726V13.9758H15.1641C15.1843 13.7553 15.3573 13.5675 15.6018 13.4751L15.9459 2Z"/>
</mask>
<path d="M16.2901 13.4751L15.5904 13.496L15.6044 13.9642L16.0426 14.1298L16.2901 13.4751ZM15.9459 2L16.6456 1.97902H15.2463L15.9459 2ZM16.7278 13.9758L16.0307 14.0396L16.0889 14.6758H16.7278V13.9758ZM16.7297 13.9758H17.4297V13.2758H16.7297V13.9758ZM16.7297 14.7104H16.0297V15.3256L16.6398 15.4046L16.7297 14.7104ZM16.7297 15.1434L16.6398 14.4492L16.0297 14.5283V15.1434H16.7297ZM16.7297 16.014H16.0297V16.5026L16.4883 16.6711L16.7297 16.014ZM17.7508 17.1481L17.0547 17.2221L17.1256 17.8892L17.7951 17.8467L17.7508 17.1481ZM17.7568 17.5769L17.6486 16.8853L17.0568 16.9779V17.5769H17.7568ZM17.7568 20.4311H17.0568V21.0369L17.6563 21.1239L17.7568 20.4311ZM17.7568 20.7933L17.6563 20.1005L17.0568 20.1875V20.7933H17.7568ZM17.7568 21.1228H17.0568V21.7286L17.6563 21.8156L17.7568 21.1228ZM17.7568 21.485L17.6563 20.7923L17.0568 20.8792V21.485H17.7568ZM17.7568 23.3839H17.0568V24.0246L17.695 24.0811L17.7568 23.3839ZM17.7568 23.9797L17.695 23.2825L17.0568 23.339V23.9797H17.7568ZM17.7568 24.2222H17.0568V24.9222L17.7568 24.9222V24.2222ZM21.4444 24.2222V24.9222H22.1444V24.2222H21.4444ZM21.4444 22.3704H22.1444V21.6704H21.4444V22.3704ZM21 22.3704H20.3V23.0704H21V22.3704ZM21.4444 22.1587L21.587 22.844L22.1444 22.7281V22.1587H21.4444ZM21.4444 21.7811H22.1444V21.0811H21.4444V21.7811ZM21 21.7811H20.3V22.4811H21V21.7811ZM21.4444 21.596L21.5698 22.2846L22.1444 22.18V21.596H21.4444ZM21.4444 21.0669H22.1444V20.4975L21.587 20.3815L21.4444 21.0669ZM21 20.8552V20.1552H20.3V20.8552H21ZM21.5004 20.8552V21.5552H21.8709L22.0792 21.2489L21.5004 20.8552ZM22.3889 20.4428L22.5086 21.1325L23.0889 21.0318V20.4428H22.3889ZM22.3889 19.2785H23.0889V18.736L22.5636 18.6006L22.3889 19.2785ZM22.8889 18.6348L22.9902 19.3274L23.5889 19.2398V18.6348H22.8889ZM22.8889 17.7407V17.0407H22.1889V17.7407H22.8889ZM23.1111 17.7407H23.8111V17.0407H23.1111V17.7407ZM23.1111 18.6283H22.4111V19.2692L23.0495 19.3256L23.1111 18.6283ZM23.6111 19.2914L23.4676 18.6063L22.9111 18.7228V19.2914H23.6111ZM23.6111 20.4428H22.9111V21.0318L23.4914 21.1325L23.6111 20.4428ZM24.4996 20.8552L23.9208 21.2489L24.1291 21.5552H24.4996V20.8552ZM25 20.8552H25.7V20.1552H25V20.8552ZM24.5556 21.0669L24.413 20.3815L23.8556 20.4975V21.0669H24.5556ZM24.5556 21.596H23.8556V22.18L24.4302 22.2846L24.5556 21.596ZM25 21.7811V22.4811H25.7V21.7811H25ZM24.5556 21.7811V21.0811H23.8556V21.7811H24.5556ZM24.5556 22.1587H23.8556V22.7281L24.413 22.844L24.5556 22.1587ZM25 22.3704V23.0704H25.7V22.3704H25ZM24.5556 22.3704V21.6704H23.8556V22.3704H24.5556ZM24.5556 24.2222H23.8556V24.9222H24.5556V24.2222ZM37.381 24.2222L38.0672 24.0844L37.9543 23.5222H37.381V24.2222ZM40 37.2593V37.9593H40.8546L40.6863 37.1214L40 37.2593ZM-4 37.2593L-4.68629 37.1214L-4.85461 37.9593H-4V37.2593ZM-1.38095 24.2222V23.5222H-1.95431L-2.06724 24.0844L-1.38095 24.2222ZM14.1351 24.2222V24.9222H14.8351V24.2222H14.1351ZM14.1351 23.9697H14.8351V23.3345L14.2029 23.273L14.1351 23.9697ZM14.1351 23.3939L14.2029 24.0906L14.8351 24.0291V23.3939H14.1351ZM14.1351 21.4681H14.8351V20.8769L14.2523 20.7779L14.1351 21.4681ZM14.1351 21.1398L14.2523 21.8299L14.8351 21.731V21.1398H14.1351ZM14.1351 20.7763H14.8351V20.1851L14.2523 20.0862L14.1351 20.7763ZM14.1351 20.448L14.2523 21.1382L14.8351 21.0393V20.448H14.1351ZM14.1351 17.559H14.8351V16.971L14.256 16.8695L14.1351 17.559ZM14.1409 17.1505L14.0889 17.8485L14.7668 17.899L14.8371 17.2229L14.1409 17.1505ZM15.1622 16.014L15.4036 16.6711L15.8622 16.5026V16.014H15.1622ZM15.1622 15.1278H15.8622V14.5311L15.2729 14.4367L15.1622 15.1278ZM15.1622 14.726L15.2729 15.4172L15.8622 15.3228V14.726H15.1622ZM15.1622 13.9758V13.2758H14.4622V13.9758H15.1622ZM15.1641 13.9758V14.6758H15.803L15.8612 14.0396L15.1641 13.9758ZM15.6018 13.4751L15.8493 14.1298L16.2875 13.9642L16.3015 13.496L15.6018 13.4751ZM16.9898 13.4541L16.6456 1.97902L15.2463 2.02098L15.5904 13.496L16.9898 13.4541ZM17.4249 13.912C17.3732 13.3473 16.9506 12.9764 16.5376 12.8203L16.0426 14.1298C16.0715 14.1408 16.0769 14.1504 16.0694 14.1419C16.0603 14.1317 16.036 14.0972 16.0307 14.0396L17.4249 13.912ZM16.7297 13.2758H16.7278V14.6758H16.7297V13.2758ZM17.4297 14.7104V13.9758H16.0297V14.7104H17.4297ZM18.0243 14.9269C18.0243 14.5765 17.7969 14.3731 17.703 14.3024C17.5939 14.2202 17.4779 14.1718 17.3964 14.1428C17.2251 14.0818 17.0208 14.0423 16.8197 14.0162L16.6398 15.4046C16.797 15.425 16.8899 15.4485 16.9264 15.4615C16.9487 15.4695 16.9142 15.4609 16.8606 15.4206C16.8222 15.3916 16.6243 15.2322 16.6243 14.9269H18.0243ZM16.8197 15.8376C17.0208 15.8116 17.2251 15.7721 17.3964 15.7111C17.4779 15.682 17.5939 15.6337 17.703 15.5515C17.7969 15.4807 18.0243 15.2774 18.0243 14.9269H16.6243C16.6243 14.6217 16.8222 14.4622 16.8606 14.4333C16.9142 14.3929 16.9487 14.3843 16.9264 14.3923C16.8899 14.4053 16.797 14.4289 16.6398 14.4492L16.8197 15.8376ZM17.4297 16.014V15.1434H16.0297V16.014H17.4297ZM18.4469 17.0742C18.3571 16.2288 17.7019 15.6254 16.9711 15.357L16.4883 16.6711C16.8884 16.8181 17.0381 17.0657 17.0547 17.2221L18.4469 17.0742ZM19.3216 17.2399C19.3216 16.8012 18.9924 16.5903 18.8347 16.523C18.6845 16.4589 18.5303 16.4422 18.4355 16.4353C18.2287 16.4201 17.9643 16.4332 17.7065 16.4495L17.7951 17.8467C18.0656 17.8296 18.2366 17.8245 18.3332 17.8315C18.39 17.8357 18.3545 17.8403 18.285 17.8106C18.2459 17.7939 18.1574 17.7502 18.0744 17.6534C17.9795 17.5427 17.9216 17.3962 17.9216 17.2399H19.3216ZM17.8649 18.2685C18.1496 18.224 18.4212 18.1641 18.6378 18.0815C18.7424 18.0416 18.8759 17.981 18.9959 17.886C19.1049 17.7996 19.3216 17.587 19.3216 17.2399H17.9216C17.9216 16.9597 18.0966 16.8123 18.1265 16.7887C18.1673 16.7563 18.1841 16.7561 18.1389 16.7734C18.0558 16.805 17.895 16.8468 17.6486 16.8853L17.8649 18.2685ZM18.4568 20.4311V17.5769H17.0568V20.4311H18.4568ZM18.9973 20.6122C18.9973 20.2289 18.7229 20.0293 18.6514 19.9811C18.5487 19.912 18.4423 19.8722 18.3719 19.8491C18.2215 19.7997 18.0396 19.7648 17.8572 19.7383L17.6563 21.1239C17.8112 21.1463 17.8995 21.1675 17.9351 21.1792C17.9577 21.1866 17.9231 21.1786 17.8691 21.1422C17.8409 21.1232 17.7815 21.0793 17.7246 21.0022C17.6636 20.9195 17.5973 20.7858 17.5973 20.6122H18.9973ZM17.8572 21.486C18.0396 21.4596 18.2215 21.4247 18.3719 21.3753C18.4423 21.3522 18.5487 21.3124 18.6514 21.2432C18.7229 21.195 18.9973 20.9955 18.9973 20.6122H17.5973C17.5973 20.4385 17.6636 20.3048 17.7246 20.2222C17.7815 20.1451 17.8409 20.1012 17.8691 20.0822C17.9231 20.0458 17.9577 20.0378 17.9351 20.0452C17.8995 20.0569 17.8112 20.0781 17.6563 20.1005L17.8572 21.486ZM18.4568 21.1228V20.7933H17.0568V21.1228H18.4568ZM18.9973 21.3039C18.9973 20.9206 18.7229 20.7211 18.6514 20.6729C18.5487 20.6037 18.4423 20.5639 18.3719 20.5408C18.2215 20.4914 18.0396 20.4565 17.8572 20.4301L17.6563 21.8156C17.8112 21.8381 17.8995 21.8592 17.9351 21.8709C17.9577 21.8783 17.9231 21.8703 17.8691 21.8339C17.8409 21.8149 17.7815 21.7711 17.7246 21.6939C17.6636 21.6113 17.5973 21.4776 17.5973 21.3039H18.9973ZM17.8572 22.1778C18.0396 22.1513 18.2215 22.1165 18.3719 22.0671C18.4423 22.0439 18.5487 22.0042 18.6514 21.935C18.7229 21.8868 18.9973 21.6872 18.9973 21.3039H17.5973C17.5973 21.1303 17.6636 20.9966 17.7246 20.9139C17.7815 20.8368 17.8409 20.793 17.8691 20.7739C17.9231 20.7375 17.9577 20.7295 17.9351 20.737C17.8995 20.7486 17.8112 20.7698 17.6563 20.7923L17.8572 22.1778ZM18.4568 23.3839V21.485H17.0568V23.3839H18.4568ZM19.7 23.6818C19.7 23.4155 19.5638 23.2327 19.4718 23.1409C19.3813 23.0506 19.2842 22.9961 19.2213 22.9651C19.0924 22.9015 18.9469 22.86 18.8207 22.8304C18.5568 22.7685 18.2083 22.7212 17.8186 22.6866L17.695 24.0811C18.0585 24.1134 18.3315 24.1537 18.501 24.1934C18.5915 24.2146 18.6155 24.2274 18.602 24.2207C18.5969 24.2182 18.5439 24.1928 18.4831 24.1322C18.4209 24.07 18.3 23.9174 18.3 23.6818H19.7ZM17.8186 24.677C18.2083 24.6424 18.5568 24.5951 18.8207 24.5332C18.9469 24.5036 19.0924 24.4621 19.2213 24.3985C19.2842 24.3675 19.3813 24.313 19.4718 24.2227C19.5638 24.1309 19.7 23.9481 19.7 23.6818H18.3C18.3 23.4462 18.4209 23.2936 18.4831 23.2314C18.5439 23.1708 18.5969 23.1454 18.602 23.1429C18.6155 23.1362 18.5915 23.149 18.501 23.1702C18.3315 23.2099 18.0585 23.2502 17.695 23.2825L17.8186 24.677ZM18.4568 24.2222V23.9797H17.0568V24.2222H18.4568ZM17.7568 24.9222L21.4444 24.9222V23.5222L17.7568 23.5222V24.9222ZM20.7444 22.3704V24.2222H22.1444V22.3704H20.7444ZM21 23.0704H21.4444V21.6704H21V23.0704ZM21.3019 21.4734C21.1429 21.5065 20.9705 21.5525 20.8218 21.6219C20.7495 21.6557 20.6439 21.7126 20.5465 21.8057C20.4488 21.8992 20.3 22.0894 20.3 22.3704H21.7C21.7 22.6113 21.572 22.7622 21.5142 22.8175C21.4827 22.8476 21.4557 22.866 21.4411 22.8753C21.4258 22.8849 21.4159 22.8896 21.4142 22.8904C21.4119 22.8915 21.4243 22.8857 21.4575 22.8758C21.4893 22.8663 21.5321 22.8555 21.587 22.844L21.3019 21.4734ZM20.7444 21.7811V22.1587H22.1444V21.7811H20.7444ZM21 22.4811H21.4444V21.0811H21V22.4811ZM21.3191 20.9073C21.1629 20.9357 20.9963 20.9748 20.8532 21.0332C20.7849 21.0611 20.6803 21.1098 20.5811 21.1929C20.4887 21.2702 20.3 21.4652 20.3 21.7811H21.7C21.7 22.062 21.5321 22.2226 21.4796 22.2665C21.4466 22.2942 21.4193 22.3103 21.4059 22.3177C21.3916 22.3256 21.383 22.3291 21.3828 22.3292C21.3821 22.3295 21.386 22.3279 21.3954 22.3249C21.4046 22.3219 21.4174 22.3181 21.4342 22.3138C21.4683 22.3049 21.5132 22.2949 21.5698 22.2846L21.3191 20.9073ZM20.7444 21.0669V21.596H22.1444V21.0669H20.7444ZM20.3 20.8552C20.3 21.1362 20.4488 21.3264 20.5465 21.4198C20.6439 21.513 20.7495 21.5699 20.8218 21.6037C20.9705 21.6731 21.1429 21.7191 21.3019 21.7522L21.587 20.3815C21.5321 20.3701 21.4893 20.3592 21.4575 20.3498C21.4243 20.3399 21.4119 20.3341 21.4142 20.3352C21.4159 20.336 21.4258 20.3407 21.4411 20.3503C21.4557 20.3596 21.4827 20.378 21.5142 20.4081C21.572 20.4634 21.7 20.6143 21.7 20.8552H20.3ZM21.5004 20.1552H21V21.5552H21.5004V20.1552ZM22.2692 19.7531C22.0087 19.7984 21.7569 19.8701 21.5366 19.972C21.3288 20.0681 21.0858 20.22 20.9215 20.4616L22.0792 21.2489C22.0571 21.2814 22.0414 21.2907 22.0511 21.2835C22.0599 21.2769 22.0826 21.2619 22.1242 21.2427C22.2088 21.2036 22.338 21.1621 22.5086 21.1325L22.2692 19.7531ZM21.6889 19.2785V20.4428H23.0889V19.2785H21.6889ZM21.4667 19.1274C21.4667 19.503 21.7174 19.7171 21.8409 19.7985C21.9725 19.8851 22.1133 19.9303 22.2142 19.9563L22.5636 18.6006C22.5263 18.591 22.556 18.5931 22.6111 18.6293C22.658 18.6602 22.8667 18.8165 22.8667 19.1274H21.4667ZM22.7875 17.9422C22.4434 17.9925 22.1529 18.1429 21.946 18.3029C21.842 18.3833 21.7431 18.4784 21.663 18.5846C21.6076 18.6582 21.4667 18.8571 21.4667 19.1274H22.8667C22.8667 19.1911 22.8569 19.243 22.8475 19.279C22.8379 19.3156 22.8265 19.344 22.8178 19.3633C22.8008 19.4005 22.7851 19.4219 22.7808 19.4275C22.7722 19.439 22.7771 19.43 22.8024 19.4104C22.8542 19.3704 22.9248 19.337 22.9902 19.3274L22.7875 17.9422ZM22.1889 17.7407V18.6348H23.5889V17.7407H22.1889ZM23.1111 17.0407H22.8889V18.4407H23.1111V17.0407ZM23.8111 18.6283V17.7407H22.4111V18.6283H23.8111ZM24.5889 19.1274C24.5889 18.848 24.4384 18.6434 24.3813 18.5699C24.2968 18.4613 24.1919 18.3635 24.0804 18.2808C23.859 18.1169 23.5445 17.9638 23.1727 17.931L23.0495 19.3256C23.1142 19.3313 23.1886 19.3625 23.247 19.4058C23.2753 19.4267 23.2831 19.4383 23.2762 19.4295C23.2729 19.4252 23.2574 19.405 23.2402 19.3686C23.2313 19.3497 23.2195 19.3212 23.2094 19.284C23.1995 19.2475 23.1889 19.1939 23.1889 19.1274H24.5889ZM23.7546 19.9765C23.8689 19.9526 24.0202 19.9116 24.1605 19.8316C24.2758 19.7659 24.5889 19.5512 24.5889 19.1274H23.1889C23.1889 18.9612 23.2534 18.8291 23.3211 18.7438C23.382 18.6669 23.4439 18.6286 23.4676 18.6151C23.5117 18.59 23.5241 18.5944 23.4676 18.6063L23.7546 19.9765ZM24.3111 20.4428V19.2914H22.9111V20.4428H24.3111ZM25.0785 20.4616C24.9142 20.22 24.6712 20.0681 24.4634 19.972C24.2431 19.8701 23.9913 19.7984 23.7308 19.7531L23.4914 21.1325C23.662 21.1621 23.7912 21.2036 23.8758 21.2427C23.9174 21.2619 23.9401 21.2769 23.9489 21.2835C23.9586 21.2907 23.9429 21.2814 23.9208 21.2489L25.0785 20.4616ZM25 20.1552H24.4996V21.5552H25V20.1552ZM24.6981 21.7522C24.8571 21.7191 25.0295 21.6731 25.1782 21.6037C25.2505 21.5699 25.3561 21.513 25.4535 21.4198C25.5512 21.3264 25.7 21.1362 25.7 20.8552H24.3C24.3 20.6143 24.428 20.4634 24.4858 20.4081C24.5173 20.378 24.5443 20.3596 24.5589 20.3503C24.5742 20.3407 24.5841 20.336 24.5858 20.3352C24.5881 20.3341 24.5757 20.3399 24.5425 20.3498C24.5107 20.3592 24.4679 20.3701 24.413 20.3815L24.6981 21.7522ZM25.2556 21.596V21.0669H23.8556V21.596H25.2556ZM25.7 21.7811C25.7 21.4652 25.5113 21.2702 25.4189 21.1929C25.3197 21.1098 25.2151 21.0611 25.1468 21.0332C25.0037 20.9748 24.8371 20.9357 24.6809 20.9073L24.4302 22.2846C24.4868 22.2949 24.5317 22.3049 24.5658 22.3138C24.5826 22.3181 24.5954 22.3219 24.6046 22.3249C24.614 22.3279 24.6179 22.3295 24.6172 22.3292C24.617 22.3291 24.6084 22.3256 24.5941 22.3177C24.5807 22.3103 24.5534 22.2942 24.5204 22.2665C24.4679 22.2226 24.3 22.062 24.3 21.7811H25.7ZM24.5556 22.4811H25V21.0811H24.5556V22.4811ZM25.2556 22.1587V21.7811H23.8556V22.1587H25.2556ZM25.7 22.3704C25.7 22.0894 25.5512 21.8992 25.4535 21.8057C25.3561 21.7126 25.2505 21.6557 25.1782 21.6219C25.0295 21.5525 24.8571 21.5065 24.6981 21.4734L24.413 22.844C24.4679 22.8555 24.5107 22.8663 24.5425 22.8758C24.5757 22.8857 24.5881 22.8915 24.5858 22.8904C24.5841 22.8896 24.5742 22.8849 24.5589 22.8753C24.5443 22.866 24.5173 22.8476 24.4858 22.8175C24.428 22.7622 24.3 22.6113 24.3 22.3704H25.7ZM24.5556 23.0704H25V21.6704H24.5556V23.0704ZM25.2556 24.2222V22.3704H23.8556V24.2222H25.2556ZM24.5556 24.9222L37.381 24.9222V23.5222L24.5556 23.5222V24.9222ZM36.6947 24.3601L39.3137 37.3971L40.6863 37.1214L38.0672 24.0844L36.6947 24.3601ZM40 36.5593H-4V37.9593H40V36.5593ZM-3.31371 37.3971L-0.694664 24.3601L-2.06724 24.0844L-4.68629 37.1214L-3.31371 37.3971ZM-1.38095 24.9222H14.1351V23.5222H-1.38095V24.9222ZM13.4351 23.9697V24.2222H14.8351V23.9697H13.4351ZM12.3 23.6818C12.3 23.9347 12.4234 24.1132 12.5138 24.2079C12.6014 24.2998 12.696 24.3558 12.7576 24.3878C12.8827 24.4527 13.0222 24.4945 13.1396 24.5236C13.3856 24.5847 13.7085 24.6315 14.0673 24.6664L14.2029 23.273C13.8701 23.2406 13.6254 23.2017 13.4768 23.1648C13.3969 23.145 13.3823 23.1347 13.4026 23.1453C13.4118 23.15 13.4663 23.1782 13.527 23.2418C13.5904 23.3083 13.7 23.458 13.7 23.6818H12.3ZM14.0673 22.6972C13.7085 22.7321 13.3856 22.7789 13.1396 22.84C13.0222 22.8691 12.8827 22.9109 12.7576 22.9758C12.6961 23.0078 12.6014 23.0637 12.5138 23.1557C12.4234 23.2504 12.3 23.4289 12.3 23.6818H13.7C13.7 23.9056 13.5904 24.0553 13.527 24.1218C13.4663 24.1854 13.4118 24.2136 13.4026 24.2183C13.3823 24.2289 13.3969 24.2186 13.4768 24.1988C13.6254 24.1619 13.8701 24.123 14.2029 24.0906L14.0673 22.6972ZM13.4351 21.4681V23.3939H14.8351V21.4681H13.4351ZM13.0027 21.3039C13.0027 21.6472 13.2257 21.8434 13.3085 21.9063C13.4069 21.9811 13.5086 22.0238 13.5725 22.0476C13.7083 22.0982 13.8674 22.1326 14.018 22.1582L14.2523 20.7779C14.1957 20.7683 14.1504 20.7591 14.1158 20.7508C14.0987 20.7467 14.0855 20.7432 14.0758 20.7403C14.071 20.7389 14.0674 20.7378 14.0648 20.7369C14.0623 20.7361 14.0612 20.7357 14.0613 20.7357C14.0613 20.7357 14.0631 20.7364 14.0664 20.7378C14.0696 20.7392 14.075 20.7416 14.0821 20.7452C14.0946 20.7514 14.1219 20.766 14.1555 20.7916C14.1998 20.8252 14.4027 20.9914 14.4027 21.3039H13.0027ZM14.018 20.4497C13.8674 20.4752 13.7083 20.5096 13.5725 20.5602C13.5086 20.5841 13.4069 20.6268 13.3085 20.7016C13.2257 20.7645 13.0027 20.9607 13.0027 21.3039H14.4027C14.4027 21.6165 14.1998 21.7827 14.1556 21.8163C14.1219 21.8418 14.0946 21.8564 14.0821 21.8627C14.075 21.8663 14.0696 21.8687 14.0664 21.8701C14.0631 21.8715 14.0613 21.8721 14.0613 21.8722C14.0612 21.8722 14.0623 21.8718 14.0649 21.8709C14.0674 21.8701 14.071 21.869 14.0758 21.8676C14.0855 21.8647 14.0987 21.8611 14.1158 21.857C14.1504 21.8488 14.1957 21.8395 14.2523 21.8299L14.018 20.4497ZM13.4351 20.7763V21.1398H14.8351V20.7763H13.4351ZM13.0027 20.6122C13.0027 20.9554 13.2257 21.1516 13.3085 21.2145C13.4069 21.2893 13.5086 21.3321 13.5725 21.3559C13.7083 21.4065 13.8674 21.4409 14.018 21.4665L14.2523 20.0862C14.1957 20.0766 14.1504 20.0674 14.1158 20.0591C14.0987 20.055 14.0855 20.0514 14.0758 20.0486C14.071 20.0472 14.0674 20.046 14.0648 20.0452C14.0623 20.0444 14.0612 20.0439 14.0613 20.044C14.0613 20.044 14.0631 20.0447 14.0664 20.0461C14.0696 20.0474 14.075 20.0499 14.0821 20.0534C14.0946 20.0597 14.1219 20.0743 14.1555 20.0999C14.1997 20.1335 14.4027 20.2996 14.4027 20.6122H13.0027ZM14.018 19.7579C13.8674 19.7835 13.7083 19.8179 13.5725 19.8685C13.5086 19.8923 13.4069 19.9351 13.3085 20.0099C13.2257 20.0728 13.0027 20.269 13.0027 20.6122H14.4027C14.4027 20.9248 14.1998 21.0909 14.1556 21.1245C14.1219 21.1501 14.0946 21.1647 14.0821 21.1709C14.075 21.1745 14.0696 21.1769 14.0664 21.1783C14.0631 21.1797 14.0613 21.1804 14.0613 21.1804C14.0612 21.1805 14.0623 21.18 14.0649 21.1792C14.0674 21.1784 14.071 21.1772 14.0758 21.1758C14.0855 21.173 14.0987 21.1694 14.1158 21.1653C14.1504 21.157 14.1957 21.1478 14.2523 21.1382L14.018 19.7579ZM13.4351 17.559V20.448H14.8351V17.559H13.4351ZM12.6784 17.2399C12.6784 17.5632 12.8678 17.7705 12.9765 17.8633C13.0906 17.9606 13.2173 18.0224 13.3141 18.0624C13.5139 18.1449 13.7609 18.2041 14.0143 18.2485L14.256 16.8695C14.0415 16.8319 13.9101 16.7938 13.8485 16.7684C13.8146 16.7544 13.8398 16.7595 13.8851 16.7982C13.9251 16.8323 14.0784 16.9789 14.0784 17.2399H12.6784ZM14.1929 16.4524C13.9651 16.4354 13.719 16.4194 13.5247 16.4349C13.4356 16.442 13.273 16.4604 13.1134 16.5414C13.0254 16.5861 12.9117 16.6631 12.8199 16.7929C12.7224 16.9308 12.6784 17.0882 12.6784 17.2399H14.0784C14.0784 17.3589 14.0432 17.4878 13.9631 17.601C13.8888 17.7062 13.801 17.7625 13.7471 17.7898C13.6557 17.8362 13.5941 17.8338 13.6359 17.8305C13.7032 17.8251 13.8384 17.8299 14.0889 17.8485L14.1929 16.4524ZM14.9208 15.357C14.1889 15.6258 13.5328 16.2307 13.4446 17.078L14.8371 17.2229C14.8534 17.0664 15.0028 16.8183 15.4036 16.6711L14.9208 15.357ZM14.4622 15.1278V16.014H15.8622V15.1278H14.4622ZM13.9757 14.9269C13.9757 15.2416 14.1613 15.4388 14.2584 15.5207C14.3613 15.6076 14.4709 15.6589 14.5453 15.6889C14.7004 15.7516 14.8811 15.7917 15.0514 15.819L15.2729 14.4367C15.1463 14.4164 15.0837 14.3965 15.0699 14.3909C15.0598 14.3868 15.1034 14.4019 15.1614 14.4509C15.2137 14.495 15.3757 14.6528 15.3757 14.9269H13.9757ZM15.0514 14.0348C14.8811 14.0621 14.7004 14.1022 14.5453 14.1649C14.4709 14.195 14.3613 14.2463 14.2584 14.3331C14.1613 14.4151 13.9757 14.6123 13.9757 14.9269H15.3757C15.3757 15.2011 15.2137 15.3589 15.1614 15.403C15.1034 15.452 15.0598 15.467 15.0699 15.4629C15.0837 15.4573 15.1463 15.4375 15.2729 15.4172L15.0514 14.0348ZM14.4622 13.9758V14.726H15.8622V13.9758H14.4622ZM15.1641 13.2758H15.1622V14.6758H15.1641V13.2758ZM15.3543 12.8203C14.9413 12.9764 14.5187 13.3473 14.467 13.912L15.8612 14.0396C15.8559 14.0972 15.8316 14.1317 15.8225 14.1419C15.815 14.1504 15.8204 14.1408 15.8493 14.1298L15.3543 12.8203ZM15.2463 1.97902L14.9021 13.4541L16.3015 13.496L16.6456 2.02098L15.2463 1.97902Z" fill="white" mask="url(#path-3-inside-1_2001_7226)"/>
</g>
</svg>
