<svg width="72" height="72" viewBox="0 0 72 72" fill="none" xmlns="http://www.w3.org/2000/svg">
<path fill-rule="evenodd" clip-rule="evenodd" d="M36 8.25C20.6741 8.25 8.25 20.6741 8.25 36C8.25 51.3259 20.6741 63.75 36 63.75C51.3259 63.75 63.75 51.3259 63.75 36C63.75 20.6741 51.3259 8.25 36 8.25ZM3.75 36C3.75 18.1888 18.1888 3.75 36 3.75C53.8112 3.75 68.25 18.1888 68.25 36C68.25 53.8112 53.8112 68.25 36 68.25C18.1888 68.25 3.75 53.8112 3.75 36Z" fill="white" fill-opacity="0.8"/>
<path fill-rule="evenodd" clip-rule="evenodd" d="M47.6313 32.9592C49.7053 34.4559 49.7053 37.5441 47.6313 39.0408L33.6945 49.0988C31.2144 50.8887 27.75 49.1166 27.75 46.058L27.75 25.942C27.75 22.8835 31.2144 21.1113 33.6945 22.9012L47.6313 32.9592ZM32.25 27.4082V44.5918L44.1552 36L32.25 27.4082Z" fill="white" fill-opacity="0.8"/>
</svg>
