<svg width="40" height="40" viewBox="0 0 40 40" fill="none" xmlns="http://www.w3.org/2000/svg">
<path fill-rule="evenodd" clip-rule="evenodd" d="M14.9997 3.33301H9.99967C6.31778 3.33301 3.33301 6.31778 3.33301 9.99967V14.9997H5.83301V9.99967C5.83301 7.69849 7.69849 5.83301 9.99967 5.83301H14.9997V3.33301ZM3.33301 24.9997V29.9997C3.33301 33.6816 6.31778 36.6663 9.99967 36.6663H14.9997V34.1663H9.99967C7.69849 34.1663 5.83301 32.3009 5.83301 29.9997V24.9997H3.33301ZM24.9997 3.33301V5.83301H29.9997C32.3009 5.83301 34.1663 7.69849 34.1663 9.99967V14.9997H36.6663V9.99967C36.6663 6.31778 33.6816 3.33301 29.9997 3.33301H24.9997ZM36.6663 24.9997H34.1663V29.9997C34.1663 32.3009 32.3009 34.1663 29.9997 34.1663H24.9997V36.6663H29.9997C33.6816 36.6663 36.6663 33.6816 36.6663 29.9997V24.9997Z" fill="white"/>
</svg>
