<svg width="40" height="40" viewBox="0 0 40 40" fill="none" xmlns="http://www.w3.org/2000/svg">
<path fill-rule="evenodd" clip-rule="evenodd" d="M28.3998 8.0001C28.3998 5.57004 30.3698 3.6001 32.7998 3.6001C35.2299 3.6001 37.1998 5.57004 37.1998 8.0001C37.1998 10.4302 35.2299 12.4001 32.7998 12.4001C32.0254 12.4001 31.2977 12.2 30.6656 11.8488C30.6103 11.9556 30.5378 12.0559 30.4482 12.1455L28.9452 13.6484C28.4766 14.1171 27.7168 14.1171 27.2482 13.6484C26.7795 13.1798 26.7795 12.42 27.2482 11.9514L28.7511 10.4484C28.8319 10.3676 28.9213 10.3008 29.0165 10.2478C28.6248 9.58999 28.3998 8.82132 28.3998 8.0001ZM32.7998 6.0001C31.6952 6.0001 30.7998 6.89553 30.7998 8.0001C30.7998 9.10467 31.6952 10.0001 32.7998 10.0001C33.9044 10.0001 34.7998 9.10467 34.7998 8.0001C34.7998 6.89553 33.9044 6.0001 32.7998 6.0001Z" fill="white"/>
<path fill-rule="evenodd" clip-rule="evenodd" d="M12.3998 20.8001C12.3998 16.6027 15.8024 13.2001 19.9998 13.2001C24.1972 13.2001 27.5998 16.6027 27.5998 20.8001C27.5998 24.9975 24.1972 28.4001 19.9998 28.4001C15.8024 28.4001 12.3998 24.9975 12.3998 20.8001ZM19.9998 15.6001C17.1279 15.6001 14.7998 17.9282 14.7998 20.8001C14.7998 23.672 17.1279 26.0001 19.9998 26.0001C22.8717 26.0001 25.1998 23.672 25.1998 20.8001C25.1998 17.9282 22.8717 15.6001 19.9998 15.6001Z" fill="white"/>
<path fill-rule="evenodd" clip-rule="evenodd" d="M29.0165 31.3524C28.6248 32.0102 28.3998 32.7789 28.3998 33.6001C28.3998 36.0302 30.3698 38.0001 32.7998 38.0001C35.2299 38.0001 37.1998 36.0302 37.1998 33.6001C37.1998 31.17 35.2299 29.2001 32.7998 29.2001C32.0254 29.2001 31.2977 29.4002 30.6656 29.7514C30.6103 29.6446 30.5378 29.5443 30.4482 29.4547L28.9452 27.9517C28.4766 27.4831 27.7168 27.4831 27.2482 27.9517C26.7795 28.4204 26.7795 29.1802 27.2482 29.6488L28.7511 31.1518C28.8319 31.2325 28.9213 31.2994 29.0165 31.3524ZM30.7998 33.6001C30.7998 32.4955 31.6952 31.6001 32.7998 31.6001C33.9044 31.6001 34.7998 32.4955 34.7998 33.6001C34.7998 34.7047 33.9044 35.6001 32.7998 35.6001C31.6952 35.6001 30.7998 34.7047 30.7998 33.6001Z" fill="white"/>
<path fill-rule="evenodd" clip-rule="evenodd" d="M2.7998 33.6001C2.7998 31.17 4.76975 29.2001 7.1998 29.2001C7.97422 29.2001 8.70192 29.4002 9.33401 29.7514C9.38936 29.6446 9.46184 29.5443 9.55146 29.4547L11.0544 27.9517C11.523 27.4831 12.2828 27.4831 12.7515 27.9517C13.2201 28.4204 13.2201 29.1802 12.7515 29.6488L11.2485 31.1518C11.1677 31.2325 11.0783 31.2994 10.9831 31.3524C11.3748 32.0102 11.5998 32.7789 11.5998 33.6001C11.5998 36.0302 9.62986 38.0001 7.1998 38.0001C4.76975 38.0001 2.7998 36.0302 2.7998 33.6001ZM7.1998 31.6001C6.09524 31.6001 5.1998 32.4955 5.1998 33.6001C5.1998 34.7047 6.09524 35.6001 7.1998 35.6001C8.30437 35.6001 9.1998 34.7047 9.1998 33.6001C9.1998 32.4955 8.30437 31.6001 7.1998 31.6001Z" fill="white"/>
<path fill-rule="evenodd" clip-rule="evenodd" d="M7.1998 3.6001C4.76975 3.6001 2.7998 5.57004 2.7998 8.0001C2.7998 10.4302 4.76975 12.4001 7.1998 12.4001C7.97422 12.4001 8.70192 12.2 9.33401 11.8488C9.38936 11.9556 9.46184 12.0559 9.55146 12.1455L11.0544 13.6484C11.523 14.1171 12.2828 14.1171 12.7515 13.6484C13.2201 13.1798 13.2201 12.42 12.7515 11.9514L11.2485 10.4484C11.1677 10.3676 11.0783 10.3008 10.9831 10.2478C11.3748 9.58999 11.5998 8.82132 11.5998 8.0001C11.5998 5.57004 9.62986 3.6001 7.1998 3.6001ZM5.1998 8.0001C5.1998 6.89553 6.09524 6.0001 7.1998 6.0001C8.30437 6.0001 9.1998 6.89553 9.1998 8.0001C9.1998 9.10467 8.30437 10.0001 7.1998 10.0001C6.09524 10.0001 5.1998 9.10467 5.1998 8.0001Z" fill="white"/>
</svg>
