<svg width="40" height="40" viewBox="0 0 40 40" fill="none" xmlns="http://www.w3.org/2000/svg">
<path d="M15.907 21.4452C15.907 22.0438 16.4068 22.5291 17.0233 22.5291C17.6398 22.5291 18.1395 22.0438 18.1395 21.4452V18.5549C18.1395 17.9563 17.6398 17.471 17.0233 17.471C16.4068 17.471 15.907 17.9563 15.907 18.5549L15.907 21.4452Z" fill="white"/>
<path fill-rule="evenodd" clip-rule="evenodd" d="M8.09302 8.80005C5.83251 8.80005 4 10.5794 4 12.7742V14.942C4 15.9762 4.84471 16.6587 5.67344 16.7931C7.25757 17.05 8.46512 18.3892 8.46512 20C8.46512 21.6109 7.25757 22.9501 5.67344 23.207C4.84471 23.3414 4 24.0238 4 25.0581V27.2259C4 29.4207 5.83251 31.2001 8.09302 31.2001H31.907C34.1675 31.2001 36 29.4207 36 27.2259V25.0581C36 24.0238 35.1553 23.3414 34.3266 23.207C32.7424 22.9501 31.5349 21.6109 31.5349 20C31.5349 18.3892 32.7424 17.05 34.3266 16.7931C35.1553 16.6587 36 15.9762 36 14.942V12.7742C36 10.5794 34.1675 8.80005 31.907 8.80005H8.09302ZM18.1395 29.0323V25.7807C18.1395 25.1821 17.6398 24.6968 17.0233 24.6968C16.4068 24.6968 15.907 25.1821 15.907 25.7807V29.0323H8.09302C7.06552 29.0323 6.23256 28.2235 6.23256 27.2259V25.3108C8.78035 24.8081 10.6977 22.6225 10.6977 20C10.6977 17.3776 8.78035 15.192 6.23256 14.6893V12.7742C6.23256 11.7766 7.06552 10.9678 8.09302 10.9678H15.907V14.2194C15.907 14.818 16.4068 15.3033 17.0233 15.3033C17.6398 15.3033 18.1395 14.818 18.1395 14.2194V10.9678H31.907C32.9345 10.9678 33.7674 11.7766 33.7674 12.7742V14.6893C31.2197 15.192 29.3023 17.3776 29.3023 20C29.3023 22.6225 31.2197 24.8081 33.7674 25.3108V27.2259C33.7674 28.2235 32.9345 29.0323 31.907 29.0323H18.1395Z" fill="white"/>
</svg>
