<svg width="30" height="30" viewBox="0 0 30 30" fill="none" xmlns="http://www.w3.org/2000/svg">
<g clip-path="url(#clip0_2001_5896)">
<path d="M17.98 15.81H9.98904V12.5576H17.98C18.4468 12.5576 18.7714 12.6412 18.9342 12.7874C19.0971 12.9335 19.198 13.2045 19.198 13.6005V14.7683C19.198 15.1855 19.0971 15.4565 18.9342 15.6026C18.7714 15.7488 18.4468 15.8112 17.98 15.8112V15.81ZM18.5283 9.49124H6.6001V23.4002H9.98904V18.875H16.2345L19.198 23.4002H22.993L19.7256 18.8538C20.9302 18.6702 21.4711 18.2905 21.9172 17.6647C22.3633 17.039 22.587 16.0385 22.587 14.7034V13.6604C22.587 12.8686 22.5055 12.2428 22.3633 11.7632C22.2211 11.2836 21.978 10.8664 21.6328 10.4917C21.2681 10.137 20.8621 9.88718 20.3747 9.7198C19.8872 9.57367 19.2782 9.48999 18.5283 9.48999V9.49124Z" fill="#100943"/>
<path d="M25.5967 9.48999C27.0347 9.48999 28.2003 8.30582 28.2003 6.84509C28.2003 5.38436 27.0347 4.2002 25.5967 4.2002C24.1588 4.2002 22.9932 5.38436 22.9932 6.84509C22.9932 8.30582 24.1588 9.48999 25.5967 9.48999Z" fill="#ED143B"/>
</g>
<defs>
<clipPath id="clip0_2001_5896">
<rect width="21.6" height="19.2" fill="white" transform="translate(6.6001 4.2002)"/>
</clipPath>
</defs>
</svg>
