<svg width="44" height="44" viewBox="0 0 44 44" fill="none" xmlns="http://www.w3.org/2000/svg">
<path fill-rule="evenodd" clip-rule="evenodd" d="M19.3271 4.78004C20.4022 3.73999 22.1084 3.73999 23.1835 4.78004L25.8342 7.34438C25.9221 7.42935 26.0442 7.46902 26.1652 7.45191L29.817 6.93539C31.2981 6.7259 32.6784 7.72878 32.9369 9.20213L33.5741 12.8348C33.5952 12.9552 33.6707 13.059 33.7786 13.1163L37.0366 14.8449C38.358 15.546 38.8852 17.1687 38.2283 18.5126L36.6086 21.826C36.5549 21.9358 36.5549 22.0642 36.6086 22.174L38.2283 25.4874C38.8852 26.8313 38.358 28.454 37.0366 29.1551L33.7786 30.8837C33.6707 30.941 33.5952 31.0448 33.5741 31.1652L32.9369 34.7979C32.6784 36.2712 31.2981 37.2741 29.817 37.0646L26.1652 36.5481C26.0442 36.531 25.9221 36.5707 25.8342 36.6556L23.1835 39.22C22.1084 40.26 20.4022 40.26 19.3271 39.22L16.6763 36.6556C16.5885 36.5707 16.4664 36.531 16.3454 36.5481L12.6936 37.0646C11.2125 37.2741 9.83214 36.2712 9.57369 34.7979L8.93647 31.1652C8.91536 31.0448 8.83988 30.941 8.73194 30.8837L5.47397 29.1551C4.1526 28.454 3.62535 26.8313 4.28228 25.4874L5.90198 22.174C5.95565 22.0642 5.95565 21.9358 5.90198 21.826L4.28228 18.5126C3.62535 17.1687 4.1526 15.546 5.47397 14.8449L8.73194 13.1163C8.83988 13.059 8.91536 12.9552 8.93647 12.8348L9.57369 9.20213C9.83214 7.72878 11.2125 6.72589 12.6936 6.93539L16.3454 7.45191C16.4664 7.46902 16.5885 7.42935 16.6763 7.34438L19.3271 4.78004ZM21.5307 6.48848C21.3772 6.3399 21.1334 6.3399 20.9798 6.48848L18.3291 9.05282C17.7143 9.64757 16.8594 9.92532 16.0125 9.80553L12.3607 9.289C12.1491 9.25908 11.9519 9.40235 11.915 9.61282L11.2778 13.2455C11.13 14.088 10.6016 14.8152 9.84603 15.2161L6.58807 16.9447C6.3993 17.0449 6.32398 17.2767 6.41783 17.4686L8.03753 20.7821C8.41319 21.5506 8.41319 22.4494 8.03753 23.2179L6.41783 26.5313C6.32398 26.7233 6.3993 26.9551 6.58807 27.0553L9.84603 28.7839C10.6016 29.1848 11.13 29.912 11.2778 30.7545L11.915 34.3872C11.9519 34.5977 12.1491 34.7409 12.3607 34.711L16.0125 34.1945C16.8594 34.0747 17.7143 34.3524 18.3291 34.9472L20.9798 37.5115C21.1334 37.6601 21.3772 37.6601 21.5307 37.5115L24.1815 34.9472C24.7963 34.3524 25.6511 34.0747 26.4981 34.1945L30.1499 34.711C30.3615 34.7409 30.5587 34.5977 30.5956 34.3872L31.2328 30.7545C31.3806 29.912 31.9089 29.1848 32.6645 28.7839L35.9225 27.0553C36.1113 26.9551 36.1866 26.7233 36.0927 26.5313L34.473 23.2179C34.0974 22.4494 34.0974 21.5506 34.473 20.7821L36.0927 17.4686C36.1866 17.2767 36.1113 17.0449 35.9225 16.9447L32.6645 15.2161C31.9089 14.8152 31.3806 14.088 31.2328 13.2455L30.5956 9.61282C30.5587 9.40235 30.3615 9.25908 30.1499 9.289L26.4981 9.80553C25.6511 9.92532 24.7963 9.64757 24.1815 9.05282L21.5307 6.48848Z" fill="white"/>
<path fill-rule="evenodd" clip-rule="evenodd" d="M15.7088 16.8497C15.0524 16.8497 14.5203 17.3819 14.5203 18.0383C14.5203 18.6947 15.0524 19.2268 15.7088 19.2268C16.3652 19.2268 16.8974 18.6947 16.8974 18.0383C16.8974 17.3819 16.3652 16.8497 15.7088 16.8497ZM12.1433 18.0383C12.1433 16.0691 13.7396 14.4727 15.7088 14.4727C17.6781 14.4727 19.2744 16.0691 19.2744 18.0383C19.2744 20.0075 17.6781 21.6038 15.7088 21.6038C13.7396 21.6038 12.1433 20.0075 12.1433 18.0383Z" fill="white"/>
<path fill-rule="evenodd" clip-rule="evenodd" d="M26.8017 24.7732C26.1453 24.7732 25.6132 25.3053 25.6132 25.9617C25.6132 26.6181 26.1453 27.1503 26.8017 27.1503C27.4581 27.1503 27.9902 26.6181 27.9902 25.9617C27.9902 25.3053 27.4581 24.7732 26.8017 24.7732ZM23.2362 25.9617C23.2362 23.9925 24.8325 22.3962 26.8017 22.3962C28.7709 22.3962 30.3673 23.9925 30.3673 25.9617C30.3673 27.9309 28.7709 29.5273 26.8017 29.5273C24.8325 29.5273 23.2362 27.9309 23.2362 25.9617Z" fill="white"/>
<path fill-rule="evenodd" clip-rule="evenodd" d="M28.4349 14.8209C28.8991 15.285 28.8991 16.0376 28.4349 16.5017L15.7569 29.1792C15.2927 29.6433 14.5402 29.6433 14.0761 29.1792C13.6119 28.715 13.6119 27.9625 14.0761 27.4984L26.7541 14.8208C27.2183 14.3567 27.9708 14.3567 28.4349 14.8209Z" fill="white"/>
</svg>
