<svg width="30" height="30" viewBox="0 0 30 30" fill="none" xmlns="http://www.w3.org/2000/svg">
<path d="M15 27C21.6274 27 27 21.6274 27 15C27 8.37258 21.6274 3 15 3C8.37258 3 3 8.37258 3 15C3 21.6274 8.37258 27 15 27Z" fill="#26A5E5"/>
<path fill-rule="evenodd" clip-rule="evenodd" d="M8.42037 14.8693C11.9157 13.3366 14.2521 12.3459 15.4297 11.8599C18.7568 10.4768 19.4484 10.2338 19.897 10.2151C19.9905 10.2151 20.2148 10.2338 20.3643 10.3459C20.4764 10.4394 20.5138 10.5702 20.5325 10.6637C20.5512 10.7571 20.5699 10.9628 20.5512 11.131C20.3643 13.0188 19.5979 17.6356 19.1867 19.7478C19.0185 20.645 18.6821 20.9441 18.3643 20.9814C17.6727 21.0375 17.1307 20.5142 16.4578 20.0842C15.411 19.3927 14.8129 18.9628 13.7849 18.2899C12.6073 17.5048 13.3736 17.0749 14.0465 16.3833C14.2148 16.1964 17.2989 13.4113 17.355 13.1497C17.355 13.1123 17.3736 13.0001 17.2989 12.9441C17.2241 12.888 17.1307 12.9067 17.0559 12.9254C16.9437 12.9441 15.2615 14.0656 11.9905 16.2712C11.5045 16.6076 11.0746 16.7571 10.6821 16.7571C10.2521 16.7571 9.42972 16.5142 8.8129 16.3085C8.06523 16.0656 7.4671 15.9347 7.52318 15.5235C7.56056 15.3179 7.85963 15.0936 8.42037 14.8693Z" fill="white" fill-opacity="0.8"/>
</svg>
