<svg width="30" height="30" viewBox="0 0 30 30" fill="none" xmlns="http://www.w3.org/2000/svg">
<path fill-rule="evenodd" clip-rule="evenodd" d="M23.5031 6.48755C21.2473 4.23969 18.2471 3.00114 15.0504 3C8.4634 3 3.10256 8.33454 3.10027 14.8917C3.09913 16.9878 3.64976 19.0338 4.69546 20.8369L3 27L9.33491 25.3463C11.0802 26.2941 13.0455 26.793 15.0453 26.7936H15.0504C21.6363 26.7936 26.9977 21.4585 27 14.9013C27.0011 11.7235 25.7595 8.73542 23.5031 6.48755Z" fill="#25D366"/>
<path d="M18.458 16.4159C18.732 16.5151 20.1999 17.2336 20.4984 17.3824L20.4979 17.3836C20.7964 17.5324 20.9958 17.6071 21.0703 17.7308C21.1448 17.8546 21.1448 18.4499 20.8961 19.1439C20.6474 19.8379 19.4545 20.4714 18.8809 20.5569C18.3664 20.6334 17.7155 20.6653 17.0004 20.4389C16.5666 20.302 16.0103 20.119 15.298 19.8128C12.303 18.5252 10.3469 15.5241 10.1974 15.3256L10.1955 15.3232C10.0393 15.1159 8.97803 13.7077 8.97803 12.2515C8.97803 10.7894 9.74929 10.0703 10.0232 9.77267C10.297 9.47501 10.6202 9.40088 10.8196 9.40088C11.019 9.40088 11.2178 9.40258 11.392 9.41114C11.5748 9.42084 11.8212 9.34214 12.0636 9.92149C12.3128 10.5162 12.9098 11.9789 12.9844 12.1277C13.0588 12.2766 13.1087 12.4499 13.009 12.6483C12.9093 12.8463 12.86 12.9705 12.7104 13.1439C12.5609 13.3172 12.3964 13.5311 12.2624 13.6645C12.1134 13.8122 11.9576 13.973 12.1318 14.2707C12.3059 14.5683 12.9053 15.5411 13.7928 16.3292C14.9336 17.3414 15.8957 17.655 16.1942 17.8038C16.4927 17.9527 16.6669 17.9281 16.8411 17.7297C17.0153 17.5319 17.5877 16.8624 17.7865 16.5647C17.9854 16.2671 18.1842 16.3166 18.458 16.4159Z" fill="white" fill-opacity="0.8"/>
</svg>
