<svg width="14" height="9" viewBox="0 0 14 9" fill="none" xmlns="http://www.w3.org/2000/svg">
<path d="M6.55163 8.41223C6.40956 8.35429 6.28061 8.26939 6.17223 8.16242L0.342873 2.4562C0.123335 2.2413 0 1.94983 0 1.64591C0 1.342 0.123335 1.05053 0.342873 0.835631C0.562411 0.62073 0.860169 0.5 1.17064 0.5C1.48112 0.5 1.77887 0.62073 1.99841 0.835631L7 5.74298L12.0016 0.835631C12.2211 0.62073 12.5189 0.5 12.8294 0.5C13.1398 0.5 13.4376 0.62073 13.6571 0.835631C13.8767 1.05053 14 1.342 14 1.64591C14 1.94983 13.8767 2.2413 13.6571 2.4562L7.82777 8.16242C7.71939 8.26939 7.59044 8.35429 7.44837 8.41223C7.3063 8.47017 7.15391 8.5 7 8.5C6.84609 8.5 6.69371 8.47017 6.55163 8.41223Z" fill="#B7B7B7"/>
</svg>
