<svg width="167" height="178" viewBox="0 0 167 178" fill="none" xmlns="http://www.w3.org/2000/svg">
<path d="M136.217 0H83.4214H30.6257C30.6257 0 34.5441 26.7119 0 35.8566C0 35.8566 11.0679 144.079 83.4214 177.323C155.775 144.079 166.843 35.8566 166.843 35.8566C132.299 26.7463 136.217 0 136.217 0Z" fill="url(#paint0_linear_61_1902)"/>
<path d="M83.4213 166.426C70.1192 159.482 58.1577 149.1 47.8117 135.486C38.4624 123.178 30.4193 108.258 23.8886 91.1035C16.258 71.061 12.477 52.5998 10.8271 42.5957C26.604 36.3045 33.8909 26.2317 37.2594 18.359C38.5655 15.3337 39.3561 12.4116 39.8373 9.79883H126.971C127.452 12.4116 128.277 15.3337 129.549 18.359C132.917 26.2317 140.204 36.3045 155.981 42.5957C154.331 52.5654 150.55 71.061 142.92 91.1035C136.389 108.258 128.346 123.213 118.997 135.486C108.685 149.1 96.7234 159.482 83.4213 166.426Z" fill="url(#paint1_linear_61_1902)"/>
<g opacity="0.4">
<path d="M53.4829 138.752C44.1336 126.444 36.0905 111.524 29.5598 94.3692C21.9292 74.3267 18.1482 55.8656 16.4984 45.8958C32.2752 39.6046 39.5621 29.5318 42.9306 21.6591C44.2368 18.6339 45.0273 15.7117 45.5085 13.0989H127.727C127.418 11.9645 127.177 10.8987 126.971 9.83301H39.8715C39.3903 12.4458 38.5653 15.3679 37.2936 18.3932C33.9251 26.2658 26.6382 36.3387 10.8613 42.6299C12.5112 52.5996 16.2921 71.0951 23.9228 91.1377C30.4535 108.292 38.4966 123.247 47.8459 135.52C58.02 148.928 69.8097 159.207 82.8712 166.151C72.0095 159.379 62.1791 150.2 53.4829 138.752Z" fill="black"/>
</g>
<g opacity="0.62">
<path d="M104.973 79.8277H61.8359V58.2725C61.8359 46.3776 71.4945 36.7173 83.3873 36.7173C95.2801 36.7173 104.939 46.3776 104.939 58.2725V79.8277H104.973ZM66.5106 75.1866H100.333V58.2725C100.333 48.956 92.7366 41.3584 83.4217 41.3584C74.1068 41.3584 66.5106 48.956 66.5106 58.2725V75.1866Z" fill="#CCD9FD"/>
</g>
<path d="M105.214 68.8599H61.6296C58.4674 68.8599 55.9238 71.4038 55.9238 74.5667V112.383C55.9238 115.546 58.4674 118.09 61.6296 118.09H105.248C108.41 118.09 110.954 115.546 110.954 112.383V74.5667C110.919 71.4382 108.376 68.8599 105.214 68.8599ZM87.5119 99.0096V103.548C87.5119 105.782 85.6902 107.639 83.4216 107.639C81.1874 107.639 79.3313 105.817 79.3313 103.548V99.0096C77.9564 98.0814 76.8565 96.6719 76.3753 94.953C75.2754 91.0682 77.544 87.046 81.428 85.9459C85.3121 84.8458 89.3336 87.1147 90.4335 90.9995C91.3272 94.0935 90.0555 97.2907 87.5119 99.0096Z" fill="#CCD9FD"/>
<defs>
<linearGradient id="paint0_linear_61_1902" x1="-0.0118928" y1="88.6727" x2="166.851" y2="88.6727" gradientUnits="userSpaceOnUse">
<stop offset="1e-08" stop-color="#96B3F9"/>
<stop offset="1" stop-color="#4870FA"/>
</linearGradient>
<linearGradient id="paint1_linear_61_1902" x1="10.8481" y1="88.1179" x2="155.99" y2="88.1179" gradientUnits="userSpaceOnUse">
<stop stop-color="#4870FA"/>
<stop offset="1" stop-color="#96B3F9"/>
</linearGradient>
</defs>
</svg>
