<svg width="167" height="178" viewBox="0 0 167 178" fill="none" xmlns="http://www.w3.org/2000/svg">
<path d="M136.217 0H83.4214H30.6257C30.6257 0 34.5441 26.7119 0 35.8566C0 35.8566 11.0679 144.079 83.4214 177.323C155.775 144.079 166.843 35.8566 166.843 35.8566C132.299 26.7463 136.217 0 136.217 0Z" fill="url(#paint0_linear_109_2106)"/>
<path d="M83.4223 166.426C70.1202 159.482 58.1587 149.099 47.8126 135.486C38.4634 123.178 30.4203 108.258 23.8896 91.1033C16.2589 71.0607 12.478 52.5996 10.8281 42.5955C26.605 36.3043 33.8919 26.2314 37.2604 18.3588C38.5665 15.3335 39.3571 12.4113 39.8383 9.79858H126.972C127.453 12.4113 128.278 15.3335 129.55 18.3588C132.918 26.2314 140.205 36.3043 155.982 42.5955C154.332 52.5652 150.551 71.0607 142.921 91.1033C136.39 108.258 128.347 123.213 118.998 135.486C108.686 149.099 96.7243 159.482 83.4223 166.426Z" fill="url(#paint1_linear_109_2106)"/>
<g opacity="0.4">
<path d="M53.4829 138.752C44.1336 126.444 36.0905 111.524 29.5598 94.3692C21.9292 74.3267 18.1482 55.8656 16.4984 45.8958C32.2752 39.6046 39.5621 29.5318 42.9306 21.6591C44.2368 18.6339 45.0273 15.7117 45.5085 13.0989H127.727C127.418 11.9645 127.177 10.8987 126.971 9.83301H39.8715C39.3903 12.4458 38.5653 15.3679 37.2936 18.3932C33.9251 26.2658 26.6382 36.3387 10.8613 42.6299C12.5112 52.5996 16.2921 71.0951 23.9228 91.1377C30.4535 108.292 38.4966 123.247 47.8459 135.52C58.02 148.928 69.8097 159.207 82.8712 166.151C72.0095 159.379 62.1791 150.2 53.4829 138.752Z" fill="black"/>
</g>
<g opacity="0.62">
<path d="M104.973 79.8277H61.8359V58.2725C61.8359 46.3776 71.4945 36.7173 83.3873 36.7173C95.2801 36.7173 104.939 46.3776 104.939 58.2725V79.8277H104.973ZM66.5106 75.1866H100.333V58.2725C100.333 48.956 92.7366 41.3584 83.4217 41.3584C74.1068 41.3584 66.5106 48.956 66.5106 58.2725V75.1866Z" fill="white"/>
</g>
<path d="M105.214 68.8599H61.6296C58.4674 68.8599 55.9238 71.4038 55.9238 74.5667V112.383C55.9238 115.546 58.4674 118.09 61.6296 118.09H105.248C108.41 118.09 110.954 115.546 110.954 112.383V74.5667C110.919 71.4382 108.376 68.8599 105.214 68.8599ZM87.5119 99.0096V103.548C87.5119 105.782 85.6902 107.639 83.4216 107.639C81.1874 107.639 79.3313 105.817 79.3313 103.548V99.0096C77.9564 98.0814 76.8565 96.6719 76.3753 94.953C75.2754 91.0682 77.544 87.046 81.428 85.9459C85.3121 84.8458 89.3336 87.1147 90.4335 90.9995C91.3272 94.0935 90.0555 97.2907 87.5119 99.0096Z" fill="white"/>
<defs>
<linearGradient id="paint0_linear_109_2106" x1="-0.0556522" y1="88.6624" x2="166.886" y2="88.6624" gradientUnits="userSpaceOnUse">
<stop offset="1e-08" stop-color="#3EAAC7"/>
<stop offset="0.579348" stop-color="#78D3EB"/>
<stop offset="1" stop-color="#4EA0B6"/>
</linearGradient>
<linearGradient id="paint1_linear_109_2106" x1="10.7797" y1="88.1131" x2="156.019" y2="88.1131" gradientUnits="userSpaceOnUse">
<stop offset="1e-08" stop-color="#3EAAC7"/>
<stop offset="1" stop-color="#78D3EB"/>
</linearGradient>
</defs>
</svg>
