<svg width="112" height="196" fill="none" xmlns="http://www.w3.org/2000/svg"><path d="m0 115.392 54.47-29.074 57.448 29.935-57.448 33.109L0 115.392Z" fill="url(#a)"/><path opacity=".7" d="M54.47 0 0 115.391l54.47 33.971V0Z" fill="url(#b)"/><path opacity=".7" d="M54.47 0v149.362l57.448-33.109L54.47 0Z" fill="url(#c)"/><path d="m0 115.391 54.47 79.696v-45.725L0 115.391Z" fill="url(#d)"/><path d="m54.47 195.088 57.448-78.834-57.448 33.109v45.725Z" fill="url(#e)"/><path opacity=".5" d="M111.722 115.862 54.47 148.814.196 115l-.196.392 54.47 33.971v45.725l.51-.744v-44.981l56.938-33.109-.196-.392Z" fill="#fff"/><defs><linearGradient id="a" x1=".017" y1="117.829" x2="111.933" y2="117.829" gradientUnits="userSpaceOnUse"><stop stop-color="#4870FA"/><stop offset="1" stop-color="#96B3F9"/></linearGradient><linearGradient id="b" x1=".017" y1="74.684" x2="54.451" y2="74.684" gradientUnits="userSpaceOnUse"><stop offset="0" stop-color="#96B3F9"/><stop offset="1" stop-color="#4870FA"/></linearGradient><linearGradient id="c" x1="54.451" y1="74.684" x2="111.933" y2="74.684" gradientUnits="userSpaceOnUse"><stop offset="0" stop-color="#96B3F9"/><stop offset="1" stop-color="#4870FA"/></linearGradient><linearGradient id="d" x1=".017" y1="155.235" x2="54.451" y2="155.235" gradientUnits="userSpaceOnUse"><stop stop-color="#4870FA"/><stop offset="1" stop-color="#96B3F9"/></linearGradient><linearGradient id="e" x1="54.451" y1="155.671" x2="111.933" y2="155.671" gradientUnits="userSpaceOnUse"><stop offset="0" stop-color="#96B3F9"/><stop offset="1" stop-color="#4870FA"/></linearGradient></defs></svg>