<svg width="47" height="48" fill="none" xmlns="http://www.w3.org/2000/svg"><path d="M23.413 35.975c-6.467 0-11.776-5.309-11.776-11.777 0-6.467 5.26-11.776 11.776-11.776s11.777 5.26 11.777 11.776c0 6.468-5.31 11.777-11.777 11.777Zm0-20.368c-4.73 0-8.59 3.862-8.59 8.591 0 4.73 3.86 8.592 8.59 8.592s8.591-3.861 8.591-8.591c0-4.73-3.86-8.592-8.59-8.592ZM39.098 11.94a2.925 2.925 0 0 1-2.944 2.944 2.925 2.925 0 0 1-2.944-2.944 2.925 2.925 0 0 1 2.944-2.944c1.641 0 2.944 1.351 2.944 2.944Z" fill="#fff"/><path d="M36.685 47.269H10.477C4.878 47.269.293 42.684.293 37.085V10.877C.293 5.28 4.878.693 10.477.693h26.208c5.598 0 10.184 4.586 10.184 10.184v26.208A10.155 10.155 0 0 1 36.685 47.27ZM10.477 3.879c-3.861 0-7.047 3.137-7.047 7.046v26.208c0 3.862 3.137 7.047 7.047 7.047h26.208c3.86 0 7.046-3.137 7.046-7.047V10.877c0-3.86-3.137-7.046-7.046-7.046H10.477v.048Z" fill="#fff"/></svg>