<svg width="28" height="19" viewBox="0 0 28 19" fill="none" xmlns="http://www.w3.org/2000/svg">
<path d="M26.5222 7.7793H1.47778C0.661624 7.7793 0 8.41729 0 9.2043V9.3543C0 10.1413 0.661624 10.7793 1.47778 10.7793H26.5222C27.3384 10.7793 28 10.1413 28 9.3543V9.2043C28 8.41729 27.3384 7.7793 26.5222 7.7793Z" fill="#838383"/>
<path d="M26.5222 15.5547H1.47778C0.661624 15.5547 0 16.1927 0 16.9797V17.1297C0 17.9167 0.661624 18.5547 1.47778 18.5547H26.5222C27.3384 18.5547 28 17.9167 28 17.1297V16.9797C28 16.1927 27.3384 15.5547 26.5222 15.5547Z" fill="#838383"/>
<path d="M26.5222 0H1.47778C0.661624 0 0 0.637994 0 1.425V1.575C0 2.36201 0.661624 3 1.47778 3H26.5222C27.3384 3 28 2.36201 28 1.575V1.425C28 0.637994 27.3384 0 26.5222 0Z" fill="#838383"/>
</svg>
