<svg width="16" height="24" viewBox="0 0 16 24" fill="none" xmlns="http://www.w3.org/2000/svg">
<path d="M3.27267 3.68725C3.18245 3.59178 3.11192 3.47947 3.0651 3.35674C3.01829 3.23401 2.9961 3.10327 2.99982 2.97196C3.00353 2.84066 3.03307 2.71138 3.08675 2.59149C3.14043 2.47161 3.2172 2.36347 3.31267 2.27325C3.40814 2.18303 3.52044 2.1125 3.64317 2.06569C3.7659 2.01887 3.89665 1.99669 4.02795 2.0004C4.15925 2.00411 4.28854 2.03365 4.40842 2.08733C4.52831 2.14101 4.63645 2.21778 4.72667 2.31325L13.2267 11.3132C13.4022 11.4989 13.5 11.7447 13.5 12.0002C13.5 12.2558 13.4022 12.5016 13.2267 12.6872L4.72667 21.6882C4.63704 21.7858 4.52893 21.8646 4.4086 21.92C4.28828 21.9754 4.15814 22.0064 4.02574 22.0111C3.89335 22.0158 3.76134 21.9942 3.63738 21.9474C3.51342 21.9007 3.39999 21.8298 3.30367 21.7388C3.20735 21.6479 3.13006 21.5387 3.07629 21.4176C3.02253 21.2965 2.99336 21.166 2.99047 21.0335C2.98759 20.9011 3.01105 20.7694 3.05949 20.6461C3.10794 20.5228 3.1804 20.4103 3.27267 20.3153L11.1247 12.0002L3.27267 3.68725Z" fill="white"/>
</svg>
