<svg width="691" height="517" viewBox="0 0 691 517" fill="none" xmlns="http://www.w3.org/2000/svg">
<rect x="391" y="375" width="20" height="12" fill="#D9D9D9"/>
<path d="M233 11.5829L254.921 23.5794L278.083 12.4102L255.335 0L233 11.5829Z" fill="url(#paint0_linear_61_719)"/>
<path d="M233 11.582V38.0571L255.335 50.0537L254.921 23.5786L233 11.582Z" fill="url(#paint1_linear_61_719)"/>
<path d="M254.922 23.5813L255.336 50.0564L278.084 37.6462V12.4121L254.922 23.5813Z" fill="url(#paint2_linear_61_719)"/>
<path opacity="0.5" d="M233 38.0555L254.921 50.052L278.083 37.6418L255.335 26.4727L233 38.0555Z" fill="url(#paint3_linear_61_719)"/>
<path d="M63 316.705L81.5036 326.861L100.91 317.156L81.9549 307L63 316.705Z" fill="url(#paint4_linear_61_719)"/>
<path d="M63 316.705V339.048L81.9549 349.43L81.5036 326.861L63 316.705Z" fill="url(#paint5_linear_61_719)"/>
<path d="M81.5039 326.861L81.9552 349.43L100.91 338.597V317.156L81.5039 326.861Z" fill="url(#paint6_linear_61_719)"/>
<path opacity="0.5" d="M63 339.274L81.5036 349.43L100.91 338.597L81.9549 329.344L63 339.274Z" fill="url(#paint7_linear_61_719)"/>
<g opacity="0.4">
<path d="M77.3643 99.6094H41.4346V143.118H77.3643V99.6094Z" fill="url(#paint8_linear_61_719)"/>
<path d="M54.6501 99.6094H41.4346V143.118H54.6501V99.6094Z" fill="url(#paint9_linear_61_719)"/>
<path d="M65.5249 55L39.5068 102.226L93.4703 98.5083L65.5249 55Z" fill="url(#paint10_linear_61_719)"/>
<path d="M27.5303 99.3336L79.0158 94.6523L93.4703 98.5075L39.5068 102.225L27.5303 99.3336Z" fill="url(#paint11_linear_61_719)"/>
<path d="M65.5249 55H52.86L27.5303 99.3344L39.5068 102.226" fill="url(#paint12_linear_61_719)"/>
<path opacity="0.5" d="M65.5241 55L60.0176 65.051L79.5656 94.6531L93.8824 98.5083L65.5241 55Z" fill="url(#paint13_linear_61_719)"/>
</g>
<g opacity="0.56">
<path d="M531.772 274.363H495.216V318.599H531.772V274.363Z" fill="url(#paint14_linear_61_719)"/>
<path d="M508.529 274.363H495.216V318.599H508.529V274.363Z" fill="url(#paint15_linear_61_719)"/>
<path d="M519.587 229L493.186 277.072L548.019 273.461L519.587 229Z" fill="url(#paint16_linear_61_719)"/>
<path d="M481 274.138L533.352 269.399L548.019 273.461L493.185 277.072L481 274.138Z" fill="url(#paint17_linear_61_719)"/>
<path d="M519.587 229H506.724L481 274.138L493.185 277.072" fill="url(#paint18_linear_61_719)"/>
<path opacity="0.5" d="M519.587 229L513.945 239.382L533.803 269.399L548.47 273.461L519.587 229Z" fill="url(#paint19_linear_61_719)"/>
</g>
<path d="M345.322 516.653C536.038 516.653 690.644 486.794 690.644 449.96C690.644 413.127 536.038 383.268 345.322 383.268C154.606 383.268 0 413.127 0 449.96C0 486.794 154.606 516.653 345.322 516.653Z" fill="url(#paint20_linear_61_719)"/>
<path opacity="0.2" d="M345.321 391.174C529.231 391.174 679.573 418.848 690.286 453.914C690.643 452.539 691 451.335 691 449.96C691 413.176 536.373 383.268 345.678 383.268C154.983 383.268 0.355957 413.176 0.355957 449.96C0.355957 451.335 0.713053 452.539 1.07016 453.914C11.0691 419.02 161.411 391.174 345.321 391.174Z" fill="black"/>
<path d="M567.8 411.457C514.591 399.081 434.956 391.174 346.037 391.174C257.117 391.174 177.482 399.081 124.274 411.457H56.4233V448.756C57.8518 480.04 187.124 505.308 346.394 505.308C505.664 505.308 634.936 480.04 636.365 448.756V411.457H567.8Z" fill="url(#paint21_linear_61_719)"/>
<path d="M346.038 503.417C186.768 503.417 57.4958 478.149 56.0674 446.865V448.584C57.4958 479.868 186.768 505.135 346.038 505.135C505.308 505.135 634.58 479.868 636.009 448.584V446.865C634.58 478.321 505.308 503.417 346.038 503.417Z" fill="black"/>
<path d="M346.038 468.353C506.184 468.353 636.009 442.88 636.009 411.458C636.009 380.035 506.184 354.562 346.038 354.562C185.892 354.562 56.0674 380.035 56.0674 411.458C56.0674 442.88 185.892 468.353 346.038 468.353Z" fill="url(#paint22_linear_61_719)"/>
<path d="M345.324 456.148C486.34 456.148 600.655 435.677 600.655 410.425C600.655 385.174 486.34 364.703 345.324 364.703C204.308 364.703 89.9927 385.174 89.9927 410.425C89.9927 435.677 204.308 456.148 345.324 456.148Z" fill="#FCFAFF"/>
<path d="M346.038 466.29C187.84 466.29 58.9242 441.366 56.0674 410.426C56.0674 410.77 56.0674 411.113 56.0674 411.457C56.0674 442.913 185.697 468.352 346.038 468.352C506.022 468.352 636.009 442.913 636.009 411.457C636.009 411.113 636.009 410.77 636.009 410.426C633.152 441.366 504.593 466.29 346.038 466.29Z" fill="white"/>
<path d="M523.553 391.173C480.857 384.125 417.566 379.656 346.237 379.656C275.411 379.656 211.618 384.125 168.921 391.173H115.174V412.315C116.178 430.02 219.655 444.458 346.74 444.458C473.825 444.458 577.301 430.191 578.305 412.315V391.173H523.553Z" fill="url(#paint23_linear_61_719)"/>
<path d="M346.239 443.428C219.154 443.428 115.677 429.162 114.673 411.285V412.316C115.677 430.021 219.154 444.46 346.239 444.46C473.324 444.46 576.8 430.193 577.804 412.316V411.285C576.8 429.162 473.826 443.428 346.239 443.428Z" fill="black"/>
<path d="M346.239 423.489C474.129 423.489 577.804 409.021 577.804 391.174C577.804 373.327 474.129 358.859 346.239 358.859C218.348 358.859 114.673 373.327 114.673 391.174C114.673 409.021 218.348 423.489 346.239 423.489Z" fill="url(#paint24_linear_61_719)"/>
<path d="M345.737 416.613C458.37 416.613 549.676 404.993 549.676 390.658C549.676 376.324 458.37 364.703 345.737 364.703C233.105 364.703 141.799 376.324 141.799 390.658C141.799 404.993 233.105 416.613 345.737 416.613Z" fill="#FCFAFF"/>
<path d="M346.239 422.284C219.656 422.284 117.184 408.189 114.673 390.656C114.673 390.828 114.673 391 114.673 391.172C114.673 409.048 218.149 423.487 346.239 423.487C474.328 423.487 577.804 409.048 577.804 391.172C577.804 391 577.804 390.828 577.804 390.656C575.795 408.189 472.821 422.284 346.239 422.284Z" fill="white"/>
<path d="M90.2295 184V416.94C90.2295 437.973 204.476 455 345.5 455C486.523 455 600.77 437.973 600.77 416.94V184H90.2295Z" fill="url(#paint25_linear_61_719)" fill-opacity="0.32"/>
<path d="M487.744 180.899C493.414 169.02 488.841 148.918 475.335 130.941C461.549 112.97 443.146 103.213 430.015 105.696L428.868 104.316L422.509 109.198C410.632 118.948 414.171 143.836 430.261 165.129C446.351 186.423 469.523 196.372 481.976 187.453L488.891 182.28L487.744 180.899Z" fill="url(#paint26_linear_61_719)"/>
<path d="M488.62 182.846C476.177 192.326 452.724 182.382 436.349 160.813C419.974 139.244 416.71 114.071 429.152 104.591C441.595 95.1116 465.048 105.056 481.423 126.625C497.798 148.194 501.062 173.367 488.62 182.846Z" fill="url(#paint27_linear_61_719)"/>
<path d="M483.136 174.258C473.18 181.729 454.534 173.94 441.603 156.794C428.393 139.653 426.062 119.509 435.738 112.043C445.694 104.571 464.341 112.361 477.271 129.507C490.481 146.648 493.093 166.786 483.136 174.258Z" fill="url(#paint28_linear_61_719)"/>
<path d="M442.982 155.647C430.628 139.332 427.757 120.32 436.883 113.424C446.009 106.528 463.534 114.338 475.888 130.654C488.242 146.969 491.114 165.981 481.988 172.877C472.862 179.773 455.336 171.963 442.982 155.647ZM475.613 130.939C463.259 114.624 446.014 106.809 436.888 113.704C428.042 120.595 430.628 139.332 442.982 155.647C455.336 171.963 472.577 179.497 481.702 172.602C490.833 165.986 487.962 146.974 475.613 130.939Z" fill="white"/>
<path d="M442.512 127L452.46 144.542L455.216 131.265L450.294 122.587L451.484 121.912L456.406 130.59L466.66 124.774L463.382 140.544L479.685 144.965L470.529 150.158L475.516 159.165L474.431 160.025L463.396 140.781L459.843 156.706L464.817 165.477L463.627 166.152L458.653 157.381L448.464 162.672L452.003 146.51L435.44 142.481L446.243 136.354L441.321 127.675L442.512 127Z" fill="white" fill-opacity="0.63"/>
<path d="M261.707 218.794C258.077 211.189 261.005 198.319 269.651 186.81C278.478 175.304 290.259 169.058 298.666 170.648L299.4 169.764L303.471 172.89C311.075 179.132 308.809 195.065 298.508 208.697C288.207 222.33 273.372 228.7 265.4 222.99L260.973 219.678L261.707 218.794Z" fill="url(#paint29_linear_61_719)"/>
<path d="M261.147 220.04C269.113 226.109 284.127 219.742 294.611 205.934C305.094 192.125 307.184 176.009 299.218 169.94C291.252 163.871 276.238 170.237 265.754 184.046C255.27 197.855 253.18 213.971 261.147 220.04Z" fill="url(#paint30_linear_61_719)"/>
<path d="M264.657 214.54C271.031 219.324 282.969 214.337 291.247 203.36C299.704 192.386 301.197 179.49 295.002 174.71C288.628 169.927 276.69 174.913 268.412 185.89C259.955 196.864 258.283 209.757 264.657 214.54Z" fill="url(#paint31_linear_61_719)"/>
<path d="M290.364 202.627C298.273 192.182 300.111 180.01 294.269 175.595C288.426 171.181 277.206 176.181 269.297 186.626C261.388 197.071 259.549 209.243 265.392 213.658C271.234 218.072 282.454 213.072 290.364 202.627ZM269.473 186.809C277.382 176.363 288.423 171.36 294.265 175.775C299.928 180.186 298.273 192.182 290.364 202.627C282.454 213.072 271.417 217.896 265.575 213.482C259.729 209.246 261.567 197.075 269.473 186.809Z" fill="white"/>
<path d="M290.664 184.288L284.295 195.518L282.531 187.018L285.682 181.462L284.92 181.03L281.769 186.586L275.204 182.863L277.302 192.958L266.866 195.789L272.727 199.113L269.534 204.88L270.229 205.43L277.294 193.11L279.568 203.306L276.384 208.921L277.146 209.353L280.33 203.738L286.854 207.125L284.587 196.778L295.192 194.199L288.275 190.276L291.426 184.72L290.664 184.288Z" fill="white" fill-opacity="0.63"/>
<defs>
<linearGradient id="paint0_linear_61_719" x1="240.403" y1="12.404" x2="274.457" y2="11.3185" gradientUnits="userSpaceOnUse">
<stop stop-color="#4870F4"/>
<stop offset="1" stop-color="#E8EDFC"/>
</linearGradient>
<linearGradient id="paint1_linear_61_719" x1="236.53" y1="31.1533" x2="253.583" y2="30.6095" gradientUnits="userSpaceOnUse">
<stop stop-color="#4870F4"/>
<stop offset="1" stop-color="#E8EDFC"/>
</linearGradient>
<linearGradient id="paint2_linear_61_719" x1="258.734" y1="31.451" x2="276.685" y2="30.8787" gradientUnits="userSpaceOnUse">
<stop stop-color="#4870F4"/>
<stop offset="1" stop-color="#E8EDFC"/>
</linearGradient>
<linearGradient id="paint3_linear_61_719" x1="240.409" y1="38.7993" x2="274.491" y2="37.7125" gradientUnits="userSpaceOnUse">
<stop stop-color="#4870F4"/>
<stop offset="1" stop-color="#E8EDFC"/>
</linearGradient>
<linearGradient id="paint4_linear_61_719" x1="69.1114" y1="317.318" x2="98.0837" y2="316.394" gradientUnits="userSpaceOnUse">
<stop stop-color="#4870F4"/>
<stop offset="1" stop-color="#E8EDFC"/>
</linearGradient>
<linearGradient id="paint5_linear_61_719" x1="65.8164" y1="333.27" x2="80.3245" y2="332.808" gradientUnits="userSpaceOnUse">
<stop stop-color="#4870F4"/>
<stop offset="1" stop-color="#E8EDFC"/>
</linearGradient>
<linearGradient id="paint6_linear_61_719" x1="84.7064" y1="333.521" x2="99.979" y2="333.034" gradientUnits="userSpaceOnUse">
<stop stop-color="#4870F4"/>
<stop offset="1" stop-color="#E8EDFC"/>
</linearGradient>
<linearGradient id="paint7_linear_61_719" x1="69.1166" y1="339.776" x2="98.1125" y2="338.852" gradientUnits="userSpaceOnUse">
<stop stop-color="#4870F4"/>
<stop offset="1" stop-color="#E8EDFC"/>
</linearGradient>
<linearGradient id="paint8_linear_61_719" x1="59.4121" y1="143.121" x2="59.4121" y2="99.6019" gradientUnits="userSpaceOnUse">
<stop stop-color="#E8EDFC" stop-opacity="0"/>
<stop offset="1" stop-color="#4870F4"/>
</linearGradient>
<linearGradient id="paint9_linear_61_719" x1="48.0644" y1="143.121" x2="48.0644" y2="99.6019" gradientUnits="userSpaceOnUse">
<stop stop-color="#4870F4" stop-opacity="0"/>
<stop offset="1" stop-color="#E8EDFC"/>
</linearGradient>
<linearGradient id="paint10_linear_61_719" x1="39.5363" y1="78.5797" x2="93.4153" y2="78.5797" gradientUnits="userSpaceOnUse">
<stop stop-color="#4870F4"/>
<stop offset="1" stop-color="#E8EDFC"/>
</linearGradient>
<linearGradient id="paint11_linear_61_719" x1="27.5718" y1="98.4588" x2="93.4154" y2="98.4588" gradientUnits="userSpaceOnUse">
<stop stop-color="#4870F4"/>
<stop offset="1" stop-color="#E8EDFC"/>
</linearGradient>
<linearGradient id="paint12_linear_61_719" x1="27.5717" y1="78.5797" x2="65.4723" y2="78.5797" gradientUnits="userSpaceOnUse">
<stop stop-color="#4870F4"/>
<stop offset="1" stop-color="#E8EDFC"/>
</linearGradient>
<linearGradient id="paint13_linear_61_719" x1="59.9523" y1="76.7269" x2="93.9412" y2="76.7269" gradientUnits="userSpaceOnUse">
<stop stop-color="#E8EDFC"/>
<stop offset="1" stop-color="#4870F4"/>
</linearGradient>
<linearGradient id="paint14_linear_61_719" x1="513.412" y1="318.722" x2="513.412" y2="274.473" gradientUnits="userSpaceOnUse">
<stop stop-color="#E8EDFC" stop-opacity="0"/>
<stop offset="1" stop-color="#4870F4"/>
</linearGradient>
<linearGradient id="paint15_linear_61_719" x1="501.873" y1="318.722" x2="501.873" y2="274.473" gradientUnits="userSpaceOnUse">
<stop stop-color="#4870F4" stop-opacity="0"/>
<stop offset="1" stop-color="#E8EDFC"/>
</linearGradient>
<linearGradient id="paint16_linear_61_719" x1="493.203" y1="253.098" x2="547.987" y2="253.098" gradientUnits="userSpaceOnUse">
<stop stop-color="#4870F4"/>
<stop offset="1" stop-color="#E8EDFC"/>
</linearGradient>
<linearGradient id="paint17_linear_61_719" x1="481.038" y1="273.311" x2="547.987" y2="273.311" gradientUnits="userSpaceOnUse">
<stop stop-color="#4870F4"/>
<stop offset="1" stop-color="#E8EDFC"/>
</linearGradient>
<linearGradient id="paint18_linear_61_719" x1="481.037" y1="253.098" x2="519.575" y2="253.098" gradientUnits="userSpaceOnUse">
<stop stop-color="#4870F4"/>
<stop offset="1" stop-color="#E8EDFC"/>
</linearGradient>
<linearGradient id="paint19_linear_61_719" x1="513.963" y1="251.214" x2="548.522" y2="251.214" gradientUnits="userSpaceOnUse">
<stop stop-color="#E8EDFC"/>
<stop offset="1" stop-color="#4870F4"/>
</linearGradient>
<linearGradient id="paint20_linear_61_719" x1="-0.0514234" y1="450.044" x2="690.883" y2="450.044" gradientUnits="userSpaceOnUse">
<stop offset="1e-08" stop-color="#96B3F9"/>
<stop offset="1" stop-color="#4870FA"/>
</linearGradient>
<linearGradient id="paint21_linear_61_719" x1="56.3026" y1="448.181" x2="636.069" y2="448.181" gradientUnits="userSpaceOnUse">
<stop stop-color="#F1F2FB"/>
<stop offset="1" stop-color="#E2E6F7"/>
</linearGradient>
<linearGradient id="paint22_linear_61_719" x1="56.3038" y1="411.475" x2="636.07" y2="411.475" gradientUnits="userSpaceOnUse">
<stop stop-color="#F2F0FB"/>
<stop offset="1" stop-color="#F4F3FB"/>
</linearGradient>
<linearGradient id="paint23_linear_61_719" x1="114.937" y1="412.006" x2="577.957" y2="412.006" gradientUnits="userSpaceOnUse">
<stop stop-color="#F1F2FB"/>
<stop offset="1" stop-color="#E2E6F7"/>
</linearGradient>
<linearGradient id="paint24_linear_61_719" x1="114.939" y1="391.167" x2="577.958" y2="391.167" gradientUnits="userSpaceOnUse">
<stop stop-color="#F2F0FB"/>
<stop offset="1" stop-color="#F4F3FB"/>
</linearGradient>
<linearGradient id="paint25_linear_61_719" x1="345.593" y1="455.014" x2="345.593" y2="184.025" gradientUnits="userSpaceOnUse">
<stop stop-color="#4870FA"/>
<stop offset="1" stop-color="#96B3F9" stop-opacity="0"/>
</linearGradient>
<linearGradient id="paint26_linear_61_719" x1="422.964" y1="109.151" x2="482.575" y2="187.404" gradientUnits="userSpaceOnUse">
<stop offset="1e-08" stop-color="#8CA5E7"/>
<stop offset="1" stop-color="#4369E9"/>
</linearGradient>
<linearGradient id="paint27_linear_61_719" x1="428.905" y1="104.626" x2="488.516" y2="182.879" gradientUnits="userSpaceOnUse">
<stop offset="1e-08" stop-color="#96B3F9"/>
<stop offset="1" stop-color="#4870FA"/>
</linearGradient>
<linearGradient id="paint28_linear_61_719" x1="435.732" y1="112.13" x2="483.097" y2="174.307" gradientUnits="userSpaceOnUse">
<stop stop-color="#4870FA"/>
<stop offset="1" stop-color="#96B3F9"/>
</linearGradient>
<linearGradient id="paint29_linear_61_719" x1="303.18" y1="172.86" x2="265.016" y2="222.958" gradientUnits="userSpaceOnUse">
<stop offset="1e-08" stop-color="#8CA5E7"/>
<stop offset="1" stop-color="#4369E9"/>
</linearGradient>
<linearGradient id="paint30_linear_61_719" x1="299.377" y1="169.962" x2="261.213" y2="220.06" gradientUnits="userSpaceOnUse">
<stop offset="1e-08" stop-color="#96B3F9"/>
<stop offset="1" stop-color="#4870FA"/>
</linearGradient>
<linearGradient id="paint31_linear_61_719" x1="295.005" y1="174.766" x2="264.682" y2="214.572" gradientUnits="userSpaceOnUse">
<stop stop-color="#4870FA"/>
<stop offset="1" stop-color="#96B3F9"/>
</linearGradient>
</defs>
</svg>
