<svg width="232" height="181" viewBox="0 0 232 181" fill="none" xmlns="http://www.w3.org/2000/svg">
<path d="M156.888 37.4141H114.33H71.7726C71.7726 37.4141 74.9312 58.946 47.0859 66.3173C47.0859 66.3173 56.0075 153.554 114.33 180.351C172.653 153.554 181.574 66.3173 181.574 66.3173C153.729 58.9737 156.888 37.4141 156.888 37.4141Z" fill="url(#paint0_linear_109_955)"/>
<path d="M156.888 37.4141H114.33H71.7726C71.7726 37.4141 74.9312 58.946 47.0859 66.3173C47.0859 66.3173 56.0075 153.554 114.33 180.351C172.653 153.554 181.574 66.3173 181.574 66.3173C153.729 58.9737 156.888 37.4141 156.888 37.4141Z" fill="url(#paint1_linear_109_955)"/>
<path d="M114.329 171.567C103.607 165.969 93.9647 157.6 85.6249 146.626C78.0887 136.705 71.6053 124.679 66.3411 110.85C60.1902 94.6946 57.1424 79.8135 55.8125 71.7494C68.5299 66.6782 74.4037 58.5587 77.119 52.2127C78.1718 49.7741 78.8091 47.4186 79.197 45.3125H149.434C149.821 47.4186 150.486 49.7741 151.512 52.2127C154.227 58.5587 160.101 66.6782 172.818 71.7494C171.488 79.7858 168.44 94.6946 162.289 110.85C157.025 124.679 150.542 136.733 143.006 146.626C134.694 157.6 125.052 165.969 114.329 171.567Z" fill="url(#paint2_linear_109_955)"/>
<g opacity="0.4">
<path d="M90.1962 149.258C82.66 139.338 76.1766 127.311 70.9123 113.483C64.7614 97.3269 61.7137 82.4457 60.3837 74.4093C73.1011 69.3381 78.975 61.2186 81.6902 54.8726C82.7431 52.434 83.3803 50.0785 83.7682 47.9724H150.043C149.793 47.058 149.599 46.1989 149.433 45.3398H79.2243C78.8364 47.4459 78.1715 49.8014 77.1463 52.24C74.4311 58.586 68.5572 66.7055 55.8398 71.7767C57.1698 79.8131 60.2175 94.722 66.3684 110.878C71.6327 124.706 78.1161 136.76 85.6523 146.654C93.8535 157.461 103.357 165.747 113.885 171.345C105.13 165.885 97.206 158.486 90.1962 149.258Z" fill="black"/>
</g>
<g opacity="0.62">
<path d="M131.702 101.76H96.9297V84.385C96.9297 74.7967 104.715 67.0098 114.302 67.0098C123.888 67.0098 131.674 74.7967 131.674 84.385V101.76H131.702ZM100.698 98.0191H127.961V84.385C127.961 76.8751 121.838 70.7508 114.33 70.7508C106.821 70.7508 100.698 76.8751 100.698 84.385V98.0191Z" fill="#BBE4EF"/>
</g>
<path d="M131.896 92.9199H96.7634C94.2144 92.9199 92.1641 94.9706 92.1641 97.52V128.003C92.1641 130.552 94.2144 132.603 96.7634 132.603H131.923C134.472 132.603 136.523 130.552 136.523 128.003V97.52C136.495 94.9983 134.445 92.9199 131.896 92.9199ZM117.627 117.223V120.881C117.627 122.682 116.158 124.179 114.329 124.179C112.529 124.179 111.032 122.71 111.032 120.881V117.223C109.924 116.475 109.037 115.339 108.65 113.953C107.763 110.822 109.592 107.579 112.722 106.693C115.853 105.806 119.095 107.635 119.982 110.766C120.702 113.26 119.677 115.837 117.627 117.223Z" fill="#BBE4EF"/>
<g opacity="0.4">
<path d="M228.406 146.442C222.449 140.982 209.787 140.151 196.958 145.001C183.964 149.906 174.959 159.078 174.294 167.198L173.297 167.586L175.07 172.269H175.098C178.783 180.887 193.883 183.243 209.233 177.451C224.554 171.659 234.363 159.91 231.426 151.014H231.453L229.597 146.054L228.406 146.442Z" fill="url(#paint3_linear_109_955)"/>
<path d="M228.406 146.442C222.449 140.982 209.787 140.151 196.958 145.001C183.964 149.906 174.959 159.078 174.294 167.198L173.297 167.586L175.07 172.269H175.098C178.783 180.887 193.883 183.243 209.233 177.451C224.554 171.659 234.363 159.91 231.426 151.014H231.453L229.597 146.054L228.406 146.442Z" fill="url(#paint4_linear_109_955)"/>
<path d="M229.652 146.304C233.032 155.255 223.169 167.282 207.597 173.156C192.026 179.031 176.677 176.537 173.296 167.586C169.916 158.636 179.78 146.609 195.351 140.734C210.922 134.859 226.272 137.353 229.652 146.304Z" fill="url(#paint5_linear_109_955)"/>
<path d="M229.652 146.304C233.032 155.255 223.169 167.282 207.597 173.156C192.026 179.031 176.677 176.537 173.296 167.586C169.916 158.636 179.78 146.609 195.351 140.734C210.922 134.859 226.272 137.353 229.652 146.304Z" fill="url(#paint6_linear_109_955)"/>
<path d="M223.667 147.967C226.355 155.088 218.514 164.621 206.129 169.305C193.771 173.988 181.553 171.993 178.893 164.871C176.205 157.749 184.046 148.216 196.431 143.533C208.788 138.877 220.979 140.872 223.667 147.967Z" fill="url(#paint7_linear_109_955)"/>
<path d="M223.667 147.967C226.355 155.088 218.514 164.621 206.129 169.305C193.771 173.988 181.553 171.993 178.893 164.871C176.205 157.749 184.046 148.216 196.431 143.533C208.788 138.877 220.979 140.872 223.667 147.967Z" fill="url(#paint8_linear_109_955)"/>
<path d="M205.742 168.28C193.967 172.713 182.385 171.023 179.919 164.511C177.453 157.971 185.017 149.048 196.793 144.614C208.568 140.18 220.149 141.87 222.615 148.383C225.109 154.895 217.517 163.818 205.742 168.28ZM196.848 144.725C185.156 149.131 177.62 157.999 180.058 164.455C182.496 170.912 193.994 172.575 205.687 168.141C217.379 163.735 224.915 154.867 222.477 148.41C220.066 141.953 208.568 140.318 196.848 144.725Z" fill="url(#paint9_linear_109_955)"/>
<path d="M205.742 168.28C193.967 172.713 182.385 171.023 179.919 164.511C177.453 157.971 185.017 149.048 196.793 144.614C208.568 140.18 220.149 141.87 222.615 148.383C225.109 154.895 217.517 163.818 205.742 168.28ZM196.848 144.725C185.156 149.131 177.62 157.999 180.058 164.455C182.496 170.912 193.994 172.575 205.687 168.141C217.379 163.735 224.915 154.867 222.477 148.41C220.066 141.953 208.568 140.318 196.848 144.725Z" fill="url(#paint10_linear_109_955)"/>
<path d="M207.016 150.294C209.122 149.49 211.449 149.074 213.444 149.185L213.832 149.213C217.655 149.462 218.847 151.624 216.519 154.062L216.409 154.173L218.459 154.312L215.744 157.138L213.693 157L212.585 158.164L214.635 158.302L211.92 161.129L209.87 160.99L209.233 161.655L207.875 163.069L203.442 162.792L204.799 161.378L199.452 161.046L194.991 160.769L190.198 160.464L188.84 161.877L184.38 161.6L185.737 160.187L186.374 159.522L183.881 159.355L186.568 156.556L189.062 156.723L190.17 155.559L187.677 155.393L190.392 152.566L192.913 152.732C195.268 150.515 199.868 148.936 203.414 149.157L203.774 149.185C205.326 149.241 206.406 149.684 207.016 150.294ZM211.117 152.067L210.729 152.039C209.371 151.956 207.57 152.594 206.739 153.453L206.379 153.813L202.14 158.219L207.487 158.552L208.069 157.942L212.059 153.785C212.918 152.926 212.474 152.15 211.117 152.067ZM192.886 157.637L197.707 157.942L201.918 153.536C202.666 152.76 202.278 152.039 201.059 151.984L200.699 151.956C199.48 151.873 197.873 152.455 197.125 153.231L193.467 157.028L192.886 157.637Z" fill="#CCD9FD"/>
</g>
<g opacity="0.4">
<path d="M41.9809 46.6278C45.4165 39.8385 42.9783 28.1442 35.359 17.7246C27.6288 7.22187 17.0171 1.34701 9.50861 2.78801L8.89906 1.98438L5.10324 4.75554V4.78325C-1.76803 10.2979 -0.0779216 24.5971 9.03759 37.0396C18.1531 49.4821 31.2861 55.4124 38.6284 50.4797V50.5074L42.6459 47.57L41.9809 46.6278Z" fill="url(#paint11_linear_109_955)"/>
<path d="M41.9809 46.6278C45.4165 39.8385 42.9783 28.1442 35.359 17.7246C27.6288 7.22187 17.0171 1.34701 9.50861 2.78801L8.89906 1.98438L5.10324 4.75554V4.78325C-1.76803 10.2979 -0.0779216 24.5971 9.03759 37.0396C18.1531 49.4821 31.2861 55.4124 38.6284 50.4797V50.5074L42.6459 47.57L41.9809 46.6278Z" fill="url(#paint12_linear_109_955)"/>
<path d="M42.4256 47.7078C35.1664 53.0284 21.7564 47.1259 12.5023 34.4894C3.24826 21.8529 1.64127 7.30425 8.90043 1.98362C16.1596 -3.33701 29.5697 2.56556 38.8237 15.2021C48.0778 27.8386 49.7125 42.3872 42.4256 47.7078Z" fill="url(#paint13_linear_109_955)"/>
<path d="M42.4256 47.7078C35.1664 53.0284 21.7564 47.1259 12.5023 34.4894C3.24826 21.8529 1.64127 7.30425 8.90043 1.98362C16.1596 -3.33701 29.5697 2.56556 38.8237 15.2021C48.0778 27.8386 49.7125 42.3872 42.4256 47.7078Z" fill="url(#paint14_linear_109_955)"/>
<path d="M39.4054 42.7187C33.6424 46.9586 23.003 42.2476 15.633 32.216C8.263 22.1567 6.98849 10.601 12.7515 6.36109C18.5145 2.12121 29.1539 6.83219 36.5239 16.8638C43.8939 26.9231 45.1684 38.4789 39.4054 42.7187Z" fill="url(#paint15_linear_109_955)"/>
<path d="M39.4054 42.7187C33.6424 46.9586 23.003 42.2476 15.633 32.216C8.263 22.1567 6.98849 10.601 12.7515 6.36109C18.5145 2.12121 29.1539 6.83219 36.5239 16.8638C43.8939 26.9231 45.1684 38.4789 39.4054 42.7187Z" fill="url(#paint16_linear_109_955)"/>
<path d="M16.4641 31.579C9.45434 22.0185 8.069 11.1001 13.3887 7.22045C18.6807 3.34082 28.7105 7.94095 35.6926 17.5015C42.7024 27.062 44.0878 38.0081 38.7958 41.8877C33.5038 45.7673 23.4739 41.1395 16.4641 31.579ZM35.5818 17.5846C28.6274 8.07951 18.7084 3.47938 13.4718 7.33129C8.23524 11.1832 9.64829 22.0185 16.6027 31.5235C23.5571 41.0286 33.4761 45.6288 38.7404 41.7768C43.9492 37.9249 42.5362 27.062 35.5818 17.5846Z" fill="url(#paint17_linear_109_955)"/>
<path d="M16.4641 31.579C9.45434 22.0185 8.069 11.1001 13.3887 7.22045C18.6807 3.34082 28.7105 7.94095 35.6926 17.5015C42.7024 27.062 44.0878 38.0081 38.7958 41.8877C33.5038 45.7673 23.4739 41.1395 16.4641 31.579ZM35.5818 17.5846C28.6274 8.07951 18.7084 3.47938 13.4718 7.33129C8.23524 11.1832 9.64829 22.0185 16.6027 31.5235C23.5571 41.0286 33.4761 45.6288 38.7404 41.7768C43.9492 37.9249 42.5362 27.062 35.5818 17.5846Z" fill="url(#paint18_linear_109_955)"/>
<path d="M33.088 28.1995C34.3348 29.9176 35.3322 31.9128 35.7201 33.7695L35.8032 34.1298C36.5513 37.6491 34.8889 39.2841 32.0905 37.7877L31.9797 37.7323L32.3676 39.6167L29.0982 37.8708L28.7103 35.9865L27.3804 35.266L27.7683 37.1503L24.4989 35.4045L24.111 33.5201L23.3352 33.1044L21.7282 32.2454L20.8416 28.0886L22.4486 28.9477L21.3957 24.015L20.5368 19.9137L19.5948 15.4799L17.9878 14.6208L17.1289 10.5195L18.7359 11.3785L19.484 11.7942L18.9853 9.49414L22.2547 11.24L22.7534 13.54L24.0833 14.2605L23.6123 11.9605L26.8817 13.7063L27.3804 16.0341C29.9848 17.6136 32.5893 21.3824 33.2819 24.6524L33.3651 24.9849C33.6144 26.3982 33.5036 27.5067 33.088 28.1995ZM32.5338 32.3562L32.4507 31.996C32.1737 30.749 31.1485 29.2802 30.1511 28.726L29.7355 28.5043L24.6651 25.7886L25.718 30.7212L26.4107 31.0815L31.2039 33.6587C32.2014 34.2129 32.8109 33.631 32.5338 32.3562ZM22.8642 17.2534L23.8062 21.6873L28.8766 24.403C29.7632 24.8741 30.3173 24.3753 30.068 23.2391L29.9848 22.9066C29.7355 21.7704 28.8211 20.4679 27.9345 19.9691L23.5569 17.6136L22.8642 17.2534Z" fill="#CCD9FD"/>
</g>
<defs>
<linearGradient id="paint0_linear_109_955" x1="47.0846" y1="108.884" x2="181.589" y2="108.884" gradientUnits="userSpaceOnUse">
<stop offset="1e-08" stop-color="#96B3F9"/>
<stop offset="1" stop-color="#4870FA"/>
</linearGradient>
<linearGradient id="paint1_linear_109_955" x1="47.0411" y1="108.883" x2="181.609" y2="108.883" gradientUnits="userSpaceOnUse">
<stop offset="1e-08" stop-color="#7ED8F0"/>
<stop offset="1" stop-color="#0096BE"/>
</linearGradient>
<linearGradient id="paint2_linear_109_955" x1="55.7735" y1="108.44" x2="172.848" y2="108.44" gradientUnits="userSpaceOnUse">
<stop offset="1e-08" stop-color="#3BAAC7"/>
<stop offset="1" stop-color="#4FC0DE"/>
</linearGradient>
<linearGradient id="paint3_linear_109_955" x1="173.296" y1="161.219" x2="231.951" y2="161.219" gradientUnits="userSpaceOnUse">
<stop offset="1e-08" stop-color="#96B3F9"/>
<stop offset="1" stop-color="#4870FA"/>
</linearGradient>
<linearGradient id="paint4_linear_109_955" x1="173.277" y1="161.219" x2="231.96" y2="161.219" gradientUnits="userSpaceOnUse">
<stop offset="1e-08" stop-color="#7ED8F0"/>
<stop offset="1" stop-color="#0096BE"/>
</linearGradient>
<linearGradient id="paint5_linear_109_955" x1="172.632" y1="156.946" x2="230.322" y2="156.946" gradientUnits="userSpaceOnUse">
<stop offset="1e-08" stop-color="#96B3F9"/>
<stop offset="1" stop-color="#4870FA"/>
</linearGradient>
<linearGradient id="paint6_linear_109_955" x1="172.614" y1="156.945" x2="230.33" y2="156.945" gradientUnits="userSpaceOnUse">
<stop offset="1e-08" stop-color="#7ED8F0"/>
<stop offset="1" stop-color="#0096BE"/>
</linearGradient>
<linearGradient id="paint7_linear_109_955" x1="178.365" y1="156.429" x2="224.2" y2="156.429" gradientUnits="userSpaceOnUse">
<stop offset="1e-08" stop-color="#96B3F9"/>
<stop offset="1" stop-color="#4870FA"/>
</linearGradient>
<linearGradient id="paint8_linear_109_955" x1="178.35" y1="156.428" x2="224.206" y2="156.428" gradientUnits="userSpaceOnUse">
<stop offset="1e-08" stop-color="#7ED8F0"/>
<stop offset="1" stop-color="#0096BE"/>
</linearGradient>
<linearGradient id="paint9_linear_109_955" x1="179.453" y1="156.447" x2="223.094" y2="156.447" gradientUnits="userSpaceOnUse">
<stop offset="1e-08" stop-color="#96B3F9"/>
<stop offset="1" stop-color="#4870FA"/>
</linearGradient>
<linearGradient id="paint10_linear_109_955" x1="179.439" y1="156.447" x2="223.101" y2="156.447" gradientUnits="userSpaceOnUse">
<stop offset="1e-08" stop-color="#7ED8F0"/>
<stop offset="1" stop-color="#0096BE"/>
</linearGradient>
<linearGradient id="paint11_linear_109_955" x1="0.890201" y1="27.0998" x2="43.5105" y2="27.0998" gradientUnits="userSpaceOnUse">
<stop offset="1e-08" stop-color="#96B3F9"/>
<stop offset="1" stop-color="#4870FA"/>
</linearGradient>
<linearGradient id="paint12_linear_109_955" x1="0.87641" y1="27.0996" x2="43.5168" y2="27.0996" gradientUnits="userSpaceOnUse">
<stop offset="1e-08" stop-color="#7ED8F0"/>
<stop offset="1" stop-color="#0096BE"/>
</linearGradient>
<linearGradient id="paint13_linear_109_955" x1="4.35504" y1="24.8461" x2="46.9869" y2="24.8461" gradientUnits="userSpaceOnUse">
<stop offset="1e-08" stop-color="#96B3F9"/>
<stop offset="1" stop-color="#4870FA"/>
</linearGradient>
<linearGradient id="paint14_linear_109_955" x1="4.34125" y1="24.8459" x2="46.9932" y2="24.8459" gradientUnits="userSpaceOnUse">
<stop offset="1e-08" stop-color="#7ED8F0"/>
<stop offset="1" stop-color="#0096BE"/>
</linearGradient>
<linearGradient id="paint15_linear_109_955" x1="9.14419" y1="24.5402" x2="43.016" y2="24.5402" gradientUnits="userSpaceOnUse">
<stop offset="1e-08" stop-color="#96B3F9"/>
<stop offset="1" stop-color="#4870FA"/>
</linearGradient>
<linearGradient id="paint16_linear_109_955" x1="9.13323" y1="24.5401" x2="43.021" y2="24.5401" gradientUnits="userSpaceOnUse">
<stop offset="1e-08" stop-color="#7ED8F0"/>
<stop offset="1" stop-color="#0096BE"/>
</linearGradient>
<linearGradient id="paint17_linear_109_955" x1="10.152" y1="24.5524" x2="42.0136" y2="24.5524" gradientUnits="userSpaceOnUse">
<stop offset="1e-08" stop-color="#96B3F9"/>
<stop offset="1" stop-color="#4870FA"/>
</linearGradient>
<linearGradient id="paint18_linear_109_955" x1="10.1417" y1="24.5522" x2="42.0183" y2="24.5522" gradientUnits="userSpaceOnUse">
<stop offset="1e-08" stop-color="#7ED8F0"/>
<stop offset="1" stop-color="#0096BE"/>
</linearGradient>
</defs>
</svg>
