<svg width="403" height="455" viewBox="0 0 403 455" fill="none" xmlns="http://www.w3.org/2000/svg">
<g clip-path="url(#clip0_61_464)">
<path opacity="0.1" d="M221.397 297.609C236.55 297.609 248.833 293.038 248.833 287.399C248.833 281.761 236.55 277.189 221.397 277.189C206.244 277.189 193.961 281.761 193.961 287.399C193.961 293.038 206.244 297.609 221.397 297.609Z" fill="#141414"/>
<path d="M221.397 401.711C304.67 401.711 372.176 374.669 372.176 341.312C372.176 307.954 304.67 280.912 221.397 280.912C138.124 280.912 70.6182 307.954 70.6182 341.312C70.6182 374.669 138.124 401.711 221.397 401.711Z" fill="url(#paint0_linear_61_464)"/>
<path opacity="0.2" d="M221.397 287.973C301.702 287.973 367.357 313.116 371.938 344.842C372.129 343.649 372.224 342.504 372.224 341.312C372.224 307.963 304.708 280.912 221.445 280.912C138.183 280.912 70.666 307.963 70.666 341.312C70.666 342.504 70.7614 343.697 70.9523 344.842C75.4375 313.116 141.045 287.973 221.397 287.973Z" fill="black"/>
<path d="M318.497 306.339C295.308 295.08 260.523 287.924 221.683 287.924C182.844 287.924 148.107 295.08 124.87 306.339H95.1436V340.117C95.7638 368.457 152.163 391.309 221.683 391.309C291.156 391.309 347.603 368.409 348.223 340.117V306.339H318.497Z" fill="url(#paint1_linear_61_464)" fill-opacity="0.64"/>
<path d="M221.731 389.783C152.258 389.783 95.8117 366.883 95.1914 338.592V340.118C95.8117 368.458 152.211 391.31 221.731 391.31C291.204 391.31 347.651 368.41 348.271 340.118V338.592C347.603 366.883 291.204 389.783 221.731 389.783Z" fill="black"/>
<path d="M221.731 357.866C291.617 357.866 348.271 334.797 348.271 306.34C348.271 277.883 291.617 254.814 221.731 254.814C151.845 254.814 95.1914 277.883 95.1914 306.34C95.1914 334.797 151.845 357.866 221.731 357.866Z" fill="url(#paint2_linear_61_464)"/>
<path d="M221.397 346.846C282.983 346.846 332.907 328.284 332.907 305.387C332.907 282.49 282.983 263.928 221.397 263.928C159.812 263.928 109.888 282.49 109.888 305.387C109.888 328.284 159.812 346.846 221.397 346.846Z" fill="#FCFAFF"/>
<path d="M221.731 356.006C152.64 356.006 96.4797 333.44 95.2391 305.387C95.2391 305.721 95.1914 306.007 95.1914 306.341C95.1914 334.823 151.829 357.867 221.731 357.867C291.634 357.867 348.271 334.775 348.271 306.341C348.271 306.007 348.271 305.721 348.223 305.387C346.983 333.44 290.822 356.006 221.731 356.006Z" fill="white"/>
<path d="M276.698 287.925C263.529 281.532 243.775 277.477 221.731 277.477C199.686 277.477 179.932 281.532 166.763 287.925H149.872V307.104C150.206 323.182 182.27 336.159 221.683 336.159C261.143 336.159 293.16 323.182 293.494 307.104V287.925H276.698Z" fill="url(#paint3_linear_61_464)"/>
<path d="M221.731 335.301C182.271 335.301 150.254 322.324 149.92 306.246V307.105C150.254 323.183 182.318 336.16 221.731 336.16C261.191 336.16 293.208 323.183 293.542 307.105V306.246C293.208 322.324 261.191 335.301 221.731 335.301Z" fill="black"/>
<path d="M221.731 317.171C261.417 317.171 293.589 304.077 293.589 287.925C293.589 271.773 261.417 258.68 221.731 258.68C182.044 258.68 149.872 271.773 149.872 287.925C149.872 304.077 182.044 317.171 221.731 317.171Z" fill="url(#paint4_linear_61_464)"/>
<path d="M221.54 310.922C256.51 310.922 284.858 300.391 284.858 287.401C284.858 274.411 256.51 263.881 221.54 263.881C186.571 263.881 158.223 274.411 158.223 287.401C158.223 300.391 186.571 310.922 221.54 310.922Z" fill="#FCFAFF"/>
<path d="M221.731 316.121C182.509 316.121 150.588 303.287 149.92 287.4C149.92 287.591 149.92 287.734 149.92 287.925C149.92 304.099 182.08 317.171 221.779 317.171C261.477 317.171 293.637 304.051 293.637 287.925C293.637 287.734 293.637 287.591 293.637 287.4C292.826 303.335 260.952 316.121 221.731 316.121Z" fill="white"/>
<path opacity="0.59" d="M109.888 51.6699V305.386C109.888 328.286 159.797 346.845 221.397 346.845C282.997 346.845 332.907 328.286 332.907 305.386V51.6699H109.888Z" fill="url(#paint5_linear_61_464)"/>
<path opacity="0.7" d="M379.905 185.828L358.004 224.425L402.999 222.039L379.905 185.828Z" fill="url(#paint6_linear_61_464)"/>
<path opacity="0.7" d="M379.905 185.828H368.74L348.271 222.23L358.004 224.425L379.905 185.828Z" fill="url(#paint7_linear_61_464)"/>
<path opacity="0.7" d="M391.835 270.082L371.27 275.234V223.709L391.835 222.611V270.082Z" fill="url(#paint8_linear_61_464)"/>
<path opacity="0.7" d="M371.269 275.235L359.817 272.754V224.329L371.269 223.709V275.235Z" fill="url(#paint9_linear_61_464)"/>
<path opacity="0.4" d="M359.817 224.329V225.426L371.269 225.044L391.834 223.804V222.611L371.269 223.709L359.817 224.329Z" fill="black"/>
<path opacity="0.7" d="M79.9696 88.5488L63.5557 117.604L97.3378 115.791L79.9696 88.5488Z" fill="url(#paint10_linear_61_464)"/>
<path opacity="0.7" d="M79.97 88.5488H71.6199L56.208 115.934L63.5561 117.604L79.97 88.5488Z" fill="url(#paint11_linear_61_464)"/>
<path opacity="0.7" d="M88.9402 151.859L73.5283 155.771V117.032L88.9402 116.221V151.859Z" fill="url(#paint12_linear_61_464)"/>
<path opacity="0.7" d="M73.529 155.771L64.8926 153.91V117.508L73.529 117.031V155.771Z" fill="url(#paint13_linear_61_464)"/>
<path opacity="0.4" d="M64.8926 117.509V118.32L73.529 118.034L88.9409 117.127V116.221L73.529 117.032L64.8926 117.509Z" fill="black"/>
<path d="M129.976 64.9807C133.268 58.4446 130.93 47.1376 123.582 37.1187C116.139 26.9567 105.928 21.327 98.6749 22.7106L98.1023 21.9473L94.4283 24.619C87.7959 29.9147 89.4182 43.7502 98.1977 55.7252C106.977 67.7478 119.669 73.4252 126.731 68.702L130.596 65.8395L129.976 64.9807Z" fill="url(#paint14_linear_61_464)"/>
<path d="M130.405 66.03C123.391 71.1825 110.46 65.4575 101.538 53.2917C92.615 41.1259 91.0404 27.0518 98.0545 21.9469C105.069 16.7944 117.999 22.5194 126.922 34.6852C135.845 46.851 137.419 60.8774 130.405 66.03Z" fill="url(#paint15_linear_61_464)"/>
<path d="M127.495 61.2117C121.912 65.3146 111.653 60.7346 104.544 51.0974C97.4342 41.4125 96.1936 30.2486 101.776 26.1933C107.359 22.0904 117.618 26.6704 124.727 36.3076C131.789 45.9448 133.03 57.1087 127.495 61.2117Z" fill="url(#paint16_linear_61_464)"/>
<path d="M105.355 50.4759C98.5799 41.2681 97.2439 30.7244 102.349 26.9554C107.455 23.1864 117.141 27.671 123.869 36.8789C130.644 46.0867 131.98 56.6304 126.875 60.3994C121.769 64.1207 112.131 59.6837 105.355 50.4759ZM123.773 36.9743C117.046 27.8142 107.503 23.3772 102.445 27.0985C97.387 30.8198 98.7231 41.2681 105.451 50.4282C112.179 59.5883 121.722 64.0252 126.779 60.3039C131.885 56.5827 130.501 46.1344 123.773 36.9743Z" fill="white"/>
<path d="M121.387 47.185C122.58 48.8548 123.534 50.7631 123.916 52.5284L123.964 52.8623C124.68 56.2496 123.057 57.824 120.385 56.3928L120.242 56.3451L120.624 58.158L117.475 56.4882L117.093 54.6753L115.805 53.9596L116.186 55.7726L113.037 54.1027L112.655 52.2898L111.94 51.9081L110.365 51.0494L109.506 47.0895L111.081 47.9483L110.079 43.1774L109.22 39.2176L108.313 34.9238L106.739 34.065L105.88 30.1052L107.454 30.9639L108.17 31.3456L107.693 29.1033L110.842 30.7731L111.319 33.0154L112.608 33.731L112.131 31.4887L115.28 33.1585L115.757 35.4008C118.286 36.9275 120.767 40.5534 121.435 43.7022L121.483 44.0362C121.912 45.4674 121.817 46.517 121.387 47.185ZM120.862 51.1925L120.815 50.8585C120.576 49.6658 119.574 48.2345 118.572 47.7098L118.19 47.4712L113.323 44.8472L114.325 49.6181L114.993 49.9998L119.622 52.4806C120.528 53.0054 121.101 52.4329 120.862 51.1925ZM111.51 36.6413L112.417 40.9351L117.284 43.5591C118.143 44.0362 118.667 43.5114 118.429 42.4141L118.381 42.0801C118.143 40.9828 117.236 39.7424 116.377 39.2653L112.178 37.023L111.51 36.6413Z" fill="white"/>
<path d="M83.7402 239.594L97.7684 232.104L112.56 239.832L97.7684 248.325L83.7402 239.594Z" fill="url(#paint17_linear_61_464)"/>
<path opacity="0.7" d="M97.7684 209.871L83.7402 239.594L97.7684 248.324V209.871Z" fill="url(#paint18_linear_61_464)"/>
<path opacity="0.7" d="M97.7686 209.871V248.324L112.56 239.832L97.7686 209.871Z" fill="url(#paint19_linear_61_464)"/>
<path d="M83.7402 239.594L97.7684 260.109V248.324L83.7402 239.594Z" fill="url(#paint20_linear_61_464)"/>
<path d="M97.7686 260.108L112.56 239.832L97.7686 248.324V260.108Z" fill="url(#paint21_linear_61_464)"/>
<path opacity="0.5" d="M112.512 239.737L97.7684 248.229L83.788 239.498L83.7402 239.593L97.7684 248.324V260.108L97.9116 259.917V248.324L112.56 239.832L112.512 239.737Z" fill="white"/>
<path opacity="0.3" d="M97.8638 272.132C118.287 272.132 134.843 255.578 134.843 235.158C134.843 214.738 118.287 198.184 97.8638 198.184C77.4409 198.184 60.8848 214.738 60.8848 235.158C60.8848 255.578 77.4409 272.132 97.8638 272.132Z" fill="url(#paint22_linear_61_464)"/>
<path d="M139.853 241.503C143.383 218.03 127.017 196.227 103.494 193.078C80.6861 190.025 59.4052 205.959 55.9221 228.717C54.92 235.205 55.4449 241.55 57.2581 247.418C58.5464 251.617 57.0195 256.149 53.4409 258.725C45.0908 263.878 36.7407 269.698 28.3428 275.996C27.484 276.664 26.6251 277.284 25.7662 277.952C24.8119 278.668 23.9054 279.383 22.9511 280.099C22.0922 280.767 21.2333 281.435 20.3745 282.103C19.2293 283.009 18.0841 283.916 16.939 284.87C13.3604 287.446 12.5492 292.408 15.0781 295.986C16.4141 297.847 18.3704 298.944 20.4222 299.23C22.3785 299.517 24.4302 299.087 26.1957 297.799C27.484 296.94 28.7723 296.129 30.0129 295.27C30.9195 294.65 31.826 294.078 32.7326 293.458C33.7346 292.79 34.7366 292.122 35.6909 291.454C36.5975 290.834 37.5041 290.213 38.363 289.593C47.1425 283.534 55.4926 277.38 63.461 271.082C66.8488 268.649 71.3817 268.506 74.9126 270.748C79.8749 273.945 85.553 276.139 91.7559 277.046C114.707 280.528 136.369 264.498 139.853 241.503ZM93.8554 271.893C93.7123 271.893 93.5691 271.845 93.4737 271.845C93.1874 271.798 92.9488 271.798 92.6625 271.75C92.2808 271.702 91.8991 271.655 91.5174 271.559C91.3742 271.511 91.1834 271.511 91.0402 271.464C90.6585 271.368 90.2768 271.321 89.8951 271.225C89.2748 271.082 88.7022 270.939 88.0819 270.796C87.7956 270.7 87.5093 270.653 87.1753 270.557C86.889 270.462 86.6027 270.366 86.3642 270.319H86.3164C86.0302 270.223 85.7439 270.128 85.4576 270.032C85.1713 269.937 84.885 269.842 84.5987 269.698C84.0261 269.46 83.4536 269.269 82.9287 269.031C82.6424 268.887 82.3561 268.792 82.1175 268.649C81.8312 268.506 81.5927 268.41 81.3541 268.267C81.3541 268.267 81.3541 268.267 81.3064 268.267C81.0201 268.124 80.7815 267.981 80.4952 267.838C80.2567 267.695 80.0181 267.552 79.7795 267.456C79.5886 267.361 79.3978 267.218 79.2069 267.122C79.0638 267.027 78.9206 266.931 78.7775 266.884C78.5389 266.741 78.3481 266.597 78.1095 266.454C77.8709 266.311 77.6801 266.168 77.4415 266.025C77.2029 265.882 76.9643 265.691 76.7258 265.548C76.4872 265.357 76.2486 265.214 76.01 265.023C75.7715 264.832 75.5329 264.689 75.2943 264.498C75.0557 264.307 74.8649 264.164 74.6263 263.973C74.4354 263.83 74.2446 263.639 74.006 263.496C73.9106 263.401 73.8151 263.353 73.7197 263.258C73.2903 262.924 72.9086 262.542 72.4791 262.16C72.2883 262.017 72.1451 261.827 72.002 261.683C71.9543 261.636 71.9066 261.588 71.8588 261.54C71.668 261.349 71.4771 261.159 71.334 261.015C70.5228 260.157 69.7117 259.25 68.9482 258.344C68.7574 258.105 68.6142 257.914 68.4234 257.676C62.6499 250.09 59.7393 240.262 61.2184 230.052C61.3138 229.48 61.4093 228.955 61.5047 228.43C61.5524 228.239 61.6001 228.049 61.6001 227.81C61.6001 227.715 61.6478 227.571 61.6478 227.476C61.6956 227.333 61.6956 227.19 61.7433 227.047C61.791 226.904 61.791 226.76 61.8387 226.617C61.8864 226.474 61.9341 226.283 61.9818 226.14C62.0296 225.902 62.125 225.663 62.1727 225.425C62.2204 225.186 62.3159 224.995 62.3636 224.757C62.459 224.423 62.5544 224.089 62.6976 223.755C62.8884 223.182 63.0793 222.61 63.3179 222.037C63.4133 221.751 63.5564 221.465 63.6519 221.179C63.7473 220.988 63.8427 220.749 63.9382 220.558C63.9859 220.415 64.0813 220.272 64.129 220.129C64.3676 219.652 64.5585 219.175 64.8447 218.698C64.9402 218.507 65.0833 218.268 65.1788 218.077C65.3219 217.839 65.465 217.553 65.6082 217.314C65.7036 217.123 65.799 216.932 65.8945 216.789C65.9899 216.598 66.0853 216.455 66.2285 216.264C66.3239 216.074 66.4193 215.931 66.5625 215.74C66.6102 215.644 66.7056 215.549 66.7533 215.406C67.4691 214.261 68.2802 213.211 69.0914 212.162C69.1868 212.066 69.2345 211.971 69.3299 211.875C69.5208 211.637 69.7117 211.398 69.9025 211.207C70.0457 211.017 70.1888 210.873 70.332 210.73C70.4751 210.539 70.666 210.349 70.8091 210.205C71 210.015 71.1908 209.776 71.3817 209.585C71.4771 209.442 71.6203 209.347 71.7157 209.251C71.7634 209.204 71.8111 209.156 71.9065 209.06C72.002 208.965 72.1451 208.822 72.2406 208.726C72.3837 208.583 72.5268 208.44 72.67 208.297C72.8131 208.202 72.9086 208.059 73.0517 207.963C73.1471 207.868 73.2903 207.772 73.3857 207.629C73.5766 207.486 73.7674 207.295 73.9583 207.152C74.0537 207.057 74.1492 207.009 74.2446 206.914C74.4354 206.77 74.5786 206.627 74.7694 206.484C75.008 206.293 75.2466 206.102 75.4375 205.959L75.5806 205.864C75.7715 205.721 75.9623 205.578 76.1532 205.435C76.3918 205.244 76.6303 205.101 76.8689 204.91C77.0598 204.767 77.2983 204.624 77.5369 204.48C77.6323 204.433 77.7278 204.337 77.8232 204.29C78.0141 204.146 78.2526 204.003 78.4435 203.908C78.6821 203.765 78.9206 203.622 79.1592 203.478C79.3978 203.335 79.6364 203.192 79.8749 203.049C80.0658 202.954 80.2567 202.811 80.4475 202.715C80.5907 202.62 80.7338 202.572 80.8769 202.477C81.0678 202.381 81.211 202.286 81.4018 202.238C81.545 202.143 81.6881 202.095 81.879 202C81.9267 202 81.9744 201.952 81.9744 201.952C82.1175 201.856 82.3084 201.809 82.4515 201.713C82.4515 201.713 82.4993 201.713 82.4993 201.666C82.6901 201.57 82.9287 201.475 83.1195 201.379C83.1673 201.379 83.1673 201.332 83.215 201.332C83.4536 201.236 83.7398 201.093 83.9784 200.998C84.2647 200.902 84.551 200.759 84.8373 200.664C85.0759 200.568 85.3144 200.473 85.6007 200.377C85.6962 200.33 85.7439 200.33 85.8393 200.282C86.0779 200.187 86.3164 200.139 86.555 200.043C86.7936 199.948 87.0799 199.9 87.3185 199.805C87.3662 199.805 87.3662 199.805 87.4139 199.757C87.6525 199.709 87.8433 199.614 88.0819 199.566C88.1773 199.519 88.3205 199.519 88.4159 199.471C88.6068 199.423 88.7976 199.376 88.9885 199.328C89.0839 199.28 89.2271 199.28 89.3225 199.232C89.4656 199.185 89.6565 199.137 89.7996 199.137C90.6585 198.946 91.5174 198.803 92.3762 198.66C92.424 198.66 92.424 198.66 92.4717 198.66C92.6148 198.612 92.8057 198.612 92.9488 198.612C93.1874 198.564 93.3783 198.564 93.6168 198.517C93.8554 198.469 94.094 198.469 94.3326 198.421C94.4757 198.421 94.6188 198.374 94.762 198.374C95.0006 198.374 95.2391 198.326 95.4777 198.326C95.764 198.326 96.098 198.278 96.3843 198.278C96.432 198.278 96.4797 198.278 96.4797 198.278C96.766 198.278 97.0046 198.278 97.2909 198.278C97.3386 198.278 97.3386 198.278 97.3863 198.278C97.6726 198.278 97.9589 198.278 98.2452 198.278C98.8655 198.278 99.4858 198.326 100.154 198.374C100.44 198.374 100.726 198.421 101.013 198.421C101.251 198.469 101.537 198.469 101.776 198.517C101.967 198.517 102.11 198.564 102.301 198.564C102.54 198.612 102.73 198.612 102.969 198.66C123.152 201.522 137.228 220.272 134.365 240.501C134.365 240.644 134.318 240.787 134.318 240.93C134.27 241.121 134.27 241.359 134.222 241.55C134.174 241.789 134.127 241.98 134.127 242.218C134.079 242.409 134.031 242.6 134.031 242.791C133.936 243.268 133.84 243.745 133.697 244.174C133.411 245.367 133.029 246.56 132.648 247.705C132.552 247.896 132.504 248.134 132.409 248.325C132.314 248.563 132.266 248.754 132.17 248.945C132.075 249.136 132.027 249.374 131.932 249.565C131.836 249.756 131.741 249.995 131.646 250.186C131.502 250.472 131.407 250.758 131.264 250.997C131.121 251.283 131.025 251.521 130.882 251.76C130.882 251.76 130.882 251.76 130.882 251.808C130.739 252.094 130.596 252.332 130.453 252.619C130.31 252.857 130.166 253.096 130.071 253.334C129.976 253.525 129.832 253.716 129.737 253.907C129.642 254.05 129.546 254.193 129.498 254.336C129.355 254.575 129.212 254.813 129.069 255.004C128.926 255.195 128.783 255.434 128.64 255.624C128.496 255.863 128.306 256.101 128.162 256.34C127.972 256.579 127.828 256.817 127.638 257.056C127.447 257.294 127.304 257.533 127.113 257.771C126.922 258.01 126.779 258.201 126.588 258.439C126.445 258.63 126.254 258.869 126.063 259.059C125.968 259.155 125.92 259.25 125.824 259.346C125.49 259.775 125.109 260.157 124.727 260.586C124.584 260.729 124.441 260.872 124.298 261.015C124.25 261.063 124.202 261.111 124.154 261.206C123.964 261.397 123.773 261.588 123.63 261.731C123.486 261.874 123.343 262.017 123.2 262.16C123.105 262.256 123.009 262.304 122.914 262.399C122.293 262.972 121.625 263.544 120.91 264.117C120.671 264.307 120.48 264.451 120.242 264.641C119.955 264.832 119.717 265.071 119.431 265.262C119.24 265.405 119.049 265.548 118.858 265.691C118.81 265.739 118.763 265.739 118.715 265.786C118.572 265.882 118.429 265.977 118.285 266.073C118.142 266.168 118.047 266.216 117.904 266.311C117.665 266.454 117.427 266.597 117.188 266.741C116.711 267.027 116.234 267.313 115.757 267.552C115.566 267.647 115.375 267.742 115.232 267.838C115.041 267.933 114.85 268.029 114.659 268.172L114.611 268.22C114.421 268.315 114.182 268.41 113.991 268.506C113.466 268.792 112.894 269.031 112.369 269.269L111.844 269.508C111.367 269.698 110.89 269.889 110.365 270.08C110.222 270.128 110.078 270.176 109.888 270.223C109.41 270.414 108.886 270.557 108.408 270.7C108.17 270.748 107.931 270.843 107.693 270.891C107.693 270.891 107.693 270.891 107.645 270.891C107.454 270.939 107.263 270.987 107.025 271.034C106.929 271.082 106.834 271.082 106.738 271.082C106.595 271.13 106.452 271.177 106.309 271.177C106.166 271.225 106.023 271.273 105.832 271.273C105.689 271.321 105.546 271.321 105.402 271.368C105.068 271.464 104.734 271.511 104.4 271.559C104.21 271.607 104.019 271.655 103.78 271.655C103.589 271.702 103.351 271.702 103.16 271.75C102.921 271.798 102.683 271.798 102.444 271.845C102.396 271.845 102.396 271.845 102.349 271.845C102.158 271.893 101.919 271.893 101.728 271.941C101.633 271.941 101.49 271.988 101.394 271.988C101.203 271.988 101.06 272.036 100.869 272.036C100.345 272.084 99.8198 272.132 99.2472 272.132C99.0563 272.132 98.8655 272.132 98.6746 272.132C98.5792 272.132 98.5315 272.132 98.436 272.132C98.2452 272.132 98.0543 272.132 97.8157 272.132C97.768 272.132 97.768 272.132 97.7203 272.132C97.1954 272.132 96.6706 272.132 96.098 272.084C95.8117 272.084 95.5731 272.036 95.2868 272.036C95.0006 272.036 94.7143 271.988 94.3803 271.988C94.3803 271.988 94.094 271.941 93.8554 271.893Z" fill="url(#paint23_linear_61_464)"/>
<path opacity="0.5" d="M136.656 240.691C139.709 219.318 124.775 199.423 103.398 196.418C82.022 193.364 62.1249 208.297 59.1188 229.671C56.0651 251.044 70.9998 270.939 92.3761 273.992C113.752 276.998 133.602 262.065 136.656 240.691ZM118.858 265.596C118.81 265.643 118.762 265.643 118.715 265.691C118.572 265.786 118.428 265.882 118.285 265.977C118.142 266.073 118.047 266.12 117.904 266.216C117.665 266.359 117.426 266.502 117.188 266.645C116.711 266.931 116.234 267.218 115.756 267.456C115.566 267.552 115.375 267.647 115.232 267.742C115.041 267.838 114.85 267.933 114.659 268.076L114.611 268.124C114.42 268.22 114.182 268.315 113.991 268.41C113.466 268.697 112.894 268.935 112.369 269.174L111.844 269.412C111.367 269.603 110.889 269.794 110.365 269.985C110.221 270.032 110.078 270.08 109.887 270.128C109.41 270.319 108.885 270.462 108.408 270.605C108.17 270.653 107.931 270.748 107.693 270.796C107.693 270.796 107.693 270.796 107.645 270.796C107.454 270.844 107.263 270.891 107.025 270.939C106.929 270.987 106.834 270.987 106.738 270.987C106.595 271.034 106.452 271.082 106.309 271.082C106.166 271.13 106.023 271.177 105.832 271.177C105.689 271.225 105.545 271.225 105.402 271.273C105.068 271.368 104.734 271.416 104.4 271.464C104.209 271.511 104.019 271.559 103.78 271.559C103.589 271.607 103.351 271.607 103.16 271.655C102.921 271.702 102.683 271.702 102.444 271.75C102.396 271.75 102.396 271.75 102.349 271.75C102.158 271.798 101.919 271.798 101.728 271.845C101.633 271.845 101.49 271.893 101.394 271.893C101.203 271.893 101.06 271.941 100.869 271.941C100.344 271.989 99.8196 272.036 99.2471 272.036C99.0562 272.036 98.8653 272.036 98.6745 272.036C98.579 272.036 98.5313 272.036 98.4359 272.036C98.245 272.036 98.0542 272.036 97.8156 272.036C97.7679 272.036 97.7679 272.036 97.7202 272.036C97.1953 272.036 96.6704 272.036 96.0979 271.989C95.8116 271.989 95.573 271.941 95.2867 271.941C95.0004 271.941 94.7141 271.893 94.3801 271.893C94.1416 271.893 93.8553 271.845 93.6167 271.798C93.4736 271.798 93.3304 271.75 93.235 271.75C92.9487 271.702 92.7101 271.702 92.4238 271.655C92.0421 271.607 91.6604 271.559 91.2787 271.464C91.1355 271.416 90.9447 271.416 90.8015 271.368C90.4198 271.273 90.0381 271.225 89.6564 271.13C89.0361 270.987 88.4635 270.844 87.8432 270.7C87.5569 270.605 87.2706 270.557 86.9366 270.462C86.6503 270.366 86.364 270.271 86.1255 270.223H86.0777C85.7915 270.128 85.5052 270.032 85.2189 269.937C84.9326 269.842 84.6463 269.746 84.36 269.603C83.7874 269.365 83.2149 269.174 82.69 268.935C82.4037 268.792 82.1174 268.697 81.8788 268.554C81.5925 268.41 81.354 268.315 81.1154 268.172C81.1154 268.172 81.1154 268.172 81.0677 268.172C80.7814 268.029 80.5428 267.886 80.2565 267.742C80.018 267.599 79.7794 267.456 79.5408 267.361C79.3499 267.265 79.1591 267.122 78.9682 267.027C78.8251 266.931 78.6819 266.836 78.5388 266.788C78.3002 266.645 78.1094 266.502 77.8708 266.359C77.6322 266.216 77.4413 266.073 77.2028 265.93C76.9642 265.786 76.7256 265.596 76.4871 265.452C76.2485 265.262 76.0099 265.118 75.7713 264.928C75.5328 264.737 75.2942 264.594 75.0556 264.403C74.817 264.212 74.6262 264.069 74.3876 263.878C74.1967 263.735 74.0059 263.544 73.7673 263.401C73.6719 263.306 73.5764 263.258 73.481 263.162C73.0516 262.828 72.6699 262.447 72.2404 262.065C72.0496 261.922 71.9064 261.731 71.7633 261.588C71.7156 261.54 71.6678 261.493 71.6201 261.445C71.4293 261.254 71.2384 261.063 71.0953 260.92C70.2841 260.061 69.473 259.155 68.7095 258.248C68.5187 258.01 68.3755 257.819 68.1847 257.58C62.4112 249.995 59.5005 240.167 60.9797 229.957C61.0751 229.384 61.1706 228.86 61.266 228.335C61.3137 228.144 61.3614 227.953 61.3614 227.715C61.3614 227.619 61.4091 227.476 61.4091 227.381C61.4569 227.238 61.4569 227.094 61.5046 226.951C61.5523 226.808 61.5523 226.665 61.6 226.522C61.6477 226.379 61.6954 226.188 61.7431 226.045C61.7909 225.806 61.8863 225.568 61.934 225.329C61.9817 225.091 62.0772 224.9 62.1249 224.661C62.2203 224.327 62.3157 223.993 62.4589 223.659C62.6497 223.087 62.8406 222.514 63.0792 221.942C63.1746 221.656 63.3177 221.369 63.4132 221.083C63.5086 220.892 63.604 220.654 63.6995 220.463C63.7472 220.32 63.8426 220.177 63.8903 220.034C64.1289 219.556 64.3197 219.079 64.606 218.602C64.7015 218.411 64.8446 218.173 64.94 217.982C65.0832 217.743 65.2263 217.457 65.3695 217.219C65.4649 217.028 65.5603 216.837 65.6558 216.694C65.7512 216.503 65.8466 216.36 65.9898 216.169C66.0852 215.978 66.1806 215.835 66.3238 215.644C66.3715 215.549 66.4669 215.453 66.5146 215.31C67.2304 214.165 68.0415 213.116 68.8527 212.066C68.9481 211.971 68.9958 211.875 69.0912 211.78C69.2821 211.541 69.473 211.303 69.6638 211.112C69.807 210.921 69.9501 210.778 70.0933 210.635C70.2364 210.444 70.4273 210.253 70.5704 210.11C70.7613 209.919 70.9521 209.681 71.143 209.49C71.2384 209.347 71.3816 209.251 71.477 209.156C71.5247 209.108 71.5724 209.06 71.6678 208.965C71.7633 208.87 71.9064 208.726 72.0018 208.631C72.145 208.488 72.2881 208.345 72.4313 208.202C72.5744 208.106 72.6699 207.963 72.813 207.868C72.9084 207.772 73.0516 207.677 73.147 207.534C73.3379 207.391 73.5287 207.2 73.7196 207.057C73.815 206.961 73.9104 206.914 74.0059 206.818C74.1967 206.675 74.3399 206.532 74.5307 206.389C74.7693 206.198 75.0079 206.007 75.1988 205.864L75.3419 205.769C75.5327 205.625 75.7236 205.482 75.9145 205.339C76.153 205.148 76.3916 205.005 76.6302 204.814C76.8211 204.671 77.0596 204.528 77.2982 204.385C77.3936 204.337 77.4891 204.242 77.5845 204.194C77.7754 204.051 78.0139 203.908 78.2048 203.812C78.4434 203.669 78.6819 203.526 78.9205 203.383C79.1591 203.24 79.3977 203.097 79.6362 202.954C79.8271 202.858 80.018 202.715 80.2088 202.62C80.352 202.524 80.4951 202.477 80.6382 202.381C80.8291 202.286 80.9723 202.19 81.1631 202.143C81.3063 202.047 81.4494 202 81.6403 201.904C81.688 201.904 81.7357 201.856 81.7357 201.856C81.8788 201.761 82.0697 201.713 82.2128 201.618C82.2128 201.618 82.2605 201.618 82.2605 201.57C82.4514 201.475 82.69 201.379 82.8808 201.284C82.9286 201.284 82.9286 201.236 82.9763 201.236C83.2148 201.141 83.5011 200.998 83.7397 200.902C84.026 200.807 84.3123 200.664 84.5986 200.568C84.8372 200.473 85.0757 200.377 85.362 200.282C85.4574 200.234 85.5052 200.234 85.6006 200.187C85.8392 200.091 86.0777 200.043 86.3163 199.948C86.5549 199.853 86.8412 199.805 87.0798 199.71C87.1275 199.71 87.1275 199.71 87.1752 199.662C87.4138 199.614 87.6046 199.519 87.8432 199.471C87.9386 199.423 88.0818 199.423 88.1772 199.376C88.3681 199.328 88.5589 199.28 88.7498 199.232C88.8452 199.185 88.9884 199.185 89.0838 199.137C89.2269 199.089 89.4178 199.042 89.5609 199.042C90.4198 198.851 91.2787 198.708 92.1375 198.565C92.1853 198.565 92.1853 198.565 92.233 198.565C92.3761 198.517 92.567 198.517 92.7101 198.517C92.9487 198.469 93.1395 198.469 93.3781 198.421C93.6167 198.374 93.8553 198.374 94.0938 198.326C94.237 198.326 94.3801 198.278 94.5233 198.278C94.7619 198.278 95.0004 198.231 95.239 198.231C95.5253 198.231 95.8593 198.183 96.1456 198.183C96.1933 198.183 96.241 198.183 96.241 198.183C96.5273 198.183 96.7659 198.183 97.0522 198.183C97.0999 198.183 97.0999 198.183 97.1476 198.183C97.4339 198.183 97.7202 198.183 98.0065 198.183C98.6268 198.183 99.2471 198.231 99.9151 198.278C100.201 198.278 100.488 198.326 100.774 198.326C101.013 198.374 101.299 198.374 101.537 198.421C101.728 198.421 101.871 198.469 102.062 198.469C102.301 198.517 102.492 198.517 102.73 198.565C122.914 201.427 136.99 220.177 134.127 240.405C134.127 240.548 134.079 240.691 134.079 240.835C134.031 241.025 134.031 241.264 133.983 241.455C133.936 241.693 133.888 241.884 133.888 242.123C133.84 242.314 133.793 242.504 133.793 242.695C133.697 243.172 133.602 243.649 133.459 244.079C133.172 245.272 132.791 246.464 132.409 247.609C132.313 247.8 132.266 248.039 132.17 248.229C132.075 248.468 132.027 248.659 131.932 248.85C131.836 249.041 131.789 249.279 131.693 249.47C131.598 249.661 131.502 249.899 131.407 250.09C131.264 250.376 131.168 250.663 131.025 250.901C130.882 251.187 130.787 251.426 130.643 251.665C130.643 251.665 130.643 251.665 130.643 251.712C130.5 251.998 130.357 252.237 130.214 252.523C130.071 252.762 129.928 253 129.832 253.239C129.737 253.43 129.594 253.621 129.498 253.811C129.403 253.955 129.307 254.098 129.26 254.241C129.117 254.479 128.973 254.718 128.83 254.909C128.687 255.1 128.544 255.338 128.401 255.529C128.258 255.767 128.067 256.006 127.924 256.245C127.733 256.483 127.59 256.722 127.399 256.96C127.208 257.199 127.065 257.437 126.874 257.676C126.683 257.914 126.54 258.105 126.349 258.344C126.206 258.535 126.015 258.773 125.824 258.964C125.729 259.059 125.681 259.155 125.586 259.25C125.252 259.68 124.87 260.061 124.488 260.491C124.345 260.634 124.202 260.777 124.059 260.92C124.011 260.968 123.963 261.015 123.916 261.111C123.725 261.302 123.534 261.493 123.391 261.636C123.248 261.779 123.105 261.922 122.961 262.065C122.866 262.16 122.771 262.208 122.675 262.304C122.055 262.876 121.387 263.449 120.671 264.021C120.432 264.212 120.242 264.355 120.003 264.546C119.717 264.737 119.478 264.975 119.192 265.166C119.24 265.309 119.049 265.452 118.858 265.596Z" fill="#222221"/>
<path opacity="0.3" d="M120.957 264.021C121.625 263.496 122.293 262.923 122.961 262.303C123.057 262.208 123.152 262.16 123.248 262.065C123.391 261.922 123.534 261.778 123.677 261.635C123.868 261.445 124.059 261.301 124.202 261.111C124.25 261.063 124.297 261.015 124.345 260.92C124.488 260.777 124.631 260.633 124.775 260.49C125.156 260.109 125.538 259.679 125.872 259.25C125.967 259.154 126.015 259.059 126.111 258.964C126.301 258.773 126.445 258.582 126.635 258.343C126.826 258.153 126.969 257.914 127.16 257.675C127.351 257.437 127.494 257.198 127.685 256.96C127.876 256.721 128.019 256.483 128.21 256.244C128.401 256.006 128.544 255.767 128.687 255.529C128.83 255.338 128.973 255.099 129.117 254.908C129.26 254.67 129.403 254.431 129.546 254.24C129.641 254.097 129.737 253.954 129.785 253.811C129.88 253.62 130.023 253.429 130.119 253.239C130.262 253 130.405 252.761 130.5 252.523C130.644 252.237 130.787 251.998 130.93 251.712C130.93 251.712 130.93 251.712 130.93 251.664C131.073 251.426 131.168 251.139 131.312 250.901C131.455 250.615 131.55 250.376 131.693 250.09C131.789 249.899 131.884 249.66 131.98 249.47C131.98 249.422 132.027 249.422 132.027 249.374C132.123 249.183 132.17 248.992 132.266 248.849C132.314 248.754 132.314 248.706 132.361 248.611C132.409 248.515 132.409 248.42 132.457 248.325C132.552 248.086 132.648 247.8 132.743 247.561C133.172 246.416 133.506 245.223 133.793 244.031C133.888 243.745 133.936 243.411 133.984 243.124C134.031 242.981 134.031 242.79 134.079 242.647C134.127 242.456 134.174 242.266 134.174 242.075C134.222 241.836 134.27 241.645 134.27 241.407C134.318 241.216 134.318 240.977 134.365 240.787C134.365 240.643 134.413 240.5 134.461 240.357C137.324 220.176 123.248 201.427 103.064 198.516C102.826 198.469 102.635 198.469 102.396 198.421C102.205 198.373 102.062 198.373 101.871 198.373C101.633 198.326 101.347 198.326 101.108 198.278C100.822 198.23 100.535 198.23 100.249 198.23C99.6288 198.182 98.9608 198.182 98.3405 198.135C98.0542 198.135 97.7679 198.135 97.4817 198.135C97.4339 198.135 97.4339 198.135 97.3862 198.135C97.0999 198.135 96.8614 198.135 96.5751 198.135C96.5274 198.135 96.4796 198.135 96.4796 198.135C96.1933 198.135 95.8593 198.182 95.5731 198.182C95.3345 198.182 95.0959 198.23 94.8573 198.23C94.7142 198.23 94.571 198.278 94.4279 198.278C94.1893 198.278 93.9507 198.326 93.7122 198.373C93.4736 198.421 93.2827 198.421 93.0442 198.469C92.901 198.469 92.7102 198.516 92.567 198.516C92.5193 198.516 92.5193 198.516 92.4716 198.516C91.6127 198.66 90.7538 198.803 89.895 198.994C89.7518 199.041 89.561 199.089 89.4178 199.089C89.2747 199.137 89.1793 199.137 89.0838 199.184C88.893 199.232 88.7021 199.28 88.5113 199.327C88.4158 199.375 88.2727 199.375 88.1772 199.423C87.9387 199.471 87.7478 199.566 87.5092 199.614C87.4615 199.614 87.4615 199.614 87.4138 199.661C87.1752 199.757 86.8889 199.805 86.6504 199.9C86.4118 199.995 86.1732 200.043 85.9346 200.139C85.8392 200.186 85.7915 200.186 85.6961 200.234C85.4575 200.329 85.1712 200.425 84.9326 200.52C84.6463 200.616 84.3601 200.759 84.0738 200.854C83.8352 200.95 83.5489 201.093 83.3103 201.188C83.2626 201.188 83.2626 201.236 83.2149 201.236C83.024 201.331 82.7855 201.427 82.5946 201.522C82.5946 201.522 82.5469 201.522 82.5469 201.57C82.4037 201.618 82.2129 201.713 82.0697 201.808C82.022 201.808 81.9743 201.856 81.9743 201.856C81.8312 201.951 81.688 201.999 81.4972 202.095C81.3063 202.19 81.1632 202.285 80.9723 202.333C80.8292 202.429 80.686 202.476 80.5429 202.572C80.352 202.667 80.1611 202.763 79.9703 202.906C79.7317 203.049 79.4931 203.192 79.2546 203.335C79.016 203.478 78.7774 203.621 78.5388 203.764C78.348 203.908 78.1094 204.051 77.9185 204.146C77.8231 204.194 77.7277 204.289 77.6323 204.337C77.3937 204.48 77.2028 204.623 76.9642 204.766C76.7257 204.957 76.4871 205.1 76.2485 205.291C76.0577 205.434 75.8668 205.577 75.6759 205.72L75.5328 205.816C75.2942 206.007 75.0556 206.15 74.8648 206.341C74.6739 206.484 74.5308 206.627 74.3399 206.77C74.2445 206.866 74.1491 206.913 74.0536 207.009C73.8628 207.152 73.6719 207.343 73.4811 207.486C73.3856 207.581 73.2425 207.677 73.1471 207.82C73.0039 207.915 72.9085 208.058 72.7653 208.154C72.6222 208.297 72.479 208.44 72.3359 208.583C72.2405 208.678 72.0973 208.822 72.0019 208.917C71.9542 208.965 71.9065 209.012 71.811 209.108C71.7156 209.203 71.5725 209.346 71.477 209.442C71.2862 209.633 71.0953 209.871 70.9045 210.062C70.7136 210.253 70.5705 210.396 70.4273 210.587C70.2842 210.73 70.141 210.921 69.9979 211.064C69.807 211.302 69.6162 211.493 69.4253 211.732C69.3299 211.827 69.2821 211.923 69.1867 212.018C68.3278 213.068 67.5644 214.165 66.8487 215.262C66.801 215.358 66.7055 215.453 66.6578 215.596C66.5624 215.787 66.467 215.93 66.3238 216.121C66.2284 216.312 66.133 216.455 65.9898 216.646C65.8944 216.837 65.799 216.98 65.7035 217.171C65.5604 217.409 65.4172 217.648 65.2741 217.934C65.1787 218.125 65.0355 218.363 64.9401 218.554C64.7015 219.031 64.4629 219.508 64.2244 219.985C64.1767 220.129 64.0812 220.272 64.0335 220.415C63.9381 220.606 63.8427 220.844 63.7472 221.035C63.6518 221.321 63.5086 221.608 63.4132 221.894C63.1746 222.466 62.9838 223.039 62.7929 223.611C62.6975 223.945 62.5543 224.279 62.4589 224.613C62.4112 224.852 62.3158 225.043 62.2681 225.281C62.2203 225.52 62.1249 225.758 62.0772 225.997C62.0295 226.14 61.9818 226.331 61.9341 226.474C61.8863 226.617 61.8863 226.76 61.8386 226.903C61.7909 227.046 61.7909 227.19 61.7432 227.333C61.6955 227.428 61.6955 227.571 61.6955 227.667C61.6478 227.857 61.6001 228.048 61.6001 228.287C61.5046 228.812 61.4092 229.384 61.3138 229.909C59.8823 240.119 62.7452 249.899 68.5187 257.532C68.7096 257.771 68.8527 257.962 69.0436 258.2C69.807 259.154 70.5704 260.013 71.4293 260.872C71.6202 261.063 71.811 261.254 71.9542 261.397C72.0019 261.445 72.0496 261.492 72.0973 261.54C72.2405 261.683 72.4313 261.874 72.5745 262.017C72.9562 262.399 73.3856 262.78 73.8151 263.114C73.9105 263.21 74.0059 263.257 74.1014 263.353C74.2922 263.544 74.4831 263.687 74.7216 263.83C74.9602 264.021 75.1511 264.164 75.3897 264.355C75.6282 264.546 75.8668 264.736 76.1054 264.88C76.344 265.07 76.5825 265.214 76.8211 265.404C77.0597 265.595 77.2983 265.738 77.5368 265.881C77.7754 266.025 77.9663 266.168 78.2048 266.311C78.4434 266.454 78.6343 266.597 78.8728 266.74C79.016 266.836 79.1591 266.931 79.3023 266.979C79.4931 267.074 79.684 267.217 79.8749 267.313C80.1134 267.456 80.352 267.599 80.5906 267.694C80.8769 267.838 81.1154 267.981 81.4017 268.124C81.4017 268.124 81.4017 268.124 81.4494 268.124C81.688 268.267 81.9743 268.362 82.2129 268.505C82.4992 268.649 82.7377 268.744 83.024 268.887C83.5966 269.126 84.1215 269.364 84.6941 269.555C84.9803 269.65 85.2666 269.746 85.5529 269.889C85.8392 269.984 86.1255 270.08 86.4118 270.175H86.4595C86.7458 270.271 87.0321 270.366 87.2707 270.414C87.5569 270.509 87.8432 270.605 88.1772 270.652C88.7498 270.795 89.3701 270.939 89.9904 271.082C90.3721 271.177 90.7539 271.225 91.1356 271.32C91.2787 271.368 91.4696 271.368 91.6127 271.416C91.9944 271.463 92.3762 271.559 92.7579 271.607C93.0442 271.654 93.2827 271.702 93.569 271.702C93.7122 271.702 93.8553 271.75 93.9507 271.75C94.1893 271.797 94.4756 271.797 94.7142 271.845C95.0005 271.893 95.3345 271.893 95.6208 271.893C95.9071 271.893 96.1456 271.94 96.4319 271.94C96.9568 271.94 97.4817 271.988 98.0542 271.988C98.1019 271.988 98.1019 271.988 98.1497 271.988C98.3405 271.988 98.5314 271.988 98.77 271.988C98.8654 271.988 98.9131 271.988 99.0085 271.988C99.1994 271.988 99.3902 271.988 99.5811 271.988C100.106 271.988 100.631 271.94 101.203 271.893C101.394 271.893 101.537 271.845 101.728 271.845C101.824 271.845 101.967 271.845 102.062 271.797C102.253 271.797 102.492 271.75 102.683 271.702C102.73 271.702 102.73 271.702 102.778 271.702C103.017 271.654 103.255 271.654 103.494 271.607C103.685 271.559 103.923 271.559 104.114 271.511C104.305 271.463 104.496 271.463 104.734 271.416C105.068 271.368 105.402 271.273 105.736 271.225C105.879 271.177 106.023 271.177 106.166 271.129C106.309 271.082 106.452 271.082 106.643 271.034C106.786 270.986 106.929 270.986 107.072 270.939C107.168 270.939 107.263 270.891 107.359 270.891C107.549 270.843 107.74 270.795 107.979 270.748C107.979 270.748 107.979 270.748 108.027 270.748C108.265 270.7 108.504 270.605 108.742 270.557C109.22 270.414 109.744 270.271 110.222 270.08C110.365 270.032 110.508 269.984 110.699 269.937C111.176 269.746 111.701 269.555 112.178 269.364L112.703 269.126C113.275 268.887 113.8 268.649 114.325 268.362C114.516 268.267 114.754 268.171 114.945 268.076C114.945 268.076 114.993 268.076 114.993 268.028C115.184 267.933 115.375 267.838 115.566 267.694C115.756 267.599 115.947 267.504 116.09 267.408C116.568 267.122 117.045 266.883 117.522 266.597C117.76 266.454 117.999 266.311 118.238 266.168C118.381 266.072 118.476 266.025 118.619 265.929C118.763 265.834 118.906 265.738 119.049 265.643C119.097 265.595 119.144 265.595 119.192 265.547C119.383 265.404 119.574 265.261 119.765 265.118C120.051 264.927 120.337 264.736 120.576 264.498C120.48 264.402 120.719 264.212 120.957 264.021ZM92.7579 271.034C72.9562 268.219 59.1666 249.851 61.9818 230.052C64.7969 210.253 83.2149 196.465 102.969 199.28C122.771 202.095 136.56 220.463 133.745 240.262C130.93 260.061 112.56 273.849 92.7579 271.034Z" fill="white"/>
<path opacity="0.5" d="M88.5113 211.732C84.9804 213.068 81.4495 212.4 80.6861 210.301C79.8749 208.154 82.0698 205.339 85.6007 204.003C89.1316 202.667 92.6625 203.335 93.426 205.435C94.2371 207.581 92.0422 210.396 88.5113 211.732Z" fill="white"/>
<path opacity="0.5" d="M80.495 218.03C78.5387 218.746 76.6301 218.412 76.2006 217.219C75.7712 216.026 76.9641 214.5 78.9204 213.784C80.8767 213.068 82.7853 213.402 83.2147 214.595C83.6442 215.74 82.4513 217.315 80.495 218.03Z" fill="white"/>
<path d="M38.3153 289.689C37.4088 290.309 36.5022 290.929 35.6433 291.549C31.683 287.542 28.3429 283.01 25.6709 278.048C26.5298 277.38 27.3886 276.712 28.2475 276.092C30.9195 281.054 34.3073 285.681 38.3153 289.689Z" fill="url(#paint24_linear_61_464)"/>
<path d="M32.6375 293.554C31.7309 294.174 30.8243 294.747 29.9177 295.367C26.1005 291.455 22.8559 287.018 20.2793 282.199C21.1382 281.531 21.997 280.863 22.8559 280.195C25.4325 285.109 28.7248 289.594 32.6375 293.554Z" fill="url(#paint25_linear_61_464)"/>
<g opacity="0.44">
<path d="M343.023 116.363C375.146 116.363 401.187 90.3253 401.187 58.206C401.187 26.0867 375.146 0.0488281 343.023 0.0488281C310.9 0.0488281 284.858 26.0867 284.858 58.206C284.858 90.3253 310.9 116.363 343.023 116.363Z" fill="url(#paint26_linear_61_464)"/>
<path d="M354.045 105.581C327.898 111.64 301.702 95.3717 295.642 69.2272C289.583 43.0827 305.853 16.8905 332.001 10.7838C358.149 4.72473 384.344 20.9935 390.404 47.138C396.512 73.2825 380.193 99.4747 354.045 105.581Z" fill="white"/>
<path d="M301.702 68.0339C295.881 42.939 310.72 17.7964 335.055 10.4492C334.005 10.6401 333.003 10.8309 331.954 11.0694C305.806 17.1285 289.487 43.3684 295.595 69.4652C301.655 95.6096 327.898 111.926 353.998 105.819C355.048 105.581 356.05 105.295 357.052 105.008C331.953 109.159 307.571 93.1288 301.702 68.0339Z" fill="#E8E8E8"/>
<path d="M335.102 13.8833C335.293 14.5989 334.864 15.3146 334.148 15.5054C333.432 15.6962 332.717 15.2669 332.526 14.5512C332.335 13.8356 332.764 13.12 333.48 12.9291C334.196 12.7383 334.912 13.2154 335.102 13.8833Z" fill="#CFCFCF"/>
<path d="M327.516 15.9347C327.802 16.6026 327.516 17.366 326.848 17.6999C326.18 17.9862 325.416 17.6999 325.082 17.032C324.796 16.3641 325.082 15.6007 325.75 15.2668C326.466 14.9805 327.229 15.2668 327.516 15.9347Z" fill="#CFCFCF"/>
<path d="M320.406 19.2756C320.835 19.8958 320.645 20.7068 320.024 21.0885C319.404 21.5179 318.593 21.327 318.211 20.7068C317.782 20.0866 317.973 19.2756 318.593 18.8939C319.213 18.5122 320.024 18.703 320.406 19.2756Z" fill="#CFCFCF"/>
<path d="M314.012 23.808C314.536 24.3328 314.489 25.1915 313.964 25.6686C313.439 26.1934 312.58 26.1457 312.103 25.6209C311.578 25.0961 311.626 24.2374 312.151 23.7603C312.676 23.2832 313.487 23.2832 314.012 23.808Z" fill="#CFCFCF"/>
<path d="M308.477 29.3885C309.049 29.8179 309.193 30.6289 308.763 31.2491C308.334 31.8216 307.522 31.9648 306.902 31.5354C306.33 31.106 306.186 30.295 306.616 29.6747C307.045 29.0545 307.904 28.9591 308.477 29.3885Z" fill="#CFCFCF"/>
<path d="M303.992 35.7812C304.66 36.1152 304.899 36.8785 304.612 37.5465C304.278 38.2144 303.515 38.4529 302.847 38.1667C302.179 37.8327 301.94 37.0694 302.227 36.4014C302.561 35.7335 303.324 35.495 303.992 35.7812Z" fill="#CFCFCF"/>
<path d="M300.7 42.9373C301.415 43.1282 301.797 43.8915 301.606 44.5595C301.415 45.2274 300.652 45.6568 299.984 45.4659C299.268 45.2751 298.886 44.5117 299.077 43.8438C299.268 43.1282 299.984 42.6988 300.7 42.9373Z" fill="#CFCFCF"/>
<path d="M298.696 50.5249C299.412 50.6203 299.937 51.2405 299.889 52.0038C299.793 52.7195 299.173 53.2443 298.41 53.1966C297.694 53.1011 297.169 52.4809 297.217 51.7176C297.312 50.9542 297.98 50.4294 298.696 50.5249Z" fill="#CFCFCF"/>
<path d="M298.028 58.2997C298.743 58.2519 299.411 58.8245 299.459 59.5401C299.507 60.2557 298.934 60.8759 298.218 60.9236C297.503 60.9714 296.882 60.3988 296.787 59.6832C296.739 59.0153 297.312 58.3474 298.028 58.2997Z" fill="#CFCFCF"/>
<path d="M298.743 66.1254C299.459 65.9346 300.174 66.364 300.365 67.0796C300.556 67.7952 300.127 68.5109 299.411 68.7017C298.695 68.8925 297.979 68.4632 297.789 67.7475C297.598 67.0319 298.027 66.3163 298.743 66.1254Z" fill="#CFCFCF"/>
<path d="M300.795 73.7101C301.463 73.4239 302.227 73.7101 302.561 74.3781C302.847 75.046 302.561 75.8093 301.893 76.1433C301.225 76.4296 300.461 76.1433 300.127 75.4754C299.841 74.7597 300.127 73.9964 300.795 73.7101Z" fill="#CFCFCF"/>
<path d="M304.135 80.7706C304.756 80.3413 305.567 80.5321 305.948 81.1523C306.378 81.7725 306.187 82.5836 305.567 82.9652C304.946 83.3946 304.135 83.2038 303.754 82.5836C303.372 82.0111 303.515 81.2 304.135 80.7706Z" fill="#CFCFCF"/>
<path d="M308.668 87.2124C309.193 86.6876 310.052 86.7353 310.529 87.2601C311.054 87.7849 311.006 88.6436 310.481 89.1207C309.957 89.6455 309.098 89.5978 308.621 89.073C308.096 88.5482 308.143 87.6894 308.668 87.2124Z" fill="#CFCFCF"/>
<path d="M314.203 92.7468C314.632 92.1743 315.443 92.0312 316.064 92.4606C316.636 92.89 316.779 93.701 316.35 94.3212C315.921 94.8938 315.109 95.0369 314.489 94.6075C313.917 94.1304 313.773 93.3194 314.203 92.7468Z" fill="#CFCFCF"/>
<path d="M320.645 97.2315C320.979 96.5636 321.742 96.325 322.41 96.6113C323.078 96.9453 323.317 97.7086 323.031 98.3765C322.697 99.0445 321.933 99.283 321.265 98.9967C320.597 98.6628 320.311 97.8517 320.645 97.2315Z" fill="#CFCFCF"/>
<path d="M327.754 100.524C327.945 99.8081 328.708 99.4264 329.376 99.6172C330.092 99.8081 330.474 100.571 330.283 101.239C330.092 101.955 329.329 102.337 328.661 102.146C327.945 101.955 327.563 101.192 327.754 100.524Z" fill="#CFCFCF"/>
<path d="M335.34 102.526C335.436 101.81 336.056 101.285 336.819 101.333C337.535 101.429 338.06 102.049 338.012 102.812C337.917 103.528 337.297 104.052 336.533 104.005C335.77 103.909 335.245 103.241 335.34 102.526Z" fill="#CFCFCF"/>
<path d="M343.166 103.146C343.118 102.43 343.691 101.763 344.406 101.763C345.122 101.715 345.79 102.287 345.838 103.003C345.886 103.719 345.313 104.387 344.597 104.434C343.834 104.434 343.214 103.909 343.166 103.146Z" fill="#CFCFCF"/>
<path d="M350.991 102.48C350.8 101.764 351.229 101.049 351.945 100.858C352.661 100.667 353.376 101.096 353.567 101.812C353.758 102.528 353.329 103.243 352.613 103.434C351.85 103.625 351.134 103.196 350.991 102.48Z" fill="#CFCFCF"/>
<path d="M358.53 100.428C358.244 99.7606 358.53 98.9972 359.198 98.6633C359.866 98.377 360.63 98.6633 360.964 99.3312C361.25 99.9991 360.964 100.762 360.296 101.096C359.628 101.383 358.817 101.096 358.53 100.428Z" fill="#CFCFCF"/>
<path d="M365.64 97.0875C365.21 96.4673 365.401 95.6562 366.022 95.2745C366.642 94.8452 367.453 95.036 367.835 95.6562C368.264 96.2764 368.073 97.0875 367.453 97.4692C366.88 97.8508 366.069 97.7077 365.64 97.0875Z" fill="#CFCFCF"/>
<path d="M372.034 92.5554C371.509 92.0306 371.557 91.1719 372.081 90.6948C372.606 90.17 373.465 90.2177 373.942 90.7425C374.467 91.2673 374.419 92.126 373.895 92.6031C373.417 93.1279 372.559 93.0802 372.034 92.5554Z" fill="#CFCFCF"/>
<path d="M377.568 87.0213C376.996 86.5919 376.852 85.7809 377.282 85.1607C377.711 84.5882 378.522 84.445 379.143 84.8744C379.715 85.3038 379.859 86.1149 379.429 86.7351C379 87.3076 378.188 87.4507 377.568 87.0213Z" fill="#CFCFCF"/>
<path d="M382.054 80.5807C381.386 80.2468 381.147 79.4834 381.434 78.8155C381.768 78.1476 382.531 77.909 383.199 78.1953C383.867 78.5292 384.106 79.2926 383.819 79.9605C383.533 80.6284 382.722 80.867 382.054 80.5807Z" fill="#CFCFCF"/>
<path d="M385.346 73.4251C384.63 73.2343 384.249 72.4709 384.44 71.803C384.63 71.0874 385.394 70.7057 386.062 70.8965C386.778 71.0874 387.159 71.8507 386.968 72.5186C386.778 73.2343 386.062 73.6636 385.346 73.4251Z" fill="#CFCFCF"/>
<path d="M387.35 65.8857C386.634 65.7902 386.11 65.17 386.157 64.4067C386.253 63.691 386.873 63.1662 387.636 63.2139C388.352 63.3094 388.877 63.9296 388.829 64.6929C388.734 65.4086 388.066 65.9334 387.35 65.8857Z" fill="#CFCFCF"/>
<path d="M388.018 58.0623C387.302 58.11 386.634 57.5375 386.587 56.8219C386.539 56.1063 387.112 55.4383 387.827 55.4383C388.543 55.3906 389.163 55.9631 389.211 56.6788C389.307 57.3944 388.734 58.0146 388.018 58.0623Z" fill="#CFCFCF"/>
<path d="M387.302 50.2369C386.587 50.4277 385.871 49.9983 385.68 49.2827C385.489 48.567 385.919 47.8514 386.634 47.6606C387.35 47.4697 388.066 47.8991 388.257 48.6148C388.448 49.3304 388.018 50.046 387.302 50.2369Z" fill="#CFCFCF"/>
<path d="M385.25 42.6511C384.582 42.9374 383.819 42.6511 383.485 41.9832C383.198 41.3153 383.485 40.5519 384.153 40.218C384.821 39.9317 385.584 40.2179 385.918 40.8859C386.252 41.6015 385.918 42.3649 385.25 42.6511Z" fill="#CFCFCF"/>
<path d="M381.91 35.5902C381.29 36.0196 380.479 35.8288 380.097 35.2086C379.667 34.5884 379.858 33.7773 380.479 33.3956C381.099 32.9663 381.91 33.1571 382.292 33.7773C382.721 34.3498 382.53 35.1609 381.91 35.5902Z" fill="#CFCFCF"/>
<path d="M377.425 29.15C376.9 29.6748 376.041 29.6271 375.564 29.1023C375.039 28.5775 375.087 27.7187 375.612 27.2416C376.137 26.7169 376.995 26.7646 377.473 27.2894C377.95 27.8142 377.95 28.6729 377.425 29.15Z" fill="#CFCFCF"/>
<path d="M371.842 23.6162C371.413 24.1887 370.602 24.3318 369.981 23.9024C369.409 23.473 369.266 22.662 369.695 22.0418C370.124 21.4693 370.936 21.3261 371.556 21.7555C372.176 22.2326 372.272 23.0437 371.842 23.6162Z" fill="#CFCFCF"/>
<path d="M365.401 19.1793C365.067 19.8472 364.304 20.0857 363.636 19.7995C362.968 19.4655 362.729 18.7022 363.016 18.0343C363.35 17.3663 364.113 17.1278 364.781 17.414C365.449 17.7003 365.735 18.5113 365.401 19.1793Z" fill="#CFCFCF"/>
<path d="M358.292 15.8878C358.101 16.6034 357.337 16.9851 356.669 16.7942C355.954 16.6034 355.572 15.8401 355.763 15.1721C355.954 14.4565 356.717 14.0748 357.385 14.2657C358.101 14.4088 358.483 15.1721 358.292 15.8878Z" fill="#CFCFCF"/>
<path d="M350.704 13.8843C350.609 14.6 349.989 15.1248 349.225 15.0771C348.509 14.9816 347.985 14.3614 348.032 13.5981C348.128 12.8824 348.748 12.3576 349.511 12.4054C350.275 12.5008 350.8 13.121 350.704 13.8843Z" fill="#CFCFCF"/>
<path d="M342.879 13.2156C342.927 13.9313 342.354 14.5992 341.638 14.6469C340.923 14.6946 340.255 14.1221 340.255 13.4065C340.207 12.6908 340.78 12.0229 341.495 12.0229C342.211 11.9275 342.831 12.4523 342.879 13.2156Z" fill="#CFCFCF"/>
<path opacity="0.5" d="M390.738 47.0904C384.678 20.9459 358.435 4.62945 332.335 10.7362L343.357 58.1112L390.738 47.0904Z" fill="url(#paint27_linear_61_464)"/>
<path opacity="0.5" d="M354.235 72.041L346.839 60.0184L334.768 12.2617L342.927 60.9248L340.971 74.999C340.637 77.289 342.736 79.1973 344.979 78.6725L352.136 77.0027C354.378 76.4302 355.38 73.9494 354.235 72.041Z" fill="#222221"/>
<path d="M352.851 71.8019L345.456 59.8269L333.384 12.0703L341.543 60.7334L339.587 74.8075C339.253 77.0976 341.352 79.0059 343.595 78.4811L350.752 76.8113C352.995 76.2388 354.044 73.7102 352.851 71.8019Z" fill="#4870FA"/>
<path d="M344.692 65.2188C340.779 66.1253 336.915 63.6921 336.008 59.8277C335.101 55.9156 337.535 52.0512 341.4 51.1447C345.312 50.2382 349.177 52.6714 350.084 56.5358C350.99 60.4479 348.557 64.3123 344.692 65.2188Z" fill="url(#paint28_linear_61_464)"/>
<path d="M349.177 56.7743C349.941 60.1617 347.841 63.549 344.453 64.3123C341.066 65.0757 337.678 62.9765 336.914 59.5892C336.151 56.2018 338.25 52.8145 341.638 52.0512C344.978 51.2878 348.366 53.387 349.177 56.7743Z" fill="url(#paint29_linear_61_464)"/>
<path opacity="0.5" d="M346.172 57.1552C346.601 58.9204 345.504 60.6856 343.738 61.115C341.973 61.5444 340.207 60.4471 339.778 58.6819C339.348 56.9166 340.446 55.1514 342.211 54.722C343.977 54.2926 345.742 55.3899 346.172 57.1552Z" fill="#222221"/>
<path opacity="0.3" d="M331.38 8.0155C303.705 14.4562 286.433 42.1751 292.874 69.8463C299.316 97.5174 327.038 114.788 354.713 108.347C382.387 101.907 399.66 74.1878 393.218 46.5166C386.777 18.8454 359.007 1.57479 331.38 8.0155ZM354.045 105.58C327.897 111.639 301.701 95.3705 295.642 69.226C289.582 43.0816 305.853 16.8894 332 10.7826C358.148 4.72358 384.344 20.9923 390.403 47.1368C396.511 73.2813 380.192 99.4735 354.045 105.58Z" fill="#222221"/>
<path opacity="0.2" d="M330.092 2.57702C361.202 -4.67474 392.312 14.552 399.803 45.515C399.756 45.3242 399.708 45.1334 399.708 44.9902C392.408 13.6932 361.154 -5.77205 329.853 1.52742C298.552 8.82688 279.085 40.0762 286.385 71.3733C286.433 71.5641 286.48 71.7072 286.528 71.8981C279.562 40.7919 298.982 9.82877 330.092 2.57702Z" fill="white"/>
</g>
<path d="M97.6726 414.64C98.0066 430.098 76.4872 443.122 49.576 443.695C22.6648 444.219 0.620525 432.149 0.286521 416.691C0.191091 413.352 1.1931 410.108 3.00627 407.054C9.59093 396.129 27.3409 388.066 48.3831 387.637C69.7594 387.16 88.0819 394.698 94.8574 405.575C96.6229 408.438 97.5772 411.443 97.6726 414.64Z" stroke="#96B3F9" stroke-width="1.1215" stroke-miterlimit="10"/>
<path d="M85.8391 408.677C81.0199 399.66 66.1806 393.267 48.8124 393.649C31.2056 394.031 16.5094 401.187 12.3105 410.586L10.9268 410.633L11.0699 416.979C11.8333 428.858 28.9153 438.066 49.719 437.589C70.5227 437.16 87.2229 427.236 87.4615 415.309L87.3183 408.582L85.8391 408.677Z" fill="url(#paint30_linear_61_464)"/>
<path d="M87.3662 409.011C87.6048 421.129 70.7137 431.339 49.6237 431.816C28.5337 432.245 11.1655 422.799 10.9269 410.633C10.8792 408.009 11.6426 405.433 13.0264 403.095C18.1796 394.507 32.1123 388.21 48.6694 387.828C65.465 387.446 79.8272 393.362 85.1713 401.902C86.555 404.144 87.3185 406.53 87.3662 409.011Z" fill="url(#paint31_linear_61_464)"/>
<path d="M79.4931 408.534C79.6839 418.171 66.276 426.282 49.4804 426.663C32.6848 427.045 18.9429 419.507 18.752 409.87C18.5612 400.233 31.969 392.122 48.7647 391.741C65.5126 391.359 79.3022 398.849 79.4931 408.534Z" fill="url(#paint32_linear_61_464)"/>
<path d="M49.4807 425.232C33.4962 425.566 20.3746 418.648 20.1837 409.774C19.9929 400.9 32.8282 393.41 48.8127 393.076C64.7972 392.742 77.9188 399.66 78.1096 408.534C78.3005 417.408 65.4652 424.898 49.4807 425.232ZM48.8127 393.267C32.9236 393.601 20.1837 400.996 20.3746 409.774C20.5655 418.553 33.6393 425.375 49.4807 425.041C65.3697 424.707 78.1096 417.312 77.9188 408.534C77.7279 399.803 64.654 392.933 48.8127 393.267Z" fill="white"/>
<path opacity="0.2" d="M58.5943 404.239C61.4571 404.191 64.4155 404.621 66.7535 405.623L67.1829 405.814C71.6681 407.722 72.193 410.823 68.3281 412.779L68.1372 412.874L70.523 413.876L66.0378 416.119L63.652 415.117L61.8389 416.023L64.2246 417.025L59.7394 419.267L57.3537 418.266L56.3039 418.79L54.1091 419.888L48.9081 417.693L51.103 416.596L44.8524 413.924L39.7469 411.729L34.1165 409.344L31.9216 410.441L26.7207 408.199L28.9156 407.102L29.9653 406.577L27.0547 405.336L31.4922 403.094L34.4028 404.335L36.216 403.428L33.3054 402.188L37.7428 399.945L40.7012 401.186C44.4706 399.516 50.6259 399.564 54.7771 401.329L55.2065 401.52C57.0197 402.283 58.1648 403.237 58.5943 404.239ZM62.7455 408.104L62.316 407.913C60.7414 407.245 58.308 407.245 56.9242 407.913L56.3517 408.199L49.433 411.682L55.6836 414.353L56.6379 413.876L63.1749 410.584C64.5109 409.869 64.3678 408.771 62.7455 408.104ZM38.6017 407.054L44.2321 409.439L51.1507 405.957C52.3913 405.336 52.2005 404.335 50.769 403.714L50.3396 403.523C48.9081 402.903 46.761 402.903 45.5204 403.523L39.556 406.529L38.6017 407.054Z" fill="white"/>
<path opacity="0.4" d="M85.1713 401.95C80.0181 410.537 66.0853 416.883 49.5283 417.217C32.7326 417.598 18.3704 411.635 13.0264 403.095C18.1796 394.507 32.1123 388.21 48.6694 387.828C65.465 387.494 79.8272 393.41 85.1713 401.95Z" fill="black"/>
<path d="M85.3139 383.82C80.4947 374.803 65.6554 368.41 48.2871 368.792C30.6803 369.173 15.9841 376.33 11.7852 385.728L10.4492 385.776L10.5924 392.121C11.3558 404.001 28.4377 413.209 49.2414 412.732C70.0451 412.302 86.7453 402.379 86.9839 390.451L86.8408 383.724L85.3139 383.82Z" fill="url(#paint33_linear_61_464)"/>
<path d="M86.8412 384.154C87.0797 396.272 70.1887 406.482 49.0987 406.959C28.0087 407.388 10.6405 397.942 10.4019 385.776C10.1633 373.658 27.0544 363.448 48.1444 362.971C69.2344 362.542 86.5549 371.988 86.8412 384.154Z" fill="url(#paint34_linear_61_464)"/>
<path d="M78.9687 383.63C79.1595 393.267 65.7516 401.377 48.956 401.759C32.1603 402.141 18.4185 394.603 18.2276 384.966C18.0367 375.328 31.4446 367.218 48.2403 366.836C64.9882 366.454 78.7778 373.992 78.9687 383.63Z" fill="url(#paint35_linear_61_464)"/>
<path d="M48.9553 400.328C32.9708 400.662 19.8492 393.744 19.6584 384.87C19.4675 375.996 32.3028 368.506 48.2873 368.172C64.2718 367.838 77.3934 374.756 77.5842 383.629C77.7751 392.503 64.9398 399.994 48.9553 400.328ZM48.2396 368.41C32.3505 368.744 19.6106 376.139 19.8015 384.918C19.9924 393.696 33.0662 400.518 48.9076 400.184C64.7966 399.85 77.5365 392.456 77.3457 383.677C77.2025 374.899 64.1286 368.076 48.2396 368.41Z" fill="white"/>
<path opacity="0.2" d="M58.0687 379.383C60.9316 379.335 63.8899 379.764 66.228 380.766L66.6574 380.957C71.1426 382.866 71.6675 385.967 67.8026 387.923L67.6117 388.018L69.9974 389.02L65.5123 391.262L63.1265 390.26L61.3133 391.167L63.6991 392.169L59.2616 394.411L56.8759 393.409L55.8261 393.934L53.6312 395.031L48.4303 392.837L50.6252 391.739L44.3746 389.068L39.1736 386.873L33.5433 384.488L31.3484 385.585L26.1475 383.39L28.3423 382.293L29.3921 381.768L26.4815 380.528L30.919 378.286L33.8296 379.526L35.6427 378.619L32.7321 377.379L37.1696 375.137L40.1279 376.377C43.8974 374.707 50.0526 374.755 54.2038 376.52L54.6333 376.711C56.4941 377.379 57.5916 378.381 58.0687 379.383ZM62.2199 383.2L61.7905 383.009C60.2159 382.341 57.7824 382.341 56.3987 383.009L55.8261 383.295L48.9075 386.778L55.1581 389.449L56.1124 388.972L62.6494 385.68C63.9854 385.012 63.8422 383.867 62.2199 383.2ZM38.0285 382.198L43.6588 384.583L50.5775 381.1C51.8181 380.48 51.6272 379.478 50.1958 378.858L49.7663 378.667C48.3349 378.047 46.1877 378.047 44.9471 378.667L38.9828 381.673L38.0285 382.198Z" fill="white"/>
<path opacity="0.4" d="M84.7426 377.092C79.5894 385.68 65.6566 392.025 49.0996 392.359C32.3039 392.741 17.9417 386.777 12.5977 378.237C17.7509 369.65 31.6836 363.352 48.2407 362.97C65.0363 362.637 79.4462 368.552 84.7426 377.092Z" fill="black"/>
<path d="M84.7426 358.916C79.9234 349.899 65.0841 343.506 47.7158 343.887C30.109 344.269 15.4129 351.425 11.2139 360.824L9.87793 360.872L10.0211 367.217C10.7845 379.097 27.8664 388.304 48.6701 387.827C69.4738 387.35 86.1741 377.474 86.4126 365.547L86.2695 358.82L84.7426 358.916Z" fill="url(#paint36_linear_61_464)"/>
<path d="M86.3167 359.25C86.5553 371.368 69.6643 381.577 48.5743 382.054C27.4843 382.484 10.1161 373.037 9.8775 360.872C9.63892 348.754 26.53 338.544 47.62 338.067C68.71 337.637 86.0305 347.131 86.3167 359.25Z" fill="url(#paint37_linear_61_464)"/>
<path d="M78.4442 358.725C78.6351 368.363 65.2272 376.473 48.4316 376.855C31.6359 377.236 17.894 369.698 17.7032 360.061C17.5123 350.424 30.9202 342.314 47.7159 341.932C64.4638 341.55 78.2534 349.088 78.4442 358.725Z" fill="url(#paint38_linear_61_464)"/>
<path d="M48.4309 375.47C32.4464 375.804 19.3248 368.886 19.1339 360.012C18.9431 351.139 31.7784 343.648 47.7629 343.314C63.7474 342.98 76.869 349.898 77.0598 358.772C77.203 367.646 64.3677 375.136 48.4309 375.47ZM47.7152 343.505C31.8261 343.839 19.0862 351.234 19.2771 360.012C19.4679 368.791 32.5418 375.613 48.3832 375.279C64.2722 374.945 77.0121 367.55 76.8212 358.772C76.6781 350.041 63.6042 343.171 47.7152 343.505Z" fill="white"/>
<path d="M57.4967 354.479C60.3596 354.431 63.318 354.86 65.656 355.862L66.0854 356.053C70.5706 357.961 71.0955 361.062 67.2306 363.018L67.0397 363.114L69.4255 364.116L64.9403 366.358L62.5545 365.356L60.7413 366.263L63.1271 367.265L58.6896 369.507L56.3039 368.505L55.2541 369.03L53.0592 370.127L47.8583 367.932L50.0532 366.835L43.898 364.163L38.6971 361.969L33.0667 359.583L30.8718 360.681L25.6709 358.486L27.8658 357.389L28.9155 356.864L26.0049 355.624L30.4424 353.381L33.353 354.622L35.1662 353.715L32.2556 352.475L36.693 350.232L39.6514 351.473C43.4208 349.803 49.5761 349.851 53.7273 351.616L54.1567 351.807C55.9699 352.522 57.0673 353.477 57.4967 354.479ZM61.6956 358.343L61.2662 358.152C59.6916 357.484 57.2582 357.484 55.8744 358.152L55.3018 358.438L48.3832 361.921L54.6338 364.593L55.5881 364.116L62.1251 360.824C63.4611 360.108 63.2702 359.011 61.6956 358.343ZM37.5042 357.293L43.1346 359.679L50.0532 356.196C51.2938 355.576 51.1029 354.574 49.6715 353.954L49.2421 353.763C47.8106 353.143 45.6634 353.143 44.4229 353.763L38.4585 356.769L37.5042 357.293Z" fill="white" fill-opacity="0.2"/>
<path d="M373.894 426.757C373.894 442.215 352.088 454.762 325.177 454.762C298.266 454.762 276.46 442.215 276.46 426.757C276.46 423.417 277.51 420.173 279.371 417.215C286.146 406.433 304.087 398.752 325.177 398.752C346.553 398.752 364.732 406.672 371.269 417.692C372.939 420.507 373.894 423.561 373.894 426.757Z" stroke="#96B3F9" stroke-width="1.1215" stroke-miterlimit="10"/>
<path d="M360.438 420.746V430.478C360.39 433.436 358.195 436.156 354.521 438.446C348.032 442.501 336.771 445.173 324.031 445.173C304.039 445.173 287.816 438.589 287.625 430.431V420.698H296.166C302.846 417.454 312.818 415.402 324.031 415.402C332.906 415.402 341.066 416.69 347.364 418.885C348.986 419.458 350.513 420.078 351.849 420.698H360.438V420.746Z" fill="url(#paint39_linear_61_464)"/>
<path d="M360.438 430.001V430.43C360.39 433.388 358.195 436.108 354.521 438.398C348.032 442.453 336.771 445.125 324.031 445.125C304.039 445.125 287.816 438.541 287.625 430.382V429.953C287.816 438.111 304.039 444.695 324.031 444.695C336.676 444.695 347.793 442.071 354.33 438.064C358.1 435.821 360.343 433.006 360.438 430.001Z" fill="black"/>
<path d="M324.031 435.583C344.138 435.583 360.438 428.94 360.438 420.746C360.438 412.551 344.138 405.908 324.031 405.908C303.925 405.908 287.625 412.551 287.625 420.746C287.625 428.94 303.925 435.583 324.031 435.583Z" fill="url(#paint40_linear_61_464)"/>
<path d="M323.936 432.386C341.645 432.386 356.001 427.046 356.001 420.458C356.001 413.871 341.645 408.531 323.936 408.531C306.228 408.531 291.872 413.871 291.872 420.458C291.872 427.046 306.228 432.386 323.936 432.386Z" fill="#FCFAFF"/>
<path d="M324.031 435.01C304.134 435.01 288.007 428.522 287.625 420.459C287.625 420.554 287.625 420.65 287.625 420.745C287.625 428.951 303.943 435.583 324.031 435.583C344.119 435.583 360.438 428.951 360.438 420.745C360.438 420.65 360.438 420.554 360.438 420.459C360.056 428.522 343.881 435.01 324.031 435.01Z" fill="white"/>
<path opacity="0.7" d="M360.438 354.096V421.652H360.39C360.39 421.747 360.342 421.89 360.342 421.985C360.342 422.081 360.295 422.224 360.247 422.319C360.199 422.415 360.199 422.558 360.151 422.653C360.104 422.749 360.056 422.892 360.008 422.987C359.961 423.083 359.913 423.226 359.865 423.321C359.817 423.417 359.77 423.56 359.674 423.655C359.579 423.894 359.436 424.085 359.293 424.323C359.293 424.323 359.293 424.323 359.293 424.371C359.054 424.705 358.815 425.039 358.529 425.373C358.338 425.564 358.147 425.802 357.957 425.993C357.957 425.993 357.956 425.993 357.909 426.041C357.718 426.232 357.479 426.422 357.288 426.661C357.193 426.756 357.05 426.852 356.954 426.947C356.811 427.043 356.716 427.186 356.573 427.281C356.334 427.472 356.048 427.711 355.762 427.901C355.618 427.997 355.475 428.092 355.332 428.188C355.189 428.283 355.046 428.378 354.903 428.474C354.76 428.569 354.616 428.665 354.426 428.76C354.282 428.856 354.092 428.951 353.948 429.046C353.805 429.142 353.614 429.237 353.471 429.333C353.328 429.428 353.137 429.524 352.946 429.619C352.803 429.667 352.708 429.762 352.565 429.81C352.422 429.905 352.278 429.953 352.135 430.001C351.849 430.144 351.563 430.287 351.229 430.43C351.086 430.525 350.895 430.573 350.752 430.621C350.608 430.669 350.513 430.716 350.37 430.764C350.322 430.812 350.227 430.812 350.179 430.859C349.606 431.098 349.034 431.336 348.461 431.527C348.27 431.623 348.08 431.67 347.889 431.718C346.553 432.195 345.121 432.625 343.594 433.006C343.165 433.102 342.688 433.245 342.211 433.34C341.924 433.436 341.59 433.483 341.304 433.531C340.875 433.626 340.445 433.722 340.016 433.817C339.252 433.96 338.441 434.104 337.63 434.247C337.344 434.294 337.105 434.342 336.819 434.39C336.485 434.438 336.199 434.485 335.865 434.533C335.674 434.581 335.435 434.581 335.196 434.628C334.767 434.676 334.338 434.724 333.86 434.771C333.574 434.819 333.288 434.819 333.002 434.867C331.856 435.01 330.664 435.105 329.471 435.153C329.232 435.153 328.994 435.201 328.755 435.201C328.66 435.201 328.516 435.201 328.373 435.201C328.135 435.201 327.944 435.201 327.705 435.249C327.324 435.249 326.99 435.296 326.608 435.296C326.465 435.296 326.369 435.296 326.226 435.296C326.035 435.296 325.892 435.296 325.701 435.296C325.653 435.296 325.654 435.296 325.606 435.296C325.367 435.296 325.081 435.296 324.842 435.296H324.938C324.652 435.296 324.317 435.296 324.031 435.296C323.411 435.296 322.791 435.296 322.17 435.296C322.027 435.296 321.884 435.296 321.741 435.296C320.882 435.296 320.071 435.249 319.212 435.201C318.973 435.201 318.735 435.153 318.496 435.153C317.303 435.058 316.111 434.962 314.965 434.867C314.679 434.819 314.393 434.819 314.107 434.771C313.677 434.724 313.2 434.676 312.77 434.628C312.532 434.581 312.341 434.581 312.102 434.533C311.768 434.485 311.482 434.438 311.148 434.39C310.862 434.342 310.623 434.294 310.337 434.247C309.526 434.104 308.762 433.96 307.951 433.817C307.522 433.722 307.092 433.626 306.663 433.531C306.377 433.483 306.043 433.388 305.756 433.34C305.279 433.245 304.85 433.102 304.373 433.006C302.846 432.625 301.414 432.195 300.078 431.718C299.887 431.67 299.697 431.575 299.506 431.527C298.933 431.289 298.361 431.098 297.788 430.859C297.597 430.764 297.406 430.716 297.215 430.621C297.072 430.573 296.881 430.478 296.738 430.43C296.452 430.287 296.118 430.144 295.832 430.001C295.689 429.953 295.545 429.857 295.402 429.81C295.259 429.762 295.164 429.667 295.021 429.619C294.83 429.524 294.687 429.428 294.496 429.333C294.353 429.237 294.162 429.142 294.019 429.046C293.875 428.951 293.685 428.856 293.541 428.76C293.398 428.665 293.255 428.569 293.064 428.474C292.921 428.378 292.778 428.283 292.635 428.188C292.492 428.092 292.349 427.997 292.205 427.901C291.919 427.711 291.681 427.52 291.394 427.281C291.251 427.186 291.108 427.043 291.013 426.947C290.917 426.852 290.774 426.756 290.678 426.661C290.44 426.47 290.249 426.279 290.058 426.041C290.058 426.041 290.058 425.993 290.01 425.993C289.82 425.802 289.629 425.564 289.438 425.373C289.152 425.039 288.913 424.705 288.674 424.371C288.674 424.371 288.674 424.371 288.674 424.323C288.531 424.085 288.436 423.894 288.293 423.655C288.245 423.56 288.197 423.417 288.102 423.321C288.054 423.226 288.006 423.083 287.959 422.987C287.911 422.892 287.863 422.749 287.816 422.653C287.768 422.558 287.72 422.415 287.72 422.319C287.672 422.224 287.672 422.081 287.625 421.985C287.577 421.89 287.577 421.747 287.577 421.652H287.529V355.098H288.197H288.484L292.826 355.05L355.428 354.191L359.913 354.143H360.104L360.438 354.096Z" fill="url(#paint41_linear_61_464)"/>
<path opacity="0.7" d="M324.031 394.886C344.138 394.886 360.438 388.243 360.438 380.048C360.438 371.854 344.138 365.211 324.031 365.211C303.925 365.211 287.625 371.854 287.625 380.048C287.625 388.243 303.925 394.886 324.031 394.886Z" fill="url(#paint42_linear_61_464)"/>
<path opacity="0.5" d="M324.031 394.409C304.134 394.409 287.959 387.921 287.625 379.811C287.625 379.906 287.625 380.001 287.625 380.049C287.625 388.255 303.943 394.887 324.031 394.887C344.119 394.887 360.438 388.255 360.438 380.049C360.438 379.954 360.438 379.858 360.438 379.811C360.104 387.873 343.929 394.409 324.031 394.409Z" fill="white"/>
<path opacity="0.8" d="M323.936 394.886C303.848 394.886 287.529 388.255 287.529 380.049V421.603H287.577C288.722 429.38 304.564 435.534 323.936 435.534C343.308 435.534 359.149 429.38 360.295 421.603H360.342V380.049C360.342 388.255 344.024 394.886 323.936 394.886Z" fill="url(#paint43_linear_61_464)"/>
<path opacity="0.5" d="M360.438 421.078V421.651H360.39C360.39 421.746 360.342 421.889 360.342 421.985C360.342 422.08 360.295 422.223 360.247 422.319C360.199 422.414 360.199 422.557 360.151 422.653C360.104 422.748 360.056 422.891 360.008 422.986C359.961 423.082 359.913 423.225 359.865 423.32C359.817 423.416 359.77 423.559 359.674 423.654C359.579 423.893 359.436 424.084 359.293 424.322C359.293 424.322 359.293 424.322 359.293 424.37C359.054 424.704 358.815 425.038 358.529 425.372C358.338 425.563 358.147 425.801 357.957 425.992C357.957 425.992 357.956 425.992 357.909 426.04C357.718 426.231 357.479 426.422 357.288 426.66C357.193 426.755 357.05 426.851 356.954 426.946C356.811 427.042 356.716 427.185 356.573 427.28C356.334 427.471 356.048 427.71 355.762 427.901C355.618 427.996 355.475 428.091 355.332 428.187C355.189 428.282 355.046 428.378 354.903 428.473C354.76 428.568 354.616 428.664 354.426 428.759C354.282 428.855 354.092 428.95 353.948 429.046C353.805 429.141 353.614 429.236 353.471 429.332C353.328 429.427 353.137 429.523 352.946 429.618C352.803 429.666 352.708 429.761 352.565 429.809C352.422 429.904 352.278 429.952 352.135 430C351.849 430.143 351.563 430.286 351.229 430.429C351.086 430.525 350.895 430.572 350.752 430.62C350.608 430.668 350.513 430.715 350.37 430.763C350.322 430.811 350.227 430.811 350.179 430.858C349.606 431.097 349.034 431.336 348.461 431.526C348.27 431.622 348.08 431.67 347.889 431.717C346.553 432.194 345.121 432.624 343.594 433.005C343.165 433.101 342.688 433.244 342.211 433.339C341.924 433.435 341.59 433.482 341.304 433.53C340.875 433.626 340.445 433.721 340.016 433.816C339.252 433.96 338.441 434.103 337.63 434.246C337.344 434.294 337.105 434.341 336.819 434.389C336.485 434.437 336.199 434.484 335.865 434.532C335.674 434.58 335.435 434.58 335.196 434.627C334.767 434.675 334.338 434.723 333.86 434.771C333.574 434.818 333.288 434.818 333.002 434.866C331.856 435.009 330.664 435.105 329.471 435.152C329.232 435.152 328.994 435.2 328.755 435.2C328.66 435.2 328.516 435.2 328.373 435.2C328.135 435.2 327.944 435.2 327.705 435.248C327.324 435.248 326.99 435.295 326.608 435.295C326.465 435.295 326.369 435.295 326.226 435.295C326.035 435.295 325.892 435.295 325.701 435.295C325.653 435.295 325.654 435.295 325.606 435.295C325.367 435.295 325.081 435.295 324.842 435.295H324.938C324.652 435.295 324.317 435.295 324.031 435.295C323.411 435.295 322.791 435.295 322.17 435.295C322.027 435.295 321.884 435.295 321.741 435.295C320.882 435.295 320.071 435.248 319.212 435.2C318.973 435.2 318.735 435.152 318.496 435.152C317.303 435.057 316.111 434.961 314.965 434.866C314.679 434.818 314.393 434.818 314.107 434.771C313.677 434.723 313.2 434.675 312.77 434.627C312.532 434.58 312.341 434.58 312.102 434.532C311.768 434.484 311.482 434.437 311.148 434.389C310.862 434.341 310.623 434.294 310.337 434.246C309.526 434.103 308.762 433.96 307.951 433.816C307.522 433.721 307.092 433.626 306.663 433.53C306.377 433.482 306.043 433.387 305.756 433.339C305.279 433.244 304.85 433.101 304.373 433.005C302.846 432.624 301.414 432.194 300.078 431.717C299.887 431.67 299.697 431.574 299.506 431.526C298.933 431.288 298.361 431.097 297.788 430.858C297.597 430.763 297.406 430.715 297.215 430.62C297.072 430.572 296.881 430.477 296.738 430.429C296.452 430.286 296.118 430.143 295.832 430C295.689 429.952 295.545 429.857 295.402 429.809C295.259 429.761 295.164 429.666 295.021 429.618C294.83 429.523 294.687 429.427 294.496 429.332C294.353 429.236 294.162 429.141 294.019 429.046C293.875 428.95 293.685 428.855 293.541 428.759C293.398 428.664 293.255 428.568 293.064 428.473C292.921 428.378 292.778 428.282 292.635 428.187C292.492 428.091 292.349 427.996 292.205 427.901C291.919 427.71 291.681 427.519 291.394 427.28C291.251 427.185 291.108 427.042 291.013 426.946C290.917 426.851 290.774 426.755 290.678 426.66C290.44 426.469 290.249 426.278 290.058 426.04C290.058 426.04 290.058 425.992 290.01 425.992C289.82 425.801 289.629 425.563 289.438 425.372C289.152 425.038 288.913 424.704 288.674 424.37C288.674 424.37 288.674 424.37 288.674 424.322C288.531 424.084 288.436 423.893 288.293 423.654C288.245 423.559 288.197 423.416 288.102 423.32C288.054 423.225 288.006 423.082 287.959 422.986C287.911 422.891 287.863 422.748 287.816 422.653C287.768 422.557 287.72 422.414 287.72 422.319C287.672 422.223 287.672 422.08 287.625 421.985C287.577 421.889 287.577 421.746 287.577 421.651H287.529V421.078H287.577C288.722 428.855 304.564 435.009 323.936 435.009C334.242 435.009 343.499 433.292 350.131 430.477C355.905 428.044 359.627 424.799 360.247 421.221C360.247 421.174 360.247 421.126 360.295 421.078H360.438Z" fill="white"/>
<path d="M351.849 352.282C345.169 349.038 335.197 346.986 323.984 346.986C312.818 346.986 302.798 349.038 296.118 352.282H287.577V362.015C287.768 370.173 303.991 376.757 323.984 376.757C343.976 376.757 360.199 370.173 360.39 362.015V352.282H351.849Z" fill="url(#paint44_linear_61_464)"/>
<path d="M324.031 376.281C304.039 376.281 287.816 369.697 287.625 361.539V361.968C287.816 370.127 304.039 376.71 324.031 376.71C344.024 376.71 360.247 370.127 360.438 361.968V361.539C360.247 369.697 344.024 376.281 324.031 376.281Z" fill="black"/>
<path d="M324.031 367.12C344.138 367.12 360.438 360.477 360.438 352.283C360.438 344.088 344.138 337.445 324.031 337.445C303.925 337.445 287.625 344.088 287.625 352.283C287.625 360.477 303.925 367.12 324.031 367.12Z" fill="url(#paint45_linear_61_464)"/>
<path d="M323.936 363.923C341.644 363.923 356 358.583 356 351.996C356 345.408 341.644 340.068 323.936 340.068C306.227 340.068 291.871 345.408 291.871 351.996C291.871 358.583 306.227 363.923 323.936 363.923Z" fill="#FCFAFF"/>
<path d="M324.031 366.547C304.134 366.547 288.007 360.059 287.625 351.996C287.625 352.092 287.625 352.187 287.625 352.282C287.625 360.488 303.943 367.12 324.031 367.12C344.119 367.12 360.438 360.488 360.438 352.282C360.438 352.187 360.438 352.092 360.438 351.996C360.056 360.059 343.881 366.547 324.031 366.547Z" fill="white"/>
<path opacity="0.4" d="M360.438 401.518V430.478C360.39 433.436 358.195 436.155 354.521 438.445C354.473 438.35 354.378 438.254 354.33 438.111C353.376 436.68 352.469 435.153 351.658 433.531C351.229 432.672 350.799 431.814 350.465 430.955C350.465 430.955 350.465 430.955 350.465 430.907C350.417 430.764 350.37 430.621 350.274 430.478C349.892 429.571 349.559 428.713 349.272 427.806C348.222 424.753 347.602 421.699 347.411 418.884C347.22 416.547 347.364 414.4 347.745 412.444C347.936 411.49 348.175 410.583 348.509 409.724C349.415 407.339 350.895 405.478 352.899 404.333L356.668 402.425C357.813 401.852 359.054 401.518 360.342 401.471C360.342 401.518 360.39 401.518 360.438 401.518Z" fill="black"/>
<path d="M383.15 441.308C387.206 435.821 386.729 425.087 381.528 414.734C376.232 404.285 367.691 397.511 360.82 397.702L360.39 396.891L356.621 398.799C349.702 402.663 349.082 415.593 355.38 427.949C361.631 440.306 372.414 447.51 379.619 444.218L383.627 442.214L383.15 441.308Z" fill="url(#paint46_linear_61_464)"/>
<path d="M383.389 442.31C376.184 445.984 365.162 438.732 358.816 426.185C352.47 413.637 353.186 400.517 360.391 396.844C367.595 393.17 378.618 400.422 384.964 412.969C391.31 425.517 390.642 438.684 383.389 442.31Z" fill="url(#paint47_linear_61_464)"/>
<path d="M381.432 437.444C375.707 440.354 366.975 434.629 361.917 424.658C356.859 414.687 357.432 404.239 363.158 401.328C368.883 398.418 377.615 404.143 382.673 414.114C387.731 424.086 387.206 434.534 381.432 437.444Z" fill="url(#paint48_linear_61_464)"/>
<path d="M362.776 424.229C357.956 414.735 358.338 404.86 363.587 402.188C368.835 399.516 377.042 405.098 381.862 414.592C386.681 424.086 386.299 433.962 381.05 436.634C375.754 439.305 367.547 433.723 362.776 424.229ZM381.766 414.592C376.995 405.146 368.883 399.612 363.682 402.236C358.481 404.86 358.147 414.688 362.919 424.134C367.69 433.58 375.802 439.115 381.003 436.491C386.156 433.867 386.538 424.039 381.766 414.592Z" fill="white"/>
<path d="M377.997 423.657C378.856 425.375 379.429 427.283 379.524 428.953V429.287C379.667 432.531 377.949 433.724 375.707 431.958L375.611 431.863L375.707 433.58L373.082 431.529L372.987 429.811L371.89 429L371.985 430.718L369.361 428.666L369.265 426.949L368.645 426.472L367.357 425.47L367.166 421.701L368.454 422.703L368.263 418.17L368.072 414.401L367.881 410.346L366.593 409.344L366.402 405.575L367.691 406.577L368.311 407.054L368.216 404.955L370.84 407.007L370.935 409.106L372.033 409.917L371.937 407.818L374.562 409.869L374.657 412.016C376.709 413.781 378.474 417.503 378.617 420.508V420.794C378.713 422.13 378.474 423.084 377.997 423.657ZM376.852 427.283V426.949C376.804 425.804 376.088 424.325 375.277 423.705L374.943 423.466L370.84 420.317L371.031 424.85L371.603 425.279L375.468 428.285C376.327 428.857 376.947 428.428 376.852 427.283ZM370.506 412.445L370.697 416.501L374.8 419.649C375.516 420.222 376.088 419.84 376.041 418.791V418.457C375.993 417.407 375.373 416.119 374.657 415.546L371.126 412.827L370.506 412.445Z" fill="white"/>
</g>
<defs>
<linearGradient id="paint0_linear_61_464" x1="70.5889" y1="341.322" x2="372.178" y2="341.322" gradientUnits="userSpaceOnUse">
<stop offset="1e-08" stop-color="#96B3F9"/>
<stop offset="1" stop-color="#4870FA"/>
</linearGradient>
<linearGradient id="paint1_linear_61_464" x1="95.1868" y1="339.631" x2="348.251" y2="339.631" gradientUnits="userSpaceOnUse">
<stop stop-color="#F1F2FB"/>
<stop offset="1" stop-color="#E2E6F7"/>
</linearGradient>
<linearGradient id="paint2_linear_61_464" x1="95.187" y1="306.349" x2="348.251" y2="306.349" gradientUnits="userSpaceOnUse">
<stop stop-color="#F2F0FB"/>
<stop offset="1" stop-color="#F4F3FB"/>
</linearGradient>
<linearGradient id="paint3_linear_61_464" x1="149.878" y1="306.833" x2="293.56" y2="306.833" gradientUnits="userSpaceOnUse">
<stop stop-color="#F1F2FB"/>
<stop offset="1" stop-color="#E2E6F7"/>
</linearGradient>
<linearGradient id="paint4_linear_61_464" x1="149.878" y1="287.937" x2="293.56" y2="287.937" gradientUnits="userSpaceOnUse">
<stop stop-color="#F2F0FB"/>
<stop offset="1" stop-color="#F4F3FB"/>
</linearGradient>
<linearGradient id="paint5_linear_61_464" x1="221.383" y1="346.871" x2="221.383" y2="51.6934" gradientUnits="userSpaceOnUse">
<stop stop-color="#4870FA"/>
<stop offset="1" stop-color="#96B3F9" stop-opacity="0"/>
</linearGradient>
<linearGradient id="paint6_linear_61_464" x1="380.494" y1="224.428" x2="380.494" y2="185.82" gradientUnits="userSpaceOnUse">
<stop offset="1e-08" stop-color="#96B3F9"/>
<stop offset="1" stop-color="#4870FA"/>
</linearGradient>
<linearGradient id="paint7_linear_61_464" x1="364.074" y1="224.428" x2="364.074" y2="185.82" gradientUnits="userSpaceOnUse">
<stop stop-color="#4870FA"/>
<stop offset="1" stop-color="#96B3F9"/>
</linearGradient>
<linearGradient id="paint8_linear_61_464" x1="381.559" y1="275.232" x2="381.559" y2="222.631" gradientUnits="userSpaceOnUse">
<stop offset="1e-08" stop-color="#96B3F9"/>
<stop offset="1" stop-color="#4870FA"/>
</linearGradient>
<linearGradient id="paint9_linear_61_464" x1="378.256" y1="227.752" x2="354.155" y2="269.502" gradientUnits="userSpaceOnUse">
<stop offset="1e-08" stop-color="#96B3F9"/>
<stop offset="1" stop-color="#4870FA"/>
</linearGradient>
<linearGradient id="paint10_linear_61_464" x1="80.4355" y1="117.58" x2="80.4355" y2="88.5715" gradientUnits="userSpaceOnUse">
<stop offset="1e-08" stop-color="#96B3F9"/>
<stop offset="1" stop-color="#4870FA"/>
</linearGradient>
<linearGradient id="paint11_linear_61_464" x1="68.0981" y1="117.58" x2="68.0981" y2="88.5715" gradientUnits="userSpaceOnUse">
<stop stop-color="#4870FA"/>
<stop offset="1" stop-color="#96B3F9"/>
</linearGradient>
<linearGradient id="paint12_linear_61_464" x1="81.2351" y1="155.754" x2="81.2351" y2="116.231" gradientUnits="userSpaceOnUse">
<stop offset="1e-08" stop-color="#96B3F9"/>
<stop offset="1" stop-color="#4870FA"/>
</linearGradient>
<linearGradient id="paint13_linear_61_464" x1="78.755" y1="120.078" x2="60.646" y2="151.448" gradientUnits="userSpaceOnUse">
<stop offset="1e-08" stop-color="#96B3F9"/>
<stop offset="1" stop-color="#4870FA"/>
</linearGradient>
<linearGradient id="paint14_linear_61_464" x1="94.7142" y1="24.3699" x2="127.055" y2="68.481" gradientUnits="userSpaceOnUse">
<stop offset="1e-08" stop-color="#8CA5E7"/>
<stop offset="1" stop-color="#4369E9"/>
</linearGradient>
<linearGradient id="paint15_linear_61_464" x1="98.0636" y1="21.9137" x2="130.404" y2="66.0247" gradientUnits="userSpaceOnUse">
<stop offset="1e-08" stop-color="#96B3F9"/>
<stop offset="1" stop-color="#4870FA"/>
</linearGradient>
<linearGradient id="paint16_linear_61_464" x1="101.783" y1="26.1537" x2="127.48" y2="61.2029" gradientUnits="userSpaceOnUse">
<stop stop-color="#4870FA"/>
<stop offset="1" stop-color="#96B3F9"/>
</linearGradient>
<linearGradient id="paint17_linear_61_464" x1="83.7471" y1="240.226" x2="112.564" y2="240.226" gradientUnits="userSpaceOnUse">
<stop stop-color="#4870FA"/>
<stop offset="1" stop-color="#96B3F9"/>
</linearGradient>
<linearGradient id="paint18_linear_61_464" x1="83.7471" y1="229.116" x2="97.7631" y2="229.116" gradientUnits="userSpaceOnUse">
<stop offset="1e-08" stop-color="#96B3F9"/>
<stop offset="1" stop-color="#4870FA"/>
</linearGradient>
<linearGradient id="paint19_linear_61_464" x1="97.7632" y1="229.116" x2="112.564" y2="229.116" gradientUnits="userSpaceOnUse">
<stop offset="1e-08" stop-color="#96B3F9"/>
<stop offset="1" stop-color="#4870FA"/>
</linearGradient>
<linearGradient id="paint20_linear_61_464" x1="83.7471" y1="249.857" x2="97.7631" y2="249.857" gradientUnits="userSpaceOnUse">
<stop stop-color="#4870FA"/>
<stop offset="1" stop-color="#96B3F9"/>
</linearGradient>
<linearGradient id="paint21_linear_61_464" x1="97.7632" y1="249.969" x2="112.564" y2="249.969" gradientUnits="userSpaceOnUse">
<stop offset="1e-08" stop-color="#96B3F9"/>
<stop offset="1" stop-color="#4870FA"/>
</linearGradient>
<linearGradient id="paint22_linear_61_464" x1="61.2522" y1="229.946" x2="134.483" y2="240.37" gradientUnits="userSpaceOnUse">
<stop offset="1e-08" stop-color="#96B3F9"/>
<stop offset="1" stop-color="#4870FA"/>
</linearGradient>
<linearGradient id="paint23_linear_61_464" x1="48.1592" y1="219.71" x2="99.5482" y2="287.178" gradientUnits="userSpaceOnUse">
<stop offset="1e-08" stop-color="#96B3F9"/>
<stop offset="1" stop-color="#4870FA"/>
</linearGradient>
<linearGradient id="paint24_linear_61_464" x1="26.6719" y1="277.245" x2="36.9374" y2="290.723" gradientUnits="userSpaceOnUse">
<stop offset="1e-08" stop-color="#96B3F9"/>
<stop offset="1" stop-color="#4870FA"/>
</linearGradient>
<linearGradient id="paint25_linear_61_464" x1="21.2764" y1="281.386" x2="31.3104" y2="294.559" gradientUnits="userSpaceOnUse">
<stop offset="1e-08" stop-color="#96B3F9"/>
<stop offset="1" stop-color="#4870FA"/>
</linearGradient>
<linearGradient id="paint26_linear_61_464" x1="286.366" y1="71.3665" x2="399.695" y2="44.9974" gradientUnits="userSpaceOnUse">
<stop offset="1e-08" stop-color="#96B3F9"/>
<stop offset="1" stop-color="#4870FA"/>
</linearGradient>
<linearGradient id="paint27_linear_61_464" x1="337.81" y1="34.4253" x2="385.201" y2="23.3985" gradientUnits="userSpaceOnUse">
<stop offset="1e-08" stop-color="#96B3F9"/>
<stop offset="1" stop-color="#4870FA"/>
</linearGradient>
<linearGradient id="paint28_linear_61_464" x1="335.977" y1="59.8254" x2="350.084" y2="56.5432" gradientUnits="userSpaceOnUse">
<stop offset="1e-08" stop-color="#96B3F9"/>
<stop offset="1" stop-color="#4870FA"/>
</linearGradient>
<linearGradient id="paint29_linear_61_464" x1="336.904" y1="59.6097" x2="349.156" y2="56.759" gradientUnits="userSpaceOnUse">
<stop stop-color="#4870FA"/>
<stop offset="1" stop-color="#96B3F9"/>
</linearGradient>
<linearGradient id="paint30_linear_61_464" x1="11.0455" y1="416.471" x2="87.4942" y2="414.835" gradientUnits="userSpaceOnUse">
<stop offset="1e-08" stop-color="#8CA5E7"/>
<stop offset="1" stop-color="#4369E9"/>
</linearGradient>
<linearGradient id="paint31_linear_61_464" x1="10.9236" y1="410.666" x2="87.3674" y2="409.03" gradientUnits="userSpaceOnUse">
<stop offset="1e-08" stop-color="#96B3F9"/>
<stop offset="1" stop-color="#4870FA"/>
</linearGradient>
<linearGradient id="paint32_linear_61_464" x1="18.7592" y1="409.812" x2="79.5026" y2="408.511" gradientUnits="userSpaceOnUse">
<stop stop-color="#4870FA"/>
<stop offset="1" stop-color="#96B3F9"/>
</linearGradient>
<linearGradient id="paint33_linear_61_464" x1="10.5125" y1="391.587" x2="86.9612" y2="389.95" gradientUnits="userSpaceOnUse">
<stop offset="1e-08" stop-color="#8CA5E7"/>
<stop offset="1" stop-color="#4369E9"/>
</linearGradient>
<linearGradient id="paint34_linear_61_464" x1="10.3887" y1="385.783" x2="86.8373" y2="384.146" gradientUnits="userSpaceOnUse">
<stop offset="1e-08" stop-color="#96B3F9"/>
<stop offset="1" stop-color="#4870FA"/>
</linearGradient>
<linearGradient id="paint35_linear_61_464" x1="18.227" y1="384.928" x2="78.9705" y2="383.627" gradientUnits="userSpaceOnUse">
<stop stop-color="#4870FA"/>
<stop offset="1" stop-color="#96B3F9"/>
</linearGradient>
<linearGradient id="paint36_linear_61_464" x1="9.98122" y1="366.703" x2="86.4298" y2="365.066" gradientUnits="userSpaceOnUse">
<stop offset="1e-08" stop-color="#8CA5E7"/>
<stop offset="1" stop-color="#4369E9"/>
</linearGradient>
<linearGradient id="paint37_linear_61_464" x1="9.85654" y1="360.899" x2="86.3051" y2="359.262" gradientUnits="userSpaceOnUse">
<stop offset="1e-08" stop-color="#96B3F9"/>
<stop offset="1" stop-color="#4870FA"/>
</linearGradient>
<linearGradient id="paint38_linear_61_464" x1="17.6948" y1="360.044" x2="78.4384" y2="358.743" gradientUnits="userSpaceOnUse">
<stop stop-color="#4870FA"/>
<stop offset="1" stop-color="#96B3F9"/>
</linearGradient>
<linearGradient id="paint39_linear_61_464" x1="287.609" y1="430.316" x2="360.422" y2="430.316" gradientUnits="userSpaceOnUse">
<stop stop-color="#F1F2FB"/>
<stop offset="1" stop-color="#E2E6F7"/>
</linearGradient>
<linearGradient id="paint40_linear_61_464" x1="287.608" y1="420.74" x2="360.424" y2="420.74" gradientUnits="userSpaceOnUse">
<stop stop-color="#F2F0FB"/>
<stop offset="1" stop-color="#F4F3FB"/>
</linearGradient>
<linearGradient id="paint41_linear_61_464" x1="287.608" y1="394.832" x2="360.422" y2="394.832" gradientUnits="userSpaceOnUse">
<stop offset="1e-08" stop-color="#96B3F9"/>
<stop offset="1" stop-color="#4870FA"/>
</linearGradient>
<linearGradient id="paint42_linear_61_464" x1="287.608" y1="380.068" x2="360.424" y2="380.068" gradientUnits="userSpaceOnUse">
<stop offset="1e-08" stop-color="#96B3F9"/>
<stop offset="1" stop-color="#4870FA"/>
</linearGradient>
<linearGradient id="paint43_linear_61_464" x1="287.511" y1="407.819" x2="360.327" y2="407.819" gradientUnits="userSpaceOnUse">
<stop stop-color="#4870FA"/>
<stop offset="1" stop-color="#96B3F9"/>
</linearGradient>
<linearGradient id="paint44_linear_61_464" x1="287.608" y1="361.846" x2="360.423" y2="361.846" gradientUnits="userSpaceOnUse">
<stop stop-color="#F1F2FB"/>
<stop offset="1" stop-color="#E2E6F7"/>
</linearGradient>
<linearGradient id="paint45_linear_61_464" x1="287.608" y1="352.27" x2="360.424" y2="352.27" gradientUnits="userSpaceOnUse">
<stop stop-color="#F2F0FB"/>
<stop offset="1" stop-color="#F4F3FB"/>
</linearGradient>
<linearGradient id="paint46_linear_61_464" x1="356.942" y1="398.621" x2="379.945" y2="444.072" gradientUnits="userSpaceOnUse">
<stop offset="1e-08" stop-color="#8CA5E7"/>
<stop offset="1" stop-color="#4369E9"/>
</linearGradient>
<linearGradient id="paint47_linear_61_464" x1="360.394" y1="396.875" x2="383.397" y2="442.326" gradientUnits="userSpaceOnUse">
<stop offset="1e-08" stop-color="#96B3F9"/>
<stop offset="1" stop-color="#4870FA"/>
</linearGradient>
<linearGradient id="paint48_linear_61_464" x1="363.166" y1="401.336" x2="381.443" y2="437.45" gradientUnits="userSpaceOnUse">
<stop stop-color="#4870FA"/>
<stop offset="1" stop-color="#96B3F9"/>
</linearGradient>
<clipPath id="clip0_61_464">
<rect width="403" height="455" fill="white"/>
</clipPath>
</defs>
</svg>
