<svg width="202" height="201" viewBox="0 0 202 201" fill="none" xmlns="http://www.w3.org/2000/svg">
<path d="M100.513 190.421C150.267 190.421 190.6 150.123 190.6 100.413C190.6 50.7024 150.267 10.4043 100.513 10.4043C50.7592 10.4043 10.4258 50.7024 10.4258 100.413C10.4258 150.123 50.7592 190.421 100.513 190.421Z" fill="url(#paint0_linear_223_499)"/>
<path d="M100.515 175.923C142.256 175.923 176.093 142.115 176.093 100.412C176.093 58.708 142.256 24.9004 100.515 24.9004C58.7748 24.9004 24.9375 58.708 24.9375 100.412C24.9375 142.115 58.7748 175.923 100.515 175.923Z" fill="url(#paint1_linear_223_499)"/>
<path d="M150.768 150.635C178.523 122.904 178.523 77.943 150.768 50.2118C123.012 22.4805 78.0115 22.4805 50.2559 50.2118C22.5003 77.943 22.5003 122.904 50.2559 150.635C78.0115 178.367 123.012 178.367 150.768 150.635Z" stroke="white" stroke-width="0.471117" stroke-miterlimit="10"/>
<path d="M87.1676 41.7422V97.0644L111.899 69.1121V41.7422H115.682V69.1121H148.269L118.882 102.305L152.052 134.916H122.956L122.665 163.16L118.882 163.742L118.591 102.888L88.3314 136.081V163.742H84.5489V136.081L52.8342 134.916L83.3851 101.141L49.0518 69.1121H83.3851V41.7422H87.1676Z" fill="white" fill-opacity="0.63"/>
<defs>
<linearGradient id="paint0_linear_223_499" x1="10.4258" y1="100.422" x2="190.62" y2="100.422" gradientUnits="userSpaceOnUse">
<stop offset="1e-08" stop-color="#96B3F9"/>
<stop offset="1" stop-color="#4870FA"/>
</linearGradient>
<linearGradient id="paint1_linear_223_499" x1="24.9544" y1="100.421" x2="176.096" y2="100.421" gradientUnits="userSpaceOnUse">
<stop stop-color="#4870FA"/>
<stop offset="1" stop-color="#96B3F9"/>
</linearGradient>
</defs>
</svg>
