<svg width="202" height="202" viewBox="0 0 202 202" fill="none" xmlns="http://www.w3.org/2000/svg">
<path d="M101.462 190.679C151.216 190.679 191.55 150.381 191.55 100.67C191.55 50.9602 151.216 10.6621 101.462 10.6621C51.7084 10.6621 11.375 50.9602 11.375 100.67C11.375 150.381 51.7084 190.679 101.462 190.679Z" fill="url(#paint0_linear_301_947)"/>
<path d="M101.462 190.679C151.216 190.679 191.55 150.381 191.55 100.67C191.55 50.9602 151.216 10.6621 101.462 10.6621C51.7084 10.6621 11.375 50.9602 11.375 100.67C11.375 150.381 51.7084 190.679 101.462 190.679Z" fill="url(#paint1_linear_301_947)"/>
<path d="M101.464 176.181C143.205 176.181 177.042 142.373 177.042 100.67C177.042 58.9658 143.205 25.1582 101.464 25.1582C59.724 25.1582 25.8867 58.9658 25.8867 100.67C25.8867 142.373 59.724 176.181 101.464 176.181Z" fill="url(#paint2_linear_301_947)"/>
<path d="M151.717 150.893C179.473 123.162 179.473 78.2008 151.717 50.4696C123.961 22.7384 78.9607 22.7383 51.2051 50.4696C23.4496 78.2008 23.4496 123.162 51.2051 150.893C78.9607 178.624 123.961 178.624 151.717 150.893Z" stroke="white" stroke-width="0.471117" stroke-miterlimit="10"/>
<path d="M88.1158 42V97.3222L112.847 69.3699V42H116.63V69.3699H149.218L119.831 102.563L153 135.174H123.904L123.613 163.418L119.831 164L119.54 103.146L89.2797 136.339V164H85.4972V136.339L53.7825 135.174L84.3333 101.399L50 69.3699H84.3333V42H88.1158Z" fill="white"/>
<defs>
<linearGradient id="paint0_linear_301_947" x1="11.3732" y1="100.672" x2="191.569" y2="100.672" gradientUnits="userSpaceOnUse">
<stop offset="1e-08" stop-color="#96B3F9"/>
<stop offset="1" stop-color="#4870FA"/>
</linearGradient>
<linearGradient id="paint1_linear_301_947" x1="11.3149" y1="100.671" x2="191.596" y2="100.671" gradientUnits="userSpaceOnUse">
<stop offset="1e-08" stop-color="#7ED8F0"/>
<stop offset="1" stop-color="#0096BE"/>
</linearGradient>
<linearGradient id="paint2_linear_301_947" x1="25.8363" y1="100.67" x2="177.081" y2="100.67" gradientUnits="userSpaceOnUse">
<stop offset="1e-08" stop-color="#3EAAC7"/>
<stop offset="1" stop-color="#78D3EB"/>
</linearGradient>
</defs>
</svg>
