<svg xmlns="http://www.w3.org/2000/svg" width="162" height="161" fill="none"><g clip-path="url(#a)"><path fill="url(#b)" d="M162 103.61c0 31.06-25.149 56.247-56.162 56.247-25.223 0-46.545-16.625-53.652-39.547a56.24 56.24 0 0 1-2.51-16.7c0-31.06 25.148-56.247 56.162-56.247 2.559 0 5.094.175 7.579.498C140.852 51.569 162 75.113 162 103.61Z"/><path fill="url(#c)" d="M105.838 150.797c26.022 0 47.117-21.127 47.117-47.188 0-26.06-21.095-47.187-47.117-47.187s-47.116 21.126-47.116 47.187c0 26.061 21.094 47.188 47.116 47.188Z"/><path fill="#CCD9FD" d="M102.731 131.161v-6.421c-4.522-.199-8.896-1.493-11.456-2.912l2.013-7.914c2.833 1.543 6.809 2.962 11.183 2.962 3.901 0 6.536-1.543 6.536-4.181 0-2.564-2.162-4.182-7.207-5.874-7.207-2.439-12.127-5.799-12.127-12.37 0-6.022 4.175-10.676 11.406-12.02V76.01h6.611v5.948c4.448.124 7.48 1.145 9.84 2.24l-2.013 7.64c-1.689-.82-4.845-2.364-9.716-2.364-4.374 0-5.79 1.966-5.79 3.858 0 2.165 2.361 3.658 8.151 5.749 8.026 2.837 11.182 6.545 11.182 12.693 0 6.023-4.174 11.15-11.928 12.419v6.968h-6.685Z"/><path fill="#000" fill-opacity=".53" d="M115.952 64.56c0 31.061-25.148 56.248-56.161 56.248-2.56 0-5.095-.175-7.58-.498a56.24 56.24 0 0 1-2.51-16.7c0-31.06 25.149-56.247 56.162-56.247 2.56 0 5.095.175 7.58.498a56.246 56.246 0 0 1 2.509 16.7Z" opacity=".4"/><path fill="url(#d)" d="M56.162 117.845c31.017 0 56.162-25.183 56.162-56.247S87.179 5.352 56.162 5.352 0 30.534 0 61.598c0 31.064 25.145 56.247 56.162 56.247Z"/><path fill="url(#e)" d="M56.162 108.785c26.022 0 47.117-21.126 47.117-47.187 0-26.061-21.095-47.188-47.117-47.188-26.021 0-47.116 21.127-47.116 47.188 0 26.06 21.095 47.187 47.116 47.187Z"/><path fill="url(#f)" fill-opacity=".67" d="m98.78 4.679 9.12 20.01 3.653-7.019s22.192 6.023 32.828 31.21l9.741-8.188S142.02 15.007 116.399 6.794L119.754 0 98.78 4.679Z"/><path fill="url(#g)" fill-opacity=".67" d="m55.119 159.282-6.263-21.104-4.572 6.445s-21.148-9.034-28.205-35.465l-10.76 6.77s8.424 27.103 32.678 38.8l-4.3 6.247 21.422-1.693Z"/><path fill="#fff" fill-opacity=".63" d="M47.314 25v33.556L62.44 41.601V25h2.313v16.601h19.932L66.712 61.735 87 81.515H69.203l-.178 17.132-2.313.353-.178-36.912-18.509 20.134V99h-2.313V82.222l-19.398-.706L45 61.029 24 41.6h21V25h2.314Z"/></g><defs><linearGradient id="b" x1="49.675" x2="162.012" y1="103.611" y2="103.611" gradientUnits="userSpaceOnUse"><stop offset="0" stop-color="#96B3F9"/><stop offset="1" stop-color="#4870FA"/></linearGradient><linearGradient id="c" x1="58.732" x2="152.956" y1="103.61" y2="103.61" gradientUnits="userSpaceOnUse"><stop stop-color="#4870FA"/><stop offset="1" stop-color="#96B3F9"/></linearGradient><linearGradient id="d" x1="0" x2="112.336" y1="61.603" y2="61.603" gradientUnits="userSpaceOnUse"><stop offset="0" stop-color="#96B3F9"/><stop offset="1" stop-color="#4870FA"/></linearGradient><linearGradient id="e" x1="9.056" x2="103.28" y1="61.602" y2="61.602" gradientUnits="userSpaceOnUse"><stop stop-color="#4870FA"/><stop offset="1" stop-color="#96B3F9"/></linearGradient><linearGradient id="f" x1="98.789" x2="154.103" y1="24.442" y2="24.442" gradientUnits="userSpaceOnUse"><stop offset="0" stop-color="#96B3F9"/><stop offset="1" stop-color="#4870FA"/></linearGradient><linearGradient id="g" x1="57.856" x2="3.073" y1="139.703" y2="132.059" gradientUnits="userSpaceOnUse"><stop offset="0" stop-color="#96B3F9"/><stop offset="1" stop-color="#4870FA"/></linearGradient><clipPath id="a"><path fill="#fff" d="M0 0h162v161H0z"/></clipPath></defs></svg>