<svg width="477" height="499" viewBox="0 0 477 499" fill="none" xmlns="http://www.w3.org/2000/svg">
<g clip-path="url(#clip0_1_4183)">
<path d="M91.5544 371.49C93.0902 372.509 92.9627 372.823 93.1021 373.151C92.4687 372.074 90.3713 371.178 89.2817 370.422C89.6801 370.949 90.4928 371.573 91.0286 372.078C90.0326 371.559 88.9112 370.198 87.8694 370.162C88.5567 370.49 89.3992 371.289 90.0446 371.843C88.722 370.828 86.6584 369.613 85.0649 369.834C86.8018 370.146 87.9013 371.007 89.6462 372.054C86.8954 370.587 85.2641 370.166 83.7821 370.291C84.6227 370.374 85.9453 370.726 86.7201 371.285C85.5847 370.887 83.8937 370.414 82.83 371.162C83.6526 370.963 85.2561 371.174 85.8776 371.609C84.9752 371.38 84.1526 370.917 81.8938 371.633C82.9574 371.494 84.1068 371.573 84.4653 371.708C83.4196 371.724 82.0073 371.947 81.5512 372.316C82.3734 372.052 83.2472 371.99 84.0988 372.134C83.2124 372.384 82.7045 372.026 80.3421 373.193C80.2525 373.239 81.9814 372.617 82.5889 372.696C81.3938 373.177 80.356 374.04 79.8621 374.757C81.103 373.67 82.0711 373.312 82.9535 373.106C82.2225 373.69 81.6209 374.68 80.9058 375.145C81.9994 374.759 82.5949 373.644 83.5251 373.195C83.306 373.513 82.6507 374.507 82.6646 374.586C83.5012 373.857 84.2741 372.561 85.4652 372.352C84.8099 372.75 84.3299 373.585 83.9773 374.141C84.8139 373.628 85.4732 372.368 86.6365 372.414C86.0389 372.648 85.2163 373.382 85.1665 373.988C85.7481 373.328 86.8795 372.72 87.7838 372.666C87.234 372.849 86.4034 373.438 86.2122 373.972C87.3854 373.068 88.3734 372.68 89.461 372.68C88.8236 372.891 87.7659 373.519 87.3954 373.996C89.1463 373.036 90.2777 372.869 91.5385 373.149C90.6661 373.098 89.4251 373.404 88.8296 373.966C89.9689 373.499 90.9648 373.41 91.6999 373.587C91.1718 373.51 90.6345 373.639 90.2 373.948C91.1727 373.818 92.1605 373.852 93.1221 374.048C92.8372 374.03 91.9767 373.984 91.4748 374.382C92.4129 374.183 94.3551 374.962 95.2733 374.978C94.4248 373.217 92.7237 371.446 91.5544 371.49Z" fill="#2B2823"/>
<path d="M104.017 379.428C101.68 378.075 100.268 378.435 98.4397 377.669C99.5511 378.039 102.107 377.775 103.571 378.377C101.943 376.811 99.7623 377.618 98.3919 376.997C99.2763 376.946 100.941 376.359 101.481 376.852C100.848 376.274 98.6369 376.672 97.6648 376.272C98.3062 376.252 99.8898 376.093 100.212 375.849C99.0592 376.069 97.0772 375.185 95.2686 375.465C95.8801 375.095 97.4955 375.026 98.9317 375.024C97.1848 374.394 94.8802 374.453 93.1293 375.598C94.1252 376.039 94.9021 377.723 95.0594 378.28C95.177 378.172 95.0136 377.043 94.8204 376.67C95.4488 377.427 95.8951 378.317 96.1251 379.273C96.2207 379.273 96.0833 378.081 95.888 377.556C96.39 378.136 96.5852 380.154 96.7446 380.571C96.5454 380.041 96.7286 377.846 96.3781 377.139C96.8302 377.397 97.7724 380.587 97.7604 382.215C97.9596 381.275 97.8799 380.005 97.7604 378.989C98.1389 379.852 98.5572 380.876 98.6747 381.832C98.7942 382.583 98.7524 383.205 98.8261 383.163C99.0412 382.965 99.103 380.287 98.5731 379.259C99.083 380.253 99.9674 382.42 99.8937 383.503C100.304 382.843 100.191 381.621 99.8639 380.877C100.951 382.436 100.105 383.762 100.511 384.805C100.673 383.929 101.021 382.643 100.82 381.603C101.147 382.229 101.321 382.923 101.328 383.628C101.376 384.314 101.083 385.417 101.447 385.93C101.519 385.825 101.714 384.239 101.802 383.692C102.33 384.821 101.489 386.936 102.583 387.667C102.137 386.59 102.662 384.992 102.449 383.778C103.246 384.728 102.886 386.759 103.929 388.407C102.842 385.749 103.814 384.769 103.252 383.799C104.107 384.583 104.646 384.722 104.945 384.769C103.457 383.603 103.34 382.76 102.214 381.971C102.878 382.436 103.21 382.259 104.573 383.203C104.455 382.577 102.794 381.857 102.268 381.392C102.734 381.591 104.336 381.969 104.658 381.915C103.504 381.453 102.411 380.852 101.402 380.126C102.332 380.337 104.073 380.297 104.308 381.16C103.987 379.981 101.814 379.371 100.8 378.806C101.085 378.902 101.896 378.822 104.017 379.428Z" fill="#2B2823"/>
<path d="M90.0274 365.409C91.1449 367.198 90.8899 368.319 91.5373 369.726C91.2226 368.866 91.372 366.86 90.864 365.731C92.1309 366.966 91.5492 368.691 92.0592 369.748C92.0791 369.055 92.5014 367.739 92.103 367.329C92.5711 367.81 92.3022 369.55 92.6448 370.311C92.6448 369.808 92.7344 368.566 92.9197 368.309C92.7742 369.216 93.5172 370.744 93.336 372.165C93.6109 371.678 93.6288 370.414 93.5969 369.291C94.1327 370.643 94.1407 372.446 93.2802 373.841C92.9097 373.076 91.5711 372.503 91.1289 372.394C91.2106 372.299 92.101 372.394 92.3998 372.543C91.791 372.068 91.0808 371.74 90.3242 371.583C90.3242 371.507 91.2624 371.583 91.6787 371.728C91.2126 371.348 89.6211 371.243 89.2884 371.132C89.7087 371.277 91.4297 371.082 91.9934 371.331C91.7803 370.983 89.2526 370.315 87.9738 370.364C88.7068 370.182 89.7067 370.221 90.5075 370.293C89.7892 369.974 89.0305 369.756 88.2527 369.643C87.6551 369.567 87.1731 369.613 87.2049 369.555C87.3484 369.383 89.4577 369.273 90.2764 369.665C89.4797 369.287 87.7607 368.653 86.9121 368.729C87.4201 368.393 88.3841 368.452 88.9757 368.693C87.7268 367.878 86.705 368.57 85.8743 368.275C86.5615 368.128 87.5615 367.826 88.3841 367.961C87.8877 367.722 87.342 367.601 86.7906 367.61C86.2508 367.588 85.3963 367.842 84.98 367.57C85.0617 367.512 86.3026 367.321 86.7309 367.242C85.8305 366.844 84.1892 367.56 83.5817 366.721C84.4382 367.045 85.6811 366.598 86.6392 366.737C85.8763 366.141 84.2888 366.465 82.9682 365.687C85.0816 366.482 85.8305 365.687 86.6034 366.111C85.968 365.461 85.8465 365.047 85.8066 364.809C86.7587 365.946 87.424 366.017 88.0694 366.88C87.689 366.371 87.8184 366.103 87.0456 365.063C87.5396 365.141 88.1431 366.423 88.5216 366.824C88.3543 366.465 88.0216 365.22 88.0555 364.968C88.444 365.86 88.9403 366.701 89.5334 367.472C89.3462 366.751 89.3343 365.387 88.653 365.224C89.5872 365.447 90.1111 367.132 90.5832 367.914C90.5095 367.691 90.5593 367.055 90.0274 365.409Z" fill="#2B2823"/>
<path d="M101.705 363.318C99.478 365.89 99.6035 367.723 98.2211 369.796C98.9382 368.51 99.2051 365.286 100.295 363.618C97.9721 365.264 98.4621 368.148 97.3745 369.699C97.516 368.594 97.1753 366.397 97.9143 365.847C97.0479 366.493 97.0259 369.319 96.3049 370.418C96.4284 369.623 96.5997 367.636 96.3746 367.17C96.3746 368.647 94.8169 370.891 94.7432 373.193C94.4265 372.35 94.7174 370.337 95.05 368.56C93.8549 370.573 93.3947 373.436 94.4086 375.869C95.1874 374.748 97.4602 374.173 98.1932 374.109C98.0896 373.939 96.6495 373.877 96.1396 374.028C97.2255 373.427 98.4351 373.083 99.6752 373.022C99.6971 372.905 98.1872 372.796 97.4841 372.915C98.3207 372.43 100.87 372.658 101.426 372.559C100.721 372.686 98.0398 371.945 97.0777 372.211C97.506 371.714 101.687 371.285 103.705 371.686C102.585 371.213 100.988 371.023 99.6991 370.937C100.858 370.671 102.227 370.396 103.442 370.47C104.404 370.498 105.165 370.695 105.131 370.593C104.944 370.283 101.623 369.581 100.225 369.997C101.571 369.599 104.472 369.021 105.802 369.353C105.081 368.691 103.535 368.546 102.536 368.778C104.727 367.797 106.175 369.154 107.565 368.896C106.513 368.498 104.997 367.757 103.661 367.765C104.514 367.507 105.416 367.453 106.294 367.61C107.157 367.711 108.459 368.329 109.18 368.007C109.065 367.892 107.141 367.28 106.481 367.045C108.009 366.648 110.439 368.188 111.613 367.009C110.172 367.31 108.31 366.286 106.754 366.266C108.117 365.509 110.553 366.423 112.848 365.519C109.292 366.242 108.302 364.811 106.967 365.28C108.141 364.405 108.435 363.779 108.561 363.412C106.768 364.98 105.691 364.928 104.448 366.135C105.181 365.423 105.045 364.964 106.529 363.507C105.733 363.507 104.444 365.391 103.741 365.934C104.099 365.403 104.936 363.511 104.948 363.102C104.247 364.209 103.02 365.781 101.972 366.709C102.452 365.61 102.808 363.447 103.934 363.358C102.394 363.479 101.145 366.025 100.193 367.147C100.366 366.819 100.444 365.795 101.705 363.318Z" fill="#2B2823"/>
<path d="M81.77 378.015C84.7459 376.729 86.3772 377.363 88.6599 376.697C87.2835 376.984 84.2778 376.3 82.4432 376.823C84.6025 375.185 87.0903 376.449 88.8173 375.902C87.7715 375.718 85.8673 374.785 85.1582 375.306C85.9928 374.71 88.5723 375.487 89.7873 375.147C89.0264 375.034 87.162 374.622 86.8115 374.288C88.154 374.71 90.6419 373.935 92.7573 374.521C92.082 373.994 90.1678 373.686 88.4528 373.481C90.6239 372.974 93.3628 373.368 95.2889 374.978C94.046 375.376 92.8788 377.264 92.6138 377.906C92.4864 377.761 92.8409 376.439 93.1238 376.02C92.2675 376.833 91.6099 377.832 91.2016 378.94C91.088 378.926 91.4187 377.526 91.7254 376.928C91.0462 377.548 90.5303 379.925 90.2813 380.401C90.596 379.804 90.6797 377.155 91.1996 376.36C90.6259 376.606 89.0464 380.275 88.8392 382.219C88.7257 381.07 89.0065 379.568 89.2953 378.373C88.7237 379.349 88.0843 380.512 87.8034 381.635C87.5564 382.515 87.5186 383.261 87.4369 383.201C87.2079 382.945 87.5126 379.733 88.2894 378.584C87.5405 379.691 86.192 382.162 86.1183 383.456C85.7199 382.613 86.0287 381.172 86.5167 380.331C85.0008 382.036 85.8235 383.736 85.1921 384.925C85.1223 383.853 84.8873 382.273 85.2757 381.062C84.797 381.762 84.4912 382.565 84.3833 383.406C84.23 384.217 84.4232 385.575 83.9192 386.133C83.8495 385.998 83.8376 384.08 83.8097 383.414C83.0129 384.688 83.728 387.328 82.3197 388.057C83.001 386.835 82.6006 384.857 83.0249 383.44C81.9473 384.459 82.0867 386.928 80.6107 388.751C82.2799 385.734 81.2581 384.43 82.0648 383.354C80.9354 384.167 80.2721 384.259 79.9096 384.271C81.8497 383.088 82.1006 382.1 83.5587 381.317C82.7042 381.778 82.3237 381.516 80.5709 382.456C80.7999 381.728 82.8815 381.1 83.5746 380.619C82.991 380.794 81.027 381.017 80.6505 380.907C81.8596 380.587 83.6384 379.914 84.7837 379.236C83.6463 379.359 81.5748 379.067 81.1744 380.063C81.7222 378.701 84.3973 378.288 85.688 377.747C85.3414 377.799 84.3853 377.578 81.77 378.015Z" fill="#2B2823"/>
<path d="M98.6402 361.36C97.9615 361.458 97.3273 361.755 96.8176 362.213C97.1224 361.147 97.6143 360.384 98.7577 359.394C96.965 360.267 96.6144 361.207 96.0447 362.376C96.3654 361.251 96.3555 359.792 97.1622 358.943C95.8296 359.448 95.9232 361.527 95.3994 362.668C95.3197 362.004 95.4272 361.161 95.4332 360.569C94.6365 361.688 95.0348 363.849 94.7161 365.117C94.5667 364.185 94.1963 362.954 94.1724 362.112C93.6067 363.328 94.4831 365.053 94.2082 366.371C94.1345 365.656 94.021 364.535 93.4832 364.091C93.6815 365.173 93.8066 366.267 93.8576 367.365C93.6903 366.81 93.2919 365.825 92.6127 365.377C93.1983 366.679 93.4493 368.17 93.7441 369.428C93.4114 368.892 92.3876 367.375 92.1506 367.242C92.5231 368.595 93.8676 370.444 94.1624 371.77C93.4493 369.993 93.0728 369.524 92.5848 369.186C93.4891 370.877 93.2581 371.098 93.7162 372.08C93.272 371.225 93.0928 370.796 92.5569 370.601C93.2461 371.549 93.1704 372.179 94.1325 373.63C93.5111 372.915 93.5549 372.541 92.7262 372.058C93.1884 372.712 93.6565 374.519 94.7819 375.858C95.4492 374.439 95.74 371.98 96.5746 370.627C95.7778 371.211 95.2181 372.416 94.8755 373.43C94.9273 372.132 96.2698 369.995 96.7658 369.192C96.228 369.474 95.6045 370.333 95.2261 370.957C95.4253 369.881 96.8016 368.981 96.9291 368.049C96.4491 368.615 95.6205 369.305 95.1603 369.989C95.5069 368.434 97.1203 367.419 97.7737 366.18C96.4969 367.097 94.8835 368.591 94.4891 370.301C94.9412 368.337 96.1961 366.325 97.8753 365.24C97.0586 365.32 96.1045 366.141 95.5786 366.812C95.9511 365.751 97.5148 365.163 97.692 364.159C97.1522 364.696 96.1861 365.173 95.6085 365.862C96.0726 364.819 97.2498 363.958 98.1362 363.4C97.8494 363.332 96.6224 363.757 96.4013 364.079C96.8514 363.421 97.1403 363.129 98.1521 362.434C97.3693 362.553 96.7578 363.139 95.8216 364.052C96.4132 362.841 97.4092 362.012 98.6402 361.36Z" fill="#2B2823"/>
<path d="M94.423 374.403C94.9747 374.837 99.8907 377.552 100.574 378.111C100.528 377.538 98.7494 375.636 97.8809 375.085C98.6239 375.413 99.9604 375.614 102.397 377.798C102.241 377.109 100.705 375.493 100.076 374.934C100.819 375.332 102.329 376.095 104.06 378.657C103.835 377.714 103.366 376.847 102.699 376.143C103.116 376.644 103.229 376.514 104.572 377.92C103.703 376.393 103.054 375.872 102.58 375.25C103.104 375.664 104.52 377.158 104.739 377.158C104.303 376.061 102.249 373.978 100.97 373.29C102.12 373.712 104.372 375.574 105.265 376.791C105.323 376.773 104.42 374.91 103.771 374.354C104.319 374.793 105.689 376.467 106.219 377.188C106.301 377.188 105.741 375.855 105.291 375.201C105.544 375.483 105.99 375.674 106.711 376.791C106.791 376.743 106.113 375.063 105.199 374.008C105.641 374.517 105.898 374.479 107.227 376.618C107.227 376.021 106.486 374.791 105.544 373.614C106.408 374.223 108.785 378.109 109.565 378.202C109.039 377.693 108.751 375.759 108.097 375.147C108.765 375.771 109.105 375.974 111.131 379.071C110.59 377.487 109.766 376.014 108.699 374.723C109.782 375.66 110.796 376.91 112.067 379.049C111.999 378.266 110.553 375.978 109.776 375.042C110.936 375.942 111.611 376.707 112.864 378.506C112.499 377.347 112.023 376.735 111.669 376.121C112.097 376.469 112.422 377.085 113.288 378.156C112.932 377.099 112.364 375.725 110.517 374.63C112.189 375.624 113.175 376.256 114.208 377.413C113.679 376.268 112.778 375.36 111.557 374.555C112.495 374.821 115.453 377.288 115.406 377.214C110.944 370.426 102.988 371.012 94.423 374.403Z" fill="#2B2823"/>
<path d="M90.5134 386.725C90.9536 387.918 91.8958 390.364 92.6368 391.146C92.336 391.074 91.0134 389.476 90.4995 388.15C90.4596 388.715 91.6328 391.33 91.9276 391.613C91.1986 391.253 90.2385 389.108 89.868 388.178C89.9895 389.885 90.3919 390.883 91.0313 392.114C90.1643 391.159 89.5555 389.999 89.2625 388.744C89.0633 390.024 89.4059 391.328 89.8919 392.684C86.5954 388.194 88.2546 379.476 94.6725 375.019C94.063 376.842 95.1724 379.768 95.8397 381.263C95.2123 380.752 94.3558 378.951 94.1685 378.06C94.3498 379.613 94.0311 380.416 95.3955 382.501C94.7094 381.978 94.1623 381.296 93.802 380.513C93.8936 381.247 94.5988 382.475 95.5668 383.461C95.2183 383.364 94.3398 382.642 93.7243 381.581C94.0877 382.546 94.5874 383.455 95.2083 384.28C94.3896 383.56 94.0869 383.215 93.7184 382.585C93.8199 383.153 93.9175 383.33 94.4394 384.449C94.041 384.336 93.2144 382.531 92.8459 381.929C92.8937 382.561 93.2025 383.223 93.7562 384.314C92.9854 383.59 92.1388 381.748 91.9635 380.478C91.9894 382.592 93.2503 384.479 93.9116 385.232C93.6028 385.099 92.2503 383.513 91.5213 382.101C91.5532 383.278 93.1666 385.347 93.561 385.576C93.3419 385.528 92.3539 384.646 91.9496 384.059C92.0392 384.558 92.8638 385.82 93.565 386.361C91.8221 385.006 91.6448 384.475 91.0711 383.545C91.0512 384.326 92.3061 386.403 93.2622 387.442C91.8878 386.405 90.9078 384.686 90.5612 383.775C90.6867 385.596 92.8778 386.999 93.1128 388.581C92.8539 387.985 92.0332 387.268 91.4715 386.697C91.9775 387.673 93.065 388.639 93.2961 389.581C92.9236 389.206 92.2384 388.512 91.8121 387.977C92.079 388.552 92.2822 389.386 92.9375 390.352C92.1946 390.011 91.0672 388.084 90.5134 386.725Z" fill="#2B2823"/>
<path d="M108.035 423.221C104.29 420.796 102.4 416.394 101.531 412.303C100.498 407.425 99.9797 402.166 99.7387 397.073C99.3762 389.647 98.2368 381.843 95.3466 374.944L94.506 375.157C97.1194 381.432 97.7767 388.719 98.0914 395.431C98.4599 403.299 98.8204 411.182 100.527 418.803C100.926 420.56 101.749 422.89 101.286 424.73L108.035 423.221Z" fill="#2B2823"/>
<path d="M349.558 345.94C347.833 346.59 347.885 346.933 347.676 347.214C348.534 346.305 350.781 345.902 352.012 345.409C351.5 345.832 350.574 346.26 349.938 346.631C351.024 346.349 352.424 345.274 353.448 345.473C352.703 345.636 351.705 346.226 350.948 346.623C352.468 345.93 354.749 345.208 356.245 345.779C354.482 345.693 353.217 346.286 351.287 346.918C354.297 346.103 355.986 346.059 357.398 346.52C356.56 346.413 355.193 346.458 354.313 346.82C355.508 346.687 357.263 346.606 358.133 347.572C357.378 347.188 355.765 347.041 355.062 347.325C355.994 347.303 356.898 347.039 358.944 348.243C357.938 347.868 356.801 347.689 356.422 347.741C357.436 347.991 358.763 348.522 359.125 348.985C358.383 348.543 357.546 348.286 356.683 348.235C357.492 348.681 358.077 348.446 360.107 350.11C360.183 350.173 358.639 349.182 358.028 349.116C359.093 349.853 359.902 350.925 360.219 351.734C359.255 350.396 358.39 349.832 357.575 349.432C358.157 350.166 358.522 351.265 359.113 351.877C358.135 351.257 357.804 350.036 357 349.39C357.141 349.75 357.557 350.865 357.524 350.939C356.874 350.04 356.412 348.605 355.299 348.132C355.848 348.673 356.127 349.589 356.346 350.209C355.647 349.523 355.287 348.146 354.143 347.931C354.663 348.291 355.309 349.192 355.221 349.796C354.803 349.023 353.837 348.176 352.968 347.919C353.462 348.222 354.139 348.981 354.207 349.545C353.267 348.4 352.39 347.802 351.331 347.558C351.904 347.903 352.795 348.75 353.048 349.301C351.558 347.973 350.492 347.558 349.201 347.548C350.064 347.693 351.193 348.269 351.657 348.951C350.662 348.239 349.701 347.931 348.947 347.939C349.478 347.982 349.972 348.229 350.325 348.627C349.406 348.281 348.436 348.092 347.455 348.068C347.737 348.114 348.586 348.267 348.984 348.764C348.12 348.353 346.048 348.685 345.15 348.488C346.371 346.979 348.429 345.628 349.558 345.94Z" fill="#2B2823"/>
<path d="M335.624 350.887C338.214 350.092 339.499 350.764 341.449 350.42C340.283 350.531 337.851 349.7 336.292 349.959C338.228 348.798 340.172 350.072 341.646 349.776C340.797 349.527 339.305 348.583 338.67 348.941C339.417 348.519 341.483 349.402 342.52 349.231C341.899 349.068 340.391 348.559 340.13 348.249C341.206 348.72 343.335 348.303 345.034 348.983C344.522 348.484 342.963 348.054 341.562 347.73C343.409 347.508 345.64 348.082 347.09 349.591C346.024 349.79 344.885 351.264 344.606 351.777C344.514 351.646 344.927 350.585 345.203 350.261C344.42 350.857 343.784 351.626 343.345 352.507C343.251 352.483 343.654 351.354 343.962 350.887C343.343 351.338 342.698 353.272 342.449 353.632C342.765 353.161 343.078 350.98 343.578 350.37C343.08 350.521 341.439 353.417 341.088 355.007C341.1 354.045 341.469 352.821 341.817 351.865C341.255 352.62 340.622 353.525 340.285 354.429C340.001 355.135 339.901 355.751 339.839 355.693C339.672 355.461 340.218 352.829 340.965 351.946C340.246 352.795 338.903 354.715 338.724 355.785C338.471 355.051 338.857 353.884 339.343 353.232C337.933 354.508 338.459 355.989 337.829 356.916C337.867 356.025 337.817 354.693 338.248 353.735C337.788 354.271 337.463 354.908 337.298 355.594C337.098 356.252 337.132 357.395 336.664 357.812C336.618 357.693 336.784 356.103 336.822 355.55C336.053 356.532 336.397 358.782 335.164 359.259C335.84 358.309 335.688 356.633 336.16 355.498C335.174 356.246 335.065 358.303 333.676 359.672C335.336 357.325 334.609 356.152 335.373 355.333C334.364 355.906 333.814 355.93 333.505 355.9C335.218 355.095 335.523 354.3 336.796 353.783C336.045 354.087 335.756 353.841 334.22 354.457C334.475 353.872 336.256 353.544 336.873 353.208C336.373 353.3 334.728 353.306 334.427 353.181C335.655 352.992 336.855 352.653 338.001 352.173C337.049 352.173 335.359 351.742 334.937 352.529C335.515 351.451 337.768 351.35 338.885 351.02C338.602 351.03 337.831 350.762 335.624 350.887Z" fill="#2B2823"/>
<path d="M352.406 340.356C350.914 341.857 350.912 342.998 349.964 344.224C350.466 343.457 350.771 341.469 351.52 340.483C350.006 341.404 350.185 343.215 349.444 344.127C349.58 343.449 349.464 342.072 349.944 341.762C349.38 342.125 349.243 343.876 348.749 344.544C348.861 344.055 349.054 342.825 348.932 342.533C348.871 343.449 347.807 344.773 347.659 346.198C347.5 345.661 347.767 344.425 348.058 343.338C347.231 344.53 346.819 346.29 347.343 347.842C347.875 347.18 349.309 346.924 349.765 346.914C349.707 346.802 348.815 346.703 348.492 346.776C349.192 346.45 349.958 346.288 350.731 346.303C350.749 346.232 349.817 346.105 349.378 346.144C349.918 345.878 351.492 346.13 351.84 346.093C351.398 346.14 349.765 345.564 349.157 345.695C349.444 345.405 352.058 345.32 353.293 345.655C352.619 345.314 351.635 345.127 350.839 345.017C351.61 344.868 352.398 344.825 353.181 344.888C353.779 344.948 354.241 345.103 354.225 345.039C354.123 344.84 352.091 344.26 351.207 344.457C352.06 344.258 353.884 344.035 354.695 344.298C354.275 343.857 353.322 343.702 352.691 343.801C354.085 343.286 354.934 344.198 355.806 344.089C355.173 343.793 354.265 343.274 353.434 343.22C353.974 343.097 354.536 343.104 355.073 343.238C355.605 343.338 356.388 343.777 356.848 343.604C356.782 343.529 355.615 343.067 355.217 342.893C356.181 342.716 357.621 343.773 358.404 343.091C357.495 343.215 356.386 342.495 355.416 342.421C356.294 342.01 357.766 342.682 359.23 342.223C356.991 342.519 356.442 341.589 355.593 341.825C356.358 341.332 356.567 340.958 356.665 340.734C355.482 341.63 354.818 341.553 353.996 342.247C354.48 341.837 354.414 341.547 355.39 340.706C354.892 340.67 354.014 341.785 353.555 342.097C353.8 341.783 354.404 340.646 354.428 340.392C353.848 341.174 353.175 341.883 352.424 342.503C352.771 341.841 353.085 340.515 353.787 340.515C352.826 340.525 351.938 342.05 351.303 342.702C351.424 342.473 351.518 341.851 352.406 340.356Z" fill="#2B2823"/>
<path d="M341.504 335.701C343.098 338.706 342.562 340.472 343.442 342.793C343.032 341.38 343.498 338.178 342.811 336.309C344.703 338.432 343.578 341.133 344.289 342.887C344.398 341.779 345.223 339.706 344.629 339.013C345.328 339.837 344.715 342.59 345.169 343.839C345.225 343.044 345.508 341.056 345.83 340.658C345.496 342.097 346.512 344.634 346.065 346.892C346.563 346.142 346.733 344.109 346.808 342.308C347.518 344.536 347.324 347.43 345.791 349.575C345.283 348.307 343.201 347.24 342.502 347.013C342.643 346.87 344.06 347.132 344.524 347.395C343.6 346.566 342.498 345.959 341.303 345.622C341.303 345.502 342.805 345.735 343.458 346.007C342.751 345.347 340.213 345 339.695 344.777C340.355 345.059 343.135 344.938 344.01 345.413C343.707 344.833 339.727 343.479 337.67 343.425C338.865 343.215 340.468 343.386 341.743 343.592C340.673 343.073 339.401 342.499 338.201 342.298C337.257 342.099 336.471 342.131 336.528 342.04C336.779 341.779 340.173 341.841 341.442 342.557C340.219 341.865 337.522 340.656 336.154 340.682C337.006 340.199 338.544 340.404 339.466 340.853C337.554 339.406 335.837 340.404 334.54 339.839C335.656 339.68 337.297 339.307 338.598 339.615C337.826 339.17 336.959 338.916 336.068 338.873C335.204 338.778 333.793 339.09 333.166 338.607C333.303 338.522 335.317 338.357 336.012 338.273C334.618 337.552 331.899 338.504 331.019 337.081C332.357 337.695 334.405 337.116 335.923 337.444C334.765 336.401 332.184 336.747 330.146 335.351C333.449 336.852 334.728 335.679 335.923 336.435C334.977 335.321 334.829 334.646 334.785 334.248C336.18 336.178 337.241 336.369 338.172 337.826C337.618 336.969 337.857 336.552 336.733 334.799C337.518 334.978 338.343 337.102 338.905 337.78C338.674 337.184 338.281 335.15 338.365 334.749C338.799 335.985 339.64 337.792 340.452 338.923C340.233 337.744 340.371 335.558 339.295 335.218C340.767 335.681 341.418 338.444 342.084 339.748C342.018 339.416 342.175 338.398 341.504 335.701Z" fill="#2B2823"/>
<path d="M357.618 354.491C355.009 352.571 353.274 352.823 351.2 351.664C352.477 352.26 355.562 352.26 357.23 353.177C355.495 351.098 352.786 351.773 351.232 350.855C352.294 350.909 354.359 350.426 354.937 351.084C354.258 350.313 351.567 350.487 350.459 349.891C351.226 349.951 353.136 349.967 353.555 349.718C352.148 349.829 349.901 348.526 347.706 348.615C348.483 348.253 350.421 348.38 352.134 348.565C350.142 347.585 347.376 347.355 345.135 348.494C346.26 349.15 346.971 351.261 347.087 351.944C347.242 351.833 347.194 350.464 347.011 349.992C347.664 350.977 348.08 352.099 348.228 353.27C348.342 353.27 348.334 351.841 348.17 351.191C348.694 351.946 348.662 354.371 348.798 354.9C348.625 354.24 349.135 351.644 348.81 350.756C349.316 351.124 350.029 355.053 349.794 356.995C350.162 355.9 350.226 354.371 350.214 353.145C350.553 354.222 350.913 355.5 350.933 356.655C350.977 357.568 350.846 358.305 350.933 358.265C351.214 358.067 351.64 354.868 351.142 353.574C351.62 354.821 352.379 357.526 352.162 358.81C352.738 358.076 352.76 356.602 352.469 355.671C353.563 357.673 352.379 359.146 352.726 360.442C353.037 359.416 353.62 357.927 353.523 356.665C353.832 357.454 353.949 358.305 353.865 359.148C353.831 359.973 353.337 361.253 353.704 361.911C353.804 361.794 354.246 359.923 354.421 359.285C354.903 360.702 353.624 363.117 354.829 364.143C354.431 362.799 355.276 360.963 355.182 359.486C356.003 360.72 355.311 363.095 356.339 365.202C355.391 361.889 356.68 360.845 356.14 359.617C357.056 360.662 357.674 360.897 358.034 360.994C356.411 359.404 356.381 358.385 355.142 357.297C355.873 357.939 356.299 357.772 357.795 359.086C357.738 358.325 355.849 357.248 355.282 356.623C355.811 356.926 357.672 357.584 358.07 357.56C356.965 356.977 355.379 355.93 354.419 355.005C355.499 355.379 357.584 355.56 357.751 356.618C357.522 355.17 355.009 354.167 353.873 353.352C354.186 353.479 355.16 353.479 357.618 354.491Z" fill="#2B2823"/>
<path d="M344.928 334.482C345.566 334.73 346.117 335.161 346.51 335.721C346.454 334.614 346.147 333.761 345.255 332.54C346.814 333.795 346.936 334.785 347.227 336.059C347.167 334.89 347.504 333.475 346.91 332.463C348.093 333.258 347.537 335.246 347.788 336.488C348.018 335.858 348.101 335.013 348.229 334.435C348.756 335.705 347.87 337.718 347.904 339.026C348.261 338.152 348.9 337.039 349.111 336.222C349.388 337.534 348.147 339.018 348.115 340.364C348.348 339.682 348.713 338.615 349.334 338.305C348.898 339.314 348.53 340.351 348.233 341.41C348.521 340.909 349.131 340.036 349.896 339.744C349.033 340.883 348.454 342.278 347.884 343.439C348.328 342.992 349.665 341.741 349.922 341.65C349.254 342.886 347.531 344.387 346.934 345.612C348.027 344.039 348.5 343.666 349.051 343.455C347.786 344.902 347.964 345.168 347.296 346.025C347.92 345.29 348.191 344.912 348.758 344.832C347.874 345.602 347.806 346.224 346.542 347.43C347.308 346.872 347.35 346.498 348.266 346.214C347.669 346.747 346.804 348.4 345.406 349.456C345.075 347.925 345.346 345.464 344.83 343.956C345.47 344.701 345.753 345.999 345.858 347.067C346.099 345.79 345.261 343.405 344.968 342.515C345.43 342.912 345.842 343.886 346.071 344.58C346.129 343.489 344.982 342.3 345.075 341.364C345.416 342.024 346.071 342.88 346.364 343.65C346.364 342.06 345.032 340.708 344.673 339.354C345.711 340.533 346.948 342.35 346.948 344.105C346.948 342.091 346.179 339.841 344.775 338.414C345.554 338.672 346.299 339.686 346.661 340.459C346.536 339.342 345.145 338.418 345.199 337.4C345.597 338.044 346.436 338.724 346.846 339.527C346.627 338.406 345.675 337.303 344.934 336.562C345.231 336.562 346.328 337.247 346.472 337.611C346.183 336.87 345.968 336.522 345.135 335.623C345.872 335.914 346.33 336.617 347.045 337.72C346.757 336.42 345.972 335.391 344.928 334.482Z" fill="#2B2823"/>
<path d="M346.102 348.136C345.466 348.436 340.064 349.981 339.273 350.372C339.447 349.824 341.608 348.369 342.58 348.027C341.783 348.18 340.433 348.076 337.568 349.661C337.873 349.023 339.734 347.79 340.472 347.389C339.662 347.599 338.018 348.015 335.752 350.124C336.181 349.254 336.833 348.514 337.642 347.977C337.122 348.375 337.044 348.22 335.417 349.291C336.612 347.995 337.355 347.633 337.967 347.138C337.369 347.422 335.648 348.561 335.435 348.512C336.106 347.542 338.576 345.971 339.977 345.588C338.761 345.741 336.148 347.051 334.997 348.037C334.945 348.007 336.242 346.393 337.001 345.997C336.369 346.301 334.658 347.625 333.977 348.21C333.899 348.194 334.744 347.017 335.331 346.476C335.021 346.693 334.535 346.778 333.589 347.705C333.523 347.639 334.551 346.152 335.692 345.32C335.146 345.717 334.895 345.624 333.128 347.409C333.256 346.812 334.26 345.797 335.443 344.86C334.465 345.258 331.276 348.514 330.491 348.428C331.119 348.051 331.836 346.242 332.611 345.781C331.814 346.24 331.441 346.361 328.772 348.925C329.656 347.5 330.794 346.248 332.128 345.23C330.862 345.9 329.591 346.896 327.874 348.689C328.115 347.941 330.039 346.037 331.005 345.298C329.674 345.918 328.844 346.51 327.22 347.983C327.836 346.936 328.437 346.447 328.916 345.916C328.42 346.16 327.963 346.687 326.878 347.538C327.463 346.586 328.326 345.377 330.372 344.721C328.521 345.318 327.418 345.715 326.149 346.612C326.922 345.618 328.003 344.93 329.376 344.425C328.402 344.475 324.964 346.214 325.025 346.154C330.897 340.563 338.524 342.916 346.102 348.136Z" fill="#2B2823"/>
<path d="M347.138 361.02C346.441 362.088 344.973 364.258 344.077 364.853C344.386 364.853 346.035 363.589 346.832 362.412C346.746 362.972 345.011 365.264 344.662 365.467C345.459 365.268 346.871 363.406 347.451 362.581C346.947 364.219 346.332 365.099 345.431 366.159C346.49 365.422 347.344 364.429 347.913 363.273C347.822 364.565 347.194 365.751 346.411 366.972C350.636 363.334 350.979 354.467 345.734 348.685C345.919 350.595 344.18 353.199 343.192 354.507C343.919 354.149 345.158 352.585 345.541 351.76C345.015 353.233 345.143 354.085 343.35 355.813C344.133 355.456 344.816 354.915 345.342 354.234C345.087 354.928 344.121 355.968 342.951 356.711C343.314 356.695 344.332 356.19 345.17 355.292C344.6 356.152 343.909 356.926 343.119 357.59C344.077 357.073 344.449 356.795 344.949 356.272C344.724 356.803 344.599 356.956 343.828 357.928C344.24 357.906 345.453 356.337 345.943 355.827C345.744 356.423 345.304 357.007 344.517 357.955C345.431 357.425 346.67 355.817 347.124 354.618C346.622 356.673 344.971 358.23 344.157 358.818C344.487 358.755 346.162 357.514 347.19 356.302C346.895 357.441 344.856 359.096 344.421 359.232C344.645 359.232 345.806 358.594 346.332 358.113C346.132 358.58 345.045 359.623 344.24 359.995C346.244 359.065 346.537 358.588 347.304 357.808C347.148 358.574 345.457 360.317 344.29 361.116C345.864 360.412 347.206 358.955 347.748 358.148C347.216 359.893 344.76 360.77 344.18 362.259C344.567 361.734 345.527 361.221 346.204 360.79C345.491 361.629 344.212 362.326 343.776 363.191C344.224 362.909 345.049 362.396 345.583 361.961C345.194 362.46 344.808 363.229 343.951 364.024C344.762 363.845 346.294 362.221 347.138 361.02Z" fill="#2B2823"/>
<path d="M321.859 392.663C326.054 391.138 328.886 387.27 330.653 383.477C332.759 378.955 334.438 373.936 335.832 369.041C337.854 361.885 340.72 354.53 345.086 348.458L345.859 348.856C341.901 354.385 339.623 361.34 337.806 367.816C335.679 375.399 333.553 383 330.177 390.045C329.398 391.669 328.066 393.754 328.104 395.652L321.859 392.663Z" fill="#2B2823"/>
<path d="M85.5736 398.025C85.0258 399.383 85.2489 399.532 85.3047 399.814C85.2369 398.821 86.205 397.298 86.5795 396.316C86.5496 396.841 86.3006 397.61 86.1811 398.18C86.5974 397.395 86.7229 395.994 87.3862 395.509C87.0834 396.032 86.8902 396.932 86.7169 397.586C87.1272 396.328 87.928 394.605 89.0594 394.036C88.0634 395.03 87.7348 396.079 87.0675 397.544C88.2069 395.358 89.0853 394.34 90.1031 393.756C89.5912 394.187 88.8881 395.012 88.6251 395.72C89.1888 394.95 90.0792 393.879 91.105 393.889C90.4776 394.124 89.5295 394.99 89.3123 395.553C89.7964 394.996 90.127 394.324 91.9197 393.764C91.1648 394.161 90.4517 394.72 90.2804 394.968C90.9656 394.509 91.9835 394.018 92.4456 394.056C91.7913 394.254 91.1942 394.605 90.7047 395.082C91.3958 394.847 91.5692 394.384 93.6248 394.088C93.7025 394.088 92.3002 394.45 91.9397 394.776C92.8313 394.569 93.7625 394.61 94.6327 394.893C93.7048 394.75 92.7556 394.859 91.8839 395.207C92.6189 395.261 93.4515 395.634 94.1228 395.616C93.2403 395.857 92.3559 395.396 91.5512 395.521C91.8361 395.632 92.7045 395.984 92.7284 396.044C91.86 395.942 90.7824 395.447 89.9139 395.845C90.5115 395.815 91.2006 396.141 91.6767 396.344C90.9039 396.386 89.9139 395.861 89.1769 396.413C89.6649 396.302 90.5314 396.413 90.8341 396.781C90.0574 396.612 89.2458 396.723 88.5435 397.095C88.9817 396.966 89.7844 396.978 90.137 397.24C88.9717 397.179 88.1451 397.37 87.4479 397.858C87.9539 397.709 88.9239 397.644 89.3781 397.789C87.8105 397.95 86.9998 398.349 86.3026 399.099C86.8484 398.671 87.7925 398.316 88.4299 398.413C87.4798 398.612 86.7926 399.009 86.3922 399.457C86.7014 399.171 87.1084 399.015 87.5296 399.019C86.8375 399.373 86.2094 399.839 85.6712 400.399C85.8485 400.26 86.3883 399.842 86.8922 399.876C86.1911 400.162 85.2748 401.55 84.6812 401.971C84.4661 400.444 84.7928 398.522 85.5736 398.025Z" fill="#2B2823"/>
<path d="M77.2418 407.727C78.7995 406.012 80.162 405.837 81.4806 404.706C80.642 405.32 78.3135 405.928 77.2518 406.825C78.1123 405.179 80.3054 405.08 81.2814 404.201C80.4846 404.442 78.8274 404.537 78.5326 405.062C78.8792 404.444 80.9507 404.04 81.6579 403.446C81.0922 403.633 79.652 404.012 79.2835 403.937C80.3691 403.738 81.7833 402.472 83.4665 402.11C82.8012 402.033 81.3651 402.488 80.1102 402.937C81.6204 401.809 83.5109 401.31 85.3827 401.546C84.6756 402.176 84.5859 403.643 84.6537 404.096C84.5122 404.056 84.2553 403.185 84.2891 402.851C84.0107 403.585 83.9371 404.381 84.076 405.153C83.9924 405.181 83.6776 404.273 83.6776 403.831C83.4466 404.41 83.9943 405.936 84.0043 406.29C83.9923 405.841 83.0482 404.302 83.1 403.68C82.7992 404.01 83.1 406.624 83.6976 407.803C83.1837 407.183 82.8052 406.235 82.5502 405.457C82.5263 406.203 82.5303 407.077 82.7633 407.809C82.9287 408.393 83.1856 408.83 83.1079 408.824C82.851 408.753 81.8391 406.821 81.9367 405.909C81.8431 406.787 81.8551 408.64 82.2953 409.405C81.6977 409.055 81.3651 408.131 81.387 407.487C80.9886 408.96 82.2036 409.659 82.2216 410.544C81.7674 409.948 81.0045 409.133 80.8113 408.316C80.7483 408.874 80.8443 409.439 81.0882 409.946C81.2874 410.458 81.9407 411.17 81.8053 411.655C81.7057 411.601 80.9687 410.51 80.6978 410.138C80.638 411.132 82.128 412.398 81.4368 413.279C81.4368 412.357 80.4129 411.361 80.1659 410.413C79.8114 411.349 80.8472 412.712 80.5245 414.239C80.5245 411.967 79.3293 411.56 79.4727 410.679C79.0066 411.516 78.5903 411.784 78.3394 411.913C79.2238 410.6 79.0246 409.95 79.7337 409.025C79.3214 409.57 78.9628 409.55 78.1143 410.659C77.9928 410.168 79.1879 409.125 79.4807 408.622C79.1461 408.914 77.8872 409.689 77.5804 409.751C78.4077 409.071 79.1489 408.294 79.7875 407.435C79.0505 407.878 77.5147 408.395 77.6183 409.095C77.4789 408.139 79.16 407.02 79.8433 406.286C79.6162 406.425 78.8752 406.616 77.2418 407.727Z" fill="#2B2823"/>
<path d="M83.8659 393.372C83.9377 395.048 84.599 395.658 84.8021 396.869C84.6248 396.165 83.6369 394.925 83.4636 393.959C83.1887 395.334 84.334 396.199 84.4595 397.121C84.1388 396.678 83.2803 396.01 83.358 395.563C83.2664 396.087 84.2086 397.105 84.3241 397.749C84.101 397.423 83.4915 396.652 83.2564 396.557C83.7544 397.083 83.9516 398.413 84.7005 399.262C84.3022 399.063 83.7305 398.25 83.2525 397.503C83.5034 398.626 84.3002 399.806 85.4794 400.329C85.3818 399.665 85.9993 398.687 86.2363 398.417C86.1427 398.391 85.6069 398.86 85.4774 399.087C85.6621 398.504 85.9775 397.97 86.3996 397.527C86.3678 397.477 85.8021 397.952 85.5849 398.23C85.7184 397.773 86.7064 396.988 86.8717 396.763C86.6725 397.05 85.4555 397.695 85.2025 398.117C85.1886 397.795 86.5371 396.221 87.3936 395.678C86.8358 395.889 86.1985 396.364 85.7124 396.771C86.0381 396.241 86.4341 395.757 86.8896 395.332C87.2422 395.016 87.5808 394.827 87.535 394.803C87.3637 394.756 85.9415 395.632 85.583 396.256C85.9295 395.66 86.7781 394.467 87.3577 394.132C86.8777 394.132 86.2761 394.615 85.9973 395.038C86.4494 393.943 87.4215 393.935 87.8318 393.37C87.3199 393.583 86.5331 393.835 86.059 394.295C86.2755 393.912 86.5792 393.586 86.9454 393.342C87.288 393.086 87.9613 392.863 88.1067 392.502C88.029 392.502 87.1366 392.935 86.8219 393.074C87.2342 392.418 88.6146 392.14 88.6405 391.319C88.2262 391.915 87.2183 392.184 86.6486 392.71C86.8797 391.977 88.0569 391.476 88.5708 390.373C87.545 391.84 86.7123 391.665 86.3936 392.285C86.5171 391.575 86.4136 391.251 86.3359 391.076C86.2224 392.247 85.822 392.593 85.7841 393.446C85.806 392.943 85.6009 392.826 85.6427 391.8C85.3559 392.072 85.5312 393.191 85.4634 393.613C85.4137 393.303 85.077 392.341 84.9416 392.192C85.0858 392.949 85.1367 393.721 85.093 394.491C84.8938 393.937 84.2962 393.042 84.6667 392.629C84.1588 393.195 84.5671 394.529 84.6049 395.253C84.2952 394.653 84.0476 394.022 83.8659 393.372Z" fill="#2B2823"/>
<path d="M77.5725 395.638C79.8034 397.121 80.0863 398.544 81.5702 399.827C80.7575 399.002 79.8851 396.602 78.7099 395.567C80.8213 396.322 81.0444 398.624 82.1957 399.572C81.8591 398.761 81.6619 397.016 80.9866 396.754C81.7834 397.062 82.3809 399.208 83.1638 399.9C82.9028 399.32 82.367 397.837 82.4367 397.441C82.7415 398.566 84.3947 399.94 84.9286 401.677C84.9943 400.969 84.3569 399.491 83.7334 398.216C85.058 399.495 86.0042 401.576 85.7353 403.645C84.9087 402.957 83.0582 403.007 82.4885 403.112C82.5343 402.959 83.6199 402.605 84.0402 402.611C83.0842 402.39 82.0901 402.39 81.134 402.611C81.0942 402.526 82.2236 402.12 82.7793 402.063C82.0403 401.864 80.144 402.591 79.6999 402.635C80.2636 402.582 82.1539 401.443 82.9427 401.443C82.5144 401.154 79.2358 401.723 77.7797 402.46C78.5366 401.864 79.7138 401.373 80.6799 401.031C79.7417 401.077 78.6402 401.16 77.7299 401.476C77.0029 401.703 76.463 402.015 76.467 401.932C76.5447 401.655 78.931 400.411 80.0843 400.429C78.9748 400.411 76.6443 400.594 75.7021 401.13C76.1145 400.473 77.2638 400.031 78.0745 399.994C76.2021 399.715 75.3775 401.057 74.264 401.158C74.9811 400.624 75.985 399.743 77.0068 399.463C76.3013 399.449 75.6024 399.601 74.9671 399.908C74.3297 400.168 73.4633 400.92 72.8458 400.822C72.9095 400.711 74.2401 399.829 74.7042 399.512C73.4593 399.542 71.9156 401.232 70.7842 400.584C71.9454 400.504 73.1525 399.328 74.3357 398.978C73.1406 398.692 71.4714 399.91 69.5353 399.711C72.3956 399.512 72.8537 398.201 73.9672 398.272C72.8936 397.859 72.537 397.445 72.3617 397.193C74.0568 398.002 74.8656 397.734 76.0627 398.385C75.3556 398 75.3675 397.62 73.9313 396.827C74.5429 396.656 75.9113 397.821 76.5587 398.081C76.1762 397.753 75.1424 396.491 75.0508 396.181C75.9649 397.006 76.9779 397.715 78.0665 398.292C77.4689 397.559 76.7539 395.986 75.8754 396.159C77.0706 395.923 78.5585 397.594 79.5126 398.246C79.3194 398.022 79.0465 397.258 77.5725 395.638Z" fill="#2B2823"/>
<path d="M89.946 396.237C88.6035 397.205 88.4521 398.085 87.5557 398.912C88.0418 398.383 88.5397 396.887 89.2429 396.221C87.9641 396.738 87.8605 398.159 87.1713 398.771C87.3705 398.262 87.4581 397.181 87.8685 397.006C87.3864 397.205 87.0498 398.552 86.5837 398.994C86.7331 398.63 87.0458 397.706 86.9821 397.463C86.8108 398.163 85.8208 399.053 85.52 400.132C85.4683 399.697 85.8367 398.777 86.1993 397.972C85.4025 398.791 84.8587 400.095 85.0539 401.361C85.5499 400.918 86.6833 400.902 87.0319 400.953C87.002 400.86 86.3327 400.669 86.0758 400.685C86.654 400.522 87.262 400.495 87.8525 400.606C87.8764 400.552 87.1793 400.331 86.8387 400.309C87.2868 400.172 88.4601 400.57 88.731 400.584C88.3864 400.566 87.2112 399.912 86.7391 399.93C86.998 399.743 89.0098 400.011 89.9121 400.429C89.4421 400.077 88.717 399.807 88.1194 399.622C88.7293 399.603 89.3388 399.67 89.9301 399.82C90.3783 399.942 90.7149 400.121 90.7089 400.069C90.6591 399.9 89.1791 399.194 88.474 399.234C89.1532 399.196 90.5814 399.25 91.167 399.556C90.9041 399.159 90.195 398.92 89.699 398.916C90.8404 398.699 91.3643 399.512 92.0475 399.538C91.6013 399.228 90.9738 398.711 90.3444 398.564C90.7745 398.537 91.2049 398.613 91.5993 398.787C91.9977 398.932 92.5335 399.371 92.9099 399.298C92.8681 399.23 92.0355 398.723 91.7546 398.536C92.5155 398.524 93.4796 399.53 94.1668 399.099C93.4557 399.077 92.6988 398.383 91.9757 398.198C92.7028 398 93.7406 398.701 94.9218 398.53C93.1689 398.473 92.8701 397.684 92.1889 397.755C92.8402 397.475 93.0514 397.211 93.1549 397.052C92.1311 397.592 91.6331 397.449 90.9101 397.878C91.3363 397.624 91.3244 397.389 92.1909 396.867C91.8144 396.777 90.9957 397.525 90.5974 397.704C90.8284 397.493 91.4419 396.69 91.4917 396.497C90.9459 397.027 90.3371 397.488 89.6791 397.87C90.0297 397.405 90.448 396.419 90.9858 396.505C90.2488 396.39 89.3664 397.453 88.7947 397.878C89.1201 397.293 89.506 396.742 89.946 396.237Z" fill="#2B2823"/>
<path d="M91.1133 405.016C89.0437 404.052 87.8804 404.476 86.2889 403.967C87.251 404.191 89.3863 403.768 90.6711 404.166C89.1851 402.973 87.4063 403.824 86.2072 403.408C86.9482 403.295 88.3087 402.665 88.7967 403.039C88.221 402.599 86.3865 403.112 85.538 402.852C86.0758 402.784 87.3984 402.522 87.6533 402.289C86.6972 402.567 84.9623 401.975 83.4704 402.357C83.9564 401.995 85.3129 401.806 86.5239 401.691C85.0041 401.293 83.068 401.53 81.6777 402.641C82.5441 402.935 83.327 404.301 83.5003 404.76C83.5919 404.66 83.3708 403.716 83.1796 403.414C83.7674 404.006 84.2098 404.726 84.4723 405.517C84.552 405.517 84.3488 404.511 84.1456 404.082C84.6117 404.531 84.9245 406.229 85.0898 406.569C84.8906 406.135 84.8746 404.259 84.5281 403.686C84.9264 403.871 85.9622 406.501 86.0678 407.883C86.1714 407.07 86.006 405.998 85.8268 405.147C86.2092 405.849 86.6355 406.684 86.8068 407.485C86.9641 408.113 86.9741 408.644 87.0319 408.602C87.2012 408.425 87.0538 406.141 86.5319 405.312C87.0339 406.108 87.9262 407.883 87.9581 408.805C88.2549 408.209 88.0697 407.187 87.737 406.581C88.7688 407.817 88.1533 409.008 88.5736 409.862C88.6453 409.103 88.8445 407.986 88.5975 407.121C88.9191 407.627 89.1169 408.201 89.1752 408.797C89.2648 409.375 89.1014 410.335 89.4441 410.741C89.4978 410.645 89.5456 409.284 89.5795 408.813C90.1074 409.731 89.5536 411.596 90.5296 412.132C90.0755 411.254 90.4001 409.856 90.1312 408.845C90.8682 409.586 90.7288 411.335 91.7248 412.653C90.6133 410.484 91.3603 409.576 90.8145 408.799C91.5933 409.395 92.0514 409.471 92.3124 409.487C90.9738 408.614 90.8125 407.908 89.8066 407.33C90.4041 407.672 90.6711 407.495 91.8841 408.189C91.7387 407.666 90.2906 407.195 89.8086 406.835C90.2069 406.968 91.6013 407.159 91.8602 407.087C90.8538 406.79 89.8882 406.368 88.9859 405.833C89.7827 405.939 91.2487 405.768 91.5116 406.479C91.1531 405.505 89.2787 405.167 88.3804 404.762C88.6015 404.802 89.2787 404.662 91.1133 405.016Z" fill="#2B2823"/>
<path d="M76.454 394.605C76.9378 394.365 77.4819 394.274 78.0176 394.342C77.3464 393.784 76.6871 393.505 75.5019 393.376C77.0635 393.134 77.693 393.593 78.5973 394.104C77.8882 393.507 77.2468 392.559 76.3425 392.366C77.436 392.096 78.2965 393.491 79.147 394.004C78.904 393.535 78.4578 393.034 78.1909 392.649C79.2108 393.018 79.902 394.615 80.6788 395.294C80.3641 394.619 80.0573 393.651 79.6988 393.09C80.6071 393.629 80.8043 395.149 81.5692 395.887C81.2983 395.386 80.874 394.601 81.0274 394.072C81.3789 394.867 81.7835 395.637 82.2384 396.378C82.101 395.94 81.9217 395.117 82.1628 394.513C82.3619 395.626 82.8579 396.712 83.2264 397.666C83.2045 397.167 83.1965 395.718 83.2862 395.523C83.6447 396.574 83.5909 398.385 83.9873 399.383C83.6627 397.902 83.6985 397.427 83.8718 396.998C84.0351 398.51 84.2821 398.55 84.4216 399.397C84.3299 398.64 84.2562 398.278 84.5192 397.91C84.4913 398.838 84.8199 399.216 84.8379 400.596C84.9255 399.85 84.7303 399.626 85.057 398.938C85.045 399.572 85.543 400.963 85.4056 402.343C84.3419 401.719 83.0591 400.244 81.9098 399.739C82.6827 399.765 83.587 400.291 84.2622 400.802C83.6527 399.977 81.8221 399.192 81.1469 398.886C81.623 398.828 82.4117 399.111 82.9396 399.345C82.342 398.729 81.0354 398.765 80.5374 398.216C81.1011 398.367 81.9476 398.445 82.5512 398.683C81.6349 397.827 80.133 397.888 79.165 397.375C80.4039 397.399 82.1189 397.648 83.1348 398.586C81.9675 397.509 80.2545 396.755 78.6749 396.813C79.2406 396.497 80.2286 396.602 80.866 396.813C80.1529 396.29 78.8741 396.614 78.3124 396.032C78.91 396.141 79.7426 396.018 80.4258 396.207C79.659 395.736 78.5116 395.704 77.685 395.738C77.8423 395.565 78.8283 395.29 79.1152 395.402C78.5296 395.173 78.2128 395.113 77.2448 395.115C77.8085 394.839 78.4638 394.948 79.4817 395.115C78.5554 394.573 77.5396 394.481 76.454 394.605Z" fill="#2B2823"/>
<path d="M85.6014 401.339C85.2748 401.79 82.1136 404.935 81.7153 405.513C81.6256 405.068 82.5718 403.233 83.1096 402.623C82.6156 403.037 81.6396 403.484 80.2552 405.68C80.2233 405.122 81.052 403.557 81.4065 402.995C80.9245 403.454 79.9405 404.372 79.1696 406.698C79.1376 405.932 79.3087 405.171 79.6656 404.492C79.4664 404.963 79.3409 404.889 78.6219 406.253C78.9525 404.903 79.3369 404.364 79.572 403.788C79.2612 404.215 78.5043 405.662 78.337 405.71C78.4346 404.782 79.5501 402.748 80.3747 401.945C79.5919 402.518 78.2753 404.428 77.857 405.549C77.8092 405.549 78.096 403.937 78.4705 403.363C78.1498 403.816 77.4745 405.388 77.2156 406.052C77.1558 406.072 77.2933 404.935 77.4945 404.335C77.363 404.605 77.0642 404.847 76.7555 405.853C76.6838 405.835 76.8311 404.414 77.3052 403.402C77.0781 403.885 76.873 403.913 76.3232 405.827C76.1878 405.376 76.4945 404.281 76.9586 403.18C76.4308 403.832 75.4568 407.302 74.8811 407.553C75.1719 407.05 74.9767 405.521 75.3432 404.911C74.9687 405.533 74.7456 405.762 73.8772 408.556C73.9491 407.234 74.2595 405.936 74.7934 404.724C74.17 405.674 73.668 406.849 73.1581 408.747C73.0406 408.139 73.6521 406.084 74.0405 405.203C73.3533 406.143 73.0027 406.871 72.435 408.511C72.4629 407.553 72.694 406.984 72.8334 406.436C72.5805 406.793 72.4669 407.332 72.0367 408.338C72.0399 407.108 72.5253 405.928 73.3892 405.05C72.3295 406.171 71.716 406.871 71.1762 407.98C71.3335 406.986 71.8235 406.106 72.5705 405.227C71.9152 405.636 70.1902 408.159 70.2121 408.093C72.1641 401.975 78.353 400.659 85.6014 401.339Z" fill="#2B2823"/>
<path d="M93.5893 402.261C94.3303 402.937 95.8322 404.35 96.1787 405.125C96.2166 404.883 95.4457 403.44 94.631 402.671C95.0573 402.808 96.6229 404.446 96.7325 404.742C96.6886 404.102 95.4118 402.754 94.8422 402.215C95.8307 402.682 96.6958 403.374 97.3679 404.235C96.9327 403.318 96.2688 402.527 95.4397 401.939C96.4357 402.17 97.2782 402.808 98.1288 403.567C95.8381 399.82 88.9661 398.459 83.7872 401.842C85.301 401.933 87.1057 403.611 87.996 404.545C87.8128 403.933 86.7531 402.772 86.1595 402.372C87.2391 402.969 87.9223 402.969 89.0358 404.585C88.8603 403.931 88.5265 403.33 88.0638 402.836C88.5717 403.12 89.2589 404.002 89.6852 405.002C89.721 404.716 89.4581 403.861 88.8665 403.094C89.4637 403.646 89.9777 404.281 90.3923 404.98C90.1134 404.167 89.9521 403.843 89.5955 403.39C89.98 403.633 90.0835 403.75 90.7409 404.471C90.7767 404.147 89.7071 403.005 89.3784 402.561C89.8246 402.782 90.215 403.205 90.8524 403.937C90.5576 403.158 89.4581 401.993 88.5876 401.49C90.1254 402.134 91.1253 403.617 91.4779 404.324C91.4779 404.058 90.7209 402.597 89.9082 401.645C90.7588 402.017 91.7866 403.814 91.8344 404.169C91.8643 403.994 91.5177 403.008 91.211 402.537C91.5476 402.752 92.2208 403.73 92.4061 404.404C91.94 402.724 91.6093 402.438 91.0974 401.742C91.6751 401.959 92.8164 403.493 93.2885 404.505C92.9419 403.187 91.9818 401.961 91.4201 401.438C92.7128 402.068 93.0793 404.09 94.1649 404.73C93.8064 404.364 93.5295 403.551 93.2825 402.969C93.8422 403.631 94.2207 404.714 94.8382 405.155C94.6768 404.772 94.3761 404.062 94.1131 403.593C94.4537 403.957 95.0035 404.354 95.5074 405.121C95.4835 404.463 94.4139 403.072 93.5893 402.261Z" fill="#2B2823"/>
<path d="M102.149 428.244C100.715 425.762 98.6096 423.85 96.4902 421.828C93.2673 418.757 89.917 415.704 87.2279 412.226C85.3774 409.824 84.2401 407.274 84.6026 404.11C84.7288 403.091 84.9359 402.083 85.2221 401.096C85.0707 400.987 84.9253 400.87 84.7858 400.747C84.3357 402.241 83.9532 403.748 83.8656 405.296C83.6505 409.105 85.8077 411.975 88.1641 414.672C90.1141 416.903 92.2933 419.008 94.4206 421.115C96.1018 422.778 98.1196 424.414 99.3525 426.392C100.586 428.37 101.058 430.504 98.9761 432.132C100.789 431.721 102.629 431.236 104.113 430.047C103.151 429.831 102.603 429.03 102.149 428.244Z" fill="#2B2823"/>
<path d="M352.573 372.412C352.848 373.849 352.603 373.95 352.495 374.201C352.75 373.245 352.097 371.559 351.916 370.524C351.844 371.044 351.939 371.847 351.951 372.43C351.692 371.581 351.838 370.188 351.282 369.577C351.481 370.15 351.495 371.07 351.539 371.744C351.38 370.43 350.924 368.59 349.922 367.812C350.706 368.969 350.83 370.07 351.202 371.637C350.507 369.265 349.84 368.105 348.954 367.337C349.37 367.86 349.904 368.804 350.025 369.548C349.627 368.685 348.952 367.465 347.944 367.276C348.513 367.628 349.278 368.667 349.376 369.251C349.005 368.611 348.81 367.89 347.159 367.005C347.824 367.53 348.416 368.226 348.535 368.502C347.95 367.92 347.045 367.244 346.585 367.192C347.19 367.511 347.708 367.971 348.097 368.532C347.464 368.17 347.384 367.681 345.424 366.993C345.35 366.968 346.655 367.602 346.946 367.987C346.11 367.615 345.189 367.477 344.281 367.59C345.218 367.628 346.129 367.916 346.918 368.423C346.185 368.335 345.296 368.544 344.641 368.397C345.46 368.794 346.416 368.52 347.183 368.794C346.882 368.848 345.962 369.027 345.928 369.081C346.798 369.148 347.954 368.866 348.729 369.424C348.131 369.277 347.41 369.466 346.902 369.575C347.653 369.774 348.725 369.438 349.342 370.122C348.884 369.923 348.013 369.856 347.645 370.164C348.441 370.148 349.216 370.413 349.836 370.911C349.438 370.712 348.641 370.559 348.242 370.746C349.4 370.909 350.165 371.253 350.764 371.869C350.296 371.625 349.356 371.374 348.884 371.43C350.392 371.889 351.109 372.436 351.649 373.304C351.196 372.782 350.338 372.251 349.695 372.225C350.587 372.611 351.185 373.126 351.487 373.64C351.241 373.3 350.872 373.067 350.457 372.992C351.069 373.471 351.596 374.049 352.015 374.702C351.868 374.531 351.418 374.018 350.918 373.954C351.551 374.37 352.184 375.908 352.684 376.435C353.196 374.998 353.248 373.058 352.573 372.412Z" fill="#2B2823"/>
<path d="M358.89 383.527C357.694 381.54 356.386 381.112 355.304 379.751C356.007 380.514 358.176 381.555 359.047 382.639C358.517 380.85 356.384 380.343 355.595 379.293C356.324 379.679 357.939 380.089 358.129 380.665C357.908 379.991 355.949 379.198 355.37 378.478C355.892 378.769 357.23 379.419 357.607 379.415C356.581 379.017 355.434 377.499 353.856 376.831C354.523 376.882 355.848 377.604 356.991 378.284C355.728 376.884 353.969 376.029 352.085 375.898C352.659 376.654 352.458 378.109 352.31 378.542C352.458 378.53 352.88 377.723 352.908 377.391C353.04 378.164 352.96 378.958 352.675 379.689C352.751 379.733 353.225 378.894 353.324 378.469C353.442 379.081 352.609 380.474 352.527 380.82C352.625 380.383 353.848 379.055 353.922 378.435C354.155 378.814 353.348 381.321 352.537 382.364C353.161 381.856 353.715 380.995 354.115 380.283C353.993 381.019 353.824 381.873 353.454 382.549C353.179 383.09 352.842 383.472 352.922 383.48C353.187 383.46 354.549 381.756 354.629 380.842C354.553 381.722 354.187 383.537 353.605 384.205C354.254 383.974 354.764 383.132 354.866 382.498C354.969 384.018 353.647 384.471 353.46 385.338C354.019 384.849 354.926 384.185 355.272 383.42C355.227 383.98 355.024 384.516 354.687 384.966C354.39 385.431 353.615 386.006 353.655 386.507C353.764 386.473 354.697 385.543 355.033 385.233C354.902 386.211 353.195 387.177 353.705 388.173C353.878 387.266 355.077 386.485 355.497 385.6C355.665 386.594 354.386 387.729 354.41 389.288C354.844 387.057 356.099 386.886 356.125 385.996C356.424 386.906 356.78 387.248 357.001 387.423C356.386 385.966 356.704 385.366 356.204 384.324C356.505 384.939 356.862 384.986 357.481 386.238C357.692 385.779 356.722 384.527 356.529 383.976C356.804 384.326 357.898 385.33 358.178 385.447C357.497 384.622 356.919 383.717 356.457 382.752C357.095 383.33 358.503 384.13 358.268 384.797C358.589 383.885 357.153 382.466 356.623 381.617C356.81 381.804 357.499 382.124 358.89 383.527Z" fill="#2B2823"/>
<path d="M355.151 368.17C354.752 369.802 353.993 370.275 353.557 371.424C353.866 370.768 355.075 369.739 355.43 368.824C355.43 370.227 354.145 370.856 353.836 371.736C354.234 371.362 355.209 370.872 355.218 370.418C355.207 370.951 354.087 371.768 353.85 372.376C354.133 372.098 354.878 371.458 355.125 371.418C354.527 371.84 354.085 373.108 353.189 373.803C353.615 373.688 354.336 372.996 354.948 372.354C354.485 373.408 353.476 374.414 352.219 374.702C352.442 374.068 352.02 372.992 351.842 372.68C351.94 372.68 352.376 373.235 352.46 373.475C352.39 372.867 352.182 372.282 351.852 371.766C351.894 371.724 352.368 372.301 352.519 372.615C352.474 372.14 351.655 371.18 351.537 370.927C351.687 371.247 352.749 372.12 352.916 372.575C352.992 372.261 351.97 370.458 351.235 369.762C351.743 370.076 352.274 370.665 352.677 371.154C352.458 370.571 352.162 370.02 351.796 369.516C351.51 369.138 351.215 368.888 351.265 368.874C351.442 368.86 352.659 369.993 352.902 370.663C352.677 370.009 352.079 368.675 351.567 368.24C352.037 368.339 352.535 368.92 352.729 369.387C352.496 368.228 351.533 368.033 351.249 367.399C351.711 367.705 352.444 368.105 352.812 368.643C352.672 368.227 352.436 367.85 352.123 367.542C351.838 367.224 351.219 366.876 351.145 366.495C351.223 366.507 352.016 367.105 352.296 367.302C352.018 366.578 350.713 366.039 350.848 365.23C351.141 365.894 352.077 366.351 352.529 366.97C352.444 366.206 351.384 365.489 351.091 364.308C351.816 365.944 352.669 365.932 352.862 366.602C352.876 365.88 353.041 365.582 353.151 365.425C353.037 366.596 353.364 367.015 353.239 367.856C353.312 367.359 353.535 367.284 353.693 366.266C353.922 366.59 353.535 367.643 353.519 368.081C353.629 367.785 354.143 366.906 354.304 366.785C354.015 367.5 353.814 368.249 353.707 369.013C354.007 368.506 354.768 367.743 354.483 367.266C354.882 367.92 354.217 369.152 354.039 369.85C354.466 369.329 354.838 368.766 355.151 368.17Z" fill="#2B2823"/>
<path d="M360.891 371.599C358.417 372.628 357.867 373.97 356.162 374.944C357.12 374.29 358.435 372.104 359.789 371.311C357.572 371.648 356.909 373.865 355.606 374.574C356.094 373.843 356.622 372.167 357.335 372.04C356.497 372.189 355.493 374.183 354.594 374.712C354.961 374.191 355.779 372.839 355.779 372.438C355.264 373.483 353.377 374.517 352.521 376.119C352.59 375.411 353.501 374.087 354.357 372.938C352.81 373.932 351.481 375.803 351.348 377.884C352.292 377.367 354.098 377.771 354.636 377.983C354.622 377.824 353.624 377.27 353.212 377.188C354.192 377.149 355.168 377.336 356.064 377.733C356.12 377.657 355.09 377.043 354.554 376.88C355.317 376.832 357.04 377.904 357.469 378.031C356.925 377.87 355.287 376.389 354.515 376.242C354.991 376.043 358.1 377.236 359.385 378.23C358.759 377.496 357.696 376.793 356.813 376.274C357.726 376.498 358.791 376.791 359.624 377.268C360.295 377.629 360.765 378.041 360.775 377.957C360.753 377.671 358.65 375.992 357.514 375.789C358.608 375.988 360.859 376.61 361.683 377.317C361.405 376.592 360.361 375.94 359.574 375.747C361.464 375.833 362.016 377.307 363.09 377.62C362.492 376.958 361.671 375.902 360.723 375.433C361.418 375.554 362.075 375.838 362.64 376.26C363.215 376.638 363.92 377.54 364.544 377.564C364.504 377.443 363.349 376.324 362.972 375.922C364.189 376.19 365.362 378.14 366.613 377.723C365.49 377.423 364.532 376.035 363.426 375.467C364.655 375.417 366.06 376.93 368.008 377.107C365.241 376.353 365.042 374.988 363.934 374.847C365.068 374.648 365.496 374.306 365.727 374.093C363.908 374.562 363.165 374.145 361.867 374.556C362.634 374.314 362.695 373.938 364.257 373.437C363.689 373.151 362.124 374.034 361.438 374.163C361.877 373.916 363.134 372.875 363.281 372.587C362.226 373.222 361.096 373.725 359.917 374.083C360.64 373.475 361.648 372.072 362.474 372.41C361.343 371.949 359.566 373.302 358.504 373.759C358.72 373.602 359.134 372.907 360.891 371.599Z" fill="#2B2823"/>
<path d="M348.632 369.82C349.763 371.026 349.743 371.921 350.456 372.901C350.082 372.291 349.881 370.726 349.319 369.935C350.476 370.688 350.303 372.104 350.863 372.835C350.769 372.3 350.885 371.223 350.516 370.971C350.948 371.269 351.022 372.644 351.396 373.169C351.319 372.783 351.197 371.815 351.289 371.579C351.321 372.298 352.123 373.368 352.211 374.477C352.345 374.062 352.159 373.086 351.96 372.229C352.58 373.183 352.866 374.568 352.432 375.773C352.034 375.244 350.922 375.012 350.57 374.996C350.616 374.91 351.309 374.851 351.566 374.914C351.029 374.644 350.438 374.501 349.837 374.497C349.823 374.439 350.55 374.356 350.889 374.399C350.474 374.179 349.249 374.344 348.978 374.308C349.321 374.356 350.6 373.938 351.068 374.048C350.851 373.815 348.825 373.694 347.859 373.93C348.389 373.676 349.156 373.551 349.775 373.481C349.179 373.348 348.568 373.298 347.958 373.332C347.496 373.366 347.134 373.477 347.148 373.427C347.229 373.272 348.817 372.861 349.5 373.03C348.843 372.861 347.431 372.632 346.795 372.831C347.13 372.495 347.873 372.392 348.359 372.483C347.281 372.052 346.612 372.742 345.937 372.644C346.435 372.426 347.15 372.048 347.795 372.014C347.378 371.906 346.941 371.899 346.52 371.992C346.106 372.06 345.49 372.39 345.126 372.243C345.18 372.185 346.094 371.845 346.407 371.718C345.662 371.561 344.522 372.358 343.931 371.807C344.632 371.925 345.508 371.388 346.259 371.344C345.584 371.004 344.429 371.499 343.301 371.108C345.032 371.386 345.479 370.669 346.132 370.869C345.548 370.472 345.391 370.17 345.319 369.993C346.222 370.72 346.739 370.673 347.365 371.233C346.996 370.903 347.052 370.676 346.301 369.997C346.7 369.981 347.351 370.871 347.696 371.122C347.51 370.871 347.062 369.967 347.05 369.766C347.484 370.391 347.993 370.961 348.566 371.462C348.309 370.937 348.088 369.891 347.544 369.871C348.289 369.897 348.952 371.112 349.434 371.639C349.229 371.007 348.96 370.398 348.632 369.82Z" fill="#2B2823"/>
<path d="M345.799 378.212C348.012 377.663 349.073 378.301 350.735 378.105C349.739 378.142 347.733 377.31 346.404 377.457C348.091 376.564 349.673 377.745 350.93 377.566C350.225 377.314 349.012 376.435 348.458 376.709C349.107 376.387 350.808 377.24 351.693 377.147C351.177 376.978 349.928 376.469 349.725 376.193C350.609 376.648 352.424 376.391 353.826 377.059C353.428 376.612 352.123 376.167 350.958 375.823C352.523 375.723 354.38 376.324 355.539 377.681C354.633 377.805 353.601 378.995 353.348 379.413C353.276 379.297 353.675 378.419 353.92 378.152C353.23 378.622 352.658 379.245 352.248 379.971C352.171 379.947 352.561 379.005 352.846 378.623C352.302 378.975 351.669 380.581 351.452 380.884C351.74 380.5 352.107 378.659 352.557 378.162C352.129 378.268 350.609 380.649 350.241 381.987C350.294 381.168 350.663 380.15 351.001 379.347C350.491 379.963 349.914 380.701 349.589 381.454C349.316 382.05 349.203 382.559 349.153 382.507C349.023 382.309 349.607 380.088 350.278 379.375C349.631 380.063 348.41 381.629 348.207 382.531C348.03 381.893 348.406 380.919 348.85 380.389C347.601 381.404 347.976 382.692 347.4 383.45C347.476 382.692 347.494 381.557 347.904 380.754C347.49 381.189 347.185 381.716 347.014 382.291C346.814 382.839 346.791 383.813 346.376 384.145C346.342 384.042 346.557 382.696 346.615 382.229C345.92 383.024 346.105 384.958 345.044 385.302C345.659 384.529 345.607 383.096 346.066 382.152C345.199 382.748 345.012 384.485 343.777 385.586C345.285 383.67 344.725 382.637 345.41 381.979C344.532 382.416 344.068 382.402 343.817 382.366C345.301 381.77 345.593 381.106 346.693 380.73C346.046 380.951 345.811 380.73 344.488 381.174C344.731 380.691 346.249 380.498 346.785 380.243C346.358 380.297 344.97 380.22 344.723 380.098C345.768 379.999 346.796 379.77 347.785 379.419C346.988 379.369 345.575 378.92 345.183 379.57C345.721 378.681 347.625 378.707 348.583 378.482C348.3 378.482 347.663 378.226 345.799 378.212Z" fill="#2B2823"/>
<path d="M362.182 370.798C361.753 370.469 361.236 370.275 360.696 370.241C361.463 369.822 362.164 369.675 363.351 369.772C361.865 369.238 361.16 369.573 360.164 369.897C360.973 369.452 361.786 368.639 362.71 368.621C361.69 368.148 360.577 369.353 359.645 369.693C359.973 369.279 360.505 368.872 360.84 368.546C359.77 368.715 358.782 370.148 357.89 370.667C358.33 370.07 358.816 369.172 359.284 368.679C358.288 369.035 357.804 370.49 356.912 371.064C357.272 370.625 357.84 369.937 357.792 369.389C357.294 370.101 356.749 370.779 356.161 371.418C356.38 371.02 356.712 370.243 356.593 369.603C356.185 370.659 355.487 371.629 354.944 372.495C355.059 372.008 355.342 370.587 355.296 370.38C354.74 371.343 354.446 373.131 353.866 374.034C354.464 372.642 354.525 372.169 354.44 371.71C353.988 373.163 353.737 373.155 353.444 373.96C353.681 373.233 353.822 372.893 353.643 372.481C353.492 373.398 353.095 373.706 352.812 375.056C352.872 374.308 353.105 374.123 352.918 373.388C352.806 374.012 352.049 375.282 351.922 376.664C353.087 376.252 354.629 375.052 355.854 374.775C355.089 374.652 354.101 374.998 353.34 375.372C354.099 374.68 356.045 374.256 356.766 374.088C356.31 373.938 355.483 374.064 354.924 374.195C355.633 373.706 356.904 373.996 357.497 373.545C356.914 373.587 356.069 373.501 355.43 373.62C356.493 372.955 357.955 373.304 359.015 372.984C357.794 372.772 356.065 372.688 354.886 373.414C356.238 372.579 358.073 372.167 359.605 372.525C359.109 372.108 358.121 372.022 357.453 372.098C358.25 371.72 359.445 372.279 360.111 371.82C359.513 371.82 358.716 371.531 358.003 371.587C358.846 371.271 359.979 371.458 360.782 371.651C360.662 371.452 359.746 370.993 359.443 371.054C360.061 370.943 360.384 370.945 361.334 371.132C360.834 370.754 360.168 370.734 359.143 370.71C360.125 370.365 361.136 370.474 362.182 370.798Z" fill="#2B2823"/>
<path d="M351.909 375.658C352.142 376.163 354.64 379.854 354.923 380.494C355.094 380.074 354.524 378.091 354.102 377.389C354.501 377.89 355.381 378.516 356.317 380.935C356.457 380.394 355.951 378.701 355.704 378.081C356.09 378.621 356.879 379.713 357.188 382.144C357.367 381.397 357.346 380.617 357.126 379.882C357.241 380.384 357.367 380.335 357.811 381.81C357.745 380.418 357.472 379.822 357.353 379.208C357.576 379.689 358.04 381.253 358.196 381.333C358.277 380.402 357.574 378.194 356.917 377.248C357.578 377.959 358.51 380.084 358.695 381.265C358.743 381.265 358.771 379.637 358.512 379.009C358.741 379.516 359.11 381.195 359.227 381.889C359.283 381.921 359.367 380.778 359.283 380.152C359.363 380.442 359.61 380.736 359.719 381.784C359.793 381.784 359.919 380.355 359.65 379.271C359.779 379.79 359.974 379.856 360.148 381.841C360.367 381.422 360.277 380.289 360.032 379.12C360.43 379.86 360.715 383.454 361.227 383.803C361.028 383.255 361.524 381.79 361.281 381.124C361.528 381.804 361.697 382.07 362.02 384.98C362.203 383.668 362.147 382.334 361.855 381.042C362.285 382.096 362.552 383.344 362.687 385.304C362.92 384.73 362.715 382.597 362.502 381.659C362.998 382.712 363.201 383.493 363.442 385.213C363.6 384.266 363.482 383.662 363.46 383.1C363.637 383.497 363.647 384.05 363.876 385.119C364.108 383.911 363.858 382.661 363.179 381.635C364.004 382.937 364.472 383.742 364.789 384.932C364.823 383.938 364.512 382.97 363.938 381.951C364.504 382.48 365.711 385.284 365.703 385.217C364.974 378.852 359.144 376.377 351.909 375.658Z" fill="#2B2823"/>
<path d="M343.897 375.034C343.04 375.556 341.294 376.656 340.804 377.349C340.804 377.105 341.845 375.837 342.795 375.238C342.351 375.292 340.503 376.598 340.335 376.868C340.501 376.248 342.013 375.179 342.674 374.749C341.616 375.02 340.635 375.534 339.81 376.248C340.412 375.431 341.216 374.783 342.142 374.366C341.122 374.401 340.172 374.865 339.19 375.449C342.158 372.209 349.162 372.187 353.601 376.497C352.098 376.298 350.004 377.602 348.948 378.345C349.247 377.781 350.51 376.844 351.169 376.556C349.996 376.932 349.325 376.805 347.923 378.178C348.22 377.57 348.663 377.045 349.211 376.648C348.66 376.828 347.817 377.564 347.203 378.464C347.223 378.178 347.648 377.387 348.375 376.747C347.683 377.176 347.056 377.701 346.514 378.307C346.945 377.562 347.166 377.276 347.596 376.894C347.172 377.059 347.048 377.152 346.263 377.737C346.291 377.411 347.56 376.495 347.97 376.121C347.488 376.254 347.022 376.594 346.257 377.19C346.698 376.483 347.994 375.546 348.95 375.22C347.317 375.56 346.052 376.822 345.564 377.451C345.62 377.19 346.638 375.9 347.618 375.121C346.711 375.32 345.359 376.89 345.243 377.23C345.243 377.053 345.777 376.153 346.17 375.749C345.797 375.894 344.947 376.725 344.636 377.351C345.417 375.793 345.799 375.574 346.429 374.99C345.819 375.091 344.405 376.381 343.75 377.282C344.347 376.055 345.52 375.034 346.17 374.628C344.775 375 344.032 376.914 342.843 377.335C343.268 377.043 343.696 376.3 344.05 375.775C343.371 376.318 342.791 377.307 342.1 377.63C342.333 377.284 342.764 376.636 343.112 376.238C342.714 376.53 342.092 376.815 341.447 377.47C341.618 376.834 342.931 375.67 343.897 375.034Z" fill="#2B2823"/>
<path d="M330.507 398.898C332.391 396.735 334.825 395.261 337.293 393.682C341.046 391.283 344.926 388.932 348.229 386.03C350.505 384.028 352.107 381.74 352.364 378.568C352.436 377.543 352.426 376.514 352.334 375.491C352.503 375.411 352.668 375.326 352.83 375.23C352.985 376.785 353.069 378.335 352.858 379.872C352.338 383.648 349.671 386.055 346.838 388.252C344.496 390.067 341.954 391.716 339.468 393.378C337.498 394.688 335.206 395.909 333.616 397.614C332.026 399.319 331.152 401.323 332.881 403.321C331.182 402.571 329.469 401.742 328.24 400.291C329.22 400.266 329.909 399.584 330.507 398.898Z" fill="#2B2823"/>
<path d="M109.877 423.13V418.87H109.164C109.043 418.87 108.927 418.822 108.841 418.736C108.756 418.65 108.708 418.534 108.708 418.413V417.34C108.707 417.28 108.719 417.221 108.742 417.165C108.764 417.11 108.798 417.059 108.84 417.017C108.883 416.974 108.933 416.941 108.989 416.918C109.044 416.895 109.104 416.883 109.164 416.883H109.379C106.718 414.493 105.016 411.221 104.588 407.674C102.712 397.27 113.827 392.319 119.699 388.506C119.715 387.742 119.991 387.006 120.48 386.419C120.969 385.831 121.644 385.426 122.394 385.27L122.436 384.046C122.054 383.909 121.725 383.655 121.497 383.319C121.269 382.984 121.154 382.585 121.168 382.18C121.182 381.776 121.325 381.386 121.575 381.067C121.825 380.748 122.171 380.517 122.561 380.406L122.619 378.703C122.299 378.601 122.02 378.398 121.827 378.124C121.633 377.85 121.534 377.52 121.546 377.185C121.558 376.85 121.679 376.527 121.892 376.268C122.104 376.008 122.396 375.824 122.722 375.745L122.944 369.363C122.944 369.142 123.214 369.142 123.22 369.321L123.442 375.745C123.769 375.823 124.061 376.006 124.274 376.266C124.487 376.525 124.609 376.848 124.621 377.183C124.633 377.518 124.534 377.848 124.34 378.123C124.146 378.397 123.868 378.6 123.547 378.701L123.605 380.406C123.995 380.517 124.341 380.748 124.591 381.067C124.841 381.386 124.984 381.776 124.998 382.18C125.012 382.585 124.897 382.984 124.669 383.319C124.441 383.655 124.112 383.909 123.73 384.046L123.772 385.27C124.521 385.426 125.195 385.831 125.684 386.418C126.173 387.006 126.449 387.741 126.465 388.504C129.126 390.234 132.867 392.197 135.984 394.793V381.255H135.564C135.303 381.255 135.072 380.905 134.999 380.394L133.911 372.939C133.797 372.163 134.082 371.386 134.477 371.386H137.648V331.382H137.303C137.104 331.382 136.919 331.113 136.859 330.722L136.008 325.017C135.919 324.421 136.142 323.824 136.453 323.824H138.956V292.196H138.688C138.53 292.196 138.387 291.997 138.343 291.683L137.682 287.245C137.612 286.785 137.785 286.32 138.026 286.32H140.265V263.702H140.066C139.952 263.702 139.853 263.553 139.819 263.335L139.347 260.166C139.297 259.836 139.423 259.504 139.594 259.504H140.038C139.922 259.071 139.847 258.628 139.815 258.18C139.468 255.074 141.341 253.472 142.564 252.271C142.547 252.201 142.538 252.129 142.538 252.056C142.538 251.853 142.601 251.656 142.717 251.489C142.834 251.323 142.998 251.196 143.189 251.126L143.221 250.178C143.078 250.115 142.957 250.011 142.874 249.879C142.79 249.747 142.749 249.593 142.754 249.438C142.76 249.282 142.812 249.131 142.904 249.005C142.996 248.879 143.124 248.784 143.271 248.731L143.297 248.001C143.178 247.953 143.077 247.87 143.008 247.763C142.938 247.656 142.903 247.53 142.907 247.402C142.912 247.275 142.955 247.151 143.032 247.049C143.109 246.947 143.215 246.871 143.337 246.831L143.478 242.736C143.478 242.645 143.59 242.645 143.594 242.718L143.735 246.831C143.856 246.871 143.963 246.947 144.039 247.049C144.116 247.151 144.16 247.275 144.164 247.402C144.168 247.53 144.133 247.656 144.064 247.763C143.994 247.87 143.893 247.953 143.775 248.001L143.801 248.731C143.948 248.784 144.076 248.879 144.168 249.005C144.26 249.131 144.312 249.282 144.317 249.438C144.323 249.593 144.281 249.747 144.198 249.879C144.115 250.011 143.994 250.115 143.85 250.178L143.882 251.126C144.073 251.196 144.238 251.323 144.354 251.489C144.471 251.656 144.533 251.853 144.534 252.056C144.533 252.128 144.525 252.2 144.51 252.271C145.729 253.464 147.605 255.074 147.257 258.18C147.225 258.628 147.151 259.071 147.034 259.504H147.472C147.643 259.504 147.769 259.836 147.719 260.166L147.247 263.335C147.213 263.553 147.113 263.702 147 263.702H146.8V286.32H149.037C149.28 286.32 149.452 286.785 149.384 287.245L148.721 291.683C148.675 291.987 148.535 292.196 148.376 292.196H148.107V323.828H150.613C150.922 323.828 151.145 324.425 151.057 325.021L150.205 330.726C150.145 331.123 149.966 331.386 149.76 331.386H149.416V368.287C154.585 363.318 161.519 359.764 166.261 356.685C166.286 355.498 166.713 354.354 167.472 353.439C168.232 352.525 169.279 351.894 170.444 351.65L170.51 349.748C169.917 349.533 169.407 349.136 169.054 348.613C168.701 348.091 168.522 347.471 168.544 346.841C168.567 346.212 168.788 345.605 169.177 345.109C169.566 344.613 170.102 344.252 170.709 344.079L170.801 341.431C170.299 341.277 169.862 340.962 169.558 340.535C169.254 340.108 169.099 339.593 169.117 339.07C169.135 338.546 169.325 338.043 169.658 337.638C169.992 337.234 170.449 336.949 170.96 336.83L171.271 327.853C169.532 327.848 167.838 327.303 166.424 326.294C165.009 325.285 163.945 323.862 163.377 322.222C164.047 323.064 164.891 323.75 165.852 324.235C166.813 324.719 167.868 324.99 168.944 325.029C170.02 325.068 171.092 324.874 172.086 324.46C173.079 324.047 173.972 323.423 174.701 322.632C175.43 321.842 175.979 320.903 176.31 319.88C176.64 318.858 176.745 317.776 176.617 316.709C176.489 315.642 176.131 314.616 175.567 313.7C175.004 312.784 174.248 312.002 173.352 311.405C175.295 311.891 176.998 313.055 178.153 314.688C179.309 316.32 179.839 318.311 179.648 320.3C179.456 322.29 178.557 324.144 177.112 325.528C175.667 326.911 173.772 327.731 171.773 327.84L172.082 336.83C172.592 336.95 173.049 337.234 173.381 337.638C173.714 338.043 173.904 338.545 173.922 339.068C173.941 339.591 173.786 340.106 173.483 340.532C173.179 340.959 172.744 341.274 172.243 341.429L172.335 344.079C172.941 344.252 173.478 344.613 173.867 345.109C174.256 345.605 174.477 346.212 174.499 346.841C174.521 347.471 174.343 348.091 173.99 348.613C173.637 349.136 173.127 349.533 172.534 349.748L172.599 351.65C173.764 351.894 174.812 352.525 175.571 353.439C176.331 354.354 176.758 355.498 176.782 356.685C185.851 362.575 202.946 370.201 200.348 386.147H203.241V377.691H201.96C201.643 377.691 201.339 377.566 201.115 377.342C200.891 377.118 200.765 376.815 200.765 376.499V374.648C200.765 374.332 200.891 374.028 201.115 373.805C201.339 373.581 201.643 373.455 201.96 373.455H202.87C196.813 368.218 192.967 361.191 192.002 353.252C188.019 331.115 211.656 320.584 224.154 312.471C224.189 310.844 224.775 309.278 225.817 308.027C226.858 306.775 228.294 305.913 229.89 305.581L229.978 302.983C229.164 302.692 228.464 302.15 227.979 301.435C227.494 300.721 227.249 299.872 227.279 299.009C227.309 298.147 227.612 297.317 228.146 296.638C228.679 295.959 229.415 295.466 230.247 295.231L230.372 291.61C229.69 291.395 229.097 290.963 228.683 290.38C228.27 289.797 228.06 289.094 228.085 288.381C228.109 287.667 228.367 286.981 228.82 286.428C229.272 285.874 229.894 285.484 230.589 285.317L231.016 273.039C228.637 273.033 226.32 272.289 224.385 270.909C222.451 269.529 220.995 267.582 220.22 265.338C221.136 266.488 222.291 267.426 223.605 268.088C224.919 268.75 226.361 269.12 227.833 269.173C229.304 269.226 230.769 268.96 232.127 268.394C233.486 267.828 234.705 266.976 235.702 265.895C236.699 264.814 237.45 263.53 237.902 262.132C238.355 260.735 238.499 259.256 238.324 257.797C238.149 256.338 237.66 254.935 236.89 253.683C236.12 252.431 235.088 251.36 233.864 250.544C236.514 251.215 238.836 252.811 240.409 255.042C241.983 257.273 242.704 259.993 242.442 262.709C242.181 265.425 240.953 267.957 238.983 269.849C237.012 271.74 234.429 272.865 231.699 273.021L232.125 285.317C232.82 285.485 233.441 285.875 233.892 286.428C234.344 286.981 234.602 287.667 234.626 288.38C234.651 289.093 234.441 289.794 234.029 290.377C233.616 290.96 233.024 291.392 232.342 291.608L232.468 295.231C233.3 295.466 234.035 295.959 234.568 296.638C235.102 297.317 235.405 298.148 235.435 299.01C235.464 299.872 235.219 300.722 234.734 301.436C234.248 302.15 233.548 302.692 232.735 302.983L232.824 305.585C234.419 305.917 235.854 306.779 236.895 308.03C237.936 309.281 238.521 310.847 238.555 312.473C251.052 320.586 274.696 331.117 270.708 353.254C269.746 361.193 265.898 368.22 259.84 373.457H260.747C261.064 373.457 261.368 373.583 261.592 373.807C261.816 374.03 261.942 374.334 261.942 374.65V376.503C261.942 376.819 261.816 377.122 261.592 377.346C261.368 377.569 261.064 377.695 260.747 377.695H259.464V386.151H261.958C259.368 370.209 276.455 362.579 285.526 356.689C285.55 355.5 285.978 354.355 286.74 353.44C287.501 352.525 288.552 351.896 289.719 351.654L289.784 349.752C289.191 349.537 288.681 349.14 288.328 348.617C287.975 348.095 287.797 347.475 287.819 346.845C287.841 346.216 288.062 345.609 288.451 345.113C288.84 344.617 289.377 344.256 289.984 344.083L290.075 341.435C289.573 341.281 289.137 340.966 288.832 340.54C288.528 340.113 288.372 339.598 288.39 339.075C288.408 338.551 288.598 338.048 288.931 337.643C289.264 337.238 289.721 336.954 290.233 336.834L290.545 327.857C288.807 327.851 287.115 327.305 285.701 326.296C284.288 325.287 283.224 323.864 282.657 322.224C283.327 323.066 284.172 323.752 285.133 324.237C286.094 324.721 287.149 324.992 288.225 325.031C289.301 325.07 290.372 324.876 291.366 324.462C292.36 324.049 293.252 323.425 293.981 322.634C294.71 321.844 295.259 320.905 295.59 319.882C295.921 318.86 296.026 317.778 295.898 316.711C295.769 315.644 295.411 314.617 294.848 313.702C294.284 312.786 293.528 312.004 292.633 311.407C294.575 311.893 296.279 313.058 297.434 314.69C298.589 316.323 299.119 318.315 298.927 320.304C298.735 322.294 297.835 324.148 296.389 325.531C294.944 326.914 293.049 327.734 291.049 327.842L291.36 336.832C291.87 336.952 292.327 337.236 292.66 337.64C292.992 338.045 293.182 338.547 293.201 339.07C293.219 339.593 293.065 340.108 292.761 340.534C292.458 340.961 292.022 341.276 291.521 341.431L291.613 344.081C292.22 344.254 292.756 344.615 293.145 345.111C293.534 345.607 293.755 346.214 293.778 346.843C293.8 347.473 293.621 348.093 293.268 348.615C292.915 349.138 292.405 349.535 291.812 349.75L291.878 351.652C293.043 351.896 294.09 352.527 294.85 353.441C295.609 354.356 296.036 355.5 296.061 356.687C300.734 359.722 307.542 363.221 312.685 368.081V331.215H312.337C312.137 331.215 311.952 330.946 311.892 330.555L311.044 324.85C310.954 324.254 311.175 323.657 311.488 323.657H313.994V292.029H313.731C313.573 292.029 313.432 291.818 313.386 291.516L312.725 287.078C312.657 286.619 312.829 286.153 313.07 286.153H315.302V263.535H315.103C314.99 263.535 314.89 263.386 314.856 263.168L314.382 259.999C314.334 259.669 314.458 259.337 314.629 259.337H315.067C314.952 258.904 314.878 258.462 314.844 258.015C314.498 254.907 316.372 253.303 317.593 252.104C317.576 252.034 317.568 251.962 317.567 251.889C317.567 251.686 317.63 251.487 317.747 251.321C317.864 251.154 318.029 251.027 318.221 250.957L318.252 250.011C318.109 249.948 317.988 249.844 317.905 249.712C317.822 249.58 317.78 249.426 317.786 249.271C317.791 249.115 317.843 248.964 317.935 248.838C318.027 248.712 318.155 248.617 318.302 248.564L318.326 247.834C318.208 247.786 318.107 247.703 318.038 247.595C317.968 247.488 317.933 247.362 317.938 247.234C317.942 247.107 317.986 246.984 318.063 246.882C318.14 246.78 318.246 246.703 318.368 246.664L318.509 242.567C318.509 242.478 318.621 242.478 318.623 242.551L318.764 246.664C318.885 246.704 318.991 246.781 319.067 246.883C319.143 246.985 319.186 247.107 319.191 247.235C319.195 247.362 319.161 247.487 319.092 247.594C319.024 247.702 318.924 247.785 318.806 247.834L318.83 248.564C318.977 248.617 319.105 248.712 319.197 248.838C319.289 248.964 319.341 249.115 319.347 249.271C319.352 249.426 319.311 249.58 319.227 249.712C319.144 249.844 319.023 249.948 318.88 250.011L318.914 250.957C319.104 251.028 319.269 251.155 319.385 251.322C319.501 251.488 319.563 251.686 319.563 251.889C319.562 251.962 319.554 252.033 319.539 252.104C320.76 253.297 322.635 254.907 322.286 258.015C322.254 258.462 322.18 258.905 322.063 259.337H322.503C322.672 259.337 322.798 259.669 322.75 259.999L322.276 263.168C322.242 263.386 322.143 263.535 322.029 263.535H321.83V286.153H324.089C324.332 286.153 324.503 286.619 324.435 287.078L323.772 291.516C323.728 291.818 323.587 292.029 323.427 292.029H323.16V323.661H325.658C325.967 323.661 326.19 324.258 326.102 324.854L325.25 330.559C325.192 330.956 325.011 331.219 324.806 331.219H324.463V371.223H327.626C328.025 371.223 328.308 372 328.194 372.776L327.106 380.231C327.031 380.742 326.8 381.092 326.539 381.092H326.118V394.777C329.232 392.193 332.957 390.234 335.612 388.51C335.628 387.746 335.904 387.01 336.393 386.423C336.882 385.835 337.557 385.43 338.307 385.274L338.349 384.05C337.967 383.913 337.638 383.659 337.41 383.323C337.182 382.988 337.067 382.589 337.081 382.184C337.095 381.78 337.238 381.39 337.488 381.071C337.738 380.752 338.084 380.521 338.474 380.41L338.532 378.707C338.212 378.605 337.933 378.402 337.74 378.128C337.546 377.854 337.447 377.524 337.459 377.189C337.471 376.854 337.592 376.531 337.805 376.272C338.017 376.012 338.309 375.828 338.635 375.749L338.857 369.367C338.857 369.146 339.129 369.146 339.133 369.325L339.357 375.749C339.684 375.827 339.976 376.011 340.189 376.27C340.401 376.53 340.523 376.852 340.535 377.188C340.546 377.523 340.448 377.853 340.254 378.127C340.06 378.401 339.781 378.604 339.46 378.705L339.518 380.41C339.908 380.521 340.254 380.752 340.504 381.071C340.754 381.39 340.897 381.78 340.911 382.184C340.925 382.589 340.81 382.988 340.582 383.323C340.354 383.659 340.025 383.913 339.643 384.05L339.685 385.274C340.434 385.43 341.108 385.835 341.597 386.422C342.086 387.01 342.362 387.745 342.378 388.508C345.292 390.403 349.497 392.573 352.766 395.555C356.082 398.578 358.435 402.436 357.491 407.68C357.063 411.227 355.361 414.498 352.7 416.889H352.913C352.973 416.889 353.033 416.901 353.088 416.924C353.144 416.947 353.194 416.98 353.237 417.023C353.279 417.065 353.313 417.116 353.335 417.171C353.358 417.227 353.37 417.286 353.369 417.346V418.419C353.369 418.54 353.321 418.656 353.236 418.742C353.151 418.827 353.034 418.876 352.913 418.876H352.21V423.136H361.676V454.196H122.145C114.618 449.49 107.362 444.365 100.413 438.845V423.142L109.877 423.13Z" fill="#2B2823"/>
<path d="M145.331 275.231C145.347 274.319 145.142 273.417 144.733 272.601C144.763 272.447 144.782 272.291 144.791 272.134C144.957 270.292 143.624 269.703 143.53 269.081C143.435 269.703 142.104 270.292 142.272 272.134C142.28 272.291 142.299 272.447 142.327 272.601C141.918 273.417 141.713 274.319 141.73 275.231V284.217H145.315L145.331 275.231Z" fill="white"/>
<path d="M146.047 308.336C146.047 306.877 145.726 305.565 145.222 304.653C145.263 304.437 145.289 304.219 145.302 303.999C145.535 301.415 143.668 300.598 143.539 299.724C143.407 300.598 141.547 301.419 141.774 303.999C141.787 304.219 141.815 304.437 141.856 304.653C141.354 305.565 141.035 306.877 141.031 308.336V320.913H146.047V308.336Z" fill="white"/>
<path d="M146.764 352.131C146.764 350.255 146.353 348.567 145.704 347.397C145.757 347.119 145.791 346.838 145.807 346.556C146.108 343.234 143.71 342.183 143.541 341.058C143.373 342.181 140.975 343.244 141.272 346.556C141.289 346.838 141.324 347.119 141.377 347.397C140.728 348.567 140.322 350.255 140.318 352.131V368.297H146.766L146.764 352.131Z" fill="white"/>
<path d="M156.277 406.69C156.277 406.29 156.118 405.905 155.834 405.622C155.55 405.339 155.165 405.18 154.763 405.18C154.362 405.18 153.977 405.339 153.693 405.622C153.409 405.905 153.25 406.29 153.25 406.69V409.503H156.277V406.69Z" fill="white"/>
<path d="M161.07 406.69C161.056 406.298 160.89 405.928 160.608 405.656C160.325 405.384 159.948 405.232 159.555 405.232C159.163 405.232 158.786 405.384 158.503 405.656C158.221 405.928 158.055 406.298 158.041 406.69V409.502H161.07V406.69Z" fill="white"/>
<path d="M165.863 406.69C165.863 406.289 165.704 405.905 165.42 405.622C165.136 405.338 164.751 405.179 164.35 405.179C163.948 405.179 163.563 405.338 163.279 405.622C162.995 405.905 162.836 406.289 162.836 406.69V409.502H165.863V406.69Z" fill="white"/>
<path d="M170.656 406.69C170.656 406.289 170.497 405.905 170.213 405.622C169.929 405.338 169.544 405.179 169.142 405.179C168.741 405.179 168.356 405.338 168.072 405.622C167.788 405.905 167.628 406.289 167.628 406.69V409.502H170.656V406.69Z" fill="white"/>
<path d="M175.449 406.69C175.449 406.289 175.29 405.905 175.006 405.622C174.722 405.338 174.337 405.179 173.935 405.179C173.534 405.179 173.149 405.338 172.865 405.622C172.581 405.905 172.421 406.289 172.421 406.69V409.502H175.449V406.69Z" fill="white"/>
<path d="M180.238 406.69C180.224 406.299 180.058 405.929 179.776 405.657C179.494 405.386 179.117 405.234 178.725 405.234C178.333 405.234 177.957 405.386 177.674 405.657C177.392 405.929 177.227 406.299 177.212 406.69V409.502H180.238V406.69Z" fill="white"/>
<path d="M185.031 406.69C185.031 406.289 184.872 405.905 184.588 405.622C184.304 405.338 183.919 405.179 183.517 405.179C183.116 405.179 182.731 405.338 182.447 405.622C182.163 405.905 182.003 406.289 182.003 406.69V409.502H185.031V406.69Z" fill="white"/>
<path d="M189.824 406.69C189.824 406.289 189.665 405.905 189.381 405.622C189.097 405.338 188.712 405.179 188.31 405.179C187.909 405.179 187.524 405.338 187.24 405.622C186.956 405.905 186.796 406.289 186.796 406.69V409.502H189.824V406.69Z" fill="white"/>
<path d="M210.484 380.87C210.468 380.333 210.242 379.823 209.856 379.449C209.469 379.076 208.952 378.866 208.414 378.866C207.875 378.866 207.358 379.076 206.972 379.449C206.585 379.823 206.36 380.333 206.343 380.87V384.716H210.484V380.87Z" fill="white"/>
<path d="M217.043 380.869C217.043 380.321 216.825 379.795 216.436 379.408C216.048 379.02 215.521 378.802 214.971 378.802C214.422 378.802 213.895 379.02 213.506 379.408C213.118 379.795 212.9 380.321 212.9 380.869V384.716H217.043V380.869Z" fill="white"/>
<path d="M223.594 380.87C223.577 380.333 223.351 379.823 222.965 379.449C222.579 379.076 222.061 378.866 221.523 378.866C220.985 378.866 220.468 379.076 220.081 379.449C219.695 379.823 219.469 380.333 219.452 380.87V384.716H223.594V380.87Z" fill="white"/>
<path d="M230.148 380.87C230.132 380.333 229.906 379.823 229.52 379.449C229.133 379.076 228.616 378.866 228.078 378.866C227.539 378.866 227.022 379.076 226.636 379.449C226.249 379.823 226.024 380.333 226.007 380.87V384.716H230.148V380.87Z" fill="white"/>
<path d="M236.703 380.87C236.686 380.333 236.461 379.823 236.074 379.449C235.688 379.076 235.171 378.866 234.632 378.866C234.094 378.866 233.577 379.076 233.19 379.449C232.804 379.823 232.579 380.333 232.562 380.87V384.716H236.703V380.87Z" fill="white"/>
<path d="M243.258 380.869C243.258 380.322 243.04 379.796 242.652 379.409C242.263 379.022 241.737 378.804 241.188 378.804C240.639 378.804 240.113 379.022 239.725 379.409C239.337 379.796 239.119 380.322 239.119 380.869V384.716H243.258V380.869Z" fill="white"/>
<path d="M249.812 380.869C249.812 380.321 249.594 379.795 249.206 379.408C248.817 379.02 248.29 378.802 247.741 378.802C247.191 378.802 246.664 379.02 246.276 379.408C245.888 379.795 245.669 380.321 245.669 380.869V384.716H249.812V380.869Z" fill="white"/>
<path d="M256.363 380.869C256.363 380.321 256.145 379.795 255.756 379.408C255.368 379.02 254.841 378.802 254.292 378.802C253.742 378.802 253.215 379.02 252.827 379.408C252.438 379.795 252.22 380.321 252.22 380.869V384.716H256.363V380.869Z" fill="white"/>
<path d="M275.535 406.69C275.521 406.298 275.355 405.928 275.072 405.656C274.79 405.384 274.413 405.232 274.02 405.232C273.628 405.232 273.25 405.384 272.968 405.656C272.685 405.928 272.52 406.298 272.505 406.69V409.502H275.535V406.69Z" fill="white"/>
<path d="M280.328 406.69C280.314 406.298 280.148 405.928 279.865 405.656C279.583 405.384 279.206 405.232 278.813 405.232C278.421 405.232 278.043 405.384 277.761 405.656C277.478 405.928 277.313 406.298 277.298 406.69V409.502H280.328V406.69Z" fill="white"/>
<path d="M285.121 406.69C285.121 406.289 284.961 405.905 284.678 405.622C284.394 405.338 284.009 405.179 283.607 405.179C283.206 405.179 282.821 405.338 282.537 405.622C282.253 405.905 282.093 406.289 282.093 406.69V409.502H285.121V406.69Z" fill="white"/>
<path d="M289.914 406.69C289.914 406.289 289.754 405.905 289.471 405.622C289.187 405.338 288.802 405.179 288.4 405.179C287.999 405.179 287.614 405.338 287.33 405.622C287.046 405.905 286.886 406.289 286.886 406.69V409.502H289.914V406.69Z" fill="white"/>
<path d="M294.707 406.69C294.707 406.289 294.547 405.905 294.263 405.622C293.98 405.338 293.594 405.179 293.193 405.179C292.792 405.179 292.406 405.338 292.123 405.622C291.839 405.905 291.679 406.289 291.679 406.69V409.502H294.707V406.69Z" fill="white"/>
<path d="M299.5 406.69C299.486 406.299 299.32 405.929 299.038 405.657C298.756 405.386 298.379 405.234 297.987 405.234C297.595 405.234 297.218 405.386 296.936 405.657C296.654 405.929 296.488 406.299 296.474 406.69V409.502H299.5V406.69Z" fill="white"/>
<path d="M304.289 406.69C304.289 406.289 304.129 405.905 303.846 405.622C303.562 405.338 303.177 405.179 302.775 405.179C302.374 405.179 301.989 405.338 301.705 405.622C301.421 405.905 301.261 406.289 301.261 406.69V409.502H304.289V406.69Z" fill="white"/>
<path d="M309.086 406.69C309.086 406.289 308.926 405.905 308.642 405.622C308.359 405.338 307.973 405.179 307.572 405.179C307.17 405.179 306.785 405.338 306.502 405.622C306.218 405.905 306.058 406.289 306.058 406.69V409.502H309.086V406.69Z" fill="white"/>
<path d="M320.366 275.064C320.383 274.152 320.178 273.249 319.769 272.432C319.798 272.278 319.817 272.122 319.827 271.965C319.994 270.123 318.659 269.536 318.566 268.91C318.472 269.536 317.139 270.123 317.307 271.965C317.317 272.122 317.335 272.278 317.363 272.432C316.957 273.25 316.756 274.152 316.775 275.064V284.048H320.36L320.366 275.064Z" fill="white"/>
<path d="M321.082 308.169C321.082 306.71 320.763 305.387 320.257 304.486C320.299 304.27 320.326 304.052 320.339 303.832C320.57 301.248 318.706 300.431 318.574 299.557C318.443 300.431 316.582 301.252 316.811 303.832C316.824 304.052 316.85 304.27 316.891 304.486C316.389 305.397 316.07 306.71 316.066 308.169V320.746H321.082V308.169Z" fill="white"/>
<path d="M321.801 351.964C321.801 350.088 321.388 348.4 320.739 347.232C320.792 346.953 320.827 346.672 320.843 346.389C321.143 343.067 318.745 342.016 318.576 340.889C318.408 342.014 316.01 343.075 316.309 346.389C316.325 346.672 316.36 346.953 316.413 347.232C315.765 348.4 315.357 350.088 315.353 351.964V368.13H321.801V351.964Z" fill="white"/>
<path d="M333.85 450.066H344.141V437.164C344.141 435.802 343.599 434.497 342.634 433.534C341.67 432.572 340.361 432.031 338.997 432.031C337.633 432.031 336.325 432.572 335.361 433.534C334.396 434.497 333.854 435.802 333.854 437.164L333.85 450.066Z" fill="#2B2823"/>
<path d="M282.131 453.461H299.461V431.725C299.461 429.432 298.548 427.233 296.923 425.611C295.298 423.99 293.094 423.079 290.796 423.079C288.498 423.079 286.294 423.99 284.669 425.611C283.044 427.233 282.131 429.432 282.131 431.725V453.461Z" fill="white"/>
<path d="M245.84 453.486V415.658C245.84 411.826 244.314 408.15 241.598 405.44C238.883 402.73 235.199 401.208 231.359 401.208C227.518 401.208 223.835 402.73 221.119 405.44C218.403 408.15 216.878 411.826 216.878 415.658V453.486H245.84Z" fill="white"/>
<path d="M162.874 453.46H180.203V431.725C180.203 429.432 179.29 427.232 177.665 425.611C176.04 423.989 173.836 423.078 171.538 423.078C169.24 423.078 167.036 423.989 165.411 425.611C163.786 427.232 162.874 429.432 162.874 431.725V453.46Z" fill="white"/>
<path d="M117.952 437.163V450.065H128.242V437.163C128.234 435.912 127.767 434.707 126.931 433.775C126.095 432.843 124.946 432.247 123.701 432.101C122.456 431.955 121.2 432.267 120.17 432.979C119.139 433.692 118.405 434.756 118.105 435.97C118.007 436.36 117.955 436.761 117.952 437.163Z" fill="white"/>
<path d="M170.644 132.943C170.644 133.756 171.441 134.41 172.437 134.406L215.133 134.207C216.117 134.207 216.91 133.54 216.906 132.727C216.906 131.914 216.109 131.26 215.113 131.264L172.417 131.462C171.435 131.462 170.642 132.13 170.646 132.943H170.644Z" fill="#2B2823"/>
<path d="M170.644 186.611C170.644 187.424 171.441 188.078 172.437 188.074L215.133 187.875C216.117 187.875 216.91 187.207 216.906 186.394C216.906 185.581 216.109 184.927 215.113 184.931L172.417 185.13C171.435 185.13 170.642 185.798 170.646 186.611H170.644Z" fill="#2B2823"/>
<path d="M214.031 135.016V135.392L214.242 183.928V184.176L173.506 184.375V184.125L173.293 135.589V135.209L214.031 135.016ZM176.044 149.572L176.123 169.867C176.143 174.12 181.023 177.434 181.232 177.573L181.497 177.75L181.76 177.569C181.959 177.43 186.816 174.071 186.796 169.817L186.718 149.523C186.696 145.269 181.816 141.955 181.609 141.816L181.344 141.639L181.079 141.818C180.874 141.957 176.024 145.319 176.044 149.572ZM188.393 149.572L188.473 169.867C188.493 174.12 193.373 177.434 193.582 177.573L193.847 177.75L194.11 177.569C194.309 177.43 199.165 174.071 199.146 169.817L199.068 149.523C199.046 145.269 194.166 141.955 193.959 141.816L193.694 141.639L193.429 141.818C193.224 141.957 188.373 145.319 188.393 149.572ZM200.743 149.572L200.823 169.867C200.843 174.12 205.723 177.434 205.932 177.573L206.197 177.75L206.46 177.569C206.659 177.43 211.515 174.071 211.495 169.817L211.418 149.523C211.396 145.269 206.516 141.955 206.308 141.816L206.043 141.639L205.779 141.818C205.573 141.957 200.723 145.319 200.743 149.572Z" fill="#2B2823"/>
<path d="M189.627 119.011C190.636 118.649 191.587 118.141 192.45 117.505L193.691 116.578L194.942 117.493C195.81 118.121 196.765 118.619 197.778 118.972C205.859 121.818 211.452 126.074 211.484 132.748L176.055 132.915C176.023 126.243 181.576 121.933 189.627 119.011Z" fill="#2B2823"/>
<path d="M189.627 200.154C190.636 200.516 191.587 201.024 192.45 201.66L193.691 202.586L194.942 201.672C195.81 201.044 196.765 200.546 197.778 200.193C205.859 197.347 211.452 193.091 211.484 186.416L176.055 186.25C176.023 192.922 181.576 197.232 189.627 200.154Z" fill="#2B2823"/>
<path d="M189.605 200.046C189.628 200.864 189.893 201.657 190.365 202.326C190.838 202.994 191.498 203.509 192.262 203.805C193.027 204.101 193.862 204.166 194.663 203.991C195.464 203.815 196.195 203.408 196.765 202.82C197.335 202.232 197.719 201.489 197.868 200.684C198.017 199.88 197.925 199.049 197.603 198.296C197.281 197.544 196.744 196.903 196.058 196.453C195.373 196.004 194.57 195.767 193.75 195.771C193.197 195.78 192.65 195.897 192.142 196.117C191.634 196.337 191.175 196.654 190.79 197.051C190.405 197.449 190.102 197.917 189.899 198.431C189.696 198.945 189.596 199.494 189.605 200.046Z" fill="#2B2823"/>
<path d="M189.605 118.55C189.628 119.368 189.893 120.161 190.365 120.83C190.838 121.499 191.498 122.013 192.262 122.309C193.027 122.605 193.862 122.67 194.663 122.495C195.464 122.32 196.195 121.912 196.765 121.324C197.335 120.736 197.719 119.993 197.868 119.189C198.017 118.384 197.925 117.553 197.603 116.801C197.281 116.048 196.744 115.407 196.058 114.958C195.373 114.508 194.57 114.271 193.75 114.275C193.197 114.284 192.65 114.402 192.142 114.621C191.634 114.841 191.175 115.159 190.79 115.556C190.405 115.953 190.102 116.421 189.899 116.935C189.696 117.449 189.596 117.998 189.605 118.55Z" fill="#2B2823"/>
<path d="M190.702 208.128C190.719 208.73 190.914 209.313 191.261 209.805C191.609 210.297 192.094 210.676 192.657 210.894C193.219 211.112 193.833 211.16 194.422 211.031C195.012 210.902 195.55 210.602 195.969 210.17C196.389 209.737 196.671 209.191 196.781 208.599C196.891 208.007 196.823 207.396 196.586 206.842C196.349 206.288 195.954 205.817 195.45 205.486C194.946 205.155 194.355 204.981 193.752 204.983C192.93 204.997 192.146 205.336 191.575 205.926C191.003 206.515 190.689 207.307 190.702 208.128Z" fill="#2B2823"/>
<path d="M190.702 109.936C190.719 110.537 190.914 111.121 191.261 111.613C191.609 112.105 192.094 112.484 192.657 112.702C193.219 112.92 193.833 112.967 194.422 112.838C195.012 112.71 195.55 112.41 195.969 111.977C196.389 111.545 196.671 110.998 196.781 110.406C196.891 109.814 196.823 109.203 196.586 108.65C196.349 108.096 195.954 107.624 195.45 107.294C194.946 106.963 194.355 106.788 193.752 106.791C192.93 106.805 192.146 107.144 191.575 107.733C191.003 108.323 190.689 109.115 190.702 109.936Z" fill="#2B2823"/>
<path d="M192.176 198.935H195.363L194.128 222.499C194.128 222.594 194.09 222.685 194.023 222.752C193.956 222.819 193.865 222.857 193.77 222.857C193.675 222.857 193.583 222.819 193.516 222.752C193.449 222.685 193.411 222.594 193.411 222.499L192.176 198.935Z" fill="#2B2823"/>
<path d="M193.172 21.8345H194.367V123.406H193.172V21.8345Z" fill="#2B2823"/>
<path d="M116.638 435.971C225.495 483.334 352.219 433.669 399.685 325.041C447.152 216.413 397.379 89.9551 288.522 42.5881C248.296 25.0863 205.633 20.8346 165.423 27.9109C218.232 12.0331 276.744 14.0486 331.26 37.7699C453.327 90.8813 509.136 232.682 455.915 354.495C402.693 476.307 260.59 531.997 138.523 478.885C64.4681 446.665 14.8023 381.8 -0.929596 308.561C17.9097 363.616 58.9865 410.886 116.638 435.971Z" fill="#2B2823"/>
</g>
<defs>
<clipPath id="clip0_1_4183">
<rect width="477" height="499" fill="white" transform="matrix(-1 0 0 1 477 0)"/>
</clipPath>
</defs>
</svg>
