<svg width="16" height="10" viewBox="0 0 16 10" fill="none" xmlns="http://www.w3.org/2000/svg">
<g clip-path="url(#clip0_1_6837)">
<path d="M14.0669 3.91679L8.46693 9.53345C8.40026 9.60012 8.32804 9.64745 8.25026 9.67545C8.17248 9.70345 8.08915 9.71723 8.00026 9.71679C7.91137 9.71679 7.82804 9.70279 7.75026 9.67479C7.67248 9.64679 7.60026 9.59968 7.53359 9.53345L1.91693 3.91679C1.76137 3.76123 1.68359 3.56679 1.68359 3.33345C1.68359 3.10012 1.76693 2.90012 1.93359 2.73345C2.10026 2.56679 2.2947 2.48345 2.51693 2.48345C2.73915 2.48345 2.93359 2.56679 3.10026 2.73345L8.00026 7.63345L12.9003 2.73345C13.0558 2.5779 13.2476 2.50012 13.4756 2.50012C13.7036 2.50012 13.9007 2.58345 14.0669 2.75012C14.2336 2.91679 14.3169 3.11123 14.3169 3.33345C14.3169 3.55568 14.2336 3.75012 14.0669 3.91679Z" fill="black"/>
</g>
<defs>
<clipPath id="clip0_1_6837">
<rect width="10" height="16" fill="white" transform="matrix(0 -1 1 0 0 10)"/>
</clipPath>
</defs>
</svg>
