<svg width="36" height="36" viewBox="0 0 36 36" fill="none" xmlns="http://www.w3.org/2000/svg">
<path d="M19.125 19.125H15.75V24.75H19.125C20.925 24.75 22.5 23.5125 22.5 21.9375C22.5 20.3625 20.925 19.125 19.125 19.125Z" fill="#2B2823"/>
<path d="M19.125 11.25H15.75V16.875H19.125C20.925 16.875 22.5 15.6375 22.5 14.0625C22.5 12.4875 20.925 11.25 19.125 11.25Z" fill="#2B2823"/>
<path d="M18 1.125C8.6625 1.125 1.125 8.6625 1.125 18C1.125 27.3375 8.6625 34.875 18 34.875C27.3375 34.875 34.875 27.3375 34.875 18C34.875 8.6625 27.3375 1.125 18 1.125ZM24.75 21.9375C24.75 24.4125 22.8375 26.4375 20.25 26.8875V28.125C20.25 28.6875 19.6875 29.25 19.125 29.25C18.5625 29.25 18 28.6875 18 28.125V27H15.75V28.125C15.75 28.6875 15.3 29.25 14.625 29.25C13.95 29.25 13.5 28.6875 13.5 28.125V27H12.375C11.7 27 11.25 26.4375 11.25 25.875C11.25 25.3125 11.7 24.75 12.375 24.75H13.5V19.125H12.375C11.7 19.125 11.25 18.5625 11.25 18C11.25 17.4375 11.7 16.875 12.375 16.875H13.5V11.25H12.375C11.7 11.25 11.25 10.8 11.25 10.125C11.25 9.45 11.7 9 12.375 9H13.5V7.875C13.5 7.2 13.95 6.75 14.625 6.75C15.3 6.75 15.75 7.2 15.75 7.875V9H18V7.875C18 7.2 18.5625 6.75 19.125 6.75C19.6875 6.75 20.25 7.2 20.25 7.875V9.1125C22.8375 9.5625 24.75 11.5875 24.75 14.0625C24.75 15.6375 23.85 17.1 22.6125 18C23.85 18.9 24.75 20.3625 24.75 21.9375Z" fill="#2B2823"/>
</svg>
