<svg width="24" height="20" viewBox="0 0 24 20" fill="none" xmlns="http://www.w3.org/2000/svg">
<path d="M22.1713 8.34512C21.2389 5.0262 20.1875 3.31133 20.1706 3.28057C20.1106 3.20477 18.6249 1.36259 15.044 0L14.5708 1.33481C16.2744 1.98306 17.483 2.7739 18.1476 3.28488C16.1632 2.6709 13.8025 2.29487 11.7117 2.29487C9.62091 2.29487 7.26022 2.6709 5.27581 3.28488C5.94045 2.77395 7.14905 1.98306 8.8526 1.33481L8.37942 0C4.7986 1.36259 3.31286 3.20477 3.25293 3.28057C3.23596 3.31133 2.18451 5.0262 1.25224 8.34512C0.353731 11.5435 0.012398 16.0556 0 16.2365C0.0800606 16.3662 1.92145 19.6236 6.93979 19.6236L8.2118 17.7151C6.78672 17.3231 5.42784 16.6908 4.18392 15.8329L4.94441 14.6492C6.95118 16.0332 9.29129 16.7647 11.7117 16.7647C14.1322 16.7647 16.4723 16.0332 18.479 14.6492L19.2395 15.8329C17.9957 16.6908 16.6367 17.3231 15.2117 17.7151L16.4837 19.6236C21.502 19.6236 23.3434 16.3662 23.4235 16.2365C23.4111 16.0556 23.0697 11.5435 22.1713 8.34512ZM8.53867 12.0652H7.1662V9.69519H8.53867V12.0652ZM16.2572 12.0652H14.8848V9.69519H16.2572V12.0652Z" fill="#2B2823"/>
</svg>
