<svg width="40" height="40" viewBox="0 0 40 40" fill="none" xmlns="http://www.w3.org/2000/svg">
<mask id="mask0_149_41" style="mask-type:alpha" maskUnits="userSpaceOnUse" x="0" y="0" width="40" height="40">
<rect width="40" height="40" fill="#D9D9D9"/>
</mask>
<g mask="url(#mask0_149_41)">
<path d="M20.988 28.56C23.023 28.227 24.0405 27.1108 24.0405 25.2115C24.0405 24.4962 23.8123 23.935 23.356 23.528C22.912 23.1087 22.32 22.7572 21.58 22.4735L20.988 28.56ZM19.2675 10.541C18.7002 10.6273 18.2192 10.7568 17.8245 10.9295C17.4422 11.1022 17.1277 11.3057 16.881 11.54C16.6467 11.7743 16.474 12.0395 16.363 12.3355C16.252 12.6192 16.1965 12.9213 16.1965 13.242C16.1965 13.9697 16.4308 14.5617 16.8995 15.018C17.3682 15.462 17.9725 15.8382 18.7125 16.1465L19.2675 10.541ZM22.098 17.2565C22.69 17.4292 23.282 17.6203 23.874 17.83C24.466 18.0273 25.0333 18.2617 25.576 18.533C26.131 18.792 26.6428 19.0942 27.1115 19.4395C27.5925 19.7848 28.0057 20.1918 28.351 20.6605C28.7087 21.1292 28.9862 21.6657 29.1835 22.27C29.3808 22.8743 29.4795 23.5712 29.4795 24.3605C29.4795 25.5322 29.2822 26.636 28.8875 27.672C28.4928 28.6957 27.9132 29.6083 27.1485 30.41C26.3838 31.1993 25.4465 31.8468 24.3365 32.3525C23.2265 32.8458 21.9562 33.148 20.5255 33.259L20.3035 35.553C20.2788 35.8983 20.1247 36.2067 19.841 36.478C19.5697 36.7617 19.2182 36.9035 18.7865 36.9035H16.6775L17.0475 33.0925C15.6292 32.8582 14.2725 32.4512 12.9775 31.8715C11.6948 31.2795 10.6095 30.5703 9.7215 29.744L11.4975 27.1725C11.6455 26.9628 11.8428 26.7902 12.0895 26.6545C12.3485 26.5065 12.6198 26.4325 12.9035 26.4325C13.1995 26.4325 13.5017 26.5127 13.81 26.673C14.1183 26.821 14.4513 27.006 14.809 27.228C15.179 27.4377 15.5798 27.6597 16.0115 27.894C16.4555 28.116 16.955 28.301 17.51 28.449L18.1945 21.4745C17.3065 21.2278 16.4185 20.938 15.5305 20.605C14.6548 20.272 13.8655 19.8218 13.1625 19.2545C12.4595 18.6872 11.886 17.9657 11.442 17.09C11.0103 16.2143 10.7945 15.1167 10.7945 13.797C10.7945 12.8227 10.9918 11.873 11.3865 10.948C11.7812 10.023 12.3547 9.1905 13.107 8.4505C13.8717 7.7105 14.809 7.10617 15.919 6.6375C17.029 6.1565 18.2993 5.879 19.73 5.805L19.9335 3.7515C19.9582 3.40617 20.1062 3.09783 20.3775 2.8265C20.6612 2.54283 21.0188 2.401 21.4505 2.401H23.5595L23.208 6.027C24.54 6.27367 25.6808 6.6745 26.6305 7.2295C27.5925 7.7845 28.4065 8.3765 29.0725 9.0055L27.6665 11.059C27.4568 11.3673 27.241 11.5955 27.019 11.7435C26.8093 11.8792 26.5565 11.947 26.2605 11.947C26.0755 11.947 25.8535 11.9038 25.5945 11.8175C25.3478 11.7188 25.0765 11.6078 24.7805 11.4845C24.4845 11.3488 24.1638 11.2132 23.8185 11.0775C23.4855 10.9295 23.1278 10.8 22.7455 10.689L22.098 17.2565Z" fill="#2B2823"/>
</g>
</svg>
