<svg width="27" height="27" viewBox="0 0 27 27" fill="none" xmlns="http://www.w3.org/2000/svg">
<path d="M8.46914 12.2027C8.3111 12.0433 8.22287 11.8276 8.22386 11.6031C8.22484 11.3786 8.31497 11.1637 8.47441 11.0057C8.63385 10.8476 8.84955 10.7594 9.07404 10.7604C9.29854 10.7614 9.51344 10.8515 9.67148 11.0109L12.6562 13.9957V4.21875C12.6562 3.99497 12.7451 3.78036 12.9034 3.62213C13.0616 3.4639 13.2762 3.375 13.5 3.375C13.7238 3.375 13.9384 3.4639 14.0966 3.62213C14.2549 3.78036 14.3438 3.99497 14.3438 4.21875V13.9957L17.3285 11.0109C17.4068 10.932 17.4998 10.8692 17.6023 10.8262C17.7048 10.7832 17.8148 10.7609 17.926 10.7604C18.0371 10.7599 18.1473 10.7813 18.2502 10.8234C18.3531 10.8655 18.4466 10.9274 18.5256 11.0057C18.6045 11.0839 18.6673 11.177 18.7103 11.2795C18.7533 11.382 18.7757 11.4919 18.7761 11.6031C18.7766 11.7143 18.7552 11.8244 18.7131 11.9273C18.6711 12.0302 18.6091 12.1238 18.5309 12.2027L14.1012 16.6324C13.9399 16.7884 13.7243 16.8755 13.5 16.8755C13.2757 16.8755 13.0601 16.7884 12.8988 16.6324L8.46914 12.2027ZM22.7812 15.1875C22.5575 15.1875 22.3429 15.2764 22.1846 15.4346C22.0264 15.5929 21.9375 15.8075 21.9375 16.0312V21.9375H5.0625V16.0312C5.0625 15.8075 4.97361 15.5929 4.81537 15.4346C4.65714 15.2764 4.44253 15.1875 4.21875 15.1875C3.99497 15.1875 3.78036 15.2764 3.62213 15.4346C3.4639 15.5929 3.375 15.8075 3.375 16.0312V21.9375C3.375 22.3851 3.55279 22.8143 3.86926 23.1307C4.18572 23.4472 4.61495 23.625 5.0625 23.625H21.9375C22.3851 23.625 22.8143 23.4472 23.1307 23.1307C23.4472 22.8143 23.625 22.3851 23.625 21.9375V16.0312C23.625 15.8075 23.5361 15.5929 23.3779 15.4346C23.2196 15.2764 23.005 15.1875 22.7812 15.1875Z" fill="#FFF8F2"/>
</svg>
