<svg width="41" height="44" viewBox="0 0 41 44" fill="none" xmlns="http://www.w3.org/2000/svg">
<g clip-path="url(#clip0_1_3976)">
<path d="M22.1571 6.33943C21.1321 5.7586 19.8679 5.7586 18.8429 6.33943L6.88456 12.9848L15.5458 17.7853C16.7929 16.4869 18.5525 15.6669 20.5 15.6669C22.4475 15.6669 24.2071 16.4869 25.4541 17.7853L34.1154 12.9678L22.1571 6.33943ZM17.0833 22.5003C17.0833 20.6211 18.6208 19.0836 20.5 19.0836C22.3791 19.0836 23.9166 20.6211 23.9166 22.5003C23.9166 24.3794 22.3791 25.9169 20.5 25.9169C18.6208 25.9169 17.0833 24.3794 17.0833 22.5003ZM5.12498 15.9061L13.8887 20.7748C13.735 21.3215 13.6666 21.9023 13.6666 22.5003C13.6666 25.6778 15.8362 28.3598 18.7916 29.1115V38.6269L6.88456 32.0157C6.34941 31.7218 5.90348 31.2889 5.59379 30.7628C5.2841 30.2366 5.12214 29.6366 5.12498 29.0261V15.9061ZM22.2083 38.6269V29.1115C25.1637 28.3598 27.3333 25.6778 27.3333 22.5003C27.3333 21.9023 27.265 21.3215 27.1112 20.7748L35.875 15.9061V29.0261C35.875 30.2732 35.2087 31.4178 34.1154 32.0157L22.2083 38.6269Z" fill="#2B2823"/>
</g>
<defs>
<clipPath id="clip0_1_3976">
<rect width="41" height="42.4805" fill="white" transform="translate(0 0.588135)"/>
</clipPath>
</defs>
</svg>
