<svg width="22" height="18" viewBox="0 0 22 18" fill="none" xmlns="http://www.w3.org/2000/svg">
<path d="M21.4278 2.07011C20.6554 2.42118 19.8323 2.65389 18.9742 2.76688C19.857 2.22076 20.5308 1.36259 20.8475 0.328205C20.0245 0.836653 19.1157 1.1958 18.1472 1.39622C17.3657 0.534006 16.2518 0 15.0367 0C12.6791 0 10.7811 1.98268 10.7811 4.41328C10.7811 4.76301 10.8097 5.09928 10.8798 5.41942C7.33951 5.24052 4.20689 3.48247 2.10247 0.804371C1.73507 1.46482 1.51957 2.22076 1.51957 3.03455C1.51957 4.56259 2.27903 5.9171 3.41108 6.7013C2.72692 6.68785 2.05574 6.48205 1.48711 6.15788C1.48711 6.17133 1.48711 6.18881 1.48711 6.2063C1.48711 8.35039 2.96319 10.1313 4.89885 10.5416C4.55222 10.6398 4.17444 10.6868 3.78237 10.6868C3.50975 10.6868 3.23452 10.6707 2.97618 10.6115C3.52792 12.3588 5.09358 13.6434 6.95523 13.6851C5.50642 14.8593 3.66683 15.5669 1.67536 15.5669C1.32613 15.5669 0.991192 15.5507 0.65625 15.5063C2.54257 16.7667 4.77811 17.4863 7.18891 17.4863C15.025 17.4863 19.3091 10.7608 19.3091 4.93114C19.3091 4.7361 19.3026 4.54779 19.2936 4.36082C20.1387 3.73938 20.8488 2.96326 21.4278 2.07011Z" fill="#2B2823"/>
</svg>
