<svg width="248" height="257" viewBox="0 0 248 257" fill="none" xmlns="http://www.w3.org/2000/svg">
<path d="M63.2619 5H146.241L216.482 78.2835V220.738C216.482 238.557 202.039 253 184.22 253H63.2619C45.4425 253 31 238.557 31 220.738V37.2619C31 19.4428 45.4425 5 63.2619 5Z" fill="#2B2823"/>
<path opacity="0.302" fill-rule="evenodd" clip-rule="evenodd" d="M146.14 5V77.6815H216.482L146.14 5Z" fill="white"/>
<path d="M116.693 144.922V162.129H113.174V152.233C113.174 152.004 113.178 151.756 113.186 151.489C113.201 151.221 113.225 150.949 113.256 150.674L108.686 159.519C108.544 159.795 108.352 160.003 108.107 160.145C107.871 160.287 107.6 160.357 107.293 160.357H106.749C106.442 160.357 106.167 160.287 105.923 160.145C105.687 160.003 105.498 159.795 105.356 159.519L100.786 150.65C100.809 150.933 100.829 151.213 100.845 151.489C100.86 151.756 100.868 152.004 100.868 152.233V162.129H97.349V144.922H100.396C100.569 144.922 100.719 144.926 100.845 144.934C100.978 144.942 101.097 144.966 101.199 145.005C101.301 145.044 101.392 145.107 101.471 145.194C101.557 145.273 101.64 145.387 101.719 145.537L106.147 154.264C106.305 154.563 106.454 154.874 106.596 155.197C106.745 155.52 106.887 155.85 107.021 156.189C107.155 155.842 107.293 155.504 107.434 155.173C107.584 154.842 107.741 154.528 107.907 154.228L112.323 145.537C112.402 145.387 112.481 145.273 112.56 145.194C112.646 145.107 112.741 145.044 112.843 145.005C112.945 144.966 113.06 144.942 113.186 144.934C113.319 144.926 113.473 144.922 113.646 144.922H116.693ZM135.635 153.52C135.635 154.764 135.418 155.913 134.985 156.968C134.56 158.015 133.958 158.925 133.178 159.696C132.399 160.46 131.458 161.058 130.356 161.491C129.261 161.916 128.045 162.129 126.707 162.129H120.022V144.922H126.707C128.045 144.922 129.261 145.139 130.356 145.572C131.458 146.005 132.399 146.603 133.178 147.367C133.958 148.131 134.56 149.04 134.985 150.095C135.418 151.142 135.635 152.284 135.635 153.52ZM131.548 153.52C131.548 152.669 131.438 151.902 131.218 151.217C130.997 150.532 130.678 149.953 130.261 149.481C129.852 149.001 129.348 148.635 128.75 148.383C128.151 148.123 127.47 147.993 126.707 147.993H124.038V159.058H126.707C127.47 159.058 128.151 158.932 128.75 158.681C129.348 158.421 129.852 158.055 130.261 157.582C130.678 157.102 130.997 156.519 131.218 155.834C131.438 155.149 131.548 154.378 131.548 153.52ZM149.587 157.677C149.682 157.677 149.776 157.696 149.871 157.736C149.965 157.767 150.056 157.826 150.142 157.913L151.725 159.578C151.032 160.483 150.162 161.168 149.115 161.633C148.076 162.09 146.844 162.318 145.419 162.318C144.112 162.318 142.939 162.097 141.899 161.657C140.868 161.208 139.99 160.594 139.266 159.814C138.549 159.027 137.998 158.098 137.612 157.027C137.227 155.949 137.034 154.779 137.034 153.52C137.034 152.236 137.242 151.059 137.66 149.989C138.077 148.91 138.664 147.981 139.419 147.202C140.175 146.422 141.081 145.816 142.136 145.383C143.19 144.95 144.352 144.733 145.619 144.733C146.265 144.733 146.871 144.793 147.438 144.911C148.013 145.021 148.548 145.178 149.044 145.383C149.54 145.58 149.997 145.82 150.414 146.103C150.831 146.387 151.201 146.694 151.524 147.025L150.178 148.831C150.091 148.942 149.989 149.044 149.871 149.138C149.753 149.225 149.587 149.268 149.375 149.268C149.233 149.268 149.099 149.237 148.973 149.174C148.847 149.111 148.713 149.036 148.572 148.949C148.43 148.855 148.273 148.757 148.099 148.654C147.934 148.544 147.733 148.446 147.497 148.359C147.269 148.265 146.997 148.186 146.682 148.123C146.375 148.06 146.013 148.028 145.596 148.028C144.934 148.028 144.328 148.15 143.777 148.394C143.234 148.638 142.761 148.997 142.36 149.469C141.966 149.934 141.659 150.508 141.439 151.193C141.226 151.87 141.12 152.646 141.12 153.52C141.12 154.402 141.238 155.185 141.474 155.87C141.718 156.555 142.045 157.133 142.454 157.606C142.872 158.07 143.356 158.425 143.907 158.669C144.458 158.913 145.049 159.035 145.678 159.035C146.041 159.035 146.371 159.019 146.67 158.988C146.97 158.948 147.249 158.889 147.509 158.81C147.769 158.724 148.013 158.614 148.241 158.48C148.469 158.338 148.702 158.161 148.938 157.948C149.032 157.87 149.135 157.807 149.245 157.759C149.355 157.704 149.469 157.677 149.587 157.677ZM82.0423 178.882L78.2396 191.129H75.2636C75.1062 191.129 74.9723 191.082 74.8621 190.987C74.7519 190.893 74.6653 190.735 74.6023 190.515L72.8545 184.409C72.7679 184.134 72.6892 183.862 72.6183 183.594C72.5553 183.327 72.4963 183.055 72.4412 182.78C72.386 183.055 72.3231 183.331 72.2522 183.606C72.1892 183.882 72.1144 184.157 72.0278 184.433L70.2564 190.515C70.1383 190.924 69.8785 191.129 69.477 191.129H66.6427L62.84 178.882H65.7688C66.0286 178.882 66.2451 178.945 66.4183 179.071C66.5994 179.189 66.7214 179.339 66.7844 179.52L68.0126 185.012C68.1149 185.429 68.2055 185.834 68.2842 186.228C68.3629 186.614 68.4338 187.003 68.4968 187.397C68.5991 187.003 68.7054 186.614 68.8156 186.228C68.9337 185.834 69.0597 185.429 69.1935 185.012L70.7288 179.508C70.7918 179.327 70.9098 179.178 71.0831 179.06C71.2563 178.934 71.461 178.871 71.6972 178.871H73.3269C73.5867 178.871 73.8032 178.934 73.9764 179.06C74.1575 179.178 74.2795 179.327 74.3425 179.508L75.8069 185.012C75.925 185.429 76.0391 185.834 76.1493 186.228C76.2674 186.622 76.3737 187.019 76.4682 187.421C76.5312 187.027 76.606 186.633 76.6926 186.24C76.7792 185.846 76.8776 185.437 76.9878 185.012L78.2869 179.52C78.3498 179.339 78.4679 179.189 78.6412 179.071C78.8144 178.945 79.0191 178.882 79.2552 178.882H82.0423ZM87.0108 179.957C87.4517 179.579 87.928 179.276 88.4397 179.048C88.9594 178.812 89.5774 178.693 90.2938 178.693C90.963 178.693 91.5535 178.812 92.0653 179.048C92.5849 179.276 93.0218 179.599 93.3761 180.016C93.7304 180.426 93.9981 180.918 94.1792 181.492C94.3602 182.059 94.4508 182.677 94.4508 183.346V191.129H90.7898V183.346C90.7898 182.748 90.6521 182.284 90.3765 181.953C90.1009 181.614 89.6955 181.445 89.1601 181.445C88.7586 181.445 88.3807 181.532 88.0264 181.705C87.68 181.87 87.3414 182.099 87.0108 182.39V191.129H83.3498V173.45H87.0108V179.957ZM100.564 178.882V191.129H96.9027V178.882H100.564ZM100.942 175.529C100.942 175.82 100.883 176.095 100.764 176.355C100.646 176.607 100.485 176.832 100.28 177.028C100.076 177.217 99.8354 177.371 99.5599 177.489C99.2922 177.599 99.0048 177.654 98.6978 177.654C98.3986 177.654 98.1191 177.599 97.8593 177.489C97.5995 177.371 97.3672 177.217 97.1625 177.028C96.9657 176.832 96.8083 176.607 96.6902 176.355C96.5799 176.095 96.5248 175.82 96.5248 175.529C96.5248 175.229 96.5799 174.95 96.6902 174.69C96.8083 174.43 96.9657 174.202 97.1625 174.005C97.3672 173.808 97.5995 173.655 97.8593 173.545C98.1191 173.434 98.3986 173.379 98.6978 173.379C99.0048 173.379 99.2922 173.434 99.5599 173.545C99.8354 173.655 100.076 173.808 100.28 174.005C100.485 174.202 100.646 174.43 100.764 174.69C100.883 174.95 100.942 175.229 100.942 175.529ZM107.498 191.318C106.916 191.318 106.4 191.235 105.951 191.07C105.51 190.897 105.136 190.657 104.829 190.349C104.53 190.035 104.302 189.657 104.144 189.216C103.987 188.775 103.908 188.283 103.908 187.74V181.41H102.869C102.68 181.41 102.519 181.351 102.385 181.233C102.251 181.107 102.184 180.925 102.184 180.689V179.26L104.133 178.882L104.853 175.895C104.947 175.517 105.215 175.328 105.656 175.328H107.569V178.906H110.604V181.41H107.569V187.492C107.569 187.775 107.636 188.011 107.77 188.2C107.912 188.381 108.112 188.472 108.372 188.472C108.506 188.472 108.616 188.46 108.703 188.436C108.797 188.405 108.876 188.373 108.939 188.342C109.01 188.302 109.073 188.271 109.128 188.247C109.191 188.216 109.262 188.2 109.341 188.2C109.451 188.2 109.537 188.228 109.6 188.283C109.671 188.33 109.742 188.409 109.813 188.519L110.923 190.255C110.451 190.609 109.919 190.877 109.329 191.058C108.738 191.231 108.128 191.318 107.498 191.318ZM119.683 183.535C119.683 183.244 119.644 182.961 119.565 182.685C119.495 182.41 119.373 182.165 119.199 181.953C119.034 181.732 118.814 181.555 118.538 181.421C118.262 181.288 117.928 181.221 117.534 181.221C116.841 181.221 116.298 181.421 115.904 181.823C115.511 182.217 115.251 182.787 115.125 183.535H119.683ZM115.078 185.661C115.196 186.685 115.507 187.429 116.011 187.893C116.515 188.35 117.164 188.578 117.959 188.578C118.384 188.578 118.751 188.527 119.058 188.425C119.365 188.322 119.636 188.208 119.872 188.082C120.117 187.956 120.337 187.842 120.534 187.74C120.738 187.637 120.951 187.586 121.171 187.586C121.463 187.586 121.683 187.692 121.833 187.905L122.896 189.216C122.518 189.649 122.108 190.003 121.667 190.279C121.234 190.546 120.786 190.759 120.321 190.916C119.865 191.066 119.404 191.168 118.939 191.223C118.483 191.286 118.046 191.318 117.629 191.318C116.77 191.318 115.963 191.18 115.208 190.905C114.46 190.621 113.802 190.204 113.235 189.653C112.677 189.102 112.232 188.417 111.901 187.598C111.578 186.779 111.417 185.826 111.417 184.74C111.417 183.921 111.555 183.146 111.83 182.413C112.114 181.681 112.515 181.04 113.035 180.489C113.562 179.937 114.196 179.5 114.936 179.178C115.684 178.855 116.526 178.693 117.463 178.693C118.274 178.693 119.014 178.819 119.683 179.071C120.361 179.323 120.939 179.689 121.419 180.17C121.908 180.65 122.286 181.24 122.553 181.941C122.829 182.634 122.967 183.421 122.967 184.303C122.967 184.579 122.955 184.803 122.931 184.976C122.907 185.149 122.864 185.287 122.801 185.389C122.738 185.492 122.652 185.563 122.541 185.602C122.439 185.641 122.305 185.661 122.14 185.661H115.078ZM128.459 187.799C128.735 188.098 129.034 188.31 129.357 188.436C129.68 188.562 130.018 188.625 130.373 188.625C130.711 188.625 131.022 188.558 131.306 188.425C131.589 188.291 131.833 188.078 132.038 187.787C132.25 187.488 132.416 187.102 132.534 186.629C132.652 186.157 132.711 185.582 132.711 184.905C132.711 184.26 132.664 183.716 132.569 183.276C132.475 182.835 132.341 182.48 132.168 182.213C132.002 181.937 131.802 181.74 131.565 181.622C131.329 181.504 131.065 181.445 130.774 181.445C130.239 181.445 129.798 181.544 129.451 181.74C129.105 181.937 128.774 182.225 128.459 182.602V187.799ZM128.235 180.394C128.715 179.882 129.259 179.465 129.865 179.142C130.479 178.812 131.207 178.646 132.05 178.646C132.687 178.646 133.278 178.788 133.821 179.071C134.364 179.355 134.833 179.764 135.226 180.3C135.62 180.835 135.927 181.492 136.147 182.272C136.376 183.043 136.49 183.921 136.49 184.905C136.49 185.826 136.36 186.677 136.1 187.456C135.848 188.236 135.49 188.913 135.026 189.487C134.569 190.062 134.018 190.511 133.372 190.834C132.734 191.156 132.026 191.318 131.246 191.318C130.609 191.318 130.073 191.227 129.64 191.046C129.207 190.865 128.814 190.621 128.459 190.314V195.014H124.798V178.882H127.066C127.523 178.882 127.822 179.087 127.963 179.497L128.235 180.394ZM144.702 186.145C143.97 186.177 143.368 186.24 142.895 186.334C142.423 186.429 142.049 186.547 141.773 186.689C141.498 186.83 141.305 186.992 141.195 187.173C141.092 187.354 141.041 187.551 141.041 187.763C141.041 188.18 141.155 188.476 141.384 188.649C141.612 188.814 141.947 188.897 142.387 188.897C142.86 188.897 143.273 188.814 143.627 188.649C143.982 188.484 144.34 188.216 144.702 187.846V186.145ZM138.112 180.583C138.853 179.93 139.671 179.445 140.569 179.13C141.474 178.808 142.443 178.646 143.474 178.646C144.214 178.646 144.879 178.768 145.47 179.012C146.068 179.249 146.572 179.583 146.981 180.016C147.399 180.441 147.718 180.949 147.938 181.54C148.158 182.13 148.269 182.776 148.269 183.476V191.129H146.592C146.245 191.129 145.982 191.082 145.8 190.987C145.627 190.893 145.482 190.696 145.363 190.397L145.104 189.724C144.797 189.983 144.501 190.212 144.218 190.409C143.935 190.605 143.639 190.775 143.332 190.916C143.033 191.05 142.71 191.149 142.364 191.212C142.025 191.282 141.647 191.318 141.23 191.318C140.671 191.318 140.163 191.247 139.707 191.105C139.25 190.956 138.86 190.739 138.538 190.456C138.223 190.172 137.979 189.822 137.805 189.405C137.632 188.98 137.546 188.491 137.546 187.94C137.546 187.499 137.656 187.055 137.876 186.606C138.097 186.149 138.479 185.736 139.022 185.366C139.565 184.988 140.297 184.673 141.218 184.421C142.139 184.169 143.301 184.027 144.702 183.996V183.476C144.702 182.76 144.553 182.244 144.253 181.929C143.962 181.606 143.545 181.445 143.002 181.445C142.569 181.445 142.214 181.492 141.939 181.587C141.663 181.681 141.415 181.788 141.195 181.906C140.982 182.024 140.774 182.13 140.569 182.225C140.364 182.319 140.12 182.366 139.837 182.366C139.585 182.366 139.372 182.303 139.199 182.177C139.026 182.051 138.884 181.902 138.774 181.729L138.112 180.583ZM154.27 187.799C154.545 188.098 154.844 188.31 155.167 188.436C155.49 188.562 155.829 188.625 156.183 188.625C156.521 188.625 156.832 188.558 157.116 188.425C157.399 188.291 157.643 188.078 157.848 187.787C158.061 187.488 158.226 187.102 158.344 186.629C158.462 186.157 158.521 185.582 158.521 184.905C158.521 184.26 158.474 183.716 158.379 183.276C158.285 182.835 158.151 182.48 157.978 182.213C157.813 181.937 157.612 181.74 157.376 181.622C157.139 181.504 156.876 181.445 156.584 181.445C156.049 181.445 155.608 181.544 155.262 181.74C154.915 181.937 154.585 182.225 154.27 182.602V187.799ZM154.045 180.394C154.526 179.882 155.069 179.465 155.675 179.142C156.289 178.812 157.017 178.646 157.86 178.646C158.498 178.646 159.088 178.788 159.631 179.071C160.174 179.355 160.643 179.764 161.037 180.3C161.43 180.835 161.737 181.492 161.958 182.272C162.186 183.043 162.3 183.921 162.3 184.905C162.3 185.826 162.17 186.677 161.91 187.456C161.659 188.236 161.3 188.913 160.836 189.487C160.379 190.062 159.828 190.511 159.182 190.834C158.545 191.156 157.836 191.318 157.057 191.318C156.419 191.318 155.884 191.227 155.451 191.046C155.018 190.865 154.624 190.621 154.27 190.314V195.014H150.609V178.882H152.876C153.333 178.882 153.632 179.087 153.774 179.497L154.045 180.394ZM171.811 183.535C171.811 183.244 171.772 182.961 171.693 182.685C171.623 182.41 171.5 182.165 171.327 181.953C171.162 181.732 170.941 181.555 170.666 181.421C170.39 181.288 170.056 181.221 169.662 181.221C168.969 181.221 168.426 181.421 168.032 181.823C167.639 182.217 167.379 182.787 167.253 183.535H171.811ZM167.206 185.661C167.324 186.685 167.635 187.429 168.139 187.893C168.643 188.35 169.292 188.578 170.087 188.578C170.512 188.578 170.879 188.527 171.186 188.425C171.493 188.322 171.764 188.208 172 188.082C172.244 187.956 172.465 187.842 172.662 187.74C172.866 187.637 173.079 187.586 173.299 187.586C173.591 187.586 173.811 187.692 173.961 187.905L175.024 189.216C174.646 189.649 174.236 190.003 173.795 190.279C173.362 190.546 172.914 190.759 172.449 190.916C171.993 191.066 171.532 191.168 171.067 191.223C170.611 191.286 170.174 191.318 169.757 191.318C168.898 191.318 168.091 191.18 167.336 190.905C166.588 190.621 165.93 190.204 165.363 189.653C164.804 189.102 164.36 188.417 164.029 187.598C163.706 186.779 163.545 185.826 163.545 184.74C163.545 183.921 163.683 183.146 163.958 182.413C164.242 181.681 164.643 181.04 165.163 180.489C165.69 179.937 166.324 179.5 167.064 179.178C167.812 178.855 168.654 178.693 169.591 178.693C170.402 178.693 171.142 178.819 171.811 179.071C172.489 179.323 173.067 179.689 173.547 180.17C174.036 180.65 174.413 181.24 174.681 181.941C174.957 182.634 175.095 183.421 175.095 184.303C175.095 184.579 175.083 184.803 175.059 184.976C175.035 185.149 174.992 185.287 174.929 185.389C174.866 185.492 174.78 185.563 174.669 185.602C174.567 185.641 174.433 185.661 174.268 185.661H167.206ZM180.351 180.772C180.729 180.111 181.162 179.591 181.65 179.213C182.146 178.835 182.713 178.646 183.351 178.646C183.902 178.646 184.351 178.776 184.697 179.036L184.461 181.729C184.422 181.902 184.355 182.02 184.26 182.083C184.174 182.146 184.052 182.177 183.894 182.177C183.831 182.177 183.748 182.173 183.646 182.165C183.544 182.158 183.437 182.15 183.327 182.142C183.217 182.126 183.103 182.114 182.985 182.106C182.875 182.091 182.772 182.083 182.678 182.083C182.142 182.083 181.713 182.225 181.39 182.508C181.076 182.791 180.808 183.185 180.587 183.689V191.129H176.926V178.882H179.099C179.28 178.882 179.43 178.898 179.548 178.93C179.674 178.961 179.776 179.012 179.855 179.083C179.942 179.146 180.005 179.233 180.044 179.343C180.091 179.453 180.131 179.587 180.162 179.745L180.351 180.772Z" fill="white"/>
<path d="M123.346 90.8637C123.275 90.8614 123.202 90.8683 123.127 90.8874C120.993 91.4362 119.474 93.3871 119.472 95.6093C119.472 97.8768 121.034 99.7833 123.135 100.328V101.528C121.784 103.633 118.755 105.04 115.922 106.815C114.476 107.721 113.082 108.74 112.038 110.073C110.994 111.406 110.316 113.07 110.316 115.142C110.316 117.894 111.107 119.889 111.985 121.242H135.5C136.379 119.889 137.174 117.894 137.174 115.142C137.174 113.07 136.492 111.406 135.448 110.073C134.404 108.74 133.015 107.721 131.569 106.815C128.739 105.042 125.709 103.637 124.356 101.535V100.488C126.563 100.486 128.489 98.9988 129.06 96.8777C129.367 96.2808 128.626 95.697 128.118 96.1362C127.573 96.5826 126.89 96.8304 126.185 96.8312C124.493 96.8312 123.135 95.4686 123.135 93.7759C123.116 93.0507 123.426 92.3616 123.824 91.8471C124.17 91.3996 123.839 90.882 123.346 90.8637ZM112.145 122.462C111.141 122.462 110.316 123.293 110.316 124.297V126.734C110.316 126.895 110.379 127.051 110.494 127.166C110.608 127.281 110.763 127.346 110.924 127.346H136.561C136.642 127.347 136.722 127.331 136.796 127.3C136.871 127.27 136.938 127.224 136.995 127.168C137.052 127.111 137.097 127.043 137.128 126.968C137.159 126.894 137.174 126.814 137.174 126.734V124.297C137.174 123.293 136.344 122.462 135.341 122.462H112.145Z" fill="white"/>
</svg>
