<svg width="23" height="13" viewBox="0 0 23 13" fill="none" xmlns="http://www.w3.org/2000/svg">
<path d="M20.2445 11.7551C20.6615 12.1724 21.3379 12.1725 21.7551 11.7555C22.1724 11.3385 22.1725 10.6621 21.7555 10.2449L20.2445 11.7551ZM11.14 1.13494L11.8955 0.379821C11.6952 0.179382 11.4234 0.0667686 11.14 0.0667686C10.8566 0.0667686 10.5848 0.179382 10.3845 0.379821L11.14 1.13494ZM0.524498 10.2449C0.10746 10.6621 0.107635 11.3385 0.524887 11.7555C0.942139 12.1725 1.61847 12.1724 2.0355 11.7551L0.524498 10.2449ZM21.7555 10.2449L11.8955 0.379821L10.3845 1.89005L20.2445 11.7551L21.7555 10.2449ZM10.3845 0.379821L0.524498 10.2449L2.0355 11.7551L11.8955 1.89005L10.3845 0.379821Z" fill="white"/>
</svg>
