<svg width="13" height="13" viewBox="0 0 13 13" fill="none" xmlns="http://www.w3.org/2000/svg">
<path d="M12.3515 6.37729L6.19192 0.850886C6.14464 0.808752 6.08431 0.785156 6.02073 0.785156H4.57785C4.4572 0.785156 4.40176 0.940212 4.49307 1.02111L10.2026 6.14471H0.66168C0.589944 6.14471 0.53125 6.20538 0.53125 6.27954V7.29077C0.53125 7.36493 0.589944 7.42561 0.66168 7.42561H10.201L4.49144 12.5492C4.40013 12.6318 4.45557 12.7852 4.57622 12.7852H6.06801C6.09899 12.7852 6.12996 12.7734 6.15279 12.7514L12.3515 7.19302C12.4079 7.14228 12.4532 7.07962 12.4842 7.00926C12.5152 6.9389 12.5312 6.86248 12.5312 6.78516C12.5312 6.70784 12.5152 6.63142 12.4842 6.56105C12.4532 6.49069 12.4079 6.42803 12.3515 6.37729V6.37729Z" fill="white"/>
</svg>
