<svg width="14" height="8" viewBox="0 0 14 8" fill="none" xmlns="http://www.w3.org/2000/svg">
<path d="M1.45962 0.540381C1.20578 0.28654 0.794221 0.28654 0.540381 0.540381C0.28654 0.794221 0.28654 1.20578 0.540381 1.45962L1.45962 0.540381ZM7 7L6.54038 7.45962C6.79422 7.71346 7.20578 7.71346 7.45962 7.45962L7 7ZM13.4596 1.45962C13.7135 1.20578 13.7135 0.794221 13.4596 0.540381C13.2058 0.28654 12.7942 0.28654 12.5404 0.540381L13.4596 1.45962ZM0.540381 1.45962L6.54038 7.45962L7.45962 6.54038L1.45962 0.540381L0.540381 1.45962ZM7.45962 7.45962L13.4596 1.45962L12.5404 0.540381L6.54038 6.54038L7.45962 7.45962Z" fill="white"/>
</svg>
