<svg width="8" height="12" viewBox="0 0 8 12" fill="none" xmlns="http://www.w3.org/2000/svg">
<path d="M0.662138 0.868577C0.458578 0.681981 0.444827 0.365697 0.631423 0.162138C0.818019 -0.0414218 1.1343 -0.0551733 1.33786 0.131423L0.662138 0.868577ZM7 6L7.33786 5.63142C7.44118 5.72613 7.5 5.85985 7.5 6C7.5 6.14015 7.44118 6.27387 7.33786 6.36858L7 6ZM1.33786 11.8686C1.1343 12.0552 0.818019 12.0414 0.631423 11.8379C0.444827 11.6343 0.458578 11.318 0.662138 11.1314L1.33786 11.8686ZM1.33786 0.131423L7.33786 5.63142L6.66214 6.36858L0.662138 0.868577L1.33786 0.131423ZM7.33786 6.36858L1.33786 11.8686L0.662138 11.1314L6.66214 5.63142L7.33786 6.36858Z" fill="white"/>
</svg>
