<svg width="27" height="27" viewBox="0 0 27 27" fill="none" xmlns="http://www.w3.org/2000/svg">
<path d="M13.5 1.6875C6.97676 1.6875 1.6875 6.97676 1.6875 13.5C1.6875 20.0232 6.97676 25.3125 13.5 25.3125C20.0232 25.3125 25.3125 20.0232 25.3125 13.5C25.3125 6.97676 20.0232 1.6875 13.5 1.6875ZM18.1538 17.1308L17.3997 18.1591C17.3833 18.1815 17.3626 18.2004 17.3389 18.2148C17.3152 18.2292 17.2888 18.2387 17.2614 18.2429C17.2339 18.247 17.2059 18.2457 17.179 18.2391C17.1521 18.2324 17.1267 18.2204 17.1044 18.2039L12.7433 15.024C12.7161 15.0045 12.694 14.9788 12.6789 14.9489C12.6637 14.9191 12.656 14.8861 12.6562 14.8526V7.59375C12.6562 7.47773 12.7512 7.38281 12.8672 7.38281H14.1354C14.2515 7.38281 14.3464 7.47773 14.3464 7.59375V14.1196L18.1063 16.8381C18.2013 16.904 18.2224 17.0358 18.1538 17.1308Z" fill="#D9A319"/>
</svg>
