<svg width="20" height="18" viewBox="0 0 20 18" fill="none" xmlns="http://www.w3.org/2000/svg">
<path d="M10.408 0.14779C10.2897 0.0520139 10.144 0 9.994 0C9.844 0 9.6983 0.0520139 9.58 0.14779L0 7.90526L0.828667 8.99359L2 8.04511V16.6154C2.0007 16.9824 2.14141 17.3341 2.3913 17.5936C2.6412 17.8532 2.97993 17.9993 3.33333 18H16.6667C17.0201 17.9993 17.3588 17.8532 17.6087 17.5936C17.8586 17.3341 17.9993 16.9824 18 16.6154V8.05134L19.1713 8.99982L20 7.91149L10.408 0.14779ZM11.3333 16.6154H8.66667V11.0768H11.3333V16.6154ZM12.6667 16.6154V11.0768C12.6663 10.7097 12.5257 10.3577 12.2758 10.0981C12.0258 9.8385 11.6868 9.69251 11.3333 9.69214H8.66667C8.31315 9.69251 7.97422 9.8385 7.72425 10.0981C7.47428 10.3577 7.33369 10.7097 7.33333 11.0768V16.6154H3.33333V6.96578L10 1.57259L16.6667 6.9727V16.6154H12.6667Z" fill="white"/>
</svg>
