<svg width="131" height="38" viewBox="0 0 131 38" fill="none" xmlns="http://www.w3.org/2000/svg">
<path d="M46.18 8H44.2V29H49.9V27.02H46.18V8ZM58.023 26.21C58.023 26.72 57.603 27.14 57.093 27.14H54.933C54.423 27.14 54.003 26.72 54.003 26.21V15.62C54.003 15.11 54.423 14.69 54.933 14.69H57.093C57.603 14.69 58.023 15.11 58.023 15.62V26.21ZM59.883 15.62C59.883 14.06 58.623 12.8 57.093 12.8H54.933C53.373 12.8 52.143 14.09 52.143 15.62V26.21C52.143 27.74 53.373 29 54.933 29H57.093C58.653 29 59.883 27.74 59.883 26.21V15.62ZM61.5367 12.8L64.4767 29H67.6867L70.6267 12.8H68.7367L66.2467 27.14H65.9167L63.4267 12.8H61.5367ZM74.144 15.62C74.144 15.14 74.534 14.69 75.074 14.69H76.904C77.384 14.69 77.834 15.08 77.834 15.62V19.4H74.144V15.62ZM79.694 21.26V15.59C79.694 14.09 78.464 12.8 76.904 12.8H75.074C73.574 12.8 72.284 14.03 72.284 15.59V26.18C72.284 27.65 73.514 29 75.074 29H76.904C78.404 29 79.694 27.74 79.694 26.18V23.66H77.834V26.21C77.834 26.69 77.444 27.14 76.904 27.14H75.074C74.594 27.14 74.144 26.75 74.144 26.21V21.26H79.694ZM95.5961 8H93.6161V16.76H89.9261V8H87.9461V29H89.9261V18.59H93.6161V29H95.5961V8ZM104.025 26.21C104.025 26.72 103.605 27.14 103.095 27.14H100.935C100.425 27.14 100.005 26.72 100.005 26.21V15.62C100.005 15.11 100.425 14.69 100.935 14.69H103.095C103.605 14.69 104.025 15.11 104.025 15.62V26.21ZM105.885 15.62C105.885 14.06 104.625 12.8 103.095 12.8H100.935C99.3749 12.8 98.1449 14.09 98.1449 15.62V26.21C98.1449 27.74 99.3749 29 100.935 29H103.095C104.655 29 105.885 27.74 105.885 26.21V15.62ZM108.289 12.8V29H110.149V15.5L111.919 14.63C112.099 14.54 112.279 14.51 112.399 14.51C112.909 14.51 113.209 14.81 113.209 15.32V29H115.069V15.5L116.869 14.63C117.049 14.54 117.229 14.51 117.379 14.51C117.889 14.51 118.159 14.81 118.159 15.29V29H120.019V15.29C120.019 13.76 118.909 12.65 117.349 12.65C116.929 12.65 116.509 12.71 116.089 12.92L114.559 13.64C114.079 12.98 113.329 12.65 112.399 12.65C111.979 12.65 111.529 12.71 111.139 12.92L110.149 13.49L109.849 12.8H108.289ZM124.277 15.62C124.277 15.14 124.667 14.69 125.207 14.69H127.037C127.517 14.69 127.967 15.08 127.967 15.62V19.4H124.277V15.62ZM129.827 21.26V15.59C129.827 14.09 128.597 12.8 127.037 12.8H125.207C123.707 12.8 122.417 14.03 122.417 15.59V26.18C122.417 27.65 123.647 29 125.207 29H127.037C128.537 29 129.827 27.74 129.827 26.18V23.66H127.967V26.21C127.967 26.69 127.577 27.14 127.037 27.14H125.207C124.727 27.14 124.277 26.75 124.277 26.21V21.26H129.827Z" fill="white"/>
<path d="M13.048 11.6935C11.6298 11.6935 10.9867 9.52376 10.8281 8.28389V8.12891H20.2746L19.8661 9.83373C19.7076 10.2987 18.9148 11.6935 17.8048 11.6935C16.8901 11.6935 15.9021 10.9703 15.4264 10.2987C15.215 10.6603 14.475 11.6935 13.048 11.6935Z" fill="white"/>
<path fill-rule="evenodd" clip-rule="evenodd" d="M1 35.4064V1H20.8202C24.3086 1.36163 31.5707 3.63472 32.7124 9.83407C34.0432 17.0608 30.4095 20.9178 28.8847 22.5364C28.7745 22.6534 28.6753 22.7587 28.5897 22.8527C28.1758 23.3079 28.9776 24.7368 29.9813 26.5255C32.0532 30.2181 34.9855 35.4439 29.8582 36.8012C23.7695 38.4131 19.3932 29.827 17.9661 25.3324H9.87946V35.4064H1ZM8.29384 8.12925V17.7382C11.9936 14.7419 20.5031 12.3758 24.9428 26.8823C25.0485 24.5575 24.372 19.0401 20.8202 15.5685C21.7187 15.5685 23.5792 15.7854 23.8329 16.6533C23.9915 16.8083 25.8942 15.1035 25.5771 11.8489C25.3234 9.24513 22.3001 8.28423 20.8202 8.12925H11.148H8.29384Z" fill="#D9A319" stroke="black" stroke-width="0.317124"/>
</svg>
