<svg width="15" height="18" viewBox="0 0 15 18" fill="none" xmlns="http://www.w3.org/2000/svg">
<path d="M7.49998 18C6.14671 16.9228 4.89234 15.742 3.74999 14.4697C2.03571 12.5591 9.4167e-07 9.71362 9.4167e-07 7.00214C-0.000742519 5.61738 0.438759 4.26352 1.26288 3.11193C2.08701 1.96033 3.25871 1.06276 4.6297 0.532804C6.0007 0.00284616 7.50935 -0.135673 8.96474 0.134775C10.4201 0.405224 11.7568 1.07248 12.8057 2.05211C13.504 2.70084 14.0575 3.47237 14.4341 4.32204C14.8108 5.17171 15.0031 6.08265 15 7.00214C15 9.71362 12.9643 12.5591 11.25 14.4697C10.1076 15.742 8.85325 16.9228 7.49998 18ZM7.49998 4.00273C6.6475 4.00273 5.82994 4.31874 5.22714 4.88124C4.62435 5.44374 4.2857 6.20665 4.2857 7.00214C4.2857 7.79764 4.62435 8.56055 5.22714 9.12305C5.82994 9.68555 6.6475 10.0016 7.49998 10.0016C8.35246 10.0016 9.17003 9.68555 9.77282 9.12305C10.3756 8.56055 10.7143 7.79764 10.7143 7.00214C10.7143 6.20665 10.3756 5.44374 9.77282 4.88124C9.17003 4.31874 8.35246 4.00273 7.49998 4.00273Z" fill="white"/>
</svg>
