<svg width="20" height="20" viewBox="0 0 20 20" fill="none" xmlns="http://www.w3.org/2000/svg">
<path d="M18.3984 19.6005C18.7301 19.9327 19.2683 19.9332 19.6005 19.6016C19.9327 19.2699 19.9332 18.7317 19.6016 18.3995L18.3984 19.6005ZM15.3517 14.142C15.02 13.8098 14.4818 13.8093 14.1496 14.141C13.8174 14.4726 13.8169 15.0108 14.1485 15.343L15.3517 14.142ZM1 9.05263H0.15H1ZM9.05263 1V0.15V1ZM19.6016 18.3995L15.3517 14.142L14.1485 15.343L18.3984 19.6005L19.6016 18.3995ZM16.2553 9.05263C16.2553 10.9629 15.4964 12.7949 14.1457 14.1457L15.3477 15.3477C17.0173 13.6782 17.9553 11.4138 17.9553 9.05263H16.2553ZM14.1457 14.1457C12.7949 15.4964 10.9629 16.2553 9.05263 16.2553V17.9553C11.4138 17.9553 13.6782 17.0173 15.3477 15.3477L14.1457 14.1457ZM9.05263 16.2553C7.14237 16.2553 5.31036 15.4964 3.9596 14.1457L2.75752 15.3477C4.42709 17.0173 6.69151 17.9553 9.05263 17.9553V16.2553ZM3.9596 14.1457C2.60885 12.7949 1.85 10.9629 1.85 9.05263H0.15C0.15 11.4138 1.08795 13.6782 2.75752 15.3477L3.9596 14.1457ZM1.85 9.05263C1.85 7.14237 2.60885 5.31036 3.9596 3.9596L2.75752 2.75752C1.08795 4.42709 0.15 6.69151 0.15 9.05263H1.85ZM3.9596 3.9596C5.31036 2.60885 7.14237 1.85 9.05263 1.85V0.15C6.69151 0.15 4.42709 1.08795 2.75752 2.75752L3.9596 3.9596ZM9.05263 1.85C10.9629 1.85 12.7949 2.60885 14.1457 3.9596L15.3477 2.75752C13.6782 1.08795 11.4138 0.15 9.05263 0.15V1.85ZM14.1457 3.9596C15.4964 5.31036 16.2553 7.14237 16.2553 9.05263H17.9553C17.9553 6.69151 17.0173 4.42709 15.3477 2.75752L14.1457 3.9596Z" fill="white"/>
</svg>
