<svg width="18" height="18" viewBox="0 0 18 18" fill="none" xmlns="http://www.w3.org/2000/svg">
<path d="M16.2981 0.994019C16.7908 0.994019 17.1624 1.50679 16.9637 2.46054L14.5523 15.9464C14.3837 16.9052 13.8954 17.136 13.2212 16.6899L7.46929 11.6494C7.44698 11.6304 7.42881 11.6054 7.41628 11.5764C7.40374 11.5474 7.3972 11.5153 7.3972 11.4827C7.3972 11.4501 7.40374 11.418 7.41628 11.3891C7.42881 11.3601 7.44698 11.3351 7.46929 11.3161L14.1115 4.19883C14.414 3.88091 14.0466 3.72708 13.6491 4.01423L5.31285 10.2546C5.28757 10.2742 5.25887 10.2867 5.22892 10.2911C5.19897 10.2956 5.16856 10.2918 5.13999 10.2803L1.60067 8.9522C0.814158 8.68043 0.814158 8.03947 1.77786 7.5831L15.9395 1.1017C16.0518 1.03777 16.1737 1.00116 16.2981 0.994019Z" stroke="#D9A319" stroke-linecap="round" stroke-linejoin="round"/>
</svg>
