<svg width="20" height="12" viewBox="0 0 20 12" fill="none" xmlns="http://www.w3.org/2000/svg">
<path d="M13.5714 12H1.42857C1.04969 12 0.686328 11.8736 0.418419 11.6485C0.15051 11.4235 0 11.1183 0 10.8V1.2C0 0.88174 0.15051 0.576515 0.418419 0.351472C0.686328 0.126428 1.04969 0 1.42857 0H13.5714C13.9503 0 14.3137 0.126428 14.5816 0.351472C14.8495 0.576515 15 0.88174 15 1.2V3.636L18.8714 1.314C18.978 1.25024 19.1034 1.21231 19.234 1.20434C19.3645 1.19638 19.4951 1.21869 19.6116 1.26884C19.728 1.31899 19.8259 1.39505 19.8944 1.48872C19.9629 1.58239 19.9994 1.69007 20 1.8V10.2C19.9994 10.3099 19.9629 10.4176 19.8944 10.5113C19.8259 10.6049 19.728 10.681 19.6116 10.7312C19.4951 10.7813 19.3645 10.8036 19.234 10.7957C19.1034 10.7877 18.978 10.7498 18.8714 10.686L15 8.364V10.8C15 11.1183 14.8495 11.4235 14.5816 11.6485C14.3137 11.8736 13.9503 12 13.5714 12Z" fill="white" fill-opacity="0.6"/>
</svg>
