<svg width="27" height="21" viewBox="0 0 27 21" fill="none" xmlns="http://www.w3.org/2000/svg">
<path d="M0 0.106934H27V2.602H0V0.106934ZM0 17.5724H27V20.0675H0V17.5724ZM22.8543 13.7225L22.6407 12.6372H20.2488L19.8683 13.7138L17.9513 13.7175C19.1847 10.716 20.099 8.49037 20.6955 7.04572C20.8514 6.66772 21.1287 6.4756 21.5362 6.4781C21.8479 6.48059 22.3572 6.48059 23.0641 6.4781L24.5455 13.72L22.8543 13.7238V13.7225ZM20.7875 11.1501H22.329L21.7522 8.43049L20.7875 11.1501ZM8.43382 6.47685L10.3606 6.47934L7.38205 13.7225L5.43068 13.7213C4.77164 11.1389 4.28686 9.22267 3.97759 7.97639C3.88309 7.59339 3.69532 7.32642 3.33205 7.20042C3.00927 7.08814 2.47173 6.91349 1.71818 6.6777V6.4781H4.79741C5.33005 6.4781 5.64055 6.74008 5.74118 7.27652L6.50209 11.3797L8.43382 6.47685ZM13.0079 6.47934L11.486 13.7213L9.65127 13.7188L11.1731 6.47685L13.0079 6.47934ZM16.729 6.34461C17.2763 6.34461 17.9685 6.51677 18.3661 6.6777L18.0446 8.17973C17.685 8.03252 17.0935 7.83417 16.5964 7.8429C15.8723 7.85413 15.4256 8.16227 15.4256 8.45793C15.4256 8.93699 16.2012 9.17901 17.0014 9.70422C17.9133 10.303 18.0323 10.8395 18.0213 11.4233C18.009 12.6347 17.0014 13.8298 14.8745 13.8298C13.9038 13.8149 13.554 13.7325 12.7636 13.4481L13.0975 11.8812C13.9025 12.223 14.245 12.3315 14.9322 12.3315C15.5643 12.3315 16.1055 12.0733 16.1104 11.6229C16.1129 11.3023 15.9202 11.1439 15.212 10.7472C14.5039 10.3517 13.5123 9.80402 13.5245 8.7012C13.5405 7.29149 14.8586 6.34461 16.7277 6.34461H16.729Z" fill="#D9A319"/>
</svg>
