<svg width="18" height="18" viewBox="0 0 18 18" fill="none" xmlns="http://www.w3.org/2000/svg">
<path d="M9.00885 0.994019C7.61968 0.995503 6.2548 1.35669 5.04843 2.04207C3.84206 2.72746 2.83571 3.71343 2.12834 4.90307C1.42097 6.0927 1.03693 7.44503 1.01397 8.82709C0.991015 10.2092 1.32994 11.5734 1.99741 12.7856L1.01172 16.9086L5.15535 15.9278C6.22408 16.5112 7.41269 16.8437 8.63036 16.9C9.84802 16.9563 11.0625 16.7349 12.181 16.2527C13.2995 15.7705 14.2924 15.0403 15.0839 14.1178C15.8753 13.1953 16.4444 12.105 16.7475 10.9302C17.0507 9.75539 17.0799 8.52718 16.833 7.33942C16.586 6.15166 16.0695 5.03578 15.3228 4.07706C14.5761 3.11834 13.619 2.34216 12.5247 1.80781C11.4304 1.27347 10.2278 0.995115 9.00885 0.994019ZM5.01028 4.60996H7.18997C7.28862 4.60996 7.38322 4.64895 7.45298 4.71836C7.52274 4.78777 7.56193 4.88191 7.56193 4.98007C7.54972 5.47364 7.63307 5.96494 7.80742 6.42718C7.8825 6.58192 7.89901 6.7584 7.85392 6.92427C7.80883 7.09013 7.70516 7.23427 7.56193 7.33025L6.79941 8.07046C7.13751 8.72741 7.57958 9.32599 8.10871 9.84327C8.62436 10.3783 9.2235 10.827 9.88295 11.172L10.6269 10.4132C10.9988 10.0431 11.1699 10.0431 11.5345 10.169C11.999 10.3424 12.4928 10.4254 12.9888 10.4132C13.086 10.4177 13.178 10.4582 13.2468 10.5266C13.3156 10.5951 13.3562 10.6866 13.3608 10.7833V12.9522C13.3562 13.0489 13.3156 13.1404 13.2468 13.2089C13.178 13.2773 13.086 13.3178 12.9888 13.3223C10.8008 13.2274 8.72677 12.3249 7.17137 10.7907C5.62713 9.24472 4.71965 7.18005 4.62717 5.00227C4.62805 4.9004 4.66836 4.80279 4.73971 4.72972C4.81106 4.65666 4.90797 4.61377 5.01028 4.60996Z" stroke="#D9A319" stroke-linecap="round" stroke-linejoin="round"/>
</svg>
