<svg width="30" height="30" viewBox="0 0 30 30" fill="none" xmlns="http://www.w3.org/2000/svg">
<g opacity="0.2" clip-path="url(#clip0_36_979)">
<rect width="30" height="30" fill="white"/>
<path d="M9.21787 8.13477H7.1522C6.35817 8.13477 5.94922 8.27228 5.94922 8.92998V9.68036C5.94922 10.341 6.35817 10.4756 7.1522 10.4756H7.62982C7.92534 10.4756 8.05967 10.634 8.05967 11.0884V20.9061C8.05967 21.7013 8.19698 22.1108 8.8537 22.1108H9.62385C10.2835 22.1108 10.4179 21.7013 10.4179 20.9061V8.93297C10.4179 8.27228 10.0119 8.13477 9.21787 8.13477Z" fill="black"/>
<path d="M23.3731 1.31839C22.4866 0.45441 21.3761 0 20.0358 0H9.96119C8.6209 0 7.48657 0.45441 6.62687 1.31839L1.29254 6.63677C0.453731 7.47683 0 8.58894 0 9.81764V20.0658C0 21.4738 0.477612 22.565 1.42985 23.4978L6.48955 28.565C7.48657 29.5635 8.6 30.0209 10.0299 29.997H19.9701C21.3552 29.997 22.4896 29.5874 23.5104 28.565L28.5701 23.4978C29.5015 22.565 30 21.4529 30 20.0658V9.81764C30 8.58894 29.5463 7.47683 28.7075 6.63677L23.3731 1.31839ZM28.0239 13.3184C28.0239 13.6592 27.8657 13.8416 27.5463 13.8416H26.0269V12.7743C26.0269 11.9791 25.9134 11.5695 25.2328 11.5695H24.5522C23.8716 11.5695 23.7582 11.9791 23.7582 12.7743V13.8416H22.6925C21.8985 13.8416 21.4896 13.9552 21.4896 14.6368V15.3632C21.4896 16.0448 21.8985 16.1584 22.6925 16.1584H23.7582V17.2257C23.7582 18.0209 23.8716 18.4305 24.5522 18.4305H25.2328C25.9134 18.4305 26.0269 18.0209 26.0269 17.2257V16.1584H27.5463C27.8418 16.1584 28 16.3169 28.0239 16.6129V20.0658C28.0239 20.9058 27.7731 21.5426 27.1851 22.1106L22.1254 27.1809C21.5343 27.7728 20.8776 28.0448 20.0597 28.0448H9.93731C9.1194 28.0448 8.46269 27.7728 7.87164 27.1809L2.81493 22.1106C2.22388 21.5187 1.95224 20.9058 1.97612 20.0658V10.0448C1.97612 9.20478 2.24776 8.47534 2.86269 7.86248L8.00896 2.63677C8.53134 2.1136 9.18806 1.95516 9.93731 1.95516H20.0597C20.809 1.95516 21.4657 2.1136 21.9881 2.63677L27.1403 7.86248C27.7313 8.47534 28.0239 9.20478 28.0239 10.0448V13.3184Z" fill="black"/>
<path d="M19.0838 14.8642C20.3554 13.9315 20.3763 12.9778 20.3763 12.2065V11.4352C20.239 8.86723 19.3793 7.88965 16.4062 7.88965C13.433 7.88965 12.5703 8.86723 12.436 11.4352V12.2065C12.436 12.9778 12.4599 13.9345 13.7285 14.8642C12.2091 15.4562 12.0957 16.7506 12.0957 18.4547C12.0957 20.9778 12.9793 22.2275 16.4062 22.2962C19.833 22.2275 20.7166 20.9778 20.7166 18.4547C20.7166 16.7506 20.6032 15.4532 19.0838 14.8642ZM16.4062 9.97635C17.6539 9.97635 18.1524 10.4308 18.1524 11.9524C18.1524 13.4293 17.6539 13.9285 16.4062 13.9285C15.1584 13.9285 14.6599 13.4293 14.6599 11.9524C14.6599 10.4308 15.1584 9.97635 16.4062 9.97635ZM16.4062 20.1348C14.9554 20.1348 14.433 19.5668 14.433 18.1348C14.433 16.7028 14.9554 16.0451 16.4062 16.0451C17.8599 16.0451 18.3793 16.7028 18.3793 18.1348C18.3793 19.5668 17.8599 20.1348 16.4062 20.1348Z" fill="black"/>
</g>
<defs>
<clipPath id="clip0_36_979">
<rect width="30" height="30" fill="white"/>
</clipPath>
</defs>
</svg>
