<svg width="20" height="20" viewBox="0 0 20 20" fill="none" xmlns="http://www.w3.org/2000/svg">
<path d="M7 17V15.5H9.25V12.438C8.16667 12.2433 7.27067 11.7293 6.562 10.896C5.854 10.0627 5.5 9.09733 5.5 8V3H14.5V8C14.5 9.09733 14.146 10.0627 13.438 10.896C12.7293 11.7293 11.8333 12.2433 10.75 12.438V15.5H13V17H7ZM10 11C10.736 11 11.375 10.764 11.917 10.292C12.4583 9.81933 12.8053 9.222 12.958 8.5H7.042C7.19467 9.222 7.54167 9.81933 8.083 10.292C8.625 10.764 9.264 11 10 11ZM7 7H13V4.5H7V7Z" fill="#EB5757"/>
</svg>
