<svg width="24" height="24" viewBox="0 0 24 24" fill="none" xmlns="http://www.w3.org/2000/svg">
<path d="M15.3503 16.2503L16.6247 14.9747L12.8999 11.2499V5.9999H11.0999V11.9999L15.3503 16.2503ZM11.9999 21.5999C10.6831 21.5999 9.4415 21.3499 8.2751 20.8499C7.1087 20.3499 6.0879 19.6623 5.2127 18.7871C4.3375 17.9119 3.6499 16.8911 3.1499 15.7247C2.6499 14.5583 2.3999 13.3167 2.3999 11.9999C2.3999 10.6663 2.6499 9.4163 3.1499 8.2499C3.6499 7.0835 4.3375 6.0667 5.2127 5.1995C6.0879 4.3331 7.1087 3.6499 8.2751 3.1499C9.4415 2.6499 10.6831 2.3999 11.9999 2.3999C13.3335 2.3999 14.5835 2.6499 15.7499 3.1499C16.9163 3.6499 17.9331 4.3331 18.8003 5.1995C19.6667 6.0667 20.3499 7.0835 20.8499 8.2499C21.3499 9.4163 21.5999 10.6663 21.5999 11.9999C21.5999 13.3167 21.3499 14.5583 20.8499 15.7247C20.3499 16.8911 19.6667 17.9119 18.8003 18.7871C17.9331 19.6623 16.9163 20.3499 15.7499 20.8499C14.5835 21.3499 13.3335 21.5999 11.9999 21.5999ZM11.9999 19.7999C14.1663 19.7999 16.0079 19.0375 17.5247 17.5127C19.0415 15.9879 19.7999 14.1503 19.7999 11.9999C19.7999 9.8335 19.0415 7.9919 17.5247 6.4751C16.0079 4.9583 14.1663 4.1999 11.9999 4.1999C9.8495 4.1999 8.0119 4.9583 6.4871 6.4751C4.9623 7.9919 4.1999 9.8335 4.1999 11.9999C4.1999 14.1503 4.9623 15.9879 6.4871 17.5127C8.0119 19.0375 9.8495 19.7999 11.9999 19.7999Z" fill="#2F80ED"/>
</svg>
