<svg width="20" height="20" viewBox="0 0 20 20" fill="none" xmlns="http://www.w3.org/2000/svg">
<rect x="3" y="4" width="5" height="4" fill="#EB5757"/>
<rect x="3" y="6" width="5" height="4" fill="#EB5757"/>
<rect x="4" y="8" width="5" height="3" fill="#EB5757"/>
<rect x="5" y="9" width="5" height="3" fill="#EB5757"/>
<rect x="6" y="10" width="5" height="3" fill="#EB5757"/>
<rect x="7" y="11" width="5" height="3" fill="#EB5757"/>
<rect x="8" y="11" width="5" height="3" fill="#EB5757"/>
<rect x="8" y="15" width="5" height="4" transform="rotate(-90 8 15)" fill="#EB5757"/>
<rect x="5" y="9" width="5" height="4" transform="rotate(-90 5 9)" fill="#EB5757"/>
<rect x="9" y="10" width="5" height="4" transform="rotate(-90 9 10)" fill="#EB5757"/>
<rect x="11" y="9" width="5" height="4" transform="rotate(-90 11 9)" fill="#EB5757"/>
<rect x="13" y="9" width="5" height="3" transform="rotate(-90 13 9)" fill="#EB5757"/>
<rect x="14" y="10" width="5" height="3" transform="rotate(-90 14 10)" fill="#EB5757"/>
<rect x="10" y="13" width="4" height="4" transform="rotate(-90 10 13)" fill="#EB5757"/>
<rect x="12" y="11" width="4" height="4" transform="rotate(-90 12 11)" fill="#EB5757"/>
<rect x="11" y="12" width="4" height="4" transform="rotate(-90 11 12)" fill="#EB5757"/>
<path d="M10 17L8.958 16.062C7.56933 14.826 6.42367 13.767 5.521 12.885C4.61833 12.003 3.90633 11.2183 3.385 10.531C2.86433 9.84367 2.50333 9.21533 2.302 8.646C2.10067 8.07667 2 7.49333 2 6.896C2 5.66 2.42367 4.61833 3.271 3.771C4.11833 2.92367 5.16 2.5 6.396 2.5C7.07667 2.5 7.73633 2.646 8.375 2.938C9.01367 3.22933 9.55533 3.639 10 4.167C10.4447 3.639 10.9863 3.22933 11.625 2.938C12.2637 2.646 12.9233 2.5 13.604 2.5C14.84 2.5 15.8817 2.92367 16.729 3.771C17.5763 4.61833 18 5.66 18 6.896C18 7.49333 17.9027 8.06967 17.708 8.625C17.514 9.18033 17.1563 9.79833 16.635 10.479C16.1143 11.1597 15.3993 11.948 14.49 12.844C13.58 13.74 12.4167 14.8267 11 16.104L10 17ZM10 14.979C11.292 13.8263 12.3547 12.8437 13.188 12.031C14.0213 11.2183 14.6843 10.51 15.177 9.906C15.6703 9.302 16.014 8.764 16.208 8.292C16.4027 7.81933 16.5 7.354 16.5 6.896C16.5 6.07667 16.2223 5.389 15.667 4.833C15.111 4.27767 14.4233 4 13.604 4C13.118 4 12.6633 4.10067 12.24 4.302C11.816 4.50333 11.4513 4.78467 11.146 5.146L10.417 6H9.583L8.854 5.146C8.54867 4.78467 8.17733 4.50333 7.74 4.302C7.302 4.10067 6.854 4 6.396 4C5.57667 4 4.889 4.27767 4.333 4.833C3.77767 5.389 3.5 6.07667 3.5 6.896C3.5 7.354 3.59033 7.80867 3.771 8.26C3.95167 8.712 4.28133 9.23633 4.76 9.833C5.23933 10.4303 5.89933 11.1387 6.74 11.958C7.58 12.778 8.66667 13.785 10 14.979Z" fill="#EB5757"/>
</svg>
