<svg width="151" height="72" viewBox="0 0 151 72" fill="none" xmlns="http://www.w3.org/2000/svg">
<g filter="url(#filter0_f_37_1011)">
<path d="M22.492 49V23.296H25.732V46.12H36.964V49H22.492ZM66.6958 36.112C66.6958 38.104 66.4438 39.916 65.9398 41.548C65.4358 43.156 64.6798 44.548 63.6718 45.724C62.6878 46.9 61.4518 47.8 59.9638 48.424C58.4998 49.048 56.7958 49.36 54.8518 49.36C52.8358 49.36 51.0838 49.048 49.5958 48.424C48.1078 47.776 46.8718 46.876 45.8878 45.724C44.9038 44.548 44.1718 43.144 43.6918 41.512C43.2118 39.88 42.9718 38.068 42.9718 36.076C42.9718 33.436 43.4038 31.132 44.2678 29.164C45.1318 27.196 46.4398 25.66 48.1918 24.556C49.9678 23.452 52.1998 22.9 54.8878 22.9C57.4558 22.9 59.6158 23.452 61.3678 24.556C63.1198 25.636 64.4398 27.172 65.3278 29.164C66.2398 31.132 66.6958 33.448 66.6958 36.112ZM46.3918 36.112C46.3918 38.272 46.6918 40.132 47.2918 41.692C47.8918 43.252 48.8158 44.452 50.0638 45.292C51.3358 46.132 52.9318 46.552 54.8518 46.552C56.7958 46.552 58.3798 46.132 59.6038 45.292C60.8518 44.452 61.7758 43.252 62.3758 41.692C62.9758 40.132 63.2758 38.272 63.2758 36.112C63.2758 32.872 62.6038 30.34 61.2598 28.516C59.9158 26.668 57.7918 25.744 54.8878 25.744C52.9438 25.744 51.3358 26.164 50.0638 27.004C48.8158 27.82 47.8918 29.008 47.2918 30.568C46.6918 32.104 46.3918 33.952 46.3918 36.112ZM87.1528 35.428H96.0448V48.028C94.6528 48.484 93.2488 48.82 91.8328 49.036C90.4168 49.252 88.8088 49.36 87.0088 49.36C84.3448 49.36 82.1008 48.832 80.2768 47.776C78.4528 46.696 77.0608 45.172 76.1008 43.204C75.1648 41.212 74.6968 38.86 74.6968 36.148C74.6968 33.46 75.2248 31.132 76.2808 29.164C77.3368 27.196 78.8488 25.672 80.8168 24.592C82.8088 23.488 85.2088 22.936 88.0168 22.936C89.4568 22.936 90.8128 23.068 92.0848 23.332C93.3808 23.596 94.5808 23.968 95.6848 24.448L94.4608 27.256C93.5488 26.848 92.5168 26.5 91.3648 26.212C90.2368 25.924 89.0608 25.78 87.8368 25.78C85.7968 25.78 84.0448 26.2 82.5808 27.04C81.1168 27.88 80.0008 29.08 79.2328 30.64C78.4648 32.176 78.0808 34.012 78.0808 36.148C78.0808 38.188 78.4048 40 79.0528 41.584C79.7248 43.144 80.7688 44.368 82.1848 45.256C83.6008 46.12 85.4608 46.552 87.7648 46.552C88.5328 46.552 89.2048 46.528 89.7808 46.48C90.3808 46.408 90.9208 46.324 91.4008 46.228C91.9048 46.132 92.3728 46.036 92.8048 45.94V38.308H87.1528V35.428ZM128.212 36.112C128.212 38.104 127.96 39.916 127.456 41.548C126.952 43.156 126.196 44.548 125.188 45.724C124.204 46.9 122.968 47.8 121.48 48.424C120.016 49.048 118.312 49.36 116.368 49.36C114.352 49.36 112.6 49.048 111.112 48.424C109.624 47.776 108.388 46.876 107.404 45.724C106.42 44.548 105.688 43.144 105.208 41.512C104.728 39.88 104.488 38.068 104.488 36.076C104.488 33.436 104.92 31.132 105.784 29.164C106.648 27.196 107.956 25.66 109.708 24.556C111.484 23.452 113.716 22.9 116.404 22.9C118.972 22.9 121.132 23.452 122.884 24.556C124.636 25.636 125.956 27.172 126.844 29.164C127.756 31.132 128.212 33.448 128.212 36.112ZM107.908 36.112C107.908 38.272 108.208 40.132 108.808 41.692C109.408 43.252 110.332 44.452 111.58 45.292C112.852 46.132 114.448 46.552 116.368 46.552C118.312 46.552 119.896 46.132 121.12 45.292C122.368 44.452 123.292 43.252 123.892 41.692C124.492 40.132 124.792 38.272 124.792 36.112C124.792 32.872 124.12 30.34 122.776 28.516C121.432 26.668 119.308 25.744 116.404 25.744C114.46 25.744 112.852 26.164 111.58 27.004C110.332 27.82 109.408 29.008 108.808 30.568C108.208 32.104 107.908 33.952 107.908 36.112Z" fill="#66B2FF"/>
</g>
<path d="M21.772 49V23.296H28.72V43.384H38.62V49H21.772ZM69.67 36.112C69.67 38.104 69.43 39.916 68.95 41.548C68.47 43.156 67.726 44.548 66.718 45.724C65.71 46.9 64.414 47.8 62.83 48.424C61.27 49.048 59.386 49.36 57.178 49.36C55.018 49.36 53.146 49.048 51.562 48.424C50.002 47.8 48.706 46.9 47.674 45.724C46.666 44.548 45.91 43.156 45.406 41.548C44.926 39.916 44.686 38.092 44.686 36.076C44.686 33.412 45.13 31.096 46.018 29.128C46.906 27.136 48.274 25.6 50.122 24.52C51.97 23.44 54.334 22.9 57.214 22.9C60.142 22.9 62.518 23.452 64.342 24.556C66.19 25.636 67.534 27.172 68.374 29.164C69.238 31.132 69.67 33.448 69.67 36.112ZM51.994 36.112C51.994 37.648 52.162 38.98 52.498 40.108C52.858 41.212 53.422 42.064 54.19 42.664C54.958 43.264 55.954 43.564 57.178 43.564C58.45 43.564 59.458 43.264 60.202 42.664C60.97 42.064 61.522 41.212 61.858 40.108C62.194 38.98 62.362 37.648 62.362 36.112C62.362 33.784 61.978 31.948 61.21 30.604C60.442 29.26 59.11 28.588 57.214 28.588C55.966 28.588 54.958 28.9 54.19 29.524C53.422 30.124 52.858 30.988 52.498 32.116C52.162 33.22 51.994 34.552 51.994 36.112ZM88.2415 33.952H99.3295V47.812C98.0095 48.268 96.4855 48.64 94.7575 48.928C93.0535 49.216 91.2655 49.36 89.3935 49.36C86.9215 49.36 84.7495 48.88 82.8775 47.92C81.0295 46.96 79.5775 45.496 78.5215 43.528C77.4895 41.56 76.9735 39.076 76.9735 36.076C76.9735 33.388 77.4895 31.06 78.5215 29.092C79.5535 27.124 81.0655 25.612 83.0575 24.556C85.0735 23.476 87.5455 22.936 90.4735 22.936C92.0815 22.936 93.6055 23.092 95.0455 23.404C96.4855 23.692 97.7335 24.076 98.7895 24.556L96.5935 29.992C95.6815 29.536 94.7215 29.2 93.7135 28.984C92.7055 28.744 91.6375 28.624 90.5095 28.624C88.9735 28.624 87.7375 28.972 86.8015 29.668C85.8655 30.364 85.1815 31.288 84.7495 32.44C84.3415 33.592 84.1375 34.864 84.1375 36.256C84.1375 37.84 84.3655 39.184 84.8215 40.288C85.2775 41.392 85.9375 42.232 86.8015 42.808C87.6655 43.36 88.7215 43.636 89.9695 43.636C90.2575 43.636 90.5815 43.624 90.9415 43.6C91.3015 43.576 91.6495 43.54 91.9855 43.492C92.3455 43.444 92.6215 43.396 92.8135 43.348V39.316H88.2415V33.952ZM132.206 36.112C132.206 38.104 131.966 39.916 131.486 41.548C131.006 43.156 130.262 44.548 129.254 45.724C128.246 46.9 126.95 47.8 125.366 48.424C123.806 49.048 121.922 49.36 119.714 49.36C117.554 49.36 115.682 49.048 114.098 48.424C112.538 47.8 111.242 46.9 110.21 45.724C109.202 44.548 108.446 43.156 107.942 41.548C107.462 39.916 107.222 38.092 107.222 36.076C107.222 33.412 107.666 31.096 108.554 29.128C109.442 27.136 110.81 25.6 112.658 24.52C114.506 23.44 116.87 22.9 119.75 22.9C122.678 22.9 125.054 23.452 126.878 24.556C128.726 25.636 130.07 27.172 130.91 29.164C131.774 31.132 132.206 33.448 132.206 36.112ZM114.53 36.112C114.53 37.648 114.698 38.98 115.034 40.108C115.394 41.212 115.958 42.064 116.726 42.664C117.494 43.264 118.49 43.564 119.714 43.564C120.986 43.564 121.994 43.264 122.738 42.664C123.506 42.064 124.058 41.212 124.394 40.108C124.73 38.98 124.898 37.648 124.898 36.112C124.898 33.784 124.514 31.948 123.746 30.604C122.978 29.26 121.646 28.588 119.75 28.588C118.502 28.588 117.494 28.9 116.726 29.524C115.958 30.124 115.394 30.988 115.034 32.116C114.698 33.22 114.53 34.552 114.53 36.112Z" fill="white"/>
<path d="M21.772 49H20.772V50H21.772V49ZM21.772 23.296V22.296H20.772V23.296H21.772ZM28.72 23.296H29.72V22.296H28.72V23.296ZM28.72 43.384H27.72V44.384H28.72V43.384ZM38.62 43.384H39.62V42.384H38.62V43.384ZM38.62 49V50H39.62V49H38.62ZM22.772 49V23.296H20.772V49H22.772ZM21.772 24.296H28.72V22.296H21.772V24.296ZM27.72 23.296V43.384H29.72V23.296H27.72ZM28.72 44.384H38.62V42.384H28.72V44.384ZM37.62 43.384V49H39.62V43.384H37.62ZM38.62 48H21.772V50H38.62V48ZM68.95 41.548L69.9082 41.834L69.9094 41.8302L68.95 41.548ZM66.718 45.724L65.9587 45.0732L65.9587 45.0732L66.718 45.724ZM62.83 48.424L62.4635 47.4936L62.4586 47.4955L62.83 48.424ZM51.562 48.424L51.1906 49.3525L51.1955 49.3544L51.562 48.424ZM47.674 45.724L46.9147 46.3748L46.9224 46.3836L47.674 45.724ZM45.406 41.548L44.4466 41.8302L44.4491 41.8386L44.4518 41.8471L45.406 41.548ZM46.018 29.128L46.9295 29.5393L46.9314 29.5352L46.018 29.128ZM50.122 24.52L50.6266 25.3834L50.6266 25.3834L50.122 24.52ZM64.342 24.556L63.8242 25.4115L63.8308 25.4155L63.8374 25.4194L64.342 24.556ZM68.374 29.164L67.4526 29.5526L67.4554 29.5593L67.4584 29.566L68.374 29.164ZM52.498 40.108L51.5396 40.3935L51.5433 40.4058L51.5473 40.418L52.498 40.108ZM54.19 42.664L54.8056 41.876L54.8056 41.876L54.19 42.664ZM60.202 42.664L59.5864 41.876L59.5803 41.8807L59.5742 41.8856L60.202 42.664ZM61.858 40.108L62.8147 40.3992L62.8164 40.3935L61.858 40.108ZM61.21 30.604L62.0782 30.1079L62.0782 30.1079L61.21 30.604ZM54.19 29.524L54.8056 30.312L54.8132 30.3061L54.8206 30.3001L54.19 29.524ZM52.498 32.116L51.5453 31.8119L51.5413 31.8248L52.498 32.116ZM68.67 36.112C68.67 38.0244 68.4395 39.7395 67.9906 41.2658L69.9094 41.8302C70.4205 40.0925 70.67 38.1836 70.67 36.112H68.67ZM67.9918 41.262C67.5485 42.7471 66.8682 44.0121 65.9587 45.0732L67.4773 46.3748C68.5838 45.0839 69.3916 43.5649 69.9082 41.834L67.9918 41.262ZM65.9587 45.0732C65.0671 46.1134 63.9111 46.9233 62.4635 47.4936L63.1965 49.3544C64.9169 48.6767 66.3529 47.6866 67.4773 46.3748L65.9587 45.0732ZM62.4586 47.4955C61.0474 48.06 59.2967 48.36 57.178 48.36V50.36C59.4753 50.36 61.4926 50.036 63.2014 49.3525L62.4586 47.4955ZM57.178 48.36C55.1111 48.36 53.3691 48.0611 51.9285 47.4936L51.1955 49.3544C52.9229 50.0349 54.9249 50.36 57.178 50.36V48.36ZM51.9334 47.4955C50.5085 46.9256 49.3462 46.1135 48.4256 45.0644L46.9224 46.3836C48.0658 47.6865 49.4955 48.6744 51.1906 49.3525L51.9334 47.4955ZM48.4333 45.0732C47.5209 44.0088 46.8273 42.7392 46.3602 41.2489L44.4518 41.8471C44.9927 43.5728 45.8111 45.0872 46.9147 46.3748L48.4333 45.0732ZM46.3654 41.2658C45.9168 39.7406 45.686 38.0136 45.686 36.076H43.686C43.686 38.1704 43.9352 40.0914 44.4466 41.8302L46.3654 41.2658ZM45.686 36.076C45.686 33.5215 46.1118 31.3515 46.9295 29.5393L45.1065 28.7167C44.1482 30.8405 43.686 33.3025 43.686 36.076H45.686ZM46.9314 29.5352C47.7359 27.7304 48.9628 26.3557 50.6266 25.3834L49.6174 23.6566C47.5852 24.8443 46.0761 26.5416 45.1046 28.7208L46.9314 29.5352ZM50.6266 25.3834C52.2774 24.4186 54.4522 23.9 57.214 23.9V21.9C54.2158 21.9 51.6626 22.4614 49.6174 23.6566L50.6266 25.3834ZM57.214 23.9C60.0249 23.9 62.2042 24.431 63.8242 25.4115L64.8598 23.7005C62.8318 22.473 60.2591 21.9 57.214 21.9V23.9ZM63.8374 25.4194C65.4968 26.3891 66.6957 27.7576 67.4526 29.5526L69.2954 28.7754C68.3723 26.5864 66.8832 24.8829 64.8466 23.6926L63.8374 25.4194ZM67.4584 29.566C68.2551 31.3808 68.67 33.5542 68.67 36.112H70.67C70.67 33.3418 70.2209 30.8832 69.2896 28.762L67.4584 29.566ZM50.994 36.112C50.994 37.717 51.1691 39.1496 51.5396 40.3935L53.4564 39.8225C53.1549 38.8104 52.994 37.579 52.994 36.112H50.994ZM51.5473 40.418C51.9569 41.6743 52.6216 42.7077 53.5744 43.452L54.8056 41.876C54.2224 41.4203 53.7591 40.7497 53.4487 39.798L51.5473 40.418ZM53.5744 43.452C54.5591 44.2213 55.789 44.564 57.178 44.564V42.564C56.119 42.564 55.3569 42.3067 54.8056 41.876L53.5744 43.452ZM57.178 44.564C58.6026 44.564 59.8568 44.2271 60.8298 43.4424L59.5742 41.8856C59.0592 42.3009 58.2974 42.564 57.178 42.564V44.564ZM60.8176 43.452C61.7758 42.7035 62.4301 41.6628 62.8147 40.3992L60.9013 39.8168C60.6139 40.7612 60.1642 41.4245 59.5864 41.876L60.8176 43.452ZM62.8164 40.3935C63.1869 39.1496 63.362 37.717 63.362 36.112H61.362C61.362 37.579 61.2011 38.8104 60.8996 39.8225L62.8164 40.3935ZM63.362 36.112C63.362 33.691 62.9654 31.6605 62.0782 30.1079L60.3418 31.1001C60.9906 32.2355 61.362 33.877 61.362 36.112H63.362ZM62.0782 30.1079C61.0897 28.3779 59.374 27.588 57.214 27.588V29.588C58.846 29.588 59.7943 30.1421 60.3418 31.1001L62.0782 30.1079ZM57.214 27.588C55.7977 27.588 54.5481 27.9446 53.5594 28.7479L54.8206 30.3001C55.3679 29.8554 56.1343 29.588 57.214 29.588V27.588ZM53.5744 28.736C52.6166 29.4842 51.9532 30.5341 51.5453 31.812L53.4507 32.42C53.7628 31.4419 54.2274 30.7638 54.8056 30.312L53.5744 28.736ZM51.5413 31.8248C51.1685 33.0498 50.994 34.4856 50.994 36.112H52.994C52.994 34.6184 53.1555 33.3902 53.4547 32.4072L51.5413 31.8248ZM88.2415 33.952V32.952H87.2415V33.952H88.2415ZM99.3295 33.952H100.33V32.952H99.3295V33.952ZM99.3295 47.812L99.656 48.7572L100.33 48.5245V47.812H99.3295ZM94.7575 48.928L94.5931 47.9416L94.5909 47.942L94.7575 48.928ZM82.8775 47.92L82.4165 48.8074L82.4212 48.8098L82.8775 47.92ZM78.5215 43.528L77.6358 43.9924L77.6403 44.0008L78.5215 43.528ZM78.5215 29.092L77.6359 28.6276L77.6359 28.6276L78.5215 29.092ZM83.0575 24.556L83.5259 25.4395L83.5297 25.4375L83.0575 24.556ZM95.0455 23.404L94.8337 24.3813L94.8416 24.383L94.8494 24.3846L95.0455 23.404ZM98.7895 24.556L99.7167 24.9306L100.076 24.0421L99.2033 23.6456L98.7895 24.556ZM96.5935 29.992L96.1463 30.8864L97.115 31.3708L97.5207 30.3666L96.5935 29.992ZM93.7135 28.984L93.4819 29.9568L93.4929 29.9594L93.504 29.9618L93.7135 28.984ZM86.8015 29.668L87.3982 30.4705L87.3982 30.4705L86.8015 29.668ZM84.7495 32.44L83.8132 32.0889L83.8099 32.0975L83.8069 32.1062L84.7495 32.44ZM84.8215 40.288L85.7458 39.9062L85.7458 39.9062L84.8215 40.288ZM86.8015 42.808L86.2468 43.64L86.2549 43.6455L86.2631 43.6507L86.8015 42.808ZM90.9415 43.6L90.875 42.6022L90.875 42.6022L90.9415 43.6ZM91.9855 43.492L91.8533 42.5007L91.8441 42.5021L91.9855 43.492ZM92.8135 43.348L93.056 44.3181L93.8135 44.1288V43.348H92.8135ZM92.8135 39.316H93.8135V38.316H92.8135V39.316ZM88.2415 39.316H87.2415V40.316H88.2415V39.316ZM88.2415 34.952H99.3295V32.952H88.2415V34.952ZM98.3295 33.952V47.812H100.33V33.952H98.3295ZM99.003 46.8668C97.7471 47.3007 96.2792 47.6606 94.5931 47.9416L94.9219 49.9144C96.6918 49.6194 98.2719 49.2353 99.656 48.7572L99.003 46.8668ZM94.5909 47.942C92.9462 48.2199 91.2142 48.36 89.3935 48.36V50.36C91.3168 50.36 93.1608 50.2121 94.9242 49.914L94.5909 47.942ZM89.3935 48.36C87.0525 48.36 85.0419 47.9061 83.3338 47.0302L82.4212 48.8098C84.4571 49.8539 86.7905 50.36 89.3935 50.36V48.36ZM83.3385 47.0326C81.6822 46.1722 80.3708 44.8594 79.4027 43.0552L77.6403 44.0008C78.7842 46.1326 80.3768 47.7478 82.4165 48.8074L83.3385 47.0326ZM79.4071 43.0636C78.4719 41.2801 77.9735 38.9683 77.9735 36.076H75.9735C75.9735 39.1837 76.5071 41.8399 77.6359 43.9924L79.4071 43.0636ZM77.9735 36.076C77.9735 33.5162 78.4644 31.3541 79.4071 29.5564L77.6359 28.6276C76.5146 30.7659 75.9735 33.2598 75.9735 36.076H77.9735ZM79.4071 29.5564C80.344 27.7697 81.7093 26.4026 83.5259 25.4395L82.5891 23.6725C80.4217 24.8214 78.763 26.4782 77.6359 28.6276L79.4071 29.5564ZM83.5297 25.4375C85.3654 24.4541 87.6653 23.936 90.4735 23.936V21.936C87.4257 21.936 84.7816 22.4979 82.5853 23.6745L83.5297 25.4375ZM90.4735 23.936C92.0167 23.936 93.4693 24.0857 94.8337 24.3813L95.2573 22.4267C93.7417 22.0983 92.1463 21.936 90.4735 21.936V23.936ZM94.8494 24.3846C96.2332 24.6613 97.4049 25.0251 98.3757 25.4664L99.2033 23.6456C98.0621 23.1269 96.7378 22.7227 95.2416 22.4234L94.8494 24.3846ZM97.8623 24.1814L95.6663 29.6174L97.5207 30.3666L99.7167 24.9306L97.8623 24.1814ZM97.0407 29.0976C96.0525 28.6035 95.0125 28.2397 93.923 28.0062L93.504 29.9618C94.4305 30.1603 95.3105 30.4685 96.1463 30.8864L97.0407 29.0976ZM93.9451 28.0112C92.8549 27.7516 91.7087 27.624 90.5095 27.624V29.624C91.5663 29.624 92.5561 29.7364 93.4819 29.9568L93.9451 28.0112ZM90.5095 27.624C88.8264 27.624 87.3608 28.006 86.2048 28.8655L87.3982 30.4705C88.1142 29.938 89.1206 29.624 90.5095 29.624V27.624ZM86.2048 28.8655C85.1059 29.6826 84.3088 30.7673 83.8132 32.0889L85.6858 32.7911C86.0542 31.8087 86.6251 31.0454 87.3982 30.4705L86.2048 28.8655ZM83.8069 32.1062C83.356 33.3791 83.1375 34.7659 83.1375 36.256H85.1375C85.1375 34.9621 85.327 33.8049 85.6921 32.7738L83.8069 32.1062ZM83.1375 36.256C83.1375 37.9305 83.3778 39.4122 83.8972 40.6698L85.7458 39.9062C85.3532 38.9558 85.1375 37.7495 85.1375 36.256H83.1375ZM83.8972 40.6698C84.4173 41.9288 85.1938 42.9381 86.2468 43.64L87.3562 41.9759C86.6812 41.5259 86.1377 40.8552 85.7458 39.9062L83.8972 40.6698ZM86.2631 43.6507C87.3197 44.3258 88.5724 44.636 89.9695 44.636V42.636C88.8706 42.636 88.0113 42.3942 87.3399 41.9653L86.2631 43.6507ZM89.9695 44.636C90.2844 44.636 90.6311 44.6229 91.008 44.5978L90.875 42.6022C90.5319 42.6251 90.2306 42.636 89.9695 42.636V44.636ZM91.008 44.5978C91.3915 44.5722 91.7646 44.5337 92.1269 44.4819L91.8441 42.5021C91.5344 42.5463 91.2115 42.5798 90.875 42.6022L91.008 44.5978ZM92.1177 44.4832C92.4897 44.4336 92.8094 44.3798 93.056 44.3181L92.571 42.3779C92.4336 42.4122 92.2014 42.4544 91.8533 42.5008L92.1177 44.4832ZM93.8135 43.348V39.316H91.8135V43.348H93.8135ZM92.8135 38.316H88.2415V40.316H92.8135V38.316ZM89.2415 39.316V33.952H87.2415V39.316H89.2415ZM131.486 41.548L132.444 41.834L132.445 41.8302L131.486 41.548ZM129.254 45.724L128.495 45.0732L128.495 45.0732L129.254 45.724ZM125.366 48.424L124.999 47.4936L124.995 47.4955L125.366 48.424ZM114.098 48.424L113.727 49.3525L113.731 49.3544L114.098 48.424ZM110.21 45.724L109.451 46.3748L109.458 46.3836L110.21 45.724ZM107.942 41.548L106.983 41.8302L106.985 41.8386L106.988 41.8471L107.942 41.548ZM108.554 29.128L109.465 29.5393L109.467 29.5352L108.554 29.128ZM112.658 24.52L113.163 25.3834L113.163 25.3834L112.658 24.52ZM126.878 24.556L126.36 25.4115L126.367 25.4155L126.373 25.4194L126.878 24.556ZM130.91 29.164L129.989 29.5526L129.991 29.5593L129.994 29.566L130.91 29.164ZM115.034 40.108L114.076 40.3935L114.079 40.4058L114.083 40.418L115.034 40.108ZM116.726 42.664L117.342 41.876L117.342 41.876L116.726 42.664ZM122.738 42.664L122.122 41.876L122.116 41.8807L122.11 41.8856L122.738 42.664ZM124.394 40.108L125.351 40.3992L125.352 40.3935L124.394 40.108ZM123.746 30.604L124.614 30.1079L124.614 30.1079L123.746 30.604ZM116.726 29.524L117.342 30.312L117.349 30.3061L117.357 30.3001L116.726 29.524ZM115.034 32.116L114.081 31.8119L114.077 31.8248L115.034 32.116ZM131.206 36.112C131.206 38.0244 130.975 39.7395 130.527 41.2658L132.445 41.8302C132.956 40.0925 133.206 38.1836 133.206 36.112H131.206ZM130.528 41.262C130.084 42.7471 129.404 44.0121 128.495 45.0732L130.013 46.3748C131.12 45.0839 131.927 43.5649 132.444 41.834L130.528 41.262ZM128.495 45.0732C127.603 46.1134 126.447 46.9233 124.999 47.4936L125.732 49.3544C127.453 48.6767 128.889 47.6866 130.013 46.3748L128.495 45.0732ZM124.995 47.4955C123.583 48.06 121.833 48.36 119.714 48.36V50.36C122.011 50.36 124.028 50.036 125.737 49.3525L124.995 47.4955ZM119.714 48.36C117.647 48.36 115.905 48.0611 114.464 47.4936L113.731 49.3544C115.459 50.0349 117.461 50.36 119.714 50.36V48.36ZM114.469 47.4955C113.044 46.9256 111.882 46.1135 110.962 45.0644L109.458 46.3836C110.602 47.6865 112.031 48.6744 113.727 49.3525L114.469 47.4955ZM110.969 45.0732C110.057 44.0088 109.363 42.7392 108.896 41.2489L106.988 41.8471C107.529 43.5728 108.347 45.0872 109.451 46.3748L110.969 45.0732ZM108.901 41.2658C108.453 39.7406 108.222 38.0136 108.222 36.076H106.222C106.222 38.1704 106.471 40.0914 106.983 41.8302L108.901 41.2658ZM108.222 36.076C108.222 33.5215 108.648 31.3515 109.465 29.5393L107.642 28.7167C106.684 30.8405 106.222 33.3025 106.222 36.076H108.222ZM109.467 29.5352C110.272 27.7304 111.499 26.3557 113.163 25.3834L112.153 23.6566C110.121 24.8443 108.612 26.5416 107.641 28.7208L109.467 29.5352ZM113.163 25.3834C114.813 24.4186 116.988 23.9 119.75 23.9V21.9C116.752 21.9 114.199 22.4614 112.153 23.6566L113.163 25.3834ZM119.75 23.9C122.561 23.9 124.74 24.431 126.36 25.4115L127.396 23.7005C125.368 22.473 122.795 21.9 119.75 21.9V23.9ZM126.373 25.4194C128.033 26.3891 129.232 27.7576 129.989 29.5526L131.831 28.7754C130.908 26.5864 129.419 24.8829 127.383 23.6926L126.373 25.4194ZM129.994 29.566C130.791 31.3808 131.206 33.5542 131.206 36.112H133.206C133.206 33.3418 132.757 30.8832 131.826 28.762L129.994 29.566ZM113.53 36.112C113.53 37.717 113.705 39.1496 114.076 40.3935L115.992 39.8225C115.691 38.8104 115.53 37.579 115.53 36.112H113.53ZM114.083 40.418C114.493 41.6743 115.158 42.7077 116.11 43.452L117.342 41.876C116.758 41.4203 116.295 40.7497 115.985 39.798L114.083 40.418ZM116.11 43.452C117.095 44.2213 118.325 44.564 119.714 44.564V42.564C118.655 42.564 117.893 42.3067 117.342 41.876L116.11 43.452ZM119.714 44.564C121.139 44.564 122.393 44.2271 123.366 43.4424L122.11 41.8856C121.595 42.3009 120.833 42.564 119.714 42.564V44.564ZM123.354 43.452C124.312 42.7035 124.966 41.6628 125.351 40.3992L123.437 39.8168C123.15 40.7612 122.7 41.4245 122.122 41.876L123.354 43.452ZM125.352 40.3935C125.723 39.1496 125.898 37.717 125.898 36.112H123.898C123.898 37.579 123.737 38.8104 123.436 39.8225L125.352 40.3935ZM125.898 36.112C125.898 33.691 125.501 31.6605 124.614 30.1079L122.878 31.1001C123.527 32.2355 123.898 33.877 123.898 36.112H125.898ZM124.614 30.1079C123.626 28.3779 121.91 27.588 119.75 27.588V29.588C121.382 29.588 122.33 30.1421 122.878 31.1001L124.614 30.1079ZM119.75 27.588C118.334 27.588 117.084 27.9446 116.095 28.7479L117.357 30.3001C117.904 29.8554 118.67 29.588 119.75 29.588V27.588ZM116.11 28.736C115.153 29.4842 114.489 30.5341 114.081 31.812L115.987 32.42C116.299 31.4419 116.763 30.7638 117.342 30.312L116.11 28.736ZM114.077 31.8248C113.704 33.0498 113.53 34.4856 113.53 36.112H115.53C115.53 34.6184 115.691 33.3902 115.991 32.4072L114.077 31.8248Z" fill="#E4EFFF"/>
<defs>
<filter id="filter0_f_37_1011" x="0.491943" y="0.899902" width="149.72" height="70.46" filterUnits="userSpaceOnUse" color-interpolation-filters="sRGB">
<feFlood flood-opacity="0" result="BackgroundImageFix"/>
<feBlend mode="normal" in="SourceGraphic" in2="BackgroundImageFix" result="shape"/>
<feGaussianBlur stdDeviation="11" result="effect1_foregroundBlur_37_1011"/>
</filter>
</defs>
</svg>
