<svg width="114" height="43" viewBox="0 0 114 43" fill="none" xmlns="http://www.w3.org/2000/svg">
<path d="M3.492 38V12.296H6.732V35.12H17.964V38H3.492ZM47.6958 25.112C47.6958 27.104 47.4438 28.916 46.9398 30.548C46.4358 32.156 45.6798 33.548 44.6718 34.724C43.6878 35.9 42.4518 36.8 40.9638 37.424C39.4998 38.048 37.7958 38.36 35.8518 38.36C33.8358 38.36 32.0838 38.048 30.5958 37.424C29.1078 36.776 27.8718 35.876 26.8878 34.724C25.9038 33.548 25.1718 32.144 24.6918 30.512C24.2118 28.88 23.9718 27.068 23.9718 25.076C23.9718 22.436 24.4038 20.132 25.2678 18.164C26.1318 16.196 27.4398 14.66 29.1918 13.556C30.9678 12.452 33.1998 11.9 35.8878 11.9C38.4558 11.9 40.6158 12.452 42.3678 13.556C44.1198 14.636 45.4398 16.172 46.3278 18.164C47.2398 20.132 47.6958 22.448 47.6958 25.112ZM27.3918 25.112C27.3918 27.272 27.6918 29.132 28.2918 30.692C28.8918 32.252 29.8158 33.452 31.0638 34.292C32.3358 35.132 33.9318 35.552 35.8518 35.552C37.7958 35.552 39.3798 35.132 40.6038 34.292C41.8518 33.452 42.7758 32.252 43.3758 30.692C43.9758 29.132 44.2758 27.272 44.2758 25.112C44.2758 21.872 43.6038 19.34 42.2598 17.516C40.9158 15.668 38.7918 14.744 35.8878 14.744C33.9438 14.744 32.3358 15.164 31.0638 16.004C29.8158 16.82 28.8918 18.008 28.2918 19.568C27.6918 21.104 27.3918 22.952 27.3918 25.112ZM68.1528 24.428H77.0448V37.028C75.6528 37.484 74.2488 37.82 72.8328 38.036C71.4168 38.252 69.8088 38.36 68.0088 38.36C65.3448 38.36 63.1008 37.832 61.2768 36.776C59.4528 35.696 58.0608 34.172 57.1008 32.204C56.1648 30.212 55.6968 27.86 55.6968 25.148C55.6968 22.46 56.2248 20.132 57.2808 18.164C58.3368 16.196 59.8488 14.672 61.8168 13.592C63.8088 12.488 66.2088 11.936 69.0168 11.936C70.4568 11.936 71.8128 12.068 73.0848 12.332C74.3808 12.596 75.5808 12.968 76.6848 13.448L75.4608 16.256C74.5488 15.848 73.5168 15.5 72.3648 15.212C71.2368 14.924 70.0608 14.78 68.8368 14.78C66.7968 14.78 65.0448 15.2 63.5808 16.04C62.1168 16.88 61.0008 18.08 60.2328 19.64C59.4648 21.176 59.0808 23.012 59.0808 25.148C59.0808 27.188 59.4048 29 60.0528 30.584C60.7248 32.144 61.7688 33.368 63.1848 34.256C64.6008 35.12 66.4608 35.552 68.7648 35.552C69.5328 35.552 70.2048 35.528 70.7808 35.48C71.3808 35.408 71.9208 35.324 72.4008 35.228C72.9048 35.132 73.3728 35.036 73.8048 34.94V27.308H68.1528V24.428ZM109.212 25.112C109.212 27.104 108.96 28.916 108.456 30.548C107.952 32.156 107.196 33.548 106.188 34.724C105.204 35.9 103.968 36.8 102.48 37.424C101.016 38.048 99.3122 38.36 97.3682 38.36C95.3522 38.36 93.6002 38.048 92.1122 37.424C90.6242 36.776 89.3882 35.876 88.4042 34.724C87.4202 33.548 86.6882 32.144 86.2082 30.512C85.7282 28.88 85.4882 27.068 85.4882 25.076C85.4882 22.436 85.9202 20.132 86.7842 18.164C87.6482 16.196 88.9562 14.66 90.7082 13.556C92.4842 12.452 94.7162 11.9 97.4042 11.9C99.9722 11.9 102.132 12.452 103.884 13.556C105.636 14.636 106.956 16.172 107.844 18.164C108.756 20.132 109.212 22.448 109.212 25.112ZM88.9082 25.112C88.9082 27.272 89.2082 29.132 89.8082 30.692C90.4082 32.252 91.3322 33.452 92.5802 34.292C93.8522 35.132 95.4482 35.552 97.3682 35.552C99.3122 35.552 100.896 35.132 102.12 34.292C103.368 33.452 104.292 32.252 104.892 30.692C105.492 29.132 105.792 27.272 105.792 25.112C105.792 21.872 105.12 19.34 103.776 17.516C102.432 15.668 100.308 14.744 97.4042 14.744C95.4602 14.744 93.8522 15.164 92.5802 16.004C91.3322 16.82 90.4082 18.008 89.8082 19.568C89.2082 21.104 88.9082 22.952 88.9082 25.112Z" fill="#66B2FF"/>
<path d="M2.772 38V12.296H9.72V32.384H19.62V38H2.772ZM50.67 25.112C50.67 27.104 50.43 28.916 49.95 30.548C49.47 32.156 48.726 33.548 47.718 34.724C46.71 35.9 45.414 36.8 43.83 37.424C42.27 38.048 40.386 38.36 38.178 38.36C36.018 38.36 34.146 38.048 32.562 37.424C31.002 36.8 29.706 35.9 28.674 34.724C27.666 33.548 26.91 32.156 26.406 30.548C25.926 28.916 25.686 27.092 25.686 25.076C25.686 22.412 26.13 20.096 27.018 18.128C27.906 16.136 29.274 14.6 31.122 13.52C32.97 12.44 35.334 11.9 38.214 11.9C41.142 11.9 43.518 12.452 45.342 13.556C47.19 14.636 48.534 16.172 49.374 18.164C50.238 20.132 50.67 22.448 50.67 25.112ZM32.994 25.112C32.994 26.648 33.162 27.98 33.498 29.108C33.858 30.212 34.422 31.064 35.19 31.664C35.958 32.264 36.954 32.564 38.178 32.564C39.45 32.564 40.458 32.264 41.202 31.664C41.97 31.064 42.522 30.212 42.858 29.108C43.194 27.98 43.362 26.648 43.362 25.112C43.362 22.784 42.978 20.948 42.21 19.604C41.442 18.26 40.11 17.588 38.214 17.588C36.966 17.588 35.958 17.9 35.19 18.524C34.422 19.124 33.858 19.988 33.498 21.116C33.162 22.22 32.994 23.552 32.994 25.112ZM69.2415 22.952H80.3295V36.812C79.0095 37.268 77.4855 37.64 75.7575 37.928C74.0535 38.216 72.2655 38.36 70.3935 38.36C67.9215 38.36 65.7495 37.88 63.8775 36.92C62.0295 35.96 60.5775 34.496 59.5215 32.528C58.4895 30.56 57.9735 28.076 57.9735 25.076C57.9735 22.388 58.4895 20.06 59.5215 18.092C60.5535 16.124 62.0655 14.612 64.0575 13.556C66.0735 12.476 68.5455 11.936 71.4735 11.936C73.0815 11.936 74.6055 12.092 76.0455 12.404C77.4855 12.692 78.7335 13.076 79.7895 13.556L77.5935 18.992C76.6815 18.536 75.7215 18.2 74.7135 17.984C73.7055 17.744 72.6375 17.624 71.5095 17.624C69.9735 17.624 68.7375 17.972 67.8015 18.668C66.8655 19.364 66.1815 20.288 65.7495 21.44C65.3415 22.592 65.1375 23.864 65.1375 25.256C65.1375 26.84 65.3655 28.184 65.8215 29.288C66.2775 30.392 66.9375 31.232 67.8015 31.808C68.6655 32.36 69.7215 32.636 70.9695 32.636C71.2575 32.636 71.5815 32.624 71.9415 32.6C72.3015 32.576 72.6495 32.54 72.9855 32.492C73.3455 32.444 73.6215 32.396 73.8135 32.348V28.316H69.2415V22.952ZM113.206 25.112C113.206 27.104 112.966 28.916 112.486 30.548C112.006 32.156 111.262 33.548 110.254 34.724C109.246 35.9 107.95 36.8 106.366 37.424C104.806 38.048 102.922 38.36 100.714 38.36C98.5539 38.36 96.6819 38.048 95.0979 37.424C93.5379 36.8 92.2419 35.9 91.2099 34.724C90.2019 33.548 89.4459 32.156 88.9419 30.548C88.4619 28.916 88.2219 27.092 88.2219 25.076C88.2219 22.412 88.6659 20.096 89.5539 18.128C90.4419 16.136 91.8099 14.6 93.6579 13.52C95.5059 12.44 97.8699 11.9 100.75 11.9C103.678 11.9 106.054 12.452 107.878 13.556C109.726 14.636 111.07 16.172 111.91 18.164C112.774 20.132 113.206 22.448 113.206 25.112ZM95.5299 25.112C95.5299 26.648 95.6979 27.98 96.0339 29.108C96.3939 30.212 96.9579 31.064 97.7259 31.664C98.4939 32.264 99.4899 32.564 100.714 32.564C101.986 32.564 102.994 32.264 103.738 31.664C104.506 31.064 105.058 30.212 105.394 29.108C105.73 27.98 105.898 26.648 105.898 25.112C105.898 22.784 105.514 20.948 104.746 19.604C103.978 18.26 102.646 17.588 100.75 17.588C99.5019 17.588 98.4939 17.9 97.7259 18.524C96.9579 19.124 96.3939 19.988 96.0339 21.116C95.6979 22.22 95.5299 23.552 95.5299 25.112Z" fill="white"/>
<path d="M2.772 38H1.772V39H2.772V38ZM2.772 12.296V11.296H1.772V12.296H2.772ZM9.72 12.296H10.72V11.296H9.72V12.296ZM9.72 32.384H8.72V33.384H9.72V32.384ZM19.62 32.384H20.62V31.384H19.62V32.384ZM19.62 38V39H20.62V38H19.62ZM3.772 38V12.296H1.772V38H3.772ZM2.772 13.296H9.72V11.296H2.772V13.296ZM8.72 12.296V32.384H10.72V12.296H8.72ZM9.72 33.384H19.62V31.384H9.72V33.384ZM18.62 32.384V38H20.62V32.384H18.62ZM19.62 37H2.772V39H19.62V37ZM49.95 30.548L50.9082 30.834L50.9094 30.8302L49.95 30.548ZM47.718 34.724L46.9587 34.0732L46.9587 34.0732L47.718 34.724ZM43.83 37.424L43.4635 36.4936L43.4586 36.4955L43.83 37.424ZM32.562 37.424L32.1906 38.3525L32.1955 38.3544L32.562 37.424ZM28.674 34.724L27.9147 35.3748L27.9224 35.3836L28.674 34.724ZM26.406 30.548L25.4466 30.8302L25.4491 30.8386L25.4518 30.8471L26.406 30.548ZM27.018 18.128L27.9295 18.5393L27.9314 18.5352L27.018 18.128ZM31.122 13.52L31.6266 14.3834L31.6266 14.3834L31.122 13.52ZM45.342 13.556L44.8242 14.4115L44.8308 14.4155L44.8374 14.4194L45.342 13.556ZM49.374 18.164L48.4526 18.5526L48.4554 18.5593L48.4584 18.566L49.374 18.164ZM33.498 29.108L32.5396 29.3935L32.5433 29.4058L32.5473 29.418L33.498 29.108ZM35.19 31.664L35.8056 30.876L35.8056 30.876L35.19 31.664ZM41.202 31.664L40.5864 30.876L40.5803 30.8807L40.5742 30.8856L41.202 31.664ZM42.858 29.108L43.8147 29.3992L43.8164 29.3935L42.858 29.108ZM42.21 19.604L43.0782 19.1079L43.0782 19.1079L42.21 19.604ZM35.19 18.524L35.8056 19.312L35.8132 19.3061L35.8206 19.3001L35.19 18.524ZM33.498 21.116L32.5453 20.8119L32.5413 20.8248L33.498 21.116ZM49.67 25.112C49.67 27.0244 49.4395 28.7395 48.9906 30.2658L50.9094 30.8302C51.4205 29.0925 51.67 27.1836 51.67 25.112H49.67ZM48.9918 30.262C48.5485 31.7471 47.8682 33.0121 46.9587 34.0732L48.4773 35.3748C49.5838 34.0839 50.3916 32.5649 50.9082 30.834L48.9918 30.262ZM46.9587 34.0732C46.0671 35.1134 44.9111 35.9233 43.4635 36.4936L44.1965 38.3544C45.9169 37.6767 47.3529 36.6866 48.4773 35.3748L46.9587 34.0732ZM43.4586 36.4955C42.0474 37.06 40.2967 37.36 38.178 37.36V39.36C40.4753 39.36 42.4926 39.036 44.2014 38.3525L43.4586 36.4955ZM38.178 37.36C36.1111 37.36 34.3691 37.0611 32.9285 36.4936L32.1955 38.3544C33.9229 39.0349 35.9249 39.36 38.178 39.36V37.36ZM32.9334 36.4955C31.5085 35.9256 30.3462 35.1135 29.4256 34.0644L27.9224 35.3836C29.0658 36.6865 30.4955 37.6744 32.1906 38.3525L32.9334 36.4955ZM29.4333 34.0732C28.5209 33.0088 27.8273 31.7392 27.3602 30.2489L25.4518 30.8471C25.9927 32.5728 26.8111 34.0872 27.9147 35.3748L29.4333 34.0732ZM27.3654 30.2658C26.9168 28.7406 26.686 27.0136 26.686 25.076H24.686C24.686 27.1704 24.9352 29.0914 25.4466 30.8302L27.3654 30.2658ZM26.686 25.076C26.686 22.5215 27.1118 20.3515 27.9295 18.5393L26.1065 17.7167C25.1482 19.8405 24.686 22.3025 24.686 25.076H26.686ZM27.9314 18.5352C28.7359 16.7304 29.9628 15.3557 31.6266 14.3834L30.6174 12.6566C28.5852 13.8443 27.0761 15.5416 26.1046 17.7208L27.9314 18.5352ZM31.6266 14.3834C33.2774 13.4186 35.4522 12.9 38.214 12.9V10.9C35.2158 10.9 32.6626 11.4614 30.6174 12.6566L31.6266 14.3834ZM38.214 12.9C41.0249 12.9 43.2042 13.431 44.8242 14.4115L45.8598 12.7005C43.8318 11.473 41.2591 10.9 38.214 10.9V12.9ZM44.8374 14.4194C46.4968 15.3891 47.6957 16.7576 48.4526 18.5526L50.2954 17.7754C49.3723 15.5864 47.8832 13.8829 45.8466 12.6926L44.8374 14.4194ZM48.4584 18.566C49.2551 20.3808 49.67 22.5542 49.67 25.112H51.67C51.67 22.3418 51.2209 19.8832 50.2896 17.762L48.4584 18.566ZM31.994 25.112C31.994 26.717 32.1691 28.1496 32.5396 29.3935L34.4564 28.8225C34.1549 27.8104 33.994 26.579 33.994 25.112H31.994ZM32.5473 29.418C32.9569 30.6743 33.6216 31.7077 34.5744 32.452L35.8056 30.876C35.2224 30.4203 34.7591 29.7497 34.4487 28.798L32.5473 29.418ZM34.5744 32.452C35.5591 33.2213 36.789 33.564 38.178 33.564V31.564C37.119 31.564 36.3569 31.3067 35.8056 30.876L34.5744 32.452ZM38.178 33.564C39.6026 33.564 40.8568 33.2271 41.8298 32.4424L40.5742 30.8856C40.0592 31.3009 39.2974 31.564 38.178 31.564V33.564ZM41.8176 32.452C42.7758 31.7035 43.4301 30.6628 43.8147 29.3992L41.9013 28.8168C41.6139 29.7612 41.1642 30.4245 40.5864 30.876L41.8176 32.452ZM43.8164 29.3935C44.1869 28.1496 44.362 26.717 44.362 25.112H42.362C42.362 26.579 42.2011 27.8104 41.8996 28.8225L43.8164 29.3935ZM44.362 25.112C44.362 22.691 43.9654 20.6605 43.0782 19.1079L41.3418 20.1001C41.9906 21.2355 42.362 22.877 42.362 25.112H44.362ZM43.0782 19.1079C42.0897 17.3779 40.374 16.588 38.214 16.588V18.588C39.846 18.588 40.7943 19.1421 41.3418 20.1001L43.0782 19.1079ZM38.214 16.588C36.7977 16.588 35.5481 16.9446 34.5594 17.7479L35.8206 19.3001C36.3679 18.8554 37.1343 18.588 38.214 18.588V16.588ZM34.5744 17.736C33.6166 18.4842 32.9532 19.5341 32.5453 20.812L34.4507 21.42C34.7628 20.4419 35.2274 19.7638 35.8056 19.312L34.5744 17.736ZM32.5413 20.8248C32.1685 22.0498 31.994 23.4856 31.994 25.112H33.994C33.994 23.6184 34.1555 22.3902 34.4547 21.4072L32.5413 20.8248ZM69.2415 22.952V21.952H68.2415V22.952H69.2415ZM80.3295 22.952H81.3295V21.952H80.3295V22.952ZM80.3295 36.812L80.656 37.7572L81.3295 37.5245V36.812H80.3295ZM75.7575 37.928L75.5931 36.9416L75.5909 36.942L75.7575 37.928ZM63.8775 36.92L63.4165 37.8074L63.4212 37.8098L63.8775 36.92ZM59.5215 32.528L58.6358 32.9924L58.6403 33.0008L59.5215 32.528ZM59.5215 18.092L58.6359 17.6276L58.6359 17.6276L59.5215 18.092ZM64.0575 13.556L64.5259 14.4395L64.5297 14.4375L64.0575 13.556ZM76.0455 12.404L75.8337 13.3813L75.8416 13.383L75.8494 13.3846L76.0455 12.404ZM79.7895 13.556L80.7167 13.9306L81.0756 13.0421L80.2033 12.6456L79.7895 13.556ZM77.5935 18.992L77.1463 19.8864L78.115 20.3708L78.5207 19.3666L77.5935 18.992ZM74.7135 17.984L74.4819 18.9568L74.4929 18.9594L74.504 18.9618L74.7135 17.984ZM67.8015 18.668L68.3982 19.4705L68.3982 19.4705L67.8015 18.668ZM65.7495 21.44L64.8132 21.0889L64.8099 21.0975L64.8069 21.1062L65.7495 21.44ZM65.8215 29.288L66.7458 28.9062L66.7458 28.9062L65.8215 29.288ZM67.8015 31.808L67.2468 32.64L67.2549 32.6455L67.2631 32.6507L67.8015 31.808ZM71.9415 32.6L71.875 31.6022L71.875 31.6022L71.9415 32.6ZM72.9855 32.492L72.8533 31.5007L72.8441 31.5021L72.9855 32.492ZM73.8135 32.348L74.056 33.3181L74.8135 33.1288V32.348H73.8135ZM73.8135 28.316H74.8135V27.316H73.8135V28.316ZM69.2415 28.316H68.2415V29.316H69.2415V28.316ZM69.2415 23.952H80.3295V21.952H69.2415V23.952ZM79.3295 22.952V36.812H81.3295V22.952H79.3295ZM80.003 35.8668C78.7471 36.3007 77.2792 36.6606 75.5931 36.9416L75.9219 38.9144C77.6918 38.6194 79.2719 38.2353 80.656 37.7572L80.003 35.8668ZM75.5909 36.942C73.9462 37.2199 72.2142 37.36 70.3935 37.36V39.36C72.3168 39.36 74.1608 39.2121 75.9242 38.914L75.5909 36.942ZM70.3935 37.36C68.0525 37.36 66.0419 36.9061 64.3338 36.0302L63.4212 37.8098C65.4571 38.8539 67.7905 39.36 70.3935 39.36V37.36ZM64.3385 36.0326C62.6822 35.1722 61.3708 33.8594 60.4027 32.0552L58.6403 33.0008C59.7842 35.1326 61.3768 36.7478 63.4165 37.8074L64.3385 36.0326ZM60.4071 32.0636C59.4719 30.2801 58.9735 27.9683 58.9735 25.076H56.9735C56.9735 28.1837 57.5071 30.8399 58.6359 32.9924L60.4071 32.0636ZM58.9735 25.076C58.9735 22.5162 59.4644 20.3541 60.4071 18.5564L58.6359 17.6276C57.5146 19.7659 56.9735 22.2598 56.9735 25.076H58.9735ZM60.4071 18.5564C61.344 16.7697 62.7093 15.4026 64.5259 14.4395L63.5891 12.6725C61.4217 13.8214 59.763 15.4782 58.6359 17.6276L60.4071 18.5564ZM64.5297 14.4375C66.3654 13.4541 68.6653 12.936 71.4735 12.936V10.936C68.4257 10.936 65.7816 11.4979 63.5853 12.6745L64.5297 14.4375ZM71.4735 12.936C73.0167 12.936 74.4693 13.0857 75.8337 13.3813L76.2573 11.4267C74.7417 11.0983 73.1463 10.936 71.4735 10.936V12.936ZM75.8494 13.3846C77.2332 13.6613 78.4049 14.0251 79.3757 14.4664L80.2033 12.6456C79.0621 12.1269 77.7378 11.7227 76.2416 11.4234L75.8494 13.3846ZM78.8623 13.1814L76.6663 18.6174L78.5207 19.3666L80.7167 13.9306L78.8623 13.1814ZM78.0407 18.0976C77.0525 17.6035 76.0125 17.2397 74.923 17.0062L74.504 18.9618C75.4305 19.1603 76.3105 19.4685 77.1463 19.8864L78.0407 18.0976ZM74.9451 17.0112C73.8549 16.7516 72.7087 16.624 71.5095 16.624V18.624C72.5663 18.624 73.5561 18.7364 74.4819 18.9568L74.9451 17.0112ZM71.5095 16.624C69.8264 16.624 68.3608 17.006 67.2048 17.8655L68.3982 19.4705C69.1142 18.938 70.1206 18.624 71.5095 18.624V16.624ZM67.2048 17.8655C66.1059 18.6826 65.3088 19.7673 64.8132 21.0889L66.6858 21.7911C67.0542 20.8087 67.6251 20.0454 68.3982 19.4705L67.2048 17.8655ZM64.8069 21.1062C64.356 22.3791 64.1375 23.7659 64.1375 25.256H66.1375C66.1375 23.9621 66.327 22.8049 66.6921 21.7738L64.8069 21.1062ZM64.1375 25.256C64.1375 26.9305 64.3778 28.4122 64.8972 29.6698L66.7458 28.9062C66.3532 27.9558 66.1375 26.7495 66.1375 25.256H64.1375ZM64.8972 29.6698C65.4173 30.9288 66.1938 31.9381 67.2468 32.64L68.3562 30.9759C67.6812 30.5259 67.1377 29.8552 66.7458 28.9062L64.8972 29.6698ZM67.2631 32.6507C68.3197 33.3258 69.5724 33.636 70.9695 33.636V31.636C69.8706 31.636 69.0113 31.3942 68.3399 30.9653L67.2631 32.6507ZM70.9695 33.636C71.2844 33.636 71.6311 33.6229 72.008 33.5978L71.875 31.6022C71.5319 31.6251 71.2306 31.636 70.9695 31.636V33.636ZM72.008 33.5978C72.3915 33.5722 72.7646 33.5337 73.1269 33.4819L72.8441 31.5021C72.5344 31.5463 72.2115 31.5798 71.875 31.6022L72.008 33.5978ZM73.1177 33.4832C73.4897 33.4336 73.8094 33.3798 74.056 33.3181L73.571 31.3779C73.4336 31.4122 73.2014 31.4544 72.8533 31.5008L73.1177 33.4832ZM74.8135 32.348V28.316H72.8135V32.348H74.8135ZM73.8135 27.316H69.2415V29.316H73.8135V27.316ZM70.2415 28.316V22.952H68.2415V28.316H70.2415ZM112.486 30.548L113.444 30.834L113.445 30.8302L112.486 30.548ZM110.254 34.724L109.495 34.0732L109.495 34.0732L110.254 34.724ZM106.366 37.424L105.999 36.4936L105.995 36.4955L106.366 37.424ZM95.0979 37.424L94.7265 38.3525L94.7314 38.3544L95.0979 37.424ZM91.2099 34.724L90.4506 35.3748L90.4583 35.3836L91.2099 34.724ZM88.9419 30.548L87.9826 30.8302L87.9851 30.8386L87.9877 30.8471L88.9419 30.548ZM89.5539 18.128L90.4655 18.5393L90.4673 18.5352L89.5539 18.128ZM93.6579 13.52L94.1625 14.3834L94.1625 14.3834L93.6579 13.52ZM107.878 13.556L107.36 14.4115L107.367 14.4155L107.373 14.4194L107.878 13.556ZM111.91 18.164L110.989 18.5526L110.991 18.5593L110.994 18.566L111.91 18.164ZM96.0339 29.108L95.0756 29.3935L95.0792 29.4058L95.0832 29.418L96.0339 29.108ZM97.7259 31.664L98.3416 30.876L98.3416 30.876L97.7259 31.664ZM103.738 31.664L103.122 30.876L103.116 30.8807L103.11 30.8856L103.738 31.664ZM105.394 29.108L106.351 29.3992L106.352 29.3935L105.394 29.108ZM104.746 19.604L105.614 19.1079L105.614 19.1079L104.746 19.604ZM97.7259 18.524L98.3416 19.312L98.3491 19.3061L98.3565 19.3001L97.7259 18.524ZM96.0339 21.116L95.0812 20.8119L95.0773 20.8248L96.0339 21.116ZM112.206 25.112C112.206 27.0244 111.975 28.7395 111.527 30.2658L113.445 30.8302C113.956 29.0925 114.206 27.1836 114.206 25.112H112.206ZM111.528 30.262C111.084 31.7471 110.404 33.0121 109.495 34.0732L111.013 35.3748C112.12 34.0839 112.927 32.5649 113.444 30.834L111.528 30.262ZM109.495 34.0732C108.603 35.1134 107.447 35.9233 105.999 36.4936L106.732 38.3544C108.453 37.6767 109.889 36.6866 111.013 35.3748L109.495 34.0732ZM105.995 36.4955C104.583 37.06 102.833 37.36 100.714 37.36V39.36C103.011 39.36 105.028 39.036 106.737 38.3525L105.995 36.4955ZM100.714 37.36C98.6471 37.36 96.905 37.0611 95.4645 36.4936L94.7314 38.3544C96.4589 39.0349 98.4608 39.36 100.714 39.36V37.36ZM95.4693 36.4955C94.0444 35.9256 92.8822 35.1135 91.9616 34.0644L90.4583 35.3836C91.6017 36.6865 93.0315 37.6744 94.7266 38.3525L95.4693 36.4955ZM91.9692 34.0732C91.0568 33.0088 90.3633 31.7392 89.8962 30.2489L87.9877 30.8471C88.5286 32.5728 89.3471 34.0872 90.4507 35.3748L91.9692 34.0732ZM89.9013 30.2658C89.4527 28.7406 89.2219 27.0136 89.2219 25.076H87.2219C87.2219 27.1704 87.4712 29.0914 87.9826 30.8302L89.9013 30.2658ZM89.2219 25.076C89.2219 22.5215 89.6477 20.3515 90.4654 18.5393L88.6424 17.7167C87.6841 19.8405 87.2219 22.3025 87.2219 25.076H89.2219ZM90.4673 18.5352C91.2718 16.7304 92.4988 15.3557 94.1625 14.3834L93.1534 12.6566C91.1211 13.8443 89.612 15.5416 88.6406 17.7208L90.4673 18.5352ZM94.1625 14.3834C95.8134 13.4186 97.9882 12.9 100.75 12.9V10.9C97.7517 10.9 95.1985 11.4614 93.1534 12.6566L94.1625 14.3834ZM100.75 12.9C103.561 12.9 105.74 13.431 107.36 14.4115L108.396 12.7005C106.368 11.473 103.795 10.9 100.75 10.9V12.9ZM107.373 14.4194C109.033 15.3891 110.232 16.7576 110.989 18.5526L112.831 17.7754C111.908 15.5864 110.419 13.8829 108.383 12.6926L107.373 14.4194ZM110.994 18.566C111.791 20.3808 112.206 22.5542 112.206 25.112H114.206C114.206 22.3418 113.757 19.8832 112.826 17.762L110.994 18.566ZM94.5299 25.112C94.5299 26.717 94.705 28.1496 95.0756 29.3935L96.9923 28.8225C96.6909 27.8104 96.5299 26.579 96.5299 25.112H94.5299ZM95.0832 29.418C95.4929 30.6743 96.1575 31.7077 97.1103 32.452L98.3416 30.876C97.7583 30.4203 97.295 29.7497 96.9847 28.798L95.0832 29.418ZM97.1103 32.452C98.095 33.2213 99.325 33.564 100.714 33.564V31.564C99.6549 31.564 98.8929 31.3067 98.3416 30.876L97.1103 32.452ZM100.714 33.564C102.139 33.564 103.393 33.2271 104.366 32.4424L103.11 30.8856C102.595 31.3009 101.833 31.564 100.714 31.564V33.564ZM104.354 32.452C105.312 31.7035 105.966 30.6628 106.351 29.3992L104.437 28.8168C104.15 29.7612 103.7 30.4245 103.122 30.876L104.354 32.452ZM106.352 29.3935C106.723 28.1496 106.898 26.717 106.898 25.112H104.898C104.898 26.579 104.737 27.8104 104.436 28.8225L106.352 29.3935ZM106.898 25.112C106.898 22.691 106.501 20.6605 105.614 19.1079L103.878 20.1001C104.527 21.2355 104.898 22.877 104.898 25.112H106.898ZM105.614 19.1079C104.626 17.3779 102.91 16.588 100.75 16.588V18.588C102.382 18.588 103.33 19.1421 103.878 20.1001L105.614 19.1079ZM100.75 16.588C99.3336 16.588 98.084 16.9446 97.0953 17.7479L98.3565 19.3001C98.9039 18.8554 99.6703 18.588 100.75 18.588V16.588ZM97.1103 17.736C96.1525 18.4842 95.4891 19.5341 95.0813 20.812L96.9866 21.42C97.2988 20.4419 97.7633 19.7638 98.3416 19.312L97.1103 17.736ZM95.0773 20.8248C94.7045 22.0498 94.5299 23.4856 94.5299 25.112H96.5299C96.5299 23.6184 96.6914 22.3902 96.9906 21.4072L95.0773 20.8248Z" fill="#E4EFFF"/>
</svg>
