<svg width="73" height="48" viewBox="0 0 73 48" fill="none" xmlns="http://www.w3.org/2000/svg">
<path d="M45.4004 43.1998V33.5998H39.4004L45.65 19.0006C45.9172 18.3334 46.3588 17.7998 46.9748 17.3998C47.5924 16.9998 48.2676 16.7998 49.0004 16.7998C49.7332 16.7998 50.4084 16.9998 51.026 17.3998C51.642 17.7998 52.0836 18.3334 52.3508 19.0006L58.6004 33.5998H52.6004V43.1998H45.4004ZM49.0004 13.1998C47.834 13.1998 46.842 12.7918 46.0244 11.9758C45.2084 11.1582 44.8004 10.1662 44.8004 8.9998C44.8004 7.8334 45.2084 6.8414 46.0244 6.0238C46.842 5.2078 47.834 4.7998 49.0004 4.7998C50.1668 4.7998 51.1588 5.2078 51.9764 6.0238C52.7924 6.8414 53.2004 7.8334 53.2004 8.9998C53.2004 10.1662 52.7924 11.1582 51.9764 11.9758C51.1588 12.7918 50.1668 13.1998 49.0004 13.1998Z" fill="white"/>
<path d="M20.4008 43.1998V31.1998H16.8008V20.3998C16.8008 19.3998 17.1512 18.5502 17.852 17.851C18.5512 17.1502 19.4008 16.7998 20.4008 16.7998H27.6008C28.6008 16.7998 29.4504 17.1502 30.1496 17.851C30.8504 18.5502 31.2008 19.3998 31.2008 20.3998V31.1998H27.6008V43.1998H20.4008ZM24.0008 13.1998C22.8344 13.1998 21.8424 12.7918 21.0248 11.9758C20.2088 11.1582 19.8008 10.1662 19.8008 8.9998C19.8008 7.8334 20.2088 6.8414 21.0248 6.0238C21.8424 5.2078 22.8344 4.7998 24.0008 4.7998C25.1672 4.7998 26.1592 5.2078 26.9768 6.0238C27.7928 6.8414 28.2008 7.8334 28.2008 8.9998C28.2008 10.1662 27.7928 11.1582 26.9768 11.9758C26.1592 12.7918 25.1672 13.1998 24.0008 13.1998Z" fill="white"/>
</svg>
