<svg width="20" height="20" viewBox="0 0 20 20" fill="none" xmlns="http://www.w3.org/2000/svg">
<path d="M6 17V14.5H4.5V13H6V11.5H4.5V10H6V3H11.25C12.4307 3 13.434 3.41333 14.26 4.24C15.0867 5.066 15.5 6.06933 15.5 7.25C15.5 8.43067 15.0867 9.434 14.26 10.26C13.434 11.0867 12.4307 11.5 11.25 11.5H7.5V13H11V14.5H7.5V17H6ZM7.5 10H11.25C12.014 10 12.6633 9.73267 13.198 9.198C13.7327 8.66333 14 8.014 14 7.25C14 6.486 13.7327 5.83667 13.198 5.302C12.6633 4.76733 12.014 4.5 11.25 4.5H7.5V10Z" fill="#EB5757"/>
</svg>
