<svg width="18" height="18" viewBox="0 0 18 18" fill="none" xmlns="http://www.w3.org/2000/svg">
<path d="M16.2972 0.994141C16.7898 0.994141 17.1615 1.50691 16.9627 2.46066L14.5513 15.9465C14.3827 16.9054 13.8944 17.1361 13.2202 16.69L7.46831 11.6495C7.44601 11.6305 7.42784 11.6055 7.4153 11.5765C7.40276 11.5475 7.39622 11.5154 7.39622 11.4828C7.39622 11.4503 7.40276 11.4182 7.4153 11.3892C7.42784 11.3602 7.44601 11.3352 7.46831 11.3162L14.1105 4.19895C14.413 3.88103 14.0457 3.7272 13.6481 4.01435L5.31188 10.2548C5.2866 10.2743 5.25789 10.2868 5.22794 10.2912C5.19799 10.2957 5.16758 10.292 5.13902 10.2804L1.5997 8.95232C0.813181 8.68055 0.813181 8.03959 1.77688 7.58323L15.9385 1.10182C16.0508 1.03789 16.1727 1.00128 16.2972 0.994141Z" stroke="#BDBDBD" stroke-linecap="round" stroke-linejoin="round"/>
</svg>
