<svg width="18" height="18" viewBox="0 0 18 18" fill="none" xmlns="http://www.w3.org/2000/svg">
<g clip-path="url(#clip0_325_32648)">
<path d="M8.54883 0.00261921C7.10433 0.0200567 3.99877 0.257432 2.26177 1.851C0.969703 3.13125 0.518581 5.02406 0.465706 7.36462C0.421831 9.69677 0.368956 14.0764 4.59052 15.2689V17.0852C4.59052 17.0852 4.56409 17.8119 5.04445 17.961C5.63621 18.1483 5.97314 17.5892 6.53565 16.9884L7.5847 15.8021C10.4732 16.0423 12.6855 15.4888 12.9403 15.4067C13.5264 15.2194 16.8277 14.7975 17.3672 10.4173C17.9207 5.89368 17.0977 3.0435 15.6122 1.75425H15.6032C15.1548 1.34137 13.3532 0.0284942 9.32793 0.0138692C9.32793 0.0138692 9.0292 -0.0063808 8.54883 0.00205671V0.00261921ZM8.59833 1.27443C9.00843 1.27162 9.25758 1.28906 9.25758 1.28906C12.6647 1.29806 14.2908 2.3235 14.6745 2.66887C15.9255 3.741 16.5701 6.3105 16.0982 10.0871C15.6498 13.749 12.9723 13.9808 12.4768 14.1388C12.2658 14.2063 10.3173 14.6867 7.86258 14.5286C7.86258 14.5286 6.03445 16.7348 5.46295 17.3029C5.37239 17.4024 5.26664 17.4317 5.19914 17.417C5.10239 17.3934 5.07314 17.2736 5.07877 17.1094L5.0962 14.0949C1.5159 13.1049 1.72683 9.36939 1.76508 7.41806C1.80895 5.46675 2.17514 3.87037 3.26527 2.78925C4.73283 1.46231 7.36983 1.28343 8.5972 1.27443H8.59833ZM8.86833 3.22518C8.83885 3.22488 8.8096 3.23043 8.7823 3.24147C8.755 3.25253 8.7301 3.26889 8.70918 3.28959C8.68818 3.31029 8.67153 3.33495 8.66013 3.36213C8.64873 3.3893 8.64288 3.41847 8.6428 3.44793C8.6428 3.57393 8.74518 3.6735 8.86833 3.6735C9.42603 3.66289 9.98035 3.7628 10.4993 3.96747C11.0182 4.17214 11.4915 4.47752 11.8918 4.866C12.7091 5.65968 13.1073 6.72618 13.1226 8.12064C13.1226 8.24379 13.2221 8.34617 13.3481 8.34617V8.33717C13.4075 8.33732 13.4645 8.31399 13.5068 8.27229C13.549 8.23052 13.5731 8.17382 13.5737 8.11442C13.601 7.45808 13.4946 6.80303 13.2608 6.18909C13.0271 5.57515 12.671 5.01515 12.2141 4.54312C11.3237 3.67293 10.1953 3.22462 8.86833 3.22462V3.22518ZM5.90339 3.741C5.74418 3.71773 5.58179 3.74969 5.44327 3.83156H5.43145C5.10985 4.02007 4.82014 4.25834 4.57308 4.5375C4.36777 4.77487 4.25639 5.01506 4.22714 5.24625C4.2097 5.38406 4.22152 5.52187 4.26258 5.6535L4.2772 5.6625C4.50839 6.342 4.81045 6.99562 5.17946 7.61102C5.65478 8.47554 6.23974 9.27504 6.91983 9.98979L6.94008 10.019L6.97215 10.0427L6.99239 10.0663L7.01602 10.0865C7.73335 10.7687 8.5348 11.3563 9.40105 11.8354C10.3911 12.3743 10.9918 12.629 11.3523 12.7348V12.7404C11.4581 12.7725 11.5543 12.7871 11.6511 12.7871C11.9583 12.7646 12.2492 12.6398 12.4773 12.4328C12.7552 12.1856 12.9909 11.8947 13.1748 11.5715V11.5659C13.3476 11.2408 13.2891 10.9331 13.0398 10.725C12.5408 10.2887 12.0012 9.90129 11.4283 9.56792C11.0447 9.35979 10.6548 9.48579 10.4968 9.69677L10.1598 10.1214C9.98718 10.3324 9.6733 10.3031 9.6733 10.3031L9.6643 10.3088C7.3237 9.71079 6.69933 7.341 6.69933 7.341C6.69933 7.341 6.67008 7.01868 6.88664 6.85443L7.30852 6.51468C7.51045 6.35043 7.65108 5.96118 7.43452 5.577C7.10344 5.00333 6.71683 4.46355 6.28027 3.96543C6.18483 3.848 6.05094 3.7681 5.90227 3.73987L5.90339 3.741ZM9.25758 4.40925C8.95893 4.40925 8.95893 4.86037 9.26043 4.86037C9.63183 4.86639 9.99835 4.94555 10.3392 5.09332C10.68 5.24109 10.9884 5.45457 11.2466 5.72156C11.4822 5.98143 11.6632 6.28596 11.7789 6.61708C11.8947 6.9482 11.9428 7.29919 11.9205 7.64927C11.9215 7.70852 11.9457 7.76499 11.9878 7.80662C12.03 7.84824 12.0868 7.87172 12.1461 7.87202L12.1551 7.88379C12.2147 7.88334 12.2718 7.85949 12.3141 7.81727C12.3562 7.77504 12.3801 7.71789 12.3806 7.65827C12.4008 6.76443 12.123 6.01462 11.5779 5.41387C11.0301 4.81312 10.2656 4.47618 9.28968 4.40925H9.25758ZM9.62718 5.622C9.31945 5.613 9.30768 6.07312 9.61255 6.08212C10.3539 6.12037 10.7139 6.495 10.7612 7.26562C10.7622 7.32411 10.7861 7.37988 10.8277 7.42099C10.8693 7.4621 10.9254 7.48527 10.9839 7.48556H10.9929C11.023 7.48427 11.0525 7.477 11.0797 7.46418C11.107 7.45136 11.1314 7.43324 11.1516 7.41087C11.1717 7.38852 11.1872 7.36236 11.1972 7.33395C11.2071 7.30554 11.2113 7.27542 11.2095 7.24537C11.1566 6.24075 10.6087 5.67487 9.63618 5.62256H9.62718V5.622Z" fill="#BDBDBD"/>
</g>
<defs>
<clipPath id="clip0_325_32648">
<rect width="18" height="18" fill="white"/>
</clipPath>
</defs>
</svg>
