<svg width="24" height="24" viewBox="0 0 24 24" fill="none" xmlns="http://www.w3.org/2000/svg">
<path d="M4.7998 18.5999V16.7999H5.9998V10.7999C5.9998 9.3663 6.4458 8.0955 7.3378 6.9875C8.229 5.8795 9.383 5.1919 10.7998 4.9247V3.5999C10.7998 3.2663 10.9166 2.9831 11.1502 2.7503C11.383 2.5167 11.6662 2.3999 11.9998 2.3999C12.3334 2.3999 12.6166 2.5167 12.8494 2.7503C13.083 2.9831 13.1998 3.2663 13.1998 3.5999V4.9247C14.6166 5.1919 15.7706 5.8751 16.6618 6.9743C17.5538 8.0751 17.9998 9.3503 17.9998 10.7999V16.7999H19.1998V18.5999H4.7998ZM11.9998 21.5999C11.4998 21.5999 11.075 21.4247 10.7254 21.0743C10.375 20.7247 10.1998 20.2999 10.1998 19.7999H13.7998C13.7998 20.2999 13.6246 20.7247 13.2742 21.0743C12.9246 21.4247 12.4998 21.5999 11.9998 21.5999ZM7.7998 16.7999H16.1998V10.7999C16.1998 9.6335 15.7914 8.6419 14.9746 7.8251C14.1578 7.0083 13.1662 6.5999 11.9998 6.5999C10.8334 6.5999 9.8418 7.0083 9.025 7.8251C8.2082 8.6419 7.7998 9.6335 7.7998 10.7999V16.7999Z" fill="#EB5757"/>
</svg>
