<svg width="20" height="20" viewBox="0 0 20 20" fill="none" xmlns="http://www.w3.org/2000/svg">
<path d="M10.583 15.458C10.6943 15.4447 10.7917 15.3927 10.875 15.302C10.9583 15.212 11 15.0973 11 14.958C11 14.8053 10.9443 14.6803 10.833 14.583C10.7223 14.4863 10.5907 14.4517 10.438 14.479C9.632 14.5903 8.89233 14.403 8.219 13.917C7.545 13.431 7.14567 12.7713 7.021 11.938C7.007 11.8127 6.955 11.7083 6.865 11.625C6.77433 11.5417 6.66667 11.5 6.542 11.5C6.38867 11.5 6.26 11.5557 6.156 11.667C6.052 11.7777 6.014 11.9093 6.042 12.062C6.19467 13.146 6.70833 14.0213 7.583 14.688C8.45833 15.3547 9.45833 15.6113 10.583 15.458ZM10 18C8.19467 18 6.66 17.368 5.396 16.104C4.132 14.84 3.5 13.3053 3.5 11.5C3.5 10.1527 4.01733 8.729 5.052 7.229C6.08667 5.729 7.736 3.986 10 2C12.3053 4.08333 13.965 5.868 14.979 7.354C15.993 8.84 16.5 10.222 16.5 11.5C16.5 13.3053 15.868 14.84 14.604 16.104C13.34 17.368 11.8053 18 10 18ZM10 16.5C11.3887 16.5 12.5693 16.014 13.542 15.042C14.514 14.0693 15 12.8887 15 11.5C15 10.5553 14.625 9.52067 13.875 8.396C13.125 7.27067 11.8333 5.79833 10 3.979C8.16667 5.79833 6.875 7.27067 6.125 8.396C5.375 9.52067 5 10.5553 5 11.5C5 12.8887 5.486 14.0693 6.458 15.042C7.43067 16.014 8.61133 16.5 10 16.5Z" fill="#EB5757"/>
</svg>
