<svg width="20" height="20" viewBox="0 0 20 20" fill="none" xmlns="http://www.w3.org/2000/svg">
<path d="M2 16.771V15.271C2.41667 15.271 2.757 15.205 3.021 15.073C3.285 14.941 3.542 14.795 3.792 14.635C4.042 14.4757 4.33367 14.33 4.667 14.198C5.00033 14.066 5.44467 14 6 14C6.56933 14 7.01733 14.066 7.344 14.198C7.67 14.33 7.958 14.4757 8.208 14.635C8.458 14.795 8.715 14.941 8.979 15.073C9.243 15.205 9.58333 15.271 10 15.271C10.4307 15.271 10.7743 15.205 11.031 15.073C11.2883 14.941 11.542 14.795 11.792 14.635C12.042 14.4757 12.3337 14.33 12.667 14.198C13.0003 14.066 13.4447 14 14 14C14.5693 14 15.0173 14.066 15.344 14.198C15.67 14.33 15.958 14.4757 16.208 14.635C16.458 14.795 16.715 14.941 16.979 15.073C17.243 15.205 17.5833 15.271 18 15.271V16.771C17.4447 16.771 17.0003 16.705 16.667 16.573C16.3337 16.441 16.042 16.295 15.792 16.135C15.542 15.9757 15.285 15.83 15.021 15.698C14.757 15.566 14.4167 15.5 14 15.5C13.5693 15.5 13.2257 15.566 12.969 15.698C12.7117 15.83 12.458 15.9757 12.208 16.135C11.958 16.295 11.67 16.441 11.344 16.573C11.0173 16.705 10.5693 16.771 10 16.771C9.44467 16.771 9.00033 16.705 8.667 16.573C8.33367 16.441 8.042 16.295 7.792 16.135C7.542 15.9757 7.285 15.83 7.021 15.698C6.757 15.566 6.41667 15.5 6 15.5C5.58333 15.5 5.243 15.566 4.979 15.698C4.715 15.83 4.458 15.9757 4.208 16.135C3.958 16.295 3.67 16.441 3.344 16.573C3.01733 16.705 2.56933 16.771 2 16.771ZM2 13.188V11.688C2.41667 11.688 2.757 11.622 3.021 11.49C3.285 11.358 3.542 11.212 3.792 11.052C4.042 10.892 4.33367 10.7463 4.667 10.615C5.00033 10.483 5.44467 10.417 6 10.417C6.56933 10.417 7.01733 10.483 7.344 10.615C7.67 10.7463 7.958 10.892 8.208 11.052C8.458 11.212 8.715 11.358 8.979 11.49C9.243 11.622 9.58333 11.688 10 11.688C10.4307 11.688 10.7743 11.622 11.031 11.49C11.2883 11.358 11.542 11.212 11.792 11.052C12.042 10.892 12.33 10.7463 12.656 10.615C12.9827 10.483 13.4307 10.417 14 10.417C14.5693 10.417 15.0173 10.483 15.344 10.615C15.67 10.7463 15.958 10.892 16.208 11.052C16.458 11.212 16.715 11.358 16.979 11.49C17.243 11.622 17.5833 11.688 18 11.688V13.188C17.4447 13.188 17.0003 13.122 16.667 12.99C16.3337 12.858 16.042 12.712 15.792 12.552C15.542 12.392 15.285 12.2463 15.021 12.115C14.757 11.983 14.4167 11.917 14 11.917C13.5693 11.917 13.2257 11.983 12.969 12.115C12.7117 12.2463 12.458 12.392 12.208 12.552C11.958 12.712 11.67 12.858 11.344 12.99C11.0173 13.122 10.5693 13.188 10 13.188C9.44467 13.188 9.00033 13.122 8.667 12.99C8.33367 12.858 8.042 12.712 7.792 12.552C7.542 12.392 7.285 12.2463 7.021 12.115C6.757 11.983 6.41667 11.917 6 11.917C5.58333 11.917 5.243 11.983 4.979 12.115C4.715 12.2463 4.458 12.392 4.208 12.552C3.958 12.712 3.67 12.858 3.344 12.99C3.01733 13.122 2.56933 13.188 2 13.188ZM2 9.583V8.083C2.41667 8.083 2.757 8.017 3.021 7.885C3.285 7.75367 3.542 7.608 3.792 7.448C4.042 7.288 4.33367 7.142 4.667 7.01C5.00033 6.878 5.44467 6.812 6 6.812C6.56933 6.812 7.01733 6.878 7.344 7.01C7.67 7.142 7.958 7.288 8.208 7.448C8.458 7.608 8.715 7.75367 8.979 7.885C9.243 8.017 9.58333 8.083 10 8.083C10.4307 8.083 10.7743 8.017 11.031 7.885C11.2883 7.75367 11.542 7.608 11.792 7.448C12.042 7.288 12.33 7.142 12.656 7.01C12.9827 6.878 13.4307 6.812 14 6.812C14.5693 6.812 15.0173 6.878 15.344 7.01C15.67 7.142 15.958 7.288 16.208 7.448C16.458 7.608 16.715 7.75367 16.979 7.885C17.243 8.017 17.5833 8.083 18 8.083V9.583C17.4447 9.583 17.0003 9.517 16.667 9.385C16.3337 9.25367 16.042 9.108 15.792 8.948C15.542 8.788 15.285 8.642 15.021 8.51C14.757 8.378 14.4167 8.312 14 8.312C13.5693 8.312 13.2257 8.378 12.969 8.51C12.7117 8.642 12.458 8.788 12.208 8.948C11.958 9.108 11.67 9.25367 11.344 9.385C11.0173 9.517 10.5693 9.583 10 9.583C9.44467 9.583 9.00033 9.517 8.667 9.385C8.33367 9.25367 8.042 9.108 7.792 8.948C7.542 8.788 7.285 8.642 7.021 8.51C6.757 8.378 6.41667 8.312 6 8.312C5.58333 8.312 5.243 8.378 4.979 8.51C4.715 8.642 4.458 8.788 4.208 8.948C3.958 9.108 3.67 9.25367 3.344 9.385C3.01733 9.517 2.56933 9.583 2 9.583ZM2 6V4.5C2.41667 4.5 2.757 4.434 3.021 4.302C3.285 4.17 3.542 4.02434 3.792 3.865C4.042 3.705 4.33367 3.559 4.667 3.427C5.00033 3.295 5.44467 3.229 6 3.229C6.56933 3.229 7.01733 3.295 7.344 3.427C7.67 3.559 7.958 3.705 8.208 3.865C8.458 4.02434 8.715 4.17 8.979 4.302C9.243 4.434 9.58333 4.5 10 4.5C10.4307 4.5 10.7743 4.434 11.031 4.302C11.2883 4.17 11.542 4.02434 11.792 3.865C12.042 3.705 12.3337 3.559 12.667 3.427C13.0003 3.295 13.4447 3.229 14 3.229C14.5693 3.229 15.0173 3.295 15.344 3.427C15.67 3.559 15.958 3.705 16.208 3.865C16.458 4.02434 16.715 4.17 16.979 4.302C17.243 4.434 17.5833 4.5 18 4.5V6C17.4447 6 17.0003 5.934 16.667 5.802C16.3337 5.67 16.042 5.52434 15.792 5.365C15.542 5.205 15.285 5.059 15.021 4.927C14.757 4.795 14.4167 4.729 14 4.729C13.5693 4.729 13.2257 4.795 12.969 4.927C12.7117 5.059 12.458 5.205 12.208 5.365C11.958 5.52434 11.67 5.67 11.344 5.802C11.0173 5.934 10.5693 6 10 6C9.44467 6 9.00033 5.934 8.667 5.802C8.33367 5.67 8.042 5.52434 7.792 5.365C7.542 5.205 7.285 5.059 7.021 4.927C6.757 4.795 6.41667 4.729 6 4.729C5.58333 4.729 5.243 4.795 4.979 4.927C4.715 5.059 4.458 5.205 4.208 5.365C3.958 5.52434 3.67 5.67 3.344 5.802C3.01733 5.934 2.56933 6 2 6Z" fill="#EB5757"/>
</svg>
