<svg width="159" height="25" viewBox="0 0 159 25" fill="none" xmlns="http://www.w3.org/2000/svg">
<g clip-path="url(#clip0_152_341)">
<path d="M43.3145 17.2941L43.3062 10.9963C43.3035 9.44545 43.3007 7.2671 45.9784 6.19068C46.6707 5.91775 47.4184 5.80551 48.1605 5.80806C50.8604 5.81317 52.0317 7.08855 52.5135 7.9303C52.8514 8.52973 53.012 9.20568 53.012 9.88418C53.012 10.6749 52.8735 11.4835 52.4111 12.1595C51.2951 13.82 49.3429 13.9144 48.3322 13.9118L47.6731 13.9093L47.6704 10.7795H47.9888C48.6617 10.782 48.9995 10.3637 48.9995 9.92499C48.9995 9.44035 48.5731 9.06794 48.0747 9.06794C47.1719 9.06538 47.1719 9.87398 47.1747 10.3892L47.1802 17.2992L43.3145 17.2941ZM58.301 11.6697C58.301 12.9145 59.4197 13.9322 60.7849 13.9348C62.1528 13.9373 63.266 12.9221 63.266 11.6774C63.266 10.4351 62.1445 9.41484 60.7794 9.41229C59.417 9.41229 58.2982 10.4275 58.301 11.6697ZM54.2913 11.6621C54.2858 8.46851 57.2127 5.82337 60.7766 5.83102C64.346 5.83612 67.2757 8.48891 67.2785 11.685C67.2813 14.8811 64.3598 17.5237 60.7932 17.5186C57.2266 17.5135 54.2969 14.8582 54.2913 11.6621ZM68.1037 17.3375L71.8475 17.3452L72.2158 11.1953C72.2324 10.8892 72.2463 10.6979 72.3017 10.6979C72.3737 10.6979 72.4429 10.8739 72.5509 11.3279L73.6225 15.6565C74.0157 17.2533 74.301 17.5441 75.1677 17.5467C76.0898 17.5492 76.3584 17.2406 76.7461 15.6591L77.8205 11.3356C77.9257 10.8841 77.9811 10.703 78.0504 10.703C78.103 10.703 78.1223 10.8968 78.139 11.2055L78.5211 17.3554L82.2622 17.3605L81.4176 8.2721C81.3456 7.54513 81.0742 5.86673 78.8562 5.86163C76.8347 5.85653 76.4276 6.95336 76.1812 7.84102L75.3477 10.8586C75.2785 11.0856 75.2259 11.1953 75.1732 11.1953C75.1206 11.1953 75.0486 11.083 74.996 10.8586L74.1764 7.83592C73.9438 6.94825 73.5173 5.85143 71.4931 5.84633C69.275 5.84378 69.0092 7.51963 68.9427 8.24659L68.1037 17.3375ZM83.2951 17.3656L87.1635 17.3707L87.158 12.7716H87.5124C87.7257 12.7716 88.2407 12.7716 88.5065 13.093C88.7364 13.3685 88.7198 13.9169 88.7198 14.3531L88.7225 17.3681L92.5938 17.3783L92.5882 14.3097C92.5855 13.2282 92.5328 11.583 90.6665 11.0626C91.4086 10.3841 91.428 10.175 91.7824 9.19037L92.8956 6.07845L89.0105 6.07079L87.9306 9.13681C87.7201 9.71583 87.5595 10.1214 87.3297 10.1214H87.1524L87.1497 6.07079L83.2784 6.06314L83.2951 17.3656ZM98.3065 17.3885L98.3009 10.4811C98.3009 9.96325 98.2981 9.15721 99.2036 9.15721C99.6993 9.15976 100.126 9.53217 100.126 10.0143C100.126 10.4504 99.7907 10.8688 99.115 10.8688H98.7966L98.7994 13.9986H99.4556C100.466 14.0011 102.419 13.9093 103.535 12.2462C103.994 11.5677 104.135 10.7616 104.135 9.9709C104.135 9.29495 103.975 8.61645 103.637 8.01702C103.155 7.17782 101.984 5.89989 99.2867 5.89479C98.5418 5.89479 97.7969 6.00447 97.1047 6.27996C94.4242 7.35638 94.4297 9.53728 94.4325 11.0856L94.438 17.3809L98.3065 17.3885ZM109.843 16.3835C109.973 16.1795 110.086 15.9652 110.197 15.7484L111.648 12.8941L111.773 12.6594V13.0216V14.5725L111.778 17.414L115.647 17.4217L115.633 6.12181L111.767 6.11671V7.0962C111.623 7.31301 111.499 7.54768 111.377 7.77725L109.837 10.7259V10.0194L109.834 8.95825L109.832 6.1116L105.963 6.10395L105.977 17.4038L109.845 17.4115V16.3835H109.843ZM121.442 11.7819C121.445 13.0242 122.564 14.0445 123.929 14.047C125.297 14.0496 126.413 13.0344 126.41 11.7896C126.407 10.5474 125.289 9.52707 123.924 9.52707C122.558 9.52197 121.44 10.5372 121.442 11.7819ZM117.43 11.7743C117.427 8.57819 120.351 5.9356 123.918 5.9407C127.487 5.94836 130.417 8.60115 130.42 11.7972C130.423 14.9934 127.498 17.6359 123.932 17.6308C120.368 17.6232 117.436 14.9678 117.43 11.7743ZM139.871 6.16262L136.908 6.15752C135.701 6.15497 134.07 6.18558 133.004 7.13446C131.924 8.1012 131.907 9.52197 131.907 10.7157L131.915 17.4472L135.784 17.4548L135.778 10.7565C135.778 10.402 135.739 9.99641 136.005 9.67502C136.29 9.35362 136.628 9.38678 136.963 9.38678L139.874 9.38933L139.871 6.16262ZM149.33 17.4803L153.199 17.4854L153.196 13.0956L155.129 13.1007L155.134 17.488L159.003 17.4956L158.989 6.19578L155.12 6.19068L155.126 10.0959L153.193 10.0933L153.185 6.18558L149.316 6.17792L149.33 17.4803ZM148.023 10.3561L143.978 10.3484C144.241 9.92754 144.861 9.28475 146.406 9.2873H148.02L148.018 6.06059L146.351 6.05804C142.2 6.05039 139.788 8.61135 139.791 11.6952C139.793 14.7791 142.194 17.3477 146.417 17.3579L148.029 17.3605L148.026 14.1312L146.412 14.1286C144.866 14.1261 144.243 13.4808 143.98 13.0599L148.026 13.065L148.023 10.3561ZM32.8168 9.75154L32.8251 17.2737L36.6797 17.2814L36.6714 9.75664C36.6853 9.22098 37.012 9.00162 37.4606 8.99651H37.4662C37.9148 9.00162 38.2415 9.22353 38.2581 9.75664L38.2664 17.2814L42.1238 17.289L42.1127 9.76429C42.1127 8.4532 41.4869 7.36913 40.5786 6.66512C39.7258 6.00702 38.6236 5.68818 37.5132 5.63716V5.63461H37.4966H37.4634H37.4302H37.4135V5.63716C36.3031 5.68308 35.1983 5.99937 34.3481 6.65492C33.4343 7.35893 32.8113 8.44045 32.8168 9.75154Z" fill="#223B80"/>
<path fill-rule="evenodd" clip-rule="evenodd" d="M11.9266 9.8153L11.9072 11.3432C12.8072 11.5651 13.4718 12.3099 13.4718 13.1976C13.4718 13.5496 13.3666 13.8787 13.1838 14.1643L15.0502 15.2459C15.4046 14.751 15.9889 14.4245 16.6535 14.4245C17.2433 14.4245 17.7695 14.6796 18.1294 15.0826L19.1263 14.3556C18.8494 13.8532 18.8466 13.2945 19.1734 12.8839C19.4115 12.5854 19.7826 12.4145 20.198 12.3788L20.137 10.981C19.7881 10.958 19.4198 10.8356 19.0931 10.6137C18.351 10.1137 18.0741 9.28219 18.4396 8.70572L17.019 7.89457C16.7393 8.14455 16.335 8.3027 15.8864 8.3027C15.2911 8.3027 14.776 8.02721 14.5268 7.62164L13.5465 7.90733C13.5798 8.02466 13.5992 8.142 13.5992 8.26699C13.5992 9.05772 12.8709 9.71072 11.9266 9.8153Z" fill="#223B80"/>
<path fill-rule="evenodd" clip-rule="evenodd" d="M19.8296 15.1081C19.6136 14.9627 19.4309 14.7918 19.2897 14.6031L18.3094 15.3199C18.5005 15.6157 18.6112 15.9677 18.6112 16.3453C18.6112 17.4064 17.7362 18.266 16.6562 18.266C15.5763 18.266 14.7012 17.4064 14.7012 16.3453C14.7012 16.0417 14.7732 15.7535 14.9006 15.4984L13.0065 14.4016C12.6189 14.8403 12.0207 15.1183 11.3534 15.1183C10.6029 15.1183 9.94666 14.7663 9.56729 14.2358L5.21423 15.6693L12.1703 22.0768C12.929 22.7757 14.1723 22.7757 14.9311 22.0768L22.2083 15.3734L22.0699 15.2561C21.4966 15.6515 20.5745 15.6081 19.8296 15.1081Z" fill="#223B80"/>
<path fill-rule="evenodd" clip-rule="evenodd" d="M9.22948 13.1976C9.22948 12.1365 10.1793 11.2769 11.3506 11.2769C11.4337 11.2769 11.5168 11.282 11.5971 11.2897L11.6165 9.83062C10.5697 9.81021 9.73069 9.11896 9.73069 8.26955C9.73069 7.915 9.87469 7.59105 10.1184 7.33087L8.44305 6.36414L3.15127 11.231C2.39253 11.9299 2.39253 13.0752 3.15127 13.7715L4.96504 15.4423L9.41224 13.9782C9.29317 13.7409 9.22948 13.4757 9.22948 13.1976Z" fill="#223B80"/>
<path fill-rule="evenodd" clip-rule="evenodd" d="M14.9255 2.92826C14.1945 2.25231 13.0204 2.16048 12.2063 2.85939C12.2201 2.85939 9.27653 5.5887 8.66455 6.15497L10.3454 7.12426C10.6915 6.86663 11.154 6.70849 11.6607 6.70849C12.4527 6.70849 13.1339 7.0911 13.433 7.64206L14.4049 7.36148C14.38 7.2722 14.3662 7.17783 14.3662 7.08345C14.3662 6.40495 15.0474 5.85653 15.8836 5.85653C16.7199 5.85653 17.4039 6.40495 17.4039 7.08345C17.4039 7.29771 17.3347 7.49922 17.2156 7.67267L18.6334 8.48126C19.1318 8.03998 20.0346 8.04763 20.7518 8.52973C21.5354 9.05774 21.7985 9.95305 21.3416 10.5295C21.1339 10.7923 20.8127 10.9402 20.4527 10.9785L20.5136 12.3788C20.9041 12.4069 21.3111 12.5421 21.6766 12.7869C22.5489 13.3736 22.8424 14.371 22.3301 15.0138C22.3191 15.0265 22.308 15.0418 22.2969 15.0546L22.4298 15.1668L23.5181 14.1669V14.1797L23.9805 13.7537C24.7393 13.0522 24.7393 11.9095 23.9805 11.2106C21.1034 8.55524 17.9134 5.67798 14.9255 2.92826Z" fill="#223B80"/>
<path fill-rule="evenodd" clip-rule="evenodd" d="M25.8084 9.52488C22.7901 6.74455 19.7607 3.99993 16.7451 1.22216C14.9784 -0.405229 12.0985 -0.405229 10.3318 1.22216C7.29689 4.01524 4.3727 6.742 1.32667 9.54784C-0.440026 11.1778 -0.440026 13.828 1.32667 15.4554C4.3367 18.2306 7.3495 21.0033 10.3595 23.7785C12.1262 25.4059 15.0061 25.4059 16.7728 23.7785C19.7884 21.0007 22.7929 18.2102 25.8084 15.4324C27.5779 13.8051 27.5779 11.1523 25.8084 9.52488ZM25.094 14.7718C22.0591 17.5674 19.0407 20.3707 16.0556 23.1204C14.6849 24.3831 12.4475 24.3831 11.074 23.1204C8.06671 20.3478 5.0539 17.57 2.0411 14.7947C0.67039 13.5296 0.67039 11.4711 2.0411 10.2085C5.07883 7.41285 8.04732 4.64528 11.0463 1.88025C12.417 0.617626 14.6544 0.617626 16.0252 1.88025C19.038 4.65293 22.0674 7.39755 25.094 10.1855C26.4647 11.4482 26.4647 13.5092 25.094 14.7718Z" fill="#223B80"/>
</g>
<defs>
<clipPath id="clip0_152_341">
<rect width="159" height="25" fill="white"/>
</clipPath>
</defs>
</svg>
