<svg width="23" height="13" viewBox="0 0 23 13" fill="none" xmlns="http://www.w3.org/2000/svg">
<g clip-path="url(#clip0_97_85)">
<path d="M13.3992 3.11675C13.3992 3.76711 13.3862 4.41792 13.406 5.06783C13.4136 5.32438 13.4594 5.5926 13.5502 5.83166C13.746 6.34746 14.1804 6.44883 14.5384 6.03439C15.0348 5.45894 15.5137 4.86106 15.9314 4.22729C16.5527 3.28405 17.0266 2.25783 17.4394 1.20559C17.4695 1.12934 17.5073 1.05579 17.5378 0.979985C17.6923 0.599189 17.9812 0.442206 18.3846 0.444448C19.3126 0.450279 20.2412 0.445794 21.1692 0.445794C21.4387 0.445794 21.7083 0.444897 21.9778 0.448933C22.0973 0.450728 22.2181 0.452522 22.3358 0.470911C22.9476 0.566895 23.1134 0.835112 22.9301 1.42447C22.6965 2.17709 22.2788 2.83328 21.8233 3.46346C21.1319 4.42106 20.419 5.36296 19.7183 6.31427C19.5988 6.47619 19.4883 6.64618 19.3881 6.82066C19.1707 7.19876 19.1918 7.57328 19.4802 7.9007C19.7511 8.20883 20.044 8.49903 20.3409 8.78295C21.0767 9.48623 21.8201 10.1823 22.4198 11.0108C22.6027 11.2633 22.7769 11.5315 22.8973 11.8168C22.9732 11.9971 22.9764 12.2267 22.9512 12.4267C22.9117 12.7443 22.6606 12.982 22.3426 12.9847C21.0857 12.9964 19.8279 13.0076 18.571 12.9784C17.8509 12.9618 17.2863 12.5743 16.8065 12.0612C16.3213 11.5423 15.8434 11.0161 15.3555 10.4999C15.2334 10.3703 15.0919 10.2554 14.9468 10.1509C14.4809 9.8159 14.0048 9.92264 13.7945 10.4523C13.6427 10.8354 13.5681 11.2507 13.481 11.6566C13.4311 11.8885 13.4352 12.1316 13.3965 12.3671C13.3449 12.6811 13.1531 12.8896 12.8373 12.9264C12.4375 12.9731 12.0332 13.004 11.6307 13.0009C8.77732 12.9771 6.55597 11.714 4.81393 9.51538C3.08088 7.32659 1.75257 4.90008 0.584623 2.37893C0.414822 2.01293 0.235138 1.65142 0.0828555 1.2787C-0.115695 0.792951 0.0419773 0.53505 0.562612 0.472705C0.754874 0.449831 0.951178 0.452522 1.14524 0.452073C2.06612 0.450728 2.98655 0.455213 3.90743 0.451625C4.34316 0.449831 4.65402 0.64449 4.83909 1.03067C5.18094 1.74427 5.47248 2.48523 5.86104 3.17192C6.3417 4.02187 6.88749 4.83639 7.43238 5.64777C7.58152 5.87023 7.80972 6.05368 8.03387 6.20887C8.34697 6.42551 8.63761 6.34253 8.78001 5.9882C8.89501 5.70114 8.98081 5.39031 9.01046 5.08352C9.11243 4.03219 9.12276 2.97861 8.94128 1.93265C8.84649 1.3868 8.51992 1.04054 7.97907 0.899251C7.58646 0.796539 7.57837 0.742268 7.8497 0.431441C8.11653 0.125548 8.45523 0.00444686 8.84515 0.00310129C10.058 -3.83774e-05 11.2704 -0.00228099 12.4833 0.00399833C13.0556 0.007138 13.3831 0.385243 13.392 1.05399C13.4015 1.74158 13.3943 2.42961 13.3943 3.1172C13.3952 3.11675 13.397 3.11675 13.3992 3.11675Z" fill="black"/>
</g>
<defs>
<clipPath id="clip0_97_85">
<rect width="23" height="13" fill="white"/>
</clipPath>
</defs>
</svg>
