<svg width="100" height="100" viewBox="0 0 100 100" fill="none" xmlns="http://www.w3.org/2000/svg">
<path d="M56.0751 56.8335C54.2536 56.8335 52.3967 56.7766 50.5059 56.6643C41.2336 56.1089 31.9874 54.2751 24.0475 52.5997C21.3951 52.0412 18.0936 51.3458 15.549 49.372C13.0782 47.4551 11.3167 43.8551 12.7321 40.6828C13.5951 38.7474 15.5675 37.3351 17.9767 36.8366C17.6567 36.372 17.4275 35.8274 17.2998 35.2258C17.009 33.8474 17.3044 32.3597 18.0875 31.2458C19.329 29.4797 21.6474 28.4181 24.2905 28.4043H24.3505C26.3198 28.4043 28.2151 28.9181 30.049 29.4151L30.7198 29.5966C43.7336 33.0689 57.5336 33.2335 70.6228 30.0751L71.149 29.9474C72.7505 29.5551 74.3859 29.1489 76.1213 29.1705C78.3905 29.1981 80.3598 30.0412 81.5259 31.4828C83.0382 33.352 82.9536 35.9074 81.9582 38.0381C82.5059 38.0935 83.0644 38.2443 83.6105 38.492C85.1644 39.192 86.3644 40.5381 86.8228 42.0905C87.5844 44.6751 86.6075 47.7674 84.3351 49.9674C82.269 51.9674 79.5505 53.0212 77.1644 53.7889C70.8767 55.8135 63.8028 56.8335 56.0751 56.8335ZM19.9598 38.1781C19.8705 38.1781 19.7813 38.1781 19.6921 38.1812C17.7475 38.2335 15.1275 39.0843 14.1367 41.3089C13.0551 43.732 14.5428 46.6443 16.4905 48.1551C18.7567 49.912 21.8644 50.5658 24.3644 51.0935C32.249 52.7581 41.429 54.5781 50.5982 55.1289C60.3228 55.7089 69.1044 54.7705 76.6905 52.3258C78.9074 51.612 81.4244 50.6428 83.2628 48.8628C85.129 47.0566 85.9459 44.5689 85.3459 42.5258C85.0167 41.4135 84.109 40.4058 82.9767 39.8935C82.309 39.592 81.6336 39.492 81.009 39.592C80.669 40.032 80.2859 40.4305 79.8721 40.7735C77.2674 42.9243 73.8182 43.4689 70.789 43.8105C56.1351 45.4612 40.9351 44.032 26.8459 39.6705L26.2413 39.4828C24.1859 38.8412 22.0659 38.1781 19.9598 38.1781ZM19.9644 36.6397C22.2982 36.6397 24.5351 37.3381 26.6982 38.0135L27.2982 38.2012C41.1875 42.4997 56.169 43.9135 70.6167 42.2812C73.4244 41.9643 76.6121 41.4705 78.8921 39.5874C78.9982 39.4997 79.1028 39.4074 79.2044 39.3105C79.1136 38.9581 79.2844 38.5812 79.6244 38.4228C79.7813 38.3505 79.9398 38.2874 80.1044 38.2335C81.2859 36.4612 81.6475 34.0812 80.329 32.4505C79.4521 31.3658 77.9121 30.7305 76.1028 30.7089C74.5598 30.672 73.0244 31.072 71.5151 31.4412L70.9828 31.5705C57.6459 34.7905 43.5844 34.6243 30.3228 31.0843L29.6459 30.9012C27.909 30.4305 26.1136 29.9428 24.3505 29.9428C24.3321 29.9428 24.3151 29.9428 24.2998 29.9428C22.1521 29.9535 20.2998 30.7705 19.3459 32.1305C18.8105 32.8905 18.6028 33.9551 18.8044 34.9089C18.9659 35.6751 19.3721 36.2874 19.9459 36.6335C19.949 36.6366 19.9536 36.6366 19.9567 36.6397H19.9644Z" fill="#898989"/>
<path d="M71.698 31.0444C71.378 31.0444 71.0795 30.8429 70.9687 30.5229C70.8318 30.1198 71.0472 29.6844 71.4503 29.5475C72.4441 29.2091 73.2426 28.3306 73.4826 27.3091C73.7026 26.3768 73.4872 25.4137 72.8918 24.6691C72.1518 23.7398 70.901 23.2583 69.3334 23.2429C68.1964 23.2491 67.0749 23.5029 65.8872 23.7737L65.3287 23.8998C56.4718 25.8583 47.1949 25.5352 38.498 22.9629L37.8149 22.7552C35.501 22.0398 32.001 20.9583 29.6764 22.8121C28.661 23.6229 28.1133 24.8906 28.218 26.2029C28.321 27.5291 29.0395 28.6629 30.1872 29.3152C30.5564 29.5244 30.6857 29.9937 30.4764 30.3644C30.2657 30.7352 29.7964 30.8614 29.4272 30.6537C27.8518 29.7598 26.8272 28.1398 26.6841 26.326C26.541 24.5044 27.301 22.7414 28.718 21.6121C31.6764 19.2521 35.8041 20.526 38.2687 21.2891L38.9349 21.4921C47.3857 23.9891 56.3964 24.306 64.9949 22.4029L65.5472 22.2783C66.7626 22.0029 68.0195 21.7168 69.3241 21.7091H69.3733C71.3872 21.7091 73.061 22.4198 74.0933 23.7152C74.9826 24.8321 75.3057 26.2721 74.9764 27.6675C74.618 29.1921 73.4272 30.5044 71.9426 31.0091C71.8641 31.0321 71.781 31.0444 71.698 31.0444Z" fill="#898989"/>
<path d="M61.5708 24.134C61.1585 24.134 60.8185 23.8094 60.8016 23.394C60.7846 22.9694 61.1154 22.6124 61.54 22.5955C62.4046 22.5601 63.2508 22.0601 63.697 21.3186C64.1446 20.577 64.1893 19.5924 63.8154 18.814C63.3108 17.7663 62.137 17.0878 61.0754 16.5355C58.6108 15.2478 56.02 14.1417 53.3785 13.2494L52.9431 13.1032C51.8323 12.7324 50.6846 12.3509 49.6354 11.714C48.1139 10.7909 47.1646 9.53859 46.8923 8.09243C46.6246 6.67243 47.0523 5.13705 48.0954 3.76936C48.2908 3.51551 48.4985 3.27551 48.7185 3.04628C45.1216 4.0032 40.9108 5.7109 39.2493 9.59705C38.2523 11.9263 38.6493 14.6417 40.2154 16.2032C40.62 16.6047 41.1 16.9494 41.6108 17.3155C42.6908 18.0894 43.917 18.9678 44.3077 20.5186C44.6093 21.717 44.1416 23.274 42.8354 23.8032C42.5016 23.9417 42.1016 23.8201 41.9016 23.5094C41.7 23.2001 41.7462 22.7924 42.0123 22.537L42.5493 22.0217C42.6016 21.9709 42.66 21.9294 42.7216 21.8955C42.8616 21.5909 42.8939 21.2094 42.8154 20.8955C42.5631 19.8924 41.7062 19.2786 40.7139 18.5678C40.177 18.1832 39.6216 17.7847 39.1308 17.294C37.1293 15.3001 36.597 11.8847 37.8339 8.99243C40.2954 3.23859 47.1923 1.7509 51.3139 0.860127L51.6523 0.786281C52.017 0.709357 52.3754 0.895511 52.5216 1.23243C52.6677 1.56936 52.5539 1.96167 52.2539 2.1709C51.0908 2.97551 50.0677 3.7232 49.3185 4.70474C48.5308 5.73397 48.2154 6.80782 48.4031 7.80936C48.5923 8.81397 49.2939 9.70936 50.4323 10.4001C51.3339 10.9463 52.3523 11.2863 53.4293 11.6447L53.8708 11.7924C56.5893 12.7109 59.2523 13.8463 61.7893 15.1709C63.0693 15.8386 64.4954 16.674 65.2031 18.1463C65.8077 19.3986 65.737 20.9186 65.0185 22.1124C64.3 23.3032 62.9923 24.0786 61.6016 24.1324C61.5908 24.134 61.58 24.134 61.5708 24.134Z" fill="#898989"/>
<path d="M47.946 99.2304C41.346 99.2304 34.726 98.6412 28.2722 97.4797C20.266 96.0366 18.4198 93.3135 16.9321 85.8612C16.3321 82.8566 15.7568 79.8428 15.1798 76.8289C14.0521 70.9212 12.8845 64.8135 11.546 58.8643C11.4521 58.4505 11.2429 58.0043 11.0214 57.5335C10.4706 56.3597 9.78292 54.8981 10.8675 53.3997C11.8768 52.0058 14.2629 51.7012 15.5906 52.8135C16.2568 53.3704 16.6445 54.1489 16.986 54.8351C17.3568 55.5797 17.6768 56.2243 18.2383 56.4781C18.906 56.7797 19.7737 56.4043 20.7168 55.9689C21.5291 55.592 22.3706 55.2028 23.3091 55.1597C23.3214 55.1597 23.4752 55.1566 23.4875 55.1566C25.1691 55.1566 26.4091 56.232 27.6091 57.2735C28.5921 58.1258 29.5198 58.9305 30.5921 59.0658C31.5075 59.1812 32.4121 58.8089 33.3952 58.4151C34.4768 57.9812 35.6106 57.5243 36.8537 57.6474C38.326 57.7858 39.4521 58.6535 40.5429 59.4935C41.4368 60.1828 42.2829 60.8335 43.2383 61.0166C44.5737 61.2689 45.8491 60.6274 47.246 59.9412C48.5645 59.2951 49.926 58.6258 51.4475 58.6258L51.7106 58.632C53.3383 58.7166 54.6952 59.5751 56.0091 60.4043C57.2398 61.1812 58.4029 61.9151 59.6429 61.9151L59.8152 61.9104C61.0675 61.8412 62.1552 61.0166 63.306 60.1428C64.3475 59.3504 65.426 58.5335 66.746 58.1735C67.9952 57.8351 69.5445 58.0043 70.9537 58.2289C71.6537 58.3397 72.3137 58.4443 72.9691 58.472L73.306 58.4781C75.8198 58.4781 78.3091 57.3289 80.506 56.3151C82.0783 55.5904 83.8598 54.7674 84.9491 53.3689L85.1398 53.1181C85.7583 52.3012 86.5521 51.252 87.8429 51.4289C88.3737 51.4997 88.8245 51.7674 89.146 52.2043C89.9014 53.2304 89.6998 54.8597 89.6214 55.3335L85.1552 81.9489C83.6214 91.092 81.5152 94.4889 72.0706 96.5889C64.1875 98.3412 56.0721 99.2304 47.946 99.2304ZM13.5429 53.6366C12.9598 53.6366 12.4137 53.892 12.1152 54.3028C11.5875 55.0305 11.8706 55.7212 12.4137 56.8797C12.6598 57.4058 12.9152 57.9489 13.046 58.5274C14.3906 64.5012 15.5598 70.6228 16.6906 76.5412C17.266 79.552 17.8398 82.5597 18.4398 85.5612C19.8152 92.4597 21.3091 94.6628 28.5445 95.9658C42.7429 98.5243 57.6506 98.2212 71.7352 95.0889C80.446 93.1535 82.1845 90.3458 83.6352 81.6981L88.1014 55.0812C88.2383 54.2674 88.1583 53.4612 87.906 53.1197C87.8321 53.0197 87.7537 52.972 87.6368 52.9566C87.6352 52.9566 87.6337 52.9566 87.6321 52.9566C87.1937 52.9566 86.7337 53.5612 86.3645 54.0489L86.1614 54.3151C84.8429 56.0074 82.7952 56.9535 81.1506 57.712C78.6998 58.8428 75.8891 60.132 72.906 60.0089C72.1614 59.9781 71.4245 59.8612 70.7122 59.7489C69.3998 59.5397 68.1321 59.392 67.1491 59.6581C66.1183 59.9381 65.2029 60.6335 64.2352 61.3674C62.9506 62.3428 61.6245 63.352 59.8998 63.4458L59.6429 63.4535C57.9568 63.4535 56.5491 62.5643 55.1875 61.7043C53.9891 60.9474 52.8552 60.232 51.6291 60.1674L51.4475 60.1628C50.2845 60.1628 49.1383 60.7258 47.9245 61.3212C46.3752 62.0828 44.7398 62.8705 42.9506 62.5274C41.6352 62.2751 40.6029 61.4797 39.6045 60.712C38.646 59.9735 37.7398 59.2751 36.7091 59.1781C35.8075 59.0997 34.9275 59.4566 33.9675 59.8428C32.8506 60.2889 31.6706 60.7504 30.3998 60.592C28.866 60.3997 27.7152 59.4012 26.6014 58.4351C25.5706 57.5397 24.5952 56.6951 23.4891 56.6951C22.746 56.7274 22.0752 57.0381 21.3645 57.3674C20.1721 57.9181 18.7922 58.4197 17.606 57.8812C16.546 57.4028 16.0475 56.4043 15.6091 55.5228C15.3075 54.9181 15.0229 54.3458 14.6029 53.9951C14.3275 53.7628 13.9506 53.6366 13.5429 53.6366Z" fill="#898989"/>
<path d="M12.3105 53.78C11.8966 53.78 11.5551 53.4523 11.5413 53.0369C11.5028 51.8277 11.732 50.6031 12.2074 49.4939C12.5705 48.6416 13.2166 47.4508 14.6228 46.9554C15.0274 46.8154 15.4643 47.0262 15.6043 47.4262C15.7459 47.8262 15.5351 48.2662 15.1336 48.4077C14.4905 48.6354 14.0243 49.1554 13.6228 50.1C13.2351 51.0046 13.0474 52.0031 13.0813 52.9877C13.0951 53.4123 12.7613 53.7677 12.3382 53.7816C12.3259 53.78 12.3182 53.78 12.3105 53.78Z" fill="#898989"/>
<path d="M87.8151 52.9015C87.7335 52.9015 87.6535 52.8892 87.572 52.8615C87.1674 52.7277 86.952 52.2907 87.0859 51.8877C87.3412 51.1261 87.2751 50.2431 86.912 49.5261C86.5474 48.8107 85.8705 48.24 85.1028 47.9984C84.6982 47.8707 84.4735 47.4384 84.6012 47.0338C84.7274 46.6277 85.1535 46.4061 85.5659 46.5307C86.7351 46.8984 87.7243 47.7354 88.2828 48.8277C88.8382 49.9215 88.9351 51.2138 88.5474 52.3769C88.4366 52.6969 88.1366 52.9015 87.8151 52.9015Z" fill="#898989"/>
<path d="M77.5705 93.2988C77.472 93.2988 77.3735 93.2619 77.2982 93.1865L69.0428 84.9311C68.892 84.7804 68.892 84.5373 69.0428 84.3865C69.1935 84.2357 69.4366 84.2357 69.5874 84.3865L77.8428 92.6419C77.9935 92.7927 77.9935 93.0357 77.8428 93.1865C77.7674 93.2619 77.6689 93.2988 77.5705 93.2988Z" fill="#898989"/>
<path d="M79.6166 90.803C79.5181 90.803 79.4197 90.766 79.3443 90.6907L71.5535 82.8999C71.4027 82.7491 71.4027 82.506 71.5535 82.3553C71.7043 82.2045 71.9474 82.2045 72.0981 82.3553L79.8889 90.146C80.0397 90.2968 80.0397 90.5399 79.8889 90.6907C79.8135 90.766 79.715 90.803 79.6166 90.803Z" fill="#898989"/>
<path d="M80.7118 86.2244C80.6134 86.2244 80.5149 86.1859 80.4395 86.1121L74.4441 80.1151C74.2934 79.9644 74.2934 79.7213 74.4441 79.5721C74.5949 79.4213 74.838 79.4213 74.9872 79.5721L80.9841 85.569C81.1349 85.7198 81.1349 85.9628 80.9841 86.1136C80.9087 86.1874 80.8103 86.2244 80.7118 86.2244Z" fill="#898989"/>
<path d="M83.1152 81.5613C83.0167 81.5613 82.9182 81.5244 82.8428 81.449L78.5105 77.1167C78.3598 76.9659 78.3598 76.7228 78.5105 76.5721C78.6613 76.4213 78.9044 76.4213 79.0552 76.5721L83.3859 80.9044C83.5367 81.0551 83.5367 81.2982 83.3859 81.449C83.3121 81.5244 83.2152 81.5613 83.1152 81.5613Z" fill="#898989"/>
<path d="M84.291 76.9559C84.1926 76.9559 84.0941 76.919 84.0187 76.8436L80.868 73.6928C80.7172 73.5421 80.7172 73.299 80.868 73.1482C81.0187 72.9975 81.2618 72.9975 81.4126 73.1482L84.5633 76.299C84.7141 76.4498 84.7141 76.6928 84.5633 76.8436C84.488 76.919 84.388 76.9559 84.291 76.9559Z" fill="#898989"/>
<path d="M84.9431 72.0386C84.8446 72.0386 84.7462 72.0017 84.6708 71.9263L82.6892 69.9448C82.5385 69.794 82.5385 69.551 82.6892 69.4002C82.84 69.2494 83.0831 69.2494 83.2339 69.4002L85.2154 71.3817C85.3662 71.5325 85.3662 71.7756 85.2154 71.9263C85.14 72.0002 85.0416 72.0386 84.9431 72.0386Z" fill="#898989"/>
<path d="M85.4765 69.0398C85.378 69.0398 85.2796 69.0029 85.2042 68.9275L82.4734 66.1968C82.3227 66.046 82.3227 65.8029 82.4734 65.6521C82.6242 65.5014 82.8673 65.5014 83.018 65.6521L85.7488 68.3829C85.8996 68.5337 85.8996 68.7768 85.7488 68.9275C85.6734 69.0014 85.5765 69.0398 85.4765 69.0398Z" fill="#898989"/>
<path d="M71.044 92.7265C70.9456 92.7265 70.8471 92.6896 70.7717 92.6142L65.8748 87.7173C65.724 87.5665 65.724 87.3234 65.8748 87.1726C66.0256 87.0219 66.2686 87.0219 66.4194 87.1726L71.3163 92.0696C71.4671 92.2203 71.4671 92.4634 71.3163 92.6142C71.2409 92.6896 71.144 92.7265 71.044 92.7265Z" fill="#898989"/>
<path d="M65.3273 94.2891C65.2288 94.2891 65.1304 94.2521 65.055 94.1768L60.7381 89.8598C60.5873 89.7091 60.5873 89.466 60.7381 89.3152C60.8888 89.1645 61.1319 89.1645 61.2827 89.3152L65.5996 93.6321C65.7504 93.7829 65.7504 94.026 65.5996 94.1768C65.5242 94.2506 65.4258 94.2891 65.3273 94.2891Z" fill="#898989"/>
<path d="M60.5136 95.6863C60.4152 95.6863 60.3167 95.6494 60.2413 95.574L56.5613 91.894C56.4105 91.7433 56.4105 91.5002 56.5613 91.3494C56.7121 91.1986 56.9552 91.1986 57.1059 91.3494L60.7859 95.0294C60.9367 95.1802 60.9367 95.4233 60.7859 95.574C60.7106 95.6494 60.6121 95.6863 60.5136 95.6863Z" fill="#898989"/>
<path d="M53.8526 96.8397C53.7541 96.8397 53.6557 96.8028 53.5803 96.7274L50.031 93.1782C49.8803 93.0274 49.8803 92.7844 50.031 92.6336C50.1818 92.4828 50.4249 92.4828 50.5757 92.6336L54.1249 96.1828C54.2757 96.3336 54.2757 96.5767 54.1249 96.7274C54.0495 96.8028 53.951 96.8397 53.8526 96.8397Z" fill="#898989"/>
<path d="M49.3182 98.0895C49.2197 98.0895 49.1213 98.0526 49.0459 97.9772L45.532 94.4634C45.3813 94.3126 45.3813 94.0695 45.532 93.9187C45.6828 93.768 45.9259 93.768 46.0766 93.9187L49.5905 97.4326C49.7413 97.5834 49.7413 97.8264 49.5905 97.9772C49.5151 98.0526 49.4182 98.0895 49.3182 98.0895Z" fill="#898989"/>
<path d="M41.044 98.2753C40.9456 98.2753 40.8471 98.2384 40.7717 98.163L38.0379 95.4276C37.8871 95.2769 37.8871 95.0338 38.0379 94.883C38.1902 94.7322 38.4333 94.7338 38.5825 94.883L41.3163 97.6184C41.4671 97.7692 41.4671 98.0122 41.3163 98.1615C41.241 98.2369 41.1425 98.2753 41.044 98.2753Z" fill="#898989"/>
<path d="M37.6878 98.3433C37.5878 98.3433 37.4909 98.3064 37.4155 98.231L34.7185 95.5341C34.5678 95.3833 34.5678 95.1402 34.7185 94.991C34.8693 94.8402 35.1124 94.8402 35.2632 94.991L37.9601 97.6864C38.1109 97.8372 38.1109 98.0802 37.9601 98.231C37.8847 98.3064 37.7862 98.3433 37.6878 98.3433Z" fill="#898989"/>
<path d="M45.7521 98.2705C45.6521 98.2705 45.5552 98.2336 45.4798 98.1582L41.9998 94.6782C41.849 94.5274 41.849 94.2844 41.9998 94.1336C42.1506 93.9828 42.3936 93.9828 42.5444 94.1336L46.0244 97.6136C46.1752 97.7644 46.1752 98.0074 46.0244 98.1582C45.949 98.232 45.8506 98.2705 45.7521 98.2705Z" fill="#898989"/>
<path d="M59.0876 97.6861C58.9892 97.6861 58.8907 97.6492 58.8153 97.5738L53.6707 92.4292C53.5199 92.2784 53.5199 92.0353 53.6707 91.8846C53.8215 91.7338 54.0645 91.7338 54.2153 91.8846L59.3599 97.0292C59.5107 97.1799 59.5107 97.423 59.3599 97.5738C59.2845 97.6492 59.1861 97.6861 59.0876 97.6861Z" fill="#898989"/>
<path d="M68.7382 93.8475C68.6382 93.8475 68.5413 93.8105 68.4659 93.7351L63.949 89.2167C63.7982 89.0659 63.7982 88.8228 63.949 88.6721C64.1013 88.5213 64.3444 88.5228 64.4936 88.6721L69.0105 93.1905C69.1613 93.3413 69.1613 93.5844 69.0105 93.7351C68.9352 93.809 68.8367 93.8475 68.7382 93.8475Z" fill="#898989"/>
<path d="M82.5427 84.5221C82.4443 84.5221 82.3458 84.4852 82.2704 84.4098L77.4412 79.5805C77.2904 79.4298 77.2904 79.1867 77.4412 79.0359C77.592 78.8852 77.835 78.8852 77.9858 79.0359L82.815 83.8652C82.9658 84.0159 82.9658 84.259 82.815 84.4098C82.7397 84.4852 82.6427 84.5221 82.5427 84.5221Z" fill="#898989"/>
<path d="M34.5631 97.8952C34.4647 97.8952 34.3662 97.8583 34.2908 97.7829C34.14 97.6321 34.14 97.389 34.2908 97.2383L38.3662 93.1629C38.517 93.0121 38.76 93.0121 38.9093 93.1629C39.06 93.3137 39.06 93.5567 38.9093 93.706L34.8339 97.7813C34.76 97.8583 34.6616 97.8952 34.5631 97.8952Z" fill="#898989"/>
<path d="M37.7741 98.2167C37.6756 98.2167 37.5771 98.1797 37.5017 98.1044C37.351 97.9536 37.351 97.7105 37.5017 97.5597L43.091 91.9705C43.2418 91.8197 43.4848 91.8197 43.6356 91.9705C43.7864 92.1213 43.7864 92.3643 43.6356 92.5151L38.0464 98.1044C37.971 98.1797 37.8741 98.2167 37.7741 98.2167Z" fill="#898989"/>
<path d="M43.5563 98.3246C43.4578 98.3246 43.3594 98.2876 43.284 98.2123C43.1332 98.0615 43.1332 97.8184 43.284 97.6676L51.1809 89.7723C51.3317 89.6215 51.5747 89.6215 51.7255 89.7723C51.8763 89.923 51.8763 90.1661 51.7255 90.3169L43.8286 98.2123C43.7532 98.2861 43.6563 98.3246 43.5563 98.3246Z" fill="#898989"/>
<path d="M49.1246 98.4304C49.0246 98.4304 48.9277 98.3935 48.8523 98.3181C48.7016 98.1674 48.7016 97.9243 48.8523 97.7735L58.6339 87.992C58.7846 87.8412 59.0277 87.8412 59.1785 87.992C59.3293 88.1428 59.3293 88.3858 59.1785 88.5366L49.397 98.3181C49.3216 98.3935 49.2246 98.4304 49.1246 98.4304Z" fill="#898989"/>
<path d="M56.0846 97.7893C55.9861 97.7893 55.8877 97.7524 55.8123 97.677C55.6615 97.5263 55.6615 97.2832 55.8123 97.1324L66.9615 85.9832C67.1123 85.8324 67.3554 85.8324 67.5061 85.9832C67.6569 86.134 67.6569 86.377 67.5061 86.5278L56.3569 97.677C56.2815 97.7509 56.1831 97.7893 56.0846 97.7893Z" fill="#898989"/>
<path d="M66.0426 95.4343C65.9442 95.4343 65.8457 95.3974 65.7703 95.322C65.6195 95.1712 65.6195 94.9282 65.7703 94.7774L78.3165 82.2312C78.4672 82.0805 78.7103 82.0805 78.8611 82.2312C79.0118 82.382 79.0118 82.6251 78.8611 82.7759L66.3149 95.322C66.238 95.3959 66.1411 95.4343 66.0426 95.4343Z" fill="#898989"/>
<path d="M72.1461 94.6834C72.0477 94.6834 71.9492 94.6465 71.8738 94.5711C71.723 94.4203 71.723 94.1772 71.8738 94.0265L77.6554 88.2449C77.8061 88.0941 78.0492 88.0941 78.2 88.2449C78.3507 88.3957 78.3507 88.6388 78.2 88.7895L72.4184 94.5711C72.3431 94.6465 72.2461 94.6834 72.1461 94.6834Z" fill="#898989"/>
<path d="M60.5827 97.6821C60.4842 97.6821 60.3857 97.6452 60.3103 97.5698C60.1596 97.4191 60.1596 97.176 60.3103 97.0252L66.6827 90.6514C66.755 90.5791 66.8519 90.5391 66.955 90.5391H67.6519C67.8642 90.5391 68.0365 90.7114 68.0365 90.9237C68.0365 91.136 67.8642 91.3083 67.6519 91.3083H67.1134L60.855 97.5683C60.7796 97.6452 60.6811 97.6821 60.5827 97.6821Z" fill="#898989"/>
<path d="M70.3258 86.439C70.2274 86.439 70.1289 86.4021 70.0535 86.3267C69.9027 86.1759 69.9027 85.9328 70.0535 85.7821L78.1766 77.659C78.3274 77.5082 78.5704 77.5082 78.7212 77.659C78.872 77.8097 78.872 78.0528 78.7212 78.2036L70.5981 86.3267C70.5227 86.4021 70.4243 86.439 70.3258 86.439Z" fill="#898989"/>
<path d="M80.069 82.6908C79.969 82.6908 79.8721 82.6539 79.7967 82.5785C79.6459 82.4278 79.6459 82.1847 79.7967 82.0339L83.3874 78.4432C83.5382 78.2924 83.7813 78.2924 83.9321 78.4432C84.0828 78.5939 84.0828 78.837 83.9321 78.9878L80.3413 82.5785C80.2659 82.6539 80.1674 82.6908 80.069 82.6908Z" fill="#898989"/>
<path d="M80.2828 87.1882C80.1844 87.1882 80.0859 87.1513 80.0105 87.0759C79.8598 86.9251 79.8598 86.6821 80.0105 86.5313L84.169 82.3728C84.3198 82.2221 84.5628 82.2221 84.7121 82.3728C84.8628 82.5236 84.8628 82.7667 84.7121 82.9175L80.5536 87.0759C80.4798 87.1513 80.3828 87.1882 80.2828 87.1882Z" fill="#898989"/>
<path d="M80.7125 77.5527C80.6141 77.5527 80.5156 77.5158 80.4402 77.4404C80.2895 77.2896 80.2895 77.0466 80.4402 76.8958L84.0818 73.2527C84.2325 73.102 84.4756 73.102 84.6264 73.2527C84.7771 73.4035 84.7771 73.6466 84.6264 73.7973L80.9848 77.4404C80.9095 77.5143 80.811 77.5527 80.7125 77.5527Z" fill="#898989"/>
<path d="M81.7828 72.0913C81.6844 72.0913 81.5859 72.0528 81.5105 71.9789C81.3598 71.8282 81.3598 71.5851 81.5105 71.4343L84.9367 68.0066C85.0875 67.8559 85.3305 67.8559 85.4813 68.0066C85.6321 68.1574 85.6321 68.4005 85.4813 68.5512L82.0552 71.9789C81.9798 72.0528 81.8813 72.0913 81.7828 72.0913Z" fill="#898989"/>
<path d="M83.4948 67.9138C83.3963 67.9138 83.2978 67.8769 83.2225 67.8015C83.0717 67.6507 83.0717 67.4077 83.2225 67.2569L85.4948 64.9861C85.6455 64.8354 85.8886 64.8354 86.0394 64.9861C86.1901 65.1369 86.1901 65.38 86.0394 65.5307L83.7671 67.8015C83.6917 67.8769 83.5948 67.9138 83.4948 67.9138Z" fill="#898989"/>
<path d="M70.906 31.025C70.8075 31.025 70.7091 30.988 70.6337 30.9127L67.8767 28.1557C67.726 28.005 67.726 27.7619 67.8767 27.6111C68.0291 27.4588 68.2721 27.4619 68.4214 27.6111L71.1783 30.368C71.3291 30.5188 71.3291 30.7619 71.1783 30.9127C71.1029 30.988 71.0044 31.025 70.906 31.025Z" fill="#898989"/>
<path d="M72.4871 29.5367C72.3886 29.5367 72.2901 29.4998 72.2147 29.4244L70.0594 27.269C69.9086 27.1183 69.9086 26.8752 70.0594 26.7244C70.2101 26.5736 70.4532 26.5736 70.604 26.7244L72.7594 28.8798C72.9101 29.0306 72.9101 29.2736 72.7594 29.4244C72.684 29.4998 72.5855 29.5367 72.4871 29.5367Z" fill="#898989"/>
<path d="M73.8119 27.177C73.7135 27.177 73.615 27.1401 73.5396 27.0647L71.9012 25.4247C71.7504 25.2739 71.7504 25.0309 71.9012 24.8816C72.0519 24.7309 72.295 24.7309 72.4458 24.8816L74.0842 26.5201C74.235 26.6709 74.235 26.9139 74.0842 27.0647C74.0089 27.1401 73.9119 27.177 73.8119 27.177Z" fill="#898989"/>
<path d="M67.9782 30.8281C67.8813 30.8281 67.7812 30.7911 67.7059 30.7157L66.032 29.0434C65.8813 28.8927 65.8813 28.6496 66.032 28.4988C66.1813 28.3496 66.4243 28.3465 66.5766 28.4988L68.2505 30.1711C68.4012 30.3219 68.4012 30.565 68.2505 30.7157C68.1751 30.7911 68.0782 30.8281 67.9782 30.8281Z" fill="#898989"/>
<path d="M65.0796 31.6814C64.9826 31.6814 64.8826 31.6445 64.8072 31.5691L63.3719 30.1352C63.2211 29.9845 63.2211 29.7414 63.3719 29.5906C63.5226 29.4398 63.7657 29.4398 63.9165 29.5906L65.3519 31.0245C65.5026 31.1752 65.5026 31.4183 65.3519 31.5691C65.2749 31.6429 65.178 31.6814 65.0796 31.6814Z" fill="#898989"/>
<path d="M61.9968 32.215C61.8984 32.215 61.7999 32.1781 61.7245 32.1027L60.5076 30.8843C60.3568 30.7335 60.3568 30.4904 60.5076 30.3396C60.6599 30.1873 60.903 30.1904 61.0522 30.3396L62.2691 31.5581C62.4199 31.7089 62.4199 31.9519 62.2691 32.1027C62.1938 32.1766 62.0938 32.215 61.9968 32.215Z" fill="#898989"/>
<path d="M59.5887 32.8786C59.4903 32.8786 59.3918 32.8417 59.3164 32.7663L58.118 31.5678C57.9672 31.4171 57.9672 31.174 58.118 31.0232C58.2687 30.8725 58.5118 30.8725 58.6626 31.0232L59.861 32.2217C60.0118 32.3725 60.0118 32.6155 59.861 32.7648C59.7857 32.8417 59.6887 32.8786 59.5887 32.8786Z" fill="#898989"/>
<path d="M58.6647 32.7034C58.5662 32.7034 58.4678 32.6664 58.3924 32.591C58.2416 32.4403 58.2416 32.1972 58.3924 32.0464L60.5201 29.9187C60.6708 29.768 60.9139 29.768 61.0647 29.9187C61.2155 30.0695 61.2155 30.3126 61.0647 30.4634L58.937 32.591C58.8616 32.6664 58.7631 32.7034 58.6647 32.7034Z" fill="#898989"/>
<path d="M62.2106 32.0897C62.1121 32.0897 62.0137 32.0528 61.9383 31.9774C61.7875 31.8266 61.7875 31.5836 61.9383 31.4328L65.9783 27.3943C66.1306 27.242 66.3737 27.2451 66.5229 27.3943C66.6737 27.5451 66.6737 27.7882 66.5229 27.9389L62.4829 31.9774C62.4075 32.0513 62.3106 32.0897 62.2106 32.0897Z" fill="#898989"/>
<path d="M66.5104 31.1339C66.4104 31.1339 66.3135 31.097 66.2381 31.0216C66.0873 30.8708 66.0873 30.6278 66.2381 30.477L69.7719 26.9432C69.9227 26.7924 70.1658 26.7924 70.3165 26.9432C70.4673 27.0939 70.4673 27.337 70.3165 27.4878L66.7827 31.0216C66.7073 31.097 66.6104 31.1339 66.5104 31.1339Z" fill="#898989"/>
<path d="M70.8766 29.5644C70.7781 29.5644 70.6797 29.5274 70.6043 29.452C70.4535 29.3013 70.4535 29.0582 70.6043 28.9074L73.4427 26.0705C73.5951 25.9197 73.8381 25.9213 73.9874 26.0705C74.1381 26.2213 74.1381 26.4644 73.9874 26.6151L71.1489 29.452C71.0735 29.5259 70.9751 29.5644 70.8766 29.5644Z" fill="#898989"/>
<path d="M57.2641 43.7922C57.1641 43.7922 57.0671 43.7553 56.9917 43.6799L54.3641 41.0522C54.2133 40.9015 54.2133 40.6584 54.3641 40.5076C54.5148 40.3568 54.7579 40.3568 54.9087 40.5076L57.5364 43.1353C57.6871 43.2861 57.6871 43.5291 57.5364 43.6799C57.461 43.7538 57.3641 43.7922 57.2641 43.7922Z" fill="#898989"/>
<path d="M60.1367 43.6604C60.0383 43.6604 59.9398 43.6235 59.8644 43.5481L57.1629 40.8481C57.0121 40.6974 57.0121 40.4543 57.1629 40.3035C57.3137 40.1527 57.5567 40.1527 57.7075 40.3035L60.409 43.0035C60.5598 43.1543 60.5598 43.3974 60.409 43.5481C60.3337 43.6235 60.2352 43.6604 60.1367 43.6604Z" fill="#898989"/>
<path d="M65.2033 42.3819C65.1048 42.3819 65.0064 42.3449 64.931 42.2696L62.8279 40.1665C62.6772 40.0157 62.6772 39.7726 62.8279 39.6219C62.9787 39.4711 63.2218 39.4711 63.3725 39.6219L65.4756 41.7249C65.6264 41.8757 65.6264 42.1188 65.4756 42.2696C65.4002 42.3434 65.3018 42.3819 65.2033 42.3819Z" fill="#898989"/>
<path d="M69.1801 42.0589C69.0817 42.0589 68.9832 42.0204 68.9078 41.9466L66.034 39.0727C65.8832 38.922 65.8832 38.6789 66.034 38.5281C66.1847 38.3773 66.4278 38.3773 66.5786 38.5281L69.4524 41.402C69.6032 41.5527 69.6032 41.7958 69.4524 41.9466C69.3771 42.022 69.2786 42.0589 69.1801 42.0589Z" fill="#898989"/>
<path d="M73.3917 41.8357C73.2932 41.8357 73.1947 41.7988 73.1194 41.7234L70.0594 38.6634C69.9086 38.5126 69.9086 38.2695 70.0594 38.1203C70.2101 37.9711 70.4532 37.9695 70.604 38.1203L73.664 41.1803C73.8147 41.3311 73.8147 41.5742 73.664 41.7234C73.5886 41.7988 73.4901 41.8357 73.3917 41.8357Z" fill="#898989"/>
<path d="M76.9228 40.5237C76.8243 40.5237 76.7259 40.4867 76.6505 40.4114L74.3582 38.119C74.2074 37.9683 74.2074 37.7252 74.3582 37.576C74.509 37.4252 74.752 37.4252 74.9028 37.576L77.1951 39.8683C77.3459 40.019 77.3459 40.2621 77.1951 40.4129C77.1197 40.4852 77.0213 40.5237 76.9228 40.5237Z" fill="#898989"/>
<path d="M79.34 38.2328C79.2415 38.2328 79.1431 38.1959 79.0677 38.1205L77.0877 36.1405C76.9369 35.9898 76.9369 35.7467 77.0877 35.5975C77.2385 35.4467 77.4815 35.4467 77.6323 35.5975L79.6123 37.5775C79.7631 37.7282 79.7631 37.9713 79.6123 38.1221C79.5369 38.1944 79.44 38.2328 79.34 38.2328Z" fill="#898989"/>
<path d="M80.9787 36.1172C80.8802 36.1172 80.7817 36.0803 80.7064 36.0049L78.7264 34.0233C78.5756 33.8726 78.5756 33.6295 78.7264 33.4803C78.8787 33.328 79.1217 33.331 79.271 33.4803L81.251 35.4618C81.4017 35.6126 81.4017 35.8557 81.251 36.0064C81.174 36.0803 81.0756 36.1172 80.9787 36.1172Z" fill="#898989"/>
<path d="M62.0426 42.7689C61.9457 42.7689 61.8457 42.732 61.7703 42.6566L60.0965 40.9843C59.9457 40.8335 59.9457 40.5904 60.0965 40.4396C60.2457 40.2904 60.4888 40.2889 60.6411 40.4396L62.3149 42.112C62.4657 42.2627 62.4657 42.5058 62.3149 42.6566C62.2396 42.7304 62.1411 42.7689 62.0426 42.7689Z" fill="#898989"/>
<path d="M53.7506 43.7569C53.6522 43.7569 53.5537 43.72 53.4783 43.6446C53.3275 43.4938 53.3275 43.2507 53.4783 43.1L57.0922 39.4861C57.2429 39.3354 57.486 39.3354 57.6368 39.4861C57.7875 39.6369 57.7875 39.88 57.6368 40.0292L54.0229 43.643C53.9475 43.72 53.8506 43.7569 53.7506 43.7569Z" fill="#898989"/>
<path d="M57.775 43.6219C57.6766 43.6219 57.5781 43.585 57.5027 43.5096C57.352 43.3589 57.352 43.1158 57.5027 42.965L62.4273 38.0389C62.5781 37.8881 62.8212 37.8881 62.972 38.0389C63.1227 38.1896 63.1227 38.4327 62.972 38.5835L58.0473 43.5096C57.972 43.585 57.875 43.6219 57.775 43.6219Z" fill="#898989"/>
<path d="M62.2799 42.5974C62.1799 42.5974 62.083 42.5605 62.0076 42.4851C61.8568 42.3343 61.8568 42.0913 62.0076 41.942L67.3922 36.5574C67.543 36.4066 67.7861 36.4066 67.9368 36.5574C68.0876 36.7082 68.0876 36.9513 67.9368 37.1005L62.5522 42.4851C62.4768 42.5605 62.3799 42.5974 62.2799 42.5974Z" fill="#898989"/>
<path d="M66.6471 42.5297C66.5486 42.5297 66.4502 42.4928 66.3748 42.4174C66.224 42.2666 66.224 42.0236 66.3748 41.8728L72.8025 35.4451C72.9533 35.2943 73.1963 35.2943 73.3471 35.4451C73.4979 35.5959 73.4979 35.839 73.3471 35.9897L66.9194 42.4174C66.844 42.4928 66.7471 42.5297 66.6471 42.5297Z" fill="#898989"/>
<path d="M71.5602 42.2568C71.4602 42.2568 71.3633 42.2199 71.2879 42.1445C71.1371 41.9937 71.1371 41.7506 71.2879 41.5999L77.6325 35.2537C77.7833 35.1029 78.0263 35.1029 78.1771 35.2537C78.3279 35.4045 78.3279 35.6475 78.1771 35.7983L71.8325 42.1445C71.7571 42.2183 71.6602 42.2568 71.5602 42.2568Z" fill="#898989"/>
<path d="M78.3825 38.2308C78.284 38.2308 78.1855 38.1939 78.1101 38.1185C77.9594 37.9678 77.9594 37.7247 78.1101 37.5755L81.3563 34.3293C81.5086 34.1785 81.7517 34.1801 81.9009 34.3293C82.0517 34.4801 82.0517 34.7231 81.9009 34.8739L78.6548 38.1201C78.5794 38.1939 78.4809 38.2308 78.3825 38.2308Z" fill="#898989"/>
<path d="M59.7548 56.3122C59.6563 56.3122 59.5579 56.2753 59.4825 56.1999L56.5486 53.2661C56.3979 53.1153 56.3979 52.8722 56.5486 52.7215C56.6994 52.5707 56.9425 52.5707 57.0932 52.7215L60.0271 55.6553C60.1779 55.8061 60.1779 56.0492 60.0271 56.1999C59.9517 56.2753 59.8532 56.3122 59.7548 56.3122Z" fill="#898989"/>
<path d="M63.2352 55.0168C63.1368 55.0168 63.0383 54.9798 62.9629 54.9044L60.6414 52.5845C60.4906 52.4337 60.4906 52.1906 60.6414 52.0398C60.7922 51.8891 61.0352 51.8891 61.186 52.0398L63.5075 54.3598C63.6583 54.5106 63.6583 54.7537 63.5075 54.9044C63.4322 54.9798 63.3352 55.0168 63.2352 55.0168Z" fill="#898989"/>
<path d="M67.748 54.4803C67.6496 54.4803 67.5511 54.4434 67.4757 54.368L65.0096 51.9018C64.8588 51.7511 64.8588 51.508 65.0096 51.3572C65.1603 51.2064 65.4034 51.2064 65.5542 51.3572L68.0203 53.8234C68.1711 53.9741 68.1711 54.2172 68.0203 54.368C67.9449 54.4418 67.8465 54.4803 67.748 54.4803Z" fill="#898989"/>
<path d="M71.466 53.8989C71.3675 53.8989 71.2691 53.8604 71.1937 53.7866L68.4891 51.0835C68.3383 50.9327 68.3383 50.6896 68.4891 50.5389C68.6398 50.3881 68.8829 50.3881 69.0337 50.5389L71.7383 53.2419C71.8891 53.3927 71.8891 53.6358 71.7383 53.785C71.6629 53.8619 71.5644 53.8989 71.466 53.8989Z" fill="#898989"/>
<path d="M75.4212 52.463C75.3227 52.463 75.2242 52.4261 75.1489 52.3507L72.7889 49.9907C72.6381 49.8399 72.6381 49.5969 72.7889 49.4461C72.9396 49.2953 73.1827 49.2953 73.3335 49.4461L75.6935 51.8061C75.8442 51.9569 75.8442 52.1999 75.6935 52.3507C75.6181 52.4261 75.5212 52.463 75.4212 52.463Z" fill="#898989"/>
<path d="M78.5533 50.8202C78.4549 50.8202 78.3564 50.7833 78.281 50.7079L76.4041 48.831C76.2533 48.6802 76.2533 48.4371 76.4041 48.2879C76.5549 48.1371 76.7979 48.1371 76.9487 48.2879L78.8256 50.1648C78.9764 50.3156 78.9764 50.5587 78.8256 50.7094C78.7502 50.7833 78.6533 50.8202 78.5533 50.8202Z" fill="#898989"/>
<path d="M81.7655 49.5968C81.6655 49.5968 81.5686 49.5599 81.4932 49.4845L78.9978 46.9891C78.8471 46.8384 78.8471 46.5953 78.9978 46.4445C79.1502 46.2938 79.3932 46.2953 79.5425 46.4445L82.0378 48.9415C82.1886 49.0922 82.1886 49.3353 82.0378 49.4861C81.9625 49.5599 81.8655 49.5968 81.7655 49.5968Z" fill="#898989"/>
<path d="M83.6182 47.9706C83.5197 47.9706 83.4213 47.9337 83.3459 47.8583L81.5213 46.0337C81.3705 45.8829 81.3705 45.6398 81.5213 45.4891C81.6736 45.3367 81.9167 45.3398 82.0659 45.4891L83.8905 47.3137C84.0413 47.4644 84.0413 47.7075 83.8905 47.8583C83.8151 47.9321 83.7167 47.9706 83.6182 47.9706Z" fill="#898989"/>
<path d="M85.2231 46.0266C85.1246 46.0266 85.0262 45.9897 84.9508 45.9143L82.7508 43.7143C82.6 43.5636 82.6 43.3205 82.7508 43.1697C82.9031 43.0174 83.1462 43.0205 83.2954 43.1697L85.4954 45.3697C85.6462 45.5205 85.6462 45.7636 85.4954 45.9143C85.42 45.9897 85.3231 46.0266 85.2231 46.0266Z" fill="#898989"/>
<path d="M84.6614 43.0073C84.5629 43.0073 84.4645 42.9704 84.3891 42.895L83.366 41.872C83.2152 41.7212 83.2152 41.4781 83.366 41.3273C83.5183 41.1766 83.7614 41.1781 83.9106 41.3273L84.9337 42.352C85.0845 42.5027 85.0845 42.7458 84.9337 42.895C84.8583 42.9689 84.7599 43.0073 84.6614 43.0073Z" fill="#898989"/>
<path d="M55.7291 55.6308C55.6307 55.6308 55.5322 55.5939 55.4568 55.5185C55.3061 55.3677 55.3061 55.1246 55.4568 54.9739L59.1799 51.2508C59.3307 51.1 59.5737 51.1 59.7245 51.2508C59.8753 51.4015 59.8753 51.6446 59.7245 51.7954L56.0014 55.5185C55.9261 55.5939 55.8291 55.6308 55.7291 55.6308Z" fill="#898989"/>
<path d="M59.8248 55.9032C59.7264 55.9032 59.6279 55.8662 59.5525 55.7909C59.4018 55.6401 59.4018 55.397 59.5525 55.2478L64.9187 49.8816C65.0695 49.7309 65.3125 49.7309 65.4633 49.8816C65.6141 50.0324 65.6141 50.2755 65.4633 50.4262L60.0971 55.7924C60.0202 55.8662 59.9233 55.9032 59.8248 55.9032Z" fill="#898989"/>
<path d="M66.3043 54.5385C66.2059 54.5385 66.1074 54.5016 66.032 54.4262C65.8813 54.2754 65.8813 54.0323 66.032 53.8816L71.0136 48.9016C71.1643 48.7508 71.4074 48.7523 71.5582 48.9016C71.7089 49.0523 71.7089 49.2954 71.5582 49.4462L66.5766 54.4262C66.5013 54.5016 66.4028 54.5385 66.3043 54.5385Z" fill="#898989"/>
<path d="M71.4918 53.448C71.3934 53.448 71.2949 53.411 71.2195 53.3357C71.0688 53.1849 71.0688 52.9418 71.2195 52.791L77.7057 46.3064C77.8564 46.1557 78.0995 46.1557 78.2503 46.3064C78.4011 46.4572 78.4011 46.7003 78.2503 46.851L71.7641 53.3357C71.6872 53.4095 71.5903 53.448 71.4918 53.448Z" fill="#898989"/>
<path d="M77.8385 51.5359C77.7401 51.5359 77.6416 51.499 77.5662 51.4236C77.4154 51.2729 77.4154 51.0298 77.5662 50.879L83.4708 44.9744C83.6216 44.8236 83.8647 44.8236 84.0154 44.9744C84.1662 45.1252 84.1662 45.3683 84.0154 45.519L78.1108 51.4236C78.0339 51.499 77.937 51.5359 77.8385 51.5359Z" fill="#898989"/>
<path d="M82.8873 44.5079C82.7889 44.5079 82.6904 44.471 82.615 44.3956C82.4643 44.2448 82.4643 44.0017 82.615 43.851L84.9027 41.5633C85.0535 41.4125 85.2966 41.4125 85.4473 41.5633C85.5981 41.714 85.5981 41.9571 85.4473 42.1063L83.1596 44.394C83.0843 44.471 82.9858 44.5079 82.8873 44.5079Z" fill="#898989"/>
<path d="M82.82 49.0121C82.723 49.0121 82.623 48.9751 82.5476 48.8998C82.3969 48.749 82.3969 48.5059 82.5476 48.3551L83.6061 47.2967C83.7569 47.1474 84 47.1444 84.1507 47.2967C84.3015 47.4474 84.3015 47.6905 84.1507 47.8413L83.0923 48.8998C83.0169 48.9736 82.9184 49.0121 82.82 49.0121Z" fill="#898989"/>
<path d="M76.9508 50.6492C76.8524 50.6492 76.7539 50.6122 76.6785 50.5369C76.5277 50.3861 76.5277 50.143 76.6785 49.9922L79.6124 47.0584C79.7631 46.9076 80.0062 46.9076 80.157 47.0584C80.3077 47.2092 80.3077 47.4522 80.157 47.6015L77.2231 50.5353C77.1477 50.6122 77.0508 50.6492 76.9508 50.6492Z" fill="#898989"/>
<path d="M34.9042 79.0013C34.8057 79.0013 34.7073 78.9643 34.6319 78.889L27.6473 71.9028C27.4965 71.752 27.4965 71.509 27.6473 71.3582C27.798 71.2074 28.0411 71.2074 28.1919 71.3582L35.1765 78.3443C35.3273 78.4951 35.3273 78.7382 35.1765 78.889C35.1011 78.9643 35.0042 79.0013 34.9042 79.0013Z" fill="#898989"/>
<path d="M39.2937 78.8736C39.1952 78.8736 39.0968 78.8367 39.0214 78.7613L31.6521 71.3921C31.5014 71.2413 31.5014 70.9982 31.6521 70.8475C31.8029 70.6967 32.046 70.6967 32.1968 70.8475L39.566 78.2167C39.7168 78.3675 39.7168 78.6105 39.566 78.7613C39.4906 78.8367 39.3921 78.8736 39.2937 78.8736Z" fill="#898989"/>
<path d="M42.6136 76.3166C42.5136 76.3166 42.4167 76.2797 42.3413 76.2043L36.3367 70.1997C36.1859 70.0489 36.1859 69.8058 36.3367 69.6551C36.4875 69.5043 36.7306 69.5043 36.8798 69.6551L42.8844 75.6597C43.0352 75.8105 43.0352 76.0535 42.8844 76.2028C42.8106 76.2797 42.7121 76.3166 42.6136 76.3166Z" fill="#898989"/>
<path d="M29.8795 79.7674C29.7811 79.7674 29.6826 79.7305 29.6072 79.6551C29.4564 79.5044 29.4564 79.2613 29.6072 79.1105L40.258 68.4598C40.4088 68.309 40.6518 68.309 40.8026 68.4598C40.9534 68.6105 40.9534 68.8536 40.8026 69.0044L30.1518 79.6551C30.0764 79.7305 29.978 79.7674 29.8795 79.7674Z" fill="#898989"/>
<path d="M38.4811 77.2125C38.3826 77.2125 38.2842 77.1756 38.2088 77.1002C38.058 76.9495 38.058 76.7064 38.2088 76.5556L42.2734 72.491C42.4242 72.3402 42.6672 72.3402 42.818 72.491C42.9688 72.6418 42.9688 72.8849 42.818 73.0341L38.7534 77.0987C38.678 77.1741 38.5811 77.2125 38.4811 77.2125Z" fill="#898989"/>
<path d="M27.3248 76.6153C27.2248 76.6153 27.1279 76.5784 27.0525 76.503C26.9018 76.3522 26.9018 76.1091 27.0525 75.9584L33.9925 69.0184C34.1433 68.8676 34.3864 68.8676 34.5371 69.0184C34.6879 69.1691 34.6879 69.4122 34.5371 69.563L27.5971 76.503C27.5202 76.5784 27.4233 76.6153 27.3248 76.6153Z" fill="#898989"/>
</svg>
