<svg width="119" height="119" viewBox="0 0 119 119" fill="none" xmlns="http://www.w3.org/2000/svg">
<g clip-path="url(#clip0_120_7670)">
<path d="M93.6402 80.1786C90.0451 80.9428 85.7732 79.2478 83.008 75.9616C79.9667 72.3457 78.9396 68.4385 76.192 57.9985C75.7443 56.2991 75.2513 54.4237 74.6949 52.3463C73.8114 49.0408 72.8976 45.6222 72.729 42.0988C72.5954 39.2945 72.9221 35.2301 75.2323 31.8025C77.3785 28.6175 81.1811 26.6249 84.6389 26.939C90.6592 27.4838 92.5243 33.8757 93.8888 38.5417C94.0601 39.1328 94.2287 39.7041 94.3966 40.2425C96.2511 46.1852 101.793 64.8972 100.892 71.2968C100.359 75.0559 98.2593 78.2311 95.4087 79.5825C94.8486 79.8478 94.2526 80.0484 93.6402 80.1786ZM82.3196 28.6069C80.0714 29.0847 77.9005 30.6 76.5111 32.6616C74.4351 35.7405 74.1455 39.4542 74.2676 42.0265C74.4294 45.3847 75.3211 48.7215 76.1834 51.9497C80.066 66.4422 80.88 71.0411 84.1894 74.9713C86.9904 78.3001 91.5144 79.7308 94.7517 78.1934C97.1408 77.0611 98.9097 74.3353 99.3696 71.0825C99.7924 68.0844 99.2104 65.0059 98.5224 61.8507C96.9796 54.7627 95.0977 47.6478 92.9293 40.7022C92.7595 40.1548 92.5905 39.5742 92.4143 38.9746C91.1054 34.4966 89.4789 28.9237 84.5038 28.4713C83.7867 28.4051 83.0525 28.4511 82.3196 28.6069Z" fill="#898989"/>
<path d="M97.038 101.995C96.5835 102.092 96.1196 102.107 95.6574 102.034C93.5246 101.701 91.3573 99.5033 90.1376 96.436C88.8535 93.2142 88.7701 89.8472 88.9254 87.5886C89.1229 84.6919 89.7972 82.0038 90.4967 79.5304C90.7728 78.5579 92.2551 78.9679 91.9775 79.9486C91.3006 82.3432 90.6472 84.9373 90.4595 87.695C90.2563 90.6605 90.65 93.5637 91.5691 95.8675C92.576 98.3997 94.3145 100.267 95.8977 100.515C96.8155 100.66 97.75 100.232 98.5264 99.3117C100.138 97.3994 101.147 93.2387 99.142 87.2902C98.2718 84.7054 96.9133 82.1474 94.8696 79.2364C94.6258 78.8887 94.7096 78.41 95.057 78.1647C95.4074 77.9188 95.886 78.0027 96.1286 78.3522C98.2583 81.3865 99.6796 84.0696 100.601 86.7977C102.81 93.3508 101.586 98.07 99.7025 100.301C98.9385 101.206 98.0116 101.788 97.038 101.995Z" fill="#898989"/>
<path d="M79.4388 29.4018C79.1469 29.4638 78.832 29.3514 78.6494 29.0914C76.5197 26.0571 75.0984 23.374 74.1773 20.6459C70.9191 10.9782 74.9847 4.76168 79.1191 5.41011C81.2507 5.74502 83.4165 7.94275 84.6389 11.0079C85.9206 14.2256 86.0046 17.5956 85.8511 19.8553C85.6533 22.7505 84.979 25.4387 84.2798 27.9135C84.1644 28.325 83.7345 28.5595 83.3294 28.4442C82.9209 28.3282 82.6829 27.9038 82.799 27.4953C83.4759 25.1007 84.129 22.5051 84.3173 19.7504C84.5184 16.7822 84.1262 13.8788 83.2077 11.5779C82.1993 9.04608 80.4608 7.17904 78.8791 6.93014C76.0271 6.48413 72.7713 11.6635 75.6348 20.1552C76.5051 22.74 77.8635 25.2981 79.9073 28.2091C80.151 28.5568 80.0672 29.0354 79.7198 29.2807C79.6333 29.34 79.5382 29.3806 79.4388 29.4018Z" fill="#898989"/>
<path d="M64.8177 100.793C58.157 102.164 51.0145 103.139 43.8974 103.612C39.769 103.887 35.5147 103.807 32.3751 101.379C29.5225 99.1764 28.308 95.5937 27.3075 92.1149C24.9489 83.9043 22.9185 75.4919 21.2745 67.1137C20.4059 62.6868 19.6015 57.9772 20.1402 53.3566C20.6595 48.8957 22.4442 45.009 25.1651 42.4111C26.1564 41.4659 27.5017 40.7506 28.8032 40.0587C30.9085 38.938 32.8981 37.8797 33.4936 35.99C34.0918 34.0981 33.0579 32.1788 31.9641 30.148C31.3665 29.0388 30.7486 27.893 30.4384 26.7589C29.3002 22.5953 30.3318 18.3621 33.0703 15.9729C35.4896 13.8654 39.3984 13.3711 42.2574 14.8049C45.1933 16.2743 47.0722 19.5868 46.8259 22.8603C46.5666 26.3537 43.5803 30.4927 45.7229 33.2694C46.8543 34.7371 48.6221 34.8253 50.859 34.9381C54.5089 35.1201 59.051 35.3484 63.4027 41.4068C65.5951 44.4624 66.9015 47.9815 68.1663 51.3868L77.8316 77.442C79.6315 82.2986 81.1051 87.0263 79.373 91.4791C77.0037 97.5584 69.9311 99.7065 64.8177 100.793ZM37.098 15.6531C35.9573 15.8956 34.9146 16.4066 34.0842 17.132C31.2953 19.565 31.1772 23.6197 31.9247 26.3517C32.1898 27.3177 32.7382 28.3367 33.3203 29.4178C34.4614 31.5376 35.757 33.9408 34.965 36.4526C34.1776 38.9415 31.8135 40.1989 29.5286 41.4144C28.2625 42.0878 27.0671 42.724 26.2304 43.5232C23.7669 45.8744 22.1475 49.4288 21.6704 53.5331C20.6855 62.0045 26.5412 83.8631 28.7899 91.6897C29.7181 94.9243 30.8338 98.2418 33.3167 100.163C36.1885 102.382 40.2319 102.314 43.7959 102.077C50.7873 101.611 57.8537 100.655 64.4978 99.2886C72.0717 97.6787 76.3412 95.0191 77.9391 90.9188C79.4762 86.9698 78.0823 82.5429 76.3882 77.9769L66.7229 51.9217C65.4957 48.6122 64.2258 45.1907 62.154 42.3029C58.2354 36.8461 54.2769 36.6479 50.7858 36.473C48.3613 36.3513 46.0722 36.2371 44.5052 34.2077C41.7603 30.6468 45.0509 26.0011 45.2959 22.7436C45.4946 20.0747 43.9646 17.3754 41.5739 16.177C40.2352 15.51 38.6479 15.3236 37.098 15.6531Z" fill="#898989"/>
<path d="M38.4504 27.1006C37.3699 27.3303 36.3065 26.9964 35.4555 26.1596C33.2848 24.0353 33.3919 19.596 36.7868 18.8744C38.5159 18.5069 40.3041 19.3426 41.1315 20.9047C42.4162 23.3227 41.1561 26.5255 38.4504 27.1006ZM37.1067 20.3792C36.6356 20.4794 35.8108 20.8167 35.5936 21.9481C35.3843 23.0354 35.7712 24.3152 36.5321 25.061C36.8659 25.388 37.4157 25.7477 38.1305 25.5957C39.834 25.2337 40.5807 23.1451 39.7737 21.6274C39.1799 20.5063 37.975 20.1947 37.1067 20.3792Z" fill="#898989"/>
<path d="M76.4188 94.0009L65.3103 86.7883C65.1315 86.6721 65.081 86.4344 65.1971 86.2556C65.3132 86.0767 65.551 86.0262 65.7283 86.1426L76.8368 93.3553C77.0156 93.4714 77.0662 93.7092 76.95 93.888C76.8351 94.065 76.598 94.1185 76.4188 94.0009Z" fill="#898989"/>
<path d="M77.6208 91.8548L67.886 85.5329C67.7072 85.4168 67.6567 85.179 67.7728 85.0002C67.8889 84.8214 68.1267 84.7708 68.3055 84.8869L78.0403 91.2088C78.2191 91.3249 78.2697 91.5627 78.1535 91.7415C78.0371 91.9188 77.7997 91.9709 77.6208 91.8548Z" fill="#898989"/>
<path d="M78.3966 89.1939L69.972 83.7228C69.7931 83.6067 69.7426 83.3689 69.8587 83.1901C69.9749 83.0113 70.2126 82.9608 70.3914 83.0769L78.8161 88.5479C78.9949 88.6641 79.0455 88.9018 78.9293 89.0807C78.8129 89.258 78.5755 89.31 78.3966 89.1939Z" fill="#898989"/>
<path d="M78.0531 85.9862L71.1302 81.4904C70.9513 81.3743 70.9008 81.1365 71.0169 80.9577C71.1331 80.7789 71.3708 80.7283 71.5496 80.8445L78.4726 85.3403C78.6514 85.4564 78.7019 85.6942 78.5858 85.873C78.4694 86.0503 78.2319 86.1024 78.0531 85.9862Z" fill="#898989"/>
<path d="M78.0661 83.2653L72.658 79.7546C72.4792 79.6384 72.4286 79.4007 72.5448 79.2219C72.6609 79.043 72.8987 78.9925 73.0775 79.1086L78.4856 82.6194C78.6644 82.7355 78.7149 82.9733 78.5988 83.1521C78.4824 83.3294 78.2449 83.3815 78.0661 83.2653Z" fill="#898989"/>
<path d="M77.1831 79.9614L73.9314 77.8498C73.7526 77.7337 73.7021 77.4959 73.8182 77.3171C73.9343 77.1383 74.1721 77.0877 74.3509 77.2038L77.6025 79.3155C77.7814 79.4316 77.8319 79.6694 77.7158 79.8482C77.5993 80.0255 77.3619 80.0776 77.1831 79.9614Z" fill="#898989"/>
<path d="M75.6774 76.557C75.5811 76.5775 75.4771 76.5618 75.3877 76.5038L73.7747 75.4562C73.5959 75.3401 73.5453 75.1023 73.6615 74.9235C73.7776 74.7447 74.0154 74.6942 74.1942 74.8103L75.8072 75.8578C75.986 75.9739 76.0366 76.2117 75.9204 76.3905C75.8609 76.4803 75.7737 76.5365 75.6774 76.557Z" fill="#898989"/>
<path d="M74.88 74.315L74.7959 74.119L73.3836 73.2018C73.2048 73.0857 73.1542 72.848 73.2703 72.6691C73.3853 72.4921 73.6224 72.4386 73.8031 72.5559L75.3139 73.5371C75.3778 73.5785 75.4283 73.6386 75.4572 73.7079L75.5876 74.0105C75.7887 74.4758 75.0828 74.7878 74.88 74.315Z" fill="#898989"/>
<path d="M74.339 95.6556L62.847 88.1926C62.6681 88.0764 62.6176 87.8387 62.7337 87.6598C62.8499 87.481 63.0876 87.4305 63.2664 87.5466L74.7584 95.0096C74.9373 95.1257 74.9878 95.3635 74.8717 95.5423C74.7552 95.7196 74.5178 95.7717 74.339 95.6556Z" fill="#898989"/>
<path d="M70.9355 97.5933L60.031 90.5119C59.8522 90.3958 59.8017 90.158 59.9178 89.9792C60.0339 89.8004 60.2717 89.7498 60.4505 89.866L71.355 96.9474C71.5338 97.0635 71.5843 97.3013 71.4682 97.4801C71.3533 97.6571 71.1143 97.7095 70.9355 97.5933Z" fill="#898989"/>
<path d="M66.5391 99.2151L56.9886 93.0129C56.8097 92.8967 56.7592 92.659 56.8753 92.4802C56.9915 92.3013 57.2292 92.2508 57.408 92.3669L66.9586 98.5691C67.1374 98.6852 67.1879 98.923 67.0718 99.1018C66.9568 99.2788 66.7194 99.3309 66.5391 99.2151Z" fill="#898989"/>
<path d="M61.1804 100.063L54.3694 95.6428C54.1906 95.5266 54.1401 95.2889 54.2562 95.11C54.3723 94.9312 54.6101 94.8807 54.7874 94.9971L61.5984 99.4176C61.7772 99.5338 61.8277 99.7715 61.7113 99.9489C61.5967 100.127 61.3592 100.179 61.1804 100.063Z" fill="#898989"/>
<path d="M55.6753 100.527L51.3763 97.7355C51.1974 97.6194 51.1469 97.3816 51.263 97.2028C51.3792 97.024 51.6169 96.9735 51.7942 97.0899L56.0947 99.8814C56.2736 99.9975 56.3241 100.235 56.208 100.414C56.0915 100.591 55.8541 100.643 55.6753 100.527Z" fill="#898989"/>
<path d="M51.7208 101.236L49.0089 99.4733C48.8301 99.3571 48.7796 99.1194 48.8957 98.9405C49.0133 98.7614 49.2499 98.7127 49.4284 98.8273L52.1403 100.59C52.3191 100.706 52.3696 100.944 52.2535 101.122C52.1382 101.298 51.9014 101.353 51.7208 101.236Z" fill="#898989"/>
<path d="M48.4053 101.703L46.327 100.353C46.1482 100.237 46.0976 99.9992 46.2141 99.8219C46.3317 99.6427 46.5698 99.5937 46.7453 99.709L48.8236 101.059C49.0024 101.175 49.053 101.413 48.9369 101.591C48.8228 101.765 48.586 101.82 48.4053 101.703Z" fill="#898989"/>
<path d="M46.1032 102.209C45.9244 102.093 45.8739 101.856 45.99 101.677L48.1549 98.343C48.2711 98.1642 48.5088 98.1137 48.6877 98.2298C48.8665 98.3459 48.917 98.5837 48.8006 98.761L46.6356 102.095C46.5195 102.274 46.282 102.326 46.1032 102.209Z" fill="#898989"/>
<path d="M48.4897 101.19L52.2781 95.3562C52.3942 95.1773 52.632 95.1268 52.8108 95.2429C52.9896 95.359 53.0401 95.5968 52.924 95.7756L49.1356 101.609C48.8568 102.037 48.2151 101.615 48.4897 101.19Z" fill="#898989"/>
<path d="M52.1443 100.943L58.8584 90.6039C58.9745 90.4251 59.2123 90.3745 59.3911 90.4906C59.5699 90.6068 59.6205 90.8445 59.5043 91.0234L52.7902 101.362C52.5111 101.788 51.8679 101.366 52.1443 100.943Z" fill="#898989"/>
<path d="M57.2737 100.584C57.0949 100.467 57.0443 100.23 57.1605 100.051L65.2136 87.6501C65.3297 87.4713 65.5675 87.4208 65.7463 87.5369C65.9251 87.653 65.9756 87.8908 65.8595 88.0696L57.8064 100.47C57.6915 100.647 57.4543 100.701 57.2737 100.584Z" fill="#898989"/>
<path d="M63.8578 98.9641C63.679 98.848 63.6284 98.6102 63.7445 98.4314L70.7181 87.693C70.8343 87.5142 71.072 87.4636 71.2509 87.5797C71.4297 87.6959 71.4802 87.9336 71.3641 88.1125L64.3905 98.8509C64.274 99.0282 64.0369 99.0817 63.8578 98.9641Z" fill="#898989"/>
<path d="M70.3422 97.4362C70.0097 97.5068 69.7536 97.1382 69.9393 96.8502L75.6035 88.1281C75.7196 87.9493 75.9574 87.8987 76.1362 88.0149C76.315 88.131 76.3656 88.3688 76.2494 88.5476C76.1144 88.7556 70.5845 97.3847 70.3422 97.4362Z" fill="#898989"/>
<path d="M65.4506 92.1393C65.2718 92.0232 65.2212 91.7854 65.3374 91.6066L69.1995 85.6614C69.3157 85.4825 69.5534 85.432 69.7307 85.5484C69.9096 85.6646 69.9601 85.9023 69.844 86.0812L65.9818 92.0264C65.8684 92.2031 65.6294 92.2554 65.4506 92.1393Z" fill="#898989"/>
<path d="M71.9298 86.7039C71.7509 86.5878 71.7004 86.35 71.8165 86.1712L75.5062 80.4875C75.6224 80.3087 75.8601 80.2582 76.0389 80.3743C76.2178 80.4904 76.2683 80.7282 76.1522 80.907L72.4625 86.5906C72.346 86.768 72.1086 86.82 71.9298 86.7039Z" fill="#898989"/>
<path d="M72.4439 81.0347C72.2651 80.9186 72.2145 80.6808 72.3307 80.502L74.1496 77.7011C74.2657 77.5223 74.5035 77.4717 74.6823 77.5879C74.8612 77.704 74.9117 77.9417 74.7956 78.1206L72.9766 80.9215C72.8617 81.0985 72.6242 81.1505 72.4439 81.0347Z" fill="#898989"/>
<path d="M75.0615 84.6259C74.8827 84.5098 74.8321 84.272 74.9483 84.0932L77.1973 80.6299C77.3135 80.4511 77.5512 80.4005 77.7301 80.5167C77.9089 80.6328 77.9594 80.8706 77.8433 81.0494L75.5942 84.5127C75.4793 84.6897 75.2403 84.742 75.0615 84.6259Z" fill="#898989"/>
<path d="M73.4658 75.8758C73.287 75.7597 73.2365 75.5219 73.3526 75.3431L74.2695 73.9293C74.3844 73.7523 74.6218 73.7002 74.8022 73.8161C74.981 73.9322 75.0315 74.17 74.9154 74.3488L73.9985 75.7626C73.8812 75.9432 73.6425 75.9893 73.4658 75.8758Z" fill="#898989"/>
<path d="M34.4033 19.0181L32.8779 18.0275C32.6991 17.9114 32.6485 17.6736 32.765 17.4963C32.8811 17.3175 33.1189 17.2669 33.2977 17.383L34.8231 18.3737C35.002 18.4898 35.0525 18.7276 34.9364 18.9064C34.8196 19.0822 34.5822 19.1343 34.4033 19.0181Z" fill="#898989"/>
<path d="M33.1898 21.4841L31.5002 20.3868C31.3213 20.2707 31.2708 20.0329 31.3869 19.8541C31.5046 19.675 31.7426 19.6259 31.9181 19.7412L33.6078 20.8385C33.7866 20.9546 33.8372 21.1924 33.721 21.3712C33.6073 21.5464 33.3702 21.5999 33.1898 21.4841Z" fill="#898989"/>
<path d="M33.6761 24.7435L30.9171 22.9518C30.7383 22.8356 30.6878 22.5979 30.8039 22.4191C30.9216 22.2399 31.1596 22.1909 31.3366 22.3058L34.0956 24.0975C34.2744 24.2136 34.325 24.4514 34.2085 24.6287C34.0939 24.8072 33.8568 24.8608 33.6761 24.7435Z" fill="#898989"/>
<path d="M34.8458 28.9883L31.5595 26.8541C31.3807 26.738 31.3302 26.5003 31.4466 26.3229C31.5627 26.1441 31.8005 26.0936 31.9793 26.2097L35.2656 28.3438C35.4444 28.46 35.495 28.6977 35.3789 28.8766C35.2636 29.0521 35.0262 29.1041 34.8458 28.9883Z" fill="#898989"/>
<path d="M36.9938 34.1782L33.9134 32.1765C33.7345 32.0603 33.684 31.8226 33.8001 31.6437C33.9163 31.4649 34.154 31.4144 34.3328 31.5305L37.4133 33.5323C37.5921 33.6484 37.6426 33.8861 37.5265 34.065C37.4119 34.2435 37.1744 34.2955 36.9938 34.1782Z" fill="#898989"/>
<path d="M38.1106 39.0854L34.0725 36.4631C33.8937 36.3469 33.8432 36.1092 33.9593 35.9304C34.0754 35.7515 34.3132 35.701 34.4905 35.8174L38.5286 38.4398C38.9611 38.7206 38.5303 39.358 38.1106 39.0854Z" fill="#898989"/>
<path d="M35.6856 41.7716L32.6165 39.7785C32.4377 39.6624 32.3871 39.4246 32.5033 39.2458C32.6194 39.067 32.8571 39.0164 33.036 39.1326L36.1051 41.1257C36.284 41.2418 36.3345 41.4796 36.2184 41.6584C36.1019 41.8357 35.8648 41.8893 35.6856 41.7716Z" fill="#898989"/>
<path d="M32.7428 44.2765L29.2376 42.0002C29.0588 41.8841 29.0082 41.6463 29.1244 41.4675C29.2405 41.2886 29.4782 41.2381 29.6571 41.3542L33.1623 43.6306C33.3411 43.7467 33.3917 43.9845 33.2756 44.1633C33.1591 44.3406 32.9217 44.3927 32.7428 44.2765Z" fill="#898989"/>
<path d="M29.2902 46.6037L25.3525 44.0465C25.1737 43.9304 25.1231 43.6926 25.2396 43.5153C25.3557 43.3365 25.5935 43.286 25.7708 43.4024L29.7085 45.9596C29.8873 46.0757 29.9379 46.3135 29.8217 46.4923C29.708 46.6675 29.4694 46.7213 29.2902 46.6037Z" fill="#898989"/>
<path d="M26.1472 50.7589L22.7405 48.5466C22.5617 48.4304 22.5112 48.1927 22.6273 48.0139C22.7434 47.835 22.9812 47.7845 23.16 47.9006L26.5667 50.113C26.7455 50.2291 26.7961 50.4669 26.6796 50.6442C26.5635 50.823 26.3261 50.875 26.1472 50.7589Z" fill="#898989"/>
<path d="M24.5789 54.1561L21.6487 52.2546C21.4699 52.1384 21.4194 51.9007 21.5355 51.7219C21.6516 51.543 21.8894 51.4925 22.0682 51.6086L24.9984 53.5102C25.1772 53.6263 25.2277 53.8641 25.1116 54.0429C24.9951 54.2202 24.758 54.2738 24.5789 54.1561Z" fill="#898989"/>
<path d="M24.2034 58.2719C24.107 58.2924 24.0031 58.2767 23.9136 58.2186L20.9062 56.2643C20.7274 56.1482 20.6768 55.9104 20.7933 55.7331C20.9094 55.5543 21.1472 55.5037 21.326 55.6199L24.3334 57.5742C24.5123 57.6903 24.5628 57.9281 24.4467 58.1069C24.388 58.1933 24.2997 58.2514 24.2034 58.2719Z" fill="#898989"/>
<path d="M23.6052 62.9744L21.1458 61.3786C20.967 61.2625 20.9164 61.0247 21.0326 60.8459C21.1487 60.6671 21.3864 60.6165 21.5638 60.733L24.0235 62.3303C24.2023 62.4465 24.2528 62.6842 24.1364 62.8615C24.0233 63.0397 23.7843 63.0921 23.6052 62.9744Z" fill="#898989"/>
<path d="M23.779 67.3472L22.416 66.4621C22.2372 66.3459 22.1866 66.1082 22.3031 65.9308C22.4192 65.752 22.657 65.7015 22.8343 65.8179L24.1973 66.7031C24.3761 66.8192 24.4267 67.057 24.3106 67.2358C24.1953 67.4113 23.9579 67.4634 23.779 67.3472Z" fill="#898989"/>
<path d="M23.9793 70.4981L22.7239 69.6828C22.5451 69.5667 22.4946 69.3289 22.6107 69.1501C22.7268 68.9713 22.9646 68.9207 23.1434 69.0369L24.3988 69.8521C24.5776 69.9682 24.6281 70.206 24.512 70.3848C24.3959 70.5637 24.1584 70.6157 23.9793 70.4981Z" fill="#898989"/>
<path d="M23.0164 71.4999C22.8376 71.3838 22.787 71.146 22.9032 70.9672L25.2515 67.3491C25.3676 67.1703 25.6054 67.1198 25.7842 67.2359C25.963 67.352 26.0136 67.5898 25.8974 67.7686L23.5491 71.3867C23.4327 71.564 23.1955 71.6175 23.0164 71.4999Z" fill="#898989"/>
<path d="M21.5865 66.5445C21.4077 66.4283 21.3572 66.1906 21.4733 66.0117L24.6799 61.0741C24.796 60.8953 25.0337 60.8447 25.2126 60.9609C25.3914 61.077 25.4419 61.3147 25.3258 61.4936L22.1192 66.4312C22.0043 66.6082 21.7669 66.6603 21.5865 66.5445Z" fill="#898989"/>
<path d="M21.8509 58.5124L25.0448 53.5963C25.1624 53.4171 25.4005 53.3681 25.5775 53.483C25.7563 53.5992 25.8069 53.8369 25.6907 54.0158L22.4966 58.9303C22.2196 59.3588 21.576 58.9357 21.8509 58.5124Z" fill="#898989"/>
<path d="M23.2535 52.3095C23.1572 52.33 23.0532 52.3144 22.9638 52.2563C22.7849 52.1402 22.7344 51.9024 22.8505 51.7236L27.7057 44.2493C27.823 44.0686 28.0614 44.0211 28.2384 44.136C28.4172 44.2522 28.4678 44.4899 28.3517 44.6688L23.4965 52.1431C23.4384 52.2325 23.3483 52.2894 23.2535 52.3095Z" fill="#898989"/>
<path d="M29.9633 45.4149C29.7845 45.2988 29.734 45.061 29.8501 44.8822L33.0235 39.9956C33.1396 39.8168 33.3774 39.7663 33.5562 39.8824C33.735 39.9985 33.7855 40.2363 33.6694 40.4151L30.496 45.3017C30.3811 45.4787 30.1425 45.5325 29.9633 45.4149Z" fill="#898989"/>
<path d="M35.5321 39.3555L37.8938 35.7188C38.0099 35.54 38.2477 35.4895 38.425 35.6059C38.6023 35.7224 38.6544 35.9598 38.5382 36.1386L36.1766 39.7753C35.9008 40.2019 35.2572 39.7788 35.5321 39.3555Z" fill="#898989"/>
<path d="M34.5735 33.0918C34.3659 33.136 34.1615 33.0033 34.1173 32.7956L33.4149 29.491C33.3708 29.2833 33.5035 29.0789 33.7112 29.0348C33.9188 28.9906 34.1232 29.1234 34.1673 29.331L34.8698 32.6357C34.9139 32.8433 34.7797 33.048 34.5735 33.0918Z" fill="#898989"/>
<path d="M32.8865 27.7927C32.7077 27.6766 32.6571 27.4389 32.7732 27.26L34.8588 24.0485C34.9749 23.8697 35.2127 23.8192 35.3915 23.9353C35.5703 24.0514 35.6209 24.2892 35.5044 24.4665L33.4189 27.678C33.3043 27.8565 33.0668 27.9086 32.8865 27.7927Z" fill="#898989"/>
<path d="M32.2426 22.1274C32.1462 22.1479 32.0423 22.1322 31.9529 22.0742C31.774 21.958 31.7235 21.7203 31.8396 21.5415L34.1151 18.0395C34.387 17.6168 35.0392 18.0287 34.7607 18.4575L32.4856 21.9609C32.4275 22.0503 32.3374 22.1073 32.2426 22.1274Z" fill="#898989"/>
<path d="M35.9582 17.9355C35.7794 17.8194 35.7288 17.5816 35.8449 17.4028L37.2989 15.1639C37.415 14.985 37.6528 14.9345 37.8316 15.0506C38.0105 15.1668 38.061 15.4045 37.9449 15.5833L36.4897 17.8241C36.3744 17.9996 36.137 18.0516 35.9582 17.9355Z" fill="#898989"/>
<path d="M39.463 17.1905C39.2842 17.0744 39.2337 16.8366 39.3498 16.6578L40.4021 15.0374C40.5182 14.8586 40.756 14.8081 40.9348 14.9242C41.1136 15.0403 41.1641 15.2781 41.048 15.4569L39.9957 17.0773C39.8769 17.2582 39.6385 17.3057 39.463 17.1905Z" fill="#898989"/>
<path d="M37.3167 17.5792L35.5431 16.4274C35.3643 16.3112 35.3138 16.0735 35.4299 15.8946C35.5475 15.7155 35.7856 15.6665 35.9626 15.7814L37.7362 16.9332C37.915 17.0493 37.9656 17.2871 37.8495 17.4659C37.7342 17.6414 37.4974 17.6965 37.3167 17.5792Z" fill="#898989"/>
<path d="M40.1671 86.6751C39.982 86.7145 39.7904 86.6121 39.7248 86.4294C36.6281 77.8095 34.7933 68.8003 34.2691 59.6524C34.2572 59.4411 34.4177 59.2638 34.6312 59.2468C34.844 59.2345 35.0231 59.3962 35.0368 59.6088C35.5562 68.6822 37.3771 77.6189 40.4483 86.1703C40.5207 86.3704 40.4166 86.5907 40.2161 86.6616C40.2017 86.6678 40.1837 86.6716 40.1671 86.6751Z" fill="#898989"/>
<path d="M63.1457 71.9354C63.1351 71.9377 63.1246 71.9399 63.1137 71.9406C62.9026 71.9682 62.7104 71.8188 62.6828 71.6076C61.5048 62.4619 58.7506 53.6779 54.4941 45.4996C54.3974 45.3109 54.4691 45.0787 54.659 44.9801C54.8445 44.8762 55.0799 44.9551 55.1781 45.1434C59.4757 53.4043 62.2563 62.2754 63.4453 71.51C63.4721 71.7103 63.3398 71.8942 63.1457 71.9354Z" fill="#898989"/>
<path d="M35.7978 64.4105C35.7722 64.4159 35.7463 64.4198 35.7194 64.4193L32.2716 64.4333C32.058 64.4347 31.8861 64.2621 31.8853 64.0515C31.8858 63.839 32.059 63.6622 32.2687 63.6648L35.7165 63.6508C35.9301 63.6494 36.1021 63.822 36.1028 64.0326C36.1011 64.217 35.9724 64.3734 35.7978 64.4105Z" fill="#898989"/>
<path d="M35.209 70.6178C35.0013 70.6619 34.797 70.5292 34.7528 70.3215C34.7087 70.1139 34.8399 69.9098 35.0491 69.8653L36.8684 69.4786C37.0761 69.4345 37.2805 69.5672 37.3246 69.7749C37.3687 69.9825 37.236 70.1869 37.0283 70.2311L35.209 70.6178Z" fill="#898989"/>
<path d="M38.3424 76.086C38.2596 76.1036 38.1711 76.0941 38.09 76.0531C37.2358 75.6229 36.1487 75.6589 35.3228 76.1537C35.1347 76.2677 34.904 76.2034 34.7962 76.0219C34.6866 75.8391 34.745 75.6034 34.928 75.4953C35.9699 74.8696 37.3492 74.8171 38.4366 75.3676C38.6267 75.4625 38.7028 75.6948 38.6076 75.8834C38.55 75.99 38.4522 76.0626 38.3424 76.086Z" fill="#898989"/>
<path d="M38.7805 80.9175C38.7504 80.9239 38.7196 80.9273 38.6864 80.9264L37.2933 80.8765C37.0808 80.8682 36.9139 80.6898 36.9225 80.4788C36.9293 80.2666 37.1027 80.1055 37.3203 80.108L38.7134 80.1579C38.9259 80.1662 39.0925 80.3431 39.0842 80.5556C39.0785 80.7362 38.949 80.8816 38.7805 80.9175Z" fill="#898989"/>
<path d="M38.835 86.1684C38.6408 86.2096 38.4413 86.2253 38.2401 86.2115C38.0278 86.1968 37.8678 86.0138 37.8825 85.8015C37.8971 85.5892 38.0705 85.4281 38.2921 85.4423C38.8817 85.4853 39.4948 85.1143 39.7345 84.5695C39.8206 84.375 40.0455 84.2863 40.243 84.3718C40.4359 84.4582 40.5249 84.6846 40.4404 84.8787C40.1487 85.5415 39.5317 86.0203 38.835 86.1684Z" fill="#898989"/>
<path d="M56.4611 48.5967C56.4476 48.5996 56.4356 48.6021 56.4232 48.6032L54.9008 48.7663C54.6886 48.7894 54.5003 48.636 54.476 48.4257C54.4533 48.215 54.5871 48.023 54.817 48.0024L56.3395 47.8393C56.5516 47.8162 56.7399 47.9696 56.7642 48.18C56.7844 48.3786 56.6523 48.5561 56.4611 48.5967Z" fill="#898989"/>
<path d="M59.3638 52.893C59.293 52.908 59.2167 52.9038 59.1445 52.8751C58.4142 52.5915 57.5398 52.6736 56.8701 53.0817C56.6876 53.1929 56.4537 53.1356 56.3426 52.9532C56.2318 52.7723 56.2884 52.5353 56.4693 52.4245C57.3409 51.8932 58.4691 51.7918 59.421 52.1557C59.618 52.2318 59.7176 52.456 59.64 52.6534C59.5933 52.7813 59.4857 52.8671 59.3638 52.893Z" fill="#898989"/>
<path d="M60.4119 57.5052C60.3562 57.517 60.2965 57.5172 60.2365 57.5016L58.7722 57.1239C58.5658 57.0703 58.4425 56.8606 58.4965 56.6556C58.5516 56.4489 58.7644 56.325 58.9648 56.3799L60.4288 56.7561C60.6353 56.8097 60.7585 57.0194 60.7045 57.2244C60.6665 57.3709 60.5488 57.4761 60.4119 57.5052Z" fill="#898989"/>
<path d="M62.3114 63.1255C62.2993 63.1281 62.2858 63.131 62.2746 63.1302L60.5856 63.3162C60.3735 63.3393 60.184 63.1877 60.1597 62.9773C60.137 62.7667 60.3033 62.5725 60.4989 62.5529L62.1879 62.3669C62.4 62.3439 62.5895 62.4955 62.6138 62.7058C62.6355 62.9041 62.5025 63.0849 62.3114 63.1255Z" fill="#898989"/>
<path d="M63.4947 67.8864L61.8408 68.2379C61.6332 68.282 61.4288 68.1493 61.3847 67.9416C61.3405 67.734 61.4732 67.5296 61.6809 67.4855L63.3347 67.1339C63.5424 67.0898 63.7468 67.2225 63.7909 67.4302C63.835 67.6378 63.7023 67.8422 63.4947 67.8864Z" fill="#898989"/>
<path d="M44.5795 63.1479C44.4006 63.0318 44.3501 62.7941 44.4662 62.6152L48.0626 57.0772C48.1788 56.8984 48.4165 56.8479 48.5954 56.964C48.7742 57.0801 48.8247 57.3179 48.7083 57.4952L45.1119 63.0332C44.9957 63.212 44.7586 63.2656 44.5795 63.1479Z" fill="#898989"/>
<path d="M47.858 65.564C47.6792 65.4479 47.6286 65.2101 47.7448 65.0313L51.2262 59.6703C51.3424 59.4915 51.5801 59.4409 51.759 59.5571C51.9378 59.6732 51.9883 59.9109 51.8722 60.0898L48.3907 65.4508C48.2758 65.6278 48.0383 65.6798 47.858 65.564Z" fill="#898989"/>
<path d="M51.8176 63.4308L44.8929 58.9338C44.714 58.8176 44.6635 58.5799 44.7796 58.4011C44.8958 58.2222 45.1335 58.1717 45.3108 58.2881L52.2356 62.7851C52.4144 62.9013 52.465 63.139 52.3488 63.3179C52.2354 63.4945 51.9964 63.5469 51.8176 63.4308Z" fill="#898989"/>
<path d="M50.2323 67.8192L45.8274 64.9587C45.6486 64.8425 45.5981 64.6048 45.7142 64.426C45.8303 64.2471 46.0681 64.1966 46.2469 64.3127L50.6518 67.1733C50.8306 67.2894 50.8811 67.5272 50.765 67.706C50.65 67.883 50.4126 67.935 50.2323 67.8192Z" fill="#898989"/>
<path d="M47.4093 56.8607L43.5774 54.3723C43.3986 54.2561 43.3481 54.0184 43.4642 53.8395C43.5803 53.6607 43.8181 53.6102 43.9969 53.7263L47.8288 56.2148C48.0076 56.3309 48.0581 56.5687 47.942 56.7475C47.8256 56.9248 47.5881 56.9768 47.4093 56.8607Z" fill="#898989"/>
<path d="M84.5405 14.4224L81.3308 12.3381C81.152 12.2219 81.1015 11.9842 81.2176 11.8054C81.3337 11.6265 81.5715 11.576 81.7503 11.6921L84.96 13.7765C85.1388 13.8926 85.1893 14.1304 85.0732 14.3092C84.9568 14.4865 84.7193 14.5386 84.5405 14.4224Z" fill="#898989"/>
<path d="M84.6355 17.5782L81.6101 15.6135C81.4313 15.4973 81.3808 15.2596 81.4969 15.0807C81.613 14.9019 81.8508 14.8514 82.0296 14.9675L85.055 16.9322C85.2338 17.0483 85.2843 17.2861 85.1682 17.4649C85.0518 17.6422 84.8143 17.6943 84.6355 17.5782Z" fill="#898989"/>
<path d="M84.0591 20.9863L81.333 19.216C81.1541 19.0998 81.1036 18.8621 81.2201 18.6848C81.3362 18.5059 81.5739 18.4554 81.7528 18.5715L84.4789 20.3419C84.6577 20.458 84.7082 20.6958 84.5921 20.8746C84.4768 21.0501 84.2394 21.1021 84.0591 20.9863Z" fill="#898989"/>
<path d="M83.8208 24.5252L81.5198 23.0309C81.341 22.9148 81.2904 22.677 81.4066 22.4982C81.5227 22.3194 81.7605 22.2689 81.9393 22.385L84.2402 23.8793C84.4191 23.9954 84.4696 24.2331 84.3535 24.412C84.237 24.5893 83.9999 24.6428 83.8208 24.5252Z" fill="#898989"/>
<path d="M82.9708 26.6407L81.33 25.5739C81.1512 25.4577 81.1007 25.22 81.2171 25.0427C81.3344 24.862 81.5728 24.8145 81.7483 24.9298L83.3891 25.9966C83.5679 26.1127 83.6184 26.3504 83.5023 26.5293C83.3882 26.7029 83.1514 26.758 82.9708 26.6407Z" fill="#898989"/>
<path d="M80.1753 28.1754C79.6498 27.8341 78.5881 27.3678 78.8997 26.8879C79.0174 26.7087 79.2539 26.66 79.4324 26.7746C79.958 27.1159 81.0197 27.5823 80.708 28.0622C80.5931 28.2392 80.3559 28.2927 80.1753 28.1754Z" fill="#898989"/>
<path d="M79.2366 28.6357C79.1403 28.6562 79.0363 28.6405 78.9469 28.5825C78.7681 28.4663 78.7176 28.2286 78.8337 28.0498L81.1124 24.5408C81.2285 24.362 81.4663 24.3115 81.6451 24.4276C81.8239 24.5437 81.8745 24.7815 81.7583 24.9603C81.6158 25.1778 79.4909 28.5816 79.2366 28.6357Z" fill="#898989"/>
<path d="M82.5659 26.1555C82.4696 26.176 82.3656 26.1603 82.2762 26.1023C82.0974 25.9861 82.0469 25.7484 82.163 25.5695L83.5814 23.3854C83.6975 23.2065 83.9353 23.156 84.1141 23.2721C84.2929 23.3883 84.3435 23.626 84.2274 23.8049C84.0899 24.0165 82.8127 26.103 82.5659 26.1555Z" fill="#898989"/>
<path d="M80.6058 20.2039C80.427 20.0878 80.3764 19.85 80.4925 19.6712L81.9868 17.3703C82.1029 17.1914 82.3407 17.1409 82.5195 17.257C82.6983 17.3732 82.7489 17.6109 82.6324 17.7882L81.1382 20.0892C81.022 20.268 80.7849 20.3216 80.6058 20.2039Z" fill="#898989"/>
<path d="M81.5608 14.8939C81.382 14.7778 81.3314 14.54 81.4476 14.3612L82.7857 12.3026C82.903 12.122 83.1414 12.0745 83.3184 12.1894C83.4973 12.3055 83.5478 12.5433 83.4313 12.7206L82.0932 14.7792C81.9786 14.9577 81.7414 15.0112 81.5608 14.8939Z" fill="#898989"/>
<path d="M83.3575 17.9516C83.1786 17.8355 83.1281 17.5977 83.2446 17.4204L83.9508 16.3329C84.0657 16.1559 84.3032 16.1039 84.4835 16.2197C84.9579 16.5278 84.222 17.3275 83.8905 17.8399C83.7729 18.0191 83.5341 18.0651 83.3575 17.9516Z" fill="#898989"/>
<path d="M93.8693 82.626L90.8826 80.6877C90.7038 80.5716 90.6532 80.3338 90.7694 80.155C90.8855 79.9761 91.1233 79.9256 91.3006 80.0421L94.2873 81.9804C94.4661 82.0965 94.5167 82.3343 94.4005 82.5131C94.2856 82.6901 94.0481 82.7421 93.8693 82.626Z" fill="#898989"/>
<path d="M92.9409 84.816L90.6546 83.3312C90.4758 83.2151 90.4252 82.9773 90.5413 82.7985C90.6572 82.6182 90.8956 82.5707 91.0741 82.6853L93.3604 84.1701C93.7917 84.4527 93.3588 85.0874 92.9409 84.816Z" fill="#898989"/>
<path d="M92.8016 89.6585L89.5135 87.5231C89.3346 87.407 89.2841 87.1692 89.4002 86.9904C89.5164 86.8116 89.7541 86.7611 89.9329 86.8772L93.2211 89.0125C93.3999 89.1286 93.4504 89.3664 93.3343 89.5452C93.2178 89.7225 92.9807 89.7761 92.8016 89.6585Z" fill="#898989"/>
<path d="M91.6543 92.7319L90.0613 91.6974C89.8825 91.5813 89.832 91.3436 89.9481 91.1647C90.0642 90.9859 90.302 90.9354 90.4793 91.0518L92.0723 92.0863C92.2511 92.2024 92.3016 92.4402 92.1855 92.619C92.0721 92.7957 91.8331 92.8481 91.6543 92.7319Z" fill="#898989"/>
<path d="M92.1962 96.3397L90.6048 95.3049C90.4259 95.1887 90.3754 94.951 90.4915 94.7722C90.6073 94.5918 90.8458 94.5443 91.0243 94.6589L92.6157 95.6937C92.7945 95.8099 92.8451 96.0476 92.729 96.2264C92.614 96.4034 92.3769 96.457 92.1962 96.3397Z" fill="#898989"/>
<path d="M90.9263 96.8169C90.7475 96.7008 90.697 96.463 90.8131 96.2842L92.3995 93.8394C92.5144 93.6624 92.7519 93.6103 92.9322 93.7262C93.111 93.8423 93.1615 94.08 93.0454 94.2589L91.459 96.7037C91.3402 96.8846 91.1018 96.9322 90.9263 96.8169Z" fill="#898989"/>
<path d="M89.6459 91.334C89.4671 91.2179 89.4166 90.9801 89.5327 90.8013L92.4347 86.3326C92.5508 86.1537 92.7886 86.1032 92.9674 86.2193C93.1462 86.3355 93.1968 86.5732 93.0807 86.752L90.1786 91.2207C90.0637 91.3977 89.8263 91.4498 89.6459 91.334Z" fill="#898989"/>
<path d="M91.4603 85.5299C91.2815 85.4138 91.231 85.176 91.3471 84.9972L93.6433 81.4594C93.7594 81.2806 93.9972 81.23 94.176 81.3462C94.3548 81.4623 94.4053 81.7 94.2892 81.8789L91.9931 85.4167C91.8766 85.594 91.6392 85.646 91.4603 85.5299Z" fill="#898989"/>
<path d="M95.0722 83.4082C94.8934 83.292 94.8428 83.0543 94.959 82.8755L96.0231 81.2369C96.1404 81.0562 96.3788 81.0087 96.5558 81.1236C96.7346 81.2398 96.7851 81.4775 96.6687 81.6549L95.6046 83.2934C95.4896 83.4704 95.2528 83.5255 95.0722 83.4082Z" fill="#898989"/>
<path d="M98.269 75.0078L93.5813 71.9636C93.4025 71.8474 93.352 71.6097 93.4681 71.4308C93.5842 71.252 93.822 71.2015 94.0008 71.3176L98.6885 74.3618C98.8673 74.478 98.9178 74.7157 98.8017 74.8945C98.6853 75.0719 98.4478 75.1239 98.269 75.0078Z" fill="#898989"/>
<path d="M99.4753 72.1813L95.3201 69.4816C95.1413 69.3655 95.0907 69.1277 95.2069 68.9489C95.323 68.7701 95.5608 68.7196 95.7396 68.8357L99.8948 71.5354C100.074 71.6515 100.124 71.8893 100.008 72.0681C99.893 72.2451 99.6544 72.299 99.4753 72.1813Z" fill="#898989"/>
<path d="M99.6479 68.8115L95.9128 66.3858C95.7339 66.2697 95.6834 66.032 95.7995 65.8531C95.9157 65.6743 96.1537 65.6253 96.3322 65.7399L100.067 68.1655C100.246 68.2817 100.297 68.5194 100.181 68.6983C100.066 68.8753 99.8286 68.9288 99.6479 68.8115Z" fill="#898989"/>
<path d="M99.0728 65.3446L96.3269 63.5627C96.1481 63.4466 96.0976 63.2088 96.2137 63.03C96.3298 62.8511 96.5676 62.8006 96.7464 62.9167L99.4923 64.6986C99.6711 64.8148 99.7216 65.0525 99.6055 65.2313C99.4906 65.4083 99.2516 65.4607 99.0728 65.3446Z" fill="#898989"/>
<path d="M99.22 61.122L97.076 59.7297C96.8971 59.6135 96.8466 59.3758 96.9627 59.197C97.0789 59.0181 97.3166 58.9676 97.4954 59.0837L99.6395 60.4761C99.8183 60.5922 99.8688 60.83 99.7527 61.0088C99.6378 61.1858 99.4003 61.2378 99.22 61.122Z" fill="#898989"/>
<path d="M95.5905 76.6212L90.9609 73.6134C90.7821 73.4973 90.7315 73.2595 90.848 73.0822C90.9641 72.9034 91.2019 72.8529 91.3807 72.969L96.0103 75.9768C96.1891 76.0929 96.2397 76.3307 96.1235 76.5095C96.0068 76.6853 95.7693 76.7373 95.5905 76.6212Z" fill="#898989"/>
<path d="M93.021 77.7243L89.0154 75.1218C88.8366 75.0056 88.7861 74.7679 88.9022 74.589C89.0183 74.4102 89.2561 74.3597 89.4349 74.4758L93.4404 77.0783C93.6193 77.1945 93.6698 77.4322 93.5537 77.6111C93.4384 77.7866 93.2016 77.8416 93.021 77.7243Z" fill="#898989"/>
<path d="M89.598 78.2047C89.3497 78.2574 87.206 76.7848 86.9925 76.6462C86.8136 76.53 86.7631 76.2923 86.8792 76.1135C86.9954 75.9346 87.2331 75.8841 87.4119 76.0002L89.7293 77.5052C89.9081 77.6213 89.9587 77.859 89.8426 78.0379C89.7827 78.1261 89.6959 78.1839 89.598 78.2047Z" fill="#898989"/>
<path d="M87.3622 78.7554C87.1834 78.6393 87.1328 78.4015 87.249 78.2227L89.1686 75.2667C89.2848 75.0878 89.5225 75.0373 89.7014 75.1534C89.8802 75.2696 89.9307 75.5073 89.8146 75.6862L87.8949 78.6422C87.78 78.8192 87.5429 78.8727 87.3622 78.7554Z" fill="#898989"/>
<path d="M91.322 78.6186C91.1432 78.5024 91.0926 78.2647 91.2088 78.0859L95.2081 71.9275C95.3242 71.7487 95.562 71.6981 95.7408 71.8142C95.9196 71.9304 95.9702 72.1681 95.854 72.347L91.8547 78.5053C91.7383 78.6827 91.5008 78.7347 91.322 78.6186Z" fill="#898989"/>
<path d="M95.5692 75.4398L97.3609 72.6808C97.477 72.502 97.7148 72.4514 97.8936 72.5676C98.0724 72.6837 98.1229 72.9215 98.0068 73.1003L96.2151 75.8592C95.9378 76.2862 95.2943 75.8631 95.5692 75.4398Z" fill="#898989"/>
<path d="M91.3127 74.1647C91.1339 74.0486 91.0833 73.8109 91.1994 73.632L93.4711 70.1341C93.5872 69.9553 93.8249 69.9047 94.0023 70.0212C94.1811 70.1373 94.2316 70.3751 94.1155 70.5539L91.8439 74.0518C91.7304 74.2285 91.4915 74.2809 91.3127 74.1647Z" fill="#898989"/>
<path d="M96.7035 69.7362C96.5247 69.6201 96.4742 69.3823 96.5903 69.2035L98.3461 66.4977C98.4626 66.3204 98.7 66.2684 98.8788 66.3845C99.0576 66.5006 99.1082 66.7384 98.9921 66.9172L97.2362 69.623C97.1174 69.8039 96.8787 69.8499 96.7035 69.7362Z" fill="#898989"/>
<path d="M96.2675 64.7472C96.0886 64.6311 96.0381 64.3933 96.1542 64.2145L97.5999 61.9884C97.716 61.8095 97.9538 61.759 98.1326 61.8751C98.3114 61.9913 98.362 62.229 98.2459 62.4078L96.8002 64.634C96.6852 64.811 96.4466 64.8649 96.2675 64.7472Z" fill="#898989"/>
<path d="M96.5183 60.7854C96.3394 60.6693 96.2889 60.4315 96.405 60.2527L98.0273 57.7547C98.1434 57.5758 98.3812 57.5253 98.56 57.6414C98.7388 57.7576 98.7893 57.9953 98.6732 58.1742L97.051 60.6722C96.936 60.8492 96.6989 60.9027 96.5183 60.7854Z" fill="#898989"/>
<path d="M77.9663 36.8456L74.7713 34.7707C74.5925 34.6546 74.5419 34.4168 74.658 34.238C74.7742 34.0592 75.0119 34.0086 75.1908 34.1247L78.3858 36.1996C78.8168 36.4808 78.3845 37.1185 77.9663 36.8456Z" fill="#898989"/>
<path d="M79.7218 33.5972L76.4954 31.5007C76.3166 31.3845 76.266 31.1468 76.3822 30.968C76.4983 30.7891 76.7361 30.7386 76.9134 30.855L80.1413 32.9513C80.3201 33.0674 80.3706 33.3052 80.2545 33.484C80.1411 33.6607 79.9024 33.7145 79.7218 33.5972Z" fill="#898989"/>
<path d="M82.0876 31.3422L80.1917 30.111C80.0129 29.9949 79.9623 29.7571 80.0785 29.5783C80.1946 29.3995 80.4323 29.3489 80.6112 29.4651L82.507 30.6963C82.6859 30.8124 82.7364 31.0502 82.6199 31.2275C82.5053 31.406 82.2664 31.4583 82.0876 31.3422Z" fill="#898989"/>
<path d="M77.9863 40.9494L74.096 38.423C73.9172 38.3069 73.8666 38.0691 73.9827 37.8903C74.0989 37.7115 74.3366 37.661 74.5155 37.7771L78.4057 40.3035C78.5846 40.4196 78.6351 40.6574 78.519 40.8362C78.4025 41.0135 78.1651 41.0655 77.9863 40.9494Z" fill="#898989"/>
<path d="M78.0034 46.6474L73.9529 44.0182C73.7741 43.9021 73.7236 43.6644 73.8397 43.4855C73.9558 43.3067 74.1936 43.2562 74.3724 43.3723L78.4229 46.0014C78.6017 46.1176 78.6523 46.3553 78.5362 46.5342C78.4197 46.7115 78.1823 46.7635 78.0034 46.6474Z" fill="#898989"/>
<path d="M78.754 52.1232L74.7615 49.5305C74.5827 49.4143 74.5321 49.1766 74.6483 48.9977C74.7644 48.8189 75.0022 48.7684 75.181 48.8845L79.1734 51.4772C79.3523 51.5934 79.4028 51.8311 79.2867 52.01C79.1717 52.187 78.9343 52.239 78.754 52.1232Z" fill="#898989"/>
<path d="M79.0603 57.5095L76.743 56.0046C76.5641 55.8884 76.5136 55.6507 76.6297 55.4719C76.7458 55.293 76.9836 55.2425 77.1624 55.3586L79.4798 56.8636C79.6586 56.9797 79.7092 57.2174 79.593 57.3963C79.4781 57.5733 79.2392 57.6256 79.0603 57.5095Z" fill="#898989"/>
<path d="M77.5583 58.1293C77.3795 58.0132 77.329 57.7755 77.4451 57.5966L79.4347 54.533C79.5508 54.3541 79.7886 54.3036 79.9674 54.4197C80.1462 54.5358 80.1967 54.7736 80.0806 54.9524L78.091 58.0161C77.9761 58.1931 77.7375 58.247 77.5583 58.1293Z" fill="#898989"/>
<path d="M75.2059 51.6146C75.0271 51.4984 74.9766 51.2607 75.0927 51.0818L78.8574 45.2848C78.9735 45.1059 79.2113 45.0554 79.3901 45.1715C79.5689 45.2877 79.6195 45.5254 79.5033 45.7042L75.7387 51.5013C75.6222 51.6786 75.3848 51.7307 75.2059 51.6146Z" fill="#898989"/>
<path d="M74.5673 42.9188C74.3885 42.8026 74.3379 42.5649 74.4541 42.386L77.8715 37.1236C77.9877 36.9448 78.2254 36.8942 78.4028 37.0107C78.5816 37.1268 78.6321 37.3646 78.516 37.5434L75.1 42.8055C74.9851 42.9825 74.7476 43.0346 74.5673 42.9188Z" fill="#898989"/>
<path d="M77.251 34.4861C77.0721 34.3699 77.0216 34.1322 77.1377 33.9534L79.4828 30.3423C79.5989 30.1634 79.8367 30.1129 80.0155 30.229C80.1943 30.3452 80.2449 30.5829 80.1288 30.7618L77.7837 34.3728C77.6687 34.5498 77.4298 34.6022 77.251 34.4861Z" fill="#898989"/>
<path d="M81.696 30.9286L83.2057 28.6039C83.3218 28.4251 83.5596 28.3746 83.7384 28.4907C83.9172 28.6068 83.9677 28.8446 83.8516 29.0234L82.3419 31.3481C82.0632 31.7754 81.4196 31.3523 81.696 30.9286Z" fill="#898989"/>
</g>
<defs>
<clipPath id="clip0_120_7670">
<rect width="100" height="100" fill="white" transform="translate(0.318359 21.1104) rotate(-12)"/>
</clipPath>
</defs>
</svg>
