<svg width="21" height="21" viewBox="0 0 21 21" fill="none" xmlns="http://www.w3.org/2000/svg">
<path d="M19.8283 3.51601C19.7838 3.20101 19.5865 2.89874 19.3352 2.72056C19.0838 2.5392 18.8038 2.4501 18.5333 2.40238C18.3965 2.37692 18.2629 2.3642 18.1292 2.35783C17.9574 2.35783 17.8461 2.38011 17.7188 2.3992C17.5979 2.41829 17.477 2.4342 17.3656 2.44692C17.3115 2.4501 17.2542 2.45647 17.2097 2.45647C17.162 2.45647 17.1238 2.4501 17.1333 2.4501C17.1079 2.42783 17.0983 2.43738 17.0888 2.3292L17.0824 2.15101C17.0792 2.08101 17.0602 2.00147 17.0474 1.95056C16.9902 1.71829 16.9138 1.4892 16.7992 1.27601C16.6879 1.06283 16.532 0.871923 16.3538 0.72556C16.1692 0.579196 15.9752 0.474196 15.7652 0.401014C15.3452 0.25465 14.8933 0.318287 14.5624 0.499651C14.2252 0.677832 13.9929 0.941923 13.8274 1.19647C13.5029 1.71829 13.4424 2.20511 13.417 2.52011C13.4011 2.84147 13.4392 3.01329 13.4615 3.01329C13.4902 3.01329 13.4965 2.84147 13.557 2.5392C13.6238 2.24329 13.7288 1.78829 14.047 1.34601C14.2092 1.12965 14.4256 0.913287 14.7056 0.782832C14.9856 0.649196 15.3229 0.617378 15.6474 0.741469C15.8065 0.805105 15.972 0.897378 16.1088 1.01511C16.2456 1.13601 16.3602 1.28556 16.4492 1.46056C16.5383 1.63556 16.602 1.83283 16.6465 2.04283C16.6592 2.10329 16.6656 2.13192 16.6688 2.17965L16.672 2.34829C16.6752 2.41511 16.6815 2.49783 16.7229 2.59329C16.7642 2.69192 16.8406 2.77147 16.9297 2.8192C17.0442 2.87965 17.1333 2.87647 17.2033 2.87965C17.2765 2.88283 17.3402 2.87647 17.407 2.87329C17.5342 2.86374 17.6583 2.84465 17.7792 2.82874C17.897 2.81283 18.0306 2.79374 18.1102 2.79692C18.2247 2.80329 18.3424 2.81601 18.4538 2.83829C18.912 2.91465 19.3288 3.16283 19.3861 3.59238C19.4338 3.85647 19.3574 4.14601 19.2429 4.4101C19.1252 4.67101 18.9533 4.90329 18.737 5.08783C18.3074 5.4601 17.7602 5.66374 17.2288 5.75601C16.6974 5.8451 16.1502 5.84192 15.6538 5.83238C15.4088 5.82283 15.1511 5.81647 14.9347 5.80056C14.7215 5.78147 14.5974 5.7051 14.4861 5.54601C14.3779 5.39329 14.292 5.19601 14.2029 5.02738C14.117 4.85556 14.0342 4.69329 13.9642 4.53738C13.8211 4.23192 13.7192 3.96147 13.6492 3.73556C13.5092 3.28374 13.4965 3.01329 13.4615 3.01647C13.4361 3.01647 13.3915 3.2901 13.4806 3.77692C13.5283 4.01874 13.6111 4.31147 13.7352 4.63601C13.7988 4.79829 13.8688 4.97011 13.9452 5.14829C14.0279 5.32647 14.0947 5.5142 14.2252 5.7242C14.2761 5.80374 14.3461 5.88329 14.432 5.9501C14.3142 5.92147 14.0629 6.26192 13.8179 6.70738C13.6492 7.01601 13.5252 7.2992 13.4933 7.4742C13.312 7.39147 13.137 7.31829 12.9842 7.25783C12.6311 7.12101 12.3511 7.03829 12.1602 6.99056C12.0997 6.97783 12.0552 6.9651 12.0106 6.95556C12.0106 6.95238 12.0106 6.95238 12.0106 6.9492C12.0997 6.55465 12.0615 6.3351 12.0392 6.3351C12.0011 6.33192 11.9788 6.54829 11.8452 6.89829C11.7147 7.24192 11.4315 7.73192 10.8779 8.08192C10.6042 8.25374 10.2702 8.38738 9.8947 8.42556C9.52243 8.46056 9.10879 8.4192 8.72697 8.24101C8.34515 8.07238 7.98879 7.78283 7.75015 7.39783C7.50197 7.0192 7.37788 6.5451 7.40015 6.06465C7.43197 5.5842 7.61015 5.1292 7.90288 4.78238C8.18606 4.4292 8.57424 4.18101 8.97197 4.06011C9.3697 3.92965 9.78652 3.93601 10.1524 4.01238C10.5215 4.09192 10.8365 4.26692 11.0911 4.46738C11.6002 4.87783 11.8229 5.39965 11.9152 5.75601C12.0074 6.11874 12.0042 6.33829 12.0424 6.33829C12.0647 6.34147 12.1315 6.1251 12.087 5.7242C12.0424 5.33283 11.8483 4.73147 11.2979 4.22874C11.0242 3.98374 10.6679 3.7642 10.2447 3.65283C9.82152 3.54465 9.3347 3.52238 8.85743 3.66556C8.38015 3.7992 7.91561 4.08556 7.56879 4.50238C7.21561 4.91601 6.99606 5.46329 6.95788 6.0392C6.94515 6.30329 6.97379 6.56738 7.03424 6.81874C6.97061 6.82192 6.88152 6.83465 6.76061 6.85056C6.51879 6.89192 6.16561 6.9651 5.72333 7.11147C4.85152 7.40738 3.58515 8.01192 2.4397 9.2592C1.87652 9.8892 1.37061 10.7069 1.18924 11.7156C1.10652 12.2151 1.14788 12.791 1.42788 13.2969C1.4947 13.421 1.59015 13.5356 1.67606 13.6501C1.78106 13.7456 1.87652 13.8601 1.99743 13.9428C2.12152 14.0383 2.26152 14.1242 2.40788 14.1942C2.41743 14.3087 2.47788 14.5792 2.5797 14.9833C2.71333 15.521 2.92333 16.2942 3.19061 17.2487C3.25743 17.4874 3.32743 17.7356 3.40061 17.9965C3.47379 18.251 3.53106 18.5247 3.61697 18.8142C3.70288 19.0974 3.82061 19.4283 4.09424 19.6828C4.36152 19.9374 4.71788 20.0519 5.05515 20.1187C5.72652 20.2269 6.40106 20.281 7.11697 20.3447C7.8297 20.4051 8.56788 20.456 9.32197 20.4974C10.0792 20.5356 10.8174 20.5674 11.5365 20.5674C11.8961 20.5674 12.2492 20.561 12.6024 20.5324C12.7806 20.5165 12.9524 20.5006 13.1402 20.4528C13.1942 20.4337 13.2356 20.4274 13.2961 20.3987C13.3279 20.3828 13.3597 20.3637 13.3883 20.3478L13.4392 20.3033C13.5092 20.246 13.5761 20.1887 13.6365 20.1219C14.1361 19.6096 14.3842 18.9956 14.6006 18.4546C14.7056 18.1842 14.8042 17.9201 14.8997 17.6687C15.0015 17.4206 15.1002 17.1851 15.1956 16.956C15.5742 16.0396 15.8733 15.2951 16.0706 14.7765C16.1533 14.5601 16.217 14.3851 16.2615 14.2515C16.5606 14.0478 16.8215 13.7901 16.9965 13.4783C17.2447 13.0424 17.3433 12.5524 17.3211 12.0974C17.302 11.6392 17.2002 11.2128 17.0474 10.8215C16.7356 10.0387 16.2361 9.42783 15.7365 8.95056C15.0206 8.2951 14.3111 7.87192 13.7065 7.5792C13.8529 7.46465 14.047 7.23238 14.2124 6.92692C14.4415 6.5101 14.5338 6.11556 14.4797 5.99147C14.4892 5.99783 14.4956 6.00738 14.5052 6.01374C14.6292 6.09329 14.7692 6.12829 14.8965 6.14738C15.1511 6.1792 15.3833 6.19192 15.6442 6.20783C16.1597 6.23329 16.7038 6.25556 17.302 6.16965C17.8874 6.07738 18.5142 5.86738 19.0329 5.4251C19.2906 5.20556 19.5102 4.92238 19.6565 4.60101C19.787 4.27329 19.892 3.91056 19.8283 3.51601ZM15.9115 14.6937C15.6665 15.1901 15.3229 15.9156 14.9092 16.8128C14.8106 17.0356 14.6929 17.2742 14.5815 17.5256C14.4765 17.7737 14.3683 18.0346 14.257 18.3051C14.0311 18.8301 13.7765 19.3965 13.347 19.8197C13.2961 19.8737 13.2356 19.9215 13.1783 19.9692L13.1338 20.0042C13.1274 20.0042 13.1211 20.0074 13.1147 20.0106C13.102 20.0169 13.0606 20.0265 13.0352 20.036C12.8952 20.0678 12.7297 20.0837 12.5674 20.0965C12.2365 20.1187 11.8897 20.1219 11.5365 20.1187C10.8302 20.1124 10.0952 20.0806 9.34424 20.0424C8.59334 20.001 7.85833 19.9533 7.14879 19.8992C6.44561 19.8419 5.74879 19.7942 5.12515 19.7051C4.82606 19.651 4.54606 19.5619 4.35833 19.3869C4.16424 19.2183 4.05606 18.9637 3.96697 18.6965C3.88424 18.4196 3.8047 18.1492 3.72834 17.8915C3.64561 17.6337 3.56606 17.3856 3.4897 17.1501C3.18424 16.2083 2.9297 15.4478 2.74515 14.926C2.62106 14.576 2.52879 14.3342 2.47152 14.2165C2.57652 14.261 2.68152 14.2992 2.79288 14.3246C3.3847 14.4583 3.98606 14.3628 4.54924 14.1847C4.83243 14.0924 5.10924 13.9778 5.3797 13.8378C5.51333 13.7647 5.64697 13.6915 5.77424 13.6056C5.84106 13.5674 5.90152 13.5165 5.96515 13.4719L6.00652 13.4433C6.00333 13.4369 6.02243 13.4656 6.02879 13.4751L6.04152 13.4942L6.1147 13.5801C6.21333 13.7042 6.3247 13.8187 6.43924 13.9301C6.6747 14.1465 6.93561 14.3374 7.21561 14.4965C7.78197 14.8051 8.43424 14.9992 9.10561 14.9896C9.61788 14.9896 10.1333 14.8656 10.582 14.6333C10.8079 14.5187 11.0211 14.3756 11.212 14.2101C11.3074 14.1274 11.3965 14.0351 11.4792 13.9365C11.5174 13.8856 11.5588 13.8378 11.597 13.7837L11.6256 13.7392V13.736L11.7433 13.8315C11.8515 13.9174 11.9597 13.9969 12.0679 14.0765L12.3956 14.3087L12.5642 14.4201C12.5929 14.4392 12.6247 14.4583 12.6661 14.4806L12.7615 14.5283C13.2802 14.7637 13.8306 14.8369 14.3556 14.821C14.887 14.7987 15.3961 14.6778 15.8638 14.4646C15.937 14.4296 16.007 14.3851 16.077 14.3437C16.0356 14.4487 15.9752 14.5633 15.9115 14.6937ZM16.7229 10.9328C16.9806 11.6456 17.0952 12.546 16.6592 13.2715C16.4524 13.631 16.1024 13.911 15.7015 14.1019C15.2911 14.2801 14.8233 14.3915 14.3524 14.4042C13.8783 14.4169 13.3852 14.3437 12.9524 14.1401L12.8729 14.1019C12.857 14.0924 12.8315 14.0796 12.8061 14.0606L12.647 13.9556L12.3288 13.7297C12.2238 13.6533 12.1188 13.5737 12.017 13.4942L11.9438 13.4337L11.8992 13.3956L11.8611 13.3637C11.8483 13.3542 11.8388 13.3319 11.8133 13.3637L11.7497 13.4146C11.7402 13.421 11.7274 13.4337 11.7179 13.4369L11.7052 13.4306L11.6574 13.4051L11.5874 13.3701C11.5842 13.3701 11.5842 13.3701 11.5874 13.3701C11.5206 13.3383 11.4538 13.3065 11.387 13.2747L11.3011 13.4306C11.2883 13.4528 11.2661 13.4878 11.2565 13.5006L11.2342 13.5324C11.2056 13.5769 11.1706 13.6151 11.1388 13.6565C11.0688 13.736 10.9956 13.8124 10.9161 13.8824C10.757 14.0224 10.5756 14.1433 10.3783 14.2419C9.98697 14.4392 9.54788 14.5474 9.09606 14.5474C8.50743 14.5569 7.92833 14.3883 7.42561 14.1146C7.17424 13.9715 6.94197 13.8028 6.73515 13.6119C6.63334 13.5133 6.5347 13.4146 6.44879 13.3033L6.37879 13.2174L6.26424 13.0551L6.1497 12.8928L6.09243 12.8133C6.06697 12.8228 6.03515 12.8547 6.0097 12.8769L5.83788 13.0169L5.75197 13.0869L5.70106 13.1251C5.64379 13.1633 5.5897 13.2078 5.52924 13.246C5.4147 13.3224 5.29061 13.3924 5.1697 13.4592C4.9247 13.5897 4.66697 13.6978 4.40924 13.7837C3.89379 13.9492 3.35288 14.0319 2.87243 13.9269C2.63379 13.876 2.42697 13.7678 2.2297 13.6215C2.12788 13.5547 2.0547 13.4624 1.96243 13.386C1.89243 13.2937 1.81288 13.2046 1.75879 13.106C1.5297 12.7051 1.48197 12.2278 1.54561 11.776C1.69197 10.8692 2.15015 10.0737 2.66561 9.47238C3.73152 8.24738 4.93424 7.61738 5.77106 7.27692C6.40424 7.02556 6.8497 6.92056 7.03106 6.86647C7.10424 7.14647 7.21879 7.40738 7.3747 7.63965C7.67061 8.09465 8.10015 8.4351 8.55833 8.62283C9.01652 8.8201 9.50333 8.8551 9.93288 8.79783C10.3688 8.73738 10.7474 8.56238 11.0465 8.3492C11.6224 7.93556 11.8865 7.39783 11.9883 7.01601C12.157 7.08601 12.4752 7.20692 12.9142 7.40738C13.5824 7.72238 14.5656 8.2251 15.5233 9.15738C16.0006 9.61874 16.4524 10.2074 16.7229 10.9328Z" fill="#D17D2F"/>
<path d="M3.14867 19.7879C3.20276 19.7497 2.88139 19.2597 2.62685 18.5979C2.36594 17.9361 2.27367 17.3601 2.20685 17.3665C2.14958 17.3665 2.14639 17.9838 2.42003 18.6774C2.6873 19.3774 3.10412 19.8261 3.14867 19.7879Z" fill="#D17D2F"/>
<path d="M2.1279 18.7219C2.07062 18.7283 2.10881 19.2597 2.41108 19.826C2.71017 20.3956 3.13017 20.7233 3.16835 20.6787C3.21608 20.6342 2.89153 20.2556 2.60835 19.721C2.32199 19.1897 2.19153 18.7092 2.1279 18.7219Z" fill="#D17D2F"/>
<path d="M16.9776 8.52744C16.9203 8.56562 17.3753 9.26562 17.6839 10.2297C17.9989 11.1938 18.0371 12.0274 18.1071 12.0243C18.1612 12.0306 18.2249 11.162 17.8971 10.1597C17.5758 9.15744 17.0189 8.49244 16.9776 8.52744Z" fill="#D17D2F"/>
<path d="M17.9671 8.49542C17.9098 8.52406 18.1676 9.11906 18.368 9.8827C18.5748 10.6463 18.6448 11.2891 18.7116 11.2859C18.7689 11.2859 18.7976 10.6177 18.5844 9.82542C18.3744 9.03315 18.0148 8.46679 17.9671 8.49542Z" fill="#D17D2F"/>
</svg>
