<svg width="24" height="24" viewBox="0 0 24 24" fill="none" xmlns="http://www.w3.org/2000/svg">
<path d="M11.9996 5.15918C9.54274 5.15918 7.54395 7.15798 7.54395 9.61479C7.54395 12.0716 9.54274 14.0704 11.9996 14.0704C14.4564 14.0704 16.4552 12.0716 16.4552 9.61479C16.4552 7.15798 14.4564 5.15918 11.9996 5.15918ZM11.9996 12.1944C10.5772 12.1944 9.41998 11.0372 9.41998 9.61479C9.41998 8.19241 10.5772 7.03521 11.9996 7.03521C13.4219 7.03521 14.5791 8.19241 14.5791 9.61479C14.5791 11.0372 13.4219 12.1944 11.9996 12.1944Z" fill="#0B0E13"/>
<path d="M11.9995 0C6.69792 0 2.38477 4.3132 2.38477 9.61477V9.88055C2.38477 12.5618 3.92198 15.6863 6.95386 19.1671C9.15173 21.6905 11.3189 23.45 11.41 23.5237L11.9995 24L12.589 23.5237C12.6802 23.45 14.8474 21.6905 17.0452 19.1671C20.077 15.6863 21.6143 12.5618 21.6143 9.88059V9.61481C21.6143 4.3132 17.3011 0 11.9995 0ZM19.7383 9.88059C19.7383 14.4118 13.8999 19.8968 11.9995 21.5619C10.0986 19.8963 4.2608 14.4114 4.2608 9.88059V9.61481C4.2608 5.34769 7.73241 1.87608 11.9995 1.87608C16.2667 1.87608 19.7383 5.34769 19.7383 9.61481V9.88059Z" fill="#0B0E13"/>
</svg>
