<?xml version="1.0" standalone="no"?>
<!DOCTYPE svg PUBLIC "-//W3C//DTD SVG 20010904//EN"
 "http://www.w3.org/TR/2001/REC-SVG-20010904/DTD/svg10.dtd">
<svg version="1.0" xmlns="http://www.w3.org/2000/svg"
 width="150.000000pt" height="150.000000pt" viewBox="0 0 150.000000 150.000000"
 preserveAspectRatio="xMidYMid meet">
<metadata>
Created by potrace 1.14, written by Peter Selinger 2001-2017
</metadata>
<g transform="translate(0.000000,150.000000) scale(0.100000,-0.100000)"
fill="#000000" stroke="none">
<path d="M0 750 l0 -750 750 0 750 0 0 750 0 750 -750 0 -750 0 0 -750z m549
294 c72 -68 121 -146 121 -195 l0 -27 43 15 c40 14 100 13 140 -2 12 -5 18 0
22 22 10 45 34 94 68 136 40 51 126 119 139 111 14 -9 3 -154 -17 -222 -10
-32 -30 -67 -53 -91 l-37 -39 24 -46 c17 -32 24 -64 25 -106 1 -54 -2 -63 -29
-90 -49 -49 -133 -73 -240 -68 -98 5 -159 25 -207 71 -24 23 -28 34 -28 85 0
43 7 72 25 108 l25 49 -35 35 c-19 19 -41 55 -50 80 -20 57 -33 240 -17 240 7
0 43 -30 81 -66z"/>
<path d="M550 878 c0 -20 43 -84 47 -71 5 13 -21 68 -37 78 -5 3 -10 0 -10 -7z"/>
<path d="M970 871 c-19 -37 -29 -71 -21 -71 11 0 36 37 45 68 9 27 -9 30 -24
3z"/>
<path d="M589 634 c-11 -14 -10 -20 14 -40 31 -27 77 -32 77 -10 0 14 -55 66
-70 66 -4 0 -14 -7 -21 -16z"/>
<path d="M891 625 c-39 -33 -40 -55 -3 -55 38 0 74 27 70 53 -4 31 -31 32 -67
2z"/>
<path d="M755 570 c3 -5 13 -10 21 -10 8 0 14 5 14 10 0 6 -9 10 -21 10 -11 0
-17 -4 -14 -10z"/>
<path d="M760 525 c-7 -9 -20 -13 -29 -10 -13 5 -13 4 -4 -6 10 -10 15 -10 27
0 11 10 19 9 35 -1 17 -10 23 -10 33 0 11 11 9 12 -6 6 -13 -5 -23 -2 -31 9
-11 16 -14 16 -25 2z"/>
</g>
</svg>
