<svg width="31" height="31" viewBox="0 0 31 31" fill="none" xmlns="http://www.w3.org/2000/svg">
<path d="M20.8712 20.8711C20.8076 20.9347 20.7213 20.9705 20.6313 20.9705C20.5413 20.9705 20.455 20.9347 20.3914 20.8711L15.3535 15.8333L10.3156 20.8711C10.252 20.9347 10.1657 20.9705 10.0757 20.9705C9.98577 20.9705 9.89947 20.9347 9.83585 20.8711C9.77222 20.8075 9.73648 20.7212 9.73648 20.6312C9.73648 20.5412 9.77222 20.455 9.83585 20.3913L14.8737 15.3535L9.83585 10.3156C9.77222 10.252 9.73648 10.1657 9.73648 10.0757C9.73648 9.9857 9.77222 9.89941 9.83585 9.83578C9.89947 9.77216 9.98577 9.73642 10.0757 9.73642C10.1657 9.73642 10.252 9.77216 10.3156 9.83578L15.3535 14.8737L20.3914 9.83578C20.455 9.77216 20.5413 9.73642 20.6313 9.73642C20.7213 9.73642 20.8076 9.77216 20.8712 9.83578C20.9348 9.89941 20.9706 9.9857 20.9706 10.0757C20.9706 10.1657 20.9348 10.252 20.8712 10.3156L15.8333 15.3535L20.8712 20.3913C20.9348 20.455 20.9706 20.5412 20.9706 20.6312C20.9706 20.7212 20.9348 20.8075 20.8712 20.8711Z" fill="white"/>
</svg>
