<svg width="228" height="34" viewBox="0 0 228 34" fill="none" xmlns="http://www.w3.org/2000/svg">
<path d="M49.9899 19.4066V26.0857C49.9899 28.9797 50.8544 30.9733 52.5833 32.0712C54.3123 33.1691 57.2144 33.509 61.295 33.091V28.2125C60.1423 28.2723 59.1801 28.2769 58.4031 28.2355C57.6209 28.1942 57.0292 28.0058 56.6278 27.6751C56.2213 27.3398 56.0155 26.8161 56.0155 26.0903V17.413L49.9899 19.4112V19.4066ZM61.295 12.2405H56.0155V6.39746L49.9899 8.02361V12.2405H45.9248V17.413H61.295V12.2405Z" fill="black"/>
<path d="M70.7072 12.2357V15.8233C71.2373 14.5187 72.1378 13.5219 73.419 12.8421C74.6952 12.1622 76.1617 12.2357 77.8083 12.2357V17.8262C75.9455 17.8262 74.3195 17.9364 72.8581 18.8276C71.4276 19.6912 70.7072 21.1198 70.7072 23.1226V33.0908H64.6816V12.2403H70.7072V12.2357Z" fill="black"/>
<path d="M96.6876 23.4948V12.2358H102.713V33.0863H96.6876V30.7527C95.2571 32.7004 92.9364 33.6697 89.7255 33.6697C87.1733 33.6697 85.0532 32.9071 83.3706 31.3774C81.7188 29.8202 80.8955 27.7071 80.8955 25.0382V12.2358H86.9211V24.3722C86.9211 25.7365 87.3328 26.793 88.1612 27.5418C88.9845 28.2905 90.1166 28.6672 91.5471 28.6672C93.1371 28.6672 94.3875 28.2308 95.3086 27.3534C96.2245 26.4761 96.6876 25.1898 96.6876 23.4948Z" fill="black"/>
<path d="M129.409 24.873H111.795C112.572 27.4867 114.769 28.7913 118.381 28.7913C120.687 28.7913 122.431 28.0977 123.615 26.7058L128.472 29.2094C126.167 32.186 122.771 33.6698 118.289 33.6698C114.424 33.6698 111.327 32.627 108.991 30.5415C106.654 28.456 105.486 25.8284 105.486 22.6589C105.486 19.4893 106.639 16.9306 108.944 14.8175C111.219 12.7045 114.177 11.6479 117.821 11.6479C121.464 11.6479 124.093 12.7045 126.275 14.8175C128.518 16.9306 129.64 19.5444 129.64 22.6589C129.64 23.2422 129.563 23.9818 129.403 24.8684L129.409 24.873ZM111.702 20.702H123.615C123.27 19.3423 122.58 18.2995 121.536 17.5737C120.491 16.8525 119.256 16.4896 117.821 16.4896C116.2 16.4896 114.862 16.8571 113.802 17.5967C112.742 18.3317 112.042 19.3698 111.697 20.702H111.702Z" fill="black"/>
<path d="M137.307 33.0862H133.242V3.8938H137.307V33.0862Z" fill="black"/>
<path d="M161.332 15.8235V12.2359H165.397V33.0863H161.332V29.4987C159.341 32.2502 156.398 33.6283 152.502 33.6283C149.199 33.6283 146.415 32.5718 144.141 30.4587C141.835 28.3181 140.683 25.7181 140.683 22.6588C140.683 19.5994 141.835 17.0408 144.141 14.9002C146.446 12.7595 149.235 11.6892 152.502 11.6892C156.398 11.6892 159.341 13.0673 161.332 15.8189V15.8235ZM153.017 30.128C155.384 30.128 157.36 29.4206 158.95 28.0011C160.54 26.5266 161.332 24.7489 161.332 22.6634C161.332 20.5779 160.54 18.7864 158.95 17.3669C157.36 15.9199 155.384 15.1987 153.017 15.1987C150.65 15.1987 148.72 15.9199 147.13 17.3669C145.54 18.7864 144.748 20.5503 144.748 22.6634C144.748 24.7764 145.54 26.5266 147.13 28.0011C148.72 29.4206 150.681 30.128 153.017 30.128Z" fill="black"/>
<path d="M182.059 11.6938C185.332 11.6938 188.116 12.7641 190.421 14.9047C192.726 17.0454 193.879 19.6316 193.879 22.6634C193.879 25.6952 192.726 28.3227 190.421 30.4633C188.146 32.5764 185.358 33.6329 182.059 33.6329C178.195 33.6329 175.251 32.2548 173.229 29.5033V33.0909H169.164V3.89844H173.229V15.8281C175.251 13.0765 178.195 11.6984 182.059 11.6984V11.6938ZM181.545 30.128C183.881 30.128 185.841 29.4206 187.431 28.0011C189.021 26.5266 189.814 24.7489 189.814 22.6634C189.814 20.5779 189.021 18.7864 187.431 17.3669C185.841 15.9199 183.881 15.1987 181.545 15.1987C179.208 15.1987 177.202 15.9199 175.612 17.3669C174.022 18.7864 173.229 20.5503 173.229 22.6634C173.229 24.7764 174.022 26.5266 175.612 28.0011C177.202 29.4206 179.178 30.128 181.545 30.128Z" fill="black"/>
<path d="M220.225 24.3309H200.651C201.057 26.1637 202.004 27.6061 203.502 28.6488C204.994 29.6916 206.867 30.2107 209.105 30.2107C212.188 30.2107 214.431 29.1955 215.831 27.1651L219.289 28.9153C216.983 32.0573 213.556 33.6283 209.013 33.6283C205.339 33.6283 202.318 32.5994 199.951 30.5414C197.646 28.4284 196.493 25.8008 196.493 22.6588C196.493 19.5167 197.63 16.8754 199.905 14.8175C202.179 12.732 205.122 11.6892 208.735 11.6892C212.162 11.6892 214.951 12.7733 217.096 14.9415C219.278 17.0546 220.364 19.6408 220.364 22.7001C220.364 23.2284 220.318 23.7704 220.225 24.3263V24.3309ZM208.735 15.1161C206.584 15.1161 204.788 15.6581 203.337 16.7422C201.891 17.8263 200.99 19.3008 200.651 21.1613H216.253C215.908 19.2411 215.054 17.7574 213.685 16.7008C212.316 15.6443 210.664 15.1161 208.735 15.1161Z" fill="black"/>
<path d="M228 33.0862H223.935V3.8938H228V33.0862Z" fill="black"/>
<path d="M30.5396 13.4577V25.6859C30.2463 24.34 29.1812 23.2283 27.7352 22.769L19.7749 20.2287L4.91927 15.4881L2.25896 14.6383C0.900502 14.2065 0 13.0581 0 11.7719V4.31641C0 4.01782 0.329324 3.81111 0.64321 3.91217L14.4336 8.31286L19.7749 10.0171L30.4264 13.4164L30.5396 13.4531V13.4577Z" fill="#56FF00"/>
<path d="M30.5394 25.6906V32.4203C30.5394 32.8842 30.1175 33.2655 29.5926 33.2655H20.7163C20.1966 33.2655 19.7695 32.8888 19.7695 32.4203V20.2334L27.7299 22.7737C29.1758 23.2376 30.2461 24.3447 30.5343 25.6906H30.5394Z" fill="url(#paint0_linear_783_6920)"/>
<path d="M41.3038 0.425579V9.25911C41.3038 9.71847 40.9797 10.1227 40.5011 10.2789L30.5391 13.4577V4.01779C30.5391 3.55843 30.8632 3.15419 31.3418 2.99801L40.6606 0.0259366C40.9745 -0.075123 41.3038 0.131592 41.3038 0.430177V0.425579Z" fill="#56FF00"/>
<defs>
<linearGradient id="paint0_linear_783_6920" x1="25.1519" y1="33.2609" x2="25.1519" y2="20.2288" gradientUnits="userSpaceOnUse">
<stop stop-color="#56FF00"/>
<stop offset="1" stop-color="#006837"/>
</linearGradient>
</defs>
</svg>
