<svg width="178" height="27" viewBox="0 0 178 27" fill="none" xmlns="http://www.w3.org/2000/svg">
<path d="M39.0271 15.1504V20.3648C39.0271 22.6242 39.702 24.1806 41.0518 25.0377C42.4016 25.8948 44.6674 26.1602 47.853 25.8339V22.0253C46.9532 22.0719 46.202 22.0755 45.5954 22.0432C44.9847 22.0109 44.5227 21.8639 44.2094 21.6057C43.892 21.3439 43.7313 20.935 43.7313 20.3684V13.594L39.0271 15.154V15.1504ZM47.853 9.55586H43.7313V4.99414L39.0271 6.26368V9.55586H35.8535V13.594H47.853V9.55586Z" fill="white"/>
<path d="M55.2013 9.55259V12.3535C55.6151 11.335 56.3181 10.5567 57.3184 10.026C58.3147 9.49522 59.4596 9.55259 60.7451 9.55259V13.9171C59.2908 13.9171 58.0214 14.0031 56.8805 14.6989C55.7637 15.3731 55.2013 16.4884 55.2013 18.052V25.8342H50.4971V9.55618H55.2013V9.55259Z" fill="white"/>
<path d="M75.4842 18.3426V9.55273H80.1884V25.8307H75.4842V24.0089C74.3674 25.5295 72.5557 26.2862 70.0489 26.2862C68.0563 26.2862 66.4012 25.6909 65.0876 24.4967C63.798 23.2809 63.1553 21.6312 63.1553 19.5476V9.55273H67.8595V19.0276C67.8595 20.0927 68.1809 20.9176 68.8276 21.5021C69.4704 22.0867 70.3542 22.3808 71.471 22.3808C72.7123 22.3808 73.6885 22.0401 74.4076 21.3551C75.1227 20.6701 75.4842 19.666 75.4842 18.3426Z" fill="white"/>
<path d="M101.03 19.4186H87.2786C87.8853 21.4592 89.6006 22.4777 92.4208 22.4777C94.2205 22.4777 95.5823 21.9361 96.5063 20.8495L100.299 22.804C98.4988 25.1279 95.8475 26.2863 92.3484 26.2863C89.3315 26.2863 86.9131 25.4722 85.0893 23.844C83.2654 22.2159 82.3535 20.1645 82.3535 17.69C82.3535 15.2155 83.2534 13.2179 85.0531 11.5683C86.8287 9.91859 89.1386 9.09375 91.9829 9.09375C94.8271 9.09375 96.8799 9.91859 98.5832 11.5683C100.335 13.2179 101.211 15.2585 101.211 17.69C101.211 18.1455 101.15 18.7228 101.026 19.415L101.03 19.4186ZM87.2063 16.1623H96.5063C96.2371 15.1007 95.6988 14.2866 94.8833 13.72C94.0678 13.157 93.1037 12.8737 91.9829 12.8737C90.7174 12.8737 89.6729 13.1606 88.8454 13.738C88.0178 14.3118 87.4715 15.1223 87.2023 16.1623H87.2063Z" fill="white"/>
<path d="M107.197 25.8307H104.023V3.04004H107.197V25.8307Z" fill="white"/>
<path d="M125.953 12.3536V9.55274H129.127V25.8308H125.953V23.0299C124.399 25.1781 122.101 26.2539 119.06 26.2539C116.481 26.2539 114.307 25.4291 112.532 23.7794C110.732 22.1082 109.832 20.0784 109.832 17.69C109.832 15.3015 110.732 13.304 112.532 11.6328C114.331 9.96158 116.509 9.12598 119.06 9.12598C122.101 9.12598 124.399 10.2019 125.953 12.35V12.3536ZM119.461 23.5212C121.309 23.5212 122.852 22.9689 124.093 21.8608C125.335 20.7096 125.953 19.3217 125.953 17.6935C125.953 16.0654 125.335 14.6667 124.093 13.5586C122.852 12.4289 121.309 11.8659 119.461 11.8659C117.613 11.8659 116.107 12.4289 114.866 13.5586C113.624 14.6667 113.006 16.0439 113.006 17.6935C113.006 19.3432 113.624 20.7096 114.866 21.8608C116.107 22.9689 117.638 23.5212 119.461 23.5212Z" fill="white"/>
<path d="M142.135 9.12933C144.69 9.12933 146.863 9.96492 148.663 11.6361C150.462 13.3073 151.362 15.3264 151.362 17.6933C151.362 20.0602 150.462 22.1116 148.663 23.7828C146.887 25.4324 144.71 26.2573 142.135 26.2573C139.118 26.2573 136.82 25.1814 135.241 23.0332V25.8341H132.067V3.04346H135.241V12.357C136.82 10.2088 139.118 9.13292 142.135 9.13292V9.12933ZM141.733 23.521C143.557 23.521 145.087 22.9687 146.329 21.8605C147.57 20.7093 148.189 19.3215 148.189 17.6933C148.189 16.0651 147.57 14.6665 146.329 13.5584C145.087 12.4287 143.557 11.8656 141.733 11.8656C139.909 11.8656 138.342 12.4287 137.101 13.5584C135.86 14.6665 135.241 16.0436 135.241 17.6933C135.241 19.343 135.86 20.7093 137.101 21.8605C138.342 22.9687 139.885 23.521 141.733 23.521Z" fill="white"/>
<path d="M171.93 18.9954H156.648C156.966 20.4263 157.705 21.5524 158.874 22.3664C160.039 23.1805 161.501 23.5858 163.249 23.5858C165.655 23.5858 167.406 22.7932 168.499 21.2081L171.199 22.5744C169.399 25.0274 166.724 26.2539 163.176 26.2539C160.308 26.2539 157.95 25.4506 156.102 23.844C154.302 22.1943 153.402 20.1429 153.402 17.69C153.402 15.237 154.29 13.1749 156.066 11.5682C157.841 9.94006 160.139 9.12598 162.959 9.12598C165.635 9.12598 167.812 9.97234 169.487 11.6651C171.191 13.3147 172.038 15.3338 172.038 17.7222C172.038 18.1346 172.002 18.5578 171.93 18.9918V18.9954ZM162.959 11.8013C161.28 11.8013 159.878 12.2245 158.745 13.0709C157.616 13.9172 156.913 15.0684 156.648 16.5208H168.829C168.559 15.0218 167.893 13.8634 166.824 13.0386C165.755 12.2137 164.466 11.8013 162.959 11.8013Z" fill="white"/>
<path d="M178 25.8307H174.826V3.04004H178V25.8307Z" fill="white"/>
<path d="M23.8424 10.5067V20.0533C23.6134 19.0025 22.7818 18.1346 21.653 17.776L15.4383 15.7928L3.84049 12.0918L1.76358 11.4283C0.703025 11.0912 0 10.1947 0 9.19051V3.37002C0 3.13691 0.257104 2.97553 0.502157 3.05443L11.2684 6.49007L15.4383 7.82056L23.754 10.4744L23.8424 10.5031V10.5067Z" fill="#56FF00"/>
<path d="M23.8424 20.0564V25.3102C23.8424 25.6724 23.513 25.9701 23.1033 25.9701H16.1735C15.7678 25.9701 15.4343 25.676 15.4343 25.3102V15.7959L21.649 17.7791C22.7779 18.1413 23.6134 19.0056 23.8384 20.0564H23.8424Z" fill="url(#paint0_linear_776_121)"/>
<path d="M32.2469 0.332251V7.22862C32.2469 7.58725 31.9938 7.90284 31.6202 8.02477L23.8428 10.5065V3.1367C23.8428 2.77808 24.0959 2.46249 24.4695 2.34056L31.7447 0.0202488C31.9898 -0.0586488 32.2469 0.102734 32.2469 0.335841V0.332251Z" fill="#56FF00"/>
<defs>
<linearGradient id="paint0_linear_776_121" x1="19.6364" y1="25.9665" x2="19.6364" y2="15.7923" gradientUnits="userSpaceOnUse">
<stop stop-color="#56FF00"/>
<stop offset="1" stop-color="#006837"/>
</linearGradient>
</defs>
</svg>
