<svg width="924" height="1028" viewBox="0 0 924 1028" fill="none" xmlns="http://www.w3.org/2000/svg">
<g style="mix-blend-mode:hard-light">
<path fill-rule="evenodd" clip-rule="evenodd" d="M904.157 413.405C890.946 508.873 807.789 570.764 731.819 623.759C669.211 667.432 597.208 677.048 522.616 679.557C438.001 682.402 347.852 694.543 281.626 638.9C205.919 575.291 155.524 476.219 158.002 373.21C160.54 267.688 217.021 170.971 294.48 104.564C368.042 41.498 463.756 23.1278 557.572 30.6523C648.761 37.9661 734.782 75.0585 798.073 144.954C863.798 217.538 918.02 313.219 904.157 413.405Z" fill="#56FF00"/>
</g>
<g style="mix-blend-mode:hard-light">
<path fill-rule="evenodd" clip-rule="evenodd" d="M901.726 429.385C924.648 537.634 931.793 652.428 875.367 747.609C818.894 842.871 718.445 909.035 608.679 923.712C508.41 937.119 423.134 870.944 335.888 819.742C247.87 768.087 125.143 731.859 109.837 630.957C94.7077 531.223 221.272 476.241 270.418 388.147C322.512 294.768 307.168 159.55 401.211 108.665C506.183 51.8677 644.397 67.0306 744.888 131.423C843.13 194.375 877.555 315.235 901.726 429.385Z" fill="#006837"/>
</g>
<g style="mix-blend-mode:hard-light">
<path fill-rule="evenodd" clip-rule="evenodd" d="M901.726 429.385C924.648 537.634 931.793 652.428 875.367 747.609C818.894 842.871 718.445 909.035 608.679 923.712C508.41 937.119 423.134 870.944 335.888 819.742C247.87 768.087 125.143 731.859 109.837 630.957C94.7077 531.223 221.272 476.241 270.418 388.147C322.512 294.768 307.168 159.55 401.211 108.665C506.183 51.8677 644.397 67.0306 744.888 131.423C843.13 194.375 877.555 315.235 901.726 429.385Z" fill="#006837"/>
</g>
<g style="mix-blend-mode:hard-light">
<path fill-rule="evenodd" clip-rule="evenodd" d="M1207.12 402.044C1195.59 485.358 1123.02 539.369 1056.73 585.616C1002.09 623.729 939.254 632.121 874.158 634.31C800.317 636.794 721.645 647.388 663.851 598.83C597.782 543.319 553.804 456.861 555.966 366.967C558.181 274.88 607.471 190.477 675.069 132.524C739.265 77.4877 822.793 61.4564 904.664 68.0228C984.243 74.4055 1059.31 106.775 1114.54 167.772C1171.9 231.115 1219.22 314.614 1207.12 402.044Z" fill="#56FF00"/>
</g>
</svg>
