<svg width="119" height="119" viewBox="0 0 119 119" fill="none" xmlns="http://www.w3.org/2000/svg">
<g style="mix-blend-mode:hard-light">
<path fill-rule="evenodd" clip-rule="evenodd" d="M87.3322 39.3803C93.271 46.7305 98.2811 55.1495 97.7571 64.3982C97.2327 73.6547 92.2748 82.3109 84.611 87.4134C77.6104 92.0744 68.6331 90.1734 60.0915 89.476C51.4743 88.7724 40.8541 90.4978 35.7731 83.426C30.751 76.4361 38.1042 67.6752 38.3581 59.2273C38.6273 50.2724 32.2061 40.6075 37.2789 33.3395C42.9413 25.2269 53.9024 21.3456 63.9519 22.5584C73.7764 23.7441 81.0698 31.6294 87.3322 39.3803Z" fill="#006837"/>
</g>
<g style="mix-blend-mode:hard-light">
<path fill-rule="evenodd" clip-rule="evenodd" d="M87.1311 39.4179C93.0698 46.7681 98.0799 55.1871 97.5559 64.4358C97.0315 73.6923 92.0736 82.3485 84.4099 87.451C77.4092 92.112 68.4319 90.211 59.8903 89.5136C51.2731 88.81 40.653 90.5354 35.572 83.4636C30.5498 76.4737 37.903 67.7128 38.157 59.2649C38.4262 50.31 32.0049 40.6451 37.0778 33.3771C42.7401 25.2645 53.7012 21.3832 63.7507 22.596C73.5753 23.7817 80.8686 31.667 87.1311 39.4179Z" fill="#006837"/>
</g>
<g style="mix-blend-mode:hard-light">
<path fill-rule="evenodd" clip-rule="evenodd" d="M70.8389 79.7546C64.7592 85.2736 55.8499 84.9218 47.9038 84.3696C41.3554 83.9145 36.0362 80.7473 30.9317 76.981C25.1414 72.7087 18.4762 68.7499 17.0962 61.6388C15.5187 53.5095 17.5586 44.4051 23.3342 37.8299C29.2507 31.0942 38.2802 27.7734 47.0561 27.5309C55.3904 27.3006 62.7655 31.1471 68.6038 36.5792C74.2786 41.8592 77.9873 48.8056 78.3955 56.69C78.8193 64.8776 77.219 73.9628 70.8389 79.7546Z" fill="#56FF00"/>
</g>
</svg>
