<svg width="88" height="73" viewBox="0 0 88 73" fill="none" xmlns="http://www.w3.org/2000/svg">
<g style="mix-blend-mode:hard-light">
<path fill-rule="evenodd" clip-rule="evenodd" d="M61.0112 10.1232C68.2043 12.6865 75.2123 16.4139 78.7702 23.1707C82.3311 29.9331 82.5923 38.2299 79.4894 45.2144C76.6549 51.5945 69.6829 54.2177 63.52 57.4978C57.3026 60.8069 50.7382 66.7142 44.2523 63.9686C37.8414 61.2548 39.1812 51.8263 35.777 45.7538C32.1686 39.3169 23.6635 35.3336 24.0693 27.9654C24.5223 19.7411 30.4076 12.162 37.8246 8.57975C45.0756 5.07765 53.4259 7.42023 61.0112 10.1232Z" fill="#006837"/>
</g>
<g style="mix-blend-mode:hard-light">
<path fill-rule="evenodd" clip-rule="evenodd" d="M61.0112 10.1232C68.2043 12.6865 75.2123 16.414 78.7702 23.1707C82.3311 29.9331 82.5923 38.2299 79.4894 45.2144C76.6549 51.5945 69.6829 54.2177 63.52 57.4978C57.3026 60.8069 50.7382 66.7142 44.2523 63.9686C37.8414 61.2548 39.1812 51.8263 35.777 45.7538C32.1686 39.3169 23.6635 35.3336 24.0693 27.9654C24.5223 19.7411 30.4076 12.162 37.8246 8.57975C45.0756 5.07766 53.426 7.42023 61.0112 10.1232Z" fill="#006837"/>
</g>
<g style="mix-blend-mode:hard-light">
<path fill-rule="evenodd" clip-rule="evenodd" d="M50.7085 15.6971C55.9199 19.985 56.5638 27.2151 56.9405 33.6902C57.2509 39.0264 55.185 43.6746 52.6002 48.2168C49.668 53.3692 47.0875 59.1926 41.3401 61.1038C34.7698 63.2886 27.0117 62.6633 20.9571 58.7392C14.7547 54.7194 11.0551 47.8043 9.9328 40.7486C8.86701 34.0479 11.2799 27.6642 15.168 22.343C18.9472 17.1707 24.3136 13.3985 30.8038 12.1849C37.5436 10.9246 45.2397 11.1973 50.7085 15.6971Z" fill="#56FF00"/>
</g>
</svg>
