<svg width="89" height="83" viewBox="0 0 89 83" fill="none" xmlns="http://www.w3.org/2000/svg">
<g style="mix-blend-mode:hard-light">
<path fill-rule="evenodd" clip-rule="evenodd" d="M62.7772 43.2167C60.7558 50.7779 57.5298 58.2465 50.9227 62.4423C44.31 66.6416 35.8559 67.5973 28.463 65.0073C21.7099 62.6415 18.4512 55.7368 14.5886 49.7132C10.6919 43.6364 4.11198 37.4209 6.37829 30.567C8.61838 23.7925 18.3615 24.3784 24.2825 20.3965C30.5587 16.1757 33.9217 7.15633 41.4826 6.95914C49.922 6.73904 58.1533 12.122 62.4287 19.4017C66.6084 26.5183 64.9087 35.2433 62.7772 43.2167Z" fill="#006837"/>
</g>
<g style="mix-blend-mode:hard-light">
<path fill-rule="evenodd" clip-rule="evenodd" d="M62.7772 43.2167C60.7558 50.7779 57.5298 58.2465 50.9227 62.4423C44.31 66.6416 35.8559 67.5973 28.463 65.0073C21.7099 62.6415 18.4512 55.7368 14.5886 49.7132C10.6919 43.6364 4.11198 37.4209 6.37829 30.567C8.61838 23.7925 18.3615 24.3784 24.2825 20.3965C30.5587 16.1757 33.9217 7.15633 41.4826 6.95914C49.922 6.73904 58.1533 12.122 62.4287 19.4017C66.6084 26.5183 64.9087 35.2433 62.7772 43.2167Z" fill="#006837"/>
</g>
<g style="mix-blend-mode:hard-light">
<path fill-rule="evenodd" clip-rule="evenodd" d="M77.0443 65.5524C73.5053 70.6441 66.932 71.772 61.0302 72.5989C56.1664 73.2803 51.7558 71.7344 47.4037 69.7053C42.4669 67.4036 36.9418 65.4738 34.7637 60.3526C32.2738 54.4982 32.269 47.3468 35.4119 41.5099C38.6316 35.5306 44.6891 31.6278 51.0672 30.0748C57.1243 28.6 63.1501 30.3345 68.3126 33.4991C73.3306 36.5752 77.1846 41.2089 78.7792 47.0623C80.435 53.1407 80.7581 60.2091 77.0443 65.5524Z" fill="#56FF00"/>
</g>
</svg>
