<svg width="370" height="359" viewBox="0 0 370 359" fill="none" xmlns="http://www.w3.org/2000/svg">
<path d="M294.836 29.8379H293.186V222.735H294.836V29.8379Z" fill="#263238"/>
<path d="M303.364 231.271H284.667L286.602 222.734H301.429L303.364 231.271Z" fill="#263238"/>
<path d="M306.526 238.425H281.513L284.105 227.002H303.934L306.526 238.425Z" fill="#37474F"/>
<path d="M318.847 77.7812V47.4116C318.835 47.9424 318.914 48.4713 319.08 48.9755C319.27 49.5217 319.544 50.0349 319.892 50.4961C322.553 54.0817 330.148 56.5441 342.538 57.7623V88.1406C330.148 86.8964 322.553 84.4599 319.892 80.8743C319.544 80.4131 319.27 79.9 319.08 79.3537C318.915 78.8464 318.836 78.3148 318.847 77.7812Z" fill="#F7941E"/>
<g opacity="0.1">
<path opacity="0.1" d="M318.847 77.7812V47.4116C318.835 47.9424 318.914 48.4713 319.08 48.9755C319.27 49.5217 319.544 50.0349 319.892 50.4961C322.553 54.0817 330.148 56.5441 342.538 57.7623V88.1406C330.148 86.8964 322.553 84.4599 319.892 80.8743C319.544 80.4131 319.27 79.9 319.08 79.3537C318.915 78.8464 318.836 78.3148 318.847 77.7812Z" fill="black"/>
</g>
<path d="M319.478 73.47C319.46 74.2118 319.353 74.9487 319.158 75.6646C318.977 76.3567 318.873 77.0666 318.847 77.7814V47.4118C318.872 46.6969 318.977 45.987 319.158 45.295C319.353 44.5762 319.46 43.8364 319.478 43.0918C319.469 52.207 319.478 64.3548 319.478 73.47Z" fill="#F7941E"/>
<g opacity="0.4">
<path opacity="0.4" d="M319.478 73.47C319.46 74.2118 319.353 74.9487 319.158 75.6646C318.977 76.3567 318.873 77.0666 318.847 77.7814V47.4118C318.872 46.6969 318.977 45.987 319.158 45.295C319.353 44.5762 319.46 43.8364 319.478 43.0918C319.469 52.207 319.478 64.3548 319.478 73.47Z" fill="black"/>
</g>
<path d="M319.46 43.0916V73.4698C319.462 72.8805 319.36 72.2954 319.158 71.7418C318.954 71.2128 318.681 70.713 318.346 70.2557C315.581 66.5319 307.857 64.2682 294.854 63.3437V32.9741C307.814 33.8813 315.59 36.145 318.337 39.8861C318.674 40.3393 318.947 40.8364 319.149 41.3636C319.354 41.9168 319.459 42.5018 319.46 43.0916Z" fill="#F7941E"/>
<path d="M230.714 58.3784L203.291 111.929L195.584 99.9887L104.164 159.095L86.9189 132.423L178.33 73.3343L170.615 61.3938L230.714 58.3784Z" fill="#EBEBEB"/>
<path d="M245.855 322.751L228.965 332.525H228.96L178.091 361.945H61.8179V326.193L184.318 255.335L201.208 245.567L245.855 322.751Z" fill="#F7941E"/>
<path d="M240.032 351.658L306.613 236.108L173.251 236.202L240.032 351.658Z" fill="#F7941E"/>
<path d="M210.021 235.647C211.378 236.088 250.154 235.751 251.623 234.783C252.184 234.429 252.487 228.779 252.608 221.944C252.608 220.467 255.563 196.672 255.563 196.672L229.643 196.828L227.612 222.091C227.612 222.091 212.821 228.856 211.317 230.075C209.814 231.293 208.665 235.207 210.021 235.647Z" fill="#F7A9A0"/>
<path d="M253.083 217.399C252.807 219.836 252.616 221.59 252.608 221.953C252.461 228.796 252.184 234.438 251.623 234.8C250.154 235.751 211.378 236.088 210.021 235.664C208.665 235.241 209.822 231.344 211.326 230.109C212.829 228.873 227.604 222.125 227.604 222.125L227.984 217.417L253.083 217.399Z" fill="#EBEBEB"/>
<path d="M209.304 235.794C210.704 236.261 250.698 236.209 252.219 235.241C252.798 234.878 252.833 228.018 253.031 220.968H227.552L227.465 221.979C223.923 223.707 212.009 229.029 210.687 230.074C209.14 231.31 207.913 235.336 209.304 235.794Z" fill="#455A64"/>
<path d="M209.874 234.196C216.579 234.023 243.64 233.954 250.275 234.291C250.327 234.291 250.327 234.334 250.275 234.334C243.64 234.653 216.579 234.498 209.874 234.334C209.736 234.299 209.736 234.204 209.874 234.196Z" fill="#263238"/>
<path d="M213.261 228.632C214.006 228.61 214.748 228.743 215.438 229.025C216.129 229.306 216.753 229.728 217.27 230.265C218.215 231.218 218.754 232.5 218.774 233.842C218.774 233.842 218.704 233.885 218.696 233.842C218.468 232.514 217.815 231.296 216.834 230.372C215.854 229.448 214.6 228.867 213.261 228.718C213.209 228.71 213.201 228.632 213.261 228.632Z" fill="#263238"/>
<path d="M224.951 222.635C227.629 222.592 230.748 223.499 232.416 225.728C232.476 225.815 232.356 225.901 232.278 225.867C229.93 224.637 227.456 223.663 224.899 222.964C224.865 222.948 224.837 222.921 224.819 222.888C224.802 222.855 224.795 222.817 224.801 222.78C224.807 222.743 224.825 222.709 224.852 222.682C224.879 222.656 224.914 222.64 224.951 222.635Z" fill="#263238"/>
<path d="M222.912 223.448C225.599 223.405 228.709 224.312 230.377 226.541C230.446 226.627 230.325 226.714 230.239 226.67C227.892 225.447 225.421 224.477 222.869 223.776C222.825 223.77 222.786 223.748 222.759 223.713C222.732 223.678 222.721 223.634 222.726 223.59C222.732 223.547 222.755 223.507 222.79 223.481C222.824 223.454 222.868 223.442 222.912 223.448Z" fill="#263238"/>
<path d="M220.812 224.26C223.491 224.217 226.601 225.124 228.277 227.353C228.338 227.431 228.217 227.526 228.139 227.483C225.791 226.255 223.317 225.285 220.761 224.588C220.717 224.581 220.678 224.557 220.652 224.522C220.626 224.486 220.616 224.442 220.622 224.398C220.629 224.355 220.653 224.316 220.689 224.29C220.724 224.264 220.769 224.253 220.812 224.26Z" fill="#263238"/>
<path d="M218.739 225.063C221.417 225.063 224.537 225.971 226.204 228.157C226.273 228.243 226.144 228.338 226.066 228.295C223.72 227.069 221.249 226.099 218.696 225.4C218.658 225.388 218.625 225.363 218.603 225.329C218.581 225.295 218.572 225.254 218.578 225.214C218.583 225.174 218.602 225.137 218.631 225.11C218.661 225.082 218.699 225.066 218.739 225.063Z" fill="#263238"/>
<path d="M222.255 219.456C223.707 221.322 225.919 222.497 227.828 223.776C227.873 223.802 227.923 223.816 227.975 223.819C228.026 223.821 228.078 223.812 228.125 223.791C228.172 223.77 228.214 223.738 228.246 223.698C228.279 223.658 228.301 223.611 228.312 223.56C228.355 223.56 228.399 223.56 228.399 223.482C228.197 221.02 227.351 218.654 225.945 216.622C225.081 215.456 223.396 214.358 222.039 215.49C220.683 216.622 221.409 218.324 222.255 219.456ZM222.135 217.236C222.394 214.315 225.029 216.553 225.591 217.434C225.958 218.017 226.287 218.623 226.575 219.249C227.148 220.546 227.653 221.873 228.087 223.223C227.223 222.515 226.239 221.893 225.314 221.219C224.234 220.381 221.988 218.799 222.135 217.192V217.236Z" fill="#263238"/>
<path d="M237.92 221.754C237.712 220.026 235.708 219.62 234.3 219.897C231.883 220.409 229.645 221.551 227.811 223.206C227.802 223.212 227.795 223.221 227.79 223.23C227.785 223.24 227.782 223.251 227.782 223.262C227.782 223.273 227.785 223.284 227.79 223.294C227.795 223.303 227.802 223.312 227.811 223.318C227.783 223.362 227.767 223.412 227.762 223.463C227.758 223.515 227.765 223.567 227.785 223.615C227.804 223.663 227.835 223.706 227.874 223.74C227.913 223.774 227.959 223.798 228.01 223.811C230.308 224.165 232.718 224.822 235.051 224.459C236.425 224.251 238.118 223.405 237.92 221.754ZM231.612 223.629C230.481 223.482 229.357 223.284 228.217 223.18C229.464 222.5 230.744 221.883 232.053 221.331C232.689 221.074 233.341 220.86 234.006 220.692C235.043 220.45 238.49 220.631 236.684 222.929C235.682 224.199 232.96 223.776 231.612 223.629Z" fill="#263238"/>
<path d="M282.571 91.8086C282.571 91.8086 289.345 101.65 285.621 112.346C279.254 130.602 263.088 151.157 262.587 153.507C261.421 159.045 254.958 220.7 254.958 220.7L227.051 220.527C227.051 220.527 230.982 167.495 235.898 151.58C238.585 142.897 253.921 119.085 260.539 107.464C261.136 106.427 259.736 101.935 259.736 101.935L282.571 91.8086Z" fill="#263238"/>
<path d="M228.735 215.689C233.237 215.602 246.879 215.222 252.85 215.689C252.893 215.689 252.893 215.775 252.85 215.775C250.785 216.104 233.237 215.888 228.735 215.775C228.73 215.77 228.725 215.763 228.722 215.755C228.719 215.748 228.717 215.74 228.717 215.732C228.717 215.724 228.719 215.716 228.722 215.709C228.725 215.701 228.73 215.694 228.735 215.689Z" fill="#37474F"/>
<path d="M287.401 105.244C285.466 108.363 283.418 111.413 281.44 114.506C279.461 117.599 277.491 120.701 275.538 123.811C271.65 130.038 267.855 136.316 264.151 142.646C262.356 145.566 260.824 148.64 259.572 151.831C258.435 155.037 257.591 158.339 257.049 161.697C256.479 165.067 256.116 168.463 255.779 171.858C255.416 175.475 255.056 179.093 254.699 182.71C253.964 190.114 252.971 202.383 252.271 209.779L252.012 212.509C252.012 212.639 252.245 212.665 252.254 212.509C253.118 205.148 253.982 192.905 254.733 185.544L255.848 174.545C256.193 171.089 256.522 167.72 257.006 164.324C257.455 160.982 258.154 157.678 259.097 154.44C260.135 151.081 261.546 147.85 263.304 144.806C266.855 138.499 270.622 132.296 274.389 126.109C278.156 119.923 282.018 113.659 286.001 107.525C286.494 106.764 286.986 106.013 287.496 105.27C287.531 105.235 287.436 105.183 287.401 105.244Z" fill="#37474F"/>
<path d="M290.226 235.777C290.779 235.777 300.456 236.252 301.285 235.509C309.684 227.984 321.494 208.224 321.736 207.23C321.9 206.608 313.019 199.29 312.967 199.247C312.051 198.236 295.955 181.293 295.955 181.293L278.675 198.746L295.402 215.87L295.687 216.164C295.184 219.8 294.363 223.385 293.233 226.878C292.991 227.586 289.872 230.645 289.665 231.241C288.939 233.185 289.44 235.777 290.226 235.777Z" fill="#F7A9A0"/>
<path d="M290.226 235.777C290.779 235.777 300.456 236.252 301.294 235.5C309.684 227.984 321.494 208.224 321.736 207.222C321.901 206.6 313.019 199.299 312.967 199.247C312.049 198.119 311.05 197.059 309.977 196.076L292.982 213.408L295.367 215.853L295.661 216.138C295.154 219.774 294.33 223.359 293.198 226.852C292.957 227.56 289.837 230.628 289.63 231.215C288.939 233.185 289.44 235.777 290.226 235.777Z" fill="#EBEBEB"/>
<path d="M289.855 235.924C290.166 236.14 300.819 236.217 301.527 235.587C308.249 229.539 322.186 208.215 322.333 206.997C322.41 206.366 317.65 202.055 312.388 198.435L295.488 216.19C295.488 216.19 294.451 223.162 293.095 226.895C292.792 227.759 289.725 230.541 289.449 231.163C288.619 233.064 289.44 235.621 289.855 235.924Z" fill="#455A64"/>
<path d="M290.658 230.351C291.372 229.893 292.169 229.581 293.004 229.432C293.839 229.284 294.695 229.303 295.523 229.487C296.229 229.641 296.899 229.933 297.492 230.347C298.085 230.761 298.59 231.288 298.979 231.898C298.979 231.898 298.927 231.984 298.901 231.95C297.873 230.848 296.518 230.108 295.036 229.839C293.554 229.57 292.025 229.786 290.676 230.455C290.669 230.456 290.662 230.456 290.655 230.454C290.648 230.453 290.642 230.45 290.637 230.446C290.631 230.442 290.626 230.437 290.622 230.431C290.619 230.425 290.616 230.418 290.615 230.412C290.614 230.405 290.614 230.398 290.616 230.391C290.617 230.384 290.62 230.378 290.624 230.372C290.628 230.367 290.633 230.362 290.639 230.358C290.645 230.355 290.652 230.352 290.658 230.351Z" fill="#263238"/>
<path d="M313.122 205.217C314.902 203.04 318.306 205.804 316.501 207.99C314.695 210.176 311.334 207.36 313.122 205.217Z" fill="#263238"/>
<path d="M294.52 219.05C296.015 217.028 298.478 215.257 301.052 215.257C301.156 215.257 301.147 215.395 301.052 215.43C298.809 216.479 296.685 217.768 294.719 219.274C294.689 219.284 294.656 219.285 294.626 219.276C294.595 219.268 294.568 219.25 294.547 219.227C294.526 219.203 294.512 219.174 294.507 219.142C294.503 219.111 294.507 219.079 294.52 219.05Z" fill="#263238"/>
<path d="M293.95 221.046C295.445 219.033 297.907 217.253 300.482 217.253C300.586 217.253 300.577 217.391 300.482 217.426C298.238 218.475 296.115 219.764 294.149 221.271C294.119 221.28 294.086 221.281 294.056 221.272C294.025 221.264 293.998 221.247 293.976 221.223C293.955 221.199 293.942 221.17 293.937 221.138C293.932 221.107 293.937 221.075 293.95 221.046Z" fill="#263238"/>
<path d="M293.38 223.041C294.875 221.028 297.337 219.249 299.912 219.249C300.016 219.249 300.007 219.387 299.912 219.43C297.668 220.476 295.545 221.762 293.579 223.266C293.548 223.276 293.516 223.276 293.486 223.268C293.455 223.259 293.427 223.242 293.406 223.218C293.385 223.195 293.372 223.165 293.367 223.134C293.362 223.102 293.367 223.07 293.38 223.041Z" fill="#263238"/>
<path d="M292.81 225.046C294.304 223.024 296.767 221.244 299.342 221.244C299.445 221.244 299.437 221.391 299.342 221.426C297.098 222.472 294.975 223.758 293.008 225.262C292.979 225.274 292.946 225.278 292.915 225.271C292.883 225.264 292.854 225.248 292.833 225.224C292.811 225.2 292.797 225.171 292.793 225.139C292.789 225.107 292.795 225.074 292.81 225.046Z" fill="#263238"/>
<path d="M289.768 234.464C292.689 234.075 295.678 234.144 298.616 233.85L299.644 233.755C300.015 233.774 300.382 233.664 300.681 233.444C301.149 232.912 301.585 232.353 301.985 231.768L304.621 228.312C308.128 223.704 311.584 219.041 314.989 214.324C315.956 212.993 316.924 211.68 317.883 210.349C318.842 209.019 319.905 207.757 320.872 206.435C320.876 206.43 320.88 206.426 320.885 206.422C320.89 206.419 320.896 206.417 320.902 206.415C320.908 206.414 320.914 206.414 320.92 206.415C320.926 206.417 320.932 206.419 320.937 206.422C320.942 206.426 320.947 206.43 320.95 206.435C320.954 206.44 320.956 206.446 320.957 206.452C320.958 206.458 320.958 206.464 320.957 206.47C320.956 206.476 320.954 206.482 320.95 206.487C320.138 207.731 319.404 209.027 318.557 210.254C317.71 211.481 316.881 212.725 316.017 213.944C314.289 216.357 312.561 218.756 310.833 221.141C309.105 223.525 307.328 225.893 305.502 228.243C304.638 229.435 303.687 230.619 302.772 231.794C302.331 232.364 301.908 232.943 301.441 233.522C301.292 233.748 301.093 233.937 300.859 234.075C300.626 234.213 300.364 234.296 300.093 234.317C296.698 234.645 293.233 234.559 289.829 234.731C289.793 234.739 289.756 234.733 289.725 234.714C289.695 234.694 289.673 234.663 289.665 234.628C289.657 234.592 289.663 234.555 289.683 234.524C289.702 234.493 289.733 234.472 289.768 234.464Z" fill="#263238"/>
<path d="M290.373 218.998C292.637 218.998 294.823 218.056 296.948 217.408C296.993 217.388 297.033 217.359 297.065 217.321C297.096 217.284 297.119 217.239 297.13 217.192C297.142 217.144 297.143 217.094 297.132 217.047C297.121 216.999 297.1 216.954 297.069 216.916C297.078 216.91 297.086 216.903 297.091 216.894C297.096 216.885 297.099 216.874 297.099 216.864C297.099 216.853 297.096 216.843 297.091 216.834C297.086 216.825 297.078 216.817 297.069 216.812C295.107 215.498 292.833 214.726 290.477 214.574C289.103 214.514 287.272 215.144 287.306 216.829C287.341 218.514 289.06 218.989 290.373 218.998ZM288.645 217.771C286.615 215.844 289.855 215.179 290.866 215.283C291.517 215.356 292.163 215.468 292.801 215.62C294.114 215.96 295.409 216.367 296.681 216.838C295.618 217.097 294.59 217.443 293.536 217.702C292.274 218.091 289.76 218.834 288.637 217.771H288.645Z" fill="#263238"/>
<path d="M301.424 208.647C299.981 207.783 298.512 209.044 297.881 210.263C296.838 212.38 296.368 214.733 296.516 217.088C296.516 217.14 296.559 217.157 296.603 217.149C296.62 217.195 296.647 217.236 296.683 217.27C296.719 217.303 296.762 217.328 296.809 217.341C296.857 217.355 296.906 217.357 296.954 217.347C297.003 217.338 297.048 217.317 297.087 217.287C298.719 215.775 300.646 214.358 301.761 212.397C302.4 211.248 302.78 209.476 301.424 208.647ZM299.091 214.488C298.305 215.257 297.493 215.974 296.741 216.769C296.96 215.43 297.249 214.103 297.605 212.794C297.792 212.167 298.02 211.552 298.287 210.954C298.719 210.029 300.879 207.55 301.553 210.28C301.934 211.783 300.024 213.58 299.091 214.488Z" fill="#263238"/>
<path d="M294.494 216.561L313.58 196.292C313.58 196.292 276.67 158.898 276.385 155.235C276.126 151.995 295.583 115.568 295.955 107.335C296.179 102.427 291.54 94.1413 286.788 89.9336L259.736 101.952C261.355 105.014 263.785 107.573 266.76 109.348C266.76 109.348 247.882 150.275 250.119 161.672C252.081 171.582 294.494 216.561 294.494 216.561Z" fill="#263238"/>
<path d="M291.885 210.401C294.563 207.602 293.751 208.371 296.456 205.597C297.786 204.241 306.504 195.35 307.981 194.365C307.981 194.365 308.068 194.365 308.042 194.426C307.022 195.903 298.132 204.63 296.81 205.951C294.045 208.664 294.805 207.852 292.006 210.531C291.989 210.547 291.966 210.555 291.943 210.554C291.919 210.554 291.897 210.544 291.881 210.526C291.865 210.509 291.856 210.486 291.857 210.463C291.858 210.439 291.868 210.417 291.885 210.401Z" fill="#37474F"/>
<path d="M262.734 109.59C265.7 109.806 268.642 110.271 271.529 110.981C271.549 110.987 271.566 110.999 271.578 111.015C271.59 111.032 271.596 111.051 271.596 111.071C271.596 111.092 271.59 111.111 271.578 111.128C271.566 111.144 271.549 111.156 271.529 111.162C268.583 110.782 265.611 110.471 262.699 109.935C262.654 109.931 262.611 109.908 262.582 109.873C262.553 109.837 262.539 109.791 262.544 109.745C262.548 109.699 262.571 109.657 262.607 109.628C262.642 109.599 262.688 109.585 262.734 109.59Z" fill="#37474F"/>
<path d="M265.81 107.948C266.152 108.38 266.466 108.833 266.752 109.305C267.009 109.66 267.197 110.062 267.305 110.488C267.305 110.566 267.209 110.609 267.149 110.566C266.813 110.257 266.522 109.902 266.285 109.512C265.983 109.089 265.663 108.648 265.369 108.259C265.345 108.201 265.342 108.137 265.359 108.077C265.376 108.016 265.414 107.964 265.465 107.928C265.516 107.891 265.578 107.874 265.641 107.877C265.704 107.881 265.763 107.906 265.81 107.948Z" fill="#37474F"/>
<path d="M259.978 100.112C259.978 100.068 260.056 100.017 260.081 100.068C260.628 101.545 261.262 102.988 261.982 104.388C262.311 105.045 264.367 108.562 265.672 107.793C265.896 107.663 265.939 107.43 265.87 107.119C265.717 106.728 265.507 106.361 265.248 106.03C264.799 105.304 264.384 104.561 264.004 103.801C263.292 102.385 262.755 100.888 262.406 99.3427C262.406 99.3427 262.483 99.2736 262.501 99.3427C263.225 101.41 264.133 103.408 265.214 105.313C265.758 106.177 266.89 107.482 265.723 108.06C264.557 108.639 262.812 106.479 262.406 105.857C261.305 104.079 260.486 102.141 259.978 100.112Z" fill="#37474F"/>
<path d="M286.736 103.214C286.252 103.041 285.587 103.352 285.094 103.438C284.463 103.549 283.825 103.621 283.185 103.654C282.552 103.693 281.917 103.693 281.284 103.654C280.649 103.647 280.024 103.49 279.461 103.196C278.536 102.54 277.742 101.717 277.12 100.768C276.369 99.805 275.748 98.7477 275.271 97.6235C275.271 97.5544 275.15 97.6235 275.176 97.6235C275.383 98.2715 275.547 98.9195 275.806 99.5502C276.068 100.148 276.374 100.726 276.722 101.278C277.294 102.368 278.132 103.295 279.159 103.974C280.362 104.486 281.685 104.651 282.977 104.449C283.698 104.397 284.414 104.293 285.12 104.138C285.63 104.026 286.485 103.931 286.805 103.481C286.826 103.462 286.842 103.438 286.85 103.411C286.859 103.383 286.859 103.354 286.852 103.326C286.845 103.299 286.83 103.274 286.81 103.254C286.789 103.234 286.764 103.22 286.736 103.214Z" fill="#37474F"/>
<path d="M283.755 93.8735C285.503 95.6012 287.129 97.4489 288.619 99.4031C290.149 101.511 291.756 103.723 292.032 106.427C291.922 107.517 291.675 108.588 291.298 109.616C290.149 113.123 288.749 116.528 287.358 119.984C282.692 131.345 277.482 142.448 272.877 153.835C272.467 154.789 272.143 155.778 271.909 156.79C272.448 157.988 273.165 159.098 274.035 160.082C283.375 171.452 293.613 182.088 303.61 192.914C296.698 185.907 289.915 178.831 283.262 171.59C279.945 167.97 276.653 164.324 273.568 160.479C272.782 159.347 271.616 158.259 271.305 156.816C272.108 153.36 273.802 150.129 275.106 146.828C280.394 134.404 286.338 122.239 290.952 109.564C291.28 108.432 291.816 107.248 291.661 106.056C291.461 104.863 291.055 103.714 290.46 102.66C288.608 99.4762 286.355 96.5433 283.755 93.934V93.8735Z" fill="#37474F"/>
<path d="M266.233 110.376C260.738 124.33 255.001 138.283 251.234 152.816C250.638 155.658 249.817 158.717 250.37 161.594C252.167 167.288 255.943 172.221 259.71 176.792C255.727 172.308 251.822 167.512 249.895 161.724C249.238 158.674 250.076 155.676 250.672 152.686C254.327 138.076 260.176 124.122 266.224 110.35L266.233 110.376Z" fill="#37474F"/>
<path d="M253.895 70.1998C254.837 76.3774 254.759 99.7573 251.606 102.496C248.098 105.581 232.641 111.75 228.64 112.743C226.213 113.357 222.998 97.8133 225.876 96.8456C229.435 95.6446 240.486 91.9985 242.292 90.6939C243.259 89.9854 244.262 81.907 247.778 69.5086C249.566 63.1323 253.083 64.8603 253.895 70.1998Z" fill="#F7A9A0"/>
<path d="M229.211 112.571C227.604 113.236 218.972 116.027 216.691 116.251C214.41 116.476 207.809 116.536 207.481 114.808C207.153 113.08 209.079 112.899 209.079 112.899C209.079 112.899 206.289 112.493 206.116 110.722C205.943 108.95 208.958 108.769 208.958 108.769C208.958 108.769 206.116 108.147 206.073 106.367C206.03 104.587 209.088 104.907 209.088 104.907C209.088 104.907 206.496 104.458 207.049 102.98C207.749 101.192 212.492 102.566 214.989 102.116C215.559 102.03 226.368 99.4292 226.368 99.4292L229.211 112.571Z" fill="#F7A9A0"/>
<path d="M208.829 104.881C212.285 105.883 214.013 105.745 217.469 104.725C217.529 104.725 217.581 104.803 217.469 104.829C214.194 106.107 212.095 106.626 208.743 105.053C208.604 104.976 208.665 104.837 208.829 104.881Z" fill="#263238"/>
<path d="M208.682 108.682C212.397 109.408 214.246 109.244 217.91 108.466C217.961 108.466 217.987 108.535 217.91 108.553C214.376 109.624 212.268 110.091 208.648 108.872C208.509 108.864 208.509 108.648 208.682 108.682Z" fill="#263238"/>
<path d="M209.27 112.856C212.339 113.404 215.499 113.105 218.411 111.992C218.428 111.985 218.447 111.985 218.464 111.992C218.481 112 218.495 112.013 218.501 112.031C218.508 112.048 218.508 112.067 218.501 112.084C218.494 112.101 218.48 112.115 218.463 112.121C215.63 113.604 212.329 113.914 209.27 112.985C209.088 112.908 209.036 112.821 209.27 112.856Z" fill="#263238"/>
<path d="M228.485 97.416C228.485 97.416 223.975 95.5757 221.936 95.3597C219.897 95.1437 212.026 97.1654 212.363 98.8848C212.803 101.114 217.547 100.855 219.897 100.414C219.897 100.414 220.899 105.598 224.364 106.125C227.828 106.652 228.485 97.416 228.485 97.416Z" fill="#F7A9A0"/>
<path d="M212.682 99.4637C214.549 101.192 217.555 100.44 219.845 100.181C219.878 100.176 219.912 100.179 219.944 100.19C219.976 100.201 220.005 100.22 220.028 100.245C220.051 100.269 220.067 100.299 220.076 100.332C220.085 100.364 220.086 100.398 220.078 100.431C220.649 102.565 222.065 105.408 224.251 106.203C224.312 106.203 224.295 106.324 224.251 106.307C221.789 105.771 220.165 103.092 219.698 100.716C217.357 101.019 214.307 101.65 212.691 99.481C212.657 99.4637 212.674 99.4464 212.682 99.4637Z" fill="#263238"/>
<path d="M227.863 95.3252L231.949 112.83C231.949 112.83 246.387 108.156 251.77 103.525C255.779 100.069 255.666 79.3758 254.543 70.6926C253.42 62.0094 248.875 64.2558 247.199 69.9582C245.523 75.6606 242.646 89.7524 242.119 90.314C241.747 90.7201 227.863 95.3252 227.863 95.3252Z" fill="#F7941E"/>
<path d="M233.807 102.972C233.531 101.65 233.254 100.336 232.943 99.0144C232.632 97.6925 232.416 96.3619 232.036 95.0746C232.032 95.0653 232.025 95.0575 232.017 95.0519C232.008 95.0464 231.999 95.0435 231.988 95.0435C231.978 95.0435 231.968 95.0464 231.96 95.0519C231.952 95.0575 231.945 95.0653 231.941 95.0746C232.088 96.3619 232.364 97.6666 232.598 98.9367C232.831 100.207 233.099 101.641 233.358 102.997C233.868 105.676 234.481 108.328 235.129 110.972C235.129 111.041 235.224 110.972 235.215 110.972C234.818 108.285 234.36 105.624 233.807 102.972Z" fill="#263238"/>
<path opacity="0.1" d="M251.77 103.525C250.58 104.492 249.298 105.34 247.942 106.056L249.42 65.8887C251.381 63.962 253.74 64.7741 254.543 70.7271C255.666 79.3757 255.744 100.077 251.77 103.525Z" fill="black"/>
<path d="M257.913 110.454C259.079 110.713 291.358 94.8153 291.384 94.5129C291.41 94.2105 272.376 66.0009 258.742 62.4326C254.811 61.4131 249.627 64.1606 249.005 67.7462C247.553 76.2134 257.187 110.29 257.913 110.454Z" fill="#F7941E"/>
<path d="M255.493 72.1957L253.014 70.2085L251.847 73.4744L253.29 75.1592L255.407 74.4507L255.493 72.1957Z" fill="#263238"/>
<path d="M255.407 74.4507L265.637 97.4676L265.265 105.9L258.777 99.8264L253.29 75.1592L255.407 74.4507Z" fill="#263238"/>
<path d="M315.55 121.862L264.169 125.275L266.32 157.655L317.701 154.243L315.55 121.862Z" fill="#F7941E"/>
<path opacity="0.1" d="M315.55 121.862L264.169 125.275L266.32 157.655L317.701 154.243L315.55 121.862Z" fill="black"/>
<path opacity="0.1" d="M315.553 121.857L264.171 125.27L265.184 140.52L316.566 137.107L315.553 121.857Z" fill="black"/>
<path d="M316.453 117.012L262.641 120.586L263.645 135.699L317.457 132.125L316.453 117.012Z" fill="#F7941E"/>
<path opacity="0.1" d="M316.453 117.012L262.641 120.586L263.645 135.699L317.457 132.125L316.453 117.012Z" fill="black"/>
<path d="M296.68 112.83L297.043 118.316L294.564 118.48L294.356 115.352L284.895 115.983L285.103 119.102L282.623 119.275L282.26 113.78L296.68 112.83Z" fill="#263238"/>
<path d="M274.3 131.369L270.792 131.602L271.271 138.817L274.78 138.584L274.3 131.369Z" fill="#263238"/>
<path d="M309.827 129.018L306.318 129.251L306.797 136.467L310.306 136.234L309.827 129.018Z" fill="#263238"/>
<path d="M261.498 62.4759C266.086 62.8993 285.327 66.3812 288.135 68.8695C292.395 72.6538 297.346 92.1025 298.097 96.5953C298.426 98.5566 283.064 100.656 282.545 98.5911C282.217 97.1914 280.221 80.9137 279.34 79.5831C278.459 78.2526 265.784 71.3665 258.777 68.3511C252.124 65.4394 251.77 61.5946 261.498 62.4759Z" fill="#F7A9A0"/>
<path d="M283.954 118.187C284.422 118.321 284.921 118.31 285.383 118.156C285.846 118.001 286.251 117.711 286.546 117.323C287.084 117.97 287.834 118.408 288.662 118.558C290.14 118.757 291.099 116.536 291.099 116.536C291.798 117.089 292.647 117.42 293.535 117.487C294.97 117.53 296.257 115.43 296.257 115.43C297.186 115.588 298.141 115.404 298.944 114.912C301.026 113.521 300.914 109.728 300.862 107.257C300.81 104.786 298.426 97.9517 298.08 96.5952L282.528 96.768C282.528 96.768 279.634 107.732 280.1 110.592C280.446 112.985 282.148 117.59 283.954 118.187Z" fill="#F7A9A0"/>
<path d="M286.33 117.193C285.301 114.739 285.06 112.112 284.662 109.503C284.662 109.451 284.748 109.434 284.757 109.503C285.111 112.095 285.984 114.592 286.485 117.167C286.487 117.177 286.487 117.187 286.484 117.198C286.482 117.208 286.478 117.217 286.472 117.226C286.466 117.234 286.458 117.241 286.449 117.247C286.44 117.252 286.431 117.256 286.42 117.258C286.41 117.259 286.4 117.259 286.39 117.257C286.38 117.254 286.37 117.25 286.362 117.244C286.353 117.238 286.346 117.23 286.341 117.221C286.335 117.213 286.331 117.203 286.33 117.193Z" fill="#263238"/>
<path d="M290.926 116.458C290.747 115.878 290.646 115.277 290.624 114.67C290.555 114.03 290.503 113.391 290.46 112.752C290.373 111.464 290.321 110.16 290.295 108.898C290.295 108.838 290.382 108.82 290.39 108.898C290.477 110.177 290.581 111.49 290.727 112.734C290.797 113.374 290.874 114.004 290.952 114.644C291.07 115.238 291.119 115.844 291.099 116.45C291.1 116.473 291.092 116.495 291.077 116.512C291.061 116.529 291.04 116.539 291.017 116.54C290.994 116.541 290.972 116.533 290.955 116.518C290.937 116.503 290.927 116.481 290.926 116.458Z" fill="#263238"/>
<path d="M296.283 115.344C296.128 114.817 296.064 114.268 296.093 113.719C296.093 113.141 296.032 112.553 296.007 111.991C295.937 110.816 295.868 109.65 295.765 108.484C295.765 108.472 295.769 108.461 295.777 108.453C295.785 108.445 295.796 108.44 295.808 108.44C295.819 108.44 295.83 108.445 295.838 108.453C295.846 108.461 295.851 108.472 295.851 108.484C295.963 109.676 296.102 110.86 296.205 112.043C296.257 112.631 296.3 113.21 296.352 113.771C296.443 114.297 296.443 114.835 296.352 115.361L296.283 115.344Z" fill="#263238"/>
<path d="M281.292 97.0878L299.246 96.0164C299.246 96.0164 295.065 75.4791 288.636 68.7486C285.984 65.9751 268.134 62.8388 260.755 62.2081C253.377 61.5774 248.806 64.0225 258.88 68.8609C268.955 73.6993 277.759 78.3649 277.932 79.0907C278.104 79.8164 281.292 97.0878 281.292 97.0878Z" fill="#F7941E"/>
<path d="M282.036 93.7264C283.245 93.5061 284.465 93.3504 285.69 93.2598C286.96 93.1216 288.222 93.0179 289.492 92.9142C290.762 92.8106 295.842 92.56 297.112 92.4995C297.164 92.4995 297.173 92.5859 297.112 92.5859C295.842 92.7328 290.831 93.2858 289.587 93.3808C288.343 93.4758 287.099 93.5882 285.854 93.6486C284.61 93.7091 283.262 93.8387 282.036 93.7782C282.018 93.7782 282.001 93.7264 282.036 93.7264Z" fill="#263238"/>
<path d="M282.416 97.0183C282.416 97.0183 281.293 97.1133 281.275 97.1047C280.679 94.1584 280.135 91.2122 279.547 88.2573C278.96 85.3025 278.58 82.002 277.577 79.1421C275.737 77.7165 272.393 76.1095 270.389 74.9172L262.509 70.5972C266.605 72.4548 270.657 74.4247 274.605 76.5933C275.793 77.2032 276.931 77.9052 278.009 78.6929C278.182 78.8637 278.305 79.0789 278.364 79.3149C279.65 85.1839 280.627 91.1162 281.293 97.0874C281.189 97.0874 282.416 97.0269 282.399 97.0269L282.416 97.0183Z" fill="#263238"/>
<path d="M265.404 72.0488C265.039 72.1153 264.665 72.1067 264.304 72.0235C263.943 71.9403 263.603 71.7842 263.304 71.5649C264.021 71.7464 264.687 71.876 265.404 72.0488Z" fill="#263238"/>
<path d="M252.884 70.7443C254.992 70.3641 257.066 66.2255 257.325 63.2879C257.325 63.0892 256.349 61.4822 255.234 59.4777C254.569 58.2594 253.843 56.8857 253.282 55.5811L245.981 61.1193C247.154 62.5427 248.149 64.1036 248.944 65.7676C249.02 65.9486 249.078 66.1368 249.117 66.3292V66.4243C249.42 67.5043 250.845 71.1158 252.884 70.7443Z" fill="#F7A9A0"/>
<path d="M252.876 55.8921C253.455 58.2508 254.31 64.1087 249.999 66.1046C249.72 66.234 249.431 66.3409 249.135 66.4242C249.13 66.3927 249.13 66.3607 249.135 66.3292C249.093 66.1374 249.035 65.9496 248.962 65.7676C248.165 64.1015 247.17 62.5378 245.998 61.1107L252.876 55.8921Z" fill="#263238"/>
<path d="M250.163 45.265C252.288 47.7792 254.37 56.8166 253.152 59.5642C251.329 63.5558 246.551 65.9232 242.698 63.3226C238.844 60.7219 236.477 48.9802 238.049 46.2931C240.33 42.336 247.018 41.5411 250.163 45.265Z" fill="#F7A9A0"/>
<path d="M244.512 53.7754C244.512 53.7754 244.564 53.7754 244.573 53.7754C244.711 54.3802 244.979 55.0541 245.575 55.1059C244.884 55.296 244.512 54.3716 244.512 53.7754Z" fill="#263238"/>
<path d="M244.875 52.9975C245.825 52.6691 246.413 54.5959 245.54 54.8983C244.668 55.2007 244.071 53.2826 244.875 52.9975Z" fill="#263238"/>
<path d="M241.056 54.8291C241.056 54.8291 241.056 54.8291 241.056 54.8982C241.255 55.4857 241.393 56.1942 240.909 56.5657C241.549 56.2979 241.358 55.3561 241.056 54.8291Z" fill="#263238"/>
<path d="M240.348 54.3715C239.371 54.5961 239.89 56.5401 240.797 56.3327C241.704 56.1254 241.169 54.1814 240.348 54.3715Z" fill="#263238"/>
<path d="M245.307 52.0731C245.031 52.0731 244.763 52.0731 244.486 52.1249C244.194 52.1774 243.892 52.1382 243.622 52.0126C243.549 51.9523 243.497 51.8709 243.472 51.7797C243.448 51.6884 243.452 51.5917 243.484 51.5028C243.583 51.3427 243.721 51.2113 243.887 51.1219C244.052 51.0324 244.238 50.988 244.426 50.9931C244.81 50.9481 245.198 51.0465 245.514 51.2696C245.582 51.325 245.632 51.3984 245.659 51.4813C245.686 51.5641 245.688 51.653 245.667 51.7373C245.645 51.8217 245.599 51.8981 245.536 51.9576C245.472 52.0171 245.393 52.0571 245.307 52.0731Z" fill="#263238"/>
<path d="M239.328 53.6975C239.569 53.5668 239.803 53.4226 240.028 53.2655C240.296 53.0927 240.529 52.989 240.667 52.6866C240.695 52.596 240.693 52.4986 240.66 52.4096C240.627 52.3206 240.566 52.2449 240.486 52.1941C240.314 52.1176 240.125 52.0885 239.938 52.1098C239.751 52.1311 239.573 52.2019 239.423 52.3151C239.077 52.499 238.815 52.808 238.689 53.1791C238.669 53.2627 238.674 53.35 238.702 53.4312C238.73 53.5123 238.78 53.584 238.847 53.638C238.913 53.6921 238.994 53.7263 239.079 53.7368C239.164 53.7473 239.25 53.7337 239.328 53.6975Z" fill="#263238"/>
<path d="M246.534 59.2272C246.43 59.4173 246.352 59.6506 246.136 59.737C245.914 59.7974 245.683 59.815 245.454 59.7888C245.577 59.8782 245.722 59.9333 245.874 59.9485C246.026 59.9636 246.179 59.9384 246.318 59.8752C246.43 59.8085 246.519 59.709 246.573 59.5901C246.628 59.4711 246.644 59.3385 246.62 59.21L246.534 59.2272Z" fill="#263238"/>
<path d="M245.376 57.6372C245.299 57.9199 245.164 58.1835 244.98 58.4111C244.795 58.6387 244.565 58.8254 244.305 58.9592C244.077 59.0812 243.832 59.1686 243.579 59.2184C243.533 59.2266 243.486 59.2266 243.441 59.2184H243.302C243.269 59.2215 243.235 59.214 243.205 59.197C243.176 59.1799 243.152 59.1542 243.138 59.1233C243.133 59.1034 243.133 59.0827 243.138 59.0628V59.011C242.931 58.5963 242.784 57.8878 242.784 57.8878C242.646 58.026 241.92 58.674 241.842 58.4321C241.257 56.3441 240.886 54.2018 240.736 52.0385C240.736 51.9694 240.831 51.9608 240.849 52.0385C241.402 53.9652 241.609 55.9784 242.136 57.9137C242.397 57.6803 242.687 57.4827 243 57.3262C243.078 57.3262 243.311 58.7086 243.397 58.9073C243.786 58.8298 244.155 58.6741 244.482 58.4499C244.808 58.2256 245.086 57.9374 245.298 57.6027C245.298 57.6027 245.376 57.5854 245.376 57.6372Z" fill="#263238"/>
<path d="M243.786 58.9854C244.137 59.2306 244.544 59.3823 244.97 59.426C245.203 59.4386 245.435 59.3815 245.635 59.2619C246.059 58.9854 245.938 58.5534 245.739 58.2078C245.626 58.0311 245.496 57.8661 245.35 57.7153C244.978 58.2945 244.43 58.7395 243.786 58.9854Z" fill="#263238"/>
<path d="M244.97 59.4258C245.203 59.4383 245.435 59.3812 245.635 59.2616C246.059 58.9851 245.938 58.5531 245.739 58.2075C245.493 58.2952 245.283 58.4628 245.144 58.6837C245.004 58.9046 244.943 59.1659 244.97 59.4258Z" fill="#FF9ABB"/>
<path d="M251.847 52.462C250.266 52.894 249.134 49.0665 249.134 49.0665C249.134 49.0665 246.629 49.438 244.382 46.5954C244.382 46.5954 241.989 49.533 239.285 49.9305C235.051 50.5612 233.401 45.334 234.533 43.7701C236.14 41.5583 240.65 42.4569 240.65 42.4569C240.65 42.4569 245.834 38.9317 248.832 42.2149C249.589 42.0167 250.393 42.1134 251.081 42.4856C251.769 42.8577 252.29 43.4775 252.539 44.2194C253.67 46.9669 253.022 52.1423 251.847 52.462Z" fill="#263238"/>
<path d="M249.843 49.3169C248.63 49.5121 247.386 49.2962 246.309 48.7035C245.73 48.3797 245.237 47.9208 244.873 47.3657C244.509 46.8106 244.284 46.1758 244.218 45.5153C244.218 45.4462 244.097 45.4635 244.106 45.5153C244.145 46.2143 244.337 46.8962 244.668 47.5128C244.999 48.1294 245.462 48.6657 246.024 49.0836C246.579 49.4721 247.226 49.7077 247.901 49.7668C248.576 49.826 249.255 49.7066 249.869 49.4206C249.929 49.412 249.912 49.3083 249.843 49.3169Z" fill="#263238"/>
<path d="M252.184 42.4999C251.637 42.2123 251.028 42.062 250.409 42.062C249.79 42.062 249.181 42.2123 248.633 42.4999C248.573 42.4999 248.633 42.6381 248.677 42.6035C249.26 42.3783 249.894 42.3156 250.51 42.4221C251.126 42.5287 251.702 42.8004 252.176 43.2083C252.994 44.0233 253.457 45.1291 253.463 46.2842C253.68 48.4323 253.099 50.5853 251.83 52.3322C251.83 52.3322 251.83 52.3927 251.83 52.3322C252.581 51.4086 253.135 50.3411 253.457 49.1955C253.779 48.0498 253.864 46.8503 253.705 45.6707C253.584 44.5216 253.221 43.1997 252.184 42.4999Z" fill="#263238"/>
<path d="M250.793 52.8337C250.793 52.8337 251.588 49.3259 253.109 49.5073C254.63 49.6887 254.794 54.2247 253.558 55.3566C253.41 55.5118 253.231 55.6354 253.034 55.7198C252.836 55.8042 252.624 55.8478 252.409 55.8478C252.194 55.8478 251.982 55.8042 251.784 55.7198C251.587 55.6354 251.408 55.5118 251.26 55.3566L250.793 52.8337Z" fill="#F7A9A0"/>
<path d="M253.152 50.8115C252.78 51.2343 252.501 51.7303 252.333 52.2675C252.165 52.8048 252.111 53.3713 252.176 53.9306C252.191 53.8032 252.234 53.6807 252.303 53.5722C252.371 53.4636 252.463 53.3717 252.571 53.303C252.68 53.2344 252.802 53.1907 252.929 53.1752C253.057 53.1597 253.186 53.1728 253.308 53.2134C253.308 53.2134 253.308 53.2739 253.308 53.2826C253.107 53.3004 252.916 53.3797 252.761 53.5095C252.607 53.6393 252.496 53.8134 252.444 54.0083C252.356 54.3355 252.306 54.6719 252.297 55.0106C252.297 55.1229 252.098 55.1402 252.089 55.0106C251.511 53.7405 251.778 51.5027 253.152 50.8115Z" fill="#263238"/>
<path d="M248.737 65.4218L252.85 69.3271L256.012 60.5488L258.604 61.7152C258.604 61.7152 257.204 73.9927 256.971 73.5779L253.109 70.3639L251.58 74.537L248.512 67.2275L248.737 65.4218Z" fill="#F7941E"/>
<path d="M249.843 71.012C249.377 69.7851 248.867 68.5668 248.461 67.3227C248.464 67.3154 248.47 67.3092 248.477 67.3049C248.483 67.3006 248.491 67.2983 248.5 67.2983C248.508 67.2983 248.516 67.3006 248.522 67.3049C248.529 67.3092 248.535 67.3154 248.538 67.3227C249.299 68.3595 251.061 73.0424 251.562 74.131C251.623 73.9496 253.04 70.3985 253.083 70.4244C253.809 70.8824 256.634 73.2152 256.859 73.4484C257.075 71.4958 258.215 63.6852 258.639 61.7499C258.643 61.7406 258.649 61.7327 258.658 61.7272C258.666 61.7217 258.676 61.7188 258.686 61.7188C258.696 61.7188 258.706 61.7217 258.715 61.7272C258.723 61.7327 258.73 61.7406 258.734 61.7499C258.656 63.7284 257.265 73.9841 257.187 73.9927C255.775 72.9292 254.42 71.7929 253.126 70.5886C252.701 72.0947 252.173 73.5699 251.545 75.0036C250.909 73.7035 250.341 72.3711 249.843 71.012Z" fill="#263238"/>
<path d="M151.839 98.6079C138.629 104.094 126.783 110.79 126.274 115.024C125.548 121.115 129.056 136.753 131.959 143.726C132.823 145.774 148.608 138.818 147.701 136.624C146.604 133.98 141.204 118.48 141.178 118.229C141.117 117.616 152.764 106.729 155.797 104.094C161.352 99.2645 158.466 95.8517 151.839 98.6079Z" fill="#D3766A"/>
<path d="M130.282 138.715C130.403 140.555 131.708 148.945 132.589 151.2C133.471 153.455 136.495 159.745 138.292 159.244C140.089 158.743 139.346 156.825 139.346 156.825C139.346 156.825 141.074 159.287 142.802 158.613C144.53 157.939 143.32 155.001 143.32 155.001C143.32 155.001 145.247 157.403 146.949 156.609C148.651 155.814 146.949 153.066 146.949 153.066C146.949 153.066 148.608 155.338 149.74 154.094C151.096 152.6 147.571 148.746 146.776 146.189C146.603 145.61 143.986 134.145 143.986 134.145L130.282 138.715Z" fill="#D3766A"/>
<path d="M147.061 153.308C144.469 150.474 143.83 148.78 143.165 145.065C143.165 144.987 143.035 144.987 143.044 145.065C143.364 148.772 143.865 151.001 146.932 153.437C147.079 153.558 147.182 153.437 147.061 153.308Z" fill="#263238"/>
<path d="M143.528 155.226C141.1 152.046 140.383 150.223 139.398 146.379C139.398 146.327 139.294 146.379 139.303 146.379C139.951 150.232 140.504 152.427 143.346 155.304C143.476 155.451 143.64 155.373 143.528 155.226Z" fill="#263238"/>
<path d="M139.303 156.634C137.348 153.98 136.153 150.844 135.847 147.562C135.841 147.547 135.831 147.534 135.818 147.525C135.805 147.515 135.789 147.51 135.773 147.51C135.757 147.51 135.741 147.515 135.728 147.525C135.715 147.534 135.705 147.547 135.7 147.562C135.63 150.945 136.893 154.218 139.216 156.678C139.354 156.868 139.441 156.833 139.303 156.634Z" fill="#263238"/>
<path d="M144.029 131.769C145.889 133.149 147.642 134.669 149.273 136.313C150.682 137.955 153.671 146.007 151.969 146.759C149.766 147.718 147.13 143.407 146.111 141.126C146.111 141.126 141.022 143.346 138.456 140.668C135.89 137.989 144.029 131.769 144.029 131.769Z" fill="#D3766A"/>
<path d="M151.278 146.819C148.642 146.249 147.493 143.173 146.344 141.03C146.329 140.998 146.305 140.97 146.277 140.948C146.248 140.926 146.214 140.912 146.178 140.906C146.143 140.9 146.106 140.903 146.072 140.914C146.038 140.925 146.007 140.944 145.981 140.97C143.787 141.765 140.46 142.24 138.456 140.814C138.395 140.814 138.326 140.814 138.378 140.901C140.331 142.724 143.631 142.517 145.981 141.497C147.13 143.709 148.409 146.75 151.269 146.845C151.286 146.88 151.295 146.828 151.278 146.819Z" fill="#263238"/>
<path d="M144.288 127.431L127.103 130.464C127.103 130.464 123.768 116.7 126.04 113.279C128.313 109.857 141.359 103.032 150.837 98.8501C158.734 95.3941 162.069 99.0316 155.753 105.002C148.107 112.233 141.454 118.04 141.497 118.325C141.54 118.61 144.288 127.431 144.288 127.431Z" fill="#F7941E"/>
<path d="M142.56 124.511C142.574 124.511 142.587 124.505 142.597 124.496C142.606 124.486 142.612 124.473 142.612 124.459C142.612 124.445 142.606 124.432 142.597 124.422C142.587 124.413 142.574 124.407 142.56 124.407C137.468 124.945 132.409 125.762 127.405 126.852C127.354 126.852 127.405 126.956 127.405 126.947C132.498 126.412 137.557 125.599 142.56 124.511Z" fill="#263238"/>
<path opacity="0.1" d="M141.506 118.273C141.549 118.558 144.271 127.431 144.271 127.431L127.103 130.464C127.103 130.464 126.127 126.429 125.591 122.187L153.904 97.77C159.486 96.4481 161.162 99.8782 155.753 104.993C148.133 112.164 141.506 117.953 141.506 118.273Z" fill="#020100"/>
<path d="M164.678 282.64C157.749 283.815 150.673 283.841 143.735 282.718C134.05 280.947 123.345 278.329 122.705 277.75C122.204 277.344 131.328 240.192 131.328 240.192L156.514 245.169L150.189 269.361L150.103 269.784C150.103 269.784 152.081 271.365 156.298 274.035C157.058 274.51 164.851 276.756 165.404 277.378C166.666 278.856 166.104 282.433 164.678 282.64Z" fill="#D3766A"/>
<path d="M164.678 282.64C157.749 283.815 150.674 283.845 143.735 282.727C134.05 280.956 123.336 278.338 122.714 277.75C122.55 277.612 123.31 274 124.442 269.067C130.628 271.322 149.723 277.232 152.556 277.569C155.814 277.975 160.73 278.433 160.332 277.188C160.004 276.108 157.144 274.519 156.436 274.147C157.775 274.743 164.86 276.808 165.378 277.404C166.657 278.856 166.104 282.433 164.678 282.64Z" fill="#263238"/>
<path d="M162.259 127.604C162.259 127.604 164.091 145.057 160.445 148.988C160.445 148.988 166.035 193.657 164.765 205.373C162.959 221.996 154.198 264.047 154.198 264.047L126.654 257.031C126.654 257.031 138.75 204.872 138.888 203.878C139.26 200.577 132.952 152.228 132.624 151.252C128.347 138.706 134.352 127.267 134.352 127.267L162.259 127.604Z" fill="#37474F"/>
<path d="M151.969 257.1C148.357 256.055 149.377 256.288 145.791 255.303C144.011 254.811 132.356 251.64 130.602 251.571C130.602 251.571 130.542 251.649 130.602 251.666C132.166 252.461 143.899 255.364 145.679 255.804C149.334 256.668 148.271 256.392 151.96 257.239C152.003 257.256 152.064 257.118 151.969 257.1Z" fill="#263238"/>
<path d="M143.096 251.57C145.04 243.172 146.906 234.757 148.746 226.342C149.662 222.125 150.543 217.909 151.338 213.684C151.848 210.53 152.773 207.368 152.401 204.18C150.872 189.967 147.589 163.572 146.025 149.748C142.37 143.7 143.96 136.062 145.947 129.712C144.141 136.019 142.741 143.614 146.37 149.515C148.789 168.238 151.312 186.995 153.101 205.796C152.479 212.803 150.595 219.62 149.144 226.48C147.243 234.887 145.178 243.259 143.096 251.622V251.57Z" fill="#263238"/>
<path d="M164.108 186.624L134.378 127.267L162.259 127.604C162.259 127.604 164.091 145.057 160.445 148.988C160.445 148.988 162.795 169.18 164.108 186.624Z" fill="#263238"/>
<path d="M209.58 235.958C208.215 236.39 169.335 235.612 167.875 234.645C167.313 234.282 173.793 200.949 173.793 200.949L196.75 201.13L192.102 222.151C192.102 222.151 206.85 229.063 208.345 230.342C209.84 231.621 210.945 235.535 209.58 235.958Z" fill="#D3766A"/>
<path d="M209.58 235.958C208.984 236.148 201.139 236.105 192.413 235.915L190.685 235.872C189.199 235.872 187.695 235.803 186.201 235.759L184.473 235.699L182.745 235.638L180.153 235.543L178.554 235.483L177.025 235.414C176.273 235.414 175.565 235.353 174.882 235.31L173.534 235.241C172.67 235.241 171.919 235.146 171.236 235.085C170.891 235.085 170.562 235.042 170.268 235.008C169.525 234.947 168.929 234.878 168.54 234.809C168.32 234.781 168.105 234.723 167.901 234.636C167.702 234.507 167.737 230.316 168.929 224.838C172.679 225.763 178.788 227.223 189.268 228.865C206.505 231.552 201.416 226.851 198.504 225.236L198.418 225.193L198.962 225.452L199.057 225.495L200.051 225.987L201.139 226.523C201.744 226.817 202.349 227.111 202.919 227.387C203.489 227.664 204.06 227.949 204.587 228.251L205.494 228.718C205.641 228.787 205.779 228.873 205.917 228.942L206.47 229.236C206.859 229.443 207.196 229.634 207.49 229.806C207.559 229.839 207.625 229.876 207.688 229.919C207.926 230.052 208.154 230.202 208.371 230.368C209.822 231.603 210.946 235.535 209.58 235.958Z" fill="#263238"/>
<path d="M195.394 213.589L170.338 212.864C170.338 212.864 180.135 170.813 179.522 168.661C179.28 167.797 149.368 159.088 141.221 152.885C131.319 145.333 134.412 127.267 134.412 127.267L162.285 127.604C162.229 128.943 162.615 130.264 163.382 131.362C165.491 134.283 202.746 147.917 205.917 156.6C209.866 167.504 195.394 213.589 195.394 213.589Z" fill="#37474F"/>
<path d="M134.343 136.875C134.446 141.932 136.394 146.778 139.821 150.5C143.096 154.319 147.925 156.323 152.383 158.475C155.459 159.848 158.587 161.11 161.749 162.302C158.484 161.411 155.275 160.324 152.142 159.045C147.502 157.04 142.499 155.001 139.182 151.018C135.864 147.035 133.73 142.059 134.335 136.875H134.343Z" fill="#263238"/>
<path d="M157.844 129.66C157.679 131.218 157.895 132.793 158.475 134.248C159.84 136.469 162.276 137.765 164.402 139.173C170.545 142.957 179.954 147.554 186.468 150.958C190.215 152.834 193.845 154.934 197.338 157.248C198.556 158.189 200.223 159.235 200.37 160.954C200.724 167.78 198.884 174.51 197.579 181.155C195.774 189.311 193.666 197.389 191.393 205.416C193.45 197.337 195.385 189.216 197.104 181.051C198.297 174.459 200.128 167.771 199.757 161.049C199.584 159.485 198.107 158.682 196.966 157.775C193.499 155.474 189.902 153.377 186.192 151.493C178.822 147.571 171.297 143.916 164.229 139.449C162.13 137.972 159.693 136.598 158.371 134.265C157.822 132.787 157.641 131.198 157.844 129.634V129.66Z" fill="#263238"/>
<path d="M194.4 207.731C190.944 207.593 191.912 207.559 188.421 207.472C186.693 207.472 175.461 207.152 173.897 207.472C173.897 207.472 173.897 207.567 173.897 207.576C175.487 207.965 186.71 207.965 188.421 207.965C191.877 207.965 190.909 207.904 194.4 207.844C194.4 207.878 194.443 207.74 194.4 207.731Z" fill="#263238"/>
<path d="M167.383 77.3535C164.056 82.3215 167.296 85.9935 165.784 87.6265C161.827 91.9465 164.92 93.0524 163.944 94.5385C163.08 95.7913 159.494 97.0786 161.214 101.148L178.209 99.5151C178.451 96.6726 175.504 95.4457 175.141 93.4671C174.779 91.4886 176.93 89.3199 172.783 85.4665C170.096 83.03 168.981 74.9689 167.383 77.3535Z" fill="#263238"/>
<path d="M164.004 122.463L164.117 129.15L133.013 128.796C133.013 128.796 142.931 106.203 152.695 98.8067C158.241 94.599 161.741 97.7094 163.737 101.667C164.246 102.66 167.875 112.251 167.832 116.259C167.778 117.535 167.398 118.775 166.728 119.861C166.058 120.947 165.12 121.843 164.004 122.463Z" fill="#F7941E"/>
<path d="M160.315 120.312C158.969 120.445 157.637 120.69 156.332 121.046C155.684 121.228 155.045 121.444 154.414 121.686L153.455 122.005C153.125 122.128 152.778 122.201 152.427 122.221C152.427 122.221 152.427 122.273 152.427 122.282C152.757 122.308 153.09 122.308 153.42 122.282C153.739 122.241 154.054 122.174 154.362 122.083C155.019 121.902 155.667 121.686 156.332 121.504C157.654 121.115 158.985 120.735 160.332 120.467C160.393 120.424 160.376 120.303 160.315 120.312Z" fill="#263238"/>
<path d="M163.624 121.66C162.52 121.527 161.409 121.464 160.298 121.47C159.745 121.47 159.192 121.521 158.639 121.582L157.844 121.677C157.559 121.677 157.274 121.807 156.98 121.841C156.98 121.841 156.98 121.902 156.98 121.893C157.256 121.893 157.533 121.893 157.844 121.893H158.708C159.261 121.893 159.814 121.893 160.367 121.85C161.481 121.85 162.579 121.789 163.693 121.789C163.685 121.763 163.676 121.668 163.624 121.66Z" fill="#263238"/>
<path d="M157.17 98.055C157.231 98.6857 159.589 103.006 162.354 103.239C163.261 103.317 163.901 98.3747 163.901 98.3747L164.03 98.0204L165.862 93.0697L160.384 88.4214L159.581 87.7993C159.581 87.7993 159.175 89.1817 158.717 90.9184L158.639 91.1689C158.639 91.264 158.578 91.3504 158.561 91.4454L158.328 92.2316C158.276 92.4304 158.224 92.6291 158.172 92.8451C158.121 93.0611 158.069 93.2598 158.008 93.4758C157.621 94.9804 157.341 96.5107 157.17 98.055Z" fill="#D3766A"/>
<path d="M158.708 90.9271C159.03 92.4284 159.675 93.8415 160.599 95.068C161.522 96.2946 162.702 97.3051 164.056 98.0292L165.888 93.0785L160.41 88.4302L159.607 87.8081C159.607 87.8081 159.2 89.1905 158.708 90.9271Z" fill="#263238"/>
<path d="M157.17 98.0552C157.17 99.5499 164.376 109.287 165.197 109.054C165.646 108.95 163.374 101.347 163.374 101.347L157.17 98.0552Z" fill="#D3766A"/>
<path d="M152.297 105.659C158.864 119.016 166.121 129.367 170.683 129.851C176.731 130.55 190.296 125.85 195.471 122.308C197.303 121.055 191.324 105.892 189.19 106.885C186.598 108.121 173.353 114.756 173.068 114.8C172.454 114.886 160.92 105.494 157.836 102.807C152.686 98.3405 149.377 99.7315 152.297 105.659Z" fill="#D3766A"/>
<path d="M185.25 109.978C185.25 109.978 190.037 106.004 193.285 103.55C195.1 102.185 198.426 100.094 200.197 99.7227C202.876 99.1265 214.471 98.3662 214.721 101.174C214.937 103.714 204.898 103.101 204.898 103.101C204.898 103.101 215.084 102.824 214.79 105.935C214.497 109.045 203.239 106.799 203.239 106.799C203.239 106.799 213.71 106.747 212.898 109.901C212.285 112.294 201.977 110.868 201.977 110.868C201.977 110.868 210.989 110.868 210.462 113.374C209.883 116.113 200.284 115.404 200.284 115.404C197.891 121.452 194.236 123.396 191.514 124.45C190.866 124.753 185.25 109.978 185.25 109.978Z" fill="#D3766A"/>
<path d="M201.381 102.971C202.582 102.902 203.792 102.816 204.984 102.842C206.176 102.868 207.386 102.945 208.57 103.084C210.128 103.244 211.664 103.577 213.149 104.077C210.454 103.538 207.715 103.249 204.967 103.213C203.774 103.213 202.573 103.092 201.381 103.066C201.312 103.014 201.355 102.98 201.381 102.971Z" fill="#263238"/>
<path d="M201.191 107.3C202.729 107.3 204.241 107.179 205.779 107.214C207.317 107.248 208.742 107.421 210.263 107.559C210.384 107.559 210.341 107.637 210.22 107.628C208.699 107.551 207.282 107.628 205.761 107.525C204.241 107.421 202.712 107.343 201.191 107.335C201.165 107.335 201.174 107.3 201.191 107.3Z" fill="#263238"/>
<path d="M200.362 110.981C202.708 110.877 205.059 111.016 207.377 111.396C207.498 111.396 207.429 111.482 207.308 111.473C204.984 111.292 203.152 111.128 200.396 111.067C200.327 111.059 200.318 110.989 200.362 110.981Z" fill="#263238"/>
<path d="M179.66 111.283L185.423 128.364C185.423 128.364 173.18 131.414 169.448 129.686C165.715 127.958 157.352 117.59 153.032 108.146C148.712 98.703 152.055 97.2601 160.056 104.103C168.057 110.946 172.8 114.272 173.076 114.186C173.353 114.099 179.66 111.283 179.66 111.283Z" fill="#F7941E"/>
<path d="M176.325 113.694C176.321 113.684 176.314 113.677 176.306 113.671C176.297 113.666 176.288 113.663 176.277 113.663C176.267 113.663 176.258 113.666 176.249 113.671C176.241 113.677 176.234 113.684 176.23 113.694C177.578 118.63 179.194 123.49 181.068 128.252C181.072 128.261 181.079 128.269 181.088 128.275C181.096 128.28 181.106 128.283 181.116 128.283C181.126 128.283 181.136 128.28 181.144 128.275C181.153 128.269 181.159 128.261 181.163 128.252C179.819 123.314 178.204 118.454 176.325 113.694Z" fill="#263238"/>
<path d="M179.66 111.283C178.036 112.069 174.761 113.607 173.12 114.35C173.007 114.411 173.042 114.411 172.938 114.35C168.133 110.874 163.519 107.142 159.114 103.17C160.263 104.112 161.447 105.002 162.613 105.917C164.834 107.645 170.873 112.285 173.18 114.056H172.999C174.658 113.348 178.01 111.983 179.686 111.317L179.66 111.283Z" fill="#263238"/>
<path d="M152.928 108.674C156.539 114.082 159.9 120.027 164.108 124.986C159.408 120.338 156.073 114.437 152.928 108.674Z" fill="#263238"/>
<path d="M152.85 109.512C153.429 110.229 154.008 110.885 154.578 111.603C153.795 111.106 153.19 110.374 152.85 109.512Z" fill="#263238"/>
<path d="M172.524 83.0562C175.643 91.7739 170.796 94.6251 168.895 95.2991C167.167 95.9039 161.3 97.7615 157.291 89.4152C153.282 81.069 156.384 76.8959 160.186 75.2629C163.987 73.6299 169.405 74.3039 172.524 83.0562Z" fill="#D3766A"/>
<path d="M170.484 80.7231C170.276 80.7674 170.066 80.7991 169.854 80.8181C169.638 80.8918 169.404 80.8918 169.188 80.8181C169.126 80.7793 169.079 80.7207 169.054 80.6519C169.029 80.583 169.027 80.5077 169.05 80.438C169.114 80.3066 169.211 80.1947 169.333 80.1141C169.454 80.0336 169.596 79.9872 169.741 79.98C170.037 79.9192 170.344 79.9683 170.605 80.1183C170.653 80.1593 170.689 80.2121 170.709 80.2714C170.729 80.3308 170.734 80.3944 170.721 80.456C170.709 80.5175 170.681 80.5746 170.639 80.6215C170.597 80.6685 170.544 80.7035 170.484 80.7231Z" fill="#263238"/>
<path d="M165.421 84.3264C165.629 84.2573 165.81 84.1536 166.009 84.0672C166.227 84.0042 166.419 83.8705 166.553 83.6871C166.586 83.623 166.596 83.5497 166.582 83.4791C166.568 83.4086 166.53 83.3449 166.475 83.2983C166.346 83.217 166.196 83.1738 166.043 83.1738C165.891 83.1738 165.741 83.217 165.611 83.2983C165.365 83.3983 165.158 83.5776 165.024 83.808C164.989 83.8686 164.973 83.938 164.978 84.0076C164.983 84.0773 165.008 84.1439 165.05 84.1993C165.093 84.2547 165.151 84.2963 165.217 84.3189C165.283 84.3415 165.354 84.3441 165.421 84.3264Z" fill="#263238"/>
<path d="M167.037 85.1123C167.037 85.1123 167.037 85.1641 167.037 85.1814C167.288 85.7603 167.478 86.4688 167.037 86.9094C167.616 86.5552 167.365 85.6221 167.037 85.1123Z" fill="#263238"/>
<path d="M166.268 84.6716C165.3 84.974 165.974 86.9007 166.873 86.6156C167.771 86.3305 167.08 84.4556 166.268 84.6716Z" fill="#263238"/>
<path d="M165.931 84.9483C165.801 85.1125 165.698 85.363 165.508 85.4494C165.318 85.5358 165.033 85.4494 164.808 85.2766C164.937 85.6482 165.214 85.9765 165.62 85.8901C165.792 85.8291 165.935 85.7079 166.024 85.549C166.113 85.3901 166.142 85.2043 166.104 85.0261C166.078 84.957 165.983 84.8792 165.931 84.9483Z" fill="#263238"/>
<path d="M170.208 83.7559C170.208 83.7559 170.26 83.7559 170.268 83.7559C170.45 84.352 170.77 85.0173 171.374 85.0259C170.718 85.2419 170.312 84.3607 170.208 83.7559Z" fill="#263238"/>
<path d="M170.554 82.9437C171.487 82.5463 172.221 84.4384 171.349 84.81C170.476 85.1815 169.767 83.2893 170.554 82.9437Z" fill="#263238"/>
<path d="M170.994 82.944C171.184 82.944 171.4 83.1081 171.582 83.0563C171.763 83.0044 171.875 82.7193 171.927 82.4688C172.026 82.6222 172.067 82.8061 172.041 82.987C172.016 83.1678 171.926 83.3335 171.789 83.4537C171.495 83.6351 171.141 83.4537 170.925 83.0908C170.908 83.0304 170.916 82.944 170.994 82.944Z" fill="#263238"/>
<path d="M168.428 90.1843C168.6 90.3263 168.811 90.4109 169.033 90.4263C169.259 90.3658 169.471 90.26 169.655 90.1152C169.655 90.1152 169.655 90.1152 169.655 90.1152C169.595 90.2559 169.498 90.378 169.375 90.4691C169.252 90.5601 169.107 90.6169 168.955 90.6336C168.821 90.6276 168.692 90.5828 168.583 90.5045C168.474 90.4263 168.39 90.318 168.342 90.193C168.342 90.193 168.402 90.1671 168.428 90.1843Z" fill="#263238"/>
<path d="M170.389 87.1168C170.389 87.1168 170.778 87.9808 170.899 88.4128C170.899 88.4128 170.813 88.4992 170.675 88.5511C170.328 88.724 169.941 88.7978 169.555 88.7643C169.169 88.7307 168.8 88.5912 168.489 88.361C168.481 88.3574 168.475 88.3519 168.471 88.345C168.467 88.3382 168.464 88.3302 168.464 88.3221C168.464 88.314 168.467 88.306 168.471 88.2992C168.475 88.2923 168.481 88.2868 168.489 88.2832C169.139 88.4993 169.842 88.4993 170.493 88.2832C170.493 88.1536 169.785 86.8144 169.845 86.7885C170.187 86.7233 170.535 86.7029 170.882 86.728C170.13 84.8963 169.085 83.2029 168.368 81.3626C168.362 81.349 168.361 81.3338 168.366 81.3198C168.37 81.3058 168.38 81.294 168.393 81.2866C168.406 81.2791 168.421 81.2766 168.435 81.2795C168.449 81.2823 168.462 81.2904 168.471 81.3021C169.642 83.0885 170.632 84.9872 171.426 86.9699C171.556 87.2119 170.588 87.1427 170.389 87.1168Z" fill="#263238"/>
<path d="M170.476 88.4389C170.349 88.8326 170.123 89.1868 169.819 89.4671C169.651 89.6163 169.438 89.7072 169.214 89.7263C168.73 89.7695 168.566 89.3634 168.523 88.9832C168.5 88.7823 168.5 88.5794 168.523 88.3784C169.151 88.6059 169.835 88.6271 170.476 88.4389Z" fill="#263238"/>
<path d="M169.819 89.4672C169.651 89.6165 169.439 89.7074 169.214 89.7264C168.731 89.7696 168.566 89.3635 168.523 88.9834C168.762 88.9078 169.02 88.9144 169.255 89.0021C169.489 89.0898 169.688 89.2535 169.819 89.4672Z" fill="#FF9ABB"/>
<path d="M162.432 73.8892C157.974 74.0101 154.379 75.3148 152.807 77.6735C149.524 82.5896 152.427 90.141 150.932 91.774C147.035 96.0335 150.12 97.1308 149.126 98.686C148.314 99.9301 144.737 101.209 146.448 105.226L163.227 103.576C163.46 100.777 160.548 99.5672 160.186 97.6319C159.823 95.6965 161.914 93.5365 157.844 89.7349C155.157 87.2639 162.432 73.8892 162.432 73.8892Z" fill="#263238"/>
<path d="M156.384 88.9918C157.438 88.8017 159.892 88.3265 161.076 86.6676C161.732 85.7604 162.156 84.3867 162.043 82.1575C161.844 78.2695 163.711 75.1937 168.212 76.3169C168.212 76.3169 168.134 72.6795 165.473 71.9364C162.812 71.1934 161.067 74.0878 161.067 74.0878C161.067 74.0878 155.831 74.9518 154.155 79.4964C152.479 84.0411 156.384 88.9918 156.384 88.9918Z" fill="#263238"/>
<path d="M160.203 88.5682C160.203 88.5682 157.611 86.1663 156.488 87.1426C155.364 88.1189 157.714 91.9033 159.339 92.1452C159.545 92.189 159.758 92.1909 159.965 92.1508C160.172 92.1107 160.369 92.0294 160.543 91.9117C160.718 91.794 160.868 91.6424 160.983 91.4658C161.098 91.2892 161.177 91.0913 161.214 90.8837L160.203 88.5682Z" fill="#D3766A"/>
</svg>
