<svg width="42" height="40" viewBox="0 0 42 40" fill="none" xmlns="http://www.w3.org/2000/svg">
<g clip-path="url(#clip0_117_639)">
<rect width="41.6" height="40" rx="20" fill="#E2E1DD"/>
<path d="M16.4677 20C16.4677 17.6989 18.4071 15.833 20.8003 15.833C23.1934 15.833 25.134 17.6989 25.134 20C25.134 22.3011 23.1934 24.167 20.8003 24.167C18.4071 24.167 16.4677 22.3011 16.4677 20ZM14.1249 20C14.1249 23.545 17.1135 26.4186 20.8003 26.4186C24.4871 26.4186 27.4756 23.545 27.4756 20C27.4756 16.455 24.4871 13.5814 20.8003 13.5814C17.1135 13.5814 14.1249 16.455 14.1249 20ZM26.1799 13.3269C26.1798 13.6236 26.2711 13.9136 26.4425 14.1604C26.6138 14.4071 26.8573 14.5994 27.1423 14.7131C27.4273 14.8267 27.741 14.8566 28.0436 14.7988C28.3463 14.741 28.6243 14.5983 28.8425 14.3886C29.0608 14.1789 29.2095 13.9117 29.2698 13.6207C29.3301 13.3298 29.2993 13.0282 29.1814 12.754C29.0634 12.4799 28.8636 12.2455 28.6071 12.0806C28.3506 11.9157 28.0491 11.8276 27.7405 11.8275H27.7399C27.3263 11.8277 26.9297 11.9857 26.6372 12.2668C26.3447 12.548 26.1803 12.9292 26.1799 13.3269ZM15.5483 30.1747C14.2808 30.1192 13.5919 29.9162 13.1341 29.7447C12.5272 29.5175 12.0941 29.2469 11.6388 28.8097C11.1835 28.3725 10.9017 27.9565 10.6664 27.3729C10.488 26.9329 10.2768 26.2703 10.2192 25.0516C10.1562 23.734 10.1436 23.3382 10.1436 20.0001C10.1436 16.662 10.1572 16.2673 10.2192 14.9486C10.2769 13.7299 10.4896 13.0686 10.6664 12.6273C10.9027 12.0437 11.1841 11.6273 11.6388 11.1895C12.0935 10.7517 12.5262 10.4807 13.1341 10.2545C13.5917 10.0829 14.2808 9.8799 15.5483 9.8245C16.9186 9.7639 17.3302 9.7518 20.8003 9.7518C24.2704 9.7518 24.6824 9.7649 26.0539 9.8245C27.3213 9.88 28.0091 10.0845 28.468 10.2545C29.0749 10.4807 29.508 10.7523 29.9633 11.1895C30.4186 11.6267 30.6994 12.0437 30.9357 12.6273C31.1142 13.0673 31.3253 13.7299 31.3829 14.9486C31.4459 16.2673 31.4585 16.662 31.4585 20.0001C31.4585 23.3382 31.4459 23.7329 31.3829 25.0516C31.3252 26.2703 31.113 26.9327 30.9357 27.3729C30.6994 27.9565 30.418 28.3729 29.9633 28.8097C29.5086 29.2465 29.0749 29.5175 28.468 29.7447C28.0104 29.9163 27.3213 30.1193 26.0539 30.1747C24.6835 30.2353 24.2719 30.2474 20.8003 30.2474C17.3287 30.2474 16.9182 30.2353 15.5483 30.1747ZM15.4407 7.5757C14.0567 7.6363 13.1111 7.8473 12.2852 8.1563C11.4299 8.4754 10.7058 8.9035 9.98232 9.5981C9.25879 10.2927 8.81471 10.99 8.48284 11.8124C8.16148 12.607 7.94204 13.5158 7.87902 14.8465C7.81496 16.1793 7.80029 16.6054 7.80029 20C7.80029 23.3946 7.81496 23.8207 7.87902 25.1535C7.94204 26.4843 8.16148 27.393 8.48284 28.1876C8.81471 29.0095 9.25889 29.7076 9.98232 30.4019C10.7057 31.0962 11.4299 31.5237 12.2852 31.8437C13.1126 32.1527 14.0567 32.3637 15.4407 32.4243C16.8275 32.4849 17.2699 32.5 20.8003 32.5C24.3307 32.5 24.7738 32.4859 26.1599 32.4243C27.544 32.3637 28.489 32.1527 29.3154 31.8437C30.1702 31.5237 30.8947 31.0965 31.6183 30.4019C32.3418 29.7073 32.7849 29.0095 33.1177 28.1876C33.4391 27.393 33.6596 26.4842 33.7216 25.1535C33.7846 23.8197 33.7992 23.3946 33.7992 20C33.7992 16.6054 33.7846 16.1793 33.7216 14.8465C33.6585 13.5157 33.4391 12.6065 33.1177 11.8124C32.7849 10.9905 32.3407 10.2938 31.6183 9.5981C30.8959 8.9024 30.1702 8.4754 29.3164 8.1563C28.489 7.8473 27.5439 7.6353 26.161 7.5757C24.7749 7.5151 24.3317 7.5 20.8013 7.5C17.2709 7.5 16.8275 7.5141 15.4407 7.5757Z" fill="#F7941E"/>
</g>
<defs>
<clipPath id="clip0_117_639">
<rect width="41.6" height="40" fill="white"/>
</clipPath>
</defs>
</svg>
