<svg width="775" height="632" viewBox="0 0 775 632" fill="none" xmlns="http://www.w3.org/2000/svg">
<path d="M54.334 381.207C47.9256 301.356 214.914 243.753 275.87 213.974C318.703 193.048 370.952 71.9706 505.825 38.0227C629.547 6.8817 690.884 135.067 723.709 265.48C764.35 426.944 680.266 489.38 625.334 503.207C557.528 520.274 330.591 485.707 275.87 485.707C174.969 485.707 82.4042 492.728 54.334 381.207Z" fill="#F2F4F4" fill-opacity="0.6"/>
<path d="M609.54 429.696L548.569 429.367L487.611 429.243L365.667 429.024L243.738 429.243L182.766 429.367L121.794 429.696L182.766 430.039L243.738 430.162L365.667 430.382L487.611 430.162L548.569 430.039L609.54 429.696Z" fill="#263238"/>
<path d="M456.988 483.698C349.442 483.698 262.26 473.802 262.26 461.595C262.26 449.388 349.442 439.492 456.988 439.492C564.533 439.492 651.716 449.388 651.716 461.595C651.716 473.802 564.533 483.698 456.988 483.698Z" fill="#EBEBEB"/>
<path d="M191.341 474.3C137.618 474.3 94.0661 468.612 94.0661 461.595C94.0661 454.578 137.618 448.89 191.341 448.89C245.064 448.89 288.616 454.578 288.616 461.595C288.616 468.612 245.064 474.3 191.341 474.3Z" fill="#EBEBEB"/>
<path d="M604.203 460.621L379.195 461.595C324.507 418.638 318.827 355.004 357.874 316.437C381.487 293.113 411.478 297.819 440.03 294.101H440.112C450.059 292.811 459.814 290.493 469.075 285.608C498.477 270.091 515.051 233.472 539.788 202.726C542.875 198.871 546.099 195.111 549.474 191.503C569.821 169.784 610.309 169.071 631.479 199.611C685.261 277.184 660.606 392.666 604.203 460.621Z" fill="#DBDBDB"/>
<path d="M609.197 283.098C603.298 375.42 496.693 409.884 430.083 382.225C372.184 358.174 391.132 303.294 440.002 294.101H440.112C450.059 292.811 459.814 290.493 469.075 285.608C498.477 270.091 515.051 233.472 539.788 202.726C576.612 183.573 613.519 215.499 609.197 283.098Z" fill="#C7C7C7"/>
<path d="M422.18 454.392C425.294 453.253 495.664 397.001 496.995 393.16C497.517 391.705 489.916 380.976 480.367 368.271C478.309 365.527 476.168 362.783 473.973 359.861C459.745 341.325 444.228 321.994 444.228 321.994L397.045 359.491L428.08 396.315L434.94 404.41C434.94 404.41 417.625 437.996 416.623 442.359C415.622 446.722 419.066 455.531 422.18 454.392Z" fill="#AD6359"/>
<path d="M422.18 454.392C425.294 453.253 495.664 397.001 496.995 393.16C497.613 391.39 486.28 375.913 473.973 359.861L428.08 396.315L434.94 404.41C434.94 404.41 417.625 437.996 416.623 442.359C415.622 446.722 419.066 455.531 422.18 454.392Z" fill="white"/>
<path d="M422.18 454.392C425.294 453.253 495.664 397.001 496.995 393.16C497.517 391.705 489.916 380.976 480.367 368.271L434.898 404.41C434.898 404.41 417.584 437.996 416.582 442.359C415.581 446.722 419.066 455.531 422.18 454.392Z" fill="#F7941E"/>
<path d="M420.904 450.77C432.47 441.056 480.037 402.942 492.248 394.216C492.358 394.147 492.399 394.216 492.248 394.298C480.998 404.177 433.115 441.893 421.041 450.962C420.835 451.154 420.698 450.976 420.904 450.77Z" fill="#263238"/>
<path d="M419.079 436.213C420.364 435.132 421.859 434.33 423.469 433.858C425.08 433.386 426.772 433.253 428.436 433.469C431.44 433.822 434.189 435.327 436.106 437.667C436.106 437.736 436.037 437.846 435.969 437.777C433.698 435.766 430.837 434.545 427.814 434.298C424.791 434.05 421.77 434.79 419.203 436.405C419.177 436.421 419.146 436.427 419.117 436.42C419.087 436.414 419.061 436.396 419.045 436.371C419.029 436.345 419.023 436.314 419.029 436.285C419.036 436.255 419.054 436.229 419.079 436.213Z" fill="#263238"/>
<path d="M431.249 409.239C435.927 405.398 442.732 402.695 448.756 404.204C448.989 404.273 448.893 404.602 448.756 404.643C442.896 405.777 437.174 407.534 431.688 409.884C431.602 409.942 431.497 409.964 431.396 409.945C431.294 409.926 431.204 409.867 431.146 409.781C431.088 409.696 431.066 409.591 431.085 409.489C431.104 409.387 431.163 409.298 431.249 409.239Z" fill="#263238"/>
<path d="M428.752 413.52C433.417 409.678 440.222 406.976 446.245 408.485C446.478 408.553 446.382 408.883 446.245 408.924C440.369 410.075 434.634 411.85 429.136 414.22C429.043 414.271 428.934 414.283 428.832 414.253C428.731 414.223 428.645 414.155 428.594 414.062C428.543 413.969 428.531 413.86 428.561 413.758C428.59 413.657 428.659 413.571 428.752 413.52Z" fill="#263238"/>
<path d="M426.241 417.91C430.906 414.069 437.711 411.366 443.734 412.875C443.967 412.875 443.885 413.273 443.734 413.3C437.88 414.446 432.164 416.207 426.68 418.555C426.595 418.613 426.49 418.635 426.388 418.616C426.286 418.597 426.197 418.538 426.138 418.452C426.08 418.367 426.058 418.262 426.078 418.16C426.097 418.058 426.156 417.969 426.241 417.91Z" fill="#263238"/>
<path d="M423.73 422.246C428.395 418.404 435.2 415.702 441.223 417.211C441.457 417.211 441.374 417.595 441.223 417.636C435.368 418.775 429.651 420.536 424.17 422.891C424.084 422.949 423.979 422.971 423.877 422.952C423.776 422.932 423.686 422.873 423.628 422.788C423.569 422.702 423.547 422.597 423.567 422.496C423.586 422.394 423.645 422.304 423.73 422.246Z" fill="#263238"/>
<path d="M480.284 385.408C485.594 381.196 492.152 389.441 486.842 393.64C481.533 397.838 474.961 389.633 480.284 385.408Z" fill="#263238"/>
<path d="M416.088 400.719C416.884 396.823 421.453 396.356 424.567 397.234C429.891 398.845 434.698 401.826 438.507 405.878C438.527 405.893 438.543 405.913 438.554 405.936C438.565 405.958 438.571 405.983 438.571 406.008C438.571 406.033 438.565 406.058 438.554 406.081C438.543 406.104 438.527 406.123 438.507 406.139C438.561 406.242 438.589 406.357 438.589 406.474C438.589 406.591 438.561 406.706 438.507 406.81C438.453 406.913 438.375 407.002 438.28 407.069C438.184 407.137 438.074 407.18 437.958 407.195C432.744 407.552 427.201 408.567 422.029 407.332C418.969 406.66 415.32 404.396 416.088 400.719ZM429.891 406.125C432.47 406.015 435.022 405.768 437.588 405.741C434.844 404.067 432.237 402.283 429.356 400.87C427.974 400.178 426.549 399.577 425.089 399.073C422.811 398.332 415.018 398.085 418.654 403.6C420.643 406.66 426.831 406.262 429.891 406.125Z" fill="#263238"/>
<path d="M451.637 398.263C448.028 402.174 442.856 404.396 438.315 406.989C438.21 407.041 438.094 407.066 437.977 407.063C437.86 407.06 437.746 407.029 437.643 406.973C437.541 406.916 437.454 406.836 437.389 406.738C437.324 406.641 437.284 406.529 437.272 406.413C437.176 406.413 437.08 406.413 437.094 406.235C438.004 400.744 440.347 395.59 443.885 391.294C445.984 388.824 450.032 386.684 452.872 389.469C455.712 392.254 453.75 395.972 451.637 398.263ZM452.336 393.297C452.336 386.684 445.957 391.225 444.475 393.091C443.539 394.324 442.691 395.622 441.937 396.974C440.318 399.718 439.11 402.695 437.821 405.604C439.975 404.232 442.225 402.969 444.434 401.639C446.972 400.047 452.364 396.933 452.336 393.297Z" fill="#263238"/>
<path d="M349.382 287.406C349.464 294.458 356.516 307.327 366.175 321.706C384.752 349.406 413.029 382.677 420.012 390.8L421.604 392.638L471.572 354.222L470.996 353.481L426.996 295.857L558.269 295.089L508.424 256.33C508.424 256.33 504.376 258.662 495.98 257.428C467.003 253.188 401.682 243.804 386.288 244.421C366.422 245.272 349.08 264.713 349.382 287.406Z" fill="#455A64"/>
<path d="M366.175 321.719C384.752 349.42 413.029 382.691 420.012 390.813L470.996 353.509L426.996 295.885L366.175 321.719Z" fill="#263238"/>
<path d="M411.19 274.468C412.825 276.309 414.342 278.252 415.732 280.285L420.41 286.377V286.445C420.136 285.842 419.861 285.238 419.573 284.648C418.599 282.617 417.817 280.532 416.651 278.584C416.582 278.46 416.761 278.351 416.829 278.474C418.023 280.395 419.409 282.233 420.424 284.264C420.904 285.211 421.357 286.185 421.796 287.159C422.029 287.694 422.276 288.243 422.482 288.778C422.578 289.038 422.688 289.299 422.77 289.574C423.456 290.52 424.142 291.467 424.814 292.441C426.296 294.581 427.558 296.845 429.109 298.985C429.191 299.095 428.999 299.205 428.917 299.095C427.407 297.092 425.706 295.226 424.156 293.237C422.605 291.247 421.096 289.121 419.628 287.035C418.16 284.95 416.788 282.919 415.347 280.889C413.779 278.87 412.336 276.758 411.026 274.564C411.013 274.542 411.009 274.516 411.016 274.492C411.022 274.467 411.038 274.446 411.06 274.433C411.082 274.421 411.108 274.417 411.132 274.424C411.157 274.43 411.178 274.446 411.19 274.468Z" fill="#263238"/>
<path d="M540.268 201.436C530.966 212.892 497.187 245.642 476.1 250.444C464.479 253.092 408.323 260.954 400.64 253.943C391.612 245.711 395.796 214.827 402.972 214.539C424.842 213.674 465.316 217.955 475.427 215.732C480.01 214.717 504.239 199.076 530.143 186.577C539.856 181.844 546.538 193.643 540.268 201.436Z" fill="#AD6359"/>
<path d="M411.588 211.836C411.588 211.836 411.712 213.03 411.917 215.06C411.917 215.389 411.917 215.746 412.013 216.117C412.137 217.283 412.274 218.655 412.425 220.164C412.425 220.342 412.425 220.521 412.425 220.699C412.544 221.961 412.681 223.306 412.837 224.733C412.837 225.076 412.919 225.433 412.946 225.789C413.084 227.093 413.234 228.451 413.372 229.837C413.372 230.015 413.372 230.193 413.372 230.372C413.523 231.744 413.66 233.116 413.811 234.488C413.811 234.831 413.893 235.187 413.92 235.53C414.071 236.902 414.222 238.274 414.373 239.578C414.373 239.756 414.373 239.935 414.442 240.113C414.593 241.485 414.744 242.857 414.895 244.16L415.018 245.203C415.128 246.067 415.224 246.918 415.32 247.741C415.389 248.249 415.457 248.757 415.512 249.25C415.512 249.429 415.512 249.607 415.512 249.786C415.613 250.554 415.709 251.295 415.8 252.008C415.882 252.639 415.965 253.257 416.033 253.833C416.033 254.19 416.143 254.546 416.198 254.876C416.472 256.755 416.706 258.168 416.911 258.992C416.945 259.178 417.005 259.358 417.09 259.527C417.09 259.527 417.158 259.609 417.186 259.609L417.886 259.527L419.834 259.321L420.89 259.211L423.14 258.992L424.924 258.813H425.473L429.506 258.402L430.563 258.292L434.597 257.88H435.145L439.179 257.455L440.235 257.345L444.269 256.906H444.818L448.852 256.467L449.908 256.344L453.942 255.877H454.491L458.524 255.397L459.581 255.274L460.445 255.164L463.614 254.766L464.163 254.697L468.197 254.162H468.457L469.253 254.052L473.287 253.476L473.836 253.394C475.29 253.174 476.635 252.955 477.869 252.735L478.926 252.543C480.517 252.255 481.889 251.981 482.96 251.706L483.508 251.569L483.796 251.487C484.92 251.143 486.005 250.683 487.034 250.115L487.542 249.854L488.036 249.58L488.598 249.264C489.847 248.523 491.192 247.659 492.632 246.657C492.81 246.548 492.989 246.41 493.181 246.273L494.224 245.532L495.664 244.49L497.215 243.323L498.271 242.514L500.878 240.442L501.55 239.907L502.305 239.29L502.854 238.837L503.581 238.247C504.514 237.465 505.474 236.683 506.421 235.86C506.583 235.735 506.739 235.602 506.887 235.462L507.656 234.817L507.944 234.57C509.316 233.418 510.688 232.251 511.977 231.058L512.307 230.77L512.526 230.578L512.91 230.235L516.56 226.955L517.41 226.187L517.616 225.995L518.577 225.131C519.619 224.184 520.648 223.224 521.664 222.277L522.432 221.44L523.173 220.754L523.749 220.219L526.493 217.653L527.55 216.652L528.057 216.172L529.168 215.115L531.597 212.783L532.132 212.261L533.339 211.081L533.902 210.533L536.152 208.255L537.195 207.212L537.949 206.471L538.827 205.58L538.978 205.415C539.801 204.583 540.558 203.689 541.242 202.74C541.434 202.493 541.613 202.232 541.777 201.971C541.942 201.711 542.038 201.573 542.161 201.381C542.284 201.207 542.394 201.023 542.491 200.833C543.256 199.565 543.869 198.211 544.315 196.799C544.439 196.453 544.545 196.1 544.631 195.742C544.979 194.428 545.127 193.068 545.07 191.709C545.07 191.517 545.07 191.338 545.07 191.16C544.952 189.703 544.434 188.308 543.574 187.126C543.276 186.738 542.935 186.384 542.559 186.07C542.331 185.873 542.088 185.694 541.832 185.535C541.66 185.419 541.482 185.313 541.297 185.219C540.039 184.593 538.655 184.26 537.25 184.245H536.152C535.006 184.299 533.868 184.455 532.749 184.712L532.105 184.876C531.923 184.909 531.744 184.955 531.569 185.013C530.495 185.305 529.437 185.653 528.4 186.056L527.522 186.413L526.466 186.866L525.944 187.113C525.245 187.428 524.572 187.785 523.777 188.183L522.405 188.882L521.869 189.171L518.179 191.146L517.822 191.338L517.163 191.695C517.026 191.76 516.894 191.833 516.766 191.915C515.394 192.642 514.022 193.383 512.732 194.123L512.183 194.425L509.851 195.797L508.149 196.758L507.971 196.854L507.093 197.348L503.059 199.639L502.511 199.954L500.878 200.887L499.917 201.436L498.545 202.259L497.489 202.877L493.455 205.182L492.961 205.47L491.178 206.499L488.928 207.761L487.871 208.365L483.947 210.533H483.838L483.289 210.821L482.905 211.027C481.533 211.726 480.366 212.399 479.255 212.906L478.199 213.4C476.9 214.043 475.551 214.58 474.165 215.005H473.959L473.616 215.088C473.426 215.131 473.234 215.163 473.04 215.184C471.889 215.267 470.735 215.29 469.583 215.252H468.526C467.346 215.252 465.988 215.252 464.492 215.129H463.944L462.311 215.06L459.91 214.95H458.853L454.82 214.731H454.271L450.237 214.498H449.181L445.147 214.251H444.598L440.565 214.004L439.508 213.935L435.475 213.674H434.926L430.892 213.4L429.836 213.331L425.802 213.057H425.253L421.22 212.783L420.163 212.7L416.129 212.412H415.581L411.588 211.836Z" fill="#F7941E"/>
<path opacity="0.2" d="M541.187 185.219V202.74C541.379 202.493 541.558 202.232 541.722 201.971V185.507C541.55 185.401 541.371 185.304 541.187 185.219ZM532.05 184.89V212.234L531.515 212.755V185.027C531.685 184.969 531.859 184.923 532.036 184.89H532.05ZM537.14 184.245V207.212L536.097 208.255V184.245H537.14ZM527.467 186.427V216.611L526.411 217.612V186.879L527.467 186.427ZM522.377 188.896V221.44L521.842 221.934V189.184L522.377 188.896ZM512.704 194.137V230.207L512.485 230.399L512.156 230.687V194.439L512.704 194.137ZM517.136 191.709L517.795 191.352V225.817H517.589L516.738 226.585V191.928C516.866 191.847 516.999 191.774 517.136 191.709ZM507.944 196.799L508.122 196.703V234.2L507.834 234.447L507.066 235.091V197.293L507.944 196.799ZM503.032 199.543V238.425L502.483 238.878V199.9L503.032 199.543ZM492.865 205.374L493.359 205.086V245.862C493.167 245.999 492.989 246.136 492.81 246.246V205.415L492.865 205.374ZM498.449 202.232V242.171L497.393 242.98V202.822L498.449 202.232ZM488.777 207.72V249.196H488.214L487.72 249.47V208.31L488.777 207.72ZM483.687 210.546V251.185L483.138 251.322V210.848L483.687 210.546ZM473.808 215.074H474.014V252.996L473.465 253.078V215.088L473.808 215.074ZM479.104 212.92V252.159L478.048 252.351V213.428L479.104 212.92ZM469.5 215.321V253.737H468.704H468.444V215.307L469.5 215.321ZM464.41 215.17V254.368L463.861 254.437V215.156L464.41 215.17ZM454.806 214.69V255.534H454.257V214.676L454.806 214.69ZM459.896 214.964V254.931L458.84 255.054V214.923L459.896 214.964ZM450.292 214.429V256.056L449.236 256.179V214.388L450.292 214.429ZM445.202 214.127V256.659H444.653V214.127H445.202ZM435.53 213.51V257.661H434.981V213.482L435.53 213.51ZM440.62 213.839V257.112L439.563 257.222V213.784L440.62 213.839ZM430.947 213.194V258.114L429.891 258.223V213.208L430.947 213.194ZM425.857 212.851V258.635H425.308V212.824L425.857 212.851ZM416.184 212.165V251.953C416.093 251.24 415.997 250.499 415.896 249.731C415.896 249.552 415.896 249.374 415.896 249.196C415.896 248.702 415.773 248.194 415.704 247.686V212.138L416.184 212.165ZM421.274 212.536V259.088L420.218 259.197V212.467L421.274 212.536ZM423.525 258.868L421.274 259.088L420.218 259.197L418.27 259.403H417.474C417.389 259.234 417.329 259.054 417.296 258.868H423.525ZM468.8 253.778H468.54L464.506 254.313L463.957 254.382L460.788 254.78H416.376C416.376 254.45 416.28 254.094 416.212 253.737L468.8 253.778ZM488.379 249.196L487.885 249.47L487.377 249.731H415.69C415.69 249.552 415.69 249.374 415.69 249.196H488.379ZM501.893 239.523L501.221 240.058H414.785C414.785 239.88 414.785 239.701 414.716 239.523H501.893ZM496.007 244.105L494.567 245.148H415.293L415.169 244.105H496.007ZM507.999 234.501L507.23 235.146C507.082 235.287 506.926 235.42 506.764 235.544H414.044C414.044 235.201 413.975 234.844 413.934 234.501H507.999ZM513.253 229.919L512.869 230.262L512.65 230.454H413.646C413.646 230.276 413.646 230.097 413.646 229.919H513.253ZM523.859 220.246L523.283 220.781H412.645C412.645 220.603 412.645 220.425 412.645 220.246H523.859ZM518.92 224.815L517.959 225.679V225.872H413.166C413.166 225.515 413.097 225.158 413.056 224.815H518.92ZM462.325 215.143L463.957 215.211H464.506C466.002 215.211 467.36 215.321 468.54 215.335H469.596C470.749 215.373 471.903 215.35 473.054 215.266C473.247 215.245 473.44 215.213 473.63 215.17V215.088H529.086L527.975 216.144H412.013C412.013 215.774 411.945 215.417 411.917 215.088L462.325 215.143ZM483.303 210.903L483.851 210.615H533.82L533.257 211.164H482.754L483.303 210.903ZM500.85 200.86H542.436C542.339 201.051 542.229 201.234 542.106 201.409H499.89L500.85 200.86ZM492.81 205.47H538.896L538.745 205.635L537.867 206.526H490.999L492.81 205.47ZM508.122 196.744L509.823 195.784H544.576C544.49 196.141 544.385 196.494 544.26 196.84H507.944L508.122 196.744ZM517.795 191.393L518.151 191.201H544.96C544.96 191.379 544.96 191.558 544.96 191.75H517.081L517.795 191.393ZM526.411 186.92L527.467 186.468L528.345 186.111H542.449C542.825 186.425 543.166 186.779 543.465 187.167H525.889L526.411 186.92Z" fill="white"/>
<path d="M503.759 237.904C516.834 227.093 531.817 212.632 538.773 205.607C548.377 195.935 547.375 181.446 532.695 184.739C528.702 191.352 511.291 223.814 503.759 237.904Z" fill="#263238"/>
<path d="M420.63 216.062C420.63 215.938 420.808 215.897 420.835 216.062C421.467 219.245 421.727 222.51 422.084 225.734C422.441 228.959 422.784 232.389 423.086 235.736C423.675 242.377 424.375 249.072 424.595 255.754C424.583 255.801 424.555 255.843 424.517 255.873C424.478 255.903 424.431 255.919 424.382 255.919C424.333 255.919 424.286 255.903 424.247 255.873C424.209 255.843 424.182 255.801 424.169 255.754C423.168 249.196 422.633 242.528 422.015 235.928C421.714 232.663 421.412 229.384 421.178 226.105C420.945 222.826 420.588 219.396 420.63 216.062Z" fill="#263238"/>
<path d="M500.302 286.802C500.983 287.159 501.721 287.396 502.483 287.502L503.032 287.612L504.404 287.9L507.011 288.366L507.436 288.435L508.067 288.531L512.101 289.176L512.65 289.244C513.926 289.45 515.27 289.642 516.683 289.848L517.74 289.999L521.773 290.561L522.322 290.63L526.356 291.179L527.412 291.316L531.446 291.837L531.995 291.906L533.627 292.112L536.028 292.427H536.495C536.687 292.427 536.893 292.427 537.085 292.51L541.119 293.004L541.667 293.072L545.084 293.484L545.701 293.552L546.758 293.69L550.791 294.183L551.34 294.252L555.374 294.719L556.43 294.842L560.464 295.308L561.013 295.377L565.046 295.844C565.403 295.844 565.76 295.912 566.103 295.967L570.136 296.406L570.685 296.475H571.371L574.719 296.831L575.775 296.955L579.809 297.366L580.358 297.435H580.55C582.045 297.586 583.294 297.709 584.391 297.792L585.448 297.888L586.6 297.97C586.91 298.005 587.223 298.005 587.533 297.97C587.611 297.803 587.639 297.618 587.616 297.435C587.616 296.722 587.616 295.336 587.424 293.401C587.424 293.072 587.424 292.715 587.341 292.345C587.232 291.151 587.094 289.807 586.93 288.298C586.93 288.119 586.93 287.941 586.93 287.762C586.792 286.5 586.642 285.156 586.477 283.715L586.353 282.672C586.203 281.383 586.038 280.024 585.86 278.556C585.86 278.378 585.86 278.2 585.86 278.021C585.759 277.308 585.663 276.581 585.571 275.84L585.324 273.974C585.324 273.631 585.228 273.288 585.187 272.931C585.009 271.559 584.817 270.269 584.625 268.884L584.542 268.349C584.548 268.271 584.548 268.193 584.542 268.115C584.364 266.867 584.186 265.591 583.994 264.301C583.994 263.958 583.898 263.615 583.843 263.259C583.637 261.887 583.431 260.583 583.225 259.211L583.143 258.676C582.937 257.304 582.731 255.932 582.512 254.56C582.512 254.217 582.388 253.874 582.333 253.517C582.128 252.145 581.894 250.773 581.675 249.47C581.675 249.292 581.675 249.113 581.593 248.935C581.359 247.563 581.126 246.191 580.879 244.887C580.879 244.544 580.769 244.188 580.701 243.845C580.632 243.502 580.577 243.104 580.509 242.747L579.974 239.797C579.974 239.797 579.974 239.729 579.974 239.701L579.891 239.262C579.644 237.89 579.384 236.518 579.123 235.215C579.123 234.872 579 234.515 578.917 234.172C578.67 232.8 578.396 231.428 578.135 230.056L578.012 229.521C577.737 228.149 577.463 226.777 577.175 225.474C577.092 225.117 577.024 224.774 576.955 224.417C576.653 223.045 576.352 221.673 576.036 220.384C576.036 220.233 576.036 220.095 575.94 219.945C575.844 219.794 575.94 219.876 575.94 219.848C575.624 218.476 575.295 217.104 574.98 215.801L574.897 215.486C574.897 215.239 574.774 214.992 574.705 214.745C574.362 213.373 574.019 212.001 573.662 210.711C573.662 210.533 573.566 210.341 573.512 210.162C573.141 208.79 572.757 207.418 572.373 206.128L572.043 205.072C571.659 203.796 571.261 202.575 570.864 201.423C570.864 201.299 570.781 201.162 570.726 201.038C570.671 200.915 570.603 200.668 570.534 200.49C570.466 200.311 570.397 200.078 570.315 199.886C570.082 199.214 569.835 198.514 569.588 197.951C569.341 197.389 569.19 196.936 568.984 196.456C568.778 195.976 568.668 195.742 568.517 195.399C567.901 193.992 567.162 192.643 566.309 191.366C566.309 191.366 566.062 191.009 565.938 190.858C565.723 190.577 565.494 190.307 565.252 190.049L564.868 189.664L564.141 189.006C563.208 188.183 562.343 187.456 561.534 186.824C561.436 186.734 561.33 186.651 561.218 186.577L560.67 186.152L560.148 185.768C558.886 184.835 557.734 184.08 556.636 183.394L555.36 183.024L555.14 182.887C554.553 182.534 553.927 182.248 553.275 182.036C552.636 181.825 551.985 181.651 551.326 181.515H551.175L550.777 181.432C549.443 181.192 548.096 181.023 546.744 180.925H545.687C544.315 180.925 542.943 180.829 541.654 180.925H541.105C539.609 180.925 538.224 181.048 537.071 181.172L536.015 181.295C535.38 181.361 534.752 181.476 534.135 181.638L533.902 181.721C533.634 181.839 533.384 181.996 533.161 182.187C532.74 182.537 532.345 182.917 531.981 183.326L531.432 183.943C530.897 184.588 530.294 185.315 529.69 186.221C529.443 186.564 529.196 186.907 528.949 187.277C528.441 188.032 527.92 188.855 527.399 189.719C527.083 190.227 526.754 190.762 526.452 191.311L526.342 191.489L526.136 191.86C525.409 193.149 524.764 194.508 524.051 195.893C523.873 196.236 523.708 196.593 523.543 196.95C523.104 197.91 522.693 198.884 522.308 199.872C522.158 200.243 522.02 200.613 521.883 200.983L521.76 201.313L521.677 201.532C521.219 202.811 520.825 204.111 520.497 205.429C520.49 205.474 520.49 205.521 520.497 205.566C520.415 205.868 520.333 206.225 520.223 206.622C519.962 207.679 519.619 209.037 519.194 210.656C519.194 210.834 519.098 211.013 519.043 211.205C518.728 212.426 518.385 213.771 517.987 215.239C517.987 215.54 517.836 215.856 517.753 216.172C517.747 216.212 517.747 216.254 517.753 216.295C517.424 217.512 517.081 218.801 516.724 220.164V220.342C516.724 220.521 516.628 220.699 516.587 220.877L515.517 224.911C515.435 225.254 515.339 225.611 515.243 225.968C514.9 227.34 514.543 228.629 514.186 230.015C514.186 230.193 514.09 230.372 514.035 230.55C513.692 231.922 513.336 233.294 512.979 234.666L512.732 235.613C512.73 235.645 512.73 235.677 512.732 235.709C512.554 236.354 512.389 237.012 512.211 237.671L511.675 239.756C511.675 239.935 511.579 240.113 511.525 240.291C511.182 241.663 510.825 243.035 510.482 244.339C510.386 244.682 510.29 245.025 510.207 245.381C509.851 246.753 509.494 248.125 509.151 249.429C509.151 249.607 509.055 249.786 509.014 249.964C508.739 251.034 508.451 252.104 508.177 253.174L507.971 254.011C507.875 254.354 507.793 254.711 507.697 255.054L507.12 257.29C506.97 257.908 506.819 258.511 506.654 259.101C506.654 259.28 506.572 259.458 506.517 259.636L505.501 263.684C505.405 264.041 505.323 264.384 505.227 264.727C504.884 266.099 504.541 267.471 504.226 268.774C504.226 268.952 504.13 269.131 504.088 269.309L503.1 273.356L502.854 274.372C502.757 274.825 502.648 275.264 502.552 275.744C502.318 276.69 502.099 277.61 501.907 278.488L501.783 279.023C501.427 280.573 501.139 281.931 500.905 283.139C500.823 283.509 500.754 283.866 500.7 284.182C500.426 285.028 500.292 285.913 500.302 286.802Z" fill="#F7941E"/>
<path opacity="0.2" d="M579.864 239.976V297.49L580.413 297.559V243.022L579.878 240.072C579.878 240.072 579.864 240.003 579.864 239.976ZM584.474 268.554L584.556 269.09C584.748 270.462 584.94 271.834 585.119 273.137C585.119 273.494 585.215 273.837 585.256 274.18L585.544 276.046V297.998L584.488 297.902V268.321C584.489 268.399 584.484 268.477 584.474 268.554ZM574.87 216.144C575.185 217.516 575.515 218.819 575.83 220.191V297.023L574.774 296.9V215.829L574.87 216.144ZM570.452 200.86C570.452 201.038 570.589 201.217 570.644 201.409C570.699 201.601 570.74 201.669 570.781 201.793V296.557L570.232 296.488V200.229C570.274 200.421 570.342 200.627 570.452 200.86ZM561.109 186.907V295.459L560.56 295.391V186.454L561.109 186.907ZM565.828 191.187C565.952 191.338 566.075 191.517 566.199 191.695V296.049C565.856 296.049 565.499 295.967 565.142 295.926V190.35C565.37 190.61 565.586 190.88 565.787 191.16L565.828 191.187ZM556.526 183.724V294.924L555.47 294.801V183.024L556.526 183.724ZM551.285 181.515H551.436V294.334L550.887 294.266V181.405L551.285 181.515ZM541.763 180.801V293.154L541.215 293.086V180.774L541.763 180.801ZM546.854 180.925V293.744L545.797 293.607V180.843L546.854 180.925ZM537.25 181.048V292.592C537.058 292.592 536.852 292.592 536.66 292.51H536.193V181.144L537.25 181.048ZM532.159 183.202V291.933L531.611 291.865V183.792L532.159 183.202ZM521.952 200.86C522.089 200.49 522.226 200.119 522.377 199.749V290.657L521.828 290.589V200.86H521.952ZM526.521 191.256C526.822 190.707 527.152 190.172 527.467 189.664V291.412L526.411 291.275V191.338L526.521 191.256ZM517.767 216.24C517.761 216.199 517.761 216.158 517.767 216.117V290.04L516.711 289.889V220.068C517.086 218.678 517.438 217.37 517.767 216.144V216.24ZM512.677 235.585C512.675 235.553 512.675 235.521 512.677 235.489V289.34L512.128 289.272V237.547C512.334 236.793 512.499 236.134 512.677 235.489V235.585ZM502.785 274.276L503.032 273.26V287.708L502.483 287.598V275.607C502.579 275.072 502.689 274.632 502.785 274.18V274.276ZM507.642 254.931C507.738 254.588 507.82 254.231 507.916 253.888L508.122 253.051V288.531L507.491 288.435L507.066 288.366V257.112L507.642 254.931ZM587.671 297.572C587.694 297.755 587.666 297.94 587.588 298.107H585.544V298.025L584.488 297.929C583.431 297.847 582.141 297.723 580.646 297.572H587.671ZM587.396 292.482C587.396 292.853 587.396 293.209 587.479 293.539H545.139L541.722 293.127L541.174 293.058L537.14 292.564C536.948 292.564 536.742 292.564 536.55 292.482H587.396ZM586.93 287.9C586.93 288.078 586.93 288.256 586.93 288.435H507.436L507.011 288.366L504.404 287.9H586.93ZM501.866 278.227H585.791C585.791 278.405 585.791 278.584 585.791 278.762H501.715L501.866 278.227ZM500.864 282.81H586.353L586.477 283.852H500.631C500.686 283.537 500.754 283.18 500.837 282.81H500.864ZM503.059 273.206H585.119C585.119 273.562 585.215 273.905 585.256 274.248H502.785L503.059 273.206ZM504.198 268.596H584.474L584.556 269.131H504.033C504.075 268.911 504.13 268.733 504.171 268.554L504.198 268.596ZM506.627 258.992H583.047L583.129 259.527H506.462C506.517 259.239 506.558 259.06 506.599 258.882L506.627 258.992ZM505.474 263.574H583.747C583.747 263.931 583.843 264.274 583.898 264.617H505.172C505.268 264.164 505.351 263.821 505.447 263.464L505.474 263.574ZM507.944 253.902H582.237C582.237 254.258 582.361 254.601 582.416 254.944H507.642C507.738 254.492 507.82 254.135 507.916 253.792L507.944 253.902ZM509.124 249.319H581.428C581.428 249.497 581.428 249.676 581.51 249.854H508.89C509 249.566 509.055 249.388 509.096 249.209L509.124 249.319ZM511.648 239.646H579.782L579.864 240.085C579.864 240.085 579.864 240.154 579.864 240.182H511.456C511.456 239.893 511.566 239.715 511.621 239.537L511.648 239.646ZM510.454 244.229H580.605C580.605 244.572 580.728 244.929 580.783 245.272H510.084C510.235 244.764 510.331 244.462 510.427 244.119L510.454 244.229ZM512.732 235.503L512.979 234.556H578.835C578.917 234.899 578.986 235.256 579.041 235.599H512.705C512.696 235.531 512.696 235.462 512.705 235.393L512.732 235.503ZM514.186 230.015H577.902L578.025 230.55H514.008C514.063 230.221 514.104 230.042 514.2 229.864L514.186 230.015ZM516.724 220.342H575.858V220.438C575.858 220.589 575.858 220.727 575.954 220.877H516.587C516.601 220.548 516.656 220.37 516.697 220.191L516.724 220.342ZM515.517 224.911H576.846C576.846 225.268 576.983 225.611 577.065 225.968H515.215C515.311 225.46 515.407 225.103 515.49 224.76L515.517 224.911ZM517.822 216.172C517.904 215.856 517.987 215.54 518.055 215.239H574.568C574.568 215.486 574.705 215.732 574.76 215.979L574.842 216.295H517.767C517.743 216.203 517.753 216.106 517.795 216.021L517.822 216.172ZM519.194 210.684H573.388C573.388 210.862 573.498 211.054 573.539 211.232H519.084C519.139 210.862 519.194 210.684 519.235 210.464L519.194 210.684ZM521.787 201.34V200.86H570.452C570.452 201.038 570.589 201.217 570.644 201.409H521.746L521.787 201.34ZM520.497 205.593H571.92L572.249 206.65H520.264C520.374 206.074 520.456 205.717 520.539 205.415L520.497 205.593ZM524.078 195.989H568.394C568.545 196.332 568.71 196.675 568.86 197.046H523.584C523.804 196.442 523.941 196.085 524.12 195.742L524.078 195.989ZM526.37 191.585L526.479 191.407H565.787C565.911 191.558 566.034 191.736 566.158 191.915C566.281 192.093 566.158 191.915 566.158 191.915H526.178L526.37 191.585ZM533.929 181.817L534.163 181.734H551.395C552.054 181.87 552.704 182.044 553.343 182.256H533.23C533.436 181.987 533.687 181.755 533.971 181.57L533.929 181.817ZM529.717 186.317H559.901L560.423 186.701L560.971 187.126C561.083 187.2 561.189 187.283 561.287 187.373H529.018C529.292 186.756 529.512 186.413 529.758 186.07L529.717 186.317Z" fill="white"/>
<path d="M533.682 292.112C546.62 293.772 560.848 295.446 571.426 296.598L569.464 198.294C567.927 194.343 566.322 191.434 564.717 189.966L563.99 189.308L533.682 292.112Z" fill="#263238"/>
<path d="M515.846 278.419C516.505 275.373 517.168 272.327 517.836 269.282C519.18 263.19 520.552 257.103 521.952 251.02C524.778 238.755 527.774 226.53 530.938 214.347C532.695 207.487 534.574 200.709 536.303 193.863C536.311 193.842 536.325 193.824 536.343 193.811C536.362 193.798 536.383 193.791 536.406 193.791C536.428 193.791 536.45 193.798 536.469 193.811C536.487 193.824 536.501 193.842 536.509 193.863C533.339 205.991 530.582 218.23 527.742 230.44C524.902 242.651 522.117 254.752 519.4 266.936L517.136 277.184C516.382 280.642 515.764 284.209 514.776 287.584C514.667 287.968 513.994 287.886 514.049 287.474C514.406 284.552 515.202 281.438 515.846 278.419Z" fill="#263238"/>
<path d="M536.371 197.005C541.448 197.704 549.268 189.294 552.053 182.818C552.245 182.379 551.175 177.989 550.119 172.597C549.501 169.318 548.884 165.654 548.555 162.279C548.555 161.58 546.25 163.075 546.25 163.075L541.983 164.557L527.838 169.441C529.449 173.554 530.55 177.848 531.117 182.228C531.163 182.684 531.163 183.144 531.117 183.6V183.833C530.925 186.55 531.46 196.319 536.371 197.005Z" fill="#AD6359"/>
<path d="M531.103 183.641V183.875C531.832 183.902 532.561 183.87 533.284 183.779C547.54 182.105 547.608 163.816 547.608 163.816L541.983 164.598L527.838 169.482C529.449 173.595 530.55 177.889 531.117 182.269C531.158 182.726 531.153 183.186 531.103 183.641Z" fill="#263238"/>
<path d="M545.975 135.361C549.776 142.221 550.338 164.461 546.085 170.319C539.897 178.826 527.563 182.091 519.77 174.161C512.224 166.464 512.005 137.542 517.026 131.986C524.284 123.795 540.35 125.126 545.975 135.361Z" fill="#AD6359"/>
<path d="M527.577 153.746C527.577 153.746 527.701 153.814 527.701 153.869C527.701 155.364 527.948 157.079 529.32 157.532C529.32 157.532 529.32 157.628 529.32 157.615C527.646 157.436 527.344 155.159 527.577 153.746Z" fill="#263238"/>
<path d="M528.867 152.14C531.268 151.893 531.611 156.695 529.374 156.942C527.138 157.189 526.863 152.36 528.867 152.14Z" fill="#263238"/>
<path d="M518.974 154.582C518.974 154.582 518.851 154.665 518.865 154.733C519.016 156.215 518.865 157.944 517.616 158.534C517.616 158.534 517.616 158.63 517.616 158.616C519.276 158.328 519.345 155.968 518.974 154.582Z" fill="#263238"/>
<path d="M517.534 153.128C515.119 153.128 515.27 157.93 517.534 157.944C519.798 157.958 519.551 153.142 517.534 153.128Z" fill="#263238"/>
<path d="M530.664 149.808C530.02 149.668 529.383 149.494 528.757 149.287C528.061 149.197 527.414 148.878 526.918 148.381C526.791 148.194 526.729 147.971 526.741 147.745C526.754 147.519 526.84 147.304 526.987 147.132C527.331 146.842 527.746 146.648 528.19 146.571C528.633 146.494 529.09 146.536 529.511 146.693C530.417 146.881 531.219 147.399 531.762 148.148C531.877 148.325 531.939 148.532 531.938 148.744C531.938 148.955 531.875 149.162 531.759 149.339C531.642 149.515 531.476 149.654 531.281 149.737C531.087 149.82 530.872 149.845 530.664 149.808Z" fill="#263238"/>
<path d="M515.503 150.837C516.162 150.672 516.738 150.425 517.383 150.206C518.073 150.072 518.699 149.715 519.167 149.19C519.284 148.999 519.334 148.773 519.309 148.55C519.284 148.326 519.186 148.117 519.029 147.956C518.668 147.685 518.242 147.515 517.794 147.462C517.346 147.409 516.892 147.475 516.478 147.654C515.586 147.895 514.814 148.457 514.31 149.232C514.207 149.416 514.16 149.626 514.174 149.837C514.188 150.048 514.263 150.25 514.389 150.419C514.515 150.589 514.687 150.718 514.884 150.792C515.082 150.866 515.297 150.882 515.503 150.837Z" fill="#263238"/>
<path d="M528.043 163.13C527.707 163.746 527.247 164.286 526.692 164.716C526.137 165.145 525.5 165.456 524.819 165.627C524.224 165.785 523.609 165.854 522.994 165.833C522.876 165.847 522.756 165.847 522.638 165.833H522.308C522.229 165.822 522.155 165.785 522.098 165.728C522.041 165.671 522.004 165.597 521.993 165.517C521.986 165.467 521.986 165.416 521.993 165.366V165.188C521.883 164.036 521.883 162.293 521.883 162.293C521.472 162.526 519.4 163.665 519.4 163.034C519.17 157.849 519.469 152.655 520.292 147.53C520.292 147.494 520.306 147.459 520.332 147.433C520.357 147.408 520.392 147.393 520.429 147.393C520.465 147.393 520.5 147.408 520.526 147.433C520.552 147.459 520.566 147.494 520.566 147.53C520.813 152.319 520.196 157.134 520.36 161.936C521.096 161.526 521.886 161.221 522.706 161.031C522.871 161.031 522.706 164.42 522.706 164.941C523.652 164.968 524.594 164.804 525.475 164.46C526.357 164.116 527.16 163.598 527.838 162.938C528.002 162.91 528.126 163.007 528.043 163.13Z" fill="#263238"/>
<path d="M515.956 139.49C523.598 143.84 532.846 135.525 532.846 135.525C533.593 137.05 534.813 138.293 536.323 139.069C537.833 139.845 539.554 140.113 541.228 139.833C541.228 139.833 543.671 151.934 546.895 151.646C551.807 151.207 551.93 134.4 550.105 131.258C548.281 128.117 544.041 127.623 544.041 127.623C543.416 125.677 542.078 124.04 540.295 123.04C536.728 120.749 525.45 125.18 525.45 125.18C524.657 123.687 523.524 122.399 522.144 121.421C521.812 121.178 521.434 121.004 521.033 120.911C520.633 120.818 520.217 120.807 519.812 120.879C519.407 120.951 519.02 121.104 518.676 121.329C518.332 121.554 518.037 121.847 517.808 122.19C518.481 123.047 518.95 124.046 519.18 125.112C520.058 128.638 517.136 128.871 516.889 125.633C516.761 124.419 517.067 123.199 517.754 122.19C516.135 120.186 513.72 119.692 512.389 120.955C510.015 123.232 509.604 135.882 515.956 139.49Z" fill="#263238"/>
<path d="M545.056 153.718C545.056 153.718 548.596 145.87 552.067 147.009C555.538 148.148 553.782 158.877 550.352 160.949C549.93 161.245 549.451 161.452 548.947 161.559C548.442 161.665 547.921 161.669 547.414 161.569C546.908 161.469 546.427 161.268 546.001 160.977C545.574 160.687 545.211 160.313 544.933 159.878L545.056 153.718Z" fill="#AD6359"/>
<path d="M551.491 150.096C551.491 150.096 551.573 150.165 551.491 150.192C549.09 151.729 548.184 154.39 547.691 157.052C547.792 156.763 547.956 156.5 548.169 156.281C548.382 156.062 548.641 155.891 548.927 155.782C549.212 155.672 549.519 155.626 549.824 155.646C550.129 155.667 550.427 155.753 550.695 155.9C550.764 155.9 550.695 156.05 550.695 156.05C550.211 155.991 549.72 156.083 549.29 156.314C548.86 156.545 548.512 156.903 548.294 157.34C547.943 158.069 547.667 158.832 547.471 159.618C547.389 159.878 546.95 159.837 546.991 159.549C546.305 156.174 548.006 151.07 551.491 150.096Z" fill="#263238"/>
<path d="M531.103 183.875L535.713 195.372L551.642 180.06L555.881 185.233C555.881 185.233 540.021 209.847 539.952 208.722L535.137 197.828L527.508 205.086L528.647 186.344L531.103 183.875Z" fill="#F7941E"/>
<path d="M527.549 195.77C527.838 192.683 528.043 189.555 528.482 186.481C528.49 186.46 528.504 186.442 528.523 186.43C528.541 186.417 528.563 186.41 528.585 186.41C528.608 186.41 528.63 186.417 528.648 186.43C528.666 186.442 528.68 186.46 528.688 186.481C529.223 189.486 528.043 201.285 527.975 204.125C528.304 203.81 535.041 197.746 535.109 197.842C536.166 199.584 539.705 207.446 539.952 208.228C542.463 204.317 553.082 188.924 556.019 185.247C556.036 185.231 556.058 185.222 556.081 185.22C556.105 185.218 556.128 185.224 556.148 185.236C556.168 185.248 556.183 185.267 556.192 185.288C556.201 185.31 556.203 185.334 556.197 185.356C553.96 189.472 540.24 209.819 540.048 209.764C538.169 206.018 536.488 202.176 535.013 198.253C533.861 199.625 527.028 206.485 527.014 205.978C527.013 202.568 527.192 199.161 527.549 195.77Z" fill="#263238"/>
<path d="M468.362 267.045H412.645L402.121 188.196H457.825L468.362 267.045Z" fill="#A6A6A6"/>
<path d="M465.617 267.045H409.914L399.377 188.196H455.094L465.617 267.045Z" fill="#DBDBDB"/>
<path d="M427.078 223.718C427.229 225.186 427.912 226.548 428.999 227.547C430.086 228.545 431.502 229.111 432.978 229.137C433.671 229.149 434.359 229.013 434.996 228.738C435.633 228.463 436.205 228.056 436.672 227.543C437.139 227.031 437.492 226.424 437.707 225.765C437.921 225.105 437.993 224.407 437.917 223.718C437.785 222.238 437.111 220.859 436.025 219.846C434.939 218.833 433.516 218.258 432.031 218.23C431.33 218.217 430.635 218.354 429.992 218.633C429.349 218.911 428.774 219.325 428.304 219.845C427.835 220.365 427.482 220.98 427.271 221.648C427.059 222.316 426.993 223.022 427.078 223.718Z" fill="white"/>
<path d="M568.6 205.827C571.22 242.528 564.758 267.8 558.296 270.503C540.872 277.802 487.899 281.863 475.756 280.573C471.009 280.079 474.138 240.717 479.241 240.785C491.891 241.128 538.237 241.512 538.841 241.238C542.779 239.386 542.957 227.148 552.067 200.997C559.407 179.896 567.53 190.817 568.6 205.827Z" fill="#AD6359"/>
<path d="M438.74 232.992C438.079 233.945 437.725 235.077 437.725 236.237C437.725 237.397 438.079 238.529 438.74 239.482C436.9 240.183 435.366 241.509 434.405 243.227C432.854 246.342 437.039 250.087 437.039 250.087C435.287 251.223 433.915 252.857 433.101 254.78C431.908 257.908 435.598 262.339 435.598 262.339C434.563 264.266 434.252 266.5 434.72 268.637C435.667 272.286 444.763 276.937 450.183 278.666C455.602 280.395 472.574 280.244 475.825 280.532L487.227 245.875C487.227 245.875 465.165 231.209 458.511 230.07C452.831 229.164 441.361 229.452 438.74 232.992Z" fill="#AD6359"/>
<path d="M439.097 239.002C445.298 238.576 451.28 240.017 457.344 241.128C457.481 241.128 457.44 241.361 457.344 241.334C451.335 240.168 445.161 240.209 439.11 239.29C439.079 239.282 439.051 239.264 439.031 239.239C439.011 239.214 438.999 239.183 438.997 239.151C438.996 239.119 439.004 239.087 439.022 239.06C439.04 239.033 439.066 239.013 439.097 239.002Z" fill="#263238"/>
<path d="M437.231 249.717C438.626 249.761 440.01 249.987 441.347 250.389C442.815 250.732 444.269 251.103 445.724 251.487C448.619 252.269 451.513 253.119 454.367 254.052C454.384 254.046 454.402 254.044 454.419 254.046C454.437 254.049 454.454 254.055 454.468 254.065C454.483 254.075 454.494 254.089 454.503 254.105C454.511 254.12 454.515 254.138 454.515 254.155C454.515 254.173 454.511 254.19 454.503 254.206C454.494 254.222 454.483 254.235 454.468 254.245C454.454 254.256 454.437 254.262 454.419 254.264C454.402 254.266 454.384 254.264 454.367 254.258C451.472 253.49 448.564 252.749 445.641 252.104C444.173 251.775 442.705 251.473 441.237 251.171C439.83 250.972 438.45 250.618 437.121 250.115C437.068 250.1 437.024 250.065 436.997 250.018C436.97 249.97 436.963 249.914 436.977 249.861C436.992 249.808 437.027 249.763 437.074 249.736C437.122 249.709 437.178 249.702 437.231 249.717Z" fill="#263238"/>
<path d="M435.653 262.408C436.934 262.46 438.197 262.734 439.385 263.217L443.336 264.342C445.984 265.083 448.618 265.81 451.28 266.455C451.417 266.455 451.376 266.702 451.28 266.661C448.536 266.03 445.792 265.426 443.158 264.754C441.786 264.438 440.496 264.095 439.165 263.752C437.931 263.56 436.741 263.146 435.653 262.531C435.653 262.531 435.584 262.408 435.653 262.408Z" fill="#263238"/>
<path d="M484.208 238.919V283.098L487.72 282.919C488.05 282.919 488.406 282.919 488.777 282.919H489.957L492.811 282.768C492.989 282.768 493.167 282.768 493.359 282.768L497.393 282.508H498.449L502.483 282.233H503.032L507.066 281.918L508.122 281.835L512.156 281.492H512.705L516.738 281.122L517.795 281.012L521.828 280.587H522.377C523.749 280.45 525.121 280.285 526.411 280.134L527.467 280.011L531.501 279.489L532.036 279.064L533.998 278.79L536.07 278.488L537.126 278.323L537.51 278.255C538.759 278.062 539.966 277.857 541.16 277.637L541.709 277.541C543.081 277.294 544.453 277.033 545.742 276.759L546.799 276.526C548.171 276.21 549.543 275.895 550.832 275.552L551.381 275.401C552.781 275.017 554.057 274.619 555.209 274.207L555.415 274.139L556.471 273.727C556.91 273.535 557.336 273.356 557.72 273.164C558.708 272.72 559.631 272.143 560.464 271.449L560.601 271.326L561.013 270.901C561.529 270.353 561.988 269.756 562.385 269.117C562.494 268.952 562.59 268.774 562.7 268.582C563.434 267.287 564.058 265.933 564.566 264.535L564.937 263.492L565.06 263.108C565.43 262.01 565.787 260.83 566.116 259.582V259.444L566.24 258.909C566.583 257.62 566.885 256.261 567.187 254.793C567.187 254.45 567.324 254.107 567.379 253.751C567.653 252.447 567.886 251.089 568.106 249.703C568.106 249.525 568.174 249.346 568.202 249.168C568.408 247.796 568.6 246.493 568.778 245.121C568.778 244.778 568.874 244.421 568.915 244.078C569.08 242.706 569.245 241.334 569.382 240.031C569.382 239.852 569.382 239.674 569.382 239.496C569.519 238.124 569.643 236.752 569.752 235.448L569.835 234.405C569.917 233.363 569.986 232.32 570.054 231.277C570.054 230.975 570.054 230.674 570.054 230.358V229.823C570.136 228.451 570.191 227.079 570.246 225.776C570.246 225.419 570.246 225.062 570.246 224.719C570.246 223.347 570.329 221.975 570.356 220.685V220.15C570.356 218.778 570.356 217.406 570.356 216.103V215.046C570.356 213.674 570.356 212.302 570.274 211.013C570.274 210.821 570.274 210.642 570.274 210.464C570.274 209.092 570.178 207.72 570.095 206.43C570.095 206.074 570.095 205.717 570.095 205.374C570.095 204.715 569.999 204.098 569.944 203.494C569.889 202.891 569.793 202.012 569.711 201.34C569.711 201.148 569.711 200.97 569.711 200.791C569.588 199.845 569.437 198.994 569.286 198.253C569.176 197.732 569.066 197.238 568.929 196.758C568.792 196.278 568.723 196.044 568.614 195.701C568.178 194.276 567.545 192.918 566.734 191.668L566.322 191.119L565.979 190.707C565.665 190.335 565.311 189.999 564.923 189.706C564.37 189.239 563.725 188.893 563.031 188.69C562.336 188.487 561.607 188.431 560.889 188.526L560.34 188.635C558.801 189.077 557.414 189.936 556.334 191.119C556.169 191.283 556.005 191.448 555.84 191.64C555.676 191.832 555.456 192.065 555.278 192.299C554.429 193.355 553.676 194.484 553.028 195.674L552.451 196.73C552.04 197.54 551.642 198.404 551.244 199.337C551.066 199.776 550.874 200.229 550.695 200.709L550.489 201.258C550.092 202.342 549.694 203.494 549.323 204.715C549.323 204.907 549.2 205.099 549.145 205.292C549.09 205.484 548.939 205.991 548.816 206.348L547.594 210.382L547.43 210.93C547.183 211.767 546.936 212.591 546.689 213.386C546.524 213.921 546.36 214.443 546.209 214.964C546.058 215.486 545.989 215.678 545.893 216.021C545.797 216.364 545.715 216.569 545.633 216.844L544.645 220.068C544.645 220.246 544.521 220.425 544.466 220.603C544.041 221.975 543.616 223.347 543.218 224.637C543.094 224.993 542.985 225.35 542.889 225.693C542.436 227.065 542.01 228.437 541.599 229.658C541.599 229.658 541.599 229.658 541.599 229.741C541.599 229.823 541.489 230.097 541.42 230.276L541.077 231.291C540.707 232.402 540.35 233.404 540.021 234.323L539.623 235.366C539.137 236.767 538.526 238.121 537.798 239.413C537.676 239.606 537.533 239.785 537.373 239.948C537.282 240.033 537.167 240.086 537.044 240.099H535.987L531.954 240.017H531.405H529.621H527.371H526.315L522.281 239.921H521.732L517.699 239.825H516.642L512.608 239.729H512.06L508.026 239.633H506.97L502.936 239.523H502.387L498.353 239.413H497.297L493.263 239.317H492.714L488.681 239.207H487.624L484.208 238.919Z" fill="#F7941E"/>
<path opacity="0.2" d="M570.191 203.604V231.318C570.191 231.017 570.191 230.715 570.191 230.399V229.864C570.274 228.492 570.329 227.12 570.383 225.817C570.383 225.46 570.383 225.103 570.383 224.76C570.383 223.388 570.466 222.016 570.493 220.727V220.191C570.493 218.819 570.493 217.447 570.493 216.144V215.088C570.493 213.716 570.493 212.344 570.411 211.054C570.411 210.862 570.411 210.684 570.411 210.505C570.411 209.133 570.315 207.761 570.233 206.471C570.233 206.115 570.233 205.758 570.233 205.415C570.301 204.756 570.246 204.139 570.191 203.604ZM561.068 188.512V270.832L560.656 271.257L560.519 271.381V188.677L561.068 188.512ZM566.158 190.693V259.499C565.828 260.748 565.472 261.928 565.101 263.025V189.747C565.489 190.04 565.844 190.376 566.158 190.748V190.693ZM555.991 191.654C556.156 191.462 556.32 191.297 556.485 191.133V273.645L555.429 274.056V192.367C555.607 192.134 555.799 191.915 555.991 191.709V191.654ZM551.395 199.351V275.318L550.846 275.469V200.764C551.025 200.297 551.244 199.845 551.395 199.406V199.351ZM541.517 230.344C541.585 230.166 541.64 229.988 541.695 229.809C541.75 229.631 541.695 229.809 541.695 229.727V277.459L541.146 277.555V231.414L541.517 230.344ZM546.017 216.089C546.113 215.746 546.223 215.389 546.332 215.033C546.442 214.676 546.648 213.99 546.813 213.455V276.443L545.756 276.677V216.144L546.017 216.089ZM537.14 240.168V278.241L536.083 278.405V240.209L537.14 240.168ZM532.05 240.017V279.064L531.501 279.146V240.072L532.05 240.017ZM522.446 239.839V280.162H521.897V239.88L522.446 239.839ZM527.536 239.962V279.585L526.479 279.709V239.921L527.536 239.962ZM517.932 239.729V280.642L516.875 280.752V239.756L517.932 239.729ZM512.842 239.605V281.122H512.293V239.646L512.842 239.605ZM503.238 239.358V281.89H502.689V239.399L503.238 239.358ZM507.807 239.482H508.328V281.52L507.271 281.602V239.523L507.807 239.482ZM498.655 239.235V282.233H497.599V239.276L498.655 239.235ZM493.565 239.111V282.563C493.373 282.563 493.195 282.563 493.016 282.563V239.153L493.565 239.111ZM488.983 238.988V282.81C488.612 282.81 488.256 282.81 487.926 282.81V238.906L488.983 238.988ZM537.524 278.227L537.14 278.296L536.083 278.46L534.012 278.762H484.208V278.227H537.524ZM489.957 282.81H488.777C488.406 282.81 488.05 282.81 487.72 282.81L484.208 282.988V282.7L489.957 282.81ZM557.734 273.137C557.349 273.329 556.924 273.507 556.485 273.699L555.429 274.111L555.223 274.18H484.208V273.137H557.734ZM562.741 268.554C562.632 268.747 562.536 268.925 562.426 269.09H484.222V268.554H562.741ZM566.322 258.95L566.199 259.486H484.208V258.95H566.322ZM564.95 263.533L564.58 264.576H484.181V263.533H564.95ZM567.434 253.86C567.434 254.217 567.31 254.56 567.242 254.903H484.181V253.86H567.434ZM568.257 249.278C568.257 249.456 568.257 249.635 568.161 249.813H484.181V249.278H568.257ZM569.492 239.605C569.492 239.784 569.492 239.962 569.492 240.14H537.524C537.684 239.977 537.827 239.798 537.949 239.605H569.492ZM508.095 239.605L512.128 239.701H512.677L516.711 239.797H517.767L521.801 239.893H522.432L526.466 239.989H527.522H529.772H484.263V239.454L508.095 239.605ZM568.97 244.188C568.97 244.531 568.888 244.887 568.833 245.23H484.181V244.188H568.97ZM540.09 234.584H569.972L569.89 235.626H539.706L540.09 234.584ZM541.64 229.864H570.287V230.399H541.558C541.64 230.221 541.64 230.042 541.64 229.864ZM544.713 220.191H570.644V220.727H544.576C544.645 220.548 544.7 220.37 544.768 220.191H544.713ZM543.341 224.76H570.534C570.534 225.103 570.534 225.46 570.534 225.817H543.094C543.108 225.474 543.218 225.117 543.341 224.76ZM546.332 215.088H570.685V216.144H545.989C546.113 215.801 546.223 215.444 546.332 215.088ZM547.704 210.505H570.589C570.589 210.684 570.589 210.862 570.589 211.054H547.54L547.704 210.505ZM550.805 200.901H569.876C569.876 201.08 569.876 201.258 569.876 201.45H550.531L550.805 200.901ZM549.255 205.484H570.342C570.342 205.827 570.342 206.183 570.342 206.54H548.871C549.063 206.115 549.159 205.772 549.268 205.415L549.255 205.484ZM553.165 195.88H568.792C568.902 196.223 569.011 196.579 569.108 196.936H552.644L553.165 195.88ZM556.485 191.256H566.501L566.912 191.805H555.936C556.156 191.517 556.32 191.352 556.485 191.256Z" fill="white"/>
<path d="M483.92 238.933C483.884 238.863 483.867 238.786 483.871 238.708C483.874 238.629 483.898 238.553 483.939 238.487C483.981 238.421 484.039 238.366 484.107 238.329C484.176 238.292 484.253 238.273 484.331 238.274C491.274 238.192 498.257 238.563 505.2 238.741C512.142 238.919 519.112 239.056 526.068 239.29C529.978 239.427 537.496 239.77 537.565 239.66C537.634 239.55 539.733 233.02 540.186 231.661C541.064 229.013 541.983 226.379 542.93 223.731C543.19 222.963 543.465 222.195 543.739 221.44C543.821 220.919 543.917 220.397 543.972 219.89C544.027 219.382 544.137 218.518 544.219 217.749C544.377 216.334 544.61 214.928 544.919 213.537C544.931 213.514 544.951 213.496 544.975 213.486C544.999 213.476 545.026 213.475 545.051 213.483C545.076 213.492 545.097 213.509 545.111 213.531C545.124 213.553 545.129 213.58 545.125 213.606C544.842 215.052 544.695 216.522 544.686 217.996L544.603 219.053C545.975 215.403 546.305 214.758 547.471 211.068C547.465 211.051 547.463 211.033 547.465 211.016C547.467 210.998 547.474 210.981 547.484 210.967C547.494 210.952 547.507 210.94 547.523 210.932C547.539 210.924 547.556 210.92 547.574 210.92C547.592 210.92 547.609 210.924 547.625 210.932C547.64 210.94 547.654 210.952 547.664 210.967C547.674 210.981 547.68 210.998 547.683 211.016C547.685 211.033 547.683 211.051 547.677 211.068C546.305 216.405 545.564 218.696 543.89 223.964C543.039 226.626 542.202 229.288 541.311 231.95C540.872 233.239 538.868 239.276 538.224 240.483C538.141 240.634 531.089 240.236 527.618 240.182C524.147 240.127 520.662 240.072 517.177 239.989L496.309 239.468C492.454 239.372 488.571 239.372 484.716 239.153C484.716 239.605 484.373 241.897 484.4 242.047C484.428 242.198 484.181 242.226 484.194 242.047C484.208 241.869 483.906 238.974 483.92 238.933Z" fill="#263238"/>
<path d="M492.015 242.445C492.015 242.336 492.207 242.294 492.234 242.445C492.673 245.505 492.742 248.633 492.92 251.72C493.099 254.807 493.236 258.114 493.346 261.324C493.551 267.704 493.867 274.111 493.689 280.532C493.689 280.587 493.667 280.639 493.628 280.678C493.59 280.716 493.537 280.738 493.483 280.738C493.428 280.738 493.376 280.716 493.337 280.678C493.299 280.639 493.277 280.587 493.277 280.532C492.646 274.235 492.495 267.855 492.262 261.53C492.143 258.402 492.051 255.264 491.987 252.118C491.946 248.88 491.782 245.615 492.015 242.445Z" fill="#263238"/>
<path d="M483.865 265.097V263.725C483.865 263.506 483.865 263.272 483.865 263.053C483.834 262.955 483.834 262.849 483.865 262.751C483.865 262.627 483.865 262.504 483.865 262.367H483.975C483.975 262.504 483.975 262.627 483.975 262.751C483.975 262.751 483.975 262.833 483.975 262.847C484.098 266.153 484.455 269.46 484.606 272.767C484.757 276.073 484.812 279.421 484.784 282.768C488.557 282.453 492.385 282.494 496.172 282.302C499.959 282.11 504.02 281.822 507.944 281.506C515.805 280.875 523.653 280.134 531.473 279.023L537.99 278.104C540.199 277.788 542.504 277.623 544.672 277.102C544.809 277.102 544.864 277.294 544.672 277.322C542.683 277.569 540.707 278.117 538.731 278.474C536.756 278.831 534.862 279.16 532.914 279.462C529.036 280.084 525.144 280.633 521.238 281.108C513.445 282.078 505.625 282.759 497.777 283.153L491.041 283.441C488.832 283.509 486.595 283.646 484.386 283.537C484.292 283.531 484.204 283.492 484.136 283.426C484.068 283.361 484.025 283.274 484.016 283.18C484.016 279.709 483.838 276.238 483.796 272.767C483.796 271.065 483.796 269.364 483.796 267.663C483.824 266.798 483.838 265.948 483.865 265.097Z" fill="#263238"/>
<path d="M402.409 210.889C398.911 215.389 390.816 220.301 389.417 224.294C389.038 225.268 388.983 226.339 389.26 227.347C389.537 228.355 390.13 229.247 390.953 229.892C390.953 229.892 386.398 231.03 385.726 234.858C385.383 236.834 388.237 239.125 388.237 239.125C387.221 239.438 386.311 240.025 385.607 240.822C384.903 241.618 384.431 242.593 384.244 243.639C383.942 246.383 386.837 248.263 386.837 248.263C386.837 248.263 383.86 250.897 384.45 253.751C385.63 259.623 408.789 264.727 414.25 256.989C416.802 253.38 411.08 252.447 411.08 252.447C411.08 252.447 419.628 251.802 420.808 247.055C421.988 242.308 414.469 241.567 414.469 241.567C414.469 241.567 422.77 240.881 423.483 235.832C424.197 230.783 416.623 231.085 416.623 231.085C416.623 231.085 422.537 228.739 422.207 224.747C421.659 218.161 408.734 223.772 403.905 221.44L402.409 210.889Z" fill="#AD6359"/>
<path d="M388.113 239.139C388.031 239.139 387.976 239.262 388.113 239.303C396.4 243.308 405.847 244.213 414.744 241.855C415.046 241.773 415.238 241.375 414.867 241.457C408.721 242.775 395.44 241.43 388.113 239.139Z" fill="#263238"/>
<path d="M417.186 230.715C408.474 232.937 399.912 232.087 391.241 230.056C391.132 230.056 391.104 230.18 391.241 230.235C395.193 232.416 400.845 233.157 405.318 233.376C409.453 233.656 413.589 232.842 417.309 231.017C417.419 230.948 417.378 230.674 417.186 230.715Z" fill="#263238"/>
<path d="M239.731 390.649C240.884 393.749 297.355 463.955 301.197 465.272C302.651 465.779 313.353 458.151 326.03 448.561C328.774 446.489 331.518 444.335 334.427 442.14C352.908 427.857 372.184 412.271 372.184 412.271L334.55 365.198L297.822 396.37L289.755 403.23C289.755 403.23 256.113 386.025 251.736 385.037C247.36 384.049 238.579 387.534 239.731 390.649Z" fill="#AD6359"/>
<path d="M239.731 390.649C240.884 393.749 297.355 463.955 301.197 465.272C302.981 465.876 318.402 454.488 334.427 442.14L297.822 396.37L289.754 403.23C289.754 403.23 256.113 386.025 251.736 385.037C247.36 384.049 238.579 387.534 239.731 390.649Z" fill="white"/>
<path d="M239.731 390.649C240.884 393.749 297.355 463.955 301.197 465.272C302.651 465.779 313.353 458.151 326.03 448.561L289.755 403.203C289.755 403.203 256.113 385.998 251.736 385.01C247.36 384.022 238.579 387.534 239.731 390.649Z" fill="#F7941E"/>
<path d="M243.34 389.386C253.108 400.925 291.36 448.382 300.127 460.511C300.127 460.607 300.127 460.662 300.058 460.511C290.139 449.302 252.258 401.515 243.148 389.496C242.956 389.29 243.134 389.153 243.34 389.386Z" fill="#263238"/>
<path d="M257.897 387.452C258.976 388.734 259.778 390.227 260.25 391.835C260.722 393.444 260.856 395.133 260.641 396.795C260.304 399.789 258.83 402.539 256.525 404.479C256.456 404.479 256.346 404.41 256.415 404.341C258.427 402.069 259.649 399.205 259.896 396.18C260.144 393.155 259.403 390.131 257.787 387.562C257.785 387.547 257.786 387.532 257.791 387.517C257.795 387.503 257.803 387.49 257.814 387.479C257.825 387.468 257.838 387.46 257.852 387.456C257.867 387.451 257.882 387.45 257.897 387.452Z" fill="#263238"/>
<path d="M284.911 399.58C288.767 404.232 291.497 411.037 290.001 417.06C290.001 417.293 289.604 417.211 289.562 417.06C288.411 411.207 286.636 405.494 284.266 400.019C284.208 399.934 284.186 399.829 284.206 399.727C284.225 399.626 284.284 399.536 284.369 399.478C284.455 399.419 284.56 399.397 284.662 399.417C284.763 399.436 284.853 399.495 284.911 399.58Z" fill="#263238"/>
<path d="M280.562 397.056C284.417 401.707 287.148 408.512 285.652 414.535C285.652 414.768 285.268 414.686 285.227 414.535C284.071 408.682 282.291 402.969 279.917 397.495C279.859 397.41 279.837 397.304 279.857 397.203C279.876 397.101 279.935 397.011 280.02 396.953C280.106 396.895 280.211 396.873 280.313 396.892C280.414 396.912 280.504 396.97 280.562 397.056Z" fill="#263238"/>
<path d="M276.227 394.586C280.082 399.237 282.812 406.043 281.317 412.066C281.248 412.299 280.919 412.217 280.878 412.066C279.727 406.213 277.951 400.5 275.582 395.025C275.524 394.94 275.502 394.835 275.521 394.733C275.54 394.632 275.599 394.542 275.685 394.483C275.77 394.425 275.875 394.403 275.977 394.423C276.079 394.442 276.169 394.501 276.227 394.586Z" fill="#263238"/>
<path d="M271.877 392.089C275.733 396.754 278.463 403.546 276.968 409.569C276.968 409.802 276.583 409.72 276.542 409.569C275.385 403.716 273.605 398.003 271.233 392.528C271.174 392.443 271.152 392.338 271.172 392.236C271.191 392.134 271.25 392.045 271.335 391.986C271.421 391.928 271.526 391.906 271.628 391.926C271.729 391.945 271.819 392.004 271.877 392.089Z" fill="#263238"/>
<path d="M308.894 448.52C313.133 453.816 304.901 460.415 300.662 455.105C296.423 449.796 304.655 443.224 308.894 448.52Z" fill="#263238"/>
<path d="M293.308 384.379C297.205 385.174 297.685 389.729 296.82 392.844C295.231 398.175 292.264 402.993 288.218 406.811C288.204 406.831 288.186 406.847 288.164 406.858C288.143 406.869 288.119 406.875 288.095 406.875C288.07 406.875 288.046 406.869 288.025 406.858C288.003 406.847 287.985 406.831 287.971 406.811C287.866 406.864 287.751 406.892 287.633 406.892C287.516 406.892 287.4 406.864 287.295 406.811C287.191 406.757 287.101 406.679 287.032 406.584C286.963 406.489 286.918 406.378 286.901 406.262C286.53 401.048 285.529 395.519 286.709 390.333C287.505 387.287 289.7 383.624 293.308 384.379ZM287.957 398.208C288.081 400.774 288.328 403.326 288.355 405.905C290.105 403.244 291.722 400.496 293.198 397.673C293.889 396.293 294.485 394.867 294.982 393.406C295.723 391.129 295.942 383.336 290.441 386.986C287.477 388.961 287.82 395.149 288.026 398.208H287.957Z" fill="#263238"/>
<path d="M295.956 419.927C292.032 416.333 289.796 411.16 287.175 406.633C287.124 406.528 287.099 406.412 287.102 406.295C287.104 406.178 287.135 406.063 287.192 405.961C287.249 405.859 287.329 405.772 287.426 405.707C287.524 405.642 287.635 405.602 287.752 405.59C287.749 405.565 287.752 405.539 287.761 405.515C287.77 405.492 287.785 405.47 287.803 405.453C287.822 405.436 287.844 405.423 287.869 405.416C287.893 405.409 287.919 405.407 287.944 405.411C293.44 406.297 298.604 408.621 302.912 412.148C305.382 414.233 307.536 418.281 304.764 421.121C301.993 423.961 298.247 422.026 295.956 419.927ZM300.923 420.613C307.536 420.545 302.981 414.22 301.087 412.752C299.854 411.816 298.557 410.968 297.205 410.213C294.461 408.608 291.47 407.469 288.561 406.097C289.933 408.238 291.209 410.488 292.554 412.683C294.145 415.304 297.287 420.641 300.923 420.613Z" fill="#263238"/>
<path d="M299.784 389.263L338.954 442.112L471.133 350.408L483.879 341.559C483.879 341.559 487.487 343.987 492.92 347.047C500.466 351.163 511.525 356.5 521.307 357.94C537.771 360.369 565.115 360.108 578.931 341.613C590.579 326.041 582.622 297.833 582.622 297.833L563.414 295.706C563.414 295.706 523.626 262.463 495.939 261.406C484.208 260.94 467.127 269.83 451.308 279.119C435.488 288.407 299.784 389.263 299.784 389.263Z" fill="#455A64"/>
<path d="M483.879 341.545C483.879 341.545 487.487 343.973 492.92 347.033C502.524 335.536 522.857 314.654 523.475 313.913L483.879 341.545Z" fill="#263238"/>
<path d="M550.627 286.034C553.179 287.79 555.635 289.683 558.159 291.522C560.683 293.36 563.181 294.993 565.527 296.941C567.873 298.889 570.191 301.057 572.387 303.184C573.471 304.213 574.554 305.255 575.597 306.312C576.703 307.346 577.73 308.46 578.67 309.646C578.753 309.756 578.588 309.893 578.478 309.824C577.289 308.975 576.148 308.059 575.062 307.08C573.868 306.079 572.702 305.05 571.509 304.048C569.217 302.1 566.885 300.207 564.649 298.245C562.412 296.283 560.272 294.129 558.022 292.221C555.772 290.314 553.083 288.106 550.572 286.157C550.531 286.075 550.572 285.993 550.627 286.034Z" fill="#263238"/>
<path d="M308.976 387.37C311.528 390.114 313.874 393.064 316.248 395.958C318.621 398.853 320.995 401.789 323.341 404.725C328.033 410.584 332.78 416.429 337.39 422.356C339.929 425.621 342.426 428.9 344.785 432.289C344.811 432.322 344.822 432.363 344.817 432.404C344.812 432.446 344.791 432.483 344.758 432.508C344.725 432.534 344.684 432.545 344.643 432.54C344.601 432.535 344.564 432.514 344.538 432.481C339.476 426.924 334.934 420.997 330.174 415.139C325.413 409.281 320.789 403.367 316.193 397.426C313.668 394.175 311.062 390.937 308.743 387.534C308.734 387.504 308.735 387.472 308.745 387.442C308.756 387.413 308.775 387.387 308.801 387.369C308.826 387.351 308.857 387.341 308.889 387.341C308.92 387.341 308.951 387.351 308.976 387.37Z" fill="#263238"/>
<path d="M413.934 304.844C418.585 299.452 438.534 285.307 451.28 278.982C451.304 278.975 451.33 278.978 451.353 278.988C451.376 278.998 451.395 279.016 451.406 279.039C451.417 279.061 451.42 279.087 451.415 279.112C451.409 279.136 451.396 279.158 451.376 279.174C438.671 287.337 417.735 302.813 414.126 305.118C413.962 305.214 413.811 304.981 413.934 304.844Z" fill="#263238"/>
<path d="M469.061 159.618L465.535 166.752L457.674 167.891L463.367 173.447L462.023 181.282L469.061 177.577L476.086 181.282L474.755 173.447L480.449 167.891L472.573 166.752L469.061 159.618Z" fill="#FFC100"/>
<path d="M442.938 136.76L440.4 142.111L434.734 142.962L438.836 147.119L437.862 152.991L442.938 150.219L448.028 152.991L447.054 147.119L451.156 142.962L445.476 142.111L442.938 136.76Z" fill="#F7941E"/>
<path d="M463.244 103.393L461.639 106.645L458.058 107.166L460.651 109.691L460.033 113.272L463.244 111.584L466.454 113.272L465.837 109.691L468.43 107.166L464.849 106.645L463.244 103.393Z" fill="#FFC100"/>
<path d="M442.938 84.2949L441.731 86.7645L439.001 87.1486L440.976 89.0694L440.51 91.786L442.938 90.4963L445.38 91.786L444.914 89.0694L446.89 87.1486L444.159 86.7645L442.938 84.2949Z" fill="#FFC100"/>
<path d="M176.276 346.004C176.276 346.004 144.72 338.869 127.515 322.968C110.311 307.067 100.611 278.57 100.611 278.57C112.578 280.861 124.377 283.959 135.926 287.845C138.752 290.863 144.158 297.078 146.614 302.937C146.912 299.345 146.94 295.735 146.696 292.139C150.734 293.9 154.51 296.209 157.919 298.999C172.229 311.484 176.276 346.004 176.276 346.004Z" fill="#F7941E"/>
<path d="M120.271 292.414C115.977 289.45 111.614 286.583 107.333 283.578C107.29 283.539 107.261 283.486 107.253 283.428C107.245 283.37 107.258 283.311 107.289 283.262C107.32 283.212 107.368 283.176 107.424 283.158C107.48 283.141 107.54 283.144 107.594 283.166C115.716 288.009 123.715 293.196 131.453 298.615C134.197 300.508 136.804 302.47 139.424 304.487L138.876 303.554C137.929 301.963 136.927 300.412 135.939 298.862C133.958 295.709 131.719 292.726 129.244 289.944C129.162 289.834 129.313 289.683 129.409 289.793C131.851 292.619 134.307 295.418 136.543 298.423C137.613 299.795 138.587 301.318 139.534 302.827C140.028 303.623 140.495 304.405 140.906 305.214L141.386 306.024C145.502 309.221 149.412 312.555 153.199 316.081C155.541 318.258 157.795 320.512 159.963 322.845C158.756 319.03 157.686 315.175 156.272 311.43C156.266 311.413 156.264 311.395 156.266 311.378C156.269 311.36 156.275 311.343 156.285 311.329C156.295 311.314 156.309 311.302 156.325 311.294C156.34 311.286 156.358 311.282 156.375 311.282C156.393 311.282 156.411 311.286 156.426 311.294C156.442 311.302 156.455 311.314 156.465 311.329C156.476 311.343 156.482 311.36 156.484 311.378C156.486 311.395 156.484 311.413 156.478 311.43C157.85 315.367 159.36 319.319 160.416 323.366C162.831 325.973 165.136 328.662 167.276 331.474C167.276 331.31 167.207 331.131 167.166 330.967C166.809 329.485 166.439 328.003 166.041 326.522C165.273 323.681 164.436 320.841 163.475 318.056C161.662 312.253 158.792 306.834 155.01 302.072C154.928 301.976 155.079 301.826 155.175 301.935C161.321 309.207 164.93 317.946 167.235 327.111C167.564 328.483 167.893 329.855 168.195 331.145C168.36 331.872 168.538 332.599 168.662 333.327C169.622 334.616 170.555 335.92 171.406 337.251C176.765 345.439 181.231 354.178 184.728 363.319C188.663 373.618 192.034 384.125 194.826 394.792C194.826 394.998 194.565 395.067 194.496 394.792C188.336 376.366 182.052 357.748 171.502 341.202C169.275 337.731 166.876 334.375 164.312 331.145C159.097 330.806 153.949 329.782 149.001 328.099C143.592 326.279 138.434 323.785 133.648 320.677C130.923 318.839 128.299 316.856 125.787 314.736C125.772 314.728 125.759 314.718 125.749 314.705C125.74 314.692 125.733 314.676 125.729 314.66C125.726 314.644 125.727 314.628 125.731 314.612C125.735 314.596 125.742 314.581 125.753 314.568C125.763 314.556 125.776 314.545 125.791 314.539C125.806 314.532 125.823 314.528 125.839 314.529C125.855 314.529 125.872 314.533 125.886 314.54C125.901 314.548 125.914 314.558 125.924 314.571C130.319 318.122 135.174 321.062 140.357 323.311C145.447 325.65 150.774 327.435 156.245 328.634C158.564 329.142 160.924 329.526 163.283 329.842C160.373 326.248 157.273 322.813 153.995 319.552C152.939 318.495 151.841 317.48 150.743 316.451C147.072 313.879 143.173 311.647 139.095 309.783C133.936 307.286 128.86 304.638 123.756 302.045C120.875 300.577 118.007 299.082 115.099 297.668C114.975 297.6 115.099 297.421 115.222 297.476C120.395 299.987 125.649 302.319 130.877 304.707C135.789 306.957 140.769 309.221 145.489 311.869L146.079 312.225C141.812 308.521 137.394 304.981 132.88 301.565C128.819 298.478 124.552 295.391 120.271 292.414Z" fill="#263238"/>
<path d="M122.069 308.658C124.635 309.769 127.241 310.771 129.766 311.951C132.29 313.131 134.856 314.599 137.326 316.067C137.344 316.081 137.357 316.102 137.361 316.125C137.366 316.148 137.362 316.171 137.35 316.192C137.338 316.212 137.32 316.227 137.297 316.234C137.275 316.242 137.251 316.241 137.229 316.231C134.719 315.024 132.167 313.899 129.683 312.651C127.2 311.402 124.621 310.003 122 308.864C121.808 308.809 121.945 308.603 122.069 308.658Z" fill="#263238"/>
<path d="M278.573 187.305C272.757 194.811 269.463 203.964 269.161 213.455C269.065 216.281 269.504 220.219 269.833 224.843C258.089 231.113 249.253 242.404 249.253 242.404C255.921 238.398 265.086 236.779 270.025 237.438C269.863 240.601 269.459 243.747 268.818 246.849C266.636 246.726 262.424 247.014 255.468 249.484C259.602 249.444 263.699 250.262 267.501 251.885C261.889 269.721 245.206 288.092 199.134 295.885C199.134 295.885 190.243 264.603 207.284 231.044C221.127 203.878 278.573 187.305 278.573 187.305Z" fill="#F7941E"/>
<path d="M183.205 372.36C184.001 364.732 185.016 357.117 186.196 349.544C188.522 334.358 191.622 319.301 195.485 304.432C197.285 297.444 199.507 290.572 202.139 283.852C202.004 282.627 201.944 281.394 201.96 280.162C201.96 278.694 201.96 277.212 201.96 275.744C201.96 272.78 202.125 269.844 202.372 266.894C202.844 261.068 203.794 255.291 205.212 249.621C206.049 246.342 207.037 243.104 207.956 239.852C207.968 239.829 207.988 239.811 208.012 239.801C208.037 239.791 208.063 239.79 208.088 239.798C208.113 239.807 208.134 239.824 208.148 239.846C208.161 239.868 208.166 239.895 208.162 239.921C206.641 245.566 205.513 251.31 204.787 257.112C203.955 262.842 203.437 268.613 203.236 274.399C203.236 275.991 203.154 277.569 203.14 279.16C203.14 279.832 203.14 280.532 203.14 281.191C205.434 275.692 208.054 270.337 210.988 265.152C215.67 256.914 220.943 249.028 226.766 241.554C226.78 240.681 226.904 239.815 227.137 238.974C227.356 237.945 227.576 236.916 227.809 235.887C228.289 233.788 228.81 231.689 229.387 229.617C230.525 225.501 232.035 221.385 233.352 217.269C233.36 217.248 233.374 217.23 233.392 217.217C233.41 217.204 233.432 217.198 233.455 217.198C233.477 217.198 233.499 217.204 233.517 217.217C233.536 217.23 233.55 217.248 233.558 217.269C232.337 221.385 231.527 225.583 230.594 229.741C230.128 231.785 229.675 233.857 229.222 235.901L228.563 238.988V239.221C230.393 236.88 232.295 234.565 234.271 232.279C243.079 221.961 252.724 212.44 262.424 202.987C263.618 201.82 264.853 200.695 266.06 199.543C266.156 199.447 266.307 199.543 266.211 199.708C256.923 209.312 247.785 219.176 239.142 229.425C237.084 231.867 235.026 234.323 233.064 236.82L236.206 234.735C238.95 232.979 241.611 231.277 244.438 229.713C247.264 228.149 250.049 226.612 252.916 225.186C255.784 223.759 259.036 222.538 261.876 220.877C261.999 220.809 262.109 221.015 261.985 221.07C259.072 222.411 256.261 223.966 253.575 225.721C250.831 227.381 247.977 229.055 245.22 230.811C242.462 232.567 239.732 234.213 237.097 235.969C234.861 237.424 232.652 239.015 230.32 240.36C224.977 247.222 220.047 254.397 215.557 261.845C212.769 266.537 210.223 271.368 207.929 276.32L209.589 275.593L213.732 273.796C216.476 272.588 219.22 271.422 221.882 270.228C227.054 267.992 232.309 265.92 237.372 263.451C240.215 262.109 242.965 260.578 245.604 258.868C245.714 258.786 245.823 258.978 245.713 259.047C236.26 265.564 225.669 270.146 215.214 274.783L210.673 276.786C209.424 277.335 208.189 277.953 206.9 278.433C203.803 285.357 201.199 292.491 199.107 299.781C194.971 314.453 191.61 329.332 189.036 344.357C186.402 359.449 184.618 374.541 183.233 389.784C183.054 391.678 182.89 393.571 182.67 395.464C182.648 395.607 182.576 395.737 182.467 395.832C182.357 395.926 182.218 395.977 182.073 395.977C181.929 395.977 181.789 395.926 181.68 395.832C181.57 395.737 181.498 395.607 181.476 395.464C181.614 387.713 182.396 379.975 183.205 372.36Z" fill="#263238"/>
<path d="M211.235 245.052C212.086 240.374 213.334 235.791 214.597 231.209C214.597 231.071 214.83 231.126 214.802 231.209C213.636 235.709 212.799 240.305 211.949 244.929C211.098 249.552 210.33 254.258 209.671 258.95C209.671 259.033 209.534 259.033 209.548 258.95C209.849 254.29 210.412 249.65 211.235 245.052Z" fill="#263238"/>
<path d="M231.102 257.757C234.306 255.649 237.653 253.765 241.117 252.118C242.791 251.254 244.492 250.43 246.194 249.607C247.895 248.784 249.774 248.043 251.517 247.165C251.541 247.159 251.567 247.161 251.59 247.171C251.613 247.182 251.631 247.2 251.643 247.222C251.654 247.245 251.657 247.27 251.652 247.295C251.646 247.319 251.633 247.341 251.613 247.357C249.939 248.208 248.334 249.223 246.674 250.101L241.57 252.845C238.195 254.656 234.888 256.659 231.348 258.127C231.304 258.129 231.259 258.119 231.22 258.099C231.18 258.079 231.146 258.049 231.121 258.011C231.096 257.974 231.081 257.931 231.078 257.887C231.075 257.842 231.083 257.797 231.102 257.757Z" fill="#263238"/>
<path opacity="0.1" d="M175.7 291.412C175.7 291.412 146.559 284.456 133.168 264.905C120.381 246.232 116.251 214.415 115.922 211.616C116.457 214.182 122.467 241.993 142.306 254.944C157.48 264.919 172.188 273.082 175.7 291.412Z" fill="#263238"/>
<path d="M148.795 241.101C153.981 245.866 157.71 252.002 159.552 258.8C159.552 258.8 159.469 258.896 159.456 258.8C157.313 252.167 153.61 246.144 148.658 241.238C148.562 241.169 148.699 241.005 148.795 241.101Z" fill="#263238"/>
<path d="M175.7 291.412C175.7 291.412 146.559 284.456 133.168 264.905C120.381 246.232 116.252 214.415 115.922 211.616C115.916 211.548 115.916 211.479 115.922 211.411C115.922 211.411 129.889 231.277 144.583 236.354C159.278 241.43 179.912 258.978 175.7 291.412Z" fill="#FFC100"/>
<path d="M121.067 222.414C123.67 227.767 126.669 232.917 130.04 237.822C133.439 242.479 137.476 246.636 142.032 250.17C145.983 253.312 150.168 256.165 154.174 259.239L154.091 259.101C153.337 257.976 152.527 256.892 151.704 255.836C150.03 253.709 148.206 251.72 146.367 249.703C142.745 245.779 139.054 241.924 135.803 237.671C134.005 235.319 132.443 232.796 131.138 230.138C131.069 230.015 131.275 229.946 131.344 230.07C136.063 239.921 145.503 246.218 152.239 254.533C153.2 255.726 154.105 256.947 154.983 258.223C155.647 259.162 156.208 260.169 156.657 261.228C160.347 264.179 163.68 267.549 166.59 271.271C166.341 269.361 165.951 267.472 165.424 265.618C164.743 263.026 163.704 260.542 162.337 258.237C162.269 258.114 162.447 258.004 162.516 258.114C163.927 260.422 165.069 262.885 165.918 265.454C166.534 267.495 166.889 269.607 166.975 271.738C168.415 273.692 169.731 275.736 170.912 277.857C170.789 277.239 170.679 276.608 170.555 275.991C169.979 273.082 169.334 270.187 168.58 267.333C167.217 261.48 164.844 255.909 161.569 250.869C161.487 250.76 161.665 250.636 161.747 250.746C165.093 255.701 167.708 261.112 169.513 266.812C170.446 269.666 171.187 272.574 171.845 275.511C172.161 276.951 172.449 278.392 172.723 279.832C172.874 280.573 173.025 281.342 173.149 282.11C176.043 288.455 178.295 295.073 179.871 301.867C182.737 313.999 184.813 326.304 186.087 338.705C187.596 351.696 188.269 364.771 188.103 377.848C188.103 379.481 187.98 381.127 187.898 382.76C187.898 383.185 187.239 383.24 187.225 382.76C186.937 376.284 186.773 369.822 186.388 363.36C186.004 356.898 185.442 350.435 184.742 344.001C183.417 331.34 181.392 318.763 178.678 306.326C176.304 295.665 173.19 284.936 167.427 275.607C164.533 270.96 160.99 266.751 156.904 263.108C152.788 259.431 148.356 256.248 144.048 252.831C139.695 249.513 135.736 245.706 132.249 241.485C128.685 236.761 125.579 231.707 122.975 226.393C122.289 225.021 121.602 223.772 120.889 222.455C120.834 222.414 121.013 222.291 121.067 222.414Z" fill="#263238"/>
<path d="M126.102 226.681C128.01 230.608 130.178 234.403 132.592 238.041C132.592 238.124 132.523 238.206 132.455 238.124C129.955 234.522 127.762 230.717 125.896 226.75C125.842 226.626 126.047 226.558 126.102 226.681Z" fill="#263238"/>
<path d="M282.634 278.57C282.634 278.57 283.1 319.977 258.336 331.941C233.571 343.905 220.304 333.93 203.456 337.937C204.101 336.949 216.106 319.675 235.204 314.928C254.892 310.016 276.679 295.83 282.634 278.57Z" fill="#FFC100"/>
<path opacity="0.1" d="M282.634 278.57C282.634 278.57 283.1 319.977 258.336 331.941C233.571 343.905 220.304 333.93 203.456 337.937C212.339 333.7 221.836 330.894 231.595 329.622C247.264 327.729 277.105 317.562 282.634 278.57Z" fill="#263238"/>
<path d="M201.851 338.677C204.793 335.995 208.106 333.75 211.688 332.009C212.223 331.749 212.772 331.543 213.307 331.31C213.567 330.98 213.855 330.665 214.144 330.363C214.884 329.595 215.653 328.854 216.476 328.154C218.023 326.807 219.691 325.604 221.456 324.56C225.572 322.145 230.045 320.444 234.243 318.221C234.367 318.152 234.477 318.344 234.353 318.399C232.281 319.483 230.237 320.663 228.248 321.843C226.258 323.023 224.283 324.079 222.376 325.314C220.657 326.421 219.02 327.65 217.478 328.991C217.039 329.375 216.613 329.787 216.202 330.212C218.937 329.281 221.734 328.538 224.571 327.99C229.098 327.07 233.681 326.425 238.209 325.451C240.429 324.979 242.623 324.388 244.78 323.681C246.838 322.021 248.896 320.389 250.831 318.591C253.186 316.434 255.331 314.059 257.238 311.498C257.32 311.375 257.499 311.498 257.417 311.608C254.411 315.667 251.01 319.417 247.264 322.803C248.334 322.401 249.39 321.944 250.433 321.431C258.936 317.616 266.233 311.548 271.534 303.883C271.603 303.774 271.795 303.883 271.713 303.993C267.221 310.601 261.41 316.206 254.645 320.457C251.256 322.564 247.638 324.276 243.861 325.561C239.47 326.919 234.991 327.978 230.457 328.73C226.011 329.452 221.623 330.492 217.327 331.845C213.389 333.193 209.686 335.146 206.351 337.635C200.047 342.534 194.969 348.833 191.519 356.033C186.827 365.431 184.591 375.941 183.287 386.313C183.287 386.752 182.546 386.752 182.588 386.313C183.768 368.875 188.419 350.765 201.851 338.677Z" fill="#263238"/>
<path d="M230.58 325.177C231.873 323.242 233.621 321.655 235.67 320.553C238.021 319.335 240.084 317.627 241.721 315.545C241.803 315.436 241.995 315.545 241.913 315.655C240.425 317.554 238.614 319.175 236.562 320.444C234.311 321.635 232.327 323.274 230.731 325.259C230.663 325.355 230.512 325.273 230.58 325.177Z" fill="#263238"/>
<path d="M217.437 369.246L216.311 392.007L212.868 461.595H160.91L157.466 392.007L156.341 369.246H217.437Z" fill="#37474F"/>
<path d="M217.437 369.246L216.311 392.007H157.466L156.341 369.246H217.437Z" fill="#263238"/>
<path d="M221.086 381.456H152.692V359.738H221.086V381.456Z" fill="#37474F"/>
<path d="M226.423 126.929L229.253 108.579C229.263 108.494 229.287 108.414 229.324 108.342C229.362 108.27 229.41 108.208 229.468 108.16C229.525 108.112 229.59 108.079 229.659 108.063C229.727 108.048 229.798 108.049 229.866 108.068L244.884 111.542C244.953 111.558 245.019 111.59 245.078 111.637C245.137 111.684 245.188 111.745 245.228 111.816C245.267 111.887 245.295 111.966 245.31 112.05C245.325 112.134 245.326 112.221 245.313 112.306C245.3 112.39 245.274 112.471 245.236 112.543C245.197 112.614 245.148 112.676 245.09 112.725C245.032 112.774 244.967 112.808 244.898 112.825C244.829 112.843 244.758 112.844 244.689 112.828L230.926 109.623L253.388 149.868L273.341 133.266C273.455 133.171 273.596 133.134 273.732 133.164C273.869 133.194 273.99 133.289 274.07 133.427L295.155 171.218C295.205 171.287 295.243 171.367 295.265 171.454C295.288 171.541 295.295 171.633 295.286 171.723C295.278 171.814 295.254 171.901 295.215 171.98C295.177 172.058 295.125 172.125 295.064 172.177C295.003 172.229 294.933 172.265 294.86 172.281C294.787 172.298 294.711 172.295 294.639 172.274C294.566 172.252 294.498 172.212 294.439 172.156C294.38 172.1 294.332 172.029 294.297 171.948L273.49 134.707L253.557 151.308C253.438 151.399 253.296 151.433 253.158 151.404C253.019 151.374 252.895 151.282 252.808 151.147L230.047 110.352L227.476 127.17C227.463 127.254 227.436 127.335 227.398 127.407C227.36 127.479 227.31 127.541 227.253 127.589C227.195 127.638 227.129 127.672 227.061 127.689C226.992 127.707 226.921 127.708 226.852 127.692C226.783 127.677 226.717 127.644 226.658 127.597C226.599 127.55 226.548 127.49 226.508 127.419C226.469 127.348 226.44 127.268 226.426 127.184C226.411 127.1 226.41 127.013 226.423 126.929Z" fill="#EDC0A2"/>
</svg>
