<svg width="79" height="80" viewBox="0 0 79 80" fill="none" xmlns="http://www.w3.org/2000/svg">
<g clip-path="url(#clip0_117_1077)">
<path d="M11 61L14.0933 67.2375L21 68.2416L16.0358 73.1173L17.1865 80L10.9988 76.7024L4.81114 80L5.96188 73.1173L1 68.2416L7.90674 67.2375L11 61Z" fill="#FFAC46" stroke="#2A2A2A" stroke-linecap="round" stroke-linejoin="round"/>
<path d="M69 61L72.0933 67.2375L79 68.2416L74.0358 73.1173L75.1865 80L68.9988 76.7024L62.8111 80L63.9619 73.1173L59 68.2416L65.9067 67.2375L69 61Z" fill="#FFAC46" stroke="#2A2A2A" stroke-linecap="round" stroke-linejoin="round"/>
<path d="M38.9983 58L42.4132 64.9071L50 66.023L44.5014 71.3956L45.8236 79L39.0017 75.3724L32.1798 79L33.502 71.3956L28 66.023L35.5868 64.9071L38.9983 58Z" fill="#FFAC46" stroke="#2A2A2A" stroke-linecap="round" stroke-linejoin="round"/>
<path d="M38.5 1C45.9904 1 52 7.47586 52 15.4998C52 22.538 47.4055 28.3804 41.2565 29.7173C40.3514 29.9152 39.4266 30.0096 38.5 29.9985C37.3499 30.0179 36.2042 29.8516 35.1074 29.5062C29.311 27.9581 25 22.2568 25 15.4998C25 7.47586 31.0787 1 38.5 1Z" fill="white" stroke="#2A2A2A"/>
<path d="M64 43.5294C64 48.2485 53.0013 51.9957 39.4644 51.9957C33.9351 52.0632 28.4252 51.339 23.1077 49.846C18.1727 48.3198 15 46.0988 15 43.6007V43.3235C15.2816 38.7435 22.7559 30.4164 35.4467 30L38.2666 30.069L41.7922 30.138C54.7635 30.4831 64 39.0184 64 43.5294Z" fill="#233444" stroke="#2A2A2A"/>
</g>
<defs>
<clipPath id="clip0_117_1077">
<rect width="79" height="80" fill="white"/>
</clipPath>
</defs>
</svg>
