<svg width="110" height="80" viewBox="0 0 110 80" fill="none" xmlns="http://www.w3.org/2000/svg">
<g clip-path="url(#clip0_117_1042)">
<path d="M104.5 79H5.5C4.30754 78.9968 3.16487 78.5435 2.32167 77.739C1.47847 76.9345 1.0033 75.8443 1 74.7065V4.29348C1.0033 3.15575 1.47847 2.06552 2.32167 1.26102C3.16487 0.456521 4.30754 0.00315272 5.5 0H104.5C105.692 0.00315272 106.835 0.456521 107.678 1.26102C108.522 2.06552 108.997 3.15575 109 4.29348V74.7065C108.997 75.8443 108.522 76.9345 107.678 77.739C106.835 78.5435 105.692 78.9968 104.5 79Z" fill="white" stroke="#2A2A2A"/>
<path d="M98 17.5C98 17.5989 97.9707 17.6956 97.9157 17.7778C97.8607 17.8601 97.7826 17.9242 97.6912 17.962C97.5998 17.9998 97.4993 18.0097 97.4023 17.9904C97.3053 17.971 97.2162 17.9233 97.1462 17.8534C97.0763 17.7834 97.0288 17.6942 97.0095 17.5972C96.9903 17.5002 97.0003 17.3996 97.0382 17.3083C97.0761 17.2169 97.1403 17.1389 97.2226 17.084C97.3049 17.0291 97.4016 16.9999 97.5005 17C97.5662 17 97.6312 17.0129 97.6918 17.0381C97.7524 17.0632 97.8075 17.1 97.8539 17.1465C97.9003 17.1929 97.9371 17.248 97.9621 17.3087C97.9872 17.3694 98.0001 17.4344 98 17.5Z" fill="black" fill-opacity="0.7"/>
<path d="M88 54H94V66L91 62.6118L88 66V54Z" fill="white"/>
<path fill-rule="evenodd" clip-rule="evenodd" d="M87 54.2137C87 53.5434 87.5457 53 88.2188 53H94.7812C95.4543 53 96 53.5434 96 54.2137V65.7863C96 66.2772 95.7031 66.7197 95.2476 66.9076C94.7922 67.0954 94.268 66.9916 93.9194 66.6445L91.5 64.2351L89.0806 66.6445C88.732 66.9916 88.2078 67.0954 87.7524 66.9076C87.2969 66.7197 87 66.2772 87 65.7863V54.2137ZM91.5 62.5187L94.7812 65.7863V54.2137H88.2188V65.7863L91.5 62.5187Z" fill="#2A2A2A"/>
<path d="M98 54.5C98 57.5376 95.5376 60 92.5 60C89.4624 60 87 57.5376 87 54.5C87 51.4624 89.4624 49 92.5 49C95.5376 49 98 51.4624 98 54.5Z" fill="white"/>
<path fill-rule="evenodd" clip-rule="evenodd" d="M98 54.5C98 58.0754 95.1043 61 91.5 61C87.8957 61 85 58.0754 85 54.5C85 50.9246 87.8957 48 91.5 48C95.1043 48 98 50.9246 98 54.5ZM91.5 59.8032C94.422 59.8032 96.7907 57.4289 96.7907 54.5C96.7907 51.5711 94.422 49.1968 91.5 49.1968C88.578 49.1968 86.2093 51.5711 86.2093 54.5C86.2093 57.4289 88.578 59.8032 91.5 59.8032Z" fill="#2A2A2A"/>
<path fill-rule="evenodd" clip-rule="evenodd" d="M96 54C96 56.1948 94.2235 58 92 58C89.7765 58 88 56.1948 88 54C88 51.8052 89.7765 50 92 50C94.2235 50 96 51.8052 96 54ZM92 56.8117C93.547 56.8117 94.801 55.5529 94.801 54C94.801 52.4471 93.547 51.1883 92 51.1883C90.453 51.1883 89.199 52.4471 89.199 54C89.199 55.5529 90.453 56.8117 92 56.8117Z" fill="#2A2A2A"/>
<rect x="14" y="27" width="81" height="1" rx="0.5" fill="#F7941E"/>
<rect x="14" y="34" width="81" height="1" rx="0.5" fill="#F7941E"/>
<rect x="14" y="41" width="61" height="1" rx="0.5" fill="#F7941E"/>
<rect x="14" y="48" width="61" height="1" rx="0.5" fill="#F7941E"/>
<rect x="14" y="56" width="41" height="1" rx="0.5" fill="#F7941E"/>
<rect opacity="0.8" x="50" y="16" width="41" height="1" rx="0.5" fill="#2A2A2A"/>
</g>
<defs>
<clipPath id="clip0_117_1042">
<rect width="110" height="80" fill="white"/>
</clipPath>
</defs>
</svg>
