<svg width="40" height="40" viewBox="0 0 40 40" fill="none" xmlns="http://www.w3.org/2000/svg">
<path d="M18 7H6.33333C5.44928 7 4.60143 7.35119 3.97631 7.97631C3.35119 8.60143 3 9.44928 3 10.3333V33.6667C3 34.5507 3.35119 35.3986 3.97631 36.0237C4.60143 36.6488 5.44928 37 6.33333 37H29.6667C30.5507 37 31.3986 36.6488 32.0237 36.0237C32.6488 35.3986 33 34.5507 33 33.6667V22" stroke="black" stroke-width="2" stroke-linecap="round" stroke-linejoin="round"/>
<path d="M30.8454 4.05597C31.5215 3.37984 32.4385 3 33.3947 3C34.3509 3 35.2679 3.37984 35.944 4.05597C36.6202 4.7321 37 5.64912 37 6.60531C37 7.56149 36.6202 8.47852 35.944 9.15464L19.7982 25.3004L13 27L14.6996 20.2018L30.8454 4.05597Z" stroke="#F7941E" stroke-width="2" stroke-linecap="round" stroke-linejoin="round"/>
</svg>
