<svg width="40" height="40" viewBox="0 0 40 40" fill="none" xmlns="http://www.w3.org/2000/svg">
<path d="M27 35V31.6667C27 29.8986 26.2976 28.2029 25.0474 26.9526C23.7971 25.7024 22.1014 25 20.3333 25H8.66667C6.89856 25 5.20286 25.7024 3.95262 26.9526C2.70238 28.2029 2 29.8986 2 31.6667V35" stroke="black" stroke-width="2" stroke-linecap="round" stroke-linejoin="round"/>
<path d="M13.5 18C17.0899 18 20 15.0899 20 11.5C20 7.91015 17.0899 5 13.5 5C9.91015 5 7 7.91015 7 11.5C7 15.0899 9.91015 18 13.5 18Z" stroke="black" stroke-width="2" stroke-linecap="round" stroke-linejoin="round"/>
<path d="M28 18.5L31.3333 22L38 15" stroke="#F7941E" stroke-width="2" stroke-linecap="round" stroke-linejoin="round"/>
</svg>
