<svg width="40" height="40" viewBox="0 0 40 40" fill="none" xmlns="http://www.w3.org/2000/svg">
<rect width="40" height="40" rx="20" fill="#E2E1DD"/>
<rect width="40" height="40" rx="20" fill="#E2E1DD"/>
<path d="M8.98947 19.559C14.8056 16.9717 18.6839 15.2661 20.6244 14.442C26.165 12.089 27.3162 11.6803 28.0666 11.6666C28.2317 11.6638 28.6007 11.7056 28.8397 11.9036C29.0416 12.0708 29.0971 12.2967 29.1237 12.4553C29.1502 12.6138 29.1833 12.975 29.157 13.2572C28.8568 16.4782 27.5576 24.2947 26.8967 27.9023C26.617 29.4288 26.0663 29.9407 25.5332 29.9908C24.3746 30.0996 23.4949 29.209 22.3727 28.4579C20.6168 27.2827 19.6248 26.5511 17.9204 25.4043C15.9506 24.079 17.2275 23.3505 18.3501 22.1601C18.6439 21.8485 23.7486 17.1078 23.8474 16.6777C23.8598 16.6239 23.8712 16.4234 23.7546 16.3176C23.6379 16.2117 23.4657 16.2479 23.3415 16.2767C23.1654 16.3175 20.3603 18.2106 14.9261 21.9559C14.1299 22.5141 13.4087 22.7861 12.7625 22.7719C12.0502 22.7562 10.6799 22.3606 9.66122 22.0225C8.4118 21.6079 7.41878 21.3886 7.50525 20.6844C7.55029 20.3176 8.04503 19.9424 8.98947 19.559Z" fill="#F7941E"/>
</svg>
