<svg width="24" height="24" viewBox="0 0 24 24" fill="none" xmlns="http://www.w3.org/2000/svg">
<path d="M12 24C18.6274 24 24 18.6274 24 12C24 5.37258 18.6274 0 12 0C5.37258 0 0 5.37258 0 12C0 18.6274 5.37258 24 12 24Z" fill="url(#paint0_linear_339_5628)"/>
<path d="M11.9601 11.9958H12.0401C12.4601 11.9958 12.8001 11.6558 12.8001 11.2358V4.75585C12.8001 4.33585 12.4601 3.99585 12.0401 3.99585H11.9601C11.5401 3.99585 11.2001 4.33585 11.2001 4.75585V11.2358C11.2001 11.6558 11.5401 11.9958 11.9601 11.9958Z" fill="#424242"/>
<path d="M11.9741 12.0361V11.9561C11.9781 11.5361 11.6421 11.1921 11.2221 11.1881L6.9061 11.1441C6.4861 11.1401 6.1421 11.4761 6.1381 11.8961V11.9761C6.1341 12.3961 6.4701 12.7401 6.8901 12.7441L11.2061 12.7881C11.6261 12.7941 11.9701 12.4561 11.9741 12.0361Z" fill="#424242"/>
<path d="M12 13.4001C12.7732 13.4001 13.4 12.7733 13.4 12.0001C13.4 11.2269 12.7732 10.6001 12 10.6001C11.2268 10.6001 10.6 11.2269 10.6 12.0001C10.6 12.7733 11.2268 13.4001 12 13.4001Z" fill="#424242"/>
<path d="M12 12.5999C12.3314 12.5999 12.6 12.3313 12.6 11.9999C12.6 11.6685 12.3314 11.3999 12 11.3999C11.6687 11.3999 11.4 11.6685 11.4 11.9999C11.4 12.3313 11.6687 12.5999 12 12.5999Z" fill="white"/>
<path d="M2.37813 12.8261C2.81995 12.8261 3.17812 12.4679 3.17812 12.0261C3.17812 11.5842 2.81995 11.2261 2.37813 11.2261C1.9363 11.2261 1.57812 11.5842 1.57812 12.0261C1.57812 12.4679 1.9363 12.8261 2.37813 12.8261Z" fill="#757575"/>
<path d="M11.9781 3.22598C12.4199 3.22598 12.7781 2.8678 12.7781 2.42598C12.7781 1.98415 12.4199 1.62598 11.9781 1.62598C11.5363 1.62598 11.1781 1.98415 11.1781 2.42598C11.1781 2.8678 11.5363 3.22598 11.9781 3.22598Z" fill="#757575"/>
<path d="M11.9781 22.4259C12.4199 22.4259 12.7781 22.0678 12.7781 21.6259C12.7781 21.1841 12.4199 20.8259 11.9781 20.8259C11.5363 20.8259 11.1781 21.1841 11.1781 21.6259C11.1781 22.0678 11.5363 22.4259 11.9781 22.4259Z" fill="#757575"/>
<path d="M21.5781 12.8261C22.0199 12.8261 22.3781 12.4679 22.3781 12.0261C22.3781 11.5842 22.0199 11.2261 21.5781 11.2261C21.1362 11.2261 20.7781 11.5842 20.7781 12.0261C20.7781 12.4679 21.1362 12.8261 21.5781 12.8261Z" fill="#757575"/>
<g opacity="0.2">
<path d="M12 0.8C18.176 0.8 23.2 5.824 23.2 12C23.2 18.176 18.176 23.2 12 23.2C5.824 23.2 0.8 18.176 0.8 12C0.8 5.824 5.824 0.8 12 0.8ZM12 0C5.372 0 0 5.372 0 12C0 18.628 5.372 24 12 24C18.628 24 24 18.628 24 12C24 5.372 18.628 0 12 0Z" fill="#424242"/>
</g>
<defs>
<linearGradient id="paint0_linear_339_5628" x1="12" y1="3.1502" x2="12" y2="21.598" gradientUnits="userSpaceOnUse">
<stop offset="0.3212" stop-color="#ECEFF1"/>
<stop offset="1" stop-color="#B0BEC5"/>
</linearGradient>
</defs>
</svg>
