<svg width="17" height="17" viewBox="0 0 17 17" fill="none" xmlns="http://www.w3.org/2000/svg">
<path d="M8.94426 0.850692L10.8239 5.1379C10.9678 5.46607 11.2792 5.69091 11.6367 5.72303L16.2158 6.13359C16.7338 6.209 16.9405 6.8444 16.5649 7.21028L13.1156 10.108C12.8363 10.3426 12.7092 10.7113 12.786 11.0674L13.7887 15.761C13.8766 16.2763 13.3362 16.6701 12.8726 16.4257L8.87583 14.0852C8.5686 13.905 8.18876 13.905 7.88153 14.0852L3.88479 16.4243C3.42256 16.6673 2.88072 16.2749 2.9687 15.7596L3.97138 11.066C4.04679 10.7099 3.9211 10.3412 3.64181 10.1066L0.191093 7.21168C-0.183165 6.8472 0.0235146 6.2104 0.540214 6.13499L5.11929 5.72442C5.47679 5.6923 5.7882 5.46747 5.93204 5.1393L7.81171 0.852089C8.04492 0.38287 8.71244 0.38287 8.94426 0.850692Z" fill="#FDD835"/>
<path d="M8.80739 5.39499L8.48899 2.23614C8.47642 2.06019 8.44011 1.75854 8.7222 1.75854C8.94564 1.75854 9.06713 2.22357 9.06713 2.22357L10.0223 4.75959C10.3826 5.72456 10.2346 6.05553 9.88687 6.25104C9.48747 6.47447 8.89816 6.29991 8.80739 5.39499Z" fill="#FFFF8D"/>
<path d="M12.7469 9.82736L15.4868 7.68934C15.6222 7.57623 15.8666 7.39608 15.6711 7.1908C15.5161 7.02881 15.0972 7.26202 15.0972 7.26202L12.6994 8.19906C11.9844 8.44624 11.5096 8.81212 11.4677 9.27296C11.4132 9.88741 11.9648 10.3608 12.7469 9.82736Z" fill="#F4B400"/>
</svg>
