<svg width="20" height="20" viewBox="0 0 20 20" fill="none" xmlns="http://www.w3.org/2000/svg">
<path d="M9.5996 4.74123L9.99996 5.27636L10.4003 4.74123C11.1521 3.73644 12.3565 3.08337 13.7 3.08337C15.9798 3.08337 17.8333 4.94051 17.8333 7.24171C17.8333 8.17899 17.6838 9.04379 17.4242 9.84613L17.4232 9.84938C16.8007 11.8194 15.5239 13.4101 14.1418 14.5979C12.7575 15.7876 11.2962 16.5483 10.3556 16.8684L10.3556 16.8683L10.3502 16.8702C10.2787 16.8955 10.1517 16.9167 9.99996 16.9167C9.84821 16.9167 9.72121 16.8955 9.6497 16.8702L9.64971 16.8702L9.64435 16.8684C8.70372 16.5483 7.24246 15.7876 5.85815 14.5979C4.47603 13.4101 3.19925 11.8194 2.57672 9.84938L2.57673 9.84938L2.57568 9.84613C2.3161 9.04379 2.16663 8.17899 2.16663 7.24171C2.16663 4.94051 4.0201 3.08337 6.29996 3.08337C7.64339 3.08337 8.84787 3.73644 9.5996 4.74123Z" fill="white" stroke="#FF5964"/>
</svg>
