<svg width="32" height="32" viewBox="0 0 32 32" fill="none" xmlns="http://www.w3.org/2000/svg">
<g clip-path="url(#clip0_117_3338)">
<path d="M16 14.0001C16.7363 14.0001 17.3333 14.597 17.3333 15.3334V22.6667C17.3333 23.4031 16.7363 24.0001 16 24.0001C15.2636 24.0001 14.6666 23.4031 14.6666 22.6667V15.3334C14.6666 14.597 15.2636 14.0001 16 14.0001Z" fill="#CCCCCC"/>
<path d="M16 11.3334C16.9204 11.3334 17.6666 10.5872 17.6666 9.66675C17.6666 8.74627 16.9204 8.00008 16 8.00008C15.0795 8.00008 14.3333 8.74627 14.3333 9.66675C14.3333 10.5872 15.0795 11.3334 16 11.3334Z" fill="#CCCCCC"/>
<path fill-rule="evenodd" clip-rule="evenodd" d="M1.66663 16.0001C1.66663 8.084 8.08388 1.66675 16 1.66675C23.916 1.66675 30.3333 8.084 30.3333 16.0001C30.3333 23.9162 23.916 30.3334 16 30.3334C8.08388 30.3334 1.66663 23.9162 1.66663 16.0001ZM16 4.33341C9.55664 4.33341 4.33329 9.55676 4.33329 16.0001C4.33329 22.4434 9.55664 27.6667 16 27.6667C22.4433 27.6667 27.6666 22.4434 27.6666 16.0001C27.6666 9.55676 22.4433 4.33341 16 4.33341Z" fill="#CCCCCC"/>
</g>
<defs>
<clipPath id="clip0_117_3338">
<rect width="32" height="32" fill="white"/>
</clipPath>
</defs>
</svg>
