<svg width="24" height="24" viewBox="0 0 24 24" fill="none" xmlns="http://www.w3.org/2000/svg">
<path d="M9.5 22.0001H15.5C20.5 22.0001 22.5 20.0001 22.5 15.0001V9.00012C22.5 4.00012 20.5 2.00012 15.5 2.00012H9.5C4.5 2.00012 2.5 4.00012 2.5 9.00012V15.0001C2.5 20.0001 4.5 22.0001 9.5 22.0001Z" stroke="#925FF0" stroke-width="1.5" stroke-linecap="round" stroke-linejoin="round"/>
<path d="M16.78 13.6101C15.65 14.7401 14.03 15.0901 12.6 14.6401L10.01 17.2201C9.82995 17.4101 9.45995 17.5301 9.18995 17.4901L7.98995 17.3301C7.58995 17.2801 7.22995 16.9001 7.16995 16.5101L7.00995 15.3101C6.96995 15.0501 7.09995 14.6801 7.27995 14.4901L9.85995 11.9101C9.41995 10.4801 9.75995 8.86014 10.89 7.73014C12.51 6.11014 15.15 6.11014 16.78 7.73014C18.4 9.34014 18.4 11.9801 16.78 13.6101Z" stroke="#925FF0" stroke-width="1.5" stroke-miterlimit="10" stroke-linecap="round" stroke-linejoin="round"/>
<path d="M10.9496 16.2802L10.0996 15.4202" stroke="#925FF0" stroke-width="1.5" stroke-miterlimit="10" stroke-linecap="round" stroke-linejoin="round"/>
<path d="M13.8949 10.7001H13.9039" stroke="#925FF0" stroke-width="2" stroke-linecap="round" stroke-linejoin="round"/>
</svg>
