<svg width="33" height="32" viewBox="0 0 33 32" fill="none" xmlns="http://www.w3.org/2000/svg">
<path d="M8.21732 12.307C8.21733 16.3852 4.91136 24.5542 0.833007 24.5542L0.833007 24.6145C4.09713 24.6145 7.22756 23.3179 9.53568 21.0099C11.8438 18.7018 13.1406 15.5715 13.1407 12.3073C13.1407 10.3489 13.9187 8.47057 15.3035 7.08565C16.6884 5.70072 18.5667 4.92272 20.5251 4.92272C22.4836 4.92226 24.3622 5.69996 25.7473 7.08457C27.1325 8.46918 27.9108 10.3473 27.9113 12.3058C27.9116 14.2644 27.1339 16.1429 25.7493 17.528C24.3647 18.9132 22.4865 19.6916 20.5281 19.692C18.9118 19.692 17.3113 20.0104 15.8181 20.629C14.3249 21.2475 12.9681 22.1541 11.8253 23.2971C10.6824 24.44 9.77588 25.7968 9.1574 27.2901C8.53894 28.7833 8.22065 30.3838 8.22071 32.0001L8.28062 32.0001C8.28062 27.9225 16.4461 24.6165 20.525 24.615L20.525 24.6158C22.9593 24.6158 25.3388 23.894 27.3628 22.5417C29.3868 21.1893 30.9644 19.2672 31.8959 17.0183C32.8276 14.7693 33.0714 12.2947 32.5965 9.90718C32.1218 7.5198 30.9496 5.32673 29.2285 3.60534C27.5073 1.88411 25.3144 0.711804 22.9268 0.236728C20.5395 -0.238347 18.0648 0.00534554 15.8158 0.936729C13.5668 1.86811 11.6446 3.4455 10.292 5.46934C8.93951 7.49334 8.21751 9.87288 8.21732 12.307Z" fill="#A87FF3"/>
<circle cx="20.5" cy="12.5001" r="4.5" fill="#925FF0"/>
</svg>
