<svg width="24" height="25" viewBox="0 0 24 25" fill="none" xmlns="http://www.w3.org/2000/svg">
<path d="M9.19997 15.28L11.78 17.54C11.9 17.65 12.09 17.65 12.21 17.54L14.79 15.28C15.46 14.69 15.55 13.69 14.99 12.99C14.43 12.29 13.41 12.16 12.7 12.7L12 13.24L11.29 12.71C10.57 12.17 9.55997 12.3 8.99997 13C8.43997 13.69 8.52997 14.7 9.19997 15.28Z" stroke="#292D32" stroke-width="1.5" stroke-linecap="round" stroke-linejoin="round"/>
<path d="M22 11.5V17.5C22 21.5 21 22.5 17 22.5H7C3 22.5 2 21.5 2 17.5V7.5C2 3.5 3 2.5 7 2.5H8.5C10 2.5 10.33 2.94 10.9 3.7L12.4 5.7C12.78 6.2 13 6.5 14 6.5H17C21 6.5 22 7.5 22 11.5Z" stroke="#292D32" stroke-width="1.5" stroke-miterlimit="10"/>
</svg>
