<svg width="20" height="20" viewBox="0 0 20 20" fill="none" xmlns="http://www.w3.org/2000/svg">
<path d="M14.8502 7.88336L14.8502 7.88326C14.5793 7.83284 14.3145 7.69993 14.099 7.54091C13.8852 7.38316 13.6764 7.16767 13.5518 6.91328L12.3784 4.56647C12.3783 4.56631 12.3782 4.56615 12.3782 4.56599C12.0931 3.99976 11.807 3.88475 11.6655 3.8844C11.5244 3.88405 11.2395 3.99708 10.955 4.55816C10.9548 4.55854 10.9546 4.55893 10.9544 4.55931L9.78159 6.90495C9.65784 7.15753 9.45055 7.3749 9.23597 7.53453C9.02074 7.69463 8.75174 7.83121 8.47259 7.87677L8.47296 7.87671L8.3917 7.38336L8.47204 7.87686L6.3497 8.22643C5.75755 8.32852 5.56306 8.56246 5.51788 8.70355C5.47297 8.84382 5.49474 9.14596 5.92025 9.57147L7.57859 11.2298C7.79117 11.4424 7.93426 11.7285 8.01517 12.0039C8.09652 12.2807 8.13004 12.5976 8.0748 12.8922L8.07285 12.9026L8.07046 12.9129L7.59546 14.9629L7.59543 14.963C7.41814 15.7274 7.59692 16.0029 7.68586 16.0676C7.77651 16.1335 8.09661 16.2175 8.7702 15.8198C8.77038 15.8197 8.77057 15.8196 8.77075 15.8195L10.7599 14.6377C11.0362 14.4712 11.3708 14.4042 11.675 14.4042C11.9793 14.4042 12.3139 14.4712 12.5902 14.6377L14.5804 15.8202L14.5812 15.8206C15.2546 16.2223 15.5737 16.1368 15.6634 16.0713C15.7534 16.0056 15.9319 15.7271 15.7546 14.963L15.7546 14.9629L15.2799 12.914C15.2798 12.9138 15.2798 12.9137 15.2798 12.9136C15.2099 12.6145 15.2399 12.2924 15.3193 12.0147C15.3985 11.7374 15.5422 11.4507 15.7548 11.2381L17.4116 9.58131C17.4119 9.5811 17.4121 9.58088 17.4123 9.58066C17.8384 9.15066 17.8606 8.84629 17.8155 8.70563C17.7708 8.56596 17.578 8.33329 16.9854 8.23505L14.8502 7.88336ZM14.8502 7.88336L14.8604 7.88505L16.985 8.23497L14.8502 7.88336Z" fill="white" stroke="#FFCA28"/>
<path d="M6.66663 4.79163H1.66663C1.32496 4.79163 1.04163 4.50829 1.04163 4.16663C1.04163 3.82496 1.32496 3.54163 1.66663 3.54163H6.66663C7.00829 3.54163 7.29163 3.82496 7.29163 4.16663C7.29163 4.50829 7.00829 4.79163 6.66663 4.79163Z" fill="#FFCA28"/>
<path d="M4.16663 16.4584H1.66663C1.32496 16.4584 1.04163 16.175 1.04163 15.8334C1.04163 15.4917 1.32496 15.2084 1.66663 15.2084H4.16663C4.50829 15.2084 4.79163 15.4917 4.79163 15.8334C4.79163 16.175 4.50829 16.4584 4.16663 16.4584Z" fill="#FFCA28"/>
<path d="M2.49996 10.625H1.66663C1.32496 10.625 1.04163 10.3417 1.04163 10C1.04163 9.65833 1.32496 9.375 1.66663 9.375H2.49996C2.84163 9.375 3.12496 9.65833 3.12496 10C3.12496 10.3417 2.84163 10.625 2.49996 10.625Z" fill="#FFCA28"/>
</svg>
