<svg width="18" height="18" viewBox="0 0 18 18" fill="none" xmlns="http://www.w3.org/2000/svg">
<mask id="mask0_511_9211" style="mask-type:alpha" maskUnits="userSpaceOnUse" x="0" y="0" width="18" height="18">
<rect width="18" height="18" fill="#D9D9D9"/>
</mask>
<g mask="url(#mask0_511_9211)">
<path d="M5.26572 15.4571C5.26572 15.1891 5.26572 14.9211 5.26572 14.6531C5.26763 14.6421 5.26724 14.6309 5.26459 14.6201C5.26194 14.6093 5.25707 14.5991 5.2503 14.5903C5.24352 14.5814 5.23498 14.574 5.2252 14.5685C5.21542 14.5631 5.20462 14.5596 5.19345 14.5585C4.52247 14.3698 3.90317 14.0336 3.38169 13.575C3.00173 13.2328 2.68538 12.8273 2.44702 12.3769C2.11106 11.7262 1.88747 11.0245 1.78553 10.3008C1.65922 9.39298 1.61535 8.47577 1.65445 7.56018C1.66303 7.13333 1.68508 6.71132 1.73408 6.28446C1.81222 5.4733 2.01892 4.67939 2.34657 3.93189C2.75116 3.01281 3.48514 2.27455 4.407 1.85945C5.03498 1.57497 5.69562 1.36729 6.37434 1.24099C7.03993 1.11619 7.71383 1.03958 8.39067 1.0118C9.00078 0.990437 9.61159 0.999341 10.2208 1.03847C11.0927 1.07491 11.9568 1.21787 12.7933 1.46412C13.4135 1.6411 14.0035 1.90882 14.5438 2.25841C15.0702 2.61617 15.496 3.10068 15.781 3.66632C16.1161 4.32697 16.3439 5.03578 16.456 5.76665C16.5288 6.20058 16.5767 6.63825 16.5993 7.07754C16.6312 7.62203 16.6275 8.16894 16.6067 8.711C16.5859 9.25306 16.5393 9.77936 16.4719 10.3105C16.3868 11.1077 16.1392 11.8796 15.7443 12.5794C15.2302 13.4647 14.4067 14.1333 13.4291 14.459C12.7606 14.6908 12.0703 14.8557 11.3686 14.9514C10.8553 15.0217 10.3409 15.0726 9.82391 15.0933C9.42824 15.1114 9.03256 15.1066 8.63689 15.1005C8.41272 15.1005 8.18977 15.0787 7.96682 15.0593C7.94494 15.0552 7.92232 15.0576 7.90182 15.0663C7.88133 15.0749 7.86388 15.0894 7.85167 15.1078C7.40088 15.6438 6.93293 16.1653 6.46131 16.6843C6.3754 16.779 6.27594 16.8607 6.16609 16.9268C6.09398 16.9736 6.01176 17.003 5.92606 17.0126C5.84036 17.0222 5.75359 17.0117 5.67276 16.9819C5.59192 16.9522 5.51928 16.904 5.4607 16.8414C5.40212 16.7787 5.35925 16.7033 5.33555 16.6212C5.28886 16.4754 5.26571 16.3231 5.26695 16.1701C5.26572 15.93 5.26572 15.6935 5.26572 15.4571ZM5.81084 16.4745L5.86842 16.4211L6.89128 15.297C7.28491 14.8645 7.67813 14.4315 8.07095 13.9982C8.09026 13.9718 8.11631 13.9509 8.14644 13.9377C8.17657 13.9245 8.2097 13.9194 8.24245 13.923C8.37597 13.9364 8.50949 13.9412 8.64424 13.9424C9.10974 13.9424 9.57524 13.9424 10.0407 13.9097C10.4634 13.877 10.8847 13.826 11.3037 13.7605C11.7548 13.6828 12.2013 13.5812 12.6414 13.4562C13.6214 13.1954 14.3796 12.6376 14.8562 11.7342C15.1375 11.1787 15.3139 10.5771 15.3768 9.95884C15.4512 9.37613 15.4958 8.79007 15.5103 8.2029C15.532 7.46529 15.4812 6.72734 15.3584 5.99949C15.2733 5.47215 15.1202 4.95782 14.9027 4.4691C14.6259 3.86277 14.2339 3.36073 13.63 3.03816C12.7039 2.54339 11.7018 2.32269 10.6692 2.20991C10.3764 2.17838 10.0836 2.1614 9.78961 2.15049C9.18762 2.11976 8.58436 2.123 7.98275 2.16019C7.55009 2.19198 7.11975 2.24948 6.69406 2.33239C6.06803 2.44536 5.46241 2.64969 4.897 2.93872C4.56921 3.10268 4.27183 3.3204 4.01746 3.58264C3.60521 4.03877 3.30281 4.58151 3.13302 5.17002C2.93158 5.85543 2.82163 6.56398 2.80594 7.27763C2.76653 7.99128 2.77553 8.70675 2.83289 9.4192C2.86858 9.84319 2.94029 10.2635 3.04727 10.6755C3.20643 11.3177 3.51519 11.914 3.94886 12.4169C4.41705 12.9299 5.02217 13.3016 5.69447 13.4889C5.77899 13.5144 5.81697 13.5435 5.81697 13.6381C5.80962 13.9873 5.81697 14.3366 5.81697 14.6858L5.81084 16.4745Z" fill="#754A91"/>
<path d="M4.95353 5.64301C4.94495 5.37743 5.09073 5.18462 5.26713 5.01121C5.49978 4.79058 5.7561 4.5958 6.03152 4.43034C6.15711 4.35367 6.30644 4.32445 6.45206 4.34807C6.59767 4.37168 6.72978 4.44654 6.82409 4.55888C7.15733 4.90565 7.45559 5.28377 7.71465 5.68787C7.84294 5.86965 7.93981 6.07128 8.0013 6.2845C8.02588 6.36771 8.02748 6.45592 8.00593 6.53995C7.98439 6.62398 7.94049 6.70076 7.8788 6.76229C7.73748 6.89962 7.58687 7.02725 7.42801 7.14428C7.34796 7.20744 7.28844 7.29249 7.25686 7.38888C7.22528 7.48526 7.22303 7.58871 7.25038 7.68635C7.34849 8.14483 7.57081 8.56822 7.8935 8.91114C8.28561 9.38501 8.79083 9.75469 9.36349 9.98677C9.50421 10.0584 9.66544 10.0802 9.82041 10.0486C9.90529 10.0257 9.98072 9.9769 10.036 9.90916C10.1218 9.80123 10.2149 9.69694 10.292 9.58174C10.3921 9.43804 10.545 9.33872 10.718 9.30497C10.891 9.27122 11.0704 9.30569 11.2181 9.40105C11.6334 9.63955 12.0254 9.9156 12.3892 10.2257C12.475 10.2984 12.5644 10.3688 12.6501 10.4427C12.7516 10.5193 12.8249 10.6268 12.8587 10.7486C12.8926 10.8703 12.8851 10.9998 12.8376 11.117C12.7619 11.3141 12.6516 11.4964 12.5117 11.6554C12.3379 11.8945 12.1166 12.0959 11.8612 12.2472C11.7392 12.3181 11.602 12.3598 11.4608 12.3689C11.3196 12.3779 11.1781 12.3541 11.0479 12.2993C10.0567 11.9043 9.13068 11.3652 8.3002 10.6998C7.48791 10.0378 6.77803 9.26157 6.19322 8.39575C5.70113 7.67899 5.30964 6.89941 5.02948 6.07835C4.99965 5.97905 4.97511 5.87826 4.95598 5.7764C4.95053 5.73214 4.94971 5.68743 4.95353 5.64301V5.64301Z" fill="#754A91"/>
<path d="M9.18325 4.35268C10.0125 4.36786 10.81 4.67065 11.4368 5.20828C12.0636 5.74591 12.48 6.48426 12.6132 7.29461C12.6669 7.58923 12.6956 7.88778 12.699 8.18713C12.699 8.25746 12.6806 8.3084 12.6046 8.31567C12.5287 8.32295 12.5091 8.25868 12.5091 8.1944C12.5205 7.58889 12.3949 6.98852 12.1416 6.43725C11.9283 5.98428 11.6123 5.58614 11.2181 5.27381C10.824 4.96147 10.3624 4.74336 9.86924 4.63645C9.6085 4.57669 9.34186 4.54578 9.07422 4.54428C9.04816 4.54473 9.02217 4.54146 8.99705 4.53458C8.97566 4.52861 8.95745 4.51466 8.94625 4.49565C8.93505 4.47665 8.93175 4.45409 8.93702 4.43272C8.93718 4.42258 8.93938 4.41258 8.94348 4.40329C8.94758 4.394 8.95351 4.38561 8.96092 4.37861C8.96833 4.37161 8.97708 4.36615 8.98665 4.36253C8.99621 4.35891 9.00641 4.35721 9.01665 4.35753C9.07177 4.35026 9.12812 4.35268 9.18325 4.35268Z" fill="#754A91"/>
<path d="M11.5477 7.64161C11.5436 7.30471 11.4598 6.97346 11.303 6.67442C11.1462 6.37537 10.9208 6.11687 10.6449 5.91963C10.3228 5.69569 9.94846 5.5567 9.55708 5.51581C9.49094 5.50732 9.42479 5.50368 9.35741 5.49641C9.29004 5.48913 9.24961 5.46124 9.25574 5.39333C9.26186 5.32542 9.30474 5.30117 9.37824 5.30602C10.4636 5.3715 11.3872 5.97905 11.6714 7.11046C11.7234 7.32862 11.7493 7.55207 11.7486 7.77622C11.7486 7.79683 11.7486 7.81745 11.7486 7.83685C11.7486 7.89748 11.7094 7.9375 11.6494 7.93629C11.6361 7.93584 11.623 7.93272 11.6109 7.9271C11.5989 7.92149 11.5881 7.9135 11.5793 7.90363C11.5704 7.89375 11.5637 7.8822 11.5596 7.86968C11.5554 7.85715 11.5539 7.84392 11.555 7.83079C11.5452 7.77379 11.5477 7.71558 11.5477 7.64161Z" fill="#754A91"/>
<path d="M9.646 6.29062C10.2413 6.33064 10.6566 6.61925 10.7705 7.2462C10.7844 7.32652 10.7942 7.40746 10.7999 7.48873C10.7999 7.55422 10.7852 7.61 10.713 7.61C10.6407 7.61 10.6162 7.56149 10.6137 7.48873C10.6131 7.24841 10.5383 7.01402 10.3994 6.81692C10.2534 6.6384 10.0438 6.52208 9.81382 6.49192C9.7624 6.4824 9.71045 6.47592 9.65825 6.47252C9.5725 6.47252 9.52472 6.43008 9.53575 6.36459C9.54677 6.29911 9.59822 6.28698 9.646 6.29062Z" fill="#754A91"/>
</g>
</svg>
