<svg width="25" height="25" viewBox="0 0 25 25" fill="none" xmlns="http://www.w3.org/2000/svg">
<path d="M19.3541 6.14059C18.0241 5.52059 16.5841 5.07059 15.0841 4.81059C15.071 4.81017 15.0579 4.81264 15.0458 4.81782C15.0337 4.82301 15.0229 4.83078 15.0141 4.84059C14.8341 5.17059 14.6241 5.60059 14.4841 5.93059C12.8931 5.69059 11.2751 5.69059 9.6841 5.93059C9.5441 5.59059 9.3341 5.17059 9.1441 4.84059C9.1341 4.82059 9.1041 4.81059 9.0741 4.81059C7.5741 5.07059 6.1441 5.52059 4.8041 6.14059C4.7941 6.14059 4.7841 6.15059 4.7741 6.16059C2.0541 10.2306 1.3041 14.1906 1.6741 18.1106C1.6741 18.1306 1.6841 18.1506 1.7041 18.1606C3.5041 19.4806 5.2341 20.2806 6.9441 20.8106C6.9741 20.8206 7.0041 20.8106 7.0141 20.7906C7.4141 20.2406 7.7741 19.6606 8.0841 19.0506C8.1041 19.0106 8.0841 18.9706 8.0441 18.9606C7.4741 18.7406 6.9341 18.4806 6.4041 18.1806C6.3641 18.1606 6.3641 18.1006 6.3941 18.0706C6.5041 17.9906 6.6141 17.9006 6.7241 17.8206C6.7441 17.8006 6.7741 17.8006 6.7941 17.8106C10.2341 19.3806 13.9441 19.3806 17.3441 17.8106C17.3641 17.8006 17.3941 17.8006 17.4141 17.8206C17.5241 17.9106 17.6341 17.9906 17.7441 18.0806C17.7841 18.1106 17.7841 18.1706 17.7341 18.1906C17.2141 18.5006 16.6641 18.7506 16.0941 18.9706C16.0541 18.9806 16.0441 19.0306 16.0541 19.0606C16.3741 19.6706 16.7341 20.2506 17.1241 20.8006C17.1541 20.8106 17.1841 20.8206 17.2141 20.8106C18.9341 20.2806 20.6641 19.4806 22.4641 18.1606C22.4841 18.1506 22.4941 18.1306 22.4941 18.1106C22.9341 13.5806 21.7641 9.65059 19.3941 6.16059C19.3841 6.15059 19.3741 6.14059 19.3541 6.14059ZM8.6041 15.7206C7.5741 15.7206 6.7141 14.7706 6.7141 13.6006C6.7141 12.4306 7.5541 11.4806 8.6041 11.4806C9.6641 11.4806 10.5041 12.4406 10.4941 13.6006C10.4941 14.7706 9.6541 15.7206 8.6041 15.7206ZM15.5741 15.7206C14.5441 15.7206 13.6841 14.7706 13.6841 13.6006C13.6841 12.4306 14.5241 11.4806 15.5741 11.4806C16.6341 11.4806 17.4741 12.4406 17.4641 13.6006C17.4641 14.7706 16.6341 15.7206 15.5741 15.7206Z" fill="#313131"/>
</svg>
