<svg width="25" height="26" viewBox="0 0 25 26" fill="none" xmlns="http://www.w3.org/2000/svg">
<g clip-path="url(#clip0_225_3123)">
<path d="M8.38443 23.263C9.11075 23.263 9.31601 22.9788 9.31601 22.6156C9.31601 22.2524 9.31601 21.463 9.30022 20.3419C5.52654 21.1472 4.72127 18.5419 4.72127 18.5419C4.10548 17.0103 3.20548 16.584 3.20548 16.584C1.9739 15.763 3.30022 15.7788 3.30022 15.7788C4.65811 15.8735 5.38443 17.1524 5.38443 17.1524C6.60022 19.2051 8.55812 18.6051 9.3318 18.2577C9.39496 17.5788 9.69496 16.9314 10.2002 16.4577C7.18443 16.1261 4.01075 14.9735 4.01075 9.85771C3.99496 8.53139 4.50022 7.23665 5.41601 6.2735C5.25811 5.94192 4.80022 4.58402 5.52654 2.73665C5.52654 2.73665 6.66338 2.3735 9.26864 4.11034C11.495 3.51034 13.8318 3.51034 16.0581 4.11034C18.6318 2.38929 19.7844 2.73665 19.7844 2.73665C20.5107 4.56823 20.0529 5.92613 19.9265 6.2735C20.8423 7.23665 21.3318 8.53139 21.316 9.85771C21.316 14.9893 18.1423 16.1103 15.1107 16.4419C15.5844 16.8367 16.0265 17.6577 16.0265 18.9051C16.0265 20.7051 16.0107 22.1261 16.0107 22.5524C16.0107 22.8998 16.1686 23.184 16.9423 23.184L8.38443 23.263Z" fill="#313131"/>
</g>
<defs>
<clipPath id="clip0_225_3123">
<rect width="24" height="25" fill="white" transform="translate(0.0839844 0.310547)"/>
</clipPath>
</defs>
</svg>
