<svg width="34" height="9" viewBox="0 0 34 9" fill="none" xmlns="http://www.w3.org/2000/svg">
<path d="M31.6667 7C32.1529 7 32.6192 7.10536 32.963 7.29289C33.3068 7.48043 33.5 7.73478 33.5 8C33.5 8.26522 33.3068 8.51957 32.963 8.70711C32.6192 8.89464 32.1529 9 31.6667 9H2.33333C1.8471 9 1.38079 8.89464 1.03697 8.70711C0.693154 8.51957 0.5 8.26522 0.5 8C0.5 7.73478 0.693154 7.48043 1.03697 7.29289C1.38079 7.10536 1.8471 7 2.33333 7H31.6667ZM31.6667 0C32.1529 0 32.6192 0.105357 32.963 0.292893C33.3068 0.48043 33.5 0.734784 33.5 1C33.5 1.26522 33.3068 1.51957 32.963 1.70711C32.6192 1.89464 32.1529 2 31.6667 2H2.33333C1.8471 2 1.38079 1.89464 1.03697 1.70711C0.693154 1.51957 0.5 1.26522 0.5 1C0.5 0.734784 0.693154 0.48043 1.03697 0.292893C1.38079 0.105357 1.8471 0 2.33333 0H31.6667Z" fill="white"/>
</svg>
