<svg width="221" height="61" viewBox="0 0 221 61" fill="none" xmlns="http://www.w3.org/2000/svg">
<g clip-path="url(#clip0_66_78)">
<path fill-rule="evenodd" clip-rule="evenodd" d="M46.2077 12.1866C59.5957 12.1866 70.3945 22.9854 70.3945 36.4365C70.3945 49.6983 59.4694 60.6234 46.0182 60.5602C33.0091 60.4339 22.084 49.6983 22.084 36.3734C22.084 22.9854 32.8197 12.1234 46.2077 12.1866ZM27.8307 49.0036C27.8307 49.2562 27.957 49.3825 28.0833 49.572C29.0306 50.8981 30.1042 52.1612 31.3672 53.2347C31.9355 53.7399 32.5039 54.2451 33.1354 54.6872C34.9036 55.8239 36.735 56.8975 38.7559 57.5921C40.3978 58.1605 42.1029 58.6026 43.8079 58.792C45.1341 58.9183 46.5234 58.9815 47.8496 58.792C48.6074 58.6657 49.4284 58.6657 50.1862 58.3499C50.3125 58.4131 50.3756 58.2868 50.4388 58.2868C52.0176 58.0342 53.5332 57.529 55.0488 56.8975C59.9746 54.7503 63.7005 51.277 66.1002 46.4776C68.2474 42.2464 68.942 37.7627 68.2474 33.0895C67.6159 28.6058 65.7213 24.6905 62.6901 21.4066C58.6484 16.7966 53.47 14.3968 47.3444 14.0179C44.6289 13.8285 41.9134 14.2074 39.3242 15.0915C35.0931 16.4808 31.6198 18.8806 28.778 22.3539C25.5573 26.3324 23.9785 30.8793 23.7891 35.9313C23.7259 37.1944 23.8522 38.3942 24.0417 39.6572C24.4206 42.499 25.3678 45.2145 26.8203 47.6774C27.1992 48.0563 27.4518 48.5615 27.8307 49.0036Z" fill="#999999"/>
<path fill-rule="evenodd" clip-rule="evenodd" d="M50.1855 58.2867C49.4277 58.6656 48.6068 58.6656 47.849 58.7287C46.5228 58.9182 45.1335 58.855 43.8073 58.7287C42.1022 58.5393 40.3971 58.0972 38.7552 57.5288C36.7344 56.8342 34.903 55.7606 33.1348 54.6239C32.5033 54.1819 31.9349 53.6766 31.3665 53.1714C30.1035 52.0979 29.0299 50.8348 28.0827 49.5087C27.9564 49.3192 27.8301 49.1298 27.8301 48.9403C29.3457 45.5302 29.9141 41.9306 30.2298 38.2678C30.3561 36.5627 30.4193 34.8576 30.735 33.1526C31.0508 31.1949 31.8086 29.4267 33.1979 27.911C34.4609 26.5849 36.0397 25.7007 37.7448 25.0692C39.1341 24.5009 40.5866 23.9957 42.1654 23.9325C43.6178 23.8694 45.0072 24.0588 46.3965 24.3746C48.4805 24.8798 50.5644 25.5113 52.5221 26.4586C54.1009 27.0901 55.7428 27.7216 57.3848 28.2268C59.0898 28.732 60.7949 29.3003 62.2474 30.3739C64.0788 31.7632 64.584 33.5315 63.763 35.6786C63.2578 37.0048 62.3105 38.0152 61.3633 39.0256C59.6582 40.7938 57.8268 42.4358 56.1849 44.2671C54.2904 46.4774 52.5853 48.7509 51.3854 51.4032C50.375 53.6135 49.8066 55.8869 50.1855 58.2867ZM62.3737 37.51C62.3105 37.51 62.2474 37.51 62.1842 37.5731C62.1211 37.5731 62.0579 37.6363 62.0579 37.6994C62.0579 37.6994 62.0579 37.6994 62.0579 37.7626C62.1211 37.7626 62.1842 37.6994 62.1842 37.6363L62.3737 37.51C62.5 37.51 62.4368 37.51 62.3737 37.51ZM43.0495 26.5217C40.6497 26.5217 38.6921 28.4794 38.6921 30.816C38.6921 33.2157 40.6497 35.1102 42.9863 35.1734C45.3861 35.1734 47.2806 33.2157 47.3437 30.816C47.3437 28.4162 45.4492 26.5217 43.0495 26.5217ZM46.5859 39.7834C46.9648 40.3518 47.6595 40.857 48.4805 41.1096C50.1224 41.6779 51.7643 41.6779 53.4062 41.3622C56.3112 40.7938 59.0267 39.7834 61.4896 38.1415C61.6159 38.0152 61.8685 38.0152 61.9316 37.7626C61.8053 37.6994 61.7422 37.7626 61.679 37.8257C60.8581 38.3309 59.9739 38.7098 59.0898 39.0888C56.8164 40.036 54.4167 40.6675 51.8906 40.7938C50.0592 40.9201 48.2279 40.7938 46.5859 39.7834ZM58.5215 36.0575C59.0267 36.0575 59.4687 35.6155 59.4687 35.0471C59.4687 34.5419 59.0267 34.0998 58.4583 34.163C57.9531 34.163 57.5742 34.605 57.5742 35.1102C57.5742 35.6786 57.9531 36.0575 58.5215 36.0575Z" fill="#999999"/>
<path fill-rule="evenodd" clip-rule="evenodd" d="M43.0498 26.522C45.4495 26.522 47.3441 28.4797 47.3441 30.8162C47.3441 33.216 45.3864 35.1105 42.9866 35.1737C40.5869 35.1737 38.6924 33.216 38.6924 30.8162C38.6924 28.4165 40.6501 26.522 43.0498 26.522ZM46.0811 30.8794C46.0811 29.1743 44.7549 27.8481 43.0498 27.8481C41.3447 27.8481 40.0186 29.1743 40.0186 30.8794C40.0186 32.5213 41.3447 33.9106 42.9866 33.9106H43.0498C44.6917 33.9106 46.0179 32.5845 46.0811 30.8794Z" fill="#FCFDFB"/>
<path fill-rule="evenodd" clip-rule="evenodd" d="M46.5876 39.7836C48.2295 40.794 50.0609 40.9203 51.8923 40.8571C54.4183 40.7308 56.818 40.1625 59.0915 39.1521C59.9756 38.7732 60.8597 38.3942 61.6807 37.889C61.7438 37.8259 61.807 37.7627 61.9333 37.8259C61.8701 38.0153 61.6807 38.0785 61.4912 38.2048C59.0283 39.8467 56.3128 40.8571 53.4079 41.4255C51.7659 41.7413 50.0609 41.7412 48.4821 41.1729C47.6611 40.8571 46.9033 40.3519 46.5876 39.7836ZM46.335 24.3747C47.6611 23.9958 49.0505 23.8695 50.3766 24.3747C51.387 24.7536 52.1449 25.4483 52.4606 26.5219C50.5661 25.5114 48.4821 24.8799 46.335 24.3747Z" fill="black"/>
<path fill-rule="evenodd" clip-rule="evenodd" d="M58.5215 36.0579C58.0163 36.0579 57.5742 35.6158 57.5742 35.1106C57.5742 34.6054 57.9531 34.1633 58.4583 34.1633C58.9635 34.1633 59.4056 34.5422 59.4687 35.0474C59.4056 35.6158 59.0267 36.0579 58.5215 36.0579Z" fill="#FCFDFB"/>
<path fill-rule="evenodd" clip-rule="evenodd" d="M62.1849 37.6363C62.1849 37.6995 62.1217 37.7626 62.0586 37.7626C62.0586 37.6363 62.1217 37.5732 62.1849 37.6363ZM62.3743 37.51L62.1849 37.6363L62.1217 37.5732C62.248 37.51 62.3112 37.51 62.3743 37.51Z" fill="#A9ACBF"/>
<path fill-rule="evenodd" clip-rule="evenodd" d="M46.082 30.8793C46.082 32.5212 44.7559 33.9106 43.1139 33.9106H43.0508C41.4089 33.9106 40.0195 32.5844 40.0195 30.8793V30.8162C40.0195 29.1111 41.4089 27.7849 43.0508 27.7849C44.6927 27.7849 46.082 29.1742 46.082 30.8793Z" fill="#999999"/>
<path fill-rule="evenodd" clip-rule="evenodd" d="M141.881 43.0676C141.818 43.1307 141.755 43.1307 141.692 43.1939C139.734 45.4042 137.271 45.7831 134.619 45.0884C131.335 44.2674 129.567 41.9308 128.872 38.7101C128.43 36.6262 128.556 34.5422 129.377 32.5845C130.83 29.1112 134.114 27.2167 137.84 27.7219C139.545 27.9745 141.124 28.5428 142.323 29.8059C143.207 30.7531 143.713 31.8898 143.902 33.1529C143.965 33.4055 143.839 33.4686 143.65 33.4686C142.892 33.4686 142.071 33.4686 141.313 33.4686C141.124 33.4686 141.06 33.4055 140.997 33.216C140.618 31.5109 139.482 30.5637 137.84 30.2479C135.945 29.869 134.303 30.2479 133.04 31.7635C131.903 33.1529 131.588 34.8579 131.588 36.6262C131.588 37.9523 131.84 39.2154 132.409 40.3521C133.735 42.8781 137.019 43.7622 139.482 42.3098C140.871 41.4888 141.313 40.1626 141.439 38.647C141.439 38.3312 141.25 38.3944 141.06 38.3944C139.797 38.3944 138.597 38.3944 137.334 38.3944C136.956 38.3944 136.892 38.2681 136.892 37.9523C136.892 37.4471 136.892 37.0051 136.892 36.4999C136.892 36.1841 137.019 36.121 137.271 36.121C139.418 36.121 141.629 36.121 143.776 36.121C144.028 36.121 144.155 36.1841 144.155 36.4367C144.155 39.2154 144.155 41.9308 144.155 44.7095C144.155 44.9621 144.092 45.0252 143.839 45.0252C143.334 45.0252 142.702 45.1515 142.323 44.9621C141.944 44.7095 142.071 44.078 141.944 43.5728C141.944 43.3833 141.881 43.1939 141.881 43.0676ZM91.8657 33.4686C91.4868 33.4686 91.1079 33.4686 90.6658 33.4686C90.4132 33.4686 90.3501 33.4055 90.2869 33.1529C89.7817 31.3846 88.645 30.3111 86.8136 30.1216C84.7928 29.9322 83.0877 30.5637 82.0773 32.395C80.5617 35.1737 80.6248 38.0155 82.1405 40.731C83.1509 42.5624 85.3612 43.3833 87.382 42.815C89.1502 42.3098 89.9712 40.9836 90.3501 39.2785C90.4764 38.5838 90.4764 38.5838 91.1711 38.5838C91.8026 38.5838 92.4341 38.5838 93.0656 38.5838C93.3182 38.5838 93.3813 38.647 93.3182 38.8996C93.0024 42.2466 90.8553 44.8358 87.5714 45.341C82.8351 46.0988 78.9198 43.1939 78.1619 38.4575C77.8462 36.3736 78.0356 34.3527 78.8566 32.395C80.3091 29.1112 83.5298 27.343 87.1294 27.785C88.8345 28.0376 90.4132 28.606 91.6763 29.869C92.5604 30.8163 93.0656 31.953 93.255 33.216C93.3182 33.4686 93.255 33.5318 93.0024 33.5318C92.6867 33.4055 92.2446 33.4686 91.8657 33.4686ZM184.824 44.9621C183.75 44.9621 182.803 44.9621 181.793 44.9621C181.54 44.9621 181.414 44.8358 181.351 44.6463C180.277 42.8781 179.14 41.173 178.067 39.4048C177.877 39.089 177.814 39.0891 177.498 39.3417C176.425 40.0995 175.983 41.1099 176.172 42.4361C176.299 43.1307 176.172 43.8885 176.172 44.6463C176.172 44.9621 176.046 45.0252 175.793 45.0252C175.162 45.0252 174.53 45.0252 173.899 45.0252C173.583 45.0252 173.52 44.8989 173.52 44.5832C173.52 41.994 173.52 39.4048 173.52 36.7525C173.52 34.037 173.52 31.3215 173.52 28.5428C173.52 28.1008 173.646 27.9745 174.088 28.0376C174.657 28.1008 175.225 28.1008 175.793 28.0376C176.172 28.0376 176.235 28.1639 176.235 28.4797C176.235 31.3215 176.235 34.1633 176.235 37.0051V37.5103L176.362 37.5734C176.551 37.3208 176.804 37.0682 176.993 36.8156C178.256 35.4894 179.519 34.2264 180.845 32.9003C180.972 32.774 181.098 32.6476 181.288 32.6476C182.298 32.6476 183.308 32.6476 184.319 32.6476C184.319 32.8371 184.129 32.9003 184.066 33.0266C182.74 34.2896 181.477 35.5526 180.088 36.8156C179.772 37.0682 179.772 37.2577 180.025 37.6366C181.54 39.91 183.056 42.1834 184.571 44.4569C184.571 44.6463 184.698 44.7726 184.824 44.9621ZM153.627 39.5311C152.238 39.5311 150.912 39.5311 149.523 39.5311C149.207 39.5311 149.144 39.5943 149.144 39.91C149.27 42.3729 151.543 43.8885 153.817 42.9413C154.448 42.6887 154.954 42.1835 155.206 41.4888C155.332 41.173 155.522 41.1099 155.775 41.1099C156.343 41.1099 156.974 41.1099 157.543 41.1099C157.859 41.1099 157.922 41.173 157.795 41.4888C157.101 43.6991 155.585 44.8989 153.312 45.2147C151.291 45.5305 149.396 45.0884 147.944 43.5728C146.933 42.4992 146.491 41.1099 146.365 39.6574C146.239 37.8892 146.491 36.1841 147.628 34.6685C149.081 32.7739 151.038 32.0793 153.312 32.4582C155.711 32.9003 157.164 34.4159 157.859 36.6893C158.111 37.5103 158.174 38.3312 158.111 39.2154C158.111 39.5311 157.985 39.5943 157.732 39.5943C156.406 39.5311 155.017 39.5311 153.627 39.5311ZM152.301 37.7629C153.249 37.7629 154.196 37.7629 155.08 37.7629C155.396 37.7629 155.459 37.6997 155.396 37.384C155.143 35.742 153.943 34.5422 152.364 34.479C150.722 34.4159 149.396 35.5526 149.144 37.2577C149.081 37.5734 149.144 37.6997 149.523 37.6997C150.47 37.7629 151.354 37.7629 152.301 37.7629ZM95.1496 38.8364C95.1496 38.0786 95.2759 37.2577 95.4653 36.4999C96.2863 33.8475 98.6229 32.2056 101.528 32.395C103.738 32.5213 105.569 33.2792 106.643 35.2368C107.906 37.6366 107.906 40.1626 106.58 42.4992C105.38 44.7095 103.296 45.4042 100.896 45.2779C97.2967 45.0884 95.1496 42.6255 95.1496 38.8364ZM97.8651 38.8364C97.8651 39.91 98.0545 40.8573 98.686 41.7414C99.6964 43.1939 101.654 43.6359 103.107 42.6255C103.422 42.3729 103.738 42.1203 103.991 41.8045C105.064 40.2258 105.127 37.5734 103.991 35.9315C102.665 34.037 99.8859 34.037 98.6229 35.9947C98.0545 36.8156 97.8651 37.826 97.8651 38.8364ZM185.519 38.8996C185.519 37.1314 185.898 35.5526 187.097 34.2264C188.297 32.8371 189.939 32.3319 191.707 32.3319C193.476 32.3319 195.118 32.8371 196.381 34.2264C197.707 35.742 198.023 37.5734 197.896 39.5311C197.833 40.2258 197.707 40.9204 197.454 41.5519C196.507 44.0148 194.234 45.4042 191.329 45.2147C187.918 45.0252 185.771 42.815 185.582 39.4048C185.582 39.2785 185.519 39.0259 185.519 38.8996ZM195.181 39.0259C195.181 37.7629 194.865 36.6893 194.423 35.9315C193.476 34.4159 191.455 34.037 190.002 34.9842C189.623 35.2368 189.308 35.5526 189.055 35.9315C187.982 37.5103 188.045 40.1626 189.055 41.6782C190.066 43.1307 192.023 43.5728 193.476 42.5624C193.855 42.3098 194.107 42.0572 194.36 41.6782C194.991 40.8573 195.181 39.8469 195.181 39.0259ZM118.01 34.4159C118.768 33.4686 119.652 32.7739 120.852 32.4582C121.926 32.2056 122.999 32.2687 124.01 32.7108C125.525 33.3423 126.157 34.6685 126.22 36.2473C126.283 39.0259 126.22 41.8045 126.22 44.5832C126.22 44.8989 126.157 44.9621 125.841 44.9621C125.209 44.9621 124.578 44.9621 123.946 44.9621C123.631 44.9621 123.504 44.8989 123.504 44.52C123.504 42.1835 123.504 39.7837 123.504 37.4471C123.504 36.9419 123.441 36.4367 123.315 35.9947C122.936 34.7316 121.736 34.2264 120.284 34.6053C119.021 34.9842 118.2 36.121 118.2 37.5734C118.2 39.8469 118.2 42.1834 118.2 44.4569C118.2 44.8358 118.137 45.0252 117.694 44.9621C117.126 44.8989 116.495 44.8989 115.926 44.9621C115.61 44.9621 115.484 44.8989 115.484 44.52C115.484 42.7518 115.484 41.0467 115.484 39.2785C115.484 37.2577 115.484 35.2368 115.484 33.216C115.484 32.774 115.61 32.6476 116.053 32.7108C116.621 32.7739 117.126 32.7108 117.694 32.7108C118.01 32.7108 118.137 32.7739 118.073 33.0897C118.01 33.5318 118.01 33.9738 118.01 34.4159ZM169.794 36.8156C169.731 36.8156 169.668 36.8156 169.605 36.8156C168.91 36.8788 168.468 36.8156 168.152 35.9947C167.394 34.1001 164.363 34.037 163.1 35.8052C162.658 36.3736 162.469 37.0682 162.342 37.826C162.216 39.0259 162.216 40.2258 162.721 41.3625C163.353 42.7518 164.489 43.3833 165.942 43.1939C167.142 43.0044 167.963 42.2466 168.278 40.9204C168.342 40.5415 168.531 40.4152 168.91 40.4784C169.541 40.4784 170.11 40.4784 170.741 40.4784C171.057 40.4784 171.12 40.6047 171.057 40.8573C170.426 43.8885 168.278 45.5936 165.121 45.4042C161.963 45.2147 159.879 43.1307 159.627 39.91C159.5 38.5207 159.627 37.1314 160.195 35.8052C161.142 33.5949 163.29 32.3319 165.816 32.4582C167.331 32.5213 168.72 32.9003 169.857 33.9738C170.552 34.6685 170.931 35.5526 171.12 36.4999C171.183 36.8156 171.057 36.9419 170.741 36.8788C170.489 36.8156 170.173 36.8156 169.794 36.8156ZM112.516 38.8996C112.516 40.731 112.516 42.5624 112.516 44.3937C112.516 44.8989 112.39 45.0252 111.948 44.9621C111.379 44.8989 110.874 44.8989 110.306 44.9621C109.927 44.9621 109.801 44.8989 109.801 44.4569C109.801 41.173 109.801 37.8892 109.801 34.6053C109.801 34.1001 109.801 33.5949 109.801 33.0897C109.801 32.7739 109.864 32.7108 110.18 32.7108C110.811 32.7108 111.443 32.7108 112.074 32.7108C112.453 32.7108 112.579 32.774 112.579 33.216C112.516 35.1105 112.516 37.0051 112.516 38.8996ZM111.253 28.0376C111.632 28.1008 112.2 27.8482 112.453 28.1008C112.706 28.3534 112.516 28.9217 112.516 29.3638C112.516 29.7427 112.706 30.2479 112.453 30.5005C112.2 30.7531 111.695 30.5637 111.316 30.5637C110.811 30.5637 110.18 30.7531 109.864 30.5005C109.611 30.1848 109.801 29.5532 109.801 29.1112C109.801 28.0376 109.801 28.0376 110.874 28.0376H111.253Z" fill="#959697"/>
</g>
<defs>
<clipPath id="clip0_66_78">
<rect width="220.291" height="60.7972" fill="white"/>
</clipPath>
</defs>
</svg>
