<svg width="22" height="18" viewBox="0 0 22 18" fill="none" xmlns="http://www.w3.org/2000/svg">
<path d="M0.776703 8.03561C0.826669 8.01126 0.876659 7.98813 0.925376 7.96622C1.7723 7.58399 2.63048 7.22612 3.4874 6.86823C3.53362 6.86823 3.61105 6.81589 3.65477 6.79885C3.72097 6.77085 3.78719 6.74407 3.85339 6.71607C3.98081 6.66251 4.10823 6.61017 4.23439 6.55661C4.48922 6.4507 4.74278 6.34479 4.99761 6.23889L6.52283 5.60225C7.53964 5.17863 8.55773 4.75379 9.57454 4.33018C10.5914 3.90656 11.6094 3.48172 12.6262 3.05811C13.643 2.63449 14.6611 2.20966 15.6779 1.78605C16.6947 1.36243 17.7128 0.937592 18.7296 0.513975C18.9557 0.419026 19.2005 0.277817 19.4429 0.236429C19.6465 0.201128 19.8451 0.132963 20.05 0.0952269C20.4384 0.0234068 20.8669 -0.00580548 21.2392 0.151225C21.3678 0.206003 21.4865 0.282692 21.5852 0.378858C22.0574 0.834124 21.9911 1.58153 21.8912 2.22183C21.1954 6.68442 20.4997 11.1482 19.8026 15.6108C19.7077 16.2231 19.5778 16.8951 19.0819 17.2822C18.6621 17.6096 18.065 17.6461 17.5466 17.5073C17.0282 17.3674 16.5711 17.074 16.1226 16.7855C14.2626 15.5852 12.4014 14.385 10.5414 13.1847C10.0992 12.8999 9.60703 12.5274 9.61202 12.0101C9.61452 11.6984 9.80562 11.4209 10.0005 11.1738C11.6169 9.119 13.9491 7.70694 15.6842 5.74711C15.929 5.47078 16.1214 4.97169 15.7853 4.81223C15.5855 4.71728 15.3556 4.84631 15.1732 4.96925C12.8798 6.5213 10.5876 8.07456 8.29415 9.62661C7.54591 10.133 6.76144 10.654 5.85955 10.7782C5.05259 10.8902 4.24064 10.671 3.45992 10.4471C2.80536 10.2596 2.15203 10.0673 1.50122 9.86885C1.1552 9.76416 0.797942 9.65096 0.530623 9.41358C0.263303 9.17621 0.109677 8.77694 0.270819 8.46044C0.372001 8.26202 0.568122 8.13664 0.774233 8.03439L0.776703 8.03561Z" fill="#313131"/>
</svg>
