<svg width="48" height="48" viewBox="0 0 48 48" fill="none" xmlns="http://www.w3.org/2000/svg">
<path d="M34.2099 12.4647C33.8833 11.9245 33.2369 11.6678 32.6286 11.8374C32.0207 12.0069 31.5999 12.561 31.5999 13.192C31.5999 14.9084 30.2036 16.3044 28.4875 16.3044C26.7715 16.3044 25.3751 14.9084 25.3751 13.192V1.40624C25.3751 0.837514 25.0323 0.324819 24.5068 0.10729C23.9813 -0.110605 23.3767 0.00951159 22.9746 0.411977C22.8164 0.569814 19.0668 4.34178 15.2677 10.0404C13.0272 13.4007 11.2394 16.734 9.95398 19.9475C8.3258 24.0186 7.5 27.9158 7.5 31.5314C7.5 40.612 14.8879 47.9999 23.9688 47.9999C33.0494 47.9999 40.4373 40.612 40.4373 31.5314C40.4377 25.7186 38.3422 19.3037 34.2099 12.4647ZM33.3523 31.1656C33.3523 31.9423 32.7227 32.5718 31.946 32.5718C31.1696 32.5718 30.5398 31.9423 30.5398 31.1656V28.5358L23.5378 35.5381C23.2738 35.8018 22.9164 35.9498 22.5432 35.9498C22.1704 35.9498 21.8126 35.8018 21.5489 35.5381L18.2831 32.2719L16.0821 34.4728C15.5328 35.0222 14.6426 35.0222 14.0933 34.4728C13.5439 33.9235 13.5439 33.0333 14.0933 32.484L17.2888 29.2888C17.8381 28.7398 18.7284 28.7398 19.2777 29.2891L22.5432 32.555L28.5512 26.547H25.9211C25.1444 26.547 24.5149 25.9174 24.5149 25.1407C24.5149 24.364 25.1444 23.7345 25.9211 23.7345H31.9464C32.7227 23.7345 33.3526 24.3643 33.3526 25.1407V31.1656H33.3523Z" fill="#FD9109"/>
</svg>
