<svg width="44" height="44" viewBox="0 0 44 44" fill="none" xmlns="http://www.w3.org/2000/svg">
<path fill-rule="evenodd" clip-rule="evenodd" d="M29.333 16.957C22.5038 16.957 16.958 22.5029 16.958 29.332C16.958 36.1612 22.5038 41.707 29.333 41.707C36.1622 41.707 41.708 36.1612 41.708 29.332C41.708 22.5029 36.1622 16.957 29.333 16.957ZM29.333 32.9987C30.092 32.9987 30.708 33.6147 30.708 34.3737C30.708 35.1327 30.092 35.7487 29.333 35.7487C28.574 35.7487 27.958 35.1327 27.958 34.3737C27.958 33.6147 28.574 32.9987 29.333 32.9987ZM27.958 23.832V30.2487C27.958 31.0077 28.574 31.6237 29.333 31.6237C30.092 31.6237 30.708 31.0077 30.708 30.2487V23.832C30.708 23.073 30.092 22.457 29.333 22.457C28.574 22.457 27.958 23.073 27.958 23.832Z" fill="#FD9109"/>
<path fill-rule="evenodd" clip-rule="evenodd" d="M2.2915 14.2077V34.8327C2.2915 38.6295 5.36967 41.7077 9.1665 41.7077H22.3518C18.038 39.2675 15.1248 34.6384 15.1248 29.3327C15.1248 21.4915 21.492 15.1243 29.3332 15.1243C34.6388 15.1243 39.268 18.0375 41.7082 22.3514V14.2077H2.2915ZM2.2915 11.4577H41.7082V9.16602C41.7082 5.36918 38.63 2.29102 34.8332 2.29102H9.1665C5.36967 2.29102 2.2915 5.36918 2.2915 9.16602V11.4577ZM23.3748 5.95768C24.1338 5.95768 24.7498 6.57368 24.7498 7.33268C24.7498 8.09168 24.1338 8.70768 23.3748 8.70768C22.6158 8.70768 21.9998 8.09168 21.9998 7.33268C21.9998 6.57368 22.6158 5.95768 23.3748 5.95768ZM28.4165 5.95768C29.1755 5.95768 29.7915 6.57368 29.7915 7.33268C29.7915 8.09168 29.1755 8.70768 28.4165 8.70768C27.6575 8.70768 27.0415 8.09168 27.0415 7.33268C27.0415 6.57368 27.6575 5.95768 28.4165 5.95768ZM33.4582 5.95768C34.2172 5.95768 34.8332 6.57368 34.8332 7.33268C34.8332 8.09168 34.2172 8.70768 33.4582 8.70768C32.6992 8.70768 32.0832 8.09168 32.0832 7.33268C32.0832 6.57368 32.6992 5.95768 33.4582 5.95768Z" fill="#FD9109"/>
</svg>
