<svg width="49" height="49" viewBox="0 0 49 49" fill="none" xmlns="http://www.w3.org/2000/svg">
<path d="M14.5488 24.729C14.5488 23.1181 15.8547 21.8123 17.4655 21.8123C19.0763 21.8123 20.3822 23.1181 20.3822 24.729C20.3822 26.3397 19.0763 27.6457 17.4655 27.6457C15.8547 27.6457 14.5488 26.3397 14.5488 24.729Z" fill="#FD9109"/>
<path fill-rule="evenodd" clip-rule="evenodd" d="M23.8867 0.881539C21.0723 1.02127 18.4986 2.50719 13.3513 5.47902C8.20393 8.45085 5.63026 9.93676 4.10203 12.3043C3.89275 12.6285 3.69967 12.9629 3.52352 13.3063C2.2373 15.8135 2.2373 18.7854 2.2373 24.7291C2.2373 30.6726 2.2373 33.6445 3.52352 36.1517C3.69967 36.4952 3.89275 36.8295 4.10203 37.1539C5.63026 39.5213 8.20393 41.0071 13.3513 43.9791C18.4986 46.9508 21.0723 48.4367 23.8867 48.5765C24.2722 48.5956 24.6583 48.5956 25.0438 48.5765C27.8583 48.4367 30.4319 46.9508 35.5793 43.9791C40.7266 41.0071 43.3003 39.5213 44.8286 37.1539C45.0379 36.8295 45.2309 36.4952 45.407 36.1517C46.6932 33.6445 46.6932 30.6726 46.6932 24.7291C46.6932 18.7854 46.6932 15.8135 45.407 13.3063C45.2309 12.9629 45.0379 12.6285 44.8286 12.3043C43.3003 9.93676 40.7266 8.45085 35.5793 5.47902C30.4319 2.50719 27.8583 1.02127 25.0438 0.881539C24.6583 0.862404 24.2722 0.862404 23.8867 0.881539ZM17.4655 18.3124C13.9217 18.3124 11.0488 21.1852 11.0488 24.7291C11.0488 28.273 13.9217 31.1458 17.4655 31.1458C20.4026 31.1458 22.8789 29.1722 23.6405 26.4791H27.939C28.068 27.1114 27.9852 27.7767 27.69 28.3668L27.5668 28.6132C27.1347 29.4774 27.4852 30.5288 28.3494 30.961C29.2139 31.3931 30.2651 31.0429 30.6975 30.1784L30.8207 29.932C31.3615 28.85 31.5785 27.6532 31.4714 26.4791H34.939C35.068 27.1114 34.9852 27.7767 34.69 28.3668L34.5668 28.6132C34.1347 29.4774 34.4852 30.5288 35.3494 30.961C36.2139 31.3931 37.2651 31.0429 37.6975 30.1784L37.8207 29.932C38.7239 28.1255 38.7239 25.9991 37.8207 24.1927C37.4487 23.4488 36.6883 22.979 35.8567 22.979H29.1673C29.143 22.9785 29.1187 22.9785 29.0942 22.979H23.6405C22.8789 20.2858 20.4026 18.3124 17.4655 18.3124Z" fill="#FD9109"/>
</svg>
