<svg width="17" height="17" viewBox="0 0 17 17" fill="none" xmlns="http://www.w3.org/2000/svg">
<g clip-path="url(#clip0_353_109)">
<path d="M8.5 17C13.1944 17 17 13.1944 17 8.5C17 3.80558 13.1944 0 8.5 0C3.80558 0 0 3.80558 0 8.5C0 13.1944 3.80558 17 8.5 17Z" fill="#4AB8A1"/>
<path d="M16.6847 10.7925C16.662 10.7571 16.6342 10.7239 16.6016 10.697V10.6676C16.6016 10.5751 16.5463 10.4764 16.4688 10.4161V10.3954V10.3275C16.4688 10.2361 16.4132 10.1677 16.3359 10.1291V10.1234V10.1202V10.0552V9.98723C16.3359 9.89705 16.28 9.80741 16.2031 9.75176V9.71523V9.64723C16.2031 9.55852 16.1469 9.49755 16.0703 9.46316V9.4431V9.43978V9.37497V9.30697C16.0703 9.21931 16.0139 9.1383 15.9375 9.0869V9.03484V8.96684C15.9375 8.88037 15.8808 8.82632 15.8047 8.79617V8.7627V8.75938V8.69457V8.62657C15.8047 8.54131 15.7476 8.46799 15.6719 8.42111V8.41925V8.35444V8.28644C15.6719 8.20223 15.6148 8.11046 15.5391 8.04698V8.01417V7.94617C15.5391 7.86303 15.4817 7.79662 15.4062 7.75412V7.74217V7.67417C15.4062 7.58545 15.3501 7.51759 15.2734 7.47774V7.47004V7.46685V7.40204V7.33404C15.2734 7.24652 15.2169 7.15859 15.1406 7.10175V7.06191V6.99391C15.1406 6.90758 15.0839 6.84702 15.0078 6.81129V6.78977V6.78659V6.72177V6.65377C15.0078 6.56851 14.9507 6.48869 14.875 6.43636V6.38164V6.31364C14.875 6.22944 14.8179 6.17525 14.7422 6.14391V6.10938C14.7422 5.96328 14.6227 5.84375 14.4766 5.84375H14.0781H13.9453C13.7992 5.84375 13.6797 5.96328 13.6797 6.10938V6.13222L13.5956 6.21629L13.031 4.96493L12.6426 4.08027C12.4342 3.61157 11.9785 3.32031 11.4535 3.32031H5.54625C5.02151 3.32031 4.5657 3.61144 4.35691 4.0808L3.3745 6.31922L3.3073 6.25215C3.28963 6.20819 3.25377 6.17538 3.20769 6.15254L3.1875 6.13222V6.10938C3.1875 5.96328 3.06797 5.84375 2.92188 5.84375H2.78906H2.39062C2.24453 5.84375 2.125 5.96328 2.125 6.10938V6.17738V6.24219V6.24537V6.31019V6.37819C2.125 6.46133 2.18237 6.53384 2.25781 6.58179V6.58232V6.58551V6.65032V6.71832C2.25781 6.80053 2.31519 6.89058 2.39062 6.95459V6.99045V7.0473C2.14187 7.19764 1.99219 7.47429 1.99219 7.78467V7.85267V7.92067V9.46568V9.53381V9.60181C1.99219 10.0303 2.02207 10.4318 2.14439 10.7362C2.14691 10.7424 2.14904 10.749 2.15183 10.7553C2.16205 10.7797 2.17334 10.803 2.1849 10.8261C2.19273 10.8419 2.19964 10.8582 2.20827 10.8732C2.24533 11.0314 2.29885 11.1735 2.37216 11.2938C2.38598 11.3373 2.40138 11.379 2.41825 11.419C2.41878 11.42 2.41918 11.4211 2.41958 11.4219C2.4322 11.451 2.44561 11.4787 2.45995 11.5057C2.46487 11.515 2.46872 11.5251 2.47377 11.5344C2.51095 11.6921 2.56381 11.8345 2.63726 11.9545C2.66395 12.0384 2.69636 12.1162 2.7358 12.1869C2.74125 12.1967 2.74643 12.2068 2.75214 12.2164C2.75679 12.2246 2.7613 12.233 2.76635 12.2409C2.7791 12.2812 2.79318 12.3198 2.80859 12.357C2.80978 12.3597 2.81071 12.3621 2.81151 12.3646C2.82333 12.3923 2.83648 12.4189 2.84989 12.4448C2.85587 12.4565 2.86131 12.4688 2.86769 12.4801C2.90395 12.6379 2.95641 12.779 3.03012 12.898C3.05562 12.9799 3.08736 13.0557 3.12534 13.1247C3.128 13.1296 3.12999 13.135 3.13278 13.1397C3.1539 13.2312 3.18046 13.3174 3.21327 13.3969C3.21486 13.4004 3.21605 13.404 3.21738 13.4076C3.2288 13.4344 3.24155 13.4601 3.25417 13.4853C3.26041 13.4975 3.26573 13.5106 3.27237 13.5226C3.30969 13.6804 3.36321 13.8229 3.43639 13.9436C3.46163 14.0233 3.49284 14.0971 3.52936 14.1651C3.53202 14.1698 3.53401 14.1749 3.53653 14.1796C3.57425 14.3387 3.62724 14.4829 3.70135 14.6045C3.72831 14.6888 3.76125 14.7672 3.80096 14.8382C3.83961 15.0014 3.89406 15.1495 3.97109 15.273C3.99779 15.3563 4.03073 15.4336 4.06964 15.5043C4.09634 15.6174 4.13166 15.7222 4.17602 15.8176C5.44319 16.568 6.92073 17 8.5 17C12.3995 17 15.6838 14.3728 16.6847 10.7925Z" fill="#43A691"/>
<path d="M3.32031 6.90625C3.25231 6.90625 3.18444 6.88035 3.13251 6.82842L2.73408 6.42998C2.63035 6.32626 2.63035 6.15811 2.73408 6.05439C2.8378 5.95066 3.00594 5.95066 3.10967 6.05439L3.50811 6.45283C3.61183 6.55655 3.61183 6.72469 3.50811 6.82842C3.45618 6.88035 3.38831 6.90625 3.32031 6.90625Z" fill="#992B1F"/>
<path d="M3.50811 6.45283L3.10967 6.0544C3.04061 5.98533 2.94352 5.96329 2.85547 5.98613C2.89983 5.99755 2.94206 6.0196 2.97686 6.0544L3.3753 6.45283C3.47902 6.55656 3.47902 6.7247 3.3753 6.82843C3.3405 6.86323 3.29827 6.88527 3.25391 6.89669C3.27569 6.90227 3.29787 6.90626 3.32031 6.90626C3.38831 6.90626 3.45618 6.88036 3.50811 6.82843C3.61184 6.7247 3.61184 6.55656 3.50811 6.45283Z" fill="#80241A"/>
<path d="M3.1875 6.24219C3.1875 6.38828 3.06797 6.50781 2.92188 6.50781H2.39062C2.24453 6.50781 2.125 6.38828 2.125 6.24219V6.10938C2.125 5.96328 2.24453 5.84375 2.39062 5.84375H2.92188C3.06797 5.84375 3.1875 5.96328 3.1875 6.10938V6.24219Z" fill="#992B1F"/>
<path d="M2.92188 5.84375H2.78906C2.93516 5.84375 3.05469 5.96328 3.05469 6.10938V6.24219C3.05469 6.38828 2.93516 6.50781 2.78906 6.50781H2.92188C3.06797 6.50781 3.1875 6.38828 3.1875 6.24219V6.10938C3.1875 5.96328 3.06797 5.84375 2.92188 5.84375Z" fill="#80241A"/>
<path d="M13.5469 6.90625C13.6149 6.90625 13.6827 6.88035 13.7347 6.82842L14.1331 6.42998C14.2368 6.32626 14.2368 6.15811 14.1331 6.05439C14.0294 5.95066 13.8612 5.95066 13.7575 6.05439L13.3591 6.45283C13.2553 6.55655 13.2553 6.72469 13.3591 6.82842C13.411 6.88035 13.4789 6.90625 13.5469 6.90625Z" fill="#992B1F"/>
<path d="M13.3591 6.45283L13.7575 6.0544C13.8266 5.98533 13.9237 5.96329 14.0117 5.98613C13.9674 5.99755 13.9251 6.0196 13.8903 6.0544L13.4919 6.45283C13.3882 6.55656 13.3882 6.7247 13.4919 6.82843C13.5267 6.86323 13.5689 6.88527 13.6133 6.89669C13.5915 6.90227 13.5693 6.90626 13.5469 6.90626C13.4789 6.90626 13.411 6.88036 13.3591 6.82843C13.2553 6.7247 13.2553 6.55656 13.3591 6.45283Z" fill="#80241A"/>
<path d="M13.6797 6.24219C13.6797 6.38828 13.7992 6.50781 13.9453 6.50781H14.4766C14.6227 6.50781 14.7422 6.38828 14.7422 6.24219V6.10938C14.7422 5.96328 14.6227 5.84375 14.4766 5.84375H13.9453C13.7992 5.84375 13.6797 5.96328 13.6797 6.10938V6.24219Z" fill="#992B1F"/>
<path d="M13.9453 5.84375H14.0781C13.932 5.84375 13.8125 5.96328 13.8125 6.10938V6.24219C13.8125 6.38828 13.932 6.50781 14.0781 6.50781H13.9453C13.7992 6.50781 13.6797 6.38828 13.6797 6.24219V6.10938C13.6797 5.96328 13.7992 5.84375 13.9453 5.84375Z" fill="#80241A"/>
<path d="M12.5212 4.13419C12.3281 3.69976 11.9112 3.45312 11.4536 3.45312H8.5H5.54638C5.08898 3.45312 4.67195 3.69963 4.47884 4.13419L3.32031 6.77344H8.5H13.6797L12.5212 4.13419Z" fill="#C2E2F2"/>
<path d="M7.57031 6.64062C7.57031 6.93281 7.33125 7.17188 7.03906 7.17188H5.17969C4.8875 7.17188 4.64844 6.93281 4.64844 6.64062V5.84375C4.64844 5.55156 4.8875 5.3125 5.17969 5.3125H7.03906C7.33125 5.3125 7.57031 5.55156 7.57031 5.84375V6.64062Z" fill="#1A1A1A"/>
<path d="M12.3516 6.64062C12.3516 6.93281 12.1125 7.17188 11.8203 7.17188H9.96094C9.66875 7.17188 9.42969 6.93281 9.42969 6.64062V5.84375C9.42969 5.55156 9.66875 5.3125 9.96094 5.3125H11.8203C12.1125 5.3125 12.3516 5.55156 12.3516 5.84375V6.64062Z" fill="#1A1A1A"/>
<path d="M10.8906 7.83594C10.3781 7.83594 9.96094 7.41891 9.96094 6.90625C9.96094 6.39359 10.3781 5.97656 10.8906 5.97656C11.4031 5.97656 11.8203 6.39359 11.8203 6.90625C11.8203 7.41891 11.4031 7.83594 10.8906 7.83594ZM10.8906 6.24219C10.5245 6.24219 10.2266 6.54009 10.2266 6.90625C10.2266 7.27241 10.5245 7.57031 10.8906 7.57031C11.2568 7.57031 11.5547 7.27241 11.5547 6.90625C11.5547 6.54009 11.2568 6.24219 10.8906 6.24219Z" fill="#263740"/>
<path d="M13.6797 6.90625H3.32033C3.27544 6.90625 3.23373 6.88367 3.20916 6.84609C3.18459 6.8085 3.18061 6.76109 3.19867 6.72005L4.35719 4.0808C4.56584 3.61144 5.02152 3.32031 5.5464 3.32031H11.4538C11.9785 3.32031 12.4343 3.61144 12.6428 4.08027L13.8015 6.72005C13.8196 6.76109 13.8153 6.8085 13.791 6.84609C13.7666 6.88367 13.7246 6.90625 13.6797 6.90625ZM3.52366 6.64062H13.4764L12.3999 4.18758C12.235 3.81677 11.8723 3.58594 11.4538 3.58594H5.54653C5.12791 3.58594 4.76519 3.81663 4.60024 4.18811L3.52366 6.64062Z" fill="#992B1F"/>
<path d="M14.4953 6.99032L13.6797 6.64062H8.5H3.32031L2.50471 6.99032C2.18809 7.11822 1.99219 7.42953 1.99219 7.7848V9.46595C1.99219 10.3659 2.06298 11.1562 2.92188 11.1562H8.5H14.0781C14.937 11.1562 15.0078 10.3659 15.0078 9.46595V7.7848C15.0078 7.4294 14.8116 7.11822 14.4953 6.99032Z" fill="#CC584C"/>
<path d="M14.4953 6.99032L13.6797 6.64062H13.2812L14.0969 6.99032C14.4136 7.11822 14.6094 7.42953 14.6094 7.7848V9.46595C14.6094 10.3659 14.5386 11.1562 13.6797 11.1562H14.0781C14.937 11.1562 15.0078 10.3659 15.0078 9.46595V7.7848C15.0078 7.4294 14.8116 7.11822 14.4953 6.99032Z" fill="#BF5347"/>
<path d="M14.3438 9.42969C14.3438 9.86797 13.9852 10.2266 13.5469 10.2266H3.45312C3.01484 10.2266 2.65625 9.86797 2.65625 9.42969V8.76562C2.65625 8.32734 3.01484 7.96875 3.45312 7.96875H13.5469C13.9852 7.96875 14.3438 8.32734 14.3438 8.76562V9.42969Z" fill="#B34D43"/>
<path d="M10.7578 9.5625H6.24219C6.16874 9.5625 6.10938 9.622 6.10938 9.69531C6.10938 9.76862 6.16874 9.82812 6.24219 9.82812H10.7578C10.8313 9.82812 10.8906 9.76862 10.8906 9.69531C10.8906 9.622 10.8313 9.5625 10.7578 9.5625Z" fill="#802920"/>
<path d="M10.7578 9.16406H6.24219C6.16874 9.16406 6.10938 9.22356 6.10938 9.29688C6.10938 9.37019 6.16874 9.42969 6.24219 9.42969H10.7578C10.8313 9.42969 10.8906 9.37019 10.8906 9.29688C10.8906 9.22356 10.8313 9.16406 10.7578 9.16406Z" fill="#802920"/>
<path d="M10.7578 8.76562H6.24219C6.16874 8.76562 6.10938 8.82513 6.10938 8.89844C6.10938 8.97175 6.16874 9.03125 6.24219 9.03125H10.7578C10.8313 9.03125 10.8906 8.97175 10.8906 8.89844C10.8906 8.82513 10.8313 8.76562 10.7578 8.76562Z" fill="#802920"/>
<path d="M6.24219 8.63281H10.7578C10.8313 8.63281 10.8906 8.57331 10.8906 8.5C10.8906 8.42669 10.8313 8.36719 10.7578 8.36719H6.24219C6.16874 8.36719 6.10938 8.42669 6.10938 8.5C6.10938 8.57331 6.16874 8.63281 6.24219 8.63281Z" fill="#802920"/>
<path d="M5.17969 5.04688C5.14569 5.04688 5.11169 5.03386 5.08579 5.00796C5.03386 4.95603 5.03386 4.8721 5.08579 4.82017L5.74985 4.1561C5.80178 4.10417 5.88572 4.10417 5.93765 4.1561C5.98958 4.20803 5.98958 4.29197 5.93765 4.3439L5.27359 5.00796C5.24769 5.03386 5.21369 5.04688 5.17969 5.04688Z" fill="#E6F7FF"/>
<path d="M5.17969 6.10938C5.14569 6.10938 5.11169 6.09636 5.08579 6.07046C5.03386 6.01853 5.03386 5.9346 5.08579 5.88267L6.81235 4.1561C6.86428 4.10417 6.94822 4.10417 7.00015 4.1561C7.05208 4.20803 7.05208 4.29197 7.00015 4.3439L5.27359 6.07046C5.24769 6.09636 5.21369 6.10938 5.17969 6.10938Z" fill="#E6F7FF"/>
<path d="M3.58594 11.1562V11.9531C3.58594 12.5667 4.06008 12.4844 4.64844 12.4844C5.2368 12.4844 5.71094 12.5667 5.71094 11.9531V11.1562H3.58594Z" fill="#242424"/>
<path d="M11.2891 11.1562V11.9531C11.2891 12.5667 11.7632 12.4844 12.3516 12.4844C12.9399 12.4844 13.4141 12.5667 13.4141 11.9531V11.1562H11.2891Z" fill="#242424"/>
<path d="M11.9531 12.4844C11.9199 12.4844 11.8873 12.4846 11.855 12.485C11.9469 12.4893 12.0468 12.488 12.1523 12.4865C12.0878 12.4854 12.0214 12.4844 11.9531 12.4844Z" fill="#1A1A1A"/>
<path d="M13.0156 11.1562V11.9531C13.0156 12.3793 12.7865 12.4696 12.4497 12.485C12.9917 12.4917 13.4141 12.5321 13.4141 11.9531V11.1562H13.0156Z" fill="#1A1A1A"/>
<path d="M4.25 12.4844C4.2168 12.4844 4.18413 12.4846 4.15186 12.485C4.24376 12.4893 4.34364 12.488 4.44922 12.4865C4.38468 12.4854 4.31827 12.4844 4.25 12.4844Z" fill="#1A1A1A"/>
<path d="M5.3125 11.1562V11.9531C5.3125 12.3793 5.08339 12.4696 4.74658 12.485C5.28859 12.4917 5.71093 12.5321 5.71093 11.9531V11.1562H5.3125Z" fill="#1A1A1A"/>
<path d="M4.51562 9.03125C4.51562 9.3249 4.27802 9.5625 3.98424 9.5625C3.69073 9.5625 3.45312 9.3249 3.45312 9.03125C3.45312 8.7376 3.69073 8.5 3.98424 8.5C4.27802 8.5 4.51562 8.7376 4.51562 9.03125Z" fill="#F5F5F5"/>
<path d="M3.98424 9.69531C3.61808 9.69531 3.32031 9.39741 3.32031 9.03125C3.32031 8.66509 3.61808 8.36719 3.98424 8.36719C4.35054 8.36719 4.64844 8.66509 4.64844 9.03125C4.64844 9.39741 4.35054 9.69531 3.98424 9.69531ZM3.98424 8.63281C3.7647 8.63281 3.58594 8.81158 3.58594 9.03125C3.58594 9.25092 3.7647 9.42969 3.98424 9.42969C4.20378 9.42969 4.38281 9.25092 4.38281 9.03125C4.38281 8.81158 4.20378 8.63281 3.98424 8.63281Z" fill="#263740"/>
<path d="M13.5469 9.03125C13.5469 9.3249 13.3093 9.5625 13.0155 9.5625C12.722 9.5625 12.4844 9.3249 12.4844 9.03125C12.4844 8.7376 12.722 8.5 13.0155 8.5C13.3093 8.5 13.5469 8.7376 13.5469 9.03125Z" fill="#F5F5F5"/>
<path d="M13.0155 9.69531C12.6493 9.69531 12.3516 9.39741 12.3516 9.03125C12.3516 8.66509 12.6493 8.36719 13.0155 8.36719C13.3818 8.36719 13.6797 8.66509 13.6797 9.03125C13.6797 9.39741 13.3818 9.69531 13.0155 9.69531ZM13.0155 8.63281C12.796 8.63281 12.6172 8.81158 12.6172 9.03125C12.6172 9.25092 12.796 9.42969 13.0155 9.42969C13.235 9.42969 13.4141 9.25092 13.4141 9.03125C13.4141 8.81158 13.235 8.63281 13.0155 8.63281Z" fill="#263740"/>
<path d="M8.63281 3.58594H8.36719V3.98438H8.63281V3.58594Z" fill="#263740"/>
<path d="M9.178 4.14521C9.24347 4.2759 9.17733 4.38281 9.03124 4.38281H7.96874C7.82265 4.38281 7.7565 4.2759 7.82198 4.14521L7.85 4.08916C7.91535 3.95848 8.08827 3.85156 8.23436 3.85156H8.76561C8.91171 3.85156 9.08463 3.95848 9.15011 4.08916L9.178 4.14521Z" fill="#263740"/>
</g>
<defs>
<clipPath id="clip0_353_109">
<rect width="17" height="17" fill="white"/>
</clipPath>
</defs>
</svg>
