<svg width="17" height="17" viewBox="0 0 17 17" fill="none" xmlns="http://www.w3.org/2000/svg">
<g clip-path="url(#clip0_320_25)">
<path d="M8.5 17C13.1944 17 17 13.1944 17 8.5C17 3.80558 13.1944 0 8.5 0C3.80558 0 0 3.80558 0 8.5C0 13.1944 3.80558 17 8.5 17Z" fill="#6DC180"/>
<path d="M8.5 0V17C13.1944 17 17 13.1944 17 8.5C17 3.80558 13.1944 0 8.5 0Z" fill="#5CA15D"/>
<path d="M7.28575 12.2165L3.60608 8.53678L4.89396 7.2489L7.28575 9.64062L11.8025 5.1239L13.0904 6.41178L7.28575 12.2165Z" fill="#F2F2F4"/>
<path d="M8.5 11.0022L13.0904 6.41178L11.8025 5.1239L8.5 8.42635V11.0022Z" fill="#DFDFE1"/>
</g>
<defs>
<clipPath id="clip0_320_25">
<rect width="17" height="17" fill="white"/>
</clipPath>
</defs>
</svg>
