<svg width="22" height="22" viewBox="0 0 22 22" fill="none" xmlns="http://www.w3.org/2000/svg">
<rect x="0.5" y="0.5" width="21" height="21" rx="10.5" fill="white" stroke="#FFD43D"/>
<g clip-path="url(#clip0_459_20)">
<path d="M16.9895 9.63486C16.9641 9.5571 16.8969 9.5004 16.8159 9.48858L12.9303 8.92389L11.1926 5.40295C11.1565 5.32949 11.0817 5.2831 11.0001 5.2831C10.9185 5.2831 10.8435 5.32949 10.8076 5.40295L9.06974 8.9241L5.18408 9.4888C5.1031 9.50061 5.03608 9.5571 5.01052 9.63507C4.98539 9.71262 5.00623 9.7981 5.06487 9.85503L7.87676 12.5958L7.21283 16.466C7.19908 16.5466 7.23216 16.628 7.2981 16.6761C7.36447 16.7246 7.45232 16.7309 7.52428 16.6924L11.0001 14.8654L14.4755 16.6924C14.5069 16.7089 14.5414 16.7171 14.5756 16.7171C14.6201 16.7171 14.6643 16.7034 14.7019 16.6761C14.7681 16.628 14.8011 16.5466 14.7872 16.466L14.1235 12.596L16.9353 9.85503C16.9938 9.79768 17.0148 9.7124 16.9895 9.63486Z" fill="#FFD43D"/>
</g>
<defs>
<clipPath id="clip0_459_20">
<rect width="12" height="12" fill="white" transform="translate(5 5)"/>
</clipPath>
</defs>
</svg>
