<svg width="22" height="22" viewBox="0 0 22 22" fill="none" xmlns="http://www.w3.org/2000/svg">
<rect x="0.5" y="0.5" width="21" height="21" rx="10.5" fill="#FFD43D" stroke="#FFD43D"/>
<g clip-path="url(#clip0_459_21)">
<path d="M16.9895 9.63486C16.9641 9.5571 16.8969 9.5004 16.8159 9.48858L12.9303 8.92389L11.1926 5.40295C11.1565 5.32949 11.0817 5.2831 11.0001 5.2831C10.9185 5.2831 10.8435 5.32949 10.8077 5.40295L9.06975 8.9241L5.18409 9.4888C5.10312 9.50061 5.0361 9.5571 5.01054 9.63507C4.98541 9.71262 5.00624 9.7981 5.06488 9.85503L7.87677 12.5958L7.21284 16.466C7.19909 16.5466 7.23217 16.628 7.29811 16.6761C7.36449 16.7246 7.45234 16.7309 7.52429 16.6924L11.0001 14.8654L14.4755 16.6924C14.5069 16.7089 14.5415 16.7171 14.5756 16.7171C14.6201 16.7171 14.6643 16.7034 14.7019 16.6761C14.7681 16.628 14.8011 16.5466 14.7872 16.466L14.1235 12.596L16.9354 9.85503C16.9938 9.79768 17.0148 9.7124 16.9895 9.63486Z" fill="white"/>
</g>
<defs>
<clipPath id="clip0_459_21">
<rect width="12" height="12" fill="white" transform="translate(5 5)"/>
</clipPath>
</defs>
</svg>
