<svg width="17" height="17" viewBox="0 0 17 17" fill="none" xmlns="http://www.w3.org/2000/svg">
<g clip-path="url(#clip0_353_88)">
<path d="M8.49995 0C3.8057 0 0 3.80539 0 8.50015C0 13.1944 3.80566 17 8.49991 17C13.1944 17 17 13.1944 17 8.50015C17 3.80539 13.1944 0 8.49995 0Z" fill="#A3D5E0"/>
<path d="M8.50001 3.349C8.50001 3.349 3.29657 7.66628 3.29657 8.1064V12.246C3.29657 12.6861 3.65332 13.0431 4.0936 13.0431H6.88994V10.5717C6.88994 9.99688 7.35589 9.53107 7.93065 9.53107H9.10133C9.67596 9.53107 10.142 9.99688 10.142 10.5717V13.0431H12.9933C13.4334 13.0431 13.7902 12.6861 13.7902 12.246V8.10643C13.7902 7.66628 8.50001 3.349 8.50001 3.349Z" fill="#E5AA17"/>
<path d="M14.9526 7.85819L8.89121 2.62145C8.66222 2.42368 8.31651 2.44883 8.11877 2.67767C7.92104 2.90679 7.94629 3.25255 8.17524 3.45018L14.2366 8.68688C14.4655 8.88455 14.8113 8.85923 15.0089 8.63042C15.2067 8.40144 15.1815 8.05582 14.9526 7.85819Z" fill="#C69422"/>
<path d="M8.96998 2.67764C8.77232 2.4488 8.42667 2.42365 8.19775 2.62142L2.13619 7.85819C1.90731 8.05586 1.88209 8.40147 2.07979 8.63046C2.27746 8.8593 2.62318 8.88459 2.85209 8.68692L8.91358 3.45021C9.14253 3.25251 9.16778 2.9068 8.96998 2.67764Z" fill="#C69422"/>
</g>
<defs>
<clipPath id="clip0_353_88">
<rect width="17" height="17" fill="white"/>
</clipPath>
</defs>
</svg>
