<svg width="22" height="22" viewBox="0 0 22 22" fill="none" xmlns="http://www.w3.org/2000/svg">
<g clip-path="url(#clip0_338_107)">
<path d="M21.5 11C21.5 16.799 16.799 21.5 11 21.5C5.20101 21.5 0.5 16.799 0.5 11C0.5 5.20101 5.20101 0.5 11 0.5C16.799 0.5 21.5 5.20101 21.5 11Z" fill="white" stroke="#D95459"/>
<path d="M15.4444 9.78007C15.4444 8.55274 14.4495 7.55785 13.2222 7.55785C11.9949 7.55785 11 8.55274 11 9.78007C11 8.55274 10.0051 7.55785 8.77776 7.55785C7.55043 7.55785 6.55554 8.55274 6.55554 9.78007C6.55554 12.743 11 15.0347 11 15.0347C11 15.0347 15.4444 12.7276 15.4444 9.78007Z" fill="#C63C22"/>
</g>
<defs>
<clipPath id="clip0_338_107">
<rect width="22" height="22" fill="white"/>
</clipPath>
</defs>
</svg>
