<svg width="22" height="22" viewBox="0 0 22 22" fill="none" xmlns="http://www.w3.org/2000/svg">
<path d="M14.6666 3.05556V4.88889H20.1666V11.4003V13.3458V17.1111H14.6666V18.9444H22V3.05556H14.6666Z" fill="#CDCDD0"/>
<path d="M14.6667 3.05556H7.33337V4.88889H14.6667V3.05556Z" fill="#EBEBEC"/>
<path d="M9.27365 17.1111H7.33337V18.9444H14.6667V17.1111H9.27365Z" fill="#EBEBEC"/>
<path d="M1.83333 17.1111V6.83442V4.88889H7.33333V3.05556H0V18.9444H7.33333V17.1111H1.83333Z" fill="#CDCDD0"/>
<path d="M8.25004 10.0833C8.25004 9.76269 8.30547 9.45512 8.40636 9.16893L1.83337 6.83443V17.1111H7.33337L9.00385 12.2895C8.57619 11.5927 8.25004 10.82 8.25004 10.0833Z" fill="#64C37D"/>
<path d="M10.9999 14.6667C10.9999 14.6667 10.7233 14.4206 10.3456 14.0168L9.27356 17.1111H14.6666H20.1666V13.3458L13.5969 11.0125C13.0189 12.8719 10.9999 14.6667 10.9999 14.6667Z" fill="#64C37D"/>
<path d="M9.00385 12.2895L7.33337 17.1111H9.27365L10.3457 14.0167C9.94251 13.5855 9.42423 12.9744 9.00385 12.2895Z" fill="#99EFF2"/>
<path d="M1.83337 4.88889L9.67442 7.67379C10.0676 7.45697 10.5193 7.33334 11 7.33334C12.1531 7.33334 13.1398 8.04333 13.5484 9.0497L20.1667 11.4003V4.88889H14.6667H7.33337H1.83337Z" fill="#78B9EB"/>
<path d="M9.67442 7.67379L1.83337 4.88889V6.83443L8.40636 9.16893C8.63205 8.52873 9.08763 7.99725 9.67442 7.67379Z" fill="#FFDA44"/>
<path d="M13.7499 10.0833C13.7499 10.3895 13.6934 10.7018 13.5969 11.0125L20.1666 13.3458V11.4003L13.5483 9.04976C13.678 9.36894 13.7499 9.71764 13.7499 10.0833Z" fill="#FFDA44"/>
<path d="M8.40632 9.16893C8.30543 9.45511 8.25 9.76269 8.25 10.0833C8.25 10.82 8.57615 11.5927 9.00381 12.2895C9.42419 12.9744 9.94247 13.5856 10.3457 14.0168C10.7234 14.4206 11 14.6667 11 14.6667V11C10.4938 11 10.0833 10.5896 10.0833 10.0833C10.0833 9.57709 10.4938 9.16667 11 9.16667V7.33334C10.5193 7.33334 10.0676 7.45696 9.67438 7.67379C9.08759 7.99725 8.63201 8.52873 8.40632 9.16893Z" fill="#FF5023"/>
<path d="M11.9167 10.0833C11.9167 10.5896 11.5062 11 11 11V14.6667C11 14.6667 13.0189 12.8719 13.5969 11.0125C13.6935 10.7018 13.75 10.3895 13.75 10.0833C13.75 9.71765 13.678 9.36895 13.5484 9.0497C13.1398 8.04332 12.153 7.33334 11 7.33334V9.16667C11.5062 9.16667 11.9167 9.57709 11.9167 10.0833Z" fill="#BF3C1A"/>
<path d="M11 11C11.5063 11 11.9167 10.5896 11.9167 10.0833C11.9167 9.57708 11.5063 9.16667 11 9.16667C10.4938 9.16667 10.0834 9.57708 10.0834 10.0833C10.0834 10.5896 10.4938 11 11 11Z" fill="white"/>
</svg>
