<svg width="25" height="25" viewBox="0 0 25 25" fill="none" xmlns="http://www.w3.org/2000/svg">
<g clip-path="url(#clip0_330_1181)">
<path d="M12.5 25.0001C19.4036 25.0001 25.0001 19.4036 25.0001 12.5C25.0001 5.59645 19.4036 0 12.5 0C5.59645 0 0 5.59645 0 12.5C0 19.4036 5.59645 25.0001 12.5 25.0001Z" fill="#357180"/>
<path d="M3.86385 8.34047L5.65335 19.5461L21.1432 17.0724L19.3537 5.86681L3.86385 8.34047Z" fill="#EBF6F9"/>
<path d="M20.7121 16.537L6.0339 18.9531L4.37 8.7567L19.0485 6.34058L20.7121 16.537Z" fill="#DBF0F5"/>
<path d="M20.2475 14.7411L17.9343 13.0823C17.9343 13.0823 17.2446 12.4426 16.7212 12.5592C16.2498 12.6648 15.7921 13.3519 15.7058 13.4873L14.9303 12.9311C14.9303 12.9311 14.1219 12.1807 13.5082 12.3182C12.8944 12.4554 12.2967 13.4403 12.2967 13.4403L12.1266 13.6768L10.667 12.6293C10.667 12.6293 9.67361 11.7075 8.9196 11.8759C8.16543 12.0445 7.43036 13.2552 7.43036 13.2552L5.66855 15.711L6.17442 18.7741L20.5215 16.412L20.2475 14.7411Z" fill="#6CC077"/>
<path d="M13.0217 9.97571C13.0209 9.95893 13.0297 9.94295 13.0262 9.92597C12.9832 9.66464 12.666 9.49964 12.3178 9.55666C12.272 9.56436 12.2337 9.58372 12.1913 9.59754C12.0644 9.47616 11.8579 9.41001 11.63 9.44736C11.3349 9.49589 11.127 9.69487 11.1061 9.91336C10.829 10.0172 10.6442 10.2394 10.6825 10.4721C10.7188 10.6922 10.9407 10.842 11.2152 10.8657C11.338 11.052 11.6064 11.1586 11.9039 11.1099C12.1735 11.0655 12.3821 10.9074 12.4615 10.7181C12.5349 10.73 12.6123 10.7309 12.6932 10.7177C13.0023 10.6672 13.2217 10.4379 13.1841 10.2055C13.1683 10.1103 13.1044 10.0345 13.0217 9.97571Z" fill="#67B8CB"/>
<path d="M16.0668 10.0845C16.0627 10.073 16.0532 10.064 16.0514 10.0523C16.0211 9.86714 16.1971 9.68299 16.4442 9.64232C16.477 9.63699 16.507 9.64132 16.5384 9.64132C16.5962 9.53001 16.7206 9.4386 16.8818 9.41217C17.092 9.37725 17.277 9.46408 17.3413 9.60598C17.5515 9.61325 17.7264 9.72044 17.7535 9.88608C17.7793 10.0426 17.6635 10.1938 17.4848 10.2724C17.4449 10.4253 17.2879 10.5588 17.0769 10.5935C16.8852 10.6251 16.7088 10.5657 16.6118 10.4571C16.5652 10.4814 16.5131 10.4999 16.4561 10.5092C16.2362 10.5455 16.0362 10.4413 16.0092 10.2763C15.9976 10.2086 16.0234 10.1431 16.0668 10.0845Z" fill="#67B8CB"/>
<path d="M18.8319 19.1096C20.639 19.1096 22.1039 17.6448 22.1039 15.8377C22.1039 14.0307 20.639 12.5658 18.8319 12.5658C17.0249 12.5658 15.56 14.0307 15.56 15.8377C15.56 17.6448 17.0249 19.1096 18.8319 19.1096Z" fill="#0EA24A"/>
<path d="M19.4379 14.1382H18.4372V17.6172H19.4379V14.1382Z" fill="white"/>
<path d="M20.6769 15.3778H17.1977V16.3786H20.6769V15.3778Z" fill="white"/>
</g>
<defs>
<clipPath id="clip0_330_1181">
<rect width="25" height="25" fill="white"/>
</clipPath>
</defs>
</svg>
