<svg width="25" height="25" viewBox="0 0 25 25" fill="none" xmlns="http://www.w3.org/2000/svg">
<g clip-path="url(#clip0_320_85)">
<path d="M12.5 25C19.4036 25 25 19.4036 25 12.5C25 5.59644 19.4036 0 12.5 0C5.59644 0 0 5.59644 0 12.5C0 19.4036 5.59644 25 12.5 25Z" fill="#039BE5"/>
<path d="M12.5 0V25C19.4036 25 25 19.4036 25 12.5C25 5.59644 19.4036 0 12.5 0Z" fill="#039BE5"/>
<path d="M10.7143 17.9654L5.30302 12.5541L7.19697 10.6602L10.7143 14.1774L17.3566 7.53516L19.2505 9.4291L10.7143 17.9654Z" fill="#F2F2F4"/>
<path d="M12.5 16.1797L19.2505 9.4291L17.3566 7.53516L12.5 12.3917V16.1797Z" fill="#DFDFE1"/>
</g>
<defs>
<clipPath id="clip0_320_85">
<rect width="25" height="25" fill="white"/>
</clipPath>
</defs>
</svg>
