<svg width="31" height="31" viewBox="0 0 31 31" fill="none" xmlns="http://www.w3.org/2000/svg">
<g clip-path="url(#clip0_361_3)">
<path d="M15.5 31C24.0604 31 31 24.0604 31 15.5C31 6.93959 24.0604 0 15.5 0C6.93959 0 0 6.93959 0 15.5C0 24.0604 6.93959 31 15.5 31Z" fill="#6F3FAA"/>
<path d="M22.2244 8.50342C18.4516 7.59219 14.6721 6.52633 10.803 7.88052C8.29794 8.8199 8.29794 11.5337 8.40232 13.83C8.40232 14.4563 7.67171 15.2913 7.98479 16.022C8.61103 18.1095 9.13294 20.197 11.3249 21.2408C11.638 21.4496 11.3249 21.867 11.5336 22.1802C11.4292 22.1802 11.2205 22.2846 11.2205 22.3889C11.2205 22.8892 11.445 23.6545 11.2959 24.1478L17.9564 30.8056C24.8036 29.7151 30.1552 24.1413 30.9082 17.1873L22.2244 8.50342Z" fill="#512D84"/>
<path d="M23.6997 10.8938L23.6946 10.8733C23.2804 9.19902 21.4133 7.40248 19.6986 7.02872L19.6793 7.02472C16.9059 6.49567 14.0938 6.49567 11.321 7.02472L11.3011 7.02872C9.58698 7.40248 7.71978 9.19914 7.30509 10.8733L7.30049 10.8938C6.78851 13.2319 6.78851 15.6032 7.30049 17.9413L7.30509 17.9618C7.70216 19.5646 9.43023 21.2787 11.0809 21.75V23.619C11.0809 24.2955 11.9053 24.6277 12.374 24.1395L14.2676 22.1712C14.6784 22.1941 15.0893 22.207 15.5001 22.207C16.8961 22.207 18.2928 22.0749 19.6792 21.8105L19.6986 21.8065C21.4132 21.4327 23.2804 19.636 23.6945 17.9619L23.6996 17.9414C24.2116 15.6032 24.2116 13.232 23.6997 10.8938ZM22.2011 17.6023C21.9246 18.6946 20.5069 20.0526 19.3805 20.3035C17.9059 20.584 16.4195 20.7038 14.9347 20.6627C14.9051 20.6618 14.8767 20.6733 14.8562 20.6945C14.6454 20.9108 13.4736 22.1139 13.4736 22.1139L12.003 23.6232C11.8955 23.7353 11.7066 23.6589 11.7066 23.5043V20.4081C11.7066 20.357 11.6701 20.3136 11.6198 20.3036C11.6195 20.3035 11.6193 20.3035 11.619 20.3034C10.4926 20.0525 9.07542 18.6946 8.79842 17.6023C8.3376 15.4888 8.3376 13.3463 8.79842 11.2329C9.07542 10.1405 10.4926 8.78258 11.619 8.53167C14.1944 8.04185 16.8057 8.04185 19.3806 8.53167C20.5075 8.78258 21.9246 10.1405 22.2011 11.2329C22.6624 13.3464 22.6624 15.4889 22.2011 17.6023Z" fill="white"/>
<path d="M17.9503 19.0315C17.7772 18.9788 17.6122 18.9435 17.4588 18.88C15.8706 18.2211 14.409 17.371 13.2513 16.068C12.5929 15.327 12.0776 14.4904 11.642 13.6051C11.4354 13.1853 11.2614 12.7491 11.0839 12.3155C10.9221 11.9203 11.1604 11.512 11.4113 11.2141C11.6468 10.9345 11.9498 10.7207 12.278 10.563C12.5341 10.4399 12.7867 10.5109 12.9738 10.7279C13.3781 11.1973 13.7497 11.6906 14.0503 12.2347C14.2353 12.5694 14.1846 12.9784 13.8493 13.2061C13.7678 13.2615 13.6936 13.3265 13.6177 13.389C13.5511 13.4438 13.4885 13.4991 13.4429 13.5733C13.3595 13.709 13.3555 13.8691 13.4091 14.0167C13.8225 15.1526 14.5192 16.036 15.6626 16.5118C15.8456 16.5879 16.0293 16.6765 16.2401 16.652C16.5931 16.6107 16.7074 16.2235 16.9548 16.0212C17.1966 15.8235 17.5056 15.8209 17.766 15.9857C18.0266 16.1506 18.279 16.3276 18.5301 16.5065C18.7765 16.6821 19.0218 16.8537 19.249 17.0539C19.4676 17.2464 19.5428 17.4989 19.4197 17.76C19.1945 18.2384 18.8666 18.6363 18.3938 18.8903C18.2603 18.9619 18.1009 18.9851 17.9503 19.0315C17.7772 18.9788 18.1009 18.9851 17.9503 19.0315Z" fill="white"/>
<path d="M15.5043 10.016C17.5816 10.0742 19.2879 11.4528 19.6535 13.5065C19.7158 13.8565 19.738 14.2142 19.7657 14.5694C19.7774 14.7188 19.6927 14.8607 19.5316 14.8627C19.3651 14.8647 19.2902 14.7254 19.2793 14.5761C19.2579 14.2805 19.2431 13.9835 19.2023 13.6905C18.9873 12.143 17.7534 10.8627 16.213 10.588C15.9812 10.5467 15.7441 10.5358 15.5092 10.5112C15.3608 10.4956 15.1665 10.4866 15.1336 10.3021C15.1061 10.1474 15.2366 10.0243 15.3839 10.0163C15.4238 10.014 15.4641 10.0158 15.5043 10.016C17.5817 10.0742 15.4641 10.0158 15.5043 10.016Z" fill="white"/>
<path d="M18.6613 14.1085C18.6578 14.1345 18.6561 14.1955 18.6408 14.2529C18.5857 14.4614 18.2694 14.4875 18.1967 14.2771C18.1751 14.2147 18.1719 14.1436 18.1718 14.0764C18.171 13.6364 18.0754 13.1969 17.8535 12.814C17.6254 12.4205 17.2769 12.0899 16.8683 11.8897C16.6211 11.7687 16.354 11.6934 16.0831 11.6487C15.9647 11.6291 15.8451 11.6173 15.7261 11.6007C15.5819 11.5806 15.5049 11.4888 15.5118 11.3467C15.5182 11.2137 15.6155 11.1178 15.7605 11.1261C16.2372 11.1531 16.6977 11.2563 17.1216 11.4807C17.9835 11.9371 18.4758 12.6575 18.6196 13.6196C18.626 13.6632 18.6365 13.7063 18.6398 13.75C18.6479 13.8579 18.653 13.966 18.6613 14.1085C18.6578 14.1344 18.653 13.966 18.6613 14.1085Z" fill="white"/>
<path d="M17.3692 14.0582C17.1954 14.0614 17.1024 13.9651 17.0844 13.8059C17.072 13.6948 17.0621 13.5822 17.0356 13.4741C16.9834 13.2611 16.8702 13.0639 16.6911 12.9334C16.6066 12.8718 16.5107 12.8269 16.4104 12.7979C16.283 12.761 16.1505 12.7712 16.0234 12.74C15.8853 12.7062 15.8089 12.5943 15.8306 12.4648C15.8504 12.3469 15.965 12.2548 16.0939 12.2642C16.8993 12.3223 17.475 12.7387 17.5571 13.6869C17.563 13.7538 17.5698 13.8244 17.5549 13.8886C17.5294 13.998 17.4483 14.0529 17.3692 14.0582C17.1954 14.0613 17.4483 14.0529 17.3692 14.0582Z" fill="white"/>
<path d="M23.6997 10.8939L23.6946 10.8734C23.4624 9.93486 22.7735 8.958 21.911 8.21472L20.7449 9.24814C21.4383 9.80063 22.0324 10.566 22.2012 11.2329C22.6626 13.3464 22.6626 15.4888 22.2012 17.6024C21.9247 18.6947 20.507 20.0527 19.3806 20.3036C17.906 20.584 16.4196 20.7038 14.9348 20.6627C14.9052 20.6619 14.8768 20.6734 14.8563 20.6946C14.6455 20.9109 13.4737 22.1139 13.4737 22.1139L12.0032 23.6232C11.8956 23.7354 11.7067 23.6591 11.7067 23.5043V20.4082C11.7067 20.357 11.6702 20.3136 11.62 20.3037C11.6197 20.3037 11.6194 20.3036 11.6191 20.3036C10.979 20.161 10.2452 19.6607 9.67992 19.055L8.52771 20.076C9.24731 20.8588 10.1754 21.4917 11.0809 21.7502V23.6192C11.0809 24.2957 11.9052 24.6279 12.3739 24.1397L14.2676 22.1714C14.6783 22.1943 15.0891 22.2072 15.5 22.2072C16.8961 22.2072 18.2928 22.0751 19.6792 21.8106L19.6985 21.8067C21.4132 21.433 23.2803 19.6364 23.6945 17.9621L23.6995 17.9416C24.2116 15.6033 24.2116 13.2321 23.6997 10.8939Z" fill="#D1D1D1"/>
<path d="M17.9503 19.0315C18.1008 18.9852 17.7772 18.9789 17.9503 19.0315V19.0315Z" fill="white"/>
<path d="M19.2491 17.0539C19.0219 16.8538 18.7765 16.682 18.5302 16.5064C18.2792 16.3275 18.0267 16.1506 17.7661 15.9857C17.5057 15.8209 17.1968 15.8235 16.9549 16.0211C16.7075 16.2234 16.5933 16.6107 16.2402 16.6519C16.0295 16.6764 15.8457 16.5878 15.6627 16.5118C14.9593 16.2191 14.4255 15.7715 14.022 15.2064L13.1647 15.9663C13.1938 16 13.2216 16.0346 13.2512 16.0679C14.409 17.371 15.8707 18.221 17.4587 18.88C17.612 18.9436 17.7771 18.9789 17.9503 19.0314C17.7771 18.9788 18.1009 18.9851 17.9503 19.0314C18.1009 18.9851 18.2603 18.9618 18.3939 18.8902C18.8668 18.6362 19.1946 18.2382 19.4198 17.7599C19.543 17.4988 19.4677 17.2464 19.2491 17.0539Z" fill="#D1D1D1"/>
<path d="M15.5091 10.0163C15.5075 10.0163 15.5059 10.0162 15.5044 10.0162C15.5028 10.016 15.5048 10.0162 15.5091 10.0163Z" fill="white"/>
<path d="M15.5043 10.016C15.5061 10.016 15.5078 10.0162 15.5095 10.0162C15.6248 10.0203 17.4998 10.0719 15.5043 10.016Z" fill="white"/>
<path d="M18.4841 11.2518L18.1185 11.5758C18.6929 12.1347 19.089 12.8753 19.2023 13.6904C19.2429 13.9836 19.2579 14.2804 19.2793 14.576C19.2901 14.7254 19.3649 14.8647 19.5316 14.8628C19.6928 14.8608 19.7774 14.7189 19.7657 14.5695C19.7379 14.2143 19.7158 13.8565 19.6535 13.5066C19.4935 12.6076 19.0765 11.838 18.4841 11.2518Z" fill="#D1D1D1"/>
<path d="M18.6194 13.6193C18.5147 12.9183 18.2239 12.3462 17.7409 11.9104L17.3764 12.2334C17.5649 12.4007 17.7279 12.5972 17.8535 12.8139C18.0754 13.1967 18.171 13.6363 18.1717 14.0762C18.1719 14.1434 18.1751 14.2145 18.1967 14.2771C18.2695 14.4876 18.5857 14.4615 18.6408 14.2528C18.6561 14.1953 18.6578 14.1343 18.6613 14.1085C18.6578 14.1345 18.6529 13.966 18.6613 14.1085C18.6529 13.966 18.6478 13.8579 18.6397 13.7499C18.6364 13.706 18.626 13.6629 18.6194 13.6193Z" fill="#D1D1D1"/>
<path d="M18.6613 14.1085C18.653 13.966 18.6578 14.1344 18.6613 14.1085V14.1085Z" fill="white"/>
<path d="M17.3685 14.0581C17.3711 14.0579 17.3736 14.0566 17.3762 14.0563C17.3691 14.0563 17.3582 14.0565 17.347 14.0569C17.3543 14.057 17.3609 14.0581 17.3685 14.0581Z" fill="white"/>
<path d="M17.3692 14.058C17.3614 14.0582 17.3545 14.057 17.347 14.0568C17.3094 14.0578 17.2706 14.0598 17.3692 14.058Z" fill="white"/>
<path d="M17.3769 14.0563C17.3742 14.0566 17.3717 14.0579 17.3692 14.0581C17.3889 14.0567 17.3872 14.0563 17.3769 14.0563Z" fill="white"/>
<path d="M17.0024 12.5649L16.6314 12.8938C16.6518 12.9062 16.6719 12.9192 16.6913 12.9333C16.8704 13.0638 16.9836 13.261 17.0358 13.474C17.0623 13.5821 17.0721 13.6946 17.0846 13.8058C17.1018 13.9579 17.1882 14.0515 17.3472 14.0569C17.3587 14.0566 17.3701 14.0564 17.3773 14.0563C17.4538 14.0479 17.5306 13.9942 17.5551 13.8884C17.5699 13.8244 17.5631 13.7536 17.5573 13.6867C17.5111 13.1566 17.3107 12.7929 17.0024 12.5649Z" fill="#D1D1D1"/>
</g>
<defs>
<clipPath id="clip0_361_3">
<rect width="31" height="31" fill="white"/>
</clipPath>
</defs>
</svg>
