<svg width="25" height="25" viewBox="0 0 25 25" fill="none" xmlns="http://www.w3.org/2000/svg">
<rect width="25" height="25" rx="12.5" fill="#357180"/>
<path fill-rule="evenodd" clip-rule="evenodd" d="M13.9321 8.0695C12.2895 7.89692 10.6341 7.88408 8.989 8.03117L7.89054 8.12938C6.9828 8.21054 6.24937 8.90401 6.11753 9.80579C5.85633 11.5924 5.85633 13.4075 6.11753 15.1941C6.24937 16.0959 6.9828 16.7893 7.89054 16.8705L8.989 16.9687C10.6341 17.1158 12.2895 17.103 13.9321 16.9304L14.3541 16.8861C15.2181 16.7953 15.9171 16.1522 16.0854 15.308L18.2013 16.4321C18.3556 16.5141 18.5407 16.5132 18.6942 16.4299C18.8477 16.3465 18.9492 16.1917 18.9645 16.0177L18.9818 15.8205C19.1754 13.6111 19.1754 11.3889 18.9818 9.17936L18.9645 8.98224C18.9492 8.80821 18.8477 8.65341 18.6942 8.57003C18.5407 8.48666 18.3556 8.48581 18.2013 8.56778L16.0854 9.69192C15.9171 8.84772 15.2181 8.20462 14.3541 8.11384L13.9321 8.0695ZM9.08177 9.06869C10.6597 8.9276 12.2477 8.93992 13.8232 9.10547L14.2452 9.14981C14.67 9.19443 15.0104 9.52133 15.0722 9.9439C15.32 11.6389 15.32 13.361 15.0722 15.056C15.0104 15.4786 14.67 15.8055 14.2452 15.8501L13.8232 15.8944C12.2477 16.06 10.6597 16.0723 9.08177 15.9312L7.98331 15.833C7.55578 15.7948 7.21033 15.4682 7.14824 15.0434C6.90165 13.3568 6.90165 11.6432 7.14824 9.95648C7.21033 9.53175 7.55578 9.20513 7.98331 9.16691L9.08177 9.06869ZM16.2222 10.7988C16.3255 11.9305 16.3255 13.0693 16.2222 14.2011L17.9909 15.1408C18.1168 13.3825 18.1168 11.6174 17.9909 9.85908L16.2222 10.7988Z" fill="white"/>
<path d="M18.2719 19.8772C20.079 19.8772 21.5439 18.4123 21.5439 16.6053C21.5439 14.7982 20.079 13.3333 18.2719 13.3333C16.4649 13.3333 15 14.7982 15 16.6053C15 18.4123 16.4649 19.8772 18.2719 19.8772Z" fill="#0EA24A"/>
<path d="M18.878 14.9059H17.8773V18.3849H18.878V14.9059Z" fill="white"/>
<path d="M20.117 16.1455H16.6378V17.1462H20.117V16.1455Z" fill="white"/>
</svg>
