<svg width="31" height="31" viewBox="0 0 31 31" fill="none" xmlns="http://www.w3.org/2000/svg">
<g clip-path="url(#clip0_330_971)">
<path d="M15.5 30.7551C23.9252 30.7551 30.7551 23.9252 30.7551 15.5C30.7551 7.07483 23.9252 0.244873 15.5 0.244873C7.07483 0.244873 0.244873 7.07483 0.244873 15.5C0.244873 23.9252 7.07483 30.7551 15.5 30.7551Z" fill="#DF5C4E"/>
<path d="M15.5 20.3483C14.8388 20.3483 14.2756 19.8096 14.2756 19.1485V8.49684C14.2756 7.8357 14.8388 7.297 15.5 7.297C16.1611 7.297 16.7243 7.8357 16.7243 8.49684V19.1485C16.7243 19.8096 16.1611 20.3483 15.5 20.3483Z" fill="#F4EFEF"/>
<path d="M15.4999 24.2172C15.1816 24.2172 14.8632 24.0948 14.6429 23.8744C14.4225 23.654 14.3 23.3357 14.3 23.0174C14.3 22.699 14.4225 22.3807 14.6429 22.1603C14.8632 21.9399 15.1816 21.793 15.4999 21.793C15.8182 21.793 16.1365 21.9155 16.3569 22.1603C16.5773 22.3807 16.7242 22.699 16.7242 23.0174C16.7242 23.3357 16.6018 23.654 16.3569 23.8744C16.1365 24.0948 15.8182 24.2172 15.4999 24.2172Z" fill="#F4EFEF"/>
<path d="M15.5 31C6.95419 31 0 24.0458 0 15.5C0 6.95419 6.95419 0 15.5 0C24.0458 0 31 6.95419 31 15.5C31 24.0458 24.0458 31 15.5 31ZM15.5 0.489731C7.22354 0.489731 0.489731 7.22354 0.489731 15.5C0.489731 23.7765 7.22354 30.5103 15.5 30.5103C23.7765 30.5103 30.5103 23.7765 30.5103 15.5C30.5103 7.22354 23.7765 0.489731 15.5 0.489731Z" fill="black"/>
<path d="M15.2551 20.5932C14.447 20.5932 13.7859 19.9321 13.7859 19.1485V8.49683C13.7859 7.68878 14.447 7.05212 15.2551 7.05212C16.0631 7.05212 16.7243 7.71326 16.7243 8.49683V19.1485C16.7243 19.9321 16.0631 20.5932 15.2551 20.5932ZM15.2551 7.51737C14.7164 7.51737 14.2756 7.95813 14.2756 8.47235V19.124C14.2756 19.6627 14.7164 20.079 15.2551 20.079C15.7938 20.079 16.2345 19.6382 16.2345 19.124V8.47235C16.2345 7.95813 15.7938 7.51737 15.2551 7.51737Z" fill="black"/>
<path d="M15.2553 24.4621C14.8635 24.4621 14.4962 24.3152 14.2268 24.0458C13.9575 23.7765 13.8105 23.4092 13.8105 23.0174C13.8105 22.6256 13.9575 22.2583 14.2268 21.989C14.4962 21.7196 14.888 21.5727 15.2553 21.5727C15.647 21.5727 16.0143 21.7196 16.2837 21.989C16.553 22.2583 16.7 22.6256 16.7 23.0174C16.7 23.4092 16.553 23.7765 16.2592 24.0458C16.0143 24.3152 15.647 24.4621 15.2553 24.4621ZM15.2553 22.0379C15.0104 22.0379 14.741 22.1359 14.5696 22.3318C14.3982 22.5032 14.3003 22.748 14.3003 23.0174C14.3003 23.2623 14.3982 23.5316 14.5941 23.703C14.7655 23.8744 15.0349 23.9969 15.2797 23.9969C15.5246 23.9969 15.794 23.8989 15.9654 23.703C16.1368 23.5316 16.2592 23.2623 16.2592 23.0174C16.2592 22.7725 16.1613 22.5032 15.9654 22.3318C15.745 22.1359 15.5001 22.0379 15.2553 22.0379Z" fill="black"/>
</g>
<defs>
<clipPath id="clip0_330_971">
<rect width="31" height="31" fill="white"/>
</clipPath>
</defs>
</svg>
