<svg width="16" height="16" viewBox="0 0 16 16" fill="none" xmlns="http://www.w3.org/2000/svg">
<path fill-rule="evenodd" clip-rule="evenodd" d="M1.21456 3.39442C1.91514 2.09334 3.19653 1.25 4.66658 1.25C6.14985 1.25 7.17555 2.10373 7.79033 2.86039C7.86516 2.95248 7.93498 3.04436 7.99991 3.13471C8.06485 3.04436 8.13467 2.95248 8.20949 2.86039C8.82428 2.10373 9.84997 1.25 11.3332 1.25C12.8033 1.25 14.0847 2.09334 14.7853 3.39443C15.488 4.69952 15.6004 6.43487 14.8629 8.27854C14.1197 10.1366 12.4446 11.7383 11.0474 12.8391C10.3357 13.3999 9.6685 13.8518 9.17906 14.1637C8.93396 14.3199 8.73246 14.4417 8.59101 14.525C8.52026 14.5667 8.46446 14.5989 8.42566 14.621L8.38045 14.6465L8.36787 14.6536L8.36297 14.6563C7.815 13.6657 7.85162 14.7747 7.63729 14.6565L7.63196 14.6536L7.61938 14.6465L7.57416 14.621C7.53536 14.5989 7.47957 14.5667 7.40882 14.525C7.26737 14.4417 7.06586 14.3199 6.82077 14.1637C6.33133 13.8518 5.66413 13.3999 4.95243 12.8391C3.5552 11.7383 1.8801 10.1366 1.13689 8.27854C0.39942 6.43487 0.511813 4.69952 1.21456 3.39442ZM7.63729 14.6565C7.8628 14.7809 8.13746 14.7807 8.36297 14.6563C7.815 13.6657 7.85162 14.7747 7.63729 14.6565Z" fill="#F83838"/>
</svg>
