<svg width="16" height="16" viewBox="0 0 16 16" fill="none" xmlns="http://www.w3.org/2000/svg">
<g clip-path="url(#clip0_107_4327)">
<path d="M8.00004 6.99992C8.36823 6.99992 8.66671 7.2984 8.66671 7.66659V11.3333C8.66671 11.7014 8.36823 11.9999 8.00004 11.9999C7.63185 11.9999 7.33337 11.7014 7.33337 11.3333V7.66659C7.33337 7.2984 7.63185 6.99992 8.00004 6.99992Z" fill="white"/>
<path d="M8.00004 5.66659C8.46028 5.66659 8.83337 5.29349 8.83337 4.83325C8.83337 4.37301 8.46028 3.99992 8.00004 3.99992C7.5398 3.99992 7.16671 4.37301 7.16671 4.83325C7.16671 5.29349 7.5398 5.66659 8.00004 5.66659Z" fill="white"/>
<path fill-rule="evenodd" clip-rule="evenodd" d="M0.833374 7.99992C0.833374 4.04188 4.042 0.833252 8.00004 0.833252C11.9581 0.833252 15.1667 4.04188 15.1667 7.99992C15.1667 11.958 11.9581 15.1666 8.00004 15.1666C4.042 15.1666 0.833374 11.958 0.833374 7.99992ZM8.00004 2.16659C4.77838 2.16659 2.16671 4.77826 2.16671 7.99992C2.16671 11.2216 4.77838 13.8333 8.00004 13.8333C11.2217 13.8333 13.8334 11.2216 13.8334 7.99992C13.8334 4.77826 11.2217 2.16659 8.00004 2.16659Z" fill="white"/>
</g>
<defs>
<clipPath id="clip0_107_4327">
<rect width="16" height="16" fill="white"/>
</clipPath>
</defs>
</svg>
