<svg width="16" height="17" viewBox="0 0 16 17" fill="none" xmlns="http://www.w3.org/2000/svg">
<path fill-rule="evenodd" clip-rule="evenodd" d="M8.41327 4.52732C6.81938 4.52732 5.52728 5.81943 5.52728 7.41331C5.52728 9.0072 6.81938 10.2993 8.41327 10.2993C10.0072 10.2993 11.2993 9.0072 11.2993 7.41331C11.2993 5.81943 10.0072 4.52732 8.41327 4.52732ZM6.80994 7.41331C6.80994 6.52782 7.52778 5.80999 8.41327 5.80999C9.29876 5.80999 10.0166 6.52782 10.0166 7.41331C10.0166 8.29881 9.29876 9.01664 8.41327 9.01664C7.52778 9.01664 6.80994 8.29881 6.80994 7.41331Z" fill="white"/>
<path fill-rule="evenodd" clip-rule="evenodd" d="M8.41319 1C4.86733 1 1.99988 3.89193 1.99988 7.4506C1.99988 11.9326 5.88612 14.2866 7.43479 15.0534L7.45198 15.0619C7.63476 15.1525 7.7983 15.2336 8.06136 15.2825C8.17681 15.304 8.30864 15.31 8.41319 15.31C8.51775 15.31 8.64958 15.304 8.76502 15.2825C9.02808 15.2336 9.19163 15.1525 9.37441 15.0619L9.39159 15.0534C10.9403 14.2866 14.8265 11.9326 14.8265 7.4506C14.8265 3.89193 11.9591 1 8.41319 1ZM3.28254 7.4506C3.28254 4.59253 5.5835 2.28266 8.41319 2.28266C11.2429 2.28266 13.5438 4.59253 13.5438 7.4506C13.5438 11.1147 10.3415 13.1518 8.82245 13.904C8.63331 13.9976 8.60927 14.0068 8.53047 14.0215C8.531 14.0214 8.53111 14.0214 8.53047 14.0215C8.52807 14.0218 8.51707 14.0233 8.49659 14.0247C8.47276 14.0263 8.44393 14.0273 8.41319 14.0273C8.38246 14.0273 8.35362 14.0263 8.32979 14.0247C8.30932 14.0233 8.29846 14.0218 8.29606 14.0215C8.29542 14.0214 8.29552 14.0214 8.29606 14.0215C8.21726 14.0068 8.19308 13.9976 8.00394 13.904C6.48487 13.1518 3.28254 11.1147 3.28254 7.4506Z" fill="white"/>
</svg>
