<svg width="24" height="25" viewBox="0 0 24 25" fill="none" xmlns="http://www.w3.org/2000/svg">
<g clip-path="url(#clip0_109_11957)">
<circle cx="12" cy="11" r="3.5" stroke="#F2994A" stroke-width="2" stroke-linecap="round" stroke-linejoin="round"/>
<path fill-rule="evenodd" clip-rule="evenodd" d="M12 6.5C9.51472 6.5 7.5 8.51472 7.5 11C7.5 13.4853 9.51472 15.5 12 15.5C14.4853 15.5 16.5 13.4853 16.5 11C16.5 8.51472 14.4853 6.5 12 6.5ZM9.5 11C9.5 9.61929 10.6193 8.5 12 8.5C13.3807 8.5 14.5 9.61929 14.5 11C14.5 12.3807 13.3807 13.5 12 13.5C10.6193 13.5 9.5 12.3807 9.5 11Z" fill="#F2994A"/>
<path fill-rule="evenodd" clip-rule="evenodd" d="M11.9999 1C6.47097 1 1.99988 5.50926 1.99988 11.0581C1.99988 18.0466 8.05953 21.7173 10.4743 22.9129L10.5011 22.9262C10.7861 23.0674 11.0411 23.1938 11.4513 23.2701C11.6313 23.3036 11.8369 23.313 11.9999 23.313C12.1629 23.313 12.3685 23.3036 12.5485 23.2701C12.9587 23.1938 13.2137 23.0674 13.4987 22.9262L13.5255 22.9129C15.9402 21.7173 21.9999 18.0466 21.9999 11.0581C21.9999 5.50926 17.5288 1 11.9999 1ZM3.99988 11.0581C3.99988 6.60167 7.58766 3 11.9999 3C16.4121 3 19.9999 6.60167 19.9999 11.0581C19.9999 16.7715 15.0066 19.9478 12.638 21.1206C12.3431 21.2666 12.3056 21.2809 12.1827 21.3038C12.1836 21.3036 12.1837 21.3037 12.1827 21.3038C12.179 21.3043 12.1618 21.3066 12.1299 21.3088C12.0928 21.3114 12.0478 21.313 11.9999 21.313C11.952 21.313 11.907 21.3114 11.8698 21.3088C11.8379 21.3066 11.821 21.3043 11.8172 21.3038C11.8162 21.3037 11.8164 21.3036 11.8172 21.3038C11.6944 21.2809 11.6567 21.2666 11.3617 21.1206C8.99312 19.9478 3.99988 16.7715 3.99988 11.0581Z" fill="#F2994A"/>
</g>
<defs>
<clipPath id="clip0_109_11957">
<rect width="24" height="24" fill="white" transform="translate(0 0.5)"/>
</clipPath>
</defs>
</svg>
