<svg width="16" height="16" viewBox="0 0 16 16" fill="none" xmlns="http://www.w3.org/2000/svg">
<path fill-rule="evenodd" clip-rule="evenodd" d="M10.4266 13.7289C11.6699 13.802 12.6734 13.2279 13.54 12.3614C13.8003 12.1011 13.8003 11.679 13.54 11.4186L11.9932 9.87186C11.6759 9.55454 11.1614 9.55454 10.8441 9.87186C10.1829 10.533 9.09939 10.9288 8.11053 10.371C7.68442 10.1307 7.19331 9.78603 6.70459 9.29731C6.21588 8.80859 5.87124 8.31748 5.63088 7.89137C5.07308 6.90251 5.46886 5.819 6.13005 5.15781C6.44736 4.8405 6.44736 4.32603 6.13005 4.00872L4.58327 2.46195C4.32292 2.2016 3.90081 2.2016 3.64046 2.46195C2.77396 3.32845 2.19991 4.33202 2.27305 5.57531C2.3477 6.84432 3.10428 8.52542 5.29038 10.7115C7.47648 12.8976 9.15758 13.6542 10.4266 13.7289ZM10.3483 15.0599C8.6121 14.9578 6.63981 13.9466 4.34757 11.6543C2.05533 9.36209 1.04415 7.38981 0.942016 5.65361C0.838375 3.8917 1.67855 2.53824 2.69766 1.51914C3.4787 0.738087 4.74503 0.738087 5.52608 1.51914L7.07285 3.06591C7.91087 3.90392 7.91087 5.26261 7.07285 6.10062C6.68488 6.48859 6.62103 6.93285 6.79219 7.23629C6.97989 7.56905 7.25348 7.96058 7.6474 8.3545C8.04133 8.74843 8.43286 9.02201 8.76561 9.20971C9.06905 9.38088 9.51331 9.31702 9.90128 8.92905C10.7393 8.09104 12.098 8.09104 12.936 8.92905L14.4828 10.4758C15.2638 11.2569 15.2638 12.5232 14.4828 13.3042C13.4637 14.3234 12.1102 15.1635 10.3483 15.0599Z" fill="white"/>
</svg>
