<svg width="16" height="17" viewBox="0 0 16 17" fill="none" xmlns="http://www.w3.org/2000/svg">
<path fill-rule="evenodd" clip-rule="evenodd" d="M11 7.25C11 9.59721 9.09721 11.5 6.75 11.5C4.40279 11.5 2.5 9.59721 2.5 7.25C2.5 4.90279 4.40279 3 6.75 3C9.09721 3 11 4.90279 11 7.25ZM10.251 11.8117C9.28141 12.5569 8.06745 13 6.75 13C3.57436 13 1 10.4256 1 7.25C1 4.07436 3.57436 1.5 6.75 1.5C9.92564 1.5 12.5 4.07436 12.5 7.25C12.5 8.56745 12.0569 9.78141 11.3117 10.751L14.5303 13.9697C14.8232 14.2626 14.8232 14.7374 14.5303 15.0303C14.2374 15.3232 13.7626 15.3232 13.4697 15.0303L10.251 11.8117Z" fill="#F2994A"/>
</svg>
