<svg width="24" height="24" viewBox="0 0 24 24" fill="none" xmlns="http://www.w3.org/2000/svg">
<path d="M15.9001 10.4937C14.7708 9.30756 14.0997 8.26339 13.7355 7.5963C13.3411 6.87373 13.2118 6.42567 13.2108 6.42211L13.0934 6L12.6741 6.17786C12.6251 6.19864 11.4666 6.70107 10.8175 7.9357C10.4916 8.55551 10.3335 8.903 10.3335 9.66667C10.3335 11.3333 10.8175 12 10.8175 12C10.3335 12 9.50766 10.8024 9.50766 10.8024L8.85443 9.75608C8.74101 9.57443 8.48095 9.56228 8.35109 9.73256C8.32321 9.76914 7.6666 10.6303 7.54706 10.8024C6.96332 11.6427 6.65895 12.6216 6.66684 13.6332C6.67741 14.9843 7.23612 16.2502 8.24004 17.1976C9.24392 18.1449 10.5792 18.6667 12.0001 18.6667C14.9409 18.6666 17.3334 16.3914 17.3334 13.5947C17.3334 12.5807 16.811 11.4504 15.9001 10.4937Z" fill="#F2994A"/>
</svg>
