<svg width="16" height="16" viewBox="0 0 16 16" fill="none" xmlns="http://www.w3.org/2000/svg">
<g clip-path="url(#clip0_215_6824)">
<path fill-rule="evenodd" clip-rule="evenodd" d="M3.43083 4.3734C2.63954 5.36907 2.16683 6.62929 2.16683 7.99992C2.16683 11.2216 4.7785 13.8333 8.00016 13.8333C9.37079 13.8333 10.631 13.3605 11.6267 12.5693L3.43083 4.3734ZM4.37364 3.43059L12.5695 11.6264C13.3608 10.6308 13.8335 9.37055 13.8335 7.99992C13.8335 4.77826 11.2218 2.16659 8.00016 2.16659C6.62953 2.16659 5.36931 2.6393 4.37364 3.43059ZM0.833496 7.99992C0.833496 4.04188 4.04212 0.833252 8.00016 0.833252C11.9582 0.833252 15.1668 4.04188 15.1668 7.99992C15.1668 11.958 11.9582 15.1666 8.00016 15.1666C4.04212 15.1666 0.833496 11.958 0.833496 7.99992Z" fill="white"/>
</g>
<defs>
<clipPath id="clip0_215_6824">
<rect width="16" height="16" fill="white"/>
</clipPath>
</defs>
</svg>
