<?xml version="1.0" standalone="no"?>
<!DOCTYPE svg PUBLIC "-//W3C//DTD SVG 20010904//EN"
 "http://www.w3.org/TR/2001/REC-SVG-20010904/DTD/svg10.dtd">
<svg version="1.0" xmlns="http://www.w3.org/2000/svg"
 width="624.000000pt" height="624.000000pt" viewBox="0 0 624.000000 624.000000"
 preserveAspectRatio="xMidYMid meet">
<metadata>
Created by potrace 1.14, written by Peter Selinger 2001-2017
</metadata>
<g transform="translate(0.000000,624.000000) scale(0.100000,-0.100000)"
fill="#000000" stroke="none">
<path d="M1875 6233 c-65 -17 -125 -102 -125 -177 0 -100 84 -186 183 -186 30
0 37 -7 85 -82 62 -100 297 -459 309 -474 12 -15 31 -45 52 -84 11 -19 27 -44
35 -55 15 -19 82 -121 266 -405 41 -63 77 -117 80 -120 7 -7 30 -49 30 -55 0
-3 -4 -4 -8 -3 -4 2 -38 -15 -76 -37 -111 -64 -187 -164 -204 -267 l-7 -39
-425 -1 c-512 -2 -577 -10 -798 -99 -265 -108 -510 -327 -632 -566 -19 -37
-38 -70 -41 -73 -10 -9 -70 -183 -86 -250 -27 -119 -28 -150 -28 -985 0 -730
4 -940 20 -965 2 -4 7 -21 10 -39 15 -84 77 -236 145 -356 93 -164 290 -360
450 -448 110 -60 229 -113 271 -121 50 -9 65 -23 61 -57 -4 -28 -3 -84 2 -136
13 -144 60 -184 140 -120 23 20 56 52 72 72 16 21 36 45 44 56 8 10 32 43 53
73 l38 56 1324 0 1323 0 33 -51 c18 -28 37 -56 43 -62 6 -7 24 -30 40 -51 45
-60 107 -115 138 -122 65 -14 92 59 92 248 l1 76 60 18 c33 10 65 20 70 24 6
4 37 17 70 30 84 33 248 136 311 195 6 5 26 24 45 40 19 17 61 62 95 100 165
190 267 421 301 680 11 83 6 1693 -6 1755 -19 101 -22 115 -28 130 -3 8 -8 26
-10 40 -2 14 -8 29 -14 34 -5 6 -9 17 -9 26 0 26 -96 216 -143 284 -186 268
-455 453 -766 528 -127 30 -130 30 -594 33 -236 2 -431 5 -433 8 -4 4 -9 20
-20 77 -7 35 -46 99 -87 142 -38 40 -152 118 -174 118 -23 0 -14 21 50 119 35
53 96 145 135 204 40 60 72 113 72 118 0 5 4 9 9 9 5 0 12 8 16 19 3 10 13 28
23 39 9 12 41 59 71 106 53 84 56 86 93 86 21 0 55 9 76 19 45 24 94 69 87 81
-3 4 0 10 5 12 18 6 21 114 5 152 -30 72 -98 116 -178 116 -131 0 -219 -118
-183 -245 3 -11 8 -29 11 -40 4 -14 -19 -57 -80 -149 -47 -71 -85 -133 -85
-137 0 -5 -4 -9 -10 -9 -5 0 -10 -6 -10 -13 0 -8 -9 -22 -20 -32 -11 -10 -20
-22 -20 -27 0 -5 -11 -24 -25 -42 -14 -18 -25 -38 -25 -44 0 -7 -4 -12 -10
-12 -5 0 -10 -4 -10 -9 0 -8 -40 -71 -118 -187 -7 -10 -20 -31 -30 -47 -17
-27 -18 -27 -87 -21 -87 9 -112 9 -202 0 l-71 -7 -84 128 c-45 70 -116 177
-155 237 -40 60 -73 113 -73 118 0 4 -4 8 -10 8 -5 0 -10 5 -10 10 0 6 -45 78
-100 160 -55 83 -100 153 -100 156 0 3 -6 11 -12 19 -7 7 -26 36 -43 64 -16
28 -33 51 -37 51 -5 0 -8 4 -8 10 0 5 -46 80 -103 167 -57 87 -107 164 -111
170 -4 7 -2 22 4 34 26 48 17 134 -20 184 -41 56 -134 87 -205 68z"/>
</g>
</svg>
