<svg width="22" height="22" viewBox="0 0 22 22" fill="none" xmlns="http://www.w3.org/2000/svg">
<path d="M10.5019 14.6025L3.20062 6.9396C3.07874 6.81174 3.01074 6.64187 3.01074 6.46522C3.01074 6.28857 3.07874 6.11871 3.20062 5.99085L3.20887 5.9826C3.26796 5.9204 3.33909 5.87087 3.41792 5.83703C3.49675 5.80318 3.58165 5.78573 3.66744 5.78573C3.75323 5.78573 3.83812 5.80318 3.91695 5.83703C3.99579 5.87087 4.06691 5.9204 4.126 5.9826L11.001 13.1986L17.8732 5.9826C17.9323 5.9204 18.0035 5.87087 18.0823 5.83703C18.1611 5.80318 18.246 5.78573 18.3318 5.78573C18.4176 5.78573 18.5025 5.80318 18.5813 5.83703C18.6602 5.87087 18.7313 5.9204 18.7904 5.9826L18.7986 5.99085C18.9205 6.11871 18.9885 6.28857 18.9885 6.46522C18.9885 6.64187 18.9205 6.81174 18.7986 6.9396L11.4974 14.6025C11.4332 14.6699 11.3559 14.7235 11.2704 14.7602C11.1848 14.7968 11.0927 14.8157 10.9996 14.8157C10.9065 14.8157 10.8144 14.7968 10.7289 14.7602C10.6433 14.7235 10.5661 14.6699 10.5019 14.6025Z" fill="black"/>
</svg>
