<svg width="180" height="25" viewBox="0 0 180 25" fill="none" xmlns="http://www.w3.org/2000/svg">
<mask id="mask0" mask-type="alpha" maskUnits="userSpaceOnUse" x="0" y="0" width="24" height="25">
<path fill-rule="evenodd" clip-rule="evenodd" d="M0 24.9033V0.258301H23.3226V24.9033H0Z" fill="white"/>
</mask>
<g mask="url(#mask0)">
<path fill-rule="evenodd" clip-rule="evenodd" d="M2.45738 21.5116C0.433622 19.2183 -0.331791 16.2791 0.129769 12.6941C0.595457 9.07663 2.15353 6.10497 4.80316 3.77913C7.48913 1.42163 10.4979 0.258301 13.8651 0.258301C18.0901 0.258301 21.6439 2.2608 23.3225 5.26497L19.9975 8.13913C18.4039 5.71663 16.2389 4.52163 13.5067 4.52163C11.3154 4.52163 9.34115 5.29747 7.61711 6.84747C5.92445 8.39747 4.91215 10.3358 4.60913 12.6941C4.31353 14.9875 4.79904 16.8933 6.09702 18.4108C7.39417 19.9291 9.1727 20.6716 11.3963 20.6716C14.287 20.6716 16.7913 19.4766 18.9455 17.0541L21.6059 19.8325C19.0273 22.8358 14.9492 24.9033 10.6292 24.9033C7.23069 24.9033 4.48527 23.7725 2.45738 21.5116Z" fill="black"/>
</g>
<path fill-rule="evenodd" clip-rule="evenodd" d="M37.7691 11.9831C36.9492 10.9497 35.8089 10.4331 34.3152 10.4331C32.8224 10.4331 31.5492 10.9497 30.4634 11.9831C29.409 13.0172 28.7699 14.2764 28.5792 15.7622C28.3835 17.2806 28.6981 18.5397 29.4858 19.5739C30.3057 20.6072 31.4468 21.1239 32.9396 21.1239C34.4325 21.1239 35.7057 20.6072 36.7923 19.5739C37.8781 18.5397 38.5163 17.2806 38.712 15.7622C38.9036 14.2764 38.589 13.0172 37.7691 11.9831ZM39.7434 7.00887H43.6827L41.4245 24.548H37.4859L37.7642 22.3839C36.0509 24.0955 34.0643 24.968 31.8093 24.968C29.3314 24.968 27.4109 24.0955 26.0196 22.3189C24.6283 20.5422 24.1205 18.3139 24.4574 15.698C24.7943 13.0814 25.871 10.8847 27.7114 9.17303C29.5519 7.46137 31.7292 6.58887 34.1749 6.58887C36.3671 6.58887 38.1283 7.46137 39.4568 9.23803L39.7434 7.00887Z" fill="black"/>
<path fill-rule="evenodd" clip-rule="evenodd" d="M45.2783 21.5119L47.9618 18.9277C48.9056 20.4786 50.5957 21.4152 52.2793 21.4152C53.7722 21.4152 54.9248 20.6077 55.0578 19.5744C55.1445 18.8952 54.7746 18.3144 53.9712 17.8944C53.7061 17.7327 53.0447 17.4419 51.987 17.0219C50.9607 16.6027 50.2721 16.2794 49.9154 16.0861C48.103 15.1169 47.3409 13.6311 47.5993 11.6277C47.7942 10.1102 48.5282 8.85023 49.7965 7.8819C51.0647 6.91273 52.6517 6.42773 54.526 6.42773C56.9717 6.42773 58.8295 7.30023 60.1019 9.0119L57.5968 11.6927C56.639 10.4977 55.4153 9.8844 53.9538 9.8844C52.6517 9.8844 51.7666 10.5944 51.646 11.5311C51.5461 12.3069 51.9788 12.8877 52.9184 13.2427C55.2675 14.2444 56.5902 14.8261 56.8553 14.9877C58.6553 16.0527 59.4488 17.5394 59.2035 19.4444C58.9996 21.0277 58.2259 22.3519 56.8495 23.4177C55.4739 24.4836 53.787 25.0002 51.7864 25.0002C48.9906 25.0002 46.6035 23.8052 45.2783 21.5119Z" fill="black"/>
<path fill-rule="evenodd" clip-rule="evenodd" d="M62.3586 24.548L65.5185 0.000488281H69.5529L68.3597 9.27049C69.5479 7.68715 71.7269 6.55715 74.1726 6.55715C76.0469 6.55715 77.5199 7.20299 78.6602 8.46299C79.8005 9.72215 80.2389 11.4988 79.9359 13.8572L78.5595 24.548H74.4302L75.6605 14.9872C76.0386 12.048 74.758 10.4005 72.4708 10.4005C70.0243 10.4005 68.0641 12.3063 67.7108 15.0513L66.4879 24.548H62.3586Z" fill="black"/>
<path fill-rule="evenodd" clip-rule="evenodd" d="M95.9893 11.2192L95.9719 11.2367L98.5448 14.1951L95.9893 11.2192Z" fill="#05C632"/>
<path fill-rule="evenodd" clip-rule="evenodd" d="M98.6567 14.3267L96.9087 15.8933L98.6699 14.34L98.6567 14.3267Z" fill="#05C632"/>
<path fill-rule="evenodd" clip-rule="evenodd" d="M98.6567 14.3269L96.9087 15.8936L89.6443 22.4027L86.9724 19.2902L92.8637 14.0152L88.1763 8.62607L91.2974 5.86523L95.9724 11.2369L98.5444 14.1952L98.6567 14.3269Z" fill="#05C632"/>
<path fill-rule="evenodd" clip-rule="evenodd" d="M105.395 22.6744C103.91 21.1244 103.341 18.8952 103.715 15.9886L105.686 0.677734H110.037L108.116 15.6002C107.688 18.9277 109.211 20.6719 112.101 20.6719C114.928 20.6719 116.972 18.8636 117.392 15.6002L119.313 0.677734H123.696L121.725 15.9886C121.351 18.8952 120.207 21.1244 118.324 22.6744C116.445 24.1927 114.185 24.9677 111.548 24.9677C108.944 24.9677 106.883 24.1927 105.395 22.6744Z" fill="black"/>
<path fill-rule="evenodd" clip-rule="evenodd" d="M135.88 14.5379C135.785 15.0829 135.289 15.5104 134.768 15.5104C134.203 15.5104 133.872 15.0829 133.968 14.5379C134.064 13.9929 134.542 13.5812 135.107 13.5812C135.628 13.5812 135.975 13.9929 135.88 14.5379ZM132.518 24.5387L133.9 16.6587H135.189L133.807 24.5387H132.518ZM128.927 16.1137C129.248 14.2879 130.461 13.2271 132.025 13.2271C132.635 13.2271 133.174 13.3746 133.66 13.6537L133.037 14.7287C132.648 14.5529 132.286 14.4646 131.953 14.4646C130.983 14.4646 130.407 15.0246 130.211 16.1429L130.12 16.6587H132.598L132.399 17.7929H129.921L128.738 24.5387H127.449L128.633 17.7929H127.271L127.47 16.6587H128.832L128.927 16.1137Z" fill="#05C632"/>
<path fill-rule="evenodd" clip-rule="evenodd" d="M136.009 24.5385L137.391 16.6585H138.651L138.455 17.7776C139.102 16.8943 140.005 16.4526 141.149 16.4526C142.018 16.4526 142.693 16.7326 143.186 17.3068C143.679 17.881 143.827 18.691 143.639 19.766L142.801 24.5385H141.513L142.282 20.1493C142.561 18.5585 141.891 17.6751 140.689 17.6751C140.036 17.6751 139.474 17.9101 138.988 18.3668C138.503 18.8235 138.194 19.4276 138.067 20.1493L137.297 24.5385H136.009Z" fill="#05C632"/>
<path fill-rule="evenodd" clip-rule="evenodd" d="M151.445 18.5289C151.039 17.9547 150.436 17.6747 149.625 17.6747C148.813 17.6747 148.112 17.9547 147.505 18.5289C146.915 19.0889 146.547 19.7806 146.402 20.6056C146.259 21.4164 146.385 22.1081 146.776 22.6822C147.185 23.2422 147.788 23.5222 148.599 23.5222C149.41 23.5222 150.11 23.2422 150.716 22.6822C151.323 22.1081 151.706 21.4164 151.851 20.5906C151.993 19.7806 151.854 19.0889 151.445 18.5289ZM152.439 16.6581H153.684L152.302 24.5381H151.057L151.256 23.4048C150.39 24.2881 149.401 24.7298 148.256 24.7298C147.141 24.7298 146.284 24.3323 145.685 23.5365C145.089 22.7273 144.9 21.7398 145.108 20.5465C145.316 19.369 145.848 18.3965 146.721 17.6306C147.597 16.8498 148.591 16.4673 149.706 16.4673C150.835 16.4673 151.683 16.924 152.235 17.8223L152.439 16.6581Z" fill="#05C632"/>
<path fill-rule="evenodd" clip-rule="evenodd" d="M154.503 24.5385L155.885 16.6585H157.145L156.949 17.7776C157.597 16.8943 158.499 16.4526 159.644 16.4526C160.512 16.4526 161.188 16.7326 161.681 17.3068C162.174 17.881 162.321 18.691 162.133 19.766L161.296 24.5385H160.007L160.776 20.1493C161.056 18.5585 160.385 17.6751 159.183 17.6751C158.531 17.6751 157.968 17.9101 157.483 18.3668C156.997 18.8235 156.689 19.4276 156.562 20.1493L155.792 24.5385H154.503Z" fill="#05C632"/>
<path fill-rule="evenodd" clip-rule="evenodd" d="M164.218 23.5665C163.587 22.7856 163.384 21.799 163.593 20.6065C163.805 19.3981 164.369 18.4115 165.273 17.6315C166.192 16.8498 167.259 16.4673 168.476 16.4673C169.997 16.4673 171.245 17.2773 171.622 18.5148L170.439 19.1481C170.06 18.2498 169.263 17.6756 168.264 17.6756C167.438 17.6756 166.709 17.9548 166.075 18.5148C165.441 19.074 165.044 19.7665 164.897 20.6065C164.751 21.4315 164.891 22.1231 165.314 22.6823C165.755 23.2273 166.372 23.5081 167.168 23.5081C167.661 23.5081 168.162 23.3748 168.675 23.0948C169.187 22.8156 169.594 22.4765 169.884 22.064L170.844 22.6973C169.998 23.8906 168.463 24.7156 166.956 24.7156C165.755 24.7156 164.851 24.3323 164.218 23.5665Z" fill="#05C632"/>
<path fill-rule="evenodd" clip-rule="evenodd" d="M173.741 19.9726H178.636C178.811 18.5584 177.97 17.6601 176.681 17.6601C175.348 17.6601 174.198 18.6034 173.741 19.9726ZM179.748 21.151H173.534C173.511 22.521 174.224 23.4935 175.904 23.4935C176.831 23.4935 177.967 23.1243 178.799 22.5943L179.171 23.611C178.312 24.2143 176.95 24.716 175.66 24.716C172.749 24.716 171.912 22.6385 172.273 20.5768C172.482 19.3835 173.015 18.4118 173.876 17.631C174.737 16.8501 175.746 16.4668 176.891 16.4668C177.976 16.4668 178.812 16.821 179.381 17.5426C179.95 18.2643 180.127 19.236 179.912 20.4585C179.894 20.5618 179.838 20.7976 179.748 21.151Z" fill="#05C632"/>
</svg>
