<svg width="85" height="85" viewBox="0 0 85 85" fill="none" xmlns="http://www.w3.org/2000/svg">
<path d="M68.9062 61.875C68.9058 62.2478 68.7575 62.6053 68.4939 62.8689C68.2303 63.1325 67.8728 63.2808 67.5 63.2812H4.21875C3.84592 63.2808 3.48848 63.1325 3.22485 62.8689C2.96122 62.6053 2.81293 62.2478 2.8125 61.875V18.2812C2.81293 17.9084 2.96122 17.551 3.22485 17.2874C3.48848 17.0237 3.84592 16.8754 4.21875 16.875H45V14.0625H4.21875C3.10026 14.0638 2.02795 14.5087 1.23706 15.2996C0.446164 16.0904 0.0012794 17.1628 0 18.2812V61.875C0.0012794 62.9935 0.446164 64.0658 1.23706 64.8567C2.02795 65.6476 3.10026 66.0925 4.21875 66.0938H26.7188V74.5312H19.6875C19.3145 74.5313 18.9569 74.6794 18.6932 74.9432C18.4294 75.2069 18.2813 75.5645 18.2812 75.9375V81.5625C18.2813 81.9355 18.4294 82.2931 18.6932 82.5568C18.9569 82.8206 19.3145 82.9687 19.6875 82.9688H20.5111L21.5056 83.9632C21.7693 84.2269 22.127 84.375 22.5 84.375H26.7188C27.0917 84.375 27.4494 84.2269 27.7132 83.9632L28.7076 82.9688H44.4174L45.4118 83.9632C45.6756 84.2269 46.0333 84.375 46.4062 84.375H50.625C50.998 84.375 51.3557 84.2269 51.6194 83.9632L52.6139 82.9688H53.4375C53.8105 82.9687 54.1681 82.8206 54.4318 82.5568C54.6956 82.2931 54.8437 81.9355 54.8438 81.5625V75.9375C54.8437 75.5645 54.6956 75.2069 54.4318 74.9432C54.1681 74.6794 53.8105 74.5313 53.4375 74.5312H46.4062V66.0938H67.5C68.6185 66.0925 69.6908 65.6476 70.4817 64.8567C71.2726 64.0658 71.7175 62.9935 71.7188 61.875V39.375H68.9062V61.875ZM52.0312 80.1562H21.0938V77.3438H52.0312V80.1562ZM43.5938 74.5312H29.5312V66.0938H35.1562V70.3125C35.1562 70.6855 35.3044 71.0431 35.5681 71.3069C35.8319 71.5706 36.1895 71.7188 36.5625 71.7188C36.9355 71.7188 37.2931 71.5706 37.5569 71.3069C37.8206 71.0431 37.9688 70.6855 37.9688 70.3125V66.0938H43.5938V74.5312Z" fill="#C3C3C4"/>
<path d="M34.5994 46.4062C35.4257 46.4062 36.2378 46.1919 36.9564 45.784C37.6751 45.3762 38.2756 44.7889 38.6993 44.0795C39.123 43.3702 39.3554 42.563 39.3738 41.7369C39.3922 40.9108 39.1959 40.0941 38.8042 39.3666L30.6967 24.3097C30.1732 23.3375 29.3962 22.5251 28.4482 21.9589C27.5003 21.3927 26.4167 21.0938 25.3125 21.0938C24.2083 21.0938 23.1247 21.3927 22.1768 21.9589C21.2288 22.5251 20.4518 23.3375 19.9283 24.3097L11.8208 39.3666C11.4291 40.0941 11.2328 40.9108 11.2512 41.7369C11.2696 42.563 11.502 43.3702 11.9257 44.0795C12.3494 44.7889 12.9499 45.3762 13.6686 45.784C14.3872 46.1919 15.1993 46.4062 16.0256 46.4062H34.5994ZM14.0625 41.6306C14.0628 41.3058 14.1434 40.9861 14.2972 40.7L22.4047 25.6431C22.6874 25.1181 23.107 24.6793 23.619 24.3735C24.1309 24.0677 24.7162 23.9062 25.3125 23.9062C25.9088 23.9062 26.494 24.0677 27.006 24.3735C27.518 24.6793 27.9376 25.1181 28.2203 25.6431L36.3278 40.7001C36.4889 40.9991 36.5696 41.3348 36.562 41.6744C36.5544 42.014 36.4589 42.3458 36.2847 42.6374C36.1106 42.929 35.8637 43.1704 35.5683 43.338C35.2729 43.5057 34.939 43.5938 34.5994 43.5938H16.0256C15.5051 43.5932 15.0061 43.3862 14.6381 43.0181C14.2701 42.6501 14.0631 42.1511 14.0625 41.6306Z" fill="#C3C3C4"/>
<path d="M26.7188 28.125H23.9062V36.5625H26.7188V28.125Z" fill="#C3C3C4"/>
<path d="M25.3125 40.7812C26.0892 40.7812 26.7188 40.1517 26.7188 39.375C26.7188 38.5983 26.0892 37.9688 25.3125 37.9688C24.5358 37.9688 23.9062 38.5983 23.9062 39.375C23.9062 40.1517 24.5358 40.7812 25.3125 40.7812Z" fill="#C3C3C4"/>
<path d="M47.8125 28.125H37.9688V30.9375H46.4062V56.25H37.9688V49.2188H35.1562V56.25H26.7188V49.2188H23.9062V56.25H15.4688V49.2188H12.6562V56.25H7.03125V59.0625H64.6875V56.25H60.4688V39.375C60.4687 39.002 60.3206 38.6444 60.0568 38.3807C59.7931 38.1169 59.4355 37.9688 59.0625 37.9688H49.2188V29.5312C49.2187 29.1583 49.0706 28.8006 48.8068 28.5369C48.5431 28.2732 48.1855 28.125 47.8125 28.125ZM57.6562 40.7812V56.25H49.2188V40.7812H57.6562Z" fill="#C3C3C4"/>
<path d="M82.9688 12.6562L79.6893 12.6406L82.0037 10.3261C82.2674 10.0624 82.4155 9.70472 82.4155 9.33177C82.4155 8.95882 82.2674 8.60114 82.0037 8.33742L76.0376 2.37133C75.7738 2.10777 75.4161 1.95973 75.0432 1.95973C74.6703 1.95973 74.3127 2.10777 74.0489 2.37133L71.7344 4.68567L71.7188 4.67932V1.40625C71.7187 1.03329 71.5706 0.67562 71.3068 0.411901C71.0431 0.148182 70.6855 1.81802e-05 70.3125 0H61.875C61.502 1.81802e-05 61.1444 0.148182 60.8807 0.411901C60.6169 0.67562 60.4688 1.03329 60.4688 1.40625L60.4531 4.68567L58.1386 2.37133C57.8749 2.1077 57.5172 1.9596 57.1443 1.9596C56.7713 1.9596 56.4137 2.1077 56.1499 2.37133L50.1838 8.33742C49.9201 8.60114 49.772 8.95882 49.772 9.33177C49.772 9.70472 49.9201 10.0624 50.1838 10.3261L52.4918 12.6562H49.2188C48.8458 12.6563 48.4881 12.8044 48.2244 13.0682C47.9607 13.3319 47.8125 13.6895 47.8125 14.0625V22.5C47.8125 22.873 47.9607 23.2306 48.2244 23.4943C48.4881 23.7581 48.8458 23.9062 49.2188 23.9062L52.4982 23.9219L50.1838 26.2364C49.9201 26.5001 49.772 26.8578 49.772 27.2307C49.772 27.6037 49.9201 27.9614 50.1838 28.2251L56.1499 34.1912C56.4136 34.4549 56.7713 34.603 57.1443 34.603C57.5172 34.603 57.8749 34.4549 58.1386 34.1912L60.4688 31.8832V35.1562C60.4688 35.5292 60.6169 35.8869 60.8807 36.1506C61.1444 36.4143 61.502 36.5625 61.875 36.5625H70.3125C70.6855 36.5625 71.0431 36.4143 71.3068 36.1506C71.5706 35.8869 71.7187 35.5292 71.7188 35.1562L71.7344 31.8768L74.0489 34.1912C74.3126 34.4548 74.6703 34.6029 75.0432 34.6029C75.4162 34.6029 75.7738 34.4548 76.0376 34.1912L82.0037 28.2251C82.2674 27.9614 82.4155 27.6037 82.4155 27.2307C82.4155 26.8578 82.2674 26.5001 82.0037 26.2364L79.6957 23.9062H82.9688C83.3417 23.9062 83.6994 23.7581 83.9631 23.4943C84.2268 23.2306 84.375 22.873 84.375 22.5V14.0625C84.375 13.6895 84.2268 13.3319 83.9631 13.0682C83.6994 12.8044 83.3417 12.6563 82.9688 12.6562ZM81.5625 21.0938H79.6957C79.1376 21.0937 78.5921 21.2592 78.1281 21.5692C77.6641 21.8793 77.3024 22.3199 77.0889 22.8355C76.8753 23.3511 76.8194 23.9184 76.9283 24.4657C77.0371 25.013 77.3059 25.5158 77.7005 25.9104L79.0205 27.2306L75.0431 31.208L73.7231 29.888C73.3284 29.4934 72.8257 29.2246 72.2783 29.1158C71.731 29.0069 71.1637 29.0628 70.6481 29.2763C70.1325 29.4899 69.6918 29.8516 69.3818 30.3156C69.0717 30.7796 68.9063 31.3251 68.9062 31.8832V33.75H63.2812V31.8832C63.2813 31.3251 63.1158 30.7796 62.8058 30.3156C62.4957 29.8516 62.0551 29.4899 61.5395 29.2764C61.0239 29.0628 60.4566 29.0069 59.9093 29.1158C59.362 29.2246 58.8592 29.4934 58.4646 29.888L57.1444 31.208L53.167 27.2306L54.487 25.9106C54.8816 25.516 55.1504 25.0132 55.2592 24.4658C55.3681 23.9185 55.3122 23.3512 55.0987 22.8356C54.8851 22.32 54.5234 21.8793 54.0594 21.5693C53.5954 21.2592 53.0499 21.0938 52.4918 21.0938H50.625V15.4688H52.4918C53.0499 15.4688 53.5954 15.3033 54.0594 14.9933C54.5234 14.6832 54.8851 14.2426 55.0986 13.727C55.3122 13.2114 55.3681 12.6441 55.2592 12.0968C55.1504 11.5495 54.8816 11.0467 54.487 10.6521L53.167 9.33186L57.1444 5.35446L58.4644 6.67454C58.8591 7.06914 59.3618 7.33787 59.9092 7.44673C60.4565 7.5556 61.0238 7.49972 61.5394 7.28615C62.055 7.07259 62.4957 6.71093 62.8057 6.24692C63.1158 5.78291 63.2812 5.23738 63.2812 4.67932V2.8125H68.9062V4.67932C68.9062 5.23737 69.0717 5.78289 69.3817 6.2469C69.6918 6.7109 70.1324 7.07256 70.648 7.28612C71.1636 7.49969 71.7309 7.55557 72.2782 7.44671C72.8255 7.33785 73.3283 7.06913 73.7229 6.67454L75.0431 5.35446L79.0205 9.33186L77.7005 10.6519C77.3059 11.0466 77.0371 11.5493 76.9283 12.0967C76.8194 12.644 76.8753 13.2113 77.0889 13.7269C77.3024 14.2425 77.6641 14.6832 78.1281 14.9932C78.5921 15.3033 79.1376 15.4687 79.6957 15.4688H81.5625V21.0938Z" fill="#C3C3C4"/>
<path d="M66.0938 11.25C64.7031 11.25 63.3437 11.6624 62.1874 12.435C61.0311 13.2076 60.1299 14.3057 59.5977 15.5905C59.0655 16.8753 58.9263 18.289 59.1976 19.653C59.4689 21.0169 60.1386 22.2698 61.1219 23.2531C62.1052 24.2364 63.3581 24.9061 64.722 25.1774C66.086 25.4487 67.4997 25.3095 68.7845 24.7773C70.0693 24.2451 71.1674 23.3439 71.94 22.1876C72.7126 21.0313 73.125 19.6719 73.125 18.2812C73.1229 16.4171 72.3814 14.6299 71.0633 13.3118C69.7451 11.9936 67.9579 11.2521 66.0938 11.25ZM66.0938 22.5C65.2594 22.5 64.4437 22.2526 63.7499 21.789C63.0562 21.3254 62.5154 20.6666 62.1961 19.8957C61.8768 19.1248 61.7933 18.2766 61.9561 17.4582C62.1188 16.6399 62.5206 15.8881 63.1107 15.2981C63.7007 14.7081 64.4524 14.3063 65.2707 14.1436C66.0891 13.9808 66.9373 14.0643 67.7082 14.3836C68.4791 14.7029 69.138 15.2437 69.6015 15.9374C70.0651 16.6312 70.3125 17.4469 70.3125 18.2812C70.3112 19.3997 69.8663 20.472 69.0755 21.2629C68.2846 22.0538 67.2123 22.4987 66.0938 22.5Z" fill="#C3C3C4"/>
</svg>
