<svg width="80" height="80" viewBox="0 0 80 80" fill="none" xmlns="http://www.w3.org/2000/svg">
<path d="M13.337 34.5652L12.4344 33.6471L11.4854 32.7754C7.39983 36.861 5.15039 42.2921 5.15039 48.0695C5.15039 49.3533 5.2637 50.6422 5.48903 51.9002L8.02432 51.4469C7.82603 50.3383 7.72559 49.2026 7.72559 48.0695C7.72559 42.9796 9.70721 38.1949 13.2983 34.6038L13.337 34.5652Z" fill="#C3C3C4"/>
<path d="M28.3272 54.248H25.752V56.8233C23.6223 56.8233 21.8892 58.5564 21.8892 60.6861C21.8892 62.8158 23.6223 64.5489 25.752 64.5489H28.3272C29.0379 64.5489 29.6148 65.127 29.6148 65.8365C29.6148 66.5459 29.0379 67.1241 28.3272 67.1241H24.4644V65.8365H21.8892V69.6993H25.752V72.2745H28.3272V69.6993C30.4569 69.6993 32.19 67.9662 32.19 65.8365C32.19 63.7068 30.4569 61.9737 28.3272 61.9737H25.752C25.0412 61.9737 24.4644 61.3955 24.4644 60.6861C24.4644 59.9766 25.0412 59.3985 25.752 59.3985H29.6148V60.6861H32.19V56.8233H28.3272V54.248Z" fill="#C3C3C4"/>
<path d="M77.2561 28.4959C77.2561 31.7548 75.4985 35.0614 72.031 38.3203C67.1832 42.8759 60.8701 45.6558 53.9917 46.3434C53.5771 39.8423 50.8732 33.7712 46.2352 29.1333L36.5859 19.4827L43.7785 12.2902V11.7571C43.7785 8.90634 41.6462 6.4908 38.8173 6.138L36.4456 5.84185L37.6817 1.82453L30.3848 0L27.1002 4.37785L25.0567 1.31207L16.3422 3.05548L17.2848 5.88434L15.2594 6.138C12.4331 6.4908 10.3008 8.90634 10.3008 11.7571V12.2902L17.4934 19.4827L7.84407 29.132C2.78508 34.1897 0 40.9161 0 48.0688C0 57.0369 4.43836 65.3226 11.8807 70.3134C14.5486 76.0239 20.3312 80 27.0396 80H79.8313V28.4959H77.2561ZM50.6337 49.0975C51.7938 49.0975 52.9423 49.0396 54.0793 48.9314V77.4248H48.9289V49.0975H50.6337ZM56.6545 48.5877C58.4159 48.2889 60.1387 47.8653 61.8049 47.3104V77.4248H56.6545V48.5877ZM64.3801 46.3279C66.1827 45.5566 67.9043 44.6283 69.5305 43.5544V77.4248H64.3801V46.3279ZM38.498 8.6926C39.8732 8.86514 40.947 9.93127 41.1621 11.2639L34.2322 18.1951H32.6459L35.6782 8.3398L38.498 8.6926ZM23.8709 4.17569L26.9778 8.83552L31.4188 2.91256L34.4227 3.66323L29.9509 18.1951H24.1039L19.7093 5.00748L23.8709 4.17569ZM15.5813 8.6926L18.1178 8.37585L21.3909 18.1951H19.8471L12.9159 11.2639C13.131 9.93256 14.2048 8.86514 15.5813 8.6926ZM2.5752 48.0688C2.5752 41.6037 5.09246 35.5249 9.66474 30.9527L19.8471 20.7703H34.2322L44.4145 30.9527C48.6018 35.1399 51.0444 40.6187 51.4242 46.4863C51.159 46.4927 50.9002 46.5223 50.6337 46.5223H27.0396C17.8101 46.5223 10.3008 54.0316 10.3008 63.2612C10.3008 64.1998 10.3974 65.1153 10.5467 66.0128C5.5045 61.4585 2.5752 54.9909 2.5752 48.0688ZM12.876 63.2612C12.876 55.4519 19.2303 49.0975 27.0396 49.0975C34.8489 49.0975 41.2033 55.4519 41.2033 63.2612C41.2033 71.0705 34.8489 77.4248 27.0396 77.4248C19.2303 77.4248 12.876 71.0705 12.876 63.2612ZM43.7785 63.2612C43.7785 57.2944 40.6316 52.0616 35.9189 49.0975H46.3537V77.4248H35.9189C40.6316 74.4607 43.7785 69.2279 43.7785 63.2612ZM72.1057 77.4248V41.6629C72.6826 41.193 73.2504 40.7088 73.795 40.1964C75.196 38.8791 76.3406 37.54 77.2561 36.1855V77.4248H72.1057Z" fill="#C3C3C4"/>
<path d="M69.5305 7.13988V22.058H72.1057V7.13988L75.0581 10.0923L76.8788 8.27168L70.8181 2.21094L64.7573 8.27168L66.578 10.0923L69.5305 7.13988Z" fill="#C3C3C4"/>
<path d="M57.9421 16.1526V31.0707H60.5173V16.1526L63.4698 19.105L65.2904 17.2844L59.2297 11.2236L53.1689 17.2844L54.9896 19.105L57.9421 16.1526Z" fill="#C3C3C4"/>
</svg>
