<svg width="90" height="90" viewBox="0 0 90 90" fill="none" xmlns="http://www.w3.org/2000/svg">
<path d="M33.5594 29.3555H7.62723C7.22266 29.3555 6.83467 29.5162 6.5486 29.8023C6.26253 30.0883 6.10181 30.4763 6.10181 30.8809V38.508C6.10179 38.7448 6.15693 38.9784 6.26284 39.1903C6.36876 39.4021 6.52254 39.5863 6.71201 39.7284L12.8137 44.3047C13.0778 44.5027 13.3989 44.6097 13.7289 44.6097H27.4577C27.7878 44.6097 28.1089 44.5027 28.373 44.3047L34.4747 39.7284C34.6641 39.5863 34.8179 39.4021 34.9238 39.1903C35.0297 38.9784 35.0849 38.7448 35.0849 38.508V30.8809C35.0849 30.4763 34.9241 30.0883 34.6381 29.8023C34.352 29.5162 33.964 29.3555 33.5594 29.3555ZM32.034 37.7453L26.9493 41.5589H14.2374L9.15265 37.7453V32.4063H32.034V37.7453Z" fill="#C3C3C4"/>
<path d="M32.034 47.6611H9.15262C8.74805 47.6611 8.36006 47.8219 8.07399 48.1079C7.78792 48.394 7.6272 48.782 7.6272 49.1866V72.0679C7.6272 72.4725 7.78792 72.8605 8.07399 73.1465C8.36006 73.4326 8.74805 73.5933 9.15262 73.5933H32.034C32.4385 73.5933 32.8265 73.4326 33.1126 73.1465C33.3987 72.8605 33.5594 72.4725 33.5594 72.0679V49.1866C33.5594 48.782 33.3987 48.394 33.1126 48.1079C32.8265 47.8219 32.4385 47.6611 32.034 47.6611ZM30.5086 55.2883H25.9323V50.712H30.5086V55.2883ZM10.678 58.3391H15.2543V62.9154H10.678V58.3391ZM18.3052 58.3391H22.8814V62.9154H18.3052V58.3391ZM22.8814 55.2883H18.3052V50.712H22.8814V55.2883ZM10.678 50.712H15.2543V55.2883H10.678V50.712ZM10.678 65.9662H15.2543V70.5425H10.678V65.9662ZM18.3052 65.9662H22.8814V70.5425H18.3052V65.9662ZM30.5086 70.5425H25.9323V58.3391H30.5086V70.5425Z" fill="#C3C3C4"/>
<path d="M85.4237 21.7288C85.4237 21.3242 85.263 20.9363 84.9769 20.6502C84.6909 20.3641 84.3029 20.2034 83.8983 20.2034H71.6949C71.2904 20.2034 70.9024 20.3641 70.6163 20.6502C70.3302 20.9363 70.1695 21.3242 70.1695 21.7288V32.4068H59.4915C59.087 32.4068 58.699 32.5675 58.4129 32.8536C58.1268 33.1396 57.9661 33.5276 57.9661 33.9322V43.0847H47.2881C46.8836 43.0847 46.4956 43.2455 46.2095 43.5315C45.9234 43.8176 45.7627 44.2056 45.7627 44.6102V72.0678H41.1864V35.4576H45.7627V36.983C45.7627 37.3876 45.9234 37.7756 46.2095 38.0617C46.4956 38.3478 46.8836 38.5085 47.2881 38.5085H53.3898C53.7944 38.5085 54.1824 38.3478 54.4685 38.0617C54.7545 37.7756 54.9153 37.3876 54.9153 36.983V31.5133L58.598 27.8305H64.0678C64.4724 27.8305 64.8604 27.6698 65.1464 27.3837C65.4325 27.0976 65.5932 26.7097 65.5932 26.3051V20.8353L69.276 17.1525H74.7458C75.1503 17.1525 75.5383 16.9918 75.8244 16.7058C76.1105 16.4197 76.2712 16.0317 76.2712 15.6271V14.1017H85.4237V11.0508H76.2712V9.52542C76.2712 9.12086 76.1105 8.73286 75.8244 8.44679C75.5383 8.16072 75.1503 8 74.7458 8H68.6441C68.2395 8 67.8515 8.16072 67.5654 8.44679C67.2794 8.73286 67.1187 9.12086 67.1186 9.52542V14.9952L63.4359 18.678H57.9661C57.5615 18.678 57.1735 18.8387 56.8875 19.1248C56.6014 19.4108 56.4407 19.7988 56.4407 20.2034V25.6732L52.7579 29.3559H47.2881C46.8836 29.3559 46.4956 29.5167 46.2095 29.8027C45.9234 30.0888 45.7627 30.4768 45.7627 30.8814V32.4068H41.1864V30.8814C41.1841 28.8592 40.3798 26.9206 38.95 25.4907C37.5201 24.0608 35.5815 23.2565 33.5593 23.2542H7.62712C5.60499 23.2565 3.66633 24.0608 2.23647 25.4907C0.806604 26.9206 0.00229727 28.8592 0 30.8814V73.5932C0.00229727 75.6153 0.806604 77.554 2.23647 78.9839C3.66633 80.4137 5.60499 81.218 7.62712 81.2203H33.5593C35.3168 81.218 37.0198 80.6099 38.3811 79.4984C39.7425 78.387 40.6791 76.8401 41.033 75.1186H90V72.0678H85.4237V21.7288ZM70.1695 11.0508H73.2203V14.1017H70.1695V11.0508ZM59.4915 21.7288H62.5424V24.7797H59.4915V21.7288ZM48.8136 32.4068H51.8644V35.4576H48.8136V32.4068ZM38.1356 73.5932C38.1342 74.8065 37.6516 75.9697 36.7937 76.8276C35.9358 77.6855 34.7726 78.1681 33.5593 78.1695H7.62712C6.41384 78.1681 5.25064 77.6855 4.39272 76.8276C3.5348 75.9697 3.05222 74.8065 3.05085 73.5932V30.8814C3.05222 29.6681 3.5348 28.5049 4.39272 27.647C5.25064 26.789 6.41384 26.3065 7.62712 26.3051H33.5593C34.7726 26.3065 35.9358 26.789 36.7937 27.647C37.6516 28.5049 38.1342 29.6681 38.1356 30.8814V73.5932ZM48.8136 46.1356H57.9661V72.0678H48.8136V46.1356ZM61.017 44.6102V35.4576H70.1695V72.0678H61.017V44.6102ZM73.2203 72.0678V23.2542H82.3729V72.0678H73.2203Z" fill="#C3C3C4"/>
<path d="M56.4406 78.1699H50.3389V81.2208H56.4406V78.1699Z" fill="#C3C3C4"/>
<path d="M68.6442 78.1699H62.5425V81.2208H68.6442V78.1699Z" fill="#C3C3C4"/>
<path d="M80.8475 78.1699H74.7458V81.2208H80.8475V78.1699Z" fill="#C3C3C4"/>
</svg>
