<svg width="90" height="90" viewBox="0 0 90 90" fill="none" xmlns="http://www.w3.org/2000/svg">
<path d="M85.7812 2.8125H45C44.627 2.8125 44.2694 2.96066 44.0056 3.22439C43.7419 3.48811 43.5938 3.84579 43.5938 4.21875V29.5312C43.5938 29.9042 43.7419 30.2619 44.0056 30.5256C44.2694 30.7893 44.627 30.9375 45 30.9375H49.2188V43.5938C49.2187 43.8782 49.305 44.1559 49.4661 44.3903C49.6272 44.6247 49.8556 44.8048 50.1212 44.9067C50.3867 45.0086 50.677 45.0275 50.9535 44.9611C51.2301 44.8946 51.48 44.7459 51.6702 44.5345L63.9076 30.9375H85.7812C86.1542 30.9375 86.5119 30.7893 86.7756 30.5256C87.0393 30.2619 87.1875 29.9042 87.1875 29.5312V4.21875C87.1875 3.84579 87.0393 3.48811 86.7756 3.22439C86.5119 2.96066 86.1542 2.8125 85.7812 2.8125ZM84.375 28.125H63.2812C63.0841 28.125 62.8892 28.1665 62.7091 28.2467C62.5291 28.3269 62.3679 28.444 62.236 28.5905L52.0312 39.9291V29.5312C52.0312 29.1583 51.8831 28.8006 51.6194 28.5369C51.3556 28.2732 50.998 28.125 50.625 28.125H46.4062V5.625H84.375V28.125Z" fill="#C3C3C4"/>
<path d="M57.5519 20.1656L59.4745 22.0882C59.7382 22.3518 60.0959 22.4999 60.4688 22.4999C60.8417 22.4999 61.1994 22.3518 61.4632 22.0882L66.0938 17.4574L69.3182 20.6819C69.582 20.9456 69.9396 21.0937 70.3126 21.0937C70.6855 21.0937 71.0431 20.9456 71.3069 20.6819L78.7501 13.2388V16.875H81.5626V9.84375C81.5626 9.47079 81.4144 9.11311 81.1507 8.84939C80.887 8.58566 80.5293 8.4375 80.1563 8.4375H73.1251V11.25H76.7613L70.3126 17.6988L67.0882 14.4743C66.8244 14.2107 66.4667 14.0626 66.0938 14.0626C65.7209 14.0626 65.3632 14.2107 65.0995 14.4743L60.4688 19.1051L58.6507 17.2868C58.4059 17.0423 58.0795 16.8965 57.734 16.8774C57.3886 16.8583 57.0481 16.9671 56.7778 17.1831L49.7466 22.8081L51.5035 25.0044L57.5519 20.1656Z" fill="#C3C3C4"/>
<path d="M54.8437 47.8125H52.0312V50.7704C50.7612 49.4728 49.157 48.5518 47.3961 48.1093C45.6351 47.6668 43.7861 47.72 42.0536 48.263C40.321 48.8061 38.7724 49.8178 37.5791 51.1863C36.3858 52.5548 35.5944 54.2267 35.2922 56.0171L38.0659 56.4826C38.2957 55.1266 38.918 53.8678 39.8559 52.8619C40.7937 51.8559 42.006 51.1471 43.3425 50.823C44.6791 50.499 46.0814 50.5739 47.3758 51.0386C48.6702 51.5033 49.8 52.3373 50.6253 53.4375H46.4062V56.25H53.4374C53.8104 56.25 54.1681 56.1018 54.4318 55.8381C54.6955 55.5744 54.8437 55.2167 54.8437 54.8438V47.8125Z" fill="#C3C3C4"/>
<path d="M43.5938 59.0627H36.5625C36.1895 59.0627 35.8319 59.2108 35.5681 59.4746C35.3044 59.7383 35.1563 60.096 35.1562 60.4689V67.5002H37.9688V64.5423C39.2388 65.8399 40.843 66.7609 42.6039 67.2034C44.3648 67.6459 46.2138 67.5927 47.9464 67.0496C49.679 66.5066 51.2275 65.4949 52.4208 64.1264C53.6141 62.7579 54.4056 61.086 54.7077 59.2956L51.934 58.8301C51.7042 60.1861 51.0819 61.4449 50.1441 62.4508C49.2062 63.4567 47.994 64.1656 46.6574 64.4897C45.3208 64.8137 43.9186 64.7388 42.6242 64.2741C41.3297 63.8094 40.2 62.9753 39.3747 61.8752H43.5938V59.0627Z" fill="#C3C3C4"/>
<path d="M82.9688 78.75H80.1562V33.75H77.3438V78.75H9.84375V30.9375H40.7812V28.125H8.4375C8.06454 28.125 7.70686 28.2732 7.44314 28.5369C7.17941 28.8006 7.03125 29.1583 7.03125 29.5312V78.75H4.21875C3.84579 78.75 3.48811 78.8982 3.22439 79.1619C2.96066 79.4256 2.8125 79.7833 2.8125 80.1562V85.7812C2.8125 86.1542 2.96066 86.5119 3.22439 86.7756C3.48811 87.0393 3.84579 87.1875 4.21875 87.1875H82.9688C83.3417 87.1875 83.6994 87.0393 83.9631 86.7756C84.2268 86.5119 84.375 86.1542 84.375 85.7812V80.1562C84.375 79.7833 84.2268 79.4256 83.9631 79.1619C83.6994 78.8982 83.3417 78.75 82.9688 78.75ZM81.5625 84.375H5.625V81.5625H81.5625V84.375Z" fill="#C3C3C4"/>
<path d="M12.6562 35.1562V74.5312C12.6563 74.9042 12.8044 75.2619 13.0681 75.5256C13.3319 75.7893 13.6895 75.9375 14.0625 75.9375H73.125C73.498 75.9375 73.8556 75.7893 74.1194 75.5256C74.3831 75.2619 74.5312 74.9042 74.5312 74.5312V35.1562C74.5312 34.7833 74.3831 34.4256 74.1194 34.1619C73.8556 33.8982 73.498 33.75 73.125 33.75H64.6875V36.5625H71.7188V73.125H15.4688V36.5625H46.4062V33.75H14.0625C13.6895 33.75 13.3319 33.8982 13.0681 34.1619C12.8044 34.4256 12.6563 34.7833 12.6562 35.1562Z" fill="#C3C3C4"/>
</svg>
