<svg width="90" height="90" viewBox="0 0 90 90" fill="none" xmlns="http://www.w3.org/2000/svg">
<path d="M84.375 61.875H80.1562V52.0312C80.1562 51.6583 80.0081 51.3006 79.7444 51.0369C79.4806 50.7732 79.123 50.625 78.75 50.625H46.4062C46.0333 50.625 45.6756 50.7732 45.4119 51.0369C45.1482 51.3006 45 51.6583 45 52.0312V63.2812C45 63.6542 45.1482 64.0119 45.4119 64.2756C45.6756 64.5393 46.0333 64.6875 46.4062 64.6875H50.625V73.125H47.8125V68.9062C47.8125 68.5333 47.6643 68.1756 47.4006 67.9119C47.1369 67.6482 46.7792 67.5 46.4062 67.5H36.5625V63.2812C36.5625 62.9083 36.4143 62.5506 36.1506 62.2869C35.8869 62.0232 35.5292 61.875 35.1562 61.875H21.0938C20.7208 61.875 20.3631 62.0232 20.0994 62.2869C19.8357 62.5506 19.6875 62.9083 19.6875 63.2812V67.5H4.21875C3.84579 67.5 3.48811 67.6482 3.22439 67.9119C2.96066 68.1756 2.8125 68.5333 2.8125 68.9062V74.5312C2.8125 74.9042 2.96066 75.2619 3.22439 75.5256C3.48811 75.7893 3.84579 75.9375 4.21875 75.9375H5.625V78.75H4.21875C3.84579 78.75 3.48811 78.8982 3.22439 79.1619C2.96066 79.4256 2.8125 79.7833 2.8125 80.1562V85.7812C2.8125 86.1542 2.96066 86.5119 3.22439 86.7756C3.48811 87.0393 3.84579 87.1875 4.21875 87.1875H78.75C79.123 87.1875 79.4806 87.0393 79.7444 86.7756C80.0081 86.5119 80.1562 86.1542 80.1562 85.7812V75.9375H84.375C84.748 75.9375 85.1056 75.7893 85.3694 75.5256C85.6331 75.2619 85.7812 74.9042 85.7812 74.5312V63.2812C85.7812 62.9083 85.6331 62.5506 85.3694 62.2869C85.1056 62.0232 84.748 61.875 84.375 61.875ZM77.3438 61.875H66.0938V53.4375H77.3438V61.875ZM66.0938 73.125V64.6875H68.9062V73.125H66.0938ZM36.5625 78.75V75.9375H47.8125V78.75H36.5625ZM33.75 75.9375V78.75H22.5V75.9375H33.75ZM19.6875 73.125V70.3125H30.9375V73.125H19.6875ZM19.6875 75.9375V78.75H8.4375V75.9375H19.6875ZM30.9375 81.5625V84.375H19.6875V81.5625H30.9375ZM33.75 81.5625H45V84.375H33.75V81.5625ZM47.8125 81.5625H49.2188C49.5917 81.5625 49.9494 81.4143 50.2131 81.1506C50.4768 80.8869 50.625 80.5292 50.625 80.1562V75.9375H57.6562V84.375H47.8125V81.5625ZM60.4688 75.9375H63.2812V84.375H60.4688V75.9375ZM60.4688 61.875V53.4375H63.2812V61.875H60.4688ZM47.8125 53.4375H57.6562V61.875H47.8125V53.4375ZM53.4375 64.6875H63.2812V73.125H53.4375V64.6875ZM45 73.125H33.75V70.3125H45V73.125ZM22.5 64.6875H33.75V67.5H22.5V64.6875ZM5.625 70.3125H16.875V73.125H5.625V70.3125ZM5.625 81.5625H16.875V84.375H5.625V81.5625ZM77.3438 84.375H66.0938V75.9375H77.3438V84.375ZM82.9688 73.125H71.7188V64.6875H82.9688V73.125Z" fill="#05C632"/>
<path d="M21.0938 59.0625V43.5938C21.0937 43.2208 20.9456 42.8631 20.6819 42.5994C20.4181 42.3357 20.0605 42.1875 19.6875 42.1875H14.0625C13.6895 42.1875 13.3319 42.3357 13.0681 42.5994C12.8044 42.8631 12.6563 43.2208 12.6562 43.5938V64.6875H15.4688V45H18.2812V59.0625H21.0938Z" fill="#05C632"/>
<path d="M35.1562 59.0625V36.5625C35.1562 36.1895 35.0081 35.8319 34.7444 35.5681C34.4806 35.3044 34.123 35.1563 33.75 35.1562H28.125C27.752 35.1563 27.3944 35.3044 27.1306 35.5681C26.8669 35.8319 26.7188 36.1895 26.7188 36.5625V59.0625H29.5312V37.9688H32.3438V59.0625H35.1562Z" fill="#05C632"/>
<path d="M49.2188 47.8125V40.7812C49.2187 40.4083 49.0706 40.0506 48.8069 39.7869C48.5431 39.5232 48.1855 39.375 47.8125 39.375H42.1875C41.8145 39.375 41.4569 39.5232 41.1931 39.7869C40.9294 40.0506 40.7813 40.4083 40.7812 40.7812V47.8125H43.5938V42.1875H46.4062V47.8125H49.2188Z" fill="#05C632"/>
<path d="M63.2812 47.8125V36.5625C63.2812 36.1895 63.1331 35.8319 62.8694 35.5681C62.6056 35.3044 62.248 35.1563 61.875 35.1562H56.25C55.877 35.1563 55.5194 35.3044 55.2556 35.5681C54.9919 35.8319 54.8438 36.1895 54.8438 36.5625V47.8125H57.6562V37.9688H60.4688V47.8125H63.2812Z" fill="#05C632"/>
<path d="M77.3438 47.8125V25.3125C77.3437 24.9395 77.1956 24.5819 76.9319 24.3181C76.6681 24.0544 76.3105 23.9063 75.9375 23.9062H70.3125C69.9395 23.9063 69.5819 24.0544 69.3181 24.3181C69.0544 24.5819 68.9063 24.9395 68.9062 25.3125V47.8125H71.7188V26.7188H74.5312V47.8125H77.3438Z" fill="#05C632"/>
<path d="M17.2869 38.9631C17.5506 39.2268 17.9083 39.375 18.2813 39.375C18.6543 39.375 19.012 39.2268 19.2757 38.9631L35.1563 23.0825L48.2244 36.1506C48.4881 36.4143 48.8458 36.5625 49.2188 36.5625C49.5918 36.5625 49.9495 36.4143 50.2132 36.1506L68.9063 17.4575V19.6875C68.9063 20.0605 69.0545 20.4181 69.3182 20.6819C69.5819 20.9456 69.9396 21.0937 70.3125 21.0938H75.9375C76.3105 21.0937 76.6682 20.9456 76.9319 20.6819C77.1956 20.4181 77.3438 20.0605 77.3438 19.6875V4.21875C77.3438 3.84579 77.1956 3.48811 76.9319 3.22439C76.6682 2.96066 76.3105 2.8125 75.9375 2.8125H60.4688C60.0958 2.8125 59.7382 2.96066 59.4744 3.22439C59.2107 3.48811 59.0625 3.84579 59.0625 4.21875V9.84375C59.0625 10.2167 59.2107 10.5744 59.4744 10.8381C59.7382 11.1018 60.0958 11.25 60.4688 11.25H62.6988L49.2188 24.73L36.1507 11.6619C35.887 11.3982 35.5293 11.25 35.1563 11.25C34.7833 11.25 34.4256 11.3982 34.1619 11.6619L13.0681 32.7557C12.8044 33.0194 12.6563 33.377 12.6562 33.75C12.6562 34.123 12.8044 34.4806 13.0681 34.7443L17.2869 38.9631ZM35.1563 14.645L48.2244 27.7131C48.4881 27.9768 48.8458 28.125 49.2188 28.125C49.5918 28.125 49.9495 27.9768 50.2132 27.7131L67.0882 10.8381C67.2849 10.6414 67.4188 10.3908 67.473 10.1181C67.5272 9.84529 67.4994 9.56256 67.3929 9.30561C67.2865 9.04866 67.1063 8.82905 66.875 8.67453C66.6438 8.52001 66.3719 8.43752 66.0938 8.4375H61.875V5.625H74.5313V18.2812H71.7188V14.0625C71.7188 13.7844 71.6363 13.5125 71.4818 13.2812C71.3273 13.0499 71.1076 12.8697 70.8507 12.7633C70.5937 12.6568 70.3109 12.629 70.0381 12.6833C69.7654 12.7375 69.5148 12.8715 69.3181 13.0682L49.2188 33.1675L36.1507 20.0994C35.887 19.8357 35.5293 19.6875 35.1563 19.6875C34.7833 19.6875 34.4256 19.8357 34.1619 20.0994L18.2813 35.98L16.0512 33.75L35.1563 14.645Z" fill="#05C632"/>
</svg>
