<svg width="88" height="88" viewBox="0 0 88 88" fill="none" xmlns="http://www.w3.org/2000/svg">
<g clip-path="url(#clip0_11_289)">
<path d="M44 76C61.6731 76 76 61.6731 76 44C76 26.3269 61.6731 12 44 12C26.3269 12 12 26.3269 12 44C12 61.6731 26.3269 76 44 76Z" fill="white"/>
<path d="M43.7901 0C19.6461 0 0.000111046 19.645 0.000111046 43.79C0.000111046 51.33 1.94811 58.744 5.64211 65.286L0.070111 85.163C-0.00965437 85.446 -0.0227265 85.7436 0.0319213 86.0325C0.0865691 86.3214 0.207449 86.5937 0.385067 86.828C0.562685 87.0623 0.792204 87.2523 1.0556 87.3829C1.31899 87.5136 1.60909 87.5814 1.90311 87.581C2.05611 87.581 2.21011 87.561 2.36011 87.526L23.1051 82.387C29.4671 85.7955 36.5726 87.5797 43.7901 87.581C67.9351 87.581 87.5801 67.936 87.5801 43.791C87.5811 19.645 67.9351 0 43.7901 0Z" fill="url(#paint0_linear_11_289)"/>
<path d="M43.9999 49.4439C47.0065 49.4439 49.4439 47.0065 49.4439 43.9999C49.4439 40.9933 47.0065 38.5559 43.9999 38.5559C40.9933 38.5559 38.5559 40.9933 38.5559 43.9999C38.5559 47.0065 40.9933 49.4439 43.9999 49.4439Z" fill="white"/>
<path d="M59.5561 49.4439C62.5627 49.4439 65.0001 47.0065 65.0001 43.9999C65.0001 40.9933 62.5627 38.5559 59.5561 38.5559C56.5494 38.5559 54.1121 40.9933 54.1121 43.9999C54.1121 47.0065 56.5494 49.4439 59.5561 49.4439Z" fill="white"/>
<path d="M28.444 49.4439C31.4506 49.4439 33.888 47.0065 33.888 43.9999C33.888 40.9933 31.4506 38.5559 28.444 38.5559C25.4374 38.5559 23 40.9933 23 43.9999C23 47.0065 25.4374 49.4439 28.444 49.4439Z" fill="white"/>
</g>
<defs>
<linearGradient id="paint0_linear_11_289" x1="43.7911" y1="0" x2="43.7911" y2="87.581" gradientUnits="userSpaceOnUse">
<stop stop-color="#8FC3AC"/>
<stop offset="1" stop-color="#72A68F"/>
</linearGradient>
<clipPath id="clip0_11_289">
<rect width="88" height="88" fill="white"/>
</clipPath>
</defs>
</svg>
