<svg width="281" height="172" viewBox="0 0 281 172" fill="none" xmlns="http://www.w3.org/2000/svg">
<g clip-path="url(#clip0_11_457)">
<g filter="url(#filter0_d_11_457)">
<path d="M53.049 41.4484C53.0491 40.8806 53.1608 40.3185 53.3776 39.7941C53.5945 39.2697 53.9123 38.7934 54.3128 38.3924C54.7133 37.9913 55.1887 37.6735 55.7118 37.457C56.2348 37.2405 56.7953 37.1296 57.3612 37.1306H229.698C230.842 37.1306 231.939 37.5865 232.747 38.3979C233.556 39.2092 234.01 40.3097 234.01 41.4572V110.028C234.01 112.424 232.105 114.364 229.718 114.355C203.997 114.256 71.2919 113.744 67.3791 113.744C63.0474 113.744 59.0481 110.846 59.0481 110.846C59.0481 110.846 54.3824 113.703 47.717 113.703C52.7158 111.362 53.049 107.684 53.049 104.34V41.4484Z" fill="white"/>
</g>
<path d="M113.535 73.0751C113.535 74.0344 113.432 74.8634 113.224 75.5629C113.022 76.2633 112.742 76.8441 112.383 77.3051C112.05 77.7453 111.616 78.0977 111.117 78.3318C110.624 78.5567 110.089 78.671 109.548 78.6669C109.006 78.671 108.471 78.5567 107.978 78.3318C107.479 78.0977 107.045 77.7453 106.712 77.3051C106.358 76.8441 106.08 76.2633 105.878 75.5629C105.675 74.8625 105.575 74.0344 105.575 73.076C105.575 72.1167 105.675 71.2877 105.878 70.5882C106.08 69.8834 106.358 69.3026 106.712 68.8461C107.045 68.4058 107.479 68.0534 107.978 67.8194C108.47 67.5898 109.006 67.4729 109.548 67.4771C110.109 67.4771 110.632 67.5906 111.117 67.8194C111.616 68.0534 112.05 68.4058 112.383 68.8461C112.742 69.3026 113.022 69.8834 113.224 70.5882C113.432 71.2886 113.535 72.1167 113.535 73.0751ZM111.852 73.0751C111.852 72.2639 111.787 71.5901 111.655 71.0519C111.529 70.5093 111.359 70.0766 111.147 69.7513C110.935 69.4268 110.689 69.1963 110.412 69.0597C110.142 68.9244 109.845 68.854 109.544 68.854C109.242 68.854 108.945 68.9244 108.675 69.0597C108.402 69.1963 108.16 69.4268 107.947 69.7513C107.735 70.0758 107.566 70.5093 107.439 71.0519C107.313 71.5892 107.25 72.2639 107.25 73.0751C107.25 73.8872 107.313 74.5646 107.439 75.1063C107.566 75.6445 107.735 76.0754 107.947 76.3999C108.16 76.7244 108.402 76.9549 108.675 77.0914C108.945 77.2267 109.242 77.2971 109.544 77.2971C109.845 77.2971 110.142 77.2267 110.412 77.0914C110.689 76.9549 110.935 76.7244 111.147 76.3999C111.359 76.0754 111.529 75.6445 111.655 75.1063C111.787 74.5637 111.852 73.8864 111.852 73.0751ZM119.087 74.2543C119.187 74.1275 119.281 74.0087 119.367 73.897C119.452 73.7809 119.536 73.6638 119.617 73.5468C119.349 73.7401 119.054 73.8837 118.73 73.9812C118.395 74.0789 118.048 74.1272 117.699 74.1249C117.304 74.1249 116.925 74.0592 116.562 73.928C116.202 73.7936 115.872 73.5893 115.591 73.3269C115.3 73.0461 115.068 72.7097 114.909 72.3375C114.742 71.942 114.659 71.4881 114.659 70.9757C114.659 70.4942 114.747 70.0403 114.924 69.6147C115.106 69.1892 115.358 68.8186 115.682 68.5038C116.015 68.1779 116.409 67.9217 116.842 67.7502C117.318 67.5632 117.825 67.4704 118.335 67.4771C118.876 67.4771 119.367 67.5658 119.807 67.7431C120.246 67.9151 120.621 68.1616 120.929 68.4808C121.237 68.7955 121.474 69.1732 121.641 69.6147C121.813 70.0769 121.897 70.5668 121.891 71.0599C121.891 71.3897 121.861 71.7009 121.8 71.9952C121.745 72.2894 121.661 72.5774 121.55 72.8553C121.444 73.1292 121.312 73.4005 121.156 73.6691C121.004 73.9325 120.833 74.2011 120.641 74.4759L118.07 78.1731C117.983 78.2932 117.865 78.3876 117.729 78.4461C117.583 78.5171 117.416 78.5525 117.229 78.5525H115.735L119.087 74.2543ZM120.33 70.8764C120.33 70.5572 120.279 70.2735 120.178 70.0252C120.088 69.7811 119.946 69.56 119.761 69.378C119.584 69.2007 119.372 69.0668 119.125 68.9755C118.865 68.8772 118.59 68.8282 118.313 68.831C118.005 68.831 117.727 68.8815 117.479 68.9826C117.24 69.0782 117.023 69.2232 116.842 69.4082C116.665 69.5864 116.528 69.7991 116.433 70.0483C116.334 70.3056 116.285 70.5794 116.289 70.8551C116.289 71.5032 116.46 72.0032 116.804 72.3534C117.153 72.6974 117.638 72.8703 118.259 72.8703C118.593 72.8703 118.887 72.8171 119.14 72.7107C119.397 72.6043 119.614 72.4625 119.792 72.2852C119.968 72.1016 120.102 71.8915 120.193 71.653C120.285 71.4049 120.331 71.1411 120.33 70.8764ZM130.263 68.3052C130.267 68.4104 130.25 68.5154 130.212 68.6136C130.174 68.7117 130.116 68.8011 130.043 68.8762C129.896 69.0234 129.651 69.0978 129.308 69.0978H126.108L125.668 71.645C126.189 71.5386 126.672 71.4855 127.116 71.4855C127.688 71.4855 128.191 71.5715 128.626 71.7443C129.065 71.9119 129.431 72.1451 129.725 72.4448C130.023 72.7435 130.245 73.0955 130.392 73.5016C130.543 73.9023 130.619 74.3385 130.619 74.8102C130.619 75.3927 130.518 75.9229 130.316 76.3999C130.123 76.8623 129.837 77.2793 129.475 77.6243C129.116 77.9594 128.691 78.2183 128.201 78.4009C127.696 78.5866 127.162 78.6792 126.624 78.674C126.006 78.6773 125.395 78.5533 124.827 78.3096C124.574 78.1979 124.33 78.0653 124.099 77.9133C123.888 77.7704 123.688 77.6128 123.5 77.4416L124.001 76.7421C124.046 76.6709 124.109 76.6126 124.183 76.5727C124.257 76.5328 124.34 76.5127 124.425 76.5142C124.555 76.5203 124.681 76.5623 124.789 76.6357C124.92 76.7164 125.072 76.8059 125.244 76.9017C125.421 76.993 125.628 77.079 125.866 77.1606C126.103 77.2412 126.386 77.282 126.715 77.282C127.074 77.282 127.395 77.2235 127.677 77.1074C127.951 76.9987 128.197 76.8304 128.397 76.6146C128.598 76.3989 128.748 76.1411 128.838 75.8599C128.938 75.5656 128.99 75.2437 128.99 74.8935C128.99 74.5744 128.941 74.288 128.846 74.0335C128.759 73.7881 128.616 73.5666 128.428 73.3872C128.232 73.2018 127.996 73.064 127.738 72.9847C127.427 72.8833 127.102 72.8345 126.775 72.8402C126.205 72.8413 125.639 72.9362 125.1 73.1212L124.084 72.8322L124.979 67.5986H130.263V68.3052ZM139.059 68.3052C139.063 68.4104 139.045 68.5154 139.008 68.6136C138.97 68.7117 138.912 68.8011 138.839 68.8762C138.692 69.0234 138.447 69.0978 138.104 69.0978H134.904L134.465 71.645C134.941 71.5434 135.426 71.4899 135.912 71.4855C136.484 71.4855 136.987 71.5715 137.421 71.7443C137.861 71.9119 138.227 72.1451 138.521 72.4448C138.818 72.7435 139.041 73.0955 139.188 73.5016C139.34 73.9023 139.415 74.3385 139.415 74.8102C139.415 75.3927 139.314 75.9229 139.112 76.3999C138.919 76.8623 138.633 77.2793 138.271 77.6243C137.912 77.9594 137.487 78.2183 136.996 78.4009C136.492 78.5866 135.958 78.6792 135.42 78.674C135.086 78.674 134.768 78.6412 134.465 78.5756C134.176 78.513 133.895 78.424 133.623 78.3096C133.37 78.1981 133.126 78.0655 132.895 77.9133C132.685 77.7706 132.484 77.613 132.296 77.4416L132.796 76.7421C132.842 76.6709 132.905 76.6125 132.979 76.5726C133.054 76.5327 133.137 76.5126 133.221 76.5142C133.332 76.5142 133.454 76.5541 133.585 76.6357C133.716 76.7164 133.868 76.8059 134.04 76.9017C134.216 76.993 134.424 77.079 134.662 77.1606C134.899 77.2412 135.182 77.282 135.511 77.282C135.87 77.282 136.19 77.2235 136.473 77.1074C136.747 76.9987 136.993 76.8304 137.193 76.6146C137.394 76.3989 137.544 76.1411 137.633 75.8599C137.734 75.5656 137.785 75.2437 137.785 74.8935C137.785 74.5744 137.737 74.288 137.641 74.0335C137.555 73.7881 137.412 73.5666 137.224 73.3872C137.028 73.2016 136.792 73.0638 136.534 72.9847C136.223 72.8833 135.898 72.8345 135.571 72.8402C135.001 72.8413 134.435 72.9362 133.896 73.1212L132.879 72.8322L133.775 67.5986H139.059V68.3052ZM147.225 74.5052H148.735V75.4494C148.736 75.5366 148.703 75.6208 148.644 75.6844C148.588 75.7509 148.501 75.7837 148.386 75.7837H147.225V78.5525H145.808V75.7837H141.084C140.975 75.7858 140.868 75.7508 140.781 75.6844C140.703 75.6169 140.647 75.5268 140.622 75.4264L140.455 74.5894L145.694 67.5906H147.225V74.5052ZM145.808 70.504C145.809 70.153 145.831 69.8024 145.876 69.4543L142.206 74.5061H145.808V70.504ZM150.972 77.3131H153.247V70.4508C153.247 70.2132 153.255 69.9641 153.27 69.7061L151.518 71.1893C151.449 71.2463 151.369 71.2877 151.283 71.3108C151.211 71.326 151.136 71.326 151.063 71.3108C151 71.2964 150.938 71.2735 150.881 71.2425C150.835 71.2111 150.794 71.1725 150.76 71.1282L150.252 70.4136L153.543 67.5764H154.869V77.3131H156.923V78.5525H150.972V77.3131Z" fill="#8FC3AC"/>
<path d="M105.158 81.0173H157.646" stroke="#8FC3AC" stroke-opacity="0.43" stroke-width="1.32"/>
<path opacity="0.75" d="M129.954 51.1743H69.3001C67.6896 51.1743 66.384 52.4842 66.384 54.1001C66.384 55.7159 67.6896 57.0259 69.3001 57.0259H129.954C131.564 57.0259 132.87 55.7159 132.87 54.1001C132.87 52.4842 131.564 51.1743 129.954 51.1743Z" fill="#E0E2E9"/>
<path opacity="0.75" d="M93.7948 72.24H69.3001C67.6896 72.24 66.384 73.5499 66.384 75.1658C66.384 76.7816 67.6896 78.0915 69.3001 78.0915H93.7948C95.4053 78.0915 96.7108 76.7816 96.7108 75.1658C96.7108 73.5499 95.4053 72.24 93.7948 72.24Z" fill="#E0E2E9"/>
<path opacity="0.75" d="M161.447 93.3057H69.3001C67.6896 93.3057 66.384 94.6156 66.384 96.2314C66.384 97.8473 67.6896 99.1572 69.3001 99.1572H161.447C163.057 99.1572 164.363 97.8473 164.363 96.2314C164.363 94.6156 163.057 93.3057 161.447 93.3057Z" fill="#E0E2E9"/>
<path opacity="0.75" d="M190.607 93.3057H171.945C170.334 93.3057 169.029 94.6156 169.029 96.2314C169.029 97.8473 170.334 99.1572 171.945 99.1572H190.607C192.218 99.1572 193.523 97.8473 193.523 96.2314C193.523 94.6156 192.218 93.3057 190.607 93.3057Z" fill="#E0E2E9"/>
<path opacity="0.75" d="M213.934 72.24H168.444C166.833 72.24 165.528 73.5499 165.528 75.1658C165.528 76.7816 166.833 78.0915 168.444 78.0915H213.934C215.544 78.0915 216.85 76.7816 216.85 75.1658C216.85 73.5499 215.544 72.24 213.934 72.24Z" fill="#E0E2E9"/>
<path opacity="0.75" d="M169.611 51.1743H140.45C138.84 51.1743 137.534 52.4842 137.534 54.1001C137.534 55.7159 138.84 57.0259 140.45 57.0259H169.611C171.221 57.0259 172.527 55.7159 172.527 54.1001C172.527 52.4842 171.221 51.1743 169.611 51.1743Z" fill="#E0E2E9"/>
<path opacity="0.75" d="M202.272 51.1743H180.11C178.5 51.1743 177.194 52.4842 177.194 54.1001C177.194 55.7159 178.5 57.0259 180.11 57.0259H202.272C203.883 57.0259 205.188 55.7159 205.188 54.1001C205.188 52.4842 203.883 51.1743 202.272 51.1743Z" fill="#E0E2E9"/>
</g>
<defs>
<filter id="filter0_d_11_457" x="-5.32296" y="-4.19839" width="292.373" height="183.304" filterUnits="userSpaceOnUse" color-interpolation-filters="sRGB">
<feFlood flood-opacity="0" result="BackgroundImageFix"/>
<feColorMatrix in="SourceAlpha" type="matrix" values="0 0 0 0 0 0 0 0 0 0 0 0 0 0 0 0 0 0 127 0" result="hardAlpha"/>
<feOffset dy="11.711"/>
<feGaussianBlur stdDeviation="26.52"/>
<feColorMatrix type="matrix" values="0 0 0 0 0.245001 0 0 0 0 0.323603 0 0 0 0 0.614668 0 0 0 0.07 0"/>
<feBlend mode="normal" in2="BackgroundImageFix" result="effect1_dropShadow_11_457"/>
<feBlend mode="normal" in="SourceGraphic" in2="effect1_dropShadow_11_457" result="shape"/>
</filter>
<clipPath id="clip0_11_457">
<rect width="281" height="172" fill="white"/>
</clipPath>
</defs>
</svg>
