<svg width="178" height="98" viewBox="0 0 178 98" fill="none" xmlns="http://www.w3.org/2000/svg">
<g clip-path="url(#clip0_11_336)">
<path d="M172.613 0H4.455C1.99457 0 0 1.99457 0 4.455V41.204C0 43.6644 1.99457 45.659 4.455 45.659H172.613C175.073 45.659 177.068 43.6644 177.068 41.204V4.455C177.068 1.99457 175.073 0 172.613 0Z" fill="#8FC3AC"/>
<path d="M26.1731 22.031H27.2371C27.3441 22.031 27.4401 22.024 27.5271 22.01C27.6181 21.995 27.7031 21.971 27.7801 21.937C27.8621 21.899 27.9401 21.848 28.0121 21.785C28.0841 21.718 28.1571 21.635 28.2291 21.539L30.8711 17.942C30.9481 17.816 31.0401 17.715 31.1461 17.638C31.2588 17.5601 31.3931 17.5195 31.5301 17.522H32.7901L29.7061 21.771C29.4741 22.109 29.1681 22.341 28.7861 22.466C29.0471 22.533 29.2661 22.646 29.4461 22.806C29.6241 22.96 29.7971 23.17 29.9661 23.436L33.0641 27.909H31.7251C31.5881 27.9141 31.4533 27.8733 31.3421 27.793C31.2254 27.6976 31.1291 27.5795 31.0591 27.446L28.4031 23.696C28.2771 23.503 28.1431 23.371 27.9971 23.298C27.8531 23.221 27.6551 23.182 27.4041 23.182H26.1741V27.909H24.6821V17.522H26.1731V22.031ZM35.7141 30.051C35.6806 30.144 35.6234 30.2268 35.5481 30.291C35.4801 30.349 35.3771 30.378 35.2371 30.378H34.2161L35.5621 27.46L32.5371 20.562H33.7311C33.8471 20.562 33.9391 20.591 34.0061 20.649C34.0699 20.6965 34.1179 20.762 34.1441 20.837L36.0471 25.325C36.1291 25.547 36.1951 25.767 36.2431 25.984C36.2771 25.873 36.3131 25.762 36.3511 25.651C36.3901 25.535 36.4311 25.421 36.4741 25.311L38.3141 20.837C38.3415 20.7571 38.3946 20.6885 38.4651 20.642C38.5362 20.5892 38.6226 20.5611 38.7111 20.562H39.8041L35.7141 30.051ZM47.0661 20.562V27.909H45.6901V21.604H42.2741V27.909H40.8981V20.562H47.0661ZM49.0701 27.916V20.57H50.4461V25.435C50.4461 25.531 50.4411 25.637 50.4311 25.753C50.4211 25.864 50.4091 25.975 50.3951 26.086C50.4821 25.898 50.5711 25.731 50.6631 25.586C50.7144 25.5101 50.7674 25.4354 50.8221 25.362C51.1417 24.9353 51.4577 24.5059 51.7701 24.074C52.5476 23.0202 53.3242 21.9659 54.1001 20.911C54.1541 20.828 54.2221 20.751 54.3041 20.679C54.3826 20.605 54.4863 20.5636 54.5941 20.563H55.4261V27.91H54.0501V23.046C54.0501 22.949 54.0551 22.846 54.0651 22.735C54.0751 22.619 54.0871 22.505 54.1011 22.395C54.0581 22.491 54.0111 22.58 53.9641 22.662C53.924 22.7388 53.8806 22.8138 53.8341 22.887C53.7764 22.9601 53.7208 23.0348 53.6671 23.111L53.2691 23.654L52.7111 24.407L52.0891 25.261C51.5871 25.941 51.0221 26.711 50.3951 27.57C50.3362 27.6588 50.2656 27.7392 50.1851 27.809C50.1081 27.8792 50.0074 27.9178 49.9031 27.917L49.0701 27.916ZM56.6221 20.562H63.5641V21.604H60.7771V27.909H59.4101V21.604H56.6231L56.6221 20.562ZM66.0731 20.562V23.414H67.5931C68.1001 23.414 68.5271 23.477 68.8751 23.602C69.2221 23.722 69.5021 23.884 69.7151 24.087C69.9321 24.29 70.0861 24.524 70.1781 24.789C70.2691 25.055 70.3151 25.332 70.3151 25.622C70.3151 25.955 70.2551 26.262 70.1351 26.542C70.0191 26.821 69.8451 27.062 69.6131 27.265C69.3657 27.4796 69.0777 27.6421 68.7661 27.743C68.3942 27.8596 68.0059 27.9156 67.6161 27.909H64.7631V20.562H66.0731ZM66.0731 24.412V26.903H67.6151C67.8611 26.903 68.0761 26.872 68.2601 26.809C68.4481 26.746 68.6021 26.659 68.7231 26.549C68.8481 26.433 68.9401 26.297 68.9981 26.143C69.0611 25.988 69.0921 25.82 69.0921 25.636C69.0921 25.472 69.0661 25.316 69.0121 25.166C68.9591 25.0162 68.8697 24.8819 68.7521 24.775C68.6193 24.6546 68.4611 24.5657 68.2891 24.515C68.065 24.4416 67.8299 24.4072 67.5941 24.413H66.0741L66.0731 24.412ZM80.5351 21.916C80.5014 21.9641 80.4595 22.0057 80.4111 22.039C80.3619 22.0708 80.3036 22.0859 80.2451 22.082C80.1563 22.078 80.0707 22.0477 79.9991 21.995C79.8971 21.9231 79.7906 21.858 79.6801 21.8C79.5333 21.7183 79.378 21.6525 79.2171 21.604C78.9994 21.5363 78.7721 21.5045 78.5441 21.51C78.1921 21.51 77.8801 21.573 77.6101 21.698C77.3429 21.8213 77.1096 22.0077 76.9301 22.241C76.7417 22.4976 76.6039 22.7878 76.5241 23.096C76.4331 23.428 76.3871 23.805 76.3871 24.225C76.3871 24.659 76.4351 25.045 76.5311 25.383C76.6331 25.721 76.7731 26.005 76.9511 26.237C77.1351 26.469 77.3541 26.645 77.6111 26.766C77.8711 26.886 78.1611 26.946 78.4791 26.946C78.7881 26.946 79.0411 26.91 79.2391 26.838C79.4371 26.761 79.6011 26.678 79.7311 26.592C79.8611 26.505 79.9701 26.425 80.0571 26.352C80.1321 26.2819 80.2296 26.2411 80.3321 26.237C80.4481 26.237 80.5351 26.281 80.5921 26.367L80.9831 26.867C80.8193 27.0651 80.6296 27.2403 80.4191 27.388C80.2111 27.533 79.9891 27.651 79.7531 27.743C79.5161 27.834 79.2701 27.902 79.0141 27.945C78.7561 27.9889 78.4949 28.0109 78.2331 28.011C77.7741 28.011 77.3471 27.926 76.9511 27.757C76.5566 27.5891 76.2035 27.3372 75.9161 27.019C75.6126 26.6714 75.3794 26.2683 75.2291 25.832C75.0576 25.3139 74.9741 24.7707 74.9821 24.225C74.9821 23.679 75.0571 23.177 75.2071 22.719C75.3611 22.256 75.5861 21.855 75.8801 21.517C76.1741 21.18 76.5361 20.917 76.9661 20.729C77.4001 20.54 77.8971 20.446 78.4571 20.446C78.9831 20.446 79.4441 20.531 79.8401 20.699C80.2401 20.869 80.5921 21.105 80.8961 21.409L80.5341 21.916H80.5351ZM92.3471 20.562V26.867H93.6941V30C93.6941 30.13 93.6571 30.234 93.5851 30.311C93.5478 30.3499 93.5027 30.3803 93.4527 30.4004C93.4027 30.4204 93.3489 30.4294 93.2951 30.427H92.4481V27.91H86.3901V30.031C86.3907 30.1306 86.3576 30.2275 86.2961 30.306C86.2331 30.388 86.1391 30.429 86.0131 30.429H85.1451V26.91H87.5041C87.3261 27.156 87.1401 27.332 86.9471 27.439C86.7591 27.54 86.5731 27.598 86.3901 27.612V27.91L85.1451 27.909V26.91H85.4561C85.6224 26.9048 85.7866 26.8706 85.9411 26.809C86.1011 26.741 86.2521 26.625 86.3971 26.461C86.5471 26.293 86.6871 26.061 86.8171 25.767C86.9471 25.472 87.0651 25.091 87.1721 24.623C87.2821 24.15 87.3771 23.583 87.4541 22.922C87.5361 22.256 87.6011 21.469 87.6491 20.562H92.3471ZM88.7711 21.64C88.7231 22.364 88.6581 23.011 88.5761 23.58C88.5063 24.0822 88.4095 24.5802 88.2861 25.072C88.1926 25.4456 88.0692 25.8111 87.9171 26.165C87.7871 26.464 87.6491 26.712 87.5041 26.91H91.0151V21.64H88.7711ZM86.3901 26.91V27.612C86.3712 27.617 86.3517 27.6197 86.3321 27.62H85.3481L85.1661 26.91H86.3901ZM97.9551 20.446C98.4951 20.446 98.9831 20.536 99.4171 20.714C99.838 20.8787 100.216 21.1361 100.524 21.467C100.828 21.795 101.062 22.193 101.226 22.661C101.391 23.124 101.473 23.646 101.473 24.225C101.473 24.804 101.391 25.327 101.226 25.795C101.077 26.2376 100.838 26.6446 100.524 26.99C100.215 27.3215 99.8374 27.581 99.4171 27.75C98.9831 27.924 98.4951 28.01 97.9551 28.01C97.4151 28.01 96.9251 27.924 96.4851 27.75C96.0631 27.5799 95.6827 27.3207 95.3701 26.99C95.0561 26.6448 94.817 26.2383 94.6681 25.796C94.498 25.29 94.4148 24.7588 94.4221 24.225C94.4221 23.645 94.5041 23.125 94.6681 22.661C94.8321 22.193 95.0661 21.795 95.3701 21.467C95.6801 21.139 96.0501 20.887 96.4851 20.714C96.9251 20.535 97.4151 20.446 97.9551 20.446ZM97.9551 26.939C98.6591 26.939 99.1851 26.703 99.5331 26.229C99.8801 25.757 100.054 25.091 100.054 24.232C100.054 23.378 99.8801 22.712 99.5331 22.234C99.1851 21.756 98.6591 21.517 97.9551 21.517C97.2401 21.517 96.7071 21.757 96.3551 22.234C96.0071 22.712 95.8341 23.378 95.8341 24.232C95.8341 25.091 96.0071 25.757 96.3541 26.23C96.7071 26.703 97.2401 26.94 97.9541 26.94L97.9551 26.939ZM108.202 21.916C108.169 21.9642 108.127 22.0059 108.079 22.039C108.03 22.0709 107.972 22.086 107.913 22.082C107.824 22.0779 107.739 22.0477 107.667 21.995C107.565 21.9231 107.459 21.858 107.348 21.8C107.201 21.7182 107.046 21.6525 106.885 21.604C106.667 21.5363 106.44 21.5045 106.212 21.51C105.86 21.51 105.548 21.573 105.278 21.698C105.008 21.824 104.781 22.005 104.598 22.241C104.41 22.4976 104.272 22.7878 104.192 23.096C104.101 23.428 104.055 23.805 104.055 24.225C104.055 24.659 104.103 25.045 104.2 25.383C104.301 25.721 104.441 26.005 104.619 26.237C104.803 26.469 105.022 26.645 105.278 26.766C105.539 26.886 105.828 26.946 106.147 26.946C106.456 26.946 106.709 26.91 106.907 26.838C107.105 26.761 107.269 26.678 107.399 26.592C107.529 26.505 107.638 26.425 107.725 26.352C107.8 26.2818 107.898 26.241 108 26.237C108.116 26.237 108.202 26.281 108.26 26.367L108.651 26.867C108.487 27.065 108.297 27.2402 108.087 27.388C107.879 27.533 107.657 27.651 107.421 27.743C107.182 27.835 106.935 27.9027 106.682 27.945C106.424 27.9889 106.163 28.011 105.901 28.011C105.442 28.011 105.015 27.926 104.619 27.757C104.225 27.5887 103.872 27.3369 103.584 27.019C103.28 26.6715 103.047 26.2684 102.897 25.832C102.725 25.314 102.642 24.7707 102.65 24.225C102.65 23.679 102.725 23.177 102.875 22.719C103.029 22.256 103.254 21.855 103.548 21.517C103.842 21.18 104.204 20.917 104.634 20.729C105.068 20.54 105.565 20.446 106.125 20.446C106.651 20.446 107.112 20.531 107.508 20.699C107.908 20.869 108.26 21.105 108.564 21.409L108.202 21.916ZM109.173 20.562H116.115V21.604H113.328V27.909H111.96V21.604H109.173V20.562ZM121.927 27.909C121.82 27.9153 121.712 27.8928 121.616 27.844C121.544 27.801 121.486 27.716 121.442 27.591L121.29 26.932C121.102 27.106 120.916 27.262 120.733 27.402C120.552 27.5351 120.358 27.649 120.154 27.742C119.95 27.8356 119.737 27.906 119.517 27.952C119.267 28.0028 119.012 28.0272 118.757 28.025C118.467 28.025 118.197 27.986 117.946 27.909C117.704 27.8319 117.48 27.7064 117.287 27.54C117.1 27.3699 116.95 27.1629 116.846 26.932C116.734 26.6564 116.679 26.3606 116.686 26.063C116.686 25.773 116.764 25.496 116.918 25.231C117.077 24.965 117.333 24.729 117.685 24.521C118.042 24.309 118.506 24.135 119.075 24.001C119.649 23.865 120.354 23.788 121.189 23.769V23.219C121.189 22.664 121.068 22.246 120.827 21.966C120.59 21.681 120.241 21.539 119.777 21.539C119.464 21.539 119.201 21.58 118.988 21.662C118.799 21.7304 118.617 21.8175 118.445 21.922C118.311 22.0043 118.178 22.089 118.047 22.176C117.946 22.2486 117.825 22.2891 117.7 22.292C117.613 22.2949 117.526 22.2697 117.454 22.22C117.391 22.167 117.335 22.1062 117.287 22.039L117.041 21.589C117.451 21.204 117.893 20.914 118.366 20.721C118.868 20.5232 119.404 20.4247 119.944 20.431C120.359 20.431 120.728 20.499 121.051 20.634C121.375 20.77 121.645 20.96 121.862 21.206C122.084 21.448 122.25 21.739 122.361 22.082C122.477 22.425 122.535 22.803 122.535 23.218V27.909H121.927ZM119.169 27.062C119.386 27.062 119.587 27.041 119.77 26.997C119.958 26.954 120.132 26.891 120.291 26.809C120.455 26.727 120.61 26.628 120.754 26.512C120.899 26.392 121.044 26.256 121.189 26.107V24.63C120.61 24.65 120.117 24.695 119.712 24.768C119.371 24.8216 119.038 24.9163 118.72 25.05C118.469 25.166 118.286 25.306 118.17 25.47C118.057 25.6226 117.996 25.8079 117.997 25.998C117.997 26.186 118.026 26.348 118.083 26.483C118.141 26.6118 118.228 26.7257 118.337 26.816C118.443 26.898 118.566 26.961 118.706 27.004C118.851 27.043 119.005 27.062 119.169 27.062ZM124.454 20.562H127.183C127.636 20.562 128.025 20.608 128.348 20.699C128.676 20.791 128.944 20.917 129.152 21.076C129.364 21.23 129.518 21.414 129.615 21.626C129.716 21.838 129.767 22.068 129.767 22.314C129.767 22.473 129.745 22.64 129.702 22.814C129.598 23.1962 129.359 23.5279 129.029 23.748C128.816 23.8859 128.581 23.986 128.334 24.044C128.884 24.14 129.311 24.334 129.615 24.623C129.924 24.913 130.078 25.296 130.078 25.773C130.078 26.136 130.006 26.449 129.861 26.715C129.717 26.9796 129.514 27.2075 129.267 27.381C129.017 27.559 128.722 27.692 128.384 27.779C128.051 27.866 127.694 27.909 127.313 27.909H124.454V20.562ZM125.764 24.594V26.946H127.306C127.774 26.946 128.141 26.838 128.406 26.621C128.676 26.404 128.811 26.107 128.811 25.731C128.811 25.566 128.785 25.414 128.732 25.274C128.684 25.1336 128.599 25.0086 128.486 24.912C128.351 24.8011 128.192 24.7222 128.022 24.681C127.791 24.6181 127.552 24.5888 127.313 24.594H125.764ZM125.764 23.718H127.139C127.347 23.718 127.537 23.689 127.711 23.631C127.885 23.573 128.034 23.491 128.16 23.385C128.336 23.2362 128.461 23.0368 128.52 22.814C128.578 22.5912 128.566 22.3559 128.486 22.14C128.435 22.0111 128.353 21.8967 128.247 21.807C128.123 21.6953 127.974 21.6135 127.813 21.568C127.594 21.5053 127.367 21.4759 127.139 21.481H125.764V23.718ZM136.095 20.938C136.167 20.8279 136.263 20.7364 136.377 20.671C136.49 20.6006 136.62 20.5629 136.753 20.562H137.832L135.95 23.349C135.852 23.5158 135.73 23.6672 135.588 23.798C135.462 23.908 135.308 23.996 135.125 24.058C135.356 24.121 135.552 24.22 135.711 24.355C135.87 24.485 136.012 24.657 136.138 24.869L138.034 27.909H137.086C136.84 27.909 136.649 27.869 136.514 27.786C136.372 27.6969 136.253 27.5752 136.167 27.431L134.799 25.187C134.699 25.0144 134.554 24.872 134.379 24.775C134.202 24.6764 134.003 24.6264 133.8 24.63H133.025V27.916H131.65V20.562H133.025V23.711H133.699C133.901 23.711 134.075 23.67 134.22 23.588C134.371 23.4996 134.498 23.3753 134.589 23.226L136.095 20.938ZM142.037 20.446C142.577 20.446 143.065 20.536 143.499 20.714C143.933 20.888 144.302 21.139 144.606 21.467C144.911 21.795 145.145 22.193 145.309 22.661C145.473 23.124 145.555 23.646 145.555 24.225C145.555 24.804 145.473 25.327 145.309 25.795C145.16 26.2379 144.921 26.6449 144.606 26.99C144.297 27.3214 143.919 27.5809 143.499 27.75C143.065 27.924 142.577 28.01 142.037 28.01C141.535 28.0172 141.036 27.929 140.567 27.75C140.145 27.58 139.765 27.3208 139.453 26.99C139.139 26.6446 138.9 26.2382 138.75 25.796C138.58 25.29 138.497 24.7588 138.504 24.225C138.504 23.645 138.586 23.125 138.75 22.661C138.915 22.193 139.149 21.795 139.453 21.467C139.761 21.139 140.133 20.887 140.567 20.714C141.035 20.53 141.534 20.4389 142.037 20.446ZM142.037 26.939C142.741 26.939 143.267 26.703 143.615 26.229C143.962 25.757 144.136 25.091 144.136 24.232C144.136 23.378 143.962 22.712 143.615 22.234C143.267 21.756 142.741 21.517 142.037 21.517C141.323 21.517 140.789 21.757 140.437 22.234C140.09 22.712 139.916 23.378 139.916 24.232C139.916 25.091 140.09 25.757 140.437 26.23C140.789 26.703 141.323 26.94 142.037 26.94V26.939ZM147.145 27.916V20.57H148.521V25.435C148.521 25.531 148.516 25.637 148.506 25.753C148.496 25.864 148.484 25.975 148.47 26.086C148.548 25.9136 148.638 25.7466 148.738 25.586C148.743 25.576 148.796 25.502 148.897 25.362C149.217 24.9357 149.533 24.5064 149.845 24.074C150.623 23.0204 151.4 21.966 152.176 20.911C152.229 20.828 152.297 20.751 152.379 20.679C152.457 20.6052 152.561 20.5637 152.668 20.563H153.501V27.91H152.125V23.046C152.125 22.949 152.13 22.846 152.14 22.735C152.15 22.619 152.162 22.505 152.176 22.395C152.135 22.4864 152.09 22.5756 152.039 22.662C151.999 22.7388 151.955 22.8139 151.908 22.887C151.899 22.897 151.843 22.971 151.742 23.111C151.427 23.5455 151.108 23.9775 150.786 24.407C150.584 24.687 150.376 24.971 150.164 25.261C149.662 25.941 149.097 26.711 148.47 27.57C148.411 27.6588 148.341 27.7392 148.26 27.809C148.183 27.8792 148.082 27.9178 147.978 27.917L147.145 27.916ZM150.41 18.766C150.603 18.766 150.767 18.746 150.902 18.702C151.028 18.6643 151.142 18.5915 151.228 18.492C151.316 18.3773 151.376 18.2433 151.402 18.101C151.44 17.941 151.459 17.749 151.459 17.521H152.263C152.359 17.521 152.432 17.565 152.48 17.652C152.533 17.734 152.56 17.826 152.56 17.927C152.562 18.1514 152.512 18.3732 152.413 18.5744C152.313 18.7756 152.168 18.9505 151.988 19.085C151.782 19.2311 151.551 19.3391 151.307 19.404C151.014 19.4797 150.713 19.516 150.41 19.512C150.077 19.512 149.775 19.476 149.505 19.404C149.264 19.3381 149.036 19.2301 148.832 19.085C148.654 18.9521 148.509 18.7813 148.405 18.585C148.307 18.3798 148.257 18.1546 148.26 17.927C148.26 17.826 148.284 17.734 148.332 17.652C148.354 17.6118 148.387 17.5784 148.426 17.5555C148.466 17.5325 148.511 17.521 148.557 17.522H149.36C149.36 17.749 149.377 17.942 149.411 18.101C149.45 18.261 149.51 18.391 149.592 18.491C149.677 18.5892 149.787 18.6619 149.91 18.701C150.045 18.745 150.212 18.766 150.41 18.766Z" fill="white"/>
<path fill-rule="evenodd" clip-rule="evenodd" d="M1.11279 61.178C1.11279 60.738 1.46779 60.384 1.90779 60.384H9.67379C10.1128 60.384 10.4678 60.739 10.4678 61.178V67.4H11.2478V64.296C11.2478 63.857 11.6018 63.502 12.0418 63.502H13.2818C13.4818 63.502 13.6758 63.577 13.8228 63.714L16.4498 66.151C16.5299 66.2253 16.5939 66.3153 16.6376 66.4155C16.6813 66.5157 16.7038 66.6238 16.7038 66.733V68.944C16.7038 69.384 16.3488 69.738 15.9098 69.738H14.7258C14.7448 69.841 14.7558 69.946 14.7558 70.055C14.7558 70.976 14.0278 71.723 13.1308 71.723C12.2338 71.723 11.5068 70.976 11.5068 70.055C11.5068 69.947 11.5168 69.84 11.5368 69.738H6.27979C6.29879 69.841 6.30979 69.946 6.30979 70.055C6.30979 70.976 5.58179 71.723 4.68479 71.723C3.78779 71.723 3.06079 70.976 3.06079 70.055C3.06079 69.947 3.07079 69.84 3.09079 69.738H1.90779C1.80344 69.7382 1.70008 69.7177 1.60364 69.6779C1.50719 69.638 1.41954 69.5796 1.3457 69.5058C1.27187 69.4321 1.21329 69.3445 1.17333 69.2481C1.13336 69.1517 1.11279 69.0484 1.11279 68.944V61.178ZM1.63279 85.497L5.35479 88.6C5.44541 88.6759 5.55583 88.7243 5.67303 88.7395C5.79023 88.7547 5.90934 88.7361 6.01631 88.6859C6.12329 88.6356 6.21369 88.5559 6.27684 88.456C6.34 88.3561 6.37329 88.2402 6.37279 88.122V86.26H10.6268C11.2763 86.2731 11.8948 86.5402 12.3495 87.0042C12.8043 87.4682 13.059 88.0919 13.059 88.7415C13.059 89.3912 12.8043 90.0149 12.3495 90.4789C11.8948 90.9428 11.2763 91.21 10.6268 91.223H6.81579C6.75753 91.223 6.69985 91.2345 6.64603 91.2568C6.59222 91.2792 6.54334 91.3119 6.50219 91.3531C6.46104 91.3944 6.42843 91.4433 6.40623 91.4972C6.38402 91.5511 6.37266 91.6088 6.37279 91.667V93.262C6.37279 93.3795 6.41947 93.4922 6.50254 93.5753C6.58562 93.6584 6.6983 93.705 6.81579 93.705H10.6268C11.9431 93.705 13.2054 93.1822 14.1362 92.2514C15.0669 91.3207 15.5898 90.0583 15.5898 88.742C15.5898 87.4258 15.0669 86.1634 14.1362 85.2327C13.2054 84.3019 11.9431 83.779 10.6268 83.779H6.37279V81.918C6.37272 81.8001 6.33901 81.6846 6.27563 81.5852C6.21225 81.4857 6.12182 81.4064 6.01495 81.3566C5.90808 81.3067 5.78921 81.2884 5.67228 81.3037C5.55535 81.319 5.44522 81.3673 5.35479 81.443L1.63279 84.545C1.56307 84.6032 1.50699 84.676 1.4685 84.7583C1.43001 84.8405 1.41006 84.9302 1.41006 85.021C1.41006 85.1118 1.43001 85.2015 1.4685 85.2838C1.50699 85.3661 1.56307 85.4388 1.63279 85.497Z" fill="#C2C6D6"/>
<path opacity="0.6" d="M82.966 63.4771H27.284C25.7464 63.4771 24.5 64.7235 24.5 66.2611C24.5 67.7986 25.7464 69.045 27.284 69.045H82.966C84.5036 69.045 85.75 67.7986 85.75 66.2611C85.75 64.7235 84.5036 63.4771 82.966 63.4771Z" fill="#C2C6D6"/>
<path opacity="0.6" d="M105.239 81.2949H27.284C25.7464 81.2949 24.5 82.5414 24.5 84.0789C24.5 85.6165 25.7464 86.8629 27.284 86.8629H105.239C106.777 86.8629 108.023 85.6165 108.023 84.0789C108.023 82.5414 106.777 81.2949 105.239 81.2949Z" fill="#C2C6D6"/>
<path opacity="0.6" d="M60.693 92.4319H27.284C25.7464 92.4319 24.5 93.6783 24.5 95.2159C24.5 96.7534 25.7464 97.9999 27.284 97.9999H60.693C62.2306 97.9999 63.477 96.7534 63.477 95.2159C63.477 93.6783 62.2306 92.4319 60.693 92.4319Z" fill="#C2C6D6"/>
<path opacity="0.6" d="M152.01 81.2949H117.487C115.95 81.2949 114.703 82.5414 114.703 84.0789C114.703 85.6165 115.95 86.8629 117.487 86.8629H152.01C153.548 86.8629 154.794 85.6165 154.794 84.0789C154.794 82.5414 153.548 81.2949 152.01 81.2949Z" fill="#C2C6D6"/>
<path opacity="0.6" d="M129.741 92.4319H70.7181C69.1805 92.4319 67.9341 93.6783 67.9341 95.2159C67.9341 96.7534 69.1805 97.9999 70.7181 97.9999H129.741C131.279 97.9999 132.525 96.7534 132.525 95.2159C132.525 93.6783 131.279 92.4319 129.741 92.4319Z" fill="#C2C6D6"/>
<path opacity="0.6" d="M139.764 63.4771H95.2181C93.6805 63.4771 92.4341 64.7235 92.4341 66.2611C92.4341 67.7986 93.6805 69.045 95.2181 69.045H139.764C141.302 69.045 142.548 67.7986 142.548 66.2611C142.548 64.7235 141.302 63.4771 139.764 63.4771Z" fill="#C2C6D6"/>
<path d="M110.003 61.143C109.448 60.403 108.893 59.107 107.782 57.441C107.227 56.516 105.561 54.665 105.006 53.924C104.636 53.184 104.636 52.814 104.821 52.074C105.006 50.964 106.116 50.038 107.412 50.038C108.337 50.038 109.263 50.778 110.003 51.333C110.373 51.703 110.929 52.443 111.299 52.814C111.669 53.184 111.669 53.369 112.039 53.739C112.409 54.295 112.594 54.665 112.409 53.925C112.224 52.999 112.039 51.518 111.669 50.038C111.484 48.928 111.299 48.742 111.114 48.002C110.929 47.076 110.743 46.522 110.558 45.596C110.373 45.041 110.188 43.56 110.003 42.82C109.818 41.894 109.818 40.228 110.558 39.488C111.114 38.933 112.224 38.748 112.964 39.118C113.89 39.673 114.445 40.968 114.63 41.524C115 42.449 115.371 43.745 115.556 45.226C115.926 47.076 116.481 49.853 116.481 50.408C116.481 49.668 116.296 48.372 116.481 47.632C116.666 47.076 117.036 46.336 117.777 46.151C118.332 45.966 118.887 45.966 119.442 45.966C119.998 46.1623 120.503 46.478 120.923 46.891C121.663 48.001 121.663 50.408 121.663 50.223C121.848 49.483 121.848 48.002 122.219 47.261C122.404 46.891 123.144 46.521 123.514 46.336C124.117 46.1509 124.762 46.1509 125.365 46.336C125.735 46.336 126.476 46.891 126.661 47.261C127.031 47.817 127.216 49.668 127.401 50.408C127.401 50.593 127.586 49.668 127.956 49.112C128.697 48.002 131.288 47.632 131.473 50.222V54.479C131.473 55.22 131.288 56.886 131.103 57.626C130.918 58.181 130.362 59.477 129.807 60.217C129.807 60.217 127.771 62.438 127.586 63.549C127.401 64.659 127.401 64.659 127.401 65.399C127.401 66.14 127.586 67.065 127.586 67.065C127.586 67.065 126.105 67.251 125.365 67.065C124.625 66.88 123.699 65.585 123.514 65.03C123.144 64.474 122.589 64.474 122.219 65.03C121.848 65.77 120.923 67.065 120.183 67.065C118.887 67.251 116.296 67.065 114.445 67.065C114.445 67.065 114.815 65.215 114.075 64.475L112.039 62.438L110.003 61.143Z" fill="white"/>
<path d="M110.003 61.143C109.448 60.403 108.893 59.107 107.782 57.441C107.227 56.516 105.561 54.665 105.006 53.924C104.636 53.184 104.636 52.814 104.821 52.074C105.006 50.964 106.116 50.038 107.412 50.038C108.337 50.038 109.263 50.778 110.003 51.333C110.373 51.703 110.929 52.443 111.299 52.814C111.669 53.184 111.669 53.369 112.039 53.739C112.409 54.295 112.594 54.665 112.409 53.925C112.224 52.999 112.039 51.518 111.669 50.038C111.484 48.928 111.299 48.742 111.114 48.002C110.929 47.076 110.743 46.522 110.558 45.596C110.373 45.041 110.188 43.56 110.003 42.82C109.818 41.894 109.818 40.228 110.558 39.488C111.114 38.933 112.224 38.748 112.964 39.118C113.89 39.673 114.445 40.968 114.63 41.524C115 42.449 115.371 43.745 115.556 45.226C115.926 47.076 116.481 49.853 116.481 50.408C116.481 49.668 116.296 48.372 116.481 47.632C116.666 47.076 117.036 46.336 117.777 46.151C118.332 45.966 118.887 45.966 119.442 45.966C119.998 46.1623 120.503 46.478 120.923 46.891C121.663 48.001 121.663 50.408 121.663 50.223C121.848 49.483 121.848 48.002 122.219 47.261C122.404 46.891 123.144 46.521 123.514 46.336C124.117 46.1509 124.762 46.1509 125.365 46.336C125.735 46.336 126.476 46.891 126.661 47.261C127.031 47.817 127.216 49.668 127.401 50.408C127.401 50.593 127.586 49.668 127.956 49.112C128.697 48.002 131.288 47.632 131.473 50.222V54.479C131.473 55.22 131.288 56.886 131.103 57.626C130.918 58.181 130.362 59.477 129.807 60.217C129.807 60.217 127.771 62.438 127.586 63.549C127.401 64.659 127.401 64.659 127.401 65.399C127.401 66.14 127.586 67.065 127.586 67.065C127.586 67.065 126.105 67.251 125.365 67.065C124.625 66.88 123.699 65.585 123.514 65.03C123.144 64.474 122.589 64.474 122.219 65.03C121.848 65.77 120.923 67.065 120.183 67.065C118.887 67.251 116.296 67.065 114.445 67.065C114.445 67.065 114.815 65.215 114.075 64.475L112.039 62.438L110.003 61.143Z" stroke="black" stroke-width="1.388" stroke-linecap="round" stroke-linejoin="round"/>
<path d="M125.367 61.698V55.405M121.662 61.698L121.477 55.405M117.961 55.405V61.698" stroke="black" stroke-width="1.388" stroke-linecap="round"/>
</g>
<defs>
<clipPath id="clip0_11_336">
<rect width="178" height="98" fill="white"/>
</clipPath>
</defs>
</svg>
