<svg width="30" height="30" viewBox="0 0 30 30" fill="none" xmlns="http://www.w3.org/2000/svg">
<g clip-path="url(#clip0_2_21)">
<path d="M15 0C8.7427 0 3.65207 5.09071 3.65207 11.3479C3.65207 13.9289 5.43113 17.7032 8.9397 22.5658C11.4763 26.0814 13.9719 28.859 14.0769 28.9756L15.0001 30.0001L15.9233 28.9756C16.0283 28.8591 18.5239 26.0814 21.0605 22.5658C24.5691 17.7032 26.3481 13.929 26.3481 11.3479C26.348 5.09071 21.2573 0 15 0ZM15 26.2578C11.8741 22.6034 6.13736 15.1177 6.13736 11.3479C6.13736 6.46111 10.1131 2.4853 15 2.4853C19.8869 2.4853 23.8627 6.46111 23.8627 11.3479C23.8627 15.1177 18.1259 22.6034 15 26.2578Z" fill="#389EFC"/>
<path d="M15 15.465C17.2737 15.465 19.117 13.6218 19.117 11.348C19.117 9.07428 17.2737 7.23105 15 7.23105C12.7263 7.23105 10.883 9.07428 10.883 11.348C10.883 13.6218 12.7263 15.465 15 15.465Z" fill="#389EFC"/>
</g>
<defs>
<clipPath id="clip0_2_21">
<rect width="30" height="30" fill="white"/>
</clipPath>
</defs>
</svg>
