<svg width="30" height="30" viewBox="0 0 30 30" fill="none" xmlns="http://www.w3.org/2000/svg">
<g clip-path="url(#clip0_2_25)">
<path d="M29.6785 22.7513C28.5618 20.6401 24.6837 18.351 24.513 18.2509C24.0147 17.9672 23.4947 17.8171 23.008 17.8171C22.2845 17.8171 21.6922 18.1485 21.3334 18.7514C20.7662 19.4299 20.0626 20.223 19.8919 20.3459C18.5705 21.2424 17.536 21.1406 16.3915 19.9961L10.0035 13.6076C8.86617 12.4702 8.76161 11.423 9.65201 10.1088C9.77659 9.93694 10.5697 9.23285 11.2482 8.66502C11.6809 8.40752 11.9778 8.02489 12.108 7.5555C12.2809 6.93094 12.1536 6.19626 11.7454 5.48049C11.6492 5.31587 9.35892 1.43726 7.24887 0.321059C6.85512 0.112502 6.41131 0.00238323 5.96638 0.00238323C5.23337 0.00238323 4.54375 0.288246 4.02541 0.806024L2.61389 2.21698C0.381497 4.44883 -0.426594 6.97877 0.210758 9.73617C0.74244 12.0342 2.29188 14.4796 4.81682 17.004L12.995 25.1822C16.1907 28.3779 19.2373 29.9985 22.0503 29.9985C22.0503 29.9985 22.0503 29.9985 22.0509 29.9985C24.1198 29.9985 26.0485 29.1192 27.782 27.3857L29.193 25.9747C30.0506 25.1177 30.2452 23.8219 29.6785 22.7513Z" fill="#389EFC"/>
</g>
<defs>
<clipPath id="clip0_2_25">
<rect width="30" height="30" fill="white"/>
</clipPath>
</defs>
</svg>
