<?xml version="1.0" encoding="UTF-8"?>
<!DOCTYPE svg PUBLIC "-//W3C//DTD SVG 1.1//EN" "http://www.w3.org/Graphics/SVG/1.1/DTD/svg11.dtd">
<!-- Creator: CorelDRAW 2018 (64-Bit) -->
<svg xmlns="http://www.w3.org/2000/svg" xml:space="preserve" width="1181px" height="774px" version="1.1" style="shape-rendering:geometricPrecision; text-rendering:geometricPrecision; image-rendering:optimizeQuality; fill-rule:evenodd; clip-rule:evenodd"
viewBox="0 0 3342.4 2190.8"
 xmlns:xlink="http://www.w3.org/1999/xlink">
 <defs>
  <style type="text/css">
   <![CDATA[
    .fil1 {fill:#26A2E0}
    .fil2 {fill:#FC3860}
    .fil0 {fill:white}
   ]]>
  </style>
 </defs>
 <g id="Слой_x0020_1">
  <metadata id="CorelCorpID_0Corel-Layer"/>
  <path class="fil0" d="M2004.7 267.1c-97.6,13.1 -825.1,2.4 -990.2,2.4 -1171.7,0 -1006.5,-112.8 -1006.5,515.1 0,166.2 0,332.4 0,498.6 0,111.4 -30.5,407.6 35,473.8 79.7,80.6 331.3,9 453.8,42.4 4.5,228.5 146,394.1 376.9,389 113.3,-2.5 213.8,-63.3 261,-120 61,-73.1 88.6,-151.7 93,-276.8 184.4,0.1 368.9,-0.5 553.3,0.1 166.6,0.5 339,-11.7 508.1,2.7 16.5,527.7 714.2,529.4 731.1,-0.3 344.9,-24.9 321.9,57.3 321.9,-383 0,-410.5 8.2,-284.8 -183.1,-522.8l-495.8 -565c-88,-90.6 -167.7,-37.3 -286.2,-58.6 -7.4,-149 -27.2,-264.6 -187.5,-264.7 -188.2,-0.1 -177.8,193.6 -184.8,267.1z"/>
  <path class="fil1" d="M2128.7 590.9l329.3 1.6 211.5 236.5c76.7,85.2 148.7,157.2 201.2,237.1l-742 -3 0 -472.2zm-113 -96.4c-18.5,78.3 -20.1,609.4 2.6,664.7 33.5,53.2 593.2,29.4 682.4,29.4 395.5,0 478.4,29 247.8,-230.4l-340 -388.2c-106.6,-134.8 -110,-101.2 -252.7,-101.1 -98.6,0 -274.4,-27.3 -340.1,25.6zm595.1 1245.8c-120.1,63.6 -20.6,226.2 89.4,170.1 106.9,-54.6 34,-235.4 -89.4,-170.1zm-1706.9 -8.4c-186.8,-18.3 -161.5,158.1 -74.6,183.9 112.4,33.5 178.3,-87.7 74.6,-183.9zm1977.9 177.9c-114.6,299 -575.2,128 -450.5,-181 40.9,-101.2 164.9,-180.2 303.2,-134.4 108.3,35.7 205.3,163.9 147.3,315.4zm-2258.7 -38.4c-60.7,-312 410.4,-408.3 476.3,-97.2 30.2,142.6 -75.2,266.3 -188.8,287.9 -147,28 -265.4,-76.8 -287.5,-190.7zm1368.3 -1478.3l565.6 0.3 567.3 645c39.8,49.2 91.1,72.6 94.9,142.4 7.9,146.3 1.3,332.3 -1.1,487.6l-223.6 -0.1c-52.4,-56.6 -72.9,-105.2 -135.4,-147.3 -132.1,-88.9 -291.3,-80.6 -421.8,10.2 -217.2,151.1 81,140.4 -449.4,135.4l3.5 -1273.5zm-1856 -1.1l1724.7 -0.8 1.9 1279.3 -672.9 -1c-124.3,-297.9 -558.9,-259.5 -655.7,0.7l-404.3 -0.7 6.3 -1277.5zm1996.3 -125.3c-22.2,-201.7 132.5,-178.7 123.6,-44.7l-4.2 48.2 -119.4 -3.5zm-127 0.4c-97.6,13.1 -825.1,2.4 -990.2,2.4 -1171.7,0 -1006.5,-112.8 -1006.5,515.1 0,166.2 0,332.4 0,498.6 0,111.4 -30.5,407.6 35,473.8 79.7,80.6 331.3,9 453.8,42.4 4.5,228.5 146,394.1 376.9,389 113.3,-2.5 213.8,-63.3 261,-120 61,-73.1 88.6,-151.7 93,-276.8 184.4,0.1 368.9,-0.5 553.3,0.1 166.6,0.5 339,-11.7 508.1,2.7 16.5,527.7 714.2,529.4 731.1,-0.3 344.9,-24.9 321.9,57.3 321.9,-383 0,-410.5 8.2,-284.8 -183.1,-522.8l-495.8 -565c-88,-90.6 -167.7,-37.3 -286.2,-58.6 -7.4,-149 -27.2,-264.6 -187.5,-264.7 -188.2,-0.1 -177.8,193.6 -184.8,267.1z"/>
  <path class="fil2" d="M708.3 856.3l128.5 0c46.1,0 83.6,-37.5 83.6,-83.7l0 -128.4 95.5 0 0 128.5c0,46.1 37.5,83.6 83.6,83.6l128.5 0 0 95.5 -128.5 0c-46.1,0 -83.6,37.5 -83.6,83.6l0 128.4 -95.5 0 0 -128.4c0,-46.1 -37.5,-83.6 -83.6,-83.6l-128.5 0 0 -95.5 0 0zm87.9 219.7l0 122.8c0,49.2 40.1,89.2 89.3,89.2l165.3 0c49.2,0 89.3,-40 89.3,-89.2l0 -122.8 122.8 -0.1c49.2,0 89.2,-40 89.2,-89.2l0 -165.4c0,-49.2 -40,-89.2 -89.2,-89.2l-122.8 0 0 -122.8c0,-49.2 -40.1,-89.3 -89.3,-89.3l-165.3 0c-49.2,0 -89.3,40.1 -89.3,89.3l0 122.8 -122.8 0c-49.2,0 -89.3,40 -89.3,89.2l0 165.4c0,49.2 40.1,89.3 89.3,89.3l122.8 0z"/>
 </g>
</svg>
