<?xml version="1.0" encoding="UTF-8"?>
<!DOCTYPE svg PUBLIC "-//W3C//DTD SVG 1.1//EN" "http://www.w3.org/Graphics/SVG/1.1/DTD/svg11.dtd">
<!-- Creator: CorelDRAW 2018 (64-Bit) -->
<svg xmlns="http://www.w3.org/2000/svg" xml:space="preserve" width="1172px" height="1004px" version="1.1" style="shape-rendering:geometricPrecision; text-rendering:geometricPrecision; image-rendering:optimizeQuality; fill-rule:evenodd; clip-rule:evenodd"
viewBox="0 0 4623.8 3960.4"
 xmlns:xlink="http://www.w3.org/1999/xlink">
 <defs>
  <style type="text/css">
   <![CDATA[
    .fil1 {fill:#26A2E0}
    .fil2 {fill:#FC3860}
    .fil0 {fill:white}
   ]]>
  </style>
 </defs>
 <g id="Слой_x0020_1">
  <metadata id="CorelCorpID_0Corel-Layer"/>
  <path class="fil0" d="M4623.7 1856.2l0 0 0 -43.5c0,-89.4 -72.7,-162.2 -162.1,-162.2l-235 0c-89.4,0 -162.2,72.8 -162.2,162.2l0 30 -513.8 0 -52.9 -118.7c-47.2,-105.9 -152.7,-174.4 -268.7,-174.4l-741.1 0c-91.1,0 -175.6,41.2 -231.7,113 -40.9,52.3 -62.4,115.4 -62.5,180.1l-468 -0.1 11.3 -18.8c36.4,-60.9 36.4,-136.6 0,-197.4l-27.2 -45.5c-42,-70.2 -119,-113.8 -200.9,-113.8l-644.2 0c-81.9,0 -158.8,43.6 -200.9,113.8l-27.2 45.5c-36.4,60.8 -36.4,136.5 0,197.4l11.3 18.8 -88.6 0 0 -539.8c0,-89.5 -72.7,-162.2 -162.2,-162.2l-234.9 0c-89.4,0 -162.2,72.7 -162.2,162.2l0 1280c0,184.6 150.2,334.8 334.8,334.8l213.2 0 0 519.5c-66.8,54 -109.6,136.5 -109.6,228.9 0,162.4 132.1,294.4 294.5,294.4 162.4,0 294.5,-132 294.5,-294.4 0,-92.4 -42.8,-174.9 -109.6,-228.9l0 -149.6 2788.2 0 0 149.6c-66.8,54 -109.6,136.5 -109.6,228.9 0,162.4 132.1,294.4 294.5,294.4 162.3,0 294.4,-132 294.4,-294.4 0,-92.4 -42.7,-174.9 -109.5,-228.9l0 -519.5 213.2 0c184.6,0 334.8,-150.2 334.8,-334.8l0 -260.7 0 -155.9 0 -310 -0.1 0zm-2311.8 -548.4c360.5,0 653.9,-293.4 653.9,-653.9 0,-360.6 -293.4,-653.9 -653.9,-653.9 -360.6,0 -653.9,293.3 -653.9,653.9 0,360.5 293.3,653.9 653.9,653.9z"/>
  <path class="fil1" d="M4623.7 1856.2l0 0 0 -43.5c0,-89.4 -72.7,-162.2 -162.1,-162.2l-235 0c-89.4,0 -162.2,72.8 -162.2,162.2l0 30 -513.8 0 -52.9 -118.7c-47.2,-105.9 -152.7,-174.4 -268.7,-174.4l-741.1 0c-91.1,0 -175.6,41.2 -231.7,113 -40.9,52.3 -62.4,115.4 -62.5,180.1l-468 -0.1 11.3 -18.8c36.4,-60.9 36.4,-136.6 0,-197.4l-27.2 -45.5c-42,-70.2 -119,-113.8 -200.9,-113.8l-644.2 0c-81.9,0 -158.8,43.6 -200.9,113.8l-27.2 45.5c-36.4,60.8 -36.4,136.5 0,197.4l11.3 18.8 -88.6 0 0 -539.8c0,-89.5 -72.7,-162.2 -162.2,-162.2l-234.9 0c-89.4,0 -162.2,72.7 -162.2,162.2l0 1280c0,184.6 150.2,334.8 334.8,334.8l213.2 0 0 519.5c-66.8,54 -109.6,136.5 -109.6,228.9 0,162.4 132.1,294.4 294.5,294.4 162.4,0 294.5,-132 294.5,-294.4 0,-92.4 -42.8,-174.9 -109.6,-228.9l0 -149.6 2788.2 0 0 149.6c-66.8,54 -109.6,136.5 -109.6,228.9 0,162.4 132.1,294.4 294.5,294.4 162.3,0 294.4,-132 294.4,-294.4 0,-92.4 -42.7,-174.9 -109.5,-228.9l0 -519.5 213.2 0c184.6,0 334.8,-150.2 334.8,-334.8l0 -260.7 0 -155.9 0 -310 -0.1 0zm-3623.3 925.9l319.9 0 158.3 0 2810.4 0c109.9,0 199.3,-89.4 199.3,-199.3l0 -260.7 -0.1 0 0 -465.9 0 -43.4c0,-14.8 -12,-26.8 -26.7,-26.8l-235 0c-14.7,0 -26.7,12 -26.7,26.8l0 621c0,78.7 -64,142.7 -142.7,142.7l-1032.9 0c-0.1,0 -0.2,0 -0.2,0 -0.1,0 -0.1,0 -0.2,0l-604 0c-0.1,0 -0.2,0 -0.3,0 -0.1,0 -0.2,0 -0.2,0l-1852.8 -0.1c-78.6,0 -142.6,-63.9 -142.6,-142.6l0 -1131c0,-14.8 -12,-26.8 -26.8,-26.8l-234.9 0c-14.8,0 -26.7,12 -26.7,26.8l0 1280c0,109.9 89.4,199.3 199.3,199.3l613.7 0 51.9 0zm319.9 135.5l-319.9 0 -51.9 0 -30.7 0 0 234.5 2788.2 0 0 -234.5 -2227.4 0 -158.3 0zm2521.1 0l98.9 0 0 458.2c-16.1,-2.7 -32.6,-4.2 -49.5,-4.2 -16.8,0 -33.3,1.5 -49.4,4.2l0 -458.2zm49.4 589.4c87.7,0 159,71.3 159,159 0,87.7 -71.3,159 -159,159 -87.6,0 -158.9,-71.3 -158.9,-159 0,-87.7 71.3,-159 158.9,-159zm-3207.3 -589.4l98.9 0 0 458.2c-16.1,-2.7 -32.6,-4.3 -49.5,-4.3 -16.8,0 -33.3,1.5 -49.4,4.3l0 -458.2zm49.4 589.4c87.7,0 159,71.3 159,159 0,87.7 -71.3,159 -159,159 -87.6,0 -159,-71.3 -159,-159 0,-87.7 71.4,-159 159,-159zm1630 -1761c30.3,-38.7 75.8,-60.9 125,-60.9l278.4 0 36 157.6 -473.1 0c0.2,-34.7 11.7,-68.5 33.7,-96.7l0 0zm-1610 -50l27.2 -45.5c17.7,-29.6 50.1,-47.9 84.6,-47.9l644.3 0c34.5,0 66.9,18.3 84.6,47.9l27.2 45.4c10.8,18 10.8,40.4 0,58.3l-27.2 45.4c-12.4,20.7 -32,35.8 -54.5,43.1l-704.5 0c-22.4,-7.3 -42.1,-22.3 -54.5,-43.1l-27.2 -45.4c-10.8,-17.9 -10.8,-40.3 0,-58.2l0 0zm-186.3 745c-4,0 -7.2,-3.3 -7.2,-7.2l0 -455.7 258 0c15.4,3.3 31.3,5 47.3,5l644.3 0c16,0 31.9,-1.7 47.3,-5l661.9 0 114.8 462.9 -1766.4 0 0 0zm1906 0l-114.9 -462.9 475.6 0 105.8 462.9 -466.5 0zm432.7 -755.9l323.8 0c62.6,0 119.4,36.9 144.9,94.1l28.3 63.5 -461 0 -36 -157.6 0 0zm640.6 755.9l-467.8 0 -105.8 -462.9 490.4 0 3.7 8.4c52.8,118.3 79.5,244 79.5,373.5l0 81zm518.6 -7.2c0,3.9 -3.3,7.2 -7.2,7.2l-375.9 0 0 -81c0,-131.7 -24.2,-259.9 -71.7,-381.9l454.8 0 0 455.7zm-1752.6 -1126c360.5,0 653.9,-293.4 653.9,-653.9 0,-360.6 -293.4,-653.9 -653.9,-653.9 -360.6,0 -653.9,293.3 -653.9,653.9 0,360.5 293.3,653.9 653.9,653.9zm0 -1172.3c285.8,0 518.4,232.6 518.4,518.4 0,285.9 -232.6,518.4 -518.4,518.4 -285.9,0 -518.4,-232.5 -518.4,-518.4 0,-285.8 232.5,-518.4 518.4,-518.4zm-1513.2 3530.5c0,-36.4 -29.5,-65.8 -65.8,-65.8 -36.3,0 -65.8,29.4 -65.8,65.8 0,36.3 29.5,65.8 65.8,65.8 36.3,0 65.8,-29.5 65.8,-65.8zm3157.9 0c0,-36.4 -29.5,-65.8 -65.8,-65.8 -36.3,0 -65.8,29.4 -65.8,65.8 0,36.3 29.5,65.8 65.8,65.8 36.3,0 65.8,-29.5 65.8,-65.8z"/>
  <path class="fil2" d="M2026.5 610.3l140.1 0c50.3,0 91.2,-40.9 91.2,-91.2l0 -140.1 104.2 0 0 140.1c0,50.3 40.9,91.2 91.2,91.2l140.1 0 0 104.1 -140.1 0c-50.3,0 -91.2,41 -91.2,91.3l0 140 -104.2 0 0 -140c0,-50.3 -40.9,-91.3 -91.2,-91.3l-140.1 0 0 -104.1 0 0zm95.9 239.6l0 133.9c0,53.7 43.7,97.4 97.3,97.4l180.4 0c53.6,0 97.3,-43.7 97.3,-97.4l0 -133.9 134 0c53.6,0 97.3,-43.7 97.3,-97.4l0 -180.3c0,-53.7 -43.7,-97.3 -97.3,-97.3l-134 -0.1 0 -133.9c0,-53.7 -43.7,-97.3 -97.3,-97.3l-180.4 0c-53.7,0 -97.3,43.6 -97.3,97.3l0 134 -134 0c-53.6,0 -97.3,43.6 -97.3,97.3l0 180.4c0,53.6 43.7,97.3 97.3,97.3l134 0z"/>
 </g>
</svg>
