<?xml version="1.0" encoding="UTF-8"?>
<!DOCTYPE svg PUBLIC "-//W3C//DTD SVG 1.1//EN" "http://www.w3.org/Graphics/SVG/1.1/DTD/svg11.dtd">
<!-- Creator: CorelDRAW 2018 (64-Bit) -->
<svg xmlns="http://www.w3.org/2000/svg" xml:space="preserve" width="829px" height="1004px" version="1.1" style="shape-rendering:geometricPrecision; text-rendering:geometricPrecision; image-rendering:optimizeQuality; fill-rule:evenodd; clip-rule:evenodd"
viewBox="0 0 1165.2 1411.4"
 xmlns:xlink="http://www.w3.org/1999/xlink">
 <defs>
  <style type="text/css">
   <![CDATA[
    .fil1 {fill:#26A2E0}
    .fil2 {fill:#FC3860}
    .fil0 {fill:white}
   ]]>
  </style>
 </defs>
 <g id="Слой_x0020_1">
  <metadata id="CorelCorpID_0Corel-Layer"/>
  <path class="fil0" d="M0 852.7c0,80.4 128.8,73.6 130.1,6.2 1.3,-69.4 0,-140.2 0,-209.6 0,-16 -1.2,-53.4 0.1,-70.5 0.3,-4.8 1.2,-6.8 4.1,-7.3 1.8,0.1 4.8,1.8 4.8,4.9 0.2,8.8 0.7,25 0.9,36.6l14.3 668.8c0.4,26.8 -2.7,74.3 9.1,95 11.6,20.3 37.6,34.2 70.8,34.6 33.6,0.3 59.8,-13.4 72,-33.4 12.1,-19.8 7.7,-69.1 7.7,-96.2l0 -316.3c0,-14.5 -3.5,-39.2 6.2,-47 12.8,-10.3 29.1,-1.9 30.2,15 2.3,38.7 0,161.1 0,209.3 0,48.3 -2.3,170.6 0.1,209.6 3.8,61 91.2,75 136.1,40.7 24.1,-18.3 21.9,-43.4 22.7,-81.4 3.8,-171.3 5,-343.9 10.1,-515 43.3,-3.6 87.7,7.4 121.2,-33.2 21.2,-25.7 23.2,-45 23.3,-86l0.2 -82.6c0.1,-70.8 7,-121.2 -64.6,-171.8 -29,-20.5 -85.6,-46.5 -129.3,-49.6l-63.6 10.6c-7.3,0.1 -22.6,5.3 -31.5,7 -11.2,2.1 -22.2,3.5 -34,3.9 -73.3,2.7 -104,-26.9 -126.6,-24.9 -88.7,7.5 -214.4,61.2 -214.4,168.4l0 314.2z"/>
  <path class="fil0" d="M306.1 2.2c-102.2,15.7 -169.4,109.3 -154,206.5 14.2,89.3 96.6,170 206.5,153.3 91.7,-14 168,-97.8 153.4,-206.1 -12.1,-89.2 -98.4,-170.3 -205.9,-153.7z"/>
  <path class="fil1" d="M600.8 636.8l34.1 0.3c0.9,23.6 3.2,71.9 -5.6,91 -10.1,21.9 -28.9,37.5 -60.7,38.7l32.2 -130zm-178 0l64.2 -0.1c-1.2,17.8 -10.5,48.8 -15,67 -5.1,20.4 -11.5,43.9 -15,63.3l-65.3 -0.1 31.1 -130.1zm88.6 0l65.1 0.1 -30.8 130.1 -65.5 -0.2 31.2 -130zm-229.8 123.9c-24.6,-6.7 -46.5,-40.6 -37.5,-75.2 7,-27.1 32.5,-50 66.8,-48.3l-29.3 123.5zm53.3 -123.9l64.1 0.4 -29.2 123.7c-2,4.9 -0.6,3.4 -4.7,6.1l-62 -0.3 31.8 -129.9zm204.7 -28.9c0.2,-19.5 0,-38.1 4.1,-37.9 4,0.3 3.6,19.4 3.6,37.8l-2.5 0.2 -3.5 0 -1.7 -0.1zm-539.6 244.8c0,80.4 128.8,73.6 130.1,6.2 1.3,-69.4 0,-140.2 0,-209.6 0,-16 -1.2,-53.4 0.1,-70.5 0.3,-4.8 1.2,-6.8 4.1,-7.3 1.8,0.1 4.8,1.8 4.8,4.9 0.2,8.8 0.7,25 0.9,36.6l14.3 668.8c0.4,26.8 -2.7,74.3 9.1,95 11.6,20.3 37.6,34.2 70.8,34.6 33.6,0.3 59.8,-13.4 72,-33.4 12.1,-19.8 7.7,-69.1 7.7,-96.2l0 -316.3c0,-14.5 -3.5,-39.2 6.2,-47 12.8,-10.3 29.1,-1.9 30.2,15 2.3,38.7 0,161.1 0,209.3 0,48.3 -2.3,170.6 0.1,209.6 3.8,61 91.2,75 136.1,40.7 24.1,-18.3 21.9,-43.4 22.7,-81.4 3.8,-171.3 5,-343.9 10.1,-515 43.3,-3.6 87.7,7.4 121.2,-33.2 21.2,-25.7 23.2,-45 23.3,-86l0.2 -82.6c0.1,-70.8 7,-121.2 -64.6,-171.8 -29,-20.5 -85.6,-46.5 -129.3,-49.6l-12.3 234.3 -40 -0.6 -11.3 -223.1c-7.3,0.1 -22.6,5.3 -31.5,7 -11.2,2.1 -22.2,3.5 -34,3.9 -73.3,2.7 -104,-26.9 -126.6,-24.9 -88.7,7.5 -214.4,61.2 -214.4,168.4l0 314.2zm471.9 -38.8c-19.6,-0.1 -162.4,3.2 -175.2,-0.4l-49.2 -16.7c-40.7,-23.8 -60.6,-77.2 -48.8,-123 12.1,-46.7 52.4,-79.3 99.3,-83.2l0.2 -0.8 71.8 0.4 -7.5 -149.8c-6.6,0.7 -13.1,1.2 -19.7,1.4 -31.2,1.2 -60.9,-2.4 -90.6,-11.7 -9.2,-2.9 -18,-6.3 -27,-9.7 -2.6,-1 -6.5,-2.6 -9.5,-3.4 -63.7,6.3 -168.8,44.6 -168.8,121.5l0 314.2c0,2.7 0.1,5.8 2.3,7.6 6.9,5.6 29.3,5.3 34,-1.9 0,-0.1 0,-0.3 0,-0.4 1.4,-69.6 0,-139.2 0,-208.7 0,-24.4 -1.5,-49.7 0.2,-73.9 1.9,-25.3 17.4,-45.9 43.4,-50.1l4.7 -0.8 4.8 0.2c27.1,1.1 49.1,23.4 49.7,50.7 0.3,12.2 0.6,24.4 0.9,36.6l14.2 668.8c0.3,14.5 -1.5,60.3 3.3,73.2 5.1,7.9 22.2,10.4 30.3,10.5 8.5,0.1 24.9,-2.1 30.8,-9.9 4.3,-13.7 1.5,-58.3 1.5,-72.8l0 -316.3c0,-30.6 -4.4,-61 23.8,-83.6 43,-34.5 103,-5.1 106.2,48.8 2.3,36.4 1.2,75.2 1,111.8 -0.3,33.4 -0.9,66.9 -0.9,100.3 0,33.8 -0.5,67.5 -0.8,101.3 -0.2,34.3 -1.3,71.2 0.9,105.4 0.1,2.2 0.6,4 2,5.7 11.5,13.6 45.5,10.9 58.9,0.7 5.4,-4.1 4.1,-38.8 4.2,-45.2 3.7,-165.6 4.9,-331.3 9.6,-496.8zm145.2 -223.8c0.5,-57 7.3,-91.9 -44.8,-128.8 -14.5,-10.3 -36.4,-21.4 -58.3,-29.5l-5.6 106.6c8.8,-10.1 21.6,-16.3 38.5,-15.1 31.9,2.2 45.3,28.4 46.9,56.2 0.2,3.4 0.3,6.9 0.3,10.4l23 0.2zm-311 -587.9c-102.2,15.7 -169.4,109.3 -154,206.5 14.2,89.3 96.6,170 206.5,153.3 91.7,-14 168,-97.8 153.4,-206.1 -12.1,-89.2 -98.4,-170.3 -205.9,-153.7zm5.7 40.1c-79.4,12.2 -131.6,84.9 -119.6,160.5 11,69.3 75.1,132 160.5,119.1 71.2,-10.9 130.5,-76 119.1,-160.2 -9.4,-69.3 -76.5,-132.3 -160,-119.4z"/>
  <path class="fil0" d="M932.2 606.4c128.5,0 233,-104.5 233,-233 0,-128.5 -104.5,-233.1 -233,-233.1 -128.5,0 -233.1,104.6 -233.1,233.1 0,128.5 104.6,233 233.1,233z"/>
  <path class="fil1" d="M932.2 606.4c128.5,0 233,-104.5 233,-233 0,-128.5 -104.5,-233.1 -233,-233.1 -128.5,0 -233.1,104.6 -233.1,233.1 0,128.5 104.6,233 233.1,233zm0 -417.8c101.9,0 184.7,82.9 184.7,184.8 0,101.9 -82.8,184.8 -184.7,184.8 -101.9,0 -184.8,-82.9 -184.8,-184.8 0,-101.9 82.9,-184.8 184.8,-184.8z"/>
  <path class="fil2" d="M830.5 357.9l49.9 0c17.9,0 32.5,-14.6 32.5,-32.6l0 -49.9 37.1 0 0 49.9c0,18 14.6,32.6 32.5,32.6l50 0 0 37.1 -50 0c-17.9,0 -32.5,14.5 -32.5,32.5l0 49.9 -37.1 0 0 -49.9c0,-18 -14.6,-32.5 -32.5,-32.5l-49.9 0 0 -37.1 0 0zm34.1 85.3l0 47.8c0,19.1 15.6,34.7 34.7,34.7l64.3 0c19.1,0 34.7,-15.6 34.7,-34.7l0 -47.8 47.7 0c19.2,0 34.7,-15.5 34.7,-34.7l0 -64.2c0,-19.2 -15.5,-34.7 -34.7,-34.7l-47.7 0 0 -47.8c0,-19.1 -15.6,-34.7 -34.7,-34.7l-64.3 0c-19.1,0 -34.7,15.6 -34.7,34.7l0 47.8 -47.7 0c-19.2,0 -34.7,15.5 -34.7,34.7l0 64.3c0,19.1 15.6,34.6 34.7,34.6l47.7 0z"/>
 </g>
</svg>
