<?xml version="1.0" encoding="UTF-8"?>
<!DOCTYPE svg PUBLIC "-//W3C//DTD SVG 1.1//EN" "http://www.w3.org/Graphics/SVG/1.1/DTD/svg11.dtd">
<!-- Creator: CorelDRAW 2018 (64-Bit) -->
<svg xmlns="http://www.w3.org/2000/svg" xml:space="preserve" width="831px" height="833px" version="1.1" style="shape-rendering:geometricPrecision; text-rendering:geometricPrecision; image-rendering:optimizeQuality; fill-rule:evenodd; clip-rule:evenodd"
viewBox="0 0 829 831.7"
 xmlns:xlink="http://www.w3.org/1999/xlink">
 <defs>
  <style type="text/css">
   <![CDATA[
    .fil1 {fill:#26A2E0}
    .fil3 {fill:#FBFDFB}
    .fil2 {fill:#FC3860}
    .fil0 {fill:#FCFEFD}
   ]]>
  </style>
 </defs>
 <g id="Слой_x0020_1">
  <metadata id="CorelCorpID_0Corel-Layer"/>
  <path class="fil0" d="M297.6 42.5l-0.4 301.6 449.3 3.2 -9 -305.1c-3.7,-19.9 -20.9,-15.6 -45.6,-15.4 -19.2,0.1 -38.5,0 -57.8,0l-230.9 0c-46,0.1 -103,-8.6 -105.6,15.7z"/>
  <path class="fil1" d="M668.8 634.7c-7.9,6.9 -6.2,19 11.8,21 8.2,0.9 36.3,1.2 42.4,-2.9 31.9,-21.8 -43.2,-27.9 -54.2,-18.1z"/>
  <path class="fil1" d="M551.4 636.9c-21.1,24.2 49.6,23.2 57.6,13.6 10.5,-12.7 -5,-19 -17.8,-19.7 -4.3,-0.2 -18.2,-0.3 -22.3,0 -13.8,0.9 -10.4,-1.9 -17.5,6.1z"/>
  <path class="fil1" d="M601.6 607.8c1.8,-17 2.4,-21.2 -32.6,-20.8 -53.1,0.7 -17.1,41.2 32.6,20.8z"/>
  <path class="fil2" d="M184.9 265.9c0.1,33.5 -9.2,85.8 -13.3,120.9 -4.5,39.1 -3,85.9 -46.5,86.5 -46.8,0.6 -44,-48.1 -48.7,-88 -3.8,-32.3 -13.9,-90.2 -12.6,-119.9l121.1 0.5zm-146.8 -82.1c24.8,-12.6 67.8,-14.7 101.8,-13.2 35.9,1.5 72.9,-0.8 74.5,36.2 1.1,24.2 1.9,33.5 -20.6,34.8 -32.5,1.8 -140.8,3.7 -158,-6.9 -3.1,-17.6 -2,-36.4 2.3,-50.9zm73.4 312.7l25 0c93.3,-21.1 45.9,-196.4 77.7,-233.5 9.9,-11.5 18.6,-7.3 22.9,-27.7 20.4,-98.2 -81.7,-96.6 -165.1,-85.6 -32,4.3 -56.6,12.1 -61.3,43.1 -6,39.9 0.4,59.3 27.6,71.1 3.6,45.7 10.3,91.1 15.7,137.1 6.1,52.7 10,82.5 57.5,95.5z"/>
  <path class="fil2" d="M423.8 75.8c83.2,10.8 108.4,12.8 192.3,0.9l69.9 184.2c-63.4,46.7 -259.7,44.7 -332.1,-1.3l69.9 -183.8zm-95.6 199.2c107.3,60.3 279.2,56.7 385.6,1.5 1,-25.6 -69.1,-191 -82,-225.5 -37.8,-1 -86.7,23.3 -188.5,3.6 -46.1,-8.9 -27.8,-16.3 -80.5,115.2 -8.8,21.9 -38,84.4 -34.6,105.2z"/>
  <path class="fil2" d="M69.6 7.8c-86.4,15.6 -75.1,38 -56.6,40 9.3,1 69.4,-34.7 167.9,-15.7 14.2,2.8 50.4,17.6 58.6,14.3 28.3,-11.5 -18.2,-29 -29.8,-32.4 -43,-12.6 -93.4,-14.6 -140.1,-6.2z"/>
  <path class="fil2" d="M97.6 50.6c-16.3,2.2 -36.3,5.8 -48.9,11.2 -21.2,9.1 -15.8,27 2.7,24.7 20.3,-2.5 42.1,-20 101.2,-11.8 13.8,1.9 40.9,12.1 46,12.3 39,1.9 2.4,-50.2 -101,-36.4z"/>
  <path class="fil2" d="M181.2 116.5c-5,-20.8 -30.7,-22.6 -55.9,-22.7 -17.8,-0.1 -59.6,2.5 -57.4,22.7 1.9,17.6 34.4,1.8 53.8,1.4 30,-0.7 46.7,16.8 59.5,-1.4z"/>
  <path class="fil3" d="M318.1 652.7c-6.5,-4.5 -17,-21.6 27.3,-21.6 26.2,0.1 31.2,-1.2 29.8,21 -8.7,3.2 -46.6,7.9 -57.1,0.6zm404.9 0.1c-6.1,4.1 -34.2,3.8 -42.4,2.9 -18,-2 -19.7,-14.1 -11.8,-21 11,-9.8 86.1,-3.7 54.2,18.1zm-171.6 -15.9c7.1,-8 3.7,-5.2 17.5,-6.1 4.1,-0.3 18,-0.2 22.3,0 12.8,0.7 28.3,7 17.8,19.7 -8,9.6 -78.7,10.6 -57.6,-13.6zm-63.1 -2.7c6.6,4.6 6.5,13.8 -0.1,18.4 -5,3.5 -72.3,14.7 -54.5,-19.8l23.6 -1.8c9.2,0.1 23.5,-2.1 31,3.2zm113.3 -26.4c-49.7,20.4 -85.7,-20.1 -32.6,-20.8 35,-0.4 34.4,3.8 32.6,20.8zm-105.8 -1.2c-12.7,7.8 -42.6,7 -57.3,0.9l2.7 -15.9c0.9,-0.5 2,-1.2 2.8,-1.4 0.8,-0.3 2,-1 3,-1.3l17.5 -1.7c25.2,0 34.6,-2.5 31.3,19.4zm196.5 5.2c-13.6,1.2 -31.4,0.1 -42.1,-2.4 -3.1,-30 19.2,-23.3 54.9,-19 5.4,14.1 6.3,19.7 -12.8,21.4zm-305.3 -3c-0.1,0.1 -66,17.7 -51,-18.1 38.1,-14 70.9,5 51,18.1zm286.8 -49c-12,11.3 -41.6,6.3 -45.8,3.4 -32.1,-22.6 62.9,-34 45.8,-3.4zm-119.1 -18.3c10.6,0 26.2,-2.6 31,6.8 10,19.7 -22.8,17.7 -31,17.7 -32.2,0 -29.7,-24.5 0,-24.5zm-79.3 0c28.3,0 30.3,24.5 0,24.5l-7.3 0c-37.4,0 -35.2,-24.5 0,-24.5l7.3 0zm-90.3 0.1c13.9,0 10.9,-1.7 20.2,6.7 2.1,20.8 -11.6,17.8 -31,17.8 -30.1,0.1 -37,-24.7 10.8,-24.5zm-50.5 -15c-15.2,16.4 -84.5,145.9 -85.2,150.9l542.2 0.1c-1.9,-14.6 -83.4,-148.9 -83.4,-148.9 -0.3,-1.3 -1.2,-1.5 -1.9,-2.5l-371.7 0.4z"/>
  <polygon class="fil3" points="500.2,502.2 541.3,502.5 541.4,422.5 499.4,422.4 "/>
  <path class="fil1" d="M433.7 632.8c-17.8,34.5 49.5,23.3 54.5,19.8 6.6,-4.6 6.7,-13.8 0.1,-18.4 -7.5,-5.3 -21.8,-3.1 -31,-3.2l-23.6 1.8z"/>
  <path class="fil1" d="M375.2 652.1c1.4,-22.2 -3.6,-20.9 -29.8,-21 -44.3,0 -33.8,17.1 -27.3,21.6 10.5,7.3 48.4,2.6 57.1,-0.6z"/>
  <path class="fil1" d="M336 590.7c-15,35.8 50.9,18.2 51,18.1 19.9,-13.1 -12.9,-32.1 -51,-18.1z"/>
  <path class="fil1" d="M650.2 609.4c10.7,2.5 28.5,3.6 42.1,2.4 19.1,-1.7 18.2,-7.3 12.8,-21.4 -35.7,-4.3 -58,-11 -54.9,19z"/>
  <path class="fil1" d="M441.2 591.6l-2.7 15.9c14.7,6.1 44.6,6.9 57.3,-0.9 3.3,-21.9 -6.1,-19.4 -31.3,-19.4l-17.5 1.7c-1,0.3 -2.2,1 -3,1.3 -0.8,0.2 -1.9,0.9 -2.8,1.4z"/>
  <path class="fil1" d="M554.7 566c8.2,0 41,2 31,-17.7 -4.8,-9.4 -20.4,-6.8 -31,-6.8 -29.7,0 -32.2,24.5 0,24.5z"/>
  <path class="fil1" d="M374.3 566.1c19.4,0 33.1,3 31,-17.8 -9.3,-8.4 -6.3,-6.7 -20.2,-6.7 -47.8,-0.2 -40.9,24.6 -10.8,24.5z"/>
  <path class="fil1" d="M468.1 566l7.3 0c30.3,0 28.3,-24.5 0,-24.5l-7.3 0c-35.2,0 -37.4,24.5 0,24.5z"/>
  <path class="fil1" d="M673.8 559.8c17.1,-30.6 -77.9,-19.2 -45.8,3.4 4.2,2.9 33.8,7.9 45.8,-3.4z"/>
  <polygon class="fil0" points="232.9,810.5 808.2,810.5 807.9,702.3 233,701.4 "/>
  <path class="fil0" d="M184.9 265.9l-121.1 -0.5c-1.3,29.7 8.8,87.6 12.6,119.9 4.7,39.9 1.9,88.6 48.7,88 43.5,-0.6 42,-47.4 46.5,-86.5 4.1,-35.1 13.4,-87.4 13.3,-120.9z"/>
  <path class="fil0" d="M304.3 395.5c22.1,5.8 409.1,5.9 433.6,0.2l1.9 -28.8 -439.6 1.3 4.1 27.3z"/>
  <path class="fil0" d="M38.1 183.8c-4.3,14.5 -5.4,33.3 -2.3,50.9 17.2,10.6 125.5,8.7 158,6.9 22.5,-1.3 21.7,-10.6 20.6,-34.8 -1.6,-37 -38.6,-34.7 -74.5,-36.2 -34,-1.5 -77,0.6 -101.8,13.2z"/>
  <path class="fil1" d="M237.7 701.8l565.3 -0.9 0.2 103.6 -565 1.1 -0.5 -103.8zm96.9 -175.2l371.7 -0.4c0.7,1 1.6,1.2 1.9,2.5 0,0 81.5,134.3 83.4,148.9l-542.2 -0.1c0.7,-5 70,-134.5 85.2,-150.9zm164.8 -104.2l42 0.1 -0.1 80 -41.1 -0.3 -0.8 -79.8zm-199.2 -54.2l439.6 -1.3 -1.9 28.8c-24.5,5.7 -411.5,5.6 -433.6,-0.2l-4.1 -27.3zm3.4 -325.7c2.5,-24.3 53.6,-15.6 99.6,-15.7l230.9 0c19.3,0 38.6,0.1 57.8,0 24.7,-0.2 41.9,-4.5 45.6,15.4l4 300.1c-17.8,4.1 -424.9,3.9 -441.1,-0.1 -2,-23.4 -4.8,-292.2 3.2,-299.7zm-167.1 454l-25 0c3.6,58.6 0.7,127 0.6,186.6 -0.3,105.3 44.8,73 101.9,83.9 0,18.2 -3.4,44.5 4,57.9 20.9,12.1 255.6,4.3 300.7,4.3 44.6,0 284.5,6.4 304.5,-4.1 10.1,-19.7 3.9,-75.7 4,-102.3 0.2,-49.6 -7,-47.9 -26.8,-83.2l-78 -135.4c-23.7,-6.4 -123.1,-2 -156.3,-2l-0.6 -79.4c34.4,-1.3 70.2,-0.4 104.7,-0.3 35.9,0 72.1,7 88.3,-19.3 12.2,-19.9 6.1,-262.5 6.2,-319.1 0.2,-103.8 -17.2,-81.4 -242.4,-81.4 -276.6,0 -245.9,-39.7 -245.9,186 0,33.8 -4.6,194.8 4.4,212.6 13.9,27.5 53.5,21.2 86.3,21.2 35.8,-0.1 72.6,-0.8 108.4,0.3l-0.1 79.4c-33.2,-0.1 -133.6,-4.6 -156.8,2.1l-92.5 160.6c-16.7,28 -12.5,38.4 -12,75 -82.7,14.7 -78,-12.5 -78,-78.4 0,-54.6 -1.2,-110.6 0.4,-165z"/>
 </g>
</svg>
