<?xml version="1.0" encoding="UTF-8"?>
<!DOCTYPE svg PUBLIC "-//W3C//DTD SVG 1.1//EN" "http://www.w3.org/Graphics/SVG/1.1/DTD/svg11.dtd">
<!-- Creator: CorelDRAW 2018 (64-Bit) -->
<svg xmlns="http://www.w3.org/2000/svg" xml:space="preserve" width="1179px" height="868px" version="1.1" style="shape-rendering:geometricPrecision; text-rendering:geometricPrecision; image-rendering:optimizeQuality; fill-rule:evenodd; clip-rule:evenodd"
viewBox="0 0 27825.8 20500.1"
 xmlns:xlink="http://www.w3.org/1999/xlink">
 <defs>
  <style type="text/css">
   <![CDATA[
    .fil1 {fill:#26A2E0}
    .fil2 {fill:#FC3860}
    .fil0 {fill:white}
   ]]>
  </style>
 </defs>
 <g id="Слой_x0020_1">
  <metadata id="CorelCorpID_0Corel-Layer"/>
  <path class="fil0" d="M7219.4 2508.8c-3442.6,727.6 -3341.9,2231.5 -2364.8,5414.6 409.6,1334.2 859.6,2107.6 856.4,3665.4 -3.2,1511.3 25.5,3040.8 -9.7,4549.4 -484.8,-326.7 -1103.7,-1856.2 -3191.4,-1574.5 -4005.4,540.5 -2905.5,6746.9 1102.1,5847.4 739.8,-166.1 1113.9,-537.6 1542.8,-841.4 509.5,635.2 838.8,812.2 1987.4,810.3l8931.9 -0.3c1553.6,18 10940.8,98.4 11716.3,-40.8 69.2,-933 15.5,-2057.1 15.5,-3011.4 0,-983 138.1,-2070.5 -392.7,-2740.4 -743,-937.9 -3273.6,-1284.1 -3230.9,1697.5 -416,49.8 -6523.6,-595.5 -7057.8,-781.8 -1183.1,-412.8 -1064.3,-256.5 -2328.9,-427l-1.8 -6006.2c210.9,-1538 3224,-5042.7 -1661.5,-6456.1 -658.3,-3355.2 -5007.5,-3575.3 -5912.9,-104.7zm13099.7 3101.8c-1008.2,107 -1993.4,-69.8 -2609.8,14.3 -366.1,49.9 -602.1,192.1 -635.5,540.4l-3.2 3808.6c0,883.6 -28,1481.3 -11.7,1885.2 31.4,780.1 227.6,837.8 1108.2,836.8l7604.5 0c897.2,1 1071.2,-43.3 1092,-919.7 9.5,-401.2 -13.1,-976.8 -13.1,-1802.3 0,-1903.2 80.1,-2973.9 35.1,-3576 -61.2,-819.9 -354.4,-770.6 -1397.8,-770.6l-1886 -0.7 -3282.7 -16z"/>
  <path class="fil1" d="M17384.9 18906.5c-673.4,634.3 -1196.6,426.6 -2744.1,426.6l-6504.9 0c-778.6,0.1 -2631.4,203 -2142.6,-1058 273.4,-705.3 1798.4,-458.7 2693.9,-458.7l6504.9 0c1265.9,0.1 2338.5,-333 2192.8,1090.1zm-16296.9 -916.8c-613.5,-2569.2 3143.1,-3314.1 3720.5,-965.2 282.1,1147.7 -484.1,2112.3 -1360.7,2341.5 -1156.8,302.7 -2151.8,-505.3 -2359.8,-1376.3zm8701.7 -1915.3l4745.6 86.3c2882.4,68.9 1179.7,287.7 3490.7,554.4l7218.2 774.6c-2.5,-1070.6 -216,-1808 400.1,-2467.1l703.8 -24c663.7,796.2 424.6,2127.2 412.1,3873.9l-6.4 437.2c-2000.2,106.1 -6166.9,35.3 -8385.3,20.2 476.9,-3085.7 -1971.2,-2580.2 -4499.4,-2578.6 -2197.1,1.3 -5130.1,164.6 -7238.8,-24.4 452.2,-745.8 2065.7,-652.3 3159.4,-652.5zm3905.9 -4702.7l46.5 3694.4 -1899.2 -19.5 1852.7 -3674.9zm-6942 3864.1l2.9 -1710.6c65.6,285.3 498.6,1089.9 608.6,1599.4l-611.5 111.2zm1821.6 -414.7c-564.2,-353.1 -2077.6,-5273.6 -2259.9,-5821 -850,-2552.1 -2104.1,-5159.5 961.2,-5383.2 398.3,2043 2784.7,3123.4 4748.5,1712.6 648.2,-465.7 638.8,-782.8 1072.3,-1575 3265.4,263.4 897.4,4456.2 25,6315.9 -236.5,504.3 -2229,4571 -2524.3,4760.9 -461.5,296.7 -698.5,-4.7 -1031,-7.5 -425.3,-3.7 -416.4,309.8 -991.8,-2.7zm1077 -13658.5c2513.4,-744.2 3287.7,3005.6 1097.4,3665.7 -2434.7,733.8 -3585.3,-2929 -1097.4,-3665.7zm-2432.8 1346.2c-3442.6,727.6 -3341.9,2231.5 -2364.8,5414.6 409.6,1334.2 859.6,2107.6 856.4,3665.4 -3.2,1511.3 25.5,3040.8 -9.7,4549.4 -484.8,-326.7 -1103.7,-1856.2 -3191.4,-1574.5 -4005.4,540.5 -2905.5,6746.9 1102.1,5847.4 739.8,-166.1 1113.9,-537.6 1542.8,-841.4 509.5,635.2 838.8,812.2 1987.4,810.3l8931.9 -0.3c1553.6,18 10940.8,98.4 11716.3,-40.8 69.2,-933 15.5,-2057.1 15.5,-3011.4 0,-983 138.1,-2070.5 -392.7,-2740.4 -743,-937.9 -3273.6,-1284.1 -3230.9,1697.5 -416,49.8 -6523.6,-595.5 -7057.8,-781.8 -1183.1,-412.8 -1064.3,-256.5 -2328.9,-427l-1.8 -6006.2c210.9,-1538 3224,-5042.7 -1661.5,-6456.1 -658.3,-3355.2 -5007.5,-3575.3 -5912.9,-104.7zm10548.9 3861.1l8425.3 31.9 -1.5 5511.7c-387.3,110.5 -7624.5,80.7 -8437,14.5l13.2 -5558.1zm3101.1 -1300.7l2183 0.7 0.3 302.8 -0.9 253.5 -401.5 1.5 -1532.2 0.3 -249.2 -4.4 0.2 -364.5 0.3 -189.9zm-550.3 541.4c-1008.2,107 -1993.4,-69.8 -2609.8,14.3 -366.1,49.9 -602.1,192.1 -635.5,540.4l-3.2 3808.6c0,883.6 -28,1481.3 -11.7,1885.2 31.4,780.1 227.6,837.8 1108.2,836.8l7604.5 0c897.2,1 1071.2,-43.3 1092,-919.7 9.5,-401.2 -13.1,-976.8 -13.1,-1802.3 0,-1903.2 80.1,-2973.9 35.1,-3576 -61.2,-819.9 -354.4,-770.6 -1397.8,-770.6 -628.7,0 -1257.4,-0.6 -1886,-0.7 0.2,-391.2 43.2,-769.9 -80.9,-1056.9 -329,-74.5 -2818,-104.2 -3083.9,9.1 -200.3,234.6 -116.2,699.6 -117.9,1031.8zm-10794 7991c947.4,-717.3 3191.8,-5999.9 3526,-6912.6 447.3,-1221.9 -409.6,-1448.5 -781.3,-899.4 -187.8,277.4 -564.1,1527.2 -723.7,1924.6 -535.4,1333.3 -1196.8,2403.8 -1738.9,3548.4 -146,-147 -104.4,-43.9 -241.7,-341l-1108.3 -3179.9c-195.6,-624.1 -367.9,-1251.8 -580.3,-1852.7 -302.2,-854.9 -1267.7,-537.6 -991.8,433.4 703.4,2475.6 1702.9,5106 2640,7279.2z"/>
  <path class="fil2" d="M20674.1 8963.2l680.3 0c244.3,0 443.1,-198.8 443.1,-443.1l0 -680.3 505.6 0 0 680.3c0,244.3 198.8,443.1 443.1,443.1l680.3 0 0 505.6 -680.3 0c-244.3,0 -443.1,198.8 -443.1,443.1l0 680.2 -505.6 0 0 -680.2c0,-244.3 -198.8,-443.1 -443.1,-443.1l-680.3 0 0 -505.6 0 0zm465.5 1163.5l0 650.5c0,260.7 212.1,472.8 472.7,472.8l875.9 0c260.6,0 472.7,-212.1 472.7,-472.8l0 -650.5 650.6 0c260.6,0 472.7,-212.2 472.7,-472.8l0 -875.9c0,-260.7 -212.1,-472.7 -472.7,-472.7l-650.6 -0.1 0 -650.5c0,-260.7 -212.1,-472.8 -472.7,-472.8l-875.9 0c-260.7,0 -472.7,212.1 -472.7,472.8l0 650.6 -650.6 0c-260.7,0 -472.8,212.1 -472.8,472.7l0 876c0,260.6 212.2,472.7 472.8,472.7l650.6 0z"/>
 </g>
</svg>
