<?xml version="1.0" encoding="UTF-8"?>
<!DOCTYPE svg PUBLIC "-//W3C//DTD SVG 1.1//EN" "http://www.w3.org/Graphics/SVG/1.1/DTD/svg11.dtd">
<!-- Creator: CorelDRAW 2018 (64-Bit) -->
<svg xmlns="http://www.w3.org/2000/svg" xml:space="preserve" width="786px" height="781px" version="1.1" style="shape-rendering:geometricPrecision; text-rendering:geometricPrecision; image-rendering:optimizeQuality; fill-rule:evenodd; clip-rule:evenodd"
viewBox="0 0 995.8 989.7"
 xmlns:xlink="http://www.w3.org/1999/xlink">
 <defs>
  <style type="text/css">
   <![CDATA[
    .fil2 {fill:#26A2E0}
    .fil1 {fill:#FC3860}
    .fil0 {fill:white}
   ]]>
  </style>
 </defs>
 <g id="Слой_x0020_1">
  <metadata id="CorelCorpID_0Corel-Layer"/>
  <path class="fil0" d="M775.2 519.6c0,30.7 4.6,55.3 28.2,79 6.1,6 18.4,14.6 26.7,18.7 37.2,18.2 85.2,10.8 114.7,-18.7 33,-33 38.2,-89.2 11.8,-126.4 -18.5,-26.1 -16.5,-8.6 -16.5,-47.4l0.1 -257.8c0.5,-91.3 -132.2,-89.1 -132.1,-2l0.1 257.7c0,38.5 4.6,20.4 -15.7,48.3 -7.9,10.9 -17.3,30.9 -17.3,48.6z"/>
  <path class="fil0" d="M197.9 138.2l0 109.3c0,10.8 6.4,15.6 16.5,16.5l0 16.5 -20.6 0c-22.7,0 -45.4,22.7 -45.4,45.3 0,50.3 -10.9,104 57.9,103 24.5,-0.4 6,2.8 28,48.2 20.1,41.5 41.8,72.9 79.9,101.6 6.8,5.1 24.7,17.4 32.2,19.4 0,74.7 8.6,61.8 -90.8,61.8 -51.7,0 -84.7,-3.1 -132.6,19.9 -67.4,32.4 -123,106 -123,182.2l0 111.3c0,10 6.5,16.5 16.5,16.5l890.6 0c10,0 16.5,-6.5 16.5,-16.5 0,-85.2 10.5,-157.1 -39.7,-224.2 -36,-48 -81,-76.7 -141.7,-87.1 -35.3,-6.1 -128.9,1.8 -150.1,-2.5 -20.6,-4.2 -14.8,-33.9 -14.8,-61.4 22.4,-6 64.6,-46.3 80.7,-67.8 40.4,-54.1 40.3,-87.2 47.1,-101.3 25.6,0 32.4,2.3 49.1,-8.5 28.1,-18.3 21,-54.6 21,-94.6 0,-22.6 -22.7,-45.3 -45.4,-45.3l-20.6 0 0 -16.5c10.1,-0.9 16.5,-5.7 16.5,-16.5l0 -109.3c0,-50.8 -36.8,-99.7 -82.6,-123.6 -12,-6.2 -37.6,-14.5 -55.5,-14.5l-251.6 0c-68.9,0 -138.1,69.4 -138.1,138.1z"/>
  <path class="fil1" d="M775.2 519.6c0,30.7 4.6,55.3 28.2,79 6.1,6 18.4,14.6 26.7,18.7 37.2,18.2 85.2,10.8 114.7,-18.7 33,-33 38.2,-89.2 11.8,-126.4 -18.5,-26.1 -16.5,-8.6 -16.5,-47.4l0 -160.9 -132 0 0.1 158.8c0,38.5 4.6,20.4 -15.7,48.3 -7.9,10.9 -17.3,30.9 -17.3,48.6z"/>
  <path class="fil2" d="M214.4 874.2l0 82.5 -181.4 0 0 -76.3c0,-109.4 79.9,-187.6 193.8,-187.6 10.2,0 3.3,10.4 13.7,31.7 36.8,75.1 124.2,116.7 206.9,116.7 67.7,0 117.3,-8.2 169.9,-42.4 29.6,-19.3 63.3,-54.9 71.3,-89.5 3.5,-14.9 -1.1,-16.5 14.4,-16.5 108.1,0 187.6,78.7 187.6,191.7l0 72.2 -181.4 0 0 -82.5c0,-22.1 -33,-22.1 -33,0l0 82.5 -428.8 0 0 -82.5c0,-22.1 -33,-22.1 -33,0zm51.5 -181.4c23.8,0 70.6,4.1 88.7,-6.2 29.9,-17.1 24.7,-43.9 24.7,-72.1 22,1.8 63.5,22.3 131.9,8.1 9.7,-2 24.3,-7.4 33.1,-8.1 0,27.4 -5.3,54.1 23.4,71.3 19.2,11.5 65.2,7 90,7 -4.6,19.4 -14.2,37.5 -26.3,50 -42.8,44.3 -90.8,59 -150.9,63.5 -21.5,1.7 -30,2.3 -53.2,-0.6 -59,-7.4 -119.3,-32.2 -150.7,-84.4 -6.5,-10.7 -6.1,-18.2 -10.7,-28.5zm64 -148.4l0 -129.9c0,-8.1 13.8,-8 29.7,-11.5 16.7,-3.7 91.6,-21.5 102.2,-21.5l119.2 25.2c6.1,1.1 12.7,0.5 12.7,7.8l0 129.9c0,14.6 -68,40.4 -91.2,44.8 -30.3,5.7 -51.1,5.7 -81.4,0 -23.1,-4.4 -91.2,-30.2 -91.2,-44.8zm296.8 -31c0,-21.8 -3,-92.5 0.4,-108.8 1,-4.6 45.9,-57.8 49.1,-60.2 0,40.3 -0.7,67.7 -10.5,98.7 -3.7,11.5 -9.8,27.8 -15.9,37.8 -5.8,9.5 -15,27.1 -23.1,32.5zm-379.3 -169l25 28.6c5.6,6.8 22.7,25.1 24.1,31.6 3.4,16.3 0.4,87 0.4,108.8 -7,-4.6 -17.2,-22.8 -22.3,-31.2 -7.2,-11.8 -12.3,-25.4 -16.7,-39.1 -9.8,-30.9 -10.5,-58.4 -10.5,-98.7zm476.2 51.5l-14.4 0 0 -82.4c38.7,0 33,5.8 33,63.9 0,10.2 -8.4,18.5 -18.6,18.5zm-542.2 -18.5c0,-58.1 -5.7,-63.9 33,-63.9l0 82.4c-10.9,0 -33,2.4 -33,-18.5zm66 -90.7l0 -22.7 169 0c42.3,0 75.9,-23.3 101.6,-49 8.2,-8.2 17.2,-19.2 26.3,-25.2 24.6,16.5 54.9,74.2 131.9,74.2 0,35.1 2.6,22.4 -16.2,45.6l-55.9 67.8c-5.9,-2.8 -27.1,-6.4 -35.1,-8.3 -11.6,-2.7 -24.4,-5.2 -35.4,-7.8 -60.6,-14.2 -58.8,-19.1 -108.1,-7.9l-105.9 24 -36.3 -44.2c-5.6,-7.2 -35.9,-40.8 -35.9,-46.5zm148.4 -55.7l-164.9 0 0 -74.2c0,-73.6 50.2,-123.7 123.7,-123.7l214.4 0c73.8,0 123.7,50 123.7,123.7l0 74.2c-100.9,0 -119.2,-82.5 -148.4,-82.5 -11.7,0 -25.3,18.1 -32.5,25.3 -33.1,33.1 -52.5,57.2 -116,57.2zm-197.9 -92.8l0 109.3c0,10.8 6.4,15.6 16.5,16.5l0 16.5 -20.6 0c-22.7,0 -45.4,22.7 -45.4,45.3 0,50.3 -10.9,104 57.9,103 24.5,-0.4 6,2.8 28,48.2 20.1,41.5 41.8,72.9 79.9,101.6 6.8,5.1 24.7,17.4 32.2,19.4 0,74.7 8.6,61.8 -90.8,61.8 -51.7,0 -84.7,-3.1 -132.6,19.9 -67.4,32.4 -123,106 -123,182.2l0 111.3c0,10 6.5,16.5 16.5,16.5l890.6 0c10,0 16.5,-6.5 16.5,-16.5 0,-85.2 10.5,-157.1 -39.7,-224.2 -36,-48 -81,-76.7 -141.7,-87.1 -35.3,-6.1 -128.9,1.8 -150.1,-2.5 -20.6,-4.2 -14.8,-33.9 -14.8,-61.4 22.4,-6 64.6,-46.3 80.7,-67.8 40.4,-54.1 40.3,-87.2 47.1,-101.3 25.6,0 32.4,2.3 49.1,-8.5 28.1,-18.3 21,-54.6 21,-94.6 0,-22.6 -22.7,-45.3 -45.4,-45.3l-20.6 0 0 -16.5c10.1,-0.9 16.5,-5.7 16.5,-16.5l0 -109.3c0,-50.8 -36.8,-99.7 -82.6,-123.6 -12,-6.2 -37.6,-14.5 -55.5,-14.5l-251.6 0c-68.9,0 -138.1,69.4 -138.1,138.1zm148.5 175.3c0,19.6 19.4,16.5 32.9,16.5 22.2,0 22.2,-33 0,-33 -13.5,0 -32.9,-3.1 -32.9,16.5zm181.4 0c0,19.6 19.4,16.5 33,16.5 22.1,0 22.1,-33 0,-33 -13.6,0 -33,-3.1 -33,16.5zm346.3 33l33 0 0 16.5 -33 0 0 32.9 33 0 0 16.5 -33 0 0 33 33 0 0 16.5c0,19.8 40.9,26.3 30.7,80.2 -12.7,67.6 -114.7,67.6 -127.4,0 -10.1,-53.9 30.7,-60.4 30.7,-80.2l0 -164.9 66 0 0 16.5 -33 0 0 33zm0 -148.5l33 0 0 16.5 -33 0 0 33 33 0 0 16.5 -66 0 0 -92.8c0,-43.7 54.1,-57.2 66,-6.2l-33 0 0 33zm-98.9 321.6c0,30.7 4.6,55.3 28.2,79 6.1,6 18.4,14.6 26.7,18.7 37.2,18.2 85.2,10.8 114.7,-18.7 33,-33 38.2,-89.2 11.8,-126.4 -18.5,-26.1 -16.5,-8.6 -16.5,-47.4l0.1 -257.8c0.5,-91.3 -132.2,-89.1 -132.1,-2l0.1 257.7c0,38.5 4.6,20.4 -15.7,48.3 -7.9,10.9 -17.3,30.9 -17.3,48.6zm65.9 4.2c0,49.8 66,49.8 66,0 0,-15 -14.3,-28.9 -37.1,-28.9 -12.9,0 -28.9,16 -28.9,28.9zm96.9 -441.2c0,9.2 8.4,18.5 16.5,18.5 11.2,0 41.3,-30 41.3,-41.2 0,-10 -6.6,-16.5 -16.5,-16.5 -12.2,0 -41.3,32.2 -41.3,39.2zm-185.5 -22.7c0,12.1 29.9,38 34.7,39.6 12.5,4.3 25.7,-8.9 21.4,-21.4 -2.2,-6.6 -6.8,-9.1 -11.3,-13.6 -6.8,-6.7 -16.8,-21.1 -28.3,-21.1 -10,0 -16.5,6.5 -16.5,16.5zm105.1 -43.3c0,24.8 -5,49.5 16.5,49.5 21.6,0 16.5,-24.7 16.5,-49.5 0,-22.1 -33,-22.1 -33,0z"/>
 </g>
</svg>
