<?xml version="1.0" encoding="UTF-8"?>
<!DOCTYPE svg PUBLIC "-//W3C//DTD SVG 1.1//EN" "http://www.w3.org/Graphics/SVG/1.1/DTD/svg11.dtd">
<!-- Creator: CorelDRAW 2018 (64-Bit) -->
<svg xmlns="http://www.w3.org/2000/svg" xml:space="preserve" width="1181px" height="817px" version="1.1" style="shape-rendering:geometricPrecision; text-rendering:geometricPrecision; image-rendering:optimizeQuality; fill-rule:evenodd; clip-rule:evenodd"
viewBox="0 0 3525.4 2438.1"
 xmlns:xlink="http://www.w3.org/1999/xlink">
 <defs>
  <style type="text/css">
   <![CDATA[
    .fil1 {fill:#26A2E0}
    .fil2 {fill:#FC3860}
    .fil0 {fill:white}
   ]]>
  </style>
 </defs>
 <g id="Слой_x0020_1">
  <metadata id="CorelCorpID_0Corel-Layer"/>
  <path class="fil0" d="M2918.6 1442.2l-666.7 252.3 580.6 219.8 45.1 0 140.5 0 39.8 0 67 0c44,6 77.6,24 86.7,68.6 2.8,13.3 1.7,57.3 1.3,73.2 -0.8,36.7 -10.5,37.4 -19.5,60.2 30.4,76.4 24.9,144.2 -16.6,207.6 -56.8,86.7 -179.3,120.2 -275.8,75.8 -26.6,-12.2 -58.3,-40.7 -71.7,-57.1 -77.6,-94.5 -42.4,-163 -45.1,-200l-1192.6 0c-3.7,47 11.3,54.4 -5.4,120.4 -6.1,24.2 -21.4,48.1 -35.9,67 -132.1,171.6 -403.9,74.4 -387,-157.5 1.6,-21.6 6.6,-38.8 14.2,-56 14.6,-32.8 9.1,-19.1 2.1,-53.8 -7.8,-38.3 1.2,-86.6 16.2,-112.8 18.6,-32.4 57.1,-35.4 92.4,-35.6l11.8 0c14.9,0 29.9,0 44.8,0l580.7 -219.8 -666.7 -252.3 -11.4 0 -193.9 0c-21.4,-2 -36.4,-6.8 -58,-17.1 -32.4,-15.5 -41.1,-29.8 -73.7,-39l-124.1 -39.9c-101.1,-31.9 -102.7,-30 -169.1,-106 -6.8,7.2 -102.1,272.9 -104.9,307.4l36 28.9c6.2,5.3 9.6,8.8 15.7,14.2l86.8 77.4c33.2,29.5 74.4,58.1 105.3,89.2 70.5,71 69.5,147 89,243.2 7.4,36.8 13.3,73.1 21,109.8 7.3,35.2 18.7,74.4 22.9,110 9.4,80.2 -30.8,141.8 -86.9,175.7 -66.4,40 -149.6,25.4 -200.4,-18.1 -67.6,-57.8 -76.1,-203.4 -95.1,-297.1 -4.3,-21.3 -11.2,-94.9 -30.5,-101.3 -10.2,20.7 -14.7,44.5 -27.3,68.2 -33.9,63.8 -61.5,138.9 -92.3,204.6 -20.6,44 -38.3,99.3 -69.1,130.3 -139.2,140.4 -368.7,-6.4 -278.3,-205.7l108 -241.6c10.8,-27.6 -2.5,-56 -9.1,-82.7 -6.8,-27.2 -12,-51.3 -18.9,-79.7l-37.8 -161.3c-18.7,-101.3 38.6,-216.1 70.6,-311 33.1,-98.1 63.7,-198.8 100,-296.4 31.3,-84.2 46.5,-167.5 114.9,-230.5 10.7,-9.9 18.1,-13.1 28.1,-22.7 -6.3,-22.9 -20.7,-44.6 -28,-69 -65.9,-221.1 173.1,-406.7 379.1,-297 30.5,16.3 63.7,45.6 82.9,72.6 5.9,8.3 12.1,20.2 18,30.1 22,36.5 29.2,77.2 32.8,122.4 3.9,49.9 -20.9,114.9 -48.7,153.1 -15.1,20.7 -31.7,37.8 -50.2,53.1 -19,15.8 -44,28.1 -64.6,38.8 -1.5,49.6 21.6,65.4 55.1,92.4 21.7,17.4 69.6,55.3 92.2,58.2 45.3,5.8 86.8,12.5 132.6,20.2 36.9,6.2 93.1,19.3 130.7,18.8 -10.8,-33.6 -22.7,-61.2 -22.9,-102.8 -0.2,-45.7 3.7,-74.1 18.5,-108.5 67.4,-157.3 253.5,-214.9 405.4,-103.2 26,19.1 43.4,43.8 59.6,70.2 39.2,-13.2 40.4,-29.3 100.4,-37 96.8,-12.5 301.4,-4.7 406,-5 49.2,-0.2 69.8,4.9 120.9,4.8 53.1,0 150.7,-6.5 199.9,3.9 84.4,18 -11.5,34.9 168.7,7.7 41.3,-6.2 78.9,-11.4 118.9,-16.6 124.3,-16.1 108.5,-12.2 226.6,13.1 21,4.5 37.8,7.5 57.9,12.1 78.6,18.3 206.7,30.2 264.6,76.1 50,39.7 79.2,110.4 53.1,198.1 25.6,4.6 63.2,-14.6 120.8,-0.2 66.1,16.4 133.7,106.1 115.9,225 -8.7,57.9 -43.7,100.5 -86.7,130.8 -26.7,18.9 -55.2,26.3 -86.6,29l-227.2 0 -203.4 0zm-412.6 472.1l-417.3 -158 -417.3 158 56.6 0 778 0zm-920.7 -472.1l503.4 190.5 503.5 -190.5 -1006.9 0z"/>
  <path class="fil1" d="M1709 938.7c13,-2.3 296.3,73.7 313.4,78.1 18.7,4.9 246.8,-42.2 285.7,-49.8 28.3,-5.6 70.9,-17.4 79.9,16.2 8.7,32.1 -28.5,41.8 -58.3,47.6 -70.6,13.7 -249.8,53 -310.7,53l-315.4 -81.7c-12.5,-5.5 -23,-14.7 -20.9,-33.9 1.5,-14 14.9,-27.5 26.3,-29.5zm-123.7 503.5l503.4 190.5 503.4 -190.5 -1006.8 0zm1333.3 0l-666.7 252.3 580.6 219.8 45.1 0 140.5 0 39.8 0 67 0c44,6 77.6,24 86.7,68.6 2.8,13.3 1.7,57.3 1.3,73.2 -0.8,36.7 -10.5,37.4 -19.5,60.2 30.4,76.4 24.9,144.2 -16.6,207.6 -56.8,86.7 -179.3,120.2 -275.8,75.8 -26.6,-12.2 -58.3,-40.7 -71.7,-57.1 -77.6,-94.5 -42.4,-163 -45.1,-200l-1192.6 0c-3.7,47 11.3,54.4 -5.4,120.4 -6.1,24.2 -21.4,48.1 -35.9,67 -132.1,171.6 -403.9,74.4 -387,-157.5 1.6,-21.6 6.6,-38.8 14.2,-56 14.6,-32.8 9.1,-19.1 2.1,-53.8 -7.8,-38.3 1.2,-86.6 16.2,-112.8 18.6,-32.4 57.1,-35.4 92.4,-35.6l11.8 0c14.9,0 29.9,0 44.8,0l580.7 -219.8 -666.7 -252.3 -11.4 0 -193.9 0c-21.4,-2 -36.4,-6.8 -58,-17.1 -32.4,-15.5 -41.1,-29.8 -73.7,-39l-124.1 -39.9c-101.1,-31.9 -102.7,-30 -169.1,-106 -6.8,7.2 -102.1,272.9 -104.9,307.4l36 28.9c6.2,5.3 9.6,8.8 15.7,14.2l86.8 77.4c33.2,29.5 74.4,58.1 105.3,89.2 70.5,71 69.5,147 89,243.2 7.4,36.8 13.3,73.1 21,109.8 7.3,35.2 18.7,74.4 22.9,110 9.4,80.2 -30.8,141.8 -86.9,175.7 -66.4,40 -149.6,25.4 -200.4,-18.1 -67.6,-57.8 -76.1,-203.4 -95.1,-297.1 -4.3,-21.3 -11.2,-94.9 -30.5,-101.3 -10.2,20.7 -14.7,44.5 -27.3,68.2 -33.9,63.8 -61.5,138.9 -92.3,204.6 -20.6,44 -38.3,99.3 -69.1,130.3 -139.2,140.4 -368.7,-6.4 -278.3,-205.7l108 -241.6c10.8,-27.6 -2.5,-56 -9.1,-82.7 -6.8,-27.2 -12,-51.3 -18.9,-79.7l-37.8 -161.3c-18.7,-101.3 38.6,-216.1 70.6,-311 33.1,-98.1 63.7,-198.8 100,-296.4 31.3,-84.2 46.5,-167.5 114.9,-230.5 10.7,-9.9 18.1,-13.1 28.1,-22.7 -6.3,-22.9 -20.7,-44.6 -28,-69 -65.9,-221.1 173.1,-406.7 379.1,-297 30.5,16.3 63.7,45.6 82.9,72.6 5.9,8.3 12.1,20.2 18,30.1 22,36.5 29.2,77.2 32.8,122.4 3.9,49.9 -20.9,114.9 -48.7,153.1 -15.1,20.7 -31.7,37.8 -50.2,53.1 -19,15.8 -44,28.1 -64.6,38.8 -1.5,49.6 21.6,65.4 55.1,92.4 21.7,17.4 69.6,55.3 92.2,58.2 45.3,5.8 86.8,12.5 132.6,20.2 36.9,6.2 93.1,19.3 130.7,18.8 -10.8,-33.6 -22.7,-61.2 -22.9,-102.8 -0.2,-45.7 3.7,-74.1 18.5,-108.5 67.4,-157.3 253.5,-214.9 405.4,-103.2 26,19.1 43.4,43.8 59.6,70.2 39.2,-13.2 40.4,-29.3 100.4,-37 96.8,-12.5 301.4,-4.7 406,-5 49.2,-0.2 69.8,4.9 120.9,4.8 53.1,0 150.7,-6.5 199.9,3.9 84.4,18 -11.5,34.9 168.7,7.7 41.3,-6.2 78.9,-11.4 118.9,-16.6 124.3,-16.1 108.5,-12.2 226.6,13.1 21,4.5 37.8,7.5 57.9,12.1 78.6,18.3 206.7,30.2 264.6,76.1 50,39.7 79.2,110.4 53.1,198.1 25.6,4.6 63.2,-14.6 120.8,-0.2 66.1,16.4 133.7,106.1 115.9,225 -8.7,57.9 -43.7,100.5 -86.7,130.8 -26.7,18.9 -55.2,26.3 -86.6,29l-227.2 0 -203.4 0zm-412.6 472.1l-417.3 -158 -417.3 158 56.6 0 778 0zm616 -573.2l-40.7 0c-44.2,-0.5 -62.8,-2.5 -79.5,0l-1754.4 0 0 3.6c-67.2,0.3 -136.8,1.9 -156.9,1.5 -29.4,-0.5 -56.3,-7.8 -74,-23.7 -55.3,-49.6 -23.5,-97.6 -23.7,-123.4 -75.2,-27.7 -201.3,-14.2 -263.3,-60.1l-235.7 -187.7c-20.9,-21.6 -15,-57 22.5,-57 22.2,0 27.4,11.7 38.7,21.7l218.3 174.7c15.5,11.7 23.2,6.5 46.9,10.3 49.2,7.8 258,36.1 285.7,50.4 24.8,12.9 14.7,5.2 40.9,5.2l120.9 0c12.1,0 15.7,2.5 21.6,2.5 6.7,0 9.3,-2.5 21.6,-2.5l72.7 2.9c10,-0.3 12.1,-2.9 26.6,-2.9l906.8 0c101.6,0 222,-1.5 323.7,5 179,3.7 485.7,-10.4 630,0.7 42.7,5.4 52.4,-12.1 117.7,7.3 46.3,10.8 40.1,117.8 0.7,153.4 -31,28.1 -62,19.1 -83.2,18.2 -59,-2.4 -123.2,-0.5 -183.9,-0.1zm-1713.2 670.4l1439.5 0 250.4 -1.8c7.2,0 13.7,4.4 16.7,7.4 0.9,39.8 -15.4,28.9 -55.7,28.3 -47.9,-0.7 -47.6,-7.5 -45.5,40.7 9.2,4.7 18.5,4.5 30.4,10.7 12.1,6.3 13,8.8 25.5,18.1 56.4,41.7 56.8,120.8 2.8,174.3 -28,27.7 -78.8,40.8 -126.5,18.9 -79.8,-36.8 -99.1,-145.8 -9.2,-206.4 32.7,-22.1 32.8,6.3 32.7,-55.9 -259.4,-7.7 -527.2,-0.4 -791.1,-0.4l-708.2 0c-34.5,0 -85.7,-13 -74.3,27.7 4.2,14.7 34.3,15.1 56.2,35.5 65.9,61.1 48.5,145.1 4.6,179.7 -35.1,27.8 -81,38.2 -132.4,17.6 -18.9,-7.6 -13.1,-7.4 -26.7,-21.2 -17.1,-17.4 -37.7,-27.4 -37.7,-82 0,-86.8 55.4,-98.8 91.7,-120.9 2.4,-44.5 6.2,-35.9 -70.6,-36.4l-1.5 -33.7 128.9 -0.2zm-76.3 -918c-90.7,0 -186.5,-105.6 -133.1,-232.4 34.8,-82.6 167.7,-128.9 260.7,-42.6 46.4,42.9 58.6,115.1 34.8,176.9 -24.6,63.7 -84.9,98.1 -162.4,98.1zm1019.1 -233.2c46.3,0 42.6,39.5 86.5,34.8 39,-4.2 74.8,-11.5 115.8,-15.8 29,-3.1 82.2,-12.6 110.2,-17.4 118.1,-20.1 112.1,-22.1 219.9,6.1 19.5,5.1 33.6,5.9 52.6,10.7l155.7 33.9c35.1,6.9 70.5,11.9 88.9,37.4 36.6,50.7 1.2,110.9 -43.9,118.6 -23.5,4 -138.3,-25.3 -165.9,-30.7l-101.7 -22.4c-85,-25 -100.2,-20.8 -168.3,-9.2l-274.7 37.5c2.4,-15.9 13.8,-19.2 13.8,-45.9 0,-38.8 -15.9,-70.2 -47.8,-84 -32.7,-14.1 -55,-4.3 -90.8,2.8 -66.7,13.3 -131.8,24.6 -195.8,37.2 -37.3,7.4 -62.7,18.1 -101.8,6.2 -30.3,-9.1 -58.8,-17.3 -90.8,-24.9 -33.5,-7.9 -61.1,-15.4 -93.4,-23.6 -56.9,-14.6 -143,-48.6 -178.9,19.2 -12.7,24 -11.9,58.7 1.5,80.9 36.3,60.4 93,37.6 139.6,67.1l-82.8 0.1c-87.4,0 -158.3,-98.3 -82.8,-185.7 15.9,-18.4 47.4,-32.9 73.1,-32.9l661.8 0zm-2193.8 686c0,-23.3 80.4,-237.2 95.3,-290.3 5.8,-20.7 12.2,-35.4 18.2,-53.8 12.3,-38.4 25.1,-74.2 37.7,-113.3l49.5 -145.5c3.8,-10.9 4.6,-16.5 9.9,-28.7 67.8,-157.4 220.2,-79.3 219.6,-35.6 -22.7,-25.9 -52.6,-45.7 -100.7,-31.7 -30.7,8.9 -63.1,44.8 -56,88.4 10.1,61.9 101.9,103.8 143.4,145.4l-167.1 500.4c54.1,33.1 35.4,27.4 77.8,60.6l142.9 128.9c86.7,72.1 94.9,70.3 113.1,158.9 7.3,35.7 14.5,73.9 22.4,110.9 9,42.6 43.6,192.9 34.3,226.4 -19.7,70.2 -126.5,76.4 -146.8,-15l-32.6 -169.7c-21.4,-87 -5.5,-134.2 -61.1,-175.9l-124.6 -108.5c-21.1,-16.5 -52.2,-57.3 -76.9,-57.9 -7.1,17 9.6,73.2 15.1,94.8 24.2,93.7 30.1,101.6 -1.6,172.6 -6.5,14.5 -14.5,34.6 -22.4,52l-93.2 203.8c-14.1,35.6 -31.2,73.3 -74.5,73.3 -44,0 -78.2,-21.9 -80.3,-65.2 -1.1,-22.8 2.4,-35.2 10.2,-52.1l61.6 -137.9c7.5,-15.9 12.7,-27.9 19.9,-44.2l42.6 -91.7c12.1,-26.8 -18.6,-125.5 -26.7,-154.1 -9.9,-34.8 -15.7,-70.2 -24.7,-106.3 -19.5,-77.7 -24.3,-66.3 -24.3,-139zm281.7 -954.3c0,-57.5 52.9,-109.6 102.1,-130.2 119.3,-49.9 265.2,74.8 206,214.5 -52.6,124.3 -209,115.2 -263.8,51.9 -45.7,-52.7 -44.3,-80.5 -44.3,-136.2zm2550.8 1562.4c-74.9,19.3 -42.6,107.9 16.2,94.6 59,-13.3 35.5,-107.9 -16.2,-94.6zm-1622.7 1.1c-66.2,21.4 -31.5,102.7 22.8,87.9 62.9,-17.1 34.3,-106.2 -22.8,-87.9z"/>
  <path class="fil0" d="M1958.6 665.8c183.6,0 332.9,-149.3 332.9,-332.9 0,-183.6 -149.3,-332.9 -332.9,-332.9 -183.5,0 -332.9,149.3 -332.9,332.9 0,183.6 149.3,332.9 332.9,332.9z"/>
  <path class="fil1" d="M1958.6 665.8c183.6,0 332.9,-149.3 332.9,-332.9 0,-183.6 -149.3,-332.9 -332.9,-332.9 -183.5,0 -332.9,149.3 -332.9,332.9 0,183.6 149.3,332.9 332.9,332.9zm0 -596.8c145.5,0 263.9,118.4 263.9,263.9 0,145.5 -118.4,263.9 -263.9,263.9 -145.5,0 -263.9,-118.4 -263.9,-263.9 0,-145.5 118.4,-263.9 263.9,-263.9z"/>
  <path class="fil2" d="M1813.3 310.7l71.4 0c25.6,0 46.4,-20.8 46.4,-46.4l0 -71.3 53 0 0 71.3c0,25.6 20.8,46.4 46.4,46.4l71.4 0 0 53 -71.4 0c-25.6,0 -46.4,20.9 -46.4,46.5l0 71.3 -53 0 0 -71.3c0,-25.6 -20.8,-46.5 -46.4,-46.5l-71.4 0 0 -53 0 0zm48.8 122l0 68.2c0,27.3 22.3,49.5 49.6,49.5l91.8 0c27.3,0 49.6,-22.2 49.6,-49.5l0 -68.2 68.2 0c27.3,0 49.5,-22.3 49.5,-49.6l0 -91.8c0,-27.3 -22.2,-49.6 -49.5,-49.6l-68.2 0 0 -68.1c0,-27.4 -22.3,-49.6 -49.6,-49.6l-91.8 0c-27.3,0 -49.6,22.2 -49.6,49.6l0 68.1 -68.2 0.1c-27.3,0 -49.5,22.2 -49.5,49.5l0 91.8c0,27.4 22.2,49.6 49.5,49.6l68.2 0z"/>
 </g>
</svg>
