<?xml version="1.0" encoding="UTF-8"?>
<!DOCTYPE svg PUBLIC "-//W3C//DTD SVG 1.1//EN" "http://www.w3.org/Graphics/SVG/1.1/DTD/svg11.dtd">
<!-- Creator: CorelDRAW 2018 (64-Bit) -->
<svg xmlns="http://www.w3.org/2000/svg" xml:space="preserve" width="930px" height="928px" version="1.1" style="shape-rendering:geometricPrecision; text-rendering:geometricPrecision; image-rendering:optimizeQuality; fill-rule:evenodd; clip-rule:evenodd"
viewBox="0 0 1050.2 1047.5"
 xmlns:xlink="http://www.w3.org/1999/xlink">
 <defs>
  <style type="text/css">
   <![CDATA[
    .fil2 {fill:#26A2E0}
    .fil1 {fill:#FC3860}
    .fil0 {fill:white}
   ]]>
  </style>
 </defs>
 <g id="Слой_x0020_1">
  <metadata id="CorelCorpID_0Corel-Layer"/>
  <path class="fil0" d="M660.6 52.1c-29.3,1.4 -54.3,-15.4 -93.5,-19.2 -110,-10.5 -120.4,7 -178.8,15.2 -85.9,12 -187.2,48.5 -223.4,132.6 -29.9,69.1 -23.7,87 -57.9,154.1 -8.8,17.5 -17.8,79.8 12.7,78.1 9.9,-0.6 24.7,71.1 -13.6,100.6 -34.8,26.7 -127.3,136 -34.1,155.3 4.5,21.7 47.6,-12 6.8,52.4 -10.9,17.2 27,63.4 33.9,98.8 2.5,12.8 13.4,15.7 13.4,64 0,103.2 85.5,72.1 175.7,40 55.2,-19.7 62.8,7.4 82.5,39.2 -2.7,10.6 32.5,78.4 44.6,79.3 134,10.5 237.1,-16.4 357.7,-2.3 150,17.4 28,13.4 32,-120.9 0.5,-16.1 -45.2,-66.1 -0.4,-155.7 16.2,-32.7 114.8,-198.8 96.4,-418 -5.8,-69.1 -96.9,-217.1 -157.4,-250.4 -21.7,-11.9 -71.8,-43.1 -96.6,-43.1z"/>
  <path class="fil1" d="M700.8 784.6c-20.6,0 -33,-14.9 -34.5,-32.3l69 0c-4.3,8.9 -2.3,14.1 -10.2,22.2 -5.5,5.5 -13.9,10.1 -24.3,10.1zm49.5 -68.9l-101.2 0c-22.6,0 -17.3,-25.8 -17.3,-51.7 0,-11.2 9,-17.3 19.4,-17.3l99.1 0c24.4,0 19.4,29.6 19.4,49.6 0,11.7 -7.6,19.4 -19.4,19.4zm-66.8 -295.2l32.4 0 0 189.6 -32.4 0 0 -189.6zm-68.9 -49.6c0,-30.2 32.3,-22.2 32.3,-2.2l0 15.1c-8.2,0 -32.3,1.9 -32.3,-12.9zm155.1 12.9l-17.2 0c0,-17.8 -1.9,-32.3 21.5,-32.3 15.3,0 19.9,32.3 -4.3,32.3zm-191.7 -25.8l0 15.1c0,24.7 24.7,47.4 49.5,47.4l19.4 0 0 150.8c-13.4,-15.4 -27.4,-29.3 -43.6,-42.6 -21.4,-17.7 -48.5,-34.2 -65.6,-65.8 -37.4,-69.3 -40.6,-147.8 3.2,-213.1 31.6,-47.2 89.8,-90.1 144.8,-90.1 62.2,0 91,8.7 137.6,47.7 3.1,2.6 2.5,1.8 5.9,4.9l6.3 6.6c23.8,28.1 38.8,48.4 49.2,86.6 4.2,15.3 4.1,24 6.3,41.1 8,59.5 -25.9,131.5 -76.9,170l-25.6 19.6c-5.6,4.7 -7.5,5.4 -12.9,10.8l-23.1 24.3 0 -150.8 21.5 0c39.7,0 67.5,-54.5 36.2,-87.9 -17.8,-19 -24.9,-17.7 -49.1,-17.7 -5.8,0 -16,4.8 -20.3,7.6 -20.9,13.3 -24.9,34.6 -24.9,61.3l-32.4 0 0 -19.4c0,-24.4 -22.7,-49.5 -47.4,-49.5 -16.9,0 -31,0.6 -43.7,14.5 -4.6,5 -14.4,20.2 -14.4,28.6zm-105.6 -15.1c0,41.5 1,69.2 18.6,108.5 6.4,14.1 9,20.1 16.7,32.8 31.4,51.3 59.8,58.8 99.9,98.4 15,14.8 12.7,16.8 19.9,31.8 -40.2,21.3 -32.3,45.1 -32.3,92.7 0,13.1 15.5,36.5 34.5,40.9 0,22.5 6.6,37.1 16.8,50 28.7,36.1 111.4,36.1 123.7,-38.7 2.9,-17.6 6.7,-9 20.4,-22.8 21.2,-21.3 20.6,-80.2 6.4,-101.9 -3.1,-4.7 -4.5,-7.2 -8.7,-10.8 -9.6,-8.3 -8,-6.7 -14.3,-7.2 0.7,-31 54.9,-63.3 80.3,-85.7 89,-78.5 100,-231.2 20.4,-325.3 -31.6,-37.4 -77,-67.6 -130.6,-78.4 -25,-5 -44.3,-7.4 -72.3,-2.9 -83.7,13.3 -157.5,68.9 -185.2,148.8 -6.7,19.2 -14.2,45.2 -14.2,69.8z"/>
  <path class="fil2" d="M62.9 375.2c0,30 32.6,47.6 38.1,56.9 3.4,5.6 1.3,8.8 -2.1,15.6 -2.9,6 -5.3,10.5 -8,15.9 -20.8,41.9 -46.6,79.4 -75.7,116 -53.1,66.8 49.9,84.9 49.9,101.6 0,30.1 -35.8,51.7 -10.8,73.3 4.7,4.1 8.2,8.9 15.1,10.7 -1.3,15.3 -15.2,33.1 13,49.5 40.8,23.8 13.1,24 15.3,64.4 2.1,38.4 22.7,82.2 68.7,82.2 23.5,0 63.9,-13.9 85.4,-20.1 14,-4 27.2,-7.6 39.6,-12.2 35.6,-13.1 39.7,-21.1 65.9,13.8 8,10.7 13.6,22 20,33.9 17.1,31.8 19.6,70.8 34.7,70.8l446.1 0c3.5,0 15.1,-4.9 15.1,-17.2 0,-18.8 -18.2,-38.7 -25.8,-51.8 -18.1,-31.1 -31,-82.2 -37.6,-117.5 -8.6,-45.6 -1,-57 -29.3,-57 -23.4,0 -7.8,58.8 -6.2,68.7 5.3,31.7 16.1,67.7 28,97 5.9,14.4 14.1,27.6 21.3,41.2l-394.3 0c-1.9,-22.5 -25.3,-65.4 -40.1,-85 -6.4,-8.5 -13.5,-16.2 -18.1,-24.9 27,-6.3 93.1,-31.2 114.7,-49 9.7,-8 16.4,-13.6 23.4,-24 35.5,-52.9 -11.3,-74.9 -22.3,-50.3 -6.6,14.8 4.6,19.8 -22.6,44.1 -28,25.1 -208.8,79.9 -242.2,89.7 -31.2,9.2 -60.5,22.3 -76.8,2 -25.7,-32 11.7,-73.3 -16.4,-110.8 -6.8,-9.1 -15.3,-12.9 -25,-18.1 8.5,-16 15.9,-26.9 -1.5,-39.4 -6.1,-4.4 -10.6,-8.8 -15.8,-12.3 2.1,-9 40,-61.8 -10.3,-93.1 -15,-9.3 -15.9,-7.6 -39.2,-23.2 2.3,-10.2 34.5,-49.6 42.2,-61.2 14.1,-21.1 61.2,-97.7 61.2,-115.5 0,-38.8 -42,-49.9 -40.2,-68.2 1,-9.5 12.9,-31.5 16.5,-39.6 5.4,-12 10.4,-27.6 13.5,-42.5 9.5,-45.6 23.9,-81.2 49,-119.1 55.3,-83.6 128.8,-98.3 219.6,-116.5 53.8,-10.9 142.7,-22.5 199.7,-14 43,6.4 42.1,-31.3 9.7,-35.6 -62.1,-8.3 -106.6,-3.8 -169.5,5.4 -145.6,21.4 -264.8,53 -324.2,203.8 -4.9,12.4 -9.3,25 -12.9,38.8 -6.1,23 -8.6,38.7 -17.5,62.2 -6.2,16.5 -21.3,37.5 -21.3,60.6z"/>
  <path class="fil2" d="M179.3 325.7c20.6,0 19,-24.7 30.7,-62.1 14.1,-45.4 43.1,-82.2 83.1,-106.5 32.2,-19.5 58.6,-13.5 58.6,-36.2 0,-42.2 -94.3,-2.3 -143.5,65.6 -23,31.8 -37.4,70.4 -45.6,109.6 -3.1,14.7 -0.7,29.6 16.7,29.6z"/>
  <path class="fil1" d="M879.6 153.3c0,12.1 7.9,17.2 19.4,17.2 11.9,0 53.9,-42 53.9,-53.9 0,-17.9 -14.9,-28.4 -35.9,-10 -5.6,5 -9,8.6 -14.2,13.8 -7.9,7.9 -23.2,19 -23.2,32.9z"/>
  <path class="fil1" d="M349.5 349.4c0,26.3 36.9,19.3 69,19.3 27.4,0 22.7,-36.6 6.5,-36.6 -36.4,0 -75.5,-7.3 -75.5,17.3z"/>
  <path class="fil1" d="M961.5 349.4c0,26.3 36.9,19.3 69,19.3 25.1,0 26.8,-36.6 2.1,-36.6 -38,0 -71.1,-7.1 -71.1,17.3z"/>
  <path class="fil1" d="M681.4 19.7c0,33.2 -6.8,68.9 19.4,68.9 24.3,0 17.2,-33.1 17.2,-71.1 0,-24.4 -36.6,-22.6 -36.6,2.2z"/>
  <path class="fil1" d="M446.5 114.5c0,12 16.9,24.4 24.2,31.8 7.4,7.3 19.8,24.2 31.8,24.2 7.8,0 34.8,-9.9 4.9,-39.3 -12.4,-12.3 -29.5,-34 -41.5,-34 -10.4,0 -19.4,7.2 -19.4,17.3z"/>
  <path class="fil2" d="M140.5 366.6c0,27.9 36.6,21.9 36.6,2.1 0,-25.6 -36.6,-25.8 -36.6,-2.1z"/>
 </g>
</svg>
