<?xml version="1.0" encoding="UTF-8"?>
<!DOCTYPE svg PUBLIC "-//W3C//DTD SVG 1.1//EN" "http://www.w3.org/Graphics/SVG/1.1/DTD/svg11.dtd">
<!-- Creator: CorelDRAW 2018 (64-Bit) -->
<svg xmlns="http://www.w3.org/2000/svg" xml:space="preserve" width="1152px" height="1004px" version="1.1" style="shape-rendering:geometricPrecision; text-rendering:geometricPrecision; image-rendering:optimizeQuality; fill-rule:evenodd; clip-rule:evenodd"
viewBox="0 0 54581.4 47575.1"
 xmlns:xlink="http://www.w3.org/1999/xlink">
 <defs>
  <style type="text/css">
   <![CDATA[
    .fil1 {fill:#26A2E0}
    .fil2 {fill:#FC3860}
    .fil0 {fill:white}
   ]]>
  </style>
 </defs>
 <g id="Слой_x0020_1">
  <metadata id="CorelCorpID_0Corel-Layer"/>
  <path class="fil0" d="M7844.5 19767.4c4454.1,0 4261.2,-6497.8 1,-6498.8 -4240.1,-1 -4460.4,6498.8 -1,6498.8zm43661.1 8629.3c-372.5,-314.7 -319.5,-498.4 -670.9,-903.3 -611.1,-704.4 -1811.3,-1132 -2657.4,-1619.1 -1557.3,-896.7 -1969.1,-1330.9 -3938.3,-1821.3 -1515.6,-377.5 -3157.6,-727.2 -4785.7,-990.6 -848,-137.2 -1646.3,-266.7 -2497.5,-380.6 -570.8,-76.3 -2187.4,-154.5 -2601.1,-308.2 -1.3,-17.4 -125.3,-16793.8 -4.6,-18426.7l7874 -19.4 -23.7 -3927.5 -1283.9 61.7 -13.8 2572.9 -6575.5 -0.8 -14 -2601.9 -1698.6 -6 -16 2588.4 -6578.5 -0.5 -27.4 -2597.5 -1295.6 37.3 -2.4 3319.9c-0.3,961.2 528.1,509.6 3062.1,581.4l-307.1 436.8c-77.8,136.4 -125.5,266 -127.4,473.3 -4.5,522.2 223.8,542.4 361.9,857.6 -956,155.4 -2228.5,299.3 -2228.5,1331.2l0 6067.6c0,804.7 319.5,864.6 956.5,1100 1144,423.1 2474.1,431.1 3619.1,23.3 640.8,-228.4 1011.5,-323.6 1011.5,-1123.3l0 -5470.8c0,-896.8 102.7,-1187 -621.7,-1502.7 -512.3,-223.3 -1010.5,-369.5 -1593.7,-406 210.4,-571.9 636.2,-671.3 65,-1571.7 -114,-179.8 3,64.2 -133.3,-225.9l3845.5 28.7c3.5,5718.9 110.7,12945.3 -6,18334.5 -3494.2,14.5 -5473.4,63.7 -9149.3,-310.7 -870.9,-88.6 -1712,-227.5 -2583.3,-240.5 -1124.1,-16.9 -1461.6,237.4 -2386.1,353.2 -660.8,-600.1 -1185.5,-1635.8 -1933.1,-2378.4 -3858.1,-3832.2 -9885,1415.6 -6445.3,5852.8l3110.8 4049.3c880.8,1114.1 1714.5,1463.6 1772.1,1790.5 -87.4,44.2 -9098.4,-56.3 -10057.1,92.1 -510.9,79 -1173.6,429.6 -1149.1,1241.6l-1.6 1787.1c51.7,852.7 466.7,1172.4 1085.9,1192.9 11713.8,84.6 24143.4,11 35882.3,1.8 2502.5,-1.9 6855.9,-90.7 9611.5,-12 428.8,12.2 1159.5,-567.3 1157.6,-1255.1l-8.3 -6075.4zm-47720.4 -9692.4c-72.9,1668.6 -5.8,3474.6 -9.4,5159.8 -6.2,2924.8 -138,3538.4 1652.5,5997.4 580,796.7 391.1,839.9 1619.9,831.4 1603.7,-11.2 3453.6,91.3 5022,-16.5 165.1,-1435.6 -3230.4,-5334.3 -3964.9,-6178.6 -408.7,-469.7 -797.8,-932.3 -1205.6,-1379.8 -735.9,-807.9 -1897.2,-3930.2 -3114.5,-4413.7z"/>
  <path class="fil1" d="M16302.1 31527.5c-91.2,-842 621.9,-2514.3 589.5,-3092.8 -24.2,-432.6 -201.8,-367.1 -623.6,-562.1 -1626.8,-751.5 -4906.3,-2859.6 -4233.6,-5102.8 319.4,-1065.1 1460.2,-2037 2916.9,-1726.6 747,159.2 972.6,467.8 1444.5,929.2 459.6,449.6 676.2,670.3 1314.1,1069.8 1063.1,665.8 606.1,427.3 1678.1,139.7 1764.9,-473.5 4717.6,292.5 6543.2,391.1 1596.2,86.2 3183.5,-0.6 4774.5,1.9 4195.1,1.7 10241.5,727.9 14144,1966.8 1254,398.1 2300.5,1260.5 3410,1839.8 12718.6,6639.9 -30814.3,4703.9 -31957.6,4146zm35203.5 -3130.8c-372.5,-314.7 -319.5,-498.4 -670.9,-903.3 -611.1,-704.4 -1811.3,-1132 -2657.4,-1619.1 -1557.3,-896.7 -1969.1,-1330.9 -3938.3,-1821.3 -1515.6,-377.5 -3157.6,-727.2 -4785.7,-990.6 -848,-137.2 -1646.3,-266.7 -2497.5,-380.6 -570.8,-76.3 -2187.4,-154.5 -2601.1,-308.2 -1.3,-17.4 -125.3,-16793.8 -4.6,-18426.7l7874 -19.4 -23.7 -3927.5 -1283.9 61.7 -13.8 2572.9 -6575.5 -0.8 -14 -2601.9 -1698.6 -6 -16 2588.4 -6578.5 -0.5 -27.4 -2597.5 -1295.6 37.3 -2.4 3319.9c-0.3,961.2 528.1,509.6 3062.1,581.4l-307.1 436.8c-77.8,136.4 -125.5,266 -127.4,473.3 -4.5,522.2 223.8,542.4 361.9,857.6 -956,155.4 -2228.5,299.3 -2228.5,1331.2l0 6067.6c0,804.7 319.5,864.6 956.5,1100 1144,423.1 2474.1,431.1 3619.1,23.3 640.8,-228.4 1011.5,-323.6 1011.5,-1123.3l0 -5470.8c0,-896.8 102.7,-1187 -621.7,-1502.7 -512.3,-223.3 -1010.5,-369.5 -1593.7,-406 210.4,-571.9 636.2,-671.3 65,-1571.7 -114,-179.8 3,64.2 -133.3,-225.9l3845.5 28.7c3.5,5718.9 110.7,12945.3 -6,18334.5 -3494.2,14.5 -5473.4,63.7 -9149.3,-310.7 -870.9,-88.6 -1712,-227.5 -2583.3,-240.5 -1124.1,-16.9 -1461.6,237.4 -2386.1,353.2 -660.8,-600.1 -1185.5,-1635.8 -1933.1,-2378.4 -3858.1,-3832.2 -9885,1415.6 -6445.3,5852.8l3110.8 4049.3c880.8,1114.1 1714.5,1463.6 1772.1,1790.5 -87.4,44.2 -9098.4,-56.3 -10057.1,92.1 -510.9,79 -1173.6,429.6 -1149.1,1241.6l-1.6 1787.1c51.7,852.7 466.7,1172.4 1085.9,1192.9 11713.8,84.6 24143.4,11 35882.3,1.8 2502.5,-1.9 6855.9,-90.7 9611.5,-12 428.8,12.2 1159.5,-567.3 1157.6,-1255.1l-8.3 -6075.4zm-3 8562.1l-1513.9 13.3c-15345,85 -30860.9,14.3 -46215.5,33.9l65.4 1909.9c15870.2,0.1 31808.3,-69.6 47673.1,6.2l-9.1 -1963.3zm-47717.4 -18254.5c-72.9,1668.6 -5.8,3474.6 -9.4,5159.8 -6.2,2924.8 -138,3538.4 1652.5,5997.4 580,796.7 391.1,839.9 1619.9,831.4 1603.7,-11.2 3453.6,91.3 5022,-16.5 165.1,-1435.6 -3230.4,-5334.3 -3964.9,-6178.6 -408.7,-469.7 -797.8,-932.3 -1205.6,-1379.8 -735.9,-807.9 -1897.2,-3930.2 -3114.5,-4413.7zm1348.2 4220.8c2.9,314.2 4.7,628.2 4.1,941.9 -5.7,2618.3 -191,3019.7 1391.5,5193 62.5,86 124.7,181.9 187.7,275.4 113.7,0.6 230.9,-3.5 322,-4.1 1025.7,-7.1 2063.7,33.5 3097.2,37.2 -310.4,-501.2 -662,-997.4 -827.9,-1224 -697.6,-952.8 -1455.1,-1862.3 -2230,-2752.9 -394,-453 -780.6,-912.9 -1184.8,-1356.7 -266.6,-292.6 -520.8,-690.4 -759.8,-1109.8zm16030.2 4887.5c3487.9,0 2344.1,-2018.6 1881.3,-2352.4 -905.6,-653.2 -2858,741.2 -6450.6,-1698.8 -927.5,-629.9 -1258.2,-1274 -1645.9,-1437.5 -1662.6,-701.2 -3419.8,1809.9 1348.1,4230.4 1358.2,689.5 3042.3,1258.3 4867.1,1258.3zm11443.8 19762.5l1708.2 -0.3 -4.6 -7425.8 -1703.5 26.3 -0.1 7399.8zm-24762.9 -27807.7c4454.1,0 4261.2,-6497.8 1,-6498.8 -4240.1,-1 -4460.4,6498.8 -1,6498.8zm1.2 -1324.7c2638.2,0 2524,-3848.7 0.7,-3849.3 -2511.4,-0.6 -2642,3849.3 -0.7,3849.3zm-6677.2 -9767.9l-0.1 0c-642.7,0 -1168.4,525.7 -1168.4,1168.4l0 36558.1c0,642.6 525.7,1168.3 1168.4,1168.3l0.1 0c642.7,0 1168.4,-525.7 1168.4,-1168.3l0 -36558.1c0,-642.7 -525.7,-1168.4 -1168.4,-1168.4zm52244.5 13344.4l-0.1 0c-642.6,0 -1168.3,525.7 -1168.3,1168.4l0 23213.6c0,642.7 525.7,1168.4 1168.3,1168.4l0.1 0c642.7,0 1168.4,-525.7 1168.4,-1168.4l0 -23213.6c0,-642.7 -525.7,-1168.4 -1168.4,-1168.4z"/>
  <path class="fil0" d="M45472 21858.5c4331.2,0 7854.9,-3523.7 7854.9,-7854.8 0,-4331.1 -3523.7,-7854.9 -7854.9,-7854.9 -4331,0 -7854.7,3523.6 -7854.7,7854.9 0,4331.2 3523.6,7854.8 7854.7,7854.8z"/>
  <path class="fil1" d="M45472 21858.5c4331.2,0 7854.9,-3523.7 7854.9,-7854.8 0,-4331.1 -3523.7,-7854.9 -7854.9,-7854.9 -4331,0 -7854.7,3523.6 -7854.7,7854.9 0,4331.2 3523.6,7854.8 7854.7,7854.8zm0 -14082.1c3434,0 6227.6,2793.7 6227.6,6227.6 0,3433.9 -2793.6,6227.6 -6227.6,6227.6 -3433.8,0 -6227.4,-2793.8 -6227.4,-6227.6 0,-3433.9 2793.6,-6227.6 6227.4,-6227.6z"/>
  <path class="fil2" d="M42044.5 13480.3l1682.6 0c604.3,0 1096,-491.7 1096,-1095.9l0 -1682.6 1250.6 0 0 1682.6c0,604.3 491.6,1095.9 1096,1095.9l1682.6 0 0 1250.6 -1682.6 0.1c-604.3,0 -1096,491.6 -1096,1095.9l0 1682.6 -1250.6 -0.1 0 -1682.6c0,-604.2 -491.6,-1095.9 -1096,-1095.9l-1682.6 0.1 0 -1250.7 0 0zm1151.2 2878l0 1608.9c0,644.7 524.7,1169.3 1169.4,1169.3l2166.4 0.1c644.7,0 1169.3,-524.6 1169.3,-1169.3l0 -1609.1 1609.2 -0.1c644.7,0 1169.3,-524.7 1169.3,-1169.3l0 -2166.5c0,-644.7 -524.7,-1169.3 -1169.3,-1169.3l-1609.1 -0.1 0 -1609.1c0,-644.7 -524.7,-1169.3 -1169.3,-1169.3l-2166.5 0c-644.8,0 -1169.4,524.5 -1169.4,1169.3l0 1609.2 -1609.1 0.1c-644.7,0 -1169.3,524.5 -1169.3,1169.3l0 2166.6c0,644.7 524.6,1169.3 1169.3,1169.3l1609.1 0z"/>
 </g>
</svg>
