<svg width="30" height="30" viewBox="0 0 30 30" fill="none" xmlns="http://www.w3.org/2000/svg">
<g clip-path="url(#clip0_2_2)">
<path d="M14.9999 0C6.72902 0 0.000427246 6.72896 0.000427246 14.9998C0.000427246 23.271 6.72902 30 14.9999 30C23.2707 30 29.9997 23.271 29.9997 14.9998C29.9997 6.72896 23.2704 0 14.9999 0ZM14.9999 27.8314C7.92503 27.8314 2.16871 22.075 2.16871 14.9998C2.16871 7.9246 7.92467 2.16865 14.9999 2.16865C22.0751 2.16865 27.8311 7.9246 27.8311 14.9998C27.8311 22.075 22.0751 27.8314 14.9999 27.8314Z" fill="#389EFC"/>
<path d="M19.34 16.3805C19.3342 16.3805 19.3292 16.3805 19.3234 16.3805L16.0841 16.429V7.95171C16.0841 7.3528 15.5987 6.86739 14.9998 6.86739C14.4009 6.86739 13.9155 7.3528 13.9155 7.95171V17.5299C13.9155 17.5321 13.9162 17.5342 13.9162 17.5364C13.9162 17.54 13.9155 17.5433 13.9155 17.5462C13.9162 17.5903 13.9245 17.6318 13.9303 17.6741C13.9339 17.7005 13.9343 17.7276 13.9394 17.7536C13.9491 17.8003 13.9654 17.8436 13.9809 17.8874C13.9889 17.9101 13.9939 17.934 14.0033 17.9557C14.0221 18.0001 14.0474 18.0406 14.0716 18.0822C14.0828 18.1006 14.0912 18.1209 14.1031 18.1389C14.1306 18.1791 14.1634 18.2148 14.196 18.2513C14.2097 18.2665 14.2209 18.2839 14.2354 18.2987C14.2704 18.3334 14.3098 18.3627 14.3492 18.3927C14.3651 18.4046 14.3792 18.4191 14.3955 18.4303C14.4381 18.4592 14.4848 18.4819 14.5314 18.5044C14.5477 18.5119 14.5621 18.5228 14.5787 18.5297C14.633 18.5524 14.6908 18.5683 14.7493 18.5824C14.7602 18.585 14.7703 18.59 14.7815 18.5922C14.8516 18.6063 14.9243 18.6142 14.9987 18.6142C15.0042 18.6142 15.0099 18.6142 15.0154 18.6142L19.3556 18.5492C19.9541 18.5401 20.4323 18.0471 20.4236 17.4486C20.4153 16.8555 19.9313 16.3805 19.34 16.3805Z" fill="#389EFC"/>
</g>
<defs>
<clipPath id="clip0_2_2">
<rect width="30" height="30" fill="white"/>
</clipPath>
</defs>
</svg>
