<?xml version="1.0" encoding="iso-8859-1"?>
<!-- Generator: Adobe Illustrator 19.0.0, SVG Export Plug-In . SVG Version: 6.00 Build 0)  -->
<svg version="1.1" id="Capa_1" xmlns="http://www.w3.org/2000/svg" xmlns:xlink="http://www.w3.org/1999/xlink" x="0px" y="0px"
	 viewBox="0 0 480 480" style="enable-background:new 0 0 480 480;" xml:space="preserve">
<g>
	<g>
		<path d="M439.584,305.45l-16-48c-1.088-3.266-4.142-5.469-7.584-5.472h-40c-4.418,0-8,3.582-8,8v40
			c-0.001,3.98,2.924,7.355,6.864,7.92l56,8c0.376,0.054,0.756,0.081,1.136,0.08c4.418-0.003,7.997-3.588,7.994-8.006
			C439.993,307.115,439.855,306.263,439.584,305.45z M384,293.042v-25.064h26.232l10.088,30.248L384,293.042z"/>
	</g>
</g>
<g>
	<g>
		<path d="M464,147.978c3.442-0.003,6.496-2.206,7.584-5.472l8-24c0.274-0.815,0.414-1.668,0.416-2.528v-32c0-4.418-3.582-8-8-8
			H113.504c-13.235-22.944-42.564-30.815-65.508-17.58C33.137,66.969,23.987,82.824,24,99.978v184H8c-4.418,0-8,3.582-8,8v96
			c0,4.418,3.582,8,8,8h8v16H8v16h32v-16h-8v-16h32.8c4.418,21.645,25.547,35.61,47.192,31.192
			c21.645-4.418,35.61-25.547,31.192-47.192c-4.418-21.645-25.547-35.61-47.192-31.192c-15.709,3.207-27.985,15.483-31.192,31.192
			H48v-48h172.688L240,351.29v28.688h-16.8c-4.418-21.645-25.547-35.61-47.192-31.192c-21.645,4.418-35.61,25.547-31.192,47.192
			c4.418,21.645,25.547,35.61,47.192,31.192c15.709-3.207,27.985-15.483,31.192-31.192H320v16h-8v16h32v-16h-8v-16h32.8
			c4.396,21.65,25.51,35.636,47.16,31.24c15.741-3.196,28.044-15.499,31.24-31.24H472c4.418,0,8-3.582,8-8v-80
			c0-1.019-0.193-2.029-0.568-2.976l-32-80c-1.217-3.037-4.16-5.026-7.432-5.024h-96c-4.418,0-8,3.582-8,8v56H200V234.89
			c-0.031-25.896-21.016-46.881-46.912-46.912H120V177.65l153.36-53.672h144.88l6.176,18.528c1.088,3.266,4.142,5.469,7.584,5.472h8
			v16c0,4.418,3.582,8,8,8s8,3.582,8,8s-3.582,8-8,8s-8-3.582-8-8h-16c0.003,13.255,10.75,23.998,24.005,23.995
			c13.255-0.003,23.998-10.75,23.995-24.005c-0.002-10.169-6.412-19.233-16-22.623v-9.368H464z M104,363.978
			c13.255,0,24,10.745,24,24s-10.745,24-24,24s-24-10.745-24-24S90.745,363.978,104,363.978z M184,411.978
			c-13.255,0-24-10.745-24-24s10.745-24,24-24s24,10.745,24,24S197.255,411.978,184,411.978z M408,411.978
			c-13.255,0-24-10.745-24-24s10.745-24,24-24s24,10.745,24,24S421.255,411.978,408,411.978z M352,235.978h82.584L464,309.514
			v30.464h-16v16h16v24h-16.8c-4.396-21.65-25.51-35.636-47.16-31.24c-15.741,3.196-28.044,15.499-31.24,31.24H352V235.978z
			 M40,99.978c0-17.673,14.327-32,32-32s32,14.327,32,32v184H40V99.978z M32,379.978H16v-48h16V379.978z M336,379.978h-16v-48h16
			V379.978z M336,299.978v16h-24c-4.418,0-8,3.582-8,8v56h-48v-32c0-2.122-0.844-4.156-2.344-5.656l-24-24
			c-1.5-1.5-3.534-2.344-5.656-2.344H16v-16H336z M152,203.978h1.088c17.065,0.018,30.894,13.847,30.912,30.912v9.088h-32V203.978z
			 M136,203.978v48c0,4.418,3.582,8,8,8h40v24h-64v-80H136z M120,160.706v-36.728h104.928L120,160.706z M368,107.978H120v-16h248
			V107.978z M416,107.978h-32v-16h32V107.978z M437.768,131.978L432,114.682V91.978h32v22.704l-5.768,17.296H437.768z"/>
	</g>
</g>
<g>
</g>
<g>
</g>
<g>
</g>
<g>
</g>
<g>
</g>
<g>
</g>
<g>
</g>
<g>
</g>
<g>
</g>
<g>
</g>
<g>
</g>
<g>
</g>
<g>
</g>
<g>
</g>
<g>
</g>
</svg>
