<svg xmlns="http://www.w3.org/2000/svg" width="61.371" height="61.371" viewBox="0 0 1624 1624" shape-rendering="geometricPrecision" text-rendering="geometricPrecision" image-rendering="optimizeQuality" fill-rule="evenodd" clip-rule="evenodd"><defs><style>.str0,.str1{stroke:#000;stroke-width:70}.str0{stroke-linecap:round;stroke-linejoin:round}.fil1{fill:none}.fil3{fill:#000}.fil0{fill:#fff400}.fil2{fill:#fff}</style></defs><g id="Слой_x0020_1"><circle class="fil0" cx="812" cy="812" r="812"/><path class="fil1 str0" d="M831 840h560c69 0 65-102 51-145s-69-132-231-133c-75-151-219-245-376-245-156 0-300 94-376 245-162 1-217 90-231 133s-18 145 51 145h561m342 308c-90 96-215 150-347 150-131 0-257-54-346-150"/><circle class="fil2 str1" cx="1087" cy="841" r="129"/><circle class="fil3" cx="1087" cy="841" r="40"/><circle class="fil2 str1" cx="583" cy="841" r="129"/><circle class="fil3" transform="rotate(-.792 60512.866 -41331.034) scale(.73325)" r="55"/></g></svg>