<svg width="23" height="23" viewBox="0 0 23 23" fill="none" xmlns="http://www.w3.org/2000/svg">
<path fill-rule="evenodd" clip-rule="evenodd" d="M2.7017 0.0776367C1.22793 0.0776367 0.0332031 1.27237 0.0332031 2.74614V19.6466C0.0332031 21.1204 1.22793 22.3151 2.70171 22.3151H19.6022C21.076 22.3151 22.2707 21.1204 22.2707 19.6466V2.74614C22.2707 1.27236 21.076 0.0776367 19.6022 0.0776367H2.7017ZM6.60239 10.2825C6.13725 9.81715 5.38296 9.81702 4.91765 10.2822C4.45233 10.7473 4.45219 11.5016 4.91734 11.9669L7.88126 14.9319C9.05249 16.1036 10.9821 15.9971 12.0173 14.7037L17.4082 7.96842C17.8193 7.45476 17.7362 6.70507 17.2225 6.29394C16.7089 5.88281 15.9592 5.96593 15.548 6.47959L10.1572 13.2149C10.0093 13.3996 9.73363 13.4149 9.56631 13.2475L6.60239 10.2825Z" fill="white"/>
</svg>
