<svg width="40" height="41" viewBox="0 0 40 41" fill="none" xmlns="http://www.w3.org/2000/svg">
<g clip-path="url(#clip0_1_685)">
<rect x="-0.00390625" y="0.236328" width="40" height="40" rx="4" fill="white"/>
<path d="M36.4609 0.236328H3.53131C1.57886 0.236328 -0.00390625 1.8191 -0.00390625 3.77154V36.6996C-0.00390625 38.6521 1.57886 40.2348 3.53131 40.2348H36.4609C38.4133 40.2348 39.9961 38.6521 39.9961 36.6996V3.77154C39.9961 1.8191 38.4133 0.236328 36.4609 0.236328Z" fill="#CCCDCE"/>
<path d="M29.1285 17.2205V31.8915C29.1285 32.1633 28.908 32.3839 28.6362 32.3839H11.3634C11.0915 32.3839 10.8711 32.1633 10.8711 31.8915V17.2205C10.8711 12.1788 14.9581 8.0918 19.9999 8.0918C25.0414 8.0918 29.1285 12.1788 29.1285 17.2205Z" fill="url(#paint0_linear_1_685)" stroke="black" stroke-width="0.590801"/>
</g>
<defs>
<linearGradient id="paint0_linear_1_685" x1="13.7326" y1="10.835" x2="27.8404" y2="32.5343" gradientUnits="userSpaceOnUse">
<stop/>
<stop offset="1" stop-opacity="0"/>
</linearGradient>
<clipPath id="clip0_1_685">
<rect x="-0.00390625" y="0.236328" width="40" height="40" rx="4" fill="white"/>
</clipPath>
</defs>
</svg>
