<svg width="23" height="23" viewBox="0 0 23 23" fill="none" xmlns="http://www.w3.org/2000/svg">
<path fill-rule="evenodd" clip-rule="evenodd" d="M3.36113 0.0755615C1.88736 0.0755615 0.692627 1.27029 0.692627 2.74406V19.6446C0.692627 21.1183 1.88736 22.3131 3.36113 22.3131H20.2616C21.7354 22.3131 22.9301 21.1183 22.9301 19.6446V2.74406C22.9301 1.27029 21.7354 0.0755615 20.2616 0.0755615H3.36113ZM16.5369 11.1973C16.5369 13.8072 14.4212 15.9229 11.8113 15.9229C9.20143 15.9229 7.08569 13.8072 7.08569 11.1973C7.08569 8.58739 9.20143 6.47166 11.8113 6.47166C14.4212 6.47166 16.5369 8.58739 16.5369 11.1973ZM18.9195 11.1973C18.9195 15.123 15.7371 18.3055 11.8113 18.3055C7.88556 18.3055 4.70311 15.123 4.70311 11.1973C4.70311 7.27152 7.88556 4.08907 11.8113 4.08907C15.7371 4.08907 18.9195 7.27152 18.9195 11.1973Z" fill="white"/>
</svg>
