<svg width="40" height="41" viewBox="0 0 40 41" fill="none" xmlns="http://www.w3.org/2000/svg">
<g clip-path="url(#clip0_1_688)">
<rect x="-0.00390625" y="0.236328" width="40" height="40" rx="4" fill="#15171A"/>
<path d="M36.3598 0.236328H3.63246C1.62337 0.236328 -0.00390625 1.8636 -0.00390625 3.87269V36.6C-0.00390625 38.609 1.62337 40.2363 3.63246 40.2363H36.3598C38.3688 40.2363 39.9961 38.609 39.9961 36.6V3.87269C39.9961 1.8636 38.3688 0.236328 36.3598 0.236328ZM12.6397 32.9637H7.27609V15.7054H12.6397V32.9637ZM9.90336 13.2381C8.17428 13.2381 6.77609 11.8363 6.77609 10.1109C6.77609 8.38541 8.17609 6.98541 9.90336 6.98541C11.627 6.98541 13.0288 8.38724 13.0288 10.1109C13.0288 11.8363 11.627 13.2381 9.90336 13.2381ZM32.7306 32.9637H27.3706V24.5708C27.3706 22.569 27.3343 19.9945 24.5834 19.9945C21.7924 19.9945 21.3634 22.1745 21.3634 24.4255V32.9637H16.0034V15.7054H21.1488V18.0637H21.2216C21.9379 16.7072 23.6869 15.2763 26.2961 15.2763C31.7269 15.2763 32.7306 18.8508 32.7306 23.4982V32.9637Z" fill="#CCCDCE"/>
</g>
<defs>
<clipPath id="clip0_1_688">
<rect x="-0.00390625" y="0.236328" width="40" height="40" rx="4" fill="white"/>
</clipPath>
</defs>
</svg>
