<svg width="112" height="40" viewBox="0 0 112 40" fill="none" xmlns="http://www.w3.org/2000/svg">
<g clip-path="url(#clip0_122_19)">
<path d="M29.5114 30.3272L29.2387 30.5206L17.5141 39.0687L16.852 39.5328V31.7583L17.0078 31.6423L21.5262 28.3545L14.9823 14.8942L8.4383 28.3545L12.9567 31.6423L13.1126 31.7583V39.4942L12.4504 39.03L0.72579 30.4819L0.453125 30.2885L0.608933 29.9791L14.5927 1.24038L14.9433 0.466797L15.3328 1.24038L29.3556 30.0177L29.5114 30.3272Z" fill="white"/>
<path d="M43.1454 30.2889H39.3281L46.2616 10.7559H50.6632L57.5967 30.2889H53.7793L48.5208 14.7785H48.365L43.1454 30.2889ZM43.2623 22.6304H53.6235V25.454H43.2623V22.6304Z" fill="white"/>
<path d="M66.0847 30.5597C64.7513 30.5975 63.4323 30.2768 62.2674 29.6314C61.1966 29.0259 60.3397 28.1075 59.8134 27.0012C59.2119 25.76 58.9181 24.3941 58.9565 23.0172C58.918 21.6528 59.212 20.2993 59.8134 19.0719C60.3505 17.9628 61.2038 17.0348 62.2674 16.4031C63.3684 15.7368 64.64 15.401 65.9289 15.4361C66.8034 15.4389 67.6716 15.5826 68.4997 15.8616C69.3016 16.1401 70.0327 16.5888 70.6421 17.1767C71.3059 17.8291 71.812 18.6226 72.1223 19.4974C72.5019 20.5652 72.6866 21.6916 72.6676 22.8238V23.8682H60.5925V21.5474H69.3567C69.3581 20.929 69.2113 20.3191 68.9282 19.7682C68.6502 19.2416 68.2291 18.8031 67.7127 18.5022C67.1963 18.2014 66.6053 18.0504 66.0068 18.0663C65.3689 18.0537 64.74 18.2169 64.1899 18.5378C63.6398 18.8587 63.1901 19.3248 62.8906 19.8842C62.5949 20.446 62.4348 21.0683 62.4232 21.7021V23.7134C62.4036 24.4745 62.5637 25.2296 62.8906 25.9182C63.1709 26.5109 63.635 26.999 64.215 27.3106C64.8247 27.6356 65.5098 27.7957 66.2016 27.7748C66.663 27.7758 67.1222 27.7107 67.5649 27.5814C67.9668 27.4562 68.3292 27.2297 68.6166 26.9238C68.9373 26.6491 69.1679 26.2854 69.2788 25.8795L72.5118 26.2276C72.3221 27.0624 71.9198 27.8349 71.3432 28.471C70.7384 29.1195 69.9923 29.6223 69.1619 29.9408C68.2025 30.3936 67.146 30.6061 66.0847 30.5597Z" fill="white"/>
<path d="M82.0168 36.0904C80.9172 36.1213 79.8212 35.9509 78.7838 35.5876C77.9852 35.3023 77.2554 34.8543 76.6414 34.2725C76.1084 33.7619 75.719 33.1219 75.5118 32.4159L78.628 31.681C78.7965 31.991 79.0061 32.2772 79.2512 32.5319C79.5647 32.8334 79.9355 33.0701 80.3419 33.2281C80.903 33.4304 81.4983 33.5223 82.0947 33.4989C82.9661 33.5287 83.8247 33.285 84.5487 32.8027C85.2109 32.3385 85.5225 31.5649 85.5225 30.4819V27.697H85.3667C85.16 28.0929 84.8977 28.4575 84.5876 28.78C84.2134 29.1921 83.7462 29.5102 83.2243 29.7083C82.5622 29.9954 81.8426 30.1277 81.1209 30.0951C80.0457 30.1008 78.9867 29.8346 78.0437 29.3215C77.0992 28.7475 76.3417 27.9147 75.8624 26.9234C75.2765 25.6783 74.9961 24.313 75.0444 22.9395C74.997 21.5411 75.277 20.1508 75.8624 18.8781C76.3284 17.8477 77.0863 16.9741 78.0437 16.364C78.9655 15.792 80.0341 15.4965 81.1209 15.513C81.8579 15.4961 82.5895 15.6414 83.2633 15.9385C83.7818 16.1776 84.2357 16.5356 84.5876 16.9829C84.8925 17.3156 85.1423 17.6942 85.3277 18.1046H85.5225V15.6678H88.9503V30.5593C88.9868 31.6586 88.6733 32.7414 88.0544 33.6536C87.4247 34.4856 86.5753 35.1282 85.6004 35.5102C84.4443 35.8906 83.2347 36.0864 82.0168 36.0904ZM82.0168 27.3489C82.6814 27.3648 83.3347 27.1756 83.8865 26.8074C84.4262 26.4225 84.8341 25.8825 85.0551 25.2602C85.3388 24.4931 85.471 23.6789 85.4446 22.8621C85.4674 22.0329 85.3354 21.2067 85.0551 20.4253C84.8244 19.7869 84.4198 19.2245 83.8865 18.8008C83.3164 18.4161 82.6415 18.2137 81.9523 18.2206C81.2631 18.2276 80.5924 18.4435 80.0303 18.8395C79.496 19.2783 79.092 19.8533 78.8617 20.5027C78.5844 21.258 78.4523 22.0584 78.4722 22.8621C78.4523 23.6658 78.5844 24.4662 78.8617 25.2215C79.0934 25.8381 79.4991 26.3752 80.0303 26.7687C80.6102 27.1737 81.3084 27.3776 82.0168 27.3489Z" fill="white"/>
<path d="M92.4917 30.2895V15.63H95.9584V30.2508H92.4917V30.2895ZM94.2445 13.58C93.7247 13.5834 93.2232 13.3898 92.8422 13.0385C92.6586 12.8713 92.5119 12.6681 92.4114 12.4417C92.3108 12.2154 92.2586 11.9708 92.2579 11.7234C92.2549 11.4755 92.3055 11.2298 92.4063 11.0029C92.5071 10.776 92.6557 10.5733 92.8422 10.4083C93.0257 10.2269 93.245 10.0852 93.4863 9.992C93.7277 9.89881 93.9858 9.85619 94.2445 9.86683C94.7643 9.86343 95.2658 10.0571 95.6468 10.4083C95.831 10.5751 95.9782 10.7782 96.0789 11.0046C96.1797 11.2311 96.2317 11.4759 96.2317 11.7234C96.2317 11.971 96.1797 12.2158 96.0789 12.4423C95.9782 12.6687 95.831 12.8718 95.6468 13.0385C95.2658 13.3898 94.7643 13.5834 94.2445 13.58Z" fill="white"/>
<path d="M111.192 19.4971L108.037 19.8452C107.952 19.5168 107.792 19.2123 107.569 18.9556C107.331 18.6652 107.023 18.4391 106.673 18.2981C106.241 18.119 105.778 18.027 105.31 18.0273C104.668 18.0052 104.032 18.1663 103.479 18.4915C103.261 18.6056 103.079 18.7786 102.955 18.9907C102.831 19.2028 102.769 19.4454 102.778 19.6905C102.772 19.8882 102.811 20.0847 102.892 20.2654C102.973 20.4461 103.094 20.6065 103.245 20.7348C103.717 21.0785 104.265 21.3041 104.842 21.3924L107.374 21.9339C108.777 22.2433 109.789 22.7075 110.491 23.365C110.832 23.697 111.101 24.0946 111.282 24.5336C111.463 24.9726 111.551 25.4437 111.542 25.9179C111.557 26.7989 111.268 27.6586 110.724 28.3547C110.14 29.0797 109.374 29.6399 108.504 29.9792C107.463 30.3855 106.351 30.5827 105.232 30.5594C103.44 30.5594 101.96 30.1726 100.869 29.4377C100.338 29.0714 99.8877 28.6011 99.546 28.0557C99.2044 27.5102 98.9787 26.9012 98.8828 26.266L102.272 25.9565C102.389 26.565 102.738 27.1052 103.245 27.465C103.826 27.8304 104.507 28.0063 105.193 27.9679C105.891 28.0059 106.585 27.8304 107.18 27.465C107.401 27.3411 107.586 27.1616 107.716 26.9444C107.846 26.7272 107.916 26.4799 107.92 26.2273C107.927 26.0256 107.884 25.8252 107.796 25.6433C107.708 25.4614 107.576 25.3035 107.413 25.183C106.975 24.8657 106.468 24.6539 105.933 24.5641L103.401 24.0226C101.999 23.7132 100.947 23.249 100.246 22.5528C99.5743 21.8419 99.2105 20.8973 99.2334 19.9226C99.2092 19.0763 99.4696 18.2461 99.9735 17.5632C100.518 16.8647 101.245 16.3293 102.077 16.016C103.067 15.6258 104.128 15.4414 105.193 15.4745C106.907 15.4745 108.27 15.8226 109.283 16.5575C109.785 16.894 110.212 17.328 110.541 17.8332C110.869 18.3384 111.09 18.9045 111.192 19.4971Z" fill="white"/>
</g>
<defs>
<clipPath id="clip0_122_19">
<rect width="112" height="40" fill="white"/>
</clipPath>
</defs>
</svg>
