<svg width="55" height="20" viewBox="0 0 55 20" fill="none" xmlns="http://www.w3.org/2000/svg">
<path d="M8.96404 19.2085L14.6281 15.0501L7.87592 1.08594L1.12378 15.0501L6.7878 19.2085V15.9246L4.46929 14.2223L7.87645 7.17668L11.2836 14.2223L8.9651 15.9246V19.2085H8.96404Z" fill="url(#paint0_linear_1_398)"/>
<path d="M7.87525 1.08557L14.6274 15.0497L8.96337 19.2081V15.9243L11.2824 14.222L7.87525 7.17632L4.46809 14.222L6.7866 15.9243V19.2081L1.1231 15.0497L7.87525 1.08557ZM7.87525 0.632812L7.69767 1.00048L0.945526 14.9646L0.87439 15.1117L1.00612 15.2084L6.67015 19.3667L6.9842 19.5973V19.2081V15.9243V15.825L6.90411 15.7662L4.71733 14.1605L7.87577 7.62908L11.0342 14.1605L8.84744 15.7662L8.76735 15.825V15.9243V19.2081V19.5973L9.0814 19.3667L14.7454 15.2084L14.8772 15.1117L14.806 14.9646L8.05282 0.999959L7.87525 0.632812Z" fill="url(#paint1_linear_1_398)"/>
<path d="M21.4697 15.1098H19.6362L22.9744 5.62779H25.0949L28.4376 15.1098H26.6042L24.0717 7.57234H23.9976L21.4697 15.1098ZM21.5299 11.392H26.5301V12.7717H21.5299V11.392Z" fill="#EEF7FF"/>
<path d="M32.5443 15.2487C31.8313 15.2487 31.2156 15.1005 30.697 14.8042C30.1816 14.5048 29.7849 14.082 29.5071 13.5356C29.2293 12.9862 29.0905 12.3396 29.0905 11.5957C29.0905 10.8642 29.2293 10.2222 29.5071 9.66968C29.788 9.11409 30.18 8.68197 30.6831 8.37331C31.1862 8.06157 31.7773 7.9057 32.4564 7.9057C32.8947 7.9057 33.3083 7.97669 33.6972 8.11867C34.0892 8.25757 34.4349 8.47363 34.7343 8.76685C35.0368 9.06008 35.2744 9.43356 35.4473 9.88729C35.6201 10.3379 35.7066 10.875 35.7066 11.4985V12.0124H29.8775V10.8827H34.1C34.0969 10.5617 34.0274 10.2762 33.8916 10.0262C33.7558 9.77308 33.566 9.574 33.3222 9.42893C33.0814 9.28386 32.8005 9.21132 32.4795 9.21132C32.1369 9.21132 31.836 9.29466 31.5767 9.46134C31.3174 9.62492 31.1153 9.84099 30.9702 10.1095C30.8282 10.375 30.7557 10.6666 30.7526 10.9846V11.9707C30.7526 12.3843 30.8282 12.7393 30.9794 13.0356C31.1307 13.3288 31.3421 13.5542 31.6137 13.7116C31.8854 13.8659 32.2033 13.9431 32.5675 13.9431C32.8113 13.9431 33.032 13.9091 33.2296 13.8412C33.4271 13.7702 33.5984 13.6668 33.7435 13.531C33.8886 13.3952 33.9981 13.227 34.0722 13.0263L35.6371 13.2023C35.5383 13.6159 35.3501 13.977 35.0723 14.2857C34.7976 14.5912 34.4457 14.8289 34.0166 14.9987C33.5876 15.1654 33.0968 15.2487 32.5443 15.2487Z" fill="#EEF7FF"/>
<path d="M40.2172 17.9248C39.6153 17.9248 39.0983 17.843 38.6662 17.6794C38.2341 17.5189 37.8868 17.3028 37.6245 17.0312C37.3621 16.7596 37.18 16.4586 37.0782 16.1284L38.5875 15.7626C38.6554 15.9015 38.7542 16.0389 38.8838 16.1747C39.0134 16.3136 39.1878 16.4278 39.407 16.5173C39.6292 16.6099 39.9086 16.6562 40.245 16.6562C40.7203 16.6562 41.1139 16.5404 41.4256 16.3089C41.7374 16.0805 41.8932 15.704 41.8932 15.1792V13.8319H41.8099C41.7235 14.0048 41.5969 14.1823 41.4302 14.3644C41.2667 14.5465 41.0491 14.6993 40.7774 14.8227C40.5089 14.9462 40.1709 15.0079 39.7635 15.0079C39.2172 15.0079 38.7218 14.8798 38.2773 14.6237C37.8359 14.3644 37.484 13.9786 37.2217 13.4662C36.9624 12.9507 36.8328 12.3056 36.8328 11.5309C36.8328 10.75 36.9624 10.091 37.2217 9.55393C37.484 9.01378 37.8375 8.60481 38.2819 8.32701C38.7264 8.04613 39.2218 7.9057 39.7681 7.9057C40.1848 7.9057 40.5274 7.97669 40.7959 8.11867C41.0676 8.25757 41.2836 8.42579 41.4441 8.62333C41.6046 8.81778 41.7266 9.00143 41.8099 9.17428H41.9025V7.99829H43.5554V15.2255C43.5554 15.8336 43.4103 16.3367 43.1202 16.7349C42.83 17.1331 42.4334 17.4309 41.9303 17.6285C41.4272 17.826 40.8561 17.9248 40.2172 17.9248ZM40.2311 13.6931C40.5861 13.6931 40.8885 13.6066 41.1386 13.4338C41.3886 13.2609 41.5784 13.0125 41.708 12.6884C41.8377 12.3643 41.9025 11.9754 41.9025 11.5216C41.9025 11.0741 41.8377 10.6821 41.708 10.3456C41.5815 10.0092 41.3932 9.74839 41.1432 9.56319C40.8963 9.37491 40.5922 9.28077 40.2311 9.28077C39.8576 9.28077 39.5459 9.378 39.2959 9.57245C39.0459 9.76691 38.8576 10.0339 38.731 10.3734C38.6045 10.7099 38.5412 11.0926 38.5412 11.5216C38.5412 11.9568 38.6045 12.338 38.731 12.6652C38.8607 12.9893 39.0505 13.2424 39.3005 13.4245C39.5536 13.6035 39.8638 13.6931 40.2311 13.6931Z" fill="#EEF7FF"/>
<path d="M45.273 15.1098V7.99829H46.9491V15.1098H45.273ZM46.1157 6.98898C45.8502 6.98898 45.6218 6.90101 45.4305 6.72507C45.2391 6.54605 45.1434 6.33153 45.1434 6.08152C45.1434 5.82842 45.2391 5.6139 45.4305 5.43797C45.6218 5.25894 45.8502 5.16943 46.1157 5.16943C46.3842 5.16943 46.6126 5.25894 46.8009 5.43797C46.9923 5.6139 47.088 5.82842 47.088 6.08152C47.088 6.33153 46.9923 6.54605 46.8009 6.72507C46.6126 6.90101 46.3842 6.98898 46.1157 6.98898Z" fill="#EEF7FF"/>
<path d="M54.2932 9.87803L52.7654 10.0447C52.7221 9.89037 52.6465 9.7453 52.5385 9.60949C52.4335 9.47368 52.2916 9.36411 52.1125 9.28077C51.9335 9.19743 51.7144 9.15576 51.4551 9.15576C51.1063 9.15576 50.8131 9.23139 50.5754 9.38263C50.3408 9.53387 50.2251 9.72987 50.2282 9.97062C50.2251 10.1774 50.3007 10.3456 50.455 10.4753C50.6125 10.6049 50.8717 10.7114 51.2329 10.7947L52.4459 11.054C53.1188 11.1991 53.6188 11.429 53.946 11.7439C54.2762 12.0587 54.4429 12.4708 54.446 12.98C54.4429 13.4276 54.3117 13.8227 54.0525 14.1653C53.7963 14.5048 53.4398 14.7703 52.983 14.9616C52.5261 15.153 52.0014 15.2487 51.4088 15.2487C50.5384 15.2487 49.8377 15.0666 49.3068 14.7024C48.7759 14.3351 48.4596 13.8242 48.3577 13.1699L49.9921 13.0125C50.0661 13.3335 50.2235 13.5758 50.4643 13.7393C50.7051 13.9029 51.0183 13.9847 51.4042 13.9847C51.8023 13.9847 52.1218 13.9029 52.3626 13.7393C52.6064 13.5758 52.7283 13.3736 52.7283 13.1328C52.7283 12.9291 52.6496 12.7609 52.4922 12.6282C52.3379 12.4955 52.0971 12.3936 51.7699 12.3226L50.5569 12.068C49.8748 11.926 49.3701 11.6868 49.0429 11.3503C48.7158 11.0108 48.5537 10.5818 48.5568 10.0632C48.5537 9.62493 48.6725 9.24527 48.9133 8.92427C49.1571 8.60018 49.4951 8.35016 49.9272 8.17423C50.3624 7.99521 50.864 7.9057 51.4319 7.9057C52.2653 7.9057 52.9212 8.08317 53.3996 8.43813C53.8812 8.79309 54.179 9.27305 54.2932 9.87803Z" fill="#EEF7FF"/>
<defs>
<linearGradient id="paint0_linear_1_398" x1="7.87594" y1="1.89997" x2="7.87594" y2="19.4395" gradientUnits="userSpaceOnUse">
<stop stop-color="#B8FBF7"/>
<stop offset="0.38" stop-color="#8BB0F1"/>
<stop offset="0.6468" stop-color="#C9B3F5"/>
<stop offset="0.7569" stop-color="#D8BDE0"/>
<stop offset="0.9062" stop-color="#E8C7C9"/>
<stop offset="1" stop-color="#EECBC0"/>
</linearGradient>
<linearGradient id="paint1_linear_1_398" x1="7.87526" y1="1.2661" x2="7.87526" y2="19.4349" gradientUnits="userSpaceOnUse">
<stop offset="0.00680159" stop-color="#10C1A7"/>
<stop offset="0.38" stop-color="#2378CC"/>
<stop offset="0.6838" stop-color="#5D42D1"/>
<stop offset="1" stop-color="#D35948"/>
</linearGradient>
</defs>
</svg>
