<svg width="23" height="23" viewBox="0 0 23 23" fill="none" xmlns="http://www.w3.org/2000/svg">
<path fill-rule="evenodd" clip-rule="evenodd" d="M3.04197 0.0776367C1.5682 0.0776367 0.373474 1.27237 0.373474 2.74614V19.6466C0.373474 21.1204 1.5682 22.3151 3.04198 22.3151H19.9425C21.4162 22.3151 22.611 21.1204 22.611 19.6466V2.74614C22.611 1.27236 21.4162 0.0776367 19.9425 0.0776367H3.04197ZM5.13861 10.0055C4.48068 10.0055 3.94732 10.5388 3.94732 11.1968C3.94732 11.8547 4.48068 12.3881 5.13861 12.3881H17.8458C18.5037 12.3881 19.037 11.8547 19.037 11.1968C19.037 10.5388 18.5037 10.0055 17.8458 10.0055H5.13861Z" fill="white"/>
</svg>
