<svg width="200" height="19" viewBox="0 0 200 19" fill="none" xmlns="http://www.w3.org/2000/svg">
<g clip-path="url(#clip0_1_229)">
<g clip-path="url(#clip1_1_229)">
<g clip-path="url(#clip2_1_229)">
<g clip-path="url(#clip3_1_229)">
<mask id="mask0_1_229" style="mask-type:luminance" maskUnits="userSpaceOnUse" x="25" y="0" width="150" height="19">
<path d="M174.954 0.791016H25.0391V18.481H174.954V0.791016Z" fill="white"/>
</mask>
<g mask="url(#mask0_1_229)">
<path d="M37.6455 3.00982H27.5428C27.4532 3.00982 27.4117 2.90039 27.4768 2.84C28.8222 1.59839 30.6195 0.839844 32.5942 0.839844C34.5689 0.839844 36.3662 1.59839 37.7115 2.84C37.7776 2.90039 37.7351 3.00982 37.6455 3.00982Z" fill="#9BA3AE"/>
<path d="M39.7525 6.4076H35.521C35.4899 6.4076 35.4606 6.3925 35.4427 6.36703C34.8106 5.47827 33.7709 4.89804 32.5972 4.89804C31.4235 4.89804 30.3848 5.47733 29.7517 6.36703C29.7338 6.3925 29.7045 6.4076 29.6734 6.4076H25.4419C25.3768 6.4076 25.3297 6.34532 25.3476 6.28305C25.6344 5.29429 26.1175 4.38951 26.7515 3.61398C26.7703 3.59133 26.7986 3.57812 26.8279 3.57812H38.3656C38.3948 3.57812 38.4231 3.59133 38.442 3.61398C39.076 4.38951 39.5591 5.29429 39.8459 6.28305C39.8638 6.34532 39.8166 6.4076 39.7515 6.4076H39.7525Z" fill="#9BA3AE"/>
<path d="M29.1038 8.38767C29.1038 8.84054 29.1896 9.27454 29.3472 9.6708C29.3727 9.734 29.3236 9.80289 29.2557 9.80289H25.262C25.2148 9.80289 25.1733 9.76892 25.1648 9.72268C25.0865 9.28964 25.0469 8.84337 25.0469 8.38767C25.0469 7.93198 25.0874 7.48572 25.1648 7.05266C25.1733 7.00644 25.2139 6.97247 25.262 6.97247H29.2566C29.3246 6.97247 29.3736 7.04134 29.3481 7.10456C29.1906 7.50176 29.1047 7.93481 29.1047 8.38767H29.1038Z" fill="#9BA3AE"/>
<path d="M39.7525 10.3691C39.8176 10.3691 39.8647 10.4314 39.8468 10.4937C38.9354 13.6373 36.0343 15.9357 32.5972 15.9357C29.1601 15.9357 26.259 13.6383 25.3476 10.4937C25.3297 10.4314 25.3768 10.3691 25.4419 10.3691H29.6734C29.7045 10.3691 29.7338 10.3842 29.7517 10.4097C30.3838 11.2984 31.4235 11.8787 32.5972 11.8787C33.7709 11.8787 34.8096 11.2994 35.4427 10.4097C35.4606 10.3842 35.4899 10.3691 35.521 10.3691H39.7525Z" fill="#9BA3AE"/>
<path d="M40.144 8.38786C40.144 8.84355 40.1035 9.28982 40.0261 9.72287C40.0176 9.7691 39.977 9.80307 39.9289 9.80307H35.9343C35.8664 9.80307 35.8173 9.73418 35.8428 9.67098C36.0003 9.27378 36.0862 8.84072 36.0862 8.38786C36.0862 7.93499 36.0003 7.501 35.8428 7.10475C35.8173 7.04153 35.8664 6.97266 35.9343 6.97266H39.9289C39.9761 6.97266 40.0176 7.00663 40.0261 7.05285C40.1044 7.48591 40.144 7.93216 40.144 8.38786Z" fill="#9BA3AE"/>
<path d="M49.2752 4.99446V7.67769C48.8657 7.65881 48.7534 7.65881 48.6421 7.65881C46.6674 7.65881 45.8286 8.44095 45.6418 9.65236V14.7018H42.5859V5.01332H45.6418V7.06254C45.9022 5.79546 46.8155 4.91992 48.4184 4.91992C48.6232 4.91992 48.8657 4.91992 49.2752 4.99446Z" fill="#9BA3AE"/>
<path d="M59.5351 1.54688V14.7017H56.4792V13.4902C56.3489 13.844 55.6404 14.8319 54.0573 14.8319C52.3431 14.8319 49.7344 13.528 49.7344 9.85695C49.7344 6.18591 52.3242 4.91977 54.0007 4.91977C55.3423 4.91977 56.2366 5.68398 56.4792 6.09346V1.54688H59.5351ZM56.6104 9.85695C56.6104 8.1804 55.7716 7.36053 54.6913 7.36053C53.5544 7.36053 52.7166 8.10588 52.7166 9.85695C52.7166 11.608 53.5554 12.3911 54.6913 12.3911C55.8272 12.3911 56.6104 11.5712 56.6104 9.85695Z" fill="#9BA3AE"/>
<path d="M70.516 10.7882H63.9201C64.106 12.0742 64.7589 12.577 65.9693 12.577C66.9382 12.577 67.4601 12.2412 67.6458 11.7572H70.2734C69.7895 13.8064 68.2422 14.831 65.7834 14.831C63.6409 14.831 60.9766 13.5271 60.9766 9.91175C60.9766 6.29638 63.6041 4.91797 65.8392 4.91797C68.2611 4.91797 70.5349 6.25959 70.5349 10.3024C70.5349 10.4703 70.5349 10.6382 70.516 10.7864V10.7882ZM67.6091 8.94376C67.5713 7.91915 67.0129 7.1738 65.8392 7.1738C64.7768 7.1738 64.1438 7.77008 63.939 8.94376H67.61H67.6091Z" fill="#9BA3AE"/>
<path d="M78.6345 4.99446V7.67769C78.2251 7.65881 78.1128 7.65881 78.0014 7.65881C76.0268 7.65881 75.188 8.44095 75.0012 9.65236V14.7018H71.9453V5.01332H75.0012V7.06254C75.2616 5.79546 76.1749 4.91992 77.7779 4.91992C77.9826 4.91992 78.2251 4.91992 78.6345 4.99446Z" fill="#9BA3AE"/>
<path d="M83.017 1.54688V14.7017H79.9609V1.54688H83.017Z" fill="#9BA3AE"/>
<path d="M94.5266 5.01172L90.6141 14.4766C89.3102 17.6626 88.08 18.6684 85.2296 18.3891V15.8182C87.0931 16.0041 87.4847 15.2408 87.7451 14.6813C87.913 14.3455 87.8007 14.0662 87.577 13.452L84.1484 5.01172H87.2977L89.2913 10.7876L91.4339 5.01172H94.5266Z" fill="#9BA3AE"/>
<path d="M111.946 14.7017H108.611L103.971 7.02465H103.897V14.7017H100.711V1.6582H103.916L108.667 9.55787H108.742V1.6582H111.947V14.7007L111.946 14.7017Z" fill="#9BA3AE"/>
<path d="M122.907 10.7882H116.311C116.497 12.0742 117.15 12.577 118.36 12.577C119.329 12.577 119.851 12.2412 120.037 11.7572H122.664C122.179 13.8064 120.633 14.831 118.174 14.831C116.032 14.831 113.367 13.5271 113.367 9.91175C113.367 6.29638 115.995 4.91797 118.23 4.91797C120.652 4.91797 122.925 6.25959 122.925 10.3024C122.925 10.4703 122.925 10.6382 122.907 10.7864V10.7882ZM120 8.94376C119.962 7.91915 119.404 7.1738 118.23 7.1738C117.168 7.1738 116.534 7.77008 116.33 8.94376H120.001H120Z" fill="#9BA3AE"/>
<path d="M129.945 12.334V14.5143C129.534 14.6823 128.865 14.8125 128.119 14.8125C126.275 14.8125 124.84 14.3096 124.84 11.7566V7.37794H123.219V5.01172H124.84V2.58984H127.896V5.01172H129.889V7.37794H127.896V11.4207C127.896 12.0359 128.156 12.4453 128.976 12.4453C129.218 12.4453 129.534 12.4085 129.945 12.334Z" fill="#9BA3AE"/>
<path d="M142.654 14.7022H140.065L138.015 8.60922L136.003 14.7022H133.394L130.711 5.01367H133.786L135.109 10.8273L136.823 5.01367H139.227L140.941 10.8273L142.283 5.01367H145.339L142.655 14.7022H142.654Z" fill="#9BA3AE"/>
<path d="M155.532 9.89288C155.532 13.5073 152.644 14.8301 150.632 14.8301C148.619 14.8301 145.75 13.5073 145.75 9.89288C145.75 6.27845 148.619 4.91797 150.632 4.91797C152.644 4.91797 155.532 6.22184 155.532 9.89288ZM150.632 7.35967C149.588 7.35967 148.675 8.06727 148.675 9.89382C148.675 11.7204 149.588 12.3902 150.632 12.3902C151.675 12.3902 152.588 11.626 152.588 9.89382C152.588 8.06821 151.675 7.35967 150.632 7.35967Z" fill="#9BA3AE"/>
<path d="M163.634 4.99251V7.67573C163.224 7.65686 163.112 7.65686 163.001 7.65686C161.026 7.65686 160.187 8.439 160.001 9.6504V14.6999H156.945V5.01137H160.001V7.06059C160.262 5.7935 161.175 4.91797 162.778 4.91797C162.983 4.91797 163.225 4.91797 163.635 4.99251H163.634Z" fill="#9BA3AE"/>
<path d="M168.65 11.0118L168.017 11.6637V14.7007H164.961V1.54688H168.017V8.16154L170.998 5.01224H174.427L170.532 9.055L174.966 14.7007H171.65L168.651 11.0118H168.65Z" fill="#9BA3AE"/>
</g>
</g>
</g>
</g>
</g>
<defs>
<clipPath id="clip0_1_229">
<rect width="200" height="17.69" fill="white" transform="translate(0 0.791016)"/>
</clipPath>
<clipPath id="clip1_1_229">
<rect width="150" height="17.69" fill="white" transform="translate(25 0.791016)"/>
</clipPath>
<clipPath id="clip2_1_229">
<rect width="150" height="17.69" fill="white" transform="translate(25 0.791016)"/>
</clipPath>
<clipPath id="clip3_1_229">
<rect width="149.915" height="17.69" fill="white" transform="translate(25.0391 0.791016)"/>
</clipPath>
</defs>
</svg>
