<svg width="201" height="34" viewBox="0 0 201 34" fill="none" xmlns="http://www.w3.org/2000/svg">
<g clip-path="url(#clip0_1_179)">
<g clip-path="url(#clip1_1_179)">
<g clip-path="url(#clip2_1_179)">
<g clip-path="url(#clip3_1_179)">
<path fill-rule="evenodd" clip-rule="evenodd" d="M26.6111 0.796598C30.3493 5.38128 34.4537 11.141 35.1175 12.0726C35.1529 12.1223 35.1785 12.1582 35.1938 12.1795C35.5477 12.6738 35.8398 13.0412 36.0617 13.3203C36.5542 13.9397 36.7004 14.1235 36.4065 14.2924C36.1694 14.4285 35.9249 14.4734 35.6809 14.4734C35.4049 14.4734 35.0939 14.3391 34.8675 14.1221C34.7075 13.9687 33.6125 12.3616 32.1213 10.0236C30.9804 8.23471 30.0256 6.7507 29.9996 6.72585C29.9393 6.66839 29.9404 6.67034 32.005 10.4033C33.3014 12.7474 34.1882 14.4795 34.1882 14.5904C34.1882 14.8158 34.1273 14.9343 33.8521 15.2444C33.3934 15.7617 33.1883 16.3428 33.0403 17.5454C32.8743 18.8934 32.4077 19.8458 31.1144 21.4755C30.3573 22.4296 30.2335 22.6045 30.0425 22.989C29.8019 23.4733 29.7357 23.7445 29.7089 24.356C29.6805 25.0025 29.7357 25.4202 29.9312 26.0382C30.1023 26.5794 30.2809 26.9368 30.7376 27.6516C31.1317 28.2682 31.3586 28.7265 31.3586 28.9059C31.3586 29.0487 31.3855 29.0488 31.9962 28.9095C33.4576 28.5759 34.6442 27.9895 35.3116 27.2707C35.7246 26.8258 35.8216 26.5802 35.8247 25.9706C35.8268 25.5718 35.8129 25.4884 35.7063 25.2589C35.5326 24.8854 35.2165 24.5751 34.5198 24.0939C33.6069 23.4632 33.217 22.9555 33.1093 22.2573C33.021 21.6845 33.1235 21.2802 33.6285 20.2107C34.1512 19.1036 34.2807 18.6318 34.3683 17.5158C34.4249 16.7948 34.5033 16.5105 34.7083 16.2824C34.9221 16.0444 35.1146 15.9638 35.6436 15.8906C36.5062 15.7717 37.0555 15.5461 37.507 15.1257C37.8986 14.761 38.0625 14.4096 38.0877 13.8806L38.1068 13.4796L37.8879 13.2218C37.0953 12.2879 26.0803 0.0625 26.0316 0.0625C26.0211 0.0625 26.282 0.392867 26.6111 0.796598ZM31.8035 25.0876C31.9827 24.7668 31.8875 24.3546 31.5877 24.1531C31.3045 23.9628 30.8645 24.0525 30.8645 24.3005C30.8645 24.3761 30.9059 24.4312 30.9993 24.4798C31.1564 24.5615 31.1678 24.6534 31.0442 24.8412C30.919 25.0314 30.9291 25.1985 31.0727 25.3121C31.3042 25.4953 31.6319 25.3946 31.8035 25.0876ZM37.1975 7.59886C36.8439 7.54344 36.829 7.53694 36.9953 7.51109C37.3142 7.46153 38.0672 7.52907 38.5861 7.65375C39.7975 7.94472 40.8998 8.69012 42.0764 10.0139L42.3889 10.3656L42.8362 10.293C44.7201 9.98706 46.6366 10.2302 48.2395 10.9785C48.6805 11.1843 49.3759 11.5941 49.4626 11.6994C49.4903 11.733 49.5413 11.949 49.5756 12.1795C49.6946 12.9771 49.6351 13.5884 49.3935 14.045C49.2623 14.2934 49.2551 14.3722 49.3433 14.5848C49.4137 14.7545 49.6104 14.8801 49.8051 14.8798C50.2033 14.8793 50.632 14.2286 50.8308 13.3232L50.9096 12.9635L51.066 13.1425C51.9234 14.1242 52.5969 15.463 52.7126 16.416L52.7428 16.6643L52.5987 16.4385C52.3505 16.0498 52.1015 15.7853 51.7821 15.5719C51.207 15.1872 50.5985 15.0562 48.9875 14.9705C47.5324 14.893 46.7091 14.7674 45.8925 14.4983C44.5031 14.0406 43.8029 13.431 42.1525 11.2431C41.4195 10.2713 40.9664 9.73362 40.5158 9.30061C39.4917 8.31675 38.4855 7.80076 37.1975 7.59886ZM49.7908 9.76868C49.8275 9.11748 49.915 8.68794 50.0905 8.2957C50.1602 8.14043 50.2253 8.01335 50.2353 8.01335C50.2453 8.01335 50.2151 8.12795 50.168 8.26799C50.0404 8.64869 50.0194 9.16937 50.1075 9.77517C50.2191 10.5438 50.2826 10.6548 51.0865 11.4851C51.4637 11.8745 51.9023 12.3657 52.0614 12.5766L52.3505 12.96L52.0614 12.686C51.7078 12.3509 50.8947 11.6974 50.715 11.6039C50.5945 11.5413 50.5767 11.5423 50.5025 11.6171C50.434 11.6859 50.4196 11.7894 50.41 12.2784C50.3953 13.0407 50.2925 13.5299 50.0443 14.0191C49.9101 14.2837 49.8889 14.2273 50.0102 13.9286C50.101 13.7056 50.1103 13.6076 50.1097 12.8697C50.1082 11.3871 49.934 11.0306 48.9124 10.4201C48.6537 10.2654 48.2273 10.0423 47.9648 9.9243C47.7027 9.80631 47.4943 9.70353 47.5018 9.69586C47.5308 9.66677 48.527 9.96059 48.928 10.1164C49.5243 10.3483 49.6227 10.3783 49.6952 10.3503C49.7438 10.3316 49.7672 10.1887 49.7908 9.76868ZM36.8185 8.63046C36.7223 9.7751 37.1665 11.3063 37.8843 12.305C38.4408 13.0792 39.3035 13.6808 39.9403 13.7389C40.3573 13.7769 40.4826 13.645 40.294 13.3666C40.0321 12.9801 39.7099 12.385 39.6247 12.1302C39.5718 11.9719 39.4567 11.5043 39.3689 11.0911C39.0695 9.68054 38.7752 9.13121 38.0953 8.71398C37.8476 8.56191 37.3185 8.36291 37.0116 8.30636L36.8482 8.27621L36.8185 8.63046ZM48.9202 19.7378C45.5654 18.3729 44.3837 17.1881 44.3837 15.1889C44.3837 14.8948 44.3938 14.6541 44.4061 14.6541C44.4183 14.6541 44.548 14.7512 44.6944 14.8699C45.3746 15.4212 46.1365 15.6567 48.2456 15.9675C49.4863 16.1506 50.1848 16.2983 50.829 16.5144C52.8766 17.2006 54.1435 18.5931 54.4456 20.4898C54.5333 21.041 54.4819 22.0745 54.3397 22.6192C54.2273 23.0496 53.8842 23.8249 53.7934 23.8547C53.7682 23.8631 53.7433 23.7654 53.7369 23.6326C53.7025 22.9203 53.3463 22.2268 52.7482 21.7075C52.068 21.1169 51.1542 20.6467 48.9202 19.7378ZM46.4028 19.5876C46.45 19.7292 46.5229 20.052 46.5649 20.3047C46.8337 21.9208 45.9941 23.2263 44.3613 23.7323C44.1884 23.7857 43.5074 23.9205 42.848 24.0314C41.5133 24.256 40.9175 24.4151 40.319 24.7064C39.8946 24.9131 39.3807 25.2224 39.4113 25.2532C39.4211 25.2632 39.518 25.2398 39.6265 25.2012C40.3812 24.9334 41.2212 24.7948 42.4973 24.7278C43.0039 24.7013 43.5798 24.6589 43.7774 24.6337C44.9143 24.489 45.7023 24.14 46.3152 23.5097C46.656 23.159 46.8593 22.8323 47.0232 22.3716C47.1271 22.0794 47.1411 21.9708 47.1418 21.4531C47.1428 20.9255 47.1302 20.8289 47.0176 20.5044C46.8702 20.0789 46.6964 19.7597 46.4763 19.5101L46.3173 19.3298L46.4028 19.5876ZM48.1029 23.0646C47.657 22.0963 47.5548 21.1616 47.7989 20.2898C47.8251 20.1966 47.867 20.1203 47.8924 20.1203C47.9177 20.1203 48.0227 20.1779 48.1261 20.248C48.3314 20.3878 48.7434 20.623 49.8409 21.2278C51.2105 21.9822 51.9913 22.5665 52.5223 23.234C52.9872 23.8186 53.2751 24.4843 53.4135 25.2962C53.492 25.7562 53.4461 26.8627 53.3293 27.3258C52.961 28.786 52.1053 29.9328 50.8847 30.6023C50.7059 30.7002 50.5453 30.7806 50.5278 30.7811C50.5106 30.7814 50.5757 30.614 50.6726 30.409C51.0832 29.5416 51.1301 28.6978 50.8197 27.7589C50.6294 27.1838 50.2419 26.4823 49.4594 25.2963C48.5496 23.9177 48.3266 23.5508 48.1029 23.0646ZM39.7068 26.2404C38.2959 26.4721 36.7469 27.2265 35.5019 28.2888L35.1313 28.605L35.457 28.6566C37.1568 28.9246 37.6145 29.1625 38.7936 30.3899C39.4721 31.096 39.7012 31.2531 40.264 31.3984C41.0906 31.6115 41.9054 31.2198 42.1849 30.4747C42.3098 30.1417 42.293 29.5904 42.1499 29.3136C41.8091 28.6544 40.8163 28.4414 40.3362 28.9242C39.9363 29.3263 40.0528 29.9322 40.5502 30.0364C40.664 30.0604 40.6608 30.0552 40.5211 29.9915C40.3035 29.892 40.2089 29.7542 40.2077 29.5347C40.2049 29.0202 40.7876 28.7314 41.3296 28.9784C41.7264 29.1594 41.884 29.396 41.884 29.8104C41.884 30.4488 41.3464 30.9297 40.7207 30.8512C40.3863 30.8091 39.9774 30.5928 39.758 30.3424C39.2062 29.7119 39.4212 28.717 40.1916 28.3352C40.7782 28.0446 41.5579 28.1162 42.1624 28.5162C42.8572 28.9759 43.1525 29.3961 43.7508 30.775C43.9456 31.224 44.1963 31.7295 44.3078 31.8981C44.8746 32.7555 45.5536 33.1758 46.3716 33.1758C46.8228 33.1758 47.1621 33.0926 47.5891 32.8773C47.9062 32.717 48.356 32.4129 48.3236 32.3802C48.3144 32.3711 48.1828 32.4123 48.0311 32.4721C47.1381 32.8241 46.2302 32.8 45.7029 32.4099C45.3709 32.1644 45.1032 31.6753 44.9655 31.0637C44.9416 30.9578 44.8631 30.4902 44.7908 30.0246C44.6074 28.8444 44.4314 28.3137 44.0209 27.7049C43.601 27.0821 42.7937 26.5593 41.8911 26.3259C41.328 26.1802 40.3149 26.1406 39.7068 26.2404ZM37.7307 17.1152C37.8525 16.6605 38.2462 16.2267 38.6511 16.1011C38.9086 16.0213 39.4409 16.0722 39.6911 16.2006C40.1761 16.4499 40.5282 17.0174 40.4518 17.4271C40.3586 17.9266 39.5569 18.3263 38.6347 18.333C38.1637 18.3362 37.9897 18.2723 37.8099 18.0295C37.6985 17.8793 37.6564 17.3927 37.7307 17.1152ZM39.5673 16.3789C39.8092 16.5281 39.8714 16.7487 39.7292 16.9529C39.6312 17.0935 39.3279 17.2273 39.1063 17.2273C38.7734 17.2273 38.4102 16.9882 38.4102 16.7695C38.4102 16.3298 39.1067 16.0945 39.5673 16.3789ZM111.852 17.6376C111.1 15.1343 112.341 13.0577 114.988 12.3904C115.747 12.1989 119.185 12.2853 119.774 12.5108C119.99 12.5934 120.084 12.9104 120.086 13.562C120.088 14.0752 120.144 14.6984 120.21 14.9469C120.312 15.3237 120.253 15.3978 119.855 15.3917C119.496 15.3861 119.278 15.1754 118.975 14.5379C118.49 13.5196 117.903 13.1957 116.536 13.1919C114.79 13.1869 113.512 14.3629 113.72 15.7838C113.856 16.7085 114.779 17.6183 116.852 18.8691C118.823 20.0589 119.974 21.0373 120.433 21.9138C121.659 24.2575 120.612 26.7655 117.88 28.0293C116.478 28.6779 114.127 28.7449 112.475 28.1835L111.417 27.824V26.1325C111.417 24.6005 111.453 24.4407 111.802 24.4407C112.094 24.4407 112.22 24.6337 112.323 25.2384C112.578 26.7424 113.72 27.6553 115.347 27.6553C116.941 27.6553 118.055 26.7841 118.482 25.2046C118.664 24.5316 118.632 24.2834 118.272 23.5411C117.84 22.651 117.095 22.0605 114.568 20.6021C113.166 19.7926 112.175 18.7105 111.852 17.6376ZM62.3143 13.3898C61.9695 13.3898 61.835 13.2771 61.835 12.988C61.835 12.6052 61.9695 12.5861 64.6715 12.5861C67.1794 12.5861 67.5004 12.6239 67.4429 12.9118C67.4068 13.091 67.0604 13.3396 66.6723 13.4644L65.9668 13.6912L65.9065 18.8147C65.8662 22.2336 65.923 24.2058 66.0768 24.7419C66.5344 26.3366 67.93 27.2536 69.8993 27.2536C71.2701 27.2536 72.0709 26.933 73.077 25.9806C74.1591 24.957 74.3318 23.9843 74.3282 18.9289C74.325 13.9424 74.2382 13.5308 73.1677 13.4274C72.6805 13.3802 72.5173 13.2666 72.5173 12.9753C72.5173 12.612 72.678 12.5861 74.9359 12.5861C77.2201 12.5861 77.3546 12.6084 77.3546 12.988C77.3546 13.2355 77.2191 13.391 77.0017 13.3928C76.0683 13.401 76.0512 13.4899 75.9254 18.9578C75.7952 24.636 75.6734 25.3084 74.5231 26.6993C74.1914 27.1006 73.4003 27.6833 72.7652 27.9942C71.7302 28.5009 71.401 28.5591 69.5948 28.5558C67.9297 28.5523 67.404 28.4719 66.5714 28.0928C65.3561 27.5392 64.5658 26.823 63.9831 25.7466C63.5764 24.9953 63.5417 24.5886 63.4476 19.4979C63.3396 13.6707 63.2875 13.3898 62.3143 13.3898ZM81.1745 13.3898C80.7138 13.3898 80.5793 13.299 80.5793 12.988C80.5793 12.6112 80.7082 12.5871 82.6452 12.6026L84.7112 12.6191L85.6997 13.7579C86.2429 14.3842 88.0145 16.3434 89.6358 18.1114C91.2573 19.8796 93.1189 21.9365 93.7726 22.6824C94.4264 23.4286 95.0416 24.0388 95.14 24.0388C95.241 24.0388 95.2914 21.9315 95.2553 19.1989L95.1918 14.3591L94.6263 13.8744C94.3152 13.6078 93.8393 13.3898 93.5683 13.3898C93.2076 13.3898 93.0756 13.2805 93.0756 12.9823C93.0756 12.5899 93.1786 12.5769 95.8468 12.6307C98.1158 12.6765 98.6182 12.7398 98.6182 12.9797C98.6182 13.1507 98.3376 13.3302 97.9444 13.4103C97.5741 13.4859 97.1658 13.6522 97.0375 13.78C96.872 13.945 96.7876 16.0778 96.7466 21.1353L96.6888 28.258H96.1046C95.6018 28.258 95.0032 27.692 91.8027 24.1895C89.7581 21.9515 87.3713 19.2918 86.4989 18.279C85.6263 17.2661 84.8447 16.4298 84.7614 16.4206C84.5275 16.3943 84.5841 25.4438 84.8234 26.3028C85.0101 26.972 85.1384 27.0874 85.9309 27.2989C86.5693 27.469 86.8275 27.6416 86.8275 27.898C86.8275 28.2272 86.5841 28.258 84.0057 28.258C81.3812 28.258 81.1841 28.2319 81.1841 27.8814C81.1841 27.625 81.3739 27.4669 81.7796 27.3859C83.0103 27.1407 83.0919 26.7512 83.161 20.7986C83.1997 17.4645 83.1429 15.1318 83.0109 14.6434C82.7789 13.7844 82.201 13.3898 81.1745 13.3898ZM102.309 13.3898C101.877 13.3898 101.742 13.2944 101.742 12.988C101.742 12.604 101.877 12.5861 104.766 12.5861C107.654 12.5861 107.789 12.604 107.789 12.988C107.789 13.2827 107.654 13.3898 107.285 13.3898C107.008 13.3898 106.596 13.5743 106.37 13.7997C105.971 14.1977 105.96 14.3957 106.017 20.5471C106.073 26.5521 106.096 26.8996 106.467 27.1695C106.682 27.3263 107.067 27.4544 107.323 27.4544C107.654 27.4544 107.789 27.5703 107.789 27.8564C107.789 28.2403 107.654 28.258 104.766 28.258C101.945 28.258 101.742 28.2328 101.742 27.8821C101.742 27.5992 101.94 27.4743 102.541 27.3785C103.733 27.1884 103.794 26.7991 103.72 19.8531C103.661 14.2906 103.635 13.9437 103.266 13.6747C103.051 13.518 102.62 13.3898 102.309 13.3898ZM123.397 13.3898C123.122 13.3898 122.912 13.2369 122.847 12.988C122.745 12.5994 122.841 12.5861 125.746 12.5861C128.616 12.5861 128.75 12.604 128.75 12.988C128.75 13.2968 128.616 13.3898 128.17 13.3898C126.901 13.3898 126.93 13.6196 128.85 18.8742C129.827 21.549 130.777 24.0897 130.959 24.5204L131.291 25.3034L132.83 21.2051C134.642 16.3809 134.878 15.4888 134.57 14.609C134.355 13.9958 133.521 13.3898 132.892 13.3898C132.714 13.3898 132.58 13.217 132.58 12.988C132.58 12.6034 132.714 12.5861 135.704 12.5861C138.693 12.5861 138.828 12.6034 138.828 12.988C138.828 13.2739 138.693 13.3898 138.363 13.3898C137.515 13.3898 137.141 13.8403 137.263 14.7155C137.388 15.6165 140.855 25.2994 141 25.1546C141.237 24.919 145.076 14.4951 145.076 14.0888C145.076 13.602 144.734 13.3898 143.951 13.3898C143.598 13.3898 143.463 13.2791 143.463 12.988C143.463 12.6084 143.598 12.5861 145.882 12.5861C147.934 12.5861 148.301 12.6335 148.301 12.898C148.301 13.0696 148.049 13.2972 147.742 13.4039C147.051 13.644 146.878 13.918 146.011 16.1381C145.63 17.1128 144.439 20.1639 143.364 22.9178C142.289 25.6719 141.362 28.0453 141.306 28.1922C141.25 28.339 140.916 28.4591 140.565 28.4591H139.927L138.479 24.6917C137.683 22.6199 136.742 20.1652 136.389 19.237C135.783 17.6464 135.733 17.5774 135.505 18.0313C135.372 18.2966 134.415 20.7556 133.379 23.496L131.495 28.4788L130.791 28.4187L130.088 28.3586L127.406 21.3421C125.908 17.4218 124.53 14.1188 124.283 13.8576C124.041 13.6002 123.642 13.3898 123.397 13.3898ZM163.698 13.475C163.664 13.3987 163.665 13.1244 163.665 13.1244C163.665 13.1244 163.657 13.0255 163.698 12.9727C163.74 12.9201 163.754 12.9187 163.903 12.9046L163.904 12.9044C164.448 12.8527 165.54 12.7655 166.451 12.7258C166.535 12.7221 166.627 12.7179 166.728 12.7133L166.73 12.7132L166.732 12.7132L166.732 12.7131C167.735 12.6676 169.529 12.6067 170.763 12.6684C173.129 12.7867 174.812 13.931 175.385 15.8221C175.96 17.713 175.656 19.488 174.874 20.618C174.092 21.7478 172.778 22.7207 170.593 22.6574C168.789 22.6051 168.306 22.2672 167.92 21.9972C167.839 21.9401 167.762 21.886 167.677 21.8384V24.25C167.696 25.8946 167.71 26.6845 167.837 26.9769C168.009 27.3706 168.396 27.613 169.152 27.7989C169.152 27.7989 169.494 27.879 169.582 27.9646C169.67 28.05 169.67 28.2399 169.67 28.2399C169.67 28.2399 169.688 28.4172 169.617 28.5078C169.546 28.5982 169.41 28.5801 169.41 28.5801L166.064 28.5532L164.047 28.5479C164.047 28.5479 163.836 28.5884 163.756 28.5032C163.677 28.418 163.684 28.2403 163.684 28.2403C163.684 28.2403 163.702 28.049 163.794 27.9633C163.887 27.8776 164.231 27.7818 164.231 27.7818C165.009 27.5633 165.346 27.3322 165.523 26.8968C165.665 26.5458 165.666 25.8948 165.664 20.5825C165.663 15.5448 165.656 14.605 165.54 14.3347C165.369 13.9347 164.941 13.8287 164.332 13.6778L164.332 13.6777C164.211 13.6478 164.083 13.6161 163.949 13.58C163.949 13.58 163.732 13.5513 163.698 13.475ZM173.438 17.5858C173.438 18.4117 173.425 19.7051 172.545 20.5318C171.666 21.3586 169.935 21.5848 168.76 21.3546C168.39 21.2821 168.178 21.1703 168.015 21.084L167.999 21.0755L167.698 20.917L167.681 18.0147C167.67 16.1961 167.689 15.0111 167.732 14.8418C167.771 13.8829 169.184 13.7636 169.875 13.7991C172.831 13.7991 173.353 16.2903 173.438 17.5858ZM154.417 12.6986C154.417 12.6986 154.273 12.7541 154.054 12.8371L153.265 13.2448L152.697 14.6641C152.384 15.4448 151.812 16.8777 151.426 17.8485C150.723 19.6167 150.258 20.7784 149.769 21.9909C149.626 22.3476 149.192 23.4337 148.805 24.4045C148.418 25.3751 148.031 26.2989 147.946 26.4574C147.931 26.4838 147.916 26.5122 147.9 26.5421C147.684 26.9489 147.308 27.6553 146.645 27.7621C146.645 27.7621 146.28 27.798 146.145 27.9315C146.009 28.0652 146.023 28.1744 146.023 28.1744V28.3426C146.023 28.3426 146.035 28.4242 146.112 28.4647C146.188 28.5055 146.292 28.5078 146.292 28.5078L148.719 28.4801H151.228C151.228 28.4801 151.405 28.5009 151.474 28.4442C151.542 28.3873 151.561 28.3031 151.561 28.3031V28.126C151.561 28.126 151.526 27.9338 151.427 27.8589C151.327 27.784 150.955 27.7326 150.955 27.7326C149.951 27.6005 149.778 26.8407 149.902 26.1572C149.963 25.8214 150.366 24.5795 150.821 23.329L150.978 22.8968L153.607 22.8768C155.053 22.8656 156.301 22.8731 156.381 22.8935C156.495 22.9223 156.655 23.2468 157.124 24.4027C157.835 26.1541 157.891 26.3674 157.734 26.6951C157.724 26.715 157.714 26.7371 157.703 26.7608C157.555 27.0776 157.269 27.6933 156.546 27.7561C156.546 27.7561 156.163 27.7693 156.068 27.8839C155.973 27.9988 155.993 28.1306 155.993 28.1306V28.306C155.993 28.306 156.019 28.4087 156.068 28.4495C156.117 28.4901 156.2 28.4798 156.2 28.4798L158.586 28.4627L161.941 28.4626C161.941 28.4626 162.072 28.4766 162.108 28.4261C162.144 28.3754 162.151 28.3158 162.151 28.3158V28.0829C162.151 28.0829 162.137 27.9592 162.072 27.8908C162.008 27.8226 161.573 27.7506 161.573 27.7506C161.017 27.6609 160.74 27.2021 160.534 26.8604C160.482 26.7732 160.434 26.6937 160.387 26.6299C160.291 26.4997 159.95 25.7861 159.683 25.0997C159.416 24.4133 158.813 22.8628 158.344 21.6545C157.875 20.446 157.219 18.7601 156.888 17.9082C156.557 17.0563 155.927 15.4353 155.489 14.306C155.417 14.1207 155.353 13.9542 155.295 13.8052L155.295 13.8045C155.001 13.0461 154.883 12.7401 154.85 12.6986C154.745 12.5642 154.417 12.6986 154.417 12.6986ZM154.261 17.3134C154.155 17.056 153.969 16.5941 153.847 16.287C153.626 15.7287 153.542 15.6002 153.473 15.7155C153.453 15.7492 153.314 16.1307 153.163 16.5633C152.191 19.3643 151.75 20.6254 151.662 20.8631C151.606 21.0124 151.561 21.1663 151.561 21.2052C151.561 21.2499 152.352 21.2759 153.708 21.2759C154.888 21.2759 155.855 21.2612 155.855 21.2432C155.855 21.2254 155.749 20.9581 155.621 20.6489C155.492 20.3399 155.177 19.5684 154.92 18.9345C154.664 18.3004 154.367 17.571 154.261 17.3134Z" fill="#9BA3AE"/>
</g>
</g>
</g>
</g>
<defs>
<clipPath id="clip0_1_179">
<rect width="200" height="33.14" fill="white" transform="translate(0.851562 0.0625)"/>
</clipPath>
<clipPath id="clip1_1_179">
<rect width="150" height="33.14" fill="white" transform="translate(25.8516 0.0625)"/>
</clipPath>
<clipPath id="clip2_1_179">
<rect width="150" height="33.14" fill="white" transform="translate(25.8516 0.0625)"/>
</clipPath>
<clipPath id="clip3_1_179">
<rect width="149.94" height="33.14" fill="white" transform="translate(25.8828 0.0625)"/>
</clipPath>
</defs>
</svg>
