<svg width="201" height="36" viewBox="0 0 201 36" fill="none" xmlns="http://www.w3.org/2000/svg">
<g clip-path="url(#clip0_1_209)">
<g clip-path="url(#clip1_1_209)">
<g clip-path="url(#clip2_1_209)">
<g clip-path="url(#clip3_1_209)">
<path d="M99.2729 15.5391L98.0816 12.6567H93.1713L91.98 15.5391H89.6641L94.5297 3.63086H96.6787L101.567 15.5391H99.2506H99.2729ZM97.2799 10.6645L95.6432 6.62462L93.9842 10.6645H97.2799Z" fill="#9BA3AE"/>
<path d="M105.648 15.7956C103.566 15.7956 102.219 14.4824 102.219 12.4457V6.48047H104.412V12.3678C104.412 13.2804 105.047 13.848 106.049 13.848C107.263 13.848 108.098 13.0801 108.109 11.9338V6.48047H110.302V15.5508H108.51L108.387 14.4824C107.808 15.3171 106.806 15.7956 105.659 15.7956H105.648Z" fill="#9BA3AE"/>
<path d="M115.837 15.7945C113.354 15.7945 111.617 13.8023 111.617 10.9644C111.617 8.12642 113.321 6.21218 115.77 6.21218C116.895 6.21218 117.897 6.62396 118.565 7.36964V2.80664H120.758V15.5496H118.966L118.81 14.2475C118.22 15.2269 117.14 15.8056 115.837 15.8056V15.7945ZM116.238 8.0819C114.835 8.0819 113.855 9.27272 113.855 10.9755C113.855 12.6783 114.824 13.9025 116.205 13.9025C117.585 13.9025 118.565 12.6894 118.565 10.9421C118.565 9.19483 117.608 8.0819 116.238 8.0819Z" fill="#9BA3AE"/>
<path d="M122.579 15.5389V6.46854H124.772V15.5389H122.579ZM123.67 5.51141C122.89 5.51141 122.289 4.8993 122.289 4.12025C122.289 3.34121 122.89 2.74023 123.67 2.74023C124.449 2.74023 125.05 3.33008 125.05 4.12025C125.05 4.91043 124.46 5.51141 123.67 5.51141Z" fill="#9BA3AE"/>
<path d="M130.605 15.5389C128.623 15.5389 127.543 14.5372 127.543 12.7232V8.36053H125.984V6.46856H127.543V3.44141H129.737V6.46856H132.019V8.36053H129.737V12.5896C129.737 13.2908 130.071 13.6469 130.75 13.6469H131.863V15.5389H130.616H130.605Z" fill="#9BA3AE"/>
<path d="M137.247 15.7952C134.496 15.7952 132.57 13.8364 132.57 11.043C132.57 8.24954 134.418 6.21289 137.069 6.21289C139.719 6.21289 141.355 8.07148 141.4 10.9428V11.5215H134.764C134.931 12.9906 135.877 13.9032 137.247 13.9032C138.227 13.9032 138.95 13.4246 139.229 12.59L139.251 12.512H141.389L141.355 12.6456C140.888 14.6155 139.34 15.784 137.224 15.784L137.247 15.7952ZM139.128 9.9078C138.861 8.75037 138.115 8.09374 137.08 8.09374C136.044 8.09374 135.198 8.77263 134.886 9.9078H139.128Z" fill="#9BA3AE"/>
<path d="M146.478 15.7945C143.995 15.7945 142.258 13.8023 142.258 10.9644C142.258 8.12642 143.961 6.21218 146.411 6.21218C147.535 6.21218 148.538 6.62396 149.206 7.36964V2.80664H151.399V15.5496H149.606L149.451 14.2475C148.86 15.2269 147.78 15.8056 146.478 15.8056V15.7945ZM146.879 8.0819C145.476 8.0819 144.496 9.27272 144.496 10.9755C144.496 12.6783 145.464 13.9025 146.845 13.9025C148.226 13.9025 149.206 12.6894 149.206 10.9421C149.206 9.19483 148.248 8.0819 146.879 8.0819Z" fill="#9BA3AE"/>
<path d="M161.898 15.7958C160.584 15.7958 159.471 15.2171 158.847 14.2155L158.691 15.5398H156.898V2.79688H159.092V7.4155C159.782 6.63646 160.795 6.20242 161.92 6.20242C164.336 6.20242 166.018 8.16118 166.018 10.9546C166.018 13.748 164.325 15.7847 161.898 15.7847V15.7958ZM161.464 8.09439C160.061 8.09439 159.092 9.25183 159.092 10.9101C159.092 12.6685 160.072 13.9038 161.464 13.9038C162.855 13.9038 163.78 12.6908 163.78 10.9657C163.78 9.2407 162.833 8.10552 161.464 8.10552V8.09439Z" fill="#9BA3AE"/>
<path d="M166.777 18.8778V16.9859H168.492C169.138 16.9859 169.528 16.7744 169.695 16.3292L169.984 15.5391H169.706L166.109 6.46875H168.47L170.931 12.9682L173.347 6.46875H175.64L171.732 16.9859C171.242 18.2768 170.218 18.8778 168.503 18.8778H166.788H166.777Z" fill="#9BA3AE"/>
<path d="M99.066 32.2324V27.1576H92.8754V32.2324H90.6484V20.3242H92.8754V25.1319H99.066V20.3242H101.293V32.2324H99.066Z" fill="#9BA3AE"/>
<path d="M106.322 32.4217C105.12 32.4217 104.162 32.0989 103.55 31.4758C103.082 31.0082 102.849 30.3851 102.86 29.6728C102.882 27.5915 104.83 27.0797 106.746 26.8571L107.046 26.8238C108.282 26.6902 108.972 26.59 108.984 26.067C108.972 25.2434 108.327 24.7426 107.269 24.7426C106.211 24.7426 105.365 25.3324 105.253 26.2005V26.3006H103.038V26.1783C103.238 24.2529 104.986 22.9062 107.302 22.9062C109.618 22.9062 111.121 24.1751 111.121 26.2005V30.207C111.121 30.3739 111.177 30.4852 111.444 30.4852H112.034V32.2438H110.988C110.053 32.2438 109.44 31.843 109.273 31.1195C109.273 31.1084 109.273 31.0974 109.262 31.0751C108.672 31.9655 107.681 32.4217 106.311 32.4217H106.322ZM108.984 27.8586C108.538 28.2372 107.748 28.3374 106.991 28.4263C105.833 28.5709 105.064 28.7158 105.064 29.5392C105.064 30.2515 105.654 30.6522 106.723 30.6522C108.059 30.6522 108.984 29.8954 108.984 28.8047V27.8586Z" fill="#9BA3AE"/>
<path d="M117.344 32.4885C114.538 32.4885 112.656 30.5409 112.656 27.6362C112.656 24.7314 114.516 22.9062 117.299 22.9062C119.76 22.9062 121.463 24.3975 121.631 26.7013V26.8238H119.482V26.7346C119.292 25.555 118.446 24.8315 117.277 24.8315C115.818 24.8315 114.883 25.9446 114.883 27.6584C114.883 29.3724 115.852 30.6077 117.344 30.6077C118.479 30.6077 119.281 29.8842 119.47 28.6601V28.5709H121.642V28.6934C121.386 31.0529 119.749 32.5109 117.344 32.5109V32.4885Z" fill="#9BA3AE"/>
<path d="M129.379 32.2314L126.64 28.0132L125.137 29.5158L125.17 32.2314H122.977V19.4883H125.17V26.8447L128.755 23.1942L131.506 23.1609L128.176 26.4775L131.873 32.2314H129.379Z" fill="#9BA3AE"/>
<path d="M136.181 32.4885C133.431 32.4885 131.516 30.5297 131.516 27.7364C131.516 24.9428 133.364 22.9062 136.014 22.9062C138.664 22.9062 140.301 24.7649 140.345 27.6362V28.2149H133.709C133.876 29.684 134.823 30.5965 136.192 30.5965C137.172 30.5965 137.896 30.118 138.174 29.2832L138.196 29.2055H140.334L140.301 29.3389C139.833 31.3089 138.285 32.4773 136.17 32.4773L136.181 32.4885ZM138.063 26.6012C137.795 25.4437 137.05 24.787 136.014 24.787C134.979 24.787 134.132 25.466 133.821 26.6012H138.063Z" fill="#9BA3AE"/>
<path d="M147.562 32.232V26.3669C147.562 25.432 146.927 24.8421 145.925 24.8421C144.723 24.8421 143.877 25.6324 143.865 26.7676V32.232H141.672V23.1616H143.465L143.609 24.2635C144.244 23.4066 145.335 22.8945 146.526 22.8945C148.486 22.8945 149.755 24.219 149.755 26.2556V32.2209H147.562V32.232Z" fill="#9BA3AE"/>
<path d="M69.2744 0.179688V9.68404H66.1789V0.179688H63.0836V9.68404H59.9883V0.179688H56.893V9.68404H41.3939V0.179688H38.2985V12.8559H69.2853V16.0277H35.192V0.190817H32.0967V16.0277H29.0014V0.190817H25.906V35.0365H29.0014V25.532H32.0967V35.0365H35.192V25.532H38.2874V35.0365H41.3827V25.532H56.8818V35.0365H59.9771V22.3602H28.9902V19.1884H63.0836V35.0253H66.1789V19.1884H69.2744V35.0253H72.3697V0.179688H69.2744Z" fill="#9BA3AE"/>
</g>
</g>
</g>
</g>
<defs>
<clipPath id="clip0_1_209">
<rect width="200" height="35.09" fill="white" transform="translate(0.851562 0.0898438)"/>
</clipPath>
<clipPath id="clip1_1_209">
<rect width="150" height="35.09" fill="white" transform="translate(25.8516 0.0898438)"/>
</clipPath>
<clipPath id="clip2_1_209">
<rect width="150" height="35.09" fill="white" transform="translate(25.8516 0.0898438)"/>
</clipPath>
<clipPath id="clip3_1_209">
<rect width="149.971" height="35.09" fill="white" transform="translate(25.8672 0.0898438)"/>
</clipPath>
</defs>
</svg>
