<svg width="200" height="31" viewBox="0 0 200 31" fill="none" xmlns="http://www.w3.org/2000/svg">
<g clip-path="url(#clip0_1_161)">
<g clip-path="url(#clip1_1_161)">
<g clip-path="url(#clip2_1_161)">
<g clip-path="url(#clip3_1_161)">
<mask id="mask0_1_161" style="mask-type:luminance" maskUnits="userSpaceOnUse" x="25" y="0" width="150" height="31">
<path d="M174.973 0.791016H25.0234V30.481H174.973V0.791016Z" fill="white"/>
</mask>
<g mask="url(#mask0_1_161)">
<path fill-rule="evenodd" clip-rule="evenodd" d="M53.5638 24.8894C49.9465 28.8237 44.7133 29.477 40.1679 27.6475C35.5123 25.7079 31.7438 21.024 31.9226 15.9136C31.7645 11.8763 34.8521 7.77696 39.1019 7.7976C33.4905 12.2133 34.632 22.6403 41.6257 25.0131C45.6899 26.4369 50.8198 24.8413 52.8279 20.0749H56.3075C55.7368 21.8837 54.7947 23.5345 53.5638 24.8894ZM30.396 24.8825C22.2608 15.9136 29.11 0.445022 41.8046 2.87984C46.1505 3.76022 49.5683 6.9516 50.9506 11.326H47.4709C46.4944 9.04939 44.6239 7.18546 42.2928 6.38761C38.7237 5.1427 34.5083 6.26381 32.2252 9.32452C30.8567 10.7551 30.0659 13.2587 30.0246 15.5353C30.0246 15.4391 30.0246 15.6248 30.0246 15.5353C29.8046 20.852 33.0917 25.873 37.6784 28.5278C34.8659 28.184 32.3215 26.9184 30.396 24.8825ZM52.4841 5.39717C54.327 6.93785 55.6061 8.97374 56.2251 11.326H52.9242C51.9133 7.66003 49.6784 4.65436 46.6733 2.79729C48.8531 3.13432 50.8336 4.0147 52.4772 5.39717H52.4841ZM45.7311 22.7366C46.4531 21.9594 47.0308 21.0584 47.4709 20.0542H50.7236C49.4239 22.489 46.8039 23.6377 44.8028 23.6032C45.1259 23.3349 45.4423 23.0461 45.738 22.7297L45.7311 22.7366ZM58.5149 18.1627H46.1505C45.4974 20.3499 44.0737 22.2758 41.9421 23.1011C35.9249 20.7144 35.9318 10.652 41.9764 8.29969C44.0944 9.1388 45.4974 11.0509 46.1505 13.2243H58.5218C58.5218 9.49646 56.1424 5.98181 53.7013 3.93904C50.593 1.29101 46.1162 0.218048 41.9902 0.981506C37.2727 0.073611 32.2321 1.62116 29.0206 5.13581C23.7187 10.5625 23.6843 20.7901 29.0206 26.1825C32.3696 29.8279 37.589 31.1414 42.5059 30.3023C46.8795 31.0246 51.5694 29.9035 54.9665 26.1687C54.9665 26.1619 54.9665 26.1619 54.9734 26.155C56.679 24.2772 58.3155 21.5123 58.5149 18.1627Z" fill="#9BA3AE"/>
<path d="M75.7496 20.6997C78.5553 20.6997 80.6733 19.159 81.2235 16.5729H78.5279C78.1977 17.8109 77.2076 18.6362 75.7496 18.6362C73.7967 18.6362 72.4213 16.9856 72.4213 14.537C72.4213 12.1435 73.7967 10.5478 75.7496 10.5478C77.0975 10.5478 78.0602 11.2081 78.4728 12.3911H81.1685C80.6183 9.99753 78.5553 8.48438 75.7496 8.48438C72.2562 8.48438 69.8906 10.988 69.8906 14.537C69.8906 18.1961 72.2837 20.6997 75.7496 20.6997Z" fill="#9BA3AE"/>
<path d="M88.793 20.6997C92.3414 20.6997 94.7346 18.1685 94.7346 14.537C94.7346 10.988 92.2864 8.48438 88.793 8.48438C85.2722 8.48438 82.8516 10.988 82.8516 14.537C82.8516 18.1961 85.2722 20.6997 88.793 20.6997ZM88.793 18.5262C86.8126 18.5262 85.3823 16.903 85.3823 14.537C85.3823 12.2535 86.8126 10.6303 88.793 10.6303C90.7735 10.6303 92.1765 12.281 92.1765 14.537C92.1765 16.8755 90.7735 18.5262 88.793 18.5262Z" fill="#9BA3AE"/>
<path d="M102.996 8.45703C101.539 8.45703 100.521 8.89722 99.4757 10.3003V8.67713H97V24.7717H99.4757V18.8841C100.548 20.2871 101.566 20.6998 102.996 20.6998C106.105 20.6998 108.195 18.1688 108.195 14.5647C108.195 10.9606 106.105 8.45703 102.996 8.45703ZM102.501 10.603C104.454 10.603 105.692 12.2812 105.692 14.5647C105.692 16.8482 104.454 18.5264 102.501 18.5264C100.576 18.5264 99.2281 16.9032 99.2281 14.5647C99.2281 12.2537 100.576 10.603 102.501 10.603Z" fill="#9BA3AE"/>
<path d="M116.504 8.45703C115.046 8.45703 114.029 8.89722 112.983 10.3003V8.67713H110.508V24.7717H112.983V18.8841C114.056 20.2871 115.074 20.6998 116.504 20.6998C119.613 20.6998 121.703 18.1688 121.703 14.5647C121.703 10.9606 119.613 8.45703 116.504 8.45703ZM116.009 10.603C117.962 10.603 119.2 12.2812 119.2 14.5647C119.2 16.8482 117.962 18.5264 116.009 18.5264C114.084 18.5264 112.736 16.9032 112.736 14.5647C112.736 12.2537 114.084 10.603 116.009 10.603Z" fill="#9BA3AE"/>
<path d="M129.41 20.6997C132.518 20.6997 134.306 18.8289 134.994 16.5729H132.436C132.023 17.6184 130.978 18.5262 129.492 18.5262C128.117 18.5262 127.017 17.7284 126.467 16.4078C126.247 16.0502 126.137 15.555 126.054 15.0873H135.214V14.4545C135.214 10.3827 132.381 8.48438 129.355 8.48438C125.477 8.48438 123.523 11.5382 123.523 14.6471C123.523 18.1135 125.889 20.6997 129.41 20.6997ZM126.219 13.1339C126.274 12.8313 126.384 12.3911 126.632 12.0059C127.209 11.0155 128.2 10.4928 129.437 10.4928C130.62 10.4928 131.666 11.0155 132.243 12.0059C132.463 12.3636 132.573 12.8038 132.628 13.1339H126.219Z" fill="#9BA3AE"/>
<path d="M139.937 20.4796V14.7846C139.937 13.2715 140.267 12.281 140.927 11.6482C141.422 11.153 142.11 10.9054 143.1 10.9054H143.733V8.48438H143.457C142 8.48438 140.927 8.89705 139.937 10.1626V8.67695H137.461V20.4796H139.937Z" fill="#9BA3AE"/>
<path d="M146.74 20.7005C147.565 20.7005 148.253 19.985 148.253 19.1597C148.253 18.3344 147.565 17.6191 146.74 17.6191C145.887 17.6191 145.172 18.3068 145.172 19.1597C145.172 20.0126 145.887 20.7005 146.74 20.7005Z" fill="#9BA3AE"/>
<path d="M156 20.6997C158.805 20.6997 160.923 19.159 161.473 16.5729H158.778C158.448 17.8109 157.457 18.6362 156 18.6362C154.047 18.6362 152.671 16.9856 152.671 14.537C152.671 12.1435 154.047 10.5478 156 10.5478C157.347 10.5478 158.31 11.2081 158.723 12.3911H161.418C160.868 9.99753 158.805 8.48438 156 8.48438C152.506 8.48438 150.141 10.988 150.141 14.537C150.141 18.1961 152.534 20.6997 156 20.6997Z" fill="#9BA3AE"/>
<path d="M169.043 20.6997C172.591 20.6997 174.984 18.1685 174.984 14.537C174.984 10.988 172.537 8.48438 169.043 8.48438C165.522 8.48438 163.102 10.988 163.102 14.537C163.102 18.1961 165.522 20.6997 169.043 20.6997ZM169.043 18.5262C167.063 18.5262 165.632 16.903 165.632 14.537C165.632 12.2535 167.063 10.6303 169.043 10.6303C171.024 10.6303 172.426 12.281 172.426 14.537C172.426 16.8755 171.024 18.5262 169.043 18.5262Z" fill="#9BA3AE"/>
</g>
</g>
</g>
</g>
</g>
<defs>
<clipPath id="clip0_1_161">
<rect width="200" height="29.69" fill="white" transform="translate(0 0.791016)"/>
</clipPath>
<clipPath id="clip1_1_161">
<rect width="150" height="29.69" fill="white" transform="translate(25 0.791016)"/>
</clipPath>
<clipPath id="clip2_1_161">
<rect width="150" height="29.69" fill="white" transform="translate(25 0.791016)"/>
</clipPath>
<clipPath id="clip3_1_161">
<rect width="149.949" height="29.69" fill="white" transform="translate(25.0234 0.791016)"/>
</clipPath>
</defs>
</svg>
