<svg width="201" height="43" viewBox="0 0 201 43" fill="none" xmlns="http://www.w3.org/2000/svg">
<g clip-path="url(#clip0_1_184)">
<g clip-path="url(#clip1_1_184)">
<g clip-path="url(#clip2_1_184)">
<g clip-path="url(#clip3_1_184)">
<mask id="mask0_1_184" style="mask-type:luminance" maskUnits="userSpaceOnUse" x="25" y="0" width="151" height="43">
<path d="M175.841 0.371094H25.8672V42.9011H175.841V0.371094Z" fill="white"/>
</mask>
<g mask="url(#mask0_1_184)">
<path d="M57.1 7.40664H55.846V0.3125H48.7222V7.40664H41.5985V0.3125H34.444V7.40664H27.3203V14.5111H34.444V28.7303H27.3203V35.8346H34.444V42.9595H41.578V35.8552H48.7016V42.9595H55.8254V35.8552H57.0691C64.9329 35.8552 71.3473 29.5012 71.3473 21.6361C71.3679 13.7914 64.9844 7.40664 57.1 7.40664ZM57.1 28.761H41.5985V14.5316H57.1206C61.0577 14.5316 64.2443 17.7291 64.2443 21.6361C64.2443 25.5636 61.0268 28.761 57.1 28.761Z" fill="#9BA3AE"/>
<path d="M89.9822 10.7266H81.4297V32.0295H89.9822C95.8825 32.0295 100.375 27.4029 100.375 21.3781C100.375 15.3532 95.8825 10.7266 89.9822 10.7266ZM89.9822 27.3516H86.3124V15.4251H89.9617C93.3334 15.4251 95.6255 17.7487 95.6255 21.3986C95.6255 25.0588 93.3334 27.3516 89.9822 27.3516Z" fill="#9BA3AE"/>
<path d="M107.047 26.2516H117.892C118.026 25.6654 118.077 25.0793 118.077 24.4112C118.077 19.8154 114.777 16.3711 110.306 16.3711C105.485 16.3711 102.195 19.8668 102.195 24.4112C102.195 28.9657 105.433 32.4614 110.645 32.4614C113.554 32.4614 115.805 31.3921 117.306 29.3153L113.657 27.2282C113.04 27.8863 111.971 28.3694 110.717 28.3694C109.031 28.4003 107.633 27.8348 107.047 26.2516ZM106.965 22.8586C107.397 21.2959 108.548 20.4528 110.285 20.4528C111.663 20.4528 113.04 21.1005 113.523 22.8586H106.965Z" fill="#9BA3AE"/>
<path d="M125.254 19.5378V16.8338H120.68V32.0502H125.254V25.1514C125.254 22.139 127.927 21.3782 129.818 21.6867V16.5254C127.906 16.5254 125.861 17.4919 125.254 19.5378Z" fill="#9BA3AE"/>
<path d="M134.265 15.4775C135.766 15.4775 137.02 14.2232 137.02 12.7426C137.02 11.2621 135.766 10.0078 134.265 10.0078C132.754 10.0078 131.5 11.2621 131.5 12.7426C131.5 14.2232 132.754 15.4775 134.265 15.4775ZM131.963 32.051H136.537V16.8346H131.963V32.051Z" fill="#9BA3AE"/>
<path d="M149.048 16.3916C147.002 16.3916 145.491 17.0907 144.504 18.2628V10.7266H139.93V32.0295H144.504V30.6005C145.491 31.7416 147.002 32.4613 149.048 32.4613C153.057 32.4613 156.346 28.9658 156.346 24.411C156.326 19.8976 153.026 16.3916 149.048 16.3916ZM148.123 28.1431C146.005 28.1431 144.504 26.7141 144.504 24.4419C144.504 22.1697 146.036 20.7406 148.123 20.7406C150.24 20.7406 151.751 22.1697 151.751 24.4419C151.751 26.7141 150.219 28.1431 148.123 28.1431Z" fill="#9BA3AE"/>
<path d="M161.226 15.4775C162.727 15.4775 163.981 14.2232 163.981 12.7426C163.981 11.2621 162.727 10.0078 161.226 10.0078C159.715 10.0078 158.461 11.2621 158.461 12.7426C158.461 14.2232 159.715 15.4775 161.226 15.4775ZM158.924 32.051H163.498V16.8346H158.924V32.051Z" fill="#9BA3AE"/>
<path d="M175.828 21.1944V16.8351H172.693V12.5684L168.118 13.9461V16.8351H165.672V21.2253H168.118V26.6127C168.118 30.8794 169.855 32.6683 175.859 32.0516V27.8875C173.844 28.0211 172.713 27.8875 172.713 26.5921V21.1944H175.828Z" fill="#9BA3AE"/>
</g>
</g>
</g>
</g>
</g>
<defs>
<clipPath id="clip0_1_184">
<rect width="200" height="42.53" fill="white" transform="translate(0.851562 0.371094)"/>
</clipPath>
<clipPath id="clip1_1_184">
<rect width="150" height="42.53" fill="white" transform="translate(25.8516 0.371094)"/>
</clipPath>
<clipPath id="clip2_1_184">
<rect width="150" height="42.53" fill="white" transform="translate(25.8516 0.371094)"/>
</clipPath>
<clipPath id="clip3_1_184">
<rect width="149.974" height="42.53" fill="white" transform="translate(25.8672 0.371094)"/>
</clipPath>
</defs>
</svg>
