<svg width="166" height="36" viewBox="0 0 166 36" fill="none" xmlns="http://www.w3.org/2000/svg">
<g clip-path="url(#clip0_1_200)">
<g clip-path="url(#clip1_1_200)">
<g clip-path="url(#clip2_1_200)">
<g clip-path="url(#clip3_1_200)">
<mask id="mask0_1_200" style="mask-type:luminance" maskUnits="userSpaceOnUse" x="20" y="0" width="125" height="36">
<path d="M144.883 0.181641H20.8281V35.1009H144.883V0.181641Z" fill="white"/>
</mask>
<g mask="url(#mask0_1_200)">
<path d="M57.2496 0.25H21.7395C21.5189 0.25 21.2984 0.335789 21.1513 0.482855C20.992 0.629923 20.9062 0.8015 20.9062 1.0221V34.2592C20.9062 34.4676 20.992 34.6635 21.1513 34.8105C21.2984 34.9578 21.5189 35.0313 21.7272 35.0313H57.2496C57.4701 35.0313 57.6785 34.9578 57.8377 34.8105C57.9971 34.6635 58.0706 34.4797 58.0706 34.2592V1.0221C58.0706 0.813756 57.9847 0.617667 57.8377 0.482855C57.6661 0.323534 57.4701 0.25 57.2496 0.25ZM45.6823 22.6654C45.6823 22.8737 45.5966 23.0698 45.4496 23.2169C45.278 23.3639 45.082 23.4374 44.8615 23.4374H34.1276C33.907 23.4374 33.6987 23.3639 33.5394 23.2169C33.3801 23.0698 33.2944 22.886 33.2944 22.6654V12.6158C33.2944 12.4198 33.3801 12.2114 33.5394 12.0766C33.6987 11.9295 33.907 11.8437 34.1276 11.8437H44.8615C45.082 11.8437 45.2904 11.9295 45.4496 12.0766C45.6088 12.2237 45.6823 12.3953 45.6823 12.6158V22.6654ZM131.603 11.8437H120.869C120.403 11.8437 120.035 12.1992 120.035 12.6158V22.6654C120.035 23.0943 120.403 23.4374 120.869 23.4374H131.603C132.056 23.4374 132.424 23.0943 132.424 22.6654V12.6158C132.424 12.1869 132.056 11.8437 131.603 11.8437ZM119.215 0.25H108.481C108.027 0.25 107.647 0.593154 107.647 1.0221V11.0717C107.647 11.5006 108.027 11.8437 108.481 11.8437H119.215C119.668 11.8437 120.035 11.5006 120.035 11.0717V1.0221C120.035 0.593154 119.668 0.25 119.215 0.25ZM144.003 0.25H133.257C132.803 0.25 132.436 0.593154 132.436 1.0221V11.0717C132.436 11.5006 132.803 11.8437 133.257 11.8437H144.003C144.456 11.8437 144.824 11.5006 144.824 11.0717V1.0221C144.824 0.593154 144.456 0.25 144.003 0.25ZM119.215 23.4374H108.481C108.027 23.4374 107.647 23.7928 107.647 24.2096V34.2592C107.647 34.6881 108.027 35.0313 108.481 35.0313H119.215C119.668 35.0313 120.035 34.6881 120.035 34.2592V24.2096C120.035 23.7928 119.668 23.4374 119.215 23.4374ZM144.003 23.4374H133.257C132.803 23.4374 132.436 23.7928 132.436 24.2096V34.2592C132.436 34.6881 132.803 35.0313 133.257 35.0313H144.003C144.456 35.0313 144.824 34.6881 144.824 34.2592V24.2096C144.824 23.7928 144.456 23.4374 144.003 23.4374ZM100.614 0.25H89.8802C89.4267 0.25 89.0591 0.593154 89.0591 1.0221V11.0717C89.0591 11.5006 89.4267 11.8437 89.8802 11.8437H100.614C101.067 11.8437 101.447 11.5006 101.447 11.0717V1.0221C101.447 0.593154 101.067 0.25 100.614 0.25ZM100.614 23.4374H89.8802C89.4267 23.4374 89.0591 23.7928 89.0591 24.2096V34.2592C89.0591 34.6881 89.4267 35.0313 89.8802 35.0313H100.614C101.067 35.0313 101.447 34.6881 101.447 34.2592V24.2096C101.447 23.7928 101.067 23.4374 100.614 23.4374ZM89.047 12.6158C89.047 12.4075 88.961 12.2114 88.8018 12.0643C88.6426 11.905 88.4464 11.8315 88.2259 11.8315H76.6589V1.0221C76.6589 0.813756 76.573 0.617667 76.4138 0.482855C76.2543 0.323534 76.0584 0.25 75.8378 0.25H65.0917C64.8711 0.25 64.6628 0.335789 64.5157 0.482855C64.3565 0.629923 64.2706 0.8015 64.2706 1.0221V34.2468C64.2706 34.4551 64.3565 34.6513 64.5157 34.7862C64.6628 34.9332 64.8711 35.0189 65.0917 35.0189H75.8378C76.0584 35.0189 76.2667 34.9332 76.4138 34.7862C76.573 34.6513 76.6589 34.4551 76.6589 34.2468V23.4374H88.2259C88.4464 23.4374 88.6548 23.3518 88.8018 23.2047C88.9734 23.0576 89.047 22.8737 89.047 22.6531V12.6158Z" fill="#9BA3AE"/>
</g>
</g>
</g>
</g>
</g>
<defs>
<clipPath id="clip0_1_200">
<rect width="165.416" height="34.9192" fill="white" transform="translate(0.140625 0.181641)"/>
</clipPath>
<clipPath id="clip1_1_200">
<rect width="124.062" height="34.9192" fill="white" transform="translate(20.8203 0.181641)"/>
</clipPath>
<clipPath id="clip2_1_200">
<rect width="124.062" height="34.9192" fill="white" transform="translate(20.8203 0.181641)"/>
</clipPath>
<clipPath id="clip3_1_200">
<rect width="124.055" height="34.9192" fill="white" transform="translate(20.8281 0.181641)"/>
</clipPath>
</defs>
</svg>
