<svg width="23" height="23" viewBox="0 0 23 23" fill="none" xmlns="http://www.w3.org/2000/svg">
<path fill-rule="evenodd" clip-rule="evenodd" d="M3.38218 0.0776367C1.90841 0.0776367 0.713684 1.27237 0.713684 2.74614V19.6466C0.713684 21.1204 1.90841 22.3151 3.38219 22.3151H20.2827C21.7565 22.3151 22.9512 21.1204 22.9512 19.6466V2.74614C22.9512 1.27236 21.7565 0.0776367 20.2827 0.0776367H3.38218ZM13.0237 4.84326C13.0237 4.18533 12.4903 3.65197 11.8324 3.65197C11.1745 3.65197 10.6411 4.18533 10.6411 4.84326V10.0055H5.47882C4.82089 10.0055 4.28753 10.5389 4.28753 11.1968C4.28753 11.8548 4.82089 12.3881 5.47882 12.3881H10.6411V17.5504C10.6411 18.2083 11.1745 18.7417 11.8324 18.7417C12.4903 18.7417 13.0237 18.2083 13.0237 17.5504V12.3881H18.186C18.8439 12.3881 19.3773 11.8548 19.3773 11.1968C19.3773 10.5389 18.8439 10.0055 18.186 10.0055H13.0237V4.84326Z" fill="white"/>
</svg>
