<svg width="125" height="25" viewBox="0 0 125 25" fill="none" xmlns="http://www.w3.org/2000/svg">
<path fill-rule="evenodd" clip-rule="evenodd" d="M23.9795 20.1485C20.98 23.411 16.6403 23.9529 12.8709 22.4357C9.01025 20.8273 5.88523 16.9431 6.0335 12.7053C5.90234 9.35728 8.4628 5.95792 11.987 5.97504C7.33369 9.63676 8.28032 18.2835 14.0799 20.2512C17.4501 21.4319 21.7042 20.1086 23.3694 16.156H26.2549C25.7816 17.6561 25.0003 19.0249 23.9795 20.1485ZM4.76753 20.1428C-1.97863 12.7053 3.70114 -0.12214 14.2281 1.89694C17.8322 2.62701 20.6663 5.27349 21.8126 8.901H18.9271C18.1173 7.01309 16.5662 5.46741 14.633 4.80579C11.6734 3.77343 8.17768 4.70313 6.28442 7.24124C5.1496 8.42759 4.4938 10.5037 4.45959 12.3916C4.45959 12.3118 4.45959 12.4658 4.45959 12.3916C4.2771 16.8005 7.00294 20.9642 10.8066 23.1658C8.47421 22.8806 6.36425 21.8311 4.76753 20.1428ZM23.0842 3.98447C24.6125 5.26208 25.6732 6.95036 26.1865 8.901H23.4492C22.6109 5.86096 20.7576 3.36848 18.2656 1.8285C20.0733 2.10798 21.7156 2.83804 23.0785 3.98447H23.0842ZM17.4843 18.3633C18.0831 17.7188 18.5621 16.9716 18.9271 16.1389H21.6244C20.5466 18.158 18.3739 19.1105 16.7145 19.082C16.9825 18.8595 17.2448 18.62 17.49 18.3576L17.4843 18.3633ZM28.0854 14.5704H17.8322C17.2904 16.3842 16.11 17.9812 14.3422 18.6656C9.35241 16.6864 9.35811 8.34204 14.3707 6.3914C16.1271 7.08724 17.2904 8.67285 17.8322 10.4752H28.0911C28.0911 7.38383 26.118 4.46928 24.0936 2.7753C21.516 0.579405 17.8036 -0.310361 14.3821 0.322742C10.4701 -0.430137 6.29012 0.853179 3.62701 3.76773C-0.769687 8.26789 -0.798199 16.7492 3.62701 21.2208C6.40417 24.2437 10.7324 25.3331 14.8098 24.6373C18.4366 25.2362 22.3258 24.3065 25.1429 21.2094C25.1429 21.2037 25.1429 21.2037 25.1486 21.198C26.5628 19.6409 27.92 17.3481 28.0854 14.5704Z" fill="#F5F5F5"/>
<path d="M42.3786 16.6743C44.7053 16.6743 46.4617 15.3967 46.9179 13.2521H44.6825C44.4087 14.2788 43.5876 14.9632 42.3786 14.9632C40.7591 14.9632 39.6186 13.5944 39.6186 11.5639C39.6186 9.57901 40.7591 8.25577 42.3786 8.25577C43.4963 8.25577 44.2947 8.80331 44.6369 9.78434H46.8723C46.4161 7.79948 44.7053 6.54468 42.3786 6.54468C39.4817 6.54468 37.52 8.6208 37.52 11.5639C37.52 14.5982 39.5045 16.6743 42.3786 16.6743Z" fill="#F5F5F5"/>
<path d="M53.1929 16.6743C56.1354 16.6743 58.1199 14.5754 58.1199 11.5639C58.1199 8.6208 56.0898 6.54468 53.1929 6.54468C50.2732 6.54468 48.2659 8.6208 48.2659 11.5639C48.2659 14.5982 50.2732 16.6743 53.1929 16.6743ZM53.1929 14.872C51.5506 14.872 50.3644 13.5259 50.3644 11.5639C50.3644 9.67026 51.5506 8.32421 53.1929 8.32421C54.8353 8.32421 55.9986 9.69308 55.9986 11.5639C55.9986 13.5031 54.8353 14.872 53.1929 14.872Z" fill="#F5F5F5"/>
<path d="M64.9735 6.52148C63.7645 6.52148 62.9205 6.88652 62.0537 8.05006V6.704H60.0008V20.0505H62.0537V15.1682C62.9433 16.3317 63.7873 16.6739 64.9735 16.6739C67.551 16.6739 69.2846 14.575 69.2846 11.5863C69.2846 8.5976 67.551 6.52148 64.9735 6.52148ZM64.5629 8.30102C66.1824 8.30102 67.2089 9.6927 67.2089 11.5863C67.2089 13.4799 66.1824 14.8716 64.5629 14.8716C62.9661 14.8716 61.8484 13.5255 61.8484 11.5863C61.8484 9.66989 62.9661 8.30102 64.5629 8.30102Z" fill="#F5F5F5"/>
<path d="M76.175 6.52148C74.966 6.52148 74.1221 6.88652 73.2553 8.05006V6.704H71.2023V20.0505H73.2553V15.1682C74.1449 16.3317 74.9889 16.6739 76.175 16.6739C78.7526 16.6739 80.4861 14.575 80.4861 11.5863C80.4861 8.5976 78.7526 6.52148 76.175 6.52148ZM75.7644 8.30102C77.3839 8.30102 78.4104 9.6927 78.4104 11.5863C78.4104 13.4799 77.3839 14.8716 75.7644 14.8716C74.1677 14.8716 73.05 13.5255 73.05 11.5863C73.05 9.66989 74.1677 8.30102 75.7644 8.30102Z" fill="#F5F5F5"/>
<path d="M86.8746 16.6743C89.4521 16.6743 90.9348 15.1229 91.5051 13.2521H89.3837C89.0416 14.1191 88.1748 14.872 86.943 14.872C85.8025 14.872 84.8901 14.2104 84.4339 13.1153C84.2514 12.8187 84.1601 12.408 84.0917 12.0202H91.6876V11.4954C91.6876 8.11888 89.3381 6.54468 86.829 6.54468C83.6127 6.54468 81.9932 9.07709 81.9932 11.6551C81.9932 14.5298 83.9549 16.6743 86.8746 16.6743ZM84.2286 10.4003C84.2742 10.1494 84.3654 9.78434 84.5707 9.46493C85.0498 8.64361 85.8709 8.21014 86.8974 8.21014C87.8782 8.21014 88.745 8.64361 89.224 9.46493C89.4065 9.76152 89.4978 10.1266 89.5434 10.4003H84.2286Z" fill="#F5F5F5"/>
<path d="M95.6072 16.4918V11.7692C95.6072 10.5144 95.8809 9.69308 96.4284 9.16835C96.839 8.75768 97.4092 8.55235 98.2304 8.55235H98.755V6.54468H98.5269C97.318 6.54468 96.4284 6.8869 95.6072 7.93636V6.70438H93.5543V16.4918H95.6072Z" fill="#F5F5F5"/>
<path d="M101.244 16.6744C101.928 16.6744 102.499 16.0812 102.499 15.3968C102.499 14.7123 101.928 14.1191 101.244 14.1191C100.537 14.1191 99.9438 14.6895 99.9438 15.3968C99.9438 16.104 100.537 16.6744 101.244 16.6744Z" fill="#F5F5F5"/>
<path d="M108.923 16.6743C111.249 16.6743 113.006 15.3967 113.462 13.2521H111.227C110.953 14.2788 110.132 14.9632 108.923 14.9632C107.303 14.9632 106.163 13.5944 106.163 11.5639C106.163 9.57901 107.303 8.25577 108.923 8.25577C110.04 8.25577 110.839 8.80331 111.181 9.78434H113.416C112.96 7.79948 111.249 6.54468 108.923 6.54468C106.026 6.54468 104.064 8.6208 104.064 11.5639C104.064 14.5982 106.049 16.6743 108.923 16.6743Z" fill="#F5F5F5"/>
<path d="M119.739 16.6743C122.681 16.6743 124.666 14.5754 124.666 11.5639C124.666 8.6208 122.635 6.54468 119.739 6.54468C116.819 6.54468 114.812 8.6208 114.812 11.5639C114.812 14.5982 116.819 16.6743 119.739 16.6743ZM119.739 14.872C118.096 14.872 116.91 13.5259 116.91 11.5639C116.91 9.67026 118.096 8.32421 119.739 8.32421C121.381 8.32421 122.544 9.69308 122.544 11.5639C122.544 13.5031 121.381 14.872 119.739 14.872Z" fill="#F5F5F5"/>
</svg>
