<svg width="141" height="23" viewBox="0 0 141 23" fill="none" xmlns="http://www.w3.org/2000/svg">
<path d="M76.2229 4.95469V9.59961C76.9884 8.58617 78.094 8.07945 79.5398 8.07945C80.2202 8.07945 80.8156 8.16391 81.3258 8.41727C81.9212 8.58617 82.4315 8.92398 82.8567 9.34625C83.367 9.76852 83.7072 10.2752 83.9623 10.8664C84.2175 11.4576 84.3025 12.2177 84.3025 13.0622C84.3025 13.9912 84.1324 14.8357 83.7922 15.6802C83.4521 16.4403 82.9418 17.1159 82.1763 17.6227C81.4109 18.1294 80.5604 18.3827 79.4548 18.3827C77.9239 18.3827 76.8183 17.876 76.1379 16.947V18.1294H73.1612V4.95469H76.2229ZM64.9115 7.82609C68.0796 7.83324 70.1845 13.9912 70.1845 13.9912H62.36C62.7002 15.1735 63.7208 16.018 65.1666 16.018C66.9527 16.018 67.8882 15.0046 67.8882 15.0046L69.5892 16.6937C68.7387 17.5382 67.548 18.2983 65.1666 18.2983C61.5096 18.2983 59.5534 15.8491 59.5534 13.3155C59.5534 10.782 61.9158 7.81934 64.9115 7.82609ZM136.437 7.74164C138.904 7.74164 140.52 8.67063 140.52 8.67063L139.414 10.8664C136.097 9.17734 134.651 10.3597 134.651 10.9509C134.651 11.542 135.247 11.6265 137.543 12.0487C139.839 12.471 140.86 13.4 140.86 14.9202C140.86 16.4403 139.499 18.1294 136.267 18.1294C133.035 18.1294 131.589 17.1159 131.589 17.1159L132.61 15.0046C135.162 16.6092 138.053 16.1025 138.053 15.1735C138.053 14.4979 137.118 14.329 136.097 14.1601L135.672 14.0756C135.502 14.0756 135.247 13.9912 135.076 13.9912C133.801 13.8223 131.845 13.0622 131.845 11.1198C131.76 9.09289 133.971 7.74164 136.437 7.74164ZM121.979 4.19461V12.1332L126.316 8.07945H129.803L125.551 12.1332L130.229 18.2138H126.742L123.51 14.0756L121.979 15.5113V18.2138H119.087V4.19461H121.979ZM111.688 7.74164C113.729 7.74164 115.515 8.75508 116.536 10.2752L114.07 11.7109C113.644 10.8664 112.709 10.2752 111.688 10.2752C110.157 10.2752 108.967 11.4576 108.967 12.9777C108.967 14.4979 110.157 15.6802 111.688 15.6802C112.709 15.6802 113.559 15.1735 113.984 14.329L116.451 15.6802C115.43 17.1159 113.729 18.1294 111.688 18.1294C108.541 18.1294 106.075 15.7647 106.075 12.8933C105.99 10.0219 108.541 7.74164 111.688 7.74164ZM98.3355 7.74164C101.482 7.74164 103.949 10.1063 103.949 12.9777C103.949 15.8491 101.397 18.2138 98.3355 18.2138C95.1887 18.2138 92.7223 15.8491 92.7223 12.9777C92.6373 10.0219 95.1887 7.74164 98.3355 7.74164ZM47.2214 7.995V18.0449H44.0746V7.995H47.2214ZM41.3531 4.95469V7.48828H34.3791V10.8664H40.5026V13.3155H34.3791V18.0449H31.2323V4.95469H41.3531ZM53.9402 9.2618C53.9402 9.2618 55.0459 7.57273 57.3422 7.82609V10.613C57.3422 10.613 54.8758 10.0219 53.9402 12.5555V18.1294H50.9635V7.995H53.7701L53.9402 9.2618ZM89.6606 4.19461V18.0449H86.5138V4.19461H89.6606ZM78.6893 10.2752C76.9884 10.2752 76.1379 11.2887 76.1379 13.4C76.1379 14.1601 76.393 14.8357 76.8183 15.4269C77.2435 15.9336 77.9239 16.187 78.8594 16.187C79.4548 16.187 79.9651 16.018 80.3053 15.7647C80.6455 15.4269 80.9006 15.0891 81.0707 14.6668C81.2408 14.2445 81.3258 13.7378 81.3258 13.3155C81.3258 12.471 81.1557 11.7109 80.7305 11.2042C80.2202 10.5286 79.5398 10.2752 78.6893 10.2752ZM98.3355 10.1908C96.8047 10.1908 95.614 11.3731 95.614 12.8933C95.614 14.4134 96.8047 15.5958 98.3355 15.5958C99.8664 15.5958 101.057 14.4134 101.057 12.8933C100.972 11.4576 99.7814 10.1908 98.3355 10.1908ZM64.9115 9.93742C63.3806 9.93742 62.5301 10.8664 62.275 12.0487H67.3779C67.3779 11.7954 66.8676 9.93742 64.9115 9.93742ZM45.6905 3.26562C46.7111 3.26562 47.5616 4.0257 47.5616 4.95469C47.5616 5.88367 46.7111 6.64375 45.6905 6.64375C44.67 6.64375 43.8195 5.88367 43.8195 4.95469C43.8195 4.0257 44.67 3.26562 45.6905 3.26562Z" fill="#F5F5F5"/>
<path d="M20.7915 0.917969C21.3018 0.917969 21.642 1.25578 21.642 1.7625V21.1867C21.642 21.6934 21.3018 22.0312 20.7915 22.0312H0.97524C0.46495 22.0312 0.124756 21.6934 0.124756 21.1867V1.7625C0.124756 1.25578 0.46495 0.917969 0.97524 0.917969H20.7915ZM10.9259 6.74523L4.97252 16.1195H16.9643L10.9259 6.74523Z" fill="#F5F5F5"/>
</svg>
