<svg width="135" height="31" viewBox="0 0 135 31" fill="none" xmlns="http://www.w3.org/2000/svg">
<path fill-rule="evenodd" clip-rule="evenodd" d="M1.10638 1.44764C4.44879 5.51186 8.11867 10.6178 8.71225 11.4436C8.74391 11.4876 8.76681 11.5195 8.78045 11.5384C9.09687 11.9766 9.35809 12.3023 9.55646 12.5496C9.99685 13.0987 10.1275 13.2617 9.86477 13.4114C9.6528 13.5321 9.43415 13.5719 9.21597 13.5719C8.96919 13.5719 8.69116 13.4528 8.48872 13.2604C8.34563 13.1245 7.36651 11.6998 6.03324 9.62723C5.01311 8.04137 4.15938 6.72583 4.13609 6.70381C4.08225 6.65286 4.08317 6.65459 5.92923 9.96379C7.0884 12.0417 7.88131 13.5773 7.88131 13.6756C7.88131 13.8754 7.82688 13.9804 7.58083 14.2554C7.17065 14.7139 6.98727 15.229 6.85491 16.2951C6.70652 17.4901 6.28926 18.3344 5.1329 19.7791C4.45601 20.6249 4.34525 20.7799 4.17445 21.1208C3.95933 21.5501 3.90016 21.7905 3.87618 22.3326C3.85084 22.9057 3.9002 23.276 4.07497 23.8239C4.22799 24.3036 4.3877 24.6205 4.796 25.254C5.14836 25.8007 5.35125 26.207 5.35125 26.366C5.35125 26.4925 5.37535 26.4926 5.92136 26.3692C7.22803 26.0735 8.28904 25.5536 8.88577 24.9164C9.25508 24.522 9.3418 24.3043 9.3446 23.7639C9.34645 23.4104 9.33403 23.3364 9.23867 23.133C9.0834 22.8019 8.80076 22.5268 8.17781 22.1002C7.36156 21.5411 7.01293 21.0911 6.91663 20.4721C6.83764 19.9643 6.92929 19.606 7.38084 18.6579C7.84821 17.6765 7.96404 17.2582 8.04238 16.2689C8.09298 15.6298 8.16306 15.3778 8.34635 15.1755C8.53752 14.9646 8.7096 14.8931 9.18267 14.8282C9.95394 14.7228 10.4451 14.5228 10.8487 14.1502C11.1989 13.8269 11.3455 13.5153 11.368 13.0464L11.385 12.6909L11.1893 12.4623C10.4806 11.6345 0.631774 0.796875 0.58816 0.796875C0.578843 0.796875 0.812053 1.08974 1.10638 1.44764ZM5.74908 22.9811C5.90932 22.6967 5.82418 22.3313 5.55614 22.1527C5.3029 21.984 4.9095 22.0635 4.9095 22.2833C4.9095 22.3504 4.94652 22.3992 5.02998 22.4423C5.17049 22.5148 5.1807 22.5962 5.07014 22.7627C4.95817 22.9313 4.9672 23.0795 5.09563 23.1802C5.30262 23.3426 5.59562 23.2533 5.74908 22.9811ZM10.572 7.47772C10.2558 7.42858 10.2425 7.42282 10.3913 7.39991C10.6764 7.35597 11.3497 7.41585 11.8137 7.52638C12.8968 7.78431 13.8824 8.44509 14.9344 9.61863L15.2139 9.9304L15.6138 9.866C17.2983 9.5948 19.0119 9.81033 20.4451 10.4737C20.8395 10.6562 21.4611 11.0194 21.5388 11.1128C21.5634 11.1425 21.609 11.334 21.6397 11.5384C21.7462 12.2454 21.6929 12.7873 21.477 13.1921C21.3596 13.4123 21.3531 13.4821 21.432 13.6706C21.495 13.821 21.6708 13.9324 21.8448 13.9321C22.201 13.9316 22.5843 13.3548 22.762 12.5522L22.8325 12.2334L22.9723 12.392C23.7389 13.2623 24.3412 14.4491 24.4446 15.2939L24.4715 15.5141L24.3428 15.3139C24.1209 14.9694 23.8981 14.7348 23.6127 14.5456C23.0983 14.2046 22.5543 14.0886 21.1139 14.0125C19.8129 13.9438 19.0767 13.8325 18.3466 13.594C17.1042 13.1882 16.4781 12.6478 15.0025 10.7083C14.3471 9.84677 13.942 9.37013 13.539 8.98628C12.6234 8.11411 11.7237 7.65669 10.572 7.47772ZM21.8322 9.40121C21.8649 8.82393 21.9431 8.44317 22.1002 8.09544C22.1624 7.9578 22.2206 7.84514 22.2295 7.84514C22.2386 7.84514 22.2116 7.94674 22.1695 8.07089C22.0553 8.40837 22.0365 8.86994 22.1152 9.40697C22.215 10.0884 22.2719 10.1867 22.9907 10.9228C23.3279 11.268 23.7201 11.7034 23.8623 11.8904L24.1209 12.2303L23.8623 11.9874C23.5462 11.6903 22.8191 11.1109 22.6586 11.0281C22.5508 10.9726 22.5348 10.9735 22.4685 11.0398C22.4073 11.1008 22.3943 11.1925 22.3858 11.6261C22.3726 12.3018 22.2807 12.7355 22.0588 13.1692C21.9388 13.4037 21.9198 13.3537 22.0284 13.0889C22.1095 12.8912 22.1178 12.8043 22.1172 12.1502C22.1159 10.8359 21.9601 10.5199 21.0467 9.97865C20.8155 9.84153 20.4341 9.64378 20.1996 9.53917C19.9651 9.43457 19.7787 9.34346 19.7854 9.33666C19.8114 9.31086 20.7022 9.57134 21.0607 9.70949C21.594 9.91501 21.6819 9.94165 21.7467 9.91685C21.7901 9.90023 21.8111 9.77357 21.8322 9.40121ZM10.2331 8.39219C10.1472 9.40691 10.5443 10.7643 11.1862 11.6496C11.6837 12.3359 12.455 12.8692 13.0245 12.9207C13.3973 12.9544 13.5094 12.8375 13.3407 12.5907C13.1065 12.2481 12.8185 11.7205 12.7423 11.4946C12.6949 11.3543 12.592 10.9398 12.5136 10.5736C12.2459 9.32308 11.9827 8.83611 11.3748 8.46624C11.1533 8.33143 10.6802 8.15503 10.4058 8.1049L10.2597 8.07817L10.2331 8.39219ZM21.0537 18.2386C18.054 17.0286 16.9975 15.9783 16.9975 14.2062C16.9975 13.9454 17.0065 13.7321 17.0174 13.7321C17.0284 13.7321 17.1444 13.8181 17.2753 13.9233C17.8835 14.4121 18.5647 14.6209 20.4504 14.8964C21.5599 15.0587 22.1844 15.1896 22.7605 15.3811C24.5913 15.9894 25.7241 17.2238 25.9942 18.9054C26.0727 19.3939 26.0267 20.3101 25.8994 20.793C25.7989 21.1744 25.4923 21.8618 25.411 21.8882C25.3884 21.8956 25.3663 21.809 25.3605 21.6912C25.3297 21.0598 25.0112 20.4452 24.4764 19.9847C23.8683 19.4611 23.0512 19.0444 21.0537 18.2386ZM18.8029 18.1054C18.845 18.2311 18.9102 18.5171 18.9477 18.7413C19.188 20.1738 18.4375 21.3312 16.9774 21.7797C16.8228 21.8271 16.214 21.9466 15.6244 22.0449C14.4309 22.2439 13.8982 22.385 13.3631 22.6432C12.9836 22.8264 12.5241 23.1007 12.5514 23.1279C12.5602 23.1368 12.6469 23.116 12.7439 23.0819C13.4187 22.8445 14.1697 22.7216 15.3108 22.6621C15.7636 22.6386 16.2787 22.601 16.4554 22.5788C17.4719 22.4505 18.1765 22.1411 18.7244 21.5824C19.0293 21.2715 19.211 20.9819 19.3575 20.5735C19.4504 20.3144 19.4629 20.2182 19.4636 19.7592C19.4644 19.2915 19.4531 19.2059 19.3525 18.9182C19.2208 18.5411 19.0654 18.2581 18.8686 18.0367L18.7264 17.8769L18.8029 18.1054ZM20.3229 21.1879C19.9243 20.3295 19.8328 19.5008 20.0511 18.728C20.0745 18.6453 20.112 18.5777 20.1347 18.5777C20.1573 18.5777 20.2513 18.6287 20.3437 18.6909C20.5272 18.8148 20.8956 19.0234 21.8769 19.5594C23.1015 20.2283 23.7997 20.7461 24.2745 21.338C24.6902 21.8562 24.9475 22.4463 25.0713 23.1661C25.1416 23.5738 25.1004 24.5548 24.996 24.9652C24.6668 26.2597 23.9016 27.2764 22.8102 27.8697C22.6503 27.9566 22.5068 28.0279 22.4912 28.0283C22.4757 28.0286 22.534 27.8802 22.6207 27.6984C22.9878 26.9295 23.0296 26.1816 22.7521 25.3492C22.582 24.8394 22.2355 24.2175 21.5358 23.1662C20.7224 21.9441 20.5229 21.6188 20.3229 21.1879ZM12.8157 24.0032C11.5541 24.2085 10.1691 24.8773 9.05593 25.8189L8.72453 26.0993L9.01578 26.1449C10.5356 26.3826 10.9449 26.5934 11.9991 27.6814C12.6058 28.3074 12.8107 28.4468 13.3139 28.5755C14.053 28.7645 14.7815 28.4172 15.0315 27.7566C15.1431 27.4615 15.1282 26.9728 15.0001 26.7274C14.6954 26.143 13.8077 25.9541 13.3784 26.3822C13.0209 26.7387 13.1251 27.2758 13.5698 27.3682C13.6716 27.3895 13.6687 27.3849 13.5438 27.3283C13.3492 27.2401 13.2647 27.1179 13.2636 26.9234C13.2611 26.4673 13.782 26.2113 14.2667 26.4303C14.6215 26.5908 14.7624 26.8004 14.7624 27.1678C14.7624 27.7337 14.2817 28.1601 13.7223 28.0904C13.4233 28.053 13.0576 27.8614 12.8615 27.6394C12.3681 27.0805 12.5603 26.1984 13.2492 25.86C13.7737 25.6024 14.4708 25.6659 15.0114 26.0205C15.6325 26.4281 15.8966 26.8005 16.4316 28.0229C16.6058 28.4209 16.8299 28.869 16.9296 29.0186C17.4364 29.7785 18.0436 30.1513 18.7749 30.1513C19.1783 30.1513 19.4817 30.0774 19.8635 29.8865C20.1471 29.7445 20.5493 29.4748 20.5203 29.4459C20.5121 29.4378 20.3944 29.4744 20.2588 29.5273C19.4603 29.8394 18.6485 29.8179 18.1771 29.4722C17.8802 29.2546 17.6407 28.821 17.5177 28.2788C17.4963 28.1849 17.4261 27.7705 17.3614 27.3577C17.1975 26.3114 17.0401 25.8411 16.6731 25.3013C16.2976 24.7492 15.5758 24.2857 14.7687 24.0788C14.2652 23.9497 13.3594 23.9145 12.8157 24.0032ZM11.0488 15.9138C11.1577 15.5106 11.5097 15.1262 11.8718 15.0147C12.102 14.944 12.5779 14.9892 12.8017 15.1031C13.2353 15.324 13.5501 15.8271 13.4818 16.1903C13.3985 16.6331 12.6817 16.9874 11.8571 16.9932C11.4359 16.9961 11.2804 16.9394 11.1196 16.7243C11.02 16.5911 10.9823 16.1597 11.0488 15.9138ZM12.6909 15.261C12.9072 15.3933 12.9628 15.5889 12.8357 15.7699C12.7481 15.8946 12.4769 16.013 12.2788 16.013C11.9811 16.013 11.6563 15.8012 11.6563 15.6073C11.6563 15.2175 12.2791 15.0089 12.6909 15.261ZM77.3235 16.3769C76.6508 14.1577 77.7602 12.3168 80.1272 11.7253C80.806 11.5556 83.8798 11.6322 84.4064 11.832C84.5999 11.9052 84.6841 12.1863 84.6859 12.7639C84.6872 13.2188 84.7372 13.7713 84.7968 13.9917C84.8874 14.3256 84.8345 14.3913 84.4792 14.386C84.1578 14.381 83.9635 14.1942 83.6921 13.629C83.2587 12.7263 82.734 12.4392 81.5111 12.4358C79.95 12.4314 78.8078 13.4739 78.9937 14.7335C79.1148 15.5532 79.9406 16.3598 81.7935 17.4685C83.5566 18.5232 84.5857 19.3906 84.9956 20.1677C86.092 22.2453 85.1558 24.4687 82.7131 25.5889C81.4591 26.1639 79.3577 26.2233 77.8802 25.7256L76.934 25.4068V23.9074C76.934 22.5493 76.9667 22.4076 77.2787 22.4076C77.5398 22.4076 77.6526 22.5788 77.7441 23.1149C77.9722 24.4481 78.9936 25.2574 80.4483 25.2574C81.8734 25.2574 82.8696 24.4851 83.2512 23.0848C83.4137 22.4882 83.3857 22.2683 83.0633 21.6102C82.6769 20.8212 82.0117 20.2977 79.7521 19.0048C78.4983 18.2872 77.6117 17.3279 77.3235 16.3769ZM33.0299 12.6113C32.7216 12.6113 32.6013 12.5114 32.6013 12.255C32.6013 11.9157 32.7216 11.8988 35.1375 11.8988C37.3799 11.8988 37.6669 11.9323 37.6155 12.1875C37.5833 12.3464 37.2734 12.5667 36.9265 12.6774L36.2957 12.8784L36.2419 17.4204C36.2058 20.4511 36.2565 22.1994 36.3941 22.6747C36.8032 24.0883 38.0511 24.9012 39.8118 24.9012C41.0375 24.9012 41.7535 24.617 42.6531 23.7728C43.6207 22.8654 43.775 22.0031 43.772 17.5216C43.769 13.1011 43.6914 12.7363 42.7342 12.6446C42.2987 12.6027 42.1527 12.5021 42.1527 12.2438C42.1527 11.9218 42.2964 11.8988 44.3153 11.8988C46.3577 11.8988 46.4778 11.9186 46.4778 12.255C46.4778 12.4745 46.3567 12.6123 46.1624 12.6139C45.3278 12.6212 45.3124 12.7 45.2001 17.5472C45.0836 22.5809 44.9747 23.1768 43.9462 24.4099C43.6496 24.7656 42.9422 25.2821 42.3744 25.5578C41.449 26.007 41.1546 26.0585 39.5396 26.0556C38.0508 26.0526 37.5808 25.9812 36.8363 25.6452C35.7497 25.1545 35.043 24.5195 34.522 23.5653C34.1583 22.8992 34.1273 22.5388 34.0431 18.0259C33.9466 12.8603 33.8999 12.6113 33.0299 12.6113ZM49.8935 12.6113C49.4814 12.6113 49.3613 12.5308 49.3613 12.255C49.3613 11.9211 49.4764 11.8997 51.2084 11.9134L53.0557 11.928L53.9395 12.9376C54.4253 13.4928 56.0092 15.2296 57.459 16.7969C58.9088 18.3644 60.5734 20.1878 61.1578 20.849C61.7424 21.5104 62.2925 22.0514 62.3805 22.0514C62.4708 22.0514 62.5158 20.1833 62.4836 17.7609L62.4268 13.4705L61.9211 13.0409C61.643 12.8045 61.2175 12.6113 60.9751 12.6113C60.6527 12.6113 60.5346 12.5144 60.5346 12.25C60.5346 11.9022 60.6266 11.8906 63.0125 11.9384C65.0412 11.979 65.4904 12.0351 65.4904 12.2477C65.4904 12.3993 65.2395 12.5584 64.888 12.6294C64.5568 12.6964 64.1918 12.8439 64.0771 12.9572C63.929 13.1034 63.8536 14.9941 63.817 19.4774L63.7653 25.7917H63.243C62.7933 25.7917 62.2581 25.2899 59.3965 22.1849C57.5682 20.201 55.4341 17.8433 54.6541 16.9455C53.874 16.0476 53.175 15.3062 53.1007 15.298C52.8915 15.2748 52.9421 23.2969 53.156 24.0583C53.3229 24.6517 53.4376 24.7539 54.1464 24.9413C54.7171 25.0922 54.948 25.2452 54.948 25.4725C54.948 25.7643 54.7304 25.7917 52.425 25.7917C50.0781 25.7917 49.902 25.7685 49.902 25.4578C49.902 25.2304 50.0717 25.0904 50.4344 25.0186C51.5348 24.8011 51.6079 24.4559 51.6696 19.1789C51.7042 16.2235 51.6535 14.1555 51.5354 13.7225C51.328 12.9611 50.8112 12.6113 49.8935 12.6113ZM68.7901 12.6113C68.404 12.6113 68.2838 12.5267 68.2838 12.255C68.2838 11.9147 68.404 11.8988 70.9871 11.8988C73.57 11.8988 73.6903 11.9147 73.6903 12.255C73.6903 12.5163 73.57 12.6113 73.2396 12.6113C72.992 12.6113 72.6237 12.7748 72.4215 12.9746C72.0645 13.3275 72.0553 13.5029 72.1062 18.9561C72.1557 24.2794 72.1768 24.5874 72.5082 24.8267C72.7006 24.9657 73.0452 25.0793 73.2741 25.0793C73.57 25.0793 73.6903 25.182 73.6903 25.4356C73.6903 25.7759 73.57 25.7917 70.9871 25.7917C68.4655 25.7917 68.2838 25.7693 68.2838 25.4584C68.2838 25.2076 68.4607 25.0969 68.9978 25.012C70.0642 24.8434 70.1187 24.4984 70.0522 18.3409C69.9991 13.4098 69.9762 13.1023 69.646 12.8638C69.4535 12.7249 69.0684 12.6113 68.7901 12.6113ZM87.6464 12.6113C87.3999 12.6113 87.2124 12.4757 87.154 12.255C87.0631 11.9106 87.1487 11.8988 89.7463 11.8988C92.3123 11.8988 92.4325 11.9147 92.4325 12.255C92.4325 12.5288 92.3123 12.6113 91.9138 12.6113C90.7794 12.6113 90.8049 12.815 92.522 17.4731C93.3958 19.8442 94.2445 22.0966 94.4075 22.4783L94.704 23.1724L96.0804 19.5394C97.7008 15.2629 97.9112 14.472 97.6361 13.6921C97.4443 13.1485 96.6986 12.6113 96.1359 12.6113C95.9769 12.6113 95.8566 12.4581 95.8566 12.255C95.8566 11.9141 95.9769 11.8988 98.65 11.8988C101.323 11.8988 101.443 11.9141 101.443 12.255C101.443 12.5085 101.323 12.6113 101.027 12.6113C100.269 12.6113 99.9354 13.0106 100.044 13.7865C100.156 14.5852 103.256 23.169 103.386 23.0405C103.597 22.8316 107.03 13.5911 107.03 13.2309C107.03 12.7994 106.724 12.6113 106.024 12.6113C105.708 12.6113 105.588 12.5131 105.588 12.255C105.588 11.9186 105.708 11.8988 107.751 11.8988C109.585 11.8988 109.913 11.9409 109.913 12.1753C109.913 12.3274 109.689 12.5292 109.414 12.6237C108.796 12.8366 108.641 13.0795 107.866 15.0475C107.526 15.9117 106.461 18.6164 105.499 21.0576C104.538 23.4991 103.71 25.6031 103.659 25.7332C103.609 25.8635 103.311 25.9699 102.997 25.9699H102.426L101.132 22.6302C100.42 20.7936 99.5786 18.6175 99.2627 17.7947C98.7211 16.3846 98.6756 16.3234 98.4718 16.7259C98.353 16.961 97.4977 19.1409 96.5709 21.5703L94.8863 25.9873L94.2576 25.9341L93.6288 25.8809L91.2307 19.6607C89.8909 16.1856 88.6589 13.2575 88.4387 13.0259C88.2218 12.7978 87.8654 12.6113 87.6464 12.6113ZM123.681 12.6868C123.651 12.6191 123.651 12.376 123.651 12.376C123.651 12.376 123.644 12.2883 123.681 12.2415C123.718 12.1949 123.731 12.1936 123.864 12.1811L123.865 12.181C124.351 12.1351 125.328 12.0579 126.142 12.0226C126.217 12.0194 126.3 12.0156 126.39 12.0116L126.392 12.0115L126.393 12.0114L126.394 12.0114C127.29 11.9711 128.895 11.9171 129.998 11.9718C132.113 12.0766 133.618 13.091 134.131 14.7674C134.644 16.4437 134.373 18.0172 133.674 19.0189C132.975 20.0205 131.799 20.8829 129.845 20.8267C128.232 20.7804 127.801 20.4808 127.456 20.2415C127.383 20.1909 127.314 20.143 127.239 20.1008V22.2386C127.256 23.6965 127.268 24.3968 127.382 24.656C127.535 25.0049 127.882 25.2199 128.557 25.3847C128.557 25.3847 128.863 25.4558 128.942 25.5315C129.02 25.6073 129.02 25.7755 129.02 25.7755C129.02 25.7755 129.036 25.9329 128.973 26.013C128.91 26.0932 128.788 26.0772 128.788 26.0772L125.796 26.0533L123.993 26.0486C123.993 26.0486 123.804 26.0845 123.733 26.009C123.662 25.9334 123.668 25.7759 123.668 25.7759C123.668 25.7759 123.684 25.6063 123.767 25.5304C123.849 25.4544 124.157 25.3695 124.157 25.3695C124.853 25.1758 125.154 24.9709 125.312 24.5849C125.439 24.2737 125.44 23.6967 125.439 18.9875C125.437 14.5216 125.431 13.6885 125.328 13.4489C125.175 13.0943 124.792 13.0003 124.248 12.8665L124.247 12.8665C124.139 12.84 124.025 12.8119 123.905 12.7799C123.905 12.7799 123.711 12.7545 123.681 12.6868ZM132.39 16.3309C132.39 17.0632 132.377 18.2097 131.591 18.9425C130.805 19.6754 129.258 19.876 128.207 19.6719C127.876 19.6077 127.687 19.5085 127.541 19.4321L127.526 19.4245L127.257 19.284L127.242 16.7111C127.232 15.0989 127.249 14.0486 127.287 13.8984C127.322 13.0484 128.586 12.9426 129.204 12.9741C131.847 12.9741 132.313 15.1826 132.39 16.3309ZM115.382 11.9986C115.382 11.9986 115.253 12.0477 115.058 12.1213L114.352 12.4828L113.844 13.7409C113.565 14.4329 113.053 15.7032 112.708 16.5638C112.079 18.1313 111.664 19.1611 111.227 20.236C111.098 20.5522 110.71 21.515 110.364 22.3756C110.018 23.236 109.673 24.055 109.596 24.1955C109.583 24.2188 109.57 24.244 109.555 24.2705C109.362 24.6311 109.026 25.2574 108.433 25.3521C108.433 25.3521 108.106 25.3839 107.986 25.5022C107.865 25.6207 107.876 25.7175 107.876 25.7175V25.8666C107.876 25.8666 107.887 25.9389 107.956 25.9749C108.024 26.011 108.117 26.013 108.117 26.013L110.287 25.9886H112.531C112.531 25.9886 112.689 26.007 112.75 25.9566C112.812 25.9063 112.828 25.8317 112.828 25.8317V25.6746C112.828 25.6746 112.797 25.5043 112.708 25.4378C112.62 25.3714 112.287 25.3259 112.287 25.3259C111.389 25.2088 111.234 24.5352 111.345 23.9293C111.399 23.6317 111.76 22.5307 112.167 21.4222L112.307 21.0391L114.658 21.0213C115.951 21.0114 117.067 21.0181 117.138 21.0361C117.24 21.0616 117.383 21.3493 117.802 22.374C118.438 23.9266 118.489 24.1157 118.348 24.4062C118.339 24.4239 118.33 24.4434 118.32 24.4644C118.188 24.7453 117.932 25.2911 117.286 25.3467C117.286 25.3467 116.943 25.3584 116.858 25.46C116.773 25.5618 116.791 25.6788 116.791 25.6788V25.8341C116.791 25.8341 116.814 25.9253 116.858 25.9613C116.902 25.9974 116.977 25.9883 116.977 25.9883L119.11 25.9731L122.109 25.9729C122.109 25.9729 122.227 25.9854 122.259 25.9406C122.291 25.8957 122.298 25.8429 122.298 25.8429V25.6364C122.298 25.6364 122.285 25.5267 122.227 25.4661C122.169 25.4057 121.78 25.3418 121.78 25.3418C121.284 25.2623 121.036 24.8556 120.852 24.5527C120.805 24.4754 120.762 24.4049 120.72 24.3484C120.635 24.2329 120.33 23.6003 120.091 22.9919C119.852 22.3834 119.313 21.009 118.893 19.9377C118.474 18.8664 117.888 17.3719 117.592 16.6168C117.295 15.8615 116.733 14.4245 116.341 13.4235C116.277 13.2592 116.219 13.1116 116.167 12.9795L116.167 12.9789C115.904 12.3066 115.798 12.0353 115.769 11.9986C115.675 11.8793 115.382 11.9986 115.382 11.9986ZM115.243 16.0895C115.148 15.8612 114.981 15.4517 114.873 15.1795C114.675 14.6847 114.599 14.5708 114.538 14.673C114.52 14.7028 114.396 15.041 114.261 15.4245C113.392 17.9075 112.998 19.0255 112.919 19.2362C112.869 19.3686 112.828 19.5051 112.828 19.5395C112.828 19.579 113.536 19.6021 114.748 19.6021C115.804 19.6021 116.668 19.5891 116.668 19.5732C116.668 19.5573 116.573 19.3204 116.458 19.0464C116.343 18.7724 116.061 18.0884 115.832 17.5265C115.603 16.9645 115.338 16.3179 115.243 16.0895Z" fill="#F5F5F5"/>
</svg>
