<svg width="40" height="41" viewBox="0 0 40 41" fill="none" xmlns="http://www.w3.org/2000/svg">
<g clip-path="url(#clip0_1_682)">
<rect x="-0.00390625" y="0.236328" width="40" height="40" rx="4" fill="white"/>
<path d="M36.4609 0.236328H3.53131C1.57886 0.236328 -0.00390625 1.8191 -0.00390625 3.77154V36.6996C-0.00390625 38.6521 1.57886 40.2348 3.53131 40.2348H36.4609C38.4133 40.2348 39.9961 38.6521 39.9961 36.6996V3.77154C39.9961 1.8191 38.4133 0.236328 36.4609 0.236328Z" fill="#CCCDCE"/>
<path fill-rule="evenodd" clip-rule="evenodd" d="M30.5049 9.06848C31.9399 8.46425 33.4783 9.67771 33.2249 11.214L30.2321 29.3603C29.9435 31.1099 28.0218 32.1138 26.4166 31.2419C25.0734 30.5123 23.0806 29.3894 21.2845 28.2158C20.3876 27.6297 17.6415 25.7506 17.979 24.4129C18.2676 23.2691 22.8843 18.9717 25.5224 16.416C26.5587 15.4121 26.0867 14.8321 24.8629 15.7564C21.8269 18.0494 16.9527 21.5356 15.3408 22.5167C13.9186 23.3823 13.1761 23.53 12.2904 23.3823C10.673 23.1128 9.17356 22.6955 7.94934 22.188C6.29473 21.5021 6.37532 19.2283 7.94822 18.5661L30.5049 9.06848Z" fill="#15171A"/>
</g>
<defs>
<clipPath id="clip0_1_682">
<rect x="-0.00390625" y="0.236328" width="40" height="40" rx="4" fill="white"/>
</clipPath>
</defs>
</svg>
