<svg width="40" height="41" viewBox="0 0 40 41" fill="none" xmlns="http://www.w3.org/2000/svg">
<g clip-path="url(#clip0_1_679)">
<rect x="-0.00390625" y="0.236328" width="40" height="40" rx="4" fill="white"/>
<path d="M36.4609 0.236328H3.53131C1.57886 0.236328 -0.00390625 1.8191 -0.00390625 3.77154V36.6996C-0.00390625 38.6521 1.57886 40.2348 3.53131 40.2348H36.4609C38.4133 40.2348 39.9961 38.6521 39.9961 36.6996V3.77154C39.9961 1.8191 38.4133 0.236328 36.4609 0.236328Z" fill="#CCCDCE"/>
<path d="M26.666 9.76172H30.2205L22.455 18.6372L31.5905 30.7147H24.4375L18.835 23.3897L12.4245 30.7147H8.86789L17.1739 21.2213L8.41016 9.76172H15.7447L20.8089 16.457L26.666 9.76172ZM25.4185 28.587H27.388L14.6745 11.7775H12.561L25.4185 28.587Z" fill="#15171A"/>
</g>
<defs>
<clipPath id="clip0_1_679">
<rect x="-0.00390625" y="0.236328" width="40" height="40" rx="4" fill="white"/>
</clipPath>
</defs>
</svg>
