<svg width="31" height="32" viewBox="0 0 31 32" fill="none" xmlns="http://www.w3.org/2000/svg">
<g clip-path="url(#clip0_1_614)">
<path d="M16.8199 22.5388V24.9498H14.499V22.4487C11.9266 22.0356 10.0526 20.5334 9.90989 18.4642H12.5162C12.7865 19.6622 14.1948 20.4283 16.02 20.4283C17.7137 20.4283 18.9116 19.7148 18.9116 18.7496C18.9116 15.7678 10.0676 18.8059 10.0676 13.0864C10.0676 11.1223 11.9266 9.83799 14.499 9.58638V7.10405H16.8199V9.64271C19.3398 10.0183 21.0372 11.4453 21.1987 13.3756H18.6074C18.3934 12.4105 17.0715 11.6256 15.4642 11.6256C13.7141 11.6256 12.5725 12.2865 12.5725 13.1766C12.5725 15.9481 21.4127 13.0526 21.4127 18.8397C21.4127 20.7325 19.6965 22.306 16.8199 22.5388ZM15.6519 31.2101C12.649 31.2101 9.71347 30.3196 7.21661 28.6513C4.71975 26.9829 2.77369 24.6116 1.62451 21.8373C0.475329 19.0629 0.174651 16.0101 0.760497 13.0648C1.34634 10.1196 2.7924 7.41421 4.91581 5.29081C7.03921 3.1674 9.74459 1.72134 12.6898 1.1355C15.6351 0.549651 18.6879 0.850329 21.4623 1.99951C24.2366 3.14869 26.6079 5.09475 28.2763 7.59161C29.9446 10.0885 30.8351 13.024 30.8351 16.0269C30.8301 20.0522 29.2289 23.9112 26.3826 26.7576C23.5362 29.6039 19.6772 31.2051 15.6519 31.2101ZM15.6519 2.50741C12.978 2.50741 10.3642 3.30032 8.14089 4.78586C5.91761 6.2714 4.18478 8.38286 3.16152 10.8532C2.13826 13.3236 1.87053 16.0419 2.39218 18.6645C2.91384 21.287 4.20145 23.6959 6.09218 25.5867C7.98292 27.4774 10.3919 28.765 13.0144 29.2867C15.6369 29.8083 18.3553 29.5406 20.8256 28.5173C23.296 27.4941 25.4075 25.7612 26.893 23.538C28.3785 21.3147 29.1714 18.7008 29.1714 16.0269C29.1714 12.4413 27.7471 9.00259 25.2117 6.46719C22.6763 3.93178 19.2375 2.50741 15.6519 2.50741Z" fill="#F5F5F5"/>
</g>
<defs>
<clipPath id="clip0_1_614">
<rect width="30.3662" height="30.3662" fill="white" transform="translate(0.46875 0.84375)"/>
</clipPath>
</defs>
</svg>
