<?xml version="1.0" standalone="no"?>
<!DOCTYPE svg PUBLIC "-//W3C//DTD SVG 20010904//EN"
 "http://www.w3.org/TR/2001/REC-SVG-20010904/DTD/svg10.dtd">
<svg version="1.0" xmlns="http://www.w3.org/2000/svg"
 width="140.000000pt" height="140.000000pt" viewBox="0 0 140.000000 140.000000"
 preserveAspectRatio="xMidYMid meet">
<metadata>
Created by potrace 1.14, written by Peter Selinger 2001-2017
</metadata>
<g transform="translate(0.000000,140.000000) scale(0.100000,-0.100000)"
fill="#000000" stroke="none">
<path d="M156 1389 c-62 -15 -102 -46 -128 -97 l-23 -47 0 -545 0 -546 25 -49
c20 -38 37 -55 75 -75 l49 -25 546 0 546 0 49 25 c38 20 55 37 75 75 l25 49 0
546 0 546 -25 49 c-20 38 -37 55 -75 75 l-49 25 -526 1 c-289 1 -543 -2 -564
-7z"/>
</g>
</svg>
