<svg width="41" height="17" viewBox="0 0 41 17" fill="none" xmlns="http://www.w3.org/2000/svg">
<g clip-path="url(#clip0_142_12122)">
<path fill-rule="evenodd" clip-rule="evenodd" d="M19.5267 2.6345V6.71756H22.0447C22.6445 6.71756 23.1405 6.51597 23.5329 6.1128C23.9356 5.71056 24.1374 5.23086 24.1374 4.67556C24.1374 4.13147 23.9356 3.65736 23.5329 3.25419C23.1405 2.84075 22.6445 2.63357 22.0447 2.63357H19.5267V2.6345ZM19.5267 8.15479V12.8911H18.0225V1.19727H22.0119C23.0257 1.19727 23.8861 1.53511 24.5952 2.20986C25.3147 2.88462 25.6743 3.70683 25.6743 4.67556C25.6743 5.66669 25.3146 6.4945 24.5952 7.15806C23.8972 7.82255 23.0358 8.15386 22.0119 8.15386H19.5267V8.15479Z" fill="white"/>
<path fill-rule="evenodd" clip-rule="evenodd" d="M27.1943 10.4412C27.1943 10.8332 27.3606 11.1598 27.6933 11.4212C28.0258 11.6825 28.4154 11.8131 28.8621 11.8131C29.4945 11.8131 30.0579 11.5788 30.554 11.1113C31.0502 10.6428 31.2977 10.0931 31.2977 9.46222C30.8287 9.09171 30.1747 8.90693 29.3357 8.90693C28.7247 8.90693 28.2156 9.05438 27.8073 9.34836C27.3989 9.64225 27.1943 10.0054 27.1943 10.4412ZM29.1404 4.62695C30.2522 4.62695 31.1295 4.92373 31.7733 5.51729C32.4161 6.11085 32.7374 6.92466 32.7374 7.95873V12.8911H31.2987V11.7805H31.2332C30.6119 12.695 29.7832 13.1524 28.7481 13.1524C27.8652 13.1524 27.1262 12.8911 26.5328 12.3684C25.9387 11.8458 25.6416 11.1925 25.6416 10.4086C25.6416 9.58075 25.9545 8.9227 26.5814 8.43283C27.2083 7.94286 28.0446 7.69741 29.091 7.69741C29.9841 7.69741 30.7203 7.86073 31.2977 8.18738V7.84393C31.2977 7.3213 31.0903 6.878 30.6765 6.51309C30.2615 6.14818 29.7776 5.96619 29.2217 5.96619C28.3818 5.96619 27.7176 6.3199 27.2271 7.02826L25.9022 6.19485C26.6328 5.14958 27.7119 4.62695 29.1404 4.62695Z" fill="white"/>
<path fill-rule="evenodd" clip-rule="evenodd" d="M40.9939 4.88818L35.9741 16.4187H34.4212L36.2852 12.3842L32.9824 4.88818H34.6174L37.0045 10.6371H37.0372L39.3589 4.88818H40.9939Z" fill="white"/>
<path fill-rule="evenodd" clip-rule="evenodd" d="M13.4479 7.13388C13.4479 6.66072 13.4078 6.20435 13.3321 5.76758H6.98828V8.35554H10.6217C10.4657 9.19912 9.99388 9.9169 9.27822 10.3975V12.0783H11.4467C12.7164 10.908 13.4479 9.17868 13.4479 7.13388Z" fill="#4285F4"/>
<path fill-rule="evenodd" clip-rule="evenodd" d="M6.98877 13.7001C8.80409 13.7001 10.3326 13.1047 11.4472 12.0781L9.27871 10.3973C8.67516 10.8032 7.89783 11.0403 6.98877 11.0403C5.23419 11.0403 3.74494 9.85876 3.21239 8.2666H0.978516V9.99782C2.08564 12.1929 4.36063 13.7001 6.98877 13.7001Z" fill="#34A853"/>
<path fill-rule="evenodd" clip-rule="evenodd" d="M3.21219 8.26669C3.07579 7.86071 3.00104 7.42768 3.00104 6.98064C3.00104 6.5336 3.07579 6.10057 3.21219 5.69459V3.96338H0.978316C0.520516 4.87052 0.261719 5.89525 0.261719 6.98064C0.261719 8.06603 0.520516 9.09086 0.978316 9.9979L3.21219 8.26669Z" fill="#FABB05"/>
<path fill-rule="evenodd" clip-rule="evenodd" d="M6.98877 2.92105C7.98005 2.92105 8.86856 3.26169 9.56927 3.92898V3.92991L11.4892 2.01204C10.3232 0.927585 8.80316 0.26123 6.98877 0.26123C4.36063 0.26123 2.08564 1.76846 0.978516 3.96351L3.21239 5.69473C3.74494 4.10257 5.23419 2.92105 6.98877 2.92105Z" fill="#E94235"/>
</g>
<defs>
<clipPath id="clip0_142_12122">
<rect width="41" height="17" fill="white"/>
</clipPath>
</defs>
</svg>
