<svg width="12" height="12" viewBox="0 0 12 12" fill="none" xmlns="http://www.w3.org/2000/svg">
<g clip-path="url(#clip0_201_3150)">
<path d="M4.14001 0.26925C4.16286 0.191497 4.21029 0.123239 4.27519 0.0747C4.34009 0.0261609 4.41896 -4.73898e-05 4.50001 6.43287e-08H7.50001C7.55939 4.51452e-05 7.61792 0.0141945 7.67077 0.0412833C7.72362 0.0683721 7.76928 0.107626 7.80399 0.155813C7.83871 0.204 7.86148 0.259742 7.87043 0.31845C7.87939 0.377159 7.87427 0.437155 7.85551 0.4935L6.52051 4.5H9.37501C9.44523 4.49995 9.51406 4.51962 9.57365 4.55677C9.63325 4.59392 9.68121 4.64706 9.71208 4.71014C9.74296 4.77321 9.7555 4.84369 9.74828 4.91354C9.74106 4.9834 9.71437 5.04982 9.67126 5.10525L4.42126 11.8553C4.36747 11.9247 4.291 11.9731 4.20518 11.992C4.11936 12.0108 4.02965 11.999 3.95169 11.9584C3.87374 11.9179 3.8125 11.8512 3.77865 11.7702C3.7448 11.6891 3.74051 11.5987 3.76651 11.5147L5.11726 7.125H2.62501C2.5667 7.12503 2.5092 7.11147 2.45705 7.0854C2.40491 7.05932 2.35956 7.02144 2.32462 6.97478C2.28967 6.92811 2.26609 6.87394 2.25574 6.81656C2.24539 6.75918 2.24856 6.70019 2.26501 6.64425L4.14001 0.26925Z" fill="#FFF500"/>
</g>
<defs>
<clipPath id="clip0_201_3150">
<rect width="12" height="12" fill="white"/>
</clipPath>
</defs>
</svg>
