<svg width="12" height="12" viewBox="0 0 12 12" fill="none" xmlns="http://www.w3.org/2000/svg">
<g clip-path="url(#clip0_85_6845)">
<path d="M4.14022 0.26925C4.16307 0.191497 4.2105 0.123239 4.2754 0.0747C4.3403 0.0261609 4.41918 -4.73898e-05 4.50022 6.43287e-08H7.50022C7.55961 4.51452e-05 7.61814 0.0141945 7.67099 0.0412833C7.72384 0.0683721 7.7695 0.107626 7.80421 0.155813C7.83892 0.204 7.86169 0.259742 7.87065 0.31845C7.8796 0.377159 7.87449 0.437155 7.85572 0.4935L6.52072 4.5H9.37522C9.44545 4.49995 9.51427 4.51962 9.57387 4.55677C9.63346 4.59392 9.68142 4.64706 9.7123 4.71014C9.74317 4.77321 9.75571 4.84369 9.74849 4.91354C9.74128 4.9834 9.71459 5.04982 9.67147 5.10525L4.42147 11.8553C4.36769 11.9247 4.29121 11.9731 4.2054 11.992C4.11958 12.0108 4.02986 11.999 3.95191 11.9584C3.87395 11.9179 3.81271 11.8512 3.77886 11.7702C3.74502 11.6891 3.74072 11.5987 3.76672 11.5147L5.11747 7.125H2.62522C2.56692 7.12503 2.50941 7.11147 2.45727 7.0854C2.40512 7.05932 2.35978 7.02144 2.32483 6.97478C2.28989 6.92811 2.2663 6.87394 2.25595 6.81656C2.24561 6.75918 2.24878 6.70019 2.26522 6.64425L4.14022 0.26925Z" fill="white"/>
</g>
<defs>
<clipPath id="clip0_85_6845">
<rect width="12" height="12" fill="white"/>
</clipPath>
</defs>
</svg>
