<svg width="25" height="18" viewBox="0 0 25 18" fill="none" xmlns="http://www.w3.org/2000/svg">
<path d="M21.4791 1.76465H3.16919C2.39133 1.76465 1.76074 2.39672 1.76074 3.17641V14.4705C1.76074 15.2502 2.39133 15.8823 3.16919 15.8823H21.4791C22.2569 15.8823 22.8875 15.2502 22.8875 14.4705V3.17641C22.8875 2.39672 22.2569 1.76465 21.4791 1.76465Z" fill="url(#paint0_linear_141_12066)"/>
<g clip-path="url(#clip0_141_12066)">
<path opacity="0.8" fill-rule="evenodd" clip-rule="evenodd" d="M11.992 11.8973C12.7103 11.1838 13.1636 10.1483 13.1636 8.99756C13.1636 7.84693 12.7103 6.81129 11.992 6.09024C11.3644 5.46115 10.5277 5.07764 9.60719 5.07764C7.64079 5.07764 6.04395 6.83432 6.04395 8.99756C6.04395 11.1608 7.64079 12.9099 9.60719 12.9099C10.5277 12.9099 11.3644 12.5263 11.992 11.8973Z" fill="white"/>
<path fill-rule="evenodd" clip-rule="evenodd" d="M14.3839 5.07764C13.4635 5.07764 12.6266 5.46115 11.9921 6.09016C11.8666 6.22065 11.748 6.35868 11.6365 6.50441H12.3547C12.4523 6.63482 12.5429 6.78064 12.6266 6.91866H11.3645C11.2878 7.05678 11.218 7.19481 11.1553 7.33291H12.8288C12.8846 7.47103 12.9404 7.60906 12.9822 7.74718H11.0089C10.967 7.88529 10.9322 8.02331 10.9043 8.16906H13.0868C13.1356 8.42986 13.1636 8.71371 13.1636 8.99756C13.1636 9.42715 13.1008 9.8491 12.9822 10.2402H11.0089C11.0507 10.3784 11.0995 10.5164 11.1553 10.6546H12.8288C12.7662 10.7926 12.7034 10.9384 12.6266 11.0687H11.3645C11.4482 11.2146 11.5388 11.3526 11.6365 11.483H12.3547C12.2431 11.6287 12.1246 11.7668 11.9921 11.8973C12.6266 12.5263 13.4635 12.9099 14.3839 12.9099C16.3503 12.9099 17.9402 11.1608 17.9402 8.99756C17.9402 6.83432 16.3503 5.07764 14.3839 5.07764Z" fill="white"/>
<path fill-rule="evenodd" clip-rule="evenodd" d="M8.71471 9.97171H9.16103L9.50964 7.98486H8.79146L8.30328 9.21231L8.2685 7.98486H7.57118L7.22949 9.97171H7.63392L7.89887 8.45281L7.9686 9.97171H8.37311L8.97974 8.44518L8.71471 9.97171ZM16.8314 9.83366H16.8175V9.81063H16.8245H16.8454V9.81835V9.83366H16.8314ZM16.7896 9.89506H16.8175V9.85662H16.8314L16.8454 9.89506H16.8733L16.8524 9.84899C16.8663 9.84899 16.8733 9.83366 16.8733 9.81835C16.8733 9.81063 16.8663 9.80293 16.8593 9.79532C16.8524 9.7876 16.8454 9.7876 16.8314 9.7876H16.7896V9.89506ZM16.9151 9.84138C16.9151 9.89506 16.8803 9.94105 16.8314 9.94105C16.7826 9.94105 16.7408 9.89506 16.7408 9.84138C16.7408 9.7876 16.7826 9.74925 16.8314 9.74925C16.8803 9.74925 16.9151 9.7876 16.9151 9.84138ZM16.8314 9.71859C16.7687 9.71859 16.7129 9.77229 16.7129 9.84138C16.7129 9.91031 16.7687 9.97171 16.8314 9.97171C16.8942 9.97171 16.943 9.91031 16.943 9.84138C16.943 9.77229 16.8942 9.71859 16.8314 9.71859ZM14.112 9.94873C13.9864 9.9871 13.8957 10.0024 13.7911 10.0024C13.5681 10.0024 13.4425 9.87965 13.4425 9.64957C13.4425 9.6097 13.4478 9.56989 13.4537 9.52507L13.4565 9.50384L13.4843 9.34269L13.5053 9.21999L13.7076 7.98492H14.1468L14.084 8.35312H14.3142L14.2514 8.74434H14.0214L13.9098 9.41941C13.9079 9.42771 13.906 9.43545 13.9042 9.44263C13.8995 9.46198 13.8957 9.47724 13.8957 9.48842C13.8957 9.57284 13.9446 9.61121 14.0492 9.61121C14.098 9.61121 14.1398 9.60351 14.1677 9.5958L14.112 9.94873ZM15.3532 8.35314C15.3602 8.35314 15.3671 8.35314 15.402 8.36845L15.2416 8.8287L15.1928 8.81337C15.1813 8.81337 15.1698 8.81106 15.1594 8.80899C15.151 8.80728 15.1433 8.80576 15.137 8.80576C14.9208 8.80576 14.8581 8.98215 14.6977 9.97171H14.2514L14.5233 8.35314H14.9277L14.886 8.59861C15.0185 8.40682 15.123 8.33781 15.2694 8.33781H15.3182C15.3182 8.34287 15.3244 8.34457 15.3347 8.34739C15.3399 8.34883 15.3462 8.35056 15.3532 8.35314ZM12.3547 8.8671C12.3547 9.06652 12.4593 9.21225 12.6964 9.31201C12.8777 9.39642 12.9056 9.41938 12.9056 9.4961C12.9056 9.59584 12.822 9.64183 12.6476 9.64183C12.5151 9.64183 12.3896 9.61887 12.2431 9.5729L12.1873 9.94871H12.2083L12.285 9.97175C12.297 9.97175 12.3116 9.97316 12.3283 9.97476C12.3502 9.9769 12.3757 9.97936 12.4035 9.97936C12.5081 9.99478 12.5918 9.99478 12.6545 9.99478C13.1217 9.99478 13.3449 9.826 13.3449 9.45781C13.3449 9.23536 13.2542 9.10488 13.0242 9.0052C12.8358 8.92849 12.8149 8.90546 12.8149 8.82873C12.8149 8.74431 12.8916 8.69833 13.0381 8.69833C13.1217 8.69833 13.2472 8.70604 13.3589 8.72135L13.4216 8.35316C13.3031 8.33013 13.1287 8.32243 13.0311 8.32243C12.5291 8.32243 12.3547 8.56791 12.3547 8.8671ZM10.1791 9.24298C10.207 9.24298 10.2279 9.24298 10.2767 9.25061C10.2697 9.48847 10.1372 9.65724 9.95596 9.65724C9.85837 9.65724 9.80255 9.58814 9.80255 9.48847C9.80255 9.32734 9.9281 9.24298 10.1791 9.24298ZM10.2349 9.97175H10.5975L10.6045 9.92568L10.6115 9.87199L10.6253 9.78756L10.6393 9.6879L10.7299 9.11258C10.7579 8.93619 10.7648 8.87471 10.7648 8.79037C10.7648 8.48358 10.5696 8.32243 10.1861 8.32243C10.0187 8.32243 9.87923 8.34546 9.65615 8.40685L9.59334 8.76734L9.6352 8.75971L9.69794 8.73668C9.79555 8.71364 9.93503 8.69833 10.0606 8.69833C10.2697 8.69833 10.3465 8.73668 10.3465 8.84406C10.3465 8.8671 10.3465 8.89013 10.3325 8.9438C10.2628 8.93619 10.2 8.93619 10.1512 8.93619C9.65615 8.93619 9.37026 9.16626 9.37026 9.5575C9.37026 9.8183 9.53761 9.99478 9.77461 9.99478C9.97689 9.99478 10.1303 9.93338 10.2419 9.80297L10.2349 9.97175ZM11.8178 8.97448V8.89007C11.8178 8.75975 11.741 8.68302 11.6086 8.68302C11.4692 8.68302 11.3715 8.79031 11.3297 8.97448H11.8178ZM12.0549 9.9334C11.9015 9.97939 11.755 10.0024 11.6016 10.0024C11.1065 10.0024 10.8485 9.74924 10.8485 9.27366C10.8485 8.72129 11.1763 8.31474 11.6226 8.31474C11.9852 8.31474 12.2153 8.5449 12.2153 8.89778C12.2153 9.02055 12.2013 9.13564 12.1665 9.2967H11.2809V9.35039C11.2809 9.53448 11.4063 9.63415 11.6644 9.63415C11.8248 9.63415 11.9712 9.60349 12.1246 9.53448L12.0549 9.9334ZM16.0783 8.70602C16.2597 8.70602 16.3224 8.85938 16.3224 9.02823C16.3224 9.09724 16.3224 9.16626 16.3086 9.22765C16.2736 9.47305 16.0645 9.61887 15.9668 9.61887C15.8135 9.61887 15.7158 9.47305 15.7158 9.2583C15.7158 8.9975 15.8552 8.70602 16.0783 8.70602ZM15.918 10.01C16.3712 10.01 16.7129 9.77231 16.7826 9.23536C16.7966 9.14323 16.7966 9.1356 16.7966 9.03586C16.7966 8.62929 16.5526 8.3071 16.0923 8.3071C15.5624 8.3071 15.2207 8.69831 15.2207 9.26602C15.2207 9.68027 15.4229 10.01 15.918 10.01Z" fill="url(#paint1_linear_141_12066)"/>
</g>
<defs>
<linearGradient id="paint0_linear_141_12066" x1="1.76074" y1="15.8924" x2="22.8875" y2="15.8924" gradientUnits="userSpaceOnUse">
<stop stop-color="#3D53C5"/>
<stop offset="1" stop-color="#FF3623"/>
</linearGradient>
<linearGradient id="paint1_linear_141_12066" x1="7.22949" y1="10.0115" x2="16.943" y2="10.0115" gradientUnits="userSpaceOnUse">
<stop stop-color="#3D53C5"/>
<stop offset="1" stop-color="#FF3623"/>
</linearGradient>
<clipPath id="clip0_141_12066">
<rect width="12" height="8" fill="white" transform="translate(6 5)"/>
</clipPath>
</defs>
</svg>
