<svg width="265" height="269" viewBox="0 0 265 269" fill="none" xmlns="http://www.w3.org/2000/svg">
<path d="M219.242 264.335H7.09918C5.50216 264.396 3.93522 263.888 2.67732 262.902C1.41943 261.917 0.55223 260.516 0.230106 258.951C-0.774497 263.141 1.50947 268.25 7.09918 268.25H219.242C224.823 268.25 227.116 263.141 226.111 258.951C225.789 260.516 224.922 261.917 223.664 262.902C222.406 263.888 220.839 264.396 219.242 264.335Z" fill="#E2E2E2"/>
<path d="M7.09909 264.335H219.242C220.058 264.534 220.91 264.546 221.731 264.368C222.553 264.191 223.323 263.829 223.985 263.31C224.646 262.791 225.18 262.129 225.548 261.373C225.916 260.617 226.107 259.787 226.107 258.947C226.107 258.106 225.916 257.277 225.548 256.521C225.18 255.765 224.646 255.102 223.985 254.583C223.323 254.064 222.553 253.702 221.731 253.525C220.91 253.347 220.058 253.359 219.242 253.559H7.09909C6.28261 253.359 5.43142 253.347 4.60982 253.525C3.78822 253.702 3.01771 254.064 2.3565 254.583C1.69529 255.102 1.16067 255.765 0.793039 256.521C0.425406 257.277 0.234375 258.106 0.234375 258.947C0.234375 259.787 0.425406 260.617 0.793039 261.373C1.16067 262.129 1.69529 262.791 2.3565 263.31C3.01771 263.829 3.78822 264.191 4.60982 264.368C5.43142 264.546 6.28261 264.534 7.09909 264.335Z" fill="white"/>
<path d="M159.018 107.617C179.909 103.701 166.196 58.0133 157.713 49.53C147.925 40.3855 129 44.9534 116.593 42.3432C103.542 40.3855 87.8804 34.5124 82.0073 53.4453C78.7445 64.5389 85.9227 80.2004 87.2278 91.2939C88.533 103.701 87.2278 112.185 102.237 111.532L159.018 107.617Z" fill="#0A3470"/>
<path d="M117.589 135.685V162.44H136.702V135.685H117.589Z" fill="#EDA18A"/>
<path d="M94.234 63.2251C91.5636 89.9887 87.8114 136.037 123.153 139.249C154.201 142.46 162.77 115.155 161.697 89.9887C161.697 83.0338 158.486 67.5011 156.339 60.5461L94.234 63.2251Z" fill="#FDB498"/>
<path d="M124.209 161.367C134.908 162.226 142.704 158.594 145.675 148.488C142.69 148.053 139.66 148.03 136.668 148.419C135.397 160.526 118.834 156.387 116.284 148.737C113.652 148.692 111.021 148.899 108.428 149.355C109.441 157.546 116.611 160.921 124.209 161.367Z" fill="#0A3470"/>
<path d="M160.305 78.5518C180.809 71.4252 183.565 110.897 159.858 107.745C160.125 101.28 159.961 87.1983 160.305 78.5518Z" fill="#5B90DD"/>
<path d="M87.9923 84.6998C91.1178 65.5007 108.196 53.9778 126.846 52.9303C145.675 51.8398 163.389 62.7187 165.209 82.5188C165.553 86.2625 171.426 86.2968 171.082 82.5188C166.583 33.4565 89.7354 37.6552 82.334 83.18C81.7243 86.8893 87.3827 88.4778 87.9923 84.7427V84.6998Z" fill="#5B90DD"/>
<path d="M86.1279 103.641C85.9476 111.498 82.1696 122.943 90.7473 127.597C98.2604 131.667 108.512 129.924 116.67 129.864C119.46 129.864 119.46 125.511 116.67 125.571C109.491 125.631 102.159 126.429 95.1178 124.712C86.2052 122.342 90.3008 110.364 90.4983 103.641C90.5584 100.851 86.2052 100.859 86.2052 103.641H86.1279Z" fill="#3D74B7"/>
<path d="M93.2547 78.5518C72.7419 71.4252 69.9857 110.897 93.6926 107.745C93.435 101.28 93.5981 87.1983 93.2547 78.5518Z" fill="#5B90DD"/>
<path d="M145.708 148.496C145.187 150.308 144.425 152.04 143.441 153.648H160.202C155.743 151.022 150.824 149.274 145.708 148.496Z" fill="white"/>
<path d="M62.4893 200.624H191.98C191.23 197.567 190.371 194.628 189.404 191.806H65.6834C64.4899 194.725 63.4338 197.67 62.4893 200.624Z" fill="white"/>
<path d="M108.461 149.364C104.174 150.133 100.038 151.582 96.208 153.657H109.706C109.045 152.308 108.624 150.856 108.461 149.364Z" fill="white"/>
<path d="M55.5947 247.608H199.588L198.231 238.799H56.4619L55.5947 247.608Z" fill="white"/>
<path d="M68.749 184.954H186.665C185.335 181.931 183.827 178.989 182.149 176.144H73.6089C71.8428 178.998 70.2208 181.938 68.749 184.954Z" fill="white"/>
<path d="M57.1406 231.947H197.184L195.827 223.137H58.0164L57.1406 231.947Z" fill="white"/>
<path d="M124.208 161.367C122.371 161.276 120.548 160.988 118.773 160.509H86.5223C83.5391 163.189 80.8086 166.138 78.3652 169.318H177.563C175.169 166.139 172.484 163.19 169.544 160.509H134.477C131.14 161.447 127.654 161.739 124.208 161.367Z" fill="white"/>
<path d="M58.7896 215.289L58.6865 216.285H194.78L193.99 211.185C193.818 209.931 193.621 208.695 193.406 207.476H60.5154C59.8371 210.12 59.2618 212.731 58.7896 215.289Z" fill="white"/>
<path d="M143.441 153.631C141.407 156.952 138.213 159.4 134.477 160.5H169.543C166.694 157.87 163.561 155.566 160.201 153.631H143.441Z" fill="#C2BA17"/>
<path d="M109.707 153.631H96.2088C92.7187 155.527 89.4672 157.833 86.5234 160.5H118.774C114.841 159.367 111.484 157.194 109.707 153.631Z" fill="#C2BA17"/>
<path d="M73.6084 176.144H182.166C180.757 173.773 179.221 171.48 177.563 169.275H78.3652C76.6652 171.483 75.0776 173.776 73.6084 176.144Z" fill="#C2BA17"/>
<path d="M65.6836 191.806H189.387C188.528 189.436 187.67 187.152 186.682 184.937H68.7489C67.6499 187.203 66.6281 189.496 65.6836 191.806Z" fill="#C2BA17"/>
<path d="M60.5146 207.476H193.406C193.002 205.132 192.547 202.848 191.98 200.607H62.4895C61.7597 202.908 61.0985 205.201 60.5146 207.476Z" fill="#C2BA17"/>
<path d="M58.0166 223.137H195.827L194.78 216.285H58.6863L58.0166 223.137Z" fill="#C2BA17"/>
<path d="M56.4619 238.799H198.231L197.184 231.947H57.1402L56.4619 238.799Z" fill="#C2BA17"/>
<path d="M54.916 254.469H200.635L199.587 247.608H55.5943L54.916 254.469Z" fill="#C2BA17"/>
<path d="M106.083 98.3005C108.084 92.0583 115.863 92.3588 118.911 97.605C119.018 97.7538 119.177 97.8573 119.356 97.8955C119.536 97.9337 119.723 97.9038 119.881 97.8117C120.04 97.7196 120.158 97.5719 120.214 97.3972C120.269 97.2225 120.258 97.0334 120.182 96.8666C116.455 90.4612 107.036 90.5041 104.666 97.9056C104.374 98.8071 105.791 99.1935 106.083 98.3005Z" fill="#0A3470"/>
<path d="M137.724 97.6736C139.724 91.4313 147.512 91.7318 150.56 96.9781C150.658 97.1455 150.818 97.2671 151.006 97.3162C151.194 97.3653 151.393 97.3379 151.56 97.24C151.728 97.142 151.849 96.9816 151.899 96.794C151.948 96.6065 151.92 96.407 151.822 96.2397C148.104 89.8342 138.685 89.8772 136.307 97.2786C136.023 98.1802 137.44 98.5666 137.724 97.6736Z" fill="#0A3470"/>
<path d="M128.348 127.357C136.075 127.056 144.224 120.848 146.079 113.223C146.525 111.386 143.691 110.648 143.245 112.442C141.708 118.77 134.822 124.171 128.348 124.42C126.459 124.497 126.45 127.434 128.348 127.357Z" fill="#E89A82"/>
<path d="M90.499 63.8864C104.237 78.8954 144.67 81.5056 162.942 81.5056C162.942 81.5056 169.468 54.7506 132.89 52.7929C96.312 50.8352 90.499 63.8864 90.499 63.8864Z" fill="#0A3470"/>
<path d="M130.107 96.7635L132.571 110.768C132.767 111.975 132.479 113.211 131.769 114.207C131.059 115.203 129.985 115.879 128.78 116.088C127.575 116.297 126.336 116.023 125.332 115.324C124.328 114.625 123.641 113.559 123.418 112.356C123.328 111.831 123.328 111.294 123.418 110.768L125.848 96.7635C125.939 96.26 126.203 95.8044 126.596 95.4762C126.988 95.148 127.483 94.9681 127.995 94.9681C128.506 94.9681 129.002 95.148 129.394 95.4762C129.786 95.8044 130.051 96.26 130.141 96.7635H130.107Z" fill="#E89A82"/>
<path d="M188.314 164.733H183.42C188.683 164.733 192.959 168.211 192.959 172.461V240.01C192.959 244.303 188.666 247.78 183.42 247.78H188.314C193.586 247.78 197.854 244.303 197.854 240.01V172.495C197.828 168.211 193.586 164.733 188.314 164.733Z" fill="#8C85A9"/>
<path d="M57.8704 240.044V172.495C57.8704 168.202 62.1636 164.767 67.4099 164.767H63.4945C58.2225 164.767 53.9551 168.245 53.9551 172.495V240.044C53.9551 244.337 58.2483 247.814 63.4945 247.814H67.4099C62.1636 247.814 57.8704 244.337 57.8704 240.044Z" fill="#B6B4CC"/>
<path d="M192.959 240.044V172.495C192.959 168.202 188.666 164.767 183.42 164.767H67.4271C62.1637 164.767 57.8877 168.245 57.8877 172.495V240.044C57.8877 244.337 62.1809 247.814 67.4271 247.814H183.42C188.684 247.814 192.959 244.337 192.959 240.044Z" fill="#A4A0BC"/>
<path d="M108.805 248.184L101.154 247.909L111.458 207.253C111.652 205.981 112.094 204.759 112.76 203.658C113.426 202.558 114.302 201.599 115.339 200.836C116.375 200.074 117.552 199.524 118.801 199.216C120.051 198.908 121.348 198.85 122.62 199.044L128.433 199.903C129.705 200.095 130.927 200.537 132.028 201.203C133.129 201.869 134.088 202.745 134.85 203.782C135.611 204.819 136.161 205.996 136.467 207.246C136.773 208.496 136.829 209.793 136.633 211.065L136.539 250.665C136.528 250.732 136.514 250.798 136.496 250.863L108.805 248.184Z" fill="#706B8E"/>
<path d="M144.009 247.608C144.009 250.205 142.978 252.696 141.142 254.533C139.307 256.37 136.817 257.403 134.22 257.405H116.592C113.997 257.401 111.509 256.367 109.676 254.53C107.842 252.693 106.812 250.204 106.813 247.608L112.686 208.455C112.686 205.858 113.717 203.367 115.552 201.53C117.387 199.693 119.877 198.66 122.474 198.658H128.356C130.952 198.66 133.442 199.693 135.278 201.53C137.113 203.367 138.144 205.858 138.144 208.455L144.009 247.608Z" fill="#8C85A9"/>
<path d="M30.1188 211.717L20.6738 210C20.7237 211.169 20.847 212.333 21.043 213.486L29.4491 215.015L41.1437 209.554C41.4299 208.455 41.6703 207.338 41.8649 206.205L30.1016 211.7L30.1188 211.717Z" fill="#917F17"/>
<path d="M29.7239 216.947L21.4639 215.453C21.7698 216.7 22.1835 217.918 22.7003 219.093L29.08 220.252L39.0058 215.616C39.5718 214.417 40.0621 213.184 40.474 211.924L29.7325 216.947H29.7239Z" fill="#917F17"/>
<path d="M30.9002 201.259L21.8502 199.619C21.5668 200.675 21.3178 201.774 21.1289 202.908L30.2476 204.565L42.5862 198.804C42.5862 197.779 42.569 196.783 42.5347 195.816L30.9002 201.251V201.259Z" fill="#917F17"/>
<path d="M30.5143 206.489L20.8719 204.771C20.7517 205.879 20.6744 207.012 20.6572 208.146L29.8618 209.863L42.2175 204.084C42.3463 203.037 42.4494 201.989 42.5095 200.95L30.4886 206.549L30.5143 206.489Z" fill="#917F17"/>
<path d="M32.0592 172.263C29.9212 169.825 27.6287 167.403 25.3447 164.776C25.818 167.328 26.105 169.91 26.2034 172.504L30.0071 173.191L32.0592 172.263Z" fill="#917F17"/>
<path d="M35.5451 176.582C34.8238 175.612 34.0596 174.659 33.2697 173.723L30.2731 175.123L26.2632 174.393C26.2632 175.423 26.2632 176.453 26.2031 177.475L31.5438 178.446L35.5451 176.582Z" fill="#917F17"/>
<path d="M29.3372 222.184L23.7646 221.171C24.7043 222.759 25.8995 224.18 27.3022 225.378C28.6932 224.932 31.2863 224.614 32.5313 223.704C34.5354 222.269 36.2293 220.443 37.5114 218.338L29.3372 222.159V222.184Z" fill="#917F17"/>
<path d="M32.1116 185.572L25.5602 184.378C25.3885 185.486 25.191 186.585 24.9678 187.693L31.4676 188.869L40.2944 184.748C39.9509 183.889 39.5817 183.03 39.1782 182.266L32.1116 185.563V185.572Z" fill="#917F17"/>
<path d="M31.682 190.801L24.5382 189.505C24.2978 190.595 24.0402 191.686 23.7568 192.785L31.0295 194.098L41.6336 189.144C41.4218 188.234 41.1728 187.349 40.8866 186.491L31.682 190.784V190.801Z" fill="#917F17"/>
<path d="M31.8352 180.377L26.0995 179.347C26.0137 180.412 25.902 181.485 25.7646 182.55L31.7751 183.64L38.2149 180.635C37.7254 179.776 37.1931 178.918 36.635 178.119L31.8352 180.377Z" fill="#917F17"/>
<path d="M31.2532 196.03L23.2508 194.579C22.9588 195.652 22.6583 196.734 22.332 197.833L30.6093 199.327L42.4155 193.841C42.321 192.922 42.2094 192.029 42.0634 191.179V191.016L31.3391 196.022L31.2532 196.03Z" fill="#917F17"/>
<path d="M22.666 219.093C22.9814 219.805 23.3368 220.499 23.7307 221.171L29.3033 222.184L37.4775 218.363C38.0327 217.483 38.5317 216.568 38.9715 215.624L29.08 220.227L22.666 219.093Z" fill="#776C0A"/>
<path d="M21.0615 213.495C21.1731 214.156 21.3019 214.809 21.4651 215.453L29.7252 216.947L40.4667 211.924C40.7157 211.151 40.9475 210.361 41.1536 209.562L29.459 215.023L21.0615 213.495Z" fill="#776C0A"/>
<path d="M20.6572 208.12C20.6572 208.755 20.6572 209.382 20.6572 210.009L30.1022 211.726L41.8655 206.231C41.9943 205.501 42.1059 204.771 42.2004 204.033L29.8446 209.811L20.6572 208.12Z" fill="#776C0A"/>
<path d="M21.1287 202.908C21.0256 203.509 20.9398 204.127 20.8711 204.745L30.5136 206.463L42.5344 200.864C42.5344 200.16 42.5945 199.473 42.6117 198.786L30.2731 204.548L21.1287 202.908Z" fill="#776C0A"/>
<path d="M22.3648 197.833C22.2961 198.091 22.2188 198.348 22.1415 198.615C22.0643 198.881 21.9441 199.284 21.8496 199.619L30.8996 201.259L42.5341 195.824C42.5341 195.154 42.4568 194.493 42.3967 193.849L30.642 199.336L22.3648 197.833Z" fill="#776C0A"/>
<path d="M23.7564 192.75C23.6019 193.343 23.4473 193.944 23.2842 194.545L31.2867 195.996L42.0196 191.033C41.908 190.389 41.7792 189.771 41.6332 189.161L31.0291 194.116L23.7564 192.75Z" fill="#776C0A"/>
<path d="M24.9254 187.693C24.8052 188.294 24.6764 188.904 24.5391 189.505L31.6829 190.801L40.8875 186.508C40.69 185.916 40.4753 185.332 40.2521 184.791L31.4253 188.912L24.9254 187.693Z" fill="#776C0A"/>
<path d="M25.7818 182.55C25.6959 183.159 25.6101 183.769 25.5156 184.379L32.067 185.572L39.125 182.275C38.8416 181.717 38.5497 181.176 38.2663 180.644L31.8266 183.649L25.7818 182.55Z" fill="#776C0A"/>
<path d="M31.8377 180.377L36.6718 178.119C36.3197 177.604 35.9505 177.089 35.5813 176.582L31.5801 178.454L26.2394 177.484C26.2394 178.102 26.1707 178.729 26.1191 179.347L31.8377 180.386V180.377Z" fill="#776C0A"/>
<path d="M30.3084 175.122L33.305 173.723C32.9015 173.233 32.4464 172.744 32.06 172.263L30.0508 173.199L26.2471 172.512C26.2471 173.148 26.2471 173.774 26.2986 174.401L30.3084 175.131V175.122Z" fill="#776C0A"/>
<path d="M24.4779 212.035L15.1875 214.414C15.7219 215.455 16.3212 216.461 16.982 217.427L25.2593 215.307L33.6052 205.467C33.4077 204.342 33.1587 203.234 32.8668 202.127L24.4693 212.027L24.4779 212.035Z" fill="#C2BA17"/>
<path d="M26.299 216.955L18.1592 219.042C18.9601 220.045 19.8448 220.979 20.8038 221.832L27.089 220.227L34.1813 211.863C34.186 210.541 34.1143 209.219 33.9666 207.905L26.299 216.947V216.955Z" fill="#C2BA17"/>
<path d="M20.8208 202.195L11.9082 204.479C12.0885 205.561 12.3289 206.66 12.6295 207.768L21.6022 205.467L30.3946 195.094C29.9825 194.167 29.536 193.265 29.1067 192.407L20.8208 202.195Z" fill="#C2BA17"/>
<path d="M22.6667 207.124L13.2217 209.554C13.5737 210.619 13.9773 211.675 14.4324 212.714L23.4909 210.395L32.3177 199.989C31.9914 198.984 31.648 197.988 31.2702 197.018L22.6838 207.115L22.6667 207.124Z" fill="#C2BA17"/>
<path d="M9.78716 175.372C6.83346 174.041 3.77672 172.796 0.56543 171.362C2.08633 173.478 3.44676 175.705 4.63536 178.025L8.379 177.063L9.78716 175.372Z" fill="#C2BA17"/>
<path d="M14.7753 177.827C13.7106 177.243 12.6287 176.702 11.5211 176.179L9.37452 178.703L5.4248 179.708C5.86271 180.643 6.28344 181.579 6.66124 182.532L11.9161 181.184L14.7753 177.827Z" fill="#C2BA17"/>
<path d="M28.1269 221.867L22.666 223.275C24.1855 224.331 25.8678 225.132 27.6461 225.645C28.728 224.657 30.9433 223.283 31.6903 221.935C32.9198 219.796 33.7027 217.43 33.9914 214.98L28.1527 221.849L28.1269 221.867Z" fill="#C2BA17"/>
<path d="M15.3341 187.461L8.92871 189.11C9.22923 190.183 9.51258 191.273 9.78735 192.364L16.1842 190.732L22.4866 183.297C21.8168 182.661 21.1385 182.069 20.4344 181.511L15.3942 187.452L15.3341 187.461Z" fill="#C2BA17"/>
<path d="M17.1611 192.372L10.1289 194.176C10.3693 195.266 10.584 196.365 10.7901 197.481L17.9511 195.644L25.5242 186.714C24.9404 185.976 24.3479 185.28 23.7297 184.619L17.1611 192.347V192.372Z" fill="#C2BA17"/>
<path d="M12.9549 182.833L7.32227 184.276C7.69148 185.28 8.03494 186.302 8.35263 187.324L14.2858 185.804L18.8881 180.386C18.0294 179.802 17.2481 179.27 16.398 178.755L12.9549 182.833Z" fill="#C2BA17"/>
<path d="M18.9916 197.292L11.1094 199.31C11.2983 200.409 11.47 201.517 11.6331 202.65L19.7816 200.564L28.1704 190.664C27.7068 189.865 27.2345 189.101 26.7451 188.397C26.7106 188.35 26.6791 188.301 26.6507 188.251L18.9916 197.284V197.292Z" fill="#C2BA17"/>
<path d="M20.8018 221.832C21.383 222.352 21.9967 222.833 22.6392 223.275L28.1259 221.867L33.9646 214.997C34.0932 213.963 34.1648 212.923 34.1793 211.881L27.087 220.227L20.8018 221.832Z" fill="#AA9F15"/>
<path d="M16.9824 217.427C17.3602 217.985 17.7466 218.518 18.1588 219.042L26.2986 216.955L33.9662 207.914C33.8718 207.098 33.7516 206.291 33.6056 205.475L25.2425 215.306L16.9824 217.427Z" fill="#AA9F15"/>
<path d="M14.3721 212.713C14.6297 213.289 14.9044 213.855 15.2307 214.431L24.5211 212.052L32.9186 202.152C32.7297 201.44 32.5322 200.727 32.309 200.014L23.4822 210.421L14.3721 212.713Z" fill="#AA9F15"/>
<path d="M12.6289 207.776C12.792 208.369 12.9638 208.961 13.1613 209.554L22.6062 207.124L31.2527 197.043C30.9951 196.391 30.7289 195.747 30.4542 195.12L21.6446 205.501L12.6289 207.776Z" fill="#AA9F15"/>
<path d="M11.6328 202.65C11.6328 202.917 11.7187 203.183 11.753 203.457L11.9076 204.488L20.8202 202.195L29.1232 192.407C28.8141 191.806 28.4964 191.231 28.1701 190.69L19.7813 200.59L11.6328 202.65Z" fill="#AA9F15"/>
<path d="M10.791 197.481C10.9026 198.083 11.0057 198.692 11.1087 199.31L18.991 197.293L26.65 188.26C26.2808 187.727 25.903 187.221 25.5252 186.723L17.952 195.653L10.791 197.481Z" fill="#AA9F15"/>
<path d="M9.72559 192.364C9.87155 192.965 10.0004 193.566 10.1291 194.176L17.1614 192.372L23.7299 184.645C23.3006 184.181 22.8713 183.786 22.4248 183.322L16.1224 190.758L9.72559 192.364Z" fill="#AA9F15"/>
<path d="M8.3623 187.332C8.54262 187.925 8.72293 188.517 8.88607 189.11L15.3344 187.461L20.3746 181.519C19.8852 181.133 19.3958 180.755 18.8978 180.403L14.2955 185.821L8.3623 187.332Z" fill="#AA9F15"/>
<path d="M12.9555 182.833L16.39 178.763C15.8491 178.445 15.3082 178.128 14.7586 177.827L11.8994 181.193L6.64453 182.541C6.88495 183.116 7.09961 183.7 7.31427 184.258L12.9469 182.816L12.9555 182.833Z" fill="#AA9F15"/>
<path d="M9.37443 178.703L11.5038 176.179C10.9286 175.904 10.3447 175.629 9.78657 175.371L8.35265 177.089L4.63477 178.025C4.9267 178.583 5.20146 179.149 5.4934 179.742L9.44312 178.737L9.37443 178.703Z" fill="#AA9F15"/>
<path d="M42.6206 218.982C42.6567 219.266 42.6768 219.553 42.6807 219.84L37.7092 243.985C37.7092 245.869 36.9614 247.676 35.6299 249.009C34.2985 250.342 32.4924 251.092 30.6083 251.095H18.5273C17.0584 251.095 15.6262 250.636 14.4316 249.781C14.6489 251.495 15.4839 253.071 16.78 254.214C18.0761 255.357 19.7445 255.988 21.4724 255.989H33.5448C35.4289 255.986 37.235 255.236 38.5665 253.903C39.8979 252.57 40.6458 250.763 40.6458 248.879L45.6172 224.734C45.6127 223.606 45.3383 222.495 44.817 221.494C44.2957 220.494 43.5427 219.632 42.6206 218.982Z" fill="#783F26"/>
<path d="M30.6085 251.137C32.4925 251.135 34.2987 250.385 35.6301 249.052C36.9615 247.719 37.7094 245.912 37.7094 244.028L42.6809 219.883C42.6769 219.596 42.6569 219.309 42.6208 219.025C41.4228 218.17 39.988 217.711 38.5165 217.711H16.4925C14.6092 217.711 12.8031 218.459 11.4714 219.791C10.1397 221.122 9.3916 222.928 9.3916 224.812L14.3631 248.957C14.366 249.244 14.389 249.531 14.4318 249.815C15.6263 250.67 17.0585 251.129 18.5275 251.129L30.6085 251.137Z" fill="#8C5234"/>
<path d="M209.599 51.7882C197.818 51.7882 188.262 58.4684 188.262 66.7199C188.262 70.7297 190.529 74.3531 194.195 77.0235L188.262 89.903L202.249 80.6984C204.65 81.3161 207.12 81.6277 209.599 81.6258C221.379 81.6258 230.936 74.9456 230.936 66.6941C230.936 58.4426 221.379 51.7882 209.599 51.7882Z" fill="white"/>
<path d="M203.443 66.1273C203.445 66.5488 203.322 66.9614 203.089 67.3127C202.856 67.664 202.524 67.9382 202.135 68.1007C201.746 68.2632 201.317 68.3066 200.904 68.2254C200.49 68.1442 200.11 67.9421 199.811 67.6446C199.513 67.3472 199.309 66.9678 199.226 66.5545C199.143 66.1412 199.185 65.7126 199.346 65.323C199.507 64.9334 199.78 64.6003 200.13 64.3659C200.48 64.1316 200.892 64.0065 201.314 64.0065C201.877 64.0065 202.418 64.2296 202.817 64.6271C203.216 65.0246 203.441 65.564 203.443 66.1273Z" fill="#0A3470"/>
<path d="M211.73 66.1273C211.731 66.5488 211.608 66.9614 211.375 67.3127C211.142 67.664 210.81 67.9382 210.421 68.1007C210.032 68.2632 209.604 68.3066 209.19 68.2254C208.776 68.1442 208.396 67.9421 208.097 67.6446C207.799 67.3472 207.595 66.9678 207.512 66.5545C207.429 66.1412 207.471 65.7126 207.632 65.323C207.793 64.9334 208.066 64.6003 208.416 64.3659C208.767 64.1316 209.179 64.0065 209.6 64.0065C210.163 64.0065 210.704 64.2296 211.103 64.6271C211.502 65.0246 211.727 65.564 211.73 66.1273Z" fill="#0A3470"/>
<path d="M220.016 66.1273C220.017 66.5488 219.894 66.9614 219.661 67.3127C219.428 67.664 219.096 67.9382 218.707 68.1007C218.318 68.2632 217.89 68.3066 217.476 68.2254C217.062 68.1442 216.682 67.9421 216.384 67.6446C216.085 67.3472 215.881 66.9678 215.798 66.5545C215.716 66.1412 215.757 65.7126 215.918 65.323C216.079 64.9334 216.352 64.6003 216.702 64.3659C217.053 64.1316 217.465 64.0065 217.886 64.0065C218.449 64.0065 218.99 64.2296 219.389 64.6271C219.788 65.0246 220.013 65.564 220.016 66.1273Z" fill="#0A3470"/>
<path d="M185.54 27.6692C185.313 27.6692 185.094 27.5788 184.933 27.4177C184.772 27.2567 184.682 27.0383 184.682 26.8106V17.0308C184.682 16.803 184.772 16.5846 184.933 16.4236C185.094 16.2626 185.313 16.1721 185.54 16.1721C185.768 16.1721 185.986 16.2626 186.147 16.4236C186.308 16.5846 186.399 16.803 186.399 17.0308V26.8106C186.399 27.0383 186.308 27.2567 186.147 27.4177C185.986 27.5788 185.768 27.6692 185.54 27.6692Z" fill="white"/>
<path d="M190.435 22.7407H180.656C180.428 22.7407 180.209 22.6502 180.048 22.4892C179.887 22.3282 179.797 22.1098 179.797 21.8821C179.797 21.6543 179.887 21.436 180.048 21.2749C180.209 21.1139 180.428 21.0234 180.656 21.0234H190.435C190.663 21.0234 190.881 21.1139 191.043 21.2749C191.204 21.436 191.294 21.6543 191.294 21.8821C191.294 22.1098 191.204 22.3282 191.043 22.4892C190.881 22.6502 190.663 22.7407 190.435 22.7407Z" fill="white"/>
<path d="M204.612 6.42657C204.612 7.49984 204.294 8.54902 203.697 9.44141C203.101 10.3338 202.254 11.0293 201.262 11.4401C200.27 11.8508 199.179 11.9583 198.127 11.7489C197.074 11.5395 196.107 11.0227 195.348 10.2637C194.589 9.50482 194.072 8.53789 193.863 7.48524C193.654 6.43259 193.761 5.34149 194.172 4.34991C194.583 3.35834 195.278 2.51082 196.171 1.91454C197.063 1.31826 198.112 1 199.185 1C200.625 1 202.005 1.57172 203.023 2.5894C204.04 3.60708 204.612 4.98735 204.612 6.42657Z" stroke="white" stroke-width="2" stroke-miterlimit="10"/>
<path d="M210.192 24.6295C210.185 25.1646 210.02 25.6858 209.718 26.1274C209.416 26.5691 208.99 26.9115 208.493 27.1116C207.997 27.3117 207.453 27.3606 206.929 27.252C206.405 27.1435 205.924 26.8824 205.548 26.5016C205.172 26.1208 204.917 25.6373 204.815 25.112C204.713 24.5866 204.769 24.0428 204.975 23.549C205.182 23.0552 205.529 22.6335 205.975 22.3368C206.42 22.0402 206.944 21.8819 207.479 21.8818C207.838 21.8818 208.194 21.9531 208.525 22.0916C208.856 22.2301 209.157 22.433 209.41 22.6886C209.662 22.9442 209.861 23.2474 209.995 23.5806C210.13 23.9138 210.197 24.2703 210.192 24.6295Z" fill="white"/>
<path d="M61.0201 47.3148C61.0201 48.388 60.7019 49.4372 60.1056 50.3296C59.5093 51.222 58.6618 51.9175 57.6702 52.3282C56.6786 52.739 55.5875 52.8464 54.5349 52.6371C53.4822 52.4277 52.5153 51.9108 51.7564 51.1519C50.9975 50.393 50.4807 49.4261 50.2713 48.3734C50.0619 47.3208 50.1693 46.2297 50.5801 45.2381C50.9908 44.2465 51.6863 43.399 52.5787 42.8027C53.4711 42.2064 54.5203 41.8882 55.5936 41.8882C57.0328 41.8882 58.413 42.4599 59.4307 43.4776C60.4484 44.4953 61.0201 45.8755 61.0201 47.3148V47.3148Z" stroke="white" stroke-width="2" stroke-miterlimit="10"/>
<path d="M76.3231 41.8881C76.3231 42.4247 76.1639 42.9493 75.8658 43.3955C75.5676 43.8417 75.1439 44.1895 74.6481 44.3948C74.1523 44.6002 73.6068 44.6539 73.0804 44.5492C72.5541 44.4446 72.0706 44.1861 71.6912 43.8067C71.3117 43.4272 71.0533 42.9438 70.9486 42.4174C70.8439 41.8911 70.8977 41.3455 71.103 40.8498C71.3084 40.354 71.6562 39.9302 72.1024 39.6321C72.5486 39.3339 73.0731 39.1748 73.6098 39.1748C74.3294 39.1748 75.0195 39.4607 75.5284 39.9695C76.0372 40.4783 76.3231 41.1685 76.3231 41.8881Z" fill="white"/>
<path d="M258.833 227.585C258.606 227.585 258.387 227.495 258.226 227.334C258.065 227.173 257.975 226.954 257.975 226.727V216.947C257.975 216.719 258.065 216.501 258.226 216.34C258.387 216.178 258.606 216.088 258.833 216.088C259.061 216.088 259.279 216.178 259.44 216.34C259.601 216.501 259.692 216.719 259.692 216.947V226.727C259.692 226.954 259.601 227.173 259.44 227.334C259.279 227.495 259.061 227.585 258.833 227.585Z" fill="white"/>
<path d="M263.72 222.691H253.94C253.712 222.691 253.494 222.6 253.333 222.439C253.172 222.278 253.081 222.06 253.081 221.832C253.081 221.604 253.172 221.386 253.333 221.225C253.494 221.064 253.712 220.973 253.94 220.973H263.72C263.947 220.973 264.166 221.064 264.327 221.225C264.488 221.386 264.578 221.604 264.578 221.832C264.578 222.06 264.488 222.278 264.327 222.439C264.166 222.6 263.947 222.691 263.72 222.691Z" fill="white"/>
<path d="M241.791 227.542C241.791 228.615 241.472 229.665 240.876 230.557C240.28 231.449 239.432 232.145 238.441 232.556C237.449 232.966 236.358 233.074 235.305 232.864C234.253 232.655 233.286 232.138 232.527 231.379C231.768 230.62 231.251 229.653 231.042 228.601C230.832 227.548 230.94 226.457 231.351 225.466C231.761 224.474 232.457 223.626 233.349 223.03C234.242 222.434 235.291 222.116 236.364 222.116C237.803 222.116 239.184 222.687 240.201 223.705C241.219 224.723 241.791 226.103 241.791 227.542Z" stroke="white" stroke-width="2" stroke-miterlimit="10"/>
<path d="M254.498 245.917C254.498 246.454 254.339 246.978 254.041 247.424C253.742 247.871 253.319 248.218 252.823 248.424C252.327 248.629 251.782 248.683 251.255 248.578C250.729 248.473 250.245 248.215 249.866 247.835C249.487 247.456 249.228 246.973 249.123 246.446C249.019 245.92 249.072 245.374 249.278 244.879C249.483 244.383 249.831 243.959 250.277 243.661C250.723 243.363 251.248 243.204 251.785 243.204C252.504 243.204 253.194 243.489 253.703 243.998C254.212 244.507 254.498 245.197 254.498 245.917Z" fill="white"/>
<path d="M254.498 207.905C254.498 208.442 254.339 208.966 254.041 209.413C253.742 209.859 253.319 210.207 252.823 210.412C252.327 210.617 251.782 210.671 251.255 210.566C250.729 210.462 250.245 210.203 249.866 209.824C249.487 209.444 249.228 208.961 249.123 208.435C249.019 207.908 249.072 207.363 249.278 206.867C249.483 206.371 249.831 205.947 250.277 205.649C250.723 205.351 251.248 205.192 251.785 205.192C252.141 205.192 252.494 205.262 252.823 205.398C253.152 205.535 253.451 205.735 253.703 205.987C253.955 206.239 254.155 206.538 254.291 206.867C254.428 207.196 254.498 207.549 254.498 207.905Z" fill="white"/>
<path d="M14.4309 143.945C14.2032 143.945 13.9848 143.855 13.8238 143.694C13.6627 143.533 13.5723 143.315 13.5723 143.087V133.307C13.5723 133.079 13.6627 132.861 13.8238 132.7C13.9848 132.539 14.2032 132.448 14.4309 132.448C14.6586 132.448 14.877 132.539 15.038 132.7C15.1991 132.861 15.2895 133.079 15.2895 133.307V143.087C15.2895 143.315 15.1991 143.533 15.038 143.694C14.877 143.855 14.6586 143.945 14.4309 143.945Z" fill="white"/>
<path d="M19.3182 139.06H9.53832C9.3106 139.06 9.0922 138.969 8.93118 138.808C8.77015 138.647 8.67969 138.429 8.67969 138.201C8.67969 137.973 8.77015 137.755 8.93118 137.594C9.0922 137.433 9.3106 137.343 9.53832 137.343H19.3182C19.5459 137.343 19.7643 137.433 19.9253 137.594C20.0863 137.755 20.1768 137.973 20.1768 138.201C20.1768 138.429 20.0863 138.647 19.9253 138.808C19.7643 138.969 19.5459 139.06 19.3182 139.06Z" fill="white"/>
<path d="M45.6774 139.515C45.6774 140.588 45.3591 141.637 44.7628 142.53C44.1665 143.422 43.319 144.118 42.3274 144.528C41.3359 144.939 40.2448 145.047 39.1921 144.837C38.1395 144.628 37.1725 144.111 36.4136 143.352C35.6547 142.593 35.1379 141.626 34.9285 140.574C34.7191 139.521 34.8266 138.43 35.2373 137.438C35.648 136.447 36.3436 135.599 37.2359 135.003C38.1283 134.407 39.1775 134.088 40.2508 134.088C41.69 134.088 43.0703 134.66 44.088 135.678C45.1056 136.695 45.6774 138.076 45.6774 139.515Z" stroke="white" stroke-width="2" stroke-miterlimit="10"/>
<path d="M25.0789 154.112C25.0789 154.648 24.9198 155.173 24.6216 155.619C24.3235 156.065 23.8998 156.413 23.404 156.618C22.9082 156.824 22.3626 156.878 21.8363 156.773C21.31 156.668 20.8265 156.41 20.447 156.03C20.0676 155.651 19.8092 155.167 19.7045 154.641C19.5998 154.115 19.6535 153.569 19.8589 153.073C20.0642 152.578 20.412 152.154 20.8582 151.856C21.3044 151.558 21.829 151.398 22.3656 151.398C22.7223 151.397 23.0756 151.467 23.4053 151.603C23.735 151.739 24.0346 151.938 24.2867 152.191C24.5389 152.443 24.7387 152.742 24.8747 153.072C25.0106 153.402 25.08 153.755 25.0789 154.112Z" fill="white"/>
</svg>
