<svg width="33" height="33" viewBox="0 0 33 33" fill="none" xmlns="http://www.w3.org/2000/svg">
<path d="M5.5 8.25C5.5 7.88533 5.64487 7.53559 5.90273 7.27773C6.16059 7.01987 6.51033 6.875 6.875 6.875H26.125C26.4897 6.875 26.8394 7.01987 27.0973 7.27773C27.3551 7.53559 27.5 7.88533 27.5 8.25C27.5 8.61467 27.3551 8.96441 27.0973 9.22227C26.8394 9.48013 26.4897 9.625 26.125 9.625H6.875C6.51033 9.625 6.16059 9.48013 5.90273 9.22227C5.64487 8.96441 5.5 8.61467 5.5 8.25ZM5.5 24.75C5.5 24.3853 5.64487 24.0356 5.90273 23.7777C6.16059 23.5199 6.51033 23.375 6.875 23.375H26.125C26.4897 23.375 26.8394 23.5199 27.0973 23.7777C27.3551 24.0356 27.5 24.3853 27.5 24.75C27.5 25.1147 27.3551 25.4644 27.0973 25.7223C26.8394 25.9801 26.4897 26.125 26.125 26.125H6.875C6.51033 26.125 6.16059 25.9801 5.90273 25.7223C5.64487 25.4644 5.5 25.1147 5.5 24.75ZM6.875 15.125C6.51033 15.125 6.16059 15.2699 5.90273 15.5277C5.64487 15.7856 5.5 16.1353 5.5 16.5C5.5 16.8647 5.64487 17.2144 5.90273 17.4723C6.16059 17.7301 6.51033 17.875 6.875 17.875H17.875C18.2397 17.875 18.5894 17.7301 18.8473 17.4723C19.1051 17.2144 19.25 16.8647 19.25 16.5C19.25 16.1353 19.1051 15.7856 18.8473 15.5277C18.5894 15.2699 18.2397 15.125 17.875 15.125H6.875Z" fill="#F8F8F8"/>
</svg>
