<svg width="63" height="17" viewBox="0 0 63 17" fill="none" xmlns="http://www.w3.org/2000/svg">
<path d="M23.4779 3.47656H20.0032C19.7654 3.47656 19.5632 3.65171 19.5261 3.88971L18.1208 12.9239C18.0929 13.1022 18.2291 13.2629 18.4074 13.2629H20.0662C20.304 13.2629 20.5062 13.0877 20.5433 12.8492L20.9223 10.4126C20.9589 10.174 21.1616 9.9989 21.3989 9.9989H22.4988C24.7877 9.9989 26.1086 8.87587 26.4536 6.65041C26.6091 5.67677 26.4602 4.91177 26.0106 4.37602C25.5167 3.78771 24.6408 3.47656 23.4779 3.47656ZM23.8787 6.77611C23.6887 8.04029 22.7361 8.04029 21.815 8.04029H21.2906L21.6585 5.67935C21.6803 5.53665 21.8023 5.43156 21.9445 5.43156H22.1848C22.8123 5.43156 23.4042 5.43156 23.7101 5.79423C23.8924 6.01059 23.9483 6.33205 23.8787 6.77611Z" fill="white"/>
<path d="M33.864 6.73581H32.2001C32.0584 6.73581 31.9359 6.84091 31.9141 6.9836L31.8404 7.45548L31.7241 7.28445C31.3639 6.75436 30.5606 6.57715 29.7589 6.57715C27.9202 6.57715 26.3498 7.98918 26.0439 9.96994C25.8849 10.958 26.111 11.9028 26.6638 12.5617C27.1708 13.1675 27.8963 13.4199 28.7595 13.4199C30.241 13.4199 31.0626 12.454 31.0626 12.454L30.9884 12.9228C30.9605 13.1021 31.0966 13.2628 31.2739 13.2628H32.7727C33.011 13.2628 33.2122 13.0876 33.2498 12.8491L34.1491 7.07478C34.1775 6.89706 34.0419 6.73581 33.864 6.73581ZM31.5447 10.0194C31.3842 10.9832 30.6297 11.6303 29.6674 11.6303C29.1843 11.6303 28.7981 11.4731 28.5502 11.1754C28.3043 10.8797 28.2108 10.4588 28.2891 9.99003C28.4389 9.03442 29.2061 8.36627 30.1537 8.36627C30.6262 8.36627 31.0102 8.52545 31.2633 8.82578C31.5168 9.12921 31.6174 9.55266 31.5447 10.0194Z" fill="white"/>
<path d="M42.726 6.73584H41.054C40.8944 6.73584 40.7445 6.8162 40.6541 6.95066L38.348 10.395L37.3705 7.08511C37.309 6.87802 37.1205 6.73584 36.9071 6.73584H35.2641C35.0644 6.73584 34.9257 6.93366 34.9892 7.12426L36.8309 12.6044L35.0994 15.0828C34.9633 15.2781 35.1005 15.5465 35.3357 15.5465H37.0057C37.1642 15.5465 37.3126 15.4682 37.4025 15.3363L42.9638 7.1969C43.0969 7.00217 42.9602 6.73584 42.726 6.73584Z" fill="white"/>
<path d="M48.262 3.47656H44.7869C44.5496 3.47656 44.3474 3.65171 44.3103 3.88971L42.905 12.9239C42.8771 13.1022 43.0132 13.2629 43.1905 13.2629H44.9739C45.1395 13.2629 45.2812 13.1403 45.3071 12.9734L45.706 10.4126C45.7426 10.174 45.9453 9.9989 46.1825 9.9989H47.282C49.5713 9.9989 50.8918 8.87587 51.2373 6.65041C51.3933 5.67677 51.2434 4.91177 50.7937 4.37602C50.3004 3.78771 49.425 3.47656 48.262 3.47656ZM48.6629 6.77611C48.4734 8.04029 47.5208 8.04029 46.5992 8.04029H46.0753L46.4437 5.67935C46.4655 5.53665 46.5865 5.43156 46.7292 5.43156H46.9695C47.5965 5.43156 48.1889 5.43156 48.4947 5.79423C48.6771 6.01059 48.7325 6.33205 48.6629 6.77611Z" fill="white"/>
<path d="M58.648 6.73581H56.9851C56.8423 6.73581 56.7209 6.84091 56.6996 6.9836L56.6259 7.45548L56.5091 7.28445C56.1488 6.75436 55.3461 6.57715 54.5444 6.57715C52.7057 6.57715 51.1358 7.98918 50.8299 9.96994C50.6714 10.958 50.8965 11.9028 51.4492 12.5617C51.9573 13.1675 52.6818 13.4199 53.545 13.4199C55.0265 13.4199 55.8481 12.454 55.8481 12.454L55.7739 12.9228C55.7459 13.1021 55.8821 13.2628 56.0604 13.2628H57.5587C57.796 13.2628 57.9982 13.0876 58.0353 12.8491L58.9351 7.07478C58.9625 6.89706 58.8263 6.73581 58.648 6.73581ZM56.3287 10.0194C56.1692 10.9832 55.4137 11.6303 54.4514 11.6303C53.9692 11.6303 53.5821 11.4731 53.3342 11.1754C53.0883 10.8797 52.9958 10.4588 53.073 9.99003C53.2239 9.03442 53.9901 8.36627 54.9376 8.36627C55.4101 8.36627 55.7942 8.52545 56.0472 8.82578C56.3018 9.12921 56.4024 9.55266 56.3287 10.0194Z" fill="white"/>
<path d="M60.6095 3.72438L59.1833 12.924C59.1554 13.1022 59.2916 13.2629 59.4689 13.2629H60.9026C61.1409 13.2629 61.3431 13.0878 61.3797 12.8493L62.786 3.81556C62.814 3.63732 62.6778 3.47607 62.5005 3.47607H60.895C60.7533 3.47659 60.6313 3.58168 60.6095 3.72438Z" fill="white"/>
<path d="M3.6916 15.0186L3.95732 13.3072L3.36543 13.2933H0.539062L2.50324 0.665404C2.50934 0.627283 2.52915 0.591738 2.55811 0.566495C2.58707 0.541253 2.62416 0.527344 2.66277 0.527344H7.42842C9.01053 0.527344 10.1024 0.861162 10.6724 1.52004C10.9397 1.82913 11.1099 2.15213 11.1922 2.50759C11.2785 2.88056 11.2801 3.32616 11.1957 3.86965L11.1896 3.90931V4.25756L11.4569 4.41107C11.6819 4.53213 11.8608 4.67071 11.998 4.82937C12.2266 5.09365 12.3744 5.42953 12.4369 5.82774C12.5014 6.23728 12.4801 6.72462 12.3744 7.27634C12.2525 7.91101 12.0554 8.46377 11.7891 8.91607C11.5442 9.33283 11.2323 9.6785 10.8619 9.94637C10.5083 10.2009 10.0881 10.394 9.6131 10.5177C9.15279 10.6393 8.62796 10.7006 8.05232 10.7006H7.68143C7.41622 10.7006 7.15864 10.7974 6.95643 10.971C6.75371 11.1482 6.61958 11.3903 6.57843 11.6551L6.55048 11.8092L6.08103 14.8254L6.05969 14.9361C6.0541 14.9712 6.04445 14.9887 6.03022 15.0005C6.01752 15.0113 5.99923 15.0186 5.98145 15.0186H3.6916Z" fill="#253B80"/>
<path d="M11.7103 3.94971C11.6961 4.04192 11.6798 4.13619 11.6616 4.23304C11.0331 7.50477 8.88295 8.63501 6.13686 8.63501H4.73867C4.40284 8.63501 4.11985 8.88228 4.06752 9.21816L3.35165 13.8216L3.14893 15.1264C3.11489 15.3469 3.28256 15.5458 3.50204 15.5458H5.9819C6.27556 15.5458 6.52502 15.3294 6.57126 15.0358L6.59564 14.908L7.06256 11.9036L7.09253 11.7388C7.13826 11.4441 7.38823 11.2278 7.68189 11.2278H8.05277C10.4554 11.2278 12.3363 10.2387 12.886 7.3765C13.1156 6.18083 12.9967 5.18246 12.3891 4.48031C12.2052 4.26859 11.9771 4.09292 11.7103 3.94971Z" fill="#179BD7"/>
<path d="M11.0528 3.68381C10.9567 3.65547 10.8577 3.62971 10.7561 3.60653C10.6539 3.58387 10.5493 3.56378 10.4416 3.54626C10.0646 3.48444 9.65152 3.45508 9.209 3.45508H5.47371C5.38175 3.45508 5.29436 3.4762 5.21612 3.51432C5.04388 3.59829 4.91585 3.76365 4.88486 3.96611L4.09025 9.0692L4.06738 9.21808C4.11971 8.8822 4.40271 8.63493 4.73854 8.63493H6.13673C8.88282 8.63493 11.0329 7.50417 11.6614 4.23296C11.6802 4.13611 11.696 4.04184 11.7102 3.94962C11.5512 3.86411 11.3789 3.79096 11.1935 3.72862C11.1478 3.71317 11.1005 3.69823 11.0528 3.68381Z" fill="#222D65"/>
<path d="M4.88453 3.96615C4.91552 3.7637 5.04355 3.59833 5.21578 3.51488C5.29453 3.47676 5.38141 3.45564 5.47337 3.45564H9.20866C9.65119 3.45564 10.0642 3.485 10.4412 3.54682C10.5489 3.56433 10.6536 3.58442 10.7557 3.60709C10.8573 3.63027 10.9564 3.65603 11.0524 3.68436C11.1002 3.69879 11.1474 3.71373 11.1937 3.72867C11.3791 3.791 11.5513 3.86467 11.7104 3.94967C11.8973 2.74061 11.7088 1.91739 11.0641 1.17197C10.3533 0.351333 9.07047 0 7.42891 0H2.66327C2.32795 0 2.04191 0.247273 1.99008 0.583667L0.00507497 13.3414C-0.034046 13.5938 0.158002 13.8215 0.408986 13.8215H3.35119L4.08991 9.06924L4.88453 3.96615Z" fill="#253B80"/>
</svg>
