<svg width="14" height="13" viewBox="0 0 14 13" fill="none" xmlns="http://www.w3.org/2000/svg">
<path d="M6.11491 0.683129C6.48973 -0.0296324 7.51027 -0.0296337 7.88509 0.683128L9.21084 3.20425C9.3556 3.47955 9.62023 3.67181 9.92678 3.72442L12.7342 4.20621C13.5279 4.34242 13.8433 5.31302 13.2812 5.88975L11.2932 7.92968C11.0761 8.15243 10.975 8.46351 11.0197 8.77132L11.429 11.5902C11.5447 12.3872 10.7191 12.987 9.99692 12.6307L7.44248 11.3703C7.16355 11.2327 6.83646 11.2327 6.55752 11.3703L4.00309 12.6307C3.28091 12.987 2.45526 12.3872 2.57099 11.5902L2.98031 8.77132C3.02501 8.46351 2.92393 8.15243 2.70684 7.92968L0.718792 5.88975C0.156738 5.31302 0.472104 4.34242 1.2658 4.20621L4.07322 3.72442C4.37977 3.67181 4.6444 3.47955 4.78916 3.20425L6.11491 0.683129Z" fill="white"/>
</svg>
