<svg width="16" height="16" viewBox="0 0 16 16" fill="none" xmlns="http://www.w3.org/2000/svg">
<path d="M7.9935 1.3335C4.3135 1.3335 1.3335 4.32016 1.3335 8.00016C1.3335 11.6802 4.3135 14.6668 7.9935 14.6668C11.6802 14.6668 14.6668 11.6802 14.6668 8.00016C14.6668 4.32016 11.6802 1.3335 7.9935 1.3335ZM8.00016 13.3335C5.0535 13.3335 2.66683 10.9468 2.66683 8.00016C2.66683 5.0535 5.0535 2.66683 8.00016 2.66683C10.9468 2.66683 13.3335 5.0535 13.3335 8.00016C13.3335 10.9468 10.9468 13.3335 8.00016 13.3335ZM7.8535 4.66683H7.8135C7.54683 4.66683 7.3335 4.88016 7.3335 5.14683V8.2935C7.3335 8.52683 7.4535 8.74683 7.66016 8.86683L10.4268 10.5268C10.6535 10.6602 10.9468 10.5935 11.0802 10.3668C11.1136 10.3128 11.1359 10.2527 11.1456 10.1899C11.1554 10.1271 11.1524 10.0631 11.1368 10.0015C11.1213 9.93989 11.0935 9.88207 11.0551 9.83145C11.0168 9.78082 10.9686 9.73845 10.9135 9.70683L8.3335 8.1735V5.14683C8.3335 4.88016 8.12016 4.66683 7.8535 4.66683Z" fill="white"/>
</svg>
