<svg width="29" height="28" viewBox="0 0 29 28" fill="none" xmlns="http://www.w3.org/2000/svg">
<path fill-rule="evenodd" clip-rule="evenodd" d="M14.3326 0C10.5933 0 10.124 0.01635 8.65538 0.0831842C7.18961 0.150305 6.18911 0.38236 5.31367 0.722842C4.40811 1.07451 3.63994 1.54493 2.87465 2.31051C2.10878 3.07581 1.63836 3.84397 1.28554 4.74924C0.944201 5.62497 0.711859 6.62577 0.645886 8.09095C0.580199 9.55959 0.562988 10.0291 0.562988 13.7684C0.562988 17.5077 0.579625 17.9755 0.646172 19.4442C0.71358 20.9099 0.945636 21.9104 1.28583 22.7859C1.63779 23.6914 2.10821 24.4596 2.87379 25.2249C3.6388 25.9908 4.40696 26.4623 5.31195 26.814C6.18796 27.1545 7.18875 27.3865 8.65423 27.4537C10.1229 27.5205 10.5918 27.5368 14.3308 27.5368C18.0704 27.5368 18.5382 27.5205 20.0069 27.4537C21.4726 27.3865 22.4743 27.1545 23.3503 26.814C24.2556 26.4623 25.0226 25.9908 25.7876 25.2249C26.5535 24.4596 27.0239 23.6914 27.3767 22.7862C27.7152 21.9104 27.9475 20.9096 28.0164 19.4445C28.0823 17.9758 28.0995 17.5077 28.0995 13.7684C28.0995 10.0291 28.0823 9.55987 28.0164 8.09124C27.9475 6.62548 27.7152 5.62497 27.3767 4.74953C27.0239 3.84397 26.5535 3.07581 25.7876 2.31051C25.0217 1.54464 24.2559 1.07422 23.3494 0.722842C22.4717 0.38236 21.4706 0.150305 20.0049 0.0831842C18.5362 0.01635 18.0687 0 14.3283 0H14.3326ZM13.0977 2.48106C13.4643 2.48049 13.8733 2.48106 14.3328 2.48106C18.009 2.48106 18.4447 2.49425 19.8964 2.56023C21.2388 2.62161 21.9674 2.84592 22.4528 3.03438C23.0953 3.28393 23.5534 3.58225 24.035 4.06414C24.5169 4.54604 24.8152 5.00498 25.0653 5.64751C25.2538 6.13227 25.4784 6.86085 25.5395 8.20327C25.6054 9.65469 25.6198 10.0907 25.6198 13.7651C25.6198 17.4396 25.6054 17.8756 25.5395 19.327C25.4781 20.6694 25.2538 21.398 25.0653 21.8828C24.8158 22.5253 24.5169 22.9828 24.035 23.4644C23.5531 23.9463 23.0956 24.2446 22.4528 24.4942C21.968 24.6835 21.2388 24.9072 19.8964 24.9686C18.445 25.0346 18.009 25.0489 14.3328 25.0489C10.6564 25.0489 10.2207 25.0346 8.76924 24.9686C7.42682 24.9067 6.69824 24.6823 6.21262 24.4939C5.57009 24.2443 5.11115 23.946 4.62925 23.4641C4.14736 22.9822 3.84904 22.5244 3.59891 21.8816C3.41046 21.3969 3.18586 20.6683 3.12476 19.3259C3.05879 17.8744 3.0456 17.4384 3.0456 13.7617C3.0456 10.085 3.05879 9.65125 3.12476 8.19983C3.18615 6.85741 3.41046 6.12883 3.59891 5.64349C3.84847 5.00097 4.14736 4.54202 4.62925 4.06013C5.11115 3.57823 5.57009 3.27991 6.21262 3.02979C6.69796 2.84047 7.42682 2.61674 8.76924 2.55506C10.0394 2.4977 10.5316 2.48049 13.0977 2.47762V2.48106ZM21.6824 4.76733C20.7702 4.76733 20.0302 5.50652 20.0302 6.41896C20.0302 7.33112 20.7702 8.07117 21.6824 8.07117C22.5945 8.07117 23.3346 7.33112 23.3346 6.41896C23.3346 5.5068 22.5945 4.76675 21.6824 4.76675V4.76733ZM14.3327 6.69789C10.428 6.69789 7.26209 9.86377 7.26209 13.7686C7.26209 17.6733 10.428 20.8378 14.3327 20.8378C18.2375 20.8378 21.4023 17.6733 21.4023 13.7686C21.4023 9.86377 18.2372 6.69789 14.3325 6.69789H14.3327ZM14.3326 9.17947C16.8672 9.17947 18.9221 11.2341 18.9221 13.7689C18.9221 16.3035 16.8672 18.3584 14.3326 18.3584C11.7978 18.3584 9.74314 16.3035 9.74314 13.7689C9.74314 11.2341 11.7978 9.17947 14.3326 9.17947Z" fill="#F2F2F2"/>
</svg>
