<svg width="34" height="28" viewBox="0 0 34 28" fill="none" xmlns="http://www.w3.org/2000/svg">
<path fill-rule="evenodd" clip-rule="evenodd" d="M16.2978 7.32523L16.37 8.51628L15.1662 8.37043C10.7842 7.81137 6.95598 5.91542 3.70561 2.7312L2.11654 1.15124L1.70723 2.31798C0.840468 4.91883 1.39424 7.66553 3.2 9.51287C4.16307 10.5338 3.94638 10.6796 2.28508 10.0719C1.70723 9.87747 1.20162 9.73163 1.15347 9.80455C0.984929 9.9747 1.56277 12.1866 2.02023 13.0617C2.64623 14.277 3.9223 15.4681 5.31876 16.173L6.49852 16.7321L5.10206 16.7564C3.75376 16.7564 3.70561 16.7807 3.85007 17.2911C4.33161 18.8711 6.23367 20.5483 8.35243 21.2775L9.8452 21.7879L8.54505 22.5658C6.6189 23.6839 4.35568 24.3159 2.09246 24.3645C1.00901 24.3888 0.118164 24.486 0.118164 24.5589C0.118164 24.802 3.05554 26.1632 4.76499 26.698C9.89335 28.2779 15.9848 27.5973 20.5594 24.8992C23.8097 22.979 27.0601 19.1628 28.577 15.4681C29.3956 13.4992 30.2142 9.90178 30.2142 8.17598C30.2142 7.05785 30.2864 6.91201 31.6347 5.57512C32.4292 4.7973 33.1756 3.94655 33.3201 3.70348C33.5609 3.24164 33.5368 3.24164 32.3089 3.65486C30.2623 4.38408 29.9734 4.28685 30.9846 3.19303C31.731 2.4152 32.6219 1.00539 32.6219 0.592175C32.6219 0.519253 32.2607 0.640789 31.8514 0.859552C31.418 1.10262 30.4549 1.46723 29.7326 1.68599L28.4325 2.09921L27.2527 1.29708C26.6027 0.859552 25.6877 0.373411 25.2062 0.227569C23.9783 -0.11273 22.1003 -0.0641159 20.9928 0.324797C17.9832 1.41861 16.0811 4.23823 16.2978 7.32523Z" fill="#F2F2F2"/>
</svg>
