<svg width="39" height="28" viewBox="0 0 39 28" fill="none" xmlns="http://www.w3.org/2000/svg">
<path fill-rule="evenodd" clip-rule="evenodd" d="M37.5115 4.30045C37.0709 2.60783 35.7726 1.27496 34.1241 0.822596C31.1367 0.000488281 19.1561 0.000488281 19.1561 0.000488281C19.1561 0.000488281 7.17547 0.000488281 4.18778 0.822596C2.53927 1.27496 1.24101 2.60783 0.800419 4.30045C0 7.36815 0 13.7689 0 13.7689C0 13.7689 0 20.1694 0.800419 23.2374C1.24101 24.93 2.53927 26.2629 4.18778 26.7154C7.17547 27.5373 19.1561 27.5373 19.1561 27.5373C19.1561 27.5373 31.1367 27.5373 34.1241 26.7154C35.7726 26.2629 37.0709 24.93 37.5115 23.2374C38.3121 20.1694 38.3121 13.7689 38.3121 13.7689C38.3121 13.7689 38.3121 7.36815 37.5115 4.30045Z" fill="#F2F2F2"/>
<path fill-rule="evenodd" clip-rule="evenodd" d="M15.5645 20.3534V8.38086L25.1425 14.3674L15.5645 20.3534Z" fill="#1C1C1C"/>
</svg>
