<svg width="238" height="238" viewBox="0 0 238 238" fill="none" xmlns="http://www.w3.org/2000/svg">
<path d="M118.813 0L121.997 88.6818L143.652 2.59635L128.227 89.9987L167.406 10.2719L134.045 92.575L189.035 22.6913L139.198 96.2979L207.595 39.3116L143.46 101.005L222.276 59.4066L146.643 106.49L232.434 82.0979L148.612 112.514L237.626 106.394L149.278 118.813L237.626 131.233L148.612 125.113L232.434 155.529L146.643 131.137L222.276 178.22L143.46 136.622L207.595 198.315L139.198 141.328L189.035 214.935L134.045 145.052L167.406 227.355L128.227 147.628L143.652 235.03L121.997 148.944L118.813 237.626L115.629 148.944L93.9745 235.03L109.399 147.628L70.2213 227.355L103.581 145.052L48.5919 214.935L98.4288 141.328L30.0314 198.315L94.1672 136.622L15.3512 178.22L90.9828 131.137L5.19271 155.529L89.0147 125.113L0 131.233L88.349 118.813L0 106.394L89.0147 112.514L5.19271 82.0979L90.9828 106.49L15.3512 59.4066L94.1672 101.005L30.0314 39.3116L98.4288 96.2979L48.5919 22.6913L103.581 92.575L70.2213 10.2719L109.399 89.9987L93.9745 2.59635L115.629 88.6818L118.813 0Z" fill="#77FA56"/>
</svg>
