<svg width="124" height="105" viewBox="0 0 124 105" fill="none" xmlns="http://www.w3.org/2000/svg">
<path fill-rule="evenodd" clip-rule="evenodd" d="M48.795 0.0502518C41.3866 0.573472 34.9032 2.33668 28.5903 5.54506C13.3656 13.2825 2.81494 28.1765 0.487271 45.2173C-0.162424 49.9733 -0.162424 55.0205 0.487271 59.7765C2.95692 77.8568 14.6458 93.4133 31.2426 100.709C36.7193 103.116 42.3276 104.478 48.5705 104.918C51.4523 105.121 56.2327 104.935 59.0691 104.509L59.87 104.389L60.4612 104.671C61.0055 104.931 61.1276 104.954 61.9954 104.954C62.8632 104.954 62.9853 104.931 63.5296 104.671L64.1208 104.389L64.9217 104.509C68.7769 105.087 73.9709 105.153 78.1143 104.676C88.3285 103.5 98.068 99.1853 105.952 92.3427C107.399 91.0868 110.411 88.0233 111.578 86.6199C115.453 81.9615 118.284 77.1904 120.406 71.7423C124.798 60.468 125.178 47.8418 121.474 36.2698C115.711 18.2665 100.698 4.71765 82.3953 1.00233C78.7523 0.262908 76.4814 0.0487021 72.2325 0.0439703C68.7497 0.0400576 67.2332 0.131603 64.9139 0.485482C64.2096 0.592946 64.0721 0.591305 63.8441 0.47283C62.6311 -0.157673 61.3595 -0.157578 60.1467 0.472924C59.9175 0.592127 59.7813 0.593216 59.0439 0.481838C57.0072 0.174185 55.4102 0.068726 52.3869 0.0423375C50.683 0.0275054 49.0666 0.0310519 48.795 0.0502518ZM55.8302 2.49829C55.951 2.54833 55.6477 2.69438 54.7077 3.0387C48.4148 5.34423 42.7869 8.72296 37.7946 13.1928C36.4008 14.4408 33.6583 17.2942 32.5089 18.6923C31.4778 19.9464 30.0121 21.8944 29.4448 22.7644C29.2572 23.0521 29.0683 23.2876 29.0251 23.2876C28.9819 23.2876 28.432 23.476 27.8031 23.7063C17.2526 27.5703 9.17234 33.0096 4.46832 39.4145C4.10392 39.9107 3.80579 40.2911 3.80579 40.26C3.80579 40.229 3.97039 39.6082 4.17145 38.8806C4.9694 35.9942 5.93159 33.4506 7.3021 30.6049C9.19955 26.6653 11.1444 23.6163 13.9142 20.2393C15.1317 18.7547 18.4997 15.3344 19.9281 14.1319C24.895 9.95057 30.2151 6.92727 36.0884 4.94822C39.9851 3.63517 43.7107 2.84334 47.4031 2.54333C48.0452 2.49119 48.7321 2.43231 48.9297 2.41266C49.5514 2.3506 55.6565 2.4264 55.8302 2.49829ZM76.7224 2.53486C80.8461 2.96409 84.0959 3.66556 87.9024 4.94822C93.7877 6.93127 99.1565 9.98397 104.063 14.1369C105.378 15.2502 107.946 17.7857 109.138 19.1473C114.203 24.9337 117.786 31.5718 119.868 39.0259C120.042 39.6494 120.185 40.1949 120.185 40.2381C120.185 40.2812 119.887 39.9107 119.522 39.4145C115.416 33.8234 108.807 29.0055 100.088 25.2486C98.8697 24.7235 95.8665 23.5604 95.257 23.3775C94.9283 23.2789 94.8111 23.1535 94.1624 22.2072C92.5043 19.7883 90.5061 17.4288 88.025 14.9601C83.3022 10.261 78.1715 6.7865 72.008 4.1138C70.7698 3.57693 68.2712 2.63177 68.09 2.63177C68.0306 2.63177 68.0114 2.60192 68.0474 2.56553C68.1806 2.43058 69.7547 2.37708 72.7264 2.40647C74.4056 2.42312 76.2038 2.4809 76.7224 2.53486ZM63.2543 3.68267L64.2115 3.91462L64.7837 4.79144C66.3735 7.22737 67.7717 10.8915 69.0467 15.9625C69.5258 17.8686 69.5962 18.2424 69.4806 18.2684C69.4046 18.2854 68.4621 18.2547 67.3861 18.2002C66.3101 18.1456 63.8842 18.1009 61.9954 18.1009C60.1066 18.1009 57.6807 18.1456 56.6047 18.2002C55.5287 18.2547 54.5858 18.2854 54.5096 18.2684C54.3929 18.2423 54.4621 17.8733 54.9431 15.9548C55.8793 12.2198 57.25 8.30257 58.3313 6.27156C58.5311 5.89621 58.9388 5.2122 59.2371 4.75159L59.7796 3.91416L60.6855 3.68868C61.8404 3.40122 62.0903 3.40059 63.2543 3.68267ZM55.8311 6.06009C54.4625 9.00004 53.2195 12.851 52.2081 17.2839L51.9274 18.5145L50.3388 18.6741C44.9825 19.2122 38.6448 20.4054 33.7775 21.7922C33.3329 21.9188 32.9517 22.0047 32.9303 21.9831C32.9089 21.9614 33.3 21.4373 33.7996 20.8184C36.8641 17.0215 40.6565 13.5152 44.593 10.8392C47.707 8.72251 51.5248 6.75193 55.2156 5.35634C55.7095 5.16953 56.1613 5.01247 56.2196 5.00719C56.2779 5.00191 56.1031 5.47573 55.8311 6.06009ZM68.9705 5.4385C74.8911 7.70518 79.8528 10.7089 84.5349 14.861C86.4622 16.5702 88.7968 19.0433 90.4278 21.1037C91.1224 21.9811 91.1661 22.0561 90.9471 21.9932C86.901 20.8325 82.3899 19.8635 78.1592 19.2461C75.838 18.9075 72.8928 18.5559 72.377 18.5559H72.0705L71.83 17.4867C70.7748 12.7948 69.3408 8.39884 67.9572 5.61494C67.7885 5.27544 67.6884 4.99764 67.7346 4.99764C67.781 4.99764 68.3371 5.196 68.9705 5.4385ZM67.2935 20.556C68.2566 20.6041 69.2911 20.6678 69.5924 20.6974L70.1401 20.7513L70.5117 22.8612C73.5916 40.3456 73.6262 63.9288 70.5981 81.6779L70.3158 83.333L69.77 83.3857C66.5356 83.698 57.4599 83.6983 54.2246 83.3861L53.6825 83.3338L53.3958 81.6783C52.3551 75.6698 51.6754 68.8977 51.2932 60.7319C51.1491 57.6557 51.1491 47.3381 51.2932 44.2619C51.6872 35.8421 52.37 29.1571 53.4791 22.8612L53.8507 20.7513L54.3984 20.695C56.4553 20.4835 64.1775 20.4002 67.2935 20.556ZM51.3981 21.0355C51.3975 21.0981 51.1964 22.3698 50.9511 23.8617C49.5019 32.677 48.8474 41.5853 48.8474 52.4969C48.8474 63.2352 49.491 72.1464 50.89 80.7788L51.278 83.1728L50.9569 83.1237C50.7803 83.0968 50.0499 83.0098 49.3338 82.9304C44.1958 82.3604 38.3084 81.1814 33.4534 79.7503C31.8282 79.2712 29.9621 78.6679 29.895 78.5999C29.7701 78.4734 28.4578 76.0672 27.9194 74.9774C21.5851 62.1583 20.9547 47.2788 26.1811 33.9415C27.2272 31.272 29.5563 26.6992 30.5209 25.4209C30.6672 25.227 31 25.0906 32.3169 24.6844C37.5454 23.0716 43.4071 21.8593 49.4236 21.1468C50.3867 21.0326 51.2252 20.9354 51.2869 20.9305C51.3487 20.9256 51.3987 20.9729 51.3981 21.0355ZM74.5672 21.1548C77.4041 21.4641 81.5127 22.1428 84.4538 22.7879C87.4898 23.4539 92.8259 24.935 93.2977 25.2428C93.7593 25.5438 96.2032 30.0853 97.2891 32.66C99.4282 37.7318 100.615 42.541 101.164 48.3566C101.308 49.8799 101.307 55.0934 101.163 56.6372C100.447 64.3047 98.4435 70.8584 94.8432 77.3089C94.3125 78.2595 94.0609 78.624 93.8864 78.6947C93.4246 78.8817 91.0246 79.6251 89.5636 80.0334C84.8798 81.3427 79.4405 82.3997 74.657 82.9304C73.9409 83.0098 73.2076 83.0973 73.0275 83.1249L72.6999 83.175L72.8255 82.5089C73.0028 81.5682 73.5362 78.0113 73.7508 76.3375C75.6585 61.4595 75.6585 43.5343 73.7508 28.6563C73.5109 26.7855 72.9958 23.3866 72.7715 22.1958C72.5246 20.8843 72.5213 20.9098 72.9284 20.9662C73.1137 20.9919 73.8511 21.0768 74.5672 21.1548ZM26.0774 28.497C22.8926 34.8095 21.1162 41.1143 20.4947 48.3111C20.3478 50.0121 20.3478 54.9817 20.4947 56.6827C21.0939 63.6212 22.8351 69.9597 25.7778 75.915C26.1452 76.6586 26.4327 77.2802 26.4168 77.2964C26.3136 77.4009 22.1476 75.5098 20.1637 74.4579C8.41004 68.2259 2.03253 59.9502 2.39837 51.405C2.54259 48.0367 3.575 45.0004 5.6472 41.8505C6.67665 40.2857 7.40088 39.3929 8.92279 37.8124C12.9665 33.6133 18.3294 30.165 25.582 27.1004C26.2734 26.8082 26.8873 26.5678 26.946 26.5662C27.0048 26.5647 26.614 27.4336 26.0774 28.497ZM98.3019 27.0556C104.077 29.4555 108.827 32.259 112.692 35.5477C114.029 36.6856 116.253 38.9786 117.128 40.1216C120.302 44.2695 121.767 48.3903 121.593 52.6789C121.489 55.2374 120.947 57.3224 119.736 59.822C116.85 65.7755 110.501 71.315 101.785 75.4822C100.061 76.3066 97.6301 77.3532 97.5733 77.2956C97.5577 77.2799 97.8453 76.6586 98.2125 75.915C101.093 70.082 102.773 64.0889 103.451 57.2286C103.567 56.0491 103.608 54.8224 103.608 52.4969C103.608 50.1714 103.567 48.9447 103.451 47.7652C102.745 40.6276 101.009 34.6055 97.8697 28.406C97.3564 27.3925 96.9773 26.5634 97.0271 26.5634C97.0768 26.5634 97.6506 26.7849 98.3019 27.0556ZM120.147 64.8798C118.215 72.5839 114.464 79.7527 109.225 85.7555C108.002 87.1573 105.362 89.7593 103.98 90.926C100.754 93.6487 97.7321 95.6397 94.0087 97.4963C88.4553 100.265 82.9774 101.83 76.5877 102.472C75.2756 102.604 68.6783 102.635 68.2364 102.511C67.9887 102.442 68.0536 102.405 69.0446 102.049C79.5509 98.2799 88.6589 91.1258 94.8394 81.7882L95.6465 80.5688L96.2643 80.357C97.5264 79.9245 100.797 78.5631 102.426 77.7919C106.925 75.6622 110.726 73.2743 113.989 70.528C116.215 68.6542 118.675 65.994 119.943 64.0894C120.249 63.6298 120.509 63.263 120.522 63.2744C120.534 63.2858 120.366 64.0082 120.147 64.8798ZM4.03827 64.076C5.8681 66.7339 8.59233 69.5182 11.6311 71.8362C15.7678 74.9915 20.8953 77.7567 26.7491 79.9892L28.3652 80.6056L29.3084 82.0128C31.2604 84.9255 32.8522 86.8553 35.5891 89.6271C36.7528 90.8057 38.2099 92.1953 38.8273 92.715C43.6678 96.7909 48.7873 99.7785 54.5732 101.904C55.594 102.279 55.9493 102.446 55.8303 102.493C55.5073 102.622 50.3218 102.665 48.6603 102.552C37.9505 101.822 28.1949 97.8517 19.9281 90.8573C17.7596 89.0226 14.8533 85.981 12.9205 83.5236C9.13849 78.7148 5.9861 72.4894 4.24921 66.3993C3.89002 65.14 3.44444 63.3253 3.49446 63.3253C3.50927 63.3253 3.75397 63.6631 4.03827 64.076ZM33.5572 82.2444C36.7024 83.1371 40.2516 83.9304 43.7213 84.5163C45.9236 84.8881 49.5662 85.3774 50.9687 85.4898L51.7506 85.5524L51.8531 86.0634C52.8083 90.829 54.32 95.7164 55.8459 98.9725C56.1097 99.5356 56.295 99.9962 56.2575 99.9962C56.2202 99.9962 55.6901 99.81 55.0795 99.5825C46.6554 96.4432 39.1549 90.9564 33.5002 83.7966C32.3295 82.3142 31.932 81.7504 32.106 81.818C32.1818 81.8474 32.8348 82.0393 33.5572 82.2444ZM91.7586 82.1384C86.2025 89.6943 79.0928 95.3523 70.7508 98.8567C69.7559 99.2747 67.8523 99.9962 67.7445 99.9962C67.7009 99.9962 67.8824 99.533 68.148 98.967C69.5548 95.9679 70.8533 91.8993 71.8727 87.2959L72.257 85.5606L73.4346 85.446C76.6217 85.136 81.0392 84.4469 84.3553 83.7425C86.3228 83.3245 89.8381 82.4411 91.1351 82.0386C92.072 81.7479 92.0485 81.7442 91.7586 82.1384ZM60.5011 85.95C63.6638 85.9882 65.8917 85.9706 67.4442 85.8947C68.7016 85.8333 69.7493 85.8023 69.7724 85.8257C69.8189 85.8728 69.226 88.4606 68.8087 90.0322C67.6456 94.4125 66.2316 97.9838 64.7786 100.21L64.2115 101.079L63.2543 101.311C62.7278 101.439 62.1614 101.543 61.9954 101.543C61.8295 101.543 61.263 101.439 60.7365 101.311L59.7794 101.079L59.2071 100.202C57.619 97.769 56.1605 93.9206 54.9045 88.8493C54.5699 87.498 54.2706 86.2543 54.2396 86.0856L54.183 85.7787L55.0136 85.8362C55.4704 85.8678 57.9398 85.919 60.5011 85.95Z" fill="#8678FC"/>
</svg>
