<svg width="51" height="44" viewBox="0 0 51 44" fill="none" xmlns="http://www.w3.org/2000/svg">
<path fill-rule="evenodd" clip-rule="evenodd" d="M20.0689 0.0206529C17.0219 0.235691 14.3553 0.960348 11.7589 2.27896C5.49714 5.45897 1.15776 11.5803 0.20041 18.5838C-0.0668032 20.5385 -0.0668032 22.6128 0.20041 24.5675C1.21615 31.9983 6.02366 38.3919 12.8498 41.3901C15.1023 42.3795 17.4089 42.9394 19.9766 43.1201C21.1618 43.2034 23.128 43.1269 24.2946 42.9521L24.6239 42.9027L24.8671 43.0188C25.091 43.1256 25.1412 43.1349 25.4981 43.1349C25.855 43.1349 25.9053 43.1256 26.1291 43.0188L26.3723 42.9027L26.7017 42.9521C28.2873 43.1898 30.4235 43.2168 32.1276 43.0208C36.3287 42.5375 40.3344 40.7641 43.577 37.9518C44.1721 37.4357 45.4109 36.1766 45.891 35.5998C47.4848 33.6853 48.6492 31.7244 49.522 29.4853C51.3281 24.8517 51.4844 19.6625 49.9609 14.9065C47.5908 7.50733 41.4161 1.9389 33.8884 0.411947C32.3901 0.108052 31.4561 0.020016 29.7085 0.0180713C28.2761 0.0164632 27.6524 0.0540874 26.6984 0.199528C26.4088 0.243694 26.3522 0.24302 26.2585 0.194328C25.7596 -0.0648018 25.2366 -0.064763 24.7378 0.194367C24.6435 0.243358 24.5875 0.243805 24.2842 0.19803C23.4465 0.0715881 22.7897 0.0282456 21.5462 0.0174002C20.8454 0.0113044 20.1806 0.012762 20.0689 0.0206529ZM22.9624 1.02677C23.0121 1.04734 22.8874 1.10736 22.5007 1.24887C19.9125 2.19642 17.5978 3.58504 15.5446 5.4221C14.9713 5.93501 13.8433 7.10773 13.3706 7.68235C12.9465 8.19777 12.3437 8.99834 12.1104 9.3559C12.0332 9.47416 11.9555 9.57094 11.9377 9.57094C11.92 9.57094 11.6938 9.64839 11.4351 9.74305C7.09583 11.3311 3.77249 13.5666 1.83778 16.1989C1.6879 16.4029 1.56528 16.5592 1.56528 16.5464C1.56528 16.5337 1.63298 16.2785 1.71568 15.9795C2.04387 14.7932 2.43961 13.7478 3.00328 12.5783C3.78369 10.9592 4.58359 9.70606 5.72276 8.31811C6.22351 7.70797 7.60876 6.30226 8.19623 5.80804C10.2391 4.08957 12.4272 2.84703 14.8428 2.03367C16.4455 1.49401 17.9778 1.16858 19.4964 1.04528C19.7605 1.02385 20.043 0.999653 20.1243 0.991575C20.38 0.96607 22.891 0.997223 22.9624 1.02677ZM31.5552 1.0418C33.2512 1.21821 34.5878 1.50651 36.1534 2.03367C38.574 2.84868 40.7821 4.1033 42.8 5.8101C43.3409 6.26766 44.3972 7.30972 44.8875 7.86934C46.9705 10.2475 48.4443 12.9757 49.3007 16.0392C49.3723 16.2955 49.4309 16.5196 49.4309 16.5374C49.4309 16.5551 49.3083 16.4029 49.1584 16.1989C47.4695 13.9011 44.7511 11.9209 41.1654 10.3769C40.6641 10.1611 39.429 9.68306 39.1783 9.60789C39.0431 9.56735 38.9949 9.51585 38.7281 9.12691C38.0461 8.13277 37.2243 7.16304 36.2038 6.14844C34.2614 4.21714 32.1512 2.78918 29.6162 1.69073C29.1069 1.47008 28.0793 1.08163 28.0047 1.08163C27.9803 1.08163 27.9724 1.06936 27.9872 1.0544C28.042 0.998942 28.6894 0.976953 29.9116 0.989032C30.6023 0.995876 31.3419 1.01962 31.5552 1.0418ZM26.0159 1.51354L26.4095 1.60887L26.6449 1.96923C27.2988 2.97037 27.8738 4.47631 28.3982 6.56041C28.5953 7.34379 28.6243 7.49742 28.5767 7.50811C28.5454 7.5151 28.1578 7.5025 27.7153 7.48006C27.2727 7.45762 26.275 7.43926 25.4981 7.43926C24.7213 7.43926 23.7235 7.45762 23.281 7.48006C22.8384 7.5025 22.4506 7.5151 22.4193 7.50811C22.3713 7.49738 22.3997 7.34573 22.5975 6.55724C22.9826 5.0222 23.5464 3.41226 23.9911 2.57754C24.0733 2.42328 24.241 2.14216 24.3637 1.95285L24.5868 1.60868L24.9594 1.51601C25.4344 1.39787 25.5371 1.3976 26.0159 1.51354ZM22.9628 2.49063C22.3999 3.69892 21.8887 5.28163 21.4727 7.1035L21.3573 7.60924L20.7039 7.67483C18.5009 7.896 15.8942 8.3864 13.8923 8.95635C13.7095 9.0084 13.5527 9.0437 13.5439 9.0348C13.5351 9.0259 13.696 8.81049 13.9014 8.55615C15.1619 6.99565 16.7216 5.5546 18.3407 4.4548C19.6214 3.58486 21.1916 2.77497 22.7096 2.2014C22.9128 2.12462 23.0986 2.06007 23.1226 2.0579C23.1466 2.05573 23.0746 2.25046 22.9628 2.49063ZM28.3669 2.23517C30.802 3.16675 32.8427 4.40125 34.7684 6.10771C35.5611 6.81016 36.5212 7.82659 37.1921 8.67339C37.4777 9.03398 37.4957 9.0648 37.4056 9.03896C35.7415 8.56191 33.8862 8.16366 32.1461 7.90996C31.1914 7.77076 29.9801 7.62625 29.768 7.62625H29.6419L29.543 7.18683C29.109 5.25852 28.5192 3.45183 27.9502 2.30768C27.8808 2.16815 27.8396 2.05397 27.8586 2.05397C27.8776 2.05397 28.1064 2.1355 28.3669 2.23517ZM27.6772 8.44829C28.0733 8.46808 28.4988 8.49422 28.6227 8.50641L28.848 8.52855L29.0008 9.39569C30.2675 16.5816 30.2818 26.2741 29.0363 33.5687L28.9202 34.249L28.6957 34.2706C27.3655 34.399 23.6327 34.3991 22.302 34.2708L22.0791 34.2493L21.9612 33.5689C21.5332 31.0995 21.2536 28.3162 21.0964 24.9602C21.0371 23.6958 21.0371 19.4555 21.0964 18.1911C21.2584 14.7307 21.5393 11.9833 21.9954 9.39569L22.1483 8.52855L22.3735 8.5054C23.2195 8.41849 26.3956 8.38427 27.6772 8.44829ZM21.1395 8.64534C21.1393 8.67107 21.0566 9.19374 20.9557 9.80688C20.3596 13.4299 20.0905 17.0911 20.0905 21.5756C20.0905 25.989 20.3552 29.6514 20.9306 33.1992L21.0901 34.1831L20.9581 34.1629C20.8855 34.1519 20.585 34.1161 20.2905 34.0835C18.1773 33.8492 15.7559 33.3647 13.7591 32.7765C13.0906 32.5796 12.3231 32.3316 12.2955 32.3037C12.2442 32.2517 11.7044 31.2628 11.483 30.8149C8.87772 25.5464 8.61849 19.4311 10.768 13.9496C11.1983 12.8525 12.1562 10.9731 12.553 10.4477C12.6131 10.368 12.75 10.312 13.2916 10.145C15.4421 9.48216 17.8529 8.98394 20.3274 8.69108C20.7235 8.64419 21.0684 8.60421 21.0938 8.60223C21.1192 8.60021 21.1398 8.61965 21.1395 8.64534ZM30.6688 8.69441C31.8355 8.82153 33.5254 9.10044 34.735 9.36559C35.9837 9.63931 38.1784 10.248 38.3725 10.3745C38.5623 10.4982 39.5674 12.3647 40.0141 13.4229C40.8939 15.5074 41.3821 17.4839 41.6078 19.874C41.6669 20.5001 41.6666 22.6428 41.6073 23.2773C41.3129 26.4285 40.4888 29.122 39.0081 31.7731C38.7898 32.1638 38.6863 32.3136 38.6145 32.3427C38.4246 32.4195 37.4375 32.725 36.8367 32.8928C34.9102 33.431 32.6731 33.8654 30.7057 34.0835C30.4112 34.1161 30.1096 34.1521 30.0355 34.1634L29.9007 34.184L29.9524 33.9102C30.0254 33.5236 30.2447 32.0618 30.333 31.3739C31.1176 25.2592 31.1176 17.8921 30.333 11.7774C30.2343 11.0086 30.0224 9.61163 29.9302 9.12224C29.8287 8.58322 29.8273 8.5937 29.9947 8.61689C30.0709 8.62743 30.3742 8.66232 30.6688 8.69441ZM10.7254 11.712C9.41551 14.3063 8.68489 16.8975 8.42928 19.8553C8.36885 20.5544 8.36885 22.5969 8.42928 23.2959C8.67573 26.1476 9.39187 28.7527 10.6022 31.2002C10.7533 31.5058 10.8715 31.7613 10.865 31.768C10.8225 31.8109 9.10911 31.0337 8.29314 30.6014C3.45897 28.0401 0.835961 24.6389 0.986427 21.1269C1.04574 19.7426 1.47036 18.4947 2.32264 17.2001C2.74604 16.557 3.04391 16.1901 3.66986 15.5405C5.333 13.8147 7.5387 12.3975 10.5216 11.1379C10.806 11.0179 11.0585 10.9191 11.0826 10.9184C11.1068 10.9178 10.9461 11.2749 10.7254 11.712ZM40.4306 11.1196C42.8057 12.1059 44.7596 13.2581 46.3492 14.6097C46.8992 15.0774 47.8138 16.0198 48.1735 16.4895C49.479 18.1943 50.0817 19.8879 50.01 21.6504C49.9673 22.702 49.7444 23.5589 49.2461 24.5862C48.0594 27.033 45.4479 29.3097 41.8633 31.0223C41.1541 31.3612 40.1543 31.7913 40.131 31.7676C40.1245 31.7612 40.2428 31.5058 40.3938 31.2002C41.5784 28.8029 42.2694 26.3398 42.5483 23.5203C42.5962 23.0355 42.613 22.5314 42.613 21.5756C42.613 20.6199 42.5962 20.1157 42.5483 19.631C42.2581 16.6975 41.5441 14.2225 40.2528 11.6746C40.0418 11.258 39.8858 10.9173 39.9063 10.9173C39.9268 10.9173 40.1627 11.0083 40.4306 11.1196ZM49.4153 26.6649C48.6207 29.8312 47.0781 32.7775 44.9233 35.2446C44.42 35.8207 43.3343 36.8901 42.7658 37.3696C41.439 38.4886 40.1963 39.3069 38.6649 40.0699C36.3808 41.2079 34.1278 41.8509 31.4998 42.1149C30.9601 42.1691 28.2467 42.1819 28.065 42.131C27.9631 42.1025 27.9898 42.0873 28.3974 41.9411C32.7185 40.392 36.4645 37.4517 39.0065 33.6141L39.3385 33.1129L39.5926 33.0259C40.1117 32.8481 41.4566 32.2886 42.1267 31.9716C43.9771 31.0963 45.5404 30.1149 46.8825 28.9862C47.7983 28.2161 48.81 27.1228 49.3314 26.3401C49.4573 26.1512 49.5644 26.0004 49.5695 26.0051C49.5745 26.0098 49.5052 26.3067 49.4153 26.6649ZM1.6609 26.3345C2.41349 27.4269 3.53394 28.5712 4.78377 29.5239C6.48514 30.8207 8.59403 31.9571 11.0016 32.8747L11.6663 33.128L12.0542 33.7064C12.8571 34.9035 13.5118 35.6966 14.6374 36.8358C15.1161 37.3201 15.7154 37.8912 15.9693 38.1049C17.9602 39.78 20.0657 41.0079 22.4454 41.8814C22.8653 42.0356 23.0114 42.104 22.9625 42.1236C22.8296 42.1767 20.6969 42.1941 20.0135 42.1476C15.6087 41.8479 11.5963 40.216 8.19623 37.3413C7.30436 36.5873 6.10901 35.3372 5.31409 34.3273C3.75857 32.3509 2.46202 29.7923 1.74766 27.2894C1.59993 26.7718 1.41666 26.026 1.43724 26.026C1.44333 26.026 1.54397 26.1649 1.6609 26.3345ZM13.8018 33.8015C15.0953 34.1684 16.5551 34.4945 17.9822 34.7353C18.8879 34.8881 20.3861 35.0892 20.9629 35.1354L21.2845 35.1611L21.3267 35.3711C21.7195 37.3297 22.3413 39.3384 22.9689 40.6766C23.0774 40.908 23.1536 41.0973 23.1382 41.0973C23.1228 41.0973 22.9048 41.0208 22.6537 40.9273C19.1889 39.6371 16.104 37.3821 13.7783 34.4395C13.2968 33.8303 13.1333 33.5985 13.2049 33.6263C13.236 33.6384 13.5046 33.7172 13.8018 33.8015ZM37.7394 33.758C35.4543 36.8634 32.5301 39.1888 29.0991 40.629C28.6899 40.8008 27.907 41.0973 27.8627 41.0973C27.8447 41.0973 27.9194 40.907 28.0286 40.6744C28.6072 39.4418 29.1413 37.7696 29.5606 35.8777L29.7186 35.1645L30.2029 35.1174C31.5138 34.99 33.3306 34.7067 34.6945 34.4172C35.5037 34.2454 36.9495 33.8824 37.483 33.717C37.8683 33.5975 37.8587 33.596 37.7394 33.758ZM24.8835 35.3245C26.1843 35.3402 27.1006 35.333 27.7391 35.3018C28.2563 35.2765 28.6872 35.2638 28.6967 35.2734C28.7159 35.2928 28.472 36.3563 28.3004 37.0023C27.822 38.8025 27.2404 40.2703 26.6428 41.1853L26.4095 41.5424L26.0159 41.6378C25.7993 41.6902 25.5664 41.7331 25.4981 41.7331C25.4299 41.7331 25.1969 41.6902 24.9803 41.6378L24.5867 41.5424L24.3513 41.1821C23.6981 40.182 23.0983 38.6003 22.5817 36.5161C22.444 35.9607 22.321 35.4496 22.3082 35.3802L22.2849 35.2541L22.6266 35.2777C22.8145 35.2907 23.8301 35.3118 24.8835 35.3245Z" fill="#77FA56"/>
</svg>
