<svg id="Mobile_buttons_filters" data-name="Mobile/buttons/filters" xmlns="http://www.w3.org/2000/svg" width="24" height="17" viewBox="0 0 24 17">
  <path id="Path_Copy_12" data-name="Path Copy 12" d="M0,2.5,4,0,8,2.5,4,5,0,2.5Z" transform="translate(19.5) rotate(90)" fill="#ababab"/>
  <path id="Path_Copy_29" data-name="Path Copy 29" d="M0,13.354V1.833L3,0V15Z" transform="translate(23.5 14) rotate(90)" fill="#fff"/>
  <path id="Path_Copy_30" data-name="Path Copy 30" d="M0,4.257V1.941L3,0V6Z" transform="translate(6.5 14) rotate(90)" fill="#fff"/>
  <path id="Path_Copy_31" data-name="Path Copy 31" d="M0,3.5V1.941L3,0V5.5Z" transform="translate(23.5 5) rotate(90)" fill="#fff"/>
  <path id="Path_Copy_32" data-name="Path Copy 32" d="M0,13.854V2L3,0V15.5Z" transform="translate(16 5) rotate(90)" fill="#fff"/>
  <path id="Path_Copy_33" data-name="Path Copy 33" d="M0,2.5,4.5,0,9,2.5,4.5,5,0,2.5Z" transform="translate(10 8) rotate(90)" fill="#ababab"/>
</svg>
