<svg id="logo" xmlns="http://www.w3.org/2000/svg" width="681" height="152" viewBox="0 0 681 152">
  <rect id="logo_all_background" data-name="logo/all background" width="681" height="152" fill="none"/>
  <g id="Artboard_81мтл_сайт" data-name="Artboard 81мтл сайт" transform="translate(0 0)">
    <path id="Path" d="M0,84.19,18.79,73.33,41.64,60.14V11.99L62.5,0V72.19L29.22,91.4,0,108.28V84.19Z" transform="translate(70.63 43.11)" fill="#2b61fb"/>
    <path id="Path-2" data-name="Path" d="M20.86,11.99V59.98L43.72,73.17,62.51,84.03v24.09L33.28,91.24,0,72.03V0L20.86,11.99Z" transform="translate(0 43.27)" fill="#0549bf"/>
    <path id="Path-3" data-name="Path" d="M62.64,0,95.93,19.22l29.22,16.87L104.24,48.1,85.5,37.28,62.64,24.09,39.8,37.28,20.92,48.18,0,36.17,29.36,19.22,62.64,0Z" transform="translate(3.92)" fill="#6ab0fc"/>
    <path id="Path-4" data-name="Path" d="M9.22,12.83l6.49,16.46L22.18,5.33,31.42,0V29.06l-7.03,4.06V26.34l.67-14.29L18.03,36.79l-4.64,2.68L6.34,22.85l.68,13.52v6.79L0,47.21V18.15l9.22-5.32Z" transform="translate(66.56 67.58)" fill="#2b61fb"/>
    <path id="Path-5" data-name="Path" d="M0,18.16,31.41,0l31.4,18.16L31.41,36.33,0,18.16Z" transform="translate(35.15 36.55)" fill="#6ab0fc"/>
    <path id="Path-6" data-name="Path" d="M15.9,37.35,7.88,32.68V7.15L0,4.86,5.11,0,15.9,2.8V37.35Z" transform="translate(35.16 68.5)" fill="#0549bf"/>
    <path id="Path-7" data-name="Path" d="M12.7,0l8.96,27.9L30.58,0H43.31V40.11H33.62V30.75l.93-19.17-9.7,28.53H18.46L8.74,11.54l.94,19.21v9.36H0V0Z" transform="translate(163.222 55.64)" fill="#fff"/>
    <path id="_1" d="M24.88,23.07H9.67v9.59H27.63v7.45H0V0H27.69V7.45H9.67v8.46H24.88v7.16Z" transform="translate(215.48 55.64)" fill="#fff"/>
    <path id="_2" d="M33.53,7.45H21.49V40.11H11.82V7.45H0V0H33.53V7.45Z" transform="translate(247.557 55.64)" fill="#fff"/>
    <path id="_3" d="M10.34,40.111H0L14.72,0H23.8l14.83,40.109H28.24L25.9,32.6H12.65L10.34,40.11ZM19.26,11.23h0l-4.3,13.93h8.63L19.26,11.23Z" transform="translate(280.492 55.64)" fill="#fff"/>
    <path id="_4" d="M35.78,0V40.11H26.12V7.45h-9l-.67,13.48a39.87,39.87,0,0,1-1.93,11.13,12,12,0,0,1-4.3,6.07,13.62,13.62,0,0,1-7.62,2H0V32.66l1.36-.14a5.19,5.19,0,0,0,4.18-3.53q1.31-3.13,1.69-10.54L7.92,0Z" transform="translate(323.035 55.64)" fill="#fff"/>
    <path id="_5" d="M35.77,0V40.11H26.11V7.45h-9l-.66,13.48a40.61,40.61,0,0,1-1.93,11.13,12.06,12.06,0,0,1-4.31,6.07,13.62,13.62,0,0,1-7.62,2H0V32.66l1.36-.14a5.22,5.22,0,0,0,4.18-3.53c.86-2.09,1.43-5.6,1.68-10.54L7.91,0Z" transform="translate(365.252 55.64)" fill="#fff"/>
    <path id="_6" d="M17.2,41.269a17.473,17.473,0,0,1-8.682-2.314,16.066,16.066,0,0,1-6.179-6.74,23.128,23.128,0,0,1-2.33-10.06v-2.3A23.811,23.811,0,0,1,2.175,9.444a16.086,16.086,0,0,1,6.19-7,18.311,18.311,0,0,1,18.28,0,16.459,16.459,0,0,1,6.22,6.9,23.257,23.257,0,0,1,2.23,10.28v1.849a23.793,23.793,0,0,1-2.17,10.391,16.059,16.059,0,0,1-6.18,7,17.193,17.193,0,0,1-8.764,2.4c-.121,0-.245,0-.366,0C17.476,41.267,17.335,41.269,17.2,41.269Zm.577-33.68h0c-.075,0-.152,0-.228,0a6.4,6.4,0,0,0-5.56,2.73c-1.274,1.812-1.987,4.567-2.12,8.19v3c0,3.983.673,7.035,2,9.07a6.78,6.78,0,0,0,11.45,0c1.327-2.092,2-5.12,2-9l-.05-1.8c0-3.982-.673-7.04-2-9.09a6.443,6.443,0,0,0-5.491-3.1Z" transform="translate(408.427 55.046)" fill="#fff"/>
    <path id="_7" d="M33.75,40.11H24.08V7.45H9.68V40.11H0V0H33.75V40.11Z" transform="translate(450.917 55.64)" fill="#fff"/>
    <path id="_8" d="M9.66,40.114H0V0H16c.123,0,.248,0,.371,0A18.521,18.521,0,0,1,24.14,1.694a12.725,12.725,0,0,1,5.48,4.82,13.1,13.1,0,0,1,1.94,7.069,11.6,11.6,0,0,1-4.21,9.37,14.109,14.109,0,0,1-4.976,2.632,22.539,22.539,0,0,1-6.544.878H9.66V40.113ZM16,19.013c.137.009.275.014.412.014a6.006,6.006,0,0,0,3.867-1.414,5.25,5.25,0,0,0,1.471-4,6.385,6.385,0,0,0-1.51-4.479A5.352,5.352,0,0,0,16.322,7.42c-.07,0-.142,0-.212,0H9.66V19.013Z" transform="translate(493.066 55.636)" fill="#fff"/>
    <path id="_9" d="M17.271,41.3a17.414,17.414,0,0,1-8.756-2.364,15.956,15.956,0,0,1-6.179-6.739,23.128,23.128,0,0,1-2.33-10.06V19.854A23.811,23.811,0,0,1,2.175,9.444a15.936,15.936,0,0,1,6.19-7,18.311,18.311,0,0,1,18.28,0,16.371,16.371,0,0,1,6.21,6.9,23.262,23.262,0,0,1,2.24,10.28v1.849a23.793,23.793,0,0,1-2.17,10.391,16.059,16.059,0,0,1-6.18,7A17.2,17.2,0,0,1,17.928,41.3l-.313,0C17.5,41.3,17.385,41.3,17.271,41.3ZM17.766,7.59c-.076,0-.154,0-.231,0a6.4,6.4,0,0,0-5.555,2.73c-1.274,1.812-1.989,4.567-2.125,8.19v3c0,3.959.656,7.01,1.95,9.07a6.4,6.4,0,0,0,5.518,3.177c.1,0,.2,0,.3-.007l.145,0a6.324,6.324,0,0,0,5.474-3.171c1.327-2.09,2-5.118,2-9v-1.8c0-4.018-.654-6.992-2-9.09A6.422,6.422,0,0,0,17.766,7.59Z" transform="translate(531.012 55.046)" fill="#fff"/>
    <path id="_10" d="M14.24,24.26H9.68V40.11H0V0H9.68V15.52h3.71L21.11,0h11.7L21.79,18.52,34.18,40.11H22.75L14.24,24.26Z" transform="translate(577.8 55.64)" fill="#fff"/>
    <path id="_11" d="M10.33,40.111H0L14.76,0h9L38.59,40.109H28.24L25.9,32.6H12.65L10.33,40.11ZM19.26,11.23h0l-4.3,13.93h8.62L19.26,11.23Z" transform="translate(611.24 55.64)" fill="#fff"/>
    <path id="_12" d="M33.53,7.45H21.5V40.11H11.82V7.45H0V0H33.53V7.45Z" transform="translate(647.13 55.64)" fill="#fff"/>
  </g>
</svg>
