<svg id="Nav_find_hover_off" data-name="Nav/find/hover_off" xmlns="http://www.w3.org/2000/svg" width="20" height="17.778" viewBox="0 0 20 17.778">
  <g id="Artboard_41мтл_сайт" data-name="Artboard 41мтл сайт" transform="translate(0.394 0.039)">
    <path id="Path" d="M11.928,9.922l-6.122.033L2.711,4.672,0,.028,3.833,0l1.75,2.994L7.706,6.622l4.2-.022,3.461-.022,1.939,3.311Z" fill="#2b61fb"/>
  </g>
  <g id="Artboard_41мтл_сайт_Copy" data-name="Artboard 41мтл сайт Copy" transform="translate(9.839 7.817)">
    <path id="Path-2" data-name="Path" d="M5.806,9.956,2.711,4.672,0,.028,3.833,0l1.75,2.994L7.706,6.622l1.889,3.3Z" transform="translate(0 0)" fill="#2b61fb"/>
  </g>
  <path id="Path_Copy" data-name="Path Copy" d="M11.87,9.967,5.778,10,2.7,4.693,0,.028,5,0l.556,3.008L7.668,6.652l4.18-.022,3.444-.022,1.93,3.326Z" transform="translate(19.444 10) rotate(-180)" fill="#2b61fb"/>
</svg>
