<svg width="10" height="10" viewBox="0 0 10 10" fill="none" xmlns="http://www.w3.org/2000/svg">
<g clip-path="url(#clip0_9_516)">
<path d="M8.14913 1.85414C8.10288 1.80778 8.04793 1.77101 7.98745 1.74592C7.92696 1.72083 7.86212 1.70791 7.79663 1.70791C7.73115 1.70791 7.66631 1.72083 7.60582 1.74592C7.54534 1.77101 7.49039 1.80778 7.44413 1.85414L4.99914 4.29414L2.55414 1.84914C2.50784 1.80284 2.45289 1.76612 2.39241 1.74107C2.33192 1.71602 2.2671 1.70313 2.20164 1.70312C2.13617 1.70312 2.07135 1.71602 2.01086 1.74107C1.95038 1.76612 1.89543 1.80284 1.84914 1.84914C1.80284 1.89543 1.76612 1.95038 1.74107 2.01086C1.71602 2.07135 1.70312 2.13617 1.70312 2.20164C1.70313 2.2671 1.71602 2.33192 1.74107 2.39241C1.76612 2.45289 1.80284 2.50784 1.84914 2.55414L4.29414 4.99914L1.84914 7.44413C1.80284 7.49043 1.76612 7.54538 1.74107 7.60586C1.71602 7.66635 1.70312 7.73117 1.70312 7.79663C1.70312 7.8621 1.71602 7.92692 1.74107 7.98741C1.76612 8.04789 1.80284 8.10284 1.84914 8.14913C1.89543 8.19543 1.95038 8.23215 2.01086 8.2572C2.07135 8.28225 2.13617 8.29515 2.20164 8.29515C2.2671 8.29515 2.33192 8.28225 2.39241 8.2572C2.45289 8.23215 2.50784 8.19543 2.55414 8.14913L4.99914 5.70413L7.44413 8.14913C7.49043 8.19543 7.54538 8.23215 7.60586 8.2572C7.66635 8.28225 7.73117 8.29515 7.79663 8.29515C7.8621 8.29515 7.92692 8.28225 7.98741 8.2572C8.04789 8.23215 8.10284 8.19543 8.14913 8.14913C8.19543 8.10284 8.23215 8.04789 8.2572 7.98741C8.28225 7.92692 8.29515 7.8621 8.29515 7.79663C8.29515 7.73117 8.28225 7.66635 8.2572 7.60586C8.23215 7.54538 8.19543 7.49043 8.14913 7.44413L5.70413 4.99914L8.14913 2.55414C8.33913 2.36414 8.33913 2.04414 8.14913 1.85414Z" fill="#E9E9E9"/>
</g>
<defs>
<clipPath id="clip0_9_516">
<rect width="10" height="10" fill="white"/>
</clipPath>
</defs>
</svg>
