<svg width="55" height="62" viewBox="0 0 55 62" fill="none" xmlns="http://www.w3.org/2000/svg">
<path d="M49.9473 47.3175C49.9473 47.6498 49.8524 47.9583 49.6625 48.2194C49.354 48.6228 48.8794 48.8364 48.2623 48.8127L17.3391 47.982C16.105 47.9583 14.776 46.9378 14.3726 45.7275L4.59486 15.7298C4.405 15.1365 4.45247 14.5669 4.76099 14.1635C5.06951 13.76 5.54415 13.5464 6.16119 13.5702L37.0844 14.4008C38.3185 14.4245 39.6475 15.445 40.0509 16.6554L49.8524 46.653C49.9236 46.8666 49.9473 47.1039 49.9473 47.3175ZM4.61859 15.0653C4.61859 15.2552 4.64233 15.4688 4.71352 15.7061L14.4912 45.68C14.871 46.8429 16.1525 47.8159 17.3629 47.8634L48.2861 48.694C48.8556 48.7177 49.3065 48.5041 49.5913 48.1482C49.8761 47.7684 49.9236 47.2463 49.7575 46.6768L39.9797 16.6791C39.6 15.5162 38.3185 14.5432 37.1081 14.4957L6.18493 13.6651C5.61535 13.6414 5.16444 13.855 4.87965 14.211C4.71352 14.472 4.61859 14.7568 4.61859 15.0653Z" fill="url(#paint0_linear_5_2161)"/>
<path d="M49.1429 49.0504C49.1429 49.4538 49.0243 49.8098 48.7869 50.0709C48.4547 50.4506 47.9088 50.6404 47.2918 50.5692L15.5854 47.0331C14.3039 46.8907 13.0461 45.7753 12.7376 44.5412L5.40427 13.8079C5.26188 13.2146 5.3568 12.6687 5.71279 12.289C6.04504 11.9093 6.59088 11.7194 7.20792 11.7906L38.8906 15.3267C40.1721 15.4691 41.4299 16.5846 41.7384 17.8186L49.0717 48.552C49.1192 48.7181 49.1429 48.908 49.1429 49.0504ZM5.45173 13.3095C5.45173 13.4519 5.47547 13.618 5.52293 13.7841L12.8562 44.5175C13.141 45.7041 14.3751 46.7958 15.6092 46.9382L47.2681 50.4743C47.8614 50.5455 48.3598 50.3794 48.6683 50.0234C48.9768 49.6674 49.0717 49.169 48.9531 48.5995L41.6198 17.8424C41.335 16.6558 40.1009 15.5641 38.8668 15.4217L7.20792 11.9093C6.61462 11.8381 6.11624 12.0042 5.80772 12.3602C5.5704 12.6213 5.45173 12.9298 5.45173 13.3095Z" fill="url(#paint1_linear_5_2161)"/>
<path d="M48.1203 50.7358C48.1203 51.1867 47.9542 51.5902 47.6694 51.875C47.2897 52.2547 46.7201 52.3734 46.0556 52.2547L13.8508 45.9656C12.5456 45.7046 11.3352 44.4942 11.1454 43.2364L6.37516 11.981C6.28023 11.3877 6.42262 10.8655 6.80234 10.5096C7.18206 10.1298 7.75163 10.0112 8.41614 10.1298L40.6446 16.3952C41.9499 16.6562 43.1365 17.8666 43.3501 19.1244L48.0966 50.3798C48.1203 50.4985 48.1203 50.6172 48.1203 50.7358ZM6.47009 11.6487C6.47009 11.7436 6.47009 11.8623 6.49382 11.9572L11.264 43.2127C11.4539 44.423 12.6168 45.6096 13.8746 45.847L46.0793 52.136C46.6964 52.2547 47.2422 52.136 47.5982 51.78C47.9304 51.4478 48.0728 50.9731 48.0016 50.4036L43.2314 19.1481C43.0416 17.9378 41.8787 16.7512 40.6209 16.5138L8.3924 10.2485C7.77536 10.1298 7.22952 10.2485 6.87353 10.6045C6.61248 10.8418 6.47009 11.2215 6.47009 11.6487Z" fill="url(#paint2_linear_5_2161)"/>
<path d="M46.9334 52.2787C46.9334 52.8008 46.7436 53.2517 46.3876 53.5365C45.9604 53.8925 45.3434 53.9637 44.6789 53.7975L12.1656 44.7318C10.8603 44.3758 9.72117 43.0468 9.64997 41.7652L7.53779 10.2487C7.49033 9.65542 7.70392 9.15704 8.08364 8.82479C8.51082 8.46881 9.12786 8.39761 9.79236 8.56374L42.3056 17.6295C43.6109 17.9855 44.7501 19.3145 44.8213 20.596L46.9334 52.1363C46.9334 52.1837 46.9334 52.2312 46.9334 52.2787ZM7.65646 10.0826C7.65646 10.1301 7.65646 10.1775 7.65646 10.225L9.7449 41.789C9.8161 43.0231 10.9315 44.3046 12.1893 44.6606L44.7026 53.7263C45.3196 53.8925 45.9129 53.8213 46.3164 53.489C46.6724 53.2042 46.8622 52.7296 46.8148 52.16L44.7263 20.6197C44.6551 19.3857 43.5397 18.1041 42.2819 17.7481L9.76863 8.6824C9.15159 8.51627 8.55828 8.58747 8.15483 8.91972C7.82258 9.18077 7.65646 9.58423 7.65646 10.0826Z" fill="url(#paint3_linear_5_2161)"/>
<path d="M46.2649 22.1161C46.2649 22.1398 46.2649 22.1398 46.2649 22.1635L45.5766 53.775C45.5529 54.3683 45.3156 54.8429 44.9121 55.1277C44.4375 55.4363 43.7967 55.4837 43.1085 55.2464L10.524 43.3802C9.24246 42.9056 8.19824 41.5291 8.19824 40.2713C8.19824 40.2476 8.19824 40.2476 8.19824 40.2238L8.88648 8.6124C8.91021 8.01909 9.14753 7.54444 9.55098 7.25965C10.0256 6.95113 10.6664 6.90367 11.3546 7.14099L43.9391 19.0071C45.2206 19.4581 46.2649 20.8583 46.2649 22.1161ZM8.3169 40.2713C8.3169 41.4817 9.31366 42.8344 10.5715 43.2853L43.1559 55.1515C43.7967 55.3888 44.4137 55.3413 44.8409 55.0565C45.2206 54.7955 45.458 54.3446 45.458 53.7987L46.1462 22.1873C46.1699 20.9532 45.1732 19.5767 43.8916 19.1258L11.3072 7.25965C10.6664 7.02233 10.0494 7.0698 9.62218 7.35458C9.24246 7.61564 9.00514 8.06655 9.00514 8.6124L8.3169 40.2238C8.3169 40.2238 8.3169 40.2476 8.3169 40.2713Z" fill="url(#paint4_linear_5_2161)"/>
<path d="M47.5962 23.5846C47.5962 23.6795 47.5962 23.7507 47.5725 23.8456L44.0364 55.2909C43.9652 55.8605 43.7041 56.3114 43.2532 56.5725C42.7311 56.8573 42.0666 56.8573 41.3783 56.5488L8.98374 41.8822C7.67846 41.2889 6.72917 39.7937 6.87156 38.5122L10.4077 7.09061C10.4789 6.52104 10.7399 6.07013 11.1908 5.80907C11.713 5.52428 12.3775 5.52428 13.0657 5.8328L45.4603 20.4756C46.6944 21.0452 47.5962 22.398 47.5962 23.5846ZM6.99022 38.7733C6.99022 39.9361 7.86832 41.2414 9.0312 41.7635L41.4258 56.4301C42.0666 56.7149 42.7074 56.7386 43.2057 56.4538C43.6092 56.2165 43.8702 55.7893 43.9414 55.2672L47.4776 23.8456C47.6199 22.6353 46.6944 21.1639 45.4366 20.5943L13.042 5.95146C12.4012 5.66667 11.7604 5.64294 11.262 5.92773C10.8586 6.16505 10.5975 6.59224 10.5263 7.11435L6.99022 38.5359C6.99022 38.6071 6.99022 38.7021 6.99022 38.7733Z" fill="url(#paint5_linear_5_2161)"/>
<path d="M48.8616 25.1751C48.8616 25.3412 48.8379 25.5073 48.8141 25.6497L42.3352 56.6678C42.2165 57.2137 41.908 57.6409 41.4334 57.8545C40.8875 58.1155 40.1756 58.0443 39.4873 57.6646L7.54363 40.2451C6.26208 39.5568 5.43145 37.9668 5.69251 36.709L12.1477 5.71456C12.2664 5.16872 12.5749 4.74154 13.0495 4.52795C13.5954 4.26689 14.3073 4.33809 14.9956 4.71781L46.9393 22.1136C48.0784 22.7306 48.8616 24.0359 48.8616 25.1751ZM5.73997 37.1836C5.73997 38.299 6.49941 39.5331 7.59109 40.1264L39.5585 57.5697C40.1993 57.9257 40.8638 57.9969 41.3859 57.7358C41.8131 57.5459 42.1216 57.1425 42.2165 56.6204L48.6717 25.626C48.9328 24.4156 48.1259 22.8968 46.8681 22.2085L14.9006 4.789C14.2599 4.43302 13.5954 4.36182 13.0733 4.62288C12.6461 4.81274 12.3376 5.21619 12.2426 5.7383L5.78744 36.7327C5.7637 36.8751 5.73997 37.0412 5.73997 37.1836Z" fill="url(#paint6_linear_5_2161)"/>
<path d="M49.9695 26.8606C49.9695 27.0979 49.9458 27.3353 49.8746 27.5726L40.4529 57.8787C40.2867 58.4246 39.9308 58.8043 39.4324 58.9704C38.8391 59.184 38.1034 59.0654 37.4389 58.6382L6.18341 38.4894C4.9256 37.6825 4.21363 36.0213 4.59334 34.8109L14.0151 4.48104C14.1812 3.93519 14.5372 3.55548 15.0356 3.38935C15.6289 3.17576 16.3646 3.29442 17.0291 3.7216L48.2845 23.8703C49.305 24.5348 49.9695 25.7689 49.9695 26.8606ZM4.61708 35.5229C4.61708 36.5671 5.25785 37.7537 6.25461 38.3945L37.5101 58.5433C38.1508 58.9467 38.8391 59.0654 39.4086 58.8755C39.8596 58.7094 40.1918 58.3534 40.3579 57.855L49.7797 27.5251C50.1356 26.3622 49.4474 24.7484 48.2371 23.9653L16.9579 3.84026C16.3171 3.43682 15.6289 3.31816 15.0593 3.50801C14.6084 3.67414 14.2761 4.03012 14.11 4.5285L4.712 34.8584C4.64081 35.072 4.61708 35.2856 4.61708 35.5229Z" fill="url(#paint7_linear_5_2161)"/>
<path d="M50.9863 28.6165C50.9863 28.9488 50.9388 29.2573 50.7964 29.5658L38.4082 58.9227C38.1946 59.4448 37.7911 59.8008 37.2927 59.9194C36.652 60.0856 35.9163 59.8957 35.2518 59.4211L4.96933 36.638C3.75899 35.7125 3.16568 34.0037 3.66406 32.8171L16.0761 3.43652C16.2896 2.91441 16.6931 2.55843 17.1915 2.43977C17.8322 2.27364 18.5679 2.4635 19.2325 2.93814L49.5149 25.7212C50.4167 26.4331 50.9863 27.5723 50.9863 28.6165ZM3.59286 33.7664C3.59286 34.7632 4.1387 35.8786 5.0168 36.5431L35.2992 59.3261C35.9163 59.8008 36.6282 59.9669 37.2215 59.8245C37.6962 59.7058 38.0522 59.3736 38.2658 58.8989L50.6778 29.5183C51.1524 28.3792 50.5828 26.7417 49.42 25.8398L19.1375 3.0568C18.5205 2.58216 17.8085 2.41603 17.2152 2.55843C16.7406 2.67709 16.3846 3.00934 16.171 3.48399L3.75899 32.8646C3.66406 33.1494 3.59286 33.4579 3.59286 33.7664Z" fill="url(#paint8_linear_5_2161)"/>
<path d="M51.8686 30.4202C51.8686 30.8474 51.7736 31.2508 51.5838 31.6068L36.2052 59.8008C35.9442 60.2992 35.4933 60.6077 34.9711 60.7026C34.3066 60.8213 33.5472 60.584 32.9302 60.0144L3.88181 34.6683C2.71892 33.6478 2.26801 31.8916 2.88505 30.7525L18.2636 2.55848C18.5246 2.0601 18.9756 1.75158 19.4977 1.65665C20.1622 1.53799 20.9216 1.77531 21.5386 2.34489L50.587 27.691C51.4176 28.403 51.8686 29.4709 51.8686 30.4202ZM2.71892 31.9391C2.71892 32.8646 3.16984 33.8851 3.95301 34.5734L33.0251 59.9195C33.6421 60.4416 34.3304 60.6789 34.9711 60.584C35.4695 60.4891 35.873 60.2043 36.1103 59.7534L51.4888 31.5594C52.0821 30.4677 51.655 28.7827 50.5158 27.7859L21.4437 2.43982C20.8267 1.9177 20.1384 1.68038 19.4977 1.77531C18.9993 1.87024 18.5958 2.15503 18.3585 2.60594L2.97998 30.8237C2.81385 31.1559 2.71892 31.5356 2.71892 31.9391Z" fill="url(#paint9_linear_5_2161)"/>
<path d="M52.6265 32.2968C52.6265 32.8189 52.4841 33.3173 52.2231 33.7208L33.878 60.4671C33.5695 60.918 33.0948 61.2028 32.549 61.2502C31.8607 61.3214 31.1013 60.9892 30.508 60.3959L2.93104 32.6291C1.81562 31.5137 1.53084 29.7337 2.26654 28.642L20.5879 1.89572C20.8964 1.4448 21.3711 1.16002 21.9169 1.11255C22.6051 1.04135 23.3646 1.34988 23.9579 1.96692L51.5348 29.7337C52.2468 30.4457 52.6265 31.4187 52.6265 32.2968ZM1.98175 30.066C1.98175 30.9203 2.33774 31.8696 3.02597 32.5341L30.5792 60.3247C31.1488 60.918 31.8607 61.2028 32.5252 61.1553C33.0236 61.1078 33.4745 60.8468 33.7593 60.4196L52.0807 33.6733C52.7926 32.6291 52.4841 30.9203 51.4162 29.8524L23.8392 2.06185C23.2696 1.46854 22.5577 1.18375 21.8932 1.23122C21.3948 1.27868 20.9439 1.53974 20.6591 1.96692L2.36147 28.7132C2.10041 29.093 1.98175 29.5676 1.98175 30.066Z" fill="url(#paint10_linear_5_2161)"/>
<path d="M53.2219 34.2421C53.2219 34.8829 53.032 35.4762 52.6523 35.9034L31.4356 60.941C31.0796 61.3681 30.5575 61.6055 29.9879 61.6055C29.276 61.6055 28.5165 61.2258 27.9707 60.585L2.14994 30.5161C1.10572 29.3058 0.963322 27.5021 1.81769 26.4816L23.0344 1.44405C23.3904 1.01687 23.9125 0.779548 24.482 0.779548C25.194 0.779548 25.9534 1.15926 26.4993 1.80003L52.3201 31.8689C52.9134 32.5571 53.2219 33.4115 53.2219 34.2421ZM1.3905 28.1429C1.3905 28.9261 1.67529 29.7567 2.24487 30.4212L28.0656 60.49C28.6115 61.1308 29.2997 61.4868 29.9879 61.4868C30.5101 61.4868 30.9847 61.2732 31.3407 60.8698L52.5574 35.8322C53.388 34.8591 53.2219 33.1267 52.2251 31.9638L26.4044 1.89497C25.8585 1.25419 25.1703 0.898208 24.482 0.898208C23.9599 0.898208 23.4853 1.1118 23.1293 1.51525L1.91261 26.5528C1.55663 26.98 1.3905 27.5496 1.3905 28.1429Z" fill="url(#paint11_linear_5_2161)"/>
<path d="M53.6475 36.1871C53.6475 36.9228 53.4101 37.6347 52.9118 38.0856L28.8709 61.2009C28.4437 61.6044 27.8979 61.7942 27.3283 61.7468C26.5926 61.6756 25.8569 61.2484 25.3585 60.5364L1.53129 28.3317C0.582002 27.0264 0.582002 25.2227 1.55503 24.2734L25.5959 1.1819C26.023 0.778445 26.5689 0.588588 27.1385 0.636054C27.8742 0.707251 28.6099 1.13443 29.1082 1.8464L52.9355 34.0512C53.4101 34.6919 53.6475 35.4514 53.6475 36.1871ZM0.937987 26.172C0.937987 26.884 1.17531 27.6197 1.62622 28.2367L25.4535 60.4652C25.9518 61.1297 26.6401 61.5569 27.3521 61.6281C27.8979 61.6756 28.42 61.4857 28.7997 61.1297L52.8168 38.0144C53.7424 37.1126 53.7424 35.3802 52.8168 34.1223L29.0133 1.91759C28.5149 1.25309 27.8267 0.825911 27.1147 0.754714C26.5689 0.707251 26.0468 0.897105 25.6671 1.25309L1.64996 24.3684C1.17531 24.8193 0.937987 25.4838 0.937987 26.172Z" fill="url(#paint12_linear_5_2161)"/>
<path d="M53.9327 38.18C53.9327 39.0344 53.6005 39.8413 52.9834 40.316L26.2134 61.2241C25.7387 61.5801 25.1692 61.7225 24.5758 61.6276C23.8164 61.5089 23.1282 60.9868 22.6535 60.2511L1.08085 26.0766C0.202758 24.7001 0.392617 22.8964 1.46057 22.0421L28.2306 1.1339C28.7053 0.777919 29.2748 0.63552 29.8682 0.730448C30.6276 0.849112 31.3158 1.37122 31.7905 2.10692L53.3631 36.2815C53.7429 36.8748 53.9327 37.5393 53.9327 38.18ZM0.677404 24.2017C0.677404 24.8188 0.843531 25.4595 1.22325 26.0291L22.7959 60.2036C23.2468 60.9156 23.9113 61.3903 24.6233 61.5089C25.1929 61.6038 25.7387 61.4615 26.1659 61.1292L52.936 40.221C53.9802 39.4141 54.1226 37.6817 53.2919 36.3527L31.7193 2.17812C31.2684 1.46615 30.6039 0.991507 29.8919 0.872847C29.3223 0.777915 28.7765 0.92031 28.3493 1.25256L1.5555 22.1607C0.985925 22.6116 0.677404 23.3711 0.677404 24.2017Z" fill="url(#paint13_linear_5_2161)"/>
<path d="M54.0326 40.1739C54.0326 41.147 53.6292 42.0488 52.8698 42.5234L23.4892 61.0346C22.967 61.3669 22.35 61.4381 21.733 61.2957C20.9735 61.1058 20.3328 60.5363 19.9056 59.7768L0.824794 23.8698C0.0653596 22.4222 0.397612 20.6422 1.58423 19.8828L30.9648 1.37161C31.4869 1.03935 32.104 0.968154 32.721 1.11055C33.4805 1.30041 34.1212 1.86998 34.5484 2.62942L53.6292 38.5364C53.914 39.0585 54.0326 39.6281 54.0326 40.1739ZM0.563738 22.1848C0.563738 22.707 0.682399 23.2528 0.967187 23.7749L20.048 59.6819C20.4514 60.4176 21.0685 60.9635 21.7804 61.1533C22.35 61.2957 22.9433 61.2245 23.418 60.916L52.7986 42.4048C53.9377 41.6928 54.2462 39.9841 53.5105 38.5839L34.4297 2.67688C34.0263 1.94118 33.4093 1.39533 32.6973 1.20548C32.1277 1.06308 31.5344 1.13428 31.0598 1.4428L1.67916 19.954C0.967187 20.4049 0.563738 21.283 0.563738 22.1848Z" fill="url(#paint14_linear_5_2161)"/>
<path d="M53.9611 42.169C53.9611 43.2607 53.439 44.2574 52.5371 44.7083L20.7121 60.5853C20.1425 60.87 19.5017 60.8938 18.8847 60.6802C18.149 60.4191 17.532 59.8021 17.176 59.0189L0.824414 21.5693C0.159909 20.0505 0.68202 18.2943 1.96357 17.6535L33.7886 1.77658C34.3582 1.49179 34.9989 1.46806 35.616 1.68165C36.3517 1.9427 36.9687 2.55974 37.3247 3.34291L53.6763 40.8162C53.8661 41.2434 53.9611 41.7181 53.9611 42.169ZM0.634556 20.1929C0.634556 20.62 0.729484 21.0947 0.919343 21.5219L17.2946 58.9477C17.6269 59.7072 18.2202 60.3005 18.9322 60.5378C19.5255 60.7514 20.1188 60.7276 20.6646 60.4429L52.4897 44.5659C53.7237 43.9489 54.1984 42.2876 53.5576 40.84L37.2061 3.39038C36.8738 2.63094 36.2805 2.03763 35.5685 1.80031C34.9752 1.58672 34.3819 1.61045 33.8361 1.89524L2.01103 17.7722C1.13293 18.1993 0.634556 19.1724 0.634556 20.1929Z" fill="url(#paint15_linear_5_2161)"/>
<path d="M53.7198 44.1623C53.7198 45.3489 53.079 46.4406 52.0111 46.8677L17.884 59.8968C17.2669 60.1341 16.5787 60.1104 15.9617 59.8256C15.2497 59.4933 14.6564 58.8288 14.3953 58.0219L0.962847 19.2908C0.417004 17.7245 1.10524 16.0157 2.48172 15.4936L36.6088 2.46458C37.2258 2.22726 37.9141 2.25099 38.5311 2.53578C39.2431 2.86803 39.8364 3.53254 40.0974 4.33943L53.5299 43.0706C53.6486 43.4266 53.7198 43.8063 53.7198 44.1623ZM0.89165 18.1991C0.89165 18.5551 0.939115 18.9111 1.08151 19.2671L14.514 57.9745C14.7751 58.7576 15.3209 59.3747 16.0091 59.6832C16.6024 59.968 17.2432 59.9917 17.8365 59.7544L51.9636 46.7253C53.2689 46.227 53.9334 44.5894 53.4113 43.0943L39.9788 4.36317C39.7177 3.58 39.1719 2.96296 38.4836 2.65444C37.8903 2.36965 37.2496 2.34592 36.6562 2.58324L2.52918 15.636C1.50869 16.0157 0.89165 17.06 0.89165 18.1991Z" fill="url(#paint16_linear_5_2161)"/>
<path d="M53.2691 46.1311C53.2691 47.4364 52.4859 48.623 51.2519 48.9552L15.0601 58.994C14.3956 59.1839 13.6836 59.0889 13.0666 58.733C12.3783 58.3295 11.8562 57.6413 11.6426 56.8106L1.31907 17.059C0.891891 15.4452 1.74625 13.8077 3.21766 13.4042L39.4332 3.38921C40.0977 3.19935 40.8096 3.29428 41.4267 3.65026C42.1149 4.05371 42.637 4.74195 42.8506 5.57258L53.1742 45.3242C53.2454 45.5853 53.2691 45.87 53.2691 46.1311ZM1.34281 16.2284C1.34281 16.4894 1.36654 16.7505 1.43773 17.0116L11.7613 56.7632C11.9749 57.5463 12.4495 58.2108 13.114 58.5906C13.7073 58.9228 14.3718 59.0177 15.0126 58.8516L51.2281 48.8366C52.6283 48.4569 53.4352 46.8905 53.0318 45.3479L42.7082 5.59631C42.4946 4.81314 42.02 4.14864 41.3555 3.76892C40.7622 3.43667 40.0977 3.34175 39.4569 3.50787L3.24139 13.5466C2.10224 13.8552 1.34281 14.9706 1.34281 16.2284Z" fill="url(#paint17_linear_5_2161)"/>
<path d="M52.6558 48.0762C52.6558 49.5001 51.7065 50.758 50.3301 50.9953L12.2397 57.8065C11.5277 57.9251 10.792 57.759 10.175 57.3318C9.51047 56.8572 9.05956 56.1452 8.91716 55.3146L1.8924 14.8272C1.60761 13.1897 2.6281 11.6234 4.1707 11.3623L42.2611 4.55113C42.973 4.43247 43.7087 4.5986 44.3258 5.02578C44.9903 5.50043 45.4412 6.2124 45.5836 7.0193L52.6083 47.5304C52.6321 47.6965 52.6558 47.8863 52.6558 48.0762ZM1.96359 14.3051C1.96359 14.4712 1.98733 14.6611 2.01106 14.8272L9.05956 55.3146C9.20195 56.0977 9.62913 56.786 10.2462 57.2369C10.8157 57.6403 11.5277 57.8065 12.1922 57.6878L50.2826 50.8766C51.754 50.6156 52.727 49.1204 52.4422 47.5778L45.4175 7.09049C45.2751 6.30733 44.8479 5.61909 44.2308 5.16818C43.6613 4.76473 42.9493 4.5986 42.2848 4.71726L4.19443 11.5047C2.88915 11.742 1.96359 12.9524 1.96359 14.3051Z" fill="url(#paint18_linear_5_2161)"/>
<path d="M51.8232 49.9532C51.8232 50.6652 51.5858 51.3297 51.1349 51.8755C50.6365 52.4926 49.9246 52.8723 49.1414 52.9435L9.43724 56.4084C8.65407 56.4796 7.89464 56.2185 7.30133 55.6964C6.70802 55.1743 6.32831 54.4386 6.25711 53.6554L2.67353 12.6935C2.60233 11.8866 2.83965 11.1034 3.33803 10.4864C3.83641 9.86932 4.54838 9.4896 5.33155 9.41841L45.0357 5.95349C46.6495 5.81109 48.0734 7.04518 48.2158 8.70644L51.8232 49.6684C51.8232 49.7633 51.8232 49.8583 51.8232 49.9532ZM2.79219 12.4324C2.79219 12.5273 2.79219 12.5985 2.79219 12.6935L6.3995 53.6554C6.4707 54.4149 6.82668 55.1268 7.39626 55.6015C7.96584 56.0999 8.70154 56.3372 9.43724 56.266L49.1651 52.8011C49.9008 52.7299 50.5891 52.3739 51.0637 51.7806C51.5384 51.1873 51.7757 50.4516 51.7045 49.6921L48.1209 8.73017C47.9785 7.1401 46.6258 5.97722 45.0832 6.11962L5.33155 9.58453C4.59584 9.65573 3.90761 10.0117 3.43296 10.605C3.02951 11.1034 2.79219 11.7442 2.79219 12.4324Z" fill="url(#paint19_linear_5_2161)"/>
<path d="M50.8023 10.6277L50.8023 51.7321C50.8023 53.3933 49.4496 54.7461 47.7883 54.7461L6.68393 54.7461C5.02266 54.7461 3.66992 53.3934 3.66992 51.7321L3.66992 10.6277C3.66992 8.96646 5.02266 7.61372 6.68392 7.61372L47.7883 7.61371C49.4496 7.61371 50.8023 8.96646 50.8023 10.6277ZM3.81232 51.7321C3.81232 53.3222 5.09386 54.6037 6.68393 54.6037L47.7883 54.6037C49.3784 54.6037 50.6599 53.3222 50.6599 51.7321L50.6599 10.6277C50.6599 9.03765 49.3784 7.75611 47.7883 7.75611L6.68392 7.75611C5.09386 7.75611 3.81231 9.03765 3.81231 10.6277L3.81232 51.7321Z" fill="url(#paint20_linear_5_2161)"/>
<defs>
<linearGradient id="paint0_linear_5_2161" x1="27.2368" y1="48.8029" x2="27.2368" y2="13.568" gradientUnits="userSpaceOnUse">
<stop stop-color="#3DDEED"/>
<stop offset="0.9966" stop-color="#CB00DD"/>
</linearGradient>
<linearGradient id="paint1_linear_5_2161" x1="27.2394" y1="50.5851" x2="27.2394" y2="11.7865" gradientUnits="userSpaceOnUse">
<stop stop-color="#3DDEED"/>
<stop offset="0.9966" stop-color="#CB00DD"/>
</linearGradient>
<linearGradient id="paint2_linear_5_2161" x1="27.2372" y1="52.2897" x2="27.2372" y2="10.0828" gradientUnits="userSpaceOnUse">
<stop stop-color="#3DDEED"/>
<stop offset="0.9966" stop-color="#CB00DD"/>
</linearGradient>
<linearGradient id="paint3_linear_5_2161" x1="27.237" y1="53.8977" x2="27.237" y2="8.47533" gradientUnits="userSpaceOnUse">
<stop stop-color="#3DDEED"/>
<stop offset="0.9966" stop-color="#CB00DD"/>
</linearGradient>
<linearGradient id="paint4_linear_5_2161" x1="27.2329" y1="55.3984" x2="27.2329" y2="6.97702" gradientUnits="userSpaceOnUse">
<stop stop-color="#3DDEED"/>
<stop offset="0.9966" stop-color="#CB00DD"/>
</linearGradient>
<linearGradient id="paint5_linear_5_2161" x1="27.2353" y1="56.7698" x2="27.2353" y2="5.59975" gradientUnits="userSpaceOnUse">
<stop stop-color="#3DDEED"/>
<stop offset="0.9966" stop-color="#CB00DD"/>
</linearGradient>
<linearGradient id="paint6_linear_5_2161" x1="27.2428" y1="58.0047" x2="27.2428" y2="4.36581" gradientUnits="userSpaceOnUse">
<stop stop-color="#3DDEED"/>
<stop offset="0.9966" stop-color="#CB00DD"/>
</linearGradient>
<linearGradient id="paint7_linear_5_2161" x1="27.2353" y1="59.0854" x2="27.2352" y2="3.28619" gradientUnits="userSpaceOnUse">
<stop stop-color="#3DDEED"/>
<stop offset="0.9966" stop-color="#CB00DD"/>
</linearGradient>
<linearGradient id="paint8_linear_5_2161" x1="27.2316" y1="59.9978" x2="27.2316" y2="2.37315" gradientUnits="userSpaceOnUse">
<stop stop-color="#3DDEED"/>
<stop offset="0.9966" stop-color="#CB00DD"/>
</linearGradient>
<linearGradient id="paint9_linear_5_2161" x1="27.2357" y1="60.7309" x2="27.2357" y2="1.64015" gradientUnits="userSpaceOnUse">
<stop stop-color="#3DDEED"/>
<stop offset="0.9966" stop-color="#CB00DD"/>
</linearGradient>
<linearGradient id="paint10_linear_5_2161" x1="27.2343" y1="61.2748" x2="27.2343" y2="1.09976" gradientUnits="userSpaceOnUse">
<stop stop-color="#3DDEED"/>
<stop offset="0.9966" stop-color="#CB00DD"/>
</linearGradient>
<linearGradient id="paint11_linear_5_2161" x1="27.2363" y1="61.6156" x2="27.2363" y2="0.757428" gradientUnits="userSpaceOnUse">
<stop stop-color="#3DDEED"/>
<stop offset="0.9966" stop-color="#CB00DD"/>
</linearGradient>
<linearGradient id="paint12_linear_5_2161" x1="27.2348" y1="61.7468" x2="27.2348" y2="0.624086" gradientUnits="userSpaceOnUse">
<stop stop-color="#3DDEED"/>
<stop offset="0.9966" stop-color="#CB00DD"/>
</linearGradient>
<linearGradient id="paint13_linear_5_2161" x1="27.2352" y1="61.662" x2="27.2352" y2="0.70783" gradientUnits="userSpaceOnUse">
<stop stop-color="#3DDEED"/>
<stop offset="0.9966" stop-color="#CB00DD"/>
</linearGradient>
<linearGradient id="paint14_linear_5_2161" x1="27.2402" y1="61.356" x2="27.2402" y2="1.01456" gradientUnits="userSpaceOnUse">
<stop stop-color="#3DDEED"/>
<stop offset="0.9966" stop-color="#CB00DD"/>
</linearGradient>
<linearGradient id="paint15_linear_5_2161" x1="27.2398" y1="60.8253" x2="27.2398" y2="1.54829" gradientUnits="userSpaceOnUse">
<stop stop-color="#3DDEED"/>
<stop offset="0.9966" stop-color="#CB00DD"/>
</linearGradient>
<linearGradient id="paint16_linear_5_2161" x1="27.2359" y1="60.0647" x2="27.2358" y2="2.30835" gradientUnits="userSpaceOnUse">
<stop stop-color="#3DDEED"/>
<stop offset="0.9966" stop-color="#CB00DD"/>
</linearGradient>
<linearGradient id="paint17_linear_5_2161" x1="27.2361" y1="59.0749" x2="27.2361" y2="3.29642" gradientUnits="userSpaceOnUse">
<stop stop-color="#3DDEED"/>
<stop offset="0.9966" stop-color="#CB00DD"/>
</linearGradient>
<linearGradient id="paint18_linear_5_2161" x1="27.2399" y1="57.8578" x2="27.2399" y2="4.51155" gradientUnits="userSpaceOnUse">
<stop stop-color="#3DDEED"/>
<stop offset="0.9966" stop-color="#CB00DD"/>
</linearGradient>
<linearGradient id="paint19_linear_5_2161" x1="27.2379" y1="56.4201" x2="27.2379" y2="5.95363" gradientUnits="userSpaceOnUse">
<stop stop-color="#3DDEED"/>
<stop offset="0.9966" stop-color="#CB00DD"/>
</linearGradient>
<linearGradient id="paint20_linear_5_2161" x1="27.2374" y1="54.7609" x2="27.2374" y2="7.61065" gradientUnits="userSpaceOnUse">
<stop stop-color="#3DDEED"/>
<stop offset="0.9966" stop-color="#CB00DD"/>
</linearGradient>
</defs>
</svg>
