<svg width="61" height="69" viewBox="0 0 61 69" fill="none" xmlns="http://www.w3.org/2000/svg">
<path d="M7.58984 47.2965L29.6311 0L29.6995 0.113968L59.559 42.7378L59.4223 42.7606L7.58984 47.2965ZM29.6767 0.319109L7.86335 47.1142L59.3083 42.6238L29.6767 0.319109Z" fill="url(#paint0_linear_5_2225)"/>
<path d="M58.7173 45.6331H6.54297L32.6187 0.433594L58.7173 45.6331ZM6.79371 45.4736H58.4438L32.6187 0.752703L6.79371 45.4736Z" fill="url(#paint1_linear_5_2225)"/>
<path d="M57.5994 48.4352L57.4626 48.4124L5.60742 43.8765L35.5581 1.13867L57.5994 48.4352ZM5.90373 43.7397L57.3487 48.23L35.5125 1.43499L5.90373 43.7397Z" fill="url(#paint2_linear_5_2225)"/>
<path d="M56.2545 51.1245L4.87793 42.0527L4.96911 41.9387L38.4072 2.0957L38.4528 2.23246L56.2545 51.1245ZM5.15145 41.9615L56.0037 50.9194L38.3616 2.39202L5.15145 41.9615Z" fill="url(#paint3_linear_5_2225)"/>
<path d="M54.6816 53.6777L4.28516 40.1839L41.165 3.28125L54.6816 53.6777ZM4.58147 40.0928L54.4537 53.4725L41.0967 3.57757L4.58147 40.0928Z" fill="url(#paint4_linear_5_2225)"/>
<path d="M52.8814 56.0973L52.7446 56.0517L3.85254 38.2499L43.8095 4.7207L52.8814 56.0973ZM4.14885 38.2044L52.6762 55.8693L43.7184 5.01702L4.14885 38.2044Z" fill="url(#paint5_linear_5_2225)"/>
<path d="M50.8737 58.352L3.57715 36.3107L46.3378 6.38281L46.3606 6.51957L50.8737 58.352ZM3.89626 36.2651L50.6913 58.0785L46.201 6.65633L3.89626 36.2651Z" fill="url(#paint6_linear_5_2225)"/>
<path d="M48.6875 60.4263L3.51074 34.3277L48.6875 8.25195V60.4263ZM3.80705 34.3277L48.5279 60.1528V8.50268L3.80705 34.3277Z" fill="url(#paint7_linear_5_2225)"/>
<path d="M46.3384 62.2954L3.60059 32.3675L50.8971 10.3262L50.8743 10.4629L46.3384 62.2954ZM3.8969 32.3903L46.2016 61.999L50.692 10.5541L3.8969 32.3903Z" fill="url(#paint8_linear_5_2225)"/>
<path d="M43.8095 63.9351L43.6956 63.844L3.85254 30.4059L52.8814 12.5586L43.8095 63.9351ZM4.14885 30.4515L43.7184 63.6388L52.6762 12.7865L4.14885 30.4515Z" fill="url(#paint9_linear_5_2225)"/>
<path d="M41.165 65.3691L4.28516 28.4892L54.6816 14.9727L41.165 65.3691ZM4.58147 28.5576L41.0967 65.0728L54.4537 15.2006L4.58147 28.5576Z" fill="url(#paint10_linear_5_2225)"/>
<path d="M38.4072 66.5796L4.87793 26.5998L56.2545 17.5508L38.4072 66.5796ZM5.15145 26.7138L38.3388 66.2833L56.0037 17.7559L5.15145 26.7138Z" fill="url(#paint11_linear_5_2225)"/>
<path d="M35.5568 67.5153L35.4884 67.4013L5.62891 24.7775L57.5981 20.2188L57.5525 20.3327L35.5568 67.5153ZM5.90243 24.9142L35.5112 67.2189L57.3246 20.4239L5.90243 24.9142Z" fill="url(#paint12_linear_5_2225)"/>
<path d="M32.6178 68.2236L6.54199 23.0469H58.7163L32.6178 68.2236ZM6.79273 23.1836L32.6178 67.9045L58.4428 23.1836H6.79273Z" fill="url(#paint13_linear_5_2225)"/>
<path d="M29.6311 68.6526L7.58984 21.3789L59.559 25.9376L29.6311 68.6526ZM7.84057 21.5385L29.6539 68.3335L59.2627 26.0288L7.84057 21.5385Z" fill="url(#paint14_linear_5_2225)"/>
<path d="M26.6452 68.8374L26.5996 68.7007L8.79785 19.8086L60.1744 28.8804L26.6452 68.8374ZM9.02579 20.0137L26.6908 68.5411L59.8781 28.9716L9.02579 20.0137Z" fill="url(#paint15_linear_5_2225)"/>
<path d="M23.6357 68.7421L10.1191 18.3457L60.5156 31.8395L23.6357 68.7421ZM10.3471 18.5736L23.7041 68.4458L60.2193 31.9306L10.3471 18.5736Z" fill="url(#paint16_linear_5_2225)"/>
<path d="M20.6271 68.4019L11.5781 17.0254L60.6069 34.8727L20.6271 68.4019ZM11.7833 17.2533L20.7411 68.1056L60.3106 34.9183L11.7833 17.2533Z" fill="url(#paint17_linear_5_2225)"/>
<path d="M17.6866 67.8143L17.6638 67.6775L13.1279 15.8223L60.4244 37.8636L17.6866 67.8143ZM13.3103 16.073L17.8006 67.5179L60.1053 37.9092L13.3103 16.073Z" fill="url(#paint18_linear_5_2225)"/>
<path d="M14.792 66.9439V14.7695L59.9687 40.8681L14.792 66.9439ZM14.9515 15.0431V66.6931L59.6724 40.8681L14.9515 15.0431Z" fill="url(#paint19_linear_5_2225)"/>
<path d="M12.0127 65.826L12.0355 65.6892L16.5714 13.834L59.3092 43.7619L12.0127 65.826ZM16.6854 14.1303L12.195 65.5752L58.9901 43.7619L16.6854 14.1303Z" fill="url(#paint20_linear_5_2225)"/>
<path d="M9.29883 64.4801L18.3706 13.1035L18.4846 13.1947L58.3504 46.6555L58.2137 46.7011L9.29883 64.4801ZM18.4846 13.3998L9.52676 64.2521L58.0541 46.5872L18.4846 13.3998Z" fill="url(#paint21_linear_5_2225)"/>
<path d="M6.74707 62.9082L20.2408 12.5117L57.1435 49.4144L6.74707 62.9082ZM20.332 12.808L6.97501 62.6802L56.8472 49.3232L20.332 12.808Z" fill="url(#paint22_linear_5_2225)"/>
<path d="M4.33008 61.1109L4.37567 60.9741L22.1774 12.082L55.7066 52.0618L4.33008 61.1109ZM22.223 12.3783L4.55801 60.9057L55.4103 51.9479L22.223 12.3783Z" fill="url(#paint23_linear_5_2225)"/>
<path d="M2.07422 59.1018L24.1383 11.8281L24.2067 11.9421L54.0662 54.5659L53.9294 54.5887L2.07422 59.1018ZM24.1611 12.1244L2.34774 58.9195L53.7699 54.4292L24.1611 12.1244Z" fill="url(#paint24_linear_5_2225)"/>
<path d="M52.1971 56.915H0L26.0986 11.7383L52.1971 56.915ZM0.273525 56.7782H51.9236L26.0986 12.0574L0.273525 56.7782Z" fill="url(#paint25_linear_5_2225)"/>
<defs>
<linearGradient id="paint0_linear_5_2225" x1="7.5908" y1="23.6449" x2="59.5707" y2="23.6449" gradientUnits="userSpaceOnUse">
<stop stop-color="#3DDEED"/>
<stop offset="0.9966" stop-color="#CB00DD"/>
</linearGradient>
<linearGradient id="paint1_linear_5_2225" x1="6.53335" y1="23.0339" x2="58.7118" y2="23.0339" gradientUnits="userSpaceOnUse">
<stop stop-color="#3DDEED"/>
<stop offset="0.9966" stop-color="#CB00DD"/>
</linearGradient>
<linearGradient id="paint2_linear_5_2225" x1="5.62224" y1="24.7808" x2="57.6021" y2="24.7808" gradientUnits="userSpaceOnUse">
<stop stop-color="#3DDEED"/>
<stop offset="0.9966" stop-color="#CB00DD"/>
</linearGradient>
<linearGradient id="paint3_linear_5_2225" x1="4.86776" y1="26.6015" x2="56.2536" y2="26.6015" gradientUnits="userSpaceOnUse">
<stop stop-color="#3DDEED"/>
<stop offset="0.9966" stop-color="#CB00DD"/>
</linearGradient>
<linearGradient id="paint4_linear_5_2225" x1="4.27501" y1="28.4816" x2="54.6754" y2="28.4816" gradientUnits="userSpaceOnUse">
<stop stop-color="#3DDEED"/>
<stop offset="0.9966" stop-color="#CB00DD"/>
</linearGradient>
<linearGradient id="paint5_linear_5_2225" x1="3.84885" y1="30.4095" x2="52.8805" y2="30.4095" gradientUnits="userSpaceOnUse">
<stop stop-color="#3DDEED"/>
<stop offset="0.9966" stop-color="#CB00DD"/>
</linearGradient>
<linearGradient id="paint6_linear_5_2225" x1="3.58973" y1="32.3618" x2="50.8794" y2="32.3618" gradientUnits="userSpaceOnUse">
<stop stop-color="#3DDEED"/>
<stop offset="0.9966" stop-color="#CB00DD"/>
</linearGradient>
<linearGradient id="paint7_linear_5_2225" x1="3.50568" y1="34.3311" x2="48.6935" y2="34.3311" gradientUnits="userSpaceOnUse">
<stop stop-color="#3DDEED"/>
<stop offset="0.9966" stop-color="#CB00DD"/>
</linearGradient>
<linearGradient id="paint8_linear_5_2225" x1="3.59037" y1="36.3003" x2="50.8801" y2="36.3003" gradientUnits="userSpaceOnUse">
<stop stop-color="#3DDEED"/>
<stop offset="0.9966" stop-color="#CB00DD"/>
</linearGradient>
<linearGradient id="paint9_linear_5_2225" x1="3.84885" y1="38.2531" x2="52.8805" y2="38.2531" gradientUnits="userSpaceOnUse">
<stop stop-color="#3DDEED"/>
<stop offset="0.9966" stop-color="#CB00DD"/>
</linearGradient>
<linearGradient id="paint10_linear_5_2225" x1="4.27501" y1="40.1754" x2="54.6754" y2="40.1754" gradientUnits="userSpaceOnUse">
<stop stop-color="#3DDEED"/>
<stop offset="0.9966" stop-color="#CB00DD"/>
</linearGradient>
<linearGradient id="paint11_linear_5_2225" x1="4.86776" y1="42.0578" x2="56.2536" y2="42.0578" gradientUnits="userSpaceOnUse">
<stop stop-color="#3DDEED"/>
<stop offset="0.9966" stop-color="#CB00DD"/>
</linearGradient>
<linearGradient id="paint12_linear_5_2225" x1="5.62093" y1="43.8799" x2="57.6008" y2="43.8799" gradientUnits="userSpaceOnUse">
<stop stop-color="#3DDEED"/>
<stop offset="0.9966" stop-color="#CB00DD"/>
</linearGradient>
<linearGradient id="paint13_linear_5_2225" x1="6.53237" y1="45.63" x2="58.7108" y2="45.63" gradientUnits="userSpaceOnUse">
<stop stop-color="#3DDEED"/>
<stop offset="0.9966" stop-color="#CB00DD"/>
</linearGradient>
<linearGradient id="paint14_linear_5_2225" x1="7.5908" y1="45.0145" x2="59.5707" y2="45.0145" gradientUnits="userSpaceOnUse">
<stop stop-color="#3DDEED"/>
<stop offset="0.9966" stop-color="#CB00DD"/>
</linearGradient>
<linearGradient id="paint15_linear_5_2225" x1="8.79069" y1="44.3242" x2="60.1764" y2="44.3242" gradientUnits="userSpaceOnUse">
<stop stop-color="#3DDEED"/>
<stop offset="0.9966" stop-color="#CB00DD"/>
</linearGradient>
<linearGradient id="paint16_linear_5_2225" x1="10.1216" y1="43.5512" x2="60.522" y2="43.5512" gradientUnits="userSpaceOnUse">
<stop stop-color="#3DDEED"/>
<stop offset="0.9966" stop-color="#CB00DD"/>
</linearGradient>
<linearGradient id="paint17_linear_5_2225" x1="11.575" y1="42.7139" x2="60.6067" y2="42.7139" gradientUnits="userSpaceOnUse">
<stop stop-color="#3DDEED"/>
<stop offset="0.9966" stop-color="#CB00DD"/>
</linearGradient>
<linearGradient id="paint18_linear_5_2225" x1="13.1386" y1="41.816" x2="60.4283" y2="41.816" gradientUnits="userSpaceOnUse">
<stop stop-color="#3DDEED"/>
<stop offset="0.9966" stop-color="#CB00DD"/>
</linearGradient>
<linearGradient id="paint19_linear_5_2225" x1="14.8011" y1="40.852" x2="59.989" y2="40.852" gradientUnits="userSpaceOnUse">
<stop stop-color="#3DDEED"/>
<stop offset="0.9966" stop-color="#CB00DD"/>
</linearGradient>
<linearGradient id="paint20_linear_5_2225" x1="12.0033" y1="39.8416" x2="59.293" y2="39.8416" gradientUnits="userSpaceOnUse">
<stop stop-color="#3DDEED"/>
<stop offset="0.9966" stop-color="#CB00DD"/>
</linearGradient>
<linearGradient id="paint21_linear_5_2225" x1="9.30997" y1="38.7891" x2="58.3416" y2="38.7891" gradientUnits="userSpaceOnUse">
<stop stop-color="#3DDEED"/>
<stop offset="0.9966" stop-color="#CB00DD"/>
</linearGradient>
<linearGradient id="paint22_linear_5_2225" x1="6.74673" y1="37.7047" x2="57.1472" y2="37.7047" gradientUnits="userSpaceOnUse">
<stop stop-color="#3DDEED"/>
<stop offset="0.9966" stop-color="#CB00DD"/>
</linearGradient>
<linearGradient id="paint23_linear_5_2225" x1="4.32894" y1="36.597" x2="55.7146" y2="36.597" gradientUnits="userSpaceOnUse">
<stop stop-color="#3DDEED"/>
<stop offset="0.9966" stop-color="#CB00DD"/>
</linearGradient>
<linearGradient id="paint24_linear_5_2225" x1="2.07832" y1="35.4656" x2="54.0582" y2="35.4656" gradientUnits="userSpaceOnUse">
<stop stop-color="#3DDEED"/>
<stop offset="0.9966" stop-color="#CB00DD"/>
</linearGradient>
<linearGradient id="paint25_linear_5_2225" x1="0.009824" y1="34.33" x2="52.1883" y2="34.33" gradientUnits="userSpaceOnUse">
<stop stop-color="#3DDEED"/>
<stop offset="0.9966" stop-color="#CB00DD"/>
</linearGradient>
</defs>
</svg>
