<svg width="26" height="21" viewBox="0 0 26 21" fill="none" xmlns="http://www.w3.org/2000/svg">
<path d="M21.5499 3.49924C20.3996 2.39603 19.0315 1.51909 17.5239 0.918643C16.0163 0.318192 14.3987 0.00601962 12.7639 0H12.6689C9.35371 0 6.17429 1.25054 3.8301 3.47652C1.4859 5.70249 0.168945 8.72156 0.168945 11.8696V18.2609C0.168945 18.9873 0.472858 19.684 1.01383 20.1977C1.55479 20.7114 2.28851 21 3.05355 21H4.97662C5.74166 21 6.47538 20.7114 7.01634 20.1977C7.55731 19.684 7.86122 18.9873 7.86122 18.2609V13.6957C7.86122 12.9692 7.55731 12.2725 7.01634 11.7588C6.47538 11.2451 5.74166 10.9565 4.97662 10.9565H2.13528C2.37517 8.46118 3.58871 6.14111 5.53763 4.4518C7.48656 2.76249 10.0301 1.82596 12.6689 1.82609H12.7494C15.3772 1.83663 17.9062 2.77873 19.8405 4.46774C21.7749 6.15675 22.9751 8.47087 23.2061 10.9565H20.3612C19.5961 10.9565 18.8624 11.2451 18.3215 11.7588C17.7805 12.2725 17.4766 12.9692 17.4766 13.6957V18.2609C17.4766 18.9873 17.7805 19.684 18.3215 20.1977C18.8624 20.7114 19.5961 21 20.3612 21H22.2842C23.0493 21 23.783 20.7114 24.324 20.1977C24.8649 19.684 25.1689 18.9873 25.1689 18.2609V11.8696C25.1751 10.3169 24.8587 8.77833 24.2377 7.342C23.6167 5.90567 22.7033 4.59981 21.5499 3.49924ZM4.97662 12.7826C5.23163 12.7826 5.4762 12.8788 5.65653 13.05C5.83685 13.2213 5.93815 13.4535 5.93815 13.6957V18.2609C5.93815 18.503 5.83685 18.7353 5.65653 18.9065C5.4762 19.0777 5.23163 19.1739 4.97662 19.1739H3.05355C2.79854 19.1739 2.55397 19.0777 2.37364 18.9065C2.19332 18.7353 2.09202 18.503 2.09202 18.2609V12.7826H4.97662ZM23.2458 18.2609C23.2458 18.503 23.1445 18.7353 22.9642 18.9065C22.7838 19.0777 22.5393 19.1739 22.2842 19.1739H20.3612C20.1062 19.1739 19.8616 19.0777 19.6813 18.9065C19.5009 18.7353 19.3996 18.503 19.3996 18.2609V13.6957C19.3996 13.4535 19.5009 13.2213 19.6813 13.05C19.8616 12.8788 20.1062 12.7826 20.3612 12.7826H23.2458V18.2609Z" fill="white"/>
</svg>
