<svg width="36" height="36" viewBox="0 0 36 36" fill="none" xmlns="http://www.w3.org/2000/svg">
<g clip-path="url(#clip0_5_2060)">
<path d="M14.4541 10.396C14.4541 13.0363 19.7059 14.4181 24.8934 14.4181C30.081 14.4181 35.3328 13.0363 35.3328 10.396C35.3327 5.11539 14.4541 5.11539 14.4541 10.396Z" fill="#461B73"/>
<path d="M34.9454 14.2915C34.7062 14.1469 34.4058 14.1367 34.1572 14.2672C31.9944 15.4015 28.7047 16.0268 24.8934 16.0268C21.0822 16.0268 17.7925 15.4015 15.6297 14.2672C15.3811 14.1368 15.0807 14.1469 14.8415 14.2915C14.6008 14.4368 14.4541 14.6984 14.4541 14.9796V15.2224C14.4541 17.8626 19.7059 19.2444 24.8934 19.2444C30.081 19.2444 35.3328 17.8626 35.3328 15.2224V14.9796C35.3327 14.6984 35.186 14.4368 34.9454 14.2915Z" fill="#461B73"/>
<path d="M4.81787 26.4829C4.81787 29.1233 10.0696 30.505 15.2572 30.505C20.4448 30.505 25.6965 29.1232 25.6965 26.4829C25.6965 21.2023 4.81787 21.2023 4.81787 26.4829Z" fill="#461B73"/>
<path d="M25.3091 30.3811C25.0691 30.2373 24.7696 30.2263 24.521 30.3567C22.3582 31.4911 19.0684 32.1164 15.2572 32.1164C11.446 32.1164 8.15624 31.4911 5.99342 30.3567C5.74484 30.2263 5.44446 30.2373 5.20528 30.3811C4.96452 30.5264 4.81787 30.788 4.81787 31.0692V31.3119C4.81787 33.9523 10.0696 35.334 15.2572 35.334C20.4448 35.334 25.6965 33.9522 25.6965 31.3119V31.0692C25.6965 30.788 25.5498 30.5264 25.3091 30.3811Z" fill="#461B73"/>
<path d="M10.4393 7.98261C11.5239 7.98261 12.6085 7.92133 13.6632 7.7996C13.8349 7.77995 13.9957 7.70535 14.122 7.5867C15.3383 6.43976 17.4164 5.59372 20.1313 5.14044C20.4184 5.09248 20.6576 4.89298 20.7556 4.61805C20.8387 4.38632 20.8787 4.17109 20.8787 3.96052C20.8786 -1.32016 0 -1.32016 0 3.96045C0 6.60079 5.25177 7.98261 10.4393 7.98261Z" fill="#461B73"/>
<path d="M10.4393 12.81C11.1043 12.81 11.7529 12.7872 12.381 12.7455C12.6344 12.7282 12.8641 12.5932 13.0021 12.3794C13.1394 12.1665 13.1684 11.9002 13.0806 11.6622C12.9245 11.2419 12.8485 10.8279 12.8524 10.3535C12.8524 10.1335 12.7622 9.923 12.603 9.77138C12.4446 9.61976 12.2211 9.52784 12.0109 9.54982C11.4862 9.57497 10.9616 9.59221 10.4393 9.59221C6.62811 9.59221 3.33837 8.9669 1.17555 7.83253C0.926965 7.70214 0.626584 7.71238 0.387409 7.85685C0.146652 8.0023 0 8.26391 0 8.54517V8.78788C0 11.4282 5.25177 12.81 10.4393 12.81Z" fill="#461B73"/>
<path d="M10.4393 17.6352C11.1043 17.6352 11.7529 17.6124 12.381 17.5707C12.6344 17.5534 12.8641 17.4184 13.0021 17.2046C13.1394 16.9917 13.1684 16.7254 13.0806 16.4874C12.9245 16.0671 12.8485 15.6531 12.8485 15.1787C12.8485 14.9587 12.7583 14.7482 12.5991 14.5966C12.4407 14.445 12.2211 14.3585 12.007 14.375C11.4839 14.4002 10.9608 14.4174 10.4393 14.4174C6.62811 14.4174 3.33837 13.7921 1.17555 12.6577C0.926965 12.5273 0.626584 12.5376 0.387409 12.682C0.146652 12.8275 0 13.0891 0 13.3703V13.613C0 16.2533 5.25177 17.6352 10.4393 17.6352Z" fill="#461B73"/>
<path d="M34.9455 23.9456C34.7048 23.7987 34.406 23.7908 34.1574 23.9213C32.6462 24.714 30.5202 25.2677 28.01 25.5215C27.5866 25.5647 27.2847 26.0596 27.3027 26.4855C27.3027 26.8932 27.2368 27.2828 27.1019 27.6748C27.0125 27.9348 27.0619 28.2231 27.2329 28.4384C27.3866 28.6309 27.618 28.7416 27.8611 28.7416C27.8893 28.7416 27.9183 28.74 27.9473 28.7369C32.5718 28.2372 35.3329 26.7942 35.3329 24.8766V24.6338C35.3329 24.3526 35.1862 24.091 34.9455 23.9456Z" fill="#461B73"/>
<path d="M15.2571 20.8538L15.7896 20.8632C15.7943 20.8632 15.799 20.8632 15.8037 20.8632C16.1785 20.8632 16.504 20.6031 16.5871 20.2363C16.671 19.8639 16.4828 19.4845 16.1362 19.3266L15.9644 19.2495C15.8499 19.1993 15.7347 19.149 15.628 19.0932C15.3778 18.962 15.0814 18.9738 14.8407 19.1191C14.6007 19.2644 14.4541 19.5252 14.4541 19.8064V20.0491C14.454 20.494 14.8132 20.8538 15.2571 20.8538Z" fill="#461B73"/>
<path d="M34.9455 19.1186C34.7063 18.9741 34.406 18.9638 34.1574 19.0943C31.9946 20.2287 28.7048 20.854 24.8936 20.854L24.3635 20.8437C24.0396 20.8163 23.6522 21.1014 23.5698 21.473C23.4867 21.8446 23.6749 22.2232 24.0208 22.3803C24.8904 22.7762 25.601 23.2468 26.1319 23.7786C26.2832 23.9295 26.4871 24.0135 26.6997 24.0135C26.7161 24.0135 26.7334 24.0127 26.7506 24.0119C30.7092 23.7605 35.3329 22.5719 35.3329 20.0495V19.8068C35.3329 19.5255 35.1862 19.2639 34.9455 19.1186Z" fill="#461B73"/>
<path d="M6.71589 22.2125C6.81624 22.2125 6.91667 22.1936 7.01152 22.1559C8.42625 21.5958 10.1514 21.2101 12.1402 21.0098C12.5637 20.9674 12.8664 20.4316 12.8483 20.0058C12.8483 19.7858 12.7581 19.5753 12.5989 19.4237C12.4405 19.2721 12.2209 19.1912 12.0068 19.2022C11.4837 19.2273 10.9607 19.2446 10.4392 19.2446C6.62795 19.2446 3.33822 18.6192 1.1754 17.4849C0.926815 17.3545 0.626434 17.3647 0.387258 17.5092C0.146652 17.6546 0 17.9161 0 18.1974V18.4401C0 20.2178 2.46869 21.6255 6.60454 22.2045C6.64143 22.21 6.67907 22.2125 6.71589 22.2125Z" fill="#461B73"/>
</g>
<defs>
<clipPath id="clip0_5_2060">
<rect width="35.333" height="35.333" fill="white"/>
</clipPath>
</defs>
</svg>
