<svg width="43" height="43" viewBox="0 0 43 43" fill="none" xmlns="http://www.w3.org/2000/svg">
<g clip-path="url(#clip0_5_2078)">
<path d="M26.5102 9.66711V7.10315H28.207C28.7588 7.10315 29.2465 6.74395 29.4101 6.21678C29.5737 5.68977 29.3752 5.1175 28.9203 4.805L22.2482 0.221467C21.8186 -0.0738223 21.2512 -0.0738223 20.8216 0.221467L14.1496 4.80508C13.6946 5.11759 13.4962 5.68977 13.6597 6.21686C13.8233 6.74395 14.311 7.10323 14.8629 7.10323H16.5597V9.66719L26.5102 9.66711Z" fill="#461B73"/>
<path d="M42.7785 20.7967L38.1949 14.1247C37.8823 13.6696 37.3096 13.4713 36.7831 13.6348C36.2561 13.7984 35.8968 14.2861 35.8968 14.8379V16.5348H33.2578V26.4852H35.8969V28.182C35.8969 28.7339 36.2561 29.2216 36.7832 29.3852C36.9065 29.4234 37.0322 29.4419 37.1565 29.4419C37.5638 29.4419 37.9556 29.2439 38.1949 28.8953L42.7785 22.2233C43.0738 21.7936 43.0738 21.2264 42.7785 20.7967Z" fill="#461B73"/>
<path d="M16.4899 33.333V35.897H14.793C14.2412 35.897 13.7535 36.2562 13.5899 36.7833C13.4264 37.3103 13.6248 37.8826 14.0798 38.1951L20.7518 42.7787C20.9667 42.9264 21.2158 43.0002 21.4651 43.0002C21.7144 43.0002 21.9636 42.9264 22.1784 42.7787L28.8504 38.1951C29.3054 37.8826 29.5038 37.3104 29.3403 36.7833C29.1767 36.2563 28.689 35.897 28.1372 35.897H26.4403V33.333H16.4899Z" fill="#461B73"/>
<path d="M9.74219 16.5152H7.10315V14.8183C7.10315 14.2665 6.74395 13.7788 6.21678 13.6152C5.68986 13.4519 5.11759 13.65 4.805 14.1051L0.221467 20.7771C-0.0738223 21.2068 -0.0738223 21.774 0.221467 22.2037L4.80508 28.8757C5.04452 29.2243 5.43631 29.4223 5.84346 29.4223C5.96776 29.4223 6.09365 29.4038 6.21678 29.3656C6.74386 29.202 7.10315 28.7143 7.10315 28.1625V26.4656H9.74219V16.5152Z" fill="#461B73"/>
<path d="M30.7383 13.4463C30.7383 12.7517 30.1732 12.1865 29.4785 12.1865H25.8948V17.909C25.8948 18.33 25.6845 18.723 25.3344 18.9568C25.1243 19.0971 24.8804 19.1687 24.635 19.1687C24.4715 19.1687 24.3073 19.1369 24.1518 19.0724L21.5066 17.9737L18.9437 19.0676C18.5544 19.2337 18.108 19.1933 17.7549 18.9602C17.4018 18.7271 17.1894 18.3321 17.1894 17.909V12.1865H13.5215C12.8268 12.1865 12.2617 12.7517 12.2617 13.4463V29.5534C12.2617 30.248 12.8268 30.8132 13.5215 30.8132H29.4785C30.1732 30.8132 30.7383 30.248 30.7383 29.5534V13.4463Z" fill="#461B73"/>
<path d="M19.7085 16.0015L21.005 15.4481C21.1629 15.3807 21.3313 15.347 21.4996 15.347C21.6639 15.347 21.8281 15.3791 21.9829 15.4434L23.3749 16.0216V12.1865H19.7086V16.0015H19.7085Z" fill="#461B73"/>
</g>
<defs>
<clipPath id="clip0_5_2078">
<rect width="43" height="43" fill="white"/>
</clipPath>
</defs>
</svg>
