<svg width="37" height="37" viewBox="0 0 37 37" fill="none" xmlns="http://www.w3.org/2000/svg">
<g clip-path="url(#clip0_5_2089)">
<path d="M14.3999 11.889C14.4 9.93463 15.9897 8.34463 17.9437 8.34463C19.8982 8.34463 21.4876 9.93391 21.4877 11.8875L21.4877 16.2045C23.3828 15.1301 24.7482 13.2232 25.0854 10.983H28.8337C29.3111 12.7538 30.928 14.0608 32.8445 14.0608C35.1354 14.0608 36.9992 12.1939 36.9992 9.89908C36.9992 7.60423 35.1355 5.73724 32.8445 5.73724C30.928 5.73724 29.3111 7.04433 28.8337 8.81514H25.0854C24.5617 5.33553 21.5575 2.65942 17.941 2.65942C15.3247 2.65942 13.0288 4.06002 11.7606 6.15217L8.28848 4.70569C8.52615 2.88719 7.5342 1.05836 5.76499 0.321277C4.74102 -0.105291 3.61235 -0.10717 2.58686 0.316147C1.55965 0.740186 0.759189 1.53978 0.332983 2.56764C-0.545373 4.68596 0.460093 7.12599 2.57451 8.0068C3.08866 8.22099 3.62911 8.32808 4.16978 8.32808C4.7059 8.32808 5.24224 8.22272 5.75285 8.01193C6.43674 7.7296 7.01926 7.28013 7.45854 6.70838L10.9285 8.15393C10.7899 8.7131 10.7158 9.29756 10.7158 9.89908C10.7158 10.3173 10.7518 10.7271 10.8201 11.126L6.86389 12.4432C6.5348 12.1606 6.16027 11.9281 5.74829 11.7568C4.72382 11.331 3.59515 11.3302 2.57003 11.7543C0.453517 12.63 -0.557875 15.0676 0.315423 17.1881C0.739173 18.2169 1.53768 19.0184 2.56388 19.4449C3.07717 19.6583 3.61647 19.7649 4.15598 19.7649C4.69326 19.7649 5.23068 19.6591 5.74215 19.4474C7.75923 18.6128 8.7712 16.3598 8.10602 14.3145L11.5032 13.1834C12.1512 14.4536 13.163 15.5076 14.3998 16.2074L14.3999 11.889Z" fill="#461B73"/>
<path d="M34.082 33.3459V24.1322C34.082 23.3728 33.4646 22.755 32.7056 22.755C31.9466 22.755 31.3292 23.3728 31.3292 24.1322V27.458C31.3292 28.0566 30.8439 28.5419 30.2453 28.5419C29.6466 28.5419 29.1613 28.0566 29.1613 27.458V22.6302C29.1613 21.8708 28.5439 21.253 27.7849 21.253C27.026 21.253 26.4085 21.8708 26.4085 22.6302V25.2049C26.4085 25.8036 25.9232 26.2889 25.3246 26.2889C24.726 26.2889 24.2406 25.8036 24.2406 25.2049V21.1281C24.2406 20.3687 23.6232 19.751 22.8643 19.751C22.1054 19.751 21.488 20.3687 21.4879 21.1281L21.4879 23.703C21.4879 24.3016 21.0025 24.7869 20.4039 24.7869C19.8053 24.7869 19.32 24.3016 19.32 23.703L19.3198 11.8888C19.3198 11.1305 18.7029 10.5137 17.9447 10.5137C17.185 10.5137 16.5678 11.1312 16.5677 11.8903L16.5679 26.304C16.5679 26.3124 16.5678 26.3209 16.5677 26.3293V26.3348H16.5676C16.551 27.0462 16.0014 27.4298 15.4843 27.4301C15.4842 27.4301 15.484 27.4301 15.484 27.4301C15.0732 27.4301 14.4259 27.1319 14.4005 26.3354H14.4C14.4 26.3325 14.4 26.3273 14.4 26.3193C14.3998 26.3095 14.3997 26.2997 14.3997 26.2898L14.3994 22.4461H12.9858C12.2272 22.4461 11.61 23.0636 11.6099 23.8227L11.6094 30.0719L14.8824 35.3939C15.4921 36.3854 16.5936 37.0013 17.7571 37.0012H30.4282C32.4429 37.0011 34.082 35.3614 34.082 33.3459Z" fill="#461B73"/>
</g>
<defs>
<clipPath id="clip0_5_2089">
<rect width="37" height="37" fill="white"/>
</clipPath>
</defs>
</svg>
