<svg width="1440" height="292" viewBox="0 0 1440 292" fill="none" xmlns="http://www.w3.org/2000/svg">
<g opacity="0.28">
<path d="M1440.17 225.703H0.168945V228.041H1440.17V225.703Z" fill="#461B73"/>
<path d="M1440.17 169.475H0.168945V171.026H1440.17V169.475Z" fill="#461B73"/>
<path d="M1440.17 130.863H0.168945V131.956H1440.17V130.863Z" fill="#461B73"/>
<path d="M1440.17 102.747H0.168945V103.561H1440.17V102.747Z" fill="#461B73"/>
<path d="M1440.17 81.345H0.168945V81.9805H1440.17V81.345Z" fill="#461B73"/>
<path d="M1440.17 64.5159H0.168945V65.0243H1440.17V64.5159Z" fill="#461B73"/>
<path d="M1440.17 50.9434H0.168945V51.3501H1440.17V50.9434Z" fill="#461B73"/>
<path d="M1440.17 39.7324H0.168945V40.0629H1440.17V39.7324Z" fill="#461B73"/>
<path d="M1440.17 30.3528H0.168945V30.6324H1440.17V30.3528Z" fill="#461B73"/>
<path d="M1440.17 22.3713H0.168945V22.6255H1440.17V22.3713Z" fill="#461B73"/>
<path d="M1440.17 15.4812H0.168945V15.6846H1440.17V15.4812Z" fill="#461B73"/>
<path d="M1440.17 9.50781H0.168945V9.68575H1440.17V9.50781Z" fill="#461B73"/>
<path d="M1440.17 4.27222H0.168945V4.42561H1440.17V4.27222Z" fill="#461B73"/>
<path d="M1440.17 2.67054L1421.13 0.636963H1419.06L1440.17 2.89932V2.67054Z" fill="#461B73"/>
<path d="M1440.17 9.61012L1363.34 0.636963H1361.27L1440.17 9.86432V9.61012Z" fill="#461B73"/>
<path d="M1440.17 17.8461L1305.49 0.636963H1303.47L1440.17 18.1766V17.8461Z" fill="#461B73"/>
<path d="M1440.17 27.8615L1247.7 0.636963H1245.63L1440.17 28.2428V27.8615Z" fill="#461B73"/>
<path d="M1440.17 40.2409L1189.9 0.636963H1187.83L1440.17 40.7238V40.2409Z" fill="#461B73"/>
<path d="M1440.17 55.9503L1132.06 0.636963H1129.99L1440.17 56.5857V55.9503Z" fill="#461B73"/>
<path d="M1440.17 76.5656L1074.26 0.636963H1072.19L1440.17 77.4299V76.5656Z" fill="#461B73"/>
<path d="M1440.17 104.782L1016.47 0.636963H1014.4L1440.17 106.002V104.782Z" fill="#461B73"/>
<path d="M1440.17 145.784L958.623 0.636963H956.552L1440.17 147.588V145.784Z" fill="#461B73"/>
<path d="M1440.17 210.731L900.828 0.636963H898.757L1440.17 213.756V210.731Z" fill="#461B73"/>
<path d="M840.962 0.636963L1337.45 278.042H1346.92L842.984 0.636963H840.962Z" fill="#461B73"/>
<path d="M783.118 0.636963L1071.4 278.042H1080.92L785.189 0.636963H783.118Z" fill="#461B73"/>
<path d="M725.321 0.636963L805.406 278.042H814.874L727.392 0.636963H725.321Z" fill="#461B73"/>
<path d="M667.527 0.636963L539.411 278.042H548.879L669.549 0.636963H667.527Z" fill="#461B73"/>
<path d="M609.682 0.636963L273.364 278.042H282.882L611.753 0.636963H609.682Z" fill="#461B73"/>
<path d="M551.886 0.636963L7.36816 278.042H16.8363L553.958 0.636963H551.886Z" fill="#461B73"/>
<path d="M0.168945 185.235L496.114 0.636963H494.042L0.168945 182.668V185.235Z" fill="#461B73"/>
<path d="M0.168945 128.117L438.318 0.636963H436.247L0.168945 126.541V128.117Z" fill="#461B73"/>
<path d="M0.168945 91.4616L380.523 0.636963H378.452L0.168945 90.394V91.4616Z" fill="#461B73"/>
<path d="M0.168945 65.9402L322.678 0.636963H320.607L0.168945 65.1776V65.9402Z" fill="#461B73"/>
<path d="M0.168945 47.1805L264.883 0.636963H262.812L0.168945 46.5958V47.1805Z" fill="#461B73"/>
<path d="M0.168945 32.7675L207.039 0.636963H205.017L0.168945 32.3099V32.7675Z" fill="#461B73"/>
<path d="M0.168945 21.3794L149.243 0.636963H147.172L0.168945 20.9981V21.3794Z" fill="#461B73"/>
<path d="M0.168945 12.1267L91.448 0.636963H89.3769L0.168945 11.8216V12.1267Z" fill="#461B73"/>
<path d="M0.168945 4.47534L33.6034 0.636963H31.5816L0.168945 4.24656V4.47534Z" fill="#461B73"/>
<line x1="0.168945" y1="288" x2="1440.17" y2="288" stroke="#461B73" stroke-width="8"/>
<rect x="0.168945" y="0.636963" width="1440" height="258.514" fill="url(#paint0_linear_5_99)"/>
</g>
<defs>
<linearGradient id="paint0_linear_5_99" x1="720.169" y1="0.636963" x2="720.169" y2="259.151" gradientUnits="userSpaceOnUse">
<stop stop-color="#010101"/>
<stop offset="1" stop-opacity="0"/>
</linearGradient>
</defs>
</svg>
