<svg width="1440" height="287" viewBox="0 0 1440 287" fill="none" xmlns="http://www.w3.org/2000/svg">
<g opacity="0.5">
<g opacity="0.5" clip-path="url(#clip0_9_402)">
<path d="M1440 60.6406H0V58.2886H1440V60.6406Z" fill="#461B73"/>
<path d="M1440 117.191H0V115.632H1440V117.191Z" fill="#461B73"/>
<path d="M1440 156.025H0V154.926H1440V156.025Z" fill="#461B73"/>
<path d="M1440 184.303H0V183.485H1440V184.303Z" fill="#461B73"/>
<path d="M1440 205.828H0V205.189H1440V205.828Z" fill="#461B73"/>
<path d="M1440 222.754H0V222.243H1440V222.754Z" fill="#461B73"/>
<path d="M1440 236.404H0V235.995H1440V236.404Z" fill="#461B73"/>
<path d="M1440 247.68H0V247.347H1440V247.68Z" fill="#461B73"/>
<path d="M1440 257.113H0V256.832H1440V257.113Z" fill="#461B73"/>
<path d="M1440 265.141H0V264.885H1440V265.141Z" fill="#461B73"/>
<path d="M1440 272.07H0V271.866H1440V272.07Z" fill="#461B73"/>
<path d="M1440 278.078H0V277.899H1440V278.078Z" fill="#461B73"/>
<path d="M1440 283.344H0V283.19H1440V283.344Z" fill="#461B73"/>
<path d="M1440 284.955L1420.97 287H1418.89L1440 284.725V284.955Z" fill="#461B73"/>
<path d="M1440 277.975L1363.17 287H1361.1L1440 277.72V277.975Z" fill="#461B73"/>
<path d="M1440 269.692L1305.32 287H1303.3L1440 269.36V269.692Z" fill="#461B73"/>
<path d="M1440 259.619L1247.53 287H1245.46L1440 259.236V259.619Z" fill="#461B73"/>
<path d="M1440 247.168L1189.74 287H1187.66L1440 246.683V247.168Z" fill="#461B73"/>
<path d="M1440 231.369L1131.89 287H1129.82L1440 230.73V231.369Z" fill="#461B73"/>
<path d="M1440 210.635L1074.09 287H1072.02L1440 209.766V210.635Z" fill="#461B73"/>
<path d="M1440 182.257L1016.3 287H1014.23L1440 181.03V182.257Z" fill="#461B73"/>
<path d="M1440 141.019L958.454 287H956.383L1440 139.204V141.019Z" fill="#461B73"/>
<path d="M1440 75.6984L900.659 287H898.588L1440 72.656V75.6984Z" fill="#461B73"/>
<path d="M840.793 287L1337.28 8H1346.75L842.815 287H840.793Z" fill="#461B73"/>
<path d="M782.949 287L1071.24 8H1080.75L785.02 287H782.949Z" fill="#461B73"/>
<path d="M725.152 287L805.237 8H814.705L727.223 287H725.152Z" fill="#461B73"/>
<path d="M667.358 287L539.242 8H548.71L669.38 287H667.358Z" fill="#461B73"/>
<path d="M609.513 287L273.195 8H282.713L611.584 287H609.513Z" fill="#461B73"/>
<path d="M551.718 287L7.19922 8H16.6674L553.789 287H551.718Z" fill="#461B73"/>
<path d="M0 101.341L495.945 287H493.873L0 103.923V101.341Z" fill="#461B73"/>
<path d="M0 158.787L438.149 287H436.078L0 160.372V158.787Z" fill="#461B73"/>
<path d="M0 195.653L380.354 287H378.283L0 196.727V195.653Z" fill="#461B73"/>
<path d="M0 221.321L322.509 287H320.438L0 222.088V221.321Z" fill="#461B73"/>
<path d="M0 240.189L264.714 287H262.643L0 240.777V240.189Z" fill="#461B73"/>
<path d="M0 254.685L206.87 287H204.848L0 255.145V254.685Z" fill="#461B73"/>
<path d="M0 266.138L149.074 287H147.003L0 266.522V266.138Z" fill="#461B73"/>
<path d="M0 275.444L91.2791 287H89.2079L0 275.751V275.444Z" fill="#461B73"/>
<path d="M0 283.14L33.4345 287H31.4126L0 283.37V283.14Z" fill="#461B73"/>
<rect width="1440" height="279" transform="matrix(1 0 0 -1 -0.168945 286.52)" fill="url(#paint0_linear_9_402)"/>
</g>
<line opacity="0.5" y1="4" x2="1440" y2="4" stroke="#461B73" stroke-width="8"/>
</g>
<defs>
<linearGradient id="paint0_linear_9_402" x1="720" y1="0" x2="720" y2="279" gradientUnits="userSpaceOnUse">
<stop stop-color="#010101"/>
<stop offset="1" stop-opacity="0"/>
</linearGradient>
<clipPath id="clip0_9_402">
<rect width="1440" height="279" fill="white" transform="matrix(1 0 0 -1 0 287)"/>
</clipPath>
</defs>
</svg>
