<svg width="16" height="16" viewBox="0 0 16 16" fill="none" xmlns="http://www.w3.org/2000/svg">
<path d="M11.5115 10.0524L8.32786 7.82622V3.99999C8.32786 3.81966 8.18032 3.67212 7.99999 3.67212C7.81966 3.67212 7.67212 3.81966 7.67212 3.99999V7.99999C7.67212 8.10818 7.72458 8.20655 7.8131 8.26884L11.1377 10.5934C11.1934 10.6328 11.259 10.6524 11.3246 10.6524C11.4262 10.6524 11.5279 10.6033 11.5934 10.5082C11.6951 10.3606 11.659 10.1574 11.5115 10.0524Z" fill="#007CEE"/>
<path d="M13.6525 2.34754C12.1377 0.832788 10.1311 0 8 0C5.86885 0 3.86229 0.832788 2.34754 2.34754C0.832787 3.8623 0 5.86885 0 8C0 10.1311 0.832787 12.1377 2.34754 13.6525C3.86229 15.1672 5.86885 16 8 16C10.1311 16 12.1377 15.1672 13.6525 13.6525C15.1672 12.1377 16 10.1311 16 8C16 5.86885 15.1672 3.8623 13.6525 2.34754ZM8.32787 15.3377V14C8.32787 13.8197 8.18033 13.6721 8 13.6721C7.81967 13.6721 7.67213 13.8197 7.67213 14V15.3377C3.88197 15.1705 0.829508 12.118 0.662295 8.32787H2C2.18033 8.32787 2.32787 8.18033 2.32787 8C2.32787 7.81967 2.18033 7.67213 2 7.67213H0.662295C0.829508 3.88197 3.88197 0.829509 7.67213 0.662295V2C7.67213 2.18033 7.81967 2.32787 8 2.32787C8.18033 2.32787 8.32787 2.18033 8.32787 2V0.662295C12.118 0.829509 15.1705 3.88197 15.3377 7.67213H14C13.8197 7.67213 13.6721 7.81967 13.6721 8C13.6721 8.18033 13.8197 8.32787 14 8.32787H15.3377C15.1705 12.118 12.118 15.1705 8.32787 15.3377Z" fill="#007CEE"/>
</svg>
