<svg width="16" height="16" viewBox="0 0 16 16" fill="none" xmlns="http://www.w3.org/2000/svg">
<path d="M8.00012 0C4.74013 0 2.08789 2.65219 2.08789 5.91223C2.08789 9.06845 7.47776 15.5867 7.70719 15.8626C7.77957 15.9496 7.8869 16 8.00012 16C8.11329 16 8.22066 15.9497 8.29305 15.8626C8.52253 15.5866 13.9123 9.06845 13.9123 5.91223C13.9123 2.65219 11.2602 0 8.00012 0ZM8.00012 15.0145C7.5222 14.4177 6.52924 13.1463 5.54663 11.6927C3.78237 9.08302 2.8498 7.08414 2.8498 5.91223C2.8498 3.0723 5.16025 0.761905 8.00012 0.761905C10.84 0.761905 13.1504 3.0723 13.1504 5.91223C13.1504 7.08409 12.2179 9.08297 10.4536 11.6927C9.47095 13.1463 8.47804 14.4177 8.00012 15.0145Z" fill="white"/>
<path d="M9.93826 10.8676C9.76393 10.7498 9.52708 10.7957 9.40934 10.9701C8.89526 11.731 8.31936 12.5286 7.69765 13.3406C7.56975 13.5077 7.60145 13.7467 7.76851 13.8746C7.83759 13.9276 7.91901 13.9532 7.99982 13.9532C8.11431 13.9532 8.22758 13.9017 8.30255 13.8038C8.93341 12.9799 9.5182 12.17 10.0407 11.3966C10.1584 11.2222 10.1126 10.9854 9.93826 10.8676Z" fill="white"/>
<path d="M8.00003 2.92063C6.27757 2.92063 4.87622 4.32198 4.87622 6.04444C4.87622 7.7669 6.27757 9.16825 8.00003 9.16825C9.72249 9.16825 11.1238 7.7669 11.1238 6.04444C11.1238 4.32198 9.72249 2.92063 8.00003 2.92063ZM8.00003 8.40635C6.69768 8.40635 5.63813 7.34679 5.63813 6.04444C5.63813 4.74209 6.69768 3.68254 8.00003 3.68254C9.30243 3.68254 10.3619 4.74209 10.3619 6.04444C10.3619 7.34679 9.30243 8.40635 8.00003 8.40635Z" fill="white"/>
</svg>
