<svg width="18" height="18" viewBox="0 0 18 18" fill="none" xmlns="http://www.w3.org/2000/svg">
<path d="M15.4518 2.81815C15.4518 2.81815 16.8908 2.25704 16.7709 3.61974C16.7309 4.18086 16.3712 6.14475 16.0913 8.26897L15.132 14.5615C15.132 14.5615 15.0521 15.4833 14.3326 15.6436C13.613 15.8039 12.5338 15.0825 12.3339 14.9222C12.174 14.8019 9.33604 12.9983 8.33671 12.1166C8.05689 11.8761 7.73712 11.3952 8.37667 10.834L12.5738 6.82612C13.0534 6.34515 13.5331 5.22293 11.5345 6.58563L5.93838 10.3932C5.93838 10.3932 5.29882 10.794 4.09967 10.4333L1.50146 9.63167C1.50146 9.63167 0.54212 9.03049 2.18099 8.42927C6.17823 6.54552 11.0948 4.62171 15.4518 2.81815Z" fill="white"/>
</svg>
