<svg width="18" height="18" viewBox="0 0 18 18" fill="none" xmlns="http://www.w3.org/2000/svg">
<path d="M16.6016 15.1936C16.5638 15.1341 16.5366 15.0674 16.5016 15.0069C16.4493 14.9158 16.3943 14.8257 16.3421 14.7346C16.2304 14.5379 16.126 14.3385 16.0187 14.1401C15.7976 13.7334 15.5542 13.3406 15.3414 12.9277C15.1264 12.5088 14.9147 12.0876 14.7024 11.6676C14.4813 11.2314 14.2302 10.8114 13.9907 10.3835C13.7445 9.94513 13.5284 9.48952 13.295 9.04335C13.0684 8.60941 12.8405 8.17436 12.6177 7.73764C12.3877 7.28647 12.1532 6.83697 11.9188 6.38858C11.6787 5.93408 11.4315 5.48347 11.2015 5.0223C10.9759 4.56891 10.7425 4.11829 10.5125 3.66713C10.2541 3.15706 9.9763 2.65367 9.68126 2.16416C9.59681 2.02248 9.44957 1.94024 9.29455 1.92691C9.24843 1.91302 9.2012 1.90413 9.15286 1.90413C9.11008 1.90413 9.0673 1.90969 9.02562 1.9208C8.89783 1.95636 8.81171 2.03581 8.73781 2.14194C8.57835 2.37085 8.42611 2.60311 8.27886 2.84091C8.15829 3.03538 8.04772 3.23707 7.92271 3.42821C7.66768 3.8177 7.37986 4.18441 7.14983 4.59058C6.9098 5.01063 6.65811 5.42401 6.41196 5.84073C6.17193 6.24745 5.95857 6.66861 5.7241 7.07922C5.48963 7.49261 5.23793 7.89654 4.99568 8.30548C4.75454 8.7122 4.53895 9.13226 4.30115 9.54175C4.06778 9.94569 3.83664 10.3513 3.59661 10.7508C3.35269 11.1558 3.12767 11.5703 2.89097 11.9804C2.60538 12.4766 2.33312 12.98 2.02197 13.4606C1.88084 13.68 1.73749 13.8956 1.60081 14.1173C1.46301 14.3396 1.32411 14.5635 1.17742 14.7802C1.08741 14.9135 1.1013 15.0808 1.17075 15.2197C1.15964 15.2597 1.14686 15.2991 1.14686 15.3414C1.14686 15.4608 1.19465 15.577 1.2791 15.6614C1.36911 15.7514 1.47468 15.782 1.59914 15.7936C2.07031 15.8359 2.54426 15.8292 3.01765 15.8381C3.49938 15.8459 3.98111 15.8403 4.46339 15.847C4.91789 15.8525 5.37295 15.8587 5.82856 15.862C6.29639 15.8642 6.76423 15.8848 7.23151 15.8792C7.69935 15.8725 8.16718 15.8542 8.63446 15.8598C8.88283 15.862 9.13175 15.8675 9.379 15.8837C9.61125 15.8987 9.84239 15.9259 10.0758 15.9381C10.528 15.9609 10.9798 15.9542 11.4331 15.9598C11.9021 15.9653 12.3688 15.9748 12.8372 16.0009C13.3817 16.0303 13.9257 16.0726 14.4713 16.092C14.7274 16.102 14.9836 16.1048 15.2408 16.1092C15.4753 16.1137 15.7087 16.1181 15.942 16.0992C16.0698 16.0881 16.181 16.0548 16.2743 15.9614C16.2926 15.9431 16.3021 15.9181 16.3165 15.8975C16.3527 15.887 16.3893 15.8814 16.4238 15.8609C16.6505 15.7297 16.7416 15.4192 16.6016 15.1936ZM14.6841 15.1552C14.2329 15.1441 13.7801 15.1052 13.3278 15.0836C13.1034 15.0719 12.8772 15.0508 12.6516 15.0435C12.4272 15.0358 12.2021 15.0319 11.9765 15.0252C11.5076 15.0124 11.0387 15.008 10.5692 15.0047C10.098 15.0013 9.62959 14.9502 9.15953 14.9352C8.69725 14.9191 8.23164 14.933 7.76936 14.9502C7.29596 14.9685 6.82424 14.9652 6.35085 14.9619C5.88079 14.9574 5.4124 14.9585 4.94234 14.9674C4.38671 14.9763 3.8322 14.9869 3.27768 14.9741C2.91597 14.9658 2.55315 14.9508 2.19144 14.9296C2.34757 14.6791 2.50259 14.4274 2.66261 14.1784C2.92097 13.7767 3.15211 13.3622 3.3777 12.9422C3.82275 12.1165 4.3067 11.312 4.77787 10.5013C5.02179 10.0813 5.27571 9.66788 5.51463 9.24338C5.73799 8.84833 5.98691 8.46773 6.22194 8.0799C6.46808 7.67429 6.69311 7.25813 6.92759 6.84586C7.1665 6.42469 7.4182 6.0102 7.66657 5.59459C7.80881 5.35678 7.94549 5.1162 8.08217 4.87506C8.2233 4.62558 8.39666 4.39444 8.55946 4.15774C8.71225 3.93549 8.85449 3.70547 8.99895 3.4771C9.05229 3.3932 9.11119 3.31264 9.16564 3.22929C9.33789 3.52211 9.51402 3.81326 9.67793 4.11052C9.91462 4.54001 10.1219 4.98507 10.3336 5.42568C10.5475 5.87185 10.787 6.30468 11.0214 6.73973C11.2615 7.18479 11.487 7.63818 11.7271 8.08435C12.2016 8.9689 12.6416 9.87179 13.1139 10.758C13.3406 11.1836 13.5884 11.5981 13.814 12.0243C14.0385 12.4499 14.2602 12.8772 14.478 13.3061C14.6963 13.7328 14.9447 14.1418 15.1769 14.5596C15.287 14.7574 15.3898 14.958 15.4959 15.1563C15.2253 15.1591 14.9553 15.1608 14.6841 15.1552ZM9.4279 10.2891C9.43957 10.5919 9.46346 10.8936 9.46457 11.1964C9.46568 11.4503 9.25176 11.662 8.99895 11.662C8.73726 11.662 8.54445 11.4503 8.53334 11.1964C8.52167 10.8891 8.51389 10.5824 8.50612 10.2752C8.49834 9.96291 8.49111 9.64565 8.50278 9.33339C8.51445 9.02502 8.53334 8.7172 8.54168 8.40772C8.55057 8.06157 8.54945 7.71541 8.55279 7.36926C8.55612 7.13812 8.74503 6.94365 8.97951 6.94365C9.20731 6.94365 9.40901 7.13701 9.40512 7.36926C9.39234 8.02989 9.37345 8.68998 9.39734 9.35062C9.40845 9.66343 9.41567 9.9768 9.4279 10.2891ZM9.42845 13.1978C9.42845 13.4483 9.21898 13.6578 8.9684 13.6578C8.71781 13.6578 8.50834 13.4483 8.50834 13.1978C8.50834 12.9472 8.71781 12.7377 8.9684 12.7377C9.21898 12.7377 9.42845 12.9472 9.42845 13.1978Z" fill="#FFB800"/>
</svg>
