<svg width="46" height="32" viewBox="0 0 46 32" fill="none" xmlns="http://www.w3.org/2000/svg">
<path fill-rule="evenodd" clip-rule="evenodd" d="M5.26975 11.8738V2.88765C5.26975 1.68505 4.88181 0 2.65467 0C0.427521 0 0 1.68505 0 2.88765V28.2337C0 29.6492 0.475197 31.1371 2.36268 31.1371C4.25016 31.1371 4.88181 29.2526 4.88181 29.2526C4.88181 29.2526 9.42982 32.718 15.0186 31.1371C20.6074 29.5562 24.4878 24.2012 24.4878 24.2012C25.3584 29.5499 33.7121 35.089 40.5674 28.8706C40.5674 28.8706 41.1433 31.1371 43.2691 31.1371C45.3948 31.1371 46 29.5544 46 28.443V2.88765C46 1.95376 45.5142 0 43.2691 0C41.0239 0 40.5674 1.84745 40.5674 2.88765V11.5259C35.2903 8.30065 29.6134 9.70881 27.2052 11.8738C24.7971 14.0388 21.6939 19.1947 21.6939 19.1947C21.6939 19.1947 20.8515 12.8168 15.837 10.5173C10.8224 8.21792 5.26975 11.8738 5.26975 11.8738ZM10.8563 27.1998C14.0306 27.1998 16.6038 24.397 16.6038 20.9395C16.6038 17.4821 14.0306 14.6792 10.8563 14.6792C7.68208 14.6792 5.10885 17.4821 5.10885 20.9395C5.10885 24.397 7.68208 27.1998 10.8563 27.1998ZM40.8709 20.9395C40.8709 24.397 38.2977 27.1998 35.1234 27.1998C31.9492 27.1998 29.376 24.397 29.376 20.9395C29.376 17.4821 31.9492 14.6792 35.1234 14.6792C38.2977 14.6792 40.8709 17.4821 40.8709 20.9395Z" fill="white"/>
</svg>
