<svg width="65" height="11" viewBox="0 0 65 11" fill="none" xmlns="http://www.w3.org/2000/svg">
<path fill-rule="evenodd" clip-rule="evenodd" d="M7.44639 -29.4925V-41.9855C7.44639 -43.6574 6.89822 -46 3.75116 -46C0.604106 -46 0 -43.6574 0 -41.9855V-6.74828C0 -4.7804 0.671475 -2.7118 3.33856 -2.7118C6.00565 -2.7118 6.89822 -5.33179 6.89822 -5.33179C6.89822 -5.33179 13.3247 -0.513958 21.2219 -2.7118C29.1191 -4.90965 34.6023 -12.3544 34.6023 -12.3544C35.8325 -4.91844 47.6367 2.78223 57.3235 -5.86281C57.3235 -5.86281 58.1373 -2.7118 61.1411 -2.7118C64.1448 -2.7118 65 -4.91214 65 -6.45734V-41.9855C65 -43.2838 64.3136 -46 61.1411 -46C57.9686 -46 57.3235 -43.4316 57.3235 -41.9855V-29.9762C49.8668 -34.4601 41.845 -32.5024 38.4422 -29.4925C35.0394 -26.4826 30.6545 -19.3147 30.6545 -19.3147C30.6545 -19.3147 29.4641 -28.1816 22.3784 -31.3783C15.2926 -34.5751 7.44639 -29.4925 7.44639 -29.4925ZM15.3405 -8.18562C19.8258 -8.18562 23.4619 -12.0822 23.4619 -16.8889C23.4619 -21.6957 19.8258 -25.5923 15.3405 -25.5923C10.8551 -25.5923 7.21903 -21.6957 7.21903 -16.8889C7.21903 -12.0822 10.8551 -8.18562 15.3405 -8.18562ZM57.7523 -16.8889C57.7523 -12.0822 54.1163 -8.18562 49.6309 -8.18562C45.1456 -8.18562 41.5095 -12.0822 41.5095 -16.8889C41.5095 -21.6957 45.1456 -25.5923 49.6309 -25.5923C54.1163 -25.5923 57.7523 -21.6957 57.7523 -16.8889Z" fill="white"/>
<path fill-rule="evenodd" clip-rule="evenodd" d="M3.59713 5.63574H0.934082V10.7764H3.58943C4.15899 10.7764 4.56819 10.6619 4.81705 10.4327C5.06591 10.2036 5.19034 9.86236 5.19034 9.40906C5.19034 9.01554 5.11594 8.72912 4.96714 8.54979C4.81833 8.37046 4.56948 8.24344 4.22056 8.16872V8.13884C4.54382 8.0691 4.77857 7.94083 4.9248 7.75403C5.07104 7.56723 5.14416 7.29202 5.14416 6.92838C5.14416 6.49501 5.01588 6.17123 4.75933 5.95703C4.50277 5.74284 4.11537 5.63574 3.59713 5.63574ZM3.59156 7.82493C3.49604 7.85551 3.35011 7.8708 3.15376 7.8708H2.27818V6.75326H3.15376C3.36072 6.75326 3.51063 6.76716 3.6035 6.79496C3.69636 6.82276 3.76004 6.87558 3.79453 6.95342C3.82903 7.03126 3.84627 7.15079 3.84627 7.31203C3.84627 7.46771 3.8277 7.58447 3.79055 7.6623C3.75341 7.74014 3.68708 7.79435 3.59156 7.82493ZM3.16651 9.88235C3.3622 9.88235 3.50639 9.86782 3.59909 9.83876C3.69178 9.80969 3.75615 9.75818 3.7922 9.6842C3.82825 9.61023 3.84627 9.49398 3.84627 9.33546C3.84627 9.17166 3.82954 9.05014 3.79606 8.97088C3.76259 8.89162 3.69822 8.83746 3.60295 8.8084C3.50768 8.77934 3.3622 8.7648 3.16651 8.7648H2.27818V9.88235H3.16651ZM6.5344 5.63574V10.7764H10.3426V9.72288H7.89226V8.7067H9.96805V7.65316H7.89226V6.68928H10.3426V5.63574H6.5344ZM13.5934 10.9999C12.8501 10.9999 12.1908 10.9568 11.6155 10.8704V9.83415C12.2366 9.8951 12.761 9.92558 13.1886 9.92558C13.4381 9.92558 13.629 9.91542 13.7614 9.8951C13.8938 9.87478 13.988 9.84177 14.044 9.79605C14.0949 9.75541 14.1267 9.70588 14.1394 9.64747C14.1522 9.58905 14.1585 9.5065 14.1585 9.39983C14.1585 9.27284 14.1483 9.1814 14.128 9.12552C14.1076 9.06965 14.0669 9.03028 14.0058 9.00742C13.9447 8.98456 13.8378 8.96297 13.685 8.94265L12.7152 8.82074C12.369 8.7801 12.1055 8.69248 11.9247 8.55786C11.744 8.42325 11.6218 8.24927 11.5582 8.03592C11.4945 7.82257 11.4627 7.55589 11.4627 7.23586C11.4627 6.78376 11.5467 6.44088 11.7147 6.20721C11.8827 5.97354 12.108 5.81988 12.3906 5.74623C12.6732 5.67257 13.0334 5.63574 13.4712 5.63574C13.792 5.63574 14.086 5.64844 14.3533 5.67384C14.6205 5.69924 14.912 5.73988 15.2277 5.79575V6.80916C14.6218 6.74312 14.1254 6.71011 13.7385 6.71011C13.3312 6.71011 13.0665 6.74059 12.9443 6.80154C12.8781 6.83202 12.8361 6.8752 12.8183 6.93108C12.8004 6.98695 12.7915 7.06569 12.7915 7.16728C12.7915 7.29428 12.8004 7.38444 12.8183 7.43778C12.8361 7.49112 12.8743 7.52921 12.9328 7.55207C12.9914 7.57493 13.0945 7.59652 13.2421 7.61684L14.3571 7.75399C14.5811 7.77939 14.7656 7.82511 14.9107 7.89115C15.0558 7.95718 15.1768 8.06894 15.2735 8.22641C15.4211 8.44484 15.495 8.7928 15.495 9.2703C15.495 9.76811 15.416 10.1427 15.2582 10.3942C15.1004 10.6456 14.8891 10.8095 14.6244 10.8857C14.3596 10.9618 14.016 10.9999 13.5934 10.9999ZM17.8481 6.74159V10.7764H19.1825V6.74159H20.6473V5.63574H16.391V6.74159H17.8481ZM24.0075 5.63574H25.8644C26.6387 5.63574 27.1914 5.71171 27.5225 5.86364C27.8537 6.01557 28.06 6.25466 28.1415 6.58094C28.223 6.90722 28.2638 7.44892 28.2638 8.20608C28.2638 8.96324 28.223 9.50495 28.1415 9.83123C28.06 10.1575 27.8537 10.3966 27.5225 10.5485C27.1914 10.7005 26.6387 10.7764 25.8644 10.7764H24.0075V5.63574ZM26.628 9.80916C26.4992 9.85797 26.2404 9.88238 25.8515 9.88238H25.3515V6.75326H25.8515C26.2353 6.75326 26.4916 6.77767 26.6204 6.82648C26.7492 6.87529 26.8313 6.99475 26.8666 7.18486C26.902 7.37498 26.9196 7.75262 26.9196 8.31782C26.9196 8.88815 26.9032 9.26709 26.8704 9.45463C26.8376 9.64217 26.7568 9.76035 26.628 9.80916ZM29.8318 5.63574H31.1759V10.7764H29.8318V5.63574ZM32.6728 10.8704C33.2481 10.9568 33.9074 10.9999 34.6507 10.9999C35.0733 10.9999 35.4169 10.9618 35.6817 10.8857C35.9464 10.8095 36.1577 10.6456 36.3155 10.3942C36.4734 10.1427 36.5523 9.76811 36.5523 9.2703C36.5523 8.7928 36.4785 8.44484 36.3308 8.22641C36.2341 8.06894 36.1132 7.95718 35.9681 7.89115C35.823 7.82511 35.6384 7.77939 35.4144 7.75399L34.2994 7.61684C34.1518 7.59652 34.0487 7.57493 33.9901 7.55207C33.9316 7.52921 33.8934 7.49112 33.8756 7.43778C33.8578 7.38444 33.8488 7.29428 33.8488 7.16728C33.8488 7.06569 33.8578 6.98695 33.8756 6.93108C33.8934 6.8752 33.9354 6.83202 34.0016 6.80154C34.1238 6.74059 34.3885 6.71011 34.7958 6.71011C35.1827 6.71011 35.6791 6.74312 36.285 6.80916V5.79575C35.9693 5.73988 35.6779 5.69924 35.4106 5.67384C35.1433 5.64844 34.8493 5.63574 34.5285 5.63574C34.0907 5.63574 33.7305 5.67257 33.4479 5.74623C33.1653 5.81988 32.9401 5.97354 32.772 6.20721C32.604 6.44088 32.52 6.78376 32.52 7.23586C32.52 7.55589 32.5519 7.82257 32.6155 8.03592C32.6791 8.24927 32.8013 8.42325 32.9821 8.55786C33.1628 8.69248 33.4263 8.7801 33.7725 8.82074L34.7424 8.94265C34.8951 8.96297 35.002 8.98456 35.0631 9.00742C35.1242 9.03028 35.1649 9.06965 35.1853 9.12552C35.2057 9.1814 35.2158 9.27284 35.2158 9.39983C35.2158 9.5065 35.2095 9.58905 35.1967 9.64747C35.184 9.70588 35.1522 9.75541 35.1013 9.79605C35.0453 9.84177 34.9511 9.87478 34.8187 9.8951C34.6863 9.91542 34.4954 9.92558 34.246 9.92558C33.8183 9.92558 33.2939 9.8951 32.6728 9.83415V10.8704ZM41.4805 10.8704C41.3099 10.906 41.0953 10.9365 40.8367 10.9618C40.5782 10.9872 40.336 10.9999 40.1101 10.9999C39.4575 10.9999 38.9756 10.9187 38.6644 10.7561C38.3531 10.5936 38.1473 10.3294 38.0469 9.96368C37.9465 9.59794 37.8963 9.04933 37.8963 8.31784C37.8963 7.59652 37.9478 7.05299 38.0507 6.68725C38.1536 6.32151 38.3607 6.05482 38.6719 5.88719C38.9831 5.71956 39.4625 5.63574 40.1101 5.63574C40.336 5.63574 40.5744 5.64971 40.8254 5.67765C41.0764 5.70559 41.2848 5.73988 41.4504 5.78051V6.7863C40.9384 6.73551 40.5996 6.71011 40.4339 6.71011C40.0223 6.71011 39.7386 6.74186 39.583 6.80535C39.4274 6.86885 39.3283 7.00092 39.2856 7.20157C39.2429 7.40222 39.2216 7.77431 39.2216 8.31784C39.2216 8.86138 39.2429 9.23347 39.2856 9.43412C39.3283 9.63477 39.4274 9.76684 39.583 9.83034C39.7386 9.89383 40.0223 9.92558 40.4339 9.92558C40.8054 9.92558 41.1542 9.90018 41.4805 9.84939V10.8704ZM43.2948 10.7675C43.6025 10.9225 44.119 10.9999 44.8445 10.9999C45.5699 10.9999 46.0865 10.9225 46.3942 10.7675C46.7019 10.6126 46.8932 10.365 46.9683 10.0246C47.0433 9.68429 47.0809 9.11537 47.0809 8.31784C47.0809 7.52032 47.0433 6.9514 46.9683 6.61105C46.8932 6.27071 46.7019 6.02307 46.3942 5.86814C46.0865 5.71321 45.5699 5.63574 44.8445 5.63574C44.119 5.63574 43.6025 5.71321 43.2948 5.86814C42.9871 6.02307 42.7945 6.27071 42.7169 6.61105C42.6394 6.9514 42.6006 7.52032 42.6006 8.31784C42.6006 9.11537 42.6394 9.68429 42.7169 10.0246C42.7945 10.365 42.9871 10.6126 43.2948 10.7675ZM44.8481 9.88238C45.1664 9.88238 45.3793 9.85643 45.4871 9.80452C45.5948 9.75262 45.6633 9.63274 45.6927 9.44489C45.7221 9.25705 45.7368 8.88136 45.7368 8.31782C45.7368 7.75428 45.7221 7.37859 45.6927 7.19074C45.6633 7.0029 45.5948 6.88302 45.4871 6.83112C45.3793 6.77921 45.1664 6.75326 44.8481 6.75326C44.5298 6.75326 44.3144 6.77921 44.2017 6.83112C44.0891 6.88302 44.0181 7.00537 43.9888 7.19816C43.9594 7.39095 43.9447 7.76417 43.9447 8.31782C43.9447 8.87147 43.9594 9.24469 43.9888 9.43748C44.0181 9.63027 44.0891 9.75262 44.2017 9.80452C44.3144 9.85643 44.5298 9.88238 44.8481 9.88238ZM52.6812 8.54135V5.63574H51.3395V8.82652C51.3395 9.19133 51.3267 9.44309 51.301 9.58182C51.2753 9.72055 51.211 9.81304 51.1082 9.85928C51.0054 9.90553 50.8204 9.92865 50.5531 9.92865C50.2858 9.92865 50.1007 9.90553 49.9979 9.85928C49.8951 9.81304 49.8308 9.72055 49.8051 9.58182C49.7794 9.44309 49.7666 9.19133 49.7666 8.82652V5.63574H48.4249V8.54135C48.4249 9.25042 48.4673 9.76808 48.5521 10.0944C48.637 10.4206 48.8259 10.6531 49.1189 10.7919C49.4119 10.9306 49.8899 10.9999 50.5531 10.9999C51.2162 10.9999 51.6942 10.9306 51.9872 10.7919C52.2802 10.6531 52.4691 10.4206 52.554 10.0944C52.6388 9.76808 52.6812 9.25042 52.6812 8.54135ZM57.2289 10.7764L55.3647 7.83996H55.3255V10.7764H54.0253V5.63574H55.4274L57.1584 8.30322H57.1975V5.63574H58.5056V10.7764H57.2289ZM61.0827 6.74159V10.7764H62.4171V6.74159H63.8819V5.63574H59.6256V6.74159H61.0827Z" fill="white"/>
</svg>
