<svg width="150" height="267" viewBox="0 0 150 267" fill="none" xmlns="http://www.w3.org/2000/svg">
<g filter="url(#filter0_di)">
<path d="M12.6228 256.227L122.899 135.64C127.66 130.44 133.678 119.361 119.657 116.648C105.636 113.936 96.8457 112.836 94.2029 112.626C87.8381 111.809 78.0401 106.628 89.7667 92.4393C101.493 78.2503 123.485 51.6347 133.014 40.1005C138.013 35.366 143.881 25.1417 127.362 22.12C110.843 19.0984 84.6268 14.0388 73.5832 11.8867C70.2667 10.5453 62.3654 10.6556 57.293 21.8279C52.2205 33.0001 25.8447 89.4749 13.2908 116.316C11.0933 121.571 9.36301 132.605 20.0224 134.692C30.6817 136.779 38.8671 138.565 41.6274 139.198C46.913 139.619 56.0938 143.589 50.532 156.097C44.9701 168.605 22.9289 217.703 12.6036 240.689" stroke="#EAEF6A" stroke-width="2"/>
</g>
<defs>
<filter id="filter0_di" x="0.640076" y="0.302979" width="148.617" height="266.599" filterUnits="userSpaceOnUse" color-interpolation-filters="sRGB">
<feFlood flood-opacity="0" result="BackgroundImageFix"/>
<feColorMatrix in="SourceAlpha" type="matrix" values="0 0 0 0 0 0 0 0 0 0 0 0 0 0 0 0 0 0 127 0"/>
<feOffset/>
<feGaussianBlur stdDeviation="5"/>
<feColorMatrix type="matrix" values="0 0 0 0 0.917647 0 0 0 0 0.937255 0 0 0 0 0.415686 0 0 0 1 0"/>
<feBlend mode="normal" in2="BackgroundImageFix" result="effect1_dropShadow"/>
<feBlend mode="normal" in="SourceGraphic" in2="effect1_dropShadow" result="shape"/>
<feColorMatrix in="SourceAlpha" type="matrix" values="0 0 0 0 0 0 0 0 0 0 0 0 0 0 0 0 0 0 127 0" result="hardAlpha"/>
<feOffset dy="4"/>
<feGaussianBlur stdDeviation="2"/>
<feComposite in2="hardAlpha" operator="arithmetic" k2="-1" k3="1"/>
<feColorMatrix type="matrix" values="0 0 0 0 1 0 0 0 0 1 0 0 0 0 1 0 0 0 0.25 0"/>
<feBlend mode="normal" in2="shape" result="effect2_innerShadow"/>
</filter>
</defs>
</svg>
