<svg width="46" height="41" viewBox="0 0 46 41" fill="none" xmlns="http://www.w3.org/2000/svg">
<path fill-rule="evenodd" clip-rule="evenodd" d="M5.26975 11.8738V2.88765C5.26975 1.68505 4.88181 0 2.65467 0C0.427521 0 0 1.68505 0 2.88765V28.2337C0 29.6492 0.475197 31.1371 2.36268 31.1371C4.25016 31.1371 4.88181 29.2526 4.88181 29.2526C4.88181 29.2526 9.42982 32.718 15.0186 31.1371C20.6074 29.5562 24.4878 24.2012 24.4878 24.2012C25.3584 29.5499 33.7121 35.089 40.5674 28.8706C40.5674 28.8706 41.1433 31.1371 43.2691 31.1371C45.3948 31.1371 46 29.5544 46 28.443V2.88765C46 1.95376 45.5142 0 43.2691 0C41.0239 0 40.5674 1.84745 40.5674 2.88765V11.5259C35.2903 8.30065 29.6134 9.70881 27.2052 11.8738C24.7971 14.0388 21.6939 19.1947 21.6939 19.1947C21.6939 19.1947 20.8515 12.8168 15.837 10.5173C10.8224 8.21792 5.26975 11.8738 5.26975 11.8738ZM10.8563 27.1998C14.0306 27.1998 16.6038 24.397 16.6038 20.9395C16.6038 17.4821 14.0306 14.6792 10.8563 14.6792C7.68208 14.6792 5.10885 17.4821 5.10885 20.9395C5.10885 24.397 7.68208 27.1998 10.8563 27.1998ZM40.8709 20.9395C40.8709 24.397 38.2977 27.1998 35.1234 27.1998C31.9492 27.1998 29.376 24.397 29.376 20.9395C29.376 17.4821 31.9492 14.6792 35.1234 14.6792C38.2977 14.6792 40.8709 17.4821 40.8709 20.9395Z" fill="white"/>
<path fill-rule="evenodd" clip-rule="evenodd" d="M2.54563 37.1416H0.661011V40.8393H2.54018C2.94325 40.8393 3.23284 40.7569 3.40896 40.5921C3.58507 40.4272 3.67313 40.1818 3.67313 39.8557C3.67313 39.5727 3.62048 39.3667 3.51517 39.2377C3.40987 39.1087 3.23375 39.0173 2.98683 38.9636V38.9421C3.2156 38.8919 3.38172 38.7996 3.48521 38.6653C3.58871 38.5309 3.64045 38.333 3.64045 38.0714C3.64045 37.7597 3.54967 37.5268 3.36811 37.3727C3.18654 37.2186 2.91239 37.1416 2.54563 37.1416ZM2.54169 38.7163C2.47409 38.7383 2.37082 38.7493 2.23187 38.7493H1.61222V37.9454H2.23187C2.37833 37.9454 2.48442 37.9554 2.55014 37.9754C2.61586 37.9954 2.66093 38.0334 2.68534 38.0894C2.70975 38.1454 2.72195 38.2314 2.72195 38.3473C2.72195 38.4593 2.70881 38.5433 2.68252 38.5993C2.65623 38.6553 2.60929 38.6943 2.54169 38.7163ZM2.24089 40.1962C2.37938 40.1962 2.48142 40.1857 2.54702 40.1648C2.61262 40.1439 2.65818 40.1068 2.68369 40.0536C2.7092 40.0004 2.72195 39.9168 2.72195 39.8028C2.72195 39.685 2.71011 39.5975 2.68642 39.5405C2.66273 39.4835 2.61718 39.4446 2.54975 39.4237C2.48233 39.4028 2.37938 39.3923 2.24089 39.3923H1.61222V40.1962H2.24089ZM4.62431 37.1416V40.8393H7.31936V40.0815H5.58525V39.3505H7.05428V38.5927H5.58525V37.8994H7.31936V37.1416H4.62431ZM9.61991 41.0001C9.09386 41.0001 8.62728 40.969 8.22013 40.9069V40.1615C8.6597 40.2054 9.03081 40.2273 9.33347 40.2273C9.51001 40.2273 9.64513 40.22 9.73881 40.2054C9.83248 40.1907 9.89914 40.167 9.93877 40.1341C9.9748 40.1049 9.99732 40.0693 10.0063 40.0272C10.0153 39.9852 10.0198 39.9258 10.0198 39.8491C10.0198 39.7578 10.0126 39.692 9.99822 39.6518C9.98381 39.6116 9.95499 39.5833 9.91175 39.5668C9.86851 39.5504 9.79285 39.5349 9.68476 39.5203L8.99839 39.4326C8.75338 39.4033 8.56693 39.3403 8.43902 39.2435C8.31111 39.1467 8.22464 39.0215 8.1796 38.868C8.13456 38.7146 8.11204 38.5228 8.11204 38.2926C8.11204 37.9674 8.17149 37.7207 8.29039 37.5527C8.40929 37.3846 8.56873 37.2741 8.76869 37.2211C8.96866 37.1681 9.22357 37.1416 9.53343 37.1416C9.76042 37.1416 9.9685 37.1507 10.1577 37.169C10.3468 37.1873 10.5531 37.2165 10.7765 37.2567V37.9856C10.3477 37.9381 9.99642 37.9144 9.72259 37.9144C9.43435 37.9144 9.24699 37.9363 9.16052 37.9802C9.11368 38.0021 9.08396 38.0331 9.07135 38.0733C9.05874 38.1135 9.05243 38.1702 9.05243 38.2432C9.05243 38.3346 9.05874 38.3994 9.07135 38.4378C9.08396 38.4762 9.11098 38.5036 9.15241 38.52C9.19385 38.5365 9.26681 38.552 9.3713 38.5666L10.1604 38.6653C10.3189 38.6835 10.4495 38.7164 10.5522 38.7639C10.6549 38.8114 10.7404 38.8918 10.8089 39.0051C10.9134 39.1622 10.9656 39.4125 10.9656 39.7559C10.9656 40.114 10.9098 40.3835 10.7981 40.5643C10.6864 40.7452 10.5369 40.863 10.3495 40.9179C10.1622 40.9727 9.91896 41.0001 9.61991 41.0001ZM12.631 37.937V40.8393H13.5753V37.937H14.6119V37.1416H11.5998V37.937H12.631ZM16.9899 37.1416H18.304C18.852 37.1416 19.2431 37.1962 19.4775 37.3055C19.7118 37.4148 19.8578 37.5868 19.9155 37.8215C19.9732 38.0562 20.002 38.4458 20.002 38.9904C20.002 39.5351 19.9732 39.9247 19.9155 40.1594C19.8578 40.3941 19.7118 40.5661 19.4775 40.6754C19.2431 40.7846 18.852 40.8393 18.304 40.8393H16.9899V37.1416ZM18.8444 40.1435C18.7533 40.1786 18.5701 40.1962 18.2949 40.1962H17.9411V37.9454H18.2949C18.5665 37.9454 18.7479 37.963 18.839 37.9981C18.9302 38.0332 18.9882 38.1191 19.0133 38.2559C19.0383 38.3926 19.0508 38.6643 19.0508 39.0708C19.0508 39.481 19.0392 39.7536 19.0159 39.8885C18.9927 40.0234 18.9355 40.1084 18.8444 40.1435ZM21.1117 37.1416H22.0629V40.8393H21.1117V37.1416ZM23.1222 40.9069C23.5294 40.969 23.996 41.0001 24.522 41.0001C24.8211 41.0001 25.0643 40.9727 25.2516 40.9179C25.439 40.863 25.5885 40.7452 25.7002 40.5643C25.8119 40.3835 25.8678 40.114 25.8678 39.7559C25.8678 39.4125 25.8155 39.1622 25.711 39.0051C25.6426 38.8918 25.557 38.8114 25.4543 38.7639C25.3516 38.7164 25.221 38.6835 25.0625 38.6653L24.2734 38.5666C24.1689 38.552 24.096 38.5365 24.0545 38.52C24.0131 38.5036 23.9861 38.4762 23.9735 38.4378C23.9609 38.3994 23.9545 38.3346 23.9545 38.2432C23.9545 38.1702 23.9609 38.1135 23.9735 38.0733C23.9861 38.0331 24.0158 38.0021 24.0626 37.9802C24.1491 37.9363 24.3365 37.9144 24.6247 37.9144C24.8985 37.9144 25.2498 37.9381 25.6786 37.9856V37.2567C25.4552 37.2165 25.2489 37.1873 25.0598 37.169C24.8706 37.1507 24.6625 37.1416 24.4356 37.1416C24.1257 37.1416 23.8708 37.1681 23.6708 37.2211C23.4708 37.2741 23.3114 37.3846 23.1925 37.5527C23.0736 37.7207 23.0142 37.9674 23.0142 38.2926C23.0142 38.5228 23.0367 38.7146 23.0817 38.868C23.1268 39.0215 23.2132 39.1467 23.3411 39.2435C23.469 39.3403 23.6555 39.4033 23.9005 39.4326L24.5869 39.5203C24.695 39.5349 24.7706 39.5504 24.8139 39.5668C24.8571 39.5833 24.8859 39.6116 24.9003 39.6518C24.9148 39.692 24.922 39.7578 24.922 39.8491C24.922 39.9258 24.9175 39.9852 24.9084 40.0272C24.8994 40.0693 24.8769 40.1049 24.8409 40.1341C24.8013 40.167 24.7346 40.1907 24.6409 40.2054C24.5472 40.22 24.4121 40.2273 24.2356 40.2273C23.9329 40.2273 23.5618 40.2054 23.1222 40.1615V40.9069ZM29.3554 40.9069C29.2346 40.9325 29.0828 40.9544 28.8998 40.9727C28.7169 40.9909 28.5455 41.0001 28.3856 41.0001C27.9238 41.0001 27.5827 40.9416 27.3625 40.8247C27.1422 40.7078 26.9965 40.5178 26.9255 40.2547C26.8544 39.9916 26.8189 39.597 26.8189 39.0708C26.8189 38.552 26.8553 38.161 26.9282 37.8979C27.001 37.6349 27.1475 37.443 27.3678 37.3225C27.588 37.2019 27.9273 37.1416 28.3856 37.1416C28.5455 37.1416 28.7142 37.1516 28.8918 37.1717C29.0695 37.1918 29.2169 37.2165 29.3341 37.2457V37.9692C28.9718 37.9327 28.732 37.9144 28.6147 37.9144C28.3234 37.9144 28.1227 37.9372 28.0126 37.9829C27.9024 38.0286 27.8323 38.1236 27.8021 38.2679C27.7719 38.4122 27.7568 38.6799 27.7568 39.0708C27.7568 39.4618 27.7719 39.7294 27.8021 39.8738C27.8323 40.0181 27.9024 40.1131 28.0126 40.1588C28.1227 40.2044 28.3234 40.2273 28.6147 40.2273C28.8776 40.2273 29.1245 40.209 29.3554 40.1725V40.9069ZM30.6393 40.8329C30.8571 40.9443 31.2226 41.0001 31.736 41.0001C32.2494 41.0001 32.615 40.9443 32.8328 40.8329C33.0505 40.7215 33.1859 40.5433 33.2391 40.2985C33.2922 40.0537 33.3187 39.6445 33.3187 39.0708C33.3187 38.4972 33.2922 38.088 33.2391 37.8431C33.1859 37.5983 33.0505 37.4202 32.8328 37.3088C32.615 37.1973 32.2494 37.1416 31.736 37.1416C31.2226 37.1416 30.8571 37.1973 30.6393 37.3088C30.4216 37.4202 30.2853 37.5983 30.2304 37.8431C30.1755 38.088 30.1481 38.4972 30.1481 39.0708C30.1481 39.6445 30.1755 40.0537 30.2304 40.2985C30.2853 40.5433 30.4216 40.7215 30.6393 40.8329ZM31.7386 40.1962C31.9639 40.1962 32.1146 40.1775 32.1908 40.1402C32.2671 40.1029 32.3156 40.0166 32.3364 39.8815C32.3571 39.7464 32.3675 39.4762 32.3675 39.0708C32.3675 38.6655 32.3571 38.3952 32.3364 38.2601C32.3156 38.125 32.2671 38.0388 32.1908 38.0014C32.1146 37.9641 31.9639 37.9454 31.7386 37.9454C31.5134 37.9454 31.3609 37.9641 31.2812 38.0014C31.2015 38.0388 31.1513 38.1268 31.1305 38.2654C31.1097 38.4041 31.0993 38.6726 31.0993 39.0708C31.0993 39.469 31.1097 39.7375 31.1305 39.8762C31.1513 40.0148 31.2015 40.1029 31.2812 40.1402C31.3609 40.1775 31.5134 40.1962 31.7386 40.1962ZM37.282 39.2316V37.1416H36.3326V39.4367C36.3326 39.6991 36.3235 39.8802 36.3053 39.98C36.2871 40.0798 36.2416 40.1463 36.1688 40.1796C36.0961 40.2129 35.9651 40.2295 35.776 40.2295C35.5868 40.2295 35.4558 40.2129 35.3831 40.1796C35.3103 40.1463 35.2648 40.0798 35.2467 39.98C35.2285 39.8802 35.2194 39.6991 35.2194 39.4367V37.1416H34.2699V39.2316C34.2699 39.7416 34.2999 40.114 34.3599 40.3487C34.42 40.5834 34.5536 40.7506 34.761 40.8504C34.9684 40.9502 35.3067 41.0001 35.776 41.0001C36.2452 41.0001 36.5836 40.9502 36.7909 40.8504C36.9983 40.7506 37.132 40.5834 37.192 40.3487C37.252 40.114 37.282 39.7416 37.282 39.2316ZM40.5004 40.8393L39.1812 38.7271H39.1534V40.8393H38.2333V37.1416H39.2255L40.4505 39.0603H40.4782V37.1416H41.4039V40.8393H40.5004ZM43.2278 37.937V40.8393H44.1721V37.937H45.2087V37.1416H42.1966V37.937H43.2278Z" fill="white"/>
</svg>
