<svg width="19" height="15" viewBox="0 0 19 15" fill="none" xmlns="http://www.w3.org/2000/svg">
<path d="M0.396654 1.65618C3.00432 3.86459 7.57998 7.74986 8.92482 8.96129C9.10535 9.1248 9.29899 9.20792 9.50001 9.20792C9.70062 9.20792 9.89393 9.12558 10.0741 8.96285C11.42 7.75023 15.9957 3.86459 18.6034 1.65618C18.7658 1.51895 18.7905 1.27774 18.6591 1.10997C18.3552 0.722285 17.9022 0.5 17.4167 0.5H1.58337C1.09787 0.5 0.644804 0.722285 0.34099 1.11C0.209549 1.27774 0.234301 1.51895 0.396654 1.65618Z" fill="white"/>
<path d="M18.7703 2.85282C18.63 2.78751 18.465 2.81029 18.3482 2.91004C16.6404 4.35768 14.3903 6.27037 12.6933 7.72999C12.604 7.80654 12.5538 7.91902 12.5557 8.03692C12.5576 8.15444 12.6122 8.26536 12.7042 8.3388C14.2809 9.60167 16.6571 11.3389 18.373 12.5735C18.4414 12.623 18.5226 12.6481 18.6041 12.6481C18.666 12.6481 18.7278 12.6338 18.7847 12.6044C18.9169 12.5368 19 12.4007 19 12.2523V3.21193C18.9999 3.0577 18.9102 2.91739 18.7703 2.85282Z" fill="white"/>
<path d="M0.626999 12.5737C2.3433 11.339 4.71986 9.60185 6.29622 8.33895C6.38822 8.26551 6.44273 8.15455 6.44466 8.03706C6.44659 7.91917 6.39635 7.80669 6.30706 7.73013C4.61005 6.27051 2.35952 4.35782 0.651751 2.91019C0.534226 2.81044 0.368792 2.78843 0.229632 2.85297C0.0896932 2.91754 0 3.05785 0 3.21207V12.2525C0 12.4009 0.0831248 12.537 0.215308 12.6046C0.272123 12.634 0.333984 12.6483 0.395845 12.6483C0.477411 12.6483 0.558569 12.6232 0.626999 12.5737Z" fill="white"/>
<path d="M18.5148 13.6505C16.8577 12.4649 13.805 10.2546 11.9828 8.77562C11.8344 8.65465 11.6194 8.65851 11.4733 8.78453C11.1158 9.09647 10.8166 9.35935 10.6044 9.55028C9.9526 10.1386 9.04806 10.1386 8.39479 9.5495C8.18334 9.35894 7.88416 9.09528 7.52658 8.78449C7.38163 8.65769 7.16632 8.65383 7.01748 8.77559C5.20142 10.2495 2.14532 12.4625 0.485459 13.6504C0.393057 13.7169 0.333533 13.8194 0.321955 13.9326C0.310748 14.0459 0.348229 14.1584 0.425935 14.2419C0.725556 14.5647 1.14767 14.7498 1.58334 14.7498H17.4167C17.8523 14.7498 18.274 14.5647 18.5744 14.2419C18.6517 14.1588 18.6896 14.0463 18.6784 13.933C18.6668 13.8198 18.6072 13.717 18.5148 13.6505Z" fill="white"/>
</svg>
