<svg width="39" height="39" viewBox="0 0 39 39" fill="none" xmlns="http://www.w3.org/2000/svg">
<path d="M39 19.5C39 8.73094 30.2691 0 19.5 0C8.73094 0 0 8.73094 0 19.5C0 30.2691 8.73094 39 19.5 39C30.2691 39 39 30.2691 39 19.5ZM19.0641 28.065C18.9242 27.9263 18.813 27.7613 18.7369 27.5796C18.6607 27.3979 18.6212 27.203 18.6204 27.006C18.6196 26.809 18.6576 26.6137 18.7323 26.4314C18.807 26.2491 18.9169 26.0833 19.0556 25.9434L23.9606 21H11.4375C11.0397 21 10.6581 20.842 10.3768 20.5607C10.0955 20.2794 9.9375 19.8978 9.9375 19.5C9.9375 19.1022 10.0955 18.7206 10.3768 18.4393C10.6581 18.158 11.0397 18 11.4375 18H23.9606L19.0556 13.0566C18.9169 12.9166 18.8071 12.7506 18.7324 12.5682C18.6578 12.3858 18.6199 12.1905 18.6207 11.9934C18.6216 11.7963 18.6613 11.6013 18.7375 11.4195C18.8137 11.2378 18.925 11.0728 19.065 10.9341C19.205 10.7953 19.3709 10.6855 19.5533 10.6109C19.7358 10.5363 19.9311 10.4983 20.1282 10.4992C20.5262 10.5009 20.9073 10.6607 21.1875 10.9434L28.6303 18.4434C28.9091 18.7244 29.0656 19.1042 29.0656 19.5C29.0656 19.8958 28.9091 20.2756 28.6303 20.5566L21.1875 28.0566C21.0487 28.1967 20.8837 28.3081 20.7018 28.3844C20.5199 28.4607 20.3248 28.5004 20.1275 28.5012C19.9303 28.502 19.7348 28.4638 19.5524 28.389C19.3699 28.3142 19.2039 28.2041 19.0641 28.065Z" fill="white"/>
</svg>
