<svg width="39" height="39" viewBox="0 0 39 39" fill="none" xmlns="http://www.w3.org/2000/svg">
<path d="M0 19.5C0 30.2691 8.73094 39 19.5 39C30.2691 39 39 30.2691 39 19.5C39 8.73094 30.2691 0 19.5 0C8.73094 0 0 8.73094 0 19.5ZM19.9359 10.935C20.0758 11.0737 20.187 11.2387 20.2631 11.4204C20.3393 11.6021 20.3788 11.797 20.3796 11.994C20.3804 12.191 20.3424 12.3863 20.2677 12.5686C20.193 12.7509 20.0831 12.9167 19.9444 13.0566L15.0394 18L27.5625 18C27.9603 18 28.3419 18.158 28.6232 18.4393C28.9045 18.7206 29.0625 19.1022 29.0625 19.5C29.0625 19.8978 28.9045 20.2794 28.6232 20.5607C28.3419 20.842 27.9603 21 27.5625 21L15.0394 21L19.9444 25.9434C20.0831 26.0834 20.1929 26.2494 20.2676 26.4318C20.3422 26.6142 20.3801 26.8095 20.3793 27.0066C20.3784 27.2037 20.3387 27.3987 20.2625 27.5805C20.1863 27.7622 20.075 27.9272 19.935 28.0659C19.795 28.2047 19.6291 28.3145 19.4467 28.3891C19.2642 28.4637 19.0689 28.5017 18.8718 28.5008C18.4738 28.4991 18.0927 28.3393 17.8125 28.0566L10.3697 20.5566C10.0909 20.2756 9.93443 19.8958 9.93443 19.5C9.93443 19.1042 10.0909 18.7244 10.3697 18.4434L17.8125 10.9434C17.9513 10.8033 18.1163 10.6919 18.2982 10.6156C18.4801 10.5393 18.6752 10.4996 18.8725 10.4988C19.0697 10.498 19.2652 10.5362 19.4476 10.611C19.6301 10.6858 19.7961 10.7959 19.9359 10.935V10.935Z" fill="white"/>
</svg>
