<svg width="30" height="17" viewBox="0 0 30 17" fill="none" xmlns="http://www.w3.org/2000/svg">
<path fill-rule="evenodd" clip-rule="evenodd" d="M14.6778 16.9288H16.471C16.471 16.9288 17.0127 16.8698 17.2892 16.5736C17.5438 16.3018 17.5356 15.7912 17.5356 15.7912C17.5356 15.7912 17.5006 13.4012 18.6174 13.0492C19.7182 12.7025 21.1318 15.3592 22.6302 16.3807C23.7632 17.1538 24.6242 16.9842 24.6242 16.9842L28.6305 16.9288C28.6305 16.9288 30.7263 16.8006 29.7326 15.1638C29.6511 15.0299 29.1539 13.953 26.7538 11.7401C24.2418 9.42411 24.5782 9.79871 27.6042 5.7925C29.4471 3.35269 30.1838 1.86315 29.9537 1.22519C29.7342 0.617558 28.3788 0.778163 28.3788 0.778163L23.8679 0.806076C23.8679 0.806076 23.5335 0.760767 23.2855 0.908021C23.0432 1.05244 22.8872 1.38903 22.8872 1.38903C22.8872 1.38903 22.1732 3.27704 21.221 4.88268C19.2124 8.27075 18.4092 8.44956 18.081 8.23919C17.3173 7.74888 17.5079 6.26946 17.5079 5.21845C17.5079 1.93516 18.0093 0.566182 16.5317 0.2118C16.0414 0.0940775 15.6805 0.0164048 14.4265 0.00386392C12.817 -0.0127224 11.4547 0.00871793 10.6833 0.384136C10.1701 0.63374 9.77428 1.18999 10.0154 1.22195C10.3135 1.26159 10.9888 1.40278 11.3468 1.88702C11.809 2.51164 11.7927 3.9146 11.7927 3.9146C11.7927 3.9146 12.0583 7.77963 11.1724 8.25982C10.5644 8.58912 9.7303 7.91677 7.93953 4.84303C7.02194 3.26854 6.32918 1.52819 6.32918 1.52819C6.32918 1.52819 6.19559 1.20293 5.95734 1.02898C5.66818 0.818212 5.26416 0.751059 5.26416 0.751059L0.97764 0.778971C0.97764 0.778971 0.334153 0.796773 0.0979356 1.0747C-0.112216 1.32187 0.0812373 1.83322 0.0812373 1.83322C0.0812373 1.83322 3.43715 9.63204 7.23698 13.5622C10.7212 17.1655 14.6778 16.9288 14.6778 16.9288Z" fill="white"/>
</svg>
