<svg width="21" height="16" viewBox="0 0 21 16" fill="none" xmlns="http://www.w3.org/2000/svg">
<path d="M20.1815 1.65588C19.4234 0.754775 18.0239 0.387207 15.3511 0.387207H5.64873C2.91473 0.387207 1.49147 0.778485 0.736287 1.73785C0 2.67323 0 4.05144 0 5.95891V9.59456C0 13.2899 0.8736 15.1662 5.64873 15.1662H15.3511C17.669 15.1662 18.9534 14.8418 19.7843 14.0466C20.6364 13.2311 21 11.8997 21 9.59456V5.95891C21 3.94732 20.943 2.56098 20.1815 1.65588ZM13.4821 8.27867L9.07627 10.5813C8.97777 10.6328 8.87006 10.6583 8.76249 10.6583C8.64069 10.6583 8.51916 10.6255 8.41152 10.5604C8.20883 10.4375 8.08507 10.2178 8.08507 9.98089V5.39042C8.08507 5.15387 8.20849 4.93438 8.41077 4.8115C8.61312 4.68862 8.86478 4.68022 9.07471 4.78928L13.4805 7.07706C13.7047 7.19344 13.8454 7.42485 13.8458 7.67732C13.846 7.93 13.7059 8.16175 13.4821 8.27867Z" fill="white"/>
</svg>
