<svg width="16" height="16" viewBox="0 0 16 16" fill="none" xmlns="http://www.w3.org/2000/svg">
<path d="M15.0212 12.5679C14.9637 12.568 14.9068 12.5567 14.8537 12.5347C14.8005 12.5127 14.7523 12.4805 14.7116 12.4398C14.671 12.3991 14.6387 12.3509 14.6167 12.2977C14.5947 12.2446 14.5834 12.1877 14.5835 12.1302L14.5835 2.04973L1.71877 14.9144C1.63672 14.9965 1.52544 15.0426 1.40941 15.0426C1.29338 15.0426 1.1821 14.9965 1.10005 14.9144C1.018 14.8324 0.971909 14.7211 0.971908 14.6051C0.97191 14.489 1.018 14.3778 1.10005 14.2957L13.9648 1.43101L3.88428 1.43101C3.8268 1.43101 3.76988 1.41968 3.71677 1.39769C3.66366 1.37569 3.6154 1.34344 3.57475 1.30279C3.5341 1.26215 3.50186 1.21389 3.47986 1.16078C3.45786 1.10767 3.44654 1.05075 3.44654 0.993264C3.44654 0.935778 3.45786 0.878855 3.47986 0.825746C3.50186 0.772637 3.5341 0.72438 3.57475 0.683732C3.6154 0.643084 3.66366 0.61084 3.71677 0.588841C3.76988 0.566843 3.8268 0.55552 3.88428 0.55552L15.0212 0.55552C15.0787 0.555488 15.1356 0.566789 15.1888 0.588776C15.2419 0.610764 15.2902 0.643007 15.3308 0.683662C15.3715 0.724316 15.4037 0.772585 15.4257 0.82571C15.4477 0.878834 15.459 0.93577 15.459 0.993264L15.459 12.1302C15.459 12.1877 15.4477 12.2446 15.4257 12.2978C15.4037 12.3509 15.3715 12.3991 15.3308 12.4398C15.2902 12.4805 15.2419 12.5127 15.1888 12.5347C15.1356 12.5567 15.0787 12.568 15.0212 12.5679Z" fill="#D9D9D9"/>
</svg>
