<svg width="24" height="24" viewBox="0 0 24 24" fill="none" xmlns="http://www.w3.org/2000/svg">
<rect x="1" y="1" width="22" height="22" rx="5.5" stroke="#3CCDC9" stroke-width="1.1"/>
<path d="M8.2123 14.8107L6.68024 16.3428M14.9151 11.9381C13.8344 13.1033 12.1091 14.0445 11.1706 14.5046C10.7748 14.6986 10.3065 14.6068 9.99477 14.2951L8.72789 13.0282C8.41617 12.7165 8.32437 12.2482 8.51843 11.8523C8.97849 10.9139 9.91968 9.18864 11.0849 8.10793C12.3838 6.90329 14.4407 6.45521 15.7089 6.28936C16.3185 6.20963 16.8134 6.70451 16.7336 7.31411C16.5678 8.58225 16.1197 10.6392 14.9151 11.9381Z" stroke="#808080" stroke-width="0.8125" stroke-linecap="round"/>
<path d="M8.49887 15.0971C8.65752 14.9384 8.65752 14.6812 8.49887 14.5225C8.34022 14.3639 8.083 14.3639 7.92435 14.5225L8.49887 15.0971ZM6.39228 16.0546C6.23363 16.2133 6.23363 16.4705 6.39228 16.6291C6.55093 16.7878 6.80816 16.7878 6.96681 16.6291L6.39228 16.0546ZM10.7395 16.4185L11.1417 16.361L10.7395 16.4185ZM13.5355 14.5417L13.9377 14.4842L13.5355 14.5417ZM6.60293 12.2819L6.66038 11.8797L6.66038 11.8797L6.60293 12.2819ZM8.47971 9.48588L8.42226 9.88805L8.42226 9.88805L8.47971 9.48588ZM7.92435 14.5225L6.39228 16.0546L6.96681 16.6291L8.49887 15.0971L7.92435 14.5225ZM13.0951 14.714L11.3715 16.4376L11.946 17.0121L13.6696 15.2886L13.0951 14.714ZM11.1417 16.361L10.9119 14.7523L10.1075 14.8673L10.3373 16.4759L11.1417 16.361ZM12.9802 13.5267L13.1334 14.5991L13.9377 14.4842L13.7845 13.4118L12.9802 13.5267ZM11.3715 16.4376C11.2926 16.5165 11.1575 16.4715 11.1417 16.361L10.3373 16.4759C10.4478 17.2492 11.3937 17.5645 11.946 17.0121L11.3715 16.4376ZM13.6696 15.2886C13.8806 15.0776 13.9799 14.7796 13.9377 14.4842L13.1334 14.5991C13.1394 14.6413 13.1252 14.6839 13.0951 14.714L13.6696 15.2886ZM7.73283 9.35183L6.00925 11.0754L6.58378 11.6499L8.30735 9.92635L7.73283 9.35183ZM6.54548 12.6841L8.15414 12.9139L8.26905 12.1095L6.66038 11.8797L6.54548 12.6841ZM9.60961 9.23692L8.53716 9.08372L8.42226 9.88805L9.4947 10.0413L9.60961 9.23692ZM6.00925 11.0754C5.45691 11.6277 5.7722 12.5736 6.54548 12.6841L6.66038 11.8797C6.54991 11.864 6.50487 11.7288 6.58378 11.6499L6.00925 11.0754ZM8.30735 9.92635C8.33749 9.89621 8.38006 9.88202 8.42226 9.88805L8.53716 9.08372C8.2418 9.04152 7.9438 9.14085 7.73283 9.35183L8.30735 9.92635Z" fill="#808080"/>
<path opacity="0.3" d="M7.06348 13.6621L6.29744 14.4281M9.36157 15.9602L8.59554 16.7262" stroke="#808080" stroke-width="0.8125" stroke-linecap="round"/>
<path opacity="0.3" d="M9.16895 10.7891L12.2331 13.8532" stroke="#808080" stroke-width="0.8125" stroke-linecap="round"/>
<path d="M12.4254 10.5969C12.0023 10.1739 12.0023 9.48793 12.4254 9.06486C12.8484 8.64179 13.5344 8.64179 13.9574 9.06486C14.3805 9.48793 14.3805 10.1739 13.9574 10.5969C13.5344 11.02 12.8484 11.02 12.4254 10.5969Z" stroke="#808080" stroke-width="0.8125"/>
</svg>
