<svg width="24" height="24" viewBox="0 0 24 24" fill="none" xmlns="http://www.w3.org/2000/svg">
<rect x="1" y="1" width="22" height="22" rx="5.5" stroke="#3CCDC9" stroke-width="1.1"/>
<path d="M16.6673 11.0003C16.6673 11.9208 14.578 12.667 12.0007 12.667C9.42332 12.667 7.33398 11.9208 7.33398 11.0003M16.6673 8.33366C16.6673 7.41318 14.578 6.66699 12.0007 6.66699C9.42332 6.66699 7.33398 7.41318 7.33398 8.33366V16.3337C7.33398 17.2541 9.42332 18.0003 12.0007 18.0003C14.578 18.0003 16.6673 17.2541 16.6673 16.3337V8.33366Z" stroke="#808080" stroke-width="1.04" stroke-linecap="round" stroke-linejoin="round"/>
<path d="M16.6673 8.33398C16.6673 9.25446 14.578 10.0007 12.0007 10.0007C9.42332 10.0007 7.33398 9.25446 7.33398 8.33398M16.6673 13.6673C16.6673 14.5878 14.578 15.334 12.0007 15.334C9.42332 15.334 7.33398 14.5878 7.33398 13.6673" stroke="#808080" stroke-width="1.04" stroke-linecap="round" stroke-linejoin="round"/>
</svg>
