<?xml version="1.0" encoding="utf-8"?>
<!-- Generator: Adobe Illustrator 26.0.3, SVG Export Plug-In . SVG Version: 6.00 Build 0)  -->
<svg version="1.1" id="Слой_1" xmlns="http://www.w3.org/2000/svg" xmlns:xlink="http://www.w3.org/1999/xlink" x="0px" y="0px"
	 viewBox="0 0 841.89 284.87" style="enable-background:new 0 0 841.89 284.87;" xml:space="preserve">
<style type="text/css">
	.st0{fill:#292D32;}
	.st1{fill:#E09F38;}
</style>
<g>
	<g>
		<path class="st0" d="M117.95,117.52h32.65c9.04,0,16.73,3.17,23.07,9.52c6.42,6.38,9.63,14.08,9.63,23.07
			c0,9.08-3.21,16.73-9.63,22.96c-6.42,6.35-14.12,9.52-23.07,9.52h-13.96v27.92h-18.69V117.52z M160.46,140.25
			c-2.77-2.81-6.06-4.21-9.86-4.21h-13.96v28.04l13.96,0.06c3.81,0,7.1-1.38,9.86-4.15c2.77-2.77,4.15-6.06,4.15-9.87
			C164.62,146.31,163.23,143.02,160.46,140.25z"/>
		<path class="st0" d="M191.39,117.52h18.69v93h-18.69V117.52z"/>
		<path class="st0" d="M282.65,117.52v18.52h-22.85v74.48h-18.75v-74.48h-22.9v-18.52H282.65z"/>
		<path class="st0" d="M351.76,117.52v18.52h-22.85v74.48h-18.75v-74.48h-22.9v-18.52H351.76z"/>
		<path class="st0" d="M385.74,192.23c2.69,0,5.15-0.94,7.38-2.83c2.31-1.92,3.46-4.13,3.46-6.63c0-3.61-2.15-6.38-6.46-8.31
			c-1.42-0.65-3.36-1.33-5.83-2.02l-1.5-0.4l-1.38-0.41c-1.08-0.27-1.96-0.52-2.65-0.75c-6.08-2.08-11.04-5.29-14.88-9.63
			c-4.31-4.81-6.46-10.21-6.46-16.21c0-7.85,2.79-14.54,8.36-20.08c5.54-5.5,12.23-8.25,20.08-8.25c7.12,0,13.33,2.35,18.63,7.04
			c5.31,4.62,8.44,10.41,9.4,17.37l-18.58,3.92c0-2.58-0.92-4.79-2.77-6.64c-1.85-1.85-4.04-2.77-6.58-2.77
			c-2.62,0-4.85,0.92-6.69,2.77c-1.89,1.89-2.83,4.12-2.83,6.69c0,3.62,2.04,6.5,6.11,8.65c1.5,0.81,3.36,1.56,5.6,2.25
			c0.73,0.23,1.65,0.52,2.77,0.86l1.33,0.35l1.27,0.4c6.31,1.81,11.46,4.83,15.46,9.06c4.42,4.65,6.63,10.06,6.63,16.21
			c0,7.73-3,14.4-9,20.02c-5.88,5.54-12.79,8.31-20.71,8.31c-7.23,0-13.69-2.33-19.38-6.98c-5.69-4.69-9.08-10.5-10.15-17.42
			l18.58-3.92c0,2.5,1.15,4.71,3.46,6.64c2.23,1.85,4.71,2.77,7.44,2.77L385.74,192.23z"/>
		<path class="st1" d="M474.24,149.94c-0.73,2.12-1.6,4.08-2.6,5.88c1.27,0.62,2.52,1.33,3.75,2.14c1.46,0.96,2.6,1.83,3.4,2.6
			c5.65,5.73,8.48,12.61,8.48,20.65c0,8.08-2.83,14.96-8.48,20.65c-5.66,5.77-12.5,8.65-20.54,8.65H423.7v-93h25.96
			c7.19,0,13.35,2.58,18.46,7.73c4.92,5,7.39,10.9,7.39,17.71C475.51,145,475.08,147.33,474.24,149.94z M455.2,138.06
			c-1.54-1.58-3.38-2.37-5.54-2.37h-7.33v17.02c1.65-0.07,3.98-0.23,6.98-0.46c2.31-0.27,4.23-1.17,5.77-2.71
			c1.61-1.58,2.42-3.52,2.42-5.83C457.51,141.56,456.74,139.67,455.2,138.06z M458.26,192.28c3,0,5.56-1.1,7.67-3.29
			c2.08-2.15,3.11-4.75,3.11-7.79c0-3.04-1.08-5.67-3.23-7.9c-2.12-2.15-4.63-3.32-7.56-3.52c-2.23-0.11-4.89-0.15-7.96-0.11h-3.87
			c-1.65,0.04-3.02,0.06-4.1,0.06v22.56H458.26z"/>
		<path class="st1" d="M546.18,186.92c3.73-3.73,5.59-8.12,5.59-13.16v-56.25h18.81v56.31c0,10.39-3.67,19.25-11.02,26.6
			c-7.38,7.31-16.23,10.96-26.54,10.96c-10.42,0-19.31-3.65-26.65-10.96c-7.35-7.34-11.02-16.21-11.02-26.6v-56.31h18.81v56.25
			c0,5.08,1.87,9.46,5.6,13.16c3.69,3.69,8.09,5.54,13.21,5.54C538.04,192.46,542.45,190.61,546.18,186.92z"/>
		<path class="st1" d="M582.12,117.52h30.34c9.84,0,17.96,3.15,24.34,9.46c3.12,3.12,5.33,6.06,6.64,8.83
			c1.58,3.39,2.36,7.48,2.36,12.29v2.42c0,6.27-1.96,12.17-5.89,17.71c-2.81,3.92-6.52,6.79-11.13,8.6l21.63,33.69h-22.85
			l-26.71-41.13v41.13h-18.69L582.12,117.52z M614.25,161.77c3.38,0,6.29-1.29,8.71-3.87c2.39-2.58,3.58-5.66,3.58-9.23
			c0-3.38-1.23-6.36-3.69-8.94c-2.54-2.46-6.38-3.69-11.54-3.69h-10.5v25.67h7.21v0.06H614.25z"/>
		<path class="st1" d="M702.17,116.94c12.92,0,24.06,4.59,33.4,13.79l-13.33,13.33c-5.65-5.58-12.31-8.36-19.96-8.36
			c-7.81,0-14.46,2.79-19.96,8.36c-5.54,5.54-8.31,12.21-8.31,20.02c0,7.81,2.77,14.48,8.31,20.02c5.46,5.54,12.12,8.31,19.96,8.31
			c5.77,0,11.02-1.62,15.75-4.85c4.35-2.96,7.6-6.77,9.75-11.42h-26.54v-17.83h47.77c1.23,15.88-3.29,28.92-13.56,39.11
			c-9.27,9.19-20.38,13.79-33.35,13.79c-13.08,0-24.17-4.59-33.28-13.79c-9.23-9.15-13.85-20.27-13.85-33.35
			c0-12.96,4.62-24.1,13.85-33.4c9.15-9.27,20.25-13.9,33.28-13.9L702.17,116.94z"/>
		<path class="st1" d="M775.9,117.52v37.21h31.09v-37.21h18.63v93h-18.63v-37.27H775.9v37.27h-18.63v-93H775.9z"/>
	</g>
</g>
<g>
	<g>
		<path class="st0" d="M193.56,231.39v18.84h15.75v-18.84h9.43v47.09h-9.43v-18.87h-15.75v18.87h-9.43v-47.09H193.56z"/>
		<path class="st0" d="M275.57,238.05c4.69,4.7,7.04,10.33,7.04,16.92c0,6.6-2.35,12.23-7.04,16.88c-4.67,4.64-10.3,6.95-16.88,6.95
			c-6.6-0.02-12.23-2.34-16.89-6.95c-4.67-4.67-7.01-10.3-7.01-16.88c0-6.56,2.34-12.2,7.01-16.92c4.69-4.69,10.32-7.04,16.89-7.04
			C265.25,231.02,270.88,233.36,275.57,238.05z M248.55,244.77c-2.8,2.84-4.21,6.22-4.21,10.14c0,3.96,1.4,7.34,4.21,10.14
			c2.78,2.78,6.17,4.18,10.14,4.18c3.91,0,7.28-1.39,10.11-4.18c2.82-2.79,4.24-6.17,4.24-10.14c0-3.93-1.41-7.31-4.24-10.14
			c-2.8-2.81-6.17-4.2-10.11-4.2C254.7,240.57,251.32,241.97,248.55,244.77z"/>
		<path class="st0" d="M321.69,261.92l23.05-31.64v48.2h-9.46v-19.51l-13.58,18.75l-13.61-18.75v19.51h-9.46v-48.2L321.69,261.92z"
			/>
		<path class="st0" d="M390.94,231.28v9.44h-18.93v9.49h14.2v9.44h-14.2v9.49h18.93v9.41h-28.39v-47.27H390.94z"/>
		<path class="st0" d="M436.48,231.39h15.36c4.99,0,9.09,1.6,12.33,4.79c1.58,1.58,2.7,3.07,3.36,4.47c0.8,1.71,1.2,3.79,1.2,6.23
			v1.23c0,3.17-0.99,6.16-2.98,8.97c-1.42,1.99-3.3,3.44-5.64,4.35l10.95,17.06H459.5l-13.53-20.83v20.83h-9.46L436.48,231.39z
			 M452.76,253.8c1.71,0,3.18-0.65,4.41-1.96c1.21-1.3,1.81-2.86,1.81-4.67c0-1.71-0.62-3.22-1.87-4.52
			c-1.29-1.25-3.23-1.87-5.84-1.87h-5.31v13h3.65v0.03H452.76z"/>
		<path class="st0" d="M515.49,231.28v9.44h-18.93v9.49h14.2v9.44h-14.2v9.49h18.93v9.41H487.1v-47.27H515.49z"/>
		<path class="st0" d="M559.91,257.42v-26.14h9.49v48.17l-28.39-27.05v26.15h-9.46V230.4L559.91,257.42z"/>
		<path class="st0" d="M618.12,231.39v9.38h-11.57v37.71h-9.49v-37.71h-11.6v-9.38H618.12z"/>
		<path class="st0" d="M646.58,230.43l21.5,48.06h-10.25l-3.19-7.16h-16.12l-3.19,7.16h-10.22L646.58,230.43z M650.91,262.97
			l-4.29-9.96l-4.35,9.96H650.91z"/>
		<path class="st0" d="M693.6,231.39v37.69h18.93v9.4h-28.39v-47.09H693.6z"/>
		<path class="st0" d="M767.54,231.39v37.69h18.93v9.4h-28.39v-47.09H767.54z"/>
		<path class="st0" d="M821.72,278.81c-6.58-0.02-12.2-2.34-16.86-6.95c-4.67-4.67-7.01-10.3-7.01-16.88
			c0-6.56,2.34-12.2,7.01-16.92c4.69-4.69,10.31-7.04,16.86-7.04l-0.03,0.12c6.46,0,12.11,2.33,16.94,6.98l-6.75,6.75
			c-2.84-2.81-6.22-4.21-10.14-4.21c-3.97,0-7.34,1.4-10.11,4.21c-2.81,2.84-4.21,6.22-4.21,10.14c0,3.96,1.4,7.34,4.21,10.14
			c2.78,2.79,6.15,4.18,10.11,4.18c3.97,0,7.36-1.4,10.17-4.21l6.75,6.75C833.99,276.49,828.34,278.81,821.72,278.81z"/>
	</g>
</g>
<polygon class="st1" points="228.22,108.65 142.47,52.53 3.23,145.13 3.23,278.49 28,278.49 28,156.91 142.47,81.37 183.55,108.65 
	"/>
<g>
	<g>
		<g>
			<polygon class="st0" points="142.47,5.42 3.23,99.93 3.23,130.13 142.47,35.88 257.06,111.42 299.09,111.42 			"/>
		</g>
	</g>
</g>
<rect x="39.78" y="251.09" class="st1" width="133.41" height="27.39"/>
</svg>
