<?xml version="1.0" standalone="no"?>
<!DOCTYPE svg PUBLIC "-//W3C//DTD SVG 20010904//EN"
 "http://www.w3.org/TR/2001/REC-SVG-20010904/DTD/svg10.dtd">
<svg version="1.0" xmlns="http://www.w3.org/2000/svg"
 width="120.000000pt" height="120.000000pt" viewBox="0 0 120.000000 120.000000"
 preserveAspectRatio="xMidYMid meet">
<metadata>
Created by potrace 1.14, written by Peter Selinger 2001-2017
</metadata>
<g transform="translate(0.000000,120.000000) scale(0.100000,-0.100000)"
fill="#000000" stroke="none">
<path d="M0 600 l0 -600 600 0 600 0 0 600 0 600 -600 0 -600 0 0 -600z m1130
135 c0 -8 -6 -15 -13 -15 -8 0 -13 -8 -13 -17 0 -10 -3 -46 -8 -80 -12 -91
-30 -81 -22 12 4 41 3 75 -1 75 -21 -1 -31 -21 -47 -92 -19 -87 -42 -119 -31
-44 6 36 4 46 -6 46 -26 -1 -52 -28 -46 -49 3 -11 -1 -25 -8 -31 -10 -8 -14
-2 -17 27 -6 46 14 139 27 134 6 -1 9 -6 9 -10 -1 -3 -4 -20 -7 -37 -6 -29 -4
-30 24 -26 34 5 40 16 48 83 1 4 11 10 24 14 12 5 31 11 42 15 32 13 45 11 45
-5z m-263 -42 c-4 -3 -2 -12 4 -19 14 -17 14 -133 0 -147 -8 -8 -11 -2 -11 21
0 36 0 36 -34 21 -15 -7 -28 -23 -31 -40 -4 -16 -11 -31 -16 -34 -12 -8 -6 69
7 86 6 8 16 29 23 48 12 38 38 71 54 71 6 0 7 -3 4 -7z m-102 -40 c-10 -16
-27 -38 -38 -50 -19 -21 -19 -24 -3 -47 11 -18 21 -23 34 -19 15 6 15 5 3 -10
-18 -22 -30 -21 -58 5 l-23 21 0 -21 c0 -11 -4 -24 -10 -27 -6 -4 -10 9 -9 32
1 61 13 116 27 121 10 3 12 -5 6 -34 -6 -35 -5 -38 9 -26 8 7 23 28 32 47 9
19 23 35 32 35 13 0 13 -3 -2 -27z m-130 -63 c-22 -24 -47 -27 -38 -4 3 8 11
13 18 10 8 -3 16 2 19 11 4 9 9 13 13 9 3 -3 -2 -15 -12 -26z m-60 -62 l-6
-33 24 29 c24 28 25 28 36 8 11 -21 0 -39 -18 -28 -5 3 -14 -1 -21 -9 -16 -19
-27 -19 -45 -1 -12 12 -12 18 6 40 27 34 32 33 24 -6z m-195 -4 c-13 -34 -13
-39 4 -25 12 10 17 8 26 -8 9 -18 8 -21 -9 -21 -14 0 -24 -13 -37 -50 -10 -27
-22 -50 -26 -50 -15 0 -1 114 18 147 23 39 38 44 24 7z m140 -13 c0 -40 -71
-69 -84 -34 -4 10 3 26 19 43 33 34 65 30 65 -9z m-260 -27 c0 -13 3 -14 13
-5 11 8 18 6 32 -9 21 -24 13 -39 -11 -19 -14 11 -19 10 -34 -9 -22 -26 -30
-28 -30 -5 0 14 -3 13 -23 -5 -28 -26 -39 -28 -30 -5 4 11 3 14 -5 9 -22 -13
-12 10 13 34 23 22 25 22 25 5 0 -18 1 -17 16 3 18 26 34 29 34 6z m-145 -34
c-33 -35 -27 -50 10 -26 31 20 33 11 3 -15 -28 -23 -57 -24 -65 -3 -7 18 43
74 66 74 10 0 6 -9 -14 -30z"/>
<path d="M832 620 c-10 -28 -9 -31 6 -28 19 4 29 35 14 50 -6 6 -13 -2 -20
-22z"/>
<path d="M480 505 c-7 -9 -11 -18 -8 -20 3 -3 11 1 18 10 7 9 11 18 8 20 -3 3
-11 -1 -18 -10z"/>
</g>
</svg>
