<svg width="32" height="32" viewBox="0 0 32 32" fill="none" xmlns="http://www.w3.org/2000/svg">
<path d="M29.9688 12.9188L29.2281 11.625C29.1948 11.568 29.1403 11.5265 29.0765 11.5095C29.0127 11.4925 28.9447 11.5015 28.8875 11.5344L27.3031 12.4594L24.8563 5.70317C24.7271 5.30003 24.4731 4.94837 24.131 4.69898C23.789 4.44958 23.3765 4.31536 22.9531 4.31567H9.41251C8.32813 4.31567 7.36563 5.01567 7.03126 6.05005L4.70001 12.4625L3.11251 11.5375C3.05527 11.5046 2.98732 11.4956 2.9235 11.5126C2.85968 11.5296 2.80518 11.5711 2.77188 11.6282L2.03126 12.9188C1.96251 13.0375 2.00313 13.1875 2.12188 13.2563L4.00938 14.3563L3.55626 15.6063C3.51876 15.7063 3.50001 15.8125 3.50001 15.9188V26.8C3.50001 27.2907 3.86876 27.6875 4.32188 27.6875H6.43438C6.81876 27.6875 7.15313 27.3969 7.23438 26.9907L7.47501 25.8125H24.525L24.7656 26.9907C24.85 27.3969 25.1813 27.6875 25.5656 27.6875H27.6781C28.1313 27.6875 28.5 27.2907 28.5 26.8V15.9188C28.5 15.8125 28.4813 15.7063 28.4438 15.6063L27.9906 14.3563L29.875 13.2563C29.9317 13.2235 29.9733 13.1698 29.9909 13.1067C30.0084 13.0436 30.0005 12.9761 29.9688 12.9188ZM8.25001 19.4063C7.55938 19.4063 7.00001 18.8469 7.00001 18.1563C7.00001 17.4657 7.55938 16.9063 8.25001 16.9063C8.94063 16.9063 9.50001 17.4657 9.50001 18.1563C9.50001 18.8469 8.94063 19.4063 8.25001 19.4063ZM20.375 21.75C20.375 21.8875 20.2625 22 20.125 22H11.875C11.7375 22 11.625 21.8875 11.625 21.75V19.125C11.625 18.9875 11.7375 18.875 11.875 18.875H13.125C13.2625 18.875 13.375 18.9875 13.375 19.125V20.25H18.625V19.125C18.625 18.9875 18.7375 18.875 18.875 18.875H20.125C20.2625 18.875 20.375 18.9875 20.375 19.125V21.75ZM23.75 19.4063C23.0594 19.4063 22.5 18.8469 22.5 18.1563C22.5 17.4657 23.0594 16.9063 23.75 16.9063C24.4406 16.9063 25 17.4657 25 18.1563C25 18.8469 24.4406 19.4063 23.75 19.4063ZM6.87501 13.0625L9.14688 6.81567L9.16251 6.77505L9.17501 6.73442C9.20938 6.6313 9.30313 6.56255 9.41251 6.56255H22.775L25.1313 13.0625H6.87501Z" fill="#A6AFBA"/>
</svg>
