<svg width="20" height="20" viewBox="0 0 20 20" fill="none" xmlns="http://www.w3.org/2000/svg">
<path d="M5 16V14.5H6.25V10.938L2 5H12L7.75 10.958V14.5H9V16H5ZM6 8H8L9.083 6.5H4.917L6 8ZM12.5 16C11.8053 16 11.215 15.757 10.729 15.271C10.243 14.785 10 14.1947 10 13.5C10 12.8053 10.243 12.215 10.729 11.729C11.215 11.243 11.8053 11 12.5 11C12.6807 11 12.8543 11.014 13.021 11.042C13.1877 11.0693 13.3473 11.1247 13.5 11.208V5H17V7H15V13.5C15 14.1947 14.757 14.785 14.271 15.271C13.785 15.757 13.1947 16 12.5 16Z" fill="#EB5757"/>
</svg>
