<svg width="20" height="20" viewBox="0 0 20 20" fill="none" xmlns="http://www.w3.org/2000/svg">
<path d="M8.5 16.5H11.5V15.5H8.5V16.5ZM5.5 19C5.08333 19 4.72933 18.854 4.438 18.562C4.146 18.2707 4 17.9167 4 17.5V2.5C4 2.08333 4.146 1.72933 4.438 1.438C4.72933 1.146 5.08333 1 5.5 1H14.5C14.9167 1 15.2707 1.146 15.562 1.438C15.854 1.72933 16 2.08333 16 2.5V17.5C16 17.9167 15.854 18.2707 15.562 18.562C15.2707 18.854 14.9167 19 14.5 19H5.5ZM5.5 14.5V17.5H14.5V14.5H5.5ZM5.5 13H14.5V5H5.5V13ZM5.5 3.5H14.5V2.5H5.5V3.5ZM5.5 14.5V17.5V14.5ZM5.5 3.5V2.5V3.5Z" fill="#EB5757"/>
</svg>
