<svg width="20" height="20" viewBox="0 0 20 20" fill="none" xmlns="http://www.w3.org/2000/svg">
<path d="M6.62499 11.729H13.375V11.208C13.375 10.5833 13.066 10.0833 12.448 9.70799C11.83 9.33333 11.014 9.14599 9.99999 9.14599C8.98599 9.14599 8.16999 9.33333 7.55199 9.70799C6.93399 10.0833 6.62499 10.5833 6.62499 11.208V11.729ZM10.021 8.39599C10.493 8.39599 10.8957 8.23266 11.229 7.90599C11.5623 7.57999 11.729 7.17399 11.729 6.68799C11.729 6.20133 11.5623 5.79499 11.229 5.46899C10.8957 5.14233 10.493 4.97899 10.021 4.97899C9.53499 4.97899 9.12866 5.14233 8.80199 5.46899C8.47533 5.79499 8.31199 6.20133 8.31199 6.68799C8.31199 7.17399 8.47533 7.57999 8.80199 7.90599C9.12866 8.23266 9.53499 8.39599 10.021 8.39599ZM1.66699 18.333V3.41699C1.66699 2.93099 1.83699 2.51766 2.17699 2.17699C2.51766 1.83699 2.93099 1.66699 3.41699 1.66699H16.583C17.069 1.66699 17.4823 1.83699 17.823 2.17699C18.163 2.51766 18.333 2.93099 18.333 3.41699V13.25C18.333 13.736 18.163 14.1493 17.823 14.49C17.4823 14.83 17.069 15 16.583 15H4.99999L1.66699 18.333ZM3.41699 14.104L4.27099 13.25H16.583V3.41699H3.41699V14.104ZM3.41699 3.41699V14.104V3.41699Z" fill="#EB5757"/>
</svg>
