<svg width="20" height="20" viewBox="0 0 20 20" fill="none" xmlns="http://www.w3.org/2000/svg">
<g clip-path="url(#clip0_85_5009)">
<path d="M15.8333 11.6667C16.9878 11.6667 17.9709 12.0725 18.7826 12.8841C19.5942 13.6957 20 14.6788 20 15.8333C20 16.9878 19.5942 17.9709 18.7826 18.7826C17.9709 19.5942 16.9878 20 15.8333 20C14.6788 20 13.6957 19.5942 12.8841 18.7826C12.0725 17.9709 11.6667 16.9878 11.6667 15.8333C11.6667 15.7292 11.6753 15.5816 11.6927 15.3906L7.00521 13.0469C6.2066 13.7934 5.26042 14.1667 4.16667 14.1667C3.01215 14.1667 2.02908 13.7608 1.21745 12.9492C0.405816 12.1376 0 11.1545 0 10C0 8.84549 0.405816 7.86241 1.21745 7.05078C2.02908 6.23915 3.01215 5.83333 4.16667 5.83333C5.26042 5.83333 6.2066 6.2066 7.00521 6.95312L11.6927 4.60938C11.6753 4.4184 11.6667 4.27083 11.6667 4.16667C11.6667 3.01215 12.0725 2.02908 12.8841 1.21745C13.6957 0.405816 14.6788 0 15.8333 0C16.9878 0 17.9709 0.405816 18.7826 1.21745C19.5942 2.02908 20 3.01215 20 4.16667C20 5.32118 19.5942 6.30425 18.7826 7.11589C17.9709 7.92752 16.9878 8.33333 15.8333 8.33333C14.7396 8.33333 13.7934 7.96007 12.9948 7.21354L8.30729 9.55729C8.32465 9.74826 8.33333 9.89583 8.33333 10C8.33333 10.1042 8.32465 10.2517 8.30729 10.4427L12.9948 12.7865C13.7934 12.0399 14.7396 11.6667 15.8333 11.6667Z" fill="#737F8C"/>
</g>
<defs>
<clipPath id="clip0_85_5009">
<rect width="20" height="20" fill="white"/>
</clipPath>
</defs>
</svg>
