<svg width="25" height="24" viewBox="0 0 25 24" fill="none" xmlns="http://www.w3.org/2000/svg">
<path d="M11.3738 1.86308C11.6673 1.26862 11.814 0.971387 12.0132 0.876422C12.1864 0.793797 12.3878 0.793797 12.5611 0.876422C12.7602 0.971387 12.907 1.26862 13.2004 1.86308L15.9843 7.50288C16.0709 7.67838 16.1142 7.76612 16.1775 7.83426C16.2335 7.89458 16.3008 7.94345 16.3754 7.97817C16.4597 8.01739 16.5566 8.03154 16.7502 8.05985L22.9773 8.97003C23.6331 9.06587 23.9609 9.1138 24.1127 9.27396C24.2447 9.4133 24.3068 9.60478 24.2816 9.79509C24.2527 10.0138 24.0154 10.245 23.5406 10.7074L19.0364 15.0946C18.896 15.2313 18.8258 15.2997 18.7805 15.3811C18.7403 15.4531 18.7146 15.5322 18.7047 15.6141C18.6935 15.7065 18.71 15.8031 18.7432 15.9963L19.806 22.193C19.9181 22.8466 19.9741 23.1733 19.8688 23.3673C19.7771 23.536 19.6142 23.6543 19.4254 23.6893C19.2085 23.7296 18.915 23.5752 18.3281 23.2666L12.7612 20.339C12.5877 20.2478 12.501 20.2022 12.4096 20.1842C12.3287 20.1684 12.2455 20.1684 12.1646 20.1842C12.0732 20.2022 11.9865 20.2478 11.8131 20.339L6.24612 23.2666C5.65921 23.5752 5.36576 23.7296 5.14877 23.6893C4.95998 23.6543 4.79708 23.536 4.70543 23.3673C4.6001 23.1733 4.65615 22.8466 4.76824 22.193L5.83104 15.9963C5.86418 15.8031 5.88074 15.7065 5.86953 15.6141C5.85961 15.5322 5.83388 15.4531 5.79377 15.3811C5.74847 15.2997 5.67826 15.2313 5.53785 15.0946L1.03358 10.7074C0.558845 10.245 0.321478 10.0138 0.292593 9.79509C0.267462 9.60478 0.329548 9.4133 0.461565 9.27396C0.613299 9.1138 0.941169 9.06587 1.59691 8.97003L7.82399 8.05985C8.01764 8.03154 8.11447 8.01739 8.1988 7.97817C8.27346 7.94345 8.34068 7.89458 8.39673 7.83426C8.46003 7.76612 8.50334 7.67838 8.58997 7.50288L11.3738 1.86308Z" fill="#0A20E6"/>
</svg>
