<svg width="18" height="16" viewBox="0 0 18 16" fill="none" xmlns="http://www.w3.org/2000/svg">
<path d="M14.3515 8.37729L8.19192 2.85089C8.14464 2.80875 8.08431 2.78516 8.02073 2.78516H6.57785C6.4572 2.78516 6.40176 2.94021 6.49307 3.02111L12.2026 8.14471H2.66168C2.58994 8.14471 2.53125 8.20538 2.53125 8.27954V9.29077C2.53125 9.36493 2.58994 9.42561 2.66168 9.42561H12.201L6.49144 14.5492C6.40013 14.6318 6.45557 14.7852 6.57622 14.7852H8.06801C8.09899 14.7852 8.12996 14.7734 8.15279 14.7514L14.3515 9.19302C14.4079 9.14228 14.4532 9.07962 14.4842 9.00926C14.5152 8.9389 14.5312 8.86248 14.5312 8.78516C14.5312 8.70784 14.5152 8.63141 14.4842 8.56105C14.4532 8.49069 14.4079 8.42803 14.3515 8.37729Z" fill="white"/>
</svg>
