<svg width="13" height="16" viewBox="0 0 13 16" fill="none" xmlns="http://www.w3.org/2000/svg">
<path d="M6.49998 16C5.32714 15.0425 4.24003 13.9928 3.24999 12.8619C1.76428 11.1636 8.16114e-07 8.63433 8.16114e-07 6.22413C-0.000643516 4.99322 0.380257 3.7898 1.0945 2.76616C1.80874 1.74252 2.82422 0.944677 4.01241 0.473603C5.20061 0.00252995 6.50811 -0.120599 7.76945 0.1198C9.03078 0.360199 10.1893 0.953319 11.0983 1.8241C11.7035 2.40075 12.1832 3.08655 12.5096 3.84181C12.836 4.59708 13.0027 5.4068 13 6.22413C13 8.63433 11.2357 11.1636 9.74998 12.8619C8.75994 13.9928 7.67282 15.0425 6.49998 16ZM6.49998 3.55798C5.76117 3.55798 5.05261 3.83888 4.53019 4.33888C4.00777 4.83888 3.71428 5.51702 3.71428 6.22413C3.71428 6.93123 4.00777 7.60938 4.53019 8.10938C5.05261 8.60938 5.76117 8.89028 6.49998 8.89028C7.2388 8.89028 7.94736 8.60938 8.46978 8.10938C8.9922 7.60938 9.28569 6.93123 9.28569 6.22413C9.28569 5.51702 8.9922 4.83888 8.46978 4.33888C7.94736 3.83888 7.2388 3.55798 6.49998 3.55798Z" fill="#D50413" fill-opacity="0.7"/>
</svg>
