<svg width="30" height="30" viewBox="0 0 30 30" fill="none" xmlns="http://www.w3.org/2000/svg">
<path d="M24.7992 9.08105L14.9992 16.2936L5.19922 9.08105M4.04297 6.69355C3.71145 6.69355 3.39351 6.82525 3.15909 7.05967C2.92467 7.29409 2.79297 7.61203 2.79297 7.94355V22.0748C2.79297 22.4063 2.92467 22.7243 3.15909 22.9587C3.39351 23.1931 3.71145 23.3248 4.04297 23.3248H25.9555C26.287 23.3248 26.6049 23.1931 26.8394 22.9587C27.0738 22.7243 27.2055 22.4063 27.2055 22.0748V7.9248C27.2055 7.59328 27.0738 7.27534 26.8394 7.04092C26.6049 6.8065 26.287 6.6748 25.9555 6.6748H4.04297V6.69355Z" stroke="white" stroke-linecap="round" stroke-linejoin="round"/>
</svg>
