<svg width="30" height="30" viewBox="0 0 30 30" fill="none" xmlns="http://www.w3.org/2000/svg">
<path d="M25.4491 18.9253C24.1255 18.762 22.8113 18.5304 21.5116 18.2316C21.1943 18.1255 20.855 18.1032 20.5265 18.1667C20.198 18.2302 19.8915 18.3774 19.6366 18.5941C19.3053 18.9316 18.3491 19.8753 17.3553 20.8503C13.7948 19.1001 10.9154 16.2184 9.16782 12.6566C10.1366 11.6628 11.0428 10.7128 11.4116 10.3816C11.6282 10.1267 11.7755 9.82014 11.839 9.49166C11.9025 9.16319 11.8801 8.82388 11.7741 8.50657C11.4748 7.20486 11.2433 5.88851 11.0803 4.56282C11.0629 4.39401 11.0112 4.23051 10.9285 4.08231C10.8458 3.9341 10.7338 3.80429 10.5993 3.70079C10.4648 3.59728 10.3106 3.52225 10.1462 3.48026C9.98175 3.43827 9.81048 3.43022 9.64282 3.45657H4.31782C4.09802 3.47642 3.89226 3.57317 3.73678 3.7298C3.5813 3.88642 3.48605 4.09288 3.46782 4.31282C3.12407 9.11907 5.80532 14.2628 6.34907 15.2503V15.2878L6.42407 15.4316C8.37054 18.8075 11.1732 21.6101 14.5491 23.5566V23.5566L14.8241 23.7128C16.0741 24.3753 21.0428 26.8753 25.6866 26.5316C25.9087 26.5162 26.1182 26.4222 26.2773 26.2664C26.4365 26.1107 26.5351 25.9034 26.5553 25.6816V20.3628C26.5817 20.1952 26.5736 20.0239 26.5316 19.8595C26.4896 19.695 26.4146 19.5408 26.3111 19.4063C26.2076 19.2718 26.0778 19.1598 25.9296 19.0771C25.7814 18.9944 25.6179 18.9428 25.4491 18.9253Z" stroke="white" stroke-linecap="round" stroke-linejoin="round"/>
</svg>
