<svg width="90" height="90" viewBox="0 0 90 90" fill="none" xmlns="http://www.w3.org/2000/svg">
<path d="M45 5.625C55.4429 5.625 65.4581 9.77343 72.8423 17.1577C80.2266 24.5419 84.375 34.5571 84.375 45C84.375 55.4429 80.2266 65.4581 72.8423 72.8423C65.4581 80.2266 55.4429 84.375 45 84.375C34.5571 84.375 24.5419 80.2266 17.1577 72.8423C9.77342 65.4581 5.625 55.4429 5.625 45C5.625 34.5571 9.77342 24.5419 17.1577 17.1577C24.5419 9.77343 34.5571 5.625 45 5.625ZM45 78.75C53.9511 78.75 62.5355 75.1942 68.8648 68.8649C75.1942 62.5355 78.75 53.9511 78.75 45C78.75 36.0489 75.1942 27.4645 68.8648 21.1351C62.5355 14.8058 53.9511 11.25 45 11.25C36.0489 11.25 27.4645 14.8058 21.1351 21.1351C14.8058 27.4645 11.25 36.0489 11.25 45C11.25 53.9511 14.8058 62.5355 21.1351 68.8649C27.4645 75.1942 36.0489 78.75 45 78.75ZM40.7812 56.9869L58.7644 45L40.7812 33.0131V56.9869ZM41.715 26.8706L63.6412 41.49C64.219 41.8753 64.6928 42.3972 65.0204 43.0095C65.3481 43.6218 65.5195 44.3055 65.5195 45C65.5195 45.6945 65.3481 46.3782 65.0204 46.9905C64.6928 47.6028 64.219 48.1247 63.6412 48.51L41.715 63.1294C41.0797 63.5529 40.3413 63.796 39.5786 63.8329C38.816 63.8698 38.0576 63.6989 37.3844 63.3387C36.7112 62.9784 36.1484 62.4422 35.756 61.7872C35.3636 61.1321 35.1563 60.3829 35.1562 59.6194V30.375C35.1563 29.6114 35.3636 28.8622 35.756 28.2072C36.1484 27.5522 36.7112 27.016 37.3844 26.6557C38.0576 26.2954 38.816 26.1246 39.5786 26.1615C40.3413 26.1983 41.0797 26.4415 41.715 26.865V26.8706Z" fill="white"/>
</svg>
