<svg width="18" height="18" viewBox="0 0 18 18" fill="none" xmlns="http://www.w3.org/2000/svg">
<path d="M16.5231 6.08668L16.4477 6.58097L16.5231 6.08668L12.0419 5.40356L10.0317 1.13283L10.0316 1.13257C9.82437 0.69296 9.38871 0.5 9.00064 0.5C8.61256 0.5 8.17753 0.692759 7.96875 1.13052L7.96756 1.13304L5.95993 5.40358L1.47885 6.08668L1.47874 6.08669C1.04012 6.15365 0.68411 6.47157 0.553684 6.8942L0.553454 6.89495C0.426461 7.30877 0.527845 7.7724 0.839326 8.08688L4.09552 11.4177L3.32575 16.125L3.32538 16.1274C3.25791 16.5526 3.41955 17.0002 3.77502 17.2694C4.12752 17.5364 4.6037 17.5792 4.99903 17.3579C4.99975 17.3575 5.00047 17.3571 5.00118 17.3567L9.00104 15.1525L13.0009 17.3582C13.0009 17.3582 13.001 17.3583 13.0011 17.3583C13.1768 17.4557 13.3648 17.4979 13.5462 17.4979C13.788 17.4979 14.0243 17.4207 14.2242 17.2714L14.2243 17.2715L14.23 17.2671C14.581 16.9969 14.7444 16.5549 14.6766 16.1274L14.6762 16.125L13.9064 11.4177L17.1635 8.08595C17.4739 7.76914 17.5729 7.30934 17.4463 6.89617C17.3193 6.47536 16.9629 6.15373 16.5231 6.08668Z" fill="white" stroke="white"/>
</svg>
