<svg width="24" height="24" viewBox="0 0 24 24" fill="none" xmlns="http://www.w3.org/2000/svg">
<path d="M11.3991 0.00373641C9.47309 0.0269864 5.33234 0.343486 3.01634 2.46824C1.29359 4.17524 0.692093 6.69899 0.621593 9.81974C0.563093 12.9292 0.492593 18.7687 6.12134 20.3587V22.7805C6.12134 22.7805 6.08609 23.7495 6.72659 23.9482C7.51559 24.198 7.96484 23.4525 8.71484 22.6515L10.1136 21.0697C13.9648 21.39 16.9146 20.652 17.2543 20.5425C18.0358 20.2927 22.4376 19.7302 23.1568 13.89C23.8948 7.85849 22.7976 4.05824 20.8168 2.33924H20.8048C20.2071 1.78874 17.8048 0.0382364 12.4378 0.0187364C12.4378 0.0187364 12.0396 -0.00826359 11.3991 0.00298641V0.00373641ZM11.4651 1.69949C12.0118 1.69574 12.3441 1.71899 12.3441 1.71899C16.8868 1.73099 19.0551 3.09824 19.5666 3.55874C21.2346 4.98824 22.0941 8.41424 21.4648 13.4497C20.8671 18.3322 17.2971 18.6412 16.6363 18.852C16.3551 18.942 13.7571 19.5825 10.4841 19.3717C10.4841 19.3717 8.04659 22.3132 7.28459 23.0707C7.16384 23.2035 7.02284 23.2425 6.93284 23.223C6.80384 23.1915 6.76484 23.0317 6.77234 22.8127L6.79559 18.7935C2.02184 17.4735 2.30309 12.4927 2.35409 9.89099C2.41259 7.28924 2.90084 5.16074 4.35434 3.71924C6.31109 1.94999 9.82709 1.71149 11.4636 1.69949H11.4651ZM11.8251 4.30049C11.7858 4.30009 11.7468 4.30748 11.7104 4.32221C11.674 4.33695 11.6408 4.35876 11.6129 4.38636C11.5849 4.41397 11.5627 4.44684 11.5475 4.48308C11.5323 4.51931 11.5244 4.5582 11.5243 4.59749C11.5243 4.76549 11.6608 4.89824 11.8251 4.89824C12.5687 4.88409 13.3078 5.01731 13.9997 5.29021C14.6916 5.5631 15.3226 5.97027 15.8563 6.48824C16.9461 7.54649 17.4771 8.96849 17.4973 10.8277C17.4973 10.992 17.6301 11.1285 17.7981 11.1285V11.1165C17.8773 11.1167 17.9533 11.0856 18.0097 11.0299C18.066 10.9743 18.0981 10.8987 18.0988 10.8195C18.1353 9.94435 17.9933 9.07095 17.6817 8.25236C17.3701 7.43378 16.8953 6.68711 16.2861 6.05774C15.0988 4.89749 13.5943 4.29974 11.8251 4.29974V4.30049ZM7.87184 4.98824C7.65955 4.95722 7.44304 4.99983 7.25834 5.10899H7.24259C6.81379 5.36034 6.4275 5.67803 6.09809 6.05024C5.82434 6.36674 5.67584 6.68699 5.63684 6.99524C5.61359 7.17899 5.62934 7.36274 5.68409 7.53824L5.70359 7.55024C6.01184 8.45624 6.41459 9.32774 6.90659 10.1482C7.54036 11.301 8.32031 12.367 9.22709 13.32L9.25409 13.359L9.29684 13.3905L9.32384 13.422L9.35534 13.449C10.3118 14.3584 11.3804 15.142 12.5353 15.7807C13.8553 16.4992 14.6563 16.839 15.1371 16.98V16.9875C15.2781 17.0302 15.4063 17.0497 15.5353 17.0497C15.9451 17.0197 16.3329 16.8534 16.6371 16.5772C17.0076 16.2477 17.3218 15.8599 17.5671 15.429V15.4215C17.7973 14.988 17.7193 14.5777 17.3871 14.3002C16.7217 13.7186 16.0022 13.202 15.2383 12.7575C14.7268 12.48 14.2071 12.648 13.9963 12.9292L13.5471 13.4955C13.3168 13.7767 12.8983 13.7377 12.8983 13.7377L12.8863 13.7452C9.76559 12.948 8.93309 9.78824 8.93309 9.78824C8.93309 9.78824 8.89409 9.35849 9.18284 9.13949L9.74534 8.68649C10.0146 8.46749 10.2021 7.94849 9.91334 7.43624C9.47189 6.67135 8.95642 5.95165 8.37434 5.28749C8.24709 5.13091 8.06857 5.02438 7.87034 4.98674L7.87184 4.98824ZM12.3441 5.87924C11.9458 5.87924 11.9458 6.48074 12.3478 6.48074C12.8431 6.48877 13.3318 6.59431 13.7862 6.79134C14.2406 6.98836 14.6517 7.273 14.9961 7.62899C15.3102 7.97549 15.5516 8.38152 15.7059 8.82302C15.8603 9.26451 15.9244 9.7325 15.8946 10.1992C15.896 10.2782 15.9282 10.3535 15.9844 10.4091C16.0406 10.4646 16.1163 10.4959 16.1953 10.4962L16.2073 10.512C16.2869 10.5114 16.3631 10.4795 16.4194 10.4232C16.4756 10.367 16.5075 10.2908 16.5081 10.2112C16.5351 9.01949 16.1646 8.01974 15.4378 7.21874C14.7073 6.41774 13.6881 5.96849 12.3868 5.87924H12.3441ZM12.8368 7.49624C12.4266 7.48424 12.4108 8.09774 12.8173 8.10974C13.8058 8.16074 14.2858 8.66024 14.3488 9.68774C14.3502 9.76573 14.3821 9.84009 14.4376 9.8949C14.4931 9.94971 14.5678 9.98061 14.6458 9.98099H14.6578C14.6979 9.97927 14.7373 9.96958 14.7736 9.95248C14.8099 9.93538 14.8425 9.91123 14.8694 9.88141C14.8963 9.8516 14.9169 9.81673 14.9302 9.77884C14.9434 9.74096 14.949 9.7008 14.9466 9.66074C14.8761 8.32124 14.1456 7.56674 12.8488 7.49699H12.8368V7.49624Z" fill="#D50413"/>
</svg>
