<svg width="17" height="23" viewBox="0 0 17 23" fill="none" xmlns="http://www.w3.org/2000/svg">
<path fill-rule="evenodd" clip-rule="evenodd" d="M7.63311 1.57167V2.34207H8.25776H8.88241V1.57167V0.80127H8.25776H7.63311V1.57167ZM4.03098 1.84118C3.75614 1.99676 3.53484 2.1416 3.53917 2.16308C3.54859 2.20956 4.4669 3.89136 4.50463 3.93125C4.52682 3.9547 5.50232 3.44565 5.57561 3.37236C5.61084 3.33713 4.62489 1.54997 4.5728 1.55459C4.54965 1.55663 4.30582 1.6856 4.03098 1.84118ZM11.4087 2.4503C11.1384 2.94502 10.9294 3.36186 10.9442 3.37665C11.0203 3.45277 11.9887 3.95711 12.0114 3.93246C12.0507 3.88998 12.9631 2.2203 12.9746 2.17012C12.9826 2.13472 11.9901 1.55097 11.9216 1.55089C11.9098 1.55085 11.679 1.95562 11.4087 2.4503ZM0.750791 3.91484C0.527917 4.13855 0.345562 4.34027 0.345562 4.36309C0.345562 4.38591 0.584802 4.64331 0.877178 4.93502L1.40879 5.46547L1.83497 5.03783C2.06938 4.80263 2.26115 4.5915 2.26115 4.56864C2.26115 4.51426 1.25238 3.50807 1.19787 3.50807C1.17484 3.50807 0.973666 3.69114 0.750791 3.91484ZM14.8263 4.03965L14.2959 4.57126L14.7443 5.01826L15.1926 5.46522L15.7327 4.92398L16.2727 4.3827L15.8369 3.94541C15.5972 3.70488 15.3911 3.50807 15.3789 3.50807C15.3667 3.50807 15.118 3.74727 14.8263 4.03965ZM5.99924 4.59429C5.04599 4.73396 4.19501 5.50499 3.95123 6.44991C3.82239 6.9493 3.88744 7.68496 4.09665 8.09507C4.14067 8.18143 4.17673 8.27155 4.17673 8.29537C4.17673 8.32477 3.52093 8.33868 2.13622 8.33868H0.0957031V10.2126V12.0866H0.72035H1.345V17.1046V22.1226H8.25776H15.1705V17.1046V12.0866H15.7952H16.4198V10.2126V8.33868H14.3793C12.9946 8.33868 12.3388 8.32477 12.3388 8.29537C12.3388 8.27155 12.3749 8.18143 12.4189 8.09507C12.6245 7.69208 12.6938 6.93639 12.5684 6.46474C12.3582 5.67377 11.7698 5.01464 11.0231 4.73355C10.1693 4.41219 9.23067 4.5751 8.51803 5.16839L8.25776 5.38506L7.99749 5.16839C7.66251 4.8895 7.22613 4.68362 6.81449 4.61024C6.45128 4.54553 6.34617 4.54349 5.99924 4.59429ZM6.88354 5.92954C7.12348 6.03356 7.3606 6.26293 7.50135 6.5272C7.60871 6.72875 7.61271 6.76119 7.62591 7.541L7.63957 8.34659L6.85555 8.33222C6.14587 8.31923 6.05371 8.30907 5.8841 8.22524C5.58485 8.07737 5.39962 7.89805 5.26241 7.6235C4.97441 7.0472 5.17188 6.33285 5.70558 6.02007C6.10019 5.78883 6.48988 5.75889 6.88354 5.92954ZM10.5545 5.88894C10.8195 5.96768 11.0958 6.21259 11.245 6.50088C11.3619 6.72667 11.381 6.80592 11.381 7.06556C11.381 7.57886 11.1007 8.01519 10.6335 8.22937C10.4677 8.30536 10.3465 8.31811 9.66322 8.33135L8.88241 8.34647V7.61863C8.88241 6.75016 8.92692 6.56318 9.20806 6.25048C9.56964 5.84829 10.0153 5.72865 10.5545 5.88894ZM6.38382 10.2126V10.8373H3.86441H1.345V10.2126V9.58797H3.86441H6.38382V10.2126ZM8.88241 10.2126V10.8373H8.25776H7.63311V10.2126V9.58797H8.25776H8.88241V10.2126ZM15.1705 10.2126V10.8373H12.6511H10.1317V10.2126V9.58797H12.6511H15.1705V10.2126ZM6.38382 16.4799V20.8733H4.48905H2.59429V16.4799V12.0866H4.48905H6.38382V16.4799ZM8.88241 16.4799V20.8733H8.25776H7.63311V16.4799V12.0866H8.25776H8.88241V16.4799ZM13.9212 16.4799V20.8733H12.0265H10.1317V16.4799V12.0866H12.0265H13.9212V16.4799Z" fill="#FF4949"/>
</svg>
