<svg width="28" height="22" viewBox="0 0 28 22" fill="none" xmlns="http://www.w3.org/2000/svg">
<path fill-rule="evenodd" clip-rule="evenodd" d="M7.10823 0.98482C6.01775 1.27587 5.07757 2.0211 4.59512 2.97695C4.497 3.17135 4.29141 3.7647 4.13824 4.29547C3.98513 4.8263 3.84811 5.29566 3.83386 5.33848C3.81734 5.38785 3.72137 5.32986 3.57144 5.17993C3.19029 4.79878 2.95081 4.76813 1.83158 4.95721C0.748131 5.14023 0.470786 5.26667 0.222374 5.69045C-0.0717317 6.19242 -0.0335003 6.77188 0.322388 7.20356C0.556975 7.48824 0.773639 7.58141 1.65351 7.77623C2.06304 7.86689 2.39813 7.96341 2.39813 7.99076C2.39813 8.01804 2.23493 8.28896 2.03552 8.59267C1.68165 9.13164 1.51447 9.49805 1.30961 10.1839C1.22055 10.4821 1.20636 11.0888 1.18746 15.4149C1.17253 18.8378 1.18642 20.4004 1.2337 20.6143C1.32919 21.0461 1.64378 21.4497 2.03784 21.6461C2.35128 21.8023 2.39446 21.8071 3.47363 21.8071C4.57169 21.8071 4.59059 21.8049 4.91443 21.6366C5.27191 21.4509 5.58828 21.0556 5.6993 20.6557C5.73368 20.532 5.76194 20.1349 5.76212 19.7732L5.76249 19.1156H13.8981H22.0337V19.8082C22.0337 20.6589 22.1324 20.9915 22.4913 21.3503C22.9131 21.7722 23.1217 21.8203 24.4259 21.7968C25.348 21.7802 25.5857 21.7575 25.7433 21.6713C26.0105 21.5251 26.2955 21.2278 26.4557 20.9284L26.5909 20.6755V15.6289C26.5909 10.9147 26.5835 10.5562 26.4784 10.1848C26.3221 9.6322 26.0176 8.99425 25.6166 8.379C25.3967 8.04165 25.303 7.84792 25.3523 7.83245C25.3943 7.8193 25.6489 7.7621 25.918 7.70546C26.7612 7.52788 27.078 7.33214 27.3007 6.85104C27.5928 6.22025 27.2798 5.42412 26.6315 5.14861C26.3806 5.04193 24.9891 4.80184 24.622 4.80184C24.4911 4.80184 24.2769 4.85646 24.146 4.92326C24.0149 4.99006 23.8963 5.03318 23.8823 5.01917C23.8683 5.00517 23.7519 4.63135 23.6237 4.18854C23.3476 3.23466 23.1221 2.75576 22.7244 2.27863C22.1946 1.64289 21.5101 1.2117 20.7029 1.00531C20.2594 0.891842 19.9752 0.887132 13.8425 0.890986C8.42027 0.894411 7.39335 0.908663 7.10823 0.98482ZM20.4739 1.94892C21.2152 2.14724 21.9426 2.71538 22.2919 3.3688C22.4648 3.69209 23.1536 5.96572 23.0961 6.02304C23.0567 6.06237 4.72584 6.04885 4.68651 6.00952C4.63812 5.96119 5.28304 3.80464 5.44924 3.45897C5.77687 2.77741 6.60841 2.10307 7.33016 1.93357C7.46345 1.90231 10.3221 1.87558 13.8675 1.87252C18.9482 1.86818 20.2273 1.88298 20.4739 1.94892ZM3.05247 6.20875C3.2807 6.6726 3.28914 6.7413 3.14196 6.93264L3.03216 7.07541L2.11871 6.87868C1.21174 6.68343 0.991222 6.58868 0.991222 6.39446C0.991222 6.15033 1.14176 6.07491 1.91287 5.93263C2.33115 5.85543 2.71469 5.79652 2.76516 5.80172C2.81562 5.80692 2.94493 5.99007 3.05247 6.20875ZM25.4899 5.89825C26.2879 6.03686 26.3608 6.06188 26.4092 6.21438C26.4824 6.44499 26.382 6.571 26.0518 6.66306C25.4738 6.82418 24.7863 6.95588 24.6987 6.92224C24.6513 6.90401 24.5409 6.76711 24.4535 6.61798L24.2947 6.34681L24.416 6.06371C24.559 5.73015 24.5395 5.73315 25.4899 5.89825ZM24.4132 8.32835C25.0326 9.27704 25.2789 9.71306 25.4217 10.1136L25.6106 10.6436L25.6114 12.5704L25.6122 14.4973H13.8981H2.18404V12.5704C2.18404 10.0667 2.1581 10.1597 3.36163 8.34836C3.72993 7.79397 4.06392 7.27849 4.1038 7.20276L4.17635 7.06513L13.885 7.06911L23.5936 7.07308L24.4132 8.32835ZM21.8808 9.51083C20.9851 9.57855 20.8756 9.67422 19.9191 11.2247C19.2077 12.3777 19.1404 12.5792 19.3849 12.8238C19.4726 12.9115 19.5877 12.9509 19.7489 12.9485C20.1252 12.9429 23.9287 12.4455 24.1058 12.3788C24.3577 12.2839 24.6605 11.9547 24.7286 11.7016C24.8048 11.4185 24.6985 10.2448 24.5751 10.0078C24.481 9.82684 24.2688 9.62112 24.0717 9.51958C23.927 9.44508 22.8091 9.44061 21.8808 9.51083ZM3.74571 9.60657C3.48225 9.72358 3.32859 9.86012 3.21671 10.0764C3.11046 10.2818 2.98463 11.4686 3.03852 11.7561C3.09523 12.0584 3.44292 12.4175 3.75911 12.5003C4.19709 12.6152 8.06463 13.0786 8.23279 13.0365C8.42517 12.9882 8.59938 12.6801 8.54133 12.4909C8.51857 12.4169 8.17107 11.8259 7.76899 11.1775C6.76813 9.56338 6.94075 9.65324 4.63084 9.54405C4.10405 9.51915 3.91191 9.53273 3.74571 9.60657ZM9.51834 9.96612C9.31819 10.0534 9.24919 10.1643 9.24919 10.3986C9.24919 10.652 10.1086 13.0823 10.2487 13.225C10.4476 13.4277 10.9827 13.4936 12.7359 13.5311C14.2986 13.5645 16.9543 13.4711 17.4137 13.3665C17.5474 13.3361 17.6919 13.2631 17.7349 13.2044C17.8355 13.0668 18.6694 10.5458 18.6694 10.3792C18.6694 10.1972 18.4166 9.92967 18.2395 9.92428C18.1564 9.92171 17.6616 9.99243 17.1401 10.0814C14.9179 10.4607 13.0529 10.4627 10.7898 10.0883C10.2746 10.003 9.8204 9.92208 9.78051 9.90832C9.74063 9.89462 9.62263 9.92061 9.51834 9.96612ZM23.756 10.9494C23.778 11.2186 23.7893 11.4459 23.781 11.4546C23.7586 11.4781 20.9893 11.8364 20.8299 11.8364C20.7035 11.8364 20.7221 11.7888 21.0629 11.24C21.2665 10.9119 21.4594 10.6161 21.4916 10.5824C21.5654 10.5052 22.3092 10.4459 23.1042 10.454L23.7159 10.4601L23.756 10.9494ZM6.03666 10.6071C6.2669 10.6444 6.30244 10.6816 6.68769 11.2874C6.91182 11.6398 7.08786 11.9362 7.07887 11.9459C7.06988 11.9557 6.37022 11.8749 5.52405 11.7664L3.9855 11.569L4.02251 11.1063C4.04288 10.8518 4.06936 10.6114 4.08141 10.5721C4.10405 10.4979 5.52081 10.5233 6.03666 10.6071ZM11.4513 11.1937C13.1113 11.3998 15.1772 11.3755 16.8069 11.1309C17.1359 11.0816 17.4136 11.0496 17.424 11.06C17.4344 11.0704 17.3419 11.3847 17.2184 11.7585L16.9939 12.4379L16.3483 12.4889C15.527 12.5537 11.9968 12.5537 11.3865 12.489L10.9241 12.4398L10.7205 11.817C10.6086 11.4744 10.5028 11.1566 10.4855 11.1106C10.4634 11.0518 10.4885 11.0377 10.5704 11.063C10.6343 11.0827 11.0308 11.1416 11.4513 11.1937ZM25.6428 15.8302C25.6428 16.9136 24.9262 17.8755 23.9718 18.0733C23.7515 18.1189 20.6202 18.134 13.7146 18.1227L3.77446 18.1063L3.42604 17.943C2.66582 17.5867 2.22386 16.9111 2.16826 16.0208L2.1362 15.5066H13.8895H25.6428V15.8302ZM2.89618 18.753C3.37649 18.9954 3.86609 19.1156 4.37368 19.1156H4.79429L4.77374 19.8245C4.75373 20.5142 4.74854 20.5374 4.58154 20.6809C4.41626 20.823 4.37521 20.8284 3.46861 20.8284C2.56201 20.8284 2.52096 20.823 2.35568 20.6809L2.18404 20.5334L2.16489 19.3877L2.14569 18.2419L2.34222 18.4072C2.45025 18.4981 2.69958 18.6537 2.89618 18.753ZM25.6428 19.3328C25.6428 20.4026 25.5949 20.6292 25.3403 20.7654C25.2745 20.8007 24.8147 20.8284 24.2964 20.8284H23.3701L23.1913 20.6496C23.0152 20.4735 23.0125 20.4606 23.0125 19.7932V19.1156H23.4278C24.0945 19.1156 24.9122 18.8379 25.3981 18.4464C25.4822 18.3786 25.5716 18.3225 25.5969 18.3218C25.6222 18.321 25.6428 18.776 25.6428 19.3328Z" fill="#FF4949"/>
</svg>
