<svg width="20" height="22" viewBox="0 0 20 22" fill="none" xmlns="http://www.w3.org/2000/svg">
<path fill-rule="evenodd" clip-rule="evenodd" d="M2.88782 0.352866C1.79817 0.587755 0.961914 1.62835 0.961914 2.74933C0.961914 3.88076 1.80174 4.91574 2.90832 5.14809C3.0662 5.18122 3.2461 5.20866 3.30814 5.20907L3.42091 5.20976V12.3877C3.42091 19.5006 3.42165 19.567 3.50346 19.7274C3.55661 19.8316 3.64371 19.9187 3.7479 19.9718C3.9066 20.0528 3.9823 20.0544 7.66352 20.0544H11.4173V20.4281C11.4173 20.8698 11.4978 21.0585 11.7455 21.1977C12.0516 21.3698 12.1435 21.3351 13.1335 20.6736L13.8778 20.1763L14.622 20.6736C15.612 21.3351 15.7039 21.3698 16.01 21.1977C16.2577 21.0585 16.3382 20.8698 16.3382 20.4281V20.0544H17.6316C18.8469 20.0544 18.9347 20.0494 19.0867 19.9718C19.1909 19.9187 19.278 19.8316 19.3312 19.7274C19.4132 19.5667 19.4137 19.5044 19.413 11.0447C19.4124 3.7082 19.4039 2.48389 19.3521 2.23674C19.1583 1.31375 18.3889 0.54437 17.4659 0.350569C17.0466 0.262568 3.29683 0.2647 2.88782 0.352866ZM14.7372 1.68646C14.6085 1.93878 14.4929 2.44169 14.4929 2.74933C14.4929 3.05721 14.6085 3.55992 14.7375 3.81273L14.8231 3.98065L8.96825 3.96983L3.11336 3.95904L2.92272 3.87092C1.91464 3.40491 1.98357 1.95502 3.03102 1.5928C3.22195 1.52678 3.64407 1.5217 9.02947 1.52046L14.8226 1.51911L14.7372 1.68646ZM17.454 1.63266C17.693 1.73838 17.9615 2.00579 18.0749 2.25113L18.163 2.44177L18.1737 10.633L18.1843 18.8242H17.2613H16.3382V17.551V16.2778L16.4751 16.0638C17.0015 15.2408 17.0904 14.155 16.7057 13.2472C16.3346 12.3714 15.5158 11.6767 14.5749 11.4392C14.2821 11.3652 13.4734 11.3652 13.1806 11.4392C12.2397 11.6767 11.4209 12.3714 11.0498 13.2472C10.6651 14.155 10.754 15.2408 11.2804 16.0638L11.4173 16.2778V17.551V18.8242H8.03423H4.65113V12.017V5.20976H10.9498C16.6763 5.20976 17.2612 5.20373 17.3888 5.14321C17.7939 4.95097 17.8432 4.35665 17.4758 4.09502C17.3839 4.02957 17.2609 3.99952 16.995 3.9775C16.5655 3.9419 16.3264 3.84475 16.0921 3.61048C15.4496 2.9679 15.6987 1.8999 16.5634 1.5903C16.8199 1.49844 17.1904 1.51608 17.454 1.63266ZM6.1996 6.52454C6.02647 6.61594 5.88135 6.85788 5.88135 7.05509C5.88135 7.25857 6.02639 7.49481 6.20834 7.58765C6.36794 7.66905 6.43987 7.6702 11.4173 7.6702C16.3948 7.6702 16.4667 7.66905 16.6263 7.58765C16.8083 7.49481 16.9533 7.25857 16.9533 7.05509C16.9533 6.85161 16.8083 6.61537 16.6263 6.52253C16.4667 6.44109 16.3967 6.44002 11.4087 6.44178C6.45602 6.44355 6.34981 6.44527 6.1996 6.52454ZM6.1996 8.98497C6.02647 9.07638 5.88135 9.31832 5.88135 9.51552C5.88135 9.719 6.02639 9.95524 6.20834 10.0481C6.36794 10.1295 6.43987 10.1306 11.4173 10.1306C16.3948 10.1306 16.4667 10.1295 16.6263 10.0481C16.8083 9.95524 16.9533 9.719 16.9533 9.51552C16.9533 9.31205 16.8083 9.0758 16.6263 8.98296C16.4667 8.90152 16.3967 8.90046 11.4087 8.90222C6.45602 8.90398 6.34981 8.9057 6.1996 8.98497ZM6.1996 11.4454C6.02647 11.5368 5.88135 11.7788 5.88135 11.976C5.88135 12.1794 6.02639 12.4157 6.20834 12.5085C6.36089 12.5863 6.44807 12.5911 7.72667 12.5911C9.00528 12.5911 9.09246 12.5863 9.24501 12.5085C9.42696 12.4157 9.572 12.1794 9.572 11.976C9.572 11.7725 9.42696 11.5362 9.24501 11.4434C9.09217 11.3654 9.00729 11.3609 7.71806 11.3627C6.43999 11.3644 6.34313 11.3696 6.1996 11.4454ZM14.2103 12.6329C15.1731 12.8155 15.8473 13.7599 15.6905 14.7061C15.5572 15.5106 14.9519 16.1158 14.1475 16.2492C12.9617 16.4456 11.8685 15.3524 12.065 14.1666C12.2367 13.1304 13.2005 12.4414 14.2103 12.6329ZM6.1996 13.9058C6.02647 13.9972 5.88135 14.2392 5.88135 14.4364C5.88135 14.6399 6.02639 14.8761 6.20834 14.969C6.36089 15.0467 6.44807 15.0515 7.72667 15.0515C9.00528 15.0515 9.09246 15.0467 9.24501 14.969C9.42696 14.8761 9.572 14.6399 9.572 14.4364C9.572 14.2329 9.42696 13.9967 9.24501 13.9038C9.09217 13.8259 9.00729 13.8214 7.71806 13.8231C6.43999 13.8248 6.34313 13.8301 6.1996 13.9058ZM12.9155 17.3519C13.0501 17.3992 13.3216 17.4583 13.5189 17.4832C13.9435 17.5368 14.46 17.4855 14.84 17.3519C14.9745 17.3046 15.0899 17.2659 15.0963 17.2659C15.1027 17.2659 15.108 17.7731 15.108 18.393V19.52L14.6181 19.1963C14.3486 19.0183 14.0718 18.8603 14.003 18.8452C13.7945 18.7994 13.6488 18.8584 13.1375 19.1963L12.6475 19.52V18.393C12.6475 17.7731 12.6528 17.2659 12.6592 17.2659C12.6656 17.2659 12.781 17.3046 12.9155 17.3519Z" fill="#FF4949"/>
</svg>
