<svg width="22" height="23" viewBox="0 0 22 23" fill="none" xmlns="http://www.w3.org/2000/svg">
<path fill-rule="evenodd" clip-rule="evenodd" d="M9.50541 0.956712C6.86035 1.27718 4.36468 2.61179 2.63154 4.63277C0.456999 7.16834 -0.420832 10.6626 0.299094 13.9171C0.663889 15.5662 1.50107 17.2589 2.59173 18.5525C4.60096 20.9356 7.64066 22.3428 10.7796 22.3428C13.2019 22.3428 15.6141 21.4913 17.5178 19.9644C19.6663 18.241 21.116 15.6047 21.4405 12.8313C21.8502 9.32851 20.4572 5.7827 17.7616 3.46741C16.4707 2.35866 14.7592 1.50539 13.0818 1.13434C11.9909 0.893009 10.601 0.823986 9.50541 0.956712ZM11.8341 1.55327C15.2737 1.91935 18.2789 4.00979 19.8356 7.11917C20.6007 8.64742 20.9283 10.1772 20.8739 11.9673C20.8278 13.4847 20.5278 14.684 19.8477 16.07C19.336 17.113 18.8362 17.8267 18.0516 18.6349C16.4896 20.244 14.6608 21.2013 12.3533 21.6177C11.7171 21.7324 9.84197 21.7324 9.20583 21.6177C8.13117 21.4238 7.29324 21.155 6.36868 20.7076C5.33038 20.2053 4.56421 19.6688 3.73714 18.8648C2.16762 17.3392 1.20946 15.524 0.799452 13.2994C0.686232 12.6853 0.641059 11.2807 0.712343 10.5925C1.12439 6.61505 3.84101 3.24243 7.6321 2.00185C8.33775 1.77088 8.95337 1.64038 9.82646 1.53655C10.1334 1.50007 11.436 1.51093 11.8341 1.55327ZM10.2476 2.73254C8.54371 2.85188 6.99153 3.412 5.53691 4.43239C5.00335 4.80668 3.97143 5.8386 3.59715 6.37216C2.71581 7.62849 2.19723 8.90192 1.97665 10.3514C1.8769 11.0067 1.87721 12.226 1.97722 12.8782C2.40359 15.6585 3.95551 17.9254 6.41146 19.3552C7.26815 19.854 8.40983 20.2443 9.51765 20.4173C10.1618 20.5179 11.3786 20.5175 12.043 20.4165C14.9363 19.9766 17.4147 18.1966 18.6992 15.6357C19.3693 14.2998 19.6534 13.1053 19.6555 11.6148C19.6583 9.69211 19.1184 8.02068 17.962 6.37216C17.5877 5.8386 16.5558 4.80668 16.0222 4.43239C14.4652 3.34018 12.8747 2.79753 11.0455 2.73454C10.7408 2.72403 10.3817 2.72315 10.2476 2.73254ZM11.511 3.37108C14.8014 3.68135 17.5928 5.88634 18.6263 8.99173C19.1986 10.7111 19.1993 12.5161 18.6285 14.2313C17.7957 16.7337 15.8124 18.6946 13.3017 19.4979C10.8927 20.2687 8.27551 19.8954 6.1692 18.4805C5.22784 17.8481 4.54821 17.1669 3.90435 16.2102C2.47248 14.0827 2.11788 11.4402 2.9348 8.98575C4.14002 5.36475 7.72989 3.01453 11.511 3.37108ZM10.5656 4.53586C10.4831 4.62372 10.4692 4.68991 10.4692 4.99645C10.4692 5.42411 10.5425 5.5563 10.7796 5.5563C11.0177 5.5563 11.0899 5.42455 11.0899 4.99025C11.0899 4.6669 11.0784 4.61526 10.9873 4.52966C10.8542 4.40464 10.6866 4.40708 10.5656 4.53586ZM5.78636 6.48042C5.65736 6.5423 5.58492 6.71262 5.63431 6.83803C5.68333 6.96255 6.12345 7.39353 6.21353 7.40528C6.4405 7.43481 6.56817 7.33276 6.56817 7.12179C6.56817 7.00697 6.51896 6.93143 6.31327 6.73062C6.03638 6.46025 5.93185 6.41064 5.78636 6.48042ZM15.5672 6.459C15.5307 6.47213 15.3861 6.59461 15.2459 6.73119C15.0401 6.93166 14.991 7.00693 14.991 7.12179C14.991 7.33276 15.1186 7.43481 15.3456 7.40528C15.4357 7.39353 15.8758 6.96255 15.9248 6.83803C15.9762 6.70752 15.9002 6.54133 15.7598 6.47736C15.7003 6.45032 15.6477 6.42975 15.6427 6.43165C15.6378 6.43356 15.6038 6.44588 15.5672 6.459ZM10.5781 6.80296L10.4692 6.91175V9.20829V11.5049L9.62697 12.3463C8.89499 13.0775 8.78469 13.2057 8.78469 13.3253C8.78469 13.4947 8.90319 13.6097 9.07767 13.6097C9.18907 13.6097 9.34849 13.4692 10.1492 12.6653L11.0899 11.7209V9.31632V6.91175L10.981 6.80296C10.9212 6.74312 10.8305 6.69413 10.7796 6.69413C10.7286 6.69413 10.6379 6.74312 10.5781 6.80296ZM3.69441 11.4071C3.56939 11.5402 3.57183 11.7077 3.70061 11.8287C3.78847 11.9113 3.85466 11.9251 4.16121 11.9251C4.58886 11.9251 4.72105 11.8518 4.72105 11.6148C4.72105 11.3767 4.5893 11.3045 4.155 11.3045C3.83165 11.3045 3.78001 11.316 3.69441 11.4071ZM16.939 11.3862C16.8707 11.4415 16.8381 11.5155 16.8381 11.6148C16.8381 11.8529 16.9698 11.9251 17.4041 11.9251C17.7275 11.9251 17.7791 11.9136 17.8647 11.8225C17.9897 11.6894 17.9873 11.5219 17.8585 11.4009C17.7706 11.3183 17.7045 11.3045 17.3979 11.3045C17.1161 11.3045 17.0185 11.3219 16.939 11.3862ZM5.86132 16.1153C5.61928 16.3673 5.58754 16.4198 5.61343 16.5253C5.65088 16.6781 5.71623 16.7435 5.86903 16.7809C5.97454 16.8068 6.02703 16.7751 6.27909 16.533C6.51644 16.3051 6.56817 16.2302 6.56817 16.1142C6.56817 15.9402 6.45114 15.8262 6.27249 15.8262C6.166 15.8262 6.08266 15.8848 5.86132 16.1153ZM15.0643 15.9073C14.9134 16.074 14.9685 16.2339 15.28 16.533C15.5321 16.7751 15.5846 16.8068 15.6901 16.7809C15.7566 16.7646 15.8347 16.7277 15.8636 16.6988C15.8925 16.6699 15.9294 16.5919 15.9457 16.5253C15.9716 16.4198 15.9398 16.3673 15.6978 16.1153C15.4699 15.8779 15.3949 15.8262 15.2789 15.8262C15.1984 15.8262 15.1062 15.861 15.0643 15.9073ZM10.6605 17.6888C10.5116 17.7482 10.4692 17.8732 10.4692 18.2537C10.4692 18.5621 10.4814 18.615 10.5718 18.7C10.705 18.825 10.8725 18.8225 10.9935 18.6938C11.076 18.6059 11.0899 18.5397 11.0899 18.2332C11.0899 17.956 11.0724 17.855 11.0123 17.7855C10.9158 17.6739 10.7869 17.6384 10.6605 17.6888Z" fill="#FF4949"/>
</svg>
