<svg width="24" height="21" viewBox="0 0 24 21" fill="none" xmlns="http://www.w3.org/2000/svg">
<path fill-rule="evenodd" clip-rule="evenodd" d="M17.0406 0.0460677C16.6756 0.155612 16.7632 -0.00229911 13.9733 5.57975C11.1974 11.1337 11.2831 10.9422 11.3942 11.3423C11.4552 11.5617 11.7216 11.8579 11.9529 11.9632C12.3381 12.1387 12.8584 12.0284 13.1358 11.7125C13.3035 11.5215 14.6724 8.8138 14.6724 8.67315C14.6724 8.42692 14.4401 8.27121 14.213 8.36524C14.1037 8.41055 13.9792 8.62879 13.3672 9.84902C12.9494 10.6821 12.6133 11.2992 12.5627 11.3263C12.5148 11.3519 12.4229 11.3728 12.3583 11.3728C12.2305 11.3728 12.0203 11.1933 12.0203 11.0841C12.0203 11.0466 13.1714 8.70017 14.5783 5.86968C17.3708 0.251671 17.1808 0.585609 17.5069 0.72064C17.6613 0.784605 17.729 0.886463 17.729 1.05471C17.729 1.11868 17.0312 2.55413 16.1782 4.24463C15.1346 6.31294 14.6274 7.36379 14.6274 7.4576C14.6274 7.7118 14.8907 7.85555 15.1258 7.72973C15.2417 7.6677 18.3492 1.45711 18.3998 1.18651C18.4612 0.857829 18.3803 0.602376 18.138 0.360137C17.831 0.05317 17.4143 -0.0661288 17.0406 0.0460677ZM10.4695 0.567898C9.98488 0.663328 9.85111 0.70257 9.62861 0.814542C9.16669 1.04703 8.89097 1.35633 8.69148 1.8658C8.59043 2.12386 8.58512 2.19511 8.56863 3.51508C8.5448 5.41851 8.60818 5.74831 9.09729 6.26547C9.52873 6.72167 10.0937 6.92647 10.9204 6.92647C12.0942 6.92647 12.8558 6.44617 13.1538 5.51794C13.2308 5.278 13.2472 5.07338 13.2666 4.11333C13.296 2.65751 13.2451 2.11878 13.0371 1.686C12.758 1.10492 12.2557 0.741138 11.5448 0.605117C11.2294 0.544749 10.683 0.52587 10.4695 0.567898ZM11.7056 1.34338C12.0329 1.46722 12.266 1.66617 12.4151 1.949L12.5372 2.18045V3.73125C12.5372 5.2188 12.5333 5.29027 12.4417 5.48432C12.3126 5.7578 12.0927 5.96983 11.7955 6.10702C11.5874 6.20317 11.4654 6.22425 11.0236 6.24025C10.3791 6.26367 9.99477 6.16788 9.69149 5.90834C9.27112 5.54846 9.2214 5.29355 9.24073 3.5964C9.25574 2.2793 9.2566 2.26869 9.37194 2.02286C9.64681 1.43697 10.1385 1.19963 11.0089 1.23276C11.3207 1.24463 11.5342 1.27852 11.7056 1.34338ZM10.4034 1.82458C10.1971 1.91412 10.0978 2.00843 9.98151 2.2254C9.89125 2.39379 9.8842 2.48005 9.87057 3.58457C9.85358 4.96563 9.88249 5.18176 10.1196 5.44413C10.4786 5.84159 11.3596 5.84689 11.7152 5.45375C11.9194 5.22783 11.9473 5.06138 11.9663 3.95159C11.9932 2.38363 11.9239 2.09748 11.4608 1.86504C11.2813 1.77491 11.1732 1.75378 10.899 1.75518C10.6995 1.75621 10.495 1.78484 10.4034 1.82458ZM11.2022 2.48162C11.2668 2.54622 11.279 4.88414 11.2153 4.98478C11.1936 5.01903 11.0748 5.05679 10.9515 5.06866C10.7641 5.08664 10.7112 5.07419 10.63 4.99301C10.5345 4.89753 10.533 4.87447 10.5461 3.705C10.5572 2.70548 10.5702 2.50738 10.6268 2.47164C10.7236 2.41056 11.1383 2.41775 11.2022 2.48162ZM18.1336 5.27903C17.314 5.45348 16.7801 5.90168 16.5537 6.60529C16.4699 6.86574 16.4562 7.04046 16.4366 8.09815C16.4022 9.9569 16.4951 10.4374 16.9916 10.9682C17.3854 11.3892 17.9732 11.5944 18.7853 11.5944C19.5572 11.5944 20.0897 11.4253 20.4964 11.051C20.7586 10.8097 20.8882 10.6082 21.0172 10.2414C21.1096 9.97865 21.1186 9.85818 21.1358 8.66556C21.1473 7.86342 21.1354 7.23393 21.1045 7.00383C20.9891 6.14639 20.5061 5.58577 19.6619 5.32937C19.3236 5.22662 18.5063 5.19969 18.1336 5.27903ZM19.3113 5.93944C19.9623 6.07771 20.3083 6.41853 20.4219 7.03354C20.4835 7.36649 20.4866 9.48033 20.426 9.79984C20.3298 10.3068 20.056 10.6414 19.5945 10.8159C19.4142 10.884 19.2486 10.9009 18.7583 10.9009C18.1478 10.9009 18.1463 10.9006 17.8404 10.7435C17.6085 10.6244 17.4978 10.5334 17.385 10.3688C17.134 10.0026 17.1221 9.91289 17.1229 8.38363C17.1236 7.04019 17.1273 6.98104 17.2257 6.73588C17.3333 6.46784 17.6259 6.15314 17.853 6.06126C18.2623 5.89557 18.8668 5.84509 19.3113 5.93944ZM18.3176 6.48375C18.1101 6.55347 17.8787 6.79454 17.8215 7.00055C17.7939 7.10002 17.7744 7.69467 17.7742 8.44125C17.774 9.77516 17.7911 9.90952 17.9892 10.1286C18.3447 10.5217 19.2257 10.5164 19.5847 10.1192C19.8243 9.85382 19.8515 9.65294 19.8341 8.27125C19.8199 7.13391 19.8146 7.07143 19.7172 6.88907C19.6611 6.78402 19.5327 6.6435 19.4319 6.5768C19.2736 6.47202 19.1958 6.45399 18.8597 6.44392C18.6457 6.43754 18.4018 6.45547 18.3176 6.48375ZM19.0968 7.17315C19.1574 7.23375 19.1674 7.40892 19.1674 8.40071C19.1674 9.75862 19.175 9.73214 18.7873 9.73214C18.6118 9.73214 18.5218 9.7116 18.4922 9.66472C18.4261 9.56016 18.4354 7.22327 18.5022 7.15648C18.5828 7.07588 19.0115 7.08788 19.0968 7.17315ZM0.895033 10.5145C0.546441 10.6029 0.239699 10.8793 0.156046 11.1806C0.127772 11.2825 0.108803 11.9185 0.108668 12.7715C0.108398 14.1413 0.11177 14.1969 0.201581 14.311C0.321913 14.464 0.558129 14.4737 0.691002 14.3311C0.77924 14.2364 0.782656 14.1797 0.782656 12.8077C0.782656 11.472 0.78805 11.3762 0.868557 11.2767L0.954412 11.1706L2.34069 11.1565C3.94209 11.1403 4.036 11.1537 4.10981 11.4079C4.14329 11.5234 4.15417 12.7346 4.14491 15.3212L4.13147 19.0673L4.02534 19.1533C3.92569 19.234 3.82945 19.2392 2.44412 19.2392H0.968976L0.875839 19.1207C0.785084 19.0054 0.782656 18.9553 0.782656 17.1957V15.3891L0.678641 15.2914C0.531428 15.1531 0.319396 15.1623 0.201581 15.3121C0.110736 15.4276 0.108398 15.4769 0.108398 17.2848V19.139L0.23399 19.3794C0.32542 19.5544 0.419276 19.6568 0.578761 19.7554L0.797895 19.891L2.36384 19.9039C3.4248 19.9126 3.99123 19.9004 4.1205 19.866C4.25005 19.8314 4.37825 19.746 4.51998 19.5998C4.78469 19.3265 4.8282 19.1389 4.8282 18.2705C4.8282 17.7807 4.842 17.621 4.88439 17.6212C5.09872 17.622 6.51457 17.9203 6.92398 18.0509C7.43655 18.2145 10.0203 19.4418 11.0089 19.9914C11.5517 20.2931 11.8824 20.4184 12.3527 20.5003C12.7301 20.566 13.4245 20.5334 13.7958 20.4326C14.0604 20.3608 17.578 18.6223 17.9313 18.3889C18.0791 18.2911 18.1136 18.2407 18.1249 18.1053C18.1414 17.9084 18.0157 17.7558 17.8369 17.7558C17.7727 17.7558 16.827 18.2078 15.7355 18.7603C13.5204 19.8815 13.441 19.9099 12.682 19.8549C12.2165 19.8211 11.8967 19.7106 11.3011 19.3779C10.7065 19.0457 8.36954 17.8985 7.77246 17.6458C7.06211 17.345 6.30905 17.1521 5.19905 16.9865L4.8282 16.9312V14.8038V12.6764H7.31478C9.46849 12.6764 9.83407 12.6861 10.0455 12.7487C10.2754 12.8168 10.3683 12.8992 11.6276 14.1517C12.4897 15.0092 12.9972 15.5479 13.0547 15.6668C13.3466 16.2698 12.819 16.9105 12.1845 16.7235C12.0294 16.6778 11.7886 16.4604 10.7591 15.4366C9.41613 14.1011 9.39365 14.0853 9.16391 14.3151C8.933 14.546 8.94779 14.5669 10.3009 15.924C11.7465 17.3737 11.8103 17.4191 12.4024 17.418C12.8223 17.4172 13.0691 17.3245 13.3666 17.0558C13.5499 16.8902 13.7734 16.5238 13.7734 16.389C13.7734 16.3525 13.7904 16.3121 13.8113 16.2992C13.8322 16.2863 15.6274 15.8293 17.8007 15.2837C20.4586 14.6163 21.7962 14.2994 21.8869 14.3157C22.126 14.3585 22.2984 14.498 22.3816 14.7159C22.479 14.9709 22.444 15.1931 22.2778 15.3756C22.2004 15.4606 21.5565 15.8128 20.494 16.3513C18.6914 17.2649 18.6469 17.296 18.7587 17.566C18.7924 17.6474 18.8722 17.7266 18.955 17.7609C19.0903 17.817 19.1454 17.7929 20.8243 16.9444C22.6664 16.0134 22.7932 15.9301 22.9967 15.517C23.2339 15.0354 23.0798 14.3156 22.6631 13.959C22.444 13.7715 22.0664 13.6204 21.8168 13.6204C21.689 13.6204 14.6151 15.3617 13.8579 15.5796C13.8056 15.5946 13.7522 15.5335 13.669 15.3634C13.578 15.1774 13.2443 14.8201 12.1236 13.709C10.6037 12.2021 10.5082 12.1268 10.0111 12.0454C9.86765 12.0219 8.64581 12.0026 7.2959 12.0024L4.84151 12.0021L4.81557 11.6021C4.77835 11.0271 4.62229 10.7582 4.22074 10.5771C4.06103 10.5051 3.87786 10.4954 2.53573 10.4883C1.70751 10.4839 0.969201 10.4957 0.895033 10.5145Z" fill="#FF4949"/>
</svg>
