<svg width="20" height="22" viewBox="0 0 20 22" fill="none" xmlns="http://www.w3.org/2000/svg">
<path fill-rule="evenodd" clip-rule="evenodd" d="M2.23675 0.135074C2.06625 0.228314 2.05102 0.289317 2.05102 0.879501V1.44946H1.51238C0.953692 1.44946 0.770021 1.49263 0.714589 1.63705C0.681074 1.72439 0.681074 20.945 0.714589 21.0324C0.788925 21.226 0.591633 21.2199 6.79721 21.2199H12.6206L12.6086 20.8794L12.5967 20.5389L6.973 20.5284L1.34935 20.518V11.3345V2.15113H6.46739H11.5854V3.38705V4.62298L11.685 4.73879L11.7845 4.85461L13.047 4.86716L14.3095 4.8797V6.24122V7.60271L14.6501 7.59069L14.9906 7.57873V5.9788V4.37892L13.5241 2.91417L12.0577 1.44946H7.38455H2.71141V1.11926V0.789069H9.19151H15.6716V4.52441V8.25975H16.0231H16.3745L16.3636 4.27317L16.3526 0.286593L16.2368 0.186998L16.121 0.0874023L9.22015 0.0886406C4.30465 0.0895486 2.29557 0.102922 2.23675 0.135074ZM13.0713 3.41L13.8341 4.17358H13.0606H12.2871V3.41C12.2871 2.99003 12.2919 2.64642 12.2978 2.64642C12.3037 2.64642 12.6518 2.99003 13.0713 3.41ZM2.38121 3.164V3.51653L2.72173 3.50452L3.06224 3.49255L3.07421 3.15203L3.08622 2.81152H2.7337H2.38121V3.164ZM3.74327 3.164V3.51653L4.08379 3.50452L4.4243 3.49255L4.43627 3.15203L4.44828 2.81152H4.09576H3.74327V3.164ZM5.10533 3.164V3.51653L5.44584 3.50452L5.78636 3.49255L5.79833 3.15203L5.81034 2.81152H5.45781H5.10533V3.164ZM6.46739 3.16235V3.51389L8.68589 3.50324L10.9044 3.49255V3.16235V2.83216L8.68589 2.82147L6.46739 2.81082V3.16235ZM2.05102 5.88647V6.23768L6.47771 6.22719L10.9044 6.21667V5.88647V5.55627L6.47771 5.54575L2.05102 5.53527V5.88647ZM2.05102 7.24853V7.59973L6.47771 7.58925L10.9044 7.57873V7.24853V6.91833L6.47771 6.90781L2.05102 6.89732V7.24853ZM2.05102 8.61059V8.96179L6.47771 8.95131L10.9044 8.94078V8.61059V8.28039L6.47771 8.26987L2.05102 8.25938V8.61059ZM14.5778 8.29158C14.5324 8.30086 14.3065 8.49956 14.0759 8.73305C13.2871 9.53155 12.3858 10.019 11.3265 10.22C11.1397 10.2554 10.7042 10.2961 10.3587 10.3104C9.76353 10.335 9.72547 10.3416 9.63636 10.4364L9.54234 10.5366V13.5566C9.54234 16.7403 9.54184 16.7304 9.73645 17.3401C9.97585 18.0901 10.524 18.815 11.1933 19.2668C11.6395 19.5679 14.5682 21.2199 14.6559 21.2199C14.7426 21.2199 17.6751 19.5684 18.1231 19.2673C18.8294 18.7925 19.3972 17.9878 19.6428 17.1131C19.7347 16.7861 19.7357 16.7529 19.7482 13.656L19.7607 10.5291L19.6647 10.4331C19.5756 10.3439 19.5243 10.3352 18.9379 10.3098C17.3696 10.2419 16.2899 9.78703 15.2709 8.76483C14.847 8.33958 14.7308 8.26025 14.5778 8.29158ZM15.362 9.77061C16.3024 10.5145 17.6087 10.9807 18.7592 10.9832L19.1021 10.9839L19.0876 13.8009C19.0737 16.5298 19.0705 16.6277 18.9849 16.9333C18.7792 17.6686 18.34 18.2923 17.7433 18.6963C17.5274 18.8426 14.693 20.477 14.6553 20.477C14.5962 20.477 11.6187 18.7415 11.4148 18.5883C11.0797 18.3364 10.7503 17.9311 10.5514 17.5259C10.2352 16.8818 10.2485 17.0357 10.2333 13.8421L10.2197 10.9839H10.5522C11.4737 10.9839 12.6298 10.6382 13.45 10.1176C13.8195 9.88296 14.285 9.51425 14.5142 9.27465L14.657 9.12541L14.9063 9.36637C15.0435 9.49894 15.2485 9.68084 15.362 9.77061ZM2.05102 9.97265V10.3235H5.45616H8.86131V9.97265V9.62181H5.45616H2.05102V9.97265ZM2.05102 11.3347V11.6855H5.45616H8.86131V11.3347V10.9839H5.45616H2.05102V11.3347ZM13.9015 11.4166C13.3452 11.5425 12.9958 11.6908 12.5554 11.9878C11.8491 12.4642 11.3192 13.1873 11.0622 14.0255C10.961 14.3556 10.9505 14.4515 10.9482 15.07C10.946 15.6592 10.9582 15.7944 11.0388 16.0723C11.4056 17.338 12.3589 18.2994 13.6305 18.6864C13.9618 18.7871 14.066 18.799 14.6397 18.8016C15.1854 18.804 15.3268 18.7908 15.601 18.7117C16.9382 18.3262 17.8958 17.3685 18.2814 16.0313C18.3605 15.7571 18.3737 15.6157 18.3713 15.07C18.3687 14.4963 18.3568 14.3922 18.256 14.0608C17.8718 12.7981 16.9095 11.8383 15.664 11.4756C15.2673 11.36 14.2952 11.3276 13.9015 11.4166ZM15.25 12.0814C15.9847 12.2332 16.572 12.5935 17.0463 13.1835C17.4809 13.7242 17.6997 14.3529 17.7029 15.07C17.7054 15.6193 17.6241 15.9675 17.3753 16.4734C17.2132 16.8032 17.1232 16.9248 16.8089 17.2392C16.4945 17.5535 16.3729 17.6435 16.0431 17.8056C15.5372 18.0544 15.189 18.1357 14.6397 18.1332C12.5936 18.1242 11.144 16.1813 11.7193 14.2191C12.1613 12.7113 13.7228 11.7659 15.25 12.0814ZM2.05102 12.6968V13.0476H5.45616H8.86131V12.6968V12.3459H5.45616H2.05102V12.6968ZM15.3053 13.4294C15.2819 13.5032 15.0931 14.13 14.8857 14.8224C14.6783 15.5148 14.5005 16.0896 14.4905 16.0997C14.4804 16.1098 14.3376 15.9844 14.173 15.8209L13.8739 15.5237L13.6373 15.7628L13.4008 16.0018L13.972 16.5678C14.8627 17.4504 14.8006 17.5041 15.4656 15.2764C15.7401 14.357 15.9733 13.5753 15.9839 13.5391C15.9989 13.4881 15.9347 13.4536 15.6965 13.3844C15.5278 13.3354 15.3804 13.2952 15.3688 13.2952C15.3573 13.2952 15.3287 13.3556 15.3053 13.4294ZM2.05102 16.7829V17.1338H5.45616H8.86131V16.7829V16.4321H5.45616H2.05102V16.7829ZM2.05102 18.145V18.4958H5.45616H8.86131V18.145V17.7942H5.45616H2.05102V18.145ZM2.05102 19.5071V19.8579H5.45616H8.86131V19.5071V19.1562H5.45616H2.05102V19.5071Z" fill="#FF4949"/>
</svg>
