<svg width="23" height="22" viewBox="0 0 23 22" fill="none" xmlns="http://www.w3.org/2000/svg">
<path fill-rule="evenodd" clip-rule="evenodd" d="M8.82002 0.415581C8.45813 0.482283 8.08236 0.642186 7.7846 0.856087C7.56917 1.01084 7.56891 1.01093 7.32183 0.959633C7.17787 0.92973 6.95117 0.919777 6.77914 0.935754C6.01904 1.00639 5.47717 1.4338 5.26122 2.13299C5.0997 2.656 5.17487 3.62777 5.43549 4.38529C5.51585 4.61883 5.52419 4.75075 5.52419 5.78922C5.52419 7.3277 5.60228 7.71953 6.04314 8.39262C6.23967 8.6927 6.78595 9.25665 6.88011 9.25665C6.90726 9.25665 6.91883 9.51945 6.91127 9.9651L6.89927 10.6736L4.30189 12.0594C1.86049 13.362 1.68972 13.4608 1.45801 13.7046C1.30073 13.8701 1.17431 14.0562 1.10878 14.2186L1.00607 14.4732L0.993756 16.9293L0.981445 19.3854L1.09001 19.494L1.19853 19.6025H7.84052C13.1355 19.6025 14.4785 19.6135 14.4627 19.6571C14.253 20.2355 14.2375 20.2994 14.2787 20.4167C14.3022 20.4836 14.3723 20.5669 14.4345 20.6017C14.5368 20.6592 14.626 20.6497 15.3873 20.5002L16.2271 20.3352L16.7402 20.8419C17.1799 21.2762 17.2732 21.3486 17.393 21.3486C17.6556 21.3486 17.6968 21.2583 18.0745 19.8537C18.2666 19.1396 18.4336 18.5553 18.4456 18.5553C18.4576 18.5553 18.6246 19.1396 18.8166 19.8537C19.1944 21.2583 19.2356 21.3486 19.4982 21.3486C19.618 21.3486 19.7115 21.276 20.153 20.8399L20.6681 20.3312L21.4667 20.4907C21.9059 20.5785 22.3005 20.6502 22.3436 20.6502C22.4537 20.6502 22.6363 20.4551 22.6363 20.3375C22.6363 20.2834 22.329 19.3788 21.9534 18.3274L21.2706 16.4156L21.4851 16.1865C21.965 15.674 22.3134 15.0464 22.4952 14.3669C22.6518 13.7815 22.6593 12.8629 22.5118 12.3124C22.2967 11.5094 21.9787 10.9582 21.3916 10.3707C20.7939 9.77264 20.1894 9.42917 19.3777 9.2264C18.963 9.12286 17.928 9.1229 17.513 9.22653C16.76 9.41455 16.1006 9.77565 15.5508 10.3009C15.0285 10.7999 14.6821 11.3573 14.4497 12.0723C14.3951 12.2404 14.3281 12.3779 14.3009 12.3779C14.2737 12.3779 13.5459 11.9948 12.6836 11.5266L11.1158 10.6754L11.1138 9.96602C11.1126 9.52988 11.1283 9.25665 11.1546 9.25665C11.2414 9.25665 11.807 8.67838 11.9801 8.4127C12.4262 7.728 12.5087 7.31674 12.5087 5.77731V4.61923L12.7567 4.3515C13.1829 3.89131 13.5237 3.30434 13.7697 2.60694C13.9334 2.14264 13.9378 2.03844 13.7995 1.90006C13.6975 1.79813 13.6768 1.79494 13.2832 1.82083C12.6186 1.86448 12.3384 1.73985 11.5128 1.03306C10.8279 0.446837 9.85753 0.224292 8.82002 0.415581ZM10.1894 1.11325C10.5676 1.21391 10.864 1.3822 11.206 1.69039C11.7614 2.19096 12.2705 2.45651 12.7924 2.51784C12.9245 2.53334 13.0326 2.5635 13.0326 2.5848C13.0326 2.60611 12.9612 2.76544 12.8738 2.93892C12.4108 3.85913 11.8218 4.39891 11.1214 4.5448C10.8256 4.60643 10.288 4.5747 9.91135 4.47334C9.29872 4.30854 8.60887 3.8607 8.19621 3.35996C7.76754 2.8397 7.76745 2.83961 7.62998 2.83961C7.52805 2.83961 7.34349 2.96437 6.7883 3.40859C6.39717 3.72149 6.06217 3.96215 6.04384 3.94334C5.95893 3.85616 5.86434 3.16347 5.88202 2.75859C5.90725 2.18123 6.041 1.93297 6.44091 1.72125C6.65206 1.60946 7.24522 1.60592 7.4001 1.71553C7.57878 1.842 7.72056 1.81157 7.97611 1.59178C8.42478 1.20597 8.85769 1.05912 9.56212 1.05379C9.77821 1.05218 10.0605 1.07894 10.1894 1.11325ZM7.86082 4.02196C8.41037 4.58029 9.0612 4.96575 9.78039 5.15878C10.2831 5.29371 11.1508 5.29716 11.5414 5.16577L11.8181 5.07265L11.7996 6.12789C11.7829 7.0852 11.772 7.20831 11.683 7.45477C11.4794 8.01795 11.0556 8.52729 10.5662 8.7969C10.0643 9.0734 9.91039 9.10387 9.01646 9.10387C8.28592 9.10387 8.18102 9.09426 7.91683 9.00294C7.54551 8.87464 7.15647 8.62346 6.8743 8.32985C6.61264 8.05758 6.33653 7.51567 6.26931 7.14235C6.24364 6.9999 6.22365 6.40076 6.22487 5.81092L6.22705 4.73853L6.86876 4.22731C7.22165 3.94609 7.52076 3.71529 7.53342 3.71438C7.54608 3.71342 7.69341 3.85184 7.86082 4.02196ZM8.09266 9.7622C8.68089 9.87596 9.94558 9.8241 10.337 9.67023C10.4072 9.64259 10.4134 9.68358 10.4134 10.1801V10.72L9.71491 11.4175L9.01646 12.1149L8.318 11.4175L7.61955 10.72V10.1801C7.61955 9.68358 7.6257 9.64259 7.69594 9.67023C7.73798 9.68677 7.91648 9.72815 8.09266 9.7622ZM18.9829 9.87273C19.9485 10.0221 20.8308 10.5952 21.3722 11.4247C21.7603 12.019 21.9141 12.5561 21.9141 13.3164C21.9141 14.0753 21.7597 14.6156 21.3752 15.2025C20.3263 16.8034 18.2393 17.2784 16.6233 16.2839C15.4025 15.5326 14.7494 14.0765 15.015 12.6982C15.3789 10.8103 17.1039 9.582 18.9829 9.87273ZM17.8418 10.5895C16.5946 10.8603 15.6533 12.0331 15.6533 13.3164C15.6533 14.5083 16.4748 15.6245 17.6162 15.9835C18.5899 16.2898 19.6654 16.0191 20.4142 15.2792C21.5111 14.1955 21.5104 12.4471 20.4126 11.3494C19.7343 10.671 18.774 10.3872 17.8418 10.5895ZM18.9458 11.2879C19.6987 11.484 20.2786 12.0658 20.4758 12.8228C20.7586 13.9084 20.0637 15.0537 18.9458 15.3449C17.8534 15.6295 16.7091 14.9378 16.4171 13.8166C16.0283 12.3241 17.4533 10.8992 18.9458 11.2879ZM7.85135 11.9549L8.49681 12.6014L7.77111 13.205C7.16416 13.7099 7.03634 13.7988 6.98981 13.7481C6.92271 13.6749 6.01738 12.0958 5.99695 12.0163C5.98836 11.9828 6.22037 11.8301 6.57187 11.6377C6.896 11.4604 7.17127 11.3137 7.18358 11.3118C7.19585 11.3099 7.49636 11.5993 7.85135 11.9549ZM11.4734 11.6552L12.0706 11.9802L11.9295 12.2282C11.8519 12.3646 11.6215 12.7727 11.4174 13.135C11.2133 13.4974 11.0298 13.7945 11.0097 13.7952C10.9895 13.796 10.6497 13.5277 10.2546 13.199L9.53611 12.6014L10.1817 11.9547C10.5367 11.5991 10.8383 11.3131 10.8517 11.3191C10.8652 11.3252 11.145 11.4764 11.4734 11.6552ZM17.6744 12.196C17.4496 12.4207 17.3979 12.4987 17.3979 12.6127C17.3979 12.912 17.7398 13.0667 17.9813 12.8767L18.0964 12.7862V13.4005C18.0964 13.9256 18.0865 14.0149 18.0289 14.0149C17.9114 14.0149 17.7471 14.2184 17.7471 14.3641C17.7471 14.4491 17.7867 14.5386 17.8543 14.6062C17.9552 14.707 17.9898 14.7133 18.4456 14.7133C18.9014 14.7133 18.936 14.707 19.0369 14.6062C19.1044 14.5386 19.144 14.4491 19.144 14.3641C19.144 14.2184 18.9798 14.0149 18.8623 14.0149C18.8035 14.0149 18.7948 13.8936 18.7948 13.0744C18.7948 12.1339 18.7948 12.1338 18.6876 12.0267C18.5937 11.9327 18.5418 11.9195 18.2657 11.9195H17.9509L17.6744 12.196ZM6.01145 13.4717C6.36731 14.0946 6.69183 14.6288 6.73264 14.6588C6.88329 14.7696 7.03704 14.7218 7.33008 14.4732C7.48575 14.3412 7.63011 14.2331 7.65089 14.2331C7.67167 14.2331 7.73907 14.3363 7.80067 14.4623L7.91268 14.6915L7.59152 15.1713L7.27032 15.6512V17.2776V18.904H5.87342H4.47651V17.9635C4.47651 17.0231 4.47651 17.023 4.36934 16.9159C4.30181 16.8483 4.21232 16.8087 4.12728 16.8087C4.04224 16.8087 3.95276 16.8483 3.88522 16.9159C3.77805 17.023 3.77805 17.0231 3.77805 17.9635V18.904H2.73037H1.68269V16.8165C1.68269 14.4785 1.68667 14.4434 1.9836 14.1551C2.13856 14.0046 5.24162 12.3086 5.3243 12.3292C5.34639 12.3347 5.65563 12.8488 6.01145 13.4717ZM13.7796 12.9118L14.2428 13.1603L14.27 13.5767C14.3329 14.5379 14.7028 15.4161 15.338 16.1121L15.619 16.42L15.2583 17.4328C15.06 17.9899 14.8597 18.5488 14.8132 18.6749L14.7288 18.904H14.4918H14.2549V17.9635C14.2549 17.0231 14.2549 17.023 14.1477 16.9159C14.0802 16.8483 13.9907 16.8087 13.9056 16.8087C13.8206 16.8087 13.7311 16.8483 13.6636 16.9159C13.5564 17.023 13.5564 17.0231 13.5564 17.9635V18.904H12.1595H10.7626V17.2776V15.6512L10.4414 15.1713L10.1202 14.6915L10.2322 14.4623C10.2938 14.3363 10.3612 14.2331 10.382 14.2331C10.4028 14.2331 10.5472 14.3412 10.7028 14.4732C11.0092 14.7332 11.1641 14.7743 11.3197 14.6369C11.3672 14.5949 11.6175 14.1873 11.8758 13.7311C12.134 13.2749 12.4218 12.77 12.5152 12.609L12.685 12.3162L13.0007 12.4898C13.1743 12.5853 13.5248 12.7752 13.7796 12.9118ZM9.37263 13.3639C9.5489 13.5101 9.71923 13.6548 9.75114 13.6855C9.79921 13.7316 9.78222 13.7949 9.6524 14.0527L9.49555 14.3641H9.01646H8.53736L8.38052 14.0527C8.25069 13.7949 8.23371 13.7316 8.28177 13.6855C8.43774 13.5357 8.98507 13.0981 9.01646 13.0981C9.0361 13.0981 9.1964 13.2178 9.37263 13.3639ZM9.79646 15.4685L10.0641 15.8745V17.3893V18.904H9.01646H7.96878V17.3893V15.8745L8.23646 15.4685L8.50414 15.0625H9.01646H9.52877L9.79646 15.4685ZM16.6001 17.0662C16.9805 17.2571 17.4193 17.4023 17.7467 17.4457C17.8857 17.4642 17.9654 17.496 17.9654 17.5331C17.9654 17.5826 17.4977 19.3306 17.2847 20.0769L17.2179 20.3112L16.8549 19.9568C16.6503 19.7572 16.4545 19.6025 16.4062 19.6025C16.3591 19.6025 16.0701 19.6532 15.7642 19.7152C15.4582 19.7772 15.1973 19.8174 15.1845 19.8046C15.1522 19.7723 16.1814 16.896 16.2252 16.896C16.2447 16.896 16.4134 16.9726 16.6001 17.0662ZM21.2157 18.3386C21.4986 19.132 21.7212 19.79 21.7106 19.8007C21.6998 19.8114 21.4372 19.7713 21.1269 19.7116C20.8166 19.6518 20.526 19.6028 20.4811 19.6027C20.4361 19.6026 20.2359 19.762 20.0363 19.9568L19.6733 20.3112L19.6065 20.0769C19.3935 19.3306 18.9258 17.5826 18.9258 17.5331C18.9258 17.4956 19.0077 17.464 19.155 17.4447C19.4651 17.4041 20.1208 17.181 20.3882 17.0252C20.5082 16.9552 20.6278 16.8975 20.6539 16.897C20.68 16.8964 20.9328 17.5452 21.2157 18.3386Z" fill="#FF4949"/>
</svg>
