<svg width="25" height="22" viewBox="0 0 25 22" fill="none" xmlns="http://www.w3.org/2000/svg">
<path fill-rule="evenodd" clip-rule="evenodd" d="M2.13808 0.841271C1.63865 0.974909 1.19169 1.32722 0.965259 1.76582C0.736643 2.20864 0.745239 1.84918 0.744635 11.018C0.744263 16.6452 0.760387 19.7061 0.791241 19.8699C0.914749 20.525 1.41064 21.1941 1.98934 21.4862C2.5849 21.7868 1.87154 21.7683 12.8505 21.769C23.883 21.7698 23.1224 21.7903 23.6458 21.4773C24.0565 21.2317 24.3401 20.8454 24.4718 20.3525C24.5221 20.1641 24.534 18.9314 24.5344 13.8453C24.535 7.01627 24.545 7.28805 24.2774 6.83142C24.1127 6.55035 23.7426 6.21895 23.4299 6.07234C23.167 5.94911 23.1521 5.94767 21.9909 5.93332L20.8177 5.91877V5.41689C20.8177 5.14083 20.7967 4.80236 20.771 4.66468C20.626 3.88785 20.0221 3.28532 19.2396 3.13695C19.0842 3.10745 17.2837 3.09012 14.3785 3.09012H9.76413L8.58518 2.07324C7.93674 1.51397 7.32389 1.01468 7.22324 0.963757C6.86768 0.783792 6.62443 0.766692 4.47075 0.769852C2.79646 0.772314 2.34406 0.786161 2.13808 0.841271ZM6.69719 1.76024C6.79482 1.79514 7.34996 2.23796 8.02149 2.81671C8.65743 3.36473 9.23808 3.85951 9.31182 3.91629L9.44588 4.01945L14.2141 4.01973C17.265 4.01987 19.0428 4.03678 19.1503 4.06666C19.4083 4.13831 19.6211 4.3041 19.748 4.53239C19.8534 4.72184 19.8635 4.78968 19.8642 5.32051L19.8651 5.90135L12.8486 5.92458L5.83217 5.94781L5.57098 6.07611C5.08922 6.31267 4.7764 6.65699 4.56744 7.18071C4.48989 7.37513 4.48315 7.78222 4.46141 13.6148L4.43817 19.8413L4.33334 20.0375C4.16881 20.3454 3.96603 20.547 3.68016 20.6869C3.3101 20.8679 2.8275 20.8682 2.47789 20.6875C2.18231 20.5348 1.94738 20.2991 1.80463 20.012L1.69664 19.7949L1.68391 11.1521C1.66979 1.58571 1.64771 2.29256 1.97019 1.97998C2.25545 1.70355 2.28575 1.70021 4.50787 1.70021C6.04257 1.70021 6.56964 1.71466 6.69719 1.76024ZM23.1158 6.95962C23.217 7.01692 23.3634 7.15427 23.4411 7.26486L23.5824 7.46597L23.5952 13.7466C23.6096 20.7589 23.6325 20.2612 23.2809 20.5788C23.182 20.6681 23.0212 20.7634 22.9236 20.7906C22.8013 20.8245 19.9809 20.8399 13.8593 20.8401C8.9716 20.8402 4.97254 20.8326 4.97254 20.823C4.97254 20.8134 5.02426 20.713 5.0875 20.5999C5.38981 20.059 5.36514 20.6167 5.39074 13.7505L5.41397 7.52034L5.55337 7.2953C5.64491 7.14749 5.76308 7.03309 5.89755 6.96209L6.10238 6.85391L14.5171 6.85466L22.9319 6.85545L23.1158 6.95962ZM13.55 8.32258C12.369 8.53586 11.4255 9.03194 10.5659 9.89157C9.81636 10.6411 9.35072 11.4481 9.07944 12.4675C8.93173 13.0227 8.87908 14.0202 8.96607 14.6152C9.31164 16.9785 11.0672 18.8244 13.4527 19.3326C14.0003 19.4493 15.0396 19.4426 15.6134 19.3188C16.7856 19.0659 17.7903 18.5011 18.5879 17.6471C20.1473 15.9774 20.5393 13.5075 19.5677 11.4736C18.7603 9.78326 17.2632 8.63498 15.4561 8.31984C14.9495 8.23151 14.0472 8.23281 13.55 8.32258ZM15.323 9.2475C16.3511 9.44257 17.1833 9.89696 17.8963 10.6527C18.2693 11.0482 18.4293 11.2763 18.6739 11.7613C19.8263 14.0469 18.8718 16.8741 16.566 18.0046C15.3321 18.6096 14.0267 18.6562 12.7372 18.1412C12.0149 17.8527 11.2556 17.2613 10.7482 16.5918C10.4667 16.2204 10.1151 15.4778 9.98773 14.9856C9.83676 14.4022 9.81371 13.5207 9.93434 12.941C10.2867 11.2479 11.4714 9.91662 13.0969 9.38718C13.7347 9.17943 14.6586 9.12148 15.323 9.2475ZM14.0622 10.6202C13.7688 10.6935 13.35 10.9413 13.1466 11.1619C13.0423 11.2751 12.891 11.5074 12.8104 11.6781C12.6801 11.9541 12.6639 12.0348 12.6634 12.4067C12.6627 12.8873 12.7445 13.1572 13.001 13.5195L13.1639 13.7496L13.0527 13.8216C12.6573 14.0778 12.2776 14.5725 12.0886 15.0778C11.9923 15.3352 11.972 15.4864 11.9533 16.0872L11.9313 16.7937L12.0728 16.9352L12.2142 17.0766H14.5137H16.8133L16.9336 16.9336C17.0497 16.7956 17.0539 16.7694 17.0539 16.1766C17.0539 15.487 16.995 15.1889 16.7712 14.7455C16.6345 14.4747 16.1182 13.894 15.922 13.7905C15.8416 13.748 15.8469 13.7302 15.9984 13.5318C16.2591 13.1902 16.3336 12.9398 16.3336 12.4056C16.3336 11.9735 16.3227 11.9175 16.1818 11.6315C15.9864 11.2347 15.5827 10.8519 15.2084 10.7084C14.9052 10.5922 14.3468 10.5492 14.0622 10.6202ZM15.03 11.673C15.5155 12.0101 15.5565 12.7608 15.1101 13.1364C14.5237 13.6299 13.6527 13.2575 13.5806 12.4826C13.5646 12.3104 13.5873 12.2164 13.6941 12.0133C13.8034 11.8054 13.8737 11.735 14.0816 11.6255C14.2999 11.5105 14.3711 11.4953 14.5886 11.517C14.7608 11.5341 14.9018 11.584 15.03 11.673ZM15.1175 14.429C15.6666 14.6344 16.0746 15.1997 16.1147 15.8104L16.1367 16.1472H14.4975H12.8584L12.8862 15.8152C12.9795 14.7029 14.0583 14.0327 15.1175 14.429Z" fill="#FF4949"/>
</svg>
