<svg width="22" height="22" viewBox="0 0 22 22" fill="none" xmlns="http://www.w3.org/2000/svg">
<path fill-rule="evenodd" clip-rule="evenodd" d="M10.6583 0.316821C10.4446 0.369683 10.3938 0.395777 6.90648 2.243C5.3067 3.09044 3.92976 3.83683 3.84663 3.90167C3.50842 4.16547 3.32256 4.75299 3.43971 5.18786L3.49788 5.40377L2.98903 5.42502C2.60559 5.44104 2.42053 5.46907 2.23796 5.53879C1.91948 5.66041 1.57035 5.98091 1.41766 6.29181L1.29988 6.53167L1.27881 12.4123L1.25773 18.2929L0.921123 18.3053C0.420492 18.3239 0.393555 18.3589 0.393555 18.99C0.393555 19.6089 0.439967 19.8598 0.62372 20.2346C0.817295 20.6293 1.16503 20.9617 1.60361 21.1711L1.93221 21.328L11.0587 21.3394C17.1757 21.347 20.2523 21.3365 20.3886 21.3076C20.732 21.2346 21.0539 21.0509 21.3492 20.7594C21.8196 20.2951 21.9752 19.865 21.9762 19.0257C21.9768 18.596 21.9663 18.5227 21.8908 18.4267C21.8124 18.3271 21.7738 18.3162 21.4587 18.3051L21.1127 18.2929L21.0916 12.4123L21.0705 6.53167L20.954 6.2945C20.8256 6.03323 20.52 5.72166 20.2637 5.59094C20.0405 5.47708 19.6759 5.41456 19.2352 5.41456H18.8697L18.9293 5.19325C19.0418 4.77558 18.8953 4.26327 18.5764 3.95908C18.472 3.85943 17.6571 3.40353 16.2733 2.67058C14.0471 1.49151 13.9369 1.44467 13.7843 1.61342C13.6915 1.7159 13.6938 1.96916 13.7883 2.05048C13.8288 2.08543 14.7915 2.60414 15.9276 3.20321C18.1092 4.35361 18.2771 4.46195 18.332 4.75455C18.3651 4.93117 18.2717 5.23283 18.1498 5.34311C18.0668 5.41811 14.0286 7.56602 13.979 7.56147C13.9611 7.55982 13.4342 6.97113 12.8082 6.25324C11.2612 4.47911 11.3499 4.57147 11.1919 4.57147C11.0168 4.57147 10.8901 4.70067 10.8901 4.8792C10.8901 5.00145 11.0419 5.19157 12.1385 6.44255C12.8251 7.22587 13.3705 7.88214 13.3504 7.90094C13.3304 7.91974 12.9536 8.12542 12.5131 8.35798C11.5793 8.85103 11.3455 8.92096 10.9217 8.83417C10.7114 8.79108 10.0167 8.44036 7.47557 7.09418C5.72509 6.16686 4.26038 5.37882 4.22062 5.34294C4.18087 5.30711 4.11697 5.19557 4.07861 5.09507C3.98713 4.85555 4.02709 4.64853 4.20056 4.46313C4.29515 4.36208 5.23504 3.84215 7.37018 2.7097C9.03951 1.82436 10.5171 1.05402 10.6537 0.997917C10.863 0.911879 10.9568 0.898136 11.2509 0.910445C11.5919 0.924736 11.6147 0.932619 12.2509 1.25687C12.8729 1.57388 12.9073 1.5861 13.0226 1.5308C13.1698 1.46027 13.2407 1.28533 13.1851 1.12986C13.1554 1.04644 13.0288 0.955214 12.6817 0.766866C11.9116 0.348985 11.776 0.303036 11.2695 0.288113C11.0261 0.280947 10.751 0.293846 10.6583 0.316821ZM4.92069 6.4579L5.69571 6.86891L4.30548 6.88998L2.9153 6.91106L2.83474 7.01059C2.7565 7.10729 2.75423 7.25218 2.75423 12.1804C2.75423 17.1098 2.75646 17.2535 2.83483 17.3502C2.91526 17.4496 2.9169 17.4498 3.88427 17.4498C4.77787 17.4498 4.86003 17.4435 4.94185 17.3695C5.05765 17.2647 5.05989 17.0364 4.94628 16.9228C4.86838 16.8449 4.80578 16.8385 4.12426 16.8385H3.38655V12.1804V7.52231H4.79874H6.21092V8.26179C6.21092 9.17887 6.27036 9.5081 6.53404 10.0516C6.69802 10.3896 6.78503 10.5081 7.09141 10.8111C7.60132 11.3155 8.15995 11.5865 9.225 11.8464C10.575 12.1758 12.2692 12.1397 13.5143 11.7549C13.5766 11.7356 13.588 11.7601 13.588 11.9127C13.588 12.0629 13.5264 12.1999 13.2217 12.727C12.9004 13.2829 12.8531 13.3907 12.8372 13.6046C12.8149 13.9012 12.9009 14.1529 13.0908 14.3471C13.325 14.5866 13.4383 14.6254 13.9042 14.6254C14.2748 14.6254 14.3476 14.6129 14.5067 14.5217C14.7103 14.4052 14.9218 14.1167 14.9624 13.9003C15.0247 13.5684 14.9664 13.3868 14.5859 12.727L14.2203 12.0933L14.2229 11.7996L14.2254 11.5059L14.5696 11.3407C14.8426 11.2097 14.9888 11.1009 15.2778 10.8138C15.5845 10.5092 15.6727 10.3888 15.8364 10.0516C16.1 9.5081 16.1595 9.17887 16.1595 8.26179V7.52231H17.5717H18.9838V12.1804V16.8385H12.4142C5.8841 16.8385 5.84413 16.839 5.76779 16.9234C5.66253 17.0397 5.66995 17.2437 5.78352 17.3573L5.87605 17.4498H12.6655H19.455L19.5356 17.3502C19.6139 17.2535 19.6162 17.1098 19.6162 12.1804C19.6162 7.25218 19.6139 7.10729 19.5357 7.01059L19.4551 6.91106L18.0649 6.88998L16.6747 6.86891L17.4497 6.4579L18.2247 6.04689H18.9228C19.3068 6.04689 19.703 6.06754 19.8032 6.09275C20.0378 6.15185 20.2807 6.35331 20.3795 6.57083C20.4541 6.73506 20.4574 6.99116 20.4583 12.5282L20.4593 18.3139H11.1852H1.91113L1.91206 12.5282C1.91294 6.9651 1.91602 6.73574 1.9919 6.56864C2.0843 6.3652 2.30755 6.17264 2.53199 6.10283C2.62565 6.0737 2.98991 6.05203 3.41833 6.05013L4.14572 6.04689L4.92069 6.4579ZM8.44513 8.32397C10.2528 9.28392 10.4271 9.36856 10.7536 9.44541C11.097 9.52618 11.4859 9.50354 11.8412 9.38209C11.9789 9.33505 12.414 9.12537 12.8082 8.91616C13.2023 8.70698 13.5393 8.53541 13.557 8.53491C13.5747 8.5344 13.5842 9.1072 13.5781 9.80773L13.5669 11.0814L13.2297 11.1758C12.6336 11.3425 12.1526 11.4093 11.396 11.4307C10.5741 11.4539 9.99613 11.3938 9.27529 11.2101C7.93687 10.8692 7.29582 10.3893 6.96322 9.47913C6.88367 9.26149 6.86959 9.11736 6.85332 8.35153L6.8346 7.47353L6.97595 7.54617C7.05364 7.58613 7.7148 7.93614 8.44513 8.32397ZM15.5164 8.47079C15.5003 9.11028 15.4831 9.26882 15.4067 9.47913C15.2243 9.98086 14.9142 10.3823 14.4926 10.6621C14.3698 10.7437 14.2583 10.8104 14.2448 10.8104C14.2313 10.8104 14.2203 10.2166 14.2203 9.4909V8.17141L14.8632 7.82924L15.5061 7.48702L15.5207 7.59949C15.5288 7.66138 15.5268 8.05346 15.5164 8.47079ZM14.1329 13.2077C14.3807 13.6407 14.4028 13.7954 14.2357 13.9268C14.1555 13.9899 14.0634 14.0142 13.9042 14.0142C13.6257 14.0142 13.4616 13.9015 13.4616 13.7105C13.4616 13.6035 13.8502 12.8338 13.9042 12.8338C13.9123 12.8338 14.0152 13.0021 14.1329 13.2077ZM4.41745 14.1176C4.36054 14.1746 4.31396 14.2702 4.31396 14.3303C4.31396 14.3904 4.36054 14.4861 4.41745 14.543L4.52089 14.6465H6.75704C8.93695 14.6465 8.99525 14.6444 9.07745 14.5622C9.20299 14.4366 9.18988 14.211 9.05068 14.1015C8.94155 14.0157 8.90158 14.0142 6.73027 14.0142H4.52089L4.41745 14.1176ZM4.40134 15.4742C4.35329 15.5353 4.31396 15.6103 4.31396 15.6408C4.31396 15.7571 4.41348 15.9072 4.51971 15.9512C4.59681 15.9831 5.61047 15.9936 7.8693 15.9857L11.1083 15.9744L11.1889 15.8748C11.2934 15.7458 11.2917 15.5539 11.1852 15.4474C11.1023 15.3645 11.0447 15.3631 7.79481 15.3631H4.48869L4.40134 15.4742ZM8.59731 19.02C8.7309 19.4474 9.01262 19.7934 9.38839 19.9916L9.60439 20.1055H11.1852H12.766L12.99 19.9875C13.3574 19.794 13.6405 19.4442 13.7731 19.02C13.7948 18.9505 14.013 18.9463 17.5762 18.9463H21.3562L21.3351 19.3164C21.3184 19.6095 21.289 19.7376 21.194 19.9317C21.0447 20.2367 20.7418 20.5153 20.4346 20.6302C20.2038 20.7165 20.1786 20.7168 11.1852 20.7168C2.19175 20.7168 2.16659 20.7165 1.93583 20.6302C1.62861 20.5153 1.32572 20.2367 1.17641 19.9317C1.0814 19.7376 1.05201 19.6095 1.03528 19.3164L1.0142 18.9463H4.79423C8.35736 18.9463 8.57556 18.9505 8.59731 19.02ZM13.1243 18.9808C13.1243 19.0578 12.8042 19.3826 12.6751 19.4365C12.5678 19.4814 12.2338 19.4943 11.1824 19.4943C9.66589 19.4943 9.66509 19.4942 9.39458 19.1947C9.31293 19.1043 9.24607 19.0114 9.24607 18.9883C9.24607 18.961 9.9243 18.9463 11.1852 18.9463C12.2517 18.9463 13.1243 18.9618 13.1243 18.9808Z" fill="#FF4949"/>
</svg>
