<svg width="25" height="22" viewBox="0 0 25 22" fill="none" xmlns="http://www.w3.org/2000/svg">
<path fill-rule="evenodd" clip-rule="evenodd" d="M4.07803 0.43678C2.54706 0.759674 1.31073 1.93294 0.873013 3.47842C0.768788 3.84638 0.766998 3.89696 0.767093 6.49005L0.76714 9.12746L0.898727 9.54902C1.21592 10.5653 1.78975 11.3487 2.63829 11.9239L2.86199 12.0755L2.86218 13.2389C2.86232 14.309 2.86972 14.4143 2.95411 14.5528C3.0046 14.6355 3.10124 14.7396 3.16892 14.7839C3.33616 14.8934 3.6689 14.8829 3.86209 14.7619C3.94667 14.709 4.47133 14.209 5.02801 13.6509L6.04021 12.6362H6.32896H6.61776L6.64413 13.8489C6.67145 15.1027 6.71006 15.4051 6.91159 15.9437C7.02971 16.2595 7.10356 16.3285 7.32307 16.3285C7.44232 16.3285 7.51575 16.2962 7.58168 16.2148C7.68751 16.0841 7.68242 16.0303 7.50199 15.3678L7.38011 14.9203L7.39362 12.4242L7.40709 9.9281L7.53524 9.55133C7.72033 9.00732 7.96698 8.61462 8.3957 8.18153C8.89012 7.68207 9.40813 7.38522 10.0913 7.20983C10.2763 7.16236 11.4929 7.1494 15.7664 7.1494C21.872 7.1494 21.4137 7.12421 22.1951 7.50315C23.0926 7.93837 23.7727 8.78078 24.0389 9.78681C24.1184 10.0875 24.1261 10.3319 24.1261 12.5655C24.1261 14.9812 24.1246 15.0196 24.0178 15.3886C23.783 16.1994 23.2967 16.8808 22.6043 17.3694C22.0692 17.7468 22.0774 17.7182 22.0774 19.2243C22.0774 19.9267 22.0613 20.5013 22.0417 20.5013C22.0221 20.5013 21.4763 19.9692 20.8289 19.319C20.0796 18.5663 19.5835 18.1046 19.4635 18.0484C19.2836 17.9641 19.0771 17.9601 14.8573 17.9591C9.931 17.9579 10.1087 17.9686 9.38487 17.6313C9.17764 17.5347 8.86582 17.3462 8.69189 17.2123C8.32176 16.9275 8.15216 16.8983 7.99896 17.0931C7.86878 17.2586 7.87589 17.4026 8.02288 17.5772C8.20251 17.7907 8.86407 18.2141 9.27523 18.3787C10.0571 18.6918 9.82682 18.6784 14.7539 18.6976L19.228 18.715L20.4997 19.98C21.199 20.6757 21.8176 21.2683 21.8741 21.297C22.1504 21.4368 22.5457 21.2811 22.7013 20.9713C22.774 20.8267 22.7837 20.6488 22.7837 19.4596L22.7838 18.1119L22.984 17.9803C23.7926 17.4489 24.388 16.6292 24.7008 15.6165L24.8286 15.2029L24.8453 12.7687C24.8596 10.7092 24.8507 10.2681 24.7877 9.90342C24.4863 8.15656 23.109 6.78036 21.3505 6.46891C21.1968 6.44168 20.5875 6.41941 19.9965 6.41941H18.9219V5.52957C18.9219 3.78737 18.7542 3.04513 18.1637 2.17427C17.7469 1.55951 17.5016 1.43033 17.2426 1.68931C17.0807 1.85118 17.1157 2.00966 17.3867 2.34235C17.6801 2.70269 17.8302 2.9734 17.9981 3.44526L18.1431 3.85265L18.1597 5.13603L18.1762 6.41941L14.3222 6.41978C11.8664 6.41997 10.3579 6.43801 10.1645 6.46938C8.84278 6.68381 7.67291 7.56348 7.07761 8.79058C6.76008 9.44498 6.67776 9.85463 6.64422 10.9462L6.61587 11.8702L6.23001 11.8943C6.01775 11.9075 5.79305 11.9444 5.73064 11.9761C5.66819 12.0079 5.15621 12.4924 4.59279 13.0529L3.56844 14.0718V12.9931C3.56844 11.931 3.56665 11.9114 3.45211 11.716C3.38194 11.5962 3.23721 11.455 3.08712 11.3598C2.38467 10.9146 1.83797 10.1774 1.58299 9.33181C1.4831 9.00039 1.47806 8.89419 1.46064 6.75257C1.44853 5.26573 1.46017 4.38606 1.49535 4.12152C1.6623 2.86692 2.46365 1.81059 3.61568 1.32658C4.27225 1.05068 4.27866 1.0504 9.81764 1.0504C15.0336 1.0504 15.264 1.05784 15.8031 1.24331C16.1346 1.35733 16.2419 1.35615 16.3698 1.23695C16.4859 1.12877 16.5086 0.881089 16.414 0.753457C16.3817 0.709752 16.228 0.629122 16.0726 0.574302C15.4291 0.347391 15.422 0.347155 9.78519 0.348898C4.83426 0.350452 4.46003 0.356245 4.07803 0.43678ZM3.91696 4.69567C3.7857 4.82693 3.75683 4.89145 3.75683 5.05361C3.75683 5.21576 3.7857 5.28028 3.91696 5.41154C4.04374 5.53833 4.11486 5.57162 4.25841 5.57148C4.64728 5.57111 4.88936 5.25975 4.78754 4.89089C4.72447 4.66252 4.54574 4.53555 4.28737 4.53555C4.11099 4.53555 4.05123 4.5614 3.91696 4.69567ZM5.578 4.63186C5.4215 4.75502 5.35109 5.00077 5.41067 5.21642C5.47015 5.43198 5.67182 5.57167 5.92346 5.57167C6.08542 5.57167 6.14999 5.54275 6.2812 5.41154C6.41246 5.28028 6.44133 5.21576 6.44133 5.05361C6.44133 4.89145 6.41246 4.82693 6.2812 4.69567C6.14693 4.5614 6.08717 4.53555 5.91079 4.53555C5.77025 4.53555 5.65986 4.56748 5.578 4.63186ZM7.26175 4.58947C7.12061 4.65795 7.00649 4.87605 7.00649 5.07734C7.00649 5.32291 7.25455 5.57167 7.4994 5.57167C7.84373 5.57167 8.03998 5.38121 8.04158 5.04546C8.04243 4.86174 8.01869 4.80141 7.8977 4.68046C7.78043 4.56319 7.71529 4.53616 7.55625 4.53875C7.44816 4.54049 7.31563 4.56329 7.26175 4.58947ZM12.0223 8.25217C11.3502 8.43655 10.8515 8.73755 10.398 9.23244C10.0749 9.585 9.73333 10.2164 9.63994 10.6337C9.58875 10.8626 9.56021 10.9076 9.4322 10.9611C9.20359 11.0566 8.95516 11.2987 8.83468 11.5432C8.73154 11.7526 8.72551 11.817 8.72551 12.7068C8.72551 13.5833 8.73263 13.662 8.82771 13.8396C9.22441 14.5806 10.1028 14.7391 10.7101 14.1793C11.0378 13.8773 11.0803 13.7025 11.0803 12.6597C11.0803 11.7784 11.0784 11.7612 10.9531 11.5237C10.8262 11.283 10.6124 11.0664 10.4114 10.9748C10.2759 10.9131 10.2956 10.81 10.5393 10.3035C11.0489 9.24501 12.2558 8.66949 13.4003 8.93936C13.8384 9.04259 14.2189 9.25575 14.5897 9.60558C14.849 9.85016 14.9606 10.0007 15.1046 10.2998C15.379 10.8697 15.3826 10.9184 15.1575 11.0332C14.9519 11.1381 14.7714 11.3488 14.6611 11.6128C14.5702 11.8304 14.5575 13.4384 14.6444 13.7285C14.7061 13.9342 15.0127 14.3103 15.1559 14.3557C15.3011 14.4018 15.2667 14.5014 15.015 14.7624L14.7817 15.0045L14.6141 14.8573C14.3533 14.6283 14.1691 14.5537 13.8066 14.5302C12.9636 14.4755 12.3973 15.0222 12.5352 15.7575C12.5737 15.9624 12.8481 16.2834 13.0988 16.4167C13.2554 16.5 13.3727 16.5206 13.6942 16.5211C14.055 16.5216 14.1201 16.5073 14.3536 16.3759C14.5428 16.2695 14.6521 16.165 14.7596 15.9879C14.8589 15.824 14.9999 15.6832 15.1947 15.553C15.5265 15.3314 15.7027 15.133 15.9057 14.7522C16.0096 14.5573 16.0891 14.4682 16.1906 14.4328C16.4243 14.3513 16.6384 14.1574 16.7832 13.8962L16.9203 13.6487V12.6832C16.9203 11.7831 16.9134 11.705 16.8185 11.5294C16.6867 11.2856 16.448 11.0587 16.2256 10.966C16.1285 10.9255 16.049 10.8592 16.049 10.8188C16.049 10.6634 15.7989 10.0103 15.6358 9.74019C15.249 9.09934 14.5873 8.56776 13.8779 8.32804C13.3454 8.14809 12.524 8.11451 12.0223 8.25217ZM17.6067 9.60478C17.4771 9.76939 17.4834 9.93027 17.6246 10.0715L17.7402 10.1871H19.2902C20.7869 10.1871 20.8444 10.1838 20.9643 10.0895C21.1265 9.96192 21.1334 9.72785 20.9794 9.58307C20.8719 9.48214 20.8478 9.48068 19.2873 9.48068H17.7042L17.6067 9.60478ZM17.6246 11.1976C17.4834 11.3388 17.4771 11.4997 17.6067 11.6643L17.7042 11.7884H18.9642C20.2204 11.7884 20.2245 11.7881 20.3266 11.6794C20.4715 11.5252 20.4619 11.303 20.3049 11.1796C20.1866 11.0865 20.1238 11.082 18.9605 11.082H17.7402L17.6246 11.1976ZM10.2127 11.7377L10.3503 11.8754V12.6927C10.3503 13.5894 10.3328 13.6567 10.0705 13.7653C9.89412 13.8384 9.7177 13.7975 9.5692 13.649C9.45754 13.5373 9.45551 13.5202 9.45551 12.6997V11.8642L9.58206 11.7321C9.76084 11.5455 10.0228 11.5478 10.2127 11.7377ZM16.0639 11.7219C16.2203 11.8783 16.2514 12.0919 16.2304 12.8647C16.216 13.398 16.2011 13.4942 16.1149 13.6096C15.9858 13.7824 15.769 13.8456 15.5774 13.7662C15.3291 13.6633 15.2955 13.5315 15.2955 12.6584V11.8754L15.4331 11.7377C15.6183 11.5526 15.8878 11.5458 16.0639 11.7219ZM14.0714 15.3446C14.3581 15.604 13.9223 15.9369 13.485 15.7925C13.1914 15.6956 13.139 15.4664 13.3763 15.3174C13.5632 15.2 13.9274 15.2143 14.0714 15.3446Z" fill="#FF4949"/>
</svg>
