<svg width="20" height="22" viewBox="0 0 20 22" fill="none" xmlns="http://www.w3.org/2000/svg">
<path fill-rule="evenodd" clip-rule="evenodd" d="M8.06029 0.525634C2.70712 3.67834 0.483139 5.00608 0.391732 5.10381L0.278809 5.22462V9.96447V14.7043L0.371201 14.8056C0.422037 14.8613 2.23752 15.9544 4.40566 17.2345C7.35893 18.9783 8.38013 19.5622 8.47692 19.5624C8.56988 19.5625 8.88619 19.3963 9.60616 18.969C10.1562 18.6426 10.645 18.3552 10.6924 18.3303C10.7733 18.2879 10.788 18.3089 10.9308 18.6696C11.7132 20.6465 13.8729 21.7431 15.9487 21.2176C16.6746 21.0338 17.2782 20.6956 17.84 20.1581C19.1874 18.8689 19.5405 16.8826 18.7183 15.2176C18.3031 14.3768 17.7305 13.7851 16.8581 13.2956L16.663 13.1861V9.18874C16.663 5.44057 16.6586 5.18619 16.5912 5.10858C16.4824 4.98342 8.65365 0.373741 8.51198 0.351484C8.41762 0.336661 8.31188 0.377436 8.06029 0.525634ZM9.39016 1.64342C9.87315 1.93069 10.265 2.18385 10.261 2.20598C10.2569 2.22811 9.64919 2.60261 8.91054 3.03821C8.1719 3.47377 7.53521 3.86847 7.49567 3.91532C7.32817 4.1139 7.48196 4.48417 7.73195 4.48417C7.87164 4.48417 7.86126 4.48984 9.54957 3.49097C10.5121 2.92151 11.027 2.63924 11.072 2.65632C11.1954 2.70322 12.8424 3.68286 12.8433 3.70992C12.8438 3.72446 11.2463 4.67992 9.29338 5.8331L5.74264 7.92983L4.88935 7.42561C4.42008 7.14827 4.00205 6.90259 3.96045 6.87959C3.89714 6.84461 4.13411 6.69087 5.4113 5.93818C7.02673 4.98617 7.08841 4.93853 7.03317 4.68698C7.00361 4.5525 6.8373 4.40204 6.71814 4.40204C6.60797 4.40204 6.56362 4.42672 4.78381 5.47872L3.19097 6.42022L2.26417 5.87395C1.61792 5.49301 1.3543 5.31722 1.39326 5.29316C1.95452 4.94646 8.44173 1.12397 8.47092 1.12278C8.49351 1.12183 8.90718 1.3561 9.39016 1.64342ZM14.7988 4.84347L15.9645 5.53128L15.9648 9.24167L15.965 12.9521L15.8726 12.929C15.3114 12.7887 14.4147 12.7954 13.8297 12.9444C12.6624 13.2417 11.6146 14.0808 11.0878 15.1401C10.7754 15.7683 10.6651 16.2131 10.6313 16.9812L10.6062 17.5495L9.74388 18.0587C9.2696 18.3388 8.86767 18.5682 8.85076 18.5684C8.83384 18.5686 8.81996 18.2816 8.81996 17.9304C8.81996 17.2928 8.81984 17.2918 8.71131 17.1913C8.5928 17.0814 8.39233 17.059 8.28256 17.1432C8.1455 17.2485 8.12188 17.3701 8.12188 17.9707C8.12188 18.2997 8.10801 18.5684 8.09109 18.5678C8.07417 18.5673 6.47114 17.6266 4.52885 16.4775L0.997415 14.3881L0.986944 10.1753C0.981195 7.85821 0.985383 5.96245 0.996265 5.96245C1.00711 5.96245 1.41835 6.20049 1.91013 6.49146L2.8042 7.02048L2.82473 8.60511C2.84436 10.1214 2.84879 10.1932 2.92739 10.2697C3.00192 10.3423 5.245 11.6859 5.5682 11.8516C5.6817 11.9098 5.72819 11.9134 5.84936 11.8734C6.09804 11.7913 6.10979 11.7192 6.10979 10.2754C6.10979 9.57453 6.12009 9.00112 6.1327 9.00112C6.14531 9.00112 6.59803 9.262 7.13875 9.58081L8.12188 10.1605V13.1473V16.1341L8.22257 16.2428C8.35755 16.3884 8.57793 16.3919 8.71915 16.2506L8.81996 16.1499V13.1588V10.1677L12.0438 8.26281C13.8169 7.21512 15.3042 6.32388 15.3489 6.28225C15.6103 6.0387 15.3417 5.58224 15.0106 5.70724C14.946 5.73159 13.4513 6.60385 11.689 7.64555C9.92665 8.68724 8.47072 9.53392 8.45355 9.52698C8.36182 9.49002 6.47956 8.36128 6.47948 8.34317C6.47927 8.30835 13.5164 4.15763 13.5774 4.15661C13.608 4.15607 14.1576 4.46516 14.7988 4.84347ZM4.70444 8.1388L5.36905 8.5289L5.36983 9.70946C5.37028 10.3588 5.36075 10.89 5.34868 10.89C5.33661 10.89 4.93008 10.6559 4.44529 10.3698L3.56387 9.84945V8.66326V7.47702L3.80183 7.61286C3.9327 7.68755 4.33889 7.92424 4.70444 8.1388ZM1.97349 12.1136C1.9231 12.1212 1.84459 12.1749 1.79897 12.2329C1.72189 12.3309 1.71602 12.3978 1.71602 13.1764C1.71602 14.0115 1.71639 14.0149 1.81683 14.1153C1.95805 14.2566 2.17843 14.2531 2.31341 14.1075C2.4134 13.9996 2.4141 13.993 2.4141 13.1686C2.4141 12.4037 2.40769 12.3302 2.33291 12.2351C2.24923 12.1287 2.13331 12.0896 1.97349 12.1136ZM3.24793 12.919L3.1327 13.0181L3.11919 13.7547C3.10277 14.652 3.13426 14.8112 3.34578 14.8996C3.4649 14.9493 3.51484 14.9516 3.6122 14.9112C3.83394 14.8194 3.85751 14.7087 3.84347 13.8266C3.83106 13.0501 3.82848 13.0293 3.73124 12.9259C3.60099 12.7874 3.40429 12.7846 3.24793 12.919ZM15.7802 13.6387C17.9898 14.2209 19.0925 16.6898 18.0457 18.7115C17.025 20.6831 14.4761 21.2509 12.7156 19.8989C11.0194 18.5964 10.8627 16.0775 12.3841 14.5704C12.9197 14.0398 13.4859 13.7416 14.2663 13.5791C14.6516 13.4989 15.3546 13.5266 15.7802 13.6387ZM14.565 14.2635C13.2788 14.3862 12.2156 15.4496 12.069 16.76C11.9157 18.1305 12.7185 19.362 14.0555 19.8074C14.2975 19.888 14.4274 19.9032 14.8768 19.9033C15.3546 19.9034 15.4486 19.891 15.7722 19.7849C17.9664 19.0657 18.4273 16.1578 16.5645 14.7858C16.3698 14.6424 16.212 14.6359 16.0617 14.7652C15.9767 14.8383 15.9485 14.8998 15.9485 15.0122C15.9485 15.146 15.984 15.1959 16.2807 15.4795C16.8212 15.9961 17.0001 16.396 17.0014 17.0906C17.0024 17.5895 16.9134 17.8911 16.6468 18.2928C16.0789 19.1484 14.8987 19.4551 13.9529 18.9928C12.6867 18.374 12.3663 16.6866 13.3195 15.6571C13.6804 15.2673 14.1091 15.0391 14.598 14.9768C15.0053 14.9248 15.064 14.9082 15.1439 14.8225C15.2586 14.6993 15.2533 14.4607 15.1334 14.3522C15.0101 14.2405 14.9326 14.2285 14.565 14.2635ZM15.0966 16.7487L14.3668 17.4744L14.1616 17.2825C13.9304 17.0663 13.7856 17.0371 13.614 17.172C13.3705 17.3636 13.4465 17.6086 13.8748 18.0127C14.1632 18.2847 14.2911 18.3497 14.4559 18.308C14.5067 18.2952 14.941 17.8902 15.4209 17.4082C16.2456 16.58 16.2935 16.5234 16.2935 16.3781C16.2935 16.1857 16.1367 16.0229 15.9513 16.0229C15.8444 16.0229 15.7212 16.1275 15.0966 16.7487Z" fill="#FF4949"/>
</svg>
