<svg width="20" height="22" viewBox="0 0 20 22" fill="none" xmlns="http://www.w3.org/2000/svg">
<path fill-rule="evenodd" clip-rule="evenodd" d="M5.51763 0.620333C4.17002 0.739036 3.17805 0.958872 2.34392 1.3237C1.75508 1.58124 1.17441 2.09063 1.0239 2.48167C0.942903 2.69222 0.94043 2.88637 0.94043 9.07631V15.454L1.06226 15.7021C1.20317 15.989 1.56341 16.3367 1.95405 16.5627L2.21246 16.7122L2.24057 17.0159C2.36808 18.3935 2.85773 19.4664 3.77677 20.3822C4.72532 21.3274 5.83998 21.8297 7.19136 21.9208C8.27193 21.9937 9.54973 21.6359 10.4457 21.0096L10.7253 20.8141L11.0825 20.8977C12.1384 21.1447 13.8516 21.2313 15.0191 21.0966C17.0477 20.8627 18.5129 20.2111 18.9269 19.3587L19.0323 19.1418V15.8011V12.4604L18.9113 12.214C18.7731 11.9327 18.4172 11.5837 18.0378 11.3575C17.3558 10.951 16.2113 10.625 14.9757 10.4854C14.1891 10.3966 12.4897 10.4352 11.8194 10.5571L11.6784 10.5828L11.6781 6.66236C11.678 4.12499 11.6623 2.68563 11.6335 2.58224C11.567 2.34253 11.333 2.02916 11.049 1.79921C10.3947 1.26956 9.29566 0.888934 7.88215 0.702462C7.37853 0.636038 5.91608 0.585233 5.51763 0.620333ZM7.7303 1.2014C9.69056 1.44592 11.1578 2.17025 11.1578 2.89349C11.1578 3.57694 9.9917 4.22487 8.17761 4.54948C7.68366 4.63785 7.48192 4.64905 6.36365 4.64996C5.03956 4.651 4.71217 4.62237 3.86897 4.43156C2.90689 4.21385 2.19606 3.89908 1.79374 3.51256C1.46318 3.19502 1.38991 2.99249 1.50067 2.70246C1.79569 1.92993 3.31892 1.33789 5.51763 1.14122C5.84519 1.11189 7.33857 1.15255 7.7303 1.2014ZM5.49593 1.70953C4.73048 1.7619 3.60241 1.97904 3.46908 2.09974C3.35463 2.20331 3.36977 2.40019 3.49863 2.48466C3.59798 2.54974 3.63312 2.54822 3.99518 2.46323C4.52696 2.33837 5.1698 2.25307 5.84302 2.21793C6.46144 2.18569 6.55889 2.14716 6.55889 1.93509C6.55889 1.69313 6.35818 1.65053 5.49593 1.70953ZM2.48062 2.48557C2.18152 2.65521 2.04677 2.80207 2.04677 2.95835C2.04677 3.03262 2.07019 3.11684 2.09883 3.14547C2.16235 3.20899 2.42162 3.21454 2.45954 3.15319C2.47459 3.12881 2.59291 3.03054 2.72241 2.93488C2.96694 2.75426 3.01535 2.63647 2.90364 2.49434C2.80758 2.37216 2.6851 2.36965 2.48062 2.48557ZM2.21818 4.43294C2.7097 4.68202 3.62974 4.94611 4.49806 5.08737C5.16095 5.19523 6.94285 5.22113 7.69581 5.13388C9.11843 4.96902 10.2992 4.59104 10.9546 4.09072L11.1578 3.93566V4.53789V5.14009L11.0168 5.34964C10.3106 6.39901 7.24642 7.00155 4.57585 6.61616C4.24838 6.56891 4.21267 6.57121 4.13115 6.64501C4.01075 6.754 4.01531 6.95262 4.14013 7.03284C4.42235 7.21419 6.59203 7.3135 7.64353 7.19323C9.01751 7.03609 10.3547 6.61199 10.9414 6.14733C11.0315 6.07601 11.117 6.01761 11.1315 6.01761C11.1459 6.01761 11.1578 6.27736 11.1578 6.59481C11.1578 7.15805 11.1547 7.17688 11.0312 7.37168C10.4521 8.28478 7.96207 8.92051 5.59316 8.76011C3.8058 8.63906 2.39828 8.20967 1.76897 7.59347C1.48952 7.31983 1.44141 7.1633 1.44032 6.52375L1.43937 5.96693L1.60206 6.09293C2.03219 6.42604 2.24395 6.47693 2.3529 6.27337C2.43537 6.11931 2.36357 5.98641 2.10048 5.80632C1.52805 5.41437 1.43937 5.2364 1.43937 4.47911V3.93566L1.72784 4.13315C1.88646 4.24179 2.10712 4.37667 2.21818 4.43294ZM1.68875 8.20364C3.23298 9.30399 6.7382 9.63754 9.29219 8.92719C9.89976 8.75816 10.4571 8.51975 10.8301 8.26929L11.1361 8.06377L11.1482 8.62353C11.1623 9.27761 11.1194 9.40547 10.7881 9.69711C9.88592 10.4912 7.50448 10.9741 5.37511 10.7946C3.51433 10.6377 2.00412 10.0911 1.59213 9.42552C1.46609 9.22182 1.46049 9.19158 1.44687 8.63525C1.43902 8.31705 1.44388 8.05674 1.45759 8.05674C1.47134 8.05674 1.57534 8.12286 1.68875 8.20364ZM1.57152 10.1633C1.74966 10.378 2.5779 10.7621 3.30495 10.9672C5.8451 11.6839 9.28091 11.3662 10.9083 10.2641L11.1578 10.0952V10.3992C11.1578 10.6673 11.1482 10.7033 11.0766 10.7033C10.7588 10.7033 9.52422 11.1903 9.09717 11.4841L8.8959 11.6226L8.51918 11.5425C8.00068 11.4324 6.94467 11.4335 6.42873 11.5448C5.70978 11.6998 4.92433 12.0504 4.38964 12.4551L4.10763 12.6685L3.84732 12.6149C2.68506 12.3755 1.62367 11.7774 1.48687 11.2849C1.43078 11.0827 1.42292 10.0959 1.47746 10.0959C1.49837 10.0959 1.54072 10.1262 1.57152 10.1633ZM14.9323 11.0111C16.3428 11.1454 17.6384 11.5898 18.1874 12.1276C18.6424 12.5733 18.6318 12.9123 18.1488 13.3586C17.5971 13.8683 16.4455 14.2661 15.0191 14.4396C14.4992 14.5029 13.031 14.5171 12.5461 14.4636L12.2207 14.4277L12.0171 14.0731C11.5046 13.1811 10.7469 12.465 9.82297 11.9995L9.50773 11.8407L9.65646 11.7529C9.73828 11.7047 9.97881 11.5957 10.191 11.5108C11.3862 11.0327 13.1765 10.844 14.9323 11.0111ZM7.20967 12.1567C7.20967 12.4689 7.41259 12.6129 7.63385 12.4579C7.71139 12.4036 7.7303 12.3484 7.7303 12.1759C7.7303 11.929 7.69715 11.9389 8.23466 12.026C8.6519 12.0937 9.25392 12.2876 9.61758 12.4714C9.89395 12.6112 10.4172 12.9643 10.5234 13.0828C10.6038 13.1725 10.603 13.176 10.4692 13.3284C10.3056 13.5148 10.3006 13.5812 10.44 13.7205C10.5793 13.8599 10.6457 13.8549 10.8321 13.6913C10.9845 13.5575 10.988 13.5567 11.0777 13.6371C11.2298 13.7734 11.5943 14.3414 11.7691 14.7144C11.9496 15.0995 12.1286 15.7337 12.1768 16.159L12.2075 16.4302H12.0081C11.8664 16.4302 11.7834 16.4554 11.7218 16.517C11.5259 16.7129 11.6829 16.9508 12.0081 16.9508H12.2075L12.1766 17.222C12.0804 18.0633 11.6468 19.0877 11.1437 19.6624L10.9918 19.836L10.845 19.695C10.644 19.5021 10.4915 19.5082 10.3835 19.7135C10.3229 19.8287 10.3541 19.9274 10.5025 20.0895L10.6155 20.2129L10.4259 20.3772C9.83586 20.8885 8.92259 21.2589 7.91469 21.3956L7.7303 21.4206V21.2174C7.7303 20.986 7.64184 20.8555 7.48496 20.8555C7.32009 20.8555 7.20967 21.0018 7.20967 21.2202V21.4113L7.02528 21.3915C6.40452 21.3248 5.70228 21.1016 5.16117 20.799C4.85317 20.6267 4.34621 20.2599 4.34621 20.2092C4.34621 20.1918 4.40478 20.1215 4.47637 20.0529C4.62744 19.9082 4.64262 19.7636 4.51976 19.6407C4.39923 19.5202 4.28729 19.5322 4.11423 19.6841C4.03271 19.7557 3.95526 19.8143 3.94216 19.8143C3.92906 19.8143 3.80771 19.663 3.67256 19.478C3.21597 18.8533 2.87726 18.0015 2.79274 17.2654L2.75664 16.9508H2.93435C3.15801 16.9508 3.30495 16.8523 3.30495 16.7023C3.30495 16.5205 3.19016 16.4302 2.959 16.4302H2.75664L2.794 16.1156C2.88628 15.339 3.15271 14.6455 3.61829 13.97C3.91951 13.5329 3.92437 13.5302 4.10863 13.692C4.28708 13.8487 4.39827 13.8618 4.51976 13.7403C4.64327 13.6168 4.62739 13.4839 4.4696 13.3211C4.29883 13.145 4.30534 13.1358 4.86376 12.764C5.45706 12.369 5.99053 12.1553 6.70857 12.0248C7.21553 11.9327 7.20967 11.9312 7.20967 12.1567ZM1.68328 12.2886C1.96685 12.5051 2.59625 12.7984 3.13141 12.9635C3.38196 13.0408 3.59429 13.1097 3.60332 13.1167C3.6123 13.1237 3.54162 13.2229 3.44626 13.3372C3.30352 13.5083 3.02958 13.9104 2.80602 14.277C2.76723 14.3406 2.73053 14.332 2.45893 14.1957C2.06035 13.9957 1.75569 13.7615 1.59291 13.53C1.46371 13.3463 1.46076 13.3304 1.44605 12.7388C1.4378 12.4067 1.44249 12.135 1.4565 12.135C1.47052 12.135 1.57256 12.2042 1.68328 12.2886ZM6.73243 12.9372C5.88619 13.1268 5.17245 13.5351 4.63737 14.1358C3.2784 15.6614 3.34517 17.9592 4.79022 19.3933C5.86033 20.4553 7.45198 20.7879 8.86228 20.244C9.23071 20.1019 9.36482 19.9747 9.31419 19.8152C9.29848 19.7657 9.24095 19.696 9.18641 19.6602C9.09543 19.6006 9.0606 19.6058 8.7667 19.7232C7.61424 20.1835 6.42361 20.0247 5.45255 19.2813C3.84801 18.0529 3.75066 15.61 5.25224 14.2547C5.88241 13.686 6.63911 13.3952 7.49168 13.3942C8.38946 13.3932 9.2098 13.7432 9.84115 14.3967C10.4361 15.0126 10.7128 15.6564 10.7545 16.5217C10.7825 17.1047 10.7091 17.5288 10.5 17.9916C10.3445 18.336 10.3494 18.5104 10.517 18.5903C10.6756 18.6659 10.7842 18.6046 10.9027 18.3724C11.256 17.6797 11.3812 16.7116 11.2199 15.9186C11.1448 15.549 10.9385 15.0349 10.7166 14.6645C10.5234 14.3419 10.0359 13.8234 9.70171 13.5849C9.37141 13.3492 8.80497 13.0819 8.42447 12.982C8.03296 12.8792 7.10125 12.8546 6.73243 12.9372ZM18.5334 14.3175C18.5334 14.8076 18.524 14.8701 18.4187 15.0814C18.1067 15.7075 16.786 16.2628 15.1059 16.4744C14.594 16.5389 13.3634 16.579 13.0218 16.5424L12.7381 16.512L12.6869 16.0915C12.6436 15.7357 12.5718 15.3865 12.4794 15.0829C12.4613 15.0233 12.5822 15.0156 13.5329 15.0159C14.6662 15.0162 15.124 14.9763 16.0069 14.8001C16.9513 14.6117 17.8266 14.2754 18.2947 13.921C18.3902 13.8487 18.4829 13.7883 18.5008 13.7866C18.5187 13.785 18.5334 14.0239 18.5334 14.3175ZM2.20946 14.6488C2.4063 14.7479 2.5674 14.8348 2.5674 14.8418C2.5674 14.849 2.52848 14.9678 2.48088 15.1061C2.43333 15.2444 2.36305 15.5256 2.32474 15.7312C2.28643 15.9367 2.24864 16.1116 2.24074 16.1198C2.21185 16.1501 1.83921 15.8666 1.70098 15.7092C1.47312 15.4496 1.43937 15.3213 1.43937 14.7142V14.1668L1.64545 14.3177C1.75877 14.4007 2.01262 14.5497 2.20946 14.6488ZM6.58305 14.4875C6.52704 14.5674 6.5155 14.7417 6.5155 15.5071V16.4302H6.25519C5.97227 16.4302 5.82133 16.5207 5.82133 16.6905C5.82133 16.8603 5.97227 16.9508 6.25519 16.9508H6.5155V17.1461V17.3413H6.26486C5.97361 17.3413 5.82133 17.4241 5.82133 17.5824C5.82133 17.7709 5.96259 17.8619 6.25519 17.8619H6.5155V18.2492C6.5155 18.6168 6.52136 18.6412 6.63078 18.7273C6.75594 18.8257 6.88888 18.8136 6.9819 18.6953C7.01595 18.6519 7.03613 18.4841 7.03613 18.2441V17.8619H7.77369C8.45341 17.8619 8.51806 17.8551 8.59802 17.7752C8.64574 17.7274 8.68479 17.6493 8.68479 17.6016C8.68479 17.5539 8.64574 17.4758 8.59802 17.4281C8.51806 17.3481 8.45341 17.3413 7.77369 17.3413H7.03613V17.1505V16.9598L7.56761 16.9428C8.03995 16.9277 8.12381 16.9129 8.32135 16.8102C8.79794 16.5624 9.06007 16.0974 9.02216 15.5672C8.98823 15.0933 8.74948 14.7338 8.3292 14.5238C8.0655 14.3921 8.0583 14.3911 7.35705 14.3911C6.6762 14.3911 6.64813 14.3946 6.58305 14.4875ZM8.13921 15.01C8.24538 15.0704 8.34751 15.1789 8.41037 15.2981C8.5975 15.6529 8.51658 16.0164 8.19292 16.2751C8.03261 16.4032 8.00801 16.4087 7.53129 16.4239L7.03613 16.4396V15.6756V14.9117L7.50253 14.9124C7.90463 14.913 7.99239 14.9265 8.13921 15.01ZM18.5331 16.3326C18.5328 16.998 18.493 17.13 18.2092 17.4071C17.7105 17.8939 16.6328 18.2986 15.3177 18.493C14.7606 18.5754 13.4075 18.6225 12.8348 18.5794C12.4267 18.5488 12.4085 18.5432 12.4297 18.4541C12.4419 18.4028 12.502 18.1559 12.5632 17.9053C12.6244 17.6548 12.6851 17.3619 12.6981 17.2545L12.7218 17.0593L13.7512 17.0546C14.5707 17.051 14.9069 17.0308 15.4008 16.9558C16.711 16.7566 17.8136 16.3734 18.3381 15.9348C18.4097 15.8749 18.4829 15.8252 18.5008 15.8244C18.5187 15.8235 18.5332 16.0522 18.5331 16.3326ZM18.5267 18.4657C18.512 19.0573 18.509 19.0732 18.3798 19.2569C17.9208 19.9097 16.4988 20.4411 14.7893 20.5988C14.1051 20.6619 12.5497 20.6273 12.0038 20.5368C11.789 20.5013 11.5303 20.4583 11.4289 20.4414C11.3275 20.4245 11.2445 20.3948 11.2445 20.3755C11.2445 20.3562 11.3482 20.2216 11.4748 20.0764C11.6015 19.9312 11.8114 19.6382 11.9412 19.4255L12.1773 19.0385L12.416 19.0685C12.8234 19.1196 14.6664 19.1008 15.1493 19.0406C16.4706 18.8758 17.8 18.4367 18.3182 17.9937C18.4007 17.9232 18.4848 17.8647 18.505 17.8637C18.5252 17.8627 18.5349 18.1336 18.5267 18.4657Z" fill="#FF4949"/>
</svg>
