<svg width="22" height="22" viewBox="0 0 22 22" fill="none" xmlns="http://www.w3.org/2000/svg">
<path fill-rule="evenodd" clip-rule="evenodd" d="M10.9826 0.410342C10.9983 0.59631 11.0162 0.753489 11.0224 0.759617C11.0285 0.76579 11.1723 0.77593 11.342 0.782147L11.6503 0.793478L11.6882 0.471494C11.7341 0.0807748 11.7271 0.0738528 11.2801 0.0729269L10.954 0.0722656L10.9826 0.410342ZM9.85368 0.276619C9.66577 0.336008 9.51199 0.403376 9.51199 0.426346C9.51199 0.449361 9.56414 0.598471 9.6279 0.757721C9.70955 0.961634 9.76219 1.04025 9.80589 1.02349C9.84005 1.01035 9.97633 0.968159 10.1088 0.929625C10.2413 0.891135 10.3497 0.842417 10.3497 0.821386C10.3497 0.779413 10.2151 0.18725 10.2029 0.175787C10.1988 0.171863 10.0416 0.217231 9.85368 0.276619ZM12.3812 0.587184C12.3281 0.770022 12.2907 0.923805 12.2981 0.92892C12.3369 0.95555 12.8327 1.13041 12.8695 1.13041C12.9307 1.13041 13.1848 0.552574 13.1414 0.512056C13.1215 0.493538 12.9641 0.428066 12.7915 0.366561L12.4778 0.254795L12.3812 0.587184ZM8.48444 0.956784L8.18442 1.17767L8.31474 1.34142C8.38643 1.43149 8.49423 1.55102 8.55432 1.60701L8.66358 1.70886L8.9107 1.52404L9.15782 1.33926L9.03732 1.12454C8.79721 0.696878 8.82583 0.705564 8.48444 0.956784ZM13.626 1.22546L13.4414 1.49419L13.6782 1.68708C13.8084 1.79316 13.9319 1.87993 13.9527 1.87993C14.0142 1.87993 14.4175 1.45142 14.4 1.40464C14.3753 1.33882 13.9104 0.953874 13.8574 0.955373C13.8317 0.956123 13.7276 1.07763 13.626 1.22546ZM10.9747 1.56028C10.9251 1.60269 10.7329 1.9648 10.5476 2.36491C10.3624 2.76502 10.1974 3.10543 10.181 3.12135C10.1647 3.13726 9.80487 3.20221 9.38148 3.26565C8.58228 3.38535 8.42942 3.43949 8.38445 3.61881C8.33639 3.81028 8.41319 3.92249 8.99747 4.51443L9.57424 5.09875L9.44757 5.8786C9.37791 6.3075 9.32095 6.71731 9.32095 6.78926C9.32095 6.94155 9.50612 7.12677 9.65775 7.12611C9.71096 7.12589 10.078 6.94746 10.4735 6.72957L11.1925 6.33342L11.9081 6.73001C12.3018 6.94812 12.6665 7.12655 12.7188 7.12655C12.8682 7.12655 13.0539 6.94058 13.053 6.79182C13.0526 6.72132 12.9959 6.31125 12.927 5.88054L12.8018 5.09747L13.3798 4.51377C13.9754 3.91226 14.0625 3.77378 13.9713 3.57348C13.8999 3.41683 13.7998 3.38553 12.9523 3.25472L12.1863 3.13647L11.828 2.37086C11.631 1.94981 11.4322 1.57778 11.3863 1.54419C11.2715 1.46028 11.083 1.46765 10.9747 1.56028ZM7.42216 2.04429C7.18879 2.38228 7.17909 2.35358 7.60874 2.59479L7.82196 2.71449L8.00731 2.44585C8.10924 2.29811 8.18697 2.17369 8.17996 2.16942C8.173 2.16514 8.05598 2.06849 7.92001 1.95466C7.78404 1.84082 7.66249 1.74766 7.64988 1.74766C7.63727 1.74766 7.5348 1.88116 7.42216 2.04429ZM14.6432 2.19697C14.5006 2.29754 14.3767 2.38523 14.3681 2.39185C14.3511 2.40472 14.6669 2.93807 14.6915 2.93807C14.7578 2.93807 15.2877 2.66749 15.2877 2.63363C15.2877 2.57861 14.99 2.06827 14.9399 2.03724C14.9193 2.02454 14.7858 2.09645 14.6432 2.19697ZM11.43 3.18316C11.5471 3.43919 11.6877 3.68379 11.7422 3.72674C11.8064 3.77717 12.0293 3.83264 12.3723 3.88338L12.9031 3.96191L12.4862 4.41823C12.2568 4.66919 12.0696 4.91005 12.0701 4.95343C12.0706 4.99681 12.11 5.26898 12.1577 5.55825C12.2054 5.84752 12.2397 6.08798 12.234 6.09265C12.2282 6.09733 12.0152 5.98481 11.7605 5.84262C11.5059 5.70044 11.248 5.58426 11.1874 5.58448C11.1268 5.5847 10.8688 5.70193 10.6142 5.84496C10.3596 5.98799 10.1466 6.10032 10.1408 6.09459C10.135 6.08886 10.1693 5.84752 10.217 5.55825C10.2647 5.26898 10.3042 4.99681 10.3047 4.95343C10.3052 4.91005 10.1179 4.66919 9.8886 4.41823L9.47165 3.96191L10.0024 3.88338C10.3454 3.83264 10.5684 3.77717 10.6325 3.72674C10.6871 3.68379 10.8276 3.43919 10.9448 3.18316C11.0619 2.92709 11.1711 2.71762 11.1874 2.71762C11.2037 2.71762 11.3129 2.92709 11.43 3.18316ZM6.78163 3.39995C6.72779 3.58124 6.69424 3.74653 6.70707 3.7673C6.73057 3.80526 7.34756 3.93047 7.3685 3.90151C7.41479 3.83753 7.52475 3.31512 7.49697 3.2914C7.45655 3.25692 6.96385 3.07033 6.91323 3.07033C6.89467 3.07033 6.83546 3.21865 6.78163 3.39995ZM15.2286 3.46784C15.0869 3.51229 14.962 3.5577 14.9509 3.56876C14.9399 3.57979 14.955 3.72017 14.9846 3.8807C15.0376 4.16816 15.0405 4.17257 15.1789 4.17257C15.2562 4.17257 15.4138 4.15965 15.5291 4.14382L15.7387 4.11512L15.7116 3.91689C15.6679 3.5987 15.597 3.37865 15.5395 3.38297C15.5101 3.38518 15.3702 3.42336 15.2286 3.46784ZM6.61391 4.92548C6.62732 5.12137 6.64504 5.28705 6.65328 5.29376C6.66148 5.30041 6.82378 5.28547 7.01389 5.26056L7.35955 5.21532L7.33354 5.08521C7.31925 5.0137 7.30752 4.86834 7.30752 4.76226V4.56937H6.9485H6.58949L6.61391 4.92548ZM15.0672 4.78364C15.0672 4.85304 15.055 4.99875 15.0401 5.10748L15.013 5.30517L15.3523 5.35989C15.5389 5.39 15.6991 5.40711 15.7083 5.39794C15.7175 5.38877 15.7386 5.21841 15.7552 5.01939L15.7854 4.65755H15.4263H15.0672V4.78364ZM3.22702 5.0719C3.17861 5.1058 3.05366 5.3218 2.9493 5.55185L2.75958 5.97013L2.31106 6.03966C1.93031 6.09869 1.84751 6.12651 1.7633 6.22355C1.59766 6.41442 1.63271 6.51864 1.99477 6.91183C2.17664 7.10935 2.32535 7.30295 2.32526 7.34205C2.32517 7.38112 2.29546 7.59583 2.25922 7.8191C2.18568 8.27273 2.21297 8.4039 2.39849 8.48846C2.5685 8.56593 2.63239 8.54913 3.04189 8.31925L3.42767 8.10273L3.81345 8.31925C4.22295 8.54913 4.28684 8.56593 4.45684 8.48846C4.64237 8.4039 4.66966 8.27273 4.59612 7.8191C4.55988 7.59583 4.53016 7.38112 4.53008 7.34205C4.52999 7.30295 4.6787 7.10935 4.86057 6.91183C5.22276 6.51851 5.25755 6.41495 5.09199 6.2225C5.0073 6.124 4.92719 6.09702 4.54392 6.03794L4.09509 5.96872L3.90573 5.55111C3.70781 5.1148 3.61545 5.01026 3.42767 5.01026C3.36572 5.01026 3.27543 5.03799 3.22702 5.0719ZM18.7464 5.0719C18.698 5.1058 18.5731 5.3218 18.4687 5.55185L18.279 5.97013L17.8305 6.03966C17.4497 6.09869 17.3669 6.12651 17.2827 6.22355C17.1171 6.41442 17.1521 6.51864 17.5142 6.91183C17.6961 7.10935 17.8448 7.30295 17.8447 7.34205C17.8446 7.38112 17.8149 7.59583 17.7786 7.8191C17.7051 8.27273 17.7324 8.4039 17.9179 8.48846C18.0879 8.56593 18.1518 8.54913 18.5613 8.31925L18.9471 8.10273L19.3329 8.31925C19.7424 8.54913 19.8063 8.56593 19.9763 8.48846C20.1618 8.4039 20.1891 8.27273 20.1155 7.8191C20.0793 7.59583 20.0496 7.38112 20.0495 7.34205C20.0494 7.30295 20.1981 7.10935 20.38 6.91183C20.7422 6.51851 20.777 6.41495 20.6114 6.2225C20.5267 6.124 20.4466 6.09702 20.0633 6.03794L19.6145 5.96872L19.4251 5.55111C19.2272 5.1148 19.1349 5.01026 18.9471 5.01026C18.8851 5.01026 18.7948 5.03799 18.7464 5.0719ZM7.13117 5.94945C6.97355 6.0006 6.83859 6.04601 6.83127 6.05037C6.80054 6.06867 7.06935 6.69809 7.11556 6.71603C7.17521 6.73922 7.70433 6.48033 7.70433 6.42795C7.70433 6.35393 7.49173 5.87278 7.45549 5.8648C7.43472 5.86026 7.28879 5.89835 7.13117 5.94945ZM14.7383 6.22254C14.6705 6.3821 14.6225 6.51935 14.6317 6.52759C14.7209 6.60735 15.1692 6.82207 15.2121 6.80558C15.2859 6.77732 15.5228 6.19675 15.4774 6.15548C15.4579 6.1378 15.3329 6.08824 15.1995 6.04535C15.0661 6.00249 14.9355 5.9595 14.9093 5.94989C14.8831 5.94028 14.8061 6.06294 14.7383 6.22254ZM3.51726 6.38042C3.58436 6.54241 3.69935 6.62133 3.9265 6.66118L4.0947 6.69072L3.93218 6.87061C3.7769 7.04247 3.77086 7.06081 3.79687 7.28205L3.82412 7.51365L3.66064 7.43032C3.45492 7.32543 3.39928 7.32605 3.19514 7.43548L3.03003 7.52397L3.05785 7.28721C3.08457 7.05979 3.07928 7.04339 2.92316 6.87061L2.76064 6.69072L2.92884 6.66118C3.15599 6.62133 3.27098 6.54241 3.33808 6.38042C3.36899 6.30582 3.40928 6.24476 3.42767 6.24476C3.44605 6.24476 3.48635 6.30582 3.51726 6.38042ZM19.0367 6.38042C19.1038 6.54241 19.2188 6.62133 19.4459 6.66118L19.6141 6.69072L19.4516 6.87061C19.2963 7.04247 19.2903 7.06081 19.3163 7.28205L19.3435 7.51365L19.1801 7.43032C18.9743 7.32543 18.9187 7.32605 18.7146 7.43548L18.5494 7.52397L18.5773 7.28721C18.604 7.05979 18.5987 7.04339 18.4426 6.87061L18.2801 6.69072L18.4483 6.66118C18.6754 6.62133 18.7904 6.54241 18.8575 6.38042C18.8884 6.30582 18.9287 6.24476 18.9471 6.24476C18.9655 6.24476 19.0058 6.30582 19.0367 6.38042ZM7.8 7.19065C7.48851 7.41996 7.48816 7.40321 7.81182 7.76584L8.00854 7.98629L8.21254 7.78789C8.51632 7.49244 8.51672 7.48918 8.28137 7.22297L8.07428 6.98872L7.8 7.19065ZM14.0201 7.30083C13.9171 7.41877 13.8327 7.5327 13.8327 7.55404C13.8327 7.60796 14.2444 8.00833 14.2998 8.00833C14.3517 8.00833 14.7598 7.5476 14.7561 7.49324C14.7531 7.44879 14.2924 7.08171 14.2431 7.08444C14.2235 7.08554 14.1231 7.18289 14.0201 7.30083ZM8.81172 8.16564C8.70542 8.32326 8.62606 8.45941 8.63536 8.46823C8.69162 8.52171 9.2049 8.80194 9.24661 8.80194C9.2866 8.80194 9.55608 8.28812 9.55608 8.21189C9.55608 8.19681 9.1117 7.92527 9.027 7.88863C9.01488 7.88338 8.91802 8.00802 8.81172 8.16564ZM13.0171 8.0787C12.8716 8.15991 12.7525 8.24178 12.7525 8.26061C12.7525 8.36638 12.9808 8.84603 13.0312 8.84603C13.0908 8.84603 13.6564 8.54481 13.6564 8.51307C13.6564 8.49715 13.3129 7.95684 13.2917 7.93938C13.2862 7.93479 13.1626 7.99749 13.0171 8.0787ZM10.1099 8.68127C10.0687 8.83249 10.0261 8.98813 10.015 9.0271C9.99939 9.08257 10.0496 9.10893 10.2459 9.14835C10.3838 9.17608 10.5513 9.19874 10.6181 9.19874C10.7534 9.19874 10.7786 9.13402 10.7986 8.73616L10.8096 8.51602L10.5913 8.4848C10.4712 8.46761 10.3305 8.44292 10.2788 8.42991C10.1953 8.40897 10.1761 8.43745 10.1099 8.68127ZM11.8487 8.47343C11.8123 8.48114 11.7108 8.49909 11.6232 8.51329L11.4638 8.53917L11.4851 8.85793C11.4968 9.03323 11.5189 9.18944 11.5343 9.205C11.5708 9.24212 12.168 9.15994 12.218 9.11087C12.2401 9.08927 12.2238 8.93914 12.1802 8.76111C12.1007 8.43697 12.0852 8.42343 11.8487 8.47343ZM2.90354 10.018C1.78896 10.3177 1.09407 11.4763 1.37717 12.5631C1.46918 12.9163 1.63813 13.231 1.86757 13.4763L2.06364 13.6859L1.82701 13.8194C1.44789 14.0334 1.07194 14.4424 0.872653 14.8576C0.777817 15.0552 0.679013 15.3346 0.653088 15.4785C0.624342 15.6381 0.605957 16.4943 0.605957 17.674V19.6078L0.714196 19.716L0.822391 19.8243H3.42767H6.03295L6.14114 19.716L6.24938 19.6078V17.674C6.24938 16.4943 6.231 15.6381 6.20225 15.4785C6.08832 14.8461 5.5869 14.1347 5.03582 13.8237L4.7917 13.6859L4.98777 13.4763C5.45749 12.9741 5.64981 12.2249 5.47817 11.566C5.18053 10.4233 4.0111 9.7201 2.90354 10.018ZM10.6804 9.99953C10.282 10.0744 9.78001 10.353 9.45158 10.6815C8.49375 11.6393 8.48224 13.1757 9.42575 14.1281C9.57645 14.2802 9.69218 14.4107 9.68301 14.4182C9.67384 14.4257 9.55718 14.4894 9.42381 14.5598C9.04226 14.761 8.55446 15.2812 8.33101 15.7251C8.02384 16.3353 8.01458 16.427 8.0137 18.8673L8.01295 21.0187L8.12119 21.1269L8.22939 21.2351H11.1874H14.1454L14.2536 21.1269L14.3618 21.0187L14.3611 18.8673C14.3602 16.4277 14.3508 16.3352 14.0444 15.7264C13.8205 15.2815 13.3761 14.8058 12.973 14.5795C12.8275 14.4978 12.7014 14.4255 12.6927 14.4187C12.684 14.412 12.7746 14.3089 12.8939 14.1896C13.676 13.4074 13.8681 12.3158 13.3954 11.3391C12.9077 10.3317 11.8058 9.78804 10.6804 9.99953ZM18.423 10.018C17.6777 10.2183 17.0932 10.8112 16.8966 11.566C16.7249 12.2249 16.9173 12.9741 17.387 13.4763L17.5831 13.6859L17.3464 13.8194C16.9673 14.0334 16.5914 14.4424 16.3921 14.8576C16.2972 15.0552 16.1984 15.3346 16.1725 15.4785C16.1438 15.6381 16.1254 16.4943 16.1254 17.674V19.6078L16.2336 19.716L16.3418 19.8243H18.9471H21.5524L21.6606 19.716L21.7688 19.6078V17.674C21.7688 16.4943 21.7504 15.6381 21.7217 15.4785C21.6077 14.8461 21.1063 14.1347 20.5552 13.8237L20.3111 13.6859L20.5072 13.4763C20.9769 12.9741 21.1692 12.2249 20.9976 11.566C20.6999 10.4233 19.5305 9.7201 18.423 10.018ZM4.00696 10.7978C4.2185 10.8971 4.51381 11.1254 4.47761 11.1616C4.46994 11.1692 4.35456 11.1443 4.22123 11.1062C4.05881 11.0597 3.79687 11.0368 3.42767 11.0368C3.05847 11.0368 2.79653 11.0597 2.63411 11.1062C2.50078 11.1443 2.3854 11.1692 2.37773 11.1616C2.37006 11.1539 2.41961 11.0947 2.48791 11.03C2.88361 10.6552 3.502 10.5607 4.00696 10.7978ZM11.9059 10.8194C12.0586 10.8908 12.2605 11.0167 12.3546 11.0991C12.5128 11.2378 12.7746 11.5965 12.7746 11.6748C12.7746 11.6934 12.6902 11.6726 12.5872 11.6285C12.1662 11.4482 11.8013 11.3846 11.1874 11.3846C10.5735 11.3846 10.2085 11.4482 9.78754 11.6285C9.68446 11.6726 9.60016 11.6934 9.60016 11.6748C9.60016 11.5981 9.86047 11.2391 10.0129 11.1055C10.2033 10.9387 10.5429 10.7585 10.7794 10.6987C11.0875 10.6209 11.5987 10.6756 11.9059 10.8194ZM19.5264 10.7978C19.7379 10.8971 20.0332 11.1254 19.997 11.1616C19.9894 11.1692 19.874 11.1443 19.7406 11.1062C19.5782 11.0597 19.3163 11.0368 18.9471 11.0368C18.5779 11.0368 18.3159 11.0597 18.1535 11.1062C18.0202 11.1443 17.9048 11.1692 17.8971 11.1616C17.8895 11.1539 17.939 11.0947 18.0073 11.03C18.403 10.6552 19.0214 10.5607 19.5264 10.7978ZM4.1957 11.8414C4.33926 11.8916 4.54388 11.9838 4.65035 12.0462C4.8301 12.1515 4.84196 12.1697 4.8152 12.2995C4.72403 12.7421 4.43687 13.1203 4.03244 13.3303C3.83514 13.4328 3.74917 13.4498 3.42767 13.4498C3.10617 13.4498 3.0202 13.4328 2.8229 13.3303C2.41847 13.1203 2.13131 12.7421 2.04014 12.2995C2.01342 12.1698 2.02528 12.1515 2.20291 12.0474C2.41661 11.9221 2.69927 11.8135 2.96473 11.7547C3.24585 11.6924 3.90158 11.7386 4.1957 11.8414ZM19.7151 11.8414C19.8587 11.8916 20.0633 11.9838 20.1698 12.0462C20.3495 12.1515 20.3614 12.1697 20.3346 12.2995C20.2434 12.7421 19.9563 13.1203 19.5519 13.3303C19.3546 13.4328 19.2686 13.4498 18.9471 13.4498C18.6256 13.4498 18.5396 13.4328 18.3423 13.3303C17.9379 13.1203 17.6507 12.7421 17.5596 12.2995C17.5328 12.1698 17.5447 12.1515 17.7223 12.0474C17.936 11.9221 18.2187 11.8135 18.4841 11.7547C18.7653 11.6924 19.421 11.7386 19.7151 11.8414ZM11.7677 12.1267C12.1265 12.1956 12.4816 12.3242 12.7591 12.4856L12.9419 12.592L12.9001 12.7802C12.7793 13.3229 12.4146 13.7758 11.9034 14.018C11.6341 14.1456 11.5669 14.1588 11.1874 14.1588C10.8078 14.1588 10.7407 14.1456 10.4713 14.018C9.96011 13.7758 9.59545 13.3229 9.47469 12.7802L9.43285 12.592L9.61617 12.4846C10.2392 12.1195 11.0383 11.9865 11.7677 12.1267ZM2.63062 14.8727C2.48703 15.229 2.36953 15.5519 2.36953 15.5902C2.36953 15.6285 2.53795 16.1652 2.74384 16.7831C3.13637 17.9611 3.18968 18.0607 3.42767 18.0607C3.66566 18.0607 3.71897 17.9611 4.11149 16.7831C4.31739 16.1652 4.48581 15.6285 4.48581 15.5902C4.48581 15.5519 4.3673 15.2265 4.22242 14.8671L3.95908 14.2136L4.13129 14.2367C4.61945 14.3022 5.13688 14.7127 5.38113 15.2283L5.52191 15.5255L5.53522 17.3222L5.54854 19.1188H3.42767H1.3068L1.32011 17.3222L1.33343 15.5255L1.45194 15.2727C1.59955 14.9577 1.75814 14.7476 1.98194 14.5703C2.18409 14.4102 2.60439 14.2275 2.77391 14.226L2.89172 14.2249L2.63062 14.8727ZM18.15 14.8727C18.0064 15.229 17.8889 15.5519 17.8889 15.5902C17.8889 15.6285 18.0574 16.1652 18.2633 16.7831C18.6558 17.9611 18.7091 18.0607 18.9471 18.0607C19.1851 18.0607 19.2384 17.9611 19.6309 16.7831C19.8368 16.1652 20.0052 15.6285 20.0052 15.5902C20.0052 15.5519 19.8867 15.2265 19.7418 14.8671L19.4785 14.2136L19.6507 14.2367C20.1389 14.3022 20.6563 14.7127 20.9005 15.2283L21.0413 15.5255L21.0546 17.3222L21.068 19.1188H18.9471H16.8262L16.8395 17.3222L16.8528 15.5255L16.9714 15.2727C17.119 14.9577 17.2776 14.7476 17.5014 14.5703C17.7035 14.4102 18.1238 14.2275 18.2933 14.226L18.4111 14.2249L18.15 14.8727ZM3.6053 15.2203L3.7515 15.5983L3.60297 16.058C3.52123 16.3107 3.4424 16.5176 3.42767 16.5176C3.41294 16.5176 3.33411 16.3107 3.25237 16.058L3.10383 15.5983L3.25003 15.2203C3.33041 15.0123 3.41034 14.8422 3.42767 14.8422C3.445 14.8422 3.52493 15.0123 3.6053 15.2203ZM19.1247 15.2203L19.2709 15.5983L19.1224 16.058C19.0406 16.3107 18.9618 16.5176 18.9471 16.5176C18.9324 16.5176 18.8535 16.3107 18.7718 16.058L18.6233 15.5983L18.7695 15.2203C18.8498 15.0123 18.9298 14.8422 18.9471 14.8422C18.9644 14.8422 19.0443 15.0123 19.1247 15.2203ZM10.1756 15.7635C9.9561 16.202 9.77648 16.5956 9.77643 16.6383C9.7763 16.7728 10.8815 19.3135 10.9754 19.3944C11.0246 19.4368 11.12 19.4715 11.1874 19.4715C11.2547 19.4715 11.3502 19.4368 11.3994 19.3944C11.4932 19.3135 12.5985 16.7728 12.5983 16.6383C12.5983 16.5956 12.4197 16.204 12.2014 15.768C11.9832 15.3321 11.8046 14.9574 11.8046 14.9355C11.8046 14.8732 12.1476 14.9635 12.4566 15.1071C12.8051 15.269 13.2066 15.6476 13.3852 15.9828C13.6467 16.4733 13.6564 16.5683 13.6564 18.6431V20.5297H11.1874H8.71838V18.6431C8.71838 16.6002 8.7287 16.4907 8.96563 16.0232C9.12338 15.7119 9.50617 15.3219 9.81629 15.1567C10.0912 15.0101 10.5395 14.8747 10.5614 14.9316C10.5687 14.9506 10.3951 15.3249 10.1756 15.7635ZM11.5333 16.0181L11.8559 16.665L11.5326 17.4283C11.3549 17.8482 11.1995 18.1917 11.1874 18.1917C11.1753 18.1917 11.0199 17.8482 10.8421 17.4283L10.5189 16.665L10.8414 16.0181C11.0188 15.6623 11.1745 15.3712 11.1874 15.3712C11.2003 15.3712 11.356 15.6623 11.5333 16.0181Z" fill="#FF4949"/>
</svg>
