<svg width="23" height="22" viewBox="0 0 23 22" fill="none" xmlns="http://www.w3.org/2000/svg">
<path fill-rule="evenodd" clip-rule="evenodd" d="M2.34053 0.173555C2.21608 0.198039 1.95025 0.297103 1.74976 0.393723C0.916022 0.795637 0.32666 1.71853 0.32666 2.62228C0.32666 2.74751 0.358158 2.82856 0.437762 2.90812L0.548819 3.01922H1.77484H3.00085L3.11191 2.90812C3.18196 2.83811 3.22301 2.74533 3.22301 2.65718C3.22301 2.56902 3.18196 2.47625 3.11191 2.40624C3.00103 2.29531 2.99931 2.29513 2.04841 2.29513C1.27363 2.29513 1.096 2.28359 1.096 2.23331C1.096 2.19933 1.16751 2.02862 1.25485 1.85398C1.44791 1.46813 1.71949 1.20669 2.12873 1.01282L2.43104 0.869585H3.58741H4.74378L5.08573 1.03861C5.67527 1.32997 6.04542 1.86109 6.10524 2.50141C6.12751 2.73986 6.15828 2.83598 6.23789 2.91559C6.33949 3.01718 6.36067 3.01922 7.3166 3.01922H8.29163V3.74331V4.4674H7.3166C6.36067 4.4674 6.33949 4.46943 6.23789 4.57103C6.15828 4.65064 6.12751 4.74676 6.10524 4.98521C6.04542 5.62553 5.67527 6.15665 5.08573 6.448L4.74378 6.61703H3.58741H2.43104L2.12873 6.4738C1.71949 6.27992 1.44791 6.01848 1.25485 5.63264C1.16751 5.45799 1.096 5.28729 1.096 5.2533C1.096 5.20216 1.38577 5.19148 2.77249 5.19148H4.44903L4.56009 5.08038L4.67119 4.96933V3.74331V2.51729L4.56009 2.40624C4.49008 2.33618 4.3973 2.29513 4.30914 2.29513C4.22099 2.29513 4.12821 2.33618 4.0582 2.40624C3.9471 2.51729 3.9471 2.51743 3.9471 3.49237V4.4674H2.24798H0.548819L0.437762 4.5785C0.3115 4.70472 0.296927 4.87406 0.375038 5.30761C0.53307 6.18502 1.21932 6.94405 2.13688 7.2564C2.35546 7.3308 2.53187 7.34112 3.58506 7.34112C4.63824 7.34112 4.81465 7.3308 5.03323 7.2564C5.91422 6.95649 6.56798 6.2663 6.76398 5.42908L6.8196 5.19148H7.55564H8.29163V5.41803C8.29163 5.62019 8.36965 5.80058 9.01571 7.09222L9.7398 8.53985V9.0435V9.5471L9.47958 9.82528C8.98046 10.3589 8.59588 11.0688 8.41965 11.7817C8.27773 12.3557 8.27778 13.2448 8.41965 13.8123C8.54352 14.3077 8.88171 15.026 9.17049 15.4071C10.3726 16.9934 12.5173 17.5623 14.352 16.7816C15.2713 16.3904 16.0725 15.6267 16.528 14.7074C16.7304 14.2991 16.9301 13.5951 16.9458 13.235C16.9543 13.0396 16.9393 12.9967 16.8298 12.9026C16.6724 12.7671 16.5211 12.765 16.3729 12.8962C16.2824 12.9764 16.2473 13.0687 16.2079 13.3304C16.1803 13.5132 16.1091 13.8059 16.0496 13.9808C15.9408 14.3009 15.6587 14.8488 15.5767 14.8995C15.5482 14.9171 15.5326 14.166 15.5328 12.7858L15.5331 10.6448L15.6257 10.7805C15.7733 10.9969 16.0148 11.4873 16.0785 11.7C16.1815 12.0439 16.4448 12.1619 16.686 11.9722C16.8014 11.8813 16.8089 11.856 16.7859 11.6338C16.7589 11.3722 16.4561 10.6837 16.2118 10.3287C16.1326 10.2135 15.9473 9.99056 15.8001 9.8332L15.5325 9.5471V9.07427C15.5325 8.62289 15.5378 8.59646 15.6505 8.4917C16.1445 8.03262 16.6186 6.96432 16.6186 6.3107C16.6186 6.03052 16.3129 5.83547 16.0793 5.96658C15.9518 6.03812 15.9344 6.08533 15.8346 6.62658C15.7408 7.13625 15.54 7.52024 15.1411 7.95352L14.8084 8.31479V12.0004V15.6861L14.6581 15.8008C14.4543 15.9563 13.8999 16.2078 13.5413 16.3076C13.0869 16.434 12.139 16.4239 11.6657 16.2876C10.6583 15.9974 9.82945 15.2988 9.37826 14.3593C9.16012 13.9051 9.06142 13.5256 9.0283 13.0141C8.98268 12.3103 9.1756 11.5303 9.54448 10.9271L9.71718 10.6448L9.74125 12.274C9.75447 13.17 9.76976 13.9077 9.77519 13.9133C9.78062 13.9189 9.84833 13.9562 9.92571 13.9962C10.0877 14.0799 10.2442 14.055 10.3745 13.9247C10.4615 13.8376 10.4639 13.7632 10.4639 11.0971V8.35883L9.7398 6.91119L9.01571 5.46356V4.17147V2.87934L9.12682 2.76828C9.34825 2.5468 9.69197 2.68003 9.94205 3.08425L10.0792 3.30596L10.1018 4.34335C10.1281 5.5476 10.1164 5.5185 10.595 5.56851C11.1083 5.62218 11.4879 5.8762 11.734 6.33079L11.889 6.61703L11.9118 7.62809C11.9343 8.62316 11.9364 8.6405 12.0415 8.72553C12.1903 8.84587 12.3903 8.83564 12.5251 8.70082C12.6357 8.59017 12.6362 8.58623 12.6362 7.66949C12.6362 6.67265 12.5984 6.42275 12.3838 5.9993C12.3193 5.87199 12.1735 5.66834 12.0598 5.54683C11.8388 5.31051 11.8255 5.21547 12.0339 5.36065C12.397 5.61363 12.8741 5.6144 13.2358 5.3625C13.3584 5.27711 13.3621 5.27711 13.4847 5.3625C13.8416 5.61105 14.3233 5.61345 14.6757 5.36839C14.7894 5.28937 14.7975 5.2905 15.0554 5.42057C15.5112 5.65051 15.9131 5.58331 16.2808 5.21565C16.5882 4.90819 16.6186 4.78219 16.6186 3.81726V3.01922H17.1878H17.757L17.878 2.88816C17.9445 2.81611 18.0867 2.65369 18.1939 2.52729C18.334 2.36229 18.4866 2.2492 18.7347 2.12656C19.062 1.96481 19.1035 1.95572 19.515 1.95572C19.9257 1.95572 19.9684 1.96504 20.2916 2.12475C20.7035 2.32831 20.96 2.59033 21.1593 3.01107C21.289 3.28473 21.3025 3.35411 21.3023 3.74331C21.3019 4.13137 21.288 4.20265 21.159 4.47554C20.9603 4.89601 20.7037 5.15822 20.2916 5.36187C19.9684 5.52158 19.9257 5.5309 19.515 5.5309C19.1035 5.5309 19.062 5.5218 18.7347 5.36006C18.4866 5.23742 18.334 5.12432 18.1939 4.95932C17.7791 4.47038 17.7591 4.45436 17.6011 4.48487C17.2421 4.55424 17.2012 4.87343 17.5004 5.27145C17.8153 5.69038 18.2277 5.97721 18.7909 6.16891C19.1357 6.28626 19.8925 6.28662 20.2391 6.16959C21.3383 5.79836 22.0479 4.84646 22.0479 3.74331C22.0479 2.29133 20.78 1.11197 19.3385 1.22317C18.6975 1.27258 18.1409 1.53584 17.6813 2.0069L17.4001 2.29513H17.0094H16.6186V2.04016C16.6186 1.64735 16.5373 1.44134 16.2808 1.18483C15.9131 0.817179 15.5112 0.749975 15.0554 0.979918C14.7975 1.10998 14.7894 1.11111 14.6757 1.0321C14.3233 0.787039 13.8416 0.789437 13.4847 1.03798C13.3621 1.12338 13.3584 1.12338 13.2358 1.03798C12.8789 0.789437 12.3972 0.787039 12.0448 1.0321C11.9311 1.11111 11.923 1.10998 11.6651 0.979918C11.2029 0.746807 10.7456 0.82976 10.4051 1.20846C10.1941 1.44315 10.1018 1.67572 10.1018 1.97319V2.16122L9.91503 2.06591C9.52529 1.86706 9.06613 1.90539 8.73554 2.1643L8.56845 2.29513H7.69403H6.8196L6.76398 2.05754C6.67148 1.66242 6.4185 1.20624 6.1252 0.905563C5.82289 0.595608 5.5696 0.432643 5.12917 0.264564C4.84121 0.154729 4.78568 0.149887 3.69819 0.139659C3.07593 0.133866 2.46498 0.149072 2.34053 0.173555ZM11.4389 1.68215L11.55 1.7932V3.20024V4.60728L11.4389 4.71834C11.3689 4.78839 11.2761 4.82944 11.188 4.82944C11.0998 4.82944 11.007 4.78839 10.937 4.71834L10.8259 4.60728V3.20024V1.7932L10.937 1.68215C11.007 1.61209 11.0998 1.57104 11.188 1.57104C11.2761 1.57104 11.3689 1.61209 11.4389 1.68215ZM12.8871 1.68215L12.9982 1.7932V3.20024V4.60728L12.8871 4.71834C12.8171 4.78839 12.7243 4.82944 12.6362 4.82944C12.548 4.82944 12.4552 4.78839 12.3852 4.71834L12.2741 4.60728V3.20024V1.7932L12.3852 1.68215C12.4552 1.61209 12.548 1.57104 12.6362 1.57104C12.7243 1.57104 12.8171 1.61209 12.8871 1.68215ZM14.3353 1.68215L14.4464 1.7932V3.20024V4.60728L14.3353 4.71834C14.2653 4.78839 14.1725 4.82944 14.0843 4.82944C13.9962 4.82944 13.9034 4.78839 13.8334 4.71834L13.7223 4.60728V3.20024V1.7932L13.8334 1.68215C13.9034 1.61209 13.9962 1.57104 14.0843 1.57104C14.1725 1.57104 14.2653 1.61209 14.3353 1.68215ZM15.7834 1.68215L15.8946 1.7932V3.20024V4.60728L15.7834 4.71834C15.7134 4.78839 15.6207 4.82944 15.5325 4.82944C15.4443 4.82944 15.3516 4.78839 15.2816 4.71834L15.1705 4.60728V3.20024V1.7932L15.2816 1.68215C15.3516 1.61209 15.4443 1.57104 15.5325 1.57104C15.6207 1.57104 15.7134 1.61209 15.7834 1.68215ZM19.1529 2.71633C18.9308 2.78634 18.552 3.17861 18.4839 3.40914C18.3585 3.83346 18.4469 4.17174 18.7667 4.49156C19.2246 4.94941 19.8054 4.94941 20.2632 4.49156C20.606 4.14875 20.706 3.70833 20.49 3.49237C20.2656 3.26785 19.877 3.42693 19.877 3.74331C19.877 3.92935 19.701 4.10535 19.515 4.10535C19.3289 4.10535 19.1529 3.92935 19.1529 3.74331C19.1529 3.55726 19.3289 3.38126 19.515 3.38126C19.701 3.38126 19.877 3.20527 19.877 3.01922C19.877 2.71402 19.5691 2.58518 19.1529 2.71633ZM6.5835 7.06135C5.71577 7.93166 5.62155 8.04095 5.62155 8.17726C5.62155 8.30927 5.68744 8.39508 6.14303 8.85632L6.66451 9.38432L6.46231 9.78827C6.35112 10.0104 6.203 10.3699 6.13317 10.5871L6.00622 10.982L5.26879 10.9831C4.54678 10.9842 4.529 10.9865 4.42025 11.0953L4.30914 11.2063V12.7944V14.3825L4.42025 14.4935C4.529 14.6023 4.54678 14.6046 5.26879 14.6057L6.00622 14.6068L6.1324 15.0017C6.20182 15.2189 6.34913 15.5798 6.45978 15.8038L6.66098 16.211L6.24449 16.6292L5.82796 17.0474L5.7566 16.7866C5.51412 15.9008 4.55158 15.4518 3.74309 15.8473C3.23641 16.0953 2.93691 16.574 2.9351 17.1389C2.93374 17.566 3.05312 17.8563 3.34995 18.1479C4.02028 18.8063 5.1003 18.6879 5.58865 17.9023L5.72894 17.6766L6.38791 18.3356L7.04687 18.9945L6.93894 19.198L6.83105 19.4014L6.69017 19.3153C6.61269 19.268 6.46104 19.1836 6.35315 19.1279C6.16589 19.0312 6.15045 19.0299 6.01374 19.1012C5.52122 19.3578 5.18579 19.5769 5.13655 19.6742C5.10537 19.7359 5.07953 19.9239 5.07917 20.0919L5.07849 20.3973H4.3544H3.63031V20.0616C3.63031 19.877 3.61759 19.6927 3.60203 19.6522C3.5865 19.6117 3.46938 19.5258 3.34181 19.4614C3.21423 19.397 3.01981 19.2825 2.90975 19.2071C2.65112 19.0298 2.53291 19.0341 2.19218 19.2339L1.91232 19.3979L1.72433 19.0717C1.62092 18.8923 1.46452 18.6233 1.37677 18.474C1.28906 18.3246 1.21014 18.1888 1.20145 18.1721C1.19271 18.1554 1.29911 18.0768 1.43782 17.9974C1.85109 17.761 1.85286 17.7574 1.84734 17.1488C1.84471 16.8571 1.82222 16.585 1.79737 16.544C1.77253 16.503 1.6245 16.3949 1.46837 16.3037C1.31228 16.2125 1.1919 16.1238 1.20091 16.1066C1.20991 16.0895 1.28906 15.9532 1.37677 15.8039C1.46452 15.6546 1.62083 15.3858 1.7241 15.2066L1.91187 14.8808L2.18657 15.0444C2.33763 15.1344 2.51807 15.208 2.58753 15.208C2.66035 15.208 2.83336 15.1282 2.99619 15.0195C3.15151 14.9158 3.30773 14.8309 3.34335 14.8309C3.37901 14.8309 3.45811 14.7809 3.51921 14.7198C3.62628 14.6128 3.63031 14.5864 3.63031 13.9937C3.63031 13.401 3.62628 13.3746 3.51921 13.2676C3.36978 13.1181 3.20174 13.1255 3.0385 13.2887C2.91179 13.4154 2.90622 13.4383 2.90622 13.8307V14.2404L2.73674 14.3273L2.56726 14.4143L2.17969 14.2062C1.61567 13.9034 1.65432 13.8746 0.921906 15.1424C0.594527 15.7092 0.32666 16.206 0.32666 16.2465C0.32666 16.4184 0.44274 16.5471 0.760841 16.7282L1.096 16.9188V17.1389V17.3591L0.760841 17.5497C0.44274 17.7307 0.32666 17.8595 0.32666 18.0314C0.32666 18.0719 0.594527 18.5687 0.921906 19.1354C1.65432 20.4033 1.61567 20.3745 2.17969 20.0716L2.56726 19.8635L2.73674 19.9505L2.90622 20.0375V20.4472C2.90622 20.8396 2.91179 20.8624 3.0385 20.9891L3.17079 21.1214H4.37562H5.58042L5.69147 21.0103C5.79343 20.9084 5.80262 20.8646 5.80294 20.4786L5.8033 20.0579L5.99179 19.9556L6.18023 19.8532L6.48082 20.0318C7.01959 20.3518 7.13363 20.3273 7.41095 19.8314L7.57627 19.5358L7.73186 19.6724C8.01 19.9166 8.09563 19.8826 8.6958 19.2898L9.22154 18.7705L9.62775 18.9712C9.85118 19.0817 10.2117 19.2287 10.4289 19.2982L10.8238 19.4243L10.8248 20.1618C10.8263 21.1778 10.7625 21.1214 11.9121 21.1214C12.769 21.1214 12.7769 21.1205 12.8871 21.0103C13.0341 20.8634 13.0341 20.6554 12.8871 20.5084C12.7801 20.4014 12.7535 20.3973 12.163 20.3973H11.55V19.721C11.55 18.8829 11.5426 18.8703 10.9441 18.699C10.4536 18.5586 9.99984 18.3687 9.58874 18.1318C9.12143 17.8626 9.09491 17.8701 8.5127 18.4379L8.01607 18.9222L7.26225 18.1683L6.50838 17.4145L6.9927 16.9179C7.56043 16.3356 7.56799 16.3091 7.29872 15.8418C7.06185 15.4307 6.87196 14.9769 6.73158 14.4865C6.56024 13.888 6.54766 13.8805 5.70953 13.8805H5.03323V12.7944V11.7083H5.70953C6.54766 11.7083 6.56024 11.7008 6.73158 11.1023C6.87196 10.6119 7.06185 10.1581 7.29872 9.74699C7.56795 9.27978 7.56034 9.25307 6.99347 8.67172L6.50992 8.17586L7.28763 7.39353C8.01222 6.66464 8.06535 6.59979 8.06535 6.44438C8.06535 6.22281 7.93818 6.09659 7.71489 6.09659C7.55455 6.09659 7.49395 6.14828 6.5835 7.06135ZM17.3308 6.15316C17.2196 6.23757 17.1667 6.41804 17.2147 6.54915C17.2374 6.61138 17.5953 7.00256 18.0098 7.41846L18.7636 8.17464L18.2794 8.67113C17.7119 9.25312 17.7043 9.27969 17.9736 9.74699C18.2105 10.1581 18.4003 10.6119 18.5407 11.1023C18.7121 11.7008 18.7246 11.7083 19.5628 11.7083H20.2391V12.7944V13.8805H19.5628C18.7246 13.8805 18.7121 13.888 18.5407 14.4865C18.4003 14.9769 18.2105 15.4307 17.9736 15.8418C17.7043 16.3091 17.7119 16.3356 18.2796 16.9179L18.7639 17.4145L18.0101 18.1683L17.2562 18.9222L16.7596 18.4379C16.1774 17.8701 16.1509 17.8626 15.6836 18.1318C15.2725 18.3687 14.8187 18.5586 14.3283 18.699C13.7078 18.8766 13.7223 18.8462 13.7223 19.972C13.7223 20.8961 13.7226 20.8996 13.8334 21.0103C13.9803 21.1573 14.1883 21.1573 14.3353 21.0103C14.444 20.9016 14.4464 20.8838 14.4475 20.1618L14.4485 19.4243L14.8434 19.2972C15.0606 19.2273 15.421 19.08 15.6443 18.97L16.0502 18.7699L16.5762 19.2895C17.0385 19.7461 17.1207 19.809 17.2554 19.809C17.3952 19.809 17.5066 19.7109 18.5297 18.6879C19.5527 17.6649 19.6508 17.5534 19.6508 17.4136C19.6508 17.279 19.5879 17.1968 19.1312 16.7344L18.6117 16.2084L18.8117 15.8025C18.9217 15.5793 19.069 15.2189 19.1389 15.0017L19.2661 14.6068L20.0035 14.6057C20.7255 14.6046 20.7433 14.6023 20.8521 14.4935L20.9632 14.3825V12.7944V11.2063L20.8521 11.0953C20.7433 10.9865 20.7255 10.9842 20.0035 10.9831L19.2661 10.982L19.1389 10.5871C19.069 10.3699 18.9217 10.0096 18.8117 9.78627L18.6117 9.38038L19.1312 8.85437C19.5876 8.39227 19.6508 8.30977 19.6508 8.17531C19.6508 8.03643 19.5619 7.93342 18.6879 7.05945C17.7976 6.16918 17.713 6.09659 17.5652 6.09659C17.4772 6.09659 17.3718 6.12207 17.3308 6.15316ZM4.75373 16.5371C5.3178 16.9549 5.10134 17.7913 4.41432 17.8486C3.6638 17.9112 3.36172 16.8959 4.01752 16.5148C4.23456 16.3886 4.56687 16.3987 4.75373 16.5371Z" fill="#FF4949"/>
</svg>
