<svg width="22" height="22" viewBox="0 0 22 22" fill="none" xmlns="http://www.w3.org/2000/svg">
<path fill-rule="evenodd" clip-rule="evenodd" d="M9.0768 0.877303C9.06578 0.928004 9.02749 1.22746 8.99174 1.54281C8.90127 2.34055 8.91966 2.28845 8.71657 2.32183C8.16312 2.41275 6.69262 3.01735 6.04002 3.42227L5.87199 3.52649L5.30285 3.07952L4.73367 2.63255L3.47679 3.88693L2.21991 5.14135L2.41547 5.38978C2.52302 5.5264 2.72434 5.78322 2.86293 5.96043L3.11484 6.28266L3.00992 6.45188C2.6041 7.10608 1.99975 8.57575 1.90875 9.12966C1.8752 9.33389 1.92087 9.31772 1.12972 9.4056C0.814373 9.44062 0.514918 9.47842 0.464217 9.4896L0.37207 9.50991V11.2694V13.0288L0.464217 13.0492C0.514918 13.0603 0.814373 13.0981 1.12972 13.1332C1.92087 13.221 1.8752 13.2049 1.90875 13.4091C1.99975 13.963 2.6041 15.4327 3.00992 16.0869L3.11484 16.2561L2.86293 16.5783C2.72434 16.7555 2.52302 17.0124 2.41547 17.149L2.21991 17.3974L3.47679 18.6518L4.73367 19.9062L5.3042 19.4582L5.87473 19.0101L6.04137 19.114C6.69443 19.5214 8.15964 20.1254 8.71657 20.2169C8.91966 20.2503 8.90127 20.1982 8.99174 20.996C9.02749 21.3113 9.06578 21.6108 9.0768 21.6615L9.09683 21.7536H10.8563H12.6158L12.6358 21.6615C12.6468 21.6108 12.6851 21.3113 12.7208 20.996C12.8107 20.2032 12.7935 20.2533 12.9865 20.2225C13.5243 20.1365 15.0237 19.519 15.6733 19.116L15.8421 19.0114L16.4105 19.4577L16.9789 19.9041L18.2358 18.6508L19.4927 17.3974L19.2971 17.149C19.1896 17.0124 18.9882 16.7555 18.8497 16.5783L18.5977 16.2561L18.7027 16.0869C19.1085 15.4327 19.7128 13.963 19.8038 13.4091C19.8372 13.206 19.7851 13.2244 20.5829 13.1339C20.8982 13.0982 21.1977 13.0599 21.2484 13.0489L21.3405 13.0288V11.2694V9.50991L21.2484 9.48989C21.1977 9.47887 20.8982 9.44058 20.5829 9.40483C19.7851 9.31436 19.8372 9.33275 19.8038 9.12966C19.7128 8.57575 19.1085 7.10608 18.7027 6.45188L18.5977 6.28266L18.8497 5.96043C18.9882 5.78322 19.1896 5.5264 19.2971 5.38978L19.4927 5.14135L18.2358 3.88799L16.9789 2.63464L16.409 3.08214C15.8714 3.50438 15.8341 3.52633 15.7498 3.47104C15.542 3.33495 14.9548 3.02489 14.6082 2.86828C14.1916 2.6801 13.2442 2.3575 12.9877 2.31647C12.7933 2.28538 12.8108 2.336 12.7208 1.54281C12.6851 1.22746 12.6468 0.928004 12.6358 0.877303L12.6158 0.785156H10.8563H9.09683L9.0768 0.877303ZM11.6134 2.63832C11.6536 2.98185 11.6978 3.2754 11.7116 3.29072C11.7255 3.30608 12.0132 3.37423 12.3511 3.44225C13.4715 3.6677 14.3828 4.04231 15.2825 4.64724C15.5571 4.83186 15.8038 4.99928 15.8307 5.01927C15.8636 5.04368 16.0458 4.9256 16.3862 4.6594L16.8928 4.26326L17.3739 4.74315C17.6386 5.0071 17.8432 5.24275 17.8286 5.26679C17.8141 5.29087 17.6374 5.52087 17.4359 5.77794C17.1834 6.10004 17.081 6.26132 17.1062 6.29687C18.008 7.56882 18.4242 8.48655 18.6834 9.77456C18.7514 10.1124 18.8196 10.4003 18.8349 10.4142C18.8572 10.4344 19.9638 10.5761 20.0812 10.5738C20.0981 10.5734 20.1119 10.8865 20.1119 11.2694C20.1119 11.6523 20.0981 11.9653 20.0812 11.965C19.9638 11.9626 18.8572 12.1043 18.8349 12.1246C18.8196 12.1385 18.7514 12.4263 18.6834 12.7642C18.4563 13.8927 18.014 14.9409 17.3867 15.8369C17.2187 16.0768 17.0813 16.2811 17.0813 16.2907C17.0813 16.3004 17.2435 16.5153 17.4417 16.7683C17.64 17.0212 17.8141 17.2479 17.8286 17.272C17.8432 17.296 17.6386 17.5317 17.3739 17.7956L16.8928 18.2755L16.3862 17.8794C16.0389 17.6077 15.8635 17.4946 15.8284 17.5195C14.555 18.4231 13.6437 18.8364 12.3511 19.0965C12.0132 19.1645 11.7255 19.2327 11.7116 19.248C11.6978 19.2634 11.6536 19.557 11.6134 19.9004L11.5403 20.525H10.8558H10.1713L10.0961 19.8856C10.0088 19.1424 10.0856 19.2251 9.36147 19.0939C8.1727 18.8784 7.14103 18.4113 5.88415 17.5195C5.84905 17.4946 5.67373 17.6077 5.3264 17.8794L4.8198 18.2755L4.33867 17.7956C4.07402 17.5317 3.86942 17.296 3.88396 17.272C3.8985 17.2479 4.07521 17.0179 4.27667 16.7608C4.52915 16.4387 4.63161 16.2774 4.60643 16.2419C3.70106 14.965 3.28939 14.0572 3.02917 12.7642C2.96114 12.4263 2.89299 12.1385 2.87764 12.1247C2.86232 12.1109 2.56876 12.0667 2.22524 12.0265L1.60069 11.9534V11.2694V10.5853L2.22524 10.5123C2.56876 10.4721 2.86232 10.4279 2.87764 10.4141C2.89299 10.4002 2.96114 10.1124 3.02917 9.77456C3.28939 8.48152 3.70106 7.57377 4.60643 6.29687C4.63161 6.26132 4.52915 6.10004 4.27667 5.77794C4.07521 5.52087 3.8985 5.29087 3.88396 5.26679C3.86942 5.24275 4.07374 5.00739 4.33801 4.74381L4.81849 4.26457L5.32427 4.65445C5.60247 4.86892 5.83754 5.04437 5.84672 5.04437C5.85589 5.04437 5.96168 4.97176 6.08184 4.88301C7.05003 4.16775 8.23159 3.64964 9.36147 3.44487C10.0856 3.31366 10.0088 3.39638 10.0961 2.65315L10.1713 2.01378H10.8558H11.5403L11.6134 2.63832ZM10.1058 4.55522C6.57762 4.96525 3.94183 8.0445 4.11314 11.5561C4.19676 13.2706 4.86075 14.7976 6.0442 15.9971C8.68221 18.671 12.9474 18.6992 15.6038 16.0605C16.6145 15.0566 17.2518 13.8394 17.5177 12.4053C17.6053 11.9329 17.6171 10.6964 17.5383 10.2455C17.1694 8.13226 15.9853 6.42681 14.1612 5.38134C12.9918 4.71109 11.4562 4.39828 10.1058 4.55522ZM11.9202 5.84232C12.6092 5.98078 13.3518 6.29273 13.9688 6.70284C14.434 7.01205 15.1366 7.72932 15.4598 8.2249C16.0991 9.20534 16.3628 10.0942 16.3628 11.2694C16.3628 11.7575 16.3427 12.0418 16.2903 12.2932C16.0483 13.4553 15.557 14.3657 14.7322 15.1809C13.9086 15.9948 13.0296 16.464 11.8801 16.7034C11.3971 16.804 10.3155 16.804 9.83244 16.7034C8.67279 16.4619 7.77545 15.9768 6.94437 15.1422C6.13446 14.3289 5.66206 13.4447 5.42231 12.2932C5.32169 11.8102 5.32169 10.7286 5.42231 10.2455C5.66181 9.09529 6.1329 8.2129 6.94437 7.39464C7.86759 6.46367 8.96356 5.9289 10.2829 5.76561C10.5576 5.73162 11.6161 5.78122 11.9202 5.84232ZM11.5424 10.3169L10.2424 11.617L9.55576 10.9312C9.17812 10.5541 8.85057 10.2455 8.82788 10.2455C8.77456 10.2455 7.98951 11.0327 7.98951 11.0861C7.98951 11.1084 8.49636 11.6332 9.11579 12.2523L10.2421 13.3781L11.9826 11.6379C12.9399 10.6808 13.7231 9.87891 13.7231 9.85589C13.7231 9.80228 12.9364 9.01691 12.8827 9.01691C12.8605 9.01691 12.2574 9.60194 11.5424 10.3169Z" fill="#FF4949"/>
</svg>
