<svg width="22" height="22" viewBox="0 0 22 22" fill="none" xmlns="http://www.w3.org/2000/svg">
<path fill-rule="evenodd" clip-rule="evenodd" d="M14.6268 0.826224C14.3675 0.93922 14.2463 1.14392 14.0224 1.84733C13.7818 2.60296 13.7648 2.79289 13.9147 3.04875C14.0363 3.25621 14.1304 3.32335 14.4394 3.42313C14.5659 3.464 14.6834 3.51006 14.7005 3.5255C14.7176 3.5409 14.6272 3.86625 14.4995 4.24841L14.2675 4.94329L13.7782 4.92091C13.2755 4.89794 12.3521 4.9655 12.2226 5.03478C12.1826 5.0562 12.127 5.12899 12.099 5.19652C12.0571 5.29784 12.0597 5.34152 12.1137 5.44615C12.1498 5.51593 12.2159 5.58458 12.2605 5.59876C12.3051 5.6129 12.5332 5.60483 12.7674 5.58077C13.3086 5.52526 13.75 5.52542 14.2632 5.5814C17.015 5.88161 19.3629 7.53195 20.5261 9.98361C21.5864 12.2183 21.5542 14.6529 20.4352 16.874C20.0665 17.6057 19.7023 18.1243 19.1526 18.7006C18.4779 19.4078 17.831 19.8859 16.9557 20.3245C15.2986 21.1547 13.3491 21.3591 11.5386 20.8923C8.20506 20.0328 5.84155 17.1046 5.70939 13.6704C5.67873 12.8734 5.73629 12.2586 5.90677 11.5623C6.18054 10.4442 6.62069 9.51012 7.28708 8.63288C8.16243 7.48062 9.37192 6.57519 10.7369 6.05041C10.944 5.97076 11.1464 5.87625 11.1867 5.84036C11.3571 5.68854 11.2135 5.32792 10.9826 5.32792C10.8317 5.32792 10.3168 5.52563 9.77345 5.7922L9.27014 6.03911H7.9671H6.66411L6.57743 6.14935C6.46456 6.2928 6.46799 6.3845 6.59157 6.52833L6.69243 6.64572L7.51269 6.66664L8.33299 6.68756L8.10022 6.87314C7.71467 7.1805 6.98557 7.96198 6.67114 8.4048C6.29098 8.94025 6.03679 9.38303 5.78206 9.95349L5.57782 10.4109L4.41318 10.4212C3.28501 10.4312 3.24619 10.4343 3.17528 10.52C3.07383 10.6425 3.08115 10.8601 3.19005 10.9587C3.27071 11.0318 3.36463 11.0395 4.31959 11.0515C4.89244 11.0587 5.36116 11.0779 5.36116 11.0941C5.36116 11.1103 5.31589 11.324 5.26055 11.5689C5.1027 12.2674 5.05254 12.8608 5.08292 13.6699C5.09772 14.0633 5.12701 14.4697 5.14805 14.5731C5.16905 14.6765 5.17746 14.7753 5.16667 14.7927C5.15588 14.8102 4.36825 14.8245 3.41642 14.8245H1.68575L1.59906 14.9347C1.48619 15.0782 1.48962 15.1699 1.61325 15.3137L1.71419 15.4311L3.52067 15.452L5.32715 15.4729L5.49089 15.9749C5.80407 16.9353 6.38984 17.9894 7.04841 18.7779L7.36292 19.1544L5.91911 19.1753L4.47526 19.1962L4.37436 19.3136C4.25073 19.4574 4.2473 19.5491 4.36017 19.6926L4.44686 19.8028H6.25634H8.06579L8.31366 19.996C9.08945 20.6006 10.0076 21.0809 10.9721 21.3867C13.6267 22.2283 16.6093 21.6604 18.7902 19.8981C19.22 19.5508 19.9339 18.8097 20.2516 18.3809C21.1551 17.1619 21.7281 15.6803 21.8835 14.1611C22.1929 11.1365 20.7626 8.09484 18.2173 6.36447C18.0837 6.27368 17.9493 6.18524 17.9186 6.16792C17.8745 6.14307 17.9086 5.99218 18.0806 5.44979C18.2003 5.07214 18.3059 4.75018 18.3151 4.73432C18.3243 4.71847 18.4379 4.74202 18.5675 4.78662C18.9923 4.93279 19.3433 4.8715 19.5606 4.61325C19.6752 4.47712 20.1294 3.15689 20.128 2.9642C20.1266 2.77523 19.988 2.50736 19.8302 2.38864C19.7497 2.3281 19.3264 2.16306 18.8398 2.00254C18.084 1.75325 17.9767 1.72768 17.8707 1.77157C17.7071 1.83934 17.635 2.02032 17.7092 2.1767C17.7596 2.28296 17.8505 2.32371 18.6107 2.58078C19.1993 2.77979 19.463 2.88823 19.4787 2.93768C19.4911 2.97675 19.4103 3.2811 19.2992 3.61402C19.1173 4.15884 19.0871 4.22034 18.996 4.22963C18.8424 4.24531 14.5176 2.80707 14.4643 2.72256C14.4069 2.63161 14.7896 1.44471 14.8886 1.40673C14.9243 1.393 15.3351 1.50726 15.8015 1.66062C16.6483 1.93903 16.7262 1.95071 16.8762 1.82185C16.9741 1.73785 16.9712 1.50085 16.8712 1.40083C16.7676 1.29729 15.1271 0.767446 14.9166 0.769537C14.8267 0.770458 14.6963 0.795935 14.6268 0.826224ZM16.5275 4.11864C17.1622 4.3279 17.6901 4.50741 17.7004 4.51753C17.7307 4.54703 17.312 5.78811 17.2718 5.78811C17.2518 5.78811 17.1026 5.72979 16.9402 5.65854C16.3379 5.39423 15.7203 5.19476 15.1444 5.07858L14.9082 5.03093L15.1227 4.38458C15.2406 4.02907 15.3453 3.73819 15.3553 3.73819C15.3653 3.73819 15.8927 3.90938 16.5275 4.11864ZM0.593602 6.13069C0.415929 6.32138 0.530264 6.59431 0.809262 6.64551C0.885318 6.65949 1.82937 6.66526 2.90708 6.65831L4.86659 6.64572L4.94653 6.54695C5.0502 6.41889 5.04853 6.2285 4.94281 6.12279C4.86136 6.04133 4.80337 6.03911 2.76902 6.03911H0.678904L0.593602 6.13069ZM12.6614 6.75629C11.919 6.85071 10.9847 7.15431 10.3295 7.51388C9.4922 7.97344 8.61316 8.74751 8.09391 9.48251C7.59042 10.1952 7.17517 11.1481 6.99042 12.0149C6.8778 12.5432 6.83722 13.5792 6.90717 14.1398C7.22324 16.6726 8.97997 18.8318 11.3783 19.6353C12.155 19.8956 12.4875 19.945 13.4771 19.9472C14.1875 19.9488 14.4489 19.9336 14.7208 19.875C15.5596 19.6939 16.2186 19.442 16.8878 19.0467C19.3428 17.5967 20.6036 14.6541 19.9606 11.8751C19.257 8.83436 16.5501 6.68664 13.4562 6.71454C13.1801 6.71701 12.8224 6.73584 12.6614 6.75629ZM14.6092 7.43975C14.8062 7.47811 14.9893 7.52304 15.016 7.53961C15.0504 7.56086 14.852 8.21671 14.3429 9.76423L13.621 11.9587L13.3792 11.9889C13.2461 12.0056 13.0267 12.0688 12.8915 12.1295L12.6458 12.2397L11.598 11.2835C11.0216 10.7575 10.5035 10.3097 10.4465 10.2883C10.2343 10.2088 10.0048 10.4268 10.0618 10.6538C10.0778 10.7174 10.5031 11.1353 11.178 11.7504C11.9284 12.4343 12.261 12.7638 12.2445 12.8066C12.0465 13.3226 12.1457 13.8543 12.5147 14.2546C12.6992 14.4548 13.0511 14.6571 13.2148 14.6571C13.3378 14.6571 13.34 14.6637 13.4108 15.2415C13.4602 15.644 13.4845 15.7333 13.5617 15.7958C13.6859 15.8964 13.8589 15.8897 13.9769 15.7798C14.0681 15.6948 14.0725 15.6682 14.048 15.3497C14.0337 15.163 14.0102 14.9244 13.9958 14.8196C13.9697 14.629 13.9698 14.6287 14.1557 14.5198C14.258 14.4598 14.4132 14.3317 14.5004 14.2351L14.6591 14.0595L14.8944 14.1317C15.8905 14.4374 19.083 15.5156 19.083 15.5464C19.083 15.5676 18.9996 15.7574 18.8977 15.9682C18.4288 16.9377 17.7303 17.7402 16.8309 18.3424C16.6622 18.4553 16.5107 18.5478 16.4944 18.5478C16.478 18.5478 16.3807 18.3765 16.2783 18.1672C16.1757 17.9579 16.0601 17.7696 16.0214 17.7489C15.9068 17.6874 15.7122 17.7056 15.6431 17.7843C15.5119 17.9336 15.5218 18.02 15.715 18.4171C15.8187 18.6302 15.9036 18.8198 15.9036 18.8386C15.9036 18.9002 14.8873 19.2094 14.446 19.282C13.9052 19.3709 12.797 19.3485 12.2849 19.2381C12.1008 19.1985 11.944 19.1604 11.9365 19.1535C11.929 19.1467 11.9808 18.9603 12.0516 18.7393C12.2042 18.2628 12.2047 18.2555 12.0935 18.1142C11.9812 17.9713 11.7715 17.9637 11.6484 18.0981C11.601 18.1498 11.5091 18.3569 11.4443 18.5582C11.3794 18.7596 11.3057 18.9243 11.2804 18.9243C11.1808 18.9243 10.5065 18.5692 10.1303 18.3186C9.60356 17.9677 9.11271 17.504 8.72934 16.9951C8.43373 16.6027 8.26656 16.338 8.29697 16.3106C8.30442 16.3038 8.48226 16.2125 8.69215 16.1075C8.90203 16.0026 9.0856 15.8859 9.10004 15.8482C9.1489 15.721 9.12669 15.549 9.0531 15.4843C8.89776 15.3479 8.81029 15.3581 8.41022 15.559C8.04337 15.7433 8.01998 15.7495 7.96694 15.677C7.89055 15.5725 7.68505 14.9207 7.59235 14.4888C7.48353 13.9818 7.48454 12.7399 7.59423 12.1985C7.63744 11.9852 7.68597 11.8025 7.70208 11.7926C7.71814 11.7826 7.9087 11.8299 8.12553 11.8975C8.34232 11.9652 8.54409 12.0208 8.57388 12.0211C8.6729 12.0219 8.83346 11.8208 8.83346 11.696C8.83346 11.5215 8.69616 11.4198 8.27915 11.2855C8.07784 11.2206 7.91309 11.1467 7.91309 11.1212C7.91309 11.039 8.30442 10.2938 8.50598 9.99219C8.94018 9.34236 9.54596 8.74688 10.2066 8.32059C10.375 8.21186 10.5187 8.1294 10.5259 8.13735C10.5331 8.1453 10.6259 8.32556 10.7321 8.53796C10.886 8.8457 10.9477 8.92979 11.0357 8.95188C11.1952 8.99187 11.3555 8.92125 11.4225 8.78144C11.4774 8.6669 11.4695 8.63765 11.284 8.26419C11.1758 8.04644 11.1026 7.85383 11.1213 7.83614C11.2349 7.7285 12.35 7.42251 12.8496 7.36185C13.1625 7.32391 14.2649 7.37269 14.6092 7.43975ZM16.2842 8.03393C17.8563 8.8444 18.9954 10.3609 19.3837 12.1601C19.508 12.7363 19.5176 13.8541 19.4034 14.4583C19.361 14.6826 19.3127 14.8745 19.296 14.8849C19.2793 14.8952 18.2786 14.5792 17.0722 14.1826L14.8786 13.4617L14.8486 13.2213C14.8061 12.8812 14.6781 12.6202 14.4307 12.369L14.2167 12.1518L14.943 9.95286C15.6196 7.90454 15.6752 7.75577 15.7551 7.7797C15.8022 7.7938 16.0403 7.90822 16.2842 8.03393ZM1.86606 8.31724C1.80958 8.37372 1.76335 8.46868 1.76335 8.5283C1.76335 8.58791 1.80958 8.68288 1.86606 8.73935L1.96872 8.84206H3.55247C5.08848 8.84206 5.13897 8.83951 5.22775 8.75676C5.36049 8.63309 5.3515 8.41325 5.20909 8.30126C5.10203 8.21704 5.0538 8.21453 3.53381 8.21453H1.96872L1.86606 8.31724ZM0.611006 12.7099C0.554528 12.7664 0.508301 12.8614 0.508301 12.921C0.508301 12.9806 0.554528 13.0756 0.611006 13.132L0.713669 13.2347H1.92416C3.04451 13.2347 3.14181 13.2289 3.2313 13.1565C3.36563 13.0477 3.36563 12.7943 3.2313 12.6855C3.14181 12.613 3.04451 12.6072 1.92416 12.6072H0.713669L0.611006 12.7099ZM13.8868 12.7192C14.2749 13.0067 14.3286 13.5212 14.0043 13.8455C13.6516 14.1982 13.0872 14.1039 12.8601 13.6543C12.6681 13.2743 12.8037 12.8878 13.2053 12.6707C13.3728 12.5802 13.7338 12.6059 13.8868 12.7192ZM2.53542 17.1026C2.47894 17.1591 2.43271 17.254 2.43271 17.3136C2.43271 17.3733 2.47894 17.4682 2.53542 17.5247C2.63787 17.6272 2.63979 17.6274 3.51389 17.6274C4.30725 17.6274 4.39879 17.62 4.48635 17.5491C4.55634 17.4925 4.58303 17.4274 4.58303 17.3136C4.58303 17.1999 4.55634 17.1348 4.48635 17.0782C4.39879 17.0072 4.30725 16.9999 3.51389 16.9999C2.63979 16.9999 2.63787 17.0001 2.53542 17.1026Z" fill="#FF4949"/>
</svg>
