<svg width="22" height="22" viewBox="0 0 22 22" fill="none" xmlns="http://www.w3.org/2000/svg">
<path fill-rule="evenodd" clip-rule="evenodd" d="M1.91749 0.413637C1.41164 0.549839 0.919947 0.93523 0.701188 1.36697C0.490549 1.78266 0.471191 1.94573 0.471191 3.30582C0.471191 4.54155 0.47275 4.56477 0.563469 4.6981C0.614201 4.77266 0.707832 4.87228 0.771442 4.91948C0.882749 5.002 0.941109 5.00577 2.29914 5.01799L3.71115 5.03071V12.4273C3.71115 19.4692 3.71472 19.8354 3.78592 20.0633C3.97462 20.6678 4.45786 21.122 5.0865 21.2858C5.28647 21.3378 5.65242 21.3486 7.22077 21.3486C9.0737 21.3486 9.11598 21.3468 9.22175 21.2636C9.363 21.1525 9.36907 20.9487 9.23492 20.8226C9.14227 20.7356 9.11324 20.7334 8.02781 20.7334H6.91564L7.05574 20.5253C7.29795 20.1653 7.36124 19.8762 7.36124 19.1297V18.4778H12.9184H18.4755L18.4732 18.7341C18.4644 19.6831 17.7832 20.5204 16.8805 20.6916C16.7422 20.7178 15.4599 20.7334 13.4441 20.7334H10.2284L10.1277 20.8341C9.99938 20.9624 9.99938 21.1197 10.1277 21.2479L10.2284 21.3486H13.4928C17.1301 21.3486 17.0691 21.3527 17.6553 21.0695C18.065 20.8716 18.6021 20.3433 18.7893 19.9542C19.0093 19.4967 19.0573 19.2821 19.0799 18.6553L19.1008 18.0741L18.9951 17.9683L18.8894 17.8626H17.6981H16.507V16.01V14.1573L16.829 14.4707C17.0062 14.6431 17.2012 14.8032 17.2623 14.8264C17.4053 14.8808 17.6187 14.8804 17.7654 14.8255C17.8981 14.7759 18.4556 14.2423 18.5345 14.0895C18.5635 14.0331 18.6481 13.7375 18.7224 13.4326C18.9144 12.644 18.9284 12.6846 18.2171 11.9668C17.6447 11.3889 17.6387 11.3811 17.7183 11.3046C17.7626 11.262 18.1364 10.9418 18.549 10.5931L19.2992 9.95897L19.5948 9.93396C20.3434 9.87059 20.9619 9.45797 21.2615 8.82224C21.7143 7.86128 21.386 6.7889 20.4711 6.24056C20.23 6.09608 19.7893 5.96906 19.529 5.96906C19.3303 5.96906 19.1727 6.10358 19.1727 6.27329C19.1727 6.4617 19.2891 6.55029 19.591 6.59159C20.1138 6.66307 20.4843 6.91854 20.6996 7.35589C20.8173 7.59499 20.8337 7.66857 20.8337 7.95729C20.8337 8.22736 20.8142 8.32771 20.7251 8.51789C20.4993 8.9997 20.0759 9.27948 19.5107 9.32041C19.3322 9.33333 19.1295 9.37537 19.0477 9.41642C18.9676 9.45658 18.5172 9.81531 18.0469 10.2136L17.1917 10.9379L16.8493 10.5972C16.661 10.4099 16.507 10.2532 16.507 10.2489C16.507 10.2446 16.8315 9.85665 17.2281 9.38673C17.6247 8.91681 17.9781 8.4772 18.0134 8.40982C18.0487 8.34244 18.0932 8.13303 18.1123 7.9445C18.1525 7.54787 18.2438 7.31668 18.4747 7.02669C18.5654 6.91279 18.6396 6.79521 18.6396 6.76536C18.6396 6.64958 18.5418 6.50563 18.4323 6.46027C18.2652 6.39108 18.1235 6.4745 17.8959 6.77581C17.6761 7.06684 17.5451 7.42233 17.5013 7.84595L17.4707 8.1425L16.9991 8.70392L16.5275 9.26534L16.507 5.41282C16.4843 1.15875 16.5024 1.43775 16.2228 1.03136C16.0571 0.790498 15.8828 0.649375 15.5637 0.49763L15.2971 0.370902L10.8642 0.359747L6.43124 0.348633L6.32207 0.434512C6.18374 0.543318 6.1727 0.752439 6.29923 0.866945C6.38264 0.942489 6.53201 0.94577 10.8036 0.965579L15.2215 0.986085L15.4223 1.11019C15.5467 1.18713 15.6702 1.3107 15.7472 1.43509L15.8713 1.6358L15.8821 5.63621L15.893 9.63666L15.39 9.13947C14.7661 8.52289 14.7862 8.52904 14.0085 8.71499C13.7026 8.7882 13.4059 8.87256 13.3494 8.9025C13.1944 8.98448 12.6623 9.54135 12.613 9.67308C12.5578 9.82064 12.5578 10.033 12.613 10.1804C12.6369 10.2439 13.3843 11.0251 14.274 11.9165L15.8918 13.5372V15.6999V17.8626H11.426C7.09224 17.8626 6.95735 17.8649 6.86339 17.9409C6.76808 18.0179 6.76623 18.0337 6.74585 18.9354C6.72637 19.7963 6.71927 19.8628 6.62864 20.0362C6.40885 20.4567 6.03256 20.7077 5.61736 20.711C5.12263 20.7149 4.59283 20.3354 4.40971 19.8459C4.32687 19.6244 4.32634 19.5683 4.32506 10.9812C4.32429 5.712 4.30845 2.22125 4.28446 2.03649C4.24095 1.70126 4.10015 1.35425 3.91232 1.11937L3.78932 0.965579H4.58643C5.30415 0.965579 5.39302 0.957951 5.47833 0.888845C5.61002 0.782213 5.61002 0.533762 5.47833 0.42713C5.38917 0.354949 5.28741 0.35056 3.75787 0.353103C2.49465 0.355195 2.08432 0.368688 1.91749 0.413637ZM2.92249 1.08812C3.20268 1.20911 3.51384 1.5452 3.61543 1.8366C3.68158 2.02636 3.69065 2.1934 3.69065 3.22125V4.3901L2.38851 4.40092L1.08637 4.41175V3.24885C1.08637 2.38513 1.10077 2.03813 1.14227 1.90016C1.26027 1.50817 1.61166 1.15013 2.00488 1.02127C2.24054 0.944048 2.6596 0.974602 2.92249 1.08812ZM5.17344 1.81982C5.07608 1.9274 5.086 2.16551 5.19186 2.26136C5.27253 2.3344 5.36899 2.34031 6.67855 2.3522C8.18993 2.36594 8.34032 2.35052 8.42079 2.17388C8.48718 2.0282 8.48124 1.97702 8.38355 1.85288L8.29857 1.74481H6.76992C5.3411 1.74481 5.23689 1.74969 5.17344 1.81982ZM5.21363 3.14222C5.07821 3.24873 5.06546 3.46822 5.18759 3.59036C5.26769 3.67045 5.32429 3.67238 7.57967 3.67238H9.88968L9.97888 3.57748C10.105 3.44317 10.0967 3.24971 9.95997 3.14222C9.85363 3.05855 9.81627 3.0572 7.5868 3.0572C5.35734 3.0572 5.31998 3.05855 5.21363 3.14222ZM5.18759 4.49263C5.06546 4.61476 5.07821 4.83426 5.21363 4.94077C5.31998 5.02447 5.35726 5.02578 7.59418 5.02578H9.86671L9.96735 4.9251C10.0965 4.79595 10.099 4.618 9.97314 4.49976L9.87819 4.4106H7.57393C5.32429 4.4106 5.26769 4.41253 5.18759 4.49263ZM6.53779 5.89828C6.46168 5.94954 6.35742 6.05379 6.30616 6.12991C6.21983 6.25799 6.2129 6.31238 6.2129 6.86157C6.2129 7.5126 6.25456 7.6577 6.49252 7.83512C6.60026 7.91546 6.67535 7.91735 10.1328 7.92805L13.663 7.93896L13.8011 7.8459C14.0683 7.66586 14.1077 7.54012 14.1077 6.86834C14.1077 6.28986 14.1043 6.26538 13.9986 6.10576C13.7874 5.78668 14.0228 5.80502 10.1397 5.80502H6.67617L6.53779 5.89828ZM13.5042 6.88158L13.5159 7.32247H10.172H6.82808V6.87109V6.41971L10.1603 6.4302L13.4926 6.4407L13.5042 6.88158ZM6.29492 9.08599C6.13883 9.24208 6.20613 9.49816 6.42321 9.57383C6.60436 9.63699 10.7429 9.63699 10.924 9.57383C11.1411 9.49816 11.2084 9.24208 11.0523 9.08599C10.9723 9.00593 10.9156 9.00396 8.67363 9.00396C6.43161 9.00396 6.37498 9.00593 6.29492 9.08599ZM16.4158 11.0249L18.2313 12.8408L18.1219 13.3113C18.0143 13.7745 18.0089 13.7856 17.7839 14.0177C17.6582 14.1474 17.5362 14.2535 17.5129 14.2535C17.4575 14.2535 13.185 9.98055 13.185 9.92518C13.185 9.90193 13.2867 9.78205 13.4111 9.65876C13.6291 9.44259 13.6529 9.4307 14.0775 9.32562C14.3197 9.2657 14.5364 9.21497 14.559 9.21284C14.5817 9.21075 15.4172 10.0262 16.4158 11.0249ZM15.2766 10.9725C15.2287 11.0204 15.1946 11.1092 15.1946 11.1859C15.1946 11.2986 15.2604 11.383 15.6579 11.7806C16.0443 12.167 16.1419 12.2439 16.2455 12.2439C16.4034 12.2439 16.548 12.0954 16.548 11.933C16.548 11.8334 16.4662 11.7305 16.0859 11.3513C15.6881 10.9545 15.6055 10.8905 15.4912 10.8905C15.4133 10.8905 15.3248 10.9243 15.2766 10.9725ZM11.565 11.8535C10.9337 11.9924 10.4383 12.2993 10.0395 12.7981C9.01276 14.0827 9.42292 15.9904 10.89 16.7537C11.0634 16.8439 11.3231 16.9454 11.4671 16.9794C11.7748 17.0519 12.3521 17.0609 12.66 16.9979C12.9843 16.9315 13.5832 16.6235 13.8493 16.3864C14.6341 15.6867 14.9258 14.5346 14.5678 13.5483C14.4204 13.1421 14.269 12.911 13.9224 12.5627C13.6744 12.3136 13.5332 12.2105 13.2626 12.0807C12.6951 11.8086 12.1192 11.7315 11.565 11.8535ZM12.496 12.4533C13.9318 12.7527 14.5808 14.4727 13.6974 15.6374C13.2995 16.1621 12.7616 16.4272 12.095 16.4272C11.1217 16.4272 10.3269 15.7765 10.1226 14.8124C9.83115 13.4365 11.1109 12.1644 12.496 12.4533ZM11.6808 13.0798C11.0568 13.2837 10.6324 13.9198 10.6984 14.5518C10.7659 15.1972 11.2458 15.7092 11.8768 15.809C12.1392 15.8505 12.2957 15.8036 12.3591 15.6645C12.4239 15.5223 12.418 15.4696 12.3245 15.3506C12.2671 15.2776 12.1859 15.2389 12.0477 15.2184C11.6925 15.1659 11.4536 14.9782 11.3465 14.6678C11.2158 14.289 11.3935 13.8896 11.77 13.7159C12.2452 13.4966 12.8047 13.8053 12.8806 14.3287C12.9168 14.5785 12.9616 14.6587 13.0925 14.7085C13.3455 14.8047 13.5452 14.5738 13.4929 14.2456C13.4214 13.7975 13.0988 13.3535 12.7043 13.1605C12.433 13.0278 11.9552 12.9901 11.6808 13.0798Z" fill="#FF4949"/>
</svg>
