<svg width="17" height="22" viewBox="0 0 17 22" fill="none" xmlns="http://www.w3.org/2000/svg">
<path fill-rule="evenodd" clip-rule="evenodd" d="M6.32998 0.627194C6.25745 0.672906 5.97096 0.939836 5.69335 1.22039L5.18864 1.73052L3.56161 1.73078C2.58988 1.73091 1.86953 1.74911 1.77301 1.77592C1.46423 1.86167 1.20104 2.08131 1.04509 2.38349L0.900879 2.66281L0.912307 11.6357L0.923691 20.6086L1.01889 20.7864C1.07124 20.8842 1.20324 21.0463 1.3122 21.1468C1.68501 21.4904 1.13713 21.4682 8.90337 21.4552L15.8239 21.4437L16.0217 21.3516C16.2547 21.2431 16.4756 21.0294 16.608 20.7844L16.703 20.6086L16.7144 11.6922C16.7221 5.71605 16.711 2.72088 16.6809 2.60893C16.605 2.32697 16.3751 2.03687 16.1096 1.88805L15.8679 1.75249L14.1537 1.73997L12.4395 1.72748L11.8901 1.18435C11.5879 0.885597 11.2975 0.619283 11.2447 0.592471C11.178 0.558627 10.4333 0.543814 8.80526 0.543946C6.58302 0.544078 6.45503 0.548386 6.32998 0.627194ZM11.4828 1.65289L11.978 2.14662V2.67701C11.978 3.03088 11.9605 3.22489 11.9253 3.2601C11.849 3.3364 5.77774 3.3364 5.70144 3.2601C5.66628 3.22494 5.6487 3.03119 5.6487 2.67842V2.14944L6.14247 1.6543L6.6362 1.15912H8.81195H10.9877L11.4828 1.65289ZM7.83121 2.03067C7.79121 2.07489 7.75878 2.16882 7.75913 2.23945C7.76067 2.53346 7.86462 2.56563 8.81335 2.56563C9.76758 2.56563 9.86608 2.53443 9.86758 2.23181C9.8689 1.96633 9.80837 1.95028 8.80571 1.95028C7.98791 1.95028 7.89718 1.95776 7.83121 2.03067ZM5.03335 2.82936V3.31284H3.8666H2.69981L2.59195 3.42075L2.48404 3.52861V11.5912C2.48404 19.4641 2.48602 19.6563 2.56808 19.7576L2.65208 19.8614H8.81335H14.9746L15.0586 19.7576C15.1407 19.6563 15.1427 19.4641 15.1427 11.5912V3.52861L15.0348 3.42075L14.9269 3.31284H13.7601H12.5934V2.82936V2.34587H14.1112C15.7935 2.34587 15.8606 2.3554 16.0206 2.61794C16.1088 2.76259 16.1093 2.8145 16.1095 11.5768C16.1096 20.0287 16.1063 20.3963 16.0293 20.5399C15.9852 20.6223 15.8816 20.7258 15.7992 20.77C15.656 20.8468 15.3502 20.8503 8.81335 20.8503C2.27654 20.8503 1.97066 20.8468 1.82746 20.77C1.74509 20.7258 1.64154 20.6223 1.59737 20.5399C1.52036 20.3963 1.51706 20.0287 1.51724 11.5768C1.51737 2.81766 1.51794 2.76255 1.60598 2.61807C1.76514 2.35703 1.81823 2.34947 3.50596 2.34758L5.03335 2.34587V2.82936ZM14.5273 11.5981V19.268H8.81335H3.09939V11.5981V3.92819H8.81335H14.5273V11.5981ZM7.16509 5.46608C7.11675 5.48643 6.78077 5.80149 6.41846 6.16613C6.0561 6.53077 5.74012 6.82913 5.71621 6.82913C5.6923 6.82913 5.53086 6.68821 5.35746 6.51596C5.01374 6.17453 4.87999 6.1278 4.71591 6.29193C4.53856 6.46924 4.59183 6.58352 5.0828 7.07922C5.59288 7.59423 5.68377 7.65022 5.85994 7.55801C5.92508 7.5239 6.33934 7.13113 6.7805 6.68518C7.62652 5.83002 7.67355 5.75723 7.50573 5.56318C7.41123 5.45391 7.28162 5.41694 7.16509 5.46608ZM8.61358 6.32168C8.47816 6.45706 8.47588 6.60998 8.60739 6.73357C8.70883 6.82886 8.71494 6.82913 10.7563 6.82913C12.677 6.82913 12.8095 6.82416 12.9031 6.74843C13.035 6.64158 13.0328 6.39953 12.8988 6.29105C12.8108 6.2198 12.6442 6.21378 10.7624 6.21378H8.72145L8.61358 6.32168ZM7.18707 8.8378C7.15081 8.85042 6.80977 9.1697 6.42922 9.5473L5.73726 10.2338L5.44027 9.94293C5.27689 9.78294 5.09695 9.62835 5.04034 9.59948C4.83217 9.49306 4.58608 9.70413 4.63183 9.94983C4.63856 9.98609 4.85494 10.2284 5.11268 10.4883C5.75414 11.1351 5.69388 11.1417 6.51625 10.3344C7.37919 9.48731 7.59742 9.22438 7.56098 9.07559C7.51589 8.89138 7.34513 8.78277 7.18707 8.8378ZM8.60123 9.69991C8.47016 9.83942 8.47834 10.0099 8.6215 10.1224C8.73485 10.2116 8.78017 10.2136 10.7654 10.2136C13.0532 10.2136 12.9889 10.2224 12.9889 9.90588C12.9889 9.5891 13.0554 9.5982 10.7452 9.5982H8.69683L8.60123 9.69991ZM6.4548 12.903L5.73845 13.6146L5.41886 13.3049C5.06833 12.9653 4.95568 12.907 4.80426 12.9868C4.67069 13.0571 4.63926 13.1107 4.63842 13.2691C4.6379 13.3795 4.71679 13.4804 5.11097 13.8734C5.50308 14.2643 5.60694 14.3452 5.71678 14.3452C5.83066 14.3452 5.97184 14.2222 6.71602 13.4746C7.19265 12.9958 7.58265 12.5813 7.58265 12.5536C7.58265 12.3867 7.38768 12.1915 7.22096 12.1915C7.19358 12.1915 6.84876 12.5117 6.4548 12.903ZM8.60123 13.0843C8.47605 13.2176 8.48027 13.3568 8.61358 13.4901L8.72145 13.598H10.7673C12.7545 13.598 12.8156 13.5955 12.901 13.5101C13.0366 13.3745 13.0334 13.1786 12.8937 13.0595C12.8105 12.9887 12.6419 12.9826 10.7501 12.9826H8.69683L8.60123 13.0843ZM7.07719 15.6594C7.00466 15.7051 6.66925 16.0209 6.33182 16.3612L5.71832 16.9798L5.38089 16.6515C5.01801 16.2983 4.90593 16.2562 4.72321 16.4041C4.65596 16.4586 4.62313 16.5324 4.62313 16.6291C4.62313 16.7538 4.68717 16.8363 5.10679 17.2513C5.50189 17.642 5.61419 17.7296 5.71995 17.7296C5.82974 17.7296 5.98178 17.5966 6.72152 16.8535C7.5322 16.0391 7.59158 15.9687 7.56432 15.8535C7.53132 15.7144 7.38987 15.5758 7.28109 15.5761C7.24149 15.5761 7.14971 15.6136 7.07719 15.6594ZM8.59359 16.455C8.47478 16.5738 8.48291 16.7438 8.61358 16.8745L8.72145 16.9824H10.7212C12.156 16.9824 12.753 16.9678 12.8341 16.9309C13.0111 16.8502 13.0514 16.5996 12.9122 16.444C12.8486 16.3728 12.6889 16.367 10.7625 16.367C8.74008 16.367 8.67903 16.3695 8.59359 16.455Z" fill="#FF4949"/>
</svg>
