<svg width="22" height="22" viewBox="0 0 22 22" fill="none" xmlns="http://www.w3.org/2000/svg">
<path fill-rule="evenodd" clip-rule="evenodd" d="M0.354162 0.393712L0.25293 0.494903V10.8486V21.2024L0.354162 21.3036L0.455352 21.4048H3.54649C5.24661 21.4048 6.66765 21.3932 6.70435 21.3792C6.89918 21.3044 6.89176 21.5943 6.89176 14.0432V6.9662L6.76702 6.84146C6.66604 6.74048 6.62085 6.72204 6.52992 6.74476C6.46811 6.76019 6.38511 6.80208 6.3454 6.83783C6.27724 6.89927 6.27324 7.28568 6.27324 13.8446V20.7863H3.57234H0.871454V10.8486V0.911005H3.57234H6.27324V3.42634C6.27324 5.8867 6.27505 5.94349 6.35571 6.02414C6.46683 6.13527 6.69008 6.13308 6.79259 6.01981C6.86784 5.93668 6.87164 5.8223 6.88281 3.28799C6.88924 1.83323 6.88413 0.600753 6.87147 0.549168C6.85881 0.497542 6.81181 0.418701 6.76702 0.37392C6.68736 0.294254 6.61722 0.29248 3.57049 0.29248H0.455352L0.354162 0.393712ZM7.61894 0.377961L7.51028 0.463399V10.8486V21.2339L7.61894 21.3193C7.72664 21.404 7.75407 21.4048 10.8091 21.4048C13.8641 21.4048 13.8915 21.404 13.9992 21.3193L14.1079 21.2339V10.8486V0.463399L13.9992 0.377961C13.8915 0.293223 13.8641 0.29248 10.8091 0.29248C7.75407 0.29248 7.72664 0.293223 7.61894 0.377961ZM14.9008 0.320067C14.872 0.331695 14.8209 0.394248 14.7874 0.459111C14.734 0.56224 14.7264 1.8639 14.7264 10.8486C14.7264 21.8292 14.717 21.3037 14.9138 21.3792C14.9505 21.3932 16.3716 21.4048 18.0717 21.4048H21.1628L21.264 21.3036L21.3652 21.2024V10.8486V0.494903L21.264 0.393712L21.1628 0.29248L18.058 0.295738C16.3504 0.297511 14.9296 0.30848 14.9008 0.320067ZM13.4894 10.8486V20.7863H10.8091H8.12881V10.8486V0.911005H10.8091H13.4894V10.8486ZM20.7467 10.8486V20.7863H18.0458H15.3449V10.8486V0.911005H18.0458H20.7467V10.8486ZM1.59121 1.63076L1.48998 1.73195V7.21253V12.6931L1.57546 12.8017L1.6609 12.9104H3.56896C5.45629 12.9104 5.47785 12.9094 5.55554 12.8236C5.63183 12.7393 5.63442 12.5801 5.64556 7.3084C5.65187 4.32279 5.64675 1.8378 5.63418 1.78622C5.62164 1.73459 5.57476 1.65575 5.52997 1.61097C5.45126 1.53225 5.38549 1.52953 3.57049 1.52953H1.6924L1.59121 1.63076ZM8.85599 1.61501L8.74733 1.70045V7.22297C8.74733 12.6905 8.74816 12.7463 8.8298 12.8279C8.90988 12.908 8.96724 12.9104 10.8091 12.9104C12.6509 12.9104 12.7083 12.908 12.7884 12.8279C12.87 12.7463 12.8708 12.6905 12.8708 7.22297V1.70045L12.7622 1.61501C12.656 1.53143 12.6126 1.52953 10.8091 1.52953C9.00555 1.52953 8.96221 1.53143 8.85599 1.61501ZM16.0882 1.61097C16.0434 1.65575 15.9965 1.73459 15.984 1.78622C15.9714 1.8378 15.9663 4.32279 15.9726 7.3084C15.9837 12.5801 15.9863 12.7393 16.0626 12.8236C16.1403 12.9094 16.1619 12.9104 18.0492 12.9104H19.9573L20.0427 12.8017L20.1282 12.6931V7.21253V1.73195L20.027 1.63076L19.9258 1.52953H18.0477C16.2327 1.52953 16.1669 1.53225 16.0882 1.61097ZM5.03619 4.12733V6.10661H3.57234H2.1085V4.12733V2.14805H3.57234H5.03619V4.12733ZM12.2523 4.12733V6.10661H10.8091H9.36586V4.12733V2.14805H10.8091H12.2523V4.12733ZM19.5097 4.12733V6.10661H18.0458H16.582V4.12733V2.14805H18.0458H19.5097V4.12733ZM5.02625 8.90028L5.03693 11.0548H3.57272H2.1085V8.88944V6.72406L3.56204 6.73491L5.01557 6.74575L5.02625 8.90028ZM12.2523 8.88997V11.0548H10.8091H9.36586V8.88997V6.72514H10.8091H12.2523V8.88997ZM19.5097 8.88997V11.0548H18.0458H16.582V8.91748C16.582 7.74191 16.5943 6.76773 16.6095 6.75264C16.6246 6.73751 17.2833 6.72514 18.0733 6.72514H19.5097V8.88997ZM2.91259 7.39129C2.71152 7.50122 2.67351 7.67684 2.81251 7.85353L2.89795 7.96218H3.56896C4.30262 7.96218 4.33659 7.95167 4.39803 7.7055C4.42075 7.61457 4.40232 7.56938 4.30134 7.4684L4.1766 7.34366L3.58583 7.3449C3.23838 7.34564 2.96108 7.36473 2.91259 7.39129ZM10.1906 7.37145C9.97717 7.45499 9.9116 7.72447 10.0669 7.87971C10.1424 7.9553 10.2043 7.96218 10.8091 7.96218C11.4139 7.96218 11.4757 7.9553 11.5513 7.87971C11.6624 7.76863 11.6603 7.54538 11.5471 7.44283C11.4712 7.37405 11.3853 7.36321 10.8564 7.35574C10.5242 7.35104 10.2246 7.35809 10.1906 7.37145ZM17.3168 7.4684C17.2158 7.56938 17.1974 7.61457 17.2201 7.7055C17.2816 7.95167 17.3155 7.96218 18.0492 7.96218H18.7202L18.8057 7.85353C18.9447 7.67684 18.9126 7.50192 18.7232 7.40399C18.637 7.35941 18.4547 7.34366 18.0241 7.34366H17.4416L17.3168 7.4684ZM2.91259 8.62834C2.71152 8.73827 2.67351 8.91389 2.81251 9.09058L2.89795 9.19923H3.56896C4.30262 9.19923 4.33659 9.18872 4.39803 8.94255C4.42075 8.85162 4.40232 8.80643 4.30134 8.70545L4.1766 8.58071L3.58583 8.58195C3.23838 8.58269 2.96108 8.60178 2.91259 8.62834ZM10.1906 8.6085C9.97717 8.69204 9.9116 8.96151 10.0669 9.11676C10.1424 9.19235 10.2043 9.19923 10.8091 9.19923C11.4139 9.19923 11.4757 9.19235 11.5513 9.11676C11.6624 9.00568 11.6603 8.78243 11.5471 8.67988C11.4712 8.6111 11.3853 8.60026 10.8564 8.59279C10.5242 8.58809 10.2246 8.59514 10.1906 8.6085ZM17.3168 8.70545C17.2158 8.80643 17.1974 8.85162 17.2201 8.94255C17.2816 9.18872 17.3155 9.19923 18.0492 9.19923H18.7202L18.8057 9.09058C18.9447 8.91389 18.9126 8.73897 18.7232 8.64104C18.637 8.59646 18.4547 8.58071 18.0241 8.58071H17.4416L17.3168 8.70545ZM2.91259 9.86539C2.71152 9.97532 2.67351 10.1509 2.81251 10.3276L2.89795 10.4363H3.56896C4.30262 10.4363 4.33659 10.4258 4.39803 10.1796C4.42075 10.0887 4.40232 10.0435 4.30134 9.94249L4.1766 9.81776L3.58583 9.819C3.23838 9.81974 2.96108 9.83883 2.91259 9.86539ZM10.1906 9.84555C9.97717 9.92909 9.9116 10.1986 10.0669 10.3538C10.1424 10.4294 10.2043 10.4363 10.8091 10.4363C11.4139 10.4363 11.4757 10.4294 11.5513 10.3538C11.6624 10.2427 11.6603 10.0195 11.5471 9.91693C11.4712 9.84815 11.3853 9.8373 10.8564 9.82984C10.5242 9.82514 10.2246 9.83219 10.1906 9.84555ZM17.3168 9.94249C17.2158 10.0435 17.1974 10.0887 17.2201 10.1796C17.2816 10.4258 17.3155 10.4363 18.0492 10.4363H18.7202L18.8057 10.3276C18.9447 10.1509 18.9126 9.97602 18.7232 9.87809C18.637 9.83351 18.4547 9.81776 18.0241 9.81776H17.4416L17.3168 9.94249ZM5.02769 11.9929L5.03981 12.2919H3.57416H2.1085V11.9821V11.6723L3.56204 11.6831L5.01557 11.6939L5.02769 11.9929ZM12.2523 11.9826V12.2919H10.8091H9.36586V11.9826V11.6733H10.8091H12.2523V11.9826ZM19.5097 11.9826V12.2919H18.0458H16.582V12.0101C16.582 11.8551 16.5943 11.7159 16.6095 11.7008C16.6246 11.6857 17.2833 11.6733 18.0733 11.6733H19.5097V11.9826ZM3.32493 14.7929C2.39298 14.9302 1.67484 15.6219 1.5233 16.5282C1.37535 17.4128 1.85177 18.3242 2.66373 18.7098C4.4311 19.5491 6.26049 17.7385 5.42887 15.9729C5.19045 15.4667 4.74717 15.0693 4.22744 14.8957C3.97459 14.8113 3.53791 14.7615 3.32493 14.7929ZM10.465 14.8098C10.0875 14.8672 9.63417 15.1069 9.34524 15.4021C8.92902 15.8273 8.74733 16.2734 8.74733 16.8701C8.74733 17.4392 8.94176 17.8969 9.36132 18.3156C10.1842 19.1365 11.4414 19.1367 12.2528 18.3158C12.682 17.8817 12.8708 17.4333 12.8708 16.8483C12.8708 16.2982 12.6946 15.8516 12.3172 15.4452C11.8482 14.9401 11.1604 14.7042 10.465 14.8098ZM17.6953 14.8109C17.0796 14.9169 16.4904 15.3643 16.2093 15.9391C15.8008 16.775 15.95 17.6729 16.6056 18.3233C17.3061 19.0182 18.376 19.1197 19.2107 18.5703C19.8586 18.144 20.2239 17.3 20.0949 16.5282C19.9994 15.957 19.6336 15.401 19.1526 15.0958C18.7674 14.8514 18.1554 14.7318 17.6953 14.8109ZM4.10555 15.5107C4.7202 15.7406 5.12464 16.469 4.9926 17.1082C4.83649 17.8639 4.1778 18.3672 3.43544 18.2978C2.25097 18.1872 1.69046 16.7713 2.48642 15.9003C2.92619 15.4192 3.49507 15.2823 4.10555 15.5107ZM11.3093 15.4895C11.7 15.6274 12.0138 15.9477 12.174 16.3721C12.2434 16.5562 12.2568 16.6654 12.2423 16.9308C12.2117 17.4922 11.9373 17.9095 11.4366 18.156C11.1905 18.2772 11.124 18.2915 10.8091 18.2915C10.4942 18.2915 10.4277 18.2772 10.1816 18.156C9.87672 18.006 9.63698 17.7652 9.48363 17.4551C9.40235 17.2909 9.38734 17.1966 9.38697 16.8483C9.3866 16.4756 9.39765 16.4148 9.50243 16.2159C9.85697 15.5426 10.6061 15.2414 11.3093 15.4895ZM18.6554 15.5378C18.8164 15.6097 18.9668 15.7231 19.1185 15.8871C19.9317 16.7654 19.3777 18.1862 18.1785 18.2982C17.5721 18.3548 16.9803 18.0042 16.7254 17.4372C16.6307 17.2268 16.6089 17.1201 16.6092 16.8689C16.6104 15.7904 17.6731 15.099 18.6554 15.5378Z" fill="#FF4949"/>
</svg>
