<svg width="151" height="151" viewBox="0 0 151 151" fill="none" xmlns="http://www.w3.org/2000/svg">
<path d="M140.106 78.9322C140.136 78.3253 140.298 77.7835 140.591 77.3068C140.884 76.8359 141.274 76.4723 141.76 76.2159C142.253 75.9657 142.793 75.8553 143.383 75.8849C143.972 75.9145 144.496 76.0783 144.955 76.3763C145.42 76.6805 145.774 77.0844 146.018 77.588C146.262 78.0917 146.368 78.647 146.338 79.2539C146.315 79.709 146.218 80.1254 146.047 80.5029C145.876 80.8805 145.638 81.1961 145.332 81.4499L144.942 81.0178C145.45 80.5636 145.722 79.9718 145.759 79.2424C145.783 78.758 145.695 78.3119 145.493 77.9039C145.291 77.496 145.003 77.1685 144.63 76.9216C144.256 76.6805 143.829 76.548 143.351 76.5239C142.872 76.4999 142.435 76.5891 142.039 76.7915C141.642 76.9998 141.323 77.2967 141.081 77.6824C140.839 78.0681 140.706 78.5031 140.682 78.9875C140.645 79.7228 140.86 80.339 141.326 80.8363L140.894 81.2271C140.616 80.944 140.408 80.603 140.27 80.2041C140.138 79.8114 140.083 79.3874 140.106 78.9322Z" fill="white"/>
<path d="M144.917 90.1582L138.866 89.1473L138.968 88.5336L143.809 89.3422L140.135 86.2848L140.185 85.9822L144.628 84.2808L139.813 83.4765L139.915 82.8627L145.967 83.8735L145.879 84.4008L140.953 86.2793L145.005 89.6308L144.917 90.1582Z" fill="white"/>
<path d="M137.611 93.5884C137.783 93.0056 138.069 92.5142 138.467 92.1141C138.87 91.7213 139.338 91.4574 139.871 91.3226C140.403 91.1934 140.951 91.2124 141.517 91.3797C142.083 91.547 142.554 91.8293 142.93 92.2268C143.305 92.6299 143.551 93.1049 143.67 93.6518C143.792 94.2059 143.768 94.7743 143.595 95.3571C143.423 95.9398 143.139 96.4256 142.744 96.8145C142.347 97.209 141.879 97.4729 141.34 97.606C140.807 97.7409 140.257 97.7246 139.692 97.5574C139.126 97.3901 138.653 97.1041 138.273 96.6993C137.898 96.2962 137.652 95.8213 137.533 95.2744C137.413 94.7331 137.439 94.1711 137.611 93.5884ZM138.166 93.7523C138.028 94.2174 138.008 94.6683 138.104 95.105C138.206 95.5434 138.411 95.9236 138.717 96.2459C139.03 96.5698 139.416 96.7996 139.875 96.9354C140.335 97.0712 140.781 97.0873 141.214 96.9837C141.652 96.8817 142.03 96.6736 142.349 96.3595C142.673 96.047 142.903 95.6582 143.041 95.1931C143.178 94.728 143.197 94.2735 143.096 93.8296C143 93.3929 142.796 93.0098 142.486 92.6803C142.179 92.3581 141.795 92.1291 141.336 91.9933C140.877 91.8575 140.428 91.8405 139.989 91.9425C139.555 92.0517 139.176 92.2626 138.852 92.5751C138.532 92.8949 138.303 93.2873 138.166 93.7523Z" fill="white"/>
<path d="M139.784 104.066L140.594 102.068L135.429 99.9737L135.669 99.3808L140.835 101.475L141.645 99.4772L142.165 99.6879L140.304 104.277L139.784 104.066Z" fill="white"/>
<path d="M138.648 107.636C138.29 108.332 137.843 108.793 137.308 109.017C136.772 109.241 136.214 109.204 135.631 108.905C135.049 108.606 134.693 108.173 134.564 107.607C134.439 107.044 134.556 106.414 134.913 105.718L135.666 104.252L133.943 103.367L134.24 102.79L139.697 105.593L138.648 107.636ZM135.428 105.963C135.151 106.503 135.055 106.976 135.142 107.382C135.235 107.791 135.496 108.106 135.928 108.328C136.37 108.555 136.781 108.585 137.162 108.42C137.547 108.256 137.879 107.905 138.157 107.364L138.902 105.914L136.173 104.513L135.428 105.963Z" fill="white"/>
<path d="M129.22 112.626L128.748 112.323L131.09 108.672L136.254 111.984L133.983 115.525L133.511 115.222L135.432 112.227L133.595 111.049L131.882 113.719L131.417 113.421L133.13 110.751L131.212 109.52L129.22 112.626Z" fill="white"/>
<path d="M129.806 120.141L131.119 118.43L126.696 115.037L127.086 114.53L131.508 117.923L132.821 116.212L133.266 116.554L130.251 120.482L129.806 120.141Z" fill="white"/>
<path d="M125.905 122.054C125.413 122.587 124.918 122.881 124.42 122.939C123.918 123 123.436 122.817 122.972 122.389C122.487 121.941 122.256 121.45 122.28 120.915C122.305 120.389 122.577 119.845 123.096 119.283L124.748 117.492L129.256 121.654L128.822 122.124L127.212 120.637L125.905 122.054ZM123.488 119.62C123.103 120.037 122.904 120.438 122.891 120.823C122.873 121.212 123.045 121.573 123.405 121.906C124.097 122.544 124.835 122.438 125.619 121.588L126.826 120.281L124.694 118.313L123.488 119.62Z" fill="white"/>
<path d="M117.479 128.775C117.093 128.976 116.732 129.047 116.398 128.988C116.067 128.934 115.772 128.748 115.514 128.431C115.178 128.019 115.067 127.582 115.181 127.12C115.29 126.662 115.628 126.202 116.194 125.741L118.3 124.025L122.175 128.781L120.198 130.392C119.69 130.805 119.209 131.024 118.754 131.048C118.299 131.072 117.911 130.887 117.59 130.493C117.372 130.226 117.255 129.944 117.24 129.648C117.228 129.356 117.308 129.065 117.479 128.775ZM119.924 127.031L118.47 128.216C118.103 128.515 117.883 128.818 117.81 129.126C117.733 129.438 117.81 129.737 118.043 130.022C118.275 130.308 118.552 130.444 118.873 130.431C119.19 130.422 119.531 130.268 119.898 129.969L121.352 128.784L119.924 127.031ZM116.52 126.141C115.7 126.809 115.54 127.449 116.038 128.061C116.525 128.659 117.178 128.624 117.998 127.956L119.609 126.644L118.131 124.83L116.52 126.141Z" fill="white"/>
<path d="M116.433 133.319L115.896 133.667L113.135 129.398L112.598 135.799L112.105 136.118L108.774 130.966L109.311 130.619L112.067 134.88L112.608 128.486L113.102 128.168L116.433 133.319Z" fill="white"/>
<path d="M101.955 135.177L101.083 133.447L101.623 133.175L102.243 134.404L107.024 131.992L106.412 130.76L106.952 130.487L107.817 132.221L107.543 132.359C107.193 132.561 107.086 132.972 107.222 133.591C107.36 134.215 107.668 135.041 108.148 136.069L108.981 137.877L105.287 139.739L102.777 134.762L101.955 135.177ZM107.603 136.274C107.209 135.426 106.926 134.705 106.757 134.11C106.585 133.522 106.573 133.077 106.721 132.773L103.348 134.474L105.606 138.95L108.227 137.628L107.603 136.274Z" fill="white"/>
<path d="M96.8692 137.131L96.6662 136.608L100.711 135.039L102.93 140.758L99.0086 142.28L98.8056 141.757L102.123 140.47L101.333 138.435L98.3755 139.583L98.1757 139.068L101.133 137.92L100.309 135.796L96.8692 137.131Z" fill="white"/>
<path d="M92.6832 137.731C93.2697 137.572 93.8378 137.557 94.3874 137.687C94.933 137.823 95.403 138.083 95.7975 138.467C96.1863 138.852 96.4579 139.329 96.6123 139.899C96.7666 140.468 96.7732 141.017 96.6319 141.546C96.485 142.076 96.2098 142.535 95.8064 142.923C95.3989 143.318 94.9019 143.595 94.3154 143.754C93.7289 143.913 93.1664 143.926 92.628 143.793C92.084 143.662 91.614 143.402 91.218 143.013C90.8235 142.63 90.5491 142.153 90.3947 141.584C90.2404 141.014 90.2359 140.461 90.3812 139.926C90.5281 139.395 90.8033 138.936 91.2067 138.549C91.6045 138.162 92.0967 137.89 92.6832 137.731ZM92.8345 138.289C92.3664 138.416 91.9717 138.635 91.6504 138.946C91.3306 139.263 91.114 139.636 91.0006 140.067C90.8887 140.502 90.8954 140.952 91.0207 141.414C91.146 141.877 91.3663 142.265 91.6814 142.579C91.9981 142.899 92.3737 143.112 92.8081 143.218C93.244 143.33 93.696 143.322 94.1641 143.196C94.6321 143.069 95.0289 142.846 95.3543 142.528C95.6756 142.217 95.895 141.843 96.0126 141.405C96.126 140.975 96.1201 140.529 95.9948 140.066C95.8694 139.604 95.6484 139.213 95.3317 138.893C95.0109 138.58 94.6326 138.368 94.1966 138.256C93.7566 138.151 93.3025 138.162 92.8345 138.289Z" fill="white"/>
<path d="M77.9022 139.97C78.5094 139.947 79.0634 140.06 79.5642 140.31C80.0592 140.56 80.456 140.915 80.7545 141.378C81.0474 141.846 81.2052 142.375 81.228 142.964C81.2508 143.554 81.1341 144.091 80.8779 144.574C80.6161 145.064 80.2452 145.452 79.7652 145.74C79.2851 146.027 78.7414 146.183 78.1342 146.206C77.6788 146.224 77.2555 146.164 76.8643 146.027C76.4731 145.89 76.1376 145.681 75.8577 145.4L76.2534 144.972C76.7509 145.438 77.3646 145.657 78.0944 145.629C78.579 145.61 79.0155 145.482 79.404 145.245C79.7924 145.008 80.0931 144.692 80.3059 144.298C80.5129 143.904 80.6071 143.468 80.5887 142.989C80.5702 142.51 80.4426 142.083 80.2058 141.706C79.9632 141.329 79.6391 141.038 79.2335 140.831C78.828 140.625 78.3829 140.531 77.8983 140.549C77.1626 140.578 76.5678 140.846 76.1138 141.355L75.6863 140.959C75.9436 140.657 76.2648 140.419 76.6499 140.247C77.0294 140.08 77.4468 139.988 77.9022 139.97Z" fill="white"/>
<path d="M66.8739 145.735L67.3468 139.619L67.9672 139.667L67.5889 144.56L70.3101 140.63L70.616 140.654L72.7029 144.929L73.0791 140.062L73.6995 140.11L73.2267 146.227L72.6937 146.185L70.3878 141.445L67.407 145.777L66.8739 145.735Z" fill="white"/>
<path d="M62.7677 138.732C63.3633 138.853 63.8777 139.094 64.3111 139.456C64.7376 139.823 65.0413 140.266 65.2222 140.785C65.3973 141.304 65.4263 141.852 65.3091 142.431C65.1919 143.009 64.9517 143.503 64.5886 143.912C64.2197 144.32 63.768 144.607 63.2336 144.773C62.6923 144.944 62.1239 144.969 61.5284 144.848C60.9328 144.727 60.4241 144.487 60.0021 144.127C59.5745 143.767 59.2708 143.323 59.0911 142.798C58.9102 142.279 58.8784 141.73 58.9956 141.151C59.1128 140.573 59.3564 140.077 59.7264 139.663C60.0953 139.255 60.5469 138.968 61.0813 138.802C61.61 138.635 62.1721 138.611 62.7677 138.732ZM62.6528 139.299C62.1775 139.203 61.7266 139.222 61.2999 139.356C60.8722 139.496 60.5112 139.732 60.217 140.066C59.9216 140.406 59.7264 140.81 59.6312 141.28C59.5361 141.75 59.559 142.195 59.7 142.618C59.8399 143.045 60.0802 143.404 60.4209 143.694C60.7605 143.989 61.1679 144.185 61.6432 144.281C62.1185 144.377 62.5729 144.356 63.0064 144.218C63.4331 144.083 63.7969 143.847 64.098 143.509C64.3922 143.175 64.5869 142.773 64.682 142.304C64.7772 141.834 64.7548 141.385 64.615 140.958C64.4682 140.534 64.2251 140.175 63.8855 139.88C63.539 139.589 63.1281 139.395 62.6528 139.299Z" fill="white"/>
<path d="M52.5525 141.807L54.613 142.441L56.2534 137.114L56.8649 137.302L55.2245 142.629L57.2851 143.264L57.12 143.8L52.3874 142.343L52.5525 141.807Z" fill="white"/>
<path d="M48.8648 140.966C48.1403 140.669 47.6435 140.263 47.3745 139.749C47.1054 139.235 47.0949 138.675 47.343 138.069C47.5912 137.464 47.9916 137.072 48.5443 136.894C49.0948 136.722 49.7323 136.784 50.4568 137.081L51.9814 137.706L52.7159 135.914L53.316 136.16L50.9896 141.837L48.8648 140.966ZM50.257 137.615C49.6947 137.385 49.215 137.33 48.8179 137.452C48.4187 137.579 48.1271 137.866 47.9432 138.315C47.7548 138.775 47.7595 139.187 47.9572 139.552C48.1526 139.923 48.5315 140.223 49.0937 140.454L50.6022 141.072L51.7654 138.233L50.257 137.615Z" fill="white"/>
<path d="M43.0874 131.994L43.3492 131.498L47.186 133.523L44.3224 138.949L40.6019 136.985L40.8637 136.489L44.0107 138.15L45.0293 136.22L42.2234 134.739L42.4811 134.251L45.287 135.732L46.3506 133.717L43.0874 131.994Z" fill="white"/>
<path d="M35.673 133.228L37.4878 134.392L40.4973 129.7L41.0359 130.046L38.0263 134.738L39.8411 135.902L39.5383 136.374L35.3702 133.7L35.673 133.228Z" fill="white"/>
<path d="M33.497 129.554C32.9238 129.111 32.587 128.644 32.4867 128.153C32.3817 127.658 32.5222 127.161 32.9081 126.662C33.3119 126.139 33.7811 125.867 34.3155 125.844C34.8417 125.823 35.4076 126.046 36.0132 126.514L37.9409 128.004L34.1886 132.858L33.6825 132.467L35.0225 130.733L33.497 129.554ZM35.7108 126.934C35.2624 126.587 34.8458 126.424 34.461 126.444C34.0716 126.461 33.7268 126.663 33.4266 127.051C32.8513 127.796 33.0212 128.521 33.9365 129.229L35.3442 130.317L37.1184 128.022L35.7108 126.934Z" fill="white"/>
<path d="M26.094 121.753C25.8597 121.386 25.7574 121.033 25.7871 120.695C25.8126 120.36 25.9721 120.051 26.2655 119.766C26.6469 119.395 27.0726 119.246 27.5425 119.319C28.0085 119.388 28.4959 119.685 29.0047 120.208L30.8978 122.157L26.4971 126.432L24.72 124.603C24.2641 124.133 24.0042 123.673 23.9406 123.221C23.8769 122.77 24.0273 122.367 24.392 122.013C24.6393 121.773 24.9099 121.632 25.2039 121.591C25.4936 121.554 25.7904 121.608 26.094 121.753ZM28.0442 124.037L26.7374 122.692C26.4076 122.352 26.086 122.16 25.7727 122.114C25.4552 122.064 25.1645 122.167 24.9005 122.423C24.6364 122.68 24.5248 122.968 24.5656 123.286C24.6024 123.601 24.7856 123.928 25.1154 124.267L26.4222 125.613L28.0442 124.037ZM28.6338 120.569C27.897 119.81 27.2456 119.706 26.6798 120.255C26.1266 120.793 26.2184 121.441 26.9553 122.199L28.4025 123.689L30.0811 122.059L28.6338 120.569Z" fill="white"/>
<path d="M21.4898 121.113L21.0967 120.608L25.1071 117.484L18.6839 117.51L18.3231 117.047L23.1633 113.277L23.5564 113.782L19.5529 116.9L25.9691 116.879L26.33 117.343L21.4898 121.113Z" fill="white"/>
<path d="M18.3749 106.83L20.0242 105.814L20.3413 106.329L19.1696 107.051L21.9776 111.611L23.1539 110.897L23.471 111.411L21.8171 112.42L21.6563 112.158C21.425 111.827 21.0067 111.756 20.4016 111.943C19.7915 112.133 18.9947 112.511 18.0111 113.075L16.2803 114.059L14.1111 110.536L18.8574 107.614L18.3749 106.83ZM17.76 112.551C18.5714 112.085 19.2664 111.743 19.8451 111.524C20.4158 111.303 20.8586 111.253 21.1737 111.375L19.1929 108.158L14.9242 110.787L16.4638 113.287L17.76 112.551Z" fill="white"/>
<path d="M16.0005 101.971L16.5041 101.724L18.4145 105.619L12.9062 108.321L11.0537 104.544L11.5574 104.297L13.1243 107.492L15.0836 106.531L13.6865 103.682L14.1823 103.439L15.5794 106.288L17.6253 105.284L16.0005 101.971Z" fill="white"/>
<path d="M15.0249 97.8399C15.2341 98.4104 15.298 98.9751 15.2166 99.5339C15.1278 100.089 14.9094 100.58 14.5616 101.006C14.2118 101.427 13.7599 101.739 13.2058 101.942C12.6518 102.145 12.1053 102.199 11.5664 102.105C11.0255 102.004 10.5444 101.77 10.1231 101.402C9.69429 101.03 9.37528 100.559 9.16608 99.9882C8.95688 99.4177 8.89498 98.8585 8.98037 98.3107C9.06374 97.7573 9.28207 97.2665 9.63535 96.8383C9.98314 96.412 10.4341 96.0973 10.9881 95.8941C11.5422 95.691 12.0924 95.6386 12.6388 95.737C13.1797 95.8373 13.6608 96.0717 14.0821 96.4399C14.5014 96.8027 14.8157 97.2694 15.0249 97.8399ZM14.4818 98.039C14.3148 97.5837 14.0625 97.2095 13.7247 96.9164C13.3815 96.6253 12.9906 96.4419 12.5521 96.3662C12.1082 96.2925 11.6612 96.3381 11.2114 96.5031C10.7616 96.668 10.3939 96.9211 10.1082 97.2623C9.81712 97.6055 9.63747 97.9981 9.56927 98.4401C9.49558 98.8841 9.54222 99.3338 9.70917 99.7891C9.87613 100.244 10.1322 100.62 10.4775 100.917C10.8152 101.21 11.2071 101.396 11.6531 101.475C12.0916 101.551 12.5358 101.506 12.9856 101.342C13.4354 101.177 13.8059 100.922 14.097 100.579C14.3806 100.233 14.5593 99.8372 14.6329 99.3932C14.6991 98.9458 14.6487 98.4944 14.4818 98.039Z" fill="white"/>
<path d="M11.5251 83.4629C11.6021 84.0657 11.5385 84.6275 11.3341 85.1484C11.129 85.6636 10.8095 86.0902 10.3756 86.4285C9.9352 86.7616 9.4223 86.9656 8.83693 87.0405C8.25155 87.1153 7.70673 87.0465 7.20245 86.8341C6.69163 86.6167 6.27179 86.2816 5.94295 85.8288C5.6141 85.3761 5.41115 84.8483 5.33408 84.2456C5.27629 83.7935 5.29828 83.3666 5.40007 82.9648C5.50185 82.563 5.6806 82.2103 5.9363 81.9066L6.39714 82.263C5.97685 82.7997 5.81302 83.4304 5.90564 84.1548C5.96714 84.6359 6.1332 85.0594 6.40383 85.4253C6.67446 85.7913 7.01548 86.0628 7.4269 86.24C7.83757 86.4113 8.28054 86.4666 8.75579 86.4058C9.23104 86.3451 9.64585 86.1801 10.0002 85.911C10.3538 85.636 10.6156 85.2874 10.7854 84.8651C10.9553 84.4429 11.0095 83.9912 10.948 83.5102C10.8546 82.7799 10.5345 82.2112 9.98761 81.804L10.344 81.3431C10.6678 81.5727 10.9328 81.8716 11.139 82.2399C11.3386 82.6032 11.4673 83.0108 11.5251 83.4629Z" fill="white"/>
<path d="M4.81259 73.2354L10.9473 73.1643L10.9545 73.7866L6.04673 73.8434L10.2024 76.2056L10.2059 76.5124L6.1324 78.9699L11.0138 78.9134L11.021 79.5356L4.88638 79.6067L4.88019 79.0721L9.39775 76.3552L4.81878 73.77L4.81259 73.2354Z" fill="white"/>
<path d="M11.4396 68.1099C11.3695 68.7136 11.1723 69.2465 10.848 69.7088C10.5186 70.1647 10.1027 70.5046 9.60021 70.7286C9.09841 70.9468 8.55441 71.0218 7.96822 70.9537C7.38202 70.8856 6.86971 70.6879 6.43127 70.3605C5.99351 70.0273 5.66946 69.6015 5.4591 69.0829C5.24362 68.5579 5.17093 67.9936 5.24104 67.39C5.31115 66.7864 5.50767 66.2592 5.8306 65.8085C6.1542 65.352 6.57015 65.0121 7.07843 64.7888C7.5809 64.5648 8.12523 64.4868 8.71143 64.5549C9.29763 64.623 9.81251 64.824 10.2561 65.1578C10.6938 65.491 11.0179 65.9169 11.2282 66.4354C11.4393 66.9482 11.5097 67.5063 11.4396 68.1099ZM10.865 68.0432C10.921 67.5615 10.8642 67.1137 10.6946 66.6999C10.5192 66.2854 10.2528 65.9457 9.89535 65.6806C9.53211 65.4149 9.11252 65.2544 8.6366 65.1991C8.16068 65.1439 7.71838 65.2043 7.30971 65.3803C6.89523 65.5557 6.55804 65.8254 6.29813 66.1893C6.03241 66.5525 5.87158 66.975 5.81563 67.4567C5.75967 67.9385 5.81905 68.3895 5.99376 68.8097C6.16334 69.2235 6.42942 69.5662 6.79199 69.8377C7.14943 70.1028 7.56611 70.2629 8.04203 70.3182C8.51795 70.3735 8.96315 70.3134 9.37763 70.138C9.78698 69.9562 10.1245 69.6836 10.3902 69.3204C10.6508 68.9507 10.8091 68.5249 10.865 68.0432Z" fill="white"/>
<path d="M7.47002 58.2808L7.01766 60.3888L12.4677 61.5583L12.3335 62.1839L6.88342 61.0144L6.43105 63.1224L5.88262 63.0047L6.92158 58.1631L7.47002 58.2808Z" fill="white"/>
<path d="M7.98579 54.5073C8.21903 53.7599 8.58028 53.2299 9.06953 52.9174C9.55879 52.6049 10.1158 52.5461 10.7405 52.7411C11.3652 52.936 11.7898 53.3011 12.0145 53.8364C12.2336 54.37 12.2266 55.0105 11.9933 55.7579L11.5025 57.3308L13.3515 57.9078L13.1583 58.5269L7.30173 56.6993L7.98579 54.5073ZM11.4443 55.6049C11.6253 55.0248 11.6382 54.5422 11.4829 54.1571C11.3221 53.7703 11.0102 53.5047 10.5473 53.3602C10.0732 53.2122 9.66274 53.2525 9.31601 53.4809C8.96371 53.7076 8.69704 54.111 8.51602 54.6911L8.03039 56.2472L10.9587 57.1611L11.4443 55.6049Z" fill="white"/>
<path d="M16.4294 47.9442L16.946 48.1627L15.256 52.1584L9.60555 49.7684L11.2444 45.8938L11.761 46.1123L10.3748 49.3896L12.3848 50.2397L13.6207 47.3176L14.1292 47.5327L12.8933 50.4548L14.992 51.3425L16.4294 47.9442Z" fill="white"/>
<path d="M14.4373 40.8707L13.4381 42.7812L18.3774 45.3647L18.0808 45.9316L13.1415 43.3481L12.1422 45.2586L11.6452 44.9986L13.9403 40.6107L14.4373 40.8707Z" fill="white"/>
<path d="M18.0111 38.1927C18.4046 37.5843 18.8418 37.2095 19.3227 37.0682C19.8069 36.9221 20.3139 37.0203 20.8438 37.3629C21.3983 37.7215 21.7092 38.166 21.7766 38.6967C21.8423 39.2192 21.6673 39.8019 21.2517 40.4447L19.9287 42.4907L14.7768 39.1594L15.1242 38.6221L16.9642 39.8119L18.0111 38.1927ZM20.8079 40.1786C21.1157 39.7027 21.2434 39.2738 21.191 38.8921C21.1418 38.5054 20.9112 38.1788 20.499 37.9123C19.7091 37.4015 19 37.6319 18.3718 38.6034L17.4057 40.0974L19.8418 41.6726L20.8079 40.1786Z" fill="white"/>
<path d="M24.9523 30.3545C25.2975 30.0891 25.6399 29.9565 25.9796 29.9566C26.3149 29.9529 26.6373 30.0848 26.9467 30.3522C27.349 30.6999 27.5343 31.111 27.5026 31.5856C27.4747 32.0557 27.2219 32.5671 26.7444 33.1197L24.9678 35.1753L20.326 31.1637L21.9937 29.234C22.4216 28.7389 22.8576 28.44 23.3016 28.3372C23.7457 28.2344 24.16 28.3493 24.5446 28.6817C24.8054 28.9071 24.9692 29.1644 25.0358 29.4537C25.098 29.7391 25.0702 30.0394 24.9523 30.3545ZM22.8464 32.4963L24.0728 31.0772C24.3823 30.7192 24.5462 30.382 24.5646 30.0659C24.5869 29.7453 24.4587 29.4646 24.1802 29.2239C23.9017 28.9832 23.6055 28.8971 23.2915 28.9655C22.9813 29.0296 22.6715 29.2406 22.362 29.5987L21.1356 31.0177L22.8464 32.4963ZM26.3531 32.7815C27.0447 31.9814 27.092 31.3234 26.4952 30.8076C25.9117 30.3033 25.2742 30.4512 24.5826 31.2514L23.2244 32.823L24.9949 34.3531L26.3531 32.7815Z" fill="white"/>
<path d="M25.1783 25.6835L25.6468 25.2478L29.1083 28.9705L28.5223 22.5741L28.9523 22.1743L33.13 26.6671L32.6614 27.1028L29.2059 23.3866L29.786 29.7765L29.356 30.1764L25.1783 25.6835Z" fill="white"/>
<path d="M39.1302 21.3008L40.2867 22.8546L39.8016 23.2157L38.98 22.1118L34.6842 25.3092L35.4988 26.4182L35.0137 26.7793L33.8642 25.2203L34.1103 25.0371C34.4197 24.7777 34.4546 24.3548 34.2148 23.7684C33.9716 23.1774 33.5256 22.4168 32.877 21.4865L31.7453 19.8487L35.0638 17.3787L38.392 21.8503L39.1302 21.3008ZM33.3776 21.1904C33.9124 21.9578 34.3143 22.6201 34.5834 23.1773C34.8536 23.7264 34.942 24.1632 34.8485 24.4877L37.8787 22.2323L34.8855 18.2107L32.5302 19.9638L33.3776 21.1904Z" fill="white"/>
<path d="M44.0384 18.3251L44.3272 18.8059L40.6083 21.0399L37.449 15.7808L41.0553 13.6145L41.3441 14.0953L38.2938 15.9276L39.4176 17.7984L42.1373 16.1646L42.4217 16.6379L39.7019 18.2717L40.8754 20.2251L44.0384 18.3251Z" fill="white"/>
<path d="M48.0738 16.9895C47.5233 17.2469 46.9663 17.3591 46.4025 17.326C45.8416 17.2851 45.3339 17.1097 44.8793 16.7998C44.4301 16.4874 44.0805 16.0639 43.8305 15.5293C43.5805 14.9948 43.4797 14.455 43.528 13.9099C43.5815 13.3624 43.7737 12.8629 44.1044 12.4116C44.438 11.9524 44.88 11.5942 45.4305 11.3368C45.9809 11.0794 46.5327 10.9697 47.0859 11.0077C47.6443 11.0433 48.1521 11.2187 48.6091 11.5339C49.0636 11.8438 49.4159 12.2661 49.6658 12.8006C49.9158 13.3352 50.0153 13.8789 49.9642 14.4317C49.9106 14.9792 49.7184 15.4787 49.3877 15.9301C49.0622 16.379 48.6243 16.7321 48.0738 16.9895ZM47.8288 16.4655C48.2681 16.2601 48.6193 15.9765 48.8823 15.6149C49.1429 15.2479 49.292 14.8428 49.3298 14.3994C49.3651 13.9507 49.2813 13.5094 49.0783 13.0754C48.8754 12.6413 48.5917 12.2967 48.2272 12.0414C47.8602 11.7809 47.4537 11.6356 47.0075 11.6056C46.5588 11.5703 46.1148 11.6553 45.6755 11.8607C45.2362 12.0662 44.8836 12.3536 44.6177 12.723C44.3547 13.0847 44.2029 13.4911 44.1623 13.9422C44.1245 14.3856 44.2071 14.8243 44.4101 15.2583C44.613 15.6923 44.898 16.0396 45.2649 16.3002C45.6347 16.553 46.0439 16.6971 46.4926 16.7324C46.9441 16.7599 47.3895 16.6709 47.8288 16.4655Z" fill="white"/>
<path d="M62.121 12.252C61.5268 12.3795 60.9616 12.3634 60.4253 12.2035C59.8948 12.0425 59.4427 11.76 59.0692 11.3561C58.7002 10.9453 58.4538 10.4514 58.33 9.87438C58.2061 9.29738 58.2288 8.7487 58.398 8.22834C58.5717 7.70104 58.8703 7.2545 59.2938 6.88873C59.7173 6.52296 60.2261 6.27633 60.8203 6.14884C61.2659 6.05321 61.6931 6.03921 62.102 6.10684C62.511 6.17446 62.8775 6.3229 63.2016 6.55215L62.8852 7.04134C62.315 6.66769 61.6729 6.55749 60.9588 6.71073C60.4846 6.81248 60.0766 7.01359 59.7347 7.31404C59.3928 7.61449 59.1509 7.97715 59.009 8.40201C58.8728 8.82564 58.855 9.27169 58.9555 9.74014C59.056 10.2086 59.2553 10.6081 59.5533 10.9385C59.857 11.2678 60.2264 11.4992 60.6615 11.633C61.0965 11.7667 61.5511 11.7827 62.0253 11.6809C62.7451 11.5265 63.2849 11.1596 63.6447 10.5805L64.1339 10.8968C63.9324 11.2388 63.6568 11.528 63.3071 11.7644C62.962 11.9939 62.5666 12.1564 62.121 12.252Z" fill="white"/>
<path d="M71.5746 4.70911L72.1651 10.8157L71.5457 10.8756L71.0733 5.99033L69.0716 10.3312L68.7663 10.3607L65.9725 6.50998L66.4423 11.3691L65.8229 11.429L65.2324 5.32239L65.7646 5.27093L68.8544 9.54209L71.0424 4.76057L71.5746 4.70911Z" fill="white"/>
<path d="M76.9383 10.8527C76.3308 10.8363 75.7825 10.687 75.2933 10.4049C74.8101 10.1171 74.4347 9.7329 74.1671 9.25222C73.9054 8.77169 73.7825 8.23647 73.7984 7.64655C73.8144 7.05663 73.966 6.52883 74.2533 6.06314C74.5464 5.59761 74.942 5.23714 75.4399 4.98172C75.9437 4.72062 76.4994 4.59828 77.1068 4.61469C77.7143 4.63111 78.2568 4.78021 78.7343 5.06198C79.2177 5.34392 79.5931 5.72815 79.8605 6.21467C80.128 6.69535 80.2539 7.23065 80.2379 7.82058C80.222 8.4105 80.0674 8.94114 79.7741 9.41251C79.4809 9.87804 79.0854 10.2385 78.5875 10.4939C78.0955 10.7495 77.5457 10.8691 76.9383 10.8527ZM76.9539 10.2744C77.4387 10.2875 77.8797 10.1913 78.2768 9.98578C78.6742 9.77441 78.989 9.47897 79.2214 9.09948C79.4539 8.71414 79.5766 8.282 79.5896 7.80305C79.6025 7.32411 79.5032 6.88889 79.2917 6.4974C79.0803 6.10007 78.7819 5.78806 78.3964 5.56137C78.0111 5.32885 77.576 5.20603 77.0912 5.19293C76.6064 5.17983 76.1625 5.27889 75.7593 5.49011C75.3621 5.69564 75.0443 5.991 74.806 6.37617C74.5736 6.75567 74.4509 7.18489 74.438 7.66383C74.4251 8.14278 74.5243 8.58092 74.7357 8.97825C74.953 9.3699 75.2544 9.68199 75.6397 9.91451C76.0311 10.1414 76.4691 10.2613 76.9539 10.2744Z" fill="white"/>
<path d="M86.5354 6.0232L84.3957 5.758L83.7101 11.2898L83.0751 11.2111L83.7608 5.6793L81.6211 5.4141L81.6901 4.85744L86.6044 5.46654L86.5354 6.0232Z" fill="white"/>
<path d="M90.5226 6.22622C91.2875 6.39341 91.8469 6.70708 92.2009 7.16723C92.5548 7.62737 92.662 8.1771 92.5222 8.81642C92.3825 9.45573 92.0558 9.91064 91.5421 10.1811C91.0297 10.4459 90.391 10.4947 89.6261 10.3275L88.0164 9.97568L87.6028 11.8679L86.9692 11.7294L88.2793 5.73587L90.5226 6.22622ZM89.7306 9.76724C90.3243 9.897 90.8062 9.86776 91.1763 9.67952C91.5476 9.48557 91.785 9.1517 91.8886 8.67792C91.9947 8.19273 91.9188 7.78739 91.661 7.4619C91.4044 7.1307 90.9793 6.90022 90.3857 6.77046L88.7931 6.42235L88.1381 9.41914L89.7306 9.76724Z" fill="white"/>
<path d="M97.9372 14.1056L97.764 14.6391L93.6375 13.2999L95.5313 7.46441L99.5328 8.76304L99.3597 9.29657L95.9751 8.19814L95.3014 10.2739L98.3192 11.2533L98.1487 11.7785L95.131 10.7991L94.4275 12.9665L97.9372 14.1056Z" fill="white"/>
<path d="M104.823 11.5186L102.835 10.6862L100.682 15.8281L100.092 15.581L102.244 10.4391L100.256 9.60667L100.472 9.08925L105.04 11.0012L104.823 11.5186Z" fill="white"/>
<path d="M107.491 14.6869C108.132 15.025 108.544 15.4274 108.727 15.8941C108.915 16.3635 108.862 16.8772 108.567 17.4353C108.259 18.0192 107.844 18.3681 107.321 18.4821C106.806 18.5936 106.211 18.4708 105.534 18.1135L103.379 16.9762L106.242 11.5505L106.808 11.8491L105.786 13.7869L107.491 14.6869ZM105.76 17.648C106.261 17.9125 106.699 18.0019 107.075 17.916C107.456 17.8329 107.761 17.5744 107.99 17.1403C108.429 16.3083 108.137 15.6224 107.114 15.0824L105.54 14.2519L104.186 16.8176L105.76 17.648Z" fill="white"/>
<path d="M116.327 21.1934C116.621 21.5152 116.781 21.8453 116.81 22.1838C116.841 22.5176 116.737 22.8499 116.496 23.1806C116.184 23.6106 115.79 23.8297 115.314 23.8378C114.843 23.8493 114.312 23.6403 113.722 23.2107L111.525 21.6124L115.134 16.6511L117.196 18.1514C117.725 18.5363 118.06 18.9458 118.199 19.3796C118.339 19.8135 118.259 20.236 117.96 20.6471C117.757 20.9259 117.515 21.1106 117.232 21.2012C116.953 21.2871 116.651 21.2845 116.327 21.1934ZM114.017 19.2742L115.533 20.3775C115.916 20.6559 116.266 20.7911 116.582 20.7829C116.904 20.7782 117.173 20.6271 117.389 20.3294C117.606 20.0317 117.667 19.7293 117.572 19.4221C117.483 19.1184 117.246 18.8273 116.864 18.5489L115.347 17.4456L114.017 19.2742ZM114.026 22.7925C114.881 23.4146 115.541 23.4067 116.005 22.7688C116.459 22.1451 116.258 21.5222 115.403 20.9001L113.723 19.6782L112.346 21.5706L114.026 22.7925Z" fill="white"/>
<path d="M121.025 21.0602L121.498 21.4908L118.078 25.251L124.403 24.133L124.837 24.5281L120.709 29.0663L120.235 28.6358L123.65 24.8821L117.331 25.9936L116.897 25.5984L121.025 21.0602Z" fill="white"/>
<path d="M126.557 34.6132L125.105 35.8957L124.705 35.4425L125.736 34.5314L122.191 30.5182L121.154 31.4227L120.753 30.9695L122.211 29.6937L122.414 29.9235C122.698 30.2102 123.123 30.2095 123.687 29.9216C124.255 29.6297 124.976 29.1217 125.849 28.3975L127.386 27.1327L130.125 30.2329L125.948 33.9236L126.557 34.6132ZM126.186 28.8716C125.466 29.4687 124.839 29.9246 124.307 30.2393C123.782 30.5546 123.354 30.6792 123.023 30.6132L125.524 33.4441L129.281 30.1248L127.337 27.9245L126.186 28.8716Z" fill="white"/>
<path d="M129.674 38.9006L129.221 39.2306L126.669 35.7222L131.63 32.1133L134.105 35.5153L133.651 35.8453L131.558 32.9677L129.793 34.2515L131.659 36.8172L131.213 37.142L129.346 34.5763L127.504 35.9168L129.674 38.9006Z" fill="white"/>
<path d="M131.348 42.7688C131.043 42.2434 130.881 41.6984 130.864 41.1339C130.855 40.5716 130.985 40.0503 131.253 39.5701C131.525 39.0949 131.915 38.7091 132.426 38.4127C132.936 38.1163 133.465 37.968 134.012 37.9677C134.562 37.9725 135.077 38.1197 135.556 38.4091C136.042 38.7006 136.439 39.1091 136.744 39.6345C137.049 40.16 137.207 40.6999 137.218 41.2542C137.232 41.8136 137.103 42.3349 136.829 42.8181C136.561 43.2983 136.172 43.6866 135.661 43.983C135.151 44.2795 134.618 44.4267 134.063 44.4249C133.513 44.42 132.998 44.2729 132.52 43.9835C132.044 43.6992 131.653 43.2943 131.348 42.7688ZM131.848 42.4783C132.092 42.8976 132.405 43.2223 132.789 43.4522C133.177 43.6792 133.594 43.7918 134.039 43.7901C134.489 43.7855 134.921 43.6629 135.336 43.4222C135.75 43.1816 136.068 42.8684 136.29 42.4827C136.517 42.0941 136.626 41.6763 136.616 41.2292C136.611 40.7791 136.487 40.3444 136.244 39.9251C136 39.5057 135.682 39.18 135.291 38.948C134.907 38.718 134.489 38.6029 134.036 38.6024C133.591 38.6041 133.161 38.7253 132.747 38.966C132.333 39.2066 132.012 39.5212 131.785 39.9099C131.566 40.3006 131.459 40.721 131.464 41.171C131.476 41.6232 131.604 42.0589 131.848 42.4783Z" fill="white"/>
<path d="M137.401 56.5607C137.222 55.98 137.189 55.4155 137.302 54.8673C137.416 54.3247 137.658 53.8498 138.028 53.4425C138.405 53.039 138.875 52.7504 139.439 52.5768C140.003 52.4031 140.552 52.3778 141.085 52.501C141.625 52.6281 142.096 52.8866 142.498 53.2765C142.899 53.6665 143.189 54.1519 143.368 54.7326C143.502 55.1682 143.553 55.5926 143.521 56.0059C143.49 56.4191 143.374 56.7972 143.174 57.14L142.659 56.8676C142.981 56.267 143.035 55.6176 142.82 54.9196C142.677 54.4561 142.441 54.0672 142.112 53.7528C141.783 53.4384 141.401 53.2291 140.965 53.1248C140.531 53.0261 140.085 53.0472 139.627 53.1882C139.17 53.3292 138.789 53.5626 138.486 53.8883C138.184 54.2195 137.986 54.6077 137.891 55.0528C137.795 55.4978 137.819 55.9521 137.962 56.4156C138.178 57.1192 138.591 57.625 139.199 57.9328L138.927 58.4477C138.569 58.2768 138.256 58.0275 137.99 57.6998C137.732 57.376 137.535 56.9963 137.401 56.5607Z" fill="white"/>
<path d="M145.773 65.5874L139.738 66.6908L139.626 66.0786L144.454 65.196L139.96 63.5674L139.905 63.2657L143.506 60.1571L138.704 61.0351L138.592 60.4229L144.627 59.3196L144.723 59.8455L140.728 63.2845L145.677 65.0615L145.773 65.5874Z" fill="white"/>
<path d="M140.06 71.1429C140.022 70.5364 140.122 69.977 140.36 69.4647C140.604 68.9579 140.953 68.5499 141.408 68.2408C141.864 67.9375 142.386 67.7676 142.975 67.7312C143.564 67.6948 144.103 67.7991 144.592 68.044C145.082 68.2947 145.476 68.6567 145.775 69.13C146.079 69.6088 146.251 70.1514 146.288 70.7579C146.325 71.3644 146.225 71.918 145.987 72.4186C145.749 72.925 145.399 73.333 144.938 73.6425C144.483 73.9516 143.961 74.1244 143.372 74.1608C142.783 74.1972 142.241 74.0902 141.745 73.8399C141.256 73.5891 140.862 73.2271 140.563 72.7538C140.265 72.2864 140.097 71.7494 140.06 71.1429ZM140.637 71.1072C140.667 71.5912 140.802 72.0219 141.042 72.3993C141.288 72.7764 141.61 73.0638 142.008 73.2616C142.413 73.4591 142.854 73.543 143.332 73.5135C143.81 73.4839 144.235 73.3464 144.606 73.101C144.983 72.8553 145.268 72.5304 145.459 72.1263C145.657 71.7219 145.741 71.2776 145.711 70.7936C145.681 70.3095 145.543 69.8761 145.297 69.4932C145.057 69.1158 144.734 68.8255 144.33 68.6222C143.931 68.4244 143.493 68.3403 143.014 68.3698C142.536 68.3994 142.108 68.537 141.731 68.7828C141.361 69.034 141.076 69.3619 140.879 69.7663C140.688 70.1762 140.607 70.6232 140.637 71.1072Z" fill="white"/>
</svg>
