<svg id="Group_65" data-name="Group 65" xmlns="http://www.w3.org/2000/svg" xmlns:xlink="http://www.w3.org/1999/xlink" width="250" height="258" viewBox="0 0 250 258">
  <defs>
    <clipPath id="clip-path">
      <path id="Clip_2" data-name="Clip 2" d="M0,0H250V258H0Z" fill="none"/>
    </clipPath>
    <clipPath id="clip-path-2">
      <path id="Clip_10" data-name="Clip 10" d="M0,90.423H58.726V115H81.551V90.423H93V67.48H81.551V35.729H58.726V67.48H34.062L63.036.142,38.938,0Z" fill="none"/>
    </clipPath>
    <clipPath id="clip-path-4">
      <path id="Clip_16" data-name="Clip 16" d="M0,90.423H58.726V115H81.551V90.423H93V67.48H81.551V35.729H58.726V67.48H34.062L63.036.142,38.938,0" fill="none"/>
    </clipPath>
    <clipPath id="clip-path-7">
      <path id="Clip_44" data-name="Clip 44" d="M0,258H250V0H0Z" fill="none"/>
    </clipPath>
  </defs>
  <g id="Group_8" data-name="Group 8">
    <g id="Group_3" data-name="Group 3">
      <path id="Clip_2-2" data-name="Clip 2" d="M0,0H250V258H0Z" fill="none"/>
      <g id="Group_3-2" data-name="Group 3" clip-path="url(#clip-path)">
        <path id="Fill_1" data-name="Fill 1" d="M202.82,258H47.181A47.206,47.206,0,0,1,0,210.769V47.231A47.206,47.206,0,0,1,47.181,0H202.82A47.206,47.206,0,0,1,250,47.231V210.769A47.206,47.206,0,0,1,202.82,258" transform="translate(0)" fill="#fff"/>
      </g>
    </g>
    <path id="Fill_4" data-name="Fill 4" d="M93.506,90.548H82v24.611H59.045V90.548H0L39.15,0,63.38.143,34.248,67.573h24.8V35.778H82V67.573H93.506Z" transform="translate(40.417 39.008)" fill="#3467c3"/>
    <path id="Fill_6" data-name="Fill 6" d="M44.124,93.748C60.538,81.941,79.651,59.322,79.651,40.473,79.651,19.276,61.745,0,39.719,0,18.19,0,0,16.929,0,37.7l20.89,5.335c0-11.025,9.166-19.988,19.611-19.988,10.143,0,16.058,7.753,16.058,18.636,0,11.15-15.63,28.651-49.584,59.988v15.054h74.31V93.748Z" transform="translate(128.298 37.98)" fill="#3467c3"/>
  </g>
  <g id="Group_34" data-name="Group 34" transform="translate(41 39)">
    <g id="Group_11" data-name="Group 11">
      <path id="Clip_10-2" data-name="Clip 10" d="M0,90.423H58.726V115H81.551V90.423H93V67.48H81.551V35.729H58.726V67.48H34.062L63.036.142,38.938,0Z" fill="none"/>
      <g id="Group_11-2" data-name="Group 11" clip-path="url(#clip-path-2)">
        <path id="Fill_9" data-name="Fill 9" d="M3.3,20.889V4.822a2.474,2.474,0,1,0-1.645,0V20.889Z" transform="translate(71.509 95.063)" fill="#fff"/>
      </g>
    </g>
    <g id="Group_14" data-name="Group 14">
      <path id="Clip_13-2" data-name="Clip 13" d="M0,90.423H58.726V115H81.551V90.423H93V67.48H81.551V35.729H58.726V67.48H34.062L63.036.142,38.938,0Z" fill="none"/>
      <g id="Group_14-2" data-name="Group 14" clip-path="url(#clip-path-2)">
        <path id="Fill_12" data-name="Fill 12" d="M3.3,9.105V4.823a2.474,2.474,0,1,0-1.645,0V9.105Z" transform="translate(66.18 107.026)" fill="#fff"/>
      </g>
    </g>
    <g id="Group_17" data-name="Group 17">
      <path id="Clip_16-2" data-name="Clip 16" d="M0,90.423H58.726V115H81.551V90.423H93V67.48H81.551V35.729H58.726V67.48H34.062L63.036.142,38.938,0" fill="none"/>
      <g id="Group_17-2" data-name="Group 17" clip-path="url(#clip-path-4)">
        <path id="Fill_15" data-name="Fill 15" d="M14.955,3.314H27.591a2.467,2.467,0,0,0,4.8-.827,2.467,2.467,0,0,0-4.8-.827H14.955a15.032,15.032,0,0,0,0,30.063H45.018a.825.825,0,0,0,.823-.827V9.417a.825.825,0,0,0-.823-.827H15.645a7.636,7.636,0,0,0-7.608,7.647v2.114a2.475,2.475,0,1,0,1.645,0V16.238a5.985,5.985,0,0,1,5.963-5.993H44.2V30.07H14.955a13.378,13.378,0,0,1,0-26.755" transform="translate(-18.353 3.418)" fill="#fff"/>
      </g>
    </g>
    <g id="Group_20" data-name="Group 20">
      <path id="Clip_19-2" data-name="Clip 19" d="M0,90.423H58.726V115H81.551V90.423H93V67.48H81.551V35.729H58.726V67.48H34.062L63.036.142,38.938,0" fill="none"/>
      <g id="Group_20-2" data-name="Group 20" clip-path="url(#clip-path-4)">
        <path id="Fill_18" data-name="Fill 18" d="M2.474,36A2.468,2.468,0,0,0,4.8,34.337h7.209a.824.824,0,0,0,.823-.827V4.822a2.475,2.475,0,1,0-1.645,0V32.683H4.8A2.473,2.473,0,1,0,2.474,36" transform="translate(9.598 44.488)" fill="#fff"/>
      </g>
    </g>
    <path id="Clip_22-2" data-name="Clip 22" d="M0,90.423H58.726V115H81.551V90.423H93V67.48H81.551V35.729H58.726V67.48H34.062L63.036.142,38.938,0Z" fill="none"/>
    <g id="Mask_Group_1" data-name="Mask Group 1" clip-path="url(#clip-path-2)">
      <path id="Fill_21" data-name="Fill 21" d="M23.4,10.652H.823A.826.826,0,0,1,0,9.824v-9A.826.826,0,0,1,.823,0H23.4a.826.826,0,0,1,.823.827v9A.826.826,0,0,1,23.4,10.652Zm-21.751-9V9H22.574V1.653Z" transform="translate(-2.515 18.398)" fill="#fff"/>
      <path id="Fill_23" data-name="Fill 23" d="M1.652,4.822V20.086a.825.825,0,0,0,.823.827L57.917,22.7a18.465,18.465,0,0,1,0,36.929H29.361a.825.825,0,0,0-.823.827v7.276a2.474,2.474,0,1,0,1.645,0v-6.45H57.917a20.118,20.118,0,0,0,0-40.236L3.3,19.259V4.822a2.475,2.475,0,1,0-1.645,0" transform="translate(37.197 -21.053)" fill="#fff"/>
      <path id="Fill_24" data-name="Fill 24" d="M49.256,107.7A15.01,15.01,0,0,0,64.211,92.669V36.81h34.3a15.032,15.032,0,0,0,0-30.063H35.946V2.487a.825.825,0,0,0-.822-.827H4.8A2.467,2.467,0,0,0,0,2.487a2.467,2.467,0,0,0,4.8.827H34.3v4.26a.825.825,0,0,0,.823.827H98.512a13.378,13.378,0,0,1,0,26.756H63.388a.824.824,0,0,0-.822.827V92.669a13.31,13.31,0,1,1-26.619,0V41.07a.825.825,0,0,0-.822-.827H31.088a2.487,2.487,0,1,0,0,1.653H34.3V92.669A15.01,15.01,0,0,0,49.256,107.7" transform="translate(-4.819 -1.668)" fill="#fff"/>
      <path id="Fill_25" data-name="Fill 25" d="M36.908,48.4a2.474,2.474,0,1,0,3.3-2.335V19.3a.825.825,0,0,0-.823-.827H21.49A18.4,18.4,0,0,1,3.72,4.625,2.464,2.464,0,1,0,2.1,4.942,20.046,20.046,0,0,0,21.49,20.125H38.56V46.069A2.479,2.479,0,0,0,36.908,48.4" transform="translate(-24.888 20.104)" fill="#fff"/>
      <path id="Fill_26" data-name="Fill 26" d="M58.28,10.658H1.645V3.314H38.834A2.473,2.473,0,1,0,41.158,0a2.468,2.468,0,0,0-2.323,1.661H.822A.824.824,0,0,0,0,2.488v9a.824.824,0,0,0,.822.827H58.28a5.322,5.322,0,0,0,4.577-8A2.477,2.477,0,0,0,61.35.8a2.486,2.486,0,0,0-1.39,4.774,2.44,2.44,0,0,0,1.64-.1,3.658,3.658,0,0,1-3.319,5.186" transform="translate(37.954 16.737)" fill="#fff"/>
      <path id="Fill_27" data-name="Fill 27" d="M21.21,31.948V4.822a2.474,2.474,0,1,0-1.645,0v26.3H4.8a2.487,2.487,0,1,0,0,1.654h15.59a.825.825,0,0,0,.823-.827" transform="translate(6.278 53.991)" fill="#fff"/>
      <path id="Fill_28" data-name="Fill 28" d="M36.551,51.243a2.467,2.467,0,0,0-4.8-.827H25.076a23.551,23.551,0,0,1,0-47.1H56.8a2.467,2.467,0,0,0,4.8-.827,2.467,2.467,0,0,0-4.8-.827H25.076a25.2,25.2,0,0,0,0,50.409h6.678a2.467,2.467,0,0,0,4.8-.827" transform="translate(-28.474 -6.755)" fill="#fff"/>
      <path id="Fill_29" data-name="Fill 29" d="M50.6,12.309H3.3V4.822a2.474,2.474,0,1,0-1.645,0v8.313a.824.824,0,0,0,.823.827H50.6a23.551,23.551,0,0,1,0,47.1H31.922a2.487,2.487,0,1,0,0,1.654H50.6a25.2,25.2,0,0,0,0-50.409" transform="translate(44.514 -17.403)" fill="#fff"/>
      <path id="Fill_30" data-name="Fill 30" d="M2.652,58.36a2.477,2.477,0,0,0,2.265-2.107,20.11,20.11,0,0,0,15.1-19.487V3.314h8.836A2.473,2.473,0,1,0,31.181,0a2.468,2.468,0,0,0-2.323,1.66H19.2a.825.825,0,0,0-.823.827V36.766A18.458,18.458,0,0,1,4.6,54.628a2.474,2.474,0,1,0-1.95,3.732" transform="translate(45.852 54.235)" fill="#fff"/>
      <path id="Fill_31" data-name="Fill 31" d="M57,0a2.467,2.467,0,0,0-2.323,1.661H.823A.825.825,0,0,0,0,2.487V23.966a.825.825,0,0,0,.823.827H6.055V74.681a2.474,2.474,0,1,0,1.645,0V23.966a.824.824,0,0,0-.822-.827H1.645V3.314H54.679A2.473,2.473,0,1,0,57,0" transform="translate(30.903 10.349)" fill="#fff"/>
      <path id="Fill_32" data-name="Fill 32" d="M7.3,49.94A2.474,2.474,0,1,0,10.6,47.6V.827A.824.824,0,0,0,9.775,0H.823A.824.824,0,0,0,0,.827V59.51a5.285,5.285,0,0,0,7.958,4.6,2.39,2.39,0,0,0,.427.174A2.518,2.518,0,1,0,6.8,62.847a3.622,3.622,0,0,1-1.506.336A3.667,3.667,0,0,1,1.645,59.51V1.653H8.952V47.6A2.479,2.479,0,0,0,7.3,49.94" transform="translate(42.505 33.488)" fill="#fff"/>
      <path id="Fill_33" data-name="Fill 33" d="M66.02,15.641A2.468,2.468,0,0,0,63.7,17.3H51.678V12.17h4.558a2.487,2.487,0,1,0,0-1.653H51.678V4.823a2.474,2.474,0,1,0-1.645,0V29.511A23.518,23.518,0,0,1,26.6,53.062c-11.319,0-20.8-6.177-22.968-17.093A2.472,2.472,0,1,0,2,36.215c2.286,11.725,12.457,18.5,24.6,18.5A25.169,25.169,0,0,0,51.678,29.511V25.918h6.69a2.487,2.487,0,1,0,0-1.653h-6.69v-5.31H63.7a2.473,2.473,0,1,0,2.323-3.314" transform="translate(19.255 61.491)" fill="#fff"/>
    </g>
  </g>
  <g id="Group_64" data-name="Group 64">
    <path id="Fill_35" data-name="Fill 35" d="M2.649,20.692H0V.4A30.632,30.632,0,0,1,5.084,0c2.559,0,4.5.574,5.753,1.706a5.632,5.632,0,0,1,1.8,4.3,6.059,6.059,0,0,1-1.583,4.388,8.542,8.542,0,0,1-6.271,2.255,9.292,9.292,0,0,1-2.13-.183v8.227ZM5.144,2.1a11.3,11.3,0,0,0-2.5.213V10.3a8.872,8.872,0,0,0,2.192.213c3.221,0,5.144-1.629,5.144-4.358C9.985,3.58,8.22,2.1,5.144,2.1Z" transform="translate(53.326 173.412)" fill="#0049a0"/>
    <path id="Fill_37" data-name="Fill 37" d="M2.649,20.693H0V.427A30.7,30.7,0,0,1,5.084,0C7.869,0,9.755.532,11.02,1.676a5.28,5.28,0,0,1,1.614,3.931A5.367,5.367,0,0,1,8.8,10.818v.092c1.47.519,2.474,1.914,2.984,4.145a32.859,32.859,0,0,0,1.582,5.635H10.625a25.139,25.139,0,0,1-1.34-4.906c-.6-2.818-1.727-3.9-4.14-3.992h-2.5v8.9ZM5.267,2.073a11.854,11.854,0,0,0-2.618.213v7.5H5.358c2.811,0,4.627-1.531,4.627-3.9C9.985,3.425,8.309,2.073,5.267,2.073Z" transform="translate(69.521 173.412)" fill="#0049a0"/>
    <path id="Fill_39" data-name="Fill 39" d="M10.625,10.91H2.679v7.405h8.889V20.54H0V0H11.112V2.225H2.679V8.715h7.945Z" transform="translate(85.868 173.565)" fill="#0049a0"/>
    <path id="Fill_41" data-name="Fill 41" d="M4.81,20.875A42.542,42.542,0,0,1,0,20.632V.457A34.183,34.183,0,0,1,5.631,0c3.661,0,6.457.861,8.312,2.56a9.345,9.345,0,0,1,2.922,7.374,10.986,10.986,0,0,1-2.953,7.985C11.951,19.853,8.8,20.875,4.81,20.875ZM5.754,2.1a14.759,14.759,0,0,0-3.105.275V18.62a21.78,21.78,0,0,0,2.678.122c5.634,0,8.737-3.1,8.737-8.716a7.768,7.768,0,0,0-2.02-5.755C10.615,2.833,8.5,2.1,5.754,2.1Z" transform="translate(100.876 173.412)" fill="#0049a0"/>
    <path id="Clip_44-2" data-name="Clip 44" d="M0,258H250V0H0Z" fill="none"/>
    <g id="Group_64-2" data-name="Group 64" clip-path="url(#clip-path-7)">
      <path id="Fill_43" data-name="Fill 43" d="M0,20.54H2.679V0H0Z" transform="translate(121.119 173.564)" fill="#0049a0"/>
      <path id="Fill_45" data-name="Fill 45" d="M15.525,20.235a13.022,13.022,0,0,1-5.419.975C4.323,21.21,0,17.553,0,10.788,0,4.327,4.353,0,10.716,0a11.1,11.1,0,0,1,4.871.914l-.67,2.164a9.388,9.388,0,0,0-4.11-.853C6,2.225,2.8,5.3,2.8,10.7c0,5.059,2.892,8.259,7.854,8.259a10.637,10.637,0,0,0,4.353-.854Z" transform="translate(127.207 173.229)" fill="#0049a0"/>
      <path id="Fill_46" data-name="Fill 46" d="M6.241,2.255H0V0H15.19V2.255H8.919V20.539H6.241Z" transform="translate(144.589 173.565)" fill="#0049a0"/>
      <path id="Fill_47" data-name="Fill 47" d="M0,20.54H2.679V0H0Z" transform="translate(162.032 173.564)" fill="#0049a0"/>
      <path id="Fill_48" data-name="Fill 48" d="M6.728,20.54,0,0H2.892l3.2,10.117C6.941,12.891,7.7,15.39,8.28,17.8h.061c.578-2.377,1.4-4.967,2.344-7.649L14.155,0h2.831L9.65,20.54Z" transform="translate(167.116 173.565)" fill="#0049a0"/>
      <path id="Fill_49" data-name="Fill 49" d="M10.624,10.91H2.679v7.405h8.889V20.54H0V0H11.111V2.225H2.679V8.715h7.945Z" transform="translate(186.294 173.565)" fill="#0049a0"/>
      <path id="Fill_50" data-name="Fill 50" d="M4.291,13.1,0,0H1.845L3.883,6.453c.544,1.768,1.029,3.362,1.4,4.9H5.32c.368-1.516.893-3.168,1.495-4.878L9.028,0h1.806L6.155,13.1Z" transform="translate(52.166 204.324)" fill="#0049a0"/>
      <path id="Fill_51" data-name="Fill 51" d="M0,13.1H1.709V0H0Z" transform="translate(64.396 204.324)" fill="#0049a0"/>
      <path id="Fill_52" data-name="Fill 52" d="M3.068,13.314A27.1,27.1,0,0,1,0,13.158V.291A21.974,21.974,0,0,1,3.592,0a7.642,7.642,0,0,1,5.3,1.633,5.964,5.964,0,0,1,1.863,4.7,7.008,7.008,0,0,1-1.883,5.092C7.621,12.662,5.613,13.314,3.068,13.314Zm.6-11.973a9.447,9.447,0,0,0-1.981.175v10.36a13.642,13.642,0,0,0,1.709.077c3.593,0,5.571-1.974,5.571-5.558A4.955,4.955,0,0,0,7.681,2.724,5.438,5.438,0,0,0,3.67,1.341Z" transform="translate(69.055 204.227)" fill="#0049a0"/>
      <path id="Fill_53" data-name="Fill 53" d="M6.776,6.958H1.708V11.68H7.378V13.1H0V0H7.086V1.419H1.708v4.14H6.776Z" transform="translate(81.964 204.324)" fill="#0049a0"/>
      <path id="Fill_54" data-name="Fill 54" d="M5.882,13.547A5.5,5.5,0,0,1,1.638,11.7,7.128,7.128,0,0,1,0,6.881a7.329,7.329,0,0,1,1.718-5A5.738,5.738,0,0,1,6.058,0c3.53,0,5.9,2.671,5.9,6.646a7.29,7.29,0,0,1-1.786,5.134A5.823,5.823,0,0,1,5.882,13.547ZM6,1.381c-2.91,0-4.213,2.742-4.213,5.46,0,2.565,1.312,5.326,4.193,5.326,2.9,0,4.194-2.733,4.194-5.442C10.174,4.151,8.867,1.381,6,1.381Z" transform="translate(90.757 204.091)" fill="#0049a0"/>
      <path id="Fill_55" data-name="Fill 55" d="M1.748,13.1H0L4.466,0h2.02L10.95,13.1h-1.8l-1.4-4.12H3.107L1.748,13.1ZM5.4,1.5l-.084.331c-.169.668-.343,1.358-.576,2.039L3.456,7.657H7.417l-1.3-3.77c-.273-.8-.461-1.537-.643-2.249L5.436,1.5H5.4Z" transform="translate(108.034 204.324)" fill="#0049a0"/>
      <path id="Fill_56" data-name="Fill 56" d="M0,13.1V0H1.864L6.038,6.628a36.677,36.677,0,0,1,2.329,4.256l.059-.019c-.155-1.749-.195-3.343-.195-5.383V0H9.824V13.1H8.116L3.961,6.453A38.233,38.233,0,0,1,1.534,2.08L1.475,2.1c.1,1.652.116,3.226.116,5.4v5.6Z" transform="translate(120.905 204.324)" fill="#0049a0"/>
      <path id="Fill_57" data-name="Fill 57" d="M1.748,13.1H0L4.466,0h2.02L10.95,13.1h-1.8l-1.4-4.12H3.107L1.748,13.1ZM5.4,1.5l-.084.331c-.169.668-.343,1.358-.576,2.039L3.456,7.657H7.417l-1.3-3.77c-.274-.8-.462-1.538-.644-2.25L5.436,1.5H5.4Z" transform="translate(132.687 204.324)" fill="#0049a0"/>
      <path id="Fill_58" data-name="Fill 58" d="M0,0H1.709V11.68H7.3V13.1H0Z" transform="translate(145.538 204.324)" fill="#0049a0"/>
      <path id="Fill_59" data-name="Fill 59" d="M4.155,13.1V7.541L0,0H1.941L3.786,3.615c.485.992.893,1.788,1.3,2.7h.039c.349-.855.815-1.71,1.32-2.7L8.329,0h1.9L5.863,7.521V13.1Z" transform="translate(151.847 204.324)" fill="#0049a0"/>
      <path id="Fill_60" data-name="Fill 60" d="M3.98,1.438H0V0H9.688V1.438h-4V13.1H3.98Z" transform="translate(162.756 204.324)" fill="#0049a0"/>
      <path id="Fill_61" data-name="Fill 61" d="M0,13.1H1.709V0H0Z" transform="translate(173.879 204.324)" fill="#0049a0"/>
      <path id="Fill_62" data-name="Fill 62" d="M9.9,12.906a8.306,8.306,0,0,1-3.456.622C2.757,13.528,0,11.2,0,6.88A6.505,6.505,0,0,1,6.834,0,7.072,7.072,0,0,1,9.94.583l-.427,1.38a5.981,5.981,0,0,0-2.621-.545c-3.068,0-5.106,1.963-5.106,5.4,0,3.226,1.845,5.267,5.009,5.267a6.785,6.785,0,0,0,2.776-.544Z" transform="translate(177.762 204.11)" fill="#0049a0"/>
      <path id="Fill_63" data-name="Fill 63" d="M.446,11.253a5.721,5.721,0,0,0,3.009.855c1.728,0,2.738-.914,2.738-2.235,0-1.205-.7-1.924-2.466-2.585C1.592,6.511.272,5.383.272,3.557.272,1.516,1.961,0,4.5,0A5.853,5.853,0,0,1,7.378.641l-.466,1.38A4.833,4.833,0,0,0,4.446,1.4C2.66,1.4,1.98,2.468,1.98,3.362c0,1.224.8,1.827,2.6,2.526C6.8,6.744,7.9,7.813,7.9,9.737c0,2.022-1.475,3.79-4.562,3.79A6.751,6.751,0,0,1,0,12.672Z" transform="translate(189.137 204.11)" fill="#0049a0"/>
    </g>
  </g>
</svg>
