<svg id="call" xmlns="http://www.w3.org/2000/svg" width="26" height="26" viewBox="0 0 26 26">
  <g id="Rectangle" fill="none" stroke="#3467c3" stroke-miterlimit="10" stroke-width="0.5">
    <rect width="26" height="26" rx="3" stroke="none"/>
    <rect x="0.25" y="0.25" width="25.5" height="25.5" rx="2.75" fill="none"/>
  </g>
  <path id="Fill_1" data-name="Fill 1" d="M15.677,12.655,13.2,10.178a1.292,1.292,0,0,0-1.821.034L10.132,11.46l-.246-.137a12.411,12.411,0,0,1-3-2.17A12.492,12.492,0,0,1,4.71,6.146c-.046-.083-.09-.164-.134-.24l.837-.836.412-.412a1.29,1.29,0,0,0,.033-1.821L3.381.359A1.29,1.29,0,0,0,1.561.394l-.7.7.019.019A4.024,4.024,0,0,0,.307,2.129,4.2,4.2,0,0,0,.051,3.158c-.327,2.711.912,5.189,4.274,8.551,4.648,4.647,8.393,4.3,8.554,4.279a4.182,4.182,0,0,0,1.032-.259,4.018,4.018,0,0,0,1.011-.572l.016.013.707-.692a1.293,1.293,0,0,0,.033-1.822" transform="translate(4.7 5.5)" fill="#3467c3"/>
</svg>
