<svg id="camera" xmlns="http://www.w3.org/2000/svg" width="235" height="235" viewBox="0 0 235 235">
  <circle id="Oval" cx="98.263" cy="98.263" r="98.263" transform="translate(18.717 19.757)" fill="rgba(216,216,216,0.13)"/>
  <g id="Oval_Copy_5" data-name="Oval Copy 5" fill="none" stroke="#4c8cff" stroke-miterlimit="10" stroke-width="1">
    <circle cx="117.5" cy="117.5" r="117.5" stroke="none"/>
    <circle cx="117.5" cy="117.5" r="117" fill="none"/>
  </g>
  <g id="Group_19" data-name="Group 19" transform="translate(36.394 62.389)">
    <path id="Stroke_1" data-name="Stroke 1" d="M0,13.9C0,35.571,8.045,53.122,17.993,53.122a8.266,8.266,0,0,0,2.352-.327l6.561-1.516a7.556,7.556,0,0,1-2.765-.511C16.319,47.9,10.359,33.073,10.359,15.2A74.39,74.39,0,0,1,11.885,0C8.087,1.084,3.531,5.528,1.838,7.556c-.764.921-1.3,1.6-1.714,2.089C.045,11.037,0,12.47,0,13.9Z" transform="translate(113.166 27.75)" fill="none" stroke="#fff" stroke-miterlimit="10" stroke-width="1"/>
    <path id="Stroke_3" data-name="Stroke 3" d="M0,25.7C0,43.609,5.99,58.46,13.849,61.33a7.589,7.589,0,0,0,2.778.513c8.026,0,14.744-12.431,16.278-28.922.207-2.318.333-4.738.333-7.22V25.27c0-1.045-.044-2.092-.084-3.119a72.184,72.184,0,0,0-1.47-11.67A49.189,49.189,0,0,0,28.28,0c-.931,1.191-1.886,2.462-2.816,3.793A60.909,60.909,0,0,1,29.091,25.7c0,19.055-6.678,31.035-11.821,31.978a3.357,3.357,0,0,1-.643.061c-5.2,0-12.481-12.185-12.481-32.039A68.96,68.96,0,0,1,5.806,10.256c-1.039-.019-1.971-.019-2.7-.019a4.957,4.957,0,0,0-.768.061,6.378,6.378,0,0,0-.787.184H1.532A74.4,74.4,0,0,0,0,25.7Z" transform="translate(123.454 16.65)" fill="none" stroke="#fff" stroke-miterlimit="10" stroke-width="1"/>
    <path id="Stroke_5" data-name="Stroke 5" d="M0,8.322C0,30.444,8,48.365,17.864,48.365H98.13c-9.887,0-17.884-17.921-17.884-40.043,0-1.465.045-2.928.123-4.349a3.85,3.85,0,0,1-1.74,1.4c-.574.189-18.8.189-36.975.147-1.991,0-4-.021-5.969-.021-16.158-.041-30.72-.125-30.72-.125S2.033,4.2.388,0V.041C.125,2.7,0,5.477,0,8.322Z" transform="translate(32.446 32.507)" fill="none" stroke="#fff" stroke-miterlimit="10" stroke-width="1"/>
    <path id="Stroke_7" data-name="Stroke 7" d="M12.267,54.707C7.145,54.707,0,42.343,0,22.206A73.055,73.055,0,0,1,1.622,6.548L20.957,0c1.631,4.286,3.575,11.617,3.575,22.206A74.379,74.379,0,0,1,23.426,35.3a50,50,0,0,1-2.814,10.019c-2.18,5.337-5.062,8.823-7.71,9.325A4.213,4.213,0,0,1,12.267,54.707ZM12.785,8C9.22,8,6.32,14.378,6.32,22.212S9.22,36.42,12.785,36.42s6.442-6.374,6.442-14.208A25.049,25.049,0,0,0,17.344,12.16C16.129,9.48,14.51,8,12.785,8Z" transform="translate(127.411 20.614)" fill="none" stroke="#fff" stroke-miterlimit="10" stroke-width="1"/>
    <path id="Fill_9" data-name="Fill 9" d="M1.068,34.217v-.042a9.259,9.259,0,0,0,4.562,5.3s14.531.082,30.658.124c1.963,0,3.971.021,5.951.021,18.132.042,36.324.042,36.9-.145a3.863,3.863,0,0,0,1.74-1.382c.407-.5.941-1.175,1.7-2.1,1.678-2.043,6.2-6.517,9.964-7.612h.022a6.2,6.2,0,0,1,.777-.185,5,5,0,0,1,.757-.061c.716,0,1.636,0,2.662.021,4.644.04,11.584.143,12.973.143,1.719,0,2.558-.99,3.909-2.764.839-1.361,1.681-2.637,2.52-3.877.919-1.34,1.861-2.618,2.78-3.815,5.669-7.425,11.01-11.86,15.1-14.458C138.1.826,140.941.063,141.655,0h-6.012c-3.44,0-7.738.021-11.2.021C97.6.1,31.089.268,22.149.021,7.232-.371,0,17.16,0,27.988a16.712,16.712,0,0,0,1.068,6.23" transform="translate(32.446)" fill="#fff"/>
    <path id="Stroke_11" data-name="Stroke 11" d="M1.068,34.217v-.042a9.259,9.259,0,0,0,4.562,5.3s14.531.082,30.658.124c1.963,0,3.971.021,5.951.021,18.132.042,36.324.042,36.9-.145a3.863,3.863,0,0,0,1.74-1.382c.407-.5.941-1.175,1.7-2.1,1.678-2.043,6.2-6.517,9.964-7.612h.022a6.2,6.2,0,0,1,.777-.185,5,5,0,0,1,.757-.061c.716,0,1.636,0,2.662.021,4.644.04,11.584.143,12.973.143,1.719,0,2.558-.99,3.909-2.764.839-1.361,1.681-2.637,2.52-3.877.919-1.34,1.861-2.618,2.78-3.815,5.669-7.425,11.01-11.86,15.1-14.458C138.1.826,140.941.063,141.655,0h-6.012c-3.44,0-7.738.021-11.2.021C97.6.1,31.089.268,22.149.021,7.232-.371,0,17.16,0,27.988A16.712,16.712,0,0,0,1.068,34.217Z" transform="translate(32.446)" fill="none" stroke="#fff" stroke-miterlimit="10" stroke-width="1"/>
    <path id="Stroke_13" data-name="Stroke 13" d="M0,17.749A49.418,49.418,0,0,1,3.383,28.233s9.975.7,11.356,0,7.05-9.129,10.307-15.552C29,4.885,27.681,3.14,26.486,1.417,25.787.411,24.881.083,22.878,0c-.72.062-3.584.822-7.665,3.366A59.836,59.836,0,0,0,0,17.749Z" transform="translate(151.152)" fill="none" stroke="#fff" stroke-miterlimit="10" stroke-width="1"/>
    <path id="Stroke_15" data-name="Stroke 15" d="M0,49.158H11.871V0H0Z" transform="translate(0 77.701)" fill="none" stroke="#fff" stroke-miterlimit="10" stroke-width="1"/>
    <path id="Stroke_17" data-name="Stroke 17" d="M0,0V15.857H41.943a3.959,3.959,0,0,1-.451-1.843V0Z" transform="translate(11.871 94.351)" fill="none" stroke="#fff" stroke-miterlimit="10" stroke-width="1"/>
    <path id="Stroke_18" data-name="Stroke 18" d="M0,4.093v23.53A4.03,4.03,0,0,0,.465,29.5a4.246,4.246,0,0,0,3.778,2.21H19.5a4.168,4.168,0,0,0,4.242-4.091V4.093A4.183,4.183,0,0,0,19.5,0H4.242A4.169,4.169,0,0,0,0,4.093Z" transform="translate(53.813 80.872)" fill="none" stroke="#fff" stroke-miterlimit="10" stroke-width="1"/>
  </g>
</svg>
