<svg id="phone" xmlns="http://www.w3.org/2000/svg" xmlns:xlink="http://www.w3.org/1999/xlink" width="235" height="235" viewBox="0 0 235 235">
  <defs>
    <clipPath id="clip-path">
      <path id="Clip_4" data-name="Clip 4" d="M0,146.585H84.781V0H0Z" fill="none"/>
    </clipPath>
  </defs>
  <circle id="Oval" cx="98.446" cy="98.446" r="98.446" transform="translate(19 19)" fill="rgba(216,216,216,0.13)"/>
  <g id="Oval_Copy_5" data-name="Oval Copy 5" fill="none" stroke="#4c8cff" stroke-miterlimit="10" stroke-width="1">
    <circle cx="117.5" cy="117.5" r="117.5" stroke="none"/>
    <circle cx="117.5" cy="117.5" r="117" fill="none"/>
  </g>
  <g id="Group_10" data-name="Group 10" transform="translate(75 39)">
    <path id="Stroke_1" data-name="Stroke 1" d="M10.034,145.7H73.861A10.035,10.035,0,0,0,83.9,135.664V10.034A10.035,10.035,0,0,0,73.861,0H10.034A10.034,10.034,0,0,0,0,10.034v125.63A10.035,10.035,0,0,0,10.034,145.7Z" transform="translate(0.443 0.443)" fill="none" stroke="#fff" stroke-miterlimit="10" stroke-width="1"/>
    <path id="Clip_4-2" data-name="Clip 4" d="M0,146.585H84.781V0H0Z" fill="none"/>
    <g id="Group_10-2" data-name="Group 10" clip-path="url(#clip-path)">
      <path id="Stroke_3" data-name="Stroke 3" d="M0,103.825H83.9V0H0Z" transform="translate(0.443 17.223)" fill="none" stroke="#fff" stroke-miterlimit="10" stroke-width="1"/>
      <path id="Stroke_5" data-name="Stroke 5" d="M0,.443H28.508" transform="translate(28.136 9.713)" fill="none" stroke="#fff" stroke-linecap="round" stroke-linejoin="round" stroke-miterlimit="10" stroke-width="2"/>
      <path id="Stroke_6" data-name="Stroke 6" d="M16.523,8.572H3.188A3.188,3.188,0,0,1,0,5.384v-2.2A3.188,3.188,0,0,1,3.188,0H16.523a3.188,3.188,0,0,1,3.188,3.188v2.2A3.188,3.188,0,0,1,16.523,8.572Z" transform="translate(32.535 130.401)" fill="#d8d8d8" stroke="#fff" stroke-miterlimit="10" stroke-width="1"/>
      <path id="Stroke_7" data-name="Stroke 7" d="M47,23.5A23.5,23.5,0,1,1,23.5,0,23.5,23.5,0,0,1,47,23.5Z" transform="translate(18.89 43.993)" fill="none" stroke="rgba(255,255,255,0.09)" stroke-miterlimit="10" stroke-width="8.504"/>
      <path id="Stroke_8" data-name="Stroke 8" d="M47,23.5A23.5,23.5,0,1,1,23.5,0,23.5,23.5,0,0,1,47,23.5Z" transform="translate(18.89 43.993)" fill="none" stroke="#fff" stroke-miterlimit="10" stroke-width="1.5"/>
      <path id="Stroke_9" data-name="Stroke 9" d="M0,7.627l8.7,8.7L25.032,0" transform="translate(29.874 58.525)" fill="none" stroke="#fff" stroke-miterlimit="10" stroke-width="4"/>
    </g>
  </g>
</svg>
