<svg xmlns="http://www.w3.org/2000/svg" xmlns:xlink="http://www.w3.org/1999/xlink" width="164" height="164" viewBox="0 0 164 164">
  <defs>
    <filter id="Oval" x="0" y="0" width="164" height="164" filterUnits="userSpaceOnUse">
      <feOffset dy="2" input="SourceAlpha"/>
      <feGaussianBlur stdDeviation="6" result="blur"/>
      <feFlood flood-opacity="0.055"/>
      <feComposite operator="in" in2="blur"/>
      <feComposite in="SourceGraphic"/>
    </filter>
    <linearGradient id="linear-gradient" x1="0.869" y1="-1.241" x2="0.5" y2="1" gradientUnits="objectBoundingBox">
      <stop offset="0" stop-color="#a8d2ff"/>
      <stop offset="1" stop-color="#3467c3"/>
    </linearGradient>
  </defs>
  <g id="owner" transform="translate(9 2)">
    <g transform="matrix(1, 0, 0, 1, -9, -2)" filter="url(#Oval)">
      <circle id="Oval-2" data-name="Oval" cx="64" cy="64" r="64" transform="translate(18 16)" fill="#fff"/>
    </g>
    <g id="схема">
      <path id="Stroke_1" data-name="Stroke 1" d="M38.939,139A73.843,73.843,0,0,1,0,73.751C0,33.02,32.682,0,73,0" transform="translate(0 4)" fill="none" stroke="#3467c3" stroke-miterlimit="10" stroke-width="1"/>
      <path id="Stroke_3" data-name="Stroke 3" d="M68.738,0A74.815,74.815,0,0,1,73,24.982C73,65.861,40.317,99,0,99" transform="translate(73 53)" fill="none" stroke="#3467c3" stroke-miterlimit="10" stroke-width="1"/>
      <path id="Fill_5" data-name="Fill 5" d="M8,4A4,4,0,1,1,4,0,4,4,0,0,1,8,4" transform="translate(70)" fill="#5d8bd6"/>
      <path id="Fill_7" data-name="Fill 7" d="M8,4A4,4,0,1,1,4,0,4,4,0,0,1,8,4" transform="translate(35 139)" fill="#5d8bd6"/>
      <path id="Fill_9" data-name="Fill 9" d="M8,4A4,4,0,1,1,4,0,4,4,0,0,1,8,4" transform="translate(138 50)" fill="#5d8bd6"/>
      <path id="Fill_11" data-name="Fill 11" d="M8,4A4,4,0,1,1,4,0,4,4,0,0,1,8,4" transform="translate(68 148)" fill="#5d8bd6"/>
    </g>
    <g id="Group_7" data-name="Group 7" transform="translate(39 53)">
      <path id="Fill_1" data-name="Fill 1" d="M2.625,27A2.535,2.535,0,0,1,0,25.46V3.636A2.521,2.521,0,0,1,2.614,2.1h.1c1.409.024,2.916.035,4.608.035,1.877,0,3.765-.014,5.695-.03a3.98,3.98,0,0,0,1.548-.32A17.671,17.671,0,0,1,21.755,0a12.176,12.176,0,0,1,1.361.076c1.468.166,2.947.469,4.377.762l.851.174A60.432,60.432,0,0,0,40.117,2.158a10.674,10.674,0,0,1,5.892,1.614A10.857,10.857,0,0,1,49.9,8.6a.648.648,0,0,0,.085.126c.023.03.051.065.083.11l.608-.458c.488-.366.99-.744,1.476-1.124.361-.283.724-.577,1.075-.861.463-.375.941-.763,1.422-1.13a9.874,9.874,0,0,1,12.966.824,8.177,8.177,0,0,1,.965,1.241c.134.2.273.4.416.6v.967c-.109.15-.216.305-.32.456a11.274,11.274,0,0,1-.757,1.013c-.452.518-.955,1-1.442,1.475l-.135.13a44.682,44.682,0,0,1-13.483,9.146,38.929,38.929,0,0,1-15.327,3.072,46.771,46.771,0,0,1-7.5-.627c-1.1-.179-2.2-.4-3.276-.623-1.2-.244-2.439-.5-3.669-.685a12.278,12.278,0,0,0-1.85-.138,17.087,17.087,0,0,0-4.934.809c0,.2,0,.4,0,.594,0,.381,0,.74,0,1.105a2.091,2.091,0,0,1-2.339,2.365c-1.126,0-2.272,0-3.379-.005h-.012c-.962,0-1.957,0-2.941,0-1.933,0-3.5.01-4.919.031ZM4.077,6.315V22.8h8.141V6.315Zm17.3,11.678a20.208,20.208,0,0,1,3.991.4l.913.185.016,0c2.293.467,4.664.949,7.019,1.228a38.263,38.263,0,0,0,4.479.269,34.43,34.43,0,0,0,18.263-5.227,43.33,43.33,0,0,0,7.994-6.38,5.525,5.525,0,0,0-3.324-1.1,6.462,6.462,0,0,0-3.937,1.416c-1.854,1.448-3.528,2.747-5.244,3.985a8.626,8.626,0,0,1-5.03,1.749c-2.566.02-5.275.03-8.526.03-2.6,0-5.239-.006-7.563-.012h-.013a1.9,1.9,0,0,1-1.823-1.3,2,2,0,0,1,.176-1.892,2.2,2.2,0,0,1,1.867-.94c3.486-.006,7.032-.006,10.46-.006h5.125l-.042-.149a1.38,1.38,0,0,0-.058-.181l-.045-.1a4.742,4.742,0,0,0-.217-.455A5.957,5.957,0,0,0,40.368,6.3h-.206a60.455,60.455,0,0,1-14.57-1.674A15.177,15.177,0,0,0,22,4.17,12.247,12.247,0,0,0,16.834,5.3a.792.792,0,0,0-.538.866c.014,2.845.012,5.739.011,8.537q0,1.326,0,2.65v1.236l.238-.045c.17-.032.316-.06.464-.091A21.53,21.53,0,0,1,21.374,17.993Z" transform="translate(0 42)" fill="url(#linear-gradient)"/>
      <path id="Fill_3" data-name="Fill 3" d="M58.467,37H2.533C.747,37,.019,36.274.019,34.493q0-3.682,0-7.363c0-8,.005-16.261-.02-24.39A2.6,2.6,0,0,1,1.509,0H59.491A2.6,2.6,0,0,1,61,2.74c-.026,8.129-.023,16.394-.02,24.386q0,3.687,0,7.366C60.98,36.274,60.252,37,58.467,37ZM4.119,4.135V32.89h52.75V4.135Z" transform="translate(4)" fill="url(#linear-gradient)"/>
      <path id="Fill_4" data-name="Fill 4" d="M10.012,21H10a9.7,9.7,0,0,1-6.888-2.914,10.575,10.575,0,0,1-2.28-3.415A10.81,10.81,0,0,1,0,10.46,10.662,10.662,0,0,1,2.954,3.076,9.712,9.712,0,0,1,10.008,0h.013a9.684,9.684,0,0,1,7.045,3.1,10.806,10.806,0,0,1-.005,14.812A9.69,9.69,0,0,1,10.012,21ZM10,4.146a6.268,6.268,0,0,0-6,6.3,6.573,6.573,0,0,0,1.891,4.629,5.768,5.768,0,0,0,4.072,1.779h.027A6.272,6.272,0,0,0,16,10.519a6.558,6.558,0,0,0-1.906-4.612A5.778,5.778,0,0,0,10,4.146h0Z" transform="translate(25 8)" fill="url(#linear-gradient)"/>
      <path id="Fill_5-2" data-name="Fill 5" d="M4.031,4.147V16.853c.6,0,1.186,0,1.776,0a2.074,2.074,0,1,1,0,4.141c-1.222.006-2.443.009-3.665,0A2.038,2.038,0,0,1,.005,18.8q-.01-8.281,0-16.561A2.044,2.044,0,0,1,2.178.006q1.832-.011,3.665,0A2.046,2.046,0,0,1,8,2.044a2.051,2.051,0,0,1-2.164,2.1c-.576.006-1.153,0-1.805,0" transform="translate(13 8)" fill="url(#linear-gradient)"/>
      <path id="Fill_6" data-name="Fill 6" d="M3.967,16.852V4.148c-.645,0-1.26.009-1.876,0A2.049,2.049,0,0,1,0,2.039,2.042,2.042,0,0,1,2.1.009q1.9-.018,3.8,0a2.027,2.027,0,0,1,2.1,2.164q.013,8.314,0,16.628a2.038,2.038,0,0,1-2.142,2.191q-1.865.015-3.731,0a2.07,2.07,0,1,1,.012-4.138c.6-.007,1.191,0,1.833,0" transform="translate(48 8)" fill="url(#linear-gradient)"/>
    </g>
  </g>
</svg>
