<svg xmlns="http://www.w3.org/2000/svg" xmlns:xlink="http://www.w3.org/1999/xlink" width="164" height="164" viewBox="0 0 164 164">
  <defs>
    <filter id="Oval_Copy_4" x="0" y="0" width="164" height="164" filterUnits="userSpaceOnUse">
      <feOffset dy="2" input="SourceAlpha"/>
      <feGaussianBlur stdDeviation="6" result="blur"/>
      <feFlood flood-opacity="0.055"/>
      <feComposite operator="in" in2="blur"/>
      <feComposite in="SourceGraphic"/>
    </filter>
    <clipPath id="clip-path">
      <path id="Clip_2" data-name="Clip 2" d="M0,0H80V70H0Z" fill="none"/>
    </clipPath>
    <linearGradient id="linear-gradient" x1="0.924" y1="-0.575" x2="0.5" y2="1" gradientUnits="objectBoundingBox">
      <stop offset="0" stop-color="#a8d2ff"/>
      <stop offset="1" stop-color="#3467c3"/>
    </linearGradient>
  </defs>
  <g id="shopper" transform="translate(9 2)">
    <g id="Group_6_Copy" data-name="Group 6 Copy" transform="translate(146 156) rotate(180)">
      <g id="Oval_Copy_10" data-name="Oval Copy 10" transform="translate(9 14)">
        <g transform="matrix(-1, 0, 0, -1, 146, 144)" filter="url(#Oval_Copy_4)">
          <circle id="Oval_Copy_4-2" data-name="Oval Copy 4" cx="64" cy="64" r="64" transform="translate(146 144) rotate(180)" fill="#fff"/>
        </g>
      </g>
      <g id="схема">
        <path id="Stroke_1" data-name="Stroke 1" d="M38.939,139A73.843,73.843,0,0,1,0,73.751C0,33.02,32.682,0,73,0" transform="translate(0 4)" fill="none" stroke="#3467c3" stroke-miterlimit="10" stroke-width="1"/>
        <path id="Stroke_3" data-name="Stroke 3" d="M68.738,0A74.815,74.815,0,0,1,73,24.982C73,65.861,40.317,99,0,99" transform="translate(73 53)" fill="none" stroke="#3467c3" stroke-miterlimit="10" stroke-width="1"/>
        <path id="Fill_5" data-name="Fill 5" d="M8,4A4,4,0,1,1,4,0,4,4,0,0,1,8,4" transform="translate(70)" fill="#5d8bd6"/>
        <path id="Fill_7" data-name="Fill 7" d="M8,4A4,4,0,1,1,4,0,4,4,0,0,1,8,4" transform="translate(35 139)" fill="#5d8bd6"/>
        <path id="Fill_9" data-name="Fill 9" d="M8,4A4,4,0,1,1,4,0,4,4,0,0,1,8,4" transform="translate(138 50)" fill="#5d8bd6"/>
        <path id="Fill_11" data-name="Fill 11" d="M8,4A4,4,0,1,1,4,0,4,4,0,0,1,8,4" transform="translate(68 148)" fill="#5d8bd6"/>
      </g>
    </g>
    <g id="Group_3" data-name="Group 3" transform="translate(28 43)">
      <path id="Clip_2-2" data-name="Clip 2" d="M0,0H80V70H0Z" fill="none"/>
      <g id="Group_3-2" data-name="Group 3" clip-path="url(#clip-path)">
        <path id="Fill_1" data-name="Fill 1" d="M63.759,70h0c-.07,0-.139,0-.209,0a7.047,7.047,0,0,1-4.673-1.888,7.124,7.124,0,0,1-2.181-4.6,6.67,6.67,0,0,1,1.163-4.417,7.78,7.78,0,0,1,4.817-3.054H31.493a7.692,7.692,0,0,1,4.874,3.126,6.764,6.764,0,0,1,1.109,4.586A7,7,0,0,1,30.541,70h-.062a6.989,6.989,0,0,1-4.71-1.833,7.244,7.244,0,0,1-2.244-4.636c-.283-2.891,1.434-6.511,5.874-7.63l-.1,0c-.442,0-.889.011-1.322.022-.469.012-.952.024-1.426.024-.663,0-1.21-.023-1.719-.074A6.629,6.629,0,0,1,21,54.1a6.821,6.821,0,0,1-2.062-3.664,7,7,0,0,1,3.4-7.485c.148-.082.3-.163.472-.256l.213-.114L19.739,27.917,14.546,4.688H7.223c-.414,0-.835-.006-1.242-.012s-.833-.012-1.247-.012c-.609,0-1.111.013-1.578.041-.112.007-.222.01-.328.01A2.814,2.814,0,0,1,0,2.978V1.733A2.952,2.952,0,0,1,3.047,0h.108C4.766.024,6.533.035,8.716.035c1.131,0,2.274,0,3.379-.005.971,0,2.123-.006,3.31-.006h.5c1.761,0,2.522.6,2.91,2.289.38,1.656.745,3.281,1.131,5q.228,1.012.459,2.04h23.35c9.938,0,21.691,0,33.514-.008h.007A2.383,2.383,0,0,1,79.8,10.637a3.513,3.513,0,0,1,.085,2.086c-1.3,4.653-2.662,9.373-3.98,13.937q-.6,2.065-1.191,4.129l-1.152,4-.043.151v.005c-.9,3.137-1.836,6.38-2.756,9.569a2.511,2.511,0,0,1-2.874,2.159H50.434c-6.6,0-15.309,0-24.169-.008a2.491,2.491,0,0,0-2.535,1.319,2.257,2.257,0,0,0,.032,2.126,2.375,2.375,0,0,0,1.847,1.21,4.84,4.84,0,0,0,.5.021l.221,0,.221,0H44.54c6.87,0,15.022,0,23.391-.008h.005a2.492,2.492,0,0,1,2.531,1.319,2.242,2.242,0,0,1-.058,2.185A2.383,2.383,0,0,1,68.428,56c-.4.016-.833.023-1.353.023-.373,0-.75,0-1.115-.008h-.005c-.361,0-.734-.007-1.1-.007.256.109.524.211.783.309a8.934,8.934,0,0,1,1.731.8,7.529,7.529,0,0,1,2.023,1.9,7.326,7.326,0,0,1,1.133,2.6,7.69,7.69,0,0,1,.022,2.769A7.022,7.022,0,0,1,63.759,70ZM30.511,60.68a2.352,2.352,0,0,0-2.341,2.264,2.3,2.3,0,0,0,.647,1.657,2.33,2.33,0,0,0,1.63.733h.065a2.352,2.352,0,0,0,2.341-2.264,2.3,2.3,0,0,0-.647-1.657,2.331,2.331,0,0,0-1.63-.734Zm33.171,0A2.368,2.368,0,0,0,61.341,63a2.3,2.3,0,0,0,.686,1.642,2.327,2.327,0,0,0,1.646.694h.01a2.368,2.368,0,0,0,2.341-2.318,2.3,2.3,0,0,0-.685-1.642,2.328,2.328,0,0,0-1.647-.694ZM21.452,14.07q3.133,14.013,6.241,27.905H66.617l4.3-14.949.065-.226L74.64,14.07Z" fill="url(#linear-gradient)"/>
      </g>
    </g>
  </g>
</svg>
