<svg id="shoplifter1" xmlns="http://www.w3.org/2000/svg" xmlns:xlink="http://www.w3.org/1999/xlink" width="190" height="190" viewBox="0 0 190 190">
  <defs>
    <linearGradient id="linear-gradient" x1="0.5" x2="0.5" y2="1" gradientUnits="objectBoundingBox">
      <stop offset="0" stop-color="#fff"/>
      <stop offset="1" stop-color="#fff"/>
    </linearGradient>
    <linearGradient id="linear-gradient-2" x1="0.801" x2="0.5" y2="1" gradientUnits="objectBoundingBox">
      <stop offset="0" stop-color="#64a0e3"/>
      <stop offset="1" stop-color="#3467c3"/>
    </linearGradient>
  </defs>
  <rect id="Rectangle" width="190" height="190" fill="none"/>
  <g id="Fill_1" data-name="Fill 1">
    <path id="Fill_1-2" data-name="Fill 1" d="M145.582,92H0V89.122a3.109,3.109,0,0,1,2.947-1.465h.086c1.359.016,2.836.024,4.514.024,1.64,0,3.3-.007,4.913-.015h.029q1.588-.007,3.175-.012a.57.57,0,0,0,.2-.059c.061-.025.136-.054.238-.09V70.694q0-15.2,0-30.4c0-2.778.569-3.341,3.379-3.343h1.907l9.065,0c3.744,0,6.871,0,9.842,0,2.537,0,3.12.588,3.12,3.13,0,11.48,0,23.086,0,34.31V87.6H59.823V29.421c0-.127,0-.253,0-.38v-.006c0-.3-.005-.606.007-.909.074-1.973.787-2.68,2.725-2.7.96-.011,1.994-.016,3.253-.016q1.2,0,2.393,0h.022q1.186,0,2.371,0H83.367c3.47,0,3.828.366,3.828,3.913V87.558H103.6V3.636c0-1.545.1-2.482.631-3.009S105.709,0,107.267,0H127.22c3.18,0,3.7.51,3.7,3.639V87.679h4.2l2.552,0h.038l2.589,0c1.447,0,2.629,0,3.721-.011h.107c1.1,0,2.22.112,2.724,1.449s-.311,2.121-1.263,2.879ZM20.491,41.379V87.612H39.022V41.379ZM64.226,29.83V87.6H82.794V29.83ZM107.983,4.456V87.6h18.561V4.456Z" transform="translate(20.16 75)" fill="url(#linear-gradient)"/>
    <path id="Fill_1-3" data-name="Fill 1" d="M145.582,92H0V89.122a3.109,3.109,0,0,1,2.947-1.465h.086c1.359.016,2.836.024,4.514.024,1.64,0,3.3-.007,4.913-.015h.029q1.588-.007,3.175-.012a.57.57,0,0,0,.2-.059c.061-.025.136-.054.238-.09V70.694q0-15.2,0-30.4c0-2.778.569-3.341,3.379-3.343h1.907l9.065,0c3.744,0,6.871,0,9.842,0,2.537,0,3.12.588,3.12,3.13,0,11.48,0,23.086,0,34.31V87.6H59.823V29.421c0-.127,0-.253,0-.38v-.006c0-.3-.005-.606.007-.909.074-1.973.787-2.68,2.725-2.7.96-.011,1.994-.016,3.253-.016q1.2,0,2.393,0h.022q1.186,0,2.371,0H83.367c3.47,0,3.828.366,3.828,3.913V87.558H103.6V3.636c0-1.545.1-2.482.631-3.009S105.709,0,107.267,0H127.22c3.18,0,3.7.51,3.7,3.639V87.679h4.2l2.552,0h.038l2.589,0c1.447,0,2.629,0,3.721-.011h.107c1.1,0,2.22.112,2.724,1.449s-.311,2.121-1.263,2.879ZM20.491,41.379V87.612H39.022V41.379ZM64.226,29.83V87.6H82.794V29.83ZM107.983,4.456V87.6h18.561V4.456Z" transform="translate(20.16 75)" fill="url(#linear-gradient-2)"/>
  </g>
  <g id="Fill_3" data-name="Fill 3">
    <path id="Fill_3-2" data-name="Fill 3" d="M116.893,15.8c-.728,0-1.194-.007-1.66,0A6.761,6.761,0,0,1,114.072,2.34q9.085-1.248,18.2-2.287c4.337-.5,7.674,2.593,7.7,7.075.039,5.9.029,11.795,0,17.692-.017,3.76-2.454,6.685-5.818,7.082-3.668.434-6.641-1.725-7.571-5.5a2.063,2.063,0,0,0-.53-.935,5.159,5.159,0,0,1-.579,1.112,170.562,170.562,0,0,1-22.218,20.959c-.3.237-.584.5-.9.708a2.188,2.188,0,0,1-2.977-.329,2.166,2.166,0,0,1,.277-2.981,22.781,22.781,0,0,1,1.755-1.479A166.225,166.225,0,0,0,125.7,19.7a5.461,5.461,0,0,1,1.353-1.464,3.346,3.346,0,0,1,2.315-.521,2.737,2.737,0,0,1,1.354,1.937,46.228,46.228,0,0,1,.077,5.026c.021,1.845.93,2.934,2.421,2.94s2.444-1.1,2.45-2.927q.027-8.7,0-17.4c-.009-2.146-1.216-3.171-3.31-2.905q-8.6,1.091-17.2,2.2c-1.9.244-2.9,1.3-2.7,2.837.185,1.448,1.431,2.243,3.239,2.025s3.6-.45,5.4-.709c1.186-.171,2.326-.234,3.037.984.721,1.235.067,2.151-.7,3.093A164.3,164.3,0,0,1,60.031,62.4,171,171,0,0,1,16.058,74.8c-2.788.392-5.6.609-8.4.911-.38.041-.761.084-1.135.157A2.458,2.458,0,0,0,4.337,78.44a2.409,2.409,0,0,0,2.687,2.22c2.1-.106,4.2-.233,6.285-.5A179.124,179.124,0,0,0,90.021,51.792c.12-.079.239-.158.36-.235,1.595-1.012,2.9-.908,3.639.291.718,1.16.3,2.288-1.253,3.322A179.206,179.206,0,0,1,66.052,69.876a186.389,186.389,0,0,1-45.985,13.7c-4.237.686-8.532,1.046-12.814,1.4A6.663,6.663,0,0,1,.035,78.887,6.6,6.6,0,0,1,6.013,71.6a158.892,158.892,0,0,0,25.976-4.3c32.99-8.446,61.276-24.8,84.027-50.424.248-.279.472-.58.877-1.082" transform="translate(22.16 20)" fill="url(#linear-gradient)"/>
    <path id="Fill_3-3" data-name="Fill 3" d="M116.893,15.8c-.728,0-1.194-.007-1.66,0A6.761,6.761,0,0,1,114.072,2.34q9.085-1.248,18.2-2.287c4.337-.5,7.674,2.593,7.7,7.075.039,5.9.029,11.795,0,17.692-.017,3.76-2.454,6.685-5.818,7.082-3.668.434-6.641-1.725-7.571-5.5a2.063,2.063,0,0,0-.53-.935,5.159,5.159,0,0,1-.579,1.112,170.562,170.562,0,0,1-22.218,20.959c-.3.237-.584.5-.9.708a2.188,2.188,0,0,1-2.977-.329,2.166,2.166,0,0,1,.277-2.981,22.781,22.781,0,0,1,1.755-1.479A166.225,166.225,0,0,0,125.7,19.7a5.461,5.461,0,0,1,1.353-1.464,3.346,3.346,0,0,1,2.315-.521,2.737,2.737,0,0,1,1.354,1.937,46.228,46.228,0,0,1,.077,5.026c.021,1.845.93,2.934,2.421,2.94s2.444-1.1,2.45-2.927q.027-8.7,0-17.4c-.009-2.146-1.216-3.171-3.31-2.905q-8.6,1.091-17.2,2.2c-1.9.244-2.9,1.3-2.7,2.837.185,1.448,1.431,2.243,3.239,2.025s3.6-.45,5.4-.709c1.186-.171,2.326-.234,3.037.984.721,1.235.067,2.151-.7,3.093A164.3,164.3,0,0,1,60.031,62.4,171,171,0,0,1,16.058,74.8c-2.788.392-5.6.609-8.4.911-.38.041-.761.084-1.135.157A2.458,2.458,0,0,0,4.337,78.44a2.409,2.409,0,0,0,2.687,2.22c2.1-.106,4.2-.233,6.285-.5A179.124,179.124,0,0,0,90.021,51.792c.12-.079.239-.158.36-.235,1.595-1.012,2.9-.908,3.639.291.718,1.16.3,2.288-1.253,3.322A179.206,179.206,0,0,1,66.052,69.876a186.389,186.389,0,0,1-45.985,13.7c-4.237.686-8.532,1.046-12.814,1.4A6.663,6.663,0,0,1,.035,78.887,6.6,6.6,0,0,1,6.013,71.6a158.892,158.892,0,0,0,25.976-4.3c32.99-8.446,61.276-24.8,84.027-50.424.248-.279.472-.58.877-1.082" transform="translate(22.16 20)" fill="url(#linear-gradient-2)"/>
  </g>
</svg>
