<svg id="shoplifter3" xmlns="http://www.w3.org/2000/svg" xmlns:xlink="http://www.w3.org/1999/xlink" width="190" height="190" viewBox="0 0 190 190">
  <defs>
    <linearGradient id="linear-gradient" x1="0.801" x2="0.5" y2="1" gradientUnits="objectBoundingBox">
      <stop offset="0" stop-color="#64a0e3"/>
      <stop offset="1" stop-color="#3467c3"/>
    </linearGradient>
  </defs>
  <rect id="Rectangle" width="190" height="190" fill="none"/>
  <path id="Fill_1" data-name="Fill 1" d="M0,8.237A3.108,3.108,0,0,1,3.1,6.72c4.437.062,8.876.051,13.313-.007a4.2,4.2,0,0,0,2.007-.656C21.4,4.243,24.308,2.321,27.3.523c1.5-.9,2.777-.6,3.447.617s.152,2.33-1.315,3.254c-3.159,1.988-6.26,4.068-9.438,6.023a5.087,5.087,0,0,1-2.464.718c-4.286.07-8.573.033-12.972.033V35.936c.477,0,.993.016,1.508,0,12.263-.451,24.4,1.149,36.574,2.195,9.133.785,18.254,1.728,27.4,2.375,7.488.529,14.654-1.3,21.361-4.381,7.9-3.635,15.55-7.8,23.308-11.733a12.775,12.775,0,0,1,1.317-.659,2.18,2.18,0,0,1,2.24,3.641,2.583,2.583,0,0,1-.6.429c-9.151,4.982-18.144,10.287-28.023,13.806a54.153,54.153,0,0,1-13.625,3.162A4.654,4.654,0,0,0,75.17,45H68.659c-1.652-.2-3.3-.429-4.957-.579-9.408-.851-18.814-1.723-28.228-2.509C27,41.2,18.545,40.06,10,40.355c-2.36.082-4.727-.037-7.088.031A2.883,2.883,0,0,1,0,38.824Z" transform="translate(20.16 114)" fill="url(#linear-gradient)"/>
  <path id="Fill_4" data-name="Fill 4" d="M114.767,88a9.837,9.837,0,0,1-5.7-1.811,10.291,10.291,0,0,1-3.736-4.944,1.536,1.536,0,0,0-1.676-1.252l-.114,0c-1.21.033-2.468.049-3.848.049-1.158,0-2.417-.011-3.849-.035a5.156,5.156,0,0,1-5.581-5.686c-.013-6.236-.011-12.575-.008-18.705V55.5q0-3.624,0-7.247V46.3H77.086a4.677,4.677,0,0,1-1.756,3.5,6.637,6.637,0,0,1-3.716,1.113c-1.922.087-3.305.643-3.808,3.077A17.368,17.368,0,0,1,66,58.372c-.134.256-.272.52-.406.783a1.626,1.626,0,0,0,.119,2.111,28.229,28.229,0,0,1,2.1,2.877,4.318,4.318,0,0,1-.43,5.6c-1.088,1.189-2.216,2.322-3.353,3.365a4.349,4.349,0,0,1-2.962,1.214,4.576,4.576,0,0,1-2.492-.781,14.009,14.009,0,0,1-1.326-1.034,5.547,5.547,0,0,0-2.682-1.565c-.057-.005-.115-.008-.174-.008a5.392,5.392,0,0,0-2.558,1.074,12.153,12.153,0,0,1-1.5.834c-.573.248-1.179.446-1.765.637-.613.2-1.247.408-1.843.672A2,2,0,0,0,45.7,75.32a19.15,19.15,0,0,0-.36,2.081c-.07.521-.143,1.06-.248,1.583a4.305,4.305,0,0,1-4.287,3.779c-.759.043-1.53.064-2.293.064s-1.534-.022-2.293-.064a4.307,4.307,0,0,1-4.286-3.78c-.106-.526-.179-1.069-.249-1.594a19.012,19.012,0,0,0-.356-2.071,2.021,2.021,0,0,0-1.022-1.171c-2.261-1.015-4.619-2.005-7.209-3.027a1.678,1.678,0,0,0-.6-.1,1.559,1.559,0,0,0-.794.189c-.616.382-1.206.83-1.776,1.264-.4.3-.81.616-1.228.9a4.832,4.832,0,0,1-2.75.945,4.55,4.55,0,0,1-3.173-1.409c-.88-.841-2.031-1.962-3.132-3.168a4.309,4.309,0,0,1-.427-5.6,34.5,34.5,0,0,1,2.19-3,1.5,1.5,0,0,0,.106-1.863c-.543-1.211-1.052-2.461-1.545-3.669-.443-1.086-.9-2.208-1.38-3.3a1.983,1.983,0,0,0-1.133-1.029,21.228,21.228,0,0,0-2.3-.409c-.442-.062-.9-.126-1.346-.206A4.369,4.369,0,0,1,.025,46.23c-.033-1.31-.034-2.723,0-4.32a4.425,4.425,0,0,1,3.83-4.572,13.154,13.154,0,0,1,1.491-.16,5,5,0,0,0,2.776-.7,4.758,4.758,0,0,0,1.16-2.522,12,12,0,0,1,.461-1.505,26.612,26.612,0,0,1,1.721-3.615,1.573,1.573,0,0,0-.162-2.105,32.167,32.167,0,0,1-2.1-2.88,4.559,4.559,0,0,1-.815-2.819,4.4,4.4,0,0,1,1.2-2.661A47.21,47.21,0,0,1,13.034,14.9a4.325,4.325,0,0,1,2.91-1.209,4.567,4.567,0,0,1,2.537.825,13.2,13.2,0,0,1,1.3,1.036,5.142,5.142,0,0,0,2.577,1.537c.055,0,.113.008.17.008A5.485,5.485,0,0,0,25.1,16.041a12.339,12.339,0,0,1,1.492-.81,28.466,28.466,0,0,1,3.631-1.245,1.438,1.438,0,0,0,1.187-1.436A37.648,37.648,0,0,1,32,8.73a4.129,4.129,0,0,1,3.956-3.4c.837-.04,1.7-.06,2.568-.06.806,0,1.635.017,2.463.052A4.168,4.168,0,0,1,45.047,8.79l.005.024a19,19,0,0,1,.513,3.2c.051,1.17.487,1.7,1.73,2.115a49.4,49.4,0,0,1,6.383,2.706,2.117,2.117,0,0,0,.933.27,1.568,1.568,0,0,0,1.01-.436c.859-.706,1.8-1.4,2.863-2.112a4.681,4.681,0,0,1,2.615-.871,4.325,4.325,0,0,1,2.95,1.248c1.153,1.051,2.28,2.185,3.349,3.369a4.3,4.3,0,0,1,.407,5.607,14.16,14.16,0,0,1-.981,1.276A5.542,5.542,0,0,0,65.3,27.836a4.8,4.8,0,0,0,1.012,2.67,12,12,0,0,1,.79,1.457,22.966,22.966,0,0,1,1.248,3.65,1.366,1.366,0,0,0,1.385,1.22c.541.056,1.088.151,1.617.242.284.049.577.1.866.145,3.2.491,4.16,1.368,4.915,4.467h13.12V32.573c0-5.945,0-12.092,0-18.187,0-4.509,1.809-6.35,6.242-6.351.649,0,1.3,0,1.939-.009.678,0,1.38-.009,2.071-.009,1.145,0,2.081.012,2.946.039l.147,0a1.594,1.594,0,0,0,1.747-1.3,10.156,10.156,0,0,1,3.723-4.912A9.954,9.954,0,0,1,114.767,0a9.355,9.355,0,0,1,1.441.112,10.273,10.273,0,0,1,8.768,9.463,10.4,10.4,0,0,1-1.922,6.676,10.122,10.122,0,0,1-5.677,3.889,9.986,9.986,0,0,1-11.963-6.25,1.762,1.762,0,0,0-1.93-1.415c-.061,0-.126,0-.192,0-1.021.036-2.119.054-3.357.054-1.276,0-2.571-.019-3.9-.039h-.06a1.332,1.332,0,0,0-.986.292,1.334,1.334,0,0,0-.293.989c.015,6.224.018,12.552.021,18.672v.025q0,4.357.005,8.715a1.1,1.1,0,0,0,.064.3c.022.074.049.165.077.277q1.062,0,2.128,0t2.137,0c1.414,0,3.277-.007,5.142-.061.346-.01.814-.685,1-1.166a10.278,10.278,0,0,1,9.621-6.765,9.985,9.985,0,0,1,6.8,2.706,10.228,10.228,0,0,1-6.868,17.761H114.8a9.944,9.944,0,0,1-9.357-6.539,1.852,1.852,0,0,0-2.042-1.5l-.174,0c-1.027.028-2.145.041-3.519.041-.8,0-1.61,0-2.4-.008-.814,0-1.655-.009-2.5-.009-.012.182-.026.355-.04.522-.028.341-.055.662-.055.981,0,2.525,0,5.092,0,7.574,0,6.015.007,12.232-.032,18.347a2.069,2.069,0,0,0,.39,1.53,1.6,1.6,0,0,0,1.191.359c.074,0,.153,0,.234-.006.995-.047,2.043-.07,3.2-.07,1.375,0,2.727.033,3.751.061l.14,0a1.608,1.608,0,0,0,1.773-1.293,9.971,9.971,0,0,1,9.5-6.681,10.946,10.946,0,0,1,1.681.131,9.928,9.928,0,0,1,5.88,3.309,10.111,10.111,0,0,1,2.555,6.29,10.345,10.345,0,0,1-2.031,6.632A10.336,10.336,0,0,1,114.767,88Zm.065-15.929H114.8a5.714,5.714,0,0,0,0,11.427h.028a5.714,5.714,0,0,0,0-11.427Zm-92.6-6.249a4,4,0,0,1,1.945.616c.283.159.573.324.853.484a20,20,0,0,0,6.1,2.65c3.2.571,4.527,2.131,4.747,5.562.193,3,.376,3.214,2.8,3.214.219,0,.456,0,.714,0H39.5c.882-.007,1.344-.194,1.421-1.2.063-.819.2-1.646.325-2.445.1-.6.2-1.215.266-1.825a2.769,2.769,0,0,1,2.435-2.731,24.121,24.121,0,0,0,9.088-3.777,3.043,3.043,0,0,1,1.705-.6,2.9,2.9,0,0,1,1.8.723c1.052.83,2.13,1.611,3.081,2.3.364.263.707.512,1.019.741l3.5-2.864c-.361-.492-.713-.978-1.053-1.447l0-.006h0c-.782-1.078-1.52-2.1-2.291-3.1a2.631,2.631,0,0,1-.119-3.406,25.391,25.391,0,0,0,3.83-9.278,2.624,2.624,0,0,1,2.6-2.351c1.253-.146,2.523-.36,3.751-.567.536-.09,1.09-.184,1.637-.27V41.79c-.568-.09-1.135-.185-1.684-.277-1.291-.216-2.511-.421-3.764-.567a2.624,2.624,0,0,1-2.555-2.4A25.053,25.053,0,0,0,60.728,29.4a2.684,2.684,0,0,1,.114-3.53c.811-1.042,1.595-2.132,2.286-3.095.292-.406.565-.786.828-1.145l-.221-.253-2.749-3.143c-.469.349-.934.69-1.384,1.02-1.045.766-2.03,1.488-2.994,2.258a2.816,2.816,0,0,1-1.8.716,3.885,3.885,0,0,1-1.844-.569c-.363-.2-.734-.4-1.093-.6a21.223,21.223,0,0,0-6.139-2.636A5.353,5.353,0,0,1,42.3,16.633a6.373,6.373,0,0,1-1.13-3.608c-.218-2.865-.388-3.325-2.245-3.325-.432,0-.944.026-1.592.06h-.012c-.017,0-.036,0-.054,0a.4.4,0,0,0-.047,0,.065.065,0,0,0-.044.012,4.329,4.329,0,0,1-.356.275c-.28.2-.57.41-.623.664-.292,1.415-.483,2.877-.667,4.29l-.054.412a2.649,2.649,0,0,1-2.353,2.47,23.955,23.955,0,0,0-9.086,3.778,3.063,3.063,0,0,1-1.731.619,3.029,3.029,0,0,1-1.9-.783c-.995-.8-2.014-1.541-3-2.257-.419-.3-.811-.589-1.191-.871l-1.4,1.281-.106.1-1.8,1.652c.347.475.687.946,1.015,1.4.779,1.079,1.514,2.1,2.291,3.107a2.627,2.627,0,0,1,.152,3.4,25.973,25.973,0,0,0-3.876,9.419A2.441,2.441,0,0,1,10.234,40.9c-1.339.186-2.644.4-4.025.632l-.009,0c-.548.091-1.114.185-1.676.276v4.433c.561.087,1.126.177,1.673.264H6.2c1.341.214,2.608.416,3.91.59a2.527,2.527,0,0,1,2.383,2.228,25.9,25.9,0,0,0,3.877,9.419,2.554,2.554,0,0,1-.086,3.282c-.8,1.055-1.561,2.106-2.369,3.218q-.5.688-1.011,1.389l2.318,2.185.94.886c.413-.306.84-.614,1.253-.913.956-.69,1.943-1.4,2.87-2.166A3.006,3.006,0,0,1,22.234,65.822ZM114.87,38.254h-.109a5.786,5.786,0,0,0-5.621,5.733,5.724,5.724,0,0,0,1.685,4.092,5.635,5.635,0,0,0,4.016,1.687h.011a5.629,5.629,0,0,0,4.009-1.69,5.758,5.758,0,0,0-3.992-9.823Zm-.034-33.749h-.067a5.638,5.638,0,0,0-4.009,1.742,5.7,5.7,0,0,0-1.618,4.112,5.77,5.77,0,0,0,5.7,5.644,5.626,5.626,0,0,0,4.01-1.683,5.747,5.747,0,0,0-4.018-9.815Z" transform="translate(33.16 7)" fill="url(#linear-gradient)"/>
  <path id="Fill_6" data-name="Fill 6" d="M89.889,42a1.954,1.954,0,0,1-1.782-1.162c-.677-1.259-.219-2.365,1.323-3.2,2.034-1.1,4.1-2.216,6.1-3.294,4.694-2.533,9.546-5.152,14.3-7.761a6.1,6.1,0,0,0,2.149-1.912,3.727,3.727,0,0,0-.6-4.716,3.971,3.971,0,0,0-2.832-1.215,4.371,4.371,0,0,0-2.074.545c-1.444.772-2.9,1.58-4.3,2.361-1.6.889-3.253,1.807-4.9,2.677s-3.331,1.79-4.95,2.674c-4.167,2.273-8.476,4.624-12.879,6.569a68.58,68.58,0,0,1-13.766,4.419,70.462,70.462,0,0,1-14.26,1.441,77.649,77.649,0,0,1-8.466-.472c-4.4-.484-8.876-1.01-13.2-1.518l-.1-.011-3.04-.357c-1.673-.2-2.606-1-2.627-2.257-.021-1.283.889-2.105,2.561-2.315,8.216-1.025,16.573-2.06,24.653-3.06l.061-.008.077-.01L60.5,28.282l.584-.071.015,0c.72-.087,1.465-.177,2.193-.3,2.463-.4,3.831-1.962,3.66-4.165-.163-2.1-1.729-3.4-4.189-3.462-.164,0-.342-.006-.559-.006H49.589c-4.4,0-9.622,0-15-.023a8.487,8.487,0,0,1-2.737-.465A47.689,47.689,0,0,0,16.15,17,42.556,42.556,0,0,0,3.5,18.94a4.5,4.5,0,0,1-1.321.223A1.985,1.985,0,0,1,.111,17.669c-.4-1.394.29-2.353,2.115-2.933a45.927,45.927,0,0,1,13.912-2.174,51.325,51.325,0,0,1,15.79,2.607,3.838,3.838,0,0,0,1.194.216A3.009,3.009,0,0,0,34.556,15c2.867-1.5,5.8-3,8.635-4.448C48.9,7.635,54.8,4.62,60.471,1.423A10.473,10.473,0,0,1,65.571,0,7.694,7.694,0,0,1,70.7,1.862a8.987,8.987,0,0,1,2.834,5.4l1.139-.611c.776-.417,1.508-.811,2.258-1.206a9.152,9.152,0,0,1,4.279-1.128,7.036,7.036,0,0,1,4.679,1.721,8.593,8.593,0,0,1,2.677,4.81,1.221,1.221,0,0,0,.111.274c.032.066.069.141.111.235.451-.232.912-.456,1.358-.672a28.057,28.057,0,0,0,2.834-1.508,8.48,8.48,0,0,1,4.54-1.35,7.689,7.689,0,0,1,4.93,1.769,8.4,8.4,0,0,1,2.815,5.089c.411-.036.831-.092,1.237-.145a16.206,16.206,0,0,1,2.1-.186c.194,0,.383.007.561.022a8.4,8.4,0,0,1,3.41,15.762c-3.159,1.759-6.4,3.5-9.534,5.178-1.3.7-2.652,1.423-3.98,2.14l-2.1,1.138-.03.016c-1.771.959-3.6,1.951-5.411,2.915A3.549,3.549,0,0,1,89.889,42Zm7.788-29.7h0a4.845,4.845,0,0,0-2.223.607c-7.561,3.934-15.38,8-23.046,12.05a2.848,2.848,0,0,0-1.258,1.434,9.075,9.075,0,0,1-2.592,3.971A8.286,8.286,0,0,1,64.205,32.2c-4.344.588-8.766,1.143-13.043,1.68l-.019,0c-1.781.224-3.623.455-5.435.685,0,.059-.005.117-.007.175.207.018.417.039.621.06.447.045.91.091,1.366.111,1.169.053,2.345.08,3.494.08A63.978,63.978,0,0,0,78.4,29.206c4.89-2.276,9.7-4.921,14.36-7.479,1.883-1.035,3.83-2.1,5.755-3.135a4.116,4.116,0,0,0,2.17-2.377,2.981,2.981,0,0,0-.335-2.34A2.981,2.981,0,0,0,97.677,12.3ZM81.156,8.764h0a4.653,4.653,0,0,0-2.176.606c-4.09,2.179-8.245,4.417-11.819,6.344a4.009,4.009,0,0,0-.581.4l-.045.035,3.089,2.946,1.551,1.479,2.783-1.45c2.6-1.353,5.283-2.752,7.969-4.164a4.091,4.091,0,0,0,2.159-2.29,2.916,2.916,0,0,0-.274-2.262,2.918,2.918,0,0,0-2.656-1.642ZM65.77,4.365a5.766,5.766,0,0,0-2.473.7c-5.281,2.7-10.629,5.482-15.8,8.174l-3.321,1.728c-.243.126-.48.271-.754.439-.144.088-.292.179-.46.279.124.04.218.075.295.1a.843.843,0,0,0,.283.077c3.036.006,5.359.008,7.532.008,2.079,0,3.972,0,5.788-.007a2.223,2.223,0,0,0,1-.2q.936-.5,1.873-.993l.016-.009c2.544-1.346,5.173-2.737,7.708-4.193a3.035,3.035,0,0,0,1.4-3.578,3.061,3.061,0,0,0-2.908-2.52c-.056,0-.113,0-.171,0Z" transform="translate(55.16 95)" fill="url(#linear-gradient)"/>
  <path id="Fill_9" data-name="Fill 9" d="M0,16.98A16.994,16.994,0,0,1,29.368,5.335,16.857,16.857,0,0,1,32.293,24.3a4.249,4.249,0,0,1-2.06,1.927,2.191,2.191,0,0,1-2-.818A3.4,3.4,0,0,1,28.12,22.8a13.187,13.187,0,0,0,.941-8.924A12.464,12.464,0,1,0,21.337,28.68c.375-.139.735-.322,1.117-.44a2.244,2.244,0,1,1,1.707,4.15,16.426,16.426,0,0,1-10.99,1.149A17.035,17.035,0,0,1,0,16.98" transform="translate(55.16 34)" fill="url(#linear-gradient)"/>
</svg>
