<svg id="shoplifter2" xmlns="http://www.w3.org/2000/svg" xmlns:xlink="http://www.w3.org/1999/xlink" width="190" height="190" viewBox="0 0 190 190">
  <defs>
    <linearGradient id="linear-gradient" x1="1" y1="-0.364" x2="0.5" y2="1" gradientUnits="objectBoundingBox">
      <stop offset="0" stop-color="#64a0e3"/>
      <stop offset="1" stop-color="#3467c3"/>
    </linearGradient>
  </defs>
  <rect id="Rectangle" width="190" height="190" fill="none"/>
  <path id="Fill_1" data-name="Fill 1" d="M0,6.539C.519,4.94.958,3.31,1.578,1.749A2.3,2.3,0,0,1,4.746.213c1.2.525,1.61,1.739.917,3.227-1.212,2.6-1.248,5.344-1.2,8.111.021,1.113-.025,2.228.011,3.341.039,1.221-.063,2.383-1.4,2.928S.843,17.591,0,16.729Z" transform="translate(19 131)" fill="url(#linear-gradient)"/>
  <path id="Fill_3" data-name="Fill 3" d="M71.055,114a1.936,1.936,0,0,1-2.015-1.534,6.558,6.558,0,0,1-.165-1.756c-.008-6.556-.007-13.219-.007-19.663V84l-1.742.524-.011,0c-1.09.329-2.119.64-3.159.946A7,7,0,0,1,62,85.8c-1.388,0-2.464-.641-3.6-2.143-.793-1.05-1.585-2.105-2.423-3.223l-.014-.019-1.073-1.431c-1.159.84-2.343,1.667-3.488,2.466-2.58,1.8-5.248,3.665-7.666,5.713-2.95,2.5-4.465,6.112-4.5,10.742-.02,2.342-.016,4.722-.013,7.024,0,1.831.005,3.719,0,5.575-.008,1.634-.789,2.572-2.143,2.572h-.05a1.955,1.955,0,0,1-2.161-1.987c.071-5.237.222-10.829.475-17.6a6.947,6.947,0,0,1,.448-1.888c.115-.347.234-.7.342-1.1l-7.4-2.759-.014-.005-.193-.072c-1.715,3.121-4.031,4.638-7.078,4.638-3.086,0-5.411-1.524-7.108-4.658-.751.288-1.523.58-2.2.838-1.7.644-3.459,1.309-5.173,2a3.814,3.814,0,0,1-1.419.308,1.949,1.949,0,0,1-1.979-1.471,2.075,2.075,0,0,1,1.343-2.755c1.208-.5,2.45-.973,3.652-1.431l.008,0h0c1.194-.456,2.429-.927,3.63-1.422.3-.125,1.307-.582,1.547-1.218a1.918,1.918,0,0,0-.861-2.271,13.584,13.584,0,0,1-4.846-8.3l-.341-.018c-.354-.019-.686-.037-1.019-.054A6.965,6.965,0,0,1,.919,68.279,7.172,7.172,0,0,1,.895,61.3a5.3,5.3,0,0,0,.554-2.742,34.814,34.814,0,0,0-.46-3.533C.9,54.5.813,53.964.736,53.43a13.575,13.575,0,0,1,9.745-15.152A35.065,35.065,0,0,0,14.054,36.9c.584-.25,1.188-.507,1.787-.744a19.731,19.731,0,0,1,7.271-1.407,19.107,19.107,0,0,1,13.772,5.885,19.227,19.227,0,0,1,5.31,14.245c-.007.162-.012.325-.018.487v.009a21.378,21.378,0,0,1-.15,2.165A6.462,6.462,0,0,0,42.7,61.76a6.594,6.594,0,0,1,.787,3.355,6.889,6.889,0,0,1-.9,3.153,7.053,7.053,0,0,1-5.807,3.584L36,71.889l-.4.019c-.146.394-.272.805-.394,1.2A9.029,9.029,0,0,1,34.165,75.6,38.043,38.043,0,0,1,31.6,78.8c-.566.657-1.15,1.334-1.693,2.024a3.373,3.373,0,0,0-.781,1.837c-.01.307.7.771,1.216.967,1.923.735,3.821,1.42,5.831,2.145l.027.01q1.05.379,2.114.765c2.372-3.236,5.707-5.439,8.932-7.57,1.453-.96,2.954-1.952,4.353-3.028a4.8,4.8,0,0,0,1.068-1.381c.1-.172.21-.35.319-.517.178-.271.336-.568.489-.855a5.6,5.6,0,0,1,.985-1.462c.846-.8,1.77-1.549,2.663-2.271.579-.468,1.177-.953,1.75-1.447a1.952,1.952,0,0,0,.583-1.058,3.986,3.986,0,0,0,.03-.892,5.022,5.022,0,0,1,.006-.732,3.382,3.382,0,0,0-1.417-3.269,18.319,18.319,0,0,1-4.284-5.147,21.4,21.4,0,0,1-2.277-6.393l-.458-.088c-.317-.062-.645-.126-.967-.178a7.678,7.678,0,0,1-5.859-4.52,7.573,7.573,0,0,1,.716-7.306,2.148,2.148,0,0,0,.292-2.141,31.016,31.016,0,0,1-1.507-12.4,31.26,31.26,0,0,1,3.673-11.949A2.406,2.406,0,0,1,49.533,10.4a2.822,2.822,0,0,1,.761.113,1.873,1.873,0,0,1,1.278,1.08,3.064,3.064,0,0,1-.332,2.594,24.9,24.9,0,0,0-3.13,13.379,33.3,33.3,0,0,0,.607,4.3c.112.6.227,1.223.326,1.835.155.964.551,1.433,1.21,1.433a2.369,2.369,0,0,0,.9-.215c.039-.315.071-.63.1-.964a21.564,21.564,0,0,1,.294-2.167A13.172,13.172,0,0,1,64.262,21.172c1.074-.022,2.229-.032,3.744-.032l1.814,0h.011l1.775,0c1.19,0,2.151-.006,3.024-.018a3.224,3.224,0,0,0,1.753-.517c1.719-1.245,2.662-1.894,3.642-1.894,1.027,0,2.1.714,4.074,2.081-.043-.474-.07-.92-.1-1.351a16.959,16.959,0,0,0-.26-2.419c-1.6-7.649-8-12.591-16.3-12.591-.141,0-.285,0-.427,0A18.11,18.11,0,0,0,57.9,7.095c-.074.045-.147.091-.22.138-.133.085-.27.172-.413.247a2.816,2.816,0,0,1-1.317.351,2.05,2.05,0,0,1-1.8-1.024,2.181,2.181,0,0,1,.8-3.085A22.107,22.107,0,0,1,67.4,0a21.149,21.149,0,0,1,17.41,8.486A3.722,3.722,0,0,0,86.87,9.86a14.976,14.976,0,0,1,8.978,5.994A14.724,14.724,0,0,1,98.54,26.283c-.2,1.6-.431,3.226-.651,4.8-.264,1.893-.536,3.845-.772,5.769a3.076,3.076,0,0,0,.341,1.778,7.885,7.885,0,0,1,.4,7.431,7.761,7.761,0,0,1-5.992,4.213c-.98.146-1.248.586-1.45,1.457a18.459,18.459,0,0,1-6.252,10.325A3.855,3.855,0,0,0,82.688,65.3c-.042,1.54.22,2.67,1.654,3.542A19.1,19.1,0,0,1,87.736,71.7a4.48,4.48,0,0,1,1.4,2.176,2.955,2.955,0,0,0,1.538,2.156c.84.565,1.685,1.153,2.5,1.722l0,0h0c1.134.789,2.306,1.6,3.481,2.372,3.164,2.067,6.365,4.5,8.338,8.287q1.19-.478,2.361-.945c1.99-.8,3.869-1.546,5.778-2.336a1.351,1.351,0,0,0,.779-1.1,1.845,1.845,0,0,0-.588-1.678c-.265-.22-.53-.45-.786-.673a21.015,21.015,0,0,0-1.722-1.393,2.635,2.635,0,0,0-1.449-.388h-.141c-7.366,0-12.952-5.016-13.584-12.2A16.85,16.85,0,0,1,96.4,62.3l0-.013q.081-.326.161-.648a12.568,12.568,0,0,1,.922-2.335c.25-.527.508-1.073.707-1.627.19-.53.388-1.069.578-1.59.758-2.07,1.54-4.207,2.1-6.364a21.613,21.613,0,0,1,2.859-6.441,21.251,21.251,0,0,1,4.623-5.036,20.818,20.818,0,0,1,5.954-3.28,20.536,20.536,0,0,1,6.85-1.171c.123,0,.244,0,.368,0a20.85,20.85,0,0,1,13.01,4.747,21.64,21.64,0,0,1,7.3,11.811,53.443,53.443,0,0,0,2.952,8.209c.316.749.644,1.524.954,2.287a13.887,13.887,0,0,1,.67,9.68,13.165,13.165,0,0,1-12.574,9.332l-.251,0h-.122a2.942,2.942,0,0,0-2.456,1.035,6.612,6.612,0,0,1-1.733,1.373c-.92.509-1.251,1.162-.955,1.886a2.707,2.707,0,0,0,1.363,1.24c1.016.448,2.067.861,3.082,1.26.97.381,1.972.775,2.941,1.2a15.637,15.637,0,0,1,6.773,5.335,16.072,16.072,0,0,1,2.674,8.2,37.972,37.972,0,0,1,.016,4,2.2,2.2,0,0,1-2.223,2.4h-.033c-1.338-.016-2.106-.889-2.164-2.458-.019-.536-.024-1.084-.029-1.613a26.909,26.909,0,0,0-.19-3.558,9.864,9.864,0,0,0-5.952-7.936c-1.539-.715-3.086-1.326-4.725-1.973-.712-.281-1.448-.572-2.181-.871a7.677,7.677,0,0,1-6.6,4.1,7.6,7.6,0,0,1-6.566-4.069l-1.113.433-.038.015c-.9.351-1.84.715-2.761,1.087-.9.366-1.813.751-2.545,1.06l-.831.35q.022,2.606.046,5.151v.008c.042,4.531.081,8.81.1,13.16a2.512,2.512,0,0,1-.641,1.831,2.1,2.1,0,0,1-1.533.579h-.03a2.2,2.2,0,0,1-2.2-2.453c-.043-4.276-.073-8.131,0-12.007a15.121,15.121,0,0,0-7.233-13.743c-1.915-1.275-3.779-2.568-5.753-3.936-.878-.609-1.786-1.239-2.712-1.876L86.271,80.4c-.779,1.042-1.516,2.026-2.283,3.045-1.279,1.7-2.332,2.36-3.757,2.36a7.9,7.9,0,0,1-2.276-.409l-3.119-.949-1.531-.466v1.788q0,12.451,0,24.9c0,.109,0,.219,0,.329a7,7,0,0,1-.048,1.151,1.994,1.994,0,0,1-1.982,1.845C71.2,114,71.127,114,71.055,114ZM118.4,84.66h0c-.169,1.446-.362,3.084,1.219,3.891a3.366,3.366,0,0,0,1.475.309,3.255,3.255,0,0,0,1.38-.275c1.6-.772,1.436-2.447,1.292-3.925Zm-100-1.355c-.361,1.987.081,3.325,1.352,4.091a3.243,3.243,0,0,0,1.681.506,3.165,3.165,0,0,0,1.786-.593C24.4,86.5,24.8,85.12,24.371,83.3H18.394ZM61.247,72.363a1.894,1.894,0,0,0-1.014.28,20.981,20.981,0,0,0-1.962,1.619c-.263.235-.534.478-.814.719q.527.705,1.044,1.4l.022.029c1.13,1.524,2.2,2.963,3.334,4.394a1.272,1.272,0,0,0,.9.293,1.371,1.371,0,0,0,.333-.037,45.813,45.813,0,0,0,4.52-1.372c.475-.175,1.212-.751,1.189-1.105a4.36,4.36,0,0,1,.076-.908c.126-.83.257-1.689-.862-2.217-.832-.393-1.672-.807-2.484-1.208-1.23-.607-2.5-1.234-3.772-1.8a1.264,1.264,0,0,0-.506-.091Zm19.767-.108a.561.561,0,0,0-.235.044q-.567.262-1.138.522a46.1,46.1,0,0,0-5.69,2.922c-.509.324-.545,1.505-.574,2.455,0,.15-.009.3-.015.431-.013.31.55.815.979.966,1.605.565,3.217,1.051,4.789,1.445a1.165,1.165,0,0,0,.282.031,1.473,1.473,0,0,0,1.034-.371c1.1-1.375,2.13-2.769,3.222-4.244.358-.484.727-.983,1.1-1.486-.3-.252-.578-.5-.852-.733l-.009-.007c-.681-.59-1.324-1.148-1.994-1.655A1.706,1.706,0,0,0,81.014,72.255Zm32-19.5c-.195.595-.415,1.153-.629,1.692a10.328,10.328,0,0,0-.893,3.163c-.18,3.626-.178,7.322-.176,10.9v.017c0,.935,0,1.9,0,2.852a5.871,5.871,0,0,0,.327,1.646l.027.089a10,10,0,0,0,9.451,7.211c.2,0,.4-.007.6-.02,4.988-.331,8.648-3.755,9.551-8.936.257-1.47,1.006-2.246,2.166-2.246a3,3,0,0,1,.386.026,2.046,2.046,0,0,1,1.417.8,2.721,2.721,0,0,1,.4,2.076c-.123.756-.285,1.487-.457,2.262-.074.335-.151.678-.222,1.02a8.694,8.694,0,0,0,7.326-6.511,9.751,9.751,0,0,0-.7-6.345c-.371-.923-.774-1.857-1.163-2.761a43.409,43.409,0,0,1-2.768-7.727c-1.768-8.085-8.5-13.732-16.364-13.732H121.2a16.711,16.711,0,0,0-16.269,13.892,18.846,18.846,0,0,1-1.09,3.672c-.465,1.159-.977,2.322-1.472,3.447-.6,1.362-1.22,2.77-1.761,4.182a8.842,8.842,0,0,0,.231,6.952,8.736,8.736,0,0,0,5.094,4.614,10.121,10.121,0,0,0,1.1.288h.006c.186.042.377.085.577.134-.082-.39-.173-.748-.262-1.093a8.242,8.242,0,0,1-.341-1.91L107,71.373c-.059-4.515-.121-9.183,0-13.77a13.647,13.647,0,0,1,2.741-7.406c1.017-1.5,2-2.191,3.091-2.191a4.855,4.855,0,0,1,2.833,1.239,12.694,12.694,0,0,0,7.645,2.8c2.394.062,4.951.137,8.292.241,2.641.083,4.118,1.565,4.159,4.172.028,1.785.015,3.552,0,4.892-.019,1.671-.862,2.709-2.2,2.709h-.069c-1.315-.035-2.144-1.056-2.164-2.664-.014-1.052-.011-2.086-.007-3.179q0-.715,0-1.447c-1.2-.07-2.427-.094-3.612-.116a42.4,42.4,0,0,1-7.558-.6A15.979,15.979,0,0,1,113.015,52.753ZM13.1,55.1c-.069.315-.162.651-.26,1.007a11.655,11.655,0,0,0-.514,2.695c-.105,3.406-.2,7.366-.007,11.255A9.34,9.34,0,0,0,21.8,79.013c.121,0,.242,0,.363-.006a9.357,9.357,0,0,0,9.016-9.5c.018-1.555.014-3.134.01-4.662q0-1.076,0-2.153V59.027c-1-.07-1.988-.107-2.947-.142A35.577,35.577,0,0,1,22,58.293a37.244,37.244,0,0,1-6.017-2.061c-.929-.377-1.888-.766-2.883-1.134h0ZM64.135,65.8c-.507,2.49-.451,2.624,1.522,3.585.532.259,1.073.581,1.6.892a8.1,8.1,0,0,0,3.715,1.487h.041a8.232,8.232,0,0,0,3.756-1.438c.5-.288,1.023-.585,1.53-.827,2.128-1.013,2.128-1.013,1.9-3.762l0-.024a19.938,19.938,0,0,1-7.053,1.315A21.453,21.453,0,0,1,64.135,65.8ZM7.254,62.312c-1.757,0-2.773.9-2.787,2.476a2.391,2.391,0,0,0,.64,1.776,3.277,3.277,0,0,0,2.41.794c.071,0,.145,0,.22,0V62.333C7.575,62.319,7.413,62.312,7.254,62.312Zm28.635-.032-.188,0V67.34c.109.006.222.01.337.01,1.862,0,2.983-.937,3-2.506a2.34,2.34,0,0,0-.645-1.717A3.438,3.438,0,0,0,35.889,62.28Zm32.228-36.7c-1.363,0-2.574.008-3.7.025a8.7,8.7,0,0,0-8.676,8.517c-.092,5.32-.086,9.695.019,13.769A15.382,15.382,0,0,0,70.4,62.587c.266.015.536.022.8.022,7.617,0,14.223-5.714,15.039-13.01a71.4,71.4,0,0,0,.282-8.138c-.006-1.646-.012-3.347.054-5.015.221-5.544-1.959-9.816-6.663-13.059-1.424,2.073-3.457,2.247-5.251,2.247-.353,0-.714-.008-1.062-.016-.3-.007-.6-.014-.9-.016C71.287,25.593,69.685,25.582,68.117,25.582ZM23.108,39.2a15.523,15.523,0,0,0-5.785,1.137c-1.08.432-2.187.85-3.257,1.253s-2.147.81-3.215,1.237a8.816,8.816,0,0,0-5.468,6,13.989,13.989,0,0,0,.088,6.316c.14.827.284,1.683.361,2.523a3.9,3.9,0,0,0,.934.138c.836,0,1.266-.476,1.483-1.643a14.279,14.279,0,0,1,1.739-4.357c.833-1.478,1.772-2.2,2.872-2.2a4.531,4.531,0,0,1,2.605,1.072,16.927,16.927,0,0,0,8.511,3.5c1.835.178,3.718.18,5.54.182h.006c.652,0,1.327,0,1.989.01,1.933.026,3.177.761,3.7,2.184.315.861.743,1.228,1.431,1.228a3.628,3.628,0,0,0,.916-.145c.021-.286.044-.575.067-.865.049-.618.1-1.253.131-1.883a14.9,14.9,0,0,0-4.027-11.146A14.714,14.714,0,0,0,23.108,39.2ZM91.27,39.7c-.073,0-.148,0-.222.007v6.139c2.083-.308,3.275-1.608,3.111-3.391A2.85,2.85,0,0,0,91.27,39.7ZM51.212,39.6a3.49,3.49,0,0,0-2.467,1.134,2.988,2.988,0,0,0-.678,2.235,2.842,2.842,0,0,0,2.945,2.736c.066,0,.133,0,.2-.005ZM88.36,15.191c0,.684.024,1.4.048,2.084a27.588,27.588,0,0,1-.129,4.956,9.313,9.313,0,0,0,.949,5.28,35.9,35.9,0,0,1,1.593,5.19c.2.773.4,1.57.621,2.362l.907.042.545.025c.141-1.108.3-2.222.46-3.3.349-2.4.711-4.88.837-7.318A9.828,9.828,0,0,0,88.36,15.191Z" transform="translate(24 38)" fill="url(#linear-gradient)"/>
  <path id="Fill_6" data-name="Fill 6" d="M3.99,8.043c0,1.82.025,3.64-.007,5.46-.028,1.6-.831,2.533-2.059,2.5-1.186-.035-1.9-.924-1.91-2.482Q-.014,7.984.016,2.45C.024.966.834,0,1.977,0s1.971.953,2,2.435c.039,1.868.01,3.738.01,5.607" transform="translate(71 133)" fill="url(#linear-gradient)"/>
  <path id="Fill_8" data-name="Fill 8" d="M.005,7.962c0-1.77-.012-3.541,0-5.312C.023,1.015.746.035,1.924,0,3.158-.035,3.973.982,3.983,2.679q.032,5.386,0,10.771c-.013,1.626-.8,2.558-2.017,2.55S.025,15.085.009,13.421c-.018-1.819,0-3.64,0-5.46" transform="translate(114 133)" fill="url(#linear-gradient)"/>
</svg>
