<svg width="33" height="32" viewBox="0 0 33 32" fill="none" xmlns="http://www.w3.org/2000/svg">
<path d="M16.5 28C23.1274 28 28.5 22.6274 28.5 16C28.5 9.37258 23.1274 4 16.5 4C9.87258 4 4.5 9.37258 4.5 16C4.5 22.6274 9.87258 28 16.5 28Z" stroke="white" stroke-width="2" stroke-linecap="round" stroke-linejoin="round"/>
<path d="M15.8334 16C16.9379 16 17.8334 15.1046 17.8334 14C17.8334 12.8954 16.9379 12 15.8334 12C14.7288 12 13.8334 12.8954 13.8334 14C13.8334 15.1046 14.7288 16 15.8334 16Z" stroke="white" stroke-width="2" stroke-linecap="round" stroke-linejoin="round"/>
<path d="M15.8334 20C16.9379 20 17.8334 19.1046 17.8334 18C17.8334 16.8954 16.9379 16 15.8334 16C14.7288 16 13.8334 16.8954 13.8334 18C13.8334 19.1046 14.7288 20 15.8334 20Z" stroke="white" stroke-width="2" stroke-linecap="round" stroke-linejoin="round"/>
<path d="M9.83337 20V12M21.1667 16H25.1667M23.1667 14V18" stroke="white" stroke-width="2" stroke-linecap="round" stroke-linejoin="round"/>
</svg>
