<svg width="32" height="32" viewBox="0 0 32 32" fill="none" xmlns="http://www.w3.org/2000/svg">
<g clip-path="url(#clip0_16_2784)">
<path d="M29.3333 16C29.3333 8.63596 23.364 2.66663 16 2.66663C8.63596 2.66663 2.66663 8.63596 2.66663 16C2.66663 23.364 8.63596 29.3333 16 29.3333C23.364 29.3333 29.3333 23.364 29.3333 16ZM9.99996 11.6586C10.4626 11.1493 11.22 10.6666 12.3333 10.6666C13.8693 10.6666 14.8586 11.7226 15.2066 12.8813C15.544 14.0106 15.34 15.408 14.38 16.372C14.047 16.6921 13.6938 16.9905 13.3226 17.2653L13.2693 17.3066C12.896 17.5946 12.5626 17.856 12.2693 18.1466C11.9293 18.488 11.6506 18.86 11.4893 19.3333H14.3333C14.5985 19.3333 14.8529 19.4387 15.0404 19.6262C15.2279 19.8137 15.3333 20.0681 15.3333 20.3333C15.3333 20.5985 15.2279 20.8529 15.0404 21.0404C14.8529 21.2279 14.5985 21.3333 14.3333 21.3333H10.3333C10.0681 21.3333 9.81372 21.2279 9.62619 21.0404C9.43865 20.8529 9.33329 20.5985 9.33329 20.3333C9.33329 18.6706 10.032 17.556 10.8586 16.732C11.2533 16.3373 11.6826 16.0053 12.0453 15.724L12.0493 15.7213C12.4306 15.4266 12.7266 15.1973 12.9626 14.9613C13.3253 14.596 13.452 13.9946 13.2906 13.4546C13.1373 12.9466 12.7973 12.6666 12.3333 12.6666C11.8626 12.6666 11.62 12.8493 11.48 13.004C11.398 13.0944 11.3314 13.1975 11.2826 13.3093V13.3133C11.2009 13.5658 11.0223 13.7755 10.786 13.8962C10.5497 14.017 10.2751 14.039 10.0226 13.9573C9.77014 13.8756 9.56044 13.697 9.43967 13.4607C9.3189 13.2244 9.29694 12.9498 9.37863 12.6973L9.42529 12.5693C9.56229 12.2349 9.75628 11.9267 9.99863 11.6586H9.99996ZM17.6666 10.6666C17.9318 10.6666 18.1862 10.772 18.3737 10.9595C18.5613 11.1471 18.6666 11.4014 18.6666 11.6666V15.3333H20.6666V11.6666C20.6666 11.4014 20.772 11.1471 20.9595 10.9595C21.1471 10.772 21.4014 10.6666 21.6666 10.6666C21.9318 10.6666 22.1862 10.772 22.3737 10.9595C22.5613 11.1471 22.6666 11.4014 22.6666 11.6666V20.2933C22.6666 20.5585 22.5613 20.8129 22.3737 21.0004C22.1862 21.1879 21.9318 21.2933 21.6666 21.2933C21.4014 21.2933 21.1471 21.1879 20.9595 21.0004C20.772 20.8129 20.6666 20.5585 20.6666 20.2933V17.3333H17.6666C17.4014 17.3333 17.1471 17.2279 16.9595 17.0404C16.772 16.8529 16.6666 16.5985 16.6666 16.3333V11.6666C16.6666 11.4014 16.772 11.1471 16.9595 10.9595C17.1471 10.772 17.4014 10.6666 17.6666 10.6666Z" fill="#F2C94C"/>
</g>
<defs>
<clipPath id="clip0_16_2784">
<rect width="32" height="32" fill="white"/>
</clipPath>
</defs>
</svg>
