<svg width="32" height="32" viewBox="0 0 32 32" fill="none" xmlns="http://www.w3.org/2000/svg">
<g clip-path="url(#clip0_16_2791)">
<path d="M23.1666 25.3333V29.3333H20.5V25.3333C20.5 23.8666 19.3 22.6666 17.8333 22.6666H13.8333C10.1 22.6666 7.16663 19.7333 7.16663 16C7.16663 14.4 7.69996 13.0666 8.63329 11.8666C5.56663 11.3333 3.16663 8.53329 3.16663 5.33329C3.16663 4.39996 3.43329 3.46663 3.69996 2.66663H6.89996C6.23329 3.33329 5.83329 4.26663 5.83329 5.33329C5.83329 7.59996 7.56663 9.33329 9.83329 9.33329H13.8333V12C11.5666 12 9.83329 13.7333 9.83329 16C9.83329 18.2666 11.5666 20 13.8333 20H17.8333C20.7666 20 23.1666 22.4 23.1666 25.3333ZM24.3666 11.8666C27.4333 11.3333 29.8333 8.53329 29.8333 5.33329C29.8333 4.39996 29.5666 3.46663 29.3 2.66663H26.1C26.7666 3.33329 27.1666 4.26663 27.1666 5.33329C27.1666 7.59996 25.4333 9.33329 23.1666 9.33329H21.5666C21.7 9.73329 21.8333 10.1333 21.8333 10.6666C21.8333 12.9333 20.1 14.6666 17.8333 14.6666V17.3333C21.5666 17.3333 24.5 20.2666 24.5 24V29.3333H27.1666V24C27.1666 20.4 25.1666 17.3333 22.1 15.7333C23.3 14.8 24.1 13.4666 24.3666 11.8666Z" fill="#F2C94C"/>
</g>
<defs>
<clipPath id="clip0_16_2791">
<rect width="31" height="32" fill="white" transform="translate(0.5)"/>
</clipPath>
</defs>
</svg>
