<svg width="32" height="32" viewBox="0 0 32 32" fill="none" xmlns="http://www.w3.org/2000/svg">
<g clip-path="url(#clip0_16_2805)">
<path d="M16 1.33337V2.66671L14.9733 1.81337L10.3466 7.33337L14.6666 10V6.88004L14.3733 6.66671L16 4.74671V30.6667H18.6666V17.6534L21.24 15.08C24.6666 15.6134 28.1733 13.8134 30.2133 11.7734L28.32 9.88004C26.8 11.4134 23.6 12.8134 21.3333 12.3467L18.6666 9.65337V1.33337M22.6666 5.33337C21.9594 5.33337 21.2811 5.61433 20.781 6.11442C20.2809 6.61452 20 7.2928 20 8.00004C20 8.70728 20.2809 9.38556 20.781 9.88566C21.2811 10.3858 21.9594 10.6667 22.6666 10.6667C23.3739 10.6667 24.0521 10.3858 24.5522 9.88566C25.0523 9.38556 25.3333 8.70728 25.3333 8.00004C25.3333 7.2928 25.0523 6.61452 24.5522 6.11442C24.0521 5.61433 23.3739 5.33337 22.6666 5.33337ZM14.6666 10.3467L9.46662 15.5467C6.99996 18 5.74662 19.8 4.07996 24.2134L6.58662 25.1467C7.91996 21.6 8.87996 20.1867 10.4933 18.4534L12.2933 20.2534L5.69329 26.8534L7.58662 28.7467L14.6666 21.6534V10.3467Z" fill="#F2C94C"/>
</g>
<defs>
<clipPath id="clip0_16_2805">
<rect width="32" height="32" fill="white"/>
</clipPath>
</defs>
</svg>
