<svg width="33" height="32" viewBox="0 0 33 32" fill="none" xmlns="http://www.w3.org/2000/svg">
<g clip-path="url(#clip0_16_2822)">
<path d="M1.5 15V22.5H23V15H1.5ZM21 20.5H3.5V17H21V20.5ZM24.5 15H26.5V22.5H24.5V15ZM28 15H30V22.5H28V15ZM24.5893 10.8313C24.3495 10.4695 24.234 10.0396 24.2601 9.60643C24.2863 9.17326 24.4527 8.76037 24.7342 8.43013C25.3162 7.75323 25.6541 6.90049 25.6935 6.00866C25.7329 5.11684 25.4717 4.23761 24.9517 3.512L24.5861 3H22.3L22.1863 3.08125L23.3242 4.67438C23.5837 5.03644 23.714 5.47516 23.6943 5.92017C23.6747 6.36518 23.5061 6.79068 23.2157 7.12844C22.6515 7.7903 22.318 8.61777 22.2656 9.48587C22.2132 10.354 22.4447 11.2156 22.9251 11.9405L23.2981 12.5H25.7019L24.5893 10.8313ZM29.0893 10.8313C28.8495 10.4695 28.734 10.0396 28.7601 9.60643C28.7863 9.17326 28.9527 8.76037 29.2342 8.43013C29.8162 7.75323 30.1541 6.90049 30.1935 6.00866C30.2329 5.11684 29.9717 4.23761 29.4517 3.512L29.0861 3H26.8L26.6863 3.08125L27.8242 4.67438C28.0837 5.03644 28.214 5.47516 28.1943 5.92017C28.1747 6.36518 28.0061 6.79068 27.7157 7.12844C27.1515 7.7903 26.818 8.61777 26.7656 9.48587C26.7132 10.354 26.9447 11.2156 27.4251 11.9405L27.7981 12.5H30.2019L29.0893 10.8313Z" fill="#F2C94C"/>
</g>
<defs>
<clipPath id="clip0_16_2822">
<rect width="32" height="32" fill="white" transform="translate(0.5)"/>
</clipPath>
</defs>
</svg>
