<svg width="33" height="32" viewBox="0 0 33 32" fill="none" xmlns="http://www.w3.org/2000/svg">
<g clip-path="url(#clip0_16_2706)">
<g clip-path="url(#clip1_16_2706)">
<path d="M16.3112 14.5488C15.4936 21.1328 11.3176 22.304 11.3176 26.8816C11.3176 29.7072 13.6904 32 16.5 32C19.3096 32 21.6808 29.7056 21.6808 26.8816C21.6808 22.304 17.5048 21.1328 16.6872 14.5488C16.6616 14.352 16.3368 14.352 16.3112 14.5488ZM6.71278 0.148821C5.89518 6.73282 1.71918 7.90242 1.71918 12.4816C1.71918 15.3056 4.09038 17.6 6.89998 17.6C9.70958 17.6 12.0808 15.3056 12.0808 12.4816C12.0808 7.90402 7.90478 6.73282 7.08718 0.148821C7.06318 -0.0479793 6.73678 -0.0479793 6.71278 0.148821ZM25.9128 0.148821C25.0952 6.73282 20.9192 7.90402 20.9192 12.4816C20.9192 15.3056 23.2904 17.6 26.1 17.6C28.9096 17.6 31.2808 15.3056 31.2808 12.4816C31.2808 7.90402 27.1048 6.73282 26.2872 0.148821C26.2616 -0.0479793 25.9368 -0.0479793 25.9128 0.148821Z" fill="#F2C94C"/>
</g>
</g>
<defs>
<clipPath id="clip0_16_2706">
<rect width="32" height="32" fill="white" transform="translate(0.5)"/>
</clipPath>
<clipPath id="clip1_16_2706">
<rect width="32" height="32" fill="white" transform="translate(0.5)"/>
</clipPath>
</defs>
</svg>
