<svg width="37" height="32" viewBox="0 0 37 32" fill="none" xmlns="http://www.w3.org/2000/svg">
<g clip-path="url(#clip0_16_2777)">
<g clip-path="url(#clip1_16_2777)">
<path d="M17.3438 4.36879C18.0375 3.87504 18.9625 3.87504 19.6563 4.36879C21.0625 5.33754 22.7813 6.00004 24.5 6.00004C26.1813 6.00004 27.9625 5.32504 29.3375 4.36879C30.0813 3.83754 31.0938 3.88129 31.7875 4.47504C32.6875 5.21879 33.8188 5.78754 34.95 6.05004C36.025 6.30004 36.6938 7.37504 36.4438 8.45004C36.1938 9.52504 35.1188 10.1938 34.0438 9.94379C32.5125 9.58754 31.2375 8.91254 30.4063 8.38129C28.5938 9.35629 26.5625 10 24.5 10C22.5063 10 20.7125 9.38129 19.475 8.81879C19.1125 8.65004 18.7813 8.48754 18.5 8.33754C18.2188 8.48754 17.8938 8.65629 17.525 8.81879C16.2875 9.38129 14.4938 10 12.5 10C10.4375 10 8.4063 9.35629 6.5938 8.38754C5.7563 8.91254 4.48755 9.59379 2.9563 9.95004C1.8813 10.2 0.806297 9.53129 0.556297 8.45629C0.306297 7.38129 0.975047 6.30629 2.05005 6.05629C3.17505 5.78754 4.31255 5.21879 5.2063 4.47504C5.90005 3.88129 6.91255 3.84379 7.6563 4.36879C9.0438 5.32504 10.8188 6.00004 12.5 6.00004C14.2188 6.00004 15.9375 5.33754 17.3438 4.36879ZM19.6563 22.3688C21.0625 23.3375 22.7813 24 24.5 24C26.1813 24 27.9625 23.325 29.3375 22.3688C30.0813 21.8375 31.0938 21.8813 31.7875 22.475C32.6875 23.2188 33.8188 23.7875 34.95 24.05C36.025 24.3 36.6938 25.375 36.4438 26.45C36.1938 27.525 35.1188 28.1938 34.0438 27.9438C32.5125 27.5875 31.2375 26.9125 30.4063 26.3813C28.5938 27.3563 26.5625 28 24.5 28C22.5063 28 20.7125 27.3813 19.475 26.8188C19.1125 26.65 18.7813 26.4875 18.5 26.3375C18.2188 26.4875 17.8938 26.6563 17.525 26.8188C16.2875 27.3813 14.4938 28 12.5 28C10.4375 28 8.4063 27.3563 6.5938 26.3875C5.7563 26.9125 4.48755 27.5938 2.9563 27.95C1.8813 28.2 0.806297 27.5313 0.556297 26.4563C0.306297 25.3813 0.975047 24.3063 2.05005 24.0563C3.1813 23.7938 4.31255 23.225 5.21255 22.4813C5.9063 21.8938 6.9188 21.85 7.66255 22.375C9.0438 23.325 10.8188 24 12.5 24C14.2188 24 15.9375 23.3375 17.3438 22.3688C18.0375 21.875 18.9625 21.875 19.6563 22.3688ZM19.6563 13.3688C21.0625 14.3375 22.7813 15 24.5 15C26.1813 15 27.9625 14.325 29.3375 13.3688C30.0813 12.8375 31.0938 12.8813 31.7875 13.475C32.6875 14.2188 33.8188 14.7875 34.95 15.05C36.025 15.3 36.6938 16.375 36.4438 17.45C36.1938 18.525 35.1188 19.1938 34.0438 18.9438C32.5125 18.5875 31.2375 17.9125 30.4063 17.3813C28.5938 18.3563 26.5625 19 24.5 19C22.5063 19 20.7125 18.3813 19.475 17.8188C19.1125 17.65 18.7813 17.4875 18.5 17.3375C18.2188 17.4875 17.8938 17.6563 17.525 17.8188C16.2875 18.3813 14.4938 19 12.5 19C10.4375 19 8.4063 18.3563 6.5938 17.3875C5.7563 17.9125 4.48755 18.5938 2.9563 18.95C1.8813 19.2 0.806297 18.5313 0.556297 17.4563C0.306297 16.3813 0.975047 15.3063 2.05005 15.0563C3.1813 14.7938 4.31255 14.225 5.21255 13.4813C5.9063 12.8875 6.9188 12.85 7.66255 13.375C9.0438 14.325 10.8188 15 12.5 15C14.2188 15 15.9375 14.3375 17.3438 13.3688C18.0375 12.875 18.9625 12.875 19.6563 13.3688Z" fill="#F2C94C"/>
</g>
</g>
<defs>
<clipPath id="clip0_16_2777">
<rect width="36" height="32" fill="white" transform="translate(0.5)"/>
</clipPath>
<clipPath id="clip1_16_2777">
<rect width="36" height="32" fill="white" transform="translate(0.5)"/>
</clipPath>
</defs>
</svg>
