<svg width="32" height="32" viewBox="0 0 32 32" fill="none" xmlns="http://www.w3.org/2000/svg">
<g clip-path="url(#clip0_16_2815)">
<path d="M0 8C0 6.93913 0.421427 5.92172 1.17157 5.17157C1.92172 4.42143 2.93913 4 4 4H28C29.0609 4 30.0783 4.42143 30.8284 5.17157C31.5786 5.92172 32 6.93913 32 8V18H0V8ZM23 10C22.7348 10 22.4804 10.1054 22.2929 10.2929C22.1054 10.4804 22 10.7348 22 11V13C22 13.2652 22.1054 13.5196 22.2929 13.7071C22.4804 13.8946 22.7348 14 23 14H27C27.2652 14 27.5196 13.8946 27.7071 13.7071C27.8946 13.5196 28 13.2652 28 13V11C28 10.7348 27.8946 10.4804 27.7071 10.2929C27.5196 10.1054 27.2652 10 27 10H23ZM0 22V24C0 25.0609 0.421427 26.0783 1.17157 26.8284C1.92172 27.5786 2.93913 28 4 28H28C29.0609 28 30.0783 27.5786 30.8284 26.8284C31.5786 26.0783 32 25.0609 32 24V22H0Z" fill="#F2C94C"/>
</g>
<defs>
<clipPath id="clip0_16_2815">
<rect width="32" height="32" fill="white"/>
</clipPath>
</defs>
</svg>
