<svg width="13" height="13" viewBox="0 0 13 13" fill="none" xmlns="http://www.w3.org/2000/svg">
<path d="M11.2468 6.22451C11.2925 6.07217 11.3153 5.91475 11.3153 5.75479C11.3153 5.39551 11.1973 5.0502 10.984 4.76836C11.0297 4.61602 11.0525 4.45859 11.0525 4.29863C11.0525 3.93936 10.9345 3.59404 10.7212 3.31221C10.7669 3.15986 10.7897 3.00244 10.7897 2.84248C10.7897 2.1874 10.4 1.59707 9.7957 1.33936C9.68948 1.29356 9.57495 1.27022 9.45928 1.2708H3.46582V6.70439H3.46963L4.55889 10.6501C4.73408 11.2861 5.31807 11.7305 5.97822 11.7305C6.35527 11.7305 6.70693 11.5807 6.96719 11.3064C7.22744 11.0335 7.36074 10.6755 7.3417 10.2984L7.26553 8.73818H10.3111C10.4647 8.73818 10.6146 8.69756 10.7466 8.62012C11.2595 8.32178 11.5781 7.78096 11.5781 7.21094C11.5781 6.85166 11.4601 6.50635 11.2468 6.22451V6.22451ZM1.42188 1.67578V6.29688C1.42188 6.52158 1.60342 6.70312 1.82812 6.70312H2.65332V1.26953H1.82812C1.60342 1.26953 1.42188 1.45107 1.42188 1.67578Z" fill="#F2C94C"/>
</svg>
