<svg width="12" height="11" viewBox="0 0 12 11" fill="none" xmlns="http://www.w3.org/2000/svg">
<path d="M5.99998 10.8468L5.2315 10.1551C4.20736 9.2435 3.36243 8.46249 2.69671 7.81201C2.031 7.16154 1.5059 6.58285 1.12141 6.07594C0.737421 5.56903 0.471184 5.10563 0.322701 4.68575C0.174217 4.26587 0.0999756 3.83566 0.0999756 3.39513C0.0999756 2.48358 0.41243 1.71535 1.03734 1.09044C1.66225 0.46553 2.43048 0.153076 3.34203 0.153076C3.84402 0.153076 4.33052 0.260751 4.80154 0.476101C5.27255 0.690959 5.67203 0.993088 5.99998 1.38249C6.32792 0.993088 6.7274 0.690959 7.19841 0.476101C7.66943 0.260751 8.15593 0.153076 8.65793 0.153076C9.56948 0.153076 10.3377 0.46553 10.9626 1.09044C11.5875 1.71535 11.9 2.48358 11.9 3.39513C11.9 3.83566 11.8282 4.2607 11.6846 4.67026C11.5416 5.07982 11.2778 5.5356 10.8933 6.03759C10.5093 6.53958 9.98198 7.12098 9.31135 7.78178C8.64023 8.44258 7.78227 9.24399 6.73748 10.186L5.99998 10.8468Z" fill="#F2C94C"/>
</svg>
