<svg width="24" height="24" viewBox="0 0 24 24" fill="none" xmlns="http://www.w3.org/2000/svg">
<path d="M22.29 19.38L16.9425 14.0325C16.8277 13.919 16.6783 13.8471 16.518 13.828C16.3577 13.809 16.1957 13.844 16.0575 13.9275C15.0929 14.5111 14.3732 15.4253 14.0325 16.5C13.86 17.04 13.23 17.2875 12.7425 16.995L12.735 16.9875L12.7275 16.98C10.3851 15.5751 8.42486 13.6149 7.02 11.2725C7.02 11.265 7.0125 11.2575 7.0125 11.2575C6.7125 10.77 6.96 10.14 7.5 9.96751C8.57693 9.63104 9.49253 8.9103 10.0725 7.94251C10.245 7.65751 10.2 7.29751 9.9675 7.05751L4.62 1.71001C4.50521 1.59652 4.35583 1.52456 4.19553 1.50554C4.03523 1.48652 3.87316 1.52153 3.735 1.60501C3.08109 1.99733 2.5351 2.54621 2.14624 3.20217C1.75737 3.85813 1.53786 4.60056 1.5075 5.36251V5.37001C1.5 5.44501 1.5 5.52001 1.5 5.59501C1.5 5.70001 1.5075 5.79751 1.515 5.89501C1.60425 8.86489 2.45383 11.7622 3.9825 14.31C5.385 16.65 7.35 18.615 9.69 20.0175L9.6975 20.025C12.2775 21.5775 15.2175 22.425 18.225 22.4925C18.285 22.4925 18.345 22.5 18.405 22.5H18.825V22.485C19.5541 22.4233 20.2583 22.1899 20.88 21.8041C21.5018 21.4183 22.0235 20.8909 22.4025 20.265C22.5675 19.98 22.5225 19.6125 22.29 19.38Z" fill="white"/>
</svg>
