<svg width="57" height="57" viewBox="0 0 57 57" fill="none" xmlns="http://www.w3.org/2000/svg">
<path d="M28.3333 5C15.6843 5 5 15.6843 5 28.3333C5 40.9823 15.6843 51.6667 28.3333 51.6667C40.9823 51.6667 51.6667 40.9823 51.6667 28.3333C51.6667 15.6843 40.9823 5 28.3333 5ZM28.3333 16.6667C32.363 16.6667 35.3333 19.6347 35.3333 23.6667C35.3333 27.6987 32.363 30.6667 28.3333 30.6667C24.306 30.6667 21.3333 27.6987 21.3333 23.6667C21.3333 19.6347 24.306 16.6667 28.3333 16.6667ZM16.4193 39.468C18.5123 36.388 22.003 34.3347 26 34.3347H30.6667C34.666 34.3347 38.1543 36.388 40.2473 39.468C37.2653 42.66 33.035 44.6667 28.3333 44.6667C23.6317 44.6667 19.4013 42.66 16.4193 39.468Z" fill="#828282"/>
</svg>
