<svg width="25" height="24" viewBox="0 0 25 24" fill="none" xmlns="http://www.w3.org/2000/svg">
<g clip-path="url(#clip0_15_3317)">
<path d="M18.5 0H6.5C5.70435 0 4.94129 0.316071 4.37868 0.87868C3.81607 1.44129 3.5 2.20435 3.5 3V21C3.5 21.7956 3.81607 22.5587 4.37868 23.1213C4.94129 23.6839 5.70435 24 6.5 24H18.5C19.2956 24 20.0587 23.6839 20.6213 23.1213C21.1839 22.5587 21.5 21.7956 21.5 21V3C21.5 2.20435 21.1839 1.44129 20.6213 0.87868C20.0587 0.316071 19.2956 0 18.5 0V0ZM17 10.5C17 11.6935 16.5259 12.8381 15.682 13.682C14.8381 14.5259 13.6935 15 12.5 15C11.3065 15 10.1619 14.5259 9.31802 13.682C8.47411 12.8381 8 11.6935 8 10.5C8 9.30653 8.47411 8.16193 9.31802 7.31802C10.1619 6.47411 11.3065 6 12.5 6C13.6935 6 14.8381 6.47411 15.682 7.31802C16.5259 8.16193 17 9.30653 17 10.5ZM12.5 16.5C16.4345 16.5 18.719 17.739 20 19.1325V21C20 21.3978 19.842 21.7794 19.5607 22.0607C19.2794 22.342 18.8978 22.5 18.5 22.5H6.5C6.10218 22.5 5.72064 22.342 5.43934 22.0607C5.15804 21.7794 5 21.3978 5 21V19.1325C6.281 17.7375 8.5655 16.5 12.5 16.5Z" fill="white"/>
</g>
<defs>
<clipPath id="clip0_15_3317">
<rect width="24" height="24" fill="white" transform="translate(0.5)"/>
</clipPath>
</defs>
</svg>
