<svg width="24" height="24" viewBox="0 0 24 24" fill="none" xmlns="http://www.w3.org/2000/svg">
<path d="M23 12L20.56 9.21L20.9 5.52L17.29 4.7L15.4 1.5L12 2.96L8.6 1.5L6.71 4.69L3.1 5.5L3.44 9.2L1 12L3.44 14.79L3.1 18.49L6.71 19.31L8.6 22.5L12 21.03L15.4 22.49L17.29 19.3L20.9 18.48L20.56 14.79L23 12ZM9.38 16.01L7 13.61C6.9073 13.5175 6.83375 13.4076 6.78357 13.2866C6.73339 13.1657 6.70755 13.036 6.70755 12.905C6.70755 12.774 6.73339 12.6443 6.78357 12.5234C6.83375 12.4024 6.9073 12.2925 7 12.2L7.07 12.13C7.46 11.74 8.1 11.74 8.49 12.13L10.1 13.75L15.25 8.59C15.64 8.2 16.28 8.2 16.67 8.59L16.74 8.66C17.13 9.05 17.13 9.68 16.74 10.07L10.82 16.01C10.41 16.4 9.78 16.4 9.38 16.01Z" fill="#6FCF97"/>
</svg>
