<svg width="26" height="29" viewBox="0 0 26 29" fill="none" xmlns="http://www.w3.org/2000/svg">
<g clip-path="url(#clip0_97_765)">
<path d="M0.912613 28.7776C0.596904 28.6336 0.356443 28.4913 0.277925 28.1216C0.148697 27.5131 0.264838 26.3026 0.433325 25.6908C0.821008 24.289 1.87609 23.2175 3.24362 22.7366L7.93834 21.585C7.95961 21.4934 7.9089 21.4738 7.85492 21.4214C7.61937 21.1941 7.32492 21.0076 7.0861 20.7622C6.39088 20.0457 5.85598 19.1559 5.45848 18.2447C5.34888 18.176 3.23053 18.2693 2.85757 18.2382C1.73542 18.1417 0.73104 17.1389 0.634528 16.0151C0.572368 15.297 0.55601 13.6465 0.650886 12.9529C0.708138 12.5342 0.938785 12.1203 1.18743 11.7866C1.29375 11.6443 1.55057 11.4856 1.60128 11.322C1.66017 11.1323 1.60128 10.9311 1.62582 10.743C2.46825 4.08529 8.39473 -0.450765 15.0868 0.906943C20.0121 1.90641 23.287 5.91411 23.9151 10.7986C23.9364 10.9703 23.8841 11.147 23.9397 11.322C23.992 11.4873 24.2456 11.6427 24.3535 11.7866C24.6022 12.1187 24.8328 12.5325 24.8901 12.9529C24.98 13.622 24.9768 15.4393 24.8983 16.1165C24.7723 17.2109 23.655 18.2496 22.5427 18.2365C22.5967 19.6809 22.6294 20.9847 21.4156 21.9694L20.8415 22.3538C21.7166 22.573 22.5607 22.7399 23.3279 23.2437C24.9146 24.2841 25.4544 26.0965 25.2892 27.9286C25.2467 28.3915 25.0438 28.6075 24.6283 28.7776H0.912613ZM22.2679 10.8264C21.5825 4.88519 15.7067 0.965832 9.92911 2.7423C6.34835 3.84319 3.67547 7.10006 3.27306 10.8264H4.97429C5.25401 7.9245 7.42798 5.34649 10.1614 4.40263C14.9019 2.7652 19.9729 5.87648 20.565 10.8264H22.2663H22.2679ZM18.095 8.68514C17.722 7.89342 16.9679 7.15077 16.2465 6.66494C13.3136 4.68563 9.19136 5.59022 7.44597 8.65733C8.2835 8.53792 9.20772 8.78329 9.88003 9.29856C10.8811 10.0674 11.2999 10.6563 12.7459 10.6645C15.005 10.6759 15.4352 8.79637 17.3556 8.6328C17.5863 8.61317 17.8823 8.60826 18.095 8.68678V8.68514ZM15.7902 20.7082C17.7057 19.7038 18.9047 17.6706 19.0307 15.5228C19.0945 14.435 19.1223 12.6912 19.0307 11.6214C18.9538 10.7233 18.2242 10.1377 17.3245 10.3029C16.7062 10.4174 16.3431 10.9589 15.8621 11.3106C14.1625 12.5587 11.6254 12.616 9.86531 11.4529C9.15374 10.9818 8.78078 10.2179 7.7993 10.2751C7.10573 10.316 6.58064 10.8886 6.51193 11.5674C6.40724 12.6094 6.4465 14.4513 6.50866 15.5211C6.63462 17.6918 7.81075 19.6041 9.67556 20.7L9.74917 20.7066C10.0125 20.1602 10.5998 19.6924 11.1887 19.537C11.7776 19.3816 13.6914 19.375 14.3081 19.5239C14.9248 19.6728 15.5202 20.1471 15.7902 20.705V20.7082ZM4.86469 12.4736H3.08004C2.6989 12.4736 2.32594 12.9022 2.28341 13.2703C2.22779 13.7561 2.21307 15.4966 2.29649 15.9481C2.33902 16.1836 2.67927 16.5926 2.91482 16.5926H4.86305V12.4753L4.86469 12.4736ZM20.6763 16.5909H22.6245C22.8601 16.5909 23.2003 16.182 23.2428 15.9464C23.3246 15.4949 23.3115 13.7545 23.2559 13.2686C23.215 12.9088 22.8273 12.472 22.4593 12.472H20.6746V16.5893L20.6763 16.5909ZM20.8955 18.2382H20.0727C19.6833 19.2867 18.9963 20.1635 18.2618 20.983H19.7717C19.9434 20.983 20.3851 20.7082 20.5143 20.5741C20.6256 20.4596 20.8955 19.9917 20.8955 19.8576V18.2382ZM11.7121 21.1057C10.976 21.23 10.8713 22.2524 11.5453 22.5076C11.8315 22.6156 13.4248 22.6172 13.7798 22.5698C14.668 22.4487 14.704 21.181 13.6767 21.0894C13.2432 21.0517 12.1178 21.037 11.7121 21.1041V21.1057ZM7.33474 23.3975V27.1303H18.2046V23.3975L15.8785 22.8446C15.5759 23.4547 15.0508 23.9226 14.3899 24.1139C13.7291 24.3053 11.7808 24.2955 11.1478 24.1139C10.5147 23.9324 9.96182 23.4465 9.6592 22.8446L7.3331 23.3975H7.33474ZM5.68913 23.8375C5.04463 23.9913 4.30198 24.0976 3.68365 24.3299C2.53696 24.7634 1.83193 25.9051 1.90063 27.1303H5.68913V23.8359V23.8375ZM23.6403 27.1303C23.709 25.9035 23.004 24.7617 21.8573 24.3299C21.2439 24.0976 20.4963 23.9847 19.8518 23.8375V27.132H23.6403V27.1303Z" fill="#E6511F"/>
</g>
<defs>
<clipPath id="clip0_97_765">
<rect width="25.0947" height="28.1111" fill="white" transform="translate(0.222656 0.666748)"/>
</clipPath>
</defs>
</svg>
