<svg width="25" height="30" viewBox="0 0 25 30" fill="none" xmlns="http://www.w3.org/2000/svg">
<g clip-path="url(#clip0_97_743)">
<path d="M12.8769 0.015574C13.8266 0.127811 14.6251 0.804857 15.063 1.61707C15.1428 1.76431 15.1574 2.00688 15.2602 2.12395C15.4054 2.28929 16.3998 2.79255 16.7264 3.0653C17.7922 3.95716 19.1097 5.95089 19.1097 7.37136V8.39718C19.8864 8.27046 20.9111 8.7001 20.5493 9.62697C20.49 9.77782 20.1646 10.1556 20.0219 10.1556H18.552L18.4637 10.2437V14.0537C18.4637 14.6294 17.9169 15.9111 17.6059 16.4228L16.8172 17.4824C18.0415 17.4522 19.2355 17.4751 20.3848 17.941C24.8223 19.7392 23.9875 25.0518 24.9819 28.8908C25.069 29.3735 24.8803 29.8394 24.3916 29.9866L0.649738 29.9987C0.296484 29.8551 -0.00595968 29.5244 8.91984e-05 29.1213C0.790072 26.3045 0.447706 21.8753 2.38214 19.592C3.88468 17.8191 5.96549 17.3303 8.23261 17.4824C7.72571 16.9043 7.26116 16.2659 6.9696 15.5478C6.27277 13.8316 6.60183 11.9659 6.52804 10.1568H5.02912C4.79443 10.1568 4.43633 9.67162 4.40972 9.42542C4.3202 8.56614 5.18398 8.33322 5.88081 8.39839C5.80943 6.13674 6.9563 3.88837 8.84717 2.65255C9.01775 2.54152 9.68918 2.23015 9.74604 2.17102C9.81137 2.10223 9.92992 1.66776 10.0061 1.52173C10.3884 0.796409 11.2849 0.11695 12.1124 0.0167808C12.2926 -0.00494257 12.6955 -0.00494257 12.8769 0.0167808V0.015574ZM15.3461 4.23595V5.8483C15.3461 5.91589 15.2227 6.18381 15.1707 6.25863C14.7255 6.90672 13.6754 6.68345 13.581 5.90744C13.4637 4.93351 13.7831 3.35132 13.4951 2.47635C13.1661 1.47466 11.7047 1.61345 11.4917 2.53187C11.2933 3.38511 11.5692 4.84782 11.4663 5.78917C11.3925 6.46742 10.7078 6.87172 10.0932 6.51328C9.95654 6.43363 9.70249 6.11019 9.70249 5.96537V4.23595C8.33665 5.10729 7.5878 6.79689 7.64466 8.39718H17.3446V7.48842C17.3446 7.30498 17.1172 6.59897 17.0374 6.38897C16.7119 5.54056 16.084 4.75731 15.3461 4.23595ZM16.6974 10.1568H8.37899L8.29068 10.2449V13.7037C8.29068 14.1599 8.67055 15.0856 8.9125 15.4862C10.5263 18.1667 14.5198 18.1594 16.1191 15.4718C16.3018 15.164 16.6974 14.2673 16.6974 13.9379V10.1568ZM11.6418 28.2693V22.9651L8.87742 19.2734C7.97009 19.2178 7.05429 19.2166 6.15301 19.3108L6.05622 19.3892V28.2693H11.6418ZM13.8762 19.242H11.1131L12.4946 21.1754L13.8762 19.242ZM18.9319 28.2693V19.3892C18.7746 19.2854 18.4129 19.254 18.1999 19.2408C17.9253 19.2239 16.2425 19.2082 16.1107 19.2722L13.4068 22.9651V28.2693H18.9331H18.9319ZM4.29358 28.2693V20.1809C3.60038 20.7228 3.14308 21.5072 2.91202 22.3496L1.94299 28.2705H4.29479L4.29358 28.2693ZM23.1056 28.2693C22.7136 26.4879 22.5648 24.6511 22.2067 22.865C22.0531 22.0998 21.8462 21.459 21.3671 20.8302C21.2123 20.6262 20.9437 20.304 20.6957 20.2388V28.2693H23.1056Z" fill="#E6511F"/>
</g>
<defs>
<clipPath id="clip0_97_743">
<rect width="25" height="30" fill="white"/>
</clipPath>
</defs>
</svg>
