<svg width="25" height="27" viewBox="0 0 25 27" fill="none" xmlns="http://www.w3.org/2000/svg">
<g clip-path="url(#clip0_97_747)">
<path d="M2.49193 27C1.13831 26.749 0.115572 25.6996 0.00316636 24.2833L0 2.76666C0.107656 1.28758 1.17789 0.162579 2.62175 2.49489e-05H18.3902C19.5143 -0.0225072 21.0104 1.37449 21.0104 2.50432V5.74734C21.3128 5.60732 21.6104 5.42224 21.9413 5.3482C24.3224 4.81869 25.9467 7.64809 24.381 9.51505L21.0215 12.9544L21.0041 24.433C20.8806 25.6867 19.7565 26.8552 18.52 26.9968H2.49193V27ZM6.01925 1.58211H2.62175C2.60117 1.58211 2.29244 1.70603 2.24812 1.73018C1.83807 1.94423 1.58318 2.40775 1.55627 2.87288V24.1288C1.60851 24.8225 2.08347 25.3568 2.77532 25.4212H18.2382C18.7211 25.4646 19.4557 24.808 19.4557 24.338V14.5558L17.901 16.1653V23.1245C17.8599 23.5236 17.5432 23.8262 17.149 23.8391L3.68406 23.8117C3.32151 23.6685 3.14895 23.4174 3.11253 23.0215V3.97857C3.05395 3.70818 3.47508 3.16258 3.71097 3.16258H6.01925V1.5805V1.58211ZM13.4887 1.58211H7.57552V4.27148H13.4887V1.58211ZM17.8994 8.85839C17.9897 8.88093 18.0023 8.81977 18.0562 8.77953C18.2541 8.62663 19.2626 7.61912 19.3813 7.43726C19.4193 7.37771 19.47 7.33908 19.4589 7.25217L19.443 2.67492C19.4288 2.23715 18.8082 1.5805 18.3934 1.5805H15.0481V3.16258H17.3042C17.4846 3.16258 17.901 3.58586 17.901 3.76934V8.85839H17.8994ZM6.01925 4.74627H4.67038V22.2538H16.3416V17.7184C15.8461 18.1062 15.4851 18.7001 14.9405 19.0091C13.9826 19.0832 12.8428 19.434 11.9039 19.4598C11.4575 19.4711 11.1424 19.1637 11.0617 18.7307L11.3102 16.6626H7.0309C6.8805 16.6626 6.5892 16.3165 6.53537 16.1637C6.31214 15.5247 6.81084 15.1288 7.39187 15.0773C8.81673 14.9534 10.4031 15.1835 11.8438 15.0676C11.9388 15.0387 13.1404 13.809 13.256 13.6545C13.2955 13.6014 13.3557 13.5885 13.3335 13.4952H7.0309C6.96441 13.4952 6.7301 13.2988 6.67152 13.228C6.1839 12.6229 6.69685 11.9131 7.39187 11.9115C9.41517 12.0354 11.619 11.7522 13.6201 11.9115C13.9652 11.9389 14.3009 12.0226 14.4228 12.3879H14.4988L16.3416 10.5161V4.74627H15.045C15.056 5.38039 14.855 5.80528 14.1916 5.85518C11.7678 6.03704 9.11912 5.71837 6.67152 5.84874C6.11108 5.72964 5.94642 5.28704 6.01925 4.74627ZM22.4542 6.86751C22.0062 6.89166 21.6278 7.31655 21.3793 7.6658L22.6917 8.9614C23.173 8.51558 23.7176 8.06011 23.306 7.34552C23.1382 7.05582 22.7899 6.84981 22.4558 6.86751H22.4542ZM12.7636 17.7184C13.2781 17.6443 13.875 17.654 14.3452 17.4544L21.4806 10.2055L21.5059 10.0719L20.2837 8.82942H20.1808L13.0201 16.1089L12.762 17.7184H12.7636Z" fill="#E6511F"/>
<path d="M7.25287 8.76674C9.31417 8.8955 11.6921 8.54303 13.717 8.7603C14.8094 8.87618 14.7318 10.2329 13.8801 10.3376L7.08663 10.3327C6.20797 10.0414 6.31404 8.90515 7.25287 8.76835V8.76674Z" fill="#E6511F"/>
<path d="M7.25492 18.2591C7.66496 18.1996 8.88243 18.1915 9.22281 18.3927C9.78959 18.7259 9.6376 19.7173 9.00116 19.8251C8.68136 19.8798 7.4734 19.8702 7.1346 19.8283C6.30501 19.7269 6.2116 18.4104 7.25333 18.2591H7.25492Z" fill="#E6511F"/>
</g>
<defs>
<clipPath id="clip0_97_747">
<rect width="25" height="27" fill="white"/>
</clipPath>
</defs>
</svg>
