<svg width="25" height="25" viewBox="0 0 25 25" fill="none" xmlns="http://www.w3.org/2000/svg">
<g clip-path="url(#clip0_97_757)">
<path d="M1.90648 25C0.846387 24.7877 0.0863231 24.028 0 22.931V0.759673C0.0357925 0.400308 0.230546 0.173341 0.574785 0.0661621H13.7843L14.1622 0.273164L18.9458 5.04893L19.1185 5.36416L19.1416 20.6151H20.0448C20.0659 20.6151 20.3765 20.7948 20.4122 20.8326C20.4722 20.8977 20.5891 21.1373 20.6038 21.2266C20.6754 21.6858 20.6344 23.0623 20.4965 23.5005C20.2585 24.2518 19.4901 24.9054 18.7037 25H1.90648ZM12.8916 1.51728H1.46749V22.9793C1.46749 23.0003 1.64751 23.3103 1.68646 23.346C1.96964 23.6087 2.44757 23.6014 2.72128 23.3282C3.23501 22.8154 2.63917 21.358 3.12658 20.8347C3.16237 20.7969 3.47292 20.6172 3.49398 20.6172H17.6773V6.29199H13.4538C13.4338 6.29199 13.1411 6.12597 13.1106 6.09865C13.0727 6.06398 12.8916 5.75295 12.8916 5.73193V1.51728ZM16.6025 4.82932L14.357 2.58802V4.82932H16.6025ZM19.1416 22.0767H4.39616C4.4109 22.5716 4.40353 23.0539 4.29826 23.5383H18.5795C18.7237 23.5383 19.1406 23.1212 19.1406 22.9783V22.0767H19.1416Z" fill="#E6511F"/>
<path d="M24.9977 0.591555V16.7672C24.8009 17.5447 24.3335 18.2256 23.5397 18.4789C23.4713 18.5829 23.585 20.0267 23.5218 20.3377C23.4123 20.8757 22.7312 21.0827 22.3143 20.737C21.8532 20.3556 22.1627 19.041 22.0606 18.481C21.2227 18.2057 20.6689 17.4176 20.6016 16.5507V0.759678C20.6268 0.397162 20.889 0.0997927 21.2616 0.0546095C21.8122 -0.01264 23.8576 -0.0231477 24.385 0.0588126C24.704 0.108199 24.8556 0.337268 24.9988 0.591555H24.9977ZM23.5334 1.51729H22.0691V2.97891H23.5334V1.51729ZM23.5334 4.44054H22.0691V16.5969C22.0691 16.6285 22.2459 16.909 22.2954 16.9552C22.5701 17.2074 23.0007 17.2327 23.286 16.9826C23.3271 16.9468 23.5334 16.6201 23.5334 16.5959V4.44054Z" fill="#E6511F"/>
<path d="M13.2337 14.0867V18.1059C13.2337 18.1269 13.0537 18.4369 13.0147 18.4726C12.9042 18.5756 12.6768 18.6544 12.5273 18.6691C10.6514 18.853 8.47538 18.5252 6.5668 18.6681C6.44785 18.6534 6.21204 18.5515 6.12782 18.4737C6.08992 18.438 5.90885 18.128 5.90885 18.107V14.0878C5.14563 14.672 4.22555 13.8156 4.83508 13.0412C6.23835 12.2647 7.63216 11.196 9.04912 10.4742C9.54811 10.2199 9.59232 10.2199 10.0913 10.4742C11.5114 11.1971 12.9052 12.2563 14.3075 13.0402C14.9054 13.8282 14.0022 14.6678 13.2326 14.0888L13.2337 14.0867ZM11.7693 13.161L9.55127 11.8927L7.37529 13.161V17.2044H8.83963V15.1333C8.83963 15.1007 9.03122 14.7897 9.08596 14.7456C9.36809 14.5123 9.81655 14.5165 10.086 14.7666C10.1239 14.8023 10.305 15.1123 10.305 15.1333V17.2044H11.7693V13.161Z" fill="#E6511F"/>
<path d="M3.50447 2.98936L10.8146 2.98096C11.6536 3.18271 11.6231 4.29232 10.7703 4.44048L3.54658 4.43628C2.75178 4.24714 2.72125 3.22158 3.50553 2.98831L3.50447 2.98936Z" fill="#E6511F"/>
<path d="M3.50447 5.9127L10.8146 5.9043C11.6536 6.10605 11.6231 7.21566 10.7703 7.36382L3.54658 7.35962C2.75178 7.17048 2.72125 6.14492 3.50553 5.91165L3.50447 5.9127Z" fill="#E6511F"/>
</g>
<defs>
<clipPath id="clip0_97_757">
<rect width="25" height="25" fill="white"/>
</clipPath>
</defs>
</svg>
