<svg width="25" height="25" viewBox="0 0 25 25" fill="none" xmlns="http://www.w3.org/2000/svg">
<g clip-path="url(#clip0_60_130)">
<path d="M18.3583 0L18.7015 0.218228L24.8032 6.32342C24.9697 6.5631 25.0747 6.8627 24.9371 7.14085C19.1727 13.0811 13.2293 18.8719 7.39837 24.7574C7.05737 25.0925 6.6646 25.0614 6.29771 24.7818L0.218208 18.7025L0 18.3592V17.9686L17.9678 0H18.3583ZM18.1453 1.81018L13.1376 6.81832L14.864 8.59743C15.0882 8.93253 15.0357 9.36973 14.7464 9.64492C12.9904 11.174 11.4104 13.2756 9.64406 14.7477C9.33043 15.0089 9.04343 15.0954 8.65658 14.9031L6.81771 13.1388L1.81002 18.1469L6.81771 23.1906L23.1885 6.85382L18.1453 1.81018ZM12.0421 7.91389L7.91319 12.0432L9.05675 13.232L13.2301 9.05829L12.0414 7.91463L12.0421 7.91389Z" fill="#E6511F"/>
<path d="M17.8079 4.55396C20.9775 4.14857 21.3836 8.8216 18.4241 9.12564C15.3692 9.43856 14.9816 4.9157 17.8079 4.55396ZM17.9529 6.01719C16.9861 6.21767 17.2007 7.84291 18.3213 7.65427C19.365 7.47821 19.1357 5.77233 17.9529 6.01719Z" fill="#E6511F"/>
<path d="M6.52959 15.8832C9.62815 15.5096 10.0586 20.1494 7.09545 20.4534C4.04646 20.7663 3.61004 16.2346 6.52959 15.8832ZM6.67457 17.3457C5.63605 17.5144 5.84908 19.1788 6.99338 18.982C8.02081 18.8052 7.80778 17.1622 6.67457 17.3457Z" fill="#E6511F"/>
</g>
<defs>
<clipPath id="clip0_60_130">
<rect width="25" height="25" fill="white"/>
</clipPath>
</defs>
</svg>
