<svg width="25" height="25" viewBox="0 0 25 25" fill="none" xmlns="http://www.w3.org/2000/svg">
<g clip-path="url(#clip0_68_150)">
<path d="M0 6.83232V6.44241L3.52395 0.387363C3.65918 0.19682 3.88634 0.0644982 4.12409 0.0600874C6.31518 0.208288 8.75287 -0.130456 10.9148 0.0600874C11.1711 0.0830232 11.3735 0.165063 11.5141 0.387363C12.5208 2.28839 13.8147 4.1206 14.8029 6.01986C15.1176 6.6259 15.1176 6.64883 14.8029 7.25398C13.8147 9.15412 12.5208 10.9863 11.5141 12.8865C11.3726 13.1088 11.1711 13.1908 10.9148 13.2138C8.75287 13.4043 6.31518 13.0656 4.12409 13.2138C3.88722 13.2093 3.65918 13.0779 3.52395 12.8865L0 6.83232ZM4.5731 1.53062L1.61128 6.61619L4.49708 11.6735L4.6606 11.7547L10.4985 11.7282L13.4276 6.65854L10.5418 1.6012L10.3783 1.52004L4.5731 1.53062Z" fill="#E6511F"/>
<path d="M21.0932 24.9999H13.964L13.5521 24.7053C12.5392 22.7849 11.2169 20.9315 10.2279 19.0102C9.93445 18.4403 9.93445 18.4086 10.2279 17.8387C11.2125 15.9271 12.5259 14.0852 13.5335 12.1736C13.6688 11.9821 13.8968 11.8507 14.1337 11.8463C16.3301 11.9715 18.7006 11.6857 20.8758 11.8463C21.1922 11.8692 21.331 11.9195 21.5245 12.1736C22.5189 14.0755 23.7881 15.905 24.7648 17.806C25.0794 18.4191 25.0794 18.4271 24.7648 19.0402C23.8888 20.7462 22.708 22.7655 21.6889 24.3983C21.5192 24.6709 21.4264 24.8826 21.095 24.9991L21.0932 24.9999ZM20.4975 13.3203L14.6693 13.3071L14.5058 13.3883L11.62 18.4456L14.5491 23.5153L20.5116 23.5074L23.3868 18.4041L20.4966 13.3203H20.4975Z" fill="#E6511F"/>
<path d="M10.09 4.02433C13.3912 7.2574 8.75627 12.3765 5.22348 9.48746C1.26113 6.24646 6.5095 0.516923 10.09 4.02433ZM7.26432 4.45923C4.46513 4.76534 4.84784 9.04109 7.68945 8.8285C10.5823 8.61237 10.2314 4.1346 7.26432 4.45923Z" fill="#E6511F"/>
<path d="M20.098 15.8117C23.3992 19.0447 18.7642 24.1638 15.2314 21.2748C11.2691 18.0338 16.5166 12.3043 20.098 15.8117ZM17.2723 16.2457C14.4731 16.5518 14.8558 20.8276 17.6974 20.615C20.5903 20.3988 20.2394 15.9211 17.2723 16.2457Z" fill="#E6511F"/>
</g>
<defs>
<clipPath id="clip0_68_150">
<rect width="25" height="25" fill="white"/>
</clipPath>
</defs>
</svg>
