<svg width="22" height="28" viewBox="0 0 22 28" fill="none" xmlns="http://www.w3.org/2000/svg">
<g clip-path="url(#clip0_66_140)">
<path d="M11.2965 27.983C9.17555 27.7572 8.36622 25.9424 8.39854 24.0738C8.42838 22.3163 8.5987 20.4869 8.68199 18.7233C8.7454 17.3856 8.68448 15.8832 8.8461 14.5676C8.8635 14.426 8.90826 14.2796 8.98783 14.1612C9.04501 14.0757 9.35458 13.8304 9.43041 13.8304H10.8228L10.9061 13.7486V11.4542C10.9061 11.2601 10.6401 10.9562 10.43 10.9379L1.96861 10.9342C1.05112 10.8439 0.160972 10.0689 0.0528115 9.15358C-0.10632 7.80008 0.154755 6.17686 0.0528115 4.79407C0.0739462 4.04836 1.12447 3.01218 1.85672 3.01218H3.38837V1.2364C3.38837 0.687188 4.33943 -0.0682818 4.91628 0.00494629L18.6178 0.00738723C19.1201 -0.042652 20.0388 0.725023 20.0388 1.18148V3.01218H21.3479C21.3703 3.01218 21.6102 3.12324 21.6513 3.15132C22.1274 3.46986 22.1125 4.24119 21.6177 4.53411C21.5816 4.55608 21.3628 4.65127 21.3479 4.65127H20.0388V6.48198C20.0388 6.92256 19.1126 7.71709 18.6178 7.65607L4.91628 7.65851C4.34316 7.72319 3.38712 6.98115 3.38712 6.42705V4.65127H2.07801C1.97234 4.65127 1.66402 4.90147 1.715 5.06013C1.8244 6.26717 1.57202 7.70977 1.715 8.88752C1.75105 9.18898 1.95121 9.27197 2.24212 9.29882C4.91628 9.43185 7.78315 9.11209 10.4337 9.29394C11.5799 9.37205 12.5758 10.2886 12.5758 11.4542V13.8304H13.9955C14.2218 13.8304 14.5525 14.2808 14.5823 14.5114C14.7464 15.8051 14.6843 17.2966 14.7452 18.6134C14.8285 20.3892 14.9926 22.1882 15.0286 23.964C15.0672 25.8777 14.3374 27.7474 12.1307 27.9818C11.9231 28.0037 11.5029 28.0037 11.2952 27.9818L11.2965 27.983ZM18.3692 1.64648H5.05801V6.0182H18.3679V1.64648H18.3692ZM12.9661 15.4707H10.4598C10.3653 18.24 10.2186 20.9897 10.1279 23.7504C10.0943 24.7622 9.91527 25.8569 11.1846 26.2597C12.6528 26.7259 13.6213 25.3468 13.3577 24.0189L12.9661 15.4695V15.4707Z" fill="#E6511F"/>
<path d="M18.0203 9.30842C18.683 9.20468 19.1343 9.96625 19.45 10.4483C20.3364 11.8018 21.203 14.006 19.6502 15.2253C18.6855 15.9819 17.0494 15.8282 16.2848 14.8652C15.3163 13.6447 16.01 11.836 16.7299 10.6668C16.9748 10.2689 17.5454 9.38287 18.0203 9.30964V9.30842ZM18.2006 11.537C17.7854 11.9739 16.9661 13.8901 17.9532 14.0475C19.5271 14.2989 18.5723 12.2058 18.2006 11.537Z" fill="#E6511F"/>
</g>
<defs>
<clipPath id="clip0_66_140">
<rect width="22" height="28" fill="white"/>
</clipPath>
</defs>
</svg>
