<svg width="25" height="25" viewBox="0 0 25 25" fill="none" xmlns="http://www.w3.org/2000/svg">
<g clip-path="url(#clip0_60_121)">
<path d="M24.9993 8.88417V9.22558C24.9279 9.32444 24.9114 9.41688 24.8299 9.52031C24.2302 10.2718 23.2706 10.9729 22.6223 11.707L13.2607 17.3371C12.5355 17.7462 11.7462 17.6886 10.9816 17.4479L6.02611 23.9695C5.43735 24.5205 4.73871 24.8381 3.9485 24.9928C3.68022 24.9736 3.3808 25.0193 3.11801 24.9928C0.223636 24.6999 -1.0482 21.0121 1.01567 18.9627L7.54151 14.0099C7.30344 13.2502 7.24484 12.4512 7.65231 11.7326L13.2863 2.37811L15.526 0.125519C15.8071 -0.0493061 16.1093 -0.0410682 16.3785 0.147487L24.8299 8.59035L24.9993 8.88508V8.88417ZM15.9005 1.81244L14.9363 2.80739L22.191 10.0576L23.1936 9.05533L23.1689 8.98302L15.9005 1.81244ZM14.0344 4.00462L8.84448 12.6791C8.7987 13.0287 8.81335 13.2621 9.02945 13.545C9.41951 14.0557 10.9084 15.5339 11.4211 15.9385C11.7627 16.2076 12.1298 16.2332 12.5291 16.0685L20.9942 10.9592L14.0344 4.00462ZM8.47273 15.1367L2.21518 19.8689C0.0139522 21.9201 3.05574 24.9727 5.1187 22.7704L9.85445 16.517L8.47365 15.1367H8.47273Z" fill="#E6511F"/>
<path d="M3.64702 20.5599C4.51964 20.4839 4.73024 21.8852 3.82374 22.0097C2.78448 22.1516 2.65354 20.6459 3.64702 20.5599Z" fill="#E6511F"/>
</g>
<defs>
<clipPath id="clip0_60_121">
<rect width="25" height="25" fill="white"/>
</clipPath>
</defs>
</svg>
