<svg width="23" height="22" viewBox="0 0 23 22" fill="none" xmlns="http://www.w3.org/2000/svg">
<path d="M6.62299 3.04369L7.18515 2.48152C7.54313 2.12354 8.12353 2.12354 8.48151 2.48152L10.8518 4.85183C11.2098 5.20981 11.2098 5.79021 10.8518 6.14819L9.20878 7.79124C8.9348 8.06521 8.86688 8.48377 9.04016 8.83032C10.0418 10.8337 11.6663 12.4582 13.6697 13.4599C14.0162 13.6331 14.4348 13.5652 14.7088 13.2912L16.3518 11.6482C16.7098 11.2902 17.2902 11.2902 17.6482 11.6482L20.0185 14.0185C20.3765 14.3765 20.3765 14.9569 20.0185 15.3149L19.4563 15.877C17.5209 17.8124 14.4569 18.0302 12.2672 16.3879L11.1595 15.5572C9.56129 14.3585 8.14153 12.9387 6.94286 11.3405L6.11207 10.2328C4.46983 8.04312 4.68758 4.97909 6.62299 3.04369Z" fill="white"/>
</svg>
