<svg width="25" height="26" viewBox="0 0 25 26" fill="none" xmlns="http://www.w3.org/2000/svg">
<g clip-path="url(#clip0_97_769)">
<path d="M15.447 0C15.5856 0.0813459 15.7041 0.147344 15.8303 0.253247C17.4266 1.59469 18.852 3.46104 20.439 4.84852C20.5914 5.00968 20.6807 5.23377 20.6945 5.45785L20.6992 15.8118C20.7084 15.8579 20.7376 15.8701 20.7777 15.8855C21.0116 15.9714 21.358 16.0021 21.6351 16.0973C26.8087 17.8762 25.7697 25.6608 20.2112 26.0015H0.701927C0.375593 25.9923 0.107752 25.7851 0 25.4828V0.517237C0.0892802 0.244038 0.287852 0.125856 0.526445 0H15.447ZM14.4788 1.52255H1.49313V24.4728H16.2613C13.3782 21.5582 15.0299 16.5056 19.0783 15.8824L19.1645 15.8149V6.19303H15.2685C15.153 6.19303 14.8251 6.0549 14.7312 5.96741C14.6635 5.90295 14.4788 5.57603 14.4788 5.5085V1.52255ZM18.0438 4.67202L16.0073 2.64144V4.59681L16.0843 4.67355H18.0454L18.0438 4.67202ZM19.6124 17.3298C14.9298 17.7288 15.5024 24.8351 20.2081 24.4728C24.8799 24.1137 24.3504 16.9246 19.6124 17.3298Z" fill="#E6511F"/>
<path d="M15.6584 11.0108C16.2695 11.0768 16.7112 11.6708 16.3372 12.2341C16.0832 12.6162 15.6737 12.5349 15.2781 12.5487L15.2012 12.6254C15.2258 14.1618 15.2935 15.3973 14.4315 16.7326C12.5566 19.6319 8.36047 19.7286 6.34242 16.926C5.36958 15.5739 5.36342 14.1541 5.4173 12.5426C4.92318 12.6055 4.25665 12.5211 4.19354 11.9087C4.13659 11.3531 4.48909 11.1275 4.9632 10.9863C5.18024 9.62639 5.94836 8.36937 7.05051 7.54517C7.2614 7.38708 7.92022 7.07551 8.01258 6.98035C8.08647 6.90514 8.23732 6.42474 8.34969 6.24977C9.24249 4.85615 11.3606 4.80089 12.2626 6.19912C12.3858 6.38944 12.5258 6.8637 12.6213 6.95886C12.7829 7.11848 13.4079 7.40243 13.6634 7.59582C14.7071 8.38472 15.509 9.70774 15.6599 11.0123L15.6584 11.0108ZM6.53484 11.0185H14.1221C13.9451 10.1068 13.4048 9.38543 12.7213 8.78531C12.5997 8.73312 12.6582 8.97256 12.6336 9.05237C12.4412 9.66783 11.6685 9.85355 11.2698 9.31789C10.8711 8.78224 11.3667 7.57279 10.965 7.03253C10.6894 6.66417 10.2446 6.58897 9.85822 6.84221C9.02391 7.38861 9.97213 9.13064 9.10088 9.54044C8.48669 9.83053 8.02182 9.3885 7.93561 8.78531C7.22907 9.32403 6.67646 10.1314 6.53484 11.0185ZM13.6649 12.541H7.01972L6.94276 12.6178V14.3951C6.94276 14.9093 7.37838 15.8225 7.7078 16.2216C9.21478 18.0526 12.161 17.7779 13.2832 15.6905C13.3956 15.4802 13.6649 14.8095 13.6649 14.5977V12.541Z" fill="#E6511F"/>
<path d="M21.0838 19.3066C21.8981 19.1424 22.2922 19.9896 21.7611 20.6419C21.5471 20.9043 20.1448 22.3102 19.9216 22.4131C19.6553 22.5359 19.3983 22.5405 19.1458 22.3839C19.018 22.3056 17.9605 21.2574 17.8959 21.1422C17.5357 20.4961 18.2238 19.7747 18.9072 20.0817C19.1427 20.1876 19.3382 20.5053 19.5429 20.6649C19.6461 20.6649 20.6359 19.3971 21.0823 19.3066H21.0838Z" fill="#E6511F"/>
</g>
<defs>
<clipPath id="clip0_97_769">
<rect width="25" height="26" fill="white"/>
</clipPath>
</defs>
</svg>
