<svg width="23" height="19" viewBox="0 0 23 19" fill="none" xmlns="http://www.w3.org/2000/svg">
<g clip-path="url(#clip0_97_787)">
<path d="M0 8.66932C0.19787 8.29738 0.361522 8.02215 0.81826 7.96115C2.13938 7.78114 3.78185 8.10695 5.13719 7.92545C6.67105 6.8022 8.47122 6.02411 9.47694 4.337C10.1568 3.19739 10.6448 1.4478 11.3574 0.436135C11.8425 -0.252692 13.3674 0.0061763 14.0399 0.321578C14.8358 0.693515 15.6332 1.57128 15.9263 2.39996C16.4009 3.74339 15.91 5.01988 15.599 6.33207H18.5567C18.7947 6.33207 19.4686 6.56118 19.7171 6.66533C21.3774 7.36159 22.2998 9.12903 22.0157 10.8935C21.8461 11.9424 20.2393 15.1425 19.662 16.2062C18.7739 17.8457 17.2638 18.8827 15.3744 19.0017L0.941743 18.9987C0.444836 18.9452 0.230601 18.6878 0 18.2846L0 8.66932ZM6.36904 17.0483H15.5008C15.9293 17.0483 16.7833 16.6109 17.124 16.3327C17.9199 15.6826 19.2336 12.652 19.7037 11.5719C20.0087 10.8727 20.278 10.3951 20.0206 9.60809C19.3347 7.51334 15.959 8.50418 14.2705 8.27358C13.7795 8.20663 13.4046 7.77816 13.3942 7.27977C13.5578 5.60754 15.3446 2.52195 12.7455 1.98637C11.9897 3.48453 11.4259 5.25494 10.3012 6.52697C9.22402 7.74245 7.62916 8.47889 6.36755 9.48163V17.0483H6.36904ZM4.42009 9.90266H1.95043V17.0483H4.42009V9.90266Z" fill="#E6511F"/>
</g>
<defs>
<clipPath id="clip0_97_787">
<rect width="22.0677" height="19" fill="white"/>
</clipPath>
</defs>
</svg>
