<svg width="25" height="25" viewBox="0 0 25 25" fill="none" xmlns="http://www.w3.org/2000/svg">
<g clip-path="url(#clip0_97_775)">
<path d="M24.9999 18.8425V19.8673L24.7801 20.892C24.2508 22.7561 22.7643 24.2484 20.8978 24.7721L19.8727 24.9919C19.5389 24.972 19.1779 25.019 18.8467 24.9919C17.2046 24.8589 15.5408 23.8469 14.6451 22.4802C14.4542 22.189 14.3311 21.8616 14.1258 21.5812C10.5909 22.5598 6.79459 21.8191 3.9772 19.4765C-1.70733 14.749 -1.2242 5.86995 4.95161 1.80985C10.8985 -2.1001 18.9345 0.605123 21.3502 7.23839C22.1617 9.46605 22.1943 11.8411 21.5863 14.1249C21.6053 14.1855 22.3228 14.5391 22.4567 14.6251C23.8446 15.5205 24.8651 17.1856 24.9999 18.8425ZM10.2516 1.51772C8.26933 1.62896 6.33226 2.46468 4.83309 3.74358C5.1009 4.19671 5.91155 4.58834 5.85455 5.19613C5.82198 5.54163 5.45194 5.87447 5.1018 5.86362C4.54991 5.84553 4.16629 5.08669 3.73835 4.83887C2.45451 6.33574 1.61762 8.26946 1.51086 10.2538H2.75579C3.17288 10.2538 3.47597 10.7902 3.39364 11.1836C3.35654 11.3609 3.07607 11.7172 2.90236 11.7172H1.51086C1.60043 13.7188 2.46084 15.6209 3.70759 17.1602C3.76549 17.219 3.78992 17.1648 3.83244 17.1358C4.23777 16.8545 4.53995 16.1681 5.1009 16.1545C5.50442 16.1445 5.84731 16.4602 5.85998 16.8681C5.87717 17.4008 5.13256 17.7508 4.87833 18.1325C4.84576 18.1823 4.80414 18.2402 4.83852 18.2999C6.3775 19.5426 8.26028 20.3747 10.2525 20.5022V19.2577C10.2525 18.8416 10.7963 18.5278 11.1935 18.6101C11.3572 18.6444 11.7173 18.9583 11.7173 19.1111V20.5022C12.4049 20.4633 13.0998 20.3475 13.7485 20.1133C13.2246 16.4502 16.4519 13.2268 20.1188 13.7477C20.3531 13.0992 20.4689 12.4055 20.5079 11.7181H19.1164C18.9634 11.7181 18.6495 11.3582 18.6151 11.1945C18.5328 10.7974 18.8458 10.2538 19.2629 10.2538H20.5079C20.383 8.26132 19.5452 6.38096 18.3039 4.84339C18.2442 4.80902 18.1863 4.84972 18.1365 4.88319C17.7547 5.13644 17.4046 5.8808 16.8708 5.86362C16.4636 5.85095 16.147 5.50817 16.1569 5.10478C16.1714 4.54402 16.8572 4.24193 17.1395 3.83764C17.1693 3.79513 17.2227 3.77071 17.1639 3.71283C15.6222 2.46739 13.7213 1.60545 11.7173 1.51772V2.90877C11.7173 3.08242 11.3599 3.3619 11.1826 3.39898C10.789 3.48219 10.2516 3.1792 10.2516 2.76224V1.51772ZM18.7879 15.1967C17.1793 15.3604 15.7344 16.68 15.3182 18.2194C14.342 21.8317 18.1664 24.8201 21.4361 22.9668C25.3175 20.7672 23.4691 14.7191 18.7879 15.1958V15.1967Z" fill="#E6511F"/>
<path d="M11.7273 8.92792C13.5531 9.54747 13.7178 12.1885 11.9481 12.9952C11.3021 13.2901 10.6669 13.2051 10.011 13.0088L8.10199 14.9109C7.46595 15.3351 6.74396 14.6793 7.03529 13.992L9.00945 11.9624C8.59326 11.0163 8.83483 9.89026 9.67172 9.25714C9.8581 9.11604 10.0789 9.05816 10.2453 8.9035C10.3268 7.86157 10.1639 6.71743 10.2517 5.68816C10.3277 4.79637 11.3138 4.56755 11.6956 5.37161L11.7264 8.92792H11.7273ZM10.9746 10.2656C10.1132 10.3144 10.0445 11.5617 10.8271 11.7064C11.9761 11.918 11.9933 10.2077 10.9746 10.2656Z" fill="#E6511F"/>
<path d="M21.4676 17.7861C21.787 18.1054 21.7001 18.5115 21.4558 18.8389C21.1129 19.2993 19.9205 20.4633 19.4591 20.845C19.1279 21.119 18.8022 21.223 18.4114 20.9626C18.1996 20.8215 17.2343 19.8465 17.0642 19.6249C16.6471 19.0831 17.0081 18.3397 17.7002 18.4012C18.1309 18.4391 18.5561 19.0677 18.8728 19.33L20.4923 17.7282C20.7737 17.5085 21.2161 17.5329 21.4685 17.7852L21.4676 17.7861Z" fill="#E6511F"/>
</g>
<defs>
<clipPath id="clip0_97_775">
<rect width="25" height="25" fill="white"/>
</clipPath>
</defs>
</svg>
