<svg width="25" height="25" viewBox="0 0 25 25" fill="none" xmlns="http://www.w3.org/2000/svg">
<g clip-path="url(#clip0_97_781)">
<path d="M0 24.4606V3.71081C0.182178 3.22136 0.720375 2.9296 1.17284 3.294L21.6994 23.8235C22.084 24.3141 21.716 24.975 21.1147 24.9989H0.704896C0.328634 24.9619 0.166698 24.7762 0 24.4594V24.4606ZM19.3311 23.5329L1.46456 5.66384V23.5329H19.3311Z" fill="#E6511F"/>
<path d="M8.93293 0L9.30085 0.242938L24.8395 15.8017C25.0717 16.1518 25.0479 16.44 24.7978 16.7687C23.9346 17.9024 22.4081 18.9599 21.4806 20.09C21.1995 20.3556 20.7507 20.4092 20.4542 20.14L4.79285 4.45863C4.61782 4.19783 4.65711 3.83938 4.83334 3.5881C5.98475 2.5699 7.01828 1.23017 8.17683 0.242938C8.29709 0.140523 8.4114 0.0785976 8.54357 0H8.93412L8.93293 0ZM8.72098 1.81013L6.44555 4.07636L20.9185 18.5514L23.1428 16.3328L23.1666 16.2102L22.0414 15.0872C21.9961 15.0872 21.5187 15.6385 21.4067 15.7207C20.7161 16.228 19.8398 15.4254 20.3577 14.7204C20.4875 14.5441 20.8935 14.2583 20.9709 14.1095C20.99 14.0714 21.0031 14.0499 20.9709 14.013L19.8386 12.8936C19.3682 13.233 18.9015 14.0785 18.2323 13.4783C17.5631 12.8781 18.3669 12.2577 18.7955 11.8409L17.6001 10.6452C17.5548 10.6452 17.0773 11.1966 16.9654 11.2788C16.2736 11.7873 15.4151 10.9918 15.9152 10.2772C16.0402 10.0986 16.4486 9.82113 16.5284 9.66751C16.5475 9.6294 16.5606 9.60797 16.5284 9.57105L15.3961 8.45163C14.9376 8.78507 14.4411 9.64131 13.7898 9.03635C13.1385 8.43138 13.9244 7.8026 14.3518 7.3989L13.1563 6.20326C12.7396 6.63197 12.124 7.44177 11.5191 6.76654C10.9143 6.09132 11.7632 5.63045 12.1038 5.16005L10.9607 4.00729C10.5594 4.41933 9.9474 5.1672 9.34729 4.59439C8.70788 3.98466 9.47827 3.36898 9.91049 2.95694L8.72217 1.8137L8.72098 1.81013Z" fill="#E6511F"/>
<path d="M4.58075 12.6065C4.80103 12.5851 5.00821 12.6804 5.17729 12.8149L12.1822 19.8208C12.637 20.3972 12.3108 21.0296 11.5976 21.0927C9.3769 20.9403 6.90024 21.288 4.71054 21.0927C4.21997 21.0486 3.94849 20.7771 3.90562 20.2877C3.70915 18.0834 4.05684 15.5885 3.908 13.3532C3.92586 12.9733 4.19734 12.6446 4.58075 12.6065ZM9.86271 19.6267L5.37138 15.1348V19.5529L5.44401 19.6255H9.86152L9.86271 19.6267Z" fill="#E6511F"/>
</g>
<defs>
<clipPath id="clip0_97_781">
<rect width="25" height="25" fill="white"/>
</clipPath>
</defs>
</svg>
