<svg width="29" height="21" viewBox="0 0 29 21" fill="none" xmlns="http://www.w3.org/2000/svg">
<g clip-path="url(#clip0_86_325)">
<path d="M0.0160105 16.2011C-0.00551586 16.0343 -0.00515708 15.6416 0.0160105 15.4745C0.080231 14.9631 0.39057 14.4114 0.722794 14.0205L10.8241 4.03465L8.13648 1.27792C7.64891 0.422753 8.66711 -0.400902 9.44098 0.213121L12.0529 2.7804C12.6958 2.27261 13.32 1.74145 14.0534 1.3576C16.9691 -0.167545 20.7248 0.221266 23.1953 2.39442C23.6495 2.79421 24.1338 3.26057 23.6778 3.87389L21.0218 6.50916C21.0075 6.55944 21.048 6.58139 21.071 6.61503C21.1574 6.74216 22.1577 7.72906 22.2897 7.81865C22.3396 7.85264 22.3665 7.89867 22.4325 7.84662C23.6093 6.68444 24.5012 5.40611 26.393 5.94542C27.0076 6.1207 28.457 7.42771 28.8302 7.95498C29.0601 8.27934 29.063 8.68302 28.8029 8.9911L19.717 17.9631C19.3693 18.2517 18.9348 18.2312 18.5822 17.9631C17.9927 17.5152 16.7542 16.2262 16.5727 15.5315C16.0862 13.6703 17.4402 12.807 18.5825 11.6451L17.1966 10.2765L6.95181 20.3951C6.01004 21.1713 4.62051 21.2039 3.64393 20.4727C2.99742 19.9886 1.08982 18.097 0.58359 17.4575C0.362586 17.1784 0.0604984 16.5449 0.0160105 16.2011ZM17.2701 2.13026C16.0654 2.22835 14.617 2.79882 13.7147 3.59414C13.6203 3.67736 13.286 3.95816 13.3441 4.06935C13.4334 4.24039 13.8812 4.53678 14.0229 4.74428C14.6084 5.60016 13.6515 6.52863 12.7815 5.91426C12.6369 5.81192 12.1612 5.22941 12.0532 5.24782L10.7161 6.55731L14.6493 10.4415L21.7526 3.42665C20.512 2.43373 18.8591 1.99995 17.2701 2.12955V2.13026ZM25.4781 7.49216C25.2388 7.51553 25.0128 7.65859 24.8374 7.81404L18.3891 14.1919C17.7961 15.0276 18.5341 15.575 19.0938 16.1203L26.9606 8.45852C26.5319 8.08316 26.1365 7.42807 25.4781 7.49216ZM9.49803 7.76057L8.172 9.12141L10.2177 11.1859C10.442 11.5856 10.3544 11.9992 10.0376 12.3169C8.64343 13.5077 7.39095 15.1685 5.9903 16.314C5.59493 16.6373 5.21141 16.8197 4.74392 16.4801L2.70573 14.4688C2.13708 15.058 1.2814 15.5474 1.94191 16.4521C2.32113 16.9716 3.97758 18.5587 4.5161 18.9971C4.98789 19.3817 5.38685 19.472 5.90563 19.081L13.4323 11.6448L9.49911 7.76057H9.49803ZM19.7518 7.76376L18.4146 9.07325L19.8006 10.4419L21.1266 9.08104L19.7514 7.76376H19.7518ZM6.95074 10.2762L3.92628 13.2737L5.25231 14.6345L8.27676 11.637L6.95074 10.2762Z" fill="#E6511F"/>
</g>
<defs>
<clipPath id="clip0_86_325">
<rect width="29" height="21" fill="white"/>
</clipPath>
</defs>
</svg>
