<svg width="28" height="25" viewBox="0 0 28 25" fill="none" xmlns="http://www.w3.org/2000/svg">
<g clip-path="url(#clip0_86_314)">
<path d="M27.9995 0.614357V1.05837C27.8309 1.36307 27.7105 1.55132 27.3585 1.65634L21.8695 2.20108L18.1398 15.7715C18.2479 17.6747 19.7636 20.2959 17.7713 21.6679C16.6199 22.4609 15.553 22.1719 14.5484 21.3396C13.3193 20.3216 12.1739 19.0685 10.9412 18.0644C10.8293 17.9729 10.6673 17.8183 10.5315 17.8101L7.82817 18.2912L6.13755 19.9969C7.89681 23.1264 4.07804 26.517 1.26737 24.2752C-1.45987 22.1001 0.568311 17.6615 3.99708 18.3977C4.3635 18.4762 4.64932 18.6423 4.99674 18.7517L6.23751 17.5107L0.877713 12.463C0.461305 12.0811 0.533464 11.3267 1.04913 11.0795C1.50884 10.8591 2.85521 10.8616 3.12273 10.5759C3.40784 10.2715 3.71724 8.82267 3.94921 8.30721C4.76125 6.50438 5.92213 6.84301 7.57966 6.77586C7.97495 6.75978 8.40474 6.69084 8.81058 6.69334C8.98482 6.63762 9.68353 5.50348 9.90282 5.24915C12.5797 2.14536 14.5361 5.82032 16.4337 7.49635C16.6238 7.66424 17.0641 8.04645 17.3081 8.0511C17.4165 8.05324 18.4267 7.86856 18.5003 7.82891L20.4376 1.18089C20.5946 0.790461 20.791 0.636504 21.1979 0.565062C23.0733 0.235715 25.1966 0.319659 27.0959 -4.28419e-05C27.5609 -0.00790144 27.7989 0.21464 27.9995 0.614357ZM15.0405 8.49332C15.0652 8.39723 15.0011 8.38259 14.9592 8.32686C14.5671 7.80819 13.4203 6.6812 12.9092 6.24576C12.1598 5.60743 11.8856 5.47276 11.1855 6.27362C10.6603 6.87445 10.2626 7.925 9.50049 8.22577C8.68809 8.54655 7.21711 8.3708 6.31777 8.43617C6.17204 8.44688 5.84082 8.48939 5.72431 8.55512C5.40857 8.73301 5.13789 9.94966 5.03546 10.3244L15.0409 8.49332H15.0405ZM18.0479 9.60353L3.23114 12.4319C3.29485 12.4391 3.35011 12.4673 3.39587 12.5126C4.7954 13.9075 6.27342 15.2196 7.69934 16.5866L16.5861 15.096L18.0483 9.60353H18.0479ZM16.6259 16.7609L12.7448 17.4546L15.8649 20.2812C16.3753 20.6488 17.1461 20.3255 17.1778 19.6758L16.6259 16.7613V16.7609ZM3.05338 19.994C0.983311 20.2694 1.31313 23.5279 3.4712 23.3025C5.5997 23.08 5.272 19.699 3.05338 19.994Z" fill="#E6511F"/>
</g>
<defs>
<clipPath id="clip0_86_314">
<rect width="28" height="25" fill="white"/>
</clipPath>
</defs>
</svg>
