<svg width="56" height="56" viewBox="0 0 56 56" fill="none" xmlns="http://www.w3.org/2000/svg">
<path d="M28 56C43.464 56 56 43.464 56 28C56 12.536 43.464 0 28 0C12.536 0 0 12.536 0 28C0 43.464 12.536 56 28 56Z" fill="#1877F2"/>
<path d="M30.1331 30.3832H34.8215L35.7149 24.5358H30.1383V20.7434C30.1383 19.1442 30.9198 17.584 33.415 17.584H35.9441V12.6065C34.4556 12.364 32.9512 12.2317 31.4433 12.2106C26.8513 12.2106 23.8507 15.0106 23.8507 20.0818V24.5358H18.7534V30.3832H23.8559V44.5161H30.1383L30.1331 30.3832Z" fill="white"/>
</svg>
