<svg width="37" height="36" viewBox="0 0 37 36" fill="none" xmlns="http://www.w3.org/2000/svg">
<g clip-path="url(#clip0_7_192)">
<path d="M18.6 36C28.5411 36 36.6 27.9411 36.6 18C36.6 8.05888 28.5411 0 18.6 0C8.65885 0 0.599976 8.05888 0.599976 18C0.599976 27.9411 8.65885 36 18.6 36Z" fill="white"/>
<path d="M19.9713 19.5321H22.9852L23.5596 15.773H19.9746V13.3351C19.9746 12.307 20.477 11.304 22.0811 11.304H23.7069V8.10418C22.75 7.94829 21.7829 7.86322 20.8135 7.84967C17.8615 7.84967 15.9326 9.64967 15.9326 12.9098V15.773H12.6558V19.5321H15.9359V28.6175H19.9746L19.9713 19.5321Z" fill="black"/>
</g>
<defs>
<clipPath id="clip0_7_192">
<rect width="36" height="36" fill="white" transform="translate(0.599976)"/>
</clipPath>
</defs>
</svg>
