<svg width="42" height="42" viewBox="0 0 42 42" fill="none" xmlns="http://www.w3.org/2000/svg">
<path d="M21 42C32.598 42 42 32.598 42 21C42 9.40202 32.598 0 21 0C9.40202 0 0 9.40202 0 21C0 32.598 9.40202 42 21 42Z" fill="#1B1B1B"/>
<path d="M22.5999 22.7877H26.1162L26.7862 18.4021H22.6038V15.5578C22.6038 14.3584 23.1899 13.1882 25.0613 13.1882H26.9581V9.45513C25.8418 9.27326 24.7135 9.17402 23.5825 9.1582C20.1385 9.1582 17.8881 11.2582 17.8881 15.0616V18.4021H14.0651V22.7877H17.892V33.3873H22.6038L22.5999 22.7877Z" fill="white"/>
</svg>
