<svg width="56" height="56" viewBox="0 0 56 56" fill="none" xmlns="http://www.w3.org/2000/svg">
<path d="M28 56C43.464 56 56 43.464 56 28C56 12.536 43.464 0 28 0C12.536 0 0 12.536 0 28C0 43.464 12.536 56 28 56Z" fill="url(#paint0_radial_43_76)"/>
<path fill-rule="evenodd" clip-rule="evenodd" d="M28 13.8047C31.8549 13.8047 32.3394 13.8203 33.8527 13.8906C35.0304 13.9132 36.1957 14.136 37.2986 14.5496C38.2413 14.9151 39.0973 15.473 39.8122 16.1879C40.5271 16.9027 41.085 17.7588 41.4505 18.7014C41.8632 19.8019 42.086 20.9645 42.1094 22.1396C42.1798 23.6529 42.1954 24.1373 42.1954 27.9922C42.1954 31.8471 42.1798 32.3316 42.1094 33.8449C42.0869 35.0226 41.8641 36.1879 41.4505 37.2908C41.085 38.2334 40.5271 39.0895 39.8122 39.8044C39.0973 40.5192 38.2413 41.0772 37.2986 41.4426C36.1986 41.858 35.036 42.0835 33.8605 42.1094C32.3472 42.1798 31.8627 42.1954 28.0078 42.1954C24.153 42.1954 23.6685 42.1798 22.1552 42.1094C20.9775 42.0869 19.8122 41.8641 18.7092 41.4505C17.7666 41.085 16.9106 40.5271 16.1957 39.8122C15.4808 39.0973 14.9229 38.2413 14.5574 37.2986C14.142 36.1986 13.9166 35.036 13.8906 33.8605C13.8203 32.3472 13.8047 31.8627 13.8047 28.0078C13.8047 24.153 13.8203 23.6685 13.8906 22.1552C13.9132 20.9775 14.136 19.8122 14.5496 18.7092C14.9141 17.7652 15.4717 16.9076 16.1866 16.1913C16.9015 15.4751 17.7581 14.9159 18.7014 14.5496C19.8019 14.1369 20.9645 13.9141 22.1396 13.8906C23.6607 13.8203 24.1452 13.8047 28 13.8047ZM33.7303 16.4458C32.2352 16.3781 31.7846 16.3625 28 16.3625C24.2155 16.3625 23.7597 16.3781 22.2698 16.4458C21.3682 16.455 20.4749 16.6189 19.6287 16.9303C19.0154 17.1667 18.4585 17.529 17.9937 17.9937C17.529 18.4585 17.1667 19.0154 16.9303 19.6287C16.6186 20.4731 16.4539 21.3646 16.4432 22.2646C16.3755 23.7597 16.3598 24.2103 16.3598 27.9948C16.3598 31.7794 16.3755 32.2352 16.4432 33.7251C16.4527 34.6286 16.6174 35.5237 16.9303 36.3714C17.1667 36.9846 17.529 37.5416 17.9937 38.0063C18.4585 38.4711 19.0154 38.8334 19.6287 39.0698C20.4731 39.3815 21.3646 39.5462 22.2646 39.5569C23.7597 39.6246 24.2103 39.6402 27.9948 39.6402C31.7794 39.6402 32.2352 39.6246 33.7251 39.5569C34.6286 39.5474 35.5237 39.3826 36.3714 39.0698C36.9846 38.8334 37.5416 38.4711 38.0063 38.0063C38.4711 37.5416 38.8334 36.9846 39.0698 36.3714C39.3815 35.527 39.5462 34.6355 39.5569 33.7355C39.6246 32.2404 39.6402 31.7898 39.6402 28.0052C39.6402 24.2207 39.6246 23.7649 39.5569 22.275C39.5474 21.3715 39.3826 20.4764 39.0698 19.6287C38.8334 19.0154 38.4711 18.4585 38.0063 17.9937C37.5416 17.529 36.9846 17.1667 36.3714 16.9303C35.5269 16.6195 34.6353 16.4556 33.7355 16.4458H33.7303ZM28 32.7327C28.9361 32.7327 29.8511 32.4551 30.6294 31.9351C31.4076 31.4151 32.0142 30.6759 32.3724 29.8111C32.7306 28.9464 32.8244 27.9948 32.6417 27.0767C32.4591 26.1587 32.0084 25.3154 31.3465 24.6535C30.6847 23.9917 29.8414 23.5409 28.9233 23.3583C28.0053 23.1757 27.0537 23.2694 26.1889 23.6276C25.3241 23.9858 24.585 24.5924 24.065 25.3707C23.545 26.149 23.2674 27.064 23.2674 28C23.2681 29.255 23.7669 30.4584 24.6543 31.3458C25.5417 32.2332 26.7451 32.732 28 32.7327ZM28 20.7096C29.4425 20.7096 30.8525 21.1373 32.0518 21.9387C33.2512 22.7401 34.1859 23.8791 34.7379 25.2117C35.2899 26.5443 35.4343 28.0107 35.1529 29.4254C34.8715 30.8401 34.1769 32.1396 33.157 33.1596C32.137 34.1795 30.8375 34.8741 29.4228 35.1555C28.0081 35.4369 26.5417 35.2925 25.2091 34.7405C23.8765 34.1885 22.7375 33.2538 21.9361 32.0544C21.1347 30.8551 20.707 29.4451 20.707 28.0026C20.707 26.0684 21.4754 24.2134 22.8431 22.8457C24.2108 21.478 26.0658 20.7096 28 20.7096ZM37.2804 20.4231C37.2804 20.76 37.1805 21.0894 36.9933 21.3695C36.8061 21.6496 36.5401 21.868 36.2288 21.9969C35.9176 22.1258 35.5751 22.1595 35.2446 22.0938C34.9142 22.0281 34.6107 21.8659 34.3724 21.6276C34.1342 21.3894 33.972 21.0859 33.9063 20.7554C33.8405 20.425 33.8743 20.0825 34.0032 19.7712C34.1321 19.46 34.3505 19.1939 34.6306 19.0067C34.9107 18.8196 35.2401 18.7197 35.577 18.7197C36.0287 18.7197 36.462 18.8991 36.7815 19.2186C37.1009 19.538 37.2804 19.9713 37.2804 20.4231Z" fill="white"/>
<defs>
<radialGradient id="paint0_radial_43_76" cx="0" cy="0" r="1" gradientUnits="userSpaceOnUse" gradientTransform="translate(14.2724 54.7119) rotate(-38.74) scale(79.5018 50.8811)">
<stop stop-color="#F9D27A"/>
<stop offset="0.05" stop-color="#F8C871"/>
<stop offset="0.14" stop-color="#F5AD58"/>
<stop offset="0.25" stop-color="#EF8130"/>
<stop offset="0.26" stop-color="#EF7E2D"/>
<stop offset="0.36" stop-color="#F04C3E"/>
<stop offset="0.38" stop-color="#ED4A45"/>
<stop offset="0.49" stop-color="#D43E79"/>
<stop offset="0.55" stop-color="#CA398E"/>
<stop offset="0.7" stop-color="#8D3CC8"/>
<stop offset="0.9" stop-color="#304DF0"/>
</radialGradient>
</defs>
</svg>
