<svg width="42" height="42" viewBox="0 0 42 42" fill="none" xmlns="http://www.w3.org/2000/svg">
<path d="M21 42C32.598 42 42 32.598 42 21C42 9.40202 32.598 0 21 0C9.40202 0 0 9.40202 0 21C0 32.598 9.40202 42 21 42Z" fill="#1B1B1B"/>
<path fill-rule="evenodd" clip-rule="evenodd" d="M21 10.3535C23.8912 10.3535 24.2545 10.3652 25.3895 10.418C26.2728 10.4349 27.1467 10.602 27.974 10.9122C28.6809 11.1863 29.323 11.6048 29.8591 12.1409C30.3953 12.6771 30.8137 13.3191 31.0878 14.0261C31.3974 14.8514 31.5645 15.7234 31.582 16.6047C31.6348 17.7397 31.6465 18.103 31.6465 20.9942C31.6465 23.8853 31.6348 24.2487 31.582 25.3837C31.5651 26.2669 31.398 27.1409 31.0878 27.9681C30.8137 28.6751 30.3953 29.3171 29.8591 29.8533C29.323 30.3894 28.6809 30.8079 27.974 31.082C27.1489 31.3935 26.277 31.5626 25.3953 31.5821C24.2604 31.6348 23.897 31.6465 21.0059 31.6465C18.1147 31.6465 17.7513 31.6348 16.6164 31.5821C15.7331 31.5652 14.8591 31.398 14.0319 31.0878C13.3249 30.8138 12.6829 30.3953 12.1467 29.8591C11.6106 29.323 11.1921 28.6809 10.918 27.974C10.6065 27.149 10.4374 26.277 10.4179 25.3954C10.3652 24.2604 10.3535 23.897 10.3535 21.0059C10.3535 18.1147 10.3652 17.7514 10.4179 16.6164C10.4348 15.7331 10.602 14.8591 10.9122 14.0319C11.1856 13.3239 11.6037 12.6807 12.1399 12.1435C12.6761 11.6063 13.3185 11.1869 14.026 10.9122C14.8514 10.6027 15.7233 10.4355 16.6046 10.418C17.7455 10.3652 18.1088 10.3535 21 10.3535ZM25.2977 12.3344C24.1764 12.2836 23.8384 12.2718 21 12.2718C18.1616 12.2718 17.8197 12.2836 16.7023 12.3344C16.0261 12.3413 15.3561 12.4642 14.7215 12.6977C14.2615 12.875 13.8438 13.1467 13.4953 13.4953C13.1467 13.8439 12.875 14.2616 12.6977 14.7215C12.4639 15.3548 12.3404 16.0234 12.3324 16.6984C12.2816 17.8197 12.2699 18.1577 12.2699 20.9961C12.2699 23.8345 12.2816 24.1764 12.3324 25.2938C12.3395 25.9714 12.463 26.6428 12.6977 27.2785C12.875 27.7385 13.1467 28.1562 13.4953 28.5048C13.8438 28.8533 14.2615 29.125 14.7215 29.3024C15.3548 29.5361 16.0234 29.6597 16.6984 29.6677C17.8197 29.7184 18.1577 29.7302 20.9961 29.7302C23.8345 29.7302 24.1764 29.7184 25.2938 29.6677C25.9714 29.6606 26.6428 29.537 27.2785 29.3024C27.7385 29.125 28.1562 28.8533 28.5047 28.5048C28.8533 28.1562 29.125 27.7385 29.3023 27.2785C29.5361 26.6453 29.6596 25.9766 29.6676 25.3016C29.7184 24.1803 29.7301 23.8424 29.7301 21.0039C29.7301 18.1655 29.7184 17.8237 29.6676 16.7063C29.6605 16.0286 29.537 15.3573 29.3023 14.7215C29.125 14.2616 28.8533 13.8439 28.5047 13.4953C28.1562 13.1467 27.7385 12.875 27.2785 12.6977C26.6451 12.4646 25.9765 12.3417 25.3016 12.3344H25.2977ZM21 24.5495C21.702 24.5495 22.3883 24.3413 22.972 23.9513C23.5557 23.5613 24.0106 23.0069 24.2793 22.3584C24.5479 21.7098 24.6182 20.9961 24.4813 20.3076C24.3443 19.619 24.0063 18.9866 23.5099 18.4902C23.0135 17.9938 22.381 17.6557 21.6925 17.5187C21.0039 17.3818 20.2902 17.4521 19.6417 17.7207C18.9931 17.9894 18.4387 18.4443 18.0487 19.028C17.6587 19.6117 17.4505 20.298 17.4505 21C17.451 21.9413 17.8252 22.8438 18.4907 23.5093C19.1562 24.1749 20.0588 24.549 21 24.5495ZM21 15.5322C22.0818 15.5322 23.1393 15.853 24.0388 16.454C24.9383 17.0551 25.6394 17.9093 26.0534 18.9088C26.4674 19.9083 26.5757 21.008 26.3647 22.0691C26.1536 23.1301 25.6327 24.1047 24.8677 24.8697C24.1027 25.6347 23.1281 26.1556 22.0671 26.3666C21.0061 26.5777 19.9063 26.4694 18.9068 26.0554C17.9073 25.6414 17.0531 24.9403 16.452 24.0408C15.851 23.1413 15.5302 22.0838 15.5302 21.002C15.5302 19.5513 16.1065 18.1601 17.1323 17.1343C18.1581 16.1085 19.5493 15.5322 21 15.5322ZM27.9603 15.3173C27.9603 15.57 27.8853 15.817 27.745 16.0271C27.6046 16.2372 27.405 16.401 27.1716 16.4977C26.9382 16.5944 26.6813 16.6197 26.4335 16.5704C26.1856 16.5211 25.958 16.3994 25.7793 16.2207C25.6006 16.042 25.479 15.8144 25.4297 15.5666C25.3804 15.3187 25.4057 15.0619 25.5024 14.8284C25.5991 14.595 25.7628 14.3954 25.9729 14.2551C26.183 14.1147 26.43 14.0397 26.6827 14.0397C27.0215 14.0397 27.3465 14.1744 27.5861 14.4139C27.8257 14.6535 27.9603 14.9785 27.9603 15.3173Z" fill="white"/>
</svg>
