<svg width="36" height="36" viewBox="0 0 36 36" fill="none" xmlns="http://www.w3.org/2000/svg">
<path d="M18 36C27.9411 36 36 27.9411 36 18C36 8.05888 27.9411 0 18 0C8.05888 0 0 8.05888 0 18C0 27.9411 8.05888 36 18 36Z" fill="white"/>
<path fill-rule="evenodd" clip-rule="evenodd" d="M18 8.87442C20.4781 8.87442 20.7896 8.88447 21.7624 8.92968C22.5195 8.94416 23.2686 9.08742 23.9776 9.3533C24.5836 9.58823 25.1339 9.94692 25.5935 10.4065C26.0531 10.866 26.4117 11.4164 26.6467 12.0223C26.912 12.7298 27.0552 13.4771 27.0703 14.2326C27.1155 15.2054 27.1256 15.5168 27.1256 17.995C27.1256 20.4731 27.1155 20.7846 27.0703 21.7574C27.0558 22.5145 26.9126 23.2636 26.6467 23.9727C26.4117 24.5786 26.0531 25.1289 25.5935 25.5885C25.1339 26.0481 24.5836 26.4068 23.9776 26.6417C23.2705 26.9087 22.5231 27.0537 21.7674 27.0703C20.7946 27.1155 20.4831 27.1256 18.005 27.1256C15.5269 27.1256 15.2154 27.1155 14.2426 27.0703C13.4855 27.0558 12.7363 26.9126 12.0273 26.6467C11.4213 26.4118 10.871 26.0531 10.4115 25.5935C9.95191 25.134 9.59322 24.5836 9.3583 23.9777C9.09126 23.2705 8.9463 22.5231 8.92964 21.7674C8.88443 20.7946 8.87439 20.4832 8.87439 18.005C8.87439 15.5269 8.88443 15.2154 8.92964 14.2426C8.94413 13.4855 9.08738 12.7364 9.35327 12.0274C9.58761 11.4205 9.94604 10.8691 10.4056 10.4087C10.8652 9.94824 11.4158 9.58878 12.0223 9.3533C12.7297 9.08798 13.4771 8.94473 14.2325 8.92968C15.2104 8.88447 15.5218 8.87442 18 8.87442ZM21.6837 10.5723C20.7226 10.5287 20.4329 10.5187 18 10.5187C15.567 10.5187 15.274 10.5287 14.3162 10.5723C13.7366 10.5782 13.1624 10.6836 12.6184 10.8837C12.2241 11.0357 11.8661 11.2686 11.5673 11.5674C11.2686 11.8661 11.0357 12.2242 10.8837 12.6184C10.6833 13.1612 10.5774 13.7344 10.5706 14.3129C10.527 15.274 10.517 15.5637 10.517 17.9967C10.517 20.4296 10.527 20.7226 10.5706 21.6804C10.5767 22.2612 10.6826 22.8367 10.8837 23.3816C11.0357 23.7758 11.2686 24.1339 11.5673 24.4326C11.8661 24.7314 12.2241 24.9643 12.6184 25.1163C13.1612 25.3166 13.7343 25.4225 14.3129 25.4294C15.274 25.4729 15.5637 25.483 17.9966 25.483C20.4296 25.483 20.7226 25.4729 21.6803 25.4294C22.2612 25.4233 22.8366 25.3174 23.3816 25.1163C23.7758 24.9643 24.1338 24.7314 24.4326 24.4326C24.7314 24.1339 24.9643 23.7758 25.1162 23.3816C25.3166 22.8388 25.4225 22.2656 25.4294 21.6871C25.4729 20.726 25.4829 20.4363 25.4829 18.0033C25.4829 15.5704 25.4729 15.2774 25.4294 14.3196C25.4233 13.7388 25.3174 13.1633 25.1162 12.6184C24.9643 12.2242 24.7314 11.8661 24.4326 11.5674C24.1338 11.2686 23.7758 11.0357 23.3816 10.8837C22.8386 10.6839 22.2655 10.5786 21.687 10.5723H21.6837ZM18 21.0424C18.6017 21.0424 19.1899 20.864 19.6902 20.5297C20.1906 20.1954 20.5805 19.7202 20.8108 19.1643C21.0411 18.6084 21.1013 17.9966 20.9839 17.4065C20.8665 16.8163 20.5768 16.2742 20.1513 15.8487C19.7258 15.4232 19.1837 15.1334 18.5935 15.016C18.0033 14.8986 17.3916 14.9589 16.8357 15.1892C16.2798 15.4194 15.8046 15.8094 15.4703 16.3097C15.136 16.81 14.9575 17.3983 14.9575 18C14.958 18.8068 15.2787 19.5804 15.8491 20.1508C16.4196 20.7213 17.1932 21.042 18 21.0424ZM18 13.3133C18.9272 13.3133 19.8337 13.5883 20.6047 14.1034C21.3757 14.6186 21.9766 15.3508 22.3315 16.2075C22.6863 17.0642 22.7792 18.0069 22.5983 18.9163C22.4174 19.8258 21.9708 20.6612 21.3151 21.3169C20.6595 21.9725 19.8241 22.4191 18.9146 22.6C18.0052 22.7809 17.0625 22.688 16.2058 22.3332C15.3491 21.9783 14.6169 21.3774 14.1017 20.6064C13.5866 19.8354 13.3116 18.9289 13.3116 18.0017C13.3116 16.7582 13.8056 15.5657 14.6848 14.6865C15.564 13.8073 16.7565 13.3133 18 13.3133ZM23.9659 13.1291C23.9659 13.3457 23.9017 13.5574 23.7814 13.7375C23.661 13.9176 23.49 14.0579 23.2899 14.1408C23.0898 14.2237 22.8696 14.2454 22.6572 14.2031C22.4448 14.1609 22.2497 14.0566 22.0965 13.9034C21.9434 13.7503 21.8391 13.5552 21.7968 13.3428C21.7546 13.1303 21.7763 12.9102 21.8591 12.7101C21.942 12.51 22.0824 12.3389 22.2625 12.2186C22.4425 12.0983 22.6543 12.034 22.8709 12.034C23.1613 12.034 23.4398 12.1494 23.6452 12.3548C23.8505 12.5602 23.9659 12.8387 23.9659 13.1291Z" fill="black"/>
</svg>
