<svg width="38" height="38" viewBox="0 0 38 38" fill="none" xmlns="http://www.w3.org/2000/svg">
<path d="M19 38C29.4934 38 38 29.4934 38 19C38 8.50659 29.4934 0 19 0C8.50659 0 0 8.50659 0 19C0 29.4934 8.50659 38 19 38Z" fill="url(#paint0_linear_43_50)"/>
<path fill-rule="evenodd" clip-rule="evenodd" d="M8.71533 18.673C14.2404 16.2658 17.9243 14.6786 19.7671 13.9115C25.0306 11.7234 26.1299 11.3434 26.8369 11.3293C27.0991 11.3242 27.3562 11.4015 27.5722 11.5502C27.7237 11.6809 27.8203 11.864 27.8426 12.0628C27.8807 12.3101 27.8913 12.5608 27.8744 12.8104C27.5898 15.8151 26.3544 23.0775 25.727 26.4339C25.4618 27.8478 24.9387 28.3303 24.4314 28.378C23.3321 28.4788 22.4872 27.6499 21.4268 26.9517C19.7583 25.8577 18.8163 25.1843 17.1973 24.1097C15.3256 22.8725 16.5398 22.1991 17.6056 21.0927C17.8848 20.8028 22.7311 16.3913 22.8266 15.9918C22.8392 15.9328 22.8377 15.8717 22.8224 15.8134C22.807 15.7551 22.7782 15.7012 22.7382 15.656C22.6802 15.6197 22.6145 15.5975 22.5464 15.5911C22.4783 15.5846 22.4096 15.5942 22.3458 15.6189C22.1797 15.6554 19.5156 17.4164 14.3535 20.9018C13.597 21.4214 12.9118 21.6747 12.2979 21.6618C11.621 21.6459 10.3202 21.2782 9.3516 20.9548C8.16565 20.5695 7.23068 20.3662 7.30491 19.7176C7.34851 19.3782 7.81865 19.03 8.71533 18.673Z" fill="white"/>
<defs>
<linearGradient id="paint0_linear_43_50" x1="0" y1="19" x2="38" y2="19" gradientUnits="userSpaceOnUse">
<stop stop-color="#2AABEE"/>
<stop offset="1" stop-color="#229ED9"/>
</linearGradient>
</defs>
</svg>
