<svg width="56" height="56" viewBox="0 0 56 56" fill="none" xmlns="http://www.w3.org/2000/svg">
<path d="M28 56C43.464 56 56 43.464 56 28C56 12.536 43.464 0 28 0C12.536 0 0 12.536 0 28C0 43.464 12.536 56 28 56Z" fill="#0077FF"/>
<path d="M29.0263 38.3249C18.1701 38.3249 11.9814 30.8808 11.7209 18.493H17.1569C17.3366 27.5833 21.3451 31.4356 24.5202 32.23V18.493H29.6436V26.333C32.7691 25.997 36.0744 22.4261 37.184 18.493H42.3074C41.453 23.3351 37.8795 26.9087 35.3399 28.3777C37.3262 29.364 39.0804 30.7608 40.4867 32.4755C41.893 34.1903 42.9192 36.184 43.4977 38.3249H37.8612C36.6501 34.5533 33.6313 31.6361 29.6436 31.2402V38.3249H29.0263Z" fill="white"/>
</svg>
