<svg width="37" height="36" viewBox="0 0 37 36" fill="none" xmlns="http://www.w3.org/2000/svg">
<g clip-path="url(#clip0_7_187)">
<path d="M18.8 36C28.7412 36 36.8 27.9411 36.8 18C36.8 8.05888 28.7412 0 18.8 0C8.85892 0 0.800049 8.05888 0.800049 18C0.800049 27.9411 8.85892 36 18.8 36Z" fill="white"/>
<path d="M19.4598 24.6374C12.4808 24.6374 8.5024 19.8519 8.33496 11.8884H11.8295C11.945 17.7321 14.5219 20.2086 16.5631 20.7192V11.8884H19.8566V16.9284C21.8659 16.7124 23.9908 14.4167 24.7041 11.8884H27.9977C27.4485 15.0011 25.1511 17.2984 23.5186 18.2428C24.7955 18.8769 25.9232 19.7748 26.8272 20.8771C27.7313 21.9794 28.391 23.2611 28.7629 24.6374H25.1394C24.3608 22.2128 22.4202 20.3375 19.8566 20.083V24.6374H19.4598Z" fill="black"/>
</g>
<defs>
<clipPath id="clip0_7_187">
<rect width="36" height="36" fill="white" transform="translate(0.800049)"/>
</clipPath>
</defs>
</svg>
