<svg width="46" height="46" viewBox="0 0 46 46" fill="none" xmlns="http://www.w3.org/2000/svg">
<path d="M18.7121 17.056C14.2989 17.056 10.7085 20.6465 10.7085 25.0597C10.7085 29.4729 14.2989 33.0633 18.7121 33.0633C23.1254 33.0633 26.7158 29.4729 26.7158 25.0597C26.7158 20.6465 23.1254 17.056 18.7121 17.056ZM18.7121 31.6882C15.0571 31.6882 12.0836 28.7147 12.0836 25.0597C12.0836 21.4046 15.0571 18.4311 18.7121 18.4311C22.3672 18.4311 25.3407 21.4046 25.3407 25.0597C25.3407 28.7147 22.3672 31.6882 18.7121 31.6882Z" fill="white"/>
<path d="M22.6817 24.3712C20.8725 24.3712 19.4006 22.8993 19.4006 21.0901C19.4006 20.7102 19.0931 20.4026 18.7131 20.4026C16.1457 20.4026 14.0569 22.4914 14.0569 25.0587C14.0569 27.6275 16.1457 29.7167 18.7131 29.7167C21.2804 29.7167 23.3692 27.627 23.3692 25.0587C23.3692 24.6792 23.0617 24.3712 22.6817 24.3712ZM18.7131 28.3416C16.9039 28.3416 15.432 26.8688 15.432 25.0587C15.432 23.4641 16.5757 22.1316 18.0856 21.8378C18.405 23.8074 19.9644 25.3672 21.9341 25.6862C21.6402 27.1975 20.3078 28.3416 18.7131 28.3416Z" fill="white"/>
<path d="M44.3292 17.458C43.9744 17.3292 43.578 17.5121 43.4482 17.8687C41.9604 21.9579 37.262 23.9454 35.7531 24.4895C35.2237 23.8381 34.058 22.4827 32.3978 20.9857C34.4389 20.1881 38.8668 18.0145 40.4294 13.7214C40.5591 13.3643 40.3753 12.9696 40.0187 12.8399C39.6639 12.7102 39.2674 12.894 39.1377 13.2506C37.5554 17.5969 32.3474 19.5688 31.1987 19.9566C30.0211 18.9963 28.8284 18.1731 27.6316 17.4878C29.4825 16.2736 33.3228 13.2557 33.9737 8.76637C34.0282 8.3905 33.7679 8.04168 33.3915 7.98713C33.0166 7.93121 32.6673 8.1934 32.6128 8.56881C31.9513 13.1319 27.281 16.1196 26.2171 16.7453C24.5802 15.961 22.9452 15.4412 21.3423 15.2005C22.5863 14.2123 24.2035 12.5236 24.5344 10.23C24.5885 9.85408 24.3281 9.50526 23.9523 9.45117C23.5732 9.39434 23.2276 9.65744 23.1735 10.0333C22.7335 13.0815 19.2402 14.9736 19.2049 14.9924C19.1756 15.008 19.1499 15.0277 19.1238 15.0465C8.97402 15.1538 1.51859 24.4844 1.2046 24.8841C1.1936 24.8979 1.18673 24.913 1.1771 24.9272C1.16335 24.9478 1.14914 24.968 1.13768 24.9895C1.12668 25.0102 1.11889 25.0313 1.11064 25.0523C1.10284 25.0721 1.09414 25.0918 1.08772 25.1119C1.08084 25.1349 1.07672 25.1582 1.07259 25.1821C1.06892 25.2022 1.06434 25.2219 1.06251 25.2421C1.06022 25.265 1.06067 25.2875 1.06067 25.3104C1.06067 25.332 1.06022 25.3535 1.06205 25.3746C1.06434 25.3961 1.06892 25.4172 1.07305 25.4388C1.07718 25.4608 1.08084 25.4832 1.08726 25.5048C1.09368 25.5263 1.10284 25.5469 1.11155 25.568C1.1198 25.5877 1.12714 25.6079 1.13722 25.6271C1.14914 25.6501 1.16472 25.6716 1.17939 25.6936C1.1881 25.7064 1.19452 25.7207 1.2046 25.733C1.52042 26.135 9.05882 35.5743 19.298 35.5743C21.0453 35.5743 22.848 35.22 24.665 34.5356C25.3086 34.7776 27.3048 35.6527 27.9053 37.3927C28.0038 37.6773 28.2701 37.8561 28.5552 37.8561C28.6295 37.8561 28.7051 37.8441 28.7794 37.8185C29.1383 37.6943 29.329 37.3033 29.2052 36.9444C28.6694 35.3914 27.3814 34.3912 26.345 33.8091C27.5124 33.2398 28.6808 32.5385 29.8387 31.7043C30.6771 32.0013 34.4087 33.4814 35.5005 36.634C35.5986 36.9187 35.8649 37.097 36.15 37.097C36.2247 37.097 36.3004 37.0851 36.3746 37.059C36.7335 36.9347 36.9238 36.5433 36.7995 36.1848C35.7334 33.105 32.7237 31.4292 31.113 30.7293C31.1542 30.6958 31.1964 30.6647 31.2376 30.6307C32.2488 29.8029 33.1216 28.9815 33.8398 28.2513C34.1905 28.3435 38.5501 29.5504 39.922 32.891C40.0311 33.1568 40.2878 33.3177 40.5587 33.3177C40.6453 33.3177 40.7342 33.3012 40.819 33.2664C41.1706 33.1225 41.3383 32.7205 41.194 32.3693C39.8725 29.1511 36.4237 27.6564 34.8904 27.1347C35.4152 26.5494 35.7787 26.1011 35.9538 25.8783C37.3115 25.4282 42.9358 23.2982 44.7399 18.3395C44.8701 17.9824 44.6858 17.5877 44.3292 17.458ZM19.298 34.2001C10.9262 34.2001 4.23078 27.1324 2.64344 25.3086C4.2294 23.4838 10.9143 16.4171 19.298 16.4171C26.8318 16.4171 33.1591 23.5081 34.6443 25.309C33.1591 27.11 26.8322 34.2001 19.298 34.2001Z" fill="white"/>
</svg>
