<svg width="46" height="46" viewBox="0 0 46 46" fill="none" xmlns="http://www.w3.org/2000/svg">
<path d="M14.8446 20.6634C14.8904 20.6634 14.8904 20.6634 14.9362 20.6634C14.982 20.6634 15.0279 20.6634 15.0737 20.6634C16.8605 23.2291 19.7928 24.8327 23.0458 24.8327C26.482 24.8327 29.5059 23.0458 31.247 20.3426C32.484 20.0677 33.7669 18.1893 33.996 17.7769C34.7291 16.5399 35.0498 15.4403 35.0498 14.0199C35.0498 7.33069 29.5976 1.92432 22.9542 1.92432H22.9083C16.2191 1.92432 10.7669 7.33069 10.7669 14.0199V16.5857C10.7669 17.6853 11.2251 18.7391 12.004 19.5179C12.7828 20.251 13.7908 20.6634 14.8446 20.6634ZM23.0458 23.4582C19.7928 23.4582 16.8605 21.5797 15.486 18.6016L16.2191 18.1434C18.5099 16.6773 21.1673 15.0279 22.7251 13.3785C25.1992 10.8128 27.0318 8.84264 27.6733 8.15539C30.0099 9.66734 31.4303 12.2789 31.4303 15.1195C31.3844 19.7012 27.6275 23.4582 23.0458 23.4582ZM12.1414 14.0199C12.1414 8.10958 16.9522 3.29882 22.8625 3.29882H22.9083C28.8187 3.29882 33.6295 8.10958 33.6295 14.0199C33.6295 14.9821 33.492 15.8526 32.8048 17.0438C32.6673 17.2271 32.5299 17.4104 32.3924 17.6395C32.6215 16.8606 32.7131 16.0359 32.7131 15.1654C32.7131 11.8665 31.0179 8.79683 28.2689 7.00997C27.9482 6.78089 27.6275 6.73507 27.3526 6.73507C27.0318 6.78089 26.8486 7.00997 26.5279 7.33069C25.8406 8.06376 24.0538 9.94224 21.6713 12.4622C20.2052 13.9741 17.5478 15.6693 15.4402 16.998L14.6613 17.502C14.3864 17.6853 14.2032 17.9602 14.1115 18.2809C14.0199 18.4183 13.9741 18.6474 14.0657 18.8307C14.0657 18.9681 14.0657 19.0598 14.0657 19.1972C13.6534 19.0598 13.241 18.8307 12.9203 18.51C12.4163 18.006 12.0956 17.3187 12.0956 16.5857L12.1414 14.0199Z" fill="white"/>
<path d="M22.9083 26.3446C13.6076 26.3446 6.04779 33.9044 6.04779 43.2052C6.04779 43.5717 6.36851 43.8924 6.73504 43.8924H39.1275C39.494 43.8924 39.8147 43.5717 39.8147 43.2052C39.7689 33.9044 32.2091 26.3446 22.9083 26.3446ZM31.3844 30.239C30.1474 33.8585 26.757 36.2868 22.9083 36.2868C19.0597 36.2868 15.6693 33.8585 14.4323 30.239C16.8605 28.6354 19.7928 27.7191 22.9083 27.7191C26.0239 27.7191 28.9562 28.6354 31.3844 30.239ZM7.42229 42.5179C7.60556 37.8904 9.85058 33.7669 13.2868 31.0637C14.8446 35.0498 18.6016 37.6613 22.9083 37.6613C27.2151 37.6613 31.0179 35.0498 32.5299 31.0637C35.9203 33.7669 38.1653 37.8904 38.3944 42.5179H7.42229Z" fill="white"/>
</svg>
