<svg width="46" height="46" viewBox="0 0 46 46" fill="none" xmlns="http://www.w3.org/2000/svg">
<path d="M41.1131 30.5148L32.1955 16.396L35.9802 10.4752C36.7872 9.28541 37.1037 7.83007 36.8638 6.41262C36.7893 6.01483 36.6356 5.63608 36.4118 5.29887C36.1881 4.96165 35.8988 4.67286 35.5612 4.44965L35.3517 4.31302C33.6529 3.22906 31.1707 4.16727 29.7042 6.45817L26.1472 12.0055L6.46735 10.1837C6.34291 10.1721 6.21766 10.1948 6.10523 10.2494C5.9928 10.304 5.89751 10.3884 5.82973 10.4934L4.3723 12.7524C4.31625 12.8394 4.28068 12.938 4.26829 13.0407C4.2559 13.1435 4.26702 13.2477 4.30079 13.3455C4.33457 13.4433 4.39012 13.5322 4.46326 13.6054C4.5364 13.6786 4.62521 13.7342 4.723 13.7681L21.324 19.5431L15.0297 29.3671L5.26042 30.3144C5.14295 30.3258 5.03044 30.3675 4.93386 30.4353C4.83728 30.5032 4.75993 30.5949 4.70933 30.7015L3.93508 32.3366C3.88999 32.4321 3.86766 32.5367 3.86984 32.6423C3.87201 32.7479 3.89864 32.8516 3.94763 32.9451C3.99662 33.0387 4.06663 33.1196 4.15217 33.1816C4.23771 33.2435 4.33644 33.2848 4.44062 33.3021L15.7129 35.2196L22.1711 44.6336C22.2305 44.7202 22.3091 44.792 22.4007 44.8434C22.4923 44.8947 22.5945 44.9242 22.6994 44.9296H22.7313C22.8313 44.9295 22.93 44.9074 23.0205 44.8649C23.111 44.8224 23.1911 44.7605 23.2551 44.6837L24.421 43.3174C24.4975 43.2267 24.549 43.1178 24.5705 43.0012C24.5921 42.8846 24.583 42.7644 24.544 42.6524L21.3103 33.375L27.4315 23.8106L38.6218 33.6574C38.6958 33.722 38.7828 33.77 38.877 33.7979C38.9712 33.8259 39.0703 33.8332 39.1676 33.8193C39.2649 33.8055 39.358 33.7709 39.4407 33.7178C39.5233 33.6647 39.5935 33.5943 39.6466 33.5116L41.1085 31.2344C41.1762 31.1268 41.2124 31.0024 41.2132 30.8752C41.2141 30.7481 41.1794 30.6233 41.1131 30.5148ZM38.927 32.1089L27.7367 22.2667C27.6627 22.202 27.5756 22.1541 27.4815 22.1261C27.3873 22.0982 27.2882 22.0909 27.1909 22.1047C27.0936 22.1185 27.0005 22.1532 26.9178 22.2063C26.8352 22.2594 26.7649 22.3297 26.7119 22.4124L19.9804 32.9241C19.925 33.0112 19.8901 33.1098 19.8783 33.2123C19.8665 33.3149 19.878 33.4187 19.9121 33.5162L23.1276 42.739L22.7905 43.1397L16.7149 34.2677C16.6627 34.193 16.5961 34.1295 16.519 34.0809L16.3961 34.0081C16.3188 33.9576 16.232 33.9235 16.141 33.9079L5.53824 32.0861L5.76141 31.6306L15.4852 30.6924C15.5881 30.6828 15.6875 30.6499 15.7758 30.5962C15.8642 30.5426 15.9392 30.4696 15.9953 30.3827L22.9408 19.5477C22.9969 19.4607 23.0324 19.3621 23.0448 19.2594C23.0572 19.1566 23.0461 19.0524 23.0123 18.9546C22.9786 18.8568 22.923 18.7679 22.8499 18.6947C22.7767 18.6215 22.6879 18.5659 22.5901 18.532L5.98914 12.7524L6.75428 11.5546L26.4341 13.3764C26.5587 13.3896 26.6845 13.3676 26.7973 13.3128C26.91 13.2581 27.0051 13.1728 27.0717 13.0667L30.8474 7.19599C31.8812 5.60648 33.5891 4.81401 34.6139 5.46529L34.8279 5.60648C35.1955 5.86653 35.4458 6.26085 35.5248 6.70411C35.6878 7.7677 35.4368 8.85331 34.8234 9.73737L30.8155 15.9998C30.7458 16.1093 30.7088 16.2365 30.7088 16.3664C30.7088 16.4963 30.7458 16.6234 30.8155 16.733L39.7331 30.8518L38.927 32.1089Z" fill="white"/>
</svg>
