<svg width="65" height="65" viewBox="0 0 65 65" fill="none" xmlns="http://www.w3.org/2000/svg">
<path d="M47.7203 32.6215C47.7203 24.0387 40.7373 17.0557 32.1538 17.0557C23.569 17.0557 16.5847 24.0387 16.5847 32.6215C16.5847 41.205 23.569 48.188 32.1538 48.188C40.7373 48.188 47.7203 41.205 47.7203 32.6215ZM18.7565 32.6215C18.7565 25.2363 24.7666 19.2274 32.1538 19.2274C39.5397 19.2274 45.5485 25.2356 45.5485 32.6215C45.5485 40.0074 39.5397 46.0162 32.1538 46.0162C24.7666 46.0162 18.7565 40.0074 18.7565 32.6215Z" fill="white"/>
<path d="M32.1538 14.7439C32.7536 14.7439 33.2394 14.2581 33.2394 13.6584V5.52502C33.2394 4.92524 32.7536 4.43945 32.1538 4.43945C31.554 4.43945 31.0682 4.92524 31.0682 5.52502V13.6584C31.0682 14.2581 31.554 14.7439 32.1538 14.7439Z" fill="white"/>
<path d="M38.9755 16.0005C39.1038 16.0498 39.2352 16.0731 39.3648 16.0731C39.8013 16.0731 40.2126 15.8082 40.3785 15.3768L43.2977 7.78429C43.5128 7.22467 43.2336 6.59639 42.674 6.3807C42.1137 6.16436 41.4861 6.44482 41.2704 7.00444L38.3511 14.5969C38.1367 15.1572 38.4159 15.7855 38.9755 16.0005Z" fill="white"/>
<path d="M46.3057 20.0215C46.6075 20.0215 46.9081 19.8964 47.1224 19.651L52.4816 13.5378C52.8767 13.087 52.8321 12.4011 52.3806 12.0053C51.9304 11.6102 51.2439 11.6543 50.8481 12.1064L45.4889 18.2195C45.0938 18.6703 45.1385 19.3563 45.59 19.752C45.7959 19.9327 46.0511 20.0215 46.3057 20.0215Z" fill="white"/>
<path d="M49.1796 25.1404C49.335 25.5893 49.7554 25.8711 50.2056 25.8711C50.3235 25.8711 50.4433 25.8516 50.5605 25.8115L58.2534 23.1474C58.8202 22.9512 59.1207 22.3326 58.9244 21.7665C58.7282 21.1997 58.1083 20.8992 57.5435 21.0955L49.8506 23.7589C49.2832 23.9558 48.9827 24.5743 49.1796 25.1404Z" fill="white"/>
<path d="M59.8034 32.1816H51.6649C51.0651 32.1816 50.5793 32.6674 50.5793 33.2672C50.5793 33.867 51.0651 34.3528 51.6649 34.3528H59.8034C60.4032 34.3528 60.8896 33.867 60.8896 33.2672C60.8896 32.6674 60.4032 32.1816 59.8034 32.1816Z" fill="white"/>
<path d="M32.1538 50.6545C31.554 50.6545 31.0682 51.1403 31.0682 51.7401V59.8741C31.0682 60.4739 31.554 60.9597 32.1538 60.9597C32.7536 60.9597 33.2394 60.4739 33.2394 59.8741V51.7401C33.2394 51.141 32.7536 50.6545 32.1538 50.6545Z" fill="white"/>
<path d="M40.3791 50.0215C40.1641 49.4619 39.5358 49.1815 38.9755 49.3978C38.4159 49.6135 38.1367 50.2411 38.3518 50.8014L41.271 58.3939C41.4368 58.8259 41.8488 59.0902 42.2847 59.0902C42.4142 59.0902 42.5457 59.0669 42.674 59.0176C43.2336 58.8019 43.5127 58.1743 43.2977 57.614L40.3791 50.0215Z" fill="white"/>
<path d="M47.1224 45.7473C46.7267 45.2958 46.0408 45.2518 45.59 45.6462C45.1392 46.0413 45.0938 46.7273 45.4889 47.1787L50.8481 53.2931C51.0631 53.538 51.363 53.6636 51.6649 53.6636C51.9194 53.6636 52.1746 53.5749 52.3799 53.3942C52.8308 52.9991 52.8761 52.3131 52.481 51.8617L47.1224 45.7473Z" fill="white"/>
<path d="M58.2541 42.2516L50.5612 39.5863C49.9951 39.39 49.3765 39.6899 49.1796 40.2566C48.9833 40.8234 49.2832 41.442 49.85 41.6382L57.5429 44.3036C57.6608 44.3444 57.7806 44.3638 57.8985 44.3638C58.3486 44.3638 58.769 44.082 58.9244 43.6332C59.1207 43.0664 58.8208 42.4479 58.2541 42.2516Z" fill="white"/>
<path d="M24.718 15.3774C24.8839 15.8087 25.2958 16.0737 25.7317 16.0737C25.8613 16.0737 25.9927 16.0503 26.1216 16.0011C26.6813 15.7854 26.9604 15.1571 26.7454 14.5975L23.8255 7.00632C23.6104 6.44734 22.9835 6.16623 22.4219 6.38257C21.8623 6.59826 21.5831 7.22654 21.7981 7.78617L24.718 15.3774Z" fill="white"/>
<path d="M17.9747 19.6523C18.1897 19.8971 18.4896 20.0228 18.7915 20.0228C19.046 20.0228 19.3012 19.934 19.5065 19.7533C19.9573 19.3582 20.0027 18.6723 19.6076 18.2208L14.2478 12.1064C13.852 11.6549 13.1661 11.6109 12.7153 12.0054C12.2645 12.4005 12.2191 13.0864 12.6142 13.5378L17.9747 19.6523Z" fill="white"/>
<path d="M6.84309 23.1492L14.536 25.812C14.6539 25.8521 14.7737 25.8715 14.8909 25.8715C15.3411 25.8715 15.7615 25.5898 15.9169 25.1409C16.1132 24.5742 15.8126 23.9556 15.2459 23.7593L7.55299 21.0966C6.98624 20.9016 6.36767 21.2015 6.17141 21.7676C5.9758 22.3344 6.27634 22.9523 6.84309 23.1492Z" fill="white"/>
<path d="M14.5172 33.2692C14.5172 32.6694 14.0308 32.1836 13.431 32.1836H5.29246C4.69268 32.1836 4.20689 32.6694 4.20689 33.2692C4.20689 33.8689 4.69268 34.3547 5.29246 34.3547H13.431C14.0308 34.3547 14.5172 33.8683 14.5172 33.2692Z" fill="white"/>
<path d="M26.121 49.4C25.562 49.1843 24.9331 49.4641 24.7174 50.0237L21.7975 57.6169C21.5825 58.1765 21.8616 58.8048 22.4213 59.0205C22.5495 59.0697 22.681 59.093 22.8105 59.093C23.2471 59.093 23.6584 58.8281 23.8242 58.3967L26.7441 50.8036C26.9604 50.2439 26.6813 49.6157 26.121 49.4Z" fill="white"/>
<path d="M17.9747 45.7501L12.6149 51.8625C12.2198 52.3134 12.2645 52.9993 12.7153 53.395C12.9212 53.5757 13.1764 53.6645 13.431 53.6645C13.7328 53.6645 14.0334 53.5395 14.2478 53.2946L19.6076 47.1822C20.0027 46.7314 19.958 46.0454 19.5072 45.6497C19.0564 45.2546 18.3705 45.298 17.9747 45.7501Z" fill="white"/>
<path d="M15.9176 40.2594C15.7213 39.6927 15.104 39.3915 14.536 39.5884L6.84309 42.2511C6.27634 42.4474 5.9758 43.066 6.17206 43.6327C6.32751 44.0816 6.74852 44.3633 7.19804 44.3633C7.31592 44.3633 7.43575 44.3439 7.55298 44.3037L15.2459 41.641C15.8133 41.4447 16.1138 40.8262 15.9176 40.2594Z" fill="white"/>
</svg>
