<svg width="60" height="60" viewBox="0 0 60 60" fill="none" xmlns="http://www.w3.org/2000/svg">
<path d="M38.892 24.516C38.518 24.5159 38.1473 24.5871 37.8 24.726V24.444C37.7984 23.5899 37.4584 22.7713 36.8545 22.1674C36.2506 21.5635 35.432 21.2236 34.578 21.222H34.428C33.9081 21.2264 33.3971 21.3582 32.94 21.606C32.7897 20.8797 32.3939 20.2272 31.8191 19.7585C31.2444 19.2897 30.5257 19.0331 29.784 19.032C29.2355 19.0314 28.6947 19.161 28.206 19.41V14.754H33.906C34.1447 14.754 34.3736 14.6591 34.5424 14.4904C34.7112 14.3216 34.806 14.0927 34.806 13.854V5.09997C34.806 4.98127 34.7825 4.86375 34.7369 4.75416C34.6913 4.64458 34.6245 4.5451 34.5403 4.46144C34.4561 4.37779 34.3561 4.31162 34.2463 4.26675C34.1364 4.22187 34.0187 4.19918 33.9 4.19997H15.3C15.0613 4.19997 14.8324 4.29479 14.6636 4.46357C14.4948 4.63236 14.4 4.86128 14.4 5.09997V13.854C14.4 14.0927 14.4948 14.3216 14.6636 14.4904C14.8324 14.6591 15.0613 14.754 15.3 14.754H21.6V36.774L16.326 32.454C15.2672 31.5681 13.916 31.1091 12.5366 31.1668C11.1573 31.2245 9.8491 31.7947 8.868 32.766C8.71019 32.9219 8.61555 33.1307 8.60226 33.3522C8.58897 33.5737 8.65797 33.7923 8.796 33.966L21.6 50.334V57.9C21.6 58.1387 21.6948 58.3676 21.8636 58.5364C22.0324 58.7052 22.2613 58.8 22.5 58.8C22.7387 58.8 22.9676 58.7052 23.1364 58.5364C23.3052 58.3676 23.4 58.1387 23.4 57.9V50.022C23.3992 49.8217 23.3316 49.6275 23.208 49.47L10.752 33.534C11.4244 33.1059 12.2158 32.9035 13.0112 32.9564C13.8065 33.0093 14.5642 33.3146 15.174 33.828L21.93 39.366C22.0614 39.4735 22.2206 39.5417 22.3891 39.5626C22.5577 39.5836 22.7287 39.5564 22.8824 39.4842C23.0362 39.4121 23.1664 39.2979 23.2579 39.1548C23.3495 39.0118 23.3988 38.8458 23.4 38.676V11.766C23.4016 11.3893 23.5519 11.0285 23.8182 10.7622C24.0846 10.4959 24.4453 10.3456 24.822 10.344H24.972C25.3497 10.344 25.712 10.4936 25.9796 10.7601C26.2473 11.0266 26.3984 11.3883 26.4 11.766V30.9C26.4 31.1387 26.4948 31.3676 26.6636 31.5364C26.8324 31.7052 27.0613 31.8 27.3 31.8C27.5387 31.8 27.7676 31.7052 27.9364 31.5364C28.1052 31.3676 28.2 31.1387 28.2 30.9V22.2C28.2394 21.8144 28.4249 21.4585 28.7183 21.2053C29.0117 20.9521 29.3908 20.8206 29.778 20.838C30.1547 20.8396 30.5154 20.9899 30.7818 21.2562C31.0481 21.5225 31.1984 21.8833 31.2 22.26V24.3C31.2 24.3 31.2 24.348 31.2 24.372C31.2 24.396 31.2 24.42 31.2 24.444V30.9C31.2 31.1387 31.2948 31.3676 31.4636 31.5364C31.6324 31.7052 31.8613 31.8 32.1 31.8C32.3387 31.8 32.5676 31.7052 32.7364 31.5364C32.9052 31.3676 33 31.1387 33 30.9V24.45C33.0016 24.0733 33.1519 23.7125 33.4182 23.4462C33.6846 23.1799 34.0453 23.0296 34.422 23.028H34.572C34.9497 23.028 35.312 23.1776 35.5796 23.4441C35.8473 23.7106 35.9984 24.0723 36 24.45V30.9C36 31.1387 36.0948 31.3676 36.2636 31.5364C36.4324 31.7052 36.6613 31.8 36.9 31.8C37.1387 31.8 37.3676 31.7052 37.5364 31.5364C37.7052 31.3676 37.8 31.1387 37.8 30.9V27.6C37.7789 27.4424 37.7912 27.2822 37.836 27.1298C37.8808 26.9773 37.9572 26.8359 38.0601 26.7149C38.1631 26.5938 38.2904 26.4957 38.4337 26.427C38.577 26.3583 38.7331 26.3205 38.892 26.316C39.2348 26.3159 39.5639 26.4504 39.8085 26.6906C40.0531 26.9307 40.1937 27.2572 40.2 27.6V43.134C40.2025 44.3603 39.9621 45.5749 39.4925 46.7078C39.0229 47.8406 38.3334 48.8691 37.464 49.734C37.3767 49.821 37.3083 49.925 37.2629 50.0396C37.2175 50.1541 37.1961 50.2768 37.2 50.4V57.3C37.2 57.5387 37.2948 57.7676 37.4636 57.9364C37.6324 58.1052 37.8613 58.2 38.1 58.2C38.3387 58.2 38.5676 58.1052 38.7364 57.9364C38.9052 57.7676 39 57.5387 39 57.3V50.742C40.935 48.6822 42.0084 45.96 42 43.134V27.6C41.9937 26.7798 41.6634 25.9955 41.0812 25.4178C40.4991 24.8401 39.7122 24.5159 38.892 24.516ZM24.978 8.53797H24.828C23.9719 8.53797 23.1508 8.87806 22.5455 9.48343C21.9401 10.0888 21.6 10.9099 21.6 11.766V12.966H16.2V5.99997H33V12.954H28.2V11.754C28.1968 10.901 27.8562 10.0839 27.2524 9.4813C26.6487 8.8787 25.831 8.53955 24.978 8.53797Z" fill="white"/>
<path d="M47.7 7.80005H38.7C38.4613 7.80005 38.2324 7.89487 38.0636 8.06365C37.8948 8.23244 37.8 8.46135 37.8 8.70005C37.8 8.93874 37.8948 9.16766 38.0636 9.33644C38.2324 9.50523 38.4613 9.60005 38.7 9.60005H47.7C47.9387 9.60005 48.1676 9.50523 48.3364 9.33644C48.5052 9.16766 48.6 8.93874 48.6 8.70005C48.6 8.46135 48.5052 8.23244 48.3364 8.06365C48.1676 7.89487 47.9387 7.80005 47.7 7.80005Z" fill="white"/>
<path d="M38.802 13.2C38.6314 13.0411 38.4057 12.9545 38.1726 12.9586C37.9394 12.9628 37.717 13.0572 37.5521 13.2221C37.3872 13.387 37.2927 13.6095 37.2886 13.8426C37.2845 14.0758 37.371 14.3014 37.53 14.472L45.552 22.512C45.7265 22.6405 45.9416 22.7016 46.1576 22.6842C46.3735 22.6668 46.576 22.5721 46.7278 22.4174C46.8795 22.2627 46.9704 22.0585 46.9837 21.8422C46.9969 21.6259 46.9317 21.4121 46.8 21.24L38.802 13.2Z" fill="white"/>
<path d="M12.636 16.1641C12.4673 15.9955 12.2385 15.9009 12 15.9009C11.7615 15.9009 11.5328 15.9955 11.364 16.1641L5.36403 22.1641C5.2756 22.2465 5.20468 22.3458 5.15549 22.4562C5.1063 22.5666 5.07985 22.6858 5.07772 22.8067C5.07558 22.9275 5.09781 23.0475 5.14308 23.1596C5.18834 23.2717 5.25572 23.3735 5.34118 23.4589C5.42664 23.5444 5.52844 23.6118 5.64051 23.657C5.75257 23.7023 5.87261 23.7245 5.99345 23.7224C6.1143 23.7203 6.23347 23.6938 6.34387 23.6446C6.45427 23.5954 6.55363 23.5245 6.63603 23.4361L12.636 17.4361C12.8046 17.2673 12.8992 17.0386 12.8992 16.8001C12.8992 16.5616 12.8046 16.3328 12.636 16.1641Z" fill="white"/>
</svg>
