<svg width="65" height="65" viewBox="0 0 65 65" fill="none" xmlns="http://www.w3.org/2000/svg">
<path d="M54.522 31.5965C54.4388 31.5367 54.3467 31.4906 54.249 31.46C53.9859 25.9149 51.6087 20.6814 47.606 16.835C48.62 12.87 48.7045 9.62645 47.8075 7.41645C47.5795 6.79509 47.2265 6.22707 46.7704 5.74746C46.3143 5.26785 45.7647 4.88684 45.1555 4.62795C42.9845 3.72445 40.092 4.32895 36.556 6.42195C36.3384 6.55615 36.1822 6.77045 36.1211 7.01869C36.0599 7.26694 36.0987 7.52926 36.2291 7.74916C36.3596 7.96906 36.5711 8.12895 36.8183 8.19437C37.0654 8.2598 37.3284 8.22553 37.5505 8.09895C40.443 6.38295 42.9 5.79145 44.408 6.42845C44.7777 6.59045 45.11 6.82706 45.3841 7.12346C45.6581 7.41986 45.868 7.76967 46.0005 8.15095C46.6505 9.77595 46.618 12.298 45.9355 15.379C41.8028 12.1221 36.6279 10.477 31.3732 10.7496C26.1184 11.0222 21.1415 13.194 17.368 16.861L17.212 16.8285C9.672 15.9965 4.446 17.225 3.25 20.111C3.02222 20.7142 2.92084 21.3578 2.95214 22.0019C2.98345 22.6459 3.14678 23.2767 3.432 23.855C4.4395 26.234 7.046 28.9315 10.764 31.655C10.764 31.941 10.764 32.2205 10.764 32.513C10.7618 36.3019 11.7547 40.0249 13.6435 43.3094C13.5841 43.399 13.5402 43.4979 13.5135 43.602C11.921 50.4464 12.714 55.0094 15.756 56.4394C16.3974 56.7356 17.097 56.8845 17.8035 56.875C20.0915 56.875 22.8345 55.4839 25.7075 53.1764C29.8832 54.5609 34.3807 54.6453 38.6053 53.4185C42.83 52.1917 46.5828 49.7115 49.3675 46.306L49.9785 46.3709C50.9708 46.4489 51.9068 46.4879 52.7865 46.4879C57.733 46.4879 60.827 45.2789 61.8085 42.9454C63.011 39.9814 60.45 35.958 54.522 31.5965ZM32.5 12.675C37.2364 12.6717 41.8159 14.372 45.4025 17.4655C44.8475 19.3552 44.1768 21.2091 43.394 23.0165C43.2923 23.2544 43.2893 23.5229 43.3856 23.7631C43.4819 24.0032 43.6696 24.1952 43.9075 24.297C44.1454 24.3987 44.414 24.4017 44.6541 24.3054C44.8942 24.2091 45.0863 24.0214 45.188 23.7835C45.9073 22.1021 46.5075 20.5031 46.9885 18.9865C50.1488 22.3616 52.0263 26.7375 52.2947 31.3534C52.5631 35.9693 51.2053 40.5333 48.4575 44.252C44.2686 43.7295 40.1353 42.831 36.1075 41.5675C37.622 39.429 39.065 37.1735 40.3845 34.879C40.872 34.034 41.3465 33.1695 41.808 32.2789C41.8682 32.1658 41.9055 32.042 41.9178 31.9145C41.9301 31.787 41.9172 31.6583 41.8798 31.5357C41.8424 31.4132 41.7812 31.2993 41.6997 31.2004C41.6182 31.1015 41.5181 31.0196 41.405 30.9595C41.2919 30.8993 41.1681 30.862 41.0405 30.8496C40.913 30.8373 40.7843 30.8503 40.6618 30.8877C40.5393 30.9251 40.4253 30.9863 40.3264 31.0677C40.2275 31.1492 40.1457 31.2493 40.0855 31.3624C39.637 32.2075 39.169 33.0525 38.6945 33.878C37.3009 36.3017 35.7821 38.6514 34.1445 40.9174C32.5542 40.3931 30.927 39.8081 29.263 39.1624C23.4595 36.9718 17.923 34.1305 12.7595 30.693C13.2159 25.771 15.4923 21.1964 19.1432 17.8641C22.7941 14.5317 27.5569 12.6813 32.5 12.675ZM5.2 23.075C5.02142 22.7346 4.91326 22.3618 4.88199 21.9787C4.85072 21.5957 4.89698 21.2102 5.018 20.8455C5.668 19.318 9.204 18.0895 15.704 18.6225C13.1598 21.7023 11.5155 25.425 10.9525 29.38C8.0405 27.1505 6.006 24.973 5.2 23.0945V23.075ZM28.548 41.0084C30.0105 41.5805 31.473 42.094 32.9225 42.5815C30.6558 45.6145 28.1025 48.4224 25.298 50.9665C21.6613 49.5433 18.5252 47.079 16.2822 43.8822C14.0392 40.6853 12.789 36.8979 12.688 32.9939C17.6812 36.2103 22.9967 38.8964 28.548 41.0084ZM16.549 54.6584C14.677 53.7744 14.1505 50.4009 15.0605 45.5195C17.2806 48.4861 20.2171 50.841 23.595 52.3639C20.8 54.4959 18.265 55.484 16.549 54.6715V54.6584ZM32.5 52.325C30.7868 52.329 29.0804 52.1105 27.4235 51.6749C30.1727 49.0951 32.6772 46.2664 34.905 43.2249C38.8436 44.4832 42.8783 45.418 46.969 46.02C45.1197 48.0084 42.8805 49.5945 40.3911 50.6792C37.9017 51.764 35.2155 52.3242 32.5 52.325ZM59.969 42.185C59.2345 43.94 55.8285 44.785 50.687 44.4534C52.7849 41.2759 54.0068 37.601 54.2295 33.7999C58.552 37.1865 60.7425 40.3455 59.969 42.185Z" fill="white"/>
<path d="M15.7235 28.7754C18.4726 30.5039 21.3347 32.0457 24.2905 33.3904C24.5217 33.4787 24.7778 33.4758 25.0069 33.3823C25.236 33.2887 25.421 33.1116 25.5243 32.8867C25.6276 32.6619 25.6416 32.4061 25.5634 32.1714C25.4851 31.9366 25.3206 31.7404 25.103 31.6224C22.2281 30.3156 19.4442 28.8172 16.77 27.1374C16.5521 27.0071 16.292 26.967 16.0449 27.0255C15.7979 27.0841 15.5834 27.2366 15.4471 27.4508C15.3108 27.665 15.2634 27.9239 15.3151 28.1725C15.3667 28.4211 15.5132 28.6397 15.7235 28.7819V28.7754Z" fill="white"/>
<path d="M32.656 33.9886C32.8785 34.1191 33.1437 34.1561 33.3934 34.0916C33.6432 34.027 33.8571 33.8661 33.9885 33.6441C34.476 32.8251 34.9505 31.9866 35.412 31.1546C37.421 27.5186 39.1465 23.733 40.573 19.8316C40.6382 19.594 40.6111 19.3406 40.4972 19.1223C40.3832 18.9039 40.1908 18.7368 39.9587 18.6545C39.7265 18.5721 39.4718 18.5807 39.2457 18.6785C39.0197 18.7763 38.839 18.956 38.74 19.1816C37.35 22.9889 35.668 26.6833 33.709 30.2316C33.2605 31.0506 32.7925 31.8696 32.318 32.6691C32.191 32.8896 32.1552 33.1511 32.2184 33.3976C32.2815 33.6442 32.4386 33.8562 32.656 33.9886Z" fill="white"/>
</svg>
