<svg width="65" height="65" viewBox="0 0 65 65" fill="none" xmlns="http://www.w3.org/2000/svg">
<path d="M37.6297 16.7148L28.1155 27.6599C27.8671 27.9458 27.8084 28.3503 27.9652 28.6948C28.122 29.0399 28.4652 29.2612 28.8439 29.2625L34.1388 29.2767L25.871 37.4187C25.4904 37.7941 25.4859 38.4064 25.8607 38.7877C26.0497 38.9799 26.3 39.0761 26.5504 39.0761C26.7955 39.0761 27.0407 38.9832 27.2297 38.798L37.1742 29.0051C37.4536 28.7296 37.5394 28.3128 37.391 27.9496C37.2433 27.5864 36.8904 27.3483 36.4975 27.3477L30.9659 27.3329L39.0917 17.9845C39.442 17.5812 39.3994 16.9696 38.9962 16.6193C38.5929 16.2683 37.9807 16.3116 37.6297 16.7148Z" fill="white"/>
<path d="M57.3929 10.3477H26.4426C24.3697 10.3477 22.6832 12.0051 22.6832 14.0418V22.9367L7.12325 22.9548C5.05034 22.9548 3.36389 24.6122 3.36389 26.6489V42.878C3.36389 44.9128 5.05034 46.5689 7.12325 46.5689H10.4323V53.2006C10.4323 53.5812 10.6555 53.9264 11.0026 54.0831C11.1297 54.1406 11.2652 54.1683 11.3994 54.1683C11.6316 54.1683 11.8607 54.0851 12.0413 53.9251L20.3497 46.5689H37.4052C39.4774 46.5689 41.1639 44.9135 41.1639 42.878V33.9612H44.1658L52.4742 41.3173C52.7587 41.5696 53.1665 41.6322 53.5129 41.4754C53.86 41.3193 54.0833 40.9741 54.0833 40.5928V33.9612H57.3916C59.4645 33.9612 61.151 32.3057 61.151 30.2709V14.0418C61.1516 12.0051 59.4658 10.3477 57.3929 10.3477ZM59.2162 30.2709C59.2162 31.2386 58.3981 32.0257 57.3923 32.0257H53.1162C52.5813 32.0257 52.1484 32.4586 52.1484 32.9935V38.4438L45.1742 32.2689C44.9974 32.1122 44.7691 32.0257 44.5329 32.0257H40.1962C39.6613 32.0257 39.2284 32.4586 39.2284 32.9935V42.878C39.2284 43.8457 38.4103 44.6335 37.4052 44.6335H19.9826C19.7465 44.6335 19.5181 44.7199 19.3413 44.8767L12.3671 51.0509V45.6012C12.3671 45.0664 11.9342 44.6335 11.3994 44.6335H7.1226C6.11679 44.6335 5.29873 43.8457 5.29873 42.878V26.6496C5.29873 25.6799 6.11679 24.8909 7.12389 24.8909L23.1845 24.8722H23.651C24.1858 24.8722 24.6187 24.4393 24.6187 23.9044V14.0425C24.6187 13.0728 25.4368 12.2838 26.4426 12.2838H57.3929C58.3987 12.2838 59.2168 13.0728 59.2168 14.0425L59.2162 30.2709Z" fill="white"/>
</svg>
