<svg width="61" height="56" viewBox="0 0 61 56" fill="none" xmlns="http://www.w3.org/2000/svg">
<path d="M17.5268 33.3141C17.386 33.2694 17.132 31.9954 17.0069 31.7537C16.874 31.4963 16.5305 31.931 16.312 31.9757C16.0185 32.0361 15.7026 31.9349 15.4104 32.0203C15.1024 32.2016 15.4999 33.0225 15.4749 33.3128L14.8365 33.276C14.6325 32.4669 14.4614 31.6407 14.3469 30.8133C14.1508 29.3947 13.5664 26.052 15.9487 26.2503C17.0096 26.3383 16.974 27.0384 17.4676 27.5717C17.7124 27.8357 18.7364 27.7989 19.1089 27.766C19.4814 27.7332 20.2672 27.4232 20.433 27.0686C20.5554 26.8085 20.3185 26.7639 20.2264 26.5826C20.0105 26.1558 20.3672 25.6291 20.8358 25.6133C20.9569 24.5796 20.0921 23.852 19.5657 23.081C18.9615 22.1944 18.3995 21.2237 18.056 20.2058C16.9319 20.2938 16.3659 19.9825 15.9053 18.979C15.1024 17.2361 15.105 13.5085 16.0948 11.8339C16.9464 10.3917 18.077 10.9722 18.6614 12.2568C19.3919 13.8618 19.1984 15.3894 19.2642 17.0785C19.2669 17.1547 19.2169 17.3136 19.3261 17.2978C19.5749 15.5614 19.7868 12.6193 18.7233 11.1233C18.4166 10.6925 18.0731 10.8107 18.306 10.1947C19.1313 8.00778 21.3965 5.68822 23.3366 4.43518C23.5235 4.31435 24.2803 3.95052 24.3448 3.86514C24.4975 3.66681 24.4133 3.31875 24.4501 3.08758C24.6594 1.7912 25.6031 1.07143 26.8719 0.901995C29.0424 1.078 31.5682 0.674767 33.6965 0.904622C34.9364 1.03728 35.8893 1.91204 36.0644 3.14406C36.0973 3.37654 35.992 3.66681 36.1618 3.86646C36.246 3.96497 37.1423 4.41417 37.3608 4.55996C39.5457 6.01001 41.3226 8.08658 42.3164 10.5217C42.0452 10.8553 41.7543 11.1036 41.549 11.5173C40.758 13.1119 40.9357 15.5785 41.1818 17.2965C41.2924 17.311 41.241 17.1533 41.2437 17.0772C41.3029 15.5706 41.1463 14.3885 41.6056 12.8991C41.9018 11.9376 42.7547 10.3011 43.9603 11.2756C45.5674 12.5747 45.57 18.4878 44.0182 19.8472C43.572 20.2387 43.0074 20.2058 42.4493 20.2045C42.0926 21.2448 41.5332 22.2115 40.9159 23.1177C40.4829 23.7535 39.5813 24.6308 39.6037 25.4675C39.6089 25.6501 40.0196 25.6632 40.1709 25.8379C40.5632 26.2884 40.2078 26.6299 40.009 27.0069C40.2855 27.3142 40.6158 27.5861 41.0252 27.6951C41.3871 27.7923 42.398 27.816 42.7599 27.7306C43.1219 27.6452 43.3377 26.9176 43.6747 26.6286C44.4802 25.939 45.8478 26.2424 46.1979 27.2591C46.5243 28.2074 46.2453 30.1552 46.0939 31.1876C46.0347 31.5882 45.8517 32.8951 45.6911 33.1814C45.5714 33.3942 45.2357 33.2904 45.0304 33.3101C44.9685 33.0067 45.4174 32.2081 45.0949 32.0164C44.8027 31.931 44.4868 32.0308 44.1933 31.9717C43.955 31.9231 43.626 31.4634 43.4654 31.7786C43.2535 32.1937 43.2693 32.9095 42.9784 33.3101H39.5997C39.5773 33.2037 39.6339 33.1827 39.6958 33.1223C39.9235 32.9016 40.2394 32.6692 40.4855 32.4603L40.8949 31.9862C40.321 32.2278 39.805 32.5969 39.2443 32.8609C39.1048 32.9266 38.298 33.3114 38.2427 33.3114H34.4849C34.502 33.2011 34.6099 33.2011 34.6889 33.1683C35.0403 33.0185 35.4615 32.9292 35.8274 32.7913C37.7149 32.0768 39.5102 31.0431 40.8646 29.53L38.3177 31.0536C35.9354 32.0873 33.3648 32.8859 30.7284 32.744L29.1174 32.4932C30.6508 32.6429 32.1921 32.3723 33.6649 31.956C35.5379 31.428 38.1361 30.3719 39.3812 28.8352C39.422 28.7853 39.5497 28.7091 39.4431 28.6447C38.0808 29.4972 36.7159 30.4008 35.1957 30.9617C31.7682 32.2278 27.0588 32.0335 23.6683 30.7108C22.9588 30.4337 22.098 29.8282 21.4768 29.6193C21.3926 29.5904 21.3096 29.5826 21.2214 29.5904C21.1477 29.6574 21.7585 30.5204 21.6637 30.7253C21.099 30.7975 20.641 30.3273 20.0842 30.347C19.8908 30.5374 21.2596 32.3487 21.0214 32.7966C20.8595 33.054 19.6749 32.4564 19.3893 32.5536C19.3893 32.8097 19.5564 33.0251 19.7368 33.184L19.6736 33.3101H17.5255L17.5268 33.3141ZM28.1065 2.23384L28.075 1.98034L27.9381 2.23646L27.2852 2.23384C27.3497 2.47288 27.9275 2.30608 27.9802 2.35861L27.9078 3.17033L26.4007 3.30561L27.3168 3.43039H27.8538C27.8328 3.60245 27.9196 4.46539 27.7485 4.5048C26.7114 4.60199 25.3425 3.97679 25.3899 2.79993C24.9911 3.13749 25.3465 3.91374 25.6097 4.2513C26.5205 5.41502 28.5778 5.18648 29.9084 5.1983C31.2984 5.21012 33.8531 5.46493 34.8337 4.31303C35.1351 3.9584 35.5037 3.19003 35.118 2.79993C35.1496 3.96759 33.7478 4.66372 32.7133 4.47459L32.6633 3.43827L34.1072 3.36603C34.1006 3.27803 33.8215 3.25439 33.7518 3.24782C33.3688 3.21236 32.9778 3.28329 32.6027 3.16507L32.5277 2.3573C32.5817 2.30345 33.1582 2.47026 33.2227 2.23252L32.5672 2.22464L32.4329 1.97903L32.4013 2.23252H28.1052L28.1065 2.23384ZM21.4755 12.4775C21.4413 12.7756 21.4755 13.1723 21.4755 13.4862C21.4755 13.4967 21.5373 13.6701 21.6005 13.6438C21.819 12.6968 22.048 11.6763 22.539 10.8278C22.5969 10.7279 22.6548 10.5204 22.8009 10.5546C22.3573 12.3106 21.7137 13.9656 21.7901 15.8189C21.794 15.9161 21.7308 16.0684 21.8835 16.0382L22.5943 13.5939C25.3952 6.23067 35.9117 6.60895 38.165 14.3504C38.2427 14.6184 38.5007 15.9739 38.6231 16.0369C38.7652 16.0632 38.7099 15.9752 38.7165 15.8806C38.76 15.2791 38.6705 14.4818 38.5717 13.8802C38.3848 12.7441 37.9347 11.6762 37.7057 10.5519C37.8518 10.5178 37.9097 10.7253 37.9676 10.8251C38.4638 11.6828 38.6784 12.6863 38.9061 13.6412C38.9692 13.6688 39.0311 13.4941 39.0311 13.4836V12.5379C39.0311 12.0795 38.4783 10.6229 38.2638 10.1513C38.1492 9.89915 37.274 8.41232 37.3885 8.28229C37.5477 8.29411 37.6991 8.48456 37.7991 8.5962C38.0124 8.83525 38.2545 9.20827 38.4256 9.4841C39.4391 11.1338 39.8498 13.0436 39.9788 14.9638L40.1038 14.3649C40.1328 13.3719 40.2499 12.2634 40.7014 11.3676C40.8067 11.1574 41.2687 10.6005 41.295 10.5046C41.37 10.2262 40.7488 9.14129 40.5737 8.85364C39.984 7.89351 39.1904 6.96227 38.3375 6.23067C38.0137 5.95354 36.4224 4.71232 36.0959 4.7491C35.7748 6.07963 34.9561 6.85719 33.5675 6.95701C31.5524 7.10018 28.9502 7.10412 26.9364 6.95701C25.5807 6.8585 24.6818 6.10196 24.4409 4.75041C24.2843 4.61119 22.793 5.72237 22.5811 5.88786C21.5005 6.73635 19.4814 8.94427 19.2248 10.2958C19.1682 10.5927 19.5209 10.8974 19.6736 11.1798C20.2224 12.1911 20.3804 13.2209 20.3988 14.3649L20.5239 14.9638C20.6568 12.8478 21.2241 10.3549 22.6101 8.69208C22.6627 8.62904 23.047 8.20873 23.1142 8.28097C22.8772 9.14523 22.3192 9.87157 21.9927 10.7227C21.823 11.164 21.5229 12.0269 21.4728 12.4735L21.4755 12.4775ZM23.2431 17.9309V16.1341C23.2431 15.2199 24.1105 13.4428 24.6699 12.7034C27.8144 8.54366 34.2388 9.18725 36.5316 13.8408C36.7935 14.3728 37.2661 15.6311 37.2661 16.1972V17.9309L37.4582 17.0194C37.8412 6.65361 22.5798 6.72716 23.0523 17.0824L23.2445 17.9309H23.2431ZM43.6444 17.2374V16.3548L43.8971 16.2904L43.6418 16.1236V14.1757L43.8971 13.959H43.6444L43.5812 13.2655L43.5194 13.896L42.8902 13.8303C42.8494 13.6504 42.8455 12.442 42.7297 12.4459L42.627 13.8251L42.1295 13.9603L42.2071 14.1022L42.5704 14.1495L42.573 16.0619C42.5441 16.1827 42.1176 16.1065 42.1268 16.3232L42.6244 16.5216L42.6968 18.12C42.7902 18.1306 42.8086 17.9572 42.8165 17.8941C42.8784 17.4068 42.8955 16.909 42.885 16.4178H43.5167C43.5799 16.4809 43.3904 17.1599 43.6431 17.2374H43.6444ZM16.8648 16.3548V17.3005C16.9582 17.3057 16.9767 17.0745 16.9832 17.0089C17.0043 16.8119 16.9859 16.6135 16.9911 16.4165H17.6229V17.4568C17.6229 17.5001 17.6716 17.8074 17.6848 17.8994C17.698 17.9913 17.694 18.0938 17.8125 18.1187L17.8849 16.5189L18.3811 16.3521C18.4284 16.1013 17.9651 16.1801 17.9362 16.0592L17.9388 14.1469C17.9717 14.1153 18.4482 14.2007 18.3811 13.9577L17.8835 13.8224L17.8111 12.5064C17.6966 12.53 17.6927 12.6298 17.6835 12.7244C17.6453 13.0724 17.6453 13.4744 17.6203 13.8277L16.9911 13.8934C16.9424 13.8461 17.0978 13.3194 16.8661 13.2629V13.9564H16.6134L16.8701 14.1731V16.121L16.6134 16.2878L16.8661 16.3521L16.8648 16.3548ZM32.0223 13.1408L31.5748 13.1815L27.0641 21.0845C26.9786 21.1042 26.0783 20.257 26.1112 20.1349L30.0019 13.3299L29.1766 13.5624L25.769 19.6331L25.4149 19.0644L28.2961 13.959L27.509 14.403L25.2004 18.4983C25.0464 18.5193 25.1003 18.4983 25.0687 18.4116C24.7779 17.6209 24.8187 16.7436 24.8213 15.9148C24.7186 15.7729 24.5765 16.7422 24.5699 16.8302C24.1724 22.264 31.3787 25.0039 34.6995 20.6997C35.7103 19.3902 36.3447 16.9235 35.6274 15.3723C35.5102 15.1175 35.4602 15.4445 35.3799 15.5785C34.1335 17.6511 33.0121 19.7986 31.7709 21.8739C31.5484 22.0762 30.1585 22.2101 29.8426 22.155C29.7689 22.1418 29.7294 22.1221 29.686 22.0604L34.3493 13.8737L33.9545 13.5847L29.1161 22.0013L28.8015 21.9658L33.6017 13.456L32.7501 13.2629L27.9473 21.5258L27.8341 21.5797L27.4392 21.3367L32.0223 13.1394V13.1408ZM18.2547 18.1214C17.7295 19.3534 17.0412 19.0618 16.5818 17.994L16.0448 16.0409C16.0448 16.9445 16.1409 18.4405 16.9267 19.0368C17.5729 19.5281 18.2323 19.071 18.3179 18.3407C18.3258 18.2764 18.3613 18.103 18.2547 18.1214ZM42.1926 18.1831C42.1532 18.9646 42.8705 19.5754 43.5826 19.0355C44.3525 18.4524 44.4671 16.9301 44.4644 16.0395L43.9274 17.9926C43.7537 18.4077 43.3509 19.1314 42.806 18.8622C42.5177 18.7203 42.4243 18.3735 42.1913 18.1831H42.1926ZM39.3496 26.1912L37.5977 27.0581C33.3648 28.7564 27.0957 28.7511 22.8654 27.0397L21.1596 26.1899C21.2886 26.3948 21.5136 26.5432 21.7084 26.6824C25.6689 29.5051 34.7837 29.484 38.7652 26.7087C38.9719 26.5642 39.2114 26.4053 39.3509 26.1912H39.3496ZM16.7371 30.0357L16.5831 27.3851C16.154 26.6273 14.9681 26.865 14.8484 27.7411C14.751 28.4609 14.8523 29.4446 14.9694 30.1618C15.0747 30.1881 14.9931 30.0567 15.0747 30.0357C15.6039 29.903 16.2119 29.8938 16.7371 30.0357ZM45.5385 30.1618C45.6609 29.446 45.7332 28.5843 45.6688 27.858C45.5793 26.8571 44.3802 26.5695 43.9116 27.4324L43.7721 30.0357C44.2973 29.8938 44.9054 29.903 45.4345 30.0357C45.5148 30.0554 45.4345 30.1881 45.5398 30.1618H45.5385ZM16.7371 31.1705C16.6371 29.9897 15.2011 30.0029 15.0958 31.1705C15.1563 31.2231 15.4433 30.9394 15.5446 30.8947C15.8092 30.7765 16.079 30.7778 16.3409 30.9065C16.4976 30.984 16.5581 31.1679 16.7371 31.1718V31.1705ZM45.3489 31.1705C45.4174 30.0738 43.9103 29.9687 43.7708 31.0773C43.7379 31.34 44.0814 30.9472 44.167 30.9052C44.6487 30.6675 44.9725 30.8776 45.3489 31.1705Z" fill="white"/>
<path d="M53.687 48.0037L53.3395 46.9293C54.4359 46.0795 55.2915 44.7778 55.5521 43.4026C56.2707 39.6081 54.6136 35.9921 50.615 35.2763C37.2791 35.1082 23.9209 35.2566 10.5758 35.2014C6.22444 35.6598 4.54364 38.7412 4.86085 42.8668C4.97931 44.4035 5.96252 46.002 7.1708 46.9293L6.82069 48.0024C6.72724 48.0956 5.98884 47.4507 5.87302 47.3404C1.40974 43.1045 3.83289 34.328 10.3863 34.0653H50.1201C56.2852 34.328 58.8703 42.1325 55.2625 46.6442C55.1151 46.8281 53.8502 48.1482 53.6857 48.001L53.687 48.0037Z" fill="white"/>
<path d="M48.7288 46.5799C48.8183 46.5825 48.8999 46.6443 48.9367 46.7257L49.8225 49.1201C49.8528 49.3579 49.275 49.3657 49.2684 49.4853C49.7278 50.4336 49.916 52.4694 49.1394 53.268C48.5853 53.8381 47.2322 54.1743 46.4596 54.0521C46.2201 54.0141 46.1845 53.9129 46.1056 53.712C45.7976 52.9305 45.6528 51.7024 45.279 51.0062C45.225 50.9064 45.1961 50.8145 45.0829 50.7619C44.7972 50.628 43.6179 50.9182 43.4626 51.1954C43.1349 51.7772 44.2352 53.0368 42.9269 52.5351C41.9424 52.1581 41.9871 51.5973 40.6525 51.7313C39.41 51.8561 37.2883 52.6467 35.9655 52.9791C32.9895 53.729 29.9675 54.3175 27.0639 55.3157C26.5546 55.4904 25.4647 56.042 24.9988 55.9974C24.0893 55.9081 23.5233 54.1559 24.1564 53.5491C24.6408 53.0841 26.3703 52.9751 27.0968 52.828C27.6299 52.7203 28.163 52.5995 28.6881 52.4616C34.902 50.8408 41.0882 48.5711 47.3033 46.8978C47.4915 46.8085 47.714 46.9188 47.8824 46.8978C48.0957 46.8689 48.5063 46.5733 48.7288 46.5799ZM48.6959 46.9319C48.5498 46.9634 48.1931 47.0357 48.1904 47.213C48.4524 47.8329 48.6327 48.4884 48.8801 49.1122C48.9078 49.1832 48.838 49.2147 48.9762 49.1989C49.1144 49.1832 49.25 49.0978 49.3829 49.0663C49.5093 48.8706 48.7446 47.2682 48.6959 46.9306V46.9319ZM46.1635 48.1377L27.8181 53.2943L27.6733 53.3994L27.9287 54.2347L28.3012 54.2163L46.4965 49.4249L46.1648 48.1364L46.1635 48.1377ZM47.0374 50.4126C46.2832 50.6345 47.0335 53.0237 47.7666 52.9121C48.609 52.7834 48.0022 50.1289 47.0374 50.4126Z" fill="white"/>
<path d="M28.3593 51.4095L27.0825 51.7103L14.3785 48.1245C14.3074 48.1403 13.931 49.3329 14.0139 49.4248L24.4422 52.2264L23.3445 52.6665C22.0559 52.4655 20.3896 51.5737 19.105 51.7221C18.41 51.8022 17.7388 52.7597 16.9253 52.6678C16.8108 52.1765 17.336 51.5947 17.0188 51.156C16.8358 50.9038 15.617 50.5846 15.3485 50.8105C14.976 51.1231 14.6391 53.4151 14.2758 53.9458C13.5387 54.2334 12.4357 53.9641 11.7658 53.5622C10.4838 52.7939 10.7392 50.6753 11.2393 49.4826C11.2314 49.3592 10.676 49.3736 10.6733 49.107C10.9195 48.7156 11.3959 46.7979 11.6487 46.6088C11.6855 46.5812 11.7145 46.5536 11.7645 46.5641L28.3566 51.4068L28.3593 51.4095ZM11.8119 46.9319L11.0682 48.9835L11.4762 49.1924C11.5749 49.2055 11.5973 49.128 11.6355 49.0584C11.9158 48.5488 12.0317 47.7502 12.316 47.2143C12.3133 47.037 11.9566 46.9647 11.8105 46.9332L11.8119 46.9319ZM13.1834 50.4126C12.5174 50.5623 11.9014 52.5784 12.7293 52.9239C13.2136 52.9725 13.698 51.8889 13.7533 51.487C13.8125 51.0562 13.8178 50.2694 13.1834 50.4126Z" fill="white"/>
<path d="M38.3387 41.7622V38.4208H39.4759V44.221H38.1808L36.5697 40.123V44.221H35.4338V38.4208H36.9804L38.3387 41.7622Z" fill="white"/>
<path d="M17.0541 43.7797V44.5992C16.758 44.6071 16.3565 44.5953 16.088 44.4587C15.9603 44.3943 15.8985 44.2367 15.755 44.2183C15.626 44.2013 15.4681 44.2827 15.3193 44.2866C14.4335 44.305 13.1357 44.2617 13.0107 43.1177C12.9238 42.3125 12.9238 40.3292 13.0107 39.5241C13.1766 37.9952 16.3302 37.9335 16.758 39.3152C16.9633 39.9772 16.9251 42.5687 16.7724 43.2792C16.6961 43.6352 16.3657 43.8085 17.0541 43.781V43.7797ZM14.6994 39.1918C14.5086 39.2298 14.2901 39.3822 14.2782 39.5911C14.3638 40.6655 14.1505 41.9448 14.273 42.9929C14.3532 43.6811 15.4536 43.5537 15.5365 43.1164C15.4457 42.0209 15.6642 40.718 15.5392 39.6488C15.4878 39.2101 15.093 39.113 14.6994 39.1918Z" fill="white"/>
<path d="M39.2861 48.1298L35.4046 49.2672L24.917 49.2659L21.2224 48.1298H39.2861Z" fill="white"/>
<path d="M18.885 38.4208V43.1807C18.885 43.3475 19.3272 43.4644 19.4839 43.4684C19.651 43.4723 20.1486 43.3725 20.1486 43.1807V38.4208H21.3489V43.2438C21.3489 43.3003 21.1528 43.6759 21.0962 43.7481C20.5487 44.4535 18.8244 44.4719 18.1321 43.9964C17.8465 43.8007 17.5596 43.2661 17.5596 42.9285V38.4208H18.8863H18.885Z" fill="white"/>
<path d="M32.0852 38.4208V43.1807C32.0852 43.3475 32.5274 43.4644 32.6841 43.4684C32.8512 43.4723 33.3488 43.3725 33.3488 43.1807V38.4208H34.5491V43.2438C34.5491 43.3003 34.353 43.6759 34.2964 43.7481C33.6936 44.5244 31.6311 44.5244 31.048 43.7127C30.9138 43.5262 30.7598 43.0835 30.7598 42.8655V38.5153L30.8545 38.4208H32.0865H32.0852Z" fill="white"/>
<path d="M44.0233 40.3752H42.8229C42.7927 39.9194 42.9967 39.3126 42.3978 39.1918C41.7384 39.0591 41.5357 39.3756 41.4936 39.9628C41.4396 40.7167 41.4251 42.063 41.4936 42.8051C41.591 43.8558 42.8229 43.4329 42.8229 43.1177V41.8252H42.2543V41.0056H44.0233V43.1807C44.0233 43.2661 43.789 43.7232 43.7074 43.8112C43.1507 44.4009 41.6028 44.4324 40.9263 44.0673C40.4248 43.7967 40.2721 43.3449 40.2326 42.8064C40.1721 42.0104 40.1523 40.433 40.2419 39.658C40.3972 38.3144 42.124 38.0937 43.1573 38.4996C43.4705 38.623 44.0246 39.1169 44.0246 39.4623V40.3765L44.0233 40.3752Z" fill="white"/>
<path d="M21.916 44.221L23.2177 38.4168L25.071 38.4234L26.3372 44.221H25.0104L24.8248 43.2398L23.2428 43.2135L23.0216 44.2223H21.916V44.221ZM24.6327 42.3926L24.0325 39.5556L23.4323 42.3926H24.6327Z" fill="white"/>
<path d="M8.08423 44.221L9.43993 38.4168L11.2392 38.4247L12.5054 44.2223H11.1786L10.9931 43.2411L9.41097 43.2149L9.18985 44.2236H8.08423V44.221ZM10.8009 42.3926L10.2007 39.5556L9.6005 42.3926H10.8009Z" fill="white"/>
<path d="M10.5481 52.0386C9.71497 51.7484 8.70017 51.7103 8.12235 50.9616C7.00489 49.5142 8.01969 46.5471 9.7097 45.9376C10.1296 45.7866 10.5481 45.6999 10.8956 46.0493L10.9325 46.2069L9.98347 49.2344C9.98084 49.6258 10.6876 49.8018 10.7311 49.9384C10.5731 50.6346 10.51 51.3241 10.5481 52.04V52.0386ZM10.6113 46.1754C10.4099 46.1728 10.2428 46.0637 10.1177 46.2818L9.41619 48.6276L9.85185 48.7603L10.6113 46.1754Z" fill="white"/>
<path d="M49.9605 52.0386C49.9987 51.3267 49.9263 50.6306 49.7776 49.9371C49.8236 49.7913 50.5252 49.61 50.5252 49.2331L49.5762 46.2056L49.613 46.048C49.9487 45.7117 50.3422 45.78 50.7529 45.9192C52.6916 46.5786 53.8078 50.3929 51.7624 51.4712C51.228 51.7536 50.5344 51.8337 49.9618 52.0373L49.9605 52.0386ZM51.0911 48.6289L50.3896 46.2831C50.2645 46.0637 50.0974 46.1741 49.896 46.1767L50.6555 48.7616L51.0911 48.6289Z" fill="white"/>
<path d="M46.1066 43.4013H48.5074V44.2209H44.8443V43.2437C44.8443 42.2613 46.8897 41.3957 47.2583 40.4211C47.4597 39.8892 47.4465 39.1694 46.7068 39.1733C45.9144 39.1773 46.0408 39.7802 46.0434 40.3765H44.843C44.718 39.1339 45.1774 38.4378 46.4514 38.3564C49.0141 38.1935 49.2392 40.1834 47.5926 41.7017C47.0674 42.1864 46.1119 42.6106 46.1066 43.4027V43.4013Z" fill="white"/>
<path d="M26.6545 51.8495L24.8091 52.0886L14.2163 49.3237C14.1807 49.2738 14.3532 48.139 14.669 48.3321L26.4504 51.7077L26.6531 51.8508L26.6545 51.8495Z" fill="white"/>
<path d="M44.2737 54.1795C42.9561 54.479 41.6162 55.0635 40.3105 55.3617C39.5169 55.5429 38.8482 55.3511 38.635 54.4856C38.2072 52.7479 40.7015 52.7558 41.7821 52.2882C42.4244 52.4734 43.1944 53.3678 43.8656 52.7965L44.2737 54.1795ZM41.428 53.557C41.2451 53.2825 39.5511 53.6975 39.4787 54.2058C39.5313 54.525 40.4711 54.328 40.7094 54.2478C41.0029 54.1493 41.4951 53.9195 41.428 53.557Z" fill="white"/>
<path d="M16.2341 54.1795L16.6422 52.7965C17.3134 53.3678 18.0834 52.4734 18.7257 52.2882C19.4891 52.6139 21.1936 52.782 21.6898 53.4309C22.3716 54.3227 21.4648 55.7609 20.3341 55.4142L16.2341 54.1795ZM19.0798 53.557C19.0127 53.9195 19.5049 54.1493 19.7984 54.2478C20.0367 54.328 20.9764 54.5263 21.0291 54.2058C20.958 53.6975 19.2627 53.2825 19.0798 53.557Z" fill="white"/>
<path d="M28.1696 38.4208V43.4014H30.2544V44.221H26.906V38.4208H28.1696Z" fill="white"/>
<path d="M52.4232 38.4208V44.221H51.1596V39.8078H50.2119V39.1143C50.7516 39.1642 51.3965 39.0079 51.5387 38.4208H52.4232Z" fill="white"/>
<path d="M44.4483 51.1087C44.626 51.0785 44.8406 51.0378 44.9643 51.1941C45.3013 51.6209 45.4342 52.9974 45.7172 53.5373C45.7659 53.9786 45.2578 54.1927 44.8761 54.1204C44.7063 54.0876 44.5839 53.7461 44.526 53.5859C44.3812 53.1866 44.0285 52.1174 43.9745 51.7391C43.9205 51.3609 44.0653 51.173 44.4497 51.1087H44.4483Z" fill="white"/>
<path d="M15.7749 54.0403C15.534 54.2715 14.7798 54.0416 14.7759 53.6489C14.9141 53.2903 15.3853 51.2308 15.5998 51.1245C16.0026 51.0325 16.5672 51.1218 16.5514 51.6275C16.5436 51.8587 16.0737 53.3271 15.9618 53.6292C15.9302 53.7133 15.8183 53.9983 15.7736 54.0403H15.7749Z" fill="white"/>
<path d="M42.1107 25.3848C43.3375 25.1378 43.5151 26.9635 42.4043 27.0699C41.3987 27.1645 41.1736 25.5739 42.1107 25.3848Z" fill="white"/>
<path d="M18.1111 25.3847C19.0877 25.2153 19.4616 26.5787 18.6258 26.9714C17.4701 27.5125 17.02 25.5752 18.1111 25.3847Z" fill="white"/>
<path d="M42.3029 22.2324C43.115 22.1878 43.4809 23.4579 42.6978 23.8256C41.4816 24.397 41.0249 22.302 42.3029 22.2324Z" fill="white"/>
<path d="M18.0452 22.2955C19.2522 22.017 19.414 23.8138 18.3295 23.9084C17.3568 23.9924 17.2147 22.4872 18.0452 22.2955Z" fill="white"/>
<path d="M44.8654 23.584C44.2507 22.9719 45.1642 21.9606 45.7868 22.57C46.437 23.2084 45.4946 24.2092 44.8654 23.584Z" fill="white"/>
<path d="M15.143 22.4203C16.0091 22.2522 16.1907 23.5906 15.4405 23.7285C14.5059 23.8992 14.3559 22.574 15.143 22.4203Z" fill="white"/>
<path d="M45.2066 19.3323C46.1293 19.155 46.178 20.6681 45.254 20.5854C44.6025 20.5263 44.5143 19.4663 45.2066 19.3323Z" fill="white"/>
<path d="M14.8625 20.433C14.3505 19.9602 14.9191 19.0552 15.5614 19.3888C16.3222 19.7842 15.547 21.0648 14.8625 20.433Z" fill="white"/>
<path d="M47.9587 26.6115C47.4678 26.0769 48.197 25.3677 48.6945 25.7827C49.2565 26.2516 48.4444 27.1408 47.9587 26.6115Z" fill="white"/>
<path d="M48.3026 28.7865C48.9554 28.7301 49.0923 29.8518 48.3407 29.8912C47.7089 29.924 47.6313 28.8457 48.3026 28.7865Z" fill="white"/>
<path d="M48.2377 22.545C49.0235 22.3821 49.0985 23.7337 48.2272 23.6023C47.6862 23.5209 47.6901 22.658 48.2377 22.545Z" fill="white"/>
<path d="M11.8921 26.6141C11.4972 26.2201 11.9 25.4649 12.5041 25.7197C13.1675 25.9981 12.5094 27.2315 11.8921 26.6141Z" fill="white"/>
<path d="M12.6117 22.6803C13.0184 23.052 12.5932 23.8913 12.0023 23.5078C11.3455 23.0822 12.101 22.2127 12.6117 22.6803Z" fill="white"/>
<path d="M12.1092 28.8522C13.0503 28.6395 12.9161 30.1854 12.0171 29.7992C11.642 29.6377 11.6749 28.9508 12.1092 28.8522Z" fill="white"/>
<path d="M48.1733 32.0045C48.9407 31.8285 49.0512 32.9016 48.3984 32.987C47.8127 33.0645 47.6666 32.1201 48.1733 32.0045Z" fill="white"/>
<path d="M48.238 19.4558C48.9303 19.3152 49.0329 20.3896 48.4064 20.4527C47.7799 20.5157 47.6865 19.5674 48.238 19.4558Z" fill="white"/>
<path d="M12.1089 32.0019C12.9079 31.7628 12.9776 33.2103 12.0602 32.9069C11.6772 32.7808 11.747 32.1096 12.1089 32.0019Z" fill="white"/>
<path d="M12.1736 19.4545C12.5777 19.3823 12.9159 19.905 12.604 20.2689C12.0025 20.9689 11.4049 19.5911 12.1736 19.4545Z" fill="white"/>
<path d="M48.2946 16.3705C48.8079 16.314 48.9869 17.2203 48.3472 17.2426C47.7615 17.2623 47.8378 16.4217 48.2946 16.3705Z" fill="white"/>
<path d="M12.1093 16.4309C12.8925 16.2011 12.8161 17.4357 12.1093 17.2256C11.7829 17.1284 11.7842 16.5268 12.1093 16.4309Z" fill="white"/>
<path d="M51.2058 25.8234C51.7705 25.6632 51.9245 26.5313 51.4283 26.622C50.9321 26.7126 50.8083 25.9363 51.2058 25.8234Z" fill="white"/>
<path d="M51.206 28.977C51.7733 28.8089 51.8733 29.593 51.4956 29.7086C50.9559 29.8741 50.7861 29.1005 51.206 28.977Z" fill="white"/>
<path d="M45.2065 10.1881C45.6974 10.0488 45.8778 10.7148 45.525 10.8881C44.9709 11.16 44.7603 10.3155 45.2065 10.1881Z" fill="white"/>
<path d="M51.2045 22.7342C51.7362 22.5713 51.9139 23.316 51.4782 23.4539C50.9452 23.6234 50.8162 22.8537 51.2045 22.7342Z" fill="white"/>
<path d="M9.20439 25.8221C9.63742 25.7551 9.75325 26.4591 9.43078 26.555C8.78452 26.7481 8.73976 25.893 9.20439 25.8221Z" fill="white"/>
<path d="M9.14113 28.9757C9.63076 28.8339 9.77818 29.5904 9.3662 29.7099C8.87657 29.8518 8.72915 29.0952 9.14113 28.9757Z" fill="white"/>
<path d="M9.52289 22.8012C9.81245 23.0914 9.40575 23.7101 9.03457 23.3817C8.61207 23.0074 9.1912 22.4689 9.52289 22.8012Z" fill="white"/>
<path d="M15.2063 10.1854C15.6867 10.0922 15.7393 10.8907 15.3155 10.9341C14.8667 10.9801 14.7482 10.2747 15.2063 10.1854Z" fill="white"/>
<path d="M42.0804 7.70301C41.8119 7.43506 42.1226 6.84532 42.5438 7.1461C42.9649 7.44688 42.4135 8.03531 42.0804 7.70301Z" fill="white"/>
<path d="M48.2377 13.3404C48.6826 13.2103 48.8748 13.8868 48.4628 14.0089C47.9192 14.1705 47.8665 13.4481 48.2377 13.3404Z" fill="white"/>
<path d="M51.2702 32.1267C51.7757 32.04 51.7757 32.7138 51.494 32.7979C50.9372 32.9647 50.8635 32.1976 51.2702 32.1267Z" fill="white"/>
<path d="M18.1729 7.09887C18.6388 6.96358 18.8073 7.67941 18.3335 7.77135C17.911 7.85279 17.7833 7.21182 18.1729 7.09887Z" fill="white"/>
<path d="M12.0159 13.9446C11.7158 13.6438 12.2055 13.0895 12.5069 13.4231C12.8083 13.7567 12.3397 14.269 12.0159 13.9446Z" fill="white"/>
<path d="M51.3282 19.5832C51.7362 19.5464 51.8099 20.2741 51.3716 20.3135C50.9636 20.3503 50.8899 19.6226 51.3282 19.5832Z" fill="white"/>
<path d="M9.20422 32.1267C9.64515 32.0597 9.72017 32.7532 9.31346 32.8123C8.86727 32.8767 8.76855 32.1937 9.20422 32.1267Z" fill="white"/>
<path d="M9.52147 19.712C9.78471 19.972 9.42012 20.4685 9.05816 20.2058C8.66462 19.9195 9.20953 19.4033 9.52147 19.712Z" fill="white"/>
<path d="M51.2003 16.5531C51.6913 16.3823 51.7584 17.0088 51.432 17.1034C51.0779 17.2072 50.9437 16.6424 51.2003 16.5531Z" fill="white"/>
<path d="M39.5233 4.07656C39.8813 4.43645 39.1324 4.8515 39.0455 4.33006C38.9968 4.03322 39.3535 3.90581 39.5233 4.07656Z" fill="white"/>
<path d="M9.45838 17.0325C9.28859 17.2032 8.9319 17.0758 8.9806 16.779C9.06747 16.2575 9.81639 16.6713 9.45838 17.0325Z" fill="white"/>
<path d="M21.2041 4.00698C21.6332 3.88876 21.6806 4.64794 21.1923 4.56913C20.9304 4.5271 20.9896 4.06608 21.2041 4.00698Z" fill="white"/>
<path d="M45.5226 7.63867C45.2554 7.91187 44.871 7.35759 45.2225 7.18027C45.5344 7.02397 45.6989 7.45872 45.5226 7.63867Z" fill="white"/>
<path d="M48.2339 10.3116C48.7012 10.1566 48.7249 10.942 48.2366 10.7949C47.9944 10.7227 48.051 10.372 48.2339 10.3116Z" fill="white"/>
<path d="M12.1682 10.3089C12.4973 10.2012 12.646 10.7095 12.3341 10.7975C11.9866 10.896 11.9234 10.389 12.1682 10.3089Z" fill="white"/>
<path d="M15.2654 7.16054C15.451 7.1461 15.6405 7.48497 15.4128 7.62419C15.0008 7.87506 14.8639 7.19207 15.2654 7.16054Z" fill="white"/>
<path d="M54.3504 25.9614C54.6018 25.9614 54.6624 26.3698 54.4689 26.4355C54.0214 26.5866 54.028 25.9614 54.3504 25.9614Z" fill="white"/>
<path d="M54.2989 29.0966C54.6174 29.0178 54.67 29.5957 54.3502 29.5957C54.0949 29.5957 54.0435 29.1596 54.2989 29.0966Z" fill="white"/>
<path d="M54.2989 22.8589C54.6148 22.7683 54.6477 23.1676 54.5121 23.2622C54.1844 23.492 53.9435 22.9601 54.2989 22.8589Z" fill="white"/>
<path d="M42.1373 4.13309C42.2479 3.9584 42.6599 4.13703 42.5427 4.37476C42.3901 4.68474 41.9636 4.40891 42.1373 4.13309Z" fill="white"/>
<path d="M9.40412 13.8894C9.21459 14.0194 8.8342 13.6477 9.15799 13.4835C9.43966 13.3404 9.54627 13.7922 9.40412 13.8894Z" fill="white"/>
<path d="M6.16508 26.006C6.49545 25.897 6.52835 26.375 6.34145 26.4368C6.01108 26.5458 5.97818 26.0677 6.16508 26.006Z" fill="white"/>
<path d="M51.261 13.4599C51.5914 13.3509 51.6243 13.829 51.4374 13.8907C51.107 13.9997 51.0741 13.5216 51.261 13.4599Z" fill="white"/>
<path d="M18.1334 4.49559C17.9136 4.33929 18.265 3.79684 18.4598 4.20532C18.5743 4.44437 18.2439 4.5744 18.1334 4.49559Z" fill="white"/>
<path d="M6.43511 22.9194C6.54699 23.0967 6.35088 23.4277 6.12186 23.2622C5.82308 23.0468 6.2956 22.6974 6.43511 22.9194Z" fill="white"/>
<path d="M54.208 32.3224C54.4371 32.0939 54.7411 32.5037 54.4436 32.6547C54.2291 32.7637 54.0396 32.4905 54.208 32.3224Z" fill="white"/>
<path d="M6.16513 29.1596C6.43759 29.0729 6.53762 29.396 6.38362 29.5037C6.10985 29.6954 5.92295 29.2371 6.16513 29.1596Z" fill="white"/>
<path d="M6.16513 19.7658C6.43759 19.6791 6.53762 20.0022 6.38362 20.1099C6.10985 20.3017 5.92295 19.8433 6.16513 19.7658Z" fill="white"/>
<path d="M6.16513 32.3106C6.52051 32.2003 6.49155 32.6442 6.27701 32.6797C6.1217 32.7046 5.95322 32.3776 6.16513 32.3106Z" fill="white"/>
<path d="M54.2885 19.7605C54.5096 19.6988 54.6978 20.0495 54.4017 20.1296C54.1398 20.2005 54.1319 19.8052 54.2885 19.7605Z" fill="white"/>
<path d="M35.6865 17.3319C35.5733 18.5613 34.7454 19.9628 33.8214 20.7666C33.674 20.8953 32.7105 21.619 32.592 21.5245L35.6865 16.1656C35.6614 16.5439 35.7207 16.9589 35.6865 17.3319Z" fill="white"/>
<path d="M28.2643 3.43036H32.2432C32.3985 3.43036 32.2209 4.24207 32.2656 4.39837L32.2156 4.47455L28.3354 4.49294L28.2406 4.39837C28.2854 4.24207 28.1077 3.43036 28.263 3.43036H28.2643Z" fill="white"/>
<path d="M32.4012 2.35858L32.3381 3.17818H28.1696L28.1064 2.35858H32.4012Z" fill="white"/>
<path d="M43.5178 14.1481L43.4546 16.1656L42.8926 16.096L42.8952 14.2519L42.99 14.1573L43.5178 14.1481Z" fill="white"/>
<path d="M17.6149 16.096L17.0542 16.1656L16.9897 14.1481L17.5189 14.1573L17.6136 14.2519L17.6149 16.096Z" fill="white"/>
<path d="M46.2925 49.3224L28.0406 54.0311L27.9221 53.5294L28.0695 53.4204L46.0042 48.3242L46.2925 49.3224Z" fill="white"/>
</svg>
