<svg width="259" height="84" viewBox="0 0 259 84" fill="none" xmlns="http://www.w3.org/2000/svg">
<mask id="mask0_999_374" style="mask-type:alpha" maskUnits="userSpaceOnUse" x="0" y="0" width="259" height="84">
<path d="M7.96923 2V0H251.031V2H7.96923Z" fill="#FFF8DC"/>
<path d="M7.96923 82V84H251.031V82H7.96923Z" fill="#FFF8DC"/>
<path d="M0 8H2.65641V77H0V8Z" fill="#FFF8DC"/>
<path d="M2.65641 5H5.31282V8H2.65641V5Z" fill="#FFF8DC"/>
<path d="M5.31282 2H7.96923V5H5.31282V2Z" fill="#FFF8DC"/>
<path d="M0 76H2.65641V7H0V76Z" fill="#FFF8DC"/>
<path d="M2.65641 79H5.31282V76H2.65641V79Z" fill="#FFF8DC"/>
<path d="M5.31282 82H7.96923V79H5.31282V82Z" fill="#FFF8DC"/>
<path d="M259 8H256.344V77H259V8Z" fill="#FFF8DC"/>
<path d="M256.344 5H253.687V8H256.344V5Z" fill="#FFF8DC"/>
<path d="M253.687 2H251.031V5H253.687V2Z" fill="#FFF8DC"/>
<path d="M259 76H256.344V7H259V76Z" fill="#FFF8DC"/>
<path d="M256.344 79H253.687V76H256.344V79Z" fill="#FFF8DC"/>
<path d="M253.687 82H251.031V79H253.687V82Z" fill="#FFF8DC"/>
</mask>
<g mask="url(#mask0_999_374)">
<path d="M3.43666 -19.0182L-6.40075 -20.3394L-14 -10.8883H3.43666V-19.0182Z" fill="#215FC6"/>
<path d="M20.8762 -19.0182H3.43968V-10.8883H20.8762V-19.0182Z" fill="#215FC6"/>
<path d="M38.3095 -19.0182H20.873V-10.8883H38.3095V-19.0182Z" fill="#215FC6"/>
<path d="M55.7429 -19.0182H38.3063V-10.8883H55.7429V-19.0182Z" fill="#215FC6"/>
<path d="M3.43666 -10.8856H-14V-2.75565H3.43666V-10.8856Z" fill="#215FC6"/>
<path d="M20.8762 -10.8856H3.43968V-2.75567H20.8762V-10.8856Z" fill="white"/>
<path d="M38.3095 -10.8856H20.873V-2.75567H38.3095V-10.8856Z" fill="#215FC6"/>
<path d="M55.7429 -10.8856H38.3063V-2.75567H55.7429V-10.8856Z" fill="white"/>
<path d="M3.43666 -2.75565H-14V5.37417H3.43666V-2.75565Z" fill="#215FC6"/>
<path d="M20.8762 -2.75567H3.43968V5.37415H20.8762V-2.75567Z" fill="#215FC6"/>
<path d="M38.3095 -2.75567H20.873V5.37415H38.3095V-2.75567Z" fill="#215FC6"/>
<path d="M55.7429 -2.75567H38.3063V5.37415H55.7429V-2.75567Z" fill="#215FC6"/>
<path d="M3.43666 5.37417H-14V13.5042H3.43666V5.37417Z" fill="#215FC6"/>
<path d="M20.8762 5.37415H3.43968V13.5042H20.8762V5.37415Z" fill="white"/>
<path d="M38.3095 5.37415H20.873V13.5042H38.3095V5.37415Z" fill="#215FC6"/>
<path d="M55.7429 5.37415H38.3063V13.5042H55.7429V5.37415Z" fill="white"/>
<path d="M3.43666 13.5042H-14V21.634H3.43666V13.5042Z" fill="#215FC6"/>
<path d="M20.8762 13.5042H3.43968V21.634H20.8762V13.5042Z" fill="#215FC6"/>
<path d="M38.3095 13.5042H20.873V21.634H38.3095V13.5042Z" fill="#215FC6"/>
<path d="M55.7429 13.5042H38.3063V21.634H55.7429V13.5042Z" fill="#215FC6"/>
<path d="M3.43666 21.634H-14V29.764H3.43666V21.634Z" fill="#215FC6"/>
<path d="M20.8762 21.634H3.43968V29.764H20.8762V21.634Z" fill="white"/>
<path d="M38.3095 21.634H20.873V29.764H38.3095V21.634Z" fill="#215FC6"/>
<path d="M55.7429 21.634H38.3063V29.764H55.7429V21.634Z" fill="white"/>
<path d="M3.43666 29.764H-14V37.8938H3.43666V29.764Z" fill="#215FC6"/>
<path d="M20.8762 29.764H3.43968V37.8939H20.8762V29.764Z" fill="#215FC6"/>
<path d="M38.3095 29.764H20.873V37.8939H38.3095V29.764Z" fill="#215FC6"/>
<path d="M55.7429 29.764H38.3063V37.8939H55.7429V29.764Z" fill="#215FC6"/>
<path d="M3.43666 37.8966H-14V46.0266H3.43666V37.8966Z" fill="white"/>
<path d="M20.8762 37.8967H3.43968V46.0266H20.8762V37.8967Z" fill="white"/>
<path d="M38.3095 37.8967H20.873V46.0266H38.3095V37.8967Z" fill="white"/>
<path d="M55.7429 37.8967H38.3063V46.0266H55.7429V37.8967Z" fill="white"/>
<path d="M3.43666 46.0266H-14V54.1565H3.43666V46.0266Z" fill="#C62121"/>
<path d="M20.8762 46.0266H3.43968V54.1566H20.8762V46.0266Z" fill="#C62121"/>
<path d="M38.3095 46.0266H20.873V54.1566H38.3095V46.0266Z" fill="#C62121"/>
<path d="M55.7429 46.0266H38.3063V54.1566H55.7429V46.0266Z" fill="#C62121"/>
<path d="M73.1846 -19.0182H55.7481V-10.8883H73.1846V-19.0182Z" fill="#215FC6"/>
<path d="M90.6243 -19.0182H73.1878V-10.8883H90.6243V-19.0182Z" fill="#215FC6"/>
<path d="M108.066 -19.0182H90.6296V-10.8883H108.066V-19.0182Z" fill="#215FC6"/>
<path d="M125.497 -19.0182H108.061V-10.8883H125.497V-19.0182Z" fill="#C62121"/>
<path d="M142.931 -19.0182H125.494V-10.8883H142.931V-19.0182Z" fill="#C62121"/>
<path d="M160.379 -19.0182H142.942V-10.8883H160.379V-19.0182Z" fill="#C62121"/>
<path d="M177.812 -19.0182H160.376V-10.8883H177.812V-19.0182Z" fill="#C62121"/>
<path d="M195.254 -19.0182H177.817V-10.8883H195.254V-19.0182Z" fill="#C62121"/>
<path d="M73.1846 -10.8856H55.7481V-2.75567H73.1846V-10.8856Z" fill="#215FC6"/>
<path d="M90.6243 -10.8856H73.1878V-2.75567H90.6243V-10.8856Z" fill="white"/>
<path d="M108.066 -10.8856H90.6296V-2.75567H108.066V-10.8856Z" fill="#215FC6"/>
<path d="M125.497 -10.8856H108.061V-2.75567H125.497V-10.8856Z" fill="white"/>
<path d="M142.931 -10.8856H125.494V-2.75567H142.931V-10.8856Z" fill="white"/>
<path d="M160.379 -10.8856H142.942V-2.75567H160.379V-10.8856Z" fill="white"/>
<path d="M177.812 -10.8856H160.376V-2.75567H177.812V-10.8856Z" fill="white"/>
<path d="M195.254 -10.8856H177.817V-2.75567H195.254V-10.8856Z" fill="white"/>
<path d="M73.1846 -2.75567H55.7481V5.37415H73.1846V-2.75567Z" fill="#215FC6"/>
<path d="M90.6243 -2.75567H73.1878V5.37415H90.6243V-2.75567Z" fill="#215FC6"/>
<path d="M108.066 -2.75567H90.6296V5.37415H108.066V-2.75567Z" fill="#215FC6"/>
<path d="M125.497 -2.75567H108.061V5.37415H125.497V-2.75567Z" fill="#C62121"/>
<path d="M142.931 -2.75567H125.494V5.37415H142.931V-2.75567Z" fill="#C62121"/>
<path d="M160.379 -2.75567H142.942V5.37415H160.379V-2.75567Z" fill="#C62121"/>
<path d="M177.812 -2.75567H160.376V5.37415H177.812V-2.75567Z" fill="#C62121"/>
<path d="M195.254 -2.75567H177.817V5.37415H195.254V-2.75567Z" fill="#C62121"/>
<path d="M73.1846 5.37415H55.7481V13.5042H73.1846V5.37415Z" fill="#215FC6"/>
<path d="M90.6243 5.37415H73.1878V13.5042H90.6243V5.37415Z" fill="white"/>
<path d="M108.066 5.37415H90.6296V13.5042H108.066V5.37415Z" fill="#215FC6"/>
<path d="M125.497 5.37415H108.061V13.5042H125.497V5.37415Z" fill="white"/>
<path d="M142.931 5.37415H125.494V13.5042H142.931V5.37415Z" fill="white"/>
<path d="M160.379 5.37415H142.942V13.5042H160.379V5.37415Z" fill="white"/>
<path d="M177.812 5.37415H160.376V13.5042H177.812V5.37415Z" fill="white"/>
<path d="M195.254 5.37415H177.817V13.5042H195.254V5.37415Z" fill="white"/>
<path d="M73.1846 13.5042H55.7481V21.634H73.1846V13.5042Z" fill="#215FC6"/>
<path d="M90.6243 13.5042H73.1878V21.634H90.6243V13.5042Z" fill="#215FC6"/>
<path d="M108.066 13.5042H90.6296V21.634H108.066V13.5042Z" fill="#215FC6"/>
<path d="M125.497 13.5042H108.061V21.634H125.497V13.5042Z" fill="#C62121"/>
<path d="M142.931 13.5042H125.494V21.634H142.931V13.5042Z" fill="#C62121"/>
<path d="M160.379 13.5042H142.942V21.634H160.379V13.5042Z" fill="#C62121"/>
<path d="M177.812 13.5042H160.376V21.634H177.812V13.5042Z" fill="#C62121"/>
<path d="M195.254 13.5042H177.817V21.634H195.254V13.5042Z" fill="#C62121"/>
<path d="M73.1846 21.634H55.7481V29.764H73.1846V21.634Z" fill="#215FC6"/>
<path d="M90.6243 21.634H73.1878V29.764H90.6243V21.634Z" fill="white"/>
<path d="M108.066 21.634H90.6296V29.764H108.066V21.634Z" fill="#215FC6"/>
<path d="M125.497 21.634H108.061V29.764H125.497V21.634Z" fill="white"/>
<path d="M142.931 21.634H125.494V29.764H142.931V21.634Z" fill="white"/>
<path d="M160.379 21.634H142.942V29.764H160.379V21.634Z" fill="white"/>
<path d="M177.812 21.634H160.376V29.764H177.812V21.634Z" fill="white"/>
<path d="M195.254 21.634H177.817V29.764H195.254V21.634Z" fill="white"/>
<path d="M73.1846 29.764H55.7481V37.8939H73.1846V29.764Z" fill="#215FC6"/>
<path d="M90.6243 29.764H73.1878V37.8939H90.6243V29.764Z" fill="#215FC6"/>
<path d="M108.066 29.764H90.6296V37.8939H108.066V29.764Z" fill="#215FC6"/>
<path d="M125.497 29.764H108.061V37.8939H125.497V29.764Z" fill="#C62121"/>
<path d="M142.931 29.764H125.494V37.8939H142.931V29.764Z" fill="#C62121"/>
<path d="M160.379 29.764H142.942V37.8939H160.379V29.764Z" fill="#C62121"/>
<path d="M177.812 29.764H160.376V37.8939H177.812V29.764Z" fill="#C62121"/>
<path d="M195.254 29.764H177.817V37.8939H195.254V29.764Z" fill="#C62121"/>
<path d="M73.1846 37.8967H55.7481V46.0266H73.1846V37.8967Z" fill="white"/>
<path d="M90.6243 37.8967H73.1878V46.0266H90.6243V37.8967Z" fill="white"/>
<path d="M108.066 37.8967H90.6296V46.0266H108.066V37.8967Z" fill="white"/>
<path d="M125.497 37.8967H108.061V46.0266H125.497V37.8967Z" fill="white"/>
<path d="M142.931 37.8967H125.494V46.0266H142.931V37.8967Z" fill="white"/>
<path d="M160.379 37.8967H142.942V46.0266H160.379V37.8967Z" fill="white"/>
<path d="M177.812 37.8967H160.376V46.0266H177.812V37.8967Z" fill="white"/>
<path d="M195.254 37.8967H177.817V46.0266H195.254V37.8967Z" fill="white"/>
<path d="M73.1846 46.0266H55.7481V54.1566H73.1846V46.0266Z" fill="#C62121"/>
<path d="M90.6243 46.0266H73.1878V54.1566H90.6243V46.0266Z" fill="#C62121"/>
<path d="M108.066 46.0266H90.6296V54.1566H108.066V46.0266Z" fill="#C62121"/>
<path d="M125.497 46.0266H108.061V54.1566H125.497V46.0266Z" fill="#C62121"/>
<path d="M142.931 46.0266H125.494V54.1566H142.931V46.0266Z" fill="#C62121"/>
<path d="M160.379 46.0266H142.942V54.1566H160.379V46.0266Z" fill="#C62121"/>
<path d="M177.812 46.0266H160.376V54.1566H177.812V46.0266Z" fill="#C62121"/>
<path d="M195.254 46.0266H177.817V54.1566H195.254V46.0266Z" fill="#C62121"/>
<path d="M212.687 -19.0182H195.251V-10.8883H212.687V-19.0182Z" fill="#C62121"/>
<path d="M230.12 -19.0182H212.684V-10.8883H230.12V-19.0182Z" fill="#C62121"/>
<path d="M247.558 -19.0182H230.12V-10.8883H247.558V-19.0182Z" fill="#C62121"/>
<path d="M254.145 -21L247.563 -19.0182V-10.8883H265L254.145 -21Z" fill="#C62121"/>
<path d="M212.687 -10.8856H195.251V-2.75567H212.687V-10.8856Z" fill="white"/>
<path d="M230.12 -10.8856H212.684V-2.75567H230.12V-10.8856Z" fill="white"/>
<path d="M247.558 -10.8856H230.12V-2.75567H247.558V-10.8856Z" fill="white"/>
<path d="M265 -10.8856H247.563V-2.75567H265V-10.8856Z" fill="white"/>
<path d="M212.687 -2.75567H195.251V5.37415H212.687V-2.75567Z" fill="#C62121"/>
<path d="M230.12 -2.75567H212.684V5.37415H230.12V-2.75567Z" fill="#C62121"/>
<path d="M247.558 -2.75567H230.12V5.37415H247.558V-2.75567Z" fill="#C62121"/>
<path d="M265 -2.75567H247.563V5.37415H265V-2.75567Z" fill="#C62121"/>
<path d="M212.687 5.37415H195.251V13.5042H212.687V5.37415Z" fill="white"/>
<path d="M230.12 5.37415H212.684V13.5042H230.12V5.37415Z" fill="white"/>
<path d="M247.558 5.37415H230.12V13.5042H247.558V5.37415Z" fill="white"/>
<path d="M265 5.37415H247.563V13.5042H265V5.37415Z" fill="white"/>
<path d="M212.687 13.5042H195.251V21.634H212.687V13.5042Z" fill="#C62121"/>
<path d="M230.12 13.5042H212.684V21.634H230.12V13.5042Z" fill="#C62121"/>
<path d="M247.558 13.5042H230.12V21.634H247.558V13.5042Z" fill="#C62121"/>
<path d="M265 13.5042H247.563V21.634H265V13.5042Z" fill="#C62121"/>
<path d="M212.687 21.634H195.251V29.764H212.687V21.634Z" fill="white"/>
<path d="M230.12 21.634H212.684V29.764H230.12V21.634Z" fill="white"/>
<path d="M247.558 21.634H230.12V29.764H247.558V21.634Z" fill="white"/>
<path d="M265 21.634H247.563V29.764H265V21.634Z" fill="white"/>
<path d="M212.687 29.764H195.251V37.8939H212.687V29.764Z" fill="#C62121"/>
<path d="M230.12 29.764H212.684V37.8939H230.12V29.764Z" fill="#C62121"/>
<path d="M247.558 29.764H230.12V37.8939H247.558V29.764Z" fill="#C62121"/>
<path d="M265 29.764H247.563V37.8939H265V29.764Z" fill="#C62121"/>
<path d="M212.687 37.8967H195.251V46.0266H212.687V37.8967Z" fill="white"/>
<path d="M230.12 37.8967H212.684V46.0266H230.12V37.8967Z" fill="white"/>
<path d="M247.558 37.8967H230.12V46.0266H247.558V37.8967Z" fill="white"/>
<path d="M265 37.8967H247.563V46.0266H265V37.8967Z" fill="white"/>
<path d="M212.687 46.0266H195.251V54.1566H212.687V46.0266Z" fill="#C62121"/>
<path d="M230.12 46.0266H212.684V54.1566H230.12V46.0266Z" fill="#C62121"/>
<path d="M247.558 46.0266H230.12V54.1566H247.558V46.0266Z" fill="#C62121"/>
<path d="M265 46.0266H247.563V54.1566H265V46.0266Z" fill="#C62121"/>
<path d="M3.43666 54.1565H-14V62.2865H3.43666V54.1565Z" fill="white"/>
<path d="M20.8762 54.1566H3.43968V62.2866H20.8762V54.1566Z" fill="white"/>
<path d="M38.3095 54.1566H20.873V62.2866H38.3095V54.1566Z" fill="white"/>
<path d="M55.7429 54.1566H38.3063V62.2866H55.7429V54.1566Z" fill="white"/>
<path d="M3.43666 62.2865H-14V70.4163H3.43666V62.2865Z" fill="#C62121"/>
<path d="M20.8762 62.2866H3.43968V70.4163H20.8762V62.2866Z" fill="#C62121"/>
<path d="M38.3095 62.2866H20.873V70.4163H38.3095V62.2866Z" fill="#C62121"/>
<path d="M55.7429 62.2866H38.3063V70.4163H55.7429V62.2866Z" fill="#C62121"/>
<path d="M3.43666 70.4163H-14V78.5465H3.43666V70.4163Z" fill="white"/>
<path d="M20.8762 70.4163H3.43968V78.5464H20.8762V70.4163Z" fill="white"/>
<path d="M38.3095 70.4163H20.873V78.5464H38.3095V70.4163Z" fill="white"/>
<path d="M55.7429 70.4163H38.3063V78.5464H55.7429V70.4163Z" fill="white"/>
<path d="M73.1846 54.1566H55.7481V62.2866H73.1846V54.1566Z" fill="white"/>
<path d="M90.6243 54.1566H73.1878V62.2866H90.6243V54.1566Z" fill="white"/>
<path d="M108.066 54.1566H90.6296V62.2866H108.066V54.1566Z" fill="white"/>
<path d="M125.497 54.1566H108.061V62.2866H125.497V54.1566Z" fill="white"/>
<path d="M142.931 54.1566H125.494V62.2866H142.931V54.1566Z" fill="white"/>
<path d="M160.379 54.1566H142.942V62.2866H160.379V54.1566Z" fill="white"/>
<path d="M177.812 54.1566H160.376V62.2866H177.812V54.1566Z" fill="white"/>
<path d="M195.254 54.1566H177.817V62.2866H195.254V54.1566Z" fill="white"/>
<path d="M73.1846 62.2866H55.7481V70.4163H73.1846V62.2866Z" fill="#C62121"/>
<path d="M90.6243 62.2866H73.1878V70.4163H90.6243V62.2866Z" fill="#C62121"/>
<path d="M108.066 62.2866H90.6296V70.4163H108.066V62.2866Z" fill="#C62121"/>
<path d="M125.497 62.2866H108.061V70.4163H125.497V62.2866Z" fill="#C62121"/>
<path d="M142.931 62.2866H125.494V70.4163H142.931V62.2866Z" fill="#C62121"/>
<path d="M160.379 62.2866H142.942V70.4163H160.379V62.2866Z" fill="#C62121"/>
<path d="M177.812 62.2866H160.376V70.4163H177.812V62.2866Z" fill="#C62121"/>
<path d="M195.254 62.2866H177.817V70.4163H195.254V62.2866Z" fill="#C62121"/>
<path d="M73.1846 70.4163H55.7481V78.5464H73.1846V70.4163Z" fill="white"/>
<path d="M90.6243 70.4163H73.1878V78.5464H90.6243V70.4163Z" fill="white"/>
<path d="M108.066 70.4163H90.6296V78.5464H108.066V70.4163Z" fill="white"/>
<path d="M125.497 70.4163H108.061V78.5464H125.497V70.4163Z" fill="white"/>
<path d="M142.931 70.4163H125.494V78.5464H142.931V70.4163Z" fill="white"/>
<path d="M160.379 70.4163H142.942V78.5464H160.379V70.4163Z" fill="white"/>
<path d="M177.812 70.4163H160.376V78.5464H177.812V70.4163Z" fill="white"/>
<path d="M195.254 70.4163H177.817V78.5464H195.254V70.4163Z" fill="white"/>
<path d="M212.687 54.1566H195.251V62.2866H212.687V54.1566Z" fill="white"/>
<path d="M230.12 54.1566H212.684V62.2866H230.12V54.1566Z" fill="white"/>
<path d="M247.558 54.1566H230.12V62.2866H247.558V54.1566Z" fill="white"/>
<path d="M265 54.1566H247.563V62.2866H265V54.1566Z" fill="white"/>
<path d="M212.687 62.2866H195.251V70.4163H212.687V62.2866Z" fill="#C62121"/>
<path d="M230.12 62.2866H212.684V70.4163H230.12V62.2866Z" fill="#C62121"/>
<path d="M247.558 62.2866H230.12V70.4163H247.558V62.2866Z" fill="#C62121"/>
<path d="M265 62.2866H247.563V70.4163H265V62.2866Z" fill="#C62121"/>
<path d="M212.687 70.4163H195.251V78.5464H212.687V70.4163Z" fill="white"/>
<path d="M230.12 70.4163H212.684V78.5464H230.12V70.4163Z" fill="white"/>
<path d="M247.558 70.4163H230.12V78.5464H247.558V70.4163Z" fill="white"/>
<path d="M265 70.4163H247.563V78.5464H265V70.4163Z" fill="white"/>
<path d="M3.43742 78.549H-13.7519C-10.7515 80.874 -9.53572 82.4289 -10.1996 86.6788L3.43742 86.6789V78.549Z" fill="#C62121"/>
<path d="M20.8762 78.549H3.43968V86.6789H20.8762V78.549Z" fill="#C62121"/>
<path d="M38.3095 78.549H20.873V86.6789H38.3095V78.549Z" fill="#C62121"/>
<path d="M55.7429 78.549H38.3063V86.6789H55.7429V78.549Z" fill="#C62121"/>
<path d="M73.1846 78.549H55.7481V86.6789H73.1846V78.549Z" fill="#C62121"/>
<path d="M90.6243 78.549H73.1878V86.6789H90.6243V78.549Z" fill="#C62121"/>
<path d="M108.066 78.549H90.6296V86.6789H108.066V78.549Z" fill="#C62121"/>
<path d="M125.497 78.549H108.061V86.6789H125.497V78.549Z" fill="#C62121"/>
<path d="M142.931 78.549H125.494V86.6789H142.931V78.549Z" fill="#C62121"/>
<path d="M160.379 78.549H142.942V86.6789H160.379V78.549Z" fill="#C62121"/>
<path d="M177.812 78.549H160.376V86.6789H177.812V78.549Z" fill="#C62121"/>
<path d="M195.254 78.549H177.817V86.6789H195.254V78.549Z" fill="#C62121"/>
<path d="M212.687 78.549H195.251V86.6789H212.687V78.549Z" fill="#C62121"/>
<path d="M230.12 78.549H212.684V86.6789H230.12V78.549Z" fill="#C62121"/>
<path d="M247.558 78.549H230.12V86.6789H247.558V78.549Z" fill="#C62121"/>
<path d="M265 78.549H247.563V86.6789L255.23 88L265 78.549Z" fill="#C62121"/>
</g>
</svg>
