<svg width="259" height="84" fill="none" xmlns="http://www.w3.org/2000/svg"><mask id="a" style="mask-type:alpha" maskUnits="userSpaceOnUse" x="0" y="0" width="259" height="84"><path d="M7.97 2V0H251.03v2H7.969ZM7.97 82v2H251.03v-2H7.969ZM0 8h2.656v69H0V8ZM2.656 5h2.657v3H2.656V5ZM5.313 2h2.656v3H5.313V2Z" fill="#FFF8DC"/><path d="M0 76h2.656V7H0v69ZM2.656 79h2.657v-3H2.656v3ZM5.313 82h2.656v-3H5.313v3ZM259 8h-2.656v69H259V8ZM256.344 5h-2.657v3h2.657V5ZM253.687 2h-2.656v3h2.656V2Z" fill="#FFF8DC"/><path d="M259 76h-2.656V7H259v69ZM256.344 79h-2.657v-3h2.657v3ZM253.687 82h-2.656v-3h2.656v3Z" fill="#FFF8DC"/></mask><g mask="url(#a)"><path d="m3.437-19.018-9.838-1.321L-14-10.89H3.437v-8.13ZM20.876-19.018H3.44v8.13h17.436v-8.13Z" fill="#215FC6"/><path d="M38.31-19.018H20.872v8.13h17.436v-8.13Z" fill="#215FC6"/><path d="M55.743-19.018H38.306v8.13h17.437v-8.13ZM3.437-10.886H-14v8.13H3.437v-8.13Z" fill="#215FC6"/><path d="M20.876-10.886H3.44v8.13h17.436v-8.13Z" fill="#fff"/><path d="M38.31-10.886H20.872v8.13h17.436v-8.13Z" fill="#215FC6"/><path d="M55.743-10.886H38.306v8.13h17.437v-8.13Z" fill="#fff"/><path d="M3.437-2.756H-14v8.13H3.437v-8.13ZM20.876-2.756H3.44v8.13h17.436v-8.13Z" fill="#215FC6"/><path d="M38.31-2.756H20.872v8.13h17.436v-8.13Z" fill="#215FC6"/><path d="M55.743-2.756H38.306v8.13h17.437v-8.13ZM3.437 5.374H-14v8.13H3.437v-8.13Z" fill="#215FC6"/><path d="M20.876 5.374H3.44v8.13h17.436v-8.13Z" fill="#fff"/><path d="M38.31 5.374H20.872v8.13h17.436v-8.13Z" fill="#215FC6"/><path d="M55.743 5.374H38.306v8.13h17.437v-8.13Z" fill="#fff"/><path d="M3.437 13.504H-14v8.13H3.437v-8.13ZM20.876 13.504H3.44v8.13h17.436v-8.13Z" fill="#215FC6"/><path d="M38.31 13.504H20.872v8.13h17.436v-8.13Z" fill="#215FC6"/><path d="M55.743 13.504H38.306v8.13h17.437v-8.13ZM3.437 21.634H-14v8.13H3.437v-8.13Z" fill="#215FC6"/><path d="M20.876 21.634H3.44v8.13h17.436v-8.13Z" fill="#fff"/><path d="M38.31 21.634H20.872v8.13h17.436v-8.13Z" fill="#215FC6"/><path d="M55.743 21.634H38.306v8.13h17.437v-8.13Z" fill="#fff"/><path d="M3.437 29.764H-14v8.13H3.437v-8.13ZM20.876 29.764H3.44v8.13h17.436v-8.13Z" fill="#215FC6"/><path d="M38.31 29.764H20.872v8.13h17.436v-8.13Z" fill="#215FC6"/><path d="M55.743 29.764H38.306v8.13h17.437v-8.13Z" fill="#215FC6"/><path d="M3.437 37.897H-14v8.13H3.437v-8.13ZM20.876 37.897H3.44v8.13h17.436v-8.13Z" fill="#fff"/><path d="M38.31 37.897H20.872v8.13h17.436v-8.13Z" fill="#fff"/><path d="M55.743 37.897H38.306v8.13h17.437v-8.13Z" fill="#fff"/><path d="M3.437 46.027H-14v8.13H3.437v-8.13ZM20.876 46.027H3.44v8.13h17.436v-8.13Z" fill="#C62121"/><path d="M38.31 46.027H20.872v8.13h17.436v-8.13Z" fill="#C62121"/><path d="M55.743 46.027H38.306v8.13h17.437v-8.13Z" fill="#C62121"/><path d="M73.185-19.018H55.748v8.13h17.437v-8.13ZM90.624-19.018H73.188v8.13h17.436v-8.13ZM108.066-19.018H90.63v8.13h17.436v-8.13Z" fill="#215FC6"/><path d="M125.497-19.018h-17.436v8.13h17.436v-8.13Z" fill="#C62121"/><path d="M142.931-19.018h-17.437v8.13h17.437v-8.13ZM160.379-19.018h-17.437v8.13h17.437v-8.13Z" fill="#C62121"/><path d="M177.812-19.018h-17.436v8.13h17.436v-8.13ZM195.254-19.018h-17.437v8.13h17.437v-8.13Z" fill="#C62121"/><path d="M73.185-10.886H55.748v8.13h17.437v-8.13Z" fill="#215FC6"/><path d="M90.624-10.886H73.188v8.13h17.436v-8.13Z" fill="#fff"/><path d="M108.066-10.886H90.63v8.13h17.436v-8.13Z" fill="#215FC6"/><path d="M125.497-10.886h-17.436v8.13h17.436v-8.13Z" fill="#fff"/><path d="M142.931-10.886h-17.437v8.13h17.437v-8.13ZM160.379-10.886h-17.437v8.13h17.437v-8.13Z" fill="#fff"/><path d="M177.812-10.886h-17.436v8.13h17.436v-8.13ZM195.254-10.886h-17.437v8.13h17.437v-8.13Z" fill="#fff"/><path d="M73.185-2.756H55.748v8.13h17.437v-8.13ZM90.624-2.756H73.188v8.13h17.436v-8.13ZM108.066-2.756H90.63v8.13h17.436v-8.13Z" fill="#215FC6"/><path d="M125.497-2.756h-17.436v8.13h17.436v-8.13Z" fill="#C62121"/><path d="M142.931-2.756h-17.437v8.13h17.437v-8.13ZM160.379-2.756h-17.437v8.13h17.437v-8.13Z" fill="#C62121"/><path d="M177.812-2.756h-17.436v8.13h17.436v-8.13ZM195.254-2.756h-17.437v8.13h17.437v-8.13Z" fill="#C62121"/><path d="M73.185 5.374H55.748v8.13h17.437v-8.13Z" fill="#215FC6"/><path d="M90.624 5.374H73.188v8.13h17.436v-8.13Z" fill="#fff"/><path d="M108.066 5.374H90.63v8.13h17.436v-8.13Z" fill="#215FC6"/><path d="M125.497 5.374h-17.436v8.13h17.436v-8.13Z" fill="#fff"/><path d="M142.931 5.374h-17.437v8.13h17.437v-8.13ZM160.379 5.374h-17.437v8.13h17.437v-8.13Z" fill="#fff"/><path d="M177.812 5.374h-17.436v8.13h17.436v-8.13ZM195.254 5.374h-17.437v8.13h17.437v-8.13Z" fill="#fff"/><path d="M73.185 13.504H55.748v8.13h17.437v-8.13ZM90.624 13.504H73.188v8.13h17.436v-8.13ZM108.066 13.504H90.63v8.13h17.436v-8.13Z" fill="#215FC6"/><path d="M125.497 13.504h-17.436v8.13h17.436v-8.13Z" fill="#C62121"/><path d="M142.931 13.504h-17.437v8.13h17.437v-8.13ZM160.379 13.504h-17.437v8.13h17.437v-8.13Z" fill="#C62121"/><path d="M177.812 13.504h-17.436v8.13h17.436v-8.13ZM195.254 13.504h-17.437v8.13h17.437v-8.13Z" fill="#C62121"/><path d="M73.185 21.634H55.748v8.13h17.437v-8.13Z" fill="#215FC6"/><path d="M90.624 21.634H73.188v8.13h17.436v-8.13Z" fill="#fff"/><path d="M108.066 21.634H90.63v8.13h17.436v-8.13Z" fill="#215FC6"/><path d="M125.497 21.634h-17.436v8.13h17.436v-8.13Z" fill="#fff"/><path d="M142.931 21.634h-17.437v8.13h17.437v-8.13ZM160.379 21.634h-17.437v8.13h17.437v-8.13Z" fill="#fff"/><path d="M177.812 21.634h-17.436v8.13h17.436v-8.13ZM195.254 21.634h-17.437v8.13h17.437v-8.13Z" fill="#fff"/><path d="M73.185 29.764H55.748v8.13h17.437v-8.13ZM90.624 29.764H73.188v8.13h17.436v-8.13ZM108.066 29.764H90.63v8.13h17.436v-8.13Z" fill="#215FC6"/><path d="M125.497 29.764h-17.436v8.13h17.436v-8.13Z" fill="#C62121"/><path d="M142.931 29.764h-17.437v8.13h17.437v-8.13ZM160.379 29.764h-17.437v8.13h17.437v-8.13Z" fill="#C62121"/><path d="M177.812 29.764h-17.436v8.13h17.436v-8.13ZM195.254 29.764h-17.437v8.13h17.437v-8.13Z" fill="#C62121"/><path d="M73.185 37.897H55.748v8.13h17.437v-8.13ZM90.624 37.897H73.188v8.13h17.436v-8.13ZM108.066 37.897H90.63v8.13h17.436v-8.13Z" fill="#fff"/><path d="M125.497 37.897h-17.436v8.13h17.436v-8.13Z" fill="#fff"/><path d="M142.931 37.897h-17.437v8.13h17.437v-8.13ZM160.379 37.897h-17.437v8.13h17.437v-8.13Z" fill="#fff"/><path d="M177.812 37.897h-17.436v8.13h17.436v-8.13ZM195.254 37.897h-17.437v8.13h17.437v-8.13Z" fill="#fff"/><path d="M73.185 46.027H55.748v8.13h17.437v-8.13ZM90.624 46.027H73.188v8.13h17.436v-8.13ZM108.066 46.027H90.63v8.13h17.436v-8.13Z" fill="#C62121"/><path d="M125.497 46.027h-17.436v8.13h17.436v-8.13Z" fill="#C62121"/><path d="M142.931 46.027h-17.437v8.13h17.437v-8.13ZM160.379 46.027h-17.437v8.13h17.437v-8.13Z" fill="#C62121"/><path d="M177.812 46.027h-17.436v8.13h17.436v-8.13ZM195.254 46.027h-17.437v8.13h17.437v-8.13ZM212.687-19.018h-17.436v8.13h17.436v-8.13Z" fill="#C62121"/><path d="M230.12-19.018h-17.436v8.13h17.436v-8.13ZM247.558-19.018H230.12v8.13h17.438v-8.13ZM254.145-21l-6.582 1.982v8.13H265L254.145-21Z" fill="#C62121"/><path d="M212.687-10.886h-17.436v8.13h17.436v-8.13Z" fill="#fff"/><path d="M230.12-10.886h-17.436v8.13h17.436v-8.13ZM247.558-10.886H230.12v8.13h17.438v-8.13ZM265-10.886h-17.437v8.13H265v-8.13Z" fill="#fff"/><path d="M212.687-2.756h-17.436v8.13h17.436v-8.13Z" fill="#C62121"/><path d="M230.12-2.756h-17.436v8.13h17.436v-8.13ZM247.558-2.756H230.12v8.13h17.438v-8.13ZM265-2.756h-17.437v8.13H265v-8.13Z" fill="#C62121"/><path d="M212.687 5.374h-17.436v8.13h17.436v-8.13Z" fill="#fff"/><path d="M230.12 5.374h-17.436v8.13h17.436v-8.13ZM247.558 5.374H230.12v8.13h17.438v-8.13ZM265 5.374h-17.437v8.13H265v-8.13Z" fill="#fff"/><path d="M212.687 13.504h-17.436v8.13h17.436v-8.13Z" fill="#C62121"/><path d="M230.12 13.504h-17.436v8.13h17.436v-8.13ZM247.558 13.504H230.12v8.13h17.438v-8.13ZM265 13.504h-17.437v8.13H265v-8.13Z" fill="#C62121"/><path d="M212.687 21.634h-17.436v8.13h17.436v-8.13Z" fill="#fff"/><path d="M230.12 21.634h-17.436v8.13h17.436v-8.13ZM247.558 21.634H230.12v8.13h17.438v-8.13ZM265 21.634h-17.437v8.13H265v-8.13Z" fill="#fff"/><path d="M212.687 29.764h-17.436v8.13h17.436v-8.13Z" fill="#C62121"/><path d="M230.12 29.764h-17.436v8.13h17.436v-8.13ZM247.558 29.764H230.12v8.13h17.438v-8.13ZM265 29.764h-17.437v8.13H265v-8.13Z" fill="#C62121"/><path d="M212.687 37.897h-17.436v8.13h17.436v-8.13Z" fill="#fff"/><path d="M230.12 37.897h-17.436v8.13h17.436v-8.13ZM247.558 37.897H230.12v8.13h17.438v-8.13ZM265 37.897h-17.437v8.13H265v-8.13Z" fill="#fff"/><path d="M212.687 46.027h-17.436v8.13h17.436v-8.13Z" fill="#C62121"/><path d="M230.12 46.027h-17.436v8.13h17.436v-8.13ZM247.558 46.027H230.12v8.13h17.438v-8.13ZM265 46.027h-17.437v8.13H265v-8.13Z" fill="#C62121"/><path d="M3.437 54.157H-14v8.13H3.437v-8.13ZM20.876 54.157H3.44v8.13h17.436v-8.13Z" fill="#fff"/><path d="M38.31 54.157H20.872v8.13h17.436v-8.13Z" fill="#fff"/><path d="M55.743 54.157H38.306v8.13h17.437v-8.13Z" fill="#fff"/><path d="M3.437 62.286H-14v8.13H3.437v-8.13ZM20.876 62.287H3.44v8.13h17.436v-8.13Z" fill="#C62121"/><path d="M38.31 62.287H20.872v8.13h17.436v-8.13Z" fill="#C62121"/><path d="M55.743 62.287H38.306v8.13h17.437v-8.13Z" fill="#C62121"/><path d="M3.437 70.416H-14v8.13H3.437v-8.13ZM20.876 70.416H3.44v8.13h17.436v-8.13Z" fill="#fff"/><path d="M38.31 70.416H20.872v8.13h17.436v-8.13Z" fill="#fff"/><path d="M55.743 70.416H38.306v8.13h17.437v-8.13ZM73.185 54.157H55.748v8.13h17.437v-8.13ZM90.624 54.157H73.188v8.13h17.436v-8.13ZM108.066 54.157H90.63v8.13h17.436v-8.13Z" fill="#fff"/><path d="M125.497 54.157h-17.436v8.13h17.436v-8.13Z" fill="#fff"/><path d="M142.931 54.157h-17.437v8.13h17.437v-8.13ZM160.379 54.157h-17.437v8.13h17.437v-8.13Z" fill="#fff"/><path d="M177.812 54.157h-17.436v8.13h17.436v-8.13ZM195.254 54.157h-17.437v8.13h17.437v-8.13Z" fill="#fff"/><path d="M73.185 62.287H55.748v8.13h17.437v-8.13ZM90.624 62.287H73.188v8.13h17.436v-8.13ZM108.066 62.287H90.63v8.13h17.436v-8.13Z" fill="#C62121"/><path d="M125.497 62.287h-17.436v8.13h17.436v-8.13Z" fill="#C62121"/><path d="M142.931 62.287h-17.437v8.13h17.437v-8.13ZM160.379 62.287h-17.437v8.13h17.437v-8.13Z" fill="#C62121"/><path d="M177.812 62.287h-17.436v8.13h17.436v-8.13ZM195.254 62.287h-17.437v8.13h17.437v-8.13Z" fill="#C62121"/><path d="M73.185 70.416H55.748v8.13h17.437v-8.13ZM90.624 70.416H73.188v8.13h17.436v-8.13ZM108.066 70.416H90.63v8.13h17.436v-8.13Z" fill="#fff"/><path d="M125.497 70.416h-17.436v8.13h17.436v-8.13Z" fill="#fff"/><path d="M142.931 70.416h-17.437v8.13h17.437v-8.13ZM160.379 70.416h-17.437v8.13h17.437v-8.13Z" fill="#fff"/><path d="M177.812 70.416h-17.436v8.13h17.436v-8.13ZM195.254 70.416h-17.437v8.13h17.437v-8.13ZM212.687 54.157h-17.436v8.13h17.436v-8.13Z" fill="#fff"/><path d="M230.12 54.157h-17.436v8.13h17.436v-8.13ZM247.558 54.157H230.12v8.13h17.438v-8.13ZM265 54.157h-17.437v8.13H265v-8.13Z" fill="#fff"/><path d="M212.687 62.287h-17.436v8.13h17.436v-8.13Z" fill="#C62121"/><path d="M230.12 62.287h-17.436v8.13h17.436v-8.13ZM247.558 62.287H230.12v8.13h17.438v-8.13ZM265 62.287h-17.437v8.13H265v-8.13Z" fill="#C62121"/><path d="M212.687 70.416h-17.436v8.13h17.436v-8.13Z" fill="#fff"/><path d="M230.12 70.416h-17.436v8.13h17.436v-8.13ZM247.558 70.416H230.12v8.13h17.438v-8.13ZM265 70.416h-17.437v8.13H265v-8.13Z" fill="#fff"/><path d="M3.437 78.549h-17.189c3 2.325 4.216 3.88 3.552 8.13H3.437v-8.13ZM20.876 78.549H3.44v8.13h17.436v-8.13Z" fill="#C62121"/><path d="M38.31 78.549H20.872v8.13h17.436v-8.13Z" fill="#C62121"/><path d="M55.743 78.549H38.306v8.13h17.437v-8.13ZM73.185 78.549H55.748v8.13h17.437v-8.13ZM90.624 78.549H73.188v8.13h17.436v-8.13ZM108.066 78.549H90.63v8.13h17.436v-8.13Z" fill="#C62121"/><path d="M125.497 78.549h-17.436v8.13h17.436v-8.13Z" fill="#C62121"/><path d="M142.931 78.549h-17.437v8.13h17.437v-8.13ZM160.379 78.549h-17.437v8.13h17.437v-8.13Z" fill="#C62121"/><path d="M177.812 78.549h-17.436v8.13h17.436v-8.13ZM195.254 78.549h-17.437v8.13h17.437v-8.13Z" fill="#C62121"/><path d="M212.687 78.549h-17.436v8.13h17.436v-8.13Z" fill="#C62121"/><path d="M230.12 78.549h-17.436v8.13h17.436v-8.13ZM247.558 78.549H230.12v8.13h17.438v-8.13ZM265 78.549h-17.437v8.13L255.23 88l9.77-9.451Z" fill="#C62121"/></g></svg>