<svg width="411" height="411" viewBox="0 0 411 411" fill="none" xmlns="http://www.w3.org/2000/svg">
<mask id="path-1-inside-1_101_2" fill="white">
<path d="M402.693 263.339C394.791 290.277 381.454 315.311 363.504 336.896C345.554 358.482 323.371 376.16 298.325 388.841C273.279 401.522 245.9 408.936 217.877 410.627C189.855 412.318 161.783 408.249 135.393 398.672C109.004 389.094 84.857 374.212 64.4417 354.942C44.0263 335.672 27.7758 312.423 16.6926 286.63C5.60945 260.837 -0.0713565 233.046 0.000676476 204.973C0.0727095 176.899 5.89605 149.138 17.1115 123.402L128.637 172.004C124.062 182.504 121.686 193.831 121.656 205.285C121.627 216.739 123.945 228.077 128.467 238.601C132.989 249.125 139.619 258.61 147.948 266.472C156.278 274.334 166.13 280.407 176.897 284.314C187.663 288.222 199.117 289.882 210.55 289.192C221.983 288.502 233.154 285.477 243.373 280.303C253.591 275.129 262.642 267.916 269.966 259.11C277.289 250.303 282.731 240.089 285.955 229.098L402.693 263.339Z"/>
</mask>
<path d="M402.693 263.339C394.791 290.277 381.454 315.311 363.504 336.896C345.554 358.482 323.371 376.16 298.325 388.841C273.279 401.522 245.9 408.936 217.877 410.627C189.855 412.318 161.783 408.249 135.393 398.672C109.004 389.094 84.857 374.212 64.4417 354.942C44.0263 335.672 27.7758 312.423 16.6926 286.63C5.60945 260.837 -0.0713565 233.046 0.000676476 204.973C0.0727095 176.899 5.89605 149.138 17.1115 123.402L128.637 172.004C124.062 182.504 121.686 193.831 121.656 205.285C121.627 216.739 123.945 228.077 128.467 238.601C132.989 249.125 139.619 258.61 147.948 266.472C156.278 274.334 166.13 280.407 176.897 284.314C187.663 288.222 199.117 289.882 210.55 289.192C221.983 288.502 233.154 285.477 243.373 280.303C253.591 275.129 262.642 267.916 269.966 259.11C277.289 250.303 282.731 240.089 285.955 229.098L402.693 263.339Z" stroke="#D32F34" stroke-width="240" mask="url(#path-1-inside-1_101_2)"/>
<mask id="path-2-inside-2_101_2" fill="white">
<path d="M15.3527 127.563C30.2102 91.314 55.1193 60.0675 87.1449 37.505L157.211 136.958C144.145 146.164 133.982 158.912 127.92 173.702L15.3527 127.563Z"/>
</mask>
<path d="M15.3527 127.563C30.2102 91.314 55.1193 60.0675 87.1449 37.505L157.211 136.958C144.145 146.164 133.982 158.912 127.92 173.702L15.3527 127.563Z" stroke="#282832" stroke-width="240" mask="url(#path-2-inside-2_101_2)"/>
<mask id="path-3-inside-3_101_2" fill="white">
<path d="M174.242 2.39126C217.266 -4.23019 261.282 2.98184 299.943 22.9876L244.033 131.035C228.259 122.873 210.301 119.93 192.747 122.632L174.242 2.39126Z"/>
</mask>
<path d="M174.242 2.39126C217.266 -4.23019 261.282 2.98184 299.943 22.9876L244.033 131.035C228.259 122.873 210.301 119.93 192.747 122.632L174.242 2.39126Z" stroke="#FFF8DC" stroke-width="240" mask="url(#path-3-inside-3_101_2)"/>
<mask id="path-4-inside-4_101_2" fill="white">
<path d="M298.578 22.2876C317.948 32.1284 335.636 44.9789 350.981 60.3602L264.856 146.283C258.595 140.007 251.379 134.764 243.476 130.749L298.578 22.2876Z"/>
</mask>
<path d="M298.578 22.2876C317.948 32.1284 335.636 44.9789 350.981 60.3602L264.856 146.283C258.595 140.007 251.379 134.764 243.476 130.749L298.578 22.2876Z" stroke="#D44B5C" stroke-width="240" mask="url(#path-4-inside-4_101_2)"/>
<mask id="path-5-inside-5_101_2" fill="white">
<path d="M350.81 60.1895C366.174 75.5528 379.003 93.2552 388.822 112.637L280.295 167.612C276.289 159.704 271.055 152.482 264.787 146.213L350.81 60.1895Z"/>
</mask>
<path d="M350.81 60.1895C366.174 75.5528 379.003 93.2552 388.822 112.637L280.295 167.612C276.289 159.704 271.055 152.482 264.787 146.213L350.81 60.1895Z" stroke="#5180D0" stroke-width="240" mask="url(#path-5-inside-5_101_2)"/>
<mask id="path-6-inside-6_101_2" fill="white">
<path d="M388.536 112.076C406.588 147.443 414.007 187.282 409.896 226.775L288.893 214.18C290.571 198.067 287.544 181.813 280.179 167.383L388.536 112.076Z"/>
</mask>
<path d="M388.536 112.076C406.588 147.443 414.007 187.282 409.896 226.775L288.893 214.18C290.571 198.067 287.544 181.813 280.179 167.383L388.536 112.076Z" stroke="#2F314B" stroke-width="240" mask="url(#path-6-inside-6_101_2)"/>
<mask id="path-7-inside-7_101_2" fill="white">
<path d="M410.058 225.154C409.267 233.386 407.98 241.563 406.204 249.64L287.387 223.509C288.112 220.214 288.637 216.878 288.96 213.519L410.058 225.154Z"/>
</mask>
<path d="M410.058 225.154C409.267 233.386 407.98 241.563 406.204 249.64L287.387 223.509C288.112 220.214 288.637 216.878 288.96 213.519L410.058 225.154Z" stroke="#5D5D6F" stroke-width="240" mask="url(#path-7-inside-7_101_2)"/>
<mask id="path-8-inside-8_101_2" fill="white">
<path d="M406.301 249.194C405.9 251.037 405.473 252.876 405.022 254.708L286.905 225.577C287.089 224.829 287.263 224.079 287.427 223.327L406.301 249.194Z"/>
</mask>
<path d="M406.301 249.194C405.9 251.037 405.473 252.876 405.022 254.708L286.905 225.577C287.089 224.829 287.263 224.079 287.427 223.327L406.301 249.194Z" stroke="#D5B844" stroke-width="240" mask="url(#path-8-inside-8_101_2)"/>
<mask id="path-9-inside-9_101_2" fill="white">
<path d="M405.161 254.14C404.397 257.276 403.559 260.393 402.648 263.49L285.937 229.16C286.308 227.896 286.65 226.625 286.962 225.345L405.161 254.14Z"/>
</mask>
<path d="M405.161 254.14C404.397 257.276 403.559 260.393 402.648 263.49L285.937 229.16C286.308 227.896 286.65 226.625 286.962 225.345L405.161 254.14Z" stroke="#81202C" stroke-width="240" mask="url(#path-9-inside-9_101_2)"/>
<mask id="path-10-inside-10_101_2" fill="white">
<path d="M87.6667 37.1386C119.753 14.6823 157.587 1.8621 196.715 0.187865L201.916 121.733C185.952 122.416 170.515 127.646 157.424 136.809L87.6667 37.1386Z"/>
</mask>
<path d="M87.6667 37.1386C119.753 14.6823 157.587 1.8621 196.715 0.187865L201.916 121.733C185.952 122.416 170.515 127.646 157.424 136.809L87.6667 37.1386Z" stroke="#215FC6" stroke-width="240" mask="url(#path-10-inside-10_101_2)"/>
</svg>
