<svg width="53" height="53" fill="none" xmlns="http://www.w3.org/2000/svg"><path d="M43.063 24.016h-3.52V12.422a6.625 6.625 0 0 0-6.625-6.625H20.082a6.625 6.625 0 0 0-6.625 6.625v11.594h-3.52c-.916 0-1.656.74-1.656 1.656v19.875c0 .916.74 1.656 1.656 1.656h33.126c.916 0 1.656-.74 1.656-1.656V25.672c0-.916-.74-1.656-1.657-1.656ZM27.948 36.282v2.743a.415.415 0 0 1-.414.415h-2.07a.415.415 0 0 1-.414-.415v-2.743a2.484 2.484 0 1 1 2.898 0Zm7.867-12.266H17.184V12.422a2.9 2.9 0 0 1 2.898-2.899h12.836a2.9 2.9 0 0 1 2.898 2.899v11.594Z" fill="#D32F34"/></svg>