<svg width="61" height="54" viewBox="0 0 61 54" fill="none" xmlns="http://www.w3.org/2000/svg">
<path opacity="0.46" fill-rule="evenodd" clip-rule="evenodd" d="M28.9219 1.35712C27.5969 2.70466 27.5915 2.71819 28.1536 3.22767C28.6173 3.64811 28.7973 3.67685 29.147 3.38604C29.5175 3.07804 29.5743 3.1854 29.5743 4.19254C29.5743 5.31661 29.5448 5.35409 28.6544 5.35409C27.459 5.35409 23.9309 6.33727 22.4422 7.08544C21.8002 7.40809 20.6265 8.15682 19.834 8.74943L18.3925 9.8273L17.6008 8.99967C16.8384 8.20219 16.832 8.17204 17.4247 8.17204C17.9207 8.17204 18.04 8.00831 18.04 7.32665V6.48127H16.0707H14.1014V8.59473C14.1014 10.6611 14.1172 10.7082 14.8047 10.7082C15.3204 10.7082 15.508 10.558 15.508 10.1446C15.508 9.4001 15.8338 9.43306 16.6052 10.2556L17.2379 10.9302L16.1874 12.2986C14.6559 14.2937 13.3123 17.3969 12.8892 19.9164L12.519 22.1209L11.4817 22.2082C10.413 22.2984 10.1913 22.0642 10.7837 21.4708C11.049 21.205 11.0175 21.0244 10.6397 20.6462C10.1826 20.188 10.0762 20.2419 8.68956 21.6308L7.22301 23.0998L8.61332 24.5139C9.9921 25.9158 10.0084 25.9231 10.5525 25.3781C11.0094 24.9205 11.0406 24.7554 10.7382 24.3907C10.4206 24.0072 10.5111 23.9525 11.4648 23.9534L12.5541 23.9545L13.0161 26.3404C13.5337 29.0133 14.7248 31.787 16.2477 33.8649L17.2661 35.2544L16.6193 35.9437C15.8344 36.7806 15.508 36.8176 15.508 36.0697C15.508 35.6563 15.3204 35.5061 14.8047 35.5061C14.1166 35.5061 14.1014 35.5523 14.1014 37.6325V39.7586L16.0004 39.6755C17.825 39.5955 17.9027 39.5628 17.9862 38.8389C18.0532 38.2578 17.9395 38.0648 17.4875 37.9935C16.9178 37.9039 16.9211 37.8808 17.6174 37.1326L18.3326 36.3639L19.6385 37.3623C20.3567 37.9115 21.5459 38.6661 22.2807 39.0389C23.9031 39.8626 27.3946 40.8602 28.6544 40.8602C29.5656 40.8602 29.5743 40.8729 29.5653 42.1987C29.5574 43.3721 29.5105 43.4764 29.1827 43.0441C28.7039 42.4123 28.3843 42.4208 27.9756 43.0759C27.6934 43.5288 27.8391 43.7894 29.0333 44.9676L30.4183 46.334L31.8263 44.9448C33.2223 43.5674 33.2296 43.551 32.6855 43.006C32.2174 42.5371 32.07 42.5121 31.6795 42.8367C31.2688 43.1782 31.2313 43.1044 31.3126 42.1111C31.4013 41.0264 31.4283 41.0014 32.7165 40.8185C35.8864 40.3679 39.0328 39.0482 41.4176 37.1695L42.4298 36.372L43.2285 37.207C43.9965 38.0101 44.0035 38.0422 43.4119 38.0422C42.9139 38.0422 42.7966 38.2057 42.7966 38.9V39.7578L44.8362 39.675L46.8759 39.5921V37.6195C46.8759 35.6771 46.864 35.6456 46.1022 35.5579C45.4791 35.4861 45.3286 35.5819 45.3286 36.0511C45.3286 36.8167 45.0076 36.7863 44.2193 35.946L43.5748 35.2587L44.5904 34.0171C46.3475 31.8692 47.8985 27.9207 48.2119 24.7979C48.274 24.178 48.433 24.0827 49.5392 24.0038C50.7897 23.9145 50.793 23.917 50.274 24.4916C49.8464 24.9647 49.8163 25.1465 50.1066 25.497C50.3018 25.7326 50.6093 25.9251 50.7902 25.9251C51.1877 25.9251 53.487 23.6245 53.487 23.2269C53.487 23.0719 52.8774 22.3435 52.1321 21.6083C50.8065 20.3005 50.7663 20.2833 50.285 20.8159C49.9637 21.1715 49.897 21.4248 50.0928 21.546C50.7331 21.9425 50.3438 22.2916 49.3546 22.2082L48.3171 22.1209L47.9741 20.1483C47.4177 16.946 46.2896 14.3084 44.5659 12.1794L43.5897 10.9736L44.459 10.0829L45.3286 9.19213V9.96904C45.3286 10.6499 45.4239 10.7347 46.1022 10.6563C46.8578 10.5693 46.8778 10.5199 46.9586 8.52428L47.0413 6.48127H44.919H42.7966V7.32665C42.7966 8.05509 42.9007 8.17204 43.5489 8.17204H44.3014L43.6406 8.87652C43.2771 9.26399 42.8616 9.58101 42.7173 9.58101C42.5727 9.58101 41.5141 8.9512 40.3648 8.18105C38.2532 6.76645 35.2017 5.60714 32.5986 5.23095C31.3008 5.04327 31.2623 5.00974 31.2623 4.06883C31.2623 3.05888 31.4862 2.87318 32.0382 3.42606C32.4056 3.79408 33.2316 3.29248 33.2316 2.70128C33.2316 2.3031 30.9348 0 30.5379 0C30.3831 0 29.6559 0.610649 28.9219 1.35712ZM34.9195 7.50841C37.4478 8.21402 39.7127 9.58974 41.8494 11.7167C44.9687 14.8224 46.5391 18.621 46.5582 23.1071C46.5897 30.4205 41.5816 36.8866 34.4432 38.749C32.5938 39.2317 28.6184 39.2914 26.7611 38.8648C21.0167 37.5454 15.7702 32.0905 14.6478 26.2703C14.167 23.777 14.4396 19.7245 15.2307 17.6121C16.1498 15.1566 18.1474 12.2826 20.0197 10.722C22.508 8.64771 25.0343 7.58224 29.0117 6.93017C30.1609 6.74193 33.2603 7.04514 34.9195 7.50841ZM26.859 8.57218C24.2384 9.20876 22.2416 10.3988 20.0022 12.6582C17.6892 14.992 16.6218 16.86 15.9359 19.7749C14.0117 27.9503 19.6272 36.3312 27.9997 37.7793C35.5742 39.0894 43.159 34.1205 44.9043 26.7054C46.1416 21.4491 44.699 16.2832 40.9385 12.5049C37.3299 8.87962 31.8705 7.35455 26.859 8.57218ZM31.2623 10.5673C31.2623 11.1264 31.1205 11.2718 30.5756 11.2718C30.1977 11.2718 29.8177 11.1565 29.7307 11.0153C29.4278 10.5245 29.9204 9.8628 30.5891 9.8628C31.1196 9.8628 31.2623 10.0122 31.2623 10.5673ZM27.8613 10.7786C28.1261 11.4845 27.5952 11.9999 26.8846 11.7269C26.3872 11.5358 26.3486 10.5264 26.8314 10.3311C27.4703 10.073 27.6208 10.1384 27.8613 10.7786ZM34.0328 10.394C34.5437 10.7183 34.3301 11.6649 33.7197 11.7824C33.173 11.8881 32.8037 11.2157 33.0521 10.5673C33.2352 10.0891 33.4836 10.0454 34.0328 10.394ZM24.7918 11.6714C24.7918 11.7362 24.8649 11.9802 24.9544 12.2135C25.052 12.4686 24.8886 12.7596 24.5442 12.9445C24.0688 13.1992 23.9166 13.1488 23.6493 12.6486C23.3973 12.1769 23.4099 11.9929 23.7078 11.8038C24.1051 11.5516 24.7918 11.4676 24.7918 11.6714ZM37.3569 11.9951C37.593 12.6111 37.0604 13.055 36.3546 12.8307C35.871 12.6768 35.8167 12.5441 36.055 12.0983C36.4058 11.4417 37.1231 11.3851 37.3569 11.9951ZM22.2773 13.8409C22.5299 14.3135 22.5057 14.5276 22.1608 14.8734C21.8024 15.2324 21.6483 15.2454 21.2893 14.9469C20.7666 14.5124 20.7325 14.0415 21.1908 13.5825C21.6705 13.102 21.9135 13.1598 22.2773 13.8409ZM39.7994 14.7012C39.3594 15.1882 39.2964 15.1915 38.8102 14.7508C38.3241 14.3101 38.3207 14.247 38.7607 13.76C39.2007 13.2731 39.2637 13.2697 39.7499 13.7104C40.236 14.1511 40.2394 14.2143 39.7994 14.7012ZM31.2094 15.555C31.2904 16.2595 31.4049 16.3221 32.7567 16.4004C34.0255 16.474 34.228 16.5678 34.3062 17.119C34.3901 17.7113 34.293 17.753 32.8293 17.753H31.2623V20.126V22.4987L32.113 22.6859C34.2832 23.1635 35.3359 25.3023 34.6523 27.8452C34.3124 29.1094 33.3151 29.8702 31.9982 29.8702C31.4451 29.8702 31.2811 30.0317 31.2105 30.6451C31.1478 31.1913 30.9407 31.446 30.5089 31.5074C30.0205 31.577 29.8779 31.4344 29.8056 30.8029C29.7248 30.0973 29.5926 30.0029 28.5897 29.9359C26.6123 29.804 26.2356 29.6476 26.3979 29.0259C26.5245 28.5415 26.7808 28.4612 28.2006 28.4612H29.8557V26.1322V23.8029L28.4504 23.3033C26.7622 22.7025 26.1984 21.8069 26.1984 19.7256C26.1984 17.3039 26.8337 16.5264 29.0117 16.2821C29.5496 16.2218 29.7364 16.0172 29.8056 15.4113C29.9313 14.314 31.0797 14.4315 31.2094 15.555ZM20.2515 16.4376C20.4802 16.7138 20.4698 16.9398 20.2121 17.2926C19.9161 17.6981 19.7839 17.7153 19.3577 17.4031C19.0392 17.1697 18.9219 16.8547 19.0395 16.5481C19.2615 15.9684 19.8205 15.9174 20.2515 16.4376ZM41.9465 16.614C42.1856 17.0621 42.1305 17.2252 41.6519 17.4817C41.1717 17.7392 40.9911 17.7023 40.6766 17.2822C40.3446 16.8389 40.3553 16.7174 40.7534 16.4145C41.3852 15.9335 41.6021 15.9698 41.9465 16.614ZM28.224 18.0912C28.0383 18.2772 27.8864 19.0307 27.8864 19.7659C27.8864 20.8277 28.0149 21.1929 28.5118 21.5412C29.6776 22.3593 29.8557 22.1372 29.8557 19.8665C29.8557 17.8491 29.8264 17.753 29.2086 17.753C28.8527 17.753 28.4096 17.9052 28.224 18.0912ZM43.2693 20.137C43.2155 20.2982 42.8658 20.4301 42.492 20.4301C41.6412 20.4301 41.3441 19.2775 42.1473 19.0924C42.6928 18.9667 43.4302 19.6532 43.2693 20.137ZM19.1146 19.7961C19.0567 20.2035 18.7984 20.4622 18.3916 20.5203C17.8762 20.5935 17.7587 20.4757 17.7587 19.8862C17.7587 19.2964 17.8928 19.162 18.4817 19.162C19.0702 19.162 19.1878 19.2798 19.1146 19.7961ZM18.7433 22.9662C18.7433 23.3715 18.5261 23.5549 17.9696 23.6189C17.3659 23.6885 17.196 23.5907 17.196 23.1728C17.196 22.463 17.4725 22.2203 18.1691 22.3204C18.5284 22.3719 18.7433 22.6137 18.7433 22.9662ZM43.6406 22.9662C43.6406 23.5298 43.4999 23.6707 42.9373 23.6707C42.3746 23.6707 42.234 23.5298 42.234 22.9662C42.234 22.4027 42.3746 22.2618 42.9373 22.2618C43.4999 22.2618 43.6406 22.4027 43.6406 22.9662ZM31.2623 26.2334C31.2623 27.8813 31.3582 28.4612 31.6305 28.4612C33.5233 28.4612 33.7118 24.6469 31.8429 24.1574C31.2924 24.0131 31.2623 24.1207 31.2623 26.2334ZM19.1653 26.3644C19.1653 26.9102 19.0201 27.0523 18.462 27.0523C17.9049 27.0523 17.7587 26.91 17.7587 26.3683C17.7587 25.9476 17.948 25.6416 18.251 25.5726C18.9616 25.4111 19.1653 25.5875 19.1653 26.3644ZM43.3551 26.0285C43.3458 26.7124 42.8616 27.1109 42.2691 26.9226C41.6184 26.7158 41.4952 26.2142 41.9763 25.7323C42.3451 25.3629 43.361 25.5813 43.3551 26.0285ZM20.2675 28.9817C20.5663 29.5411 20.1918 30.152 19.5499 30.152C19.0269 30.152 18.7512 29.0003 19.2055 28.712C19.7676 28.3553 19.9589 28.4037 20.2675 28.9817ZM41.7678 28.8169C42.1864 29.1234 42.2005 29.2446 41.8697 29.6977C41.5498 30.1362 41.3841 30.1686 40.8718 29.8942C40.3702 29.625 40.3117 29.4636 40.5522 29.013C40.8971 28.3674 41.1081 28.3336 41.7678 28.8169ZM22.2717 31.4342C22.5704 31.7951 22.5522 31.9527 22.1653 32.3398C21.7287 32.7775 21.6657 32.7775 21.2291 32.3398C20.8423 31.9527 20.824 31.7951 21.1227 31.4342C21.3219 31.1941 21.5805 30.9974 21.6972 30.9974C21.814 30.9974 22.0725 31.1941 22.2717 31.4342ZM39.9603 31.5179C40.4653 32.4627 39.2736 33.1066 38.5767 32.2655C38.2974 31.9281 38.2974 31.7574 38.5767 31.4201C39.0511 30.8475 39.6238 30.888 39.9603 31.5179ZM37.4514 33.9604C37.4514 34.546 36.5478 34.7224 36.0651 34.2312C35.6625 33.8212 35.6712 33.7449 36.1624 33.3802C36.7442 32.948 37.4514 33.2664 37.4514 33.9604ZM24.9167 33.5082C25.1415 33.872 24.7929 34.6615 24.41 34.6565C23.7917 34.648 23.3674 34.1893 23.5464 33.7223C23.7382 33.2219 24.652 33.079 24.9167 33.5082ZM27.9497 34.5362C28.3359 34.9233 27.784 35.7879 27.1501 35.7879C26.4584 35.7879 26.3565 35.5918 26.6505 34.8247C26.8154 34.3941 27.6278 34.2138 27.9497 34.5362ZM34.4429 34.9597C34.5358 35.3153 34.4393 35.6002 34.1943 35.6943C33.5593 35.9384 32.9502 35.5746 32.9502 34.9512C32.9502 34.147 34.2325 34.154 34.4429 34.9597ZM31.1216 35.5061C31.1216 36.0226 30.9523 36.2345 30.4875 36.3008C30.1069 36.3549 29.7853 36.214 29.6838 35.9485C29.4036 35.2173 29.796 34.6131 30.4875 34.7114C30.9523 34.7776 31.1216 34.9896 31.1216 35.5061ZM0.857458 48.7287C-0.650447 50.2391 -0.0762638 53.1814 1.85082 53.8185C2.61996 54.0727 2.99694 54.0625 3.59335 53.7714C4.75241 53.2056 4.76732 52.6936 3.61923 52.8801C2.95024 52.9889 2.52769 52.8976 2.20501 52.5744C1.12725 51.4948 1.40098 48.7504 2.58648 48.7504C2.94574 48.7504 3.24085 48.9742 3.32947 49.314C3.52161 50.0501 4.53635 50.0692 4.53635 49.3371C4.53635 48.1764 4.23336 47.905 2.9373 47.905C1.92255 47.905 1.52111 48.064 0.857458 48.7287ZM6.15397 48.2094C4.22211 49.3366 4.52032 53.1199 6.59481 53.8058C8.75455 54.5196 10.494 52.7201 10.0315 50.2504C9.67392 48.3413 7.70464 47.3045 6.15397 48.2094ZM10.8662 50.8639V53.8227H11.9211C12.5015 53.8227 12.9761 53.6959 12.9761 53.5409C12.9761 53.3859 12.8495 53.2591 12.6948 53.2591C12.5308 53.2591 12.4135 52.3253 12.4135 51.0214C12.4135 49.7905 12.5401 48.7053 12.6948 48.6095C13.2949 48.2381 12.9291 47.905 11.9211 47.905H10.8662V50.8639ZM13.5388 48.1525C13.5388 48.308 13.6654 48.5137 13.8201 48.6095C13.9748 48.7053 14.1014 49.7905 14.1014 51.0214C14.1014 52.3253 13.9841 53.2591 13.8201 53.2591C13.6654 53.2591 13.5388 53.3859 13.5388 53.5409C13.5388 53.6959 13.9819 53.8227 14.5234 53.8227C15.5322 53.8227 15.7359 53.6001 15.2098 53.0731C15.0456 52.9086 14.9507 52.1542 14.9988 51.3965L15.0861 50.0185L16.352 51.9147C17.2826 53.309 17.7857 53.8126 18.251 53.8168C18.8606 53.8224 18.884 53.7297 18.884 51.3097C18.884 49.9275 18.9608 48.596 19.0547 48.3508C19.1909 47.9952 19.0204 47.905 18.2107 47.905C17.1732 47.905 16.9645 48.124 17.4953 48.6557C17.6599 48.8206 17.755 49.5118 17.7063 50.1915L17.618 51.4275L16.4871 49.7367C15.5435 48.326 15.2056 48.0313 14.4475 47.9577C13.9478 47.909 13.5388 47.9966 13.5388 48.1525ZM19.7279 48.1702C19.7279 48.3162 19.8545 48.5137 20.0093 48.6095C20.164 48.7053 20.2906 49.7905 20.2906 51.0214C20.2906 52.3253 20.1733 53.2591 20.0093 53.2591C19.8545 53.2591 19.7279 53.3859 19.7279 53.5409C19.7279 53.6959 20.171 53.8227 20.7126 53.8227C21.6319 53.8227 22.0691 53.4302 21.399 53.2064C21.2223 53.1475 21.1362 52.4769 21.188 51.5627L21.2752 50.0185L22.5161 51.9206C23.3044 53.1287 23.9461 53.8227 24.2744 53.8227C24.7381 53.8227 24.7918 53.5612 24.7918 51.3032C24.7918 49.9173 24.9184 48.7053 25.0731 48.6095C25.6591 48.2469 25.3179 47.905 24.3698 47.905C23.361 47.905 23.1573 48.1277 23.6834 48.6546C23.8477 48.8192 23.9425 49.5572 23.8944 50.2949L23.8072 51.6363L22.6228 49.7708C21.5878 48.1403 21.3304 47.905 20.5832 47.905C20.1128 47.905 19.7279 48.0242 19.7279 48.1702ZM25.9171 48.1702C25.9171 48.3162 26.0437 48.5137 26.1984 48.6095C26.3531 48.7053 26.4797 49.7905 26.4797 51.0214C26.4797 52.3253 26.3624 53.2591 26.1984 53.2591C26.0437 53.2591 25.9171 53.3859 25.9171 53.5409C25.9171 53.7049 26.8438 53.8227 28.1348 53.8227C30.1969 53.8227 30.3646 53.7782 30.5224 53.1887C30.6155 52.8398 30.6937 52.4594 30.6957 52.3433C30.7033 51.9271 29.9718 52.1424 29.4989 52.6955C29.2339 53.0055 28.7627 53.2591 28.4518 53.2591C27.9933 53.2591 27.8864 53.0729 27.8864 52.2729C27.8864 51.3069 28.4575 50.8983 28.871 51.5684C29.2331 52.1553 29.5743 51.8135 29.5743 50.8639C29.5743 49.9142 29.2331 49.5724 28.871 50.1594C28.4898 50.7774 27.8864 50.4322 27.8864 49.5958C27.8864 48.9364 28.011 48.7504 28.453 48.7504C28.7644 48.7504 29.2651 48.904 29.5653 49.092C30.2371 49.5121 30.5306 49.2664 30.2844 48.4898C30.1187 47.967 29.8773 47.905 28.0082 47.905C26.8581 47.905 25.9171 48.0242 25.9171 48.1702ZM30.6996 48.1305C30.6996 48.2545 30.815 48.4765 30.9559 48.6236C31.0969 48.7707 31.5571 50.0075 31.9783 51.3717C32.6495 53.5446 32.818 53.8416 33.3396 53.7669C33.7706 53.7052 34.0435 53.3318 34.3284 52.4137C34.5451 51.7163 34.7831 50.9555 34.8579 50.723C34.9325 50.4905 35.2346 51.093 35.5291 52.0615C35.9449 53.4279 36.1866 53.8227 36.6078 53.8227C37.2717 53.8227 37.5288 53.3583 38.1666 51.0048C38.4397 49.9974 38.8339 48.9725 39.0423 48.7276C39.5375 48.1463 39.2635 47.905 38.1078 47.905C37.1338 47.905 36.9479 48.1333 37.4835 48.6698C37.7142 48.9009 37.701 49.3599 37.434 50.4029C37.2343 51.1834 36.9884 51.771 36.8874 51.7084C36.7864 51.6459 36.5352 50.8912 36.3292 50.0317C36.0057 48.6803 35.8645 48.4686 35.2878 48.4686C34.9206 48.4686 34.569 48.6273 34.506 48.8209C34.4427 49.0147 34.2168 49.8071 34.0035 50.5821L33.6156 51.9911L33.1533 50.4443C32.8577 49.4552 32.7885 48.7997 32.9612 48.6267C33.4867 48.1003 33.2172 47.905 31.9656 47.905C31.2693 47.905 30.6996 48.0065 30.6996 48.1305ZM40.2698 48.4636C39.2398 49.4952 39.6748 50.6917 41.3993 51.5732C42.1507 51.957 42.5153 52.3317 42.5153 52.7201C42.5153 53.5426 41.0724 53.3563 40.6903 52.4842C40.261 51.5041 39.6503 51.6831 39.7547 52.7587C39.8343 53.5812 39.9555 53.6894 41.0367 53.9022C42.6833 54.226 43.7514 53.703 43.8668 52.5163C43.9546 51.6163 43.9512 51.6126 41.6713 49.8838C40.9916 49.3681 40.9852 49.3332 41.4795 48.8392C41.9738 48.3452 42.0123 48.3539 42.6155 49.1027C43.4305 50.1143 43.6406 50.0802 43.6406 48.9361C43.6406 48.0011 43.6308 47.9941 42.239 47.9448C41.1638 47.9067 40.705 48.0276 40.2698 48.4636ZM44.6373 48.1674C44.5482 48.3117 44.6042 48.5092 44.7614 48.6067C45.1702 48.8598 45.1254 53.0681 44.7096 53.4846C44.4472 53.7475 44.6973 53.8227 45.8349 53.8227C46.6395 53.8227 47.2978 53.6959 47.2978 53.5409C47.2978 53.3859 47.1079 53.2591 46.8759 53.2591C46.6193 53.2591 46.4539 52.9968 46.4539 52.5899C46.4539 52.0632 46.6446 51.8823 47.3496 51.7411C48.617 51.4872 49.2671 50.7982 49.2671 49.7091C49.2671 48.4272 48.4397 47.905 46.408 47.905C45.523 47.905 44.7262 48.0231 44.6373 48.1674ZM50.5975 48.0752C50.4895 48.1835 50.5916 48.4114 50.824 48.5816C51.1962 48.8544 51.1742 49.1108 50.6405 50.723C50.3072 51.7304 49.8618 52.7547 49.6509 52.9996C49.053 53.6928 49.1788 53.8227 50.4487 53.8227C51.3678 53.8227 51.5551 53.7475 51.2927 53.4846C50.649 52.8398 50.9188 52.4137 51.9701 52.4137C52.9125 52.4137 52.9727 52.4642 52.8087 53.1182L52.6323 53.8227H55.0852C56.9929 53.8227 57.463 53.7475 57.2005 53.4846C57.0148 53.2986 56.8629 52.4439 56.8629 51.5856V50.0244L58.1348 51.9237C58.9889 53.1988 59.5895 53.8227 59.9634 53.8227C60.4765 53.8227 60.5201 53.626 60.5201 51.3032C60.5201 49.9004 60.647 48.7053 60.806 48.6067C61.2929 48.3052 60.8091 47.905 59.9575 47.905C59.1428 47.905 58.5675 48.3334 59.1298 48.521C59.3065 48.5799 59.3946 49.201 59.3425 50.0244L59.2542 51.4275L58.5756 50.3003C58.2026 49.6803 57.6425 48.8879 57.331 48.5391C56.7476 47.8856 55.6228 47.6892 55.3156 48.1868C55.22 48.3418 55.276 48.4686 55.4397 48.4686C55.7899 48.4686 55.8603 53.1498 55.5131 53.3648C54.9969 53.6846 54.5338 52.9221 53.8074 50.5547L53.0374 48.0459L51.9158 47.9622C51.2989 47.9163 50.7055 47.967 50.5975 48.0752ZM8.18374 49.0136C8.69519 49.9709 8.54468 52.5448 7.94574 53.0878C7.09726 53.8568 6.50563 53.043 6.50563 51.1071C6.50563 49.4205 6.86095 48.4686 7.49027 48.4686C7.71139 48.4686 8.02338 48.7138 8.18374 49.0136ZM47.8605 49.5826C47.8605 50.4863 47.5418 51.0048 46.9864 51.0048C46.5565 51.0048 46.4539 50.7965 46.4539 49.9247C46.4539 49.3304 46.5338 48.7642 46.6314 48.6664C46.9453 48.352 47.8605 49.0342 47.8605 49.5826ZM52.6304 51.2161C52.6374 51.41 52.34 51.5684 51.9695 51.5684C51.3177 51.5684 51.3059 51.5303 51.5987 50.3747L51.9012 49.1807L52.2596 50.0224C52.4565 50.4851 52.6233 51.0225 52.6304 51.2161Z" fill="white"/>
</svg>
