<svg width="123" height="25" viewBox="0 0 123 25" fill="none" xmlns="http://www.w3.org/2000/svg">
<path fill-rule="evenodd" clip-rule="evenodd" d="M15.5691 9.23559V18.4712H17.1397H18.7102V9.23559V0H17.1397H15.5691V9.23559ZM72.3826 9.23559V18.4712H73.8849H75.3872L75.3915 17.6223L75.3958 16.7735L75.6779 17.1495C76.9441 18.8376 80.0714 19.2912 82.4441 18.131C83.9479 17.3955 85.0946 15.9303 85.4852 14.2452C85.6842 13.3873 85.6581 11.1865 85.4395 10.3697C84.6451 7.40233 81.8773 5.56213 78.8501 5.98847C77.7421 6.14452 76.9389 6.48529 76.1345 7.14088L75.5238 7.63851V3.81919V0H73.9532H72.3826V9.23559ZM0 9.42927V18.4712L3.9947 18.4689C8.52025 18.4662 9.28833 18.3673 10.896 17.5805C12.6231 16.7353 13.4303 15.3546 13.4192 13.2641C13.4143 12.3177 13.3586 12.0812 12.9549 11.2944C12.4187 10.2492 11.5289 9.4946 10.4175 9.14269L9.7046 8.91683L10.2809 8.66149C10.988 8.34843 11.949 7.4428 12.3083 6.75122C12.6519 6.08992 12.7852 4.68584 12.5809 3.87908C12.2137 2.42869 11.2743 1.4508 9.62825 0.805125C8.83737 0.494918 8.65546 0.482016 4.40441 0.435567L0 0.387487V9.42927ZM8.22021 3.64127C8.71118 3.8818 8.93024 4.09802 9.15872 4.56741C9.699 5.67704 9.34473 6.68018 8.1821 7.33279C7.62462 7.64585 7.41922 7.67478 5.4287 7.72055L3.2777 7.77012V5.50292V3.23572L5.4287 3.28162C7.34533 3.3225 7.64948 3.36175 8.22021 3.64127ZM26.7679 5.92286C24.77 6.23552 23.4524 6.84901 22.3986 7.957C20.788 9.65051 20.2852 11.9356 20.9814 14.3967C21.8 17.2904 24.9385 19.1372 28.3385 18.7258C31.2743 18.3705 33.4947 16.3815 33.9947 13.6586C34.2837 12.085 34.0978 10.7741 33.3782 9.3126C32.6716 7.87755 30.9994 6.56976 29.3995 6.20075C28.3482 5.95831 27.2694 5.84436 26.7679 5.92286ZM41.2433 5.97393C37.7623 6.41398 35.4921 8.93027 35.4824 12.3594C35.4717 16.0915 38.2832 18.7773 42.2004 18.7773C46.0338 18.7773 48.8844 16.0891 48.8908 12.4679C48.8938 10.7672 48.4255 9.39884 47.4177 8.16426C46.1419 6.60127 43.5511 5.6822 41.2433 5.97393ZM56.6498 5.98127C55.7573 6.12877 54.6451 6.76331 54.228 7.36294C54.035 7.64028 53.8312 7.8694 53.7748 7.87226C53.7184 7.87511 53.6724 7.51071 53.6724 7.06251V6.24761H52.2384H50.8044V12.3594V18.4712H52.2955H53.7864L53.8349 14.7022C53.8767 11.4558 53.9171 10.8582 54.1259 10.3919C54.6291 9.26805 55.3722 8.78766 56.6327 8.77123C57.6073 8.75846 58.0957 9.02643 58.4862 9.78851C58.6981 10.2015 58.7251 10.7197 58.7252 14.3627L58.7255 18.4712H60.285H61.8444L61.8897 14.6343C61.9333 10.9339 61.9463 10.7745 62.2541 10.1529C62.8255 8.99927 63.8128 8.53518 65.091 8.81958C66.6208 9.16008 66.7832 9.72345 66.7832 14.6899V18.4712H68.3538H69.9243L69.922 14.4306C69.9193 9.97607 69.8125 9.07003 69.1453 7.84984C68.7735 7.16967 68.0203 6.49425 67.3295 6.22167C66.6783 5.96456 65.3376 5.84518 64.5443 5.97366C63.4636 6.14859 62.614 6.60589 61.9341 7.37869L61.3564 8.03551L61.0523 7.54602C60.2931 6.32448 58.4775 5.67907 56.6498 5.98127ZM92.7317 5.97488C88.6352 6.53011 86.1905 10.3066 87.3426 14.2994C88.1269 17.0177 90.6514 18.7644 93.7904 18.7609C95.723 18.7586 97.2465 18.1621 98.4435 16.9388L99.034 16.3355L97.9172 15.4882L96.8001 14.641L96.3023 15.1155C95.4316 15.9458 94.7233 16.2252 93.4828 16.2279C92.5341 16.2299 92.306 16.181 91.7504 15.8562C91.0043 15.4199 90.5857 14.8863 90.3319 14.0473L90.15 13.4459H94.873H99.596L99.5303 12.0538C99.3315 7.8421 96.6494 5.44397 92.7317 5.97488ZM107.607 5.98629C106.54 6.15063 105.595 6.76982 104.824 7.80951C104.639 8.0586 104.622 8.00468 104.618 7.15989L104.613 6.23864L103.088 6.27708L101.562 6.31551L101.551 12.3594L101.541 18.4033H103.102H104.664L104.685 14.8041C104.709 10.7808 104.743 10.6018 105.66 9.71571C106.335 9.06405 107.371 8.76132 108.418 8.90963C108.842 8.9698 109.243 9.02181 109.309 9.02534C109.404 9.03051 109.446 6.09943 109.351 6.03179C109.22 5.93889 108.104 5.90969 107.607 5.98629ZM114.759 5.97746C113.716 6.12904 112.76 6.50702 112.027 7.05803C108.685 9.57038 108.801 15.3432 112.239 17.6128C114.343 19.0015 117.488 18.9546 119.138 17.5096L119.773 16.9541V17.8239C119.773 18.8811 119.457 20.0108 118.989 20.6267C118.79 20.8881 118.315 21.2329 117.882 21.4302C117.252 21.7171 116.923 21.7751 115.955 21.7706C114.575 21.7639 113.663 21.4665 112.466 20.6327C112.033 20.3307 111.63 20.1333 111.572 20.1942C111.514 20.255 111.086 20.8173 110.622 21.4437L109.777 22.5825L110.166 22.9035C110.843 23.4622 112.429 24.158 113.519 24.3742C115.768 24.8201 118.54 24.5305 119.964 23.7011C120.792 23.2181 121.775 22.1353 122.177 21.2626C122.857 19.7866 122.909 19.1581 122.912 12.4613L122.914 6.24761H121.412H119.909V7.09348V7.93935L119.51 7.45733C118.942 6.77254 117.681 6.14357 116.548 5.98072C116.031 5.90643 115.577 5.85197 115.539 5.85985C115.501 5.86759 115.15 5.92056 114.759 5.97746ZM94.9851 8.63922C95.6718 8.99248 96.2794 9.83482 96.3788 10.5712L96.455 11.137H93.3643H90.2734L90.2764 10.8314C90.2849 9.9743 91.1936 8.82338 92.1358 8.47678C92.8747 8.20501 94.2987 8.28623 94.9851 8.63922ZM28.8607 9.01366C29.5477 9.29997 30.1655 9.89295 30.561 10.6454C30.8611 11.2164 30.927 11.523 30.9299 12.3594C30.9328 13.2383 30.8777 13.4778 30.5281 14.1055C30.0139 15.0287 29.3561 15.5707 28.4181 15.8437C27.498 16.1114 26.6085 16.022 25.7201 15.5722C24.8966 15.1553 24.5422 14.7812 24.1553 13.9197C23.2523 11.909 24.313 9.43742 26.319 8.87798C27.0494 8.67439 28.193 8.73537 28.8607 9.01366ZM43.2763 8.90365C44.1087 9.14948 44.9556 9.8522 45.3839 10.6524C45.7832 11.3983 45.8077 13.2751 45.4275 13.9892C45.0706 14.6595 44.4101 15.3232 43.771 15.6538C43.0066 16.0492 41.3982 16.0501 40.6281 15.6556C39.4036 15.0281 38.6531 13.8088 38.651 12.4431C38.649 11.342 38.8777 10.6829 39.5088 9.96996C40.5362 8.80913 41.7719 8.45939 43.2763 8.90365ZM80.7043 9.17583C81.9119 9.82952 82.4987 10.8665 82.5129 12.3723C82.5346 14.6611 80.6897 16.2775 78.4296 15.9496C77.53 15.8191 76.8708 15.4596 76.2865 14.7807C75.0321 13.3234 75.115 11.1232 76.475 9.77058C77.6201 8.63188 79.2706 8.39977 80.7043 9.17583ZM117.895 9.00877C118.629 9.31409 119.303 9.98952 119.632 10.7509C120.086 11.7997 119.998 13.2828 119.426 14.2035C118.656 15.4461 117.124 16.0679 115.605 15.7543C113.449 15.3092 112.293 13.2794 112.937 11.0695C113.2 10.17 114.163 9.19756 115.08 8.90542C115.846 8.66163 117.177 8.71052 117.895 9.00877ZM8.93338 11.0012C9.79282 11.4415 10.1063 12.0072 10.1063 13.1178C10.1063 13.8212 10.0448 14.0328 9.70514 14.4992C9.06189 15.3821 8.21338 15.6284 5.49698 15.7201L3.2777 15.795V13.1815V10.5678L5.77422 10.6148C8.12065 10.6588 8.31048 10.682 8.93338 11.0012Z" fill="white"/>
</svg>
