<svg width="83" height="26" viewBox="0 0 83 26" fill="none" xmlns="http://www.w3.org/2000/svg">
<path fill-rule="evenodd" clip-rule="evenodd" d="M26.4427 0.0156652C25.0928 0.176437 24.1968 0.710248 23.7282 1.6329C23.5661 1.95206 23.5036 2.22248 23.4863 2.68017C23.4399 3.90579 23.9204 4.72676 25.0445 5.34221C25.3204 5.49325 25.6231 5.61351 26.6732 5.98932C28.1213 6.50752 28.4905 6.71954 28.7078 7.15774C28.8036 7.35106 28.8089 7.37931 28.8089 7.69857C28.8089 8.01773 28.8036 8.04613 28.7079 8.23909C28.3787 8.90301 27.3605 9.18569 26.0433 8.97889C25.2402 8.85283 24.2887 8.44215 23.7001 7.96758L23.5695 7.86227V8.77946V9.69665L23.7155 9.78909C24.8397 10.5008 26.7418 10.7767 28.1332 10.4297C28.8552 10.2496 29.3083 10.0094 29.7462 9.57469C30.1244 9.19914 30.2996 8.90195 30.4396 8.39837C30.5073 8.15477 30.5326 7.45473 30.4854 7.12882C30.3478 6.17905 29.8119 5.48492 28.8348 4.99086C28.6462 4.89553 28.0015 4.64116 27.3493 4.40482C26.7155 4.17514 26.0863 3.93361 25.9511 3.86808C25.4548 3.6276 25.2112 3.30996 25.1768 2.85849C25.1259 2.19017 25.5347 1.74599 26.3565 1.57668C26.6124 1.52396 26.7297 1.51713 27.1342 1.53125C27.8543 1.55639 28.3418 1.67811 28.9794 1.99191C29.2932 2.14633 29.5422 2.29759 29.846 2.5183L29.992 2.62435V1.72448V0.824587L29.7538 0.688679C29.1347 0.335348 28.3978 0.109382 27.5951 0.026678C27.319 -0.00175453 26.6433 -0.00819127 26.4427 0.0156652ZM68.112 0.0438539C67.486 0.139798 66.8214 0.406917 66.3911 0.735599C65.8361 1.15943 65.493 1.78434 65.427 2.49158C65.3718 3.08204 65.4629 3.62058 65.6996 4.10335C65.8212 4.35125 65.9005 4.46453 66.0974 4.671C66.5731 5.16994 67.0321 5.41717 68.3732 5.89683C69.5467 6.3166 69.5639 6.32334 69.9218 6.50334C70.5689 6.82885 70.8481 7.30387 70.7446 7.90315C70.6549 8.42253 70.3146 8.74694 69.6612 8.93599C69.3059 9.03883 68.4585 9.05454 67.9459 8.96781C67.1507 8.83324 66.216 8.42714 65.6484 7.96962C65.578 7.91282 65.5123 7.86636 65.5025 7.86636C65.4926 7.86636 65.4846 8.27536 65.4846 8.77525V9.68417L65.7535 9.83833C66.2487 10.1223 66.7774 10.3129 67.4311 10.4432C69.3036 10.8163 71.0593 10.3922 71.8804 9.36846C72.2327 8.92919 72.4192 8.42317 72.4507 7.8206C72.4996 6.88605 72.2154 6.10989 71.6228 5.55954C71.1639 5.13333 70.7083 4.90834 69.2182 4.37209C68.6267 4.15921 68.0311 3.93148 67.8947 3.86598C67.5756 3.71274 67.3274 3.49389 67.215 3.26664C67.1362 3.10736 67.1286 3.06255 67.1286 2.75644C67.1286 2.44728 67.1354 2.40799 67.2153 2.25747C67.382 1.9431 67.6923 1.72204 68.1427 1.59672C68.4192 1.51975 69.2028 1.50087 69.5898 1.56185C70.3333 1.67897 71.045 1.97995 71.7058 2.45671C71.8063 2.52929 71.8999 2.58865 71.9137 2.58865C71.9274 2.58865 71.935 2.18877 71.9305 1.70002L71.9224 0.811409L71.6659 0.665799C71.1354 0.364695 70.4067 0.13266 69.7051 0.0413524C69.2737 -0.014811 68.4866 -0.0135602 68.112 0.0438539ZM78.7444 0.0302474C77.8533 0.141994 76.9608 0.582607 76.5318 1.12252C76.1319 1.62598 75.9633 2.12434 75.9633 2.80382C75.9633 3.63553 76.2255 4.2935 76.7541 4.78842C77.2141 5.21915 77.6906 5.4589 79.0517 5.94439C80.4777 6.45306 80.9275 6.69303 81.1447 7.06103C81.3739 7.44917 81.3594 8.00904 81.1108 8.37012C80.9242 8.64126 80.6141 8.83086 80.1579 8.95286C79.9779 9.00097 79.835 9.01022 79.2821 9.00939C78.5552 9.00832 78.318 8.97321 77.7377 8.78086C77.2233 8.61036 76.5744 8.26719 76.174 7.95397C76.1124 7.90577 76.0536 7.86636 76.0434 7.86636C76.0332 7.86636 76.0248 8.27067 76.0248 8.76485V9.66334L76.1554 9.75236C76.763 10.1665 77.7993 10.4783 78.8291 10.5568C80.4939 10.6838 81.9024 10.1681 82.5566 9.19213C82.8682 8.7272 82.9993 8.27097 83 7.64918C83.0012 6.5804 82.5971 5.79448 81.7607 5.2391C81.3554 4.96993 81.0481 4.83622 79.7765 4.37572C78.2032 3.80597 77.9748 3.67977 77.7698 3.26655C77.6771 3.07957 77.6688 3.03921 77.6688 2.7724C77.6688 2.40131 77.7293 2.23706 77.9509 2.00615C78.1513 1.79721 78.4738 1.63882 78.8504 1.56429C79.0597 1.52289 79.2116 1.51636 79.634 1.53067C79.9221 1.54046 80.2478 1.5688 80.3577 1.5937C80.9676 1.73189 81.5428 1.983 82.105 2.35662C82.2971 2.48423 82.4598 2.58865 82.4666 2.58865C82.4734 2.58865 82.4753 2.18846 82.4708 1.69931L82.4626 0.810005L82.2017 0.661528C81.6825 0.366098 80.9454 0.132446 80.2453 0.0413524C79.8656 -0.00806892 79.0954 -0.0137741 78.7444 0.0302474ZM41.7614 5.22116V10.4289H42.5911H43.4208V7.10115C43.4208 5.22177 43.4324 3.77775 43.4476 3.78352C43.4693 3.79176 48.5609 8.69148 50.1121 10.1969L50.5193 10.592V5.37006V0.148096H49.6742H48.8292V3.41234C48.8292 5.20768 48.8219 6.67659 48.8131 6.67659C48.8004 6.67659 46.2764 4.2918 41.892 0.137114L41.7614 0.0133777V5.22116ZM0 5.28806V10.4337L2.2663 10.4211C4.2227 10.4101 4.57252 10.4013 4.82453 10.3567C5.56643 10.2253 6.0381 10.0285 6.50922 9.65394C7.37302 8.96714 7.69178 7.49911 7.20616 6.44406C6.94634 5.87956 6.50184 5.43361 5.97243 5.20621C5.88252 5.16759 5.80868 5.12894 5.8084 5.1203C5.80812 5.11167 5.87435 5.07329 5.95556 5.03501C6.44044 4.80648 6.83956 4.29051 7.01149 3.66988C7.10789 3.32192 7.1078 2.53438 7.01134 2.17681C6.72165 1.10321 5.87966 0.444593 4.51177 0.221678C4.24267 0.17784 3.87668 0.167895 2.09729 0.156211L0 0.142422V5.28806ZM11.1855 3.45606C11.1855 6.98974 11.1909 7.13623 11.3412 7.72139C11.7407 9.27663 12.7622 10.21 14.3968 10.5133C14.7842 10.5852 15.8532 10.5852 16.2405 10.5133C17.1685 10.3411 17.856 9.98808 18.407 9.40079C18.917 8.85722 19.2377 8.149 19.3815 7.24905C19.4318 6.93422 19.4364 6.62268 19.4364 3.53437V0.163349L18.5697 0.155265L17.703 0.14715L17.691 3.48052C17.6805 6.42496 17.6732 6.8423 17.6285 7.0575C17.4429 7.95159 17.0701 8.50395 16.4557 8.79536C16.0888 8.96937 15.8756 9.00893 15.3033 9.00927C14.8659 9.00954 14.7627 9 14.5518 8.93971C14.0566 8.79816 13.6742 8.53092 13.4184 8.14769C13.2155 7.8436 13.1339 7.63331 12.9921 7.04911C12.9678 6.94877 12.9519 5.88786 12.9395 3.53437L12.9218 0.163349L12.0536 0.155235L11.1855 0.14715V3.45606ZM35.0316 5.28852V10.4289H35.8921H36.7525V5.28852V0.148096H35.8921H35.0316V5.28852ZM55.1902 5.28852V10.4289H58.3092H61.4283V9.6512V8.87348L59.162 8.86564L56.8957 8.85783V7.27147V5.68511L58.9315 5.67727L60.9673 5.66943V4.92244V4.17544L58.9315 4.1676L56.8957 4.15976L56.8877 2.93186L56.8796 1.70395H59.154H61.4283V0.926023V0.148096H58.3092H55.1902V5.28852ZM4.37895 1.74547C4.67457 1.83025 4.87287 1.93336 5.04173 2.09017C5.32481 2.35305 5.42738 2.65778 5.40111 3.15779C5.38089 3.54239 5.3029 3.7517 5.09609 3.97632C4.91177 4.17657 4.61121 4.33463 4.2714 4.41007C4.07879 4.45284 3.84915 4.46154 2.87321 4.46303L1.70549 4.46483L1.6975 3.067L1.68951 1.66917L2.94204 1.68089C4.01484 1.69092 4.22104 1.7002 4.37895 1.74547ZM4.68625 6.01291C5.36611 6.23942 5.71569 6.71341 5.71569 7.40875C5.71569 7.818 5.60153 8.1271 5.35176 8.3941C5.16388 8.59496 4.98629 8.70457 4.68625 8.80487L4.44041 8.88709L3.06527 8.89707L1.69012 8.90704V7.40851V5.90995L3.06527 5.9205L4.44041 5.93103L4.68625 6.01291ZM29.3958 15.6327C28.2209 15.8141 27.3661 16.3605 26.9655 17.1862C26.764 17.6016 26.7211 17.806 26.7219 18.3455C26.7226 18.8402 26.7648 19.0991 26.8984 19.4272C27.1515 20.0494 27.692 20.5692 28.4677 20.9363C28.6236 21.0101 29.0822 21.1889 29.4868 21.3337C30.7218 21.7757 30.8876 21.84 31.2014 21.9991C31.5657 22.1838 31.8006 22.3972 31.9209 22.6528C31.9948 22.81 32.0043 22.8662 32.0045 23.1503C32.0047 23.4391 31.9961 23.4894 31.9165 23.6605C31.6378 24.2594 30.7842 24.5637 29.6605 24.465C28.6356 24.3749 27.7995 24.048 26.8543 23.3678C26.7976 23.327 26.7961 23.3485 26.7961 24.2235V25.1212L27.0368 25.2656C27.509 25.549 28.2417 25.7954 28.9752 25.9174C29.447 25.9959 30.5934 25.9946 31.0214 25.9152C32.4166 25.6562 33.3259 24.9296 33.6222 23.8368C33.7116 23.5069 33.7195 22.8 33.6379 22.4182C33.4482 21.5298 32.8826 20.8837 31.8895 20.4209C31.7332 20.348 31.1351 20.1211 30.5605 19.9165C28.9976 19.3603 28.6924 19.1943 28.4963 18.794C28.4199 18.6382 28.411 18.5867 28.4103 18.2997C28.4095 18.0065 28.4167 17.9656 28.4961 17.816C28.6808 17.4678 29.0309 17.2427 29.5559 17.1345C29.8091 17.0824 29.9273 17.0757 30.3454 17.0899C30.6221 17.0993 30.9376 17.1285 31.0669 17.1568C31.6751 17.2895 32.2545 17.5395 32.8037 17.9062C32.9897 18.0304 33.1522 18.1365 33.1648 18.1421C33.1775 18.1477 33.1879 17.7608 33.1879 17.2824V16.4125L33.1007 16.3508C32.9716 16.2596 32.4966 16.0275 32.2506 15.9356C31.9206 15.8122 31.3805 15.6818 30.9884 15.6307C30.555 15.5743 29.7679 15.5753 29.3958 15.6327ZM13.6132 20.725V25.835H14.4581H15.303L15.3108 22.5691L15.3187 19.3032L18.8218 22.6516L22.325 26L22.3329 20.9067C22.3372 18.1054 22.3341 15.796 22.326 15.7748C22.3144 15.7447 22.13 15.7379 21.4884 15.7443L20.6656 15.7524L20.6502 18.9596L20.6349 22.1667L17.1471 18.891C15.2288 17.0893 13.6489 15.6152 13.6362 15.6152C13.6235 15.6151 13.6132 17.9146 13.6132 20.725ZM6.91414 20.7856V25.835H7.79002H8.6659L8.65813 20.7937L8.65036 15.7524L7.78225 15.7443L6.91414 15.7362V20.7856ZM38.1968 20.7856V25.835H39.0727H39.9485L39.9408 20.7937L39.933 15.7524L39.0649 15.7443L38.1968 15.7362V20.7856ZM45.0187 20.7861V25.835H47.199C49.5624 25.835 49.7745 25.8236 50.4115 25.6634C52.2691 25.196 53.4871 23.8308 53.8238 21.8385C53.8921 21.4344 53.9165 20.5566 53.8714 20.1279C53.798 19.4311 53.6433 18.8626 53.3748 18.3024C52.653 16.7969 51.2645 15.9089 49.413 15.7687C49.1849 15.7514 48.1028 15.7373 47.0085 15.7372L45.0187 15.7372V20.7861ZM57.5769 15.7575C57.5656 15.7687 57.5564 18.0407 57.5564 20.8064V25.835H60.66H63.7637V25.0723V24.3096H61.5205H59.2772V22.7385V21.1674H61.29H63.3028V20.4352V19.7031H61.29H59.2772V18.4828V17.2625H61.5205H63.7637V16.4998V15.7372H60.6805C58.9848 15.7372 57.5881 15.7463 57.5769 15.7575ZM68.957 20.7837V25.835H69.8174H70.6779V23.791V21.747L71.3001 21.7482L71.9224 21.7493L73.6586 23.7484C74.6135 24.8479 75.4169 25.7673 75.4438 25.7916C75.4848 25.8286 75.6511 25.8345 76.4654 25.8278L77.438 25.8197L75.6142 23.7605C74.6111 22.6279 73.7941 21.6967 73.7987 21.6912C73.8032 21.6856 73.9231 21.6559 74.0651 21.6251C75.445 21.3258 76.1485 20.3675 76.1475 18.7886C76.1466 17.3318 75.4073 16.3206 74.059 15.9322C73.4686 15.7622 73.4121 15.7586 71.1004 15.745L68.957 15.7325V20.7837ZM73.3715 17.3328C73.7922 17.4723 74.1079 17.7286 74.2825 18.0723C74.4229 18.3485 74.468 18.8623 74.381 19.1938C74.2723 19.6081 74.0074 19.9278 73.6212 20.1111C73.2348 20.2943 73.0651 20.3132 71.8008 20.3132H70.6779V18.7704V17.2276L71.8994 17.2386L73.1209 17.2496L73.3715 17.3328ZM49.705 17.3354C50.4021 17.4987 50.842 17.734 51.2587 18.1667C51.5962 18.517 51.7925 18.8547 51.9569 19.3675C52.0928 19.7912 52.153 20.2205 52.1537 20.7708C52.1547 21.5295 52.0442 22.1008 51.7958 22.6219C51.6282 22.9735 51.5132 23.1412 51.2587 23.4054C50.9131 23.7642 50.5507 23.986 50.0585 24.1401C49.586 24.288 49.3251 24.3092 47.9764 24.3094L46.7396 24.3096V20.7836V17.2576L48.1147 17.2713C49.2509 17.2826 49.5273 17.2937 49.705 17.3354Z" fill="white"/>
</svg>
