<svg width="93" height="33" viewBox="0 0 93 33" fill="none" xmlns="http://www.w3.org/2000/svg">
<path fill-rule="evenodd" clip-rule="evenodd" d="M34.8513 8.97407C30.5885 13.9005 27.0542 18.0156 26.9975 18.1189C26.9404 18.222 28.3663 18.3066 30.1656 18.3066H33.4373L34.528 16.9818L35.6186 15.6569H38.7353H41.852L41.7617 13.6697L41.6718 11.6825L40.3821 11.562L39.0921 11.4416L40.6922 9.33996C41.572 8.184 42.3703 7.23567 42.4664 7.2323C42.5622 7.22893 42.6354 7.68683 42.6289 8.25C42.6221 8.81293 42.6481 11.3062 42.6869 13.7901L42.7569 18.3066H45.6247L48.4924 18.3068L48.4077 9.15329L48.3228 0L45.4625 0.00867153L42.6019 0.0171022L34.8513 8.97407ZM49.5775 12.4974V21.6788L52.4452 21.6791H55.3129L55.2264 14.5732L55.1399 7.46715H56.8367C58.1797 7.46715 58.7135 7.58735 59.3965 8.04381C61.314 9.32527 60.0417 11.8029 57.4657 11.8029H56.398V13.7299V15.6569H59.1274C61.6002 15.6569 61.9889 15.5919 63.2597 14.9659C66.5013 13.3684 67.2773 8.75078 64.7578 6.04864C64.1635 5.41104 63.1959 4.84281 61.7881 4.30421C59.7276 3.51631 59.6321 3.50426 54.6386 3.41056L49.5775 3.31566V12.4974ZM2.93096 26.4234C2.80882 26.6623 2.09948 28.1856 1.35449 29.8084L0 32.7591H1.00386C1.83472 32.7591 2.06848 32.6346 2.35897 32.0365C2.68016 31.3755 2.83362 31.3139 4.15897 31.3139C5.48432 31.3139 5.63778 31.3755 5.95897 32.0365C6.24977 32.6351 6.48291 32.7591 7.31656 32.7591H8.32321L6.82393 29.4471L5.32466 26.135L4.23865 26.062C3.42452 26.0074 3.09714 26.0979 2.93096 26.4234ZM34.6963 26.6168C34.6963 27.0985 34.8513 27.219 35.4714 27.219C36.0914 27.219 36.2464 27.0985 36.2464 26.6168C36.2464 26.135 36.0914 26.0146 35.4714 26.0146C34.8513 26.0146 34.6963 26.135 34.6963 26.6168ZM57.6381 27.107C57.6381 28.1124 57.5903 28.1796 57.0385 27.95C56.3577 27.667 55.1517 27.6253 54.372 27.8578C54.0824 27.944 53.5858 28.459 53.2683 29.0019C52.824 29.7621 52.6898 29.8619 52.6845 29.4362C52.6808 29.132 52.3351 28.6173 51.9166 28.2921C50.9685 27.5555 48.7736 27.4695 47.7269 28.128C46.4617 28.9239 46.378 31.2604 47.5772 32.2904C48.6936 33.2486 51.6475 33.0819 52.3794 32.0194C52.8219 31.3772 52.7651 31.3139 51.7476 31.3139C51.2361 31.3139 50.8176 31.4223 50.8176 31.5547C50.8176 32.0088 48.9952 31.8187 48.6582 31.3298C48.4818 31.0735 48.3374 30.8025 48.3374 30.7276C48.3374 30.6527 49.3487 30.5951 50.585 30.5999L52.8327 30.6086L53.4528 31.6236C54.2393 32.9111 55.4059 33.2951 56.7331 32.7032C57.231 32.4814 57.6381 32.4031 57.6381 32.5296C57.6381 32.6558 57.9869 32.7591 58.4131 32.7591H59.1882V29.3869V26.0146H58.4131C57.7004 26.0146 57.6381 26.1023 57.6381 27.107ZM63.2185 29.3869V32.7591H64.1486C65.0579 32.7591 65.0786 32.7324 65.0786 31.5547V30.3504H66.4592C67.2184 30.3504 68.1795 30.2299 68.5952 30.083C70.15 29.5326 70.5332 27.581 69.2779 26.606C68.5887 26.0702 68.2672 26.0146 65.8677 26.0146H63.2185V29.3869ZM43.8938 26.4161C43.78 26.5043 43.687 26.8295 43.687 27.1388C43.687 27.4478 43.5475 27.7007 43.377 27.7007C43.2065 27.7007 43.067 27.9175 43.067 28.1825C43.067 28.4474 43.2065 28.6642 43.377 28.6642C43.5521 28.6642 43.687 29.3519 43.687 30.2458C43.687 31.1156 43.8228 32.0245 43.989 32.2656C44.3294 32.7601 45.5602 33.0735 46.2977 32.8535C46.9894 32.6474 46.906 32.0155 46.1672 31.8655C45.6287 31.7561 45.5471 31.5369 45.5471 30.2017C45.5471 28.8249 45.6119 28.6642 46.1672 28.6642C46.5278 28.6642 46.7872 28.5036 46.7872 28.2803C46.7872 28.0693 46.5082 27.8397 46.1672 27.7706C45.7279 27.6812 45.5471 27.442 45.5471 26.9499C45.5471 26.3829 45.4145 26.2555 44.8239 26.2555C44.4258 26.2555 44.0073 26.3277 43.8938 26.4161ZM68.1252 27.8946C68.275 28.7151 67.6394 29.146 66.2809 29.146C65.0824 29.146 65.0786 29.1431 65.0786 28.1692V27.1925L66.5513 27.2659C67.8193 27.3293 68.0378 27.4165 68.1252 27.8946ZM4.74274 28.9718C4.9796 29.5837 5.09648 30.1439 5.00223 30.2172C4.74801 30.4147 3.44157 30.3785 3.28532 30.1697C3.12132 29.95 3.98629 27.6065 4.17695 27.7547C4.25105 27.8125 4.50589 28.3602 4.74274 28.9718ZM9.27436 28.1825C8.50953 28.7767 8.47512 29.6682 9.19686 30.1745C9.4951 30.3838 10.4022 30.6845 11.212 30.8427C12.7503 31.1431 13.1444 31.6499 12.0494 31.9199C11.6727 32.0127 11.0976 31.9153 10.6363 31.6805C10.2088 31.4627 9.49324 31.3182 9.04681 31.3594L8.23485 31.4343L9.03781 32.1569C9.75583 32.8032 10.0287 32.8796 11.6166 32.8796C13.1785 32.8796 13.4671 32.8022 14.0081 32.2393L14.6235 31.5988L15.3322 32.2393C15.9448 32.7926 16.2803 32.8796 17.8006 32.8796C19.2754 32.8796 19.6558 32.7876 20.1525 32.3109C21.3405 31.171 20.6777 30.2051 18.3999 29.7561C16.6058 29.4025 16.0574 28.6642 17.5892 28.6642C18.1206 28.6642 18.5841 28.8167 18.6873 29.0255C18.7853 29.2243 19.2187 29.3869 19.6506 29.3869C20.6101 29.3869 20.6826 28.8565 19.8152 28.1825C18.9115 27.4803 16.3513 27.5071 15.4869 28.228C14.1597 29.3348 14.9103 30.354 17.4125 30.8427C18.2344 31.0031 18.8851 31.27 18.8851 31.4466C18.8851 31.9647 17.685 32.1124 16.8656 31.6952C16.4539 31.4854 15.7855 31.3139 15.3806 31.3139C14.9004 31.3139 14.524 31.1089 14.2989 30.7247C14.0639 30.3241 13.527 30.0454 12.6214 29.8542C11.8888 29.6993 11.1153 29.5343 10.902 29.4873C10.689 29.4403 10.5145 29.2361 10.5145 29.033C10.5145 28.5508 11.8615 28.5452 12.3746 29.0255C12.587 29.2243 13.0923 29.3869 13.4975 29.3869C14.4096 29.3869 14.4626 28.8413 13.6147 28.1825C13.1599 27.8291 12.5814 27.7007 11.4445 27.7007C10.3077 27.7007 9.72917 27.8291 9.27436 28.1825ZM21.9615 28.4048C21.1957 28.9998 21.0553 29.3001 21.0553 30.3429C21.0553 31.3259 21.2072 31.6947 21.8037 32.1581C22.7936 32.9273 23.9441 33.1255 25.422 32.7815C26.8605 32.4467 27.5658 31.5653 27.5658 30.103C27.5658 28.6474 26.2832 27.7007 24.3105 27.7007C23.1293 27.7007 22.7034 27.8284 21.9615 28.4048ZM29.3193 27.9736C28.6239 28.2877 27.8755 29.6106 27.877 30.5233C27.8789 31.6333 28.9302 32.7102 30.1914 32.894C31.9408 33.1491 33.7662 32.3504 33.7662 31.3298C33.7662 30.9422 32.3466 31.0219 31.9061 31.4343C31.4414 31.8693 30.6176 31.9026 30.108 31.5066C29.5741 31.0918 29.6488 29.489 30.223 29.0427C30.8613 28.5469 31.1586 28.5652 31.9061 29.146C32.7193 29.7778 33.7662 29.7831 33.7662 29.1554C33.7662 28.3675 32.5593 27.6998 31.15 27.708C30.4577 27.7121 29.6336 27.8315 29.3193 27.9736ZM34.6963 30.2299V32.7591H35.4714H36.2464V30.2299V27.7007H35.4714H34.6963V30.2299ZM37.7966 28.1825C37.4555 28.4474 37.1765 28.8268 37.1765 29.0255C37.1765 29.5006 38.3255 29.4921 38.9424 29.0128C39.5463 28.5436 40.7027 28.6515 40.8348 29.1893C40.9117 29.5039 40.6106 29.6316 39.4787 29.7634C37.7522 29.9645 36.8665 30.5674 36.8665 31.541C36.8665 32.3207 37.8046 33 38.8816 33C39.232 33 39.8288 32.8311 40.2076 32.625C40.5939 32.4149 40.8968 32.3619 40.8968 32.5045C40.8968 32.6445 41.39 32.7591 41.9927 32.7591C42.9801 32.7591 43.057 32.7131 42.7678 32.2933C42.5914 32.037 42.4469 31.0111 42.4469 30.0134C42.4469 27.9182 42.2011 27.7007 39.8322 27.7007C38.8299 27.7007 38.2355 27.8414 37.7966 28.1825ZM70.6591 30.2299V32.7591H71.5891H72.5192V31.052C72.5192 29.3765 72.5363 29.3399 73.4493 29.0723C74.1081 28.8791 74.3794 28.6394 74.3794 28.2502C74.3794 27.5911 73.6027 27.5181 72.7762 28.0994C72.2486 28.4703 72.2092 28.4703 72.2092 28.0994C72.2092 27.8347 71.9488 27.7007 71.4341 27.7007H70.6591V30.2299ZM75.7122 28.0628C74.2898 28.8369 74.0786 31.1954 75.3376 32.2453C76.0042 32.8013 77.7186 33.1265 78.7033 32.8837C79.3928 32.7136 80.5798 31.8443 80.5798 31.5092C80.5798 31.2276 78.7929 31.2679 78.5647 31.5547C78.2999 31.8876 77.0629 31.8573 76.6115 31.5066C75.7385 30.8283 76.2038 30.5912 78.4097 30.5912C80.529 30.5912 80.5798 30.5768 80.5798 29.977C80.5798 29.1915 79.8193 28.0437 79.1708 27.8503C78.2618 27.5793 76.3892 27.6942 75.7122 28.0628ZM81.5325 28.3354C81.1791 28.6845 80.8899 29.094 80.8899 29.2452C80.8899 29.9122 81.8971 30.5575 83.3651 30.8312C84.9502 31.1267 85.4184 31.6403 84.3438 31.9052C83.6838 32.0681 82.75 31.8477 82.75 31.529C82.75 31.4107 82.3315 31.3139 81.8199 31.3139C80.7153 31.3139 80.6034 31.7605 81.5425 32.4207C82.0171 32.7545 82.6582 32.8796 83.8949 32.8796C85.3077 32.8796 85.6952 32.7835 86.1876 32.3109C87.463 31.0872 86.7425 30.1858 84.0475 29.6338C82.5789 29.3331 82.436 28.8321 83.7833 28.7083C84.319 28.6592 84.6799 28.7659 84.8002 29.0094C85.0802 29.5764 86.4703 29.5008 86.4703 28.9188C86.4703 28.2138 85.2755 27.7007 83.6336 27.7007C82.427 27.7007 82.0639 27.8103 81.5325 28.3354ZM87.733 28.3354C87.3796 28.6845 87.0903 29.094 87.0903 29.2452C87.0903 29.9122 88.0976 30.5575 89.5656 30.8312C91.1507 31.1267 91.6189 31.6403 90.5443 31.9052C89.8843 32.0681 88.9505 31.8477 88.9505 31.529C88.9505 31.4107 88.532 31.3139 88.0204 31.3139C86.9158 31.3139 86.8039 31.7605 87.7429 32.4207C88.2176 32.7545 88.8587 32.8796 90.0954 32.8796C91.5082 32.8796 91.8957 32.7835 92.388 32.3109C93.6635 31.0872 92.943 30.1858 90.2479 29.6338C88.7794 29.3331 88.6364 28.8321 89.9838 28.7083C90.5195 28.6592 90.8804 28.7659 91.0007 29.0094C91.2806 29.5764 92.6708 29.5008 92.6708 28.9188C92.6708 28.2138 91.4759 27.7007 89.8341 27.7007C88.6274 27.7007 88.2644 27.8103 87.733 28.3354ZM25.2186 29.0427C25.7927 29.489 25.8675 31.0918 25.3336 31.5066C24.7129 31.9888 23.5863 31.839 23.0503 31.2033C21.8775 29.8125 23.7751 27.9214 25.2186 29.0427ZM50.6433 29.0451C51.3151 29.567 50.9819 29.8686 49.7325 29.8686C49.1558 29.8686 48.6046 29.7689 48.5079 29.6472C48.2874 29.37 49.167 28.6642 49.7325 28.6642C49.9637 28.6642 50.3736 28.8355 50.6433 29.0451ZM57.5792 30.0654C57.7072 31.0576 57.1591 31.7956 56.2941 31.7956C55.2862 31.7956 54.8479 31.3471 54.8479 30.3159C54.8479 28.5031 57.3479 28.2738 57.5792 30.0654ZM78.3477 28.9533C79.0834 29.5249 78.7575 29.8686 77.4796 29.8686C76.1511 29.8686 75.949 29.6468 76.7265 29.0427C77.3091 28.59 77.8423 28.5607 78.3477 28.9533ZM40.3896 31.7289C39.6127 32.1704 38.9012 32.0167 38.7843 31.3825C38.7068 30.961 38.8953 30.8114 39.7144 30.6442C40.6131 30.4612 40.7551 30.4959 40.8487 30.921C40.9083 31.1915 40.7043 31.5502 40.3896 31.7289Z" fill="white"/>
</svg>
