<svg width="128" height="38" fill="none" xmlns="http://www.w3.org/2000/svg"><path fill-rule="evenodd" clip-rule="evenodd" d="M45.63 15.047v14.68h6.91V24.04c0-3.72.019-5.804.053-6.026.16-1.037.678-1.862 1.414-2.25.539-.285 1.354-.326 1.924-.097.558.225 1.066.855 1.32 1.64l.136.421.014 6 .013 6h6.858v-6.796c0-4.425-.019-6.972-.053-7.301-.157-1.515-.581-2.818-1.28-3.94-.304-.485-1.184-1.404-1.648-1.72a6.354 6.354 0 0 0-2.28-.947c-.318-.067-.68-.091-1.376-.092-.809-.001-1.019.016-1.466.12-1.308.304-2.34.881-3.244 1.813l-.385.397V.366h-6.91v14.681ZM115.558 9.1c-1.909 4.803-3.557 8.949-3.664 9.214l-.193.482 4.132-.013 4.133-.014 3.359-8.485 3.641-9.202.283-.716-4.111.001h-4.11l-3.47 8.733Zm-85.139-.142c-2.212.28-4.255 1.465-5.745 3.335-1.543 1.936-2.457 4.643-2.457 7.28 0 3.374 1.329 6.57 3.547 8.532 1.122.993 2.486 1.693 3.875 1.99 2.058.44 4.209.08 5.751-.964.427-.288.928-.742 1.143-1.036.096-.13.191-.238.212-.24.02 0 .037.42.037.936v.937H43.344V9.373h-6.562v1.835l-.39-.39c-.883-.884-2.015-1.483-3.333-1.764-.553-.119-2.037-.173-2.64-.096Zm44.391.005c-3.507.373-6.44 2.445-7.988 5.642-.786 1.624-1.127 3.15-1.128 5.05-.001 1.828.318 3.304 1.046 4.84a10.034 10.034 0 0 0 6.186 5.312c2.703.815 5.67.55 8.104-.726a10.018 10.018 0 0 0 4.864-5.683c.404-1.196.569-2.263.569-3.666 0-1.483-.146-2.475-.548-3.748-.694-2.195-1.963-3.943-3.797-5.23-.951-.668-2.438-1.315-3.644-1.586-1.078-.242-2.546-.324-3.664-.205Zm21.823.02c-3.163.37-5.795 2.064-7.44 4.789-1.495 2.474-1.969 5.716-1.263 8.632.788 3.256 2.937 5.798 5.971 7.064 2.379.993 5.24 1.072 7.671.212 2.656-.94 4.673-2.753 5.824-5.236.741-1.6 1.075-3.337.999-5.206-.15-3.726-1.721-6.722-4.504-8.591-.532-.357-1.676-.926-2.287-1.136a11.486 11.486 0 0 0-4.97-.528ZM.102 9.62c.144.35 8.07 19.886 8.159 20.11l.073.183-1.503 3.669L5.33 37.25l3.684.014c2.939.012 3.693.001 3.726-.052.022-.036 2.519-6.31 5.548-13.94L23.795 9.4l-3.635-.014c-2-.007-3.657-.004-3.685.007-.027.01-1.045 2.657-2.261 5.881-1.217 3.224-2.224 5.862-2.237 5.862-.014 0-1.01-2.646-2.212-5.88l-2.188-5.88-3.788-.001L0 9.373l.102.247Zm33.734 5.928c2.987.65 4.076 4.723 1.876 7.022-.781.816-1.619 1.168-2.783 1.17-1.113 0-2.012-.373-2.8-1.164a4.068 4.068 0 0 1-1.104-1.941c-.12-.491-.13-1.406-.023-1.942.467-2.326 2.504-3.651 4.834-3.145Zm43.523.161c.626.228.943.444 1.485 1.008.426.443.508.56.732 1.041.388.834.525 1.643.404 2.39-.275 1.71-1.418 3.05-2.958 3.465-.496.135-1.361.124-1.886-.023-1.72-.481-2.86-2.062-2.86-3.971-.002-2.042 1.14-3.608 2.932-4.026.222-.052.542-.07 1.02-.06.624.015.74.033 1.13.176Zm21.64-.09c1.651.438 2.825 1.954 2.939 3.8.115 1.859-1.237 3.748-3.007 4.201-.484.124-1.367.112-1.86-.026a3.952 3.952 0 0 1-2.38-1.925 5.906 5.906 0 0 1-.308-.755c-.15-.457-.158-.516-.16-1.286 0-.69.016-.867.113-1.22.406-1.468 1.445-2.513 2.794-2.813.503-.111 1.4-.1 1.869.025Zm14.063 5.02a4.621 4.621 0 0 0-3.044 2.127c-1.008 1.628-.964 3.787.111 5.374.259.382.844.971 1.233 1.24.367.255.823.471 1.286.611.467.141 1.435.192 1.96.104 1.117-.19 2.111-.799 2.827-1.735 1.481-1.935 1.306-4.734-.403-6.444-.857-.858-1.829-1.285-3.025-1.327a4.396 4.396 0 0 0-.945.05Z" fill="#fff"/></svg>