<svg width="41" height="37" fill="none" xmlns="http://www.w3.org/2000/svg"><path opacity=".46" fill-rule="evenodd" clip-rule="evenodd" d="M19.44.93c-.891.923-.895.932-.517 1.282.312.288.433.307.668.108.249-.211.287-.137.287.553 0 .77-.02.796-.619.796-.803 0-3.174.673-4.175 1.186-.431.22-1.22.734-1.753 1.14l-.969.739-.532-.568c-.512-.546-.517-.567-.118-.567.333 0 .413-.112.413-.579v-.58H9.478V5.89c0 1.416.01 1.448.473 1.448.346 0 .472-.103.472-.386 0-.51.22-.488.738.076l.425.462-.706.938c-1.03 1.367-1.932 3.493-2.217 5.22l-.249 1.51-.697.06c-.718.061-.867-.099-.469-.506.178-.182.157-.305-.097-.565-.307-.314-.378-.277-1.31.675l-.986 1.007.934.969c.927.96.938.965 1.304.592.307-.314.328-.427.124-.677-.213-.263-.152-.3.489-.3l.732.001.31 1.635c.348 1.832 1.149 3.732 2.173 5.156l.684.952-.435.472c-.527.573-.747.599-.747.086 0-.283-.126-.386-.472-.386-.463 0-.473.032-.473 1.457v1.457l1.276-.057c1.227-.055 1.279-.077 1.335-.573.045-.398-.031-.53-.335-.58-.383-.06-.38-.077.087-.59l.48-.526.879.684a13.88 13.88 0 0 0 1.776 1.149c1.09.564 3.437 1.248 4.283 1.248.613 0 .619.009.613.917-.006.804-.037.875-.257.58-.322-.434-.537-.428-.812.021-.19.31-.091.489.711 1.296l.931.936.947-.951c.938-.944.943-.956.577-1.329-.315-.321-.414-.338-.676-.116-.276.234-.301.184-.247-.497.06-.743.078-.76.944-.886 2.13-.308 4.245-1.213 5.848-2.5l.68-.546.537.572c.516.55.521.572.123.572-.334 0-.413.112-.413.588v.587l1.37-.056 1.372-.057v-1.352c0-1.33-.008-1.352-.52-1.412-.42-.05-.52.016-.52.338 0 .524-.216.503-.746-.072l-.433-.471.683-.851c1.18-1.472 2.223-4.177 2.434-6.317.041-.425.148-.49.892-.544.84-.061.843-.06.494.334-.288.325-.308.449-.113.69.131.16.338.293.46.293.267 0 1.812-1.577 1.812-1.85 0-.105-.41-.605-.91-1.108-.891-.896-.918-.908-1.242-.543-.216.243-.26.417-.13.5.431.272.17.51-.495.454l-.698-.06-.23-1.352c-.374-2.194-1.132-4.001-2.29-5.46l-.657-.826.584-.61.585-.61v.532c0 .466.064.524.52.47.508-.06.521-.093.575-1.46l.056-1.4H28.765v.58c0 .498.07.578.506.578h.505l-.444.483c-.244.266-.523.483-.62.483-.098 0-.81-.432-1.581-.96-1.42-.969-3.47-1.763-5.22-2.02-.873-.13-.899-.152-.899-.797 0-.692.15-.82.522-.44.247.252.802-.092.802-.497 0-.273-1.544-1.851-1.81-1.851-.104 0-.593.418-1.087.93Zm4.03 4.215c1.7.483 3.222 1.426 4.658 2.883 2.097 2.128 3.152 4.73 3.165 7.805.021 5.01-3.345 9.441-8.143 10.717-1.243.331-3.915.372-5.163.08-3.861-.904-7.387-4.642-8.142-8.63-.323-1.708-.14-4.485.392-5.932.618-1.683 1.96-3.652 3.219-4.721 1.672-1.422 3.37-2.152 6.044-2.599.772-.129 2.855.08 3.97.397Zm-5.417.729c-1.762.436-3.104 1.251-4.609 2.8-1.555 1.598-2.272 2.878-2.733 4.876-1.293 5.601 2.481 11.344 8.109 12.336 5.09.898 10.189-2.507 11.362-7.588.831-3.601-.138-7.141-2.666-9.73-2.425-2.484-6.095-3.529-9.463-2.694Zm2.96 1.367c0 .383-.096.482-.462.482-.254 0-.51-.079-.568-.175-.204-.337.127-.79.577-.79.357 0 .452.102.452.483Zm-2.287.144c.178.484-.178.837-.656.65-.334-.13-.36-.822-.036-.956.43-.177.53-.132.693.306Zm4.149-.263c.343.222.2.87-.211.951-.367.073-.616-.388-.449-.832.123-.328.29-.358.66-.12Zm-6.212.875c0 .044.05.212.11.372.065.174-.045.374-.276.5-.32.175-.422.14-.602-.202-.169-.324-.16-.45.04-.58.267-.172.728-.23.728-.09Zm8.446.222c.158.422-.2.726-.674.572-.325-.105-.361-.196-.201-.501.235-.45.718-.49.875-.071ZM14.973 9.484c.17.323.154.47-.078.707-.24.246-.345.255-.586.05-.351-.297-.374-.62-.066-.934.322-.33.486-.29.73.177Zm11.777.59c-.295.333-.338.335-.664.033-.327-.302-.33-.345-.034-.679.296-.333.338-.336.665-.034.327.302.33.345.033.68Zm-5.773.584c.054.483.131.526 1.04.58.853.05.989.114 1.041.492.057.405-.009.434-.992.434h-1.054v3.252l.572.128c1.459.327 2.166 1.793 1.707 3.535-.229.866-.899 1.388-1.784 1.388-.372 0-.482.11-.53.53-.042.375-.18.55-.471.591-.328.048-.424-.05-.473-.482-.054-.484-.143-.548-.817-.594-1.33-.09-1.582-.198-1.473-.624.085-.332.257-.387 1.212-.387h1.112V16.31l-.945-.342c-1.134-.412-1.513-1.025-1.513-2.451 0-1.66.427-2.192 1.89-2.36.362-.041.488-.181.534-.596.085-.752.857-.672.944.098Zm-7.365.605c.153.189.146.344-.027.586-.199.277-.288.29-.574.075-.214-.16-.293-.375-.214-.585.15-.398.525-.433.815-.076Zm14.582.12c.16.308.123.42-.198.595-.323.177-.445.151-.656-.136-.223-.304-.216-.388.052-.595.424-.33.57-.305.802.137Zm-9.224 1.013c-.125.127-.227.644-.227 1.147 0 .728.087.978.42 1.217.784.56.904.408.904-1.148 0-1.382-.02-1.448-.435-1.448-.24 0-.537.104-.662.232Zm10.113 1.402c-.036.11-.271.2-.523.2-.572 0-.771-.79-.232-.916.367-.086.863.384.755.716Zm-16.235-.234c-.04.28-.213.456-.486.496-.347.05-.426-.03-.426-.434s.09-.496.486-.496.475.08.425.434Zm-.25 2.172c0 .278-.146.404-.52.447-.406.048-.52-.019-.52-.305 0-.487.186-.653.654-.584.242.035.386.2.386.442Zm16.734 0c0 .386-.094.483-.473.483-.378 0-.472-.097-.472-.483s.094-.483.473-.483c.378 0 .472.097.472.483Zm-8.32 2.239c0 1.129.065 1.526.248 1.526 1.272 0 1.399-2.613.143-2.949-.37-.099-.39-.025-.39 1.423Zm-8.13.09c0 .373-.098.47-.473.47s-.473-.097-.473-.468c0-.288.127-.498.331-.545.478-.11.615.01.615.543Zm16.258-.23c-.006.468-.331.741-.73.612-.437-.142-.52-.485-.196-.816.248-.253.93-.103.926.203Zm-15.518 2.023c.201.383-.05.802-.482.802-.351 0-.537-.79-.231-.987.377-.244.506-.211.713.185Zm14.451-.113c.282.21.291.293.069.604-.215.3-.326.322-.67.134-.338-.184-.377-.295-.216-.604.232-.442.374-.465.817-.134ZM14.97 21.538c.201.248.189.355-.071.62-.293.3-.336.3-.63 0-.26-.265-.272-.372-.07-.62.133-.164.307-.3.385-.3.079 0 .253.136.386.3Zm11.89.058c.339.647-.462 1.088-.93.512-.188-.231-.188-.348 0-.58.318-.392.703-.364.93.068Zm-1.687 1.673c0 .401-.607.522-.931.186-.271-.281-.265-.333.065-.583.39-.296.866-.078.866.397Zm-8.425-.31c.151.25-.083.79-.34.787-.416-.006-.701-.32-.58-.64.128-.343.742-.44.92-.147Zm2.039.705c.26.265-.112.857-.538.857-.465 0-.533-.134-.335-.66.11-.295.657-.418.873-.197Zm4.364.29c.063.244-.002.439-.167.503-.427.167-.836-.082-.836-.509 0-.551.862-.546 1.003.006Zm-2.232.374c0 .354-.114.5-.426.545-.256.037-.472-.06-.54-.242-.189-.5.075-.915.54-.847.312.045.426.19.426.544ZM.576 33.388c-1.013 1.035-.627 3.051.668 3.488.517.174.77.167 1.171-.033.78-.387.79-.738.018-.61-.45.074-.734.012-.95-.21-.725-.74-.541-2.62.255-2.62.242 0 .44.153.5.386.129.505.811.518.811.016 0-.795-.204-.981-1.075-.981-.682 0-.952.109-1.398.564Zm3.56-.356c-1.298.773-1.098 3.365.297 3.835 1.451.489 2.62-.744 2.31-2.436-.24-1.308-1.564-2.019-2.607-1.399Zm3.167 1.82v2.027h.71c.39 0 .709-.087.709-.194a.192.192 0 0 0-.19-.193c-.11 0-.189-.64-.189-1.533 0-.843.086-1.587.19-1.653.403-.254.157-.482-.52-.482h-.71v2.027ZM9.1 32.992c0 .107.085.248.189.313.104.066.189.81.189 1.653 0 .893-.079 1.533-.19 1.533a.192.192 0 0 0-.188.193c0 .107.298.194.662.194.678 0 .815-.153.461-.514-.11-.113-.174-.63-.142-1.149l.059-.944.85 1.3c.626.954.964 1.3 1.277 1.302.41.004.426-.06.426-1.717 0-.947.051-1.86.114-2.028.092-.243-.023-.305-.567-.305-.697 0-.838.15-.48.514.11.113.174.587.141 1.053l-.06.846-.76-1.158c-.634-.967-.86-1.169-1.37-1.22-.336-.032-.611.028-.611.134Zm4.16.012c0 .1.085.236.189.301.104.066.189.81.189 1.653 0 .893-.079 1.533-.19 1.533a.192.192 0 0 0-.188.193c0 .107.298.194.662.194.617 0 .911-.27.46-.423-.118-.04-.176-.5-.14-1.126l.058-1.058.834 1.303c.53.828.96 1.303 1.182 1.303.311 0 .347-.179.347-1.726 0-.95.085-1.78.19-1.846.393-.248.164-.482-.473-.482-.678 0-.815.152-.462.513.11.113.175.619.142 1.124l-.058.92-.796-1.279c-.696-1.117-.87-1.278-1.371-1.278-.317 0-.575.082-.575.181Zm4.16 0c0 .1.085.236.189.301.104.066.189.81.189 1.653 0 .893-.079 1.533-.19 1.533a.192.192 0 0 0-.188.193c0 .113.622.194 1.49.194 1.386 0 1.499-.031 1.605-.435.063-.239.115-.5.116-.58.006-.284-.486-.137-.804.242-.178.213-.495.386-.704.386-.308 0-.38-.127-.38-.675 0-.662.384-.942.662-.483.243.402.473.168.473-.483 0-.65-.23-.885-.473-.483-.256.424-.662.187-.662-.386 0-.451.084-.579.381-.579.21 0 .546.105.748.234.451.288.648.12.483-.413-.111-.358-.274-.4-1.53-.4-.773 0-1.405.082-1.405.181Zm3.214-.027c0 .085.078.237.172.338.095.101.404.948.688 1.883.45 1.489.564 1.693.915 1.641.29-.042.473-.298.664-.927.146-.478.306-1 .356-1.158.05-.16.253.253.451.917.28.936.442 1.207.725 1.207.447 0 .62-.319 1.048-1.931.184-.69.449-1.393.589-1.56.332-.399.148-.564-.629-.564-.654 0-.78.156-.42.524.156.158.147.473-.032 1.187-.135.535-.3.938-.368.895-.068-.043-.237-.56-.375-1.149-.217-.926-.312-1.071-.7-1.071-.247 0-.483.109-.526.241-.042.133-.194.676-.337 1.207l-.26.965-.312-1.06c-.198-.677-.245-1.126-.129-1.245.354-.36.172-.494-.669-.494-.468 0-.85.07-.85.154Zm6.433.228c-.693.707-.4 1.527.759 2.131.505.263.75.52.75.786 0 .564-.97.436-1.227-.162-.288-.671-.699-.548-.629.189.054.563.135.637.862.783 1.107.222 1.825-.136 1.902-.95.06-.616.057-.619-1.475-1.803-.457-.354-.462-.378-.13-.716.333-.339.359-.333.764.18.548.694.69.67.69-.114 0-.64-.007-.645-.943-.679-.723-.026-1.03.057-1.323.355Zm2.935-.202c-.06.098-.022.234.084.3.274.174.244 3.057-.035 3.343-.177.18-.009.232.756.232.54 0 .983-.087.983-.194 0-.106-.127-.193-.283-.193-.173 0-.284-.18-.284-.458 0-.361.128-.485.602-.582.852-.174 1.289-.646 1.289-1.392 0-.878-.556-1.236-1.922-1.236-.595 0-1.13.08-1.19.18Zm4.006-.064c-.072.075-.004.23.152.347.25.187.236.363-.123 1.468-.224.69-.523 1.392-.665 1.56-.402.474-.317.564.536.564.618 0 .744-.052.567-.232-.432-.442-.25-.734.456-.734.633 0 .674.035.563.483l-.118.483h1.649c1.282 0 1.598-.052 1.421-.232-.125-.128-.227-.713-.227-1.301v-1.07l.855 1.301c.574.874.978 1.302 1.23 1.302.344 0 .373-.135.373-1.727 0-.961.086-1.78.193-1.847.327-.207.002-.481-.57-.481-.548 0-.935.293-.557.422.119.04.178.466.143 1.03l-.06.961-.456-.772c-.25-.425-.627-.968-.836-1.207-.392-.448-1.148-.582-1.355-.241-.064.106-.026.193.084.193.235 0 .282 3.207.05 3.355-.348.219-.66-.304-1.147-1.926l-.518-1.719-.754-.057c-.414-.032-.813.003-.886.077Zm-28.507.643c.343.656.242 2.42-.16 2.792-.57.527-.968-.03-.968-1.357 0-1.156.238-1.808.661-1.808.15 0 .359.168.467.373Zm26.668.39c0 .62-.215.975-.588.975-.289 0-.358-.143-.358-.74 0-.408.054-.795.12-.862.21-.216.826.252.826.627Zm3.206 1.12c.004.132-.196.24-.445.24-.438 0-.446-.025-.249-.817l.203-.818.241.577c.133.317.245.685.25.818Z" fill="#fff"/></svg>