<svg width="119" height="43" fill="none" xmlns="http://www.w3.org/2000/svg"><path fill-rule="evenodd" clip-rule="evenodd" d="M44.492 12.15c-5.424 6.27-9.921 11.506-9.993 11.638-.073.13 1.741.238 4.03.238h4.164l1.388-1.686 1.388-1.685H53.4l-.115-2.529-.115-2.529-1.64-.153-1.642-.153 2.036-2.675c1.12-1.47 2.135-2.677 2.258-2.682.121-.004.215.579.206 1.296-.008.716.025 3.888.074 7.05l.09 5.746h7.298l-.108-11.647L61.635.73l-3.64.011-3.64.011-9.863 11.398Zm18.74 4.484v11.683h7.298l-.11-9.041-.11-9.043h2.158c1.71 0 2.389.153 3.258.734 2.44 1.63.82 4.784-2.457 4.784H71.91v4.904h3.473c3.147 0 3.642-.083 5.259-.88 4.125-2.032 5.112-7.908 1.906-11.347-.756-.811-1.988-1.534-3.779-2.22-2.622-1.002-2.743-1.017-9.098-1.137l-6.44-.12v11.683ZM3.873 34.354c-.155.305-1.058 2.243-2.006 4.308L.145 42.417h1.277c1.057 0 1.355-.159 1.724-.92.409-.84.604-.92 2.29-.92 1.687 0 1.883.08 2.291.92.37.762.667.92 1.728.92h1.28l-1.907-4.215-1.908-4.214-1.382-.093c-1.036-.07-1.452.046-1.664.46Zm40.421.247c0 .613.197.766.986.766.79 0 .987-.153.987-.766s-.198-.766-.987-.766c-.789 0-.986.153-.986.766Zm29.193.624c0 1.28-.06 1.365-.763 1.072-.866-.36-2.4-.413-3.393-.117-.368.11-1 .765-1.404 1.456-.566.967-.736 1.094-.743.553-.005-.388-.445-1.042-.977-1.456-1.207-.938-4-1.047-5.332-.209-1.61 1.013-1.716 3.986-.19 5.297 1.42 1.219 5.18 1.007 6.11-.345.564-.818.491-.898-.803-.898-.651 0-1.184.138-1.184.306 0 .578-2.319.336-2.747-.286-.225-.326-.409-.67-.409-.766 0-.095 1.287-.169 2.86-.163l2.86.012.79 1.291c1 1.638 2.485 2.127 4.174 1.374.633-.282 1.151-.382 1.151-.221 0 .16.444.292.987.292h.986v-8.582h-.986c-.907 0-.987.111-.987 1.39Zm7.101 2.9v4.292h1.184c1.157 0 1.183-.034 1.183-1.533v-1.532h1.757c.966 0 2.189-.153 2.718-.34 1.978-.7 2.466-3.184.869-4.425-.877-.681-1.286-.752-4.34-.752h-3.37v4.29ZM56 34.346c-.145.113-.263.527-.263.92s-.178.715-.395.715c-.217 0-.394.276-.394.613 0 .337.177.613.394.613.223 0 .395.875.395 2.013 0 1.107.172 2.263.384 2.57.433.63 2 1.028 2.938.748.88-.262.774-1.066-.166-1.257-.686-.14-.79-.418-.79-2.117 0-1.752.083-1.957.79-1.957.458 0 .789-.204.789-.488 0-.269-.355-.56-.79-.649-.558-.114-.788-.418-.788-1.044 0-.722-.17-.884-.92-.884-.507 0-1.04.092-1.184.205Zm30.834 1.882c.19 1.044-.618 1.592-2.347 1.592-1.525 0-1.53-.003-1.53-1.243v-1.242l1.874.093c1.614.08 1.892.192 2.003.8ZM6.18 37.597c.301.78.45 1.492.33 1.585-.324.252-1.986.206-2.185-.06-.209-.28.892-3.262 1.135-3.073.094.074.418.77.72 1.549Zm5.766-1.004c-.973.756-1.017 1.89-.099 2.535.38.267 1.534.649 2.565.85 1.957.383 2.459 1.027 1.065 1.371-.48.118-1.21-.006-1.798-.305-.544-.277-1.454-.46-2.023-.408l-1.033.095 1.022.92c.914.822 1.26.92 3.282.92 1.987 0 2.354-.1 3.043-.816l.783-.815.902.816c.78.704 1.206.814 3.14.814 1.877 0 2.361-.117 2.993-.723 1.512-1.45.669-2.68-2.23-3.251-2.283-.45-2.98-1.39-1.031-1.39.676 0 1.265.194 1.397.46.125.253.676.46 1.226.46 1.22 0 1.313-.675.21-1.533-1.15-.893-4.409-.86-5.509.058-1.688 1.409-.733 2.705 2.45 3.327 1.047.204 1.875.544 1.875.769 0 .66-1.527.847-2.57.316-.524-.267-1.375-.485-1.89-.485-.611 0-1.09-.26-1.376-.75-.3-.51-.983-.864-2.135-1.108a451.44 451.44 0 0 1-2.188-.466c-.27-.06-.493-.32-.493-.578 0-.614 1.714-.621 2.367-.01.27.253.913.46 1.429.46 1.16 0 1.228-.694.149-1.533-.579-.45-1.315-.613-2.762-.613-1.446 0-2.182.164-2.761.613Zm16.144.283c-.974.757-1.153 1.14-1.153 2.466 0 1.251.193 1.72.952 2.31 1.26.979 2.724 1.231 4.605.794 1.83-.426 2.728-1.548 2.728-3.409 0-1.852-1.632-3.057-4.143-3.057-1.503 0-2.045.163-2.989.896Zm9.363-.548c-.885.4-1.837 2.083-1.835 3.244.002 1.412 1.34 2.783 2.945 3.017 2.226.324 4.549-.692 4.549-1.99 0-.494-1.807-.393-2.367.132-.592.554-1.64.596-2.288.092-.68-.528-.585-2.567.146-3.135.812-.631 1.19-.608 2.142.131 1.034.804 2.367.811 2.367.012 0-1.002-1.536-1.852-3.33-1.842-.88.006-1.93.158-2.33.339Zm6.842 2.87v3.219H46.268V35.98H44.295V39.2Zm3.945-2.605c-.434.337-.789.82-.789 1.073 0 .605 1.462.594 2.247-.016.769-.597 2.24-.46 2.408.224.098.4-.285.563-1.725.73-2.197.257-3.324 1.024-3.324 2.263 0 .992 1.193 1.857 2.564 1.857.446 0 1.205-.215 1.687-.478.492-.267.877-.334.877-.153 0 .178.628.324 1.395.324 1.256 0 1.354-.059.986-.593-.224-.326-.408-1.631-.408-2.9 0-2.667-.313-2.944-3.328-2.944-1.275 0-2.031.18-2.59.613ZM90.057 39.2v3.218h2.367v-2.172c0-2.132.022-2.179 1.184-2.52.838-.245 1.183-.55 1.183-1.046 0-.838-.988-.931-2.04-.192-.671.473-.721.473-.721 0 0-.336-.332-.507-.987-.507h-.986V39.2Zm6.43-2.758c-1.81.985-2.078 3.986-.476 5.322.848.708 3.03 1.121 4.282.813.878-.217 2.388-1.323 2.388-1.75 0-.358-2.274-.307-2.564.058-.337.424-1.91.385-2.485-.06-1.111-.864-.52-1.166 2.288-1.166 2.697 0 2.761-.018 2.761-.781 0-1-.967-2.46-1.793-2.706-1.156-.345-3.54-.199-4.4.27Zm7.407.347c-.45.444-.818.965-.818 1.158 0 .848 1.282 1.67 3.15 2.018 2.017.376 2.612 1.03 1.245 1.366-.84.208-2.028-.073-2.028-.478 0-.15-.533-.274-1.184-.274-1.405 0-1.548.568-.353 1.408.604.425 1.42.584 2.994.584 1.797 0 2.291-.122 2.917-.723 1.623-1.558.706-2.705-2.723-3.407-1.869-.383-2.051-1.02-.336-1.178.681-.062 1.141.074 1.294.383.356.722 2.125.626 2.125-.115 0-.897-1.521-1.55-3.61-1.55-1.535 0-1.997.14-2.673.808Zm7.89 0c-.45.444-.818.965-.818 1.158 0 .848 1.282 1.67 3.15 2.018 2.017.376 2.612 1.03 1.245 1.366-.84.208-2.028-.073-2.028-.478 0-.15-.533-.274-1.184-.274-1.405 0-1.548.568-.353 1.408.604.425 1.42.584 2.994.584 1.797 0 2.291-.122 2.917-.723 1.623-1.558.706-2.705-2.723-3.407-1.869-.383-2.051-1.02-.336-1.178.681-.062 1.141.074 1.294.383.356.722 2.125.626 2.125-.115 0-.897-1.521-1.55-3.61-1.55-1.535 0-1.997.14-2.673.808Zm-79.55.9c.731.568.826 2.607.147 3.135-.79.614-2.223.423-2.905-.386-1.493-1.77.922-4.176 2.759-2.75Zm32.354.003c.854.664.43 1.048-1.16 1.048-.733 0-1.435-.127-1.558-.282-.28-.353.839-1.25 1.558-1.25.295 0 .816.217 1.16.484Zm8.825 1.298c.163 1.263-.534 2.202-1.635 2.202-1.282 0-1.84-.57-1.84-1.883 0-2.307 3.181-2.599 3.475-.319Zm26.428-1.415c.936.727.521 1.165-1.105 1.165-1.69 0-1.947-.282-.958-1.051.741-.576 1.42-.614 2.063-.114ZM51.54 41.106c-.989.562-1.894.366-2.043-.44-.099-.537.141-.727 1.184-.94 1.143-.233 1.324-.189 1.443.352.076.344-.184.8-.584 1.028Z" fill="#fff"/></svg>