<svg width="100" height="29" viewBox="0 0 100 29" fill="none" xmlns="http://www.w3.org/2000/svg">
<path fill-rule="evenodd" clip-rule="evenodd" d="M35.8593 11.537V23.074H38.5743H41.2894L41.2897 18.6044C41.2898 15.6807 41.3041 14.0429 41.331 13.8689C41.4567 13.0537 41.864 12.4051 42.4418 12.1C42.8656 11.8761 43.5061 11.8441 43.9537 12.0244C44.3929 12.2014 44.7914 12.6965 44.9912 13.3134L45.0982 13.6439L45.1089 18.359L45.1197 23.074H47.8142H50.5088V17.7335C50.5088 14.2563 50.4944 12.2543 50.4675 11.9956C50.3437 10.8056 50.0107 9.78165 49.4608 8.90026C49.2226 8.51847 48.5308 7.79631 48.1659 7.54855C47.644 7.19413 47.0416 6.94351 46.375 6.80343C46.125 6.75094 45.8405 6.73196 45.2936 6.73134C44.6575 6.73061 44.4927 6.74415 44.1411 6.82589C43.1135 7.06489 42.3025 7.51811 41.5921 8.25038L41.2894 8.56249V4.28125V0H38.5743H35.8593V11.537ZM90.8124 6.8634C89.3125 10.6377 88.0171 13.8961 87.9337 14.1044L87.7819 14.4831L91.0292 14.4726L94.2764 14.4621L96.9163 7.79361C98.3683 4.12591 99.6561 0.871943 99.7781 0.562531L100 0L96.7697 0.000531847L93.5393 0.00110461L90.8124 6.8634ZM23.9053 6.75155C22.1665 6.97121 20.5617 7.90284 19.3901 9.37282C18.1775 10.8942 17.4595 13.0218 17.4595 15.0935C17.4595 17.7453 18.5036 20.2573 20.2466 21.7989C21.1288 22.5791 22.2006 23.1295 23.2924 23.3629C24.9096 23.7085 26.5998 23.4252 27.8118 22.6054C28.1472 22.3785 28.5407 22.0216 28.7103 21.7906C28.7855 21.6881 28.8602 21.6036 28.8763 21.6027C28.8925 21.6019 28.9056 21.9326 28.9056 22.3376V23.074H31.4839H34.0623V15.0758V7.07766H31.4839H28.9056V7.79905V8.52039L28.5988 8.21344C27.905 7.51925 27.0156 7.04845 25.9797 6.82695C25.5454 6.73408 24.379 6.6917 23.9053 6.75155ZM58.7906 6.75569C56.0347 7.04902 53.7294 8.67717 52.5133 11.1892C51.8953 12.4657 51.6274 13.6646 51.6264 15.1576C51.6255 16.595 51.876 17.7544 52.4483 18.9615C53.4044 20.9782 55.1646 22.4898 57.31 23.1365C59.4341 23.7768 61.7651 23.5678 63.6782 22.5657C65.4895 21.6169 66.8524 20.0249 67.5011 18.1001C67.8181 17.1596 67.948 16.3215 67.9477 15.219C67.9473 14.0532 67.8334 13.2736 67.5172 12.2734C66.9718 10.5481 65.9746 9.17444 64.5333 8.16267C63.7857 7.6379 62.6171 7.12953 61.6696 6.91688C60.8224 6.72672 59.6693 6.66216 58.7906 6.75569ZM75.9404 6.77127C73.4546 7.06199 71.386 8.39336 70.093 10.5347C68.9189 12.4792 68.5463 15.0272 69.1009 17.3185C69.7203 19.8774 71.4091 21.8753 73.7937 22.8702C75.6625 23.6499 77.9119 23.712 79.8215 23.0364C81.9085 22.2981 83.4938 20.8728 84.3982 18.9215C84.9809 17.6643 85.2431 16.299 85.184 14.8304C85.066 11.9027 83.8313 9.54796 81.6439 8.07917C81.226 7.79851 80.327 7.3518 79.8469 7.18624C78.6319 6.76714 77.2399 6.61929 75.9404 6.77127ZM0.0800059 7.27199C0.193413 7.54732 6.42243 22.9001 6.49181 23.0752L6.549 23.2195L5.36852 26.1026L4.18801 28.9857L7.08322 28.9968C9.39261 29.0057 9.98496 28.9974 10.0107 28.9559C10.0284 28.9272 11.9907 23.9976 14.3713 18.001L18.6996 7.09811L15.843 7.08752C14.2719 7.08171 12.9689 7.084 12.9474 7.09259C12.9259 7.10118 12.1261 9.18119 11.1699 11.7148C10.2138 14.2484 9.42273 16.3215 9.41199 16.3216C9.40124 16.3217 8.61896 14.2423 7.67358 11.7008L5.9547 7.07999L2.97737 7.0788L0 7.07766L0.0800059 7.27199ZM26.5906 11.931C28.938 12.441 29.7935 15.6427 28.065 17.4487C27.4506 18.0906 26.7925 18.3673 25.8781 18.3682C25.003 18.3691 24.2963 18.0753 23.678 17.4536C23.2376 17.0109 22.9514 16.508 22.8098 15.9284C22.7155 15.5422 22.707 14.8237 22.7916 14.4022C23.1588 12.5741 24.7593 11.533 26.5906 11.931ZM60.7932 12.0573C61.2851 12.2367 61.5342 12.4057 61.9607 12.8492C62.2954 13.1972 62.3598 13.2889 62.5357 13.6675C62.8403 14.3231 62.948 14.9591 62.8536 15.545C62.6371 16.8896 61.7388 17.9423 60.5291 18.2691C60.139 18.3745 59.459 18.3661 59.0468 18.2507C57.6945 17.8724 56.7995 16.6299 56.7986 15.1296C56.7976 13.5253 57.6944 12.2942 59.1032 11.9659C59.2774 11.9253 59.5288 11.9108 59.904 11.9196C60.3951 11.931 60.4859 11.9451 60.7932 12.0573ZM77.7995 11.987C79.0974 12.3305 80.0194 13.5225 80.1091 14.9726C80.1995 16.4335 79.137 17.9183 77.7464 18.2744C77.3662 18.3718 76.6717 18.3619 76.2851 18.2536C75.4977 18.0329 74.8113 17.4781 74.4138 16.7411C74.3495 16.6219 74.2409 16.355 74.1724 16.1479C74.0535 15.7884 74.0478 15.7426 74.0468 15.1372C74.0458 14.595 74.0587 14.456 74.1354 14.1786C74.4544 13.0249 75.2705 12.2032 76.331 11.968C76.7264 11.8803 77.4309 11.8894 77.7995 11.987ZM88.8515 15.9311C87.8463 16.1357 87.0031 16.7251 86.4591 17.6034C85.6667 18.8827 85.7018 20.579 86.5463 21.8264C86.7495 22.1264 87.2099 22.5896 87.5153 22.8012C87.8034 23.0009 88.1623 23.1712 88.5262 23.2811C88.893 23.3918 89.6538 23.432 90.0658 23.3624C90.9442 23.214 91.7252 22.7349 92.288 21.9992C93.4513 20.4784 93.3138 18.2792 91.9713 16.9348C91.2979 16.2604 90.534 15.9254 89.5937 15.892C89.2938 15.8814 89.0264 15.8955 88.8515 15.9311Z" fill="white"/>
</svg>
