<svg width="45" height="41" viewBox="0 0 45 41" fill="none" xmlns="http://www.w3.org/2000/svg">
<path fill-rule="evenodd" clip-rule="evenodd" d="M21.5857 1.28951C20.6185 2.29223 20.6146 2.3023 21.0249 2.68141C21.3633 2.99426 21.4948 3.01565 21.75 2.79925C22.0204 2.57007 22.0619 2.64996 22.0619 3.39938C22.0619 4.23581 22.0404 4.2637 21.3904 4.2637C20.5179 4.2637 17.9426 4.9953 16.8559 5.55201C16.3873 5.79211 15.5306 6.34924 14.9521 6.79021L13.8999 7.59226L13.3221 6.97641C12.7656 6.383 12.7608 6.36057 13.1935 6.36057C13.5555 6.36057 13.6426 6.23874 13.6426 5.73151V5.10245H12.2052H10.7677V6.6751C10.7677 8.21272 10.7792 8.24774 11.2811 8.24774C11.6575 8.24774 11.7945 8.13598 11.7945 7.82837C11.7945 7.27438 12.0323 7.29891 12.5953 7.91099L13.0572 8.41298L12.2904 9.43121C11.1725 10.9158 10.1917 13.2249 9.88287 15.0997L9.61263 16.74L8.85551 16.805C8.07539 16.8721 7.91357 16.6979 8.34604 16.2563C8.53968 16.0586 8.51669 15.9241 8.2409 15.6427C7.90721 15.3018 7.82959 15.3418 6.81742 16.3754L5.74693 17.4685L6.76177 18.5207C7.76819 19.5639 7.78009 19.5693 8.17724 19.1638C8.51073 18.8233 8.53352 18.7004 8.31277 18.4291C8.08093 18.1437 8.14706 18.103 8.84319 18.1036L9.6383 18.1045L9.97548 19.8799C10.3533 21.8688 11.2228 23.9327 12.3343 25.4789L13.0777 26.5129L12.6056 27.0258C12.0327 27.6485 11.7945 27.676 11.7945 27.1195C11.7945 26.8119 11.6575 26.7001 11.2811 26.7001C10.7788 26.7001 10.7677 26.7345 10.7677 28.2824V29.8645L12.1538 29.8027C13.4857 29.7431 13.5424 29.7188 13.6034 29.1801C13.6523 28.7477 13.5693 28.6041 13.2393 28.551C12.8235 28.4844 12.8259 28.4672 13.3342 27.9104L13.8562 27.3384L14.8094 28.0813C15.3337 28.49 16.2017 29.0516 16.738 29.329C17.9223 29.9419 20.4709 30.6842 21.3904 30.6842C22.0556 30.6842 22.0619 30.6936 22.0554 31.6802C22.0496 32.5533 22.0153 32.6309 21.7761 32.3092C21.4266 31.8391 21.1933 31.8454 20.8949 32.3329C20.689 32.6699 20.7953 32.8639 21.667 33.7406L22.678 34.7573L23.7058 33.7236C24.7247 32.6986 24.73 32.6865 24.3329 32.2809C23.9912 31.932 23.8836 31.9134 23.5986 32.1549C23.2987 32.4091 23.2714 32.3541 23.3308 31.615C23.3955 30.8079 23.4152 30.7892 24.3555 30.6531C26.6694 30.3179 28.966 29.3359 30.7067 27.9379L31.4456 27.3445L32.0286 27.9658C32.5892 28.5634 32.5943 28.5873 32.1624 28.5873C31.799 28.5873 31.7133 28.7089 31.7133 29.2256V29.8639L33.2021 29.8022L34.6909 29.7406V28.2728C34.6909 26.8274 34.6823 26.8039 34.1262 26.7387C33.6713 26.6852 33.5615 26.7565 33.5615 27.1057C33.5615 27.6754 33.3272 27.6527 32.7518 27.0275L32.2813 26.516L33.0227 25.5922C34.3053 23.9939 35.4374 21.0558 35.6661 18.7321C35.7115 18.2707 35.8275 18.1999 36.635 18.1412C37.5477 18.0747 37.5502 18.0766 37.1713 18.5041C36.8592 18.8562 36.8372 18.9914 37.0491 19.2523C37.1917 19.4276 37.4161 19.5708 37.5481 19.5708C37.8383 19.5708 39.5166 17.8589 39.5166 17.5631C39.5166 17.4477 39.0716 16.9057 38.5277 16.3586C37.56 15.3855 37.5307 15.3727 37.1793 15.769C36.9448 16.0336 36.8962 16.2221 37.0391 16.3123C37.5065 16.6073 37.2222 16.8671 36.5002 16.805L35.7429 16.74L35.4926 15.2722C35.0864 12.8894 34.263 10.9267 33.0048 9.34251L32.2922 8.44527L32.9268 7.78245L33.5615 7.11963V7.69773C33.5615 8.20434 33.6311 8.26745 34.1262 8.20916C34.6778 8.14437 34.6923 8.10767 34.7513 6.62267L34.8117 5.10245H33.2625H31.7133V5.73151C31.7133 6.27355 31.7893 6.36057 32.2625 6.36057H32.8118L32.3294 6.88478C32.0641 7.1731 31.7608 7.409 31.6554 7.409C31.5499 7.409 30.7772 6.94035 29.9383 6.36728C28.397 5.31465 26.1695 4.452 24.2694 4.17207C23.3222 4.03242 23.294 4.00747 23.294 3.30732C23.294 2.55581 23.4575 2.41762 23.8604 2.82903C24.1286 3.10288 24.7315 2.72964 24.7315 2.28972C24.7315 1.99343 23.055 0.279663 22.7652 0.279663C22.6523 0.279663 22.1215 0.734054 21.5857 1.28951ZM25.9636 5.86675C27.809 6.39181 29.4623 7.4155 31.0219 8.99821C33.2988 11.3092 34.4451 14.1357 34.4591 17.4739C34.4821 22.9159 30.8264 27.7274 25.6159 29.1132C24.2659 29.4724 21.3642 29.5169 20.0084 29.1994C15.8154 28.2176 11.9859 24.1585 11.1665 19.8277C10.8156 17.9724 11.0146 14.9569 11.592 13.3851C12.2629 11.5579 13.7211 9.41926 15.0877 8.25802C16.904 6.71452 18.748 5.92169 21.6512 5.43648C22.4901 5.29641 24.7524 5.52203 25.9636 5.86675ZM20.0799 6.65832C18.1671 7.132 16.7095 8.01751 15.0749 9.69877C13.3865 11.4354 12.6074 12.8254 12.1068 14.9944C10.7022 21.0778 14.8012 27.3141 20.9126 28.3917C26.4414 29.3665 31.9778 25.6691 33.2518 20.1514C34.1549 16.2401 33.1019 12.3962 30.357 9.5847C27.723 6.88709 23.738 5.75227 20.0799 6.65832ZM23.294 8.1429C23.294 8.55892 23.1905 8.66711 22.7928 8.66711C22.517 8.66711 22.2396 8.58135 22.1761 8.4763C21.9549 8.11103 22.3145 7.61868 22.8026 7.61868C23.1899 7.61868 23.294 7.72982 23.294 8.1429ZM20.8116 8.30016C21.0048 8.82543 20.6173 9.20894 20.0986 9.00576C19.7355 8.86359 19.7074 8.1125 20.0598 7.96718C20.5261 7.77511 20.636 7.82376 20.8116 8.30016ZM25.3163 8.01394C25.6892 8.25529 25.5334 8.95963 25.0877 9.04707C24.6888 9.1257 24.4191 8.62539 24.6005 8.1429C24.7341 7.78706 24.9155 7.75456 25.3163 8.01394ZM18.571 8.96445C18.571 9.01268 18.6244 9.19427 18.6897 9.36789C18.7609 9.55765 18.6416 9.77426 18.3903 9.91181C18.0432 10.1014 17.9321 10.0638 17.7371 9.69164C17.5531 9.34063 17.5623 9.2037 17.7798 9.063C18.0697 8.87533 18.571 8.81285 18.571 8.96445ZM27.7427 9.20538C27.915 9.66375 27.5263 9.99401 27.0111 9.8271C26.6581 9.71261 26.6184 9.61385 26.7924 9.28212C27.0484 8.79356 27.5721 8.75141 27.7427 9.20538ZM16.7356 10.5788C16.92 10.9305 16.9023 11.0898 16.6506 11.3471C16.389 11.6143 16.2764 11.6239 16.0144 11.4018C15.6329 11.0785 15.608 10.7281 15.9425 10.3865C16.2926 10.029 16.4701 10.072 16.7356 10.5788ZM29.5256 11.219C29.2044 11.5813 29.1584 11.5839 28.8035 11.2559C28.4487 10.928 28.4462 10.881 28.7674 10.5186C29.0886 10.1563 29.1346 10.1538 29.4894 10.4817C29.8443 10.8097 29.8467 10.8567 29.5256 11.219ZM23.2554 11.8543C23.3146 12.3786 23.3981 12.4251 24.3848 12.4834C25.311 12.5381 25.4588 12.608 25.5159 13.0181C25.5771 13.4589 25.5063 13.4899 24.4378 13.4899H23.294V15.2557V17.0212L23.915 17.1605C25.4991 17.5159 26.2675 19.1074 25.7685 20.9996C25.5204 21.9403 24.7925 22.5064 23.8312 22.5064C23.4275 22.5064 23.3078 22.6266 23.2562 23.083C23.2104 23.4894 23.0593 23.679 22.7441 23.7247C22.3876 23.7765 22.2835 23.6704 22.2307 23.2005C22.1718 22.6754 22.0753 22.6052 21.3432 22.5553C19.8998 22.4571 19.6248 22.3408 19.7433 21.8782C19.8357 21.5177 20.0228 21.458 21.0592 21.458H22.2673V19.7249V17.9917L21.2416 17.6199C20.0093 17.1728 19.5977 16.5064 19.5977 14.9577C19.5977 13.1557 20.0614 12.5771 21.6512 12.3953C22.0439 12.3505 22.1802 12.1982 22.2307 11.7474C22.3225 10.9309 23.1608 11.0183 23.2554 11.8543ZM15.2569 12.5111C15.4238 12.7166 15.4162 12.8847 15.2281 13.1473C15.0121 13.449 14.9156 13.4618 14.6045 13.2295C14.372 13.0558 14.2864 12.8214 14.3722 12.5933C14.5342 12.162 14.9423 12.124 15.2569 12.5111ZM31.0928 12.6423C31.2673 12.9757 31.2271 13.0972 30.8778 13.288C30.5272 13.4796 30.3954 13.4522 30.1658 13.1395C29.9235 12.8097 29.9313 12.7193 30.2219 12.4939C30.6831 12.136 30.8414 12.163 31.0928 12.6423ZM21.0763 13.7415C20.9407 13.8799 20.8298 14.4406 20.8298 14.9877C20.8298 15.7778 20.9237 16.0495 21.2863 16.3087C22.1373 16.9174 22.2673 16.7522 22.2673 15.0625C22.2673 13.5614 22.2459 13.4899 21.795 13.4899C21.5352 13.4899 21.2118 13.6031 21.0763 13.7415ZM32.0583 15.2638C32.0191 15.3838 31.7639 15.4819 31.4909 15.4819C30.87 15.4819 30.6531 14.6243 31.2394 14.4865C31.6376 14.393 32.1758 14.9038 32.0583 15.2638ZM14.427 15.0101C14.3847 15.3133 14.1962 15.5058 13.8993 15.549C13.5231 15.6035 13.4373 15.5159 13.4373 15.0772C13.4373 14.6384 13.5352 14.5383 13.965 14.5383C14.3946 14.5383 14.4804 14.626 14.427 15.0101ZM14.156 17.3691C14.156 17.6706 13.9975 17.8071 13.5913 17.8547C13.1506 17.9065 13.0266 17.8338 13.0266 17.5228C13.0266 16.9946 13.2284 16.8141 13.7369 16.8885C13.9991 16.9269 14.156 17.1068 14.156 17.3691ZM32.3294 17.3691C32.3294 17.7885 32.2267 17.8933 31.816 17.8933C31.4053 17.8933 31.3026 17.7885 31.3026 17.3691C31.3026 16.9497 31.4053 16.8449 31.816 16.8449C32.2267 16.8449 32.3294 16.9497 32.3294 17.3691ZM23.294 19.8002C23.294 21.0264 23.364 21.458 23.5628 21.458C24.9444 21.458 25.082 18.6197 23.7179 18.2554C23.316 18.1481 23.294 18.2282 23.294 19.8002ZM14.464 19.8977C14.464 20.3039 14.358 20.4095 13.9506 20.4095C13.544 20.4095 13.4373 20.3037 13.4373 19.9006C13.4373 19.5876 13.5755 19.3599 13.7966 19.3085C14.3153 19.1883 14.464 19.3196 14.464 19.8977ZM32.121 19.6478C32.1142 20.1567 31.7608 20.4532 31.3283 20.3131C30.8533 20.1592 30.7634 19.7859 31.1145 19.4274C31.3838 19.1525 32.1253 19.315 32.121 19.6478ZM15.2686 21.8453C15.4866 22.2615 15.2133 22.7161 14.7447 22.7161C14.363 22.7161 14.1617 21.8591 14.4934 21.6446C14.9037 21.3791 15.0433 21.4152 15.2686 21.8453ZM30.9624 21.7226C31.2679 21.9507 31.2782 22.0409 31.0367 22.3781C30.8032 22.7044 30.6823 22.7285 30.3083 22.5242C29.9422 22.324 29.8995 22.2038 30.0751 21.8685C30.3268 21.3882 30.4808 21.363 30.9624 21.7226ZM16.7315 23.6702C16.9496 23.9388 16.9362 24.056 16.6539 24.3441C16.3352 24.6697 16.2892 24.6697 15.9704 24.3441C15.6881 24.056 15.6747 23.9388 15.8928 23.6702C16.0382 23.4915 16.2269 23.3452 16.3122 23.3452C16.3974 23.3452 16.5861 23.4915 16.7315 23.6702ZM29.643 23.7324C30.0116 24.4355 29.1418 24.9147 28.6331 24.2887C28.4292 24.0377 28.4292 23.9107 28.6331 23.6597C28.9793 23.2336 29.3974 23.2638 29.643 23.7324ZM27.8117 25.55C27.8117 25.9857 27.1521 26.117 26.7997 25.7515C26.5059 25.4464 26.5123 25.3896 26.8708 25.1183C27.2955 24.7966 27.8117 25.0335 27.8117 25.55ZM18.6622 25.2135C18.8262 25.4842 18.5718 26.0717 18.2923 26.0679C17.841 26.0616 17.5313 25.7203 17.6619 25.3728C17.802 25.0004 18.4689 24.8941 18.6622 25.2135ZM20.876 25.9784C21.158 26.2665 20.7551 26.9098 20.2924 26.9098C19.7875 26.9098 19.7131 26.7639 19.9277 26.1931C20.0481 25.8727 20.6411 25.7385 20.876 25.9784ZM25.6157 26.2936C25.6835 26.5582 25.613 26.7702 25.4342 26.8402C24.9707 27.0218 24.5261 26.7511 24.5261 26.2873C24.5261 25.6888 25.4621 25.6941 25.6157 26.2936ZM23.1913 26.7001C23.1913 27.0845 23.0677 27.2422 22.7285 27.2915C22.4507 27.3317 22.2159 27.2269 22.1418 27.0293C21.9373 26.4852 22.2237 26.0356 22.7285 26.1088C23.0677 26.1581 23.1913 26.3158 23.1913 26.7001ZM1.1005 36.5392C-0.000174043 37.6632 0.418942 39.8525 1.82558 40.3266C2.38701 40.5157 2.66218 40.5082 3.09752 40.2916C3.94356 39.8705 3.95444 39.4895 3.11641 39.6283C2.62809 39.7093 2.31965 39.6413 2.08412 39.4008C1.29743 38.5975 1.49723 36.5554 2.36257 36.5554C2.6248 36.5554 2.84022 36.7219 2.9049 36.9748C3.04516 37.5225 3.78585 37.5367 3.78585 36.992C3.78585 36.1283 3.56469 35.9263 2.61864 35.9263C1.87795 35.9263 1.58492 36.0446 1.1005 36.5392ZM4.96661 36.1528C3.55647 36.9915 3.77414 39.8068 5.28839 40.3172C6.86486 40.8483 8.13453 39.5092 7.79694 37.6716C7.53594 36.2509 6.09849 35.4795 4.96661 36.1528ZM8.40621 38.128V40.3297H9.17627C9.5999 40.3297 9.94632 40.2354 9.94632 40.1201C9.94632 40.0047 9.85392 39.9104 9.74098 39.9104C9.62126 39.9104 9.53563 39.2155 9.53563 38.2453C9.53563 37.3293 9.62803 36.5218 9.74098 36.4505C10.179 36.1742 9.91203 35.9263 9.17627 35.9263H8.40621V38.128ZM10.357 36.1104C10.357 36.2262 10.4494 36.3793 10.5624 36.4505C10.6753 36.5218 10.7677 37.3293 10.7677 38.2453C10.7677 39.2155 10.6821 39.9104 10.5624 39.9104C10.4494 39.9104 10.357 40.0047 10.357 40.1201C10.357 40.2354 10.6804 40.3297 11.0757 40.3297C11.8121 40.3297 11.9608 40.1641 11.5768 39.772C11.4569 39.6495 11.3877 39.0882 11.4228 38.5243L11.4864 37.499L12.4105 38.91C13.0898 39.9475 13.457 40.3222 13.7966 40.3253C14.2416 40.3295 14.2587 40.2605 14.2587 38.4598C14.2587 37.4313 14.3147 36.4405 14.3833 36.2581C14.4827 35.9934 14.3583 35.9263 13.7673 35.9263C13.0099 35.9263 12.8576 36.0893 13.2451 36.4849C13.3652 36.6076 13.4346 37.122 13.3991 37.6277L13.3346 38.5474L12.5091 37.2893C11.8203 36.2396 11.5737 36.0203 11.0203 35.9655C10.6556 35.9293 10.357 35.9945 10.357 36.1104ZM14.8747 36.1236C14.8747 36.2323 14.9671 36.3793 15.0801 36.4505C15.193 36.5218 15.2854 37.3293 15.2854 38.2453C15.2854 39.2155 15.1998 39.9104 15.0801 39.9104C14.9671 39.9104 14.8747 40.0047 14.8747 40.1201C14.8747 40.2354 15.1981 40.3297 15.5934 40.3297C16.2645 40.3297 16.5836 40.0377 16.0945 39.8712C15.9655 39.8273 15.9027 39.3283 15.9405 38.6481L16.0041 37.499L16.9099 38.9144C17.4853 39.8133 17.9537 40.3297 18.1934 40.3297C18.5318 40.3297 18.571 40.1352 18.571 38.4549C18.571 37.4237 18.6634 36.5218 18.7763 36.4505C19.2041 36.1807 18.955 35.9263 18.263 35.9263C17.5266 35.9263 17.3779 36.092 17.7619 36.4841C17.8818 36.6066 17.951 37.1557 17.9159 37.7047L17.8523 38.7028L16.9877 37.3147C16.2323 36.1014 16.0444 35.9263 15.499 35.9263C15.1556 35.9263 14.8747 36.015 14.8747 36.1236ZM19.3924 36.1236C19.3924 36.2323 19.4848 36.3793 19.5977 36.4505C19.7107 36.5218 19.8031 37.3293 19.8031 38.2453C19.8031 39.2155 19.7175 39.9104 19.5977 39.9104C19.4848 39.9104 19.3924 40.0047 19.3924 40.1201C19.3924 40.2421 20.0688 40.3297 21.0112 40.3297C22.5164 40.3297 22.6388 40.2966 22.754 39.858C22.8219 39.5984 22.879 39.3153 22.8804 39.2289C22.886 38.9192 22.3521 39.0794 22.0069 39.491C21.8135 39.7217 21.4695 39.9104 21.2426 39.9104C20.9079 39.9104 20.8298 39.7718 20.8298 39.1765C20.8298 38.4577 21.2467 38.1536 21.5486 38.6523C21.8128 39.089 22.0619 38.8347 22.0619 38.128C22.0619 37.4214 21.8128 37.167 21.5486 37.6038C21.2703 38.0637 20.8298 37.8068 20.8298 37.1845C20.8298 36.6938 20.9208 36.5554 21.2434 36.5554C21.4707 36.5554 21.8362 36.6697 22.0554 36.8095C22.5457 37.1222 22.7599 36.9393 22.5802 36.3614C22.4593 35.9725 22.2831 35.9263 20.9187 35.9263C20.0793 35.9263 19.3924 36.015 19.3924 36.1236ZM22.8833 36.0941C22.8833 36.1863 22.9675 36.3516 23.0704 36.461C23.1733 36.5705 23.5092 37.4908 23.8166 38.5059C24.3066 40.1228 24.4296 40.3438 24.8103 40.2882C25.1249 40.2423 25.3241 39.9645 25.5321 39.2813C25.6902 38.7623 25.864 38.1962 25.9186 38.0232C25.973 37.8502 26.1936 38.2985 26.4086 39.0192C26.7121 40.036 26.8885 40.3297 27.1959 40.3297C27.6805 40.3297 27.8682 39.9842 28.3337 38.2329C28.5331 37.4833 28.8208 36.7206 28.973 36.5384C29.3344 36.1058 29.1344 35.9263 28.2908 35.9263C27.5799 35.9263 27.4441 36.0962 27.8351 36.4954C28.0035 36.6674 27.9939 37.0089 27.799 37.785C27.6532 38.3658 27.4737 38.803 27.4 38.7565C27.3263 38.7099 27.1429 38.1484 26.9926 37.5088C26.7564 36.5032 26.6533 36.3457 26.2324 36.3457C25.9644 36.3457 25.7077 36.4638 25.6617 36.6078C25.6155 36.7521 25.4506 37.3417 25.2949 37.9184L25.0118 38.9668L24.6744 37.8158C24.4586 37.0798 24.408 36.5921 24.5341 36.4633C24.9177 36.0716 24.721 35.9263 23.8074 35.9263C23.2992 35.9263 22.8833 36.0018 22.8833 36.0941ZM29.8689 36.3419C29.1171 37.1096 29.4346 37.9999 30.6934 38.6558C31.2419 38.9414 31.508 39.2203 31.508 39.5092C31.508 40.1213 30.4548 39.9827 30.1759 39.3337C29.8625 38.6044 29.4167 38.7376 29.4929 39.538C29.551 40.15 29.6395 40.2306 30.4287 40.3889C31.6306 40.6298 32.4103 40.2406 32.4945 39.3576C32.5586 38.6879 32.5561 38.6852 30.8919 37.3988C30.3958 37.015 30.3911 36.989 30.7519 36.6214C31.1127 36.2539 31.1408 36.2604 31.5811 36.8175C32.176 37.5703 32.3294 37.5449 32.3294 36.6936C32.3294 35.9978 32.3222 35.9926 31.3063 35.9559C30.5215 35.9276 30.1866 36.0175 29.8689 36.3419ZM33.0569 36.1216C32.9918 36.2289 33.0327 36.3759 33.1475 36.4485C33.4459 36.6368 33.4132 39.7682 33.1097 40.0781C32.9181 40.2738 33.1007 40.3297 33.9311 40.3297C34.5184 40.3297 34.9989 40.2354 34.9989 40.1201C34.9989 40.0047 34.8603 39.9104 34.6909 39.9104C34.5036 39.9104 34.3829 39.7152 34.3829 39.4124C34.3829 39.0205 34.5221 38.8858 35.0367 38.7808C35.9618 38.5919 36.4364 38.0792 36.4364 37.2687C36.4364 36.3149 35.8324 35.9263 34.3494 35.9263C33.7034 35.9263 33.1218 36.0142 33.0569 36.1216ZM37.4075 36.053C37.3286 36.1335 37.4032 36.3031 37.5728 36.4298C37.8445 36.6328 37.8284 36.8236 37.4389 38.0232C37.1955 38.7728 36.8705 39.535 36.7165 39.7173C36.2801 40.2331 36.3719 40.3297 37.2988 40.3297C37.9697 40.3297 38.1065 40.2738 37.9149 40.0781C37.4451 39.5984 37.642 39.2813 38.4094 39.2813C39.0973 39.2813 39.1412 39.3188 39.0215 39.8055L38.8928 40.3297H40.6832C42.0757 40.3297 42.4188 40.2738 42.2272 40.0781C42.0917 39.9397 41.9808 39.3038 41.9808 38.665V37.5034L42.9092 38.9167C43.5326 39.8655 43.971 40.3297 44.244 40.3297C44.6185 40.3297 44.6503 40.1834 44.6503 38.4549C44.6503 37.4111 44.743 36.5218 44.859 36.4485C45.2144 36.2241 44.8612 35.9263 44.2396 35.9263C43.645 35.9263 43.225 36.2451 43.6355 36.3847C43.7645 36.4285 43.8287 36.8907 43.7908 37.5034L43.7263 38.5474L43.231 37.7087C42.9587 37.2474 42.5498 36.6577 42.3225 36.3981C41.8966 35.9119 41.0756 35.7657 40.8514 36.136C40.7816 36.2513 40.8224 36.3457 40.9419 36.3457C41.1976 36.3457 41.2489 39.829 40.9955 39.989C40.6187 40.227 40.2807 39.6596 39.7505 37.898L39.1885 36.0312L38.3697 35.9689C37.9194 35.9347 37.4863 35.9725 37.4075 36.053ZM6.4482 36.7512C6.82153 37.4635 6.71167 39.3788 6.27448 39.7829C5.65514 40.3551 5.22329 39.7495 5.22329 38.309C5.22329 37.054 5.48265 36.3457 5.94202 36.3457C6.10342 36.3457 6.33115 36.5281 6.4482 36.7512ZM35.4096 37.1746C35.4096 37.8471 35.177 38.2329 34.7716 38.2329C34.4578 38.2329 34.3829 38.0779 34.3829 37.4292C34.3829 36.9869 34.4412 36.5657 34.5125 36.4929C34.7416 36.2589 35.4096 36.7665 35.4096 37.1746ZM38.8913 38.3901C38.8965 38.5344 38.6794 38.6523 38.409 38.6523C37.9332 38.6523 37.9245 38.6239 38.1383 37.764L38.3591 36.8756L38.6207 37.5019C38.7644 37.8462 38.8862 38.2461 38.8913 38.3901Z" fill="white"/>
</svg>
