<svg width="545" height="79" viewBox="0 0 545 79" fill="none" xmlns="http://www.w3.org/2000/svg">
<path d="M16.7692 1.88095V0H528.231V1.88095H16.7692Z" fill="#FFF8DC"/>
<path d="M16.7692 77.119V79H528.231V77.119H16.7692Z" fill="#FFF8DC"/>
<path d="M0 7.52381H5.58974V72.4167H0V7.52381Z" fill="#FFF8DC"/>
<path d="M5.58974 4.70238H11.1795V7.52381H5.58974V4.70238Z" fill="#FFF8DC"/>
<path d="M11.1795 1.88095H16.7692V4.70238H11.1795V1.88095Z" fill="#FFF8DC"/>
<path d="M0 71.4762H5.58974V6.58333H0V71.4762Z" fill="#FFF8DC"/>
<path d="M5.58974 74.2976H11.1795V71.4762H5.58974V74.2976Z" fill="#FFF8DC"/>
<path d="M11.1795 77.119H16.7692V74.2976H11.1795V77.119Z" fill="#FFF8DC"/>
<path d="M545 7.52381H539.41V72.4167H545V7.52381Z" fill="#FFF8DC"/>
<path d="M539.41 4.70238H533.82V7.52381H539.41V4.70238Z" fill="#FFF8DC"/>
<path d="M533.82 1.88095H528.231V4.70238H533.82V1.88095Z" fill="#FFF8DC"/>
<path d="M545 71.4762H539.41V6.58333H545V71.4762Z" fill="#FFF8DC"/>
<path d="M539.41 74.2976H533.82V71.4762H539.41V74.2976Z" fill="#FFF8DC"/>
<path d="M533.82 77.119H528.231V74.2976H533.82V77.119Z" fill="#FFF8DC"/>
</svg>
