<svg width="545" height="79" fill="none" xmlns="http://www.w3.org/2000/svg"><path d="M16.77 1.881V0H528.23v1.881H16.769ZM16.77 77.119V79H528.23v-1.881H16.769ZM0 7.524h5.59v64.893H0V7.524ZM5.59 4.702h5.59v2.822H5.59V4.702ZM11.18 1.881h5.59v2.821h-5.59V1.881Z" fill="#FFF8DC"/><path d="M0 71.476h5.59V6.583H0v64.893ZM5.59 74.298h5.59v-2.822H5.59v2.822ZM11.18 77.119h5.59v-2.821h-5.59v2.821ZM545 7.524h-5.59v64.893H545V7.524ZM539.41 4.702h-5.59v2.822h5.59V4.702ZM533.82 1.881h-5.589v2.821h5.589V1.881Z" fill="#FFF8DC"/><path d="M545 71.476h-5.59V6.583H545v64.893ZM539.41 74.298h-5.59v-2.822h5.59v2.822ZM533.82 77.119h-5.589v-2.821h5.589v2.821Z" fill="#FFF8DC"/></svg>