<svg width="459" height="349" viewBox="0 0 459 349" fill="none" xmlns="http://www.w3.org/2000/svg">
<rect y="25" width="45.0266" height="324" fill="#D32F34"/>
<path d="M9.496 16.256C8.728 16.256 7.94933 16.1707 7.16 16C6.37067 15.8293 5.67733 15.5787 5.08 15.248L6.36 12.464C6.84 12.7413 7.34133 12.9493 7.864 13.088C8.38667 13.216 8.88267 13.28 9.352 13.28C9.77867 13.28 10.1307 13.2053 10.408 13.056C10.6853 12.9067 10.824 12.688 10.824 12.4C10.824 12.24 10.776 12.1013 10.68 11.984C10.584 11.856 10.4133 11.76 10.168 11.696C9.93333 11.632 9.58667 11.6 9.128 11.6H5.88L6.44 4.8H13.88V7.648H7.768L9.672 6.032L9.336 10.368L7.432 8.752H10.04C11.1493 8.752 12.0347 8.912 12.696 9.232C13.368 9.552 13.8533 9.984 14.152 10.528C14.4613 11.0613 14.616 11.6587 14.616 12.32C14.616 12.9813 14.4347 13.616 14.072 14.224C13.72 14.8213 13.1653 15.312 12.408 15.696C11.6613 16.0693 10.6907 16.256 9.496 16.256ZM15.2761 16V13.68L19.3241 9.936C19.5801 9.69067 19.7668 9.47733 19.8841 9.296C20.0121 9.11467 20.0975 8.95467 20.1401 8.816C20.1828 8.66667 20.2041 8.528 20.2041 8.4C20.2041 8.12267 20.1135 7.90933 19.9321 7.76C19.7508 7.6 19.4788 7.52 19.1161 7.52C18.7855 7.52 18.4708 7.61067 18.1721 7.792C17.8735 7.96267 17.6388 8.21867 17.4681 8.56L14.6201 7.136C15.0255 6.368 15.6335 5.744 16.4441 5.264C17.2548 4.784 18.2628 4.544 19.4681 4.544C20.3535 4.544 21.1375 4.688 21.8201 4.976C22.5028 5.264 23.0361 5.66933 23.4201 6.192C23.8041 6.71467 23.9961 7.33333 23.9961 8.048C23.9961 8.41067 23.9481 8.77333 23.8521 9.136C23.7668 9.49867 23.5855 9.88267 23.3081 10.288C23.0308 10.6827 22.6201 11.1253 22.0761 11.616L19.0361 14.384L18.4441 13.072H24.2521V16H15.2761ZM26.8788 16L34.5268 4.8H37.2308L29.5828 16H26.8788ZM27.9508 10.88C27.3854 10.88 26.8788 10.7627 26.4308 10.528C25.9828 10.2827 25.6254 9.92533 25.3588 9.456C25.1028 8.98667 24.9748 8.42133 24.9748 7.76C24.9748 7.09867 25.1028 6.53867 25.3588 6.08C25.6254 5.61067 25.9828 5.25333 26.4308 5.008C26.8788 4.76267 27.3854 4.64 27.9508 4.64C28.5161 4.64 29.0228 4.76267 29.4708 5.008C29.9188 5.25333 30.2708 5.61067 30.5268 6.08C30.7934 6.53867 30.9268 7.09867 30.9268 7.76C30.9268 8.42133 30.7934 8.98667 30.5268 9.456C30.2708 9.92533 29.9188 10.2827 29.4708 10.528C29.0228 10.7627 28.5161 10.88 27.9508 10.88ZM27.9508 9.152C28.1321 9.152 28.2921 9.056 28.4308 8.864C28.5801 8.66133 28.6548 8.29333 28.6548 7.76C28.6548 7.22667 28.5801 6.864 28.4308 6.672C28.2921 6.46933 28.1321 6.368 27.9508 6.368C27.7801 6.368 27.6201 6.46933 27.4708 6.672C27.3214 6.864 27.2468 7.22667 27.2468 7.76C27.2468 8.29333 27.3214 8.66133 27.4708 8.864C27.6201 9.056 27.7801 9.152 27.9508 9.152ZM36.1588 16.16C35.5934 16.16 35.0868 16.0427 34.6388 15.808C34.1908 15.5627 33.8334 15.2053 33.5668 14.736C33.3108 14.2667 33.1828 13.7013 33.1828 13.04C33.1828 12.3787 33.3108 11.8187 33.5668 11.36C33.8334 10.8907 34.1908 10.5333 34.6388 10.288C35.0868 10.0427 35.5934 9.92 36.1588 9.92C36.7241 9.92 37.2308 10.0427 37.6788 10.288C38.1268 10.5333 38.4788 10.8907 38.7348 11.36C39.0014 11.8187 39.1348 12.3787 39.1348 13.04C39.1348 13.7013 39.0014 14.2667 38.7348 14.736C38.4788 15.2053 38.1268 15.5627 37.6788 15.808C37.2308 16.0427 36.7241 16.16 36.1588 16.16ZM36.1588 14.432C36.3401 14.432 36.5001 14.336 36.6388 14.144C36.7881 13.9413 36.8628 13.5733 36.8628 13.04C36.8628 12.5067 36.7881 12.144 36.6388 11.952C36.5001 11.7493 36.3401 11.648 36.1588 11.648C35.9881 11.648 35.8281 11.7493 35.6788 11.952C35.5294 12.144 35.4548 12.5067 35.4548 13.04C35.4548 13.5733 35.5294 13.9413 35.6788 14.144C35.8281 14.336 35.9881 14.432 36.1588 14.432Z" fill="white"/>
<rect x="51.1947" y="276" width="45.0266" height="73" fill="#282832"/>
<path d="M58 263V253.112L59.616 254.648H56.08V251.8H61.776V263H58ZM68.2235 263.256C67.2315 263.256 66.3515 263.027 65.5835 262.568C64.8262 262.109 64.2288 261.443 63.7915 260.568C63.3648 259.693 63.1515 258.637 63.1515 257.4C63.1515 256.163 63.3648 255.107 63.7915 254.232C64.2288 253.357 64.8262 252.691 65.5835 252.232C66.3515 251.773 67.2315 251.544 68.2235 251.544C69.2155 251.544 70.0902 251.773 70.8475 252.232C71.6155 252.691 72.2128 253.357 72.6395 254.232C73.0768 255.107 73.2955 256.163 73.2955 257.4C73.2955 258.637 73.0768 259.693 72.6395 260.568C72.2128 261.443 71.6155 262.109 70.8475 262.568C70.0902 263.027 69.2155 263.256 68.2235 263.256ZM68.2235 260.232C68.4688 260.232 68.6875 260.147 68.8795 259.976C69.0715 259.805 69.2208 259.512 69.3275 259.096C69.4448 258.68 69.5035 258.115 69.5035 257.4C69.5035 256.675 69.4448 256.109 69.3275 255.704C69.2208 255.288 69.0715 254.995 68.8795 254.824C68.6875 254.653 68.4688 254.568 68.2235 254.568C67.9782 254.568 67.7595 254.653 67.5675 254.824C67.3755 254.995 67.2208 255.288 67.1035 255.704C66.9968 256.109 66.9435 256.675 66.9435 257.4C66.9435 258.115 66.9968 258.68 67.1035 259.096C67.2208 259.512 67.3755 259.805 67.5675 259.976C67.7595 260.147 67.9782 260.232 68.2235 260.232ZM75.9256 263L83.5736 251.8H86.2776L78.6296 263H75.9256ZM76.9976 257.88C76.4323 257.88 75.9256 257.763 75.4776 257.528C75.0296 257.283 74.6723 256.925 74.4056 256.456C74.1496 255.987 74.0216 255.421 74.0216 254.76C74.0216 254.099 74.1496 253.539 74.4056 253.08C74.6723 252.611 75.0296 252.253 75.4776 252.008C75.9256 251.763 76.4323 251.64 76.9976 251.64C77.563 251.64 78.0696 251.763 78.5176 252.008C78.9656 252.253 79.3176 252.611 79.5736 253.08C79.8403 253.539 79.9736 254.099 79.9736 254.76C79.9736 255.421 79.8403 255.987 79.5736 256.456C79.3176 256.925 78.9656 257.283 78.5176 257.528C78.0696 257.763 77.563 257.88 76.9976 257.88ZM76.9976 256.152C77.179 256.152 77.339 256.056 77.4776 255.864C77.627 255.661 77.7016 255.293 77.7016 254.76C77.7016 254.227 77.627 253.864 77.4776 253.672C77.339 253.469 77.179 253.368 76.9976 253.368C76.827 253.368 76.667 253.469 76.5176 253.672C76.3683 253.864 76.2936 254.227 76.2936 254.76C76.2936 255.293 76.3683 255.661 76.5176 255.864C76.667 256.056 76.827 256.152 76.9976 256.152ZM85.2056 263.16C84.6403 263.16 84.1336 263.043 83.6856 262.808C83.2376 262.563 82.8803 262.205 82.6136 261.736C82.3576 261.267 82.2296 260.701 82.2296 260.04C82.2296 259.379 82.3576 258.819 82.6136 258.36C82.8803 257.891 83.2376 257.533 83.6856 257.288C84.1336 257.043 84.6403 256.92 85.2056 256.92C85.771 256.92 86.2776 257.043 86.7256 257.288C87.1736 257.533 87.5256 257.891 87.7816 258.36C88.0483 258.819 88.1816 259.379 88.1816 260.04C88.1816 260.701 88.0483 261.267 87.7816 261.736C87.5256 262.205 87.1736 262.563 86.7256 262.808C86.2776 263.043 85.771 263.16 85.2056 263.16ZM85.2056 261.432C85.387 261.432 85.547 261.336 85.6856 261.144C85.835 260.941 85.9096 260.573 85.9096 260.04C85.9096 259.507 85.835 259.144 85.6856 258.952C85.547 258.749 85.387 258.648 85.2056 258.648C85.035 258.648 84.875 258.749 84.7256 258.952C84.5763 259.144 84.5016 259.507 84.5016 260.04C84.5016 260.573 84.5763 260.941 84.7256 261.144C84.875 261.336 85.035 261.432 85.2056 261.432Z" fill="white"/>
<rect x="160.779" y="307" width="45.0266" height="42" fill="#D44B5C"/>
<path d="M175.496 295.256C174.728 295.256 173.949 295.171 173.16 295C172.371 294.829 171.677 294.579 171.08 294.248L172.36 291.464C172.84 291.741 173.341 291.949 173.864 292.088C174.387 292.216 174.883 292.28 175.352 292.28C175.779 292.28 176.131 292.205 176.408 292.056C176.685 291.907 176.824 291.688 176.824 291.4C176.824 291.24 176.776 291.101 176.68 290.984C176.584 290.856 176.413 290.76 176.168 290.696C175.933 290.632 175.587 290.6 175.128 290.6H171.88L172.44 283.8H179.88V286.648H173.768L175.672 285.032L175.336 289.368L173.432 287.752H176.04C177.149 287.752 178.035 287.912 178.696 288.232C179.368 288.552 179.853 288.984 180.152 289.528C180.461 290.061 180.616 290.659 180.616 291.32C180.616 291.981 180.435 292.616 180.072 293.224C179.72 293.821 179.165 294.312 178.408 294.696C177.661 295.069 176.691 295.256 175.496 295.256ZM182.91 295L190.558 283.8H193.262L185.614 295H182.91ZM183.982 289.88C183.417 289.88 182.91 289.763 182.462 289.528C182.014 289.283 181.657 288.925 181.39 288.456C181.134 287.987 181.006 287.421 181.006 286.76C181.006 286.099 181.134 285.539 181.39 285.08C181.657 284.611 182.014 284.253 182.462 284.008C182.91 283.763 183.417 283.64 183.982 283.64C184.547 283.64 185.054 283.763 185.502 284.008C185.95 284.253 186.302 284.611 186.558 285.08C186.825 285.539 186.958 286.099 186.958 286.76C186.958 287.421 186.825 287.987 186.558 288.456C186.302 288.925 185.95 289.283 185.502 289.528C185.054 289.763 184.547 289.88 183.982 289.88ZM183.982 288.152C184.163 288.152 184.323 288.056 184.462 287.864C184.611 287.661 184.686 287.293 184.686 286.76C184.686 286.227 184.611 285.864 184.462 285.672C184.323 285.469 184.163 285.368 183.982 285.368C183.811 285.368 183.651 285.469 183.502 285.672C183.353 285.864 183.278 286.227 183.278 286.76C183.278 287.293 183.353 287.661 183.502 287.864C183.651 288.056 183.811 288.152 183.982 288.152ZM192.19 295.16C191.625 295.16 191.118 295.043 190.67 294.808C190.222 294.563 189.865 294.205 189.598 293.736C189.342 293.267 189.214 292.701 189.214 292.04C189.214 291.379 189.342 290.819 189.598 290.36C189.865 289.891 190.222 289.533 190.67 289.288C191.118 289.043 191.625 288.92 192.19 288.92C192.755 288.92 193.262 289.043 193.71 289.288C194.158 289.533 194.51 289.891 194.766 290.36C195.033 290.819 195.166 291.379 195.166 292.04C195.166 292.701 195.033 293.267 194.766 293.736C194.51 294.205 194.158 294.563 193.71 294.808C193.262 295.043 192.755 295.16 192.19 295.16ZM192.19 293.432C192.371 293.432 192.531 293.336 192.67 293.144C192.819 292.941 192.894 292.573 192.894 292.04C192.894 291.507 192.819 291.144 192.67 290.952C192.531 290.749 192.371 290.648 192.19 290.648C192.019 290.648 191.859 290.749 191.71 290.952C191.561 291.144 191.486 291.507 191.486 292.04C191.486 292.573 191.561 292.941 191.71 293.144C191.859 293.336 192.019 293.432 192.19 293.432Z" fill="white"/>
<rect x="211.973" y="307" width="45.0266" height="42" fill="#5180D0"/>
<path d="M223.496 299.256C222.728 299.256 221.949 299.171 221.16 299C220.371 298.829 219.677 298.579 219.08 298.248L220.36 295.464C220.84 295.741 221.341 295.949 221.864 296.088C222.387 296.216 222.883 296.28 223.352 296.28C223.779 296.28 224.131 296.205 224.408 296.056C224.685 295.907 224.824 295.688 224.824 295.4C224.824 295.24 224.776 295.101 224.68 294.984C224.584 294.856 224.413 294.76 224.168 294.696C223.933 294.632 223.587 294.6 223.128 294.6H219.88L220.44 287.8H227.88V290.648H221.768L223.672 289.032L223.336 293.368L221.432 291.752H224.04C225.149 291.752 226.035 291.912 226.696 292.232C227.368 292.552 227.853 292.984 228.152 293.528C228.461 294.061 228.616 294.659 228.616 295.32C228.616 295.981 228.435 296.616 228.072 297.224C227.72 297.821 227.165 298.312 226.408 298.696C225.661 299.069 224.691 299.256 223.496 299.256ZM230.91 299L238.558 287.8H241.262L233.614 299H230.91ZM231.982 293.88C231.417 293.88 230.91 293.763 230.462 293.528C230.014 293.283 229.657 292.925 229.39 292.456C229.134 291.987 229.006 291.421 229.006 290.76C229.006 290.099 229.134 289.539 229.39 289.08C229.657 288.611 230.014 288.253 230.462 288.008C230.91 287.763 231.417 287.64 231.982 287.64C232.547 287.64 233.054 287.763 233.502 288.008C233.95 288.253 234.302 288.611 234.558 289.08C234.825 289.539 234.958 290.099 234.958 290.76C234.958 291.421 234.825 291.987 234.558 292.456C234.302 292.925 233.95 293.283 233.502 293.528C233.054 293.763 232.547 293.88 231.982 293.88ZM231.982 292.152C232.163 292.152 232.323 292.056 232.462 291.864C232.611 291.661 232.686 291.293 232.686 290.76C232.686 290.227 232.611 289.864 232.462 289.672C232.323 289.469 232.163 289.368 231.982 289.368C231.811 289.368 231.651 289.469 231.502 289.672C231.353 289.864 231.278 290.227 231.278 290.76C231.278 291.293 231.353 291.661 231.502 291.864C231.651 292.056 231.811 292.152 231.982 292.152ZM240.19 299.16C239.625 299.16 239.118 299.043 238.67 298.808C238.222 298.563 237.865 298.205 237.598 297.736C237.342 297.267 237.214 296.701 237.214 296.04C237.214 295.379 237.342 294.819 237.598 294.36C237.865 293.891 238.222 293.533 238.67 293.288C239.118 293.043 239.625 292.92 240.19 292.92C240.755 292.92 241.262 293.043 241.71 293.288C242.158 293.533 242.51 293.891 242.766 294.36C243.033 294.819 243.166 295.379 243.166 296.04C243.166 296.701 243.033 297.267 242.766 297.736C242.51 298.205 242.158 298.563 241.71 298.808C241.262 299.043 240.755 299.16 240.19 299.16ZM240.19 297.432C240.371 297.432 240.531 297.336 240.67 297.144C240.819 296.941 240.894 296.573 240.894 296.04C240.894 295.507 240.819 295.144 240.67 294.952C240.531 294.749 240.371 294.648 240.19 294.648C240.019 294.648 239.859 294.749 239.71 294.952C239.561 295.144 239.486 295.507 239.486 296.04C239.486 296.573 239.561 296.941 239.71 297.144C239.859 297.336 240.019 297.432 240.19 297.432Z" fill="white"/>
<rect x="314" y="325" width="45" height="24" fill="#5D5D6F"/>
<path d="M323.448 318V315.68L327.496 311.936C327.752 311.691 327.939 311.477 328.056 311.296C328.184 311.115 328.269 310.955 328.312 310.816C328.355 310.667 328.376 310.528 328.376 310.4C328.376 310.123 328.285 309.909 328.104 309.76C327.923 309.6 327.651 309.52 327.288 309.52C326.957 309.52 326.643 309.611 326.344 309.792C326.045 309.963 325.811 310.219 325.64 310.56L322.792 309.136C323.197 308.368 323.805 307.744 324.616 307.264C325.427 306.784 326.435 306.544 327.64 306.544C328.525 306.544 329.309 306.688 329.992 306.976C330.675 307.264 331.208 307.669 331.592 308.192C331.976 308.715 332.168 309.333 332.168 310.048C332.168 310.411 332.12 310.773 332.024 311.136C331.939 311.499 331.757 311.883 331.48 312.288C331.203 312.683 330.792 313.125 330.248 313.616L327.208 316.384L326.616 315.072H332.424V318H323.448ZM335.051 318L342.699 306.8H345.403L337.755 318H335.051ZM336.123 312.88C335.557 312.88 335.051 312.763 334.603 312.528C334.155 312.283 333.797 311.925 333.531 311.456C333.275 310.987 333.147 310.421 333.147 309.76C333.147 309.099 333.275 308.539 333.531 308.08C333.797 307.611 334.155 307.253 334.603 307.008C335.051 306.763 335.557 306.64 336.123 306.64C336.688 306.64 337.195 306.763 337.643 307.008C338.091 307.253 338.443 307.611 338.699 308.08C338.965 308.539 339.099 309.099 339.099 309.76C339.099 310.421 338.965 310.987 338.699 311.456C338.443 311.925 338.091 312.283 337.643 312.528C337.195 312.763 336.688 312.88 336.123 312.88ZM336.123 311.152C336.304 311.152 336.464 311.056 336.603 310.864C336.752 310.661 336.827 310.293 336.827 309.76C336.827 309.227 336.752 308.864 336.603 308.672C336.464 308.469 336.304 308.368 336.123 308.368C335.952 308.368 335.792 308.469 335.643 308.672C335.493 308.864 335.419 309.227 335.419 309.76C335.419 310.293 335.493 310.661 335.643 310.864C335.792 311.056 335.952 311.152 336.123 311.152ZM344.331 318.16C343.765 318.16 343.259 318.043 342.811 317.808C342.363 317.563 342.005 317.205 341.739 316.736C341.483 316.267 341.355 315.701 341.355 315.04C341.355 314.379 341.483 313.819 341.739 313.36C342.005 312.891 342.363 312.533 342.811 312.288C343.259 312.043 343.765 311.92 344.331 311.92C344.896 311.92 345.403 312.043 345.851 312.288C346.299 312.533 346.651 312.891 346.907 313.36C347.173 313.819 347.307 314.379 347.307 315.04C347.307 315.701 347.173 316.267 346.907 316.736C346.651 317.205 346.299 317.563 345.851 317.808C345.403 318.043 344.896 318.16 344.331 318.16ZM344.331 316.432C344.512 316.432 344.672 316.336 344.811 316.144C344.96 315.941 345.035 315.573 345.035 315.04C345.035 314.507 344.96 314.144 344.811 313.952C344.672 313.749 344.512 313.648 344.331 313.648C344.16 313.648 344 313.749 343.851 313.952C343.701 314.144 343.627 314.507 343.627 315.04C343.627 315.573 343.701 315.941 343.851 316.144C344 316.336 344.16 316.432 344.331 316.432Z" fill="white"/>
<rect x="364" y="345" width="45" height="4" fill="#D5B844"/>
<path d="M370.536 339.256C369.544 339.256 368.664 339.027 367.896 338.568C367.139 338.109 366.541 337.443 366.104 336.568C365.677 335.693 365.464 334.637 365.464 333.4C365.464 332.163 365.677 331.107 366.104 330.232C366.541 329.357 367.139 328.691 367.896 328.232C368.664 327.773 369.544 327.544 370.536 327.544C371.528 327.544 372.403 327.773 373.16 328.232C373.928 328.691 374.525 329.357 374.952 330.232C375.389 331.107 375.608 332.163 375.608 333.4C375.608 334.637 375.389 335.693 374.952 336.568C374.525 337.443 373.928 338.109 373.16 338.568C372.403 339.027 371.528 339.256 370.536 339.256ZM370.536 336.232C370.781 336.232 371 336.147 371.192 335.976C371.384 335.805 371.533 335.512 371.64 335.096C371.757 334.68 371.816 334.115 371.816 333.4C371.816 332.675 371.757 332.109 371.64 331.704C371.533 331.288 371.384 330.995 371.192 330.824C371 330.653 370.781 330.568 370.536 330.568C370.291 330.568 370.072 330.653 369.88 330.824C369.688 330.995 369.533 331.288 369.416 331.704C369.309 332.109 369.256 332.675 369.256 333.4C369.256 334.115 369.309 334.68 369.416 335.096C369.533 335.512 369.688 335.805 369.88 335.976C370.072 336.147 370.291 336.232 370.536 336.232ZM378.276 339.16C377.678 339.16 377.177 338.968 376.772 338.584C376.366 338.189 376.164 337.688 376.164 337.08C376.164 336.461 376.366 335.965 376.772 335.592C377.177 335.219 377.678 335.032 378.276 335.032C378.873 335.032 379.374 335.219 379.78 335.592C380.185 335.965 380.388 336.461 380.388 337.08C380.388 337.688 380.185 338.189 379.78 338.584C379.374 338.968 378.873 339.16 378.276 339.16ZM381.243 337.08V334.68L385.995 327.8H389.867L385.291 334.68L383.531 334.152H392.203V337.08H381.243ZM387.051 339V337.08L387.163 334.152V332.44H390.715V339H387.051ZM393.941 339L401.589 327.8H404.293L396.645 339H393.941ZM395.013 333.88C394.448 333.88 393.941 333.763 393.493 333.528C393.045 333.283 392.688 332.925 392.421 332.456C392.165 331.987 392.037 331.421 392.037 330.76C392.037 330.099 392.165 329.539 392.421 329.08C392.688 328.611 393.045 328.253 393.493 328.008C393.941 327.763 394.448 327.64 395.013 327.64C395.579 327.64 396.085 327.763 396.533 328.008C396.981 328.253 397.333 328.611 397.589 329.08C397.856 329.539 397.989 330.099 397.989 330.76C397.989 331.421 397.856 331.987 397.589 332.456C397.333 332.925 396.981 333.283 396.533 333.528C396.085 333.763 395.579 333.88 395.013 333.88ZM395.013 332.152C395.195 332.152 395.355 332.056 395.493 331.864C395.643 331.661 395.717 331.293 395.717 330.76C395.717 330.227 395.643 329.864 395.493 329.672C395.355 329.469 395.195 329.368 395.013 329.368C394.843 329.368 394.683 329.469 394.533 329.672C394.384 329.864 394.309 330.227 394.309 330.76C394.309 331.293 394.384 331.661 394.533 331.864C394.683 332.056 394.843 332.152 395.013 332.152ZM403.221 339.16C402.656 339.16 402.149 339.043 401.701 338.808C401.253 338.563 400.896 338.205 400.629 337.736C400.373 337.267 400.245 336.701 400.245 336.04C400.245 335.379 400.373 334.819 400.629 334.36C400.896 333.891 401.253 333.533 401.701 333.288C402.149 333.043 402.656 332.92 403.221 332.92C403.787 332.92 404.293 333.043 404.741 333.288C405.189 333.533 405.541 333.891 405.797 334.36C406.064 334.819 406.197 335.379 406.197 336.04C406.197 336.701 406.064 337.267 405.797 337.736C405.541 338.205 405.189 338.563 404.741 338.808C404.293 339.043 403.787 339.16 403.221 339.16ZM403.221 337.432C403.403 337.432 403.563 337.336 403.701 337.144C403.851 336.941 403.925 336.573 403.925 336.04C403.925 335.507 403.851 335.144 403.701 334.952C403.563 334.749 403.403 334.648 403.221 334.648C403.051 334.648 402.891 334.749 402.741 334.952C402.592 335.144 402.517 335.507 402.517 336.04C402.517 336.573 402.592 336.941 402.741 337.144C402.891 337.336 403.051 337.432 403.221 337.432Z" fill="white"/>
<rect x="414" y="335" width="45" height="14" fill="#81202C"/>
<path d="M419 329V319.112L420.616 320.648H417.08V317.8H422.776V329H419ZM426.12 329.16C425.522 329.16 425.021 328.968 424.616 328.584C424.21 328.189 424.008 327.688 424.008 327.08C424.008 326.461 424.21 325.965 424.616 325.592C425.021 325.219 425.522 325.032 426.12 325.032C426.717 325.032 427.218 325.219 427.624 325.592C428.029 325.965 428.232 326.461 428.232 327.08C428.232 327.688 428.029 328.189 427.624 328.584C427.218 328.968 426.717 329.16 426.12 329.16ZM434.153 329.256C433.086 329.256 432.147 329.053 431.337 328.648C430.537 328.232 429.907 327.619 429.449 326.808C429.001 325.987 428.777 324.968 428.777 323.752C428.777 322.44 429.038 321.325 429.561 320.408C430.083 319.48 430.809 318.771 431.737 318.28C432.675 317.789 433.758 317.544 434.985 317.544C435.646 317.544 436.281 317.624 436.889 317.784C437.507 317.933 438.03 318.147 438.457 318.424L437.097 321.064C436.766 320.829 436.43 320.675 436.089 320.6C435.758 320.515 435.417 320.472 435.065 320.472C434.307 320.472 433.699 320.701 433.241 321.16C432.793 321.608 432.569 322.264 432.569 323.128C432.569 323.288 432.569 323.448 432.569 323.608C432.569 323.757 432.569 323.912 432.569 324.072L431.705 323.448C431.918 323.085 432.169 322.781 432.457 322.536C432.745 322.28 433.086 322.088 433.481 321.96C433.875 321.821 434.334 321.752 434.857 321.752C435.539 321.752 436.169 321.901 436.745 322.2C437.331 322.488 437.801 322.899 438.153 323.432C438.515 323.965 438.697 324.6 438.697 325.336C438.697 326.136 438.494 326.829 438.089 327.416C437.683 328.003 437.134 328.456 436.441 328.776C435.758 329.096 434.995 329.256 434.153 329.256ZM433.897 326.648C434.121 326.648 434.318 326.605 434.489 326.52C434.67 326.424 434.809 326.291 434.905 326.12C435.001 325.949 435.049 325.747 435.049 325.512C435.049 325.16 434.942 324.883 434.729 324.68C434.515 324.467 434.238 324.36 433.897 324.36C433.673 324.36 433.475 324.408 433.305 324.504C433.134 324.6 432.995 324.733 432.889 324.904C432.793 325.075 432.745 325.277 432.745 325.512C432.745 325.747 432.793 325.949 432.889 326.12C432.995 326.291 433.134 326.424 433.305 326.52C433.475 326.605 433.673 326.648 433.897 326.648ZM440.738 329L448.386 317.8H451.09L443.442 329H440.738ZM441.81 323.88C441.245 323.88 440.738 323.763 440.29 323.528C439.842 323.283 439.485 322.925 439.218 322.456C438.962 321.987 438.834 321.421 438.834 320.76C438.834 320.099 438.962 319.539 439.218 319.08C439.485 318.611 439.842 318.253 440.29 318.008C440.738 317.763 441.245 317.64 441.81 317.64C442.375 317.64 442.882 317.763 443.33 318.008C443.778 318.253 444.13 318.611 444.386 319.08C444.653 319.539 444.786 320.099 444.786 320.76C444.786 321.421 444.653 321.987 444.386 322.456C444.13 322.925 443.778 323.283 443.33 323.528C442.882 323.763 442.375 323.88 441.81 323.88ZM441.81 322.152C441.991 322.152 442.151 322.056 442.29 321.864C442.439 321.661 442.514 321.293 442.514 320.76C442.514 320.227 442.439 319.864 442.29 319.672C442.151 319.469 441.991 319.368 441.81 319.368C441.639 319.368 441.479 319.469 441.33 319.672C441.181 319.864 441.106 320.227 441.106 320.76C441.106 321.293 441.181 321.661 441.33 321.864C441.479 322.056 441.639 322.152 441.81 322.152ZM450.018 329.16C449.453 329.16 448.946 329.043 448.498 328.808C448.05 328.563 447.693 328.205 447.426 327.736C447.17 327.267 447.042 326.701 447.042 326.04C447.042 325.379 447.17 324.819 447.426 324.36C447.693 323.891 448.05 323.533 448.498 323.288C448.946 323.043 449.453 322.92 450.018 322.92C450.583 322.92 451.09 323.043 451.538 323.288C451.986 323.533 452.338 323.891 452.594 324.36C452.861 324.819 452.994 325.379 452.994 326.04C452.994 326.701 452.861 327.267 452.594 327.736C452.338 328.205 451.986 328.563 451.538 328.808C451.09 329.043 450.583 329.16 450.018 329.16ZM450.018 327.432C450.199 327.432 450.359 327.336 450.498 327.144C450.647 326.941 450.722 326.573 450.722 326.04C450.722 325.507 450.647 325.144 450.498 324.952C450.359 324.749 450.199 324.648 450.018 324.648C449.847 324.648 449.687 324.749 449.538 324.952C449.389 325.144 449.314 325.507 449.314 326.04C449.314 326.573 449.389 326.941 449.538 327.144C449.687 327.336 449.847 327.432 450.018 327.432Z" fill="white"/>
<rect x="109.584" y="276" width="45.0266" height="73" fill="#FFF8DC"/>
<path d="M120 269V259.112L121.616 260.648H118.08V257.8H123.776V269H120ZM130.224 269.256C129.232 269.256 128.352 269.027 127.584 268.568C126.826 268.109 126.229 267.443 125.792 266.568C125.365 265.693 125.152 264.637 125.152 263.4C125.152 262.163 125.365 261.107 125.792 260.232C126.229 259.357 126.826 258.691 127.584 258.232C128.352 257.773 129.232 257.544 130.224 257.544C131.216 257.544 132.09 257.773 132.848 258.232C133.616 258.691 134.213 259.357 134.64 260.232C135.077 261.107 135.296 262.163 135.296 263.4C135.296 264.637 135.077 265.693 134.64 266.568C134.213 267.443 133.616 268.109 132.848 268.568C132.09 269.027 131.216 269.256 130.224 269.256ZM130.224 266.232C130.469 266.232 130.688 266.147 130.88 265.976C131.072 265.805 131.221 265.512 131.328 265.096C131.445 264.68 131.504 264.115 131.504 263.4C131.504 262.675 131.445 262.109 131.328 261.704C131.221 261.288 131.072 260.995 130.88 260.824C130.688 260.653 130.469 260.568 130.224 260.568C129.978 260.568 129.76 260.653 129.568 260.824C129.376 260.995 129.221 261.288 129.104 261.704C128.997 262.109 128.944 262.675 128.944 263.4C128.944 264.115 128.997 264.68 129.104 265.096C129.221 265.512 129.376 265.805 129.568 265.976C129.76 266.147 129.978 266.232 130.224 266.232ZM137.926 269L145.574 257.8H148.278L140.63 269H137.926ZM138.998 263.88C138.432 263.88 137.926 263.763 137.478 263.528C137.03 263.283 136.672 262.925 136.406 262.456C136.15 261.987 136.022 261.421 136.022 260.76C136.022 260.099 136.15 259.539 136.406 259.08C136.672 258.611 137.03 258.253 137.478 258.008C137.926 257.763 138.432 257.64 138.998 257.64C139.563 257.64 140.07 257.763 140.518 258.008C140.966 258.253 141.318 258.611 141.574 259.08C141.84 259.539 141.974 260.099 141.974 260.76C141.974 261.421 141.84 261.987 141.574 262.456C141.318 262.925 140.966 263.283 140.518 263.528C140.07 263.763 139.563 263.88 138.998 263.88ZM138.998 262.152C139.179 262.152 139.339 262.056 139.478 261.864C139.627 261.661 139.702 261.293 139.702 260.76C139.702 260.227 139.627 259.864 139.478 259.672C139.339 259.469 139.179 259.368 138.998 259.368C138.827 259.368 138.667 259.469 138.518 259.672C138.368 259.864 138.294 260.227 138.294 260.76C138.294 261.293 138.368 261.661 138.518 261.864C138.667 262.056 138.827 262.152 138.998 262.152ZM147.206 269.16C146.64 269.16 146.134 269.043 145.686 268.808C145.238 268.563 144.88 268.205 144.614 267.736C144.358 267.267 144.23 266.701 144.23 266.04C144.23 265.379 144.358 264.819 144.614 264.36C144.88 263.891 145.238 263.533 145.686 263.288C146.134 263.043 146.64 262.92 147.206 262.92C147.771 262.92 148.278 263.043 148.726 263.288C149.174 263.533 149.526 263.891 149.782 264.36C150.048 264.819 150.182 265.379 150.182 266.04C150.182 266.701 150.048 267.267 149.782 267.736C149.526 268.205 149.174 268.563 148.726 268.808C148.278 269.043 147.771 269.16 147.206 269.16ZM147.206 267.432C147.387 267.432 147.547 267.336 147.686 267.144C147.835 266.941 147.91 266.573 147.91 266.04C147.91 265.507 147.835 265.144 147.686 264.952C147.547 264.749 147.387 264.648 147.206 264.648C147.035 264.648 146.875 264.749 146.726 264.952C146.576 265.144 146.502 265.507 146.502 266.04C146.502 266.573 146.576 266.941 146.726 267.144C146.875 267.336 147.035 267.432 147.206 267.432Z" fill="white"/>
<rect x="263" y="250" width="45" height="99" fill="#2F314B"/>
<path d="M271 243V233.112L272.616 234.648H269.08V231.8H274.776V243H271ZM276.056 241.08V238.68L280.808 231.8H284.68L280.104 238.68L278.344 238.152H287.016V241.08H276.056ZM281.864 243V241.08L281.976 238.152V236.44H285.528V243H281.864ZM288.754 243L296.402 231.8H299.106L291.458 243H288.754ZM289.826 237.88C289.26 237.88 288.754 237.763 288.306 237.528C287.858 237.283 287.5 236.925 287.234 236.456C286.978 235.987 286.85 235.421 286.85 234.76C286.85 234.099 286.978 233.539 287.234 233.08C287.5 232.611 287.858 232.253 288.306 232.008C288.754 231.763 289.26 231.64 289.826 231.64C290.391 231.64 290.898 231.763 291.346 232.008C291.794 232.253 292.146 232.611 292.402 233.08C292.668 233.539 292.802 234.099 292.802 234.76C292.802 235.421 292.668 235.987 292.402 236.456C292.146 236.925 291.794 237.283 291.346 237.528C290.898 237.763 290.391 237.88 289.826 237.88ZM289.826 236.152C290.007 236.152 290.167 236.056 290.306 235.864C290.455 235.661 290.53 235.293 290.53 234.76C290.53 234.227 290.455 233.864 290.306 233.672C290.167 233.469 290.007 233.368 289.826 233.368C289.655 233.368 289.495 233.469 289.346 233.672C289.196 233.864 289.122 234.227 289.122 234.76C289.122 235.293 289.196 235.661 289.346 235.864C289.495 236.056 289.655 236.152 289.826 236.152ZM298.034 243.16C297.468 243.16 296.962 243.043 296.514 242.808C296.066 242.563 295.708 242.205 295.442 241.736C295.186 241.267 295.058 240.701 295.058 240.04C295.058 239.379 295.186 238.819 295.442 238.36C295.708 237.891 296.066 237.533 296.514 237.288C296.962 237.043 297.468 236.92 298.034 236.92C298.599 236.92 299.106 237.043 299.554 237.288C300.002 237.533 300.354 237.891 300.61 238.36C300.876 238.819 301.01 239.379 301.01 240.04C301.01 240.701 300.876 241.267 300.61 241.736C300.354 242.205 300.002 242.563 299.554 242.808C299.106 243.043 298.599 243.16 298.034 243.16ZM298.034 241.432C298.215 241.432 298.375 241.336 298.514 241.144C298.663 240.941 298.738 240.573 298.738 240.04C298.738 239.507 298.663 239.144 298.514 238.952C298.375 238.749 298.215 238.648 298.034 238.648C297.863 238.648 297.703 238.749 297.554 238.952C297.404 239.144 297.33 239.507 297.33 240.04C297.33 240.573 297.404 240.941 297.554 241.144C297.703 241.336 297.863 241.432 298.034 241.432Z" fill="white"/>
</svg>
