<svg width="658" height="388" viewBox="0 0 658 388" fill="none" xmlns="http://www.w3.org/2000/svg">
<path d="M20.2462 4.93493V0H327.652H637.754V4.93493H20.2462Z" fill="#FFF8DC"/>
<path d="M20.2462 382.564V388H328.326H637.754V382.564H20.2462Z" fill="#FFF8DC"/>
<path d="M0 33.2571H6.74872V358.963H0V33.2571Z" fill="#FFF8DC"/>
<path d="M6.74872 19.096H13.4974V33.2571H6.74872V19.096Z" fill="#FFF8DC"/>
<path d="M13.4974 4.93493H20.2462V19.096H13.4974V4.93493Z" fill="#FFF8DC"/>
<path d="M0 354.242H6.74872V28.5368H0V354.242Z" fill="#FFF8DC"/>
<path d="M6.74872 368.403H13.4974V354.242H6.74872V368.403Z" fill="#FFF8DC"/>
<path d="M13.4974 382.564H20.2462V368.403H13.4974V382.564Z" fill="#FFF8DC"/>
<path d="M658 33.2571H651.251V358.963H658V33.2571Z" fill="#FFF8DC"/>
<path d="M651.251 19.096H644.503V33.2571H651.251V19.096Z" fill="#FFF8DC"/>
<path d="M644.503 4.93493H637.754V19.096H644.503V4.93493Z" fill="#FFF8DC"/>
<path d="M658 354.242H651.251V28.5368H658V354.242Z" fill="#FFF8DC"/>
<path d="M651.251 368.403H644.503V354.242H651.251V368.403Z" fill="#FFF8DC"/>
<path d="M644.503 382.564H637.754V368.403H644.503V382.564Z" fill="#FFF8DC"/>
</svg>
