<svg width="488" height="388" fill="none" xmlns="http://www.w3.org/2000/svg"><path d="M15.015 4.929V0h457.97v4.929H15.015ZM15.015 382.071v5.429h457.97v-5.429H15.015ZM0 33.214h5.005V358.5H0V33.214ZM5.005 19.071h5.005v14.143H5.005V19.071ZM10.01 4.929h5.005V19.07H10.01V4.93Z" fill="#FFF8DC"/><path d="M0 353.786h5.005V28.5H0v325.286ZM5.005 367.929h5.005v-14.143H5.005v14.143ZM10.01 382.071h5.005v-14.142H10.01v14.142ZM488 33.214h-5.005V358.5H488V33.214ZM482.995 19.071h-5.005v14.143h5.005V19.071ZM477.99 4.929h-5.005V19.07h5.005V4.93Z" fill="#FFF8DC"/><path d="M488 353.786h-5.005V28.5H488v325.286ZM482.995 367.929h-5.005v-14.143h5.005v14.143ZM477.99 382.071h-5.005v-14.142h5.005v14.142Z" fill="#FFF8DC"/></svg>