<svg width="658" height="388" fill="none" xmlns="http://www.w3.org/2000/svg"><path d="M20.246 4.935V0h617.508v4.935H20.246ZM20.246 382.564V388h617.508v-5.436H20.246ZM0 33.257h6.749v325.706H0V33.257ZM6.749 19.096h6.748v14.161H6.75V19.096ZM13.497 4.935h6.75v14.161h-6.75V4.935Z" fill="#FFF8DC"/><path d="M0 354.242h6.749V28.537H0v325.705ZM6.749 368.403h6.748v-14.161H6.75v14.161ZM13.497 382.564h6.75v-14.161h-6.75v14.161ZM658 33.257h-6.749v325.706H658V33.257ZM651.251 19.096h-6.748v14.161h6.748V19.096ZM644.503 4.935h-6.749v14.161h6.749V4.935Z" fill="#FFF8DC"/><path d="M658 354.242h-6.749V28.537H658v325.705ZM651.251 368.403h-6.748v-14.161h6.748v14.161ZM644.503 382.564h-6.749v-14.161h6.749v14.161Z" fill="#FFF8DC"/></svg>