<svg width="46" height="26" fill="none" xmlns="http://www.w3.org/2000/svg"><path d="M3.066.534H0V3.6h3.066V.534ZM6.133.534H3.066V3.6h3.067V.534ZM9.201.534H6.135V3.6H9.2V.534Z" fill="#D32F34"/><path d="M12.269.534H9.2V3.6h3.068V.534ZM3.066 3.6H0v3.066h3.066V3.6Z" fill="#D32F34"/><path d="M6.133 3.6H3.066v3.066h3.067V3.6Z" fill="#fff"/><path d="M9.201 3.6H6.135v3.066H9.2V3.6Z" fill="#D32F34"/><path d="M12.269 3.6H9.2v3.066h3.068V3.6Z" fill="#fff"/><path d="M3.066 6.667H0v3.067h3.066V6.667Z" fill="#D32F34"/><path d="M6.133 6.667H3.066v3.067h3.067V6.667Z" fill="#fff"/><path d="M9.201 6.667H6.135v3.067H9.2V6.667Z" fill="#D32F34"/><path d="M12.269 6.667H9.2v3.067h3.068V6.667Z" fill="#fff"/><path d="M3.066 9.734H0V12.8h3.066V9.734Z" fill="#D32F34"/><path d="M6.133 9.734H3.066V12.8h3.067V9.734Z" fill="#fff"/><path d="M9.201 9.734H6.135V12.8H9.2V9.734Z" fill="#D32F34"/><path d="M12.269 9.734H9.2V12.8h3.068V9.734Z" fill="#fff"/><path d="M3.066 12.8H0v3.067h3.066V12.8Z" fill="#D32F34"/><path d="M6.133 12.8H3.066v3.067h3.067V12.8Z" fill="#fff"/><path d="M9.201 12.8H6.135v3.067H9.2V12.8Z" fill="#D32F34"/><path d="M12.269 12.8H9.2v3.067h3.068V12.8Z" fill="#fff"/><path d="M15.334.534h-3.066V3.6h3.066V.534Z" fill="#D32F34"/><path d="M18.4.534h-3.066V3.6H18.4V.534ZM21.467.534H18.4V3.6h3.067V.534ZM24.533.534h-3.066V3.6h3.066V.534ZM27.6.534h-3.067V3.6H27.6V.534ZM30.666.534H27.6V3.6h3.066V.534Z" fill="#215FC6"/><path d="M15.334 3.6h-3.066v3.066h3.066V3.6Z" fill="#D32F34"/><path d="M18.4 3.6h-3.066v3.066H18.4V3.6Z" fill="#215FC6"/><path d="M21.467 3.6H18.4v3.066h3.067V3.6ZM24.533 3.6h-3.066v3.066h3.066V3.6ZM27.6 3.6h-3.067v3.066H27.6V3.6Z" fill="#D32F34"/><path d="M30.666 3.6H27.6v3.066h3.066V3.6Z" fill="#215FC6"/><path d="M15.334 6.667h-3.066v3.067h3.066V6.667Z" fill="#D32F34"/><path d="M18.4 6.667h-3.066v3.067H18.4V6.667Z" fill="#215FC6"/><path d="M21.467 6.667H18.4v3.067h3.067V6.667Z" fill="#D32F34"/><path d="M24.533 6.667h-3.066v3.067h3.066V6.667ZM27.6 6.667h-3.067v3.067H27.6V6.667ZM30.666 6.667H27.6v3.067h3.066V6.667Z" fill="#215FC6"/><path d="M15.334 9.734h-3.066V12.8h3.066V9.734Z" fill="#D32F34"/><path d="M18.4 9.734h-3.066V12.8H18.4V9.734Z" fill="#215FC6"/><path d="M21.467 9.734H18.4V12.8h3.067V9.734ZM24.533 9.734h-3.066V12.8h3.066V9.734Z" fill="#D32F34"/><path d="M27.6 9.734h-3.067V12.8H27.6V9.734ZM30.666 9.734H27.6V12.8h3.066V9.734Z" fill="#215FC6"/><path d="M15.334 12.8h-3.066v3.067h3.066V12.8Z" fill="#D32F34"/><path d="M18.4 12.8h-3.066v3.067H18.4V12.8ZM21.467 12.8H18.4v3.067h3.067V12.8Z" fill="#215FC6"/><path d="M24.533 12.8h-3.066v3.067h3.066V12.8ZM27.6 12.8h-3.067v3.067H27.6V12.8Z" fill="#D32F34"/><path d="M30.666 12.8H27.6v3.067h3.066V12.8Z" fill="#215FC6"/><path d="M3.066 15.867H0v3.066h3.066v-3.066Z" fill="#D32F34"/><path d="M6.133 15.867H3.066v3.066h3.067v-3.066Z" fill="#fff"/><path d="M9.201 15.867H6.135v3.066H9.2v-3.066Z" fill="#D32F34"/><path d="M12.269 15.867H9.2v3.066h3.068v-3.066Z" fill="#fff"/><path d="M3.066 18.933H0V22h3.066v-3.067Z" fill="#D32F34"/><path d="M6.133 18.933H3.066V22h3.067v-3.067ZM9.201 18.933H6.135V22H9.2v-3.067Z" fill="#fff"/><path d="M12.269 18.933H9.2V22h3.068v-3.067Z" fill="#fff"/><path d="M3.066 22H0v3.067h3.066v-3.066ZM6.133 22H3.066v3.067h3.067v-3.066ZM9.201 22H6.135v3.067H9.2v-3.066Z" fill="#D32F34"/><path d="M12.269 22H9.2v3.067h3.068v-3.066ZM15.334 15.867h-3.066v3.066h3.066v-3.066Z" fill="#D32F34"/><path d="M18.4 15.867h-3.066v3.066H18.4v-3.066ZM21.467 15.867H18.4v3.066h3.067v-3.066ZM24.533 15.867h-3.066v3.066h3.066v-3.066Z" fill="#215FC6"/><path d="M27.6 15.867h-3.067v3.066H27.6v-3.066Z" fill="#D32F34"/><path d="M30.666 15.867H27.6v3.066h3.066v-3.066Z" fill="#215FC6"/><path d="M15.334 18.933h-3.066V22h3.066v-3.067Z" fill="#D32F34"/><path d="M18.4 18.933h-3.066V22H18.4v-3.067Z" fill="#215FC6"/><path d="M21.467 18.933H18.4V22h3.067v-3.067ZM24.533 18.933h-3.066V22h3.066v-3.067ZM27.6 18.933h-3.067V22H27.6v-3.067Z" fill="#D32F34"/><path d="M30.666 18.933H27.6V22h3.066v-3.067Z" fill="#215FC6"/><path d="M15.334 22h-3.066v3.067h3.066v-3.066Z" fill="#D32F34"/><path d="M18.4 22h-3.066v3.067H18.4v-3.066ZM21.467 22H18.4v3.067h3.067v-3.066ZM24.533 22h-3.066v3.067h3.066v-3.066ZM27.6 22h-3.067v3.067H27.6v-3.066ZM30.666 22H27.6v3.067h3.066v-3.066Z" fill="#215FC6"/><path d="M46 .534h-3.066V3.6H46V.534ZM42.934.534h-3.067V3.6h3.067V.534ZM39.865.534H36.8V3.6h3.066V.534ZM46 3.6h-3.066v3.066H46V3.6ZM42.934 3.6h-3.067v3.066h3.067V3.6Z" fill="#D32F34"/><path d="M39.865 3.6H36.8v3.066h3.066V3.6Z" fill="#fff"/><path d="M46 6.667h-3.066v3.067H46V6.667Z" fill="#D32F34"/><path d="M42.934 6.667h-3.067v3.067h3.067V6.667Z" fill="#fff"/><path d="M39.865 6.667H36.8v3.067h3.066V6.667ZM46 9.734h-3.066V12.8H46V9.734Z" fill="#D32F34"/><path d="M42.934 9.734h-3.067V12.8h3.067V9.734Z" fill="#fff"/><path d="M39.865 9.734H36.8V12.8h3.066V9.734ZM46 12.8h-3.066v3.067H46V12.8Z" fill="#D32F34"/><path d="M42.934 12.8h-3.067v3.067h3.067V12.8ZM39.865 12.8H36.8v3.067h3.066V12.8Z" fill="#fff"/><path d="M36.799.534h-3.067V3.6H36.8V.534ZM33.732.534h-3.066V3.6h3.066V.534ZM36.799 3.6h-3.067v3.066H36.8V3.6ZM33.732 3.6h-3.066v3.066h3.066V3.6Z" fill="#D32F34"/><path d="M36.799 6.667h-3.067v3.067H36.8V6.667Z" fill="#fff"/><path d="M33.732 6.667h-3.066v3.067h3.066V6.667Z" fill="#D32F34"/><path d="M36.799 9.734h-3.067V12.8H36.8V9.734Z" fill="#fff"/><path d="M33.732 9.734h-3.066V12.8h3.066V9.734Z" fill="#D32F34"/><path d="M36.799 12.8h-3.067v3.067H36.8V12.8Z" fill="#fff"/><path d="M33.732 12.8h-3.066v3.067h3.066V12.8ZM46 15.867h-3.066v3.066H46v-3.066Z" fill="#D32F34"/><path d="M42.934 15.867h-3.067v3.066h3.067v-3.066Z" fill="#fff"/><path d="M39.865 15.867H36.8v3.066h3.066v-3.066ZM46 18.933h-3.066V22H46v-3.067Z" fill="#D32F34"/><path d="M42.934 18.933h-3.067V22h3.067v-3.067Z" fill="#fff"/><path d="M39.865 18.933H36.8V22h3.066v-3.067ZM46 22h-3.066v3.067H46v-3.066ZM42.934 22h-3.067v3.067h3.067v-3.066ZM39.865 22H36.8v3.067h3.066v-3.066Z" fill="#D32F34"/><path d="M36.799 15.867h-3.067v3.066H36.8v-3.066Z" fill="#fff"/><path d="M33.732 15.867h-3.066v3.066h3.066v-3.066Z" fill="#D32F34"/><path d="M36.799 18.933h-3.067V22H36.8v-3.067Z" fill="#fff"/><path d="M33.732 18.933h-3.066V22h3.066v-3.067ZM36.799 22h-3.067v3.067H36.8v-3.066ZM33.732 22h-3.066v3.067h3.066v-3.066Z" fill="#D32F34"/></svg>