<svg width="46" height="26" viewBox="0 0 46 26" fill="none" xmlns="http://www.w3.org/2000/svg">
<path d="M3.06646 0.533569H0V3.60001H3.06646V0.533569Z" fill="#D32F34"/>
<path d="M6.13284 0.533569H3.06641V3.60001H6.13284V0.533569Z" fill="#D32F34"/>
<path d="M9.2012 0.533569H6.13477V3.60001H9.2012V0.533569Z" fill="#D32F34"/>
<path d="M12.2687 0.533569H9.20117V3.60001H12.2687V0.533569Z" fill="#D32F34"/>
<path d="M3.06646 3.60004H0V6.66647H3.06646V3.60004Z" fill="#D32F34"/>
<path d="M6.13284 3.59998H3.06641V6.66641H6.13284V3.59998Z" fill="white"/>
<path d="M9.2012 3.59998H6.13477V6.66641H9.2012V3.59998Z" fill="#D32F34"/>
<path d="M12.2687 3.60004H9.20117V6.66647H12.2687V3.60004Z" fill="white"/>
<path d="M3.06646 6.66748H0V9.73392H3.06646V6.66748Z" fill="#D32F34"/>
<path d="M6.13284 6.66748H3.06641V9.73392H6.13284V6.66748Z" fill="white"/>
<path d="M9.2012 6.66748H6.13477V9.73392H9.2012V6.66748Z" fill="#D32F34"/>
<path d="M12.2687 6.66748H9.20117V9.73392H12.2687V6.66748Z" fill="white"/>
<path d="M3.06646 9.73395H0V12.8004H3.06646V9.73395Z" fill="#D32F34"/>
<path d="M6.13284 9.73395H3.06641V12.8004H6.13284V9.73395Z" fill="white"/>
<path d="M9.2012 9.73395H6.13477V12.8004H9.2012V9.73395Z" fill="#D32F34"/>
<path d="M12.2687 9.73395H9.20117V12.8004H12.2687V9.73395Z" fill="white"/>
<path d="M3.06646 12.8004H0V15.8668H3.06646V12.8004Z" fill="#D32F34"/>
<path d="M6.13284 12.8004H3.06641V15.8668H6.13284V12.8004Z" fill="white"/>
<path d="M9.2012 12.8004H6.13477V15.8668H9.2012V12.8004Z" fill="#D32F34"/>
<path d="M12.2687 12.8004H9.20117V15.8668H12.2687V12.8004Z" fill="white"/>
<path d="M15.334 0.533569H12.2676V3.60001H15.334V0.533569Z" fill="#D32F34"/>
<path d="M18.4004 0.533569H15.334V3.60001H18.4004V0.533569Z" fill="#215FC6"/>
<path d="M21.4668 0.533569H18.4004V3.60001H21.4668V0.533569Z" fill="#215FC6"/>
<path d="M24.5332 0.533569H21.4668V3.60001H24.5332V0.533569Z" fill="#215FC6"/>
<path d="M27.5997 0.533569H24.5332V3.60001H27.5997V0.533569Z" fill="#215FC6"/>
<path d="M30.666 0.533569H27.5996V3.60001H30.666V0.533569Z" fill="#215FC6"/>
<path d="M15.334 3.60004H12.2676V6.66647H15.334V3.60004Z" fill="#D32F34"/>
<path d="M18.4004 3.60004H15.334V6.66647H18.4004V3.60004Z" fill="#215FC6"/>
<path d="M21.4668 3.59998H18.4004V6.66641H21.4668V3.59998Z" fill="#D32F34"/>
<path d="M24.5332 3.60004H21.4668V6.66647H24.5332V3.60004Z" fill="#D32F34"/>
<path d="M27.5997 3.60004H24.5332V6.66647H27.5997V3.60004Z" fill="#D32F34"/>
<path d="M30.666 3.59998H27.5996V6.66641H30.666V3.59998Z" fill="#215FC6"/>
<path d="M15.334 6.66748H12.2676V9.73392H15.334V6.66748Z" fill="#D32F34"/>
<path d="M18.4004 6.66748H15.334V9.73392H18.4004V6.66748Z" fill="#215FC6"/>
<path d="M21.4668 6.66748H18.4004V9.73392H21.4668V6.66748Z" fill="#D32F34"/>
<path d="M24.5332 6.66748H21.4668V9.73392H24.5332V6.66748Z" fill="#215FC6"/>
<path d="M27.5997 6.66748H24.5332V9.73392H27.5997V6.66748Z" fill="#215FC6"/>
<path d="M30.666 6.66748H27.5996V9.73392H30.666V6.66748Z" fill="#215FC6"/>
<path d="M15.334 9.73395H12.2676V12.8004H15.334V9.73395Z" fill="#D32F34"/>
<path d="M18.4004 9.73395H15.334V12.8004H18.4004V9.73395Z" fill="#215FC6"/>
<path d="M21.4668 9.73395H18.4004V12.8004H21.4668V9.73395Z" fill="#D32F34"/>
<path d="M24.5332 9.73395H21.4668V12.8004H24.5332V9.73395Z" fill="#D32F34"/>
<path d="M27.5997 9.73395H24.5332V12.8004H27.5997V9.73395Z" fill="#215FC6"/>
<path d="M30.666 9.73395H27.5996V12.8004H30.666V9.73395Z" fill="#215FC6"/>
<path d="M15.334 12.8004H12.2676V15.8668H15.334V12.8004Z" fill="#D32F34"/>
<path d="M18.4004 12.8004H15.334V15.8668H18.4004V12.8004Z" fill="#215FC6"/>
<path d="M21.4668 12.8004H18.4004V15.8668H21.4668V12.8004Z" fill="#215FC6"/>
<path d="M24.5332 12.8004H21.4668V15.8668H24.5332V12.8004Z" fill="#D32F34"/>
<path d="M27.5997 12.8004H24.5332V15.8668H27.5997V12.8004Z" fill="#D32F34"/>
<path d="M30.666 12.8004H27.5996V15.8668H30.666V12.8004Z" fill="#215FC6"/>
<path d="M3.06646 15.8668H0V18.9332H3.06646V15.8668Z" fill="#D32F34"/>
<path d="M6.13284 15.8668H3.06641V18.9333H6.13284V15.8668Z" fill="white"/>
<path d="M9.2012 15.8668H6.13477V18.9333H9.2012V15.8668Z" fill="#D32F34"/>
<path d="M12.2687 15.8668H9.20117V18.9332H12.2687V15.8668Z" fill="white"/>
<path d="M3.06646 18.9332H0V21.9997H3.06646V18.9332Z" fill="#D32F34"/>
<path d="M6.13284 18.9332H3.06641V21.9997H6.13284V18.9332Z" fill="white"/>
<path d="M9.2012 18.9332H6.13477V21.9997H9.2012V18.9332Z" fill="white"/>
<path d="M12.2687 18.9332H9.20117V21.9997H12.2687V18.9332Z" fill="white"/>
<path d="M3.06646 22.0007H0V25.0672H3.06646V22.0007Z" fill="#D32F34"/>
<path d="M6.13284 22.0007H3.06641V25.0672H6.13284V22.0007Z" fill="#D32F34"/>
<path d="M9.2012 22.0007H6.13477V25.0672H9.2012V22.0007Z" fill="#D32F34"/>
<path d="M12.2687 22.0007H9.20117V25.0672H12.2687V22.0007Z" fill="#D32F34"/>
<path d="M15.334 15.8668H12.2676V18.9332H15.334V15.8668Z" fill="#D32F34"/>
<path d="M18.4004 15.8668H15.334V18.9332H18.4004V15.8668Z" fill="#215FC6"/>
<path d="M21.4668 15.8668H18.4004V18.9333H21.4668V15.8668Z" fill="#215FC6"/>
<path d="M24.5332 15.8668H21.4668V18.9332H24.5332V15.8668Z" fill="#215FC6"/>
<path d="M27.5997 15.8668H24.5332V18.9332H27.5997V15.8668Z" fill="#D32F34"/>
<path d="M30.666 15.8668H27.5996V18.9333H30.666V15.8668Z" fill="#215FC6"/>
<path d="M15.334 18.9332H12.2676V21.9997H15.334V18.9332Z" fill="#D32F34"/>
<path d="M18.4004 18.9332H15.334V21.9997H18.4004V18.9332Z" fill="#215FC6"/>
<path d="M21.4668 18.9332H18.4004V21.9997H21.4668V18.9332Z" fill="#D32F34"/>
<path d="M24.5332 18.9332H21.4668V21.9997H24.5332V18.9332Z" fill="#D32F34"/>
<path d="M27.5997 18.9332H24.5332V21.9997H27.5997V18.9332Z" fill="#D32F34"/>
<path d="M30.666 18.9332H27.5996V21.9997H30.666V18.9332Z" fill="#215FC6"/>
<path d="M15.334 22.0007H12.2676V25.0672H15.334V22.0007Z" fill="#D32F34"/>
<path d="M18.4004 22.0007H15.334V25.0672H18.4004V22.0007Z" fill="#215FC6"/>
<path d="M21.4668 22.0007H18.4004V25.0672H21.4668V22.0007Z" fill="#215FC6"/>
<path d="M24.5332 22.0007H21.4668V25.0672H24.5332V22.0007Z" fill="#215FC6"/>
<path d="M27.5997 22.0007H24.5332V25.0672H27.5997V22.0007Z" fill="#215FC6"/>
<path d="M30.666 22.0007H27.5996V25.0672H30.666V22.0007Z" fill="#215FC6"/>
<path d="M46 0.533569H42.9336V3.60001H46V0.533569Z" fill="#D32F34"/>
<path d="M42.9336 0.533569H39.8672V3.60001H42.9336V0.533569Z" fill="#D32F34"/>
<path d="M39.8653 0.533569H36.7988V3.60001H39.8653V0.533569Z" fill="#D32F34"/>
<path d="M46 3.59998H42.9336V6.66641H46V3.59998Z" fill="#D32F34"/>
<path d="M42.9336 3.59998H39.8672V6.66641H42.9336V3.59998Z" fill="#D32F34"/>
<path d="M39.8653 3.60004H36.7988V6.66647H39.8653V3.60004Z" fill="white"/>
<path d="M46 6.66748H42.9336V9.73392H46V6.66748Z" fill="#D32F34"/>
<path d="M42.9336 6.66748H39.8672V9.73392H42.9336V6.66748Z" fill="white"/>
<path d="M39.8653 6.66748H36.7988V9.73392H39.8653V6.66748Z" fill="#D32F34"/>
<path d="M46 9.73395H42.9336V12.8004H46V9.73395Z" fill="#D32F34"/>
<path d="M42.9336 9.73395H39.8672V12.8004H42.9336V9.73395Z" fill="white"/>
<path d="M39.8653 9.73395H36.7988V12.8004H39.8653V9.73395Z" fill="#D32F34"/>
<path d="M46 12.8004H42.9336V15.8668H46V12.8004Z" fill="#D32F34"/>
<path d="M42.9336 12.8004H39.8672V15.8668H42.9336V12.8004Z" fill="white"/>
<path d="M39.8653 12.8004H36.7988V15.8668H39.8653V12.8004Z" fill="white"/>
<path d="M36.7989 0.533569H33.7324V3.60001H36.7989V0.533569Z" fill="#D32F34"/>
<path d="M33.7324 0.533569H30.666V3.60001H33.7324V0.533569Z" fill="#D32F34"/>
<path d="M36.7989 3.59998H33.7324V6.66641H36.7989V3.59998Z" fill="#D32F34"/>
<path d="M33.7324 3.60004H30.666V6.66647H33.7324V3.60004Z" fill="#D32F34"/>
<path d="M36.7989 6.66748H33.7324V9.73392H36.7989V6.66748Z" fill="white"/>
<path d="M33.7324 6.66748H30.666V9.73392H33.7324V6.66748Z" fill="#D32F34"/>
<path d="M36.7989 9.73395H33.7324V12.8004H36.7989V9.73395Z" fill="white"/>
<path d="M33.7324 9.73395H30.666V12.8004H33.7324V9.73395Z" fill="#D32F34"/>
<path d="M36.7989 12.8004H33.7324V15.8668H36.7989V12.8004Z" fill="white"/>
<path d="M33.7324 12.8004H30.666V15.8668H33.7324V12.8004Z" fill="#D32F34"/>
<path d="M46 15.8668H42.9336V18.9333H46V15.8668Z" fill="#D32F34"/>
<path d="M42.9336 15.8668H39.8672V18.9333H42.9336V15.8668Z" fill="white"/>
<path d="M39.8653 15.8668H36.7988V18.9332H39.8653V15.8668Z" fill="#D32F34"/>
<path d="M46 18.9332H42.9336V21.9997H46V18.9332Z" fill="#D32F34"/>
<path d="M42.9336 18.9332H39.8672V21.9997H42.9336V18.9332Z" fill="white"/>
<path d="M39.8653 18.9332H36.7988V21.9997H39.8653V18.9332Z" fill="#D32F34"/>
<path d="M46 22.0007H42.9336V25.0672H46V22.0007Z" fill="#D32F34"/>
<path d="M42.9336 22.0007H39.8672V25.0672H42.9336V22.0007Z" fill="#D32F34"/>
<path d="M39.8653 22.0007H36.7988V25.0672H39.8653V22.0007Z" fill="#D32F34"/>
<path d="M36.7989 15.8668H33.7324V18.9333H36.7989V15.8668Z" fill="white"/>
<path d="M33.7324 15.8668H30.666V18.9332H33.7324V15.8668Z" fill="#D32F34"/>
<path d="M36.7989 18.9332H33.7324V21.9997H36.7989V18.9332Z" fill="white"/>
<path d="M33.7324 18.9332H30.666V21.9997H33.7324V18.9332Z" fill="#D32F34"/>
<path d="M36.7989 22.0007H33.7324V25.0672H36.7989V22.0007Z" fill="#D32F34"/>
<path d="M33.7324 22.0007H30.666V25.0672H33.7324V22.0007Z" fill="#D32F34"/>
</svg>
