<svg width="18" height="15" viewBox="0 0 18 15" fill="none" xmlns="http://www.w3.org/2000/svg">
<path d="M14.3515 7.87729L8.19192 2.35089C8.14464 2.30875 8.08431 2.28516 8.02073 2.28516H6.57785C6.4572 2.28516 6.40176 2.44021 6.49307 2.52111L12.2026 7.64471H2.66168C2.58994 7.64471 2.53125 7.70538 2.53125 7.77954V8.79077C2.53125 8.86493 2.58994 8.92561 2.66168 8.92561H12.201L6.49144 14.0492C6.40013 14.1318 6.45557 14.2852 6.57622 14.2852H8.06801C8.09899 14.2852 8.12996 14.2734 8.15279 14.2514L14.3515 8.69302C14.4079 8.64228 14.4532 8.57962 14.4842 8.50926C14.5152 8.4389 14.5312 8.36248 14.5312 8.28516C14.5312 8.20784 14.5152 8.13141 14.4842 8.06105C14.4532 7.99069 14.4079 7.92803 14.3515 7.87729Z" fill="black"/>
</svg>
