<svg width="27" height="27" viewBox="0 0 27 27" fill="none" xmlns="http://www.w3.org/2000/svg">
<path d="M24.4609 13.8724L14.3359 2.62237C13.9095 2.14762 13.0905 2.14762 12.6641 2.62237L2.53911 13.8724C2.39337 14.0339 2.29771 14.2343 2.26376 14.4492C2.2298 14.6641 2.25902 14.8843 2.34786 15.0829C2.52786 15.489 2.93061 15.75 3.37498 15.75H5.62498V23.625C5.62498 23.9234 5.74351 24.2095 5.95449 24.4205C6.16547 24.6315 6.45161 24.75 6.74998 24.75H10.125C10.4234 24.75 10.7095 24.6315 10.9205 24.4205C11.1315 24.2095 11.25 23.9234 11.25 23.625V19.125H15.75V23.625C15.75 23.9234 15.8685 24.2095 16.0795 24.4205C16.2905 24.6315 16.5766 24.75 16.875 24.75H20.25C20.5483 24.75 20.8345 24.6315 21.0455 24.4205C21.2565 24.2095 21.375 23.9234 21.375 23.625V15.75H23.625C23.8429 15.7509 24.0563 15.6884 24.2393 15.5702C24.4222 15.4519 24.5669 15.2829 24.6555 15.0839C24.7441 14.8848 24.7729 14.6643 24.7383 14.4492C24.7037 14.2341 24.6073 14.0337 24.4609 13.8724Z" fill="#D79B25"/>
</svg>
