<svg width="51" height="21" viewBox="0 0 51 21" fill="none" xmlns="http://www.w3.org/2000/svg">
<path d="M8.4 0L6.204 2.31111H2.4C1.08 2.31111 0 3.35111 0 4.62222V18.4889C0 19.76 1.08 20.8 2.4 20.8H21.6C22.92 20.8 24 19.76 24 18.4889V4.62222C24 3.35111 22.92 2.31111 21.6 2.31111H17.796L15.6 0H8.4ZM12 17.3333C8.688 17.3333 6 14.7449 6 11.5556C6 8.36622 8.688 5.77778 12 5.77778C15.312 5.77778 18 8.36622 18 11.5556C18 14.7449 15.312 17.3333 12 17.3333Z" fill="white" fill-opacity="0.6"/>
<path d="M50 6L39 20L34 13.6364" stroke="white" stroke-opacity="0.9" stroke-width="1.5" stroke-linecap="round" stroke-linejoin="round"/>
</svg>
