<svg width="46" height="18" viewBox="0 0 46 18" fill="none" xmlns="http://www.w3.org/2000/svg">
<path d="M14.25 16H1.5C1.10218 16 0.720644 15.842 0.43934 15.5607C0.158035 15.2794 0 14.8978 0 14.5V2.5C0 2.10218 0.158035 1.72064 0.43934 1.43934C0.720644 1.15804 1.10218 1 1.5 1H14.25C14.6478 1 15.0294 1.15804 15.3107 1.43934C15.592 1.72064 15.75 2.10218 15.75 2.5V5.545L19.815 2.6425C19.9269 2.5628 20.0586 2.51538 20.1957 2.50543C20.3327 2.49547 20.4699 2.52336 20.5922 2.58605C20.7144 2.64874 20.8171 2.74382 20.8891 2.8609C20.961 2.97799 20.9994 3.11259 21 3.25V13.75C20.9994 13.8874 20.961 14.022 20.8891 14.1391C20.8171 14.2562 20.7144 14.3513 20.5922 14.4139C20.4699 14.4766 20.3327 14.5045 20.1957 14.4946C20.0586 14.4846 19.9269 14.4372 19.815 14.3575L15.75 11.455V14.5C15.75 14.8978 15.592 15.2794 15.3107 15.5607C15.0294 15.842 14.6478 16 14.25 16Z" fill="white" fill-opacity="0.6"/>
<path d="M37 2V16M30 9H44" stroke="#FFCC66" stroke-width="3" stroke-linecap="round" stroke-linejoin="round"/>
</svg>
