<svg width="33" height="32" viewBox="0 0 33 32" fill="none" xmlns="http://www.w3.org/2000/svg">
<path d="M10.2681 25.9385C15.9391 29.2126 23.1052 27.4172 26.2742 21.9283C29.4432 16.4395 27.415 9.33572 21.744 6.06161C16.0731 2.78749 8.90695 4.58289 5.73796 10.0717C2.56897 15.5606 4.5972 22.6644 10.2681 25.9385Z" fill="url(#paint0_radial_1_1246)"/>
<path style="mix-blend-mode:multiply" opacity="0.53" d="M21.744 6.06161C26.6526 8.89554 28.4083 15.0448 25.6653 19.7957C22.9224 24.5466 16.7191 26.1008 11.8106 23.2669C6.90207 20.4329 5.14585 14.2846 7.8893 9.53275C10.6328 4.78094 16.8355 3.22768 21.744 6.06161C16.0729 2.78738 8.90706 4.58269 5.73796 10.0717C2.56886 15.5608 4.59699 22.6643 10.2681 25.9385C15.9393 29.2127 23.1051 27.4174 26.2742 21.9283C29.4433 16.4393 27.4152 9.33584 21.744 6.06161Z" fill="url(#paint1_radial_1_1246)"/>
<path d="M17.1174 14.0723C20.2883 15.903 23.7705 15.808 24.8951 13.8601C26.0197 11.9123 24.3608 8.84911 21.19 7.0184C18.0191 5.1877 14.5369 5.28268 13.4123 7.23056C12.2877 9.17844 13.9465 12.2416 17.1174 14.0723Z" fill="white"/>
<mask id="mask0_1_1246" style="mask-type:luminance" maskUnits="userSpaceOnUse" x="4" y="4" width="24" height="24">
<path d="M10.2681 25.9385C15.9391 29.2126 23.1052 27.4172 26.2742 21.9283C29.4432 16.4395 27.415 9.33572 21.744 6.06161C16.0731 2.78749 8.90695 4.58289 5.73796 10.0717C2.56897 15.5606 4.5972 22.6644 10.2681 25.9385Z" fill="white"/>
</mask>
<g mask="url(#mask0_1_1246)">
<path d="M14.3757 3.83881L14.5527 3.93145C5.92782 7.70095 13.0431 19.6943 4.41873 23.4629C4.35987 23.4325 4.30059 23.4007 4.24173 23.3703C12.8661 19.6017 5.75083 7.60831 14.3757 3.83881Z" fill="#D11C1C"/>
<path d="M5.95623 22.5357C5.19345 22.5248 4.4015 22.4982 3.57616 22.4547C3.57985 22.4569 3.35915 22.8114 3.9868 22.8493C4.98808 22.9168 5.96732 22.5421 5.95623 22.5357Z" fill="#D11C1C"/>
<path d="M7.06118 21.534C6.37297 21.5626 5.66073 21.5773 4.91973 21.5777C4.9225 21.5793 4.80554 21.989 5.37023 21.9929C6.26909 22.0072 7.07186 21.539 7.0621 21.5346L7.06118 21.534Z" fill="#D11C1C"/>
<path d="M7.88679 20.3729C7.26207 20.4346 6.61702 20.4844 5.94782 20.5228C5.95059 20.5244 5.92311 20.9797 6.43171 20.9548C7.2416 20.9226 7.89563 20.3769 7.88679 20.3729Z" fill="#D11C1C"/>
<path d="M8.47503 19.0999C7.90177 19.1876 7.31229 19.2672 6.70195 19.3359C6.7038 19.337 6.75181 19.8324 7.21409 19.7831C7.94889 19.7123 8.48057 19.1031 8.47503 19.0999Z" fill="#D11C1C"/>
<path d="M8.88262 17.7293C8.3483 17.8372 7.80237 17.9395 7.2402 18.0337C7.24205 18.0348 7.34893 18.5605 7.77505 18.4928C8.44966 18.3896 8.88724 17.732 8.88262 17.7293Z" fill="#D11C1C"/>
<path d="M9.15346 16.2775C8.64646 16.4 8.13063 16.5185 7.60555 16.6317C7.60648 16.6322 7.75968 17.1823 8.15755 17.0995C8.78583 16.9719 9.15716 16.2797 9.15438 16.2781L9.15346 16.2775Z" fill="#D11C1C"/>
<path d="M9.33926 14.7918C8.84705 14.9228 8.35166 15.0508 7.84929 15.1759C7.84929 15.1759 8.03352 15.7427 8.41145 15.6495C9.00727 15.5056 9.34018 14.7924 9.33833 14.7913L9.33926 14.7918Z" fill="#D11C1C"/>
<path d="M9.48545 13.2805C8.99653 13.4121 8.50802 13.5452 8.01726 13.6759C8.01726 13.6759 8.21772 14.2509 8.58641 14.1524C9.16323 13.9987 9.48597 13.2796 9.48597 13.2796L9.48545 13.2805Z" fill="#D11C1C"/>
<path d="M9.64827 11.7798C9.14959 11.907 8.65698 12.0365 8.16569 12.168C8.16569 12.168 8.36708 12.7436 8.73485 12.6446C9.30797 12.4887 9.6455 11.7782 9.64827 11.7798Z" fill="#D11C1C"/>
<path d="M9.87109 10.3081C9.35156 10.4244 8.84179 10.5453 8.33849 10.6698C8.33849 10.6698 8.52642 11.2388 8.90158 11.1441C9.48538 10.9932 9.86647 10.3054 9.87109 10.3081Z" fill="#D11C1C"/>
<path d="M10.2033 8.9035C9.65086 9.0021 9.11232 9.10871 8.58447 9.22029C8.58355 9.21976 8.74415 9.77415 9.13647 9.6881C9.7439 9.5497 10.1968 8.89976 10.2023 8.90296L10.2033 8.9035Z" fill="#D11C1C"/>
<path d="M10.6975 7.5661C10.0997 7.64087 9.52039 7.72632 8.95638 7.81941C8.95453 7.81834 9.07343 8.35105 9.49215 8.27905C10.138 8.16163 10.6896 7.56272 10.6975 7.5661Z" fill="#D11C1C"/>
<path d="M11.4027 6.35054C10.7478 6.39597 10.1157 6.45332 9.50355 6.52099C9.5017 6.51992 9.56266 7.02275 10.0175 6.96924C10.7158 6.87849 11.3943 6.34573 11.4036 6.35107L11.4027 6.35054Z" fill="#D11C1C"/>
<path d="M12.3646 5.26518C11.6398 5.2738 10.9433 5.29755 10.2704 5.33374C10.2676 5.33214 10.2586 5.79816 10.7561 5.76688C11.5216 5.71134 12.3535 5.25877 12.3646 5.26518Z" fill="#D11C1C"/>
<path d="M13.6351 4.34854C12.8288 4.31485 12.0558 4.29804 11.3097 4.29672C11.3069 4.29512 11.2108 4.71562 11.762 4.71297C12.6081 4.69921 13.6216 4.34196 13.6336 4.3489L13.6351 4.34854Z" fill="#D11C1C"/>
<path d="M5.85487 22.4905C5.99935 22.9533 6.11414 23.4013 6.19606 23.8315C6.19976 23.8337 5.48834 23.9323 5.43534 23.6142C5.37044 23.1246 5.86596 22.4969 5.85435 22.4914L5.85487 22.4905Z" fill="#D11C1C"/>
<path d="M6.9642 21.4849C7.18418 21.9876 7.37869 22.4769 7.54402 22.9505C7.5468 22.9521 6.93964 23.105 6.82316 22.7538C6.65585 22.2111 6.97437 21.4907 6.9642 21.4849Z" fill="#D11C1C"/>
<path d="M7.78842 20.3286C8.07096 20.8639 8.33265 21.3884 8.57071 21.9004C8.57348 21.902 8.05528 22.1015 7.88324 21.7206C7.62696 21.1313 7.79582 20.3329 7.78842 20.3286Z" fill="#D11C1C"/>
<path d="M8.37827 19.0474C8.71227 19.6088 9.02953 20.163 9.32738 20.706C9.32923 20.707 8.88561 20.946 8.66815 20.5413C8.33678 19.9134 8.38474 19.0511 8.37827 19.0474Z" fill="#D11C1C"/>
<path d="M8.78256 17.6724C9.15499 18.2548 9.51632 18.8309 9.86234 19.3992C9.86419 19.4003 9.48035 19.6702 9.22582 19.2465C8.83425 18.5862 8.78811 17.6756 8.78349 17.6729L8.78256 17.6724Z" fill="#D11C1C"/>
<path d="M9.05302 16.2276C9.45328 16.8237 9.84563 17.4165 10.2264 18.0037C10.2273 18.0043 9.88979 18.2985 9.60609 17.8591C9.16819 17.1745 9.05579 16.2292 9.05209 16.2271L9.05302 16.2276Z" fill="#D11C1C"/>
<path d="M9.23959 14.7427C9.65465 15.3473 10.066 15.9499 10.4718 16.5492C10.4718 16.5492 10.1653 16.8602 9.86262 16.411C9.39226 15.71 9.24052 14.7432 9.23959 14.7427Z" fill="#D11C1C"/>
<path d="M9.38803 13.2349C9.80586 13.8411 10.2251 14.4471 10.642 15.0528C10.642 15.0528 10.3509 15.3714 10.0389 14.9169C9.54954 14.2061 9.38711 13.2343 9.38803 13.2349Z" fill="#D11C1C"/>
<path d="M9.54819 11.7271C9.95678 12.328 10.3709 12.9321 10.7878 13.5379C10.7878 13.5379 10.4976 13.857 10.1856 13.4025C9.69254 12.6896 9.54634 11.726 9.54819 11.7271Z" fill="#D11C1C"/>
<path d="M9.77086 10.2583C10.1586 10.8484 10.5556 11.4438 10.9605 12.0426C10.9605 12.0426 10.6573 12.3543 10.3522 11.905C9.86981 11.197 9.76665 10.2571 9.77035 10.2592L9.77086 10.2583Z" fill="#D11C1C"/>
<path d="M10.1049 8.85208C10.4592 9.42528 10.8285 10.0047 11.2083 10.5914C11.2074 10.5909 10.8773 10.8894 10.5889 10.4474C10.1297 9.75275 10.0993 8.84888 10.1049 8.85208Z" fill="#D11C1C"/>
<path d="M10.5991 7.51619C10.908 8.06556 11.2365 8.62382 11.5797 9.19061C11.5779 9.18955 11.2052 9.46584 10.9441 9.03838C10.5238 8.36386 10.5917 7.51192 10.5991 7.51619Z" fill="#D11C1C"/>
<path d="M11.3023 6.29751C11.5548 6.81665 11.8299 7.34771 12.1245 7.88997C12.1226 7.8889 11.6934 8.13496 11.4671 7.72635C11.0992 7.0785 11.2935 6.2936 11.3023 6.29751Z" fill="#D11C1C"/>
<path d="M12.2681 5.21212C12.4516 5.69498 12.6608 6.19279 12.8961 6.70322C12.8934 6.70162 12.3932 6.91034 12.2105 6.52449C11.9098 5.91185 12.2575 5.20714 12.2681 5.21212Z" fill="#D11C1C"/>
<path d="M13.5371 4.29901C13.6389 4.73956 13.7718 5.19682 13.9344 5.66884C13.9316 5.66724 13.3453 5.83096 13.2154 5.47322C12.9947 4.90325 13.5246 4.29297 13.5371 4.29901Z" fill="#D11C1C"/>
<path d="M27.3723 11.324L27.2035 11.217C28.2515 20.5711 14.3073 20.4058 15.3558 29.759C15.4115 29.7948 15.4687 29.8302 15.5245 29.866C14.4765 20.5119 28.4207 20.6772 27.3723 11.324Z" fill="#D11C1C"/>
<path d="M15.6977 26.5167C16.0171 27.127 16.3605 27.7512 16.7306 28.3931C16.7278 28.3915 16.4316 28.6976 16.1458 28.2106C15.684 27.4393 15.6881 26.51 15.6968 26.5162L15.6977 26.5167Z" fill="#D11C1C"/>
<path d="M16.2886 25.2272C16.5476 25.799 16.8269 26.3826 17.1284 26.9813C17.1256 26.9797 16.745 27.2312 16.5122 26.7783C16.1352 26.0607 16.2808 25.2215 16.2886 25.2272Z" fill="#D11C1C"/>
<path d="M17.0991 24.0787C17.3098 24.619 17.5356 25.1693 17.7812 25.7323C17.7794 25.7312 17.3264 25.9373 17.1379 25.5123C16.8318 24.8406 17.0936 24.0755 17.0991 24.0787Z" fill="#D11C1C"/>
<path d="M18.0856 23.0397C18.2594 23.5564 18.4437 24.0803 18.6432 24.6143C18.6414 24.6132 18.1326 24.7835 17.9782 24.3806C17.7303 23.7448 18.081 23.0371 18.0856 23.0397Z" fill="#D11C1C"/>
<path d="M19.2025 22.0797C19.3499 22.58 19.5052 23.086 19.6697 23.5973C19.6688 23.5968 19.1158 23.7392 18.9886 23.3532C18.7849 22.7453 19.1988 22.0776 19.2015 22.0792L19.2025 22.0797Z" fill="#D11C1C"/>
<path d="M20.4012 21.1743C20.5339 21.6661 20.6708 22.1591 20.8136 22.6567C20.8136 22.6567 20.2306 22.7805 20.1223 22.4067C19.949 21.8187 20.4003 21.1738 20.4021 21.1749L20.4012 21.1743Z" fill="#D11C1C"/>
<path d="M21.633 20.2857C21.7634 20.7749 21.8924 21.2645 22.0247 21.7548C22.0247 21.7548 21.4264 21.8687 21.3274 21.5002C21.1721 20.9238 21.6335 20.2848 21.6335 20.2848L21.633 20.2857Z" fill="#D11C1C"/>
<path d="M22.8543 19.3998C22.9935 19.8952 23.1276 20.3866 23.2594 20.8778C23.2594 20.8778 22.6602 20.9912 22.5621 20.6232C22.4105 20.049 22.8571 19.4014 22.8543 19.3998Z" fill="#D11C1C"/>
<path d="M24.0169 18.4771C24.1759 18.9852 24.3262 19.4871 24.4699 19.9852C24.4699 19.9852 23.8832 20.107 23.7777 19.7347C23.6164 19.1537 24.0216 18.4797 24.0169 18.4771Z" fill="#D11C1C"/>
<path d="M25.0716 17.4771C25.2624 18.0047 25.4394 18.5244 25.6067 19.0374C25.6076 19.0379 25.0472 19.176 24.9255 18.7932C24.7417 18.198 25.0781 17.4808 25.0726 17.4776L25.0716 17.4771Z" fill="#D11C1C"/>
<path d="M25.972 16.3833C26.2062 16.9384 26.4218 17.4828 26.6232 18.0178C26.6251 18.0189 26.1043 18.1823 25.9573 17.7837C25.736 17.1656 25.9789 16.3885 25.972 16.3833Z" fill="#D11C1C"/>
<path d="M26.678 15.1651C26.9661 15.7549 27.2325 16.331 27.48 16.895C27.4818 16.8961 27.0159 17.0947 26.8348 16.674C26.5642 16.0239 26.6863 15.1699 26.6771 15.1646L26.678 15.1651Z" fill="#D11C1C"/>
<path d="M27.1322 13.7896C27.4871 14.4215 27.8148 15.0366 28.1199 15.6375C28.1227 15.6391 27.7236 15.8799 27.5019 15.4334C27.1673 14.7427 27.1433 13.796 27.1322 13.7896Z" fill="#D11C1C"/>
<path d="M27.2962 12.2271C27.7286 12.9085 28.1296 13.5695 28.5038 14.215C28.5066 14.2166 28.1905 14.5101 27.9172 14.0314C27.5061 13.2918 27.3087 12.2354 27.2966 12.2285L27.2962 12.2271Z" fill="#D11C1C"/>
<path d="M15.4727 28.0304C14.9997 28.1366 14.5543 28.2612 14.1407 28.4054C14.137 28.4033 14.4073 29.0687 14.7093 28.9555C15.1657 28.767 15.4616 28.024 15.4722 28.0313L15.4727 28.0304Z" fill="#D11C1C"/>
<path d="M15.7916 26.5711C15.2461 26.632 14.7252 26.7082 14.2323 26.8018C14.2296 26.8002 14.4007 27.4025 14.7631 27.3277C15.3168 27.2013 15.7814 26.5652 15.7916 26.5711Z" fill="#D11C1C"/>
<path d="M16.382 25.2713C15.7771 25.2942 15.192 25.3298 14.6296 25.3797C14.6268 25.3781 14.7131 25.9266 15.129 25.8852C15.7675 25.8124 16.3746 25.267 16.382 25.2713Z" fill="#D11C1C"/>
<path d="M17.1931 24.123C16.5398 24.1145 15.9013 24.1168 15.2821 24.1303C15.2803 24.1293 15.2952 24.6329 15.7544 24.6189C16.4638 24.5919 17.1866 24.1193 17.1931 24.123Z" fill="#D11C1C"/>
<path d="M18.1781 23.0873C17.4874 23.056 16.8079 23.0311 16.1426 23.0156C16.1408 23.0145 16.099 23.4819 16.5932 23.4905C17.3608 23.4994 18.1725 23.0841 18.1771 23.0867L18.1781 23.0873Z" fill="#D11C1C"/>
<path d="M19.295 22.1323C18.5786 22.0837 17.869 22.0403 17.1701 22.0042C17.1692 22.0037 17.0831 22.4431 17.6055 22.4691C18.4173 22.506 19.2922 22.1307 19.2959 22.1328L19.295 22.1323Z" fill="#D11C1C"/>
<path d="M20.4929 21.2279C19.7617 21.1708 19.0342 21.1158 18.3123 21.064C18.3123 21.064 18.1962 21.4849 18.7365 21.5225C19.5788 21.5793 20.492 21.2273 20.4929 21.2279Z" fill="#D11C1C"/>
<path d="M21.7251 20.3417C20.9911 20.283 20.2568 20.2229 19.5237 20.1647C19.5237 20.1647 19.3934 20.5762 19.943 20.6191C20.8032 20.6875 21.726 20.3423 21.7251 20.3417Z" fill="#D11C1C"/>
<path d="M22.9456 19.4509C22.2209 19.3975 21.4906 19.3409 20.7576 19.2828C20.7576 19.2828 20.6263 19.6937 21.1759 19.7366C22.0398 19.8072 22.9474 19.452 22.9456 19.4509Z" fill="#D11C1C"/>
<path d="M24.1075 18.5242C23.4026 18.4834 22.6885 18.4374 21.9675 18.3861C21.9675 18.3861 21.8492 18.8045 22.3908 18.8441C23.2451 18.9078 24.1107 18.5272 24.107 18.5251L24.1075 18.5242Z" fill="#D11C1C"/>
<path d="M25.1621 17.5303C24.4885 17.51 23.8021 17.48 23.1041 17.4444C23.105 17.4449 23.0115 17.8801 23.5385 17.9087C24.3697 17.9592 25.1676 17.5335 25.1621 17.5303Z" fill="#D11C1C"/>
<path d="M26.0654 16.4375C25.4351 16.4446 24.7874 16.4393 24.1249 16.4254C24.1268 16.4265 24.0739 16.8874 24.5746 16.8998C25.3689 16.9265 26.0728 16.4417 26.0654 16.4375Z" fill="#D11C1C"/>
<path d="M26.7684 15.2234C26.1926 15.2643 25.5951 15.2915 24.9782 15.3076C24.9801 15.3086 24.9816 15.8034 25.4486 15.7951C26.1936 15.7898 26.7762 15.229 26.7684 15.2234Z" fill="#D11C1C"/>
<path d="M27.2254 13.8405C26.7155 13.9231 26.1798 13.9907 25.6201 14.0422C25.6228 14.0438 25.6921 14.5813 26.1177 14.5466C26.7986 14.5007 27.235 13.8473 27.2254 13.8405Z" fill="#D11C1C"/>
<path d="M27.3885 12.2806C26.9561 12.4127 26.4936 12.5262 26.0036 12.6215C26.0063 12.6231 26.1577 13.2127 26.5325 13.1463C27.1364 13.0524 27.4 12.2884 27.3885 12.2806Z" fill="#D11C1C"/>
</g>
<defs>
<radialGradient id="paint0_radial_1_1246" cx="0" cy="0" r="1" gradientUnits="userSpaceOnUse" gradientTransform="translate(17.3631 13.6496) rotate(30) scale(13.5933 13.1568)">
<stop stop-color="white"/>
<stop offset="0.25" stop-color="#F0FAFE"/>
<stop offset="0.74" stop-color="#CAECFC"/>
<stop offset="1" stop-color="#B3E5FC"/>
</radialGradient>
<radialGradient id="paint1_radial_1_1246" cx="0" cy="0" r="1" gradientUnits="userSpaceOnUse" gradientTransform="translate(17.3631 13.6496) rotate(30) scale(13.5933 13.1568)">
<stop stop-color="white"/>
<stop offset="0.25" stop-color="#FBFDFE"/>
<stop offset="0.47" stop-color="#F0FAFE"/>
<stop offset="0.68" stop-color="#DEF3FD"/>
<stop offset="0.88" stop-color="#C5EBFC"/>
<stop offset="1" stop-color="#B3E5FC"/>
</radialGradient>
</defs>
</svg>
