<svg width="22" height="22" viewBox="0 0 22 22" fill="none" xmlns="http://www.w3.org/2000/svg">
<path d="M21.6133 19.7871L12.8219 11.0005L21.6133 2.27856C22.0539 1.76829 22.0301 1.00252 21.5586 0.521046C21.0871 0.0395688 20.3269 0.00469413 19.8139 0.441005L10.9968 9.09824L2.33384 0.376302C1.83253 -0.125434 1.02289 -0.125434 0.521572 0.376302C0.278249 0.619283 0.141383 0.950038 0.141383 1.29508C0.141383 1.64013 0.278249 1.97088 0.521572 2.21386L9.17164 10.9229L0.380189 19.6319C0.136866 19.8748 0 20.2056 0 20.5506C0 20.8957 0.136866 21.2264 0.380189 21.4694C0.62275 21.7116 0.951116 21.8467 1.29275 21.8447C1.62812 21.8467 1.951 21.7167 2.19246 21.4824L10.9968 12.7475L19.8139 21.6247C20.0565 21.8669 20.3848 22.002 20.7265 22C21.0637 21.9985 21.3868 21.8638 21.6262 21.6247C21.8678 21.38 22.0024 21.0483 22 20.7032C21.9976 20.3582 21.8584 20.0284 21.6133 19.7871Z" fill="#224E9E"/>
</svg>
