<svg width="71" height="71" viewBox="0 0 71 71" fill="none" xmlns="http://www.w3.org/2000/svg">
<path d="M19.0247 14.8859C19.0247 14.8859 39.0162 39.8389 60.9829 28.0247C60.9829 28.0247 60.9757 38.1507 51.6662 56.6961C51.6662 56.6961 25.7772 61.9796 2.45667 35.4052C2.45667 35.4052 14.5853 24.9761 18.7937 14.6153L19.0247 14.8859Z" fill="#97C777" stroke="#1B1532" stroke-miterlimit="10"/>
<path d="M20.123 21.685C29.3138 30.309 38.4165 34.7993 47.3487 35.1746C50.2941 35.2978 53.2113 34.931 55.7997 34.1117C54.9505 37.2745 53.5723 41.0792 51.7324 45.3117C50.4007 48.3786 49.1478 50.9311 48.4912 52.2299C43.4717 52.945 38.3148 52.5581 33.148 51.0806C28.689 49.8041 24.2071 47.7167 19.8282 44.8765C15.9037 42.3294 12.7901 39.6362 10.8727 37.8276C10.0126 37.0163 9.31026 36.3064 8.77878 35.7486C9.23102 35.3227 9.67764 34.8873 10.1149 34.4501C14.2075 30.3574 17.0256 26.4464 18.6691 23.8902C19.2169 23.0381 19.6746 22.2724 20.0498 21.6193L20.1193 21.6888L20.123 21.685ZM19.6374 18.5047C19.6374 18.5047 16.5127 25.5094 8.84531 33.1768C7.99713 34.025 7.09452 34.8788 6.13371 35.7344C6.13371 35.7344 24.9791 58.1677 49.6652 53.9218C49.6652 53.9218 56.8084 40.3483 58.3703 31.0303C58.3703 31.0303 42.4928 41.2587 19.6356 18.5029L19.6374 18.5047Z" fill="#74B85B"/>
<path d="M39.4313 39.2869C38.8124 36.42 35.2876 34.7462 31.5584 35.5483C27.8292 36.3504 25.3078 39.3248 25.9266 42.1917C26.5455 45.0586 30.0703 46.7324 33.7995 45.9303C37.5287 45.1282 40.0501 42.1538 39.4313 39.2869Z" fill="#74B85B"/>
<path d="M36.3335 35.4866C39.8163 36.7739 41.0003 40.1647 38.9778 43.0624C36.9553 45.9601 32.4936 47.2667 29.0126 45.9813C25.5298 44.694 24.3457 41.3032 26.3683 38.4055C28.3908 35.5078 32.8525 34.2012 36.3335 35.4866ZM37.0445 34.4638C36.0288 34.0898 34.9249 33.8904 33.7685 33.8749C32.6496 33.8594 31.5308 34.0129 30.4365 34.3335C29.3441 34.6522 28.3325 35.123 27.4335 35.729C26.5007 36.3575 25.7276 37.1043 25.1404 37.9507C24.5494 38.7971 24.178 39.6906 24.0301 40.6085C23.8878 41.4945 23.9632 42.3656 24.2545 43.1973C24.544 44.0272 25.0342 44.7764 25.7122 45.4243C26.4127 46.0948 27.2839 46.6245 28.3015 47.0004C29.3173 47.3744 30.4212 47.5738 31.5776 47.5893C32.6964 47.6047 33.8152 47.4512 34.9095 47.1307C36.0038 46.8101 37.0136 46.3412 37.9126 45.7352C38.8453 45.1067 39.6185 44.3599 40.2057 43.5134C40.7967 42.667 41.168 41.7736 41.316 40.8557C41.4583 39.9697 41.3829 39.0986 41.0916 38.2669C40.8002 37.4351 40.3119 36.6878 39.6339 36.0399C38.9334 35.3694 38.0622 34.8397 37.0445 34.4638Z" fill="#74B85B"/>
<path d="M36.1123 35.8086C39.3811 37.017 40.4937 40.2013 38.595 42.9225C36.6963 45.6438 32.5086 46.8717 29.2398 45.6633C25.9711 44.455 24.8584 41.2707 26.7571 38.5494C28.6558 35.8281 32.8435 34.6002 36.1123 35.8086ZM36.5119 35.2324C34.7452 34.5803 32.6877 34.5382 30.7149 35.1175C28.7421 35.6968 27.0906 36.8225 26.0643 38.292C25.038 39.7614 24.7628 41.3964 25.2871 42.8966C25.8115 44.3967 27.0716 45.5817 28.8383 46.2339C30.6051 46.886 32.6626 46.9281 34.6354 46.3488C36.6081 45.7695 38.2597 44.6438 39.2859 43.1744C40.3122 41.7049 40.5875 40.0699 40.0632 38.5698C39.5388 37.0696 38.2787 35.8846 36.5119 35.2324Z" fill="#97C777"/>
<path d="M29.5797 43.9249C28.9695 43.6525 28.4962 43.2806 28.1675 42.8055L29.4362 41.935C29.7706 42.472 30.21 42.8401 30.7545 43.0431C31.5919 43.3513 32.1794 43.2671 32.5134 42.7866C32.6822 42.5464 32.7309 42.2798 32.6651 41.9888C32.5993 41.6978 32.3532 41.3167 31.9288 40.8472C31.5043 40.3777 31.2432 40.019 31.1418 39.7749C31.0403 39.5309 31.012 39.2737 31.057 39.0034C31.1019 38.7331 31.2201 38.4572 31.4171 38.1775C31.706 37.7646 32.117 37.455 32.6501 37.2563C33.1832 37.0537 33.7501 36.9976 34.3508 37.088L34.9268 36.2604L36.1829 36.7245L35.6331 37.5034C36.2678 37.8078 36.6734 38.1271 36.85 38.4688L35.7033 39.33C35.4103 38.8455 34.9859 38.5037 34.4301 38.297C34.1016 38.1748 33.7937 38.1559 33.5103 38.2365C33.2268 38.3171 33.0054 38.471 32.8478 38.6962C32.5814 39.0791 32.8125 39.6667 33.5431 40.4574C33.9281 40.8761 34.1741 41.2198 34.285 41.492C34.394 41.7624 34.426 42.0459 34.3792 42.3368C34.3324 42.6278 34.2048 42.9243 33.9947 43.2246C33.6964 43.6506 33.2723 43.9621 32.7223 44.159C32.1723 44.3559 31.5623 44.4063 30.8939 44.3084L30.1622 45.3594L28.9061 44.8952L29.5816 43.9268L29.5797 43.9249Z" fill="#97C777"/>
<path d="M22.3035 33.5987C22.346 32.654 21.5481 31.85 20.5213 31.8029C19.4946 31.7559 18.6277 32.4836 18.5852 33.4283C18.5427 34.3731 19.3406 35.177 20.3674 35.2241C21.3941 35.2711 22.261 34.5434 22.3035 33.5987Z" fill="#74B85B"/>
<path d="M48.0045 41.5954C49.099 41.6465 49.5967 42.3057 49.122 43.0695C48.6455 43.8315 47.373 44.4092 46.2823 44.3581C45.1878 44.3069 44.6901 43.6478 45.1647 42.884C45.6394 42.1201 46.9138 41.5443 48.0045 41.5954Z" fill="#74B85B"/>
<path d="M56.5383 32.5132L55.6054 37.39C55.6054 37.39 52.6874 35.5904 53.6948 33.8693L56.5383 32.5132Z" fill="#74B85B"/>
<path d="M48.832 53.0168L44.9593 53.2049C44.9593 53.2049 47.7175 49.8006 51.0606 48.9441L48.8302 53.015L48.832 53.0168Z" fill="#74B85B"/>
<path d="M17.7449 23.5406C17.6285 23.4241 20.0019 20.1192 20.0019 20.1192L22.9579 23.0452C22.9579 23.0452 19.7807 25.5763 17.7449 23.5406Z" fill="#74B85B"/>
<path d="M10.4178 38.6106C10.4178 38.6106 12.4479 35.818 10.4436 32.6202L7.43551 35.6283L10.4178 38.6106Z" fill="#74B85B"/>
</svg>
