<svg width="333" height="305" viewBox="0 0 333 305" fill="none" xmlns="http://www.w3.org/2000/svg">
<path d="M277.202 1.00118C277.202 1.00118 283.436 57.4178 241 70.1587C241 70.1587 253.729 82.8618 288.722 94.4531C288.722 94.4531 327.88 68.5894 323.797 5.95794C323.797 5.95794 295.502 8.72164 277.202 1V1.00118Z" fill="#97C777" stroke="#1B1532" stroke-width="0.943245" stroke-miterlimit="10"/>
<path d="M284.365 10.9103C283.653 33.2734 277.86 50.3367 267.112 62.02C263.567 65.872 259.441 69.0731 255.16 71.2945C260.2 74.1997 266.71 77.244 274.337 80.2494C279.86 82.4259 284.644 84.0577 287.099 84.8654C294.302 79.4606 300.294 72.5042 304.927 64.1635C308.928 56.963 311.935 48.7191 313.866 39.658C315.597 31.5332 316.123 24.2478 316.259 19.5669C316.321 17.4706 316.311 15.6937 316.278 14.3284C315.173 14.359 314.068 14.3755 312.97 14.3755C302.686 14.3755 294.235 13.0055 288.956 11.8559C287.196 11.4727 285.659 11.0883 284.369 10.737L284.364 10.9126L284.365 10.9103ZM280.982 6.31079C280.982 6.31079 293.706 11.1791 312.97 11.1791C315.099 11.1791 317.308 11.1202 319.589 10.9881C319.589 10.9881 324.097 62.8029 287.75 88.4603C287.75 88.4603 261.726 80.3897 248.057 70.6554C248.057 70.6554 280.852 63.5646 280.982 6.31079Z" fill="#74B85B"/>
<path d="M282.219 57.2426C279.395 52.8674 281.72 46.3422 287.412 42.6683C293.104 38.9943 300.008 39.5628 302.832 43.938C305.656 48.3133 303.331 54.8384 297.639 58.5124C291.947 62.1863 285.043 61.6178 282.219 57.2426Z" fill="#74B85B"/>
<path d="M281.334 48.5938C278.575 54.5799 281.349 60.3243 287.531 61.4243C293.712 62.5244 300.959 58.5651 303.718 52.579C306.477 46.593 303.703 40.8486 297.521 39.7486C291.341 38.6485 284.093 42.6078 281.334 48.5938ZM279.157 48.2059C279.963 46.4597 281.098 44.8267 282.532 43.3529C283.916 41.931 285.517 40.7177 287.292 39.7486C289.066 38.7782 290.926 38.1002 292.819 37.7312C294.78 37.3492 296.689 37.3185 298.493 37.6392C300.297 37.9599 301.89 38.6143 303.228 39.5835C304.519 40.5197 305.519 41.707 306.198 43.1136C306.877 44.5202 307.202 46.0765 307.166 47.7378C307.127 49.4593 306.7 51.2184 305.895 52.9646C305.09 54.7108 303.954 56.3438 302.52 57.8176C301.136 59.2395 299.535 60.4528 297.761 61.422C295.986 62.3923 294.127 63.0703 292.233 63.4393C290.272 63.8213 288.364 63.852 286.56 63.5313C284.756 63.2106 283.163 62.5562 281.824 61.587C280.533 60.6509 279.534 59.4635 278.854 58.0569C278.175 56.6503 277.85 55.094 277.886 53.4327C277.925 51.7113 278.352 49.9521 279.157 48.2059Z" fill="#74B85B"/>
<path d="M282.021 48.7131C279.432 54.3325 282.035 59.7243 287.839 60.7572C293.641 61.79 300.444 58.0725 303.034 52.4531C305.624 46.8337 303.02 41.4419 297.217 40.409C291.415 39.3762 284.612 43.0937 282.021 48.7119V48.7131ZM280.795 48.495C282.193 45.4601 284.73 42.8249 287.934 41.0728C291.139 39.3219 294.63 38.664 297.764 39.2217C300.898 39.7794 303.3 41.4855 304.526 44.0264C305.753 46.5672 305.658 49.6375 304.26 52.6724C302.861 55.7073 300.325 58.3425 297.12 60.0945C293.916 61.8466 290.424 62.5034 287.291 61.9457C284.157 61.388 281.755 59.6819 280.529 57.141C279.301 54.6001 279.397 51.5299 280.795 48.495Z" fill="#97C777"/>
<path d="M300.419 50.6964C300.845 49.5892 300.969 48.5293 300.788 47.5188L298.102 48.0199C298.357 49.1129 298.269 50.1269 297.837 51.0631C297.173 52.5027 296.329 53.1311 295.305 52.9484C294.792 52.8576 294.394 52.5876 294.114 52.1395C293.832 51.6915 293.662 50.9063 293.603 49.7838C293.544 48.6613 293.425 47.8832 293.246 47.4504C293.067 47.0177 292.779 46.6581 292.383 46.374C291.988 46.0898 291.492 45.8941 290.894 45.788C290.012 45.6312 289.109 45.7609 288.185 46.1782C287.263 46.5956 286.479 47.2359 285.836 48.1013L284.074 47.7877L283.079 49.9465L284.748 50.233C284.332 51.4097 284.227 52.3235 284.434 52.972L286.958 52.6159C286.719 51.642 286.819 50.6763 287.26 49.7213C287.52 49.1554 287.88 48.7451 288.338 48.4904C288.796 48.2357 289.265 48.1508 289.745 48.2357C290.564 48.3807 291.009 49.4089 291.084 51.3201C291.125 52.327 291.247 53.0698 291.453 53.5485C291.657 54.0272 291.971 54.4198 292.395 54.7264C292.819 55.033 293.352 55.244 293.995 55.3584C294.904 55.5199 295.827 55.3784 296.765 54.9339C297.704 54.4894 298.532 53.7867 299.249 52.8258L301.488 53.2243L302.483 51.0654L300.419 50.6976V50.6964Z" fill="#97C777"/>
<path d="M296.589 28.6286C295.348 27.4953 295.34 25.4836 296.571 24.1352C297.802 22.7869 299.806 22.6126 301.047 23.7459C302.288 24.8791 302.296 26.8909 301.065 28.2392C299.834 29.5876 297.83 29.7619 296.589 28.6286Z" fill="#74B85B"/>
<path d="M274.351 70.9019C273.043 72.3379 273.243 73.7941 274.799 74.1537C276.356 74.5133 278.678 73.642 279.987 72.2059C281.296 70.7698 281.096 69.3137 279.539 68.9541C277.983 68.5944 275.66 69.4658 274.351 70.9019Z" fill="#74B85B"/>
<path d="M252.217 70.2166L259.516 75.1663C259.516 75.1663 260.923 69.2439 257.493 68.3513L252.217 70.2178V70.2166Z" fill="#74B85B"/>
<path d="M287.66 86.2828L292.762 81.6585C292.762 81.6585 285.022 80.8473 279.745 83.9707L287.66 86.2828Z" fill="#74B85B"/>
<path d="M289.683 10.2582C289.683 9.96581 282.549 8.79736 282.549 8.79736L282.512 16.1818C282.512 16.1818 289.683 15.3694 289.683 10.2582Z" fill="#74B85B"/>
<path d="M317.818 19.9741C317.818 19.9741 311.757 19.019 310.262 12.4871H317.818V19.9741Z" fill="#74B85B"/>
<path d="M99.4807 188.01C99.4807 188.01 55.3262 159.123 48.6905 134.438C48.6905 134.438 20.7669 139.842 1.00001 131.25C1.00001 131.25 15.9363 175.146 41.6739 194.37C41.6739 194.37 78.4345 201.154 99.4807 188.009V188.01Z" fill="#97C777" stroke="#1B1532" stroke-width="0.951498" stroke-miterlimit="10"/>
<path d="M10.3834 141.784C12.6142 146.142 15.7693 152.015 19.7628 158.545C24.084 165.61 28.3168 171.645 32.3433 176.483C37.1986 182.314 41.7392 186.385 45.8423 188.582C47.4718 188.786 56.0281 189.397 66.5159 189.397C72.5314 189.397 77.6733 188.861 82.7833 188.224C86.4667 187.765 86.1896 187.387 89.307 186.606C84.7488 183.874 79.2909 179.107 71.3476 172.322C63.4043 165.538 50.4654 150.837 46.3068 140.865C43.2283 141.273 33.9916 141.819 25.7099 141.819C19.863 141.819 13.2897 140.696 9.40121 139.786L10.3822 141.786L10.3834 141.784ZM4.76988 135.149C9.18899 137.756 18.7877 138.768 25.8243 138.768C35.6753 138.768 47.243 136.863 47.243 136.863C55.428 160.833 94.5137 187.592 94.5137 187.592C84.849 191.378 73.2435 193.006 63.1886 193.006C51.9569 193.006 42.7779 191.13 42.7779 191.13C24.6582 181.167 4.77106 135.149 4.77106 135.149H4.76988Z" fill="#74B85B"/>
<path d="M87.5809 183.117C87.5809 183.117 81.4203 183.136 85.0659 189.778L94.5137 187.66L87.5821 183.117H87.5809Z" fill="#74B85B"/>
<path d="M50.9994 189.392L43.7953 188.622L38.2797 184.387C38.2797 184.387 45.3352 181.306 50.9982 189.392H50.9994Z" fill="#74B85B"/>
<path d="M50.7231 147.234L48.0679 140.785L41.6739 141.074C41.6739 141.074 43.0593 145.117 50.722 147.234H50.7231Z" fill="#74B85B"/>
<path d="M15.7734 139.626L8.61774 138.47L13.0592 147.231C13.0592 147.231 16.7438 144.439 15.7734 139.626Z" fill="#74B85B"/>
<path d="M29.1699 149.753C27.8471 147.936 27.6949 145.793 28.8298 144.967C29.9647 144.141 31.9571 144.943 33.2799 146.76C34.6027 148.577 34.7549 150.719 33.62 151.546C32.4851 152.372 30.4927 151.569 29.1699 149.753Z" fill="#74B85B"/>
<path d="M62.5937 187.017C60.8072 185.988 59.8891 184.234 60.543 183.098C61.1969 181.963 63.1752 181.877 64.9617 182.906C66.7482 183.935 67.6663 185.689 67.0124 186.824C66.3585 187.96 64.3802 188.046 62.5937 187.017Z" fill="#74B85B"/>
<path d="M41.8219 172.783C36.1612 168.836 33.4825 162.896 35.8387 159.518C38.195 156.139 44.694 156.6 50.3547 160.547C56.0154 164.495 58.6941 170.434 56.3378 173.813C53.9816 177.191 47.4826 176.731 41.8219 172.783Z" fill="#74B85B"/>
<path d="M55.9526 165.493C52.3494 159.995 45.0121 156.057 39.5637 156.697C34.1153 157.337 32.6202 162.313 36.2234 167.812C39.8266 173.31 47.1639 177.248 52.6123 176.608C58.0607 175.968 59.5558 170.992 55.9526 165.493ZM57.8709 165.268C58.9226 166.872 59.6312 168.467 59.9779 170.006C60.3127 171.492 60.2962 172.863 59.9307 174.082C59.564 175.302 58.866 176.306 57.8556 177.07C56.8086 177.861 55.4715 178.358 53.881 178.544C52.2916 178.73 50.5419 178.597 48.6813 178.148C46.8856 177.714 45.064 177.004 43.2671 176.04C41.4702 175.075 39.7877 173.903 38.2656 172.557C36.6892 171.162 35.3568 169.641 34.3051 168.036C33.2534 166.431 32.5448 164.837 32.1981 163.298C31.8633 161.812 31.8798 160.441 32.2453 159.222C32.612 158.002 33.31 156.998 34.3204 156.234C35.3674 155.443 36.7045 154.946 38.295 154.76C39.8844 154.574 41.6341 154.707 43.4947 155.156C45.2904 155.59 47.112 156.3 48.9089 157.264C50.7058 158.229 52.3883 159.401 53.9104 160.747C55.4868 162.142 56.8192 163.663 57.8709 165.268Z" fill="#74B85B"/>
<path d="M55.3511 165.567C51.9684 160.405 45.0804 156.708 39.9668 157.31C34.8532 157.911 33.449 162.582 36.8317 167.743C40.2144 172.905 47.1025 176.601 52.216 176C57.3296 175.399 58.7338 170.727 55.3511 165.567ZM56.4311 165.439C58.2575 168.227 58.9001 170.974 58.2386 173.175C57.5772 175.375 55.6919 176.766 52.9305 177.091C50.168 177.415 46.8607 176.634 43.616 174.893C40.3712 173.151 37.578 170.657 35.7517 167.869C33.9253 165.082 33.2827 162.335 33.9442 160.133C34.6056 157.933 36.4909 156.542 39.2523 156.218C42.0148 155.894 45.3221 156.674 48.5668 158.416C51.8116 160.157 54.6048 162.652 56.4311 165.439Z" fill="#97C777"/>
<path d="M40.334 168.511C41.0615 169.507 41.9599 170.39 43.0305 171.16L44.4843 170.094C43.284 169.278 42.4021 168.44 41.8385 167.579C40.9719 166.257 40.9907 165.543 41.8951 165.437C42.3466 165.384 42.8819 165.503 43.5009 165.794C44.1199 166.085 44.9724 166.675 46.0606 167.564C47.1477 168.453 47.9578 169.049 48.4907 169.354C49.0224 169.658 49.5624 169.876 50.1107 170.007C50.659 170.138 51.1954 170.173 51.7225 170.112C52.5006 170.02 53.0253 169.693 53.2965 169.13C53.5677 168.566 53.5312 167.857 53.1869 167.003L54.7397 166.82L53.4404 164.837L51.9783 165.018C51.1789 163.968 50.4031 163.207 49.6509 162.737L48.1771 163.647C49.2559 164.372 50.0824 165.174 50.6578 166.051C50.9985 166.571 51.1235 166.99 51.0339 167.308C50.9431 167.626 50.6873 167.81 50.264 167.86C49.5436 167.945 48.2667 167.227 46.4332 165.708C45.4652 164.907 44.6859 164.34 44.0928 164.005C43.5009 163.671 42.9102 163.432 42.3207 163.291C41.7312 163.149 41.1534 163.111 40.5875 163.178C39.7869 163.272 39.2575 163.614 39.0005 164.204C38.7434 164.793 38.8059 165.563 39.1879 166.513L37.2142 166.746L38.5135 168.729L40.3328 168.515L40.334 168.511Z" fill="#97C777"/>
<path d="M210.806 123.102C210.158 124.189 205.825 134.379 205.825 134.379L198.468 143.094L197.588 144.139L197.474 146.272L197.369 148.156L201.273 170.491L204.738 176.455L205.062 184.588L201.273 194.888L196.068 200.093L189.785 204.867C189.785 204.867 181.224 208.226 180.252 208.336C179.279 208.445 168.659 207.034 168.659 207.034C168.659 207.034 159.231 204.328 148.291 196.953C137.346 189.578 138.972 179.169 138.972 179.169C138.972 179.169 126.731 178.3 126.078 178.195C125.429 178.086 119.256 172.771 119.256 172.771C119.256 172.771 115.353 165.396 115.681 164.857C116.005 164.317 111.891 154.338 111.891 154.338L111.605 151.594L108.859 125.491C108.859 125.491 109.398 120.286 109.942 119.852C110.485 119.418 113.411 111.289 113.411 111.289L109.824 96.0078L115.58 96.4335L138.98 102.291L164.115 109.451L178.984 111.066L194.127 112.705L210.052 115.524C210.052 115.524 211.459 122.031 210.81 123.114L210.806 123.102Z" fill="#EFB09E"/>
<path d="M126.006 178.235L121.673 181.544C121.673 181.544 106.885 186.584 106.396 186.584C106.08 186.584 101.116 189.146 97.6248 190.975C95.692 191.982 94.2055 192.766 94.2055 192.766L89.9146 196.744L84.1456 202.092L83.1518 203.015L79.7031 208.7L78.1156 211.313L59.7559 214.567L52.6015 213.753L44.3144 210.989L38.3012 204.482C38.3012 204.482 37.6443 200.369 37.2611 197.819C37.1095 196.782 37.0001 195.999 37.0001 195.859C37.0001 195.371 37.8127 188.05 37.8127 188.05L43.3375 180.895L48.0495 177.641L74.052 173.25L115.391 164.008L119.067 169.996C119.067 169.996 119.231 174.876 120.692 175.525C122.153 176.174 125.998 178.235 125.998 178.235H126.006Z" fill="#2A2644"/>
<path d="M218.372 142.992L239.772 139.195L238.85 148.357L242.425 153.562L229.262 159.42L211.386 165.273L207.647 165.927L200.337 164.624L197.734 149.499L204.56 142.992L213.336 146.081L214.637 146.895L218.372 142.992Z" fill="#2A2644"/>
<path d="M222.92 109.166L218.368 142.994L215.062 147.335L202.712 143.648L199.116 144.018L197.511 144.187L198.455 143.066L205.744 134.431C205.744 134.431 210.077 124.241 210.725 123.153C211.378 122.07 209.967 115.564 209.967 115.564L194.041 112.744L179.042 111.122L164.03 109.495L138.895 102.335L115.495 96.477L109.372 96.3126L113.326 111.337C113.326 111.337 110.404 119.466 109.857 119.9C109.318 120.334 108.774 125.539 108.774 125.539L111.52 151.642L103.245 147.66L96.5248 138.553L95.9858 132.695L95.3373 113.827L101.839 108.298V103.418L95.4468 102.769L78.9779 101.252C78.9779 101.252 76.5945 96.911 76.2703 96.911C75.946 96.911 78.5441 94.5257 78.5441 94.5257L89.9221 89.3211L99.8893 84.7654C99.8893 84.7654 101.679 78.2585 101.839 77.6053C101.999 76.9563 106.391 62.8047 106.391 62.8047L114.194 52.3996L117.933 48.4929L132.722 41.5014L149.136 40.0391L164.502 41.3455L166.359 41.5014L189.275 46.5417L206.337 54.9956L218.524 70.6096L222.587 88.1748L222.912 109.158L222.92 109.166Z" fill="#2A4E9D"/>
<path opacity="0.49" d="M138.373 116.161C138.778 116.241 141.906 117.421 143.372 117.379C144.231 117.354 146.033 117.472 147.313 116.974C148.214 116.625 148.791 115.609 148.859 115.592C149.023 115.55 150.404 115.145 149.305 114.943C148.206 114.741 143.17 112.136 142.925 112.136C142.681 112.136 140.395 111.445 140.395 111.445C140.395 111.445 138.255 113.885 138.298 114.088C138.34 114.29 138.378 116.161 138.378 116.161H138.373Z" fill="white"/>
<path d="M116.545 114.075C116.545 114.075 118.983 114.303 119.619 114.21C120.255 114.118 122.87 113.625 122.87 113.625C122.87 113.625 121.964 111.635 121.333 111.501C121.042 111.437 120.335 110.358 119.404 110C118.309 109.579 116.995 109.874 116.995 109.874C116.995 109.874 115.458 109.693 115.551 109.962C115.644 110.232 116.136 114.122 116.136 114.122L116.545 114.075Z" fill="white"/>
<path d="M174.438 110.352L175.52 119.025L177.255 117.942L177.903 128.241L178.013 130.083L180.611 126.505L182.78 132.468L182.455 136.046C182.455 136.046 185.382 131.71 185.273 131.276C185.163 130.841 185.921 123.037 185.921 123.037L187.871 125.966L188.519 120.112L188.734 116.749L195.669 112.522L181.908 111.114L174.434 110.356L174.438 110.352Z" fill="#2A2644"/>
<path d="M111.275 106.072C111.275 106.072 108.348 103.228 135.976 109.081C163.604 114.935 175.142 118.109 175.142 118.109L174.439 110.354L160.029 107.969L153.422 105.799C153.422 105.799 126.392 99.0767 125.903 98.9124C125.415 98.748 109.856 96.1562 109.856 96.1562L111.275 106.068V106.072Z" fill="#DD857F"/>
<path d="M188.309 121.963C188.309 121.963 192.208 124.023 193.294 127.492C194.381 130.96 193.943 130.636 196.111 130.202C198.28 129.768 200.335 126.948 200.12 125.865C199.906 124.782 207.161 121.638 207.161 121.638L208.567 127.601C208.567 127.601 210.193 121.963 210.302 120.336C210.412 118.709 210.412 115.675 208.896 115.241C207.38 114.807 196.869 112.641 196.869 112.641L189.61 115.675L188.852 118.928L188.309 121.963Z" fill="#DD857F"/>
<path d="M113.549 112.74C113.549 112.74 114.118 111.602 114.686 110.868C115.255 110.135 115.987 109.322 115.987 109.322C115.987 109.322 120.068 109.659 120.392 109.983C120.716 110.308 122.211 112.567 122.822 112.28C123.432 111.994 124.291 111.53 123.883 110.148C123.479 108.765 121.676 106.313 121.676 106.313C121.676 106.313 121.352 105.095 120.944 105.175C120.535 105.255 114.85 103.873 114.362 104.037C113.874 104.201 111.52 105.339 111.52 105.339L113.549 112.74Z" fill="#DD857F"/>
<path d="M175.878 262.459C175.878 262.459 170.728 263.677 165.363 264.966C171.238 263.36 176.825 261.831 176.825 261.831L177.487 261.742C176.615 262.13 175.878 262.454 175.878 262.454V262.459Z" fill="#B7D8E2"/>
<path d="M188.795 260.743C187.805 261.14 183.998 261.237 181.16 261.245L183.325 260.958L184.752 260.651L191.469 259.214L192.429 259.007L203.832 253.992C200.547 255.846 197.33 257.608 197.166 257.65C196.972 257.697 193.679 258.687 190.955 259.521C189.839 260.191 189.06 260.634 188.799 260.743H188.795Z" fill="#B7D8E2"/>
<path d="M210.892 249.775C210.606 250.04 209.313 250.833 207.629 251.819L213.436 246.007L216.253 239.281C216.337 239.526 214.303 246.846 213.983 246.846C213.663 246.846 211.869 248.877 210.892 249.771V249.775Z" fill="#B7D8E2"/>
<path d="M239.95 292.509L239.011 301.89C239.011 301.89 213.173 317.504 179.043 319.455C144.918 321.41 91.4475 307.259 91.4475 307.259L91.2075 302.378L88.2009 285.058L86.9039 282.453L87.1439 275.866L82.6719 256.266L83.5647 256.835L89.4978 261.635L105.748 266.431L123.139 268.546C123.139 268.546 127.611 270.417 127.851 270.417C128.091 270.417 133.62 270.257 133.62 270.257C133.62 270.257 137.359 266.919 138.008 266.35C138.656 265.782 140.446 267.493 140.446 267.493C140.446 267.493 141.718 267.632 143.415 267.809C145.621 268.045 148.548 268.348 150.35 268.512C151.125 268.584 151.689 268.63 151.895 268.635C151.929 268.635 151.954 268.635 151.967 268.635C151.975 268.635 151.984 268.635 151.988 268.635H151.996C161.29 267.859 188.901 265.516 190.253 264.981C191.878 264.332 212.027 267.585 216.579 284.497C219.776 296.382 232.602 294.62 239.946 292.521L239.95 292.509Z" fill="#B7D8E2"/>
<path d="M229.852 230.9L240.45 221.852L239.987 222.362L231.376 230.002L229.852 230.9Z" fill="#B7D8E2"/>
<path d="M256.993 202.844L257.103 202.886C256.707 203.602 256.395 204.146 256.395 204.146L253.523 207.328L256.989 202.844H256.993Z" fill="#B7D8E2"/>
<path d="M276.226 200.904L270.103 203.509C270.103 203.509 269.101 201.789 267.871 199.729L269.349 198.953L270.217 202.856L279.316 199.821L276.23 200.904H276.226Z" fill="#B7D8E2"/>
<path d="M279.476 210.327L277.791 213.905L276.035 214.583L277.197 213.905L279.459 209.383L279.476 210.327Z" fill="#B7D8E2"/>
<path d="M139.231 178.618L141.505 189.352L146.705 196.019L158.083 203.663L173.196 208.219L179.858 209.032L169.621 215.215L167.347 216.517L156.782 214.241C156.782 214.241 155.805 210.663 155.805 209.361C155.805 208.059 153.691 205.294 153.691 205.294L148.002 203.668L138.414 207.57L133.378 213.264L128.341 219.117L123.465 231.478L120.378 246.603L120.703 257.99L123.465 268.075L120.703 268.724L92.7505 262.541L81.701 254.897L75.3636 243.025L73.9024 229.038L75.8521 217.651L83.1664 203.014L93.4032 193.418L111.279 184.311L122.817 181.058L125.09 177.969L132.241 179.271L139.231 178.622V178.618Z" fill="#B7D8E2"/>
<path d="M108.507 223.992C108.507 223.992 109.644 217.809 109.808 217.325C109.973 216.84 115.009 208.706 115.009 208.706L116.799 208.057L103.471 205.617L100.06 207.244C100.06 207.244 95.6724 211.8 95.6724 212.284C95.6724 212.769 94.3712 218.302 94.3712 218.302L93.7227 219.44L108.512 223.996L108.507 223.992Z" fill="#3366AF"/>
<path d="M133.699 211.625L148.976 212.438C148.976 212.438 156.615 215.203 156.775 214.229C156.935 213.256 155.314 206.585 155.314 206.585L151.575 204.633L147.187 203.984L137.11 208.54L134.348 211.305L133.699 211.629V211.625Z" fill="#7BB2BE"/>
<path d="M122.895 267.991C122.895 267.991 126.146 269.538 126.795 269.618C127.443 269.698 129.637 271 131.018 270.595C132.4 270.191 136.299 268.4 136.623 267.995C136.947 267.591 138.084 266.124 137.516 265.719C136.947 265.315 135.646 263.604 133.941 263.604C132.235 263.604 125.814 262.466 125.569 262.466C125.325 262.466 121.102 261.328 121.102 261.328L122.971 266.368L122.891 267.995L122.895 267.991Z" fill="#7BB2BE"/>
<path d="M199.899 164.783L207.049 165.975C207.049 165.975 213.332 163.156 214.308 163.046C215.285 162.937 233.7 159.578 233.7 159.578C233.7 159.578 237.494 159.688 238.033 159.469C238.572 159.249 243.667 155.891 243.667 155.891L247.461 157.408L249.087 157.298L250.927 164.454L248.329 165.971L243.238 168.142L234.786 174.105L235.22 175.297L238.252 176.924L237.17 180.936C237.17 180.936 238.252 182.778 237.713 182.887C237.174 182.997 225.362 189.934 225.362 189.934L208.354 195.787L197.844 199.475C197.844 199.475 202.501 192.753 203.259 191.451C204.017 190.149 205.857 180.717 205.857 180.717C205.857 180.717 203.689 175.297 203.689 174.429C203.689 173.561 201.09 169.01 201.09 169.01L199.899 164.783Z" fill="#B7D8E2"/>
<path d="M121.104 261.316C121.673 261.83 135.434 264.325 135.434 264.325L131.101 260.422L125.9 248.711L124.599 233.421L129.69 221.061C129.69 221.061 130.667 219 131.859 218.351C133.05 217.702 136.845 216.615 137.274 216.615C137.704 216.615 141.392 218.785 142.15 219.215C142.908 219.645 149.086 221.166 150.383 221.49C151.68 221.815 160.998 220.947 160.998 220.947C160.998 220.947 163.597 220.188 164.249 219.864C164.902 219.539 167.824 216.935 167.824 216.935C167.824 216.935 160.131 215.093 159.483 214.984C158.834 214.874 146.155 212.055 146.155 212.055L133.804 212.598L125.787 223.117L121.02 240.682L119.828 255.319L121.1 261.311L121.104 261.316Z" fill="#2A2644"/>
<path d="M257.102 202.884C256.707 203.6 256.395 204.144 256.395 204.144L253.523 207.325L240.44 221.848L239.981 222.358L231.365 229.998L229.841 230.896L216.741 238.617C216.741 238.617 215.368 238.865 214.168 239.097C213.431 239.236 212.761 239.367 212.513 239.43C212.096 239.535 209.018 237.458 206.9 235.983C205.746 235.178 204.878 234.55 204.878 234.55L201.72 228.953L201.712 228.945L200.655 227.065C200.655 227.065 198.747 219.564 198.554 217.676C198.533 217.503 198.528 217.377 198.541 217.309C198.541 217.301 198.541 217.292 198.541 217.284C198.697 216.327 198.697 207.873 198.697 207.873L196.423 204.78L195.572 204.696C195.547 204.696 195.518 204.696 195.488 204.687L191.387 204.291L191.766 203.048C191.766 203.048 203.737 196.651 204.71 196.486C205.687 196.326 218.85 191.77 218.85 191.77L236.726 183.801L244.853 179.734L247.615 181.85L255.09 191.446C255.09 191.446 255.641 192.664 256.319 194.147C257.313 196.343 258.568 199.124 258.669 199.415C258.774 199.731 257.806 201.586 257.098 202.871L257.102 202.884Z" fill="#2A2644"/>
<path d="M330.996 129.111C330.996 129.111 327.96 138.112 327.636 138.433C327.311 138.757 319.618 146.351 319.618 146.351L316.801 151.227L308.025 167.275C308.025 167.275 293.506 187.66 293.182 187.879C292.858 188.094 278.334 200.24 278.229 200.564C278.119 200.889 270.102 203.493 270.102 203.493L268.805 198.832L270.321 195.035L271.622 190.045L271.319 189.232L269.453 184.191L271.188 182.565L280.831 173.673C280.831 173.673 284.187 164.671 284.297 164.237C284.406 163.807 286.79 149.061 286.79 149.061L286.811 148.968L287.329 147.013L288.63 142.116L287.329 134.741C287.329 134.741 287.543 131.816 287.438 131.707C287.329 131.601 289.927 130.08 289.927 130.08L291.228 131.707L291.013 128.129L292.853 123.139L290.845 121.133L287.055 120.374L284.183 120.32L283.535 118.368L284.722 117.285L297.666 112.245L308.017 109.695L318.742 111.971L326.545 118.368L329.253 122.814L330.815 128.466L330.987 129.098L330.996 129.111Z" fill="#2A4E9D"/>
<path d="M249.082 166.087L250.598 162.618C250.598 162.618 249.406 153.511 249.731 152.967C250.055 152.424 250.164 147.438 250.164 147.438C250.164 147.438 274.541 149.39 274.866 149.39C275.19 149.39 278.226 149.499 278.874 149.39C279.523 149.28 281.691 141.8 281.691 141.8C281.691 141.8 283.098 133.885 283.098 133.451C283.098 133.017 278.331 130.198 278.007 129.983C277.683 129.768 262.296 127.273 262.73 127.382C263.163 127.492 257.205 128.79 257.205 128.79L258.94 124.993C258.94 124.993 261.866 120.766 262.839 120.222C263.812 119.679 269.556 116.859 270.314 116.859C271.072 116.859 274.432 118.377 274.432 118.377C274.432 118.377 276.272 116.969 277.897 117.074C279.523 117.18 283.153 119.245 283.153 119.245L286.349 120.871C286.349 120.871 289.924 120.437 290.358 120.762C290.791 121.086 292.85 122.279 292.85 122.279C292.85 122.279 291.225 128.891 291.01 129.325C290.796 129.759 287.759 131.386 287.759 131.386L286.353 135.074C286.353 135.074 287.654 139.41 287.654 139.954C287.654 140.497 287.869 143.966 287.654 144.29C287.439 144.615 285.919 153.831 285.919 153.831C285.919 153.831 284.403 164.89 283.97 165.758C283.536 166.626 281.043 174.216 280.285 174.975C279.527 175.733 271.295 181.157 270.642 182.021C269.989 182.885 269.341 184.191 269.017 183.757C268.692 183.323 260.999 173.997 260.999 173.997L251.356 167.49L249.082 166.082V166.087Z" fill="#B7D8E2"/>
<path d="M249.513 157.194C248.212 157.518 245.29 158.062 245.29 158.062C245.29 158.062 243.016 154.374 241.824 152.857C240.632 151.34 239.55 150.906 239.331 148.196C239.116 145.486 240.089 134.099 240.738 133.016C241.386 131.933 243.336 127.487 244.746 126.943C246.153 126.4 255.691 125.536 256.23 125.536C256.769 125.536 258.937 124.992 258.937 124.992L255.686 128.461L251.787 129.653C251.787 129.653 247.993 138.221 248.102 138.545C248.212 138.87 248.536 145.701 248.536 145.701L250.705 147.003L249.728 154.05L249.513 157.194Z" fill="#B7D8E2"/>
<path d="M249.516 146.785L278.011 150.039L279.961 149.17L283.97 133.341L277.578 128.895L267.829 127.922L253.42 128.571L252.228 129.329L249.082 136.919L247.891 141.8L248.434 146.246L249.516 146.785Z" fill="#2A4E9D"/>
<path d="M213.987 246.844C213.662 246.844 211.873 248.875 210.896 249.768C210.61 250.034 209.317 250.826 207.632 251.812C206.483 252.482 205.148 253.249 203.826 254C200.541 255.854 197.324 257.615 197.16 257.658C196.966 257.704 193.673 258.694 190.949 259.529C189.066 260.102 187.462 260.603 187.332 260.671C187.197 260.738 186.068 260.704 184.75 260.658C182.872 260.591 180.598 260.494 180.261 260.591C180.051 260.654 179.386 260.924 178.64 261.248C178.265 261.408 177.861 261.585 177.486 261.745C176.615 262.133 175.878 262.458 175.878 262.458C175.878 262.458 170.728 263.676 165.363 264.965C165.35 264.965 165.342 264.974 165.334 264.974C159.611 266.356 153.661 267.818 153.45 267.987C153.278 268.126 152.84 268.396 152.082 268.61C152.061 268.619 152.031 268.627 152.006 268.632H151.998C151.998 268.632 151.985 268.632 151.977 268.632C150.941 268.91 149.34 269.078 147.029 268.712C145.976 268.547 144.717 268.214 143.42 267.81C139.609 266.621 135.491 264.809 135.491 264.809L129.233 258.138L125.254 245.343L125.187 242.688L124.93 232.983L127.098 226.476L129.372 220.513L131.511 218.288C131.511 218.288 133.747 217.188 135.335 217.065C136.918 216.943 138.097 216.496 139.032 217.145C139.967 217.799 141.672 219.341 142.856 219.708C144.035 220.074 147.403 220.85 150.086 221.292C152.768 221.743 157.4 221.495 159.144 221.292C160.895 221.09 164.87 219.543 164.87 219.543L173.528 212.632C173.528 212.632 182.872 207.385 183.765 206.736C184.658 206.083 188.965 204.945 191.484 204.701C193.042 204.549 194.566 204.616 195.501 204.688C195.53 204.688 195.56 204.688 195.585 204.696C196.116 204.739 196.436 204.781 196.436 204.781L198.145 207.385L198.389 212.674C198.389 212.674 198.516 215.434 198.554 217.28C198.554 217.419 198.562 217.55 198.562 217.676C198.57 218.178 198.571 218.574 198.549 218.772C198.469 219.666 200.499 226.902 200.823 227.635C200.891 227.791 201.232 228.275 201.72 228.946C201.72 228.946 201.72 228.946 201.729 228.954C202.066 229.413 202.474 229.961 202.912 230.539C204.436 232.57 206.331 235.06 206.908 235.979C207.034 236.181 207.102 236.308 207.081 236.337C206.917 236.578 211.713 239.671 212.281 239.671C212.618 239.671 213.355 239.73 213.97 239.709C214.387 239.692 214.749 239.641 214.879 239.511C215.204 239.186 216.181 239.022 216.261 239.266C216.345 239.511 214.311 246.831 213.991 246.831L213.987 246.844Z" fill="white"/>
<path d="M238.033 182.245C237.709 181.162 237.924 179.316 237.709 178.123C237.494 176.931 236.951 177.799 236.408 176.387C235.865 174.975 235.541 174.326 235.65 173.892C235.76 173.458 238.791 170.639 240.851 169.446C242.91 168.253 244.859 167.276 245.836 166.736C246.813 166.197 249.411 166.521 250.603 167.28C251.795 168.038 255.26 169.016 256.562 170.314C257.863 171.612 260.68 172.809 262.196 174.87C263.712 176.931 265.556 178.448 266.963 180.618C268.369 182.789 269.889 184.087 270.538 186.472C271.186 188.857 271.405 191.027 271.62 192.325C271.835 193.628 270.971 195.903 269.451 197.315C267.935 198.723 264.575 201.976 263.493 202.52C262.411 203.064 260.351 204.69 259.484 204.362C258.616 204.033 256.991 202.844 256.991 202.844C256.991 202.844 259.16 200.135 259.16 199.591C259.16 199.047 255.799 192.111 254.717 190.159C253.635 188.208 248.973 181.811 248.434 181.701C247.895 181.592 243.343 179.206 243.343 179.206L239.12 182.675L238.038 182.241L238.033 182.245Z" fill="white"/>
<path d="M222.918 109.169L218.366 142.997L215.06 147.338L202.71 143.65L199.114 144.021C198.895 143.718 198.684 143.406 198.469 143.09L205.826 134.374C205.826 134.374 210.159 124.184 210.807 123.097C211.46 122.014 210.049 115.507 210.049 115.507L194.124 112.688L178.981 111.048C177.916 109.211 188.46 79.6306 187.816 62.3183C187.218 46.2702 175.802 45.7561 164.504 41.3438L166.361 41.4997L189.277 46.54L206.339 54.9939L218.526 70.6078L222.589 88.173L222.914 109.156L222.918 109.169Z" fill="#194187"/>
<path d="M176.386 169.664C176.386 169.664 161.442 189.652 167.695 205.81C169.539 210.568 153.416 200.892 153.416 200.892L145.183 194.17L139.768 186.58L138.981 179.155L158.835 176.39L172.487 171.834L176.386 169.664Z" fill="#DD857F"/>
<path d="M279.949 209.218L277.688 213.74L276.525 214.414L269.834 216.989L262.25 223.062L246.649 240.412L246.434 250.168L241.667 280.094L240.438 292.345C233.094 294.444 220.267 296.21 217.071 284.321C212.519 267.409 192.37 264.156 190.745 264.805C189.393 265.344 161.782 267.683 152.488 268.458C152.514 268.45 152.543 268.442 152.564 268.437C153.406 268.197 159.761 266.461 165.816 264.8C165.829 264.8 165.837 264.8 165.845 264.792C171.21 263.502 176.36 262.285 176.36 262.285C176.36 262.285 177.097 261.96 177.969 261.572L181.645 261.079C184.483 261.067 188.29 260.974 189.279 260.578C189.54 260.472 190.319 260.03 191.435 259.356C194.16 258.521 197.457 257.531 197.646 257.484C197.811 257.442 201.028 255.681 204.312 253.826L207.209 252.549L208.119 251.639C209.799 250.653 211.092 249.861 211.382 249.595C212.355 248.702 214.145 246.671 214.473 246.671C214.802 246.671 216.827 239.35 216.743 239.106L230.18 230.867L230.332 230.736L231.856 229.839L240.471 222.198L240.93 221.688L246.43 216.993L254.014 207.166L256.886 203.984C256.886 203.984 257.197 203.444 257.593 202.724L260.297 203.769L268.356 199.555C269.586 201.611 270.588 203.335 270.588 203.335L276.711 200.73L279.797 199.647L279.949 209.218Z" fill="#7BB2BE"/>
<path d="M181.157 261.255L177.48 261.749C176.609 262.136 175.872 262.461 175.872 262.461C175.872 262.461 170.722 263.679 165.357 264.968C165.345 264.968 165.336 264.977 165.328 264.977C159.272 266.637 152.918 268.373 152.076 268.614C152.055 268.622 152.025 268.63 152 268.635H151.992C151.962 268.635 151.929 268.635 151.899 268.643C150.067 268.795 148.977 268.883 148.977 268.883L150.349 268.517L177.902 261.234C177.902 261.234 178.175 261.234 178.634 261.243C179.224 261.251 180.125 261.255 181.157 261.251V261.255Z" fill="#DD857F"/>
<path d="M279.961 208.368L279.46 209.375L279.309 199.805L279.961 208.368Z" fill="#DD857F"/>
<path d="M250.927 164.461C250.927 164.461 263.062 173.134 268.478 172.266C273.893 171.398 278.011 150.04 278.011 150.04L279.961 149.171L282.993 138.003L283.102 133.448C283.102 133.448 284.294 129.326 287.76 127.16C291.225 124.99 290.791 126.077 290.791 126.077L289.924 130.089L288.488 130.713L286.698 132.744C286.698 132.744 288.16 138.029 288.16 138.438C288.16 138.846 287.511 146.651 287.511 146.651L285.073 160.474L281.662 173.159C281.662 173.159 273.864 180.804 273.535 181.128C273.207 181.453 269.013 183.758 269.013 183.758L264.679 176.573L255.495 169.417L250.215 167.221C250.215 167.221 248.998 166.328 249.078 166.083C249.158 165.839 250.918 164.457 250.918 164.457L250.927 164.461Z" fill="#7BB2BE"/>
<path d="M208.297 165.767C208.297 165.767 212.849 174.549 213.009 181.545C213.009 181.545 216.26 170.811 213.497 164.469L208.297 165.771V165.767Z" fill="#7BB2BE"/>
<path d="M88.8477 261.238C88.8477 261.238 103.801 268.718 111.924 272.785C120.051 276.852 110.298 293.279 110.298 293.279L121.188 283.034C121.188 283.034 130.612 298.973 130.452 298.484C130.292 297.995 137.766 270.185 137.766 270.185L144.268 267.909C144.268 267.909 140.284 264.576 138.903 265.145C137.522 265.714 133.054 270.349 133.054 270.349L124.927 269.7L119.402 268.562L103.636 265.962L89.4962 260.922" fill="#7BB2BE"/>
<path opacity="0.49" d="M213.988 246.842C213.663 246.842 211.874 248.874 210.897 249.767C210.61 250.032 209.318 250.825 207.633 251.811C206.484 252.481 205.149 253.248 203.827 253.998C200.542 255.852 197.325 257.614 197.161 257.656C196.967 257.703 193.674 258.693 190.95 259.527C189.067 260.1 187.463 260.602 187.332 260.669C187.198 260.737 186.069 260.703 184.751 260.657C182.873 260.589 180.599 260.492 180.262 260.589C180.052 260.653 179.386 260.922 178.641 261.247C178.266 261.407 177.862 261.584 177.487 261.744C176.616 262.132 175.879 262.456 175.879 262.456C175.879 262.456 170.729 263.674 165.364 264.964C165.351 264.964 165.343 264.972 165.335 264.972C159.612 266.354 153.662 267.817 153.451 267.985C153.279 268.124 152.841 268.394 152.083 268.609C152.062 268.618 152.032 268.626 152.007 268.63H151.999C151.999 268.63 151.986 268.63 151.977 268.63C150.942 268.908 149.341 269.077 147.03 268.71C145.977 268.546 144.718 268.213 143.421 267.808C139.61 266.62 135.492 264.808 135.492 264.808L129.234 258.137L125.255 245.342L125.188 242.687C125.579 240.614 125.903 239.109 125.903 239.109C125.903 239.109 133.058 256.999 141.345 258.465C149.632 259.928 161.006 253.585 161.006 253.585L160.357 240.576C160.357 240.576 164.581 251.634 165.233 251.963C165.882 252.287 174.658 253.914 184.574 251.474C194.487 249.029 206.349 243.18 203.747 240.9C201.149 238.624 200.496 230.655 201.473 230.166C201.616 230.095 202.134 230.242 202.913 230.546C204.437 232.577 206.332 235.067 206.909 235.986C207.035 236.188 207.103 236.315 207.082 236.344C206.917 236.585 211.714 239.678 212.282 239.678C212.619 239.678 213.356 239.737 213.971 239.716C214.388 239.699 214.75 239.648 214.88 239.518C215.205 239.193 216.182 239.029 216.262 239.273C216.346 239.518 214.312 246.838 213.992 246.838L213.988 246.842Z" fill="#9FC4D3"/>
<path opacity="0.49" d="M237.598 177.477L239.657 176.719L244.749 179.319C244.749 179.319 246.1 180.764 247.696 182.48C249.932 184.882 252.64 187.802 252.766 187.992C252.981 188.316 254.935 193.521 258.615 192.329C262.3 191.136 269.016 185.282 269.016 185.282L271.075 190.272L270.317 196.994C270.317 196.994 265.226 203.067 264.14 203.391C263.053 203.716 257.638 203.825 257.638 203.825C257.638 203.825 257.204 202.089 257.748 201.549C258.291 201.01 259.049 199.274 258.615 198.62C258.181 197.967 253.874 190.449 253.874 190.449L250.867 186.424L245.991 181.22L243.877 179.635C243.877 179.635 240.79 181.262 240.504 181.628C240.218 181.995 238.024 182.252 238.024 182.252L237.211 178.864L237.59 177.482L237.598 177.477Z" fill="#9FC4D3"/>
<path d="M99.8858 190.172L89.9228 196.742L86.0908 199.271C86.0908 199.271 85.2697 200.459 84.158 202.094C82.7937 204.092 80.9914 206.747 79.7155 208.698C78.7806 210.122 78.1279 211.172 78.1279 211.311L59.7683 214.564L52.6139 213.751L44.3268 210.986L38.3136 204.479C38.3136 204.479 37.6567 200.366 37.2735 197.817C37.5177 197.29 37.6651 196.999 37.6651 196.999C37.6651 196.999 42.7014 200.573 60.4168 199.439C74.6918 198.52 91.6072 193.059 97.6372 190.981C98.9721 190.517 99.7764 190.222 99.8943 190.18L99.8858 190.172Z" fill="#1C1C3A"/>
<path d="M330.996 129.109C330.996 129.109 327.96 138.11 327.636 138.431C327.311 138.755 319.618 146.349 319.618 146.349L316.801 151.225L308.025 167.273C308.025 167.273 293.506 187.658 293.182 187.877C292.858 188.092 278.334 200.238 278.229 200.562C278.119 200.887 270.102 203.491 270.102 203.491L268.805 198.83L270.321 195.033L271.622 190.043L271.319 189.23C271.521 189.133 271.727 189.044 271.946 188.96C284.516 183.97 299.25 164.024 297.949 157.517C296.647 151.01 289.282 149.927 289.282 149.927L288.794 149.063L286.815 148.971L286.36 148.95L287.333 147.015L287.522 146.649L288.335 141.119L293.7 139.779L295.784 141.908L302.505 141.693C302.505 141.693 305.322 137.352 309.221 137.352C312.396 137.352 325.917 130.883 330.827 128.477L331 129.109H330.996Z" fill="#194187"/>
<path d="M202.716 146.028C202.716 146.028 203.365 151.666 208.894 152.64C214.418 153.618 238.85 148.358 238.85 148.358L242.425 153.563L236.412 156.437C236.412 156.437 221.787 161.317 221.244 161.642C220.701 161.966 208.296 165.763 208.296 165.763L203.365 164.137C203.365 164.137 198.813 164.571 199.141 164.351C199.465 164.137 198.164 149.821 198.164 149.821L202.716 146.023V146.028Z" fill="#1C1C3A"/>
<path d="M188.629 140.391C188.629 140.391 193.939 146.029 190.903 152.102C187.871 158.175 199.893 164.787 199.893 164.787L196.588 144.377L193.093 144.542L189.762 141.533L188.625 140.395L188.629 140.391Z" fill="#DD857F"/>
<path d="M115.609 150.96C115.609 150.96 117.913 149.009 118.995 147.163C120.077 145.321 120.187 147.053 122.461 146.619C124.735 146.185 125.467 144.938 127.96 146.35C130.453 147.761 137.818 152.098 137.818 152.098L131.468 149.86L126.634 149.371C126.634 149.371 122.936 150.227 122.814 150.142C122.692 150.058 119.808 149.371 119.808 149.371L117.045 150.796L115.744 151.529L115.609 150.96Z" fill="#C66075"/>
<path d="M116.071 151.774C116.071 151.774 115.961 153.726 120.105 154.375C124.248 155.024 126.198 154.552 130.017 154.227C133.837 153.903 138.671 152.478 138.266 152.478C137.862 152.478 131.47 149.861 131.47 149.861C131.47 149.861 126.147 149.09 125.823 149.17C125.499 149.25 121.84 149.983 121.84 149.983L119.81 149.372L116.559 151.281L116.071 151.77V151.774Z" fill="#D78392"/>
<path d="M123.925 111.211C123.925 111.211 123.222 107.957 126.523 108.446C129.829 108.935 129.176 112.947 127.5 117.553C125.824 122.159 125.74 124.616 125.74 124.616C125.74 124.616 126.608 127.545 129.479 125.105C132.351 122.665 133.543 110.25 142.049 110.359C150.555 110.469 136.958 108.408 133.543 106.996C130.132 105.589 122.818 105.479 122.653 105.534C122.489 105.589 119.946 106.347 120.215 106.347C120.485 106.347 123.925 111.215 123.925 111.215V111.211Z" fill="#DD857F"/>
<path d="M114.745 133.395L116.749 132.312C116.749 132.312 117.776 133.125 120.972 132.527C120.972 132.527 121.613 131.983 122.484 131.714C123.461 131.41 124.737 131.444 125.739 132.961C127.634 135.835 132.346 135.401 132.835 135.456C133.323 135.511 132.67 138.111 131.588 138.166C130.506 138.22 124.493 139.143 123.84 141.798C123.84 141.798 120.754 141.149 119.831 142.991C119.831 142.991 119.019 140.551 117.069 139.034C115.119 137.517 113.928 136.484 113.982 135.78C114.037 135.077 114.74 133.395 114.74 133.395H114.745Z" fill="#DD857F"/>
<path d="M118.906 169.341C118.906 169.341 125.366 172.737 133.329 173.386C141.292 174.035 158.055 170.247 164.717 167.318C171.379 164.389 174.646 162.943 178.979 158.607C183.312 154.27 188.513 141.042 188.947 138.871C189.38 136.701 194.362 147.978 194.362 147.978C194.362 147.978 192.193 154.485 191.979 155.134C191.764 155.783 180.95 168.658 177.051 169.307C173.152 169.956 162.511 175.519 162.511 175.519C162.511 175.519 147.558 179.421 144.311 179.421C141.064 179.421 127.408 180.289 126.111 179.206C124.81 178.123 119.26 172.754 119.26 172.754L118.906 169.336V169.341Z" fill="#DD857F"/>
<path d="M121.592 157.066C121.592 157.066 123.621 154.95 126.628 156.986C129.635 159.021 130.039 159.831 130.039 159.831C130.039 159.831 125.815 161.537 123.049 160.319C120.286 159.102 121.587 157.066 121.587 157.066H121.592Z" fill="#EFB8AB"/>
<path d="M299.741 142.179C303.209 141.598 305.236 136.436 304.268 130.649C303.301 124.861 299.705 120.641 296.237 121.222C292.769 121.803 290.741 126.965 291.709 132.752C292.677 138.539 296.273 142.76 299.741 142.179Z" fill="#2A2644"/>
<path d="M289.063 141.313L293.724 139.252L290.907 133.508L290.474 129.82L287.438 131.717L286.465 134.047L287.657 139.956L289.063 141.313Z" fill="#2A2644"/>
<path d="M136.41 118.818C136.41 118.818 138.145 120.988 142.638 120.933C147.135 120.878 150.222 118.763 150.222 118.763L153.987 115.362L147.729 113.938L149.355 115.809L148.298 116.542L144.074 117.52L140.987 117.115C140.987 117.115 142.154 120.529 136.41 118.822V118.818Z" fill="#DD857F"/>
<path d="M114.988 114.988C114.988 114.988 115.068 116.859 118.159 116.37C121.246 115.881 123.726 113.525 123.726 113.525L124.215 110.314L122.547 108.852C122.547 108.852 123.444 111.62 123.162 112.796C122.88 113.972 121.532 113.812 120.353 113.812C119.174 113.812 118.483 116.13 114.988 114.992V114.988Z" fill="#DD857F"/>
<path d="M141.377 132.21C139.924 131.771 139.465 129.938 140.539 128.868C141.983 127.427 143.849 125.303 144.994 123.014C147.062 118.872 161.623 123.857 160.322 129.458C159.261 134.022 147.302 134.001 141.381 132.214L141.377 132.21Z" fill="#EFB8AB"/>
<path d="M112.94 119.533C112.09 119.694 111.483 120.456 111.521 121.324C111.563 122.353 111.926 123.769 113.269 125.109C115.791 127.633 119.008 122.079 118.25 120.187C117.72 118.855 114.692 119.209 112.94 119.538V119.533Z" fill="#EFB8AB"/>
<path d="M120.565 132.941C121.42 132.789 122.03 132.031 122.001 131.163C121.967 130.134 121.618 128.714 120.287 127.361C117.786 124.816 114.522 130.341 115.263 132.242C115.785 133.578 118.813 133.249 120.565 132.937V132.941Z" fill="#EFB8AB"/>
<path d="M125.872 124.344C125.872 124.344 125.384 132.722 123.514 132.963C121.644 133.203 129.691 137.19 131.641 136.865C133.591 136.541 134.892 136.785 132.942 132.309C130.993 127.838 130.584 123.607 132.21 118.242C133.835 112.877 125.872 124.34 125.872 124.34V124.344Z" fill="#DD857F"/>
<path d="M110.35 95.8873C110.918 98.7993 111.508 101.716 112.131 104.611C112.447 106.056 112.75 107.506 113.154 108.884C113.365 109.609 113.575 110.368 113.689 111.194C113.807 112.011 113.803 112.896 113.63 113.731C113.466 114.569 113.167 115.353 112.809 116.074C112.725 116.259 112.628 116.432 112.531 116.609L112.249 117.115C112.068 117.431 111.895 117.747 111.722 118.063C111.044 119.336 110.442 120.642 110.042 121.97C109.844 122.631 109.701 123.301 109.63 123.963C109.596 124.279 109.592 124.654 109.579 125.012L109.545 126.095C109.562 126.824 109.554 127.549 109.588 128.274C109.634 129.003 109.642 129.732 109.714 130.461C110.169 136.307 111.28 142.135 112.506 147.93L113.457 152.283L113.937 154.466C114.102 155.187 114.253 155.895 114.439 156.598C115.146 159.426 116.169 162.132 117.344 164.858C117.921 166.224 118.51 167.61 119.049 169.022C119.323 169.722 119.567 170.476 119.816 171.07C120.081 171.694 120.401 172.288 120.776 172.84C121.53 173.944 122.519 174.876 123.673 175.597C124.827 176.321 126.124 176.844 127.48 177.232C130.204 177.99 133.118 178.197 136.028 178.188C138.95 178.155 141.89 177.935 144.816 177.607C150.669 176.937 156.476 175.803 162.148 174.206C164.986 173.409 167.783 172.474 170.515 171.391C173.261 170.316 175.948 169.199 178.887 168.369C177.775 169.427 176.524 170.282 175.223 171.045C173.922 171.804 172.554 172.444 171.156 172.992C168.372 174.13 165.53 175.108 162.649 175.951C156.889 177.632 151.002 178.842 145.048 179.583C142.071 179.95 139.072 180.19 136.049 180.241C133.021 180.266 129.943 180.076 126.924 179.255C125.421 178.833 123.93 178.252 122.557 177.396C121.184 176.549 119.951 175.411 119.024 174.063C118.557 173.388 118.165 172.668 117.845 171.926C117.517 171.15 117.306 170.485 117.037 169.802C116.519 168.436 115.946 167.079 115.365 165.706C114.19 162.966 113.099 160.088 112.367 157.138C112.173 156.405 112.013 155.654 111.849 154.925L111.373 152.751L110.421 148.385C109.192 142.544 108.072 136.652 107.608 130.626C107.537 129.876 107.524 129.113 107.486 128.358C107.457 127.6 107.469 126.837 107.461 126.079L107.507 124.932C107.524 124.549 107.533 124.178 107.579 123.756C107.672 122.939 107.853 122.147 108.088 121.388C108.564 119.871 109.234 118.467 109.967 117.127C110.152 116.794 110.337 116.461 110.531 116.133L110.796 115.665C110.88 115.513 110.964 115.366 111.036 115.21C111.343 114.603 111.579 113.983 111.71 113.364C111.992 112.129 111.718 110.84 111.314 109.424C110.893 107.94 110.607 106.469 110.299 105.007C109.714 102.078 109.179 99.1491 108.657 96.2118C108.573 95.744 108.884 95.3015 109.352 95.2172C109.811 95.1329 110.253 95.4363 110.341 95.8957L110.35 95.8873Z" fill="#1B1532"/>
<path d="M139.231 179.539C139.231 179.539 137.913 190.353 149.144 198.133C164.99 209.111 178.801 208.786 178.801 208.786" stroke="#1B1532" stroke-width="3.64" stroke-linecap="round" stroke-linejoin="round"/>
<path d="M131.594 178.945C131.594 178.945 127.799 187.943 138.04 197.214" stroke="#1B1532" stroke-width="3.64" stroke-linecap="round" stroke-linejoin="round"/>
<path d="M124.825 178.125C124.825 178.125 124.392 180.076 122.008 180.944C119.625 181.813 90.5905 188.534 79.5368 208.485C68.4874 228.435 75.3259 252.941 89.5041 260.911C101.366 267.578 124.173 268.77 124.173 268.77C124.173 268.77 131.757 274.085 137.606 265.841" stroke="#1B1532" stroke-width="3.64" stroke-linecap="round" stroke-linejoin="round"/>
<path d="M82.3555 255.383C82.3555 255.383 86.9076 272.784 86.9076 277.339C86.9076 281.895 85.9306 282.544 87.2318 284.171C88.5329 285.797 91.4553 307.265 91.4553 307.265" stroke="#1B1532" stroke-width="3.64" stroke-linecap="round" stroke-linejoin="round"/>
<path d="M127.856 196.5C127.856 196.5 147.845 203.007 148.982 203.82C150.119 204.634 155.917 203.062 156.241 212.712" stroke="#1B1532" stroke-width="3.64" stroke-linecap="round" stroke-linejoin="round"/>
<path d="M148.98 203.828C148.98 203.828 128.009 206.184 121.676 236.518C117.124 258.311 124.169 268.775 124.169 268.775" stroke="#1B1532" stroke-width="3.64" stroke-linecap="round" stroke-linejoin="round"/>
<path d="M102.635 205.242C102.635 205.242 95.8553 207.223 93.6446 220.393L108.227 224.409C108.227 224.409 109.137 212.562 117.007 208.251L102.635 205.242Z" stroke="#1B1532" stroke-width="3.64" stroke-linecap="round" stroke-linejoin="round"/>
<path d="M133.707 212.395C133.707 212.395 150.092 210.823 167.428 216.677" stroke="#1B1532" stroke-width="3.64" stroke-linecap="round" stroke-linejoin="round"/>
<path d="M216.047 239.064C216.047 239.064 216.316 242.806 212.581 247.846C209.575 251.9 199.49 257.767 187.665 260.586C180.587 262.272 173.129 260.278 167.929 255.183C163.023 250.383 158.652 242.701 159.962 230.901C160.648 224.701 164.076 219.139 169.209 215.607C175.294 211.418 184.044 205.91 189.615 204.637C198.879 202.522 198.934 209.462 198.5 214.667C198.066 219.872 201.098 236.893 213.777 239.713C213.777 239.713 238.369 230.172 258.523 200.57" stroke="#1B1532" stroke-width="3.64" stroke-linecap="round" stroke-linejoin="round"/>
<path d="M190.695 204.366C190.695 204.366 197.845 197.859 208.465 195.693C219.081 193.522 236.582 183.821 243.568 179.43" stroke="#1B1532" stroke-width="3.64" stroke-linecap="round" stroke-linejoin="round"/>
<path d="M164.091 220.089C143.289 224.969 142.317 216.022 136.303 216.675C130.29 217.324 129.642 220.577 129.642 220.577C129.642 220.577 120.866 232.449 126.879 251.481C127.208 252.522 127.553 253.504 127.915 254.431C132.093 265.144 143.74 270.896 154.781 267.706L178.232 261.401" stroke="#1B1532" stroke-width="3.64" stroke-linecap="round" stroke-linejoin="round"/>
<path d="M121.574 261.07C121.574 261.07 122.332 263.131 134.573 263.999" stroke="#1B1532" stroke-width="3.64" stroke-linecap="round" stroke-linejoin="round"/>
<path d="M197.414 144.945C197.414 144.945 198.063 162.296 201.966 172.271C201.966 172.271 211.39 183.738 197.09 200.001" stroke="#1B1532" stroke-width="3.64" stroke-linecap="round" stroke-linejoin="round"/>
<path d="M200.664 164.79C200.664 164.79 205.865 164.466 207.654 165.928C207.654 165.928 223.904 159.421 237.232 159.586L243.733 156.008" stroke="#1B1532" stroke-width="3.64" stroke-linecap="round" stroke-linejoin="round"/>
<path d="M189.37 135.676C189.517 136.696 189.593 137.652 189.728 138.563C189.799 139.014 189.871 139.456 189.985 139.865C190.044 140.067 190.103 140.269 190.174 140.434C190.25 140.611 190.351 140.792 190.46 140.973C191.378 142.406 192.958 143.544 194.566 143.662C196.192 143.818 197.745 142.874 199.047 141.622C200.339 140.383 201.253 138.769 202.137 137.054C203.03 135.343 203.956 133.535 205.194 131.904C205.502 131.495 205.826 131.099 206.163 130.716L206.42 130.429L206.63 130.185C206.774 130.033 206.892 129.856 207.018 129.683C207.506 128.984 207.864 128.162 208.142 127.306C208.69 125.578 208.921 123.695 208.976 121.811C209.001 120.867 208.989 119.914 208.93 118.966C208.879 118.022 208.803 117.053 208.677 116.138V116.117C208.614 115.696 208.909 115.308 209.33 115.249C209.738 115.194 210.113 115.468 210.189 115.869C210.559 117.862 210.723 119.826 210.723 121.836C210.723 122.839 210.669 123.846 210.551 124.854C210.433 125.861 210.248 126.876 209.936 127.871C209.624 128.866 209.212 129.856 208.593 130.766C208.433 130.99 208.281 131.217 208.096 131.428L207.831 131.74L207.599 131.997C207.296 132.342 207.001 132.696 206.723 133.067C205.599 134.542 204.731 136.211 203.822 137.952C202.908 139.675 201.855 141.504 200.306 142.95C199.927 143.312 199.514 143.645 199.089 143.957C198.672 144.265 198.192 144.56 197.695 144.791C196.701 145.268 195.53 145.499 194.393 145.373C193.257 145.251 192.195 144.796 191.311 144.159C190.427 143.519 189.681 142.731 189.117 141.787C188.978 141.546 188.848 141.302 188.738 141.028C188.62 140.746 188.561 140.472 188.502 140.202C188.401 139.658 188.384 139.123 188.431 138.605C188.528 137.568 188.806 136.569 189.357 135.689L189.37 135.676Z" fill="#1B1532"/>
<path d="M198.385 144.187C204.019 141.692 214.799 146.896 214.799 146.896C217.561 124.451 211.06 117.46 211.06 117.46C204.882 109.895 174.98 112.419 159.707 107.699C144.43 102.983 109.652 94.2009 91.2882 93.3875C72.9243 92.5741 76.0531 99.3887 78.7733 100.708C86.1677 104.286 102.283 102.878 102.283 102.878L101.74 108.192L97.1877 111.555C97.1877 111.555 95.2381 112.533 95.6718 115.352C96.1055 118.172 95.238 134.435 95.238 134.435C95.238 134.435 97.9457 148.207 111.922 151.945" stroke="#1B1532" stroke-width="4.07" stroke-linecap="round" stroke-linejoin="round"/>
<path d="M214.799 146.899L217.346 144.624C217.346 144.624 221.789 118.925 222.113 111.769C222.438 104.613 228.046 61.9687 196.435 49.3131C160.684 35.0014 126.879 38.5793 115.177 50.6154C103.475 62.6514 99.8995 84.119 99.8995 84.119L80.0744 94.2039" stroke="#1B1532" stroke-width="4.07" stroke-linecap="round" stroke-linejoin="round"/>
<path d="M205.54 115.016C205.54 115.016 206.352 121.198 206.108 123.798C205.864 126.398 201.965 134.452 199.851 136.159C197.737 137.866 195.059 137.95 195.059 137.95C195.059 137.95 198.469 138.683 200.259 137.545C202.049 136.407 207.249 126.811 207.409 124.776C207.569 122.74 206.921 115.344 206.921 115.344L205.54 115.02V115.016Z" fill="#1B1532"/>
<path d="M174.227 110.907C174.227 110.907 175.204 117.519 174.876 122.509L176.501 120.014C176.501 120.014 178.236 126.576 176.446 132.699C176.446 132.699 179.373 130.583 180.291 128.362C180.291 128.362 183.053 131.671 181.807 137.794C181.807 137.794 187.172 133.116 186.03 124.334C186.03 124.334 187.437 125.594 187.277 128.034C187.277 128.034 190.094 125.105 189.117 117.355C189.117 117.355 192.637 112.963 199.682 113.128L196.756 111.771C196.756 111.771 189.904 112.664 187.9 115.758C187.9 115.758 188.725 120.676 187.534 124.254L184.447 120.756C184.447 120.756 185.639 124.637 184.771 129.374C184.443 131.182 184.283 132.303 183.146 134.17C183.146 134.17 183.415 130.916 180.548 125.552L178.312 129.454C178.312 129.454 179.15 124.494 177.743 118.965L177.011 116.971L176.076 118.311C176.076 118.311 176.21 114.207 175.507 110.953L174.219 110.898L174.227 110.907Z" fill="#1B1532"/>
<path d="M198.552 149.665C198.552 149.665 204.729 147.39 206.19 140.394L207.492 142.51C207.492 142.51 213.181 135.678 210.903 125.758C208.624 115.837 210.254 121.855 210.254 121.855L207.167 131.047L203.428 136.656L199.205 143.323L197.133 144.461L197.297 149.257L198.556 149.661L198.552 149.665Z" fill="#1B1532"/>
<path d="M211.391 132.587C211.391 132.587 214.532 127.058 213.665 123.37C212.797 119.683 210.957 116.648 210.957 116.648H209.875L209.766 128.36L211.391 132.587Z" fill="#1B1532"/>
<path d="M238.254 301.323C238.578 297.998 238.927 294.677 239.294 291.356C239.66 288.035 240.014 284.714 240.405 281.398C241.201 274.764 242.006 268.135 242.936 261.506C243.168 259.846 243.425 258.198 243.728 256.525L243.968 255.269L244.225 254.055C244.389 253.246 244.545 252.433 244.688 251.62C244.978 249.993 245.223 248.358 245.429 246.714C245.635 245.075 245.808 243.427 245.926 241.779C246.183 238.479 246.242 235.167 246.12 231.863C246.061 230.211 245.926 228.563 245.854 226.907C245.821 226.077 245.787 225.246 245.787 224.412C245.774 223.578 245.787 222.735 245.846 221.875C246.187 222.663 246.456 223.468 246.671 224.286C246.899 225.103 247.071 225.929 247.214 226.759C247.501 228.424 247.593 230.11 247.695 231.791C247.871 235.154 247.863 238.53 247.652 241.893C247.463 245.256 247.063 248.611 246.503 251.931C246.36 252.762 246.212 253.592 246.048 254.418L245.8 255.657L245.576 256.862C245.294 258.476 245.067 260.132 244.827 261.776C243.892 268.371 243.075 274.996 242.267 281.621L239.778 301.492C239.723 301.913 239.34 302.212 238.919 302.157C238.506 302.107 238.211 301.732 238.249 301.319L238.254 301.323Z" fill="#1B1532"/>
<path d="M247.793 239.603C247.793 239.603 255.267 227.891 263.719 221.06C272.17 214.228 282.491 218.051 279.564 199.508" stroke="#1B1532" stroke-width="3.64" stroke-linecap="round" stroke-linejoin="round"/>
<path d="M268.676 199.273C269.678 203.993 271.24 208.962 275.093 210.985" stroke="#1B1532" stroke-width="3.64" stroke-linecap="round" stroke-linejoin="round"/>
<path d="M134.685 269.375C134.197 270.024 128.836 303.203 128.836 303.203" stroke="#1B1532" stroke-width="3.64" stroke-linecap="round" stroke-linejoin="round"/>
<path d="M159.383 183.549C160.705 182.091 161.952 180.561 163.038 178.947C163.581 178.138 164.099 177.316 164.529 176.465C164.962 175.614 165.341 174.741 165.59 173.865V173.856C165.708 173.448 166.133 173.212 166.541 173.325C166.95 173.439 167.186 173.865 167.072 174.278C167.064 174.307 167.051 174.345 167.038 174.371C166.621 175.344 166.091 176.225 165.514 177.064C164.941 177.902 164.301 178.673 163.644 179.424C162.322 180.915 160.882 182.277 159.383 183.554V183.549Z" fill="#1B1532"/>
<path d="M197.195 121.093C197.195 121.093 198.278 119.141 201.314 118.492C204.35 117.843 204.998 114.59 204.998 114.59L203.103 114.32C203.103 114.32 202.505 116.815 201.857 116.921C201.208 117.026 197.469 118.328 197.2 121.097L197.195 121.093Z" fill="#1B1532"/>
<path d="M197.904 119.907C197.904 119.907 200.123 125.382 198.392 127.877C196.657 130.371 193.082 128.8 193.082 128.8C193.082 128.8 195.086 131.998 197.579 130.481C200.072 128.964 200.666 127.013 200.885 124.842C201.1 122.672 200.017 118.609 200.017 118.609L197.904 119.912V119.907Z" fill="#1B1532"/>
<path d="M110.849 103.367C110.849 103.152 110.2 101.146 113.342 101.361C116.483 101.576 118.054 101.795 119.3 103.257L120.547 104.72C120.547 104.72 120.382 103.093 119.949 101.736C119.515 100.379 120.437 100.274 120.437 100.274L119.41 99.2453C119.41 99.2453 116.862 95.5578 109.712 98.9756L108.032 100.278C108.032 100.278 107.543 102.773 108.411 103.965C108.411 103.965 110.251 103.531 110.47 103.641C110.689 103.75 110.849 103.371 110.849 103.371V103.367Z" fill="#1B1532"/>
<path d="M135.116 103.195C135.116 103.195 131.676 103.305 131.676 106.069C131.676 106.069 132.135 105.366 136.308 106.668C141.63 108.328 151.585 110.789 153.425 110.136C155.265 109.487 156.242 108.619 156.242 108.619L143.243 104.283L135.116 103.2V103.195Z" fill="#1B1532"/>
<path d="M119.649 149.882C119.649 149.882 121.762 150.994 124.251 150.126C126.74 149.258 132.812 150.531 135.734 152.377C138.661 154.218 140.042 151.399 140.042 151.399C140.042 151.399 137.389 152.427 135.924 151.399C135.073 150.801 133.246 149.928 130.833 149.283C129.094 148.82 127.237 148.327 124.331 148.849C124.331 148.849 122.163 149.608 120.268 149.014C118.373 148.415 116.149 150.91 116.149 150.91L115.067 150.476C115.067 150.476 114.81 152.933 116.638 151.669C118.478 150.396 119.644 149.878 119.644 149.878L119.649 149.882Z" fill="#1B1532"/>
<path d="M122.168 156.553C122.168 156.553 125.04 155.251 127.912 157.366C130.784 159.482 122.168 156.553 122.168 156.553Z" fill="#1B1532"/>
<path d="M257.105 203.066C257.105 203.066 258.082 204.583 260.356 204.149C262.436 203.753 268.264 201.477 270.993 194.473C271.511 193.145 271.595 191.687 271.229 190.313C270.399 187.216 268.184 181.092 262.74 175.416C255.046 167.392 248.763 166.848 248.763 166.848C248.763 166.848 246.325 166.089 245.079 167.012C243.832 167.935 235.221 173.195 235.221 173.195C235.221 173.195 233.76 174.876 235.764 175.69C237.769 176.503 242.7 178.239 242.7 178.239C242.7 178.239 253.425 183.768 259.383 201.443" stroke="#1B1532" stroke-width="3.64" stroke-linecap="round" stroke-linejoin="round"/>
<path d="M238.096 176.828C238.096 176.828 236.306 179.862 238.151 182.467" stroke="#1B1532" stroke-width="3.64" stroke-linecap="round" stroke-linejoin="round"/>
<path d="M122.413 136.332C122.366 136.193 122.981 134.827 124.771 135.763C125.651 136.222 126.337 136.745 126.805 137.154C127.2 137.499 127.099 138.148 126.607 138.338C125.407 138.797 123.36 139.084 122.417 136.332H122.413Z" fill="#1B1532"/>
<path d="M116.033 135.07C116.033 135.07 115.056 135.597 115.991 136.899C116.926 138.202 118.509 137.999 118.509 137.999L116.029 135.07H116.033Z" fill="#1B1532"/>
<path d="M130.673 129.555C130.673 129.555 134.572 132.484 133.704 135.842C132.837 139.201 128.828 139.205 128.828 139.205C128.828 139.205 132.458 137.145 132.567 135.303C132.677 133.461 130.673 129.555 130.673 129.555Z" fill="#1B1532"/>
<path d="M115.504 131.523C115.504 131.523 113.188 134.006 113.879 135.957C114.569 137.908 116.927 137.504 116.927 137.504L116.401 136.488C116.401 136.488 114.696 136.408 114.573 135.308C114.451 134.208 115.618 132.72 115.618 132.72L115.508 131.528L115.504 131.523Z" fill="#1B1532"/>
<path d="M136.468 114.856C136.468 114.856 135.251 116.074 136.388 116.727C137.525 117.38 138.502 116.563 138.502 116.563C138.502 116.563 141.753 118.354 145.492 117.456C149.231 116.558 149.96 115.425 149.96 115.425L149.471 115.18C149.471 115.18 147.319 116.727 145.163 116.849C143.007 116.971 140.451 116.647 138.868 116.036L137.731 115.669C137.731 115.669 137.243 115.425 137.895 114.531C138.544 113.638 138.775 112.037 141.133 111.876C143.492 111.716 148.46 115.754 150.246 115.876C152.031 115.998 153.295 115.105 153.295 115.105C153.295 115.105 148.364 114.346 147.147 113.453C145.93 112.559 143.327 110.755 140.321 111.282C137.314 111.809 136.476 114.86 136.476 114.86L136.468 114.856Z" fill="#1B1532"/>
<path d="M141.4 111.783C141.4 111.783 142.036 112.761 141.834 114.455C141.653 115.955 140.667 116.76 140.667 116.76L137.497 115.921C137.497 115.921 137.198 114.893 137.387 114.24C137.577 113.587 137.577 113.127 138.389 112.778C139.202 112.424 140.368 111.438 140.448 111.438C140.529 111.438 141.396 111.791 141.396 111.791L141.4 111.783Z" fill="#1B1532"/>
<path d="M113.041 108.831C113.383 109.493 114.153 109.796 114.882 109.653C115.438 109.544 117.678 109.721 118.916 110.134C121.316 110.934 123.152 113.526 123.152 113.526C123.152 113.526 123.906 112.978 123.152 112.173C122.685 111.676 122.247 110.281 120.39 109.379C119.253 108.827 116.873 108.633 115.993 108.579C114.191 108.469 113.029 107.023 113.029 107.023C113.029 107.023 112.7 108.153 113.029 108.815C113.029 108.823 113.037 108.827 113.037 108.836L113.041 108.831Z" fill="#1B1532"/>
<path d="M114.809 112.906C114.809 112.906 116.346 114.116 117.9 114.023C119.453 113.93 123.454 113.104 123.454 113.104L123.289 113.905C123.289 113.905 119.757 114.895 117.499 114.849C115.238 114.803 114.809 112.91 114.809 112.91V112.906Z" fill="#1B1532"/>
<path d="M114.913 109.522C114.913 109.522 113.831 112.207 115.292 113.623L116.804 114.377C116.804 114.377 117.507 113.905 117.562 111.832C117.617 109.758 116.804 109.43 116.804 109.43L114.913 109.522Z" fill="#1B1532"/>
<path d="M256.516 128.147C261.392 124.245 261.552 118.716 268.378 117.573C275.204 116.436 274.227 118.901 274.227 118.901" stroke="#1B1532" stroke-width="3.64" stroke-linecap="round" stroke-linejoin="round"/>
<path d="M248.688 166.091C248.688 166.091 249.989 165.766 250.233 163.895C250.477 162.024 249.5 156.983 249.664 156.17C249.77 155.648 249.883 151.324 250.389 146.789" stroke="#1B1532" stroke-width="3.64" stroke-linecap="round" stroke-linejoin="round"/>
<path d="M266.59 124.346C268.704 121.796 273.795 119.141 274.228 118.896C280.132 115.571 284.954 120.848 284.954 120.848" stroke="#1B1532" stroke-width="3.64" stroke-linecap="round" stroke-linejoin="round"/>
<path d="M269.785 183.333C270.434 183.118 275.419 179.645 279.971 174.441C284.523 169.236 286.254 153.407 286.688 148.852C286.806 147.6 287.042 146.572 287.315 145.733C288.128 143.268 288.271 140.646 287.829 138.088C287.218 134.59 285.614 132.462 289.071 130.309L290.911 130.094" stroke="#1B1532" stroke-width="3.64" stroke-linecap="round" stroke-linejoin="round"/>
<path d="M279.754 125.49C281.27 124.082 282.192 121.313 286.959 120.555C288.614 120.289 290.635 120.727 292.496 122.708" stroke="#1B1532" stroke-width="3.64" stroke-linecap="round" stroke-linejoin="round"/>
<path d="M299.798 143.039C303.219 142.301 304.973 136.969 303.715 131.131C302.457 125.293 298.663 121.159 295.242 121.897C291.82 122.636 290.067 127.967 291.325 133.805C292.583 139.643 296.376 143.777 299.798 143.039Z" stroke="#1B1532" stroke-width="3.64" stroke-linecap="round" stroke-linejoin="round"/>
<path d="M293.513 139.633L288.098 141.205" stroke="#1B1532" stroke-width="3.64" stroke-linecap="round" stroke-linejoin="round"/>
<path d="M252.343 129.339C252.343 129.339 261.931 126.899 271.519 128.037C281.108 129.175 283.057 132.592 283.382 133.566C283.706 134.539 280.131 146.74 280.295 149.18C280.459 151.62 254.133 146.251 250.069 146.904C246.005 147.553 249.905 131.779 252.343 129.339Z" stroke="#1B1532" stroke-width="3.64" stroke-linecap="round" stroke-linejoin="round"/>
<path d="M258.631 125.211C258.631 125.211 250.613 125.321 247.472 126.294C244.331 127.272 243.248 128.464 241.623 131.499C239.998 134.533 238.591 148.52 239.24 149.388C239.888 150.257 243.463 156.544 245.522 157.193C247.582 157.842 249.641 156.759 249.641 156.759" stroke="#1B1532" stroke-width="3.64" stroke-linecap="round" stroke-linejoin="round"/>
<path d="M224.934 160.89L241.942 154.383" stroke="#1B1532" stroke-width="3.64" stroke-linecap="round" stroke-linejoin="round"/>
<path d="M115.228 164.164L49.8494 177.473C49.8494 177.473 32.6225 183.326 38.1472 201.545C43.672 219.759 64.474 213.905 64.474 213.905L78.1258 210.976" stroke="#1B1532" stroke-width="3.64" stroke-linecap="round" stroke-linejoin="round"/>
<path d="M239.987 138.773L217.438 143.367" stroke="#1B1532" stroke-width="3.64" stroke-linecap="round" stroke-linejoin="round"/>
<path d="M271.031 203.343C271.031 203.343 282.569 201.067 300.285 178.133C311.844 163.168 316.829 152.362 318.897 146.656" stroke="#1B1532" stroke-width="3.64" stroke-linecap="round" stroke-linejoin="round"/>
<path d="M286.684 148.854C286.684 148.854 313.121 149.722 320.271 145.385C327.421 141.049 330.238 133.674 330.457 128.035C330.672 122.396 324.608 112.421 312.906 110.251C301.204 108.08 282.785 118.49 282.785 118.49" stroke="#1B1532" stroke-width="3.64" stroke-linecap="round" stroke-linejoin="round"/>
<path d="M133.676 72.823C132.653 72.6671 131.655 72.5154 130.632 72.3594C130.666 72.8104 130.695 73.2402 130.729 73.6701C130.784 74.3865 130.847 75.0987 130.889 75.8152C130.901 76.009 130.969 76.068 131.15 76.0891C131.596 76.1439 132.038 76.2197 132.502 76.2914L132.051 78.6261C130.144 78.3353 128.228 78.0445 126.295 77.7495C126.442 76.991 126.59 76.2197 126.745 75.4275C127.267 75.5075 127.798 75.5876 128.362 75.6719C128.362 75.4864 128.358 75.3305 128.35 75.1746C128.312 74.18 128.274 73.1896 128.24 72.1951C128.24 72.0813 128.24 71.9928 128.089 71.9675C126.72 71.7652 125.351 71.5545 123.983 71.3438C123.962 71.3438 123.937 71.3438 123.899 71.3522C123.44 72.4816 122.981 73.6153 122.509 74.77C123.099 74.8585 123.676 74.947 124.265 75.0397L123.802 77.4293C121.831 77.13 119.869 76.8308 117.89 76.5274C118.046 75.7309 118.193 74.9512 118.349 74.1505C118.913 74.2348 119.465 74.3191 120.033 74.4076C120.458 73.3287 120.879 72.271 121.309 71.1879C119.987 70.9856 118.686 70.7875 117.363 70.5852C117.528 69.7382 117.688 68.9164 117.852 68.0651C118.349 68.1409 118.846 68.2168 119.359 68.2927C120.239 63.7539 121.111 59.2403 121.991 54.6973C121.494 54.6215 121.002 54.5456 120.492 54.4697C120.501 54.377 120.5 54.3096 120.513 54.2464C120.631 53.6311 120.753 53.0158 120.871 52.4005C120.896 52.2699 120.938 52.2151 121.086 52.2404C122.846 52.5143 124.602 52.7798 126.362 53.0495C126.383 53.0495 126.404 53.0622 126.451 53.0748C126.312 53.787 126.173 54.5035 126.029 55.241C125.457 55.1525 124.888 55.0682 124.303 54.9797C123.419 59.5395 122.543 64.0741 121.663 68.6256C121.987 68.6761 122.315 68.7267 122.673 68.7815C124.088 65.6292 125.511 62.4601 126.935 59.2867C128.013 59.4511 129.07 59.6112 130.144 59.7755C130.291 63.1849 130.443 66.5859 130.59 69.9952C130.927 70.0458 131.255 70.0964 131.609 70.1511C131.824 69.047 132.034 67.9513 132.249 66.8387C133.095 66.9694 133.921 67.0916 134.763 67.2222C134.405 69.0765 134.043 70.9392 133.676 72.8272V72.823ZM125.015 68.9964C126.105 69.1608 127.175 69.3251 128.265 69.4937C128.202 67.0831 128.143 64.6936 128.08 62.3041C128.068 62.3041 128.055 62.3041 128.042 62.3041C127.036 64.5293 126.029 66.7544 125.015 68.9964Z" fill="white"/>
<path d="M137.613 119.525C137.403 119.47 141.458 121.421 144.22 120.932C146.983 120.443 147.631 119.849 147.631 119.849C147.631 119.849 143.622 121.151 137.609 119.525H137.613Z" fill="#1B1532"/>
<path d="M121.378 108.336C121.378 108.336 124.228 109.95 123.487 113.052C123.487 113.052 119.592 122.82 117.908 125.218C116.729 126.896 114.682 129.934 115.057 133.04C115.428 136.142 118.902 137.259 118.902 137.259C118.902 137.259 115.554 135.025 115.676 132.792C115.798 130.558 118.405 127.081 119.769 124.35C120.712 122.458 124.856 115.163 124.856 111.315C124.856 108.572 121.382 108.336 121.382 108.336H121.378Z" fill="#1B1532"/>
<path d="M139.775 111.477C139.775 111.477 138.07 111.557 137.379 111.152C136.689 110.748 137.624 108.266 137.624 108.266C137.624 108.266 137.177 110.015 138.761 110.339C140.344 110.664 143.106 111.232 143.106 111.232L139.775 111.477Z" fill="#1B1532"/>
<path d="M115.016 115.27C115.016 115.27 115.437 116.897 117.955 116.627C120.473 116.357 122.301 114.406 122.301 114.406C122.301 114.406 117.614 117.441 115.016 115.274V115.27Z" fill="#1B1532"/>
<path d="M114.681 110.922C114.985 110.922 115.232 110.516 115.232 110.015C115.232 109.515 114.985 109.109 114.681 109.109C114.376 109.109 114.129 109.515 114.129 110.015C114.129 110.516 114.376 110.922 114.681 110.922Z" fill="#1B1532"/>
<path d="M122.682 113.372C123.001 113.372 123.259 113.094 123.259 112.752C123.259 112.41 123.001 112.133 122.682 112.133C122.364 112.133 122.106 112.41 122.106 112.752C122.106 113.094 122.364 113.372 122.682 113.372Z" fill="#1B1532"/>
<path d="M116.5 107.489C116.5 107.489 118.538 107.914 120.437 108.643C121.578 109.082 122.745 109.516 123.183 110.354C123.183 110.354 123.886 109.254 122.336 108.428C121.355 107.906 119.001 107.543 116.5 107.484V107.489Z" fill="#1B1532"/>
<path d="M140.574 113.945C140.902 113.945 141.168 113.539 141.168 113.039C141.168 112.538 140.902 112.133 140.574 112.133C140.246 112.133 139.981 112.538 139.981 113.039C139.981 113.539 140.246 113.945 140.574 113.945Z" fill="white"/>
<path d="M116.448 111.701C116.83 111.701 117.139 111.229 117.139 110.647C117.139 110.065 116.83 109.594 116.448 109.594C116.067 109.594 115.758 110.065 115.758 110.647C115.758 111.229 116.067 111.701 116.448 111.701Z" fill="white"/>
</svg>
