<svg width="313" height="246" viewBox="0 0 313 246" fill="none" xmlns="http://www.w3.org/2000/svg">
<path d="M47.8936 17.0012C47.8936 17.0012 41.6599 73.4178 84.0953 86.1587C84.0953 86.1587 71.3662 98.8618 36.373 110.453C36.373 110.453 -2.78459 84.5894 1.29848 21.9579C1.29848 21.9579 29.5935 24.7216 47.8936 17V17.0012Z" fill="#97C777" stroke="#1B1532" stroke-width="0.943245" stroke-miterlimit="10"/>
<path d="M40.7307 26.9103C41.4429 49.2734 47.2356 66.3367 57.9839 78.02C61.5281 81.872 65.6548 85.0731 69.9359 87.2945C64.8955 90.1997 58.3859 93.244 50.7586 96.2494C45.2359 98.4259 40.4513 100.058 37.9965 100.865C30.7937 95.4606 24.8017 88.5042 20.168 80.1635C16.1675 72.963 13.1609 64.7191 11.2296 55.658C9.49872 47.5332 8.97286 40.2478 8.83609 35.5669C8.77478 33.4706 8.78422 31.6937 8.81723 30.3284C9.922 30.359 11.028 30.3755 12.1257 30.3755C22.4094 30.3755 30.8609 29.0055 36.1395 27.8559C37.8998 27.4727 39.4361 27.0883 40.726 26.737L40.7319 26.9126L40.7307 26.9103ZM44.1134 22.3108C44.1134 22.3108 31.3891 27.1791 12.1257 27.1791C9.99628 27.1791 7.78791 27.1202 5.50644 26.9881C5.50644 26.9881 0.99891 78.8029 37.3457 104.46C37.3457 104.46 63.3698 96.3897 77.0386 86.6554C77.0386 86.6554 44.2431 79.5646 44.1134 22.3108Z" fill="#74B85B"/>
<path d="M42.8765 73.2426C45.7004 68.8674 43.3753 62.3422 37.6832 58.6683C31.9911 54.9943 25.0874 55.5628 22.2634 59.938C19.4395 64.3133 21.7646 70.8384 27.4567 74.5124C33.1488 78.1863 40.0525 77.6178 42.8765 73.2426Z" fill="#74B85B"/>
<path d="M43.7616 64.5938C46.5205 70.5799 43.7462 76.3243 37.5644 77.4243C31.3838 78.5244 24.1362 74.5651 21.3772 68.579C18.6182 62.593 21.3925 56.8486 27.5743 55.7486C33.7549 54.6485 41.0026 58.6078 43.7616 64.5938ZM45.9381 64.2059C45.1328 62.4597 43.9974 60.8267 42.5636 59.3529C41.1794 57.931 39.5783 56.7177 37.8038 55.7486C36.0293 54.7782 34.1699 54.1002 32.2764 53.7312C30.3156 53.3492 28.4067 53.3185 26.6028 53.6392C24.7988 53.9599 23.2059 54.6143 21.8677 55.5835C20.5766 56.5197 19.5768 57.707 18.8976 59.1136C18.2185 60.5202 17.8931 62.0765 17.9296 63.7378C17.9685 65.4593 18.3953 67.2184 19.2006 68.9646C20.0059 70.7108 21.1414 72.3438 22.5751 73.8176C23.9593 75.2395 25.5605 76.4528 27.3349 77.422C29.1094 78.3923 30.9688 79.0703 32.8624 79.4393C34.8231 79.8213 36.732 79.852 38.536 79.5313C40.3399 79.2106 41.9328 78.5562 43.2711 77.587C44.5621 76.6509 45.562 75.4635 46.2411 74.0569C46.9202 72.6503 47.2457 71.094 47.2091 69.4327C47.1702 67.7113 46.7434 65.9521 45.9381 64.2059Z" fill="#74B85B"/>
<path d="M43.0742 64.7131C45.6634 70.3325 43.0601 75.7243 37.2567 76.7572C31.4546 77.79 24.6515 74.0725 22.0611 68.4531C19.4719 62.8337 22.0752 57.4419 27.8785 56.409C33.6807 55.3762 40.4838 59.0937 43.0742 64.7119V64.7131ZM44.3004 64.495C42.9021 61.4601 40.3659 58.8249 37.1612 57.0728C33.9566 55.3219 30.4654 54.664 27.3315 55.2217C24.1975 55.7794 21.7958 57.4855 20.5696 60.0264C19.3422 62.5672 19.4377 65.6375 20.836 68.6724C22.2344 71.7073 24.7705 74.3425 27.9752 76.0945C31.1799 77.8466 34.6711 78.5034 37.805 77.9457C40.9389 77.388 43.3407 75.6819 44.5669 73.141C45.7943 70.6001 45.6988 67.5299 44.3004 64.495Z" fill="#97C777"/>
<path d="M24.6762 66.6964C24.2506 65.5892 24.1268 64.5293 24.3072 63.5188L26.9931 64.0199C26.7384 65.1129 26.8268 66.1269 27.2584 67.0631C27.9222 68.5027 28.7664 69.1311 29.791 68.9484C30.3039 68.8576 30.7012 68.5876 30.9818 68.1395C31.2636 67.6915 31.4334 66.9063 31.4924 65.7838C31.5513 64.6613 31.6704 63.8832 31.8496 63.4504C32.0288 63.0177 32.3165 62.6581 32.7127 62.374C33.1077 62.0898 33.604 61.8941 34.2018 61.788C35.0838 61.6312 35.9869 61.7609 36.9101 62.1782C37.8321 62.5956 38.6162 63.2359 39.26 64.1013L41.0215 63.7877L42.0166 65.9465L40.3471 66.233C40.7633 67.4097 40.8682 68.3235 40.6619 68.972L38.1375 68.6159C38.3769 67.642 38.2766 66.6763 37.8357 65.7213C37.5751 65.1554 37.2155 64.7451 36.758 64.4904C36.2994 64.2357 35.8301 64.1508 35.3502 64.2357C34.532 64.3807 34.0863 65.4089 34.012 67.3201C33.9707 68.327 33.8481 69.0698 33.643 69.5485C33.439 70.0272 33.1242 70.4198 32.7009 70.7264C32.2764 71.033 31.7435 71.244 31.1009 71.3584C30.1919 71.5199 29.2687 71.3784 28.3301 70.9339C27.3916 70.4894 26.5639 69.7867 25.847 68.8258L23.608 69.2243L22.6129 67.0654L24.6762 66.6976V66.6964Z" fill="#97C777"/>
<path d="M28.5067 44.6286C29.7478 43.4953 29.7559 41.4836 28.5247 40.1352C27.2935 38.7869 25.2893 38.6126 24.0481 39.7459C22.807 40.8791 22.799 42.8909 24.0302 44.2392C25.2614 45.5876 27.2656 45.7619 28.5067 44.6286Z" fill="#74B85B"/>
<path d="M50.7442 86.9019C52.053 88.3379 51.8525 89.7941 50.2962 90.1537C48.7398 90.5133 46.4171 89.642 45.1083 88.2059C43.7996 86.7698 44 85.3137 45.5564 84.9541C47.1127 84.5944 49.4354 85.4658 50.7442 86.9019Z" fill="#74B85B"/>
<path d="M72.8789 86.2166L65.5794 91.1663C65.5794 91.1663 64.1728 85.2439 67.6026 84.3513L72.8789 86.2178V86.2166Z" fill="#74B85B"/>
<path d="M37.4352 102.283L32.3334 97.6585C32.3334 97.6585 40.0739 96.8473 45.3502 99.9707L37.4352 102.283Z" fill="#74B85B"/>
<path d="M35.4124 26.2582C35.4124 25.9658 42.5469 24.7974 42.5469 24.7974L42.5834 32.1818C42.5834 32.1818 35.4124 31.3694 35.4124 26.2582Z" fill="#74B85B"/>
<path d="M7.27773 35.9741C7.27773 35.9741 13.3381 35.019 14.8331 28.4871H7.27773V35.9741Z" fill="#74B85B"/>
<path d="M213.316 162.01C213.316 162.01 257.471 133.123 264.107 108.438C264.107 108.438 292.03 113.842 311.797 105.25C311.797 105.25 296.861 149.146 271.123 168.37C271.123 168.37 234.363 175.154 213.316 162.009V162.01Z" fill="#97C777" stroke="#1B1532" stroke-width="0.951498" stroke-miterlimit="10"/>
<path d="M302.414 115.784C300.183 120.142 297.028 126.015 293.034 132.545C288.713 139.61 284.48 145.645 280.454 150.483C275.598 156.314 271.058 160.385 266.955 162.582C265.325 162.786 256.769 163.397 246.281 163.397C240.266 163.397 235.124 162.861 230.014 162.224C226.33 161.765 226.607 161.387 223.49 160.606C228.048 157.874 233.506 153.107 241.449 146.322C249.393 139.538 262.332 124.837 266.49 114.865C269.569 115.273 278.805 115.819 287.087 115.819C292.934 115.819 299.507 114.696 303.396 113.786L302.415 115.786L302.414 115.784ZM308.027 109.149C303.608 111.756 294.009 112.768 286.973 112.768C277.122 112.768 265.554 110.863 265.554 110.863C257.369 134.833 218.283 161.592 218.283 161.592C227.948 165.378 239.554 167.006 249.609 167.006C260.84 167.006 270.019 165.13 270.019 165.13C288.139 155.167 308.026 109.149 308.026 109.149H308.027Z" fill="#74B85B"/>
<path d="M225.216 157.117C225.216 157.117 231.377 157.136 227.731 163.778L218.283 161.66L225.215 157.117H225.216Z" fill="#74B85B"/>
<path d="M261.798 163.392L269.002 162.622L274.517 158.387C274.517 158.387 267.462 155.306 261.799 163.392H261.798Z" fill="#74B85B"/>
<path d="M262.074 121.234L264.729 114.785L271.123 115.074C271.123 115.074 269.738 119.117 262.075 121.234H262.074Z" fill="#74B85B"/>
<path d="M297.024 113.626L304.179 112.47L299.738 121.231C299.738 121.231 296.053 118.439 297.024 113.626Z" fill="#74B85B"/>
<path d="M283.627 123.753C284.95 121.936 285.102 119.793 283.967 118.967C282.832 118.141 280.84 118.943 279.517 120.76C278.194 122.577 278.042 124.719 279.177 125.546C280.312 126.372 282.304 125.569 283.627 123.753Z" fill="#74B85B"/>
<path d="M250.203 161.017C251.99 159.988 252.908 158.234 252.254 157.098C251.6 155.963 249.622 155.877 247.835 156.906C246.049 157.935 245.131 159.689 245.785 160.824C246.439 161.96 248.417 162.046 250.203 161.017Z" fill="#74B85B"/>
<path d="M270.975 146.783C276.636 142.836 279.315 136.896 276.958 133.518C274.602 130.139 268.103 130.6 262.442 134.547C256.782 138.495 254.103 144.434 256.459 147.813C258.815 151.191 265.315 150.731 270.975 146.783Z" fill="#74B85B"/>
<path d="M256.845 139.493C260.448 133.995 267.785 130.057 273.233 130.697C278.682 131.337 280.177 136.313 276.574 141.812C272.97 147.31 265.633 151.248 260.185 150.608C254.736 149.968 253.241 144.992 256.845 139.493ZM254.926 139.268C253.874 140.872 253.166 142.467 252.819 144.006C252.484 145.492 252.501 146.863 252.866 148.082C253.233 149.302 253.931 150.306 254.942 151.07C255.989 151.861 257.326 152.358 258.916 152.544C260.505 152.73 262.255 152.597 264.116 152.148C265.911 151.714 267.733 151.004 269.53 150.04C271.327 149.075 273.009 147.903 274.532 146.557C276.108 145.162 277.44 143.641 278.492 142.036C279.544 140.431 280.252 138.837 280.599 137.298C280.934 135.812 280.917 134.441 280.552 133.222C280.185 132.002 279.487 130.998 278.477 130.234C277.43 129.443 276.093 128.946 274.502 128.76C272.913 128.574 271.163 128.707 269.302 129.156C267.507 129.59 265.685 130.3 263.888 131.264C262.091 132.229 260.409 133.401 258.887 134.747C257.31 136.142 255.978 137.663 254.926 139.268Z" fill="#74B85B"/>
<path d="M257.446 139.567C260.829 134.405 267.717 130.708 272.83 131.31C277.944 131.911 279.348 136.582 275.965 141.743C272.583 146.905 265.695 150.601 260.581 150C255.468 149.399 254.063 144.727 257.446 139.567ZM256.366 139.439C254.54 142.227 253.897 144.974 254.558 147.175C255.22 149.375 257.105 150.766 259.867 151.091C262.629 151.415 265.936 150.634 269.181 148.893C272.426 147.151 275.219 144.657 277.045 141.869C278.872 139.082 279.514 136.335 278.853 134.133C278.191 131.933 276.306 130.542 273.545 130.218C270.782 129.894 267.475 130.674 264.23 132.416C260.986 134.157 258.192 136.652 256.366 139.439Z" fill="#97C777"/>
<path d="M272.463 142.511C271.736 143.507 270.837 144.39 269.767 145.16L268.313 144.094C269.513 143.278 270.395 142.44 270.959 141.579C271.825 140.257 271.806 139.543 270.902 139.437C270.45 139.384 269.915 139.503 269.296 139.794C268.677 140.085 267.825 140.675 266.736 141.564C265.649 142.453 264.839 143.049 264.306 143.354C263.775 143.658 263.235 143.876 262.686 144.007C262.138 144.138 261.602 144.173 261.075 144.112C260.296 144.02 259.772 143.693 259.501 143.13C259.229 142.566 259.266 141.857 259.61 141.003L258.057 140.82L259.357 138.837L260.819 139.018C261.618 137.968 262.394 137.207 263.146 136.737L264.62 137.647C263.541 138.372 262.715 139.174 262.139 140.051C261.799 140.571 261.674 140.99 261.763 141.308C261.854 141.626 262.11 141.81 262.533 141.86C263.253 141.945 264.53 141.227 266.364 139.708C267.332 138.907 268.111 138.34 268.704 138.005C269.296 137.671 269.887 137.432 270.476 137.291C271.066 137.149 271.644 137.111 272.21 137.178C273.01 137.272 273.54 137.614 273.797 138.204C274.054 138.793 273.991 139.563 273.609 140.513L275.583 140.746L274.284 142.729L272.464 142.515L272.463 142.511Z" fill="#97C777"/>
<path d="M186.152 19.1277C187.222 15.8165 187.068 12.2292 185.722 9.02344C179.607 12.7933 177.142 20.4547 179.911 27.0895C182.883 25.2756 185.097 22.4512 186.148 19.1318L186.152 19.1277Z" fill="white"/>
<path d="M161.348 151.055L164.754 155.758L167.75 163.054L162.698 182.861L174.716 202.051L179.415 195.887L186.3 182.593L178.929 162.73L182.331 150.243L181.925 148.624L178.414 150.219L174.229 150.649L169.936 149.192L165.236 147.812L161.348 151.055Z" fill="#2A4E9D"/>
<path d="M220.817 82.8252L218.688 101.557L215.602 111.43L209.208 121.721L201.61 126.745L196.156 130.433L196.663 132.434L193.046 139.426L189.21 147.205C189.21 147.205 185.999 150.565 185.889 150.638C185.78 150.711 179.888 150.682 179.888 150.682L171.118 150.857L159.992 145.379L148.704 136.565L141.178 128.664L137.415 122.829L136.823 122.386C136.823 122.386 137.748 119.396 137.967 119.099C138.08 118.949 137.942 115.049 137.821 112.12C137.792 111.422 137.484 109.738 137.452 109.092C137.363 107.116 136.604 106.361 136.604 106.361L135.274 104.292L131.512 101.707L125.377 92.824L124.574 91.6635L121.399 85.4588C121.399 85.4588 121.29 84.5539 121.176 83.6246C121.136 83.2838 121.095 82.9348 121.059 82.6304C120.998 82.1029 120.953 81.689 120.953 81.62C120.953 81.3968 122.944 78.6658 123.167 78.5197C123.39 78.3696 125.823 76.6733 125.823 76.6733C125.823 76.6733 128.552 77.7812 128.625 78.1505C128.677 78.4223 129.646 80.7597 130.157 81.9893C130.344 82.4316 130.47 82.7319 130.47 82.7319C130.47 82.7319 130.701 82.3707 131.041 81.9284C131.471 81.3725 132.075 80.6907 132.61 80.4432C133.571 80.0009 135.12 78.0084 135.339 78.0084C135.558 78.0084 135.635 77.6391 136.519 78.0084C136.799 78.1261 137.188 78.4507 137.586 78.8484C138.441 79.7006 139.349 80.8855 139.398 81.0357C139.451 81.198 140.732 83.8519 141.413 85.26C141.665 85.7794 141.835 86.1284 141.835 86.1284L143.976 82.9551V82.9429C144.053 82.5574 145.675 74.3116 145.675 74.0965C145.675 73.8815 146.413 75.0583 146.413 75.0583L146.538 74.6241L147.447 71.4386L147.653 71.4223L151.209 71.1423L152.462 69.6652C152.462 69.6652 152.73 69.2594 153.131 68.6548C153.411 68.2368 153.756 67.7174 154.121 67.1736C155.009 65.8507 156.018 64.3696 156.517 63.7203C156.679 63.5093 156.785 63.3876 156.817 63.3876C157.04 63.3876 164.935 58.6601 164.935 58.6601L173.936 49.3551L179.767 35.0265L180.801 29.9297L182.054 31.8491L183.789 38.7233L184.341 31.9952L189.21 38.4189L192.089 46.9853L192.458 53.9285L194.376 52.0821L194.599 49.274L199.615 52.0821L205.664 53.4131H206.033L202.27 46.1007L208.47 48.8317C208.47 48.8317 211.029 51.3192 211.227 51.6641C211.422 52.0091 212.16 53.0925 212.261 52.845C212.359 52.5975 213.49 48.8073 213.543 48.9575C213.591 49.1036 215.213 52.6502 215.213 52.6502L215.72 56.3633L215.805 56.9841L217.184 64.5644L220.383 73.427L220.825 82.8293L220.817 82.8252Z" fill="#EFB09E"/>
<path d="M219.168 48.9052L218.134 54.2982L216.363 55.8483C216.363 55.8483 216.063 56.0878 215.714 56.3596L215.207 52.6466C215.207 52.6466 214.765 51.6808 214.335 50.7394C213.942 49.875 213.557 49.0269 213.532 48.9539C213.496 48.8484 212.924 50.711 212.555 51.8999C212.401 52.395 212.284 52.7724 212.255 52.8454C212.194 52.9996 211.886 52.6385 211.61 52.257C211.444 52.0257 211.294 51.7904 211.221 51.6605C211.022 51.3156 208.464 48.8281 208.464 48.8281L202.264 46.097L205.005 51.4251L206.027 53.4095H205.658L202.358 52.6831L199.608 52.0785L195.108 49.5626L194.986 49.4936L194.589 49.2704L194.471 50.7637L194.366 52.0785L193.668 52.748L192.979 53.4095L192.444 53.9249L192.363 52.3909L192.075 46.9817L189.196 38.4153L184.326 31.9916L183.775 38.7197L182.039 31.8455L180.786 29.9261L179.753 35.0229L173.922 49.3515L164.92 58.6564C164.92 58.6564 157.026 63.384 156.803 63.384C156.77 63.384 156.665 63.5057 156.503 63.7167C156.174 63.7614 155.992 63.7898 155.992 63.7898L154.106 67.17C153.742 67.7138 153.397 68.2292 153.117 68.6512L147.692 71.1022L147.639 71.4187L147.432 71.435L146.524 74.6205L145.587 73.541L143.966 82.9434V82.9555L141.825 86.1288C141.825 86.1288 141.654 85.7758 141.403 85.2604L139.83 80.6303L137.575 78.8489C137.178 78.4512 136.793 78.1265 136.509 78.0089C135.625 77.6396 135.548 78.0089 135.329 78.0089C135.11 78.0089 133.557 80.0013 132.6 80.4436C132.065 80.6912 131.461 81.3729 131.031 81.9289L130.147 81.9897C129.636 80.7642 128.667 78.4228 128.614 78.1509C128.541 77.7816 125.813 76.6738 125.813 76.6738C125.813 76.6738 123.376 78.3741 123.157 78.5202C122.934 78.6663 120.943 81.4013 120.943 81.6205C120.943 81.657 120.955 81.7747 120.971 81.9532C120.992 82.1318 121.016 82.3671 121.048 82.6309L120.72 82.6552L121.162 83.6251C121.271 84.5584 121.385 85.4633 121.385 85.4633L124.56 91.668L125.363 92.8285L125.371 92.8488L131.939 102.819L135.187 104.812C135.187 104.812 137.085 107.77 137.673 109.734C137.705 110.379 137.523 111.349 137.551 112.047C137.271 112.136 136.221 111.974 136.221 111.974L134.08 112.566C134.08 112.566 131.72 116.478 131.57 116.775C131.42 117.071 130.094 116.478 129.798 116.478C129.502 116.478 128.837 118.84 128.837 118.84C128.837 118.84 128.026 116.848 127.876 116.551C127.73 116.255 127.58 109.093 127.58 109.093L124.998 106.066C124.998 106.066 124.187 107.543 123.891 107.766C123.595 107.989 122.784 106.435 122.784 106.435L121.454 101.192L115.773 83.9132L112.452 70.104L111.787 70.5463L110.607 60.2796L113.19 44.2547L112.452 42.5545L123.003 23.8716L122.93 21.9522L126.988 17.2247L139.092 9.54294L146.471 3.3383L148.462 3.04208L155.4 1.49193L171.412 0.976562L186.171 3.63455L187.424 5.627L196.945 9.3928L206.465 18.2554L212.884 28.5951L213.326 34.0611L219.156 48.9052H219.168Z" fill="#2A2644"/>
<path d="M121.178 83.625L125.375 92.8244L124.572 91.6638L121.397 85.4592C121.397 85.4592 121.287 84.5543 121.174 83.625H121.178Z" fill="#EFB09E"/>
<path d="M128.629 78.1449C128.681 78.4168 129.65 80.7542 130.161 81.9837L121.059 82.629C120.998 82.1014 120.953 81.6875 120.953 81.6185C120.953 81.3953 122.944 78.6643 123.167 78.5182C123.39 78.3681 125.823 76.6719 125.823 76.6719C125.823 76.6719 128.552 77.7797 128.625 78.149L128.629 78.1449Z" fill="#EFB09E"/>
<path d="M136.525 78.0001L132.207 81.8389L131.047 81.9201C131.477 81.3641 132.081 80.6824 132.616 80.4348C133.577 79.9925 135.126 78.0001 135.345 78.0001C135.564 78.0001 135.641 77.6308 136.525 78.0001Z" fill="#EFB09E"/>
<path d="M136.525 78C136.805 78.1177 137.194 78.4423 137.592 78.84L136.525 78Z" fill="#EFB09E"/>
<path d="M141.836 86.1265L143.977 82.9531L141.836 86.4998L141.414 85.2621C141.665 85.7815 141.836 86.1305 141.836 86.1305V86.1265Z" fill="#EFB09E"/>
<path d="M147.445 71.4303L147.652 71.4141L147.04 75.1961L146.537 74.6158L147.445 71.4303Z" fill="#EFB09E"/>
<path d="M153.131 68.6452C153.411 68.2272 153.755 67.7078 154.12 67.1641L153.35 68.5438L153.131 68.6411V68.6452Z" fill="#EFB09E"/>
<path d="M217.987 68.0995C217.987 68.0995 175.705 59.7928 175.376 60.4543C175.076 61.0549 159.551 63.2746 156.518 63.7047C156.68 63.4937 156.785 63.372 156.818 63.372C157.041 63.372 164.935 58.6444 164.935 58.6444L173.937 49.3395L179.767 35.0109L180.801 29.9141L182.054 31.8335L183.79 38.7077L184.341 31.9796L189.211 38.4033L192.09 46.9697L192.459 53.9129L194.376 52.0665L194.599 49.2584L199.615 52.0665L205.665 53.3975H206.034L202.271 46.0851L208.471 48.8161C208.471 48.8161 211.029 51.3036 211.228 51.6485C211.423 51.9934 212.16 53.0769 212.262 52.8294C212.359 52.5819 213.49 48.7917 213.543 48.9419C213.592 49.0879 215.214 52.6346 215.214 52.6346L215.721 56.3476C215.295 56.6763 214.796 57.0497 214.674 57.0902C214.451 57.1633 217.995 68.0954 217.995 68.0954L217.987 68.0995Z" fill="#EFB09E"/>
<path opacity="0.49" d="M171.391 61.597C171.391 61.597 174.132 60.1199 174.821 59.8561C175.506 59.5923 180.782 58.59 180.782 58.59C180.782 58.59 182.837 58.2735 182.995 58.3262C183.154 58.379 184.366 59.0648 184.419 59.4868C184.471 59.9088 184.893 61.7552 184.893 61.7552L181.041 63.0741C181.041 63.0741 177.242 63.2323 177.031 63.1796C176.82 63.1268 172.336 62.3355 172.177 62.3355C172.019 62.3355 171.387 61.597 171.387 61.597H171.391Z" fill="white"/>
<path opacity="0.49" d="M202.645 60.8073C202.645 60.8073 203.472 58.7701 203.691 58.6565C203.91 58.5429 206.111 57.3904 207.048 57.1672C207.985 56.9481 210.109 56.5017 210.462 56.7249C210.815 56.9481 211.674 58.4333 211.618 58.6524C211.561 58.8716 210.462 60.3609 210.405 60.6368C210.348 60.9127 209.302 61.7406 208.974 61.7406C208.646 61.7406 203.139 61.2982 203.139 61.2982L202.645 60.8032V60.8073Z" fill="white"/>
<path d="M136.598 106.359L137.409 113.188L137.555 119.097L137.186 122.088L138.662 125.265C138.662 125.265 140.729 129.254 140.948 128.588C142.814 122.984 142.505 116.544 147.148 112.417L144.91 110.056L141.22 104.492L136.598 106.363V106.359Z" fill="#DD857F"/>
<path d="M192.373 52.3871L191.092 50.2648C188.768 32.6532 183.785 41.4022 183.785 41.4022L182.127 50.1511L180.468 49.9279C182.573 46.3813 181.133 38.8497 181.133 38.8497C180.578 42.3964 173.717 52.2531 173.717 52.2531C173.717 52.2531 167.741 58.6769 165.746 61.0021C163.755 63.3273 156.558 66.9836 156.558 66.9836C154.567 71.9667 147.812 78.0618 147.812 78.0618V75.4038C147.812 75.4038 147.812 76.6212 145.93 82.6027C144.049 88.5841 139.844 92.7922 136.523 92.1307C133.202 91.4652 132.651 95.3406 128.835 93.4983C125.024 91.6519 125.231 85.4838 123.791 84.8223C122.352 84.1568 122.352 86.2629 122.352 86.2629C122.352 86.2629 121.805 84.5342 120.981 81.9412C120.961 81.7627 120.953 81.645 120.953 81.6084C120.953 81.3853 122.944 78.6542 123.167 78.5082C123.39 78.358 125.823 76.6618 125.823 76.6618C125.823 76.6618 128.552 77.7696 128.625 78.1389C128.677 78.4108 129.646 80.7481 130.157 81.9777L131.041 81.9169C131.471 81.3609 132.075 80.6792 132.61 80.4316C133.571 79.9893 135.12 77.9968 135.339 77.9968C135.558 77.9968 135.635 77.6276 136.519 77.9968C136.799 78.1145 137.188 78.4392 137.586 78.8369L139.84 80.6183L141.413 85.2485C141.665 85.7679 141.835 86.1168 141.835 86.1168L143.976 82.9435V82.9313L145.598 73.5291L146.534 74.6085L147.443 71.423L147.649 71.4067L147.702 71.0902L153.127 68.6392C153.407 68.2212 153.752 67.7018 154.117 67.1581L156.002 63.7778C156.002 63.7778 156.185 63.7534 156.513 63.7047C156.675 63.4937 156.781 63.372 156.813 63.372C157.036 63.372 164.931 58.6444 164.931 58.6444L173.932 49.3395L179.763 35.0109L180.797 29.9141L182.05 31.8335L183.785 38.7077L184.336 31.9796L189.206 38.4033L192.085 46.9697L192.373 52.379V52.3871Z" fill="#DD857F"/>
<path d="M167.514 121.721C171.289 123.015 176.511 123.506 180.465 124.046C186.036 124.809 193.78 124.533 198.285 123.786C205.884 122.532 206.107 122.825 208.986 121.128L208.025 123.198C208.025 123.198 198.974 128.416 199.12 128.859C199.181 129.037 198.147 129.703 195.013 131.517C190.293 134.248 182.934 137.851 173.272 136.342C157.187 133.83 149.584 114.039 149.584 114.039C149.584 114.039 155.561 117.622 167.514 121.721Z" fill="#DD857F"/>
<path d="M161.441 63.7713C161.441 63.7713 164.393 63.2803 165.476 63.4264C166.558 63.5724 165.525 64.8548 166.903 65.1997C168.282 65.5446 171.246 60.5736 175.304 59.9081C175.304 59.9081 171.355 58.0617 173.606 52.5591L173.054 52.3359L169.587 54.5516L167.779 56.8403C167.779 56.8403 165.419 61.9006 165.306 61.9006C165.192 61.9006 161.445 63.7713 161.445 63.7713H161.441Z" fill="#DD857F"/>
<path d="M164.988 148.59C164.988 148.59 169.607 155.48 170.738 159.291C171.869 163.101 171.468 163.588 171.468 163.588C171.468 163.588 170.819 165.613 170.008 167.804C169.197 169.992 166.687 184.02 168.066 186.694C169.445 189.368 178.11 197.07 178.11 197.07L174.128 201.096C174.128 201.096 163.285 184.828 163.285 184.584C163.285 184.341 167.661 164.558 167.661 164.558L165.556 156.775L162.073 152.315C162.073 152.315 161.587 149.884 161.83 149.803C162.073 149.722 164.988 148.586 164.988 148.586V148.59Z" fill="#25387A"/>
<path d="M165.719 172.266L183.458 175.995L184.512 178.101L165.557 173.564L165.719 172.266Z" fill="white"/>
<path d="M167.393 166.234L180.907 168.831L181.961 170.938L167.23 167.529L167.178 166.287" fill="white"/>
<path d="M165.99 157.483L180.299 160.238L180.137 161.861L165.934 158.996L165.666 157.32" fill="white"/>
<path d="M164.242 151.219L181.523 154.822L181.069 156.693L164.08 152.517L164.242 151.219Z" fill="white"/>
<path d="M164.34 178.664L185.81 183.152V185.149L164.178 179.963L164.34 178.664Z" fill="white"/>
<path d="M163.852 185.719L183.051 189.639L182.645 191.558L164.902 187.346L163.852 185.719Z" fill="white"/>
<path d="M171.067 195.203L177.733 196.555L177.206 198.295L170.905 196.498L170.256 195.094" fill="white"/>
<path d="M180.477 53.1172C180.477 53.1172 185.987 53.1659 187.759 54.4725C189.531 55.7792 190.293 56.7856 190.512 58.8795C190.735 60.9734 186.822 64.7148 185.099 65.1085C183.376 65.5021 183.23 63.0389 184.114 62.1056C184.998 61.1682 185.837 58.9566 183.574 58.3154C181.312 57.6743 186.672 57.4795 180.477 53.1212V53.1172Z" fill="#DD857F"/>
<path d="M170.145 64.0094C170.145 64.0094 175.951 66.5213 179.981 65.9775C184.016 65.4378 189.92 60.4141 189.92 60.4141C189.92 60.4141 185.001 70.0639 178.554 69.4227C171.106 68.6842 170.141 64.0053 170.141 64.0053L170.145 64.0094Z" fill="#DD857F"/>
<path d="M147.815 75.9688C147.815 75.9688 149.031 82.1734 152.794 84.2754C156.557 86.3815 154.343 110.198 173.826 123.155C181.968 128.572 155.158 123.378 147.077 113.74C138.996 104.103 141.838 86.1218 141.838 86.1218L147.815 75.9688Z" fill="#DD857F"/>
<path d="M189.211 124.595C189.211 124.595 193.01 121.828 200.207 119.941C207.4 118.058 209.359 120.493 209.359 120.493C209.359 120.493 207.254 122.708 206.038 123.26C204.822 123.812 201.943 126.693 199.619 126.693C197.296 126.693 190.873 125.253 190.873 125.253L189.215 124.587L189.211 124.595Z" fill="#DD857F"/>
<path d="M193.524 130.507C193.524 130.507 191.456 139.22 179.908 139.037C174.584 138.952 166.256 133.904 166.11 129.103C165.964 124.303 193.524 130.507 193.524 130.507Z" fill="#DD857F"/>
<path d="M201.633 67.8571C201.633 67.8571 197.525 60.6704 198.288 57.6148C198.511 56.7261 198.734 54.8757 199.395 54.1209C201.953 51.2032 208.964 50.1562 208.964 50.1562L208.952 50.1887C208.206 52.2177 208.047 54.4171 208.502 56.5313L208.546 56.7302L205.57 57.5377L204.029 59.1325L202.642 60.3742L203.161 60.9423C203.161 60.9423 205.708 61.7539 207.48 61.8635C209.252 61.973 207.05 64.3145 207.05 64.3145C207.05 64.3145 206.657 70.2716 201.637 67.8611L201.633 67.8571Z" fill="#DD857F"/>
<path d="M205.151 63.0744C205.151 63.0744 206.112 64.0605 208.374 63.9103C210.637 63.7642 212.137 63.1231 212.137 63.1231C212.137 63.1231 210.783 65.7323 208.35 65.5335C205.913 65.3347 204.611 63.8332 204.611 63.8332L205.151 63.0703V63.0744Z" fill="#DD857F"/>
<path d="M188.795 78.1953C188.795 78.1953 186.629 79.575 186.581 82.9715C186.532 86.368 189.678 87.6991 191.746 87.204C193.814 86.7089 196.369 85.5321 196.369 85.5321L191.057 85.386L188.795 78.1994V78.1953Z" fill="#DD857F"/>
<path d="M193.319 85.2802C193.319 85.2802 193.663 82.4235 195.877 82.2287C197.179 82.111 200.751 81.202 202.604 81.4658C203.897 81.6524 203.557 83.2959 204.388 82.4275C204.388 82.4275 207.388 77.3794 207.879 79.522C208.37 81.6646 208.025 82.7237 207.263 83.4866C206.5 84.2495 205.86 86.3678 200.718 85.0124C195.577 83.6571 193.314 85.2843 193.314 85.2843L193.319 85.2802Z" fill="#DD857F"/>
<path d="M189.653 81.9905C189.653 81.9905 191.238 83.0983 193.452 81.7673C195.666 80.4363 196.035 80.5499 195.593 81.9905C195.151 83.431 196.367 83.6908 197.105 84.0194C197.843 84.3522 199.984 84.4983 198.176 85.0177C196.367 85.5371 195.962 85.9389 194.632 85.8658C193.302 85.7928 191.607 86.1621 190.869 85.3139C190.131 84.4658 189.653 81.9905 189.653 81.9905Z" fill="#DD857F"/>
<path d="M187.402 100.741C187.402 100.741 194.928 96.6429 196.923 95.4255C198.914 94.2081 200.349 93.6968 201.898 96.4643C201.898 96.4643 202.672 93.916 204.444 94.2487C206.216 94.5815 208.649 98.68 209.87 100.121C211.09 101.561 208.584 100.741 208.584 100.741C208.584 100.741 206.626 97.8481 190.273 100.741C189.418 100.892 188.343 100.555 187.406 100.741H187.402Z" fill="#C66075"/>
<path d="M201.675 109.721C205.689 110.046 205.596 105.842 205.596 105.842C205.596 105.842 200.013 105.61 198.723 105.428C197.434 105.245 197.661 109.396 201.675 109.721Z" fill="#DD857F"/>
<path d="M187.402 100.749C187.402 100.749 196.294 104.332 199.725 104.551C203.155 104.77 206.046 104.239 206.845 104.145C208.961 103.898 209.022 100.931 209.022 100.931C209.022 100.931 208.317 98.7969 201.12 98.7969C197.049 98.7969 193.537 100.132 190.954 100.676C188.976 101.094 187.398 100.749 187.398 100.749H187.402Z" fill="#D78392"/>
<path d="M202.418 85.6016C202.418 85.6016 203.01 90.1789 203.894 92.3946C204.778 94.6102 205.516 94.0949 206.404 94.9795C207.292 95.8641 208.026 96.8989 208.026 96.8989C208.026 96.8989 206.752 93.961 205.025 90.5969C204.194 88.9737 203.403 87.2491 202.418 85.6016Z" fill="#DD857F"/>
<path d="M124.905 37.8559C124.905 37.8559 118.928 44.6124 118.596 55.4675C118.596 55.4675 120.368 47.1608 125.237 43.2814C125.237 43.2814 121.584 53.6941 123.246 61.7816C123.246 61.7816 127.232 43.1718 136.416 35.8594C136.416 35.8594 129.11 38.7405 127.342 45.6066C127.342 45.6066 125.57 41.7312 128.116 38.1846C128.116 38.1846 124.572 40.6234 123.356 42.8391C123.356 42.8391 123.465 40.8466 124.905 37.8559Z" fill="#3E3C60"/>
<path d="M189.283 21.5781C189.283 21.5781 196.959 26.4517 198.727 36.9375C198.727 36.9375 199.611 32.4575 198.135 28.0262C198.135 28.0262 203.597 29.9456 205.267 41.7624C205.267 41.7624 208.661 32.0152 204.48 23.7938C204.48 23.7938 205.758 28.6674 204.825 32.7537C204.825 32.7537 202.563 25.5184 195.921 23.5462C195.921 23.5462 197.3 25.6645 196.955 27.4865C196.955 27.4865 194.149 23.0552 189.279 21.5781H189.283Z" fill="#3E3C60"/>
<path d="M161.242 41.8125C161.242 41.8125 162.941 46.0206 161.465 52.6675C161.465 52.6675 164.194 49.1979 164.563 45.282C164.563 45.282 167.957 45.209 165.893 51.8559C165.893 51.8559 172.535 42.9203 168.918 34.5C168.918 34.5 170.025 42.3278 167.738 45.1359C167.738 45.1359 165.67 42.7742 164.344 42.9203L163.091 44.3243C163.091 44.3243 162.795 42.4049 161.246 41.8125H161.242Z" fill="#3E3C60"/>
<path d="M156.361 78.0697C154.962 77.6477 154.52 75.8825 155.554 74.8517C156.945 73.4639 158.741 71.4187 159.844 69.2152C161.835 65.2263 175.856 70.0268 174.603 75.4198C173.582 79.8146 162.066 79.7943 156.365 78.0738L156.361 78.0697Z" fill="#EFB8AB"/>
<path d="M186.074 71.822C183.99 72.0087 182.749 69.5455 184.148 67.9913C188.454 63.207 196.786 57.5461 197.622 60.687C199.503 67.7763 204.851 74.2365 205.297 76.0829C205.743 77.9293 201.607 79.9988 197.845 78.0023C194.082 76.0098 198.437 71.5786 189.8 71.6516C188.381 71.6638 187.144 71.7287 186.074 71.822Z" fill="#EFB8AB"/>
<path d="M210.229 73.2114C209.231 73.3981 208.526 74.2908 208.566 75.3053C208.619 76.5105 209.041 78.1621 210.61 79.7325C213.562 82.6867 217.324 76.1859 216.44 73.9743C215.816 72.416 212.276 72.8299 210.229 73.2114Z" fill="#EFB8AB"/>
<path d="M182.014 111.746C182.014 111.746 189.207 109.088 191.089 110.971C192.97 112.854 199.835 116.178 192.086 118.393C184.338 120.609 181.572 111.527 181.572 111.527" fill="#EFB8AB"/>
<path d="M184.561 48.1598C184.561 48.1598 184.464 44.467 185.397 42.8925C186.333 41.3181 189.038 40.6282 189.087 44.5157C189.135 48.4033 187.363 50.0305 187.217 49.9818C187.071 49.9331 184.561 48.1598 184.561 48.1598Z" fill="#EFB8AB"/>
<path d="M187.586 91.4794C187.586 91.4794 193.303 87.8597 196.291 87.4539C199.28 87.0481 200.496 91.8487 197.913 93.4354C195.33 95.022 187.841 98.6417 187.14 96.7223C186.438 94.8029 187.582 91.4794 187.582 91.4794H187.586Z" fill="#EFB8AB"/>
<path d="M258.004 161.817C257.708 162.259 263.344 175.212 266.141 192.929C269.705 215.516 271.34 247.127 270.942 247.691C230.581 304.68 116.319 293.397 58.9588 253.752C53.6641 250.093 52.0776 244.726 47.7948 240.643C46.1648 239.088 51.4197 209.997 58.333 186.976C61.6944 175.784 64.6746 165.802 68.924 161.545C68.9199 161.549 75.1804 152.625 75.1804 152.625C90.9654 155.571 115.419 134.105 130.645 129.657C136.589 123.757 136.042 117.638 141.447 128.501C146.422 134.438 157.893 144.177 164.623 147.983C164.623 147.983 162.876 151.834 163.083 151.761C164.696 153.461 167.024 162.352 167.977 164.552L163.642 183.409C169.947 192.182 171.496 201.004 174.387 201C176.463 201 179.277 195.502 184.8 186.603C188.935 184.111 180.072 166.735 179.581 163.748C180.254 160.725 182.197 148.791 185.501 147.33C186.628 145.009 192.909 134.994 193.355 132.542L196.923 132.822C214.598 140.419 246.987 144.096 258.008 161.809L258.004 161.817Z" fill="#B6E0F9"/>
<path d="M149.626 162.612L145.956 162.089L135.677 153.482L128.967 139.417C128.967 139.417 128.65 133.853 128.756 133.436C128.861 133.018 132.953 125.251 132.953 125.251L137.672 121.578L141.135 128.505L154.767 141.835L165.046 148.973L162.844 152.857L165.78 157.893L167.665 164.564L163.89 184.132L149.63 162.616L149.626 162.612Z" fill="white"/>
<path d="M182.342 150.416L179.195 164.189L186.328 183.395L195.033 159.153L196.083 161.88L198.913 152.226C198.913 152.226 200.276 140.576 200.17 139.947C200.065 139.318 197.547 133.543 197.547 133.543L195.844 130.609L194.169 131.758L192.714 133.628L189.263 140.158L184.754 148.237L182.342 150.416Z" fill="white"/>
<path d="M134.525 152.535C110.7 151.062 98.4952 159.831 85.8729 166.409C63.2841 178.177 62.838 236.884 59.1645 254.739C57.4676 262.995 50.4204 258.729 46.7662 253.209C45.6789 251.566 46.8119 247.59 46.0718 246.582C45.2852 245.511 51.0591 211.091 58.6414 186.042C61.9501 175.105 64.7154 164.599 70.0879 157.689C80.9667 143.705 108.563 136.928 129.891 129.867C127.369 136.559 131.29 146.651 134.521 152.539L134.525 152.535Z" fill="#89C0E5"/>
<path opacity="0.49" d="M139.351 127.145C139.351 127.145 132.271 127.798 133.163 135.752C134.947 151.598 152.565 158.525 152.565 158.525L160.82 151.229L164.311 154.71L168.151 163.995L163.261 182.873L150.152 163.354L148.474 163.67L135.681 153.489L128.549 137.85L128.76 131.974L133.082 124.767L137.019 121.5L139.699 125.883L139.724 127.165L139.351 127.141V127.145Z" fill="#9FC4D3"/>
<path opacity="0.49" d="M180.137 161.855C180.137 161.855 182.971 154.283 188.915 155.963C194.859 157.643 190.525 168.977 190.525 168.977L185.562 179.893L186.75 182.202L195.139 160.512L196.749 160.93C196.749 160.93 200.698 150.436 200.281 144.243C199.863 138.051 198.428 134.18 198.428 134.18C198.428 134.18 199.826 149.665 193.323 157.326L188.883 154.072L182.732 149.872L181.527 154.823L180.141 161.851L180.137 161.855Z" fill="#9FC4D3"/>
<path d="M180.965 222.948C180.965 222.948 182.92 221.069 186.285 219.661C189.65 218.253 205.375 212.377 211.712 212.145C215.159 212.02 222.587 214.418 225.012 215.749C227.436 217.08 229.626 218.805 229.861 219.271C230.096 219.738 230.879 223.029 230.25 224.441C229.622 225.853 227.748 228.511 227.748 228.511C227.748 228.511 229.155 228.901 230.879 231.486C232.602 234.071 233.149 237.516 233.462 239.317C233.774 241.119 232.837 243.704 232.132 244.406C231.426 245.108 231.349 247.068 231.349 247.068L232.756 249.653L185.888 251.926L184.793 238.38L181.663 224.287L180.957 222.956L180.965 222.948Z" fill="#EFB09E"/>
<path d="M96.1465 229.603L97.3994 218.326C97.3994 218.326 103.737 216.135 104.049 215.899C104.361 215.664 112.341 215.352 112.341 215.352L113.671 216.058L108.822 223.025C108.822 223.025 108.274 229.21 108.039 229.21C107.804 229.21 96.3817 230.699 96.3817 230.699L96.1465 229.603Z" fill="#EFB09E"/>
<path d="M101.731 216.422C101.731 216.422 98.2884 225.191 101.313 226.445C104.338 227.699 109.451 221.64 109.451 221.957C109.451 222.273 108.409 228.742 108.409 228.742L96.3867 230.698L97.5585 217.883L101.731 216.422Z" fill="#DD857F"/>
<path d="M188.945 219.504C188.945 219.504 186.127 225.924 186.909 229.527C187.692 233.131 192.699 252.077 192.699 252.077L185.891 251.919L183.621 233.439L180.961 222.945C180.961 222.945 182.056 221.221 183.309 220.754C184.562 220.287 188.941 219.5 188.941 219.5L188.945 219.504Z" fill="#DD857F"/>
<path d="M213.981 223.731L227.909 227.959L229.162 226.08C229.162 226.08 226.814 223.26 220.087 221.694C213.357 220.127 212.578 222.164 212.578 222.164L213.985 223.731H213.981Z" fill="#DD857F"/>
<path d="M213.823 235.471C213.823 235.471 212.258 231.242 216.795 232.184C221.333 233.125 227.593 236.1 229.629 239.232C231.664 242.365 231.818 245.498 231.818 245.498L230.095 243.773C230.095 243.773 227.747 241.269 226.494 240.64C225.241 240.015 213.819 235.471 213.819 235.471H213.823Z" fill="#DD857F"/>
<path d="M96.3047 197.945C96.3047 197.945 98.7051 208.281 97.9752 217.367C97.9752 217.367 106.948 213.922 111.121 215.488L104.86 208.91C104.86 208.91 107.573 204.523 107.885 200.246L101.523 206.199L96.3087 197.949L96.3047 197.945Z" fill="#89C0E5"/>
<path d="M228.481 216.421C228.481 216.421 228.481 216.271 228.481 216.003C228.481 213.987 228.518 205.331 228.794 205.144C229.106 204.937 229.836 200.238 229.836 200.238L229.73 195.539L226.6 202.324L217.627 196.687L224.512 210.992L223.259 214.331L228.473 217.464" fill="#89C0E5"/>
<path d="M229.552 203.695C229.552 203.695 228.693 219.972 233.7 234.848C238.708 249.725 230.416 251.762 230.416 251.762L231.823 245.496L234.012 239.389L232.289 234.065L227.752 228.506L230.412 223.571L227.752 216.928L228.222 208.695L229.552 203.695Z" fill="#89C0E5"/>
<path d="M161.301 224.768C161.301 224.768 163.803 224.561 165.055 224.038C166.308 223.514 174.029 220.698 174.029 220.698C174.029 220.698 175.071 219.55 176.429 219.655C177.783 219.761 181.672 224.273 181.672 224.273C181.672 224.273 186.132 245.756 185.82 245.858C185.507 245.959 186.862 255.463 186.862 255.463L166.519 256.818L164.954 244.393C164.954 244.393 163.912 229.881 163.701 229.463C163.49 229.045 161.301 224.764 161.301 224.764V224.768Z" fill="white"/>
<path d="M108.404 228.741C108.404 228.741 108.822 223.104 109.211 222.633C109.601 222.163 113.359 216.997 113.513 216.526C113.667 216.056 116.644 214.57 116.644 214.57C116.644 214.57 117.426 215.276 118.679 216.137C119.932 216.997 125.252 219.034 125.799 219.034C126.347 219.034 129.477 219.192 129.712 219.347C129.947 219.505 126.659 225.689 126.659 225.689L108.741 228.899L108.4 228.741H108.404Z" fill="white"/>
<path d="M129.948 218.247C129.948 218.247 130.126 218.215 130.727 218.231C132.434 218.272 137.53 218.677 151.544 221.226L126.352 225.142L129.482 220.443" fill="#89C0E5"/>
<path d="M218.939 190.329C218.055 190.374 217.191 190.418 216.307 190.463C216.413 190.812 216.51 191.145 216.607 191.477C216.774 192.029 216.948 192.581 217.102 193.137C217.143 193.287 217.212 193.324 217.37 193.312C217.751 193.279 218.136 193.267 218.537 193.247L218.55 195.158C216.899 195.243 215.245 195.328 213.578 195.414L213.566 193.514C214.016 193.49 214.475 193.466 214.961 193.441C214.925 193.295 214.9 193.174 214.868 193.052C214.669 192.277 214.471 191.502 214.276 190.727C214.256 190.637 214.243 190.568 214.114 190.572C212.93 190.637 211.75 190.694 210.566 190.759C210.546 190.759 210.529 190.771 210.497 190.779C210.302 191.741 210.108 192.711 209.909 193.693C210.42 193.669 210.919 193.64 211.425 193.616L211.438 195.572C209.735 195.661 208.04 195.746 206.329 195.836L206.316 193.892C206.803 193.868 207.282 193.843 207.772 193.819C207.951 192.902 208.121 192.001 208.299 191.08C207.156 191.136 206.033 191.197 204.889 191.254L204.873 189.193C205.303 189.172 205.733 189.148 206.175 189.128C206.15 185.415 206.122 181.722 206.098 178.009C205.668 178.029 205.242 178.054 204.8 178.074C204.792 178.001 204.78 177.948 204.78 177.895C204.776 177.392 204.776 176.889 204.768 176.386C204.768 176.276 204.796 176.232 204.918 176.223C206.438 176.15 207.959 176.069 209.479 175.992C209.499 175.992 209.516 175.992 209.556 176L209.568 177.77C209.074 177.794 208.583 177.818 208.076 177.847C208.101 181.576 208.129 185.285 208.153 189.006L209.025 188.961C209.682 186.251 210.343 183.524 211.004 180.797C211.936 180.748 212.849 180.703 213.777 180.655C214.475 183.309 215.172 185.959 215.869 188.617L216.749 188.572L216.729 185.865C217.463 185.829 218.172 185.792 218.898 185.756C218.91 187.273 218.919 188.795 218.931 190.341L218.939 190.329ZM211.032 188.746C211.977 188.698 212.897 188.649 213.842 188.6C213.384 186.717 212.934 184.847 212.48 182.98C212.467 182.98 212.455 182.98 212.447 182.984C211.977 184.899 211.507 186.815 211.032 188.742V188.746Z" fill="#3366AF"/>
<path d="M215.724 55.7182C215.724 55.7182 214.998 56.9477 215.513 61.2329C216.028 65.5181 219.312 70.5013 219.681 75.4114C220.079 80.7192 219.499 87.8937 219.089 92.6902C218.826 95.8108 218.128 99.7065 217.65 101.626C217.22 103.351 216.73 107.238 215.623 109.454C214.516 111.669 209.796 118.264 208.762 119.72C207.992 120.796 206.191 123.243 201.163 124.594C198.147 125.406 194.348 126.172 187.844 125.036C187.844 125.036 193.865 127.99 202.579 126.079C205.182 125.507 207.562 124.172 209.358 122.204C209.691 121.839 210.007 121.449 210.279 121.051C211.175 119.724 213.299 116.462 214.933 113.946C215.014 113.82 215.095 113.694 215.177 113.564C216.762 111.053 217.216 110.221 218.112 107.384C218.615 105.797 219.215 103.225 219.389 102.214C219.981 98.8178 220.667 93.4775 220.817 91.136C220.817 91.136 221.899 79.6885 221.307 75.1842C220.715 70.6798 219.057 67.5268 217.423 63.2457C216.624 61.1518 217.131 58.3477 216.807 55.8724C216.709 55.1176 215.777 56.8179 215.724 55.7141V55.7182Z" fill="#1B1532"/>
<path d="M206.329 123.633C206.329 123.633 202.486 127.184 197.624 129.984C193.456 132.382 190.873 133.603 184.158 134.857C184.158 134.857 192.843 131.639 195.706 129.984C198.066 128.616 203.921 124.595 203.921 124.595L206.329 123.633Z" fill="#1B1532"/>
<path d="M122.538 87.2959C122.538 87.2959 127.866 96.5359 129.622 99.0397C131.799 102.14 132.647 102.915 135.821 103.58C138.996 104.246 139.771 103.617 140.878 102.213C141.985 100.809 140.768 96.3776 140.768 96.3776C140.768 96.3776 143.866 100.216 141.948 103.467C140.03 106.717 133.968 105.459 132.91 104.92C131.211 104.059 128.555 101.349 127.598 99.5022C126.638 97.6559 122.923 91.2808 121.743 89.3614C120.564 87.442 120.823 81.6797 120.823 81.6797L122.546 87.2919L122.538 87.2959Z" fill="#1B1532"/>
<path d="M135.365 104.823C135.365 104.823 136.999 108.711 137.222 112.257C137.445 115.804 137.21 121.944 137.21 121.944C137.21 121.944 137.936 124.776 138.22 122.893C138.654 120.012 138.358 117.326 138.479 115.065C138.678 111.324 137.705 106.154 137.409 105.221C137.113 104.287 135.369 104.827 135.369 104.827L135.365 104.823Z" fill="#1B1532"/>
<path d="M140.83 103.298C140.83 103.298 141.495 106.374 142.01 107.632C142.525 108.89 145.525 112.408 148.664 113.735C148.664 113.735 144.706 109.49 143.977 107.384C143.016 104.617 142.355 101.18 142.355 101.18L140.83 103.298Z" fill="#1B1532"/>
<path d="M166.202 64.8354C166.202 64.8354 175.378 59.9375 178.03 59.4262C180.681 58.9108 181.967 58.3549 183.451 59.134C184.955 59.9253 186.735 63.5288 186.735 63.5288C186.735 63.5288 186.536 61.6418 186.196 60.6923C185.924 59.9375 185.819 58.0384 182.887 57.3932C181.764 57.1456 179.457 57.4256 177.061 58.1317C171.777 59.6859 165.379 63.0134 165.379 63.0134L169.847 62.0233L166.206 64.8354H166.202Z" fill="#1B1532"/>
<path d="M171.349 61.8649C171.466 61.8243 175.306 62.6157 178.075 62.5386C180.845 62.4574 185.67 61.5078 185.67 61.5078L186.104 62.1003C186.104 62.1003 181.226 63.9467 178.14 63.9101C175.055 63.8696 170.307 62.4858 170.307 62.4858L171.349 61.8649Z" fill="#1B1532"/>
<path d="M189.832 75.5822C189.832 75.5822 188.032 77.7775 188.174 80.7642C188.283 83.1259 188.47 85.3051 191.199 86.1532C193.697 86.9282 196.721 85.5729 198.197 85.3294C199.673 85.0859 202.378 85.2807 202.378 85.2807C202.378 85.2807 200.176 83.5561 196.19 84.3433C192.204 85.1306 191.247 84.6801 190.461 82.9149C189.832 81.5109 188.652 79.137 189.832 75.5781V75.5822Z" fill="#1B1532"/>
<path d="M194.782 81.4084C194.827 81.3678 195.52 80.54 196.684 80.5238C197.848 80.5035 199.709 81.4449 199.838 81.8913C199.968 82.3377 198.695 82.8327 197.385 82.7597C196.076 82.6866 195.763 84.3301 194.786 84.0501C193.809 83.7742 193.331 82.7394 194.786 81.4084H194.782Z" fill="#1B1532"/>
<path d="M203.303 82.9775C203.303 82.9775 204.483 82.1659 205.148 81.5369C205.813 80.9079 206.109 80.4656 206.478 80.5021C206.847 80.5386 206.956 81.9061 205.999 82.7908C205.038 83.6754 203.343 84.1583 203.307 82.9734L203.303 82.9775Z" fill="#1B1532"/>
<path d="M204.055 73.1174C204.055 73.1174 206.577 76.9563 207.116 79.4194C207.655 81.8826 207.104 83.8507 205.089 85.2304C205.089 85.2304 208.734 84.5974 208.669 80.2594C208.62 77.1105 204.059 73.1215 204.059 73.1215L204.055 73.1174Z" fill="#1B1532"/>
<path d="M208.15 81.9782C208.15 81.9782 209.046 81.7712 209.233 82.3961C209.419 83.0211 208.981 83.2727 208.523 83.3985C208.065 83.5242 207.668 82.8141 207.878 82.4814C208.089 82.1486 208.15 81.9822 208.15 81.9822V81.9782Z" fill="#1B1532"/>
<path d="M198.985 54.8047C198.985 54.8047 197.655 57.2679 198.199 59.5809C198.742 61.8939 200.51 65.6841 200.51 65.6841C200.51 65.6841 199.399 61.2812 199.245 59.7513C198.997 57.3409 198.985 54.8047 198.985 54.8047Z" fill="#1B1532"/>
<path d="M186.984 100.589C186.984 100.589 189.494 100.836 191.659 99.9962C193.825 99.1603 195.597 97.042 201.399 98.3244C201.399 98.3244 203.021 98.718 204.253 98.373C205.482 98.0281 207.818 99.2901 208.434 100.098C209.05 100.905 210.895 100.637 210.895 100.637C210.895 100.637 209.172 101.672 207.749 100.735C206.824 100.13 206.163 99.4565 203.211 99.8502C199.29 100.374 201.439 99.1603 196.768 99.5539C195.094 99.6959 190.63 102.066 186.992 100.589H186.984Z" fill="#1B1532"/>
<path d="M198.735 106.339C198.264 106.368 198.118 105.71 198.56 105.544C199.355 105.239 200.442 104.963 201.865 104.874C205.409 104.651 206.808 106.128 204.744 107.09C202.83 107.979 205.859 105.889 198.735 106.339Z" fill="#1B1532"/>
<path d="M128.836 93.5027C128.836 93.5027 130.802 94.9311 132.477 95.0285C132.477 95.0285 129.821 95.5195 128.049 94.2899C126.277 93.0604 123.131 85.821 122.98 84.7862C122.83 83.7514 121.505 79.7137 123.52 77.2546C125.535 74.7914 126.326 76.7149 126.326 76.7149C126.326 76.7149 124.801 76.7149 123.864 78.683C122.928 80.6511 123.52 84.4412 124.258 86.1659C124.996 87.8905 126.768 92.3705 128.831 93.5027H128.836Z" fill="#1B1532"/>
<path d="M130.027 91.7361C130.027 91.7361 132.055 92.7343 133.421 92.2879C134.788 91.8456 136.742 93.3227 137.812 92.2879C138.883 91.2532 138.846 89.4798 137.739 87.9297C137.739 87.9297 138.331 91.1436 136.819 91.3992C135.307 91.6549 133.571 90.7337 132.833 91.2532C132.095 91.7726 130.027 91.732 130.027 91.732V91.7361Z" fill="#1B1532"/>
<path d="M167.865 63.8626C167.865 63.8626 169.921 66.8168 173.562 67.2956C173.562 67.2956 169.118 64.7351 169.434 62.8359L167.865 63.8667V63.8626Z" fill="#1B1532"/>
<path d="M212.379 34.0549C212.379 34.0549 213.522 32.4317 211.531 27.7772C209.54 23.1228 204.484 18.2857 204.484 18.2857L205.259 17.8799C198.617 9.31354 187.033 6.65556 187.033 6.65556L186.047 4.39124C163 -2.60063 149.892 4.22078 149.892 4.22078L147.58 3.90021C143.424 4.36688 139.974 10.884 139.974 10.884C138.591 10.8109 137.322 11.3344 137.322 11.3344C132.229 13.2538 123.426 22.0921 123.426 22.0921L125.036 23.5448C119.87 25.9065 113.5 42.7227 113.5 42.7227L114.583 42.7471L113.427 47.1297C110.549 61.3082 111.818 68.7424 111.818 68.7424L113.464 70.3899C113.265 73.2954 116.724 84.0044 116.724 84.0044C116.724 84.0044 119.368 92.8792 120.252 95.4641C121.135 98.049 122.307 102.148 122.307 102.148L123.106 102.959C122.246 105.297 123.881 106.875 123.881 106.875L124.42 104.465C127.051 105.426 128.714 111.331 128.539 113.623C128.369 115.912 128.823 117.661 128.823 117.661C128.677 115.519 130.619 115.409 130.619 115.409L130.92 116.066C131.828 115.746 132.363 114.634 132.387 114.24C132.412 113.847 132.955 112.568 133.815 111.801C134.674 111.034 137.922 111.517 137.922 111.517L138.019 112.759C138.019 112.759 134.046 111.923 133.458 114.285C132.866 116.647 131.293 117.535 131.293 117.535L130.652 119.061L130.356 117.336C129.322 118.124 129.225 121.127 129.225 121.127C126.913 117.73 127.996 115.17 127.108 111.132C126.224 107.094 125.081 107.317 125.081 107.317L124.306 109.866C121.869 107.76 121.869 103.884 121.869 103.884L121.646 106.21C121.314 103.109 119.1 94.7986 116.996 89.1499C114.891 83.5012 111.903 71.2056 111.903 71.2056L111.019 73.0885C108.363 59.0195 112.126 44.2891 112.126 44.2891L110.468 45.8392C112.904 35.5361 121.845 23.4028 121.845 23.4028L118.107 25.3222C126.273 15.23 136.162 10.5025 136.162 10.5025C133.308 10.5999 131.783 10.5025 131.783 10.5025C134.488 8.97673 138.964 9.22426 138.964 9.22426C138.964 9.22426 143.98 1.59124 151.262 0.657905L149.145 2.28109C149.145 2.28109 172.229 -4.22788 190.605 4.74428L188.168 4.85382C188.168 4.85382 203.219 10.1698 209.751 20.1402L207.537 19.5883C207.537 19.5883 212.517 23.1349 215.837 35.3169L214.954 34.9842C214.954 34.9842 218.753 42.7998 220.277 50.3801C221.802 57.9604 225.443 58.8491 225.443 58.8491C225.443 58.8491 220.573 59.3401 218.655 52.0074C218.655 52.0074 217.67 54.6653 220.573 59.3442C220.573 59.3442 218.505 58.7517 217.768 56.1424C217.768 56.1424 216.097 55.7001 215.85 57.8143L215.752 55.6474C215.752 55.6474 215.85 54.9088 217.423 54.5639C217.423 54.5639 217.078 52.7743 217.569 50.8955C217.646 50.5952 217.605 47.7181 217.605 47.7181C217.605 47.7181 216.571 40.5558 212.367 34.0549H212.379Z" fill="#1B1532"/>
<path d="M180.29 58.6905C180.29 58.6905 179.025 61.0117 180.764 62.6511L181.373 62.4644C181.373 62.4644 180.132 60.3015 181.109 58.6094L180.29 58.6905Z" fill="#1B1532"/>
<path d="M215.664 57.0272C216.179 50.1612 212.809 46.4928 212.809 46.4928C213.693 51.6626 212.12 51.7844 212.12 51.7844C209.095 46.6145 201.42 44.5206 201.42 44.5206C201.566 48.8058 205.182 52.742 205.182 52.742C196.424 51.4881 193.744 45.4783 193.744 45.4783C194.705 51.6586 192.933 53.0342 192.933 53.0342C193.525 43.5832 188.396 35.4227 188.396 35.4227L183.587 30.2406L183.417 34.3027L182.456 30.7844L181.016 25.7891C179.358 31.105 180.043 40.978 168.779 53.1884C162.588 59.9003 155.399 63.5281 155.399 63.5281C155.399 63.5281 154.859 66.7298 152.005 68.7953C149.15 70.8649 146.79 70.4185 146.79 70.4185L146.494 73.2753C145.955 72.7356 144.723 73.1292 144.723 73.1292C144.625 82.6817 141.868 85.2423 141.868 85.2423C141.795 82.8805 137.919 74.4968 134.784 77.8202C131.281 81.5292 130.616 81.2898 130.616 81.2898C129.655 77.1913 126.322 76.7246 126.322 76.7246C126.322 76.7246 128.439 78.3965 129.42 82.3854C129.42 82.3854 131.192 84.455 134.338 80.1698C137.485 75.8846 140.635 83.615 141.325 87.9976C141.325 87.9976 146.243 82.7791 145.752 74.6063C145.752 74.6063 146.49 75 146.835 77.0695C146.835 77.0695 147.918 76.0834 147.67 72.1472C147.67 72.1472 152.97 71.989 156.4 64.5669C156.4 64.5669 178.365 54.771 181.316 31.5798C181.316 31.5798 185.695 39.4563 180.53 51.8655C180.53 51.8655 186.016 47.4829 184.467 33.7467C184.467 33.7467 187.857 36.0192 189.88 41.8708C192.179 48.5299 191.948 55.7531 191.948 55.7531C191.948 55.7531 194.9 54.276 194.997 50.0435C194.997 50.0435 201.736 54.6209 207.048 53.7362L202.916 46.4481C202.916 46.4481 210.936 49.6986 212.015 53.8336C212.015 53.8336 213.685 52.9977 214.03 51.0255C214.03 51.0255 214.671 51.9102 215.652 58.3136V57.0354L215.664 57.0272Z" fill="#1B1532"/>
<path d="M170.42 52.5446C170.42 52.5446 175.946 52.4675 180.427 53.7457C184.907 55.024 187.734 56.1602 187.734 56.1602L187.511 55.3243C187.511 55.3243 189.003 56.0466 189.611 57.5805C189.611 57.5805 190.377 55.5718 189.396 54.0785L190.835 53.6849C190.835 53.6849 188.682 51.6072 184.364 51.0107C184.364 51.0107 184.49 50.8362 185.276 50.755C185.276 50.755 178.769 47.671 173.542 48.9939L170.42 52.5405V52.5446Z" fill="#1B1532"/>
<path d="M128.111 77.4376C128.111 77.4376 127.134 75.4451 125.102 76.0173C123.075 76.5895 124.863 76.9019 124.863 76.9019C124.863 76.9019 126.744 76.5327 127.462 77.9733L128.107 77.4376H128.111Z" fill="#1B1532"/>
<path d="M120.378 84.8357C120.378 84.8357 120.82 81.5853 123.232 79.5198L123.626 77.9453C123.626 77.9453 119.052 78.485 120.378 84.8398V84.8357Z" fill="#1B1532"/>
<path d="M200.386 51.8245C200.386 51.8245 199.425 53.0906 199.23 54.6204L199.968 54.2755C199.968 54.2755 200.017 55.0141 200.508 56.1949C200.508 56.1949 205.28 49.8929 210.985 51.6663C210.985 51.6663 211.22 49.8199 208.759 48.984C206.298 48.148 201.071 49.4141 200.382 51.8286L200.386 51.8245Z" fill="#1B1532"/>
<path d="M128.641 79.8191C128.641 79.8191 129.675 83.4145 129.33 84.989C128.985 86.5635 129.281 89.0754 131.248 87.5496C133.214 86.0238 131.345 82.5785 133.316 82.0835C135.286 81.5884 134.544 84.5467 135.185 84.5954C135.826 84.644 136.365 80.2128 135.088 79.3281L132.529 81.1015L131.15 81.3977L129.922 81.0041L128.645 79.8232L128.641 79.8191Z" fill="#1B1532"/>
<path d="M113.465 70.3833C113.465 70.3833 113.761 65.3636 115.383 61.5938C115.383 61.5938 112.8 66.6134 112.062 70.3062L113.465 70.3792V70.3833Z" fill="#1B1532"/>
<path d="M123.093 103.014C123.093 103.014 123.721 100.291 125.197 97.9297C125.197 97.9297 122.837 99.768 121.84 103.014H123.093Z" fill="#1B1532"/>
<path d="M137.444 77.5533C137.444 77.5533 137.111 75.3011 133.645 72.6797C133.645 72.6797 136.004 76.555 135.931 77.6994C135.858 78.8437 137.444 77.5533 137.444 77.5533Z" fill="#1B1532"/>
<path d="M155.4 63.5206C155.4 63.5206 159.139 56.6545 159.877 46.4609C159.877 46.4609 160.911 55.4696 157.736 62.782L155.4 63.5206Z" fill="#1B1532"/>
<path d="M201.793 46.5319C201.793 46.5319 200.723 44.0201 197.625 41.2891C197.625 41.2891 201.019 43.5777 203.675 45.6838L201.793 46.5319Z" fill="#1B1532"/>
<path d="M181.975 57.6341C181.975 57.6341 183.742 57.1837 185.299 57.8452C186.856 58.5066 185.591 59.5333 185.591 59.5333L181.979 57.6341H181.975Z" fill="#1B1532"/>
<path d="M202.58 60.9181C202.58 60.9181 204.339 58.1627 207.397 57.4607C210.454 56.7587 211.5 57.7772 212.53 59.9279L212.611 60.423C212.611 60.423 213.548 57.0224 209.542 56.1946C206.938 55.659 204.445 57.2091 203.403 58.5361C202.843 59.2503 202.219 60.6015 202.219 60.6015L202.576 60.9181H202.58Z" fill="#1B1532"/>
<path d="M202.907 60.1056C202.907 60.1056 201.889 60.6575 201.78 61.2337C201.67 61.81 202.992 62.0332 203.268 61.7004C203.544 61.3676 202.911 60.1016 202.911 60.1016L202.907 60.1056Z" fill="#1B1532"/>
<path d="M210.537 56.9557C210.537 56.9557 212.601 56.3755 213.757 57.6172C214.912 58.8589 212.394 60.0966 212.394 60.0966C212.394 60.0966 212.228 58.0311 210.537 56.9557Z" fill="#1B1532"/>
<path d="M202.578 57.2382C202.578 57.2382 205.056 54.3854 208.482 54.4706C211.908 54.5518 212.776 56.1222 212.776 56.1222C212.776 56.1222 207.326 54.0973 202.578 57.2382Z" fill="#1B1532"/>
<path d="M203.153 60.9884C203.153 60.9884 205.302 61.317 208.327 61.2643C211.355 61.2075 212.977 59.5234 212.977 59.5234L213.091 59.8968C213.091 59.8968 211.891 62.3234 208.31 62.4086C204.73 62.4898 202.93 61.4023 202.93 61.4023L203.149 60.9884H203.153Z" fill="#1B1532"/>
<path d="M209.009 57.2102C209.009 57.2102 207.687 59.6328 209.504 61.3412L210.137 61.1465C210.137 61.1465 208.843 58.8862 209.861 57.125L209.009 57.2062V57.2102Z" fill="#1B1532"/>
<path d="M144.713 19.5781C144.713 19.5781 146.153 32.9816 140.841 46.385C140.841 46.385 140.95 42.1769 140.066 37.9647L141.396 40.4036C141.396 40.4036 144.275 30.9891 144.717 19.5781H144.713Z" fill="#1B1532"/>
<path d="M157.441 7.39708C157.441 7.39708 171.167 7.2875 183.452 13.6017C183.452 13.6017 174.82 7.17795 162.753 6.17969L162.311 6.8452C162.311 6.8452 159.988 6.40288 157.441 7.39708Z" fill="#1B1532"/>
<path d="M194.432 131.35C192.879 135.294 189.741 142.363 185.313 147.809C183.537 149.996 181.737 151.518 176.385 152.119C173.765 152.415 167.241 151.238 159.549 146.515C157.575 145.301 143.189 134.199 139.693 128.672C138.465 126.728 138.177 124.951 137.658 123.847C136.863 122.159 137.046 122.252 136.758 121.534L137.808 119.273C137.808 119.273 137.516 120.649 139.904 125.478C140.581 126.85 141.392 128.335 142.978 130.043C149.51 137.076 165.145 151.27 176.214 150.609C179.3 150.422 182.454 149.603 184.883 146.271C188.164 141.775 191.217 135.432 192.835 131.833" fill="#1B1532"/>
<path d="M160.895 152.532C160.895 152.532 164.114 154.354 165.517 158.245C166.92 162.137 167.172 164.551 167.172 164.551C167.172 164.551 174.697 161.451 179.555 165.018C179.555 165.018 181.671 157.332 182.803 150.28L182.397 149.594L181.748 150.207L178.975 163.249C178.975 163.249 173.42 160.915 167.995 163.103C167.995 163.103 167.212 158.753 165.185 155.429C163.162 152.106 161.568 151.826 161.568 151.826L160.883 152.528L160.895 152.532Z" fill="#1B1532"/>
<path d="M167.178 164.549C167.178 164.549 165.666 170.279 164.693 174.276C163.72 178.273 162.523 182.574 162.523 182.574L163.136 183.913C163.136 183.913 166.931 172.003 168.147 163.977L167.174 164.545L167.178 164.549Z" fill="#1B1532"/>
<path d="M178.68 164.175C178.68 164.175 182.325 173.066 183.622 176.551C184.92 180.037 185.97 184.822 185.97 184.822L186.619 183.361C186.619 183.361 182.811 171.199 179.572 163.578L178.68 164.175Z" fill="#1B1532"/>
<path d="M180.804 58.456L180.447 60.4038C180.447 60.4038 180.366 61.7105 180.487 61.9864C180.609 62.2623 179.17 62.8954 181.371 62.4612C183.573 62.027 183.496 61.9458 184.129 61.9052C184.761 61.8647 185.353 61.7875 185.633 61.6658C185.913 61.5441 186.03 61.7064 185.434 60.5986C184.838 59.4907 184.96 58.6994 183.614 58.4194C182.267 58.1435 180.808 58.4519 180.808 58.4519L180.804 58.456Z" fill="#1B1532"/>
<path d="M182.048 60.1189L183.106 60.6789C183.106 60.6789 182.117 60.3381 182.234 60.6181C182.352 60.8981 180.093 61.4256 182.295 60.9914C184.497 60.5572 182.222 61.0928 182.855 61.0522C183.487 61.0117 181.456 62.5537 181.736 62.436C182.015 62.3183 184.886 61.4702 184.294 60.3624C183.702 59.2546 182.599 58.9624 181.253 58.6865C179.907 58.4105 182.048 60.1149 182.048 60.1149V60.1189Z" fill="#1B1532"/>
<path d="M209.081 58.3788C209.227 58.2408 208.075 56.8449 211.136 57.2547C214.194 57.6687 211.514 57.3319 212.458 57.8553C213.407 58.3788 212.503 59.8924 212.503 59.8924C212.503 59.8924 212.361 60.7162 210.958 61.2072C209.555 61.6982 213.375 61.9417 210.293 61.3695C208.61 61.0571 208.785 60.1481 209.421 59.9371C210.058 59.7261 209.673 60.4808 209.016 59.8762C208.359 59.2716 208.829 59.9492 209.048 59.5637C209.267 59.1782 209.081 58.3788 209.081 58.3788Z" fill="#1B1532"/>
<path d="M136.349 107.281C136.349 107.281 139.645 108.511 142.841 106.64L141.709 102.898L138.709 104.473L135.461 104.327L136.345 107.281H136.349Z" fill="#1B1532"/>
<path d="M167.695 149.406C167.695 149.406 163.442 151.025 163.944 154.016C163.944 154.016 160.583 151.476 160.814 151.204C163.466 148.075 167.695 149.406 167.695 149.406Z" fill="#1B1532"/>
<path d="M166.852 166.092C166.852 166.092 174.556 162.761 179.417 165.597L179.004 164.392L176.331 163.174C176.331 163.174 172.2 162.688 171.956 162.688C171.713 162.688 167.5 163.337 167.5 163.337L166.852 166.092Z" fill="#1B1532"/>
<path d="M168.307 164.711C168.226 165.036 163.932 186.031 163.932 186.031L162.635 183.357L167.496 165.523L168.307 164.711Z" fill="#1B1532"/>
<path d="M129.893 129.859C129.893 129.859 93.6444 139.623 75.9658 152.633C75.9658 152.633 62.3987 162.071 58.64 186.03C58.64 186.03 45.5586 231.126 46.4953 253.21" stroke="#1B1532" stroke-width="4.07" stroke-linecap="round" stroke-linejoin="round"/>
<path d="M198.93 134.18C198.93 134.18 227.726 140.222 242.563 147.612C242.563 147.612 262.175 156.381 263.217 181.65C263.217 181.65 268.59 202.897 270.937 247.06" stroke="#1B1532" stroke-width="4.07" stroke-linecap="round" stroke-linejoin="round"/>
<path d="M150.045 162.817C150.045 162.817 160.952 179.751 174.304 201.367C190.385 181.638 194.789 160.508 194.789 160.508" stroke="#1B1532" stroke-width="4.07" stroke-linecap="round" stroke-linejoin="round"/>
<path d="M137.321 121.398C137.321 121.398 133.189 123.764 130.423 129.474C128.745 132.939 128.412 136.904 129.426 140.617C131.044 146.57 135.528 156.378 147.948 164.287C147.948 164.287 156.86 152.848 165.983 149.106" stroke="#1B1532" stroke-width="4.07" stroke-linecap="round" stroke-linejoin="round"/>
<path d="M196.368 130.602C199.122 133.393 203.821 141.68 196.324 162.814C196.324 162.814 192.407 154.101 182.201 149.938" stroke="#1B1532" stroke-width="4.07" stroke-linecap="round" stroke-linejoin="round"/>
<path d="M151.093 164.573C151.093 164.573 155.289 156.388 162.486 153.377L160.179 151.766L155.845 154.773L150.322 162.471L151.093 164.568V164.573Z" fill="#1B1532"/>
<path d="M159.481 152.735C159.481 152.735 162.627 154.273 163.884 156.582C165.141 158.891 166.402 163.509 166.26 164.767C166.118 166.025 162.136 181.068 162.136 181.068L163.673 184.006L168.008 164.694L166.471 159.796L163.673 153.778L162.068 152.297L159.477 152.727L159.481 152.735Z" fill="#1B1532"/>
<path d="M181.574 154.976C181.574 154.976 187.725 153.718 190.661 157.565C193.596 161.412 193.596 164.35 193.596 164.35L194.225 160.71L192.06 156.161L185.629 152.452L182.693 150.492L181.574 154.968V154.976Z" fill="#1B1532"/>
<path d="M142.869 107.904C142.869 107.904 136.856 101.111 138.073 120.532L136.893 106.13L142.058 105.984L142.869 107.904Z" fill="#1B1532"/>
<path d="M87.6973 233.052C87.6973 233.052 118.525 227.638 126.663 225.443C134.801 223.248 153.736 219.961 157.333 221.839C160.934 223.718 162.341 226.068 163.906 233.117C165.471 240.165 166.253 248.31 166.253 248.31" stroke="#1B1532" stroke-width="4.07" stroke-linecap="round" stroke-linejoin="round"/>
<path d="M161.244 224.506C161.244 224.506 170.319 223.098 174.077 220.748C174.077 220.748 177.99 216.991 181.12 223.569C184.251 230.146 185.504 247.373 185.504 247.373" stroke="#1B1532" stroke-width="4.07" stroke-linecap="round" stroke-linejoin="round"/>
<path d="M95.5215 230.927C95.5215 230.927 99.1221 218.867 97.2447 201.016" stroke="#1B1532" stroke-width="4.07" stroke-linecap="round" stroke-linejoin="round"/>
<path d="M97.8691 209.473C97.8691 209.473 101.47 207.517 102.406 205.086" stroke="#1B1532" stroke-width="4.07" stroke-linecap="round" stroke-linejoin="round"/>
<path d="M227.855 228.415C230.88 225.494 230.775 221.63 229.732 219.541C228.69 217.451 223.212 214.006 219.458 213.068C216.522 212.334 212.573 211.266 207.172 213.068C201.775 214.87 185.106 219.723 183.934 220.584C182.763 221.444 181.352 222.539 181.352 222.539" stroke="#1B1532" stroke-width="4.07" stroke-linecap="round" stroke-linejoin="round"/>
<path d="M213.352 223.719C213.352 223.719 222.742 226.434 226.286 228.207C229.834 229.98 233.901 234.992 233.901 239.171C233.901 243.351 231.188 245.124 231.188 245.124" stroke="#1B1532" stroke-width="4.07" stroke-linecap="round" stroke-linejoin="round"/>
<path d="M213.562 235.516C213.562 235.516 223.995 238.961 226.396 240.32C228.796 241.676 231.509 246.48 231.509 246.48" stroke="#1B1532" stroke-width="4.07" stroke-linecap="round" stroke-linejoin="round"/>
<path d="M212.051 221.953C212.051 221.953 214.293 223.832 212.886 227.277" stroke="#1B1532" stroke-width="4.07" stroke-linecap="round" stroke-linejoin="round"/>
<path d="M212.674 233.953C212.674 233.953 213.509 236.457 213.404 238.859" stroke="#1B1532" stroke-width="4.07" stroke-linecap="round" stroke-linejoin="round"/>
<path d="M126.662 225.448C126.662 225.448 130.741 214.191 134.488 213.233C140.59 211.667 165.004 221.378 170.165 222.002" stroke="#1B1532" stroke-width="4.07" stroke-linecap="round" stroke-linejoin="round"/>
<path d="M226.756 216.034C226.756 216.034 226.339 209.038 229.781 201.328" stroke="#1B1532" stroke-width="4.07" stroke-linecap="round" stroke-linejoin="round"/>
<path d="M227.28 208.2L225.715 205.242" stroke="#1B1532" stroke-width="4.07" stroke-linecap="round" stroke-linejoin="round"/>
<path d="M129.635 219.026C129.635 219.026 122.75 219.026 118.76 215.893C118.76 215.893 116.96 213.467 115.006 215.11C113.051 216.754 107.809 222.313 107.809 229.203" stroke="#1B1532" stroke-width="4.07" stroke-linecap="round" stroke-linejoin="round"/>
<path d="M113.438 215.973C113.438 215.973 105.377 213.234 97.4785 218.477" stroke="#1B1532" stroke-width="4.07" stroke-linecap="round" stroke-linejoin="round"/>
<path d="M148.518 175.734C148.518 175.734 168.337 206.64 172.931 211.858" stroke="#1B1532" stroke-width="4.07" stroke-linecap="round" stroke-linejoin="round"/>
<path d="M196.923 176.984C196.923 176.984 188.785 192.226 186.283 197.449" stroke="#1B1532" stroke-width="4.07" stroke-linecap="round" stroke-linejoin="round"/>
<path d="M85.0898 146.914L86.3387 149.836" stroke="#1B1532" stroke-width="4.07" stroke-linecap="round" stroke-linejoin="round"/>
<path d="M234.06 144.203L233.018 146.707" stroke="#1B1532" stroke-width="4.07" stroke-linecap="round" stroke-linejoin="round"/>
<path d="M182.746 60.7762C183.061 60.7762 183.317 60.3856 183.317 59.9037C183.317 59.4219 183.061 59.0312 182.746 59.0312C182.43 59.0312 182.174 59.4219 182.174 59.9037C182.174 60.3856 182.43 60.7762 182.746 60.7762Z" fill="white"/>
<path d="M211.374 59.0653C211.69 59.0653 211.946 58.6746 211.946 58.1928C211.946 57.7109 211.69 57.3203 211.374 57.3203C211.059 57.3203 210.803 57.7109 210.803 58.1928C210.803 58.6746 211.059 59.0653 211.374 59.0653Z" fill="white"/>
</svg>
