<svg width="95" height="76" viewBox="0 0 95 76" fill="none" xmlns="http://www.w3.org/2000/svg">
<path fill-rule="evenodd" clip-rule="evenodd" d="M61.2876 6.1691C61.3845 6.10211 61.4485 6.00552 61.4767 5.87778C61.4876 5.83884 61.4923 5.79678 61.4923 5.75471C61.4923 5.5522 61.3642 5.31697 61.1783 5.12068C61.0377 4.97113 60.8455 4.82158 60.6581 4.72811C60.002 4.39941 58.9272 4.34332 58.3274 4.44302C58.0837 4.48353 57.879 4.55986 57.7509 4.66579C57.3995 4.95399 57.3713 5.27179 57.79 5.59426C57.9853 5.74381 58.4211 5.90582 59.1897 6.05382C59.4396 6.10211 59.6677 6.14261 59.8708 6.17533C57.6369 6.21895 55.6936 6.36694 53.8925 6.78288C51.7305 7.28138 49.7793 8.16156 47.797 9.69757C46.6582 10.5793 45.3835 11.863 44.1822 13.2962C42.9856 14.7231 41.8577 16.3043 41.0064 17.7936L38.9459 21.7287C39.1896 20.2441 40.1019 18.4152 41.3063 16.5972C43.2824 13.6155 46.0177 10.7117 47.922 9.36731C48.5593 8.9171 48.8655 8.69589 48.6015 8.29865L48.5843 8.27372C48.3609 7.95904 48.0704 8.05562 47.5142 8.23322C47.3377 8.2893 47.1159 8.36096 46.9097 8.42327C41.8968 9.9515 37.9571 12.4674 34.8531 15.8416C31.7585 19.2081 29.4996 23.4236 27.8438 28.3666C27.3829 29.739 26.8049 31.7361 26.266 33.7566C25.7286 35.7787 25.2272 37.8413 24.9257 39.3352C24.7585 40.1578 24.568 41.2763 24.4305 42.1892C24.2758 43.2127 24.2055 44.0804 24.304 44.233C24.3961 44.3764 24.5867 44.4667 24.8179 44.4947C24.9398 44.5103 25.0866 44.5197 25.2303 44.5197C26.6487 44.5197 34.1658 45.54 42.6466 46.791C52.2881 48.2133 63.1513 49.9316 67.7377 50.7946L67.7533 50.7977C68.3141 50.9052 68.6766 50.98 68.9484 51.0361L69.1218 51.0719C67.5237 50.9847 64.6025 50.6933 60.933 50.2665C56.9246 49.8007 52.0444 49.1745 47.0425 48.4766C43.5589 47.9905 37.1807 47.1929 32.0131 46.5947C28.1234 46.1445 24.8835 45.8096 23.9868 45.8049C23.8869 45.7877 23.7806 45.8002 23.6838 45.8501C22.7762 46.3096 16.1137 51.7246 12.1427 55.0771C11.2492 55.8311 10.4978 56.476 9.98227 56.9324C9.68858 57.1926 9.45895 57.4278 9.30118 57.635C9.24338 57.6615 9.19026 57.7004 9.14496 57.7503C8.96687 57.9466 8.98405 58.2504 9.18089 58.4279C9.29805 58.5339 9.55268 58.5604 9.84792 58.5027C9.98383 58.4762 10.1713 58.4357 10.3869 58.3874C16.5557 56.9838 22.7325 60.4266 29.509 64.2044L29.6184 64.2651C31.8538 65.5129 34.0033 66.6735 35.8591 67.6394C37.7274 68.6115 39.2802 69.3779 40.3065 69.8297C41.0829 70.1708 41.8327 70.4435 42.6294 70.6693C43.4246 70.8937 44.2619 71.0682 45.2132 71.213C47.1987 71.5199 49.2045 71.523 51.1165 71.199C52.9708 70.8859 54.7407 70.2659 56.3232 69.3234C58.1446 68.2391 61.4001 65.622 64.765 62.7353C69.2405 58.8937 73.93 54.5552 75.664 52.7341C75.7452 52.6609 75.8015 52.5612 75.8171 52.4443C75.853 52.1826 75.6703 51.9396 75.4063 51.9038L73.4801 51.6343C72.4116 51.4987 72.018 51.399 71.7165 51.3227C71.3712 51.2355 71.1338 51.1747 70.284 51.1249C70.4933 51.0236 70.4355 50.7852 70.3387 50.402L70.3246 50.3459C70.3137 50.2961 70.3246 50.078 70.359 49.6356C70.3996 49.1402 70.473 48.4251 70.5855 47.4297C70.862 44.9792 71.0541 43.0724 71.1932 41.337C71.3322 39.6078 71.4197 38.0189 71.4868 36.1978C71.5259 35.1151 71.5337 32.8157 71.5197 30.6145C71.5056 28.4289 71.4697 26.3429 71.4197 25.6357C71.1619 21.9857 70.6089 18.5382 69.4342 15.4678C68.2485 12.3692 66.4302 9.65863 63.6512 7.52285C63.0669 7.07419 62.5905 6.74549 62.2046 6.52584C61.8406 6.31865 61.5345 6.20181 61.2798 6.16754L61.2876 6.1691ZM47.8204 8.85323C47.9017 8.96851 47.8688 8.94203 47.7939 8.87193L47.8204 8.85323ZM72.0352 48.5124C71.968 49.1059 71.918 49.5624 71.9258 49.8864C71.918 49.9129 71.9102 49.9394 71.9071 49.9674C71.868 50.2291 72.0508 50.4737 72.3132 50.5111L88.3173 52.8463C89.0484 52.9865 89.4702 53.055 89.7842 53.0441C90.1919 53.0285 90.3981 52.907 90.6527 52.6702L90.6809 52.6453C91.3635 51.9957 91.5791 49.9908 91.5525 47.6073C91.5119 43.9853 90.9589 39.3929 90.6606 37.6247C89.6623 31.7206 88.0533 26.6296 85.418 22.1695C82.778 17.7017 79.1148 13.8788 74.0113 10.5201C72.2054 9.33304 70.7276 8.54946 69.1843 7.92477C67.6424 7.30164 66.0381 6.83585 63.9776 6.28438L63.9027 6.27191C63.8402 6.26412 63.7746 6.26724 63.7105 6.28593C63.2434 6.41679 63.1716 6.68006 63.4637 7.05706C63.4871 7.08821 63.5199 7.12249 63.5605 7.15832C63.6605 7.24867 63.8589 7.39978 64.101 7.56647C75.7234 15.6267 72.7647 42.0069 72.0352 48.5124Z" fill="#D5261C"/>
<path fill-rule="evenodd" clip-rule="evenodd" d="M82.2305 20.2653C82.1649 21.0006 81.6447 21.6175 80.9308 21.8075C80.2153 21.9976 79.4561 21.7218 79.0328 21.1158C78.6094 20.5098 78.6094 19.706 79.0359 19.1016C79.453 20.111 80.5184 20.4989 82.2305 20.2653Z" fill="#8C1913"/>
<path fill-rule="evenodd" clip-rule="evenodd" d="M58.0767 16.927C58.3063 17.7698 57.8814 18.6516 57.0785 19.0005C56.2755 19.3495 55.3398 19.0582 54.8758 18.3182C54.4134 17.5782 54.565 16.6108 55.232 16.0469C55.0071 16.8227 55.4476 17.6359 56.2208 17.8758C56.9941 18.1157 57.8189 17.6951 58.0751 16.9286L58.0767 16.927Z" fill="#8C1913"/>
<path fill-rule="evenodd" clip-rule="evenodd" d="M61.2866 6.1691C61.3834 6.10211 61.4475 6.00552 61.4756 5.87778C61.4865 5.83884 61.4912 5.79678 61.4912 5.75471C61.4912 5.5522 61.3631 5.31697 61.1772 5.12068C61.0366 4.97113 60.8445 4.82158 60.657 4.72811C60.0009 4.39941 58.9262 4.34332 58.3263 4.44302C58.0826 4.48353 57.878 4.55986 57.7499 4.66579C57.3984 4.95399 57.3703 5.27179 57.7889 5.59426C57.9842 5.74381 58.42 5.90582 59.1886 6.05382C59.4385 6.10211 59.6666 6.14261 59.8697 6.17533C57.6358 6.21895 55.6925 6.36694 53.8914 6.78288C51.7294 7.28138 49.7783 8.16156 47.7959 9.69757C46.6571 10.5793 45.3824 11.863 44.1811 13.2962C43.425 14.1966 42.6971 15.1593 42.0488 16.1221C47.4335 11.0139 54.3944 7.5431 62.1426 6.49001C61.8083 6.30619 61.5256 6.20025 61.2866 6.1691ZM40.8413 17.3216C40.9912 17.0801 41.1459 16.8371 41.3052 16.5956C43.2813 13.614 46.0166 10.7102 47.9209 9.36576C48.5582 8.91554 48.8644 8.69433 48.6004 8.29709L48.5832 8.27216C48.3598 7.95748 48.0693 8.05407 47.5132 8.23166C47.3366 8.28774 47.1148 8.3594 46.9086 8.42171C41.8957 9.94994 37.956 12.4658 34.852 15.8401C31.7574 19.2065 29.4986 23.422 27.8427 28.365C27.3819 29.7375 26.8039 31.7346 26.2649 33.7551C25.7276 35.7771 25.2261 37.8397 24.9246 39.3337C24.7575 40.1562 24.5669 41.2747 24.4294 42.1876C24.2748 43.2111 24.2045 44.0788 24.3029 44.2315C24.3951 44.3748 24.5856 44.4651 24.8168 44.4932C24.9387 44.5088 25.0855 44.5181 25.2292 44.5181C26.3118 44.5181 30.9514 45.1132 36.8594 45.9513C33.0977 44.0399 31.1107 41.7779 30.8998 39.1654C31.6496 30.7049 35.2925 23.0949 40.8366 17.32L40.8413 17.3216ZM41.0522 47.6914C38.1356 47.3238 34.8879 46.9296 32.0136 46.5963C28.1239 46.146 24.884 45.8111 23.9873 45.8064C23.8874 45.7893 23.7811 45.8018 23.6843 45.8516C22.7767 46.3112 16.1141 51.7262 12.1432 55.0786C11.2496 55.8326 10.4983 56.4776 9.98275 56.934C9.68906 57.1941 9.45942 57.4294 9.30165 57.6366C9.24385 57.6631 9.19073 57.702 9.14544 57.7519C8.96735 57.9481 8.98454 58.2519 9.18137 58.4295C9.29853 58.5354 9.55315 58.5619 9.8484 58.5043C9.9843 58.4778 10.1718 58.4373 10.3873 58.389C14.3817 57.4808 18.3792 58.604 22.5392 60.5341C26.5805 55.2438 32.7509 50.9628 41.0537 47.693L41.0522 47.6914ZM63.6016 6.32176C63.7266 6.3093 63.8516 6.29684 63.9766 6.28593L63.9016 6.27347C63.8391 6.26568 63.7735 6.2688 63.7094 6.28749C63.6704 6.2984 63.6345 6.31086 63.6016 6.32332V6.32176ZM47.8193 8.85323C47.9006 8.96851 47.8678 8.94203 47.7928 8.87193L47.8193 8.85323Z" fill="#8C1913"/>
<path d="M49.715 73.9185C52.9767 73.6833 56.2182 72.5227 59.2331 70.5131C61.9872 68.6749 65.541 65.5841 71.0054 60.2673C74.4249 56.9429 74.8889 56.1235 77.2384 53.4534L81.6998 54.1217C89.2309 55.2667 92.2474 55.7963 93.0628 50.2177C94.0001 43.8073 92.6676 32.9383 90.6774 27.6557C89.0934 23.4496 85.3021 17.1529 81.8842 13.7599C77.5961 9.50239 69.2371 4.9551 63.7883 4.1092C62.8339 3.9612 63.1275 4.1092 62.5214 3.51099C60.5047 1.51697 57.8038 2.05442 56.6837 3.60913C56.4603 3.91914 56.4306 3.93784 56.1885 3.89422C55.6699 3.80698 52.0223 4.33664 49.9259 4.80243C47.9763 5.23706 43.9007 6.71233 41.1842 7.96793C29.1072 13.5434 24.3552 24.456 22.151 37.5152C21.5918 40.8287 21.2872 44.217 21.5074 45.5365C17.5115 47.8997 5.35334 56.3073 2.85704 59.4993C1.89008 60.7331 1.6495 61.3453 1.63075 62.6025C1.61826 63.4297 1.69168 63.8394 2.25717 64.3877C5.50174 67.5268 12.2236 60.6614 12.5532 60.5773C12.8344 60.5056 14.4653 60.6178 15.3495 60.7673C22.2713 61.9388 32.3049 69.4304 40.0953 72.4916C42.765 73.5431 46.7485 74.1335 49.7119 73.9185H49.715ZM45.2879 70.739C43.4149 70.4524 42.0183 70.0582 40.5031 69.3915C38.4473 68.4879 34.3451 66.3537 29.854 63.8487C22.9493 59.9993 16.6632 56.4693 10.2819 57.9212C9.8648 58.0162 9.51644 58.0832 9.50551 58.0723C9.32899 57.9181 22.6322 46.9245 23.9053 46.278C24.4208 46.1207 40.5984 48.0617 46.9797 48.9528C57.0024 50.3517 66.5018 51.4562 69.5026 51.5699C72.0614 51.6665 70.8726 51.788 73.4252 52.1105L75.345 52.38C72.377 55.5081 60.2829 66.4114 56.0807 68.9132C52.9643 70.7686 49.0855 71.3294 45.2879 70.7374V70.739ZM88.392 52.3738L72.3848 50.0386C72.1161 49.8626 77.9038 16.5547 64.3773 7.175C64.0101 6.92107 63.7743 6.72946 63.8539 6.75127C67.9405 7.84642 70.2025 8.58951 73.7485 10.9231C83.8259 17.5517 88.2093 26.0076 90.1869 37.7037C90.6712 40.5717 91.8256 50.8954 90.351 52.299C89.9932 52.6402 89.8089 52.6464 88.3905 52.3738H88.392ZM82.0669 22.3062C83.8103 21.5148 81.3624 18.7824 81.9576 21.0241C82.2497 22.1255 80.6126 21.5802 80.0471 21.1191C79.0379 20.2966 79.5238 18.7824 79.3566 18.7824C79.266 18.7824 78.9348 19.1967 78.7864 19.4927C77.9991 21.0615 80.6344 22.9589 82.0654 22.3062H82.0669ZM81.1453 20.7515C81.528 20.482 81.1687 19.5613 80.6672 19.9834C80.2017 20.3745 80.6813 21.0755 81.1453 20.7515ZM67.8483 50.3284C59.2097 48.7035 28.3121 44.041 25.2347 44.041C24.9691 44.041 24.7364 44.0114 24.7114 43.9755C24.6442 43.8712 25.0769 41.011 25.3987 39.4298C25.9939 36.4886 27.3873 31.2419 28.3012 28.5188C31.5707 18.759 37.2007 11.8843 47.05 8.88082C48.3325 8.48981 48.5434 8.34181 47.6452 8.97585C44.1616 11.4372 37.9786 18.9584 38.4239 22.8966C38.466 23.2596 38.5082 23.5633 38.5191 23.5742L41.4247 18.0284C43.0947 15.1075 45.8675 11.8002 48.0935 10.0757C51.9411 7.09555 55.6527 6.66559 61.1358 6.63755C61.531 6.63443 62.2324 7.0348 63.3634 7.90406C68.7684 12.0588 70.4352 18.4599 70.9445 25.6726C71.046 27.1012 71.0882 34.0366 71.0117 36.1848C70.8789 39.7756 70.6602 42.5112 70.1119 47.3825C69.8822 49.403 69.8135 50.2583 69.8588 50.4577C69.9463 50.8456 70.0572 50.7521 67.8452 50.3315L67.8483 50.3284ZM57.2695 19.2559C60.3454 18.3758 57.3617 15.8801 57.8803 17.3492C58.4927 19.0799 54.8123 18.8665 54.8232 17.1591C54.8294 16.1372 55.7152 16.1559 55.1122 16.0235C54.553 15.9004 53.5141 16.5749 54.1327 17.8991C54.6264 18.9584 56.0932 19.5909 57.2695 19.2575V19.2559ZM56.8962 17.6327C57.2211 17.3305 57.0102 16.9176 56.5322 16.9176C55.5433 16.9176 56.301 18.1873 56.8962 17.6327ZM37.2647 17.5174C39.7845 17.103 38.3457 15.1589 38.3457 16.1559C38.3457 16.7494 36.593 17.5891 35.9447 16.0344C35.123 17.0345 36.3634 17.6685 37.2647 17.5174ZM37.6662 16.1792C37.8974 15.9798 37.8599 15.729 37.5834 15.6231C36.7008 15.2866 36.9711 16.7743 37.6662 16.1792ZM59.2831 5.5829C56.3572 5.02053 59.2503 4.55785 60.4469 5.15606C60.7172 5.29159 61.0124 5.60315 61.0124 5.75426C61.0124 5.85708 60.3704 5.79009 59.2831 5.58134V5.5829Z" fill="black"/>
</svg>
