<svg width="88" height="76" viewBox="0 0 88 76" fill="none" xmlns="http://www.w3.org/2000/svg">
<path fill-rule="evenodd" clip-rule="evenodd" d="M7.74882 28.2204C10.6664 28.1908 14.3005 28.9924 16.5585 29.7436C20.0317 30.8986 25.586 33.3461 30.1532 35.3603L32.4404 36.3674C32.4989 36.3881 32.553 36.4221 32.6013 36.468C32.8221 36.6824 32.8367 36.8998 32.6115 37.1275H32.6101C32.5574 37.1704 32.398 37.169 32.1479 37.1275L32.1114 37.2133L31.7077 37.0359C30.3038 36.7046 27.4535 35.7448 24.2713 34.6756C19.1119 32.9409 13.0472 30.9001 11.5365 30.557C10.0331 30.2154 8.74181 30.1104 7.68155 30.1326C7.86874 30.1548 8.05739 30.1799 8.24897 30.208C10.1253 30.4816 12.1624 30.9977 13.5005 31.434L13.5693 31.4561C14.3707 31.7179 14.7699 31.848 14.0022 32.413C13.8618 32.5135 13.6029 32.5564 13.0867 32.6422L12.9624 32.6629C12.218 32.7871 10.5333 33.3313 9.18492 33.7661C8.14221 34.1033 7.28962 34.3784 7.08049 34.3695C6.92401 34.3621 6.15332 34.1403 5.35191 33.7484C4.78302 33.4689 4.17027 33.1006 3.70083 32.6525C3.1802 32.1571 2.82922 31.5656 2.85701 30.8824C2.86724 30.6295 2.93013 30.3707 3.0559 30.1104C3.70814 28.7498 5.53763 28.2426 7.74443 28.2189L7.74882 28.2204ZM20.7469 18.7927C22.6685 15.6457 24.694 12.3301 27.493 9.96103C28.584 9.03674 30.1678 8.00598 31.8145 7.10388C33.4553 6.20474 35.1708 5.42982 36.5352 5.00983C38.3077 4.46561 40.6519 4.1447 43.1015 4.02787C45.7251 3.90217 48.4818 4.01013 50.7939 4.32216C56.7752 5.1311 63.1791 7.34346 68.7422 10.6827C73.8183 13.7291 78.2041 17.7176 80.9462 22.4411C81.1582 22.8049 81.5019 23.4718 81.7944 24.0663L81.8061 24.0885C82.0327 24.5499 82.2331 24.9906 82.3311 25.2553C82.3983 25.3692 82.4174 25.5126 82.3676 25.6472C82.2828 25.8838 82.0225 26.0051 81.79 25.9178L77.2287 24.2083C74.9882 23.4999 72.9145 22.7886 71.0148 21.9456C69.0976 21.0953 67.3661 20.1133 65.8305 18.8726C64.6152 17.8906 63.3078 16.7549 62.0838 15.6324C62.8252 16.4399 63.5813 17.2 64.3549 17.9217C65.9695 19.4286 67.6644 20.7774 69.4661 22.0728C70.5951 22.8315 75.1652 24.6874 77.7932 25.7537C78.5361 26.0554 79.1225 26.2935 79.4603 26.4384C81.0515 27.1216 82.1468 27.6259 82.9336 28.4023C83.7438 29.2009 84.1898 30.2361 84.4457 31.9501C84.5086 32.376 84.5452 32.6673 84.5364 32.8625C84.5393 32.9335 84.5276 33.006 84.4955 33.0755C84.1416 33.8519 83.8564 33.5428 83.4001 32.6836C83.0418 32.0107 82.704 31.539 82.2492 31.1574C81.866 30.835 81.3849 30.5614 80.7268 30.2701C82.4451 31.0938 83.4864 32.237 84.5028 36.0938C84.7163 36.9057 84.7017 37.793 84.6856 38.7824L84.6768 39.4301C84.6841 39.6386 84.5481 39.8309 84.3404 39.8856C84.1006 39.9492 83.8549 39.8028 83.792 39.5603L83.5683 38.6848C82.8722 35.9164 82.353 33.8548 80.2515 32.6052C79.9356 32.4174 80.117 32.1335 80.0599 32.2237C80.0365 32.2606 80.0131 32.2976 79.9883 32.3316C80.0512 32.6747 80.1696 33.043 80.37 33.5206C80.6522 34.195 81.0997 35.1 81.7754 36.4473C82.2258 37.3464 82.7259 38.457 83.172 39.5307C83.6107 40.5881 84.0056 41.6306 84.2556 42.4189L84.2629 42.4396C84.377 42.7989 84.4355 42.9942 84.4618 43.2204C84.4882 43.4437 84.4779 43.6611 84.456 44.0678C84.4457 44.2393 84.4428 44.3547 84.4399 44.4493C84.4282 44.825 84.4238 45.0172 84.2132 45.1843C83.9295 45.4076 83.7496 45.3071 83.3899 45.1L83.1442 44.961C81.711 44.1876 79.4062 43.6493 76.9025 43.2633C74.3652 42.8729 71.6393 42.6437 69.3886 42.4884C68.0695 42.3982 67.0297 42.3021 65.7735 42.1394C64.5217 41.9767 63.0812 41.749 60.9577 41.394C60.2909 41.2831 59.5523 41.1722 58.824 41.0642C57.8983 40.9267 56.9902 40.7907 56.1376 40.6354C56.5573 40.7463 57.3689 40.9385 58.2581 41.1397C59.33 41.3837 60.5175 41.641 61.2502 41.783C63.7319 42.2651 66.6275 42.6496 69.4881 43.0282C72.157 43.3816 74.7952 43.7306 77.0444 44.1521C79.5803 44.6268 81.303 45.1045 82.3764 45.6738C83.6063 46.326 84.0553 47.1054 83.912 48.1125C83.7101 49.5366 82.6996 52.3065 81.2196 55.6502C79.7499 58.9746 77.8151 62.8788 75.756 66.5937C75.6478 66.7874 75.5908 66.8983 75.541 66.9959C75.2968 67.4692 75.1681 67.7161 74.763 67.9306C74.3945 68.1243 73.8563 68.2263 72.7302 68.4363L72.1935 68.5369C70.0101 68.9495 65.8276 70.2213 62.2841 71.2994C61.3774 71.5745 60.519 71.8362 59.6196 72.1039L59.5713 72.1172C59.0449 72.2296 58.3912 72.302 57.774 72.3287C57.1481 72.3553 56.55 72.3331 56.1522 72.2577C56.0162 72.2311 55.8904 72.203 55.7734 72.1734C53.2317 71.5212 50.5043 69.2172 48.533 66.4828C46.5514 63.7351 45.3171 60.5259 45.7763 58.0888C45.7953 57.9838 45.8172 57.8877 45.8392 57.7975C46.5397 54.9995 49.0726 53.4615 51.4066 52.0447L51.5529 51.956C53.1367 50.9933 54.0039 50.4417 54.5801 49.9078C55.1329 49.3961 55.4444 48.8637 55.9182 47.9365C56.395 47.0004 56.3993 46.3142 56.1288 45.7256C55.8363 45.0926 55.2133 44.5085 54.4982 43.8563C54.4762 43.8356 54.4558 43.8134 54.4382 43.7913C54.3987 43.7425 54.3695 43.6848 54.3519 43.6197C54.1984 43.0356 54.4558 42.8921 55.0173 43.0873C55.0758 43.108 55.168 43.145 55.2806 43.1938C55.7676 43.4023 56.6494 43.8312 56.8878 43.9968C57.2461 44.2453 57.5327 44.541 57.7535 44.8693C58.3341 45.7345 58.4453 46.8111 58.2522 47.8951C58.068 48.9377 57.6015 49.9936 57.0092 50.8661C56.5427 51.5537 55.9928 52.1364 55.4341 52.5194C55.2309 52.6599 54.8331 52.8655 54.368 53.0947C55.7091 52.6392 56.7942 51.7904 57.5342 50.7404C58.3985 49.5129 58.7889 48.0104 58.5564 46.5478C58.5433 46.4695 58.5272 46.3778 58.5052 46.2757C58.0987 44.3695 56.5763 43.1021 54.6503 42.2399C52.6482 41.3452 50.2177 40.8868 48.1088 40.6102C46.468 40.3958 45.9898 40.2568 45.01 39.9699C44.6926 39.8767 44.3168 39.7673 43.7362 39.6091C41.5937 39.0293 39.8812 38.5029 37.6247 37.6644C35.377 36.8288 32.5881 35.6857 28.2886 33.8711C24.0066 32.064 21.1958 30.9149 19.0461 30.1281C16.908 29.3458 15.4105 28.917 13.7477 28.5472L13.3762 28.4659C12.9975 28.3846 12.7971 28.3417 12.6713 28.2426C11.9708 27.6954 12.3233 27.5712 13.0633 27.302L13.1656 27.2636C16.2792 26.1175 18.4392 22.5801 20.7542 18.7883L20.7469 18.7927ZM47.17 37.0906C44.6795 36.0495 44.1764 35.8395 38.84 33.3003C37.5677 32.6954 36.2954 32.1083 34.8914 31.4828C34.343 31.2388 33.7771 30.9903 33.1877 30.733C34.3664 31.3171 35.5802 31.9102 36.7326 32.4736C38.2287 33.2041 39.6209 33.8844 40.7689 34.4656L41.6274 34.9004C45.1094 36.6676 46.2443 37.2444 48.7158 37.7368L47.17 37.0891V37.0906ZM51.8117 38.6389C51.8336 38.4999 51.7664 38.5265 51.645 38.5813C51.7035 38.6463 51.743 38.6922 51.7693 38.6996H51.7781C51.7942 38.6996 51.8044 38.6803 51.8102 38.6389H51.8117ZM53.8854 58.4408C53.9439 58.2796 54.0156 58.1213 54.1004 57.9661C53.9776 58.1672 53.8752 58.3772 53.7948 58.5946L53.7874 58.6138C53.767 58.67 53.748 58.7306 53.7333 58.7913C53.454 59.9004 53.9308 61.7238 54.7687 63.392C55.6038 65.0557 56.781 66.533 57.9027 66.9516C57.9656 66.9752 58.0299 66.9959 58.0958 67.0122C58.5008 67.1172 58.9454 67.1024 59.4105 66.9989C58.6968 67.1098 58.049 67.0225 57.4976 66.7238C56.9565 66.4325 56.3964 65.8764 55.8612 65.1133C55.3508 64.3872 54.8506 63.463 54.4002 62.3908L54.39 62.3671C53.7319 60.801 53.4803 59.5662 53.8869 58.4408H53.8854ZM55.032 60.7315C55.0861 60.9622 55.1914 61.224 55.3669 61.5922L55.5994 62.0906C56.1463 63.2796 56.7006 64.4774 57.6629 64.8102H57.6658C58.7085 65.1784 60.1315 64.4272 61.5208 63.2751C63.8007 61.3866 65.9139 58.4748 66.3526 57.4056C66.5091 57.024 66.5573 56.7209 66.5164 56.4842C66.4579 56.1441 66.1727 55.9134 65.7472 55.767C65.2192 55.5851 64.5026 55.5304 63.7085 55.56C61.3891 55.6487 58.5008 56.4561 57.5079 56.9797C56.803 57.3494 56.1902 57.8625 55.7412 58.4275C55.3113 58.9687 55.0378 59.5469 54.9939 60.0749C54.9749 60.3233 54.9808 60.52 55.0305 60.733L55.032 60.7315ZM64.9984 11.8821C65.1666 11.9072 65.3377 11.9323 65.5205 11.956C65.0686 11.851 64.6065 11.783 64.0464 11.7327C63.8431 11.7149 63.6252 11.7076 63.4029 11.709C64.0888 11.7475 64.5392 11.814 64.9984 11.8821Z" fill="#00446A"/>
<path fill-rule="evenodd" clip-rule="evenodd" d="M29.5859 8.43311C32.4099 6.59933 35.4664 5.29202 38.6223 4.51562C37.8677 4.65316 37.1642 4.81879 36.5339 5.01252C35.1695 5.43103 33.4555 6.20743 31.8132 7.10657C31.0425 7.52805 30.285 7.9791 29.5859 8.43311ZM54.222 4.93266C56.5531 5.64103 58.8198 6.64517 60.9667 7.94804C66.7579 11.4633 71.072 16.7797 73.4134 22.9214C74.6243 23.371 75.8951 23.7925 77.2259 24.2125L81.7872 25.922C82.0212 26.0078 82.2801 25.8865 82.3649 25.6514C82.4131 25.5168 82.3956 25.3734 82.3283 25.2595C82.2303 24.9933 82.0314 24.5541 81.8033 24.0927L81.7916 24.0705C81.4991 23.4745 81.1555 22.809 80.9434 22.4452C78.2014 17.7218 73.8155 13.7333 68.7395 10.6869C64.2293 7.9791 59.1664 6.01222 54.2234 4.93414L54.222 4.93266ZM73.8463 24.1341C75.1156 27.9406 75.6392 32.0297 75.3043 36.1793C73.9238 40.5035 70.8351 42.5029 66.0398 42.1746C67.1776 42.3166 68.1603 42.4053 69.3815 42.4896C71.6307 42.6449 74.3581 42.8741 76.8954 43.2645C79.4005 43.6505 81.7053 44.1888 83.137 44.9622L83.3827 45.1013C83.7439 45.3083 83.9224 45.4103 84.2061 45.1855C84.4167 45.0184 84.4211 44.8262 84.4328 44.4506C84.4357 44.3559 84.4386 44.2406 84.4488 44.069C84.4722 43.6638 84.481 43.4449 84.4547 43.2216C84.4284 42.9954 84.3699 42.8002 84.2558 42.4408L84.2485 42.4201C83.9984 41.6333 83.6036 40.5893 83.1648 39.5319C82.7188 38.4582 82.2186 37.3476 81.7682 36.4485C81.0926 35.1013 80.6436 34.1962 80.3628 33.5218C80.1625 33.0427 80.044 32.6759 79.9811 32.3328C80.006 32.2988 80.0294 32.2619 80.0528 32.2249C80.1098 32.1347 79.9299 32.4186 80.2444 32.6064C82.3473 33.8561 82.8665 35.9176 83.5611 38.686L83.7849 39.5615C83.8478 39.804 84.092 39.9504 84.3333 39.8868C84.541 39.8321 84.677 39.6399 84.6697 39.4313L84.6784 38.7836C84.6945 37.7957 84.7106 36.9069 84.4956 36.095C83.4793 32.2382 82.438 31.095 80.7197 30.2713C81.3778 30.5627 81.8589 30.8362 82.242 31.1586C82.6969 31.5402 83.0347 32.0119 83.393 32.6848C83.8492 33.544 84.1344 33.8546 84.4883 33.0767C84.5205 33.0072 84.5322 32.9347 84.5293 32.8637C84.538 32.6685 84.5015 32.3772 84.4386 31.9513C84.1827 30.2373 83.7366 29.2021 82.9265 28.4035C82.1382 27.6271 81.0443 27.1214 79.4532 26.4396C79.1154 26.2947 78.5289 26.0566 77.786 25.7549C76.6819 25.3068 75.2341 24.7197 73.8419 24.1326L73.8463 24.1341ZM64.4312 42.3269C73.8097 47.2944 76.113 56.0906 71.344 68.717C71.6497 68.6461 71.9334 68.5869 72.1893 68.5381L72.726 68.4375C73.8521 68.2275 74.3903 68.1255 74.7588 67.9318C75.1654 67.7173 75.2926 67.4704 75.5368 66.9971C75.5865 66.8995 75.6436 66.7901 75.7518 66.5949C77.8109 62.88 79.7457 58.9758 81.2154 55.6514C82.6939 52.3077 83.7045 49.5378 83.9077 48.1137C84.0511 47.1066 83.6021 46.3272 82.3722 45.675C81.2988 45.1057 79.576 44.628 77.0402 44.1533C74.791 43.7318 72.1528 43.3828 69.4838 43.0294C67.7816 42.8046 66.0661 42.5769 64.4326 42.3284L64.4312 42.3269Z" fill="#00314D"/>
<path fill-rule="evenodd" clip-rule="evenodd" d="M15.9072 60.2412C17.0289 62.2081 18.4474 63.931 20.0575 65.1525C20.3354 65.364 20.6879 65.6065 20.9526 65.8402C21.0432 65.9274 21.0886 66.028 21.0886 66.1685V66.1803C21.0783 66.4687 20.7727 66.7245 20.2374 66.5337C20.059 66.4702 19.8016 66.3637 19.4916 66.2025C18.0087 65.4305 15.1248 63.3453 12.9297 58.508C12.0361 56.5382 11.5974 54.4131 11.7568 52.39C11.9045 50.5133 12.5641 48.7224 13.8481 47.2229C13.9709 47.078 14.0631 46.9833 14.1186 46.9375C14.3643 46.7423 14.5764 46.7511 14.7665 46.9848L14.7855 47.0085C14.8864 47.1445 14.9054 47.2909 14.8469 47.458L14.8323 47.4965C14.7987 47.5778 14.7168 47.7183 14.591 47.918C14.0119 48.8334 13.6433 49.731 13.4679 50.6612C13.2924 51.5929 13.307 52.5645 13.4971 53.6263C13.9022 55.9023 14.7446 58.2019 15.9072 60.2412ZM43.5938 55.6627C43.996 54.5107 44.6775 53.3542 45.7494 52.2732C47.7851 50.2235 49.7316 49.6881 51.6693 49.1557C52.6623 48.8836 53.6524 48.6115 54.6307 48.128C54.8033 48.0437 55.0183 48.0777 55.1558 48.2256C55.3254 48.4089 55.3181 48.6973 55.1367 48.8689C54.2052 49.7562 53.0133 50.4039 51.76 51.0857C50.144 51.9641 48.4198 52.9032 47.1344 54.4456C45.8401 55.9984 45.2946 57.4373 45.2142 58.894C45.1323 60.3714 45.5257 61.902 46.1048 63.6012L46.1107 63.6204C46.2379 64.0552 46.0799 64.2874 45.6281 64.3184C45.4935 64.3273 45.3122 64.2903 45.0826 64.209C44.9787 64.1705 44.8705 64.0966 44.7667 63.9916C44.3938 63.613 43.7518 62.4669 43.3891 60.954C43.0308 59.4574 42.927 57.5704 43.5924 55.6627H43.5938ZM29.2694 52.2687C28.3583 54.3865 26.8008 57.1149 26.4849 57.5823C26.4717 57.603 26.4571 57.6237 26.441 57.6429L26.3869 57.7065C26.2012 57.9268 26.1105 58.0348 25.8531 58.0451C25.6352 58.054 25.527 57.9727 25.3135 57.8115L25.2184 57.739C25.0898 57.6429 24.9611 57.5305 24.8353 57.4033C24.088 56.6506 23.4211 55.3581 23.1564 53.9724C22.8859 52.563 23.0204 51.0413 23.8862 49.8493C24.0061 49.6837 24.1392 49.5255 24.2898 49.3731L24.439 49.2297C25.4188 48.335 26.5785 48.1664 27.573 48.3025C28.5484 48.4356 29.3849 48.8822 29.7227 49.2134C29.7417 49.2327 29.7622 49.2534 29.7783 49.2741C30.1731 49.7162 29.8587 50.9052 29.2708 52.2687H29.2694ZM28.6946 58.2906L28.7795 58.2463C28.974 58.1398 29.1041 58.0806 29.1772 58.0584H29.1845C29.3454 57.9549 29.5004 57.9253 29.6335 57.9416C30.2624 57.8159 30.3662 57.9949 30.0284 58.4222C30.002 58.5805 29.8763 58.7461 29.613 58.8644C29.556 58.9177 29.4683 58.9872 29.363 59.0626C28.9725 59.3391 28.1886 59.8168 27.6592 60.0046L27.6358 60.0135C27.3039 60.1288 26.9222 60.2087 26.5624 60.2486C26.1895 60.29 25.8297 60.2856 25.5621 60.2294C24.5326 60.0135 23.7326 59.2489 23.1535 58.3246C22.3784 57.0854 21.9967 55.5222 22.0143 54.6763C22.0216 54.2918 22.1693 54.1143 22.4793 54.1158H22.4925C22.8362 54.1232 22.9195 54.3791 23.0584 54.8094C23.1988 55.2442 23.4474 56.0117 23.8569 56.8162L23.8979 56.8946C24.3936 57.8248 25.1292 58.4163 25.9657 58.6544C26.8081 58.894 27.766 58.7786 28.6961 58.2936L28.6946 58.2906ZM18.6141 52.5246C17.9794 54.5269 18.0643 56.6668 19.1933 59.0182C19.5442 59.7488 20.4685 61.2838 21.479 62.6828C22.1941 63.6736 22.9488 64.5905 23.5571 65.0845L23.5659 65.0919C24.3542 65.7204 24.3907 66.0694 23.5484 66.1492C23.4094 66.1626 23.1491 66.0797 22.7455 65.9008C20.3968 64.8641 18.1739 62.495 16.577 59.8005C14.9098 56.9907 13.9095 53.8023 14.1391 51.3829C14.2093 50.645 14.4477 49.9159 14.806 49.2149C15.7375 47.393 17.5027 45.7322 19.2459 44.5491C21.0154 43.3483 22.8084 42.6296 23.7312 42.7183C23.892 42.7331 24.0353 42.7715 24.1596 42.8307L24.1918 42.8455C24.5955 43.0584 24.7929 43.1797 24.7315 43.6308C24.6978 43.8733 24.5326 44.1291 24.205 44.626C23.9915 44.9484 23.7794 45.2324 23.5045 45.5577C23.2339 45.8771 22.902 46.2365 22.4413 46.7142C20.6469 48.5731 19.2591 50.4897 18.6141 52.5246Z" fill="#878787"/>
<path fill-rule="evenodd" clip-rule="evenodd" d="M16.2803 46.3565C15.2478 46.3624 16.6005 46.9185 15.8737 47.5943C15.4555 48.1134 15.0913 48.6576 14.8047 49.2166C16.1428 49.0732 17.5584 49.7993 19.0516 51.3935C19.793 49.7741 20.982 48.2258 22.44 46.7144C22.9007 46.2382 23.2341 45.8774 23.5032 45.5579C23.7781 45.2326 23.9902 44.9486 24.2037 44.6263C24.5313 44.1294 24.6965 43.8735 24.7302 43.631C24.7916 43.1814 24.5942 43.0587 24.1905 42.8457L24.1584 42.8309C24.0341 42.7718 23.8893 42.7348 23.7299 42.7185C22.8071 42.6283 21.0156 43.347 19.2446 44.5494C18.9068 44.7786 18.569 45.0255 18.2355 45.2873C18.3423 45.6969 16.1457 45.9484 16.2788 46.355L16.2803 46.3565ZM22.1256 55.7073C22.772 56.8209 23.433 58.0764 24.1057 59.4739C24.5269 59.8436 25.011 60.1158 25.5623 60.2311C25.8299 60.2873 26.1882 60.2917 26.5626 60.2503C26.9223 60.2104 27.3055 60.1305 27.636 60.0152L27.6594 60.0063C28.1888 59.8185 28.9727 59.3423 29.3631 59.0643C29.4684 58.9904 29.5562 58.9194 29.6132 58.8661C29.8764 58.7478 30.0022 58.5822 30.0285 58.424C30.3678 57.9966 30.2625 57.8176 29.6337 57.9433C29.5021 57.9271 29.347 57.9581 29.1847 58.0587H29.1774C29.1043 58.0823 28.9741 58.1415 28.7796 58.248L28.6948 58.2923C27.7632 58.7774 26.8068 58.8927 25.9645 58.6532C25.1279 58.4166 24.3938 57.8235 23.8966 56.8933L23.8556 56.815C23.4462 56.0105 23.1975 55.2429 23.0572 54.8082C22.9182 54.3778 22.8349 54.1234 22.4912 54.1146H22.478C22.168 54.1146 22.0203 54.2906 22.013 54.6751C22.0071 54.9531 22.0437 55.308 22.1241 55.7043L22.1256 55.7073ZM45.7496 52.2764C46.8845 52.2054 47.9023 52.4109 48.8032 52.8901C49.7464 52.1847 50.7745 51.6257 51.7602 51.0888C53.0135 50.4071 54.2054 49.7579 55.1369 48.872C55.3183 48.7005 55.3256 48.4121 55.1559 48.2287C55.0185 48.0809 54.8035 48.0468 54.6309 48.1311C53.6526 48.6147 52.6625 48.8868 51.6695 49.1589C49.7318 49.6913 47.7853 50.2252 45.7496 52.2764ZM29.2695 52.2704C28.3584 54.3882 26.801 57.1166 26.4851 57.584C26.4719 57.6047 26.4573 57.6254 26.4412 57.6446L26.3871 57.7082C26.2014 57.9285 26.1107 58.0365 25.8533 58.0468C25.6354 58.0557 25.5272 57.9744 25.3137 57.8132L25.2186 57.7407C25.0899 57.6446 24.9612 57.5322 24.8355 57.405C24.0882 56.6523 23.4213 55.3598 23.1566 53.9741C22.8861 52.5647 23.0206 51.043 23.8864 49.851C24.0063 49.6854 24.1393 49.5272 24.29 49.3749L24.4391 49.2314C25.419 48.3367 26.5787 48.1681 27.5731 48.3042C28.5486 48.4373 29.3851 48.8839 29.7229 49.2151C29.7419 49.2344 29.7624 49.2551 29.7785 49.2758C30.1733 49.7179 29.8589 50.9069 29.271 52.2704H29.2695Z" fill="#505050"/>
<path d="M56.5786 73.9785C52.2235 73.4476 50.255 71.3239 47.1825 67.3562C47.026 67.155 46.8812 67.087 45.8824 66.7632C42.8186 65.7694 40.799 65.4381 37.8522 65.6703C36.2596 65.7945 28.4357 66.8075 26.9732 67.6579C24.1932 69.2742 20.4976 68.5526 17.6079 66.6374C13.886 64.1722 11.3267 59.9101 10.6321 55.1409C10.1656 51.9391 10.6686 48.8261 12.8871 46.5872C14.4432 45.0181 19.1595 43.0394 19.1873 39.7593C19.1975 38.6147 18.3552 37.9181 17.3051 37.405C15.9421 36.7395 12.4689 36.0533 9.5923 35.8788C2.75253 35.4692 0.028033 30.8714 2.33282 28.4017C3.63145 27.0101 5.88651 26.8031 8.07576 26.9036C10.5195 27.0146 11.182 26.9066 12.5888 26.179C14.3159 25.2843 16.1016 23.4993 18.2352 20.5298C21.2698 16.3032 20.8588 14.6514 25.1467 10.3228C28.3464 7.09146 32.2818 4.8998 36.5068 3.4801C39.6963 2.40793 41.4395 2.13878 45.2316 2.13287C53.8526 2.11808 65.3297 5.20444 72.7164 10.7561C75.9908 13.2198 79.2374 16.1391 80.8022 18.0276C81.8917 19.3423 82.8759 21.0489 83.5194 22.7362C84.1614 24.4133 84.9087 27.2246 85.0476 28.4831C85.2626 30.4411 86.0772 30.552 86.3901 36.1213C86.687 41.4171 86.1883 42.7525 85.5799 47.4227C84.8838 52.7614 80.672 62.7348 77.5117 67.544C76.567 68.9873 76.0698 69.3216 74.3675 69.6661C72.4532 70.0551 70.2055 70.7073 65.9118 72.1196C61.6971 73.5052 59.1817 74.3009 56.5815 73.9799L56.5786 73.9785ZM59.4742 71.6774C63.3028 70.5357 69.2973 68.6265 72.1066 68.0956C75.0739 67.5351 74.6249 67.7022 75.359 66.3757C79.4699 58.9563 83.0675 50.8211 83.4609 48.0527C83.6861 46.4615 81.9414 45.5357 76.956 44.604C72.3055 43.733 65.9454 43.1666 61.1589 42.2349C59.6965 41.951 56.368 41.1938 55.7815 41.0134C55.2624 40.8522 50.2901 38.628 54.2723 39.7563C56.1208 40.2799 58.6347 40.5505 61.0214 40.9498C65.2756 41.6611 66.7717 41.8578 69.4099 42.0382C73.9346 42.3503 80.3722 42.961 83.3468 44.5641C84.0853 44.9619 83.942 45.0432 83.999 44.0465C84.0415 43.2923 84.0356 43.239 83.8279 42.5824C83.3453 41.0533 82.25 38.4165 81.3667 36.6567C80.0125 33.9548 79.5664 33.0246 79.4845 32.016C79.856 32.1624 79.3983 31.5798 80.4717 32.2172C82.9622 33.6975 83.3658 36.1346 84.2199 39.4502C84.2272 38.2243 84.3047 37.1417 84.0605 36.2145C82.481 30.2178 80.8519 31.1036 76.488 28.9859C75.1733 28.3485 75.6281 28.3041 77.0028 28.6132C78.4228 28.9356 79.3939 29.2299 80.4497 29.6647C82.3143 30.4292 83.0222 31.0252 83.7914 32.473C84.1365 33.1222 84.1541 33.0867 83.9947 32.0234C83.515 28.8084 82.367 28.1858 79.2813 26.8622C77.8759 26.2589 70.691 23.4579 69.2052 22.4523C65.5666 19.8377 62.3654 17.0072 59.3747 13.1207C58.3028 11.7277 56.0243 8.46383 58.2136 11.0947C59.7199 12.9019 63.1814 16.1613 66.1077 18.5245C69.1145 20.9527 72.9022 22.3739 77.3728 23.7862L81.9414 25.4987C81.9385 25.3656 80.9689 23.3914 80.555 22.6786C74.8852 12.9137 62.0437 6.31062 50.7333 4.78001C46.3197 4.18255 40.2652 4.34523 36.6647 5.45141C33.9987 6.27069 29.92 8.50672 27.7819 10.3168C21.6324 15.5209 19.2019 25.5342 13.3112 27.7022C12.7263 27.9167 12.7394 27.8693 13.8363 28.1119C17.1954 28.8587 19.8907 29.8436 28.4547 33.4594C37.042 37.0826 39.5881 38.0276 43.8467 39.1781C45.8999 39.7342 45.9848 39.885 48.1609 40.1689C52.4516 40.7294 58.0556 42.0382 58.9418 46.1879C59.6599 49.5537 57.2732 53.1858 53.3408 53.8261L51.5508 54.1485C51.3519 53.9519 54.5399 52.5928 55.1805 52.1536C57.2498 50.7339 59.2694 46.2101 56.6327 44.3822C56.3066 44.1559 54.6277 43.3736 54.7973 43.5274C56.2978 44.8954 57.4209 45.9897 56.3168 48.1533C55.3194 50.1009 54.9991 50.3982 51.7818 52.3547C49.4858 53.7492 46.9441 55.2444 46.2743 57.9167C45.0985 62.6091 51.1866 70.8463 56.2349 71.8193C56.9661 71.9598 58.4695 71.8977 59.4786 71.6803H59.4756L59.4742 71.6774ZM57.984 67.4582C55.3721 66.7853 52.4911 60.8463 53.3642 58.4594C54.2767 55.9646 57.7778 54.4325 60.6558 53.9149L64.4625 53.9474C62.7559 54.2964 58.7313 55.1675 57.4224 55.833C53.8394 57.6534 53.5747 59.2728 54.8017 62.1935C55.6836 64.2949 56.7511 65.8108 57.7076 66.3269C59.0384 67.0456 61.1194 66.2914 63.316 64.3009C64.094 63.594 65.8094 61.7055 66.2277 61.0947C66.4485 60.7708 66.6503 60.6318 66.6503 60.8078C66.6503 61.0341 65.6661 62.615 64.9319 63.5659C63.4885 65.4381 60.2668 68.0468 57.9825 67.4582H57.984ZM57.5189 65.2458C56.2261 64.7992 55.6353 63.2169 54.9611 61.7942C54.5809 60.9941 54.4975 60.6377 54.5458 60.0418C54.6511 58.7995 55.7801 57.3828 57.301 56.5798C59.2826 55.5357 68.4842 53.4062 66.7702 57.5854C66.0229 59.4073 60.6427 66.3417 57.5189 65.2458ZM50.7757 38.5614C46.2641 37.8634 45.7522 37.5041 40.5665 34.8791C36.694 32.9181 28.8715 29.2728 26.438 27.6386C25.7594 27.1831 24.4154 26.4748 24.8469 26.4748C24.9946 26.4748 25.3441 26.6478 26.3985 27.2393C27.0376 27.5957 28.3523 28.1917 30.4757 29.0864C33.9314 30.5446 36.4249 31.6552 39.0309 32.896C45.5212 35.9838 44.8441 35.6185 49.3366 37.5144C51.7891 38.5496 53.7005 39.0214 50.7757 38.5629V38.5614ZM66.3812 12.5055C64.8559 12.3976 64.5078 12.1713 62.5072 12.1388C58.3613 12.0722 61.9749 11.0932 64.0837 11.2855C65.3239 11.3994 66.1019 11.5901 67.3215 12.0722C67.9328 12.3162 68.4476 12.5292 68.4622 12.544C68.5047 12.5869 67.2119 12.5617 66.3812 12.5041V12.5055ZM59.9919 10.3449C60.0533 10.0107 62.6842 9.06277 64.4801 9.71198C64.8252 9.83769 65.1191 9.96339 65.1367 9.99149C65.299 10.2532 62.3347 10.2636 61.8009 10.3612C61.602 10.3967 59.9509 10.6037 59.9933 10.3464L59.9919 10.3449ZM20.6336 66.1642C20.619 66.1494 20.2388 65.8596 19.7883 65.518C16.4145 62.9581 13.8714 58.2893 13.0553 53.7093C12.6575 51.4718 12.9924 49.6099 14.2136 47.6756C14.5104 47.2083 14.5017 47.155 14.1887 47.5233C11.6455 50.4943 11.6836 54.6765 13.339 58.3219C16.3955 65.058 20.774 66.2929 20.6336 66.1657V66.1642ZM23.2879 65.4499C21.7553 64.218 19.4066 60.5032 18.788 59.2166C16.4189 54.2831 18.4414 50.2089 22.1194 46.3964C23.0247 45.4588 23.4283 44.9841 23.8319 44.3733C24.4096 43.4978 24.414 43.4786 23.984 43.2509C22.5333 42.4922 15.0179 46.8741 14.5865 51.4245C14.1536 55.9734 18.3084 63.4461 22.9252 65.4825C23.5921 65.7768 23.6886 65.7664 23.2879 65.4484V65.4499ZM45.6791 63.7522C44.4887 60.2562 44.0617 57.4316 46.7906 54.1559C49.1319 51.3446 52.747 50.5224 54.828 48.5392C51.9237 49.9752 49.0661 49.5744 46.0667 52.5972C41.3708 57.3281 44.5808 63.5496 45.2331 63.7833C45.5767 63.906 45.7201 63.8971 45.6791 63.7537V63.7522ZM42.668 63.3012L42.4998 63.2597C42.5393 63.3248 42.668 63.3559 42.668 63.3012ZM27.4909 59.5848C28.3523 59.2905 30.0633 58.066 28.9928 58.6502C26.8679 59.8081 24.5719 59.218 23.4561 57.0264C22.6869 55.5165 22.4748 54.1618 22.4631 54.6883C22.4339 56.0252 23.5087 59.3364 25.6527 59.7874C26.0928 59.8806 26.8855 59.7948 27.4895 59.5863L27.4909 59.5848ZM26.1002 57.3503C26.378 57.0116 30.1467 50.3656 29.4447 49.5818C28.93 49.0066 26.3692 47.9107 24.6085 49.6972C22.3871 51.9524 23.8685 56.176 25.4859 57.3754C25.8793 57.6667 25.8208 57.6786 26.1002 57.3503ZM30.2725 56.3713L30.2052 56.4822C30.2432 56.457 30.2725 56.4097 30.2725 56.3713ZM54.2562 47.2497L54.1846 47.3177C54.2226 47.3177 54.2533 47.2881 54.2533 47.2497H54.2562ZM32.2891 36.8016C27.4485 34.6824 20.4903 31.5354 16.4189 30.1823C12.602 28.9134 4.81309 27.4967 3.46327 30.3154C2.44396 32.4449 6.75958 33.9075 7.10032 33.9223C7.41036 33.9356 11.549 32.4434 12.8915 32.2201C13.9532 32.0441 13.9313 32.0589 13.3639 31.8726C11.0459 31.1154 6.60164 30.1201 4.61274 30.5949C2.87099 31.0104 5.70371 28.7685 11.6368 30.1172C14.4402 30.7546 32.6226 37.1269 32.2906 36.8001L32.2891 36.8016Z" fill="black"/>
</svg>
