<svg width="81" height="93" viewBox="0 0 81 93" fill="none" xmlns="http://www.w3.org/2000/svg">
<path fill-rule="evenodd" clip-rule="evenodd" d="M55.3879 19.9503C55.4309 19.923 55.4206 19.9208 55.3807 19.9316L55.3879 19.9503ZM34.1424 47.4132C34.3989 46.8623 34.6002 46.2096 34.6911 45.8382C34.858 45.1478 34.8667 44.7151 34.7896 44.4642C34.7769 44.4247 34.7664 44.3986 34.7579 44.3842C34.7113 44.3903 34.6619 44.4147 34.6164 44.4504C34.4118 44.75 34.2475 45.6744 34.1597 46.5698C34.1235 46.9356 34.0933 47.2786 34.0733 47.5543L34.1424 47.4132ZM63.4895 64.8524C63.0389 64.809 62.8049 64.5931 62.8715 64.1504C62.3029 64.7811 62.1208 64.8543 61.2057 64.8593C59.6044 64.8715 58.874 65.2678 58.6816 65.9487C58.4552 66.7547 58.7979 68.003 59.3557 69.5081C59.4192 69.6799 59.5018 69.8823 59.5717 70.057C59.8212 70.6735 59.9475 70.9796 59.7488 71.451C59.5951 71.8153 59.2716 72.0937 58.6288 72.6398L57.9084 73.2549C57.694 73.4747 57.3523 73.4979 57.1124 73.3168C57.2674 73.5702 57.2143 73.9072 56.9772 74.0992C55.912 74.9606 54.8783 75.7172 53.7787 76.3919C52.6741 77.0713 51.5104 77.6617 50.1953 78.1927C49.6211 78.423 48.6665 78.6712 47.7023 78.8635C46.7439 79.0548 45.768 79.1915 45.1301 79.2023C36.6715 79.3611 32.2712 75.4059 29.249 72.689C27.8401 71.4221 26.7558 70.447 25.8308 70.4179C25.5372 70.409 25.362 70.3836 25.1495 70.2117C25.2108 70.5667 24.971 70.7889 24.7181 71.0273L24.7174 71.0234C24.7172 71.1029 24.7067 71.1802 24.6833 71.2518C24.6735 71.2873 24.6583 71.3257 24.6405 71.3606C24.5453 71.5459 24.3905 71.662 24.1893 71.7047C24.0684 71.7296 23.9425 71.7255 23.8206 71.6869C23.6694 71.6395 23.4914 71.5291 23.342 71.3662C21.8918 69.7906 18.9174 63.944 16.9061 59.9935C16.4555 59.1097 16.055 58.3205 15.79 57.8099C14.5478 55.4136 11.0577 48.5592 8.718 43.2011C7.28848 39.9271 6.27517 37.1535 6.41473 36.132L6.41912 36.1114C6.34116 35.8784 6.38883 35.7172 6.50158 35.6222C6.67007 34.8143 6.92652 34.6886 7.55762 35.7201L7.57646 35.7486C7.64015 35.8529 7.68137 36.0226 7.73719 36.3229C7.88833 37.1293 8.3108 38.2644 9.1806 40.1032C10.067 41.9807 11.4092 44.5645 13.3889 48.2402C15.0185 51.2691 16.1227 53.3376 17.1637 55.3395C18.2281 57.385 19.1685 59.2413 20.4543 61.8209C21.9791 64.8758 22.8505 66.597 23.422 67.6289C23.9653 68.612 24.2414 68.9796 24.5749 69.3234L24.6015 69.3506C23.5303 67.1969 22.4645 65.0284 21.4315 62.9238C18.7504 57.4637 16.2897 52.4524 13.1432 46.6097C10.8888 42.425 9.63847 40.0738 8.89429 38.5253C8.12761 36.9271 7.87454 36.1402 7.62868 35.0959C7.40791 34.1624 7.28565 33.0629 7.423 32.2702C7.49244 31.8668 7.63142 31.5209 7.85818 31.2692C8.01682 31.0948 8.20409 30.971 8.42197 30.9096L8.41619 30.9106C8.3277 30.9159 8.23588 30.902 8.14618 30.8658C7.83997 30.7379 7.69338 30.3837 7.82133 30.0775C7.92832 29.8225 8.02374 29.5696 8.11664 29.3251C8.37757 28.6383 8.62267 27.9979 8.92447 27.6974C9.0448 27.5773 9.16727 27.4926 9.28868 27.4478C9.24265 27.1696 9.28217 26.8807 9.37233 26.6088C9.47041 26.3137 9.63036 26.0318 9.79551 25.8145C9.9626 25.5969 10.1566 25.4203 10.3328 25.3243C10.3597 25.3078 10.3889 25.2928 10.4188 25.2817C10.5264 25.2373 10.6364 25.2183 10.7468 25.2251L10.7368 25.1672C10.5638 24.142 11.1808 23.7335 11.7574 23.3677L12.139 23.127L12.1404 23.0771C12.1552 22.5301 13.5304 20.874 15.0085 19.3889C16.3104 18.0793 17.7466 16.8459 18.4572 16.5543C18.5249 16.5208 18.5985 16.4981 18.677 16.4925L18.7562 16.4908C18.7562 16.4908 18.7545 16.4811 18.7641 16.4676C18.8896 16.2393 19.0543 15.9386 19.5185 15.6121C20.0196 15.2574 20.3827 15.2086 20.6516 15.2357C20.6801 15.1473 20.7234 15.0643 20.7808 14.9829L20.8207 14.9263C21.1799 14.4749 22.3576 13.8384 23.4557 13.317C24.1372 12.9947 24.8412 12.7222 25.3221 12.5617C25.493 12.3891 25.7592 12.3312 25.9958 12.4355C26.0455 12.4587 26.0923 12.4883 26.1363 12.5244C26.2916 12.6526 26.3728 12.9505 26.3808 13.3306C26.3855 13.5305 26.3856 13.8305 26.3799 14.1772C26.3499 16.213 26.557 17.2979 26.6809 17.958C26.9509 19.3837 26.9585 19.4161 25.2913 20.451C23.45 21.5935 21.0622 23.4144 18.8902 25.4266C17.0844 27.0974 15.4313 28.8928 14.3756 30.5235L13.1122 33.0107C13.0765 33.0804 13.0241 33.1451 12.9601 33.1999C12.7047 33.4128 12.3254 33.379 12.1124 33.1237C11.4499 32.336 10.9308 31.7461 10.3757 31.3849C10.0623 31.1808 9.72027 31.0411 9.30848 30.9691C9.61136 31.0778 9.95372 31.277 10.3392 31.5879C10.6484 31.8366 10.9178 32.1199 11.4704 32.8808C11.986 33.5886 12.7805 34.7608 14.1556 36.8103C16.7499 40.674 18.4185 43.2034 19.7328 45.327C21.056 47.467 22.0243 49.1973 23.2139 51.4497L24.3921 53.6942C26.9111 58.5027 28.8478 62.1939 31.2501 65.0834C30.8703 64.4833 30.4911 63.8633 30.114 63.233C28.5708 60.6581 27.071 57.9208 25.8739 55.7054C25.8303 55.6374 25.7993 55.5613 25.785 55.4784C25.738 55.2063 25.8817 54.9451 26.1183 54.8307C25.7014 54.8212 25.3851 54.5778 25.1022 54.1935C24.9209 53.9486 24.7833 53.6584 24.635 53.3403C24.579 53.2228 24.5223 53.1015 24.4415 52.9445C24.3579 52.7941 24.3379 52.6088 24.4019 52.4388C24.2864 52.3335 24.1532 52.1836 23.9979 51.9859C23.7838 51.7129 23.4802 51.1395 22.9184 50.0721C22.5991 49.4656 22.1952 48.7028 21.7566 47.8884C21.6428 47.6895 21.648 47.4323 21.7905 47.2329C22.8325 45.7992 23.7147 44.7985 24.771 43.8731C25.8208 42.9567 27.0266 42.1266 28.7253 41.0326C29.1707 40.7471 29.8455 40.3743 30.4152 40.0832C30.7566 39.909 31.0906 39.7719 31.3766 39.6907C31.581 39.5283 31.8765 39.5131 32.1004 39.6711C32.2905 39.8052 32.3785 40.1536 32.3654 40.5731C32.3578 40.8168 32.3387 41.1201 32.3136 41.4006C32.2913 41.6628 32.2546 41.8301 32.1191 42.0005L32.0798 42.049C31.9314 42.2137 31.7705 42.2832 31.5 42.3617L31.4826 42.3647C31.1426 42.4671 30.3186 42.965 29.4209 43.577L29.334 43.6377C29.7819 43.3895 30.2436 43.1409 30.7105 42.8874L31.283 42.578C31.3792 42.5256 31.4921 42.5002 31.6086 42.5079C31.9403 42.5301 32.1905 42.8167 32.1683 43.1484C32.0448 45.0115 31.5128 47.5691 30.5875 49.8171C29.8416 51.6308 28.8317 53.2615 27.5612 54.212L27.5574 54.2127C27.2596 54.433 26.9982 54.5874 26.7612 54.6879C27.2926 54.5783 27.6894 54.4482 28.0453 54.2079C28.5276 53.8823 29.0036 53.3252 29.706 52.3297C32.0892 48.9399 33.0249 43.7138 33.0711 38.0888C33.1304 30.733 31.6651 22.7284 29.9141 17.2011C29.4082 15.6056 29.1373 14.6927 29.0234 14.0328C28.8945 13.2861 28.9616 12.8692 29.1392 12.2981C29.4839 11.1875 30.4333 10.207 31.6055 9.5854C32.2281 9.25539 32.9207 9.02058 33.6205 8.91962C34.3378 8.81568 35.0667 8.84878 35.7403 9.05635C36.691 9.34923 37.5306 9.97719 38.0926 11.0345C38.2817 11.3933 38.4777 11.8264 38.624 12.1906C38.7439 12.4938 38.8324 12.7765 38.8623 12.9839C38.8709 13.0341 38.878 13.0865 38.8751 13.1387L38.87 13.2012C38.8019 13.6242 38.5447 13.7799 38.1288 13.7186C37.9738 13.6956 37.7525 13.6107 37.4822 13.5063L38.971 15.0177C39.1808 15.2318 39.2018 15.5719 39.0129 15.8131C38.8333 16.0388 38.5985 16.2781 38.3412 16.5371C37.9911 16.8916 37.5971 17.2914 37.366 17.6214C37.275 17.7504 37.0458 17.7343 37.1156 17.7819C37.2287 17.8617 38.1228 17.1828 38.6885 16.7533L38.8574 16.6268C38.9256 16.5733 39.0058 16.5316 39.0955 16.5102C39.4198 16.4323 39.7445 16.6326 39.8224 16.9569C40.2955 18.9496 40.8199 22.3441 41.2794 25.9147C41.8434 30.2978 42.3139 34.9454 42.4801 37.5771C42.5254 38.2767 42.6009 39.0822 42.6861 39.8404C42.8783 38.4562 42.9532 35.898 42.9202 32.7604C42.8844 29.365 42.7198 25.3044 42.436 21.3239C42.3871 20.6608 42.3509 20.1981 42.3198 19.822C42.2525 18.9952 42.2178 18.5521 42.2469 18.2948C42.3761 17.1558 42.7284 17.3553 43.4864 17.7867L43.6398 17.8695C43.8122 17.959 44.3164 18.0945 44.7294 18.0927C44.3627 17.4646 43.7142 17.1036 42.8768 16.6382L42.3198 16.3231C42.168 16.238 42.0528 16.089 42.017 15.9045L41.9467 15.5431C41.8502 15.0531 41.8004 14.7994 41.8814 14.5092C41.983 14.142 42.1804 13.9967 42.59 13.6994L42.7259 13.6005C43.1333 13.3016 43.4861 12.905 43.674 12.5665C43.4122 12.6495 43.0327 12.8223 42.5087 13.1134C42.4362 13.1538 42.3514 13.1803 42.2633 13.1876C41.9319 13.213 41.6426 12.9649 41.6172 12.6335C41.56 11.8764 41.5029 11.1313 41.5132 10.5116C41.5239 9.81431 41.6245 9.23465 41.898 8.87351L41.937 8.82307C42.3404 8.35206 43.3635 8.20127 44.438 8.31381C45.4194 8.41659 46.4998 8.7248 47.1572 9.18354C48.4187 10.0685 49.0186 12.83 49.2522 14.3097C49.2986 14.6017 49.3302 14.8307 49.3488 14.9845C49.3555 15.035 49.3577 15.0823 49.3564 15.1322C49.4066 15.2964 49.3864 15.4787 49.2863 15.635C49.106 15.9145 48.7325 15.9949 48.453 15.8147C48.3279 15.7349 48.1074 15.5047 47.8131 15.2039C47.598 14.9827 47.3524 14.6993 47.1259 14.4344C47.519 15.2268 47.8771 15.6439 48.1036 15.9087C48.8172 16.7393 48.9297 16.8728 47.8635 17.7404C47.6143 17.9424 47.4408 18.1114 47.3273 18.2482C47.7496 18.1396 48.0663 17.9597 48.3014 17.8257C48.5475 17.6859 48.7359 17.5799 48.9655 17.5521C49.5947 17.4793 49.8776 17.794 50.0047 18.8987C50.4606 22.8633 50.8371 26.8854 51.0482 30.6976C51.2622 34.5271 51.3129 38.1584 51.1189 41.3272L51.1012 41.6164C51.1739 41.3237 51.2374 41.0127 51.294 40.6731C51.5192 39.3189 51.6226 37.5466 51.6636 35.0221C51.7071 32.2588 51.6484 29.8469 51.5272 27.4994C51.4035 25.0908 51.2237 22.8409 51.0224 20.3741C51.0117 20.2547 51.038 20.131 51.1024 20.0205C51.2694 19.7334 51.6384 19.6379 51.9255 19.8049C52.2682 20.006 52.5453 20.1152 52.7422 20.1507C52.6093 19.8875 52.284 19.5225 51.721 19.0693C50.4572 18.0556 50.3702 17.3792 50.8358 16.7961C51.0944 16.4753 51.4909 16.2976 51.9297 16.1006C52.4537 15.8671 53.064 15.5928 53.0984 15.1359C53.1004 15.0898 53.0807 15.1946 53.0627 15.1937C52.6138 15.1599 51.9038 15.4096 51.7522 15.4636C51.5669 15.5413 51.3473 15.5236 51.1728 15.3988C50.8809 15.1928 50.9545 14.4569 51.197 13.7554C51.3581 13.2845 51.5657 12.7718 51.7104 12.5283L51.7522 12.4594C51.9284 12.2144 52.0345 12.0809 52.2557 11.9692C52.4479 11.8744 52.6325 11.8505 52.9659 11.8247C54.4848 11.7036 55.438 12.3338 56.1146 13.4906C56.7132 14.5178 57.0566 15.9546 57.4037 17.6432C57.7668 19.4124 57.6332 20.0773 57.1072 20.184C56.6426 20.2781 56.3368 19.8878 55.9438 19.3834L55.6791 19.0476L55.9136 19.6231C56.0269 19.8996 56.1288 20.1442 56.1718 20.3593C56.1952 20.4368 56.2027 20.515 56.1964 20.5935C56.1901 20.7873 56.1041 20.9452 55.8882 21.064C55.781 21.1222 55.65 21.2263 55.5264 21.351L55.8422 21.2468C56.4259 21.052 56.8925 21.1886 57.2423 21.6568C57.4703 21.9651 57.6323 22.1319 57.7517 22.2483L57.7821 22.2749C58.1819 22.6688 58.2609 22.7466 58.3726 23.8539C58.6699 26.7611 58.7288 29.9339 58.6251 33.1885C58.5045 36.9784 58.1617 40.8624 57.7154 44.5616L57.583 45.8084C58.0171 43.9611 58.4011 41.5125 58.704 38.9051C59.2332 34.3631 59.5122 29.3615 59.3939 26.1791L59.3656 25.3475C59.3623 25.2248 59.3633 25.1154 59.365 25.0217C59.3506 24.9149 59.365 24.8032 59.4124 24.6976C59.6567 24.1448 59.8445 24.2773 60.215 24.3862C60.353 24.426 60.6728 24.5178 60.9288 24.5391C60.7369 24.1868 60.2421 23.7954 59.7519 23.4071L59.4686 23.1818C59.3306 23.0845 59.2325 22.9305 59.215 22.7488C59.1542 22.1433 59.1045 21.7406 59.0668 21.4411L59.0651 21.4315C59.0029 20.9217 58.9685 20.6534 59.0043 20.4346C59.0997 19.8598 59.3262 19.8247 59.8037 19.7482C59.8655 19.7376 59.9426 19.7243 60.0625 19.6936C60.5588 19.5642 60.8425 19.4239 60.9634 19.2957C60.7832 19.1838 60.4433 19.1371 59.9899 19.2154C59.8413 19.241 59.6831 19.2107 59.55 19.1185C59.2753 18.9315 59.2026 18.5566 59.3896 18.2819C59.7557 17.7438 60.1017 17.3542 60.5455 17.0591C60.9931 16.7632 61.5081 16.5809 62.2065 16.4604C63.9681 16.1562 65.1868 16.7247 66.1087 18.0478C66.9425 19.241 67.4951 21.061 67.9997 23.4198C68.2472 24.5771 68.5516 26.6168 68.8257 28.8028L68.8274 28.8124C69.0978 30.9891 69.3367 33.3162 69.4533 35.0624C69.5559 36.6005 69.564 38.8224 69.5205 41.1367C69.4675 43.9832 69.3317 46.9949 69.1917 49.0378C69.1593 49.5063 69.1441 49.8904 69.1314 50.1966C69.0906 51.2031 69.081 51.4352 68.5646 52.7483C67.9952 54.2036 67.3575 55.8039 66.7011 57.3418C66.0377 58.8969 65.3426 60.4176 64.6523 61.725L64.6361 61.7576C64.4759 62.0495 64.1108 62.1562 63.8189 61.996C61.7629 60.8707 60.3833 59.6465 59.4546 58.422L59.5085 58.5041C60.5184 60.0723 61.9771 61.3404 63.6421 62.0881C63.7102 62.1141 63.7728 62.155 63.8295 62.2068C63.955 62.3242 64.02 62.4819 64.0216 62.6405C64.2238 62.3732 64.4345 62.0745 64.6435 61.7543C65.1307 61.0086 65.6053 60.1557 65.9877 59.3208C66.0958 59.0835 66.2071 58.8537 66.2959 58.6775C66.3373 58.5948 66.3835 58.5173 66.431 58.4475C66.5018 58.2704 66.6507 58.1433 66.8268 58.093L66.8876 58.0766C66.9728 58.0639 67.0607 58.0666 67.1484 58.0912C67.4695 58.1788 67.6578 58.5099 67.5698 58.8291C67.5661 58.8416 66.2901 63.455 65.1565 64.2885C65.0202 64.3855 64.3393 64.6998 63.9298 64.8022C63.7755 64.8408 63.6298 64.86 63.5084 64.8472L63.4895 64.8524ZM55.1073 76.6294C56.7507 75.5609 58.1401 74.413 58.8322 73.4729C58.9545 73.3068 59.0698 73.1577 59.1782 73.0258C59.221 72.917 59.278 72.8555 59.3416 72.8326C60.0639 72.0105 60.392 72.1268 60.304 73.493C60.2922 73.6898 60.1316 74.1288 59.8205 74.87C59.449 75.7567 59.063 76.4671 58.5937 77.0866C58.1197 77.7128 57.572 78.2345 56.8828 78.743C56.0896 79.327 54.9236 79.9157 53.4966 80.466C52.0956 81.0059 50.4212 81.5155 48.5804 81.9585C46.0641 82.5638 43.9051 82.8213 41.8634 82.7227C39.8095 82.6223 37.89 82.1609 35.8627 81.3287C34.3527 80.7072 32.9068 79.9395 31.5145 79.0215C30.1263 78.1048 28.7914 77.0358 27.4983 75.8066C26.7736 75.1191 26.2183 74.5156 25.807 73.9627C25.3742 73.3778 25.0949 72.8418 24.9473 72.3209C24.8139 71.8472 24.7741 71.4786 24.8279 71.215C24.899 70.8669 25.0915 70.6469 25.4042 70.5591L25.4273 70.5551C25.6497 70.4969 25.9004 70.5331 26.1738 70.6667C26.6096 70.8776 27.2471 71.4053 28.0789 72.2532C28.7061 72.8939 29.4514 73.6197 30.1608 74.288C30.8703 74.9563 31.5624 75.5819 32.0835 76.0224C34.2052 77.8159 37.3307 79.14 40.6272 79.7512C43.7983 80.3382 47.1111 80.2611 49.8232 79.306C51.5277 78.7058 53.4394 77.7181 55.1063 76.6356L55.1073 76.6294ZM22.2616 42.6651L22.8393 44.8722C22.8838 45.0493 22.8495 45.242 22.729 45.3959L22.3689 45.8534C21.982 46.3514 21.7887 46.6013 21.316 46.522C20.921 46.4551 20.7588 46.1831 20.4363 45.6387L20.383 45.5486C20.2475 45.3156 20.1213 45.0911 20.0298 44.9181C19.9797 44.8234 19.9399 44.7309 19.9091 44.6449C19.8518 44.5316 19.8269 44.3988 19.8512 44.2634L19.8575 44.2306C19.8836 44.1287 19.9447 44.0109 20.0325 43.8864C20.1714 43.6896 20.4573 43.3203 20.7159 42.9995C20.8501 42.8333 20.9921 42.6776 21.1333 42.5519C21.2736 42.2595 21.6227 42.1297 21.9219 42.2628C22.0855 42.3359 22.2154 42.4784 22.2616 42.6651ZM26.3807 38.3279L27.2809 40.4693C27.3956 40.7078 27.3413 41.0033 27.1302 41.1848L25.3412 42.7335L25.0588 42.9968C24.4054 43.6084 24.1368 43.8594 23.6351 43.5546C23.3621 43.3891 23.2851 43.15 23.1579 42.7468C23.0667 42.4605 22.933 42.0425 22.6729 41.4914C22.5263 41.1829 22.6759 40.7954 23.0045 40.385C23.3199 39.9908 23.8379 39.4583 24.3143 39.0065C24.7689 38.5783 25.2109 38.204 25.4451 38.0642L25.5086 38.0294C25.7323 37.9212 25.9454 37.9242 26.1377 38.048C26.242 38.1114 26.3301 38.2075 26.3811 38.3298L26.3807 38.3279ZM30.4027 38.8833L28.3591 40.2236C28.305 40.2667 28.2414 40.3015 28.172 40.3254C27.8562 40.4296 27.5147 40.2581 27.4086 39.9426L26.6217 37.5948C26.5598 37.4088 26.5905 37.1949 26.7228 37.029C26.9743 36.7134 27.5621 36.3318 28.2753 35.8709C29.2601 35.2339 30.5079 34.4284 31.1329 33.641C31.2351 33.4962 31.3971 33.3987 31.5876 33.3856C31.9196 33.3641 32.2056 33.6167 32.2288 33.9465C32.2844 34.8211 32.332 35.4189 32.3691 35.8873C32.4542 36.9555 32.4921 37.4397 32.3708 37.7845C32.1979 38.2793 31.9392 38.3458 31.4686 38.4628C31.2305 38.5218 30.8836 38.6075 30.4021 38.8794L30.4027 38.8833ZM23.5437 32.5291L23.7168 32.3919C23.8933 32.2522 24.1281 32.0467 24.3868 31.8074C24.1139 31.9995 23.8305 32.2452 23.5441 32.531L23.5437 32.5291ZM20.6961 29.949C22.6606 27.9547 24.6994 26.2179 26.2683 25.3967C26.6781 25.1809 27.0921 25.012 27.4385 24.9125C27.8376 24.7959 28.2002 24.7671 28.452 24.8448L28.5282 24.8714C28.9645 25.0623 29.5247 26.0405 30.0235 27.1803C30.6387 28.5802 31.2349 30.3072 31.3383 30.9291C31.4504 31.6012 31.1763 32.2466 30.6947 32.8404C30.277 33.3556 29.6949 33.8395 29.0957 34.2589C27.672 35.2538 26.8667 35.8259 26.2147 36.3418C25.5819 36.8425 25.0805 37.3105 24.2588 38.0981C23.4646 38.8611 22.5936 39.8122 21.8604 40.6978C21.1469 41.5601 20.5695 42.3472 20.3333 42.8092L20.3292 42.8199C20.2704 42.9393 20.2054 43.0578 20.1515 43.1486C20.1193 43.2038 20.0826 43.2559 20.0449 43.3021C20.0025 43.3671 19.9448 43.4247 19.8753 43.4705C19.8201 43.5078 19.761 43.5339 19.7003 43.5504L19.645 43.5639C19.4173 43.6032 19.1763 43.5077 19.0396 43.3028L15.0982 37.3788C14.9692 37.1845 14.96 36.9238 15.0969 36.7154C16.3829 34.7389 18.5051 32.1731 20.6961 29.949ZM15.6923 35.0886C15.6282 35.2467 15.574 35.3932 15.516 35.5522L15.5024 35.6003C15.2532 36.3546 15.1349 36.7168 14.3684 36.2014C14.1771 36.0715 14.004 35.8172 13.6758 35.3315C13.518 35.0964 13.3212 34.8085 13.1492 34.56C13.0088 34.3796 12.9767 34.1249 13.0884 33.9089C13.2988 33.505 13.4344 33.2312 13.54 33.0143L13.5587 32.9733C13.8368 32.4087 13.9841 32.1111 14.2489 31.976C14.3676 31.9157 14.4701 31.8762 14.5601 31.8567L14.5389 31.8146C14.4445 31.6243 14.4553 31.388 14.5859 31.2005C16.6491 28.2475 17.2947 27.5558 17.9343 28.0037C18.2009 28.1902 18.2681 28.4528 18.3528 28.7938C18.3792 28.9005 18.4098 29.0204 18.4449 29.1316C18.5334 29.4024 18.5991 29.5758 18.6527 29.7136C18.7968 30.0881 18.8778 30.2927 18.8192 30.6088C18.7577 30.9433 18.5701 31.1684 18.157 31.653L16.4522 33.7017C16.3973 33.7748 16.3249 33.8389 16.237 33.8819C16.0556 33.9709 15.8515 33.9624 15.6852 33.8739C15.7788 34.1398 15.8273 34.2825 15.8376 34.4575C15.8516 34.6995 15.7999 34.8257 15.6884 35.0893L15.6923 35.0886ZM22.6078 25.6114C22.6576 25.8193 22.7127 26.0582 22.803 26.4201C22.8515 26.6204 22.7965 26.8425 22.6403 26.9966L20.3735 29.2079L19.9597 29.631C19.7728 29.8143 19.5936 29.9386 19.4585 29.9619C19.1132 30.0216 18.6826 29.3687 18.407 28.6473C18.208 28.1274 18.0048 27.5604 17.9832 27.435C17.9379 27.1726 18.2517 26.723 18.7994 26.2013C19.2053 25.8133 19.7692 25.3047 20.3969 24.7631L20.5817 24.6021C21.2591 24.0143 21.5733 23.7395 22.1023 24.2601C22.3419 24.4969 22.4349 24.8862 22.6062 25.6136L22.6078 25.6114ZM40.425 17.294C40.3177 15.8442 40.6966 16.0708 41.4714 16.6226L41.5073 16.6462C41.7358 16.8074 41.8555 16.9139 41.944 17.3576C41.997 17.6187 42.0308 18.0102 42.0954 18.764L42.0968 18.8293C42.0906 19.1622 41.8163 19.4261 41.4834 19.42L41.2703 19.4171C40.989 19.41 40.7393 19.2068 40.6897 18.9193C40.5246 17.998 40.4421 17.5314 40.425 17.294ZM40.2153 10.1177L40.4347 10.1573C40.6947 10.2018 40.9039 10.4121 40.9335 10.6872L41.0611 11.8752C41.0896 12.1206 41.1106 12.3117 41.1061 12.4694C41.1172 12.6145 41.0753 12.7628 40.9794 12.8867C40.3196 13.7258 40.112 13.2371 39.6858 12.1722L39.661 12.1089C39.5212 11.7595 39.4139 11.5297 39.3357 11.3644C39.1917 11.0594 39.1118 10.8844 39.1353 10.6638C39.2096 9.93171 39.5157 9.99013 40.2179 10.1212L40.2153 10.1177ZM27.4598 11.8469C27.5373 11.8236 27.6263 11.7983 27.7091 11.7602C27.8154 11.708 27.9392 11.6887 28.0635 11.7069C28.3925 11.7594 28.6164 12.0665 28.5658 12.3951C28.3642 13.6558 28.5279 14.7422 28.6197 15.3542C28.7054 15.9196 28.7602 16.2718 28.3943 16.4999C28.3551 16.5265 28.3115 16.5499 28.2665 16.5656L27.5111 16.851C27.4587 16.87 27.4031 16.8816 27.3446 16.8877C27.0132 16.9131 26.724 16.665 26.6986 16.3336C26.3917 12.1624 26.4881 12.1339 27.4595 11.845L27.4598 11.8469ZM22.8968 23.6719L22.8438 23.238C22.8045 23.0103 22.8961 22.77 23.101 22.6333C23.8292 22.144 24.5524 21.6376 25.2968 21.1733C26.997 20.1109 27.3251 19.9052 27.1728 19.1725C27.0045 18.3591 26.9517 17.8576 26.965 17.601L26.9661 17.5611C26.9936 17.2602 27.128 17.0602 27.3424 16.9556C27.6701 16.7938 27.952 16.8842 28.1746 17.1955C28.2843 17.3474 28.4074 17.646 28.5032 18.0169C28.88 19.4977 29.1487 20.4785 29.3466 21.1994C29.7143 22.5466 29.8692 23.11 29.7528 23.4599C29.5282 24.1385 29.1771 24.0381 28.5764 23.8617C28.1811 23.7471 27.4714 23.5378 26.4356 24.0524L26.4173 24.0616C26.1542 24.1944 25.6782 24.4991 25.2467 24.7961C24.8508 25.0692 24.5171 25.3115 24.48 25.3617C24.1668 25.7913 23.8267 25.8241 23.4679 25.5642C23.0861 25.2864 22.9809 24.4005 22.8966 23.6819L22.8946 23.6703L22.8968 23.6719ZM52.0595 70.4498C52.906 70.3235 53.437 70.2458 54.6071 71.0849C54.1301 70.7043 53.7148 70.4164 53.4652 70.3403C52.9025 70.1652 50.0559 70.3645 46.9918 70.5816C45.8689 70.6602 44.7186 70.7416 43.629 70.8065C44.8902 70.8033 46.2088 70.7187 47.4074 70.641C48.7256 70.5545 49.9049 70.48 50.7495 70.5269C51.3214 70.5593 51.7224 70.5 52.0595 70.4498ZM46.3465 13.5914C46.2595 13.6282 46.3194 13.6298 46.425 13.6434C46.3846 13.6047 46.3574 13.5855 46.3465 13.5914ZM36.9193 60.6673L36.3424 60.7669C37.2317 60.8657 38.2993 60.892 39.5041 60.7814C40.7012 60.672 41.9343 60.4373 43.12 60.0896C44.2621 59.7533 45.3562 59.3121 46.3326 58.7759C47.1656 58.3182 48.3227 57.425 49.4305 56.4529L49.8625 56.0664C45.5552 58.2783 42.6358 59.6784 36.9216 60.6689L36.9193 60.6673ZM32.8715 53.8278L32.8425 53.8328C32.5663 53.8785 31.764 54.629 31.1868 55.3485C31.0593 55.5076 30.9472 55.6641 30.8602 55.8043C31.0324 55.7547 31.2466 55.672 31.4822 55.5518C31.886 55.347 32.3103 55.0314 32.6486 54.5855C32.8106 54.3728 32.889 54.1824 32.9035 54.0249C32.9111 53.9541 32.905 53.8955 32.888 53.8547L32.8731 53.8255L32.8715 53.8278ZM63.2007 30.1374C62.9061 30.2956 62.5983 30.8256 62.4661 32.12C62.176 34.9399 62.4955 35.8583 62.6582 36.3289C62.8553 36.8949 62.9273 37.105 62.4559 37.6891C62.2383 37.9591 62.0782 38.5511 61.9601 39.2132C61.8316 39.9308 61.7606 40.7279 61.7151 41.3278C61.6753 41.8453 61.738 42.2776 61.8671 42.6686C61.9995 43.067 62.2038 43.4331 62.4486 43.8041C62.5476 43.94 62.5917 44.1151 62.5525 44.2908L61.963 46.9875C61.75 48.4349 61.6521 49.2605 61.6922 49.7463C61.7078 49.9284 61.7532 50.0418 61.8316 50.1276L61.8271 49.9754C61.8138 49.6677 61.9521 48.5471 62.1244 47.4047C62.2934 46.2887 62.4949 45.1313 62.6182 44.6828C62.8271 43.9136 62.679 43.5159 62.4999 43.0422C62.2344 42.333 61.9182 41.4915 62.1811 39.642C62.4625 37.6582 62.9363 37.1571 63.1983 36.8794C63.2066 36.87 63.1865 36.8914 63.0208 36.461C62.7584 35.7811 62.7191 34.6097 62.7876 33.4415C62.8626 32.1609 63.0939 30.8195 63.3029 30.1079C63.2701 30.1135 63.2357 30.1215 63.1975 30.142L63.2007 30.1374ZM35.2849 31.0247C35.3745 30.3694 35.4074 29.72 35.3469 29.5079L35.3456 29.5002C35.3158 29.408 35.2722 29.34 35.2231 29.2968L35.203 29.2844C35.1781 29.2668 35.1565 29.2567 35.1382 29.2539C35.1259 29.252 35.114 29.2521 35.1047 29.2557C35.0822 29.2635 35.0543 29.2862 35.0272 29.3247C34.9828 29.39 35.0192 29.7155 35.0891 30.1207C35.1404 30.4178 35.2124 30.7312 35.2872 31.0263L35.2849 31.0247ZM24.6082 58.8705C24.488 58.5078 24.1957 58.0576 23.779 57.4281C22.7539 55.8864 22.3407 55.7372 22.1775 55.678L22.0839 55.6424L22.0369 55.6923C21.9966 55.735 22.1309 55.5926 22.5288 56.0445C22.7861 56.3378 23.1364 56.79 23.5345 57.3352C23.8622 57.7833 24.2287 58.3062 24.6079 58.8686L24.6082 58.8705ZM20.9154 52.8102C21.236 53.3668 21.5287 53.8766 21.7249 54.1844C21.6191 53.6404 21.2038 52.7544 20.6905 51.8873C20.0489 50.806 19.2828 49.8216 18.7879 49.6249L18.8135 49.6463C19.3647 50.1114 20.2026 51.5702 20.9154 52.8102ZM16.8066 45.7209L18.2406 48.4915C18.1617 48.207 17.9612 47.7131 17.4738 46.8237C17.2418 46.4008 17.0176 46.0342 16.8062 45.719L16.8066 45.7209Z" fill="#CE733E"/>
<path fill-rule="evenodd" clip-rule="evenodd" d="M61.7297 17.1734C61.5768 17.013 61.4333 16.8491 61.2981 16.6757C61.5624 16.5844 61.8559 16.5119 62.1916 16.4539C63.9532 16.1498 65.1719 16.7183 66.0938 18.0413C66.9276 19.2346 67.4802 21.0545 67.9848 23.4133C68.2323 24.5707 68.5367 26.6103 68.8108 28.7963L68.8125 28.8059C69.0829 30.9826 69.3218 33.3097 69.4384 35.056C69.541 36.594 69.5491 38.8159 69.5056 41.1303C69.4526 43.9767 69.3168 46.9884 69.1768 49.0313C69.1444 49.4998 69.1292 49.8839 69.1165 50.1901C69.0757 51.1966 69.0661 51.4287 68.5497 52.7418C67.9803 54.1972 67.3426 55.7974 66.6862 57.3354C66.0228 58.8904 65.3277 60.4112 64.6374 61.7185L64.6212 61.7511C64.461 62.043 64.0959 62.1498 63.804 61.9896C62.8847 61.4866 62.1007 60.9623 61.4326 60.4299C65.2029 53.1169 67.0726 44.0935 67.0354 33.3587C66.6073 23.9392 64.8394 18.544 61.732 17.175L61.7297 17.1734ZM59.8175 74.8635C57.9883 75.8806 55.9974 76.721 53.8501 77.3918C54.28 77.1427 54.7005 76.8853 55.1078 76.6203C56.7513 75.5518 58.1406 74.4039 58.8327 73.4638C58.955 73.2977 59.0704 73.1486 59.1787 73.0166C59.2216 72.9079 59.2785 72.8464 59.3421 72.8235C60.0645 72.0014 60.3925 72.1176 60.3045 73.4839C60.2928 73.6807 60.1321 74.1197 59.821 74.8609L59.8216 74.8647L59.8197 74.8651L59.8175 74.8635ZM48.963 78.5693C44.3622 79.6099 43.8426 78.6029 47.4046 75.55C49.762 74.0939 51.9075 72.446 53.8414 70.608C54.0667 70.7162 54.3193 70.8673 54.6076 71.0758C54.3473 70.8684 54.1035 70.6879 53.8958 70.5549C56.886 67.7001 59.3639 64.3873 61.3336 60.6159C62.0272 61.2154 62.8007 61.7137 63.6256 62.0839C63.6936 62.1099 63.7563 62.1508 63.813 62.2026C63.9385 62.32 64.0035 62.4777 64.0051 62.6364C64.2073 62.369 64.418 62.0703 64.627 61.7501C65.1142 61.0044 65.5888 60.1515 65.9712 59.3166C66.0793 59.0793 66.1906 58.8495 66.2794 58.6733C66.3208 58.5906 66.367 58.5131 66.4145 58.4433C66.4853 58.2662 66.6342 58.1391 66.8103 58.0888L66.8711 58.0724C66.9563 58.0597 67.0442 58.0624 67.1319 58.087C67.453 58.1746 67.6413 58.5057 67.5533 58.8249C67.5495 58.8374 66.2736 63.4508 65.14 64.2843C65.0037 64.3813 64.3228 64.6956 63.9133 64.798C63.759 64.8366 63.6133 64.8558 63.4919 64.843C63.0413 64.7996 62.8074 64.5836 62.874 64.141C62.3053 64.7717 62.1233 64.8448 61.2082 64.8498C59.6068 64.862 58.8765 65.2583 58.6841 65.9392C58.4577 66.7453 58.8003 67.9935 59.3582 69.4986C59.4216 69.6705 59.5043 69.8728 59.5742 70.0475C59.8237 70.6641 59.95 70.9701 59.7512 71.4415C59.5976 71.8058 59.2741 72.0842 58.6312 72.6303L57.9108 73.2455C57.6965 73.4653 57.3547 73.4885 57.1149 73.3074C57.2699 73.5608 57.2168 73.8978 56.9797 74.0897C55.9144 74.9511 54.8807 75.7078 53.7812 76.3824C52.6766 77.0619 51.5128 77.6522 50.1978 78.1833C49.8818 78.3093 49.4496 78.4416 48.9627 78.5674L48.963 78.5693Z" fill="#974020"/>
<path fill-rule="evenodd" clip-rule="evenodd" d="M51.6803 67.3055C50.5033 67.4968 49.3226 66.9992 48.6359 66.025C47.9491 65.0508 47.8808 63.7691 48.458 62.7276C54.317 58.1099 57.0725 53.2054 56.7285 48.0134C56.5346 36.3937 54.8405 32.2315 51.6455 35.5231C51.6004 37.782 51.4952 39.4056 51.2856 40.6657C51.2289 41.0053 51.1657 41.3182 51.0928 41.609L51.1104 41.3198C51.2128 39.657 51.2474 37.8668 51.2249 35.9871C51.0302 36.2174 50.8315 36.4703 50.6278 36.7518C46.5361 42.5606 43.9515 40.5827 42.8741 30.8203C42.8892 31.4833 42.8994 32.1293 42.9075 32.7518C42.9425 35.889 42.8656 38.4475 42.6734 39.8318C42.5886 39.0755 42.5127 38.268 42.4675 37.5685C42.3012 34.9367 41.8307 30.2891 41.2667 25.906C41.0223 24.007 40.7586 22.157 40.4956 20.5414C39.974 20.3632 39.3833 20.8427 38.7216 21.9822C38.2858 22.7032 37.6808 22.9507 36.9054 22.7289C33.6483 21.2069 32.2869 21.6764 32.8249 24.1367C33.5877 28.5669 33.6591 32.6059 33.043 36.2529C33.0575 36.8664 33.0636 37.4773 33.0591 38.0841C33.0213 42.6644 32.3951 46.9788 30.8765 50.2551C30.4033 51.5885 29.8262 52.5267 29.1492 53.0707C28.7233 53.6191 28.3806 53.9704 28.0356 54.2048C27.6797 54.445 27.2848 54.5748 26.7515 54.6847C26.9884 54.5842 27.2518 54.4295 27.5476 54.2095L27.5515 54.2089C27.8188 54.0077 28.0769 53.7764 28.321 53.5217C27.0345 53.9305 25.4514 53.1965 23.5729 51.3153C23.7485 51.6307 23.8788 51.8447 23.9862 51.9831C24.1415 52.1808 24.2747 52.3307 24.3902 52.4359C24.3262 52.6059 24.3463 52.7912 24.4299 52.9417C24.5083 53.097 24.5673 53.22 24.6233 53.3374C24.7736 53.6552 24.9108 53.9435 25.0905 54.1906C25.3735 54.5749 25.6897 54.8184 26.1066 54.8279C25.87 54.9422 25.7263 55.2035 25.7733 55.4755C25.7876 55.5585 25.819 55.6365 25.8622 55.7026C27.0612 57.9176 28.561 60.6549 30.1023 63.2301C30.4794 63.8604 30.8606 64.4801 31.2384 65.0805C28.8361 62.191 26.9011 58.4976 24.3804 53.6913L23.2022 51.4469C22.9776 51.0207 22.7605 50.6151 22.5494 50.2204C21.6812 49.2199 20.7551 47.9988 19.7714 46.5593C16.9931 44.0466 16.0052 43.7681 16.8069 45.7299C17.0179 46.0432 17.2399 46.4082 17.4715 46.8292C17.953 47.7077 18.1535 48.2016 18.2347 48.4876C18.4584 48.8742 18.707 49.2902 18.9742 49.7329C19.4625 50.0639 20.1226 50.9414 20.6882 51.8928C21.1788 52.7201 21.5793 53.5669 21.7058 54.1153C30.4013 68.0921 39.7482 73.5618 49.7403 70.5234C49.0557 70.5403 48.2578 70.5906 47.4031 70.6468C46.2046 70.7245 44.886 70.8091 43.6248 70.8123C44.7143 70.7473 45.8646 70.666 46.9876 70.5874C48.1321 70.507 49.2469 70.4278 50.2245 70.3703C56.6407 66.3796 57.1244 65.3603 51.6759 67.3142L51.6803 67.3055ZM16.8133 45.7328C17.0814 46.3879 17.5492 47.2906 18.2151 48.4433L16.8133 45.7328ZM19.1298 49.9782C19.6475 50.8247 20.2417 51.7692 20.916 52.8092C20.3303 51.7877 19.6576 50.6183 19.1298 49.9782ZM34.1429 47.4122C34.3995 46.8613 34.6008 46.2086 34.6916 45.8373C34.8585 45.1468 34.8673 44.7141 34.7902 44.4632C34.7774 44.4237 34.767 44.3976 34.7585 44.3832C34.7119 44.3893 34.6624 44.4137 34.6169 44.4494C34.4124 44.749 34.2481 45.6734 34.1603 46.5688C34.1241 46.9346 34.0939 47.2776 34.0739 47.5533L34.1429 47.4122ZM36.9199 60.6663L36.343 60.7659C37.2323 60.8647 38.2998 60.891 39.5047 60.7804C40.7018 60.6711 41.9349 60.4363 43.1206 60.0886C44.2626 59.7523 45.3568 59.3111 46.3332 58.7749C47.1661 58.3172 48.3233 57.424 49.4311 56.4519L49.863 56.0654C45.5558 58.2773 42.6364 59.6774 36.9221 60.6679L36.9199 60.6663ZM32.872 53.8268L32.8431 53.8318C32.5668 53.8775 31.7645 54.628 31.1874 55.3475C31.0599 55.5066 30.9478 55.6631 30.8607 55.8033C31.033 55.7537 31.2472 55.671 31.4828 55.5508C31.8865 55.346 32.3109 55.0304 32.6492 54.5845C32.8111 54.3718 32.8895 54.1814 32.9041 54.0239C32.9117 53.9531 32.9056 53.8945 32.8886 53.8537L32.8736 53.8245L32.872 53.8268ZM35.2855 31.0237C35.375 30.3685 35.4079 29.719 35.3475 29.5069L35.3462 29.4992C35.3163 29.407 35.2728 29.339 35.2236 29.2958L35.2036 29.2834C35.1787 29.2658 35.1571 29.2557 35.1387 29.2529C35.1265 29.251 35.1146 29.2511 35.1053 29.2547C35.0828 29.2625 35.0549 29.2852 35.0278 29.3237C34.9834 29.389 35.0197 29.7145 35.0897 30.1197C35.141 30.4168 35.213 30.7302 35.2877 31.0253L35.2855 31.0237Z" fill="#974020"/>
<path fill-rule="evenodd" clip-rule="evenodd" d="M28.0198 54.2148C27.2649 54.7564 26.4326 54.8961 25.5231 54.6339L24.3565 52.7332C24.3417 52.6364 24.3521 52.5352 24.3889 52.4375C24.2733 52.3323 24.1402 52.1824 23.9848 51.9847C23.7708 51.7117 23.4671 51.1382 22.9054 50.0709C22.5861 49.4644 22.1822 48.7016 21.7436 47.8872C21.6297 47.6883 21.635 47.431 21.7774 47.2316C22.5703 46.139 23.2717 45.2987 24.0286 44.5501C24.1108 44.6233 24.2067 44.6842 24.3149 44.7351C25.2947 44.7368 26.4899 44.306 27.9022 43.4403C30.156 41.7637 31.6066 41.1894 32.2538 41.7154C32.2257 41.8176 32.1818 41.9087 32.1099 41.9986L32.0706 42.0471C31.9222 42.2118 31.7613 42.2813 31.4908 42.3598L31.4734 42.3628C31.1334 42.4652 30.3094 42.9631 29.4117 43.5751L29.3248 43.6358C29.7727 43.3876 30.2345 43.139 30.7013 42.8855L31.2738 42.5761C31.3701 42.5237 31.4829 42.4982 31.5995 42.5059C31.9311 42.5281 32.1813 42.8148 32.1591 43.1465C32.0357 45.0096 31.5036 47.5672 30.5784 49.8152C29.8325 51.6289 28.8225 53.2596 27.552 54.2101L27.5482 54.2108C27.2504 54.4311 26.989 54.5855 26.752 54.686C27.2777 54.5774 27.6706 54.448 28.0236 54.2141L28.0198 54.2148ZM13.675 35.3321C13.4592 34.9799 13.2471 34.6489 13.0389 34.3411C13.0027 34.2003 13.016 34.047 13.0876 33.9095C13.298 33.5056 13.4336 33.2318 13.5392 33.0149L13.5579 32.9739C13.836 32.4093 13.9833 32.1117 14.2481 31.9766C14.3668 31.9163 14.4693 31.8768 14.5593 31.8573L14.5381 31.8152C14.4437 31.6249 14.4545 31.3886 14.5851 31.2011C16.6483 28.2481 17.2939 27.5564 17.9335 28.0043C18.1685 28.1684 18.249 28.3929 18.3221 28.6784C17.7131 30.5717 17.5791 31.6598 17.9213 31.9385L16.4534 33.702C16.3984 33.775 16.3261 33.8392 16.2381 33.8822C16.0568 33.9711 15.8526 33.9627 15.6863 33.8741C15.78 34.1401 15.8284 34.2828 15.8388 34.4578C15.8527 34.6998 15.801 34.8259 15.6895 35.0896C15.6254 35.2477 15.5712 35.3941 15.5133 35.5532L15.4997 35.6012C15.2504 36.3555 15.1321 36.7177 14.3656 36.2023C14.1743 36.0724 14.0013 35.8181 13.673 35.3324L13.675 35.3321ZM12.2569 33.2522C11.1393 31.8079 10.1557 31.0479 9.30735 30.9678L9.30156 30.9688C8.575 30.9035 7.94628 31.3359 7.41641 32.2718C7.48585 31.8684 7.62483 31.5225 7.85159 31.2708C8.01024 31.0964 8.1975 30.9726 8.41539 30.9112L8.4096 30.9122C8.32111 30.9175 8.22929 30.9036 8.13959 30.8674C7.83338 30.7395 7.6868 30.3853 7.81474 30.0791C7.92174 29.8241 8.01716 29.5712 8.11005 29.3267C8.37098 28.6399 8.61608 27.9995 8.91788 27.699C9.03821 27.5789 9.16068 27.4942 9.28209 27.4494C9.23606 27.1712 9.27558 26.8823 9.36574 26.6104C9.46382 26.3153 9.62377 26.0334 9.78892 25.8161C9.95601 25.5985 10.15 25.4219 10.3262 25.3259C10.3532 25.3094 10.3824 25.2944 10.4122 25.2833C10.5198 25.2389 10.6298 25.2199 10.7402 25.2267L10.7302 25.1688C10.6775 24.852 10.7002 24.5918 10.7723 24.3767C11.1234 24.2465 11.4951 24.1208 11.8855 23.9997C10.439 30.9513 12.0217 31.2801 16.632 24.9884C22.8302 19.4935 23.9128 19.3424 19.8791 24.5311C19.5425 24.8257 19.2089 25.1257 18.8797 25.4289C17.074 27.0997 15.4209 28.8951 14.3652 30.5258L13.1017 33.013C13.0661 33.0827 13.0137 33.1474 12.9496 33.2021C12.7481 33.3701 12.4666 33.3849 12.2537 33.2567L12.2569 33.2522ZM19.4466 25.6052C18.998 26.7357 18.6387 27.7157 18.367 28.5474C18.181 28.057 18.003 27.5552 17.9827 27.4375C17.9374 27.1751 18.2512 26.7256 18.7989 26.2038C18.9849 26.0267 19.2023 25.8242 19.4447 25.6055L19.4466 25.6052ZM19.5314 31.1718C20.2639 30.8109 21.1483 31.0079 21.658 31.6471C22.1677 32.2863 22.1652 33.1928 21.6507 33.826C21.4949 37.4929 22.6757 38.6242 25.1931 37.22C24.9187 37.4721 24.6201 37.7561 24.2602 38.1003C23.4661 38.8633 22.5951 39.8144 21.8618 40.7C21.1484 41.5623 20.571 42.3494 20.3348 42.8114L20.3307 42.8221C20.2718 42.9415 20.2068 43.06 20.153 43.1508C20.1208 43.206 20.0841 43.2581 20.0463 43.3043C20.0039 43.3693 19.9463 43.4269 19.8767 43.4727C19.8216 43.51 19.7625 43.5361 19.7018 43.5526L19.6465 43.5661C19.4188 43.6054 19.1778 43.5099 19.0411 43.305L15.0996 37.381C14.9707 37.1867 14.9615 36.926 15.0983 36.7176C16.1534 35.0949 17.7756 33.0743 19.5333 31.1714L19.5314 31.1718ZM26.863 36.8801L26.6125 37.2472C26.633 37.1702 26.6702 37.0982 26.7223 37.0315C26.7616 36.983 26.8083 36.9313 26.863 36.8801ZM26.0972 38.0256C24.4378 40.5791 23.6177 42.4235 23.6343 43.5552C23.3613 43.3897 23.2843 43.1506 23.1571 42.7474C23.0659 42.4611 22.9322 42.0431 22.6721 41.492C22.5255 41.1835 22.6751 40.796 23.0037 40.3856C23.3191 39.9914 23.8371 39.4589 24.3135 39.0071C24.7681 38.5789 25.2101 38.2046 25.4443 38.0648L25.5078 38.03C25.7171 37.9303 25.917 37.9256 26.0991 38.0253L26.0972 38.0256ZM22.2611 42.6676L22.8388 44.8747C22.8833 45.0518 22.849 45.2445 22.7286 45.3984L22.3685 45.856C21.9815 46.3539 21.7883 46.6039 21.3156 46.5245C20.9206 46.4576 20.7584 46.1856 20.4359 45.6412L20.3826 45.5511C20.247 45.3182 20.1208 45.0936 20.0293 44.9206C19.9792 44.826 19.9394 44.7335 19.9087 44.6474C19.8513 44.5341 19.8264 44.4013 19.8508 44.266L19.857 44.2331C19.8831 44.1312 19.9442 44.0134 20.032 43.889C20.1709 43.6921 20.4569 43.3229 20.7154 43.002C20.8496 42.8358 20.9917 42.6802 21.1329 42.5544C21.2731 42.262 21.6223 42.1322 21.9214 42.2653C22.0851 42.3384 22.215 42.4809 22.2611 42.6676Z" fill="#974020"/>
<path fill-rule="evenodd" clip-rule="evenodd" d="M58.4434 73.9406C59.1509 73.435 59.7662 73.0168 60.2912 72.6858C60.3222 72.8771 60.3263 73.1427 60.3045 73.4882C60.2928 73.6849 60.1321 74.1239 59.821 74.8651C59.4495 75.7518 59.0635 76.4622 58.5942 77.0817C58.1202 77.7079 57.5725 78.2297 56.8834 78.7381C56.0901 79.3221 54.9241 79.9108 53.4971 80.4612C52.0962 81.0011 50.4218 81.5107 48.5809 81.9537C46.0647 82.5589 43.9056 82.8164 41.864 82.7179C39.81 82.6175 37.8905 82.1561 35.8633 81.3238C34.3532 80.7023 32.9073 79.9347 31.515 79.0167C30.1268 78.0999 28.7919 77.031 27.4988 75.8018C27.1589 75.479 26.8559 75.1736 26.5874 74.8842C26.0927 73.7914 25.6949 72.6381 25.4102 71.4375C36.1038 82.7864 46.5623 84.1182 56.787 75.4406C57.4493 74.9269 58.0171 74.4176 58.446 73.9441L58.4434 73.9406Z" fill="#974020"/>
<path fill-rule="evenodd" clip-rule="evenodd" d="M28.2687 16.5613L27.5133 16.8467C27.4609 16.8657 27.4053 16.8773 27.3467 16.8834C27.0153 16.9088 26.7261 16.6607 26.7007 16.3293C26.3939 12.1581 26.4903 12.1296 27.4617 11.8407C27.5391 11.8174 27.6281 11.7921 27.7109 11.7539C27.8172 11.7018 27.941 11.6824 28.0654 11.7007C28.3943 11.7532 28.6182 12.0602 28.5676 12.3889C28.366 13.6496 28.5298 14.736 28.6215 15.348C28.7072 15.9134 28.762 16.2655 28.3961 16.4936C28.357 16.5202 28.3152 16.5433 28.2683 16.5594L28.2687 16.5613ZM28.2771 35.8646C29.2619 35.2277 30.5097 34.4221 31.1347 33.6347C31.2369 33.4899 31.3989 33.3924 31.5894 33.3794C31.9214 33.3578 32.2075 33.6105 32.2306 33.9403C32.2862 34.8148 32.3338 35.4126 32.371 35.8811C32.456 36.9493 32.4939 37.4335 32.3726 37.7783C32.1998 38.2731 31.941 38.3396 31.4705 38.4566C31.2323 38.5156 30.8855 38.6013 30.4039 38.8732L28.3603 40.2135C28.3061 40.2566 28.2426 40.2914 28.1732 40.3153C27.8574 40.4195 27.5158 40.248 27.4097 39.9325L26.6229 37.5847C26.561 37.3987 26.5916 37.1848 26.7239 37.0189C26.9754 36.7033 27.5632 36.3216 28.2764 35.8607L28.2771 35.8646ZM26.3822 38.3197L27.2824 40.4612C27.3971 40.6997 27.3428 40.9951 27.1317 41.1766L25.3426 42.7253L25.0603 42.9887C24.4068 43.6002 24.1382 43.8512 23.6366 43.5464C23.3636 43.3809 23.2866 43.1419 23.1594 42.7386C23.0682 42.4524 22.9344 42.0344 22.6744 41.4832C22.5277 41.1747 22.6774 40.7872 23.0059 40.3769C23.3214 39.9826 23.8394 39.4501 24.3158 38.9983C24.7704 38.5702 25.2124 38.1958 25.4466 38.056L25.5101 38.0212C25.7338 37.9131 25.9469 37.916 26.1392 38.0398C26.2435 38.1032 26.3316 38.1993 26.3825 38.3216L26.3822 38.3197ZM22.2631 42.6569L22.8408 44.864C22.8853 45.0411 22.851 45.2338 22.7305 45.3877L22.3704 45.8453C21.9835 46.3432 21.7902 46.5932 21.3175 46.5138C20.9225 46.4469 20.7603 46.1749 20.4378 45.6305L20.3845 45.5404C20.2489 45.3075 20.1227 45.0829 20.0313 44.9099C19.9812 44.8152 19.9414 44.7228 19.9106 44.6367C19.8533 44.5234 19.8284 44.3906 19.8527 44.2553L19.8589 44.2224C19.8851 44.1205 19.9462 44.0027 20.034 43.8782C20.1729 43.6814 20.4588 43.3121 20.7174 42.9913C20.8516 42.8251 20.9936 42.6694 21.1348 42.5437C21.2751 42.2513 21.6242 42.1215 21.9234 42.2546C22.087 42.3277 22.2169 42.4702 22.2631 42.6569ZM25.298 21.1632C26.9981 20.1008 27.3262 19.8951 27.1739 19.1624C27.0057 18.349 26.9529 17.8475 26.9662 17.5909L26.9672 17.5509C26.9948 17.2501 27.1291 17.0501 27.3435 16.9455C27.6713 16.7837 27.9531 16.8741 28.1757 17.1853C28.2854 17.3373 28.4085 17.6359 28.5043 18.0068C28.8812 19.4876 29.1498 20.4684 29.3478 21.1893C29.7155 22.5365 29.8704 23.0999 29.7539 23.4498C29.5293 24.1284 29.1782 24.028 28.5775 23.8516C28.1822 23.737 27.4725 23.5277 26.4368 24.0423L26.4185 24.0515C26.1553 24.1843 25.6794 24.489 25.2479 24.786C24.8519 25.059 24.5182 25.3014 24.4812 25.3515C24.1679 25.7812 23.8279 25.814 23.469 25.5541C23.0873 25.2763 22.982 24.3904 22.8974 23.6699L22.8423 23.2244C22.803 22.9967 22.8947 22.7563 23.0995 22.6196C23.8277 22.1303 24.551 21.624 25.2954 21.1597L25.298 21.1632ZM22.6092 25.6032C22.6591 25.8112 22.7142 26.05 22.8045 26.4119C22.853 26.6122 22.7979 26.8343 22.6417 26.9884L20.375 29.1997L19.9612 29.6228C19.7743 29.8061 19.5951 29.9304 19.46 29.9538C19.1147 30.0134 18.6841 29.3605 18.4085 28.6392C18.2095 28.1192 18.0063 27.5522 17.9846 27.4268C17.9393 27.1644 18.2531 26.7148 18.8009 26.1931C19.2068 25.8051 19.7707 25.2965 20.3984 24.755L20.5829 24.592C21.2603 24.0041 21.5744 23.7294 22.1034 24.25C22.343 24.4868 22.436 24.8761 22.6073 25.6035L22.6092 25.6032ZM18.1361 31.6765L17.9232 31.9278L16.4576 33.6929C16.4026 33.7659 16.3303 33.8301 16.2423 33.8731C16.061 33.962 15.8568 33.9535 15.6906 33.865C15.7842 34.131 15.8326 34.2736 15.843 34.4487C15.8569 34.6907 15.8052 34.8168 15.6938 35.0805C15.6296 35.2386 15.5755 35.385 15.5175 35.544L15.5039 35.5921C15.2546 36.3464 15.1364 36.7086 14.3698 36.1932C14.1785 36.0633 14.0055 35.809 13.6772 35.3233C13.5194 35.0883 13.3227 34.8003 13.1507 34.5519C13.0102 34.3715 12.9782 34.1167 13.0899 33.9007C13.3003 33.4968 13.4359 33.2231 13.5415 33.0061L13.5602 32.9652C13.8383 32.4006 13.9856 32.1029 14.2504 31.9678C14.3691 31.9076 14.4716 31.868 14.5616 31.8485L14.5404 31.8065C14.446 31.6161 14.4568 31.3798 14.5874 31.1923C16.6506 28.2393 17.2962 27.5476 17.9358 27.9955C18.2024 28.182 18.2696 28.4446 18.3543 28.7856C18.3807 28.8923 18.4113 29.0122 18.4464 29.1234C18.5349 29.3942 18.6006 29.5677 18.6542 29.7054C18.7983 30.0799 18.8793 30.2845 18.8206 30.6006C18.7592 30.9351 18.5715 31.1602 18.1585 31.6448L18.1323 31.6771L18.1361 31.6765Z" fill="#974020"/>
<path d="M46.682 86.726C43.0628 87.1343 37.9556 87.3483 36.7232 87.1379C34.4884 86.7608 35.32 85.0753 35.0665 83.6071C35.0565 83.5492 34.7102 83.3845 34.2983 83.243C32.1348 82.5078 29.9047 80.7191 29.7577 80.673C28.6252 80.328 25.1638 82.2489 23.6963 73.9327C22.7143 73.5618 22.3237 73.359 21.3412 72.0643C17.7403 67.3193 11.9493 54.0312 8.73908 47.5319C6.13075 42.252 3.39811 37.7943 5.26793 33.3526C4.79452 32.9237 4.53779 32.7256 4.77387 31.9179C5.01694 31.0931 5.70118 30.522 6.23847 30.6994C6.5355 30.7972 6.72153 28.9629 7.66329 26.73C6.43996 25.9279 7.29219 25.0178 8.20979 24.8892C8.85209 24.8001 9.34127 24.2845 8.953 23.7734C8.61371 23.3273 8.54853 21.9139 10.3202 22.4743L10.6448 21.9832C8.96314 19.919 11.1288 19.8154 12.4822 19.6791C11.2393 16.7265 13.3968 17.576 14.921 17.3129C13.9027 15.7422 14.8291 14.6742 16.7705 15.8153L17.4231 15.0609C16.6407 13.7396 18.3789 12.6904 19.2907 13.6675C19.9634 14.3879 19.5375 12.7606 20.0204 12.2779C20.4121 11.8884 21.5225 12.0245 21.7448 12.5643C22.1638 12.3211 21.6839 11.7165 22.106 11.1231C22.4437 10.6396 23.2413 10.8516 23.3456 11.4555C23.4119 11.8394 23.341 11.7166 24.6141 11.2305C26.5508 10.4908 28.2316 10.5822 28.203 10.4162C28.1507 10.1133 28.5605 9.08089 28.9056 8.63983C30.4678 6.65147 35.7624 5.23275 38.746 9.2339L40.0849 9.2551C40.6194 9.28998 40.1461 8.263 41.4352 7.42054C42.6085 6.65568 49.8908 5.64485 50.7302 10.5069L50.8352 11.1147C53.1527 9.38139 56.3566 9.35281 58.1015 12.5088C58.919 13.987 59.0145 14.805 59.3012 16.3967C61.8203 14.116 64.9971 13.9649 67.3204 17.0528C68.3075 18.3626 68.9259 19.7004 69.5915 21.9677C72.5473 32.0457 72.7305 46.1231 70.7218 56.919C70.4365 58.4544 70.1571 59.9551 70.1057 60.256C70.0007 60.8444 69.9128 60.9569 69.969 60.4306C70.1576 58.7152 69.4262 63.1331 67.2378 65.1541C64.9639 67.2554 64.6626 66.304 64.6832 67.1827C64.7242 69.0433 63.1047 74.6935 61.7502 77.4129C60.0308 80.8729 57.9652 83.1906 55.4463 84.4937C53.6346 85.4284 50.0342 86.348 46.682 86.726ZM48.438 81.3602C52.0609 80.4904 55.0327 79.3475 56.5238 78.2476C57.8122 77.298 58.5581 76.3129 59.2646 74.6272C59.836 73.2649 59.8461 73.1042 59.3181 73.8212C57.8474 75.8216 53.5237 78.6285 50.0249 79.8604C44.2825 81.8849 36.0145 80.1213 31.6961 76.4678C30.6723 75.6015 28.9126 73.9481 27.6511 72.6599C25.8151 70.7952 25.0992 70.6188 25.5275 72.1443C25.7799 73.0425 26.5147 74.0303 27.912 75.3567C30.4454 77.7626 33.1412 79.5444 36.0907 80.7579C40.0213 82.3722 43.5099 82.5428 48.4396 81.358L48.438 81.3602ZM49.971 77.6265C52.5478 76.5895 54.5024 75.3202 56.5999 73.6249C52.6992 69.8476 53.1835 71.2602 50.7158 71.1219C48.4866 70.9961 43.6548 71.7806 40.5182 71.1637C37.5361 70.5778 36.7825 70.1257 39.0689 70.2953C42.3497 70.5396 52.3184 69.3451 53.6435 69.7581C54.4729 70.0163 56.3758 71.7859 57.4776 72.8276C59.657 70.9274 59.4402 71.4556 58.7931 69.7096C57.5959 66.4809 57.3469 64.2787 61.2026 64.2508C62.2007 64.2434 62.0368 64.1227 63.405 62.6447C59.9325 61.0944 57.3036 57.4333 57.4521 53.4021L57.8256 50.3175C58.483 52.1691 56.782 57.4618 64.0931 61.4629C65.4673 58.8692 66.8616 55.4018 67.9901 52.5246C68.6207 50.9176 68.4333 51.0632 68.5764 48.992C68.8297 45.3262 69.0623 38.4789 68.8402 35.0978C68.6111 31.6185 67.886 25.8187 67.3996 23.5423C66.4215 18.9704 65.2917 16.5348 62.2973 17.0517C61.0664 17.2642 60.5218 17.6662 59.8768 18.614C61.6576 18.3066 62.4912 19.6708 60.2063 20.2699C59.3585 20.4917 59.5338 19.9767 59.8057 22.6796C60.5703 23.2987 61.4667 23.9108 61.5917 24.6344C61.7522 25.5643 59.9613 24.9158 59.9547 24.9348C59.9477 24.9519 59.9605 25.4981 59.9855 26.1495C60.2112 32.1984 59.0179 44.7252 57.396 48.4048C56.9395 49.4433 56.4615 49.943 56.5987 49.2418L57.1062 44.4929C57.9357 37.628 58.4019 30.1543 57.765 23.9101C57.6275 22.5728 57.5773 23.1219 56.751 22.0069C56.4016 21.5367 56.5184 21.6953 55.373 22.0123C53.6662 22.4838 54.9399 20.885 55.5894 20.5265C55.7017 20.4634 54.0841 17.3431 55.0215 17.6859C56.3111 18.1587 57.6098 21.6758 56.8055 17.7534C56.136 14.4853 55.4922 12.2181 53.0071 12.4167C52.5036 12.4579 52.467 12.4761 52.2387 12.7997C52.0184 13.1119 51.4259 14.8355 51.5141 14.8978C51.5205 14.9006 53.7758 14.0265 53.691 15.1697C53.5512 17.0873 49.4192 16.4476 52.0898 18.5894C54.2857 20.3522 53.4528 21.3861 51.6144 20.3127C52.0211 25.3269 52.3447 29.4455 52.2579 35.0199C52.1785 40.13 51.8313 42.2166 50.7571 44.0273C50.1508 45.0499 50.2683 45.2124 50.5097 41.2824C50.8958 34.9908 50.3059 26.8549 49.3977 18.9588C49.2086 17.3224 48.8603 18.5966 47.1856 18.8857C46.5856 18.9893 45.9951 18.4693 47.472 17.2646C48.5398 16.3948 47.4756 16.8825 46.3097 14.1114C45.0708 11.17 48.457 15.0977 48.7678 15.2984C48.7723 15.3016 48.2996 10.7219 46.7986 9.66967C45.6536 8.87191 42.9162 8.58748 42.3819 9.21022C41.9829 9.67251 42.0926 11.102 42.2032 12.583C45.438 10.7768 44.5134 13.0167 43.0662 14.0832C42.2781 14.6623 42.3573 14.5115 42.5939 15.79C43.8228 16.4978 44.7544 16.8873 45.2809 17.8654C45.9538 19.1162 43.8021 18.6333 43.3459 18.3962C42.6517 18.0352 42.7695 17.7625 43.022 21.2735C43.5923 29.2498 43.6814 37.5456 43.2237 40.2116C43.0621 41.1515 42.6785 42.4973 42.5353 42.6233C42.4085 42.7406 41.9984 39.686 41.8663 37.6086C41.565 32.8484 40.2705 21.4942 39.222 17.0894C38.5467 17.5974 37.2751 18.6335 36.757 18.268C35.9791 17.7208 37.9359 16.1769 38.5267 15.4331L35.9535 12.8195C35.9258 11.9918 38.2338 13.2763 38.2592 13.101C38.2847 12.9377 37.9045 11.99 37.5445 11.309C35.7256 7.88565 30.5332 9.76955 29.702 12.4702C29.4041 13.4376 29.478 13.8659 30.4729 17.0163C33.6037 26.8991 35.8286 44.6435 30.1829 52.6716C28.6913 54.7929 28.1055 55.0708 26.3652 55.3713C28.7661 59.8068 32.3856 66.3745 35.1143 69.4401C29.7253 65.7768 27.2376 60.3787 22.6684 51.7277C20.2999 47.2389 18.8179 44.8462 13.6455 37.1438C10.9119 33.0717 10.4826 32.4841 9.94934 32.0537C7.73951 30.2674 7.7411 32.9813 8.20773 34.9592C8.68188 36.9576 9.17812 37.9905 13.667 46.3255C18.054 54.4735 21.0923 60.9667 25.249 69.3114C25.4854 69.7832 25.5181 69.8113 25.8478 69.8219C29.2508 69.9338 32.7135 78.8394 45.1171 78.6055C46.3431 78.5826 48.8859 78.0741 49.9695 77.6406L49.971 77.6265ZM39.5592 61.3729C34.6231 61.8297 31.7892 60.0081 33.9852 60.3562C34.551 60.4453 34.7582 60.4255 36.8162 60.0662C43.7224 58.868 46.5049 57.0544 52.773 53.886C51.5889 55.4515 48.4226 58.2989 46.6193 59.2937C44.542 60.4392 41.9791 61.1538 39.5576 61.3752L39.5592 61.3729ZM24.3208 59.5152C23.4265 58.1794 22.5647 56.997 22.0741 56.4339C20.8146 54.9963 22.0979 55.4781 21.5025 54.8835C21.0201 54.4025 19.2254 50.7743 18.4232 50.0982C17.7416 49.5224 18.296 49.4764 17.8476 49.0431L15.4142 44.339C14.6074 43.0378 16.1538 43.1563 18.0014 46.527C19.4111 49.0991 18.6161 48.9025 19.0017 49.0525C20.267 49.5454 22.578 53.5176 22.3281 54.6595C22.1151 55.6242 22.3644 54.2022 24.2806 57.0842C25.2739 58.5798 25.6095 59.1537 24.8776 60.347L24.3227 59.5149L24.3208 59.5152ZM30.258 56.398C29.4065 56.0582 32.019 53.3521 32.7368 53.2282C33.4545 53.1043 33.8581 53.9804 33.1243 54.9435C32.1819 56.1831 30.6845 56.5668 30.258 56.398ZM61.6918 50.7647C60.9622 50.3363 60.9229 49.8901 61.3701 46.8643L61.9631 44.1531C61.4039 43.3079 61.0228 42.4816 61.1143 41.2736C61.207 40.0496 61.4067 38.0183 61.9861 37.3003C62.6489 36.4786 61.365 36.9367 61.8661 32.0478C62.2466 28.3361 64.3098 29.641 63.946 30.0197C63.6731 30.3033 63.0207 34.7652 63.5855 36.2295C64.225 37.8854 63.2611 36.3073 62.7781 39.7128C62.3213 42.925 63.7533 42.795 63.1989 44.8319C62.9568 45.7082 62.404 49.4 62.427 49.9364C62.4691 50.8014 62.2244 51.0761 61.6915 50.7628L61.6918 50.7647ZM33.6155 48.5702C33.3085 48.3569 33.6049 44.5267 34.2073 43.9994C34.739 43.5341 35.8492 43.6008 35.2749 45.9709C35.0646 46.8358 34.3166 49.075 33.6159 48.5721L33.6155 48.5702ZM35.1638 32.656C35.1638 32.656 34.0765 29.615 34.5311 28.9683C34.927 28.4072 35.6926 28.5949 35.9172 29.3091C36.1107 29.9235 35.683 33.5459 35.1638 32.656ZM27.1104 78.5053C26.7233 78.139 26.3258 77.7585 26.2281 77.6642C25.9072 77.348 26.4452 78.1969 26.7988 78.565C27.3921 79.1819 28.4507 79.778 27.1104 78.5053ZM24.1081 71.0124C24.0132 70.4625 24.9631 70.5787 24.1565 69.7503C23.3965 68.9735 22.9547 68.1755 19.909 62.077C17.2746 56.7956 16.1376 54.6175 12.8543 48.5123C8.88739 41.1403 7.46558 38.1411 7.14238 36.4187C7.05965 35.974 7.04601 35.9525 7.0114 36.2009C6.68291 38.614 14.3491 53.7183 16.3232 57.5222C18.11 60.9669 22.0923 69.1072 23.7871 70.9486C23.9533 71.1285 24.1344 71.1648 24.1078 71.0105L24.1081 71.0124ZM64.7804 63.7981C65.7503 63.0862 66.9703 58.6673 66.9703 58.6673C66.9472 58.6713 66.7425 59.0743 66.5175 59.5661C65.7282 61.2899 64.5497 63.0948 63.6741 63.9275C62.9087 64.6497 64.6009 63.9324 64.7804 63.7981ZM27.1883 53.7171C29.8613 51.7178 31.3409 46.3282 31.5558 43.0962C28.8181 44.5821 26.2631 45.8835 24.9934 47.6207C23.8648 49.1627 24.4901 46.9268 26.5001 45.0578C27.7637 43.884 30.5031 42.0162 31.3007 41.7792C31.6413 41.6807 31.6765 41.6428 31.7008 41.3346C31.7525 40.7594 31.7706 40.1741 31.739 40.1518C31.6459 40.0844 29.8836 40.9827 29.0376 41.5261C25.6851 43.6865 24.289 44.7838 22.2612 47.5738C24.8836 52.4401 24.5162 52.1995 24.9477 51.0044C25.4006 49.738 26.5459 48.0164 27.3652 47.3643C27.6064 47.1736 29.1072 46.2568 29.2018 46.2405C29.2905 46.2252 28.0489 47.9178 27.5258 48.5247C26.4531 49.7689 25.6905 51.1066 24.951 52.6351C25.5302 53.7689 25.72 54.7992 27.1841 53.7159L27.1883 53.7171ZM21.9432 45.4094L22.2548 45.0158L21.677 42.8088C21.6386 42.7816 20.4607 44.2685 20.4432 44.3629C20.4329 44.4064 20.6434 44.7973 20.8999 45.2358C21.4288 46.1241 21.3905 46.1207 21.9435 45.4113L21.9432 45.4094ZM24.9433 42.2667L26.7343 40.7177L25.8237 38.5503C25.6898 38.4422 23.0695 40.9192 23.2148 41.22C24.1657 43.2176 23.5169 43.58 24.9449 42.2645L24.9433 42.2667ZM19.786 42.5471C20.2881 41.5425 22.2236 39.2075 23.8414 37.6566C25.4983 36.0672 25.8828 35.7624 28.7518 33.759C29.8687 32.9781 30.9039 31.9768 30.7454 31.0246C30.5776 30.0064 28.939 25.7055 28.2855 25.419C28.0451 25.3155 27.2957 25.5322 26.549 25.9254C23.345 27.5992 17.9907 33.3676 15.6027 37.0404L19.5441 42.9644C19.5673 42.9604 19.6798 42.7721 19.7905 42.5503L19.786 42.5471ZM19.2098 38.3807C19.0593 37.5781 21.9394 32.6581 24.1912 31.2004C24.6469 30.9051 26.8561 29.8681 26.9869 29.8892C27.1644 29.9162 24.9623 32.168 24.0836 32.8562C20.4952 35.6752 19.3019 38.8794 19.2075 38.3791L19.2098 38.3807ZM30.0924 38.3597C32.2224 37.1515 31.954 39.0954 31.6272 33.9799C30.5012 35.422 27.6823 36.7829 27.1943 37.3977L27.9811 39.7455L30.0924 38.3597ZM15.0234 35.1237C15.3269 34.3381 15.3207 34.7167 14.9323 33.5141C14.4597 32.0539 14.7169 32.071 13.6219 34.1755C14.9442 36.0692 14.702 35.9898 15.025 35.1214L15.0234 35.1237ZM17.4602 31.5378C18.5273 30.2727 18.314 30.6712 17.8722 29.3089C17.5231 28.2307 17.8849 27.5185 15.0779 31.5378L15.968 33.3333L17.4586 31.5401L17.4602 31.5378ZM13.8346 30.2285C16.2105 26.532 21.5212 22.0646 24.9688 19.9256C27.1546 18.5687 25.6913 19.4035 25.769 14.1565C25.7795 13.5269 25.7693 12.9961 25.7438 12.9747C25.6975 12.937 21.3993 14.752 21.217 15.4113C20.938 16.4191 20.8554 15.3883 19.8584 16.0929C19.0932 16.6323 19.3985 17.1002 18.7356 17.0815C17.9511 17.06 12.7092 22.352 12.7377 23.0922C12.7673 23.8739 11.13 23.8963 11.3279 25.0542C11.4363 25.7051 11.2197 25.9809 10.7327 25.8186C10.4947 25.7405 9.64049 26.8119 9.92453 27.502C10.1808 28.1233 9.99168 28.4779 9.61122 28.0925C9.2502 27.7277 8.8408 29.1772 8.37411 30.295C10.3708 30.2364 11.1732 31.0635 12.5663 32.7225L13.8346 30.2285ZM19.9529 28.7709L22.2197 26.5596C21.6566 24.3103 21.8564 24.2936 20.8222 25.1855C19.558 26.276 18.5634 27.2246 18.5807 27.3249C18.6113 27.5024 19.3207 29.3668 19.3573 29.3605C19.3786 29.3569 19.6445 29.0904 19.9549 28.7706L19.9529 28.7709ZM23.993 24.9997C24.1504 24.7838 25.5678 23.8099 26.1452 23.5175C29.5364 21.8114 30.0563 26.5379 27.9183 18.1587C27.6831 17.2336 27.3427 17.0341 27.7612 19.0441C28.0069 20.2256 27.5833 20.4418 25.3831 21.8191L23.4368 23.1247C23.5414 23.8458 23.6433 25.4833 23.9933 25.0016L23.993 24.9997ZM41.4958 18.8089C41.3681 17.3209 41.3594 17.2708 41.1603 17.1303C40.9586 16.9863 40.9616 17.0037 41.2823 18.8041L41.4955 18.807L41.4958 18.8089ZM28.49 17.3963C28.4134 16.9526 28.2406 17.5745 28.476 17.5339C28.4953 17.5305 28.5024 17.4677 28.49 17.3963ZM28.0535 15.9954C28.2066 15.9154 27.645 14.3314 27.9708 12.2942C27.1111 12.689 26.9783 11.943 27.298 16.2808L28.0535 15.9954ZM40.4262 11.6122L40.3336 10.7421C39.4331 10.5896 39.6656 10.4978 40.2172 11.8748C40.5866 12.7946 40.5462 12.7101 40.4262 11.6122Z" fill="black"/>
<path fill-rule="evenodd" clip-rule="evenodd" d="M40.7569 65.3874C37.575 65.5261 32.3808 64.4366 29.7134 62.6728C29.5829 62.5866 29.3924 62.4715 29.2864 62.4274C28.0901 62.0565 26.2252 60.3501 25.3915 59.3739C24.3855 58.1954 23.0336 56.0522 22.3865 54.6406C20.5681 50.6744 20.4248 45.0451 22.0025 40.983C24.3233 35.0023 30.7451 29.9008 36.9721 28.5878C41.5444 27.6244 46.5401 28.4014 50.3932 31.1371C54.7276 34.2148 58.1509 40.0555 58.292 45.4299C58.3687 48.3532 57.8479 51.8701 56.6738 54.5422C55.9594 56.1671 54.8143 57.6924 53.6475 59.0168C51.3661 61.6073 49.0821 63.3204 45.8183 64.4338C45.044 64.698 44.1112 64.8736 43.306 65.0256C42.5022 65.1775 41.5748 65.3506 40.7595 65.3855L40.7569 65.3874Z" fill="white"/>
<path fill-rule="evenodd" clip-rule="evenodd" d="M23.838 48.473C23.8716 46.9675 23.9869 41.9626 26.4693 38.8268C26.9394 38.2337 27.5268 37.5712 28.1361 36.9425C28.7402 36.3176 29.3682 35.7218 29.9215 35.2575C30.7339 34.5764 32.791 33.2783 34.0518 32.6528L34.0718 32.6421C34.3704 32.4951 34.6327 32.3819 34.8355 32.3194C35.274 32.1829 35.5776 32.2578 35.6902 32.6071C35.7199 32.7033 35.7227 32.804 35.6934 32.9117L35.6823 32.9484C35.6071 33.1696 35.4731 33.2853 35.3136 33.3548C35.389 33.4213 35.4434 33.5088 35.4631 33.6399C35.4959 33.8555 35.4043 34.0318 35.1089 34.1551L35.1426 34.2072C35.2195 34.3414 35.2324 34.4838 35.204 34.6217C35.1881 34.6982 35.16 34.7711 35.1264 34.8376L35.1059 34.8787C35.0737 34.9364 35.0246 34.9882 34.9702 35.0352C34.925 35.1269 34.8489 35.1993 34.7573 35.2412C34.7861 35.2984 34.8052 35.3674 34.8174 35.4549C34.8457 35.6525 34.779 35.813 34.6553 36.1149L34.5632 36.3391C34.5526 36.3698 34.5386 36.3983 34.5218 36.4272C34.4342 36.5681 34.2802 36.6439 34.1251 36.6374L34.1341 36.6474C34.2373 36.7656 34.2737 36.9343 34.2163 37.0902L33.9822 37.7207C33.9729 37.7425 33.9636 37.7644 33.9513 37.7853C33.8787 37.9121 33.7513 37.9905 33.6141 38.004C33.6368 38.0681 33.6494 38.1411 33.6506 38.232C33.6527 38.4544 33.5564 38.6373 33.3605 39.0095L33.2328 39.2543C33.2032 39.31 33.1611 39.3607 33.1057 39.4021C32.9976 39.4829 32.8636 39.506 32.7411 39.478L32.8232 39.6591C32.8732 39.7806 32.8688 39.9231 32.7985 40.0466L32.6551 40.3013C32.4729 40.6263 32.3763 40.7992 32.1998 40.8875C32.0594 40.958 31.9501 40.9899 31.8635 40.9846C31.8994 41.1505 31.9189 41.2469 31.9124 41.3608C31.9023 41.5463 31.8526 41.6286 31.7456 41.8004L31.6621 41.9391C31.338 42.494 31.0853 42.6042 30.777 42.426L30.7756 42.4263C30.722 42.3936 30.6797 42.3589 30.6456 42.3214L30.784 43.0221C30.8034 43.1344 30.7776 43.2546 30.7047 43.3539L30.2879 43.9277C30.2316 44.0054 30.1488 44.0645 30.0489 44.0919C29.9199 44.1272 29.7875 44.1009 29.684 44.032C29.7163 44.2694 29.7276 44.4192 29.716 44.5456C29.6931 44.7998 29.6171 44.8982 29.473 45.0822L29.4122 45.1592C29.361 45.2244 29.2916 45.2769 29.2065 45.3061C29.0996 45.3433 28.9894 45.3363 28.8925 45.2966C28.91 45.5915 28.8772 45.8561 28.7329 46.0473C28.4339 46.4445 28.2309 46.6068 27.8577 46.2548L27.8343 46.2284C27.8926 47.1468 27.8816 47.1589 27.5249 47.5082L27.4481 47.5851C27.3996 47.6325 27.3393 47.6704 27.2704 47.6924C27.1052 47.7455 26.9325 47.6958 26.8194 47.5794C26.8694 47.8774 26.889 48.0331 26.8505 48.1973C26.8228 48.3149 26.7828 48.3941 26.7231 48.4695C26.8397 48.3539 26.9329 48.2872 27.0807 48.2516C27.163 48.2316 27.2319 48.2269 27.2988 48.2356C27.2468 48.0942 27.2707 47.9296 27.3741 47.8047L27.51 47.6409C27.933 47.1283 28.0471 46.99 28.4012 47.0966C28.3103 46.9402 28.3234 46.7384 28.4467 46.5942L28.9867 45.9601C29.0919 45.8204 29.2709 45.7548 29.4422 45.7961C29.3853 45.6512 29.4266 45.4864 29.5429 45.3102L29.6978 45.0882C29.8783 44.8372 30.1366 44.499 30.26 44.3635L30.2942 44.3258C30.4171 44.2048 30.5472 44.1418 30.7774 44.1368C30.6799 43.8919 30.8682 43.5267 31.3765 42.8099C31.4583 42.6945 31.5951 42.6203 31.747 42.6244L31.8447 42.6264C31.7416 42.4837 31.7321 42.2857 31.8358 42.129L32.4571 41.1916C32.532 41.0615 32.6709 40.9739 32.8303 40.971C32.8197 40.9352 32.8101 40.8964 32.8024 40.8514C32.7658 40.6394 32.8687 40.4698 33.0793 40.1239L33.2709 39.8031C33.3375 39.6759 33.4656 39.5843 33.6199 39.5693L33.8824 39.5413C33.8059 39.4764 33.7545 39.3725 33.7273 39.2152C33.6917 39.0088 33.7885 38.8286 33.9722 38.4874L34.1564 38.1404C34.2211 38.0019 34.3548 37.9008 34.5192 37.8854L34.5806 37.8791C34.4621 37.7564 34.4214 37.5711 34.4928 37.404L34.8145 36.65C34.8649 36.5126 34.9816 36.4057 35.1297 36.3714C35.0466 36.2354 35.0444 36.0709 35.0953 35.8943C35.1265 35.7892 35.1808 35.6742 35.2375 35.5733C35.2773 35.5014 35.3286 35.4361 35.3841 35.3788C35.4745 35.1622 35.7176 35.0551 35.9373 35.1329L35.9574 35.1396C35.9949 35.1548 36.0184 35.1146 36.0695 35.0652C35.8303 35.0096 35.6498 34.9237 35.6033 34.654C35.5109 34.119 35.7597 33.8938 36.1174 33.7771C35.8941 33.6031 35.8459 33.3829 36.0471 33.0922C36.1389 32.9592 36.2944 32.8832 36.4828 32.8304C36.4078 32.8 36.3424 32.7577 36.2899 32.6974C36.2683 32.6736 36.2477 32.6468 36.2309 32.6165C36.1829 32.5322 36.1646 32.4428 36.1763 32.3511L36.188 32.284C36.2319 32.1174 36.4736 31.9267 36.868 31.8123C37.1154 31.7392 37.4777 31.6579 37.9318 31.5867C39.8399 31.2935 43.4209 31.2306 47.2036 33.1272C51.7416 35.401 53.6471 38.8046 54.3396 40.6446C54.4849 41.0317 54.5802 41.3565 54.6332 41.5875C54.662 41.7126 54.6749 41.829 54.6782 41.9326C54.7121 42.0612 54.6871 42.2029 54.6004 42.3148L54.591 42.328C54.4958 42.4413 54.3633 42.4989 54.2129 42.4858L54.1773 42.4818C53.9514 42.4442 53.8147 42.2667 53.6986 42.0236C53.603 42.1428 53.4456 42.2075 53.2842 42.1819C52.9102 42.1192 52.6597 41.9817 52.4812 41.8144C52.376 41.996 52.1562 42.1033 51.7556 42.0973L51.7236 42.097C51.5406 42.0895 51.4013 42.0485 51.243 41.9139L51.177 41.8515C51.0986 42.0458 50.8918 42.203 50.4982 42.3129C50.3705 42.3479 50.2565 42.3778 50.1782 42.3956C50.1336 42.4062 50.0898 42.4138 50.0484 42.418C49.9147 42.4512 49.7686 42.4215 49.6585 42.3306C49.6173 42.53 49.4546 42.6984 49.1139 42.8209C48.8706 42.9092 48.6616 42.8686 48.4746 42.762C48.4841 42.9686 48.2485 43.245 47.9755 43.4397C47.7647 43.5903 47.5084 43.7387 47.3814 43.7606C47.2756 43.7789 47.1236 43.74 46.9646 43.6605C46.9773 43.7002 46.9831 43.7426 46.9866 43.7883L46.9895 43.8471C46.9818 44.1304 46.8282 44.2509 46.5291 44.4877C46.4775 44.5255 46.4212 44.5699 46.2902 44.6779C46.1744 44.7731 46.0155 44.8034 45.8707 44.7561C45.8752 44.816 45.8681 44.8838 45.8501 44.965C45.8057 45.1621 45.6839 45.2815 45.4499 45.5084C45.3492 45.6068 45.2171 45.7337 45.0621 45.8964C44.956 46.0059 44.7974 46.0549 44.6461 46.0203C44.6851 46.1539 44.6614 46.3026 44.5683 46.4199L44.0998 47.0055C43.9958 47.1348 43.821 47.1997 43.6494 47.157L43.4878 47.1213L43.4946 47.1273C43.6101 47.2491 43.6447 47.4326 43.5826 47.6197C43.557 47.6907 43.5119 47.7997 43.4529 47.9039C43.3887 48.0205 43.3011 48.1441 43.1957 48.2404C43.0087 48.4115 42.7762 48.5037 42.4989 48.4128C42.4466 48.3958 42.3832 48.3821 42.313 48.3711C42.5255 48.4573 42.6386 48.5651 42.6798 48.8125C42.7222 49.0583 42.6137 49.2375 42.4066 49.5784L42.2356 49.8668C42.1614 49.9924 42.0262 50.0765 41.8749 50.0838C41.9553 50.2044 41.9735 50.3604 41.9109 50.5028L41.5995 51.2073C41.5409 51.3389 41.4188 51.4395 41.2659 51.463L41.0846 51.49C41.3385 51.7238 41.2783 51.9136 41.1409 52.3046C41.1391 52.3107 41.1347 52.3274 41.1312 52.3323C41.0033 52.6942 40.7808 52.9033 40.5251 53.0386C40.6817 53.1373 40.7641 53.3285 40.7168 53.5174L40.6583 53.7676C40.5514 54.2343 40.507 54.4315 40.1473 54.5615C40.2403 54.6207 40.3053 54.7194 40.3322 54.8752C40.3555 55.0101 40.2803 55.5003 40.2052 55.8227C40.1812 55.9194 40.1593 56.0028 40.1426 56.0577C40.0981 56.1955 40.0308 56.3026 39.9377 56.3693C40.0464 56.4518 40.1158 56.5844 40.1107 56.7313L40.0955 57.2155C40.0985 57.3929 39.9925 57.5616 39.8212 57.6302C40.2231 57.652 40.5612 57.7165 40.6391 57.865C40.7635 57.7944 40.9139 57.7395 41.077 57.6911C40.5989 57.6406 40.2312 57.5725 40.2776 57.1176C40.2868 57.0278 40.2895 56.9593 40.2907 56.9071C40.2989 56.6265 40.3041 56.4969 40.5722 56.3581C40.6589 56.3128 40.7317 56.2973 40.824 56.2929C40.6917 56.242 40.5974 56.1759 40.5185 56.0723C40.3411 55.8354 40.3802 55.658 40.4586 55.3379L40.5079 55.1356C40.5597 54.9054 40.7854 54.7565 41.0196 54.8C41.3214 54.8563 41.555 54.8883 41.7316 54.9012C41.573 54.8158 41.3794 54.7465 41.1832 54.7211L41.1444 54.7148C40.9062 54.6648 40.7555 54.4319 40.8061 54.1947L40.9246 53.6522C40.986 53.4189 41.2277 53.2788 41.462 53.3396C41.5259 53.356 41.6041 53.3801 41.6916 53.407L41.3593 53.191C41.1945 53.0777 41.1214 52.8648 41.1969 52.6709L41.5241 51.8306C41.5482 51.7599 41.5909 51.6962 41.6502 51.644C41.8335 51.4851 42.1125 51.502 42.2718 51.6842C42.3279 51.7483 42.3875 51.8074 42.4459 51.8595L42.3149 51.6478C41.8362 50.9033 41.8726 50.8449 42.3121 50.1081L42.4528 49.8712C42.4831 49.8111 42.529 49.7569 42.5869 49.7136C42.658 49.6623 42.7376 49.6355 42.8195 49.6301C42.7546 49.4981 42.7573 49.3371 42.8418 49.2039L43.4209 48.2825C43.4541 48.2305 43.4983 48.1838 43.5532 48.1483C43.6187 48.1067 43.6901 48.0828 43.7619 48.0776C43.7229 47.9527 43.7419 47.8106 43.824 47.6967L43.9513 47.517C44.232 47.1229 44.3781 46.9169 44.5532 46.8202C44.7297 46.7232 44.859 46.6893 44.9626 46.709C44.9436 46.6327 44.9395 46.5583 44.9529 46.4677C44.9783 46.3115 45.0416 46.2152 45.1595 46.0734L45.1819 46.0435C45.4393 45.7417 45.5802 45.5901 45.9369 45.8047L45.9707 45.8235C46.0278 45.8599 46.0782 45.9076 46.1282 45.9698C45.9771 45.5577 45.8983 45.2777 46.3557 44.8719C46.6228 44.6349 46.8174 44.5334 47.0632 44.6023L47.0646 44.602C47.1382 44.624 47.1986 44.6541 47.2503 44.6929L47.2261 44.4599C47.2093 44.2951 47.2863 44.127 47.4379 44.0372L48.0041 43.6979C48.1517 43.6016 48.3489 43.5994 48.501 43.7062C48.5225 43.7213 48.5429 43.738 48.5618 43.755L48.5562 43.5882C48.5533 43.4195 48.6485 43.2555 48.8112 43.1797C48.9039 43.1362 49.0082 43.0835 49.0925 43.0415C49.4078 42.8815 49.5721 42.7982 49.8302 42.93C49.8654 42.9485 49.8977 42.9675 49.9247 42.9889C49.9339 42.714 50.0998 42.6565 50.6291 42.474L50.8185 42.4094C51.0193 42.3603 51.2219 42.4569 51.3144 42.6304C51.3909 42.4929 51.5064 42.3876 51.6833 42.3353C51.9919 42.2459 52.1874 42.3177 52.3067 42.5039L52.3364 42.4656L52.3378 42.4653C52.3571 42.4504 52.3889 42.4247 52.4293 42.3975C52.4877 42.3483 52.56 42.3127 52.6404 42.2988L52.6559 42.2962C52.7312 42.286 52.8359 42.2868 52.947 42.324C53.0644 42.3645 53.1853 42.4419 53.2766 42.5838C53.3065 42.6307 53.3329 42.6826 53.3534 42.7426L53.3686 42.7212C53.519 42.5318 53.7968 42.4998 53.9868 42.6492L54.4069 42.9787C54.5619 43.085 54.6368 43.2832 54.5763 43.4715L54.5406 43.5847C54.5855 43.5668 54.6344 43.5555 54.6901 43.5502L54.7127 43.5463C55.1353 43.5283 55.3515 44.0651 55.4533 46.1951C55.5193 47.562 55.4512 48.7075 55.1981 49.8677C54.9471 51.0231 54.515 52.1809 53.8519 53.5753C51.9419 57.5855 48.5632 60.1168 46.3384 61.3021C45.7462 61.6169 45.2255 61.8413 44.83 61.9747C44.4896 62.0898 44.2031 62.1306 43.994 62.106C43.9048 62.1026 43.814 62.0734 43.7384 62.0142L43.7162 61.9949C43.594 62.1707 43.51 62.2734 43.3725 62.3608C43.227 62.4524 43.0944 62.484 42.8645 62.5237C41.9431 62.6828 41.7211 62.4318 41.9108 61.932L41.9373 61.8667C41.8752 61.8687 41.8144 61.8618 41.7473 61.8431L41.7091 61.8323C41.4625 61.7505 41.3694 61.5901 41.2001 61.2998L41.0912 61.1147C41.0682 61.0825 41.0487 61.0453 41.0346 61.0058C40.9544 60.7767 41.0755 60.5273 41.3058 60.4471L41.4235 60.4051C41.1961 60.4096 41.0265 60.3781 40.9046 60.3283L40.8527 60.3055C40.6931 60.2231 40.5984 60.1035 40.5523 59.9625C40.5059 59.8201 40.5202 59.6759 40.5775 59.5446C40.6582 59.3643 40.8443 59.1963 41.0383 59.1252C41.1367 59.0894 41.2359 59.0491 41.3317 59.0065L41.0283 58.9996C40.8536 58.998 40.7295 58.9775 40.6174 58.9173C40.4347 58.8186 40.3568 58.6875 40.3229 58.4909C40.3132 58.4347 40.3099 58.3818 40.3118 58.3337C40.1696 58.4363 39.9789 58.5517 39.7298 58.6829C39.6951 58.7005 39.6596 58.7225 39.6247 58.7473C39.655 58.7464 39.6856 58.7469 39.7167 58.7503C40.0773 58.7936 40.1436 58.9759 40.2349 59.3362L40.2363 59.3446C40.2951 59.5673 40.3207 59.6901 40.2669 59.8585C40.2245 59.9916 40.1666 60.0682 40.0744 60.1405C40.1514 60.1402 40.2199 60.1501 40.2798 60.1686L40.326 60.1838C40.4758 60.2433 40.5751 60.3476 40.6311 60.4782C40.6783 60.5916 40.686 60.7117 40.6585 60.8307C40.6355 60.9243 40.5884 61.0221 40.5197 61.1121C40.7797 61.0441 40.8953 61.1919 41.2749 61.699L41.5597 62.0866C41.6095 62.1474 41.6442 62.2224 41.6545 62.3074C41.6859 62.5478 41.5144 62.7669 41.2743 62.7982C39.5577 63.0136 37.807 62.8632 36.0812 62.4192C34.2443 61.9467 32.4303 61.1434 30.7064 60.0961C29.2778 59.2277 27.9716 58.0244 26.8862 56.6441C25.7767 55.2333 24.8923 53.6288 24.3378 51.9993C24.2989 51.8831 24.3083 51.7527 24.3758 51.6384C24.4073 51.5852 24.4475 51.5407 24.494 51.5066C24.3684 51.4271 24.2601 51.3388 24.188 51.224C24.0226 50.9647 24.0209 50.7192 24.2732 50.489C24.1971 50.4602 24.1246 50.4106 24.0527 50.3391C23.876 50.1657 23.8036 49.7632 23.7858 49.4076C23.7792 49.2684 23.7926 49.1273 23.8209 48.9966L23.8108 48.9636C23.7628 48.7694 23.8512 48.5748 24.0148 48.4786C23.9261 48.4867 23.8452 48.4891 23.8458 48.4673L23.838 48.473ZM24.9133 50.0893C24.9101 50.113 24.9039 50.1358 24.896 50.1574C24.9353 50.1578 24.9798 50.1631 25.0309 50.1731C25.0701 50.1808 25.1066 50.1904 25.1441 50.2056C25.1455 50.1215 25.1749 50.0224 25.2388 49.8957C25.2691 49.8355 25.3105 49.7807 25.3671 49.7217C25.2039 49.7441 25.0592 49.6635 24.9311 49.502L24.9342 49.6547C24.9376 49.8262 24.9405 49.9689 24.9133 50.0893ZM25.8938 48.8166C25.896 49.0143 25.883 49.1916 25.8324 49.3363L25.9156 49.2713C26.0181 49.1914 26.1509 49.1612 26.2774 49.1871C26.2544 49.0537 26.2953 48.9121 26.3981 48.8091L26.556 48.6459L26.4477 48.7513C26.396 48.8051 26.3289 48.8456 26.2499 48.8679C26.1251 48.9025 25.9977 48.8797 25.8952 48.8164L25.8938 48.8166ZM28.5245 43.9559C28.5122 43.9609 28.5045 43.9666 28.4984 43.9734C28.5562 43.9461 28.594 43.9295 28.5245 43.9559ZM34.8567 33.3006L34.8652 33.2991C34.8515 33.2538 34.8453 33.2346 34.8567 33.3006ZM41.1377 57.2598C41.1307 57.3376 41.1365 57.3207 41.1494 57.2606L41.1377 57.2598ZM41.845 57.6539C41.8351 57.5964 41.7464 57.6131 41.6237 57.643C41.7586 57.692 41.8625 57.7551 41.845 57.6539ZM48.6653 45.1124C48.6653 45.1124 48.6719 45.1084 48.6738 45.1023C48.6166 45.1165 48.5892 45.1256 48.6653 45.1124ZM39.4339 54.9407C39.4298 54.9255 39.4273 54.9274 39.4269 54.9419L39.4339 54.9407ZM47.7373 41.8495C47.6874 41.8885 47.7266 41.9135 47.7985 41.9431C47.7932 41.8616 47.7899 41.8086 47.7373 41.8495ZM37.6226 32.8086C37.6144 32.7609 37.5704 32.767 37.5063 32.7911C37.5837 32.8443 37.6357 32.8845 37.6226 32.8086ZM37.0208 33.7831C37.0079 33.7087 36.9833 33.7346 36.9485 33.7855C37.0017 33.8327 37.0341 33.8604 37.0208 33.7831Z" fill="white"/>
<path fill-rule="evenodd" clip-rule="evenodd" d="M41.9548 31.4897C43.5427 31.6806 45.3568 32.141 47.2187 33.0798C51.7468 35.3604 53.6499 38.7707 54.342 40.614C54.4872 41.0018 54.5825 41.3272 54.6355 41.5586C54.6644 41.6839 54.6773 41.8005 54.6807 41.9042C54.7145 42.0331 54.6897 42.175 54.6033 42.287L54.594 42.3002C54.4991 42.4136 54.367 42.4712 54.2169 42.458L54.1814 42.454C53.9561 42.4161 53.8196 42.2383 53.7036 41.9947C53.6083 42.114 53.4514 42.1787 53.2904 42.1529C52.9172 42.0899 52.6674 41.9519 52.4891 41.7842C52.3843 41.966 52.1652 42.0734 51.7656 42.067L51.7337 42.0668C51.5512 42.0592 51.4122 42.018 51.2541 41.883L51.1883 41.8205C51.1103 42.015 50.9041 42.1723 50.5115 42.2821C50.3842 42.3171 50.2706 42.3469 50.1925 42.3647C50.1479 42.3753 50.1043 42.3828 50.063 42.3871C49.9296 42.4202 49.7839 42.3903 49.674 42.2992C49.6331 42.4989 49.4709 42.6674 49.1312 42.7898C49.0876 42.806 49.0461 42.8176 49.0053 42.8246C48.2697 38.3031 45.7585 34.1996 41.9581 31.4921L41.9548 31.4897ZM49.0364 43.0467L49.1043 43.0118C49.4187 42.8517 49.5825 42.7684 49.8401 42.9007C49.8752 42.9192 49.9075 42.9383 49.9344 42.9597C49.9434 42.6844 50.1088 42.6269 50.6366 42.4445L50.8255 42.38C51.0257 42.3309 51.2279 42.4279 51.3203 42.6017C51.3965 42.464 51.5116 42.3586 51.6881 42.3064C51.9958 42.2171 52.1908 42.2891 52.31 42.4757L52.3396 42.4373L52.341 42.4371C52.3602 42.4222 52.3919 42.3964 52.4322 42.3692C52.4903 42.32 52.5624 42.2844 52.6427 42.2705L52.6581 42.2679C52.7332 42.2578 52.8377 42.2586 52.9485 42.296C53.0656 42.3366 53.1863 42.4143 53.2775 42.5564C53.3073 42.6034 53.3337 42.6554 53.3542 42.7155L53.3693 42.6941C53.5192 42.5045 53.7963 42.4726 53.9859 42.6224L54.4052 42.9527C54.5598 43.0593 54.6347 43.2579 54.5745 43.4465L54.539 43.5598C54.5837 43.5419 54.6325 43.5306 54.6881 43.5254L54.7106 43.5215C55.1322 43.5037 55.3482 44.0415 55.4513 46.1749C55.5181 47.5439 55.4509 48.6912 55.1994 49.8529C54.9499 51.0099 54.5196 52.1692 53.8593 53.5652C51.957 57.5803 48.5889 60.113 46.3706 61.2985C45.7801 61.6134 45.2609 61.8377 44.8665 61.971C44.527 62.0861 44.2413 62.1268 44.0327 62.1019C43.9437 62.0985 43.8531 62.0692 43.7777 62.0098L43.7555 61.9904C43.6337 62.1665 43.55 62.2693 43.413 62.3567C43.2679 62.4483 43.1357 62.4799 42.9063 62.5195C41.9874 62.6781 41.7658 62.4266 41.9547 61.9261L41.9811 61.8607C41.9191 61.8627 41.8585 61.8558 41.7915 61.837L41.7534 61.8262C41.5074 61.7441 41.4144 61.5834 41.2454 61.2924L41.1365 61.107C41.1136 61.0747 41.0941 61.0375 41.08 60.9979C40.9998 60.7684 41.1205 60.5187 41.3501 60.4385L41.4675 60.3965C41.2769 60.4005 41.1253 60.3788 41.0101 60.3408C45.354 57.6512 48.3782 53.1179 49.0733 47.8771C49.29 46.2448 49.269 44.6202 49.0348 43.0455L49.0364 43.0467ZM40.6996 60.532C40.726 60.6259 40.727 60.7243 40.7048 60.8222C40.6819 60.916 40.635 61.0139 40.5665 61.104C40.8258 61.036 40.9412 61.1841 41.3202 61.6924L41.6046 62.0807C41.6543 62.1417 41.689 62.2168 41.6993 62.3019C41.7308 62.5428 41.5599 62.762 41.3204 62.7932C39.6083 63.0077 37.862 62.8558 36.1402 62.4099C37.7688 61.9969 39.3005 61.3588 40.6999 60.5334L40.6996 60.532Z" fill="#BABABA"/>
<path opacity="0.82" d="M40.6839 63.8229C37.802 63.9477 32.9298 62.9236 30.5717 61.363C30.2986 61.1819 29.9362 60.9916 29.7688 60.9396C29.1054 60.7319 27.4936 59.4253 26.5803 58.3535C25.7703 57.4054 24.3477 55.1603 23.8096 53.9861C22.1755 50.4238 22.0296 45.2348 23.4613 41.5463C25.5104 36.2645 31.3544 31.3692 37.2877 30.1181C41.3752 29.2564 45.931 29.89 49.4863 32.4157C53.286 35.1144 56.5922 40.4498 56.724 45.4736C56.7975 48.2926 56.263 51.5749 55.238 53.9089C54.6953 55.1425 53.7667 56.5091 52.4703 57.9798C50.2077 60.5491 48.1331 61.9893 45.3096 62.9521C44.4153 63.2582 41.6407 63.7791 40.6853 63.8227L40.6839 63.8229ZM40.8989 61.9004C40.5317 61.4075 40.5856 61.4864 40.0915 61.7176C39.2179 62.127 39.1333 61.3701 40.017 60.9026C40.2888 60.7589 40.3509 60.335 39.7411 60.5963C38.9759 60.9249 37.9737 60.8812 39.6614 59.8183C39.864 59.6909 39.8688 59.677 39.7949 59.3907C39.7085 59.0488 39.6938 59.047 39.2023 59.3182C37.8776 60.0497 38.822 58.5994 39.5116 58.2333C40.1829 57.8776 38.2359 58.0562 38.2359 58.0562C38.1199 58.0098 38.0907 57.7403 38.1902 57.6249L39.6332 57.1619L39.648 56.6552L38.2677 56.7562C38.1088 56.7028 38.0434 56.4077 38.1757 56.3401C38.3356 56.2576 39.5992 55.9225 39.6567 55.9472C39.7033 55.9666 39.8906 55.0255 39.8676 54.8922C39.8419 54.7435 38.2666 55.1571 38.3528 54.7059C38.3947 54.4819 39.4337 54.2303 39.8298 54.1316C40.1514 54.0515 40.118 53.8998 40.2554 53.3531C39.874 53.3453 38.8943 53.4653 39.0931 53.116C39.3387 52.6878 40.4094 52.8945 40.6753 52.1335C40.8432 51.6552 40.8214 51.721 40.0784 51.6196C38.3418 51.382 40.6062 51.0662 41.1523 50.9777L41.4598 50.2744C40.9055 50.1404 40.3279 50.0711 40.284 49.8172C40.2031 49.3486 41.0778 49.5371 41.8021 49.597C42.3135 48.7155 42.3852 48.8144 41.63 48.5836C39.9834 47.9259 41.921 47.7344 42.5758 47.9508C42.8797 48.0515 43.1251 47.4052 43.1072 47.3851C43.0325 47.3027 41.4731 46.9247 41.9898 46.6158C42.2626 46.4532 43.2549 46.5809 43.6837 46.6889L44.1471 46.1047C42.5139 45.124 43.1966 44.9512 44.6609 45.5537C45.5056 44.6682 45.5185 44.9014 44.9011 44.4605C44.2165 43.9718 43.9896 43.2496 45.9132 44.3031C46.6094 43.7249 46.6296 43.8832 45.9397 43.3059C45.1207 42.6224 45.7175 42.3937 46.7181 43.0372C46.9465 43.1842 47.1653 43.301 47.1974 43.2954C47.3232 43.2737 47.9312 42.835 47.9208 42.7747C47.8748 42.5081 47.0256 41.733 47.3604 41.4715C47.7904 41.1357 48.3399 42.5593 48.8411 42.3774C49.6609 42.0813 48.1394 41.4395 48.507 41.0091C48.6829 40.8025 48.8341 40.9108 49.808 41.9663C49.8167 41.9749 50.0116 41.9283 50.2437 41.8637C51.2243 41.5903 49.9984 41.0681 50.0063 40.5639C50.0134 40.1798 50.6526 40.5636 51.1205 41.2312C51.3486 41.5602 51.4293 41.6272 51.5916 41.6338C52.5714 41.6641 51.2516 40.7318 51.8988 40.62C52.4104 40.5317 52.1765 41.5531 53.1937 41.7257C53.0608 41.2141 52.8495 40.7073 53.0449 40.5551C53.5232 40.1821 53.851 41.9893 54.0791 42.0265C54.2035 42.0469 53.1481 36.6668 46.891 33.4994C41.4746 30.7576 36.5058 32.2092 36.5938 32.3689C36.6771 32.5177 37.9616 32.3292 38.0256 32.6996C38.1045 33.1569 36.5325 33.0975 36.3902 33.307C36.1836 33.6114 37.3657 33.3047 37.4292 33.6723C37.5299 34.2559 35.9012 33.8349 36.0235 34.5434C36.0446 34.6655 37.246 34.6459 36.9294 35.0964C36.8751 35.1737 35.8557 35.5389 35.7799 35.5087C35.7488 35.4953 35.2393 36.2796 35.6649 36.118C36.2902 35.88 37.3129 36.5761 35.2228 36.7592L34.8971 37.532C35.8596 37.4713 36.6643 38.0967 34.5609 38.2778C34.1568 39.0641 34.0244 39.1809 34.3641 39.1223C34.8407 39.04 35.9761 39.7383 33.6765 39.959C33.2119 40.7529 33.1196 40.8021 33.4635 40.7427C34.2406 40.6085 35.2798 41.3668 32.862 41.3609L32.2328 42.319C33.3117 42.2816 33.6735 43.0599 31.772 43.0097C30.6661 44.5832 31.4934 43.5808 32.1751 44.0107C32.2945 44.0854 32.6742 44.7841 31.3676 44.5777C30.8542 44.4973 30.7348 44.4977 30.6511 44.58C30.5079 44.7261 29.8939 45.5632 29.9182 45.5792L30.8563 45.9518C31.0423 46.2621 31.0084 46.8748 29.911 46.3881L29.4026 46.1609L28.8517 46.8137C29.2972 46.9766 30.0445 47.1943 29.757 47.647C29.6117 47.8729 29.3176 47.8702 28.8028 47.6398C28.2319 47.3844 28.2946 47.4141 27.7915 48.0181C28.4508 48.3103 28.4723 48.2517 28.6713 48.5785C28.6713 48.5785 28.8019 49.2769 27.7811 48.8088C27.1636 48.5253 27.3511 48.4857 26.804 49.0439C28.0492 49.9948 27.5088 50.3915 26.2857 49.5437C25.6546 50.0398 25.6143 50.0482 25.8932 50.1879C27.1145 50.8006 26.707 51.417 25.6096 50.8133C24.9447 50.447 25.0799 50.4714 24.7921 50.6554C24.1215 51.0818 25.9714 51.2912 25.7622 51.9226C25.6439 52.2796 25.132 51.9403 24.8635 51.7859C25.9222 54.9087 28.2256 57.9452 30.9997 59.6479C34.2341 61.6322 37.7914 62.7273 41.1928 62.3019L40.8978 61.902L40.8989 61.9004ZM43.3283 61.6645C43.7178 61.0858 43.9178 61.4356 43.9428 61.5801C44.0234 62.0472 50.4215 59.4777 53.3069 53.3537C54.5885 50.6302 54.971 48.8521 54.8404 46.1946C54.6622 42.5442 54.5332 44.4735 53.9926 44.5018C53.5561 44.5252 53.869 43.7112 53.9859 43.3212L53.5471 42.9722C53.2932 44.2859 52.8254 44.4866 52.814 43.1031C52.8099 42.6125 52.5237 42.714 52.5214 42.7173C52.4515 42.8044 52.3124 44.3166 51.9347 44.0466C51.5835 43.7966 52.092 42.6064 51.6563 42.7337C51.2878 42.8421 51.589 44.362 51.0975 44.0828L50.7829 42.8108C50.2391 43.0044 50.2127 42.9685 50.2746 43.3435C50.3985 44.0864 49.9235 45.6204 49.6556 43.9517C49.5154 43.0816 49.6288 43.1964 48.8764 43.5488C48.8932 44.2466 49.0079 45.4447 48.6333 45.5094C48.2028 45.5837 48.3686 44.2013 48.1339 44.0338L47.5575 44.3804C47.8391 46.9872 47.1284 46.1058 46.9723 45.2847C46.9039 44.9223 46.8434 44.9053 46.5529 45.165C46.0814 45.5859 46.7204 45.8353 46.6256 46.8702C46.6089 47.0407 46.3734 47.4021 45.9427 46.6168C45.6364 46.06 45.6301 46.0567 45.4343 46.2899C45.2755 46.4791 45.2703 46.5075 45.3715 46.7183C45.7212 47.4598 45.7503 48.9876 44.9552 47.4418C44.723 46.9892 44.7544 47.004 44.113 47.9079C45.2359 49.4261 44.832 50.2716 44.2309 49.2413L43.728 48.4713L43.1555 49.3908C43.5182 49.8656 44.4238 51.0341 43.736 51.0691C43.4833 51.0809 43.0718 50.4065 42.7908 50.0215C42.3441 50.8023 42.255 50.77 42.6336 51.362C43.6002 52.8753 42.5541 52.6774 41.8953 51.9214L41.5661 52.7743C41.9383 53.0293 42.7706 53.5314 42.7834 53.772C42.8084 54.2589 41.729 53.8182 41.3111 53.7068L41.1997 54.2288C42.2981 54.3715 43.4221 55.654 40.9046 55.1712C40.7606 55.813 40.659 55.7828 41.499 55.9629C42.4601 56.1683 42.5957 56.587 41.5312 56.658C40.5351 56.7245 40.7481 56.5072 40.6877 57.0998C40.6739 57.2366 42.1906 57.1755 42.2497 57.5179C42.3272 57.9668 40.6711 57.971 40.7375 58.3554C40.7571 58.469 40.8114 58.5001 41.0104 58.5019C43.0554 58.5245 42.0056 59.1637 41.1687 59.4772C40.8902 59.5816 40.6703 60.0588 41.8053 59.8629C42.6006 59.7255 43.117 60.2071 41.426 60.801C41.8238 61.4547 41.7232 61.5053 42.4083 61.1298C43.4365 60.5651 43.5473 61.1485 42.7132 61.6782C42.2879 61.9496 42.0226 62.1557 42.7537 62.0295C43.0989 61.9699 43.1351 61.9463 43.3295 61.6628L43.3283 61.6645ZM24.5981 49.9405C24.6593 49.8779 24.4926 48.5703 24.7984 48.1823C25.2176 47.6505 25.2022 49.3956 25.4967 49.167C25.7074 49.0035 25.3115 47.3439 25.7072 47.1095C25.9839 46.9447 26.0316 47.6631 26.2309 48.3757C26.5672 48.0388 26.5689 48.1324 26.4506 47.4218C26.2199 46.0356 26.6706 45.3944 26.9635 46.4072L27.2214 47.2092C27.5161 46.907 27.5276 46.9902 27.4731 46.1574C27.3717 44.5943 27.744 44.033 28.0534 45.3247C28.2115 45.9822 28.2473 45.9977 28.4517 45.7226C28.7521 45.3197 28.044 43.636 28.4425 43.4848C28.8101 43.3462 28.9206 44.2446 29.1259 44.8333C29.3821 44.4914 29.3925 44.5936 29.24 43.5682C28.9609 41.6847 29.6819 42.3592 29.7557 42.7871L29.9849 43.6144L30.3971 43.0419C30.2993 42.4751 29.8855 40.8706 30.4434 41.0589C31.1939 41.3122 30.783 42.5924 31.3198 41.6661C31.5828 41.2133 31.546 41.4508 31.3715 40.565C31.0907 39.1384 31.662 39.6797 31.8242 40.0938C32.0326 40.6257 31.9802 40.5971 32.4423 39.7805C32.2562 39.3446 31.8723 38.6047 31.9996 38.4252C32.2486 38.0745 32.6376 38.7023 32.8639 39.0042C33.3585 38.0418 33.3463 38.213 32.8461 37.7416C32.4284 37.3485 32.2762 36.7752 33.5814 37.5237L33.8125 36.8943C33.1784 36.1731 33.0254 35.9871 33.0137 35.9198C32.9973 35.8244 33.1412 35.6074 33.2306 35.5919L34.1531 36.1579C34.459 35.3784 34.5116 35.4329 34.027 35.2854C33.1773 35.0247 33.6596 34.6163 34.5743 34.8037C34.5893 34.8069 35.0804 34.2916 34.4725 34.2809C33.9802 34.272 33.5472 33.9654 34.4915 33.824C35.7094 33.6412 34.4652 33.5714 34.4255 33.3413C34.3441 32.8699 35.1463 33.1056 35.2572 32.773C35.4794 32.109 31.4483 34.5314 30.2502 35.5459C29.1851 36.4464 27.8103 37.88 26.8967 39.0418C23.9599 42.7836 24.5091 49.4083 24.3546 48.8051C24.3101 48.6307 24.2872 50.2571 24.5958 49.9438L24.5981 49.9405Z" fill="black"/>
</svg>
