<svg width="51" height="48" viewBox="0 0 51 48" fill="none" xmlns="http://www.w3.org/2000/svg">
<path d="M48.025 2.00781L28.8867 15.849L32.4456 7.69195L48.025 2.00781Z" fill="#E17726" stroke="#E17726" stroke-width="0.25" stroke-linecap="round" stroke-linejoin="round"/>
<path d="M3.87891 2.00781L22.8468 15.9782L19.4583 7.69194L3.87891 2.00781Z" fill="#E27625" stroke="#E27625" stroke-width="0.25" stroke-linecap="round" stroke-linejoin="round"/>
<path d="M41.1331 34.1016L36.041 41.705L46.9447 44.6394L50.0682 34.2678L41.1331 34.1016Z" fill="#E27625" stroke="#E27625" stroke-width="0.25" stroke-linecap="round" stroke-linejoin="round"/>
<path d="M1.85547 34.2678L4.95997 44.6394L15.8448 41.705L10.7715 34.1016L1.85547 34.2678Z" fill="#E27625" stroke="#E27625" stroke-width="0.25" stroke-linecap="round" stroke-linejoin="round"/>
<path d="M15.2573 21.2554L12.2285 25.7215L23.0186 26.2014L22.659 14.8516L15.2573 21.2554Z" fill="#E27625" stroke="#E27625" stroke-width="0.25" stroke-linecap="round" stroke-linejoin="round"/>
<path d="M36.6479 21.2596L29.1328 14.7266L28.8867 26.2056L39.6767 25.7257L36.6479 21.2596Z" fill="#E27625" stroke="#E27625" stroke-width="0.25" stroke-linecap="round" stroke-linejoin="round"/>
<path d="M15.8438 41.7072L22.3745 38.6253L16.7524 34.3438L15.8438 41.7072Z" fill="#E27625" stroke="#E27625" stroke-width="0.25" stroke-linecap="round" stroke-linejoin="round"/>
<path d="M29.5293 38.6253L36.0411 41.7072L35.1514 34.3438L29.5293 38.6253Z" fill="#E27625" stroke="#E27625" stroke-width="0.25" stroke-linecap="round" stroke-linejoin="round"/>
<path d="M36.0411 41.7069L29.5293 38.625L30.0593 42.7589L30.0024 44.5121L36.0411 41.7069Z" fill="#D5BFB2" stroke="#D5BFB2" stroke-width="0.25" stroke-linecap="round" stroke-linejoin="round"/>
<path d="M15.8438 41.7069L21.9014 44.5121L21.8635 42.7589L22.3745 38.625L15.8438 41.7069Z" fill="#D5BFB2" stroke="#D5BFB2" stroke-width="0.25" stroke-linecap="round" stroke-linejoin="round"/>
<path d="M22.0156 31.6103L16.6016 30.0601L20.4254 28.3438L22.0156 31.6103Z" fill="#233447" stroke="#233447" stroke-width="0.25" stroke-linecap="round" stroke-linejoin="round"/>
<path d="M29.8906 31.6103L31.4808 28.3438L35.3236 30.0601L29.8906 31.6103Z" fill="#233447" stroke="#233447" stroke-width="0.25" stroke-linecap="round" stroke-linejoin="round"/>
<path d="M15.8427 41.705L16.7893 34.1016L10.7695 34.2678L15.8427 41.705Z" fill="#CC6228" stroke="#CC6228" stroke-width="0.25" stroke-linecap="round" stroke-linejoin="round"/>
<path d="M35.1133 34.1016L36.0409 41.705L41.133 34.2678L35.1133 34.1016Z" fill="#CC6228" stroke="#CC6228" stroke-width="0.25" stroke-linecap="round" stroke-linejoin="round"/>
<path d="M39.6767 25.7188L28.8867 26.1986L29.89 31.606L31.4801 28.3394L35.3229 30.0557L39.6767 25.7188Z" fill="#CC6228" stroke="#CC6228" stroke-width="0.25" stroke-linecap="round" stroke-linejoin="round"/>
<path d="M16.6013 30.0557L20.4252 28.3394L22.0153 31.606L23.0186 26.1986L12.2285 25.7188L16.6013 30.0557Z" fill="#CC6228" stroke="#CC6228" stroke-width="0.25" stroke-linecap="round" stroke-linejoin="round"/>
<path d="M12.2285 25.7188L16.7528 34.3373L16.6013 30.0557L12.2285 25.7188Z" fill="#E27525" stroke="#E27525" stroke-width="0.25" stroke-linecap="round" stroke-linejoin="round"/>
<path d="M35.3246 30.0557L35.1543 34.3373L39.6786 25.7188L35.3246 30.0557Z" fill="#E27525" stroke="#E27525" stroke-width="0.25" stroke-linecap="round" stroke-linejoin="round"/>
<path d="M23.019 26.2031L22.0156 31.6105L23.2839 37.9959L23.5679 29.5804L23.019 26.2031Z" fill="#E27525" stroke="#E27525" stroke-width="0.25" stroke-linecap="round" stroke-linejoin="round"/>
<path d="M28.8875 26.2031L28.3574 29.5621L28.6225 37.9959L29.8908 31.6105L28.8875 26.2031Z" fill="#E27525" stroke="#E27525" stroke-width="0.25" stroke-linecap="round" stroke-linejoin="round"/>
<path d="M29.8894 31.6128L28.6211 37.9981L29.5298 38.6256L35.152 34.3441L35.3223 30.0625L29.8894 31.6128Z" fill="#F5841F" stroke="#F5841F" stroke-width="0.25" stroke-linecap="round" stroke-linejoin="round"/>
<path d="M16.6016 30.0625L16.7531 34.3441L22.3752 38.6256L23.2839 37.9981L22.0156 31.6128L16.6016 30.0625Z" fill="#F5841F" stroke="#F5841F" stroke-width="0.25" stroke-linecap="round" stroke-linejoin="round"/>
<path d="M30.0032 44.5161L30.0599 42.7629L29.5678 42.3568H22.3366L21.8633 42.7629L21.9012 44.5161L15.8436 41.7109L17.9637 43.4088L22.2608 46.3063H29.6245L33.9406 43.4088L36.0418 41.7109L30.0032 44.5161Z" fill="#C0AC9D" stroke="#C0AC9D" stroke-width="0.25" stroke-linecap="round" stroke-linejoin="round"/>
<path d="M29.5299 38.6196L28.6212 37.9922H23.283L22.3744 38.6196L21.8633 42.7536L22.3366 42.3475H29.5678L30.06 42.7536L29.5299 38.6196Z" fill="#161616" stroke="#161616" stroke-width="0.25" stroke-linecap="round" stroke-linejoin="round"/>
<path d="M48.8378 16.7533L50.4469 9.11297L48.0238 2.00781L29.5293 15.3877L36.6469 21.2563L46.6987 24.1169L48.9135 21.5886L47.9482 20.9057L49.4814 19.5401L48.3078 18.6542L49.8411 17.51L48.8378 16.7533Z" fill="#763E1A" stroke="#763E1A" stroke-width="0.25" stroke-linecap="round" stroke-linejoin="round"/>
<path d="M1.45703 9.11297L3.08501 16.7533L2.04387 17.51L3.59612 18.6542L2.42246 19.5401L3.95578 20.9057L2.99035 21.5886L5.20517 24.1169L15.257 21.2563L22.3746 15.3877L3.88007 2.00781L1.45703 9.11297Z" fill="#763E1A" stroke="#763E1A" stroke-width="0.25" stroke-linecap="round" stroke-linejoin="round"/>
<path d="M46.7016 24.1183L36.6498 21.2578L39.6786 25.724L35.1543 34.3423L41.1362 34.2686H50.0711L46.7016 24.1183Z" fill="#F5841F" stroke="#F5841F" stroke-width="0.25" stroke-linecap="round" stroke-linejoin="round"/>
<path d="M15.2578 21.2578L5.20607 24.1183L1.85547 34.2686H10.7715L16.7533 34.3423L12.2291 25.724L15.2578 21.2578Z" fill="#F5841F" stroke="#F5841F" stroke-width="0.25" stroke-linecap="round" stroke-linejoin="round"/>
<path d="M28.8881 26.2057L29.5317 15.391L32.4468 7.69531H19.4609L22.3761 15.391L23.0197 26.2057L23.2658 29.6013L23.2848 37.9984H28.623L28.642 29.6013L28.8881 26.2057Z" fill="#F5841F" stroke="#F5841F" stroke-width="0.25" stroke-linecap="round" stroke-linejoin="round"/>
</svg>
