<svg width="21" height="21" viewBox="0 0 21 21" fill="none" xmlns="http://www.w3.org/2000/svg">
<g clip-path="url(#clip0_1_2539)">
<path d="M18.7949 1.48525C18.7949 1.48525 20.6451 0.792676 20.4909 2.47464C20.4395 3.16722 19.977 5.59121 19.6172 8.21311L18.3838 15.9798C18.3838 15.9798 18.281 17.1176 17.3559 17.3155C16.4308 17.5134 15.0432 16.6229 14.7862 16.425C14.5807 16.2766 10.9318 14.0505 9.64696 12.9622C9.2872 12.6654 8.87605 12.0717 9.69834 11.3791L15.0946 6.43222C15.7113 5.83857 16.3281 4.45343 13.7584 6.1354L6.56339 10.835C6.56339 10.835 5.7411 11.3297 4.19934 10.8845L0.858772 9.89507C0.858772 9.89507 -0.374662 9.15304 1.73245 8.41096C6.87177 6.08589 13.1931 3.71135 18.7949 1.48525Z" fill="#1A243B"/>
</g>
<defs>
<clipPath id="clip0_1_2539">
<rect width="20" height="20" fill="white" transform="translate(0.5 0.343994)"/>
</clipPath>
</defs>
</svg>
