<svg width="79" height="50" viewBox="0 0 79 50" fill="none" xmlns="http://www.w3.org/2000/svg">
<path d="M5.72391 0.500875H73.2761L73.9989 0.50086C76.4848 0.500758 78.5 2.51578 78.5 5.0017V45C78.5 47.4853 76.4858 49.5 74.0005 49.5H73.9992H73.9978H73.9964H73.995H73.9936H73.9922H73.9908H73.9894H73.988H73.9866H73.9852H73.9839H73.9825H73.9811H73.9797H73.9783H73.9769H73.9755H73.9741H73.9727H73.9713H73.9699H73.9685H73.9671H73.9658H73.9644H73.963H73.9616H73.9602H73.9588H73.9574H73.956H73.9546H73.9532H73.9518H73.9504H73.949H73.9476H73.9462H73.9448H73.9435H73.9421H73.9407H73.9393H73.9379H73.9365H73.9351H73.9337H73.9323H73.9309H73.9295H73.9281H73.9267H73.9253H73.9239H73.9225H73.9211H73.9197H73.9183H73.9169H73.9155H73.9141H73.9127H73.9113H73.9099H73.9085H73.9072H73.9058H73.9044H73.903H73.9016H73.9002H73.8988H73.8974H73.896H73.8946H73.8932H73.8918H73.8904H73.889H73.8876H73.8862H73.8848H73.8834H73.882H73.8806H73.8792H73.8778H73.8764H73.875H73.8736H73.8722H73.8708H73.8694H73.868H73.8666H73.8652H73.8638H73.8624H73.861H73.8596H73.8582H73.8568H73.8554H73.854H73.8526H73.8512H73.8498H73.8484H73.847H73.8456H73.8442H73.8428H73.8414H73.84H73.8386H73.8372H73.8358H73.8344H73.8329H73.8316H73.8301H73.8287H73.8273H73.8259H73.8245H73.8231H73.8217H73.8203H73.8189H73.8175H73.8161H73.8147H73.8133H73.8119H73.8105H73.8091H73.8077H73.8063H73.8049H73.8035H73.8021H73.8007H73.7993H73.7979H73.7964H73.795H73.7936H73.7922H73.7908H73.7894H73.788H73.7866H73.7852H73.7838H73.7824H73.781H73.7796H73.7782H73.7768H73.7754H73.774H73.7726H73.7711H73.7697H73.7683H73.7669H73.7655H73.7641H73.7627H73.7613H73.7599H73.7585H73.7571H73.7557H73.7543H73.7528H73.7514H73.75H73.7486H73.7472H73.7458H73.7444H73.743H73.7416H73.7402H73.7388H73.7374H73.7359H73.7345H73.7331H73.7317H73.7303H73.7289H73.7275H73.7261H73.7247H73.7233H73.7218H73.7204H73.719H73.7176H73.7162H73.7148H73.7134H73.712H73.7106H73.7092H73.7077H73.7063H73.7049H73.7035H73.7021H73.7007H73.6993H73.6979H73.6964H73.695H73.6936H73.6922H73.6908H73.6894H73.688H73.6866H73.6852H73.6837H73.6823H73.6809H73.6795H73.6781H73.6767H73.6753H73.6739H73.6724H73.671H73.6696H73.6682H73.6668H73.6654H73.664H73.6625H73.6611H73.6597H73.6583H73.6569H73.6555H73.6541H73.6526H73.6512H73.6498H73.6484H73.647H73.6456H73.6441H73.6427H73.6413H73.6399H73.6385H73.6371H73.6357H73.6342H73.6328H73.6314H73.63H73.6286H73.6272H73.6257H73.6243H73.6229H73.6215H73.6201H73.6187H73.6172H73.6158H73.6144H73.613H73.6116H73.6102H73.6087H73.6073H73.6059H73.6045H73.6031H73.6017H73.6002H73.5988H73.5974H73.596H73.5946H73.5931H73.5917H73.5903H73.5889H73.5875H73.5861H73.5846H73.5832H73.5818H73.5804H73.579H73.5775H73.5761H73.5747H73.5733H73.5719H73.5704H73.569H73.5676H73.5662H73.5648H73.5633H73.5619H73.5605H73.5591H73.5577H73.5562H73.5548H73.5534H73.552H73.5505H73.5491H73.5477H73.5463H73.5449H73.5434H73.542H73.5406H73.5392H73.5378H73.5363H73.5349H73.5335H73.5321H73.5306H73.5292H73.5278H73.5264H73.525H73.5235H73.5221H73.5207H73.5193H73.5178H73.5164H73.515H73.5136H73.5121H73.5107H73.5093H73.5079H73.5064H73.505H73.5036H73.5022H73.5008H73.4993H73.4979H73.4965H73.4951H73.4936H73.4922H73.4908H73.4894H73.4879H73.4865H73.4851H73.4837H73.4822H73.4808H73.4794H73.478H73.4765H73.4751H73.4737H73.4723H73.4708H73.4694H73.468H73.4665H73.4651H73.4637H73.4623H73.4608H73.4594H73.458H73.4566H73.4551H73.4537H73.4523H73.4509H73.4494H73.448H73.4466H73.4451H73.4437H73.4423H73.4409H73.4394H73.438H73.4366H73.4351H73.4337H73.4323H73.4309H73.4294H73.428H73.4266H73.4251H73.4237H73.4223H73.4209H73.4194H73.418H73.4166H73.4151H73.4137H73.4123H73.4109H73.4094H73.408H73.4066H73.4051H73.4037H73.4023H73.4008H73.3994H73.398H73.3966H73.3951H73.3937H73.3923H73.3908H73.3894H73.388H73.3865H73.3851H73.3837H73.3822H73.3808H73.3794H73.3779H73.3765H73.3751H73.3736H73.3722H73.3708H73.3694H73.3679H73.3665H73.3651H73.3636H73.3622H73.3608H73.3593H73.3579H73.3565H73.355H73.3536H73.3522H73.3507H73.3493H73.3479H73.3464H73.345H73.3436H73.3421H73.3407H73.3393H73.3378H73.3364H73.335H73.3335H73.3321H73.3307H73.3292H73.3278H73.3264H73.3249H73.3235H73.3221H73.3206H73.3192H73.3177H73.3163H73.3149H73.3134H73.312H73.3106H73.3091H73.3077H73.3063H73.3048H73.3034H73.302H73.3005H73.2991H73.2976H73.2962H73.2948H73.2933H73.2919H73.2905H73.289H73.2876H73.2862H73.2847H73.2833H73.2818H73.2804H73.279H73.2775H73.2761H5.72391H5.72247H5.72104H5.7196H5.71816H5.71673H5.71529H5.71385H5.71242H5.71098H5.70954H5.70811H5.70667H5.70523H5.7038H5.70236H5.70092H5.69949H5.69805H5.69661H5.69518H5.69374H5.69231H5.69087H5.68944H5.688H5.68657H5.68513H5.68369H5.68226H5.68082H5.67939H5.67795H5.67652H5.67509H5.67365H5.67222H5.67078H5.66935H5.66791H5.66648H5.66504H5.66361H5.66218H5.66074H5.65931H5.65787H5.65644H5.65501H5.65357H5.65214H5.65071H5.64927H5.64784H5.64641H5.64497H5.64354H5.64211H5.64068H5.63924H5.63781H5.63638H5.63495H5.63351H5.63208H5.63065H5.62922H5.62778H5.62635H5.62492H5.62349H5.62206H5.62063H5.61919H5.61776H5.61633H5.6149H5.61347H5.61204H5.61061H5.60918H5.60775H5.60631H5.60488H5.60345H5.60202H5.60059H5.59916H5.59773H5.5963H5.59487H5.59344H5.59201H5.59058H5.58915H5.58772H5.58629H5.58486H5.58343H5.58201H5.58058H5.57915H5.57772H5.57629H5.57486H5.57343H5.572H5.57057H5.56914H5.56772H5.56629H5.56486H5.56343H5.562H5.56058H5.55915H5.55772H5.55629H5.55486H5.55344H5.55201H5.55058H5.54915H5.54773H5.5463H5.54487H5.54345H5.54202H5.54059H5.53917H5.53774H5.53631H5.53489H5.53346H5.53203H5.53061H5.52918H5.52775H5.52633H5.5249H5.52348H5.52205H5.52063H5.5192H5.51777H5.51635H5.51492H5.5135H5.51207H5.51065H5.50922H5.5078H5.50637H5.50495H5.50352H5.5021H5.50068H5.49925H5.49783H5.4964H5.49498H5.49356H5.49213H5.49071H5.48928H5.48786H5.48644H5.48501H5.48359H5.48217H5.48074H5.47932H5.4779H5.47647H5.47505H5.47363H5.47221H5.47078H5.46936H5.46794H5.46652H5.46509H5.46367H5.46225H5.46083H5.45941H5.45798H5.45656H5.45514H5.45372H5.4523H5.45088H5.44946H5.44803H5.44661H5.44519H5.44377H5.44235H5.44093H5.43951H5.43809H5.43667H5.43525H5.43383H5.43241H5.43099H5.42957H5.42815H5.42673H5.42531H5.42389H5.42247H5.42105H5.41963H5.41821H5.41679H5.41537H5.41395H5.41254H5.41112H5.4097H5.40828H5.40686H5.40544H5.40402H5.40261H5.40119H5.39977H5.39835H5.39693H5.39552H5.3941H5.39268H5.39126H5.38985H5.38843H5.38701H5.38559H5.38418H5.38276H5.38134H5.37993H5.37851H5.37709H5.37568H5.37426H5.37284H5.37143H5.37001H5.36859H5.36718H5.36576H5.36435H5.36293H5.36152H5.3601H5.35868H5.35727H5.35585H5.35444H5.35302H5.35161H5.35019H5.34878H5.34736H5.34595H5.34453H5.34312H5.34171H5.34029H5.33888H5.33746H5.33605H5.33464H5.33322H5.33181H5.33039H5.32898H5.32757H5.32615H5.32474H5.32333H5.32192H5.3205H5.31909H5.31768H5.31626H5.31485H5.31344H5.31203H5.31061H5.3092H5.30779H5.30638H5.30497H5.30355H5.30214H5.30073H5.29932H5.29791H5.2965H5.29508H5.29367H5.29226H5.29085H5.28944H5.28803H5.28662H5.28521H5.2838H5.28239H5.28098H5.27957H5.27816H5.27675H5.27534H5.27393H5.27252H5.27111H5.2697H5.26829H5.26688H5.26547H5.26406H5.26265H5.26124H5.25983H5.25842H5.25702H5.25561H5.2542H5.25279H5.25138H5.24997H5.24856H5.24716H5.24575H5.24434H5.24293H5.24153H5.24012H5.23871H5.2373H5.2359H5.23449H5.23308H5.23167H5.23027H5.22886H5.22745H5.22605H5.22464H5.22323H5.22183H5.22042H5.21901H5.21761H5.2162H5.2148H5.21339H5.21199H5.21058H5.20917H5.20777H5.20636H5.20496H5.20355H5.20215H5.20074H5.19934H5.19793H5.19653H5.19512H5.19372H5.19232H5.19091H5.18951H5.1881H5.1867H5.1853H5.18389H5.18249H5.18108H5.17968H5.17828H5.17687H5.17547H5.17407H5.17266H5.17126H5.16986H5.16846H5.16705H5.16565H5.16425H5.16285H5.16144H5.16004H5.15864H5.15724H5.15584H5.15443H5.15303H5.15163H5.15023H5.14883H5.14743H5.14603H5.14463H5.14322H5.14182H5.14042H5.13902H5.13762H5.13622H5.13482H5.13342H5.13202H5.13062H5.12922H5.12782H5.12642H5.12502H5.12362H5.12222H5.12082H5.11942H5.11802H5.11662H5.11523H5.11383H5.11243H5.11103H5.10963H5.10823H5.10683H5.10544H5.10404H5.10264H5.10124H5.09984H5.09845H5.09705H5.09565H5.09425H5.09286H5.09146H5.09006H5.08866H5.08727H5.08587H5.08447H5.08308H5.08168H5.08028H5.07889H5.07749H5.07609H5.0747H5.0733H5.07191H5.07051H5.06911H5.06772H5.06632H5.06493H5.06353H5.06214H5.06074H5.05935H5.05795H5.05656H5.05516H5.05377H5.05237H5.05098H5.04959H5.04819H5.0468H5.0454H5.04401H5.04262H5.04122H5.03983H5.03843H5.03704H5.03565H5.03426H5.03286H5.03147H5.03008H5.02868H5.02729H5.0259H5.02451H5.02311H5.02172H5.02033H5.01894H5.01754H5.01615H5.01476H5.01337H5.01198H5.01059H5.00919H5.0078H5.00641H5.00502H5.00363H5.00224H5.00085H4.99946C2.51425 49.5 0.5 47.4853 0.5 45V4.99806C0.5 2.51466 2.51104 0.501279 4.99372 0.500927L5.72391 0.500875Z" fill="#1A243B" stroke="white"/>
<g clip-path="url(#clip0_1_1708)">
<path d="M54.9811 12.7428L56.1816 11.6065L54.4842 10H51.0723L49.375 11.6065L51.0723 13.213H54.4842L54.9811 12.7428Z" fill="white"/>
<path d="M58.5587 13.8565L56.8614 12.25L55.1641 13.8565V17.0858L56.8614 18.6923L58.5587 17.0858V13.8565Z" fill="white"/>
<path d="M50.3947 13.8565L48.6973 12.25L47 13.8565V17.0858L48.6973 18.6923L49.8979 17.5561L50.3947 17.0858V13.8565Z" fill="white"/>
<path d="M54.4842 17.7266H51.0723L49.375 19.3331L51.0723 20.9396H54.4842L56.1816 19.3331L54.4842 17.7266Z" fill="white"/>
<path d="M59.9296 29.0625H56.5176L54.8203 30.669L56.5176 32.2755H59.9296L60.4264 31.8038L61.6253 30.669L59.9296 29.0625Z" fill="white"/>
<path d="M64.0025 36.1483V32.919L62.3051 31.3125L60.6094 32.919V36.1483L62.3051 37.7534L64.0025 36.1483Z" fill="white"/>
<path d="M54.1411 31.3125L52.4453 32.919V36.1483L54.1411 37.7534L55.3416 36.6186L55.8384 36.1483V32.919L54.1411 31.3125Z" fill="white"/>
<path d="M59.9296 36.7891H56.5176L54.8203 38.3956L56.5176 40.0021H59.9296L61.6253 38.3956L59.9296 36.7891Z" fill="white"/>
<path d="M61.0696 21.7383V19.4688H58.6702L52.0234 25.7598V28.0309H54.4229L61.0696 21.7383Z" fill="white"/>
</g>
<path d="M23.7201 36.8906L22.1699 38.4436L23.7201 39.9965H31.8074L33.3562 38.4436L31.8074 36.8906H23.7201Z" fill="white"/>
<path d="M32.4277 27.6701V36.2695L33.9765 37.821L35.5267 36.2695V27.6701L33.9765 26.1172L32.8815 27.2142L32.4277 27.6701Z" fill="white"/>
<path d="M28.6908 23.9453L27.1406 25.4983L28.6908 27.0512H31.8084L33.3571 25.4983L31.8084 23.9453H28.6908Z" fill="white"/>
<path d="M32.4277 14.7248V23.3242L33.9765 24.8771L35.5267 23.3242V14.7248L33.9765 13.1719L32.8815 14.2688L32.4277 14.7248Z" fill="white"/>
<path d="M31.8074 14.1059L33.3562 12.553L31.8074 11H23.7201L22.1699 12.553L23.2664 13.6499L23.7201 14.1059H31.8074Z" fill="white"/>
<path d="M23.1004 17.8465V14.7248L21.5502 13.1719L20 14.7248V17.8465L21.5502 19.3995L23.1004 17.8465Z" fill="white"/>
<path d="M23.1004 36.2762V33.1531L21.5502 31.6016L20 33.1531V36.2762L21.5502 37.8277L23.1004 36.2762Z" fill="white"/>
<defs>
<clipPath id="clip0_1_1708">
<rect width="17" height="30" fill="white" transform="translate(47 10)"/>
</clipPath>
</defs>
</svg>
