<svg width="85" height="50" viewBox="0 0 85 50" fill="none" xmlns="http://www.w3.org/2000/svg">
<path d="M6.15864 0.500875H78.8414L79.999 0.500842C82.4848 0.500703 84.5 2.5157 84.5 5.00158V45C84.5 47.4853 82.4857 49.5 80.0005 49.5H79.9983H79.9961H79.9939H79.9917H79.9895H79.9873H79.9851H79.9829H79.9807H79.9785H79.9763H79.9741H79.9719H79.9697H79.9675H79.9653H79.9631H79.9608H79.9586H79.9564H79.9542H79.952H79.9498H79.9476H79.9454H79.9432H79.941H79.9388H79.9366H79.9344H79.9322H79.9299H79.9277H79.9255H79.9233H79.9211H79.9189H79.9167H79.9145H79.9123H79.91H79.9078H79.9056H79.9034H79.9012H79.899H79.8968H79.8946H79.8923H79.8901H79.8879H79.8857H79.8835H79.8813H79.8791H79.8768H79.8746H79.8724H79.8702H79.868H79.8658H79.8635H79.8613H79.8591H79.8569H79.8547H79.8525H79.8502H79.848H79.8458H79.8436H79.8414H79.8391H79.8369H79.8347H79.8325H79.8303H79.828H79.8258H79.8236H79.8214H79.8192H79.8169H79.8147H79.8125H79.8103H79.808H79.8058H79.8036H79.8014H79.7991H79.7969H79.7947H79.7925H79.7902H79.788H79.7858H79.7836H79.7813H79.7791H79.7769H79.7747H79.7724H79.7702H79.768H79.7657H79.7635H79.7613H79.759H79.7568H79.7546H79.7524H79.7501H79.7479H79.7457H79.7434H79.7412H79.739H79.7367H79.7345H79.7323H79.73H79.7278H79.7256H79.7233H79.7211H79.7189H79.7166H79.7144H79.7122H79.7099H79.7077H79.7055H79.7032H79.701H79.6988H79.6965H79.6943H79.6921H79.6898H79.6876H79.6853H79.6831H79.6809H79.6786H79.6764H79.6741H79.6719H79.6697H79.6674H79.6652H79.6629H79.6607H79.6585H79.6562H79.654H79.6517H79.6495H79.6473H79.645H79.6428H79.6405H79.6383H79.636H79.6338H79.6316H79.6293H79.6271H79.6248H79.6226H79.6203H79.6181H79.6158H79.6136H79.6114H79.6091H79.6069H79.6046H79.6024H79.6001H79.5979H79.5956H79.5934H79.5911H79.5889H79.5866H79.5844H79.5821H79.5799H79.5776H79.5754H79.5731H79.5709H79.5686H79.5664H79.5641H79.5619H79.5596H79.5574H79.5551H79.5529H79.5506H79.5484H79.5461H79.5439H79.5416H79.5394H79.5371H79.5348H79.5326H79.5303H79.5281H79.5258H79.5236H79.5213H79.5191H79.5168H79.5145H79.5123H79.51H79.5078H79.5055H79.5033H79.501H79.4987H79.4965H79.4942H79.492H79.4897H79.4874H79.4852H79.4829H79.4807H79.4784H79.4762H79.4739H79.4716H79.4694H79.4671H79.4648H79.4626H79.4603H79.4581H79.4558H79.4535H79.4513H79.449H79.4467H79.4445H79.4422H79.4399H79.4377H79.4354H79.4332H79.4309H79.4286H79.4264H79.4241H79.4218H79.4196H79.4173H79.415H79.4128H79.4105H79.4082H79.406H79.4037H79.4014H79.3992H79.3969H79.3946H79.3923H79.3901H79.3878H79.3855H79.3833H79.381H79.3787H79.3765H79.3742H79.3719H79.3696H79.3674H79.3651H79.3628H79.3605H79.3583H79.356H79.3537H79.3515H79.3492H79.3469H79.3446H79.3424H79.3401H79.3378H79.3355H79.3333H79.331H79.3287H79.3264H79.3242H79.3219H79.3196H79.3173H79.3151H79.3128H79.3105H79.3082H79.3059H79.3037H79.3014H79.2991H79.2968H79.2945H79.2923H79.29H79.2877H79.2854H79.2831H79.2809H79.2786H79.2763H79.274H79.2718H79.2695H79.2672H79.2649H79.2626H79.2603H79.2581H79.2558H79.2535H79.2512H79.2489H79.2466H79.2444H79.2421H79.2398H79.2375H79.2352H79.2329H79.2306H79.2284H79.2261H79.2238H79.2215H79.2192H79.2169H79.2146H79.2124H79.2101H79.2078H79.2055H79.2032H79.2009H79.1986H79.1963H79.1941H79.1918H79.1895H79.1872H79.1849H79.1826H79.1803H79.178H79.1757H79.1734H79.1712H79.1689H79.1666H79.1643H79.162H79.1597H79.1574H79.1551H79.1528H79.1505H79.1482H79.1459H79.1436H79.1413H79.1391H79.1368H79.1345H79.1322H79.1299H79.1276H79.1253H79.123H79.1207H79.1184H79.1161H79.1138H79.1115H79.1092H79.1069H79.1046H79.1023H79.1H79.0977H79.0954H79.0931H79.0908H79.0885H79.0862H79.0839H79.0816H79.0793H79.077H79.0747H79.0724H79.0701H79.0678H79.0655H79.0632H79.0609H79.0586H79.0563H79.054H79.0517H79.0494H79.0471H79.0448H79.0425H79.0402H79.0379H79.0356H79.0333H79.031H79.0287H79.0264H79.0241H79.0218H79.0195H79.0172H79.0149H79.0126H79.0102H79.0079H79.0056H79.0033H79.001H78.9987H78.9964H78.9941H78.9918H78.9895H78.9872H78.9849H78.9826H78.9802H78.9779H78.9756H78.9733H78.971H78.9687H78.9664H78.9641H78.9618H78.9595H78.9572H78.9548H78.9525H78.9502H78.9479H78.9456H78.9433H78.941H78.9387H78.9363H78.934H78.9317H78.9294H78.9271H78.9248H78.9225H78.9202H78.9178H78.9155H78.9132H78.9109H78.9086H78.9063H78.904H78.9016H78.8993H78.897H78.8947H78.8924H78.8901H78.8877H78.8854H78.8831H78.8808H78.8785H78.8762H78.8738H78.8715H78.8692H78.8669H78.8646H78.8622H78.8599H78.8576H78.8553H78.853H78.8506H78.8483H78.846H78.8437H78.8414H6.15864H6.15632H6.154H6.15168H6.14936H6.14704H6.14472H6.1424H6.14008H6.13776H6.13544H6.13312H6.13081H6.12849H6.12617H6.12385H6.12153H6.11922H6.1169H6.11458H6.11226H6.10995H6.10763H6.10532H6.103H6.10068H6.09837H6.09605H6.09374H6.09142H6.08911H6.08679H6.08448H6.08216H6.07985H6.07754H6.07522H6.07291H6.07059H6.06828H6.06597H6.06366H6.06134H6.05903H6.05672H6.05441H6.0521H6.04978H6.04747H6.04516H6.04285H6.04054H6.03823H6.03592H6.03361H6.0313H6.02899H6.02668H6.02437H6.02206H6.01975H6.01745H6.01514H6.01283H6.01052H6.00821H6.00591H6.0036H6.00129H5.99898H5.99668H5.99437H5.99206H5.98976H5.98745H5.98515H5.98284H5.98054H5.97823H5.97593H5.97362H5.97132H5.96901H5.96671H5.9644H5.9621H5.9598H5.95749H5.95519H5.95289H5.95059H5.94828H5.94598H5.94368H5.94138H5.93908H5.93677H5.93447H5.93217H5.92987H5.92757H5.92527H5.92297H5.92067H5.91837H5.91607H5.91377H5.91147H5.90918H5.90688H5.90458H5.90228H5.89998H5.89768H5.89539H5.89309H5.89079H5.8885H5.8862H5.8839H5.88161H5.87931H5.87701H5.87472H5.87242H5.87013H5.86783H5.86554H5.86324H5.86095H5.85866H5.85636H5.85407H5.85177H5.84948H5.84719H5.8449H5.8426H5.84031H5.83802H5.83573H5.83344H5.83114H5.82885H5.82656H5.82427H5.82198H5.81969H5.8174H5.81511H5.81282H5.81053H5.80824H5.80595H5.80366H5.80137H5.79909H5.7968H5.79451H5.79222H5.78993H5.78765H5.78536H5.78307H5.78079H5.7785H5.77621H5.77393H5.77164H5.76936H5.76707H5.76479H5.7625H5.76022H5.75793H5.75565H5.75336H5.75108H5.7488H5.74651H5.74423H5.74195H5.73966H5.73738H5.7351H5.73282H5.73054H5.72825H5.72597H5.72369H5.72141H5.71913H5.71685H5.71457H5.71229H5.71001H5.70773H5.70545H5.70317H5.70089H5.69861H5.69634H5.69406H5.69178H5.6895H5.68722H5.68495H5.68267H5.68039H5.67812H5.67584H5.67356H5.67129H5.66901H5.66674H5.66446H5.66219H5.65991H5.65764H5.65536H5.65309H5.65082H5.64854H5.64627H5.644H5.64172H5.63945H5.63718H5.63491H5.63263H5.63036H5.62809H5.62582H5.62355H5.62128H5.61901H5.61674H5.61447H5.6122H5.60993H5.60766H5.60539H5.60312H5.60085H5.59858H5.59631H5.59405H5.59178H5.58951H5.58724H5.58498H5.58271H5.58044H5.57818H5.57591H5.57364H5.57138H5.56911H5.56685H5.56458H5.56232H5.56005H5.55779H5.55552H5.55326H5.551H5.54873H5.54647H5.54421H5.54194H5.53968H5.53742H5.53516H5.5329H5.53063H5.52837H5.52611H5.52385H5.52159H5.51933H5.51707H5.51481H5.51255H5.51029H5.50803H5.50577H5.50352H5.50126H5.499H5.49674H5.49448H5.49223H5.48997H5.48771H5.48546H5.4832H5.48094H5.47869H5.47643H5.47418H5.47192H5.46967H5.46741H5.46516H5.4629H5.46065H5.45839H5.45614H5.45389H5.45163H5.44938H5.44713H5.44488H5.44262H5.44037H5.43812H5.43587H5.43362H5.43137H5.42912H5.42687H5.42462H5.42237H5.42012H5.41787H5.41562H5.41337H5.41112H5.40887H5.40662H5.40438H5.40213H5.39988H5.39763H5.39539H5.39314H5.39089H5.38865H5.3864H5.38416H5.38191H5.37967H5.37742H5.37518H5.37293H5.37069H5.36844H5.3662H5.36396H5.36171H5.35947H5.35723H5.35498H5.35274H5.3505H5.34826H5.34602H5.34378H5.34154H5.33929H5.33705H5.33481H5.33257H5.33033H5.32809H5.32586H5.32362H5.32138H5.31914H5.3169H5.31466H5.31243H5.31019H5.30795H5.30571H5.30348H5.30124H5.299H5.29677H5.29453H5.2923H5.29006H5.28783H5.28559H5.28336H5.28112H5.27889H5.27666H5.27442H5.27219H5.26996H5.26772H5.26549H5.26326H5.26103H5.2588H5.25656H5.25433H5.2521H5.24987H5.24764H5.24541H5.24318H5.24095H5.23872H5.23649H5.23426H5.23204H5.22981H5.22758H5.22535H5.22312H5.2209H5.21867H5.21644H5.21422H5.21199H5.20977H5.20754H5.20531H5.20309H5.20086H5.19864H5.19641H5.19419H5.19197H5.18974H5.18752H5.1853H5.18307H5.18085H5.17863H5.17641H5.17419H5.17196H5.16974H5.16752H5.1653H5.16308H5.16086H5.15864H5.15642H5.1542H5.15198H5.14976H5.14754H5.14533H5.14311H5.14089H5.13867H5.13646H5.13424H5.13202H5.1298H5.12759H5.12537H5.12316H5.12094H5.11873H5.11651H5.1143H5.11208H5.10987H5.10765H5.10544H5.10323H5.10101H5.0988H5.09659H5.09438H5.09216H5.08995H5.08774H5.08553H5.08332H5.08111H5.0789H5.07669H5.07448H5.07227H5.07006H5.06785H5.06564H5.06343H5.06122H5.05902H5.05681H5.0546H5.05239H5.05019H5.04798H5.04577H5.04357H5.04136H5.03916H5.03695H5.03475H5.03254H5.03034H5.02813H5.02593H5.02373H5.02152H5.01932H5.01712H5.01491H5.01271H5.01051H5.00831H5.00611H5.00391H5.0017H4.9995C2.51429 49.5 0.5 47.4853 0.5 45V4.99847C0.5 2.51495 2.51132 0.501466 4.99422 0.500989L6.15864 0.500875Z" fill="#1A243B" stroke="white"/>
<path d="M10.5502 11.3672L9 12.9187V23.5112L10.5502 25.0627L12.1004 23.5112V12.9187L10.5502 11.3672Z" fill="white"/>
<path d="M11.1699 25.6843L12.7201 27.2373H20.8074L21.2612 26.7827L22.3562 25.6843L20.8074 24.1328H12.7201L11.1699 25.6843Z" fill="white"/>
<path d="M24.5267 12.9187L22.9765 11.3672L21.4277 12.9187V23.5112L22.9765 25.0627L24.5267 23.5112V12.9187Z" fill="white"/>
<path d="M22.9765 26.3047L21.4277 27.8576V38.4487L22.9765 40.0017L24.5267 38.4487V27.8576L22.9765 26.3047Z" fill="white"/>
<path d="M46.3443 12.553L44.7942 11H34.7187L33.1699 12.553L34.7187 14.1059H44.7942L46.3443 12.553Z" fill="white"/>
<path d="M34.0989 23.3242V14.7248L32.5502 13.1719L31 14.7248V23.3242L32.5502 24.8771L33.6452 23.7787L34.0989 23.3242Z" fill="white"/>
<path d="M42.806 27.0512L44.3562 25.4983L42.806 23.9453H34.7187L33.1699 25.4983L34.7187 27.0512H42.806Z" fill="white"/>
<path d="M34.0989 27.6701L32.5502 26.1172L31 27.6701V36.2695L32.5502 37.8224L33.6452 36.724L34.0989 36.2695V27.6701Z" fill="white"/>
<path d="M34.7187 36.8906L33.1699 38.4436L34.7187 39.9965H42.806L44.3562 38.4436L43.2597 37.3452L42.806 36.8906H34.7187Z" fill="white"/>
<path d="M43.4258 27.6701V36.2695L44.976 37.8224L46.5262 36.2695V27.6701L44.976 26.1172L43.4258 27.6701Z" fill="white"/>
<g clip-path="url(#clip0_1_1832)">
<path d="M59.9811 12.7428L61.1816 11.6065L59.4842 10H56.0723L54.375 11.6065L56.0723 13.213H59.4842L59.9811 12.7428Z" fill="white"/>
<path d="M63.5587 13.8565L61.8614 12.25L60.1641 13.8565V17.0858L61.8614 18.6923L63.5587 17.0858V13.8565Z" fill="white"/>
<path d="M55.3947 13.8565L53.6973 12.25L52 13.8565V17.0858L53.6973 18.6923L54.8979 17.5561L55.3947 17.0858V13.8565Z" fill="white"/>
<path d="M59.4842 17.7266H56.0723L54.375 19.3331L56.0723 20.9396H59.4842L61.1816 19.3331L59.4842 17.7266Z" fill="white"/>
<path d="M64.9296 29.0625H61.5176L59.8203 30.669L61.5176 32.2755H64.9296L65.4264 31.8038L66.6253 30.669L64.9296 29.0625Z" fill="white"/>
<path d="M69.0025 36.1483V32.919L67.3051 31.3125L65.6094 32.919V36.1483L67.3051 37.7534L69.0025 36.1483Z" fill="white"/>
<path d="M59.1411 31.3125L57.4453 32.919V36.1483L59.1411 37.7534L60.3416 36.6186L60.8384 36.1483V32.919L59.1411 31.3125Z" fill="white"/>
<path d="M64.9296 36.7891H61.5176L59.8203 38.3956L61.5176 40.0021H64.9296L66.6253 38.3956L64.9296 36.7891Z" fill="white"/>
<path d="M66.0696 21.7383V19.4688H63.6702L57.0234 25.7598V28.0309H59.4229L66.0696 21.7383Z" fill="white"/>
</g>
<defs>
<clipPath id="clip0_1_1832">
<rect width="17" height="30" fill="white" transform="translate(52 10)"/>
</clipPath>
</defs>
</svg>
