<svg width="179" height="50" viewBox="0 0 179 50" fill="none" xmlns="http://www.w3.org/2000/svg">
<path d="M12.9694 0.500875H166.031C169.032 0.500875 171.8 0.500721 174.002 0.500542C176.487 0.50034 178.5 2.51491 178.5 5.00075V45C178.5 47.4856 176.487 49.5 174.002 49.5H173.989H173.977H173.964H173.951H173.938H173.925H173.912H173.899H173.886H173.873H173.86H173.847H173.834H173.82H173.807H173.794H173.781H173.768H173.755H173.742H173.729H173.715H173.702H173.689H173.676H173.663H173.649H173.636H173.623H173.61H173.596H173.583H173.57H173.556H173.543H173.53H173.516H173.503H173.49H173.476H173.463H173.449H173.436H173.422H173.409H173.395H173.382H173.369H173.355H173.341H173.328H173.314H173.301H173.287H173.274H173.26H173.246H173.233H173.219H173.206H173.192H173.178H173.165H173.151H173.137H173.123H173.11H173.096H173.082H173.068H173.055H173.041H173.027H173.013H172.999H172.986H172.972H172.958H172.944H172.93H172.916H172.902H172.888H172.875H172.861H172.847H172.833H172.819H172.805H172.791H172.777H172.763H172.749H172.735H172.721H172.706H172.692H172.678H172.664H172.65H172.636H172.622H172.608H172.593H172.579H172.565H172.551H172.537H172.522H172.508H172.494H172.48H172.465H172.451H172.437H172.423H172.408H172.394H172.38H172.365H172.351H172.337H172.322H172.308H172.293H172.279H172.265H172.25H172.236H172.221H172.207H172.192H172.178H172.163H172.149H172.134H172.12H172.105H172.091H172.076H172.062H172.047H172.032H172.018H172.003H171.989H171.974H171.959H171.945H171.93H171.915H171.901H171.886H171.871H171.856H171.842H171.827H171.812H171.797H171.783H171.768H171.753H171.738H171.723H171.709H171.694H171.679H171.664H171.649H171.634H171.619H171.604H171.59H171.575H171.56H171.545H171.53H171.515H171.5H171.485H171.47H171.455H171.44H171.425H171.41H171.395H171.38H171.365H171.349H171.334H171.319H171.304H171.289H171.274H171.259H171.244H171.228H171.213H171.198H171.183H171.168H171.152H171.137H171.122H171.107H171.092H171.076H171.061H171.046H171.03H171.015H171H170.985H170.969H170.954H170.938H170.923H170.908H170.892H170.877H170.862H170.846H170.831H170.815H170.8H170.784H170.769H170.754H170.738H170.723H170.707H170.692H170.676H170.661H170.645H170.629H170.614H170.598H170.583H170.567H170.552H170.536H170.52H170.505H170.489H170.474H170.458H170.442H170.427H170.411H170.395H170.38H170.364H170.348H170.332H170.317H170.301H170.285H170.269H170.254H170.238H170.222H170.206H170.191H170.175H170.159H170.143H170.127H170.111H170.096H170.08H170.064H170.048H170.032H170.016H170H169.984H169.968H169.952H169.936H169.921H169.905H169.889H169.873H169.857H169.841H169.825H169.809H169.793H169.777H169.761H169.744H169.728H169.712H169.696H169.68H169.664H169.648H169.632H169.616H169.6H169.584H169.567H169.551H169.535H169.519H169.503H169.487H169.47H169.454H169.438H169.422H169.406H169.389H169.373H169.357H169.341H169.324H169.308H169.292H169.275H169.259H169.243H169.226H169.21H169.194H169.177H169.161H169.145H169.128H169.112H169.096H169.079H169.063H169.046H169.03H169.014H168.997H168.981H168.964H168.948H168.931H168.915H168.898H168.882H168.865H168.849H168.832H168.816H168.799H168.783H168.766H168.75H168.733H168.717H168.7H168.684H168.667H168.65H168.634H168.617H168.601H168.584H168.567H168.551H168.534H168.517H168.501H168.484H168.467H168.451H168.434H168.417H168.401H168.384H168.367H168.35H168.334H168.317H168.3H168.283H168.267H168.25H168.233H168.216H168.199H168.183H168.166H168.149H168.132H168.115H168.099H168.082H168.065H168.048H168.031H168.014H167.997H167.981H167.964H167.947H167.93H167.913H167.896H167.879H167.862H167.845H167.828H167.811H167.794H167.777H167.76H167.743H167.726H167.709H167.692H167.675H167.658H167.641H167.624H167.607H167.59H167.573H167.556H167.539H167.522H167.505H167.488H167.471H167.454H167.437H167.419H167.402H167.385H167.368H167.351H167.334H167.317H167.299H167.282H167.265H167.248H167.231H167.214H167.196H167.179H167.162H167.145H167.128H167.11H167.093H167.076H167.059H167.041H167.024H167.007H166.99H166.972H166.955H166.938H166.92H166.903H166.886H166.868H166.851H166.834H166.817H166.799H166.782H166.764H166.747H166.73H166.712H166.695H166.678H166.66H166.643H166.625H166.608H166.591H166.573H166.556H166.538H166.521H166.504H166.486H166.469H166.451H166.434H166.416H166.399H166.381H166.364H166.346H166.329H166.311H166.294H166.276H166.259H166.241H166.224H166.206H166.189H166.171H166.154H166.136H166.118H166.101H166.083H166.066H166.048H166.031H12.9694H12.9518H12.9342H12.9166H12.8991H12.8815H12.8639H12.8464H12.8288H12.8113H12.7937H12.7762H12.7587H12.7412H12.7236H12.7061H12.6886H12.6711H12.6536H12.6362H12.6187H12.6012H12.5837H12.5663H12.5488H12.5313H12.5139H12.4965H12.479H12.4616H12.4442H12.4267H12.4093H12.3919H12.3745H12.3571H12.3397H12.3223H12.305H12.2876H12.2702H12.2529H12.2355H12.2182H12.2008H12.1835H12.1662H12.1488H12.1315H12.1142H12.0969H12.0796H12.0623H12.045H12.0277H12.0105H11.9932H11.9759H11.9587H11.9414H11.9242H11.9069H11.8897H11.8725H11.8552H11.838H11.8208H11.8036H11.7864H11.7692H11.7521H11.7349H11.7177H11.7006H11.6834H11.6662H11.6491H11.632H11.6148H11.5977H11.5806H11.5635H11.5464H11.5293H11.5122H11.4951H11.478H11.461H11.4439H11.4268H11.4098H11.3927H11.3757H11.3587H11.3416H11.3246H11.3076H11.2906H11.2736H11.2566H11.2396H11.2227H11.2057H11.1887H11.1718H11.1548H11.1379H11.1209H11.104H11.0871H11.0702H11.0533H11.0364H11.0195H11.0026H10.9857H10.9688H10.952H10.9351H10.9183H10.9014H10.8846H10.8678H10.8509H10.8341H10.8173H10.8005H10.7837H10.7669H10.7501H10.7334H10.7166H10.6999H10.6831H10.6664H10.6496H10.6329H10.6162H10.5995H10.5828H10.5661H10.5494H10.5327H10.516H10.4993H10.4827H10.466H10.4494H10.4327H10.4161H10.3995H10.3829H10.3663H10.3497H10.3331H10.3165H10.2999H10.2833H10.2668H10.2502H10.2337H10.2171H10.2006H10.1841H10.1676H10.151H10.1345H10.118H10.1016H10.0851H10.0686H10.0522H10.0357H10.0193H10.0028H9.98639H9.96997H9.95356H9.93715H9.92075H9.90436H9.88798H9.87161H9.85524H9.83888H9.82253H9.80619H9.78986H9.77353H9.75722H9.74091H9.72461H9.70831H9.69203H9.67575H9.65949H9.64323H9.62698H9.61073H9.5945H9.57827H9.56205H9.54584H9.52964H9.51345H9.49726H9.48109H9.46492H9.44876H9.43261H9.41647H9.40033H9.38421H9.36809H9.35198H9.33588H9.31979H9.30371H9.28763H9.27157H9.25551H9.23946H9.22342H9.20739H9.19137H9.17536H9.15935H9.14336H9.12737H9.11139H9.09542H9.07946H9.06351H9.04756H9.03163H9.0157H8.99978H8.98387H8.96797H8.95208H8.9362H8.92033H8.90447H8.88861H8.87277H8.85693H8.8411H8.82528H8.80947H8.79367H8.77788H8.7621H8.74632H8.73056H8.7148H8.69906H8.68332H8.66759H8.65187H8.63616H8.62046H8.60477H8.58909H8.57342H8.55775H8.5421H8.52645H8.51082H8.49519H8.47958H8.46397H8.44837H8.43278H8.4172H8.40163H8.38607H8.37052H8.35498H8.33945H8.32392H8.30841H8.29291H8.27741H8.26193H8.24645H8.23099H8.21553H8.20009H8.18465H8.16922H8.1538H8.1384H8.123H8.10761H8.09223H8.07686H8.06151H8.04616H8.03082H8.01549H8.00017H7.98486H7.96956H7.95427H7.93898H7.92371H7.90845H7.8932H7.87796H7.86273H7.84751H7.8323H7.8171H7.80191H7.78673H7.77155H7.75639H7.74124H7.7261H7.71097H7.69585H7.68074H7.66564H7.65055H7.63547H7.6204H7.60534H7.59029H7.57525H7.56022H7.5452H7.53019H7.51519H7.50021H7.48523H7.47026H7.4553H7.44036H7.42542H7.41049H7.39558H7.38067H7.36578H7.35089H7.33602H7.32116H7.3063H7.29146H7.27663H7.26181H7.247H7.2322H7.21741H7.20263H7.18786H7.1731H7.15836H7.14362H7.12889H7.11418H7.09947H7.08478H7.0701H7.05542H7.04076H7.02611H7.01147H6.99684H6.98222H6.96762H6.95302H6.93843H6.92386H6.90929H6.89474H6.8802H6.86567H6.85115H6.83664H6.82214H6.80765H6.79318H6.77871H6.76426H6.74981H6.73538H6.72096H6.70655H6.69215H6.67776H6.66339H6.64902H6.63467H6.62032H6.60599H6.59167H6.57736H6.56306H6.54878H6.5345H6.52024H6.50598H6.49174H6.47751H6.46329H6.44908H6.43489H6.4207H6.40653H6.39237H6.37822H6.36408H6.34995H6.33583H6.32173H6.30764H6.29355H6.27948H6.26543H6.25138H6.23734H6.22332H6.20931H6.19531H6.18132H6.16734H6.15337H6.13942H6.12548H6.11155H6.09763H6.08372H6.06983H6.05594H6.04207H6.02821H6.01437H6.00053H5.98671H5.97289H5.95909H5.9453H5.93153H5.91776H5.90401H5.89027H5.87654H5.86282H5.84912H5.83543H5.82175H5.80808H5.79442H5.78078H5.76714H5.75352H5.73991H5.72632H5.71274H5.69916H5.6856H5.67206H5.65852H5.645H5.63149H5.61799H5.6045H5.59103H5.57757H5.56412H5.55068H5.53726H5.52385H5.51045H5.49706H5.48368H5.47032H5.45697H5.44363H5.43031H5.417H5.4037H5.39041H5.37713H5.36387H5.35062H5.33738H5.32416H5.31095H5.29775H5.28456H5.27139H5.25822H5.24508H5.23194H5.21882H5.20571H5.19261H5.17952H5.16645H5.15339H5.14034H5.12731H5.11429H5.10128H5.08828H5.0753H5.06233H5.04937H5.03643H5.0235H5.01058H4.99767C2.5127 49.5 0.5 47.4856 0.5 45V5.0013C0.5 2.5166 2.51127 0.502705 4.99524 0.502015C7.197 0.501403 9.96634 0.500875 12.9694 0.500875Z" fill="#1A243B" stroke="white"/>
<path d="M9 38.0815L10.5502 39.6345L12.0989 38.0815V27.4905L10.5502 25.9375L9 27.4905V38.0815Z" fill="white"/>
<path d="M12.0989 23.144V12.5515L10.5502 11L9 12.5515V23.144L10.5502 24.6956L12.0989 23.144Z" fill="white"/>
<path d="M34.3444 12.553L32.7942 11H22.7187L21.17 12.553L22.7187 14.1059H32.7942L34.3444 12.553Z" fill="white"/>
<path d="M22.0989 23.3242V14.7248L20.5502 13.1719L19 14.7248V23.3242L20.5502 24.8771L21.6452 23.7787L22.0989 23.3242Z" fill="white"/>
<path d="M30.806 27.0512L32.3562 25.4983L30.806 23.9453H22.7187L21.1699 25.4983L22.7187 27.0512H30.806Z" fill="white"/>
<path d="M22.0989 27.6701L20.5502 26.1172L19 27.6701V36.2695L20.5502 37.8224L21.6452 36.724L22.0989 36.2695V27.6701Z" fill="white"/>
<path d="M22.7187 36.8906L21.1699 38.4436L22.7187 39.9965H30.806L32.3562 38.4436L31.2597 37.3452L30.806 36.8906H22.7187Z" fill="white"/>
<path d="M31.4258 27.6701V36.2695L32.976 37.8224L34.5262 36.2695V27.6701L32.976 26.1172L31.4258 27.6701Z" fill="white"/>
<path d="M58.8075 11H50.7202L49.17 12.553L50.2664 13.6514L50.7202 14.1059H58.8075L59.2612 13.6514L60.3562 12.553L58.8075 11Z" fill="white"/>
<path d="M50.1004 14.7248L48.5502 13.1719L47 14.7248V23.3242L48.5502 24.8771L50.1004 23.3242V14.7248Z" fill="white"/>
<path d="M48.5502 26.1172L47 27.6701V36.2695L48.5502 37.8224L50.1004 36.2695V27.6701L48.5502 26.1172Z" fill="white"/>
<path d="M49.1699 38.4436L50.7201 39.9965H58.8074L60.3562 38.4436L58.8074 36.8906H50.7201L49.1699 38.4436Z" fill="white"/>
<path d="M59.4277 36.2695L60.9765 37.8224L62.5267 36.2695V27.6701L60.9765 26.1172L59.4277 27.6701V36.2695Z" fill="white"/>
<path d="M60.9765 13.1719L59.4277 14.7248V23.3242L60.9765 24.8771L62.5267 23.3242V14.7248L60.9765 13.1719Z" fill="white"/>
<path d="M124.807 12H116.72L115.17 13.553L116.266 14.6514L116.72 15.1059H124.807L125.261 14.6514L126.356 13.553L124.807 12Z" fill="white"/>
<path d="M116.1 15.7248L114.55 14.1719L113 15.7248V24.3242L114.55 25.8771L116.1 24.3242V15.7248Z" fill="white"/>
<path d="M114.55 27.1172L113 28.6701V37.2695L114.55 38.8224L116.1 37.2695V28.6701L114.55 27.1172Z" fill="white"/>
<path d="M115.17 39.4436L116.72 40.9965H124.807L126.356 39.4436L124.807 37.8906H116.72L115.17 39.4436Z" fill="white"/>
<path d="M125.428 37.2695L126.976 38.8224L128.527 37.2695V28.6701L126.976 27.1172L125.428 28.6701V37.2695Z" fill="white"/>
<path d="M126.976 14.1719L125.428 15.7248V24.3242L126.976 25.8771L128.527 24.3242V15.7248L126.976 14.1719Z" fill="white"/>
<path d="M77.8075 11H69.7202L68.17 12.553L69.2664 13.6514L69.7202 14.1059H77.8075L78.2612 13.6514L79.3562 12.553L77.8075 11Z" fill="white"/>
<path d="M69.1004 14.7248L67.5502 13.1719L66 14.7248V23.3242L67.5502 24.8771L69.1004 23.3242V14.7248Z" fill="white"/>
<path d="M67.5502 26.1172L66 27.6701V36.2695L67.5502 37.8224L69.1004 36.2695V27.6701L67.5502 26.1172Z" fill="white"/>
<path d="M68.1699 38.4436L69.7201 39.9965H77.8074L79.3562 38.4436L77.8074 36.8906H69.7201L68.1699 38.4436Z" fill="white"/>
<path d="M78.4277 36.2695L79.9765 37.8224L81.5267 36.2695V27.6701L79.9765 26.1172L78.4277 27.6701V36.2695Z" fill="white"/>
<path d="M79.9765 13.1719L78.4277 14.7248V23.3242L79.9765 24.8771L81.5267 23.3242V14.7248L79.9765 13.1719Z" fill="white"/>
<path d="M143.807 12H135.72L134.17 13.553L135.266 14.6514L135.72 15.1059H143.807L144.261 14.6514L145.356 13.553L143.807 12Z" fill="white"/>
<path d="M135.1 15.7248L133.55 14.1719L132 15.7248V24.3242L133.55 25.8771L135.1 24.3242V15.7248Z" fill="white"/>
<path d="M133.55 27.1172L132 28.6701V37.2695L133.55 38.8224L135.1 37.2695V28.6701L133.55 27.1172Z" fill="white"/>
<path d="M134.17 39.4436L135.72 40.9965H143.807L145.356 39.4436L143.807 37.8906H135.72L134.17 39.4436Z" fill="white"/>
<path d="M144.428 37.2695L145.976 38.8224L147.527 37.2695V28.6701L145.976 27.1172L144.428 28.6701V37.2695Z" fill="white"/>
<path d="M145.976 14.1719L144.428 15.7248V24.3242L145.976 25.8771L147.527 24.3242V15.7248L145.976 14.1719Z" fill="white"/>
<path d="M96.8074 12H88.7201L87.1699 13.553L88.2664 14.6514L88.7201 15.1059H96.8074L97.2612 14.6514L98.3562 13.553L96.8074 12Z" fill="white"/>
<path d="M88.1004 15.7248L86.5502 14.1719L85 15.7248V24.3242L86.5502 25.8771L88.1004 24.3242V15.7248Z" fill="white"/>
<path d="M86.5502 27.1172L85 28.6701V37.2695L86.5502 38.8224L88.1004 37.2695V28.6701L86.5502 27.1172Z" fill="white"/>
<path d="M87.1699 39.4436L88.7201 40.9965H96.8074L98.3562 39.4436L96.8074 37.8906H88.7201L87.1699 39.4436Z" fill="white"/>
<path d="M97.4277 37.2695L98.9765 38.8224L100.527 37.2695V28.6701L98.9765 27.1172L97.4277 28.6701V37.2695Z" fill="white"/>
<path d="M98.9765 14.1719L97.4277 15.7248V24.3242L98.9765 25.8771L100.527 24.3242V15.7248L98.9765 14.1719Z" fill="white"/>
<path d="M162.807 13H154.72L153.17 14.553L154.266 15.6514L154.72 16.1059H162.807L163.261 15.6514L164.356 14.553L162.807 13Z" fill="white"/>
<path d="M154.1 16.7248L152.55 15.1719L151 16.7248V25.3242L152.55 26.8771L154.1 25.3242V16.7248Z" fill="white"/>
<path d="M152.55 28.1172L151 29.6701V38.2695L152.55 39.8224L154.1 38.2695V29.6701L152.55 28.1172Z" fill="white"/>
<path d="M153.17 40.4436L154.72 41.9965H162.807L164.356 40.4436L162.807 38.8906H154.72L153.17 40.4436Z" fill="white"/>
<path d="M163.428 38.2695L164.976 39.8224L166.527 38.2695V29.6701L164.976 28.1172L163.428 29.6701V38.2695Z" fill="white"/>
<path d="M164.976 15.1719L163.428 16.7248V25.3242L164.976 26.8771L166.527 25.3242V16.7248L164.976 15.1719Z" fill="white"/>
<g clip-path="url(#clip0_1_1730)">
<path d="M40.5 35L38 37.5013L40.5 40L43 37.5013L40.5 35Z" fill="white"/>
</g>
<g clip-path="url(#clip1_1_1730)">
<path d="M106.5 36L104 38.5013L106.5 41L109 38.5013L106.5 36Z" fill="white"/>
</g>
<defs>
<clipPath id="clip0_1_1730">
<rect width="5" height="5" fill="white" transform="translate(38 35)"/>
</clipPath>
<clipPath id="clip1_1_1730">
<rect width="5" height="5" fill="white" transform="translate(104 36)"/>
</clipPath>
</defs>
</svg>
