<svg width="54" height="63" viewBox="0 0 54 63" fill="none" xmlns="http://www.w3.org/2000/svg">
<g clip-path="url(#clip0_1_1448)">
<path d="M21.176 14.6922C20.5022 14.5962 20.4701 14.5642 20.791 14.5322C21.4006 14.4363 22.8124 14.5642 23.807 14.7882C26.1172 15.332 28.2027 16.7397 30.4166 19.203L30.9942 19.8749L31.8284 19.7469C35.3899 19.171 39.0477 19.6189 42.0958 21.0266C42.93 21.4105 44.2455 22.1783 44.406 22.3702C44.4701 22.4342 44.5664 22.8501 44.6306 23.266C44.8552 24.7696 44.7589 25.8893 44.2776 26.7531C44.0209 27.233 44.0209 27.3609 44.1814 27.7768C44.3097 28.0967 44.6947 28.3207 45.0477 28.3207C45.8177 28.3207 46.6199 27.105 47.0049 25.4094L47.1653 24.7376L47.4541 25.0575C49.0904 26.8811 50.3739 29.4084 50.5664 31.1999L50.6306 31.6798L50.3418 31.2639C49.8605 30.5281 49.4113 30.0482 48.8017 29.6323C47.7108 28.8965 46.5557 28.6726 43.5076 28.5126C40.7482 28.3527 39.176 28.1287 37.6359 27.6169C35.0049 26.7531 33.6573 25.6334 30.545 21.5064C29.1653 19.6829 28.299 18.6912 27.4327 17.8594C25.5396 16.0359 23.6466 15.0761 21.176 14.6922Z" fill="#FF007A"/>
<path d="M45.0795 18.7561C45.1437 17.5404 45.3041 16.7406 45.6571 16.0048C45.7854 15.7169 45.9137 15.4609 45.9458 15.4609C45.9779 15.4609 45.9137 15.6849 45.8175 15.9408C45.5608 16.6446 45.5287 17.6364 45.6891 18.7561C45.9137 20.1957 46.01 20.3877 47.5501 21.9553C48.256 22.6911 49.0902 23.6188 49.4111 24.0027L49.9565 24.7066L49.4111 24.1947C48.7373 23.5548 47.1972 22.3392 46.8442 22.1792C46.6196 22.0512 46.5875 22.0512 46.4271 22.2112C46.2988 22.3392 46.2667 22.5311 46.2667 23.4589C46.2346 24.8985 46.0421 25.7943 45.5608 26.722C45.3041 27.2019 45.272 27.1059 45.4966 26.5621C45.6571 26.1462 45.6891 25.9542 45.6891 24.5786C45.6891 21.7953 45.3683 21.1235 43.4111 20.0038C42.9298 19.7158 42.0956 19.2999 41.6143 19.076C41.1009 18.8521 40.7159 18.6601 40.748 18.6601C40.8121 18.5961 42.7052 19.14 43.4431 19.4599C44.5661 19.9078 44.7587 19.9398 44.887 19.9078C44.9833 19.8118 45.0474 19.5559 45.0795 18.7561Z" fill="#FF007A"/>
<path d="M22.4915 23.5266C21.1439 21.6711 20.2775 18.7918 20.4701 16.6484L20.5342 15.9766L20.8551 16.0405C21.4326 16.1365 22.4273 16.5204 22.9086 16.8083C24.192 17.5762 24.7695 18.6319 25.315 21.2552C25.4754 22.023 25.7 22.9188 25.7963 23.2067C25.9567 23.6866 26.5663 24.8063 27.0797 25.5101C27.4326 26.022 27.208 26.2779 26.4059 26.2139C25.1866 26.086 23.5503 24.9662 22.4915 23.5266Z" fill="#FF007A"/>
<path d="M43.4446 37.439C37.0917 34.8797 34.8457 32.6723 34.8457 28.9292C34.8457 28.3854 34.8778 27.9375 34.8778 27.9375C34.9099 27.9375 35.1345 28.1295 35.4232 28.3534C36.7067 29.3771 38.1505 29.825 42.1612 30.4009C44.5035 30.7528 45.8511 31.0087 47.0703 31.4246C50.9527 32.7043 53.3591 35.3276 53.9366 38.8787C54.097 39.9024 54.0008 41.8539 53.7441 42.8776C53.5195 43.6774 52.8778 45.1491 52.7174 45.181C52.6853 45.181 52.6211 45.0211 52.6211 44.7652C52.5569 43.4215 51.8831 42.1418 50.7601 41.1501C49.4125 39.9984 47.6799 39.1346 43.4446 37.439Z" fill="#FF007A"/>
<path d="M38.9518 38.4954C38.8876 38.0155 38.7272 37.4077 38.631 37.1518L38.4705 36.6719L38.7593 37.0238C39.1764 37.5037 39.4973 38.0795 39.786 38.8793C40.0106 39.4871 40.0106 39.6791 40.0106 40.6708C40.0106 41.6306 39.9786 41.8545 39.786 42.3984C39.4652 43.2622 39.0802 43.87 38.4384 44.5418C37.2834 45.7255 35.7753 46.3654 33.6256 46.6533C33.2406 46.6853 32.1497 46.7813 31.1871 46.8452C28.7807 46.9732 27.1764 47.2291 25.7326 47.741C25.5401 47.805 25.3475 47.869 25.3155 47.837C25.2513 47.773 26.2459 47.1972 27.0481 46.8133C28.1711 46.2694 29.3261 45.9815 31.8609 45.5336C33.1122 45.3416 34.3957 45.0857 34.7165 44.9577C37.893 43.966 39.4652 41.5026 38.9518 38.4954Z" fill="#FF007A"/>
<path d="M41.872 43.6432C41.0377 41.8197 40.8452 40.0921 41.2944 38.4605C41.3586 38.3006 41.4228 38.1406 41.4869 38.1406C41.5511 38.1406 41.7436 38.2366 41.9361 38.3646C42.3212 38.6205 43.1233 39.0684 45.1768 40.1881C47.7757 41.5957 49.2516 42.6835 50.2784 43.9311C51.1768 45.0188 51.7222 46.2665 51.9789 47.8021C52.1393 48.6659 52.0431 50.7454 51.8185 51.6091C51.1126 54.3284 49.5083 56.5039 47.1661 57.7516C46.8131 57.9435 46.5244 58.0715 46.4923 58.0715C46.4602 58.0715 46.5885 57.7516 46.7811 57.3677C47.5511 55.7361 47.6474 54.1685 47.0698 52.4089C46.7169 51.3212 45.9789 50.0096 44.503 47.8021C42.7383 45.2428 42.3212 44.571 41.872 43.6432Z" fill="#FF007A"/>
<path d="M17.9687 53.4331C20.343 51.4496 23.2628 50.042 25.958 49.5941C27.1131 49.4021 29.0382 49.4661 30.0971 49.7541C31.7976 50.2019 33.3377 51.1617 34.1398 52.3454C34.9099 53.4971 35.2628 54.4888 35.6158 56.6963C35.7441 57.56 35.9045 58.4558 35.9366 58.6478C36.1933 59.7995 36.7067 60.6952 37.3484 61.1751C38.3431 61.9109 40.0757 61.9429 41.7762 61.3031C42.065 61.2071 42.3217 61.1111 42.3217 61.1431C42.3858 61.2071 41.5195 61.7829 40.942 62.0709C40.1398 62.4868 39.4981 62.6147 38.6318 62.6147C37.0917 62.6147 35.7762 61.8149 34.7174 60.2154C34.4928 59.8954 34.0436 58.9677 33.6586 58.1039C32.5356 55.5126 31.958 54.7448 30.6425 53.881C29.4874 53.1452 28.0115 52.9852 26.8885 53.5291C25.4126 54.2329 25.0275 56.1204 26.0543 57.2721C26.4714 57.752 27.2414 58.1359 27.8832 58.2319C29.0703 58.3918 30.0971 57.4641 30.0971 56.2804C30.0971 55.5126 29.8083 55.0647 29.0382 54.7128C28.0115 54.2649 26.8885 54.7768 26.9206 55.7685C26.9206 56.1844 27.1131 56.4403 27.5302 56.6323C27.7869 56.7602 27.7869 56.7602 27.5944 56.7283C26.6639 56.5363 26.4393 55.3846 27.1773 54.6488C28.0757 53.753 29.9687 54.1369 30.6104 55.3846C30.8671 55.8965 30.8992 56.9202 30.6746 57.56C30.1291 58.9677 28.589 59.7035 27.0168 59.2876C25.958 58.9997 25.5088 58.7117 24.2254 57.4001C21.9794 55.0967 21.1131 54.6488 17.9045 54.1689L17.2949 54.0729L17.9687 53.4331Z" fill="#FF007A"/>
<path fill-rule="evenodd" clip-rule="evenodd" d="M1.09038 1.96158C8.56632 11.0152 20.085 25.0916 20.6626 25.8594C21.1439 26.4993 20.9513 27.1071 20.1492 27.555C19.7 27.8109 18.7695 28.0668 18.3203 28.0668C17.807 28.0668 17.1973 27.8109 16.7802 27.395C16.4915 27.1071 15.2401 25.2836 12.4166 20.9007C10.2669 17.5416 8.43798 14.7583 8.40589 14.7263C8.27755 14.6623 8.27755 14.6623 12.192 21.6365C14.6626 26.0194 15.4647 27.587 15.4647 27.7789C15.4647 28.1948 15.3364 28.4188 14.823 28.9946C13.9567 29.9544 13.5717 31.0421 13.2829 33.3135C12.962 35.8408 12.0957 37.6324 9.62514 40.6716C8.18129 42.4631 7.95669 42.783 7.60375 43.5189C7.15455 44.4146 7.02621 44.9265 6.96204 46.0782C6.89787 47.2939 7.02621 48.0617 7.37915 49.2134C7.70001 50.2371 8.05295 50.909 8.91926 52.2206C9.65723 53.3723 10.1064 54.2361 10.1064 54.556C10.1064 54.8119 10.1706 54.8119 11.3257 54.556C14.085 53.9162 16.3631 52.8285 17.6144 51.4848C18.3845 50.653 18.577 50.2051 18.577 49.0534C18.577 48.3176 18.5449 48.1577 18.3524 47.7098C18.0316 47.006 17.4219 46.4301 16.1064 45.5343C14.3738 44.3506 13.6358 43.3909 13.4433 42.1112C13.2829 41.0235 13.4754 40.2877 14.438 38.2722C15.4326 36.1927 15.6893 35.329 15.8497 33.2175C15.946 31.8739 16.1064 31.33 16.4915 30.9141C16.9086 30.4662 17.2615 30.3063 18.2562 30.1783C19.8925 29.9544 20.9513 29.5385 21.7856 28.7387C22.5235 28.0668 22.8444 27.395 22.8765 26.4033L22.9086 25.6675L22.4915 25.2196C20.9834 23.492 0.0957307 0.585938 -0.000525944 0.585938C-0.0326115 0.585938 0.480757 1.19378 1.09038 1.96158ZM10.9406 47.4538C11.2936 46.846 11.1011 46.0782 10.5235 45.6943C9.97808 45.3424 9.14386 45.5023 9.14386 45.9822C9.14386 46.1102 9.20803 46.2382 9.40054 46.3021C9.68931 46.4621 9.7214 46.6221 9.4968 46.974C9.2722 47.3259 9.2722 47.6458 9.56097 47.8697C10.0102 48.2216 10.6198 48.0297 10.9406 47.4538Z" fill="#FF007A"/>
<path fill-rule="evenodd" clip-rule="evenodd" d="M23.9367 30.6251C23.1667 30.849 22.4287 31.6808 22.2041 32.5126C22.0757 33.0245 22.1399 33.9522 22.3645 34.2401C22.7175 34.688 23.0383 34.816 23.9367 34.816C25.7014 34.816 27.2094 34.0482 27.3699 33.1204C27.5303 32.3526 26.8565 31.2969 25.926 30.817C25.4447 30.5611 24.4501 30.4651 23.9367 30.6251ZM25.9902 32.2247C26.2469 31.8408 26.1506 31.4249 25.6693 31.1369C24.803 30.5931 23.4875 31.041 23.4875 31.8728C23.4875 32.2886 24.1613 32.7365 24.803 32.7365C25.2201 32.7365 25.7977 32.4806 25.9902 32.2247Z" fill="#FF007A"/>
</g>
<defs>
<clipPath id="clip0_1_1448">
<rect width="54" height="62" fill="white" transform="translate(0 0.585938)"/>
</clipPath>
</defs>
</svg>
