<svg width="12" height="12" viewBox="0 0 12 12" fill="none" xmlns="http://www.w3.org/2000/svg">
<path d="M8.64501 2.07002L8.61001 3.96502C8.60501 4.22502 8.77001 4.57002 8.98001 4.72502L10.22 5.66502C11.015 6.26502 10.885 7.00002 9.93501 7.30002L8.32001 7.80502C8.05001 7.89002 7.76501 8.18502 7.69501 8.46002L7.31001 9.93002C7.00501 11.09 6.24501 11.205 5.61501 10.185L4.73501 8.76002C4.57501 8.50002 4.19501 8.30502 3.89501 8.32002L2.22501 8.40502C1.03001 8.46502 0.690013 7.77502 1.47001 6.86502L2.46001 5.71502C2.64501 5.50002 2.73001 5.10002 2.64501 4.83002L2.13501 3.21002C1.84001 2.26002 2.37001 1.73502 3.31501 2.04502L4.79001 2.53002C5.04001 2.61002 5.41501 2.55502 5.62501 2.40002L7.16501 1.29002C8.00001 0.695022 8.66501 1.04502 8.64501 2.07002Z" fill="white"/>
<path d="M10.72 10.235L9.20503 8.71996C9.06003 8.57496 8.82003 8.57496 8.67503 8.71996C8.53003 8.86496 8.53003 9.10496 8.67503 9.24996L10.19 10.765C10.265 10.84 10.36 10.875 10.455 10.875C10.55 10.875 10.645 10.84 10.72 10.765C10.865 10.62 10.865 10.38 10.72 10.235Z" fill="white"/>
</svg>
