<svg width="24" height="25" viewBox="0 0 24 25" fill="none" xmlns="http://www.w3.org/2000/svg">
<path d="M20.1 9.72006C18.29 9.72006 17.55 8.44006 18.45 6.87006C18.97 5.96006 18.66 4.80006 17.75 4.28006L16.02 3.29006C15.23 2.82006 14.21 3.10006 13.74 3.89006L13.63 4.08006C12.73 5.65006 11.25 5.65006 10.34 4.08006L10.23 3.89006C9.78 3.10006 8.76 2.82006 7.97 3.29006L6.24 4.28006C5.33 4.80006 5.02 5.97006 5.54 6.88006C6.45 8.44006 5.71 9.72006 3.9 9.72006C2.86 9.72006 2 10.5701 2 11.6201V13.3801C2 14.4201 2.85 15.2801 3.9 15.2801C5.71 15.2801 6.45 16.5601 5.54 18.1301C5.02 19.0401 5.33 20.2001 6.24 20.7201L7.97 21.7101C8.76 22.1801 9.78 21.9001 10.25 21.1101L10.36 20.9201C11.26 19.3501 12.74 19.3501 13.65 20.9201L13.76 21.1101C14.23 21.9001 15.25 22.1801 16.04 21.7101L17.77 20.7201C18.68 20.2001 18.99 19.0301 18.47 18.1301C17.56 16.5601 18.3 15.2801 20.11 15.2801C21.15 15.2801 22.01 14.4301 22.01 13.3801V11.6201C22 10.5801 21.15 9.72006 20.1 9.72006ZM12 15.7501C10.21 15.7501 8.75 14.2901 8.75 12.5001C8.75 10.7101 10.21 9.25006 12 9.25006C13.79 9.25006 15.25 10.7101 15.25 12.5001C15.25 14.2901 13.79 15.7501 12 15.7501Z" fill="#E80D42"/>
</svg>
