<svg width="49" height="48" viewBox="0 0 49 48" fill="none" xmlns="http://www.w3.org/2000/svg">
<path d="M22.5 3.97998C12.56 3.97998 4.47998 12.06 4.47998 22C4.47998 31.94 12.56 40.02 22.5 40.02C32.44 40.02 40.52 31.94 40.52 22C40.52 12.06 32.44 3.97998 22.5 3.97998ZM28.86 23.12C27.74 26.68 23.84 28.62 22.5 28.62C21.12 28.62 17.3 26.76 16.14 23.12C15.38 20.74 16.24 17.64 18.96 16.78C20.2 16.38 21.52 16.62 22.5 17.36C23.46 16.62 24.8 16.38 26.06 16.78C28.76 17.66 29.62 20.76 28.86 23.12Z" fill="#E80D42"/>
<path d="M44.4801 37.9C43.8201 36.68 42.4201 36 40.5401 36C39.1201 36 37.9001 36.58 37.1801 37.58C36.4601 38.58 36.3001 39.92 36.7401 41.26C37.6001 43.86 39.1001 44.44 39.9201 44.54C40.0401 44.56 40.1601 44.56 40.3001 44.56C41.1801 44.56 42.5401 44.18 43.8601 42.2C44.9201 40.66 45.1201 39.12 44.4801 37.9Z" fill="#E80D42"/>
</svg>
