<svg width="12" height="13" viewBox="0 0 12 13" fill="none" xmlns="http://www.w3.org/2000/svg">
<path d="M10.31 4.725C9.78505 2.415 7.77005 1.375 6.00005 1.375C6.00005 1.375 6.00005 1.375 5.99505 1.375C4.23005 1.375 2.21005 2.41 1.68505 4.72C1.10005 7.3 2.68005 9.485 4.11005 10.86C4.64005 11.37 5.32005 11.625 6.00005 11.625C6.68005 11.625 7.36005 11.37 7.88505 10.86C9.31505 9.485 10.895 7.305 10.31 4.725ZM6.00005 7.23C5.13005 7.23 4.42505 6.525 4.42505 5.655C4.42505 4.785 5.13005 4.08 6.00005 4.08C6.87005 4.08 7.57505 4.785 7.57505 5.655C7.57505 6.525 6.87005 7.23 6.00005 7.23Z" fill="white"/>
</svg>
