<svg width="18" height="18" viewBox="0 0 18 18" fill="none" xmlns="http://www.w3.org/2000/svg">
<path d="M8.625 15.75C12.56 15.75 15.75 12.56 15.75 8.625C15.75 4.68998 12.56 1.5 8.625 1.5C4.68998 1.5 1.5 4.68998 1.5 8.625C1.5 12.56 4.68998 15.75 8.625 15.75Z" fill="#E80D42"/>
<path d="M15.9749 16.5001C15.8399 16.5001 15.7049 16.4476 15.6074 16.3501L14.2124 14.9552C14.0099 14.7527 14.0099 14.4227 14.2124 14.2127C14.4149 14.0102 14.7449 14.0102 14.9549 14.2127L16.3499 15.6076C16.5524 15.8101 16.5524 16.1401 16.3499 16.3501C16.2449 16.4476 16.1099 16.5001 15.9749 16.5001Z" fill="#E80D42"/>
</svg>
