<svg width="12" height="12" viewBox="0 0 12 12" fill="none" xmlns="http://www.w3.org/2000/svg">
<path d="M9.91499 4.35002L7.64999 2.08502C7.17499 1.61002 6.51999 1.35502 5.84999 1.39002L3.34999 1.51002C2.34999 1.55502 1.55499 2.35002 1.50499 3.34502L1.38499 5.84502C1.35499 6.51502 1.60499 7.17002 2.07999 7.64502L4.34499 9.91002C5.27499 10.84 6.78499 10.84 7.71999 9.91002L9.91499 7.71502C10.85 6.79002 10.85 5.28002 9.91499 4.35002ZM4.74999 6.19002C3.95999 6.19002 3.30999 5.54502 3.30999 4.75002C3.30999 3.95502 3.95999 3.31002 4.74999 3.31002C5.53999 3.31002 6.18999 3.95502 6.18999 4.75002C6.18999 5.54502 5.53999 6.19002 4.74999 6.19002ZM8.76499 6.76502L6.76499 8.76502C6.68999 8.84002 6.59499 8.87502 6.49999 8.87502C6.40499 8.87502 6.30999 8.84002 6.23499 8.76502C6.08999 8.62002 6.08999 8.38002 6.23499 8.23502L8.23499 6.23502C8.37999 6.09002 8.61999 6.09002 8.76499 6.23502C8.90999 6.38002 8.90999 6.62002 8.76499 6.76502Z" fill="white"/>
</svg>
