<svg width="18" height="18" viewBox="0 0 18 18" fill="none" xmlns="http://www.w3.org/2000/svg">
<mask id="mask0_511_9207" style="mask-type:alpha" maskUnits="userSpaceOnUse" x="0" y="0" width="18" height="18">
<rect width="18" height="18" fill="#D9D9D9"/>
</mask>
<g mask="url(#mask0_511_9207)">
<path d="M9.08138 17.8727C13.9097 17.8727 17.8239 13.9586 17.8239 9.1302C17.8239 4.30186 13.9097 0.387695 9.08138 0.387695C4.25303 0.387695 0.338867 4.30186 0.338867 9.1302C0.338867 13.9586 4.25303 17.8727 9.08138 17.8727Z" fill="#34AADF"/>
<path d="M4.08664 8.93878C4.08664 8.93878 8.41723 7.0964 9.91915 6.44765C10.4949 6.18818 12.4474 5.35778 12.4474 5.35778C12.4474 5.35778 13.3486 4.99451 13.2735 5.87677C13.2484 6.24007 13.0482 7.51157 12.848 8.88688C12.5475 10.8331 12.2221 12.9609 12.2221 12.9609C12.2221 12.9609 12.1721 13.5578 11.7465 13.6616C11.321 13.7653 10.6201 13.2983 10.4949 13.1945C10.3948 13.1166 8.61748 11.9489 7.96664 11.378C7.79141 11.2223 7.59116 10.911 7.99166 10.5476C8.89283 9.69132 9.96921 8.62741 10.6201 7.95273C10.9205 7.64132 11.2208 6.91475 9.96921 7.79701C8.19194 9.06854 6.43967 10.2622 6.43967 10.2622C6.43967 10.2622 6.03915 10.5217 5.28819 10.2881C4.53719 10.0546 3.66106 9.74321 3.66106 9.74321C3.66106 9.74321 3.06032 9.35398 4.08664 8.93878Z" fill="white"/>
</g>
</svg>
