<svg width="13" height="12" viewBox="0 0 13 12" fill="none" xmlns="http://www.w3.org/2000/svg">
<path d="M8.595 1H4.405C2.585 1 1.5 2.085 1.5 3.905V8.09C1.5 9.915 2.585 11 4.405 11H8.59C10.41 11 11.495 9.915 11.495 8.095V3.905C11.5 2.085 10.415 1 8.595 1ZM8.89 4.85L6.055 7.685C5.985 7.755 5.89 7.795 5.79 7.795C5.69 7.795 5.595 7.755 5.525 7.685L4.11 6.27C3.965 6.125 3.965 5.885 4.11 5.74C4.255 5.595 4.495 5.595 4.64 5.74L5.79 6.89L8.36 4.32C8.505 4.175 8.745 4.175 8.89 4.32C9.035 4.465 9.035 4.7 8.89 4.85Z" fill="#100E19"/>
</svg>
