<svg width="25" height="24" viewBox="0 0 25 24" fill="none" xmlns="http://www.w3.org/2000/svg">
<path d="M16.213 5.50002V15.66C16.213 16.06 16.093 16.45 15.873 16.78L13.143 20.84C12.713 21.49 11.643 21.95 10.733 21.61C9.75304 21.28 9.10304 20.18 9.31304 19.2L9.83304 15.93C9.87304 15.63 9.79304 15.36 9.62304 15.15C9.45304 14.96 9.20304 14.84 8.93304 14.84H4.82304C4.03304 14.84 3.35304 14.52 2.95304 13.96C2.57304 13.42 2.50304 12.72 2.75304 12.01L5.21304 4.52002C5.52304 3.28002 6.87304 2.27002 8.21304 2.27002H12.113C12.783 2.27002 13.723 2.50002 14.153 2.93002L15.433 3.92002C15.923 4.30002 16.213 4.88002 16.213 5.50002Z" fill="white"/>
<path d="M19.393 17.61H20.423C21.973 17.61 22.603 17.01 22.603 15.53V5.48002C22.603 4.00002 21.973 3.40002 20.423 3.40002H19.393C17.843 3.40002 17.213 4.00002 17.213 5.48002V15.54C17.213 17.01 17.843 17.61 19.393 17.61Z" fill="white"/>
</svg>
