<svg width="18" height="18" viewBox="0 0 18 18" fill="none" xmlns="http://www.w3.org/2000/svg">
<mask id="mask0_511_9209" style="mask-type:alpha" maskUnits="userSpaceOnUse" x="0" y="0" width="18" height="18">
<rect width="18" height="18" fill="#D9D9D9"/>
</mask>
<g mask="url(#mask0_511_9209)">
<path d="M1 17.3601L2.14796 13.0955C1.22216 11.4342 0.928023 9.49564 1.31953 7.6355C1.71103 5.77536 2.76192 4.11843 4.27934 2.96876C5.79677 1.81909 7.67895 1.2538 9.5805 1.37662C11.4821 1.49944 13.2754 2.30213 14.6315 3.6374C15.9876 4.97266 16.8155 6.75094 16.9632 8.64591C17.111 10.5409 16.5686 12.4254 15.4358 13.9537C14.3029 15.4821 12.6555 16.5516 10.7958 16.9662C8.93616 17.3807 6.989 17.1124 5.31164 16.2106L1 17.3601ZM5.51954 14.6147L5.78619 14.7725C7.00114 15.4908 8.42018 15.788 9.82217 15.6179C11.2242 15.4478 12.5304 14.8198 13.5372 13.8319C14.544 12.844 15.195 11.5516 15.3886 10.1562C15.5821 8.76075 15.3075 7.34062 14.6075 6.11713C13.9074 4.89363 12.8212 3.93548 11.5182 3.392C10.2152 2.84852 8.7686 2.75024 7.40376 3.11246C6.03891 3.47469 4.83253 4.27708 3.97261 5.3946C3.11269 6.51211 2.64754 7.88197 2.64963 9.29071C2.64849 10.4588 2.97236 11.6042 3.58518 12.5996L3.7524 12.8746L3.11063 15.2548L5.51954 14.6147Z" fill="#00D95F"/>
<path fill-rule="evenodd" clip-rule="evenodd" d="M11.9916 10.3858C11.8352 10.26 11.6522 10.1715 11.4564 10.127C11.2606 10.0824 11.0572 10.0831 10.8617 10.1288C10.5679 10.2505 10.3781 10.7103 10.1883 10.9403C10.1482 10.9954 10.0894 11.034 10.0229 11.049C9.95628 11.0639 9.88654 11.0541 9.8267 11.0214C8.7512 10.6012 7.8497 9.83071 7.26864 8.83499C7.21908 8.77286 7.19562 8.69397 7.20321 8.61493C7.2108 8.53589 7.24884 8.46286 7.30932 8.41124C7.52103 8.20218 7.67647 7.94325 7.76127 7.65839C7.7801 7.34419 7.70793 7.03121 7.55337 6.75679C7.43388 6.37205 7.20648 6.02947 6.89804 5.76952C6.73895 5.69816 6.56256 5.67423 6.39014 5.70062C6.21772 5.72702 6.05664 5.80261 5.92634 5.91829C5.70012 6.11297 5.52056 6.35578 5.40089 6.62884C5.28122 6.90191 5.22448 7.19827 5.23485 7.4961C5.23554 7.66336 5.25679 7.82989 5.29812 7.99199C5.40307 8.38144 5.56446 8.75352 5.77719 9.09646C5.93067 9.35916 6.09814 9.61347 6.27886 9.85832C6.8662 10.6625 7.60449 11.3454 8.45276 11.8689C8.87843 12.1349 9.33338 12.3513 9.80862 12.5136C10.3023 12.7368 10.8474 12.8225 11.3859 12.7615C11.6928 12.7152 11.9835 12.5943 12.2326 12.4096C12.4816 12.2249 12.6813 11.9819 12.8141 11.7021C12.8921 11.5331 12.9158 11.3441 12.8819 11.1611C12.8006 10.787 12.2989 10.5661 11.9916 10.3858Z" fill="#00D95F"/>
</g>
</svg>
