<svg width="20" height="20" viewBox="0 0 20 20" fill="none" xmlns="http://www.w3.org/2000/svg">
<path d="M15.4029 13.9728C14.8726 14.0996 14.3192 14.1667 13.7501 14.1667C9.83806 14.1667 6.66675 10.9954 6.66675 7.08334C6.66675 6.68044 6.70039 6.28541 6.765 5.90088C6.73485 5.92989 6.70368 5.9566 6.67087 5.98151C6.43703 6.15903 6.14579 6.22492 5.56332 6.35671L5.03303 6.4767C2.9833 6.94047 1.95843 7.17235 1.7146 7.95645C1.47077 8.74054 2.16946 9.55756 3.56683 11.1916L3.92835 11.6144C4.32543 12.0787 4.52398 12.3109 4.6133 12.5981C4.70262 12.8853 4.6726 13.1951 4.61257 13.8146L4.55791 14.3787C4.34665 16.5588 4.24102 17.6489 4.87937 18.1335C5.51773 18.6181 6.47731 18.1763 8.39646 17.2927L8.89299 17.064C9.43835 16.8129 9.71104 16.6874 10.0001 16.6874C10.2891 16.6874 10.5618 16.8129 11.1072 17.064L11.6037 17.2926C13.5229 18.1763 14.4824 18.6181 15.1208 18.1335C15.7591 17.6489 15.6535 16.5588 15.4423 14.3787L15.4029 13.9728Z" fill="#E80D42"/>
<path opacity="0.5" d="M7.6276 4.50694L7.35452 4.99682C7.05457 5.53491 6.90459 5.80395 6.67075 5.98146C6.70356 5.95655 6.73473 5.92984 6.76489 5.90084C6.70027 6.28536 6.66663 6.6804 6.66663 7.0833C6.66663 10.9953 9.83794 14.1666 13.75 14.1666C14.3191 14.1666 14.8725 14.0995 15.4028 13.9728L15.3875 13.8146C15.3274 13.1951 15.2974 12.8853 15.3867 12.5981C15.4761 12.3108 15.6746 12.0787 16.0717 11.6143L16.4332 11.1916C17.8306 9.55752 18.5293 8.74049 18.2854 7.9564C18.0416 7.17231 17.0167 6.94042 14.967 6.47665L14.4367 6.35667C13.8543 6.22488 13.563 6.15898 13.3292 5.98146C13.0953 5.80395 12.9454 5.53491 12.6454 4.99682L12.3723 4.50694C11.3168 2.6134 10.789 1.66663 9.99996 1.66663C9.21091 1.66663 8.68314 2.6134 7.6276 4.50694Z" fill="#E80D42"/>
</svg>
