<svg width="42" height="24" viewBox="0 0 42 24" fill="none" xmlns="http://www.w3.org/2000/svg">
<g clip-path="url(#clip0_702_1548)">
<path d="M0.00217819 11.2533C9.33854 5.27931 8.92817 0.733171 14.0657 0.506882C17.9312 0.337165 20.1418 3.46448 21.001 5.02361C21.858 3.46448 24.0686 0.337165 27.9342 0.506882C33.0694 0.733171 32.6613 5.27931 41.9954 11.2533C42.0044 11.2579 41.9999 11.2647 41.984 11.2692C41.7551 11.5815 35.6381 19.8387 27.5805 22.5904C25.2203 23.396 23.0279 23.4413 20.8968 23.5001C18.7656 23.4413 16.5732 23.396 14.213 22.5904C6.07603 19.8116 0.120075 11.4208 0.0089798 11.2601C0.00217819 11.2579 -8.39233e-05 11.2556 0.00444794 11.2533H0.00217819ZM20.0443 12.4685C21.0396 12.5749 22.0417 12.5726 23.037 12.4595C26.227 12.0997 33.3777 11.2782 32.8835 11.2036L25.1772 10.0427C24.454 9.93408 23.7126 10.0563 23.0642 10.3957L22.901 10.4817C21.9646 10.9705 20.8559 11.0022 19.8901 10.5722L19.2553 10.2893C18.65 10.0201 17.9811 9.92955 17.3259 10.0269L9.5766 11.1968C9.06421 11.2737 16.7228 12.111 20.0443 12.4662V12.4685Z" fill="#E80D42"/>
<path d="M0.00217819 11.2533C9.33854 5.27931 8.92817 0.733171 14.0657 0.506882C17.9312 0.337165 20.1418 3.46448 21.001 5.02361C21.858 3.46448 24.0686 0.337165 27.9342 0.506882C33.0694 0.733171 32.6613 5.27931 41.9954 11.2533C42.0044 11.2579 41.9999 11.2647 41.984 11.2692C41.7551 11.5815 35.6381 19.8387 27.5805 22.5904C25.2203 23.396 23.0279 23.4413 20.8968 23.5001C18.7656 23.4413 16.5732 23.396 14.213 22.5904C6.07603 19.8116 0.120075 11.4208 0.0089798 11.2601C0.00217819 11.2579 -8.39233e-05 11.2556 0.00444794 11.2533H0.00217819ZM20.0443 12.4685C21.0396 12.5749 22.0417 12.5726 23.037 12.4595C26.227 12.0997 33.3777 11.2782 32.8835 11.2036L25.1772 10.0427C24.454 9.93408 23.7126 10.0563 23.0642 10.3957L22.901 10.4817C21.9646 10.9705 20.8559 11.0022 19.8901 10.5722L19.2553 10.2893C18.65 10.0201 17.9811 9.92955 17.3259 10.0269L9.5766 11.1968C9.06421 11.2737 16.7228 12.111 20.0443 12.4662V12.4685Z" fill="url(#paint0_linear_702_1548)" fill-opacity="0.4" style="mix-blend-mode:hard-light"/>
</g>
<defs>
<linearGradient id="paint0_linear_702_1548" x1="21.001" y1="11" x2="21.001" y2="12" gradientUnits="userSpaceOnUse">
<stop/>
<stop offset="1" stop-opacity="0"/>
</linearGradient>
<clipPath id="clip0_702_1548">
<rect width="42" height="23" fill="white" transform="matrix(-1 0 0 1 42 0.5)"/>
</clipPath>
</defs>
</svg>
