<svg width="20" height="20" viewBox="0 0 20 20" fill="none" xmlns="http://www.w3.org/2000/svg">
<path fill-rule="evenodd" clip-rule="evenodd" d="M13.4172 11.1325L13.7967 10.7551C14.3214 10.2334 15.1393 10.1262 15.8106 10.4911L17.4027 11.3566C18.4251 11.9124 18.6504 13.2746 17.8513 14.0691L16.6675 15.2462C16.3665 15.5455 15.993 15.7642 15.5635 15.8042C14.57 15.8969 12.526 15.8469 10.1144 14.4352L13.4172 11.1325ZM8.49217 6.23543L8.73118 5.99778C9.31998 5.41233 9.37549 4.47239 8.86179 3.7862L7.81097 2.38253C7.17516 1.53322 5.94655 1.42103 5.21779 2.14565L3.90979 3.44622C3.54844 3.80552 3.3063 4.27129 3.33566 4.78796C3.38959 5.73701 3.7131 7.47071 5.12638 9.60122L8.49217 6.23543Z" fill="#1C274C"/>
<path opacity="0.6" d="M10.0524 9.58115C7.59754 7.14028 8.48643 6.24119 8.49201 6.2356L5.12622 9.60138C5.68138 10.4383 6.4047 11.3364 7.34589 12.2723C8.29565 13.2166 9.22967 13.9176 10.1143 14.4354L13.417 11.1326C13.417 11.1326 12.5149 12.0297 10.0524 9.58115Z" fill="#1C274C"/>
</svg>
