<svg width="24" height="25" viewBox="0 0 24 25" fill="none" xmlns="http://www.w3.org/2000/svg">
<path d="M17.6623 1.16338C17.0424 1.0034 15.4006 0.501465 12.001 0.501465C8.60143 0.501465 6.67967 1.06339 6.33971 1.16338C5.91977 1.26337 5.60181 1.68132 5.60181 2.10126V22.8987C5.60181 23.3186 5.91977 23.7366 6.33971 23.8365C6.67967 23.9365 8.60143 24.4985 12.001 24.4985C15.4006 24.4985 17.0424 23.9965 17.6623 23.8365C18.0822 23.7366 18.4002 23.3186 18.4002 22.8987V2.10126C18.4002 1.68132 18.0822 1.26337 17.6623 1.16338Z" fill="url(#paint0_linear_338_5277)"/>
<path d="M14.8006 2.90122H9.20134C8.98137 2.90122 8.80139 2.72124 8.80139 2.50127C8.80139 2.2813 8.98137 2.10132 9.20134 2.10132H14.8006C15.0206 2.10132 15.2006 2.2813 15.2006 2.50127C15.2006 2.72124 15.0206 2.90122 14.8006 2.90122Z" fill="#212121"/>
<path d="M16.4005 20.499H7.60161C7.38164 20.499 7.20166 20.319 7.20166 20.099V4.90093C7.20166 4.68095 7.38164 4.50098 7.60161 4.50098H16.4005C16.6205 4.50098 16.8005 4.68095 16.8005 4.90093V20.099C16.8005 20.319 16.6205 20.499 16.4005 20.499Z" fill="url(#paint1_linear_338_5277)"/>
<path d="M7.60161 2.90122C7.8225 2.90122 8.00156 2.72215 8.00156 2.50127C8.00156 2.28038 7.8225 2.10132 7.60161 2.10132C7.38072 2.10132 7.20166 2.28038 7.20166 2.50127C7.20166 2.72215 7.38072 2.90122 7.60161 2.90122Z" fill="#9E9E9E"/>
<path opacity="0.2" d="M14.8006 2.30129C14.9106 2.30129 15.0006 2.39128 15.0006 2.50127C15.0006 2.61125 14.9106 2.70124 14.8006 2.70124H9.20134C9.09136 2.70124 9.00137 2.61125 9.00137 2.50127C9.00137 2.39128 9.09136 2.30129 9.20134 2.30129H14.8006ZM14.8006 2.10132H9.20134C8.98137 2.10132 8.80139 2.2813 8.80139 2.50127C8.80139 2.72124 8.98137 2.90122 9.20134 2.90122H14.8006C15.0206 2.90122 15.2006 2.72124 15.2006 2.50127C15.2006 2.2813 15.0206 2.10132 14.8006 2.10132Z" fill="#EEEEEE"/>
<path opacity="0.2" d="M7.60161 2.30129C7.7116 2.30129 7.80159 2.39128 7.80159 2.50127C7.80159 2.61125 7.7116 2.70124 7.60161 2.70124C7.49162 2.70124 7.40164 2.61125 7.40164 2.50127C7.40164 2.39128 7.49162 2.30129 7.60161 2.30129ZM7.60161 2.10132C7.38164 2.10132 7.20166 2.2813 7.20166 2.50127C7.20166 2.72124 7.38164 2.90122 7.60161 2.90122C7.82158 2.90122 8.00156 2.72124 8.00156 2.50127C8.00156 2.2813 7.82158 2.10132 7.60161 2.10132Z" fill="#424242"/>
<path opacity="0.2" d="M16.4005 4.50105C16.6204 4.50105 16.8004 4.68103 16.8004 4.901V20.0991C16.8004 20.3191 16.6204 20.4991 16.4005 20.4991H7.60156C7.38159 20.4991 7.20161 20.3191 7.20161 20.0991V4.901C7.20161 4.68103 7.38159 4.50105 7.60156 4.50105H16.4005ZM16.4005 3.90112H7.60156C7.04963 3.90112 6.60168 4.34907 6.60168 4.901V20.0991C6.60168 20.651 7.04963 21.099 7.60156 21.099H16.4005C16.9524 21.099 17.4003 20.651 17.4003 20.0991V4.901C17.4003 4.34907 16.9524 3.90112 16.4005 3.90112Z" fill="#424242"/>
<path opacity="0.2" d="M12.001 1.10139C15.0906 1.10139 16.6864 1.52534 17.3683 1.70731C17.4223 1.72131 17.4703 1.73531 17.5143 1.74531L17.5263 1.74931C17.6663 1.7813 17.8003 1.95328 17.8003 2.10126V22.8987C17.8003 23.0466 17.6663 23.2186 17.5243 23.2526L17.5123 23.2566C17.4683 23.2686 17.4203 23.2806 17.3663 23.2946C16.6864 23.4746 15.0906 23.8985 12.001 23.8985C9.00138 23.8985 7.16161 23.4526 6.50769 23.2606L6.4757 23.2526C6.33571 23.2186 6.20173 23.0466 6.20173 22.8987V2.10126C6.20173 1.95328 6.33572 1.7813 6.4777 1.74731L6.50969 1.73931C7.16161 1.54733 9.00138 1.10139 12.001 1.10139ZM12.001 0.501465C8.60143 0.501465 6.67967 1.06339 6.33971 1.16338C5.91977 1.26337 5.60181 1.68132 5.60181 2.10126V22.8987C5.60181 23.3186 5.91977 23.7366 6.33971 23.8365C6.67967 23.9365 8.60143 24.4985 12.001 24.4985C15.4006 24.4985 17.0424 23.9965 17.6623 23.8365C18.0822 23.7366 18.4002 23.3186 18.4002 22.8987V2.10126C18.4002 1.68132 18.0822 1.26337 17.6623 1.16338C17.0424 1.0034 15.4006 0.501465 12.001 0.501465Z" fill="#EEEEEE"/>
<path d="M3.09611 14.8736L1.98225 12.4999L3.09611 10.1262C3.2381 9.82426 3.2381 9.4643 3.09611 9.16434L1.98225 6.79264L3.09611 4.41893C3.32808 3.925 3.1621 3.30107 2.72416 3.03111C2.58618 2.94712 2.4302 2.90112 2.27222 2.90112C1.92426 2.90112 1.6083 3.1131 1.44632 3.45705L0.106487 6.3107C-0.0354956 6.61266 -0.0354956 6.97261 0.106487 7.27258L1.22035 9.64628L0.108486 12.018C-0.0334958 12.3199 -0.0334958 12.6799 0.108486 12.9799L1.22235 15.3536L0.108486 17.7273C-0.0334958 18.0292 -0.0334958 18.3892 0.108486 18.6891L1.44832 21.5428C1.6103 21.8848 1.92626 22.0987 2.27222 22.0987C2.4302 22.0987 2.58618 22.0527 2.72416 21.9687C3.1621 21.6988 3.32808 21.0749 3.09611 20.5809L1.98225 18.2072L3.09611 15.8335C3.2381 15.5335 3.2381 15.1736 3.09611 14.8736Z" fill="url(#paint2_linear_338_5277)"/>
<path d="M20.9059 14.8737L22.0198 12.5L20.9059 10.1263C20.7639 9.8243 20.7639 9.46435 20.9059 9.16439L22.0198 6.79068L20.9059 4.41698C20.674 3.92304 20.8399 3.29912 21.2779 3.02915C21.4159 2.94316 21.5718 2.89917 21.7278 2.89917C22.0758 2.89917 22.3917 3.11114 22.5537 3.4551L23.8936 6.30874C24.0355 6.61071 24.0355 6.97066 23.8936 7.27062L22.7797 9.64433L23.8936 12.018C24.0355 12.32 24.0355 12.6799 23.8936 12.9799L22.7797 15.3536L23.8936 17.7273C24.0355 18.0293 24.0355 18.3892 23.8936 18.6892L22.5537 21.5428C22.3917 21.8848 22.0758 22.0988 21.7298 22.0988C21.5718 22.0988 21.4159 22.0528 21.2779 21.9688C20.8399 21.6988 20.674 21.0749 20.9059 20.581L22.0198 18.2073L20.9059 15.8336C20.7639 15.5336 20.7639 15.1736 20.9059 14.8737Z" fill="url(#paint3_linear_338_5277)"/>
<path opacity="0.2" d="M2.27222 3.50105C2.31821 3.50105 2.3642 3.51505 2.4082 3.54104C2.58618 3.65103 2.65417 3.94699 2.55218 4.16297L1.43832 6.53667C1.36233 6.69865 1.36233 6.88462 1.43832 7.0466L2.55218 9.42031C2.61817 9.56029 2.61817 9.73427 2.55218 9.87225L1.43832 12.246C1.36233 12.4079 1.36233 12.5939 1.43832 12.7559L2.55218 15.1296C2.61817 15.2696 2.61817 15.4436 2.55218 15.5815L1.43832 17.9552C1.36233 18.1172 1.36233 18.3032 1.43832 18.4652L2.55218 20.8369C2.65417 21.0529 2.58418 21.3508 2.4082 21.4588C2.3662 21.4848 2.31821 21.4988 2.27222 21.4988C2.16023 21.4988 2.05224 21.4188 1.99025 21.2888L0.650419 18.4352C0.584427 18.2952 0.584427 18.1212 0.650419 17.9832L1.76428 15.6095C1.84027 15.4476 1.84027 15.2616 1.76428 15.0996L0.652418 12.7259C0.586427 12.5859 0.586427 12.4119 0.652418 12.274L1.76428 9.90025C1.84027 9.73827 1.84027 9.55229 1.76428 9.39031L0.652418 7.01861C0.586427 6.87863 0.586427 6.70465 0.652418 6.56667L1.99225 3.71302C2.05224 3.57904 2.15823 3.50105 2.27222 3.50105ZM2.27222 2.90112C1.92426 2.90112 1.6083 3.1131 1.44632 3.45705L0.106487 6.3107C-0.0354956 6.61266 -0.0354956 6.97261 0.106487 7.27258L1.22035 9.64628L0.108486 12.018C-0.0334958 12.3199 -0.0334958 12.6799 0.108486 12.9799L1.22235 15.3536L0.108486 17.7273C-0.0334958 18.0292 -0.0334958 18.3892 0.108486 18.6891L1.44832 21.5428C1.6103 21.8848 1.92626 22.0987 2.27222 22.0987C2.4302 22.0987 2.58618 22.0527 2.72416 21.9687C3.1621 21.6988 3.32808 21.0749 3.09611 20.5809L1.98225 18.2072L3.09611 15.8335C3.2381 15.5315 3.2381 15.1716 3.09611 14.8716L1.98225 12.4999L3.09611 10.1262C3.2381 9.82426 3.2381 9.4643 3.09611 9.16434L1.98225 6.79264L3.09611 4.41893C3.32808 3.925 3.1621 3.30107 2.72416 3.03111C2.58618 2.94712 2.4302 2.90112 2.27222 2.90112Z" fill="#424242"/>
<path opacity="0.2" d="M21.7298 3.50105C21.8438 3.50105 21.9498 3.57904 22.0118 3.71102L23.3516 6.56467C23.4176 6.70465 23.4176 6.87863 23.3516 7.01661L22.2378 9.39031C22.1618 9.55229 22.1618 9.73827 22.2378 9.90025L23.3516 12.272C23.4176 12.4119 23.4176 12.5859 23.3516 12.7239L22.2378 15.0996C22.1618 15.2616 22.1618 15.4476 22.2378 15.6095L23.3516 17.9812C23.4176 18.1212 23.4176 18.2952 23.3516 18.4332L22.0118 21.2868C21.9498 21.4168 21.8418 21.4968 21.7298 21.4968C21.6838 21.4968 21.6378 21.4828 21.5938 21.4568C21.4159 21.3468 21.3479 21.0509 21.4499 20.8349L22.5637 18.4612C22.6397 18.2992 22.6397 18.1132 22.5637 17.9512L21.4499 15.5795C21.3839 15.4396 21.3839 15.2656 21.4499 15.1276L22.5637 12.7539C22.6397 12.5919 22.6397 12.4059 22.5637 12.244L21.4499 9.87025C21.3839 9.73027 21.3839 9.55629 21.4499 9.41831L22.5637 7.04461C22.6397 6.88263 22.6397 6.69665 22.5637 6.53467L21.4499 4.16097C21.3479 3.94499 21.4179 3.64703 21.5958 3.53904C21.6378 3.51505 21.6838 3.50105 21.7298 3.50105ZM21.7298 2.90112C21.5718 2.90112 21.4159 2.94712 21.2799 3.03111C20.8419 3.30107 20.676 3.923 20.9079 4.41893L22.0218 6.79264L20.9079 9.16634C20.7659 9.4683 20.7659 9.82826 20.9079 10.1282L22.0198 12.4999L20.9059 14.8736C20.7639 15.1756 20.7639 15.5355 20.9059 15.8355L22.0198 18.2092L20.9059 20.5829C20.674 21.0769 20.8419 21.7008 21.2779 21.9707C21.4159 22.0567 21.5718 22.1007 21.7298 22.1007C22.0778 22.1007 22.3937 21.8888 22.5537 21.5448L23.8936 18.6911C24.0355 18.3892 24.0355 18.0292 23.8936 17.7293L22.7797 15.3556L23.8936 12.9819C24.0355 12.6799 24.0355 12.3199 23.8936 12.02L22.7797 9.64628L23.8936 7.27258C24.0355 6.97061 24.0355 6.61066 23.8936 6.3107L22.5537 3.45705C22.3937 3.1131 22.0778 2.90112 21.7298 2.90112Z" fill="#424242"/>
<defs>
<linearGradient id="paint0_linear_338_5277" x1="12.001" y1="0.3818" x2="12.001" y2="24.7204" gradientUnits="userSpaceOnUse">
<stop stop-color="#616161"/>
<stop offset="1" stop-color="#212121"/>
</linearGradient>
<linearGradient id="paint1_linear_338_5277" x1="12.0011" y1="7.10065" x2="12.0011" y2="23.5206" gradientUnits="userSpaceOnUse">
<stop stop-color="#29B6F6"/>
<stop offset="1" stop-color="#0288D1"/>
</linearGradient>
<linearGradient id="paint2_linear_338_5277" x1="1.6023" y1="3.0799" x2="1.6023" y2="22.2767" gradientUnits="userSpaceOnUse">
<stop stop-color="#FFAB40"/>
<stop offset="0.3074" stop-color="#FF9C30"/>
<stop offset="0.9036" stop-color="#FF7407"/>
<stop offset="1" stop-color="#FF6D00"/>
</linearGradient>
<linearGradient id="paint3_linear_338_5277" x1="22.3997" y1="3.07995" x2="22.3997" y2="22.2767" gradientUnits="userSpaceOnUse">
<stop stop-color="#FFAB40"/>
<stop offset="0.3074" stop-color="#FF9C30"/>
<stop offset="0.9036" stop-color="#FF7407"/>
<stop offset="1" stop-color="#FF6D00"/>
</linearGradient>
</defs>
</svg>
