<svg width="20" height="20" viewBox="0 0 20 20" fill="none" xmlns="http://www.w3.org/2000/svg">
<path d="M15.4027 13.9728C14.8724 14.0996 14.319 14.1667 13.7498 14.1667C9.83782 14.1667 6.6665 10.9954 6.6665 7.08334C6.6665 6.68044 6.70014 6.28541 6.76476 5.90088C6.7346 5.92989 6.70344 5.9566 6.67062 5.98151C6.43678 6.15903 6.14555 6.22492 5.56308 6.35671L5.03278 6.4767C2.98305 6.94047 1.95819 7.17235 1.71435 7.95645C1.47052 8.74054 2.16921 9.55756 3.56659 11.1916L3.9281 11.6144C4.32519 12.0787 4.52374 12.3109 4.61306 12.5981C4.70238 12.8853 4.67236 13.1951 4.61232 13.8146L4.55767 14.3787C4.3464 16.5588 4.24077 17.6489 4.87913 18.1335C5.51748 18.6181 6.47706 18.1763 8.39622 17.2927L8.89274 17.064C9.4381 16.8129 9.71079 16.6874 9.99984 16.6874C10.2889 16.6874 10.5616 16.8129 11.1069 17.064L11.6034 17.2926C13.5226 18.1763 14.4822 18.6181 15.1205 18.1335C15.7589 17.6489 15.6533 16.5588 15.442 14.3787L15.4027 13.9728Z" fill="white"/>
<path opacity="0.5" d="M7.62784 4.50706L7.35476 4.99694C7.05481 5.53503 6.90483 5.80407 6.67099 5.98159C6.70381 5.95668 6.73497 5.92997 6.76513 5.90096C6.70051 6.28549 6.66687 6.68052 6.66687 7.08342C6.66687 10.9954 9.83819 14.1668 13.7502 14.1668C14.3193 14.1668 14.8728 14.0996 15.403 13.9729L15.3877 13.8147C15.3277 13.1952 15.2977 12.8854 15.387 12.5982C15.4763 12.3109 15.6748 12.0788 16.0719 11.6144L16.4335 11.1917C17.8308 9.55764 18.5295 8.74062 18.2857 7.95652C18.0419 7.17243 17.017 6.94054 14.9673 6.47677L14.437 6.35679C13.8545 6.225 13.5633 6.1591 13.3294 5.98159C13.0956 5.80407 12.9456 5.53503 12.6457 4.99695L12.3726 4.50706C11.317 2.61352 10.7893 1.66675 10.0002 1.66675C9.21115 1.66675 8.68338 2.61352 7.62784 4.50706Z" fill="white"/>
</svg>
