<svg width="20" height="20" viewBox="0 0 20 20" fill="none" xmlns="http://www.w3.org/2000/svg">
<path opacity="0.5" d="M9.99984 13.3897L6.85696 16.6439C6.40686 17.1099 6.18181 17.3429 5.99123 17.4236C5.55693 17.6073 5.07519 17.4501 4.84673 17.05C4.74648 16.8744 4.71524 16.5578 4.65276 15.9244L4.65275 15.9244C4.61748 15.5668 4.59984 15.388 4.5463 15.2383C4.42643 14.903 4.17455 14.6422 3.85076 14.5181C3.70613 14.4627 3.53344 14.4444 3.1881 14.4079L3.18808 14.4079C2.57639 14.3432 2.27055 14.3108 2.10099 14.207C1.7146 13.9705 1.56273 13.4717 1.74019 13.022C1.81807 12.8247 2.04312 12.5917 2.49322 12.1256L4.5463 9.99986L5.57814 8.96802L9.99984 13.3897L14.4215 8.96802L15.4534 9.99986L17.5065 12.1256C17.9566 12.5917 18.1816 12.8247 18.2595 13.022C18.4369 13.4717 18.2851 13.9705 17.8987 14.207C17.7291 14.3108 17.4233 14.3432 16.8116 14.4079C16.4662 14.4444 16.2935 14.4627 16.1489 14.5181C15.8251 14.6422 15.5732 14.903 15.4534 15.2383C15.3998 15.388 15.3822 15.5668 15.3469 15.9244V15.9244C15.2844 16.5578 15.2532 16.8744 15.1529 17.05C14.9245 17.4501 14.4427 17.6073 14.0084 17.4236C13.8179 17.3429 13.5928 17.1099 13.1427 16.6439L9.99984 13.3897Z" fill="white"/>
<path fill-rule="evenodd" clip-rule="evenodd" d="M9.99984 13.3334C13.2215 13.3334 15.8332 10.7217 15.8332 7.50008C15.8332 4.27842 13.2215 1.66675 9.99984 1.66675C6.77818 1.66675 4.1665 4.27842 4.1665 7.50008C4.1665 10.7217 6.77818 13.3334 9.99984 13.3334ZM9.99984 5.00008C9.76312 5.00008 9.60479 5.28411 9.28813 5.85218L9.2062 5.99914C9.11622 6.16057 9.07123 6.24128 9.00107 6.29453C8.93092 6.34779 8.84355 6.36756 8.66881 6.40709L8.50972 6.44309C7.8948 6.58222 7.58734 6.65179 7.51419 6.88701C7.44104 7.12224 7.65065 7.36735 8.06986 7.85756L8.17832 7.98439C8.29744 8.12369 8.35701 8.19334 8.3838 8.27951C8.4106 8.36568 8.40159 8.45861 8.38358 8.64447L8.36719 8.81368C8.30381 9.46773 8.27212 9.79476 8.46362 9.94014C8.65513 10.0855 8.94301 9.95297 9.51876 9.68787L9.66771 9.61929C9.83132 9.54396 9.91312 9.50629 9.99984 9.5063C10.0866 9.5063 10.1684 9.54396 10.332 9.61929L10.4809 9.68787C11.0567 9.95297 11.3445 10.0855 11.5361 9.94014C11.7276 9.79476 11.6959 9.46773 11.6325 8.81368L11.6161 8.64447C11.5981 8.45862 11.5891 8.36568 11.6159 8.27951C11.6427 8.19334 11.7022 8.12369 11.8214 7.9844L11.9298 7.85756C12.349 7.36735 12.5586 7.12224 12.4855 6.88701C12.4123 6.65179 12.1049 6.58222 11.49 6.44309L11.3309 6.40709C11.1561 6.36756 11.0688 6.34779 10.9986 6.29453C10.9284 6.24128 10.8835 6.16057 10.7935 5.99914L10.7115 5.85218C10.3949 5.28411 10.2366 5.00008 9.99984 5.00008Z" fill="white"/>
</svg>
