<svg width="20" height="20" viewBox="0 0 20 20" fill="none" xmlns="http://www.w3.org/2000/svg">
<path opacity="0.5" d="M7.99373 2.66687C7.7908 2.8398 7.68933 2.92628 7.58097 2.99891C7.33255 3.16541 7.05356 3.28097 6.76016 3.3389C6.63217 3.36416 6.49928 3.37477 6.23348 3.39598L6.23347 3.39598C5.56566 3.44927 5.23175 3.47592 4.95317 3.57432C4.30884 3.8019 3.80202 4.30872 3.57444 4.95305C3.47604 5.23163 3.4494 5.56554 3.3961 6.23335L3.3961 6.23336C3.37489 6.49915 3.36429 6.63205 3.33902 6.76004C3.28109 7.05344 3.16553 7.33242 2.99903 7.58084C2.9264 7.68921 2.83993 7.79068 2.66699 7.99361L2.66697 7.99363C2.23244 8.50353 2.01517 8.75849 1.88776 9.02505C1.59308 9.64159 1.59308 10.3583 1.88776 10.9749C2.01517 11.2414 2.23244 11.4964 2.66697 12.0063L2.66697 12.0063L2.667 12.0063C2.83991 12.2092 2.9264 12.3107 2.99903 12.4191C3.16553 12.6675 3.28109 12.9465 3.33902 13.2399C3.36429 13.3679 3.37489 13.5008 3.3961 13.7666L3.3961 13.7666C3.4494 14.4344 3.47604 14.7683 3.57444 15.0469C3.80202 15.6912 4.30884 16.198 4.95317 16.4256C5.23174 16.524 5.56565 16.5506 6.23344 16.6039L6.23348 16.6039C6.49928 16.6251 6.63217 16.6358 6.76017 16.661C7.05356 16.7189 7.33255 16.8345 7.58097 17.001C7.68934 17.0736 7.79081 17.1601 7.99375 17.3331C8.50365 17.7676 8.75861 17.9849 9.02517 18.1123C9.64171 18.407 10.3585 18.407 10.975 18.1123C11.2416 17.9849 11.4965 17.7676 12.0064 17.3331C12.2094 17.1601 12.3108 17.0736 12.4192 17.001C12.6676 16.8345 12.9466 16.7189 13.24 16.661C13.368 16.6358 13.5009 16.6251 13.7667 16.6039L13.7667 16.6039C14.4345 16.5506 14.7684 16.524 15.047 16.4256C15.6913 16.198 16.1981 15.6912 16.4257 15.0469C16.5241 14.7683 16.5508 14.4344 16.6041 13.7666L16.6041 13.7666C16.6253 13.5008 16.6359 13.3679 16.6611 13.2399C16.7191 12.9465 16.8346 12.6675 17.0011 12.4191C17.0738 12.3107 17.1602 12.2092 17.3332 12.0063C17.7677 11.4964 17.985 11.2414 18.1124 10.9749C18.4071 10.3583 18.4071 9.64159 18.1124 9.02505C17.985 8.75849 17.7677 8.50353 17.3332 7.99363L17.3332 7.99362C17.1602 7.79068 17.0738 7.68921 17.0011 7.58084C16.8346 7.33242 16.7191 7.05344 16.6611 6.76004C16.6359 6.63205 16.6253 6.49915 16.6041 6.23336L16.6041 6.23332C16.5508 5.56553 16.5241 5.23162 16.4257 4.95305C16.1981 4.30872 15.6913 3.8019 15.047 3.57432C14.7684 3.47592 14.4345 3.44927 13.7667 3.39598L13.7667 3.39598C13.5009 3.37477 13.368 3.36416 13.24 3.3389C12.9466 3.28097 12.6676 3.16541 12.4192 2.99891C12.3108 2.92627 12.2094 2.8398 12.0064 2.66685L12.0064 2.66685C11.4965 2.23231 11.2416 2.01505 10.975 1.88764C10.3585 1.59295 9.64171 1.59295 9.02517 1.88764C8.75861 2.01505 8.50365 2.23232 7.99375 2.66685L7.99373 2.66687Z" fill="#1C274C"/>
<path d="M13.6445 8.21919C13.9094 7.95433 13.9094 7.52491 13.6445 7.26005C13.3797 6.99519 12.9503 6.99519 12.6854 7.26005L8.64353 11.3019L7.31453 9.97291C7.04967 9.70805 6.62024 9.70805 6.35538 9.97291C6.09052 10.2378 6.09052 10.6672 6.35538 10.9321L8.16396 12.7406C8.42882 13.0055 8.85824 13.0055 9.1231 12.7406L13.6445 8.21919Z" fill="#1C274C"/>
</svg>
