<svg width="20" height="20" viewBox="0 0 20 20" fill="none" xmlns="http://www.w3.org/2000/svg">
<path opacity="0.5" fill-rule="evenodd" clip-rule="evenodd" d="M1.66675 9.99994C1.66675 8.96932 1.66675 8.0739 1.68879 7.29163H18.3114C18.3334 8.0739 18.3334 8.96932 18.3334 9.99994C18.3334 13.9283 18.3334 15.8925 17.113 17.1129C15.8926 18.3333 13.9285 18.3333 10.0001 18.3333C6.07171 18.3333 4.10752 18.3333 2.88714 17.1129C1.66675 15.8925 1.66675 13.9283 1.66675 9.99994Z" fill="#1C274C"/>
<path d="M12.4999 12.0834C12.4999 11.5556 11.9482 11.1996 10.8449 10.4877C9.72647 9.76609 9.16725 9.40527 8.75025 9.6702C8.33325 9.93512 8.33325 10.6512 8.33325 12.0834C8.33325 13.5155 8.33325 14.2316 8.75025 14.4966C9.16725 14.7615 9.72648 14.4007 10.8449 13.679C11.9482 12.9671 12.4999 12.6112 12.4999 12.0834Z" fill="#1C274C"/>
<path d="M9.99994 1.66663C11.5376 1.66663 12.7744 1.66663 13.7833 1.73982L10.9154 6.04165H7.00109L9.91777 1.66663H9.99994Z" fill="#1C274C"/>
<path d="M2.88699 2.88701C3.93063 1.84338 5.51822 1.69222 8.41299 1.67033L5.49878 6.04165H1.75342C1.87613 4.57157 2.17227 3.60173 2.88699 2.88701Z" fill="#1C274C"/>
<path d="M18.2465 6.04165C18.1237 4.57157 17.8276 3.60173 17.1129 2.88701C16.6151 2.38924 15.9936 2.0945 15.1655 1.91998L12.4178 6.04165H18.2465Z" fill="#1C274C"/>
</svg>
