<svg width="21" height="20" viewBox="0 0 21 20" fill="none" xmlns="http://www.w3.org/2000/svg">
<path opacity="0.5" d="M3.38738 2.88701C2.16699 4.1074 2.16699 6.07159 2.16699 9.99996C2.16699 13.9283 2.16699 15.8925 3.38738 17.1129C4.60777 18.3333 6.57195 18.3333 10.5003 18.3333C14.4287 18.3333 16.3929 18.3333 17.6133 17.1129C18.8337 15.8925 18.8337 13.9283 18.8337 9.99996C18.8337 6.07159 18.8337 4.1074 17.6133 2.88701C16.3929 1.66663 14.4287 1.66663 10.5003 1.66663C6.57195 1.66663 4.60777 1.66663 3.38738 2.88701Z" fill="#1C274C"/>
<path d="M6.79203 8.00004C6.51589 7.79293 6.45992 7.40118 6.66703 7.12504C6.87414 6.84889 7.26589 6.79293 7.54203 7.00004L9.2087 8.25004C9.36607 8.36807 9.4587 8.55331 9.4587 8.75004C9.4587 8.94676 9.36607 9.132 9.2087 9.25004L7.54203 10.5C7.26589 10.7071 6.87414 10.6512 6.66703 10.375C6.45992 10.0989 6.51589 9.70714 6.79203 9.50004L7.79203 8.75004L6.79203 8.00004Z" fill="#1C274C"/>
<path d="M14.3337 7.12504C14.5408 7.40118 14.4848 7.79293 14.2087 8.00004L13.2087 8.75004L14.2087 9.50004C14.4848 9.70714 14.5408 10.0989 14.3337 10.375C14.1266 10.6512 13.7348 10.7071 13.4587 10.5L11.792 9.25004C11.6347 9.132 11.542 8.94676 11.542 8.75004C11.542 8.55331 11.6347 8.36807 11.792 8.25004L13.4587 7.00004C13.7348 6.79293 14.1266 6.84889 14.3337 7.12504Z" fill="#1C274C"/>
<path d="M13.4423 13.7753C13.1982 14.0194 12.8025 14.0194 12.5584 13.7753L12.1667 13.3836C11.6993 13.8247 10.9676 13.8246 10.5004 13.3832C10.0331 13.8246 9.30142 13.8247 8.83406 13.3836L8.4423 13.7753C8.19823 14.0194 7.8025 14.0194 7.55842 13.7753C7.31434 13.5313 7.31434 13.1355 7.55842 12.8915L7.97509 12.4748C8.44095 12.0089 9.19117 12.0007 9.66703 12.4502C10.1344 12.0088 10.8664 12.0088 11.3337 12.4502C11.8096 12.0007 12.5598 12.0089 13.0256 12.4748L13.4423 12.8915C13.6864 13.1355 13.6864 13.5313 13.4423 13.7753Z" fill="#1C274C"/>
</svg>
